<svg width="20" height="22" viewBox="0 0 20 22" xmlns="http://www.w3.org/2000/svg">
    <path d="M18.975 18.325 17.398 5.9H14.06v-.835A4.173 4.173 0 0 0 9.887.8a4.315 4.315 0 0 0-4.265 4.265V5.9H2.376L.8 18.325v.279A2.596 2.596 0 0 0 3.396 21.2h13.446a2.73 2.73 0 0 0 1.669-.927c.39-.57.555-1.263.464-1.948zM7.29 5.065A2.636 2.636 0 0 1 9.795 2.47a2.652 2.652 0 0 1 2.596 2.596V5.9h-5.1v-.835zM17.12 19.16a.801.801 0 0 1-.556.278H3.304a.835.835 0 0 1-.835-.834v-.093L3.86 7.569h1.762v2.596H7.29V7.57h5.1v2.596h1.669V7.57h1.762l1.483 10.942a.783.783 0 0 1-.185.649z" fill="#000" fill-rule="nonzero"/>
</svg>
