<svg width="22" height="22" viewBox="0 0 22 22" xmlns="http://www.w3.org/2000/svg">
    <g fill="#000" fill-rule="nonzero">
        <path d="M11 1.982c2.937 0 3.285.011 4.445.064a6.072 6.072 0 0 1 2.042.379 3.4 3.4 0 0 1 1.265.823 3.4 3.4 0 0 1 .823 1.265c.243.654.37 1.345.379 2.042.053 1.16.064 1.508.064 4.445 0 2.937-.011 3.285-.064 4.445a6.072 6.072 0 0 1-.379 2.042 3.644 3.644 0 0 1-2.088 2.088 6.072 6.072 0 0 1-2.042.379c-1.16.053-1.508.064-4.445.064-2.937 0-3.285-.011-4.445-.064a6.072 6.072 0 0 1-2.042-.379 3.4 3.4 0 0 1-1.265-.823 3.4 3.4 0 0 1-.823-1.265 6.072 6.072 0 0 1-.379-2.042c-.053-1.16-.064-1.508-.064-4.445 0-2.937.011-3.285.064-4.445a6.072 6.072 0 0 1 .379-2.042 3.4 3.4 0 0 1 .823-1.265 3.4 3.4 0 0 1 1.265-.823 6.072 6.072 0 0 1 2.042-.379c1.16-.053 1.508-.064 4.445-.064M11 0C8.013 0 7.638.013 6.465.066a8.108 8.108 0 0 0-2.67.511A5.625 5.625 0 0 0 .577 3.8a8.108 8.108 0 0 0-.511 2.67C.013 7.638 0 8.013 0 11s.013 3.362.066 4.535c.019.912.192 1.815.511 2.67A5.625 5.625 0 0 0 3.8 21.423c.855.32 1.758.492 2.67.511C7.638 21.987 8.013 22 11 22s3.362-.013 4.535-.066a8.108 8.108 0 0 0 2.67-.511 5.625 5.625 0 0 0 3.218-3.223c.32-.855.492-1.758.511-2.67.053-1.168.066-1.543.066-4.53s-.013-3.362-.066-4.535a8.108 8.108 0 0 0-.511-2.67A5.625 5.625 0 0 0 18.2.577a8.108 8.108 0 0 0-2.67-.511C14.362.013 13.987 0 11 0z"/>
        <path d="M11 5.351a5.649 5.649 0 1 0 0 11.298 5.649 5.649 0 0 0 0-11.298zm0 9.316a3.667 3.667 0 1 1 0-7.334 3.667 3.667 0 0 1 0 7.334z"/>
        <circle cx="16.872" cy="5.128" r="1.32"/>
    </g>
</svg>
