<svg width="20" height="18" viewBox="0 0 20 18" xmlns="http://www.w3.org/2000/svg" xmlns:xlink="http://www.w3.org/1999/xlink">
    <defs>
        <path d="M19.31 16c.381 0 .69.298.69.667a.678.678 0 0 1-.69.666H.69a.678.678 0 0 1-.69-.666C0 16.298.309 16 .69 16zm0-8c.381 0 .69.298.69.667a.678.678 0 0 1-.69.666H.69A.678.678 0 0 1 0 8.667C0 8.298.309 8 .69 8zm0-8c.381 0 .69.298.69.667a.678.678 0 0 1-.69.666H.69A.678.678 0 0 1 0 .667C0 .298.309 0 .69 0z" id="a"/>
    </defs>
    <use fill="#222" fill-rule="nonzero" xlink:href="#a" transform="translate(0 .333)"/>
</svg>
