<svg width="32" height="32" xmlns="http://www.w3.org/2000/svg" xmlns:xlink="http://www.w3.org/1999/xlink">
    <defs>
        <path d="M25.012 15.925c-.39-.227-4.744-2.848-4.768-2.848l-4.743-2.847v2.671a.56.56 0 0 1-.56.58h-1.07c-2.043 0-3.892.856-5.254 2.267-1.24 1.286-2.043 3.05-2.165 4.99.39-.479.852-.907 1.387-1.26 1.046-.706 2.286-1.134 3.624-1.134h3.454c.292 0 .56.252.56.58v2.67l9.535-5.67zm-4.208-3.83 5.546 3.326c.097.05.17.126.243.227.146.277.073.63-.195.78l-11.14 6.653a.477.477 0 0 1-.317.101.56.56 0 0 1-.559-.58v-3.074h-2.895a5.367 5.367 0 0 0-3.016.933 6.056 6.056 0 0 0-2.043 2.47.58.58 0 0 1-.535.402.56.56 0 0 1-.56-.58v-1.562c0-2.419.973-4.636 2.506-6.249 1.556-1.587 3.673-2.595 6.032-2.595h.511v-3.1c0-.1.024-.201.073-.302.146-.277.486-.353.754-.202l5.595 3.352z" id="a"/>
    </defs>
    <g fill="none" fill-rule="evenodd">
        <mask id="b" fill="#fff">
            <use xlink:href="#a"/>
        </mask>
        <use fill="#000" fill-rule="nonzero" xlink:href="#a"/>
        <g mask="url(#b)" fill="#222">
            <path d="M32 32H0V0h32z"/>
        </g>
    </g>
</svg>
