<svg width="26" height="34" xmlns="http://www.w3.org/2000/svg">
    <g fill-rule="nonzero" fill="none">
        <path d="M24.277 17.497c-2.308 4.832-6.906 11.54-10.77 15.93L13 34l-.506-.575C8.629 29.04 4.03 22.33 1.724 17.496a11.197 11.197 0 0 1-1.089-4.863C.635 5.942 6.319 0 13 0c6.68 0 12.365 5.941 12.365 12.633 0 1.716-.366 3.351-1.088 4.864z" fill="#FFF"/>
        <path d="M11.53 8.63c-.248.135-.299.14-.585.082-.97-.183-2.215.088-3.049.67-.75.517-1.133 1.275-.97 1.904.131.523.71.653 1.138.264.091-.082.08-.105-.106-.288-.198-.194-.203-.21-.169-.523a1.58 1.58 0 0 1 .175-.581c.478-.853 1.78-1.405 2.653-1.135l.22.07-.264.23c-.322.277-.858.952-1.235 1.563-.157.259-.31.44-.371.447-.051.006-.17.012-.254.018-.085 0-.22.076-.305.159-.112.117-.134.181-.107.334.017.1.085.241.147.306.062.07.113.147.113.182 0 .03-.164.43-.355.882l-.361.834-.135-.113c-.084-.07-.231-.11-.394-.11-.823 0-1.183 1.163-.62 1.991l.113.165-.124.124c-.208.2-.452.306-.717.306l-.252-.007.15-.087c.306-.17.362-.53.124-.722-.41-.342-.951.057-.81.593.118.44.558.634 1.161.517.197-.041.468-.147.609-.236l.247-.164.226.112c1.29.67 2.986-.264 3.33-1.834.135-.612.05-1.569-.187-2.04-.056-.11-.09-.205-.078-.21.01-.013.175-.107.37-.213.193-.106.486-.316.655-.47.349-.317.597-.44.788-.388.141.036.141.036-.157.447-.536.747-.867 1.57-.918 2.263-.108 1.622 1.52 1.063 2.484-.853.27-.546.485-1.198.485-1.492 0-.153.044-.23.214-.37.112-.094.287-.218.383-.271.208-.11.643-.223.71-.182.028.017-.102.182-.282.37-1.127 1.158-1.375 3.004-.395 3.004.305 0 .559-.124.868-.424.541-.516.873-1.264.885-1.986.006-.34-.016-.5-.113-.694l-.119-.258.204-.094c.27-.118.913-.164 1.076-.071.123.065.118.077-.276.87-.637 1.27-.744 1.71-.479 1.98.28.294.777.13 1.357-.446.338-.34.366-.359.462-.27.158.147.496.276.721.276h.209l-.124.14c-.073.077-.247.2-.394.265-.147.065-1.9.547-3.899 1.064-3.96 1.035-4.146 1.1-4.462 1.57-.134.2-.163.294-.163.599 0 .2.016.382.033.405.023.017.096 0 .164-.04.305-.206 1.11-.483 4.332-1.505 1.899-.605 3.584-1.165 3.741-1.246.423-.212.806-.593 1.054-1.029.13-.235.31-.459.461-.57.338-.252.502-.611.469-1.063-.024-.294-.068-.406-.328-.823-.298-.476-.298-.482-.208-.646.107-.183.123-.447.04-.5-.164-.106-.395.164-.395.458 0 .07-.113.311-.254.529-.242.37-.27.393-.467.393-.519 0-.828.383-.828 1.012 0 .388-.005.4-.248.658-.417.446-.789.517-.71.14.045-.193 1.296-3.137 1.397-3.266.029-.036.119-.071.198-.071.078 0 .37-.03.642-.065.473-.064.507-.076.585-.246l.09-.177-.653.047c-.36.024-.654.024-.654.006 0-.017.046-.123.097-.242.05-.11.078-.216.062-.234-.017-.017-.13-.017-.26.006-.191.029-.237.07-.321.258l-.095.218-.457.04c-.254.018-.67.036-.93.036h-.461l-.153.323c-.084.176-.14.33-.124.341.012.012.39-.024.84-.082.45-.059.862-.106.913-.112.084 0 .073.053-.08.383-.168.352-.191.375-.32.334-.085-.023-.389-.041-.682-.035-.412 0-.591.03-.79.123-.196.089-.292.106-.393.065-.384-.153-1.177.053-1.583.405-.09.083-.164.118-.164.089 0-.03-.068-.124-.146-.212-.23-.235-.648-.194-1.088.117-.14.1-.22.124-.293.083-.056-.035-.202-.059-.326-.059-.13 0-.23-.012-.23-.024 0-.01.039-.135.083-.27.198-.581.045-1.251-.35-1.57l-.196-.157.14-.13a.906.906 0 0 1 .215-.153c.084-.03.016-.164-.08-.164-.039.006-.19.07-.337.153zm-.237.916c.18.312.158.982-.05 1.417-.17.347-.569.782-.857.94-.157.083-.169.083-.388-.117l-.226-.2.299-.6c.282-.576.974-1.628 1.07-1.628.023 0 .096.089.152.188zm8.93 1.352c.135.33.163.782.068 1.046-.051.141-.057.136-.119-.106a1.412 1.412 0 0 0-.27-.481l-.198-.236.158-.263c.09-.148.18-.266.198-.266.022 0 .096.141.163.306zm-6.626.612c-.006.605-.63 1.927-1.212 2.567-.241.265-.348.341-.45.323-.113-.01-.14-.058-.151-.246-.046-.6.918-2.503 1.465-2.903.286-.206.354-.159.348.259zm2.508.11c.005.253-.135.76-.305 1.118-.304.658-.856 1.187-.991.964-.198-.33.27-1.564.867-2.257l.288-.34.073.17c.039.093.068.246.068.346zm2.997-.076a9.012 9.012 0 0 1-.321.43l-.14.176.027-.264c.023-.2.067-.306.202-.43.091-.088.226-.158.288-.158.107 0 .102.017-.056.246zm.63.054c.136.194.215.558.175.793-.04.218-.202.317-.518.317-.209 0-.597-.2-.563-.282.062-.158.704-1.005.744-.993.032.012.1.088.163.165zm-10.878.17c-.107.2-.141.212-.237.088-.096-.118.017-.264.203-.264.13 0 .13 0 .033.176h.001zm.885.258c.056.065.044.094-.052.124-.146.047-.185.017-.135-.11.046-.12.102-.12.187-.014zm.348.6c.102.282.124.834.057 1.21a2.957 2.957 0 0 1-.76 1.493c-.462.482-.857.635-1.567.618l-.209-.006.31-.476c.31-.476.851-1.558 1.212-2.427.203-.5.27-.553.66-.559.207-.006.247.011.297.147zm-2.72 2.227c.067-.017.124-.011.124.012-.006.094-.378.694-.43.688-.089-.012-.303-.459-.303-.646 0-.247.028-.26.27-.13.119.06.266.093.338.076z" fill="#151A61"/>
        <path d="M24.277 17.497c-2.308 4.832-6.906 11.54-10.77 15.93L13 34l-.506-.575C8.629 29.04 4.03 22.33 1.724 17.496a11.197 11.197 0 0 1-1.089-4.863C.635 5.942 6.319 0 13 0c6.68 0 12.365 5.941 12.365 12.633 0 1.716-.366 3.351-1.088 4.864zm-.286-4.863c0-5.903-5.07-11.203-10.992-11.203-5.921 0-10.99 5.3-10.99 11.202a9.71 9.71 0 0 0 .944 4.226C5.1 21.354 9.328 27.585 13 31.874c3.672-4.291 7.9-10.52 10.047-15.015a9.72 9.72 0 0 0 .944-4.225z" fill="#151A61"/>
    </g>
</svg>
