<svg width="25" height="34" xmlns="http://www.w3.org/2000/svg">
    <g fill-rule="nonzero" fill="none">
        <path d="M22.386 17.455c-2.05 4.43-6.137 10.58-9.573 14.602l-.45.526-.449-.526c-3.435-4.02-7.522-10.173-9.573-14.602a10.529 10.529 0 0 1-.967-4.458c0-6.134 5.05-11.58 10.989-11.58 5.938 0 10.99 5.446 10.99 11.58 0 1.572-.325 3.071-.967 4.458z" fill="#FFF"/>
        <path d="M23.64 17.497c-2.31 4.831-6.905 11.542-10.77 15.928l-.506.575-.507-.575C7.994 29.04 3.397 22.328 1.088 17.497A11.197 11.197 0 0 1 0 12.633C0 5.942 5.683 0 12.364 0c6.68 0 12.363 5.941 12.363 12.633a11.19 11.19 0 0 1-1.088 4.864zM10.893 8.72c-.248.137-.298.143-.586.083-.97-.184-2.214.09-3.048.677-.749.524-1.132 1.29-.968 1.926.13.528.709.658 1.137.266.09-.082.08-.106-.107-.29-.197-.197-.203-.214-.169-.53.017-.196.09-.438.175-.588.479-.86 1.78-1.418 2.653-1.146l.22.072-.265.232c-.321.279-.856.962-1.233 1.58-.158.261-.31.445-.373.45-.05.007-.169.012-.253.018-.084 0-.22.078-.304.16-.113.12-.135.185-.108.34a.711.711 0 0 0 .147.308c.062.072.113.149.113.184 0 .03-.164.434-.355.891l-.36.844-.136-.113c-.084-.071-.23-.113-.394-.113-.822 0-1.183 1.176-.62 2.013l.113.167-.124.125c-.208.202-.45.308-.715.308l-.254-.005.153-.09c.304-.171.36-.534.123-.73-.411-.345-.952.06-.811.6.118.445.558.641 1.16.523.198-.042.468-.15.61-.238l.246-.166.226.112c1.29.677 2.985-.267 3.33-1.853.135-.618.05-1.585-.187-2.06-.056-.114-.09-.209-.078-.215.01-.011.174-.107.371-.214.192-.106.485-.32.654-.474.35-.321.596-.446.788-.393.142.036.142.036-.157.452-.536.754-.868 1.586-.919 2.287-.107 1.639 1.522 1.075 2.484-.861.271-.553.485-1.212.485-1.51 0-.154.045-.23.214-.373.113-.096.288-.22.384-.274.208-.112.642-.225.709-.184.029.018-.101.184-.282.374-1.126 1.171-1.374 3.036-.394 3.036.304 0 .558-.125.868-.428.54-.523.872-1.277.884-2.007.006-.345-.017-.506-.113-.701l-.118-.262.203-.095c.27-.119.912-.167 1.076-.07.124.065.118.076-.276.878-.637 1.283-.744 1.728-.479 2.002.282.297.778.13 1.357-.452.338-.345.367-.362.463-.273.157.148.495.279.72.279h.21l-.124.143a1.515 1.515 0 0 1-.395.267c-.146.066-1.898.553-3.898 1.075-3.96 1.045-4.146 1.11-4.462 1.586-.136.202-.163.297-.163.605 0 .203.017.387.033.41.023.018.096 0 .164-.04.304-.209 1.11-.488 4.332-1.522 1.898-.611 3.583-1.176 3.74-1.259.422-.213.806-.6 1.054-1.04.13-.237.31-.463.462-.576.338-.255.501-.618.467-1.074-.022-.297-.067-.41-.327-.832-.298-.481-.298-.487-.208-.654.107-.184.124-.45.04-.504-.164-.107-.395.166-.395.463 0 .071-.113.315-.253.535-.243.374-.27.397-.468.397-.518 0-.828.387-.828 1.022 0 .392-.006.404-.247.666-.418.45-.79.522-.71.142.044-.196 1.295-3.172 1.396-3.302.029-.037.119-.072.197-.072.08 0 .372-.03.642-.065.473-.066.507-.077.587-.25l.09-.178-.654.048c-.36.024-.653.024-.653.005 0-.017.045-.124.095-.243.051-.113.08-.22.063-.237-.018-.019-.13-.019-.26.005-.191.03-.236.072-.32.262l-.097.22-.456.041c-.253.018-.67.036-.93.036h-.46l-.154.327c-.084.178-.14.332-.123.344.011.012.388-.024.839-.083.45-.06.862-.107.913-.113.084 0 .072.054-.08.386-.168.356-.19.38-.32.338-.085-.023-.389-.041-.682-.035-.411 0-.592.03-.789.125-.196.09-.292.107-.394.065-.383-.155-1.177.053-1.583.41-.09.083-.163.119-.163.09 0-.03-.068-.126-.146-.215-.232-.238-.648-.196-1.088.119-.14.1-.22.125-.293.083-.056-.036-.203-.06-.327-.06-.129 0-.23-.01-.23-.023 0-.012.039-.137.084-.273.197-.588.045-1.265-.35-1.586l-.196-.16.14-.131a.914.914 0 0 1 .215-.155c.084-.029.016-.166-.079-.166-.04.006-.192.072-.338.154zm-.237.927c.18.315.158.992-.051 1.431-.169.35-.569.79-.856.95-.157.084-.169.084-.389-.118l-.225-.202.298-.606c.282-.582.975-1.645 1.07-1.645.023 0 .097.089.153.19zm8.928 1.367c.136.332.164.79.068 1.056-.05.143-.056.137-.118-.107a1.45 1.45 0 0 0-.27-.487l-.197-.237.157-.268c.09-.148.18-.267.197-.267.023 0 .096.143.163.31zm-6.624.617c-.005.612-.63 1.948-1.211 2.596-.242.267-.35.344-.451.327-.112-.012-.14-.06-.152-.25-.045-.606.918-2.531 1.465-2.934.287-.208.355-.16.349.261zm2.507.113c.005.255-.136.766-.304 1.128-.304.666-.856 1.2-.992.975-.197-.333.27-1.58.868-2.281l.287-.345.073.172c.04.095.068.25.068.35zm2.997-.077a8.594 8.594 0 0 1-.322.433l-.14.178.028-.267c.022-.202.067-.309.202-.434.09-.089.226-.16.288-.16.107 0 .102.018-.056.25zm.63.053c.136.196.215.564.175.802-.04.22-.202.32-.518.32-.209 0-.597-.202-.564-.284.063-.16.705-1.016.744-1.004.034.012.102.089.163.166zm-10.877.172c-.107.202-.14.214-.237.09-.095-.12.017-.268.204-.268.128 0 .128 0 .033.178zm.885.262c.056.065.045.094-.051.124-.147.048-.187.018-.136-.112.045-.119.102-.119.187-.012zm.349.606c.101.285.123.843.056 1.223a2.998 2.998 0 0 1-.76 1.51c-.462.486-.857.64-1.567.622l-.208-.005.31-.482c.31-.48.85-1.574 1.21-2.453.204-.505.271-.558.66-.564.208-.006.248.012.298.149zM6.73 15.01c.068-.018.124-.012.124.012-.006.095-.378.7-.429.695-.09-.012-.304-.463-.304-.654 0-.25.029-.261.27-.13.12.059.265.094.339.077z" fill="#151A61"/>
    </g>
</svg>
