<svg id="svg" version="1.1" xmlns="http://www.w3.org/2000/svg" xmlns:xlink="http://www.w3.org/1999/xlink" width="24" height="34" viewBox="0, 0, 400,566.6666666666666"><g id="svgg"><path id="path0" d="M175.600 1.609 C 175.600 2.904,175.425 3.287,174.700 3.575 C 172.313 4.523,163.884 6.098,159.501 6.415 C 154.154 6.802,149.786 7.799,147.600 9.131 C 144.774 10.852,142.926 11.516,139.677 11.977 C 137.488 12.287,135.303 12.934,133.277 13.872 C 127.930 16.344,125.914 17.200,125.433 17.200 C 125.176 17.200,123.444 18.009,121.583 18.997 C 117.570 21.129,115.432 22.150,113.800 22.715 C 110.935 23.707,107.877 25.163,106.933 25.983 C 106.032 26.766,104.324 27.763,100.200 29.912 C 99.540 30.256,98.910 30.664,98.800 30.818 C 98.410 31.366,95.791 32.797,95.175 32.799 C 93.906 32.802,90.953 34.536,89.400 36.191 C 88.520 37.128,87.350 38.033,86.800 38.202 C 86.250 38.370,85.710 38.624,85.600 38.767 C 85.490 38.910,84.450 39.628,83.288 40.362 C 82.127 41.097,80.957 41.996,80.688 42.360 C 80.125 43.124,76.909 45.181,74.651 46.223 C 73.568 46.723,72.925 47.369,72.517 48.369 C 71.887 49.909,68.323 53.537,65.033 55.988 C 62.399 57.951,57.222 63.008,56.012 64.800 C 55.492 65.570,54.242 67.037,53.234 68.059 C 52.225 69.081,51.203 70.251,50.963 70.659 C 50.722 71.067,49.709 71.793,48.712 72.273 C 47.293 72.956,46.695 73.566,45.966 75.073 C 44.803 77.479,43.110 79.989,42.048 80.880 C 41.603 81.254,40.735 82.334,40.120 83.280 C 39.505 84.226,38.776 85.238,38.501 85.529 C 38.225 85.819,38.000 86.366,38.000 86.743 C 38.000 87.120,37.109 88.322,36.020 89.414 C 34.881 90.556,33.760 92.165,33.382 93.200 C 32.315 96.122,31.653 97.458,31.007 97.994 C 30.673 98.271,30.400 98.660,30.400 98.859 C 30.400 99.057,29.770 100.135,29.000 101.255 C 28.230 102.374,27.600 103.513,27.600 103.786 C 27.600 104.060,27.127 104.794,26.548 105.418 C 25.486 106.564,22.427 112.316,22.368 113.279 C 22.350 113.566,21.909 114.520,21.389 115.400 C 19.254 119.008,17.701 122.740,16.469 127.229 C 16.011 128.894,14.882 131.500,13.959 133.019 C 12.550 135.339,12.231 136.263,11.971 138.791 C 11.677 141.641,10.921 143.795,9.208 146.668 C 7.817 149.000,6.824 153.154,6.399 158.410 C 5.938 164.117,5.678 165.725,4.380 170.900 L 3.502 174.400 1.751 174.400 L 0.000 174.400 0.000 197.800 L 0.000 221.200 1.576 221.200 C 3.402 221.200,3.441 221.245,4.261 224.295 C 5.794 229.999,6.024 231.327,6.389 236.600 C 6.988 245.276,7.700 248.608,9.821 252.662 C 11.409 255.698,11.710 256.681,12.179 260.371 C 12.732 264.718,13.054 265.718,15.502 270.708 C 16.287 272.307,17.057 274.377,17.214 275.308 C 17.371 276.238,17.784 277.990,18.132 279.200 C 18.479 280.410,19.058 282.480,19.417 283.800 C 19.776 285.120,20.302 286.470,20.587 286.800 C 21.394 287.737,22.400 289.886,22.402 290.680 C 22.406 291.763,25.339 299.103,26.144 300.043 C 26.993 301.034,27.343 301.873,28.215 305.000 C 28.582 306.320,29.225 308.243,29.642 309.274 C 30.059 310.305,30.400 311.408,30.400 311.725 C 30.400 312.042,30.648 312.508,30.951 312.760 C 31.515 313.227,35.600 321.180,35.600 321.810 C 35.600 322.001,36.067 322.830,36.637 323.653 C 37.207 324.476,37.844 325.906,38.051 326.830 C 38.259 327.754,38.854 329.431,39.374 330.555 C 39.893 331.680,40.687 333.457,41.139 334.505 C 41.590 335.552,42.230 336.513,42.561 336.640 C 43.342 336.940,45.306 341.061,46.437 344.775 C 46.734 345.752,47.382 346.987,47.876 347.520 C 48.370 348.053,48.882 348.829,49.014 349.245 C 49.146 349.660,49.400 350.000,49.579 350.000 C 49.923 350.000,52.800 356.419,52.800 357.186 C 52.800 357.641,54.149 359.696,55.156 360.773 C 55.461 361.101,55.976 362.001,56.299 362.775 C 56.622 363.549,57.407 364.938,58.043 365.863 C 58.680 366.788,59.200 367.661,59.200 367.804 C 59.200 367.947,59.807 368.995,60.549 370.132 C 61.291 371.269,62.006 372.663,62.139 373.229 C 62.271 373.795,62.834 374.928,63.390 375.747 C 63.945 376.566,64.400 377.351,64.400 377.492 C 64.400 377.633,64.737 378.120,65.148 378.574 C 65.560 379.028,66.728 381.004,67.743 382.964 C 68.758 384.924,70.222 387.211,70.995 388.046 C 71.768 388.882,72.400 389.777,72.400 390.035 C 72.400 390.294,72.744 391.067,73.164 391.753 C 73.585 392.439,74.239 393.957,74.619 395.127 C 75.069 396.513,75.894 397.836,76.988 398.927 C 79.007 400.939,80.400 402.902,80.400 403.733 C 80.400 404.069,80.676 404.618,81.012 404.955 C 81.349 405.292,81.934 406.251,82.312 407.087 C 83.297 409.264,85.189 412.237,86.718 414.009 C 87.443 414.849,88.855 417.198,89.857 419.229 C 91.123 421.795,92.367 423.615,93.939 425.199 C 96.396 427.674,99.626 432.117,101.501 435.600 C 102.152 436.810,103.156 438.520,103.732 439.400 C 104.736 440.936,105.357 441.723,107.989 444.800 C 108.648 445.570,109.190 446.349,109.194 446.532 C 109.197 446.715,109.830 447.814,110.600 448.974 C 111.370 450.134,112.000 451.248,112.000 451.449 C 112.000 451.650,113.170 453.145,114.600 454.769 C 116.030 456.394,117.203 457.921,117.207 458.162 C 117.214 458.546,119.010 461.495,119.912 462.600 C 123.806 467.376,125.200 469.195,125.200 469.502 C 125.200 469.708,125.581 470.219,126.047 470.638 C 126.512 471.057,127.314 472.347,127.827 473.505 C 128.340 474.663,129.032 475.714,129.365 475.842 C 129.697 475.970,130.069 476.388,130.191 476.773 C 130.313 477.157,130.877 477.720,131.443 478.023 C 132.646 478.667,133.776 480.718,134.565 483.688 C 135.410 486.872,135.444 486.916,137.986 488.138 C 139.874 489.046,140.539 489.629,141.276 491.020 C 142.621 493.558,147.192 499.273,148.058 499.499 C 148.466 499.606,148.800 499.865,148.800 500.075 C 148.800 500.284,149.340 501.241,150.000 502.200 C 150.660 503.159,151.200 504.066,151.200 504.215 C 151.200 504.565,154.909 509.199,155.868 510.048 C 156.271 510.404,157.230 511.448,158.000 512.366 C 158.770 513.285,159.824 514.524,160.342 515.118 C 160.860 515.713,161.695 517.010,162.198 518.000 C 162.701 518.991,164.077 520.705,165.256 521.811 C 166.435 522.916,167.805 524.356,168.300 525.010 C 169.709 526.872,171.585 529.769,171.593 530.097 C 171.606 530.628,173.362 532.482,174.968 533.661 C 176.213 534.575,180.400 540.248,180.400 541.022 C 180.400 541.120,181.364 542.145,182.543 543.300 C 183.721 544.455,184.976 545.940,185.330 546.600 C 185.684 547.260,187.645 549.330,189.687 551.200 C 193.113 554.337,195.981 557.849,196.013 558.945 C 196.057 560.445,197.511 561.200,200.357 561.200 L 203.187 561.200 204.293 559.164 C 204.902 558.045,205.679 556.650,206.020 556.064 C 206.712 554.877,212.101 549.430,213.500 548.504 C 213.995 548.176,214.400 547.737,214.400 547.527 C 214.400 546.949,216.377 544.424,218.500 542.292 C 219.545 541.242,220.400 540.235,220.400 540.054 C 220.400 539.873,220.850 539.201,221.400 538.562 C 221.949 537.923,222.399 537.172,222.400 536.893 C 222.400 536.615,223.728 535.085,225.350 533.493 C 226.973 531.902,228.638 529.991,229.050 529.248 C 230.922 525.872,233.217 522.863,235.169 521.226 C 236.070 520.470,237.324 518.940,237.955 517.826 C 238.586 516.712,239.484 515.457,239.951 515.038 C 240.418 514.619,240.800 514.079,240.800 513.838 C 240.800 513.597,241.430 512.897,242.200 512.283 C 242.970 511.669,243.600 510.982,243.600 510.757 C 243.600 510.532,244.140 509.894,244.800 509.339 C 245.460 508.783,246.000 508.188,246.000 508.015 C 246.000 507.842,246.630 507.013,247.400 506.172 C 248.170 505.331,248.800 504.467,248.800 504.251 C 248.800 503.525,251.589 499.807,252.700 499.053 C 253.305 498.643,254.340 497.614,255.000 496.767 C 255.660 495.920,256.775 494.580,257.477 493.788 C 258.180 492.996,258.955 491.741,259.200 490.999 C 259.619 489.732,262.360 487.600,263.571 487.600 C 264.286 487.600,265.600 486.051,265.600 485.208 C 265.600 483.393,267.347 479.122,268.358 478.465 C 270.044 477.369,271.578 475.520,272.559 473.400 C 273.068 472.300,273.870 471.057,274.342 470.638 C 274.814 470.219,275.200 469.703,275.200 469.491 C 275.200 469.088,276.821 467.048,278.769 465.000 C 280.061 463.641,282.568 459.760,282.968 458.500 C 283.114 458.039,284.214 456.565,285.411 455.223 C 286.609 453.881,287.888 452.202,288.253 451.491 C 288.619 450.781,289.342 449.643,289.859 448.962 C 290.377 448.281,290.800 447.587,290.800 447.419 C 290.800 446.897,294.768 442.098,295.401 441.855 C 295.730 441.729,296.000 441.363,296.000 441.043 C 296.000 440.723,296.437 439.942,296.971 439.307 C 297.505 438.672,298.408 437.173,298.977 435.976 C 300.286 433.222,301.205 431.658,302.127 430.619 C 302.526 430.169,303.230 429.170,303.690 428.400 C 304.151 427.630,305.579 425.989,306.864 424.753 C 308.149 423.517,309.200 422.223,309.200 421.877 C 309.200 421.531,309.374 421.140,309.587 421.008 C 310.063 420.714,312.000 416.911,312.001 416.267 C 312.002 416.010,312.541 415.440,313.200 415.000 C 313.859 414.560,314.398 413.961,314.399 413.668 C 314.399 413.375,315.030 412.186,315.800 411.026 C 316.570 409.866,317.200 408.817,317.200 408.694 C 317.200 408.367,322.116 400.501,323.615 398.429 C 324.320 397.455,325.031 396.195,325.195 395.629 C 325.731 393.782,328.179 389.417,329.096 388.674 C 330.242 387.745,332.800 383.398,332.800 382.379 C 332.800 381.950,332.968 381.600,333.173 381.600 C 333.378 381.600,333.657 381.250,333.793 380.823 C 333.928 380.395,334.847 379.005,335.834 377.734 C 336.822 376.463,337.732 374.967,337.858 374.411 C 338.211 372.854,341.226 366.735,342.259 365.481 C 342.766 364.865,343.455 363.783,343.791 363.076 C 344.126 362.369,345.025 361.072,345.788 360.195 C 346.552 359.318,347.556 357.610,348.020 356.400 C 348.484 355.190,349.028 353.930,349.229 353.600 C 349.429 353.270,350.120 351.999,350.764 350.776 C 351.408 349.553,352.221 348.314,352.571 348.024 C 352.922 347.733,353.500 346.484,353.857 345.248 C 354.214 344.011,354.932 342.111,355.453 341.025 C 355.974 339.939,356.400 338.851,356.400 338.608 C 356.400 338.365,357.030 337.499,357.800 336.682 C 358.570 335.866,359.200 334.972,359.200 334.695 C 359.200 334.418,359.828 332.754,360.595 330.996 C 361.362 329.238,361.992 327.556,361.995 327.258 C 361.998 326.960,362.540 325.916,363.200 324.938 C 363.860 323.960,364.396 323.034,364.391 322.880 C 364.386 322.726,365.001 321.340,365.757 319.800 C 366.514 318.260,367.349 316.280,367.614 315.400 C 367.879 314.520,368.405 313.440,368.782 313.000 C 370.479 311.023,371.980 307.933,372.220 305.921 C 372.493 303.636,373.531 300.400,373.991 300.400 C 374.579 300.400,376.999 294.880,377.613 292.142 C 377.818 291.226,378.692 288.974,379.554 287.138 C 381.215 283.602,382.800 279.128,382.800 277.978 C 382.800 276.546,384.857 269.443,385.561 268.443 C 387.339 265.918,388.000 264.036,388.000 261.500 C 388.000 258.176,388.838 255.084,390.809 251.134 C 392.774 247.197,393.169 245.544,393.618 239.400 C 393.845 236.288,394.505 232.349,395.496 228.200 L 397.023 221.800 398.512 221.676 L 400.000 221.552 400.000 197.176 L 400.000 172.800 398.668 172.800 C 397.691 172.800,397.210 172.559,396.866 171.900 C 395.683 169.629,393.600 158.880,393.600 155.045 C 393.600 153.138,392.225 148.172,391.428 147.200 C 390.317 145.846,388.877 142.015,388.421 139.200 C 387.679 134.623,387.682 134.633,386.691 133.171 C 385.906 132.013,382.800 124.275,382.800 123.477 C 382.800 123.059,379.925 117.019,379.621 116.800 C 379.249 116.531,377.600 113.053,377.600 112.537 C 377.600 111.935,374.703 106.269,374.156 105.800 C 373.900 105.580,373.202 104.500,372.605 103.400 C 372.009 102.300,371.301 101.130,371.033 100.800 C 369.827 99.318,367.283 94.469,367.045 93.200 C 366.873 92.285,366.025 90.979,364.597 89.432 C 363.395 88.130,362.293 86.690,362.148 86.232 C 361.791 85.103,360.162 82.933,358.219 81.000 C 356.569 79.358,356.353 79.033,354.313 75.115 C 353.659 73.858,352.786 72.723,352.374 72.592 C 351.963 72.461,350.765 71.352,349.713 70.127 C 348.661 68.902,347.566 67.698,347.281 67.450 C 346.486 66.761,346.126 66.356,344.447 64.264 C 343.593 63.200,342.378 62.013,341.747 61.627 C 341.116 61.241,339.714 59.908,338.632 58.663 C 337.549 57.418,336.492 56.400,336.284 56.400 C 335.533 56.400,327.600 48.504,327.600 47.757 C 327.600 47.206,326.202 46.236,324.800 45.815 C 323.100 45.304,319.926 43.143,317.016 40.515 C 315.484 39.132,314.012 38.000,313.744 38.000 C 313.476 38.000,312.589 37.370,311.773 36.600 C 310.956 35.830,310.141 35.200,309.962 35.200 C 309.782 35.200,308.719 34.660,307.600 34.000 C 306.481 33.340,305.331 32.800,305.044 32.800 C 304.758 32.800,304.202 32.444,303.808 32.009 C 303.090 31.215,296.085 27.600,295.266 27.600 C 295.025 27.600,294.237 27.092,293.514 26.471 C 290.448 23.838,276.508 17.200,274.044 17.200 C 273.484 17.200,270.465 15.720,269.600 15.023 C 268.288 13.964,264.021 12.491,260.800 11.986 C 257.757 11.508,255.353 10.725,253.600 9.638 C 250.612 7.787,247.208 7.029,239.047 6.399 C 230.812 5.764,225.600 3.892,225.600 1.571 L 225.600 0.000 200.600 0.000 L 175.600 0.000 175.600 1.609 M130.137 149.431 C 135.225 150.687,138.000 151.886,138.000 152.827 C 138.000 153.032,138.373 153.200,138.830 153.200 C 140.399 153.200,145.695 156.313,146.319 157.601 C 146.639 158.261,147.106 158.800,147.357 158.800 C 148.378 158.800,150.852 160.932,151.665 162.514 C 154.590 168.200,152.105 173.700,146.214 174.579 C 145.122 174.742,143.867 175.128,143.425 175.437 C 142.403 176.153,141.407 176.151,140.286 175.431 C 139.799 175.118,138.364 174.674,137.099 174.444 C 133.693 173.826,132.451 172.985,130.982 170.300 C 130.436 169.304,130.164 169.198,128.090 169.176 C 126.830 169.163,124.900 168.983,123.800 168.777 C 117.206 167.540,114.284 167.589,105.800 169.080 C 105.140 169.196,104.060 169.783,103.400 170.384 C 102.740 170.985,101.480 171.999,100.600 172.636 C 99.720 173.274,98.910 173.904,98.800 174.036 C 98.690 174.169,98.108 174.397,97.506 174.545 C 96.836 174.708,96.325 175.159,96.187 175.706 C 96.057 176.221,94.892 177.314,93.438 178.285 L 90.915 179.970 90.681 182.285 C 90.513 183.952,89.884 185.719,88.436 188.600 C 85.321 194.793,85.383 197.297,88.847 205.096 C 89.261 206.028,89.600 207.029,89.600 207.319 C 89.600 207.610,89.864 208.196,90.187 208.624 C 90.510 209.051,90.780 209.702,90.787 210.072 C 90.830 212.352,101.348 220.894,104.789 221.445 C 105.699 221.590,107.019 222.120,107.722 222.622 C 111.344 225.207,111.949 225.400,116.404 225.394 C 120.275 225.388,120.719 225.306,122.004 224.366 C 124.001 222.905,126.295 222.000,128.888 221.648 C 130.997 221.362,135.600 218.596,135.600 217.615 C 135.600 217.457,136.365 217.087,137.300 216.792 C 138.235 216.498,139.670 215.928,140.489 215.526 C 144.821 213.400,156.764 223.609,153.444 226.600 C 153.200 226.820,152.460 228.125,151.800 229.499 C 151.140 230.874,150.499 231.999,150.375 231.999 C 150.252 232.000,149.802 232.318,149.375 232.706 C 148.949 233.095,147.681 233.997,146.558 234.711 C 145.435 235.425,144.194 236.365,143.800 236.800 C 142.122 238.654,139.388 239.893,135.000 240.786 C 132.580 241.279,130.287 241.844,129.905 242.041 C 129.523 242.239,128.967 242.400,128.669 242.400 C 128.371 242.400,126.974 242.983,125.564 243.695 C 119.209 246.904,113.864 246.820,106.549 243.395 C 103.141 241.800,99.290 240.516,96.339 239.991 C 93.891 239.556,90.118 237.748,88.760 236.359 C 88.163 235.749,86.623 234.712,85.338 234.055 C 82.370 232.538,77.600 228.523,77.600 227.541 C 77.600 227.134,77.423 226.800,77.208 226.800 C 76.992 226.800,76.709 226.375,76.578 225.856 C 76.448 225.337,75.455 224.039,74.371 222.971 C 73.287 221.904,72.394 220.753,72.386 220.415 C 72.369 219.699,69.836 214.527,68.362 212.200 C 64.649 206.338,64.734 188.384,68.510 181.000 C 69.073 179.900,70.020 177.470,70.615 175.600 C 71.211 173.730,71.856 172.029,72.049 171.820 C 72.242 171.611,72.400 171.120,72.400 170.729 C 72.400 170.338,72.823 169.741,73.339 169.403 C 73.856 169.064,75.611 167.161,77.239 165.173 C 80.275 161.467,83.240 158.810,84.366 158.787 C 84.715 158.780,85.617 158.154,86.372 157.396 C 87.231 156.533,88.668 155.710,90.214 155.196 C 91.572 154.744,93.024 154.115,93.442 153.800 C 93.859 153.484,94.593 153.220,95.073 153.213 C 95.574 153.205,96.050 152.874,96.189 152.434 C 97.556 148.128,117.657 146.350,130.137 149.431 M221.198 148.986 C 222.627 149.344,224.196 149.898,224.684 150.218 C 225.172 150.538,225.861 150.800,226.214 150.800 C 226.567 150.800,227.608 151.313,228.528 151.939 C 229.448 152.566,230.706 153.202,231.325 153.353 C 232.661 153.679,237.816 157.344,238.145 158.201 C 238.272 158.531,238.820 158.800,239.364 158.800 C 239.908 158.800,240.466 158.983,240.605 159.208 C 240.743 159.432,241.736 160.061,242.811 160.606 C 244.162 161.290,245.166 162.206,246.059 163.571 C 246.770 164.657,247.762 165.766,248.263 166.034 C 249.128 166.497,251.200 169.224,251.200 169.901 C 251.200 170.075,251.830 171.175,252.600 172.344 C 253.370 173.513,254.000 174.561,254.000 174.673 C 254.000 174.785,254.343 175.358,254.761 175.946 C 255.444 176.905,256.616 180.871,258.263 187.800 C 259.487 192.953,259.471 193.236,257.149 207.600 C 256.446 211.943,255.281 215.747,254.454 216.400 C 254.059 216.711,253.317 217.980,251.940 220.699 C 250.993 222.568,250.256 223.443,249.016 224.169 C 247.804 224.880,247.065 225.740,246.267 227.370 C 245.667 228.597,245.002 229.600,244.791 229.600 C 244.579 229.600,243.925 230.140,243.337 230.800 C 242.749 231.460,242.048 232.000,241.780 232.000 C 241.512 232.000,241.009 232.432,240.663 232.961 C 240.316 233.489,239.171 234.239,238.117 234.627 C 237.062 235.015,235.660 235.843,235.000 236.466 C 232.083 239.219,231.535 239.509,227.600 240.397 C 224.670 241.057,221.011 242.253,218.800 243.272 C 214.717 245.155,213.955 245.299,208.000 245.320 C 201.716 245.342,202.589 245.562,197.400 242.653 C 195.419 241.542,192.175 240.540,188.934 240.038 C 186.222 239.617,184.559 238.886,182.332 237.137 C 181.524 236.502,180.043 235.620,179.041 235.177 C 177.316 234.414,175.200 232.261,175.200 231.269 C 175.200 231.018,174.345 230.377,173.300 229.843 C 169.791 228.049,164.400 220.805,164.400 217.884 C 164.400 217.616,163.860 216.888,163.200 216.265 C 162.540 215.642,162.000 214.940,162.000 214.705 C 162.000 214.470,161.569 213.360,161.043 212.239 C 159.437 208.819,159.097 206.043,159.054 196.000 L 159.013 186.600 160.512 181.200 C 161.768 176.677,162.205 175.633,163.206 174.771 C 163.863 174.205,164.400 173.449,164.400 173.092 C 164.400 172.735,165.030 171.368,165.800 170.054 C 166.570 168.740,167.201 167.516,167.203 167.333 C 167.204 167.150,168.288 166.109,169.610 165.019 C 170.932 163.930,172.285 162.625,172.616 162.119 C 172.947 161.614,173.541 161.200,173.934 161.200 C 174.328 161.200,175.168 160.660,175.800 160.000 C 176.432 159.340,177.110 158.800,177.306 158.800 C 177.501 158.800,178.191 158.270,178.839 157.623 C 179.998 156.463,186.185 153.200,187.223 153.200 C 187.516 153.200,188.216 152.764,188.778 152.230 C 189.784 151.275,194.727 149.117,197.555 148.397 C 199.995 147.776,218.175 148.228,221.198 148.986 M313.984 149.549 C 316.065 150.237,317.968 150.800,318.213 150.800 C 318.457 150.800,319.365 151.335,320.229 151.989 C 321.093 152.643,322.076 153.183,322.413 153.189 C 323.250 153.204,327.150 155.642,328.493 156.989 C 330.412 158.914,331.124 164.361,329.725 166.411 C 327.140 170.198,325.513 171.603,322.739 172.446 L 319.982 173.283 316.113 172.186 C 313.841 171.541,311.838 170.711,311.259 170.174 C 308.846 167.937,292.012 167.243,290.570 169.321 C 290.540 169.364,289.862 170.390,289.063 171.600 C 288.264 172.810,287.340 174.083,287.010 174.429 C 286.472 174.993,286.536 175.181,287.621 176.220 C 288.287 176.859,289.375 178.227,290.039 179.260 C 291.084 180.890,291.548 181.230,293.522 181.822 C 298.429 183.293,299.486 183.696,301.888 185.010 C 304.541 186.462,308.257 187.591,310.458 187.614 C 311.196 187.621,313.150 188.161,314.800 188.812 C 316.450 189.464,317.970 189.998,318.178 189.999 C 318.386 189.999,319.016 190.421,319.578 190.936 C 320.140 191.451,321.230 192.112,322.000 192.404 C 322.770 192.697,324.110 193.445,324.979 194.068 C 325.847 194.691,326.792 195.200,327.079 195.200 C 327.365 195.200,327.600 195.337,327.600 195.504 C 327.600 195.937,329.299 197.658,330.651 198.597 C 332.777 200.072,335.335 202.936,335.781 204.341 C 335.935 204.825,336.474 205.492,336.980 205.823 C 340.399 208.064,340.185 220.241,336.668 223.538 C 336.118 224.054,335.558 224.912,335.425 225.444 C 335.125 226.637,334.628 227.253,330.600 231.413 C 328.840 233.230,327.040 234.826,326.600 234.959 C 326.160 235.092,324.990 236.027,324.000 237.038 C 321.798 239.286,321.876 239.245,317.200 240.604 C 315.110 241.212,313.310 241.823,313.200 241.964 C 311.433 244.220,300.114 246.625,295.873 245.646 C 294.809 245.401,293.546 245.200,293.066 245.200 C 292.126 245.200,288.860 243.586,287.577 242.488 C 286.797 241.820,280.648 240.080,278.880 240.028 C 277.527 239.987,275.710 238.953,272.938 236.648 C 271.584 235.522,269.900 234.160,269.196 233.621 C 265.788 231.017,264.996 221.600,268.184 221.600 C 268.833 221.600,271.374 220.024,272.600 218.860 C 275.378 216.225,280.388 216.408,282.800 219.234 C 283.057 219.536,288.910 221.600,289.507 221.600 C 289.756 221.600,290.760 222.140,291.738 222.800 C 292.716 223.460,293.656 224.000,293.827 224.000 C 293.997 224.000,294.486 224.315,294.912 224.700 C 297.024 226.607,306.724 224.905,309.000 222.228 C 309.220 221.969,310.521 221.342,311.892 220.833 L 314.383 219.909 315.278 217.130 L 316.173 214.352 315.210 212.537 C 314.681 211.539,313.877 210.580,313.424 210.407 C 312.971 210.234,312.257 209.711,311.838 209.246 C 311.419 208.781,310.848 208.400,310.570 208.400 C 310.292 208.400,309.555 208.143,308.932 207.829 C 308.310 207.515,306.630 206.957,305.200 206.589 C 301.615 205.666,301.094 205.433,299.531 204.061 C 298.371 203.043,297.434 202.724,293.381 201.969 C 286.277 200.646,284.656 200.129,283.354 198.772 C 282.719 198.111,280.947 196.925,279.415 196.137 C 274.756 193.740,270.595 189.509,269.806 186.367 C 269.672 185.831,269.030 185.088,268.381 184.715 C 267.731 184.342,267.200 183.728,267.200 183.350 C 267.200 182.972,266.917 182.351,266.572 181.969 C 264.632 179.825,266.031 167.414,268.517 164.725 C 269.002 164.200,269.637 163.247,269.926 162.609 C 271.526 159.078,276.936 154.015,279.800 153.369 C 280.460 153.220,281.540 152.611,282.200 152.015 C 286.725 147.930,304.839 146.524,313.984 149.549 M204.800 168.036 C 199.079 168.684,196.454 169.344,195.783 170.303 C 195.439 170.794,194.260 171.582,193.163 172.054 C 192.066 172.526,190.989 173.247,190.770 173.656 C 190.551 174.065,190.112 174.400,189.794 174.400 C 189.476 174.400,188.870 175.075,188.446 175.900 C 188.023 176.725,186.984 178.150,186.138 179.067 C 185.292 179.984,184.150 181.601,183.600 182.660 C 183.050 183.719,182.371 184.831,182.091 185.131 C 180.342 187.002,180.199 187.888,180.238 196.600 C 180.281 206.115,180.358 206.397,183.873 209.940 C 184.823 210.896,185.600 211.774,185.600 211.891 C 185.600 212.008,186.185 212.772,186.900 213.589 C 189.065 216.063,189.538 216.711,190.364 218.328 C 191.088 219.748,191.364 219.926,193.590 220.398 C 194.928 220.682,196.119 221.069,196.235 221.257 C 196.352 221.446,196.904 221.600,197.462 221.600 C 198.593 221.600,200.422 222.541,201.913 223.891 C 203.749 225.553,208.104 225.613,212.000 224.031 C 213.210 223.539,215.460 222.784,217.000 222.352 C 225.523 219.959,226.241 219.588,227.229 217.058 C 227.499 216.366,228.404 215.080,229.241 214.200 C 237.506 205.507,239.879 196.281,236.032 187.800 C 235.832 187.360,234.996 185.388,234.175 183.418 C 232.528 179.470,227.027 173.353,224.000 172.105 C 223.230 171.787,222.060 171.033,221.400 170.430 C 220.196 169.328,219.159 169.114,208.800 167.821 C 208.250 167.752,206.450 167.849,204.800 168.036 " stroke="none" fill="#b99c7d" fill-rule="evenodd"></path><path id="path1" d="M0.000 78.800 L 0.000 157.600 1.548 157.600 C 3.354 157.600,3.365 157.567,3.982 150.400 C 4.195 147.933,4.766 144.880,5.367 143.000 C 5.929 141.240,6.392 139.378,6.395 138.862 C 6.399 138.044,7.657 135.779,8.428 135.200 C 8.766 134.946,9.900 131.034,10.400 128.398 C 11.092 124.751,12.447 120.866,13.378 119.862 C 13.881 119.319,14.389 118.453,14.507 117.937 C 14.920 116.139,17.878 109.876,18.736 108.985 C 19.211 108.491,19.600 107.878,19.600 107.623 C 19.600 107.368,20.230 105.941,21.000 104.453 C 21.770 102.965,22.401 101.580,22.402 101.374 C 22.403 101.168,23.038 100.310,23.812 99.467 C 25.377 97.763,26.849 95.071,27.612 92.520 C 27.950 91.389,28.879 90.082,30.454 88.520 C 31.862 87.123,32.794 85.856,32.797 85.335 C 32.801 84.206,37.970 77.378,40.109 75.676 C 41.023 74.949,42.008 73.869,42.297 73.276 C 43.670 70.462,46.244 67.244,47.510 66.760 C 48.011 66.569,48.540 66.094,48.687 65.706 C 48.834 65.318,49.459 64.491,50.077 63.869 C 50.695 63.247,51.200 62.482,51.200 62.169 C 51.200 61.856,51.449 61.600,51.752 61.600 C 52.056 61.600,53.091 60.662,54.052 59.516 C 55.014 58.370,56.307 56.975,56.926 56.416 C 57.546 55.857,59.152 54.365,60.497 53.100 C 61.841 51.835,63.048 50.800,63.179 50.800 C 63.526 50.800,67.056 47.477,67.242 46.976 C 67.749 45.611,73.218 42.000,74.778 42.000 C 75.010 42.000,75.200 41.807,75.200 41.571 C 75.200 41.336,75.456 40.887,75.769 40.574 C 76.082 40.260,76.667 39.598,77.069 39.102 C 77.720 38.298,78.874 37.429,82.362 35.111 C 82.933 34.732,84.210 33.982,85.200 33.445 C 86.190 32.908,88.011 31.483,89.246 30.278 C 90.481 29.074,91.921 27.967,92.446 27.818 C 94.897 27.124,98.362 25.334,99.956 23.938 C 100.922 23.092,101.963 22.400,102.270 22.400 C 102.576 22.400,103.676 21.975,104.713 21.455 C 105.751 20.935,107.320 20.279,108.200 19.998 C 109.080 19.717,110.456 18.972,111.258 18.343 C 112.059 17.715,112.959 17.197,113.258 17.193 C 113.556 17.188,115.037 16.558,116.548 15.793 C 118.060 15.027,119.590 14.397,119.948 14.394 C 120.307 14.390,121.214 13.846,121.964 13.185 C 122.714 12.524,123.794 11.877,124.364 11.747 C 125.522 11.483,130.419 10.184,133.253 9.389 C 134.272 9.104,135.881 8.380,136.829 7.781 C 137.778 7.183,139.554 6.458,140.777 6.170 C 142.000 5.882,144.530 5.280,146.400 4.833 C 148.270 4.385,150.520 4.016,151.400 4.012 C 152.280 4.008,154.395 3.793,156.100 3.533 L 159.200 3.062 159.200 1.531 L 159.200 0.000 79.600 0.000 L 0.000 0.000 0.000 78.800 M240.000 1.557 C 240.000 3.458,240.075 3.483,247.137 4.014 C 253.980 4.529,259.521 5.774,263.200 7.623 C 264.410 8.232,266.300 8.855,267.400 9.008 C 268.500 9.161,270.773 9.897,272.450 10.643 C 274.128 11.389,275.697 12.000,275.936 12.000 C 276.176 12.000,276.963 12.506,277.686 13.125 C 278.409 13.743,279.810 14.471,280.800 14.742 C 284.785 15.832,289.634 17.741,290.491 18.557 C 290.991 19.033,292.390 19.924,293.600 20.536 C 294.810 21.149,296.070 21.793,296.400 21.967 C 296.730 22.141,297.667 22.603,298.481 22.994 C 299.296 23.386,300.286 24.000,300.681 24.359 C 301.077 24.718,303.098 25.796,305.174 26.755 C 307.249 27.713,310.218 29.466,311.771 30.649 C 313.324 31.832,314.990 32.800,315.473 32.800 C 316.811 32.800,322.221 37.380,324.031 40.045 C 325.041 41.534,325.910 42.400,326.391 42.400 C 326.810 42.400,327.264 42.580,327.400 42.800 C 327.536 43.020,327.981 43.200,328.390 43.200 C 329.258 43.200,330.265 43.995,334.212 47.800 C 335.810 49.340,338.305 51.680,339.758 53.000 C 341.211 54.320,343.837 56.795,345.593 58.500 C 347.349 60.205,348.954 61.600,349.160 61.600 C 349.366 61.600,349.938 62.275,350.431 63.100 C 351.590 65.040,353.215 66.800,353.848 66.800 C 354.488 66.800,355.521 68.279,357.409 71.899 C 358.303 73.612,359.503 75.241,360.346 75.884 C 362.054 77.187,362.589 77.725,364.336 79.899 C 365.071 80.813,366.016 81.958,366.436 82.442 C 366.856 82.926,367.200 83.658,367.200 84.069 C 367.200 85.106,368.803 87.499,370.758 89.381 C 371.661 90.251,372.400 91.170,372.400 91.425 C 372.400 92.386,375.309 98.134,376.208 98.949 C 377.230 99.876,380.400 105.905,380.400 106.922 C 380.400 107.268,380.940 108.142,381.600 108.864 C 382.260 109.587,382.800 110.462,382.800 110.809 C 382.800 111.156,382.950 111.611,383.133 111.820 C 383.717 112.488,385.600 117.224,385.600 118.026 C 385.600 118.452,385.967 119.167,386.416 119.616 C 388.127 121.327,390.177 126.228,390.817 130.139 C 391.364 133.475,391.685 134.541,392.464 135.600 C 393.854 137.489,395.661 143.642,396.224 148.400 C 397.364 158.041,397.132 157.200,398.656 157.200 L 400.000 157.200 400.000 78.600 L 400.000 0.000 320.000 0.000 L 240.000 0.000 240.000 1.557 M0.000 401.400 L 0.000 566.400 96.800 566.400 L 193.600 566.400 193.600 564.792 C 193.600 563.274,192.028 560.004,191.295 559.997 C 191.133 559.996,190.692 559.453,190.315 558.791 C 189.938 558.128,189.336 557.474,188.977 557.336 C 188.619 557.198,187.487 556.174,186.463 555.061 C 185.438 553.947,184.224 552.667,183.765 552.218 C 183.306 551.768,182.255 550.410,181.429 549.200 C 180.604 547.990,179.600 546.876,179.198 546.725 C 178.796 546.574,177.785 545.224,176.951 543.725 C 175.499 541.114,174.654 540.105,169.500 534.822 C 168.235 533.525,167.200 532.339,167.200 532.186 C 167.200 531.670,164.469 528.220,161.827 525.400 C 160.385 523.860,159.204 522.410,159.202 522.178 C 159.201 521.947,158.570 521.146,157.800 520.400 C 157.030 519.654,156.400 518.917,156.400 518.764 C 156.400 518.610,155.885 517.933,155.256 517.260 C 154.626 516.586,153.899 515.521,153.639 514.894 C 153.379 514.266,152.640 513.442,151.997 513.062 C 151.354 512.682,150.513 511.838,150.128 511.186 C 149.743 510.534,149.286 510.000,149.114 510.000 C 148.941 510.000,148.800 509.622,148.800 509.160 C 148.800 508.698,148.138 507.663,147.328 506.860 C 146.519 506.057,145.427 504.770,144.901 504.000 C 144.375 503.230,142.733 501.329,141.252 499.775 C 138.908 497.316,138.466 496.607,137.840 494.291 C 137.151 491.747,137.028 491.579,135.037 490.456 C 133.187 489.412,132.827 488.981,131.818 486.608 C 131.090 484.894,130.375 483.818,129.824 483.609 C 128.762 483.205,123.130 476.275,122.422 474.500 C 122.136 473.785,121.767 473.200,121.600 473.200 C 121.433 473.200,121.073 472.660,120.800 472.000 C 120.527 471.340,120.145 470.800,119.951 470.800 C 119.758 470.800,119.600 470.604,119.600 470.364 C 119.600 470.125,118.835 469.180,117.900 468.264 C 116.965 467.349,115.750 465.705,115.200 464.610 C 114.650 463.516,113.799 462.291,113.309 461.888 C 112.819 461.486,112.064 460.356,111.632 459.378 C 111.199 458.400,110.685 457.600,110.490 457.600 C 110.295 457.600,109.889 457.105,109.588 456.500 C 109.287 455.895,108.481 454.770,107.798 454.000 C 107.114 453.230,106.133 451.610,105.619 450.400 C 105.104 449.190,104.430 447.614,104.122 446.898 C 103.773 446.090,102.974 445.297,102.014 444.807 C 100.341 443.954,99.370 442.751,98.223 440.112 C 97.819 439.183,97.154 438.120,96.745 437.750 C 96.335 437.379,96.000 436.905,96.000 436.696 C 96.000 436.486,95.487 435.659,94.859 434.858 C 94.232 434.056,93.595 432.889,93.443 432.266 C 93.292 431.642,92.712 430.710,92.155 430.194 C 91.598 429.679,90.631 428.781,90.007 428.198 C 89.382 427.615,88.659 426.567,88.400 425.869 C 87.416 423.218,86.252 420.800,85.959 420.800 C 85.791 420.800,85.539 420.438,85.399 419.996 C 85.258 419.553,84.616 418.919,83.972 418.585 C 83.327 418.252,82.800 417.810,82.800 417.604 C 82.800 417.035,80.611 413.702,79.524 412.615 C 78.997 412.088,78.375 411.239,78.143 410.728 C 76.127 406.300,74.134 402.686,73.531 402.363 C 72.871 402.010,70.886 398.264,70.238 396.149 C 70.094 395.681,69.532 394.781,68.988 394.149 C 67.628 392.570,64.400 387.047,64.400 386.301 C 64.400 385.966,63.963 385.406,63.429 385.056 C 62.531 384.467,59.200 378.736,59.200 377.779 C 59.200 377.546,58.600 376.701,57.866 375.900 C 57.132 375.099,55.858 372.818,55.035 370.831 C 54.125 368.635,53.098 366.848,52.417 366.275 C 51.800 365.757,51.162 364.898,50.999 364.366 C 50.836 363.835,50.549 363.208,50.362 362.972 C 50.175 362.737,49.738 361.318,49.390 359.820 C 48.715 356.910,47.774 355.235,46.800 355.210 C 45.631 355.180,43.600 351.369,43.600 349.207 C 43.600 347.914,42.423 345.186,41.094 343.397 C 38.549 339.974,38.080 339.228,37.197 337.200 C 36.670 335.990,36.023 334.730,35.758 334.400 C 34.722 333.107,32.912 328.823,32.676 327.104 C 32.431 325.318,31.317 322.961,29.979 321.400 C 28.893 320.133,27.892 317.996,27.167 315.400 C 26.142 311.730,24.724 308.000,24.353 308.000 C 23.853 308.000,22.638 305.588,22.340 304.000 C 21.878 301.540,19.494 295.012,18.937 294.680 C 17.842 294.028,14.400 284.095,14.400 281.586 C 14.400 281.068,13.945 280.169,13.389 279.589 C 12.307 278.459,10.009 270.106,9.188 264.313 C 8.921 262.430,8.524 261.202,8.035 260.747 C 6.239 259.074,4.467 252.412,4.166 246.200 C 4.059 244.000,3.773 240.895,3.529 239.300 L 3.087 236.400 1.543 236.400 L 0.000 236.400 0.000 401.400 M396.846 239.500 C 396.572 241.205,396.201 244.940,396.022 247.800 C 395.675 253.354,395.196 255.228,393.359 258.210 C 391.342 261.487,391.239 261.738,391.007 263.992 C 390.882 265.206,390.601 267.100,390.382 268.200 C 390.163 269.300,389.704 271.640,389.361 273.400 C 389.018 275.160,388.572 276.771,388.369 276.980 C 388.166 277.189,388.000 277.693,388.000 278.099 C 388.000 278.506,387.565 279.241,387.034 279.733 C 386.492 280.235,385.948 281.324,385.793 282.214 C 384.998 286.795,382.607 293.934,381.454 295.173 C 380.927 295.738,380.371 296.904,380.218 297.765 C 380.065 298.625,379.523 300.193,379.013 301.249 C 378.504 302.305,377.872 304.067,377.608 305.165 C 377.345 306.262,376.879 307.369,376.572 307.623 C 375.822 308.245,373.387 313.384,372.840 315.500 C 372.598 316.435,372.215 317.912,371.989 318.782 C 371.763 319.652,371.323 320.620,371.010 320.933 C 370.038 321.905,368.745 324.470,367.566 327.765 C 366.943 329.506,365.815 331.936,365.059 333.165 C 364.304 334.394,363.199 336.559,362.606 337.976 C 362.012 339.393,360.737 341.681,359.772 343.061 C 357.984 345.619,356.400 349.543,356.400 351.414 C 356.400 352.615,354.676 355.058,353.584 355.405 C 352.543 355.736,351.351 357.871,351.034 359.977 C 350.713 362.102,348.950 365.499,348.012 365.796 C 347.243 366.040,345.872 368.315,344.363 371.850 C 343.787 373.198,342.872 374.908,342.328 375.650 C 341.785 376.393,341.053 377.764,340.703 378.697 C 339.812 381.074,337.969 383.852,336.889 384.446 C 336.388 384.721,335.882 385.409,335.765 385.973 C 335.356 387.938,332.966 392.361,331.449 393.958 C 330.905 394.531,329.733 396.530,328.845 398.400 C 327.956 400.270,326.773 402.224,326.215 402.742 C 325.657 403.260,325.200 403.939,325.200 404.250 C 325.200 404.561,324.782 405.487,324.272 406.308 C 323.761 407.129,322.943 408.640,322.452 409.667 C 321.962 410.694,321.128 411.817,320.599 412.164 C 320.070 412.511,319.044 413.990,318.318 415.452 C 317.593 416.914,316.408 418.758,315.685 419.550 C 314.337 421.026,312.000 424.862,312.000 425.600 C 312.000 426.206,310.259 428.789,309.846 428.795 C 309.193 428.804,307.487 430.954,306.680 432.786 C 306.240 433.784,305.457 435.157,304.940 435.838 C 304.423 436.519,304.000 437.261,304.000 437.489 C 304.000 437.716,303.701 438.149,303.336 438.451 C 302.971 438.753,302.289 439.810,301.821 440.800 C 300.658 443.258,299.887 444.400,299.389 444.400 C 298.183 444.400,296.305 446.742,295.382 449.399 C 294.846 450.938,294.226 452.258,294.004 452.332 C 293.782 452.406,293.600 452.713,293.600 453.013 C 293.600 453.313,292.970 454.040,292.200 454.627 C 291.430 455.214,290.800 455.933,290.800 456.225 C 290.800 456.516,290.432 457.013,289.982 457.328 C 289.532 457.643,288.636 458.733,287.991 459.750 C 287.345 460.768,286.671 461.600,286.491 461.600 C 286.312 461.600,285.560 462.868,284.820 464.417 C 283.598 466.976,281.714 469.200,280.769 469.200 C 280.566 469.200,280.400 469.546,280.400 469.969 C 280.400 470.393,279.770 471.564,279.000 472.573 C 278.230 473.582,277.600 474.573,277.600 474.775 C 277.600 474.977,277.373 475.381,277.096 475.671 C 275.964 476.857,272.400 481.607,272.400 481.929 C 272.400 482.460,271.009 483.600,270.362 483.600 C 270.031 483.600,269.383 484.614,268.841 485.979 C 267.811 488.574,267.062 489.412,264.538 490.794 C 263.359 491.440,262.806 492.039,262.638 492.852 C 262.507 493.484,262.285 494.572,262.144 495.272 C 261.755 497.204,260.617 498.834,258.424 500.600 C 257.330 501.480,256.337 502.479,256.217 502.819 C 256.096 503.160,255.104 504.405,254.013 505.586 C 252.922 506.767,251.550 508.712,250.964 509.910 C 250.282 511.304,249.420 512.369,248.567 512.872 C 247.835 513.305,247.125 514.005,246.991 514.429 C 246.856 514.853,246.578 515.200,246.373 515.200 C 246.168 515.200,246.000 515.446,246.000 515.748 C 246.000 516.049,244.920 517.347,243.600 518.633 C 242.280 519.919,241.083 521.338,240.942 521.786 C 240.800 522.233,239.389 524.077,237.807 525.882 C 236.225 527.687,234.353 530.248,233.647 531.572 C 232.941 532.896,232.015 534.224,231.590 534.522 C 231.164 534.820,230.202 535.868,229.452 536.850 C 228.702 537.833,227.444 539.078,226.656 539.618 C 225.868 540.158,224.828 541.367,224.346 542.305 C 223.863 543.244,223.228 544.211,222.934 544.455 C 222.640 544.698,222.400 545.150,222.400 545.458 C 222.400 545.765,221.944 546.225,221.387 546.479 C 220.830 546.732,219.634 548.033,218.729 549.370 C 217.825 550.706,215.324 553.549,213.172 555.687 C 208.637 560.193,206.400 563.316,206.400 565.141 L 206.400 566.400 303.200 566.400 L 400.000 566.400 400.000 401.400 L 400.000 236.400 398.672 236.400 L 397.344 236.400 396.846 239.500 " stroke="none" fill="#fbfbfa" fill-rule="evenodd"></path><path id="path2" d="M111.400 151.446 C 106.379 152.437,104.082 153.338,95.200 157.806 C 93.110 158.857,91.028 160.051,90.574 160.459 C 90.120 160.866,89.564 161.200,89.339 161.200 C 88.769 161.200,86.379 163.287,83.113 166.637 C 80.488 169.330,79.654 170.394,77.800 173.417 C 77.360 174.134,76.240 175.832,75.311 177.190 C 73.479 179.867,72.992 181.211,72.408 185.200 C 72.198 186.630,71.753 188.700,71.418 189.800 C 69.603 195.760,71.978 210.574,75.618 216.000 C 75.839 216.330,76.461 217.500,76.999 218.600 C 77.538 219.700,78.523 221.110,79.189 221.734 C 79.855 222.358,80.400 223.020,80.400 223.207 C 80.400 223.393,80.715 223.649,81.100 223.775 C 81.485 223.901,82.207 224.633,82.704 225.402 C 83.201 226.171,83.807 226.800,84.051 226.800 C 84.504 226.800,85.792 227.849,89.479 231.220 C 91.010 232.620,92.276 233.349,94.279 233.984 C 95.776 234.458,98.080 235.363,99.400 235.994 C 101.736 237.111,106.356 238.694,110.000 239.627 C 112.829 240.351,119.659 240.134,122.752 239.222 C 124.208 238.792,126.390 238.322,127.600 238.178 C 130.955 237.778,133.885 236.845,135.162 235.770 C 135.797 235.237,136.470 234.797,136.658 234.794 C 138.673 234.759,145.959 229.603,145.991 228.189 C 145.996 227.963,146.540 227.304,147.200 226.725 C 148.656 225.448,148.732 224.506,147.419 224.007 C 146.880 223.802,145.677 223.153,144.745 222.565 C 142.680 221.262,137.634 221.317,135.730 222.663 C 135.157 223.068,134.398 223.580,134.044 223.800 C 133.690 224.020,132.724 224.785,131.899 225.500 C 130.956 226.316,129.970 226.800,129.249 226.800 C 128.617 226.800,127.403 227.045,126.550 227.344 C 119.127 229.951,104.730 228.372,100.871 224.527 C 100.581 224.237,100.109 224.000,99.824 224.000 C 97.070 224.000,88.000 216.632,88.000 214.395 C 88.000 213.994,87.862 213.607,87.693 213.533 C 87.524 213.460,86.721 212.484,85.907 211.365 C 80.607 204.075,81.181 185.008,86.880 179.024 C 87.496 178.377,88.000 177.627,88.000 177.357 C 88.000 177.087,88.142 176.807,88.316 176.733 C 88.490 176.660,89.240 175.745,89.984 174.700 C 90.832 173.507,92.167 172.333,93.568 171.546 C 94.796 170.856,95.890 170.161,96.000 170.002 C 96.110 169.842,96.785 169.412,97.500 169.046 C 98.215 168.679,98.800 168.231,98.800 168.050 C 98.800 167.611,100.959 166.758,105.800 165.283 C 113.674 162.885,116.415 162.836,124.763 164.944 C 127.933 165.745,130.877 166.400,131.306 166.400 C 131.978 166.400,134.985 168.407,135.615 169.276 C 135.932 169.712,141.094 171.600,141.972 171.600 C 145.032 171.600,147.200 169.131,147.200 165.646 C 147.200 163.560,143.808 160.228,140.027 158.600 C 139.005 158.160,137.491 157.395,136.662 156.900 C 135.833 156.405,134.869 156.000,134.521 156.000 C 134.173 156.000,133.018 155.465,131.955 154.810 C 130.892 154.156,129.522 153.501,128.911 153.355 C 128.300 153.209,127.620 152.955,127.400 152.791 C 125.233 151.176,116.494 150.441,111.400 151.446 M203.047 151.092 C 202.413 151.186,200.253 151.991,198.247 152.881 C 196.241 153.771,193.409 154.999,191.953 155.611 C 190.497 156.223,187.635 157.731,185.593 158.962 C 183.551 160.193,181.564 161.200,181.178 161.200 C 180.793 161.200,179.695 162.019,178.739 163.021 C 177.782 164.023,176.070 165.778,174.933 166.921 C 170.146 171.734,166.307 179.095,163.608 188.632 C 161.826 194.930,162.888 204.448,166.020 210.236 C 166.669 211.436,167.200 212.712,167.200 213.070 C 167.200 213.429,167.740 214.865,168.400 216.262 C 169.060 217.659,169.600 218.915,169.600 219.053 C 169.600 219.191,170.367 220.045,171.304 220.952 C 172.241 221.858,173.749 223.410,174.656 224.400 C 178.568 228.673,181.375 231.032,184.327 232.529 C 186.017 233.386,188.120 234.451,189.000 234.896 C 189.880 235.341,190.693 235.850,190.807 236.026 C 190.921 236.202,192.374 236.711,194.036 237.156 C 195.697 237.601,198.304 238.404,199.829 238.940 C 202.111 239.742,206.903 240.574,208.600 240.462 C 211.184 240.291,218.600 238.744,221.244 237.823 C 222.210 237.487,223.395 237.209,223.877 237.206 C 224.878 237.199,227.600 235.704,227.600 235.160 C 227.600 234.962,227.915 234.799,228.300 234.798 C 228.685 234.797,229.810 234.249,230.800 233.580 C 231.790 232.911,233.140 232.100,233.800 231.779 C 235.546 230.928,237.414 229.482,238.618 228.052 C 239.197 227.363,239.886 226.800,240.149 226.800 C 240.412 226.800,240.946 226.261,241.335 225.603 C 241.724 224.944,242.392 224.218,242.821 223.989 C 243.249 223.759,243.600 223.386,243.600 223.160 C 243.600 222.933,244.575 221.773,245.767 220.581 C 246.989 219.359,248.148 217.758,248.427 216.907 C 248.699 216.078,249.413 214.320,250.016 213.000 C 254.032 204.197,255.116 193.370,252.600 187.200 C 251.837 185.330,251.210 183.283,251.207 182.650 C 251.198 181.173,248.595 175.362,247.241 173.796 C 246.668 173.134,245.858 171.829,245.439 170.896 C 245.021 169.963,244.521 169.200,244.329 169.200 C 244.137 169.200,243.813 168.759,243.608 168.221 C 243.403 167.682,242.808 166.961,242.285 166.619 C 241.762 166.276,240.449 165.167,239.367 164.155 C 238.285 163.142,236.410 161.865,235.200 161.318 C 233.990 160.770,232.910 160.204,232.800 160.059 C 232.054 159.077,227.051 156.000,226.200 156.000 C 225.662 156.000,222.802 154.486,222.400 153.988 C 220.696 151.878,209.260 150.166,203.047 151.092 M294.574 151.573 C 293.020 151.990,291.040 152.742,290.174 153.244 C 289.308 153.746,287.520 154.726,286.200 155.422 C 278.519 159.468,275.698 161.828,273.783 165.809 C 273.022 167.390,272.400 169.036,272.400 169.466 C 272.400 169.896,271.966 171.355,271.436 172.708 L 270.472 175.167 271.540 178.684 C 272.549 182.005,275.324 187.600,275.962 187.600 C 276.124 187.600,277.320 188.606,278.620 189.836 C 280.750 191.850,286.323 195.200,287.543 195.200 C 287.808 195.200,289.324 195.830,290.911 196.600 C 292.499 197.370,294.159 198.000,294.600 198.000 C 295.042 198.000,296.663 198.470,298.202 199.045 C 299.741 199.619,301.630 200.224,302.400 200.387 C 305.685 201.086,307.167 201.681,310.000 203.437 C 311.650 204.460,313.743 205.619,314.652 206.014 C 316.634 206.874,317.621 207.873,318.705 210.118 C 320.142 213.093,320.460 214.268,320.228 215.749 C 320.102 216.547,319.898 217.851,319.773 218.646 C 319.548 220.082,316.207 224.000,315.208 224.000 C 314.972 224.000,314.148 224.574,313.376 225.276 C 308.433 229.774,292.018 229.763,286.412 225.257 C 285.551 224.566,284.604 224.000,284.308 224.000 C 284.012 224.000,283.056 223.632,282.185 223.181 C 280.262 222.188,276.797 222.397,274.100 223.669 L 272.400 224.471 272.400 226.810 C 272.400 230.110,272.832 230.923,275.400 232.455 C 279.692 235.016,282.151 236.135,285.314 236.965 C 286.462 237.266,288.421 237.966,289.669 238.521 C 294.747 240.777,303.050 240.723,310.600 238.387 C 311.920 237.978,313.736 237.455,314.636 237.224 C 315.535 236.993,316.795 236.353,317.436 235.802 C 318.076 235.252,318.752 234.801,318.937 234.800 C 319.350 234.800,322.802 232.239,324.605 230.595 C 325.809 229.498,328.493 226.214,330.000 223.993 C 330.330 223.507,331.083 222.490,331.674 221.732 C 333.592 219.273,333.708 210.479,331.857 207.782 C 330.100 205.222,326.159 201.135,324.523 200.176 C 323.592 199.631,322.689 198.958,322.516 198.681 C 321.995 197.852,319.072 195.729,318.000 195.402 C 316.171 194.845,310.208 192.319,309.648 191.864 C 308.941 191.290,304.870 190.014,303.721 190.006 C 301.395 189.990,291.191 185.747,286.907 183.014 C 283.571 180.886,281.854 174.649,283.536 170.770 C 286.238 164.539,301.750 161.415,310.259 165.389 C 314.100 167.183,321.098 167.534,322.400 165.998 C 322.510 165.868,323.179 165.357,323.888 164.862 L 325.175 163.963 323.714 161.010 C 322.132 157.812,319.720 156.011,316.994 155.991 C 315.524 155.980,312.465 154.636,312.172 153.871 C 311.218 151.385,300.500 149.986,294.574 151.573 M214.800 164.198 C 227.636 166.126,237.476 174.928,241.056 187.685 C 241.413 188.958,241.853 190.000,242.034 190.000 C 243.489 190.000,243.497 196.474,242.047 201.000 C 241.413 202.980,240.784 205.202,240.650 205.938 C 240.301 207.845,238.076 212.421,236.923 213.600 C 235.283 215.279,232.800 218.558,232.800 219.045 C 232.800 219.731,230.388 221.442,226.926 223.213 C 225.235 224.078,223.394 225.183,222.834 225.669 C 218.090 229.794,199.049 229.511,194.188 225.243 C 193.409 224.559,192.542 224.000,192.261 224.000 C 191.980 224.000,190.771 223.508,189.575 222.908 C 188.379 222.307,187.103 221.722,186.741 221.608 C 186.113 221.410,182.800 217.681,182.800 217.172 C 182.800 217.039,182.072 216.165,181.183 215.231 C 179.316 213.268,177.600 210.680,177.600 209.827 C 177.600 209.504,176.987 207.835,176.237 206.119 C 174.045 201.101,173.410 194.190,174.774 190.200 C 174.999 189.540,175.566 187.920,176.034 186.600 C 176.502 185.280,177.124 183.349,177.418 182.308 C 178.265 179.300,181.516 175.246,186.485 171.000 C 189.464 168.455,193.084 166.435,194.705 166.413 C 195.203 166.406,195.923 166.226,196.305 166.013 C 197.581 165.301,200.970 164.282,203.800 163.759 C 206.875 163.190,208.530 163.256,214.800 164.198 " stroke="none" fill="#342719" fill-rule="evenodd"></path><path id="path3" d="M111.800 148.006 C 103.203 148.527,96.858 150.327,96.189 152.434 C 96.050 152.874,95.574 153.205,95.073 153.213 C 94.593 153.220,93.859 153.484,93.442 153.800 C 93.024 154.115,91.572 154.744,90.214 155.196 C 88.668 155.710,87.231 156.533,86.372 157.396 C 85.617 158.154,84.715 158.780,84.366 158.787 C 83.240 158.810,80.275 161.467,77.239 165.173 C 75.611 167.161,73.856 169.064,73.339 169.403 C 72.823 169.741,72.400 170.338,72.400 170.729 C 72.400 171.120,72.242 171.611,72.049 171.820 C 71.856 172.029,71.211 173.730,70.615 175.600 C 70.020 177.470,69.073 179.900,68.510 181.000 C 64.734 188.384,64.649 206.338,68.362 212.200 C 69.836 214.527,72.369 219.699,72.386 220.415 C 72.394 220.753,73.287 221.904,74.371 222.971 C 75.455 224.039,76.448 225.337,76.578 225.856 C 76.709 226.375,76.992 226.800,77.208 226.800 C 77.423 226.800,77.600 227.134,77.600 227.541 C 77.600 228.523,82.370 232.538,85.338 234.055 C 86.623 234.712,88.163 235.749,88.760 236.359 C 90.118 237.748,93.891 239.556,96.339 239.991 C 99.290 240.516,103.141 241.800,106.549 243.395 C 113.864 246.820,119.209 246.904,125.564 243.695 C 126.974 242.983,128.371 242.400,128.669 242.400 C 128.967 242.400,129.523 242.239,129.905 242.041 C 130.287 241.844,132.580 241.279,135.000 240.786 C 139.388 239.893,142.122 238.654,143.800 236.800 C 144.194 236.365,145.435 235.425,146.558 234.711 C 147.681 233.997,148.949 233.095,149.375 232.706 C 149.802 232.318,150.252 232.000,150.375 231.999 C 150.499 231.999,151.140 230.874,151.800 229.499 C 152.460 228.125,153.200 226.820,153.444 226.600 C 155.664 224.600,150.315 218.152,144.489 215.806 C 141.999 214.803,141.966 214.801,140.489 215.526 C 139.670 215.928,138.235 216.498,137.300 216.792 C 136.365 217.087,135.600 217.457,135.600 217.615 C 135.600 218.596,130.997 221.362,128.888 221.648 C 126.295 222.000,124.001 222.905,122.004 224.366 C 120.719 225.306,120.275 225.388,116.404 225.394 C 111.949 225.400,111.344 225.207,107.722 222.622 C 107.019 222.120,105.699 221.590,104.789 221.445 C 101.348 220.894,90.830 212.352,90.787 210.072 C 90.780 209.702,90.510 209.051,90.187 208.624 C 89.864 208.196,89.600 207.610,89.600 207.319 C 89.600 207.029,89.261 206.028,88.847 205.096 C 85.383 197.297,85.321 194.793,88.436 188.600 C 89.884 185.719,90.513 183.952,90.681 182.285 L 90.915 179.970 93.438 178.285 C 94.892 177.314,96.057 176.221,96.187 175.706 C 96.325 175.159,96.836 174.708,97.506 174.545 C 98.108 174.397,98.690 174.169,98.800 174.036 C 98.910 173.904,99.720 173.274,100.600 172.636 C 101.480 171.999,102.740 170.985,103.400 170.384 C 104.060 169.783,105.140 169.196,105.800 169.080 C 114.284 167.589,117.206 167.540,123.800 168.777 C 124.900 168.983,126.830 169.163,128.090 169.176 C 130.164 169.198,130.436 169.304,130.982 170.300 C 132.451 172.985,133.693 173.826,137.099 174.444 C 138.364 174.674,139.799 175.118,140.286 175.431 C 141.407 176.151,142.403 176.153,143.425 175.437 C 143.867 175.128,145.122 174.742,146.214 174.579 C 152.105 173.700,154.590 168.200,151.665 162.514 C 150.852 160.932,148.378 158.800,147.357 158.800 C 147.106 158.800,146.639 158.261,146.319 157.601 C 145.695 156.313,140.399 153.200,138.830 153.200 C 138.373 153.200,138.000 153.032,138.000 152.827 C 138.000 150.060,123.111 147.321,111.800 148.006 M197.555 148.397 C 194.727 149.117,189.784 151.275,188.778 152.230 C 188.216 152.764,187.516 153.200,187.223 153.200 C 186.185 153.200,179.998 156.463,178.839 157.623 C 178.191 158.270,177.501 158.800,177.306 158.800 C 177.110 158.800,176.432 159.340,175.800 160.000 C 175.168 160.660,174.328 161.200,173.934 161.200 C 173.541 161.200,172.947 161.614,172.616 162.119 C 172.285 162.625,170.932 163.930,169.610 165.019 C 168.288 166.109,167.204 167.150,167.203 167.333 C 167.201 167.516,166.570 168.740,165.800 170.054 C 165.030 171.368,164.400 172.735,164.400 173.092 C 164.400 173.449,163.863 174.205,163.206 174.771 C 162.205 175.633,161.768 176.677,160.512 181.200 L 159.013 186.600 159.054 196.000 C 159.097 206.043,159.437 208.819,161.043 212.239 C 161.569 213.360,162.000 214.470,162.000 214.705 C 162.000 214.940,162.540 215.642,163.200 216.265 C 163.860 216.888,164.400 217.616,164.400 217.884 C 164.400 220.805,169.791 228.049,173.300 229.843 C 174.345 230.377,175.200 231.018,175.200 231.269 C 175.200 232.261,177.316 234.414,179.041 235.177 C 180.043 235.620,181.524 236.502,182.332 237.137 C 184.559 238.886,186.222 239.617,188.934 240.038 C 192.175 240.540,195.419 241.542,197.400 242.653 C 202.589 245.562,201.716 245.342,208.000 245.320 C 213.955 245.299,214.717 245.155,218.800 243.272 C 221.011 242.253,224.670 241.057,227.600 240.397 C 231.535 239.509,232.083 239.219,235.000 236.466 C 235.660 235.843,237.062 235.015,238.117 234.627 C 239.171 234.239,240.316 233.489,240.663 232.961 C 241.009 232.432,241.512 232.000,241.780 232.000 C 242.048 232.000,242.749 231.460,243.337 230.800 C 243.925 230.140,244.579 229.600,244.791 229.600 C 245.002 229.600,245.667 228.597,246.267 227.370 C 247.065 225.740,247.804 224.880,249.016 224.169 C 250.256 223.443,250.993 222.568,251.940 220.699 C 253.317 217.980,254.059 216.711,254.454 216.400 C 255.281 215.747,256.446 211.943,257.149 207.600 C 259.471 193.236,259.487 192.953,258.263 187.800 C 256.616 180.871,255.444 176.905,254.761 175.946 C 254.343 175.358,254.000 174.785,254.000 174.673 C 254.000 174.561,253.370 173.513,252.600 172.344 C 251.830 171.175,251.200 170.075,251.200 169.901 C 251.200 169.224,249.128 166.497,248.263 166.034 C 247.762 165.766,246.770 164.657,246.059 163.571 C 245.166 162.206,244.162 161.290,242.811 160.606 C 241.736 160.061,240.743 159.432,240.605 159.208 C 240.466 158.983,239.908 158.800,239.364 158.800 C 238.820 158.800,238.272 158.531,238.145 158.201 C 237.816 157.344,232.661 153.679,231.325 153.353 C 230.706 153.202,229.448 152.566,228.528 151.939 C 227.608 151.313,226.567 150.800,226.214 150.800 C 225.861 150.800,225.172 150.538,224.684 150.218 C 222.117 148.536,202.248 147.203,197.555 148.397 M290.600 148.572 C 287.066 149.348,283.563 150.784,282.200 152.015 C 281.540 152.611,280.460 153.220,279.800 153.369 C 276.936 154.015,271.526 159.078,269.926 162.609 C 269.637 163.247,269.002 164.200,268.517 164.725 C 266.031 167.414,264.632 179.825,266.572 181.969 C 266.917 182.351,267.200 182.972,267.200 183.350 C 267.200 183.728,267.731 184.342,268.381 184.715 C 269.030 185.088,269.672 185.831,269.806 186.367 C 270.595 189.509,274.756 193.740,279.415 196.137 C 280.947 196.925,282.719 198.111,283.354 198.772 C 284.656 200.129,286.277 200.646,293.381 201.969 C 297.434 202.724,298.371 203.043,299.531 204.061 C 301.094 205.433,301.615 205.666,305.200 206.589 C 306.630 206.957,308.310 207.515,308.932 207.829 C 309.555 208.143,310.292 208.400,310.570 208.400 C 310.848 208.400,311.419 208.781,311.838 209.246 C 312.257 209.711,312.971 210.234,313.424 210.407 C 313.877 210.580,314.681 211.539,315.210 212.537 L 316.173 214.352 315.278 217.130 L 314.383 219.909 311.892 220.833 C 310.521 221.342,309.220 221.969,309.000 222.228 C 306.724 224.905,297.024 226.607,294.912 224.700 C 294.486 224.315,293.997 224.000,293.827 224.000 C 293.656 224.000,292.716 223.460,291.738 222.800 C 290.760 222.140,289.756 221.600,289.507 221.600 C 288.910 221.600,283.057 219.536,282.800 219.234 C 280.388 216.408,275.378 216.225,272.600 218.860 C 271.374 220.024,268.833 221.600,268.184 221.600 C 264.996 221.600,265.788 231.017,269.196 233.621 C 269.900 234.160,271.584 235.522,272.938 236.648 C 275.710 238.953,277.527 239.987,278.880 240.028 C 280.648 240.080,286.797 241.820,287.577 242.488 C 288.860 243.586,292.126 245.200,293.066 245.200 C 293.546 245.200,294.809 245.401,295.873 245.646 C 300.114 246.625,311.433 244.220,313.200 241.964 C 313.310 241.823,315.110 241.212,317.200 240.604 C 321.876 239.245,321.798 239.286,324.000 237.038 C 324.990 236.027,326.160 235.092,326.600 234.959 C 327.040 234.826,328.840 233.230,330.600 231.413 C 334.628 227.253,335.125 226.637,335.425 225.444 C 335.558 224.912,336.118 224.054,336.668 223.538 C 340.185 220.241,340.399 208.064,336.980 205.823 C 336.474 205.492,335.935 204.825,335.781 204.341 C 335.335 202.936,332.777 200.072,330.651 198.597 C 329.299 197.658,327.600 195.937,327.600 195.504 C 327.600 195.337,327.365 195.200,327.079 195.200 C 326.792 195.200,325.847 194.691,324.979 194.068 C 324.110 193.445,322.770 192.697,322.000 192.404 C 321.230 192.112,320.140 191.451,319.578 190.936 C 319.016 190.421,318.386 189.999,318.178 189.999 C 317.970 189.998,316.450 189.464,314.800 188.812 C 313.150 188.161,311.196 187.621,310.458 187.614 C 308.257 187.591,304.541 186.462,301.888 185.010 C 299.486 183.696,298.429 183.293,293.522 181.822 C 291.548 181.230,291.084 180.890,290.039 179.260 C 289.375 178.227,288.287 176.859,287.621 176.220 C 286.536 175.181,286.472 174.993,287.010 174.429 C 287.340 174.083,288.264 172.810,289.063 171.600 C 289.862 170.390,290.540 169.364,290.570 169.321 C 292.012 167.243,308.846 167.937,311.259 170.174 C 311.838 170.711,313.841 171.541,316.113 172.186 L 319.982 173.283 322.739 172.446 C 325.513 171.603,327.140 170.198,329.725 166.411 C 331.124 164.361,330.412 158.914,328.493 156.989 C 327.150 155.642,323.250 153.204,322.413 153.189 C 322.076 153.183,321.093 152.643,320.229 151.989 C 319.365 151.335,318.457 150.800,318.213 150.800 C 317.968 150.800,316.065 150.237,313.984 149.549 C 309.513 148.070,295.540 147.486,290.600 148.572 M123.529 151.647 C 125.438 152.112,127.180 152.627,127.400 152.791 C 127.620 152.955,128.300 153.209,128.911 153.355 C 129.522 153.501,130.892 154.156,131.955 154.810 C 133.018 155.465,134.173 156.000,134.521 156.000 C 134.869 156.000,135.833 156.405,136.662 156.900 C 137.491 157.395,139.005 158.160,140.027 158.600 C 143.808 160.228,147.200 163.560,147.200 165.646 C 147.200 169.131,145.032 171.600,141.972 171.600 C 141.094 171.600,135.932 169.712,135.615 169.276 C 134.985 168.407,131.978 166.400,131.306 166.400 C 130.877 166.400,127.933 165.745,124.763 164.944 C 116.415 162.836,113.674 162.885,105.800 165.283 C 100.959 166.758,98.800 167.611,98.800 168.050 C 98.800 168.231,98.215 168.679,97.500 169.046 C 96.785 169.412,96.110 169.842,96.000 170.002 C 95.890 170.161,94.796 170.856,93.568 171.546 C 92.167 172.333,90.832 173.507,89.984 174.700 C 89.240 175.745,88.490 176.660,88.316 176.733 C 88.142 176.807,88.000 177.087,88.000 177.357 C 88.000 177.627,87.496 178.377,86.880 179.024 C 81.181 185.008,80.607 204.075,85.907 211.365 C 86.721 212.484,87.524 213.460,87.693 213.533 C 87.862 213.607,88.000 213.994,88.000 214.395 C 88.000 216.632,97.070 224.000,99.824 224.000 C 100.109 224.000,100.581 224.237,100.871 224.527 C 104.730 228.372,119.127 229.951,126.550 227.344 C 127.403 227.045,128.617 226.800,129.249 226.800 C 129.970 226.800,130.956 226.316,131.899 225.500 C 132.724 224.785,133.690 224.020,134.044 223.800 C 134.398 223.580,135.157 223.068,135.730 222.663 C 137.634 221.317,142.680 221.262,144.745 222.565 C 145.677 223.153,146.880 223.802,147.419 224.007 C 148.732 224.506,148.656 225.448,147.200 226.725 C 146.540 227.304,145.996 227.963,145.991 228.189 C 145.959 229.603,138.673 234.759,136.658 234.794 C 136.470 234.797,135.797 235.237,135.162 235.770 C 133.885 236.845,130.955 237.778,127.600 238.178 C 126.390 238.322,124.208 238.792,122.752 239.222 C 119.659 240.134,112.829 240.351,110.000 239.627 C 106.356 238.694,101.736 237.111,99.400 235.994 C 98.080 235.363,95.776 234.458,94.279 233.984 C 92.276 233.349,91.010 232.620,89.479 231.220 C 85.792 227.849,84.504 226.800,84.051 226.800 C 83.807 226.800,83.201 226.171,82.704 225.402 C 82.207 224.633,81.485 223.901,81.100 223.775 C 80.715 223.649,80.400 223.393,80.400 223.207 C 80.400 223.020,79.855 222.358,79.189 221.734 C 78.523 221.110,77.538 219.700,76.999 218.600 C 76.461 217.500,75.839 216.330,75.618 216.000 C 71.978 210.574,69.603 195.760,71.418 189.800 C 71.753 188.700,72.198 186.630,72.408 185.200 C 72.992 181.211,73.479 179.867,75.311 177.190 C 76.240 175.832,77.360 174.134,77.800 173.417 C 79.654 170.394,80.488 169.330,83.113 166.637 C 86.379 163.287,88.769 161.200,89.339 161.200 C 89.564 161.200,90.120 160.866,90.574 160.459 C 91.385 159.731,96.259 157.180,101.800 154.582 C 109.422 151.009,116.819 150.010,123.529 151.647 M214.688 151.415 C 218.450 151.952,221.606 153.005,222.400 153.988 C 222.802 154.486,225.662 156.000,226.200 156.000 C 227.051 156.000,232.054 159.077,232.800 160.059 C 232.910 160.204,233.990 160.770,235.200 161.318 C 236.410 161.865,238.285 163.142,239.367 164.155 C 240.449 165.167,241.762 166.276,242.285 166.619 C 242.808 166.961,243.403 167.682,243.608 168.221 C 243.813 168.759,244.137 169.200,244.329 169.200 C 244.521 169.200,245.021 169.963,245.439 170.896 C 245.858 171.829,246.668 173.134,247.241 173.796 C 248.595 175.362,251.198 181.173,251.207 182.650 C 251.210 183.283,251.837 185.330,252.600 187.200 C 255.116 193.370,254.032 204.197,250.016 213.000 C 249.413 214.320,248.699 216.078,248.427 216.907 C 248.148 217.758,246.989 219.359,245.767 220.581 C 244.575 221.773,243.600 222.933,243.600 223.160 C 243.600 223.386,243.249 223.759,242.821 223.989 C 242.392 224.218,241.724 224.944,241.335 225.603 C 240.946 226.261,240.412 226.800,240.149 226.800 C 239.886 226.800,239.197 227.363,238.618 228.052 C 237.414 229.482,235.546 230.928,233.800 231.779 C 233.140 232.100,231.790 232.911,230.800 233.580 C 229.810 234.249,228.685 234.797,228.300 234.798 C 227.915 234.799,227.600 234.962,227.600 235.160 C 227.600 235.704,224.878 237.199,223.877 237.206 C 223.395 237.209,222.210 237.487,221.244 237.823 C 218.600 238.744,211.184 240.291,208.600 240.462 C 206.903 240.574,202.111 239.742,199.829 238.940 C 198.304 238.404,195.697 237.601,194.036 237.156 C 192.374 236.711,190.921 236.202,190.807 236.026 C 190.693 235.850,189.880 235.341,189.000 234.896 C 188.120 234.451,186.017 233.386,184.327 232.529 C 181.375 231.032,178.568 228.673,174.656 224.400 C 173.749 223.410,172.241 221.858,171.304 220.952 C 170.367 220.045,169.600 219.191,169.600 219.053 C 169.600 218.915,169.060 217.659,168.400 216.262 C 167.740 214.865,167.200 213.429,167.200 213.070 C 167.200 212.712,166.669 211.436,166.020 210.236 C 162.888 204.448,161.826 194.930,163.608 188.632 C 166.307 179.095,170.146 171.734,174.933 166.921 C 176.070 165.778,177.782 164.023,178.739 163.021 C 179.695 162.019,180.793 161.200,181.178 161.200 C 181.564 161.200,183.551 160.193,185.593 158.962 C 187.635 157.731,190.497 156.223,191.953 155.611 C 193.409 154.999,196.241 153.771,198.247 152.881 C 200.253 151.991,202.413 151.186,203.047 151.092 C 205.676 150.700,210.643 150.838,214.688 151.415 M309.878 152.273 C 311.021 152.843,312.053 153.562,312.172 153.871 C 312.465 154.636,315.524 155.980,316.994 155.991 C 319.720 156.011,322.132 157.812,323.714 161.010 L 325.175 163.963 323.888 164.862 C 323.179 165.357,322.510 165.868,322.400 165.998 C 321.098 167.534,314.100 167.183,310.259 165.389 C 301.750 161.415,286.238 164.539,283.536 170.770 C 281.854 174.649,283.571 180.886,286.907 183.014 C 291.191 185.747,301.395 189.990,303.721 190.006 C 304.870 190.014,308.941 191.290,309.648 191.864 C 310.208 192.319,316.171 194.845,318.000 195.402 C 319.072 195.729,321.995 197.852,322.516 198.681 C 322.689 198.958,323.592 199.631,324.523 200.176 C 326.159 201.135,330.100 205.222,331.857 207.782 C 333.708 210.479,333.592 219.273,331.674 221.732 C 331.083 222.490,330.330 223.507,330.000 223.993 C 328.493 226.214,325.809 229.498,324.605 230.595 C 322.802 232.239,319.350 234.800,318.937 234.800 C 318.752 234.801,318.076 235.252,317.436 235.802 C 316.795 236.353,315.535 236.993,314.636 237.224 C 313.736 237.455,311.920 237.978,310.600 238.387 C 303.050 240.723,294.747 240.777,289.669 238.521 C 288.421 237.966,286.462 237.266,285.314 236.965 C 282.151 236.135,279.692 235.016,275.400 232.455 C 272.832 230.923,272.400 230.110,272.400 226.810 L 272.400 224.471 274.100 223.669 C 276.797 222.397,280.262 222.188,282.185 223.181 C 283.056 223.632,284.012 224.000,284.308 224.000 C 284.604 224.000,285.551 224.566,286.412 225.257 C 292.018 229.763,308.433 229.774,313.376 225.276 C 314.148 224.574,314.972 224.000,315.208 224.000 C 316.207 224.000,319.548 220.082,319.773 218.646 C 319.898 217.851,320.102 216.547,320.228 215.749 C 320.740 212.482,317.824 207.390,314.652 206.014 C 313.743 205.619,311.650 204.460,310.000 203.437 C 307.167 201.681,305.685 201.086,302.400 200.387 C 301.630 200.224,299.741 199.619,298.202 199.045 C 296.663 198.470,295.042 198.000,294.600 198.000 C 294.159 198.000,292.499 197.370,290.911 196.600 C 289.324 195.830,287.808 195.200,287.543 195.200 C 286.323 195.200,280.750 191.850,278.620 189.836 C 277.320 188.606,276.124 187.600,275.962 187.600 C 275.324 187.600,272.549 182.005,271.540 178.684 L 270.472 175.167 271.436 172.708 C 271.966 171.355,272.400 169.896,272.400 169.466 C 272.400 169.036,273.022 167.390,273.783 165.809 C 275.698 161.828,278.519 159.468,286.200 155.422 C 287.520 154.726,289.308 153.746,290.174 153.244 C 294.766 150.579,305.424 150.054,309.878 152.273 M203.800 163.759 C 200.970 164.282,197.581 165.301,196.305 166.013 C 195.923 166.226,195.203 166.406,194.705 166.413 C 190.236 166.474,178.957 176.846,177.418 182.308 C 177.124 183.349,176.502 185.280,176.034 186.600 C 175.566 187.920,174.999 189.540,174.774 190.200 C 173.410 194.190,174.045 201.101,176.237 206.119 C 176.987 207.835,177.600 209.504,177.600 209.827 C 177.600 210.680,179.316 213.268,181.183 215.231 C 182.072 216.165,182.800 217.039,182.800 217.172 C 182.800 217.681,186.113 221.410,186.741 221.608 C 187.103 221.722,188.379 222.307,189.575 222.908 C 190.771 223.508,191.980 224.000,192.261 224.000 C 192.542 224.000,193.409 224.559,194.188 225.243 C 199.049 229.511,218.090 229.794,222.834 225.669 C 223.394 225.183,225.235 224.078,226.926 223.213 C 230.388 221.442,232.800 219.731,232.800 219.045 C 232.800 218.558,235.283 215.279,236.923 213.600 C 238.076 212.421,240.301 207.845,240.650 205.938 C 240.784 205.202,241.413 202.980,242.047 201.000 C 243.497 196.474,243.489 190.000,242.034 190.000 C 241.853 190.000,241.413 188.958,241.056 187.685 C 237.476 174.928,227.636 166.126,214.800 164.198 C 208.530 163.256,206.875 163.190,203.800 163.759 M215.000 168.639 C 219.604 169.253,220.338 169.458,221.400 170.430 C 222.060 171.033,223.230 171.787,224.000 172.105 C 227.027 173.353,232.528 179.470,234.175 183.418 C 234.996 185.388,235.832 187.360,236.032 187.800 C 239.879 196.281,237.506 205.507,229.241 214.200 C 228.404 215.080,227.499 216.366,227.229 217.058 C 226.241 219.588,225.523 219.959,217.000 222.352 C 215.460 222.784,213.210 223.539,212.000 224.031 C 208.104 225.613,203.749 225.553,201.913 223.891 C 200.422 222.541,198.593 221.600,197.462 221.600 C 196.904 221.600,196.352 221.446,196.235 221.257 C 196.119 221.069,194.928 220.682,193.590 220.398 C 191.364 219.926,191.088 219.748,190.364 218.328 C 189.538 216.711,189.065 216.063,186.900 213.589 C 186.185 212.772,185.600 212.008,185.600 211.891 C 185.600 211.774,184.823 210.896,183.873 209.940 C 180.358 206.397,180.281 206.115,180.238 196.600 C 180.199 187.888,180.342 187.002,182.091 185.131 C 182.371 184.831,183.050 183.719,183.600 182.660 C 184.150 181.601,185.292 179.984,186.138 179.067 C 186.984 178.150,188.023 176.725,188.446 175.900 C 188.870 175.075,189.476 174.400,189.794 174.400 C 190.112 174.400,190.551 174.065,190.770 173.656 C 190.989 173.247,192.066 172.526,193.163 172.054 C 194.260 171.582,195.439 170.794,195.783 170.303 C 196.600 169.137,205.597 167.421,208.800 167.821 C 209.350 167.889,212.140 168.257,215.000 168.639 " stroke="none" fill="#7d6c57" fill-rule="evenodd"></path><path id="path4" d="M159.200 1.531 L 159.200 3.062 156.100 3.533 C 154.395 3.793,152.280 4.008,151.400 4.012 C 150.520 4.016,148.270 4.385,146.400 4.833 C 144.530 5.280,142.000 5.882,140.777 6.170 C 139.554 6.458,137.778 7.183,136.829 7.781 C 135.881 8.380,134.272 9.104,133.253 9.389 C 130.419 10.184,125.522 11.483,124.364 11.747 C 123.794 11.877,122.714 12.524,121.964 13.185 C 121.214 13.846,120.307 14.390,119.948 14.394 C 119.590 14.397,118.060 15.027,116.548 15.793 C 115.037 16.558,113.556 17.188,113.258 17.193 C 112.959 17.197,112.059 17.715,111.258 18.343 C 110.456 18.972,109.080 19.717,108.200 19.998 C 107.320 20.279,105.751 20.935,104.713 21.455 C 103.676 21.975,102.576 22.400,102.270 22.400 C 101.963 22.400,100.922 23.092,99.956 23.938 C 98.362 25.334,94.897 27.124,92.446 27.818 C 91.921 27.967,90.481 29.074,89.246 30.278 C 88.011 31.483,86.190 32.908,85.200 33.445 C 84.210 33.982,82.933 34.732,82.362 35.111 C 78.874 37.429,77.720 38.298,77.069 39.102 C 76.667 39.598,76.082 40.260,75.769 40.574 C 75.456 40.887,75.200 41.336,75.200 41.571 C 75.200 41.807,75.010 42.000,74.778 42.000 C 73.218 42.000,67.749 45.611,67.242 46.976 C 67.056 47.477,63.526 50.800,63.179 50.800 C 63.048 50.800,61.841 51.835,60.497 53.100 C 59.152 54.365,57.546 55.857,56.926 56.416 C 56.307 56.975,55.014 58.370,54.052 59.516 C 53.091 60.662,52.056 61.600,51.752 61.600 C 51.449 61.600,51.200 61.856,51.200 62.169 C 51.200 62.482,50.695 63.247,50.077 63.869 C 49.459 64.491,48.834 65.318,48.687 65.706 C 48.540 66.094,48.011 66.569,47.510 66.760 C 46.244 67.244,43.670 70.462,42.297 73.276 C 42.008 73.869,41.023 74.949,40.109 75.676 C 37.970 77.378,32.801 84.206,32.797 85.335 C 32.794 85.856,31.862 87.123,30.454 88.520 C 28.879 90.082,27.950 91.389,27.612 92.520 C 26.849 95.071,25.377 97.763,23.812 99.467 C 23.038 100.310,22.403 101.168,22.402 101.374 C 22.401 101.580,21.770 102.965,21.000 104.453 C 20.230 105.941,19.600 107.368,19.600 107.623 C 19.600 107.878,19.211 108.491,18.736 108.985 C 17.878 109.876,14.920 116.139,14.507 117.937 C 14.389 118.453,13.881 119.319,13.378 119.862 C 12.447 120.866,11.092 124.751,10.400 128.398 C 9.900 131.034,8.766 134.946,8.428 135.200 C 7.657 135.779,6.399 138.044,6.395 138.862 C 6.392 139.378,5.929 141.240,5.367 143.000 C 4.766 144.880,4.195 147.933,3.982 150.400 C 3.365 157.567,3.354 157.600,1.548 157.600 L 0.000 157.600 0.000 166.000 L 0.000 174.400 1.751 174.400 L 3.502 174.400 4.380 170.900 C 5.678 165.725,5.938 164.117,6.399 158.410 C 6.824 153.154,7.817 149.000,9.208 146.668 C 10.921 143.795,11.677 141.641,11.971 138.791 C 12.231 136.263,12.550 135.339,13.959 133.019 C 14.882 131.500,16.011 128.894,16.469 127.229 C 17.701 122.740,19.254 119.008,21.389 115.400 C 21.909 114.520,22.350 113.566,22.368 113.279 C 22.427 112.316,25.486 106.564,26.548 105.418 C 27.127 104.794,27.600 104.060,27.600 103.786 C 27.600 103.513,28.230 102.374,29.000 101.255 C 29.770 100.135,30.400 99.057,30.400 98.859 C 30.400 98.660,30.673 98.271,31.007 97.994 C 31.653 97.458,32.315 96.122,33.382 93.200 C 33.760 92.165,34.881 90.556,36.020 89.414 C 37.109 88.322,38.000 87.120,38.000 86.743 C 38.000 86.366,38.225 85.819,38.501 85.529 C 38.776 85.238,39.505 84.226,40.120 83.280 C 40.735 82.334,41.603 81.254,42.048 80.880 C 43.110 79.989,44.803 77.479,45.966 75.073 C 46.695 73.566,47.293 72.956,48.712 72.273 C 49.709 71.793,50.722 71.067,50.963 70.659 C 51.203 70.251,52.225 69.081,53.234 68.059 C 54.242 67.037,55.492 65.570,56.012 64.800 C 57.222 63.008,62.399 57.951,65.033 55.988 C 68.323 53.537,71.887 49.909,72.517 48.369 C 72.925 47.369,73.568 46.723,74.651 46.223 C 76.909 45.181,80.125 43.124,80.688 42.360 C 80.957 41.996,82.127 41.097,83.288 40.362 C 84.450 39.628,85.490 38.910,85.600 38.767 C 85.710 38.624,86.250 38.370,86.800 38.202 C 87.350 38.033,88.520 37.128,89.400 36.191 C 90.953 34.536,93.906 32.802,95.175 32.799 C 95.791 32.797,98.410 31.366,98.800 30.818 C 98.910 30.664,99.540 30.256,100.200 29.912 C 104.324 27.763,106.032 26.766,106.933 25.983 C 107.877 25.163,110.935 23.707,113.800 22.715 C 115.432 22.150,117.570 21.129,121.583 18.997 C 123.444 18.009,125.176 17.200,125.433 17.200 C 125.914 17.200,127.930 16.344,133.277 13.872 C 135.303 12.934,137.488 12.287,139.677 11.977 C 142.926 11.516,144.774 10.852,147.600 9.131 C 149.786 7.799,154.154 6.802,159.501 6.415 C 163.884 6.098,172.313 4.523,174.700 3.575 C 175.425 3.287,175.600 2.904,175.600 1.609 L 175.600 0.000 167.400 0.000 L 159.200 0.000 159.200 1.531 M225.600 1.571 C 225.600 3.892,230.812 5.764,239.047 6.399 C 247.208 7.029,250.612 7.787,253.600 9.638 C 255.353 10.725,257.757 11.508,260.800 11.986 C 264.021 12.491,268.288 13.964,269.600 15.023 C 270.465 15.720,273.484 17.200,274.044 17.200 C 276.508 17.200,290.448 23.838,293.514 26.471 C 294.237 27.092,295.025 27.600,295.266 27.600 C 296.085 27.600,303.090 31.215,303.808 32.009 C 304.202 32.444,304.758 32.800,305.044 32.800 C 305.331 32.800,306.481 33.340,307.600 34.000 C 308.719 34.660,309.782 35.200,309.962 35.200 C 310.141 35.200,310.956 35.830,311.773 36.600 C 312.589 37.370,313.476 38.000,313.744 38.000 C 314.012 38.000,315.484 39.132,317.016 40.515 C 319.926 43.143,323.100 45.304,324.800 45.815 C 326.202 46.236,327.600 47.206,327.600 47.757 C 327.600 48.504,335.533 56.400,336.284 56.400 C 336.492 56.400,337.549 57.418,338.632 58.663 C 339.714 59.908,341.116 61.241,341.747 61.627 C 342.378 62.013,343.593 63.200,344.447 64.264 C 346.126 66.356,346.486 66.761,347.281 67.450 C 347.566 67.698,348.661 68.902,349.713 70.127 C 350.765 71.352,351.963 72.461,352.374 72.592 C 352.786 72.723,353.659 73.858,354.313 75.115 C 356.353 79.033,356.569 79.358,358.219 81.000 C 360.162 82.933,361.791 85.103,362.148 86.232 C 362.293 86.690,363.395 88.130,364.597 89.432 C 366.025 90.979,366.873 92.285,367.045 93.200 C 367.283 94.469,369.827 99.318,371.033 100.800 C 371.301 101.130,372.009 102.300,372.605 103.400 C 373.202 104.500,373.900 105.580,374.156 105.800 C 374.703 106.269,377.600 111.935,377.600 112.537 C 377.600 113.053,379.249 116.531,379.621 116.800 C 379.925 117.019,382.800 123.059,382.800 123.477 C 382.800 124.275,385.906 132.013,386.691 133.171 C 387.682 134.633,387.679 134.623,388.421 139.200 C 388.877 142.015,390.317 145.846,391.428 147.200 C 392.225 148.172,393.600 153.138,393.600 155.045 C 393.600 158.880,395.683 169.629,396.866 171.900 C 397.210 172.559,397.691 172.800,398.668 172.800 L 400.000 172.800 400.000 165.000 L 400.000 157.200 398.656 157.200 C 397.132 157.200,397.364 158.041,396.224 148.400 C 395.661 143.642,393.854 137.489,392.464 135.600 C 391.685 134.541,391.364 133.475,390.817 130.139 C 390.177 126.228,388.127 121.327,386.416 119.616 C 385.967 119.167,385.600 118.452,385.600 118.026 C 385.600 117.224,383.717 112.488,383.133 111.820 C 382.950 111.611,382.800 111.156,382.800 110.809 C 382.800 110.462,382.260 109.587,381.600 108.864 C 380.940 108.142,380.400 107.268,380.400 106.922 C 380.400 105.905,377.230 99.876,376.208 98.949 C 375.309 98.134,372.400 92.386,372.400 91.425 C 372.400 91.170,371.661 90.251,370.758 89.381 C 368.803 87.499,367.200 85.106,367.200 84.069 C 367.200 83.658,366.856 82.926,366.436 82.442 C 366.016 81.958,365.071 80.813,364.336 79.899 C 362.589 77.725,362.054 77.187,360.346 75.884 C 359.503 75.241,358.303 73.612,357.409 71.899 C 355.521 68.279,354.488 66.800,353.848 66.800 C 353.215 66.800,351.590 65.040,350.431 63.100 C 349.938 62.275,349.366 61.600,349.160 61.600 C 348.954 61.600,347.349 60.205,345.593 58.500 C 343.837 56.795,341.211 54.320,339.758 53.000 C 338.305 51.680,335.810 49.340,334.212 47.800 C 330.265 43.995,329.258 43.200,328.390 43.200 C 327.981 43.200,327.536 43.020,327.400 42.800 C 327.264 42.580,326.810 42.400,326.391 42.400 C 325.910 42.400,325.041 41.534,324.031 40.045 C 322.221 37.380,316.811 32.800,315.473 32.800 C 314.990 32.800,313.324 31.832,311.771 30.649 C 310.218 29.466,307.249 27.713,305.174 26.755 C 303.098 25.796,301.077 24.718,300.681 24.359 C 300.286 24.000,299.296 23.386,298.481 22.994 C 297.667 22.603,296.730 22.141,296.400 21.967 C 296.070 21.793,294.810 21.149,293.600 20.536 C 292.390 19.924,290.991 19.033,290.491 18.557 C 289.634 17.741,284.785 15.832,280.800 14.742 C 279.810 14.471,278.409 13.743,277.686 13.125 C 276.963 12.506,276.176 12.000,275.936 12.000 C 275.697 12.000,274.128 11.389,272.450 10.643 C 270.773 9.897,268.500 9.161,267.400 9.008 C 266.300 8.855,264.410 8.232,263.200 7.623 C 259.521 5.774,253.980 4.529,247.137 4.014 C 240.075 3.483,240.000 3.458,240.000 1.557 L 240.000 0.000 232.800 0.000 L 225.600 0.000 225.600 1.571 M0.000 228.800 L 0.000 236.400 1.543 236.400 L 3.087 236.400 3.529 239.300 C 3.773 240.895,4.059 244.000,4.166 246.200 C 4.467 252.412,6.239 259.074,8.035 260.747 C 8.524 261.202,8.921 262.430,9.188 264.313 C 10.009 270.106,12.307 278.459,13.389 279.589 C 13.945 280.169,14.400 281.068,14.400 281.586 C 14.400 284.095,17.842 294.028,18.937 294.680 C 19.494 295.012,21.878 301.540,22.340 304.000 C 22.638 305.588,23.853 308.000,24.353 308.000 C 24.724 308.000,26.142 311.730,27.167 315.400 C 27.892 317.996,28.893 320.133,29.979 321.400 C 31.317 322.961,32.431 325.318,32.676 327.104 C 32.912 328.823,34.722 333.107,35.758 334.400 C 36.023 334.730,36.670 335.990,37.197 337.200 C 38.080 339.228,38.549 339.974,41.094 343.397 C 42.423 345.186,43.600 347.914,43.600 349.207 C 43.600 351.369,45.631 355.180,46.800 355.210 C 47.774 355.235,48.715 356.910,49.390 359.820 C 49.738 361.318,50.175 362.737,50.362 362.972 C 50.549 363.208,50.836 363.835,50.999 364.366 C 51.162 364.898,51.800 365.757,52.417 366.275 C 53.098 366.848,54.125 368.635,55.035 370.831 C 55.858 372.818,57.132 375.099,57.866 375.900 C 58.600 376.701,59.200 377.546,59.200 377.779 C 59.200 378.736,62.531 384.467,63.429 385.056 C 63.963 385.406,64.400 385.966,64.400 386.301 C 64.400 387.047,67.628 392.570,68.988 394.149 C 69.532 394.781,70.094 395.681,70.238 396.149 C 70.886 398.264,72.871 402.010,73.531 402.363 C 74.134 402.686,76.127 406.300,78.143 410.728 C 78.375 411.239,78.997 412.088,79.524 412.615 C 80.611 413.702,82.800 417.035,82.800 417.604 C 82.800 417.810,83.327 418.252,83.972 418.585 C 84.616 418.919,85.258 419.553,85.399 419.996 C 85.539 420.438,85.791 420.800,85.959 420.800 C 86.252 420.800,87.416 423.218,88.400 425.869 C 88.659 426.567,89.382 427.615,90.007 428.198 C 90.631 428.781,91.598 429.679,92.155 430.194 C 92.712 430.710,93.292 431.642,93.443 432.266 C 93.595 432.889,94.232 434.056,94.859 434.858 C 95.487 435.659,96.000 436.486,96.000 436.696 C 96.000 436.905,96.335 437.379,96.745 437.750 C 97.154 438.120,97.819 439.183,98.223 440.112 C 99.370 442.751,100.341 443.954,102.014 444.807 C 102.974 445.297,103.773 446.090,104.122 446.898 C 104.430 447.614,105.104 449.190,105.619 450.400 C 106.133 451.610,107.114 453.230,107.798 454.000 C 108.481 454.770,109.287 455.895,109.588 456.500 C 109.889 457.105,110.295 457.600,110.490 457.600 C 110.685 457.600,111.199 458.400,111.632 459.378 C 112.064 460.356,112.819 461.486,113.309 461.888 C 113.799 462.291,114.650 463.516,115.200 464.610 C 115.750 465.705,116.965 467.349,117.900 468.264 C 118.835 469.180,119.600 470.125,119.600 470.364 C 119.600 470.604,119.758 470.800,119.951 470.800 C 120.145 470.800,120.527 471.340,120.800 472.000 C 121.073 472.660,121.433 473.200,121.600 473.200 C 121.767 473.200,122.136 473.785,122.422 474.500 C 123.130 476.275,128.762 483.205,129.824 483.609 C 130.375 483.818,131.090 484.894,131.818 486.608 C 132.827 488.981,133.187 489.412,135.037 490.456 C 137.028 491.579,137.151 491.747,137.840 494.291 C 138.466 496.607,138.908 497.316,141.252 499.775 C 142.733 501.329,144.375 503.230,144.901 504.000 C 145.427 504.770,146.519 506.057,147.328 506.860 C 148.138 507.663,148.800 508.698,148.800 509.160 C 148.800 509.622,148.941 510.000,149.114 510.000 C 149.286 510.000,149.743 510.534,150.128 511.186 C 150.513 511.838,151.354 512.682,151.997 513.062 C 152.640 513.442,153.379 514.266,153.639 514.894 C 153.899 515.521,154.626 516.586,155.256 517.260 C 155.885 517.933,156.400 518.610,156.400 518.764 C 156.400 518.917,157.030 519.654,157.800 520.400 C 158.570 521.146,159.201 521.947,159.202 522.178 C 159.204 522.410,160.385 523.860,161.827 525.400 C 164.469 528.220,167.200 531.670,167.200 532.186 C 167.200 532.339,168.235 533.525,169.500 534.822 C 174.654 540.105,175.499 541.114,176.951 543.725 C 177.785 545.224,178.796 546.574,179.198 546.725 C 179.600 546.876,180.604 547.990,181.429 549.200 C 182.255 550.410,183.306 551.768,183.765 552.218 C 184.224 552.667,185.438 553.947,186.463 555.061 C 187.487 556.174,188.619 557.198,188.977 557.336 C 189.336 557.474,189.938 558.128,190.315 558.791 C 190.692 559.453,191.133 559.996,191.295 559.997 C 192.028 560.004,193.600 563.274,193.600 564.792 L 193.600 566.400 200.000 566.400 L 206.400 566.400 206.400 565.141 C 206.400 563.316,208.637 560.193,213.172 555.687 C 215.324 553.549,217.825 550.706,218.729 549.370 C 219.634 548.033,220.830 546.732,221.387 546.479 C 221.944 546.225,222.400 545.765,222.400 545.458 C 222.400 545.150,222.640 544.698,222.934 544.455 C 223.228 544.211,223.863 543.244,224.346 542.305 C 224.828 541.367,225.868 540.158,226.656 539.618 C 227.444 539.078,228.702 537.833,229.452 536.850 C 230.202 535.868,231.164 534.820,231.590 534.522 C 232.015 534.224,232.941 532.896,233.647 531.572 C 234.353 530.248,236.225 527.687,237.807 525.882 C 239.389 524.077,240.800 522.233,240.942 521.786 C 241.083 521.338,242.280 519.919,243.600 518.633 C 244.920 517.347,246.000 516.049,246.000 515.748 C 246.000 515.446,246.168 515.200,246.373 515.200 C 246.578 515.200,246.856 514.853,246.991 514.429 C 247.125 514.005,247.835 513.305,248.567 512.872 C 249.420 512.369,250.282 511.304,250.964 509.910 C 251.550 508.712,252.922 506.767,254.013 505.586 C 255.104 504.405,256.096 503.160,256.217 502.819 C 256.337 502.479,257.330 501.480,258.424 500.600 C 260.653 498.805,261.759 497.198,262.159 495.172 C 262.308 494.417,262.530 493.329,262.652 492.752 C 262.801 492.054,263.429 491.402,264.538 490.794 C 267.062 489.412,267.811 488.574,268.841 485.979 C 269.449 484.448,270.016 483.600,270.431 483.600 C 271.059 483.600,272.400 482.415,272.400 481.860 C 272.400 481.589,276.094 476.721,277.096 475.671 C 277.373 475.381,277.600 474.977,277.600 474.775 C 277.600 474.573,278.230 473.582,279.000 472.573 C 279.770 471.564,280.400 470.393,280.400 469.969 C 280.400 469.546,280.566 469.200,280.769 469.200 C 281.714 469.200,283.598 466.976,284.820 464.417 C 285.560 462.868,286.312 461.600,286.491 461.600 C 286.671 461.600,287.345 460.768,287.991 459.750 C 288.636 458.733,289.532 457.643,289.982 457.328 C 290.432 457.013,290.800 456.516,290.800 456.225 C 290.800 455.933,291.430 455.214,292.200 454.627 C 292.970 454.040,293.600 453.313,293.600 453.013 C 293.600 452.713,293.782 452.406,294.004 452.332 C 294.226 452.258,294.846 450.938,295.382 449.399 C 296.305 446.742,298.183 444.400,299.389 444.400 C 299.887 444.400,300.658 443.258,301.821 440.800 C 302.289 439.810,302.971 438.753,303.336 438.451 C 303.701 438.149,304.000 437.716,304.000 437.489 C 304.000 437.261,304.423 436.519,304.940 435.838 C 305.457 435.157,306.240 433.784,306.680 432.786 C 307.487 430.954,309.193 428.804,309.846 428.795 C 310.259 428.789,312.000 426.206,312.000 425.600 C 312.000 424.862,314.337 421.026,315.685 419.550 C 316.408 418.758,317.593 416.914,318.318 415.452 C 319.044 413.990,320.070 412.511,320.599 412.164 C 321.128 411.817,321.962 410.694,322.452 409.667 C 322.943 408.640,323.761 407.129,324.272 406.308 C 324.782 405.487,325.200 404.561,325.200 404.250 C 325.200 403.939,325.657 403.260,326.215 402.742 C 326.773 402.224,327.956 400.270,328.845 398.400 C 329.733 396.530,330.905 394.531,331.449 393.958 C 332.966 392.361,335.356 387.938,335.765 385.973 C 335.882 385.409,336.388 384.721,336.889 384.446 C 337.969 383.852,339.812 381.074,340.703 378.697 C 341.053 377.764,341.785 376.393,342.328 375.650 C 342.872 374.908,343.787 373.198,344.363 371.850 C 345.872 368.315,347.243 366.040,348.012 365.796 C 348.950 365.499,350.713 362.102,351.034 359.977 C 351.351 357.871,352.543 355.736,353.584 355.405 C 354.676 355.058,356.400 352.615,356.400 351.414 C 356.400 349.543,357.984 345.619,359.772 343.061 C 360.737 341.681,362.012 339.393,362.606 337.976 C 363.199 336.559,364.304 334.394,365.059 333.165 C 365.815 331.936,366.943 329.506,367.566 327.765 C 368.745 324.470,370.038 321.905,371.010 320.933 C 371.323 320.620,371.763 319.652,371.989 318.782 C 372.215 317.912,372.598 316.435,372.840 315.500 C 373.387 313.384,375.822 308.245,376.572 307.623 C 376.879 307.369,377.345 306.262,377.608 305.165 C 377.872 304.067,378.504 302.305,379.013 301.249 C 379.523 300.193,380.065 298.625,380.218 297.765 C 380.371 296.904,380.927 295.738,381.454 295.173 C 382.607 293.934,384.998 286.795,385.793 282.214 C 385.948 281.324,386.492 280.235,387.034 279.733 C 387.565 279.241,388.000 278.506,388.000 278.099 C 388.000 277.693,388.166 277.189,388.369 276.980 C 388.572 276.771,389.018 275.160,389.361 273.400 C 389.704 271.640,390.163 269.300,390.382 268.200 C 390.601 267.100,390.882 265.206,391.007 263.992 C 391.239 261.738,391.342 261.487,393.359 258.210 C 395.196 255.228,395.675 253.354,396.022 247.800 C 396.201 244.940,396.572 241.205,396.846 239.500 L 397.344 236.400 398.672 236.400 L 400.000 236.400 400.000 228.976 L 400.000 221.552 398.512 221.676 L 397.023 221.800 395.496 228.200 C 394.505 232.349,393.845 236.288,393.618 239.400 C 393.169 245.544,392.774 247.197,390.809 251.134 C 388.838 255.084,388.000 258.176,388.000 261.500 C 388.000 264.036,387.339 265.918,385.561 268.443 C 384.857 269.443,382.800 276.546,382.800 277.978 C 382.800 279.128,381.215 283.602,379.554 287.138 C 378.692 288.974,377.818 291.226,377.613 292.142 C 376.999 294.880,374.579 300.400,373.991 300.400 C 373.531 300.400,372.493 303.636,372.220 305.921 C 371.980 307.933,370.479 311.023,368.782 313.000 C 368.405 313.440,367.879 314.520,367.614 315.400 C 367.349 316.280,366.514 318.260,365.757 319.800 C 365.001 321.340,364.386 322.726,364.391 322.880 C 364.396 323.034,363.860 323.960,363.200 324.938 C 362.540 325.916,361.998 326.960,361.995 327.258 C 361.992 327.556,361.362 329.238,360.595 330.996 C 359.828 332.754,359.200 334.418,359.200 334.695 C 359.200 334.972,358.570 335.866,357.800 336.682 C 357.030 337.499,356.400 338.365,356.400 338.608 C 356.400 338.851,355.974 339.939,355.453 341.025 C 354.932 342.111,354.214 344.011,353.857 345.248 C 353.500 346.484,352.922 347.733,352.571 348.024 C 352.221 348.314,351.408 349.553,350.764 350.776 C 350.120 351.999,349.429 353.270,349.229 353.600 C 349.028 353.930,348.484 355.190,348.020 356.400 C 347.556 357.610,346.552 359.318,345.788 360.195 C 345.025 361.072,344.126 362.369,343.791 363.076 C 343.455 363.783,342.766 364.865,342.259 365.481 C 341.226 366.735,338.211 372.854,337.858 374.411 C 337.732 374.967,336.822 376.463,335.834 377.734 C 334.847 379.005,333.928 380.395,333.793 380.823 C 333.657 381.250,333.378 381.600,333.173 381.600 C 332.968 381.600,332.800 381.950,332.800 382.379 C 332.800 383.398,330.242 387.745,329.096 388.674 C 328.179 389.417,325.731 393.782,325.195 395.629 C 325.031 396.195,324.320 397.455,323.615 398.429 C 322.116 400.501,317.200 408.367,317.200 408.694 C 317.200 408.817,316.570 409.866,315.800 411.026 C 315.030 412.186,314.399 413.375,314.399 413.668 C 314.398 413.961,313.859 414.560,313.200 415.000 C 312.541 415.440,312.002 416.010,312.001 416.267 C 312.000 416.911,310.063 420.714,309.587 421.008 C 309.374 421.140,309.200 421.531,309.200 421.877 C 309.200 422.223,308.149 423.517,306.864 424.753 C 305.579 425.989,304.151 427.630,303.690 428.400 C 303.230 429.170,302.526 430.169,302.127 430.619 C 301.205 431.658,300.286 433.222,298.977 435.976 C 298.408 437.173,297.505 438.672,296.971 439.307 C 296.437 439.942,296.000 440.723,296.000 441.043 C 296.000 441.363,295.730 441.729,295.401 441.855 C 294.768 442.098,290.800 446.897,290.800 447.419 C 290.800 447.587,290.377 448.281,289.859 448.962 C 289.342 449.643,288.619 450.781,288.253 451.491 C 287.888 452.202,286.609 453.881,285.411 455.223 C 284.214 456.565,283.114 458.039,282.968 458.500 C 282.568 459.760,280.061 463.641,278.769 465.000 C 276.821 467.048,275.200 469.088,275.200 469.491 C 275.200 469.703,274.814 470.219,274.342 470.638 C 273.870 471.057,273.068 472.300,272.559 473.400 C 271.578 475.520,270.044 477.369,268.358 478.465 C 267.347 479.122,265.600 483.393,265.600 485.208 C 265.600 486.051,264.286 487.600,263.571 487.600 C 262.360 487.600,259.619 489.732,259.200 490.999 C 258.955 491.741,258.180 492.996,257.477 493.788 C 256.775 494.580,255.660 495.920,255.000 496.767 C 254.340 497.614,253.305 498.643,252.700 499.053 C 251.589 499.807,248.800 503.525,248.800 504.251 C 248.800 504.467,248.170 505.331,247.400 506.172 C 246.630 507.013,246.000 507.842,246.000 508.015 C 246.000 508.188,245.460 508.783,244.800 509.339 C 244.140 509.894,243.600 510.532,243.600 510.757 C 243.600 510.982,242.970 511.669,242.200 512.283 C 241.430 512.897,240.800 513.597,240.800 513.838 C 240.800 514.079,240.418 514.619,239.951 515.038 C 239.484 515.457,238.586 516.712,237.955 517.826 C 237.324 518.940,236.070 520.470,235.169 521.226 C 233.217 522.863,230.922 525.872,229.050 529.248 C 228.638 529.991,226.973 531.902,225.350 533.493 C 223.728 535.085,222.400 536.615,222.400 536.893 C 222.399 537.172,221.949 537.923,221.400 538.562 C 220.850 539.201,220.400 539.873,220.400 540.054 C 220.400 540.235,219.545 541.242,218.500 542.292 C 216.377 544.424,214.400 546.949,214.400 547.527 C 214.400 547.737,213.995 548.176,213.500 548.504 C 212.101 549.430,206.712 554.877,206.020 556.064 C 205.679 556.650,204.902 558.045,204.293 559.164 L 203.187 561.200 200.357 561.200 C 197.511 561.200,196.057 560.445,196.013 558.945 C 195.981 557.849,193.113 554.337,189.687 551.200 C 187.645 549.330,185.684 547.260,185.330 546.600 C 184.976 545.940,183.721 544.455,182.543 543.300 C 181.364 542.145,180.400 541.120,180.400 541.022 C 180.400 540.248,176.213 534.575,174.968 533.661 C 173.362 532.482,171.606 530.628,171.593 530.097 C 171.585 529.769,169.709 526.872,168.300 525.010 C 167.805 524.356,166.435 522.916,165.256 521.811 C 164.077 520.705,162.701 518.991,162.198 518.000 C 161.695 517.010,160.860 515.713,160.342 515.118 C 159.824 514.524,158.770 513.285,158.000 512.366 C 157.230 511.448,156.271 510.404,155.868 510.048 C 154.909 509.199,151.200 504.565,151.200 504.215 C 151.200 504.066,150.660 503.159,150.000 502.200 C 149.340 501.241,148.800 500.284,148.800 500.075 C 148.800 499.865,148.466 499.606,148.058 499.499 C 147.192 499.273,142.621 493.558,141.276 491.020 C 140.539 489.629,139.874 489.046,137.986 488.138 C 135.444 486.916,135.410 486.872,134.565 483.688 C 133.776 480.718,132.646 478.667,131.443 478.023 C 130.877 477.720,130.313 477.157,130.191 476.773 C 130.069 476.388,129.697 475.970,129.365 475.842 C 129.032 475.714,128.340 474.663,127.827 473.505 C 127.314 472.347,126.512 471.057,126.047 470.638 C 125.581 470.219,125.200 469.708,125.200 469.502 C 125.200 469.195,123.806 467.376,119.912 462.600 C 119.010 461.495,117.214 458.546,117.207 458.162 C 117.203 457.921,116.030 456.394,114.600 454.769 C 113.170 453.145,112.000 451.650,112.000 451.449 C 112.000 451.248,111.370 450.134,110.600 448.974 C 109.830 447.814,109.197 446.715,109.194 446.532 C 109.190 446.349,108.648 445.570,107.989 444.800 C 105.357 441.723,104.736 440.936,103.732 439.400 C 103.156 438.520,102.152 436.810,101.501 435.600 C 99.626 432.117,96.396 427.674,93.939 425.199 C 92.367 423.615,91.123 421.795,89.857 419.229 C 88.855 417.198,87.443 414.849,86.718 414.009 C 85.189 412.237,83.297 409.264,82.312 407.087 C 81.934 406.251,81.349 405.292,81.012 404.955 C 80.676 404.618,80.400 404.069,80.400 403.733 C 80.400 402.902,79.007 400.939,76.988 398.927 C 75.894 397.836,75.069 396.513,74.619 395.127 C 74.239 393.957,73.585 392.439,73.164 391.753 C 72.744 391.067,72.400 390.294,72.400 390.035 C 72.400 389.777,71.768 388.882,70.995 388.046 C 70.222 387.211,68.758 384.924,67.743 382.964 C 66.728 381.004,65.560 379.028,65.148 378.574 C 64.737 378.120,64.400 377.633,64.400 377.492 C 64.400 377.351,63.945 376.566,63.390 375.747 C 62.834 374.928,62.271 373.795,62.139 373.229 C 62.006 372.663,61.291 371.269,60.549 370.132 C 59.807 368.995,59.200 367.947,59.200 367.804 C 59.200 367.661,58.680 366.788,58.043 365.863 C 57.407 364.938,56.622 363.549,56.299 362.775 C 55.976 362.001,55.461 361.101,55.156 360.773 C 54.149 359.696,52.800 357.641,52.800 357.186 C 52.800 356.419,49.923 350.000,49.579 350.000 C 49.400 350.000,49.146 349.660,49.014 349.245 C 48.882 348.829,48.370 348.053,47.876 347.520 C 47.382 346.987,46.734 345.752,46.437 344.775 C 45.306 341.061,43.342 336.940,42.561 336.640 C 42.230 336.513,41.590 335.552,41.139 334.505 C 40.687 333.457,39.893 331.680,39.374 330.555 C 38.854 329.431,38.259 327.754,38.051 326.830 C 37.844 325.906,37.207 324.476,36.637 323.653 C 36.067 322.830,35.600 322.001,35.600 321.810 C 35.600 321.180,31.515 313.227,30.951 312.760 C 30.648 312.508,30.400 312.042,30.400 311.725 C 30.400 311.408,30.059 310.305,29.642 309.274 C 29.225 308.243,28.582 306.320,28.215 305.000 C 27.343 301.873,26.993 301.034,26.144 300.043 C 25.339 299.103,22.406 291.763,22.402 290.680 C 22.400 289.886,21.394 287.737,20.587 286.800 C 20.302 286.470,19.776 285.120,19.417 283.800 C 19.058 282.480,18.479 280.410,18.132 279.200 C 17.784 277.990,17.371 276.238,17.214 275.308 C 17.057 274.377,16.287 272.307,15.502 270.708 C 13.054 265.718,12.732 264.718,12.179 260.371 C 11.710 256.681,11.409 255.698,9.821 252.662 C 7.700 248.608,6.988 245.276,6.389 236.600 C 6.024 231.327,5.794 229.999,4.261 224.295 C 3.441 221.245,3.402 221.200,1.576 221.200 L 0.000 221.200 0.000 228.800 " stroke="none" fill="#dcccc4" fill-rule="evenodd"></path></g></svg>
