<svg width="24" height="34" viewBox="0 0 24 34" xmlns="http://www.w3.org/2000/svg">
    <g fill-rule="nonzero" fill="none">
        <path d="M12 0C5.366 0 0 5.321 0 11.9 0 20.825 12 34 12 34s12-13.175 12-22.1C24 5.321 18.634 0 12 0z" fill="#B89978"/>
        <g fill="#000">
            <path d="M6.025 14.52c-.735-.261-1.264-.76-1.628-1.518-.213-.442-.252-.6-.252-1.145 0-.561.031-.696.252-1.154a2.996 2.996 0 0 1 1.43-1.398c.38-.174.562-.206 1.123-.206.79 0 1.374.198 1.864.616l.308.27-.158.173c-.3.332-.41.348-.806.079-.71-.466-1.43-.506-2.157-.11-.671.363-1.027.971-1.027 1.753 0 1.675 1.928 2.584 3.287 1.549l.277-.213.268.26.277.27-.206.212c-.568.593-1.983.87-2.852.561zM11.698 14.535c-1.96-.71-2.568-3.01-1.2-4.55 1.437-1.62 4.195-.98 4.803 1.113.38 1.32-.276 2.726-1.549 3.31-.568.262-1.524.317-2.054.127zm1.51-.758c.394-.119.971-.625 1.177-1.027.482-.949.11-2.078-.862-2.655-.308-.182-.458-.214-.924-.214-.672.008-1.059.182-1.517.704-1.328 1.509.182 3.776 2.125 3.192zM19.146 14.504c.664-.309.948-.704.948-1.304 0-.806-.34-1.122-1.738-1.612-1.248-.435-1.525-.79-1.059-1.343.403-.482 1.225-.514 1.991-.08l.435.246.237-.237c.292-.293.253-.419-.23-.72-1.39-.884-3.428-.173-3.428 1.194 0 .782.418 1.185 1.683 1.612.529.181.948.379 1.09.513.292.277.308.6.024.87-.182.165-.277.189-.806.189-.49 0-.672-.032-.909-.174-.166-.103-.332-.182-.371-.182-.032 0-.142.127-.23.285-.205.348-.157.419.412.664.6.26 1.477.3 1.951.079z"/>
        </g>
    </g>
</svg>
