<svg xmlns="http://www.w3.org/2000/svg" width="424" height="41" viewBox="0 0 424 41">
    <g fill="#005699" fill-rule="evenodd">
        <path d="M0 .262h18.125c6.249 0 8.881 3.51 8.881 8.004a6.691 6.691 0 0 1-5.486 6.806v.09a7.512 7.512 0 0 1 6.733 7.798c0 6.61-5.626 9.02-10.53 9.02H0V.262zm3.28 13.793h13.122c4.462 0 7.324-1.427 7.324-5.65-.025-3.87-2.616-5.125-6.233-5.125H3.28v10.775zm0 14.94h13.942c4.281 0 7.496-1.689 7.496-6.043 0-4.584-2.854-5.871-6.692-5.871H3.28v11.914zM31.985 16.006c.492-4.846 3.124-7.822 11.071-7.822 7.767 0 10.662 2.402 10.662 6.847v12.095c0 1.91.533 2.574 1.828 2.574.583 0 1.157-.04 1.74-.09v2.222c-.908.21-1.834.327-2.765.353-3.346 0-3.526-2.271-3.567-4.1h-.107c-1.025 1.509-3.28 4.625-10.842 4.625-3.97 0-9.021-1.739-9.021-6.937 0-6.273 6.47-6.979 11.564-7.25 7.233-.401 8.127-.82 8.127-3.066 0-3.337-2.23-4.535-7.676-4.535-5.274.017-7.734 1.378-7.964 5.084h-3.05zm18.657 3.56c-1.435.934-3.69 1.106-10.292 1.754-3.838.353-6.07 1.509-6.07 4.272 0 3.6 3.125 4.674 6.693 4.674 4.461 0 9.686-2.402 9.686-7.158v-3.543h-.017zM61.771 1.64h3.28v7.298h6.562v2.46h-6.561v15.285c0 2 .623 2.935 3.28 2.935 1.1.026 2.199-.062 3.28-.262v2.755a26.674 26.674 0 0 1-3.616.27c-5.134 0-6.25-2-6.25-5.74v-15.26h-5.019v-2.46h5.044V1.64zM76.18 0h3.281v13.432h.09c.984-2.46 4.462-5.248 9.596-5.248 7.725 0 10.046 4.001 10.046 9.512V31.98h-3.28V17.122c0-4.576-2.813-6.183-7.004-6.183-6.47 0-9.415 3.28-9.415 8.536V31.98h-3.28V0h-.033zM132.039 28.06c-2.28 2.846-6.692 4.674-11.785 4.674-8.054-.008-11.999-4.034-11.999-9.479 0-4.403 2.633-6.888 8.841-9.43-2.32-2.181-4.018-4.001-4.018-6.978 0-3.911 3.083-6.56 7.766-6.56 5.798 0 7.767 3.51 7.767 6.445 0 4.1-3.346 6.314-6.652 7.692l9.776 9.208c.984-1.287 1.558-4.001 1.698-5.338h3.034a14.71 14.71 0 0 1-2.542 7.34l6.799 6.346h-4.51l-4.175-3.92zm-13.122-12.3c-5.044 1.87-7.381 4.182-7.381 7.692 0 3.337 2.723 6.56 8.923 6.56 3.748 0 6.602-.82 9.505-3.83L118.917 15.76zm1.64-12.718c-2.28 0-4.461 1.427-4.461 3.69 0 1.288.311 2.46 3.879 5.962 3.838-1.64 5.577-3.51 5.577-5.74-.009-2.108-1.436-3.928-4.995-3.928v.016zM150.63.262h18.125c6.25 0 8.882 3.51 8.882 8.004a6.691 6.691 0 0 1-5.486 6.806v.09a7.512 7.512 0 0 1 6.725 7.798c0 6.626-5.626 9.07-10.53 9.07H150.63V.261zm3.281 13.785h13.081c4.461 0 7.324-1.427 7.324-5.65.008-3.862-2.575-5.117-6.192-5.117h-14.196v10.775l-.017-.008zm0 14.94h13.877c4.28 0 7.495-1.69 7.495-6.043 0-4.584-2.854-5.872-6.692-5.872h-14.663v11.923l-.017-.008zM194.9 8.2c8.923 0 13.163 5.822 13.163 12.3 0 6.478-4.24 12.3-13.162 12.3-8.923 0-13.163-5.822-13.163-12.3 0-6.478 4.24-12.3 13.163-12.3zm0 21.787c6.25 0 9.842-3.96 9.842-9.52s-3.617-9.512-9.841-9.512c-6.225 0-9.842 3.96-9.842 9.512 0 5.552 3.568 9.504 9.842 9.504v.016zM233.815 27.388h-.082c-.894 1.96-3.838 5.338-9.464 5.338-9.505 0-12.63-6.625-12.63-12.3 0-6.445 3.97-12.3 12.63-12.3a10.58 10.58 0 0 1 9.464 5.388h.09V0h3.28v31.98h-3.28v-4.592h-.008zm-9.546-16.45c-5.224 0-9.325 3.65-9.325 9.513 0 4.625 2.592 9.52 9.325 9.52 5.487 0 9.735-3.469 9.735-9.52-.008-4.756-2.994-9.512-9.735-9.512zM261.666 8.897h3.568l-12.58 27.429C250.955 39.975 249.528 41 245.87 41c-1.025 0-2.19 0-3.166-.09v-2.755c.714.04 1.468.09 2.362.09 2.362 0 3.527-.533 4.593-2.846l1.517-3.206-11.293-23.296h3.567l9.473 19.254 8.742-19.254zM315.4.262h3.568L308.265 31.98h-3.838l-9.595-27.06h-.09l-9.465 27.06h-3.838L270.86.262h3.708l8.84 27.388h.09L292.914.262h4.1l9.415 27.388h.09zM331.868 8.2c8.923 0 13.171 5.822 13.171 12.3 0 6.478-4.24 12.3-13.17 12.3-8.932 0-13.164-5.822-13.164-12.3 0-6.478 4.24-12.3 13.163-12.3zm0 21.787c6.25 0 9.842-3.96 9.842-9.52s-3.617-9.512-9.842-9.512c-6.225 0-9.841 3.96-9.841 9.512 0 5.552 3.56 9.504 9.841 9.504v.016zM349.763 8.897h3.28v5.289h.09c1.206-2.755 3.396-6.002 8.883-6.002.66-.006 1.32.054 1.968.18v3.378a17.323 17.323 0 0 0-3.035-.27c-3.567 0-7.897 2.181-7.897 8.757V31.98h-3.28V8.897h-.009zM366.682 0h3.28v20.14L384.11 8.888h4.92l-11.367 8.766 12.228 14.325h-4.37l-10.318-12.193-5.216 3.993v8.2h-3.28V0z"/>
        <path d="M408.32 15.744c-.82-3.74-3.166-4.805-7.989-4.805-3.477 0-6.692.754-6.692 3.96 0 2.403 1.559 2.895 8.612 3.822 7.053.926 10.046 2.18 10.046 6.674s-3.748 7.34-11.022 7.34c-7.275 0-11.72-2.395-11.72-7.971h3.035c.582 3.87 2.763 5.207 8.701 5.207 4.6 0 7.725-.935 7.725-4.403 0-2.313-1.64-3.338-8.881-4.043-7.242-.705-9.76-2.403-9.76-6.494 0-4.092 3.28-6.847 9.997-6.847 7.546 0 10.662 2.714 11.023 7.56h-3.075zM419.973 7.946a4.01 4.01 0 1 1-4.018 4.01 4.018 4.018 0 0 1 4.018-4.01zm0 7.544a3.535 3.535 0 1 0-3.485-3.534 3.477 3.477 0 0 0 3.485 3.534zm.058-3.28h-1.017v2.115h-.533V9.57h1.837c1.082 0 1.558.468 1.558 1.329a1.28 1.28 0 0 1-1.197 1.328l1.435 2.116h-.665l-1.418-2.132zm-1.017-.468h1.189c.631 0 1.123-.172 1.123-.86a.91.91 0 0 0-1.123-.82h-1.19v1.713-.033z"/>
    </g>
</svg>
