<?xml version="1.0" encoding="UTF-8"?>
<svg enable-background="new 0 0 631 145.9" version="1.1" viewBox="0 0 631 145.9" xml:space="preserve" xmlns="http://www.w3.org/2000/svg">
<style type="text/css">
	.st0{fill:#FFFFFF;}
</style>
								<circle class="st0" cx="547.6" cy="34.6" r="10.4"/>
								<circle class="st0" cx="199" cy="34.7" r="10.4"/>
									<path class="st0" d="m288.6 30.3c-0.7-1.6-1.9-3-3.1-3.9s-2.6-1.6-4.2-1.9-2.2-0.3-4.1-0.3h-5.2l-4.3 35c-1.1-1.2-2.5-2.4-4.1-3.5-1.4-0.9-3.1-1.7-5.1-2.6s-4.4-1.5-7-1.7c-4.1-0.3-8.4 0.2-12.9 1.5-4.4 1.3-8.6 3.6-12.4 6.7-3.8 3.2-7.1 7.3-9.9 12.4s-4.7 11.1-5.5 18.2c-0.7 5.3-0.3 10.3 1 15s3.3 8.7 6.1 12.3c2.9 3.5 6.1 6.7 10.1 8.7 0 0 1.2 0.9 3.5 1.7 3.6 1 7.4 1.4 11.4 1.3 4.8-0.2 8.7-1.2 11.7-2.8 3-1.7 5.2-3.2 6.7-4.7 0 0.1 0.1 0.2 0.1 0.3 0.7 1.6 1.9 3 3.1 3.9s2.6 1.5 4.2 1.8 2.2 0.2 4.1 0.2h5.2l4.4-35.8 0.3-1.8 6.5-53.3c0.6-3.3 0.1-5-0.6-6.7zm-25.2 58.3c-0.2 5.1-1 9.4-2.3 12.8s-2.9 6-4.7 8-3.6 3.4-5.6 4.2c-1.9 0.8-3.6 1.3-5 1.4s-3.1-0.1-5-0.6-3.7-1.5-5.3-3.2-3-4.1-4.1-7.2c-1.1-3.2-1.6-7.3-1.4-12.4s1-9.4 2.3-12.8 2.9-6 4.7-7.9 3.6-3.3 5.6-4.1c1.9-0.8 3.6-1.3 5-1.4s3.1 0.1 5 0.6 3.7 1.5 5.3 3.1 3 4 4.1 7.1 1.6 7.2 1.4 12.4z"/>
										<path class="st0" d="m201.1 53.7c-1.2-0.9-2.6-1.5-4.2-1.8s-2.2-0.2-4.1-0.2h-5.2l-7.8 63.5c-0.3 2.6-0.3 3.5 0.2 5.2 0.4 1.7 1.5 3.4 2.5 4.4 1 1.1 2.8 2.2 4.3 2.6 1.6 0.4 2.8 0.5 4.7 0.5h5.6l7.8-63.7c0.5-3.2 0.1-4.9-0.7-6.6-0.8-1.6-1.9-3-3.1-3.9z"/>
									<path class="st0" d="m377.9 25.2c-0.1-0.2-0.3-0.9-0.3-0.9h-59.9-8-0.1c-2.9-0.1-4.4 0.6-5.8 1.5-1.4 0.8-2.7 2.1-3.4 3.3s-1.2 2.5-1.5 3.9-1 7-1 7.7h57c-6.1 6-13.1 12.9-18.9 18.4-3 2.9-6.1 5.9-9.2 9-3.2 3.1-6.2 6.1-9.3 9.1-3 3-5.9 5.8-8.7 8.6-2.8 2.7-5.3 5.1-7.5 7.3-3.4 3.3-6.7 7.5-8.9 11.7-2.6 5.1-4 10.9-4.3 16.6-0.1 2.2 0 4.4 0.3 6.4h68.9c2.5 0 3.9-0.6 5.2-1.4 1.4-0.8 2.7-2.1 3.4-3.3s1.2-2.5 1.5-3.9 0.4-2 0.5-3.9c0.1-1.2 0.5-3.5 0.6-4.4h-60.9c6-5.8 12.4-11.7 18.1-17.3 3-2.9 6.1-5.9 9.2-9s6.3-6.1 9.3-9.1c3.1-3 5.7-5.5 8.5-8.3s5.3-5.2 7.5-7.4c4.5-4.4 8.4-8.6 10.9-12s4-6.1 5.2-8.9c1.1-2.7 1.8-5.2 1.9-7.4s0.2-4.4-0.3-6.3z"/>
										<path class="st0" d="m549.6 53.7c-1.2-0.9-2.6-1.5-4.2-1.8s-2.2-0.2-4.1-0.2h-5.2l-7.8 63.5c-0.3 2.6-0.3 3.5 0.2 5.2 0.4 1.7 1.5 3.4 2.5 4.4 1 1.1 2.8 2.2 4.3 2.6 1.6 0.4 2.8 0.5 4.7 0.5h5.6l7.8-63.7c0.5-3.2 0.1-4.9-0.7-6.6-0.7-1.6-1.8-3-3.1-3.9z"/>
									<path class="st0" d="m521.1 72.1c-1.6-5.1-3.9-9.2-6.9-12.4s-6.6-5.4-10.8-6.8c-4.2-1.3-8.4-1.8-12.6-1.5-2.3 0.2-4.5 0.7-6.5 1.4-2.1 0.8-3.9 1.6-5.5 2.4-1.6 0.9-3 1.7-4.3 2.7-1.2 0.9-2 1.5-2.5 1.9 0-0.2-0.1-0.4-0.1-0.5 0-0.4-0.1-0.8-0.3-1-0.1-0.3-0.2-0.6-0.4-0.9-0.7-1.6-1.9-3-3.1-3.9s-2.6-1.6-4.2-1.9c-1.4-0.3-3.6-0.3-3.7-0.3h-5.6l-7.8 63.8c-0.5 3.1 0 4.9 0.7 6.5s1.9 3 3.1 3.9 2.6 1.6 4.2 1.9c1.5 0.3 2.1 0.3 3.7 0.3h0.1 5.6l4.7-38.4c0.6-4.6 1.6-8.5 3-11.6 1.5-3.1 3.1-5.6 5.1-7.4 1.9-1.8 4.1-3.1 6.4-3.9 2.3-0.7 4.6-1.1 6.9-1 2.2 0.1 4.3 0.6 6.1 1.4s3.4 2.2 4.6 4.1 2 4.5 2.4 7.8 0.3 7.4-0.3 12.3l-2.9 23.9c-0.5 3.2-0.1 5 0.7 6.6 0.7 1.6 1.9 3 3.1 3.9s2.6 1.6 4.2 1.9c1.5 0.3 2.1 0.3 3.7 0.3h0.1 5.6l4.6-37.5c0.8-6.8 0.5-12.9-1.1-18z"/>
									<path class="st0" d="m440.6 64.1c-1.7-4.2-4.1-7.3-7.1-9.2-2.8-1.7-6.4-3.3-9.8-3.7-3.6-0.8-9.2-1.4-15.5-1.4-8.9 0-16.4 1.1-18.9 2.5-0.3 0.2-0.6 0.3-0.9 0.5-1.4 0.8-2.7 2.1-3.4 3.3s-1.2 2.5-1.5 4c-0.3 1.4-0.4 2-0.5 3.9-0.1 1.4-0.2 2.4-0.2 2.4l0.4-0.1c3.8-0.9 9.9-1.4 16.7-1.4 7.3 0 13.7 0.6 17.4 1.6 2.5 0.4 4.7 1.8 5.8 3.8 0 0 1.7 2.6 1.8 6.4 0 1.9-0.4 3.9-1 6.1-14.7-2.4-26.6-1.9-35.5 1.4s-14.1 9.6-15.5 19.1c-0.7 4.5-0.4 8.4 0.9 11.7s3.2 6 5.8 8.1c2.6 2.2 5.8 3.7 9.4 4.7s7.5 1.4 11.4 1.3c4.9-0.2 8.8-1.2 11.8-2.8 3-1.7 5.2-3.2 6.7-4.8 0.1-0.1 0.2-0.1 0.2-0.2 0 0.1 0.2 0.3 0.2 0.4 0.7 1.6 1.9 3 3.1 3.9s2.6 1.6 4.2 1.9 2.2 0.3 4.1 0.3h5.2l5.6-45.4c1.3-8 0.9-14-0.9-18.3zm-20.5 40.6c-1.2 2.6-2.8 4.7-4.6 6.2-1.9 1.5-3.9 2.6-6.1 3.1-2.2 0.6-4.5 0.9-6.7 0.9-1.8 0-3.6-0.2-5.2-0.5s-3-0.9-4.1-1.7-2-1.9-2.5-3.3-0.7-3.2-0.4-5.3 0.9-3.9 1.9-5.3 2.3-2.5 3.7-3.5c1.5-0.9 3-1.6 4.6-1.9 1.6-0.4 3.2-0.6 4.7-0.7 2.5-0.1 4.8-0.1 6.9 0.2 2.1 0.2 3.9 0.4 5.4 0.6 1.8 0.3 3.4 0.7 4.9 1.1-0.4 4.1-1.3 7.5-2.5 10.1z"/>
						<path class="st0" d="m625.3 64.1c-1.7-4.2-4.1-7.3-7.1-9.2-2.8-1.7-6.4-3.3-9.8-3.7-3.6-0.8-9.2-1.4-15.5-1.4-8.9 0-16.4 1.1-18.9 2.5-0.3 0.2-0.6 0.3-0.9 0.5-1.4 0.8-2.7 2.1-3.4 3.3s-1.2 2.5-1.5 4c-0.3 1.4-0.4 2-0.5 3.9-0.1 1.4-0.2 2.4-0.2 2.4l0.4-0.1c3.8-0.9 9.9-1.4 16.7-1.4 7.3 0 13.7 0.6 17.4 1.6 2.5 0.4 4.7 1.8 5.8 3.8 0 0 1.7 2.6 1.8 6.4 0 1.9-0.4 3.9-1 6.1-14.7-2.4-26.6-1.9-35.5 1.4s-14.1 9.6-15.5 19.1c-0.7 4.5-0.4 8.4 0.9 11.7s3.2 6 5.8 8.1c2.6 2.2 5.8 3.7 9.4 4.7s7.5 1.4 11.4 1.3c4.9-0.2 8.8-1.2 11.8-2.8 3-1.7 5.2-3.2 6.7-4.8 0.1-0.1 0.2-0.1 0.2-0.2 0 0.1 0.2 0.3 0.2 0.4 0.7 1.6 1.9 3 3.1 3.9s2.6 1.6 4.2 1.9 2.2 0.3 4.1 0.3h5.2l5.6-45.4c1.2-8 0.9-14-0.9-18.3zm-20.5 40.6c-1.2 2.6-2.8 4.7-4.6 6.2-1.9 1.5-3.9 2.6-6.1 3.1-2.2 0.6-4.5 0.9-6.7 0.9-1.8 0-3.6-0.2-5.2-0.5s-3-0.9-4.1-1.7-2-1.9-2.5-3.3-0.7-3.2-0.4-5.3 0.9-3.9 1.9-5.3 2.3-2.5 3.7-3.5c1.5-0.9 3-1.6 4.6-1.9 1.6-0.4 3.2-0.6 4.7-0.7 2.5-0.1 4.8-0.1 6.9 0.2 2.1 0.2 3.9 0.4 5.4 0.6 1.8 0.3 3.4 0.7 4.9 1.1-0.4 4.1-1.3 7.5-2.5 10.1z"/>
				<path class="st0" d="m54.2 128.2 12.8-103.9h5.7 1.3 0.8c1 0 1.7 0 2.9 0.3 1.9 0.4 3.5 1.1 4.9 2.1 1.5 1.1 2.7 2.7 3.6 4.5 0.9 1.9 1.2 5.3 0.6 9.1l-3.2 26 40-40c-0.5-0.1-0.8-0.2-0.8-0.2-5.5-1.1-9.8-2.6-12.6-3.7-4.7-1.9-8-3.7-10.8-5.4-2.2-1.4-4.3-2.7-7.1-4.1-2.6-1.3-5.8-2.7-9.6-3.9-6.1-2-13.4-3.4-21-3.4-6.9 0-12.6 0.7-18.1 2.1-5 1.3-9 2.8-13.6 5 0 0-4.6 2.2-10 6l-13.5 109.9c-0.7 3.9 2.5 6 5.4 5.4 0.4-0.1 1.4-0.6 2.4-1 2.8-1.2 5.4-2.2 7.9-2.9 9.9-3 20.4-3.7 30.8-2.2 0.2 0.2 0.7 0.2 1.2 0.3z"/>
	<path class="st0" d="m178.5 14.6c-1.5-0.1-2.4 0.4-3.1 0.9-2 1.3-3.8 2.5-5.6 3.4-3 1.6-5.3 2.6-5.3 2.6-1.4 0.6-2.5 1.1-3.7 1.5-1.7 0.6-3.3 1.2-4.7 1.6l-51.9 51.9c0.4 0.3 0.8 0.5 1 0.8l45.1 45.2c-2.3 2.7-4.7 4.2-4.8 4.2-2.7 1.6-5.7 2.4-8.8 2.4-12 0-23-12.1-23-12.1l-32.4-32.4-6.3 50.7c0.8 0.4 1.3 0.7 1.3 0.7 0.3 0.1 2.9 1.6 2.9 1.6 0.7 0.4 3.8 1.9 3.7 1.8 1.1 0.5 2.2 1 3.3 1.4 2.2 0.9 4.3 1.5 6.3 2.2 2.5 0.7 5 1.3 8 1.9 0 0 1 0.2 2.7 0.4 2.3 0.3 4.9 0.5 8.2 0.6 1.5 0 3.1 0 5-0.1 1.5-0.1 3.1-0.2 4.8-0.4 1.3-0.2 2.8-0.4 4.1-0.7 1-0.2 2-0.4 2.9-0.6 3.1-0.7 6.2-1.7 9.5-3 1.5-0.6 3.4-1.4 4.6-2 1.5-0.7 3.2-1.6 4.7-2.5 0.7-0.4 3.2-1.9 6.1-4 2.4-1.8 4.9-3.8 6.9-5.8 1.5-1.4 3.8-3.7 6.8-7.4 0.4-0.5 2.9-3.8 3.6-5l11.7-95.1c0.1-0.8-0.2-2.1-1.1-3.2-0.3-0.6-1.4-1.4-2.5-1.5z"/>
</svg>
