<svg xmlns="http://www.w3.org/2000/svg" width="130" height="44" viewBox="0 0 130 44">
    <g fill="none" fill-rule="evenodd">
        <rect width="128.586" height="42.868" x=".5" y=".5" stroke="#000" rx="5"/>
        <path fill="#000" d="M28.369 20.93c-.029-3.138 2.569-4.665 2.688-4.736-1.471-2.145-3.752-2.438-4.553-2.461-1.915-.202-3.773 1.146-4.748 1.146-.995 0-2.497-1.127-4.116-1.093-2.084.032-4.033 1.238-5.102 3.111-2.206 3.82-.56 9.432 1.553 12.52 1.057 1.513 2.293 3.2 3.91 3.14 1.582-.064 2.173-1.008 4.082-1.008 1.892 0 2.447 1.009 4.096.97 1.698-.026 2.767-1.518 3.787-3.045 1.222-1.73 1.713-3.44 1.732-3.527-.039-.013-3.296-1.256-3.33-5.017M25.253 11.702c.851-1.064 1.433-2.512 1.272-3.981-1.232.054-2.772.852-3.66 1.893-.784.917-1.485 2.42-1.304 3.834 1.384.103 2.804-.698 3.692-1.746M51.284 32.34h-2.21l-1.212-3.805h-4.21l-1.154 3.805h-2.152l4.172-12.956h2.576l4.19 12.956zm-3.787-5.402l-1.095-3.382c-.116-.347-.334-1.16-.654-2.442h-.039c-.128.55-.334 1.365-.615 2.442l-1.077 3.382h3.48zM61.992 27.554c0 1.59-.431 2.845-1.295 3.767-.773.82-1.734 1.23-2.88 1.23-1.237 0-2.127-.44-2.668-1.325v4.902h-2.075v-10.06c0-.997-.027-2.02-.077-3.07h1.825l.116 1.482h.04c.691-1.117 1.742-1.675 3.152-1.675 1.102 0 2.022.435 2.758 1.307.735.873 1.104 2.02 1.104 3.442zm-2.115.076c0-.91-.204-1.659-.615-2.249-.449-.614-1.052-.923-1.807-.923-.512 0-.978.171-1.393.51-.417.34-.69.785-.817 1.337a2.696 2.696 0 0 0-.097.63v1.56c0 .678.209 1.252.626 1.721.416.467.958.702 1.623.702.782 0 1.39-.303 1.826-.904.436-.602.654-1.397.654-2.384zM72.738 27.554c0 1.59-.432 2.845-1.295 3.767-.774.82-1.734 1.23-2.881 1.23-1.237 0-2.127-.44-2.668-1.325v4.902h-2.076v-10.06c0-.997-.026-2.02-.077-3.07h1.826l.116 1.482h.039c.691-1.117 1.742-1.675 3.152-1.675 1.101 0 2.022.435 2.76 1.307.734.873 1.104 2.02 1.104 3.442zm-2.116.076c0-.91-.206-1.659-.616-2.249-.448-.614-1.05-.923-1.805-.923-.513 0-.978.171-1.396.51a2.36 2.36 0 0 0-.816 1.337 2.759 2.759 0 0 0-.097.63v1.56c0 .678.21 1.252.624 1.721.417.466.958.702 1.626.702.783 0 1.391-.303 1.826-.904.436-.602.654-1.397.654-2.384zM84.752 28.707c0 1.102-.385 1.999-1.152 2.69-.843.756-2.02 1.135-3.53 1.135-1.394 0-2.511-.269-3.354-.807l.48-1.73c.91.538 1.91.808 2.998.808.783 0 1.392-.177 1.826-.529.436-.353.655-.823.655-1.411 0-.527-.181-.969-.54-1.328-.359-.358-.952-.693-1.786-.998-2.268-.846-3.404-2.085-3.404-3.712 0-1.063.402-1.933 1.2-2.614.801-.68 1.862-1.02 3.183-1.02 1.179 0 2.161.206 2.94.616l-.52 1.692c-.734-.397-1.563-.595-2.49-.595-.732 0-1.307.18-1.717.538-.346.32-.522.71-.522 1.174 0 .511.2.936.598 1.268.345.307.974.641 1.883 1 1.116.45 1.934.973 2.46 1.575.529.602.792 1.352.792 2.248M91.632 24.555h-2.288v4.536c0 1.154.403 1.73 1.211 1.73.371 0 .679-.032.922-.097l.058 1.576c-.41.153-.948.23-1.613.23-.821 0-1.46-.25-1.924-.75-.462-.5-.693-1.34-.693-2.52v-4.708h-1.362v-1.558h1.362v-1.71l2.04-.616v2.326h2.287v1.561M101.935 27.592c0 1.436-.41 2.615-1.23 3.537-.859.949-2 1.423-3.422 1.423-1.373 0-2.464-.455-3.278-1.364-.814-.91-1.221-2.057-1.221-3.44 0-1.448.422-2.634 1.259-3.556.839-.922 1.97-1.384 3.393-1.384 1.372 0 2.472.456 3.306 1.365.797.883 1.193 2.021 1.193 3.42zm-2.152.048c0-.856-.185-1.59-.556-2.204-.435-.742-1.06-1.112-1.865-1.112-.83 0-1.47.37-1.904 1.112-.372.614-.556 1.36-.556 2.243 0 .857.184 1.593.556 2.204.45.743 1.075 1.114 1.887 1.114.793 0 1.415-.38 1.866-1.132.38-.628.572-1.367.572-2.225zM108.685 24.823a3.614 3.614 0 0 0-.654-.056c-.73 0-1.295.273-1.693.826-.345.487-.518 1.102-.518 1.845v4.902h-2.075v-6.4c0-1.076-.02-2.058-.06-2.941h1.807l.076 1.787h.058c.22-.614.564-1.11 1.038-1.48a2.507 2.507 0 0 1 1.5-.501c.192 0 .365.015.519.038l.002 1.98M117.968 27.227c0 .372-.024.685-.076.942h-6.226c.022.922.325 1.63.902 2.116.525.434 1.205.652 2.037.652.922 0 1.763-.146 2.52-.442l.325 1.441c-.884.385-1.929.578-3.132.578-1.449 0-2.586-.427-3.413-1.278-.825-.852-1.24-1.997-1.24-3.43 0-1.408.384-2.582 1.155-3.517.806-1 1.895-1.499 3.266-1.499 1.347 0 2.366.5 3.057 1.499.55.791.825 1.773.825 2.938zm-1.98-.538c.015-.617-.121-1.146-.402-1.596-.36-.578-.913-.867-1.654-.867-.68 0-1.231.282-1.652.846-.345.45-.55.99-.614 1.615l4.323.002zM46.496 14.746H45.41l-.595-1.87h-2.07l-.567 1.87H41.12l2.05-6.368h1.266l2.061 6.368zm-1.861-2.655l-.539-1.662c-.056-.17-.16-.567-.321-1.2h-.02c-.066.274-.16.67-.302 1.2l-.529 1.662h1.71zM51.623 10.155l-1.739 4.591h-.992l-1.682-4.591h1.096l.785 2.428c.132.406.245.794.33 1.162h.028c.076-.33.189-.718.33-1.162l.775-2.428h1.07M55.325 14.746l-.076-.528h-.028c-.312.425-.766.633-1.342.633-.822 0-1.408-.577-1.408-1.352 0-1.133.982-1.72 2.683-1.72v-.084c0-.604-.321-.907-.954-.907-.454 0-.85.114-1.2.34l-.207-.67c.426-.265.954-.397 1.579-.397 1.199 0 1.805.632 1.805 1.899v1.691c0 .464.02.823.066 1.096h-.918zm-.142-2.287c-1.135 0-1.701.275-1.701.926 0 .482.293.718.699.718.52 0 1.002-.396 1.002-.935v-.709zM58.449 9.398a.6.6 0 0 1-.605-.614c0-.35.274-.604.624-.604s.633.255.624.604c0 .37-.264.614-.643.614zm-.49.757h1.02v4.591h-1.02v-4.591zM60.791 8.048h1.02v6.698h-1.02zM66.148 14.746l-.077-.528h-.027c-.312.425-.765.633-1.342.633-.821 0-1.407-.577-1.407-1.352 0-1.133.982-1.72 2.683-1.72v-.084c0-.604-.321-.907-.954-.907-.454 0-.851.114-1.2.34l-.208-.671c.425-.265.954-.397 1.578-.397 1.2 0 1.806.632 1.806 1.9v1.69c0 .464.02.823.064 1.096h-.916zm-.142-2.287c-1.134 0-1.7.275-1.7.926 0 .482.292.718.698.718.52 0 1.002-.396 1.002-.935v-.709zM71.133 14.85c-.651 0-1.132-.274-1.445-.812h-.02l-.058.708h-.868c.027-.368.037-.784.037-1.237v-5.46H69.8v2.778h.019c.302-.51.793-.765 1.464-.765 1.106 0 1.88.945 1.88 2.323 0 1.426-.86 2.466-2.031 2.466zm-.207-3.987c-.587 0-1.125.51-1.125 1.219v.803c0 .633.483 1.153 1.106 1.153.764 0 1.22-.623 1.22-1.616 0-.925-.474-1.56-1.201-1.56zM74.675 8.048h1.02v6.698h-1.02zM81.248 12.696h-3.063c.02.87.595 1.36 1.445 1.36.454 0 .87-.076 1.238-.217l.159.709c-.434.189-.945.283-1.54.283-1.437 0-2.286-.907-2.286-2.314 0-1.408.87-2.466 2.173-2.466 1.17 0 1.909.87 1.909 2.183.003.179-.006.34-.035.462zm-.935-.727c0-.709-.36-1.21-1.012-1.21-.587 0-1.048.51-1.116 1.21h2.128zM87.432 14.85c-1.342 0-2.211-1.001-2.211-2.361 0-1.418.888-2.428 2.288-2.428 1.321 0 2.211.954 2.211 2.353 0 1.435-.917 2.437-2.288 2.437zm.039-4.044c-.737 0-1.21.69-1.21 1.653 0 .946.483 1.635 1.2 1.635.718 0 1.2-.737 1.2-1.654 0-.935-.472-1.634-1.19-1.634zM95.205 14.746h-1.018V12.11c0-.812-.313-1.219-.927-1.219-.605 0-1.021.52-1.021 1.125v2.73H91.22v-3.279c0-.406-.011-.84-.039-1.313h.898l.048.709h.029c.272-.49.83-.803 1.455-.803.961 0 1.594.737 1.594 1.936v2.75M101.881 10.92h-1.122v2.23c0 .567.197.85.594.85.179 0 .332-.019.453-.047l.029.775c-.2.076-.465.114-.793.114-.805 0-1.284-.444-1.284-1.607V10.92h-.669v-.765h.669v-.841l1-.303v1.143h1.123v.766M107.285 14.746h-1.022V12.13c0-.821-.312-1.237-.925-1.237-.53 0-1.02.36-1.02 1.087v2.767h-1.021V8.048h1.021v2.758h.02c.32-.5.784-.746 1.38-.746.972 0 1.567.755 1.567 1.956v2.73M112.498 12.696h-3.062c.02.87.594 1.36 1.445 1.36.456 0 .87-.076 1.237-.217l.16.709c-.434.189-.945.283-1.54.283-1.437 0-2.287-.907-2.287-2.314 0-1.408.87-2.466 2.172-2.466 1.171 0 1.91.87 1.91 2.183.003.179-.006.34-.035.462zm-.935-.727c0-.709-.359-1.21-1.01-1.21-.587 0-1.05.51-1.117 1.21h2.127z"/>
    </g>
</svg>
