<svg xmlns="http://www.w3.org/2000/svg" width="106" height="57" viewBox="0 0 106 57">
    <path fill="#151A61" d="M100.584 12.68c.88-1 1.428-2.254 1.428-3.175 0-.628-.372-1.02-.958-1.02-.978 0-2.152 1.216-2.152 3.02 0 .254.02.509.078.764-1.115 1.744-2.289 3.528-3.462 5.234-.411-.079-.822-.118-1.272-.118-2.836 0-5.75 2.117-5.75 5.98 0 1.038.175 1.96.488 2.763-2.425 2.764-4.557 4.568-5.985 4.568-.568 0-.92-.314-.92-.96 0-.687.333-1.785.998-3.314L91.39 7.956l8.979-1.059 1.017-2.136-8.685.274 1.506-3.332-3.364.411-1.526 3.039-12.167.392-2.191 4.352 12.715-1.51-2.563 5.078c-1.31-.589-2.895-.922-4.734-.922-2.777 0-5.379.686-7.687 1.863-1.057-.51-2.25-.765-3.463-.765-2.934 0-6.26 1.411-8.959 3.901-.547-1.686-1.701-2.705-3.384-2.705-1.975 0-4.068 1.039-6.083 2.725-1.194-.98-2.954-1.275-4.773-.569.978-1.843 1.526-3.803 1.526-5.763 0-3.411-1.604-5.92-4.5-7.43.998-.804 2.054-1.529 3.15-2.156-.411-.314-.665-.53-.998-.706-1.447.588-2.817 1.274-4.108 2.078-1.838-.588-4.01-.882-6.514-.882-11.6 0-22.593 6.724-22.593 15.016 0 3.666 2.074 4.96 4.108 4.96 1.917 0 3.775-1.079 4.362-2.372-1.663-.353-2.64-1.784-2.64-3.607 0-6.47 7.804-12.115 15.824-12.115 1.8 0 3.345.333 4.617.96-4.87 3.764-8.607 8.861-11.698 14.33-.45-.078-.88-.098-1.29-.098-2.309 0-3.972 1-3.972 2.902 0 1.313.841 2.41 2.132 3.234-1.897 3.98-3.58 7.96-5.183 11.586-.548-1.098-1.82-1.823-3.287-1.823-3.52 0-6.18 3.117-6.18 6.959 0 2.51 1.016 4.92 2.777 6.841-1.663 1.863-3.463 2.96-5.575 3-.704.02-1.37-.157-1.976-.49 1.663-.177 3.013-1.412 2.973-3.02-.039-1.607-1.369-2.744-3.208-2.704-2.25.058-3.442 1.92-3.404 3.567.079 3.039 2.641 4.646 6.006 4.568 2.915-.059 5.399-1.117 7.629-2.862 2.113 1.352 4.753 2.176 7.707 2.176 8.94 0 16.51-7.626 16.51-17.859 0-4.058-1.037-7.292-2.602-9.743 2.895-1.02 5.438-2.646 7.433-4.626 2.778-2.764 4.832-2.51 6.025-1.745-4.616 4.783-8.352 12.527-8.352 17.722 0 3.215 1.29 5.312 3.755 5.312 7.414 0 16.256-14.33 16.138-22.19 2.387-2.647 5.575-4.216 8.138-4.216.489 0 .939.06 1.33.157-5.79 4.097-9.409 11.115-9.409 16.526 0 2.862 1.409 5.038 4.147 5.038 5.106 0 11.737-7.96 11.737-15.898 0-2.431-.685-4.274-1.78-5.568 1.78-1.058 3.736-1.705 5.849-1.705 1.212 0 2.504.294 3.638.784l-5.047 10.096c-1.193 2.47-1.643 4.312-1.643 5.645 0 2.059 1.193 3.098 3.09 3.098 2.778 0 6.045-2.588 9.292-6.273 1.409 1.744 3.6 2.528 5.419 2.528.587 0 1.174-.058 1.76-.176-1.369 1.725-3.658 3.039-7.003 3.881L45.793 45.046c-6.73 1.685-10.856 5.018-8.861 11.39 1.545-1.275 4.303-2.51 11.463-4.686l40.237-12.291c5.888-1.804 9.624-6.038 11.209-10.292 2.738-1.333 5.184-3.882 5.184-7.43.02-3.881-3.248-6.234-4.44-9.057zm-70.44 10.135c.489.412.978.902 1.408 1.431-.723.157-1.447.236-2.19.275.254-.569.508-1.137.782-1.706zm-6.944-.94c0-1.02 1.213-1.177 2.523-1.04-.47.883-.92 1.745-1.37 2.627-.723-.431-1.153-1-1.153-1.588zm-9.898 24.739c-1.487-1.392-2.21-3.176-2.191-4.666.02-.745.215-1.43.528-2.019.47 1.04 1.624 1.823 3.012 1.823.548 0 1.057-.117 1.526-.313-.939 1.94-1.878 3.685-2.875 5.175zm6.122 2.235c-1.036 0-1.956-.138-2.797-.373 4.597-5.175 8.02-13.487 11.756-21.818 1.565.058 3.091-.138 4.421-.373.744 1.588 1.213 3.51 1.213 5.822 0 7.528-5.536 16.742-14.593 16.742zm14.671-25.406c-.939-1.04-1.995-1.863-3.051-2.51 2.64-5.469 5.594-10.625 9.272-14.565 1.252 1.294 1.936 3.058 1.936 5.175 0 5.254-3.462 9.88-8.157 11.9zm11.307 15.643c-.704 0-1.076-.627-1.076-1.666 0-4.568 7.746-19.545 11.658-19.545.744 0 1.076.628 1.076 1.686 0 4.627-7.707 19.525-11.658 19.525zm20.011-4.352c-.743 0-1.076-.588-1.076-1.686 0-3.548 3.15-10.978 8.177-15.33.567.922.802 2.098.821 3.333.04 5.822-5.32 13.683-7.922 13.683zm25.038-10.35c-.097-.412-.136-.843-.136-1.294 0-2.294 1.623-4.136 3.775-4.136.137 0 .274 0 .41.02-1.369 1.96-2.738 3.802-4.049 5.41zm8.138 2.587c-.939.686-2.054 1.098-3.325 1.098-1.683 0-3.11-.686-3.991-1.882 1.682-2.058 3.345-4.352 4.93-6.704 1.838 1.039 2.582 3.41 2.582 5.567-.02.686-.079 1.314-.196 1.921zm2.152-2.607c-.059-2.627-1.37-5.136-3.6-6.312.88-1.353 1.722-2.706 2.524-4 .84 1.706 2.093 3.549 2.093 5.98 0 1.529-.372 3.038-1.017 4.332z"/>
</svg>
