<svg xmlns="http://www.w3.org/2000/svg" xmlns:xlink="http://www.w3.org/1999/xlink" width="89" height="44" viewBox="0 0 89 44">
    <defs>
        <path id="prefix__a" d="M78.97.265l-.947 2.113h9.952l-1.213 2.113-10.028 1.176-6.635 15.783-.209.478-.113.257-.095.257-.038.129-.038.257v.257l.019.129.038.129.057.128.019.055.076.11.037.037.057.037.057.037.057.037.057.018.057.018.057.019.057.018h.284l.076-.018.208-.055.209-.074.227-.092.209-.11.417-.276.417-.312 1.592-1.36 1.479-1.488-.133-.33-.095-.331-.075-.35-.057-.349-.038-.367-.02-.368.02-.367.038-.35.057-.348.094-.35.114-.33.152-.33.17-.313.19-.294.227-.276.247-.257.227-.22.228-.203.246-.183.247-.166.265-.147.266-.128.265-.11.284-.092.285-.074.303-.055.303-.037.304-.018h.303l.303.018.626.055 4.663-5.512.209-.478.113-.238.133-.24.076-.11.095-.11.094-.11.095-.092.114-.092.133-.092.132-.073.114-.055.057-.019h.152l.057.019h.056l.038.018.057.019.038.018h.057l.038.018.038.037.076.055.075.074.057.11.038.11.02.11.018.11v.092l-.019.092-.019.092-.019.092-.038.092-.075.184-.057.092-.114.165-.114.147-.095.11-.227.22-.133.11-.493.368.038.533.076.533.114.515.151.496.38.973.417.974.417.992.379 1.011.152.533.113.533.076.57.038.569-.076.422-.057.386-.057.386-.094.368-.114.367-.133.368-.151.367-.171.35-.19.348-.227.331-.247.33-.265.313-.284.294-.304.276-.322.275-.341.258v.018l-.038.018-.114.092-.398.276-.493.33-.246.147-.228.11-.019.02-.038.036h-.056l-.02.018h-.075l-.74 1.69-.379.846-.417.827-.493.79-.265.386-.303.367-.323.35-.36.312-.379.293-.417.276-.53.294-.55.257-.55.22-.55.203-2.275.716-37.99 11.447-.17.092-.17.11-.171.13-.17.146-.171.147-.152.166-.133.183-.132.202-.19-.257-.17-.275-.152-.294-.114-.294-.095-.313-.076-.312-.037-.33-.02-.332v-.33l.02-.331.037-.33.057-.332.076-.312.19-.588.113-.275.171-.368.19-.367.227-.35.247-.33.265-.313.303-.294.323-.275.322-.257.341-.24.36-.22.74-.386.758-.33.777-.24 13.914-3.288 21.497-5.016.948-.276.474-.147.455-.165.455-.184.455-.22.455-.258.455-.294.38-.294.17-.147.17-.165.152-.165.133-.184.132-.202.057-.11.057-.11v-.056l-.341-.018-.341-.019-.342-.036-.34-.055-.323-.074-.322-.092-.323-.11-.303-.129-.303-.147-.285-.165-.265-.184-.265-.202-.247-.22-.227-.24-.228-.256-.19-.276-1.8 1.764-.948.863-.986.79-.512.35-.53.312-.531.276-.569.22-.569.165-.606.11-.626.056-.644-.019-.285-.073-.284-.092-.284-.11-.266-.147-.132-.074-.266-.183-.114-.11-.113-.11-.114-.13-.095-.128-.095-.147-.113-.22-.095-.221-.057-.22-.057-.221-.019-.22v-.24l.038-.477.095-.478.132-.46.152-.459.17-.44 4.531-9.775-.398-.22-.417-.185-.436-.165-.455-.129-.474-.092-.492-.055-.493-.036h-.493l-.493.018-.493.055-.493.092-.474.11-.455.147-.455.166-.436.202-.417.22-.246.147-.266.166-.303.202-.341.239.322.367.266.367.246.386.208.405.171.404.133.422.114.441.094.441.057.441.038.441v.9l-.076.9-.132.883-.455 1.617-.645 1.635-.815 1.599-.474.771-.512.735-.55.698-.587.662-.626.625-.663.57-.683.495-.72.441-.758.368-.778.294-.227.055-.228.055-.227.037-.228.018-.227.018h-.227l-.228-.018-.227-.037-.228-.055-.227-.055-.209-.073-.208-.092-.19-.11-.19-.13-.17-.146-.17-.165-.38-.441-.322-.46-.247-.478-.19-.496-.132-.532-.095-.533-.038-.552v-.55l.057-.552.076-.551.114-.551.132-.533.342-1.03.417-.955.606-1.176.683-1.175.74-1.158.814-1.12.872-1.085.948-1.047 1.024-.992 1.1-.92h-.513l-.492.02-.493.054-.474.092-.474.11-.455.13-.91.33-.872.404-.853.478-.815.533-.796.57-.095 1.396-.228 1.34-.34 1.305-.437 1.268-.512 1.231-.568 1.213-1.252 2.389-.796 1.286-.89 1.304-1.005 1.268-1.1 1.176-.588.533-.625.496-.645.46-.682.404-.702.349-.739.275-.758.202-.796.129-.209.018h-.227l-.209-.018-.208-.037-.209-.055-.208-.055-.209-.073-.19-.092-.19-.092-.189-.129-.19-.128-.17-.147-.17-.166-.152-.165-.133-.184-.133-.184-.265-.55-.208-.57-.152-.57-.114-.57-.057-.588-.019-.588.02-.588.056-.587.209-1.176.303-1.158.38-1.12.416-1.066.512-1.085.569-1.047.606-1.029.664-1.01.72-.974.777-.956.834-.918.873-.9-.209-.092-.209-.074-.227-.055-.228-.037-.227-.037-.227-.018h-.228l-.227.018-.474.056-.455.091-.455.129-.417.147-.645.441-.625.46-1.252.918-.625.441-.645.423-.663.385-.702.331-1.44.68-.72.33-.721.295.663 1.341.323.698.303.698.38.92.302.955.247.973.17.993.095 1.01.038 1.03-.038 1.028-.113 1.01-.171 1.011-.246.992-.304.974-.379.937-.455.919-.512.882-.587.827-.645.79-.644.716-.683.662-.72.606-.759.551-.777.496-.815.441-.834.386-.853.331-.872.257-.891.184-.91.129-.929.073h-.929l-.948-.055-.947-.129-.948-.202-.493-.147-.474-.165-.474-.165-.474-.184-.948-.441-.986-.515-.91.533-.985.533-1.062.496-1.118.404-.588.166-.588.128-.587.092-.607.055h-.625l-.626-.055-.626-.11-.625-.165-.436-.184-.436-.22-.209-.13-.208-.146-.19-.166-.19-.165-.17-.165-.17-.184-.152-.184-.133-.202-.114-.22-.246-.313-.057-.22-.038-.24-.038-.201-.019-.202v-.405l.02-.202.037-.183.057-.184.076-.184.076-.165.094-.166.114-.165.266-.294.151-.129.17-.128.171-.11.133-.092.133-.092.151-.074.152-.073.152-.055.17-.055.171-.037.17-.037.171-.018.17-.019h.342l.17.019.171.018.17.037.172.037.151.036.152.055.133.074.151.073.266.184.132.11.133.11.114.13.113.128.095.129.095.128.076.147.114.294.038.147.037.092.02.11.018.11v.24l-.019.11-.019.128-.037.129-.038.128-.114.22-.057.111-.076.11-.076.092-.094.092-.095.092-.19.184-.095.073-.094.074-.095.073-.114.055-.208.11-.228.092-.227.074-.228.055-.246.037.17.11.17.092.172.055.19.055.189.037.19.018.189.019h.208L5.304 41l.399-.055.739-.147.512-.184.436-.165.493-.258.473-.275.436-.33.418-.35.379-.386.17-.202.17-.22-.265-.331-.265-.35-.227-.367-.209-.386-.19-.404-.151-.404-.133-.423-.095-.422-.075-.423-.057-.44-.02-.442.02-.44.057-.442.075-.44.114-.423.152-.423.132-.33.152-.331.19-.331.208-.312.228-.313.246-.294.266-.275.284-.258.303-.238.322-.221.342-.202.34-.165.342-.147.36-.11.36-.074.36-.037.19-.037.19-.018.19-.018h.189l.36.036.36.055.342.074.34.092.645.22.17-.257.153-.294.322-.606.625-1.305 2.939-6.192.265-.68-.36-.202-.36-.239-.341-.275-.171-.147-.152-.166-.132-.165-.133-.184-.114-.183-.095-.184-.075-.202-.057-.202-.038-.203-.02-.22-.113-.165.019-.129.076-.257.057-.129.057-.11.056-.11.076-.11.076-.11.284-.276.095-.092.114-.092.114-.074.113-.073.19-.092.19-.092.208-.073.209-.056.436-.11.455-.073.455-.037h.473l.474.018.474.037 1.706-2.59.91-1.287.948-1.268 1.024-1.23 1.08-1.177L29.76 5.87l1.27-1.01 2.559-1.544-.209-.184-.227-.147-.227-.128-.247-.129-.246-.092-.266-.092-.53-.128-.57-.092-.587-.055-1.194-.055-1.668.183-1.63.313-1.574.46-1.517.605-1.46.754-1.383.9-1.308 1.047-1.232 1.195-.474.606-.436.625-.398.661-.342.68-.132.35-.133.367-.095.367-.076.368-.057.385-.018.386v.404l.037.405.057.183.076.166.095.165.095.147.132.129.133.128.152.11.151.093.152.091.17.092.342.129.341.11.341.092-.075.184-.19.367-.114.166-.132.165-.133.165-.133.166-.152.147-.151.147-.17.128-.171.129-.171.11-.19.092-.19.073-.189.074-.19.055-.303.037-.303.018-.303-.018-.304-.019-.284-.055-.284-.073-.285-.092-.265-.11-.265-.129-.247-.147-.246-.165-.228-.166-.227-.183-.209-.202-.19-.22-.189-.221-.227-.441-.171-.441-.114-.46-.057-.46v-.458l.038-.46.076-.44.114-.442.152-.44.17-.442.417-.845.474-.808.512-.754 1.403-1.506 1.497-1.342 1.593-1.157 1.687-.992 1.763-.846 1.839-.698 1.895-.57 1.934-.44 1.251-.147 1.27-.074h1.29l1.288.074 1.27.147 1.252.22 1.213.313 1.175.404.607-.313.853-.422.493-.22.512-.184.511-.166.493-.128.02.018.018.018h.095l.038.019h.019l.019.018.038.037.019.018.038.037.019.037.019.055.018.037v.11l-.018.037-.02.018-.018.018-.02.019-.018.018-.038.037-.02.018-.284.202-.303.184-.606.368-.304.202-.284.22-.266.239-.265.257.398.313.38.33.34.35.323.367.284.386.266.404.227.423.19.422.17.441.133.441.114.46.075.477.038.478v.478l-.038.477-.056.478-.114.441-.133.441-.17.423-.171.422-.209.423-.208.404-.455.808.36-.128.38-.092.397-.073.398-.037h.399l.19.018.189.019.19.036.189.037.19.055.189.055.265.11.304.147.284.147.133.074.113.073 1.1-.753.682-.404.74-.386.398-.165.398-.147.417-.129.417-.092.417-.055.436-.018.436.036.436.074.19.037.19.055.17.073.17.092.171.11.152.11.151.13.133.128.133.147.113.147.114.165.095.166.095.165.076.165.056.184.057.165 1.1-.643 1.156-.588 1.232-.496.626-.202.645-.165.644-.147.664-.092.663-.055h.664l.663.037.664.091.663.147.663.221 1.024-.606 1.119-.515.587-.22.607-.184.625-.184.626-.128.645-.092.644-.055.645-.019.644.037.626.092.625.128.607.184.588.257.644.258 2.18-4.153-16.928 1.82-15.071 1.616.133-.827.038-.422.019-.423-.02-.44-.037-.442-.057-.44-.095-.423-.114-.423-.132-.423-.171-.404-.19-.386-.227-.367-.246-.368-.285-.349-.322-.33-.891-.809H75.35l.89-1.856 2.73-.11zM27.94 19.87l-.341.092-.36.073-.38.074-.379.055-.758.073-.36.019h-.341l-2.9 6.1-1.574 2.995-1.725 2.921-.531.846-.607.863-1.327 1.727-1.308 1.525-1.023 1.121.587.165.588.13.588.09.587.056.588.018.588-.018.568-.055.569-.092.55-.129.55-.147.53-.183.531-.202.512-.22.493-.258.493-.276.455-.294.587-.422.55-.441.512-.478.493-.496.91-1.047.796-1.121.663-1.176.569-1.231.455-1.268.341-1.341.17-.992.115-1.03.056-1.065L29 23.765l-.113-1.047-.095-.515-.114-.496-.151-.477-.171-.478-.19-.441-.227-.441zm19.905-6.541h-.114l-.114.018-.095.019-.094.036-.285.166-.19.147-.34.294-1.252 1.286-1.175 1.323-1.119 1.378-1.042 1.415-.967 1.451-.891 1.47-.815 1.507-.74 1.525-.492 1.01-.228.588-.208.607-.095.312-.057.312-.038.313-.019.312.02.312.037.294.076.294.114.294.151.22.057.038.114.073.057.037.057.018.113.037.057.018.057.019.057.018.057.018h.057l.095.019.094.018h.19l.19-.037.189-.055.19-.092.19-.11.378-.257.38-.294.36-.33.625-.662.872-1.03.815-1.065.778-1.084.72-1.102.663-1.14.626-1.157 1.137-2.334.872-2.241.38-1.14.151-.569.209-.606.019-.496v-.258l-.02-.257-.037-.257-.038-.11-.057-.11-.057-.092-.076-.092-.038-.037-.056-.037-.114-.055-.114-.055-.114-.037-.113-.018zm12.644.312h-.076l-.038.019-.057.036-.133.092-.151.129-.341.349-.38.404-.7.79-.228.257-.057.074-.02.018-1.61 2.205-.74 1.14-.682 1.157-.626 1.176-.53 1.213-.456 1.23-.34 1.287-.134.68-.038.349-.018.349v.165l.037.33.038.166.057.166.057.165.19.294.075.073.076.074.095.055.095.037.095.037.094.018.114.018.095.019h.114l.095-.019.094-.018.095-.018.095-.037.095-.037.094-.037.095-.036.209-.092.208-.129.209-.147.208-.165.417-.368.398-.422.38-.46.36-.477.644-.92.815-1.45.759-1.452.341-.754.322-.753.285-.772.265-.753.19-.863.132-.827.057-.772-.019-.717-.019-.33-.057-.313-.057-.294-.075-.275-.095-.257-.133-.221-.133-.202-.151-.184zm20.739 1.58l-4.152 5.255.246.294.266.257.284.24.285.22.303.184.303.147.303.128.152.055.152.037.227.055.228.037.227.018.228.019h.227l.228-.019.227-.036.228-.037.208-.055.209-.074.208-.073.19-.092.19-.11.189-.129.17-.129.171-.147.095-.165.095-.184.151-.367.133-.386.133-.404.057-.331.019-.33v-.331l-.02-.331-.056-.331-.076-.312-.095-.313-.133-.294-.151-.294-.17-.275-.19-.276-.209-.257-.227-.239-.266-.22-.284-.22-.303-.185zm3.829-5.218l-2.938 3.84.34.258.323.257.303.275.285.294.246.294.228.313.208.33.19.331.17.35.152.348.133.368.094.367.076.368.057.386.057.771.17-.385.152-.368.133-.367.133-.441.132-.478.095-.478.057-.478.038-.477v-.956l-.095-.955-.151-.956-.19-.955-.398-1.856zm-5.877 4.722h-.303l-.152.019-.151.018-.152.037-.152.036-.303.11-.133.056-.132.073-.133.092-.114.092-.114.092-.17.165-.152.184-.133.184-.132.202-.114.202-.095.202-.076.22-.056.221-.057.22-.02.221-.018.22v.221l.019.22.038.221.056.22.095.221 3.11-3.895-.152-.037-.152-.018-.152-.019zM35.067 4.711l-1.024.92-1.1 1.23L31.92 8.13l-.948 1.286-.891 1.305-3.298 5.365.568.312.266.166.246.165.228.184.208.183.209.221.19.239 2.103-1.176.512-.33.493-.35.474-.367.455-.405.436-.422.398-.441.38-.46.34-.477.323-.496.303-.496.265-.515.228-.533.208-.533.171-.55.133-.552.094-.533.02-.57v-.57l-.038-.569-.076-.55-.057-.258-.152-.515-.095-.238-.113-.24-.114-.257-.152-.22-.17-.22z"/>
    </defs>
    <g fill="none" fill-rule="evenodd" transform="translate(.376 -.123)">
        <mask id="prefix__b" fill="#fff">
            <use xlink:href="#prefix__a"/>
        </mask>
        <use fill="#151A61" fill-rule="nonzero" xlink:href="#prefix__a"/>
        <g fill="#151A61" mask="url(#prefix__b)">
            <path d="M0 0H89.33V48.243H0z" transform="translate(0 -2.471)"/>
        </g>
    </g>
</svg>
