<svg xmlns="http://www.w3.org/2000/svg" width="40" height="40" viewBox="0 0 40 40">
    <path fill="#004692" fill-rule="evenodd" d="M22.791 6.334l4.894 9.884h4.364c.774 0 1.4.627 1.4 1.4 0 .06-.003.12-.011.178l-1.654 12.902c-.218 1.697-1.662 2.968-3.373 2.968H11.443c-1.707 0-3.15-1.267-3.371-2.96L6.388 17.799c-.1-.766.441-1.469 1.208-1.569.06-.008.12-.012.18-.012h4.452l4.898-9.884h5.665zm-8.678 13.007c-.719 0-1.301.582-1.301 1.3v8.455c0 .718.582 1.3 1.3 1.3.719 0 1.301-.582 1.301-1.3V20.64c0-.718-.582-1.3-1.3-1.3zm6.178 0c-.718 0-1.3.582-1.3 1.3v8.455c0 .718.582 1.3 1.3 1.3.718 0 1.3-.582 1.3-1.3V20.64c0-.718-.582-1.3-1.3-1.3zm6.178 0c-.718 0-1.3.582-1.3 1.3v8.455c0 .718.582 1.3 1.3 1.3.718 0 1.3-.582 1.3-1.3V20.64c0-.718-.582-1.3-1.3-1.3zM20.752 8.935h-1.575c-.311 0-.594.18-.725.462l-2.508 5.373c-.049.106-.075.222-.075.339 0 .442.359.8.8.8h6.652c.12 0 .237-.027.345-.079.399-.19.567-.668.377-1.066L21.474 9.39c-.133-.278-.414-.455-.722-.455z"/>
</svg>
