<svg xmlns="http://www.w3.org/2000/svg" width="35" height="40" viewBox="0 0 35 40">
    <path fill="#004692" fill-rule="evenodd" d="M20.048 6.334l4.176 9.884h3.52c.774 0 1.4.627 1.4 1.4 0 .051-.002.102-.007.153l-1.408 12.865c-.189 1.724-1.645 3.03-3.38 3.03H10.86c-1.732 0-3.188-1.302-3.38-3.024L6.05 17.773c-.086-.768.468-1.46 1.236-1.546.052-.006.103-.009.155-.009h3.595l4.18-9.884h4.833zm-7.405 13.007c-.613 0-1.11.497-1.11 1.11v8.836c0 .613.497 1.11 1.11 1.11.613 0 1.11-.497 1.11-1.11V20.45c0-.613-.497-1.11-1.11-1.11zm5.272 0c-.613 0-1.11.497-1.11 1.11v8.836c0 .613.497 1.11 1.11 1.11.613 0 1.11-.497 1.11-1.11V20.45c0-.613-.497-1.11-1.11-1.11zm5.272 0c-.613 0-1.11.497-1.11 1.11v8.836c0 .613.497 1.11 1.11 1.11.613 0 1.11-.497 1.11-1.11V20.45c0-.613-.497-1.11-1.11-1.11zM18.201 8.935h-1.13c-.327 0-.621.2-.742.504l-2.14 5.374c-.037.094-.057.194-.057.296 0 .442.359.8.8.8h5.461c.104 0 .207-.02.303-.06.409-.166.605-.633.438-1.042l-2.192-5.374c-.123-.3-.416-.498-.74-.498z"/>
</svg>
