<svg xmlns="http://www.w3.org/2000/svg" width="34" height="34" viewBox="0 0 34 34">
    <path fill="#004692" fill-rule="evenodd" d="M19.372 5.384l4.16 8.402h3.471a1.4 1.4 0 0 1 1.389 1.578l-1.319 10.285a3.4 3.4 0 0 1-3.372 2.967H10.175a3.4 3.4 0 0 1-3.372-2.96l-1.342-10.29a1.4 1.4 0 0 1 1.388-1.58h3.545l4.163-8.402h4.815zM11.996 16.44c-.61 0-1.106.495-1.106 1.105v7.186a1.106 1.106 0 0 0 2.211 0v-7.186c0-.61-.495-1.105-1.105-1.105zm5.251 0c-.61 0-1.105.495-1.105 1.105v7.186a1.106 1.106 0 0 0 2.21 0v-7.186c0-.61-.494-1.105-1.105-1.105zm5.252 0c-.61 0-1.106.495-1.106 1.105v7.186a1.106 1.106 0 0 0 2.211 0v-7.186c0-.61-.495-1.105-1.105-1.105zm-4.935-8.845h-1.187a.8.8 0 0 0-.725.462l-2.02 4.327a.8.8 0 0 0 .725 1.138h5.276a.8.8 0 0 0 .721-1.145L18.285 8.05a.8.8 0 0 0-.721-.455z"/>
</svg>
