<svg xmlns="http://www.w3.org/2000/svg" xmlns:xlink="http://www.w3.org/1999/xlink" width="26" height="26" viewBox="0 0 40 40">
    <defs>
        <path id="a" d="M20 7.018C12.83 7.018 7.018 12.83 7.018 20c0 7.17 5.812 12.982 12.982 12.982 7.17 0 12.982-5.812 12.982-12.982C32.975 12.833 27.167 7.025 20 7.018zm1.354 18.498a3.06 3.06 0 0 1-2.624-1.305l-.702 2.722a12.835 12.835 0 0 1-1.403 3.004l-.836-.288c-.15-1.09-.136-2.198.043-3.284.231-.898 1.361-5.663 1.361-5.663a4.14 4.14 0 0 1-.344-1.698c0-1.593.92-2.808 2.07-2.808a1.404 1.404 0 0 1 1.446 1.615c0 .982-.625 2.449-.947 3.81a1.663 1.663 0 0 0 1.69 2.07c2.036 0 3.594-2.147 3.594-5.242a4.52 4.52 0 0 0-4.78-4.66 4.954 4.954 0 0 0-5.164 4.969c0 .938.298 1.852.849 2.61a.344.344 0 0 1 .077.33c-.084.358-.28 1.137-.316 1.298-.035.162-.168.253-.386.155-1.403-.667-2.322-2.758-2.322-4.435 0-3.614 2.624-6.927 7.558-6.927 3.964 0 7.017 2.807 7.017 6.611.05 3.944-2.435 7.116-5.88 7.116z"/>
    </defs>
    <use fill="#BD081C" fill-rule="nonzero" xlink:href="#a"/>
</svg>
