<svg xmlns="http://www.w3.org/2000/svg" xmlns:xlink="http://www.w3.org/1999/xlink" width="26" height="26" viewBox="0 0 40 40">
    <defs>
        <path id="a" d="M20 7.5C13.096 7.5 7.5 13.096 7.5 20S13.096 32.5 20 32.5 32.5 26.904 32.5 20C32.493 13.1 26.9 7.507 20 7.5zm5.845 8.946c-.18.24-.379.467-.595.676-.48.473-.5.527-.5.919a8.858 8.858 0 0 1-.581 2.574 7.466 7.466 0 0 1-2.818 3.317 7.19 7.19 0 0 1-5.58.636 6.473 6.473 0 0 1-1.643-.757 2.52 2.52 0 0 1 .676-.068 4.79 4.79 0 0 0 2.277-.635l.46-.277-.527-.182a2.574 2.574 0 0 1-1.588-1.406c-.054-.182-.034-.189.439-.189h.493l-.412-.203a2.75 2.75 0 0 1-1.162-1.101 3.074 3.074 0 0 1-.304-1.149c.138.004.273.036.398.095.588.216.676.162.325-.196a2.48 2.48 0 0 1-.527-2.554l.142-.412.56.56a6.919 6.919 0 0 0 4.054 1.994l.426.054v-.419a2.46 2.46 0 0 1 1.628-2.453c.485-.14.997-.151 1.487-.034.255.098.498.225.723.379l.419.284.46-.149c.257-.076.508-.173.75-.29.141-.075.27-.122.27-.095a2.5 2.5 0 0 1-.581.919c-.359.385-.257.419.466.162.439-.162.452-.162.365 0z"/>
    </defs>
    <use fill="#55ACEE" fill-rule="nonzero" xlink:href="#a"/>
</svg>
