<svg xmlns="http://www.w3.org/2000/svg" xmlns:xlink="http://www.w3.org/1999/xlink" width="26" height="26" viewBox="0 0 40 40">
    <defs>
        <path id="a" d="M18.61 21.993l3.636-1.923-3.635-1.944v3.867zM20 7.018C12.83 7.018 7.018 12.83 7.018 20c0 7.17 5.812 12.982 12.982 12.982 7.17 0 12.982-5.812 12.982-12.982C32.975 12.833 27.167 7.025 20 7.018zm6.737 13.684c-.005.745-.05 1.49-.133 2.231a3.018 3.018 0 0 1-.534 1.369 1.909 1.909 0 0 1-1.347.582c-1.888.14-4.716.14-4.716.14s-3.509 0-4.582-.14a2.253 2.253 0 0 1-1.488-.59 3.018 3.018 0 0 1-.533-1.368 21.263 21.263 0 0 1-.14-2.224v-1.018c.004-.745.049-1.49.132-2.231.063-.493.246-.964.534-1.369a1.902 1.902 0 0 1 1.347-.582c1.916-.134 4.723-.134 4.723-.134s2.807 0 4.716.14c.509.007.994.217 1.347.583.288.405.471.876.533 1.369.084.74.129 1.486.134 2.231l.007 1.01z"/>
    </defs>
    <use fill="#CE1312" fill-rule="nonzero" xlink:href="#a"/>
</svg>
