<svg width="36" height="25" viewBox="0 0 36 25" fill="none" xmlns="http://www.w3.org/2000/svg">
<path d="M33.6781 12.3723L32.4087 8.2999C31.9605 6.86334 30.6484 5.8983 29.144 5.8983H27.0245V4.01217C27.0245 2.64895 25.9156 1.53977 24.5524 1.53977H21.8297V0.56243C21.8297 0.251859 21.5781 0 21.2673 0C20.9564 0 20.7049 0.251859 20.7049 0.56243V1.53984H6.32011V0.56243C6.32011 0.251859 6.06853 0 5.75768 0C5.44683 0 5.19525 0.251859 5.19525 0.56243V1.53984H2.47268C1.10946 1.53984 0 2.64902 0 4.01224V19.5342C0 20.5465 0.823289 21.3698 1.83558 21.3698H5.48824C5.75684 22.9396 7.12406 24.1393 8.76923 24.1393C10.4144 24.1393 11.7812 22.9396 12.0497 21.3698H24.9414C25.21 22.9396 26.5772 24.1393 28.2224 24.1393C29.8676 24.1393 31.2344 22.9396 31.5029 21.3698H34.1598C35.1721 21.3698 35.9954 20.5465 35.9954 19.5342V14.8291C35.9953 13.5191 34.9677 12.4544 33.6781 12.3723V12.3723ZM29.144 7.02316C30.1535 7.02316 31.0339 7.67102 31.3343 8.63466L32.4946 12.3566H28.3722C27.6291 12.3566 27.0244 11.7522 27.0244 11.0091C27.0244 10.8882 27.0244 6.87811 27.0244 7.02323H29.144V7.02316ZM8.76916 23.0144C7.55205 23.0144 6.56177 22.0244 6.56177 20.8073C6.56177 19.5905 7.55205 18.6004 8.76916 18.6004C9.98627 18.6004 10.9761 19.5904 10.9761 20.8073C10.9761 22.0244 9.98634 23.0144 8.76916 23.0144ZM28.2224 23.0144C27.0053 23.0144 26.015 22.0244 26.015 20.8073C26.015 19.5905 27.0053 18.6004 28.2224 18.6004C29.4395 18.6004 30.4293 19.5904 30.4293 20.8073C30.4292 22.0244 29.4395 23.0144 28.2224 23.0144ZM34.8704 19.5341C34.8704 19.926 34.5518 20.2449 34.1597 20.2449H31.5028C31.2343 18.6751 29.8675 17.4755 28.2223 17.4755C26.5771 17.4755 25.2099 18.6751 24.9413 20.2449H12.0497C11.7811 18.6751 10.4143 17.4755 8.76916 17.4755C7.12399 17.4755 5.75677 18.6751 5.48817 20.2449H1.83551C1.44337 20.2449 1.12479 19.926 1.12479 19.5341V4.01224C1.12479 3.26911 1.72948 2.6647 2.47261 2.6647H24.5523C25.2954 2.6647 25.8996 3.26918 25.8996 4.01224V11.0091C25.8996 12.3723 27.0091 13.4815 28.3723 13.4815C29.1865 13.4815 33.6047 13.4813 33.5225 13.4815C34.2657 13.4815 34.8704 14.086 34.8704 14.829V19.5341H34.8704Z" fill="white"/>
<path d="M6.97042 7.78416C7.28127 7.78416 7.53285 7.5323 7.53285 7.22173C7.53285 6.91116 7.28127 6.6593 6.97042 6.6593H4.53887C4.22802 6.6593 3.97644 6.91116 3.97644 7.22173V12.1611C3.97644 12.4717 4.22802 12.7235 4.53887 12.7235C4.84972 12.7235 5.1013 12.4717 5.1013 12.1611V10.2539H6.97035C7.2812 10.2539 7.53278 10.002 7.53278 9.69146C7.53278 9.38089 7.2812 9.12903 6.97035 9.12903H5.1013V7.78423H6.97042V7.78416Z" fill="white"/>
<path d="M17.483 7.78416C17.7938 7.78416 18.0454 7.5323 18.0454 7.22173C18.0454 6.91116 17.7938 6.6593 17.483 6.6593H15.051C14.7401 6.6593 14.4885 6.91116 14.4885 7.22173V12.1611C14.4885 12.4717 14.7401 12.7235 15.051 12.7235H17.483C17.7938 12.7235 18.0454 12.4717 18.0454 12.1611C18.0454 11.8505 17.7938 11.5987 17.483 11.5987H15.6134V10.2539H17.483C17.7938 10.2539 18.0454 10.002 18.0454 9.69146C18.0454 9.38089 17.7938 9.12903 17.483 9.12903H15.6134V7.78423H17.483V7.78416Z" fill="white"/>
<path d="M22.4855 7.78416C22.7963 7.78416 23.0479 7.5323 23.0479 7.22173C23.0479 6.91116 22.7963 6.6593 22.4855 6.6593H20.054C19.7432 6.6593 19.4916 6.91116 19.4916 7.22173V12.1611C19.4916 12.4717 19.7432 12.7235 20.054 12.7235H22.4855C22.7963 12.7235 23.0479 12.4717 23.0479 12.1611C23.0479 11.8505 22.7963 11.5987 22.4855 11.5987H20.6164V10.2539H22.4855C22.7963 10.2539 23.0479 10.002 23.0479 9.69146C23.0479 9.38089 22.7963 9.12903 22.4855 9.12903H20.6164V7.78423H22.4855V7.78416Z" fill="white"/>
<path d="M13.0423 8.45642C13.0423 7.46558 12.2361 6.6593 11.2452 6.6593H9.43108C9.12023 6.6593 8.86865 6.91116 8.86865 7.22173V12.1611C8.86865 12.4717 9.12023 12.7235 9.43108 12.7235C9.74193 12.7235 9.99351 12.4717 9.99351 12.1611V10.2539H10.8975L11.9768 12.4127C12.116 12.6918 12.4555 12.8022 12.7315 12.6643C13.0094 12.5253 13.122 12.1876 12.9831 11.9096L12.0546 10.0524C12.6378 9.75495 13.0423 9.1549 13.0423 8.45642V8.45642ZM9.99344 7.78416H11.2451C11.6159 7.78416 11.9174 8.08573 11.9174 8.45642C11.9174 8.82711 11.6159 9.12896 11.2451 9.12896H9.99344V7.78416Z" fill="white"/>
</svg>
