<svg xmlns="http://www.w3.org/2000/svg" xmlns:xlink="http://www.w3.org/1999/xlink" width="34" height="34" viewBox="0 0 34 34">
    <defs>
        <path id="m39xu3qvma" d="M21.183 19.073l-2.84-2.826c-.423-.42-1.07-.545-1.618-.322 0 0 0-.024-.025-.024l-1.37-1.363c2.989-3.346 2.864-8.476-.348-11.672-3.338-3.321-8.767-3.321-12.104 0-3.337 3.32-3.337 8.723 0 12.043 1.669 1.66 3.86 2.478 6.052 2.478 2.042 0 4.06-.718 5.678-2.156l1.345 1.339c-.324.57-.25 1.288.249 1.784l2.839 2.825c.299.297.672.446 1.046.446s.772-.149 1.046-.446c.647-.595.647-1.537.05-2.106zM3.625 14.19c-2.939-2.925-2.939-7.683 0-10.632 1.47-1.462 3.412-2.205 5.33-2.205 1.942 0 3.86.743 5.33 2.205 2.963 2.95 2.963 7.707.024 10.632-2.939 2.949-7.745 2.949-10.684 0zm16.86 6.294c-.199.198-.498.198-.697 0L16.95 17.66c-.2-.198-.2-.496 0-.694.1-.099.224-.149.349-.149.124 0 .249.05.348.15l2.84 2.8c.199.198.199.52 0 .718z"/>
    </defs>
    <g fill="none" fill-rule="evenodd">
        <g>
            <g>
                <g>
                    <g transform="translate(-367 -59) translate(35 56) translate(332 3) translate(6 6)">
                        <mask id="asrdyi6e6b" fill="#fff">
                            <use xlink:href="#m39xu3qvma"/>
                        </mask>
                        <use fill="#000" fill-rule="nonzero" xlink:href="#m39xu3qvma"/>
                        <g fill="#004236" mask="url(#asrdyi6e6b)">
                            <path d="M0 0H34V34H0z" transform="translate(-6 -6)"/>
                        </g>
                    </g>
                </g>
            </g>
        </g>
    </g>
</svg>
