<svg xmlns="http://www.w3.org/2000/svg" xmlns:xlink="http://www.w3.org/1999/xlink" width="40" height="40" viewBox="0 0 40 40">
    <defs>
        <path id="gka1r1iz0a" d="M30.837 12.971c-.797.363-1.654.608-2.553.717.918-.563 1.623-1.456 1.955-2.52-.86.521-1.81.9-2.825 1.104-.81-.886-1.965-1.439-3.245-1.439-2.453 0-4.444 2.042-4.444 4.559 0 .357.038.704.114 1.038-3.694-.19-6.97-2.003-9.164-4.765-.383.676-.601 1.46-.601 2.295 0 1.58.784 2.976 1.977 3.794-.727-.022-1.414-.23-2.014-.569v.056c0 2.21 1.532 4.053 3.567 4.47-.372.107-.765.16-1.171.16-.286 0-.566-.027-.837-.08.566 1.81 2.207 3.129 4.153 3.164-1.521 1.224-3.44 1.953-5.522 1.953-.358 0-.713-.021-1.06-.063 1.967 1.291 4.305 2.047 6.815 2.047 8.178 0 12.65-6.946 12.65-12.97 0-.199-.005-.397-.012-.591.868-.643 1.623-1.446 2.217-2.36"/>
    </defs>
    <g fill="none" fill-rule="evenodd">
        <g>
            <g>
                <g>
                    <g>
                        <g transform="translate(-940 -3299) translate(0 3029) translate(0 43) translate(890 203) translate(50 24)">
                            <path d="M0 0H40V40H0z"/>
                            <mask id="v5hpqq59sb" fill="#fff">
                                <use xlink:href="#gka1r1iz0a"/>
                            </mask>
                            <use fill="#00AAEC" xlink:href="#gka1r1iz0a"/>
                            <g fill="#F5ECE6" mask="url(#v5hpqq59sb)">
                                <path d="M0 0H40V40H0z"/>
                            </g>
                        </g>
                    </g>
                </g>
            </g>
        </g>
    </g>
</svg>
