<?xml version="1.0" standalone="no"?>
<!DOCTYPE svg PUBLIC "-//W3C//DTD SVG 20010904//EN"
 "http://www.w3.org/TR/2001/REC-SVG-20010904/DTD/svg10.dtd">
<svg version="1.0" xmlns="http://www.w3.org/2000/svg"
 width="198.000000pt" height="44.000000pt" viewBox="0 0 198.000000 44.000000"
 preserveAspectRatio="xMidYMid meet">
<metadata>
Created by potrace 1.14, written by Peter Selinger 2001-2017
</metadata>
<g transform="translate(0.000000,44.000000) scale(0.100000,-0.100000)"
fill="#0d63a7" stroke="none">
<path d="M135 431 c-30 -13 -53 -42 -59 -76 -5 -24 -4 -26 3 -10 9 19 10 19
10 -2 1 -15 -9 -28 -29 -38 -17 -9 -38 -31 -47 -50 -16 -33 -16 -37 0 -70 9
-19 30 -41 47 -50 20 -10 30 -23 29 -38 0 -21 -1 -21 -10 -2 -7 16 -8 14 -4
-10 15 -73 98 -104 150 -55 14 13 25 28 25 34 0 6 -5 4 -11 -4 -9 -12 -10 -12
-5 3 3 10 6 27 6 38 0 11 13 25 30 34 17 9 38 31 47 50 16 33 16 37 0 70 -9
19 -30 41 -47 50 -23 12 -30 22 -29 43 l1 27 8 -30 8 -30 1 27 c2 55 -75 109
-124 89z m-25 -147 c22 -9 40 -21 40 -27 0 -7 -4 -7 -12 1 -26 26 -38 13 -38
-38 0 -52 12 -63 40 -37 12 10 12 9 1 -5 -12 -16 -10 -18 21 -18 33 0 58 -14
58 -34 0 -5 -8 -2 -18 7 -25 23 -55 21 -77 -3 -40 -44 18 -110 69 -77 20 14
25 14 30 2 7 -20 -11 -29 -62 -30 -53 -1 -66 13 -67 70 0 24 2 40 5 35 3 -5
11 -1 17 8 9 16 7 18 -23 18 -20 0 -29 -3 -21 -8 17 -11 -1 -10 -22 2 -31 16
-46 65 -31 100 10 24 32 48 47 50 2 0 21 -7 43 -16z"/>
<path d="M800 220 c0 -112 1 -120 20 -120 17 0 19 8 22 68 2 51 6 67 18 67 11
0 18 -18 25 -65 9 -57 13 -65 33 -68 19 -3 23 0 19 15 -3 10 -8 38 -12 63 -11
76 -13 80 -51 80 -33 0 -34 1 -34 40 0 33 -3 40 -20 40 -19 0 -20 -7 -20 -120z"/>
<path d="M436 315 c-3 -9 -6 -61 -6 -116 0 -99 0 -99 25 -99 24 0 25 3 25 60
0 53 2 60 20 60 16 0 20 -7 20 -37 0 -58 10 -83 32 -83 18 0 19 5 12 73 -3 39
-9 90 -13 112 l-6 40 -51 3 c-40 2 -53 -1 -58 -13z"/>
<path d="M1095 251 c-3 -6 0 -11 8 -11 9 0 18 -23 26 -70 9 -48 17 -70 27 -70
18 0 17 -1 -2 -50 -18 -44 -13 -60 14 -44 20 13 114 247 100 252 -21 8 -36
-10 -58 -67 -12 -34 -25 -60 -27 -57 -3 3 -10 31 -17 63 -10 52 -14 58 -38 61
-14 2 -29 -2 -33 -7z"/>
<path d="M1639 221 c-35 -35 -38 -77 -9 -109 28 -30 56 -28 91 7 35 35 38 77
9 109 -28 30 -56 28 -91 -7z"/>
</g>
</svg>
