<svg xmlns="http://www.w3.org/2000/svg" xmlns:xlink="http://www.w3.org/1999/xlink" width="34" height="34" viewBox="0 0 34 34">
    <defs>
        <path id="zsnp5xs0aa" d="M22.752 10.97l-1.938 7.962c-.336 1.376-1.54 2.34-2.92 2.341H8.11c-1.381 0-2.585-.965-2.92-2.341L3.248 10.97h19.505zM3.24 19.43c.558 2.294 2.565 3.903 4.866 3.903h9.783c2.301 0 4.308-1.61 4.866-3.902l2.257-9.242c.135-.552-.192-1.112-.73-1.25-.08-.02-.162-.03-.245-.03h-4.234l-1.816-7.47c-.063-.262-.228-.488-.458-.627-.23-.14-.506-.18-.766-.114-.538.142-.862.705-.723 1.256l1.696 6.955H8.264L9.96 1.954c.138-.551-.185-1.114-.723-1.256-.26-.067-.536-.026-.766.114-.23.139-.395.365-.458.627L6.197 8.911H1.963C1.409 8.909.958 9.37.958 9.939c0 .087.01.174.031.26l2.25 9.233v-.001z"/>
    </defs>
    <g fill="none" fill-rule="evenodd">
        <g>
            <g>
                <g>
                    <g>
                        <g transform="translate(-316 -100) translate(0 74) translate(310 20) translate(6 6) translate(4 5)">
                            <mask id="0repvzhqwb" fill="#fff">
                                <use xlink:href="#zsnp5xs0aa"/>
                            </mask>
                            <g fill="#000" mask="url(#0repvzhqwb)">
                                <path d="M0 0H34V34H0z" transform="rotate(-180 15 14.5)"/>
                            </g>
                        </g>
                    </g>
                </g>
            </g>
        </g>
    </g>
</svg>
