<svg xmlns="http://www.w3.org/2000/svg" xmlns:xlink="http://www.w3.org/1999/xlink" width="18" height="20" viewBox="0 0 18 20">
    <defs>
        <path id="a" d="M9.686 6.382l7.117 3.527 3.303-1.637a1.093 1.093 0 0 0-.125-.073l-6.5-3.221c-.303-.15-.66-.15-.962 0L9.686 6.381zm-1.211.6L6.018 8.2c-.12.06-.227.14-.315.235l7.037 3.488 2.851-1.413-7.116-3.528zm5.067 14.009l6.44-3.193c.368-.181.601-.554.601-.96V9.235l-7.041 3.49v8.265zm-1.084.004v-8.011l-7.041-3.49v7.339c-.003.408.228.783.594.966l6.447 3.196zm1.506-16.979l6.5 3.222a2.146 2.146 0 0 1 1.203 1.923v7.676c0 .816-.466 1.56-1.202 1.922l-6.5 3.222a2.183 2.183 0 0 1-1.938 0L5.525 18.76a2.145 2.145 0 0 1-1.192-1.93V9.161c0-.816.467-1.56 1.202-1.922l6.5-3.223c.608-.3 1.322-.3 1.93 0z"/>
    </defs>
    <g fill="none" fill-rule="evenodd" transform="translate(-4 -3)">
        <path d="M0 0h26v26H0z"/>
        <mask id="b" fill="#fff">
            <use xlink:href="#a"/>
        </mask>
        <use fill="#0ABB76" fill-rule="nonzero" xlink:href="#a"/>
        <g fill="#AC8E54" mask="url(#b)">
            <path d="M0 0h26v26H0z"/>
        </g>
    </g>
</svg>
