<?xml version="1.0" encoding="UTF-8"?>
<svg width="43px" height="7px" viewBox="0 0 43 7" version="1.1" xmlns="http://www.w3.org/2000/svg" xmlns:xlink="http://www.w3.org/1999/xlink">
    <title>pattern</title>
    <g id="Page-1" stroke="none" stroke-width="1" fill="none" fill-rule="evenodd">
        <g id="pattern" transform="translate(0.028000, 0.000000)" fill="#FFFFFF" fill-rule="nonzero">
            <path d="M9.014,0 L0,0 L0,7 L9.014,7 L9.014,0 Z M21.33,0 L19.251,0 L19.251,7 L21.33,7 L21.33,0 Z M25.488,0 L23.408,0 L23.408,7 L25.488,7 L25.488,0 Z M29.651,0 L27.572,0 L27.572,7 L29.651,7 L29.651,0 Z M33.809,0 L31.729,0 L31.729,7 L33.809,7 L33.809,0 Z M38.051,0 L35.972,0 L35.972,7 L38.051,7 L38.051,0 Z M42.209,0 L40.129,0 L40.129,7 L42.209,7 L42.209,0 Z" id="Shape"></path>
        </g>
    </g>
</svg>