<svg xmlns="http://www.w3.org/2000/svg" xmlns:xlink="http://www.w3.org/1999/xlink" width="28" height="34" viewBox="0 0 28 28">
    <defs>
        <path id="a" d="M22.043 22.095H5.951c-.387 0-.695-.351-.672-.768l.634-10.945h3.043c-.055.301-.102.606-.132.92a1.169 1.169 0 0 0-.679 1.073c0 .644.5 1.167 1.119 1.167.618 0 1.118-.523 1.118-1.167 0-.414-.207-.775-.518-.983.034-.347.087-.682.152-1.01h8.005c.066.324.121.652.154.989a1.172 1.172 0 0 0-.558 1.004c0 .644.501 1.167 1.12 1.167.617 0 1.118-.523 1.118-1.167 0-.464-.262-.861-.637-1.05a11.01 11.01 0 0 0-.13-.943h3l.633 10.939c.023.42-.287.774-.678.774zM14.018 5.758c1.087 0 2.122.685 2.902 1.86h-5.813c.755-1.148 1.78-1.86 2.911-1.86zm9.153 3.68l-1.256-1.82h-3.768c-.989-1.853-2.499-2.951-4.129-2.951-1.672 0-3.16 1.157-4.122 2.951h-3.74L4.83 9.364l-.744 12.425c-.05.836.587 1.544 1.391 1.544h17.04c.808 0 1.447-.71 1.397-1.55L23.17 9.437z"/>
    </defs>
    <g fill="none" fill-rule="evenodd">
        <path d="M0 0h28v28H0z"/>
        <path fill="none" d="M28 28H0V0h28z"/>
        <mask id="b" fill="none">
            <use xlink:href="#a"/>
        </mask>
        <use fill="#353132" xlink:href="#a"/>
        <g fill="#353132" mask="url(#b)">
            <path d="M0 0h28v28H0z"/>
        </g>
    </g>
</svg>
