<svg width="24" height="24" viewBox="0 0 24 24" xmlns="http://www.w3.org/2000/svg" xmlns:xlink="http://www.w3.org/1999/xlink">
    <defs>
        <path d="M17.096.004c-1.696.063-3.307.81-4.503 2.09l-.594.635-.592-.635c-2.61-2.791-6.862-2.791-9.47 0-2.582 2.763-2.582 7.223 0 9.986L12 22.848 22.063 12.08C23.305 10.752 24 8.956 24 7.087c0-1.869-.695-3.664-1.937-4.993C20.813.756 19.108 0 17.328 0l-.232.004zm.232 1.496c1.36 0 2.67.58 3.639 1.619.98 1.048 1.533 2.476 1.533 3.968l-.005.235c-.054 1.407-.6 2.74-1.528 3.734L12 20.65l-8.967-9.595C.99 8.869.99 5.305 3.032 3.119 5.048.96 8.295.96 10.311 3.119L12 4.926l1.689-1.807c.97-1.039 2.278-1.619 3.639-1.619z" id="a"/>
    </defs>
    <g transform="translate(0 .75)" fill="none" fill-rule="evenodd">
        <mask id="b" fill="#fff">
            <use xlink:href="#a"/>
        </mask>
        <use fill="#979797" fill-rule="nonzero" xlink:href="#a"/>
        <g mask="url(#b)" fill="#000">
            <path d="M30 29.25H-6v-36h36z"/>
        </g>
    </g>
</svg>
