<svg xmlns="http://www.w3.org/2000/svg" xmlns:xlink="http://www.w3.org/1999/xlink" width="130" height="44" viewBox="0 0 130 44">
    <defs>
        <linearGradient id="a" x1="58.917%" x2="90.81%" y1="9.59%" y2="60.851%">
            <stop offset="0%" stop-color="#FF177B"/>
            <stop offset="100%" stop-color="#FFEC73"/>
        </linearGradient>
        <linearGradient id="c" x1="37.103%" x2="0%" y1="-44.035%" y2="101.06%">
            <stop offset="0%" stop-color="#064AA2"/>
            <stop offset="100%" stop-color="#63FFD4"/>
        </linearGradient>
        <path id="b" d="M12.195 11.142L.44 0C.164.064 0 .269 0 .614v21.32c0 .293.118.467.263.526l11.932-11.318z"/>
        <path id="e" d="M1.486 12.211L8.28 8.478l3.001-1.663 4.942-2.661-3.29-3.197-11.932 11.32c.133.042.367.019.55-.072"/>
        <linearGradient id="f" x1="78.645%" x2="2.495%" y1="50%" y2="100%">
            <stop offset="0%" stop-color="#FF4521"/>
            <stop offset="100%" stop-color="#8A33DB"/>
        </linearGradient>
        <linearGradient id="i" x1="0%" x2="64.224%" y1="-24.186%" y2="100%">
            <stop offset="0%" stop-color="#00A3B5"/>
            <stop offset="100%" stop-color="#D6FFA1"/>
        </linearGradient>
        <path id="h" d="M1.625 1.1C1.4.98 1.175.946.992.995L12.76 12.152l3.255-3.08-4.907-2.718-7.417-4.11-2.065-1.143z"/>
    </defs>
    <g fill="none" fill-rule="evenodd">
        <g>
            <rect width="129.587" height="43.868" fill="#000" rx="5"/>
            <path fill="url(#a)" d="M11.544 6.354L2.078 1.109c-.526-.29-1.05-.114-1.05.494v21.365c0 .455.375.653.832.4l9.684-5.366 1.88-1.041 3.027-1.676 4.717-2.613c.553-.307.5-.727.033-.97-.467-.24-4.75-2.63-4.75-2.63l-4.907-2.718z" transform="translate(4.264 14.705)"/>
            <g transform="translate(5.264 15.705)">
                <mask id="d" fill="#fff">
                    <use xlink:href="#b"/>
                </mask>
                <use fill="url(#c)" xlink:href="#b"/>
                <path d="M15.442 8.072l-4.914-2.72c-.017.04-8.954-4.923-9.475-5.177C.523-.155 0 .023 0 .615v21.407c0 .47.374.668.79.438.496-.276 9.721-5.399 9.738-5.44l4.914-2.719c-.026.038 4.136-2.274 4.65-2.544.592-.343.539-.765.087-.965-.482-.284-4.763-2.678-4.737-2.72" mask="url(#d)"/>
            </g>
            <g transform="translate(4.526 25.891)">
                <mask id="g" fill="#fff">
                    <use xlink:href="#e"/>
                </mask>
                <path fill="url(#f)" d="M11.267-4.835c-.018.04-8.955-4.923-9.476-5.176-.53-.33-1.053-.153-1.053.438v21.408c0 .47.374.668.79.439.497-.277 9.721-5.4 9.739-5.44l4.913-2.72c-.026.038 4.136-2.273 4.65-2.544.592-.343.54-.764.088-.965-.482-.283-4.764-2.677-4.738-2.72l-4.913-2.72z" mask="url(#g)"/>
            </g>
            <g transform="translate(4.701 14.705)">
                <mask id="j" fill="#fff">
                    <use xlink:href="#h"/>
                </mask>
                <use fill="url(#i)" xlink:href="#h"/>
                <path d="M16.005 9.072l-4.914-2.72c-.017.04-8.954-4.923-9.475-5.177-.53-.33-1.053-.152-1.053.44v21.407c0 .47.374.668.79.438.497-.276 9.721-5.399 9.738-5.44l4.914-2.719c-.026.038 4.136-2.274 4.65-2.544.592-.343.54-.765.087-.965-.482-.284-4.763-2.678-4.737-2.72" mask="url(#j)"/>
            </g>
            <g fill="#FFF">
                <path d="M30.097 10.117c0-1.89 1.51-3.106 3.386-3.106 1.258 0 2.08.559 2.593 1.243l-.919.495c-.348-.45-.958-.8-1.674-.8-1.277 0-2.225.899-2.225 2.168 0 1.25.948 2.169 2.225 2.169.658 0 1.238-.28 1.528-.54v-.927h-1.934V9.89h3.057v2.242c-.629.657-1.538 1.098-2.651 1.098-1.877 0-3.386-1.233-3.386-3.114M37.597 13.14V7.102h4.482v.933h-3.334v1.556h3.265v.932h-3.265v1.683h3.334v.932h-4.482M45.127 13.14V8.035h-1.95v-.933h5.03v.933h-1.95v5.103h-1.13M52.231 7.103h1.098v6.036H52.23zM56.468 13.14V8.035h-1.95v-.933h5.03v.933h-1.95v5.103h-1.13M63.298 10.121c0-1.794 1.38-3.11 3.339-3.11 1.947 0 3.338 1.316 3.338 3.11 0 1.794-1.391 3.11-3.338 3.11-1.959 0-3.339-1.316-3.339-3.11zm5.488-.046c0-1.23-.846-2.149-2.15-2.149-1.312 0-2.149.918-2.149 2.15 0 1.22.837 2.149 2.15 2.149 1.303 0 2.149-.928 2.149-2.15zM75.744 13.14l-3.36-4.317v4.316h-1.129V7.103h1.159l3.29 4.181V7.103h1.13v6.036h-1.09M88.755 30.608l-.971.923c-.225.124-.448.268-.671.37-.675.308-1.361.386-1.97.386-.65 0-1.667-.043-2.705-.798-1.442-1.021-2.072-2.777-2.072-4.307 0-3.168 2.564-4.722 4.655-4.722.73 0 1.482.184 2.092.573 1.015.675 1.277 1.552 1.423 2.022l-4.775 1.94-1.564.123c.506 2.597 2.253 4.108 4.183 4.108.965 0 1.68-.317 2.337-.643 0 0 .132-.069.038.025zm-2.918-5.21c.384-.143.583-.266.583-.553 0-.821-.908-1.77-1.99-1.77-.803 0-2.31.64-2.31 2.862 0 .347.041.716.062 1.086l3.655-1.625z"/>
                <path d="M78.79 30.497c0 .792.14.915.805.978.347.04.692.059 1.034.1l-.748.449h-3.569c.468-.612.549-.673.549-1.08v-.455l-.008-12.118h-1.575l1.516-.736h2.896c-.628.366-.816.589-.896 1.302l-.005 11.56"/>
                <path d="M73.253 23.46c.465.385 1.433 1.202 1.433 2.75 0 1.51-.844 2.22-1.695 2.894-.261.265-.567.553-.567.997 0 .451.306.696.526.878l.73.569c.888.755 1.697 1.448 1.697 2.855 0 1.917-1.84 3.85-5.318 3.85-2.929 0-4.345-1.407-4.345-2.915 0-.733.363-1.773 1.558-2.485 1.253-.772 2.951-.875 3.86-.936-.284-.37-.608-.757-.608-1.388 0-.346.103-.552.203-.794-.221.02-.444.042-.647.042-2.143 0-3.355-1.612-3.355-3.2 0-.938.424-1.978 1.295-2.732 1.152-.956 2.526-1.121 3.618-1.121h4.166l-1.295.736h-1.256zm-1.422 9.024c-.167-.022-.267-.022-.469-.022-.185 0-1.286.04-2.138.332-.451.168-1.755.664-1.755 2.138 0 1.47 1.408 2.531 3.585 2.531 1.957 0 2.995-.955 2.995-2.24 0-1.058-.672-1.616-2.218-2.739zm.572-3.925c.465-.469.506-1.116.506-1.484 0-1.461-.863-3.737-2.536-3.737-.522 0-1.088.264-1.409.673-.34.423-.442.972-.442 1.5 0 1.36.786 3.617 2.515 3.617a2.05 2.05 0 0 0 1.366-.569zM60.655 32.287c-3.22 0-4.943-2.54-4.943-4.84 0-2.687 2.166-4.987 5.247-4.987 2.978 0 4.843 2.362 4.843 4.842 0 2.422-1.843 4.985-5.147 4.985zm2.518-1.661c.492-.659.611-1.481.611-2.282 0-1.813-.853-5.27-3.374-5.27-.67 0-1.345.266-1.832.699-.794.72-.935 1.625-.935 2.513 0 2.033.992 5.387 3.456 5.387.795 0 1.606-.39 2.074-1.047zM49.863 32.287c-3.222 0-4.942-2.54-4.942-4.84 0-2.687 2.167-4.987 5.248-4.987 2.977 0 4.841 2.362 4.841 4.842 0 2.422-1.841 4.985-5.147 4.985zm2.52-1.661c.488-.659.61-1.481.61-2.282 0-1.813-.856-5.27-3.376-5.27-.673 0-1.341.266-1.83.699-.795.72-.936 1.625-.936 2.513 0 2.033.997 5.387 3.458 5.387.794 0 1.604-.39 2.074-1.047zM43.585 31.68l-2.727.628c-1.105.176-2.098.33-3.148.33-5.261 0-7.266-3.897-7.266-6.947 0-3.725 2.84-7.179 7.704-7.179 1.03 0 2.02.153 2.921.4 1.43.404 2.098.902 2.516 1.194l-1.584 1.515-.668.15.476-.764c-.645-.634-1.83-1.804-4.081-1.804-3.01 0-5.28 2.302-5.28 5.662 0 3.61 2.593 7.005 6.75 7.005 1.22 0 1.85-.247 2.42-.477v-3.095l-2.88.156 1.527-.825h4.042l-.495.479c-.133.114-.151.153-.188.306-.02.174-.039.73-.039.926v2.34M94.641 30.702v5.182h-1.027V22.699h1.027V24.2c.669-.97 1.891-1.74 3.31-1.74 2.547 0 4.261 1.936 4.261 5 0 3.045-1.714 5.02-4.26 5.02-1.34 0-2.541-.692-3.31-1.778zm6.519-3.162c0-2.334-1.206-4.114-3.344-4.114-1.327 0-2.597 1.052-3.149 1.97v4.266c.552.92 1.822 2.01 3.15 2.01 2.137 0 3.343-1.795 3.343-4.132zM103.616 19.039h1.053v13.248h-1.053zM116.115 34.972c.22.098.595.158.832.158.628 0 1.066-.257 1.458-1.167l.75-1.7-4.045-9.627h1.145l3.47 8.342 3.435-8.342h1.162l-4.933 11.646c-.512 1.2-1.317 1.778-2.424 1.778-.332 0-.77-.06-1.026-.139l.176-.95M113.218 32.274a17.852 17.852 0 0 1-.16-.871 5.856 5.856 0 0 1-.049-.749c-.354.521-.855.955-1.496 1.296-.641.344-1.25.512-2.086.512-1.006 0-1.787-.248-2.344-.75-.555-.503-.835-1.184-.835-2.046 0-.86.405-1.558 1.212-2.092.807-.537 1.85-.804 3.14-.804h2.41v-1.192c0-.687-.234-1.227-.7-1.619-.469-.392-1.126-.59-1.978-.59-.778 0-1.41.18-1.89.534-.477.36-.718.806-.718 1.344h-1.056l-.022-.052c-.038-.725.293-1.36.996-1.91.7-.549 1.618-.825 2.748-.825 1.126 0 2.037.272 2.723.814.686.537 1.03 1.312 1.03 2.326v4.734c0 .34.017.67.06.99.043.32.112.64.205.95h-1.19zm-3.666-.689c.876 0 1.506-.197 2.15-.588.639-.388 1.074-.895 1.302-1.508v-1.852h-2.418c-.923 0-1.688.206-2.29.621-.602.415-.907.916-.907 1.5 0 .55.193.99.578 1.323.385.337.912.504 1.585.504z"/>
            </g>
        </g>
    </g>
</svg>
