<svg xmlns="http://www.w3.org/2000/svg" width="160" height="94" viewBox="0 0 160 94">
    <g fill="none" fill-rule="evenodd">
        <g fill-rule="nonzero">
            <path fill="#4E3228" d="M11.579 77.926H.463V23.853H9.38c4.284 0 7.179 1.158 9.032 3.473 1.736 2.316 2.547 5.79 2.547 11.232 0 5.905-.695 8.916-2.432 10.884l-.694.695c1.39.926 2.2 2.084 2.779 3.705.81 1.853 1.157 4.284 1.157 8.684 0 7.18-.81 10.421-3.01 12.853-1.737 1.621-4.284 2.547-7.18 2.547zM.926 77.463H11.58c2.779 0 5.21-.81 6.832-2.431 2.2-2.2 2.894-5.443 2.894-12.506 0-4.284-.347-6.6-1.158-8.452-.694-1.621-1.505-2.663-2.894-3.706l-.232-.231.232-.232c.231-.231.579-.463.81-.81 1.737-1.969 2.316-4.748 2.316-10.653 0-5.326-.695-8.8-2.432-11-1.736-2.316-4.4-3.358-8.568-3.358H.926v53.38zm9.958-7.063H8.568V53.958h1.506c2.315 0 3.358.347 3.358 6.831v4.169c0 5.21-.927 5.442-2.548 5.442zm-1.852-.463h1.852c1.274 0 2.084 0 2.084-4.748v-4.168c0-6.368-.926-6.368-2.894-6.368H9.032v15.284zm1.273-23.042H8.568V31.61h1.274c2.2 0 2.895.463 2.895 5.442v5.21c.116 4.632-1.621 4.632-2.432 4.632zm-1.273-.463h1.273c.81 0 2.084 0 2.084-4.053v-5.21c0-4.98-.81-4.98-2.431-4.98h-.81v14.243h-.116zm93.79 31.494H82.788V23.853h19.222v8.105H91.242v14.126h9.263v8.105h-9.263v15.632h11.463v8.105h.116zm-19.454-.463h19.106v-7.179H91.01V53.726h9.147v-7.179h-9.263V31.495h10.768v-7.18H83.368v53.148zm65.306.463h-9.263v-22.81l-8.453-31.263h8.684l4.284 17.484 3.821-17.484h8.916L148.558 55v22.926h.116zm-8.8-.463h8.337V54.884l7.873-30.568h-7.873l-4.169 19.105-4.631-19.105h-7.758L139.873 55v22.463zM43.768 24.084v-.231H32.884l-7.063 53.842v.231h8.221l1.621-13.894h5.326l1.622 13.894h8.22l-7.063-53.842zm-2.315 39.6h-6.137L33.695 77.58H26.4l6.947-53.147h9.958l6.948 53.147h-7.18l-1.62-13.895zm-3.01-29.642h-.232l-2.2 22.926h4.631l-2.2-22.926zm-.117 2.663l1.737 19.684h-3.59l1.853-19.684zm31.61 11.463l8.57-24.315H69.82L64.263 40.41V23.853h-8.452v54.073h8.452V57.432L70.4 77.926h8.684l-9.147-29.758zm-5.904 6.948H63.8v22.347h-7.526V24.316H63.8v18.179h.232l6.136-18.18h7.643l-8.337 23.738v.115l8.915 29.295h-7.757l-6.6-22.347zm67.157 22.81h-8.452l-5.674-22.579h-.463v22.58h-8.568V23.852h10.42c4.98 0 10.77 2.315 10.77 13.315v5.21c0 5.327-1.275 8.454-4.285 10.654l6.252 24.894zm-8.105-.463h7.527L124.474 52.8l.115-.116c3.011-2.084 4.169-5.095 4.169-10.305v-5.21c0-5.906-1.737-12.853-10.305-12.853h-9.958v53.147h7.642V54.884h1.39l5.557 22.58zm-6.252-29.758h-.81V31.611h.81c2.2 0 2.894.463 3.357 1.042.58.926.811 2.547.811 5.673v2.432c0 3.126-.232 4.863-.81 5.674-.464.81-1.158 1.273-3.358 1.273zm-.232-.579h.232c1.968 0 2.663-.347 3.01-.81.58-.81.81-2.432.81-5.442v-2.432c0-3.01-.23-4.631-.81-5.442-.347-.579-.926-.81-3.01-.81h-.232v14.936z"/>
            <path fill="#C1D39E" d="M19.337 54.421c-.81-1.968-1.737-3.01-4.053-4.168 1.158-.58 1.621-1.042 2.2-1.621 1.505-1.737 2.084-4.516 2.084-10.074 0-9.958-2.547-13.432-10.19-13.432H1.738v51.41h9.842c2.547 0 4.747-.81 6.137-2.2 1.968-1.968 2.663-4.862 2.663-11.81 0-3.937-.232-6.368-1.042-8.105zM7.757 30.8h2.2c3.011 0 3.822 1.39 3.822 6.368v5.21c0 3.706-1.042 5.443-3.358 5.443H7.874V30.8h-.116zm6.6 34.274c0 4.747-.81 6.137-3.473 6.137H7.758V53.147h2.431c3.358 0 4.169 1.506 4.169 7.758v4.169zm87.19 6.02v5.443H84.18v-51.41h16.558v5.441H89.968v16.906h9.264v5.442h-9.264V71.21h11.58v-.116zm53.495-45.968L147.4 54.768v21.885h-6.6V54.884l-7.99-29.758h5.906l5.21 21.306h.348l4.747-21.306h6.021zm-112.547 0h-8.453l-6.716 51.41h5.558l1.621-13.894h7.758l1.621 13.895h5.442l-6.831-51.41zm-7.527 32.537l2.78-25.82h.926l2.779 25.82h-6.485zm28.948-5.558h-1.042v24.548h-5.79V25.126h5.79v20.032h1.042l6.831-20.032h5.79l-8.105 23.042 8.684 28.485H71.21l-7.295-24.548zm59.631.348c3.242-2.085 4.4-4.748 4.4-10.074v-5.21c0-7.99-3.242-12.043-9.494-12.043h-9.148v51.41h5.906V53.959h2.894l5.674 22.579h5.79l-6.022-24.084zm-1.62-11.58c0 6.37-.927 7.643-5.095 7.643h-1.621V30.8h1.62c4.169 0 5.095 1.39 5.095 7.642v2.432z"/>
            <path fill="#4E3227" d="M125.053 1.274c-4.4 0-7.874 3.242-7.758 8.105.116 4.979 4.516 8.221 8.8 8.105 4.631-.116 7.758-3.473 7.758-7.99 0-4.515-4.053-8.22-8.8-8.22zm-5.674 12.852l2.432-2.431c0 .116.115.347.231.463l-2.316 2.316c-.115-.232-.231-.232-.347-.348zm-1.158-7.99l3.937-3.936c.347-.116.579-.232.926-.347l-5.21 5.21c.115-.347.231-.579.347-.926zm-.463 1.275l5.674-5.674c.231 0 .463-.116.694-.116l-6.484 6.484c.116-.116.116-.463.116-.694zm-.116 1.968L125.4 1.62h.579l-2.2 2.2c-.926.347-1.505.926-1.853 1.853l-4.168 4.168c-.116 0-.116-.231-.116-.463zm7.874 4.516c-1.505 0-2.084-.348-2.316-.81-.347-.58-.695-2.2-.463-4.4.347-3.243 1.62-3.822 2.431-3.938.81-.115 1.737 0 2.316.348.232.231 1.042 1.273 1.042 3.82 0 2.664-1.042 4.98-3.01 4.98zm3.126-7.18l2.432-2.43c.115.115.231.23.231.347l-2.547 2.547c-.116-.116-.116-.347-.116-.463zm-.116-.23c0-.117-.115-.348-.115-.464l2.2-2.2.347.347-2.432 2.316zm-.231-.696c-.116-.115-.116-.231-.232-.463l1.969-1.968.347.347-2.084 2.084zm-.232-.694c-.116-.116-.116-.232-.231-.348l1.852-1.852c.116.116.232.116.348.231l-1.969 1.969zm-.463-.463l-.347-.348 1.736-1.737c.116.116.232.116.348.232L127.6 4.632zm-.463-.464c-.116-.115-.232-.115-.348-.231l1.737-1.737c.116.116.232.116.463.232l-1.852 1.736zm-.58-.231c-.115 0-.346-.116-.462-.116l1.737-1.737c.115 0 .347.116.463.116l-1.737 1.737zm-.81-.232h-.579l1.853-1.852c.116 0 .347.115.463.115l-1.737 1.737zm-.81 0c-.232 0-.463 0-.695.116l2.084-2.084c.232 0 .348 0 .58.116l-1.97 1.852zm-3.242 2.548c-.116.231-.116.463-.232.81l-3.705 3.705c0-.115-.116-.347-.116-.579l4.053-3.936zm-.232 1.158c0 .231 0 .463-.116.694l-3.473 3.474c0-.116-.116-.347-.116-.463l3.705-3.705zm-.116 1.042v.579l-3.126 3.126c-.116-.116-.116-.347-.116-.463l3.242-3.242zm.116.81v.58l-2.895 2.894c-.115-.116-.115-.232-.231-.463l3.126-3.01zm0 .926c0 .232 0 .348.116.58l-2.663 2.663c-.116-.116-.116-.232-.232-.348l2.78-2.895zm.116.695c0 .116.116.348.116.463l-2.432 2.548c-.116-.116-.231-.232-.231-.348l2.547-2.663zm.463 1.39c.116.115.116.231.232.347l-2.2 2.2-.348-.347 2.316-2.2zm.347.579c.116.115.232.231.232.347l-2.084 2.084c-.116-.116-.232-.116-.348-.231l2.2-2.2zm.464.463c.115.116.231.231.347.231l-1.968 1.969c-.116-.116-.232-.116-.348-.232l1.969-1.968zm.463.347c.116.116.231.116.347.232l-1.968 1.968c-.116-.116-.232-.116-.463-.231l2.084-1.969zm.695.348c.115.115.347.115.463.115l-1.969 1.969c-.116 0-.347-.116-.463-.116l1.969-1.968zm.694.231h.58l-2.085 2.084c-.116 0-.347-.115-.463-.115l1.968-1.969zm.927 0c.231 0 .579-.116.81-.116l-2.316 2.316c-.231 0-.347 0-.579-.116l2.085-2.084zm2.894-3.01l3.821-3.821c0 .231.116.347.116.578l-4.168 4.169c.116-.232.231-.58.231-.926zm.116-.348c0-.231.116-.463.116-.695l3.474-3.473c0 .116.115.347.115.463l-3.705 3.705zm.116-1.042v-.695l3.126-3.126c0 .116.116.347.116.463l-3.242 3.358zm.116-.926v-.58l2.894-2.894c.116.116.116.232.232.463l-3.126 3.01zm-.116-.927v-.578l2.663-2.664c.116.116.116.232.232.348l-2.895 2.894zm-3.59-6.368l-7.526 7.526v-.579l6.832-6.831h.231c.232-.116.348-.116.463-.116zm-3.59.926l-3.125 3.127a6.311 6.311 0 0 1 3.126-3.127zm2.664 13.895l2.663-2.663c.348-.232.695-.579.927-.926l4.631-4.632V8.8l-7.642 7.642H124.242zm7.874-4.516l-3.937 3.937a2.181 2.181 0 0 1-.926.232L132.347 11c0 .347-.115.695-.231.926zm.347-1.158l-5.558 5.558c-.231 0-.463.116-.694.116l6.368-6.368c-.116.231-.116.463-.116.694zm.116-1.273v.231l-6.716 6.716h-.695l7.41-7.41v.463zm-3.821 6.137L132 12.389c-.695 1.39-1.737 2.548-3.242 3.243zm27.79-14.01l-.232-.233c-.116 0-.232-.115-.232-.115h-6.137c-.115 0-.115 0-.115.115v2.548s.579.579.81.695l.232.231h.694c.116 0 .116 0 .116.116v4.516l-1.39-2.2-2.662-4.4-1.506-1.158-.347-.232h-6.137c-.116 0-.116 0-.116.116v2.547s.58.58.81.58l.232.23h.927c.116 0 .116 0 .116.117v8.452c0 .116 0 .232-.116.232h-1.621c-.116 0-.232 0-.232.232V16.558c0 .116.695.81.81.81h6.6c.232 0 .232 0 .232-.115V14.82c0-.116-.116-.116-.116-.232 0 0-.694-.81-.81-.81h-1.042c-.116 0-.116 0-.116-.116V7.99c0-.231.116-.115.116 0 .116.116 4.979 8.685 4.979 8.685l.579.463.463.347h3.59c.23 0 .23 0 .23-.231V5.326c0-.231 0-.231.117-.231h1.737c.115 0 .115 0 .115-.116V2.316c0-.116-.347-.463-.579-.695zM154 15.167l-.926.927h-.58l1.622-1.621v.694H154zm0-1.852l-2.779 2.779h-.579L154 12.737v.579zm0-4.516l-2.084 2.084v-.579l2.084-2.2V8.8zm0-.926l-2.084 2.084v-.695L154 7.18v.695zm-2.895 2.779l-2.316 2.315c-.115-.115-.115-.231-.231-.347l2.316-2.316c.115.116.231.232.231.348zm.116.231c.116.116.116.232.232.348l-2.316 2.315c-.116-.115-.116-.231-.232-.347l2.316-2.316zm.347.58c.116.115.116.115.116.23.116.232.232 0 .232-.115v-.463L154 9.032v.579l-4.516 4.515c-.116-.115-.116-.231-.231-.347l2.315-2.316zM154 9.957v.579l-4.168 4.168c-.116-.116-.116-.231-.232-.347l4.4-4.4zm0 .926v.58l-3.937 3.936c-.116-.116-.116-.232-.231-.347L154 10.884zm0 .927v.578l-3.59 3.59s-.115-.232-.231-.347L154 11.81zm0-5.79l-2.084 2.084v-.579L154 5.442v.58zm-2.2-2.316h-.579l1.968-1.968h.58L151.8 3.705zm2.316-1.968h.579L152.032 4.4v-.579-.116l2.084-1.968zm1.852.116V2.2l-1.505 1.505h-.347c-.116 0-.116 0-.116.116v.232l-2.084 2.084v-.58l3.937-3.936c.115.116.115.116.115.232zm-3.936 3.473v-.579l3.01-3.01h.58l-3.59 3.59zm0 1.853V6.6l2.084-2.084v.579l-2.084 2.084zm2.663-3.358l1.273-1.274v.58l-.694.578h-.58v.116zm-4.516-.347v-.58l1.158-1.157h.579l-1.737 1.737zm.116-1.737h.81l-.926.926v-.695c0-.231 0-.231.116-.231zm0 1.968l1.968-1.968h.58l-1.97 1.968h-.578zm1.737 4.632l2.084-2.084v.694l-2.084 2.085v-.695zm-3.59 4.168c-.116-.116-.116-.231-.231-.347l2.315-2.316c.116.116.116.232.232.347l-2.316 2.316zm-8.568 3.59c-.116 0-.116 0 0 0l4.052-4.284v.578l-3.59 3.59h-.462v.116zm1.852-12.274h-.579l2.085-2.084h.579l-2.085 2.084zm2.316-2.084h.58l-2.896 2.895v-.58l2.316-2.315zm-2.2 10.42l2.084-2.083v.579l-2.2 2.084v-.58h.116zm2.084-2.43l-2.084 2.084v-.58l2.084-2.084v.58zm0-3.706l-2.084 2.084v-.579l2.084-2.084v.58zm-2.084 2.432l2.084-2.085v.58l-2.084 2.084v-.58zm0 .926l2.084-2.084v.579l-2.084 2.084v-.58zm3.126-3.01l2.2-2.2c.116.115.116.231.232.347l-2.2 2.2c-.116-.116-.232-.232-.232-.348zm-.115-.232c-.116-.116-.116-.232-.232-.348l2.2-2.2c.116.116.116.232.232.348l-2.2 2.2zm-.348-.58c0-.115-.116-.115-.116-.115 0-.116-.115-.116-.115-.231l2.2-2.2c.115.115.115.231.231.347l-2.2 2.2zm-2.663 1.738v-.58l4.284-4.283c.116.115.116.231.232.347l-4.516 4.516zm0-.927V5.79l3.937-3.936c0 .115.116.231.232.347l-4.169 4.168zm0-.926v-.579l3.126-3.126h.58l-3.706 3.705zm0 7.642l2.2-2.084v.579l-2.2 2.2v-.695zm2.084-.347v.579l-2.779 2.779h-.579l3.358-3.358zm0 .926v.232c0 .116 0 .116.116.116h.232l-2.085 2.084h-.578l2.315-2.432zm0-4.863l-2.084 2.084v-.579l2.084-2.2V8.8zm3.59-4.168c.116.115.116.231.231.347l-2.2 2.2c-.115-.116-.115-.232-.231-.347l2.2-2.2zm.347.579c.116.115.116.231.232.347l-2.2 2.2c-.116-.116-.116-.232-.232-.347l2.2-2.2zm.348.578c.115.116.115.232.231.348l-2.316 2.316c-.115-.116-.115-.232-.231-.348l2.316-2.316zm.347.58c.116.115.116.231.231.347l-2.315 2.316c-.116-.116-.116-.232-.232-.348l2.316-2.316zm.347.578c.116.116.116.232.232.348L146.82 9.61c-.116-.116-.116-.232-.232-.348l2.316-2.316zm.348.58c.115.115.115.23.231.347l-2.316 2.315c-.115-.115-.115-.231-.231-.347l2.316-2.316zm.347.578c.116.116.116.232.232.348l-2.316 2.315c-.116-.115-.116-.231-.232-.347l2.316-2.316zm.347.463c.116.116.116.232.232.348l-2.316 2.316c-.116-.116-.116-.232-.231-.348l2.315-2.316zm.348.58c.116.115.116.23.231.347l-2.315 2.316c-.116-.116-.116-.232-.232-.348l2.316-2.316zm-10.537-5.443v-.463l1.62-1.62h.58l-2.084 2.083c0 .116-.116 0-.116 0zm0-.81v-.58l.695-.694h.579l-1.274 1.274zm.116-1.158h.347l-.347.347c-.116-.116-.116-.231 0-.347-.116 0-.116 0 0 0zm.347 2.084l2.084-2.084h.58L140.8 3.82H140.221zm1.274 10.19l-1.737 1.736v-.694l1.158-1.158h.579v.116zm-1.621 0h.81l-.81.81v-.81c-.116 0-.116 0 0 0zm6.02 1.968l-.115.116h-.579l.695-.695v.579zm-1.041.116h-.58l1.622-1.621v.579l-1.042 1.042zm1.042-2.084l-1.969 2.084h-.579l2.085-2.084h.463zm-.695 0l-2.084 2.084h-.695l2.084-2.084h.695zm8.8-.464v.58l-1.853 1.852h-.579L154 13.547zm-.116 2.548h-.579L154 15.4v.463c0 .232 0 .232-.116.232zm1.969-12.274h-.232l.347-.347v.231c0 .116 0 .116-.115.116zm-45.39-2.316s-.116-.116-.347-.116h-7.527c-.231 0-.231 0-.231.232v2.432l.231.231.58.58c.115.115.115.115.231.115h.81c.116 0 .116 0 .116.116v2.2c0 .116 0 .116-.231.116h-4.401c-.115 0-.115 0-.115-.116v-2.2c0-.116 0-.116.116-.116h1.737s.115 0 .115-.116V3.59c0-.463.116-1.042 0-1.157 0-.116-.115-.116-.115-.116l-.695-.695s-.116-.116-.232-.116h-7.642a.249.249 0 0 0-.231.232v2.316c0 .115.115.115.115.231.116.116.695.695.81.695h.811s.116 0 .116.116v8.452c0 .116 0 .116-.116.116h-1.505c-.116 0-.231 0-.231.116v2.547c0 .116.115.116.115.232.116.116.58.579.695.579h7.643c.115 0 .23 0 .23-.232v-2.431c0-.116-.81-.81-.926-.81h-.926c-.116 0-.116 0-.116-.117V11c0-.116 0-.116.116-.116h4.4c.116 0 .116 0 .116.116v2.547c0 .116 0 .116-.232.116h-1.62c-.116 0-.232 0-.232.116v2.432c0 .115.116.115.116.231l.231.232.116.115.116.116c.115.116.231.232.347.232H110.58c.232 0 .232 0 .232-.116V14.59c0-.115-.695-.694-.695-.81-.116-.116-.232-.116-.232-.116h-.926c-.116 0-.116 0-.116-.116V5.095c0-.232 0-.232.116-.232h1.737s.116 0 .116-.116V3.705c0-.463.115-1.273 0-1.273.347-.116-.348-.927-.348-.927zm-5.905 8.337h-.347l3.705-3.705v.579l-3.242 3.242v-.116h-.116zm3.358-.347l-3.242 3.242v-.58l3.242-3.241v.579zm-3.242 1.737l3.242-3.243v.58l-3.242 3.242v-.58zm3.242-3.474L104.674 11v-.579l3.242-3.242v.579zm-3.242 5.326l3.242-3.242v.58l-3.242 3.241v-.579zm3.242.116l-2.78 2.779h-.578l3.474-3.474v.695h-.116zm0 .232v.463c0 .116 0 .116.116.116l-1.969 1.968h-.695l2.548-2.547zm.347.579h.58l-1.97 1.968h-.578l1.968-1.968zm-.347-8.106l-3.937 3.937h-.579l4.632-4.631v.694h-.116zm-4.863 3.937h-.58l2.2-2.2 3.243-3.242v.579l-4.863 4.863zm1.505-6.02h-.58l2.201-2.2h.579l-2.2 2.2zm2.431-2.085h.58l-2.895 2.895v-.58l2.315-2.315zm-2.315 4.052l4.052-4.052h.58l-4.748 4.747V5.79h.116zm0-.231v-.58l3.242-3.241h.579l-3.821 3.82zm3.82-1.737L110 2.316v.579l-.926.926h-.58zM110 1.737v.231l-1.853 1.853h-.115c-.116 0-.116 0-.116.116v.116l-3.242 3.242v-.58l4.979-4.978H110c-.116 0 0 0 0 0zm-7.295 2.084V3.358l1.621-1.621h.58l-2.2 2.084zm0-1.505l.695-.695h.579l-1.274 1.274v-.58zm0-.58h.348l-.348.348v-.347zm.348 2.085l2.2-2.2h.579l-2.2 2.2h-.58zm1.273 3.821l-2.2 2.2h-.579l2.2-2.2h.58zm-5.905 5.905L95.99 15.98h-.578l3.01-3.01v.578zm0 .348c0 .116 0 .116.116.116h.347l-1.968 1.968h-.58l2.085-2.084zm0-1.158l-3.358 3.358h-.579l3.937-3.937v.579zm-5.21 1.737l.463-.463h.579l-1.158 1.157v-.694h.116zm3.705-12.737h.579l-2.548 2.547v-.231c0-.116 0-.116-.115-.116h-.116l2.2-2.2zM94.484 3.82h-.579l2.2-2.2h.58l-2.2 2.2zm5.905-.347l-.463.463h-.579l1.042-1.042v.579zm-1.968 3.705l-3.358 3.358v-.58L98.421 6.6v.579zm-3.358 3.705l3.358-3.358v.116c0 .116 0 .116.116.116h.347l-3.82 3.82v-.694zm3.358-4.631L95.063 9.61v-.58l3.358-3.357v.579zM95.063 8.8v-.695l3.358-3.358v.58L95.063 8.8zm4.053-4.979h-.463c-.116 0-.116 0-.116.116V4.4l-3.358 3.358v-.58l5.326-5.325v.579l-1.39 1.39zm-4.053 3.126v-.579l4.632-4.631h.579l-5.21 5.21zm0-.926v-.579l3.705-3.705h.58L95.062 6.02zm0-.926v-.58l2.78-2.778h.578l-3.358 3.358zm-1.852 10.768V15.4l1.389-1.39h.347c.116 0 .116 0 .116-.115v-.232l3.358-3.358v.58l-5.095 5.094c-.115 0-.115 0-.115-.116zm5.557-6.02l2.2-2.2h.58l-2.2 2.2h-.58zm-.347 1.273v.579l-4.284 4.284h-.58l4.864-4.863zm2.779-1.274h-.579l2.2-2.2h.579l-2.2 2.2zm1.274-2.2l-2.2 2.2h-.58l2.2-2.2h.58zm-1.737 0l-2.2 2.2s-.116 0-.116.116l-3.358 3.358v-.58l4.98-4.978h.694v-.116zm-.926 0l-4.748 4.747v-.578l4.169-4.169h.579zm.578-3.82l.116-.117-.116.116zm-7.178-1.159l.926-.926h.579l-1.621 1.62v-.694h.116zm.115-.926h.58l-.695.695.115-.695c-.115 0-.115 0 0 0zm-.115 1.968V3.59l1.852-1.852h.58l-2.2 2.2-.232-.232c0 .116 0 .116 0 0zm.115 10.306l-.115.231.115-.231c-.115 0-.115 0 0 0zm7.063 1.157l-.81.81H99l1.39-1.389v.58zm-.115.81h-.348l.463-.462v.347c0 .116 0 .116-.115.116zm.115-1.852v.232l-1.736 1.737h-.58l1.97-1.969h.346c0-.115 0-.115 0 0zm-.578-.115l-1.969 1.968h-.579l1.969-1.968h.579zm4.515 0l-1.737 1.736v-.694l1.043-1.042h.694zm-1.62 0h.694l-.81.81.115-.81zm0 1.968l5.21-5.21v.578l-4.632 4.632h-.579zm5.21-4.284v.579l-3.705 3.705h-.58l4.285-4.284zm1.968 2.547v.58l-1.042 1.041h-.579l1.621-1.62zm-.231 1.737h-.695l.81-.81v.578c.116.232.116.232-.115.232zm.231-1.968l-1.968 1.968h-.58l1.97-1.968h.578c-.116 0-.116 0 0 0zm0-10.19h-.463l.579-.579v.463c0 .116 0 .116-.116.116zM64.147 2.2s-.579-.695-.81-.81c-.232-.232-.232-.116-.58-.116h-6.02c-.116 0-.116 0-.116.115v2.78s.232.231.463.347c.232.116.463.347.463.347h.81c.117 0 .117 0 .117.116v6.137c0 .81-.116 3.01-2.548 3.01-2.431 0-2.547-2.084-2.547-3.358v-5.79c0-.23 0-.23.232-.23h1.62c.116 0 .116 0 .116-.116V2.316s-.231-.348-.463-.58c-.231-.23-.463-.578-.463-.578h-7.758c-.116 0-.116 0-.116.116v2.663s.116.116.464.347c.231.232.463.348.578.348h1.043c.115 0 .115 0 .115.115v6.832c0 1.505.232 2.895 1.39 3.937 1.852 1.852 3.705 1.852 6.137 1.852 2.431 0 6.137-1.273 6.137-5.673V4.863c0-.116 0-.116.115-.116h1.737c.116 0 .116 0 .116-.115V2.2h-.232zm-3.473-.579h.579L58.82 4.053v-.348c0-.116 0-.116-.116-.116h-.116l2.085-1.968zm-2.316 2.084h-.58l2.085-2.084h.58l-2.085 2.084zm4.516 0h-.58l.811-.81v.579l-.231.231zm-1.737 4.516l-2.316 2.2v-.579l2.2-2.2c.116.116.116.347.116.58zM58.82 9.495v-.58l2.2-2.2v.58l-2.2 2.2zm0-2.432l2.2-2.2v.58l-2.2 2.2v-.58zm0 3.705l2.2-2.2v.58l-2.316 2.315c.116-.231.116-.463.116-.695zm2.316-4.4l-2.2 2.2V7.99l2.2-2.2v.58zm.81-2.663h-.579l1.737-1.737v.58l-1.158 1.157zm-.81.81l-2.2 2.2v-.578l2.2-2.2v.579zM58.82 4.4L61.6 1.621h.579L58.82 4.98V4.4zm0 7.295l2.316-2.316v.579l-2.432 2.431c0-.115 0-.463.116-.694zm2.2 1.158l-3.474 3.473c-.231.116-.579.116-.81.232l4.284-4.284v.579zM62.99 1.62l-4.168 4.284v-.579l3.705-3.705h.463zm-6.02.926l.926-.926h.579l-1.621 1.621v-.695h.115zm.115-.926h.58l-.696.695.116-.695c-.116 0-.116 0 0 0zm-.116 1.968l1.853-1.968h.579l-2.084 2.084-.348-.116c0 .116 0 .116 0 0zm0 10.537l-2.431 2.432h-.58l2.2-2.2c.348-.116.58-.116.811-.232zm-1.157.232l-2.2 2.2c-.232 0-.348 0-.58-.116l2.085-2.084H55.81zm-2.895 1.968c-.116 0-.348-.115-.463-.115l1.968-1.969c.116 0 .347.116.579.116l-2.084 1.968zm1.273-2.2l-1.968 2.085c-.116 0-.347-.116-.463-.116l2.084-2.084c.116 0 .232.115.347.115zm-5.326-10.42h-.231l2.084-2.085h.579l-2.432 2.432v-.348zm-.579 0h-.579L49.79 1.62h.58l-2.085 2.084zm5.442 0h-.579l1.042-1.043v.58l-.463.462zm-1.62 2.547l-3.243 3.242v-.58l3.242-3.241v.579zm-3.243 2.315V7.99l3.242-3.242v.58l-3.242 3.241zm4.053-4.863h-.58l1.853-1.852v.579l-1.273 1.273zm-4.053 3.01v-.578L53.38 1.62h.579l-5.095 5.095zm0-.926v-.578l3.59-3.59h.579L48.863 5.79zm0-.926v-.579l2.663-2.663h.58l-3.243 3.242zm0 2.084l3.242-3.242v.58l-3.242 3.241v-.579zm0 2.78l3.242-3.243v.58l-3.242 3.241v-.579zm0 .926l3.242-3.242v.694l-3.242 3.242v-.694zm0 1.273v-.347l3.242-3.242v.579l-3.242 3.242v-.232zm.116.463l3.126-3.126v.58l-3.126 3.125v-.579zm3.126-2.2v.58l-2.894 2.894c0-.116-.116-.347-.116-.463l3.01-3.01zm0 .927v.579l-2.663 2.663c-.116-.116-.116-.232-.231-.463l2.894-2.78zm.116.81c0 .116.116.348.116.463l-2.432 2.432c-.116-.116-.231-.232-.231-.347l2.547-2.548zm.232.695c.115.116.115.232.231.347l-2.316 2.316c-.115-.116-.231-.231-.347-.231l2.432-2.432zm.81.926c.116.116.232.232.348.232l-2.085 2.084c-.115-.116-.231-.116-.463-.231l2.2-2.085zm.81-9.842c.116 0 .116 0 0 0zm-7.178-1.042l1.158-1.158h.579l-1.737 1.737v-.579zm0-1.042h.694l-.81.81.116-.81zm0 1.968l1.968-2.084h.58L47.357 3.59h-.463c0 .116 0 .116 0 0zM50.6 15.4l2.2-2.2c.116.116.232.232.232.347l-2.085 2.085c-.115-.116-.231-.116-.347-.232zm4.168 1.158l2.548-2.547c.463-.232.81-.58 1.042-1.043l2.663-2.663v.58l-5.674 5.673h-.579zm.927 0l5.326-5.326v.579l-4.632 4.631c-.231.116-.463.116-.694.116zm3.01-.81c-.231.115-.463.23-.694.347l2.894-2.895c-.347.926-1.042 1.853-2.2 2.547zM31.38 1.273c-4.4 0-7.874 3.242-7.758 8.105.116 4.979 4.516 8.221 8.8 8.105 4.632-.116 7.758-3.473 7.758-7.99 0-4.515-4.053-8.22-8.8-8.22zm-5.674 12.852l2.432-2.431c0 .116.116.347.231.463l-2.315 2.316-.348-.348zM23.968 9.38l7.758-7.758h.58l-2.2 2.316c-.927.347-1.506.926-1.853 1.852l-4.169 4.169c-.116-.116-.116-.347-.116-.58zm7.758 4.516c-1.505 0-2.084-.348-2.315-.81-.348-.58-.695-2.2-.464-4.4.348-3.243 1.621-3.822 2.432-3.938.81-.115 1.737 0 2.316.348.231.231 1.042 1.273 1.042 3.82.116 2.664-.926 4.98-3.01 4.98zm3.242-6.716c0-.232-.115-.347-.115-.463l2.431-2.432c.116.116.232.232.232.348l-2.548 2.547zm-.115-.695c0-.116-.116-.347-.116-.463l2.2-2.2.347.347-2.431 2.316zm-.232-.695c-.116-.115-.116-.231-.232-.463l1.969-1.968.347.347-2.084 2.084zm-.347-.694c-.116-.116-.116-.232-.232-.348l1.853-1.852c.116.116.231.116.347.231l-1.968 1.969zm-.348-.463l-.347-.348 1.737-1.737c.116.116.231.116.347.232l-1.737 1.853zm-.463-.464c-.116-.115-.231-.115-.347-.231l1.62-1.621c.117.116.232.116.464.231l-1.737 1.621zm-.695-.231c-.115 0-.347-.116-.463-.116l1.737-1.737c.116 0 .347.116.463.116l-1.737 1.737zm-.694-.232h-.58l1.853-1.852c.116 0 .348.115.464.115l-1.737 1.737zm-.927 0c-.231 0-.463 0-.694.116l2.084-2.084c.231 0 .347 0 .579.116l-1.969 1.852zm-3.126 2.548c-.116.231-.116.463-.232.81l-3.705 3.705c0-.231-.116-.347-.116-.579l4.053-3.936zM27.79 7.41c0 .231 0 .463-.115.694L24.2 11.58c0-.116-.116-.347-.116-.463L27.79 7.41zm-.115 1.042v.579l-3.127 3.126c-.115-.116-.115-.347-.115-.463l3.242-3.242zm0 .81v.58l-2.895 2.894c-.116-.116-.116-.232-.232-.463l3.127-3.01zm.115.926c0 .232 0 .348.116.58l-2.663 2.663c-.116-.116-.116-.232-.231-.348l2.778-2.895zm.116.695c0 .116.116.348.116.463l-2.432 2.548c-.115-.116-.231-.232-.231-.348l2.547-2.663zm.463 1.39c.116.115.116.231.232.347l-2.2 2.2-.347-.347 2.315-2.2zm.348.579c.116.115.231.231.231.347l-2.084 2.084c-.116-.116-.231-.116-.347-.231l2.2-2.2zm.463.463c.116.116.232.231.347.231l-1.968 1.969c-.116-.116-.232-.116-.347-.232l1.968-1.968zm.463.347c.116.116.232.116.347.232l-1.968 1.968c-.116-.116-.232-.116-.463-.231l2.084-1.969zm.695.348c.116 0 .347.115.463.115l-1.968 1.969c-.116 0-.348-.116-.464-.116l1.969-1.968zm.695.231h.579l-2.085 2.084c-.115 0-.347-.115-.463-.115l1.969-1.969zm.81 0c.232 0 .58-.116.81-.116l-2.315 2.316c-.232 0-.348 0-.58-.116l2.085-2.084zm2.663-2.084c.116-.232.232-.58.348-.926l3.82-3.821c0 .231.116.347.116.578l-4.284 4.169zm.463-1.274c0-.231.116-.463.116-.695l3.474-3.473c0 .116.116.347.116.463l-3.706 3.705zm.116-1.042v-.695l3.127-3.126c0 .116.115.347.115.463l-3.242 3.358zm0-.926v-.58l2.895-2.894c.116.116.116.232.232.463l-3.127 3.01zm0-.927v-.578l2.663-2.664c.116.116.116.232.232.348l-2.895 2.894zM31.38 1.621l-7.526 7.526v-.579l6.831-6.831h.232c.347-.116.463-.116.463-.116zm-6.832 4.516L28.484 2.2c.348-.116.58-.232.927-.347L24.2 7.063c.116-.347.232-.579.347-.926zm-.463 1.274l5.674-5.674c.231 0 .463-.116.695-.116l-6.485 6.484c.116-.116.116-.463.116-.694zm3.821-4.864L24.78 5.674a6.311 6.311 0 0 1 3.126-3.127zm2.663 13.895l2.664-2.663c.347-.232.694-.579.926-.926l4.631-4.632V8.8l-7.642 7.642H30.568zm7.874-4.516l-3.937 3.937a2.181 2.181 0 0 1-.926.232L38.674 11c0 .347-.116.695-.232.926zm.347-1.158l-5.557 5.443c-.232 0-.464.115-.695.115l6.368-6.368c-.116.347-.116.579-.116.81zm.116-1.273v.231l-6.716 6.716h-.694l7.41-7.41v.463zm-3.937 6.137l3.243-3.243c-.58 1.39-1.622 2.548-3.243 3.243zM158.4 2.895c-.347 0-.695-.348-.695-.695s.348-.695.695-.695.695.348.695.695-.232.695-.695.695zm0-1.274c-.347 0-.579.232-.579.579s.232.579.579.579.579-.232.579-.579-.232-.579-.579-.579zm0 .579h.116l.116-.116a.249.249 0 0 0-.232-.231h-.116l.116.347zm-.116.347l-.116.116v-.116h.116l-.116-.81h-.115V1.62h.463s.116.116.116.232c0 .115 0 .231-.116.231h-.116l.232.348h.115v.115h-.115l-.348-.463v.463zM16.905 10.421c-.694-.926-2.084-1.621-2.2-1.621v-.116s1.042-.579 1.621-1.042c.58-.695.927-1.39.695-2.779-.347-1.852-1.968-3.358-5.21-3.59-1.158-.115-1.969-.115-2.548-.115H1.621c-.232 0-.347 0-.347.116V3.82a8532291.748 8532291.748 0 0 0 .926.926h1.274V13.2c0 .232 0 .232-.116.232H1.505 1.39v2.547s0 .116.116.232c.116.115.695.578.81.694h4.748s5.558 0 6.484-.116c1.621-.115 3.242-1.157 3.821-2.894.464-1.274.232-2.548-.463-3.474zm-4.631 5.442h-.695L16.442 11c0 .232.116.347.116.579l-4.284 4.284zm4.168-3.937v.695l-3.126 3.126c-.232.116-.58.116-.81.116l3.936-3.937zm-6.368 3.937h-.348l6.137-6.137c.116.116.232.232.232.348l-5.674 5.673c-.232.116-.347.116-.347.116zm5.558-6.137L9.379 15.98H8.8l2.2-2.2c.347-.116.695-.232.926-.463.232-.232.58-.463.695-.927 0-.115.116-.231.116-.347l2.547-2.547c.232 0 .232.116.348.231zm-13.78 6.137V15.4l1.737-1.737h.232s.116-.116.116-.231v-.116l3.126-3.242v.579l-5.095 5.094h-.115v.116zM5.559 1.621h.579L3.82 3.937V3.82c0-.116 0-.116-.116-.116h-.231l2.084-2.084zM3.242 3.59h-.695l1.969-1.968h.579L3.242 3.59zm3.821.811L3.937 7.526v-.579l3.242-3.242V4.4h-.116zm4.169-2.779h.579L9.726 3.705H9.032l2.2-2.084c-.116 0 0 0 0 0zm1.273.116L10.421 3.82h-.579l2.084-2.084c.232-.116.463-.116.58 0zm1.969.463c.115 0 .115.116.231.116L12.39 4.632c-.115-.116-.115-.232-.231-.348L14.242 2.2h.232zM12.62 5.326v-.231c0-.116 0-.116-.116-.232l2.316-2.316c.116.116.232.232.347.232l-2.547 2.547zm-1.39 1.506c-.463.115-2.894 0-2.894 0-.116 0-.116 0-.116-.116V4.632c0-.116 0-.116.116-.116h2.779c.579 0 .81.116.926.231.116.116.232.116.232.232s.115.579 0 .81c-.116.464-.348.927-1.042 1.043zM7.18 9.263c-.116 0-.116.116-.116.116v.463l-3.126 3.242v-.579L9.263 7.18h.695l-2.2 2.084h-.58zM3.937 8.8l3.126-3.242v.579L3.937 9.263V8.8zm0 .926L7.063 6.6v.579L3.821 10.42v-.695h.116zm0 .927L7.41 7.179h.578l-4.052 4.053v-.58zm0 .926l4.4-4.4h.579l-4.98 4.979v-.58zm8.105-7.526c-.116-.116-.231-.232-.347-.232l1.968-1.968c.116 0 .348.115.463.115l-2.084 2.085zm-.695-.232h-.579l1.969-1.968c.116 0 .347.115.579.115l-1.969 1.853zm-2.663-.116h-.579l2.084-2.084h.58L8.683 3.705zm-1.62 1.621L3.936 8.568V7.99l3.126-3.242v.58zM3.936 6.6v-.579l4.4-4.4h.579L3.936 6.6zm0-.926v-.58L7.41 1.622h.578L3.937 5.674zm0-.927v-.579l2.547-2.547h.58L3.936 4.747zM1.853 15.168v-.579l.81-.81h.58l-1.39 1.39zm6.136-5.905l2.085-2.084h.694L8.684 9.263H7.99zm3.127-2.084c.463 0 .81-.232 1.158-.463.347-.232.463-.695.463-1.042l2.779-2.78c.116.117.231.232.231.348l-6.02 6.021h-.58l1.969-2.084zm4.863-3.01v.578L12.737 7.99h-.116v.116L11.347 9.38c-.115 0-.231 0-.347-.116h-.232l5.21-5.095zM12.853 11l1.968-1.968c.116.115.232.115.347.231l-2.315 2.316V11zm1.736-2.084l-1.852 1.852c0-.115-.116-.347-.232-.463l1.621-1.62c.232 0 .348.115.463.23zm-2.2 1.273c0-.115-.115-.115-.115-.115s-.116-.116-.232-.116l1.39-1.39c.115 0 .231.116.231.116.116 0 .116 0 .232.116l-1.506 1.39zm-.926-.694l1.274-1.274c.116 0 .347.116.463.116l-1.39 1.39c0-.116-.115-.116-.347-.232zm2.895-1.969l1.39-1.39c-.232.464-.58.927-1.39 1.39zm-.463.232c-.232.116-.58.231-.81.231l3.01-3.01c0 .232 0 .463-.116.695l-2.084 2.084zm-3.474 1.62H9.726l5.906-5.904c.115.115.115.347.231.463l-5.442 5.442zm-3.358 3.359l-3.242 3.242h-.579l3.821-3.821v.579zm0 .231v.58l-2.316 2.315h-.579l2.895-2.895zm.232.81h.579l-2.085 2.085h-.578l2.084-2.084zm.926 0h.695l-2.2 2.2h-.58l2.085-2.2zm.116-.346c-.116 0-.116 0 0 0-.116-.232-.116-2.664-.116-2.895 0-.116 0-.232.116-.232h3.126c.463 0 .695.116.81.232.116.116.232.116.232.695 0 .231-.116.81-.347 1.157-.463.58-.926.811-1.505.927-.464.116-2.316.116-2.316.116zm2.084.231h.347l-2.2 2.2H7.99l2.2-2.2c0 .116.116 0 .232 0zM9.842 1.621L7.758 3.705h-.58l2.085-2.084h.58zm-6.484 0L1.853 3.126v-.579l.926-.926h.579zm-1.505 0h.579l-.58.579v-.579zm0 1.968v-.115L3.705 1.62h.58L2.314 3.59h-.462zm0 10.19h.463l-.463.463v-.463zm.463 2.084l4.747-4.747v.579l-4.168 4.168h-.58zm4.631 0l2.2-2.2h.695l-2.2 2.2h-.695zm3.706.116l5.558-5.558c.115.116.115.347.115.463l-5.094 5.095h-.58zm5.673-2.895c-.231 1.042-1.39 2.084-2.663 2.548l2.663-2.664c.116 0 0 .116 0 .116zm69.821 0c-.115-.116-.694-.463-.694-.463s-1.737-1.39-1.969-1.505c-.231-.116-.231-.116-.347.116-.116.115-1.158 1.968-3.358 2.315-2.316.232-3.937-1.39-3.937-4.747 0-2.895 1.969-4.747 3.126-4.747 1.853-.116 2.664.463 3.243 2.663 0 0 .115.116.347.231.116.116.579.695.695.695h2.431c.116 0 .116 0 .116-.231V2.316l-.116-.232s-.81-.926-.926-.926H82.21v.81c-.58-.463-1.622-1.042-3.706-1.042-.926 0-2.779 0-4.631 1.274-1.853 1.274-3.821 3.821-3.474 7.41.463 4.4 4.168 7.99 8.916 7.874 3.705-.116 5.905-2.779 6.716-4.168.231-.116.231-.116.115-.232zm-1.736-.81c.115.115.231.231.347.231L81.4 15.863a2.181 2.181 0 0 1-.926.232l3.937-3.821zm-4.285 4.052c-.231 0-.463.116-.694.116l4.515-4.516c.116.116.232.232.348.232l-4.169 4.168zm.116-2.547c.347-.116.695-.232.926-.347l-3.01 3.01h-.58l2.664-2.663zm-.463 0l-2.432 2.432c-.115 0-.347 0-.579-.116l2.316-2.316a.738.738 0 0 0 .695 0zm-8.8-3.358c0-.116 0-.232-.116-.347l4.284-4.285c-.115.348-.347.695-.463 1.043l-3.82 3.82a.359.359 0 0 0 .115-.23zm9.147-9.032l-1.852 1.853c-.232 0-.58.116-.927.232l2.2-2.2c.232.115.464.115.58.115zm2.2 1.043c.116.115.232 0 .232-.232v-.116l.579-.579h.579l-2.548 2.548c-.115-.116-.231-.232-.347-.232l1.505-1.39zm-1.737 1.39c-.115-.117-.231-.117-.463-.233l1.506-1.505c.115.116.231.232.347.232l-1.39 1.505zm-.578-.348c-.116 0-.348-.116-.464-.116l1.621-1.621c.116.116.348.116.464.231L80.01 3.474zm-.811-.116h-.579l1.853-1.853c.231 0 .347.116.463.116L79.2 3.358zm-4.516 3.82c0 .233-.116.464-.116.696l-3.357 3.358c0-.116-.116-.348-.116-.464l3.59-3.59zm-.116 1.043V8.8l-3.126 3.126c-.116-.115-.116-.347-.231-.463l3.357-3.242zm.116.926c0 .232 0 .348.116.58l-3.01 2.894c-.116-.116-.116-.232-.232-.463l3.126-3.01zm.116.81c0 .232.116.348.116.464l-2.78 2.663c-.115-.116-.115-.231-.23-.347l2.894-2.78zm.116.696c0 .115.116.347.231.463L72.6 13.663c-.116-.116-.232-.231-.232-.347l2.548-2.663zm.347.694c.116.116.116.232.232.464l-2.548 2.315-.347-.347 2.663-2.432zm.232.58c.116.115.231.23.231.347l-2.315 2.315-.348-.347 2.432-2.316zm.463.462l.347.348-2.316 2.316c-.115-.116-.231-.116-.347-.232l2.316-2.432zm.463.464c.116.115.232.231.347.231l-2.2 2.2c-.115-.116-.231-.116-.347-.231l2.2-2.2zm.579.463c.116.116.232.116.463.231l-2.2 2.2c-.116-.115-.347-.115-.463-.231l2.2-2.2zm.579.231c.116.116.347.116.463.116l-2.2 2.2c-.116 0-.347-.116-.463-.116l2.2-2.2zm.695.232c.231 0 .347.116.579.116l-2.316 2.316c-.116 0-.348-.116-.463-.116l2.2-2.316zm6.02-7.179H83.6l.926-.926v.694l-.231.232zm-.926 0h-.694l1.852-1.853v.695L83.368 6.6zm-.926 0s0-.232-.116-.463l2.316-2.316v.695l-2.2 2.084zm-.231-.81c0-.116-.116-.348-.232-.464l2.547-2.547v.695l-2.315 2.315zm-.232-.58c-.116-.115-.116-.231-.232-.347l2.895-2.895v.58L81.98 5.21zm2.663-3.589l-3.01 3.01-.348-.347 2.663-2.663h.695zm-1.853 0l-.231.232V1.62h.231zm-3.473-.347l-2.663 2.663a3.524 3.524 0 0 0-.927.926l-4.863 4.863v-.579l7.874-7.873H79.316zm-.81 0l-7.643 7.642V8.22l6.948-6.947h.694zm-1.738.115c.232 0 .464-.115.695-.115l-6.6 6.6c0-.232.116-.463.116-.81l5.79-5.675zm-5.673 5.327c.116-.348.231-.695.347-.927l4.053-4.052c.347-.116.579-.232.926-.348l-5.326 5.327zm2.084-3.474c.579-.579 1.158-.926 1.737-1.274l-3.242 3.243c.347-.695.926-1.39 1.505-1.969zm5.326 13.2l3.474-3.474c.579-.463.926-.926 1.158-1.157l.231-.232s.116 0 .116.116l.232.231-4.632 4.632c-.116-.116-.347-.116-.579-.116zm6.6-3.474c-.81.927-1.737 2.085-3.126 2.78l3.01-3.011h.116v.231z"/>
        </g>
        <path fill="#333" d="M48.444 82.76c.32 0 .208.224.24.464l1.2 8.128 4.112-8.128c.08-.176.144-.448.368-.464h.432c1.168 0 1.328-.08 1.472-.08.096 0 .192.112.176.272-.048.176-.16.288-.272.288-.144 0-.288-.016-.976-.016l-1.632 9.28c.688 0 .832-.016.976-.016.112 0 .192.112.16.288-.016.176-.16.272-.256.272-.16 0-.288-.08-1.44-.08h-.176c-1.184 0-1.328.08-1.472.08-.112 0-.192-.096-.16-.272.032-.176.16-.288.272-.288.144 0 .272.016.976.016l1.36-7.792-4.272 8.416c-.064.112-.112.16-.288.16-.144 0-.176-.064-.208-.16l-1.232-8.304-1.344 7.68c.688 0 .832-.016.976-.016.112 0 .192.112.16.288s-.16.272-.272.272c-.128 0-.24-.064-1.216-.08-.976.016-1.12.08-1.264.08-.096 0-.176-.096-.16-.272.032-.176.16-.288.272-.288.144 0 .288.016.976.016l1.632-9.28c-.688 0-.832.016-.976.016-.112 0-.208-.112-.16-.288.016-.16.144-.272.256-.272.128 0 .256.064 1.216.08h.544zm9.36 9.088c-.112.672.176.72.32.72.512 0 .928-.752 1.136-1.952.032-.176.144-.304.304-.304s.224.128.208.304c-.192 1.024-.736 2.512-1.936 2.512-.608 0-1.168-.416-1.008-1.296l.8-4.608c-.784 0-.88.048-1.04.048-.112 0-.224-.112-.176-.288a.29.29 0 0 1 .272-.272c.16 0 .256.016 1.024.016.256 0 .64-.064.784-.064.112 0 .208.112.176.288l-.864 4.896zm.24-7.728a.753.753 0 0 1 .736-.608c.352 0 .576.256.512.608a.753.753 0 0 1-.736.608c-.352 0-.56-.256-.512-.608zm7.248 3.472l.768-4.352c-.768 0-.864.032-1.024.032-.112 0-.224-.096-.192-.272.032-.176.176-.288.288-.288.16 0 .256.032 1.024.032.256 0 .624-.064.768-.064.112 0 .224.112.192.272l-1.568 8.896c-.128.672.176.72.32.72.512 0 .912-.752 1.136-1.952.016-.176.144-.304.304-.304s.224.128.192.304c-.176 1.024-.72 2.512-1.92 2.512-.56 0-1.072-.336-1.056-1.056-.48.752-1.232 1.2-1.904 1.2-1.376 0-2.112-1.376-1.76-3.408.352-2.032 1.584-3.392 2.96-3.392.656 0 1.232.4 1.472 1.12zm-.4 2.272C65.228 88.024 64.7 87 63.756 87c-.832 0-1.392.752-1.776 2.864-.352 2.112-.064 2.864.784 2.864.928 0 1.808-1.024 2.128-2.864zm8.128-2.272l.768-4.352c-.768 0-.864.032-1.024.032-.112 0-.224-.096-.192-.272.032-.176.176-.288.288-.288.16 0 .256.032 1.024.032.256 0 .624-.064.768-.064.112 0 .224.112.192.272l-1.568 8.896c-.128.672.176.72.32.72.512 0 .912-.752 1.136-1.952.016-.176.144-.304.304-.304s.224.128.192.304c-.176 1.024-.72 2.512-1.92 2.512-.56 0-1.072-.336-1.056-1.056-.48.752-1.232 1.2-1.904 1.2-1.376 0-2.112-1.376-1.76-3.408.352-2.032 1.584-3.392 2.96-3.392.656 0 1.232.4 1.472 1.12zm-.4 2.272c.336-1.84-.192-2.864-1.136-2.864-.832 0-1.392.752-1.776 2.864-.352 2.112-.064 2.864.784 2.864.928 0 1.808-1.024 2.128-2.864zm4.656 1.984c-.112.672.176.72.32.72.512 0 .928-.752 1.136-1.952.032-.176.144-.304.304-.304s.24.128.208.304c-.192 1.024-.736 2.512-1.936 2.512-.608 0-1.168-.416-1.008-1.296l1.504-8.592c-.768 0-.864.032-1.024.032-.128 0-.224-.096-.192-.272.032-.176.16-.288.288-.288.16 0 .24.032 1.024.032.256 0 .624-.064.768-.064.128 0 .208.112.192.272l-1.584 8.896zm4.208-2.08c1.12-.096 2.448-.624 2.672-1.824.096-.56-.144-.96-.608-.96-1.072 0-1.744 1.088-2.064 2.784zm-.08.496c-.192 1.552.192 2.448 1.168 2.448.752 0 1.424-.4 1.872-1.328.064-.128.176-.272.32-.272.128 0 .208.096.208.24a.878.878 0 0 1-.08.272c-.8 1.344-1.696 1.648-2.592 1.648-1.408 0-2.32-1.392-1.968-3.408.368-2.112 1.984-3.392 3.296-3.392 1.008 0 1.632.624 1.488 1.44-.304 1.696-2.368 2.224-3.712 2.352zM95.5 82.728c.224 0 .688-.064.816-.064.112 0 .192.112.16.288l-.096.48c-.096.656-.24 1.776-.256 1.936-.032.128-.112.24-.272.24-.144 0-.224-.112-.208-.24.24-1.28 0-2.048-.816-2.048h-2.304l-.72 4.032h1.408c.464 0 .832-.416.976-1.232.016-.128.096-.24.224-.24s.176.112.144.24c-.032.144-.112.448-.304 1.52s-.208 1.376-.224 1.52c-.032.112-.096.24-.224.24-.144 0-.176-.128-.16-.24.16-.816-.08-1.232-.544-1.232h-1.392l-.784 4.48h2.656c.816 0 1.328-.768 1.552-2.048a.265.265 0 0 1 .272-.24c.16 0 .208.112.192.24-.032.16-.288 1.28-.416 1.936l-.08.496c-.016.16-.16.272-.256.272-.144 0-.56-.064-.8-.064l-3.824-.032c-1.296 0-1.408.08-1.568.08-.128 0-.224-.096-.208-.272.048-.176.176-.288.304-.288.16 0 .256.016 1.024.016l1.632-9.28c-.784 0-.88.016-1.04.016-.112 0-.224-.112-.176-.288.016-.16.16-.272.272-.272.16 0 .24.08 1.552.08l3.488-.032zm5.36 7.136c.336-1.84-.128-2.864-1.072-2.864-.608 0-1.456.752-1.84 2.864-.352 2.112-.064 2.864.784 2.864.928 0 1.808-1.024 2.128-2.864zm.656 1.984c-.128.656.176.72.32.72.512 0 .912-.752 1.136-1.952.016-.176.144-.304.304-.304s.224.128.192.304c-.176 1.024-.72 2.512-1.92 2.512-.56 0-1.056-.336-1.056-1.056-.48.752-1.232 1.2-1.904 1.2-1.376 0-2.112-1.376-1.76-3.408.352-2.032 1.888-3.392 3.04-3.392.64 0 1.152.4 1.392 1.12l.16-.848c0-.048.048-.064.112-.064.128 0 .176.048.384.048.192 0 .304-.048.416-.048.064 0 .096.016.096.064l-.912 5.104zm3.344.096c.24.528.816.832 1.456.832.704 0 1.36-.448 1.36-1.232 0-.432-.368-.832-1.264-1.264-.88-.448-1.376-1.024-1.376-1.92 0-1.408 1.28-1.904 2.064-1.904 1.056 0 1.648.624 1.648 1.216 0 .448-.304.72-.624.72-.304 0-.528-.24-.464-.496.016-.208.176-.384.416-.496-.08-.224-.464-.464-1.04-.464-.704 0-1.216.448-1.216 1.12 0 .464.32.816 1.088 1.168.848.4 1.568 1.008 1.568 2.032 0 1.296-1.056 2.032-2.192 2.032-1.328 0-2.064-.928-2.064-1.616 0-.608.384-.832.736-.832a.48.48 0 0 1 .48.48c0 .336-.32.592-.576.624zm7.12-4.72l-.816 4.624c-.112.672.176.72.32.72.512 0 .928-.752 1.136-1.952.032-.176.144-.304.304-.304s.224.128.208.304c-.192 1.024-.736 2.512-1.936 2.512-.624 0-1.184-.416-1.024-1.296l.8-4.608c-.576 0-.88.032-1.024.032-.112 0-.224-.096-.176-.272a.29.29 0 0 1 .272-.272c.128 0 .416 0 1.024.016l.304-1.68c0-.048.048-.08.096-.08.144 0 .192.064.384.064.208 0 .32-.064.416-.064.064 0 .112.032.096.08l-.288 1.68h.128c.688-.016 1.12-.016 1.248-.016.112 0 .224.096.192.272-.032.176-.176.272-.288.272-.144 0-.576-.032-1.248-.032h-.128z"/>
    </g>
</svg>
