<svg xmlns="http://www.w3.org/2000/svg" width="34" height="34" viewBox="0 0 34 34">
    <path fill="#333" stroke="#FFF" stroke-width=".4" d="M12.143 23.575c-.538 0-1.025.216-1.377.565-.353.349-.571.83-.571 1.36 0 .53.218 1.011.57 1.36.353.349.84.565 1.378.565.539 0 1.029-.217 1.384-.567.354-.348.575-.829.575-1.358 0-.529-.22-1.01-.575-1.358-.355-.35-.845-.567-1.384-.567zm10.794 0c-.538 0-1.025.216-1.378.565-.352.349-.57.83-.57 1.36 0 .53.218 1.011.57 1.36.353.349.84.565 1.378.565.539 0 1.029-.217 1.384-.567.354-.348.574-.829.574-1.358 0-.529-.22-1.01-.574-1.358-.355-.35-.845-.567-1.384-.567zm-13.867-17L10.085 8.7h16.1c.334 0 .607.177.755.425h0l-3.854 7.746c-.169.302-.417.552-.717.725-.293.17-.634.266-.998.266h0-8.158l-1.411 2.525h13.093v1.725H12.143c-.744 0-1.352-.392-1.684-.946-.33-.553-.387-1.268-.03-1.911h0l1.508-2.684L7.95 8.3H5.867V6.575H9.07zm15.622 3.85H10.918l2.75 5.712h7.82l3.204-5.712z"/>
</svg>
