<svg xmlns="http://www.w3.org/2000/svg" width="27" height="27" viewBox="0 0 27 27">
    <g fill="none" fill-rule="evenodd">
        <path fill="#333" stroke="#333" d="M1 13.5C1 6.596 6.596 1 13.5 1S26 6.596 26 13.5 20.404 26 13.5 26 1 20.404 1 13.5z"/>
        <path fill="#FFF" d="M20.033 10.984s-.13-.939-.53-1.352c-.507-.543-1.075-.546-1.335-.577-1.866-.138-4.665-.138-4.665-.138h-.006s-2.799 0-4.665.138c-.26.031-.828.034-1.336.577-.4.413-.53 1.352-.53 1.352s-.133 1.103-.133 2.205v1.034c0 1.103.134 2.205.134 2.205s.13.939.53 1.352c.507.543 1.173.526 1.47.583 1.066.105 4.533.137 4.533.137s2.802-.004 4.668-.142c.26-.032.828-.035 1.335-.578.4-.413.53-1.352.53-1.352s.134-1.102.134-2.205v-1.034c0-1.102-.134-2.205-.134-2.205z"/>
        <path fill="#333" d="M12.123 15.476v-3.829l3.602 1.921z"/>
    </g>
</svg>
