<?xml version="1.0" encoding="UTF-8"?>
<svg width="36px" height="36px" viewBox="0 0 36 36" version="1.1" xmlns="http://www.w3.org/2000/svg" xmlns:xlink="http://www.w3.org/1999/xlink">
    <title>FA4A30AF-4C4F-444D-B556-3D4DE5EB564B</title>
    <defs>
        <path d="M9.02608625,0 C14.013952,0 18.0521725,4.18253733 18.0521725,9.33550014 C18.0521725,11.640773 17.2439691,13.7518263 15.9040998,15.3810616 L22.2840381,21.8720844 C22.5718343,22.1649272 22.5719132,22.6397996 22.2842145,22.9327416 C21.9965158,23.2256835 21.529985,23.2257639 21.2421889,22.9329211 L21.2421889,22.9329211 L14.870102,16.4504238 C13.2958238,17.8351551 11.2558443,18.6710003 9.02608625,18.6710003 C4.03822054,18.6710003 0,14.4884629 0,9.33550014 C0,4.18253733 4.03822054,0 9.02608625,0 Z M9.02608625,1.49999579 C4.85788501,1.49999579 1.47364674,5.00517903 1.47364674,9.33550014 C1.47364674,13.6658212 4.85788501,17.1710045 9.02608625,17.1710045 C11.085791,17.1710045 12.9540667,16.3151039 14.3171598,14.9266811 L14.3627311,14.8723496 C14.3762809,14.8585527 14.3902275,14.8454055 14.4045334,14.8329079 C15.7492407,13.420484 16.5785258,11.4790893 16.5785258,9.33550014 C16.5785258,5.00517903 13.1942875,1.49999579 9.02608625,1.49999579 Z" id="path-1"></path>
    </defs>
    <g id="Page-1" stroke="none" stroke-width="1" fill="none" fill-rule="evenodd">
        <g id="Artboard-Copy-28" transform="translate(-51.000000, -93.000000)">
            <g id="Group-43-Copy-7" transform="translate(0.000000, 78.000000)">
                <g id="Style/Icons/UI/Search" transform="translate(51.000000, 15.000000)">
                    <g id="ic_search" transform="translate(6.750000, 6.750000)">
                        <mask id="mask-2" fill="white">
                            <use xlink:href="#path-1"></use>
                        </mask>
                        <use id="Combined-Shape" fill="#000000" fill-rule="nonzero" xlink:href="#path-1"></use>
                        <g id="Style/Color/PB-Primary-Black-333333" mask="url(#mask-2)" fill="#333333">
                            <g transform="translate(-6.750000, -6.750000)" id="Rectangle-4-Copy-5">
                                <rect x="0" y="0" width="36" height="36"></rect>
                            </g>
                        </g>
                    </g>
                </g>
            </g>
        </g>
    </g>
</svg>
