<svg width="24" height="24" xmlns="http://www.w3.org/2000/svg">
    <g fill="none" fill-rule="evenodd">
        <rect stroke="#232323" fill="#FFF" x=".5" y=".5" width="23" height="23" rx="3"/>
        <path d="M15.13 6.166a3.155 3.155 0 0 0-1.975.68c-.475.377-.87.844-1.16 1.373a4.455 4.455 0 0 0-1.162-1.371 3.14 3.14 0 0 0-1.905-.68 3.632 3.632 0 0 0-2.616 1.138 3.578 3.578 0 0 0-.972 2.666c0 2.305 1.893 3.954 4.773 6.386.488.415 1.045.877 1.614 1.372a.415.415 0 0 0 .279.104.383.383 0 0 0 .267-.104l1.626-1.372c2.868-2.432 4.76-4.035 4.76-6.386a3.574 3.574 0 0 0-.947-2.65 3.634 3.634 0 0 0-2.582-1.156z" fill="#232323" fill-rule="nonzero"/>
    </g>
</svg>
