<svg id="vs-sizeguide-icon" xmlns="http://www.w3.org/2000/svg" width="17" height="8" viewBox="0 0 17 8">
<path fill="#FFF" d="M1 5h15v2H1z"></path><path d="M17 4H0v4h17V4"></path><path fill="#FFF" d="M.5 2.5h4v1h-4z"></path><path d="M5 2H0v2h5V2"></path><path fill="#FFF" d="M12.5 2.5h4v1h-4z"></path><path d="M17 2h-5v2h5V2"></path><path fill="#FFF" d="M6.5 2.5h4v1h-4z"></path><path d="M11 2H6v2h5V2"></path><path fill="#FFF" d="M15.5.5h1v1h-1z"></path><path d="M17 0h-2v2h2V0"></path><g><path fill="#FFF" d="M12.5.5h1v1h-1z"></path><path d="M14 0h-2v2h2V0"></path></g><g><path fill="#FFF" d="M9.5.5h1v1h-1z"></path><path d="M11 0H9v2h2V0"></path></g><g><path fill="#FFF" d="M6.5.5h1v1h-1z"></path><path d="M8 0H6v2h2V0"></path></g><g><path fill="#FFF" d="M3.5.5h1v1h-1z"></path><path d="M5 0H3v2h2V0"></path></g><g><path fill="#FFF" d="M.5.5h1v1h-1z"></path><path d="M2 0H0v2h2V0"></path></g>
</svg>
