<svg xmlns="http://www.w3.org/2000/svg" xmlns:xlink="http://www.w3.org/1999/xlink" width="48" height="48" viewBox="0 0 48 48">
    <defs>
        <path id="a" d="M24 6a1 1 0 0 1 .993.883L25 7v2.033c7.488.493 13.474 6.48 13.967 13.967H41a1 1 0 0 1 .117 1.993L41 25h-2.033c-.493 7.488-6.48 13.474-13.967 13.967V41a1 1 0 0 1-1.993.117L23 41v-2.033c-7.487-.492-13.474-6.479-13.967-13.966L7 25a1 1 0 0 1-.117-1.993L7 23h2.033C9.526 15.512 15.513 9.525 23 9.033L23 7a1 1 0 0 1 1-1zm1 5.038V13a1 1 0 0 1-1.993.117L23 13v-1.962c-6.382.485-11.477 5.58-11.962 11.962H13a1 1 0 0 1 .117 1.993L13 25h-1.962c.486 6.383 5.58 11.477 11.963 11.962L23 35a1 1 0 0 1 1.993-.117L25 35v1.962c6.382-.486 11.476-5.58 11.962-11.961L35 25a1 1 0 0 1-.117-1.993L35 23h1.962c-.485-6.382-5.58-11.476-11.962-11.962zM24 19a5 5 0 1 1 0 10 5 5 0 0 1 0-10zm0 2a3 3 0 1 0 0 6 3 3 0 0 0 0-6z"/>
    </defs>
    <g fill="none" fill-rule="evenodd">
        <mask id="b" fill="#fff">
            <use xlink:href="#a"/>
        </mask>
        <use fill="#0ABB76" fill-rule="nonzero" xlink:href="#a"/>
        <g fill="#EC1D24" mask="url(#b)">
            <path d="M0 0h48v48H0z"/>
        </g>
    </g>
</svg>
