<svg width="48" height="48" viewBox="0 0 48 48" xmlns="http://www.w3.org/2000/svg" xmlns:xlink="http://www.w3.org/1999/xlink">
    <defs>
        <path d="M37.966 32c.57 0 1.034.448 1.034 1s-.463 1-1.034 1H20.034c-.57 0-1.034-.448-1.034-1s.463-1 1.034-1zm-23 0c.57 0 1.034.448 1.034 1s-.463 1-1.034 1h-4.932C9.464 34 9 33.552 9 33s.463-1 1.034-1zm23-9c.57 0 1.034.448 1.034 1s-.463 1-1.034 1H20.034c-.57 0-1.034-.448-1.034-1s.463-1 1.034-1zm-23 0c.57 0 1.034.448 1.034 1s-.463 1-1.034 1h-4.932C9.464 25 9 24.552 9 24s.463-1 1.034-1zm23-9c.57 0 1.034.448 1.034 1s-.463 1-1.034 1H20.034c-.57 0-1.034-.448-1.034-1s.463-1 1.034-1zm-23 0c.57 0 1.034.448 1.034 1s-.463 1-1.034 1h-4.932C9.464 16 9 15.552 9 15s.463-1 1.034-1z" id="1n036ekafa"/>
    </defs>
    <g fill="none" fill-rule="evenodd">
        <mask id="k0a1269zib" fill="#fff">
            <use xlink:href="#1n036ekafa"/>
        </mask>
        <use fill="#0ABB76" fill-rule="nonzero" xlink:href="#1n036ekafa"/>
        <g mask="url(#k0a1269zib)" fill="#EC1D24">
            <path d="M0 0h48v48H0z"/>
        </g>
    </g>
</svg>
