<svg width="32" height="30" viewBox="0 0 32 30" xmlns="http://www.w3.org/2000/svg" xmlns:xlink="http://www.w3.org/1999/xlink"><title>51C89ED8-7BBC-4B13-9A75-51DBCF9AB075</title><defs><rect id="a" x="9" y="11" width="4" height="1" rx=".5"/><mask id="c" x="0" y="0" width="4" height="1" fill="#fff"><use xlink:href="#a"/></mask><rect id="b" x="19" y="11" width="4" height="1" rx=".5"/><mask id="d" x="0" y="0" width="4" height="1" fill="#fff"><use xlink:href="#b"/></mask></defs><g transform="translate(0 1)" stroke="#0084cc" fill="none" fill-rule="evenodd"><path d="M11 11V5a5 5 0 1 1 10 0v6" stroke-linecap="round" stroke-linejoin="round"/><path d="M2.826 8.992A1.14 1.14 0 0 1 3.926 8h24.15c.549 0 1.04.436 1.1.992l1.935 18.016a.88.88 0 0 1-.889.992H1.78a.872.872 0 0 1-.888-.992L2.826 8.992z"/><use mask="url(#c)" stroke-width="2" fill="#0084cc" xlink:href="#a"/><use mask="url(#d)" stroke-width="2" fill="#0084cc" xlink:href="#b"/></g></svg>
