<svg width="19" height="17" viewBox="0 0 19 17" xmlns="http://www.w3.org/2000/svg"><title>30AAFE14-F976-4119-B802-AFBFA0793800</title><path d="M15.492 3.178C13.886 1.773 11.76 1 9.5 1s-4.386.773-5.992 2.178C1.892 4.594 1 6.486 1 8.5c0 1.636.612 3.234 1.728 4.531a2.808 2.808 0 0 1-1.021 1.214.642.642 0 0 0 .258 1.171c.27.039.54.056.812.056.86 0 1.644-.185 2.337-.549A9.316 9.316 0 0 0 9.5 16c2.26 0 4.386-.773 5.992-2.178C17.108 12.406 18 10.514 18 8.5c0-2.014-.892-3.906-2.508-5.322zM9.5 15.161a8.466 8.466 0 0 1-4.184-1.084.435.435 0 0 0-.206-.056.44.44 0 0 0-.217.06c-.608.367-1.322.552-2.12.552-.063 0-.129 0-.192-.004a3.76 3.76 0 0 0 1.025-1.535.421.421 0 0 0-.084-.43C2.424 11.472 1.84 10.031 1.84 8.5c0-3.675 3.434-6.66 7.66-6.66s7.66 2.989 7.66 6.66c0 3.675-3.434 6.66-7.66 6.66zm1.553-9.818c-.574 0-1.116.195-1.553.552a2.437 2.437 0 0 0-1.557-.556c-.654 0-1.27.255-1.735.72a2.438 2.438 0 0 0-.72 1.738c0 .654.255 1.273.72 1.734l2.774 2.773a.737.737 0 0 0 1.035 0l2.771-2.769c.465-.465.72-1.08.72-1.738 0-.657-.255-1.273-.72-1.738a2.437 2.437 0 0 0-1.735-.716zm1.14 3.601L9.5 11.636 6.807 8.937a1.614 1.614 0 1 1 2.28-2.283l.116.115c.08.08.185.123.297.123a.43.43 0 0 0 .297-.123l.112-.112a1.618 1.618 0 0 1 2.288-.003c.304.304.472.713.472 1.143 0 .434-.168.84-.476 1.147z" stroke="#AC8E54" stroke-width=".1" fill="#AC8E54" fill-rule="evenodd"/></svg>