<svg width="48" height="48" viewBox="0 0 48 48" xmlns="http://www.w3.org/2000/svg">
    <g fill="#003971" fill-rule="nonzero">
        <path d="M23.56 4.4C34.621 4.4 43.6 13.17 43.6 24c0 10.83-8.978 19.6-20.04 19.6-7.58 0-14.408-4.152-17.822-10.626a1.1 1.1 0 0 1 1.945-1.026C10.72 37.702 16.8 41.4 23.56 41.4 33.42 41.4 41.4 33.604 41.4 24S33.418 6.6 23.56 6.6c-5.725 0-10.966 2.65-14.283 6.968l1.765-.43a1.1 1.1 0 0 1 .637 2.102l-.115.034-4.522 1.103-.103.013-.122.004-.142-.013-.104-.022-.11-.034-.092-.04-.107-.059-.118-.085-.102-.096-.07-.083-.058-.083-.032-.055-.067-.146-1.364-4.345a1.1 1.1 0 0 1 2.057-.77l.042.112.633 2.021C10.887 7.567 16.94 4.4 23.56 4.4z"/>
        <path d="M12.75 31.25v-12.5h.023c.218-1.139 1.934-1.917 4.374-2.275l.516-.068.535-.056.553-.044a26.185 26.185 0 0 1 1.749-.057c.603 0 1.188.02 1.749.057l.553.044.535.056.516.068c2.44.358 4.156 1.136 4.374 2.276l.023-.001.002 2.51c.34.01.672.025.997.047l.553.044.535.056.516.068c2.44.358 4.156 1.136 4.374 2.276l.023-.001v4.5h-.024c-.218 1.14-1.934 1.917-4.373 2.275l-.516.068-.535.056-.553.044a25.13 25.13 0 0 1-.998.047l-.001.51h-.024c-.218 1.14-1.934 1.917-4.373 2.275l-.516.068-.535.056-.553.044c-.561.038-1.146.057-1.749.057-.603 0-1.188-.02-1.749-.057l-.553-.044-.535-.056-.516-.068c-2.439-.358-4.155-1.136-4.373-2.275h-.024zm11.103-1.725-.516.068-.535.056-.553.044c-.561.038-1.146.057-1.749.057-.603 0-1.188-.02-1.749-.057l-.553-.044-.535-.056-.516-.068c-1.155-.17-2.149-.433-2.897-.785V31c0 .126.232.281.642.44l.267.095.308.095c.163.047.341.093.532.138l.397.087.211.041.444.08.472.07c.08.012.162.023.245.033l.509.058c.173.018.35.034.53.047l.549.036.565.022a21.804 21.804 0 0 0 1.158 0l.565-.022.55-.036c.18-.013.356-.03.53-.047l.508-.058.245-.032.472-.072.444-.079.414-.084c.265-.058.508-.12.726-.182l.308-.095.267-.095c.37-.143.594-.283.635-.401L26.75 31l.001-2.26c-.749.351-1.742.615-2.898.785zm7-3-.516.068-.535.056-.553.044a25.13 25.13 0 0 1-.998.047l-.001 2.495.394-.015.55-.036c.18-.013.356-.03.53-.047l.508-.058.245-.032.472-.072.444-.079.414-.084c.265-.058.508-.12.726-.182l.308-.095.267-.095c.37-.143.594-.283.635-.401L33.75 28l.001-2.26c-.749.351-1.742.615-2.898.785zm-7-1-.516.068-.535.056-.553.044c-.561.038-1.146.057-1.749.057-.603 0-1.188-.02-1.749-.057l-.553-.044-.535-.056-.516-.068c-1.155-.17-2.149-.433-2.897-.785V27c0 .126.232.281.642.44l.267.095.308.095c.163.047.341.093.532.138l.397.087.211.041.444.08.472.07c.08.012.162.023.245.033l.509.058c.173.018.35.034.53.047l.549.036.565.022a21.804 21.804 0 0 0 1.158 0l.565-.022.55-.036c.18-.013.356-.03.53-.047l.508-.058.245-.032.472-.072.444-.079.414-.084c.265-.058.508-.12.726-.182l.308-.095.267-.095c.37-.143.594-.283.635-.401L26.75 27l.001-2.26c-.749.351-1.742.615-2.898.785zm4.397-2.761v2.471l.394-.015.55-.036c.18-.013.356-.03.53-.047l.508-.058.245-.032.472-.072.444-.079.414-.084c.265-.058.508-.12.726-.182l.308-.095.267-.095c.41-.159.642-.314.642-.44s-.232-.281-.642-.44l-.267-.095-.308-.095a11.25 11.25 0 0 0-.532-.138l-.397-.087-.211-.041-.444-.08-.472-.07c-.08-.012-.162-.023-.245-.033l-.509-.058c-.173-.018-.35-.034-.53-.047l-.549-.036-.394-.016zm-1.499-2.025c-.749.352-1.742.616-2.898.786l-.516.068-.535.056-.553.044c-.561.038-1.146.057-1.749.057-.603 0-1.188-.02-1.749-.057l-.553-.044-.535-.056-.516-.068c-1.155-.17-2.149-.433-2.897-.785V23c0 .126.232.281.642.44l.267.095.308.095c.163.047.341.093.532.138l.397.087.211.041.444.08.472.07c.08.012.162.023.245.033l.509.058c.173.018.35.034.53.047l.549.036.565.022a21.804 21.804 0 0 0 1.158 0l.565-.022.55-.036c.18-.013.356-.03.53-.047l.508-.058.245-.032.472-.072.444-.079.414-.084c.265-.058.508-.12.726-.182l.308-.095.267-.095c.37-.143.594-.283.635-.401L26.75 23zM20.5 17.75l-.291.002-.288.006-.565.022-.55.036c-.18.013-.356.03-.53.047l-.508.058-.245.032-.472.072-.444.079c-.072.013-.142.027-.21.041l-.398.087c-.19.045-.369.091-.532.138l-.308.095-.267.095c-.41.159-.642.314-.642.44s.232.281.642.44l.267.095.308.095c.218.062.461.124.726.182l.414.084.444.08.472.07c.08.012.162.023.245.033l.509.058c.173.018.35.034.53.047l.549.036.565.022a21.804 21.804 0 0 0 1.158 0l.565-.022.55-.036c.18-.013.356-.03.53-.047l.508-.058.245-.032.472-.072.444-.079c.072-.013.142-.027.21-.041l.398-.087c.19-.045.369-.091.532-.138l.308-.095.267-.095c.41-.159.642-.314.642-.44s-.232-.281-.642-.44l-.267-.095-.308-.095a11.863 11.863 0 0 0-.726-.182l-.414-.084-.444-.08-.472-.07c-.08-.012-.162-.023-.245-.033l-.509-.058c-.173-.018-.35-.034-.53-.047l-.549-.036-.565-.022c-.19-.005-.384-.008-.579-.008z"/>
    </g>
</svg>
