<svg width="24" height="34" xmlns="http://www.w3.org/2000/svg">
    <g fill="none" fill-rule="evenodd">
        <path d="M12 .5c3.18 0 6.055 1.275 8.136 3.338A11.315 11.315 0 0 1 23.5 11.9c0 7.388-8.374 17.705-11.053 20.83C8.947 29.688.5 19.314.5 11.9c0-3.15 1.285-6 3.364-8.062A11.515 11.515 0 0 1 12 .5z" stroke="#8C2431" fill="#FFF" fill-rule="nonzero"/>
        <path fill="#8C2431" d="M5 16v-6h1.667l.833 4 .833-4H10v6H9v-4l-1 4H7l-1-4-.167 4z"/>
        <path d="M14 10v3.667c0 .86-.07 1.833-1.535 1.833C11 15.5 11 14.5 11 13.667V10M17.4 10v4.583c0 .611-.222.917-.667.917h-.666c-.445 0-.667-.306-.667-.917v-.916M19 10v6" stroke="#8C2431"/>
    </g>
</svg>
