<svg width="24" height="34" xmlns="http://www.w3.org/2000/svg">
    <g fill="none" fill-rule="evenodd">
        <path d="M12 0C5.366 0 0 5.321 0 11.9 0 20.825 12 34 12 34s12-13.175 12-22.1C24 5.321 18.634 0 12 0z" fill="#8C2431" fill-rule="nonzero"/>
        <path fill="#FFF" d="M5 16v-6h1.667l.833 4 .833-4H10v6H9v-4l-1 4H7l-1-4-.167 4z"/>
        <path d="M14 10v3.667c0 .86-.07 1.833-1.535 1.833C11 15.5 11 14.5 11 13.667V10M17.4 10v4.583c0 .611-.222.917-.667.917h-.666c-.445 0-.667-.306-.667-.917v-.916M19 10v6" stroke="#FFF"/>
    </g>
</svg>
