<?xml version="1.0" encoding="UTF-8"?>
<svg width="159px" height="90px" viewBox="0 0 151 87" version="1.1" xmlns="http://www.w3.org/2000/svg" xmlns:xlink="http://www.w3.org/1999/xlink">
    <path d="M2.6 2.4C2 .9 1.3.5 0 .5V.2h5.8v.4c-1 0-1.3.2-1.3.6 0 .6.3 1 5.8 15.5L15.6 3c.3-.7.5-1.4.5-1.8 0-.6-.8-.6-1.3-.6V.2h4.8v.4c-1.5.1-1.9.5-2.4 1.8l-7.1 16.9c-.1.3-.3.4-.4.4-.1 0-.3-.1-.4-.4L2.6 2.4zm25.6 17h-5.7V19h.1c1.6 0 1.6-1 1.6-3.1V5.4c0-2-.3-2.3-1.7-2.4v-.4h5.3V3C26 3 26 3.4 26 6.1V16c0 2.5.1 3 2.2 3v.4zm17.8-3c-.9 2-2.8 3.3-5.9 3.3-5.3 0-8.5-3.6-8.5-8.6 0-4.7 3.3-8.7 8.8-8.7 1.7 0 3.2.3 5 1 .3.1.3.2.3.4l-.2 3.4h-.4c0-1-.2-2.1-1-2.7-1-.8-2.2-1.3-4.1-1.3-4.5 0-6.5 3.4-6.5 7.4 0 4.1 2.2 8.2 6.7 8.2 2.6 0 4.3-1 5.1-2.6.2-.4.3-.4.5-.4.3.1.4.2.2.6zm17.5-11h-.4c-.1-1.3-.2-1.8-2.3-1.8h-3.2v12.5c0 2.6.3 2.9 2.2 2.9v.4H54V19c1.4 0 1.6-.7 1.6-2.4v-13h-2.8c-2.2 0-2.7.1-2.8 1.8h-.4l-.1-2.8s2.3.1 3.3.1h7.7c1.3 0 2.4 0 3.1-.1l-.1 2.8zm11.4 14.3c-6.1 0-8.6-4.7-8.6-8.7 0-3.6 2.6-8.6 8.7-8.6 5 0 8.7 3.1 8.7 8.3 0 4.9-3.4 9-8.8 9zm0-16.6c-3.7 0-6.5 2.4-6.5 7.3 0 5.1 3.1 8.5 7.1 8.5 2 0 6.1-1.1 6.1-7.6 0-5.3-3.2-8.2-6.7-8.2zm27.5 16.3h-1.9c-2.3 0-3.2-1.6-4.4-3.6-1.1-1.7-2.2-4-3.6-4.1l-1-.1c-.1 0-.2 0-.2.2v4.4c0 2.6.5 2.8 2.2 2.8v.4h-5.7V19c1.3-.1 1.6-.2 1.6-2.8V4.6c0-1.2-.7-1.5-1.9-1.5v-.5h5.8c3.2 0 5.3 1.4 5.3 4.1 0 2.2-1.8 4.1-3.8 4.7 1.7.6 3 4.4 4.4 5.9 1.4 1.5 2 1.7 3.2 1.7v.4zm-9-8.3c2 0 3.3-1.5 3.3-3.9 0-2.5-1.5-3.9-3.8-3.9-1.3 0-1.6 0-1.6.4v6.9c0 .2 0 .3.4.4 0 0 1.1.1 1.7.1zm18.3 8.3H106V19h.1c1.6 0 1.6-1 1.6-3.1V5.4c0-2-.3-2.3-1.7-2.4v-.4h5.3V3c-1.6 0-1.7.4-1.7 3.1V16c0 2.5.1 3 2.2 3v.4zm14.4-.3c.8 0 1.2-.2 1.2-.6 0-.3 0-.3-.2-.9l-1.8-4.6c0-.1-.1-.1-.2-.1h-4.8c-.1 0-.2.1-.2.2l-1.2 3.6c-.1.4-.4 1.3-.4 1.8s.5.7 1.4.7v.4H115l.1-.4c1.5-.1 1.9-.6 2.4-2l5.1-13.9c.3-.7.3-.8.5-.8.1 0 .2.1.5.8l5.3 13.7c.5 1.3 1.1 2.2 2.6 2.2l.1.4h-5.3v-.5zm-1.2-7.2l-2.1-6.1c0-.1-.1-.3-.2-.3s-.1.1-.2.3l-2 6v.1s0 .1.1.1l4.4-.1c0 .1 0 .1 0 0zm6.8-7c.6-.1.9-.9 1-1.2.1-.3.2-.6.1-.8-.1-.3-.3-.4-.6-.5-.1-.1-.3-.2-.4-.3-.2-.2-.2-.4-.2-.7.1-.4.5-.6 1-.6.8.2 1.1 1 1 2.2 0 .4-.4 2.2-1.9 2.3v-.4zm10.2 14.8c-1.3 0-2.6-.1-4-.9v-3.2h.4c.1 2.5 1.8 3.3 3.8 3.3 2.3 0 3.5-1.5 3.5-2.9 0-1.8-1.1-2.9-3.5-4.4-3.2-2-4-3.5-4-5.2 0-2.3 1.8-4.1 4.7-4.1 1.6 0 2.6.3 3.7.7v2.7h-.5c-.1-.5-.2-.9-.4-1.4-.1-.2-.8-1.2-3.1-1.2-1.7 0-3 1.1-3 2.7 0 1.5 1.1 2.4 3.8 4.1 2.6 1.7 3.8 3.4 3.9 5.1 0 2.8-2.2 4.7-5.3 4.7zM30.2 42.6v-3.5h.5c.2 2.9 2.2 3.8 4.5 3.8 2.7 0 4.1-1.7 4.1-3.5 0-2-1.3-3.3-4-5-3.7-2.3-4.5-4.1-4.5-5.8 0-2.7 2-4.6 5.5-4.6 1.9 0 4 .7 4 .7v2.9h-.5c-.1-.5-.2-1-.5-1.5-.2-.3-1-1.4-3.6-1.4-2.1 0-3.6 1.3-3.6 3.2 0 1.8 1.4 2.9 4.4 4.8 2.9 1.9 4.4 3.8 4.4 5.8 0 4.9-4.9 5.2-6.1 5.2-3.1 0-4.6-1.1-4.6-1.1zm26.2-2.2v3H45.1V43c1.2 0 1.6-.3 1.6-2.5v-12c0-1.1-.7-1.5-2-1.5v-.4c.9.1 2.2.1 3.4.1h4.8c.5 0 2.7-.1 2.7-.1v2.9h-.4c-.1-1.8-1.1-1.9-3.2-1.9h-3.2c-.2 0-.3.1-.3.2v6.1c0 .1 0 .2.1.2h4c.7 0 1-.3 1.2-.9h.4v3.5h-.4c0-.8-.1-1.5-1.3-1.7-.7-.1-3.4-.1-3.8-.1-.1 0-.2.1-.2.2v6.4c0 1.2.1 1.2 2.9 1.2.9 0 3 0 3.5-.3.7-.3.9-.9 1-1.9h.5zm17.9-.1c-.9 2-2.8 3.3-5.9 3.3-5.3 0-8.5-3.6-8.5-8.6 0-4.7 3.3-8.7 8.8-8.7 1.7 0 3.2.3 5 1 .3.1.3.2.3.4l-.2 3.4h-.4c0-1-.2-2.1-1-2.7-1-.8-2.2-1.3-4.1-1.3-4.5 0-6.5 3.4-6.5 7.4 0 4.1 2.2 8.2 6.7 8.2 2.6 0 4.3-1 5.1-2.6.2-.4.3-.4.5-.4.4.1.4.2.2.6zm18.5 3.1h-1.9c-2.3 0-3.2-1.6-4.4-3.6-1.1-1.7-2.2-4-3.6-4.1l-1-.1c-.1 0-.2 0-.2.2v4.4c0 2.6.5 2.8 2.2 2.8v.4h-5.7V43c1.3-.1 1.6-.2 1.6-2.8V28.5c0-1.2-.7-1.5-1.9-1.5v-.4h5.8c3.2 0 5.3 1.4 5.3 4.1 0 2.2-1.8 4.1-3.8 4.7 1.7.6 3 4.4 4.4 5.9 1.4 1.5 2 1.7 3.2 1.7v.4zm-9-8.3c2 0 3.3-1.5 3.3-3.9 0-2.5-1.5-3.9-3.8-3.9-1.3 0-1.6 0-1.6.4v6.9c0 .2 0 .3.4.4 0 0 1.1.1 1.7.1zm22.9 5.3v3H95.5V43c1.2 0 1.6-.3 1.6-2.5v-12c0-1.1-.7-1.5-2-1.5v-.4c.9.1 2.2.1 3.4.1h4.8c.5 0 2.7-.1 2.7-.1v2.9h-.4c-.1-1.8-1.1-1.9-3.2-1.9h-3.2c-.2 0-.3.1-.3.2v6.1c0 .1 0 .2.1.2h4c.7 0 1-.3 1.2-.9h.4v3.5h-.4c0-.8-.1-1.5-1.3-1.7-.7-.1-3.4-.1-3.8-.1-.1 0-.2.1-.2.2v6.4c0 1.2.1 1.2 2.9 1.2.9 0 3 0 3.5-.3.7-.3.9-.9.9-1.9h.5zm17-11h-.4c-.1-1.3-.2-1.8-2.3-1.8h-3.2v12.5c0 2.6.3 2.9 2.2 2.9v.4h-5.7V43c1.4 0 1.6-.7 1.6-2.4v-13h-2.8c-2.2 0-2.7.1-2.8 1.8h-.4l-.1-2.8s2.3.1 3.3.1h7.7c1.3 0 2.4 0 3.1-.1l-.2 2.8z">
    </path>
    <path fill="#EB008B" d="M79.2 75.8zm-3.5-7.4c0 .1 0 .1.1.1l-.1-.1zm6.5-9c0 .1.1.1 0 0 .1 0 .1 0 0 0zm-4.8 14.8zm1.8 1.6zm-4.4-.4c0 .1-.1.3.1.2.1-.1.1-.3-.1-.2zm2.5-2.8s-.1 0 0 0zm2.2 3.2zm.4-14.3zm.1-.1zm6.9 6.8zm-11-.8c-.2.1-.2.2-.1.3l.1-.3zm4-6zm.1 0s0 .1 0 0c0 .1 0 0 0 0zm-.3 14.3c-.7 0-.2 0-.3-.1l-.1-.1c0-.1-.1-.1-.1-.1h-.1-.1v.2h.1l.1.2h-.1s0 .1.1.1l.1-.1v.1h.1v-.1l.3-.1c0 .1 0 0 0 0zm.2-14.2s.1 0 0 0zm5.2 9.3c.1 0 .1 0 0 0zm-5.8-8.9zm2.6 12.3l-.1.1s.1 0 .1-.1zm1.7-1.2c-.1-.1-.2 0-.2.2.1 0 .2.1.2-.2l-.1.1c0-.1 0-.1.1-.1zm-2.4 1.4c.3.1.3 0 .4-.1l.3-.2c-.3 0-.6.1-.7.3zm2.1-.9l.1-.1c-.1 0-.1 0-.1.1zm.3-.5zM91 52.7c.1.1-.1.3-.2.4l-.1.2c-.1.1-.1.2-.2.3l-.1.1v.1l-.1.2c-.2 0-.3 0-.3.1s0 .2-.2.2l-.2.2-.2.1c-.1 0-.1 0 0 .1 0 0 0 .1-.1.1v.1c0 .1 0 .2-.1.3h-.1c0 .1-.1.1-.2.3v-.1l-.1.1c-.3.2-.4.4-.5.5l-.4.5c0 .1 0 .1-.1.2v.1c-.4.3-.3.2-.4.3-.1.1-.3.2-.4.3l-.2.2c-.2.2-.3.4-.4.5l-.6.6h.2v.1l.1-.1c.6.2 1.1.3 1.5.6l.2-.1c.5.5.7.8.9.9 0 .1-.1 0-.1.1.2-.1.1.1.1.2 0 0 0 .1.1.1.2.1.2.3.2.4 0 .2.1.4.2.4v.3l.1.6.1.1c0 .2 0 .3.1.4-.2.1-.2.1-.2.2l.1-.1c0 .1-.1.2-.1.3 0 .1-.1.2-.1.2v.2l.1-.2c.3.3.1.4 0 .6-.1.2-.2.4-.2.5-.1 0 0 .1 0 .1 0 .1 0 .2-.1.3 0 .2-.1.7-.2.8h.1c0 .1-.1.2-.1.2 0 .1-.1.4-.1.4 0 .4-.1.7-.3 1l-.2.3V67.8s-.1.2-.2.2c-.1.3-.3.7-.5.9 0 .1-.1.2-.2.3v.1c-.1.1-.2.4-.4.6-.1.2-.2.4-.4.6 0 0 0 .1-.1.1l-.1.1c0 .1-.2.4-.4.6-.1.1-.2.2-.3.5-.1 0-.3.2-.4.4l-.3.5-.2.1-.3.4c-.4.6-1 1.1-1.5 1.5-.3.3-.6.6-.9.8-.3.2-.6.4-.7.6l-.4.2c-.1 0-.2.1-.3.1-.1.1-.4.2-.5.3-.2.1-.4.1-.5.2H79.3c-.2.1-.4 0-.5-.1h.2v-.2h-.1v.1s-.1 0-.2-.1l.1-.1-.1-.1c-.1-.1-.1-.2-.1-.3h-.2c.1-.2 0-.2 0-.2l-.1-.1c-.1 0-.1.1-.2 0H78c-.1 0-.1-.1-.3-.2l-.3-.3c-.1-.2-.3-.4-.4-.9h.1v-.1c.1 0 .1 0 .1-.1l-.1.1v-.2c-.3-.2-.2-.6-.2-.8 0 0 0-.1.1-.2 0 0-.1 0-.1-.1-.1-.1 0-.1.1-.1l-.1-.1v-.1c0-.1 0-.1.1-.2l.2-.2V72.6h.1v-.2c0-.1.1-.2.2-.3 0 0 0-.1.1-.1 0 0-.1-.1-.2 0v-.2c-.1-.1-.1-.1 0-.3 0 0-.1 0-.1-.1 0 0-.1 0-.1-.1 0 0 0-.1.1-.2l.1-.1s0-.1.1-.1c0-.1.2-.3.3-.3v-.1l-.1-.1c-.1-.1 0-.1.2-.3h.1c0-.1 0-.1.1-.1v-.1h.1c0-.1.2-.3.4-.4 0-.1.1-.1.2-.2s.2-.2.2-.3h.1v-.1c.2-.2.4-.3.5-.4l.2-.1s.1 0 .1-.1c.2 0 .3-.1.4-.2.1-.1.2-.2.4-.3l.2-.1c0 .2-.2.5-.3.6-.1.1-.1.1-.2.3 0 .2-.1.5-.2.8l.1.1c-.1.1-.1.2-.1.2v.4l-.1.2c-.1.1-.1.2 0 .2 0 .2-.1.3-.1.3 0 .1-.2.5-.2.4-.2.5-.4.8-.5 1.1v.1c0 .1 0 .1-.1.2v-.1c0-.4-.1.4-.2.6-.1.3-.2.6 0 .8.1 0 .1.1.1.2s.1.1.2.2.2 0 .2.2h.4c0 .1-.1.1-.1.1l.2-.1c.1 0 .2.2.2.2h-.4v-.1l-.1.1h.9l.5-.2.4-.1-.2.2c.1 0 .2-.1.3 0h.1l.2-.1v-.1c0-.2.1-.2.2-.2v.1l.1-.1v-.1c.2-.2.3-.2.5-.3.2-.1.4-.3.6-.4.1 0 .2-.1.2-.1l-.1-.1c.1 0 .3-.2.3-.2V72.7c-.2.1-.5.3-.7.4l-.1.1v-.1l.1-.1h.1s0-.1.1-.1c0 0 .1 0 0-.1 0 0 0-.1.1-.1h-.1c.2-.2.3-.3.4-.3v-.1l.1-.1c.1 0 .2 0 .2-.1.1 0 .1-.1.1-.1 0-.1.1-.1.2-.2 0-.1 0 0 0 0h-.1c.1.2-.1.3-.1.2h.1c0-.1.1-.1.1-.1h.1l.2-.2v-.1s-.1 0-.1-.1.1-.1.1-.1v-.2c.1-.2.4-.3.4-.2l.1-.1s-.1 0-.1-.1c0 0 .1 0 .2-.1v.1s-.1 0-.1.1h.1l.2-.2h-.1l.1-.1s0-.1.2-.1v-.1c.1-.1.1-.1.2-.1 0 0 0-.1.1-.1 0-.1.1-.2.2-.3h-.1l-.3.1.3-.3h-.1l.1-.1h-.2l.2-.3.2-.2c.1 0 .1 0 .2.1v-.1s0-.1.1-.1v-.1c.1-.1.1-.2.2-.2l.1.1v.1l.1-.1c0-.1.1-.2.2-.3 0 0-.1.1-.1.2h-.1c-.1 0-.2 0-.1-.2l.1-.1h.2l.1-.1s0-.1.1-.2V68.4l.1-.1c.1 0 .2-.1.1-.2h-.1V68h-.6c.1-.2.2-.3.3-.3h.1v-.1s.1 0 .1-.1h-.1s-.1 0-.1.1c0-.1 0-.3.1-.3h.2s.1 0 .1-.1h-.1s0-.1.1-.1c0 0-.1.1-.2.1 0-.2 0-.3.1-.3h.2s0 .1-.1.1c0 0 0-.1.1-.1l.1-.1h-.3c.1-.1.1-.1.1-.3.1.1.1 0 .2-.1h.2l.1-.1c0-.1 0-.1.1-.2 0 0-.1.1-.2.1.1-.1.2-.2.2-.4l-.1-.1v-.3c.1.1.1 0 .1 0v-.2s0-.1.1-.2c0-.2.1-.3.1-.5l.1-.2c0-.1.1-.3.1-.5 0-.1 0-.3.1-.4h-.2c0-.3.1-.9-.1-1.1v-.2c-.2-.5-.6-1.1-1.2-1.1-.5 0-1 .1-1.6.3h-.1l-.6.3c-.2.1-.3.2-.6.3-.1.1-.3.2-.5.3l-.1.1c-.2.2-.4.3-.8.4v.1l-.3.1c-.3.1-.6.4-.9.6h-.3c-.1.1-.3.2-.3.3 0 0-.2 0-.2.1-.3 0-.5.2-.7.4l-.3.2c-.3.2-.9.5-1.4.5v.4c0 .3-.1.5-.1.7v.3c0 .2-.1.5-.2.7 0 .1.1.3 0 .4 0 .1-.1.3-.1.4v.5c0 .1 0 .2-.1.2 0 .1-.1.2 0 .3v.3c0 .3-.1.5-.1.6 0 .2 0 .6-.1.9-.1.2 0 .3-.1.4 0 .2 0 .5-.1.8-.1 0-.1.1-.1.1s-.1.2-.1.3c-.1 0-.1-.2-.1-.1v.2l-.1.3v.6l-.2-.2h-.1l-.1.2c-.1.2-.2.4-.2.5 0 0 0 .1-.1.2 0 .1-.1.3-.1.4v.4c-.1.1-.3.4-.4.6l-.4.5-.4.1v-.4-.2s-.1-.1.1-.2h.1l-.2-.1c.1-.2.1-.3.1-.4v-.3c-.1-.1 0-.2 0-.3V74v-.2s0-.1.1-.1v-.1c.1 0 0-.1.1-.2 0 0-.1-.1-.1-.2 0-.7.1-1.1.2-1.9 0 0-.1 0 0-.1V71s.1-.1 0-.1 0-.2 0-.2c0-.1 0-.1.1-.1 0-.1 0-.2.1-.3-.1-.1 0-.2 0-.3l.1-.2v-.5-.4s0-.1.1-.1l.1-.1v-.1h-.2s.1-.1.1-.3c0-.1 0-.1.1-.1v-.1h.1s-.1-.1 0-.2h.1c.1-.1.1-.2.2-.3h-.1v-.2l.1-.1h.1v-.5c.1 0 .1-.1.1-.1l-.1.1c0-.1 0-.4.1-.6.1-.2.1-.3.1-.4v-.1h-.1s0-.1.1-.2c0-.1 0-.2.1-.2h-.1c.1-.1.1-.1.1-.2V65h-.1l.1-.1v-.4c0-.1 0-.1.1-.2l-.1-.1c-.1-.1 0-.1.1-.2h-.1l.1-.2v-.2-.2s0-.1.1-.2c0-.1 0-.1-.1 0 0-.2 0-.4.1-.5l-.1-.1s0-.1.1-.1V62.4h.1c0-.1.1-.2.2-.3v-.4c0-.1.1-.2 0-.3H77c.1-.3.1-.3.1-.4 0-.1 0-.2.1-.4 0 0 0-.1.1-.1l-.3-.3V60c.2-.5.2-1.1.3-1.7l.1-.1v-.1c-.2-.1-.1-.2 0-.3v-.2-.2l.1-.7c.3-1.4.5-2.7.9-4.2l.1-.5c.1-.5.3-1.1.4-1.7.2-.3.1-.3.1-.4l.2-.5c0-.4.2-.8.3-1.1.1-.3.2-.7.2-1v-.1l-.1-.2c.1 0 .2-.2.2-.3l-.1-.1s-.1-.1-.3 0c0 0 0-.1.1-.2-.2-.1-.1-.4 0-.7l.1-.1c.2-.5.7-.9 1-1.3l.1-.3c.1-.3.1-.5.2-.8l.1-.3c.1-.2.2-.5.1-.7.2-.3.5-.4.9-.6l.6-.3c0 .1.2 0 .2 0 .1 0 .1 0 .2.1h.4l.1.1c.2 0 .4 0 .4.1 0 0 .2 0 .2.1l.8-.4c.3-.2.8-.4 1.2-.6h.1l.1-.2c.2 0 .4 0 .4-.2h.2c.8-.4 1.7-.6 2.4-.6 0 0 0-.1.1-.1.1.1.1 0 .2 0h.2l-.1.1h.2c.1 0 .2-.1.4 0 1.1 0 2 .5 2.7 1.1l.1.1c.1.1.2.4.2.4h.1l.3.5c.3.7.6 1.3.6 2.3v.2c0 .1-.1.2 0 .3v.4l-.1.5c-.1.2 0 .4 0 .6 0 .1-.1.2-.1.3l-.1.2c-.1.2-.2.5-.2.7l-.1.1v.1c0 .1-.1.2-.1.3 0 .1-.1.2-.1.3 0 .2-.1.6-.2.7-.1.1-.1.4-.2.5-.1.1-.2.3-.2.4-.1.1-.2.3-.3.5l-.2.6c-.1 0-.1.1-.1.1 0 .1-.1.2-.2.2 0 .1-.1.1-.2.2v.1c-.1.2-.3.4-.5.7-.1.1-.2.4-.4.6zM75.6 70.2c.1-.1.1-.1 0 0zm.3-1.1s0-.1 0 0h-.2c0 .2.1.2.1.2l.1-.2zm.1-1.2v0zm.4-.2c-.1-.1-.1 0 0 0zm0-1.9l-.2.1c.2 0 0 .4 0 .5l.1-.1c-.1-.1 0-.1 0-.2.1 0 .1-.2.1-.3zm.2-1h-.1.1-.1.1zm0-.2zm0-1.3h-.1l.1.1v-.1zm.1.3c.1 0 0 0 0 0zm.6-4.4c.1-.2.1-.1 0 0zm-.2 12H77v.1h.1v-.1zm.2-1.1l-.1.2h.1c-.1-.1 0-.2 0-.2zm.2-.9h-.1v.3l.1.1v-.2c-.1 0-.1-.1 0-.2zm.2-4.1s.1-.1 0 0zm.1 1.7c-.1 0-.1 0-.1.1v.1h.1c-.1-.1-.1-.2 0-.2zm.1-1.3l-.1.1.1-.1c-.1.1 0 0 0 0zm.7-4.1h-.1.1v.1-.1zm-.6 9.4c.1-.1.1-.1 0 0zm-.1 1.3c.1 0 .1-.1 0 0l.1-.1s0 .1-.1.1zm.1-.5zm0-.4c0-.1 0-.1 0 0v.1c-.1 0-.1 0 0 .1.1-.2.1-.2 0-.2zm-.4 1.4s-.1 0 0 0v.3h-.1v.1c.2.2.1.3.1.4.1-.1.1-.2.1-.2V73h-.1c0-.1.1-.2.1-.2-.1-.1-.1-.2-.1-.2zm.1.9s-.1 0-.1-.1l.1-.1h-.2v.4c.1.1.2 0 .2-.2zm.1.4c-.1.1-.1.1-.1.2.1-.1 0-.1.1-.2zm0-.8zm.1-.5l-.1.1h-.1c.1.1.2.1.2-.1zm.2-.4l-.1.1v.1l-.1.1.1.1c0-.2 0-.3.1-.4zm.1-.7c-.1 0-.1.1-.1.1 0-.1.1-.1.1-.1zm.1-.6c.1 0 .1 0 0 0zm.2 4.3h-.1v.1l.1-.1c-.1.1-.1.1 0 0zm2.3-.2zm-.2.3c.1 0 .2-.1.2-.1.2-.1.4-.2.5-.2v-.1c-.1.2-.5.2-.7.3v.1zm-.2 0c.2 0 0 0 0 0zm-.5-.1c.1.1.2.1.3.1h.1v-.1l-.2.1c0-.1 0-.1-.2-.1h.1-.1zm.2.2c-.1 0-.2 0 0 0v.2-.2zm-.3.2h.2-.2zm-.4-.4c.1.1.2 0 .2 0h.1c.1 0 .1-.1.1 0l.1-.1c-.2.1-.4.1-.4 0l-.1.1zm1.6.5c-.2-.1-.3 0-.4.1-.1-.1-.2 0-.3 0-.1 0-.2.1-.3.1h-.1l-.1-.1v-.1h-.1-.1s-.1 0 0-.1c0-.1-.1-.1-.2-.2v-.1c-.1 0-.3 0-.3-.1h-.2c-.1 0-.1-.1-.2 0h-.1.2v.1c0 .1.1.2.1.2v.1h-.2s0-.1-.1-.1h-.1l.1.1v.1l.1-.1h.1v.2l.1-.1h.1c0 .1 0 .1.1.1 0 .1.1.1.1.2H79.5v-.2c0 .1 0 .2.1.2v-.1s.1 0 .1-.1h.2v.1h.5s.1 0 .1-.1c0 0 .1-.1.2-.1h.3zm.3-.3h-.2c-.1 0-.2 0-.3.1 0 0 .2-.1.3-.1h.2zm.2-.3s-.1.1-.2.1-.2 0-.2.1l.1.1c.1-.1.3-.1.4-.1l-.1-.2zm.6-.7s0 .1-.1.1l.1-.1c.1 0 .1 0 0 0 .1 0 0 0 0 0zm-.3.7h-.1v.1l.1-.1h-.1.1zm0-.2c.1 0 .1-.1 0 0zm.2-.3zm.3-.3s-.1 0-.1.1l.1-.1zm.4 0h-.1-.1v.1s.1-.1.2-.1zm1.1-2l-.1.1s.1 0 .1-.1zm.9-1.1h-.2c.1.1.1.1.2 0zm1.3-1.7s-.1 0-.1.1h-.1v.1h.1c0-.1 0-.2.1-.2zm1.7-2.9h-.1s0 .1-.1.1l.1.1s0-.1.1-.2c-.1.1-.1.1 0 0zm1.5-2.6c0-.1-.1-.1 0 0zm-.7-2.8c0-.1 0-.2-.1-.2v-.1h-.2s.1 0 .1.1l.2.2zm-.1-.7l-.1.1c.1.1.1 0 .1.1h.1l-.1-.2c0 .1 0 .1 0 0zm.3 1v-.2l-.1.1c0 .1 0 .1.1.1zm-.4-1.3c.1.1.2.2.3.4l.1-.1-.2-.2-.1-.2-.1.1zm-.2-.2c.1 0 .1 0 0 0h.1c0-.1 0-.1-.1 0zm0 .6c.1 0 .1.1.1.2h.1v-.1-.1h-.2zm-.2-.3c0 .1 0 .1 0 0h.1v-.1l-.1.1zm-.2-.1c0 .1 0 .1 0 0l.1.1c.1-.2 0-.2 0-.2l-.1.1zm-.2-.2c0 .1.1.1.1.1V60v-.1l-.1.1zm3.8-7.7h-.1c0 .1 0 .1-.1.1 0 .1.2-.1.2-.1zm-11.5 4.4v.2l.1-.1s0-.1-.1-.1zm-.2.8s0-.1.1-.1l-.1-.1c.1 0 0 .1 0 .2zm-.1.9c0 .1-.1.2-.1.3.1-.1.1-.2.1-.3 0-.1.1-.2.1-.4 0-.1.1-.2.1-.3 0-.1 0-.1-.1-.1 0 .1 0 .1.1.1v.3c-.1.1-.1.2-.2.4zm-.3-.6c0-.1 0-.2-.1 0 0 .2 0 .3.1 0zm-.2.7v.1c.1-.1.1-.1.1-.2l-.1.1zm-.1.5h.1v-.1-.1h-.1c.1.1.1.1 0 .2zm-.2 1.8v.1c.1 0 .1 0 0 0l.1.1c-.1-.1-.1-.1-.1-.2zm.1-1.3c.1 0 0-.1 0 0l.1-.1s0-.1.1-.1l.1-.1H79l-.1.2-.1.1c0-.1-.1 0 0 0zm0 .5c.1 0 .1 0 0 0l.1-.1s0-.1-.1-.1c0 0 .1 0 0-.1 0-.1 0-.1.1-.2h-.1v.2h-.1c.1.2.1.2.1.3zm.1 2.3h.1l-.1-.1v.1zm1.6-1.3l.1-.1-.1.1c-.1-.1-.1 0-.2 0l-.2.1c0 .1-.1.1-.2.2v.1h-.2v.1l-.2.1.1.1c0 .1 0 0 .1 0s.2-.1.2-.2v.1l-.1.1-.1.1s-.1 0-.1.1l-.3.2c-.1 0-.1 0-.1.1h.1l-.3.2h.1l.2-.2h.1l.4-.3c.1 0 .1-.1.2-.2l.1-.1c.1-.1.2-.2.3-.2l.2-.2-.1-.2zm-1.4 1.1s-.1 0 0 0zm.2-.2h.2l-.1-.1c0 .1-.1.1-.1.1-.1.1-.1 0 0 0zm.4-.5zm.7-.5c.1 0 .1-.1 0 0zm.5.3c0-.1-.1 0 0 0zm.3-.1c-.1-.1-.1-.1 0 0zm.1-.6v-.2l-.2.3c-.1 0-.1.2-.1.2-.1 0-.2.1-.2.1.1 0 .1 0 .2-.1.1 0 .1 0 .2-.1l.1-.2zm1.1-.4V60l-.1.1c-.1.1-.3.2-.5.3l-.4.4.1.1c.2-.2.4-.4.7-.6l.2-.2zm-.9.3c0 .1.1.1 0 0zm.5-.4l-.1.1s.1 0 .1-.1zm.2-.1l-.2.1c.1 0 .1 0 .2-.1zm.2-.3c0 .1 0 .1 0 0-.1.2-.1.1-.1.2-.1 0-.1.1-.2.1H82h-.1l-.1.2-.3.2.1.1c0-.1.1-.1.1-.2l.1-.1h.1l.2-.1c.1 0 .2-.1.2-.1l.1-.3zm-.1-.1c0-.1.1-.1 0 0l.1-.1-.1.1c0-.1-.1-.1 0 0h-.1.1c-.1 0-.1 0 0 0zm.8.1c-.1 0-.1.1-.2.1.1 0 .1-.1.1-.1h.1zm.4-.1c-.1-.1-.1 0 0 0h-.1c0-.1-.1 0-.1 0h-.1s-.1 0-.2.1c0 0-.1 0-.1.1-.1 0-.2.1-.2.1h-.1.2c.1 0 .1-.1.2-.1l.1-.2h.4l.1-.1-.1.1c-.1 0 0 0 0 0zm-.7-.1l-.1.1c0-.1 0-.1.1-.1zm1.2-.3c-.2 0-.3.1-.5.3 0 0 .1 0 .1-.1.1 0 .2-.1.4-.2zm.5-.6c-.1 0-.1 0 0 0l-.2.1h-.1v.1l-.1.1c-.1 0-.1 0-.1.1 0 0-.1 0-.2.1l.1.1c.1 0 .1 0 .1-.1l.1-.1h.1v-.1l.1-.2c.1 0 .1 0 .2-.1zm.4-.3h-.1s-.1 0-.1.1h-.1v.1l.1-.1h.1c-.1-.1-.1-.1.1-.1zm.3-.3l-.2.1c.1 0 .2 0 .2-.1zm6.4-10.3c0-.1.1-.2.1-.3l.2-.6v-.1-.1c0-.2.1-.3.1-.4.1-.5.3-1.1.3-1.7v-1.1c-.1-.6-.2-1.2-.6-1.4h-.1v-.1h-.3c-.6 0-1.2 0-1.7.2h-.2l-.4.3c-.2.1-.5.2-.8.3v-.1c-.1 0-.1.1-.2.2h-.1c-.7.3-1.4.7-1.9 1.2l-.4.3c-.2.3-.5.4-.8.6-.2.2-.4.3-.6.5-.2.1-.5.4-.7.6 0 0 .1 0 .1.1l-.1.1c-.1.1-.1.3-.1.2-.1 0 0 0 0 0v.1s0-.1 0 0c0 0 0 .1.1.2H83c0 .1 0 .1-.1.2 0 .1-.1.2-.2.3v.1c0 .1-.1.2 0 .2 0 0 0 .1-.1.2 0 .2-.1.3-.1.4v.3l-.2.2c0 .1 0 .2-.1.3 0 .1-.1.2-.1.4-.2.2-.3.5-.4.8-.1.3-.2.6-.3.8 0 .3-.1.7-.3 1.1-.1.3-.2.7-.3 1-.1.1-.1.1-.1.2s-.1.2-.1.2c0 .1-.1.3-.1.5-.1.2-.1.3-.1.4-.1.1-.1.2-.1.3 0 .1 0 .2-.1.3-.1.3-.2.8-.3 1.1l.1 1c-.1.3-.1.3-.2 1-.1.2-.1.3-.1.5s0 .4-.1.6c0 .1 0 .2-.1.2 0 .1 0 .1-.1.2 0 .3 0 .6-.1.9 0 .1-.1.2-.1.2 0 .2 0 .3-.1.5H79v-.2-.2s.1-.1.1-.2c.1-.2.1-.3.1-.4v-.2l-.1.4c-.1.2-.1.4-.1.6v.4c0 .2 0 .4-.1.6v.1l.1-.1.1-.2.2-.2v-.1h.1c.1-.1.1-.1.2-.1.1-.2.5-.4.6-.6l.5-.4h.2l.2-.2c.2-.2.5-.5.7-.6.2-.1.4-.3.6-.5l.6-.5c.5-.4 1-.9 1.5-1.4l1.2-1.1.2-.3.3-.4c.4-.3.5-.4.6-.6.2-.3.3-.4.5-.6v-.1c.3-.2.5-.4.6-.6 0 0 0-.1.1-.1.1-.1.3-.3.4-.5.2-.2.4-.5.5-.7 0 0 0 .1.1 0v-.2l.1-.1c0-.1.2-.3.3-.4.2-.2.4-.4.5-.7.8-.9 1.2-2 1.7-3zM80.1 74.8c.1.1.2 0 .2-.1-.1-.1-.2 0-.2.1zm2.8-1.3c.1-.1.2-.1.3-.1h.1c-.1-.1-.4-.1-.4.1zm5.3-30.9c-.1 0-.1 0-.2.1v.1c.1 0 .2-.2.2-.2zM78.2 70l.1-.1c0-.1 0 0-.1.1zm2.6 4.7l.1-.1.1-.3-.3.3c.1 0 .1 0 .1.1zm6-6.6l.1-.1-.1.1zm-4 5.3l-.1-.1c-.1.1-.2.1-.3.2l-.2.1-.2.2v.3c.1 0 .1-.1.4-.4.2-.1.3-.2.4-.3 0 .1.1.1.1.1l.1-.2c-.1 0-.1.1-.2.1zm4.8-13.3zm-2.1 10l-.1.1s.1 0 .1-.1zm-.3.3l-.1.1s.1 0 .1-.1zm.2-.3zm-.8.8h.2c.1-.1-.1-.2-.2 0zm3-4.5c-.1.1-.1.1-.1.2l.2-.1c-.1 0 0-.1-.1-.1zm11.6-20.5zm2.8 8.3c-.1 0 0 .1 0 0zm1 .9c-.1 0-.2.2-.2.2v.1c.1-.1.4-.3.3-.4 0 0-.1 0-.1.1 0-.1.1-.1 0 0zm-1.2-.6v-.1.1zm-3.5 3.6s0-.1 0 0c0 0-.1 0 0 0zm2.2-2.2c.1 0 .1-.1.1-.2 0 0 0 .1-.1.2zm.8-.8V55s-.1.2 0 .1zm0-.1s.1 0 0 0zm11.2-9.2c-.2.9-.3 1.4-.5 2.2-.1 1-.3 1.8-.6 2.6 0 .2-.1.3-.1.5-.2.7-.3 1.4-.6 2.1 0 .6-.2 1.4-.3 2v.1c-.2.5-.1 1-.2 1.5 0 .1 0 .1-.1.2 0 .8-.1 1.3-.1 2.1 0 .2.1.3 0 .5v.2c-.1 0-.1 0-.1.1s.1-.1.1 0c.1.1-.1 0-.1.1v.3c-.1 0-.1.1-.1.2-.1 0-.2.1-.2.2-.1 0-.1 0-.1.1-.1 0-.1-.1-.1-.1-.1 0-.1.1-.2.1s-.1.2-.2.1c0 .1.1 0 0 .2-.5.3-.9-.4-1-.7-.5-1.4-.2-3.9.1-5.9-.2.4-.3.8-.5 1.1-.1.2-.1.3-.2.4-.2.5-.5.9-.8 1.4-.5.4-.8.7-1.6.9-.7.1-1.1-.1-1.5-.5-.1-.1-.2-.3-.3-.5 0-.2-.1-.3 0-.5l-.1-.1c0-.3 0-.5-.1-.7 0-.6 0-1.2.2-1.9-.1.2-.2.3-.4.4 0 .1-.1.1-.1.3-.2.2-.4.4-.5.7-.5.3-.6.9-1 1.2 0 0 .1 0 0 .1 0 0-.1 0-.1.1 0 .2-.3.2-.4.5-.4.2-.5.8-.9 1 0-.1.1-.1.1-.2-.1 0-.1.1-.2.2 0 .1.1.1.1.1-.2.3-.5.5-.7.7v.1H99c-.1.2-.4.4-.5.6-.2.1-.3.4-.5.4v.1c-.4.2-.5.7-.9.9 0 .2-.2.2-.3.3-.3 0-.4.4-.7.5v.1c-.3 0-.5.4-.8.4-.2.2-.4.2-.6.4-.1-.1-.2.1-.3 0h-.2c-.3.1-.5-.1-.8 0 0-.1-.3 0-.3-.1-.3-.1-.5-.2-.7-.4-.2.1-.3-.2-.4-.2-.1-.2-.3-.4-.5-.7 0-.1 0-.1-.1-.2 0-.1 0-.2-.1-.2.1-.2 0-.3-.1-.4 0-.5-.1-.9-.1-1.3v-.1-.1c.1-.2.1-.6.1-.9h.1c-.1-.3.1-.6.2-1 .1-.2.1-.4.2-.7h-.1c.2-.4.3-.8.5-1.3 0-.1-.1-.1-.1-.1 0-.1 0-.1.1-.2 0 0 0-.1-.1-.1.1 0 .1-.1.2-.2-.1 0 0-.1 0-.2.2-.1.4 0 .4-.3h.1c.1-.2.1-.3.2-.4 0-.1-.1.1-.1 0 .3-.3.4-.9.6-1.2 0-.2.2-.3.2-.5.1-.1.1-.4.3-.5 0-.1-.1 0 0-.1.3-.3.3-.6.6-1 0-.1 0-.1-.1-.1h.1c.2-.4.4-.6.6-1 .1-.1.2-.2.2-.3.1 0 0-.1.2-.1V49c.2 0 .2-.3.3-.3v-.1h.1c.3-.4.6-.8 1-1.1 0-.1 0-.1.1-.1v-.1h.1c.2-.3.6-.6.9-.9h.1c.1-.1.3-.2.4-.3.1 0 .2.1.4 0v.1c.5.2 1 .5 1.5.9 0 .1 0 .2.1.3 0 .4-.2.7-.3 1.1 0 .1 0 .2-.1.2 0 .2-.2.3-.1.3-.2.2-.2.6-.5.8 0 .1.1.1 0 .2-.2.2-.2.5-.5.6 0 .2-.2.2-.1.4-.2.2-.3.3-.3.5-.1.1-.3.2-.3.3-.1.2-.3.4-.3.6 0 .1-.2.1-.1.2-.1 0-.1.2-.2.3h-.1c0 .2-.2.4-.2.5-.2.2-.3.4-.6.5 0 .2-.2.2-.2.3-.1 0-.2.2-.4.3 0 0 0 .1.1.1 0 .1-.2.1-.2.1.1.1-.1.1-.2.3-.3 0-.2.3-.5.3v.1s.1 0 0 .1c-.1-.1-.1.1-.1-.1-.2.3-.5.5-.8.7 0 .1.1.1.1.1 0 .1-.1 0-.1.1-.2.1-.4.4-.6.4 0 .1-.1.2-.2.1-.4.4-.6 1.2-.8 1.7 0 0 0 .1.1.1-.1.2-.2.5-.2.7-.1.1-.2.5-.1.7 0 0-.1 0-.1.1 0 .5-.1.8 0 1.3.1-.1.1 0 .2 0 .2 0 .5-.1.7-.1v-.1c.2 0 .4-.2.6-.3h.1c.5-.2.8-.6 1.3-.8l.1-.1c.1 0 .2-.1.3-.3h.1v-.1c.3-.1.4-.4.7-.6.2-.2.4-.5.5-.5.1-.1.1-.2.2-.3.1 0 0 .1.1.1.3-.2.5-.4.8-.6v-.1h0c.2-.2.4-.3.5-.4v-.1c.1-.1.2-.1.3-.3l.4-.4c.1.1.2 0 .2-.1.1 0 0 .1.1 0 .1 0 .1-.3.2-.3.1-.4.5-.3.6-.8.2 0 .3-.2.2-.4h.1c0-.1 0-.1.1-.1v.1c.1 0 .2-.2.2-.2-.1.3-.3.4-.5.7-.1 0-.1.1-.2.3-.1 0-.3.3-.4.4 0 .1-.1.2-.1.4 0-.1 0-.1-.1 0 0 0 .1-.1.1-.2 0 .1-.1.2-.2.2 0 .2-.1.2-.2.3h-.1v.1c-.1.1-.1.2-.3.2 0 .1 0 0 .1 0v.1c-.3.1-.5.4-.6.7h-.1c-.1 0 0-.1 0-.1 0-.1-.1 0-.1-.1-.1 0-.1.2-.2.2 0 .1-.1.2-.1.2-.1 0-.1 0-.1.1-.1 0-.1 0-.1.1-.1-.1-.1.1-.2.1 0 .1-.1.1-.1.1 0 .1 0 .2-.1.2s-.1-.1-.2 0c0 0 0 .1-.1.1v.2s0-.1-.1-.1v.2c.3-.2.4-.5.7-.7v-.1c.3-.2.6-.6.8-.9l.3-.3h.1v-.1c.1 0 .1-.1.2-.2s.2-.3.4-.4c0 .1-.1.1-.1.2.2-.1.4-.4.6-.6.2-.1.3-.3.5-.5h-.1l.2-.2v.1c.2 0 .2-.2.3-.3.1-.2.4-.3.4-.6h.1v.1l.1-.1c0-.1 0-.1-.1-.1 0 0 0-.1.1-.1h.1c0-.2.1-.2.2-.4 0-.1-.1 0-.1 0v-.1c-.2.1-.3.4-.5.5.1-.2.3-.3.4-.5.2 0 .3-.3.4-.4 0-.1.2-.3.1-.4.3-.2.4-.6.7-.8V52c.1-.1.3-.2.3-.4.2-.1.3-.3.3-.4h.1c.1-.3.3-.4.4-.7h.1c0-.1.1-.1.1-.2.2-.2.3-.4.5-.6.1-.2.2-.3.2-.5.3-.4.6-1 .8-1.4.3-.2.5-.6.7-.8.8-.6 2.1-.6 3-.6.1-.1 0-.2 0-.3.1-.5.6-.2.9-.3.5 0 1.1-.1 1.4.2.7-.4.7-.3.7-.2zm-12.3 10c.1 0 0-.1 0 0zm-.2.3s.1 0 .1-.1v-.2c-.1.2-.2.2-.1.3zm-.8-6.8c-.1.1 0 .1 0 0zm-3.3 2.9c.1-.1.4-.2.3-.3.1 0 .1-.1.2 0 .3-.3.7-.6 1-.9h.1c.2-.3.5-.5.6-.8h.1c.1-.2.4-.3.4-.5h.1c.1-.1.3-.3.3-.5.2-.2.4-.4.4-.7h-.2c-.1 0 0 .1 0 .1s0-.1-.1-.1c-.1.1-.2.2-.4.3-.1 0 0 .1 0 .1-.2.1-.4.4-.7.6v.1c-.2.1-.3.2-.4.4-.2.1-.3.3-.4.5h-.1c-.1.2-.3.3-.4.5-.2.1-.4.4-.4.6-.2.1-.2.3-.3.3v.1s-.1.1-.1.2zm-2.4 10.7zm2.3-2.8c0-.1-.1-.1 0 0-.1-.1-.1-.1 0 0zm2.2-1.6c-.1-.1-.2 0-.2.1-.1 0-.2.2-.1.2l.2-.2s0-.1.1-.1zm1.3-1.2c-.1 0-.1.1 0 .1-.1 0 0 0 0-.1zm.3-.3c-.1.1-.1.2-.2.2.1 0 .1-.1.2-.2zm.2-.3c.1.1.1-.1 0 0zm3.2-3.8c.1 0 .1-.2.2-.2-.1 0-.1.1-.2.2zm-2.1 2.9c.1.1.2-.1.2-.1-.1-.1.1-.1.2-.2-.2 0-.2.2-.4.3zm-.1.1c0-.1.1 0 .1-.1h-.1c.1.1 0 .1 0 .1zm-.3.3c0 .1 0 .1 0 0 .2 0 .1-.1.3-.1 0-.2-.1.1-.2 0 0 0 0 .1-.1.1zm-.2.3c.1 0 .2-.1.2-.2 0 0-.1 0-.1-.1.1.2-.1.2-.1.3zm0-.3c0 .1 0 0 0 0zm.1 1.5c0 .1-.1.1-.1.1 0 .1-.3.3-.1.3-.1-.2.1-.2.2-.4zm.7-.7l-.1.1.1-.1zm.6-.9c-.2.1-.3.3-.4.5-.1.1-.1.2-.3.2v.1c-.1.1-.3.2-.3.3h.1c-.1.1-.2.2-.4.2 0 .1 0 .1.1.2.1-.2.3-.2.4-.5h-.1c.1-.1.2-.2.2-.3.2-.1.3-.2.4-.4.1 0 .2-.1.2-.2.1.1.2 0 .1-.1zm0-1.3l-.2.2v.1c-.1 0-.2.1-.2.3.2-.1.4-.4.4-.6zm1 .1h-.1c0 .1 0 .1-.1.1v.1c-.1 0-.2.2-.2.1 0 .2-.2.3-.2.5-.1 0 0 .1-.1.2-.2 0-.2.2-.2.3 0-.1.2-.2.2-.3.1 0 0-.1.1-.2.1 0 .1-.2.2-.1.1-.2.3-.3.3-.5h.1c-.1-.1.1-.1 0-.2zm.1-1.7c-.1 0 0 .1 0 0zm.1-.1l.1-.2c-.1 0-.2.1-.1.2-.1-.1-.1 0 0 0zm.3 1.1c-.2.1-.3.3-.3.4.2 0 .2-.3.3-.4zm1.1-2.9s.1-.1 0 0zm-.8 2.5c-.1.2.1-.1 0 0zm1.2-3s0-.1.1-.1c-.1.1-.2.2-.2.3-.1 0-.2.2-.1.2 0 0 .1-.1.1-.2s0-.1.1-.2zm4.8-3.3c0-.2-.1-.3-.1-.4h-.1c-.2 0-.3.1-.5.3-.5.5-.8 1.1-1.3 1.7 0 .1-.1.3-.2.4-.1.4-.3.9-.6 1.3 0 .2-.1.4-.3.5-.1.5-.5 1-.6 1.6-.1.1-.2.3-.2.4 0 0-.1 0-.1.1-.1.3-.2.8-.3 1.1-.1.7-.1 1.3 0 2 .1 0 0-.1.1 0 .4-.7.7-1.4 1.1-2.1 0 .1.1-.1.1-.1s-.1.1-.1 0c0 0 0-.1.1-.1 0 0 0 .1.1.1.1-.1-.1-.1 0-.3 0 0 0 .1.1 0s.1-.3.2-.3c0-.1-.1 0-.1-.1 0 0 0-.1.1-.1v.1c.1 0 .1-.1.1-.1l-.1.1c.1-.1.2-.3.2-.4.1-.1.1-.4.3-.5-.1-.1 0-.2.1-.2-.1-.1 0-.3.1-.3 0 .1-.1.1-.1.3.2-.2.2-.5.2-.6 0 .1 0 .1.1.1.1-.2.2-.3.2-.4 0 0-.1.1-.1 0 .1-.1.1-.2.2-.3 0-.2.2-.3.1-.4.2-.1.2-.5.3-.5 0-.3.2-.5.3-.7 0-.1.1-.2 0-.3.2-.2.2-.6.3-.7 0-.2.2-.3.1-.4.3-.5.3-.6.3-.8zm-.6 1.5v.1c.1 0 0 0 0-.1zm-1.9 4.3s-.1.1 0 .1c0 0 .1-.1 0-.1zm17.6-3.3c.1 0 .1 0 .1-.1 0 0-.1 0-.1.1zm-.1.1c.1 0 .1 0 0 0 .1-.1.1-.1 0 0zm-.3.8s0 .1 0 0zm.2-.6s0 .1 0 0c.1 0 .1 0 0 0zm-5.3 7.2s.1-.1 0-.1c0 0-.1.1 0 .1zm5.3-7zm-.7 1.2zm.4.1s0-.1 0 0c-.1 0 0 0 0 0zm0-.7c0-.1 0-.1.1-.2-.1.1-.2.2-.1.2zm1.7.3zm-2 .1v.2c.1-.1.1-.2.2-.3-.1 0-.2 0-.2.1.1-.1 0 0 0 0zm-4.5 6.8c.1-.1.1-.1 0 0 0-.1 0 0 0 0zm4.9-7.6v0zm-5 7.3c0 .1.1.1 0 0 .1 0 .1 0 0 0zm4.2-5.4s0 .1 0 0c.1 0 0 0 0 0zm-1.3 2.6zm4.2-7.7zm-.6 1c0-.1 0-.1 0 0-.1-.1-.1-.1 0 0-.1-.1-.1 0 0 0zm-5.8 10.7c.1 0 .1 0 0 0zm6.2-9.8s0-.1 0 0c-.1-.1-.1 0 0 0-.1 0 0 0 0 0zm-1.3.5c0 .1-.1.1 0 .2v-.2zm-1.1 2.3c-.1 0-.1 0 0 0-.1 0-.1 0 0 0zm1.6-3.5s0 .1 0 0c.1 0 .1 0 0 0zm-.4.8c-.1 0-.1.1 0 0 0 .1 0 0 0 0zm.6-.9v-.1c-.1 0-.1.1 0 .1zm.5-.9c.1-.1.1-.2 0-.1.1 0-.1.1 0 .1zm-.1.1c-.1 0-.1.1-.1.1.1.1 0 0 .1-.1zm-.3.3c.1 0 .2-.1.1-.1 0 .1-.1.1-.1.1zm10.2-13.5c.1 0 .2 0 .2-.1 0 0-.1 0-.2.1zm5.1-1.4c-.1 0-.1 0-.2.1.1 0 .2 0 .2-.1zm-5.6 1.5c.1 0 .2-.1.2-.1-.1 0-.2 0-.2.1zm6.9-1.8h-.1c.1.1.1.1.1 0zm-2 .5c.1 0 0 0 0 0zm1.2-.3zm-1 .3c.1 0 .2-.1.3-.1-.1 0-.3 0-.3.1zm-4.5 1h.1-.1zm-.3 0s-.1 0-.1.1c.1.1.2-.1.1-.1zm.8-.1c0 .1-.1.1-.1.1 0 .1.1 0 .1-.1zm0 .2c.1-.1 0-.1 0 0 0-.1 0-.1 0 0zm3.7-1.2s-.1 0-.1.1.1 0 .1-.1zm-14.5 31.4s-.1 0 0 0c-.1.1 0 .1 0 .2.1 0 .1 0 .2-.1-.1 0-.3.1-.2-.1zm.8-7.8zm1.6-.8s0-.1 0 0c-.1 0 0 0 0 0zm-3.1 5h.1c-.1-.1-.2-.1-.1 0zm4.6-15.2c.1.4-.1 1-.1 1.5 0 .1-.1.1-.1.2.1.3-.2.8-.2 1-.1.1-.2.2-.1.3-.1 0 0 .1 0 .1h-.1c.1.1-.1.2 0 .4-.2.1-.2.3-.1.4 0 0-.1 0-.1.1 0 0 .1 0 .1.1-.1.1-.1.1-.1.2h-.1v.2c0 .1-.1.1-.1.2-.3.1-.3.5-.3.7-.1 0-.1.2-.1.3 0 .1.1 0 .1.1-.1.3 0 .5-.1.6v.5h-.1v.2c.2 0 .1-.2.2-.3.1 0 .1.1.1.2h-.1c0 .2-.2.3-.3.5.1 0 .1-.1.2-.1 0 .1-.1.2-.2.2 0 .1 0 .2-.1.2 0 .1 0 .1.1.1s.1-.1.1-.2c0 .2 0 .3.1.4-.1.2-.1.3-.2.5 0 .1.1.1.1 0v.2c-.1 0 0 .1-.1.2-.1 0 0-.1-.1-.1h-.1c0 .1.1.1.1.2-.1.1 0 .3-.1.4h-.1v.2c0 .1.1.2.1.3 0-.1.1-.3.1-.5 0 .1.1 0 .1 0 0 .1 0 .1-.1.1 0 .2-.1.4 0 .5-.2 0-.3.1-.4.3 0 .1.1 0 .2 0 0 .1-.1.1-.2.2 0 .1.1.1 0 .1-.2.1-.2.4-.1.5 0 0 0 .1-.1.1 0 .1.1.1.1.2s-.1.2-.1.2c.1.1.1.4-.1.6 0 .1.1 0 .1 0 0 .1-.1 0-.1.1.1 0 .1 0 .2-.1 0 .1.1 0 0 .1-.1 0-.1.1-.2.1v.1h-.1c0 .1-.1.2-.2.3l.1.1c.1 0 .1-.1.2 0 .1-.1.1-.2.3-.2 0 .1-.1.2 0 .3-.1.1-.1.1-.2.1.1.2-.1.3 0 .4-.1 0-.1.1-.2.1.1.1-.1.2.1.2.1 0 0-.1.1-.2h.2c.1 0-.1-.1-.1-.1.1 0 .1-.1.1-.1.1 0 .1.1.2.1-.2.1-.1.2-.2.2v.2c-.2 0-.2.2-.3.1 0 .1.1.1 0 .2h.1c.1-.1.1-.2.2-.3.1 0 .1.1.1.1 0 .1-.1 0-.1 0v.1c0 .1.1 0 .1.1v.1s-.1 0-.1.1c.1.2-.1.3 0 .5 0 0 0 .1-.1.1 0 0 .1.1.1.2 0 0 0 .1-.1.1h.1s0 .1-.1.1c.1.2 0 .4 0 .5h-.2c0 .1.1.1.1.1-.1.1 0 .1 0 .2-.1.2 0 .3 0 .5 0 .1 0 .1-.1.1 0 0 .1.1.1 0 0 .1-.1.2 0 .2-.2.2 0 .3-.1.5 0 0 .1 0 .1.1-.1.1 0 .2-.1.2l.1.1c-.1 0-.1.2-.2.2 0 .1.1.1 0 .2-.1 0-.2.1-.3.2.1 0 .1.1 0 .2s-.4.2-.4.3c-.1.1-.3-.1-.4.2-.1-.1-.1 0-.2 0 0 0 .1 0 .1.1-.1.1-.4.1-.6.1 0-.1.1-.1.1-.1 0-.1-.1-.2-.2-.2 0-.1 0-.2-.1-.2v-.1c0-.1-.1 0-.1-.1-.1 0-.1 0-.2.1v-.1c0-.1-.1 0-.1-.1h.1c0-.1-.1 0-.1 0 .1-.1 0-.1 0-.1.1 0 0-.1 0-.2-.1 0 0 .1-.1.1 0-.1.1-.1 0-.1 0-.1.1 0 .1-.1s-.2 0-.1-.1h.1c0-.1 0-.1-.1-.2 0-.1.1-.2.1-.3 0-.1-.1-.1-.2 0 0 0 .1-.1.2-.1 0 0-.1 0-.1-.1s-.1 0-.1-.1.1 0 .1-.1c0 0 .1-.1 0-.1 0-.1.1-.1.1-.1 0-.2 0-.4-.1-.5 0 .1-.1.1-.2.2 0 .1.1.1 0 .1 0 0-.1.1-.1 0s-.1-.1-.1-.1c.1-.1.2-.3.3-.3 0-.1.1-.2 0-.3h.1c-.1-.1 0-.4-.1-.5.1-.1 0-.2.1-.3v-.1c-.1 0-.1.1-.1.1-.1 0 0-.2.1-.2 0-.1-.1-.1 0-.2h.1v-.1c-.1 0-.1 0-.1.1v-.1l-.1.1c-.1 0 .2-.2.1-.3-.2 0-.2.3-.3.3 0 .1.1.1.1.1-.1 0-.1-.1-.2 0v-.2c.1 0 .1 0 .2-.1 0 0-.2 0-.1-.1h.1c0-.3.3-.4.3-.7.1 0-.1.2.1.2.2-.1.2-.3.3-.5 0-.1-.2 0-.1-.1h.1v-.2h-.1c.1-.3.1-.3-.1-.5 0 0 0-.1.1-.1 0-.3.1-.4-.1-.5 0-.1 0-.1.1-.1 0-.1-.1 0-.1 0v-.2c.1 0 .1-.1.2-.2 0-.1-.1.1-.2 0 0-.1.1-.5-.1-.4 0 .1.1.1 0 .1s-.1.1-.1.1h-.2v-.1c.1 0 .2 0 .2-.1h-.2c0-.1.1-.1.2-.2-.2-.2.1-.5 0-.7.1 0 .2-.1.2-.2s-.1 0-.2 0c0-.1.1-.1.2-.1V56c.1-.1.1-.1.2-.3h.1v-.2c-.1.1-.2 0-.3.1 0 .1.1 0 .1 0 0 .1-.2.1-.2.2 0-.1.1-.3-.1-.4.1 0 .1-.3.2-.2 0-.1-.1-.2 0-.3 0-.1 0 0-.1-.1 0-.1.1-.2.2-.3 0-.1-.1.1-.1 0 .2-.1.2-.3.2-.5h-.1c0-.1.2-.4.4-.3 0 .1-.1 0-.1.1.2.1.1-.4.2-.4h-.2c0 .1.1 0 0 .1-.1 0-.1.2-.2.1 0-.1.1-.2 0-.3.1 0 .2-.1.3-.2 0-.1-.2 0-.2.1 0-.1-.1-.1-.2-.1 0 0 .1 0 .2-.1 0-.1-.1 0-.2 0 0-.1.1 0 .1-.1s0 0-.1 0c0-.1.1-.2.3-.2v-.2c-.1 0-.1.2-.3.1 0-.1.1-.2.2-.3v-.2c0-.1-.1 0-.1 0 0-.1.1-.1.1-.1 0-.2.1-.3 0-.4 0 0 0 .1-.1.1 0 .4-.4.7-.4 1h-.1s0 .1-.1 0c0 .1-.1.2-.1.3v.1c-.3.3-.4.8-.6 1.1 0 .1-.1.2 0 .2 0 0-.1 0-.1.1s.1 0 0 .1c-.2.1-.4.6-.4.8-.5.9-.9 1.9-1.6 2.8-.3.1-.4.4-.6.6h-.1c-.1.2-.3.4-.5.3 0 .1-.3.3-.4.2v.1c-.4.1-.8.1-1 .1v-.1c0-.1-.1-.1-.1 0 0-.1-.1-.1-.1-.1-.1-.1-.1-.2-.1-.2.1-.1.1-.3-.1-.2-.1 0 0 0 0 .1-.1 0-.1-.1-.1-.2 0 0 .1.1.2 0 0-.3-.3-.4-.2-.7-.1 0 0-.2-.1-.2 0-.1 0-.1.1-.2l-.3-1.2c0-.1 0-.1.1-.2-.1-.1-.1 0-.1 0 0-.1 0-.1.1-.1-.1-.1.2-.5-.1-.6.1-.1 0-.4 0-.5-.1 0 0 .1 0 .1v-.1c0-.1.2 0 .2-.1s-.1 0-.1 0c0-.1 0-.1-.1-.1 0-.2 0-.3.1-.4 0-.1-.1-.1-.1-.1v-.2c.1 0 .1 0 .2-.1v-.2c-.1 0 0 .1-.1.1 0-.1.1-.1.2-.2 0-.1-.1-.1 0-.1 0-.1-.1 0-.1-.1.1 0 0-.2.1-.2-.1-.1 0-.2 0-.2 0-.1 0-.2-.1-.1.4-.2.1-1 .3-1.3 0-.2.1-.5.1-.7-.1 0 0 .1-.1.1v.1c-.4.6-.6 1.2-1.1 1.8v.1c-.1 0-.1.2-.1.3-.1.1-.1.3-.3.3-.1.3-.3.6-.5.8 0 .1 0 .1-.1.2-.3.3-.4.8-.7 1.1-.2.4-.4.7-.7 1v.1l-.9.9c-.2 0-.2.1-.3.1-.5.1-.8.2-1.2.3-.6 0-1-.3-1.1-.7 0 0 0-.1-.1-.1.1-.2-.1-.2-.1-.4-.1-.1-.1-.3-.1-.4 0-.1-.1-.1-.1-.2v-.3c0-.3-.1-.8-.1-1.2 0-.3.1-.7 0-.8 0 0 0-.1.1-.1.1-.5 0-.8.1-1.2.3-1.9.8-3.6 1.4-5.2.3-.7.7-1.4 1.1-1.9.1-.1.2-.2.4-.3.5.1 1.1.1 1.3.5 0 .1 0 .1.1.1 0 .4.1.9-.2 1.2 0 .3-.2.7-.3 1-.1.6-.4 1.2-.7 1.9-.4 1.4-1 3.2-1 4.6-.1.1-.1.4-.1.5-.1.4 0 .7 0 1.2.7-.9 1.2-2.1 1.8-3 .3-.5.6-1 .8-1.5.1-.1.1 0 .1-.1s-.1-.1 0-.2c.1 0 .2-.3.2-.4 0-.1.1 0 .1-.1 0 0-.1 0 0-.1.1-.3.3-.5.4-.8.1 0 .1 0 .1-.1.2-.4.4-.7.6-1.2.1-.1.2-.2.2-.3.3-.3.4-.8.7-1.1 0-.1.1-.1.1-.3.1 0 .2-.2.2-.3.1-.2.3-.3.4-.5.2-.2.3-.4.4-.7.1.1.1-.1.1-.1s.1 0 .1-.1c.2-.3.4-.6.6-.8v-.2c.2-.1.2-.3.3-.5.1 0 .1-.1.2-.1v-.1h.2c0-.1.1-.1.1-.2.4.2 1.2.1 1.4.6 0 .1-.1.4-.1.5-.3.8-.6 1.5-.8 2.3-.3.5-.3 1.3-.7 1.9h-.1c0 .2-.1.3-.1.4 0 .4-.3.8-.3 1.3-.1.1-.1.2-.2.4 0 0 0 .1.1.1-.2.1-.1.4-.3.6.1 0-.1.2 0 .2-.1.1 0 .4-.2.6.1.1 0 .1 0 .2-.1 0 0 .2-.2.3 0 .2-.1.2 0 .4-.1 0 0 .1 0 0-.1.2-.2.3-.2.5.1 0 .2-.1.2-.2.1.1 0 .3-.1.3.1.1.1.2-.1.3.2.1.1.4.1.5h-.2.1c-.1 0-.1.2-.2.1l-.1.1h.1c0-.1.1-.1.2-.2 0 0 .1.1 0 .1h-.1c.1.1-.1.2-.1.2.1.1 0-.1.1-.1V55.4h.1v.2h-.2v.1c.1 0 .1-.1.1-.1 0 .2-.1.4 0 .7h-.1c0 .1 0 .1.1.1-.2.4-.1.6 0 .9h.2v.1c0 .1.1-.1.1 0-.1.2.1.3.1.5.7-.9 1.1-2 1.6-3 0 0-.1 0 0-.1s.2-.3.2-.4c.1-.1.2-.3.2-.5h.1c.1-.2.1-.4.2-.6h.1c-.1-.1 0-.1.1-.3h.1c0-.1 0-.2-.1-.2.1 0 0-.1.1-.2h-.1c0-.1.1-.1.2-.2.1.1.1.2 0 .3.1 0 .1-.2.2-.3l-.1-.1s.1 0 .1-.1v-.1c-.1 0 0 .1-.1.1.1-.1.2-.3.2-.5.1 0 .1-.1.2-.1h-.1c0-.1.1-.1.1-.2.2-.2.2-.6.4-.8h.1c.1-.3.3-.4.4-.7h.1s-.1-.1 0-.2c.1.1.1.1.1.2.1 0 .1-.2.1-.3-.1.1-.3 0-.1-.1.1 0 0 .1.1.1 0-.1 0-.3.2-.4 0 0-.1 0 0-.1h.1c.1-.1.1-.3.2-.4 0 .1 0 .1.1 0h-.1v-.1h.1c-.1-.1.1-.2 0-.2v-.1c.1 0 0 .1.1.1s.1-.1.1-.2c.1 0 0 .1.1.1s-.1-.1 0-.1c.1-.1.1-.2.2-.3v-.2c.1.1 0 .3 0 .4h.2c0-.1-.1 0-.1-.1s.1 0 .1-.1v-.2c.1 0 0 .1.1.1v-.1-.1h-.1c0-.1 0-.1.1-.2 0 0-.1-.1 0-.2h.1c.1-.1 0-.1 0-.2h.1l.1-.1h-.1v-.1c.1-.2 0-.4.1-.6.1-.1.2-.2.2-.4h.1c0-.1 0-.3.1-.4h-.1c0-.1.1-.1.1-.2-.1 0-.1.3-.3.3 0-.1.2-.5 0-.5 0-.1-.1 0-.1 0h.1s0-.1.1-.1c.1-.6.3-1.1.3-1.7.2-.4.2-1.1.3-1.5-.1 0 0-.1 0-.2h.1c0-.3.1-.4.1-.7 0 0-.1 0-.1-.1s0-.1.1-.1c0-.9.3-1.8.4-2.6-.4.1-.8.1-1 .2h-.1c-.2.2-.5.1-.7.3h-.4c-.2.2-.6.1-.8.3h-.1c-.3.2-.8.2-1.1.4-1.3.2-2.3.6-3.4.8-.2.1-.4 0-.6.2h-.3c-.1-.2-.4-.1-.7-.1V40h0c.1-.1.1-.2 0-.3 0-.1 0-.1.1-.1-.1-.1-.2-.1-.2-.3.2 0 .2-.2.3-.3v-.2h.1c1.3-.5 2.6-.8 3.8-1.1.1 0 .1 0 .1.1 1.9-.4 3.3-.8 5.1-1.1 0 0-.1 0-.1.1.1.1.3 0 .4-.1.2-.4.2-.9.4-1.4 0 0 0-.1-.1-.1.1-.1.2-.3.2-.4.1 0 .1 0 .1.1.7-.6 1.6-.4 2.3-.6.4.3.5 1 .4 1.7.1-.1.3.1.5-.1.2 0 .5-.1.8-.2.1.1.3-.2.6-.2v.1c.1 0 .3-.2.4-.1.3-.3.7-.2 1.1-.4.1.1 0 .1-.1.2h.1c-.2.3-.5.1-.8.3h-.1c0 .1-.1.1-.2.1h.1c-.1-.1-.1 0-.2 0s0 .1-.1.1 0-.1-.1-.1c-.1.1 0 .1-.1.1v-.1c-.2.1-.4.2-.6.2-.2.1-.5.2-.8.3 0 0 0 .1-.1.2h-.1c0 .2.3-.1.4-.1v-.1c.3 0 .7-.2 1-.2 0 .1-.1.1-.1.1.2 0 .3-.2.5-.2 0 0 .1 0 0 .1.3-.1.5-.1.7-.1.1 0 0-.1.1-.1.1-.1.4 0 .4-.2.1.1 0 .1 0 .1.2.1.5-.3.7-.2.2-.2.5-.2.7-.3.2-.2.5-.3.8-.4v.1c.1-.1.3-.2.4-.2 0 .1-.2.2-.3.2.2.1.4-.2.5-.2 0 .1-.1 0-.1.1.1 0 .2-.2.3-.1 0 0-.1 0 0 .1.4-.1.7-.3 1.1-.4.2 0 .3 0 .5-.1.3.1.5-.2.8-.1v.1c.1 0 .1 0 .1-.1.6-.2 1.2-.2 1.7-.4.2 0 .4 0 .5-.2.6-.2 1.4-.3 2-.3.2 0 .3.1.5.1 0 .1.2.1.1.3h-.1c-.2.2-.7.4-1 .3 0 0-.1.1-.2.1 0 .1.1 0 0 .1.1 0 .3-.1.4-.1v.1c.1-.1.3-.1.5-.1-.5.2-.9.3-1.3.5-.2 0-.4.1-.5 0-.1 0-.1.1-.1.1-.1 0-.1 0-.2.1v-.1c-.1 0-.2 0-.2.1-.2 0-.3 0-.5.1-.3 0-.6 0-.9.2h-.3c-.1.1-.2.1-.4.1-.1 0-.1 0-.1.1-.1.1-.3 0-.5.1 0 0 .1 0 0-.1-.1.1-.2.1-.3.1 0-.1-.1 0 0-.1-.1.1-.2.1-.3.2-.1 0-.1 0-.1-.1-.4.2-.7.2-1.2.3-.1.1-.3.2-.4.2-.4.2-.9.1-1.2.3-.3 0-.6.2-.8.1-.5.2-1 .3-1.7.6 0-.1-.1-.1-.1 0-.1 0-.1 0-.1.1-.6.1-1.2.3-1.9.4 0 0-.1 0-.1.1h-.3c-.1.2-.1.6-.2.8 0 .2-.1.4-.1.6-.1.5-.3 1-.4 1.6-.1.2-.1.4-.2.6-.1.2 0 .4-.1.5l-.1.1c-.1.4-.1.7-.2 1.1h-.1c-.1.3.1.7-.2 1 0 .4-.2.7-.1 1.1-.1.1 0 .4-.2.5 0 .1 0 .3-.1.4 1.3-.5 1-.2.9.1zm13.9-12.2c.2 0 .5-.1.6-.2.1 0 .2 0 .2-.1h-.2c-.2.1-.6 0-.6.3zm-.4.1s.2 0 .1-.1c0 0-.1 0-.1.1zm-.4.1c.2-.1.3-.1.4-.3-.2.1-.3.2-.4.3zm-.4-.1c0 .1.2 0 .3 0 0 0-.1 0-.1.1.1 0 .1-.1.2-.2h.1c-.2 0-.3.1-.5.1zm-.8.2c.3.1.5-.2.8-.2-.3 0-.6 0-.8.2zm-.6.2c.2 0 .3-.1.5-.2-.1 0-.3.1-.5.1v.1zm-6.1 1.5c-.1.1-.2 0-.2.1.1 0 .1.1.2-.1zm1.8-.4c-.1.1-.3 0-.3.1 0 0 .2 0 .3-.1zm.3 0c-.1 0-.2 0-.3.1.1 0 .2-.1.3-.1zm1.3-.4c-.1 0-.1 0-.2.1.1 0 .2 0 .2-.1zm.6-1c.1 0 0 0 0 0zm-5 1.5c.1 0 .2-.1.1-.1 0 0-.1 0-.1.1zm-1 .2c0-.1 0-.1 0 0zm-.1.6c.1 0 .1-.1.2-.1 0-.1-.1-.1-.2 0 0 0 .1 0 0 .1zm0 .2c.5-.3 1.1-.2 1.5-.5-.2 0-.4.2-.5.1.1-.1.3-.2.4-.1.2-.1.3-.2.5-.3l.1.1c.1 0 .1-.1.1-.1.3 0 .7-.2.9-.2 0-.1.1-.1.2-.1s.2-.1.2 0c0 0-.1 0-.1.1.2-.1.4-.1.5-.2.5.1 1-.2 1.4-.4 0 0-.1 0-.1.1.1 0 .4-.2.6-.2 0 .1-.1 0-.1.1.4-.1 1-.1 1.3-.5-.8.1-1.9.5-2.7.7 0 0-.1-.1-.1 0-.4.2-.8.2-1.1.3-.1-.1-.3 0-.4.1-.1-.1-.3 0-.5.1-.3 0-.5.1-.7.2h-.2l-.1.1c-.3 0-.4.1-.7.2 0 .2.2.1.3.1-.2.1-.6.1-.7.3.1 0-.1 0 0 0zm-.2.1c-.1 0-.1 0-.1.1 0-.1 0-.1.1-.1zm-.2-.2c0 .1.2 0 .1 0h-.1zm-.2-.1c.1 0 .1 0 .1-.1 0 .1 0 .1-.1.1zm-.1.1h.1c0-.1-.1-.1-.1 0zm-.1-.5c.1 0 .1 0 .1-.1-.1 0-.1.1-.1.1zm-.1.6h.1c0-.2-.1-.1-.1 0zM126 38zm1.8-1.6h.1c0-.1-.1-.1-.1 0zm.3 1c-.1 0-.2 0-.2.1.1-.1.2 0 .2-.1zm-7.6 16.4c0 .1 0 .1.1.1 0 0 0-.1-.1-.1zm.1-.3v.1s.1-.1 0-.1zm.1.5c-.1.1-.1.1 0 0 0 .1 0 .1 0 0zm0-1.6c0-.1.1-.1 0 0 .1-.1 0-.1 0 0zm-.1.4c.1 0 .1 0 .1-.1 0 0 0-.1-.1-.1.1.2 0 .2 0 .2zm0 .1c.1 0 .1 0 0 0zm-.1.6l.2-.2c-.1 0 0-.1-.1-.1-.1.1 0 .2-.1.3-.1 0 0 0 0 0zm-1.4 1zm0-.4s-.1.1 0 0zm0-.1c0 .1 0 .1 0 0zm.2 1.4v-.1c-.1 0-.1.1 0 .1zm0-1.4c0 .1-.1.1-.1 0v.1h.1V54zm-.1 0v-.1.1zm.1-.5c0 .1-.1.1-.1.2h.1c-.1 0 0-.1 0-.2zm0-.5c-.1.2-.1.3 0 .5 0-.2.1-.4 0-.5zm1 6.2c0-.1-.1 0-.2-.1-.1.2.1.1.2.1zm.3-3.5c0-.1 0-.1 0 0 0-.1-.1-.1 0 0zm.9 3.1zm.2-.3c0 .1 0 0 0 0zm2.1-6.6c.1 0 .1 0 0 0 .1 0 .2-.1.3 0 0 .1-.1 0-.1.1h.1c.1-.2 0-.2.1-.3 0 0 0-.1-.1-.1 0 .1 0 .1-.1.2v-.1c-.1 0-.1 0-.1.1l-.1.1zm.3 1.5h-.1.1zm0-.3c-.1 0 0-.2-.1-.2 0 .2-.2.5-.2.6l.1-.1c.1-.1 0-.1 0-.2.2-.1.2 0 .2-.1zm.1-.2c.1-.1.2-.4.1-.5 0 .1-.1.2-.1.2v.1h.1c-.1 0 0 0 0 .1-.1 0 0-.1-.1-.1s0 .1 0 .2c-.1 0-.1 0 0 0zm.1-.1c0 .1-.1.2-.1.3.1 0 .2-.3.1-.3zm.1-1.5v-.1c-.1 0-.1.1 0 .1zm.6-1.3s0-.1 0 0c0-.1-.1 0 0 0zm-.3.4c.1 0 .1 0 0 0 .1 0 .1 0 0 0zm-.1.1s.1 0 0 0c.2-.1 0-.1 0 0zm.1 1.6c0-.1 0-.1 0 0zm.1 1.1c-.1 0-.1 0 0 0-.1.1 0 .1 0 0zm0-2.6s0-.1 0 0c0 0 0 .1 0 0zm0-.4s-.1.1 0 .1.1-.1 0-.1zm.2 1.3s0 .1 0 0c0 .1.1 0 0 0zm.1-.6c0 .1-.1.2-.2.4.2-.1.2-.3.2-.4zm.1-1.4zm-.1 1.8s.1-.1 0-.1c.1 0 0 0 0 .1zm.1 1.1c0 .1 0 .1 0 0zm.1-1.8c0 .1 0 .1-.1.1.1.1-.1.2 0 .2 0-.1 0-.1.1-.1 0 0 .1.1 0 .1.1-.1.1-.3 0-.3zm.2-.2v0zm-.4 6.5c.1 0 .1-.1.2-.1.1-.3-.1 0-.2.1zm.3-.7c0 .1-.1.2 0 .2s.1-.1 0-.2zm-.2 3.8h-.1.1zm.2-.1c-.1 0 0-.1-.1 0s0 .1.1 0zm-.1.7s0 .1 0 0h.1-.1zm.1.2c-.1 0-.1.1-.2.1.1 0 .2 0 .2-.1zm0 2.9c0-.1-.1-.1-.1 0h.1zm.1-3.7c-.1 0-.2.1-.2 0 0 .1 0 .1-.1.2.1 0 .1.1 0 .2h.1c0-.1.1-.2.2-.3-.1 0 0-.1 0-.1zm.2-5.6c-.2 0-.1.2-.1.4h.1v-.4zm.1-.6c0 .1-.1.3-.1.3.2 0 .1-.3.1-.3zm1.8 5.1c-.1.1 0 .1 0 0zm.6-11c.1-.2.4-.6.1-.7-.1.1-.1.4-.2.4 0 .3-.1.4 0 .8h.1c0 .1 0 .1-.1.2h-.2c0 .1.1.1.1.1 0 .1 0 .1-.1.1v.2c.1 0 .1 0 .2.1 0-.1.1-.2.2-.2 0-.1 0-.1-.1-.2 0-.1.1-.1.2-.2 0-.1 0-.2-.1-.2 0-.1.1-.2 0-.4h-.1c.1 0 0 .1 0 0zm-.5 2.8c0 .1 0 .1 0 0 .1.1.1 0 0 0zm-.7 1.9c-.2.1-.3.3-.3.4.1 0 .1.1 0 .1v.2c.1 0 .1-.1.1-.1-.1-.2.3-.3.2-.6zm-.3 1.1c.1-.1.1-.4 0-.4 0 .2-.1.4-.2.5h.1c-.1.1-.1.2 0 .3.1-.1.1-.3.1-.4zm-.3 2.4c-.1 0-.1.1-.2.1 0 0 .1 0 .2-.1 0 0 .1 0 .1-.2-.1 0-.1-.2-.1-.2-.1 0-.1.1-.1.2s0 .1-.1.2c.1-.1.1-.1.2 0zm-.3-4.4c0 .1 0 .2-.1.2h.1c0-.1.1-.3 0-.2zm-.1-.8c0 .1 0 0 0 0zm.1-.3s0 .1 0 0c0 .1 0 .1 0 0 0 .1 0 .1 0 0zm1.4-2.5c.1 0 .1 0 0 0 .1-.1.1-.1 0 0 .1-.1.1 0 0 0zm-.6 4.3v-.1c.1 0 0-.1 0 0-.1.1 0 .3 0 .4.1-.1-.1-.2 0-.3zm.3-2.4h.2c0-.2-.1-.1-.2 0zm.2-.6c0 .1-.1.2-.1.3.2 0 .3-.3.1-.3zm1.3-3.6zm-2.4 2.3zm-.1.2c0 .1 0 .1 0 0 .1 0 0 0 0 0zm-.1-.2zm-.1.7s0-.1 0 0zm-.1 1.1c0 .1-.1.1-.1.2h.2c-.1 0-.1-.1-.1-.2.1 0 .1 0 .1-.1s.1-.1.1-.2 0-.2.1-.2v-.2-.1-.1c-.1.3-.4.5-.4.8.1 0 .1-.2.2-.2 0 .2-.4.4-.3.5 0 0 0-.1.2-.2zm-.1.3v0zm.2.9c-.1 0-.1 0 0 0h-.1v.1s0-.1.1-.1zm0 1.7c0-.1.1-.3 0-.3-.1.1-.2.1 0 .3-.1 0 0 0 0 0zm.1 6.8c-.1 0-.1.1-.2.2.1 0 .2-.1.2-.2zm0-7.6v.1s.1-.2 0-.1zm.5 4.7c0-.2-.2-.2-.1-.4-.3 0-.2.3-.1.4h-.1c0 .1 0 .1-.1.2h.1c-.1 0-.1.1-.2.1.1 0-.1.2 0 .2 0 .1-.1.1 0 .1h-.1.1c.1 0 .1-.1.2-.1-.1 0 0-.1 0-.1h.1c.1-.1.1-.3.2-.4zm.1-1.9c0-.1 0-.1.1-.1-.1-.1 0-.4.1-.4 0 0 0-.1-.1-.1 0 .1-.1.1-.2.2 0 .2-.1.3 0 .4 0 .1-.1.1-.1.1s.1 0 .1.1-.1.1-.2.2c.1 0 0 .2.1.2 0-.1.1-.1.1-.1v-.1c.1-.1.2-.3.1-.4zm.3 5.4s-.1 0 0 0c-.1.1-.1.1 0 .1 0 0 .1-.1 0-.1zm.1-2.1s.1 0 .1-.1v-.1h-.1c-.1 0-.1.1 0 .2-.1 0-.2.1-.2.3.1 0 0 .3.1.3-.2.1 0 .2 0 .3 0 .1 0 .1-.1.2.1 0 .1.1.1.1-.2.3-.1.4-.1.7h.2c-.1 0-.1 0-.1.1.1 0 .1-.1.1-.1 0-.1 0-.1-.1-.2.1-.1 0-.1.1-.2h-.1v-.1c-.1-.2 0-.5.1-.7-.2-.1.1-.4-.1-.5.2 0 .1-.2.1-.2zm.1-.4h-.1c-.1.1 0 .1.1 0zm.5-1.9c-.1.1 0 .1 0 .1v-.1zm.1-2.1c0 .1-.1.1 0 .2 0 0 .1-.3 0-.2zm0 1.2c0 .1 0 .1 0 0 .1 0 0 0 0 0zm.1-3.2c-.1.1-.2.1-.3.2.1.1-.1.2 0 .3h-.1c.1.3-.1.5-.1.8h-.1c-.1.3 0 .6 0 .9-.1.1-.1.2-.2.3 0 0 .1 0 .1.1 0 0-.1.1-.1.2.1.4 0 .8-.1 1.3 0 0-.1 0-.1.1.1 0 .1.3.1.4l-.1.1c.1.1 0 .3.1.4-.1.1-.1.2-.1.3-.1 0-.2.2-.1.3.1 0 0-.1.1-.1.1.1 0 .1 0 .2.1-.1 0 .2.1.1.1-.4 0-.7.1-1 0 0-.1 0-.1-.1.1-.1 0-.5.1-.7 0-.3.1-.6 0-.9l.1-.1c-.2-.2-.1-.6.1-.9-.1-.1 0-.3.1-.4-.1 0 .1-.3 0-.4 0 0 0-.1.1-.2 0-.3.1-.5 0-.8.4-.2.3-.3.4-.4zm.1 2.2c-.1.2.1.4-.1.6.2-.1.1-.3.2-.5 0 0 0-.1-.1-.1zm.3-4.3h-.2s-.1 0-.1-.1c.1-.1.1-.1.1-.2-.1-.1-.1.2-.3.2.1.2-.1.3-.1.5-.1 0 0 .1-.1.1.1.1.1.2.2.3h-.1c.1.3-.3.7 0 .9.2-.2.1-.4.3-.6 0-.1-.1-.1-.1-.1.1-.1.2-.4.1-.4.3-.3.3-.4.3-.6zm.1-.6c-.1.1-.2.4-.1.4.1-.1.2-.3.1-.4zm.1 1.2v0zm.3-2.7c-.1 0-.1 0 0 0-.1.1 0 0 0 0zm15.6-13.9c-.1 0-.2 0-.2.1.1 0 .1 0 .2-.1zm-16.5 22.8c0-.1 0-.1 0 0 0-.1 0-.1 0 0zm-.1 1.5c-.1 0 0 .1 0 0zm0 1.2zm-2.8 3.7zm1.3-5.7s-.1 0-.1.1c0 0 .1 0 .1-.1zm-1.2 5.9h-.1c0 .1.1.1.1 0zm-.1-.3s.1 0 0 0c.1 0 0 0 0 0zm-.3 0s.1 0 0 0c.1 0 0 0 0 0zm.4.6c-.1.2 0 .2-.1.2h.1v-.2zm-.2-.6c.1 0 .1-.1.1-.1-.1-.1-.1 0-.1.1zm0-2.8zm0-.1c-.1 0-.1 0-.1.1 0-.1.1-.1.1-.1zm.1-2.5c0-.1 0-.1 0 0zm-.2 3.7h.1c0-.1 0-.1-.1 0zm.4-1.7c0-.1 0-.2-.1-.2.1.1.1.1.1.2zM145 33.5h-.1c0 .1.1 0 .1 0zm-20 28.1h-.1.1zm.2-4.1v-.1.1zm0-1.9zm7.1-19.9c.1 0 .1-.1 0 0 .1-.1 0-.1 0 0zm-6.8 17.8h.1c0-.1-.1-.1-.1 0zm-.3 3.8v0c.1 0 .1 0 0 0zm0 1zm1.1-1.7c.1 0 .1-.1 0 0 .1-.1 0-.1 0 0zm1.8-1.3s-.1-.1 0 0c-.1 0 0 0 0 0zm.2-2.8c0-.1.1-.1.2-.1v-.3c-.2 0-.2.3-.2.4zm.2-.9s0-.1 0 0zm5.2-16.4zm-5.3 18.4s0-.1 0 0zm.1-2.2c.1 0 .1-.1.1-.2-.1.1-.1.2-.1.2zm-2.9.9s0-.1 0 0c0-.1 0-.1 0 0zm7.5-17.2c.1 0 .1 0 0 0 .1 0 0 0 0 0zm-8.3 27.4c.1 0 .1 0 .1-.1-.1 0 0 .1-.1.1zm.6 2.2v-.1h-.1c0 .1-.1 0-.1.1h.2zm2.8-9.4s0-.1 0 0c-.1 0-.1 0 0 0zm-1.9.7c.1-.1.1-.1 0 0 .1-.1.1-.1 0 0 .1-.1 0 0 0 0zm16.2-22.2zm-16.1 22c0-.1-.1 0 0 0-.1.1 0 0 0 0zm7-19.7c.1 0 .1 0 .2-.1-.2 0-.2 0-.2.1zm-5.5 27.5zm12-30.2s-.1 0-.1.1c0 0 .1 0 .1-.1zM128 55.2c0-.1.1-.2.1-.2v-.1c0 .1-.2.2-.1.3zm-2.8 9c0 .1 0 0 0 0zm-.1-.3s0 .1 0 0c.1 0 0 0 0 0zm22.1-21.5c.1 0 .1 0 0 0 .1-.1.1-.1 0 0zm-14.1 16.5s0 .1 0 0c.1 0 .1 0 0 0zm.8-1.2c.1 0 .1 0 0 0zM150 41.5c0 .1-.2.2-.2.3h-.2c0 .1.1.1.1.1-.1 0-.1.2-.2.2v.2c-.1 0-.2.1-.2.1-.1 0 0 .1-.1.1 0 .1-.1.2-.2.2s-.1.1-.2.1c0 .1-.1.2-.1.2 0 .1.1 0 0 .1 0 0 0 .1-.1 0V43h-.1c0 .1-.1.1-.1.1 0 .1.1 0 .1.1s0 .2-.1.3c0-.1.1-.1.1-.2s-.1 0-.2 0c0-.1.1-.2.2-.3h-.2c0 .1-.1.2-.2.2-.1.1-.2.2-.2.4-.1 0-.1.1-.3.1 0 .1.1.1 0 .1s-.1.1-.2.1v.1c.2-.1.5-.3.5-.5.2 0 .2-.2.3-.2.1 0 0 .1.1.1-.1.1 0 .2-.2.3v-.3c-.1.1-.2.2-.2.3-.1 0 0-.1-.1-.1s0 .1 0 .2c-.1 0-.1.1-.1.1h-.2c-.1.2.2.1.2.3-.2.1-.3.2-.5.3 0-.1.2-.2.2-.3-.1.1-.3.3-.2.4-.1 0-.1 0-.2.1v.1c-.5.3-.9.8-1.4 1.1-.1.2-.2.2-.3.4-.2 0-.2.3-.4.3v.1c-.3.1-.4.4-.7.6v.1s-.1 0-.1.1v-.1c-.2.1-.4.4-.5.6-.3.1-.4.5-.7.7.1.1-.2.3-.2.4-.1-.1.1-.1.1-.1-.2 0-.2.2-.2.2-.1 0-.1.1-.2.2v.1c-.1.1-.2.2-.3.4-.2.1-.2.3-.4.4 0 .1-.1.2-.2.3v.1c-.1.1-.3.2-.3.4-.2.2-.4.4-.5.6-.1.2-.4.3-.4.5 0 0-.1 0-.1.1s0 .3-.1.3l.1-.1c-.1-.1-.1.1-.2.1-.2.5-.3 1-.5 1.5 0 .4-.2.7-.2 1.1 0 0 0 .1-.1.1.1.1-.1.2 0 .3-.1 0-.1.1-.2.1 0 .1-.1.2-.1.3l.2-.2c0 .1-.1.1-.1.2-.1 0-.1.2-.1.2-.1 0-.2.1-.2.3-.1 0-.1.1-.1.1.1 0 .1-.1.2-.2.1.1-.1.1 0 .2 0 0 0 .1-.1.1 0 .1.1.3-.1.4.1.1-.1.3 0 .3-.1.1-.2.4-.3.5.1 0 0-.1.1-.1.1.1 0 .1 0 .2h-.1c0 .4-.1.8-.3 1.1v.1c0 .1-.2.3-.1.3-.1 0-.1 0-.2.1 0-.3.2-.5.1-.7.2-.2.1-.5.2-.7 0-.1-.1-.1-.1 0-.1 0 0-.1.1-.1h-.1c-.1.1-.1.2-.2.4 0 .2-.1.4-.1.6-.2.1-.2.7-.2 1h-.1c-.1.2-.1.3-.1.6h-.1c.1.1 0 .2-.1.2 0 .1-.1.3 0 .4 0 .1 0 .1-.1.2.1.2-.1.4 0 .6-.2.1-.3.6-.2.7.1-.1.1-.3.2-.5h-.1c.1-.1.1-.2.1-.3.1.1 0 .8-.3.9v.1h-.1c0 .1-.1.3 0 .4 0-.1.1-.2.1-.4v.1c0 .1-.2.3-.1.4v.2c-.2.2-.1.3-.2.5h-.1c-.1.4-.3.8-.3 1.2.1 0 .1-.1.2-.2.1.1 0 .1-.1.2v.1c0 .1 0 0 0 0-.2.2-.1.3-.2.5-.1.1 0-.1-.1-.1 0 .1 0 .1-.1.1 0 .1.1 0 .1 0 0 .1-.2.1-.1.3h-.1c0 .3-.1.4-.2.6v.2s0 .1-.1.1c0 0 0 .1.1.1 0 .1-.1 0-.1.1v.1c.1 0 .1-.1.1-.1.1 0 0 .1-.1.1 0 .2.1.3 0 .4 0 .3-.1.4-.2.6-.1.2 0 .3-.2.4 0 .2-.2.6-.3.8h.1c-.2.6-.5 1.1-.8 1.5h-.1c-.1.3-.6.4-.6.8-.1.1-.3.1-.3.2-.4.2-.6.4-1.1.5v-.1c-.1.1-.2.2-.4.3.1-.1 0 0 0-.1 0 0 .1.1.1 0-.1 0-.2 0-.3.1.1.1.2 0 .2.1h-.1c-.1.1-.2 0-.3 0 .1 0 .1 0 .2-.1 0-.1-.2 0-.2.1-.4.2-.6 0-1 .1-.1 0 0-.1 0-.1-.1 0-.1.1-.2.1V73c-.2 0-.1-.2-.3-.2.1-.1-.1-.3-.1-.4 0-.1-.1.1-.1 0v-.1c-.1-.1 0-.3-.1-.4.1-.3-.1-.4 0-.7-.1 0 0 .1-.1.1 0-.1-.1-.2-.1-.3 0 0 .1 0 .1.1.1-.1 0-.2 0-.2-.1-.1 0-.1.1-.2-.1-.1-.1-.3-.2-.4.1-.1.1-.3.1-.4.1-.2.1-.8.1-1 0-.1 0 0 .1 0v-.6c.1-.5.1-1.2.3-1.5 0 .1 0 .1.1.1 0-.1 0-.1-.1-.1-.1-.1.1-.2 0-.3h.1c.1-.1-.1 0 0-.1 0-.1 0 0 .1 0 0-.1 0-.1-.1-.1.1-.3.1-.6.3-.8 0-.1 0-.1-.1-.1 0-.1.1-.2.1-.3.1-.1.1-.3.1-.3h.1c-.1-.2.1-.5.2-.8v-.1-.1.1c.1-.1.2-.3.2-.4h-.1c0-.1.1-.1 0-.1.1-.1 0 .1.1.1.1-.1 0-.1 0-.2s0 0 .1 0 0-.1 0-.2c.1.1.1 0 .1-.1v-.2-.1s0 .1.1.1-.1-.1.1-.1h-.1c.2-.1.1-.4.3-.5 0-.1-.1.1-.1 0s0-.1.1-.1c0-.1-.1 0-.1-.1h.1s0-.1-.1-.1c.1 0 .1-.1.2-.2.4-.8.9-1.7 1.4-2.5h.1v0c.1-.2.3-.6.5-.8.5-.8 1-1.5 1.5-2.2.1-.3.2-.3.4-.5.2-.4.4-.8.5-1.2.1.1 0-.1.1-.1 0 .1-.1.1 0 .2l.6-.9c.3-.2.4-.6.6-.9l.3-1.5c.6-2.4 1.3-5.4 1.8-7.8-.1.1-.2.3-.2.5-.1.1-.1.3-.2.3.1.1-.1.1-.1.2-.2.3-.4.7-.6 1-.3.4-.4.9-.7 1.3v.1c-.2.4-.4.8-.7 1.2v.1h-.1l-.6 1.5c-.3.3-.3.7-.6 1-.3.7-.8 1.4-1.2 2.1h-.1c-.2.4-.5.6-.7 1h-.1c-.5.6-1.1 1-2 1-.5 0-.8-.4-1-.8h-.1c.1-.1 0 0 0-.1-.6-1.3-.2-3.7.4-5.5h-.1c.3-.7.4-1.8.8-2.4.3-1 .8-1.9 1.2-2.9.2-.2.7-.1.9-.3.2 0 .5-.1.7-.1.1.1.1.3.3.4v.2c0 .4-.1.7-.3 1-.2.6-.5 1.1-.7 1.7h-.1c-.1.5-.4.9-.5 1.4l-.3.6c-.4 1.1-.6 2.3-.8 3.3 0 .3-.1.6 0 .9-.1.3 0 .5 0 .8.6-.8 1.1-1.7 1.6-2.6.2-.5.5-.9.7-1.5h.1c0-.2.1-.3.2-.5h.1c0-.2.2-.3.2-.5v.1c.1-.1.1-.2.1-.3.3-.6.7-1.2 1-1.8.2-.2.2-.4.4-.6.1-.3.3-.6.5-.9.1-.4.5-.8.6-1.2 0 0 0-.1.1 0-.1-.1.2-.3.2-.4.1 0 .2-.2.2-.3.2-.1.1-.4.4-.5-.1-.1 0-.1.1-.1 0-.3.3-.4.3-.7.1-.1.1-.4.3-.4v-.1c.1 0 .1-.1.1 0 .1-.2.2-.3.3-.5 0-.4.5-.6.7-.9.1 0 .2 0 .2-.1.2-.2.5-.2.8-.3.1 0 .4 0 .4.1.4-.1.5.2.6.4.1.1-.1.2 0 .3-.2.2-.2.6-.4 1 0 .1.1 0 .2-.1 0 .3-.1.7-.3 1.1-.2.9-.4 1.6-.6 2.6-.3 1.4-.6 2.6-.9 3.8 0 .1-.1.2 0 .4 0 .1.1-.1.1 0-.1.2-.1.5-.1.7l.5-.5c.1.1.1-.1.2-.1 0-.1-.1.1-.1 0s.1-.1.1-.1c.1-.2.3-.3.4-.5h-.1l.6-.6v.1s.1 0 .1-.1h-.1c.9-.9 1.7-1.8 2.7-2.6.2-.2.4-.3.5-.5.1 0 .1.1.1 0 .1 0 0-.1 0-.1.3-.3.7-.5.9-.8.3-.1.4-.3.5-.5 0 0 .1 0 0 .1.2-.1.3-.3.6-.4.1-.2.3-.5.5-.5 0-.1.2-.2.3-.2.1 0 0-.1.1-.1.3-.2.7-.4 1.1-.6 0 .2-.1.4-.2.6.1 0 .2-.1.2-.1-.1.3-.3.5-.5.6 1.6-.6 1.7-.8 1.9-.8zm-19.8 30c-.1 0 0 0 0 0zm.5-7v.1c.1 0 .1-.2 0-.1zm.4-1.1c0 .1 0 .1 0 0zm.3 8.8c-.1 0-.1 0-.1.1 0-.1 0-.1.1-.1zm5.4-16.4c.1 0 .1 0 0 0 .1 0 .1 0 0 0zm-.2.4c-.1 0 0 .1 0 0zm-.2.4c0-.1.1 0 .1-.1h-.1s-.1 0 0 .1zm-1.7.4zm-1.4 2c0-.1 0-.1 0 0zm-1.1 1.9c.1 0 0 0 0 0zm.8 9.4c-.1 0-.1 0 0 0-.1 0-.1 0 0 0-.2 0-.1.1 0 0-.1 0-.1 0 0 0zm1.9-4.9s-.1 0 0 0c-.1.1-.1.1 0 .1-.1 0-.1 0 0-.1zm.1-.2c-.1 0 0 0 0 0zm.3-1.3c-.1 0-.1 0 0 0-.1 0-.1 0 0 0-.1 0-.1 0 0 0zm.6 3.1c-.1 0-.1.1-.1.2.2 0 .1-.1.1-.2zm.2-6.4v.1h.1s-.1 0-.1-.1zm.4 4.6c-.1 0-.1.1-.1.1.1 0 .1 0 .1-.1zm.4-8.7c0-.1-.1 0 0 0-.1-.1 0-.2-.1-.2 0 .1 0-.1-.1 0s-.2.2-.2.3l-.1.2c0 .1-.1.2-.1.2 0 .2-.2.3-.2.4-.1 0 0-.1-.1 0 0 .2-.2.3-.2.5h-.1c.1 0-.1.2 0 .2l-.2.2h.1c-.1.1-.1.2-.2.3-.1 0-.1 0-.1-.1-.2.1 0 .3-.2.4v.3h-.1c-.1.1-.1.1-.2.3.1 0 0 .2-.1.2v-.1s0 .2-.1.1c0 .1-.1.4-.2.4 0 .3-.2.5-.3.6 0 .1 0 .2-.1.3h-.1c0 .1.1 0 .1 0-.2.1-.2.3-.3.4 0 .3-.2.5-.2.7h-.1c.1.1-.2.2-.1.3-.2.2-.1.7-.4.9 0 .1 0 .3-.2.5.1.4-.3.8-.2 1.2-.1 0-.1.2-.1.3-.2.6-.1 1.1-.4 1.7.1.1-.1.4 0 .6v.4c.1.1 0 .4-.1.6.1 0 .1.1.1.2.1 0 0 .1 0 .1.1.1.1.2.1.4.1.3.2.4.2.8.2.1.2.5.5.5v-.1l.1-.1c.1-.1 0-.1 0-.2.2-.1.3-.3.4-.5-.1-.1-.1.1-.2 0 .1-.1.2-.2.2-.4v.1s0-.1.1-.1v-.1c.1-.1.1-.2.2-.3v-.1c.1 0 0-.1.1-.1.1-.1.1 0 .1 0v-.2c0 .1-.1-.1-.1 0v-.1c.1-.2.1-.4.2-.5.1 0 .1-.1.1-.2s0 0-.1 0c0-.1.1-.1.1-.2 0 .1-.1 0-.1 0-.1 0 0 .1-.2.2 0-.1.2-.3.1-.3.1 0 0-.1.1-.1-.1 0 0-.2.1-.2-.1 0 0 .1.1.1v-.1h-.1s0-.1.1-.1h.1c0-.1.1-.2 0-.2 0-.1-.1.1-.1 0 0 0 .1-.1.2-.1v-.3s0 .1.1.1c.1-.1.1-.1.1-.2h.2v-.1c-.1.1-.1.3-.3.3 0 0 0-.1.1-.2h-.1c.1-.1.2 0 .2-.1h-.1v-.1c.1-.1.2-.2.2-.4 0 0-.1-.1 0-.1 0-.1.1-.3.2-.5-.1 0 0-.1 0-.2.1-.1.1-.4.2-.4v-.1h.1v-.1c-.1 0 0 .1-.1.1v-.1c.1-.2 0-.2 0-.4h.1c.1 0 .1 0 .1-.1h-.1c0-.1-.1 0-.1-.1.1 0 0-.1.1-.1 0-.1.1-.2.2-.2.2-.5.3-1.1.5-1.7h-.1v.1c-.1 0-.1 0-.1.1.1 0 0 .1 0 0h-.1c.1-.1.1-.2.2-.3.1 0 .1 0 .1-.1s0-.1-.1-.1-.1.1-.2.1v-.1c.1 0 .1-.2.1-.2h.2l.1-.2c0 .1-.1.1-.1.2-.1-.2.2-.6.4-.8-.2 0-.1.1-.2.2 0-.1.1-.3 0-.3l.1-.2v.1s-.1 0-.1.1v.1s.1 0 .1-.1c0-.2.1-.4.1-.7 0 0-.1 0-.1-.1.1 0 0-.1 0-.1s0-.1.1-.1h.1c0-.1.1-.2 0-.2 0 .1-.1.1-.1.2-.1 0-.1 0-.2.1 0-.1.1-.1.1-.1h-.1c0-.1.1-.2.1-.1 0-.1.1-.2.1-.4.2-.2 0-.3.2-.7-.1 0-.1-.1 0-.2-.2 0-.1.1-.2.2v-.2s-.1.1-.1 0l.2-.2h-.1v-.1h.1v-.1h-.1v-.1c.1 0 0-.4.2-.4 0-.1-.1-.1 0-.2h.1c.3-.2.3-.2.3-.3zm-.3 1.2zm-.6 3v.1c0-.1.1-.1 0-.1zm-.2.9c0 .1.1 0 0 0 .1 0 0 0 0 0zm-1.7 5.8c-.1.2.1 0 0 0zm-.8 2.2zm4.5-11.3c-.1 0-.1 0-.1.1l.1-.1zm.1-.4c0 .1-.1.2-.1.3 0-.1.1-.3.1-.3zm0-.4zm.1.1c0 .1-.2 0 0 0-.1.1 0 0 0 0zm.4-1.8s.1 0 0 0c.1-.1.1-.1 0 0 0-.1 0 0 0 0zm-.1.4c0-.1 0-.1 0 0 0-.1 0 0 0 0zm0 .2v-.1h-.1c.1.1 0 .1.1.1zm.1 1c-.1 0-.1-.1-.1 0 .1 0 0 .1.1 0-.1.1-.1.1-.2.1v.1c.1 0 .2-.1.2-.2zm.1-.4s-.1 0 0 0c0 .1-.1.1-.1.2h.1c-.1-.1 0-.1 0-.2zm0-1.5s-.1 0-.1.1c.1 0 .1-.1.1-.1zm.2.9zm0-.3c0 .1 0 .2-.1.2.1.1.2-.2.1-.2zm.2-.5s0 .1 0 0zm1.8-4.4c-.1 0-.1-.1-.1 0-.1.1 0 .1 0 .2h-.1c0 .1 0 .2-.1.2v.1c-.1 0-.2.3-.3.3 0 .1-.1.2-.1.3.2-.4.5-.8.7-1.1zm.4-.5s0-.1 0 0c-.2.1-.2.3-.4.3 0 .1 0 .1.1.1 0-.2.2-.3.3-.4zm.2-.4c-.2 0-.2.2-.2.2.1 0 .2 0 .2-.2zm.7-.9c-.2.2-.3.5-.6.7.1 0 0 .1 0 .2.2-.2.4-.4.5-.6 0-.2.2-.3.1-.3zm1.1-1.2c-.1 0-.2.1-.1.1-.1 0-.1.1-.1.1.1 0 .1-.1.1-.1s.1 0 .1-.1zm.5-.5c-.1.1 0 .1 0 0zm.3-.3l-.2.2c.1 0 .1-.1.2-.2zm0-1.8c0 .1 0 0 0 0zm.4-.4c0 .1-.1.1 0 0-.1.1 0 .1 0 0zm.1 1.7s.1-.1 0 0c-.1 0-.1 0-.1.1.1 0 .1-.1.1-.1zm.7-.7c-.1.1-.2.1-.2.2.2-.1.3-.2.2-.2zm.2-.3c-.1 0-.1.1-.2.2.2 0 .2-.1.2-.2zm.5-.5c-.1.1-.2.1-.3.2.1-.1.2-.1.3-.2zm.1-.2c.1 0 .1-.1.1-.2 0 0 0 .1-.1.2zm.3 0c-.1-.1-.3.1-.3.3.2-.1.3-.1.3-.3zm.1-1.1s0 .1 0 0c-.1 0-.1.1-.1.1.1 0 .1 0 .1-.1zm.4.7c-.1 0-.3.1-.2.2 0-.1.1 0 .2-.2zm.1-.4h-.2v.1c0 .1 0 .1-.1.1h.1l.2-.2zm.4-.5c0 .1-.1.1-.1.2.1.1.1 0 .2 0-.1 0 0-.2-.1-.2zm1.4-1.2v.1c0-.1.1-.2 0-.1zm.3-.2s0 .1 0 0c0 0 .1 0 0 0zm.1-.1c-.1 0-.1 0-.1.1 0-.1 0-.1.1-.1zm1-.9c0-.1 0-.1 0 0zm-16 16.1zm8.1-10.4zm-5.5 6.5c-.1.2.2 0 0 0zm11.2-9.8c.1 0 .2-.1.2-.2-.1 0-.1.1-.2.2zm-12.1 18.6c-.1 0-.1 0 0 0-.2-.1-.1.1 0 0zm-.2.3c-.1.1 0 0 0 0zm-1.4 5.1c0-.1 0 0 0 0zm1.2-4.7c.1 0 .1-.1.1-.1l-.1.1zm0 0c.1 0 .1 0 0 0 .1 0 .1 0 0 0zm.2-.5s-.1.1 0 .1c0 0 .1-.1 0-.1zm0-.5c.1 0 0-.1.1-.1 0 .1.1 0 .1 0h-.1c-.1 0-.1 0-.1.1zm-3.9-.1c0 .1-.1.2 0 0 0 .1 0 0 0 0zm4 .2s0 .1 0 0c0 .1 0 0 0 0zm3.1-20.2c0 .1 0 0 0 0zm-5.1 26.7c0-.1.1-.1.1-.2h-.1c.1.1 0 .2 0 .2zm2.1-6.9c-.1 0-.1 0 0 0-.1.1 0 0 0 0zm-1.1 4.5zm.4-1.9zm-1 3.6c.1-.1.1-.1 0 0 0-.1 0-.1 0 0zm2.2-8.6c-.1.1-.1 0 0 0-.1.1-.1.1 0 0zm-2 7.7c.1-.1.2-.1.2-.3h-.1c-.1.2-.1.2-.1.3zm-.7 1.7c0 .1 0 .1 0 0 0 .1 0 .1 0 0zm0 0zm3-10.3c0-.1 0 0 0 0zm-3 10.3zm2.2-6.6s.1-.1 0-.2c0 .1-.1.2 0 .2zm1.9-1.6s.1 0 0 0c.1 0 0 0 0 0zm.4-1.2c.2.2-.3.5-.2.7-.1 0-.1.2-.1.3.1 0 0 .3 0 .4.1 0 .1 0 .2-.1 0-.2.1-.3 0-.5.1 0 0-.1.1-.1 0-.1-.1 0-.1-.1.1-.1.1-.4.2-.5.1 0 0-.1.1-.2-.1 0-.2.1-.2.1zm3.4-8.8s0-.1 0 0c0-.1-.1 0 0 0zm-2.5 5.1c.1 0 .1 0 0 0 .1 0 .1 0 0 0zm-1.2 5l-.1.1c0 .1.1 0 .1-.1zm-6.2 1.6c0-.1 0 0 0 0zm5.3 2.3c.1 0 .1-.1 0 0 0-.1 0-.1 0 0zm.8-3.7c.1 0 .1 0 0 0-.1.1-.1.2-.1.3h.1c0 .1-.1.1-.1.2h.1v-.1h.1c0-.2.2-.4.1-.5-.1 0-.2 0-.2.1zm-7.5 10.7c0-.1 0-.1 0 0zm7.2-8.6c-.1 0-.1 0 0 0-.1 0-.1 0 0 0zm10.4-19.2s0 .1 0 0c.1 0 .1 0 0 0zm-11 14.1c-.1 0-.1 0 0 0-.1 0 0 0 0 0zm-.2.5c.1-.1.1 0 0 0 .1-.1 0-.1 0 0zm-1.7 1c-.1-.1-.1 0 0 0h-.1.1zm1.5-.8c.1 0 .1 0 0 0 .1 0 .1 0 0 0zm.3-.4zm.3 5.6l.1-.1h-.1c.1 0 0 .1 0 .1zm.1 0c-.2.2-.1.3-.2.4.1-.1.1-.3.2-.4zm.2-1.3zm-.4-5.8c0-.1 0-.1 0 0z">
  </path>
</svg>
