<svg xmlns="http://www.w3.org/2000/svg" viewBox="0 0 670.47 106.99"><title>Asset 1ldpi</title><g id="Layer_2" data-name="Layer 2"><g id="VS_BTY_logo" data-name="VS BTY logo"><path d="M216.22,106.46V73.89h13c6,0,11.62,1.45,11.62,8,0,4.62-2.91,6.82-6.21,7.49v.08c4,.71,7.09,2.78,7.09,8,0,6.56-5.77,9-11.84,9Zm7-19.15h5.28c3.74,0,5.46-1.41,5.46-3.92s-1.54-4-5.37-4h-5.37Zm0,13.69H229c4,0,5.72-1.59,5.72-4.36s-2.07-4.27-6-4.27h-5.46Zm37.54,5.46V73.89H283v6H268v7h10.87v5.68H268v8.1h15.8v5.81Zm38.44,0,11.53-32.7h6.83l11.53,32.7h-7.26l-2.43-7.26H308.35l-2.51,7.26ZM310.11,94h7.66L314,82.91h-.09Zm34.82,0V73.89h7.17V93.83c0,4.71,1.8,7.35,6.07,7.35s6-2.6,6-7.35V73.89h7V94c0,8-4.05,13-13.11,13S344.93,102,344.93,94Zm52.83,12.46V79.87h-9.68v-6h26.58v6h-9.72v26.59Zm42.6,0V92.64L429.14,73.89h7.39L444,86.56l7.48-12.67h7.31L447.49,92.64v13.82Z"/><path d="M6.74,6.34C5.15,2.38,3.37,1.59,0,1.59v-1H15.07v.8C12.49,1.59,11.5,2,11.5,3c0,1.39.59,2.58,15.26,40.84L41,7.73C41.63,6,42.42,4.16,42.42,3c0-1.58-2-1.58-3.56-1.58V.4H51.54v1c-3.76.39-4.95,1.19-6.34,4.76L26.56,50.55c-.39.8-.59,1.19-1,1.19s-.79-.39-1-1Zm67.4,44.81H59.08v-1h.2c4.16,0,4.16-2.78,4.16-8.13V14.08c0-5.36-.6-6.15-4.56-6.35v-1H72.76V7.93c-4.37,0-4.37,1.19-4.37,8.13V42.23c0,6.54.4,7.93,5.75,7.93Zm47-8.13c-2.18,5.15-7.34,8.72-15.47,8.72-13.87,0-22.4-9.51-22.4-22.8,0-12.29,8.73-23,23.2-23a32.42,32.42,0,0,1,13.08,2.77c.6.2.8.4.8,1l-.4,8.93h-1c0-2.58-.6-5.56-2.58-7.14-2.78-2.18-5.75-3.37-10.9-3.37-11.7,0-17,8.92-17,19.62s5.75,21.61,17.84,21.61c6.74,0,11.3-2.57,13.48-6.94.4-1,.6-1.18,1.19-1,.59.4.59.6.2,1.59m46-28.75h-1c-.4-3.37-.59-4.56-5.95-4.56h-8.52V42.62c0,6.94.79,7.54,5.75,7.54v1.19H142.34v-1c3.77,0,4.36-1.78,4.36-6.34V9.71h-7.33c-6,0-7.14.2-7.34,4.56h-1.19l-.2-7.53s6,.4,8.53.4h20.22a44.26,44.26,0,0,0,8.13-.4h0Zm29.94-6.14c-9.72,0-17.05,6.34-17.05,19.23,0,13.48,8.13,22.2,18.63,22.2,5.16,0,16.06-3,16.06-20,.2-13.88-8.33-21.41-17.64-21.41m.19,43.81c-15.86,0-22.6-12.49-22.6-23,0-9.31,6.74-22.79,23-22.79,13.09,0,22.8,8.32,22.8,21.8,0,13.09-9.12,24-23.2,24m48.57-22.6c5.36,0,8.73-4,8.73-10.11,0-6.54-4-10.31-10.11-10.31-3.37,0-4.36,0-4.36,1V28c0,.6,0,.8,1,1a26.25,26.25,0,0,0,4.75.4m23.79,21.81h-5.15c-6.15,0-8.33-4.17-11.7-9.32-2.77-4.36-5.75-10.71-9.51-10.9l-2.78-.2c-.39,0-.39,0-.39.59v11.5c0,6.94,1.18,7.34,5.74,7.34v1.19H231v-1c3.56-.19,4.36-.59,4.36-7.33V12.09c0-3.17-2-4-5.16-4V6.94h15.47c8.32,0,13.87,3.77,13.87,10.9,0,5.75-4.75,10.71-9.91,12.29,4.36,1.59,7.93,11.7,11.7,15.47,3.76,4,5.15,4.36,8.32,4.36v1.19Zm24.39,0H278.93v-1h.2c4.16,0,4.16-2.78,4.16-8.13V14.08c0-5.36-.59-6.15-4.56-6.35v-1h13.88V7.93c-4.36,0-4.36,1.19-4.36,8.13V42.23c0,6.54.4,7.93,5.75,7.93Zm34.89-19.63h0l-5.55-16.06c-.2-.39-.2-.59-.4-.59s-.39.2-.39.59l-5.36,15.66v.2a.2.2,0,0,0,.2.2h11.5m3.17,18.64c2.18-.2,3-.6,3-1.39a5.31,5.31,0,0,0-.6-2.38L329.88,34.1c-.2-.2-.2-.4-.59-.4H316.8c-.4,0-.4.2-.6.4L313,43.42a16.62,16.62,0,0,0-1.19,4.75c0,1.19,1.19,1.79,3.57,1.79v1.19H302.52l.2-1c3.77-.4,5-1.79,6.34-5.36L322.55,8.33c.79-2,.79-2,1.19-2s.59.2,1.18,2L338.8,44.41c1.39,3.57,2.78,5.75,6.74,5.75l.2,1.19H331.66V50.16Zm20.82-43c0,4-2.78,6.74-7.14,7.33v-1c3.37-.59,4.76-2.58,4.76-4.16,0-1.39-.79-2.38-2.58-3.37-1.19-.6-2-1.19-2-2.38a2.38,2.38,0,0,1,2.38-2.18,5.52,5.52,0,0,1,4.56,5.75m20.61,44.6c-3.56,0-6.93-.2-10.5-2.38V40.84h1.19c.2,6.54,4.56,8.72,9.91,8.72,6,0,9.12-4,9.12-7.53,0-4.76-2.78-7.54-9.12-11.5-8.53-5.35-10.71-9.32-10.71-13.68,0-6.14,4.76-10.9,12.49-10.9a26.6,26.6,0,0,1,9.72,1.78v6.94H384.4a10.41,10.41,0,0,0-1.19-3.77c-.4-.59-2.18-3.17-8.13-3.17-4.56,0-7.93,3-7.93,7.14,0,4,3,6.34,9.91,10.9,6.74,4.56,10.11,8.92,10.11,13.48.2,7.54-5.35,12.49-13.68,12.49m50.56-2.58V40.05h1.19C425.83,47.58,431,50,436.93,50c6.94,0,10.91-4.56,10.91-9.12,0-5.35-3.57-8.72-10.71-13.28-9.71-6.15-11.89-10.91-11.89-15.27C425.24,5.15,430.59,0,439.71,0a37,37,0,0,1,10.51,2V9.52H449a8.75,8.75,0,0,0-1.39-4c-.4-.79-2.58-3.77-9.52-3.77-5.35,0-9.31,3.57-9.31,8.33s3.56,7.53,11.49,12.69C448,28,451.8,32.91,451.8,38.06c0,12.89-12.88,13.68-16.06,13.68-7.53.2-11.69-2.58-11.69-2.58m69-5.74-.2,7.73H463.3V50c3,0,4.36-.8,4.36-6.54V11.7c0-2.78-2-3.77-5.15-3.77V6.74c2.38.2,5.94.4,9.12.4h12.49c1.19,0,7.13-.2,7.13-.2l-.2,7.53h-1.19c-.19-4.56-3-5-8.32-5H473c-.59,0-.59.19-.59.59V26c0,.4,0,.59.4.59h10.5c2,0,2.78-.59,3-2.37h1.19V33.5H486.3c-.2-2-.2-4-3.57-4.36-1.79-.2-8.92-.39-9.91-.39-.4,0-.4.19-.4.39V46c.2,3,.2,3,7.73,3,2.38,0,7.73,0,9.12-.6,1.78-.79,2.38-2.38,2.58-4.95Zm47.18-.4c-2.18,5.15-7.34,8.72-15.46,8.72-13.88,0-22.41-9.51-22.41-22.8,0-12.29,8.73-23,23.2-23a32.39,32.39,0,0,1,13.08,2.77c.6.2.8.4.8,1l-.4,8.93h-1c0-2.58-.6-5.56-2.58-7.14-2.77-2.18-5.75-3.37-10.9-3.37-11.7,0-17,8.92-17,19.62s5.75,21.61,17.84,21.61c6.74,0,11.3-2.57,13.48-6.94.6-1,.6-1.18,1.19-1,.6.4.6.6.2,1.59m25-13.68c5.35,0,8.72-4,8.72-10.11,0-6.54-4-10.31-10.11-10.31-3.37,0-4.36,0-4.36,1V28c0,.6,0,.8,1,1a26.38,26.38,0,0,0,4.76.4M589,51.15h-5.16c-6.14,0-8.32-4.17-11.69-9.32-2.78-4.36-5.75-10.71-9.52-10.9l-2.77-.2c-.4,0-.4,0-.4.59v11.5c0,6.94,1.19,7.34,5.75,7.34v1.19H550.33v-1c3.57-.19,4.36-.59,4.36-7.33V12.09c0-3.17-2-4-5.15-4V6.94H565c8.33,0,13.88,3.77,13.88,10.9,0,5.75-4.76,10.71-9.92,12.29,4.37,1.59,7.93,11.7,11.7,15.47,3.77,4,5.16,4.36,8.33,4.36Zm36.47-7.73-.19,7.73H595.73V50c3,0,4.36-.8,4.36-6.54V11.7c0-2.78-2-3.77-5.15-3.77V6.74c2.37.2,5.94.4,9.11.4h12.49c1.19,0,7.14-.2,7.14-.2l-.2,7.53h-1.19c-.2-4.56-3-5-8.32-5h-8.53c-.59,0-.59.19-.59.59V26c0,.4,0,.59.39.59h10.51c2,0,2.78-.59,3-2.37h1.19V33.5h-1.19c-.19-2-.19-4-3.56-4.36-1.79-.2-8.92-.39-9.92-.39-.39,0-.39.19-.39.39V46c.2,3,.2,3,7.73,3,2.38,0,7.73,0,9.12-.6,1.78-.79,2.38-2.38,2.58-4.95Zm44.81-29.15h-1c-.4-3.37-.6-4.56-5.95-4.56h-8.52V42.62c0,6.94.79,7.54,5.74,7.54v1.19H645.49v-1c3.76,0,4.36-1.78,4.36-6.34V9.71h-7.53c-6,0-7.14.2-7.34,4.56h-1.19l-.2-7.53s5.95.4,8.53.4h20.22a44.26,44.26,0,0,0,8.13-.4h0Z"/></g></g></svg>