<?xml version="1.0" encoding="UTF-8"?>
<svg width="334px" height="67px" viewBox="0 0 334 67" version="1.1" xmlns="http://www.w3.org/2000/svg" xmlns:xlink="http://www.w3.org/1999/xlink">
    <!-- Generator: sketchtool 51.1 (57501) - http://www.bohemiancoding.com/sketch -->
    <title>E83F9EDF-E413-40D8-9204-C4D4ECCF0B17</title>
    <desc>Created with sketchtool.</desc>
    <defs></defs>
    <g id="Page-1" stroke="none" stroke-width="1" fill="none" fill-rule="evenodd">
        <g id="Logo" transform="translate(-40.000000, -376.000000)" fill="#E7529D">
            <g id="VS-Pink---Ar" transform="translate(40.000000, 376.000000)">
                <polygon id="Fill-1" points="10.2006 42.2078 7.9996 60.3568 5.8336 42.2078 -0.0004 42.2078 3.7036 66.6848 11.6666 66.6848 15.4066 42.2078"></polygon>
                <polygon id="Fill-2" points="18.76 66.6841 24.35 66.6841 24.35 42.2091 18.76 42.2091"></polygon>
                <polygon id="Fill-3" points="31.3353 42.2078 28.3673 45.1818 28.3673 63.7138 31.3353 66.6848 38.6373 66.6848 41.6073 63.7138 41.6073 58.8528 36.5053 58.8528 36.5053 61.9298 33.9573 61.9298 33.9573 46.9648 36.5053 46.9648 36.5053 50.0418 41.6073 50.0418 41.6073 45.1818 38.6373 42.2078"></polygon>
                <polygon id="Fill-4" points="45.0999 42.2078 45.0999 46.9638 49.3629 46.9638 49.3629 66.6848 54.9529 66.6848 54.9529 46.9638 59.2149 46.9638 59.2149 42.2078"></polygon>
                <path d="M65.6775,42.2078 L62.7085,45.1808 L62.7085,63.7128 L65.6775,66.6838 L73.3625,66.6838 L76.3325,63.7128 L76.3325,45.1808 L73.3625,42.2078 L65.6775,42.2078 Z M68.2975,61.9288 L70.7425,61.9288 L70.7425,46.9638 L68.2975,46.9638 L68.2975,61.9288 Z" id="Fill-5"></path>
                <path d="M80.3502,42.2078 L80.3502,66.6838 L85.9392,66.6838 L85.9392,58.2938 L87.3022,58.2938 L89.0832,66.6838 L94.6032,66.6838 L92.2622,56.8948 L92.4022,56.8948 L93.9742,55.2868 L93.9742,45.1808 L91.0052,42.2078 L80.3502,42.2078 Z M85.9392,53.5378 L88.3862,53.5378 L88.3862,46.9638 L85.9392,46.9638 L85.9392,53.5378 Z" id="Fill-6"></path>
                <polygon id="Fill-7" points="97.886 66.6841 103.475 66.6841 103.475 42.2091 97.886 42.2091"></polygon>
                <path d="M110.5686,42.2078 L106.8666,66.6848 L112.1396,66.6848 L112.7336,61.5098 L115.8426,61.5098 L116.4716,66.6848 L122.2696,66.6848 L118.5336,42.2078 L110.5686,42.2078 Z M114.3066,48.5358 L115.3206,56.9988 L113.2576,56.9988 L114.3066,48.5358 Z" id="Fill-8"></path>
                <polygon id="Fill-9" points="131.8751 46.9988 129.2541 52.1738 124.0491 52.1738 126.2851 47.8378 126.2851 42.2078 131.8751 42.2078"></polygon>
                <polygon id="Fill-10" points="138.6909 42.2078 135.7219 45.1818 135.7219 53.6778 138.6909 56.6498 143.5109 56.6498 143.5109 61.9298 140.6819 61.9298 140.6819 58.8528 135.4069 58.8528 135.4069 63.7138 138.3759 66.6848 146.1319 66.6848 149.1009 63.7138 149.1009 54.8658 146.1319 51.8958 141.3109 51.8958 141.3109 46.9648 143.5109 46.9648 143.5109 50.0418 148.7859 50.0418 148.7859 45.1818 145.7809 42.2078"></polygon>
                <polygon id="Fill-11" points="164.3247 42.2078 161.3547 45.1818 161.3547 53.6778 164.3247 56.6498 169.1457 56.6498 169.1457 61.9298 166.3157 61.9298 166.3157 58.8528 161.0417 58.8528 161.0417 63.7138 164.0097 66.6848 171.7657 66.6848 174.7357 63.7138 174.7357 54.8658 171.7657 51.8958 166.9447 51.8958 166.9447 46.9648 169.1457 46.9648 169.1457 50.0418 174.4197 50.0418 174.4197 45.1818 171.4147 42.2078"></polygon>
                <polygon id="Fill-12" points="178.578 42.2078 178.578 66.6848 191.539 66.6848 191.539 61.9298 184.168 61.9298 184.168 56.6498 190.352 56.6498 190.352 51.8938 184.168 51.8938 184.168 46.9648 191.539 46.9648 191.539 42.2078"></polygon>
                <polygon id="Fill-13" points="197.9658 42.2078 194.9978 45.1818 194.9978 63.7138 197.9658 66.6848 205.2678 66.6848 208.2378 63.7138 208.2378 58.8528 203.1368 58.8528 203.1368 61.9298 200.5868 61.9298 200.5868 46.9648 203.1368 46.9648 203.1368 50.0418 208.2378 50.0418 208.2378 45.1818 205.2678 42.2078"></polygon>
                <path d="M212.2551,42.2078 L212.2551,66.6838 L217.8451,66.6838 L217.8451,58.2938 L219.2081,58.2938 L220.9891,66.6838 L226.5091,66.6838 L224.1681,56.8948 L224.3071,56.8948 L225.8791,55.2868 L225.8791,45.1808 L222.9101,42.2078 L212.2551,42.2078 Z M217.8451,53.5378 L220.2901,53.5378 L220.2901,46.9638 L217.8451,46.9638 L217.8451,53.5378 Z" id="Fill-14"></path>
                <polygon id="Fill-15" points="229.7925 42.2078 229.7925 66.6848 242.7545 66.6848 242.7545 61.9298 235.3825 61.9298 235.3825 56.6498 241.5655 56.6498 241.5655 51.8938 235.3825 51.8938 235.3825 46.9648 242.7545 46.9648 242.7545 42.2078"></polygon>
                <polygon id="Fill-16" points="246.0375 42.2078 246.0375 46.9638 250.2995 46.9638 250.2995 66.6848 255.8885 66.6848 255.8885 46.9638 260.1495 46.9638 260.1495 42.2078"></polygon>
                <path d="M272.0349,42.2078 L272.0349,66.6838 L277.6239,66.6838 L277.6239,58.2938 L282.6899,58.2938 L285.6579,55.2868 L285.6579,45.1808 L282.6899,42.2078 L272.0349,42.2078 Z M277.6239,53.5378 L280.0699,53.5378 L280.0699,46.9638 L277.6239,46.9638 L277.6239,53.5378 Z" id="Fill-17"></path>
                <polygon id="Fill-18" points="289.676 66.6841 295.266 66.6841 295.266 42.2091 289.676 42.2091"></polygon>
                <polygon id="Fill-19" points="308.8566 42.2078 308.8566 53.2578 305.0836 42.2078 299.6326 42.2078 299.6326 66.6848 304.1756 66.6848 304.1756 55.6358 307.9486 66.6848 313.3976 66.6848 313.3976 42.2078"></polygon>
                <polygon id="Fill-20" points="327.4767 42.2087 323.3537 50.9137 323.3537 42.2087 317.7647 42.2087 317.7647 66.6847 323.3537 66.6847 323.3537 60.6357 324.6117 58.3287 327.8597 66.6847 333.8687 66.6847 328.0707 51.9637 333.4157 42.2087"></polygon>
                <path d="M44.7311,24.9437 C41.5601,24.9437 39.6901,23.2507 39.6901,19.9037 L39.6901,15.6877 L42.5151,13.8627 L42.5151,20.0327 C42.5151,21.4237 42.9931,22.1627 44.5141,22.1627 L59.7241,22.1627 L59.7241,4.6497 L62.5061,4.6497 L62.5061,22.1627 L64.2871,22.1627 L64.2871,24.9437 L44.7311,24.9437 Z M48.3811,15.0357 L48.3811,13.8627 L49.6421,13.8627 C49.4251,13.5157 49.2941,13.1247 49.2941,12.7327 C49.2941,11.5597 50.0771,10.4297 51.5541,10.4297 L52.8141,10.4297 L52.8141,11.6027 L51.9891,11.6027 C51.0321,11.6027 50.5541,11.9497 50.5541,12.7327 C50.5541,13.5587 51.1631,13.8627 51.9891,13.8627 L53.6401,13.8627 L53.6401,15.0357 L48.3811,15.0357 Z" id="Fill-21"></path>
                <path d="M64.0651,24.9437 L64.0651,22.1627 L69.4981,22.1627 L69.4981,10.5177 L72.2781,10.5177 L72.2781,22.1627 L74.0171,22.1627 L74.0171,24.9437 L64.0651,24.9437 Z M69.1921,5.3457 C69.1921,4.4317 69.9321,3.6507 70.8881,3.6507 C71.8001,3.6507 72.5391,4.4317 72.5391,5.3457 C72.5391,6.2587 71.8001,7.0847 70.8881,7.0847 C69.9321,7.0847 69.1921,6.2587 69.1921,5.3457 Z" id="Fill-23"></path>
                <path d="M73.7985,24.9437 L73.7985,22.1627 L79.2315,22.1627 L79.2315,10.5177 L82.0115,10.5177 L82.0115,22.1627 L83.7495,22.1627 L83.7495,24.9437 L73.7985,24.9437 Z M76.3195,32.5487 C75.3625,32.5487 74.6245,31.8097 74.6245,30.8537 C74.6245,29.9407 75.3625,29.1597 76.3195,29.1597 C77.2315,29.1597 78.0135,29.9407 78.0135,30.8537 C78.0135,31.8097 77.2315,32.5487 76.3195,32.5487 Z M78.9255,30.8537 C78.9255,29.9407 79.6655,29.1597 80.6215,29.1597 C81.5335,29.1597 82.2725,29.9407 82.2725,30.8537 C82.2725,31.8097 81.5335,32.5487 80.6215,32.5487 C79.6655,32.5487 78.9255,31.8097 78.9255,30.8537 Z" id="Fill-25"></path>
                <path d="M83.5309,24.9437 L83.5309,22.1627 L86.9199,22.1627 C88.3109,22.1627 88.9639,21.5107 88.9639,20.2507 L88.9639,10.5177 L91.7439,10.5177 L91.7439,20.1197 C91.7439,23.5527 89.4409,24.9437 86.7029,24.9437 L83.5309,24.9437 Z M90.0489,32.5487 C89.1369,32.5487 88.3549,31.8097 88.3549,30.8537 C88.3549,29.9407 89.1369,29.1597 90.0489,29.1597 C90.9619,29.1597 91.7439,29.9407 91.7439,30.8537 C91.7439,31.8097 90.9619,32.5487 90.0489,32.5487 Z" id="Fill-27"></path>
                <path d="M106.2565,24.9437 C103.0845,24.9437 101.2155,23.2507 101.2155,19.9037 L101.2155,15.6877 L104.0395,13.8627 L104.0395,20.0327 C104.0395,21.4237 104.5185,22.1627 106.0395,22.1627 L121.2495,22.1627 L121.2495,10.5177 L124.0295,10.5177 L124.0295,22.1627 L125.8115,22.1627 L125.8115,24.9437 L106.2565,24.9437 Z M108.8205,5.3457 C108.8205,4.4317 109.6025,3.6507 110.5585,3.6507 C111.4715,3.6507 112.2535,4.4317 112.2535,5.3457 C112.2535,6.2587 111.4715,7.0847 110.5585,7.0847 C109.6025,7.0847 108.8205,6.2587 108.8205,5.3457 Z M113.1655,5.3457 C113.1655,4.4317 113.9045,3.6507 114.8175,3.6507 C115.7305,3.6507 116.5115,4.4317 116.5115,5.3457 C116.5115,6.2587 115.7305,7.0847 114.8175,7.0847 C113.9045,7.0847 113.1655,6.2587 113.1655,5.3457 Z" id="Fill-29"></path>
                <path d="M125.59,24.9437 L125.59,22.1627 L128.979,22.1627 C130.37,22.1627 131.022,21.5107 131.022,20.2507 L131.022,10.5177 L133.803,10.5177 L133.803,20.1197 C133.803,23.5527 131.499,24.9437 128.762,24.9437 L125.59,24.9437 Z M128.11,32.5487 C127.154,32.5487 126.416,31.8097 126.416,30.8537 C126.416,29.9407 127.154,29.1597 128.11,29.1597 C129.023,29.1597 129.805,29.9407 129.805,30.8537 C129.805,31.8097 129.023,32.5487 128.11,32.5487 Z M130.717,30.8537 C130.717,29.9407 131.456,29.1597 132.412,29.1597 C133.325,29.1597 134.064,29.9407 134.064,30.8537 C134.064,31.8097 133.325,32.5487 132.412,32.5487 C131.456,32.5487 130.717,31.8097 130.717,30.8537 Z" id="Fill-31"></path>
                <path d="M136.5392,30.0726 C139.4072,29.1596 140.0152,28.0306 140.0152,25.3356 L140.0152,10.5166 L142.7972,10.5166 L142.7972,22.1626 L144.5362,22.1626 L144.5362,24.9446 L142.7972,24.9446 L142.7972,26.2056 C142.7972,29.1596 141.2762,31.3766 138.4952,32.5486 L136.5392,30.0726 Z" id="Fill-33"></path>
                <path d="M144.317,24.9437 L144.317,22.1627 L156.92,22.1627 L156.92,15.3407 C156.92,13.9497 156.311,13.2977 154.92,13.2977 L147.664,13.2977 L147.664,9.6047 C147.664,5.9977 149.749,4.6497 152.834,4.6497 L157.658,4.6497 L157.658,7.4747 L152.486,7.4747 C151.357,7.4747 150.444,7.8227 150.444,9.4727 L150.444,10.5177 L154.834,10.5177 C157.832,10.5177 159.657,12.2127 159.657,15.4267 L159.657,22.1627 L161.44,22.1627 L161.44,24.9437 L144.317,24.9437 Z" id="Fill-35"></path>
                <path d="M161.2189,24.9437 L161.2189,22.1627 L166.6509,22.1627 L166.6509,10.5177 L169.4329,10.5177 L169.4329,22.1627 L171.1709,22.1627 L171.1709,24.9437 L161.2189,24.9437 Z M163.7399,32.5487 C162.7819,32.5487 162.0439,31.8097 162.0439,30.8537 C162.0439,29.9407 162.7819,29.1597 163.7399,29.1597 C164.6519,29.1597 165.4339,29.9407 165.4339,30.8537 C165.4339,31.8097 164.6519,32.5487 163.7399,32.5487 Z M166.3459,30.8537 C166.3459,29.9407 167.0849,29.1597 168.0409,29.1597 C168.9529,29.1597 169.6939,29.9407 169.6939,30.8537 C169.6939,31.8097 168.9529,32.5487 168.0409,32.5487 C167.0849,32.5487 166.3459,31.8097 166.3459,30.8537 Z" id="Fill-37"></path>
                <path d="M170.9532,24.9437 L170.9532,22.1627 L179.1232,22.1627 L179.1232,10.5177 L181.9042,10.5177 L181.9042,22.1627 L186.7272,22.1627 L186.7272,10.5177 L189.5102,10.5177 L189.5102,22.1627 L192.2902,22.1627 C193.5502,22.1627 194.3332,21.6417 194.3332,20.2077 L194.3332,10.5177 L197.1142,10.5177 L197.1142,20.0777 C197.1142,22.9017 195.5492,24.9437 192.1152,24.9437 L170.9532,24.9437 Z" id="Fill-39"></path>
                <path d="M210.9708,24.9437 C208.5808,24.9437 206.6248,23.1617 206.6248,20.5117 L206.6248,4.6497 L209.4488,4.6497 L209.4488,20.3807 C209.4488,21.0767 209.7088,22.1627 210.9708,22.1627 L211.1438,22.1627 L211.1438,24.9437 L210.9708,24.9437 Z" id="Fill-41"></path>
                <path d="M210.9689,24.9437 L210.9689,22.1627 L214.3589,22.1627 C215.7489,22.1627 216.4029,21.5107 216.4029,20.2507 L216.4029,10.5177 L219.1829,10.5177 L219.1829,20.1197 C219.1829,23.5527 216.8799,24.9437 214.1409,24.9437 L210.9689,24.9437 Z M213.4899,32.5487 C212.5319,32.5487 211.7939,31.8097 211.7939,30.8537 C211.7939,29.9407 212.5319,29.1597 213.4899,29.1597 C214.4019,29.1597 215.1849,29.9407 215.1849,30.8537 C215.1849,31.8097 214.4019,32.5487 213.4899,32.5487 Z M216.0969,30.8537 C216.0969,29.9407 216.8359,29.1597 217.7919,29.1597 C218.7039,29.1597 219.4439,29.9407 219.4439,30.8537 C219.4439,31.8097 218.7039,32.5487 217.7919,32.5487 C216.8359,32.5487 216.0969,31.8097 216.0969,30.8537 Z" id="Fill-43"></path>
                <path d="M221.9181,30.0726 C224.7861,29.1596 225.3961,28.0306 225.3961,25.3356 L225.3961,10.5166 L228.1771,10.5166 L228.1771,26.2056 C228.1771,29.1596 226.6541,31.3766 223.8741,32.5486 L221.9181,30.0726 Z" id="Fill-45"></path>
                <path d="M242.6466,24.9437 L242.6466,25.2907 C242.6466,29.8987 240.6456,32.2017 235.4326,32.5487 L233.5646,30.0277 L233.9986,30.0277 C237.2996,30.0277 239.8206,29.0287 239.8206,25.8147 L239.8206,24.9437 L237.4306,24.9437 C234.3446,24.9437 232.2146,23.4657 232.2146,20.0327 L232.2146,15.4267 C232.2146,12.4287 233.9986,10.5177 237.1256,10.5177 L242.6466,10.5177 L242.6466,22.1627 L244.3396,22.1627 L244.3396,24.9437 L242.6466,24.9437 Z M239.8206,13.2977 L237.0396,13.2977 C235.5616,13.2977 235.0416,13.9497 235.0416,15.4267 L235.0416,20.0327 C235.0416,21.9467 235.9096,22.1627 237.6486,22.1627 L239.8206,22.1627 L239.8206,13.2977 Z" id="Fill-47"></path>
                <path d="M244.1642,24.9437 L244.1642,22.1627 L249.5972,22.1627 L249.5972,10.5177 L252.3782,10.5177 L252.3782,22.1627 L254.1162,22.1627 L254.1162,24.9437 L244.1642,24.9437 Z M244.9892,5.3457 C244.9892,4.4317 245.7272,3.6507 246.6852,3.6507 C247.5972,3.6507 248.3802,4.4317 248.3802,5.3457 C248.3802,6.2587 247.5972,7.0847 246.6852,7.0847 C245.7272,7.0847 244.9892,6.2587 244.9892,5.3457 Z M249.2922,5.3457 C249.2922,4.4317 250.0312,3.6507 250.9872,3.6507 C251.8992,3.6507 252.6392,4.4317 252.6392,5.3457 C252.6392,6.2587 251.8992,7.0847 250.9872,7.0847 C250.0312,7.0847 249.2922,6.2587 249.2922,5.3457 Z" id="Fill-49"></path>
                <path d="M253.8966,24.9437 L253.8966,22.1627 L266.4996,22.1627 L266.4996,15.3407 C266.4996,13.9497 265.8906,13.2977 264.5006,13.2977 L257.2436,13.2977 L257.2436,9.6047 C257.2436,5.9977 259.3306,4.6497 262.4136,4.6497 L267.2376,4.6497 L267.2376,7.4747 L262.0676,7.4747 C260.9356,7.4747 260.0236,7.8227 260.0236,9.4727 L260.0236,10.5177 L264.4146,10.5177 C267.4116,10.5177 269.2376,12.2127 269.2376,15.4267 L269.2376,22.1627 L271.0196,22.1627 L271.0196,24.9437 L253.8966,24.9437 Z" id="Fill-51"></path>
                <path d="M270.7999,24.9437 L270.7999,22.1627 L276.2309,22.1627 L276.2309,10.5177 L279.0129,10.5177 L279.0129,22.1627 L280.7499,22.1627 L280.7499,24.9437 L270.7999,24.9437 Z M273.3209,32.5487 C272.3639,32.5487 271.6259,31.8097 271.6259,30.8537 C271.6259,29.9407 272.3639,29.1597 273.3209,29.1597 C274.2339,29.1597 275.0139,29.9407 275.0139,30.8537 C275.0139,31.8097 274.2339,32.5487 273.3209,32.5487 Z M275.9269,30.8537 C275.9269,29.9407 276.6649,29.1597 277.6219,29.1597 C278.5339,29.1597 279.2739,29.9407 279.2739,30.8537 C279.2739,31.8097 278.5339,32.5487 277.6219,32.5487 C276.6649,32.5487 275.9269,31.8097 275.9269,30.8537 Z" id="Fill-53"></path>
                <path d="M280.5323,24.9437 L280.5323,22.1627 L283.7473,22.1627 L283.7473,15.4267 C283.7473,12.2987 285.6593,10.5177 288.5713,10.5177 L294.1783,10.5177 L294.1783,20.0327 C294.1783,23.4657 291.9173,24.9437 289.3093,24.9437 L280.5323,24.9437 Z M285.1383,5.3457 C285.1383,4.4317 285.9213,3.6507 286.8753,3.6507 C287.7883,3.6507 288.5283,4.4317 288.5283,5.3457 C288.5283,6.2587 287.7883,7.0847 286.8753,7.0847 C285.9213,7.0847 285.1383,6.2587 285.1383,5.3457 Z M291.3523,13.2977 L288.5713,13.2977 C287.3983,13.2977 286.5733,13.7317 286.5733,15.4267 L286.5733,22.1627 L288.9633,22.1627 C290.3963,22.1627 291.3523,21.7717 291.3523,20.1197 L291.3523,13.2977 Z M288.9193,3.0417 C288.1373,3.0417 287.4413,2.3467 287.4413,1.5217 C287.4413,0.6947 288.1373,-0.0003 288.9193,-0.0003 C289.7883,-0.0003 290.4393,0.6947 290.4393,1.5217 C290.4393,2.3467 289.7883,3.0417 288.9193,3.0417 Z M289.3963,5.3457 C289.3963,4.4317 290.2213,3.6507 291.1353,3.6507 C292.0493,3.6507 292.8293,4.4317 292.8293,5.3457 C292.8293,6.2587 292.0493,7.0847 291.1353,7.0847 C290.2213,7.0847 289.3963,6.2587 289.3963,5.3457 Z" id="Fill-55"></path>
            </g>
        </g>
    </g>
</svg>
