<?xml version="1.0" standalone="no"?>
<!DOCTYPE svg PUBLIC "-//W3C//DTD SVG 20010904//EN"
 "http://www.w3.org/TR/2001/REC-SVG-20010904/DTD/svg10.dtd">
<svg version="1.0" xmlns="http://www.w3.org/2000/svg"
 width="150.000000pt" height="50.000000pt" viewBox="0 0 1673.000000 358.000000"
 preserveAspectRatio="xMidYMid meet">
<metadata>
Created by potrace 1.16, written by Peter Selinger 2001-2019
</metadata>
<g transform="translate(0.000000,358.000000) scale(0.100000,-0.100000)"
fill="#000000" stroke="none">
<path d="M0 3561 c0 -10 52 -360 115 -777 63 -417 115 -764 115 -771 0 -10 55
-13 263 -13 l262 0 120 788 121 787 -170 3 c-93 1 -171 1 -173 -1 -2 -2 -34
-253 -71 -558 -37 -305 -68 -547 -69 -539 -2 8 -30 242 -63 520 -33 278 -62
522 -66 543 l-6 37 -189 0 c-179 0 -189 -1 -189 -19z"/>
<path d="M1200 2790 l0 -790 185 0 185 0 0 790 0 790 -185 0 -185 0 0 -790z"/>
<path d="M1912 3487 l-92 -92 0 -600 0 -600 98 -98 97 -97 235 0 235 0 98 98
97 97 0 163 0 162 -170 0 -170 0 0 -100 0 -100 -75 0 -75 0 0 475 0 475 75 0
75 0 0 -100 0 -100 170 0 170 0 0 163 0 162 -93 93 -92 92 -245 0 -245 0 -93
-93z"/>
<path d="M2900 3425 l0 -155 135 0 135 0 0 -635 0 -635 185 0 185 0 0 635 0
635 135 0 135 0 0 155 0 155 -455 0 -455 0 0 -155z"/>
<path d="M4122 3487 l-92 -92 0 -600 0 -600 98 -98 97 -97 245 0 245 0 98 98
97 97 0 600 0 600 -93 93 -92 92 -255 0 -255 0 -93 -93z m418 -692 l0 -475
-70 0 -70 0 0 475 0 475 70 0 70 0 0 -475z"/>
<path d="M5160 2790 l0 -790 185 0 185 0 0 270 0 270 39 0 c29 0 41 -5 45 -17
2 -10 28 -132 57 -270 l54 -253 182 0 c101 0 183 3 183 8 0 4 -34 144 -74 312
l-74 305 54 55 54 56 0 329 0 330 -93 93 -92 92 -353 0 -352 0 0 -790z m520
275 l0 -205 -75 0 -75 0 0 205 0 205 75 0 75 0 0 -205z"/>
<path d="M6290 2790 l0 -790 185 0 185 0 0 790 0 790 -185 0 -185 0 0 -790z"/>
<path d="M6987 2803 c-65 -428 -117 -784 -117 -790 0 -10 41 -13 174 -13 l173
0 19 170 18 171 96 -3 95 -3 20 -165 20 -165 193 -3 193 -2 -6 32 c-7 43 -235
1537 -235 1543 0 3 -118 5 -263 5 l-263 0 -117 -777z m417 -111 l7 -52 -62 0
-61 0 5 33 c3 17 16 113 27 212 12 99 24 187 27 195 4 8 16 -64 28 -160 12
-97 25 -199 29 -228z"/>
<path d="M8120 3404 l0 -175 -76 -145 -76 -144 176 0 176 0 85 170 85 170 0
150 0 150 -185 0 -185 0 0 -176z"/>
<path d="M8812 3487 l-92 -92 0 -275 0 -275 98 -98 97 -97 153 0 152 0 0 -165
0 -165 -85 0 -85 0 0 100 0 100 -175 0 -175 0 0 -163 0 -162 98 -98 97 -97
250 0 250 0 98 98 97 97 0 290 0 290 -93 93 -92 92 -158 0 -157 0 0 155 0 155
65 0 65 0 0 -100 0 -100 175 0 175 0 0 163 0 162 -93 93 -92 92 -240 0 -240 0
-93 -93z"/>
<path d="M10462 3487 l-92 -92 0 -275 0 -275 98 -98 97 -97 153 0 152 0 0
-165 0 -165 -85 0 -85 0 0 100 0 100 -175 0 -175 0 0 -163 0 -162 98 -98 97
-97 250 0 250 0 98 98 97 97 0 290 0 290 -93 93 -92 92 -158 0 -157 0 0 155 0
155 65 0 65 0 0 -100 0 -100 175 0 175 0 0 163 0 162 -93 93 -92 92 -240 0
-240 0 -93 -93z"/>
<path d="M11480 2790 l0 -790 420 0 420 0 0 160 0 160 -235 0 -235 0 0 165 0
165 200 0 200 0 0 155 0 155 -200 0 -200 0 0 155 0 155 235 0 235 0 0 155 0
155 -420 0 -420 0 0 -790z"/>
<path d="M12632 3487 l-92 -92 0 -605 0 -605 93 -93 92 -92 240 0 240 0 98 98
97 97 0 163 0 162 -170 0 -170 0 0 -100 0 -100 -80 0 -80 0 0 475 0 475 80 0
80 0 0 -100 0 -100 170 0 170 0 0 163 0 162 -93 93 -92 92 -245 0 -245 0 -93
-93z"/>
<path d="M13640 2790 l0 -790 185 0 185 0 0 271 0 270 42 -3 42 -3 56 -265 56
-265 182 -3 c121 -2 182 1 182 8 0 6 -31 142 -70 302 -38 161 -70 299 -70 308
0 9 23 38 50 65 l50 49 0 331 0 330 -93 93 -92 92 -353 0 -352 0 0 -790z m520
275 l0 -205 -75 0 -75 0 0 205 0 205 75 0 75 0 0 -205z"/>
<path d="M14770 2790 l0 -790 425 0 425 0 0 160 0 160 -240 0 -240 0 0 165 0
165 200 0 200 0 0 155 0 155 -200 0 -200 0 0 155 0 155 240 0 240 0 0 155 0
155 -425 0 -425 0 0 -790z"/>
<path d="M15820 3425 l0 -155 135 0 135 0 0 -635 0 -635 185 0 185 0 0 635 0
635 135 0 135 0 0 155 0 155 -455 0 -455 0 0 -155z"/>
<path d="M6370 790 l0 -790 185 0 185 0 0 265 0 265 163 0 162 0 98 98 97 97
0 330 0 330 -98 98 -97 97 -348 0 -347 0 0 -790z m520 265 l0 -205 -75 0 -75
0 0 205 0 205 75 0 75 0 0 -205z"/>
<path d="M7510 790 l0 -790 185 0 185 0 0 790 0 790 -185 0 -185 0 0 -790z"/>
<path d="M8150 790 l0 -790 150 0 150 0 1 333 0 332 113 -330 113 -330 182 -3
181 -2 0 790 0 790 -150 0 -150 0 -2 -335 -3 -336 -115 336 -114 335 -178 0
-178 0 0 -790z"/>
<path d="M9310 790 l0 -790 185 0 185 0 0 193 1 192 38 68 38 67 98 -252 c54
-139 101 -256 105 -261 3 -4 95 -6 202 -5 l196 3 -174 440 c-95 242 -178 454
-184 471 -10 30 -2 48 155 333 91 166 168 308 171 316 6 14 -18 15 -192 13
l-198 -3 -128 -270 -128 -270 0 273 0 272 -185 0 -185 0 0 -790z"/>
</g>
</svg>
