<svg xmlns="http://www.w3.org/2000/svg" width="120" height="37" viewBox="0 0 120 37">
    <path fill="#EF5F96" fill-rule="nonzero" d="M19.05 6.6H10.2v11.85h8.85L21 16.5V8.55L19.05 6.6zm-1.35 8.7h-4.2V9.9h4.2v5.4zM22.5 0H0v9.9h2.55V27H0v9.75h16.05V27h-2.7v-1.8h9l6.15-6.6v-12l-6-6.6zm2.85 17.4l-4.5 4.5H10.2v8.25h2.7v3.45H3.3v-3.45h2.55V6.6H3.3V3.15H21l4.5 4.65v9.6h-.15zM48 9.9V0H31.95v9.9h2.55V27h-2.55v9.75H48V27h-2.55V9.9H48zm-3.3-3.3h-2.55V30h2.55v3.45h-9.45V30h2.55V6.6h-2.55V3.15h9.45V6.6zM70.65 0v9.3h2.55v7.2L64.5 0H51.3v9.9h2.55V27H51.3v9.75H66V27.3h-3v-9l10.05 18.45h9.45V9.9h2.4V0H70.65zm11.1 6.6h-2.4v26.85h-4.5L60.3 7.65v22.5h2.55v3.45h-8.4v-3.45H57V6.6h-2.55V3.15h7.95L75.9 27.3V6.6h-2.25V3.15h8.1V6.6zM120 9.9V0h-15.75v9h.6l-3.75 4.2V9h1.65V0H87.6v9.9h2.55V27H87.6v9.75h15.15v-9.3h-2.1v-1.2l3.6-3.75 2.25 4.95h-2.25v9.3H120V27h-3.6L111 15l4.8-4.95h4.2V9.9zm-12.45 4.5l7.05 15.75h2.25v3.45h-9.15v-3.45h3.15L105 17.25l-6.9 7.8v5.1h1.65v3.45H91.2v-3.45h2.55V6.6H91.2V3.15h8.55V6.6H98.1v13.95L110.85 6.6h-3.15V3.15h9.15V6.6h-2.25l-7.05 7.8z"/>
</svg>
