<?xml version="1.0" encoding="UTF-8"?>
<svg width="342px" height="26px" viewBox="0 0 342 26" version="1.1" xmlns="http://www.w3.org/2000/svg" xmlns:xlink="http://www.w3.org/1999/xlink">
    <!-- Generator: sketchtool 51.1 (57501) - http://www.bohemiancoding.com/sketch -->
    <title>596AA7BD-C66F-4FAA-9064-DB304E08F643</title>
    <desc>Created with sketchtool.</desc>
    <defs></defs>
    <g id="Page-1" stroke="none" stroke-width="1" fill="none" fill-rule="evenodd">
        <g id="Logo" transform="translate(-40.000000, -310.000000)" fill="#E7529D">
            <g id="VS-Pink---En" transform="translate(40.000000, 310.000000)">
                <polygon id="Fill-1" points="129.0663 0 129.0663 5.755 126.7813 10.185 132.1013 10.185 134.7793 4.898 134.7793 0"></polygon>
                <polygon id="Fill-2" points="10.4247 0.0009 8.1767 18.5489 5.9637 0.0009 -0.0003 0.0009 3.7837 25.0169 11.9237 25.0169 15.7457 0.0009"></polygon>
                <polygon id="Fill-3" points="19.173 25.0154 24.886 25.0154 24.886 0.0004 19.173 0.0004"></polygon>
                <polygon id="Fill-4" points="32.0265 0.0009 28.9915 3.0389 28.9915 21.9809 32.0265 25.0169 39.4875 25.0169 42.5225 21.9809 42.5225 17.0119 37.3095 17.0119 37.3095 20.1569 34.7045 20.1569 34.7045 4.8609 37.3095 4.8609 37.3095 8.0059 42.5225 8.0059 42.5225 3.0389 39.4875 0.0009"></polygon>
                <polygon id="Fill-5" points="46.0935 0.0009 46.0935 4.8609 50.4495 4.8609 50.4495 25.0169 56.1635 25.0169 56.1635 4.8609 60.5175 4.8609 60.5175 0.0009"></polygon>
                <path d="M67.1238,0.0009 L64.0888,3.0389 L64.0888,21.9799 L67.1238,25.0159 L74.9788,25.0159 L78.0138,21.9799 L78.0138,3.0389 L74.9788,0.0009 L67.1238,0.0009 Z M69.7998,20.1559 L72.3008,20.1559 L72.3008,4.8599 L69.7998,4.8599 L69.7998,20.1559 Z" id="Fill-6"></path>
                <path d="M82.1196,0.0009 L82.1196,25.0159 L87.8326,25.0159 L87.8326,16.4399 L89.2256,16.4399 L91.0456,25.0159 L96.6866,25.0159 L94.2946,15.0109 L94.4366,15.0109 L96.0436,13.3659 L96.0436,3.0389 L93.0096,0.0009 L82.1196,0.0009 Z M87.8326,11.5789 L90.3316,11.5789 L90.3316,4.8599 L87.8326,4.8599 L87.8326,11.5789 Z" id="Fill-7"></path>
                <polygon id="Fill-8" points="100.041 25.0154 105.754 25.0154 105.754 0.0004 100.041 0.0004"></polygon>
                <path d="M113.004,0.0009 L109.219,25.0169 L114.61,25.0169 L115.216,19.7289 L118.393,19.7289 L119.037,25.0169 L124.963,25.0169 L121.144,0.0009 L113.004,0.0009 Z M116.824,6.4679 L117.859,15.1179 L115.753,15.1179 L116.824,6.4679 Z" id="Fill-9"></path>
                <polygon id="Fill-10" points="141.7446 0.0009 138.7096 3.0389 138.7096 11.7229 141.7446 14.7609 146.6716 14.7609 146.6716 20.1569 143.7796 20.1569 143.7796 17.0119 138.3886 17.0119 138.3886 21.9809 141.4236 25.0169 149.3496 25.0169 152.3846 21.9809 152.3846 12.9379 149.3496 9.9019 144.4216 9.9019 144.4216 4.8609 146.6716 4.8609 146.6716 8.0059 152.0626 8.0059 152.0626 3.0389 148.9926 0.0009"></polygon>
                <polygon id="Fill-11" points="167.9436 0.0009 164.9076 3.0389 164.9076 11.7229 167.9436 14.7609 172.8706 14.7609 172.8706 20.1569 169.9786 20.1569 169.9786 17.0119 164.5856 17.0119 164.5856 21.9809 167.6216 25.0169 175.5476 25.0169 178.5826 21.9809 178.5826 12.9379 175.5476 9.9019 170.6206 9.9019 170.6206 4.8609 172.8706 4.8609 172.8706 8.0059 178.2616 8.0059 178.2616 3.0389 175.1896 0.0009"></polygon>
                <polygon id="Fill-12" points="182.5101 0.0009 182.5101 25.0169 195.7571 25.0169 195.7571 20.1569 188.2231 20.1569 188.2231 14.7609 194.5421 14.7609 194.5421 9.8989 188.2231 9.8989 188.2231 4.8609 195.7571 4.8609 195.7571 0.0009"></polygon>
                <polygon id="Fill-13" points="202.3254 0.0009 199.2914 3.0389 199.2914 21.9809 202.3254 25.0169 209.7874 25.0169 212.8224 21.9809 212.8224 17.0119 207.6094 17.0119 207.6094 20.1569 205.0044 20.1569 205.0044 4.8609 207.6094 4.8609 207.6094 8.0059 212.8224 8.0059 212.8224 3.0389 209.7874 0.0009"></polygon>
                <path d="M216.9288,0.0009 L216.9288,25.0159 L222.6418,25.0159 L222.6418,16.4399 L224.0338,16.4399 L225.8548,25.0159 L231.4958,25.0159 L229.1048,15.0109 L229.2458,15.0109 L230.8538,13.3659 L230.8538,3.0389 L227.8188,0.0009 L216.9288,0.0009 Z M222.6418,11.5789 L225.1408,11.5789 L225.1408,4.8599 L222.6418,4.8599 L222.6418,11.5789 Z" id="Fill-14"></path>
                <polygon id="Fill-15" points="234.8523 0.0009 234.8523 25.0169 248.0993 25.0169 248.0993 20.1569 240.5653 20.1569 240.5653 14.7609 246.8853 14.7609 246.8853 9.8989 240.5653 9.8989 240.5653 4.8609 248.0993 4.8609 248.0993 0.0009"></polygon>
                <polygon id="Fill-16" points="251.4555 0.0009 251.4555 4.8609 255.8105 4.8609 255.8105 25.0169 261.5235 25.0169 261.5235 4.8609 265.8785 4.8609 265.8785 0.0009"></polygon>
                <path d="M278.0244,0.0009 L278.0244,25.0159 L283.7384,25.0159 L283.7384,16.4399 L288.9154,16.4399 L291.9494,13.3659 L291.9494,3.0389 L288.9154,0.0009 L278.0244,0.0009 Z M283.7384,11.5789 L286.2374,11.5789 L286.2374,4.8599 L283.7384,4.8599 L283.7384,11.5789 Z" id="Fill-17"></path>
                <polygon id="Fill-18" points="296.055 25.0154 301.768 25.0154 301.768 0.0004 296.055 0.0004"></polygon>
                <polygon id="Fill-19" points="315.657 0.0009 315.657 11.2929 311.801 0.0009 306.231 0.0009 306.231 25.0169 310.874 25.0169 310.874 13.7239 314.73 25.0169 320.299 25.0169 320.299 0.0009"></polygon>
                <polygon id="Fill-20" points="334.6875 0.0018 330.4735 8.8978 330.4735 0.0018 324.7635 0.0018 324.7635 25.0168 330.4735 25.0168 330.4735 18.8348 331.7595 16.4758 335.0785 25.0168 341.2205 25.0168 335.2945 9.9708 340.7575 0.0018"></polygon>
            </g>
        </g>
    </g>
</svg>
