<?xml version="1.0" encoding="utf-8"?>
<!-- Generator: Adobe Illustrator 22.1.0, SVG Export Plug-In . SVG Version: 6.00 Build 0)  -->
<svg version="1.1" id="Layer_1" xmlns="http://www.w3.org/2000/svg" xmlns:xlink="http://www.w3.org/1999/xlink" x="0px" y="0px"
	 viewBox="0 0 255.1 131.3" style="enable-background:new 0 0 255.1 131.3;" xml:space="preserve">
<g>
	<path d="M0,93.3l16.4-1.6c1.9,18.3,4.9,24.5,12.4,24.5c6.4,0,10.1-4.5,10.1-14.1c0-12.2-8.2-20.5-16.9-31
		C12.4,59.7,2.1,48.4,2.1,29.8C2.1,11.3,11.3,0,27.5,0c19.2,0,25.1,12.9,27.3,35l-16.5,1.9C36.6,19,33.6,15.5,27.5,15.5
		c-5.4,0-8,4.7-8,12.7c0,13.8,8,21.9,16.5,31.9c9.7,11.3,20.2,21.9,20.2,41.3c0,19.7-10.4,29.9-27.7,29.9C7,131.3,2.3,116.1,0,93.3z
		"/>
	<path d="M90.7,130.4H74.3L58,1.2h17.4l7.1,70c0.7,7.7,1.4,17.2,1.7,26.5c0,0,0.5-5,0.2-0.9c0.3-5.2,2.1-22.5,2.4-25.6l8.7-70h13.6
		l8,69.5c0.9,8.4,1.7,17.1,2.3,27.2h0.2c0.3-10.3,1-17.4,1.9-27l6.8-69.6h16.2l-16.4,129.2h-16.4l-10.3-92.3h-0.3L90.7,130.4z"/>
	<path d="M154.3,1.2H172v128.8h-17.8V1.2z"/>
	<path d="M186.5,1.2h21.1l13.2,91.4h0.2l13.2-91.4h20.9v128.8h-16.5v-70c0-8.2,0.2-15.1,0.3-21.4h-0.3c-0.7,8-2.1,18.6-3.1,25.2
		l-10.4,66.2h-10.3l-10.4-66.2c-1.2-7.3-2.3-15.5-3-25.1h-0.3c0.2,3.3,0.2,13.6,0.2,21.2v70h-14.6V1.2z"/>
</g>
</svg>
