<svg xmlns="http://www.w3.org/2000/svg" xmlns:xlink="http://www.w3.org/1999/xlink" width="350" height="47" viewBox="0 0 350 47">
    <defs>
        <path id="a" d="M3.531 3.275C2.706 1.199 1.834.738 0 .738V.184h7.888v.508c-1.376.046-1.835.277-1.835.83 0 .784.367 1.338 7.934 21.448l7.475-18.957c.367-.923.688-1.891.688-2.49 0-.831-1.055-.785-1.834-.877V.184h6.65l-.046.554c-2.018.138-2.569.646-3.348 2.537L13.85 26.567c-.184.461-.367.6-.505.6-.183 0-.367-.185-.504-.508L3.53 3.275zM38.66 26.844h-7.888v-.554h.137c2.156 0 2.156-1.43 2.156-4.243V7.38c0-2.768-.367-3.183-2.385-3.321v-.507h7.246v.553c-2.247 0-2.293.6-2.293 4.243v13.7c0 3.412.183 4.196 3.027 4.196v.6zm24.534-4.243c-1.192 2.72-3.852 4.566-8.07 4.566-7.247 0-11.74-5.028-11.74-11.946 0-6.458 4.54-12.038 12.152-12.038 2.293 0 4.402.46 6.833 1.43.367.138.459.23.459.553l-.23 4.658h-.504c-.046-1.291-.321-2.86-1.33-3.736-1.422-1.153-3.027-1.752-5.687-1.752-6.145 0-8.896 4.658-8.896 10.285s2.98 11.393 9.263 11.393c3.531 0 5.87-1.338 7.063-3.598.275-.507.366-.553.642-.507.275 0 .275.138.045.692zM87.271 7.472h-.55c-.184-1.799-.322-2.445-3.165-2.445h-4.448v17.25c0 3.598.367 4.013 2.98 4.013v.554h-7.887v-.554c1.972 0 2.247-.922 2.247-3.367V5.027h-3.806c-3.073 0-3.715.093-3.807 2.445h-.55l-.138-3.92s3.119.184 4.495.184h10.501c1.835 0 3.348-.046 4.22-.138l.045.046-.137 3.828zm15.638-3.229c-5.045 0-8.897 3.367-8.897 10.101 0 7.103 4.265 11.716 9.768 11.716 2.752 0 8.392-1.568 8.392-10.47 0-7.38-4.448-11.347-9.263-11.347zm.046 22.97c-8.3 0-11.786-6.55-11.786-12.038 0-4.936 3.577-11.946 11.97-11.946 6.832 0 11.923 4.335 11.923 11.484 0 6.827-4.77 12.5-12.107 12.5zm25.406-11.854c2.797 0 4.54-2.122 4.54-5.35 0-3.413-2.064-5.397-5.274-5.397-1.743 0-2.247.046-2.247.554v9.501c0 .323.046.415.55.554.092 0 1.651.138 2.43.138zm12.382 11.485h-2.66c-3.21 0-4.357-2.168-6.1-4.935-1.467-2.306-2.98-5.581-4.998-5.72l-1.422-.092c-.137 0-.229.046-.229.277v6.042c0 3.598.642 3.828 3.027 3.828v.554h-7.75v-.554c1.834-.092 2.247-.323 2.247-3.828V6.273c0-1.66-1.01-2.122-2.66-2.122v-.553h8.025c4.311 0 7.246 1.937 7.246 5.719 0 3.044-2.476 5.627-5.182 6.503 2.293.877 4.173 6.135 6.1 8.118 1.925 2.076 2.705 2.306 4.31 2.306v.6h.046zm12.749 0h-7.888v-.554h.138c2.155 0 2.155-1.43 2.155-4.243V7.38c0-2.768-.367-3.183-2.385-3.321v-.507h7.246v.553c-2.247 0-2.293.6-2.293 4.243v13.7c0 3.412.184 4.196 3.027 4.196v.6zm18.16-10.378l-2.889-8.394c-.046-.185-.137-.37-.23-.37-.09 0-.137.139-.228.37l-2.706 8.256c0 .046-.046.046-.046.092s.046.092.138.092h5.87c.045 0 .091 0 .091-.046zm1.697 9.824c1.147-.046 1.605-.322 1.605-.784 0-.369 0-.46-.32-1.291l-2.431-6.411c-.046-.139-.138-.185-.276-.185h-6.512c-.137 0-.275.092-.32.277l-1.652 4.935c-.183.554-.596 1.799-.596 2.445 0 .692.642.922 1.88.968v.554h-6.695l.092-.554c2.018-.138 2.614-.876 3.302-2.813l7.016-19.188c.367-1.014.459-1.107.642-1.107.138 0 .275.139.688 1.107l7.292 18.911c.688 1.845 1.467 2.998 3.53 2.998l.093.6h-7.338v-.462zm7.567-19.51c.825-.092 1.238-1.245 1.376-1.706.137-.462.229-.83.091-1.107-.137-.37-.458-.554-.87-.738a1.435 1.435 0 0 1-.505-.415c-.23-.323-.276-.6-.23-.97.138-.599.734-.875 1.33-.783 1.01.23 1.56 1.337 1.422 2.998-.046.6-.55 2.998-2.614 3.136V6.78zm14.033 20.387c-1.834 0-3.577-.092-5.503-1.292v-4.474h.596c.092 3.414 2.43 4.613 5.228 4.613 3.164 0 4.815-2.03 4.815-3.967 0-2.444-1.467-3.92-4.77-6.042-4.402-2.768-5.548-4.89-5.548-7.15 0-3.228 2.476-5.719 6.466-5.719 2.155 0 3.623.37 5.045.969v3.69h-.55c-.138-.646-.23-1.292-.597-1.937-.183-.323-1.1-1.615-4.22-1.615-2.384 0-4.126 1.522-4.126 3.736 0 2.03 1.559 3.321 5.182 5.72 3.53 2.352 5.274 4.658 5.32 7.103-.092 3.736-2.981 6.365-7.338 6.365zm26.37-1.43v-4.75h.641c.275 4.012 2.981 5.211 6.145 5.211 3.67 0 5.687-2.398 5.687-4.843 0-2.813-1.834-4.566-5.55-6.918-5.044-3.183-6.236-5.72-6.236-8.026 0-3.736 2.797-6.411 7.567-6.411 2.568 0 5.503 1.015 5.503 1.015V4.98h-.642c-.138-.692-.275-1.383-.688-2.121-.275-.415-1.376-1.938-4.953-1.938-2.843 0-4.907 1.845-4.907 4.428 0 2.445 1.88 3.92 6.008 6.688 4.036 2.675 6.007 5.304 6.007 8.026 0 6.78-6.695 7.195-8.392 7.195-4.035-.046-6.19-1.522-6.19-1.522zm36.045-2.998l-.046 4.105h-15.363v-.6c1.605-.046 2.247-.415 2.247-3.413V6.227c0-1.476-.963-2.03-2.706-2.03v-.6c1.284.093 3.073.139 4.724.139 1.284 0 4.54 0 6.558-.046.642 0 3.76-.092 3.76-.138l-.046 3.92h-.596c-.137-2.445-1.559-2.629-4.356-2.629 0 0-3.486-.046-4.449-.046-.32 0-.367.092-.367.323v8.348c0 .138 0 .323.184.323h5.457c1.009 0 1.422-.369 1.605-1.291h.596v4.889h-.596c-.046-1.107-.092-2.122-1.834-2.307-.917-.092-4.678-.138-5.182-.138-.138 0-.23.092-.23.23v8.856c.046 1.615.092 1.615 4.036 1.615 1.284 0 4.081-.046 4.77-.37.917-.46 1.192-1.29 1.33-2.628h.504v.092zm24.626-.185c-1.192 2.722-3.852 4.567-8.071 4.567-7.246 0-11.74-5.028-11.74-11.946 0-6.458 4.54-12.039 12.153-12.039 2.293 0 4.402.462 6.833 1.43.367.139.458.23.458.554l-.229 4.658h-.504c-.046-1.291-.321-2.86-1.33-3.736-1.422-1.153-3.027-1.753-5.687-1.753-6.145 0-8.897 4.659-8.897 10.286s2.981 11.393 9.264 11.393c3.531 0 5.87-1.338 7.062-3.598.276-.507.367-.6.642-.507.23.046.276.184.046.691zm13.07-7.195c2.798 0 4.54-2.122 4.54-5.35 0-3.413-2.063-5.397-5.273-5.397-1.743 0-2.248.046-2.248.554v9.501c0 .323.046.415.55.554.092 0 1.652.138 2.431.138zm12.382 11.485h-2.66c-3.21 0-4.356-2.168-6.099-4.935-1.467-2.306-2.98-5.581-4.999-5.72l-1.421-.092c-.184 0-.23.046-.23.277v6.042c0 3.598.643 3.828 3.027 3.828v.554h-7.75v-.554c1.834-.092 2.247-.323 2.247-3.828V6.273c0-1.66-1.009-2.122-2.66-2.122v-.553h8.026c4.31 0 7.246 1.937 7.246 5.719 0 3.044-2.477 5.627-5.183 6.503 2.293.877 4.174 6.135 6.1 8.118 1.926 2.076 2.705 2.306 4.31 2.306v.6h.046zm19.032-4.105l-.046 4.105h-15.363v-.6c1.605-.046 2.247-.415 2.247-3.413V6.227c0-1.476-1.009-2.03-2.705-2.03v-.6c1.284.093 3.072.139 4.723.139 1.284 0 4.54 0 6.558-.046.642 0 3.76-.092 3.76-.138l-.045 3.92h-.55c-.138-2.445-1.56-2.629-4.357-2.629 0 0-3.486-.046-4.449-.046-.32 0-.366.092-.366.323v8.348c0 .138 0 .323.183.323h5.457c1.01 0 1.422-.369 1.605-1.291h.596v4.889h-.596c-.046-1.107-.091-2.122-1.834-2.307-.917-.092-4.678-.138-5.182-.138-.138 0-.23.092-.23.23v8.856c.046 1.615.092 1.615 4.036 1.615 1.284 0 4.082-.046 4.77-.37.917-.46 1.192-1.29 1.284-2.628h.504v.092zm23.388-15.267h-.55c-.183-1.799-.32-2.445-3.164-2.445h-4.403v17.25c0 3.598.367 4.013 2.981 4.013v.554h-7.888v-.554c1.972 0 2.247-.922 2.247-3.367V5.027h-3.852c-3.072 0-3.714.093-3.806 2.445h-.55l-.138-3.92s3.118.184 4.494.184h10.502c1.834 0 3.348-.046 4.22-.138l.045.046-.138 3.828zM68.468 39.252c-.046 0-.137 0-.229.045-.321.093-.367.277-.367.923v5.95c0 .692 0 .738-.092.738-.137 0-.32-.277-.687-.692-1.101-1.292-1.651-1.937-2.706-3.137-1.147-1.291-2.293-2.629-2.614-2.998l.137 5.35c0 .831.138 1.108.413 1.2.184.046.413.046.505.046.045 0 .091 0 .091.046s-.046.093-.183.093c-.596 0-.963-.047-1.055-.047-.092 0-.504.047-.963.047-.092 0-.183 0-.183-.093 0-.046.045-.046.091-.046.092 0 .275 0 .413-.046.275-.092.321-.369.321-1.291v-5.397c0-.277-.092-.553-.413-.6-.091 0-.275-.046-.32-.046-.047 0-.092 0-.092-.046s.045-.092.183-.092c.183 0 .459 0 .78.046h.78c.412.507 1.604 1.983 2.797 3.367a226.141 226.141 0 0 1 2.43 2.814l-.091-5.028c0-.646-.092-.876-.413-.968-.184-.047-.413-.047-.505-.047-.091 0-.091-.046-.091-.092s.091-.092.183-.092c.459 0 .917.046 1.055.046.137 0 .458-.046.871-.046.092 0 .184 0 .184.092h-.23zm6.604 7.333c-.092.277-.138.277-.55.277-1.514 0-2.706-.046-2.981-.046-.367 0-.688.046-1.009.046-.092 0-.183 0-.183-.093 0-.046 0-.046.091-.046.092 0 .23 0 .321-.046.184-.046.23-.277.275-.553.046-.415.046-1.246.046-2.214v-4.013c0-.323-.091-.507-.412-.6-.092 0-.276-.046-.321-.046-.046 0-.092 0-.092-.046s.046-.092.183-.092c.321 0 .688 0 1.147.046h2.797c.184 0 .367-.046.413-.046.046 0 .092-.046.137-.046.046 0 .046.046.046.092 0 .092-.046.184-.091.461 0 .092-.046.554-.046.692 0 .046-.046.092-.092.092s-.092-.046-.092-.138c0-.092 0-.23-.046-.369-.091-.185-.504-.323-1.238-.323-.183 0-1.055-.046-1.376-.046-.045 0-.045.046-.045.092v2.814c0 .092 0 .092.045.092h2.11c.23 0 .367-.046.459-.138.091-.093.091-.139.137-.139.046 0 .046 0 .046.093 0 .092-.046.23-.092.553 0 .184-.046.6-.046.646 0 .092 0 .184-.091.184-.046 0-.092-.046-.092-.092 0-.092 0-.185-.046-.323s-.137-.323-.504-.369c-.275-.046-1.789-.046-1.926-.046-.046 0-.092.046-.092.092v2.906c0 .507.046.507 1.192.507.275 0 1.193 0 1.468-.092.275-.092.367-.323.458-.738 0-.092.046-.138.092-.138s.046.092.046.138c.092.092 0 .784-.046 1.015zm12.474-7.288c-.046 0-.23 0-.321.046-.321.093-.459.554-.642 1.107-.459 1.292-1.468 4.474-1.835 5.628-.275.738-.32.876-.412.876-.092 0-.184-.138-.321-.507l-1.972-5.628c-.367.969-1.743 4.705-2.11 5.628-.183.415-.23.553-.32.553-.093 0-.138-.092-.368-.784l-1.788-5.996c-.184-.554-.275-.692-.55-.784-.138-.046-.367-.046-.46-.046-.045 0-.09 0-.09-.093 0-.046.045-.092.183-.092h2.247c.137 0 .183.046.183.092s-.046.093-.092.093c-.091 0-.275 0-.412.046-.046.046-.138.092-.138.23 0 .139.092.508.184.923.137.646 1.192 4.335 1.33 4.889l2.155-5.766c.137-.415.183-.46.275-.46.092 0 .138.138.23.46l2.017 5.766h.046c.275-.923 1.192-3.874 1.56-5.166.09-.369.09-.507.09-.646 0-.184-.09-.323-.595-.323-.046 0-.092-.046-.092-.092s.046-.092.183-.092h1.835c.092 0 .137 0 .137.046-.045.046-.045.092-.137.092zm10.869 0c-.092 0-.276 0-.459.093-.183.138-.321.276-.55.553-.321.415-1.743 2.768-1.926 3.229-.138.369-.138.692-.138 1.014v.877c0 .184 0 .6.046 1.015 0 .276.092.507.413.553.137 0 .275.046.366.046.046 0 .092.046.092.046 0 .046-.046.093-.183.093-.275 0-.688-.047-1.147-.047-.412 0-.734.047-1.055.047-.091 0-.183 0-.183-.093 0-.046 0-.046.092-.046.091 0 .275 0 .367-.046.183-.046.275-.277.32-.553.047-.416.047-.83.047-1.015v-.877c0-.553-.092-.784-.23-1.06-.092-.185-1.421-2.353-1.788-2.906-.275-.415-.505-.646-.688-.784a1.02 1.02 0 0 0-.459-.139c-.046 0-.092 0-.092-.092 0-.046.046-.092.138-.092h1.834c.092 0 .138.046.138.092s-.046.046-.183.046c-.092 0-.184.046-.184.139 0 .092.092.322.184.46.183.278 1.696 2.907 1.834 3.183.183-.415 1.513-2.629 1.697-2.952.137-.23.275-.507.275-.645 0-.139-.138-.185-.23-.185-.091 0-.137 0-.137-.092 0-.046.046-.046.183-.046h1.651c.092 0 .138 0 .138.046-.046.092-.092.138-.183.138zm4.723 7.657c-2.751 0-3.898-2.168-3.898-3.967 0-1.66 1.192-3.966 3.99-3.966 2.293 0 3.944 1.43 3.944 3.828 0 2.214-1.605 4.105-4.036 4.105zm0-7.61c-1.697 0-2.935 1.106-2.935 3.32 0 2.353 1.422 3.875 3.21 3.875.917 0 2.798-.508 2.798-3.46 0-2.444-1.468-3.736-3.073-3.736zm12.29 7.472h-.504c-.55 0-.871-.139-1.055-.231-.413-.277-.688-.692-1.146-1.43-.275-.507-.55-.876-.734-1.153-.275-.369-.642-.646-.917-.646-.184 0-.321 0-.413-.046-.092 0-.092 0-.092.092 0 0 0 2.122.046 2.676.046.276.092.507.413.553.138 0 .367.046.459.046.045 0 .091.046.091.046 0 .046-.046.093-.183.093-.55 0-1.193-.047-1.238-.047 0 0-.642.047-.963.047-.092 0-.184 0-.184-.093 0-.046 0-.046.092-.046s.23 0 .32-.046c.184-.046.23-.277.276-.553.046-.416.046-1.246.046-2.214V39.85c0-.323-.092-.508-.413-.6-.092 0-.23-.046-.32-.046-.047 0-.093 0-.093-.046s.046-.092.184-.092c.458 0 1.1.046 1.146.046.092 0 .872-.046 1.193-.046.642 0 1.33.046 1.834.461.275.184.688.692.688 1.384 0 .738-.413 1.752-1.697 2.214.367.184.734.645 1.01 1.153.32.6.733 1.245 1.008 1.568.504.553.734.646 1.146.738.23.046.276.046.276.092 0 .092-.092.139-.276.139zm-4.035-7.38c-.321 0-.596.046-.688.046-.046 0-.092.046-.092.138v3.137c0 .138 0 .138.092.184.183.046.504.092.825.092.23 0 .642-.046.918-.23.32-.23.642-.738.642-1.476.045-1.2-.642-1.891-1.697-1.891zm12.198 7.38c-.229 0-.55-.047-.87-.047-.322 0-.597.047-.826.047-.138 0-.23 0-.23-.093 0-.046.092-.046.184-.092.092 0 .092-.092.092-.138-.046-.093-.184-.231-.322-.37-.412-.46-2.43-2.582-3.072-3.274h-.046v1.015c0 .968 0 1.752.046 2.214.046.276.092.507.413.553.137 0 .32.046.412.046.046 0 .092.046.092.046 0 .046-.046.093-.183.093-.505 0-1.101-.047-1.147-.047-.092 0-.688.047-.963.047-.092 0-.183 0-.183-.093 0-.046 0-.046.091-.046.092 0 .23 0 .321-.046.184-.046.23-.277.276-.553.045-.416.045-1.246.045-2.214V39.85c0-.323-.091-.508-.412-.6-.092 0-.23-.046-.321-.046-.046 0-.092 0-.092-.046s.046-.092.183-.092c.459 0 1.055.046 1.101.046.092 0 .688-.046.963-.046.092 0 .184 0 .184.092 0 .046-.046.046-.092.046-.092 0-.138 0-.275.046-.276.046-.367.23-.367.6v2.813h.046c.183-.184 2.017-2.075 2.338-2.444.276-.277.597-.6.597-.784 0-.139-.184-.139-.321-.185-.092 0-.092-.046-.092-.092s.046-.092.183-.092c.184 0 .642.046.918.046.366 0 .733-.046.963-.046.091 0 .137 0 .137.092 0 .046 0 .092-.092.092-.137 0-.366.046-.55.139-.413.184-.642.415-1.1.876-.23.23-2.018 1.983-2.202 2.214.275.277 2.34 2.444 2.752 2.86.55.553.871.83 1.33 1.153.137.092.367.138.458.138.092 0 .138 0 .138.046-.275.092-.413.139-.505.139zm31.644-.277c-.092.23-.092.277-.642.277-1.468 0-2.431-.047-3.027-.047-.092 0-.688.047-1.01.047-.09 0-.183 0-.183-.093 0-.046 0-.046.092-.046s.23 0 .321-.046c.184-.046.23-.277.275-.553.046-.416.046-1.246.046-2.214V39.85c0-.323-.092-.508-.413-.6-.091 0-.229-.046-.32-.046-.046 0-.092 0-.092-.046s.046-.092.183-.092c.459 0 1.1.046 1.147.046.045 0 .78-.046 1.1-.046.092 0 .184 0 .184.092 0 .046-.046.046-.092.046-.092 0-.23 0-.321.046-.275.046-.367.23-.413.6v5.811c0 .738 0 .738 1.284.738h.459c.55 0 .963 0 1.238-.322.138-.185.23-.416.275-.6 0-.092.046-.138.092-.138s.046.046.046.138c0 .092-.138.784-.23 1.06zm5.411.415c-2.752 0-3.898-2.168-3.898-3.967 0-1.66 1.192-3.966 3.99-3.966 2.293 0 3.944 1.43 3.944 3.828-.046 2.214-1.605 4.105-4.036 4.105zm-.046-7.61c-1.697 0-2.935 1.106-2.935 3.32 0 2.353 1.422 3.875 3.21 3.875.917 0 2.798-.508 2.798-3.46 0-2.444-1.468-3.736-3.073-3.736zm13.758-.093c-.046 0-.138 0-.23.046-.32.093-.366.277-.366.923v5.95c0 .692 0 .738-.092.738-.138 0-.32-.277-.688-.692-1.1-1.292-1.65-1.937-2.706-3.137-1.146-1.291-2.293-2.629-2.614-2.998l.138 5.35c0 .831.138 1.108.413 1.2.183.046.413.046.504.046.046 0 .092 0 .092.046s-.046.093-.183.093c-.597 0-.964-.047-1.055-.047-.092 0-.505.047-.963.047-.092 0-.184 0-.184-.093 0-.046.046-.046.092-.046.092 0 .275 0 .413-.046.275-.092.32-.369.32-1.291v-5.397c0-.277-.091-.553-.412-.6-.092 0-.275-.046-.321-.046-.046 0-.092 0-.092-.046s.046-.092.184-.092c.183 0 .458 0 .78.046h.779c.413.507 1.605 1.983 2.797 3.367a226.149 226.149 0 0 1 2.43 2.814l-.09-5.028c0-.646-.093-.876-.414-.968-.183-.047-.412-.047-.504-.047-.092 0-.092-.046-.092-.092s.092-.092.184-.092c.458 0 .917.046 1.054.046.138 0 .46-.046.872-.046.092 0 .183 0 .183.092h-.229zm8.438 6.458c-.413.46-1.33 1.153-3.072 1.153-.872 0-2.11-.139-2.248-.139-.183 0-.687.046-1.008.046-.092 0-.184 0-.184-.092 0-.046 0-.046.092-.046s.23 0 .32-.046c.184-.046.23-.277.276-.554.046-.415.046-1.245.046-2.214v-4.012c0-.323-.092-.508-.413-.6-.092 0-.275-.046-.32-.046-.047 0-.093 0-.093-.046s.046-.092.184-.092c.458 0 1.1.046 1.146.046.138 0 .78-.046 1.376-.046 1.009 0 2.843-.093 4.036 1.153.504.507.963 1.383.963 2.583-.046 1.383-.55 2.352-1.1 2.952zm-.825-5.074c-.963-1.015-2.11-1.153-3.302-1.153-.184 0-.596.046-.642.092-.092.046-.138.092-.138.185v5.627c0 .23 0 .692.092.83.137.184.55.369 1.743.369.917 0 1.788-.323 2.384-.923.505-.507.826-1.476.826-2.444 0-1.338-.55-2.168-.963-2.583zm7.52 6.319c-2.751 0-3.897-2.168-3.897-3.967 0-1.66 1.192-3.966 3.99-3.966 2.292 0 3.943 1.43 3.943 3.828-.046 2.214-1.605 4.105-4.035 4.105zm-.045-7.61c-1.697 0-2.935 1.106-2.935 3.32 0 2.353 1.421 3.875 3.21 3.875.917 0 2.797-.508 2.797-3.46 0-2.444-1.467-3.736-3.072-3.736zm13.758-.093c-.046 0-.138 0-.23.046-.32.093-.367.277-.367.923v5.95c0 .692 0 .738-.091.738-.138 0-.321-.277-.688-.692-1.1-1.292-1.651-1.937-2.706-3.137-1.146-1.291-2.293-2.629-2.614-2.998l.138 5.35c0 .831.137 1.108.412 1.2.184.046.413.046.505.046.046 0 .092 0 .092.046s-.046.093-.184.093c-.596 0-.963-.047-1.055-.047-.091 0-.504.047-.963.047-.091 0-.183 0-.183-.093 0-.046.046-.046.092-.046.091 0 .275 0 .412-.046.23-.092.321-.369.321-1.291v-5.397c0-.277-.091-.553-.412-.6-.092 0-.23-.046-.321-.046-.046 0-.092 0-.092-.046s.046-.092.183-.092c.184 0 .459 0 .78.046h.78c.412.507 1.605 1.983 2.797 3.367a226.142 226.142 0 0 1 2.43 2.814l-.091-5.028c0-.646-.092-.876-.413-.968-.183-.047-.413-.047-.504-.047-.092 0-.092-.046-.092-.092s.092-.092.183-.092c.459 0 .918.046 1.055.046.092 0 .459-.046.871-.046.092 0 .184 0 .184.092h-.23zm31.322 7.288c-.459.323-1.055.415-1.651.415-.459 0-.963-.092-1.284-.185-.046 0-.092-.046-.138-.046-.046 0-.046.046-.092.046-.045.047-.045.093-.091.093s-.092-.046-.092-.093v-1.522c0-.092.046-.184.092-.184s.046.046.091.092c0 .092 0 .23.046.369.184.738.917 1.015 1.651 1.015 1.055 0 1.605-.692 1.605-1.338 0-.784-.504-1.291-1.605-1.983-1.467-.923-1.834-1.614-1.834-2.352 0-1.107.825-1.892 2.201-1.892.413 0 .78.047 1.055.139.183.046.23.092.32.046.047 0 .093-.092.138-.092.046 0 .092.046.046.138v1.06c0 .185 0 .232-.091.232-.092 0-.092-.047-.092-.139 0-.138-.092-.415-.184-.507-.045-.092-.366-.554-1.421-.554-.78 0-1.376.508-1.376 1.246 0 .692.504 1.107 1.697 1.89 1.192.785 1.742 1.569 1.788 2.353.138.461-.046 1.245-.78 1.753zm10.64.277c-.551 0-1.193-.047-1.24-.047-.045 0-.687.047-1.008.047-.092 0-.183 0-.183-.093 0-.046 0-.046.091-.046.092 0 .23 0 .321-.046.184-.046.23-.277.275-.553.046-.416.046-1.246.046-2.214v-1.061c0-.046-.046-.046-.046-.046h-4.265c-.045 0-.045 0-.045.046v1.06c0 .97 0 1.753.045 2.215.046.276.092.507.413.553.138 0 .367.046.459.046.046 0 .092.046.092.046 0 .046-.046.093-.184.093-.55 0-1.192-.047-1.238-.047-.046 0-.688.047-1.009.047-.092 0-.183 0-.183-.093 0-.046 0-.046.091-.046.092 0 .23 0 .321-.046.184-.046.23-.277.275-.553.046-.416.046-1.246.046-2.214V39.85c0-.323-.091-.508-.412-.6-.092 0-.23-.046-.321-.046-.046 0-.092 0-.092-.046s.046-.092.183-.092c.459 0 1.1.046 1.147.046.046 0 .688-.046 1.009-.046.091 0 .183 0 .183.092 0 .046-.046.046-.092.046-.091 0-.137 0-.275.046-.275.046-.367.23-.367.6v2.444c0 .047.046.047.046.047h4.265c.046 0 .046 0 .046-.047v-2.444c0-.323-.092-.508-.413-.6-.091 0-.229-.046-.32-.046-.047 0-.092 0-.092-.046s.045-.092.183-.092c.459 0 1.1.046 1.146.046.046 0 .688-.046 1.01-.046.091 0 .183 0 .183.092 0 .046-.046.046-.092.046-.092 0-.137 0-.23.046-.274.046-.366.23-.366.6v4.013c0 .968 0 1.752.046 2.214.046.276.091.507.413.553.137 0 .366.046.458.046.046 0 .092.046.092.046-.275.046-.321.093-.413.093zm8.254 0c-.138 0-.55 0-.963-.047-.413 0-.78.047-1.01.047-.183 0-.183-.047-.183-.093s.092-.046.184-.046c.32-.092.413-.184.23-.6-.322-.83-.826-2.213-.826-2.213 0-.047-.046-.047-.092-.047h-2.155c-.046 0-.092.047-.092.093l-.596 1.799c-.092.23-.138.507-.138.691 0 .185.23.277.367.277h.092c.091 0 .091 0 .091.046s-.045.093-.137.093c-.23 0-.688-.047-.78-.047-.092 0-.55.047-1.055.047-.137 0-.183 0-.183-.093 0-.046.046-.046.092-.046h.183c.459-.046.688-.461.826-.968l2.293-6.32c.137-.322.183-.415.229-.415.046 0 .092.047.23.37.137.368 1.742 4.566 2.338 6.134.367.922.504 1.015.78 1.107.137.046.275.092.367.092.045 0 .091 0 .091.046.046.046-.046.093-.183.093zm-3.715-6.181c-.046-.138-.092-.138-.137 0l-.872 2.721c0 .046 0 .092.046.092h1.926c.046 0 .046-.046.046-.092l-1.009-2.721zm12.75-1.384c-.047 0-.138 0-.23.046-.321.093-.367.277-.367.923v5.95c0 .692 0 .738-.092.738-.137 0-.32-.277-.688-.692-1.1-1.292-1.65-1.937-2.705-3.137-1.147-1.291-2.293-2.629-2.614-2.998l.137 5.35c0 .831.138 1.108.413 1.2.183.046.413.046.504.046.046 0 .092 0 .092.046s-.046.093-.183.093c-.596 0-.963-.047-1.055-.047-.092 0-.505.047-.963.047-.092 0-.184 0-.184-.093 0-.046.046-.046.092-.046.092 0 .275 0 .413-.046.23-.092.32-.369.32-1.291v-5.397c0-.277-.09-.553-.412-.6-.092 0-.23-.046-.32-.046-.047 0-.093 0-.093-.046s.046-.092.184-.092c.183 0 .458 0 .78.046h.78c.412.507 1.604 1.983 2.797 3.367a226.149 226.149 0 0 1 2.43 2.814l-.092-5.028c0-.646-.091-.876-.412-.968-.184-.047-.413-.047-.505-.047-.092 0-.092-.046-.092-.092s.092-.092.184-.092c.458 0 .917.046 1.055.046.091 0 .458-.046.871-.046.092 0 .183 0 .183.092h-.229zm9.171 4.105c-.092 0-.138 0-.275.046-.275.046-.367.231-.367.6v2.168c0 .092-.046.092-.138.138-.642.415-1.788.646-2.384.646-.78 0-2.11-.092-3.119-1.015-.688-.6-1.146-1.706-1.146-2.998 0-1.476.78-2.721 1.697-3.275.917-.553 1.926-.692 2.705-.692.642 0 1.33.139 1.56.185.32.046.504.092.642.092.183 0 .137-.092.229-.092s.046.092.046.138c0 .093-.092 1.107-.092 1.476 0 .185 0 .23-.092.23-.046 0-.046-.045-.091-.137 0-.139-.046-.416-.23-.692-.229-.37-1.1-.83-2.293-.83-.642 0-1.513.092-2.293.737-.596.462-1.009 1.615-1.009 2.63 0 1.43.597 2.352.963 2.813.734.83 1.514 1.015 2.431 1.015.55 0 1.192-.092 1.422-.277.137-.092.183-.184.183-.369v-1.522c0-.83-.046-.923-.458-1.06-.092 0-.23-.047-.322-.047-.045 0-.091 0-.091-.046s.046-.092.183-.092c.459 0 .688.046 1.147.046.367 0 .688-.046 1.009-.046.091 0 .183 0 .183.092.092.092.046.138 0 .138zm9.539 3.46c-.55 0-1.193-.047-1.238-.047-.046 0-.688.047-1.01.047-.091 0-.183 0-.183-.093 0-.046 0-.046.092-.046s.23 0 .321-.046c.183-.046.23-.277.275-.553.046-.416.046-1.246.046-2.214v-1.061c0-.046-.046-.046-.046-.046h-4.265c-.046 0-.046 0-.046.046v1.06c0 .97 0 1.753.046 2.215.046.276.092.507.413.553.138 0 .367.046.459.046.045 0 .091.046.091.046 0 .046-.046.093-.183.093-.55 0-1.193-.047-1.238-.047-.046 0-.688.047-1.01.047-.091 0-.183 0-.183-.093 0-.046 0-.046.092-.046s.23 0 .321-.046c.183-.046.23-.277.275-.553.046-.416.046-1.246.046-2.214V39.85c0-.323-.092-.508-.413-.6-.091 0-.229-.046-.32-.046-.047 0-.092 0-.092-.046s.045-.092.183-.092c.459 0 1.1.046 1.146.046.046 0 .688-.046 1.01-.046.091 0 .183 0 .183.092 0 .046-.046.046-.092.046-.092 0-.137 0-.275.046-.275.046-.367.23-.367.6v2.444c0 .047.046.047.046.047h4.265c.046 0 .046 0 .046-.047v-2.444c0-.323-.092-.508-.413-.6-.092 0-.23-.046-.321-.046-.046 0-.092 0-.092-.046s.046-.092.184-.092c.458 0 1.1.046 1.146.046.046 0 .688-.046 1.01-.046.09 0 .183 0 .183.092 0 .046-.046.046-.092.046-.092 0-.138 0-.23.046-.275.046-.366.23-.366.6v4.013c0 .968 0 1.752.046 2.214.045.276.091.507.412.553.138 0 .367.046.459.046.046 0 .092.046.092.046-.276.046-.321.093-.413.093zm8.3 0c-.137 0-.55 0-.963-.047-.412 0-.78.047-1.009.047-.183 0-.183-.047-.183-.093s.092-.046.183-.046c.321-.092.413-.184.23-.6-.321-.83-.826-2.213-.826-2.213 0-.047-.046-.047-.091-.047h-2.156c-.046 0-.092.047-.092.093l-.596 1.799c-.091.23-.137.507-.137.691 0 .185.229.277.367.277h.091c.092 0 .092 0 .092.046s-.046.093-.138.093c-.229 0-.687-.047-.78-.047-.09 0-.55.047-1.054.047-.138 0-.183 0-.183-.093 0-.046.045-.046.091-.046h.184c.458-.046.688-.461.825-.968l2.293-6.32c.138-.322.184-.415.23-.415.045 0 .091.047.229.37.137.368 1.742 4.566 2.339 6.134.367.922.504 1.015.78 1.107.137.046.274.092.366.092.046 0 .092 0 .092.046s-.092.093-.184.093zm-3.76-6.181c-.046-.138-.092-.138-.138 0l-.871 2.721c0 .046 0 .092.046.092h1.926c.046 0 .046-.046.046-.092l-1.01-2.721zm7.292 6.18c-.55 0-.734-.046-1.239-.046-.366 0-.688.047-1.009.047-.091 0-.183 0-.183-.093 0-.046 0-.046.092-.046.091 0 .23 0 .32-.046.184-.046.23-.277.276-.553.046-.416.046-1.246.046-2.214V39.85c0-.323-.138-.508-.321-.554-.092-.046-.23-.046-.321-.046-.046 0-.092 0-.092-.046s.046-.092.183-.092c.321 0 .643.046 1.01.046.366 0 .687-.046 1.008-.046.092 0 .184 0 .184.092 0 .046-.046.046-.092.046-.092 0-.138 0-.23.046-.274.046-.366.231-.366.6v4.013c0 .968 0 1.752.046 2.214.046.276.091.507.412.553.138 0 .367.046.459.046.046 0 .092.046.092.046-.092 0-.184.047-.275.047zm-155.373-4.197c0-.83-.596-1.337-1.421-1.337-1.01 0-1.422.83-1.422 1.43 0 .645.413 1.43 1.376 1.43.917 0 1.467-.693 1.467-1.523zm81.034 0c0-.83-.596-1.337-1.421-1.337-1.01 0-1.422.83-1.422 1.43 0 .645.413 1.43 1.376 1.43.917 0 1.467-.693 1.467-1.523z"/>
    </defs>
    <g fill="none" fill-rule="evenodd">
        <mask id="b" fill="#fff">
            <use xlink:href="#a"/>
        </mask>
        <use fill="#000" fill-rule="nonzero" xlink:href="#a"/>
        <g fill="#232323" mask="url(#b)">
            <path d="M350 47H0V0h350z"/>
        </g>
    </g>
</svg>
