<?xml version="1.0" encoding="UTF-8"?>
<svg width="430px" height="64px" viewBox="0 0 430 64" version="1.1" xmlns="http://www.w3.org/2000/svg" xmlns:xlink="http://www.w3.org/1999/xlink">
    <!-- Generator: sketchtool 51.1 (57501) - http://www.bohemiancoding.com/sketch -->
    <title>D6FFB634-180B-471B-9B07-5F1AE5E908CC</title>
    <desc>Created with sketchtool.</desc>
    <defs></defs>
    <g id="Page-1" stroke="none" stroke-width="1" fill="none" fill-rule="evenodd">
        <g id="Logo" transform="translate(-40.000000, -40.000000)" fill="#231F20">
            <g id="VS---En" transform="translate(40.000000, 40.000000)">
                <path d="M94.231,51.9394 C94.231,51.8504 94.128,51.8354 93.964,51.8354 C93.357,51.8354 92.87,51.8814 92.707,51.8814 C92.545,51.8814 91.835,51.8354 91.17,51.8354 C90.99,51.8354 90.872,51.8504 90.872,51.9394 C90.872,51.9994 90.887,52.0424 90.99,52.0424 C91.11,52.0424 91.448,52.0594 91.717,52.1174 C92.173,52.2344 92.279,52.5604 92.294,53.5214 L92.457,60.8434 C91.717,60.0154 90.325,58.4474 88.877,56.7764 C87.146,54.7794 85.386,52.6354 84.793,51.8644 C84.587,51.8504 84.157,51.8954 83.627,51.8814 C83.211,51.8814 82.796,51.8354 82.515,51.8354 C82.352,51.8354 82.28,51.8644 82.28,51.9534 C82.28,52.0134 82.337,52.0424 82.398,52.0424 C82.529,52.0424 82.781,52.0594 82.899,52.0874 C83.389,52.1914 83.535,52.5894 83.535,52.9734 C83.535,55.4604 83.506,60.8434 83.506,60.8434 C83.506,62.1904 83.432,62.6204 83.063,62.7234 C82.841,62.7974 82.575,62.8124 82.458,62.8124 C82.383,62.8124 82.337,62.8404 82.337,62.9014 C82.337,63.0044 82.426,63.0184 82.575,63.0184 C83.24,63.0184 83.862,62.9734 83.994,62.9734 C84.128,62.9734 84.719,63.0184 85.562,63.0184 C85.739,63.0184 85.828,62.9874 85.828,62.9014 C85.828,62.8404 85.785,62.8124 85.71,62.8124 C85.579,62.8124 85.252,62.7974 84.971,62.7234 C84.57,62.6054 84.424,62.2194 84.395,61.0064 L84.203,53.2404 C84.676,53.7734 86.376,55.6814 88.032,57.5904 C89.557,59.3504 90.356,60.2524 91.984,62.1444 C92.5,62.7384 92.824,63.1224 93.004,63.1224 C93.105,63.1224 93.136,63.0474 93.136,62.0734 L93.168,53.4034 C93.168,52.5174 93.225,52.1914 93.712,52.0874 C93.89,52.0424 93.993,52.0424 94.068,52.0424 C94.171,52.0424 94.231,51.9994 94.231,51.9394" id="Fill-1"></path>
                <path d="M102.8101,61.2441 C102.8101,61.1401 102.8101,61.0221 102.7211,61.0221 C102.6471,61.0221 102.6181,61.0801 102.5891,61.2441 C102.4861,61.8481 102.3081,62.1461 101.9221,62.3071 C101.5381,62.4711 100.1471,62.4711 99.7641,62.4711 C98.1211,62.4711 98.0781,62.4711 98.0471,61.7021 C98.0321,61.3921 98.0471,59.2311 98.0471,58.7301 L98.0471,57.4271 C98.0471,57.3691 98.0781,57.3231 98.1501,57.3231 C98.4021,57.3231 100.6061,57.3541 101.0051,57.3971 C101.5831,57.4551 101.7151,57.7071 101.7751,57.9161 C101.8331,58.1081 101.8331,58.2551 101.8331,58.4031 C101.8331,58.4771 101.8641,58.5381 101.9361,58.5381 C102.0421,58.5381 102.0421,58.3751 102.0421,58.2551 C102.0421,58.1511 102.0711,57.6041 102.1001,57.3081 C102.1451,56.8211 102.2201,56.5691 102.2201,56.4801 C102.2201,56.3911 102.1881,56.3631 102.1451,56.3631 C102.0851,56.3631 102.0271,56.4371 101.9221,56.5551 C101.7891,56.7011 101.5831,56.7321 101.2281,56.7621 C100.8871,56.7931 98.3281,56.7931 98.1361,56.7931 C98.0611,56.7931 98.0471,56.7471 98.0471,56.6431 L98.0471,52.5591 C98.0471,52.4571 98.0781,52.4131 98.1361,52.4131 C98.6091,52.4131 99.9101,52.4421 100.1621,52.4571 C101.1821,52.5161 101.8471,52.7231 101.9511,52.9611 C102.0271,53.1391 102.0421,53.3891 102.0421,53.4911 C102.0421,53.6111 102.0711,53.6851 102.1601,53.6851 C102.2201,53.6851 102.2481,53.5971 102.2631,53.5221 C102.2911,53.3451 102.3231,52.6941 102.3371,52.5461 C102.3801,52.1301 102.4551,51.9551 102.4551,51.8491 C102.4551,51.7771 102.4401,51.7171 102.3941,51.7171 C102.3231,51.7171 102.2631,51.7771 102.1881,51.7921 C102.0711,51.8201 101.8331,51.8491 101.5521,51.8661 C101.2111,51.8811 98.4911,51.8941 97.4251,51.8811 C96.7741,51.8661 96.2271,51.8351 95.7541,51.8351 C95.5911,51.8351 95.5181,51.8661 95.5181,51.9551 C95.5181,52.0131 95.5761,52.0441 95.6361,52.0441 C95.7681,52.0441 96.0201,52.0581 96.1381,52.0871 C96.6281,52.1901 96.7461,52.4281 96.7741,52.9301 C96.8031,53.4051 96.8031,53.8181 96.8031,56.1251 L96.8031,58.7301 C96.8031,60.1481 96.8031,61.3181 96.7311,61.9391 C96.6711,62.3671 96.5971,62.6931 96.3011,62.7511 C96.1691,62.7821 95.9921,62.8111 95.8571,62.8111 C95.7681,62.8111 95.7401,62.8571 95.7401,62.9001 C95.7401,62.9891 95.8141,63.0171 95.9771,63.0171 C96.4191,63.0171 96.8941,62.9741 97.4251,62.9741 C97.8551,62.9741 99.5861,63.0631 101.8181,63.0631 C102.3941,63.0631 102.5151,63.0631 102.6181,62.6801 C102.6921,62.3671 102.8101,61.3611 102.8101,61.2441" id="Fill-3"></path>
                <path d="M120.4424,51.954 C120.4424,51.894 120.3674,51.865 120.2354,51.865 C119.7774,51.865 119.1414,51.88 119.0374,51.88 C118.9034,51.88 118.2814,51.865 117.5274,51.865 C117.3504,51.865 117.2754,51.894 117.2754,51.969 C117.2754,52.029 117.3354,52.072 117.4104,52.072 C118.0894,52.072 118.2534,52.25 118.2534,52.516 C118.2534,52.708 118.2384,52.915 118.0894,53.462 C117.5734,55.356 116.2124,59.618 115.8134,60.976 L115.7534,60.976 L112.8104,52.591 C112.6324,52.089 112.5434,51.894 112.4404,51.894 C112.3514,51.894 112.2914,51.969 112.0704,52.576 L108.9354,61.008 L108.9034,61.008 C108.6834,60.223 107.1444,54.823 106.9214,53.878 C106.7744,53.226 106.6404,52.708 106.6404,52.516 C106.6404,52.324 106.7454,52.206 106.8344,52.161 C107.0124,52.072 107.2934,52.072 107.4104,52.072 C107.4844,52.072 107.5574,52.058 107.5574,51.969 C107.5574,51.911 107.4994,51.865 107.2934,51.865 C106.5534,51.865 105.9004,51.88 105.7684,51.88 C105.6054,51.88 104.7914,51.865 104.0234,51.865 C103.8744,51.865 103.7874,51.894 103.7874,51.969 C103.7874,52.058 103.8454,52.072 103.9204,52.072 C104.0234,52.072 104.3924,52.089 104.5854,52.161 C104.9684,52.309 105.1614,52.53 105.3984,53.315 L108.0324,62.057 C108.3274,63.063 108.4004,63.226 108.5484,63.226 C108.7264,63.226 108.8004,63.063 109.0384,62.441 C109.5684,61.068 111.5974,55.651 112.1284,54.232 L112.1594,54.232 L115.0574,62.458 C115.2664,63.034 115.3524,63.226 115.5014,63.226 C115.6644,63.226 115.7394,63.049 116.1234,61.954 C116.6994,60.297 118.1924,55.623 118.8434,53.743 C119.1244,52.932 119.3614,52.309 119.8064,52.146 C119.9694,52.089 120.2504,52.072 120.3074,52.072 C120.3994,52.072 120.4424,52.029 120.4424,51.954" id="Fill-5"></path>
                <path d="M135.2495,51.954 C135.2495,51.894 135.1605,51.865 135.0575,51.865 C134.7755,51.865 133.7105,51.88 133.6215,51.88 C133.5035,51.88 133.0305,51.865 132.6445,51.865 C132.4975,51.865 132.4085,51.894 132.4085,51.954 C132.4085,52.029 132.4975,52.029 132.6295,52.058 C132.8075,52.103 132.9845,52.132 132.9845,52.339 C132.9845,52.53 132.7935,52.946 132.6155,53.272 C132.3495,53.758 130.4395,56.97 130.1595,57.589 C129.8955,57.162 127.6745,53.373 127.4385,52.946 C127.3185,52.723 127.1295,52.413 127.1585,52.25 C127.1725,52.132 127.2905,52.089 127.4255,52.058 C127.5705,52.029 127.6595,52.029 127.6595,51.969 C127.6595,51.911 127.6315,51.865 127.4685,51.865 C126.8925,51.865 126.3295,51.88 126.2275,51.88 C126.1525,51.88 125.0435,51.865 124.7625,51.865 C124.6275,51.865 124.5695,51.911 124.5695,51.969 C124.5695,52.043 124.6455,52.072 124.7165,52.072 C124.8495,52.072 125.1455,52.132 125.3675,52.278 C125.6345,52.456 125.9605,52.797 126.3585,53.404 C126.8775,54.173 128.8575,57.397 128.9615,57.635 C129.1555,58.064 129.3025,58.389 129.3025,59.188 L129.3025,60.461 C129.3025,60.696 129.3025,61.317 129.2595,61.939 C129.2285,62.369 129.0965,62.693 128.7985,62.753 C128.6665,62.782 128.4135,62.81 128.2815,62.81 C128.1925,62.81 128.1645,62.856 128.1645,62.899 C128.1645,62.988 128.2355,63.017 128.3995,63.017 C128.8435,63.017 129.3335,62.975 129.9245,62.975 C130.5745,62.975 131.1655,63.017 131.5955,63.017 C131.7585,63.017 131.8325,62.975 131.8325,62.899 C131.8325,62.856 131.8015,62.81 131.7125,62.81 C131.5805,62.81 131.4025,62.782 131.1965,62.753 C130.7525,62.693 130.6205,62.369 130.5895,61.939 C130.5455,61.317 130.5455,60.696 130.5455,60.461 L130.5455,59.188 C130.5455,58.701 130.5455,58.242 130.7675,57.709 C131.0335,57.073 133.1035,53.625 133.5925,53.035 C133.9165,52.634 134.1085,52.413 134.4065,52.235 C134.6275,52.103 134.8945,52.072 135.0575,52.072 C135.1745,52.072 135.2495,52.029 135.2495,51.954" id="Fill-7"></path>
                <path d="M146.106,57.1757 C146.106,53.7287 143.622,51.6277 140.292,51.6277 C136.21,51.6277 134.464,55.0157 134.464,57.4137 C134.464,60.0757 136.15,63.2257 140.205,63.2257 C143.768,63.2257 146.106,60.4887 146.106,57.1757 M144.685,57.5887 C144.685,61.8937 141.933,62.6637 140.603,62.6637 C137.941,62.6637 135.869,60.4437 135.869,56.9977 C135.869,53.7597 137.72,52.1317 140.191,52.1317 C142.527,52.1317 144.685,54.0397 144.685,57.5887" id="Fill-9"></path>
                <path d="M156.5337,62.9003 C156.5337,62.8113 156.4907,62.8263 156.1187,62.7683 C155.5137,62.6623 155.2187,62.5303 154.4647,61.7023 C154.0637,61.2573 153.4877,60.3403 152.9827,59.4383 C152.5557,58.6843 152.0377,58.0193 151.5047,57.7383 C153.3677,57.0563 154.0067,55.5913 154.0067,54.5003 C154.0067,53.4793 153.3527,52.7543 152.9827,52.4883 C152.2007,51.9233 151.2097,51.8373 150.2777,51.8373 C149.8187,51.8373 148.6927,51.8803 148.5317,51.8803 C148.4577,51.8803 147.5257,51.8373 146.8607,51.8373 C146.6977,51.8373 146.6237,51.8663 146.6237,51.9553 C146.6237,52.0143 146.6827,52.0443 146.7407,52.0443 C146.8757,52.0443 147.1277,52.0583 147.2457,52.0873 C147.7327,52.1903 147.8527,52.4273 147.8817,52.9293 C147.9107,53.4053 147.9107,53.8183 147.9107,56.1253 L147.9107,58.7303 C147.9107,60.1483 147.9107,61.3183 147.8357,61.9393 C147.7757,62.3673 147.7037,62.6933 147.4087,62.7513 C147.2737,62.7823 147.0957,62.8113 146.9647,62.8113 C146.8757,62.8113 146.8447,62.8573 146.8447,62.9003 C146.8447,62.9893 146.9187,63.0203 147.0827,63.0203 C147.5257,63.0203 148.4577,62.9743 148.4717,62.9743 C148.5467,62.9743 149.4777,63.0203 150.2917,63.0203 C150.4557,63.0203 150.5297,62.9743 150.5297,62.9003 C150.5297,62.8573 150.4987,62.8113 150.4097,62.8113 C150.2777,62.8113 149.9507,62.7823 149.7447,62.7513 C149.3007,62.6933 149.2117,62.3673 149.1687,61.9393 C149.0797,61.1403 149.0947,58.0193 149.0947,58.0193 C149.0947,57.8703 149.1377,57.8563 149.2577,57.8703 C149.4497,57.8843 149.6557,57.9013 149.8927,57.9163 C150.2917,57.9303 150.8247,58.2993 151.2097,58.8623 C151.4747,59.2463 151.8457,59.7943 152.2747,60.5493 C152.9257,61.6873 153.3677,62.2633 153.9457,62.6623 C154.1977,62.8393 154.6397,63.0203 155.4707,63.0203 L156.1797,63.0203 C156.4447,63.0203 156.5337,63.0043 156.5337,62.9003 M150.4247,57.5013 C149.9367,57.5013 149.4637,57.4713 149.2257,57.3823 C149.1227,57.3393 149.0947,57.3233 149.0947,57.1473 L149.0947,52.5773 C149.0947,52.4883 149.1377,52.4273 149.2117,52.3993 C149.3607,52.3533 149.7597,52.3103 150.2037,52.3103 C151.7857,52.3103 152.7627,53.2993 152.7627,55.0153 C152.7627,56.0823 152.2747,56.7903 151.8027,57.1473 C151.3877,57.4583 150.7817,57.5013 150.4247,57.5013" id="Fill-11"></path>
                <path d="M167.8354,62.9003 C167.8354,62.8403 167.7464,62.8113 167.6434,62.8113 C167.5394,62.8113 167.1984,62.7803 166.9784,62.6193 C166.3564,62.1753 165.8834,61.7623 165.0554,60.9343 C164.4764,60.3553 161.4304,57.1913 161.0454,56.7613 C161.3554,56.3913 163.9294,53.8783 164.2994,53.5223 C164.9644,52.8863 165.2904,52.5163 165.8984,52.2503 C166.1924,52.1183 166.5054,52.0443 166.7264,52.0443 C166.8444,52.0443 166.8724,52.0153 166.8724,51.9383 C166.8724,51.8663 166.8144,51.8353 166.6514,51.8353 C166.2814,51.8353 165.7634,51.8803 165.2324,51.8803 C164.8774,51.8803 164.2104,51.8353 163.9144,51.8353 C163.7234,51.8353 163.6484,51.8663 163.6484,51.9383 C163.6484,51.9983 163.7084,52.0273 163.8114,52.0443 C164.0774,52.0873 164.3154,52.1013 164.3154,52.3103 C164.3154,52.5603 163.8864,53.0043 163.4704,53.4333 C162.9394,54.0093 160.2604,56.7323 160.0114,57.0133 L159.9504,57.0133 L159.9504,56.1253 C159.9504,53.8183 159.9504,53.4033 159.9804,52.9293 C160.0114,52.4143 160.1284,52.1613 160.5264,52.0873 C160.7044,52.0583 160.7934,52.0443 160.8974,52.0443 C160.9564,52.0443 161.0174,52.0153 161.0174,51.9553 C161.0174,51.8663 160.9424,51.8353 160.7784,51.8353 C160.3354,51.8353 159.4784,51.8803 159.3434,51.8803 C159.2544,51.8803 158.3834,51.8353 157.7184,51.8353 C157.5554,51.8353 157.4814,51.8663 157.4814,51.9553 C157.4814,52.0153 157.5404,52.0443 157.5984,52.0443 C157.7324,52.0443 157.9844,52.0583 158.1024,52.0873 C158.5894,52.1903 158.7074,52.4273 158.7384,52.9293 C158.7674,53.4033 158.7674,53.8183 158.7674,56.1253 L158.7674,58.7303 C158.7674,60.1493 158.7674,61.3183 158.6924,61.9373 C158.6334,62.3673 158.5614,62.6943 158.2654,62.7523 C158.1314,62.7803 157.9534,62.8113 157.8214,62.8113 C157.7324,62.8113 157.7014,62.8543 157.7014,62.9003 C157.7014,62.9893 157.7754,63.0183 157.9394,63.0183 C158.3834,63.0183 159.2404,62.9743 159.3574,62.9743 C159.4784,62.9743 160.3354,63.0183 161.0604,63.0183 C161.2234,63.0183 161.2954,62.9743 161.2954,62.9003 C161.2954,62.8543 161.2674,62.8113 161.1784,62.8113 C161.0454,62.8113 160.8084,62.7803 160.6024,62.7523 C160.1574,62.6943 160.0684,62.3673 160.0254,61.9373 C159.9504,61.3183 159.9504,60.1493 159.9504,58.7303 L159.9504,57.2803 L160.0254,57.2803 C161.0174,58.3143 163.9144,61.3763 164.5514,62.0573 C164.7294,62.2503 164.9494,62.5163 164.9944,62.6193 C165.0234,62.6943 164.9944,62.7803 164.8924,62.8113 C164.7734,62.8403 164.6534,62.8543 164.6534,62.9153 C164.6534,63.0353 164.8314,63.0183 165.0094,63.0183 C165.3364,63.0183 165.7484,62.9743 166.2074,62.9743 C166.6834,62.9743 167.1984,63.0183 167.5114,63.0183 C167.6434,63.0183 167.8354,62.9743 167.8354,62.9003" id="Fill-13"></path>
                <path d="M191.0112,61.1845 C191.0112,61.0215 190.9972,60.9605 190.9222,60.9605 C190.8342,60.9605 190.8052,61.0365 190.7882,61.1565 C190.7452,61.4365 190.5962,61.8065 190.4042,62.0435 C190.0492,62.4715 189.3982,62.4865 188.6152,62.4865 L187.9482,62.4865 C186.0992,62.4865 186.0712,62.4565 186.0712,61.3765 L186.0712,56.1255 C186.0712,53.8195 186.0712,53.4035 186.0992,52.9305 C186.1302,52.4125 186.2482,52.1625 186.6782,52.0875 C186.8562,52.0595 187.0622,52.0415 187.1652,52.0415 C187.2252,52.0415 187.2852,52.0135 187.2852,51.9535 C187.2852,51.8645 187.2082,51.8355 187.0482,51.8355 C186.6042,51.8355 185.5232,51.8815 185.4492,51.8815 C185.3762,51.8815 184.4432,51.8355 183.7782,51.8355 C183.6162,51.8355 183.5402,51.8645 183.5402,51.9535 C183.5402,52.0135 183.6002,52.0415 183.6602,52.0415 C183.7922,52.0415 184.0442,52.0595 184.1612,52.0875 C184.6522,52.1915 184.7692,52.4285 184.7982,52.9305 C184.8292,53.4035 184.8292,53.8195 184.8292,56.1255 L184.8292,58.7285 C184.8292,60.1495 184.8292,61.3195 184.7552,61.9385 C184.6952,62.3685 184.6202,62.6925 184.3252,62.7515 C184.1932,62.7835 184.0162,62.8125 183.8812,62.8125 C183.7922,62.8125 183.7632,62.8555 183.7632,62.9015 C183.7632,62.9875 183.8382,63.0185 183.9982,63.0185 C184.4432,63.0185 185.3172,62.9735 185.4492,62.9735 C186.3082,62.9735 187.7272,63.0645 189.8572,63.0645 C190.6422,63.0645 190.6852,63.0045 190.7882,62.6635 C190.9082,62.2335 191.0112,61.3475 191.0112,61.1845" id="Fill-15"></path>
                <path d="M203.9839,57.1757 C203.9839,53.7287 201.4999,51.6277 198.1719,51.6277 C194.0879,51.6277 192.3419,55.0157 192.3419,57.4137 C192.3419,60.0757 194.0299,63.2257 198.0829,63.2257 C201.6459,63.2257 203.9839,60.4887 203.9839,57.1757 M202.5649,57.5887 C202.5649,61.8937 199.8139,62.6637 198.4809,62.6637 C195.8189,62.6637 193.7469,60.4437 193.7469,56.9977 C193.7469,53.7597 195.5979,52.1317 198.0659,52.1317 C200.4049,52.1317 202.5649,54.0397 202.5649,57.5887" id="Fill-17"></path>
                <path d="M216.8403,51.9394 C216.8403,51.8504 216.7363,51.8354 216.5733,51.8354 C215.9663,51.8354 215.4793,51.8814 215.3163,51.8814 C215.1543,51.8814 214.4443,51.8354 213.7783,51.8354 C213.5993,51.8354 213.4823,51.8504 213.4823,51.9394 C213.4823,51.9994 213.4953,52.0424 213.5993,52.0424 C213.7193,52.0424 214.0583,52.0594 214.3263,52.1174 C214.7823,52.2344 214.8883,52.5604 214.9033,53.5214 L215.0663,60.8434 C214.3263,60.0154 212.9343,58.4474 211.4863,56.7764 C209.7553,54.7794 207.9953,52.6354 207.4023,51.8644 C207.1953,51.8504 206.7663,51.8954 206.2363,51.8814 C205.8203,51.8814 205.4043,51.8354 205.1243,51.8354 C204.9603,51.8354 204.8893,51.8644 204.8893,51.9534 C204.8893,52.0134 204.9463,52.0424 205.0063,52.0424 C205.1383,52.0424 205.3913,52.0594 205.5083,52.0874 C205.9983,52.1914 206.1453,52.5894 206.1453,52.9734 C206.1453,55.4604 206.1153,60.8434 206.1153,60.8434 C206.1153,62.1904 206.0413,62.6204 205.6713,62.7234 C205.4503,62.7974 205.1843,62.8124 205.0673,62.8124 C204.9913,62.8124 204.9463,62.8404 204.9463,62.9014 C204.9463,63.0044 205.0353,63.0184 205.1843,63.0184 C205.8493,63.0184 206.4713,62.9734 206.6033,62.9734 C206.7373,62.9734 207.3283,63.0184 208.1703,63.0184 C208.3483,63.0184 208.4373,62.9874 208.4373,62.9014 C208.4373,62.8404 208.3943,62.8124 208.3193,62.8124 C208.1883,62.8124 207.8613,62.7974 207.5803,62.7234 C207.1823,62.6054 207.0323,62.2194 207.0043,61.0064 L206.8123,53.2404 C207.2843,53.7734 208.9853,55.6814 210.6413,57.5904 C212.1653,59.3504 212.9653,60.2524 214.5933,62.1444 C215.1093,62.7384 215.4363,63.1224 215.6133,63.1224 C215.7163,63.1224 215.7453,63.0474 215.7453,62.0734 L215.7773,53.4034 C215.7773,52.5174 215.8343,52.1914 216.3213,52.0874 C216.4993,52.0424 216.6033,52.0424 216.6773,52.0424 C216.7793,52.0424 216.8403,51.9994 216.8403,51.9394" id="Fill-19"></path>
                <path d="M229.4126,57.2792 C229.4126,55.5192 228.7166,54.2922 227.9796,53.5212 C226.2176,51.7022 223.5116,51.8362 222.0476,51.8362 C221.1586,51.8362 220.2266,51.8802 220.0496,51.8802 C219.9746,51.8802 219.0436,51.8362 218.3786,51.8362 C218.2156,51.8362 218.1416,51.8652 218.1416,51.9542 C218.1416,52.0132 218.2006,52.0432 218.2616,52.0432 C218.3926,52.0432 218.6446,52.0572 218.7636,52.0892 C219.2506,52.1912 219.3706,52.4262 219.3986,52.9302 C219.4286,53.4042 219.4286,53.8172 219.4286,56.1272 L219.4286,58.7292 C219.4286,60.1482 219.4286,61.3172 219.3556,61.9392 C219.2956,62.3692 219.2216,62.6922 218.9266,62.7532 C218.7916,62.7812 218.6136,62.8102 218.4816,62.8102 C218.3926,62.8102 218.3646,62.8562 218.3646,62.8992 C218.3646,62.9902 218.4356,63.0192 218.5996,63.0192 C219.0436,63.0192 219.8116,62.9732 220.0496,62.9732 C220.2566,62.9732 222.0616,63.1512 223.3346,63.1512 C225.8486,63.1512 227.1806,62.1162 227.8156,61.4512 C228.6446,60.5782 229.4126,59.1442 229.4126,57.2792 M228.0826,57.7372 C228.0826,59.0982 227.6676,60.5202 226.8986,61.2742 C226.0246,62.1452 224.7526,62.6492 223.3776,62.6492 C221.6316,62.6492 221.0266,62.3972 220.8346,62.1162 C220.7146,61.9532 220.7146,61.3022 220.7006,60.9322 C220.6856,60.6522 220.6716,59.2912 220.6716,57.7222 L220.6716,55.8882 C220.6716,54.7512 220.6716,53.2412 220.6856,52.7392 C220.6856,52.5762 220.7316,52.5012 220.8636,52.4412 C220.9806,52.3832 221.5286,52.3382 221.8236,52.3382 C223.5836,52.3382 225.2706,52.5472 226.6616,54.0112 C227.2686,54.6452 228.0826,55.8602 228.0826,57.7372" id="Fill-21"></path>
                <path d="M242.9478,57.1757 C242.9478,53.7287 240.4638,51.6277 237.1358,51.6277 C233.0518,51.6277 231.3058,55.0157 231.3058,57.4137 C231.3058,60.0757 232.9918,63.2257 237.0468,63.2257 C240.6098,63.2257 242.9478,60.4887 242.9478,57.1757 M241.5268,57.5887 C241.5268,61.8937 238.7778,62.6637 237.4448,62.6637 C234.7828,62.6637 232.7108,60.4437 232.7108,56.9977 C232.7108,53.7597 234.5588,52.1317 237.0298,52.1317 C239.3688,52.1317 241.5268,54.0397 241.5268,57.5887" id="Fill-23"></path>
                <path d="M256.7632,51.9394 C256.7632,51.8504 256.6602,51.8354 256.4972,51.8354 C255.8922,51.8354 255.4022,51.8814 255.2392,51.8814 C255.0762,51.8814 254.3672,51.8354 253.7022,51.8354 C253.5252,51.8354 253.4052,51.8504 253.4052,51.9394 C253.4052,51.9994 253.4192,52.0424 253.5252,52.0424 C253.6422,52.0424 253.9842,52.0594 254.2492,52.1174 C254.7062,52.2344 254.8122,52.5604 254.8262,53.5214 L254.9902,60.8434 C254.2492,60.0154 252.8572,58.4474 251.4092,56.7764 C249.6792,54.7794 247.9182,52.6354 247.3252,51.8644 C247.1192,51.8504 246.6902,51.8954 246.1592,51.8814 C245.7432,51.8814 245.3282,51.8354 245.0472,51.8354 C244.8842,51.8354 244.8122,51.8644 244.8122,51.9534 C244.8122,52.0134 244.8692,52.0424 244.9302,52.0424 C245.0622,52.0424 245.3142,52.0594 245.4322,52.0874 C245.9212,52.1914 246.0682,52.5894 246.0682,52.9734 C246.0682,55.4604 246.0392,60.8434 246.0392,60.8434 C246.0392,62.1904 245.9642,62.6204 245.5952,62.7234 C245.3742,62.7974 245.1082,62.8124 244.9902,62.8124 C244.9152,62.8124 244.8692,62.8404 244.8692,62.9014 C244.8692,63.0044 244.9582,63.0184 245.1082,63.0184 C245.7732,63.0184 246.3942,62.9734 246.5272,62.9734 C246.6602,62.9734 247.2512,63.0184 248.0942,63.0184 C248.2722,63.0184 248.3612,62.9874 248.3612,62.9014 C248.3612,62.8404 248.3182,62.8124 248.2422,62.8124 C248.1112,62.8124 247.7842,62.7974 247.5032,62.7234 C247.1032,62.6054 246.9562,62.2194 246.9272,61.0064 L246.7352,53.2404 C247.2082,53.7734 248.9082,55.6814 250.5652,57.5904 C252.0892,59.3504 252.8882,60.2524 254.5162,62.1444 C255.0332,62.7384 255.3592,63.1224 255.5362,63.1224 C255.6372,63.1224 255.6682,63.0474 255.6682,62.0734 L255.7002,53.4034 C255.7002,52.5174 255.7572,52.1914 256.2442,52.0874 C256.4222,52.0424 256.5262,52.0424 256.6002,52.0424 C256.7032,52.0424 256.7632,51.9994 256.7632,51.9394" id="Fill-25"></path>
                <path d="M280.3237,60.1484 C280.2807,58.9644 279.4497,57.8414 277.7357,56.7044 C275.9907,55.5344 275.2197,54.9264 275.2197,53.9354 C275.2197,52.8864 276.0627,52.1464 277.2317,52.1464 C278.7247,52.1464 279.2007,52.7684 279.2897,52.9294 C279.3917,53.0924 279.5107,53.4944 279.5387,53.6694 C279.5557,53.7894 279.5697,53.8614 279.6587,53.8614 C279.7457,53.8614 279.7917,53.7604 279.7767,53.5224 C279.7457,52.8724 279.7457,52.4574 279.7767,51.9554 C279.7917,51.8204 279.7617,51.7464 279.6877,51.7464 C279.6277,51.7464 279.5847,51.8804 279.5107,51.8944 C279.3917,51.9234 279.3177,51.8944 279.0517,51.8204 C278.6677,51.7164 278.1347,51.6274 277.4987,51.6274 C275.5007,51.6274 274.2597,52.7834 274.2597,54.3794 C274.2597,55.4894 274.8067,56.4804 276.9507,57.8414 C278.5357,58.8474 279.2437,59.5584 279.2747,60.7104 C279.3037,61.6564 278.4897,62.6764 276.9357,62.6764 C275.8417,62.6764 274.7757,62.2634 274.4947,61.1694 C274.4367,60.9484 274.4237,60.7554 274.4087,60.6224 C274.3917,60.5034 274.3917,60.4594 274.3027,60.4594 C274.2147,60.4594 274.1567,60.5494 274.1707,60.6964 C274.1997,60.9484 274.1847,61.5704 274.1707,62.0854 C274.1707,62.2784 274.1417,62.7224 274.1417,62.9154 C274.1417,63.0174 274.1707,63.0634 274.2457,63.0634 C274.3027,63.0634 274.3347,63.0174 274.3917,62.9464 C274.4237,62.9004 274.4367,62.8574 274.5117,62.8574 C274.5687,62.8574 274.6437,62.9154 274.7037,62.9284 C275.2057,63.1214 275.9167,63.2264 276.6127,63.2264 C277.4837,63.2264 278.3547,63.0484 279.0377,62.6044 C280.1177,61.8794 280.3387,60.7554 280.3237,60.1484" id="Fill-27"></path>
                <path d="M292.4536,62.9003 C292.4536,62.8543 292.4246,62.8113 292.3336,62.8113 C292.2016,62.8113 291.8776,62.7803 291.6686,62.7523 C291.2256,62.6943 291.1356,62.3673 291.0926,61.9373 C291.0176,61.3183 291.0176,60.1493 291.0176,58.7303 L291.0176,56.1253 C291.0176,53.8183 291.0176,53.4033 291.0486,52.9293 C291.0776,52.4143 291.1946,52.1613 291.5946,52.0873 C291.7706,52.0583 291.8626,52.0443 291.9666,52.0443 C292.0236,52.0443 292.0836,52.0153 292.0836,51.9553 C292.0836,51.8663 292.0096,51.8353 291.8466,51.8353 C291.4036,51.8353 290.4706,51.8803 290.3956,51.8803 C290.3236,51.8803 289.3916,51.8353 288.7246,51.8353 C288.5636,51.8353 288.4896,51.8663 288.4896,51.9553 C288.4896,52.0153 288.5476,52.0443 288.6066,52.0443 C288.7386,52.0443 288.9916,52.0583 289.1086,52.0873 C289.5996,52.1903 289.7166,52.4273 289.7456,52.9293 C289.7766,53.4033 289.7766,53.8183 289.7766,56.1253 L289.7766,56.4373 C289.7766,56.5093 289.7306,56.5233 289.6876,56.5233 L283.4146,56.5233 C283.3706,56.5233 283.3276,56.5093 283.3276,56.4373 L283.3276,56.1253 C283.3276,53.8183 283.3276,53.4033 283.3566,52.9293 C283.3856,52.4143 283.5036,52.1613 283.9036,52.0873 C284.0796,52.0583 284.1706,52.0443 284.2736,52.0443 C284.3336,52.0443 284.3906,52.0153 284.3906,51.9553 C284.3906,51.8663 284.3166,51.8353 284.1536,51.8353 C283.7116,51.8353 282.7776,51.8803 282.7056,51.8803 C282.6316,51.8803 281.6996,51.8353 281.0326,51.8353 C280.8716,51.8353 280.7976,51.8663 280.7976,51.9553 C280.7976,52.0153 280.8546,52.0443 280.9146,52.0443 C281.0496,52.0443 281.2996,52.0583 281.4196,52.0873 C281.9066,52.1903 282.0236,52.4273 282.0556,52.9293 C282.0846,53.4033 282.0846,53.8183 282.0846,56.1253 L282.0846,58.7303 C282.0846,60.1493 282.0846,61.3183 282.0096,61.9373 C281.9496,62.3673 281.8776,62.6943 281.5796,62.7523 C281.4476,62.7803 281.2696,62.8113 281.1386,62.8113 C281.0496,62.8113 281.0176,62.8543 281.0176,62.9003 C281.0176,62.9893 281.0926,63.0183 281.2556,63.0183 C281.6996,63.0183 282.6316,62.9743 282.7056,62.9743 C282.7776,62.9743 283.7116,63.0183 284.5226,63.0183 C284.6866,63.0183 284.7616,62.9743 284.7616,62.9003 C284.7616,62.8543 284.7316,62.8113 284.6426,62.8113 C284.5096,62.8113 284.1846,62.7803 283.9756,62.7523 C283.5346,62.6943 283.4456,62.3673 283.3996,61.9373 C283.3276,61.3183 283.3276,60.1493 283.3276,58.7303 L283.3276,57.1763 C283.3276,57.1023 283.3706,57.0883 283.4146,57.0883 L289.6876,57.0883 C289.7306,57.0883 289.7766,57.1173 289.7766,57.1763 L289.7766,58.7303 C289.7766,60.1493 289.7766,61.3183 289.7016,61.9373 C289.6416,62.3673 289.5676,62.6943 289.2716,62.7523 C289.1406,62.7803 288.9626,62.8113 288.8276,62.8113 C288.7386,62.8113 288.7106,62.8543 288.7106,62.9003 C288.7106,62.9893 288.7846,63.0183 288.9476,63.0183 C289.3916,63.0183 290.3236,62.9743 290.3956,62.9743 C290.4706,62.9743 291.4036,63.0183 292.2156,63.0183 C292.3786,63.0183 292.4536,62.9743 292.4536,62.9003" id="Fill-29"></path>
                <path d="M303.7837,62.9003 C303.7837,62.8263 303.7237,62.8263 303.6357,62.8113 C303.4887,62.7973 303.2967,62.7523 303.0727,62.6943 C302.6607,62.5593 302.4537,62.3993 301.9207,61.0813 C301.0177,58.8343 298.6937,52.7233 298.4727,52.1623 C298.2957,51.7033 298.2377,51.6293 298.1487,51.6293 C298.0597,51.6293 298.0007,51.7173 297.8227,52.2053 L294.4667,61.3923 C294.1997,62.1323 293.9047,62.6943 293.2217,62.7833 C293.1337,62.7973 293.0447,62.8113 292.9417,62.8113 C292.8677,62.8113 292.8067,62.8403 292.8067,62.9003 C292.8067,62.9893 292.8977,63.0183 293.0907,63.0183 C293.7847,63.0183 294.4497,62.9753 294.6127,62.9753 C294.7757,62.9753 295.4117,63.0183 295.7667,63.0183 C295.8997,63.0183 295.9877,62.9893 295.9877,62.9003 C295.9877,62.8403 295.9447,62.8113 295.8427,62.8113 L295.6927,62.8113 C295.4407,62.8113 295.1317,62.6773 295.1317,62.3813 C295.1317,62.1153 295.2057,61.7623 295.3377,61.3923 L296.2257,58.7733 C296.2547,58.6993 296.2987,58.6533 296.3727,58.6533 L299.5537,58.6533 C299.6277,58.6533 299.6567,58.6843 299.6857,58.7453 C299.6857,58.7453 300.4417,60.6973 300.8997,61.9383 C301.1217,62.5593 301.0467,62.6943 300.5457,62.7973 C300.4417,62.8113 300.2927,62.8263 300.2927,62.8863 C300.2927,62.9753 300.2927,63.0183 300.5737,63.0183 C300.9297,63.0183 301.4327,62.9583 302.0537,62.9753 C302.6887,62.9893 303.2647,63.0183 303.4887,63.0183 C303.6517,63.0183 303.7837,62.9893 303.7837,62.9003 M299.3617,58.1233 L296.5357,58.1233 C296.4927,58.1233 296.4617,58.0913 296.4927,58.0193 L297.7937,54.0243 C297.8677,53.8033 297.9397,53.8033 298.0137,54.0243 L299.4197,58.0193 C299.4327,58.0773 299.4327,58.1233 299.3617,58.1233" id="Fill-31"></path>
                <path d="M316.2827,51.9394 C316.2827,51.8504 316.1797,51.8354 316.0167,51.8354 C315.4117,51.8354 314.9227,51.8814 314.7587,51.8814 C314.5977,51.8814 313.8867,51.8354 313.2197,51.8354 C313.0447,51.8354 312.9247,51.8504 312.9247,51.9394 C312.9247,51.9994 312.9407,52.0424 313.0447,52.0424 C313.1627,52.0424 313.5007,52.0594 313.7687,52.1174 C314.2277,52.2344 314.3317,52.5604 314.3457,53.5214 L314.5097,60.8434 C313.7687,60.0154 312.3777,58.4474 310.9287,56.7764 C309.1987,54.7794 307.4387,52.6354 306.8447,51.8644 C306.6387,51.8504 306.2097,51.8954 305.6787,51.8814 C305.2627,51.8814 304.8477,51.8354 304.5667,51.8354 C304.4037,51.8354 304.3317,51.8644 304.3317,51.9534 C304.3317,52.0134 304.3887,52.0424 304.4497,52.0424 C304.5817,52.0424 304.8337,52.0594 304.9537,52.0874 C305.4407,52.1914 305.5877,52.5894 305.5877,52.9734 C305.5877,55.4604 305.5587,60.8434 305.5587,60.8434 C305.5587,62.1904 305.4837,62.6204 305.1147,62.7234 C304.8937,62.7974 304.6277,62.8124 304.5097,62.8124 C304.4347,62.8124 304.3887,62.8404 304.3887,62.9014 C304.3887,63.0044 304.4777,63.0184 304.6277,63.0184 C305.2927,63.0184 305.9137,62.9734 306.0467,62.9734 C306.1797,62.9734 306.7707,63.0184 307.6167,63.0184 C307.7917,63.0184 307.8807,62.9874 307.8807,62.9014 C307.8807,62.8404 307.8377,62.8124 307.7617,62.8124 C307.6307,62.8124 307.3037,62.7974 307.0227,62.7234 C306.6247,62.6054 306.4757,62.2194 306.4467,61.0064 L306.2557,53.2404 C306.7277,53.7734 308.4297,55.6814 310.0867,57.5904 C311.6087,59.3504 312.4087,60.2524 314.0357,62.1444 C314.5527,62.7384 314.8787,63.1224 315.0557,63.1224 C315.1597,63.1224 315.1877,63.0474 315.1877,62.0734 L315.2197,53.4034 C315.2197,52.5174 315.2767,52.1914 315.7637,52.0874 C315.9417,52.0424 316.0457,52.0424 316.1197,52.0424 C316.2227,52.0424 316.2827,51.9994 316.2827,51.9394" id="Fill-33"></path>
                <path d="M327.9097,57.8857 C327.9097,57.7967 327.8357,57.7657 327.6727,57.7657 C327.2277,57.7657 326.7837,57.8117 326.2227,57.8117 C325.5707,57.8117 325.2187,57.7657 324.5517,57.7657 C324.3897,57.7657 324.3157,57.7967 324.3157,57.8857 C324.3157,57.9467 324.3737,57.9747 324.4327,57.9747 C324.5647,57.9747 324.8177,57.9897 324.9367,58.0187 C325.5277,58.1817 325.6017,58.3447 325.6017,59.5427 L325.6017,61.7607 C325.6017,62.0127 325.4997,62.1767 325.3057,62.2797 C324.9207,62.5007 324.0037,62.6637 323.1897,62.6637 C321.8307,62.6637 320.6897,62.3517 319.5957,61.1707 C319.0187,60.5487 318.1767,59.1727 318.1767,57.0867 C318.1767,55.5937 318.7667,53.9057 319.6267,53.2267 C320.7507,52.3377 322.0227,52.1747 322.9547,52.1747 C324.6847,52.1747 325.9127,52.8137 326.2817,53.3747 C326.5027,53.7307 326.5797,54.1437 326.5917,54.3497 C326.6087,54.4847 326.6227,54.5727 326.6967,54.5727 C326.8007,54.5727 326.8297,54.4987 326.8297,54.2607 C326.8297,53.6987 326.9317,52.1917 326.9317,52.0877 C326.9317,52.0427 326.9637,51.8787 326.8607,51.8787 C326.7407,51.8787 326.8007,52.0427 326.5197,52.0427 C326.3277,52.0427 326.0147,51.9707 325.5567,51.8787 C325.2757,51.8217 324.2267,51.6297 323.2957,51.6297 C322.1547,51.6297 320.6767,51.8077 319.3467,52.6357 C318.0277,53.4637 316.8897,55.2517 316.8897,57.4277 C316.8897,59.2767 317.5837,60.8747 318.5897,61.7757 C320.0857,63.1087 322.0377,63.2257 323.1607,63.2257 C324.0197,63.2257 325.7207,62.8867 326.6517,62.2657 C326.8007,62.1587 326.8437,62.1477 326.8437,62.0417 L326.8437,60.1047 C326.8437,59.4857 326.8437,59.3357 326.8747,58.8637 C326.9037,58.3447 327.0207,58.0927 327.4227,58.0187 C327.5997,57.9897 327.6857,57.9747 327.7897,57.9747 C327.8497,57.9747 327.9097,57.9467 327.9097,57.8857" id="Fill-35"></path>
                <path d="M339.6245,62.9003 C339.6245,62.8543 339.5955,62.8113 339.5075,62.8113 C339.3725,62.8113 339.0485,62.7803 338.8425,62.7523 C338.3975,62.6943 338.3095,62.3673 338.2635,61.9373 C338.1885,61.3183 338.1885,60.1493 338.1885,58.7303 L338.1885,56.1253 C338.1885,53.8183 338.1885,53.4033 338.2205,52.9293 C338.2485,52.4143 338.3665,52.1613 338.7675,52.0873 C338.9445,52.0583 339.0335,52.0443 339.1375,52.0443 C339.1945,52.0443 339.2545,52.0153 339.2545,51.9553 C339.2545,51.8663 339.1805,51.8353 339.0175,51.8353 C338.5755,51.8353 337.6445,51.8803 337.5695,51.8803 C337.4945,51.8803 336.5625,51.8353 335.8975,51.8353 C335.7345,51.8353 335.6605,51.8663 335.6605,51.9553 C335.6605,52.0153 335.7215,52.0443 335.7785,52.0443 C335.9125,52.0443 336.1625,52.0583 336.2825,52.0873 C336.7705,52.1903 336.8875,52.4273 336.9185,52.9293 C336.9475,53.4033 336.9475,53.8183 336.9475,56.1253 L336.9475,56.4373 C336.9475,56.5093 336.9015,56.5233 336.8585,56.5233 L330.5875,56.5233 C330.5425,56.5233 330.4985,56.5093 330.4985,56.4373 L330.4985,56.1253 C330.4985,53.8183 330.4985,53.4033 330.5275,52.9293 C330.5565,52.4143 330.6745,52.1613 331.0745,52.0873 C331.2525,52.0583 331.3415,52.0443 331.4445,52.0443 C331.5055,52.0443 331.5625,52.0153 331.5625,51.9553 C331.5625,51.8663 331.4905,51.8353 331.3275,51.8353 C330.8835,51.8353 329.9515,51.8803 329.8775,51.8803 C329.8025,51.8803 328.8715,51.8353 328.2065,51.8353 C328.0425,51.8353 327.9685,51.8663 327.9685,51.9553 C327.9685,52.0153 328.0285,52.0443 328.0865,52.0443 C328.2205,52.0443 328.4705,52.0583 328.5905,52.0873 C329.0775,52.1903 329.1945,52.4273 329.2265,52.9293 C329.2555,53.4033 329.2555,53.8183 329.2555,56.1253 L329.2555,58.7303 C329.2555,60.1493 329.2555,61.3183 329.1815,61.9373 C329.1235,62.3673 329.0495,62.6943 328.7515,62.7523 C328.6185,62.7803 328.4415,62.8113 328.3095,62.8113 C328.2205,62.8113 328.1885,62.8543 328.1885,62.9003 C328.1885,62.9893 328.2645,63.0183 328.4275,63.0183 C328.8715,63.0183 329.8025,62.9743 329.8775,62.9743 C329.9515,62.9743 330.8835,63.0183 331.6965,63.0183 C331.8575,63.0183 331.9325,62.9743 331.9325,62.9003 C331.9325,62.8543 331.9035,62.8113 331.8145,62.8113 C331.6805,62.8113 331.3555,62.7803 331.1495,62.7523 C330.7055,62.6943 330.6165,62.3673 330.5705,61.9373 C330.4985,61.3183 330.4985,60.1493 330.4985,58.7303 L330.4985,57.1763 C330.4985,57.1023 330.5425,57.0883 330.5875,57.0883 L336.8585,57.0883 C336.9015,57.0883 336.9475,57.1173 336.9475,57.1763 L336.9475,58.7303 C336.9475,60.1493 336.9475,61.3183 336.8735,61.9373 C336.8125,62.3673 336.7405,62.6943 336.4435,62.7523 C336.3115,62.7803 336.1335,62.8113 335.9995,62.8113 C335.9125,62.8113 335.8815,62.8543 335.8815,62.9003 C335.8815,62.9893 335.9555,63.0183 336.1195,63.0183 C336.5625,63.0183 337.4945,62.9743 337.5695,62.9743 C337.6445,62.9743 338.5755,63.0183 339.3875,63.0183 C339.5505,63.0183 339.6245,62.9743 339.6245,62.9003" id="Fill-37"></path>
                <path d="M351.2515,62.9003 C351.2515,62.8263 351.1905,62.8263 351.1055,62.8113 C350.9555,62.7973 350.7645,62.7523 350.5405,62.6943 C350.1275,62.5593 349.9215,62.3993 349.3885,61.0813 C348.4855,58.8343 346.1615,52.7233 345.9405,52.1623 C345.7635,51.7033 345.7055,51.6293 345.6165,51.6293 C345.5275,51.6293 345.4675,51.7173 345.2895,52.2053 L341.9345,61.3923 C341.6675,62.1323 341.3715,62.6943 340.6895,62.7833 C340.6015,62.7973 340.5125,62.8113 340.4085,62.8113 C340.3345,62.8113 340.2745,62.8403 340.2745,62.9003 C340.2745,62.9893 340.3635,63.0183 340.5555,63.0183 C341.2515,63.0183 341.9165,62.9753 342.0795,62.9753 C342.2435,62.9753 342.8795,63.0183 343.2345,63.0183 C343.3665,63.0183 343.4555,62.9893 343.4555,62.9003 C343.4555,62.8403 343.4095,62.8113 343.3095,62.8113 L343.1605,62.8113 C342.9085,62.8113 342.5995,62.6773 342.5995,62.3813 C342.5995,62.1153 342.6735,61.7623 342.8055,61.3923 L343.6935,58.7733 C343.7225,58.6993 343.7685,58.6533 343.8405,58.6533 L347.0215,58.6533 C347.0955,58.6533 347.1245,58.6843 347.1525,58.7453 C347.1525,58.7453 347.9095,60.6973 348.3655,61.9383 C348.5885,62.5593 348.5145,62.6943 348.0125,62.7973 C347.9095,62.8113 347.7605,62.8263 347.7605,62.8863 C347.7605,62.9753 347.7605,63.0183 348.0415,63.0183 C348.3975,63.0183 348.8975,62.9583 349.5205,62.9753 C350.1565,62.9893 350.7325,63.0183 350.9555,63.0183 C351.1195,63.0183 351.2515,62.9893 351.2515,62.9003 M346.8285,58.1233 L344.0035,58.1233 C343.9595,58.1233 343.9295,58.0913 343.9595,58.0193 L345.2615,54.0243 C345.3355,53.8033 345.4075,53.8033 345.4815,54.0243 L346.8865,58.0193 C346.9035,58.0773 346.9035,58.1233 346.8285,58.1233" id="Fill-39"></path>
                <path d="M355.8071,62.9003 C355.8071,62.8543 355.7791,62.8113 355.6901,62.8113 C355.5551,62.8113 355.2311,62.7803 355.0251,62.7523 C354.5801,62.6943 354.4921,62.3673 354.4461,61.9373 C354.3711,61.3183 354.3711,60.1493 354.3711,58.7303 L354.3711,56.1253 C354.3711,53.8183 354.3711,53.4033 354.4031,52.9293 C354.4311,52.4143 354.5491,52.1613 354.9481,52.0873 C355.1271,52.0583 355.2161,52.0443 355.3201,52.0443 C355.3771,52.0443 355.4381,52.0153 355.4381,51.9553 C355.4381,51.8663 355.3631,51.8353 355.2031,51.8353 C354.7581,51.8353 354.3141,51.8803 353.7521,51.8803 C353.1731,51.8803 352.7441,51.8353 352.2561,51.8353 C352.0951,51.8353 352.0211,51.8663 352.0211,51.9553 C352.0211,52.0153 352.0811,52.0443 352.1391,52.0443 C352.2421,52.0443 352.4341,52.0583 352.5971,52.1013 C352.9241,52.1753 353.0701,52.4273 353.1011,52.9293 C353.1301,53.4033 353.1301,53.8183 353.1301,56.1253 L353.1301,58.7303 C353.1301,60.1493 353.1301,61.3183 353.0561,61.9373 C352.9951,62.3673 352.9241,62.6943 352.6261,62.7523 C352.4941,62.7803 352.3171,62.8113 352.1821,62.8113 C352.0951,62.8113 352.0641,62.8543 352.0641,62.9003 C352.0641,62.9893 352.1391,63.0183 352.3021,63.0183 C352.7441,63.0183 353.1881,62.9743 353.7521,62.9743 C354.4621,62.9743 354.7581,63.0183 355.5701,63.0183 C355.7331,63.0183 355.8071,62.9743 355.8071,62.9003" id="Fill-41"></path>
                <path d="M4.3408,3.9755 C3.3248,1.4745 2.2278,0.8855 -0.0002,0.8855 L-0.0002,0.2235 L9.6968,0.2235 L9.6968,0.8475 C8.0138,0.9265 7.4668,1.2005 7.4668,1.8625 C7.4668,2.8015 7.8988,3.5045 17.1998,28.0535 L26.3468,4.9525 C26.7768,3.8165 27.2088,2.6455 27.2088,1.9035 C27.2088,0.8855 25.9168,0.9265 24.9398,0.8475 L24.9398,0.2235 L33.1118,0.2235 L33.0308,0.8855 C30.5698,1.0795 29.8658,1.6655 28.9248,3.9755 L17.0048,32.3945 C16.7698,32.9395 16.5778,33.1355 16.3788,33.1355 C16.1458,33.1355 15.9098,32.9005 15.7548,32.5095 L4.3408,3.9755 Z" id="Fill-43"></path>
                <path d="M47.4697,32.7519 L37.7777,32.7519 L37.7777,32.0869 L37.9307,32.0869 C40.5507,32.0869 40.5917,30.3659 40.5917,26.9249 L40.5917,9.0249 C40.5917,5.6229 40.1587,5.1139 37.6577,4.9579 L37.6577,4.3309 L46.5717,4.3309 L46.5717,5.0349 C43.7967,5.0349 43.7587,5.7399 43.7587,10.1939 L43.7587,26.9249 C43.7587,31.1099 43.9887,32.0489 47.4697,32.0489 L47.4697,32.7519 Z" id="Fill-46"></path>
                <path d="M77.5698,27.5536 C76.1248,30.8766 72.8378,33.1426 67.6808,33.1426 C58.7668,33.1426 53.2948,27.0066 53.2948,18.5626 C53.2948,10.6666 58.8458,3.8646 68.1878,3.8646 C71.0008,3.8646 73.5818,4.4116 76.5518,5.5836 C76.9838,5.7416 77.1018,5.8596 77.1018,6.2486 L76.8278,11.9556 L76.2038,11.9556 C76.1628,10.3546 75.8128,8.4386 74.5588,7.4226 C72.8378,6.0156 70.8478,5.2716 67.5628,5.2716 C60.0168,5.2716 56.6558,10.9786 56.6558,17.8206 C56.6558,24.7016 60.3318,31.6956 68.0308,31.6956 C72.3718,31.6956 75.2268,30.0556 76.7108,27.2806 C77.0248,26.6556 77.1398,26.5766 77.4908,26.6556 C77.8048,26.7326 77.8428,26.9276 77.5698,27.5536" id="Fill-48"></path>
                <path d="M107.0889,9.1025 L106.4259,9.1025 C106.1919,6.9125 106.0349,6.1295 102.5539,6.1295 L97.1209,6.1295 L97.1209,27.1635 C97.1209,31.5785 97.5909,32.0495 100.7559,32.0495 L100.7559,32.7525 L91.0609,32.7525 L91.0609,32.0845 C93.4859,32.0845 93.7999,30.9545 93.7999,27.9825 L93.7999,6.1295 L89.1459,6.1295 C85.3949,6.1295 84.5739,6.2475 84.4569,9.1025 L83.7529,9.1025 L83.5969,4.3315 C83.5969,4.3315 87.4259,4.5675 89.1099,4.5675 L102.0089,4.5675 C104.2369,4.5675 106.1119,4.5285 107.1689,4.3705 L107.2069,4.4115 L107.0889,9.1025 Z" id="Fill-50"></path>
                <path d="M126.2837,5.1747 C120.0707,5.1747 115.3767,9.2797 115.3767,17.4887 C115.3767,26.1677 120.6157,31.7537 127.3397,31.7537 C130.7007,31.7537 137.6607,29.8407 137.6607,18.9747 C137.6607,10.0247 132.1867,5.1747 126.2837,5.1747 M126.3247,33.2017 C116.1207,33.2017 111.8617,25.2287 111.8617,18.5067 C111.8617,12.4857 116.2387,3.9237 126.5567,3.9237 C134.9627,3.9237 141.2167,9.2007 141.2167,17.9187 C141.2167,26.2847 135.3537,33.2017 126.3247,33.2017" id="Fill-52"></path>
                <path d="M157.521,18.7182 C160.961,18.7182 163.113,16.1372 163.113,12.1902 C163.113,8.0082 160.571,5.6212 156.662,5.6212 C154.551,5.6212 153.886,5.6622 153.886,6.2862 L153.886,17.8592 C153.886,18.2472 153.925,18.3652 154.551,18.5212 C154.667,18.5622 156.544,18.7182 157.521,18.7182 Z M172.728,32.7512 L169.485,32.7512 C165.536,32.7512 164.128,30.0932 162.016,26.7302 C160.22,23.9162 158.38,19.9282 155.879,19.7722 L154.161,19.6552 C153.965,19.6552 153.886,19.6952 153.886,20.0102 L153.886,27.3562 C153.886,31.7742 154.667,32.0482 157.598,32.0482 L157.598,32.7512 L148.06,32.7512 L148.06,32.0862 C150.291,31.9702 150.796,31.6972 150.796,27.3952 L150.796,7.6942 C150.796,5.6622 149.586,5.1152 147.515,5.1152 L147.515,4.4092 L157.366,4.4092 C162.681,4.4092 166.277,6.7962 166.277,11.3692 C166.277,15.0812 163.228,18.2122 159.946,19.3042 C162.757,20.3602 165.067,26.7702 167.411,29.2312 C169.796,31.7742 170.733,32.0482 172.728,32.0482 L172.728,32.7512 Z" id="Fill-54"></path>
                <path d="M188.356,32.7519 L178.659,32.7519 L178.659,32.0869 L178.818,32.0869 C181.437,32.0869 181.478,30.3659 181.478,26.9249 L181.478,9.0249 C181.478,5.6229 181.045,5.1139 178.543,4.9579 L178.543,4.3309 L187.456,4.3309 L187.456,5.0369 C184.68,5.0369 184.642,5.7399 184.642,10.1959 L184.642,26.9249 C184.642,31.1099 184.875,32.0489 188.356,32.0489 L188.356,32.7519 Z" id="Fill-56"></path>
                <path d="M210.6284,20.0868 L210.6284,20.0458 L207.0754,9.8428 C206.9934,9.6098 206.9174,9.4158 206.7994,9.4158 C206.6824,9.4158 206.6054,9.5708 206.5254,9.8428 L203.2054,19.9288 C203.2054,19.9668 203.1644,20.0098 203.1644,20.0458 C203.1644,20.1258 203.2414,20.1668 203.3204,20.1668 L210.5134,20.1668 C210.5934,20.1668 210.6284,20.1668 210.6284,20.0868 Z M212.7024,32.0858 C214.1094,32.0098 214.6544,31.6968 214.6544,31.1498 C214.6544,30.7198 214.6544,30.5998 214.2664,29.5848 L211.2964,21.7678 C211.2194,21.6088 211.1384,21.5318 210.9424,21.5318 L202.9294,21.5318 C202.7344,21.5318 202.6174,21.6478 202.5404,21.8438 L200.5044,27.8658 C200.2724,28.5278 199.7624,30.0528 199.7624,30.8768 C199.7624,31.6968 200.5424,32.0098 202.0694,32.0478 L202.0694,32.7508 L193.8614,32.7508 L193.9794,32.0858 C196.4404,31.8918 197.1874,30.9938 198.0434,28.6488 L206.6434,5.2308 C207.1114,3.9828 207.1924,3.9028 207.4264,3.9028 C207.6204,3.9028 207.7744,4.0568 208.2474,5.2308 L217.1994,28.3338 C218.0574,30.5998 218.9984,32.0098 221.5354,32.0098 L221.6554,32.7508 L212.7024,32.7508 L212.7024,32.0858 Z" id="Fill-58"></path>
                <path d="M222.0249,8.2748 C223.0459,8.1808 223.5449,6.7568 223.6879,6.2098 C223.8299,5.6718 223.9429,5.2228 223.8159,4.8458 C223.6569,4.3658 223.2249,4.1958 222.7639,3.9368 C222.5239,3.8018 222.3129,3.6698 222.1209,3.4078 C221.8469,3.0338 221.7599,2.6928 221.8639,2.2108 C222.0119,1.4918 222.7739,1.1148 223.4939,1.2688 C224.7589,1.5378 225.3879,2.8848 225.2299,4.9088 C225.1699,5.6408 224.5649,8.5748 222.0319,8.7328 L222.0249,8.2748 Z" id="Fill-60"></path>
                <path d="M239.2222,33.1532 C236.9552,33.1532 234.8042,33.0382 232.4612,31.5912 L232.4612,26.1572 L233.1672,26.1572 C233.2852,30.3012 236.1342,31.7902 239.5752,31.7902 C243.4452,31.7902 245.4782,29.2862 245.4782,26.9402 C245.4782,23.9292 243.6782,22.1312 239.6162,19.5502 C234.2182,16.1512 232.8122,13.6112 232.8122,10.8332 C232.8122,6.8862 235.8632,3.8752 240.7482,3.8752 C243.4072,3.8752 245.2042,4.3462 246.9212,5.0492 L246.9212,9.5442 L246.2202,9.5442 C246.0672,8.7612 245.9472,7.9812 245.4782,7.1602 C245.2432,6.7712 244.1132,5.1672 240.3192,5.1672 C237.3852,5.1672 235.2752,7.0422 235.2752,9.7022 C235.2752,12.2042 237.1912,13.7672 241.6082,16.6962 C245.9472,19.5892 248.0592,22.4032 248.1382,25.3752 C248.1382,29.9512 244.5782,33.1532 239.2222,33.1532" id="Fill-62"></path>
                <path d="M271.6177,31.4267 L271.6177,25.6047 L272.3997,25.6047 C272.7527,30.4887 276.0327,31.9767 279.9427,31.9767 C284.4397,31.9767 286.8987,29.0457 286.8987,26.0727 C286.8987,22.6327 284.6737,20.5247 280.1017,17.6297 C273.9277,13.7207 272.4377,10.6717 272.4377,7.8177 C272.4377,3.2817 275.8817,-0.0003 281.7417,-0.0003 C284.9107,-0.0003 288.5047,1.2487 288.5047,1.2487 L288.5047,6.0977 L287.7217,6.0977 C287.5677,5.2747 287.4097,4.4147 286.8627,3.5167 C286.5487,3.0107 285.1817,1.1337 280.8057,1.1337 C277.3267,1.1337 274.7837,3.3637 274.7837,6.5277 C274.7837,9.5387 277.0917,11.3367 282.1337,14.6977 C287.0587,17.9827 289.4817,21.1467 289.4817,24.4687 C289.4817,32.7187 281.2377,33.2247 279.2037,33.2247 C274.2367,33.2247 271.6177,31.4267 271.6177,31.4267" id="Fill-64"></path>
                <path d="M315.812,27.7475 L315.733,32.7525 L296.855,32.7525 L296.855,32.0495 C298.807,32.0085 299.625,31.5385 299.625,27.9035 L299.625,7.6165 C299.625,5.8185 298.417,5.1535 296.305,5.1535 L296.305,4.4095 C297.871,4.5295 300.06,4.6055 302.093,4.6055 C303.654,4.6055 307.642,4.6055 310.143,4.5675 C310.926,4.5675 314.758,4.4505 314.758,4.4095 L314.676,9.2185 L313.973,9.2185 C313.819,6.2475 312.057,6.0125 308.619,6.0125 C308.619,6.0125 304.358,5.9765 303.145,5.9765 C302.756,5.9765 302.715,6.0925 302.715,6.3635 L302.715,16.5665 C302.715,16.7635 302.715,16.9585 302.949,16.9585 L309.634,16.9585 C310.885,16.9585 311.354,16.5305 311.591,15.3955 L312.331,15.3955 L312.331,21.3755 L311.591,21.3755 C311.512,20.0455 311.473,18.7945 309.361,18.5615 C308.228,18.4445 303.616,18.3655 302.989,18.3655 C302.794,18.3655 302.715,18.4855 302.715,18.6415 L302.715,29.4285 C302.794,31.3825 302.835,31.3825 307.68,31.3825 C309.246,31.3825 312.686,31.3465 313.504,30.9525 C314.64,30.4075 314.991,29.3895 315.109,27.7475 L315.812,27.7475 Z" id="Fill-66"></path>
                <path d="M346.0649,27.5517 C344.6219,30.8747 341.3349,33.1407 336.1749,33.1407 C327.2629,33.1407 321.7899,27.0047 321.7899,18.5607 C321.7899,10.6647 327.3429,3.8627 336.6819,3.8627 C339.4989,3.8627 342.0769,4.4097 345.0509,5.5847 C345.4789,5.7397 345.5959,5.8577 345.5959,6.2467 L345.3229,11.9537 L344.6959,11.9537 C344.6579,10.3527 344.3039,8.4387 343.0559,7.4207 C341.3349,6.0137 339.3389,5.2697 336.0579,5.2697 C328.5139,5.2697 325.1509,10.9767 325.1509,17.8187 C325.1509,24.6997 328.8219,31.6937 336.5259,31.6937 C340.8669,31.6937 343.7209,30.0537 345.2029,27.2787 C345.5189,26.6537 345.6369,26.5747 345.9849,26.6537 C346.3019,26.7337 346.3379,26.9277 346.0649,27.5517" id="Fill-68"></path>
                <path d="M362.0854,18.7182 C365.5254,18.7182 367.6774,16.1372 367.6774,12.1902 C367.6774,8.0082 365.1324,5.6212 361.2244,5.6212 C359.1104,5.6212 358.4484,5.6622 358.4484,6.2862 L358.4484,17.8592 C358.4484,18.2472 358.4864,18.3652 359.1104,18.5212 C359.2334,18.5622 361.1064,18.7182 362.0854,18.7182 Z M377.2924,32.7512 L374.0444,32.7512 C370.0974,32.7512 368.6894,30.0932 366.5774,26.7302 C364.7794,23.9162 362.9394,19.9282 360.4404,19.7722 L358.7244,19.6572 C358.5244,19.6572 358.4484,19.6952 358.4484,20.0102 L358.4484,27.3562 C358.4484,31.7742 359.2334,32.0482 362.1594,32.0482 L362.1594,32.7512 L352.6214,32.7512 L352.6214,32.0862 C354.8544,31.9702 355.3584,31.6972 355.3584,27.3952 L355.3584,7.6942 C355.3584,5.6622 354.1484,5.1152 352.0764,5.1152 L352.0764,4.4092 L361.9294,4.4092 C367.2444,4.4092 370.8414,6.7962 370.8414,11.3692 C370.8414,15.0832 367.7924,18.2122 364.5054,19.3042 C367.3244,20.3602 369.6294,26.7702 371.9754,29.2312 C374.3584,31.7742 375.2954,32.0482 377.2924,32.0482 L377.2924,32.7512 Z" id="Fill-70"></path>
                <path d="M400.6421,27.7475 L400.5651,32.7525 L381.6851,32.7525 L381.6851,32.0495 C383.6391,32.0085 384.4571,31.5385 384.4571,27.9065 L384.4571,7.6165 C384.4571,5.8185 383.2471,5.1535 381.1351,5.1535 L381.1351,4.4115 C382.6981,4.5295 384.8901,4.6055 386.9211,4.6055 C388.4841,4.6055 392.4721,4.6055 394.9731,4.5675 C395.7561,4.5675 399.5851,4.4505 399.5851,4.4115 L399.5081,9.2185 L398.8051,9.2185 C398.6491,6.2475 396.8891,6.0125 393.4491,6.0125 C393.4491,6.0125 389.1901,5.9765 387.9751,5.9765 C387.5881,5.9765 387.5501,6.0925 387.5501,6.3655 L387.5501,16.5665 C387.5501,16.7635 387.5501,16.9585 387.7811,16.9585 L394.4641,16.9585 C395.7151,16.9585 396.1831,16.5305 396.4211,15.3955 L397.1631,15.3955 L397.1631,21.3755 L396.4211,21.3755 C396.3421,20.0455 396.3031,18.7945 394.1931,18.5615 C393.0571,18.4445 388.4481,18.3655 387.8221,18.3655 C387.6241,18.3655 387.5501,18.4855 387.5501,18.6415 L387.5501,29.4285 C387.6241,31.3825 387.6651,31.3825 392.5121,31.3825 C394.0781,31.3825 397.5131,31.3465 398.3371,30.9525 C399.4671,30.4075 399.8231,29.3895 399.9381,27.7475 L400.6421,27.7475 Z" id="Fill-72"></path>
                <path d="M429.3237,9.1025 L428.6567,9.1025 C428.4247,6.9125 428.2727,6.1295 424.7887,6.1295 L419.3577,6.1295 L419.3577,27.1635 C419.3577,31.5785 419.8237,32.0495 422.9937,32.0495 L422.9937,32.7525 L413.2987,32.7525 L413.2987,32.0845 C415.7187,32.0845 416.0307,30.9525 416.0307,27.9825 L416.0307,6.1295 L411.3807,6.1295 C407.6277,6.1295 406.8067,6.2495 406.6917,9.1025 L405.9877,9.1025 L405.8277,4.3315 C405.8277,4.3315 409.6637,4.5675 411.3427,4.5675 L424.2437,4.5675 C426.4717,4.5675 428.3467,4.5285 429.4037,4.3725 L429.4417,4.4115 L429.3237,9.1025 Z" id="Fill-74"></path>
            </g>
        </g>
    </g>
</svg>
