<svg xmlns="http://www.w3.org/2000/svg" xmlns:xlink="http://www.w3.org/1999/xlink" width="439" height="98" viewBox="0 0 439 98">
    <defs>
        <path id="a" d="M.321.211h29.02V98H.32z"/>
        <path id="c" d="M0 .952h31.16V95.43H0z"/>
    </defs>
    <g fill="none" fill-rule="evenodd">
        <g transform="translate(124 -.211)">
            <mask id="b" fill="#fff">
                <use xlink:href="#a"/>
            </mask>
            <path fill="#000" d="M21.762 49.176c0-10.55.024-21.1-.025-31.65a22.11 22.11 0 0 0-.566-4.912c-.778-3.31-3.172-5.203-6.287-5.21-3.147-.008-5.53 1.834-6.363 5.126a18.582 18.582 0 0 0-.58 4.463c-.034 21.452-.048 42.903.02 64.354.006 1.867.394 3.807.995 5.58.899 2.645 3.217 4.063 5.92 4.058 2.67-.005 5.036-1.469 5.874-4.119.609-1.928.95-4.019.969-6.04.093-10.55.043-21.1.043-31.65zM16.048.211c1.277.238 2.578.385 3.825.73 4.912 1.358 7.372 4.99 8.469 9.646.559 2.377.94 4.858.948 7.293.072 20.851.058 41.702.02 62.554-.006 3.578-.556 7.087-2.021 10.415-1.905 4.332-5.301 6.573-9.893 7.015-1.886.181-3.845.208-5.71-.086C5.596 96.818 2.17 93.124 1 86.26a46.01 46.01 0 0 1-.655-7.639C.304 58.321.319 38.022.37 17.723c.009-3.527.59-6.986 2.036-10.259 1.856-4.2 5.132-6.404 9.618-6.958.54-.067 1.074-.195 1.61-.295h2.414z" mask="url(#b)"/>
        </g>
        <path fill="#000" d="M344.854 48.994c0 10.5-.045 21 .039 31.5.016 1.974.31 4.017.89 5.9.886 2.873 3.18 4.371 5.99 4.38 2.795.01 5.108-1.514 6-4.365.56-1.79.883-3.73.889-5.604.059-21.25.048-42.5.013-63.75a20.437 20.437 0 0 0-.556-4.614c-.785-3.324-3.15-5.229-6.257-5.249-3.212-.02-5.621 1.851-6.422 5.236-.378 1.595-.554 3.274-.562 4.916-.047 10.55-.024 21.1-.024 31.65zM352.984 0c1.277.238 2.579.385 3.827.73 4.912 1.357 7.37 4.99 8.468 9.646.559 2.377.939 4.857.948 7.292.07 20.851.059 41.703.02 62.555-.006 3.578-.556 7.086-2.02 10.415-1.906 4.332-5.303 6.573-9.894 7.014-1.886.181-3.845.21-5.708-.085-6.092-.96-9.518-4.654-10.688-11.52a46.106 46.106 0 0 1-.655-7.638c-.04-20.299-.027-40.598.025-60.897.009-3.528.59-6.987 2.036-10.259 1.856-4.2 5.132-6.404 9.617-6.959.54-.067 1.075-.195 1.612-.294h2.413zM279.693 0c.778.138 1.559.265 2.334.416 6.002 1.172 9.078 5.207 10.265 10.85.522 2.484.672 5.074.739 7.623.114 4.37.04 8.743.028 13.115-.006 2.26-.401 2.65-2.604 2.664-.906.006-1.81.017-2.714-.003-1.815-.04-2.301-.52-2.307-2.37-.015-5.126.05-10.253-.038-15.378-.03-1.686-.214-3.435-.715-5.035-1.02-3.258-3.352-4.802-6.526-4.676-2.897.115-5.17 2.08-5.995 5.242-.214.821-.408 1.677-.413 2.518-.03 5.271-.1 10.545.035 15.813.112 4.462 2.137 8.232 5.056 11.462 2.894 3.202 6.027 6.188 9.015 9.308 3.346 3.494 6.055 7.37 6.878 12.278.166.986.286 1.995.276 2.992-.065 6.87.603 13.773-.924 20.573-1.536 6.843-5.596 10.2-12.631 10.336-1.794.034-3.636-.06-5.383-.435-5.397-1.155-8.02-5.018-9.093-10.068-.54-2.538-.83-5.16-.925-7.756-.154-4.165-.066-8.34-.058-12.51.004-1.827.479-2.294 2.325-2.348.954-.027 1.91-.02 2.864-.002 1.932.037 2.4.494 2.407 2.41.012 4.472-.046 8.946.03 13.417.029 1.694.196 3.42.572 5.068.738 3.242 3.237 5.24 6.289 5.272 3.027.033 5.472-1.95 6.382-5.176.054-.194.152-.387.153-.58.039-6.314.303-12.639-.002-18.936-.15-3.09-2.28-5.638-4.324-7.944-3.066-3.457-6.28-6.783-9.35-10.236-4.922-5.536-7.72-11.88-7.375-19.459.227-4.963.037-9.952.424-14.899.182-2.33 1.017-4.716 2.028-6.854C268.25 2.81 271.633.876 275.83.294c.487-.067.966-.194 1.449-.294h2.413zM70.073 0c1.277.238 2.58.385 3.828.73 4.914 1.36 7.357 4.997 8.472 9.651a33.94 33.94 0 0 1 .935 6.845c.15 4.971.083 9.95.081 14.926 0 1.912-.377 2.293-2.269 2.375-.953.042-1.91.034-2.864.007-2.059-.058-2.46-.464-2.465-2.508-.009-4.976.042-9.952-.03-14.927-.022-1.593-.202-3.218-.577-4.764-.782-3.23-3.158-5.112-6.196-5.143-3.164-.032-5.586 1.777-6.419 5.057a20.218 20.218 0 0 0-.6 4.914c-.04 21.16-.05 42.32.014 63.48.006 1.973.34 4.018.934 5.898.873 2.757 3.197 4.227 5.951 4.233 2.735.007 5.087-1.492 5.953-4.23.58-1.836.871-3.823.925-5.753.13-4.57.036-9.146.045-13.72.004-1.949.451-2.416 2.367-2.459 1.155-.026 2.314-.034 3.467.03 1.01.054 1.773.521 1.74 1.662-.186 6.521-.345 13.043-.639 19.56-.059 1.317-.552 2.652-1.03 3.908-1.97 5.162-5.818 7.794-11.287 7.937-2.09.055-4.25-.013-6.275-.474-5.103-1.16-7.652-4.909-8.769-9.692-.577-2.475-.943-5.06-.952-7.598-.073-20.808-.059-41.616-.017-62.424.007-3.53.59-6.99 2.033-10.264C58.285 3.055 61.561.85 66.05.294 66.59.228 67.123.1 67.66 0h2.413zM383.306 47.3c2.788 0 5.499.162 8.18-.054 1.975-.159 3.445-1.458 4.027-3.387.458-1.517.832-3.126.854-4.7.095-6.93.064-13.864.04-20.796-.005-1.198-.137-2.407-.321-3.591-.461-2.963-2.058-4.909-4.828-5.21-2.609-.285-5.273-.061-7.952-.061V47.3zm11.653 6.931c1.652 6.023 3.232 11.82 4.831 17.613 1.962 7.102 3.952 14.197 5.908 21.3.704 2.554.295 3.075-2.324 3.067-4.705-.011-4.272.462-5.521-4.165-3.307-12.24-6.663-24.469-10.025-36.79h-4.613v1.836c0 12.063.002 24.124-.001 36.188 0 2.653-.281 2.918-2.923 2.936-4.981.035-4.697.223-4.695-4.636.009-28.9.004-57.8.006-86.7 0-.553-.159-1.202.075-1.633.314-.575.943-1.397 1.432-1.393 5.67.038 11.368-.091 17 .44 4.921.466 7.958 3.724 8.883 8.542.629 3.28.953 6.66 1.026 10.004.136 6.127.073 12.262-.093 18.39-.061 2.286-.459 4.604-1.024 6.825-1.048 4.11-3.514 7.044-7.942 8.176zM170.366 9.38v37.885c2.833 0 5.591.165 8.32-.056 1.918-.156 3.325-1.476 3.887-3.341.458-1.518.835-3.126.856-4.7.096-6.931.065-13.864.04-20.796-.004-1.198-.134-2.406-.319-3.591-.532-3.392-2.605-5.268-6.01-5.385-2.206-.077-4.417-.015-6.774-.015m11.69 44.952c1.102 4.037 2.186 8.04 3.29 12.036 2.455 8.89 4.921 17.777 7.38 26.666.12.435.24.873.311 1.317.178 1.11-.313 1.783-1.43 1.832a56.02 56.02 0 0 1-4.22.003c-1.34-.044-1.663-1.086-1.948-2.138-1.549-5.71-3.104-11.418-4.653-17.127-1.837-6.772-3.69-13.54-5.484-20.324-.289-1.091-.724-1.615-1.924-1.466-.937.117-1.9.024-3.1.024v1.82c0 12.113.002 24.226 0 36.339-.002 2.633-.277 2.883-2.959 2.902-4.96.036-4.662.207-4.66-4.672.01-28.9.004-57.8.004-86.7 0-2.907.185-3.135 3.05-3.088 4.87.08 9.752.02 14.602.387 5.258.397 8.646 3.386 9.71 8.58.69 3.368.978 6.857 1.06 10.3.14 6.028.142 12.068-.118 18.089-.123 2.866-.734 5.777-1.578 8.528-.917 2.995-3.026 5.155-6.122 6.168-.372.122-.723.31-1.21.524M229.473 16.72l-.355-.009-5.493 48.954h11.462l-5.614-48.945m6.604 56.093h-13.415c-.286 2.373-.585 4.743-.855 7.116-.532 4.691-1.041 9.384-1.573 14.074-.187 1.642-.79 2.18-2.443 2.206a66.73 66.73 0 0 1-3.318-.006c-1.503-.05-2.119-.736-1.926-2.209.69-5.276 1.411-10.548 2.121-15.822 1.466-10.895 2.929-21.79 4.397-32.686 1.47-10.895 2.945-21.789 4.416-32.684.409-3.035.852-6.066 1.199-9.108.172-1.506 1-2.105 2.399-2.12a206.74 206.74 0 0 1 4.524 0c1.349.017 2.105.637 2.295 2.056 1.166 8.757 2.377 17.51 3.568 26.264 1.26 9.252 2.516 18.505 3.77 27.758 1.463 10.795 2.92 21.59 4.383 32.384.175 1.293.404 2.58.542 3.877.173 1.615-.388 2.246-1.99 2.293-1.005.03-2.01.015-3.015.006-1.943-.019-2.474-.472-2.703-2.437-.453-3.89-.864-7.786-1.302-11.678-.343-3.039-.702-6.076-1.074-9.284M309.405 47.991c2.528 0 4.978.075 7.42-.02 2.462-.097 4.193-1.404 4.896-3.759.44-1.47.743-3.04.759-4.569.079-7.235.052-14.473.025-21.709-.004-1.098-.14-2.207-.33-3.29-.514-2.94-2.17-4.848-4.936-5.123-2.57-.256-5.183-.054-7.834-.054v38.524zm-.084 7.911v1.884c0 11.862.002 23.725-.001 35.586-.001 2.553-.296 2.837-2.865 2.841-.955.001-1.91.003-2.865-.01-1.214-.015-1.862-.618-1.876-1.853a121.21 121.21 0 0 1-.007-1.206V4.784c0-2.797.229-3.07 2.96-3.029 4.72.072 9.465-.074 14.15.37 6.226.59 9.409 3.755 10.57 9.921.409 2.16.678 4.38.699 6.575.067 7.236.062 14.475-.071 21.71-.04 2.137-.423 4.306-.943 6.387-1.347 5.401-4.898 8.284-10.68 8.752-2.945.238-5.906.288-9.071.432z"/>
        <g transform="translate(0 .789)">
            <mask id="d" fill="#fff">
                <use xlink:href="#c"/>
            </mask>
            <path fill="#000" d="M15.667 81.505c.437-4.277.877-8.553 1.311-12.83.966-9.54 1.931-19.08 2.893-28.62l2.85-28.32c.296-2.949.601-5.895.897-8.842.132-1.32.82-1.98 2.178-1.939 1.104.033 2.211-.017 3.316.012 1.66.044 2.197.611 2.014 2.242-.39 3.492-.832 6.978-1.255 10.465-1.073 8.82-2.15 17.636-3.22 26.455a55364.787 55364.787 0 0 0-3.822 31.54c-.848 7.024-1.698 14.05-2.522 21.08-.259 2.212-.713 2.668-2.93 2.676-1.358.004-2.715-.025-4.07.005-1.422.033-2.14-.696-2.305-2.037-.723-5.878-1.433-11.758-2.149-17.637C7.7 66.29 6.545 56.823 5.391 47.358l-3.5-28.696C1.276 13.63.638 8.602.063 3.565-.185 1.376.222.982 2.41.96c.854-.009 1.708-.009 2.562 0 1.946.021 2.36.346 2.58 2.327.36 3.243.65 6.495.972 9.742.984 9.892 1.972 19.783 2.952 29.676.94 9.491 1.867 18.984 2.805 28.476.34 3.436.692 6.871 1.04 10.307l.346.017" mask="url(#d)"/>
        </g>
        <path fill="#000" d="M99.351 9.356c-3.256 0-6.268.009-9.28-.003-1.934-.008-2.397-.466-2.444-2.387a76.731 76.731 0 0 1-.002-2.714c.023-2.032.46-2.496 2.468-2.5 6.734-.012 13.468-.005 20.202-.004 2.11 0 4.222.03 6.331-.007 1.468-.026 2.123.648 2.089 2.094-.028 1.156.024 2.313-.014 3.468-.052 1.57-.52 2.032-2.126 2.045-3.113.025-6.225.007-9.561.007v83.081c0 .453.009.905-.003 1.357-.056 1.976-.472 2.398-2.406 2.418-1.105.012-2.211-.002-3.316-.004-1.227-.002-1.854-.64-1.921-1.841-.028-.501-.016-1.005-.016-1.507l-.001-81.561V9.356zM427.024 9.356v2.042c0 27.086 0 54.172-.002 81.26 0 .602-.017 1.204-.04 1.806-.042 1.176-.711 1.721-1.835 1.74-1.306.02-2.613.008-3.92-.003-1.153-.01-1.761-.625-1.841-1.756-.038-.55-.025-1.104-.025-1.657V9.356h-3.32c-2.061 0-4.121.017-6.182-.006-1.656-.019-2.153-.5-2.215-2.154-.043-1.154-.02-2.312-.001-3.467.02-1.252.593-1.975 1.927-1.975 9.096.005 18.19.004 27.287.001 1.244 0 1.853.614 1.853 1.85 0 1.255-.008 2.512.005 3.768.015 1.393-.694 1.993-2.05 1.985-2.663-.016-5.328-.003-7.991-.002h-1.65zM206.773 49.005V93.18c0 2.793-.238 3.017-2.975 3.037-4.957.037-4.646.196-4.645-4.687.01-28.897.005-57.794.005-86.691 0-2.897.19-3.088 3.056-3.091.854-.001 1.71.022 2.563 0 1.4-.034 2.005.656 1.996 2.027-.019 2.713 0 5.427 0 8.14v37.09M45.11 49.164l-.001 44.024c0 2.792-.231 3.009-2.982 3.029-4.956.037-4.638.188-4.636-4.695.008-28.897.004-57.794.004-86.691 0-2.882.197-3.08 3.064-3.084.704 0 1.407-.007 2.11.002 2.088.025 2.435.357 2.437 2.486.009 10.252.004 20.505.004 30.757v14.172z"/>
    </g>
</svg>
