<svg xmlns="http://www.w3.org/2000/svg" xmlns:xlink="http://www.w3.org/1999/xlink" width="83" height="54" viewBox="0 0 83 54">
    <defs>
        <path id="a" d="M77.761 1.19c5.452-2.38 5.657-.918 4.944 1.983-2.646 10.77-9.404 44.674-10.44 49.894-.3 1.51-1.974.87-2.41.28-1.94-2.628-4.127-2.672-3.881-4.42 1.218-8.703 5.595-30.54 6.736-35.685-5.822 11.69-11.857 26.303-14.955 34.59-.658 1.758-1.854 1.628-2.6.34-1.046-1.807-3.082-2.73-3.416-4.868-1.066-6.795 1.215-19.744 1.533-27.938-3.168 8.95-8.49 26.328-10.818 34.178-.964 3.247-4.162 2.717-3.312-.449C42.683 35.919 50.31 12.62 53.612 4.239c.776-1.967 2.809-1.9 4.499-2.717C61.149.056 62.657.25 62.69 1.733c.044 1.93-.249 4.487-.456 6.346-1.127 10.075-3.016 18.312-3.16 28.66 4.97-12.602 9.137-21.359 14.498-32.148 1.706-3.431 2.792-2.793 4.19-3.402zm-43.7 24.697c-1.306 1.912-3.433 2.42-4.615 2.673-2.848 7.42-5.902 15.699-8.865 24.52-.433 1.286-1.692 1.002-2.071.48-1.394-1.914-2.42-1.976-3.5-3.525-.13-.252-.385-.592-.231-1.205.793-3.194 2.902-9.755 6.107-18.393-4.039.861-8.41 1.787-10.212 2.2A776.678 776.678 0 0 0 4.397 49.5c-1.243 3.461-4.472 2.792-3.34-.478 1.806-5.214 3.8-10.628 5.798-15.877-2.236-.235-2.993-1.79-4.244-3.089-.483-.502-1.537-.432-2.052-1.137-.928-1.263-.834-1.825 1.308-2.432a220.19 220.19 0 0 1 8.426-2.214c3.619-9.192 6.889-17.076 8.631-21.283 1.345-3.243 4.81-2.94 3.493.257a1582.98 1582.98 0 0 0-8.121 20.1 200.686 200.686 0 0 1 10.063-1.964c2.264-5.721 4.873-11.999 7.787-18.587.192-.427.746-1.034 1.322-1.132 1.822-.307 4.78-1.882 5.803-1.639.957.227.88 1.34.296 2.86-1.728 4.48-4.124 10.368-6.864 17.31a77.258 77.258 0 0 1 2.655-.259c2.475-.3 2.933.918 2.24 2.212-.558 1.034-1.225.345-3.537 3.74zm2.797 13.572c1.549-1.245 3.029-.01 1.497 2.097-.326.449-.704.932-1.11 1.41.191.504.368.963.503 1.287.793 1.883-1.286 2.355-1.958.797-.058-.133-.124-.303-.184-.452-1.265 1.041-2.723 1.71-4.289 1.259-2.571-.74-3.224-4.1-.825-6.685a49.323 49.323 0 0 1 2.297-2.33 46.911 46.911 0 0 1-.43-1.344c-.312-1.046-.592-2.267.539-3.51 2.118-2.33 7.035-.263 4.547 3.327-.599.863-1.3 1.678-2.03 2.506.243.72.503 1.47.767 2.22.232-.205.458-.407.676-.582zm-1.63-4.938c1.567-1.64-1.529-2.326-.816.18.038.133.098.322.146.489.218-.21.438-.425.67-.67zm-1.68 7.63c.295-.167.592-.375.884-.598-.223-.605-.44-1.215-.652-1.818-.221.26-.444.496-.656.767-1.266 1.609-.516 2.182.424 1.649z"/>
    </defs>
    <g fill="none" fill-rule="evenodd">
        <mask id="b" fill="#fff">
            <use xlink:href="#a"/>
        </mask>
        <g fill="#CD2026" mask="url(#b)">
            <path d="M-10-10H93v74H-10z"/>
        </g>
    </g>
</svg>
