<svg width="24" height="34" xmlns="http://www.w3.org/2000/svg" xmlns:xlink="http://www.w3.org/1999/xlink">
    <defs>
        <path id="a" d="M0 0h20v3.81H0z"/>
    </defs>
    <g fill="none" fill-rule="evenodd">
        <path d="M12 .5c3.18 0 6.055 1.275 8.136 3.338A11.315 11.315 0 0 1 23.5 11.9c0 7.388-8.374 17.705-11.053 20.83C8.947 29.688.5 19.314.5 11.9c0-3.15 1.285-6 3.364-8.062A11.515 11.515 0 0 1 12 .5z" stroke="#0E1111" fill="#FFF" fill-rule="nonzero"/>
        <g transform="translate(2 11)">
            <mask id="b" fill="#fff">
                <use xlink:href="#a"/>
            </mask>
            <path d="M10.29.01c.042-.015.101-.019.125.026.04.075.028.161.03.242.002.168-.006.337.004.505 0 .068.047.139.125.138.245.011.491-.006.736.008.1.007.115.121.111.197 0 .067-.016.163-.102.17-.24.01-.48-.001-.719.005-.065 0-.134.037-.148.102-.012.06-.007.121-.007.182v1.242c.003.16.025.34.153.458.12.108.3.12.455.098.092-.01.175-.054.266-.065.062-.007.101.053.103.105.01.094.02.223-.086.271-.27.122-.598.16-.88.05a.625.625 0 0 1-.356-.373c-.08-.219-.09-.453-.099-.682-.005-.407 0-.813-.002-1.22 0-.053-.014-.114-.064-.145-.109-.06-.251.016-.354-.056a.235.235 0 0 1 0-.307c.1-.077.24-.004.349-.057a.137.137 0 0 0 .068-.12c.007-.184-.003-.368.01-.55.023-.13.17-.18.282-.224M15.384.01c.143-.019.288-.005.432-.009.097.002.201-.01.293.024.067.024.082.09.081.145v3.466c0 .054-.002.125-.074.149a.581.581 0 0 1-.337 0c-.073-.024-.089-.093-.086-.15V.532c.004-.066-.023-.143-.103-.174-.093-.029-.211.009-.292-.051-.1-.085-.079-.277.086-.296M7.468.965c.292-.037.596.006.863.12.075.03.119.112.086.183-.03.072-.078.172-.179.168-.127-.016-.24-.08-.367-.101-.201-.053-.448-.034-.596.115-.148.162-.094.424.082.551.303.225.726.273 1.005.53.264.237.269.644.069.916-.152.206-.415.324-.68.354-.308.032-.617-.031-.906-.126-.07-.026-.155-.06-.176-.135-.013-.084.033-.17.095-.23.052-.047.13-.03.189-.005.233.098.492.17.75.137.201-.026.37-.184.387-.37.016-.125-.058-.244-.162-.32-.226-.168-.516-.235-.76-.377-.188-.106-.362-.258-.423-.46-.088-.294.05-.631.324-.806.118-.076.257-.123.4-.144M4.372 1.569a.575.575 0 0 1 .364-.225.547.547 0 0 1 .492.106c.11.096.143.27.098.412-.018.057-.068.101-.125.098-.276.003-.552.004-.827.005-.049.003-.117-.015-.12-.08-.009-.119.055-.225.118-.316zm1.222 1.62c-.095.042-.178.11-.273.15-.216.096-.467.127-.69.04-.172-.066-.3-.228-.363-.41a1.414 1.414 0 0 1-.077-.525c.006-.076.08-.107.141-.103.372-.002.743 0 1.115-.001a.18.18 0 0 0 .176-.105c.114-.257.122-.568.02-.83a.679.679 0 0 0-.346-.37C5.082.936 4.838.94 4.61.978c-.168.032-.314.137-.442.255a.917.917 0 0 0-.209.31c-.148.35-.169.746-.136 1.125.025.29.12.578.289.806a.913.913 0 0 0 .584.324c.28.044.563-.032.816-.16.056-.03.12-.06.153-.123a.55.55 0 0 0 .013-.26c-.004-.041-.044-.088-.084-.065zM12.91 1.632a.577.577 0 0 1 .387-.29.576.576 0 0 1 .496.103c.113.094.15.267.107.411-.017.055-.062.104-.118.103-.275.005-.55.004-.826.006-.052.003-.127-.01-.133-.08a.472.472 0 0 1 .087-.253zm1.284 1.55c-.068.015-.123.063-.184.095a.995.995 0 0 1-.678.14.595.595 0 0 1-.376-.228c-.133-.177-.182-.409-.195-.632-.002-.06-.012-.131.03-.179.039-.039.096-.036.145-.038h1.072c.072.005.149-.026.184-.098.118-.26.125-.578.019-.844a.681.681 0 0 0-.375-.377c-.21-.085-.444-.08-.663-.042-.186.04-.347.163-.482.302-.195.23-.27.547-.3.85-.03.414-.001.859.21 1.218.111.21.308.354.52.415.353.108.735.013 1.05-.177.089-.05.09-.172.088-.267-.004-.05-.01-.12-.065-.137zM.04 1.017A.373.373 0 0 1 .28.954c.063.012.078.097.09.158.102.548.202 1.097.3 1.646.015.068.019.144.055.203.058.03.079-.065.096-.111.148-.571.29-1.144.435-1.716.015-.06.04-.125.096-.145a.271.271 0 0 1 .203.004c.056.027.072.102.086.163.115.527.22 1.057.333 1.585.019.076.03.162.084.218.042-.03.065-.082.075-.137.12-.57.244-1.14.37-1.709.014-.068.045-.15.114-.158a.299.299 0 0 1 .21.073c.048.052.028.133.013.196-.205.815-.404 1.631-.612 2.444-.031.151-.207.179-.303.095-.046-.048-.06-.12-.076-.186-.12-.53-.24-1.062-.358-1.593-.011-.056-.031-.113-.074-.147-.051.066-.073.152-.096.234-.139.516-.27 1.034-.412 1.548-.02.062-.036.14-.095.166a.247.247 0 0 1-.19 0C.57 3.76.552 3.692.537 3.632L.011 1.2c-.012-.061-.026-.144.028-.183M18.007.967c.188-.036.404.005.538.183.062.073.087.176.133.261.012.03.042.036.067.027.041-.035.065-.092.096-.14.131-.212.345-.345.564-.345a.492.492 0 0 1 .423.206c.127.17.17.409.172.633v1.823c0 .066-.001.158-.065.18-.061.02-.13.02-.187-.014-.048-.031-.056-.105-.055-.165V2.143c-.002-.186.014-.379-.042-.556-.033-.119-.106-.228-.208-.264-.149-.055-.313.016-.423.142-.144.166-.222.4-.264.63-.048.261-.033.53-.035.795v.773c-.001.055-.017.126-.069.137a.303.303 0 0 1-.17-.005c-.057-.028-.062-.114-.062-.178V1.933c-.004-.171-.022-.356-.112-.494a.303.303 0 0 0-.35-.117c-.157.05-.277.199-.356.364-.118.25-.16.545-.157.831 0 .367.001.733.003 1.1 0 .057 0 .132-.048.163a.213.213 0 0 1-.2.008c-.048-.025-.058-.093-.057-.15V1.185c-.003-.062.011-.14.067-.161.066-.024.15-.03.205.03.056.09 0 .218.049.312.05.021.082-.048.114-.083.109-.158.257-.287.429-.315" fill="#000" mask="url(#b)"/>
        </g>
    </g>
</svg>
