<svg xmlns="http://www.w3.org/2000/svg" xmlns:xlink="http://www.w3.org/1999/xlink" width="19.5" height="19.5" viewBox="0 0 48 48">
    <defs>
        <path id="a" d="M41.22 22.104c.498.507.778 1.19.78 1.9a2.632 2.632 0 0 1-.8 1.921L25.9 41.212a2.699 2.699 0 0 1-3.81 0L6.79 25.905a2.692 2.692 0 0 1 0-3.811L22.1 6.787a2.699 2.699 0 0 1 3.81 0l15.31 15.317zM26.71 16.29l4.99 5.012a1 1 0 0 1 0 1.411l-5 5.002a1 1 0 1 1-1.41-1.41l3.3-3.302H21v8.004a1 1 0 1 1-2 0v-9.004a1 1 0 0 1 1-1h8.58l-3.28-3.302a1 1 0 0 1 1.41-1.41zm13.09 8.204a.66.66 0 0 0 .2-.49.73.73 0 0 0-.19-.5L24.51 8.197a.7.7 0 0 0-1 0L8.21 23.494a.69.69 0 0 0 0 1l15.28 15.317a.7.7 0 0 0 1 0L39.8 24.495z"/>
    </defs>
    <g fill="none" fill-rule="evenodd">
        <path d="M0 0h48v48H0z"/>
        <path fill="#FFF" d="M0 0h48v48H0z"/>
        <mask id="b" fill="#fff">
            <use xlink:href="#a"/>
        </mask>
        <use fill="#000" fill-rule="nonzero" xlink:href="#a"/>
        <g fill="#000" mask="url(#b)">
            <path d="M0 0h48v48H0z"/>
        </g>
        <g fill="#FFF" fill-opacity=".25" mask="url(#b)">
            <path d="M0 0h48v48H0z"/>
        </g>
    </g>
</svg>
