<svg xmlns="http://www.w3.org/2000/svg" width="15" height="15" viewBox="0 0 15 15">
    <path fill="#CC071E" fill-rule="nonzero" d="M7.5 0a7.5 7.5 0 1 0 0 15 7.5 7.5 0 0 0 0-15zm5.921 4.374H10.24A13.062 13.062 0 0 0 8.842.924a6.73 6.73 0 0 1 4.58 3.45zM7.84.789a12.312 12.312 0 0 1 1.58 3.553H5.577c.334-1.26.867-2.46 1.579-3.553h.682zM9.841 7.5c-.003.785-.08 1.567-.233 2.337H5.396a11.842 11.842 0 0 1 0-4.678h4.208c.153.771.23 1.555.233 2.341h.004zM6.158.924A13.062 13.062 0 0 0 4.76 4.37H1.579A6.73 6.73 0 0 1 6.158.924zM1.22 5.164h3.375a12.537 12.537 0 0 0 0 4.677H1.22a6.592 6.592 0 0 1 0-4.678zm.359 5.462h3.193c.3 1.21.77 2.37 1.398 3.446a6.73 6.73 0 0 1-4.591-3.446zm5.593 3.553a12.312 12.312 0 0 1-1.579-3.553h3.845A12.312 12.312 0 0 1 7.86 14.18h-.34c-.114 0-.244.032-.358.032l.011-.032zm1.682-.118a13.062 13.062 0 0 0 1.397-3.447h3.17a6.73 6.73 0 0 1-4.579 3.462l.012-.015zm4.926-4.224h-3.37c.142-.771.214-1.553.216-2.337a13.026 13.026 0 0 0-.22-2.337h3.374a6.592 6.592 0 0 1 0 4.678v-.004z"/>
</svg>
