<svg width="23" height="23" viewBox="0 0 23 23" xmlns="http://www.w3.org/2000/svg" xmlns:xlink="http://www.w3.org/1999/xlink"><title>90558055-7257-4801-A253-BB01EFA7653C</title><defs><path id="a" d="M23 23V0H0v23h23z"/></defs><g fill="none" fill-rule="evenodd"><mask id="b" fill="#fff"><use xlink:href="#a"/></mask><path d="M1.533 8.975c.017-4.09 3.353-7.39 7.451-7.373 4.098.017 7.406 3.346 7.389 7.435-.018 4.065-3.316 7.356-7.389 7.374-4.102.012-7.438-3.296-7.451-7.39v-.046zm21.286 12.728l-6.97-6.949A8.954 8.954 0 0 0 14.785 2.12c-3.79-3.197-9.46-2.722-12.663 1.06a8.952 8.952 0 0 0 1.063 12.636 9 9 0 0 0 11.551.041l6.97 6.956a.785.785 0 0 0 1.105-.085.78.78 0 0 0 0-1.016l.007-.008z" fill="#003971" mask="url(#b)"/></g></svg>