<svg xmlns="http://www.w3.org/2000/svg" width="17" height="17" viewBox="0 0 17 17">
    <path fill="#CC071E" fill-rule="nonzero" d="M16.875 14.602l-1.119-8.95a1.343 1.343 0 0 0-1.342-1.177h-2.779V3.133a3.133 3.133 0 0 0-6.265 0v1.342H2.587a1.343 1.343 0 0 0-1.343 1.172l-1.132 8.95a1.343 1.343 0 0 0 1.342 1.513h14.088a1.342 1.342 0 0 0 1.342-1.508h-.009zM6.265 3.132a2.238 2.238 0 1 1 4.475 0v1.343H6.265V3.133zm9.612 11.93a.448.448 0 0 1-.335.153H1.459a.447.447 0 0 1-.448-.506l1.133-8.95a.448.448 0 0 1 .447-.389H5.37v.895h-.447a.448.448 0 1 0 0 .895h1.79a.448.448 0 1 0 0-.895h-.448V5.37h4.475v.895h-.447a.448.448 0 0 0 0 .895h1.79a.448.448 0 0 0 0-.895h-.448V5.37h2.792a.448.448 0 0 1 .448.394l1.119 8.95a.448.448 0 0 1-.117.349z"/>
</svg>
