<svg xmlns="http://www.w3.org/2000/svg" xmlns:xlink="http://www.w3.org/1999/xlink" width="34" height="34" viewBox="0 0 34 34">
    <defs>
        <path id="a" d="M26.766 26.83H7.226c-.47 0-.844-.427-.816-.932l.77-13.29h3.695a13.38 13.38 0 0 0-.16 1.116 1.42 1.42 0 0 0-.824 1.302c0 .782.608 1.417 1.358 1.417.75 0 1.358-.635 1.358-1.417 0-.502-.251-.94-.63-1.192.042-.422.106-.83.185-1.227h9.72c.08.393.148.791.188 1.2a1.423 1.423 0 0 0-.678 1.22c0 .781.609 1.416 1.36 1.416.75 0 1.357-.635 1.357-1.417a1.42 1.42 0 0 0-.773-1.274 13.37 13.37 0 0 0-.158-1.145h3.643l.769 13.283c.028.51-.349.94-.824.94zM17.022 6.992c1.32 0 2.577.831 3.523 2.259h-7.058c.917-1.395 2.162-2.26 3.535-2.26zm11.114 4.468L26.61 9.25h-4.575c-1.201-2.25-3.034-3.584-5.014-3.584-2.03 0-3.838 1.404-5.005 3.584H7.474l-1.609 2.12-.903 15.087c-.061 1.016.713 1.875 1.689 1.875h20.692c.98 0 1.756-.862 1.695-1.882l-.902-14.991z"/>
    </defs>
    <g fill="none" fill-rule="evenodd">
        <path d="M0 0h34v34H0z"/>
        <path fill="transparent" d="M34 34H0V0h34z"/>
        <mask id="b" fill="#fff">
            <use xlink:href="#a"/>
        </mask>
        <use fill="#005699" xlink:href="#a"/>
        <g fill="#005699" mask="url(#b)">
            <path d="M0 0h34v34H0z"/>
        </g>
    </g>
</svg>
