<svg xmlns="http://www.w3.org/2000/svg" xmlns:xlink="http://www.w3.org/1999/xlink" width="19" height="19" viewBox="0 0 19 19">
    <defs>
        <path id="a" d="M20.744 16.962a8.726 8.726 0 0 1-7.802 4.825 8.611 8.611 0 0 1-3.7-.824l-5.278 1.76a.542.542 0 0 1-.685-.686l1.76-5.279a8.61 8.61 0 0 1-.825-3.698 8.726 8.726 0 0 1 4.823-7.802 8.61 8.61 0 0 1 3.904-.925l.511.001c4.432.245 7.97 3.783 8.216 8.245v.48a8.609 8.609 0 0 1-.924 3.903zM9.11 19.865a.542.542 0 0 1 .416.03 7.53 7.53 0 0 0 3.415.809 7.644 7.644 0 0 0 6.835-4.229 7.528 7.528 0 0 0 .808-3.413l.001-.453c-.214-3.88-3.312-6.98-7.163-7.192h-.483a7.53 7.53 0 0 0-3.415.81 7.644 7.644 0 0 0-4.227 6.835 7.528 7.528 0 0 0 .809 3.413.542.542 0 0 1 .03.416L4.65 21.35l4.461-1.486zm3.947-9.827a2.818 2.818 0 0 1 3.993 0 2.833 2.833 0 0 1 0 4L13 18.102l-4.048-4.062a2.835 2.835 0 0 1 0-4.001 2.817 2.817 0 0 1 3.993 0l.056.056.056-.056zm2.786 3.677l.44-.441a1.75 1.75 0 0 0-1.23-2.982c-.46 0-.903.183-1.23.51l-.822.827-.823-.826a1.734 1.734 0 0 0-2.459 0 1.752 1.752 0 0 0 0 2.471l3.282 3.292 2.842-2.851z"/>
    </defs>
    <g fill="none" fill-rule="evenodd" transform="translate(-3 -4)">
        <path d="M0 0h26v26H0z"/>
        <mask id="b" fill="#fff">
            <use xlink:href="#a"/>
        </mask>
        <use fill="#0ABB76" fill-rule="nonzero" xlink:href="#a"/>
        <g fill="#AC8E54" mask="url(#b)">
            <path d="M0 0h26v26H0z"/>
        </g>
    </g>
</svg>
