<svg xmlns="http://www.w3.org/2000/svg" xmlns:xlink="http://www.w3.org/1999/xlink" width="18" height="18" viewBox="0 0 18 18">
    <defs>
        <path id="a" d="M19.442 10.02a2.214 2.214 0 0 1 1.685.746c.423.48.612 1.118.515 1.747l-1.138 7.312a2.188 2.188 0 0 1-2.194 1.842H9.007a.546.546 0 0 1-.55-.542v-8.938c0-.075.016-.15.048-.22l3.299-7.312a.55.55 0 0 1 .502-.322c1.67 0 3.024 1.334 3.024 2.98v2.708h4.112zm-1.125 10.563a1.095 1.095 0 0 0 1.1-.921l1.138-7.312a1.072 1.072 0 0 0-.258-.874 1.11 1.11 0 0 0-.848-.372H14.78a.546.546 0 0 1-.55-.542v-3.25c0-.931-.681-1.706-1.58-1.865l-3.093 6.855v8.281h8.76zm-9.86 0V12.73H6.533c-.608 0-1.1.485-1.1 1.083V19.5c0 .598.492 1.083 1.1 1.083h1.924zm.55 1.084H6.533c-1.215 0-2.2-.97-2.2-2.167v-5.688c0-1.196.985-2.166 2.2-2.166h2.474c.304 0 .55.242.55.541v8.938c0 .299-.246.542-.55.542z"/>
    </defs>
    <g fill="none" fill-rule="evenodd" transform="translate(-4 -4)">
        <path d="M0 0h26v26H0z"/>
        <mask id="b" fill="#fff">
            <use xlink:href="#a"/>
        </mask>
        <use fill="#ED088C" fill-rule="nonzero" xlink:href="#a"/>
        <g fill="#ED088C" mask="url(#b)">
            <path d="M0 0h26v26H0z"/>
        </g>
    </g>
</svg>
