<svg xmlns="http://www.w3.org/2000/svg" xmlns:xlink="http://www.w3.org/1999/xlink" width="16" height="18" viewBox="0 0 16 18">
    <defs>
        <path id="a" d="M12.458 16.408a1.354 1.354 0 1 1 1.084 0v2.009a.542.542 0 0 1-1.084 0v-2.009zm-4.333-5.575V9.088c0-2.63 2.186-4.755 4.875-4.755 1.818 0 3.46.98 4.303 2.518a.542.542 0 1 1-.95.52C15.7 6.18 14.42 5.417 13 5.417c-2.097 0-3.792 1.647-3.792 3.671v1.745h9.371c1.107 0 2.004.898 2.004 2.005v6.824a2.004 2.004 0 0 1-2.004 2.005H7.421a2.004 2.004 0 0 1-2.004-2.005v-6.824c0-1.107.897-2.005 2.004-2.005h.704zm-.704 1.084a.92.92 0 0 0-.921.92v6.825c0 .51.412.921.92.921h11.16a.92.92 0 0 0 .92-.92v-6.825a.92.92 0 0 0-.92-.921H7.42z"/>
    </defs>
    <g fill="none" fill-rule="evenodd" transform="translate(-5 -4)">
        <path d="M0 0h26v26H0z"/>
        <mask id="b" fill="#fff">
            <use xlink:href="#a"/>
        </mask>
        <use fill="#0ABB76" fill-rule="nonzero" opacity=".487" xlink:href="#a"/>
        <g fill="#AC8E54" mask="url(#b)">
            <path d="M0 0h26v26H0z"/>
        </g>
    </g>
</svg>
