<svg xmlns="http://www.w3.org/2000/svg" xmlns:xlink="http://www.w3.org/1999/xlink" width="20" height="18" viewBox="0 0 20 18">
    <defs>
        <path id="a" d="M19.872 6.758c-.802-.859-1.89-1.341-3.024-1.341-1.134 0-2.222.482-3.024 1.34L13 7.64l-.824-.881c-1.67-1.788-4.378-1.788-6.048 0-1.67 1.787-1.67 4.684 0 6.472L13 20.583l6.872-7.353a4.743 4.743 0 0 0 1.253-3.236c0-1.214-.45-2.378-1.253-3.236zm-6.84-.74c1.005-1.076 2.378-1.685 3.816-1.685 1.437 0 2.81.61 3.816 1.685a5.826 5.826 0 0 1 1.544 3.976 5.826 5.826 0 0 1-1.545 3.975l-6.872 7.354a1.083 1.083 0 0 1-1.583 0l-6.872-7.354c-2.06-2.203-2.06-5.748 0-7.951 2.098-2.246 5.533-2.246 7.631 0h.065z"/>
    </defs>
    <g fill="none" fill-rule="evenodd" transform="translate(-3 -4)">
        <path d="M0 0h26v26H0z"/>
        <mask id="b" fill="#fff">
            <use xlink:href="#a"/>
        </mask>
        <use fill="#000" fill-rule="nonzero" xlink:href="#a"/>
        <g fill="#ED088C" mask="url(#b)">
            <path d="M0 0h26v26H0z"/>
        </g>
    </g>
</svg>
