<svg width="24" height="34" xmlns="http://www.w3.org/2000/svg" xmlns:xlink="http://www.w3.org/1999/xlink">
    <defs>
        <path id="a" d="M0 0h2.824v3.791H0z"/>
        <path id="c" d="M0 0h1.657v3.132H0z"/>
    </defs>
    <g fill="none" fill-rule="evenodd">
        <path d="M.03.542h23.94v32.916H.03z"/>
        <path d="M22.916 16.968c-2.234 4.536-6.685 10.835-10.426 14.953l-.49.54-.49-.539C7.77 27.804 3.318 21.504 1.084 16.968A10.25 10.25 0 0 1 .03 12.4C.03 6.12 5.532.541 12 .541c6.467 0 11.97 5.579 11.97 11.86 0 1.61-.355 3.147-1.054 4.567z" fill="#FFF" fill-rule="nonzero"/>
        <path d="M12 1.14c6.601 0 11.97 5.263 11.97 11.734 0 6.19-3.294 9.128-6.201 11.718-2.593 2.305-4.83 4.298-4.83 8.268h-1.89c0-3.97-2.234-5.963-4.822-8.268l-.282-.252C3.116 21.805.03 18.86.03 12.874.03 6.403 5.4 1.14 12 1.14z" fill="#005699" fill-rule="nonzero"/>
        <path d="M11.025 17.667c-.808 0-1.208.618-1.208 1.248s.4 1.249 1.207 1.249c.81 0 1.209-.62 1.209-1.249 0-.63-.4-1.248-1.21-1.248m0 2.84c-.978 0-1.553-.748-1.553-1.592 0-.844.574-1.592 1.554-1.592.981 0 1.556.748 1.556 1.592 0 .844-.575 1.592-1.556 1.592m6.955-2.84c-.643 0-.813.266-.813.516 0 .267.176.387.487.43l.847.125c.505.074.882.28.882.847 0 .852-.891.922-1.325.922-.69 0-1.31-.219-1.357-1.11h.345c.02.19.036.367.174.512.133.138.389.255.9.255.695 0 .916-.222.916-.579 0-.286-.186-.42-.486-.465l-.936-.135c-.329-.045-.794-.221-.794-.786 0-.365.242-.876 1.17-.876.74 0 1.238.236 1.293 1.054h-.347c-.047-.624-.44-.71-.956-.71m-5.553-3.803c-.755 0-1.128.576-1.128 1.164s.373 1.165 1.128 1.165c.755 0 1.127-.577 1.127-1.165 0-.588-.372-1.165-1.127-1.165m0 2.66c-.92 0-1.46-.703-1.46-1.495 0-.792.54-1.494 1.46-1.494.92 0 1.46.702 1.46 1.494s-.54 1.494-1.46 1.494" fill="#FFF" fill-rule="nonzero"/>
        <g transform="translate(16.674 13.618)">
            <mask id="b" fill="#fff">
                <use xlink:href="#a"/>
            </mask>
            <path d="m.374 0 1.083 2.354L2.451 0h.373L1.417 3.26c-.13.3-.272.531-.692.531H.36v-.33h.321c.257 0 .305-.042.491-.452l.114-.249L0 0h.375z" fill="#FFF" fill-rule="nonzero" mask="url(#b)"/>
        </g>
        <path d="M14.328 15.017c0 .744.438 1.176 1.025 1.176.893 0 1.113-.678 1.113-1.139 0-.906-.596-1.19-1.083-1.19-.55 0-1.055.37-1.055 1.153zm2.109.986c-.177.276-.52.52-1.06.52-.909 0-1.38-.707-1.38-1.5 0-.895.594-1.49 1.38-1.49.532 0 .872.265 1.06.534v-1.515h.332v3.885h-.332v-.434z" fill="#FFF" fill-rule="nonzero"/>
        <path d="M14.835 19.056v1.457h-.348v-4.324l.348.107v2.25l1.658-1.182h.562L15.077 18.8l2.218 1.694h-.66l-1.8-1.437zm-7.6-2.2-1.187 3.637h-.332l-1.278-4.218h.384L5.89 19.83l1.154-3.555h.378l1.154 3.555 1.068-3.555h.385l-1.267 4.218h-.34l-1.189-3.637z" fill="#FFF" fill-rule="nonzero"/>
        <g transform="translate(12.738 17.38)">
            <mask id="d" fill="#fff">
                <use xlink:href="#c"/>
            </mask>
            <path d="M.348.595C.565.202.944 0 1.405 0a.78.78 0 0 1 .252.047v.39a.673.673 0 0 0-.33-.06C.673.378.347.912.347 1.474v1.658H.002L0 .032h.348v.563z" fill="#FFF" fill-rule="nonzero" mask="url(#d)"/>
        </g>
        <path d="M7.318 9.449c.275 0 .554-.03.808-.151.316-.151.597-.454.597-1.058 0-.76-.371-1.073-.986-1.14a4.323 4.323 0 0 0-.473-.019H4.882V9.45h2.436zm.031 2.903c.769 0 1.556-.281 1.556-1.333 0-.844-.472-1.159-1.136-1.23a4.811 4.811 0 0 0-.513-.02H4.882v2.583H7.35zm.13-5.59c1.045 0 1.583.528 1.583 1.453 0 .746-.39 1.2-1.069 1.357v.025c.808.089 1.254.632 1.254 1.455 0 .638-.32 1.62-1.822 1.62H4.541v-5.91h2.938zm5.22 3.54c-.094.102-.297.197-.626.222l-1.323.1c-.657.05-1.127.25-1.127.893 0 .867.809.969 1.28.969.781 0 1.818-.383 1.818-1.4V10.3h-.023zM11.27 8.304c1.14 0 1.791.289 1.791 1.238v2.381c0 .108-.005.272.033.373.034.09.101.138.233.138.119 0 .226-.027.339-.063v.32a1.26 1.26 0 0 1-.424.064c-.475 0-.475-.358-.475-.923l-.024-.006c-.443.871-1.352.978-1.863.978-.336 0-1.598 0-1.598-1.288 0-.866.675-1.164 1.469-1.213l1.368-.1c.407-.033.602-.084.602-.613 0-.576-.303-.966-1.457-.966-.826 0-1.328.172-1.465 1.11h-.34c.153-1.197.794-1.43 1.811-1.43z" fill="#FFF" fill-rule="nonzero"/>
        <path d="M14.137 8.437h1.16v.32h-1.16v3.067c0 .528.279.61.715.61.159 0 .327-.031.484-.049v.32c-.194.043-.394.05-.591.05-.814 0-.95-.327-.95-1.139V8.757h-.886v-.32h.886V7.002h.341v1.435zm1.731.729c.266-.487.82-.862 1.671-.862.897 0 1.344.311 1.567.684.224.374.224.812.224 1.069v2.635h-.34v-2.618c0-.865-.301-1.449-1.458-1.449-1.158 0-1.664.782-1.664 1.573v2.493h-.341V6.722h.341v2.443zm-10.758 6.2c0 .453.337.76.896.76.561 0 .878-.3.983-.42l-1.094-1.138c-.52.227-.785.429-.785.798zm.878-1.19c.25-.125.557-.295.557-.634 0-.33-.295-.425-.472-.425-.336 0-.471.213-.471.395 0 .179.128.413.386.663zm1.76 2.26c-.173-.172-.342-.346-.512-.52-.334.383-.721.54-1.252.54-.821 0-1.204-.539-1.204-1.086 0-.584.469-.854.892-1.043-.204-.235-.4-.453-.4-.804 0-.26.173-.736.801-.736.385 0 .801.22.801.736 0 .495-.418.758-.668.892l.985 1.002c.074-.157.115-.329.119-.503v-.069h.329v.07c0 .273-.108.586-.212.746.177.173.354.347.527.525l-.206.25z" fill="#FFF" fill-rule="nonzero"/>
        <path d="M9.54 12.881H8.082v1.38h1.491c.416 0 .835-.13.835-.706 0-.64-.433-.674-.868-.674m-.006 1.71H8.082v1.517h1.51c.458 0 .933-.155.933-.784 0-.694-.523-.733-.99-.733m1.323.754c0 .433-.224 1.092-1.217 1.092H7.75v-3.885h1.926c.688 0 1.065.356 1.065.988 0 .34-.127.687-.52.857.533.157.638.647.638.948z" fill="#FFF" fill-rule="nonzero"/>
    </g>
</svg>
