<svg width="24" height="33" xmlns="http://www.w3.org/2000/svg" xmlns:xlink="http://www.w3.org/1999/xlink">
    <defs>
        <path id="a" d="M0 0h2.83v3.801H0z"/>
        <path id="c" d="M0 0h1.661v3.14H0z"/>
    </defs>
    <g fill="none" fill-rule="evenodd">
        <path d="M0 0h24v33H0z"/>
        <path d="M22.944 16.468c-2.24 4.547-6.702 10.862-10.453 14.991L12 32l-.492-.54C7.76 27.333 3.296 21.016 1.056 16.469A10.276 10.276 0 0 1 0 11.89C0 5.592 5.516 0 12 0s12 5.592 12 11.89c0 1.614-.355 3.154-1.056 4.578z" fill="#FFF" fill-rule="nonzero"/>
        <path d="M12 .6C5.382.6 0 5.876 0 12.364c0 6.203 3.303 9.147 6.213 11.748 2.594 2.31 4.834 4.308 4.834 8.288h1.894c0-3.98 2.243-5.978 4.842-8.289C20.698 21.515 24 18.57 24 12.364 24 5.876 18.618.6 12 .6m0 1.518c5.763 0 10.452 4.595 10.452 10.246 0 5.538-2.903 8.124-5.709 10.623-1.879 1.67-3.802 3.38-4.749 5.918-.946-2.538-2.867-4.25-4.747-5.924-2.8-2.503-5.699-5.09-5.699-10.617 0-5.65 4.69-10.247 10.452-10.247" fill="#005699" fill-rule="nonzero"/>
        <path d="M11.022 17.169c-.81 0-1.21.62-1.21 1.251 0 .631.4 1.252 1.21 1.252.81 0 1.211-.62 1.211-1.252s-.4-1.251-1.212-1.251m0 2.847c-.981 0-1.558-.75-1.558-1.596 0-.846.576-1.596 1.558-1.596.984 0 1.56.75 1.56 1.596 0 .846-.576 1.596-1.56 1.596m6.973-2.847c-.644 0-.815.266-.815.517 0 .267.176.388.489.432l.848.124c.507.075.885.282.885.85 0 .853-.894.924-1.328.924-.693 0-1.314-.22-1.361-1.114h.345c.02.192.037.37.176.514.133.14.39.256.901.256.698 0 .918-.222.918-.58 0-.287-.186-.422-.487-.466l-.938-.136c-.33-.045-.796-.222-.796-.788 0-.366.243-.878 1.173-.878.742 0 1.241.236 1.297 1.057h-.348c-.048-.626-.442-.712-.959-.712m-5.567-3.813c-.757 0-1.13.577-1.13 1.167 0 .59.373 1.168 1.13 1.168.757 0 1.13-.579 1.13-1.168 0-.59-.373-1.168-1.13-1.168m0 2.666c-.923 0-1.464-.704-1.464-1.498s.541-1.498 1.464-1.498c.922 0 1.463.704 1.463 1.498s-.541 1.498-1.463 1.498" fill="#005699" fill-rule="nonzero"/>
        <g transform="translate(16.685 13.11)">
            <mask id="b" fill="#fff">
                <use xlink:href="#a"/>
            </mask>
            <path d="m.375 0 1.086 2.36L2.457 0h.374L1.42 3.269c-.132.3-.273.532-.694.532H.361V3.47h.322c.257 0 .306-.043.492-.454l.114-.249L0 0h.376-.001z" fill="#005699" fill-rule="nonzero" mask="url(#b)"/>
        </g>
        <path d="M14.334 14.512c0 .746.44 1.18 1.027 1.18.895 0 1.116-.681 1.116-1.143 0-.908-.597-1.194-1.086-1.194-.552 0-1.057.371-1.057 1.157zm2.114.988c-.177.278-.522.521-1.062.521-.912 0-1.384-.708-1.384-1.503 0-.897.596-1.493 1.384-1.493.533 0 .874.265 1.062.535v-1.52h.333v3.896h-.333V15.5z" fill="#005699" fill-rule="nonzero"/>
        <path d="M14.842 18.561v1.46h-.348v-4.334l.348.107v2.255l1.662-1.184h.564l-1.983 1.439 2.224 1.698h-.663l-1.804-1.441zm-7.62-2.205-1.189 3.646H5.7l-1.282-4.23h.386l1.071 3.565 1.158-3.564h.378l1.158 3.564 1.07-3.564h.386l-1.27 4.23h-.342l-1.19-3.647z" fill="#005699" fill-rule="nonzero"/>
        <g transform="translate(12.74 16.882)">
            <mask id="d" fill="#fff">
                <use xlink:href="#c"/>
            </mask>
            <path d="M.35.596C.565.203.946.001 1.408.001c.095 0 .163.02.252.048v.39a.674.674 0 0 0-.331-.06C.676.379.35.914.35 1.478V3.14H.001L0 .032h.35v.564z" fill="#005699" fill-rule="nonzero" mask="url(#d)"/>
        </g>
        <path d="M7.306 8.93c.276 0 .555-.03.81-.152.317-.151.598-.455.598-1.06 0-.762-.372-1.075-.988-1.144a4.334 4.334 0 0 0-.474-.018H4.864V8.93h2.442zm.031 2.91c.77 0 1.56-.282 1.56-1.336 0-.846-.473-1.162-1.139-1.233a4.823 4.823 0 0 0-.514-.02h-2.38v2.59h2.473zm.13-5.605c1.048 0 1.588.53 1.588 1.458 0 .748-.392 1.202-1.072 1.36v.025c.81.09 1.257.634 1.257 1.46 0 .638-.32 1.623-1.826 1.623H4.522V6.235h2.946zm5.233 3.55c-.093.102-.297.198-.627.223l-1.326.1c-.659.05-1.13.251-1.13.895 0 .87.811.971 1.284.971.782 0 1.821-.384 1.821-1.404v-.786H12.7zM11.27 7.782c1.142 0 1.795.29 1.795 1.242v2.386c0 .108-.005.273.033.374.033.09.101.138.233.138.12 0 .226-.026.34-.063v.32c-.138.05-.28.065-.424.065-.477 0-.477-.359-.477-.925l-.024-.006c-.444.873-1.355.98-1.868.98-.337 0-1.602 0-1.602-1.291 0-.868.677-1.167 1.473-1.216l1.371-.1c.408-.033.603-.085.603-.614 0-.578-.303-.969-1.46-.969-.828 0-1.33.172-1.468 1.113h-.342c.154-1.2.797-1.434 1.817-1.434z" fill="#005699" fill-rule="nonzero"/>
        <path d="M14.142 7.915h1.164v.321h-1.164v3.075c0 .529.28.612.718.612.159 0 .327-.032.484-.05v.322a2.81 2.81 0 0 1-.592.05c-.816 0-.953-.329-.953-1.143V8.236h-.888v-.32h.888v-1.44h.342v1.44h.001zm1.736.731c.267-.488.822-.864 1.675-.864.9 0 1.348.312 1.571.686.224.375.225.814.225 1.071v2.642h-.342V9.556c0-.867-.301-1.452-1.461-1.452-1.16 0-1.668.784-1.668 1.577v2.499h-.342V6.196h.342v2.45zM5.093 14.862c0 .454.338.762.898.762.562 0 .88-.3.985-.422l-1.096-1.14c-.523.227-.787.43-.787.8zm.88-1.194c.25-.125.558-.295.558-.635 0-.33-.296-.426-.473-.426-.336 0-.473.214-.473.396 0 .18.13.414.387.665zm1.763 2.266c-.172-.171-.342-.346-.513-.52-.334.383-.722.54-1.254.54-.823 0-1.207-.54-1.207-1.088 0-.585.47-.857.894-1.046-.204-.235-.402-.454-.402-.806 0-.26.175-.738.804-.738.386 0 .803.22.803.738 0 .496-.419.76-.67.894l.988 1.005c.074-.158.115-.33.119-.504v-.069h.33v.069c0 .274-.108.588-.213.748.177.174.356.348.53.527l-.208.25z" fill="#005699" fill-rule="nonzero"/>
        <path d="M9.533 12.37H8.072v1.384h1.495c.416 0 .837-.131.837-.708 0-.642-.434-.675-.87-.675m-.006 1.714H8.072v1.521h1.515c.458 0 .934-.156.934-.787 0-.695-.524-.734-.993-.734m1.327.755c0 .435-.224 1.096-1.22 1.096H7.738v-3.895H9.67c.69 0 1.068.356 1.068.99 0 .34-.127.689-.521.86.534.157.64.648.64.95z" fill="#005699" fill-rule="nonzero"/>
    </g>
</svg>
