<svg xmlns="http://www.w3.org/2000/svg" xmlns:xlink="http://www.w3.org/1999/xlink" width="28" height="40" viewBox="0 0 28 40">
    <defs>
        <path id="a" d="M30.506 47.313c.21.279.313.416.393.526.057.078.099.138.134.192.037.058.037.058.105.192.05.104.05.104.11.433-.082.846-.082.846-1.248 1.344-1.166-.498-1.166-.498-1.249-1.344.061-.329.061-.329.111-.433.068-.134.068-.134.105-.192.035-.054.077-.114.134-.192.08-.11.183-.247.393-.526l.506-.67.506.67zM30 47.5c-1.163.497-1.163.497-1.245 1.339.06.322.06.322.106.416.054.107.054.107.066.124a28.947 28.947 0 0 0-.416-.56c-.705-.933-.946-1.254-1.42-1.898a102.35 102.35 0 0 1-4.4-6.46c-1.656-2.655-3.055-5.22-4.129-7.656-1.495-3.393-2.312-6.426-2.312-9.04C16.25 16.163 22.406 10 30 10s13.75 6.163 13.75 13.765c0 2.614-.817 5.647-2.312 9.04-1.074 2.436-2.473 5.001-4.128 7.656a102.35 102.35 0 0 1-4.402 6.46c-.473.644-.714.965-1.419 1.899-.2.265-.298.395-.366.489.062-.148.062-.148.122-.47-.082-.842-.082-.842-1.245-1.339zm0-13.75c5.523 0 10-4.477 10-10s-4.477-10-10-10-10 4.477-10 10 4.477 10 10 10z"/>
    </defs>
    <g fill="none" fill-rule="evenodd" transform="translate(-16 -10)">
        <path d="M0 0h60v60H0z"/>
        <path fill="#FFF" d="M30 33.75c-5.523 0-10-4.477-10-10s4.477-10 10-10 10 4.477 10 10-4.477 10-10 10z"/>
        <mask id="b" fill="#fff">
            <use xlink:href="#a"/>
        </mask>
        <use fill="#FFF" fill-rule="nonzero" xlink:href="#a"/>
        <g fill="#ED088C" mask="url(#b)">
            <path d="M0 0h60v60H0z"/>
        </g>
    </g>
</svg>
