<?xml version="1.0" standalone="no"?>
<!DOCTYPE svg PUBLIC "-//W3C//DTD SVG 1.1//EN" "http://www.w3.org/Graphics/SVG/1.1/DTD/svg11.dtd" >
<svg>
<metadata>
Created by FontForge 20090622 at Fri Aug  3 07:33:09 2018
 By deploy user
Copyright (c) 2011-15 Victoria's Secret Pink. All rights reserved.
</metadata>
<defs>
<font id="PinkSans-130" horiz-adv-x="400" >
  <font-face 
    font-family="Pink Sans 130"
    font-weight="600"
    font-stretch="normal"
    units-per-em="1000"
    panose-1="2 0 0 0 0 0 0 0 0 0"
    ascent="750"
    descent="-250"
    x-height="500"
    cap-height="700"
    bbox="-55 -200 1086 900"
    underline-thickness="50"
    underline-position="-50"
    unicode-range="U+000D-U+E99C"
  />
<missing-glyph horiz-adv-x="820" 
d="M760 700v-700h-700v700h700zM150 81h520v538h-520v-538zM410 425l93 128h114l-150 -203l150 -203h-114l-93 128l-93 -128h-114l150 203l-150 203h114z" />
    <glyph glyph-name=".notdef" horiz-adv-x="820" 
d="M760 700v-700h-700v700h700zM150 81h520v538h-520v-538zM410 425l93 128h114l-150 -203l150 -203h-114l-93 128l-93 -128h-114l150 203l-150 203h114z" />
    <glyph glyph-name=".null" horiz-adv-x="0" 
 />
    <glyph glyph-name=".null" horiz-adv-x="0" 
 />
    <glyph glyph-name="nonmarkingreturn" unicode="&#xd;" horiz-adv-x="250" 
 />
    <glyph glyph-name="space" unicode=" " horiz-adv-x="200" 
 />
    <glyph glyph-name="exclam" unicode="!" horiz-adv-x="220" 
d="M29 700h162l-33 -487h-96zM45 130h130v-130h-130v130z" />
    <glyph glyph-name="quotedbl" unicode="&#x22;" horiz-adv-x="427" 
d="M44 700h152l-21 -259h-110zM231 700h152l-21 -259h-110z" />
    <glyph glyph-name="numbersign" unicode="#" horiz-adv-x="423" 
d="M397 173h-54v-173h-96v173h-70v-173h-97v173h-53v112h53v130h-53v112h53v173h97v-173h70v173h96v-173h54v-112h-54v-130h54v-112zM177 285h70v130h-70v-130z" />
    <glyph glyph-name="dollar" unicode="$" horiz-adv-x="415" 
d="M28 100v111h236v84h-168l-63 62v173l70 70h62v100h124v-100h100v-111h-226v-84h169l62 -62v-173l-70 -70h-66v-100h-124v100h-106z" />
    <glyph glyph-name="percent" unicode="%" horiz-adv-x="752" 
d="M322 445l-59 -58h-160l-60 58v196l60 59h160l59 -59v-196zM218 603h-70v-119h70v119zM533 700h103l-444 -700h-103zM403 255l59 58h160l60 -58v-196l-60 -59h-160l-59 59v196zM507 97h70v119h-70v-119z" />
    <glyph glyph-name="ampersand" unicode="&#x26;" horiz-adv-x="517" 
d="M390 473l-109 -101l36 -67l44 83h138l-112 -201l110 -187h-147l-34 61l-31 -61h-172l-73 73v234l85 78l-61 108v135l72 72h181l73 -72v-155zM170 271v-159h44l31 67l-59 108zM220 471l40 39v80h-66v-67z" />
    <glyph glyph-name="quotesingle" unicode="'" horiz-adv-x="240" 
d="M44 700h152l-21 -259h-110z" />
    <glyph glyph-name="parenleft" unicode="(" horiz-adv-x="280" 
d="M240 -100h-126l-74 74v752l74 74h126v-110h-70v-680h70v-110z" />
    <glyph glyph-name="parenright" unicode=")" horiz-adv-x="280" 
d="M40 800h126l74 -74v-752l-74 -74h-126v110h70v680h-70v110z" />
    <glyph glyph-name="asterisk" unicode="*" horiz-adv-x="380" 
d="M78 662l66 -39v77h92v-77l66 39l47 -81l-66 -38l66 -38l-47 -80l-66 38v-76h-92v76l-66 -38l-47 80l66 38l-66 38z" />
    <glyph glyph-name="plus" unicode="+" horiz-adv-x="427" 
d="M270 528v-122h122v-112h-122v-122h-113v122h-122v112h122v122h113z" />
    <glyph glyph-name="comma" unicode="," horiz-adv-x="220" 
d="M175 20l-52 -120h-123l45 104v126h130v-110z" />
    <glyph glyph-name="hyphen" unicode="-" horiz-adv-x="260" 
d="M228 246h-196v110h196v-110z" />
    <glyph glyph-name="period" unicode="." horiz-adv-x="220" 
d="M45 130h130v-130h-130v130z" />
    <glyph glyph-name="slash" unicode="/" horiz-adv-x="330" 
d="M130 -100h-130l200 900h130z" />
    <glyph glyph-name="zero" unicode="0" horiz-adv-x="423" 
d="M390 80l-80 -80h-197l-80 80v540l80 80h197l80 -80v-540zM260 588h-97v-476h97v476z" />
    <glyph glyph-name="one" unicode="1" horiz-adv-x="423" 
d="M183 700h104v-588h100v-112h-330v112h100v416l-51 -50l-73 72z" />
    <glyph glyph-name="two" unicode="2" horiz-adv-x="423" 
d="M165 112h223v-112h-353v336l70 70h148v182h-88v-101h-122v143l71 70h199l70 -70v-265l-70 -71h-148v-182z" />
    <glyph glyph-name="three" unicode="3" horiz-adv-x="423" 
d="M38 620l80 80h184l80 -80v-221l-39 -40l47 -47v-232l-80 -80h-193l-80 80v132h118v-100h105v188h-128v110h120v178h-96v-100h-118v132z" />
    <glyph glyph-name="four" unicode="4" horiz-adv-x="423" 
d="M30 292l171 408h151v-407h45v-112h-45v-181h-130v181h-192v111zM222 293v210l-80 -210h80z" />
    <glyph glyph-name="five" unicode="5" horiz-adv-x="423" 
d="M40 700h350v-112h-220v-171h140l80 -80v-257l-80 -80h-195l-80 80v133h117v-101h108v193h-220v395z" />
    <glyph glyph-name="six" unicode="6" horiz-adv-x="423" 
d="M37 80v540l80 80h186l80 -80v-133h-118v101h-98v-178h143l80 -80v-250l-80 -80h-193zM167 112h93v188h-93v-188z" />
    <glyph glyph-name="seven" unicode="7" horiz-adv-x="423" 
d="M35 588v112h357v-167l-162 -533h-132l164 542v46h-227z" />
    <glyph glyph-name="eight" unicode="8" horiz-adv-x="423" 
d="M44 620l80 80h178l80 -80v-221l-39 -40l47 -47v-232l-80 -80h-193l-80 80v232l47 47l-40 40v221zM167 112h93v188h-93v-188zM174 410h78v178h-78v-178z" />
    <glyph glyph-name="nine" unicode="9" horiz-adv-x="423" 
d="M390 620v-540l-80 -80h-193l-80 80v133h119v-101h104v178h-143l-80 80v250l80 80h193zM260 588h-93v-188h93v188z" />
    <glyph glyph-name="colon" unicode=":" horiz-adv-x="220" 
d="M45 130h130v-130h-130v130zM45 510h130v-130h-130v130z" />
    <glyph glyph-name="semicolon" unicode=";" horiz-adv-x="220" 
d="M45 510h130v-130h-130v130zM175 20l-52 -120h-123l45 104v126h130v-110z" />
    <glyph glyph-name="less" unicode="&#x3c;" horiz-adv-x="427" 
d="M392 140l-357 146v128l357 146v-124l-221 -86l221 -86v-124z" />
    <glyph glyph-name="equal" unicode="=" horiz-adv-x="427" 
d="M392 382h-357v113h357v-113zM392 205h-357v113h357v-113z" />
    <glyph glyph-name="greater" unicode="&#x3e;" horiz-adv-x="427" 
d="M35 560l357 -146v-128l-357 -146v124l221 86l-221 86v124z" />
    <glyph glyph-name="question" unicode="?" horiz-adv-x="393" 
d="M25 620l80 80h183l80 -80v-212l-115 -94l-6 -101h-97l-10 166l98 80v129h-94v-101h-119v133zM134 130h130v-130h-130v130z" />
    <glyph glyph-name="at" unicode="@" horiz-adv-x="687" 
d="M304 245h61v66h-61v-66zM655 0h-573l-50 50v599l50 50h523l50 -50v-454l-50 -50h-175l-33 33l-33 -33h-126l-64 64v124l64 63h127v60h-61v-25h-120v66l57 56h197l57 -56v-252h50v353h-409v-498h519v-100z" />
    <glyph glyph-name="A" unicode="A" horiz-adv-x="429" 
d="M284 0l-22 168h-96l-21 -168h-128l104 700h191l104 -700h-132zM181 280h67l-33 255z" />
    <glyph glyph-name="B" unicode="B" horiz-adv-x="436" 
d="M396 71l-71 -71h-279v700h269l70 -70v-235l-35 -35l46 -45v-244zM176 112h90v187h-90v-187zM176 411h80v177h-80v-177z" />
    <glyph glyph-name="C" unicode="C" horiz-adv-x="425" 
d="M111 0l-71 71v559l71 70h204l70 -70v-142h-119v100h-96v-476h96v100h119v-141l-70 -71h-204z" />
    <glyph glyph-name="D" unicode="D" horiz-adv-x="436" 
d="M396 71l-71 -71h-279v700h279l71 -70v-559zM176 112h90v476h-90v-476z" />
    <glyph glyph-name="E" unicode="E" horiz-adv-x="404" 
d="M46 0v700h332v-112h-202v-177h166v-112h-166v-187h202v-112h-332z" />
    <glyph glyph-name="F" unicode="F" horiz-adv-x="396" 
d="M176 0h-130v700h332v-112h-202v-187h162v-112h-162v-289z" />
    <glyph glyph-name="G" unicode="G" horiz-adv-x="430" 
d="M111 0l-71 71v559l71 70h209l70 -70v-143h-120v101h-100v-476h90v164h-45v112h175v-317l-70 -71h-209z" />
    <glyph glyph-name="H" unicode="H" horiz-adv-x="444" 
d="M399 0h-130v299h-93v-299h-130v700h130v-289h93v289h130v-700z" />
    <glyph glyph-name="I" unicode="I" horiz-adv-x="221" 
d="M176 0h-130v700h130v-700z" />
    <glyph glyph-name="J" unicode="J" horiz-adv-x="382" 
d="M97 0l-70 71v142h118v-101h62v588h130v-629l-70 -71h-170z" />
    <glyph glyph-name="K" unicode="K" horiz-adv-x="458" 
d="M294 410l159 -410h-140l-97 255l-40 -78v-177h-130v700h130v-278l128 278h137z" />
    <glyph glyph-name="L" unicode="L" horiz-adv-x="373" 
d="M176 112h182v-112h-312v700h130v-588z" />
    <glyph glyph-name="M" unicode="M" horiz-adv-x="558" 
d="M158 393v-393h-112v700h140l91 -321l91 321h144v-700h-130v402l-73 -272h-80z" />
    <glyph glyph-name="N" unicode="N" horiz-adv-x="444" 
d="M289 700h109v-700h-129l-114 367v-367h-109v700h128l115 -368v368z" />
    <glyph glyph-name="O" unicode="O" horiz-adv-x="430" 
d="M390 71l-70 -71h-209l-71 71v559l71 70h209l70 -70v-559zM260 588h-90v-476h90v476z" />
    <glyph glyph-name="P" unicode="P" horiz-adv-x="436" 
d="M176 0h-130v700h279l71 -70v-309l-71 -70h-149v-251zM176 363h90v225h-90v-225z" />
    <glyph glyph-name="Q" unicode="Q" horiz-adv-x="430" 
d="M390 75l74 -74l-75 -75l-74 74h-204l-71 71v559l71 70h209l70 -70v-555zM260 588h-90v-476h90v476z" />
    <glyph glyph-name="R" unicode="R" horiz-adv-x="429" 
d="M176 0h-130v700h279l71 -70v-309l-47 -46l61 -275h-128l-53 251h-53v-251zM176 363h90v225h-90v-225z" />
    <glyph glyph-name="S" unicode="S" horiz-adv-x="423" 
d="M258 299h-144l-70 71v260l70 70h196l70 -70v-143h-122v101h-84v-177h144l70 -70v-270l-70 -71h-212l-71 71v142h122v-101h101v187z" />
    <glyph glyph-name="T" unicode="T" horiz-adv-x="408" 
d="M15 700h378v-112h-124v-588h-130v588h-124v112z" />
    <glyph glyph-name="U" unicode="U" horiz-adv-x="437" 
d="M269 700h123v-629l-70 -71h-206l-70 71v629h128v-588h95v588z" />
    <glyph glyph-name="V" unicode="V" horiz-adv-x="439" 
d="M219 155h4l68 545h128l-102 -700h-195l-102 700h132z" />
    <glyph glyph-name="W" unicode="W" horiz-adv-x="624" 
d="M144 700l34 -508h4l60 448h149l61 -449h4l34 509h114l-62 -700h-170l-54 431h-4l-56 -431h-177l-61 700h124z" />
    <glyph glyph-name="X" unicode="X" horiz-adv-x="460" 
d="M152 700l83 -201l79 201h128l-143 -340l153 -360h-136l-93 221l-87 -221h-128l151 359l-144 341h137z" />
    <glyph glyph-name="Y" unicode="Y" horiz-adv-x="421" 
d="M275 234v-234h-130v234l-136 466h133l73 -270l73 270h123z" />
    <glyph glyph-name="Z" unicode="Z" horiz-adv-x="385" 
d="M17 0v122l213 466h-205v112h336v-122l-213 -466h220v-112h-351z" />
    <glyph glyph-name="bracketleft" unicode="[" horiz-adv-x="280" 
d="M240 -100h-200v900h200v-110h-70v-680h70v-110z" />
    <glyph glyph-name="backslash" unicode="\" horiz-adv-x="330" 
d="M0 800h130l200 -900h-130z" />
    <glyph glyph-name="bracketright" unicode="]" horiz-adv-x="280" 
d="M40 800h200v-900h-200v110h70v680h-70v110z" />
    <glyph glyph-name="asciicircum" unicode="^" horiz-adv-x="427" 
d="M4 410l146 290h127l146 -290h-123l-87 172l-86 -172h-123z" />
    <glyph glyph-name="underscore" unicode="_" horiz-adv-x="200" 
d="M200 -177h-200v110h200v-110z" />
    <glyph glyph-name="grave" unicode="`" horiz-adv-x="402" 
d="M206 700l58 -135h-124l-58 135h124z" />
    <glyph glyph-name="a" unicode="a" 
d="M367 0h-130v36l-36 -36h-99l-70 70v160l70 70h135v89h-75v-50h-120v91l70 70h185l70 -70v-430zM162 111h75v97h-75v-97z" />
    <glyph glyph-name="b" unicode="b" 
d="M367 70l-70 -70h-98l-37 36v-36h-130v700h130v-236l37 36h98l70 -70v-360zM162 111h75v278h-75v-278z" />
    <glyph glyph-name="c" unicode="c" horiz-adv-x="394" 
d="M102 0l-70 70v360l70 70h189l70 -70v-130h-120v89h-79v-278h79v89h120v-130l-70 -70h-189z" />
    <glyph glyph-name="d" unicode="d" 
d="M32 430l70 70h99l36 -36v236h130v-700h-130v36l-36 -36h-99l-70 70v360zM162 111h75v278h-75v-278z" />
    <glyph glyph-name="e" unicode="e" 
d="M32 430l70 70h195l70 -70v-226h-205v-93h85v50h120v-91l-70 -70h-195l-70 70v360zM162 296h75v93h-75v-93z" />
    <glyph glyph-name="f" unicode="f" horiz-adv-x="322" 
d="M14 500h57v138l62 62h168v-111h-100v-89h92v-111h-92v-389h-130v389h-57v111z" />
    <glyph glyph-name="g" unicode="g" 
d="M32 430l70 70h99l36 -36v36h130v-630l-70 -70h-195l-70 70v91h120v-50h85v125l-36 -36h-99l-70 70v360zM162 111h75v278h-75v-278z" />
    <glyph glyph-name="h" unicode="h" 
d="M237 389h-75v-389h-130v700h130v-236l37 36h98l70 -70v-430h-130v389z" />
    <glyph glyph-name="i" unicode="i" horiz-adv-x="207" 
d="M39 500h130v-500h-130v500zM36 700h136v-136h-136v136z" />
    <glyph glyph-name="j" unicode="j" horiz-adv-x="207" 
d="M169 500v-638l-63 -62h-132v111h65v589h130zM36 700h136v-136h-136v136z" />
    <glyph glyph-name="k" unicode="k" horiz-adv-x="414" 
d="M283 260l133 -260h-145l-102 212v-212h-130v700h130v-412l102 212h135z" />
    <glyph glyph-name="l" unicode="l" horiz-adv-x="207" 
d="M39 700h130v-700h-130v700z" />
    <glyph glyph-name="m" unicode="m" horiz-adv-x="572" 
d="M221 389h-59v-389h-130v500h130v-36l37 36h82l39 -39l39 39h111l70 -70v-430h-130v389h-59v-389h-130v389z" />
    <glyph glyph-name="n" unicode="n" 
d="M237 389h-75v-389h-130v500h130v-36l37 36h98l70 -70v-430h-130v389z" />
    <glyph glyph-name="o" unicode="o" 
d="M102 0l-70 70v360l70 70h195l70 -70v-360l-70 -70h-195zM162 111h75v278h-75v-278z" />
    <glyph glyph-name="p" unicode="p" 
d="M367 70l-70 -70h-98l-37 36v-236h-130v700h130v-36l37 36h98l70 -70v-360zM162 111h75v278h-75v-278z" />
    <glyph glyph-name="q" unicode="q" 
d="M32 430l70 70h99l36 -36v36h130v-700h-130v236l-36 -36h-99l-70 70v360zM162 111h75v278h-75v-278z" />
    <glyph glyph-name="r" unicode="r" horiz-adv-x="340" 
d="M217 389h-55v-389h-130v500h130v-36l37 36h68l55 -55v-106h-105v50z" />
    <glyph glyph-name="s" unicode="s" 
d="M367 70l-70 -70h-195l-70 70v91h120v-50h85v93h-134l-62 62v164l70 70h178l70 -70v-91h-120v50h-68v-93h134l62 -62v-164z" />
    <glyph glyph-name="t" unicode="t" horiz-adv-x="324" 
d="M20 500h52v100h130v-100h95v-111h-95v-278h85v-111h-152l-63 63v326h-52v111z" />
    <glyph glyph-name="u" unicode="u" 
d="M162 111h75v389h130v-500h-130v36l-36 -36h-99l-70 70v430h130v-389z" />
    <glyph glyph-name="v" unicode="v" 
d="M293 0h-186l-94 500h127l60 -372h4l62 372h121z" />
    <glyph glyph-name="w" unicode="w" horiz-adv-x="584" 
d="M292 362h-4l-47 -362h-172l-55 500h118l31 -355h4l51 355h156l51 -356h4l30 356h111l-55 -500h-176z" />
    <glyph glyph-name="x" unicode="x" horiz-adv-x="410" 
d="M205 151l-62 -151h-141l118 260l-108 240h131l62 -152l62 152h131l-108 -240l118 -260h-141z" />
    <glyph glyph-name="y" unicode="y" horiz-adv-x="397" 
d="M137 -6l-127 506h126l65 -330h4l64 330h125l-123 -500l-45 -200h-140z" />
    <glyph glyph-name="z" unicode="z" horiz-adv-x="376" 
d="M26 104l169 285h-161v111h308v-104l-171 -285h179v-111h-324v104z" />
    <glyph glyph-name="braceleft" unicode="{" horiz-adv-x="280" 
d="M67 295h-44v110h44v321l74 74h99v-110h-43v-301l-39 -39l39 -39v-301h43v-110h-99l-74 74v321z" />
    <glyph glyph-name="bar" unicode="|" horiz-adv-x="230" 
d="M180 -100h-130v900h130v-900z" />
    <glyph glyph-name="braceright" unicode="}" horiz-adv-x="280" 
d="M213 405h44v-110h-44v-321l-74 -74h-99v110h43v301l39 39l-39 39v301h-43v110h99l74 -74v-321z" />
    <glyph glyph-name="asciitilde" unicode="~" horiz-adv-x="380" 
d="M132 322v-39h-100v92l40 40l175 -35v39h100v-92l-40 -40z" />
    <glyph glyph-name="nonbreakingspace" unicode="&#xa0;" horiz-adv-x="200" 
 />
    <glyph glyph-name="exclamdown" unicode="&#xa1;" horiz-adv-x="220" 
d="M191 0h-162l33 487h96zM175 570h-130v130h130v-130z" />
    <glyph glyph-name="cent" unicode="&#xa2;" horiz-adv-x="427" 
d="M277 100v-100h-128v100h-44l-70 70v360l70 70h44v100h129v-100h43l70 -70v-110h-120v68h-106v-276h106v68h120v-110l-70 -70h-44z" />
    <glyph glyph-name="sterling" unicode="&#xa3;" horiz-adv-x="427" 
d="M398 0h-366v112h48v191h-48v92h48v235l70 70h175l70 -70v-110h-120v68h-65v-193h112v-92h-112v-191h188v-112z" />
    <glyph glyph-name="yen" unicode="&#xa5;" horiz-adv-x="427" 
d="M48 332h79l-114 368h121l83 -286l83 286h114l-115 -368h79v-93h-103v-42h103v-93h-103v-104h-124v104h-103v93h103v42h-103v93z" />
    <glyph glyph-name="section" unicode="&#xa7;" horiz-adv-x="409" 
d="M382 291l-46 -46l19 -19v-156l-70 -70h-188l-70 70v92h120v-50h78v89h-137l-60 60v149l46 46l-19 19v156l70 70h180l70 -70v-92h-120v49h-70v-88h137l60 -60v-149zM158 401v-101h94v101h-94z" />
    <glyph glyph-name="dieresis" unicode="&#xa8;" horiz-adv-x="402" 
d="M44 691h136v-136h-136v136zM223 691h136v-136h-136v136z" />
    <glyph glyph-name="copyright" unicode="&#xa9;" horiz-adv-x="579" 
d="M321 297h93v-130l-47 -47h-157l-47 47v366l47 47h157l47 -47v-130h-93v79h-55v-264h55v79zM79 0l-40 40v620l40 40h421l40 -40v-620l-40 -40h-421zM470 65v570h-361v-570h361z" />
    <glyph glyph-name="ordfeminine" unicode="&#xaa;" 
d="M367 200h-130v36l-36 -36h-99l-70 70v160l70 70h135v89h-75v-50h-120v91l70 70h185l70 -70v-430zM162 311h75v97h-75v-97zM367 111v-111h-335v111h335z" />
    <glyph glyph-name="uni00AD" unicode="&#xad;" horiz-adv-x="260" 
d="M228 246h-196v110h196v-110z" />
    <glyph glyph-name="registered" unicode="&#xae;" horiz-adv-x="318" 
d="M49 350l-15 15v315l20 20h210l20 -20v-310l-20 -20h-215zM249 382v285h-185v-285h185zM143 535h31v57h-31v-57zM182 410l-21 77h-18v-77h-49v230h105l23 -24v-101l-17 -17l24 -88h-47z" />
    <glyph glyph-name="macron" unicode="&#xaf;" horiz-adv-x="402" 
d="M91 577v110h220v-110h-220z" />
    <glyph glyph-name="degree" unicode="&#xb0;" horiz-adv-x="358" 
d="M337 457l-59 -59h-184l-59 59v184l59 59h184l59 -59v-184zM231 601h-91v-105h91v105z" />
    <glyph glyph-name="plusminus" unicode="&#xb1;" horiz-adv-x="427" 
d="M270 585v-104h122v-113h-122v-103h-113v103h-122v113h122v104h113zM392 115h-357v113h357v-113z" />
    <glyph glyph-name="acute" unicode="&#xb4;" horiz-adv-x="402" 
d="M320 700l-58 -135h-123l58 135h123z" />
    <glyph glyph-name="paragraph" unicode="&#xb6;" horiz-adv-x="422" 
d="M115 588v-276h36v240h77v-552h-77v200h-56l-70 70v360l70 70h299v-700h-130v588h-149z" />
    <glyph glyph-name="periodcentered" unicode="&#xb7;" horiz-adv-x="240" 
d="M55 366h130v-130h-130v130z" />
    <glyph glyph-name="cedilla" unicode="&#xb8;" horiz-adv-x="402" 
d="M229 -58h45l30 -30v-82l-30 -30h-147v63h107v22h-41l-20 20v72h56v-35z" />
    <glyph glyph-name="ordmasculine" unicode="&#xba;" 
d="M102 200l-70 70v360l70 70h195l70 -70v-360l-70 -70h-195zM162 311h75v278h-75v-278zM367 111v-111h-335v111h335z" />
    <glyph glyph-name="questiondown" unicode="&#xbf;" horiz-adv-x="393" 
d="M368 80l-80 -80h-183l-80 80v212l116 94l5 101h97l11 -166l-99 -80v-129h95v101h118v-133zM260 570h-130v130h130v-130z" />
    <glyph glyph-name="Agrave" unicode="&#xc0;" horiz-adv-x="429" 
d="M284 0l-22 168h-96l-21 -168h-128l104 700h191l104 -700h-132zM181 280h67l-33 255zM221 900l58 -135h-124l-58 135h124z" />
    <glyph glyph-name="Aacute" unicode="&#xc1;" horiz-adv-x="429" 
d="M284 0l-22 168h-96l-21 -168h-128l104 700h191l104 -700h-132zM181 280h67l-33 255zM335 900l-58 -135h-123l58 135h123z" />
    <glyph glyph-name="Acircumflex" unicode="&#xc2;" horiz-adv-x="429" 
d="M284 0l-22 168h-96l-21 -168h-128l104 700h191l104 -700h-132zM181 280h67l-33 255zM293 900l75 -135h-123l-29 52l-29 -52h-123l74 135h155z" />
    <glyph glyph-name="Atilde" unicode="&#xc3;" horiz-adv-x="429" 
d="M284 0l-22 168h-96l-21 -168h-128l104 700h191l104 -700h-132zM181 280h67l-33 255zM172 800v-35h-100v85l40 40l147 -25v35h100v-85l-40 -40z" />
    <glyph glyph-name="Adieresis" unicode="&#xc4;" horiz-adv-x="429" 
d="M284 0l-22 168h-96l-21 -168h-128l104 700h191l104 -700h-132zM181 280h67l-33 255zM59 891h136v-136h-136v136zM238 891h136v-136h-136v136z" />
    <glyph glyph-name="Aring" unicode="&#xc5;" horiz-adv-x="429" 
d="M284 0l-22 168h-96l-21 -168h-128l104 700h191l104 -700h-132zM181 280h67l-33 255zM186 796h59v54h-59v-54zM134 870l30 30h104l30 -30v-93l-30 -30h-104l-30 30v93z" />
    <glyph glyph-name="AE" unicode="&#xc6;" horiz-adv-x="591" 
d="M284 0l-22 168h-96l-21 -168h-128l104 700h444v-112h-237l27 -177h174v-112h-158l28 -187h166v-112h-281zM181 280h67l-33 255z" />
    <glyph glyph-name="Ccedilla" unicode="&#xc7;" horiz-adv-x="425" 
d="M111 0l-71 71v559l71 70h204l70 -70v-142h-119v100h-96v-476h96v100h119v-141l-70 -71h-204zM240 -58h45l30 -30v-82l-30 -30h-147v63h107v22h-41l-20 20v72h56v-35z" />
    <glyph glyph-name="Egrave" unicode="&#xc8;" horiz-adv-x="404" 
d="M46 0v700h332v-112h-202v-177h166v-112h-166v-187h202v-112h-332zM217 900l58 -135h-124l-58 135h124z" />
    <glyph glyph-name="Eacute" unicode="&#xc9;" horiz-adv-x="404" 
d="M46 0v700h332v-112h-202v-177h166v-112h-166v-187h202v-112h-332zM331 900l-58 -135h-123l58 135h123z" />
    <glyph glyph-name="Ecircumflex" unicode="&#xca;" horiz-adv-x="404" 
d="M46 0v700h332v-112h-202v-177h166v-112h-166v-187h202v-112h-332zM289 900l75 -135h-123l-29 52l-29 -52h-123l74 135h155z" />
    <glyph glyph-name="Edieresis" unicode="&#xcb;" horiz-adv-x="404" 
d="M46 0v700h332v-112h-202v-177h166v-112h-166v-187h202v-112h-332zM55 891h136v-136h-136v136zM234 891h136v-136h-136v136z" />
    <glyph glyph-name="Igrave" unicode="&#xcc;" horiz-adv-x="221" 
d="M176 0h-130v700h130v-700zM116 900l58 -135h-124l-58 135h124z" />
    <glyph glyph-name="Iacute" unicode="&#xcd;" horiz-adv-x="221" 
d="M176 0h-130v700h130v-700zM230 900l-58 -135h-123l58 135h123z" />
    <glyph glyph-name="Icircumflex" unicode="&#xce;" horiz-adv-x="221" 
d="M176 0h-130v700h130v-700zM188 900l75 -135h-123l-29 52l-29 -52h-123l74 135h155z" />
    <glyph glyph-name="Idieresis" unicode="&#xcf;" horiz-adv-x="221" 
d="M176 0h-130v700h130v-700zM-46 891h136v-136h-136v136zM133 891h136v-136h-136v136z" />
    <glyph glyph-name="Eth" unicode="&#xd0;" horiz-adv-x="446" 
d="M406 71l-71 -71h-279v295h-40v110h40v295h279l71 -70v-559zM246 295h-60v-183h90v476h-90v-183h60v-110z" />
    <glyph glyph-name="Ntilde" unicode="&#xd1;" horiz-adv-x="444" 
d="M289 700h109v-700h-129l-114 367v-367h-109v700h128l115 -368v368zM178 800v-35h-100v85l40 40l147 -25v35h100v-85l-40 -40z" />
    <glyph glyph-name="Ograve" unicode="&#xd2;" horiz-adv-x="430" 
d="M390 71l-70 -71h-209l-71 71v559l71 70h209l70 -70v-559zM260 588h-90v-476h90v476zM220 900l58 -135h-124l-58 135h124z" />
    <glyph glyph-name="Oacute" unicode="&#xd3;" horiz-adv-x="430" 
d="M390 71l-70 -71h-209l-71 71v559l71 70h209l70 -70v-559zM260 588h-90v-476h90v476zM334 900l-58 -135h-123l58 135h123z" />
    <glyph glyph-name="Ocircumflex" unicode="&#xd4;" horiz-adv-x="430" 
d="M390 71l-70 -71h-209l-71 71v559l71 70h209l70 -70v-559zM260 588h-90v-476h90v476zM292 900l75 -135h-123l-29 52l-29 -52h-123l74 135h155z" />
    <glyph glyph-name="Otilde" unicode="&#xd5;" horiz-adv-x="430" 
d="M390 71l-70 -71h-209l-71 71v559l71 70h209l70 -70v-559zM260 588h-90v-476h90v476zM171 800v-35h-100v85l40 40l147 -25v35h100v-85l-40 -40z" />
    <glyph glyph-name="Odieresis" unicode="&#xd6;" horiz-adv-x="430" 
d="M390 71l-70 -71h-209l-71 71v559l71 70h209l70 -70v-559zM260 588h-90v-476h90v476zM58 891h136v-136h-136v136zM237 891h136v-136h-136v136z" />
    <glyph glyph-name="multiply" unicode="&#xd7;" horiz-adv-x="427" 
d="M106 537l107 -107l107 107l80 -80l-107 -107l107 -107l-80 -80l-107 107l-107 -107l-79 80l106 107l-106 107z" />
    <glyph glyph-name="Oslash" unicode="&#xd8;" horiz-adv-x="430" 
d="M82 29l-42 42v559l71 70h184l16 50h62l-25 -78l42 -42v-559l-70 -71h-185l-16 -50h-62zM170 306l89 282h-89v-282zM260 394l-90 -282h90v282z" />
    <glyph glyph-name="Ugrave" unicode="&#xd9;" horiz-adv-x="437" 
d="M269 700h123v-629l-70 -71h-206l-70 71v629h128v-588h95v588zM224 900l58 -135h-124l-58 135h124z" />
    <glyph glyph-name="Uacute" unicode="&#xda;" horiz-adv-x="437" 
d="M269 700h123v-629l-70 -71h-206l-70 71v629h128v-588h95v588zM338 900l-58 -135h-123l58 135h123z" />
    <glyph glyph-name="Ucircumflex" unicode="&#xdb;" horiz-adv-x="437" 
d="M269 700h123v-629l-70 -71h-206l-70 71v629h128v-588h95v588zM296 900l75 -135h-123l-29 52l-29 -52h-123l74 135h155z" />
    <glyph glyph-name="Udieresis" unicode="&#xdc;" horiz-adv-x="437" 
d="M269 700h123v-629l-70 -71h-206l-70 71v629h128v-588h95v588zM62 891h136v-136h-136v136zM241 891h136v-136h-136v136z" />
    <glyph glyph-name="Yacute" unicode="&#xdd;" horiz-adv-x="421" 
d="M275 234v-234h-130v234l-136 466h133l73 -270l73 270h123zM329 900l-58 -135h-123l58 135h123z" />
    <glyph glyph-name="Thorn" unicode="&#xde;" horiz-adv-x="436" 
d="M176 237h90v224h-90v-224zM176 573h149l71 -70v-308l-71 -70h-149v-125h-130v700h130v-127z" />
    <glyph glyph-name="germandbls" unicode="&#xdf;" horiz-adv-x="550" 
d="M372 588h-203v-588h-130v647l52 53h325l52 -53v-206l-52 -53h-53v-95h99l60 -60v-163l-70 -70h-152l-70 70v92h120v-50h42v95h-99l-60 60v163l70 70h69v88z" />
    <glyph glyph-name="agrave" unicode="&#xe0;" 
d="M367 0h-130v36l-36 -36h-99l-70 70v160l70 70h135v89h-75v-50h-120v91l70 70h185l70 -70v-430zM162 111h75v97h-75v-97zM204 700l58 -135h-124l-58 135h124z" />
    <glyph glyph-name="aacute" unicode="&#xe1;" 
d="M367 0h-130v36l-36 -36h-99l-70 70v160l70 70h135v89h-75v-50h-120v91l70 70h185l70 -70v-430zM162 111h75v97h-75v-97zM318 700l-58 -135h-123l58 135h123z" />
    <glyph glyph-name="acircumflex" unicode="&#xe2;" 
d="M367 0h-130v36l-36 -36h-99l-70 70v160l70 70h135v89h-75v-50h-120v91l70 70h185l70 -70v-430zM162 111h75v97h-75v-97zM276 700l75 -135h-123l-29 52l-29 -52h-123l74 135h155z" />
    <glyph glyph-name="atilde" unicode="&#xe3;" 
d="M367 0h-130v36l-36 -36h-99l-70 70v160l70 70h135v89h-75v-50h-120v91l70 70h185l70 -70v-430zM162 111h75v97h-75v-97zM155 600v-35h-100v85l40 40l147 -25v35h100v-85l-40 -40z" />
    <glyph glyph-name="adieresis" unicode="&#xe4;" 
d="M367 0h-130v36l-36 -36h-99l-70 70v160l70 70h135v89h-75v-50h-120v91l70 70h185l70 -70v-430zM162 111h75v97h-75v-97zM42 691h136v-136h-136v136zM221 691h136v-136h-136v136z" />
    <glyph glyph-name="aring" unicode="&#xe5;" 
d="M367 0h-130v36l-36 -36h-99l-70 70v160l70 70h135v89h-75v-50h-120v91l70 70h185l70 -70v-430zM162 111h75v97h-75v-97zM169 596h59v54h-59v-54zM117 670l30 30h104l30 -30v-93l-30 -30h-104l-30 30v93z" />
    <glyph glyph-name="ae" unicode="&#xe6;" horiz-adv-x="605" 
d="M268 500l37 -38l38 38h159l70 -70v-224h-205v-95h85v50h120v-91l-70 -70h-159l-38 37l-37 -37h-166l-70 70v158l70 70h135v91h-75v-50h-120v91l70 70h156zM162 111h75v95h-75v-95zM367 298h75v91h-75v-91z" />
    <glyph glyph-name="ccedilla" unicode="&#xe7;" horiz-adv-x="394" 
d="M102 0l-70 70v360l70 70h189l70 -70v-130h-120v89h-79v-278h79v89h120v-130l-70 -70h-189zM224 -58h45l30 -30v-82l-30 -30h-147v63h107v22h-41l-20 20v72h56v-35z" />
    <glyph glyph-name="egrave" unicode="&#xe8;" 
d="M32 430l70 70h195l70 -70v-226h-205v-93h85v50h120v-91l-70 -70h-195l-70 70v360zM162 296h75v93h-75v-93zM204 700l58 -135h-124l-58 135h124z" />
    <glyph glyph-name="eacute" unicode="&#xe9;" 
d="M32 430l70 70h195l70 -70v-226h-205v-93h85v50h120v-91l-70 -70h-195l-70 70v360zM162 296h75v93h-75v-93zM318 700l-58 -135h-123l58 135h123z" />
    <glyph glyph-name="ecircumflex" unicode="&#xea;" 
d="M32 430l70 70h195l70 -70v-226h-205v-93h85v50h120v-91l-70 -70h-195l-70 70v360zM162 296h75v93h-75v-93zM276 700l75 -135h-123l-29 52l-29 -52h-123l74 135h155z" />
    <glyph glyph-name="edieresis" unicode="&#xeb;" 
d="M32 430l70 70h195l70 -70v-226h-205v-93h85v50h120v-91l-70 -70h-195l-70 70v360zM162 296h75v93h-75v-93zM42 691h136v-136h-136v136zM221 691h136v-136h-136v136z" />
    <glyph glyph-name="igrave" unicode="&#xec;" horiz-adv-x="207" 
d="M39 500h130v-500h-130v500zM109 700l58 -135h-124l-58 135h124z" />
    <glyph glyph-name="iacute" unicode="&#xed;" horiz-adv-x="207" 
d="M39 500h130v-500h-130v500zM223 700l-58 -135h-123l58 135h123z" />
    <glyph glyph-name="icircumflex" unicode="&#xee;" horiz-adv-x="207" 
d="M39 500h130v-500h-130v500zM181 700l75 -135h-123l-29 52l-29 -52h-123l74 135h155z" />
    <glyph glyph-name="idieresis" unicode="&#xef;" horiz-adv-x="207" 
d="M39 500h130v-500h-130v500zM-53 691h136v-136h-136v136zM126 691h136v-136h-136v136z" />
    <glyph glyph-name="eth" unicode="&#xf0;" 
d="M262 646l-41 -21l146 -145v-410l-70 -70h-195l-70 70v360l70 70h93l-75 74l-88 -44v54l52 26l-89 90h152l38 -39l77 39v-54zM162 111h75v278h-75v-278z" />
    <glyph glyph-name="ntilde" unicode="&#xf1;" 
d="M237 389h-75v-389h-130v500h130v-36l37 36h98l70 -70v-430h-130v389zM155 600v-35h-100v85l40 40l147 -25v35h100v-85l-40 -40z" />
    <glyph glyph-name="ograve" unicode="&#xf2;" 
d="M102 0l-70 70v360l70 70h195l70 -70v-360l-70 -70h-195zM162 111h75v278h-75v-278zM204 700l58 -135h-124l-58 135h124z" />
    <glyph glyph-name="oacute" unicode="&#xf3;" 
d="M102 0l-70 70v360l70 70h195l70 -70v-360l-70 -70h-195zM162 111h75v278h-75v-278zM318 700l-58 -135h-123l58 135h123z" />
    <glyph glyph-name="ocircumflex" unicode="&#xf4;" 
d="M102 0l-70 70v360l70 70h195l70 -70v-360l-70 -70h-195zM162 111h75v278h-75v-278zM276 700l75 -135h-123l-29 52l-29 -52h-123l74 135h155z" />
    <glyph glyph-name="otilde" unicode="&#xf5;" 
d="M102 0l-70 70v360l70 70h195l70 -70v-360l-70 -70h-195zM162 111h75v278h-75v-278zM155 600v-35h-100v85l40 40l147 -25v35h100v-85l-40 -40z" />
    <glyph glyph-name="odieresis" unicode="&#xf6;" 
d="M102 0l-70 70v360l70 70h195l70 -70v-360l-70 -70h-195zM162 111h75v278h-75v-278zM42 691h136v-136h-136v136zM221 691h136v-136h-136v136z" />
    <glyph glyph-name="divide" unicode="&#xf7;" horiz-adv-x="427" 
d="M392 294h-357v112h357v-112zM148 568h130v-130h-130v130zM148 262h130v-130h-130v130z" />
    <glyph glyph-name="oslash" unicode="&#xf8;" 
d="M72 30l-40 40v360l70 70h183l23 50h55l-36 -80l40 -40v-360l-70 -70h-184l-22 -50h-55zM237 111v161l-73 -161h73zM162 228l73 161h-73v-161z" />
    <glyph glyph-name="ugrave" unicode="&#xf9;" 
d="M162 111h75v389h130v-500h-130v36l-36 -36h-99l-70 70v430h130v-389zM204 700l58 -135h-124l-58 135h124z" />
    <glyph glyph-name="uacute" unicode="&#xfa;" 
d="M162 111h75v389h130v-500h-130v36l-36 -36h-99l-70 70v430h130v-389zM318 700l-58 -135h-123l58 135h123z" />
    <glyph glyph-name="ucircumflex" unicode="&#xfb;" 
d="M162 111h75v389h130v-500h-130v36l-36 -36h-99l-70 70v430h130v-389zM276 700l75 -135h-123l-29 52l-29 -52h-123l74 135h155z" />
    <glyph glyph-name="udieresis" unicode="&#xfc;" 
d="M162 111h75v389h130v-500h-130v36l-36 -36h-99l-70 70v430h130v-389zM42 691h136v-136h-136v136zM221 691h136v-136h-136v136z" />
    <glyph glyph-name="yacute" unicode="&#xfd;" horiz-adv-x="397" 
d="M321 700l-58 -135h-123l58 135h123zM137 -6l-127 506h126l65 -330h4l64 330h125l-123 -500l-45 -200h-140z" />
    <glyph glyph-name="thorn" unicode="&#xfe;" 
d="M367 70l-70 -70h-98l-37 36v-236h-130v900h130v-236l37 36h98l70 -70v-360zM162 111h75v278h-75v-278z" />
    <glyph glyph-name="ydieresis" unicode="&#xff;" horiz-adv-x="397" 
d="M45 691h136v-136h-136v136zM224 691h136v-136h-136v136zM137 -6l-127 506h126l65 -330h4l64 330h125l-123 -500l-45 -200h-140z" />
    <glyph glyph-name="Amacron" unicode="&#x100;" horiz-adv-x="429" 
d="M284 0l-22 168h-96l-21 -168h-128l104 700h191l104 -700h-132zM181 280h67l-33 255zM106 777v110h220v-110h-220z" />
    <glyph glyph-name="amacron" unicode="&#x101;" 
d="M367 0h-130v36l-36 -36h-99l-70 70v160l70 70h135v89h-75v-50h-120v91l70 70h185l70 -70v-430zM162 111h75v97h-75v-97zM89 577v110h220v-110h-220z" />
    <glyph glyph-name="Abreve" unicode="&#x102;" horiz-adv-x="429" 
d="M284 0l-22 168h-96l-21 -168h-128l104 700h191l104 -700h-132zM181 280h67l-33 255zM253 900h100v-95l-40 -40h-194l-40 40v95h100v-48h74v48z" />
    <glyph glyph-name="abreve" unicode="&#x103;" 
d="M367 0h-130v36l-36 -36h-99l-70 70v160l70 70h135v89h-75v-50h-120v91l70 70h185l70 -70v-430zM162 111h75v97h-75v-97zM236 700h100v-95l-40 -40h-194l-40 40v95h100v-48h74v48z" />
    <glyph glyph-name="Aogonek" unicode="&#x104;" horiz-adv-x="429" 
d="M316 -100v-23h120v-77h-156l-36 37v90l73 73h-33l-22 168h-96l-21 -168h-128l104 700h191l104 -700zM181 280h67l-33 255z" />
    <glyph glyph-name="aogonek" unicode="&#x105;" 
d="M367 0h-10l-100 -100v-23h120v-77h-156l-36 37v90l73 73h-21v36l-36 -36h-99l-70 70v160l70 70h135v89h-75v-50h-120v91l70 70h185l70 -70v-430zM162 111h75v97h-75v-97z" />
    <glyph glyph-name="Cacute" unicode="&#x106;" horiz-adv-x="425" 
d="M111 0l-71 71v559l71 70h204l70 -70v-142h-119v100h-96v-476h96v100h119v-141l-70 -71h-204zM331 900l-58 -135h-123l58 135h123z" />
    <glyph glyph-name="cacute" unicode="&#x107;" horiz-adv-x="394" 
d="M102 0l-70 70v360l70 70h189l70 -70v-130h-120v89h-79v-278h79v89h120v-130l-70 -70h-189zM315 700l-58 -135h-123l58 135h123z" />
    <glyph glyph-name="Ccircumflex" unicode="&#x108;" horiz-adv-x="425" 
d="M111 0l-71 71v559l71 70h204l70 -70v-142h-119v100h-96v-476h96v100h119v-141l-70 -71h-204zM289 900l75 -135h-123l-29 52l-29 -52h-123l74 135h155z" />
    <glyph glyph-name="ccircumflex" unicode="&#x109;" horiz-adv-x="394" 
d="M102 0l-70 70v360l70 70h189l70 -70v-130h-120v89h-79v-278h79v89h120v-130l-70 -70h-189zM273 700l75 -135h-123l-29 52l-29 -52h-123l74 135h155z" />
    <glyph glyph-name="Cdotaccent" unicode="&#x10a;" horiz-adv-x="425" 
d="M111 0l-71 71v559l71 70h204l70 -70v-142h-119v100h-96v-476h96v100h119v-141l-70 -71h-204zM144 891h136v-136h-136v136z" />
    <glyph glyph-name="cdotaccent" unicode="&#x10b;" horiz-adv-x="394" 
d="M102 0l-70 70v360l70 70h189l70 -70v-130h-120v89h-79v-278h79v89h120v-130l-70 -70h-189zM128 691h136v-136h-136v136z" />
    <glyph glyph-name="Ccaron" unicode="&#x10c;" horiz-adv-x="425" 
d="M111 0l-71 71v559l71 70h204l70 -70v-142h-119v100h-96v-476h96v100h119v-141l-70 -71h-204zM183 900l29 -52l29 52h123l-75 -135h-155l-74 135h123z" />
    <glyph glyph-name="ccaron" unicode="&#x10d;" horiz-adv-x="394" 
d="M102 0l-70 70v360l70 70h189l70 -70v-130h-120v89h-79v-278h79v89h120v-130l-70 -70h-189zM167 700l29 -52l29 52h123l-75 -135h-155l-74 135h123z" />
    <glyph glyph-name="Dcaron" unicode="&#x10e;" horiz-adv-x="436" 
d="M396 71l-71 -71h-279v700h279l71 -70v-559zM176 112h90v476h-90v-476zM192 900l29 -52l29 52h123l-75 -135h-155l-74 135h123z" />
    <glyph glyph-name="dcaron" unicode="&#x10f;" 
d="M32 430l70 70h99l36 -36v236h130v-700h-130v36l-36 -36h-99l-70 70v360zM162 111h75v278h-75v-278zM390 525l20 175h83l-20 -175h-83z" />
    <glyph glyph-name="Dcroat" unicode="&#x110;" horiz-adv-x="446" 
d="M406 71l-71 -71h-279v295h-40v110h40v295h279l71 -70v-559zM246 295h-60v-183h90v476h-90v-183h60v-110z" />
    <glyph glyph-name="dcroat" unicode="&#x111;" horiz-adv-x="420" 
d="M150 646h87v54h130v-54h50v-92h-50v-554h-130v36l-36 -36h-99l-70 70v360l70 70h99l36 -36v90h-87v92zM162 111h75v278h-75v-278z" />
    <glyph glyph-name="Emacron" unicode="&#x112;" horiz-adv-x="404" 
d="M46 0v700h332v-112h-202v-177h166v-112h-166v-187h202v-112h-332zM102 777v110h220v-110h-220z" />
    <glyph glyph-name="emacron" unicode="&#x113;" 
d="M32 430l70 70h195l70 -70v-226h-205v-93h85v50h120v-91l-70 -70h-195l-70 70v360zM162 296h75v93h-75v-93zM89 577v110h220v-110h-220z" />
    <glyph glyph-name="Ebreve" unicode="&#x114;" horiz-adv-x="404" 
d="M46 0v700h332v-112h-202v-177h166v-112h-166v-187h202v-112h-332zM249 900h100v-95l-40 -40h-194l-40 40v95h100v-48h74v48z" />
    <glyph glyph-name="ebreve" unicode="&#x115;" 
d="M32 430l70 70h195l70 -70v-226h-205v-93h85v50h120v-91l-70 -70h-195l-70 70v360zM162 296h75v93h-75v-93zM236 700h100v-95l-40 -40h-194l-40 40v95h100v-48h74v48z" />
    <glyph glyph-name="Edotaccent" unicode="&#x116;" horiz-adv-x="404" 
d="M46 0v700h332v-112h-202v-177h166v-112h-166v-187h202v-112h-332zM144 891h136v-136h-136v136z" />
    <glyph glyph-name="edotaccent" unicode="&#x117;" 
d="M32 430l70 70h195l70 -70v-226h-205v-93h85v50h120v-91l-70 -70h-195l-70 70v360zM162 296h75v93h-75v-93zM131 691h136v-136h-136v136z" />
    <glyph glyph-name="Eogonek" unicode="&#x118;" horiz-adv-x="404" 
d="M278 -100v-23h120v-77h-156l-36 37v90l73 73h-233v700h332v-112h-202v-177h166v-112h-166v-187h202v-112z" />
    <glyph glyph-name="eogonek" unicode="&#x119;" 
d="M32 430l70 70h195l70 -70v-226h-205v-93h85v50h120v-91l-170 -170v-23h120v-77h-156l-36 37v90l73 73h-96l-70 70v360zM162 296h75v93h-75v-93z" />
    <glyph glyph-name="Ecaron" unicode="&#x11a;" horiz-adv-x="404" 
d="M46 0v700h332v-112h-202v-177h166v-112h-166v-187h202v-112h-332zM183 900l29 -52l29 52h123l-75 -135h-155l-74 135h123z" />
    <glyph glyph-name="ecaron" unicode="&#x11b;" 
d="M32 430l70 70h195l70 -70v-226h-205v-93h85v50h120v-91l-70 -70h-195l-70 70v360zM162 296h75v93h-75v-93zM170 700l29 -52l29 52h123l-75 -135h-155l-74 135h123z" />
    <glyph glyph-name="Gcircumflex" unicode="&#x11c;" horiz-adv-x="430" 
d="M111 0l-71 71v559l71 70h209l70 -70v-143h-120v101h-100v-476h90v164h-45v112h175v-317l-70 -71h-209zM292 900l75 -135h-123l-29 52l-29 -52h-123l74 135h155z" />
    <glyph glyph-name="gcircumflex" unicode="&#x11d;" 
d="M32 430l70 70h99l36 -36v36h130v-630l-70 -70h-195l-70 70v91h120v-50h85v125l-36 -36h-99l-70 70v360zM162 111h75v278h-75v-278zM276 700l75 -135h-123l-29 52l-29 -52h-123l74 135h155z" />
    <glyph glyph-name="Gbreve" unicode="&#x11e;" horiz-adv-x="430" 
d="M111 0l-71 71v559l71 70h209l70 -70v-143h-120v101h-100v-476h90v164h-45v112h175v-317l-70 -71h-209zM252 900h100v-95l-40 -40h-194l-40 40v95h100v-48h74v48z" />
    <glyph glyph-name="gbreve" unicode="&#x11f;" 
d="M32 430l70 70h99l36 -36v36h130v-630l-70 -70h-195l-70 70v91h120v-50h85v125l-36 -36h-99l-70 70v360zM162 111h75v278h-75v-278zM236 700h100v-95l-40 -40h-194l-40 40v95h100v-48h74v48z" />
    <glyph glyph-name="Gdotaccent" unicode="&#x120;" horiz-adv-x="430" 
d="M111 0l-71 71v559l71 70h209l70 -70v-143h-120v101h-100v-476h90v164h-45v112h175v-317l-70 -71h-209zM147 891h136v-136h-136v136z" />
    <glyph glyph-name="gdotaccent" unicode="&#x121;" 
d="M32 430l70 70h99l36 -36v36h130v-630l-70 -70h-195l-70 70v91h120v-50h85v125l-36 -36h-99l-70 70v360zM162 111h75v278h-75v-278zM131 691h136v-136h-136v136z" />
    <glyph glyph-name="Gcommaaccent" unicode="&#x122;" horiz-adv-x="430" 
d="M111 0l-71 71v559l71 70h209l70 -70v-143h-120v101h-100v-476h90v164h-45v112h175v-317l-70 -71h-209zM134 -200l20 165h123l-20 -165h-123z" />
    <glyph glyph-name="gcommaaccent" unicode="&#x123;" 
d="M32 430l70 70h99l36 -36v36h130v-630l-70 -70h-195l-70 70v91h120v-50h85v125l-36 -36h-99l-70 70v360zM162 111h75v278h-75v-278zM281 700l-20 -165h-123l20 165h123z" />
    <glyph glyph-name="Hcircumflex" unicode="&#x124;" horiz-adv-x="444" 
d="M399 0h-130v299h-93v-299h-130v700h130v-289h93v289h130v-700zM299 900l75 -135h-123l-29 52l-29 -52h-123l74 135h155z" />
    <glyph glyph-name="hcircumflex" unicode="&#x125;" 
d="M237 389h-75v-389h-130v700h130v-236l37 36h98l70 -70v-430h-130v389zM174 900l75 -135h-123l-29 52l-29 -52h-123l74 135h155z" />
    <glyph glyph-name="Hbar" unicode="&#x126;" horiz-adv-x="444" 
d="M419 500h-20v-500h-130v299h-93v-299h-130v500h-20v110h20v90h130v-90h93v90h130v-90h20v-110zM269 411v89h-93v-89h93z" />
    <glyph glyph-name="hbar" unicode="&#x127;" horiz-adv-x="421" 
d="M270 554h-87v-90l37 36h98l70 -70v-430h-130v389h-75v-389h-130v554h-50v92h50v54h130v-54h87v-92z" />
    <glyph glyph-name="Itilde" unicode="&#x128;" horiz-adv-x="221" 
d="M176 0h-130v700h130v-700zM67 800v-35h-100v85l40 40l147 -25v35h100v-85l-40 -40z" />
    <glyph glyph-name="itilde" unicode="&#x129;" horiz-adv-x="207" 
d="M39 500h130v-500h-130v500zM60 600v-35h-100v85l40 40l147 -25v35h100v-85l-40 -40z" />
    <glyph glyph-name="Imacron" unicode="&#x12a;" horiz-adv-x="221" 
d="M176 0h-130v700h130v-700zM1 777v110h220v-110h-220z" />
    <glyph glyph-name="imacron" unicode="&#x12b;" horiz-adv-x="207" 
d="M39 500h130v-500h-130v500zM-6 577v110h220v-110h-220z" />
    <glyph glyph-name="Ibreve" unicode="&#x12c;" horiz-adv-x="221" 
d="M176 0h-130v700h130v-700zM148 900h100v-95l-40 -40h-194l-40 40v95h100v-48h74v48z" />
    <glyph glyph-name="ibreve" unicode="&#x12d;" horiz-adv-x="207" 
d="M39 500h130v-500h-130v500zM141 700h100v-95l-40 -40h-194l-40 40v95h100v-48h74v48z" />
    <glyph glyph-name="Iogonek" unicode="&#x12e;" horiz-adv-x="221" 
d="M176 0l-100 -100v-23h120v-77h-156l-36 37v90l73 73h-31v700h130v-700z" />
    <glyph glyph-name="iogonek" unicode="&#x12f;" horiz-adv-x="207" 
d="M39 500h130v-500l-100 -100v-23h120v-77h-156l-36 37v90l73 73h-31v500zM36 700h136v-136h-136v136z" />
    <glyph glyph-name="Idotaccent" unicode="&#x130;" horiz-adv-x="221" 
d="M176 0h-130v700h130v-700zM43 891h136v-136h-136v136z" />
    <glyph glyph-name="dotlessi" unicode="&#x131;" horiz-adv-x="207" 
d="M39 500h130v-500h-130v500z" />
    <glyph glyph-name="IJ" unicode="&#x132;" horiz-adv-x="593" 
d="M176 0h-130v700h130v-700zM308 0l-70 71v142h118v-101h62v588h130v-629l-70 -71h-170z" />
    <glyph glyph-name="ij" unicode="&#x133;" horiz-adv-x="386" 
d="M39 500h130v-500h-130v500zM36 691h136v-136h-136v136zM348 500v-638l-63 -62h-132v111h65v589h130zM215 691h136v-136h-136v136z" />
    <glyph glyph-name="Jcircumflex" unicode="&#x134;" horiz-adv-x="382" 
d="M97 0l-70 71v142h118v-101h62v588h130v-629l-70 -71h-170zM349 900l75 -135h-123l-29 52l-29 -52h-123l74 135h155z" />
    <glyph glyph-name="jcircumflex" unicode="&#x135;" horiz-adv-x="207" 
d="M169 500v-638l-63 -62h-132v111h65v589h130zM181 700l75 -135h-123l-29 52l-29 -52h-123l74 135h155z" />
    <glyph glyph-name="Kcommaaccent" unicode="&#x136;" horiz-adv-x="458" 
d="M294 410l159 -410h-140l-97 255l-40 -78v-177h-130v700h130v-278l128 278h137zM168 -200l20 165h123l-20 -165h-123z" />
    <glyph glyph-name="kcommaaccent" unicode="&#x137;" horiz-adv-x="414" 
d="M283 260l133 -260h-145l-102 212v-212h-130v700h130v-412l102 212h135zM136 -200l20 165h123l-20 -165h-123z" />
    <glyph glyph-name="kgreenlandic" unicode="&#x138;" horiz-adv-x="414" 
d="M283 260l133 -260h-145l-102 212v-212h-130v500h130v-212l102 212h135z" />
    <glyph glyph-name="Lacute" unicode="&#x139;" horiz-adv-x="373" 
d="M176 112h182v-112h-312v700h130v-588zM230 900l-58 -135h-123l58 135h123z" />
    <glyph glyph-name="lacute" unicode="&#x13a;" horiz-adv-x="207" 
d="M39 700h130v-700h-130v700zM223 900l-58 -135h-123l58 135h123z" />
    <glyph glyph-name="Lcommaaccent" unicode="&#x13b;" horiz-adv-x="373" 
d="M176 112h182v-112h-312v700h130v-588zM121 -200l20 165h123l-20 -165h-123z" />
    <glyph glyph-name="lcommaaccent" unicode="&#x13c;" horiz-adv-x="207" 
d="M39 700h130v-700h-130v700zM23 -200l20 165h123l-20 -165h-123z" />
    <glyph glyph-name="Lcaron" unicode="&#x13d;" horiz-adv-x="373" 
d="M176 112h182v-112h-312v700h130v-588zM243 525l20 175h83l-20 -175h-83z" />
    <glyph glyph-name="lcaron" unicode="&#x13e;" horiz-adv-x="207" 
d="M39 700h130v-700h-130v700zM192 525l20 175h83l-20 -175h-83z" />
    <glyph glyph-name="Ldot" unicode="&#x13f;" horiz-adv-x="373" 
d="M176 112h182v-112h-312v700h130v-588zM238 403h130v-130h-130v130z" />
    <glyph glyph-name="ldot" unicode="&#x140;" horiz-adv-x="337" 
d="M39 700h130v-700h-130v700zM209 360h130v-130h-130v130z" />
    <glyph glyph-name="Lslash" unicode="&#x141;" horiz-adv-x="403" 
d="M336 400l-130 -88v-200h182v-112h-312v225l-60 -40v110l60 40v365h130v-278l130 88v-110z" />
    <glyph glyph-name="lslash" unicode="&#x142;" horiz-adv-x="277" 
d="M263 408l-62 -55v-353h-130v239l-52 -45v102l52 45v359h130v-245l62 55v-102z" />
    <glyph glyph-name="Nacute" unicode="&#x143;" horiz-adv-x="444" 
d="M289 700h109v-700h-129l-114 367v-367h-109v700h128l115 -368v368zM341 900l-58 -135h-123l58 135h123z" />
    <glyph glyph-name="nacute" unicode="&#x144;" 
d="M237 389h-75v-389h-130v500h130v-36l37 36h98l70 -70v-430h-130v389zM318 700l-58 -135h-123l58 135h123z" />
    <glyph glyph-name="Ncommaaccent" unicode="&#x145;" horiz-adv-x="444" 
d="M289 700h109v-700h-129l-114 367v-367h-109v700h128l115 -368v368zM141 -200l20 165h123l-20 -165h-123z" />
    <glyph glyph-name="ncommaaccent" unicode="&#x146;" 
d="M237 389h-75v-389h-130v500h130v-36l37 36h98l70 -70v-430h-130v389zM118 -200l20 165h123l-20 -165h-123z" />
    <glyph glyph-name="Ncaron" unicode="&#x147;" horiz-adv-x="444" 
d="M289 700h109v-700h-129l-114 367v-367h-109v700h128l115 -368v368zM193 900l29 -52l29 52h123l-75 -135h-155l-74 135h123z" />
    <glyph glyph-name="ncaron" unicode="&#x148;" 
d="M237 389h-75v-389h-130v500h130v-36l37 36h98l70 -70v-430h-130v389zM170 700l29 -52l29 52h123l-75 -135h-155l-74 135h123z" />
    <glyph glyph-name="Eng" unicode="&#x14a;" horiz-adv-x="444" 
d="M289 700h109v-838l-63 -62h-132v111h65v92l-113 364v-367h-109v700h128l115 -368v368z" />
    <glyph glyph-name="eng" unicode="&#x14b;" 
d="M162 389v-389h-130v500h130v-36l37 36h98l70 -70v-568l-63 -62h-132v111h65v478h-75z" />
    <glyph glyph-name="Omacron" unicode="&#x14c;" horiz-adv-x="430" 
d="M390 71l-70 -71h-209l-71 71v559l71 70h209l70 -70v-559zM260 588h-90v-476h90v476zM105 777v110h220v-110h-220z" />
    <glyph glyph-name="omacron" unicode="&#x14d;" 
d="M102 0l-70 70v360l70 70h195l70 -70v-360l-70 -70h-195zM162 111h75v278h-75v-278zM89 577v110h220v-110h-220z" />
    <glyph glyph-name="Obreve" unicode="&#x14e;" horiz-adv-x="430" 
d="M390 71l-70 -71h-209l-71 71v559l71 70h209l70 -70v-559zM260 588h-90v-476h90v476zM252 900h100v-95l-40 -40h-194l-40 40v95h100v-48h74v48z" />
    <glyph glyph-name="obreve" unicode="&#x14f;" 
d="M102 0l-70 70v360l70 70h195l70 -70v-360l-70 -70h-195zM162 111h75v278h-75v-278zM236 700h100v-95l-40 -40h-194l-40 40v95h100v-48h74v48z" />
    <glyph glyph-name="Ohungarumlaut" unicode="&#x150;" horiz-adv-x="430" 
d="M390 71l-70 -71h-209l-71 71v559l71 70h209l70 -70v-559zM260 588h-90v-476h90v476zM248 900l-58 -135h-110l58 135h110zM391 900l-58 -135h-110l58 135h110z" />
    <glyph glyph-name="ohungarumlaut" unicode="&#x151;" 
d="M102 0l-70 70v360l70 70h195l70 -70v-360l-70 -70h-195zM162 111h75v278h-75v-278zM232 700l-58 -135h-110l58 135h110zM375 700l-58 -135h-110l58 135h110z" />
    <glyph glyph-name="OE" unicode="&#x152;" horiz-adv-x="618" 
d="M111 0l-71 71v559l71 70h481v-112h-202v-177h166v-112h-166v-187h202v-112h-481zM260 588h-90v-476h90v476z" />
    <glyph glyph-name="oe" unicode="&#x153;" horiz-adv-x="605" 
d="M102 0l-70 70v360l70 70h165l38 -38l38 38h159l70 -70v-226h-205v-93h85v50h120v-91l-70 -70h-159l-38 38l-38 -38h-165zM162 111h75v278h-75v-278zM367 296h75v93h-75v-93z" />
    <glyph glyph-name="Racute" unicode="&#x154;" horiz-adv-x="429" 
d="M176 0h-130v700h279l71 -70v-309l-47 -46l61 -275h-128l-53 251h-53v-251zM176 363h90v225h-90v-225zM337 900l-58 -135h-123l58 135h123z" />
    <glyph glyph-name="racute" unicode="&#x155;" horiz-adv-x="342" 
d="M217 389h-55v-389h-130v500h130v-36l37 36h68l55 -55v-106h-105v50zM296 700l-58 -135h-123l58 135h123z" />
    <glyph glyph-name="Rcommaaccent" unicode="&#x156;" horiz-adv-x="429" 
d="M176 0h-130v700h279l71 -70v-309l-47 -46l61 -275h-128l-53 251h-53v-251zM176 363h90v225h-90v-225zM147 -200l20 165h123l-20 -165h-123z" />
    <glyph glyph-name="rcommaaccent" unicode="&#x157;" horiz-adv-x="342" 
d="M217 389h-55v-389h-130v500h130v-36l37 36h68l55 -55v-106h-105v50zM14 -200l20 165h123l-20 -165h-123z" />
    <glyph glyph-name="Rcaron" unicode="&#x158;" horiz-adv-x="429" 
d="M176 0h-130v700h279l71 -70v-309l-47 -46l61 -275h-128l-53 251h-53v-251zM176 363h90v225h-90v-225zM189 900l29 -52l29 52h123l-75 -135h-155l-74 135h123z" />
    <glyph glyph-name="rcaron" unicode="&#x159;" horiz-adv-x="342" 
d="M217 389h-55v-389h-130v500h130v-36l37 36h68l55 -55v-106h-105v50zM148 700l29 -52l29 52h123l-75 -135h-155l-74 135h123z" />
    <glyph glyph-name="Sacute" unicode="&#x15a;" horiz-adv-x="423" 
d="M258 299h-144l-70 71v260l70 70h196l70 -70v-143h-122v101h-84v-177h144l70 -70v-270l-70 -71h-212l-71 71v142h122v-101h101v187zM330 900l-58 -135h-123l58 135h123z" />
    <glyph glyph-name="sacute" unicode="&#x15b;" 
d="M367 70l-70 -70h-195l-70 70v91h120v-50h85v93h-134l-62 62v164l70 70h178l70 -70v-91h-120v50h-68v-93h134l62 -62v-164zM318 700l-58 -135h-123l58 135h123z" />
    <glyph glyph-name="Scircumflex" unicode="&#x15c;" horiz-adv-x="423" 
d="M258 299h-144l-70 71v260l70 70h196l70 -70v-143h-122v101h-84v-177h144l70 -70v-270l-70 -71h-212l-71 71v142h122v-101h101v187zM288 900l75 -135h-123l-29 52l-29 -52h-123l74 135h155z" />
    <glyph glyph-name="scircumflex" unicode="&#x15d;" 
d="M367 70l-70 -70h-195l-70 70v91h120v-50h85v93h-134l-62 62v164l70 70h178l70 -70v-91h-120v50h-68v-93h134l62 -62v-164zM276 700l75 -135h-123l-29 52l-29 -52h-123l74 135h155z" />
    <glyph glyph-name="Scedilla" unicode="&#x15e;" horiz-adv-x="423" 
d="M258 299h-144l-70 71v260l70 70h196l70 -70v-143h-122v101h-84v-177h144l70 -70v-270l-70 -71h-212l-71 71v142h122v-101h101v187zM239 -58h45l30 -30v-82l-30 -30h-147v63h107v22h-41l-20 20v72h56v-35z" />
    <glyph glyph-name="scedilla" unicode="&#x15f;" 
d="M367 70l-70 -70h-195l-70 70v91h120v-50h85v93h-134l-62 62v164l70 70h178l70 -70v-91h-120v50h-68v-93h134l62 -62v-164zM227 -58h45l30 -30v-82l-30 -30h-147v63h107v22h-41l-20 20v72h56v-35z" />
    <glyph glyph-name="Scaron" unicode="&#x160;" horiz-adv-x="423" 
d="M258 299h-144l-70 71v260l70 70h196l70 -70v-143h-122v101h-84v-177h144l70 -70v-270l-70 -71h-212l-71 71v142h122v-101h101v187zM182 900l29 -52l29 52h123l-75 -135h-155l-74 135h123z" />
    <glyph glyph-name="scaron" unicode="&#x161;" 
d="M367 70l-70 -70h-195l-70 70v91h120v-50h85v93h-134l-62 62v164l70 70h178l70 -70v-91h-120v50h-68v-93h134l62 -62v-164zM170 700l29 -52l29 52h123l-75 -135h-155l-74 135h123z" />
    <glyph glyph-name="Tcommaaccent" unicode="&#x162;" horiz-adv-x="408" 
d="M15 700h378v-112h-124v-588h-130v588h-124v112zM123 -200l20 165h123l-20 -165h-123z" />
    <glyph glyph-name="tcommaaccent" unicode="&#x163;" horiz-adv-x="324" 
d="M20 500h52v100h130v-100h95v-111h-95v-278h85v-111h-152l-63 63v326h-52v111zM87 -200l20 165h123l-20 -165h-123z" />
    <glyph glyph-name="Tcaron" unicode="&#x164;" horiz-adv-x="408" 
d="M15 700h378v-112h-124v-588h-130v588h-124v112zM175 900l29 -52l29 52h123l-75 -135h-155l-74 135h123z" />
    <glyph glyph-name="tcaron" unicode="&#x165;" horiz-adv-x="324" 
d="M20 500h52v100h130v-100h95v-111h-95v-278h85v-111h-152l-63 63v326h-52v111zM225 525l20 175h83l-20 -175h-83z" />
    <glyph glyph-name="Tbar" unicode="&#x166;" horiz-adv-x="408" 
d="M347 271h-78v-271h-130v271h-78v112h78v205h-124v112h378v-112h-124v-205h78v-112z" />
    <glyph glyph-name="tbar" unicode="&#x167;" horiz-adv-x="324" 
d="M287 204h-85v-93h85v-111h-152l-63 63v141h-50v92h50v93h-52v111h52v100h130v-100h95v-111h-95v-93h85v-92z" />
    <glyph glyph-name="Utilde" unicode="&#x168;" horiz-adv-x="437" 
d="M269 700h123v-629l-70 -71h-206l-70 71v629h128v-588h95v588zM175 800v-35h-100v85l40 40l147 -25v35h100v-85l-40 -40z" />
    <glyph glyph-name="utilde" unicode="&#x169;" 
d="M162 111h75v389h130v-500h-130v36l-36 -36h-99l-70 70v430h130v-389zM155 600v-35h-100v85l40 40l147 -25v35h100v-85l-40 -40z" />
    <glyph glyph-name="Umacron" unicode="&#x16a;" horiz-adv-x="437" 
d="M269 700h123v-629l-70 -71h-206l-70 71v629h128v-588h95v588zM109 777v110h220v-110h-220z" />
    <glyph glyph-name="umacron" unicode="&#x16b;" 
d="M162 111h75v389h130v-500h-130v36l-36 -36h-99l-70 70v430h130v-389zM89 577v110h220v-110h-220z" />
    <glyph glyph-name="Ubreve" unicode="&#x16c;" horiz-adv-x="437" 
d="M269 700h123v-629l-70 -71h-206l-70 71v629h128v-588h95v588zM256 900h100v-95l-40 -40h-194l-40 40v95h100v-48h74v48z" />
    <glyph glyph-name="ubreve" unicode="&#x16d;" 
d="M162 111h75v389h130v-500h-130v36l-36 -36h-99l-70 70v430h130v-389zM236 700h100v-95l-40 -40h-194l-40 40v95h100v-48h74v48z" />
    <glyph glyph-name="Uring" unicode="&#x16e;" horiz-adv-x="437" 
d="M269 700h123v-629l-70 -71h-206l-70 71v629h128v-588h95v588zM189 796h59v54h-59v-54zM137 870l30 30h104l30 -30v-93l-30 -30h-104l-30 30v93z" />
    <glyph glyph-name="uring" unicode="&#x16f;" 
d="M162 111h75v389h130v-500h-130v36l-36 -36h-99l-70 70v430h130v-389zM169 596h59v54h-59v-54zM117 670l30 30h104l30 -30v-93l-30 -30h-104l-30 30v93z" />
    <glyph glyph-name="Uhungarumlaut" unicode="&#x170;" horiz-adv-x="437" 
d="M269 700h123v-629l-70 -71h-206l-70 71v629h128v-588h95v588zM252 900l-58 -135h-110l58 135h110zM395 900l-58 -135h-110l58 135h110z" />
    <glyph glyph-name="uhungarumlaut" unicode="&#x171;" 
d="M162 111h75v389h130v-500h-130v36l-36 -36h-99l-70 70v430h130v-389zM232 700l-58 -135h-110l58 135h110zM375 700l-58 -135h-110l58 135h110z" />
    <glyph glyph-name="Uogonek" unicode="&#x172;" horiz-adv-x="437" 
d="M269 700h123v-629l-70 -71l-100 -100v-23h120v-77h-156l-36 37v90l73 73h-107l-70 71v629h128v-588h95v588z" />
    <glyph glyph-name="uogonek" unicode="&#x173;" 
d="M162 111h75v389h130v-500l-100 -100v-23h120v-77h-156l-36 37v90l73 73h-31v36l-36 -36h-99l-70 70v430h130v-389z" />
    <glyph glyph-name="Wcircumflex" unicode="&#x174;" horiz-adv-x="624" 
d="M389 900l75 -135h-123l-29 52l-29 -52h-123l74 135h155zM144 700l34 -508h4l60 448h149l61 -449h4l34 509h114l-62 -700h-170l-54 431h-4l-56 -431h-177l-61 700h124z" />
    <glyph glyph-name="wcircumflex" unicode="&#x175;" horiz-adv-x="584" 
d="M369 700l75 -135h-123l-29 52l-29 -52h-123l74 135h155zM292 362h-4l-47 -362h-172l-55 500h118l31 -355h4l51 355h156l51 -356h4l30 356h111l-55 -500h-176z" />
    <glyph glyph-name="Ycircumflex" unicode="&#x176;" horiz-adv-x="421" 
d="M275 234v-234h-130v234l-136 466h133l73 -270l73 270h123zM287 900l75 -135h-123l-29 52l-29 -52h-123l74 135h155z" />
    <glyph glyph-name="ycircumflex" unicode="&#x177;" horiz-adv-x="397" 
d="M279 700l75 -135h-123l-29 52l-29 -52h-123l74 135h155zM137 -6l-127 506h126l65 -330h4l64 330h125l-123 -500l-45 -200h-140z" />
    <glyph glyph-name="Ydieresis" unicode="&#x178;" horiz-adv-x="421" 
d="M275 234v-234h-130v234l-136 466h133l73 -270l73 270h123zM53 891h136v-136h-136v136zM232 891h136v-136h-136v136z" />
    <glyph glyph-name="Zacute" unicode="&#x179;" horiz-adv-x="385" 
d="M17 0v122l213 466h-205v112h336v-122l-213 -466h220v-112h-351zM311 900l-58 -135h-123l58 135h123z" />
    <glyph glyph-name="zacute" unicode="&#x17a;" horiz-adv-x="376" 
d="M26 104l169 285h-161v111h308v-104l-171 -285h179v-111h-324v104zM307 700l-58 -135h-123l58 135h123z" />
    <glyph glyph-name="Zdotaccent" unicode="&#x17b;" horiz-adv-x="385" 
d="M17 0v122l213 466h-205v112h336v-122l-213 -466h220v-112h-351zM124 891h136v-136h-136v136z" />
    <glyph glyph-name="zdotaccent" unicode="&#x17c;" horiz-adv-x="376" 
d="M26 104l169 285h-161v111h308v-104l-171 -285h179v-111h-324v104zM120 691h136v-136h-136v136z" />
    <glyph glyph-name="Zcaron" unicode="&#x17d;" horiz-adv-x="385" 
d="M17 0v122l213 466h-205v112h336v-122l-213 -466h220v-112h-351zM163 900l29 -52l29 52h123l-75 -135h-155l-74 135h123z" />
    <glyph glyph-name="zcaron" unicode="&#x17e;" horiz-adv-x="376" 
d="M26 104l169 285h-161v111h308v-104l-171 -285h179v-111h-324v104zM159 700l29 -52l29 52h123l-75 -135h-155l-74 135h123z" />
    <glyph glyph-name="florin" unicode="&#x192;" horiz-adv-x="427" 
d="M322 303h-112v-372l-70 -70h-108v112h48v330h-48v92h48v235l70 70h175l70 -70v-110h-120v68h-65v-193h112v-92z" />
    <glyph glyph-name="Scommaaccent" unicode="&#x218;" horiz-adv-x="423" 
d="M258 299h-144l-70 71v260l70 70h196l70 -70v-143h-122v101h-84v-177h144l70 -70v-270l-70 -71h-212l-71 71v142h122v-101h101v187zM130 -200l20 165h123l-20 -165h-123z" />
    <glyph glyph-name="scommaaccent" unicode="&#x219;" 
d="M367 70l-70 -70h-195l-70 70v91h120v-50h85v93h-134l-62 62v164l70 70h178l70 -70v-91h-120v50h-68v-93h134l62 -62v-164zM118 -200l20 165h123l-20 -165h-123z" />
    <glyph glyph-name="dotlessj" unicode="&#x237;" horiz-adv-x="207" 
d="M169 500v-638l-63 -62h-132v111h65v589h130z" />
    <glyph glyph-name="circumflex" unicode="&#x2c6;" horiz-adv-x="402" 
d="M278 700l75 -135h-123l-29 52l-29 -52h-123l74 135h155z" />
    <glyph glyph-name="caron" unicode="&#x2c7;" horiz-adv-x="402" 
d="M172 700l29 -52l29 52h123l-75 -135h-155l-74 135h123z" />
    <glyph glyph-name="breve" unicode="&#x2d8;" horiz-adv-x="402" 
d="M238 700h100v-95l-40 -40h-194l-40 40v95h100v-48h74v48z" />
    <glyph glyph-name="dotaccent" unicode="&#x2d9;" horiz-adv-x="402" 
d="M133 691h136v-136h-136v136z" />
    <glyph glyph-name="ring" unicode="&#x2da;" horiz-adv-x="402" 
d="M171 596h59v54h-59v-54zM119 670l30 30h104l30 -30v-93l-30 -30h-104l-30 30v93z" />
    <glyph glyph-name="ogonek" unicode="&#x2db;" horiz-adv-x="404" 
d="M269 -100v-23h120v-77h-156l-36 37v90l103 103l69 -30z" />
    <glyph glyph-name="tilde" unicode="&#x2dc;" horiz-adv-x="402" 
d="M157 600v-35h-100v85l40 40l147 -25v35h100v-85l-40 -40z" />
    <glyph glyph-name="hungarumlaut" unicode="&#x2dd;" horiz-adv-x="402" 
d="M242 700l-58 -135h-110l58 135h110zM385 700l-58 -135h-110l58 135h110z" />
    <glyph glyph-name="Iocyrillic" unicode="&#x401;" 
d="M45 0v700h332v-112h-202v-177h167v-112h-167v-187h202v-112h-332zM54 891h136v-135h-136v135zM234 891h136v-135h-136v135z" />
    <glyph glyph-name="Djecyrillic" unicode="&#x402;" horiz-adv-x="524" 
d="M271 0h-130v588h-121v112h371v-112h-120v-212l37 36h112l71 -70v-272l-71 -70h-97v112h38v188h-90v-300z" />
    <glyph glyph-name="Gjecyrillic" unicode="&#x403;" horiz-adv-x="362" 
d="M175 0h-130v700h302v-112h-172v-588zM316 900l-58 -135h-124l58 135h124z" />
    <glyph glyph-name="Ecyrillic" unicode="&#x404;" horiz-adv-x="413" 
d="M109 0l-71 71v558l71 71h198l71 -71v-141h-120v100h-90v-177h153v-112h-153v-187h90v100h120v-141l-71 -71h-198z" />
    <glyph glyph-name="Dzecyrillic" unicode="&#x405;" horiz-adv-x="423" 
d="M258 299h-144l-70 71v260l70 70h196l70 -70v-143h-122v101h-84v-177h144l70 -70v-270l-70 -71h-212l-71 71v142h122v-101h101v187z" />
    <glyph glyph-name="Icyrillic" unicode="&#x406;" horiz-adv-x="221" 
d="M176 0h-130v700h130v-700z" />
    <glyph glyph-name="Yicyrillic" unicode="&#x407;" horiz-adv-x="221" 
d="M176 0h-130v700h130v-700zM-46 891h136v-136h-136v136zM133 891h136v-136h-136v136z" />
    <glyph glyph-name="Jecyrillic" unicode="&#x408;" horiz-adv-x="382" 
d="M97 0l-70 71v142h118v-101h62v588h130v-629l-70 -71h-170z" />
    <glyph glyph-name="Ljecyrillic" unicode="&#x409;" horiz-adv-x="631" 
d="M220 545h-4l-68 -545h-128l102 700h195l42 -289h181l71 -70v-270l-71 -71h-253zM481 299h-106l27 -187h79v187z" />
    <glyph glyph-name="Njecyrillic" unicode="&#x40a;" horiz-adv-x="651" 
d="M619 71l-71 -71h-279v299h-94v-299h-130v700h130v-289h94v289h130v-289h149l71 -70v-270zM489 299h-90v-187h90v187z" />
    <glyph glyph-name="Tshecyrillic" unicode="&#x40b;" horiz-adv-x="528" 
d="M491 0h-130v299h-90v-299h-130v588h-121v112h371v-112h-120v-177h149l71 -70v-341z" />
    <glyph glyph-name="Kjecyrillic" unicode="&#x40c;" horiz-adv-x="458" 
d="M295 410l153 -410h-140l-94 260l-39 -86v-174h-130v700h130v-292l124 292h137zM357 900l-58 -135h-124l58 135h124z" />
    <glyph glyph-name="Ushortcyrillic" unicode="&#x40e;" horiz-adv-x="408" 
d="M269 229l-60 -229h-125l62 229l-137 471h134l67 -278l67 278h122zM241 900h100v-95l-40 -40h-194l-40 40v95h100v-49h74v49z" />
    <glyph glyph-name="Dzhecyrillic" unicode="&#x40f;" horiz-adv-x="451" 
d="M45 700h130v-588h94v588h130v-700h-121v-100h-112v100h-121v700z" />
    <glyph glyph-name="Acyrillic" unicode="&#x410;" horiz-adv-x="429" 
d="M284 0l-22 168h-96l-21 -168h-128l104 700h191l104 -700h-132zM181 280h67l-33 255z" />
    <glyph glyph-name="Becyrillic" unicode="&#x411;" horiz-adv-x="428" 
d="M176 412h149l71 -70v-272l-71 -70h-279v700h322v-112h-192v-176zM176 112h90v188h-90v-188z" />
    <glyph glyph-name="Vecyrillic" unicode="&#x412;" horiz-adv-x="436" 
d="M396 71l-71 -71h-279v700h269l70 -70v-235l-35 -35l46 -45v-244zM176 112h90v187h-90v-187zM176 411h80v177h-80v-177z" />
    <glyph glyph-name="Gecyrillic" unicode="&#x413;" horiz-adv-x="362" 
d="M175 0h-130v700h302v-112h-172v-588z" />
    <glyph glyph-name="Decyrillic" unicode="&#x414;" horiz-adv-x="479" 
d="M17 -100v212h38l86 588h195l85 -588h41v-212h-112v100h-221v-100h-112zM181 112h111l-53 433h-4z" />
    <glyph glyph-name="Iecyrillic" unicode="&#x415;" horiz-adv-x="404" 
d="M46 0v700h332v-112h-202v-177h166v-112h-166v-187h202v-112h-332z" />
    <glyph glyph-name="Zhecyrillic" unicode="&#x416;" horiz-adv-x="695" 
d="M18 700h137l128 -278v278h130v-278l128 278h137l-147 -290l159 -410h-140l-97 255l-40 -78v-177h-130v177l-40 78l-97 -255h-140l159 410z" />
    <glyph glyph-name="Zecyrillic" unicode="&#x417;" horiz-adv-x="420" 
d="M35 629l71 71h196l71 -71v-237l-34 -33l41 -41v-247l-71 -71h-205l-71 71v141h120v-100h95v187h-153v112h148v177h-88v-100h-120v141z" />
    <glyph glyph-name="Iicyrillic" unicode="&#x418;" horiz-adv-x="442" 
d="M171 335l113 365h112v-700h-126v365l-113 -365h-112v700h126v-365z" />
    <glyph glyph-name="Iishortcyrillic" unicode="&#x419;" horiz-adv-x="442" 
d="M171 335l113 365h112v-700h-126v365l-113 -365h-112v700h126v-365zM257 900h100v-95l-40 -40h-193l-40 40v95h100v-49h73v49z" />
    <glyph glyph-name="Kacyrillic" unicode="&#x41a;" horiz-adv-x="458" 
d="M294 410l159 -410h-140l-97 255l-40 -78v-177h-130v700h130v-278l128 278h137z" />
    <glyph glyph-name="Elcyrillic" unicode="&#x41b;" horiz-adv-x="439" 
d="M220 545h-4l-68 -545h-128l102 700h195l102 -700h-132z" />
    <glyph glyph-name="Emcyrillic" unicode="&#x41c;" horiz-adv-x="558" 
d="M158 393v-393h-112v700h140l91 -321l91 321h144v-700h-130v402l-73 -272h-80z" />
    <glyph glyph-name="Encyrillic" unicode="&#x41d;" horiz-adv-x="444" 
d="M399 0h-130v299h-93v-299h-130v700h130v-289h93v289h130v-700z" />
    <glyph glyph-name="Ocyrillic" unicode="&#x41e;" horiz-adv-x="430" 
d="M390 71l-70 -71h-209l-71 71v559l71 70h209l70 -70v-559zM260 588h-90v-476h90v476z" />
    <glyph glyph-name="Pecyrillic" unicode="&#x41f;" horiz-adv-x="444" 
d="M399 0h-130v588h-94v-588h-130v700h354v-700z" />
    <glyph glyph-name="Ercyrillic" unicode="&#x420;" horiz-adv-x="436" 
d="M176 0h-130v700h279l71 -70v-309l-71 -70h-149v-251zM176 363h90v225h-90v-225z" />
    <glyph glyph-name="Escyrillic" unicode="&#x421;" horiz-adv-x="425" 
d="M111 0l-71 71v559l71 70h204l70 -70v-142h-119v100h-96v-476h96v100h119v-141l-70 -71h-204z" />
    <glyph glyph-name="Tecyrillic" unicode="&#x422;" horiz-adv-x="408" 
d="M15 700h378v-112h-124v-588h-130v588h-124v112z" />
    <glyph glyph-name="Ucyrillic" unicode="&#x423;" horiz-adv-x="408" 
d="M269 229l-60 -229h-125l62 229l-137 471h134l67 -278l67 278h122z" />
    <glyph glyph-name="Efcyrillic" unicode="&#x424;" horiz-adv-x="615" 
d="M33 504l71 70h139v126h130v-126h139l71 -70v-308l-71 -70h-139v-126h-130v126h-139l-71 70v308zM453 462h-80v-224h80v224zM163 238h80v224h-80v-224z" />
    <glyph glyph-name="Xacyrillic" unicode="&#x425;" horiz-adv-x="460" 
d="M152 700l83 -201l79 201h128l-143 -340l153 -360h-136l-93 221l-87 -221h-128l151 359l-144 341h137z" />
    <glyph glyph-name="Tsecyrillic" unicode="&#x426;" horiz-adv-x="476" 
d="M45 700h130v-588h94v588h130v-588h56v-212h-112v100h-298v700z" />
    <glyph glyph-name="Checyrillic" unicode="&#x427;" horiz-adv-x="430" 
d="M35 700h130v-299h90v299h130v-700h-130v289h-149l-71 70v341z" />
    <glyph glyph-name="Shacyrillic" unicode="&#x428;" horiz-adv-x="647" 
d="M45 700h130v-588h84v588h130v-588h83v588h130v-700h-557v700z" />
    <glyph glyph-name="Shchacyrillic" unicode="&#x429;" horiz-adv-x="675" 
d="M45 700h130v-588h84v588h130v-588h83v588h130v-588h56v-212h-111v100h-502v700z" />
    <glyph glyph-name="Hardsigncyrillic" unicode="&#x42a;" horiz-adv-x="490" 
d="M386 411l71 -70v-270l-71 -71h-279v588h-87v112h217v-289h149zM327 299h-90v-187h90v187z" />
    <glyph glyph-name="Yericyrillic" unicode="&#x42b;" horiz-adv-x="613" 
d="M395 71l-71 -71h-279v700h130v-289h149l71 -70v-270zM265 299h-90v-187h90v187zM568 0h-130v700h130v-700z" />
    <glyph glyph-name="Softsigncyrillic" unicode="&#x42c;" horiz-adv-x="428" 
d="M395 71l-71 -71h-279v700h130v-289h149l71 -70v-270zM265 299h-90v-187h90v187z" />
    <glyph glyph-name="Ereversedcyrillic" unicode="&#x42d;" horiz-adv-x="413" 
d="M106 0l-71 71v141h120v-100h90v187h-153v112h153v177h-90v-100h-120v141l71 71h198l71 -71v-558l-71 -71h-198z" />
    <glyph glyph-name="IUcyrillic" unicode="&#x42e;" horiz-adv-x="635" 
d="M598 71l-71 -71h-198l-71 71v228h-83v-299h-130v700h130v-289h83v218l71 71h198l71 -71v-558zM468 588h-80v-476h80v476z" />
    <glyph glyph-name="IAcyrillic" unicode="&#x42f;" horiz-adv-x="441" 
d="M176 363h90v225h-90v-225zM46 629l71 71h279v-700h-130v251h-61l-53 -251h-128l65 281l-43 43v305z" />
    <glyph glyph-name="acyrillic" unicode="&#x430;" 
d="M367 0h-130v36l-36 -36h-99l-70 70v160l70 70h135v89h-75v-50h-120v91l70 70h185l70 -70v-430zM162 111h75v97h-75v-97z" />
    <glyph glyph-name="becyrillic" unicode="&#x431;" 
d="M162 464l37 36h98l70 -70v-360l-70 -70h-195l-70 70v560l70 70h153v60h106v-101l-70 -70h-129v-125zM237 111v278h-75v-278h75z" />
    <glyph glyph-name="vecyrillic" unicode="&#x432;" horiz-adv-x="404" 
d="M32 0v500h269l70 -70v-140l-40 -40l40 -40v-140l-70 -70h-269zM241 111v93h-79v-93h79zM241 389h-79v-93h79v93z" />
    <glyph glyph-name="gecyrillic" unicode="&#x433;" horiz-adv-x="303" 
d="M285 389h-123v-389h-130v500h253v-111z" />
    <glyph glyph-name="decyrillic" unicode="&#x434;" horiz-adv-x="422" 
d="M15 -100v211h31l73 389h186l73 -389h29v-211h-106v100h-180v-100h-106zM164 111h90l-42 261h-4z" />
    <glyph glyph-name="iecyrillic" unicode="&#x435;" 
d="M32 430l70 70h195l70 -70v-226h-205v-93h85v50h120v-91l-70 -70h-195l-70 70v360zM162 296h75v93h-75v-93z" />
    <glyph glyph-name="zhecyrillic" unicode="&#x436;" horiz-adv-x="620" 
d="M8 500h135l102 -212v212h130v-212l102 212h135l-123 -240l133 -260h-145l-102 212v-212h-130v212l-102 -212h-145l133 260z" />
    <glyph glyph-name="zecyrillic" unicode="&#x437;" horiz-adv-x="394" 
d="M102 0l-70 70v91h120v-50h79v93h-129v92h129v93h-79v-50h-120v91l70 70h189l70 -70v-140l-40 -40l40 -40v-140l-70 -70h-189z" />
    <glyph glyph-name="iicyrillic" unicode="&#x438;" horiz-adv-x="414" 
d="M177 0h-144v500h117v-275l87 275h144v-500h-117v275z" />
    <glyph glyph-name="iishortcyrillic" unicode="&#x439;" horiz-adv-x="414" 
d="M177 0h-144v500h117v-275l87 275h144v-500h-117v275zM244 700h100v-95l-40 -40h-194l-40 40v95h100v-46h74v46z" />
    <glyph glyph-name="kacyrillic" unicode="&#x43a;" horiz-adv-x="414" 
d="M283 260l133 -260h-145l-102 212v-212h-130v500h130v-212l102 212h135z" />
    <glyph glyph-name="elcyrillic" unicode="&#x43b;" 
d="M107 500h186l94 -500h-127l-60 372h-4l-62 -372h-121z" />
    <glyph glyph-name="emcyrillic" unicode="&#x43c;" horiz-adv-x="534" 
d="M217 65l-62 218v-283h-122v500h163l72 -249l71 249h162v-500h-122v283l-62 -218h-100z" />
    <glyph glyph-name="encyrillic" unicode="&#x43d;" 
d="M237 500h130v-500h-130v195h-75v-195h-130v500h130v-194h75v194z" />
    <glyph glyph-name="ocyrillic" unicode="&#x43e;" 
d="M102 0l-70 70v360l70 70h195l70 -70v-360l-70 -70h-195zM162 111h75v278h-75v-278z" />
    <glyph glyph-name="pecyrillic" unicode="&#x43f;" 
d="M237 389h-75v-389h-130v500h335v-500h-130v389z" />
    <glyph glyph-name="ercyrillic" unicode="&#x440;" 
d="M367 70l-70 -70h-98l-37 36v-236h-130v700h130v-36l37 36h98l70 -70v-360zM162 111h75v278h-75v-278z" />
    <glyph glyph-name="escyrillic" unicode="&#x441;" horiz-adv-x="394" 
d="M102 0l-70 70v360l70 70h189l70 -70v-130h-120v89h-79v-278h79v89h120v-130l-70 -70h-189z" />
    <glyph glyph-name="tecyrillic" unicode="&#x442;" horiz-adv-x="350" 
d="M15 500h320v-111h-95v-389h-130v389h-95v111z" />
    <glyph glyph-name="ucyrillic" unicode="&#x443;" horiz-adv-x="397" 
d="M137 -6l-127 506h126l65 -330h4l64 330h125l-123 -500l-45 -200h-140z" />
    <glyph glyph-name="efcyrillic" unicode="&#x444;" horiz-adv-x="606" 
d="M33 430l70 70h98l37 -36v236h130v-236l37 36h98l70 -70v-360l-70 -70h-98l-37 36v-236h-130v236l-37 -36h-98l-70 70v360zM368 111h75v278h-75v-278zM238 389h-75v-278h75v278z" />
    <glyph glyph-name="hacyrillic" unicode="&#x445;" horiz-adv-x="410" 
d="M205 151l-62 -151h-141l118 260l-108 240h131l62 -152l62 152h131l-108 -240l118 -260h-141z" />
    <glyph glyph-name="tsecyrillic" unicode="&#x446;" horiz-adv-x="428" 
d="M237 500h130v-389h53v-211h-106v100h-282v500h130v-389h75v389z" />
    <glyph glyph-name="checyrillic" unicode="&#x447;" 
d="M162 281h75v219h130v-500h-130v206l-37 -36h-98l-70 70v260h130v-219z" />
    <glyph glyph-name="shacyrillic" unicode="&#x448;" horiz-adv-x="605" 
d="M237 500h130v-389h75v389h130v-500h-540v500h130v-389h75v389z" />
    <glyph glyph-name="shchacyrillic" unicode="&#x449;" horiz-adv-x="633" 
d="M442 500h130v-389h53v-211h-106v100h-487v500h130v-389h75v389h130v-389h75v389z" />
    <glyph glyph-name="hardsigncyrillic" unicode="&#x44a;" horiz-adv-x="473" 
d="M15 500h225v-194h135l70 -70v-166l-70 -70h-265v389h-95v111zM240 195v-84h75v84h-75z" />
    <glyph glyph-name="yericyrillic" unicode="&#x44b;" horiz-adv-x="575" 
d="M32 0v500h130v-194h135l70 -70v-166l-70 -70h-265zM412 500h130v-500h-130v500zM162 195v-84h75v84h-75z" />
    <glyph glyph-name="softsigncyrillic" unicode="&#x44c;" horiz-adv-x="395" 
d="M32 0v500h130v-194h135l70 -70v-166l-70 -70h-265zM162 195v-84h75v84h-75z" />
    <glyph glyph-name="ereversedcyrillic" unicode="&#x44d;" horiz-adv-x="394" 
d="M102 0l-70 70v91h120v-50h79v93h-129v92h129v93h-79v-50h-120v91l70 70h189l70 -70v-360l-70 -70h-189z" />
    <glyph glyph-name="iucyrillic" unicode="&#x44e;" horiz-adv-x="605" 
d="M307 0l-70 70v125h-75v-195h-130v500h130v-194h75v124l70 70h195l70 -70v-360l-70 -70h-195zM367 111h75v278h-75v-278z" />
    <glyph glyph-name="iacyrillic" unicode="&#x44f;" 
d="M367 0h-130v164h-36l-51 -164h-130l66 180l-54 54v196l70 70h265v-500zM237 275v114h-75v-114h75z" />
    <glyph glyph-name="iocyrillic" unicode="&#x451;" 
d="M32 430l70 70h195l70 -70v-226h-205v-93h85v50h120v-91l-70 -70h-195l-70 70v360zM162 296h75v93h-75v-93zM42 691h136v-136h-136v136zM221 691h136v-136h-136v136z" />
    <glyph glyph-name="djecyrillic" unicode="&#x452;" horiz-adv-x="421" 
d="M270 554h-87v-90l37 36h98l70 -70v-568l-63 -62h-132v111h65v478h-75v-389h-130v554h-50v92h50v54h130v-54h87v-92z" />
    <glyph glyph-name="gjecyrillic" unicode="&#x453;" horiz-adv-x="303" 
d="M285 389h-123v-389h-130v500h253v-111zM277 700l-58 -135h-123l58 135h123z" />
    <glyph glyph-name="ecyrillic" unicode="&#x454;" horiz-adv-x="394" 
d="M102 0l-70 70v360l70 70h189l70 -70v-91h-120v50h-79v-93h129v-92h-129v-93h79v50h120v-91l-70 -70h-189z" />
    <glyph glyph-name="dzecyrillic" unicode="&#x455;" 
d="M367 70l-70 -70h-195l-70 70v91h120v-50h85v93h-134l-62 62v164l70 70h178l70 -70v-91h-120v50h-68v-93h134l62 -62v-164z" />
    <glyph glyph-name="icyrillic" unicode="&#x456;" horiz-adv-x="207" 
d="M39 500h130v-500h-130v500zM36 700h136v-136h-136v136z" />
    <glyph glyph-name="yicyrillic" unicode="&#x457;" horiz-adv-x="207" 
d="M39 500h130v-500h-130v500zM-53 691h136v-136h-136v136zM126 691h136v-136h-136v136z" />
    <glyph glyph-name="jecyrillic" unicode="&#x458;" horiz-adv-x="207" 
d="M169 500v-638l-63 -62h-132v111h65v589h130zM36 700h136v-136h-136v136z" />
    <glyph glyph-name="ljecyrillic" unicode="&#x459;" horiz-adv-x="583" 
d="M107 500h186l36 -194h156l70 -70v-166l-70 -70h-225l-60 372h-4l-62 -372h-121zM350 195l16 -84h59v84h-75z" />
    <glyph glyph-name="njecyrillic" unicode="&#x45a;" horiz-adv-x="600" 
d="M237 0v195h-75v-195h-130v500h130v-194h75v194h130v-194h135l70 -70v-166l-70 -70h-265zM367 195v-84h75v84h-75z" />
    <glyph glyph-name="tshecyrillic" unicode="&#x45b;" horiz-adv-x="421" 
d="M270 554h-87v-90l37 36h98l70 -70v-430h-130v389h-75v-389h-130v554h-50v92h50v54h130v-54h87v-92z" />
    <glyph glyph-name="kjecyrillic" unicode="&#x45c;" horiz-adv-x="414" 
d="M283 260l133 -260h-145l-102 212v-212h-130v500h130v-212l102 212h135zM342 700l-58 -135h-123l58 135h123z" />
    <glyph glyph-name="ushortcyrillic" unicode="&#x45e;" horiz-adv-x="397" 
d="M238 700h100v-95l-40 -40h-193l-40 40v95h100v-46h73v46zM137 -6l-127 506h126l65 -330h4l64 330h125l-123 -500l-45 -200h-140z" />
    <glyph glyph-name="dzhecyrillic" unicode="&#x45f;" 
d="M147 -100v100h-115v500h130v-389h75v389h130v-500h-114v-100h-106z" />
    <glyph glyph-name="Geupturncyrillic" unicode="&#x490;" horiz-adv-x="367" 
d="M175 0h-130v700h196v100h111v-212h-177v-588z" />
    <glyph glyph-name="geupturncyrillic" unicode="&#x491;" horiz-adv-x="303" 
d="M162 389v-389h-130v500h147v100h106v-211h-123z" />
    <glyph glyph-name="Wgrave" unicode="&#x1e80;" horiz-adv-x="624" 
d="M317 900l58 -135h-124l-58 135h124zM144 700l34 -508h4l60 448h149l61 -449h4l34 509h114l-62 -700h-170l-54 431h-4l-56 -431h-177l-61 700h124z" />
    <glyph glyph-name="wgrave" unicode="&#x1e81;" horiz-adv-x="584" 
d="M297 700l58 -135h-124l-58 135h124zM292 362h-4l-47 -362h-172l-55 500h118l31 -355h4l51 355h156l51 -356h4l30 356h111l-55 -500h-176z" />
    <glyph glyph-name="Wacute" unicode="&#x1e82;" horiz-adv-x="624" 
d="M431 900l-58 -135h-123l58 135h123zM144 700l34 -508h4l60 448h149l61 -449h4l34 509h114l-62 -700h-170l-54 431h-4l-56 -431h-177l-61 700h124z" />
    <glyph glyph-name="wacute" unicode="&#x1e83;" horiz-adv-x="584" 
d="M411 700l-58 -135h-123l58 135h123zM292 362h-4l-47 -362h-172l-55 500h118l31 -355h4l51 355h156l51 -356h4l30 356h111l-55 -500h-176z" />
    <glyph glyph-name="Wdieresis" unicode="&#x1e84;" horiz-adv-x="624" 
d="M157 891h136v-136h-136v136zM336 891h136v-136h-136v136zM144 700l34 -508h4l60 448h149l61 -449h4l34 509h114l-62 -700h-170l-54 431h-4l-56 -431h-177l-61 700h124z" />
    <glyph glyph-name="wdieresis" unicode="&#x1e85;" horiz-adv-x="584" 
d="M135 691h136v-136h-136v136zM314 691h136v-136h-136v136zM292 362h-4l-47 -362h-172l-55 500h118l31 -355h4l51 355h156l51 -356h4l30 356h111l-55 -500h-176z" />
    <glyph glyph-name="enspace" unicode="&#x2002;" horiz-adv-x="350" 
 />
    <glyph glyph-name="emspace" unicode="&#x2003;" horiz-adv-x="700" 
 />
    <glyph glyph-name="threeperemspace" unicode="&#x2004;" horiz-adv-x="525" 
 />
    <glyph glyph-name="fourperemspace" unicode="&#x2005;" horiz-adv-x="175" 
 />
    <glyph glyph-name="sixperemspace" unicode="&#x2006;" horiz-adv-x="117" 
 />
    <glyph glyph-name="figurespace" unicode="&#x2007;" 
 />
    <glyph glyph-name="punctuationspace" unicode="&#x2008;" horiz-adv-x="200" 
 />
    <glyph glyph-name="thinspace" unicode="&#x2009;" horiz-adv-x="100" 
 />
    <glyph glyph-name="hairspace" unicode="&#x200a;" horiz-adv-x="50" 
 />
    <glyph glyph-name="zerowidthspace" unicode="&#x200b;" horiz-adv-x="0" 
 />
    <glyph glyph-name="figuredash" unicode="&#x2012;" 
d="M368 246h-336v110h336v-110z" />
    <glyph glyph-name="endash" unicode="&#x2013;" horiz-adv-x="350" 
d="M318 246h-286v110h286v-110z" />
    <glyph glyph-name="emdash" unicode="&#x2014;" horiz-adv-x="700" 
d="M668 246h-636v110h636v-110z" />
    <glyph glyph-name="uni2015" unicode="&#x2015;" horiz-adv-x="800" 
d="M768 246h-736v110h736v-110z" />
    <glyph glyph-name="quoteleft" unicode="&#x2018;" horiz-adv-x="233" 
d="M24 567l65 133h122l-57 -117v-140h-130v124z" />
    <glyph glyph-name="quoteright" unicode="&#x2019;" horiz-adv-x="233" 
d="M209 577l-65 -134h-123l58 118v139h130v-123z" />
    <glyph glyph-name="quotesinglbase" unicode="&#x201a;" horiz-adv-x="233" 
d="M188 10l-65 -134h-122l57 118v139h130v-123z" />
    <glyph glyph-name="reversequoteleft" unicode="&#x201b;" horiz-adv-x="233" 
d="M24 700h130v-139l58 -118h-123l-65 134v123z" />
    <glyph glyph-name="quotedblleft" unicode="&#x201c;" horiz-adv-x="407" 
d="M24 567l65 133h122l-57 -117v-140h-130v124zM198 567l65 133h122l-57 -117v-140h-130v124z" />
    <glyph glyph-name="quotedblright" unicode="&#x201d;" horiz-adv-x="407" 
d="M209 577l-65 -134h-122l57 118v139h130v-123zM382 577l-65 -134h-122l57 118v139h130v-123z" />
    <glyph glyph-name="quotedblbase" unicode="&#x201e;" horiz-adv-x="407" 
d="M188 10l-65 -134h-122l57 118v139h130v-123zM362 10l-65 -134h-122l57 118v139h130v-123z" />
    <glyph glyph-name="reversequotedblleft" unicode="&#x201f;" horiz-adv-x="405" 
d="M24 700h130v-139l57 -118h-122l-65 134v123zM197 700h130v-139l57 -118h-122l-65 134v123z" />
    <glyph glyph-name="dagger" unicode="&#x2020;" horiz-adv-x="380" 
d="M44 600h100v100h92v-100h100v-93h-100v-307h-92v307h-100v93z" />
    <glyph glyph-name="daggerdbl" unicode="&#x2021;" horiz-adv-x="380" 
d="M44 600h100v100h92v-100h100v-93h-100v-107h100v-93h-100v-307h-92v307h-100v93h100v107h-100v93z" />
    <glyph glyph-name="bullet" unicode="&#x2022;" horiz-adv-x="300" 
d="M65 435h170v-170h-170v170z" />
    <glyph glyph-name="ellipsis" unicode="&#x2026;" horiz-adv-x="680" 
d="M52 130h130v-130h-130v130zM498 130h130v-130h-130v130zM274 130h130v-130h-130v130z" />
    <glyph glyph-name="Euro" unicode="&#x20ac;" horiz-adv-x="427" 
d="M294 236h-84v-124h68v68h120v-110l-70 -70h-178l-70 70v166h-48v93h48v42h-48v93h48v166l70 70h178l70 -70v-110h-120v68h-68v-124h153l-28 -93h-125v-42h112z" />
    <glyph glyph-name="published" unicode="&#x2117;" horiz-adv-x="579" 
d="M76 0l-37 37v623l40 40h421l40 -40v-620l-40 -40h-424zM470 65v570h-364v-570h364zM259 370h64v115h-64v-115zM259 120h-97v460h211l47 -47v-211l-47 -47h-114v-155z" />
    <glyph glyph-name="servicemark" unicode="&#x2120;" horiz-adv-x="483" 
d="M280 556v-206h-52v350h65l47 -169l46 169h67v-350h-59v210l-38 -145h-38zM131 501h-67l-32 33v133l32 33h90l33 -33v-72h-56v53h-39v-95h66l33 -32v-138l-33 -33h-98l-32 33v71h56v-52h47v99z" />
    <glyph glyph-name="trademark" unicode="&#x2122;" horiz-adv-x="482" 
d="M27 700h168v-52h-54v-298h-60v298h-54v52zM281 556v-206h-53v350h65l47 -169l46 169h67v-350h-59v210l-38 -145h-38z" />
    <glyph glyph-name="partialdiff" unicode="&#x2202;" horiz-adv-x="1086" 
d="M1066 637q-14 -3 -23.5 -6.5t-17.5 -10.5t-17.5 -19.5t-23.5 -33.5l-10.5 -15t-17 -20t-28 -24.5t-44.5 -30.5q-15 -9 -28 -20.5t-13 -28.5q0 -11 4 -23t6 -23q5 -30 6 -48.5t3 -30.5t5.5 -20t12.5 -17q15 -15 15 -36q0 -16 -4 -40t-4 -63q0 -15 2 -35t2 -39q0 -8 -2 -14
t-10 -14q-7 -7 -8.5 -14.5t-5.5 -12.5q-3 -3 -10.5 -4.5t-12.5 -1.5q-14 0 -29 4t-15 12q0 7 6.5 13t6.5 10q-1 8 -7.5 6t-6.5 5q0 4 5 9l11 11t11 12.5t5 13.5q0 10 -1.5 24.5t-4 32t-5.5 35l-6 33.5q-10 14 -19 22.5l-18 17t-19.5 21.5t-24.5 36q-24 18 -54 18
q-27 0 -54 -10t-57 -23t-63.5 -24.5t-73.5 -14.5q-2 0 -2 -3q0 -25 -1.5 -51.5t-1.5 -54.5q0 -12 -1 -26t-3.5 -27.5t-7 -25t-12.5 -17.5l-10 -26t-8.5 -16t-10.5 -8t-17 -2q-16 0 -32.5 4t-16.5 12q0 11 8.5 18t8.5 9t-4.5 4.5t-4.5 6.5q0 8 13.5 15.5t27.5 12.5
q2 8 3 16.5t1 17.5q0 20 -4 43l-6 34l-16 73q-19 14 -35.5 35.5t-31 46t-26.5 52t-21 53.5q-3 9 -9.5 20.5t-20.5 11.5q-8 0 -16.5 -3t-20.5 -3q-6 0 -10.5 1.5t-4.5 6.5t4.5 11t4.5 11q0 8 -19.5 9t-42.5 2t-41.5 6.5t-17.5 21.5q-7 4 -12 10q-5 5 -8.5 12.5t-3.5 18.5
q0 4 3 7t11.5 8t25 13l43.5 21q14 7 24 18t20.5 21t25.5 17.5t39 7.5q32 0 57 -20t44.5 -45.5t35 -48t27.5 -28.5q8 -4 26 -9t48 -10t72.5 -8.5t100.5 -3.5q39 0 70 3t50 3q25 0 41 -4t27.5 -9l20.5 -9t20 -4q14 0 34.5 6t52.5 30q17 13 27 23.5t17.5 20.5t13.5 19t15 19
q21 23 40.5 29.5t33.5 6.5q8 0 14 -3t6 -8q0 -4 -3 -7.5t-17 -6.5z" />
    <glyph glyph-name="minus" unicode="&#x2212;" horiz-adv-x="427" 
d="M392 294h-357v112h357v-112z" />
    <glyph glyph-name="radical" unicode="&#x221a;" horiz-adv-x="732" 
d="M366 0q-9 0 -19 5q-15 8 -47 27t-70.5 48t-79 68.5t-74 88.5t-55 107.5t-21.5 124.5q0 50 16.5 92.5t45 73t67 48t83.5 17.5q55 0 92.5 -25.5t61.5 -54.5q24 29 61.5 54.5t92.5 25.5q45 0 84 -17.5t67.5 -48t44.5 -73t16 -92.5q0 -66 -21.5 -124.5t-55 -107.5t-74 -88.5
t-79 -68.5t-70.5 -48t-47 -27q-10 -5 -19 -5zM606 514q10 1 10 6q0 6 -10 6q-7 0 -16.5 -3.5t-18.5 -13.5t-14 -18.5t-21 -21.5q-14 -11 -24 -14t-17 -3q-10 0 -19 6.5t-33 6.5q-9 0 -24 -1.5t-33 -1.5q-56 0 -83 5.5t-35 9.5q-6 3 -13 13.5t-16.5 22.5t-21.5 21.5t-27 9.5
q-12 0 -19 -3.5t-12 -8t-9.5 -10t-11.5 -8.5q-26 -14 -32.5 -16.5t-6.5 -7.5q0 -8 6 -14q2 -3 5 -5q0 -8 9 -10.5t20 -3t20 -1t9 -4.5q0 -2 -2 -5t-2 -5q0 -4 7 -4q5 0 9.5 1.5t7.5 1.5q7 0 10 -5.5t5 -9.5q9 -26 22.5 -50.5t31.5 -38.5l7 -35q2 -5 3.5 -16t1.5 -21
q0 -6 -2 -16q-6 -2 -12.5 -5.5t-6.5 -7.5q0 -2 2 -3t2 -2q0 -2 -4 -5t-4 -8q0 -4 7.5 -6t15.5 -2q11 0 13.5 5t8.5 20q8 6 10 20.5t2 25.5q0 13 0.5 25.5t0.5 24.5q0 1 1 1q19 2 35 7.5t30 11.5t27 11t26 5t25 -9q7 -11 12 -17t9.5 -10t8.5 -8t9 -11q2 -15 5 -32.5t3 -26.5
q0 -7 -7.5 -12.5t-7.5 -9.5t3 -3t3 -2q0 -2 -3 -5t-3 -6q0 -4 7.5 -6t13.5 -2q2 0 5.5 0.5t5.5 2.5t3 5.5t4 7.5q6 6 6 13q0 9 -1 18.5t-1 16.5q0 19 1.5 30t1.5 19q0 11 -7 17q-8 9 -8 18t-5 37q-1 6 -2.5 11.5t-1.5 10.5q0 8 6 13.5t13 10.5q26 15 34.5 25.5l13.5 16.5
q14 20 19.5 25t19.5 9z" />
    <glyph glyph-name="approxequal" unicode="&#x2248;" horiz-adv-x="427" 
d="M135 405v-39h-100v94l47 46l210 -42v39h100v-94l-47 -47zM135 236v-39h-100v94l47 47l210 -43v39h100v-94l-47 -46z" />
    <glyph glyph-name="notequal" unicode="&#x2260;" horiz-adv-x="427" 
d="M388 584l-45 -89h49v-113h-107l-32 -64h139v-113h-197l-45 -89h-112l45 89h-48v113h106l32 64h-138v113h196l46 89h111z" />
    <glyph glyph-name="fi" unicode="&#xe38c;" horiz-adv-x="529" 
d="M14 500h57v138l62 62h168v-111h-100v-89h92v-111h-92v-389h-130v389h-57v111zM361 500h130v-500h-130v500zM358 700h136v-136h-136v136z" />
    <glyph glyph-name="fi" unicode="&#xfb01;" horiz-adv-x="529" 
d="M14 500h57v138l62 62h168v-111h-100v-89h92v-111h-92v-389h-130v389h-57v111zM361 500h130v-500h-130v500zM358 700h136v-136h-136v136z" />
    <glyph glyph-name="fl" unicode="&#xe38d;" horiz-adv-x="529" 
d="M14 500h57v138l62 62h168v-111h-100v-89h92v-111h-92v-389h-130v389h-57v111zM361 700h130v-700h-130v700z" />
    <glyph glyph-name="fl" unicode="&#xfb02;" horiz-adv-x="529" 
d="M14 500h57v138l62 62h168v-111h-100v-89h92v-111h-92v-389h-130v389h-57v111zM361 700h130v-700h-130v700z" />
    <glyph glyph-name="invertedbreve" unicode="&#xe411;" horiz-adv-x="402" 
d="M164 565h-100v95l40 40h194l40 -40v-95h-100v48h-74v-48z" />
    <glyph glyph-name="doublegrave" unicode="&#xe412;" horiz-adv-x="402" 
d="M271 700l58 -135h-110l-58 135h110zM127 700l58 -135h-110l-58 135h110z" />
    <glyph glyph-name="caronSlovak" unicode="&#xe413;" horiz-adv-x="402" 
d="M379 525l20 175h83l-20 -175h-83z" />
    <glyph glyph-name="commaaccent" unicode="&#xe414;" horiz-adv-x="402" 
d="M120 -200l20 165h123l-20 -165h-123z" />
    <glyph glyph-name="commaaccent" unicode="&#xf6c3;" horiz-adv-x="402" 
d="M120 -200l20 165h123l-20 -165h-123z" />
    <glyph glyph-name="dotbelow" unicode="&#xe415;" horiz-adv-x="402" 
d="M269 -191h-136v136h136v-136z" />
    <glyph glyph-name="onethirdemdash" unicode="&#xe471;" horiz-adv-x="233" 
d="M201 246h-169v110h169v-110z" />
    <glyph glyph-name="threequarteremdash" unicode="&#xe472;" horiz-adv-x="525" 
d="M493 246h-461v110h461v-110z" />
    <glyph glyph-name="periodcentered.cap" unicode="&#xe481;" horiz-adv-x="240" 
d="M55 415h130v-130h-130v130z" />
    <glyph glyph-name="hyphen.cap" unicode="&#xe482;" horiz-adv-x="260" 
d="M228 295h-196v110h196v-110z" />
    <glyph glyph-name="onethirdemdash.cap" unicode="&#xe483;" horiz-adv-x="233" 
d="M201 295h-169v110h169v-110z" />
    <glyph glyph-name="endash.cap" unicode="&#xe484;" horiz-adv-x="350" 
d="M318 295h-286v110h286v-110z" />
    <glyph glyph-name="threequarteremdash.cap" unicode="&#xe485;" horiz-adv-x="525" 
d="M493 295h-461v110h461v-110z" />
    <glyph glyph-name="emdash.cap" unicode="&#xe486;" horiz-adv-x="700" 
d="M668 295h-636v110h636v-110z" />
    <glyph glyph-name="figuredash.cap" unicode="&#xe487;" 
d="M368 295h-336v110h336v-110z" />
    <glyph glyph-name="uni2015.cap" unicode="&#xe488;" horiz-adv-x="800" 
d="M768 295h-736v110h736v-110z" />
    <glyph glyph-name="idotaccent" unicode="&#xe785;" horiz-adv-x="207" 
d="M39 500h130v-500h-130v500zM36 691h136v-136h-136v136z" />
    <glyph glyph-name="registered.cap" unicode="&#xe99c;" horiz-adv-x="579" 
d="M79 0l-40 40v620l40 40h421l40 -40v-620l-40 -40h-421zM470 65v570h-361v-570h361zM259 370h63v115h-63v-115zM338 120l-42 155h-37v-155h-97v460h210l46 -47v-201l-34 -34l49 -178h-95z" />
    </font>
</defs>
</svg>
