<svg xmlns="http://www.w3.org/2000/svg" xmlns:xlink="http://www.w3.org/1999/xlink" width="65" height="28" viewBox="0 0 65 28">
    <defs>
        <path id="a" d="M9.21.178H.795v11.593H9.21V.178z"/>
    </defs>
    <g fill="none" fill-rule="evenodd">
        <path fill="#075DA1" d="M13.301 5.12c-.768 0-1.485.604-1.834 1.857h3.093C14.61 5.79 14.227 5.12 13.3 5.12m2.936 3.044h-4.98c-.139 1.486.56 2.14 1.747 2.14.997 0 1.87-.369 2.813-.953v1.491a6.078 6.078 0 0 1-3.25.93c-2.166 0-3.598-1.218-3.161-3.973.384-2.492 2.131-3.993 4.158-3.993 2.323 0 3.091 1.725 2.76 3.896-.035.163-.07.35-.087.462M19.468 7.225l-.681 4.388h-1.922l1.188-7.65h1.642v1.538c.646-.89 1.537-1.63 2.743-1.695l.017 1.882c-1.223.081-2.306.716-2.987 1.537M24.796 2.68c-.647 0-1.083-.442-.979-1.077.088-.649.682-1.105 1.328-1.105.612 0 1.066.456.96 1.105-.104.635-.68 1.076-1.31 1.076m-2.375 8.935l1.205-7.652h1.922l-1.188 7.652M30.875 1.872c-.663 0-1.048.284-1.153.97l-.175 1.12h1.467v1.553h-1.711l-.96 6.099h-1.905l.944-6.099h-1.118l.244-1.552h1.118l.21-1.308C28.096.955 29.285.32 30.874.32c.332 0 .594.035.786.067v1.552a4.85 4.85 0 0 0-.786-.067M33.268 2.68c-.646 0-1.083-.442-.995-1.077C32.377.954 32.97.498 33.6.498s1.084.456.978 1.105c-.104.635-.681 1.076-1.31 1.076m-2.376 8.935l1.206-7.652h1.921l-1.205 7.652M38.544 5.12c-.769 0-1.485.604-1.817 1.857H39.8c.053-1.187-.314-1.857-1.257-1.857m2.935 3.044H36.5c-.14 1.486.576 2.14 1.764 2.14.978 0 1.87-.369 2.795-.953v1.491a6.08 6.08 0 0 1-3.249.93c-2.166 0-3.58-1.218-3.162-3.973.385-2.492 2.131-3.993 4.158-3.993 2.323 0 3.092 1.725 2.76 3.896-.018.163-.07.35-.087.462"/>
        <g transform="translate(41.405)">
            <mask id="b" fill="#fff">
                <use xlink:href="#a"/>
            </mask>
            <path fill="#075DA1" d="M6.415 5.739c-.437-.224-.804-.33-1.45-.33-1.014 0-1.887.802-2.131 2.486-.245 1.487.296 2.182 1.135 2.182.716 0 1.328-.411 1.94-1.046l.506-3.292zm-.647 5.875l.018-1.06c-.647.654-1.503 1.217-2.568 1.217-1.624 0-2.743-1.187-2.34-3.764.453-2.856 2.235-4.12 4.035-4.12.733 0 1.31.127 1.746.284L7.235.478l1.975-.3-1.783 11.436H5.768z" mask="url(#b)"/>
        </g>
        <path fill="#075DA1" d="M55.803 6.972c-.49 0-.979.324-1.398.756l-.419 2.628c.297.112.489.157.908.157.909 0 1.555-.553 1.765-1.872.174-1.117-.192-1.67-.856-1.67m-1.084 4.714a6.998 6.998 0 0 1-2.34-.38l1.275-8.123 1.485-.228-.542 3.515c.437-.385 1.031-.765 1.782-.765 1.24 0 2.061.913 1.765 2.85-.332 2.136-1.66 3.131-3.425 3.131M61.585 11.928c-.117.244-.605 1.28-1.461 1.643-.57.24-1.159.23-1.16.23-.244 0-.4-.025-.523-.061v-1.188c.174.046.384.082.663.082.42 0 .786-.193 1.03-.61l.21-.384-1.24-5.714 1.537-.187.734 4.125 1.939-4.044h1.45c-1.439 2.712-2.552 4.792-3.179 6.108M26.892 14.587l-3.197 8.483-.331-1.725c-.891-2.455-3.127-3.81-4.245-4.201l2.655 9.863 3.441-.01 5.118-12.41h-3.44M29.617 27.018l2.026-12.441h3.267l-2.044 12.44zM44.675 14.882a8.186 8.186 0 0 0-2.917-.523c-3.214 0-5.485 1.69-5.503 4.105-.017 1.79 1.607 2.785 2.848 3.378 1.258.61 1.694 1 1.694 1.548-.018.827-1.013 1.212-1.956 1.212-1.293 0-1.992-.188-3.058-.65l-.418-.197-.455 2.78c.752.35 2.166.65 3.616.665 3.424 0 5.643-1.669 5.678-4.252 0-1.416-.874-2.49-2.743-3.38-1.135-.577-1.834-.958-1.817-1.536 0-.522.576-1.075 1.852-1.075a5.714 5.714 0 0 1 2.428.481l.297.143.454-2.7M48.99 22.608c.28-.72 1.31-3.48 1.31-3.48-.017.035.262-.72.42-1.187l.227 1.075s.628 2.963.75 3.592H48.99zm4.018-8.017h-2.516c-.769 0-1.363.214-1.694 1.032l-4.839 11.4h3.424s.559-1.538.681-1.878c.367 0 3.686.01 4.158.01.104.432.402 1.868.402 1.868h3.021L53.008 14.59z"/>
        <path fill="#F6A735" d="M20.743 14.577h-5.24l-.035.258c4.56 1.158 6.708 3.355 7.895 6.51l-1.135-5.718c-.21-.786-.769-1.02-1.485-1.05"/>
        <path fill="#075DA1" d="M.899.955l2.393 10.71h2.096L11.257.684H9.04l-4.193 8.27L3.204.574z"/>
    </g>
</svg>
