<svg xmlns="http://www.w3.org/2000/svg" width="250px" height="84px" viewBox="0 0 250 84" version="1.1">
  <g fill="none" fill-rule="evenodd">
    <g>
      <path d="M230.381439,8.30473124 C230.468505,9.39263718 230.598684,10.3128499 230.605403,11.2341825 C230.630599,14.7386618 230.647956,18.243981 230.592805,21.7481803 C230.579087,22.6104423 230.887598,22.9276316 231.677072,22.9805431 C233.06033,23.0729283 234.440789,23.2546193 235.824608,23.281495 C238.819569,23.3397256 240.778975,21.9085946 241.587486,19.0337346 C242.325448,16.4105543 242.308651,13.7462206 241.611842,11.1149216 C241.195269,9.5418533 240.338606,8.1731523 238.731943,7.65271557 C235.832447,6.7137458 233.013858,7.25293953 230.381439,8.30473124 L230.381439,8.30473124 Z M249.993421,17.7940929 C249.824048,18.493701 249.663634,19.1958287 249.484462,19.8931971 C247.804451,26.4318309 242.43463,30.3842385 235.405235,30.2053471 C232.726344,30.1370381 230.105963,29.737262 227.530095,28.8926372 C226.661114,28.6076428 225.571249,28.9903415 224.583007,29.0762878 C223.274216,29.1899496 221.966545,29.4119541 220.658035,29.4147536 C208.360442,29.4410694 196.06229,29.4304311 183.764418,29.4304311 L182.420353,29.4304311 C182.727744,27.399916 183.016657,25.4889418 183.296613,23.6412374 L198.740901,23.6412374 C198.644877,23.7576988 198.722144,23.7078667 198.721305,23.6591545 C198.657475,19.8797592 198.616601,16.0992441 198.492021,12.3218085 C198.468785,11.618841 198.166153,10.9024356 197.890398,10.2344625 C196.899916,7.83216685 195.089446,6.60036394 192.477184,6.59056551 C190.427632,6.58300672 188.37808,6.58804591 186.328527,6.587486 C185.958147,6.587486 185.588046,6.587486 185.102324,6.587486 C185.3736,4.68351064 185.604563,2.93631019 185.894037,1.19918813 C185.929031,0.989221725 186.284854,0.670632699 186.487262,0.674552072 C189.955347,0.73950168 193.466545,0.535974244 196.879759,1.01861702 C201.991741,1.74146137 205.680711,5.82768757 206.571809,11.2736562 C206.900756,13.2828947 206.925672,15.3484043 206.995661,17.3915174 C207.06313,19.3638018 207.010498,21.3402856 207.010498,23.3903975 C207.379479,23.4181131 207.678471,23.4601064 207.977744,23.4603863 C212.424272,23.4645857 216.871081,23.4360302 221.317329,23.4858623 C222.233903,23.4962206 222.582447,23.0953247 222.675392,22.3156495 C222.740622,21.7658175 222.74874,21.2067469 222.74986,20.6515957 C222.756019,16.9346305 222.74762,13.2173852 222.754339,9.50041993 C222.762178,5.17371221 224.529255,2.67035274 228.665873,1.38115901 C230.308651,0.869400896 232.039614,0.638717805 233.730263,0.27981523 L237.274776,0.27981523 C237.539334,0.349524076 237.800532,0.448628219 238.069849,0.484462486 C243.731663,1.24286114 247.864362,4.85456327 249.371081,10.3864782 C249.606243,11.2495801 249.787094,12.1275196 249.993421,12.9987402 L249.993421,17.7940929 Z" fill="#231F20" />
      <path d="M179.508623,0.78737402 C179.21047,2.7381019 178.922676,4.62136058 178.614166,6.64039754 L177.367805,6.64039754 C172.155879,6.64039754 166.943953,6.63675812 161.732027,6.64459686 C161.003303,6.64571669 160.268701,6.65523516 159.547536,6.74538074 C157.416797,7.01049832 156.287458,8.34056551 156.385442,10.4057951 C156.482307,12.4483483 157.757503,13.8038914 159.816853,13.8610022 C162.455711,13.9337906 165.098208,13.8568029 167.737626,13.9141937 C168.911478,13.9393897 170.104927,14.0275756 171.249664,14.2728163 C175.619205,15.2092665 178.393561,18.7042273 178.329171,23.1795913 C178.312934,24.3162094 178.193673,25.4785834 177.920437,26.5790873 C177.032699,30.156355 174.416237,31.8803191 171.0271,32.5471725 C169.301456,32.8864782 167.514502,33.0547312 165.754703,33.0583707 C154.184714,33.0824468 142.613886,33.1073628 131.044457,32.9953807 C123.828611,32.9256719 119.054815,28.2386618 118.644961,21.0474524 C118.443393,17.5107783 118.278219,13.9612262 119.264222,10.4900616 C120.893841,4.75209966 125.375644,1.25741881 131.351008,1.15159574 C134.993785,1.08692609 138.638802,1.13955767 142.360526,1.13955767 C142.067973,3.13647816 141.787458,5.04913214 141.487626,7.09476484 C140.08589,7.09476484 138.705151,7.09196529 137.324692,7.0956047 C135.969429,7.09924412 134.613326,7.07096865 133.260022,7.12611982 C130.810974,7.22550392 128.982867,8.4018757 128.056215,10.6524356 C127.537738,11.9113942 127.181635,13.3201288 127.138242,14.6737122 C127.057335,17.1947088 127.02486,19.7604983 127.40308,22.2423012 C127.84009,25.1115622 129.811534,26.8142497 132.692833,26.9881019 C136.08617,27.1927492 139.496585,27.1378779 142.89944,27.149916 C150.370045,27.1765118 157.840649,27.1767917 165.310694,27.1793113 C165.863886,27.1793113 166.427436,27.1669933 166.968309,27.0656495 C169.228667,26.6431971 170.52234,24.975224 170.33561,22.7789754 C170.15084,20.6026036 168.595409,19.1966685 166.270661,19.156355 C163.006103,19.0995241 159.735666,19.1737122 156.477268,19.0046193 C152.610246,18.8038914 149.808735,16.6286394 148.801456,13.3167693 C147.634882,9.48138298 148.701512,5.44134938 151.492945,3.26693729 C153.719709,1.53205487 156.356607,0.813129899 159.08897,0.763857783 C165.758063,0.643197088 172.430235,0.698908175 179.101008,0.687430011 C179.199552,0.687150056 179.298376,0.734182531 179.508623,0.78737402" fill="#231F20" />
      <path d="M239.03491,70.9679451 C239.026232,70.9256719 239.017553,70.8831187 239.008595,70.8405655 C237.511114,71.0505319 235.971081,71.1084826 234.527632,71.5121781 C233.031551,71.930991 232.336702,73.337486 232.47276,74.9690649 C232.588942,76.3663214 233.420129,77.4987402 234.929087,77.6389978 C236.480599,77.7834546 238.09762,77.6557951 239.638774,77.3808791 C242.218841,76.9209127 242.219121,76.8318869 242.195045,74.1860302 C242.185526,73.162514 242.451484,71.8097704 241.916489,71.2157055 C241.445045,70.6924692 240.032111,71.0177772 239.03491,70.9679451 L239.03491,70.9679451 Z M249.993477,83.6804311 C247.400532,83.2109462 244.814586,82.6977884 242.211002,82.3005319 C241.487598,82.1902296 240.702044,82.3713606 239.961842,82.5085386 C236.802548,83.0925252 233.647172,83.468785 230.471081,82.6303191 C226.701484,81.6350784 224.559826,78.9827828 224.431047,75.1423572 C224.297508,71.1605543 226.136534,68.3092105 229.983959,67.2339026 C232.258595,66.5984043 234.680767,66.4351904 237.051148,66.2154255 C238.66425,66.0662094 240.302268,66.1871501 241.90977,66.1871501 C242.688886,62.8819989 241.166209,60.8198488 237.882335,60.7621781 C234.266433,60.6989082 230.793869,61.5135778 227.394373,62.6835106 C227.072144,62.7946529 226.743477,62.887318 226.318785,63.0191769 C226.026792,61.0421333 225.745437,59.137598 225.453443,57.1597144 C231.072144,55.3582027 236.654451,53.7369821 242.605459,54.924832 C246.947844,55.7918533 249.252436,58.2926932 249.807867,62.6546753 C249.842301,62.925112 249.930207,63.1891097 249.993477,63.4559071 L249.993477,83.6804311 Z" fill="#231F20" />
      <path d="M158.794401,82.7700728 L150.616629,82.7700728 L150.616629,81.4895577 C150.616629,76.2773516 150.618589,71.0648656 150.61383,65.8526596 C150.61327,65.2975084 150.61243,64.737598 150.546641,64.187766 C150.357671,62.6104983 149.335834,61.5393897 147.79804,61.3725364 C145.92766,61.1701288 144.137626,61.4887178 142.655543,62.2546753 C142.709015,64.549748 142.792161,66.7149216 142.803919,68.8806551 C142.827156,73.1197368 142.810638,77.3593785 142.810638,81.5984602 L142.810638,82.7711926 L134.651904,82.7711926 L134.651904,81.5718645 C134.651904,76.3596585 134.603191,71.1466125 134.667581,65.9352464 C134.717693,61.8770157 132.899104,60.8224244 129.099832,61.4898376 C126.821277,61.8901736 126.831355,61.9489642 126.831355,64.2283595 L126.831355,81.4288074 L126.831355,82.7345185 L118.532083,82.7345185 L118.532083,81.4783595 C118.532083,74.7370381 118.529843,67.9959966 118.532923,61.2543953 C118.534602,57.8364222 119.402464,56.6818869 122.715454,55.775112 C126.810358,54.6544513 130.961814,54.1057391 135.17514,54.9461646 C136.310358,55.1726484 137.417301,55.6636898 138.459015,56.1880459 C139.015286,56.4680011 139.407503,56.5267917 139.975812,56.28743 C143.99037,54.5967805 148.138186,54.0774636 152.401904,55.1191769 C156.144345,56.0337906 158.48785,58.6648096 158.625868,62.5049552 C158.817637,67.8495801 158.753247,73.2031635 158.793001,78.5528275 C158.80308,79.9355263 158.794401,81.318505 158.794401,82.7700728" fill="#231F20" />
      <path d="M211.558567,69.0847984 L211.558567,65.025168 C211.558567,61.3040034 211.558567,61.3040034 207.795689,60.9702968 C204.886954,60.7121781 202.768533,62.1225924 202.028611,64.9361422 C201.346361,67.5299272 201.35,70.1631859 202.046529,72.7544513 C202.820605,75.6340705 204.792329,77.087598 207.773012,77.0324468 C208.668309,77.0159295 209.558847,76.8177212 210.455263,76.7488522 C211.300168,76.6841825 211.613998,76.3328387 211.582363,75.4336226 C211.507335,73.3196809 211.558287,71.2015398 211.558567,69.0847984 M211.558567,55.7597704 C211.558567,55.2793673 211.558287,54.9112262 211.558567,54.5433651 C211.558567,51.1393897 211.566685,47.7356943 211.551288,44.3319989 C211.548768,43.787766 211.619877,43.412346 212.265733,43.3090426 C214.729619,42.9143057 217.187906,42.4848544 219.802128,42.0425252 L219.802128,43.2149776 C219.801848,54.3983483 219.804367,65.5819989 219.800168,76.7659295 C219.799328,79.968617 219.09776,80.9473404 216.045969,81.8851904 C212.068645,83.1071948 207.995857,83.4053471 203.893953,82.7947648 C197.963382,81.9115062 193.998656,77.4479003 193.525252,71.2194569 C193.321725,68.5450448 193.405711,65.8826708 194.10056,63.2594905 C195.494457,57.9960526 199.242777,54.8717525 204.675868,54.7617301 C206.520493,54.7242161 208.376316,55.1657055 210.22402,55.4109462 C210.622676,55.4638578 211.008735,55.6130739 211.558567,55.7597704" fill="#231F20" />
      <path d="M181.12682,71.175168 C178.746081,71.175168 176.555151,71.0326708 174.391937,71.2171613 C172.417973,71.3859742 171.290034,72.9262878 171.386058,74.8173852 C171.475084,76.5707447 172.745241,77.8960526 174.731523,77.799748 C176.718365,77.7031635 178.68729,77.2034434 180.656495,76.8392217 C180.841265,76.8050672 181.102184,76.4775196 181.106383,76.281551 C181.142217,74.5864222 181.12682,72.8898936 181.12682,71.175168 M180.958007,66.1961646 C181.227044,62.024832 179.940649,60.6508119 175.963046,60.762234 C172.673572,60.8543393 169.50224,61.5942609 166.401176,62.6653695 C166.078108,62.7767917 165.74972,62.8742161 165.272396,63.0265118 C165.006159,61.1620101 164.734602,59.3585386 164.512878,57.5489082 C164.492161,57.3795353 164.75112,57.0581467 164.940929,56.9971165 C169.415454,55.5609462 173.926372,54.3022676 178.699608,54.5489082 C179.426932,54.5864222 180.157055,54.6606103 180.8743,54.7846305 C186.246641,55.7149216 188.790314,58.6617301 188.833987,64.1508119 C188.883819,70.4052912 188.846865,76.6608903 188.845745,82.9159295 C188.845745,83.1216965 188.824748,83.3274636 188.807111,83.6508119 C187.891097,83.4951568 187.006159,83.4052912 186.153695,83.1883259 C182.818029,82.3397816 179.510918,82.1695689 176.093785,82.9016517 C173.645017,83.4262878 171.110582,83.2487962 168.68729,82.4120101 C165.305991,81.2443169 163.475924,78.7275196 163.369261,75.1155375 C163.260918,71.4324468 164.863942,68.8431411 168.157615,67.4548432 C170.402856,66.5077548 172.788634,66.2633539 175.192609,66.2054031 C177.093505,66.1592105 178.996641,66.1961646 180.958007,66.1961646" fill="#231F20" />
      <polygon fill="#289AD6" points="0 35.3082307 105.710246 35.3082307 105.710246 0.279955207 0 0.279955207" />
      <polygon fill="#85B740" points="0 83.0573908 105.710246 83.0573908 105.710246 48.0291153 0 48.0291153" />
    </g>
  </g>
</svg>
