<svg xmlns="http://www.w3.org/2000/svg" width="70" height="35" viewBox="0 0 70 35">
    <g fill="none" fill-rule="evenodd">
        <path fill="#000" d="M23.983 9.033h33.138c3.33.005 6.098 1.067 8.437 3.245 2.301 2.154 3.427 4.72 3.462 7.852l.474-.005-.474-.004c-.035 3.067-1.159 5.603-3.464 7.792l.002-.003c-2.34 2.18-5.111 3.272-8.437 3.276H23.983a.477.477 0 0 0-.475.48c0 .264.213.479.475.479h33.138c3.535.004 6.584-1.193 9.082-3.53l.002-.002c2.472-2.33 3.738-5.177 3.765-8.483v-.01c-.027-3.365-1.29-6.244-3.767-8.546-2.5-2.339-5.55-3.504-9.082-3.5H23.983a.477.477 0 0 0-.475.48c0 .265.213.48.475.48z"/>
        <path fill="#000" d="M21.396 8.77c1.9 1.114 3.4 2.63 4.502 4.518 1.103 1.918 1.654 4.053 1.685 6.373-.03 2.352-.582 4.486-1.685 6.374a12.747 12.747 0 0 1-4.502 4.548c-1.868 1.113-3.95 1.67-6.309 1.702-2.297-.031-4.41-.589-6.278-1.702-1.9-1.145-3.4-2.66-4.472-4.548-1.133-1.888-1.684-3.991-1.715-6.374.03-2.32.582-4.455 1.715-6.373A12.11 12.11 0 0 1 8.81 8.77c1.868-1.113 3.981-1.701 6.278-1.732 2.328.03 4.44.619 6.31 1.732m-6.31-4.3c-2.787.031-5.329.711-7.595 2.073-2.236 1.361-4.013 3.187-5.39 5.445C.753 14.278.08 16.846.048 19.66c.031 2.816.705 5.384 2.052 7.673 1.378 2.29 3.155 4.115 5.39 5.507 2.267 1.331 4.81 2.011 7.596 2.073 2.818-.03 5.36-.711 7.627-2.073 2.266-1.392 4.073-3.217 5.42-5.507 1.317-2.29 2.022-4.857 2.053-7.673-.031-2.815-.705-5.383-2.053-7.673a15.57 15.57 0 0 0-5.42-5.445C20.447 5.18 17.905 4.5 15.087 4.47M33.984 15.268h1.041l1.103 3.062 1.134-3.062h1.01l-1.715 4.362h-.827l-1.746-4.362M45.96 19.6h.949v-3.311h-.95v3.31zm-.032-3.683h.98v-.835h-.98v.835zm-2.94.372h.92v.65c.091-.217.244-.403.397-.526.153-.155.368-.217.644-.186v.99h-.03c-.338 0-.583.093-.736.279-.184.185-.276.495-.276.896V19.6h-.919v-3.31zm-1.99 1.392a1.007 1.007 0 0 0-.215-.526.618.618 0 0 0-.46-.185c-.213 0-.366.061-.49.185a1.037 1.037 0 0 0-.244.526h1.409zm-.613 2.011c-.214 0-.46-.062-.674-.154a1.28 1.28 0 0 1-.55-.34 1.543 1.543 0 0 1-.338-.527 1.842 1.842 0 0 1-.03-1.392c.091-.217.183-.402.337-.557.152-.155.305-.278.52-.372.215-.092.429-.123.674-.123.276 0 .49.062.704.155.215.092.368.217.49.402.123.155.214.34.307.557.06.216.092.464.092.68l-.031.124v.124h-2.267c.031.217.123.371.276.495a.944.944 0 0 0 .52.155c.154 0 .276-.032.43-.093.092-.031.214-.124.367-.248l.52.465a1.309 1.309 0 0 1-.55.463c-.215.124-.49.186-.797.186zM49.788 19.661c-.337 0-.644-.062-.98-.185-.306-.093-.582-.279-.858-.526l.582-.65c.183.155.367.278.582.371.214.093.429.155.674.155.214 0 .367-.031.459-.124a.326.326 0 0 0 .153-.278v-.186l-.153-.124-.245-.123-.46-.156-.582-.154-.458-.247-.276-.372a1.336 1.336 0 0 1-.093-.526v-.03l.093-.527c.092-.154.184-.309.336-.402.123-.124.276-.216.46-.278.184-.062.398-.093.613-.093.306 0 .582.062.857.155.276.092.52.216.735.402l-.49.711-.582-.309a1.185 1.185 0 0 0-.55-.124c-.185 0-.308.031-.4.124-.091.062-.153.155-.153.248v.03l.062.186.123.124.306.124.459.123.582.217c.153.062.306.155.429.247l.245.34c.06.155.092.31.092.496v.03c0 .217-.031.403-.123.558a1.02 1.02 0 0 1-.306.433c-.153.093-.306.185-.521.247a1.947 1.947 0 0 1-.612.093M52.544 19.6h.95v-3.311h-.95v3.31zm-.03-3.683h.98v-.835h-.98v.835zM59.404 16.289h.92v.464l.183-.186.214-.185.245-.124.307-.031c.367 0 .643.123.827.34.214.217.306.495.306.897V19.6h-.95v-1.856c0-.217-.03-.37-.122-.495a.605.605 0 0 0-.43-.155.604.604 0 0 0-.428.155.794.794 0 0 0-.153.495V19.6h-.919v-3.31zm-2.94 2.258l.337-.061a.536.536 0 0 0 .245-.156.673.673 0 0 0 .153-.246.923.923 0 0 0 .062-.31l-.062-.31a.678.678 0 0 0-.153-.247l-.245-.155-.337-.062-.306.062-.245.155a.479.479 0 0 0-.183.247l-.062.31c0 .247.092.433.245.556a.731.731 0 0 0 .551.217zm-.092 2.043l-.765-.094a1.74 1.74 0 0 1-.705-.247l.337-.711.52.247.583.062c.306 0 .551-.062.704-.217.153-.154.215-.37.215-.68v-.155a1.769 1.769 0 0 1-.43.402c-.153.093-.367.124-.642.124a1.72 1.72 0 0 1-.552-.093 1.35 1.35 0 0 1-.46-.31 1.752 1.752 0 0 1-.305-.463 1.68 1.68 0 0 1-.123-.681c0-.248.03-.464.123-.65.092-.216.183-.371.306-.495.153-.155.306-.247.49-.31l.52-.092c.276 0 .49.062.644.155.153.092.306.185.429.34v-.433h.919v2.568c0 .587-.123 1.02-.399 1.299a1.382 1.382 0 0 1-.582.34l-.827.094zM36.373 25.075c-.337 0-.643-.061-.98-.185-.306-.093-.582-.279-.858-.526l.582-.65c.184.155.368.279.582.372.215.093.429.154.674.154.214 0 .367-.03.46-.124a.326.326 0 0 0 .152-.278v-.186l-.152-.123-.246-.124-.46-.155-.58-.155-.46-.247-.276-.371a1.343 1.343 0 0 1-.092-.526v-.031l.092-.526c.092-.155.184-.31.337-.403.122-.123.276-.216.459-.278.184-.062.398-.093.613-.093.306 0 .582.062.857.155.276.093.521.216.735.402l-.49.712-.582-.31a1.186 1.186 0 0 0-.551-.123c-.184 0-.306.03-.398.124-.092.061-.153.154-.153.247v.031l.061.186.123.123.306.124.46.124.581.216c.153.062.306.155.43.248l.244.34c.061.155.092.31.092.495v.031c0 .217-.03.402-.123.557-.061.155-.153.31-.306.433a2.027 2.027 0 0 1-1.133.34M45.04 25.107a1.66 1.66 0 0 1-.673-.155 1.752 1.752 0 0 1-.552-.372 1.544 1.544 0 0 1-.337-.525 1.825 1.825 0 0 1-.153-.681c0-.247.062-.464.153-.681.092-.216.184-.402.337-.557.153-.155.337-.278.552-.371.214-.093.428-.124.704-.124.306 0 .551.062.766.155.214.093.367.217.52.402l-.551.62a.956.956 0 0 0-.337-.28c-.092-.061-.245-.092-.429-.092l-.306.062-.245.216-.184.279-.061.34v.03c0 .125.03.249.061.341.03.124.092.217.184.31a.474.474 0 0 0 .245.185c.092.031.215.062.367.062a.845.845 0 0 0 .399-.092l.337-.248.55.556a2.63 2.63 0 0 1-.55.434c-.215.124-.46.186-.797.186zm-3.675-2.012a1.009 1.009 0 0 0-.214-.525.621.621 0 0 0-.46-.186c-.214 0-.367.062-.49.186a1.04 1.04 0 0 0-.244.525h1.408zm-.612 2.012c-.215 0-.46-.062-.674-.155a1.279 1.279 0 0 1-.551-.34 1.543 1.543 0 0 1-.338-.526 1.857 1.857 0 0 1-.153-.712c0-.247.031-.464.123-.681.092-.216.184-.402.337-.557a1.61 1.61 0 0 1 .52-.371c.215-.093.429-.124.674-.124.276 0 .49.062.705.155.214.093.367.217.49.402.122.155.214.34.306.557.061.216.092.464.092.68l-.03.125v.123h-2.267c.03.217.123.372.275.496a.945.945 0 0 0 .52.154c.155 0 .277-.03.43-.093.092-.03.215-.124.368-.247l.52.464a1.31 1.31 0 0 1-.551.464c-.214.124-.49.186-.796.186zM48.623 25.075c-.336 0-.612-.123-.826-.34-.184-.217-.276-.495-.276-.897v-2.135h.919v1.857c0 .216.062.37.153.495a.604.604 0 0 0 .429.154.73.73 0 0 0 .429-.154.793.793 0 0 0 .153-.495v-1.857h.918v3.31h-.918v-.463l-.184.185-.214.186-.246.124-.337.03M60.936 24.271c.122 0 .245-.031.337-.062l.245-.185c.06-.093.122-.186.153-.279l.06-.371v-.031l-.06-.372-.153-.278-.245-.185a1.091 1.091 0 0 0-.337-.062l-.307.062-.245.185-.184.278c-.03.094-.06.217-.06.372v.03l.06.372a.739.739 0 0 0 .184.279l.245.185.307.062zm-.215.804c-.214 0-.398-.03-.582-.123a1.345 1.345 0 0 1-.46-.31c-.152-.154-.244-.34-.336-.556-.092-.217-.122-.433-.122-.712v-.031c0-.278.03-.526.122-.743.092-.216.184-.37.337-.525a.941.941 0 0 1 .46-.31c.183-.093.367-.124.581-.124.245 0 .46.062.613.155.153.093.306.185.398.34v-1.64h.919v4.518h-.92v-.464a1.148 1.148 0 0 1-.397.37 1.2 1.2 0 0 1-.613.155zm-3.491-1.98a1.012 1.012 0 0 0-.214-.525.621.621 0 0 0-.46-.186c-.214 0-.367.062-.49.186a1.043 1.043 0 0 0-.245.525h1.409zm-.612 2.012c-.215 0-.46-.062-.675-.155a1.277 1.277 0 0 1-.55-.34 1.543 1.543 0 0 1-.338-.526 1.857 1.857 0 0 1-.153-.712c0-.247.03-.464.123-.681.092-.216.183-.402.337-.557.153-.155.306-.278.52-.371.215-.093.429-.124.674-.124.276 0 .49.062.705.155.214.093.367.217.49.402a2.4 2.4 0 0 1 .306.557c.061.216.092.464.092.68l-.031.125v.123h-2.266c.03.217.122.372.275.496a.945.945 0 0 0 .52.154c.154 0 .277-.03.43-.093.091-.03.214-.124.367-.247l.52.464a1.311 1.311 0 0 1-.55.464c-.215.124-.49.186-.796.186zm-4.625-3.404h.919v.65c.091-.217.245-.402.398-.526.153-.155.367-.217.643-.186v.99h-.03c-.338 0-.583.093-.736.279-.184.185-.275.495-.275.897v1.207h-.92v-3.31zM64.243 7.657h1.317v.31H65.1v1.267h-.368V7.966h-.49v-.31m3.277 0v1.578h-.367v-1.02l-.398.68h-.061l-.398-.68v1.02h-.368V7.657h.398l.429.68.398-.68h.367"/>
        <path fill="#000" d="M22.897 13.505h1.134v-1.176h-1.134v1.176zm0-3.002h1.134V9.359h-1.134v1.144zm1.777-4.177h1.164V5.181h-1.164v1.145zm3.43-2.382h2.235V2.706h-2.235v3.62h-2.267v1.176h-1.93v.804h-1.01V9.36h-1.225v1.825h-1.164v1.145h-.765v1.176h-.858c-1.715 2.567-3.063 5.104-4.043 7.672-2.205-3.125-4.257-4.98-6.156-5.6-.52-.155-.888-.03-1.102.433-.215.464-.031 1.052.612 1.733 1.93 2.135 3.706 5.167 5.33 9.035.244.618.796.958 1.684 1.05.827.063 1.378-.247 1.623-.927 1.194-3.187 2.573-5.91 4.166-8.23v-1.33h.918v-1.145h.98v-1.392h1.134v-1.3h1.163V12.33h.92v-1.424h1.01v-.959h.98V7.502h1.133V6.326h1.317V5.151h-1.317v1.175h-1.133v1.176H26.97v1.145h-1.134V7.502h1.134V3.944h1.133z"/>
        <path fill="#000" d="M28.104 5.15h1.133V3.945h-1.133z"/>
        <path fill="#FFF" d="M22.897 10.503h1.134V9.359h-1.134z"/>
        <path fill="#000" d="M31.626 3.944h1.225V2.706h-1.225zM30.431 2.706h1.226V1.47H30.43zM31.626 1.469h1.225V.23h-1.225z"/>
    </g>
</svg>
