<svg xmlns="http://www.w3.org/2000/svg" width="85" height="26" viewBox="0 0 85 26">
    <g fill="#000" fill-rule="nonzero">
        <path d="M7.531 17.396a6.1 6.1 0 0 0-1.386-.639 5.002 5.002 0 0 0-1.51-.227 3.969 3.969 0 0 0-.944.105c-.262.06-.51.163-.736.306a1.512 1.512 0 0 0-.475.477c-.114.19-.173.407-.17.627a.968.968 0 0 0 .147.555c.109.158.254.287.425.377.212.114.438.2.673.256.296.073.596.13.9.172l.712.094c.414.057.822.146 1.222.267.38.111.738.282 1.063.505.31.213.567.492.752.815.199.367.296.779.283 1.194.01.475-.105.946-.333 1.365-.22.395-.528.736-.9 1-.399.28-.845.488-1.318.615a5.856 5.856 0 0 1-1.59.211 7.105 7.105 0 0 1-1.085-.089 7.732 7.732 0 0 1-1.132-.255 6.8 6.8 0 0 1-1.018-.427 4.532 4.532 0 0 1-.9-.594l.9-1.305c.195.173.41.322.64.444.529.285 1.102.484 1.696.589.3.055.605.083.911.083.316.004.63-.028.939-.094.269-.058.527-.157.764-.294.204-.119.38-.28.514-.472.13-.189.197-.411.193-.639a.98.98 0 0 0-.566-.904 5.397 5.397 0 0 0-1.765-.466l-.803-.111a6.369 6.369 0 0 1-1.131-.261 3.285 3.285 0 0 1-.979-.51 2.475 2.475 0 0 1-.696-.828 2.552 2.552 0 0 1-.283-1.199 2.776 2.776 0 0 1 .323-1.348c.212-.392.512-.732.877-.994a4.05 4.05 0 0 1 1.295-.61 5.758 5.758 0 0 1 1.584-.211 6.644 6.644 0 0 1 2.042.294c.6.19 1.17.46 1.697.8l-.832 1.326zm5.629.777c.464-.005.925.086 1.352.266.4.17.76.424 1.052.744.3.336.533.726.684 1.149.17.476.255.977.249 1.482V22.38h-5.25c.038.282.13.555.272.804.122.214.286.403.481.555.187.144.4.25.628.317.235.068.479.101.724.1a3.135 3.135 0 0 0 1.063-.195c.355-.13.686-.318.979-.555l.764 1.083c-.4.344-.868.603-1.375.76a5.314 5.314 0 0 1-1.533.216 3.975 3.975 0 0 1-1.46-.26 3.32 3.32 0 0 1-1.13-.739 3.323 3.323 0 0 1-.747-1.148 4.049 4.049 0 0 1-.266-1.499 4.103 4.103 0 0 1 .26-1.482c.16-.428.406-.821.724-1.154a3.223 3.223 0 0 1 1.131-.744c.444-.18.918-.271 1.398-.272v.006zm-.029 1.348c-.25-.004-.5.037-.735.122a1.6 1.6 0 0 0-.566.35c-.16.161-.288.35-.379.555a2.54 2.54 0 0 0-.209.688h3.665a2.145 2.145 0 0 0-.565-1.26 1.658 1.658 0 0 0-1.216-.46l.005.005zm8.197-1.348a3.9 3.9 0 0 1 1.482.277c.439.183.827.467 1.131.827l-.99 1.032a2.963 2.963 0 0 0-.78-.555 2.185 2.185 0 0 0-.917-.183 2.088 2.088 0 0 0-.826.161c-.249.115-.47.28-.65.483-.193.202-.343.44-.441.7a2.639 2.639 0 0 0 0 1.803c.098.261.248.501.44.705.187.195.412.35.663.455.26.11.542.164.825.161.334 0 .662-.073.962-.216.286-.132.55-.306.78-.516l.957 1.07a3.12 3.12 0 0 1-1.166.828c-.468.188-.97.283-1.476.277a4.027 4.027 0 0 1-1.527-.277 3.36 3.36 0 0 1-1.923-1.937 4.078 4.078 0 0 1 0-2.897 3.36 3.36 0 0 1 1.906-1.92 4.027 4.027 0 0 1 1.544-.284l.006.006zm10.55 4.173c.012.489-.084.974-.284 1.421a2.78 2.78 0 0 1-.735.971 2.976 2.976 0 0 1-1.046.555 4.21 4.21 0 0 1-2.421 0 3.01 3.01 0 0 1-1.053-.555 2.702 2.702 0 0 1-.735-.97 3.33 3.33 0 0 1-.277-1.422V18.35h1.55v3.885a2.41 2.41 0 0 0 .13.85 1.398 1.398 0 0 0 .933.871c.443.13.915.13 1.358 0 .211-.06.405-.169.565-.316a1.48 1.48 0 0 0 .368-.556c.096-.272.142-.56.136-.849V18.35h1.55l-.04 3.996zm5.627-4.173c.215-.001.428.015.64.05.193.03.383.08.565.15l-.367 1.498a2.224 2.224 0 0 0-.566-.189 3.07 3.07 0 0 0-.605-.066 1.824 1.824 0 0 0-.68.122c-.202.079-.384.202-.53.36a1.69 1.69 0 0 0-.346.589c-.087.254-.129.52-.124.788v3.813h-1.573V18.35h1.527v.783c.218-.319.522-.573.877-.733.37-.16.772-.239 1.177-.233l.005.006zm5.176 0c.465-.005.925.086 1.352.266.401.17.76.424 1.052.744.311.334.554.724.713 1.149.17.476.255.977.249 1.482V22.38h-5.283c.037.282.13.555.271.804.122.214.286.403.481.555.187.144.4.25.628.317.235.068.479.101.724.1a3.135 3.135 0 0 0 1.063-.195c.355-.13.686-.318.979-.555l.77 1.077c-.4.344-.868.603-1.375.76a5.314 5.314 0 0 1-1.533.217 3.975 3.975 0 0 1-1.46-.26 3.32 3.32 0 0 1-1.131-.74 3.323 3.323 0 0 1-.747-1.148 4.049 4.049 0 0 1-.266-1.498 4.103 4.103 0 0 1 .26-1.482 3.38 3.38 0 0 1 .713-1.155 3.223 3.223 0 0 1 1.132-.743 3.739 3.739 0 0 1 1.403-.267l.005.006zm-.028 1.348c-.25-.004-.5.037-.735.122a1.6 1.6 0 0 0-.566.35c-.16.161-.288.35-.38.555-.101.219-.172.45-.208.688h3.676a2.145 2.145 0 0 0-.565-1.26 1.658 1.658 0 0 0-1.228-.46l.006.005zm10.018-4.578c.447-.002.893.046 1.329.144.414.092.815.234 1.194.422.362.18.698.405 1 .671.296.257.55.557.753.888l-1.391.91a3.373 3.373 0 0 0-1.217-1.07 3.528 3.528 0 0 0-1.697-.39c-.5-.004-.995.086-1.459.267-.425.174-.81.43-1.131.755-.332.334-.592.73-.764 1.165-.37.967-.37 2.031 0 2.998.172.434.432.83.764 1.165.32.324.706.581 1.131.755.464.18.96.271 1.46.266a3.414 3.414 0 0 0 2.879-1.454l1.357.977c-.22.317-.483.605-.78.855-.292.26-.615.483-.962.666a5.23 5.23 0 0 1-1.165.41 6.173 6.173 0 0 1-3.485-.255 4.943 4.943 0 0 1-2.828-2.775 5.73 5.73 0 0 1 0-4.196 4.943 4.943 0 0 1 2.828-2.775 5.873 5.873 0 0 1 2.184-.4zm9.107 3.207a4.027 4.027 0 0 1 1.516.278c.448.176.858.436 1.205.766.341.329.612.721.797 1.154a3.79 3.79 0 0 1 0 2.897A3.516 3.516 0 0 1 64.5 24.4c-.347.33-.757.59-1.205.766a4.26 4.26 0 0 1-3.032 0 3.662 3.662 0 0 1-1.205-.766 3.542 3.542 0 0 1-.815-1.132 3.79 3.79 0 0 1 0-2.897c.184-.433.453-.825.792-1.155a3.662 3.662 0 0 1 1.205-.766 4.027 4.027 0 0 1 1.544-.283l-.005-.017zm0 1.427c-.3-.003-.598.051-.877.16a2.074 2.074 0 0 0-.701.456c-.2.2-.358.438-.464.7a2.48 2.48 0 0 0 0 1.803c.106.26.264.498.464.7.2.196.438.351.701.454.564.217 1.19.217 1.754 0a2.08 2.08 0 0 0 1.176-1.137 2.48 2.48 0 0 0 0-1.804 2.095 2.095 0 0 0-.47-.7 2.12 2.12 0 0 0-.706-.455 2.335 2.335 0 0 0-.872-.16l-.005-.017zm8.445-1.427a2.696 2.696 0 0 1 2.223 1.022v-4.33h1.544v10.44h-1.544v-.832c-.247.309-.56.56-.916.738a2.874 2.874 0 0 1-1.307.277 3.478 3.478 0 0 1-2.506-1.026 3.483 3.483 0 0 1-.752-1.171 4.073 4.073 0 0 1 0-2.93c.17-.43.426-.823.752-1.155a3.478 3.478 0 0 1 2.506-1.027v-.006zm.187 1.427a2.168 2.168 0 0 0-.894.177 2.001 2.001 0 0 0-.668.478 2.106 2.106 0 0 0-.418.705 2.584 2.584 0 0 0 0 1.72c.091.26.234.499.418.705.187.203.414.365.668.477.565.23 1.2.23 1.765 0a2.099 2.099 0 0 0 1.103-1.127 2.59 2.59 0 0 0 0-1.764 2.025 2.025 0 0 0-1.109-1.166 2.173 2.173 0 0 0-.865-.189v-.016zm8.71-1.427c.465-.004.926.087 1.353.267.401.17.76.424 1.052.744.301.336.533.726.684 1.148.17.476.255.978.25 1.482V22.357h-5.222c.037.283.13.557.272.805.122.214.285.403.48.555.188.144.4.25.628.317.235.067.48.1.724.1a3.135 3.135 0 0 0 1.064-.195c.355-.13.686-.318.978-.555l.77 1.077c-.4.344-.868.603-1.375.76a5.308 5.308 0 0 1-1.533.217 3.975 3.975 0 0 1-1.46-.261 3.32 3.32 0 0 1-1.13-.738 3.323 3.323 0 0 1-.747-1.15 4.049 4.049 0 0 1-.266-1.498 4.103 4.103 0 0 1 .26-1.482c.16-.428.406-.82.724-1.154a3.223 3.223 0 0 1 1.132-.744 3.745 3.745 0 0 1 1.363-.244v-.017zm4.08 7.116v-.333h.14v-.072h-.367v.072h.158v.35l.068-.017zm.706 0v-.422h-.113l-.13.288-.13-.288h-.113v.422h.079v-.317l.119.272h.079l.119-.272v.317h.09zm-4.813-5.767c-.251-.005-.5.037-.736.122a1.6 1.6 0 0 0-.565.35c-.16.16-.288.349-.38.555a2.55 2.55 0 0 0-.209.688h3.666a2.145 2.145 0 0 0-.566-1.276 1.66 1.66 0 0 0-1.21-.422v-.017zM12.605 10.985h-1.73V2.338l-3.129 7.61H5.925L2.808 2.421v8.563H1.066V.48h2.653l3.117 7.51 3.11-7.51H12.6l.005 10.506zm9.107 0h-1.6v-.86c-.256.32-.58.582-.95.766a2.978 2.978 0 0 1-1.353.283c-.98.01-1.92-.375-2.602-1.066a3.622 3.622 0 0 1-.78-1.198 4.226 4.226 0 0 1 0-3.042c.177-.446.442-.853.78-1.199a3.604 3.604 0 0 1 2.602-1.065c.468-.012.932.087 1.352.288.37.187.695.45.95.772v-.866h1.601v7.187zm-3.716-5.9a2.248 2.248 0 0 0-.928.184 2.075 2.075 0 0 0-.69.494 2.21 2.21 0 0 0-.435.732 2.682 2.682 0 0 0 0 1.787c.096.27.246.52.44.733.193.21.428.378.69.494.587.24 1.247.24 1.834 0a2.093 2.093 0 0 0 1.148-1.21 2.693 2.693 0 0 0 0-1.831 2.104 2.104 0 0 0-1.148-1.21 2.237 2.237 0 0 0-.911-.172zm11.053.511a4.451 4.451 0 0 0-.979-.405 5.81 5.81 0 0 0-.633-.15 3.82 3.82 0 0 0-.679-.06 1.867 1.867 0 0 0-1.024.238.713.713 0 0 0-.362.621.51.51 0 0 0 .096.317c.068.088.155.16.255.21.122.061.25.106.384.134.148.033.306.063.476.089l.758.11a4.006 4.006 0 0 1 1.872.689c.465.339.73.88.707 1.448.003.33-.074.656-.226.95a2.156 2.156 0 0 1-.65.715c-.317.223-.671.386-1.047.483-.461.121-.937.179-1.414.172-.189 0-.408-.01-.657-.033a5.577 5.577 0 0 1-1.657-.416 3.979 3.979 0 0 1-.831-.472l.74-1.177c.137.104.28.199.43.283.168.094.344.172.527.234.211.071.429.125.65.16.267.043.538.064.809.062a2.61 2.61 0 0 0 1.244-.24.716.716 0 0 0 .425-.637.592.592 0 0 0-.306-.505 2.438 2.438 0 0 0-.961-.289l-.764-.1a3.564 3.564 0 0 1-1.855-.7 1.756 1.756 0 0 1-.64-1.409 2.147 2.147 0 0 1 .215-.966c.14-.286.348-.535.606-.727a2.92 2.92 0 0 1 .95-.455 4.55 4.55 0 0 1 1.261-.16 6.445 6.445 0 0 1 1.63.2c.473.114.925.302 1.34.554l-.69 1.232zm7.591-.377h-2.828v3.13c0 .212.036.422.107.622.052.154.137.296.25.416a.946.946 0 0 0 .367.239c.147.052.302.078.458.077.261-.002.52-.05.764-.144.248-.091.487-.206.712-.344l.634 1.254a5.042 5.042 0 0 1-.996.505 3.51 3.51 0 0 1-1.25.211 2.65 2.65 0 0 1-1.934-.683 2.845 2.845 0 0 1-.702-2.12V5.224h-1.454V3.798h1.454V1.622h1.607v2.176h2.828l-.017 1.42zm4.921-1.615c.482-.006.96.086 1.403.272.417.176.79.44 1.092.771.313.35.555.754.712 1.193.176.494.262 1.015.255 1.538v.583h-5.447c.04.292.135.575.283.832a1.977 1.977 0 0 0 1.148.883c.244.07.498.106.752.105.386 0 .77-.067 1.132-.2.366-.13.708-.317 1.012-.555l.798 1.11c-.415.357-.9.625-1.426.788a5.515 5.515 0 0 1-1.59.228 4.115 4.115 0 0 1-1.544-.244 3.44 3.44 0 0 1-1.187-.766 3.45 3.45 0 0 1-.775-1.194 4.202 4.202 0 0 1-.278-1.554 4.267 4.267 0 0 1 .266-1.537c.166-.445.422-.853.753-1.199a3.333 3.333 0 0 1 1.13-.771 3.871 3.871 0 0 1 1.511-.278v-.005zm-.028 1.398c-.26-.004-.52.039-.764.128a1.655 1.655 0 0 0-.565.366c-.165.16-.299.349-.396.555-.113.23-.19.475-.232.727h3.801a2.202 2.202 0 0 0-.61-1.304 1.715 1.715 0 0 0-1.234-.472zm9.05-1.398c.222-.002.443.015.662.05.194.033.383.085.566.155l-.385 1.554a2.292 2.292 0 0 0-.565-.194 3.226 3.226 0 0 0-.628-.067 1.893 1.893 0 0 0-.702.128 1.49 1.49 0 0 0-.565.377 1.758 1.758 0 0 0-.362.61 2.4 2.4 0 0 0-.13.817v3.957h-1.601V3.776h1.584v.81c.224-.322.533-.58.893-.744a2.973 2.973 0 0 1 1.216-.233l.017-.005zm5.47 0a4.026 4.026 0 0 1 1.539.288c.465.187.877.483 1.2.86l-1.025 1.072a3.073 3.073 0 0 0-.809-.555 2.3 2.3 0 0 0-.95-.195 2.168 2.168 0 0 0-.854.167c-.261.108-.496.27-.69.472-.198.21-.352.458-.453.727a2.726 2.726 0 0 0 0 1.87c.101.27.255.516.453.727.194.203.429.363.69.472.27.113.56.17.854.167a2.3 2.3 0 0 0 .984-.211c.298-.143.57-.33.81-.555l.983 1.082c-.329.376-.744.67-1.21.86a3.992 3.992 0 0 1-1.533.289 4.17 4.17 0 0 1-1.584-.289 3.501 3.501 0 0 1-1.997-1.992 4.225 4.225 0 0 1 0-3.003 3.501 3.501 0 0 1 1.997-1.992 4.172 4.172 0 0 1 1.578-.256l.017-.005zm11.24 7.381h-1.6v-.86c-.257.32-.581.582-.951.766a2.978 2.978 0 0 1-1.352.283c-.98.01-1.92-.375-2.602-1.066a3.622 3.622 0 0 1-.78-1.198 4.226 4.226 0 0 1 0-3.042c.176-.446.442-.853.78-1.199a3.604 3.604 0 0 1 2.602-1.065c.468-.012.931.087 1.352.288.37.187.694.45.95.772v-.866h1.6v7.187zm-3.71-5.9a2.248 2.248 0 0 0-.928.184 2.075 2.075 0 0 0-.69.494 2.21 2.21 0 0 0-.436.732 2.682 2.682 0 0 0 0 1.787c.096.27.244.519.435.733.193.21.428.378.69.494.587.24 1.247.24 1.833 0a2.099 2.099 0 0 0 1.149-1.21 2.682 2.682 0 0 0 0-1.831 2.104 2.104 0 0 0-1.148-1.21 2.243 2.243 0 0 0-.9-.172h-.006zm9.78-1.476c.221-.001.442.016.661.05.194.033.383.085.566.156l-.385 1.554a2.292 2.292 0 0 0-.565-.195 3.238 3.238 0 0 0-.628-.066 1.887 1.887 0 0 0-.702.127 1.49 1.49 0 0 0-.565.378 1.758 1.758 0 0 0-.362.61 2.4 2.4 0 0 0-.13.816v3.957h-1.601V3.781h1.6v.81a2.19 2.19 0 0 1 .9-.749 2.979 2.979 0 0 1 1.216-.233h-.006zm5.249 0c.467-.012.931.087 1.352.289.37.186.694.45.95.771V.18h1.6v10.806h-1.6v-.86c-.256.32-.58.582-.95.766a2.978 2.978 0 0 1-1.352.283c-.98.01-1.92-.375-2.602-1.066a3.63 3.63 0 0 1-.798-1.198 4.226 4.226 0 0 1 0-3.042c.177-.446.443-.853.78-1.199a3.604 3.604 0 0 1 2.603-1.065l.017.005zm5.77 6.716a.477.477 0 0 1 .339.133.442.442 0 0 1 0 .644.493.493 0 0 1-.34.139.476.476 0 0 1-.44-.278.442.442 0 0 1 0-.355.46.46 0 0 1 .254-.244.489.489 0 0 1 .192-.04h-.006zm0 .816a.35.35 0 0 0 .254-.106.356.356 0 0 0 0-.505.362.362 0 0 0-.113-.077.357.357 0 0 0-.142 0 .375.375 0 0 0-.141 0 .35.35 0 0 0-.113.555c.032.032.07.059.113.077a.367.367 0 0 0 .147.05l-.006.006zm0-.555a.2.2 0 0 1 .13.039c.03.024.047.061.045.1a.115.115 0 0 1-.034.088.171.171 0 0 1-.102.045l.141.16h-.113l-.13-.16h-.04v.16h-.09v-.427l.192-.005zm-.108.077v.111h.107a.104.104 0 0 0 .057 0 .05.05 0 0 0 0-.044.044.044 0 0 0 0-.044.11.11 0 0 0-.057 0l-.107-.023zm-5.498-5.55a2.248 2.248 0 0 0-.928.183 2.075 2.075 0 0 0-.69.494 2.21 2.21 0 0 0-.436.733 2.682 2.682 0 0 0 0 1.787 2.069 2.069 0 0 0 1.126 1.227c.587.24 1.246.24 1.833 0 .263-.113.5-.277.696-.483.217-.22.385-.483.492-.772a2.688 2.688 0 0 0 0-1.831 2.104 2.104 0 0 0-1.148-1.21 2.244 2.244 0 0 0-.911-.155l-.034.027z"/>
    </g>
</svg>
