<svg xmlns="http://www.w3.org/2000/svg" xmlns:xlink="http://www.w3.org/1999/xlink" width="40" height="40" viewBox="0 0 40 40">
    <defs>
        <path id="a" d="M30.837 12.971a8.684 8.684 0 0 1-2.553.717 4.549 4.549 0 0 0 1.955-2.52c-.86.521-1.81.9-2.825 1.104a4.384 4.384 0 0 0-3.245-1.439c-2.453 0-4.444 2.042-4.444 4.559 0 .357.038.704.114 1.038-3.694-.19-6.97-2.003-9.164-4.765a4.642 4.642 0 0 0-.601 2.295c0 1.58.784 2.976 1.977 3.794a4.365 4.365 0 0 1-2.014-.569v.056c0 2.21 1.532 4.053 3.567 4.47a4.24 4.24 0 0 1-1.171.16c-.286 0-.566-.027-.837-.08.566 1.81 2.207 3.129 4.153 3.164a8.779 8.779 0 0 1-6.582 1.89 12.378 12.378 0 0 0 6.815 2.047c8.178 0 12.65-6.946 12.65-12.97 0-.199-.005-.397-.012-.591a9.125 9.125 0 0 0 2.217-2.36"/>
    </defs>
    <g fill="none" fill-rule="evenodd">
        <path d="M0 0h40v40H0z"/>
        <mask id="b" fill="#fff">
            <use xlink:href="#a"/>
        </mask>
        <use fill="#00AAEC" xlink:href="#a"/>
        <g fill="#000" mask="url(#b)">
            <path d="M40 40H0V0h40z"/>
        </g>
    </g>
</svg>
