<svg width="339" height="130" viewBox="0 0 339 130" xmlns="http://www.w3.org/2000/svg" xmlns:xlink="http://www.w3.org/1999/xlink">
    <defs>
        <path d="M.133 61.989c0 33.918 27.594 61.512 61.512 61.512 33.917 0 61.511-27.594 61.511-61.512 0-33.917-27.594-61.511-61.511-61.511C27.727.478.133 28.072.133 61.989zm3.603 0c0-31.982 25.926-57.908 57.909-57.908 31.982 0 57.908 25.926 57.908 57.908 0 31.982-25.926 57.909-57.908 57.909-31.983 0-57.909-25.927-57.909-57.909zm86.115-32.906-.242.213.005.012c-1.127 1.164-1.238 3.04-.227 4.248.228.272.474.546.784.723l-1 .853 1.685 1.974 4.965-4.242-1.666-1.989-1.469 1.256a.87.87 0 0 1-1.195-.092.849.849 0 0 1 .094-1.195l1.548-1.322-1.57-1.838-1.712 1.399zm-60.997 5.041c-4.998 6.277-7.64 13.843-7.64 21.883 0 8.949 3.346 17.399 9.419 23.923.765 0 2.621-1.42 3.118-2.055-4.753-4.959-7.874-11.307-8.636-18.138-.797-7.14.697-13.996 4.245-19.89.12-.198.269-.43.436-.68a3.897 3.897 0 0 0-.805-5.215l-.137.172zm65.53 2.412.141.17c5.379 6.47 8.478 14.466 8.963 23.127.459 8.2-1.515 16.15-5.612 22.871-.251.41-.606.935-.988 1.477a3.881 3.881 0 0 0 .731 5.235l.139-.17c6.684-8.194 10.029-18.712 9.416-29.619-.529-9.455-3.922-18.197-9.81-25.281l-.141-.169-2.839 2.359zM66.683 48.461c-8.603 4.559-11.895 15.267-7.337 23.871a17.536 17.536 0 0 0 10.416 8.611 17.716 17.716 0 0 0 13.455-1.274 17.442 17.442 0 0 0 3.99-2.905c-1.909 3.685-4.835 6.673-8.526 8.689a20.715 20.715 0 0 1-9.388 2.341 20.839 20.839 0 0 1-9.11-1.969c-.58-.309-1.15-.636-1.711-.98-1.676-1.028-3.839-.564-4.975 1.041l-.002.002a35.662 35.662 0 0 0 3.273 2.251s1.19.69 1.22.706l.002-.003a24.762 24.762 0 0 0 10.525 2.638c.269.006.541.008.814.006a24.783 24.783 0 0 0 10.632-2.549l.009.021.525-.285c.04-.019.08-.038.12-.059l.186-.113-.003-.004a24.514 24.514 0 0 0 11.389-14.184c1.717-5.587 1.434-11.378-.816-16.742a18.273 18.273 0 0 0-.816-1.773l-.118-.208-.194.105.166-.162-.1-.19-.008.004c-3.226-5.683-9.247-8.918-15.426-8.919-2.779 0-5.588.654-8.192 2.033zm4.166 28.949a13.874 13.874 0 0 1-8.24-6.806 13.87 13.87 0 0 1-1.003-10.641 13.867 13.867 0 0 1 6.806-8.24 13.94 13.94 0 0 1 6.833-1.62c4.982.114 9.561 2.893 11.947 7.249.104.2.204.402.302.603.077.16.153.32.225.482.072.157.141.314.205.468a13.788 13.788 0 0 1 .377 9.263 13.876 13.876 0 0 1-6.812 8.238 13.853 13.853 0 0 1-6.509 1.629 14.05 14.05 0 0 1-4.131-.625zm-24.93-17.493c.095.235.179.455.241.644a20.662 20.662 0 0 1 .899 9.113 21.23 21.23 0 0 1-.637 3.158 20.894 20.894 0 0 1-5.847 9.613l-.059.052c-.588.544-1.23 1.07-1.909 1.564a21.04 21.04 0 0 1-1.882 1.222 20.708 20.708 0 0 1-9.333 2.555 20.803 20.803 0 0 1-8.748-1.609 21.408 21.408 0 0 1-2.043-.985 50.595 50.595 0 0 0 3.137 5.276 24.77 24.77 0 0 0 6.974 1.021c.266 0 .534-.005.801-.013a24.77 24.77 0 0 0 10.572-2.791l.01.021.82-.474-.002-.006c.452-.27.871-.536 1.274-.811a24.763 24.763 0 0 0 2.684-2.123 24.399 24.399 0 0 0 3.16-3.487 24.593 24.593 0 0 0 1.898-2.982 24.996 24.996 0 0 0 2.045-5.038c.134-.478.261-1 .388-1.596a24.593 24.593 0 0 0-2.597-17.142l-.108-.192c-1.765.987-2.498 3.135-1.738 5.01z" id="ayzkfq6nsa"/>
        <path id="p4rzdx2a3d" d="M.07.243h48.584V51.12H.07z"/>
        <linearGradient x1="15.701%" y1="15.701%" x2="84.539%" y2="84.538%" id="jghhju86xb">
            <stop stop-color="#E71E6E" offset="0%"/>
            <stop stop-color="#662483" offset="100%"/>
        </linearGradient>
    </defs>
    <g fill="none" fill-rule="evenodd">
        <g transform="translate(4 3)">
            <mask id="0sydobuypc" fill="#fff">
                <use xlink:href="#ayzkfq6nsa"/>
            </mask>
            <path d="M.133 61.989c0 33.918 27.594 61.512 61.512 61.512 33.917 0 61.511-27.594 61.511-61.512 0-33.917-27.594-61.511-61.511-61.511C27.727.478.133 28.072.133 61.989zm3.603 0c0-31.982 25.926-57.908 57.909-57.908 31.982 0 57.908 25.926 57.908 57.908 0 31.982-25.926 57.909-57.908 57.909-31.983 0-57.909-25.927-57.909-57.909zm86.115-32.906-.242.213.005.012c-1.127 1.164-1.238 3.04-.227 4.248.228.272.474.546.784.723l-1 .853 1.685 1.974 4.965-4.242-1.666-1.989-1.469 1.256a.87.87 0 0 1-1.195-.092.849.849 0 0 1 .094-1.195l1.548-1.322-1.57-1.838-1.712 1.399zm-60.997 5.041c-4.998 6.277-7.64 13.843-7.64 21.883 0 8.949 3.346 17.399 9.419 23.923.765 0 2.621-1.42 3.118-2.055-4.753-4.959-7.874-11.307-8.636-18.138-.797-7.14.697-13.996 4.245-19.89.12-.198.269-.43.436-.68a3.897 3.897 0 0 0-.805-5.215l-.137.172zm65.53 2.412.141.17c5.379 6.47 8.478 14.466 8.963 23.127.459 8.2-1.515 16.15-5.612 22.871-.251.41-.606.935-.988 1.477a3.881 3.881 0 0 0 .731 5.235l.139-.17c6.684-8.194 10.029-18.712 9.416-29.619-.529-9.455-3.922-18.197-9.81-25.281l-.141-.169-2.839 2.359zM66.683 48.461c-8.603 4.559-11.895 15.267-7.337 23.871a17.536 17.536 0 0 0 10.416 8.611 17.716 17.716 0 0 0 13.455-1.274 17.442 17.442 0 0 0 3.99-2.905c-1.909 3.685-4.835 6.673-8.526 8.689a20.715 20.715 0 0 1-9.388 2.341 20.839 20.839 0 0 1-9.11-1.969c-.58-.309-1.15-.636-1.711-.98-1.676-1.028-3.839-.564-4.975 1.041l-.002.002a35.662 35.662 0 0 0 3.273 2.251s1.19.69 1.22.706l.002-.003a24.762 24.762 0 0 0 10.525 2.638c.269.006.541.008.814.006a24.783 24.783 0 0 0 10.632-2.549l.009.021.525-.285c.04-.019.08-.038.12-.059l.186-.113-.003-.004a24.514 24.514 0 0 0 11.389-14.184c1.717-5.587 1.434-11.378-.816-16.742a18.273 18.273 0 0 0-.816-1.773l-.118-.208-.194.105.166-.162-.1-.19-.008.004c-3.226-5.683-9.247-8.918-15.426-8.919-2.779 0-5.588.654-8.192 2.033zm4.166 28.949a13.874 13.874 0 0 1-8.24-6.806 13.87 13.87 0 0 1-1.003-10.641 13.867 13.867 0 0 1 6.806-8.24 13.94 13.94 0 0 1 6.833-1.62c4.982.114 9.561 2.893 11.947 7.249.104.2.204.402.302.603.077.16.153.32.225.482.072.157.141.314.205.468a13.788 13.788 0 0 1 .377 9.263 13.876 13.876 0 0 1-6.812 8.238 13.853 13.853 0 0 1-6.509 1.629 14.05 14.05 0 0 1-4.131-.625zm-24.93-17.493c.095.235.179.455.241.644a20.662 20.662 0 0 1 .899 9.113 21.23 21.23 0 0 1-.637 3.158 20.894 20.894 0 0 1-5.847 9.613l-.059.052c-.588.544-1.23 1.07-1.909 1.564a21.04 21.04 0 0 1-1.882 1.222 20.708 20.708 0 0 1-9.333 2.555 20.803 20.803 0 0 1-8.748-1.609 21.408 21.408 0 0 1-2.043-.985 50.595 50.595 0 0 0 3.137 5.276 24.77 24.77 0 0 0 6.974 1.021c.266 0 .534-.005.801-.013a24.77 24.77 0 0 0 10.572-2.791l.01.021.82-.474-.002-.006c.452-.27.871-.536 1.274-.811a24.763 24.763 0 0 0 2.684-2.123 24.399 24.399 0 0 0 3.16-3.487 24.593 24.593 0 0 0 1.898-2.982 24.996 24.996 0 0 0 2.045-5.038c.134-.478.261-1 .388-1.596a24.593 24.593 0 0 0-2.597-17.142l-.108-.192c-1.765.987-2.498 3.135-1.738 5.01z" fill="url(#jghhju86xb)" mask="url(#0sydobuypc)"/>
        </g>
        <path d="M164.37 69.064h16.959l-8.48-17.569-8.48 17.57zM146.8 91.141l24.52-50.876h3.057l21.008 43.695-3.438 7.181-7.792-16.118h-22.687l-5.424 11.382c-.663 1.325-1.528 2.432-2.598 3.323-1.07.892-2.14 1.363-3.208 1.413H146.8zM239.156 72.054c-.051 2.99-.586 5.665-1.604 8.022-1.02 2.358-2.406 4.36-4.164 6.008-1.756 1.648-3.857 2.903-6.301 3.764-2.445.864-5.118 1.293-8.022 1.293-2.954 0-5.666-.442-8.135-1.33-2.471-.887-4.596-2.18-6.378-3.878-1.784-1.7-3.17-3.765-4.164-6.2-.993-2.432-1.49-5.195-1.49-8.288v-31.18h6.493V71.75c0 4.36 1.26 7.656 3.782 9.886 2.52 2.23 5.818 3.346 9.892 3.346s7.372-1.115 9.893-3.346c2.52-2.23 3.782-5.525 3.782-9.886V47.719c0-.862.164-1.723.496-2.586a8.944 8.944 0 0 1 1.337-2.358 7.496 7.496 0 0 1 1.948-1.75 4.49 4.49 0 0 1 2.406-.683h.229v31.712zM254.063 64.203h7.64c3.666 0 6.427-.641 8.288-1.924 1.858-1.283 2.788-3.437 2.788-6.466 0-3.027-.93-5.374-2.788-7.042-1.86-1.667-4.622-2.502-8.289-2.502h-7.639v17.934zm7.333 6.003h-7.333v13.47c0 .873-.166 1.745-.496 2.617a9.145 9.145 0 0 1-1.337 2.386 7.539 7.539 0 0 1-1.948 1.77 4.455 4.455 0 0 1-2.406.692h-.306V40.266h14.285c2.647 0 5.054.359 7.22 1.077 2.163.719 4.01 1.746 5.537 3.079 1.528 1.335 2.712 2.964 3.553 4.887.84 1.925 1.26 4.093 1.26 6.504 0 3.695-.98 6.67-2.94 8.929-1.962 2.258-4.65 3.823-8.06 4.695l16.73 21.704h-7.869l-15.89-20.935z" fill="#1E2749"/>
        <g transform="translate(286 40.022)">
            <mask id="pi532p73ne" fill="#fff">
                <use xlink:href="#p4rzdx2a3d"/>
            </mask>
            <path d="M17.64 29.042h16.958l-8.48-17.569-8.479 17.57zM.07 51.12 24.59.243h3.056l21.008 43.695-3.438 7.181-7.792-16.118H14.737L9.313 46.383c-.663 1.325-1.528 2.432-2.598 3.323-1.069.892-2.139 1.363-3.208 1.413H.07z" fill="#1E2749" mask="url(#pi532p73ne)"/>
        </g>
        <path d="M0 0h339v130H0z"/>
    </g>
</svg>
