<?xml version="1.0" encoding="UTF-8"?>
<svg width="18px" height="18px" viewBox="0 0 18 18" version="1.1" xmlns="http://www.w3.org/2000/svg" xmlns:xlink="http://www.w3.org/1999/xlink">
    <!-- Generator: Sketch 45.2 (43514) - http://www.bohemiancoding.com/sketch -->
    <title>Fill 1</title>
    <desc>Created with Sketch.</desc>
    <defs></defs>
    <g id="MC-Artboards" stroke="none" stroke-width="1" fill="none" fill-rule="evenodd">
        <path d="M10.7748281,11.2329844 L10.7748281,8.98692188 L7.18101562,8.98692188 L7.18101562,11.6824219 L5.38410937,11.6824219 L5.38410937,8.08832813 C5.38410937,7.59417187 5.78854687,7.19001562 6.28242187,7.19001562 L10.7748281,7.19001562 L10.7748281,4.94395312 L13.9194844,8.08832813 L10.7748281,11.2329844 Z M17.7017344,8.34904688 L9.61579687,0.262828125 C9.26535937,-0.087609375 8.69920312,-0.087609375 8.34876562,0.262828125 L0.262828125,8.34904688 C-0.087609375,8.69920313 -0.087609375,9.26535938 0.262828125,9.61579688 L8.34876562,17.7020156 C8.69920312,18.0521719 9.26535937,18.0521719 9.61579687,17.7020156 L17.7017344,9.61579688 C18.0521719,9.27435938 18.0521719,8.70820313 17.7017344,8.34904688 L17.7017344,8.34904688 Z" id="Fill-1" fill="#9A0000"></path>
    </g>
</svg>