<svg xmlns="http://www.w3.org/2000/svg" width="12" height="10" viewBox="0 0 12 10">
    <path fill="#666" fill-rule="nonzero" d="M11.145 8.358V3.215c-.143.16-.297.308-.463.442A93.815 93.815 0 0 0 7.83 5.92c-.227.192-.413.341-.556.448a3.094 3.094 0 0 1-.579.325 1.68 1.68 0 0 1-.686.164h-.014a1.68 1.68 0 0 1-.686-.164 3.094 3.094 0 0 1-.58-.325 13.162 13.162 0 0 1-.555-.448 93.815 93.815 0 0 0-2.854-2.264 3.925 3.925 0 0 1-.462-.442v5.143c0 .058.021.109.064.151a.206.206 0 0 0 .15.064h9.86a.206.206 0 0 0 .15-.064.206.206 0 0 0 .064-.15zm0-7.039v-.164l-.004-.087-.02-.083-.037-.06-.06-.051-.094-.017H1.072A.206.206 0 0 0 .92.921a.206.206 0 0 0-.064.15c0 .75.328 1.385.985 1.903.862.678 1.757 1.386 2.685 2.123l.235.197c.13.11.232.193.308.251.076.059.175.129.298.211.123.083.236.144.338.185.103.04.199.06.288.06h.014c.089 0 .185-.02.288-.06.102-.04.215-.102.338-.185.123-.082.222-.152.298-.21a8.69 8.69 0 0 0 .308-.252l.234-.197c.93-.737 1.824-1.445 2.686-2.123.241-.192.465-.45.673-.774.208-.324.312-.617.312-.88zm.857-.247v7.286c0 .295-.105.547-.315.757-.21.21-.462.315-.757.315H1.072c-.295 0-.547-.105-.757-.315A1.032 1.032 0 0 1 0 8.358V1.072C0 .777.105.525.315.315.525.105.777 0 1.072 0h9.858c.295 0 .547.105.757.315.21.21.315.462.315.757z"/>
</svg>
