<svg width="24" height="24" xmlns="http://www.w3.org/2000/svg">
    <g fill="none" fill-rule="evenodd">
        <rect stroke="#0E1111" fill="#FFF" x=".5" y=".5" width="23" height="23" rx="3"/>
        <g fill-rule="nonzero">
            <path fill="#0E1111" d="M4 7.262v9.476h16V12.24h-5.015V7.262z"/>
            <path d="M9.309 10.485a1.185 1.185 0 0 1-.259.722c-.088.113-.191.213-.307.297a1.19 1.19 0 0 1-1.129.141 1.384 1.384 0 0 1-.595-.462 1.123 1.123 0 0 1-.226-.556 1.301 1.301 0 0 1 .077-.66 1.33 1.33 0 0 1 .674-.693 1.314 1.314 0 0 1 .923-.032 1.293 1.293 0 0 1 .78.81c.046.126.06.258.06.432h.002zm-1.636-.036c0 .016.002.045.006.074a.288.288 0 0 0 .217.26c.111.034.23.03.339-.012a.267.267 0 0 0 .163-.186.527.527 0 0 0 .006-.27.284.284 0 0 0-.247-.23.57.57 0 0 0-.284.02.282.282 0 0 0-.15.121.424.424 0 0 0-.05.223zM10.754 11.722a1.102 1.102 0 0 1-.337-.046 1.124 1.124 0 0 1-.322-.15 1.462 1.462 0 0 1-.41-.408 1.09 1.09 0 0 1-.134-.286 1.312 1.312 0 0 1 .016-.827c.066-.175.17-.334.303-.465.104-.107.227-.194.363-.256.102-.046.21-.077.32-.092a1.296 1.296 0 0 1 .656.064 1.282 1.282 0 0 1 .538.397c.08.097.145.207.191.325a1.284 1.284 0 0 1-.021.979c-.081.171-.196.324-.339.449a1.217 1.217 0 0 1-.355.229 1.14 1.14 0 0 1-.469.088zm.028-.915c.015 0 .031-.002.047-.004a.358.358 0 0 0 .182-.063.283.283 0 0 0 .109-.19.56.56 0 0 0-.018-.282.268.268 0 0 0-.216-.177.574.574 0 0 0-.298.015.281.281 0 0 0-.188.206.51.51 0 0 0 0 .26.286.286 0 0 0 .097.158c.084.066.184.075.285.078M5.19 10.138c0-.491-.003-.983 0-1.474a.409.409 0 0 1 .188-.34c.087-.059.19-.09.296-.086h1.23c.07-.004.064.004.064.065v.694c0 .043-.005.047-.047.047h-.603a.355.355 0 0 0-.115.018c-.074.027-.101.092-.104.164-.004.11-.002.22-.003.33v.062c0 .02.01.03.03.029h.398c.053 0 .053 0 .053.052v.709c0 .045-.003.048-.047.047h-.4c-.03 0-.036.005-.036.036v1.16c0 .022-.008.031-.03.031H5.21c-.022 0-.025-.01-.025-.028v-1.516h.004zM12.536 10.704v-.586c0-.033-.006-.04-.039-.04h-.293c-.028 0-.035-.005-.035-.035v-.744c0-.027.007-.032.035-.032h.292c.035 0 .042-.007.042-.042v-.74c0-.033.004-.036.037-.036h.815c.038 0 .042.003.043.04l.003.415c0 .106 0 .212.002.319 0 .04.007.045.047.045h.261c.028 0 .036.007.036.035v.738c0 .03-.008.036-.036.036h-.264c-.035 0-.041.006-.041.042v.531a.282.282 0 0 0 .024.136.158.158 0 0 0 .113.088.433.433 0 0 0 .07.006h.252c.04 0 .045.004.045.045v.719c0 .035-.004.039-.038.039h-.911a.47.47 0 0 1-.424-.254.402.402 0 0 1-.038-.178v-.547h.002zM12.336 14.014v-1.685c0-.038.006-.044.044-.044h.823c.035 0 .042.007.042.042v1.598a.03.03 0 0 0 0 .01l.009.02a.074.074 0 0 0 .02-.011c.022-.026.042-.053.063-.08l.338-.421a.07.07 0 0 1 .06-.03h.905a.025.025 0 0 1 .017.01.025.025 0 0 1-.006.02c-.056.07-.113.137-.17.206l-.509.627c-.041.05-.082.101-.124.15a.031.031 0 0 0-.008.037 771.024 771.024 0 0 0 .819.989l.21.256a.075.075 0 0 1 .01.02.078.078 0 0 1-.023.008h-.986a.053.053 0 0 1-.044-.022l-.45-.548c-.032-.039-.063-.079-.097-.118a.116.116 0 0 0-.025-.018.098.098 0 0 0-.008.029v.643c0 .028-.006.033-.04.033h-.822c-.048 0-.048 0-.048-.048v-1.673zM8.308 15.778a1.15 1.15 0 0 1-.657-.196 1.453 1.453 0 0 1-.313-.283 1.165 1.165 0 0 1-.18-.293 1.32 1.32 0 0 1-.024-.951c.117-.317.353-.574.657-.716a1.33 1.33 0 0 1 .913-.052 1.174 1.174 0 0 1 .557.366c.144.156.244.349.29.558.034.166.039.338.013.506a1.12 1.12 0 0 1-.092.312 1.367 1.367 0 0 1-.52.576c-.1.063-.21.11-.324.136a1.246 1.246 0 0 1-.322.037h.002zm.036-1.648a.405.405 0 0 0-.208.05.358.358 0 0 0-.173.25.45.45 0 0 0 .017.236.265.265 0 0 0 .195.179.564.564 0 0 0 .262.003.271.271 0 0 0 .22-.199.507.507 0 0 0-.014-.345.246.246 0 0 0-.153-.141 1.445 1.445 0 0 0-.146-.033" fill="#FFF"/>
            <path d="M15.902 15.777a1.136 1.136 0 0 1-.664-.198 1.493 1.493 0 0 1-.41-.41 1.1 1.1 0 0 1-.134-.28 1.288 1.288 0 0 1-.033-.657c.028-.138.08-.269.154-.387.079-.134.179-.254.296-.355a1.12 1.12 0 0 1 .307-.182c.186-.069.384-.097.581-.083.105.004.209.02.309.05.145.043.28.115.396.213.123.102.225.229.3.37.043.079.081.16.114.242a.728.728 0 0 1 .053.269c0 .028-.007.035-.035.041l-.258.057-.227.049-.231.051-.226.05-.247.055-.222.049-.11.023c-.006 0-.016.009-.015.01a.049.049 0 0 0 .013.022l.115.09c.068.054.149.06.23.05a.364.364 0 0 0 .262-.154c.035-.046.035-.043.081-.012l.276.179c.122.079.246.157.367.237.04.027.04.028.005.065-.08.085-.156.172-.239.254a.836.836 0 0 1-.158.122 1.153 1.153 0 0 1-.583.171h-.07l.003-.001zm.017-1.709a.41.41 0 0 0-.33.171.909.909 0 0 0-.064.111.038.038 0 0 0 0 .026c0 .002.01.003.015.002l.25-.057.243-.056.15-.036c.023-.005.025-.015.01-.03a.392.392 0 0 0-.275-.13M11.078 15.777a1.165 1.165 0 0 1-.677-.196 1.48 1.48 0 0 1-.39-.379 1.107 1.107 0 0 1-.156-.318 1.317 1.317 0 0 1-.051-.508c.014-.174.066-.342.153-.493.097-.167.228-.311.383-.425.092-.07.194-.123.302-.159.199-.067.41-.085.617-.053.077.012.153.03.228.052.105.034.203.085.293.15.13.096.244.213.335.348.01.016.01.027-.008.038a62.89 62.89 0 0 0-.49.313l-.21.136c-.036.024-.036.022-.065-.011a.636.636 0 0 0-.097-.09.271.271 0 0 0-.18-.046.526.526 0 0 0-.17.025.282.282 0 0 0-.173.162.489.489 0 0 0-.014.308.271.271 0 0 0 .176.2.475.475 0 0 0 .307.013.31.31 0 0 0 .152-.11l.016-.019a.02.02 0 0 1 .03-.003c.188.123.376.245.566.367l.153.1a.022.022 0 0 1 .013.015.023.023 0 0 1-.005.02c-.109.163-.251.3-.418.401a1.084 1.084 0 0 1-.41.146c-.07.01-.14.016-.212.025l.002-.009zM5.19 13.833V12.33c0-.04.004-.045.043-.045h.81c.035 0 .042.007.042.045v2.36c0 .033.002.066.007.099a.168.168 0 0 0 .14.139.71.71 0 0 0 .092.005h.599c.029 0 .035.006.035.041v.73c0 .024-.008.033-.032.033H5.6a.478.478 0 0 1-.243-.062.306.306 0 0 1-.132-.161.667.667 0 0 1-.035-.237v-1.444zM17.42 14.68v-.944c0-.06.005-.12.016-.18a.332.332 0 0 1 .236-.267.658.658 0 0 1 .198-.026h1.08c.036 0 .042.006.042.044v.717c0 .041-.005.046-.046.046h-.405a.403.403 0 0 0-.13.023c-.061.022-.083.079-.091.14a.53.53 0 0 0-.002.067v1.405c0 .023-.007.031-.03.031h-.831c-.03 0-.035-.005-.035-.033V14.68h-.001z" fill="#FFF"/>
        </g>
    </g>
</svg>
