<?xml version="1.0" encoding="utf-8"?>
<!-- Generator: Adobe Illustrator 22.1.0, SVG Export Plug-In . SVG Version: 6.00 Build 0)  -->
<svg version="1.1" id="Layer_1" xmlns="http://www.w3.org/2000/svg" xmlns:xlink="http://www.w3.org/1999/xlink" x="0px" y="0px"
	 viewBox="0 0 36 36" style="enable-background:new 0 0 36 36;" xml:space="preserve">
<style type="text/css">
	.st0{clip-path:url(#SVGID_2_);fill:#dc062b;}
</style>
<g>
	<defs>
		<path id="SVGID_1_" d="M15.1,30.2c3.2,0,6.3-1,8.8-2.9l7.9,7.9c0.9,0.9,2.5,0.9,3.4,0c0.9-0.9,0.9-2.5,0-3.4l0,0L27.4,24
			c4.9-6.8,3.4-16.2-3.4-21.1C17.2-2,7.7-0.5,2.9,6.3s-3.4,16.2,3.4,21.1C8.8,29.2,11.9,30.2,15.1,30.2 M15.1,4.8
			c5.7,0,10.3,4.6,10.3,10.3s-4.6,10.3-10.3,10.3c-5.7,0-10.3-4.6-10.3-10.3C4.8,9.4,9.4,4.8,15.1,4.8"/>
	</defs>
	<clipPath id="SVGID_2_">
		<use xlink:href="#SVGID_1_"  style="overflow:visible;"/>
	</clipPath>
	<rect x="-10" y="-10" class="st0" width="56" height="56"/>
</g>
</svg>
