<svg id="Layer_1" data-name="Layer 1" xmlns="http://www.w3.org/2000/svg" viewBox="0.08 0 15.13 24.25"><defs><style>.cls-1{fill:#82644c;}</style></defs><title>WE-back-to-top-icon</title><path class="cls-1" d="M8.42,4.92h0a1,1,0,0,0-.28-.18.18.18,0,0,0-.07-.05,1.06,1.06,0,0,0-.42-.09h0a1,1,0,0,0-.42.09.18.18,0,0,0-.07.05,1,1,0,0,0-.28.18h0L1,10.79a1.08,1.08,0,0,0,1.53,1.53l4-4V23.16a1.08,1.08,0,1,0,2.16,0V8.29l4,4a1.08,1.08,0,0,0,1.53-1.53Z"></path><path class="cls-1" d="M14.22,0H1.08a1.09,1.09,0,0,0,0,2.17H14.22a1.09,1.09,0,0,0,0-2.17Z"></path></svg>