<svg xmlns="http://www.w3.org/2000/svg" width="32" height="25" viewBox="0 0 32 25">
    <g fill="#000" fill-rule="evenodd">
        <path fill-rule="nonzero" d="M23.704 20.148a2.373 2.373 0 0 0-2.37 2.37 2.373 2.373 0 0 0 2.37 2.37 2.373 2.373 0 0 0 2.37-2.37 2.373 2.373 0 0 0-2.37-2.37m1.076 2.37c0 .59-.474 1.077-1.076 1.077a1.066 1.066 0 0 1-1.077-1.076c0-.603.475-1.077 1.077-1.077s1.076.487 1.076 1.077M13.63 20.148a2.373 2.373 0 0 0-2.37 2.37 2.373 2.373 0 0 0 2.37 2.37 2.373 2.373 0 0 0 2.37-2.37 2.373 2.373 0 0 0-2.37-2.37m1.063 2.37c0 .59-.474 1.077-1.076 1.077-.59 0-1.076-.474-1.076-1.076 0-.603.474-1.077 1.076-1.077.602 0 1.076.487 1.076 1.077"/>
        <path d="M12.451 16.593l-.404-1.706h15.03L29.838 7H9.872l-.39-1.667H32L28.21 16.58z"/>
        <path d="M27.37 19.556l-17.074-.013L6.008 4.167 0 1.54.847 0l6.725 3.067 4.106 14.767h16.174z"/>
    </g>
</svg>
