<svg xmlns="http://www.w3.org/2000/svg" width="48" height="48" viewBox="0 0 48 48">
    <path fill="#333" fill-rule="nonzero" stroke="#FFF" stroke-width=".4" d="M12.857 9.2H8.2v2.6h2.848l.18.113 5.486 11.385-.006.185-2.057 3.659c-1.038 1.876.328 4.158 2.492 4.158h18.086v-2.6H16.802l1.842-3.298.175-.102h11.352c1.05 0 2-.558 2.493-1.443l5.456-9.736c.487-.856-.147-1.921-1.152-1.921H14.415l-.18-.114L12.857 9.2zm2.688 5.6h19.174l-4.373 7.798-.175.102H19.474l-.18-.113-3.75-7.787zm1.598 18.4c-1.563 0-2.833 1.258-2.833 2.8 0 1.542 1.27 2.8 2.833 2.8 1.566 0 2.847-1.261 2.847-2.8s-1.28-2.8-2.847-2.8zm15.238 0c-1.563 0-2.832 1.258-2.832 2.8 0 1.542 1.269 2.8 2.832 2.8 1.566 0 2.848-1.261 2.848-2.8s-1.282-2.8-2.848-2.8z"/>
</svg>
