<svg width="24px" height="21px" viewBox="0 0 24 21" version="1.1" xmlns="http://www.w3.org/2000/svg" xmlns:xlink="http://www.w3.org/1999/xlink">
    <g id="Symbols" stroke="none" stroke-width="1" fill="none" fill-rule="evenodd">
        <g id="Icon-/-Header-/-Navigation-/-Cart" transform="translate(-8.000000, -9.000000)">
            <g id="Icon-/-Navigation-/-Cart" transform="translate(8.000000, 9.000000)">
                <g id="Icon-/-Header-/-Solo-/-Cart-/-Dark">
                    <g id="we-icon__cart">
                        <g id="Group" transform="translate(0.000000, 0.297302)">
                            <g id="Clipped">
                                <polygon id="path-1" points="0 0.562784 23.3116087 0.562784 23.3116087 14.324504 0 14.324504"></polygon>
                                <path d="M20.1060522,11.595724 C19.8891826,12.493564 19.1796826,13.119644 18.3813783,13.119644 L8.03426957,13.119644 C7.26026957,13.119644 6.57507391,12.542584 6.33296522,11.680864 L4.47368261,5.119924 L21.6783565,5.119924 L20.1060522,11.595724 Z M4.12874783,3.915064 L3.14442174,0.562784 L-0.000186956522,0.562784 L-0.000186956522,1.766784 L2.14233478,1.766784 L2.9957913,4.674444 L2.99672609,4.674444 L5.0654,11.983584 C5.46174783,13.383664 6.65453043,14.324504 8.03426957,14.324504 L18.3813783,14.324504 C19.7966391,14.324504 21.0305522,13.309704 21.3839,11.858024 L23.3123565,3.915064 L4.12874783,3.915064 Z" id="Shape" fill="#565458" fill-rule="nonzero"></path>
                            </g>
                        </g>
                        <path d="M9.42728261,19.732958 C8.68132609,19.732958 8.07558696,19.175678 8.07558696,18.490258 C8.07558696,17.803978 8.68132609,17.245838 9.42728261,17.245838 C10.1723043,17.245838 10.7780435,17.803978 10.7780435,18.490258 C10.7780435,19.175678 10.1723043,19.732958 9.42728261,19.732958 M9.42728261,16.041838 C7.9606087,16.041838 6.76595652,17.140058 6.76595652,18.490258 C6.76595652,19.839598 7.9606087,20.936958 9.42728261,20.936958 C10.8939565,20.936958 12.0876739,19.839598 12.0876739,18.490258 C12.0876739,17.140058 10.8939565,16.041838 9.42728261,16.041838" id="Shape" fill="#565458" fill-rule="nonzero"></path>
                        <path d="M16.9301283,19.732958 C16.1841717,19.732958 15.5784326,19.175678 15.5784326,18.490258 C15.5784326,17.803978 16.1841717,17.245838 16.9301283,17.245838 C17.67515,17.245838 18.2808891,17.803978 18.2808891,18.490258 C18.2808891,19.175678 17.67515,19.732958 16.9301283,19.732958 M16.9301283,16.041838 C15.4634543,16.041838 14.2688022,17.140058 14.2688022,18.490258 C14.2688022,19.839598 15.4634543,20.936958 16.9301283,20.936958 C18.3968022,20.936958 19.5905196,19.839598 19.5905196,18.490258 C19.5905196,17.140058 18.3968022,16.041838 16.9301283,16.041838" id="Shape" fill="#565458" fill-rule="nonzero"></path>
                    </g>
                </g>
            </g>
        </g>
    </g>
</svg>
