<svg xmlns="http://www.w3.org/2000/svg" width="27" height="27" viewBox="0 0 27 27">
    <g fill="none" fill-rule="evenodd">
        <path fill="#333" stroke="#333" d="M1 13.5C1 6.596 6.596 1 13.5 1S26 6.596 26 13.5 20.404 26 13.5 26 1 20.404 1 13.5z"/>
        <path fill="#FFF" d="M13.126 11.16l.026.433-.437-.053c-1.592-.203-2.982-.892-4.162-2.048l-.577-.574-.149.424c-.315.944-.114 1.942.542 2.613.35.37.271.423-.332.203-.21-.071-.394-.124-.411-.097-.061.061.149.865.315 1.182.227.442.69.874 1.198 1.13l.428.203-.507.01c-.49 0-.507.008-.455.193.175.574.866 1.183 1.635 1.448l.542.185-.472.283c-.7.406-1.521.635-2.343.653-.393.009-.717.044-.717.07 0 .089 1.067.583 1.687.777 1.863.574 4.075.327 5.736-.653 1.18-.697 2.361-2.083 2.912-3.425.297-.715.594-2.021.594-2.648 0-.406.027-.459.516-.944.289-.283.56-.592.612-.68.088-.168.079-.168-.367-.018-.743.265-.848.23-.48-.167.27-.283.594-.795.594-.945 0-.026-.131.018-.28.097-.157.088-.507.22-.77.3l-.472.15-.428-.291c-.236-.159-.568-.335-.743-.388-.446-.124-1.128-.106-1.53.035-1.093.397-1.784 1.421-1.705 2.542z"/>
    </g>
</svg>
