<svg xmlns="http://www.w3.org/2000/svg" xmlns:xlink="http://www.w3.org/1999/xlink" width="48" height="48" viewBox="0 0 48 48">
    <defs>
        <path id="a" d="M37.176 29.908c.455 0 .824.511.824 1.142 0 .632-.369 1.143-.824 1.143H10.824c-.455 0-.824-.511-.824-1.143 0-.63.369-1.142.824-1.142h26.352zm0-7.454c.455 0 .824.511.824 1.143 0 .63-.369 1.142-.824 1.142H10.824c-.455 0-.824-.511-.824-1.142 0-.632.369-1.143.824-1.143h26.352zm0-7.454c.455 0 .824.512.824 1.143s-.369 1.143-.824 1.143H10.824c-.455 0-.824-.512-.824-1.143S10.369 15 10.824 15h26.352z"/>
    </defs>
    <g fill="none" fill-rule="evenodd">
        <mask id="b" fill="#fff">
            <use xlink:href="#a"/>
        </mask>
        <use fill="#003971" fill-rule="nonzero" xlink:href="#a"/>
        <g fill="#363636" mask="url(#b)">
            <path d="M0 0h48v48H0z"/>
        </g>
    </g>
</svg>
