<svg width="32" height="32" viewBox="0 0 32 32" xmlns="http://www.w3.org/2000/svg" xmlns:xlink="http://www.w3.org/1999/xlink">
    <defs>
        <path d="M23.463 9.233c-.871-.933-2.052-1.457-3.284-1.457-1.232 0-2.413.524-3.284 1.457L16 10.19l-.895-.957c-1.814-1.941-4.754-1.941-6.568 0-1.814 1.94-1.814 5.087 0 7.028L16 24.247l7.463-7.986c.871-.932 1.36-2.196 1.36-3.514 0-1.318-.489-2.583-1.36-3.514zm-7.428-.803c1.091-1.169 2.583-1.83 4.144-1.83 1.56 0 3.052.661 4.144 1.83C25.399 9.58 26 11.133 26 12.747c0 1.614-.601 3.166-1.678 4.317L16.86 25.05a1.176 1.176 0 0 1-1.719 0l-7.463-7.986c-2.236-2.393-2.236-6.242 0-8.635 2.279-2.438 6.009-2.438 8.287 0h.07z" id="incyiyv7ga"/>
    </defs>
    <g fill="none" fill-rule="evenodd">
        <path d="M0 0h32v32H0z"/>
        <mask id="ade6rch52b" fill="#fff">
            <use xlink:href="#incyiyv7ga"/>
        </mask>
        <use fill="#000" fill-rule="nonzero" xlink:href="#incyiyv7ga"/>
        <g mask="url(#ade6rch52b)" fill="#565458">
            <path d="M0 0h32v32H0z"/>
        </g>
    </g>
</svg>
