<svg xmlns="http://www.w3.org/2000/svg" width="88" height="104" viewBox="0 0 88 104">
  <g fill="none" fill-rule="evenodd">
    <g>
      <g transform="translate(-1314 -2127) translate(1314.818 2127.5)">
        <path fill="#004236" fill-rule="nonzero" d="M58.915 12.648C54.713 4.492 49.125 0 43.182 0 37.24 0 31.652 4.492 27.45 12.648c-4.202 8.156-6.517 19-6.517 30.534 0 11.534 2.315 22.378 6.517 30.534l14.634 28.4c.304.59.701.884 1.1.884.397 0 .795-.295 1.099-.884l14.633-28.4c4.203-8.156 6.517-19 6.517-30.534 0-11.535-2.314-22.378-6.517-30.534z"/>
        <circle cx="43.182" cy="43.182" r="43.182" fill="#004236"/>
        <g fill="#F8F3E8">
          <path d="M43.688.143c-1.623.293-2.8 1.707-2.813 3.359-.056 1.554.952 2.954 2.45 3.36 13.76 5.15 21.962 19.387 17.217 32.699C54.9 55.42 37.557 63.665 21.81 57.98c-8.54-3.079-15.244-9.84-18.31-18.42C-1.23 26.15 6.986 11.9 20.732 6.764c1.483-.42 2.505-1.806 2.45-3.36.013-1.666-1.177-3.094-2.8-3.36C15.692-.795-.125 10.292 0 29.273 0 47.064 14.335 61.482 32 61.482s32-14.418 32-32.21C64.124 10.305 48.321-.78 43.687.142z" transform="translate(11.182 12.76)"/>
          <path d="M59.8 36.957c-3.122-4.591-7.433-8.245-12.472-10.554-1.106-.378-1.848-1.428-1.806-2.618-.014-1.526 1.218-2.772 2.744-2.786h.098c3.065 0 9.658 8.203 11.436 15.958z" transform="translate(11.182 12.76)"/>
          <path d="M46.25 10.585c-1.68-.014-3.052 1.344-3.066 3.038-.098 1.287.672 2.463 1.862 2.911 7.237 3.318 12.724 9.589 15.118 17.232 1.554-12.725-9.84-23.069-13.914-23.181zM4.368 36.957c3.136-4.591 7.447-8.245 12.472-10.554 1.106-.378 1.848-1.442 1.806-2.618 0-1.54-1.246-2.786-2.772-2.786h-.056c-3.08 0-9.658 8.203-11.45 15.958z" transform="translate(11.182 12.76)"/>
          <path d="M17.904 10.585c1.694-.014 3.066 1.344 3.094 3.024v.028c.07 1.273-.714 2.435-1.904 2.855-7.307 3.332-12.85 9.617-15.258 17.274-1.54-12.697 9.939-23.069 14.068-23.181z" transform="translate(11.182 12.76)"/>
        </g>
      </g>
    </g>
  </g>
</svg>
