<svg width="156px" height="28px" viewBox="0 0 156 28" version="1.1" xmlns="http://www.w3.org/2000/svg" xmlns:xlink="http://www.w3.org/1999/xlink">
    <g id="Page-1" stroke="none" stroke-width="1" fill="none" fill-rule="evenodd">
        <g id="header" transform="translate(-622.000000, -37.000000)" fill="#565458">
            <g id="Header-/-Logo" transform="translate(622.000000, 37.000000)">
                <g id="4-X-Large-/-Header-/-Logo">
                    <g id="Logo-/-Full-/-Desktop">
                        <g id="Logo-/-Full-/-Original">
                            <g id="_we-icon__west-elm-logo">
                                <path d="M150.881258,7.91210982 C148.041898,7.92228988 146.523406,9.33202798 145.522711,10.4256504 C145.076741,10.9134181 144.952567,11.1390412 144.73506,11.1301136 C144.517553,11.1211861 144.466422,10.8854182 144.262306,10.4747518 C144.042365,10.0766651 143.089148,7.98234781 140.21002,7.98234781 C137.405152,7.98234781 135.711356,9.6343466 134.789386,10.5563169 C134.59014,10.7555632 134.212343,10.8906935 134.212343,10.4637953 L134.212343,8.85237616 C134.212343,8.20553605 134.041097,8.20553605 132.985213,8.20959402 C131.958547,8.21284039 131.637968,8.21081141 131.639585,8.86089789 L131.639585,27.3851163 C131.642026,27.8874927 131.960576,27.8757246 132.970605,27.8757246 C133.787879,27.8757246 134.276864,27.9021014 134.276864,27.3851163 L134.276864,18.1398477 C134.276864,13.5888365 136.427993,10.6472154 139.176861,10.6378821 C141.967931,10.6277372 142.476395,13.1246049 142.483699,15.0691832 L142.483699,27.4958988 C142.483699,28.0441303 142.967409,27.8757246 143.7368,27.8757246 C144.521611,27.8757246 145.05848,28.0270868 145.05848,27.4958988 L145.05848,18.1398477 C145.05848,13.5888365 147.124797,10.6496502 150.314766,10.6378821 C152.707344,10.6293604 153.381372,12.5869242 153.388677,14.5213575 L153.388677,27.2633772 C153.388677,27.9021014 153.582648,27.8773478 154.632444,27.8773478 C155.68224,27.8773478 155.997544,27.8156667 155.997544,27.2633772 L155.997544,13.831503 C155.984559,10.0892448 153.833024,7.90200004 150.881258,7.91210982" id="Shape" fill-rule="nonzero"></path>
                                <path d="M123.256154,0.693019785 C123.256154,0.263280968 123.194473,-8.11594203e-05 122.748908,-8.11594203e-05 L118.348853,0.074179656 C118.025839,0.074179656 118.075752,0.344846126 118.075752,1.26438169 C118.075752,1.94165656 118.049781,2.37464175 118.348853,2.37464175 C120.054011,2.37464175 120.586416,3.13510496 120.586416,4.24374184 L120.586416,27.1396092 C120.588851,27.7410001 120.469141,27.7608841 121.869952,27.755203 C123.315806,27.7507392 123.258588,27.8112029 123.256154,27.1294643 L123.256154,0.693019785 Z" id="Shape" fill-rule="nonzero"></path>
                                <path d="M36.6633356,9.53058436 C38.463856,9.53058436 40.9448977,10.9983514 40.9526078,13.3483207 C40.9591006,15.0007253 40.7801442,15.2255367 40.34513,15.2255367 C40.1763186,15.2255367 32.7583529,15.2506961 32.0409042,15.2506961 C31.558006,15.2506961 31.5198611,14.9877398 31.5198611,14.53203 C31.5198611,12.5480894 33.3800337,9.53058436 36.6633356,9.53058436 M31.9013101,17.6148683 L41.6108103,17.5844336 C42.3899401,17.581593 42.9962006,17.3433903 43.2356207,16.6636806 C43.494519,15.7315654 43.7039102,14.9471601 43.5846059,13.1462339 C43.2810699,8.36391854 39.2770728,6.98258622 36.7793935,6.98258622 C31.3271076,6.98258622 28.232907,11.5680901 28.232907,17.7171291 C28.232907,21.1647788 28.8988195,22.9226905 30.3329054,25.0397325 C31.7791653,27.1559628 34.4764966,27.9557883 36.688495,27.9481333 C38.8875079,27.9399623 42.5644328,26.6178763 43.3382873,25.7145726 C43.4855915,25.5425147 43.500606,24.9955006 43.3833307,24.4160228 C43.2826931,23.9205449 43.0875048,23.2339367 42.731621,23.3698786 C42.1322592,23.598748 40.3163185,25.1643121 37.026118,25.1760802 C31.3896003,25.19637 31.3039772,19.7765479 31.2589337,18.691853 C31.2155135,17.6359698 31.3956873,17.6164915 31.9013101,17.6148683" id="Shape" fill-rule="nonzero"></path>
                                <path d="M81.0346598,24.3576286 C80.4328631,24.5950198 79.8907186,25.0146137 78.3097343,25.019889 C75.4249248,25.0300339 74.7817368,22.7673109 74.7748383,20.8677761 L74.7748383,10.5175228 C74.7910701,10.0914361 74.9347222,10.0062188 75.4817363,10.0062188 L81.0159931,9.99039272 C81.2343118,9.99039272 81.1941379,9.6113785 81.1941379,8.67358209 C81.1941379,7.73619147 81.2436452,7.31010482 80.8942541,7.31010482 L75.4817363,7.32390191 C74.9955917,7.32390191 74.7748383,7.17132231 74.7748383,6.47822137 L74.7748383,1.60338434 C74.7748383,0.847790687 74.6993601,0.831964611 73.4409842,1.2150368 C72.0649272,1.6342249 72.0649272,1.6342249 72.0649272,2.17596363 L72.0649272,6.47822137 C72.0649272,6.99074273 71.9492751,7.34378595 71.3466669,7.34378595 L69.2750742,7.34703233 C68.7718861,7.34703233 68.9277121,7.92529278 68.9301469,8.67358209 C68.9333933,9.46569745 68.9183788,10.0293492 69.2750742,10.0293492 L71.43229,10.0062188 C71.8348404,10.0447695 72.0649272,10.0638419 72.0649272,10.4732909 L72.0649272,19.1747918 C72.0827823,24.1482375 72.7539702,25.245512 73.8690998,26.3833663 C74.9805773,27.5398872 76.5112428,27.8560029 77.6020246,27.8519834 C78.7098499,27.847887 80.2847473,27.4047568 81.3162828,26.9425543 C81.8442244,26.7059747 81.899007,26.5367575 81.6965144,25.4195989 C81.4879348,24.2707881 81.3580799,24.2298026 81.0346598,24.3576286" id="Shape" fill-rule="nonzero"></path>
                                <path d="M58.4534878,16.3013446 C56.6890833,15.4869105 54.2234619,14.9768239 54.2234619,12.5611155 C54.2234619,10.5041315 56.1660113,9.50871191 57.5116335,9.50871191 C58.3674589,9.50871191 59.5122117,9.7773494 60.6727906,10.2415809 C61.840268,10.7301603 61.8041521,10.3174649 62.27163,9.54604522 C62.6056008,8.99497316 62.6981224,8.47149528 62.5475718,8.34407508 C61.8134854,7.72442336 59.8145303,6.92378626 57.518532,6.93144114 C53.3534336,6.94610508 51.1864787,9.5866249 51.1974352,12.5611155 C51.2075801,15.4325337 53.6309986,17.2423874 55.9136056,18.2966475 C58.255459,19.360241 60.6322109,20.166965 60.6391094,22.1492824 C60.6435732,23.4608177 59.5028784,25.3607583 57.0981265,25.3607583 C55.0910555,25.3607583 53.0458396,24.1713679 52.3425937,23.8349623 C51.9501882,23.6474842 51.7903043,24.061397 51.4900147,24.6920052 C51.1097831,25.4910191 50.8387108,26.086323 51.1385946,26.2689316 C52.5795791,27.1478875 55.034244,28.0061477 57.0685034,27.9992905 C60.8062977,27.9858579 63.7049043,25.7219175 63.6923654,22.0794854 C63.6793391,18.2694592 60.2040953,17.1417498 58.4534878,16.3013446" id="Shape" fill-rule="nonzero"></path>
                                <path d="M105.485094,9.53058436 C107.285615,9.53058436 109.766656,10.9983514 109.774366,13.3483207 C109.780859,15.0007253 109.601903,15.2255367 109.166889,15.2255367 C108.998077,15.2255367 101.580112,15.2506961 100.862663,15.2506961 C100.379765,15.2506961 100.34162,14.9877398 100.34162,14.53203 C100.34162,12.5480894 102.201792,9.53058436 105.485094,9.53058436 M100.723069,17.6148683 L110.432569,17.5844336 C111.211699,17.581593 111.817959,17.3433903 112.056973,16.6636806 C112.316278,15.7315654 112.525669,14.9471601 112.405959,13.1462339 C112.102828,8.36391854 108.098831,6.98258622 105.601152,6.98258622 C100.148866,6.98258622 97.0542597,11.5680901 97.0542597,17.7171291 C97.0542597,21.1647788 97.7205781,22.9226905 99.154664,25.0397325 C100.600924,27.1559628 103.298255,27.9557883 105.510254,27.9481333 C107.709266,27.9399623 111.386191,26.6178763 112.160046,25.7145726 C112.30735,25.5425147 112.322365,24.9955006 112.205089,24.4160228 C112.104452,23.9205449 111.909263,23.2339367 111.552974,23.3698786 C110.954018,23.598748 109.138077,25.1643121 105.847877,25.1760802 C100.211359,25.19637 100.125736,19.7765479 100.080287,18.691853 C100.037272,17.6359698 100.217446,17.6164915 100.723069,17.6148683" id="Shape" fill-rule="nonzero"></path>
                                <path d="M22.0304651,7.61571039 C20.9449587,7.61571039 20.6544081,7.52927567 20.4612489,7.96307246 C20.3967272,8.10794192 17.6454248,22.2085693 17.6454248,22.2085693 C17.5370771,22.6261342 17.4567293,22.8067138 17.2420628,22.8067138 C17.0014253,22.8067138 16.9007877,22.6918733 16.8212515,22.3278736 L12.8801529,8.14446363 C12.7799211,7.73420306 12.6070517,7.58284085 11.6432843,7.58284085 C10.6795169,7.58284085 10.4672851,7.68266687 10.3544736,8.14446363 L6.52862133,22.3303084 C6.42554894,22.6886269 6.31557801,22.8067138 6.0757521,22.8067138 C5.86067979,22.8067138 5.76653493,22.3895547 5.65737559,21.9719898 L2.69424731,7.89327541 C2.52584164,7.36168159 2.26085632,7.49397135 1.27152371,7.49397135 C0.293553409,7.49397135 -0.00835941421,7.54550755 -1.21946064e-05,8.09942019 C0.00422028677,8.35466638 4.18636217,26.193494 4.36288378,26.9393485 C4.57511551,27.7416088 4.84578198,28.0029419 5.97592608,27.9989304 C7.29598309,27.9944202 7.45911341,27.4210293 7.65430167,26.9393485 L11.2456034,14.1640534 C11.3673424,13.8053291 11.3860091,13.6101408 11.6432843,13.6101408 C11.9009652,13.6101408 11.9196319,13.8053291 12.0417767,14.1640534 L15.6326727,26.9393485 C15.8282667,27.4210293 15.9909912,27.9944202 17.3114541,27.9989304 C18.4411924,28.0029419 18.7118588,27.7416088 18.9244964,26.9393485 C19.1006122,26.193494 23.1821164,8.20857953 23.1756314,8.00771011 C23.1606092,7.53252205 22.7730733,7.61571039 22.0304651,7.61571039" id="Shape" fill-rule="nonzero"></path>
                            </g>
                        </g>
                    </g>
                </g>
            </g>
        </g>
    </g>
</svg>
