<svg xmlns="http://www.w3.org/2000/svg" width="239" height="40" viewBox="0 0 239 40">
    <g fill="#3F413E" fill-rule="evenodd">
        <path d="M109.348.762c.412-.145.983-.188 1.212.269.383.752.266 1.629.292 2.443.02 1.702-.057 3.41.036 5.11 0 .69.455 1.406 1.207 1.395 2.37.119 4.75-.058 7.115.083.978.074 1.116 1.226 1.078 1.998.002.671-.152 1.652-.988 1.719-2.312.102-4.633-.015-6.95.05-.631.004-1.298.378-1.436 1.03-.114.608-.062 1.23-.069 1.843.007 4.188-.002 8.379.005 12.572.029 1.624.245 3.447 1.483 4.633 1.162 1.09 2.896 1.207 4.4.995.888-.097 1.688-.55 2.567-.664.6-.071.981.536 1 1.067.102.95.198 2.252-.831 2.74-2.624 1.238-5.783 1.626-8.519.51-1.645-.662-2.869-2.124-3.438-3.781-.767-2.212-.87-4.581-.955-6.9-.047-4.114-.007-8.226-.021-12.338 0-.54-.134-1.162-.62-1.474-1.05-.61-2.428.16-3.42-.564-.73-.827-.746-2.288.002-3.11.962-.776 2.319-.045 3.369-.58.428-.241.65-.734.657-1.215.074-1.855-.026-3.717.095-5.567.224-1.31 1.652-1.819 2.729-2.264M181.902 1.674c1.131-.188 2.281-.057 3.424-.095.77.019 1.59-.09 2.32.23.533.236.652.877.642 1.403 0 11.171-.005 22.343.002 33.517-.004.519-.016 1.211-.59 1.438a3.814 3.814 0 0 1-2.669-.005c-.581-.222-.705-.898-.681-1.445 0-10-.002-20 .002-30 .024-.643-.185-1.39-.819-1.681-.74-.281-1.676.078-2.314-.503-.786-.819-.624-2.676.683-2.86M82.433 9.688c2.777-.383 5.677.06 8.215 1.255.71.302 1.133 1.157.819 1.893-.293.752-.738 1.79-1.703 1.75-1.212-.167-2.293-.829-3.495-1.055-1.914-.543-4.267-.35-5.674 1.198-1.412 1.688-.893 4.414.784 5.738 2.883 2.345 6.907 2.838 9.564 5.521 2.51 2.457 2.56 6.693.657 9.522-1.445 2.147-3.95 3.378-6.469 3.692-2.933.324-5.879-.328-8.629-1.312-.673-.271-1.478-.635-1.678-1.407-.122-.88.314-1.773.905-2.402.492-.486 1.24-.307 1.8-.045 2.216 1.016 4.68 1.764 7.142 1.428 1.912-.269 3.529-1.914 3.679-3.854.16-1.3-.548-2.541-1.538-3.331-2.152-1.746-4.912-2.446-7.229-3.92-1.793-1.109-3.452-2.688-4.033-4.778-.838-3.074.476-6.581 3.088-8.398 1.122-.793 2.443-1.278 3.795-1.495M48.569 15.998c.979-1.305 2.536-2.024 4.102-2.327 1.886-.428 4.02-.138 5.55 1.096 1.239.997 1.615 2.804 1.108 4.271-.2.59-.77 1.05-1.412 1.012-3.107.033-6.22.043-9.329.052-.55.034-1.321-.15-1.355-.821-.097-1.236.629-2.34 1.336-3.283zm13.783 16.79c-1.064.44-2.004 1.131-3.08 1.545-2.439 1.005-5.267 1.329-7.786.429-1.934-.693-3.379-2.37-4.096-4.257-.659-1.724-.952-3.6-.866-5.44.066-.782.905-1.108 1.593-1.067 4.193-.02 8.385.007 12.578-.01.798.036 1.643-.34 1.99-1.09 1.286-2.66 1.372-5.884.215-8.603-.733-1.721-2.174-3.097-3.895-3.819-2.431-1.036-5.179-1.005-7.75-.612-1.9.331-3.545 1.424-4.993 2.643-1.026.864-1.774 2.012-2.35 3.214-1.679 3.622-1.907 7.734-1.538 11.658.286 3.011 1.345 5.985 3.257 8.352 1.645 1.938 4.117 2.995 6.588 3.357 3.155.457 6.352-.33 9.207-1.655.636-.314 1.362-.63 1.726-1.278.293-.857.329-1.803.155-2.686-.055-.433-.497-.914-.955-.68zM154.333 16.65c.972-1.545 2.548-2.712 4.37-3.007 1.892-.372 4.04-.153 5.6 1.074 1.266.971 1.678 2.769 1.2 4.257-.186.566-.696 1.076-1.324 1.069-3.11.047-6.215.043-9.322.062-.59.033-1.43-.103-1.497-.831-.043-.964.469-1.84.973-2.624zm14.49 16.067c-.766.145-1.394.645-2.08.98-2.307 1.272-5.022 1.872-7.64 1.453-1.636-.255-3.196-1.076-4.246-2.369-1.502-1.829-2.055-4.233-2.2-6.543-.019-.621-.133-1.36.34-1.852.436-.407 1.08-.379 1.636-.398 4.034.007 8.062.005 12.09.005.808.045 1.68-.274 2.07-1.024 1.336-2.69 1.417-5.99.214-8.745-.788-1.817-2.378-3.217-4.224-3.9-2.378-.884-5.007-.84-7.48-.44-2.098.409-3.91 1.69-5.441 3.133-2.19 2.38-3.05 5.662-3.381 8.802-.336 4.295-.014 8.902 2.376 12.621 1.248 2.179 3.47 3.665 5.87 4.3 3.975 1.124 8.285.136 11.828-1.838 1.01-.521 1.024-1.773.997-2.76-.042-.528-.119-1.254-.728-1.425zM.457 10.662a4.847 4.847 0 0 1 2.795-.638c.746.126.915.988 1.067 1.605A3294.77 3294.77 0 0 1 7.817 28.32c.164.693.204 1.46.626 2.058.676.31.924-.662 1.117-1.124 1.728-5.793 3.388-11.605 5.078-17.405.172-.6.472-1.267 1.114-1.469.758-.231 1.615-.262 2.36.038.655.276.843 1.033 1.012 1.652 1.33 5.35 2.569 10.722 3.878 16.077.215.776.343 1.64.97 2.21.5-.303.759-.834.883-1.384a1354.04 1354.04 0 0 1 4.31-17.334c.161-.69.523-1.528 1.33-1.602.857-.033 1.77.21 2.45.738.545.531.32 1.35.14 1.99-2.38 8.26-4.709 16.539-7.123 24.789-.37 1.528-2.422 1.807-3.538.955-.529-.486-.693-1.22-.881-1.881-1.4-5.384-2.798-10.767-4.167-16.155-.138-.574-.366-1.145-.866-1.49-.6.664-.85 1.535-1.12 2.37-1.614 5.23-3.15 10.484-4.795 15.703-.233.626-.419 1.422-1.116 1.683-.703.243-1.51.272-2.21.003-.629-.257-.84-.964-1.007-1.564C4.21 28.962 2.164 20.743.124 12.52c-.131-.619-.303-1.461.333-1.86M214.036 10.145c2.271-.362 4.876.05 6.495 1.817.743.728 1.048 1.745 1.607 2.595.143.305.502.362.802.264.505-.347.789-.914 1.167-1.38 1.579-2.115 4.164-3.439 6.81-3.439 1.885-.08 3.84.617 5.104 2.05 1.536 1.696 2.053 4.062 2.07 6.293.009 6.043 0 12.086.004 18.129-.005.655-.012 1.574-.788 1.793-.733.193-1.564.202-2.25-.14-.588-.315-.676-1.046-.669-1.641 0-4.886.002-9.767 0-14.653-.024-1.847.167-3.766-.507-5.528-.402-1.179-1.276-2.267-2.505-2.624-1.802-.548-3.786.155-5.116 1.417-1.739 1.65-2.674 3.964-3.179 6.269-.579 2.59-.405 5.264-.429 7.897-.007 2.562.015 5.124-.007 7.688-.007.546-.2 1.248-.821 1.362-.672.112-1.39.155-2.043-.052-.702-.276-.755-1.129-.755-1.772 0-5.583.005-11.164-.002-16.747-.053-1.7-.264-3.531-1.357-4.907-.988-1.236-2.765-1.55-4.234-1.16-1.885.486-3.335 1.974-4.285 3.614-1.429 2.493-1.94 5.417-1.896 8.265-.007 3.647.015 7.293.031 10.938-.007.571.007 1.31-.573 1.626-.739.364-1.665.371-2.422.071-.578-.24-.695-.926-.68-1.48 0-8.136.002-16.272 0-24.408-.034-.621.135-1.39.806-1.607.793-.238 1.817-.288 2.472.305.683.893 0 2.162.593 3.098.607.214.988-.472 1.376-.82 1.314-1.576 3.1-2.859 5.18-3.133"/>
    </g>
</svg>
