<svg xmlns="http://www.w3.org/2000/svg" xmlns:xlink="http://www.w3.org/1999/xlink" width="154" height="64" viewBox="0 0 154 64">
    <defs>
        <path id="a" d="M.208.097h12.496V20.84H.208z"/>
        <path id="c" d="M0 .173h42.316v39.586H0z"/>
    </defs>
    <g fill="none" fill-rule="evenodd">
        <path fill="#322F31" d="M42.106 59.456c-.59.225-2.38 1.767-5.623 1.779-5.553.02-5.638-5.317-5.682-6.385-.043-1.04.135-1.058.633-1.06l9.568-.03c.767-.003 1.364-.237 1.6-.907.256-.918.462-1.69.344-3.463-.299-4.71-4.244-6.069-6.705-6.069-5.373 0-8.422 4.516-8.422 10.569 0 3.395.657 5.126 2.07 7.21 1.425 2.084 4.083 2.871 6.262 2.864 2.167-.008 5.79-1.31 6.553-2.2.145-.168.159-.707.044-1.278-.099-.487-.291-1.164-.642-1.03m-5.98-13.626c1.774 0 4.22 1.445 4.227 3.76.007 1.626-.17 1.848-.599 1.848-.166 0-7.475.024-8.182.024-.476 0-.513-.26-.513-.708 0-1.953 1.832-4.924 5.067-4.924"/>
        <g transform="translate(50.056 43.174)">
            <mask id="b" fill="#fff">
                <use xlink:href="#a"/>
            </mask>
            <path fill="#322F31" d="M7.542 9.323C5.804 8.52 3.374 8.019 3.374 5.64c0-2.025 1.915-3.005 3.24-3.005.843 0 1.971.264 3.115.721 1.15.481 1.115.075 1.575-.685.33-.542.42-1.058.272-1.183C10.853.878 8.883.09 6.621.097 2.517.112.38 2.71.39 5.64c.011 2.827 2.4 4.61 4.648 5.647 2.307 1.047 4.65 1.841 4.657 3.793.005 1.292-1.12 3.162-3.49 3.162-1.977 0-3.992-1.17-4.686-1.502-.386-.185-.544.223-.84.843-.374.787-.641 1.373-.346 1.553 1.42.865 3.838 1.71 5.843 1.704 3.683-.013 6.54-2.242 6.527-5.828-.012-3.752-3.436-4.862-5.162-5.69" mask="url(#b)"/>
        </g>
        <path fill="#322F31" d="M79.848 60.429c-.593.234-1.127.647-2.685.652-2.842.01-3.476-2.218-3.483-4.088V46.802c.016-.42.158-.504.697-.504l5.453-.015c.216 0 .175-.374.175-1.297 0-.922.05-1.342-.295-1.342l-5.333.014c-.48 0-.697-.15-.697-.833v-4.8c0-.744-.075-.76-1.314-.382-1.356.412-1.356.412-1.356.946v4.236c0 .505-.114.852-.708.852l-2.041.003c-.496 0-.342.57-.34 1.306.003.78-.012 1.335.34 1.335l2.125-.023c.397.038.624.057.624.46v8.568c.017 4.897.678 5.977 1.777 7.097 1.096 1.14 2.604 1.45 3.679 1.446 1.092-.004 2.644-.44 3.66-.896.52-.232.574-.399.374-1.499-.205-1.13-.332-1.17-.652-1.045M121.452 37.129c0-.423-.061-.683-.5-.683l-4.336.074c-.318 0-.268.266-.268 1.171 0 .668-.027 1.093.268 1.093 1.68 0 2.205.75 2.205 1.841v22.543c.002.592-.115.61 1.265.606 1.425-.005 1.368.055 1.366-.616V37.129zM148.672 44.237c-2.798.01-4.294 1.398-5.28 2.474-.44.48-.562.703-.776.694-.214-.009-.264-.24-.465-.645-.217-.392-1.157-2.454-3.994-2.454-2.764 0-4.433 1.626-5.34 2.534-.197.197-.57.33-.57-.091v-1.587c0-.636-.168-.636-1.208-.633-1.012.004-1.328.002-1.327.642V63.41c.003.495.317.483 1.312.483.805 0 1.287.026 1.287-.483v-9.102c0-4.481 2.12-7.378 4.828-7.387 2.75-.01 3.252 2.45 3.258 4.363V63.52c0 .54.478.373 1.235.373.774 0 1.303.15 1.303-.373v-9.212c0-4.481 2.036-7.375 5.18-7.387 2.357-.008 3.021 1.92 3.028 3.824V63.29c0 .63.192.605 1.226.605s1.345-.06 1.345-.605V50.065c-.013-3.685-2.133-5.838-5.042-5.828M21.708 43.945c-1.069 0-1.356-.086-1.547.342-.063.143-2.773 14.026-2.773 14.026-.107.41-.187.588-.399.588-.236 0-.336-.112-.414-.471L12.69 44.466c-.098-.404-.268-.553-1.218-.553s-1.16.098-1.27.553l-3.77 13.966c-.102.353-.21.47-.447.47-.211 0-.304-.41-.411-.822L2.654 44.218c-.165-.524-.426-.393-1.402-.393-.963 0-1.26.05-1.252.596.004.251 4.125 17.815 4.3 18.55.208.79.475 1.047 1.588 1.043 1.301-.004 1.462-.57 1.654-1.044l3.538-12.578c.121-.354.139-.545.393-.545s.272.191.393.545l3.538 12.578c.192.474.353 1.04 1.654 1.044 1.113.004 1.38-.254 1.59-1.044.173-.734 4.195-18.441 4.188-18.64-.015-.467-.396-.385-1.128-.385M109.92 59.456c-.59.225-2.38 1.767-5.622 1.779-5.554.02-5.639-5.317-5.683-6.385-.042-1.04.135-1.058.633-1.06l9.568-.03c.768-.003 1.365-.237 1.6-.907.256-.918.462-1.69.345-3.463-.3-4.71-4.245-6.069-6.706-6.069-5.372 0-8.422 4.516-8.422 10.569 0 3.395.657 5.126 2.07 7.21 1.425 2.084 4.083 2.871 6.263 2.864 2.167-.008 5.79-1.31 6.552-2.2.145-.168.16-.707.045-1.278-.1-.487-.292-1.164-.643-1.03m-5.98-13.626c1.774 0 4.22 1.445 4.228 3.76.006 1.626-.17 1.848-.6 1.848-.166 0-7.475.024-8.182.024-.476 0-.513-.26-.513-.708 0-1.953 1.832-4.924 5.068-4.924M49.38 4.668V27.21c.002.593-.116.612 1.264.607 1.425-.005 1.369.055 1.366-.617V1.172c0-.424-.06-.683-.5-.683l-4.335.073c-.319 0-.269.266-.269 1.172 0 .667-.026 1.093.269 1.093 1.68 0 2.204.749 2.204 1.84M149.961 15.337c-.707 0-8.016-.024-8.182-.024-.429 0-.605-.22-.6-1.848.009-2.315 2.454-3.76 4.228-3.76 3.235 0 5.068 2.972 5.068 4.925 0 .449-.037.707-.514.707m-4.669-8.14c-2.461 0-6.406 1.36-6.705 6.07-.118 1.772.088 2.545.344 3.461.235.67.833.904 1.6.907l9.568.03c.498.002.675.021.633 1.06-.044 1.069-.129 6.405-5.682 6.385-3.243-.011-5.032-1.553-5.622-1.779-.351-.133-.544.543-.643 1.03-.115.571-.101 1.11.044 1.28.763.889 4.386 2.19 6.553 2.198 2.18.008 4.838-.78 6.262-2.863 1.413-2.084 2.07-3.815 2.07-7.21 0-6.054-3.049-10.569-8.422-10.569M53.113 33.653l-.854.11s-1.18-.249-2.073-.793c0 0-.691-.322-.668-.954 0 0-.085-1.028 1.438-.854 0 0 .818.21 1.005.32 0 0 .433.139.669-.209l.21-.446s.137-.493-.396-.742c0 0-.658-.358-1.922-.398 0 0-1.598-.072-2.329 1.252 0 0-.423.67-.347 1.462 0 0 .061 1.153 1.45 1.82l-1.017.174s-.644.086-.41.655l.272.433s.286.423.783.262l4.014-.62s.931-.11.731-.951c0 0-.111-.608-.556-.521M132.184 8.182c-1.034 0-1.225-.025-1.225.604v12.546c-.007 1.904-.672 3.832-3.03 3.824-2.262-.009-3.951-1.511-4.72-4.024-.298-.978-.458-2.108-.458-3.363V8.557c0-.523-.53-.373-1.303-.373-.758 0-1.234-.167-1.234.373v12.235c-.007 1.874-.493 4.261-3.09 4.354-2.16-.094-3.774-1.577-4.519-4.015-.3-.977-.459-2.107-.459-3.362V8.557c0-.523-.529-.373-1.302-.373-.758 0-1.235-.167-1.235.373v12.235c-.007 1.887-.498 4.298-3.145 4.357a4.39 4.39 0 0 1-3.049-1.31c-.63-.644-1.146-1.508-1.486-2.555v.007c-.017-.054-.037-.105-.054-.16-.298-.977-.458-2.107-.458-3.362V8.557c0-.523-.53-.373-1.303-.373-.758 0-1.235-.167-1.235.373v12.235c-.006 1.915-.508 4.374-3.258 4.364h-.526l-17.61-.012c-3.6 0-5.09-1.098-5.09-7.375V8.775c0-.26-.038-.404-.15-.489-.074-.08-.188-.127-.369-.127l-.666.012h-.04c-.174 0-.322.003-.46.008l-3.17.053c-.318 0-.268.267-.268 1.172 0 .668-.026 1.093.269 1.093 1.565 0 2.127.651 2.197 1.623v5.649c0 10.699 3.943 10.06 7.475 10.06l17.949-.059h1.477c2.837 0 3.777-2.062 3.993-2.454.202-.404.252-.636.466-.645.214-.01.336.213.776.694.986 1.076 2.482 2.394 5.28 2.405l-.002-.008c.073.002.143.008.217.008 2.837 0 3.776-2.062 3.993-2.454.201-.404.252-.636.465-.646.215-.008.337.214.777.695.986 1.076 2.481 2.394 5.28 2.404v-.002c.03 0 .058.003.089.003 2.837 0 3.777-2.062 3.993-2.454.201-.404.252-.636.466-.645.214-.009.337.213.776.694.986 1.076 2.483 2.464 5.28 2.474 2.908.01 5.029-2.143 5.043-5.828V8.786c0-.544-.312-.604-1.347-.604"/>
        <g transform="translate(0 .244)">
            <mask id="d" fill="#fff">
                <use xlink:href="#c"/>
            </mask>
            <path fill="#322F31" d="M17.454 22.394c-.494.704-1.613 2.514-3.402 2.514-1.98 0-2.817-1.386-3.807-2.764-1.254-1.74-1.422-4.046-1.422-4.67 0-2.178 1.104-5.038 4.274-5.448h1.318c3.48.463 4.274 3.27 4.274 5.449 0 .623-.007 3.159-1.235 4.919M41.002.416c-1.356.412-1.356.412-1.356.946v19.723c-.007 1.904-.622 3.831-2.978 3.823l-13.324-.027c-2.532-.033-2.824-.493-3.338-1.034 1.027-1.847 1.355-3.795 1.355-6.444 0-4.28-1.713-8.157-7.724-8.141-5.938-.016-7.794 5.08-7.603 8.223.196 3.276.219 3.92 1.784 6.472 0 0 .463.552.627.826H5.5c-.989 0-2.877.364-3.897 1.417C.589 27.25 0 28.83 0 33.356l.011 1.87-.01.003v3.341c0 .534 0 .534 1.355.946 1.24.377 1.314.362 1.314-.382v-7.701c0-1.74.47-3.789 3.098-3.789 1.449 0 2.95.04 3.536.04.286 0 .759-.177 1.02-.481.884.461 2.093.98 3.313.975 1.29.173 3.78-.243 4.923-1.36.468.36.848.378 1.238.543.352.151.988.235 1.586.29l15.841-.06c2.909.01 5.077-2.143 5.09-5.828V.798c0-.744-.074-.76-1.313-.382" mask="url(#d)"/>
        </g>
        <path fill="#322F31" d="M81.84 7.196h2.003c.25 0 .453-.203.453-.453v-2a.453.453 0 0 0-.453-.453h-2.002a.452.452 0 0 0-.453.453v2c0 .25.203.453.453.453M86.04 7.196h2.002c.25 0 .453-.203.453-.453v-2a.453.453 0 0 0-.453-.453H86.04a.453.453 0 0 0-.453.453v2c0 .25.203.453.453.453"/>
    </g>
</svg>
