<svg width="154px" height="63px" viewBox="0 0 154 63" version="1.1" xmlns="http://www.w3.org/2000/svg" xmlns:xlink="http://www.w3.org/1999/xlink">
    <defs>
        <polygon id="path-1" points="0.000166852058 0.172971367 42.3159344 0.172971367 42.3159344 39.7587638 0.000166852058 39.7587638"></polygon>
    </defs>
    <g id="Symbols" stroke="none" stroke-width="1" fill="none" fill-rule="evenodd">
        <g id="Components/Cards/Site-Header/Desktop/Arabic" transform="translate(-643.000000, -63.000000)">
            <g id="Group" transform="translate(80.000000, 50.000000)">
                <g id="Style/Logos/Arabic" transform="translate(563.000000, 13.000000)">
                    <g id="Group-31">
                        <path d="M41.0015573,0.659708626 C42.2412681,0.282089208 42.3159344,0.29792755 42.3159344,1.04191283 L42.3159344,22.0068761 C42.3021691,25.6922082 40.1339266,27.8453891 37.2252781,27.8349692 L37.2252781,27.8349692 L21.3835095,27.8941546 C20.7861791,27.839554 20.1496385,27.7561943 19.7975806,27.6053132 C19.407564,27.440261 19.0275584,27.4215051 18.5595384,27.061808 C17.4178532,28.1788279 14.9275862,28.5952096 13.6374027,28.4214046 C12.417297,28.4276566 11.2080367,27.9083257 10.3245551,27.446513 C10.0625973,27.7503591 9.59040601,27.9274984 9.3038376,27.9274984 C8.79139321,27.9274984 7.57794207,27.897502 6.31179566,27.8900029 L5.76782536,27.8883194 C3.13907119,27.8883194 2.67021691,29.9364671 2.67021691,31.6770175 L2.67021691,31.6770175 L2.67021691,39.3773693 C2.67021691,40.1217714 2.59596774,40.1367762 1.35583982,39.7599903 C0.000166852062,39.3477766 0.000166852062,39.3477766 0.000166852062,38.8138578 L0.000166852062,35.4723844 L0.0110122358,35.4703004 L0.000166852062,33.5997089 C0.000166852062,29.0724438 0.589154616,27.4923608 1.60194661,26.4441127 C2.62182981,25.3912797 4.51017798,25.0265811 5.49919355,25.0265811 L5.49919355,25.0265811 L8.44538376,25.0265811 C8.28061735,24.7523277 7.81760289,24.2004865 7.81760289,24.2004865 C6.25253059,21.6496798 6.23042269,21.0053094 6.03353726,17.7288566 C5.84332592,14.5861961 7.69913793,9.48958431 13.6374027,9.50583945 C19.6478309,9.48958431 21.3605673,13.3666437 21.3605673,17.6471641 C21.3605673,20.2959184 21.032703,22.2436176 20.0061457,24.0912853 C20.5204672,24.6314561 20.8124583,25.0916016 23.343604,25.1249455 L23.343604,25.1249455 L36.6675751,25.1516206 C39.0243604,25.1599566 39.6387931,23.2326804 39.6458843,21.3283282 L39.6458843,21.3283282 L39.6460116,1.53625461 C39.6486853,1.07107064 39.7075058,1.05318533 41.0015573,0.659708626 Z M48.1934232,30.9387424 C48.9242353,29.6145736 50.5222608,29.6870966 50.5222608,29.6870966 C51.7861652,29.7266924 52.4435623,30.0851391 52.4435623,30.0851391 C52.9770717,30.333551 52.8402531,30.8274572 52.8402531,30.8274572 L52.8402531,30.8274572 L52.6296023,31.2734316 C52.3939238,31.6206247 51.9605256,31.4822476 51.9605256,31.4822476 C51.7744855,31.371796 50.9564933,31.1621464 50.9564933,31.1621464 C49.4327169,30.9883414 49.5182286,32.0157496 49.5182286,32.0157496 C49.4948693,32.6484497 50.1864711,32.9698013 50.1864711,32.9698013 C51.0791296,33.5141402 52.2587736,33.7638024 52.2587736,33.7638024 L52.2587736,33.7638024 L53.112639,33.6525172 C53.5577169,33.56624 53.6690907,34.1735153 53.6690907,34.1735153 C53.8693131,35.0141979 52.9382786,35.1254831 52.9382786,35.1254831 L52.9382786,35.1254831 L48.9242353,35.7448456 C48.4270161,35.9057298 48.141282,35.4830962 48.141282,35.4830962 L48.141282,35.4830962 L47.868896,35.0500425 C47.6353031,34.4811126 48.2793521,34.3948353 48.2793521,34.3948353 L48.2793521,34.3948353 L49.295064,34.2210304 C47.907272,33.553736 47.8459538,32.4012882 47.8459538,32.4012882 C47.7700362,31.6081207 48.1934232,30.9387424 48.1934232,30.9387424 Z M145.292436,7.19715102 C150.665072,7.19715102 153.713877,11.7119121 153.713877,17.7663267 C153.713877,21.1607335 153.057314,22.8916976 151.644494,24.97569 C150.219577,27.0592655 147.561624,27.8470147 145.381702,27.8391545 C143.214711,27.8311763 139.592353,26.5299315 138.829004,25.6400667 C138.683843,25.4708465 138.670078,24.9323429 138.785206,24.3617458 C138.883648,23.8736748 139.07678,23.1980445 139.427586,23.33142 C140.017825,23.556908 141.807314,25.0986455 145.049666,25.1098991 C150.603337,25.1299054 150.687597,19.7936345 150.73223,18.7257968 C150.77436,17.6863014 150.59708,17.6671287 150.099027,17.6658783 L150.099027,17.6658783 L140.531313,17.635452 C139.763793,17.6321176 139.166046,17.3978769 138.930784,16.7284985 C138.675083,15.8115419 138.469438,15.0387975 138.587069,13.2661536 C138.885734,8.55716445 142.830951,7.19715102 145.292436,7.19715102 Z M120.213654,8.55737284 C120.213654,8.01720202 120.690017,8.18392141 121.448359,8.18392141 C122.221301,8.18392141 122.75064,8.03429076 122.75064,8.55737284 L122.75064,8.55737284 L122.75064,17.7690359 C122.75064,19.0240161 122.910818,20.1543736 123.209066,21.131766 C123.977836,23.644644 125.667214,25.1472025 127.929727,25.1555385 C130.28693,25.1642913 130.951835,23.2361815 130.958509,21.3318293 L130.958509,21.3318293 L130.958509,8.78619521 C130.958509,8.22712952 131.109789,8.18444112 131.869957,8.18185686 L132.359525,8.18255089 C133.254148,8.19062047 133.530534,8.27426861 133.530534,8.78619521 L133.530534,8.78619521 L133.530534,22.0112108 C133.516769,25.6957093 131.396496,27.849307 128.488682,27.8393386 C125.690573,27.8293007 124.19391,26.4413618 123.207814,25.3647713 C122.768576,24.8842027 122.64594,24.6620491 122.431952,24.6712187 C122.217547,24.6795546 122.167492,24.9117114 121.966018,25.3160059 C121.749527,25.7077965 120.809733,27.7701153 117.972831,27.7701153 C117.941963,27.7701153 117.913598,27.7671977 117.883148,27.7667809 L117.883148,27.7667809 C115.085456,27.7588618 113.589627,26.4413618 112.603949,25.3647713 C112.164294,24.8842027 112.041657,24.6620491 111.827253,24.6703851 C111.613682,24.6795546 111.563209,24.9117114 111.361735,25.3160059 C111.145245,25.7077965 110.205868,27.7701153 107.368548,27.7701153 C107.294716,27.7701153 107.224638,27.7642802 107.152475,27.7621962 L107.152475,27.7621962 C104.356452,27.7588618 102.859789,26.4413618 101.87411,25.3647713 C101.434455,24.8842027 101.311819,24.6616323 101.097831,24.6712187 C100.883843,24.6795546 100.833788,24.9117114 100.632314,25.3160059 C100.415823,25.7077965 99.4760289,27.7701153 96.6391268,27.7701153 L96.6391268,27.7701153 L95.1616518,27.7701153 L77.2129588,27.8280503 C73.6807008,27.8280503 69.7375695,28.467836 69.7375695,17.7690359 L69.7375695,17.7690359 L69.7375695,12.1197494 C69.6683259,11.1481922 69.1064516,10.4971529 67.5405451,10.4971529 C67.245634,10.4971529 67.2723304,10.0716017 67.2723304,9.40430735 C67.2723304,8.49860426 67.2222747,8.23227003 67.5405451,8.23227003 L67.5405451,8.23227003 L70.710317,8.17933663 C70.8483871,8.17391825 70.9964683,8.17058386 71.1691602,8.17058386 L71.1691602,8.17058386 L71.2096218,8.17058386 L71.8761958,8.1593303 C72.0568131,8.1593303 72.1711068,8.20559493 72.2457731,8.28603704 C72.3567297,8.37106393 72.3942714,8.515693 72.3942714,8.77535845 L72.3942714,8.77535845 L72.3942714,17.7690359 C72.3942714,24.0456042 73.8859288,25.1442849 77.4845106,25.1442849 L77.4845106,25.1442849 L95.0953281,25.1555385 L95.6209121,25.1555385 C98.3710512,25.1655417 98.8728587,22.7068475 98.8791157,20.7924921 L98.8791157,20.7924921 L98.8791157,8.55737284 C98.8791157,8.01720202 99.3563126,8.18350461 100.114238,8.18350461 C100.887597,8.18350461 101.416518,8.03429076 101.416518,8.55737284 L101.416518,8.55737284 L101.416518,17.7690359 C101.416518,19.0235993 101.576696,20.1543736 101.875362,21.131766 C101.892047,21.1863666 101.911652,21.237216 101.929171,21.290983 L101.928167,21.2867223 C102.235095,22.2265706 102.684018,23.0203591 103.229912,23.6391323 L103.415406,23.8388721 C104.22881,24.6532963 105.263293,25.1134419 106.463793,25.1492865 C109.110901,25.0896843 109.60228,22.6793388 109.608954,20.7924921 L109.608954,20.7924921 L109.608954,8.55737284 C109.608954,8.01720202 110.085734,8.18392141 110.844077,8.18392141 C111.617019,8.18392141 112.146357,8.03429076 112.146357,8.55737284 L112.146357,8.55737284 L112.146357,17.7690359 C112.146357,19.0240161 112.305701,20.1543736 112.6052,21.1313492 C113.350195,23.5687867 114.963237,25.0517557 117.124388,25.1463689 C119.72144,25.0530061 120.206563,22.6655844 120.213654,20.7924921 L120.213654,20.7924921 Z M51.5099416,0.48911301 C51.9491796,0.48911301 52.0104978,0.748361661 52.0104978,1.17182891 L52.0104978,1.17182891 L52.0109777,27.2806096 C52.0143729,27.764744 52.0111669,27.8117113 51.2401395,27.8158817 L50.6439794,27.816505 C49.2641129,27.8215066 49.3821607,27.8027507 49.3792408,27.2100632 L49.3792408,27.2100632 L49.3792408,4.66793452 C49.3792408,3.57592251 48.8553254,2.82693565 47.174708,2.82693565 C46.9478534,2.82693565 46.9110521,2.57513019 46.906148,2.15499277 L46.9055919,1.57132883 C46.9012596,0.796135558 46.8759385,0.562052743 47.174708,0.562052743 L47.174708,0.562052743 Z M14.4153504,12.2696301 L13.0972191,12.2696301 C9.92744716,12.6797598 8.82330367,15.5402478 8.82330367,17.7184366 C8.82330367,18.3415503 8.99057286,20.6476963 10.2448832,22.3882467 C11.2351502,23.7653489 12.0723304,25.1516206 14.0524472,25.1516206 C15.8406841,25.1516206 16.9602614,23.3422984 17.4537264,22.6374922 C18.5911785,21.0081189 18.6811561,18.7130258 18.688245,17.8873046 L18.6888487,17.7184366 C18.6888487,15.5402478 17.8954672,12.7326932 14.4153504,12.2696301 L14.4153504,12.2696301 Z M145.407147,9.70586104 C143.632675,9.70586104 141.187875,11.1504846 141.17995,13.4645497 C141.173693,15.0921477 141.350139,15.3130509 141.778532,15.3130509 C141.933175,15.3130509 148.222974,15.333817 149.705184,15.3368559 L149.960957,15.3372252 C150.437736,15.3372252 150.474861,15.0788102 150.474861,14.630335 C150.474861,12.6768006 148.642408,9.70586104 145.407147,9.70586104 Z M83.8430756,4.2898983 C84.0929366,4.2898983 84.2956618,4.49246236 84.2956618,4.74295824 L84.2956618,4.74295824 L84.2956618,6.74275732 C84.2956618,6.99325321 84.0929366,7.19581727 83.8430756,7.19581727 L83.8430756,7.19581727 L81.8408509,7.19581727 C81.5905729,7.19581727 81.3882647,6.99325321 81.3882647,6.74275732 L81.3882647,6.74275732 L81.3882647,4.74295824 C81.3882647,4.49246236 81.5905729,4.2898983 81.8408509,4.2898983 L81.8408509,4.2898983 Z M88.0416574,4.2898983 C88.2915184,4.2898983 88.4950779,4.49246236 88.4950779,4.74295824 L88.4950779,4.74295824 L88.4950779,6.74275732 C88.4950779,6.99325321 88.2915184,7.19581727 88.0416574,7.19581727 L88.0416574,7.19581727 L86.0398498,7.19581727 C85.7895717,7.19581727 85.5868465,6.99325321 85.5868465,6.74275732 L85.5868465,6.74275732 L85.5868465,4.74295824 C85.5868465,4.49246236 85.7895717,4.2898983 86.0398498,4.2898983 L86.0398498,4.2898983 Z" id="Combined-Shape" fill="#565458"></path>
                        <g id="westelm-logo" transform="translate(2.000000, 36.000000)" fill="#565458" fill-rule="nonzero">
                            <path d="M145.078133,7.60776435 C142.347979,7.61758642 140.88789,8.97310383 139.925684,10.0246638 C139.496866,10.4936712 139.377468,10.7106165 139.168327,10.7020323 C138.959186,10.6934482 138.910021,10.4667483 138.713756,10.0718767 C138.502274,9.68910106 137.585719,7.67533443 134.817327,7.67533443 C132.120338,7.67533443 130.491688,9.26379481 129.605179,10.1503047 C129.413596,10.3418877 129.05033,10.4718207 129.05033,10.0613416 L129.05033,8.51190015 C129.05033,7.88993851 128.88567,7.88993851 127.870397,7.8938404 C126.883218,7.89696191 126.574969,7.89501097 126.576518,8.52009412 L126.576518,26.3318426 C126.578871,26.8148968 126.885169,26.8035813 127.856351,26.8035813 C128.642191,26.8035813 129.112369,26.8289437 129.112369,26.3318426 L129.112369,17.4421613 C129.112369,13.0661889 131.180762,10.2377071 133.823905,10.2287328 C136.507626,10.2189781 136.996534,12.6198124 137.003557,14.4895992 L137.003557,26.4383642 C137.003557,26.9655099 137.468662,26.8035813 138.208462,26.8035813 C138.963088,26.8035813 139.479308,26.9491219 139.479308,26.4383642 L139.479308,17.4421613 C139.479308,13.0661889 141.466151,10.2400483 144.533429,10.2287328 C146.833985,10.2205388 147.482088,12.1028117 147.489113,13.9628437 L147.489113,26.2147858 C147.489113,26.8289437 147.675623,26.8051421 148.685042,26.8051421 C149.694462,26.8051421 149.997638,26.7458334 149.997638,26.2147858 L149.997638,13.2995221 C149.985153,9.70119692 147.916369,7.59807696 145.078133,7.60776435" id="Shape"></path>
                            <path d="M118.515533,0.666365178 C118.515533,0.253154777 118.456224,-7.80379041e-05 118.027796,-7.80379041e-05 L113.796974,0.0713265923 C113.486384,0.0713265923 113.534377,0.331582813 113.534377,1.21575162 C113.534377,1.86697746 113.509405,2.28330937 113.796974,2.28330937 C115.436549,2.28330937 115.948477,3.014524 115.948477,4.080521 L115.948477,26.0957781 C115.950818,26.6740386 115.835713,26.6931578 117.182646,26.6876952 C118.57289,26.6834031 118.517873,26.7415412 118.515533,26.0860234 L118.515533,0.666365178 Z" id="Shape"></path>
                            <path d="M35.2532073,9.16402342 C36.9844769,9.16402342 39.3700939,10.5753379 39.3775075,12.8349238 C39.3837506,14.4237743 39.2116771,14.6399391 38.7933942,14.6399391 C38.6310756,14.6399391 31.4984162,14.6641309 30.8085617,14.6641309 C30.3442365,14.6641309 30.3075587,14.4112883 30.3075587,13.9731058 C30.3075587,12.0654706 32.0961862,9.16402342 35.2532073,9.16402342 M30.6743366,16.9373734 L40.0103945,16.9081092 C40.7595578,16.9053779 41.3425006,16.6763368 41.5727122,16.0227698 C41.8216529,15.1265052 42.0229906,14.3722693 41.9082749,12.6406095 C41.6164134,8.04222937 37.7664162,6.71402521 35.3648014,6.71402521 C30.1222188,6.71402521 27.147026,11.1231636 27.147026,17.0357011 C27.147026,20.3507488 27.7873264,22.0410486 29.1662552,24.0766659 C30.5568897,26.1115027 33.1504775,26.8805657 35.277399,26.8732574 C37.3918345,26.8653484 40.9273392,25.5941118 41.6714301,24.7255506 C41.8130687,24.5601103 41.8275058,24.0341352 41.7147411,23.476945 C41.6179741,23.0005239 41.4302931,22.3403237 41.0880971,22.4710371 C40.5117877,22.6911038 38.7656909,24.1964539 35.6020365,24.2077694 C30.182308,24.2272788 30.0999781,19.0159114 30.056667,17.9729356 C30.0149168,16.9576633 30.1881609,16.9389341 30.6743366,16.9373734" id="Shape"></path>
                            <path d="M77.9179421,23.4207967 C77.3392914,23.6490575 76.8179987,24.0525132 75.2978214,24.0575856 C72.5239662,24.0673403 71.9055162,21.8916451 71.898883,20.0651693 L71.898883,10.1130027 C71.9144905,9.70330394 72.0526175,9.62136423 72.5785926,9.62136423 L77.8999934,9.60614685 C78.1099152,9.60614685 78.0712864,9.2417101 78.0712864,8.33998278 C78.0712864,7.43864564 78.1188896,7.02894694 77.7829366,7.02894694 L72.5785926,7.04221338 C72.1111459,7.04221338 71.898883,6.89550222 71.898883,6.22905901 L71.898883,1.54171571 C71.898883,0.815183353 71.8263078,0.799965972 70.616331,1.16830462 C69.2931992,1.5713701 69.2931992,1.5713701 69.2931992,2.09227272 L69.2931992,6.22905901 C69.2931992,6.72186801 69.1819953,7.06133264 68.6025643,7.06133264 L66.6106483,7.06445416 C66.1268136,7.06445416 66.2766462,7.62047383 66.2789874,8.33998278 C66.2821089,9.10163216 66.2676719,9.643605 66.6106483,9.643605 L68.6848942,9.62136423 C69.0719619,9.65843221 69.2931992,9.67677106 69.2931992,10.070472 L69.2931992,18.4372998 C69.3103676,23.2194591 69.9557406,24.2745308 71.0279806,25.3686214 C72.0967089,26.4806608 73.5685027,26.7846182 74.6173313,26.7807895 C75.682548,26.7768144 77.1968724,26.3507277 78.1887335,25.9063022 C78.6963696,25.6788218 78.7490452,25.516113 78.5543408,24.441922 C78.3537835,23.3372963 78.228923,23.2978871 77.9179421,23.4207967" id="Shape"></path>
                            <path d="M56.2052767,15.6743698 C54.5087339,14.8912601 52.1379441,14.4007922 52.1379441,12.0779957 C52.1379441,10.1001264 54.0057801,9.14299222 55.2996476,9.14299222 C56.1225566,9.14299222 57.2232805,9.4012975 58.3392217,9.84767394 C59.4617962,10.3174618 59.4270693,9.92063933 59.8765673,9.17888963 C60.1976931,8.64901265 60.2866562,8.14566854 60.141896,8.02314912 C59.4360437,7.42733015 57.5139714,6.65748679 55.3062808,6.66479487 C51.3013785,6.67894719 49.217768,9.21790856 49.2283031,12.0779957 C49.2380578,14.8389747 51.5682679,16.5792187 53.7630823,17.5929303 C56.0148644,18.6156163 58.3002028,19.3913125 58.306836,21.2973869 C58.3111281,22.5584786 57.2143062,24.3853445 54.9020447,24.3853445 C52.9721688,24.3853445 51.005615,23.2416999 50.329417,22.918233 C49.952104,22.7379656 49.7983695,23.1359587 49.5096295,23.7423127 C49.1440222,24.5105953 48.8833758,25.0830029 49.1717256,25.2585881 C50.5572876,26.103738 52.9175423,26.9289882 54.873561,26.922434 C58.4675939,26.9094788 61.2547157,24.732613 61.242698,21.2302744 C61.2301338,17.5667877 57.8885532,16.4824517 56.2052767,15.6743698" id="Shape"></path>
                            <path d="M101.427975,9.16402342 C103.159245,9.16402342 105.544862,10.5753379 105.552275,12.8349238 C105.558518,14.4237743 105.386445,14.6399391 104.968162,14.6399391 C104.805843,14.6399391 97.6731846,14.6641309 96.9833298,14.6641309 C96.5190048,14.6641309 96.4823269,14.4112883 96.4823269,13.9731058 C96.4823269,12.0654706 98.2709538,9.16402342 101.427975,9.16402342 M96.8491048,16.9373734 L106.185162,16.9081092 C106.934326,16.9053779 107.517268,16.6763368 107.747089,16.0227698 C107.996421,15.1265052 108.197759,14.3722693 108.082653,12.6406095 C107.791181,8.04222937 103.941184,6.71402521 101.539569,6.71402521 C96.2969865,6.71402521 93.3214036,11.1231636 93.3214036,17.0357011 C93.3214036,20.3507488 93.9620943,22.0410486 95.3410231,24.0766659 C96.7316577,26.1115027 99.3252452,26.8805657 101.452167,26.8732574 C103.566602,26.8653484 107.102107,25.5941118 107.846198,24.7255506 C107.987837,24.5601103 108.002274,24.0341352 107.889509,23.476945 C107.792742,23.0005239 107.605061,22.3403237 107.262475,22.4710371 C106.686556,22.6911038 104.940459,24.1964539 101.776805,24.2077694 C96.357076,24.2272788 96.2747462,19.0159114 96.2310452,17.9729356 C96.1896846,16.9576633 96.3629288,16.9389341 96.8491048,16.9373734" id="Shape"></path>
                            <path d="M21.1831395,7.32279845 C20.1393834,7.32279845 19.8600078,7.23968814 19.6742778,7.65680044 C19.6122377,7.796098 16.9667546,21.3543936 16.9667546,21.3543936 C16.8625741,21.7558983 16.7853166,21.9295325 16.5789065,21.9295325 C16.3475243,21.9295325 16.2507574,21.8191089 16.1742803,21.4691092 L12.3847624,7.83121503 C12.2883857,7.43673371 12.1221651,7.29119312 11.1954657,7.29119312 C10.2687662,7.29119312 10.0646972,7.38717968 9.95622462,7.83121503 L6.27752051,21.4714504 C6.17841244,21.8159874 6.07267116,21.9295325 5.84206933,21.9295325 C5.63526903,21.9295325 5.54474512,21.528418 5.43978422,21.1269133 L2.59062241,7.58968789 C2.42869388,7.07853999 2.17390031,7.20574168 1.22261895,7.20574168 C0.282262893,7.20574168 -0.00803789828,7.25529572 -0.000172831219,7.78790403 C0.00405796805,8.03333306 4.02534824,25.1860519 4.19508056,25.9032197 C4.39914953,26.6746238 4.65940575,26.9259057 5.74608277,26.9220921 C7.01536836,26.9177117 7.17222443,26.3663743 7.35990545,25.9032197 L10.8130802,13.6192821 C10.9301369,13.2743549 10.9480857,13.0866738 11.1954657,13.0866738 C11.4432358,13.0866738 11.4611845,13.2743549 11.5786314,13.6192821 L15.0314161,25.9032197 C15.2194872,26.3663743 15.3759531,26.9177117 16.6456289,26.9220921 C17.7319158,26.9259057 17.9921719,26.6746238 18.1966312,25.9032197 C18.3659733,25.1860519 22.2904965,7.89286493 22.2842684,7.69972126 C22.2698165,7.24280966 21.8971859,7.32279845 21.1831395,7.32279845" id="Shape"></path>
                        </g>
                        <g id="Group-26" transform="translate(0.000000, 0.243827)">
                            <mask id="mask-2" fill="white">
                                <use xlink:href="#path-1"></use>
                            </mask>
                            <g id="Clip-25"></g>
                        </g>
                    </g>
                </g>
            </g>
        </g>
    </g>
</svg>
