<svg xmlns="http://www.w3.org/2000/svg" width="120" height="49" viewBox="0 0 120 49">
    <path fill="#000" fill-rule="nonzero" d="M68.322 0c.621.096 1.29.143 1.91.287 2.389.477 3.583 1.719 4.108 3.343.335 1.003.478 2.101.478 3.152.095 6.974.095 13.995.143 20.968 0 1.146-.286 2.293-.907 3.296-.908 1.385-2.532 2.053-4.824 2.053-1.242 0-2.532-.143-3.774-.334-2.53-.478-3.773-1.767-4.298-3.343a9.802 9.802 0 0 1-.478-3.105 1451.44 1451.44 0 0 1 0-20.394c0-1.433.382-2.866 1.576-4.108.956-1.003 2.389-1.433 4.06-1.576.239 0 .526-.048.764-.096C67.51 0 67.94 0 68.322 0zm2.866 16.621c0-3.582-.048-7.164-.048-10.698a5.41 5.41 0 0 0-.286-1.72c-.335-1.003-1.481-1.672-2.77-1.72-1.672-.047-2.723.383-3.248 1.481a3.67 3.67 0 0 0-.43 1.72c0 7.212 0 14.424.047 21.636 0 .621.192 1.242.478 1.863.43.907 1.624 1.48 2.961 1.528 1.338.048 2.532-.382 2.914-1.242.286-.62.43-1.29.43-1.958 0-3.678 0-7.308-.048-10.89zM34.172 0c.621.096 1.29.143 1.91.287 2.341.477 3.487 1.767 4.06 3.343.287.812.43 1.672.43 2.484.048 1.719 0 3.39 0 5.11 0 .717-.143.812-1.146.908-.478.047-1.003.095-1.48.095-.86 0-1.051-.095-1.051-.764 0-1.767.047-3.582.047-5.35a4.92 4.92 0 0 0-.286-1.671c-.382-1.194-1.529-1.815-3.057-1.815s-2.722.716-3.105 1.958a5.7 5.7 0 0 0-.286 1.767 3901.63 3901.63 0 0 0-.239 23.643c0 .716.143 1.433.43 2.054.43.907 1.576 1.241 2.913.955 1.338-.239 2.484-1.003 2.914-2.054.286-.716.43-1.433.478-2.102.095-1.671.047-3.295.047-4.919 0-.621.24-.812 1.099-.955.573-.096 1.194-.144 1.767-.191.478-.048.86.095.86.477-.096 2.293-.191 4.585-.382 6.878-.048.525-.382 1.146-.669 1.72-.86 1.671-2.531 2.77-4.824 3.343-1.242.334-2.531.573-3.725.62-2.484.144-3.726-.954-4.204-2.626-.286-1.05-.43-2.245-.43-3.391.048-7.69.144-15.428.24-23.117 0-1.529.381-3.01 1.384-4.347.956-1.337 2.484-1.91 4.395-2.101.238-.143.477-.191.764-.239h1.146zm54.831 19.917c.765 2.101 1.481 4.107 2.197 6.161 1.099 3.153 2.197 6.4 3.296 9.696.239.669 0 .86-.812.669-.43-.096-.812-.191-1.242-.335-1.194-.286-1.29-.43-1.624-1.337-1.72-5.11-3.486-10.03-5.206-14.806 0-.048-.048-.048-.095-.144-.669-.095-1.385-.143-2.245-.238v.62l.143 12.944c0 .955-.095 1.003-1.433.764-2.436-.382-2.292-.286-2.292-2.006a6460.685 6460.685 0 0 1-.24-30.424c0-.86.144-.956 1.338-.956 2.006 0 4.012 0 6.018.048.764 0 1.576.143 2.293.287 2.388.477 3.487 1.862 3.869 3.63.238 1.146.334 2.292.382 3.39.047 2.341.095 4.634 0 6.974 0 .812-.191 1.624-.478 2.388-.525 1.624-1.72 2.58-3.869 2.675zM83.13 3.343l.143 13.517c1.242.096 2.436.239 3.63.334 1.146.096 2.006-.286 2.34-1.098.239-.573.382-1.146.382-1.767 0-2.58-.048-5.206-.048-7.786 0-.382-.095-.812-.19-1.194-.287-1.146-1.242-1.862-2.675-1.958-1.194-.048-2.34-.048-3.582-.048zm25.696 28.085c-.144 1.003-.287 1.958-.382 2.96-.24 1.96-.478 3.917-.717 5.828-.048.573-.382.764-1.146.478a23.682 23.682 0 0 0-1.672-.621c-.668-.287-1.003-.669-.907-1.194.286-1.815.573-3.63.86-5.493.382-2.484.764-4.967 1.146-7.499.382-2.579.764-5.158 1.146-7.833.43-3.009.908-6.066 1.337-9.122.335-2.389.717-4.777 1.051-7.26.096-.621.478-.908 1.099-.908h2.34c.573.048.955.287 1.003.908.573 4.107 1.194 8.263 1.815 12.513.62 4.347 1.242 8.836 1.863 13.374a787.914 787.914 0 0 1 1.48 11.75c.24 2.053.526 4.155.812 6.256.144 1.147-.095 1.338-1.146.765-.43-.24-.86-.43-1.29-.67-.811-.429-1.098-.763-1.194-1.67-.19-1.434-.334-2.867-.477-4.252-.191-1.862-.382-3.725-.621-5.588 0-.19-.287-.525-.43-.62-1.91-.813-3.869-1.481-5.97-2.102zm3.152-23.977h-.191c-.86 7.212-1.672 14.185-2.531 21.063 1.862.526 3.677 1.099 5.492 1.672-.907-7.881-1.862-15.427-2.77-22.735zM7.473 36.968c.191-1.576.334-3.152.525-4.68.335-3.057.669-6.066 1.003-9.075.287-2.389.526-4.729.812-7.07.335-3.008.717-5.97 1.051-8.93.239-1.816.43-3.679.669-5.494.095-.764.334-.955 1.146-.955h1.624c.716 0 1.003.239.907.86a92.469 92.469 0 0 1-.525 3.582c-.334 2.293-.669 4.585-1.003 6.926-.382 2.674-.764 5.349-1.146 8.12-.382 2.77-.764 5.54-1.147 8.358-.43 3.152-.86 6.352-1.29 9.552-.142 1.003-.238 2.006-.381 3.01-.096.907-.382 1.241-1.29 1.623-.716.334-1.385.621-2.101.955-.669.335-1.003.144-1.051-.382-.382-2.579-.717-5.158-1.05-7.785-.383-3.105-.813-6.257-1.195-9.457-.382-3.152-.812-6.352-1.194-9.6-.382-2.914-.764-5.875-1.146-8.884C.5 5.779.26 3.917.022 2.006-.073 1.051.118.86 1.072.86H2.41c1.003 0 1.194.143 1.29 1.098.334 3.01.573 6.018.907 8.98.335 3.486.717 6.925 1.099 10.364.286 2.914.573 5.78.86 8.645.238 2.34.477 4.633.716 6.926 0 .095.048.143.095.19 0-.047.048-.095.096-.095zM48.453 3.2c-1.624 0-3.104.048-4.585.048-.86 0-1.099-.143-1.099-.764V1.337c0-.477.287-.716 1.003-.716h13.23c.67 0 .956.191.908.669V2.53c0 .43-.334.621-.955.621h-4.729v.669c-.047 9.123-.047 18.245-.095 27.368v.525c-.048.621-.239.764-1.194.86a18.51 18.51 0 0 1-1.624.095c-.621.048-.908-.143-.955-.525v-.525l.143-27.75c-.048-.24-.048-.43-.048-.669zm52.586 16.43c.048 5.78.096 11.511.192 17.29 0 1.863.143 1.815-2.15 1.051-.239-.048-.43-.143-.668-.191-.574-.191-.86-.525-.86-.955v-.478c-.096-11.51-.239-23.021-.335-34.532 0-1.05.096-1.146 1.386-1.146h1.48c.526 0 .812.238.812.668v.669c0 5.923.096 11.797.143 17.624zm-79.237-.382c-.048 5.827-.096 11.606-.191 17.434 0 1.003-.144 1.146-1.385 1.576-.478.143-.956.334-1.481.477-.573.191-.86 0-.86-.43v-.43c.191-11.988.287-23.976.382-35.965 0-1.098.096-1.194 1.433-1.194H20.8c1.05 0 1.194.096 1.194.956l-.144 15.809c-.047.62-.047 1.194-.047 1.767zm37.923 28.896h-.573c-.096-.047-.143-.047-.239-.047-.095 0-.239 0-.334-.048-.144-.048-.287-.048-.43-.096a.362.362 0 0 1-.191-.095c-.048-.048-.143-.048-.191-.096a1.43 1.43 0 0 1-.382-.19c-.191-.096-.382-.192-.526-.335a3.346 3.346 0 0 1-.477-.382 2.264 2.264 0 0 1-.478-.478 2.077 2.077 0 0 0-.287-.334c-.143-.191-.238-.382-.382-.573a1.044 1.044 0 0 0-.143-.239c-.048-.048-.048-.096-.095-.143a2.329 2.329 0 0 1-.144-.335c0-.047-.048-.095-.048-.143-.047-.095-.047-.239-.095-.334-.048-.144-.048-.287-.096-.43-.047-.239-.047-.478-.047-.717v-.382c0-.143 0-.286.047-.43 0-.143.048-.286.096-.43 0-.047.048-.095.048-.19v-.048c0-.048 0-.048.047-.096.048-.143.096-.239.144-.382 0-.048.048-.095.048-.19v-.049c.047-.143.143-.286.238-.43l.144-.286a4.568 4.568 0 0 1 1.098-1.242c.191-.19.43-.334.669-.43.143-.095.286-.143.43-.239a1.43 1.43 0 0 0 .382-.19c.095-.048.19-.048.239-.096.143-.048.334-.096.477-.143.096-.048.191-.048.287-.048h.095c.144-.048.24-.048.382-.048h.765c.095 0 .19 0 .286.048h.096c.19 0 .382.048.573.095.095 0 .143.048.239.048.095.048.19.048.286.096.048 0 .096.047.144.047l.286.144c.239.095.478.238.669.382.334.239.62.477.86.764.095.095.19.191.238.334.048.096.144.144.191.24.144.19.24.381.335.572l.143.287c.048.095.048.143.096.239 0 .047.047.095.047.143.096.191.096.382.144.525.047.144.047.335.095.478v.048c.096.43.048.812 0 1.242-.048.19-.048.382-.095.573 0 .095-.048.143-.048.19 0 .096-.048.144-.048.24v.047c-.048.096-.048.191-.095.287-.048.048-.048.143-.096.19-.048.096-.096.24-.143.335a.362.362 0 0 0-.096.191c-.048.096-.095.144-.143.24-.096.095-.143.238-.239.333a6.52 6.52 0 0 1-.812.812c-.143.096-.239.191-.382.287-.095.048-.191.143-.287.191-.047.048-.095.048-.143.048-.095.048-.239.095-.334.19-.048.049-.143.049-.191.096-.048 0-.096.048-.143.048-.096.048-.192.048-.287.096-.096.047-.239.047-.334.095h-.048c-.048 0-.096.048-.191.048h-.191c-.096 0-.144.048-.24.048h-.047c-.239.047-.382.047-.573.047zm3.582-5.206v-.43c0-.047 0-.095-.048-.143 0-.095 0-.19-.047-.286v-.096c-.048-.095-.096-.19-.096-.334V41.6c-.095-.191-.19-.334-.239-.525a3.607 3.607 0 0 0-.525-.669c-.239-.239-.525-.478-.86-.62-.048-.049-.095-.049-.143-.096-.143-.048-.239-.096-.382-.144-.096-.048-.191-.095-.287-.095-.19-.048-.382-.096-.62-.096-.24 0-.526 0-.765.048-.095.048-.239 0-.334.048h-.048c-.048 0-.143 0-.191.047-.048 0-.048 0-.096.048-.047 0-.143.048-.19.048a1.43 1.43 0 0 0-.383.191c-.143.096-.286.143-.382.239-.143.095-.286.19-.382.334a3.066 3.066 0 0 0-.477.621c-.048.096-.144.191-.192.334a.362.362 0 0 1-.095.192c-.048.143-.143.286-.143.477v.048c-.048.095-.048.19-.096.334-.048.287-.048.526-.048.812 0 .191 0 .335.048.526 0 .143.048.286.096.43.047.143.095.238.143.382 0 .047.048.095.048.143l.143.286c.096.191.239.382.382.526.191.19.43.382.669.573.095.095.239.143.382.191.048.048.143.048.19.096.144.047.24.095.383.143.096.048.191.048.334.095.144 0 .24.048.382.048.383 0 .812 0 1.194-.095.144-.048.287-.048.43-.144h.048c.143-.047.287-.143.43-.19.143-.049.239-.144.382-.24.191-.143.382-.334.573-.525.191-.239.382-.478.478-.716.048-.144.143-.287.19-.43.049-.144.096-.335.144-.478.048-.143.048-.286.048-.478-.048-.19-.048-.286-.048-.382zm4.108 0v-4.68c0-.096 0-.191.048-.24.047-.047.095-.095.19-.095h3.726c.143 0 .334 0 .478.096h.047c.144 0 .335.095.478.143.048 0 .143.048.191.096.143.047.239.143.334.19.144.096.24.144.335.24l.382.382.286.43.287.573c.048.095.048.238.096.334.047.143.047.287.095.43.048.19.048.43 0 .669 0 .095 0 .19-.048.238 0 .096-.047.191-.095.335v.047c0 .096-.096.191-.096.287a2.231 2.231 0 0 1-.239.478l-.143.143c0 .048-.048.048-.048.095-.19.24-.382.43-.62.574-.096.047-.144.095-.24.143-.095.048-.19.095-.334.143-.047 0-.047.048 0 .096l.144.143c.19.239.382.478.62.716.048.096.144.144.192.24.095.142.238.286.334.43.191.238.382.429.573.668.191.19.334.43.525.62.144.144.24.287.383.43.047.096.143.192.19.24 0 .047.048.095.048.095v.048c-.047.095-.095.143-.19.143h-1.338c-.143 0-.287-.096-.382-.191-.048-.048-.048-.096-.096-.096-.143-.19-.286-.334-.43-.525-.143-.143-.238-.287-.334-.43-.143-.191-.286-.334-.43-.525l-.047-.048-.574-.717c-.143-.143-.238-.286-.382-.43-.095-.095-.19-.19-.239-.334-.095-.095-.19-.19-.286-.334 0 0-.048-.048-.096-.048h-1.433c-.047 0-.047 0-.047.048v3.2c0 .096 0 .191-.048.287-.048.047-.096.095-.191.095h-1.194c-.048 0-.143-.048-.143-.143-.048-.096-.048-.143-.048-.239V45.47c-.191-.717-.191-1.624-.191-2.532zm1.671-1.815v1.624c0 .048 0 .096.096.096h2.006c.191 0 .382-.048.573-.096.048 0 .096 0 .096-.047.143-.096.286-.144.382-.287.286-.239.43-.525.525-.907 0-.048 0-.096.048-.144.048-.19 0-.334 0-.525a.885.885 0 0 0-.096-.335c0-.047-.047-.095-.095-.143-.048-.095-.096-.19-.143-.239a1.128 1.128 0 0 0-.43-.382c-.048 0-.096-.047-.096-.047a.365.365 0 0 0-.239-.096h-.047c-.048 0-.096-.048-.096-.048h-.143c-.096 0-.191-.048-.239-.048h-1.91c-.048 0-.048 0-.096.048v.144c-.096.477-.096.955-.096 1.432zm-32 3.821h.525c.143 0 .239.096.239.191.048.096.048.24.095.335.048.143.096.239.191.382.096.143.191.19.335.286a.362.362 0 0 0 .19.096c.144.096.335.143.478.191h.096c.048 0 .095 0 .191.048h.716c.191 0 .335-.048.526-.096.143-.047.334-.143.477-.239.096-.095.191-.143.24-.238 0-.048.047-.048.047-.096.048-.048.048-.095.048-.143 0-.048 0-.048.048-.096.047-.143.095-.334.047-.477a1.241 1.241 0 0 0-.43-.765 2.573 2.573 0 0 0-.62-.334c-.048-.048-.144-.048-.192-.095-.143-.048-.238-.096-.382-.144-.143-.047-.238-.095-.382-.143-.095-.048-.19-.048-.286-.095-.048 0-.096-.048-.144-.048-.095-.048-.19-.096-.286-.096-.048 0-.096-.048-.143-.048-.048-.047-.144-.047-.191-.095-.048 0-.096-.048-.144-.048a5.21 5.21 0 0 1-.525-.286 3.607 3.607 0 0 1-.669-.526c-.048-.048-.048-.095-.095-.143a1.451 1.451 0 0 1-.24-.334c-.047-.048-.047-.096-.095-.144-.047-.095-.047-.143-.095-.238v-.048a.69.69 0 0 0-.096-.335c-.048-.143-.048-.334-.048-.477 0-.191 0-.382.048-.573 0-.144.048-.287.096-.43.048-.144.143-.335.239-.478.095-.19.286-.382.43-.525.095-.096.19-.191.334-.239.095-.048.239-.143.334-.191.239-.143.478-.191.717-.287.095-.047.238-.047.334-.047.048 0 .143-.048.19-.048.24-.048.479 0 .765 0 .143 0 .239 0 .382.048h.048c.191 0 .334.047.525.095.287.096.526.191.765.334.286.191.525.383.764.67.143.19.286.429.382.668.048.095.048.19.095.239.048.095.048.238.096.334v.048c0 .143.048.286.048.43 0 .143-.096.19-.191.238h-1.194a.263.263 0 0 1-.24-.143v-.048c0-.095-.047-.143-.047-.239 0-.095-.048-.19-.096-.286-.047-.048-.047-.143-.095-.191-.048-.048-.096-.096-.096-.143-.143-.144-.286-.287-.477-.335-.096-.048-.239-.048-.335-.095-.238-.048-.477-.048-.716-.048-.143 0-.287.048-.43.095a1.43 1.43 0 0 0-.382.192 1.128 1.128 0 0 0-.382.43c-.096.238-.143.525-.096.764.048.143.096.286.192.43.19.238.382.382.668.525l.287.143c.095.048.239.096.334.143.048 0 .096.048.143.048.144.048.24.096.382.143.096.048.192.048.287.096.096.048.239.096.334.143.096.048.144.048.24.096.142.095.334.143.477.239.239.095.43.238.669.382.143.095.238.19.334.286.19.144.334.335.43.573.047.096.095.24.143.335.096.19.096.382.143.573 0 .143.048.239.048.382 0 .239-.048.478-.095.716-.048.24-.144.43-.24.621-.143.24-.334.43-.525.669-.19.191-.382.287-.62.43-.096.048-.24.095-.335.143-.048.048-.143.048-.239.096-.048 0-.095.047-.143.047h-.048c-.143 0-.239.048-.382.048-.239.048-.525.048-.764.048h-.573c-.144-.048-.287-.048-.43-.096-.096 0-.191-.047-.334-.095-.096-.048-.24-.048-.335-.096-.143-.047-.286-.143-.43-.19l-.43-.287a2.264 2.264 0 0 1-.477-.478 1.042 1.042 0 0 0-.191-.239l-.143-.286c-.048-.096-.096-.191-.096-.287-.239-.239-.287-.334-.287-.43-.047-.143-.047-.334-.095-.477v-.191c0-.096.095-.144.191-.144h.669zm8.55-2.006v-4.68c0-.096 0-.191.047-.24.048-.047.095-.095.19-.095h3.965c.096 0 .191 0 .239.048.143 0 .239.096.334.096.24.047.43.19.621.334.191.143.382.287.526.43.143.143.238.286.382.43.095.143.19.286.239.477.047.096.047.191.095.287.048.095.048.239.096.334v.191c.047.191.047.43.047.621 0 .143-.047.287-.047.43 0 .048 0 .096-.048.096v.047c0 .096-.048.191-.096.335v.047c0 .096-.047.144-.095.191a2.494 2.494 0 0 1-.669.908c-.143.143-.239.239-.43.334-.143.096-.239.144-.382.24a1.697 1.697 0 0 1-.43.19c-.095.048-.143.048-.239.048-.143.048-.286.048-.382.095h-2.388c-.047 0-.047 0-.047.048v3.248c0 .096-.048.143-.096.191-.048.048-.096.096-.191.096h-1.05c-.049 0-.096 0-.144-.048-.143-.048-.191-.143-.191-.287v-1.624c.143-.764.143-1.815.143-2.818zm1.67-1.815v1.624c0 .048 0 .048.049.048h2.053c.144-.048.287-.048.43-.095a.77.77 0 0 0 .335-.191c.19-.096.334-.287.477-.43l.048-.048c.095-.143.143-.287.191-.43.048-.143.048-.287.048-.43 0-.095 0-.19-.048-.286 0-.096-.048-.144-.048-.24 0-.095-.048-.143-.095-.238a1.715 1.715 0 0 0-.335-.478c-.19-.19-.382-.286-.62-.382-.192-.048-.383-.095-.621-.095h-1.911c-.048 0-.048 0-.048.047v.048c.096.526.096 1.051.096 1.576zm31.333 2.484v-4.06c0-.048 0-.048-.048-.048h-2.15c-.095 0-.19-.047-.286-.143-.047-.048-.047-.095-.047-.143v-1.099c0-.095.143-.19.238-.19h6.257c.096 0 .143.047.143.143v1.29c0 .095 0 .095-.095.095-.096 0-.191.047-.334.047h-1.959a.103.103 0 0 0-.095.096v8.024c0 .048 0 .143-.048.191-.048.096-.095.191-.239.191h-1.05c-.048 0-.096 0-.192-.048-.095-.047-.143-.095-.143-.238v-2.389c.048-.62.048-1.146.048-1.719z"/>
</svg>
