<svg width="198" height="30" viewBox="0 0 198 30" xmlns="http://www.w3.org/2000/svg">
    <path d="M188.175 29.979c-.265-.04-.53-.09-.796-.117a15.02 15.02 0 0 1-3.24-.655.373.373 0 0 1-.283-.332c-.085-.679-.154-1.357-.239-2.03-.085-.675-.188-1.33-.284-1.987-.03-.239-.045-.486-.062-.724a.876.876 0 0 1 1.025.369 110.898 110.898 0 0 0 2.857 3.604c.332.404.575.908 1.075 1.15.22.126.46.212.709.256 1.282.216 2.6.027 3.77-.539a3.055 3.055 0 0 0 1.618-3.217 3.015 3.015 0 0 0-1.686-2.237 14.04 14.04 0 0 0-3.011-1.04 15.325 15.325 0 0 1-3.519-1.298 5.818 5.818 0 0 1-2.426-2.412 5.508 5.508 0 0 1-.59-2.372 5.416 5.416 0 0 1 3.016-5.343 9.991 9.991 0 0 1 3.186-1.029c.264-.034.53-.055.796-.062a8.52 8.52 0 0 1 .827-.054c1.659.027 3.307.27 4.902.724.648.197.63.197.683.836.05.574.142 1.135.22 1.717.08.678.157 1.352.238 2.03.023.197.05.392.073.58a.829.829 0 0 1-1.025-.35c-.655-.881-1.344-1.734-2.018-2.602-.466-.598-.92-1.2-1.393-1.794a1.73 1.73 0 0 0-1.2-.568 7.71 7.71 0 0 0-1.402-.058 4.66 4.66 0 0 0-2.555.747 2.27 2.27 0 0 0-.993 1.68 2.77 2.77 0 0 0 .512 2.071 3.82 3.82 0 0 0 1.465 1.151c1.2.476 2.433.863 3.69 1.16a11.26 11.26 0 0 1 3.8 1.766 5.06 5.06 0 0 1 2.027 3.513c0 .032.035.059.058.086v1.905c-.018.019-.05.036-.054.058a5.534 5.534 0 0 1-2.202 3.708 8.258 8.258 0 0 1-3.663 1.541l-1.02.176h-2.889l.003-.008zm-52.29 0c-.397-.1-.801-.17-1.187-.297a4.854 4.854 0 0 1-3.547-4.619 5.016 5.016 0 0 1 .472-2.426 5.392 5.392 0 0 1 1.713-1.941 21.143 21.143 0 0 1 3.81-2.045 12.578 12.578 0 0 0 4.102-2.696 2.676 2.676 0 0 0 .71-1.6c.053-.454.071-.912.053-1.37a2.513 2.513 0 0 0-1.128-2.202 2.856 2.856 0 0 0-1.135-.346 3.523 3.523 0 0 0-1.918.283 4.082 4.082 0 0 0-1.46 1.363l-2.801 3.741c-.023.032-.063.05-.077.086-.18.445-.53.44-.944.364.023-.369.032-.736.063-1.105.027-.31.08-.62.108-.931.062-.805.116-1.613.176-2.412.008-.141.027-.281.058-.419a.234.234 0 0 1 .13-.153c1.012-.3 2.01-.643 3.034-.871a19.237 19.237 0 0 1 2.777-.405 13.878 13.878 0 0 1 3.115.046c.645.08 1.286.197 1.918.35a4.385 4.385 0 0 1 3.33 3.115c.186.598.284 1.219.293 1.844.022 4.606.014 9.212.014 13.823v.359h-5.185c-.121-1.079-.24-2.153-.355-3.223a8.118 8.118 0 0 1-1.02 1.933 4.49 4.49 0 0 1-2.45 1.599c-.233.058-.462.122-.696.176l-1.974-.021zm5.868-13.854c-.66.568-1.335 1.101-1.968 1.686a9.443 9.443 0 0 0-2.354 3.073 6.23 6.23 0 0 0-.553 2.468 7.905 7.905 0 0 0 .176 1.721 3.749 3.749 0 0 0 1.34 2.359c.639.538 1.56.579 2.245.099.554-.45.94-1.071 1.097-1.767a9.554 9.554 0 0 0 .207-2.58c.077-1.918.059-3.83.077-5.756v-1.524c-.097.078-.182.146-.267.228v-.007zM78.228 29.98c-.31-.058-.62-.12-.93-.176a9.649 9.649 0 0 1-4.178-1.836 8.77 8.77 0 0 1-2.543-3.122 8.495 8.495 0 0 1-.894-3.078 18.826 18.826 0 0 1-.103-2.516 9.114 9.114 0 0 1 .728-3.096 10.45 10.45 0 0 1 1.788-2.88 9.835 9.835 0 0 1 5.185-3.122c.492-.098.99-.163 1.49-.193 1.355-.112 2.718.049 4.01.472a7.74 7.74 0 0 1 2.633 1.41 7.506 7.506 0 0 1 1.987 2.5c.244.55.458 1.112.643 1.685a.614.614 0 0 1 0 .158H74.883c0 .426-.009.84 0 1.254.008.373.035.742.058 1.114.072.989.296 1.96.665 2.88a7.46 7.46 0 0 0 1.91 2.894 5.872 5.872 0 0 0 3.213 1.56c.46.082.926.118 1.393.109a6.737 6.737 0 0 0 4.048-1.41 7.181 7.181 0 0 0 2.36-3.974c.027-.1.05-.197.077-.305h.346c-.025.407-.072.812-.142 1.213-.184.836-.369 1.672-.624 2.49a8.642 8.642 0 0 1-2.516 3.958 7.149 7.149 0 0 1-2.988 1.61c-.62.157-1.259.238-1.888.358-.022 0-.04.036-.058.054l-2.509-.011zm-1.68-18.545a5.384 5.384 0 0 0-1.298 2.507c-.142.575-.238 1.16-.369 1.784h.404c1.278 0 2.539.009 3.81 0 .505 0 1.008-.041 1.506-.122a1.67 1.67 0 0 0 1.56-1.537 3.23 3.23 0 0 0-5.611-2.629l-.002-.003zM58.701 29.98c-.426-.117-.872-.198-1.29-.355a5.534 5.534 0 0 1-3.163-2.947v2.818h-5.6V3.522a.39.39 0 0 1 .235-.419c1.123-.638 2.233-1.298 3.351-1.95L54.022.116c.075-.038.152-.073.23-.104V13.6c.346-.771.84-1.469 1.452-2.053a5.862 5.862 0 0 1 3.121-1.54 7.123 7.123 0 0 1 5.534 1.486 8.288 8.288 0 0 1 2.234 2.607 10.012 10.012 0 0 1 1.24 3.789c.112.82.166 1.648.162 2.476a11.285 11.285 0 0 1-1.406 5.342 8.525 8.525 0 0 1-3.136 3.231 7.156 7.156 0 0 1-2.9.993c-.022 0-.039.036-.057.054L58.7 29.98zm-1.74-18.104a2.96 2.96 0 0 0-1.78 1.04 3.486 3.486 0 0 0-.93 2.313c-.01 3.311-.01 6.622 0 9.933 0 .114.013.227.04.338.115.556.358 1.078.709 1.524a3.001 3.001 0 0 0 2.128 1.222 2.936 2.936 0 0 0 2.5-1.066 6.872 6.872 0 0 0 1.499-3.1c.28-1.28.428-2.586.44-3.897-.027-.359-.054-.72-.085-1.083-.054-.642-.095-1.29-.175-1.928a8.901 8.901 0 0 0-1.002-3.217 3.884 3.884 0 0 0-1.928-1.844 2.85 2.85 0 0 0-1.074-.239 1.44 1.44 0 0 0-.342.004zM36.282 29.98c-.31-.058-.62-.12-.93-.176a9.649 9.649 0 0 1-4.18-1.845 8.626 8.626 0 0 1-2.538-3.122c-.494-.957-.799-2-.898-3.073a20.456 20.456 0 0 1-.104-2.516 9.194 9.194 0 0 1 .79-3.28 10.129 10.129 0 0 1 2.242-3.264 9.734 9.734 0 0 1 4.75-2.576c.475-.09.955-.147 1.437-.174 1.495-.116 2.997.1 4.399.634a7.187 7.187 0 0 1 4.044 3.51c.305.588.517 1.23.763 1.844.022.073.038.148.046.224H32.92c0 .5-.013.966 0 1.433.013.513.054 1.024.122 1.533a9.223 9.223 0 0 0 1.887 4.51 6.256 6.256 0 0 0 3.635 2.22 7.08 7.08 0 0 0 3.304-.126 6.065 6.065 0 0 0 2.97-1.749 7.204 7.204 0 0 0 1.55-2.804c.094-.296.17-.593.257-.898h.338c-.027.409-.077.813-.142 1.218-.184.836-.369 1.671-.624 2.489a8.642 8.642 0 0 1-2.516 3.959 7.139 7.139 0 0 1-2.993 1.609c-.62.157-1.258.238-1.887.359-.023 0-.041.035-.058.054l-2.482.007zm-2.03-18.118a6.63 6.63 0 0 0-1.025 2.31c-.126.49-.18 1.002-.27 1.519.047.013.094.023.142.03 1.69-.018 3.385-.022 5.073-.067a3.296 3.296 0 0 0 1.097-.247c.386-.148.686-.46.817-.852a3.076 3.076 0 0 0-.099-2.138 3.018 3.018 0 0 0-2.625-2.056 3.327 3.327 0 0 0-3.11 1.501zM.114 29.98V.849c.12 0 .211-.013.305-.013 3.32 0 6.646-.023 9.967.013.9.044 1.797.135 2.687.273 1.32.166 2.618.476 3.87.926 1.594.539 3.09 1.332 4.43 2.35a12.53 12.53 0 0 1 3.789 4.65c.47 1.02.81 2.093 1.011 3.196a15.51 15.51 0 0 1 .212 3.675 13.385 13.385 0 0 1-.544 3.122 13.043 13.043 0 0 1-1.914 3.924 13.848 13.848 0 0 1-2.381 2.561 15.325 15.325 0 0 1-3.088 2 19.95 19.95 0 0 1-7.778 1.932c-1.083.013-2.166 0-3.271 0v-.342c.732 0 1.464.027 2.192 0a9.721 9.721 0 0 0 5.567-1.916 10.032 10.032 0 0 0 3.263-4.43 15.91 15.91 0 0 0 .904-3.432c.12-.75.13-1.514.189-2.27.031-.265.05-.53.054-.797-.027-.957-.04-1.914-.122-2.862a20.764 20.764 0 0 0-.966-5.081 11.867 11.867 0 0 0-1.953-3.69 8.976 8.976 0 0 0-6.025-3.263c-1.37-.126-2.754-.126-4.175-.184v.425c0 8.07.003 16.142.009 24.215a.802.802 0 0 1-.454.809c-1.703.97-3.406 1.96-5.1 2.943-.216.126-.426.27-.634.404H.114v-.008zm163.395-.471v-.338c0-4.301.013-8.6-.009-12.901a7.024 7.024 0 0 0-.593-2.953 2.43 2.43 0 0 0-2.152-1.524 2.825 2.825 0 0 0-3.024 2.4 9.625 9.625 0 0 0-.301 2.507c.009 4.147.009 8.292 0 12.437v.359h-5.656V16.734a.463.463 0 0 0-.251-.446c-.764-.503-1.514-1.033-2.27-1.56-.216-.142-.203-.293.026-.426 1.569-.908 3.137-1.817 4.706-2.727 1.06-.612 2.128-1.218 3.2-1.825.062-.036.13-.058.228-.104v3.932c.257-.467.49-.962.778-1.406a4.742 4.742 0 0 1 2.256-1.748 7.14 7.14 0 0 1 2.35-.481 6.495 6.495 0 0 1 3.285.567 5.195 5.195 0 0 1 2.718 3.465c.023.119.064.233.12.338.042-.166.073-.342.122-.504a5.318 5.318 0 0 1 1.478-2.422 5.496 5.496 0 0 1 2.746-1.312 8.667 8.667 0 0 1 1.667-.166c.96-.017 1.911.179 2.786.574a4.982 4.982 0 0 1 2.453 2.696c.368.893.567 1.847.585 2.813.022 1.582.05 3.168.058 4.75.008 2.799 0 5.598 0 8.392v.36h-5.658v-.324c0-4.376.019-8.754-.012-13.134a5.676 5.676 0 0 0-.852-3.186 2.329 2.329 0 0 0-1.986-1.06 2.534 2.534 0 0 0-2.139.863 3.777 3.777 0 0 0-.851 1.977 17.012 17.012 0 0 0-.176 2.242c-.019 4.09-.009 8.177-.009 12.267v.369h-5.623zm-51.712 0V3.513a.404.404 0 0 1 .239-.413c1.213-.692 2.412-1.401 3.62-2.107.505-.296 1.013-.589 1.52-.88.088-.045.18-.082.273-.113v13.538l.058.009c.077-.184.153-.373.234-.558a4.884 4.884 0 0 1 2.327-2.395 5.577 5.577 0 0 1 2-.585c.413-.062.83-.098 1.248-.107a6.069 6.069 0 0 1 3.483 1.024 5.086 5.086 0 0 1 1.756 2.346c.286.729.46 1.497.517 2.279.018.283.054.567.054.85v13.086h-5.6v-.324c0-4.257.023-8.524-.014-12.784a6.597 6.597 0 0 0-.728-3.313 2.384 2.384 0 0 0-2.071-1.277 2.583 2.583 0 0 0-2.435 1.19 4.932 4.932 0 0 0-.701 2.04 26.895 26.895 0 0 0-.108 3.991c-.013 3.374 0 6.754 0 10.129v.364l-5.672.005zm-20.05 0V16.72a.417.417 0 0 0-.189-.4c-.777-.517-1.545-1.052-2.314-1.578-.224-.154-.224-.284.013-.419a163.04 163.04 0 0 1 2.103-1.227c.935-.535 1.868-1.066 2.804-1.6.966-.553 1.928-1.113 2.889-1.671.093-.054.193-.108.332-.189v3.905c.265-.467.503-.935.79-1.366a4.881 4.881 0 0 1 3.109-2.018 8.335 8.335 0 0 1 1.972-.23 5.99 5.99 0 0 1 3.25.852 5.392 5.392 0 0 1 2.27 3.397c.206.839.306 1.7.297 2.565-.009 4.147-.009 8.293 0 12.437v.328h-5.587v-.328c0-4.257.019-8.523-.014-12.783a7.115 7.115 0 0 0-.682-3.217 2.546 2.546 0 0 0-2.813-1.335 2.873 2.873 0 0 0-2.27 2.318 8.82 8.82 0 0 0-.301 2.566c.008 4.139.008 8.275 0 12.41v.37h-5.659z" fill="#020203" fill-rule="nonzero"/>
</svg>
