<svg width="17" height="17" viewBox="0 0 17 17" fill="none" xmlns="http://www.w3.org/2000/svg">
<path d="M6.82671 0.617188C10.2498 0.617188 13.0211 3.49964 13.0211 7.05088C13.0211 8.63928 12.4667 10.0939 11.5475 11.2166L15.9253 15.6907C16.1228 15.8925 16.1229 16.2197 15.9255 16.4216C15.728 16.6235 15.4078 16.6236 15.2103 16.4217L10.8374 11.9542C9.75696 12.9085 8.35696 13.4846 6.82671 13.4846C3.40366 13.4846 0.632324 10.6021 0.632324 7.05088C0.632324 3.49964 3.40366 0.617188 6.82671 0.617188ZM6.82671 1.65093C3.96618 1.65093 1.64365 4.06658 1.64365 7.05088C1.64365 10.0352 3.96618 12.4508 6.82671 12.4508C8.23853 12.4508 9.51929 11.8624 10.4545 10.9076L10.4891 10.8667C10.4994 10.8562 10.5099 10.8463 10.5208 10.8369C11.4418 9.86347 12.0098 8.52672 12.0098 7.05088C12.0098 4.06658 9.68725 1.65093 6.82671 1.65093Z" fill="black"/>
</svg>
