<?xml version="1.0" encoding="utf-8"?>
<!-- Generator: Adobe Illustrator 19.0.1, SVG Export Plug-In . SVG Version: 6.00 Build 0)  -->
<svg version="1.1" id="Layer_1" xmlns="http://www.w3.org/2000/svg" xmlns:xlink="http://www.w3.org/1999/xlink" x="0px" y="0px"
	 viewBox="0 0 300 300" style="enable-background:new 0 0 300 300;" xml:space="preserve">
<style type="text/css">
	.st0{fill:#BD234D;}
</style>
<path class="st0" d="M232.3,8H67.7C36.5,8,11,33,11,64.2v170.7C11,266,36.5,292,67.7,292H157V181h-37v-43h37v-31.9
	c0-37.1,23.1-57.3,56.1-57.3c15.8,0,29.9,1.2,33.9,1.7v38.7h-23.2c-18,0-21.8,8.5-21.8,21.1V138h43l-5.6,43H202v111h30.3
	c31.2,0,56.7-26,56.7-57.2V64.2C289,33,263.5,8,232.3,8z"/>
</svg>
