<?xml version="1.0" encoding="utf-8"?>
<!-- Generator: Adobe Illustrator 19.0.1, SVG Export Plug-In . SVG Version: 6.00 Build 0)  -->
<svg version="1.1" id="Layer_1" xmlns="http://www.w3.org/2000/svg" xmlns:xlink="http://www.w3.org/1999/xlink" x="0px" y="0px"
	 viewBox="0 0 300 300" style="enable-background:new 0 0 300 300;" xml:space="preserve">
<style type="text/css">
	.st0{fill:#BD234D;}
</style>
<g>
	<path class="st0" d="M236.6,84.5c-2-5.2-4.4-8.9-8.3-12.8c-3.9-3.9-7.6-6.3-12.8-8.3c-3.9-1.5-9.8-3.3-20.6-3.8
		C183.2,59.1,179.7,59,150,59s-33.2,0.1-44.9,0.6c-10.8,0.5-16.7,2.3-20.6,3.8c-5.2,2-8.9,4.4-12.8,8.3s-6.3,7.6-8.3,12.8
		c-1.5,3.9-3.3,9.8-3.8,20.6C59.1,116.8,59,120.3,59,150s0.1,33.2,0.6,44.9c0.5,10.8,2.3,16.7,3.8,20.6c2,5.2,4.4,8.9,8.3,12.8
		c3.9,3.9,7.6,6.3,12.8,8.3c3.9,1.5,9.8,3.3,20.6,3.8c11.7,0.5,15.2,0.6,44.9,0.6s33.2-0.1,44.9-0.6c10.8-0.5,16.7-2.3,20.6-3.8
		c5.2-2,8.9-4.4,12.8-8.3c3.9-3.9,6.3-7.6,8.3-12.8c1.5-3.9,3.3-9.8,3.8-20.6c0.5-11.7,0.6-15.2,0.6-44.9s-0.1-33.2-0.6-44.9
		C239.9,94.3,238.1,88.4,236.6,84.5z M150,207c-31.5,0-57-25.5-57-57s25.5-57,57-57s57,25.5,57,57S181.5,207,150,207z M209.3,104
		c-7.4,0-13.3-6-13.3-13.3s6-13.3,13.3-13.3s13.3,6,13.3,13.3S216.7,104,209.3,104z"/>
	<path class="st0" d="M232.3,8H67.7C36.5,8,11,33.5,11,64.7v170.7c0,31.2,25.5,56.7,56.7,56.7h164.7c31.2,0,56.7-25.5,56.7-56.7
		V64.7C289,33.5,263.5,8,232.3,8z M260.4,195.8c-0.5,11.8-2.4,19.9-5.2,27c-2.8,7.3-6.6,13.5-12.8,19.7s-12.4,10-19.7,12.8
		c-7.1,2.7-15.1,4.6-27,5.2c-11.8,0.5-15.6,0.7-45.8,0.7s-34-0.1-45.8-0.7c-11.8-0.5-19.9-2.4-27-5.2c-7.3-2.8-13.5-6.6-19.7-12.8
		s-10-12.4-12.8-19.7c-2.7-7.1-4.6-15.1-5.2-27C39,184,38.9,180.2,38.9,150s0.1-34,0.7-45.8c0.5-11.8,2.4-19.9,5.2-27
		c2.8-7.3,6.6-13.5,12.8-19.7s12.4-10,19.7-12.8c7.1-2.7,15.1-4.6,27-5.2c11.8-0.5,15.6-0.7,45.8-0.7s34,0.1,45.8,0.7
		c11.8,0.5,19.9,2.4,27,5.2c7.3,2.8,13.5,6.6,19.7,12.8s10,12.4,12.8,19.7c2.7,7.1,4.6,15.1,5.2,27c0.5,11.8,0.7,15.6,0.7,45.8
		S261,184,260.4,195.8z"/>
	<circle class="st0" cx="150" cy="150" r="37"/>
</g>
</svg>
