<?xml version="1.0" encoding="utf-8"?>
<!-- Generator: Adobe Illustrator 19.0.1, SVG Export Plug-In . SVG Version: 6.00 Build 0)  -->
<svg version="1.1" id="Layer_1" xmlns="http://www.w3.org/2000/svg" xmlns:xlink="http://www.w3.org/1999/xlink" x="0px" y="0px"
	 viewBox="0 0 300 300" style="enable-background:new 0 0 300 300;" xml:space="preserve">
<style type="text/css">
	.st0{fill:#BD234D;}
</style>
<path class="st0" d="M232.3,8H67.7C36.5,8,11,33.5,11,64.7v170.7c0,31.1,25.5,56.6,56.7,56.6h164.7c31.2,0,56.7-25.5,56.7-56.7V64.7
	C289,33.5,263.5,8,232.3,8z M230.1,117.2c0.1,1.5,0.1,3,0.1,4.5c0,46.2-35.2,99.5-99.5,99.5c-19.7,0-38.1-5.8-53.6-15.7
	c2.7,0.3,5.5,0.5,8.3,0.5c16.4,0,31.5-5.6,43.4-15c-15.3-0.3-28.2-10.4-32.7-24.3c2.1,0.4,4.3,0.6,6.6,0.6c3.2,0,6.3-0.4,9.2-1.2
	c-16-3.2-28-17.3-28-34.3c0-0.1,0-0.3,0-0.4c4.7,2.6,10.1,4.2,15.8,4.4c-9.4-6.3-15.6-17-15.6-29.1c0-6.4,1.7-12.4,4.7-17.6
	c17.2,21.2,43,35.1,72.1,36.5c-0.6-2.6-0.9-5.2-0.9-8c0-19.3,15.7-35,35-35c10.1,0,19.1,4.2,25.5,11c8-1.6,15.4-4.5,22.2-8.5
	c-2.6,8.2-8.2,15-15.4,19.3c7.1-0.8,13.8-2.7,20.1-5.5C242.8,106.2,236.9,112.3,230.1,117.2z"/>
</svg>
