<?xml version="1.0" encoding="utf-8"?>
<!-- Generator: Adobe Illustrator 19.0.1, SVG Export Plug-In . SVG Version: 6.00 Build 0)  -->
<svg version="1.1" id="Layer_1" xmlns="http://www.w3.org/2000/svg" xmlns:xlink="http://www.w3.org/1999/xlink" x="0px" y="0px"
	 viewBox="0 0 300 300" style="enable-background:new 0 0 300 300;" xml:space="preserve">
<style type="text/css">
	.st0{fill:#BD234D;}
	.st1{fill:#FFFFFF;}
</style>
<path class="st0" d="M232.3,292H67.7C36.5,292,11,266.5,11,235.3V64.7C11,33.5,36.5,8,67.7,8h164.7C263.5,8,289,33.5,289,64.7v170.7
	C289,266.5,263.5,292,232.3,292z"/>
<g id="Lozenge">
	<g>
		<path class="st1" d="M254.4,107.4c0,0-2.1-14.7-8.5-21.1c-8.1-8.5-17.2-8.5-21.3-9c-29.8-2.2-74.5-2.2-74.5-2.2H150
			c0,0-44.7,0-74.5,2.2c-4.2,0.5-13.2,0.5-21.3,9c-6.4,6.5-8.5,21.1-8.5,21.1s-2.1,17.2-2.1,34.5V158c0,17.2,2.1,34.5,2.1,34.5
			s2.1,14.7,8.5,21.1c8.1,8.5,18.7,8.2,23.5,9.1c17,1.6,72.4,2.1,72.4,2.1s44.8-0.1,74.6-2.2c4.2-0.5,13.2-0.5,21.3-9
			c6.4-6.5,8.5-21.1,8.5-21.1s2.1-17.2,2.1-34.5v-16.2C256.5,124.6,254.4,107.4,254.4,107.4z M128,177.6v-59.8l57.6,30L128,177.6z"
			/>
	</g>
</g>
</svg>
