<?xml version="1.0" encoding="utf-8"?>
<!-- Generator: Adobe Illustrator 22.1.0, SVG Export Plug-In . SVG Version: 6.00 Build 0)  -->
<svg version="1.1" id="Layer_1" xmlns="http://www.w3.org/2000/svg" xmlns:xlink="http://www.w3.org/1999/xlink" x="0px" y="0px"
	 viewBox="0 0 340 115.8" style="enable-background:new 0 0 340 115.8;" xml:space="preserve">
<style type="text/css">
	.st0{fill:#FFFFFF;}
</style>
<g>
	<g>
		<path class="st0" d="M117,104.1c-1.5,0-2.8-1.2-2.8-2.8v-8h4.7V82.1h-4.7L114.2,71h-12.3l0,11.1h-5v11.1h5V109
			c0,3.4,2.8,6.2,6.2,6.2h13.2v-11.2H117z"/>
		<path class="st0" d="M158.2,101.3V67.9h-12.4V109c0,3.4,2.8,6.2,6.2,6.2h18.1v-11.2H161C159.5,104.1,158.2,102.8,158.2,101.3"/>
		<path class="st0" d="M322.5,81.2c-3.4,0-6.2,2.8-6.2,6.2v27.8h12.4V95.1c0-1.5,1.2-2.8,2.8-2.8h6.6V81.2H322.5z"/>
		<path class="st0" d="M14.7,79.2h9.2V68.1H5.7c-3.4,0-6.2,2.8-6.2,6.2v41h12.4V98.4h6.6V87.3h-6.6V82
			C11.9,80.4,13.2,79.2,14.7,79.2"/>
		<path class="st0" d="M39,103.3c2.8,0,5-2.3,5-5c0-2.8-2.3-5-5-5c-2.8,0-5,2.2-5,5C33.9,101,36.2,103.3,39,103.3 M21.6,98.3
			c0-9.6,7.8-17.4,17.4-17.4c9.6,0,17.4,7.8,17.4,17.4c0,9.6-7.8,17.4-17.4,17.4C29.4,115.7,21.6,107.9,21.6,98.3"/>
		<path class="st0" d="M77.1,103.3c2.8,0,5-2.3,5-5c0-2.8-2.2-5-5-5c-2.8,0-5,2.2-5,5C72.1,101,74.4,103.3,77.1,103.3 M59.7,98.3
			c0-9.6,7.8-17.4,17.4-17.4c9.6,0,17.4,7.8,17.4,17.4c0,9.6-7.8,17.4-17.4,17.4C67.5,115.7,59.7,107.9,59.7,98.3"/>
		<path class="st0" d="M190.3,103.3c2.8,0,5-2.3,5-5c0-2.8-2.2-5-5-5c-2.8,0-5,2.2-5,5C185.3,101,187.5,103.3,190.3,103.3
			 M172.9,98.3c0-9.6,7.8-17.4,17.4-17.4c9.6,0,17.4,7.8,17.4,17.4c0,9.6-7.8,17.4-17.4,17.4C180.7,115.7,172.9,107.9,172.9,98.3"/>
		<path class="st0" d="M233.1,101c-0.9,1.4-2.5,2.3-4.2,2.3c-2.8,0-5-2.3-5-5c0-2.8,2.3-5,5-5c1.8,0,3.3,0.9,4.2,2.3l10.4-6.7
			c-3.1-4.8-8.5-8-14.7-8c-9.6,0-17.4,7.8-17.4,17.4c0,9.6,7.8,17.4,17.4,17.4c6.2,0,11.6-3.2,14.7-8L233.1,101z"/>
		<path class="st0" d="M336.2,111.6c0.4,0,1.2,0.1,1.2-0.5c0-0.4-0.5-0.4-0.8-0.4h-0.9v0.9H336.2z M337.8,113.7h-0.6l-1-1.6h-0.6
			v1.6h-0.5v-3.5h1.5c0.6,0,1.2,0.2,1.2,0.9c0,0.7-0.5,0.9-1.1,1L337.8,113.7z M339,112c0-1.5-1.2-2.7-2.7-2.7
			c-1.5,0-2.7,1.2-2.7,2.7c0,1.5,1.2,2.7,2.7,2.7C337.8,114.7,339,113.5,339,112 M333.1,112c0-1.8,1.4-3.2,3.2-3.2
			c1.8,0,3.2,1.4,3.2,3.2c0,1.8-1.4,3.2-3.2,3.2C334.6,115.2,333.1,113.8,333.1,112"/>
		<polygon class="st0" points="281.5,115.2 266.9,97.5 278.5,83.4 265.2,83.4 258.8,91.1 258.8,67.9 246.5,67.9 246.5,115.2 
			258.8,115.2 258.8,105.1 259.7,106.1 267.2,115.2 		"/>
		<path class="st0" d="M290.1,96.6c0.6-1.7,1.5-3,3.9-3.8c2.4-0.8,4.8,0.5,5.8,1.6L290.1,96.6z M299,102.8L299,102.8
			c-1.5,1.1-3.5,1.5-5.4,0.8c-1.1-0.4-1.9-1.1-2.6-1.9l22-4.9c-0.1-2-1.2-6-3.6-9.2c-2.4-3.2-7.1-6.4-12.7-6.8
			c-6.7-0.4-12.1,2.7-15.3,7.2c-2.4,3.4-3.3,6.9-3.3,10.3c0,9.7,7.8,17.5,17.5,17.5c4,0,7.7-1.3,10.6-3.6c0,0,0,0,0,0
			c1.6-1.2,3-2.8,4.1-4.5l-9.9-6.3C300,101.9,299.5,102.4,299,102.8"/>
	</g>
	<g>
		<path class="st0" d="M146.3,34.1V0.6h12.4v41.2c0,3.4-2.8,6.2-6.2,6.2H123V36.8h20.5C145,36.8,146.3,35.6,146.3,34.1"/>
		<path class="st0" d="M279,35.6c2.8,0,5-2.3,5-5c0-2.8-2.2-5-5-5c-2.8,0-5,2.3-5,5C274,33.4,276.2,35.6,279,35.6 M261.6,30.6
			c0-9.6,7.8-17.4,17.4-17.4c9.6,0,17.4,7.8,17.4,17.4c0,9.6-7.8,17.4-17.4,17.4C269.4,48,261.6,40.2,261.6,30.6"/>
		<path class="st0" d="M113.1,35.6c2.8,0,5-2.3,5-5c0-2.8-2.2-5-5-5c-2.8,0-5,2.3-5,5C108.1,33.4,110.3,35.6,113.1,35.6 M95.7,30.6
			c0-9.6,7.8-17.4,17.4-17.4c9.6,0,17.4,7.8,17.4,17.4c0,9.6-7.8,17.4-17.4,17.4C103.5,48,95.7,40.2,95.7,30.6"/>
		<polygon class="st0" points="296.5,37.7 281.4,37.7 269.6,64.1 281.8,64.1 		"/>
		<polygon class="st0" points="130.5,37.7 115.5,37.7 103.7,64.1 115.9,64.1 		"/>
		<path class="st0" d="M87.9,39.7l-0.4-22.1H54.5l12-17.3l-14.3,0L40.4,17.7l0.2,11.1h34l0.2,4.2l-0.1,2c-0.4,1.5-1.2,1.8-3.6,1.8
			H19.7L19.2,48h61C88.8,48,87.6,47.9,87.9,39.7"/>
		<path class="st0" d="M337.3,30.5c0-9.6-7.8-17.3-17.4-17.3c-9.6,0-17.4,7.8-17.4,17.4c0,2.2,0.4,4.3,1.2,6.2H284V48h53.3
			L337.3,30.5L337.3,30.5z M319.9,25.6c2.8,0,5,2.3,5,5c0,2.8-2.2,5-5,5c-2.8,0-5-2.3-5-5C314.9,27.8,317.1,25.6,319.9,25.6"/>
		<rect x="315.6" y="-0.1" class="st0" width="8.8" height="9.6"/>
		<path class="st0" d="M15,61.6c3.4,0,6.2-2.8,6.2-6.2V27.6H8.8v20.1c0,1.5-1.2,2.8-2.8,2.8h-6.6v11.1H15z"/>
		<rect x="206.6" y="12.4" class="st0" width="8.8" height="9.6"/>
		<rect x="220" y="12.4" class="st0" width="8.8" height="9.6"/>
		<path class="st0" d="M241.9,33.2c0,3.1-0.1,3.2-3.2,3.2h-42c-3.1,0-3.2-0.1-3.2-3.2V19.8h-12.3v24.9c0,1.8,1.4,3.2,3.2,3.2H251
			c1.8,0,3.2-1.5,3.2-3.2V19.8h-12.3V33.2z"/>
	</g>
</g>
</svg>
