<?xml version="1.0" encoding="utf-8"?>
<!-- Generator: Adobe Illustrator 22.1.0, SVG Export Plug-In . SVG Version: 6.00 Build 0)  -->
<svg version="1.1" id="Layer_1" xmlns="http://www.w3.org/2000/svg" xmlns:xlink="http://www.w3.org/1999/xlink" x="0px" y="0px"
	 viewBox="0 0 423.1 58.3" style="enable-background:new 0 0 423.1 58.3;" xml:space="preserve">
<style type="text/css">
	.st0{clip-path:url(#SVGID_2_);}
	.st1{clip-path:url(#SVGID_4_);fill:#FFFFFF;}
	.st2{clip-path:url(#SVGID_6_);}
	.st3{clip-path:url(#SVGID_8_);fill:#FFFFFF;}
	.st4{clip-path:url(#SVGID_10_);}
	.st5{clip-path:url(#SVGID_12_);fill:#FFFFFF;}
	.st6{clip-path:url(#SVGID_14_);}
	.st7{clip-path:url(#SVGID_16_);fill:#FFFFFF;}
	.st8{clip-path:url(#SVGID_18_);}
	.st9{clip-path:url(#SVGID_20_);fill:#FFFFFF;}
	.st10{clip-path:url(#SVGID_22_);}
	.st11{clip-path:url(#SVGID_24_);fill:#FFFFFF;}
	.st12{clip-path:url(#SVGID_26_);}
	.st13{clip-path:url(#SVGID_28_);fill:#FFFFFF;}
	.st14{clip-path:url(#SVGID_30_);}
	.st15{clip-path:url(#SVGID_32_);fill:#FFFFFF;}
	.st16{clip-path:url(#SVGID_34_);}
	.st17{clip-path:url(#SVGID_36_);enable-background:new    ;}
	.st18{clip-path:url(#SVGID_38_);}
	.st19{clip-path:url(#SVGID_40_);}
	.st20{clip-path:url(#SVGID_42_);fill:#FFFFFF;}
	.st21{clip-path:url(#SVGID_44_);}
	.st22{clip-path:url(#SVGID_46_);fill:#FFFFFF;}
	.st23{clip-path:url(#SVGID_48_);}
	.st24{clip-path:url(#SVGID_50_);fill:#FFFFFF;}
</style>
<g>
	<g>
		<defs>
			<path id="SVGID_1_" d="M147.2,41.6c-1.9,0-3.5-1.5-3.5-3.5V28h5.9V14h-5.9l-0.1-13.9h-15.5l0,13.9h-6.2v14h6.2v19.8
				c0,4.3,3.5,7.8,7.8,7.8h16.6v-14H147.2z"/>
		</defs>
		<clipPath id="SVGID_2_">
			<use xlink:href="#SVGID_1_"  style="overflow:visible;"/>
		</clipPath>
		<g class="st0">
			<defs>
				<rect id="SVGID_3_" x="-6" y="-36" width="432" height="97.9"/>
			</defs>
			<clipPath id="SVGID_4_">
				<use xlink:href="#SVGID_3_"  style="overflow:visible;"/>
			</clipPath>
			<rect x="112.5" y="-9.3" class="st1" width="49.4" height="74.3"/>
		</g>
	</g>
	<g>
		<defs>
			<path id="SVGID_5_" d="M195.9,39.3V0.1h-15.6v48.2c0,4,3.5,7.3,7.8,7.3h22.8V42.5h-11.5C197.5,42.5,195.9,41.1,195.9,39.3"/>
		</defs>
		<clipPath id="SVGID_6_">
			<use xlink:href="#SVGID_5_"  style="overflow:visible;"/>
		</clipPath>
		<g class="st2">
			<defs>
				<rect id="SVGID_7_" x="-6" y="-36" width="432" height="97.9"/>
			</defs>
			<clipPath id="SVGID_8_">
				<use xlink:href="#SVGID_7_"  style="overflow:visible;"/>
			</clipPath>
			<rect x="170.9" y="-9.3" class="st3" width="49.4" height="74.3"/>
		</g>
	</g>
	<g>
		<defs>
			<path id="SVGID_9_" d="M402.3,14c-4.4,0-7.9,3.4-7.9,7.6v34h15.9V30.9c0-1.9,1.6-3.4,3.5-3.4h8.4V14H402.3z"/>
		</defs>
		<clipPath id="SVGID_10_">
			<use xlink:href="#SVGID_9_"  style="overflow:visible;"/>
		</clipPath>
		<g class="st4">
			<defs>
				<rect id="SVGID_11_" x="-6" y="-36" width="432" height="97.9"/>
			</defs>
			<clipPath id="SVGID_12_">
				<use xlink:href="#SVGID_11_"  style="overflow:visible;"/>
			</clipPath>
			<rect x="385" y="4.6" class="st5" width="46.6" height="60.4"/>
		</g>
	</g>
	<g>
		<defs>
			<path id="SVGID_13_" d="M18.7,13.2h11.5V0.1H7.4c-4.3,0-7.8,3.3-7.8,7.3v48.2h15.6V35.8h8.3V22.7h-8.3v-6.3
				C15.2,14.6,16.7,13.2,18.7,13.2"/>
		</defs>
		<clipPath id="SVGID_14_">
			<use xlink:href="#SVGID_13_"  style="overflow:visible;"/>
		</clipPath>
		<g class="st6">
			<defs>
				<rect id="SVGID_15_" x="-6" y="-36" width="432" height="97.9"/>
			</defs>
			<clipPath id="SVGID_16_">
				<use xlink:href="#SVGID_15_"  style="overflow:visible;"/>
			</clipPath>
			<rect x="-9.8" y="-9.3" class="st7" width="49.4" height="74.3"/>
		</g>
	</g>
	<g>
		<defs>
			<path id="SVGID_17_" d="M27.4,37.5c0-11.5,9.3-20.8,20.9-20.8S69.1,26,69.1,37.5c0,11.5-9.3,20.8-20.9,20.8S27.4,49,27.4,37.5
				 M48.3,43.6c3.3,0,6-2.7,6-6c0-3.3-2.7-6-6-6s-6,2.7-6,6C42.2,40.9,44.9,43.6,48.3,43.6"/>
		</defs>
		<clipPath id="SVGID_18_">
			<use xlink:href="#SVGID_17_"  style="overflow:visible;"/>
		</clipPath>
		<g class="st8">
			<defs>
				<rect id="SVGID_19_" x="-6" y="-36" width="432" height="97.9"/>
			</defs>
			<clipPath id="SVGID_20_">
				<use xlink:href="#SVGID_19_"  style="overflow:visible;"/>
			</clipPath>
			<rect x="18" y="7.3" class="st9" width="60.5" height="60.4"/>
		</g>
	</g>
	<g>
		<defs>
			<path id="SVGID_21_" d="M74.7,37.5c0-11.5,9.3-20.8,20.9-20.8c11.5,0,20.9,9.3,20.9,20.8c0,11.5-9.3,20.8-20.9,20.8
				C84,58.4,74.7,49,74.7,37.5 M95.5,43.6c3.3,0,6-2.7,6-6c0-3.3-2.7-6-6-6c-3.3,0-6,2.7-6,6C89.5,40.9,92.2,43.6,95.5,43.6"/>
		</defs>
		<clipPath id="SVGID_22_">
			<use xlink:href="#SVGID_21_"  style="overflow:visible;"/>
		</clipPath>
		<g class="st10">
			<defs>
				<rect id="SVGID_23_" x="-6" y="-36" width="432" height="97.9"/>
			</defs>
			<clipPath id="SVGID_24_">
				<use xlink:href="#SVGID_23_"  style="overflow:visible;"/>
			</clipPath>
			<rect x="65.3" y="7.3" class="st11" width="60.5" height="60.4"/>
		</g>
	</g>
	<g>
		<defs>
			<path id="SVGID_25_" d="M216.5,37.5c0-11.5,9.3-20.8,20.9-20.8c11.5,0,20.9,9.3,20.9,20.8c0,11.5-9.3,20.8-20.9,20.8
				C225.8,58.4,216.5,49,216.5,37.5 M237.3,43.6c3.3,0,6-2.7,6-6c0-3.3-2.7-6-6-6s-6,2.7-6,6C231.3,40.9,234,43.6,237.3,43.6"/>
		</defs>
		<clipPath id="SVGID_26_">
			<use xlink:href="#SVGID_25_"  style="overflow:visible;"/>
		</clipPath>
		<g class="st12">
			<defs>
				<rect id="SVGID_27_" x="-6" y="-36" width="432" height="97.9"/>
			</defs>
			<clipPath id="SVGID_28_">
				<use xlink:href="#SVGID_27_"  style="overflow:visible;"/>
			</clipPath>
			<rect x="207.1" y="7.3" class="st13" width="60.5" height="60.4"/>
		</g>
	</g>
	<g>
		<defs>
			<path id="SVGID_29_" d="M290,40.8c-1.1,1.7-3,2.8-5.1,2.8c-3.4,0-6.1-2.7-6.1-6c0-3.3,2.7-6,6.1-6c2.2,0,4.1,1.1,5.1,2.8l12.7-8
				c-3.7-5.8-10.3-9.6-17.8-9.6c-11.7,0-21.1,9.3-21.1,20.8s9.5,20.8,21.1,20.8c7.5,0,14-3.8,17.8-9.6L290,40.8z"/>
		</defs>
		<clipPath id="SVGID_30_">
			<use xlink:href="#SVGID_29_"  style="overflow:visible;"/>
		</clipPath>
		<g class="st14">
			<defs>
				<rect id="SVGID_31_" x="-6" y="-36" width="432" height="97.9"/>
			</defs>
			<clipPath id="SVGID_32_">
				<use xlink:href="#SVGID_31_"  style="overflow:visible;"/>
			</clipPath>
			<rect x="254.3" y="7.3" class="st15" width="57.7" height="60.4"/>
		</g>
	</g>
	<g>
		<defs>
			<rect id="SVGID_33_" x="415.7" y="50.9" width="7.1" height="7"/>
		</defs>
		<clipPath id="SVGID_34_">
			<use xlink:href="#SVGID_33_"  style="overflow:visible;"/>
		</clipPath>
		<g class="st16">
			<defs>
				<rect id="SVGID_35_" x="-6" y="-36" width="432" height="97.9"/>
			</defs>
			<clipPath id="SVGID_36_">
				<use xlink:href="#SVGID_35_"  style="overflow:visible;"/>
			</clipPath>
			<g class="st17">
				<g>
					<defs>
						<rect id="SVGID_37_" x="414.8" y="50.4" width="9.4" height="9.4"/>
					</defs>
					<clipPath id="SVGID_38_">
						<use xlink:href="#SVGID_37_"  style="overflow:visible;"/>
					</clipPath>
					<g class="st18">
						<defs>
							<path id="SVGID_39_" d="M415.7,54.5c0-2,1.6-3.5,3.6-3.5c2,0,3.5,1.6,3.5,3.5c0,2-1.6,3.5-3.5,3.5
								C417.2,58,415.7,56.4,415.7,54.5z M422.2,54.5c0-1.7-1.4-3-3-3c-1.6,0-3,1.3-3,3c0,1.7,1.4,3,3,3
								C420.8,57.4,422.2,56.1,422.2,54.5z M420.9,56.4h-0.7l-1.2-1.8h-0.7v1.8h-0.5v-3.9h1.7c0.7,0,1.4,0.2,1.4,1
								c0,0.8-0.5,1-1.2,1.1L420.9,56.4z M419.1,54.1c0.5,0,1.3,0.1,1.3-0.5c0-0.4-0.5-0.5-0.9-0.5h-1v1H419.1z"/>
						</defs>
						<clipPath id="SVGID_40_">
							<use xlink:href="#SVGID_39_"  style="overflow:visible;"/>
						</clipPath>
						<g class="st19">
							<defs>
								<rect id="SVGID_41_" x="414.8" y="50.4" width="9.4" height="9.4"/>
							</defs>
							<clipPath id="SVGID_42_">
								<use xlink:href="#SVGID_41_"  style="overflow:visible;"/>
							</clipPath>
							<rect x="406.3" y="41.6" class="st20" width="25.9" height="25.8"/>
						</g>
					</g>
				</g>
			</g>
		</g>
	</g>
	<g>
		<defs>
			<polygon id="SVGID_43_" points="349.9,55.6 332.5,34.7 346.3,18.3 330.5,18.3 322.9,27.3 322.9,0.1 308.2,0.1 308.2,55.6 
				322.9,55.6 322.9,43.7 324,44.9 332.9,55.6 			"/>
		</defs>
		<clipPath id="SVGID_44_">
			<use xlink:href="#SVGID_43_"  style="overflow:visible;"/>
		</clipPath>
		<g class="st21">
			<defs>
				<rect id="SVGID_45_" x="-6" y="-36" width="432" height="97.9"/>
			</defs>
			<clipPath id="SVGID_46_">
				<use xlink:href="#SVGID_45_"  style="overflow:visible;"/>
			</clipPath>
			<rect x="298.8" y="-9.3" class="st22" width="60.5" height="74.3"/>
		</g>
	</g>
	<g>
		<defs>
			<path id="SVGID_47_" d="M372.1,42.9L372.1,42.9c-1.8,1.3-4.2,1.8-6.5,1c-1.3-0.5-2.3-1.3-3.1-2.3l26.2-5.8
				c-0.1-2.4-1.5-7.2-4.3-11c-2.8-3.8-8.5-7.6-15.2-8c-8-0.5-14.5,3.2-18.3,8.5c-2.9,4-4,8.2-4,12.2c0,11.5,9.3,20.8,20.9,20.8
				c4.7,0,9.1-1.6,12.6-4.3c0,0,0,0,0,0c1.9-1.5,3.6-3.3,4.9-5.3l-11.8-7.5C373.3,41.9,372.8,42.4,372.1,42.9z M361.5,35.6
				c0.7-2,1.8-3.6,4.6-4.5c2.8-0.9,5.7,0.5,7,2L361.5,35.6z"/>
		</defs>
		<clipPath id="SVGID_48_">
			<use xlink:href="#SVGID_47_"  style="overflow:visible;"/>
		</clipPath>
		<g class="st23">
			<defs>
				<rect id="SVGID_49_" x="-6" y="-36" width="432" height="97.9"/>
			</defs>
			<clipPath id="SVGID_50_">
				<use xlink:href="#SVGID_49_"  style="overflow:visible;"/>
			</clipPath>
			<rect x="337.7" y="7.3" class="st24" width="60.5" height="60.4"/>
		</g>
	</g>
</g>
</svg>
