<svg xmlns="http://www.w3.org/2000/svg" xmlns:xlink="http://www.w3.org/1999/xlink" width="152" height="37" viewBox="0 0 152 37">
    <defs>
        <path id="a" d="M0 44.619h154.922V.336H0z"/>
        <path id="c" d="M21.42.635c-.372.092-1.37.114-1.37.114-.23 0-.355.1-.488.206l-.763.612-.993.53-.247.132c-.028.014-.162.297-.162.297-.344.729-.921 1.004-.921 1.004l-.18.208-.096.11-.685 1.959c-.01.03 1.249 4.68 1.249 4.68l1.31 1.893c.008.009.073.064.15.13l-.942.759c-1.41.306-3.534.5-3.627.51l-.039.003h.045l-.063.002.018-.002a.684.684 0 0 0-.308.096l-4.837 2.51c-.367.19-4.724 2.814-4.724 2.814-.029.02-2.542 1.874-2.542 1.874-.016.013-.839 1.436-.839 1.436-.012.022-.072 2.233-.072 2.233 0 .024 1.383 2.793 1.383 2.793l2.27 2.298c.008.009 7.346 4.477 8.28 5.046l.15.19-.715 2.006H30.81l.065-.824.856-.236c.022-.007 9.615-5.78 9.615-5.78l3.185-3.24c.035-.035-.278-1.749-.278-1.749-.004-.022-2.302-3.239-2.302-3.239s-1.997-1.697-2.619-2.27l-.705-.935-3.401-2.317c-.008-.004-2.773-1.256-4.055-1.862a14.111 14.111 0 0 0-2.355-.876c-.21-.06-.804-.327-.996-.412.33-.235.596-.58.635-1.12.025-.347-.116-.692-.234-.919l.481-.734c.024-.038-.17-.8-.19-.948.19-.103.606-.753.606-.753l.169-.34c.02-.038-.358-.982-.358-.982-.009-.022-.483-.411-.69-.575-.04-.831-.442-2.02-.457-2.067.055-.19.482-1.216.482-1.216.094-.2.061-.372.024-.524-.304-1.265-.446-1.636-.736-1.853L26.969.8c-.028-.024-.294-.01-.294-.01l-1.09.062c-.617-.305-1.649-.556-2.087-.599a1.073 1.073 0 0 0-.11-.005c-.597 0-1.852.356-1.969.386zm-9.961 27.842l-1.152-1.236-1.135-2.155.923-.326c.02-.01.805-.868 1.043-1.125l.518-.184v.007l.248 1.882.743 3.047-.034.888-1.154-.798zm21.539-3.698l1.874.928h.002l.733.798-3.29 3.208-.569.43 1.25-5.364z"/>
        <path id="e" d="M20.507.405c-.57.143-1.496.143-1.496.143l-.832.665-1.069.57c-.594 1.261-1.212 1.426-1.212 1.426l-.546 1.522 1.164 4.303 1.069 1.522.523.498v.904l-.285.023-1.283 1.023c-1.52.356-3.944.57-3.944.57l-4.821 2.473-4.656 2.805-2.352 1.735-.618 1.07L.1 23.414l1.211 2.425 2.092 2.116 8.314 5.061.595.715-.453 1.26h1.568c.19-.548.333-1.048.308-1.784-.022-.737-.425-1.355-.425-1.355h-1.855l-1.188-.594c-2.303-1.688-2.684-1.474-5.297-3.495-2.613-2.019-3.61-3.85-3.61-3.85l-.238-.927.071-1.093.286-.594 1.187-1.142 1.995-1.07.286.025.426.64c-.712.809-1.947 1-1.947 1l-.238.285-.023.499.57 2.068s.593 1.118.997 1.807c.405.688 4.467 3.78 4.467 3.78s1.093 1.188 1.188 1.283c.095.094.76.167.878.072 1.014-.812 1.782-.952 1.782-.952l.095-2.638-.57-3.946v-4.09l.19-2.685.594-.832c-.261 1.76-.025 2.567-.025 2.567v12.551l.525.832c.176-2.427.228-4.423.309-6.014.247-4.78.141-6.133.141-6.133l-.142-1.544.214-1.07.855-1.212c-.142 1.235-.237 1.64-.333 3.374-.095 1.736-.072 4.97-.12 6.205-.047 1.236-.379 6.727-.45 7.296-.072.572-.357 2.736-.357 2.736h1.14c.238-2.045.144-3.044.214-4.684.072-1.64.238-2.185.31-3.469.07-1.285-.048-4.114.452-8.583.184-1.654.517-2.743.664-3.257.124-.427.326-.346.309-.022-.025.427.024.903.024.903l.023 2.376-.57 7.584-.047 4.279-.333 2.234.095 2.64h1.188l.665-10.177.855-9.031.974-.38-1.258 19.587h1.686l1.26-19.207.522-.666.523.523-.904 19.35h1.45l.331-9.366 1.022.404-.19 8.962h1.496v-6.158l.393-2.65c.31.01.653-.486.653-.486l-.546 9.294h.974s.902-13.122.998-15.476c.094-2.352-.665-4.61-.665-4.61l.784.688.57 4.398-.88 12.931-.26 2.07h.902l.048-.62 1.306-.356s1.164-1.047 9.408-5.61l2.85-2.9-.19-1.046-2.14-2.996c-.924-.683-2.588-2.234-2.588-2.234l-.665-.879-3.16-2.164s-2.73-1.235-4.037-1.854c-1.308-.618-1.996-.736-2.875-1.021-.487-.158.19-.12-1.686-.667-1.307-.38-.522-.665.285-.902.807-.238.998-.405 1.02-.738.025-.332-.283-.688-.283-.688l.023-.405.45-.69c-.19-.689-.19-1.306-.19-1.306.525-.214.594-.285.594-.285l.167-.334-.143-.355-.831-.714c.047-1.166-.428-2.092-.474-2.4-.049-.31.545-1.593.545-1.593S25.923.951 25.828.905l-.356-.31-1.259.071c-.26-.237-1.472-.57-1.949-.617a1.265 1.265 0 0 0-.122-.006c-.469 0-1.111.232-1.635.362zm.674 6.441l.221-.981 1.963-1.205h1.331s.254.285.285.348c.032.064-.159.19-.159.19l-1.487.699.348.601 1.33.222.856-.19.601.54-.508.38-.442.19.442.475v.222l-.728.126-.412.476s-.031.317.033.38c.063.063.412-.031.601-.127.19-.094.38.031.349.159-.032.127-.317.158-.444.19-.127.031-.284.412-.253.507.032.095.19 0 .19 0s.19.349.253.538c.063.191-.411.286-.411.286l-1.963-.38-2.092.064-.823.507v.348l1.077.856s-.095 1.173-.095 1.49c0 .316-.537-.064-.537-.064l-2.093-1.268.065-1.267.253-.064.506-2.44-.696-.983-.063-1.078.347-.412.728-.127.953.792h.474zM6.23 17.805l2.923-1.711 3.064-1.498-.285.57-4.015 2.33-1.59.665-.097-.356zm28.531.974s-1.164-.808-1.664-1.211c-.499-.404-1.638-1.165-1.877-1.283-.237-.12-.877-.524-1.734-.667l-.07-.524 1.116.167 3.753 2.402 1.616 1.189-.263.19-.877-.263zm-10.548-3.09l.19-.023.713 1.426.048.951-.12 2.258h-1.139l.308-4.612zm-3.728.452c0-.13.106-.235.236-.235s.236.104.236.235a.236.236 0 0 1-.471 0zm5.96.238l.713-.452-.118 4.398h-.712l.118-3.946zM6.968 19.874l.023-.429.666-.643 4.276-2.303.047.403-.237.285-3.944 2.782-.475.165-.356-.26zm27.033.5l-3.23-2.213-.547-.023-.57-.427-.142-.714h.427l1.235.523 3.588 2.496-.048.31-.261.095-.452-.047zM8.178 21.489l.12-.332 2.874-2.258.76-.071.07.426-.165.31-.642.285-1.378 1.046-1.282.57-.144.262-.213-.238zm12.109-2.282c0-.147.12-.268.268-.268a.269.269 0 0 1 0 .537.268.268 0 0 1-.268-.269zm10.863 1.806l-1.164-1.925 3.61 2.259.285.475-.427.31-2.304-1.119zm-1.591 3.495l.237-2.114-.024-1.617s-.007-.452.285-.119c.166.19.213.998.213.998l-.284 2.97-.522 2.094.095-2.212zm-5.68-3.328h3.422v-.356H23.88v.356zM9.7 28.05l-1.308-1.403-1.614-3.066.19-.261 1.472-.523L9.46 21.68l1.947-.69.12.167-.072 1.211.239 1.666.759 3.113-.07 1.83-.429.19h-.64L9.7 28.051zm19.48 2.948l1.662-.214 2.708-2.21 3.278-3.234-1.996-2.02 1.26-1.83.547.022 2.541 3.304-.118.668-4.062 3.755-5.868 3.28.047-1.52zm-5.3-9.141h3.422v-.293H23.88v.293zm5.988 6.36l1.021-4.66.049-1.117 1.258.31 2.115 1.045 1.377 1.474-.19.404-3.706 3.613-1.259.951-1.4.238.735-2.258zM19.09 6.467l-.19.38.126.285.286-.032.126.35.316.284.286-.063.126-.601-.253-.572-.38-.063-.443.031z"/>
    </defs>
    <g fill="none" fill-rule="evenodd">
        <g transform="translate(-3 -3.955)">
            <path fill="#DC062B" d="M87.29 36.575a.84.84 0 0 1-.836-.842v-2.455h1.418v-3.402h-1.418l-.02-3.39h-3.752l.003 3.39h-1.51v3.402h1.51v4.813c0 1.042.842 1.888 1.88 1.888h4.015v-3.404h-1.29zM99.82 35.733v-10.2h-3.768V38.09c0 1.043.841 1.888 1.88 1.888h5.511v-3.404h-2.785a.84.84 0 0 1-.837-.842M149.733 29.605c-1.038 0-1.879.846-1.879 1.888v8.486h3.77v-6.14c0-.464.373-.84.836-.84h1.998v-3.394h-4.725zM56.198 28.985h2.785v-3.396h-5.511c-1.038 0-1.88.846-1.88 1.888v12.502h3.768v-5.125h2.003v-3.4H55.36v-1.629c0-.465.375-.84.838-.84M58.29 34.798c0-2.931 2.367-5.307 5.287-5.307s5.287 2.376 5.287 5.307c0 2.932-2.367 5.308-5.287 5.308s-5.287-2.376-5.287-5.308m5.287 1.534a1.53 1.53 0 0 0 1.527-1.534 1.53 1.53 0 0 0-1.527-1.533 1.53 1.53 0 0 0-1.527 1.533 1.53 1.53 0 0 0 1.527 1.534M69.888 34.798c0-2.931 2.367-5.307 5.286-5.307 2.92 0 5.287 2.376 5.287 5.307 0 2.932-2.366 5.308-5.287 5.308-2.919 0-5.286-2.376-5.286-5.308m5.286 1.534a1.53 1.53 0 0 0 1.528-1.534 1.53 1.53 0 0 0-1.528-1.533 1.53 1.53 0 0 0-1.526 1.533 1.53 1.53 0 0 0 1.526 1.534M104.28 34.798c0-2.931 2.367-5.307 5.287-5.307s5.287 2.376 5.287 5.307c0 2.932-2.366 5.308-5.287 5.308-2.92 0-5.286-2.376-5.286-5.308m5.286 1.534a1.53 1.53 0 0 0 1.527-1.534 1.53 1.53 0 0 0-1.527-1.533 1.53 1.53 0 0 0-1.527 1.533 1.53 1.53 0 0 0 1.527 1.534M122.586 35.623c-.27.425-.745.708-1.287.708a1.53 1.53 0 0 1-1.526-1.533 1.53 1.53 0 0 1 1.526-1.533 1.52 1.52 0 0 1 1.287.708l3.168-2.031a5.272 5.272 0 0 0-4.455-2.451c-2.919 0-5.286 2.375-5.286 5.307 0 2.931 2.367 5.308 5.286 5.308a5.275 5.275 0 0 0 4.455-2.452l-3.168-2.03zM152.981 38.997c0-.54.429-.97.97-.97.542 0 .97.43.97.97a.964.964 0 0 1-.97.968.964.964 0 0 1-.97-.968zm1.792 0a.826.826 0 0 0-.822-.822.827.827 0 0 0-.822.822c0 .457.38.819.822.819a.825.825 0 0 0 .822-.82zm-.362.524h-.177l-.317-.49h-.178v.49h-.149v-1.062h.461c.19 0 .376.052.376.281 0 .21-.147.285-.334.29l.318.49zm-.494-.64c.131 0 .361.026.361-.143 0-.11-.144-.13-.257-.13h-.282v.273h.178zM137.285 39.979l-4.438-5.416 3.528-4.286h-4.047l-1.926 2.35V25.55h-3.76v14.429h3.76v-3.085l.266.307 2.265 2.778z"/>
            <path fill="#DC062B" d="M142.604 36.174l-.001-.002a1.732 1.732 0 0 1-2.433-.333l6.689-1.495c-.016-.618-.369-1.834-1.095-2.815-.722-.981-2.156-1.948-3.871-2.063a5.227 5.227 0 0 0-4.658 2.185 5.258 5.258 0 0 0-1.014 3.136c0 2.952 2.382 5.345 5.323 5.345a5.287 5.287 0 0 0 3.227-1.096 5.43 5.43 0 0 0 1.258-1.372l-3.017-1.933c-.109.17-.247.32-.408.443zm-2.718-1.874c.172-.506.458-.93 1.183-1.166.723-.236 1.458.14 1.776.5l-2.96.666zM96.182 15.213V5.012h3.768V17.57a1.884 1.884 0 0 1-1.88 1.887h-8.948v-3.404h6.222a.84.84 0 0 0 .838-.84M131.246 14.151c0-2.931 2.366-5.307 5.285-5.307 2.922 0 5.288 2.376 5.288 5.307 0 2.931-2.366 5.307-5.288 5.307-2.919 0-5.285-2.376-5.285-5.307m5.285 1.534a1.53 1.53 0 0 0 1.528-1.534 1.53 1.53 0 0 0-1.528-1.533 1.53 1.53 0 0 0-1.526 1.533 1.53 1.53 0 0 0 1.526 1.534"/>
            <path fill="#DC062B" d="M80.815 14.151c0-2.931 2.367-5.307 5.286-5.307 2.92 0 5.288 2.376 5.288 5.307 0 2.931-2.367 5.307-5.288 5.307-2.919 0-5.286-2.376-5.286-5.307m5.286 1.534a1.53 1.53 0 0 0 1.528-1.534 1.53 1.53 0 0 0-1.528-1.533 1.53 1.53 0 0 0-1.526 1.533 1.53 1.53 0 0 0 1.526 1.534M141.832 16.328h-4.577l-3.59 8.039h3.72z"/>
            <path fill="#DC062B" d="M91.401 16.328h-4.577l-3.589 8.039h3.72zM78.46 16.943l-.112-6.74H68.296l3.651-5.28h-4.354l-3.584 5.286.062 3.399h10.33l.056 1.29-.026.616c-.11.465-.357.54-1.1.54H57.724l-.16 3.404h18.532c2.618 0 2.257-.03 2.364-2.515M148.962 12.618a1.53 1.53 0 0 1 1.528 1.533 1.53 1.53 0 0 1-1.528 1.534 1.53 1.53 0 0 1-1.526-1.534 1.53 1.53 0 0 1 1.526-1.533zm5.286 1.507c-.015-2.92-2.374-5.28-5.286-5.28a5.301 5.301 0 0 0-4.93 7.21h-5.986v3.403h16.204v-5.333h-.002z"/>
            <mask id="b" fill="#fff">
                <use xlink:href="#a"/>
            </mask>
            <path fill="#DC062B" d="M147.652 7.724h2.666V4.806h-2.666zM56.3 23.621c1.039 0 1.88-.846 1.88-1.888v-8.485h-3.769v6.14a.84.84 0 0 1-.837.84h-1.997v3.393H56.3zM114.516 11.527h2.666V8.609h-2.666zM118.599 11.527h2.666V8.609H118.6z" mask="url(#b)"/>
            <path fill="#DC062B" d="M125.257 14.956c0 .96-.034.983-.98.983h-12.776c-.934 0-.979-.017-.979-.983v-4.107h-3.751v7.605c0 .541.44.984.979.984h20.28c.539 0 .98-.443.98-.984V10.85h-3.753v4.107z" mask="url(#b)"/>
        </g>
        <g transform="translate(.42 -.141)">
            <mask id="d" fill="#fff">
                <use xlink:href="#c"/>
            </mask>
            <path fill="#FEFEFE" d="M-3.42 40.805h51.666V-3.478H-3.419z" mask="url(#d)"/>
        </g>
        <g transform="translate(1.559 1.003)">
            <mask id="f" fill="#fff">
                <use xlink:href="#e"/>
            </mask>
            <path fill="#1D1D1B" d="M-3.611 38.72h49.734V-3.684H-3.61z" mask="url(#f)"/>
        </g>
    </g>
</svg>
