<svg xmlns="http://www.w3.org/2000/svg" xmlns:xlink="http://www.w3.org/1999/xlink" width="282" height="48" viewBox="0 0 200 34">
    <defs>
        <path id="a" d="M3.201 2.87V.329H.648v2.54h2.553z"/>
    </defs>
    <g fill="none" fill-rule="evenodd">
        <path fill="#FEFEFE" d="M14.883 2.967h-.005.005zM24.62.957V.956zm4.91 21.65h-.003a.335.335 0 0 0 .003-.014l.004.004-.005.01zm-.576 4.594l-.514.397 1.13-4.952 1.695.856h.002l.662.737-2.975 2.962zM9.804 21.59l.469-.17v.007l.225 1.737.671 2.814-.03.82-1.044-.737-1.041-1.141-1.027-1.99.834-.301c.02-.01.729-.8.943-1.039zm29.943 1.491c-.004-.02-2.082-2.99-2.082-2.99s-1.806-1.567-2.368-2.096l-.638-.864-3.074-2.138c-.007-.004-2.507-1.16-3.666-1.72-.936-.452-1.544-.633-2.13-.808-.19-.056-.727-.302-.9-.38.298-.217.538-.536.573-1.035.023-.32-.104-.639-.21-.848l.434-.678c.022-.035-.154-.739-.171-.875.17-.095.546-.695.546-.695l.154-.314c.018-.035-.324-.906-.324-.906-.008-.02-.437-.38-.624-.532-.036-.767-.4-1.864-.413-1.907.05-.176.436-1.124.436-1.124.085-.184.055-.343.022-.484-.275-1.167-.404-1.51-.666-1.71L24.119.51c-.026-.023-.266-.01-.266-.01l-.985.057C22.31.276 21.378.044 20.98.005c-.484-.05-1.767.321-1.88.35-.336.086-1.237.106-1.237.106-.21 0-.322.092-.442.19l-.69.565-.898.489-.224.122c-.025.013-.145.274-.145.274-.312.674-.834.928-.834.928l-.163.192-.086.101-.62 1.809c-.01.027 1.13 4.32 1.13 4.32l1.184 1.748c.008.008.066.06.136.12-.224.184-.662.546-.852.7-1.274.283-3.195.463-3.28.471l-.05.005.057-.002a.591.591 0 0 0-.32.09l-4.374 2.316c-.331.175-4.27 2.598-4.27 2.598-.027.018-2.299 1.73-2.299 1.73-.015.011-.759 1.326-.759 1.326-.01.02-.065 2.062-.065 2.062 0 .022 1.25 2.578 1.25 2.578l2.053 2.121c.007.009 6.642 4.134 7.486 4.659l.137.176L10.279 34h17.313l.058-.761.775-.218c.02-.006 8.693-5.336 8.693-5.336l2.88-2.99c.031-.033-.251-1.615-.251-1.615z"/>
        <path fill="#1D1D1B" d="M18.794 6.91l.227.523-.113.551-.257.057-.284-.26-.113-.32-.257.03-.113-.263.171-.347.398-.029.341.058zm17.198 17.384l-3.649 3.437-5.27 3.004.043-1.393 1.493-.195 2.433-2.025 2.944-2.96-1.793-1.85 1.131-1.676.491.021 2.283 3.025-.106.612zm-8.257 2.502l.917-4.267.043-1.023 1.13.284 1.9.957 1.236 1.35-.17.37-3.329 3.308-1.13.87-1.259.219.662-2.068zm.81-9.207l-.49-.021-.512-.392-.128-.653h.383l1.11.479 3.222 2.285-.043.283-.235.088-.406-.044-2.9-2.025zm-.704.849l3.243 2.068.256.435-.384.283-2.07-1.023-1.045-1.763zm-.192 1.546s-.006-.414.256-.109c.15.174.192.914.192.914l-.256 2.72-.469 1.916.085-2.025.214-1.936-.022-1.48zm.683-5.05l3.37 2.198 1.452 1.09-.236.173-.788-.24s-1.046-.74-1.495-1.11c-.447-.37-1.47-1.066-1.685-1.175-.214-.109-.788-.48-1.558-.61l-.063-.48 1.003.154zm-5.975 5.42h3.073v-.327h-3.073v.326zm0 .618h3.073v-.268h-3.073v.268zm-.632-10.405l-1.878.058-.74.465v.318l.968.784s-.085 1.074-.085 1.364c0 .29-.483-.058-.483-.058l-1.88-1.162.058-1.16.228-.058.454-2.234-.625-.9-.057-.987.312-.378.654-.115.856.724h.426l.198-.898 1.764-1.103h1.195s.228.261.256.32c.029.057-.143.173-.143.173l-1.336.64.313.55 1.195.203.768-.174.54.494-.455.348-.398.174.398.436v.202l-.655.116-.37.436s-.028.29.03.348c.056.058.37-.03.54-.117.17-.086.34.03.313.146-.029.116-.284.145-.399.174-.114.029-.255.377-.227.464.029.088.17 0 .17 0s.172.32.228.493c.057.175-.37.262-.37.262l-1.763-.348zm-2.206 5.388a.214.214 0 0 1-.211-.216c0-.12.095-.215.211-.215.117 0 .212.096.212.215 0 .12-.095.216-.212.216zm-.148 2.838a.244.244 0 0 1-.241-.247c0-.134.107-.245.24-.245.134 0 .242.11.242.245a.244.244 0 0 1-.241.247zm3.456-3.489l.64 1.306.043.87-.107 2.068H22.38l.276-4.223.171-.02zm1.835.653l.64-.414-.107 4.027h-.64l.107-3.613zm-12.63 11.536l-.385.173h-.576l-1.45-1.023-1.175-1.284-1.45-2.808.17-.239 1.322-.478.918-1.023 1.75-.632.107.153-.065 1.11.214 1.524.682 2.85-.063 1.677zm-4.12-8.249l-.426.152-.32-.24.021-.392.598-.588 3.84-2.11.043.37-.213.26-3.543 2.548zm.45 1.088l2.581-2.068.683-.065.063.39-.149.284-.576.262-1.238.957-1.151.522-.13.24-.191-.218.107-.304zm-1.858-3.07l2.626-1.566 2.752-1.371-.256.522L8.02 16.98l-1.43.609-.086-.326zm32.325 6.095l-1.92-2.743c-.831-.625-2.326-2.046-2.326-2.046l-.597-.805-2.838-1.98s-2.453-1.132-3.627-1.698c-1.174-.566-1.793-.675-2.582-.936-.437-.144.171-.109-1.514-.61-1.174-.347-.47-.61.256-.826.725-.218.896-.37.917-.675.021-.305-.255-.63-.255-.63l.02-.371.405-.631c-.17-.632-.17-1.197-.17-1.197.47-.196.533-.26.533-.26l.15-.306-.128-.326-.747-.654c.042-1.067-.385-1.915-.426-2.198-.044-.283.49-1.457.49-1.457s-.278-1.177-.363-1.22l-.32-.283-1.13.065c-.235-.217-1.323-.521-1.751-.565-.426-.044-1.066.196-1.579.326-.511.131-1.344.131-1.344.131l-.746.61-.96.521c-.534 1.155-1.09 1.306-1.09 1.306l-.49 1.393 1.046 3.94.96 1.393.47.457v.827l-.256.02-1.153.937c-1.364.327-3.542.523-3.542.523l-4.33 2.264L3.71 18.22l-2.113 1.59-.555.978L1 22.399l1.087 2.22 1.879 1.938 7.467 4.634.534.655L11.561 33h1.408c.171-.502.3-.96.278-1.634-.021-.675-.383-1.24-.383-1.24h-1.666l-1.067-.545c-2.068-1.545-2.41-1.35-4.757-3.2-2.347-1.848-3.243-3.525-3.243-3.525l-.214-.849.064-1 .257-.544 1.066-1.045 1.792-.98.257.022.383.587c-.64.74-1.75.915-1.75.915l-.213.26-.02.457.51 1.894s.534 1.024.897 1.654c.363.63 4.012 3.461 4.012 3.461s.982 1.088 1.067 1.176c.085.086.682.152.789.065.91-.743 1.6-.871 1.6-.871l.085-2.416-.511-3.613v-3.744l.17-2.459.534-.762c-.235 1.611-.023 2.351-.023 2.351v11.492l.472.762c.158-2.224.204-4.05.277-5.507.223-4.377.127-5.616.127-5.616l-.128-1.414.192-.98.769-1.109c-.128 1.132-.214 1.502-.3 3.09-.085 1.589-.064 4.55-.107 5.68-.042 1.133-.34 6.16-.405 6.682-.064.523-.32 2.505-.32 2.505h1.024c.214-1.873.13-2.787.192-4.289.064-1.501.214-2.001.279-3.177.063-1.176-.044-3.767.405-7.858.165-1.514.465-2.512.596-2.982.112-.391.294-.317.278-.021-.022.391.021.827.021.827l.021 2.176-.512 6.944-.042 3.917-.299 2.046L15.51 33h1.066l.598-9.318.768-8.27.875-.348L17.686 33H19.2l1.131-17.587.47-.61.469.48L20.458 33h1.303l.297-8.577.918.37-.17 8.207h1.343v-5.639l.353-2.426c.278.01.587-.446.587-.446L24.598 33h.874s.811-12.016.897-14.17c.084-2.155-.598-4.222-.598-4.222l.705.63.512 4.027-.79 11.84L25.963 33h.811l.043-.568 1.173-.325s1.045-.959 8.45-5.137L39 24.315l-.171-.958z"/>
        <path fill="#DC062B" d="M100.085 27.952a1.245 1.245 0 0 1-1.244-1.245v-3.64h2.107v-5.044H98.84L98.812 13H93.24l.004 5.023H91v5.045h2.243V30.2A2.796 2.796 0 0 0 96.036 33H102v-5.048h-1.915zM117.608 27.123V13H112v17.386c0 1.444 1.255 2.614 2.8 2.614h8.2v-4.714h-4.144c-.688 0-1.248-.52-1.248-1.163M191.849 18c-1.574 0-2.849 1.222-2.849 2.73V33h5.709v-8.879c0-.672.568-1.215 1.267-1.215H199V18h-7.151zM53.856 17.719H58V13h-8.201C48.252 13 47 14.175 47 15.623V33h5.609v-7.123h2.98v-4.725h-2.98v-2.264c0-.646.557-1.17 1.247-1.17M64.5 28.667a2.167 2.167 0 1 0 0-4.333 2.167 2.167 0 0 0 0 4.333M57 26.5a7.5 7.5 0 0 1 7.5-7.5 7.5 7.5 0 1 1-7.5 7.5M81.5 28.667a2.167 2.167 0 1 0 0-4.333 2.167 2.167 0 0 0 0 4.333M74 26.5a7.5 7.5 0 1 1 15 0 7.5 7.5 0 0 1-15 0M132.5 28.667a2.166 2.166 0 1 0 0-4.333 2.166 2.166 0 0 0 0 4.333M125 26.5a7.5 7.5 0 0 1 7.5-7.5 7.5 7.5 0 0 1 7.5 7.5 7.5 7.5 0 1 1-15 0M151.447 27.666a2.203 2.203 0 0 1-1.849 1c-1.21 0-2.195-.97-2.195-2.166 0-1.197.984-2.167 2.195-2.167.777 0 1.46.4 1.85 1.001l4.552-2.87A7.61 7.61 0 0 0 149.598 19c-4.196 0-7.598 3.357-7.598 7.5 0 4.142 3.402 7.5 7.598 7.5A7.612 7.612 0 0 0 156 30.536l-4.553-2.87z"/>
        <g transform="translate(196 31)">
            <mask id="b" fill="#fff">
                <use xlink:href="#a"/>
            </mask>
            <path fill="#DC062B" d="M1.88 1.45c.171 0 .475.032.475-.189 0-.144-.19-.169-.339-.169h-.371v.357h.235zm.651.836h-.234l-.417-.641h-.235v.641h-.196V.896h.607c.251 0 .494.068.494.368 0 .274-.192.373-.44.38l.421.642zm.475-.686c0-.6-.497-1.075-1.08-1.075C1.341.525.844 1 .844 1.6a1.082 1.082 0 0 0 2.161 0zm-2.358 0c0-.707.564-1.271 1.277-1.271s1.277.564 1.277 1.27c0 .708-.564 1.27-1.277 1.27A1.264 1.264 0 0 1 .648 1.6z" mask="url(#b)"/>
        </g>
        <path fill="#DC062B" d="M173 33l-6.254-7.507 4.97-5.942h-5.702l-2.714 3.26V13H158v20h5.3v-4.277l.375.427 3.193 3.85z"/>
        <path fill="#DC062B" d="M177.168 25.808c.242-.713.646-1.306 1.668-1.638 1.02-.333 2.055.197 2.504.703l-4.172.935zM181 28.442l-.003-.005a2.445 2.445 0 0 1-3.429-.467L187 25.868c-.023-.867-.522-2.577-1.542-3.954-1.021-1.377-3.043-2.737-5.46-2.896-2.872-.19-5.198 1.163-6.566 3.067-1.047 1.454-1.432 2.955-1.432 4.408A7.507 7.507 0 0 0 179.506 34c1.707 0 3.28-.573 4.54-1.535.004 0 .006-.003.009-.005a7.59 7.59 0 0 0 1.775-1.926l-4.255-2.717c-.153.24-.349.45-.574.625z"/>
    </g>
</svg>
