<svg width="24" height="34" xmlns="http://www.w3.org/2000/svg">
    <g fill-rule="nonzero" fill="none">
        <path d="M12 .5c3.18 0 6.055 1.275 8.136 3.338A11.315 11.315 0 0 1 23.5 11.9c0 7.388-8.374 17.705-11.053 20.83C8.947 29.688.5 19.314.5 11.9c0-3.15 1.285-6 3.364-8.062A11.515 11.515 0 0 1 12 .5z" stroke="#232323" fill="#FFF"/>
        <path d="M15.13 8a3.155 3.155 0 0 0-1.975.68c-.475.376-.87.843-1.16 1.372a4.455 4.455 0 0 0-1.162-1.371 3.14 3.14 0 0 0-1.905-.68 3.632 3.632 0 0 0-2.616 1.138 3.578 3.578 0 0 0-.972 2.666c0 2.305 1.893 3.954 4.773 6.386.488.415 1.045.877 1.614 1.372a.415.415 0 0 0 .279.104.383.383 0 0 0 .267-.104l1.626-1.372c2.868-2.432 4.76-4.035 4.76-6.386a3.574 3.574 0 0 0-.947-2.65A3.634 3.634 0 0 0 15.13 8z" fill="#232323"/>
    </g>
</svg>
