<svg xmlns="http://www.w3.org/2000/svg" width="22" height="13" viewBox="0 0 22 11">
    <g fill="#003773" fill-rule="nonzero">
        <path d="M5.175 0H.647a.647.647 0 1 0 0 1.294h4.528a.647.647 0 0 0 0-1.294zM5.175 4.528H.647a.647.647 0 1 0 0 1.294h4.528a.647.647 0 1 0 0-1.294zM5.175 9.056H.647a.647.647 0 0 0 0 1.294h4.528a.647.647 0 1 0 0-1.294zM8.41 1.294h12.937a.647.647 0 0 0 0-1.294H8.409a.647.647 0 0 0 0 1.294zM21.347 4.528H8.409a.647.647 0 1 0 0 1.294h12.938a.647.647 0 0 0 0-1.294zM21.347 9.056H8.409a.647.647 0 0 0 0 1.294h12.938a.647.647 0 0 0 0-1.294z"/>
    </g>
</svg>
