<svg xmlns="http://www.w3.org/2000/svg" width="22" height="22" viewBox="0 0 22 22">
    <path fill="#0084CC" fill-rule="nonzero" d="M21.692.648a.579.579 0 0 0-.579 0l-6.64 4.446L7.85.677a.579.579 0 0 0-.642 0L.26 5.31a.579.579 0 0 0-.261.48v15.052a.579.579 0 0 0 .897.48l6.629-4.417 6.629 4.418.063.029h.058a.515.515 0 0 0 .4 0h.057l.064-.03 6.947-4.63A.579.579 0 0 0 22 16.21V1.158a.579.579 0 0 0-.307-.51zM8.105 2.228l5.79 3.874v13.662l-5.79-3.867V2.316a.544.544 0 0 0 0-.087zM1.158 6.103l5.789-3.873a.544.544 0 0 0 0 .087v13.581l-5.79 3.862V6.102zm19.683 9.795l-5.79 3.862V6.102l5.79-3.862v13.657z"/>
</svg>
