<svg width="24" height="24" xmlns="http://www.w3.org/2000/svg" xmlns:xlink="http://www.w3.org/1999/xlink">
    <defs>
        <path id="a" d="M0 0h2.83v3.801H0z"/>
        <path id="c" d="M0 0h1.661v3.14H0z"/>
    </defs>
    <g fill="none" fill-rule="evenodd">
        <rect stroke="#005699" fill="#FFF" x=".5" y=".5" width="23" height="23" rx="3"/>
        <path d="M11.055 16.06c-.81 0-1.211.62-1.211 1.251 0 .631.401 1.252 1.21 1.252.811 0 1.212-.62 1.212-1.252s-.4-1.25-1.212-1.25m0 2.846c-.981 0-1.558-.75-1.558-1.596 0-.846.576-1.596 1.558-1.596.984 0 1.56.75 1.56 1.596 0 .846-.576 1.596-1.56 1.596m6.973-2.847c-.645 0-.815.267-.815.517 0 .267.176.389.488.432l.849.125c.507.074.885.281.885.85 0 .852-.894.923-1.329.923-.692 0-1.314-.22-1.36-1.113h.345c.02.192.037.369.175.513.133.14.39.256.902.256.697 0 .918-.222.918-.58 0-.287-.186-.422-.487-.466l-.938-.136c-.33-.045-.796-.222-.796-.787 0-.366.242-.879 1.173-.879.742 0 1.24.237 1.297 1.057h-.348c-.048-.626-.443-.712-.96-.712m-5.567-3.813c-.756 0-1.13.577-1.13 1.167 0 .59.374 1.168 1.13 1.168.758 0 1.13-.579 1.13-1.168 0-.59-.373-1.167-1.13-1.167m0 2.665c-.922 0-1.463-.703-1.463-1.498 0-.794.541-1.498 1.464-1.498.921 0 1.463.704 1.463 1.498 0 .795-.541 1.498-1.464 1.498" fill="#005699" fill-rule="nonzero"/>
        <g transform="translate(16.718 12)">
            <mask id="b" fill="#fff">
                <use xlink:href="#a"/>
            </mask>
            <path d="m.375 0 1.086 2.36L2.457 0h.374L1.42 3.269c-.132.3-.273.532-.694.532H.361V3.47h.322c.257 0 .306-.043.492-.454l.114-.249L0 0h.376-.001z" fill="#005699" fill-rule="nonzero" mask="url(#b)"/>
        </g>
        <path d="M14.367 13.403c0 .746.439 1.18 1.027 1.18.895 0 1.116-.681 1.116-1.142 0-.909-.597-1.194-1.086-1.194-.552 0-1.057.37-1.057 1.156zm2.113.989c-.177.277-.52.52-1.062.52-.91 0-1.383-.708-1.383-1.503 0-.897.596-1.493 1.384-1.493.533 0 .874.265 1.062.535v-1.519h.333v3.895h-.334v-.435z" fill="#005699" fill-rule="nonzero"/>
        <path d="M14.875 17.452v1.46h-.349v-4.334l.349.108v2.254l1.662-1.183h.563l-1.983 1.438 2.224 1.698h-.663l-1.803-1.44zm-7.62-2.205-1.19 3.646h-.332L4.45 14.664h.385l1.072 3.564 1.157-3.564h.379L8.6 18.228l1.07-3.564h.387l-1.27 4.23h-.342l-1.191-3.647z" fill="#005699" fill-rule="nonzero"/>
        <g transform="translate(12.773 15.773)">
            <mask id="d" fill="#fff">
                <use xlink:href="#c"/>
            </mask>
            <path d="M.35.596C.565.203.946.001 1.408.001c.095 0 .163.02.252.048v.39a.674.674 0 0 0-.331-.06C.676.379.35.914.35 1.478V3.14H.001L0 .032h.35v.564z" fill="#005699" fill-rule="nonzero" mask="url(#d)"/>
        </g>
        <path d="M7.339 7.821c.275 0 .555-.03.81-.152.317-.151.598-.455.598-1.06 0-.762-.372-1.075-.988-1.144a4.334 4.334 0 0 0-.475-.018H4.897v2.374h2.442zm.031 2.91c.77 0 1.56-.281 1.56-1.336 0-.846-.473-1.162-1.14-1.233a4.823 4.823 0 0 0-.513-.02h-2.38v2.59H7.37zm.13-5.605c1.048 0 1.587.53 1.587 1.458 0 .748-.39 1.202-1.071 1.36v.025c.81.09 1.257.634 1.257 1.46 0 .638-.321 1.624-1.827 1.624H4.554V5.126H7.5zm5.233 3.55c-.094.103-.297.198-.627.223L10.78 9c-.659.05-1.13.251-1.13.895 0 .87.81.971 1.284.971.782 0 1.821-.384 1.821-1.404v-.786h-.022zM11.3 6.673c1.143 0 1.796.29 1.796 1.242v2.387c0 .108-.005.272.033.373.033.09.1.138.233.138.12 0 .226-.026.34-.063v.32c-.138.05-.28.065-.425.065-.476 0-.477-.359-.477-.925l-.024-.006c-.444.873-1.354.98-1.867.98-.337 0-1.602 0-1.602-1.291 0-.868.676-1.166 1.473-1.216l1.371-.1c.408-.033.603-.084.603-.614 0-.578-.303-.969-1.46-.969-.828 0-1.331.173-1.469 1.113h-.341c.154-1.2.796-1.434 1.816-1.434z" fill="#005699" fill-rule="nonzero"/>
        <path d="M14.175 6.806h1.164v.321h-1.164v3.075c0 .529.28.612.717.612.16 0 .327-.031.485-.05v.322a2.81 2.81 0 0 1-.593.05c-.816 0-.952-.329-.952-1.142V7.127h-.888v-.32h.888v-1.44h.342v1.44zm1.736.731c.267-.488.822-.864 1.675-.864.9 0 1.347.312 1.571.686.224.375.225.814.225 1.072v2.64h-.343V8.448c0-.867-.3-1.452-1.46-1.452s-1.668.784-1.668 1.577v2.5h-.342V5.086h.341v2.45zM5.126 13.753c0 .454.337.762.898.762.562 0 .88-.3.985-.422l-1.096-1.14c-.523.227-.787.43-.787.8zm.88-1.194c.25-.125.558-.295.558-.635 0-.33-.296-.426-.474-.426-.336 0-.472.214-.472.396 0 .18.13.414.387.665zm1.763 2.266c-.172-.171-.342-.346-.513-.52-.335.384-.722.54-1.255.54-.823 0-1.207-.54-1.207-1.088 0-.585.47-.856.894-1.046-.204-.235-.401-.454-.401-.806 0-.26.175-.738.804-.738.386 0 .803.22.803.738 0 .496-.42.76-.67.894l.988 1.005c.074-.158.115-.33.119-.504v-.069h.33v.07c0 .273-.108.587-.213.747.177.174.355.348.529.527l-.207.25z" fill="#005699" fill-rule="nonzero"/>
        <path d="M9.566 11.262H8.104v1.384H9.6c.416 0 .837-.132.837-.708 0-.642-.434-.676-.87-.676m-.006 1.714H8.104v1.521H9.62c.457 0 .934-.156.934-.786 0-.696-.525-.735-.993-.735m1.327.756c0 .434-.225 1.095-1.22 1.095H7.771v-3.895H9.7c.69 0 1.069.356 1.069.99 0 .34-.127.689-.522.86.535.157.64.648.64.95z" fill="#005699" fill-rule="nonzero"/>
    </g>
</svg>
