<svg width="24" height="24" xmlns="http://www.w3.org/2000/svg" xmlns:xlink="http://www.w3.org/1999/xlink">
    <defs>
        <path id="c" d="M0 0h2.824v3.791H0z"/>
        <path id="e" d="M0 0h1.657v3.132H0z"/>
        <rect id="a" x="0" y="0" width="24" height="24" rx="3"/>
    </defs>
    <g fill="#005699" fill-rule="evenodd">
        <mask id="b" fill="#fff">
            <use xlink:href="#a"/>
        </mask>
        <rect stroke="#005699" x=".5" y=".5" width="23" height="23" rx="3"/>
        <g mask="url(#b)">
            <path d="M11.057 16.05c-.808 0-1.208.618-1.208 1.248s.4 1.248 1.207 1.248c.81 0 1.21-.619 1.21-1.248 0-.63-.4-1.248-1.21-1.248m0 2.84c-.979 0-1.554-.748-1.554-1.592 0-.844.575-1.592 1.554-1.592.982 0 1.557.748 1.557 1.592 0 .844-.575 1.592-1.557 1.592m6.955-2.84c-.642 0-.812.266-.812.515 0 .267.175.388.487.431l.846.125c.506.074.883.28.883.847 0 .851-.892.922-1.325.922-.69 0-1.31-.22-1.357-1.111h.344c.02.191.037.368.175.512.133.14.388.255.9.255.695 0 .915-.221.915-.578 0-.287-.185-.42-.486-.465l-.935-.135c-.33-.046-.794-.222-.794-.786 0-.365.241-.876 1.17-.876.74 0 1.237.236 1.293 1.054h-.347c-.047-.624-.441-.71-.957-.71m-5.553-3.803c-.755 0-1.127.575-1.127 1.164 0 .587.372 1.165 1.127 1.165s1.128-.578 1.128-1.165c0-.589-.373-1.165-1.128-1.165m0 2.659c-.92 0-1.46-.702-1.46-1.494 0-.793.54-1.495 1.46-1.495.92 0 1.46.702 1.46 1.495 0 .792-.54 1.494-1.46 1.494" fill="#FFF" fill-rule="nonzero"/>
            <g transform="translate(16.706 12)">
                <mask id="d" fill="#fff">
                    <use xlink:href="#c"/>
                </mask>
                <path d="m.374 0 1.083 2.354L2.451 0h.373L1.417 3.26c-.13.3-.272.531-.692.531H.36v-.33h.321c.257 0 .305-.042.491-.452l.114-.249L0 0h.375z" fill="#FFF" fill-rule="nonzero" mask="url(#d)"/>
            </g>
            <path d="M14.36 13.4c0 .744.439 1.176 1.025 1.176.893 0 1.114-.679 1.114-1.139 0-.906-.596-1.191-1.084-1.191-.55 0-1.054.37-1.054 1.153zm2.11.986c-.177.276-.52.519-1.06.519-.91 0-1.38-.706-1.38-1.5 0-.894.594-1.489 1.38-1.489.532 0 .872.265 1.06.534v-1.515h.332v3.885h-.333v-.434z" fill="#FFF" fill-rule="nonzero"/>
            <path d="M14.868 17.438v1.457h-.348v-4.323l.348.107v2.249l1.657-1.18h.562l-1.978 1.434 2.219 1.693h-.661l-1.8-1.437zM7.267 15.24 6.08 18.876h-.332L4.47 14.657h.384l1.07 3.555 1.154-3.555h.377l1.155 3.555 1.068-3.555h.385l-1.268 4.219h-.34l-1.188-3.637z" fill="#FFF" fill-rule="nonzero"/>
            <g transform="translate(12.77 15.763)">
                <mask id="f" fill="#fff">
                    <use xlink:href="#e"/>
                </mask>
                <path d="M.348.595C.565.202.944 0 1.405 0a.78.78 0 0 1 .252.047v.39a.673.673 0 0 0-.33-.06C.673.378.347.912.347 1.474v1.658H.002L0 .032h.348v.563z" fill="#FFF" fill-rule="nonzero" mask="url(#f)"/>
            </g>
            <path d="M7.35 7.832c.275 0 .554-.03.809-.152.316-.15.596-.454.596-1.057 0-.76-.37-1.073-.985-1.141a4.323 4.323 0 0 0-.474-.018H4.915v2.368H7.35zm.032 2.903c.768 0 1.556-.281 1.556-1.333 0-.844-.472-1.16-1.137-1.23a4.811 4.811 0 0 0-.512-.02H4.915v2.583h2.467zm.13-5.591c1.045 0 1.583.529 1.583 1.454 0 .746-.39 1.199-1.07 1.356v.025c.808.09 1.255.633 1.255 1.456 0 .637-.32 1.62-1.822 1.62H4.573V5.144h2.939zm5.219 3.54c-.093.103-.296.198-.625.223l-1.323.1c-.657.05-1.128.25-1.128.892 0 .868.81.97 1.281.97.78 0 1.817-.384 1.817-1.401v-.784h-.022zm-1.428-1.997c1.14 0 1.79.29 1.79 1.24v2.38c0 .108-.004.272.034.372.033.09.1.138.232.138.12 0 .226-.026.34-.062v.32a1.26 1.26 0 0 1-.424.063c-.475 0-.476-.358-.476-.923l-.024-.006c-.443.872-1.351.979-1.862.979-.336 0-1.599 0-1.599-1.289 0-.865.675-1.163 1.47-1.213l1.368-.1c.407-.032.601-.084.601-.612 0-.576-.302-.966-1.457-.966-.825 0-1.327.172-1.464 1.11h-.341c.154-1.197.795-1.43 1.812-1.43z" fill="#FFF" fill-rule="nonzero"/>
            <path d="M14.17 6.82h1.16v.32h-1.16v3.066c0 .528.278.611.715.611.159 0 .326-.031.484-.05v.322c-.194.041-.395.05-.592.05-.814 0-.95-.329-.95-1.14v-2.86h-.885v-.32h.885V5.385h.342V6.82zm1.73.728c.267-.487.821-.861 1.672-.861.897 0 1.344.31 1.567.684.223.374.224.812.224 1.069v2.634h-.341V8.456c0-.864-.3-1.448-1.458-1.448-1.157 0-1.663.782-1.663 1.573v2.493h-.342v-5.97h.342v2.444zm-10.757 6.2c0 .453.337.76.896.76.56 0 .877-.299.983-.42L5.928 12.95c-.521.227-.785.43-.785.798zm.877-1.19c.251-.125.557-.295.557-.633 0-.33-.295-.425-.472-.425-.335 0-.47.213-.47.395 0 .179.128.413.385.663zm1.76 2.26c-.172-.17-.341-.345-.512-.52-.334.384-.72.54-1.251.54-.821 0-1.205-.538-1.205-1.085 0-.584.47-.855.892-1.044-.203-.234-.4-.452-.4-.804 0-.26.174-.736.802-.736.385 0 .8.22.8.736 0 .495-.417.759-.667.892l.985 1.003c.074-.158.114-.33.118-.503v-.069h.33v.069c0 .273-.108.586-.212.746.176.174.354.347.527.526l-.207.25z" fill="#FFF" fill-rule="nonzero"/>
            <path d="M9.572 11.264H8.114v1.38h1.492c.415 0 .835-.131.835-.706 0-.64-.433-.674-.869-.674m-.005 1.71H8.114v1.517h1.512c.456 0 .931-.156.931-.785 0-.693-.523-.732-.99-.732m1.324.753c0 .434-.224 1.093-1.217 1.093H7.782v-3.885h1.926c.688 0 1.065.355 1.065.987 0 .34-.127.687-.52.858.533.157.638.646.638.947z" fill="#FFF" fill-rule="nonzero"/>
        </g>
    </g>
</svg>
