<?xml version="1.0" standalone="no"?>
<!DOCTYPE svg PUBLIC "-//W3C//DTD SVG 1.1//EN" "http://www.w3.org/Graphics/SVG/1.1/DTD/svg11.dtd" >
<svg xmlns="http://www.w3.org/2000/svg" xmlns:xlink="http://www.w3.org/1999/xlink" version="1.1">
<metadata>
Created by FontForge 20170910 at Thu Jun 27 18:55:05 2013
 By Jimmy Wärting
Copyright c The Font Bureau, Inc., 2008. All rights reserved.
</metadata>
<defs>
<font id="BentonSans-Regular" horiz-adv-x="650" >
  <font-face 
    font-family="Benton Sans"
    font-weight="400"
    font-stretch="normal"
    units-per-em="1000"
    panose-1="2 0 5 4 2 0 0 2 0 4"
    ascent="787"
    descent="-213"
    x-height="528"
    cap-height="740"
    bbox="-94 -248 1352 966"
    underline-thickness="0"
    underline-position="0"
    unicode-range="U+0020-FB04"
  />
<missing-glyph horiz-adv-x="500" 
d="M0 0v700h500v-700h-500zM50 650v-600h400v600h-400z" />
    <glyph glyph-name="f_f" unicode="ff" horiz-adv-x="645" 
d="M203 0h-86v457h-92v71h92v71c0 89 49 143 152 143c17 0 39 -3 48 -3v-69c-9 1 -24 2 -35 2c-48 0 -79 -23 -79 -74v-70h213v69c0 89 46 145 158 145c16 0 41 -3 50 -3v-70c-9 2 -26 3 -37 3c-49 0 -85 -17 -85 -74v-70h116v-71h-116v-457h-86v457h-213v-457z" />
    <glyph glyph-name="f_i" unicode="fi" horiz-adv-x="591" 
d="M503 638h-88v87h88v-87zM203 0h-86v457h-92v71h92v71c0 89 49 143 152 143c16 0 39 -3 48 -3v-70c-9 2 -24 2 -35 2c-48 0 -79 -22 -79 -74v-69h110v-71h-110v-457zM502 0h-86v528h86v-528z" />
    <glyph glyph-name="f_l" unicode="fl" horiz-adv-x="589" 
d="M502 0h-86v740h86v-740zM203 0h-86v457h-92v71h92v71c0 89 49 143 152 143c16 0 39 -3 48 -3v-70c-9 2 -24 2 -35 2c-48 0 -79 -22 -79 -74v-69h110v-71h-110v-457z" />
    <glyph glyph-name="f_f_i" unicode="ffi" horiz-adv-x="881" 
d="M801 638h-88v87h88v-87zM800 0h-86v528h86v-528zM203 0h-86v457h-92v71h92v71c0 89 49 143 152 143c17 0 39 -3 48 -3v-70c-9 2 -24 2 -35 2c-48 0 -79 -22 -79 -74v-69h213v68c0 89 49 146 152 146c15 0 38 -3 47 -3v-70c-8 2 -24 2 -35 2c-48 0 -78 -22 -78 -74v-69
h109v-71h-109v-457h-86v457h-213v-457z" />
    <glyph glyph-name="f_f_l" unicode="ffl" horiz-adv-x="881" 
d="M800 0h-86v740h86v-740zM203 0h-86v457h-92v71h92v71c0 89 49 143 152 143c17 0 39 -3 48 -3v-70c-9 2 -24 2 -35 2c-48 0 -79 -22 -79 -74v-69h213v68c0 89 49 146 152 146c15 0 38 -3 47 -3v-70c-8 2 -24 2 -35 2c-48 0 -78 -22 -78 -74v-69h109v-71h-109v-457h-86v457
h-213v-457z" />
    <glyph glyph-name="f_j" unicode="fj" horiz-adv-x="589" 
d="M503 638h-88v87h88v-87zM203 0h-86v457h-92v71h92v71c0 89 49 143 152 143c16 0 39 -3 48 -3v-70c-9 2 -24 2 -35 2c-48 0 -79 -22 -79 -74v-69h110v-71h-110v-457zM380 -201c-14 0 -45 3 -52 4v65c8 -2 22 -4 35 -4c33 0 53 18 53 61v603h86v-609
c0 -72 -29 -120 -122 -120z" />
    <glyph glyph-name=".notdef" horiz-adv-x="500" 
d="M0 0v700h500v-700h-500zM50 650v-600h400v600h-400z" />
    <glyph glyph-name="space" unicode=" " horiz-adv-x="234" 
 />
    <glyph glyph-name="space" unicode="&#xa0;" horiz-adv-x="234" 
 />
    <glyph glyph-name="A" unicode="A" horiz-adv-x="680" 
d="M337 636l-120 -347h240l-118 347h-2zM117 0h-85l262 743h92l262 -743h-91l-73 212h-294z" />
    <glyph glyph-name="Agrave" unicode="&#xc0;" horiz-adv-x="680" 
d="M371 787h-57l-142 158h105zM337 636l-120 -347h240l-118 347h-2zM117 0h-85l262 743h92l262 -743h-91l-73 212h-294z" />
    <glyph glyph-name="Aacute" unicode="&#xc1;" horiz-adv-x="680" 
d="M366 787h-57l94 158h105zM337 636l-120 -347h240l-118 347h-2zM117 0h-85l262 743h92l262 -743h-91l-73 212h-294z" />
    <glyph glyph-name="Acircumflex" unicode="&#xc2;" horiz-adv-x="680" 
d="M230 784h-52l129 161h63l129 -161h-52l-109 94zM337 636l-120 -347h240l-118 347h-2zM117 0h-85l262 743h92l262 -743h-91l-73 212h-294z" />
    <glyph glyph-name="Atilde" unicode="&#xc3;" horiz-adv-x="680" 
d="M414 782c-59 0 -105 56 -146 56c-29 0 -41 -15 -41 -54h-53c0 83 33 119 92 119s105 -56 147 -56c28 0 41 15 41 54h51c0 -82 -33 -119 -91 -119zM337 636l-120 -347h240l-118 347h-2zM117 0h-85l262 743h92l262 -743h-91l-73 212h-294z" />
    <glyph glyph-name="Adieresis" unicode="&#xc4;" horiz-adv-x="680" 
d="M291 785h-88v94h88v-94zM474 785h-89v94h89v-94zM337 636l-120 -347h240l-118 347h-2zM117 0h-85l262 743h92l262 -743h-91l-73 212h-294z" />
    <glyph glyph-name="Aring" unicode="&#xc5;" horiz-adv-x="680" 
d="M340 745c30 0 52 23 52 55c0 31 -22 54 -52 54s-52 -23 -52 -54c0 -32 22 -55 52 -55zM337 636l-120 -347h240l-118 347h-2zM394 721l254 -721h-91l-73 212h-294l-73 -212h-85l254 721c-25 16 -41 45 -41 79c0 53 40 93 95 93s95 -40 95 -93c0 -34 -16 -63 -41 -79z" />
    <glyph glyph-name="Amacron" unicode="&#x100;" horiz-adv-x="680" 
d="M474 784h-270v69h270v-69zM337 636l-120 -347h240l-118 347h-2zM117 0h-85l262 743h92l262 -743h-91l-73 212h-294z" />
    <glyph glyph-name="Abreve" unicode="&#x102;" horiz-adv-x="680" 
d="M339 780c-93 0 -150 67 -155 168h52c9 -77 48 -104 103 -104s94 27 103 104h52c-5 -101 -62 -168 -155 -168zM337 636l-120 -347h240l-118 347h-2zM117 0h-85l262 743h92l262 -743h-91l-73 212h-294z" />
    <glyph glyph-name="Aogonek" unicode="&#x104;" horiz-adv-x="680" 
d="M337 636l-120 -347h240l-118 347h-2zM704 -149c-41 -23 -85 -38 -132 -38c-61 0 -97 29 -97 77c0 39 36 81 82 111l-73 211h-294l-73 -212h-85l262 743h92l262 -743h-39c-43 -31 -67 -64 -67 -97c0 -27 14 -46 51 -46c34 0 62 10 93 24z" />
    <glyph glyph-name="B" unicode="B" horiz-adv-x="691" 
d="M377 0h-286v740h265c161 0 253 -62 253 -185c0 -101 -61 -155 -137 -171v-2c91 -17 161 -72 161 -180c0 -124 -92 -202 -256 -202zM178 662v-245h170c111 0 175 39 175 124s-53 121 -173 121h-172zM178 341v-264h193c121 0 175 46 175 131c0 93 -74 133 -193 133h-175z
" />
    <glyph glyph-name="C" unicode="C" horiz-adv-x="705" 
d="M369 -14c-188 0 -314 145 -314 387c0 231 129 381 314 381c157 0 240 -91 274 -227l-84 -23c-32 112 -83 169 -191 169c-138 0 -224 -116 -224 -299c0 -196 88 -308 226 -308c105 0 170 59 201 179l83 -19c-36 -146 -130 -240 -285 -240z" />
    <glyph glyph-name="Ccedilla" unicode="&#xc7;" horiz-adv-x="705" 
d="M370 -196c-48 0 -94 13 -129 36l21 33c30 -20 65 -30 99 -30c48 0 69 17 69 45c0 22 -14 34 -40 34c-20 0 -36 -9 -50 -20l-30 15l21 71c-167 18 -276 162 -276 385c0 229 129 381 314 381c157 0 240 -91 274 -227l-84 -23c-32 112 -83 175 -191 175
c-138 0 -224 -122 -224 -305c0 -196 88 -314 226 -314c105 0 170 65 201 185l83 -19c-35 -144 -126 -236 -275 -240l-12 -38c14 9 32 15 56 15c38 0 71 -24 71 -68c0 -63 -56 -91 -124 -91z" />
    <glyph glyph-name="Cacute" unicode="&#x106;" horiz-adv-x="705" 
d="M359 786h-57l94 158h105zM369 -14c-188 0 -314 145 -314 387c0 231 129 381 314 381c157 0 240 -91 274 -227l-84 -23c-32 112 -83 169 -191 169c-138 0 -224 -116 -224 -299c0 -196 88 -308 226 -308c105 0 170 59 201 179l83 -19c-36 -146 -130 -240 -285 -240z" />
    <glyph glyph-name="Ccircumflex" unicode="&#x108;" horiz-adv-x="705" 
d="M257 783h-52l129 161h63l129 -161h-52l-109 94zM369 -14c-188 0 -314 145 -314 387c0 231 129 381 314 381c157 0 240 -91 274 -227l-84 -23c-32 112 -83 169 -191 169c-138 0 -224 -116 -224 -299c0 -196 88 -308 226 -308c105 0 170 59 201 179l83 -19
c-36 -146 -130 -240 -285 -240z" />
    <glyph glyph-name="Cdotaccent" unicode="&#x10a;" horiz-adv-x="705" 
d="M415 790h-100v90h100v-90zM369 -14c-188 0 -314 145 -314 387c0 231 129 381 314 381c157 0 240 -91 274 -227l-84 -23c-32 112 -83 169 -191 169c-138 0 -224 -116 -224 -299c0 -196 88 -308 226 -308c105 0 170 59 201 179l83 -19c-36 -146 -130 -240 -285 -240z" />
    <glyph glyph-name="Ccaron" unicode="&#x10c;" horiz-adv-x="705" 
d="M383 787h-63l-129 161h53l108 -94l108 94h52zM369 -14c-188 0 -314 145 -314 387c0 231 129 381 314 381c157 0 240 -91 274 -227l-84 -23c-32 112 -83 169 -191 169c-138 0 -224 -116 -224 -299c0 -196 88 -308 226 -308c105 0 170 59 201 179l83 -19
c-36 -146 -130 -240 -285 -240z" />
    <glyph glyph-name="D" unicode="D" horiz-adv-x="715" 
d="M286 0h-195v740h195c238 0 373 -120 373 -368c0 -251 -138 -372 -373 -372zM179 659v-580h118c179 0 274 87 274 293c0 199 -96 287 -276 287h-116z" />
    <glyph glyph-name="Dcaron" unicode="&#x10e;" horiz-adv-x="715" 
d="M388 787h-63l-129 161h53l108 -94l108 94h52zM286 0h-195v740h195c238 0 373 -120 373 -368c0 -251 -138 -372 -373 -372zM179 659v-580h118c179 0 274 87 274 293c0 199 -96 287 -276 287h-116z" />
    <glyph glyph-name="E" unicode="E" horiz-adv-x="609" 
d="M566 0h-475v740h454v-81h-366v-231h272v-79h-272v-269h387v-80z" />
    <glyph glyph-name="Egrave" unicode="&#xc8;" horiz-adv-x="609" 
d="M369 787h-57l-142 158h105zM566 0h-475v740h454v-81h-366v-231h272v-79h-272v-269h387v-80z" />
    <glyph glyph-name="Eacute" unicode="&#xc9;" horiz-adv-x="609" 
d="M323 787h-57l94 158h105zM566 0h-475v740h454v-81h-366v-231h272v-79h-272v-269h387v-80z" />
    <glyph glyph-name="Ecircumflex" unicode="&#xca;" horiz-adv-x="609" 
d="M208 784h-52l129 161h63l129 -161h-52l-109 94zM566 0h-475v740h454v-81h-366v-231h272v-79h-272v-269h387v-80z" />
    <glyph glyph-name="Edieresis" unicode="&#xcb;" horiz-adv-x="609" 
d="M274 785h-88v94h88v-94zM457 785h-89v94h89v-94zM566 0h-475v740h454v-81h-366v-231h272v-79h-272v-269h387v-80z" />
    <glyph glyph-name="Emacron" unicode="&#x112;" horiz-adv-x="609" 
d="M459 784h-270v69h270v-69zM566 0h-475v740h454v-81h-366v-231h272v-79h-272v-269h387v-80z" />
    <glyph glyph-name="Ebreve" unicode="&#x114;" horiz-adv-x="609" 
d="M306 778c-93 0 -150 67 -155 168h52c9 -77 48 -104 103 -104s94 27 103 104h52c-5 -101 -62 -168 -155 -168zM566 0h-475v740h454v-81h-366v-231h272v-79h-272v-269h387v-80z" />
    <glyph glyph-name="Edotaccent" unicode="&#x116;" horiz-adv-x="609" 
d="M374 790h-100v90h100v-90zM566 0h-475v740h454v-81h-366v-231h272v-79h-272v-269h387v-80z" />
    <glyph glyph-name="Eogonek" unicode="&#x118;" horiz-adv-x="609" 
d="M581 -149c-41 -23 -85 -38 -132 -38c-61 0 -97 29 -97 77c0 38 35 79 80 110h-341v740h454v-81h-366v-231h272v-79h-272v-269h387v-80h-80c-43 -31 -67 -64 -67 -97c0 -27 14 -46 51 -46c34 0 62 10 93 24z" />
    <glyph glyph-name="Ecaron" unicode="&#x11a;" horiz-adv-x="609" 
d="M355 787h-63l-129 161h53l108 -94l108 94h52zM566 0h-475v740h454v-81h-366v-231h272v-79h-272v-269h387v-80z" />
    <glyph glyph-name="F" unicode="F" horiz-adv-x="569" 
d="M179 0h-88v740h444v-81h-356v-238h262v-79h-262v-342z" />
    <glyph glyph-name="G" unicode="G" horiz-adv-x="730" 
d="M364 -14c-200 0 -309 163 -309 387c0 235 130 381 315 381c140 0 235 -74 274 -229l-82 -21c-35 119 -90 169 -193 169c-116 0 -225 -89 -225 -297c0 -207 97 -311 228 -311c115 0 193 78 195 215h-170v74h255v-354h-77v111h-2c-29 -61 -94 -125 -209 -125z" />
    <glyph glyph-name="Gcircumflex" unicode="&#x11c;" horiz-adv-x="730" 
d="M260 783h-52l129 161h63l129 -161h-52l-109 94zM364 -14c-200 0 -309 163 -309 387c0 235 130 381 315 381c140 0 235 -74 274 -229l-82 -21c-35 119 -90 169 -193 169c-116 0 -225 -89 -225 -297c0 -207 97 -311 228 -311c115 0 193 78 195 215h-170v74h255v-354h-77
v111h-2c-29 -61 -94 -125 -209 -125z" />
    <glyph glyph-name="Gbreve" unicode="&#x11e;" horiz-adv-x="730" 
d="M364 780c-93 0 -150 67 -155 168h52c9 -77 48 -104 103 -104s94 27 103 104h52c-5 -101 -62 -168 -155 -168zM364 -14c-200 0 -309 163 -309 387c0 235 130 381 315 381c140 0 235 -74 274 -229l-82 -21c-35 119 -90 169 -193 169c-116 0 -225 -89 -225 -297
c0 -207 97 -311 228 -311c115 0 193 78 195 215h-170v74h255v-354h-77v111h-2c-29 -61 -94 -125 -209 -125z" />
    <glyph glyph-name="Gdotaccent" unicode="&#x120;" horiz-adv-x="730" 
d="M413 790h-100v90h100v-90zM364 -14c-200 0 -309 163 -309 387c0 235 130 381 315 381c140 0 235 -74 274 -229l-82 -21c-35 119 -90 169 -193 169c-116 0 -225 -89 -225 -297c0 -207 97 -311 228 -311c115 0 193 78 195 215h-170v74h255v-354h-77v111h-2
c-29 -61 -94 -125 -209 -125z" />
    <glyph glyph-name="Gcommaaccent" unicode="&#x122;" horiz-adv-x="730" 
d="M364 -14c-200 0 -309 163 -309 387c0 235 130 381 315 381c140 0 235 -74 274 -229l-82 -21c-35 119 -90 169 -193 169c-116 0 -225 -89 -225 -297c0 -207 97 -311 228 -311c115 0 193 78 195 215h-170v74h255v-354h-77v111h-2c-29 -61 -94 -125 -209 -125zM329 -248
l26 102h-37v98h95v-88l-47 -112h-37z" />
    <glyph glyph-name="H" unicode="H" horiz-adv-x="739" 
d="M179 0h-88v740h88v-310h381v310h88v-740h-88v349h-381v-349z" />
    <glyph glyph-name="Hcircumflex" unicode="&#x124;" horiz-adv-x="739" 
d="M260 783h-52l129 161h63l129 -161h-52l-109 94zM179 0h-88v740h88v-310h381v310h88v-740h-88v349h-381v-349z" />
    <glyph glyph-name="I" unicode="I" horiz-adv-x="290" 
d="M189 0h-88v740h88v-740z" />
    <glyph glyph-name="Igrave" unicode="&#xcc;" horiz-adv-x="290" 
d="M182 787h-57l-142 158h105zM189 0h-88v740h88v-740z" />
    <glyph glyph-name="Iacute" unicode="&#xcd;" horiz-adv-x="290" 
d="M173 787h-57l94 158h105zM189 0h-88v740h88v-740z" />
    <glyph glyph-name="Icircumflex" unicode="&#xce;" horiz-adv-x="290" 
d="M36 784h-52l129 161h63l129 -161h-52l-109 94zM189 0h-88v740h88v-740z" />
    <glyph glyph-name="Idieresis" unicode="&#xcf;" horiz-adv-x="290" 
d="M97 785h-88v94h88v-94zM280 785h-89v94h89v-94zM189 0h-88v740h88v-740z" />
    <glyph glyph-name="Itilde" unicode="&#x128;" horiz-adv-x="290" 
d="M220 781c-59 0 -105 56 -146 56c-29 0 -41 -15 -41 -54h-53c0 83 33 119 92 119s105 -56 147 -56c28 0 41 15 41 54h51c0 -82 -33 -119 -91 -119zM189 0h-88v740h88v-740z" />
    <glyph glyph-name="Imacron" unicode="&#x12a;" horiz-adv-x="290" 
d="M280 784h-270v69h270v-69zM189 0h-88v740h88v-740z" />
    <glyph glyph-name="Ibreve" unicode="&#x12c;" horiz-adv-x="290" 
d="M145 778c-93 0 -150 67 -155 168h52c9 -77 48 -104 103 -104s94 27 103 104h52c-5 -101 -62 -168 -155 -168zM189 0h-88v740h88v-740z" />
    <glyph glyph-name="Iogonek" unicode="&#x12e;" horiz-adv-x="290" 
d="M248 -149c-41 -23 -85 -38 -132 -38c-61 0 -97 29 -97 77c0 39 36 81 82 111v739h88v-740h-36c-43 -31 -67 -64 -67 -97c0 -27 14 -46 51 -46c34 0 62 10 93 24z" />
    <glyph glyph-name="Idotaccent" unicode="&#x130;" horiz-adv-x="290" 
d="M195 790h-100v90h100v-90zM189 0h-88v740h88v-740z" />
    <glyph glyph-name="J" unicode="J" horiz-adv-x="505" 
d="M212 -14c-90 0 -146 39 -188 97l59 50c30 -41 68 -70 126 -70c75 0 125 36 125 143v534h88v-540c0 -139 -79 -214 -210 -214z" />
    <glyph glyph-name="Jcircumflex" unicode="&#x134;" horiz-adv-x="505" 
d="M268 783h-52l129 161h63l129 -161h-52l-109 94zM212 -14c-90 0 -146 39 -188 97l59 50c30 -41 68 -70 126 -70c75 0 125 36 125 143v534h88v-540c0 -139 -79 -214 -210 -214z" />
    <glyph glyph-name="K" unicode="K" horiz-adv-x="678" 
d="M179 0h-88v740h88v-382l335 382h106l-254 -282l289 -458h-101l-246 391l-129 -141v-250z" />
    <glyph glyph-name="Kcommaaccent" unicode="&#x136;" horiz-adv-x="678" 
d="M179 0h-88v740h88v-382l335 382h106l-254 -282l289 -458h-101l-246 391l-129 -141v-250zM302 -248l26 102h-37v98h95v-88l-47 -112h-37z" />
    <glyph glyph-name="L" unicode="L" horiz-adv-x="569" 
d="M535 0h-444v740h88v-660h356v-80z" />
    <glyph glyph-name="Lacute" unicode="&#x139;" horiz-adv-x="569" 
d="M162 786h-57l94 158h105zM535 0h-444v740h88v-660h356v-80z" />
    <glyph glyph-name="Lcommaaccent" unicode="&#x13b;" horiz-adv-x="569" 
d="M535 0h-444v740h88v-660h356v-80zM248 -248l26 102h-37v98h95v-88l-47 -112h-37z" />
    <glyph glyph-name="Lcaron" unicode="&#x13d;" horiz-adv-x="569" 
d="M535 0h-444v740h88v-660h356v-80zM314 539l26 102h-37v98h95v-88l-47 -112h-37z" />
    <glyph glyph-name="M" unicode="M" horiz-adv-x="878" 
d="M172 0h-81v740h115l233 -629h2l229 629h117v-740h-87v599h-2c-10 -39 -28 -87 -45 -136l-177 -463h-79l-177 463c-18 49 -30 80 -46 139h-2v-602z" />
    <glyph glyph-name="N" unicode="N" horiz-adv-x="749" 
d="M174 0h-83v740h93l389 -585h2v585h83v-740h-79l-403 601h-2v-601z" />
    <glyph glyph-name="Ntilde" unicode="&#xd1;" horiz-adv-x="749" 
d="M457 782c-59 0 -105 56 -146 56c-29 0 -41 -15 -41 -54h-53c0 83 33 119 92 119s105 -56 147 -56c28 0 41 15 41 54h51c0 -82 -33 -119 -91 -119zM174 0h-83v740h93l389 -585h2v585h83v-740h-79l-403 601h-2v-601z" />
    <glyph glyph-name="Nacute" unicode="&#x143;" horiz-adv-x="749" 
d="M358 786h-57l94 158h105zM174 0h-83v740h93l389 -585h2v585h83v-740h-79l-403 601h-2v-601z" />
    <glyph glyph-name="Ncommaaccent" unicode="&#x145;" horiz-adv-x="749" 
d="M174 0h-83v740h93l389 -585h2v585h83v-740h-79l-403 601h-2v-601zM338 -248l26 102h-37v98h95v-88l-47 -112h-37z" />
    <glyph glyph-name="Ncaron" unicode="&#x147;" horiz-adv-x="749" 
d="M405 787h-63l-129 161h53l108 -94l108 94h52zM174 0h-83v740h93l389 -585h2v585h83v-740h-79l-403 601h-2v-601z" />
    <glyph glyph-name="O" unicode="O" horiz-adv-x="749" 
d="M375 -14c-183 0 -320 146 -320 384s137 384 320 384s318 -146 318 -384s-135 -384 -318 -384zM375 65c134 0 230 112 230 305s-96 304 -230 304c-136 0 -231 -111 -231 -304s95 -305 231 -305z" />
    <glyph glyph-name="Ograve" unicode="&#xd2;" horiz-adv-x="749" 
d="M415 787h-57l-142 158h105zM375 -14c-183 0 -320 146 -320 384s137 384 320 384s318 -146 318 -384s-135 -384 -318 -384zM375 65c134 0 230 112 230 305s-96 304 -230 304c-136 0 -231 -111 -231 -304s95 -305 231 -305z" />
    <glyph glyph-name="Oacute" unicode="&#xd3;" horiz-adv-x="749" 
d="M386 787h-57l94 158h105zM375 -14c-183 0 -320 146 -320 384s137 384 320 384s318 -146 318 -384s-135 -384 -318 -384zM375 65c134 0 230 112 230 305s-96 304 -230 304c-136 0 -231 -111 -231 -304s95 -305 231 -305z" />
    <glyph glyph-name="Ocircumflex" unicode="&#xd4;" horiz-adv-x="749" 
d="M265 784h-52l129 161h63l129 -161h-52l-109 94zM375 -14c-183 0 -320 146 -320 384s137 384 320 384s318 -146 318 -384s-135 -384 -318 -384zM375 65c134 0 230 112 230 305s-96 304 -230 304c-136 0 -231 -111 -231 -304s95 -305 231 -305z" />
    <glyph glyph-name="Otilde" unicode="&#xd5;" horiz-adv-x="749" 
d="M447 782c-59 0 -105 56 -146 56c-29 0 -41 -15 -41 -54h-53c0 83 33 119 92 119s105 -56 147 -56c28 0 41 15 41 54h51c0 -82 -33 -119 -91 -119zM375 -14c-183 0 -320 146 -320 384s137 384 320 384s318 -146 318 -384s-135 -384 -318 -384zM375 65
c134 0 230 112 230 305s-96 304 -230 304c-136 0 -231 -111 -231 -304s95 -305 231 -305z" />
    <glyph glyph-name="Odieresis" unicode="&#xd6;" horiz-adv-x="749" 
d="M325 785h-88v94h88v-94zM508 785h-89v94h89v-94zM375 -14c-183 0 -320 146 -320 384s137 384 320 384s318 -146 318 -384s-135 -384 -318 -384zM375 65c134 0 230 112 230 305s-96 304 -230 304c-136 0 -231 -111 -231 -304s95 -305 231 -305z" />
    <glyph glyph-name="Omacron" unicode="&#x14c;" horiz-adv-x="749" 
d="M508 784h-270v69h270v-69zM375 -14c-183 0 -320 146 -320 384s137 384 320 384s318 -146 318 -384s-135 -384 -318 -384zM375 65c134 0 230 112 230 305s-96 304 -230 304c-136 0 -231 -111 -231 -304s95 -305 231 -305z" />
    <glyph glyph-name="Obreve" unicode="&#x14e;" horiz-adv-x="749" 
d="M373 780c-93 0 -150 67 -155 168h52c9 -77 48 -104 103 -104s94 27 103 104h52c-5 -101 -62 -168 -155 -168zM375 -14c-183 0 -320 146 -320 384s137 384 320 384s318 -146 318 -384s-135 -384 -318 -384zM375 65c134 0 230 112 230 305s-96 304 -230 304
c-136 0 -231 -111 -231 -304s95 -305 231 -305z" />
    <glyph glyph-name="Ohungarumlaut" unicode="&#x150;" horiz-adv-x="749" 
d="M291 786h-58l97 158h106zM458 786h-59l100 158h106zM375 -14c-183 0 -320 146 -320 384s137 384 320 384s318 -146 318 -384s-135 -384 -318 -384zM375 65c134 0 230 112 230 305s-96 304 -230 304c-136 0 -231 -111 -231 -304s95 -305 231 -305z" />
    <glyph glyph-name="P" unicode="P" horiz-adv-x="649" 
d="M179 0h-88v740h251c160 0 267 -63 267 -210c0 -158 -118 -217 -273 -217h-157v-313zM179 660v-269h162c118 0 181 36 181 136c0 95 -62 133 -182 133h-161z" />
    <glyph glyph-name="Q" unicode="Q" horiz-adv-x="749" 
d="M627 -188h-77c-151 0 -223 75 -225 179c-157 21 -270 165 -270 379c0 238 141 384 320 384c178 0 318 -146 318 -384c0 -219 -118 -362 -279 -380c10 -84 70 -102 162 -102h51v-76zM375 64c134 0 229 113 229 306s-95 304 -229 304c-136 0 -232 -111 -232 -304
s96 -306 232 -306z" />
    <glyph glyph-name="R" unicode="R" horiz-adv-x="677" 
d="M178 660v-263h162c116 0 181 32 181 133c0 97 -64 130 -182 130h-161zM178 0h-87v740h254c168 0 263 -71 263 -207c0 -119 -67 -181 -172 -203l182 -330h-96l-177 319h-167v-319z" />
    <glyph glyph-name="Racute" unicode="&#x154;" horiz-adv-x="677" 
d="M337 786h-57l94 158h105zM178 660v-263h162c116 0 181 32 181 133c0 97 -64 130 -182 130h-161zM178 0h-87v740h254c168 0 263 -71 263 -207c0 -119 -67 -181 -172 -203l182 -330h-96l-177 319h-167v-319z" />
    <glyph glyph-name="Rcommaaccent" unicode="&#x156;" horiz-adv-x="677" 
d="M178 660v-263h162c116 0 181 32 181 133c0 97 -64 130 -182 130h-161zM178 0h-87v740h254c168 0 263 -71 263 -207c0 -119 -67 -181 -172 -203l182 -330h-96l-177 319h-167v-319zM302 -248l26 102h-37v98h95v-88l-47 -112h-37z" />
    <glyph glyph-name="Rcaron" unicode="&#x158;" horiz-adv-x="677" 
d="M369 787h-63l-129 161h53l108 -94l108 94h52zM178 660v-263h162c116 0 181 32 181 133c0 97 -64 130 -182 130h-161zM178 0h-87v740h254c168 0 263 -71 263 -207c0 -119 -67 -181 -172 -203l182 -330h-96l-177 319h-167v-319z" />
    <glyph glyph-name="S" unicode="S" horiz-adv-x="657" 
d="M334 -14c-141 0 -241 76 -280 193l74 33c37 -99 110 -148 210 -148c104 0 173 44 173 122c0 73 -40 109 -186 155c-154 47 -246 89 -246 217c0 113 97 196 238 196s223 -72 261 -166l-70 -39c-40 89 -104 125 -192 125c-94 0 -150 -46 -150 -109c0 -79 50 -105 195 -151
c149 -46 237 -96 237 -222c0 -122 -107 -206 -264 -206z" />
    <glyph glyph-name="Sacute" unicode="&#x15a;" horiz-adv-x="657" 
d="M327 786h-57l94 158h105zM334 -14c-141 0 -241 76 -280 193l74 33c37 -99 110 -148 210 -148c104 0 173 44 173 122c0 73 -40 109 -186 155c-154 47 -246 89 -246 217c0 113 97 196 238 196s223 -72 261 -166l-70 -39c-40 89 -104 125 -192 125c-94 0 -150 -46 -150 -109
c0 -79 50 -105 195 -151c149 -46 237 -96 237 -222c0 -122 -107 -206 -264 -206z" />
    <glyph glyph-name="Scircumflex" unicode="&#x15c;" horiz-adv-x="657" 
d="M216 783h-52l129 161h63l129 -161h-52l-109 94zM334 -14c-141 0 -241 76 -280 193l74 33c37 -99 110 -148 210 -148c104 0 173 44 173 122c0 73 -40 109 -186 155c-154 47 -246 89 -246 217c0 113 97 196 238 196s223 -72 261 -166l-70 -39c-40 89 -104 125 -192 125
c-94 0 -150 -46 -150 -109c0 -79 50 -105 195 -151c149 -46 237 -96 237 -222c0 -122 -107 -206 -264 -206z" />
    <glyph glyph-name="Scedilla" unicode="&#x15e;" horiz-adv-x="657" 
d="M330 -196c-48 0 -93 13 -128 36l20 33c30 -20 66 -30 100 -30c48 0 69 17 69 45c0 22 -14 34 -40 34c-21 0 -36 -9 -50 -20l-31 15l22 71c-119 14 -203 86 -238 191l74 33c37 -99 110 -148 210 -148c104 0 173 44 173 122c0 73 -40 109 -186 155
c-154 47 -246 89 -246 217c0 113 97 196 238 196s223 -72 261 -166l-70 -39c-40 89 -104 125 -192 125c-94 0 -150 -46 -150 -109c0 -79 50 -105 195 -151c149 -46 237 -96 237 -222c0 -122 -107 -206 -259 -206l-11 -38c14 9 32 15 56 15c37 0 71 -24 71 -68
c0 -63 -56 -91 -125 -91z" />
    <glyph glyph-name="Scaron" unicode="&#x160;" horiz-adv-x="657" 
d="M359 795h-63l-129 161h53l108 -94l108 94h52zM334 -14c-141 0 -241 76 -280 193l74 33c37 -99 110 -148 210 -148c104 0 173 44 173 122c0 73 -40 109 -186 155c-154 47 -246 89 -246 217c0 113 97 196 238 196s223 -72 261 -166l-70 -39c-40 89 -104 125 -192 125
c-94 0 -150 -46 -150 -109c0 -79 50 -105 195 -151c149 -46 237 -96 237 -222c0 -122 -107 -206 -264 -206z" />
    <glyph glyph-name="Scommaaccent" unicode="&#x218;" horiz-adv-x="657" 
d="M334 -14c-141 0 -241 76 -280 193l74 33c37 -99 110 -148 210 -148c104 0 173 44 173 122c0 73 -40 109 -186 155c-154 47 -246 89 -246 217c0 113 97 196 238 196s223 -72 261 -166l-70 -39c-40 89 -104 125 -192 125c-94 0 -150 -46 -150 -109c0 -79 50 -105 195 -151
c149 -46 237 -96 237 -222c0 -122 -107 -206 -264 -206zM292 -248l26 102h-37v98h95v-88l-47 -112h-37z" />
    <glyph glyph-name="T" unicode="T" horiz-adv-x="623" 
d="M355 0h-88v659h-235v81h559v-81h-236v-659z" />
    <glyph glyph-name="Tcommaaccent" unicode="&#x21a;" horiz-adv-x="623" 
d="M355 0h-88v659h-235v81h559v-81h-236v-659zM275 -248l26 102h-37v98h95v-88l-47 -112h-37z" />
    <glyph glyph-name="Tcaron" unicode="&#x164;" horiz-adv-x="623" 
d="M342 787h-63l-129 161h53l108 -94l108 94h52zM355 0h-88v659h-235v81h559v-81h-236v-659z" />
    <glyph glyph-name="U" unicode="U" horiz-adv-x="717" 
d="M359 -13c-190 0 -275 116 -275 269v484h88v-472c0 -119 57 -202 188 -202c129 0 186 80 186 200v474h87v-482c0 -154 -91 -271 -274 -271z" />
    <glyph glyph-name="Ugrave" unicode="&#xd9;" horiz-adv-x="717" 
d="M404 787h-57l-142 158h105zM359 -13c-190 0 -275 116 -275 269v484h88v-472c0 -119 57 -202 188 -202c129 0 186 80 186 200v474h87v-482c0 -154 -91 -271 -274 -271z" />
    <glyph glyph-name="Uacute" unicode="&#xda;" horiz-adv-x="717" 
d="M362 787h-57l94 158h105zM359 -13c-190 0 -275 116 -275 269v484h88v-472c0 -119 57 -202 188 -202c129 0 186 80 186 200v474h87v-482c0 -154 -91 -271 -274 -271z" />
    <glyph glyph-name="Ucircumflex" unicode="&#xdb;" horiz-adv-x="717" 
d="M249 784h-52l129 161h63l129 -161h-52l-109 94zM359 -13c-190 0 -275 116 -275 269v484h88v-472c0 -119 57 -202 188 -202c129 0 186 80 186 200v474h87v-482c0 -154 -91 -271 -274 -271z" />
    <glyph glyph-name="Udieresis" unicode="&#xdc;" horiz-adv-x="717" 
d="M310 785h-88v94h88v-94zM493 785h-89v94h89v-94zM359 -13c-190 0 -275 116 -275 269v484h88v-472c0 -119 57 -202 188 -202c129 0 186 80 186 200v474h87v-482c0 -154 -91 -271 -274 -271z" />
    <glyph glyph-name="Utilde" unicode="&#x168;" horiz-adv-x="717" 
d="M432 781c-59 0 -105 56 -146 56c-29 0 -41 -15 -41 -54h-53c0 83 33 119 92 119s105 -56 147 -56c28 0 41 15 41 54h51c0 -82 -33 -119 -91 -119zM359 -13c-190 0 -275 116 -275 269v484h88v-472c0 -119 57 -202 188 -202c129 0 186 80 186 200v474h87v-482
c0 -154 -91 -271 -274 -271z" />
    <glyph glyph-name="Umacron" unicode="&#x16a;" horiz-adv-x="717" 
d="M493 784h-270v69h270v-69zM359 -13c-190 0 -275 116 -275 269v484h88v-472c0 -119 57 -202 188 -202c129 0 186 80 186 200v474h87v-482c0 -154 -91 -271 -274 -271z" />
    <glyph glyph-name="Ubreve" unicode="&#x16c;" horiz-adv-x="717" 
d="M358 780c-93 0 -150 67 -155 168h52c9 -77 48 -104 103 -104s94 27 103 104h52c-5 -101 -62 -168 -155 -168zM359 -13c-190 0 -275 116 -275 269v484h88v-472c0 -119 57 -202 188 -202c129 0 186 80 186 200v474h87v-482c0 -154 -91 -271 -274 -271z" />
    <glyph glyph-name="Uring" unicode="&#x16e;" horiz-adv-x="717" 
d="M358 778c-55 0 -95 41 -95 95c0 53 40 93 95 93s95 -40 95 -93c0 -54 -40 -95 -95 -95zM358 818c30 0 52 23 52 55c0 31 -22 54 -52 54s-52 -23 -52 -54c0 -32 22 -55 52 -55zM359 -13c-190 0 -275 116 -275 269v484h88v-472c0 -119 57 -202 188 -202
c129 0 186 80 186 200v474h87v-482c0 -154 -91 -271 -274 -271z" />
    <glyph glyph-name="Uhungarumlaut" unicode="&#x170;" horiz-adv-x="717" 
d="M277 786h-58l97 158h106zM444 786h-59l100 158h106zM359 -13c-190 0 -275 116 -275 269v484h88v-472c0 -119 57 -202 188 -202c129 0 186 80 186 200v474h87v-482c0 -154 -91 -271 -274 -271z" />
    <glyph glyph-name="Uogonek" unicode="&#x172;" horiz-adv-x="717" 
d="M368 -187c-61 0 -97 29 -97 77c0 33 27 69 63 98c-172 9 -250 122 -250 268v484h88v-472c0 -119 57 -202 188 -202c129 0 186 80 186 200v474h87v-482c0 -145 -81 -258 -244 -270c-33 -27 -51 -56 -51 -85c0 -27 14 -46 51 -46c34 0 62 10 93 24l18 -30
c-41 -23 -85 -38 -132 -38z" />
    <glyph glyph-name="V" unicode="V" horiz-adv-x="666" 
d="M374 -3h-82l-260 743h90l212 -625h2l213 625h85z" />
    <glyph glyph-name="W" unicode="W" horiz-adv-x="931" 
d="M314 0h-81l-197 740h89l109 -429c17 -65 33 -128 43 -181h2c10 52 25 116 42 180l103 430h89l106 -433c16 -66 31 -120 41 -177h2c12 60 25 109 41 174l108 436h84l-196 -740h-81l-149 619h-2z" />
    <glyph glyph-name="Wcircumflex" unicode="&#x174;" horiz-adv-x="931" 
d="M356 783h-52l129 161h63l129 -161h-52l-109 94zM314 0h-81l-197 740h89l109 -429c17 -65 33 -128 43 -181h2c10 52 25 116 42 180l103 430h89l106 -433c16 -66 31 -120 41 -177h2c12 60 25 109 41 174l108 436h84l-196 -740h-81l-149 619h-2z" />
    <glyph glyph-name="Wgrave" unicode="&#x1e80;" horiz-adv-x="931" 
d="M540 786h-57l-142 158h105zM314 0h-81l-197 740h89l109 -429c17 -65 33 -128 43 -181h2c10 52 25 116 42 180l103 430h89l106 -433c16 -66 31 -120 41 -177h2c12 60 25 109 41 174l108 436h84l-196 -740h-81l-149 619h-2z" />
    <glyph glyph-name="Wacute" unicode="&#x1e82;" horiz-adv-x="931" 
d="M450 786h-57l94 158h105zM314 0h-81l-197 740h89l109 -429c17 -65 33 -128 43 -181h2c10 52 25 116 42 180l103 430h89l106 -433c16 -66 31 -120 41 -177h2c12 60 25 109 41 174l108 436h84l-196 -740h-81l-149 619h-2z" />
    <glyph glyph-name="Wdieresis" unicode="&#x1e84;" horiz-adv-x="931" 
d="M417 784h-88v94h88v-94zM600 784h-89v94h89v-94zM314 0h-81l-197 740h89l109 -429c17 -65 33 -128 43 -181h2c10 52 25 116 42 180l103 430h89l106 -433c16 -66 31 -120 41 -177h2c12 60 25 109 41 174l108 436h84l-196 -740h-81l-149 619h-2z" />
    <glyph glyph-name="X" unicode="X" horiz-adv-x="670" 
d="M123 0h-91l254 395l-223 345h101l175 -275l172 275h93l-221 -344l255 -396h-96l-209 326z" />
    <glyph glyph-name="Y" unicode="Y" horiz-adv-x="631" 
d="M359 0h-88v324l-249 416h94l201 -341l200 341h92l-250 -416v-324z" />
    <glyph glyph-name="Yacute" unicode="&#xdd;" horiz-adv-x="631" 
d="M289 794h-57l94 158h105zM359 0h-88v324l-249 416h94l201 -341l200 341h92l-250 -416v-324z" />
    <glyph glyph-name="Ycircumflex" unicode="&#x176;" horiz-adv-x="631" 
d="M206 783h-52l129 161h63l129 -161h-52l-109 94zM359 0h-88v324l-249 416h94l201 -341l200 341h92l-250 -416v-324z" />
    <glyph glyph-name="Ydieresis" unicode="&#x178;" horiz-adv-x="631" 
d="M267 785h-88v94h88v-94zM450 785h-89v94h89v-94zM359 0h-88v324l-249 416h94l201 -341l200 341h92l-250 -416v-324z" />
    <glyph glyph-name="Ygrave" unicode="&#x1ef2;" horiz-adv-x="631" 
d="M362 786h-57l-142 158h105zM359 0h-88v324l-249 416h94l201 -341l200 341h92l-250 -416v-324z" />
    <glyph glyph-name="Z" unicode="Z" horiz-adv-x="630" 
d="M581 0h-541v62l433 604h-405v74h513v-64l-430 -603h430v-73z" />
    <glyph glyph-name="Zacute" unicode="&#x179;" horiz-adv-x="630" 
d="M306 786h-57l94 158h105zM581 0h-541v62l433 604h-405v74h513v-64l-430 -603h430v-73z" />
    <glyph glyph-name="Zdotaccent" unicode="&#x17b;" horiz-adv-x="630" 
d="M364 790h-100v90h100v-90zM581 0h-541v62l433 604h-405v74h513v-64l-430 -603h430v-73z" />
    <glyph glyph-name="Zcaron" unicode="&#x17d;" horiz-adv-x="630" 
d="M348 795h-63l-129 161h53l108 -94l108 94h52zM581 0h-541v62l433 604h-405v74h513v-64l-430 -603h430v-73z" />
    <glyph glyph-name="AE" unicode="&#xc6;" horiz-adv-x="1010" 
d="M492 668l-205 -362h206v362h-1zM114 0h-89l421 740h499v-81h-365v-231h271v-79h-271v-269h386v-80h-473v228h-250z" />
    <glyph glyph-name="Eth" unicode="&#xd0;" horiz-adv-x="715" 
d="M286 0h-195v352h-80v72h80v316h195c238 0 373 -120 373 -370c0 -248 -138 -370 -373 -370zM179 352v-273h118c179 0 274 87 274 293c0 199 -96 287 -276 287h-116v-235h158v-72h-158z" />
    <glyph glyph-name="Oslash" unicode="&#xd8;" horiz-adv-x="749" 
d="M187 174l339 438c-39 42 -91 64 -151 64c-136 0 -233 -113 -233 -306c0 -79 16 -146 45 -196zM561 565l-340 -437c40 -42 93 -65 154 -65c135 0 231 114 231 307c0 79 -16 145 -45 195zM690 724l-72 -92c47 -65 75 -154 75 -262c0 -238 -135 -384 -318 -384
c-78 0 -148 27 -203 76l-65 -82l-49 36l73 92c-48 65 -76 154 -76 262c0 238 137 384 320 384c78 0 148 -27 201 -76l66 82z" />
    <glyph glyph-name="Thorn" unicode="&#xde;" horiz-adv-x="653" 
d="M179 0h-88v740h88v-135h162c159 -1 268 -64 268 -211c0 -159 -120 -219 -274 -219h-156v-175zM179 523v-268h160c118 0 181 36 181 136c0 95 -62 132 -182 132h-159z" />
    <glyph glyph-name="Dcroat" unicode="&#x110;" horiz-adv-x="715" 
d="M286 0h-195v352h-80v72h80v316h195c238 0 373 -120 373 -370c0 -248 -138 -370 -373 -370zM179 352v-273h118c179 0 274 87 274 293c0 199 -96 287 -276 287h-116v-235h158v-72h-158z" />
    <glyph glyph-name="Hbar" unicode="&#x126;" horiz-adv-x="739" 
d="M179 430h381v114h-381v-114zM179 349v-349h-87v544h-80v71h80v125h87v-125h381v125h88v-125h80v-71h-80v-544h-88v349h-381z" />
    <glyph glyph-name="IJ" unicode="&#x132;" horiz-adv-x="755" 
d="M189 0h-88v740h88v-740zM462 -13c-90 0 -146 39 -188 97l59 50c30 -41 68 -70 126 -70c75 0 125 36 125 143v534h88v-540c0 -139 -79 -214 -210 -214z" />
    <glyph glyph-name="Ldot" unicode="&#x13f;" horiz-adv-x="582" 
d="M535 0h-444v740h88v-660h356v-80zM378 355v90h94v-90h-94z" />
    <glyph glyph-name="Lslash" unicode="&#x141;" horiz-adv-x="569" 
d="M535 0h-443v342l-85 -22v71l85 23v326h88v-303l155 42v-72l-155 -41v-286h355v-80z" />
    <glyph glyph-name="Eng" unicode="&#x14a;" horiz-adv-x="749" 
d="M92 0v740h92l390 -585h2v585h82v-733c0 -135 -73 -208 -204 -208c-98 0 -151 43 -189 99l55 51c32 -47 70 -77 130 -77c69 0 121 35 124 132v4l-398 594h-2v-602h-82z" />
    <glyph glyph-name="OE" unicode="&#x152;" horiz-adv-x="1121" 
d="M375 65c134 0 229 112 229 305s-95 304 -229 304c-136 0 -232 -111 -232 -304s96 -305 232 -305zM375 -14c-179 0 -320 146 -320 384s141 384 320 384c107 0 189 -56 235 -141v127h447v-81h-366v-231h272v-79h-272v-269h386v-80h-467v129c-46 -85 -128 -143 -235 -143z
" />
    <glyph glyph-name="Tbar" unicode="&#x166;" horiz-adv-x="623" 
d="M590 329h-235v-329h-87v329h-236v71h236v259h-236v81h559v-81h-236v-259h235v-71z" />
    <glyph glyph-name="mu" unicode="&#x3bc;" horiz-adv-x="593" 
d="M162 -200h-86v728h86v-363c0 -69 30 -104 98 -104c63 0 115 33 171 85v382h86v-528h-86v85c-48 -47 -106 -88 -177 -92c-39 -1 -70 5 -92 29v-222z" />
    <glyph glyph-name="a" unicode="a" horiz-adv-x="553" 
d="M218 60c70 0 130 29 179 77v148c-201 -32 -268 -81 -268 -147c0 -51 34 -78 89 -78zM193 -8c-91 0 -149 48 -149 133c0 107 91 183 353 220v24c0 66 -35 98 -100 98c-80 0 -139 -35 -191 -80l-45 54c61 56 140 98 245 98c126 0 176 -66 176 -176v-233
c0 -64 4 -103 15 -130h-88c-7 22 -12 43 -12 73c-59 -55 -125 -81 -204 -81z" />
    <glyph glyph-name="agrave" unicode="&#xe0;" horiz-adv-x="553" 
d="M333 585h-57l-142 158h105zM218 60c70 0 130 29 179 77v148c-201 -32 -268 -81 -268 -147c0 -51 34 -78 89 -78zM193 -8c-91 0 -149 48 -149 133c0 107 91 183 353 220v24c0 66 -35 98 -100 98c-80 0 -139 -35 -191 -80l-45 54c61 56 140 98 245 98
c126 0 176 -66 176 -176v-233c0 -64 4 -103 15 -130h-88c-7 22 -12 43 -12 73c-59 -55 -125 -81 -204 -81z" />
    <glyph glyph-name="aacute" unicode="&#xe1;" horiz-adv-x="553" 
d="M294 585h-57l94 158h105zM218 60c70 0 130 29 179 77v148c-201 -32 -268 -81 -268 -147c0 -51 34 -78 89 -78zM193 -8c-91 0 -149 48 -149 133c0 107 91 183 353 220v24c0 66 -35 98 -100 98c-80 0 -139 -35 -191 -80l-45 54c61 56 140 98 245 98c126 0 176 -66 176 -176
v-233c0 -64 4 -103 15 -130h-88c-7 22 -12 43 -12 73c-59 -55 -125 -81 -204 -81z" />
    <glyph glyph-name="acircumflex" unicode="&#xe2;" horiz-adv-x="553" 
d="M173 582h-52l129 161h63l129 -161h-52l-109 94zM218 60c70 0 130 29 179 77v148c-201 -32 -268 -81 -268 -147c0 -51 34 -78 89 -78zM193 -8c-91 0 -149 48 -149 133c0 107 91 183 353 220v24c0 66 -35 98 -100 98c-80 0 -139 -35 -191 -80l-45 54c61 56 140 98 245 98
c126 0 176 -66 176 -176v-233c0 -64 4 -103 15 -130h-88c-7 22 -12 43 -12 73c-59 -55 -125 -81 -204 -81z" />
    <glyph glyph-name="atilde" unicode="&#xe3;" horiz-adv-x="553" 
d="M354 580c-59 0 -105 56 -146 56c-29 0 -41 -15 -41 -54h-53c0 83 33 119 92 119s105 -56 147 -56c28 0 41 15 41 54h51c0 -82 -33 -119 -91 -119zM218 60c70 0 130 29 179 77v148c-201 -32 -268 -81 -268 -147c0 -51 34 -78 89 -78zM193 -8c-91 0 -149 48 -149 133
c0 107 91 183 353 220v24c0 66 -35 98 -100 98c-80 0 -139 -35 -191 -80l-45 54c61 56 140 98 245 98c126 0 176 -66 176 -176v-233c0 -64 4 -103 15 -130h-88c-7 22 -12 43 -12 73c-59 -55 -125 -81 -204 -81z" />
    <glyph glyph-name="adieresis" unicode="&#xe4;" horiz-adv-x="553" 
d="M239 583h-88v94h88v-94zM422 583h-89v94h89v-94zM218 60c70 0 130 29 179 77v148c-201 -32 -268 -81 -268 -147c0 -51 34 -78 89 -78zM193 -8c-91 0 -149 48 -149 133c0 107 91 183 353 220v24c0 66 -35 98 -100 98c-80 0 -139 -35 -191 -80l-45 54c61 56 140 98 245 98
c126 0 176 -66 176 -176v-233c0 -64 4 -103 15 -130h-88c-7 22 -12 43 -12 73c-59 -55 -125 -81 -204 -81z" />
    <glyph glyph-name="aring" unicode="&#xe5;" horiz-adv-x="553" 
d="M288 577c-55 0 -95 41 -95 95c0 53 40 93 95 93s95 -40 95 -93c0 -54 -40 -95 -95 -95zM288 617c30 0 52 23 52 55c0 31 -22 54 -52 54s-52 -23 -52 -54c0 -32 22 -55 52 -55zM218 60c70 0 130 29 179 77v148c-201 -32 -268 -81 -268 -147c0 -51 34 -78 89 -78zM193 -8
c-91 0 -149 48 -149 133c0 107 91 183 353 220v24c0 66 -35 98 -100 98c-80 0 -139 -35 -191 -80l-45 54c61 56 140 98 245 98c126 0 176 -66 176 -176v-233c0 -64 4 -103 15 -130h-88c-7 22 -12 43 -12 73c-59 -55 -125 -81 -204 -81z" />
    <glyph glyph-name="amacron" unicode="&#x101;" horiz-adv-x="553" 
d="M411 583h-270v69h270v-69zM218 60c70 0 130 29 179 77v148c-201 -32 -268 -81 -268 -147c0 -51 34 -78 89 -78zM193 -8c-91 0 -149 48 -149 133c0 107 91 183 353 220v24c0 66 -35 98 -100 98c-80 0 -139 -35 -191 -80l-45 54c61 56 140 98 245 98
c126 0 176 -66 176 -176v-233c0 -64 4 -103 15 -130h-88c-7 22 -12 43 -12 73c-59 -55 -125 -81 -204 -81z" />
    <glyph glyph-name="abreve" unicode="&#x103;" horiz-adv-x="553" 
d="M276 579c-93 0 -150 67 -155 168h52c9 -77 48 -104 103 -104s94 27 103 104h52c-5 -101 -62 -168 -155 -168zM218 60c70 0 130 29 179 77v148c-201 -32 -268 -81 -268 -147c0 -51 34 -78 89 -78zM193 -8c-91 0 -149 48 -149 133c0 107 91 183 353 220v24
c0 66 -35 98 -100 98c-80 0 -139 -35 -191 -80l-45 54c61 56 140 98 245 98c126 0 176 -66 176 -176v-233c0 -64 4 -103 15 -130h-88c-7 22 -12 43 -12 73c-59 -55 -125 -81 -204 -81z" />
    <glyph glyph-name="aogonek" unicode="&#x105;" horiz-adv-x="553" 
d="M218 60c70 0 130 29 179 77v148c-201 -32 -268 -81 -268 -147c0 -51 34 -78 89 -78zM556 -149c-41 -23 -85 -38 -132 -38c-61 0 -97 29 -97 77c0 39 36 81 82 111c-7 22 -12 43 -12 72c-59 -55 -125 -81 -204 -81c-91 0 -149 48 -149 133c0 107 91 183 353 220v24
c0 66 -35 98 -100 98c-80 0 -139 -35 -191 -80l-45 54c61 56 140 98 245 98c126 0 176 -66 176 -176v-233c0 -64 4 -103 15 -130h-36c-43 -31 -67 -64 -67 -97c0 -27 14 -46 51 -46c34 0 62 10 93 24z" />
    <glyph glyph-name="b" unicode="b" horiz-adv-x="599" 
d="M327 -8c-65 0 -120 29 -165 76v-68h-86v740h86v-286c40 45 95 85 174 85c121 0 215 -90 215 -274s-95 -273 -224 -273zM315 62c92 0 150 62 150 202c0 135 -64 201 -149 201c-61 0 -110 -33 -154 -81v-242c46 -52 97 -80 153 -80z" />
    <glyph glyph-name="c" unicode="c" horiz-adv-x="536" 
d="M281 -11c-122 0 -235 94 -235 275c0 193 124 275 242 275c119 0 175 -70 207 -148l-73 -30c-26 68 -67 105 -136 105c-76 0 -153 -53 -153 -202c0 -130 62 -203 151 -203c67 0 108 29 142 106l71 -28c-41 -88 -102 -150 -216 -150z" />
    <glyph glyph-name="ccedilla" unicode="&#xe7;" horiz-adv-x="538" 
d="M281 -196c-48 0 -94 13 -129 36l21 33c30 -20 65 -30 99 -30c48 0 69 17 69 45c0 22 -14 34 -40 34c-20 0 -36 -9 -50 -20l-30 15l22 76c-107 16 -197 108 -197 271c0 193 124 275 242 275c119 0 175 -70 207 -148l-73 -30c-28 73 -67 110 -136 110
c-76 0 -153 -58 -153 -207c0 -130 62 -209 151 -209c67 0 108 35 142 112l71 -28c-40 -86 -99 -145 -206 -149l-13 -42c14 9 32 15 56 15c38 0 71 -24 71 -68c0 -63 -56 -91 -124 -91z" />
    <glyph glyph-name="cacute" unicode="&#x107;" horiz-adv-x="536" 
d="M288 585h-57l94 158h105zM281 -11c-122 0 -235 94 -235 275c0 193 124 275 242 275c119 0 175 -70 207 -148l-73 -30c-26 68 -67 105 -136 105c-76 0 -153 -53 -153 -202c0 -130 62 -203 151 -203c67 0 108 29 142 106l71 -28c-41 -88 -102 -150 -216 -150z" />
    <glyph glyph-name="ccircumflex" unicode="&#x109;" horiz-adv-x="536" 
d="M162 582h-52l129 161h63l129 -161h-52l-109 94zM281 -11c-122 0 -235 94 -235 275c0 193 124 275 242 275c119 0 175 -70 207 -148l-73 -30c-26 68 -67 105 -136 105c-76 0 -153 -53 -153 -202c0 -130 62 -203 151 -203c67 0 108 29 142 106l71 -28
c-41 -88 -102 -150 -216 -150z" />
    <glyph glyph-name="cdotaccent" unicode="&#x10b;" horiz-adv-x="536" 
d="M322 589h-100v90h100v-90zM281 -11c-122 0 -235 94 -235 275c0 193 124 275 242 275c119 0 175 -70 207 -148l-73 -30c-26 68 -67 105 -136 105c-76 0 -153 -53 -153 -202c0 -130 62 -203 151 -203c67 0 108 29 142 106l71 -28c-41 -88 -102 -150 -216 -150z" />
    <glyph glyph-name="ccaron" unicode="&#x10d;" horiz-adv-x="536" 
d="M299 586h-63l-129 161h53l108 -94l108 94h52zM281 -11c-122 0 -235 94 -235 275c0 193 124 275 242 275c119 0 175 -70 207 -148l-73 -30c-26 68 -67 105 -136 105c-76 0 -153 -53 -153 -202c0 -130 62 -203 151 -203c67 0 108 29 142 106l71 -28
c-41 -88 -102 -150 -216 -150z" />
    <glyph glyph-name="d" unicode="d" horiz-adv-x="599" 
d="M283 63c61 0 109 33 153 81v242c-46 52 -96 80 -152 80c-92 0 -151 -65 -151 -204c0 -135 65 -199 150 -199zM262 -8c-121 0 -215 87 -215 271s96 276 225 276c64 0 124 -32 164 -78v279h86v-610c0 -64 4 -103 16 -130h-90c-6 17 -12 48 -12 75c-42 -46 -95 -83 -174 -83
z" />
    <glyph glyph-name="dcaron" unicode="&#x10f;" horiz-adv-x="599" 
d="M587 574l25 100h-36v97h93v-86l-46 -111h-36zM283 63c61 0 109 33 153 81v242c-46 52 -96 80 -152 80c-92 0 -151 -65 -151 -204c0 -135 65 -199 150 -199zM262 -8c-121 0 -215 87 -215 271s96 276 225 276c64 0 124 -32 164 -78v279h86v-610c0 -64 4 -103 16 -130h-90
c-6 17 -12 48 -12 75c-42 -46 -95 -83 -174 -83z" />
    <glyph glyph-name="e" unicode="e" horiz-adv-x="552" 
d="M285 -11c-125 0 -239 91 -239 275c0 192 128 275 239 275c125 0 220 -88 220 -279v-18h-373c3 -119 72 -183 159 -183c76 0 119 31 159 86l50 -44c-49 -70 -116 -112 -215 -112zM134 309h289c-7 94 -52 158 -139 158c-71 0 -138 -49 -150 -158z" />
    <glyph glyph-name="egrave" unicode="&#xe8;" horiz-adv-x="552" 
d="M320 585h-57l-142 158h105zM285 -11c-125 0 -239 91 -239 275c0 192 128 275 239 275c125 0 220 -88 220 -279v-18h-373c3 -119 72 -183 159 -183c76 0 119 31 159 86l50 -44c-49 -70 -116 -112 -215 -112zM134 309h289c-7 94 -52 158 -139 158c-71 0 -138 -49 -150 -158
z" />
    <glyph glyph-name="eacute" unicode="&#xe9;" horiz-adv-x="552" 
d="M295 585h-57l94 158h105zM285 -11c-125 0 -239 91 -239 275c0 192 128 275 239 275c125 0 220 -88 220 -279v-18h-373c3 -119 72 -183 159 -183c76 0 119 31 159 86l50 -44c-49 -70 -116 -112 -215 -112zM134 309h289c-7 94 -52 158 -139 158c-71 0 -138 -49 -150 -158z
" />
    <glyph glyph-name="ecircumflex" unicode="&#xea;" horiz-adv-x="552" 
d="M173 582h-52l129 161h63l129 -161h-52l-109 94zM285 -11c-125 0 -239 91 -239 275c0 192 128 275 239 275c125 0 220 -88 220 -279v-18h-373c3 -119 72 -183 159 -183c76 0 119 31 159 86l50 -44c-49 -70 -116 -112 -215 -112zM134 309h289c-7 94 -52 158 -139 158
c-71 0 -138 -49 -150 -158z" />
    <glyph glyph-name="edieresis" unicode="&#xeb;" horiz-adv-x="552" 
d="M231 583h-88v94h88v-94zM414 583h-89v94h89v-94zM285 -11c-125 0 -239 91 -239 275c0 192 128 275 239 275c125 0 220 -88 220 -279v-18h-373c3 -119 72 -183 159 -183c76 0 119 31 159 86l50 -44c-49 -70 -116 -112 -215 -112zM134 309h289c-7 94 -52 158 -139 158
c-71 0 -138 -49 -150 -158z" />
    <glyph glyph-name="emacron" unicode="&#x113;" horiz-adv-x="552" 
d="M410 583h-270v69h270v-69zM285 -11c-125 0 -239 91 -239 275c0 192 128 275 239 275c125 0 220 -88 220 -279v-18h-373c3 -119 72 -183 159 -183c76 0 119 31 159 86l50 -44c-49 -70 -116 -112 -215 -112zM134 309h289c-7 94 -52 158 -139 158c-71 0 -138 -49 -150 -158z
" />
    <glyph glyph-name="ebreve" unicode="&#x115;" horiz-adv-x="552" 
d="M277 579c-93 0 -150 67 -155 168h52c9 -77 48 -104 103 -104s94 27 103 104h52c-5 -101 -62 -168 -155 -168zM285 -11c-125 0 -239 91 -239 275c0 192 128 275 239 275c125 0 220 -88 220 -279v-18h-373c3 -119 72 -183 159 -183c76 0 119 31 159 86l50 -44
c-49 -70 -116 -112 -215 -112zM134 309h289c-7 94 -52 158 -139 158c-71 0 -138 -49 -150 -158z" />
    <glyph glyph-name="edotaccent" unicode="&#x117;" horiz-adv-x="552" 
d="M325 589h-100v90h100v-90zM285 -11c-125 0 -239 91 -239 275c0 192 128 275 239 275c125 0 220 -88 220 -279v-18h-373c3 -119 72 -183 159 -183c76 0 119 31 159 86l50 -44c-49 -70 -116 -112 -215 -112zM134 309h289c-7 94 -52 158 -139 158c-71 0 -138 -49 -150 -158z
" />
    <glyph glyph-name="eogonek" unicode="&#x119;" horiz-adv-x="552" 
d="M310 -187c-61 0 -97 29 -97 77c0 34 28 70 65 99c-122 3 -232 94 -232 275c0 192 128 275 239 275c125 0 220 -88 220 -279v-18h-373c3 -119 72 -183 159 -183c76 0 119 31 159 86l50 -44c-40 -57 -91 -95 -162 -108c-37 -29 -58 -59 -58 -90c0 -27 14 -46 51 -46
c34 0 62 10 93 24l18 -30c-41 -23 -85 -38 -132 -38zM134 309h289c-7 94 -52 158 -139 158c-71 0 -138 -49 -150 -158z" />
    <glyph glyph-name="ecaron" unicode="&#x11b;" horiz-adv-x="552" 
d="M306 586h-63l-129 161h53l108 -94l108 94h52zM285 -11c-125 0 -239 91 -239 275c0 192 128 275 239 275c125 0 220 -88 220 -279v-18h-373c3 -119 72 -183 159 -183c76 0 119 31 159 86l50 -44c-49 -70 -116 -112 -215 -112zM134 309h289c-7 94 -52 158 -139 158
c-71 0 -138 -49 -150 -158z" />
    <glyph glyph-name="f" unicode="f" horiz-adv-x="344" 
d="M203 0h-86v457h-92v71h92v71c0 89 47 143 159 143c15 0 41 -3 49 -3v-70c-8 2 -25 3 -37 3c-48 0 -85 -17 -85 -74v-70h116v-71h-116v-457z" />
    <glyph glyph-name="g" unicode="g" horiz-adv-x="575" 
d="M269 224c81 0 132 47 132 123c0 77 -48 125 -133 125c-82 0 -133 -49 -133 -125s53 -123 134 -123zM272 -203c-178 0 -255 51 -255 131c0 54 37 94 96 117c-30 14 -45 36 -45 67c0 34 28 63 66 85c-51 33 -81 86 -81 152c0 111 89 190 215 190c65 0 119 -22 156 -55
c32 24 82 44 125 49v-76c-29 0 -64 -5 -95 -17c17 -24 27 -55 27 -91c0 -114 -90 -188 -213 -188c-31 0 -57 5 -84 13c-22 -10 -37 -23 -37 -41c0 -22 17 -32 73 -37l108 -9c134 -9 202 -52 202 -137c0 -100 -105 -153 -258 -153zM283 -138c105 0 168 32 168 80
c0 47 -35 68 -146 76l-100 7l-30 3c-51 -18 -78 -51 -78 -87c0 -53 55 -79 186 -79z" />
    <glyph glyph-name="gcircumflex" unicode="&#x11d;" horiz-adv-x="575" 
d="M159 582h-52l129 161h63l129 -161h-52l-109 94zM269 224c81 0 132 47 132 123c0 77 -48 125 -133 125c-82 0 -133 -49 -133 -125s53 -123 134 -123zM272 -203c-178 0 -255 51 -255 131c0 54 37 94 96 117c-30 14 -45 36 -45 67c0 34 28 63 66 85c-51 33 -81 86 -81 152
c0 111 89 190 215 190c65 0 119 -22 156 -55c32 24 82 44 125 49v-76c-29 0 -64 -5 -95 -17c17 -24 27 -55 27 -91c0 -114 -90 -188 -213 -188c-31 0 -57 5 -84 13c-22 -10 -37 -23 -37 -41c0 -22 17 -32 73 -37l108 -9c134 -9 202 -52 202 -137c0 -100 -105 -153 -258 -153
zM283 -138c105 0 168 32 168 80c0 47 -35 68 -146 76l-100 7l-30 3c-51 -18 -78 -51 -78 -87c0 -53 55 -79 186 -79z" />
    <glyph glyph-name="gbreve" unicode="&#x11f;" horiz-adv-x="575" 
d="M276 579c-93 0 -150 67 -155 168h52c9 -77 48 -104 103 -104s94 27 103 104h52c-5 -101 -62 -168 -155 -168zM269 224c81 0 132 47 132 123c0 77 -48 125 -133 125c-82 0 -133 -49 -133 -125s53 -123 134 -123zM272 -203c-178 0 -255 51 -255 131c0 54 37 94 96 117
c-30 14 -45 36 -45 67c0 34 28 63 66 85c-51 33 -81 86 -81 152c0 111 89 190 215 190c65 0 119 -22 156 -55c32 24 82 44 125 49v-76c-29 0 -64 -5 -95 -17c17 -24 27 -55 27 -91c0 -114 -90 -188 -213 -188c-31 0 -57 5 -84 13c-22 -10 -37 -23 -37 -41
c0 -22 17 -32 73 -37l108 -9c134 -9 202 -52 202 -137c0 -100 -105 -153 -258 -153zM283 -138c105 0 168 32 168 80c0 47 -35 68 -146 76l-100 7l-30 3c-51 -18 -78 -51 -78 -87c0 -53 55 -79 186 -79z" />
    <glyph glyph-name="gdotaccent" unicode="&#x121;" horiz-adv-x="575" 
d="M317 589h-100v90h100v-90zM269 224c81 0 132 47 132 123c0 77 -48 125 -133 125c-82 0 -133 -49 -133 -125s53 -123 134 -123zM272 -203c-178 0 -255 51 -255 131c0 54 37 94 96 117c-30 14 -45 36 -45 67c0 34 28 63 66 85c-51 33 -81 86 -81 152c0 111 89 190 215 190
c65 0 119 -22 156 -55c32 24 82 44 125 49v-76c-29 0 -64 -5 -95 -17c17 -24 27 -55 27 -91c0 -114 -90 -188 -213 -188c-31 0 -57 5 -84 13c-22 -10 -37 -23 -37 -41c0 -22 17 -32 73 -37l108 -9c134 -9 202 -52 202 -137c0 -100 -105 -153 -258 -153zM283 -138
c105 0 168 32 168 80c0 47 -35 68 -146 76l-100 7l-30 3c-51 -18 -78 -51 -78 -87c0 -53 55 -79 186 -79z" />
    <glyph glyph-name="gcommaaccent" unicode="&#x123;" horiz-adv-x="575" 
d="M228 583v88l47 112h37l-26 -101h37v-99h-95zM269 224c81 0 132 47 132 123c0 77 -48 125 -133 125c-82 0 -133 -49 -133 -125s53 -123 134 -123zM272 -203c-178 0 -255 51 -255 131c0 54 37 94 96 117c-30 14 -45 36 -45 67c0 34 28 63 66 85c-51 33 -81 86 -81 152
c0 111 89 190 215 190c65 0 119 -22 156 -55c32 24 82 44 125 49v-76c-29 0 -64 -5 -95 -17c17 -24 27 -55 27 -91c0 -114 -90 -188 -213 -188c-31 0 -57 5 -84 13c-22 -10 -37 -23 -37 -41c0 -22 17 -32 73 -37l108 -9c134 -9 202 -52 202 -137c0 -100 -105 -153 -258 -153
zM283 -138c105 0 168 32 168 80c0 47 -35 68 -146 76l-100 7l-30 3c-51 -18 -78 -51 -78 -87c0 -53 55 -79 186 -79z" />
    <glyph glyph-name="h" unicode="h" horiz-adv-x="588" 
d="M163 0h-87v740h87v-291c46 45 112 90 198 90c101 0 156 -58 156 -158v-381h-86v362c0 70 -30 103 -97 103c-63 0 -116 -33 -171 -85v-380z" />
    <glyph glyph-name="hcircumflex" unicode="&#x125;" horiz-adv-x="588" 
d="M10 783h-52l129 161h63l129 -161h-52l-109 94zM163 0h-87v740h87v-291c46 45 112 90 198 90c101 0 156 -58 156 -158v-381h-86v362c0 70 -30 103 -97 103c-63 0 -116 -33 -171 -85v-380z" />
    <glyph glyph-name="i" unicode="i" horiz-adv-x="250" 
d="M170 641h-90v84h90v-84zM168 0h-86v528h86v-528z" />
    <glyph glyph-name="igrave" unicode="&#xec;" horiz-adv-x="250" 
d="M163 585h-57l-142 158h105zM168 0h-86v528h86v-528z" />
    <glyph glyph-name="iacute" unicode="&#xed;" horiz-adv-x="250" 
d="M157 585h-57l94 158h105zM168 0h-86v528h86v-528z" />
    <glyph glyph-name="icircumflex" unicode="&#xee;" horiz-adv-x="250" 
d="M16 582h-52l129 161h63l129 -161h-52l-109 94zM168 0h-86v528h86v-528z" />
    <glyph glyph-name="idieresis" unicode="&#xef;" horiz-adv-x="250" 
d="M77 583h-88v94h88v-94zM260 583h-89v94h89v-94zM168 0h-86v528h86v-528z" />
    <glyph glyph-name="itilde" unicode="&#x129;" horiz-adv-x="250" 
d="M200 580c-59 0 -105 56 -146 56c-29 0 -41 -15 -41 -54h-53c0 83 33 119 92 119s105 -56 147 -56c28 0 41 15 41 54h51c0 -82 -33 -119 -91 -119zM168 0h-86v528h86v-528z" />
    <glyph glyph-name="imacron" unicode="&#x12b;" horiz-adv-x="250" 
d="M260 583h-270v69h270v-69zM168 0h-86v528h86v-528z" />
    <glyph glyph-name="ibreve" unicode="&#x12d;" horiz-adv-x="250" 
d="M125 579c-93 0 -150 67 -155 168h52c9 -77 48 -104 103 -104s94 27 103 104h52c-5 -101 -62 -168 -155 -168zM168 0h-86v528h86v-528z" />
    <glyph glyph-name="iogonek" unicode="&#x12f;" horiz-adv-x="250" 
d="M170 641h-90v84h90v-84zM229 -149c-41 -23 -85 -38 -132 -38c-61 0 -97 29 -97 77c0 39 36 81 82 111v527h86v-528h-34c-43 -31 -67 -64 -67 -97c0 -27 14 -46 51 -46c34 0 62 10 93 24z" />
    <glyph glyph-name="j" unicode="j" horiz-adv-x="250" 
d="M170 641h-90v84h90v-84zM46 -201c-15 0 -45 3 -52 4v65c9 -2 22 -4 34 -4c34 0 54 18 54 61v603h86v-609c0 -72 -28 -120 -122 -120z" />
    <glyph glyph-name="jcircumflex" unicode="&#x135;" horiz-adv-x="250" 
d="M17 582h-52l129 161h63l129 -161h-52l-109 94zM46 -201c-14 0 -44 2 -52 3v65c9 -2 23 -4 35 -4c33 0 54 19 54 61v604h85v-610c0 -72 -28 -119 -122 -119z" />
    <glyph glyph-name="k" unicode="k" horiz-adv-x="540" 
d="M162 0h-86v740h86v-476l236 264h98l-173 -189l192 -339h-92l-156 275l-105 -113v-162z" />
    <glyph glyph-name="kcommaaccent" unicode="&#x137;" horiz-adv-x="540" 
d="M162 0h-86v740h86v-476l236 264h98l-173 -189l192 -339h-92l-156 275l-105 -113v-162zM233 -248l26 102h-37v98h95v-88l-47 -112h-37z" />
    <glyph glyph-name="l" unicode="l" horiz-adv-x="250" 
d="M168 0h-86v740h86v-740z" />
    <glyph glyph-name="lacute" unicode="&#x13a;" horiz-adv-x="250" 
d="M152 786h-57l94 158h105zM168 0h-86v740h86v-740z" />
    <glyph glyph-name="lcommaaccent" unicode="&#x13c;" horiz-adv-x="250" 
d="M168 0h-86v740h86v-740zM90 -248l26 102h-37v98h95v-88l-47 -112h-37z" />
    <glyph glyph-name="lcaron" unicode="&#x13e;" horiz-adv-x="250" 
d="M232 574l25 100h-36v97h93v-86l-46 -111h-36zM168 0h-86v740h86v-740z" />
    <glyph glyph-name="m" unicode="m" horiz-adv-x="917" 
d="M162 0h-86v528h86v-80c50 50 111 91 190 91c89 0 127 -38 145 -93c51 50 116 93 195 93c108 0 153 -63 153 -158v-381h-86v362c0 70 -23 103 -92 103c-59 0 -108 -33 -163 -85v-380h-86v362c0 70 -23 103 -92 103c-58 0 -108 -33 -164 -85v-380z" />
    <glyph glyph-name="n" unicode="n" horiz-adv-x="588" 
d="M163 0h-87v528h87v-79c46 45 112 90 198 90c101 0 156 -58 156 -158v-381h-86v362c0 70 -30 103 -97 103c-63 0 -116 -33 -171 -85v-380z" />
    <glyph glyph-name="ntilde" unicode="&#xf1;" horiz-adv-x="588" 
d="M374 580c-59 0 -105 56 -146 56c-29 0 -41 -15 -41 -54h-53c0 83 33 119 92 119s105 -56 147 -56c28 0 41 15 41 54h51c0 -82 -33 -119 -91 -119zM163 0h-87v528h87v-79c46 45 112 90 198 90c101 0 156 -58 156 -158v-381h-86v362c0 70 -30 103 -97 103
c-63 0 -116 -33 -171 -85v-380z" />
    <glyph glyph-name="nacute" unicode="&#x144;" horiz-adv-x="588" 
d="M286 585h-57l94 158h105zM163 0h-87v528h87v-79c46 45 112 90 198 90c101 0 156 -58 156 -158v-381h-86v362c0 70 -30 103 -97 103c-63 0 -116 -33 -171 -85v-380z" />
    <glyph glyph-name="ncommaaccent" unicode="&#x146;" horiz-adv-x="588" 
d="M163 0h-87v528h87v-79c46 45 112 90 198 90c101 0 156 -58 156 -158v-381h-86v362c0 70 -30 103 -97 103c-63 0 -116 -33 -171 -85v-380zM258 -248l26 102h-37v98h95v-88l-47 -112h-37z" />
    <glyph glyph-name="ncaron" unicode="&#x148;" horiz-adv-x="588" 
d="M325 586h-63l-129 161h53l108 -94l108 94h52zM163 0h-87v528h87v-79c46 45 112 90 198 90c101 0 156 -58 156 -158v-381h-86v362c0 70 -30 103 -97 103c-63 0 -116 -33 -171 -85v-380z" />
    <glyph glyph-name="o" unicode="o" horiz-adv-x="583" 
d="M292 -11c-129 0 -246 94 -246 275c0 182 116 275 246 275c129 0 245 -93 245 -275c0 -181 -116 -275 -245 -275zM292 62c100 0 158 81 158 202c0 110 -53 201 -158 201c-101 0 -159 -82 -159 -201c0 -112 52 -202 159 -202z" />
    <glyph glyph-name="ograve" unicode="&#xf2;" horiz-adv-x="583" 
d="M332 585h-57l-142 158h105zM292 -11c-129 0 -246 94 -246 275c0 182 116 275 246 275c129 0 245 -93 245 -275c0 -181 -116 -275 -245 -275zM292 62c100 0 158 81 158 202c0 110 -53 201 -158 201c-101 0 -159 -82 -159 -201c0 -112 52 -202 159 -202z" />
    <glyph glyph-name="oacute" unicode="&#xf3;" horiz-adv-x="583" 
d="M305 585h-57l94 158h105zM292 -11c-129 0 -246 94 -246 275c0 182 116 275 246 275c129 0 245 -93 245 -275c0 -181 -116 -275 -245 -275zM292 62c100 0 158 81 158 202c0 110 -53 201 -158 201c-101 0 -159 -82 -159 -201c0 -112 52 -202 159 -202z" />
    <glyph glyph-name="ocircumflex" unicode="&#xf4;" horiz-adv-x="583" 
d="M182 582h-52l129 161h63l129 -161h-52l-109 94zM292 -11c-129 0 -246 94 -246 275c0 182 116 275 246 275c129 0 245 -93 245 -275c0 -181 -116 -275 -245 -275zM292 62c100 0 158 81 158 202c0 110 -53 201 -158 201c-101 0 -159 -82 -159 -201c0 -112 52 -202 159 -202
z" />
    <glyph glyph-name="otilde" unicode="&#xf5;" horiz-adv-x="583" 
d="M367 580c-59 0 -105 56 -146 56c-29 0 -41 -15 -41 -54h-53c0 83 33 119 92 119s105 -56 147 -56c28 0 41 15 41 54h51c0 -82 -33 -119 -91 -119zM292 -11c-129 0 -246 94 -246 275c0 182 116 275 246 275c129 0 245 -93 245 -275c0 -181 -116 -275 -245 -275zM292 62
c100 0 158 81 158 202c0 110 -53 201 -158 201c-101 0 -159 -82 -159 -201c0 -112 52 -202 159 -202z" />
    <glyph glyph-name="odieresis" unicode="&#xf6;" horiz-adv-x="583" 
d="M242 583h-88v94h88v-94zM425 583h-89v94h89v-94zM292 -11c-129 0 -246 94 -246 275c0 182 116 275 246 275c129 0 245 -93 245 -275c0 -181 -116 -275 -245 -275zM292 62c100 0 158 81 158 202c0 110 -53 201 -158 201c-101 0 -159 -82 -159 -201
c0 -112 52 -202 159 -202z" />
    <glyph glyph-name="omacron" unicode="&#x14d;" horiz-adv-x="583" 
d="M426 583h-270v69h270v-69zM292 -11c-129 0 -246 94 -246 275c0 182 116 275 246 275c129 0 245 -93 245 -275c0 -181 -116 -275 -245 -275zM292 62c100 0 158 81 158 202c0 110 -53 201 -158 201c-101 0 -159 -82 -159 -201c0 -112 52 -202 159 -202z" />
    <glyph glyph-name="obreve" unicode="&#x14f;" horiz-adv-x="583" 
d="M291 579c-93 0 -150 67 -155 168h52c9 -77 48 -104 103 -104s94 27 103 104h52c-5 -101 -62 -168 -155 -168zM292 -11c-129 0 -246 94 -246 275c0 182 116 275 246 275c129 0 245 -93 245 -275c0 -181 -116 -275 -245 -275zM292 62c100 0 158 81 158 202
c0 110 -53 201 -158 201c-101 0 -159 -82 -159 -201c0 -112 52 -202 159 -202z" />
    <glyph glyph-name="ohungarumlaut" unicode="&#x151;" horiz-adv-x="583" 
d="M216 585h-58l97 158h106zM383 585h-59l100 158h106zM292 -11c-129 0 -246 94 -246 275c0 182 116 275 246 275c129 0 245 -93 245 -275c0 -181 -116 -275 -245 -275zM292 62c100 0 158 81 158 202c0 110 -53 201 -158 201c-101 0 -159 -82 -159 -201
c0 -112 52 -202 159 -202z" />
    <glyph glyph-name="p" unicode="p" horiz-adv-x="599" 
d="M315 62c92 0 150 62 150 202c0 135 -64 201 -149 201c-61 0 -110 -33 -154 -81v-242c46 -52 97 -80 153 -80zM162 -200h-86v728h86v-73c40 44 95 84 174 84c121 0 215 -90 215 -274s-95 -273 -224 -273c-65 0 -120 29 -165 76v-268z" />
    <glyph glyph-name="q" unicode="q" horiz-adv-x="599" 
d="M522 -200h-86v275c-42 -46 -95 -83 -174 -83c-121 0 -215 87 -215 271s96 276 225 276c64 0 120 -30 164 -77v66h86v-728zM283 63c61 0 109 33 153 81v242c-46 52 -96 80 -152 80c-92 0 -151 -65 -151 -204c0 -135 65 -199 150 -199z" />
    <glyph glyph-name="r" unicode="r" horiz-adv-x="400" 
d="M162 0h-86v528h86v-98h2c39 61 101 109 204 109h11l-6 -80c-3 1 -22 1 -25 1c-84 0 -147 -44 -186 -119v-341z" />
    <glyph glyph-name="racute" unicode="&#x155;" horiz-adv-x="400" 
d="M200 585h-57l94 158h105zM162 0h-86v528h86v-98h2c39 61 101 109 204 109h11l-6 -80c-3 1 -22 1 -25 1c-84 0 -147 -44 -186 -119v-341z" />
    <glyph glyph-name="rcommaaccent" unicode="&#x157;" horiz-adv-x="400" 
d="M162 0h-86v528h86v-98h2c39 61 101 109 204 109h11l-6 -80c-3 1 -22 1 -25 1c-84 0 -147 -44 -186 -119v-341zM84 -248l26 102h-37v98h95v-88l-47 -112h-37z" />
    <glyph glyph-name="rcaron" unicode="&#x159;" horiz-adv-x="400" 
d="M231 586h-63l-129 161h53l108 -94l108 94h52zM162 0h-86v528h86v-98h2c39 61 101 109 204 109h11l-6 -80c-3 1 -22 1 -25 1c-84 0 -147 -44 -186 -119v-341z" />
    <glyph glyph-name="s" unicode="s" horiz-adv-x="512" 
d="M254 -10c-95 0 -173 38 -216 90l52 52c40 -43 93 -73 165 -73c82 0 127 29 127 83c0 53 -46 73 -136 94c-112 27 -189 57 -189 159c0 80 70 144 185 144c93 0 153 -30 202 -76l-45 -57c-40 37 -94 63 -153 63c-77 0 -107 -34 -107 -71c0 -49 42 -67 125 -86
c119 -29 201 -58 201 -167c0 -101 -91 -155 -211 -155z" />
    <glyph glyph-name="sacute" unicode="&#x15b;" horiz-adv-x="512" 
d="M255 585h-57l94 158h105zM254 -10c-95 0 -173 38 -216 90l52 52c40 -43 93 -73 165 -73c82 0 127 29 127 83c0 53 -46 73 -136 94c-112 27 -189 57 -189 159c0 80 70 144 185 144c93 0 153 -30 202 -76l-45 -57c-40 37 -94 63 -153 63c-77 0 -107 -34 -107 -71
c0 -49 42 -67 125 -86c119 -29 201 -58 201 -167c0 -101 -91 -155 -211 -155z" />
    <glyph glyph-name="scircumflex" unicode="&#x15d;" horiz-adv-x="512" 
d="M133 582h-52l129 161h63l129 -161h-52l-109 94zM254 -10c-95 0 -173 38 -216 90l52 52c40 -43 93 -73 165 -73c82 0 127 29 127 83c0 53 -46 73 -136 94c-112 27 -189 57 -189 159c0 80 70 144 185 144c93 0 153 -30 202 -76l-45 -57c-40 37 -94 63 -153 63
c-77 0 -107 -34 -107 -71c0 -49 42 -67 125 -86c119 -29 201 -58 201 -167c0 -101 -91 -155 -211 -155z" />
    <glyph glyph-name="scedilla" unicode="&#x15f;" horiz-adv-x="512" 
d="M258 -196c-48 0 -93 13 -128 36l20 33c30 -20 66 -30 100 -30c48 0 69 17 69 45c0 22 -14 34 -40 34c-21 0 -36 -9 -50 -20l-31 15l23 75c-80 7 -145 42 -183 88l52 52c40 -43 93 -73 165 -73c82 0 127 29 127 83c0 53 -46 73 -136 94c-112 27 -189 57 -189 159
c0 80 70 144 185 144c93 0 153 -30 202 -76l-45 -57c-40 37 -94 63 -153 63c-77 0 -107 -34 -107 -71c0 -49 42 -67 125 -86c119 -29 201 -58 201 -167c0 -97 -84 -151 -197 -155l-12 -42c14 9 32 15 56 15c37 0 71 -24 71 -68c0 -63 -56 -91 -125 -91z" />
    <glyph glyph-name="scaron" unicode="&#x161;" horiz-adv-x="512" 
d="M286 586h-63l-129 161h53l108 -94l108 94h52zM254 -10c-95 0 -173 38 -216 90l52 52c40 -43 93 -73 165 -73c82 0 127 29 127 83c0 53 -46 73 -136 94c-112 27 -189 57 -189 159c0 80 70 144 185 144c93 0 153 -30 202 -76l-45 -57c-40 37 -94 63 -153 63
c-77 0 -107 -34 -107 -71c0 -49 42 -67 125 -86c119 -29 201 -58 201 -167c0 -101 -91 -155 -211 -155z" />
    <glyph glyph-name="scommaaccent" unicode="&#x219;" horiz-adv-x="512" 
d="M254 -10c-95 0 -173 38 -216 90l52 52c40 -43 93 -73 165 -73c82 0 127 29 127 83c0 53 -46 73 -136 94c-112 27 -189 57 -189 159c0 80 70 144 185 144c93 0 153 -30 202 -76l-45 -57c-40 37 -94 63 -153 63c-77 0 -107 -34 -107 -71c0 -49 42 -67 125 -86
c119 -29 201 -58 201 -167c0 -101 -91 -155 -211 -155zM219 -248l26 102h-37v98h95v-88l-47 -112h-37z" />
    <glyph glyph-name="t" unicode="t" horiz-adv-x="377" 
d="M261 -7c-111 0 -147 43 -147 135v329h-92v71h92v188h86v-188h137v-71h-137v-310c0 -56 18 -84 82 -84c19 0 40 3 54 7v-71c-15 -3 -48 -6 -75 -6z" />
    <glyph glyph-name="tcommaaccent" unicode="&#x21b;" horiz-adv-x="376" 
d="M261 -7c-111 0 -147 43 -147 135v329h-92v71h92v188h86v-188h137v-71h-137v-310c0 -56 18 -84 82 -84c19 0 40 3 54 7v-71c-15 -3 -48 -6 -75 -6zM134 -248l26 102h-37v98h95v-88l-47 -112h-37z" />
    <glyph glyph-name="tcaron" unicode="&#x165;" horiz-adv-x="376" 
d="M275 610l25 99h-36v97h93v-86l-46 -110h-36zM261 -7c-111 0 -147 43 -147 135v329h-92v71h92v188h86v-188h137v-71h-137v-310c0 -56 18 -84 82 -84c19 0 40 3 54 7v-71c-15 -3 -48 -6 -75 -6z" />
    <glyph glyph-name="u" unicode="u" horiz-adv-x="588" 
d="M227 -10c-101 0 -156 57 -156 157v381h86v-363c0 -70 30 -103 97 -103c64 0 116 33 171 85v381h87v-528h-87v79c-46 -45 -112 -89 -198 -89z" />
    <glyph glyph-name="ugrave" unicode="&#xf9;" horiz-adv-x="588" 
d="M337 585h-57l-142 158h105zM227 -10c-101 0 -156 57 -156 157v381h86v-363c0 -70 30 -103 97 -103c64 0 116 33 171 85v381h87v-528h-87v79c-46 -45 -112 -89 -198 -89z" />
    <glyph glyph-name="uacute" unicode="&#xfa;" horiz-adv-x="588" 
d="M303 585h-57l94 158h105zM227 -10c-101 0 -156 57 -156 157v381h86v-363c0 -70 30 -103 97 -103c64 0 116 33 171 85v381h87v-528h-87v79c-46 -45 -112 -89 -198 -89z" />
    <glyph glyph-name="ucircumflex" unicode="&#xfb;" horiz-adv-x="588" 
d="M182 582h-52l129 161h63l129 -161h-52l-109 94zM227 -10c-101 0 -156 57 -156 157v381h86v-363c0 -70 30 -103 97 -103c64 0 116 33 171 85v381h87v-528h-87v79c-46 -45 -112 -89 -198 -89z" />
    <glyph glyph-name="udieresis" unicode="&#xfc;" horiz-adv-x="588" 
d="M245 583h-88v94h88v-94zM428 583h-89v94h89v-94zM227 -10c-101 0 -156 57 -156 157v381h86v-363c0 -70 30 -103 97 -103c64 0 116 33 171 85v381h87v-528h-87v79c-46 -45 -112 -89 -198 -89z" />
    <glyph glyph-name="utilde" unicode="&#x169;" horiz-adv-x="588" 
d="M369 580c-59 0 -105 56 -146 56c-29 0 -41 -15 -41 -54h-53c0 83 33 119 92 119s105 -56 147 -56c28 0 41 15 41 54h51c0 -82 -33 -119 -91 -119zM227 -10c-101 0 -156 57 -156 157v381h86v-363c0 -70 30 -103 97 -103c64 0 116 33 171 85v381h87v-528h-87v79
c-46 -45 -112 -89 -198 -89z" />
    <glyph glyph-name="umacron" unicode="&#x16b;" horiz-adv-x="588" 
d="M428 583h-270v69h270v-69zM227 -10c-101 0 -156 57 -156 157v381h86v-363c0 -70 30 -103 97 -103c64 0 116 33 171 85v381h87v-528h-87v79c-46 -45 -112 -89 -198 -89z" />
    <glyph glyph-name="ubreve" unicode="&#x16d;" horiz-adv-x="588" 
d="M293 579c-93 0 -150 67 -155 168h52c9 -77 48 -104 103 -104s94 27 103 104h52c-5 -101 -62 -168 -155 -168zM227 -10c-101 0 -156 57 -156 157v381h86v-363c0 -70 30 -103 97 -103c64 0 116 33 171 85v381h87v-528h-87v79c-46 -45 -112 -89 -198 -89z" />
    <glyph glyph-name="uring" unicode="&#x16f;" horiz-adv-x="588" 
d="M293 577c-55 0 -95 41 -95 95c0 53 40 93 95 93s95 -40 95 -93c0 -54 -40 -95 -95 -95zM293 617c30 0 52 23 52 55c0 31 -22 54 -52 54s-52 -23 -52 -54c0 -32 22 -55 52 -55zM227 -10c-101 0 -156 57 -156 157v381h86v-363c0 -70 30 -103 97 -103c64 0 116 33 171 85
v381h87v-528h-87v79c-46 -45 -112 -89 -198 -89z" />
    <glyph glyph-name="uhungarumlaut" unicode="&#x171;" horiz-adv-x="588" 
d="M216 585h-58l97 158h106zM383 585h-59l100 158h106zM227 -10c-101 0 -156 57 -156 157v381h86v-363c0 -70 30 -103 97 -103c64 0 116 33 171 85v381h87v-528h-87v79c-46 -45 -112 -89 -198 -89z" />
    <glyph glyph-name="uogonek" unicode="&#x173;" horiz-adv-x="588" 
d="M571 -149c-41 -23 -85 -38 -132 -38c-61 0 -97 29 -97 77c0 39 37 81 83 112v77c-46 -45 -112 -89 -198 -89c-101 0 -156 57 -156 157v381h86v-363c0 -70 30 -103 97 -103c64 0 116 33 171 85v381h87v-528h-36c-43 -31 -67 -64 -67 -97c0 -27 14 -46 51 -46
c34 0 62 10 93 24z" />
    <glyph glyph-name="v" unicode="v" horiz-adv-x="515" 
d="M301 -2h-87l-194 530h92l148 -428h2l146 428h86z" />
    <glyph glyph-name="w" unicode="w" horiz-adv-x="752" 
d="M262 0h-79l-161 528h89l69 -248c18 -65 30 -108 46 -176h2c18 74 28 112 46 177l67 247h75l69 -252c18 -63 28 -103 44 -172h2c18 70 28 108 46 170l72 254h81l-161 -528h-80l-112 413h-2z" />
    <glyph glyph-name="wcircumflex" unicode="&#x175;" horiz-adv-x="753" 
d="M267 582h-52l129 161h63l129 -161h-52l-109 94zM262 0h-79l-161 528h89l69 -248c18 -65 30 -108 46 -176h2c18 74 28 112 46 177l67 247h75l69 -252c18 -63 28 -103 44 -172h2c18 70 28 108 46 170l72 254h81l-161 -528h-80l-112 413h-2z" />
    <glyph glyph-name="wgrave" unicode="&#x1e81;" horiz-adv-x="753" 
d="M408 585h-57l-142 158h105zM262 0h-79l-161 528h89l69 -248c18 -65 30 -108 46 -176h2c18 74 28 112 46 177l67 247h75l69 -252c18 -63 28 -103 44 -172h2c18 70 28 108 46 170l72 254h81l-161 -528h-80l-112 413h-2z" />
    <glyph glyph-name="wacute" unicode="&#x1e83;" horiz-adv-x="753" 
d="M404 585h-57l94 158h105zM262 0h-79l-161 528h89l69 -248c18 -65 30 -108 46 -176h2c18 74 28 112 46 177l67 247h75l69 -252c18 -63 28 -103 44 -172h2c18 70 28 108 46 170l72 254h81l-161 -528h-80l-112 413h-2z" />
    <glyph glyph-name="wdieresis" unicode="&#x1e85;" horiz-adv-x="753" 
d="M327 583h-88v94h88v-94zM510 583h-89v94h89v-94zM262 0h-79l-161 528h89l69 -248c18 -65 30 -108 46 -176h2c18 74 28 112 46 177l67 247h75l69 -252c18 -63 28 -103 44 -172h2c18 70 28 108 46 170l72 254h81l-161 -528h-80l-112 413h-2z" />
    <glyph glyph-name="x" unicode="x" horiz-adv-x="518" 
d="M117 0h-90l188 273l-175 255h94l129 -193l128 193h91l-176 -254l187 -274h-93l-142 210z" />
    <glyph glyph-name="y" unicode="y" horiz-adv-x="533" 
d="M106 -203c-47 0 -76 6 -99 13l20 69c15 -4 41 -9 78 -9c54 0 80 23 101 75l20 52l-204 531h91l155 -427h2l155 427h87l-226 -588c-36 -93 -77 -143 -180 -143z" />
    <glyph glyph-name="yacute" unicode="&#xfd;" horiz-adv-x="533" 
d="M240 585h-57l94 158h105zM106 -203c-47 0 -76 6 -99 13l20 69c15 -4 41 -9 78 -9c54 0 80 23 101 75l20 52l-204 531h91l155 -427h2l155 427h87l-226 -588c-36 -93 -77 -143 -180 -143z" />
    <glyph glyph-name="ydieresis" unicode="&#xff;" horiz-adv-x="533" 
d="M220 583h-88v94h88v-94zM403 583h-89v94h89v-94zM106 -203c-47 0 -76 6 -99 13l20 69c15 -4 41 -9 78 -9c54 0 80 23 101 75l20 52l-204 531h91l155 -427h2l155 427h87l-226 -588c-36 -93 -77 -143 -180 -143z" />
    <glyph glyph-name="ycircumflex" unicode="&#x177;" horiz-adv-x="533" 
d="M160 582h-52l129 161h63l129 -161h-52l-109 94zM106 -203c-47 0 -76 6 -99 13l20 69c15 -4 41 -9 78 -9c54 0 80 23 101 75l20 52l-204 531h91l155 -427h2l155 427h87l-226 -588c-36 -93 -77 -143 -180 -143z" />
    <glyph glyph-name="ygrave" unicode="&#x1ef3;" horiz-adv-x="533" 
d="M309 585h-57l-142 158h105zM106 -203c-47 0 -76 6 -99 13l20 69c15 -4 41 -9 78 -9c54 0 80 23 101 75l20 52l-204 531h91l155 -427h2l155 427h87l-226 -588c-36 -93 -77 -143 -180 -143z" />
    <glyph glyph-name="z" unicode="z" horiz-adv-x="510" 
d="M471 0h-432v52l309 406h-285v70h393v-54l-310 -405h325v-69z" />
    <glyph glyph-name="zacute" unicode="&#x17a;" horiz-adv-x="510" 
d="M254 585h-57l94 158h105zM471 0h-432v52l309 406h-285v70h393v-54l-310 -405h325v-69z" />
    <glyph glyph-name="zdotaccent" unicode="&#x17c;" horiz-adv-x="510" 
d="M305 589h-100v90h100v-90zM471 0h-432v52l309 406h-285v70h393v-54l-310 -405h325v-69z" />
    <glyph glyph-name="zcaron" unicode="&#x17e;" horiz-adv-x="510" 
d="M287 586h-63l-129 161h53l108 -94l108 94h52zM471 0h-432v52l309 406h-285v70h393v-54l-310 -405h325v-69z" />
    <glyph glyph-name="ordfeminine" unicode="&#xaa;" horiz-adv-x="421" 
d="M174 421c49 0 89 22 122 53v100c-145 -22 -181 -59 -181 -103c0 -33 23 -50 59 -50zM157 367c-66 0 -108 35 -108 95c0 76 64 129 247 154v16c0 43 -23 67 -67 67c-55 0 -94 -20 -132 -55l-37 37c45 43 96 71 176 71c87 0 126 -46 126 -124v-161c0 -43 3 -70 13 -92h-70
c-5 16 -8 32 -9 50c-40 -36 -86 -58 -139 -58z" />
    <glyph glyph-name="ordmasculine" unicode="&#xba;" horiz-adv-x="436" 
d="M218 367c-92 0 -175 65 -175 192c0 130 83 193 175 193s175 -63 175 -193c0 -127 -83 -192 -175 -192zM218 420c69 0 108 60 108 140c0 74 -35 140 -108 140c-69 0 -108 -60 -108 -140c0 -75 34 -140 108 -140z" />
    <glyph glyph-name="germandbls" unicode="&#xdf;" horiz-adv-x="626" 
d="M382 -11c-75 0 -128 26 -159 60l47 52c29 -27 62 -43 111 -43c71 0 119 56 119 145c0 122 -88 164 -232 170v65c118 1 164 53 164 122s-50 107 -132 107c-89 0 -138 -49 -138 -153v-514h-86v510c0 151 88 230 226 230c129 0 212 -63 212 -175c0 -77 -50 -132 -129 -154
c104 -14 196 -72 196 -204c0 -134 -77 -218 -199 -218z" />
    <glyph glyph-name="ae" unicode="&#xe6;" horiz-adv-x="894" 
d="M192 -11c-91 0 -149 49 -149 133c0 108 91 186 353 223v24c0 66 -35 98 -100 98c-80 0 -139 -35 -191 -80l-44 54c61 56 139 98 244 98c93 0 134 -42 150 -101c33 57 98 101 172 101c121 0 220 -88 220 -279v-15h-372c3 -122 71 -186 159 -186c75 0 118 31 158 86l50 -44
c-49 -70 -116 -112 -215 -112c-81 0 -154 35 -196 112c-69 -72 -140 -112 -239 -112zM477 309h288c-7 94 -52 158 -139 158c-71 0 -137 -49 -149 -158zM217 58c71 0 133 30 193 93c-10 29 -15 62 -15 100c0 14 0 29 1 36c-201 -33 -268 -86 -268 -152c0 -50 34 -77 89 -77z
" />
    <glyph glyph-name="eth" unicode="&#xf0;" horiz-adv-x="583" 
d="M292 -11c-139 0 -245 101 -245 265c0 168 103 259 231 259c62 0 127 -34 163 -87c-14 58 -38 117 -84 169l-103 -40l-26 54l86 33c-22 21 -46 38 -74 56l42 53c37 -21 72 -46 102 -75l97 39l25 -55l-80 -33c68 -85 110 -201 110 -364c0 -170 -106 -274 -244 -274zM292 60
c97 0 158 77 158 196c0 110 -59 189 -158 189c-98 0 -159 -72 -159 -190c0 -110 56 -195 159 -195z" />
    <glyph glyph-name="oslash" unicode="&#xf8;" horiz-adv-x="583" 
d="M162 132l226 301c-25 22 -57 35 -96 35c-102 0 -161 -85 -161 -204c0 -49 10 -95 31 -132zM422 392l-227 -300c25 -21 58 -34 97 -34c101 0 160 85 160 206c0 48 -10 93 -30 128zM529 525l-54 -68c38 -46 62 -110 62 -193c0 -181 -116 -275 -245 -275
c-51 0 -101 15 -141 44l-54 -68l-42 36l55 69c-39 46 -64 111 -64 194c0 182 116 275 246 275c52 0 101 -15 142 -44l52 66z" />
    <glyph glyph-name="thorn" unicode="&#xfe;" horiz-adv-x="599" 
d="M315 62c92 0 150 62 150 202c0 135 -64 201 -149 201c-61 0 -110 -33 -154 -81v-242c46 -52 97 -80 153 -80zM162 -200h-86v940h86v-285c40 44 95 84 174 84c121 0 215 -90 215 -274s-95 -273 -224 -273c-65 0 -120 29 -165 76v-268z" />
    <glyph glyph-name="dcroat" unicode="&#x111;" horiz-adv-x="599" 
d="M283 60c61 0 106 31 154 80v248c-51 51 -96 79 -156 79c-83 0 -148 -64 -148 -204c0 -135 65 -203 150 -203zM437 80c-42 -48 -95 -89 -174 -89c-121 0 -215 87 -215 271s95 277 217 277c72 0 131 -36 172 -85v143h-106v62h106v81h85v-81h83v-62h-83v-467
c0 -64 4 -103 16 -130h-89c-7 17 -12 52 -12 80z" />
    <glyph glyph-name="hbar" unicode="&#x127;" horiz-adv-x="588" 
d="M163 381v-381h-86v597h-83v62h83v81h86v-81h105v-62h-105v-148c46 45 112 90 198 90c101 0 156 -58 156 -158v-381h-86v363c0 69 -30 102 -97 102c-63 0 -116 -33 -171 -84z" />
    <glyph glyph-name="dotlessi" unicode="&#x131;" horiz-adv-x="250" 
d="M168 0h-86v528h86v-528z" />
    <glyph glyph-name="ij" unicode="&#x133;" horiz-adv-x="500" 
d="M420 642h-90v84h90v-84zM170 641h-90v84h90v-84zM168 0h-86v528h86v-528zM296 -200c-15 0 -45 3 -52 4v65c9 -2 22 -4 34 -4c34 0 54 18 54 61v603h86v-609c0 -72 -28 -120 -122 -120z" />
    <glyph glyph-name="kgreenlandic" unicode="&#x138;" horiz-adv-x="540" 
d="M77 0v528h85v-264l236 264h98l-173 -188l192 -340h-92l-156 276l-105 -114v-162h-85z" />
    <glyph glyph-name="ldot" unicode="&#x140;" horiz-adv-x="352" 
d="M168 0h-86v740h86v-740zM254 279v90h94v-90h-94z" />
    <glyph glyph-name="lslash" unicode="&#x142;" horiz-adv-x="304" 
d="M110 0v438l-89 -24v67l89 24v235h85v-213l90 24v-67l-90 -24v-460h-85z" />
    <glyph glyph-name="eng" unicode="&#x14b;" horiz-adv-x="588" 
d="M77 0v528h86v-86c49 51 114 97 196 97c103 0 158 -55 158 -155v-466c0 -72 -28 -119 -122 -119c-14 0 -44 2 -51 3v65c8 -2 22 -4 34 -4c33 0 54 18 54 59v441c0 69 -30 104 -98 104c-63 0 -116 -33 -171 -85v-382h-86z" />
    <glyph glyph-name="oe" unicode="&#x153;" horiz-adv-x="947" 
d="M290 -11c-129 0 -244 94 -244 275c0 182 114 275 244 275c91 0 164 -52 199 -130c32 76 109 130 192 130c121 0 220 -88 220 -279v-15h-371c2 -122 70 -186 158 -186c75 0 117 31 157 86l51 -44c-49 -70 -116 -112 -215 -112c-84 0 -163 51 -194 127
c-36 -75 -106 -127 -197 -127zM531 309h288c-7 94 -52 158 -139 158c-71 0 -136 -49 -149 -158zM290 61c101 0 157 82 157 203c0 110 -51 201 -157 201c-101 0 -157 -82 -157 -201c0 -112 50 -203 157 -203z" />
    <glyph glyph-name="tbar" unicode="&#x167;" horiz-adv-x="376" 
d="M335 -1c-16 -3 -49 -6 -75 -6c-111 0 -146 43 -146 135v116h-92v63h92v151h-92v70h92v188h85v-188h137v-70h-137v-151h137v-63h-137v-97c0 -56 18 -84 81 -84c20 0 41 3 55 7v-71z" />
    <glyph glyph-name="schwa" unicode="&#x259;" horiz-adv-x="552" 
d="M267 539c125 0 238 -91 238 -275c0 -192 -127 -275 -238 -275c-121 0 -220 88 -220 278v18h373c-3 120 -72 184 -159 184c-76 0 -119 -31 -159 -86l-50 43c49 70 116 113 215 113zM418 219h-290c7 -94 53 -159 140 -159c71 0 138 49 150 159z" />
    <glyph glyph-name="commaaccent" unicode="&#xf6c3;" horiz-adv-x="271" 
d="M99 -248l26 102h-37v98h95v-88l-47 -112h-37z" />
    <glyph glyph-name="zero" unicode="0" horiz-adv-x="661" 
d="M331 -14c-177 0 -279 153 -279 384s102 384 279 384c178 0 277 -153 277 -384s-99 -384 -277 -384zM331 63c119 0 190 106 190 307s-74 306 -190 306c-121 0 -191 -105 -191 -306s74 -307 191 -307z" />
    <glyph glyph-name="one" unicode="1" horiz-adv-x="437" 
d="M403 0h-349v78h139v570c-36 -19 -94 -34 -137 -34v78c57 2 108 17 141 48h82v-662h124v-78z" />
    <glyph glyph-name="two" unicode="2" horiz-adv-x="592" 
d="M533 0h-489v16c0 107 48 207 243 332c111 71 156 116 156 195c0 81 -51 133 -139 133c-76 0 -137 -42 -181 -122l-68 42c54 98 138 158 253 158c137 0 221 -84 221 -205c0 -97 -44 -163 -186 -253c-129 -82 -192 -155 -200 -218h390v-78z" />
    <glyph glyph-name="three" unicode="3" horiz-adv-x="597" 
d="M287 -14c-111 0 -204 48 -261 135l64 48c53 -76 119 -106 197 -106c103 0 168 52 168 140c0 103 -65 152 -228 152h-30v73h35c153 0 205 47 205 129c0 70 -42 118 -147 118c-71 0 -131 -33 -174 -84l-57 53c55 64 137 109 238 109c157 0 227 -84 227 -185
c0 -93 -55 -155 -144 -175c110 -22 162 -87 162 -192c0 -125 -99 -215 -255 -215z" />
    <glyph glyph-name="four" unicode="4" horiz-adv-x="619" 
d="M472 0h-85v171h-357v67l337 502h105v-492h125v-77h-125v-171zM385 637l-258 -389h260v389h-2z" />
    <glyph glyph-name="five" unicode="5" horiz-adv-x="587" 
d="M285 -14c-110 0 -198 51 -251 126l59 54c47 -59 105 -103 190 -103c121 0 176 85 176 180c0 113 -66 172 -161 172c-72 0 -123 -30 -163 -86l-63 22l29 389h402l-7 -79h-324l-18 -236c34 38 83 64 161 64c138 0 231 -95 231 -242c0 -151 -99 -261 -261 -261z" />
    <glyph glyph-name="six" unicode="6" horiz-adv-x="619" 
d="M322 -14c-153 0 -270 119 -270 371c0 238 128 397 300 397c82 0 141 -26 181 -58l-44 -65c-37 28 -76 46 -140 46c-128 0 -209 -129 -211 -305c48 50 116 94 206 94c151 0 233 -93 233 -232c0 -143 -106 -248 -255 -248zM327 61c100 0 165 63 165 171
c0 92 -46 159 -161 159c-78 0 -150 -43 -191 -98c14 -162 90 -232 187 -232z" />
    <glyph glyph-name="seven" unicode="7" horiz-adv-x="547" 
d="M202 0h-90l306 661h-375v79h467v-74z" />
    <glyph glyph-name="eight" unicode="8" horiz-adv-x="613" 
d="M307 -16c-171 0 -271 86 -271 197c0 102 74 161 190 210c-97 45 -156 92 -156 183c0 92 86 182 237 182c154 0 235 -91 235 -182c0 -86 -57 -135 -157 -180c120 -52 191 -104 191 -213s-99 -197 -269 -197zM311 426c103 46 146 78 146 143c0 56 -46 113 -150 113
c-101 0 -151 -54 -151 -110c0 -68 49 -100 155 -146zM307 57c107 0 182 50 182 129c0 78 -66 121 -188 172c-120 -54 -177 -98 -177 -172c0 -76 75 -129 183 -129z" />
    <glyph glyph-name="nine" unicode="9" horiz-adv-x="619" 
d="M288 349c77 0 149 43 190 98c-13 162 -89 231 -186 231c-100 0 -165 -62 -165 -170c0 -92 45 -159 161 -159zM267 -14c-85 0 -148 29 -189 64l43 65c40 -31 81 -53 149 -53c128 0 208 130 210 306c-48 -50 -116 -94 -206 -94c-150 0 -232 93 -232 232
c0 143 106 248 255 248c153 0 269 -119 269 -371c0 -238 -127 -397 -299 -397z" />
    <glyph glyph-name="onequarter" unicode="&#xbc;" horiz-adv-x="958" 
d="M230 0l443 740h78l-443 -740h-78zM93 276v62h83v324c-22 -9 -52 -14 -81 -14v63c42 1 70 9 89 29h65v-402h75v-62h-231zM751 0v109h-213v48l207 309h79v-295h75v-62h-75v-109h-73zM616 168h138v208z" />
    <glyph glyph-name="onehalf" unicode="&#xbd;" horiz-adv-x="995" 
d="M93 276v62h83v324c-22 -9 -52 -14 -81 -14v63c42 1 70 9 89 29h65v-402h75v-62h-231zM230 0l443 740h78l-443 -740h-78zM608 0v21c0 67 28 129 151 207c61 40 89 66 89 111c0 43 -26 72 -75 72c-43 0 -77 -24 -106 -80l-55 34c38 73 92 109 163 109
c91 0 145 -54 145 -134c0 -61 -29 -105 -120 -160c-69 -43 -104 -83 -109 -116h232v-64h-315z" />
    <glyph glyph-name="threequarters" unicode="&#xbe;" horiz-adv-x="987" 
d="M260 0l442 740h78l-442 -740h-78zM780 0v109h-213v48l207 309h79v-295h75v-62h-75v-109h-73zM224 268c-71 0 -132 33 -170 96l50 39c34 -54 75 -72 117 -72c61 0 93 32 93 78c0 57 -34 86 -126 86h-28v55h31c82 0 114 24 114 72c0 37 -24 65 -79 65
c-40 0 -75 -19 -107 -56l-46 42c42 49 94 77 157 77c102 0 148 -56 148 -122c0 -48 -25 -87 -77 -104c62 -19 88 -58 88 -115c0 -83 -64 -141 -165 -141zM645 168h138v208z" />
    <glyph glyph-name="underscore" unicode="_" horiz-adv-x="500" 
d="M500 -132h-500v67h500v-67z" />
    <glyph glyph-name="hyphen" unicode="-" horiz-adv-x="357" 
d="M295 280h-233v68h233v-68z" />
    <glyph glyph-name="hyphen" unicode="&#xad;" horiz-adv-x="357" 
d="M295 280h-233v68h233v-68z" />
    <glyph glyph-name="endash" unicode="&#x2013;" horiz-adv-x="645" 
d="M580 275h-515v76h515v-76z" />
    <glyph glyph-name="emdash" unicode="&#x2014;" horiz-adv-x="928" 
d="M863 275h-798v76h798v-76z" />
    <glyph glyph-name="parenleft" unicode="(" horiz-adv-x="399" 
d="M351 -164l-41 -41c-163 137 -251 289 -251 480c0 192 88 343 251 480l39 -43c-119 -113 -197 -262 -197 -437s78 -326 199 -439z" />
    <glyph glyph-name="parenright" unicode=")" horiz-adv-x="399" 
d="M89 -205l-41 41c120 113 198 264 198 439s-77 324 -197 437l40 43c163 -137 250 -288 250 -480c0 -191 -87 -343 -250 -480z" />
    <glyph glyph-name="bracketleft" unicode="[" horiz-adv-x="399" 
d="M355 -200h-271v940h271v-64h-184v-812h184v-64z" />
    <glyph glyph-name="bracketright" unicode="]" horiz-adv-x="399" 
d="M314 -200h-271v64h184v811h-184v65h271v-940z" />
    <glyph glyph-name="braceleft" unicode="{" horiz-adv-x="391" 
d="M353 -200h-77c-92 0 -132 51 -132 138v180c0 98 -36 120 -111 120v64c75 0 111 22 111 120v180c0 87 40 138 132 138h77v-64h-44c-54 0 -78 -26 -78 -77v-184c0 -98 -31 -126 -85 -144v-2c54 -18 85 -46 85 -144v-184c0 -51 24 -77 78 -77h44v-64z" />
    <glyph glyph-name="braceright" unicode="}" horiz-adv-x="391" 
d="M120 -200h-82v64h44c54 0 78 26 78 77v189c0 98 31 121 85 139v2c-54 18 -85 41 -85 139v189c0 51 -21 80 -75 80h-44l-3 61h82c92 0 127 -46 127 -133v-185c0 -98 36 -120 111 -120v-64c-75 0 -111 -22 -111 -120v-185c0 -87 -35 -133 -127 -133z" />
    <glyph glyph-name="numbersign" unicode="#" horiz-adv-x="718" 
d="M287 460l-38 -180h177l37 180h-176zM190 0h-79l44 211h-115v69h130l37 180h-124v69h139l44 211h79l-44 -211h177l44 211h79l-44 -211h120v-69h-134l-38 -180h129v-69h-143l-45 -211h-79l44 211h-176z" />
    <glyph glyph-name="percent" unicode="%" horiz-adv-x="995" 
d="M231 299c-111 0 -173 91 -173 224c0 139 68 228 174 228s171 -88 171 -225c0 -133 -63 -227 -172 -227zM316 0h-78l442 740h78zM232 365c62 0 95 67 95 159c0 98 -34 161 -96 161c-64 0 -96 -67 -96 -159c0 -98 33 -161 97 -161zM764 -10c-110 0 -172 92 -172 224
c0 139 68 228 174 228c105 0 171 -88 171 -225c0 -132 -64 -227 -173 -227zM765 55c63 0 96 69 96 161c0 98 -34 160 -97 160c-64 0 -96 -67 -96 -159c0 -98 33 -162 97 -162z" />
    <glyph glyph-name="perthousand" unicode="&#x2030;" horiz-adv-x="1411" 
d="M231 299c-111 0 -173 91 -173 224c0 139 68 228 174 228s171 -88 171 -225c0 -133 -63 -227 -172 -227zM316 0h-78l442 740h78zM232 365c62 0 95 67 95 159c0 98 -34 161 -96 161c-64 0 -96 -67 -96 -159c0 -98 33 -161 97 -161zM1180 -10c-110 0 -172 92 -172 224
c0 139 67 228 173 228s171 -88 171 -225c0 -132 -64 -227 -172 -227zM764 -10c-110 0 -172 92 -172 224c0 139 68 228 174 228c105 0 171 -88 171 -225c0 -132 -64 -227 -173 -227zM765 55c63 0 96 69 96 161c0 98 -34 160 -97 160c-64 0 -96 -67 -96 -159
c0 -98 33 -162 97 -162zM1180 55c64 0 96 69 96 161c0 98 -33 160 -96 160c-64 0 -97 -67 -97 -159c0 -98 34 -162 97 -162z" />
    <glyph glyph-name="quotesingle" unicode="'" horiz-adv-x="239" 
d="M143 485h-48l-17 196v59h82v-59z" />
    <glyph glyph-name="quotedbl" unicode="&#x22;" horiz-adv-x="415" 
d="M319 485h-47l-17 196v59h81v-59zM143 485h-48l-17 196v59h82v-59z" />
    <glyph glyph-name="quoteleft" unicode="&#x2018;" horiz-adv-x="271" 
d="M185 530h-100v97l52 113h40l-28 -105h36v-105z" />
    <glyph glyph-name="quoteright" unicode="&#x2019;" horiz-adv-x="271" 
d="M134 530h-40l27 105h-36v105h100v-97z" />
    <glyph glyph-name="quotedblleft" unicode="&#x201c;" horiz-adv-x="465" 
d="M380 530h-100v97l52 113h39l-27 -105h36v-105zM185 530h-100v97l52 113h40l-28 -105h36v-105z" />
    <glyph glyph-name="quotedblright" unicode="&#x201d;" horiz-adv-x="465" 
d="M328 530h-39l27 105h-36v105h100v-97zM134 530h-40l27 105h-36v105h100v-97z" />
    <glyph glyph-name="quotesinglbase" unicode="&#x201a;" horiz-adv-x="271" 
d="M134 -105h-40l27 105h-36v105h100v-96z" />
    <glyph glyph-name="quotedblbase" unicode="&#x201e;" horiz-adv-x="465" 
d="M328 -105h-39l27 105h-36v105h100v-96zM134 -105h-40l27 105h-36v105h100v-96z" />
    <glyph glyph-name="guilsinglleft" unicode="&#x2039;" horiz-adv-x="333" 
d="M279 0h-87l-151 265l151 263h87l-147 -263z" />
    <glyph glyph-name="guilsinglright" unicode="&#x203a;" horiz-adv-x="333" 
d="M140 0h-87l148 265l-148 263h87l152 -263z" />
    <glyph glyph-name="guillemotleft" unicode="&#xab;" horiz-adv-x="542" 
d="M489 0h-86l-153 265l153 263h86l-149 -263zM279 0h-87l-151 265l151 263h87l-147 -263z" />
    <glyph glyph-name="guillemotright" unicode="&#xbb;" horiz-adv-x="542" 
d="M349 0h-86l148 265l-148 263h86l152 -263zM140 0h-87l148 265l-148 263h87l152 -263z" />
    <glyph glyph-name="asterisk" unicode="*" horiz-adv-x="508" 
d="M254 506l-77 -163l-57 33l102 148l-180 -12v62l181 -13l-103 148l57 34l77 -163l77 163l57 -34l-102 -148l180 13v-62l-180 12l102 -148l-56 -33z" />
    <glyph glyph-name="dagger" unicode="&#x2020;" horiz-adv-x="566" 
d="M329 -200h-93l15 613l-206 -11v82l206 -13l-15 269h93l-15 -269l206 13v-82l-206 11z" />
    <glyph glyph-name="daggerdbl" unicode="&#x2021;" horiz-adv-x="566" 
d="M329 -200h-93l15 233l-196 -13v80l196 -12l-11 184l11 180l-196 -11v79l196 -12l-15 232h93l-15 -232l196 12v-79l-196 11l11 -180l-11 -184l196 12v-80l-196 13z" />
    <glyph glyph-name="period" unicode="." horiz-adv-x="271" 
d="M187 0h-103v105h103v-105z" />
    <glyph glyph-name="comma" unicode="," horiz-adv-x="271" 
d="M136 -105h-40l27 105h-39v105h103v-93z" />
    <glyph glyph-name="colon" unicode=":" horiz-adv-x="275" 
d="M189 422h-103v106h103v-106zM189 0h-103v105h103v-105z" />
    <glyph glyph-name="semicolon" unicode=";" horiz-adv-x="275" 
d="M189 422h-103v106h103v-106zM137 -105h-40l28 105h-39v105h103v-92z" />
    <glyph glyph-name="ellipsis" unicode="&#x2026;" horiz-adv-x="812" 
d="M457 0h-103v105h103v-105zM187 0h-103v105h103v-105zM728 0h-103v105h103v-105z" />
    <glyph glyph-name="exclam" unicode="!" horiz-adv-x="321" 
d="M190 208h-56l-26 532h107zM213 0h-103v103h103v-103z" />
    <glyph glyph-name="exclamdown" unicode="&#xa1;" horiz-adv-x="321" 
d="M211 637h-103v103h103v-103zM213 0h-107l25 532h56z" />
    <glyph glyph-name="question" unicode="?" horiz-adv-x="549" 
d="M283 207h-70c-2 21 -3 44 -3 67c0 71 28 115 93 153c75 46 109 71 109 141c0 67 -52 108 -138 108c-82 0 -137 -42 -178 -96l-59 49c56 71 128 125 243 125c136 0 219 -75 219 -181c0 -96 -56 -141 -126 -182c-85 -49 -90 -76 -90 -184zM299 0h-102v103h102v-103z" />
    <glyph glyph-name="questiondown" unicode="&#xbf;" horiz-adv-x="549" 
d="M352 637h-102v103h102v-103zM269 -14c-136 0 -219 75 -219 181c0 96 56 141 126 182c85 49 90 76 90 184h70c2 -21 3 -44 3 -67c0 -71 -28 -115 -92 -153c-76 -46 -110 -71 -110 -141c0 -67 52 -108 138 -108c82 0 137 42 178 96l59 -49c-56 -71 -128 -125 -243 -125z
" />
    <glyph glyph-name="slash" unicode="/" horiz-adv-x="566" 
d="M113 0h-90l430 740h90z" />
    <glyph glyph-name="backslash" unicode="\" horiz-adv-x="556" 
d="M538 0h-90l-430 740h90z" />
    <glyph glyph-name="fraction" unicode="&#x2044;" horiz-adv-x="480" 
d="M63 0h-79l434 740h78z" />
    <glyph glyph-name="bar" unicode="|" horiz-adv-x="355" 
d="M219 -200h-84v940h84v-940z" />
    <glyph glyph-name="brokenbar" unicode="&#xa6;" horiz-adv-x="355" 
d="M219 331h-84v409h84v-409zM219 -200h-84v409h84v-409z" />
    <glyph glyph-name="at" unicode="@" horiz-adv-x="868" 
d="M431 -14c-227 0 -384 156 -384 383c0 228 164 385 388 385c223 0 386 -154 386 -374c0 -139 -72 -225 -174 -225c-67 0 -107 31 -121 76c-46 -43 -98 -71 -164 -71c-86 0 -147 52 -147 159c0 154 86 270 206 270c60 0 97 -23 127 -53l7 45h70l-44 -296
c-8 -48 19 -83 74 -83c65 0 118 57 118 176c0 195 -142 330 -338 330c-198 0 -338 -139 -338 -339c0 -199 139 -339 335 -339c79 0 141 18 201 52l21 -36c-61 -37 -139 -60 -223 -60zM379 217c47 0 87 18 131 60l30 199c-32 37 -67 53 -115 53c-84 0 -139 -95 -139 -203
c0 -76 35 -109 93 -109z" />
    <glyph glyph-name="ampersand" unicode="&#x26;" horiz-adv-x="725" 
d="M283 444c76 40 138 83 138 158c0 43 -26 82 -83 82c-62 0 -97 -40 -97 -102c0 -47 13 -88 42 -138zM290 59c61 0 112 17 155 52c-39 37 -82 86 -134 151c-26 33 -49 63 -68 91c-72 -42 -120 -96 -120 -161c0 -86 58 -133 167 -133zM284 -14c-163 0 -249 80 -249 197
c0 110 79 176 173 225c-33 59 -50 112 -50 169c0 92 59 177 180 177c108 0 162 -66 162 -146c0 -104 -83 -165 -185 -216c17 -26 39 -54 64 -86c45 -58 85 -104 119 -138c39 53 63 123 73 204h80c-13 -94 -44 -182 -94 -249c53 -41 99 -57 147 -57v-76
c-77 3 -136 22 -202 74c-57 -49 -127 -78 -218 -78z" />
    <glyph glyph-name="section" unicode="&#xa7;" horiz-adv-x="540" 
d="M310 136c63 29 99 68 99 115c0 54 -30 80 -160 157c-7 3 -14 7 -20 10c-60 -28 -98 -68 -98 -115c0 -54 30 -80 160 -157c7 -3 14 -7 19 -10zM270 -200c-133 0 -181 67 -201 145l70 24c18 -63 47 -101 128 -101c75 0 101 40 101 84c0 46 -29 78 -123 132
c-130 76 -191 119 -191 207c0 80 66 133 122 162c-70 51 -91 89 -91 145c0 81 68 156 185 156c136 0 185 -67 204 -145l-72 -26c-18 64 -55 104 -129 104c-76 0 -106 -41 -106 -85c0 -46 33 -78 127 -132c131 -76 191 -119 191 -207c0 -80 -64 -134 -121 -163
c70 -51 86 -88 86 -144c0 -81 -63 -156 -180 -156z" />
    <glyph glyph-name="paragraph" unicode="&#xb6;" horiz-adv-x="623" 
d="M370 -200h-69v533c-157 3 -243 71 -243 202c0 116 81 205 229 205h251v-940h-68v870h-100v-870z" />
    <glyph glyph-name="periodcentered" unicode="&#xb7;" horiz-adv-x="273" 
d="M189 269h-105v105h105v-105z" />
    <glyph glyph-name="bullet" unicode="&#x2022;" horiz-adv-x="463" 
d="M231 229c-70 0 -121 51 -121 121c0 71 51 122 121 122c71 0 122 -51 122 -122c0 -70 -51 -121 -122 -121z" />
    <glyph glyph-name="minute" unicode="&#x2032;" horiz-adv-x="239" 
d="M69 486l18 196l10 58h81l-61 -254h-48z" />
    <glyph glyph-name="second" unicode="&#x2033;" horiz-adv-x="415" 
d="M245 486l18 196l10 58h81l-61 -254h-48zM69 486l18 196l10 58h81l-61 -254h-48z" />
    <glyph glyph-name="plus" unicode="+" horiz-adv-x="638" 
d="M356 77h-74v220h-216v72h216v220h74v-220h217v-72h-217v-220z" />
    <glyph glyph-name="minus" unicode="&#x2212;" horiz-adv-x="638" 
d="M573 297h-507v72h507v-72z" />
    <glyph glyph-name="plusminus" unicode="&#xb1;" horiz-adv-x="638" 
d="M66 44v68h217v208h-217v71h217v220h73v-220h217v-71h-217v-208h217v-68h-507z" />
    <glyph glyph-name="divide" unicode="&#xf7;" horiz-adv-x="638" 
d="M364 467h-94v92h94v-92zM573 297h-507v72h507v-72zM364 106h-94v92h94v-92z" />
    <glyph glyph-name="multiply" unicode="&#xd7;" horiz-adv-x="638" 
d="M319 268l-170 -171l-51 52l169 169l-169 169l51 51l169 -170l169 170l51 -51l-169 -169l170 -169l-51 -51z" />
    <glyph glyph-name="equal" unicode="=" horiz-adv-x="638" 
d="M571 405h-505v69h505v-69zM571 177h-505v69h505v-69z" />
    <glyph glyph-name="less" unicode="&#x3c;" horiz-adv-x="638" 
d="M582 145v-77l-529 227v58l529 227v-77l-432 -179z" />
    <glyph glyph-name="greater" unicode="&#x3e;" horiz-adv-x="638" 
d="M587 295l-529 -227v77l432 179l-432 179v77l529 -227v-58z" />
    <glyph glyph-name="lessequal" unicode="&#x2264;" horiz-adv-x="638" 
d="M582 141l-529 190v57l529 192v-76l-420 -145l420 -142v-76zM53 44v68h529v-68h-529z" />
    <glyph glyph-name="greaterequal" unicode="&#x2265;" horiz-adv-x="638" 
d="M58 141v76l420 142l-420 145v76l529 -192v-57zM58 44v68h529v-68h-529z" />
    <glyph glyph-name="approxequal" unicode="&#x2248;" horiz-adv-x="610" 
d="M430 352c-68 3 -202 73 -248 76c-29 2 -49 -8 -54 -46l-55 7c8 82 52 115 112 112c70 -4 202 -74 248 -77c30 -2 51 9 54 47l56 -6c-8 -82 -53 -117 -113 -113zM423 144c-67 3 -202 73 -248 76c-30 2 -50 -8 -54 -47l-55 8c8 81 52 115 112 111c70 -3 202 -73 248 -76
c29 -2 50 8 54 46l56 -6c-8 -81 -52 -115 -113 -112z" />
    <glyph glyph-name="notequal" unicode="&#x2260;" horiz-adv-x="638" 
d="M135 -1l82 178h-151v69h179l75 159h-254v69h283l89 193h78l-89 -193h144v-69h-172l-76 -159h248v-69h-276l-82 -178h-78z" />
    <glyph glyph-name="logicalnot" unicode="&#xac;" horiz-adv-x="633" 
d="M567 371v-289h-71v220h-430v69h501z" />
    <glyph glyph-name="radical" unicode="&#x221a;" horiz-adv-x="648" 
d="M372 -2h-84l-170 462h-84v68h149l149 -430h2l224 642h83z" />
    <glyph glyph-name="infinity" unicode="&#x221e;" horiz-adv-x="769" 
d="M205 183c-110 0 -170 61 -170 176s60 178 170 178c77 0 134 -43 180 -117c45 74 102 117 179 117c110 0 170 -63 170 -178s-60 -176 -170 -176c-77 0 -134 45 -179 119c-46 -74 -103 -119 -180 -119zM561 249c66 0 103 39 103 110c0 72 -37 112 -103 112
c-67 0 -106 -53 -141 -110c35 -58 74 -112 141 -112zM208 249c68 0 106 52 142 110c-36 58 -74 112 -142 112c-66 0 -102 -40 -102 -112c0 -71 36 -110 102 -110z" />
    <glyph glyph-name="dollar" unicode="$" horiz-adv-x="654" 
d="M298 432v243c-95 -5 -137 -54 -137 -114c0 -74 58 -104 137 -129zM355 335v-270c87 6 154 38 154 125c0 86 -67 118 -154 145zM295 -93v88c-131 10 -203 82 -239 144l64 42c43 -64 92 -108 178 -116v286c-116 33 -221 75 -221 203c0 104 81 185 218 193v72h62v-74
c111 -11 168 -67 205 -126l-63 -47c-35 56 -71 92 -144 101v-258c123 -34 238 -77 238 -218c0 -112 -85 -193 -236 -203v-87h-62z" />
    <glyph glyph-name="cent" unicode="&#xa2;" horiz-adv-x="538" 
d="M194 89l104 378h-12c-76 0 -158 -52 -158 -203c0 -84 26 -142 66 -175zM130 -129l41 146c-72 41 -125 125 -125 247c0 191 124 275 242 275c10 0 19 0 28 -1l28 100h54l-31 -111c67 -24 105 -78 129 -136l-70 -30c-20 50 -46 81 -82 96l-108 -391c15 -5 31 -7 48 -7
c67 0 110 31 146 108l68 -28c-41 -88 -104 -150 -217 -150c-21 0 -42 3 -61 8l-35 -126h-55z" />
    <glyph glyph-name="sterling" unicode="&#xa3;" horiz-adv-x="624" 
d="M218 354h-130v64h94c-25 45 -46 90 -46 145c0 111 74 191 197 191c143 0 194 -95 205 -188l-80 -12c-7 72 -39 126 -125 126c-72 0 -112 -46 -112 -116c0 -52 26 -97 52 -146h173v-64h-142c17 -38 29 -80 29 -131c0 -41 -6 -77 -17 -108c36 -29 72 -57 115 -57
c64 0 86 38 91 128h78c-3 -111 -43 -200 -160 -200c-64 0 -113 35 -156 72c-34 -47 -82 -72 -143 -72c-55 0 -114 34 -114 103s48 115 120 115c40 0 74 -18 106 -40c2 15 3 33 3 52c0 53 -17 97 -38 138zM234 101c-29 25 -57 45 -87 45c-35 0 -56 -22 -56 -55
c0 -31 23 -50 54 -50c41 0 71 20 89 60z" />
    <glyph glyph-name="currency" unicode="&#xa4;" horiz-adv-x="638" 
d="M318 241c68 0 116 47 116 119c0 71 -48 119 -116 119c-66 0 -115 -48 -115 -119c0 -72 49 -119 115 -119zM318 187c-36 0 -68 9 -94 27l-103 -103l-50 49l102 102c-18 27 -29 60 -29 98c0 36 10 69 27 95l-100 100l50 49l100 -100c27 18 61 29 97 29c37 0 71 -11 97 -28
l100 99l50 -49l-99 -100c17 -26 27 -58 27 -95s-11 -71 -29 -98l102 -101l-50 -50l-102 103c-27 -18 -60 -27 -96 -27z" />
    <glyph glyph-name="yen" unicode="&#xa5;" horiz-adv-x="629" 
d="M358 0h-88v117h-189v64h189v88h-189v64h186l-243 407h94l198 -336l197 336h92l-245 -407h189v-64h-191v-88h191v-64h-191v-117z" />
    <glyph glyph-name="Euro" unicode="&#x20ac;" horiz-adv-x="721" 
d="M138 411h-117v65h124c29 191 145 278 274 278c140 0 207 -85 241 -209l-79 -25c-29 100 -62 157 -162 157c-93 0 -166 -63 -189 -201h214v-65h-221c-1 -11 -1 -23 -1 -35c0 -18 1 -35 1 -51h221v-66h-213c22 -130 86 -197 190 -197c94 0 141 56 170 167l79 -23
c-36 -132 -115 -220 -250 -220c-137 0 -244 87 -274 273h-125v66h117c-1 16 -1 32 -1 48c0 13 0 26 1 38z" />
    <glyph glyph-name="florin" unicode="&#x192;" horiz-adv-x="349" 
d="M-94 -198l9 65c7 -1 24 -2 36 -2c52 0 89 22 96 79l64 465h-92l9 67h92l16 123c12 91 64 143 178 143c16 0 41 -3 50 -3l-10 -67c-7 1 -24 2 -36 2c-48 0 -89 -17 -96 -74l-16 -124h116l-9 -67h-116l-65 -473c-12 -87 -63 -137 -177 -137c-16 0 -41 2 -49 3z" />
    <glyph glyph-name="asciicircum" unicode="^" horiz-adv-x="638" 
d="M64 336l228 404h57l227 -404h-76l-180 317l-179 -317h-77z" />
    <glyph glyph-name="asciitilde" unicode="~" horiz-adv-x="638" 
d="M456 267c-67 3 -231 68 -278 71c-29 2 -49 -8 -53 -46l-56 7c8 81 52 114 113 111c69 -3 231 -69 278 -72c29 -1 50 9 54 48l55 -6c-8 -82 -52 -117 -113 -113z" />
    <glyph glyph-name="acute" unicode="&#xb4;" horiz-adv-x="500" 
d="M222 585h-57l94 158h105z" />
    <glyph glyph-name="grave" unicode="`" horiz-adv-x="500" 
d="M335 585h-57l-142 158h105z" />
    <glyph glyph-name="hungarumlaut" unicode="&#x2dd;" horiz-adv-x="509" 
d="M134 585h-58l97 158h106zM301 585h-59l100 158h106z" />
    <glyph glyph-name="circumflex" unicode="&#x2c6;" horiz-adv-x="518" 
d="M150 582h-52l129 161h63l129 -161h-52l-109 94z" />
    <glyph glyph-name="caron" unicode="&#x2c7;" horiz-adv-x="518" 
d="M290 586h-63l-129 161h53l108 -94l108 94h52z" />
    <glyph glyph-name="breve" unicode="&#x2d8;" horiz-adv-x="500" 
d="M250 579c-93 0 -150 67 -155 168h52c9 -77 48 -104 103 -104s94 27 103 104h52c-5 -101 -62 -168 -155 -168z" />
    <glyph glyph-name="tilde" unicode="&#x2dc;" horiz-adv-x="508" 
d="M328 580c-59 0 -105 56 -146 56c-29 0 -41 -15 -41 -54h-53c0 83 33 119 92 119s105 -56 147 -56c28 0 41 15 41 54h51c0 -82 -33 -119 -91 -119z" />
    <glyph glyph-name="macron" unicode="&#xaf;" horiz-adv-x="500" 
d="M385 583h-270v69h270v-69z" />
    <glyph glyph-name="dieresis" unicode="&#xa8;" horiz-adv-x="510" 
d="M207 583h-88v94h88v-94zM390 583h-89v94h89v-94z" />
    <glyph glyph-name="dotaccent" unicode="&#x2d9;" horiz-adv-x="500" 
d="M300 589h-100v90h100v-90z" />
    <glyph glyph-name="ring" unicode="&#x2da;" horiz-adv-x="540" 
d="M270 577c-55 0 -95 41 -95 95c0 53 40 93 95 93s95 -40 95 -93c0 -54 -40 -95 -95 -95zM270 617c30 0 52 23 52 55c0 31 -22 54 -52 54s-52 -23 -52 -54c0 -32 22 -55 52 -55z" />
    <glyph glyph-name="cedilla" unicode="&#xb8;" horiz-adv-x="500" 
d="M253 -196c-48 0 -93 13 -128 36l20 33c30 -20 66 -30 100 -30c48 0 69 17 69 45c0 22 -14 34 -40 34c-21 0 -36 -9 -50 -20l-31 15l26 83h47l-15 -52c14 9 32 15 56 15c37 0 71 -24 71 -68c0 -63 -56 -91 -125 -91z" />
    <glyph glyph-name="ogonek" unicode="&#x2db;" horiz-adv-x="500" 
d="M253 -187c-61 0 -97 29 -97 77c0 41 40 85 89 116h53c-48 -33 -75 -68 -75 -103c0 -27 14 -46 51 -46c34 0 62 10 93 24l18 -30c-41 -23 -85 -38 -132 -38z" />
    <glyph glyph-name="copyright" unicode="&#xa9;" horiz-adv-x="864" 
d="M432 -14c-215 0 -382 170 -382 383c0 214 168 385 383 385c213 0 381 -170 381 -383c0 -214 -169 -385 -382 -385zM433 32c186 0 331 150 331 337c0 188 -146 339 -332 339c-187 0 -332 -150 -332 -337c0 -188 146 -339 333 -339zM430 155c-106 0 -176 87 -176 221
c0 128 68 217 177 217c87 0 136 -50 157 -133l-54 -14c-18 62 -46 96 -103 96c-71 0 -117 -67 -117 -166c0 -104 45 -168 118 -168c55 0 89 34 106 102c0 0 51 -14 56 -14c-23 -88 -76 -141 -164 -141z" />
    <glyph glyph-name="registered" unicode="&#xae;" horiz-adv-x="544" 
d="M272 291c-129 0 -231 103 -231 233s102 233 232 233c129 0 230 -103 230 -232c0 -131 -101 -234 -231 -234zM273 324c110 0 197 88 197 200c0 111 -87 201 -198 201c-110 0 -197 -89 -197 -200c0 -112 87 -201 198 -201zM226 540h49c34 0 55 10 55 41c0 29 -21 40 -56 40
h-48v-81zM186 400v257h91c59 0 92 -26 92 -74c0 -41 -21 -62 -54 -71l61 -112h-43l-58 107h-49v-107h-40z" />
    <glyph glyph-name="trademark" unicode="&#x2122;" horiz-adv-x="885" 
d="M222 317h-64v368h-128v55h321v-55h-129v-368zM481 317h-59v423h84l118 -340l119 340h84v-423h-63v322l-115 -322h-53l-115 321v-321z" />
    <glyph glyph-name="degree" unicode="&#xb0;" horiz-adv-x="405" 
d="M203 466c-84 0 -146 61 -146 144s62 143 146 143c83 0 145 -60 145 -143s-62 -144 -145 -144zM203 517c50 0 87 38 87 93s-37 92 -87 92c-51 0 -88 -37 -88 -92s37 -93 88 -93z" />
    <glyph glyph-name="lozenge" unicode="&#x25ca;" 
d="M289 740h71l235 -370l-233 -370h-73l-234 370zM325 86l183 284l-183 285l-182 -285z" />
    <glyph glyph-name="apple" unicode="&#xf8ff;" horiz-adv-x="760" 
d="M522 401l-6 105l-104 6v-111h110zM238 401h111v111l-105 -6zM522 338h-110v-110l104 6zM238 338l6 -104l105 -6v110h-111zM178 142l2 28l-27 -2v72l31 -2l6 100l-180 -15v93l180 -15l-6 102l-31 -2v72l27 -2l-2 26h72l-2 -30l101 -7l-15 180h93l-15 -180l101 7l-2 30h72
l-2 -26l27 2v-72l-31 2l-7 -102l180 15v-93l-180 15l7 -100l31 2v-72l-27 2l2 -28h-72l2 32l-101 6l15 -180h-93l15 180l-101 -6l2 -32h-72z" />
    <glyph glyph-name="space.em" unicode="&#x2003;" horiz-adv-x="1000" 
 />
    <glyph glyph-name="space.en" unicode="&#x2002;" horiz-adv-x="500" 
 />
    <glyph glyph-name="space.frac" horiz-adv-x="80" 
 />
    <glyph glyph-name="space.thin" unicode="&#x2009;" horiz-adv-x="200" 
 />
    <glyph glyph-name="space.tab_em" horiz-adv-x="1300" 
 />
    <glyph glyph-name="space.tab_en" unicode="&#x2007;" 
 />
    <glyph glyph-name="space.tab_thin" horiz-adv-x="163" 
 />
    <glyph glyph-name="space.thin_fra" horiz-adv-x="120" 
 />
    <glyph glyph-name="commaaccent.scrap" horiz-adv-x="271" 
d="M88 583v88l47 112h37l-26 -101h37v-99h-95z" />
    <glyph glyph-name="hyphen.uc" horiz-adv-x="357" 
d="M295 350h-233v68h233v-68z" />
    <glyph glyph-name="endash.uc" horiz-adv-x="645" 
d="M580 345h-515v76h515v-76z" />
    <glyph glyph-name="emdash.uc" horiz-adv-x="928" 
d="M863 345h-798v76h798v-76z" />
    <glyph glyph-name="parenleft.uc" horiz-adv-x="399" 
d="M351 -94l-41 -41c-163 137 -251 289 -251 480c0 192 88 343 251 480l39 -43c-119 -113 -197 -262 -197 -437s78 -326 199 -439z" />
    <glyph glyph-name="parenright.uc" horiz-adv-x="399" 
d="M89 -135l-41 41c120 113 198 264 198 439s-77 324 -197 437l40 43c163 -137 250 -288 250 -480c0 -191 -87 -343 -250 -480z" />
    <glyph glyph-name="bracketleft.uc" horiz-adv-x="399" 
d="M355 -130h-271v940h271v-64h-184v-812h184v-64z" />
    <glyph glyph-name="bracketright.uc" horiz-adv-x="399" 
d="M314 -130h-271v64h184v811h-184v65h271v-940z" />
    <glyph glyph-name="braceleft.uc" horiz-adv-x="391" 
d="M353 -130h-77c-92 0 -132 51 -132 138v180c0 98 -36 120 -111 120v64c75 0 111 22 111 120v180c0 87 40 138 132 138h77v-64h-44c-54 0 -78 -26 -78 -77v-184c0 -98 -31 -126 -85 -144v-2c54 -18 85 -46 85 -144v-184c0 -51 24 -77 78 -77h44v-64z" />
    <glyph glyph-name="braceright.uc" horiz-adv-x="391" 
d="M120 -130h-82v64h44c54 0 78 26 78 77v189c0 98 31 121 85 139v2c-54 18 -85 41 -85 139v189c0 51 -21 80 -75 80h-44l-3 61h82c92 0 127 -46 127 -133v-185c0 -98 36 -120 111 -120v-64c-75 0 -111 -22 -111 -120v-185c0 -87 -35 -133 -127 -133z" />
    <glyph glyph-name="guilsinglleft.uc" horiz-adv-x="333" 
d="M279 70h-87l-151 265l151 263h87l-147 -263z" />
    <glyph glyph-name="guilsinglright.uc" horiz-adv-x="333" 
d="M140 70h-87l148 265l-148 263h87l152 -263z" />
    <glyph glyph-name="guillemotleft.uc" horiz-adv-x="542" 
d="M489 70h-86l-153 265l153 263h86l-149 -263zM279 70h-87l-151 265l151 263h87l-147 -263z" />
    <glyph glyph-name="guillemotright.uc" horiz-adv-x="542" 
d="M349 70h-86l148 265l-148 263h86l152 -263zM140 70h-87l148 265l-148 263h87l152 -263z" />
    <glyph glyph-name="periodcentered.uc" horiz-adv-x="273" 
d="M189 339h-105v105h105v-105z" />
    <glyph glyph-name="emdash.salt_em" unicode="&#x2015;" horiz-adv-x="1000" 
d="M0 275v76h1000v-76h-1000z" />
    <glyph glyph-name="endash.salt_en" horiz-adv-x="500" 
d="M0 276v75h500v-75h-500z" />
    <glyph glyph-name="emdash.uc_salt_em" horiz-adv-x="1000" 
d="M0 345v76h1000v-76h-1000z" />
    <glyph glyph-name="endash.uc_salt_en" horiz-adv-x="500" 
d="M0 346v75h500v-75h-500z" />
    <glyph glyph-name="registered.salt_big" horiz-adv-x="864" 
d="M432 -14c-215 0 -382 170 -382 383c0 214 168 385 383 385c213 0 381 -170 381 -383c0 -214 -169 -385 -382 -385zM433 32c186 0 331 150 331 337c0 188 -146 339 -332 339c-187 0 -332 -150 -332 -337c0 -188 146 -339 333 -339zM350 535v-143h86c60 0 95 19 95 73
c0 51 -35 70 -96 70h-85zM350 167h-59v421h148c96 0 151 -42 151 -120c0 -67 -37 -102 -93 -116l100 -185h-64l-95 178h-88v-178z" />
    <glyph glyph-name="zero.dnom" horiz-adv-x="443" 
d="M222 -7c-117 0 -181 93 -181 239c0 145 64 242 181 242c116 0 181 -97 181 -242c0 -146 -65 -239 -181 -239zM222 52c70 0 109 62 109 180c0 115 -41 181 -109 181c-72 0 -110 -66 -110 -181c0 -118 41 -180 110 -180z" />
    <glyph glyph-name="one.dnom" horiz-adv-x="320" 
d="M53 1v61h85v333c-23 -10 -54 -17 -83 -17v58c39 1 69 9 88 29h68v-403h77v-61h-235z" />
    <glyph glyph-name="two.dnom" horiz-adv-x="412" 
d="M46 1v21c0 67 27 130 150 207c66 42 91 66 91 111c0 43 -26 72 -76 72c-43 0 -77 -24 -106 -80l-55 34c38 73 92 109 163 109c93 0 145 -54 145 -134c0 -61 -29 -105 -121 -160c-71 -44 -104 -83 -110 -116h233v-64h-314z" />
    <glyph glyph-name="three.dnom" horiz-adv-x="412" 
d="M204 -7c-71 0 -132 33 -170 96l50 39c34 -54 75 -72 117 -72c61 0 93 32 93 78c0 57 -34 86 -126 86h-28v55h31c82 0 114 24 114 72c0 37 -24 65 -79 65c-40 0 -75 -19 -107 -56l-46 42c42 49 94 77 157 77c102 0 148 -56 148 -122c0 -48 -25 -87 -77 -104
c62 -19 88 -58 88 -115c0 -83 -64 -141 -165 -141z" />
    <glyph glyph-name="four.dnom" horiz-adv-x="409" 
d="M246 1v108h-213v47l208 309h76v-295h75v-61h-75v-108h-71zM110 167h138v208z" />
    <glyph glyph-name="five.dnom" horiz-adv-x="394" 
d="M191 -7c-73 0 -126 33 -163 84l43 42c28 -40 69 -68 120 -68c68 0 101 47 101 102c0 65 -38 100 -91 100c-41 0 -66 -16 -91 -49l-56 20l17 241h264l-5 -61h-201l-10 -132c18 21 48 36 98 36c82 0 146 -55 146 -154c0 -101 -68 -161 -172 -161z" />
    <glyph glyph-name="six.dnom" horiz-adv-x="414" 
d="M217 -7c-103 0 -176 74 -176 234c0 155 74 247 191 247c61 0 107 -21 136 -47l-35 -50c-31 23 -58 37 -102 37c-76 0 -117 -58 -120 -169c30 30 67 54 124 54c97 0 149 -58 149 -148c0 -91 -62 -158 -167 -158zM218 51c59 0 96 36 96 98c0 56 -28 93 -93 93
c-45 0 -81 -24 -108 -58c8 -91 51 -133 105 -133z" />
    <glyph glyph-name="seven.dnom" horiz-adv-x="369" 
d="M74 1l185 401h-226v63h304v-55l-188 -409h-75z" />
    <glyph glyph-name="eight.dnom" horiz-adv-x="410" 
d="M205 -7c-112 0 -175 53 -175 124c0 62 43 99 109 129c-56 27 -88 56 -88 111c0 60 55 117 154 117c101 0 154 -57 154 -117c0 -52 -36 -83 -92 -108c68 -32 113 -66 113 -132c0 -70 -64 -124 -175 -124zM209 272c56 26 82 43 82 80c0 33 -27 66 -85 66
c-57 0 -86 -31 -86 -64c0 -39 26 -55 89 -82zM204 46c63 0 105 29 105 74c0 44 -42 73 -112 101c-69 -30 -98 -58 -98 -101c0 -44 42 -74 105 -74z" />
    <glyph glyph-name="nine.dnom" horiz-adv-x="414" 
d="M193 223c45 0 81 24 108 58c-8 91 -51 134 -105 134c-59 0 -96 -37 -96 -99c0 -56 28 -93 93 -93zM182 -7c-61 0 -107 20 -136 46l35 49c31 -23 58 -36 102 -36c76 0 118 57 120 168c-30 -29 -66 -54 -124 -54c-97 0 -148 60 -148 149c0 91 61 159 166 159
c103 0 177 -75 177 -234c0 -155 -79 -247 -192 -247z" />
    <glyph glyph-name="zero.numr" horiz-adv-x="443" 
d="M222 263c-117 0 -181 93 -181 239c0 145 64 242 181 242c116 0 181 -97 181 -242c0 -146 -65 -239 -181 -239zM222 322c70 0 109 62 109 180c0 115 -41 181 -109 181c-72 0 -110 -66 -110 -181c0 -118 41 -180 110 -180z" />
    <glyph glyph-name="one.numr" horiz-adv-x="320" 
d="M53 271v61h85v333c-23 -10 -54 -17 -83 -17v58c39 1 69 9 88 29h68v-403h77v-61h-235z" />
    <glyph glyph-name="two.numr" horiz-adv-x="412" 
d="M46 271v21c0 67 27 130 150 207c66 42 91 66 91 111c0 43 -26 72 -76 72c-43 0 -77 -24 -106 -80l-55 34c38 73 92 109 163 109c93 0 145 -54 145 -134c0 -61 -29 -105 -121 -160c-71 -44 -104 -83 -110 -116h233v-64h-314z" />
    <glyph glyph-name="three.numr" horiz-adv-x="412" 
d="M204 263c-71 0 -132 33 -170 96l50 39c34 -54 75 -72 117 -72c61 0 93 32 93 78c0 57 -34 86 -126 86h-28v55h31c82 0 114 24 114 72c0 37 -24 65 -79 65c-40 0 -75 -19 -107 -56l-46 42c42 49 94 77 157 77c102 0 148 -56 148 -122c0 -48 -25 -87 -77 -104
c62 -19 88 -58 88 -115c0 -83 -64 -141 -165 -141z" />
    <glyph glyph-name="four.numr" horiz-adv-x="409" 
d="M246 271v108h-213v47l208 309h76v-295h75v-61h-75v-108h-71zM110 437h138v208z" />
    <glyph glyph-name="five.numr" horiz-adv-x="394" 
d="M191 263c-73 0 -126 33 -163 84l43 42c28 -40 69 -68 120 -68c68 0 101 47 101 102c0 65 -38 100 -91 100c-41 0 -66 -16 -91 -49l-56 20l17 241h264l-5 -61h-201l-10 -132c18 21 48 36 98 36c82 0 146 -55 146 -154c0 -101 -68 -161 -172 -161z" />
    <glyph glyph-name="six.numr" horiz-adv-x="414" 
d="M217 263c-103 0 -176 74 -176 234c0 155 74 247 191 247c61 0 107 -21 136 -47l-35 -50c-31 23 -58 37 -102 37c-76 0 -117 -58 -120 -169c30 30 67 54 124 54c97 0 149 -58 149 -148c0 -91 -62 -158 -167 -158zM218 321c59 0 96 36 96 98c0 56 -28 93 -93 93
c-45 0 -81 -24 -108 -58c8 -91 51 -133 105 -133z" />
    <glyph glyph-name="seven.numr" horiz-adv-x="369" 
d="M74 271l185 401h-226v63h304v-55l-188 -409h-75z" />
    <glyph glyph-name="eight.numr" horiz-adv-x="410" 
d="M205 263c-112 0 -175 53 -175 124c0 62 43 99 109 129c-56 27 -88 56 -88 111c0 60 55 117 154 117c101 0 154 -57 154 -117c0 -52 -36 -83 -92 -108c68 -32 113 -66 113 -132c0 -70 -64 -124 -175 -124zM209 542c56 26 82 43 82 80c0 33 -27 66 -85 66
c-57 0 -86 -31 -86 -64c0 -39 26 -55 89 -82zM204 316c63 0 105 29 105 74c0 44 -42 73 -112 101c-69 -30 -98 -58 -98 -101c0 -44 42 -74 105 -74z" />
    <glyph glyph-name="nine.numr" horiz-adv-x="414" 
d="M193 493c45 0 81 24 108 58c-8 91 -51 134 -105 134c-59 0 -96 -37 -96 -99c0 -56 28 -93 93 -93zM182 263c-61 0 -107 20 -136 46l35 49c31 -23 58 -36 102 -36c76 0 118 57 120 168c-30 -29 -66 -54 -124 -54c-97 0 -148 60 -148 149c0 91 61 159 166 159
c103 0 177 -75 177 -234c0 -155 -79 -247 -192 -247z" />
    <glyph glyph-name="zero.sinf" unicode="&#x2080;" horiz-adv-x="483" 
d="M242 -207c-117 0 -181 93 -181 239c0 145 64 242 181 242c116 0 181 -97 181 -242c0 -146 -65 -239 -181 -239zM242 -148c70 0 109 62 109 180c0 115 -41 181 -109 181c-72 0 -110 -66 -110 -181c0 -118 41 -180 110 -180z" />
    <glyph glyph-name="one.sinf" unicode="&#x2081;" horiz-adv-x="360" 
d="M73 -199v61h85v333c-23 -10 -54 -17 -83 -17v58c39 1 69 9 88 29h68v-403h77v-61h-235z" />
    <glyph glyph-name="two.sinf" unicode="&#x2082;" horiz-adv-x="452" 
d="M66 -199v21c0 67 27 130 150 207c66 42 91 66 91 111c0 43 -26 72 -76 72c-43 0 -77 -24 -106 -80l-55 34c38 73 92 109 163 109c93 0 145 -54 145 -134c0 -61 -29 -105 -121 -160c-71 -44 -104 -83 -110 -116h233v-64h-314z" />
    <glyph glyph-name="three.sinf" unicode="&#x2083;" horiz-adv-x="452" 
d="M224 -207c-71 0 -132 33 -170 96l50 39c34 -54 75 -72 117 -72c61 0 93 32 93 78c0 57 -34 86 -126 86h-28v55h31c82 0 114 24 114 72c0 37 -24 65 -79 65c-40 0 -75 -19 -107 -56l-46 42c42 49 94 77 157 77c102 0 148 -56 148 -122c0 -48 -25 -87 -77 -104
c62 -19 88 -58 88 -115c0 -83 -64 -141 -165 -141z" />
    <glyph glyph-name="four.sinf" unicode="&#x2084;" horiz-adv-x="449" 
d="M266 -199v108h-213v47l208 309h76v-295h75v-61h-75v-108h-71zM130 -33h138v208z" />
    <glyph glyph-name="five.sinf" unicode="&#x2085;" horiz-adv-x="434" 
d="M211 -207c-73 0 -126 33 -163 84l43 42c28 -40 69 -68 120 -68c68 0 101 47 101 102c0 65 -38 100 -91 100c-41 0 -66 -16 -91 -49l-56 20l17 241h264l-5 -61h-201l-10 -132c18 21 48 36 98 36c82 0 146 -55 146 -154c0 -101 -68 -161 -172 -161z" />
    <glyph glyph-name="six.sinf" unicode="&#x2086;" horiz-adv-x="454" 
d="M237 -207c-103 0 -176 74 -176 234c0 155 74 247 191 247c61 0 107 -21 136 -47l-35 -50c-31 23 -58 37 -102 37c-76 0 -117 -58 -120 -169c30 30 67 54 124 54c97 0 149 -58 149 -148c0 -91 -62 -158 -167 -158zM238 -149c59 0 96 36 96 98c0 56 -28 93 -93 93
c-45 0 -81 -24 -108 -58c8 -91 51 -133 105 -133z" />
    <glyph glyph-name="seven.sinf" unicode="&#x2087;" horiz-adv-x="409" 
d="M94 -199l185 401h-226v63h304v-55l-188 -409h-75z" />
    <glyph glyph-name="eight.sinf" unicode="&#x2088;" horiz-adv-x="450" 
d="M225 -207c-112 0 -175 53 -175 124c0 62 43 99 109 129c-56 27 -88 56 -88 111c0 60 55 117 154 117c101 0 154 -57 154 -117c0 -52 -36 -83 -92 -108c68 -32 113 -66 113 -132c0 -70 -64 -124 -175 -124zM229 72c56 26 82 43 82 80c0 33 -27 66 -85 66
c-57 0 -86 -31 -86 -64c0 -39 26 -55 89 -82zM224 -154c63 0 105 29 105 74c0 44 -42 73 -112 101c-69 -30 -98 -58 -98 -101c0 -44 42 -74 105 -74z" />
    <glyph glyph-name="nine.sinf" unicode="&#x2089;" horiz-adv-x="454" 
d="M213 23c45 0 81 24 108 58c-8 91 -51 134 -105 134c-59 0 -96 -37 -96 -99c0 -56 28 -93 93 -93zM202 -207c-61 0 -107 20 -136 46l35 49c31 -23 58 -36 102 -36c76 0 118 57 120 168c-30 -29 -66 -54 -124 -54c-97 0 -148 60 -148 149c0 91 61 159 166 159
c103 0 177 -75 177 -234c0 -155 -79 -247 -192 -247z" />
    <glyph glyph-name="one.sups" unicode="&#xb9;" horiz-adv-x="356" 
d="M76 276v61h85v333c-23 -10 -54 -17 -83 -17v58c39 1 69 9 88 29h68v-403h77v-61h-235z" />
    <glyph glyph-name="two.sups" unicode="&#xb2;" horiz-adv-x="452" 
d="M66 276v21c0 67 27 130 150 207c66 42 91 66 91 111c0 43 -26 72 -76 72c-43 0 -77 -24 -106 -80l-55 34c38 73 92 109 163 109c93 0 145 -54 145 -134c0 -61 -29 -105 -121 -160c-71 -44 -104 -83 -110 -116h233v-64h-314z" />
    <glyph glyph-name="three.sups" unicode="&#xb3;" horiz-adv-x="452" 
d="M224 268c-71 0 -132 33 -170 96l50 39c34 -54 75 -72 117 -72c61 0 93 32 93 78c0 57 -34 86 -126 86h-28v55h31c82 0 114 24 114 72c0 37 -24 65 -79 65c-40 0 -75 -19 -107 -56l-46 42c42 49 94 77 157 77c102 0 148 -56 148 -122c0 -48 -25 -87 -77 -104
c62 -19 88 -58 88 -115c0 -83 -64 -141 -165 -141z" />
    <glyph glyph-name="zero.sups" unicode="&#x2070;" horiz-adv-x="483" 
d="M242 268c-117 0 -181 93 -181 239c0 145 64 242 181 242c116 0 181 -97 181 -242c0 -146 -65 -239 -181 -239zM242 327c70 0 109 62 109 180c0 115 -41 181 -109 181c-72 0 -110 -66 -110 -181c0 -118 41 -180 110 -180z" />
    <glyph glyph-name="four.sups" unicode="&#x2074;" horiz-adv-x="449" 
d="M266 276v108h-213v47l208 309h76v-295h75v-61h-75v-108h-71zM130 442h138v208z" />
    <glyph glyph-name="five.sups" unicode="&#x2075;" horiz-adv-x="434" 
d="M211 268c-73 0 -126 33 -163 84l43 42c28 -40 69 -68 120 -68c68 0 101 47 101 102c0 65 -38 100 -91 100c-41 0 -66 -16 -91 -49l-56 20l17 241h264l-5 -61h-201l-10 -132c18 21 48 36 98 36c82 0 146 -55 146 -154c0 -101 -68 -161 -172 -161z" />
    <glyph glyph-name="six.sups" unicode="&#x2076;" horiz-adv-x="454" 
d="M237 268c-103 0 -176 74 -176 234c0 155 74 247 191 247c61 0 107 -21 136 -47l-35 -50c-31 23 -58 37 -102 37c-76 0 -117 -58 -120 -169c30 30 67 54 124 54c97 0 149 -58 149 -148c0 -91 -62 -158 -167 -158zM238 326c59 0 96 36 96 98c0 56 -28 93 -93 93
c-45 0 -81 -24 -108 -58c8 -91 51 -133 105 -133z" />
    <glyph glyph-name="seven.sups" unicode="&#x2077;" horiz-adv-x="409" 
d="M94 276l185 401h-226v63h304v-55l-188 -409h-75z" />
    <glyph glyph-name="eight.sups" unicode="&#x2078;" horiz-adv-x="450" 
d="M225 268c-112 0 -175 53 -175 124c0 62 43 99 109 129c-56 27 -88 56 -88 111c0 60 55 117 154 117c101 0 154 -57 154 -117c0 -52 -36 -83 -92 -108c68 -32 113 -66 113 -132c0 -70 -64 -124 -175 -124zM229 547c56 26 82 43 82 80c0 33 -27 66 -85 66
c-57 0 -86 -31 -86 -64c0 -39 26 -55 89 -82zM224 321c63 0 105 29 105 74c0 44 -42 73 -112 101c-69 -30 -98 -58 -98 -101c0 -44 42 -74 105 -74z" />
    <glyph glyph-name="nine.sups" unicode="&#x2079;" horiz-adv-x="454" 
d="M213 498c45 0 81 24 108 58c-8 91 -51 134 -105 134c-59 0 -96 -37 -96 -99c0 -56 28 -93 93 -93zM202 268c-61 0 -107 20 -136 46l35 49c31 -23 58 -36 102 -36c76 0 118 57 120 168c-30 -29 -66 -54 -124 -54c-97 0 -148 60 -148 149c0 91 61 159 166 159
c103 0 177 -75 177 -234c0 -155 -79 -247 -192 -247z" />
    <glyph glyph-name="zero.salt_slash" horiz-adv-x="661" 
d="M331 -14c-177 0 -278 153 -278 384s101 384 278 384c178 0 277 -153 277 -384s-99 -384 -277 -384zM140 370c0 -69 9 -126 25 -173l306 399c-33 53 -81 80 -140 80c-121 0 -191 -104 -191 -306zM331 63c120 0 190 106 190 307c0 67 -8 124 -23 169l-307 -396
c33 -53 81 -80 140 -80z" />
    <glyph glyph-name="zero.sc_salt_slash" horiz-adv-x="536" 
d="M268 -14c-146 0 -228 125 -228 310s82 308 228 308s229 -123 229 -308s-83 -310 -229 -310zM121 296c0 -53 6 -97 18 -133l232 319c-26 36 -61 54 -103 54c-93 0 -147 -83 -147 -240zM268 55c93 0 147 83 147 241c0 53 -6 97 -18 133l-231 -320c25 -36 60 -54 102 -54z
" />
    <glyph glyph-name="zero.tab_salt_slash" 
d="M326 -14c-178 0 -279 153 -279 384s101 384 279 384c177 0 277 -153 277 -384s-100 -384 -277 -384zM134 370c0 -69 9 -126 25 -172l307 399c-33 52 -81 79 -140 79c-121 0 -192 -104 -192 -306zM326 63c119 0 190 106 190 307c0 68 -8 124 -24 170l-307 -398
c34 -52 82 -79 141 -79z" />
    <glyph glyph-name="i.trk" horiz-adv-x="250" 
d="M170 641h-90v84h90v-84zM168 0h-86v528h86v-528z" />
    <glyph glyph-name="A.sc" horiz-adv-x="586" 
d="M192 228h196l-61 168l-35 99h-3l-35 -97zM28 0l223 594h85l222 -594h-87l-58 162h-244l-61 -162h-80z" />
    <glyph glyph-name="Agrave.sc" horiz-adv-x="586" 
d="M327 643h-57l-142 158h105zM192 228h196l-61 168l-35 99h-3l-35 -97zM28 0l223 594h85l222 -594h-87l-58 162h-244l-61 -162h-80z" />
    <glyph glyph-name="Aacute.sc" horiz-adv-x="586" 
d="M317 643h-57l94 158h105zM192 228h196l-61 168l-35 99h-3l-35 -97zM28 0l223 594h85l222 -594h-87l-58 162h-244l-61 -162h-80z" />
    <glyph glyph-name="Acircumflex.sc" horiz-adv-x="586" 
d="M183 640h-52l129 161h63l129 -161h-52l-109 94zM192 228h196l-61 168l-35 99h-3l-35 -97zM28 0l223 594h85l222 -594h-87l-58 162h-244l-61 -162h-80z" />
    <glyph glyph-name="Atilde.sc" horiz-adv-x="586" 
d="M366 638c-59 0 -105 56 -146 56c-29 0 -41 -15 -41 -54h-53c0 83 33 119 92 119s105 -56 147 -56c28 0 41 15 41 54h51c0 -82 -33 -119 -91 -119zM192 228h196l-61 168l-35 99h-3l-35 -97zM28 0l223 594h85l222 -594h-87l-58 162h-244l-61 -162h-80z" />
    <glyph glyph-name="Adieresis.sc" horiz-adv-x="586" 
d="M244 641h-88v94h88v-94zM427 641h-89v94h89v-94zM192 228h196l-61 168l-35 99h-3l-35 -97zM28 0l223 594h85l222 -594h-87l-58 162h-244l-61 -162h-80z" />
    <glyph glyph-name="Aring.sc" horiz-adv-x="586" 
d="M292 596c30 0 52 23 52 55c0 31 -22 54 -52 54s-52 -23 -52 -54c0 -32 22 -55 52 -55zM192 228h196l-61 168l-35 99h-3l-35 -97zM169 162l-61 -162h-80l214 569c-28 17 -45 47 -45 82c0 53 40 93 95 93s95 -40 95 -93c0 -34 -16 -64 -42 -80l213 -571h-87l-58 162h-244z
" />
    <glyph glyph-name="Amacron.sc" horiz-adv-x="586" 
d="M427 641h-270v69h270v-69zM192 228h196l-61 168l-35 99h-3l-35 -97zM28 0l223 594h85l222 -594h-87l-58 162h-244l-61 -162h-80z" />
    <glyph glyph-name="Abreve.sc" horiz-adv-x="586" 
d="M292 637c-93 0 -150 67 -155 168h52c9 -77 48 -104 103 -104s94 27 103 104h52c-5 -101 -62 -168 -155 -168zM192 228h196l-61 168l-35 99h-3l-35 -97zM28 0l223 594h85l222 -594h-87l-58 162h-244l-61 -162h-80z" />
    <glyph glyph-name="Aogonek.sc" horiz-adv-x="586" 
d="M192 228h196l-61 168l-35 99h-3l-35 -97zM614 -149c-41 -23 -85 -38 -132 -38c-61 0 -97 29 -97 77c0 41 40 85 85 113l-57 159h-244l-61 -162h-80l223 594h85l222 -594h-39c-43 -31 -67 -64 -67 -97c0 -27 14 -46 51 -46c34 0 62 10 93 24z" />
    <glyph glyph-name="B.sc" horiz-adv-x="590" 
d="M78 0v592h230c132 0 215 -35 215 -148c0 -80 -53 -124 -111 -136v-2c78 -13 130 -56 130 -144c0 -110 -83 -162 -217 -162h-247zM160 527v-191h139c91 0 141 27 141 96c0 70 -42 95 -137 95h-143zM160 271v-206h158c97 0 141 32 141 102c0 76 -59 104 -155 104h-144z" />
    <glyph glyph-name="C.sc" horiz-adv-x="603" 
d="M316 -11c-159 0 -269 115 -269 309c0 188 113 305 269 305c136 0 207 -74 236 -182l-79 -21c-25 85 -68 134 -158 134c-113 0 -183 -93 -183 -234c0 -152 71 -242 185 -242c87 0 140 49 165 142l79 -18c-31 -117 -110 -193 -245 -193z" />
    <glyph glyph-name="Ccedilla.sc" horiz-adv-x="603" 
d="M303 -196c-48 0 -93 13 -128 36l20 33c30 -20 66 -30 100 -30c48 0 69 17 69 45c0 22 -14 34 -40 34c-21 0 -36 -9 -50 -20l-31 15l24 76c-132 21 -220 132 -220 305c0 188 113 305 269 305c136 0 207 -74 236 -182l-79 -21c-25 85 -68 134 -158 134
c-113 0 -183 -93 -183 -234c0 -152 71 -242 185 -242c87 0 140 49 165 142l79 -18c-31 -117 -110 -193 -245 -193h-3l-12 -41c14 9 32 15 56 15c37 0 71 -24 71 -68c0 -63 -56 -91 -125 -91z" />
    <glyph glyph-name="Cacute.sc" horiz-adv-x="603" 
d="M302 643h-57l94 158h105zM316 -11c-159 0 -269 115 -269 309c0 188 113 305 269 305c136 0 207 -74 236 -182l-79 -21c-25 85 -68 134 -158 134c-113 0 -183 -93 -183 -234c0 -152 71 -242 185 -242c87 0 140 49 165 142l79 -18c-31 -117 -110 -193 -245 -193z" />
    <glyph glyph-name="Ccircumflex.sc" horiz-adv-x="603" 
d="M204 640h-52l129 161h63l129 -161h-52l-109 94zM316 -11c-159 0 -269 115 -269 309c0 188 113 305 269 305c136 0 207 -74 236 -182l-79 -21c-25 85 -68 134 -158 134c-113 0 -183 -93 -183 -234c0 -152 71 -242 185 -242c87 0 140 49 165 142l79 -18
c-31 -117 -110 -193 -245 -193z" />
    <glyph glyph-name="Cdotaccent.sc" horiz-adv-x="603" 
d="M362 647h-100v90h100v-90zM316 -11c-159 0 -269 115 -269 309c0 188 113 305 269 305c136 0 207 -74 236 -182l-79 -21c-25 85 -68 134 -158 134c-113 0 -183 -93 -183 -234c0 -152 71 -242 185 -242c87 0 140 49 165 142l79 -18c-31 -117 -110 -193 -245 -193z" />
    <glyph glyph-name="Ccaron.sc" horiz-adv-x="603" 
d="M332 644h-63l-129 161h53l108 -94l108 94h52zM316 -11c-159 0 -269 115 -269 309c0 188 113 305 269 305c136 0 207 -74 236 -182l-79 -21c-25 85 -68 134 -158 134c-113 0 -183 -93 -183 -234c0 -152 71 -242 185 -242c87 0 140 49 165 142l79 -18
c-31 -117 -110 -193 -245 -193z" />
    <glyph glyph-name="D.sc" horiz-adv-x="614" 
d="M78 0v592h171c199 0 318 -85 318 -294c0 -211 -122 -298 -318 -298h-171zM162 523v-454h95c150 0 225 64 225 228c0 160 -76 226 -226 226h-94z" />
    <glyph glyph-name="Dcaron.sc" horiz-adv-x="614" 
d="M338 644h-63l-129 161h53l108 -94l108 94h52zM78 0v592h171c199 0 318 -85 318 -294c0 -211 -122 -298 -318 -298h-171zM162 523v-454h95c150 0 225 64 225 228c0 160 -76 226 -226 226h-94z" />
    <glyph glyph-name="E.sc" horiz-adv-x="525" 
d="M487 0h-409v592h392v-70h-308v-177h228v-69h-228v-206h325v-70z" />
    <glyph glyph-name="Egrave.sc" horiz-adv-x="525" 
d="M330 643h-57l-142 158h105zM487 0h-409v592h392v-70h-308v-177h228v-69h-228v-206h325v-70z" />
    <glyph glyph-name="Eacute.sc" horiz-adv-x="525" 
d="M269 643h-57l94 158h105zM487 0h-409v592h392v-70h-308v-177h228v-69h-228v-206h325v-70z" />
    <glyph glyph-name="Ecircumflex.sc" horiz-adv-x="525" 
d="M163 640h-52l129 161h63l129 -161h-52l-109 94zM487 0h-409v592h392v-70h-308v-177h228v-69h-228v-206h325v-70z" />
    <glyph glyph-name="Edieresis.sc" horiz-adv-x="525" 
d="M224 641h-88v94h88v-94zM407 641h-89v94h89v-94zM487 0h-409v592h392v-70h-308v-177h228v-69h-228v-206h325v-70z" />
    <glyph glyph-name="Emacron.sc" horiz-adv-x="525" 
d="M399 641h-270v69h270v-69zM487 0h-409v592h392v-70h-308v-177h228v-69h-228v-206h325v-70z" />
    <glyph glyph-name="Ebreve.sc" horiz-adv-x="525" 
d="M269 637c-93 0 -150 67 -155 168h52c9 -77 48 -104 103 -104s94 27 103 104h52c-5 -101 -62 -168 -155 -168zM487 0h-409v592h392v-70h-308v-177h228v-69h-228v-206h325v-70z" />
    <glyph glyph-name="Edotaccent.sc" horiz-adv-x="525" 
d="M322 647h-100v90h100v-90zM487 0h-409v592h392v-70h-308v-177h228v-69h-228v-206h325v-70z" />
    <glyph glyph-name="Eogonek.sc" horiz-adv-x="525" 
d="M527 -149c-41 -23 -85 -38 -132 -38c-61 0 -97 29 -97 77c0 38 35 79 80 110h-300v592h392v-70h-308v-177h228v-69h-228v-206h325v-70h-55c-43 -31 -67 -64 -67 -97c0 -27 14 -46 51 -46c34 0 62 10 93 24z" />
    <glyph glyph-name="Ecaron.sc" horiz-adv-x="525" 
d="M303 644h-63l-129 161h53l108 -94l108 94h52zM487 0h-409v592h392v-70h-308v-177h228v-69h-228v-206h325v-70z" />
    <glyph glyph-name="F.sc" horiz-adv-x="490" 
d="M162 0h-84v592h383v-70h-299v-186h220v-68h-220v-268z" />
    <glyph glyph-name="G.sc" horiz-adv-x="628" 
d="M307 -11c-168 0 -260 133 -260 309c0 186 111 305 271 305c118 0 201 -56 235 -184l-76 -19c-29 92 -78 134 -159 134c-103 0 -186 -75 -186 -233c0 -157 73 -244 187 -244c97 0 162 63 164 165h-141v66h218v-288h-69v88h-1c-28 -51 -84 -99 -183 -99z" />
    <glyph glyph-name="Gcircumflex.sc" horiz-adv-x="628" 
d="M209 640h-52l129 161h63l129 -161h-52l-109 94zM307 -11c-168 0 -260 133 -260 309c0 186 111 305 271 305c118 0 201 -56 235 -184l-76 -19c-29 92 -78 134 -159 134c-103 0 -186 -75 -186 -233c0 -157 73 -244 187 -244c97 0 162 63 164 165h-141v66h218v-288h-69v88
h-1c-28 -51 -84 -99 -183 -99z" />
    <glyph glyph-name="Gbreve.sc" horiz-adv-x="628" 
d="M313 637c-93 0 -150 67 -155 168h52c9 -77 48 -104 103 -104s94 27 103 104h52c-5 -101 -62 -168 -155 -168zM307 -11c-168 0 -260 133 -260 309c0 186 111 305 271 305c118 0 201 -56 235 -184l-76 -19c-29 92 -78 134 -159 134c-103 0 -186 -75 -186 -233
c0 -157 73 -244 187 -244c97 0 162 63 164 165h-141v66h218v-288h-69v88h-1c-28 -51 -84 -99 -183 -99z" />
    <glyph glyph-name="Gdotaccent.sc" horiz-adv-x="628" 
d="M368 647h-100v90h100v-90zM307 -11c-168 0 -260 133 -260 309c0 186 111 305 271 305c118 0 201 -56 235 -184l-76 -19c-29 92 -78 134 -159 134c-103 0 -186 -75 -186 -233c0 -157 73 -244 187 -244c97 0 162 63 164 165h-141v66h218v-288h-69v88h-1
c-28 -51 -84 -99 -183 -99z" />
    <glyph glyph-name="Gcommaaccent.sc" horiz-adv-x="628" 
d="M307 -11c-168 0 -260 133 -260 309c0 186 111 305 271 305c118 0 201 -56 235 -184l-76 -19c-29 92 -78 134 -159 134c-103 0 -186 -75 -186 -233c0 -157 73 -244 187 -244c97 0 162 63 164 165h-141v66h218v-288h-69v88h-1c-28 -51 -84 -99 -183 -99zM281 -248l26 102
h-37v98h95v-88l-47 -112h-37z" />
    <glyph glyph-name="H.sc" horiz-adv-x="636" 
d="M162 0h-84v592h84v-244h311v244h85v-592h-85v275h-311v-275z" />
    <glyph glyph-name="Hcircumflex.sc" horiz-adv-x="636" 
d="M208 640h-52l129 161h63l129 -161h-52l-109 94zM162 0h-84v592h84v-244h311v244h85v-592h-85v275h-311v-275z" />
    <glyph glyph-name="I.sc" horiz-adv-x="255" 
d="M171 0h-85v592h85v-592z" />
    <glyph glyph-name="Igrave.sc" horiz-adv-x="255" 
d="M163 643h-57l-142 158h105zM171 0h-85v592h85v-592z" />
    <glyph glyph-name="Iacute.sc" horiz-adv-x="255" 
d="M149 643h-57l94 158h105zM171 0h-85v592h85v-592z" />
    <glyph glyph-name="Icircumflex.sc" horiz-adv-x="255" 
d="M19 640h-52l129 161h63l129 -161h-52l-109 94zM171 0h-85v592h85v-592z" />
    <glyph glyph-name="Idieresis.sc" horiz-adv-x="255" 
d="M80 641h-88v94h88v-94zM263 641h-89v94h89v-94zM171 0h-85v592h85v-592z" />
    <glyph glyph-name="Itilde.sc" horiz-adv-x="255" 
d="M202 639c-59 0 -105 56 -146 56c-29 0 -41 -15 -41 -54h-53c0 83 33 119 92 119s105 -56 147 -56c28 0 41 15 41 54h51c0 -82 -33 -119 -91 -119zM171 0h-85v592h85v-592z" />
    <glyph glyph-name="Imacron.sc" horiz-adv-x="255" 
d="M263 641h-270v69h270v-69zM171 0h-85v592h85v-592z" />
    <glyph glyph-name="Ibreve.sc" horiz-adv-x="255" 
d="M128 637c-93 0 -150 67 -155 168h52c9 -77 48 -104 103 -104s94 27 103 104h52c-5 -101 -62 -168 -155 -168zM171 0h-85v592h85v-592z" />
    <glyph glyph-name="Iogonek.sc" horiz-adv-x="255" 
d="M235 -149c-40 -23 -84 -38 -132 -38c-61 0 -96 29 -96 77c0 41 37 85 79 113v589h85v-592h-35c-40 -31 -62 -64 -62 -97c0 -27 13 -46 50 -46c34 0 62 10 93 24z" />
    <glyph glyph-name="Idotaccent.sc" horiz-adv-x="255" 
d="M178 647h-100v90h100v-90zM171 0h-85v592h85v-592z" />
    <glyph glyph-name="J.sc" horiz-adv-x="436" 
d="M16 44l39 60c44 -33 90 -47 125 -47c60 0 101 28 101 108v427h85v-428c0 -110 -56 -175 -181 -175c-72 0 -125 23 -169 55z" />
    <glyph glyph-name="Jcircumflex.sc" horiz-adv-x="436" 
d="M214 640h-52l129 161h63l129 -161h-52l-109 94zM16 44l39 60c44 -33 90 -47 125 -47c60 0 101 28 101 108v427h85v-428c0 -110 -56 -175 -181 -175c-72 0 -125 23 -169 55z" />
    <glyph glyph-name="K.sc" horiz-adv-x="585" 
d="M162 0h-84v592h84v-297l135 145l141 152h96l-214 -226l242 -366h-95l-203 304l-102 -105v-199z" />
    <glyph glyph-name="Kcommaaccent.sc" horiz-adv-x="585" 
d="M162 0h-84v592h84v-297l135 145l141 152h96l-214 -226l242 -366h-95l-203 304l-102 -105v-199zM256 -248l26 102h-37v98h95v-88l-47 -112h-37z" />
    <glyph glyph-name="L.sc" horiz-adv-x="490" 
d="M461 0h-383v592h84v-522h299v-70z" />
    <glyph glyph-name="Lacute.sc" horiz-adv-x="490" 
d="M149 643h-57l94 158h105zM461 0h-383v592h84v-522h299v-70z" />
    <glyph glyph-name="Lcommaaccent.sc" horiz-adv-x="490" 
d="M461 0h-383v592h84v-522h299v-70zM208 -248l26 102h-37v98h95v-88l-47 -112h-37z" />
    <glyph glyph-name="Lcaron.sc" horiz-adv-x="490" 
d="M461 0h-383v592h84v-522h299v-70zM277 396l26 100h-37v96h93v-86l-46 -110h-36z" />
    <glyph glyph-name="M.sc" horiz-adv-x="751" 
d="M153 0h-75v592h110l187 -492h2l184 492h113v-592h-82v482h-1c-8 -30 -22 -72 -36 -110c-3 -17 -138 -340 -145 -372h-75c-6 32 -141 358 -144 373c-15 44 -25 74 -37 111h-1v-484z" />
    <glyph glyph-name="N.sc" horiz-adv-x="640" 
d="M156 0h-78v592h89l237 -336l83 -117h1v453h79v-592h-78l-257 360l-75 105h-1v-465z" />
    <glyph glyph-name="Ntilde.sc" horiz-adv-x="640" 
d="M393 638c-59 0 -105 56 -146 56c-29 0 -41 -15 -41 -54h-53c0 83 33 119 92 119s105 -56 147 -56c28 0 41 15 41 54h51c0 -82 -33 -119 -91 -119zM156 0h-78v592h89l237 -336l83 -117h1v453h79v-592h-78l-257 360l-75 105h-1v-465z" />
    <glyph glyph-name="Nacute.sc" horiz-adv-x="640" 
d="M318 643h-57l94 158h105zM156 0h-78v592h89l237 -336l83 -117h1v453h79v-592h-78l-257 360l-75 105h-1v-465z" />
    <glyph glyph-name="Ncommaaccent.sc" horiz-adv-x="640" 
d="M156 0h-78v592h89l237 -336l83 -117h1v453h79v-592h-78l-257 360l-75 105h-1v-465zM283 -248l26 102h-37v98h95v-88l-47 -112h-37z" />
    <glyph glyph-name="Ncaron.sc" horiz-adv-x="640" 
d="M350 644h-63l-129 161h53l108 -94l108 94h52zM156 0h-78v592h89l237 -336l83 -117h1v453h79v-592h-78l-257 360l-75 105h-1v-465z" />
    <glyph glyph-name="O.sc" horiz-adv-x="644" 
d="M323 -11c-152 0 -275 114 -275 307c0 194 123 307 275 307c149 0 273 -113 273 -307c0 -193 -124 -307 -273 -307zM323 59c111 0 189 89 189 237c0 149 -78 236 -189 236c-112 0 -191 -87 -191 -236c0 -148 79 -237 191 -237z" />
    <glyph glyph-name="Ograve.sc" horiz-adv-x="644" 
d="M379 643h-57l-142 158h105zM323 -11c-152 0 -275 114 -275 307c0 194 123 307 275 307c149 0 273 -113 273 -307c0 -193 -124 -307 -273 -307zM323 59c111 0 189 89 189 237c0 149 -78 236 -189 236c-112 0 -191 -87 -191 -236c0 -148 79 -237 191 -237z" />
    <glyph glyph-name="Oacute.sc" horiz-adv-x="644" 
d="M321 643h-57l94 158h105zM323 -11c-152 0 -275 114 -275 307c0 194 123 307 275 307c149 0 273 -113 273 -307c0 -193 -124 -307 -273 -307zM323 59c111 0 189 89 189 237c0 149 -78 236 -189 236c-112 0 -191 -87 -191 -236c0 -148 79 -237 191 -237z" />
    <glyph glyph-name="Ocircumflex.sc" horiz-adv-x="644" 
d="M212 640h-52l129 161h63l129 -161h-52l-109 94zM323 -11c-152 0 -275 114 -275 307c0 194 123 307 275 307c149 0 273 -113 273 -307c0 -193 -124 -307 -273 -307zM323 59c111 0 189 89 189 237c0 149 -78 236 -189 236c-112 0 -191 -87 -191 -236
c0 -148 79 -237 191 -237z" />
    <glyph glyph-name="Otilde.sc" horiz-adv-x="644" 
d="M395 638c-59 0 -105 56 -146 56c-29 0 -41 -15 -41 -54h-53c0 83 33 119 92 119s105 -56 147 -56c28 0 41 15 41 54h51c0 -82 -33 -119 -91 -119zM323 -11c-152 0 -275 114 -275 307c0 194 123 307 275 307c149 0 273 -113 273 -307c0 -193 -124 -307 -273 -307zM323 59
c111 0 189 89 189 237c0 149 -78 236 -189 236c-112 0 -191 -87 -191 -236c0 -148 79 -237 191 -237z" />
    <glyph glyph-name="Odieresis.sc" horiz-adv-x="644" 
d="M273 641h-88v94h88v-94zM456 641h-89v94h89v-94zM323 -11c-152 0 -275 114 -275 307c0 194 123 307 275 307c149 0 273 -113 273 -307c0 -193 -124 -307 -273 -307zM323 59c111 0 189 89 189 237c0 149 -78 236 -189 236c-112 0 -191 -87 -191 -236
c0 -148 79 -237 191 -237z" />
    <glyph glyph-name="Omacron.sc" horiz-adv-x="644" 
d="M456 641h-270v69h270v-69zM323 -11c-152 0 -275 114 -275 307c0 194 123 307 275 307c149 0 273 -113 273 -307c0 -193 -124 -307 -273 -307zM323 59c111 0 189 89 189 237c0 149 -78 236 -189 236c-112 0 -191 -87 -191 -236c0 -148 79 -237 191 -237z" />
    <glyph glyph-name="Obreve.sc" horiz-adv-x="644" 
d="M321 638c-93 0 -150 67 -155 168h52c9 -77 48 -104 103 -104s94 27 103 104h52c-5 -101 -62 -168 -155 -168zM323 -11c-152 0 -275 114 -275 307c0 194 123 307 275 307c149 0 273 -113 273 -307c0 -193 -124 -307 -273 -307zM323 59c111 0 189 89 189 237
c0 149 -78 236 -189 236c-112 0 -191 -87 -191 -236c0 -148 79 -237 191 -237z" />
    <glyph glyph-name="Ohungarumlaut.sc" horiz-adv-x="644" 
d="M241 643h-58l97 158h106zM408 643h-59l100 158h106zM323 -11c-152 0 -275 114 -275 307c0 194 123 307 275 307c149 0 273 -113 273 -307c0 -193 -124 -307 -273 -307zM323 59c111 0 189 89 189 237c0 149 -78 236 -189 236c-112 0 -191 -87 -191 -236
c0 -148 79 -237 191 -237z" />
    <glyph glyph-name="P.sc" horiz-adv-x="558" 
d="M161 0h-83v592h215c136 0 230 -40 230 -170c0 -139 -104 -176 -233 -176h-129v-246zM161 524v-214h133c97 0 147 28 147 109c0 78 -49 105 -148 105h-132z" />
    <glyph glyph-name="Q.sc" horiz-adv-x="644" 
d="M540 -88v-66h-66c-137 0 -197 64 -198 149c-131 19 -228 130 -228 301c0 194 123 307 275 307c149 0 273 -113 273 -307c0 -175 -102 -287 -236 -303c5 -64 51 -81 136 -81h44zM323 57c110 0 188 90 188 239c0 150 -78 238 -188 238c-112 0 -191 -88 -191 -238
c0 -149 79 -239 191 -239z" />
    <glyph glyph-name="R.sc" horiz-adv-x="582" 
d="M161 524v-208h132c95 0 147 25 147 106c0 77 -52 102 -147 102h-132zM161 0h-83v592h219c144 0 226 -51 226 -167c0 -98 -54 -146 -142 -162l151 -263h-91l-146 254h-134v-254z" />
    <glyph glyph-name="Racute.sc" horiz-adv-x="582" 
d="M290 643h-57l94 158h105zM161 524v-208h132c95 0 147 25 147 106c0 77 -52 102 -147 102h-132zM161 0h-83v592h219c144 0 226 -51 226 -167c0 -98 -54 -146 -142 -162l151 -263h-91l-146 254h-134v-254z" />
    <glyph glyph-name="Rcommaaccent.sc" horiz-adv-x="582" 
d="M161 524v-208h132c95 0 147 25 147 106c0 77 -52 102 -147 102h-132zM161 0h-83v592h219c144 0 226 -51 226 -167c0 -98 -54 -146 -142 -162l151 -263h-91l-146 254h-134v-254zM255 -248l26 102h-37v98h95v-88l-47 -112h-37z" />
    <glyph glyph-name="Rcaron.sc" horiz-adv-x="582" 
d="M322 644h-63l-129 161h53l108 -94l108 94h52zM161 524v-208h132c95 0 147 25 147 106c0 77 -52 102 -147 102h-132zM161 0h-83v592h219c144 0 226 -51 226 -167c0 -98 -54 -146 -142 -162l151 -263h-91l-146 254h-134v-254z" />
    <glyph glyph-name="S.sc" horiz-adv-x="567" 
d="M290 -12c-114 0 -203 54 -242 151l68 35c27 -78 95 -118 176 -118c88 0 140 34 140 95c0 76 -60 91 -147 115c-110 28 -216 52 -216 181c0 98 84 156 204 156c121 0 192 -55 225 -129l-63 -38c-30 68 -89 99 -161 99c-77 0 -123 -30 -123 -86c0 -78 72 -91 163 -115
c97 -25 202 -50 202 -178c0 -112 -98 -168 -226 -168z" />
    <glyph glyph-name="Sacute.sc" horiz-adv-x="567" 
d="M282 643h-57l94 158h105zM290 -12c-114 0 -203 54 -242 151l68 35c27 -78 95 -118 176 -118c88 0 140 34 140 95c0 76 -60 91 -147 115c-110 28 -216 52 -216 181c0 98 84 156 204 156c121 0 192 -55 225 -129l-63 -38c-30 68 -89 99 -161 99c-77 0 -123 -30 -123 -86
c0 -78 72 -91 163 -115c97 -25 202 -50 202 -178c0 -112 -98 -168 -226 -168z" />
    <glyph glyph-name="Scircumflex.sc" horiz-adv-x="567" 
d="M166 640h-52l129 161h63l129 -161h-52l-109 94zM290 -12c-114 0 -203 54 -242 151l68 35c27 -78 95 -118 176 -118c88 0 140 34 140 95c0 76 -60 91 -147 115c-110 28 -216 52 -216 181c0 98 84 156 204 156c121 0 192 -55 225 -129l-63 -38c-30 68 -89 99 -161 99
c-77 0 -123 -30 -123 -86c0 -78 72 -91 163 -115c97 -25 202 -50 202 -178c0 -112 -98 -168 -226 -168z" />
    <glyph glyph-name="Scedilla.sc" horiz-adv-x="567" 
d="M285 -196c-48 0 -93 13 -128 36l20 33c30 -20 66 -30 100 -30c48 0 69 17 69 45c0 22 -14 34 -40 34c-21 0 -36 -9 -50 -20l-31 15l23 74c-94 11 -166 63 -200 148l68 35c27 -78 95 -118 176 -118c88 0 140 34 140 95c0 76 -60 91 -147 115c-110 28 -216 52 -216 181
c0 98 84 156 204 156c121 0 192 -55 225 -129l-63 -38c-30 68 -89 99 -161 99c-77 0 -123 -30 -123 -86c0 -78 72 -91 163 -115c97 -25 202 -50 202 -178c0 -112 -98 -168 -221 -168l-12 -40c14 9 32 15 56 15c37 0 71 -24 71 -68c0 -63 -56 -91 -125 -91z" />
    <glyph glyph-name="Scaron.sc" horiz-adv-x="567" 
d="M314 644h-63l-129 161h53l108 -94l108 94h52zM290 -12c-114 0 -203 54 -242 151l68 35c27 -78 95 -118 176 -118c88 0 140 34 140 95c0 76 -60 91 -147 115c-110 28 -216 52 -216 181c0 98 84 156 204 156c121 0 192 -55 225 -129l-63 -38c-30 68 -89 99 -161 99
c-77 0 -123 -30 -123 -86c0 -78 72 -91 163 -115c97 -25 202 -50 202 -178c0 -112 -98 -168 -226 -168z" />
    <glyph glyph-name="Scommaaccent.sc" horiz-adv-x="567" 
d="M290 -12c-114 0 -203 54 -242 151l68 35c27 -78 95 -118 176 -118c88 0 140 34 140 95c0 76 -60 91 -147 115c-110 28 -216 52 -216 181c0 98 84 156 204 156c121 0 192 -55 225 -129l-63 -38c-30 68 -89 99 -161 99c-77 0 -123 -30 -123 -86c0 -78 72 -91 163 -115
c97 -25 202 -50 202 -178c0 -112 -98 -168 -226 -168zM247 -248l26 102h-37v98h95v-88l-47 -112h-37z" />
    <glyph glyph-name="T.sc" horiz-adv-x="536" 
d="M311 0h-85v522h-197v70h479v-70h-197v-522z" />
    <glyph glyph-name="Tcommaaccent.sc" horiz-adv-x="536" 
d="M311 0h-85v522h-197v70h479v-70h-197v-522zM231 -248l26 102h-37v98h95v-88l-47 -112h-37z" />
    <glyph glyph-name="Tcaron.sc" horiz-adv-x="536" 
d="M298 644h-63l-129 161h53l108 -94l108 94h52zM311 0h-85v522h-197v70h479v-70h-197v-522z" />
    <glyph glyph-name="U.sc" horiz-adv-x="613" 
d="M307 -11c-158 0 -236 94 -236 221v382h85v-377c0 -92 44 -156 152 -156c106 0 151 62 151 156v377h84v-381c0 -127 -76 -222 -236 -222z" />
    <glyph glyph-name="Ugrave.sc" horiz-adv-x="613" 
d="M363 643h-57l-142 158h105zM307 -11c-158 0 -236 94 -236 221v382h85v-377c0 -92 44 -156 152 -156c106 0 151 62 151 156v377h84v-381c0 -127 -76 -222 -236 -222z" />
    <glyph glyph-name="Uacute.sc" horiz-adv-x="613" 
d="M283 643h-57l94 158h105zM307 -11c-158 0 -236 94 -236 221v382h85v-377c0 -92 44 -156 152 -156c106 0 151 62 151 156v377h84v-381c0 -127 -76 -222 -236 -222z" />
    <glyph glyph-name="Ucircumflex.sc" horiz-adv-x="613" 
d="M197 640h-52l129 161h63l129 -161h-52l-109 94zM307 -11c-158 0 -236 94 -236 221v382h85v-377c0 -92 44 -156 152 -156c106 0 151 62 151 156v377h84v-381c0 -127 -76 -222 -236 -222z" />
    <glyph glyph-name="Udieresis.sc" horiz-adv-x="613" 
d="M258 641h-88v94h88v-94zM441 641h-89v94h89v-94zM307 -11c-158 0 -236 94 -236 221v382h85v-377c0 -92 44 -156 152 -156c106 0 151 62 151 156v377h84v-381c0 -127 -76 -222 -236 -222z" />
    <glyph glyph-name="Utilde.sc" horiz-adv-x="613" 
d="M380 638c-59 0 -105 56 -146 56c-29 0 -41 -15 -41 -54h-53c0 83 33 119 92 119s105 -56 147 -56c28 0 41 15 41 54h51c0 -82 -33 -119 -91 -119zM307 -11c-158 0 -236 94 -236 221v382h85v-377c0 -92 44 -156 152 -156c106 0 151 62 151 156v377h84v-381
c0 -127 -76 -222 -236 -222z" />
    <glyph glyph-name="Umacron.sc" horiz-adv-x="613" 
d="M441 641h-270v69h270v-69zM307 -11c-158 0 -236 94 -236 221v382h85v-377c0 -92 44 -156 152 -156c106 0 151 62 151 156v377h84v-381c0 -127 -76 -222 -236 -222z" />
    <glyph glyph-name="Ubreve.sc" horiz-adv-x="613" 
d="M306 637c-93 0 -150 67 -155 168h52c9 -77 48 -104 103 -104s94 27 103 104h52c-5 -101 -62 -168 -155 -168zM307 -11c-158 0 -236 94 -236 221v382h85v-377c0 -92 44 -156 152 -156c106 0 151 62 151 156v377h84v-381c0 -127 -76 -222 -236 -222z" />
    <glyph glyph-name="Uring.sc" horiz-adv-x="613" 
d="M306 635c-55 0 -95 41 -95 95c0 53 40 93 95 93s95 -40 95 -93c0 -54 -40 -95 -95 -95zM306 675c30 0 52 23 52 55c0 31 -22 54 -52 54s-52 -23 -52 -54c0 -32 22 -55 52 -55zM307 -11c-158 0 -236 94 -236 221v382h85v-377c0 -92 44 -156 152 -156c106 0 151 62 151 156
v377h84v-381c0 -127 -76 -222 -236 -222z" />
    <glyph glyph-name="Uhungarumlaut.sc" horiz-adv-x="613" 
d="M225 643h-58l97 158h106zM392 643h-59l100 158h106zM307 -11c-158 0 -236 94 -236 221v382h85v-377c0 -92 44 -156 152 -156c106 0 151 62 151 156v377h84v-381c0 -127 -76 -222 -236 -222z" />
    <glyph glyph-name="Uogonek.sc" horiz-adv-x="613" 
d="M311 -187c-61 0 -97 29 -97 77c0 34 28 71 66 100c-140 10 -209 100 -209 220v382h85v-377c0 -92 44 -156 152 -156c106 0 151 62 151 156v377h84v-381c0 -119 -67 -211 -208 -221c-35 -28 -54 -58 -54 -87c0 -27 14 -46 51 -46c34 0 62 10 93 24l18 -30
c-41 -23 -85 -38 -132 -38z" />
    <glyph glyph-name="V.sc" horiz-adv-x="574" 
d="M327 -2h-80l-219 594h87l138 -386l35 -100h2l35 99l140 387h81z" />
    <glyph glyph-name="W.sc" horiz-adv-x="796" 
d="M275 0h-75l-169 592h86l88 -329c14 -50 26 -98 36 -142h2c8 43 21 92 33 141l84 330h83l86 -332c13 -51 25 -91 33 -139h2c11 49 21 86 34 137l88 334h79l-165 -592h-76l-122 479h-2z" />
    <glyph glyph-name="Wcircumflex.sc" horiz-adv-x="796" 
d="M289 640h-52l129 161h63l129 -161h-52l-109 94zM275 0h-75l-169 592h86l88 -329c14 -50 26 -98 36 -142h2c8 43 21 92 33 141l84 330h83l86 -332c13 -51 25 -91 33 -139h2c11 49 21 86 34 137l88 334h79l-165 -592h-76l-122 479h-2z" />
    <glyph glyph-name="Wgrave.sc" horiz-adv-x="796" 
d="M427 643h-57l-142 158h105zM275 0h-75l-169 592h86l88 -329c14 -50 26 -98 36 -142h2c8 43 21 92 33 141l84 330h83l86 -332c13 -51 25 -91 33 -139h2c11 49 21 86 34 137l88 334h79l-165 -592h-76l-122 479h-2z" />
    <glyph glyph-name="Wacute.sc" horiz-adv-x="796" 
d="M428 643h-57l94 158h105zM275 0h-75l-169 592h86l88 -329c14 -50 26 -98 36 -142h2c8 43 21 92 33 141l84 330h83l86 -332c13 -51 25 -91 33 -139h2c11 49 21 86 34 137l88 334h79l-165 -592h-76l-122 479h-2z" />
    <glyph glyph-name="Wdieresis.sc" horiz-adv-x="796" 
d="M349 641h-88v94h88v-94zM532 641h-89v94h89v-94zM275 0h-75l-169 592h86l88 -329c14 -50 26 -98 36 -142h2c8 43 21 92 33 141l84 330h83l86 -332c13 -51 25 -91 33 -139h2c11 49 21 86 34 137l88 334h79l-165 -592h-76l-122 479h-2z" />
    <glyph glyph-name="X.sc" horiz-adv-x="570" 
d="M114 0h-90l212 317l-187 275h95l147 -217l143 217h88l-186 -280l211 -312h-94l-170 253z" />
    <glyph glyph-name="Y.sc" horiz-adv-x="549" 
d="M231 0v258l-212 334h91l167 -266l165 266h87l-212 -334v-258h-86z" />
    <glyph glyph-name="Yacute.sc" horiz-adv-x="549" 
d="M273 643h-57l94 158h105zM231 0v258l-212 334h91l167 -266l165 266h87l-212 -334v-258h-86z" />
    <glyph glyph-name="Ycircumflex.sc" horiz-adv-x="549" 
d="M165 640h-52l129 161h63l129 -161h-52l-109 94zM231 0v258l-212 334h91l167 -266l165 266h87l-212 -334v-258h-86z" />
    <glyph glyph-name="Ydieresis.sc" horiz-adv-x="549" 
d="M226 641h-88v94h88v-94zM409 641h-89v94h89v-94zM231 0v258l-212 334h91l167 -266l165 266h87l-212 -334v-258h-86z" />
    <glyph glyph-name="Ygrave.sc" horiz-adv-x="549" 
d="M338 643h-57l-142 158h105zM231 0v258l-212 334h91l167 -266l165 266h87l-212 -334v-258h-86z" />
    <glyph glyph-name="Z.sc" horiz-adv-x="544" 
d="M501 0h-466v59l361 464h-337v69h442v-60l-358 -464h358v-68z" />
    <glyph glyph-name="Zacute.sc" horiz-adv-x="544" 
d="M271 643h-57l94 158h105zM501 0h-466v59l361 464h-337v69h442v-60l-358 -464h358v-68z" />
    <glyph glyph-name="Zdotaccent.sc" horiz-adv-x="544" 
d="M321 647h-100v90h100v-90zM501 0h-466v59l361 464h-337v69h442v-60l-358 -464h358v-68z" />
    <glyph glyph-name="Zcaron.sc" horiz-adv-x="544" 
d="M302 644h-63l-129 161h53l108 -94l108 94h52zM501 0h-466v59l361 464h-337v69h442v-60l-358 -464h358v-68z" />
    <glyph glyph-name="AE.sc" horiz-adv-x="876" 
d="M429 531l-172 -285h173v285h-1zM217 180l-109 -180h-88l363 592h437v-70h-307v-178h228v-67h-228v-207h324v-70h-407v180h-213z" />
    <glyph glyph-name="Eth.sc" horiz-adv-x="614" 
d="M78 0v280h-67v58h67v254h171c199 0 318 -85 318 -294c0 -211 -122 -298 -318 -298h-171zM162 279v-210h95c150 0 225 64 225 228c0 160 -76 226 -226 226h-94v-185h127v-59h-127z" />
    <glyph glyph-name="Oslash.sc" horiz-adv-x="644" 
d="M174 135l260 362c-30 25 -68 39 -111 39c-113 0 -193 -90 -193 -240c0 -66 16 -121 44 -161zM323 56c112 0 191 91 191 240c0 67 -16 122 -44 162l-261 -363c31 -25 70 -39 114 -39zM118 -33l-44 34l51 71c-48 53 -77 129 -77 224c0 194 123 307 275 307
c56 0 109 -17 152 -48l52 71l44 -33l-53 -73c49 -52 78 -129 78 -224c0 -193 -124 -307 -273 -307c-58 0 -112 17 -155 48z" />
    <glyph glyph-name="Thorn.sc" horiz-adv-x="569" 
d="M163 0h-84v592h84v-106h135c136 0 232 -46 232 -170c0 -133 -106 -175 -237 -175h-130v-141zM163 420v-216h134c99 0 150 34 150 109c0 72 -50 107 -151 107h-133z" />
    <glyph glyph-name="Dcroat.sc" horiz-adv-x="614" 
d="M78 0v280h-67v58h67v254h171c199 0 318 -85 318 -294c0 -211 -122 -298 -318 -298h-171zM162 279v-210h95c150 0 225 64 225 228c0 160 -76 226 -226 226h-94v-185h127v-59h-127z" />
    <glyph glyph-name="Hbar.sc" horiz-adv-x="636" 
d="M162 348h311v77h-311v-77zM162 275v-275h-84v425h-67v62h67v105h84v-105h311v105h85v-105h67v-62h-67v-425h-85v275h-311z" />
    <glyph glyph-name="IJ.sc" horiz-adv-x="661" 
d="M171 0h-85v592h85v-592zM241 45l39 60c44 -33 90 -47 125 -47c60 0 101 28 101 108v427h85v-428c0 -110 -56 -175 -181 -175c-72 0 -125 23 -169 55z" />
    <glyph glyph-name="Ldot.sc" horiz-adv-x="515" 
d="M461 0h-383v592h84v-522h299v-70zM331 277v90h94v-90h-94z" />
    <glyph glyph-name="Lslash.sc" horiz-adv-x="490" 
d="M461 69v-69h-383v269l-67 -17v58l67 17v265h84v-243l127 33v-58l-127 -33v-222h299z" />
    <glyph glyph-name="Eng.sc" horiz-adv-x="640" 
d="M78 0v592h89l237 -336l83 -117h1v453h79v-618c0 -111 -55 -175 -176 -175c-71 0 -125 22 -169 54l39 59c44 -33 91 -47 125 -47c59 0 100 28 101 106v31l-255 358l-75 105h-1v-465h-78z" />
    <glyph glyph-name="OE.sc" horiz-adv-x="954" 
d="M322 59c111 0 189 89 189 237c0 149 -78 237 -189 237s-190 -88 -190 -237c0 -148 79 -237 190 -237zM320 -11c-151 0 -272 114 -272 307c0 194 124 307 272 307c89 0 159 -42 199 -115v104h379v-70h-307v-178h227v-67h-227v-207h324v-70h-396v104
c-40 -74 -110 -115 -199 -115z" />
    <glyph glyph-name="Tbar.sc" horiz-adv-x="536" 
d="M508 249h-197v-249h-85v249h-197v61h197v212h-197v70h479v-70h-197v-212h197v-61z" />
    <glyph glyph-name="ordfeminine.sc" horiz-adv-x="428" 
d="M198 482l-40 -110h107l-40 109l-12 37h-2zM107 231h-64l136 362h68l136 -362h-68l-33 92h-140z" />
    <glyph glyph-name="ordmasculine.sc" horiz-adv-x="436" 
d="M218 219c-92 0 -174 65 -174 192c0 129 82 193 174 193s175 -64 175 -193c0 -127 -83 -192 -175 -192zM218 271c70 0 109 60 109 141c0 74 -36 140 -109 140c-69 0 -108 -60 -108 -140c0 -75 34 -141 108 -141z" />
    <glyph glyph-name="germandbls.sc" horiz-adv-x="1134" 
d="M857 -12c-114 0 -203 54 -242 151l68 35c27 -78 95 -118 176 -118c88 0 140 34 140 95c0 76 -60 91 -147 115c-110 28 -216 52 -216 181c0 98 84 156 204 156c121 0 192 -55 225 -129l-63 -38c-30 68 -89 99 -161 99c-77 0 -123 -30 -123 -86c0 -78 72 -91 163 -115
c97 -25 202 -50 202 -178c0 -112 -98 -168 -226 -168zM290 -12c-114 0 -203 54 -242 151l68 35c27 -78 95 -118 176 -118c88 0 140 34 140 95c0 76 -60 91 -147 115c-110 28 -216 52 -216 181c0 98 84 156 204 156c121 0 192 -55 225 -129l-63 -38c-30 68 -89 99 -161 99
c-77 0 -123 -30 -123 -86c0 -78 72 -91 163 -115c97 -25 202 -50 202 -178c0 -112 -98 -168 -226 -168z" />
    <glyph glyph-name="zero.sc" horiz-adv-x="536" 
d="M268 -14c-146 0 -228 125 -228 310s82 308 228 308s229 -123 229 -308s-83 -310 -229 -310zM268 55c93 0 146 83 146 241c0 157 -56 240 -146 240c-93 0 -147 -83 -147 -240c0 -158 57 -241 147 -241z" />
    <glyph glyph-name="one.sc" horiz-adv-x="398" 
d="M371 0h-327v72h133v436c-34 -18 -91 -32 -131 -32v72c54 1 103 15 135 44h71v-520h119v-72z" />
    <glyph glyph-name="two.sc" horiz-adv-x="482" 
d="M435 0h-400v16c0 88 40 167 198 268c86 54 119 93 119 150c0 61 -35 100 -106 100c-58 0 -105 -29 -139 -99l-62 36c43 86 115 134 205 134c113 0 182 -69 182 -166c0 -85 -45 -134 -149 -202c-93 -60 -149 -116 -154 -166h306v-71z" />
    <glyph glyph-name="three.sc" horiz-adv-x="492" 
d="M236 -14c-91 0 -165 41 -213 113l56 44c42 -63 95 -87 156 -87c82 0 129 41 129 106c0 80 -44 118 -172 118h-26v66h29c121 0 157 35 157 98c0 52 -32 91 -114 91c-54 0 -100 -26 -137 -69l-52 47c46 53 114 92 195 92c128 0 189 -70 189 -152c0 -71 -43 -125 -117 -139
c86 -12 132 -71 132 -153c0 -101 -85 -175 -212 -175z" />
    <glyph glyph-name="four.sc" horiz-adv-x="504" 
d="M389 0h-80v135h-285v59l270 398h95v-389h99v-68h-99v-135zM308 493l-193 -290h194v290h-1z" />
    <glyph glyph-name="five.sc" horiz-adv-x="477" 
d="M233 -14c-90 0 -165 44 -209 106l53 52c36 -50 87 -86 155 -86c92 0 135 64 135 137c0 86 -50 132 -124 132c-56 0 -98 -26 -129 -71l-57 19l23 317h333l-6 -72h-262l-13 -177c26 30 69 49 125 49c113 0 191 -75 191 -195c0 -123 -84 -211 -215 -211z" />
    <glyph glyph-name="six.sc" horiz-adv-x="503" 
d="M263 -14c-123 0 -221 98 -221 300c0 191 106 318 241 318c76 0 119 -21 154 -47l-39 -60c-31 25 -64 40 -114 40c-98 0 -159 -97 -162 -232c33 37 92 72 159 72c124 0 191 -77 191 -189c0 -116 -79 -202 -209 -202zM266 52c77 0 127 50 127 134c0 71 -34 125 -123 125
c-58 0 -111 -29 -147 -76c11 -124 71 -183 143 -183z" />
    <glyph glyph-name="seven.sc" horiz-adv-x="446" 
d="M173 0h-84l242 520h-297v72h383v-68z" />
    <glyph glyph-name="eight.sc" horiz-adv-x="500" 
d="M250 -14c-143 0 -220 70 -220 158c0 82 57 129 146 168c-73 35 -118 75 -118 146c0 77 73 146 192 146c125 0 192 -70 192 -146c0 -69 -44 -108 -120 -143c91 -40 148 -84 148 -170c0 -87 -78 -159 -220 -159zM254 345c80 34 108 61 108 108c0 43 -32 88 -112 88
c-75 0 -112 -43 -112 -85c0 -50 33 -77 116 -111zM250 49c82 0 138 39 138 100c0 59 -48 94 -142 132c-95 -41 -134 -76 -134 -132c0 -58 56 -100 138 -100z" />
    <glyph glyph-name="nine.sc" horiz-adv-x="505" 
d="M235 279c58 0 111 30 147 76c-8 124 -70 182 -143 182c-76 0 -127 -47 -127 -131c0 -73 35 -127 123 -127zM222 -14c-77 0 -129 25 -165 56l39 60c37 -31 69 -47 125 -47c96 0 158 96 162 232c-32 -36 -91 -72 -159 -72c-124 0 -193 78 -193 189c0 116 82 200 211 200
c124 0 221 -96 221 -298c0 -191 -105 -320 -241 -320z" />
    <glyph glyph-name="exclam.sc" horiz-adv-x="279" 
d="M89 592h101l-22 -424h-55zM92 88h96v-88h-96v88z" />
    <glyph glyph-name="exclamdown.sc" horiz-adv-x="279" 
d="M188 592v-87h-96v87h96zM167 424l24 -424h-101l22 424h55z" />
    <glyph glyph-name="question.sc" horiz-adv-x="475" 
d="M249 167h-68c-3 16 -3 35 -3 52c0 59 25 91 78 121c63 36 94 57 94 110c0 54 -34 87 -116 87c-67 0 -117 -31 -156 -77l-49 50c45 54 112 95 211 95c127 0 192 -62 192 -148c0 -81 -51 -117 -111 -149c-62 -36 -75 -60 -72 -141zM262 88v-88h-96v88h96z" />
    <glyph glyph-name="questiondown.sc" horiz-adv-x="472" 
d="M209 505v87h97v-87h-97zM223 426h68c3 -17 3 -35 3 -52c0 -60 -26 -92 -78 -122c-63 -35 -94 -56 -94 -109c0 -54 33 -87 116 -87c67 0 117 31 156 77l49 -51c-45 -53 -112 -95 -211 -95c-128 0 -192 63 -192 149c0 81 51 116 110 149c63 36 76 59 73 141z" />
    <glyph glyph-name="numbersign.sc" horiz-adv-x="619" 
d="M255 362l-28 -130h132l28 130h-132zM178 0h-76l35 165h-91v67h106l27 130h-98v67h112l35 163h76l-35 -163h132l35 163h75l-34 -163h97v-67h-111l-28 -130h104v-67h-118l-35 -165h-76l34 165h-131z" />
    <glyph glyph-name="percent.sc" horiz-adv-x="824" 
d="M176 240c-90 0 -142 74 -142 182c0 112 58 185 144 185c83 0 139 -72 139 -183c0 -107 -54 -184 -141 -184zM196 0l354 592h75l-354 -592h-75zM177 299c48 0 73 51 73 124c0 77 -26 125 -74 125c-49 0 -75 -51 -75 -124c0 -78 26 -125 76 -125zM650 -12
c-88 0 -143 75 -143 182c0 113 60 185 144 185c83 0 139 -71 139 -183c0 -107 -54 -184 -140 -184zM650 46c49 0 73 52 73 126c0 78 -26 125 -73 125c-48 0 -74 -50 -74 -125c0 -78 25 -126 74 -126z" />
    <glyph glyph-name="perthousand.sc" horiz-adv-x="1167" 
d="M174 240c-90 0 -142 74 -142 182c0 112 57 185 143 185c84 0 139 -72 139 -183c0 -107 -53 -184 -140 -184zM194 0l354 592h75l-354 -592h-75zM174 299c49 0 74 51 74 124c0 77 -27 125 -74 125c-49 0 -76 -51 -76 -124c0 -78 27 -125 76 -125zM995 -12
c-89 0 -142 75 -142 182c0 113 58 185 144 185c83 0 139 -71 139 -183c0 -107 -54 -184 -141 -184zM647 -12c-88 0 -142 75 -142 182c0 113 59 185 144 185c83 0 139 -71 139 -183c0 -107 -54 -184 -141 -184zM996 46c48 0 73 52 73 126c0 78 -26 125 -74 125
s-75 -50 -75 -125c0 -78 27 -126 76 -126zM648 46c48 0 72 52 72 126c0 78 -25 125 -73 125s-74 -50 -74 -125c0 -78 26 -126 75 -126z" />
    <glyph glyph-name="ampersand.sc" horiz-adv-x="626" 
d="M214 463c0 -30 6 -61 30 -102c57 30 107 62 107 117c0 37 -15 68 -60 68c-53 0 -77 -34 -77 -83zM251 51c41 0 85 14 122 42c-28 26 -60 59 -99 105c-26 28 -48 56 -67 83c-53 -31 -98 -66 -98 -125c0 -66 51 -105 142 -105zM493 299h73c-12 -82 -41 -147 -80 -197
c43 -30 78 -40 118 -43v-67c-61 1 -112 15 -172 57c-51 -39 -114 -60 -182 -60c-151 0 -220 64 -220 160c0 95 72 142 147 182c-27 47 -40 90 -40 131c0 73 46 143 153 143c86 0 131 -46 131 -122c0 -87 -73 -131 -148 -169c15 -23 35 -47 60 -74c38 -43 69 -76 97 -101
c32 40 56 92 63 160z" />
    <glyph glyph-name="slash.sc" horiz-adv-x="477" 
d="M110 0h-87l344 592h87z" />
    <glyph glyph-name="backslash.sc" horiz-adv-x="477" 
d="M110 592l344 -592h-87l-344 592h87z" />
    <glyph glyph-name="plus.sc" horiz-adv-x="638" 
d="M356 46h-74v220h-216v72h216v220h74v-220h217v-72h-217v-220z" />
    <glyph glyph-name="minus.sc" horiz-adv-x="638" 
d="M573 266h-507v72h507v-72z" />
    <glyph glyph-name="divide.sc" horiz-adv-x="638" 
d="M364 436h-94v92h94v-92zM573 266h-507v72h507v-72zM364 75h-94v92h94v-92z" />
    <glyph glyph-name="multiply.sc" horiz-adv-x="638" 
d="M319 252l-170 -171l-51 52l169 169l-169 169l51 51l169 -170l169 170l51 -51l-169 -169l170 -169l-51 -51z" />
    <glyph glyph-name="equal.sc" horiz-adv-x="638" 
d="M571 381h-505v69h505v-69zM571 153h-505v69h505v-69z" />
    <glyph glyph-name="less.sc" horiz-adv-x="638" 
d="M582 123v-77l-529 227v58l529 227v-77l-432 -179z" />
    <glyph glyph-name="greater.sc" horiz-adv-x="638" 
d="M587 273l-529 -227v77l432 179l-432 179v77l529 -227v-58z" />
    <glyph glyph-name="dollar.sc" horiz-adv-x="554" 
d="M247 350v185c-69 -5 -100 -44 -100 -87c0 -56 46 -79 100 -98zM304 262v-204c61 5 115 31 115 95c0 67 -52 88 -115 109zM306 -75h-60v70c-102 10 -162 68 -193 121c10 5 51 32 61 37c32 -50 72 -87 133 -93v219c-92 26 -174 62 -174 164c0 83 66 148 173 155v58h59v-60
c86 -8 136 -56 166 -105l-58 -40c-28 43 -55 72 -109 81v-197c97 -28 189 -62 189 -176c0 -89 -69 -154 -187 -165v-69z" />
    <glyph glyph-name="sterling.sc" horiz-adv-x="524" 
d="M121 -14c-50 0 -103 27 -103 91c0 60 45 97 107 97c31 0 63 -16 86 -35c1 10 2 26 2 39c-1 39 -16 73 -32 104h-111v53h77c-20 35 -38 71 -38 113c0 89 67 154 173 154c123 0 168 -75 177 -158l-75 -11c-6 57 -32 104 -100 104c-58 0 -93 -33 -93 -88
c0 -42 20 -76 43 -114h144v-53h-116c14 -31 25 -64 25 -105c0 -32 -5 -59 -12 -82c28 -24 56 -45 91 -45c45 0 68 29 72 104h69c-5 -92 -34 -168 -134 -168c-55 0 -97 28 -134 56c-27 -35 -67 -56 -118 -56zM123 40c31 0 57 13 70 44c-20 20 -45 37 -68 37
c-30 0 -49 -16 -49 -40c0 -31 22 -41 47 -41z" />
    <glyph glyph-name="yen.sc" horiz-adv-x="536" 
d="M227 0v97h-150v55h150v63h-150v54h148l-196 323h88l153 -259l152 259h86l-197 -323h151v-54h-152v-63h152v-54h-152v-98h-83z" />
    <glyph glyph-name="Euro.sc" horiz-adv-x="591" 
d="M341 -13c-111 0 -199 66 -224 219h-99v54h93c-1 14 -1 25 -1 36c0 10 0 19 1 30h-93v54h98c23 153 121 225 225 225c115 0 171 -72 199 -174l-70 -21c-23 80 -52 127 -129 127c-70 0 -130 -51 -146 -157h169v-54h-174v-30c0 -13 0 -25 1 -36h173v-54h-167
c18 -101 70 -151 146 -151c71 0 111 45 135 134l70 -18c-31 -112 -97 -184 -207 -184z" />
    <glyph glyph-name="florin.sc" horiz-adv-x="337" 
d="M-60 -171l9 63c11 -2 24 -3 32 -3c41 0 68 18 74 60c14 98 37 263 50 361h-72l7 61h74c3 27 8 67 12 94c11 74 55 116 149 116c8 0 45 -2 47 -2l-10 -64c-11 2 -24 3 -32 3c-36 0 -68 -12 -74 -56l-12 -91h94l-8 -61h-93c-14 -98 -39 -275 -53 -372
c-10 -70 -53 -111 -147 -111c-9 0 -44 1 -47 2z" />
    <glyph glyph-name="fi.sc" horiz-adv-x="745" 
d="M661 0h-85v592h85v-592zM162 0h-84v592h383v-70h-299v-186h220v-68h-220v-268z" />
    <glyph glyph-name="fl.sc" horiz-adv-x="980" 
d="M951 0h-383v592h84v-522h299v-70zM162 0h-84v592h383v-70h-299v-186h220v-68h-220v-268z" />
    <glyph glyph-name="space.tab" horiz-adv-x="325" 
 />
    <glyph glyph-name="zero.tab" 
d="M325 -14c-175 0 -275 153 -275 384s100 384 275 384s275 -153 275 -384s-100 -384 -275 -384zM325 62c119 0 191 107 191 308c0 202 -75 308 -191 308c-119 0 -191 -106 -191 -308c0 -201 75 -308 191 -308z" />
    <glyph glyph-name="one.tab" 
d="M142 0v78h158v570c-36 -19 -113 -34 -156 -34v78c57 2 127 17 160 48h81v-662h145v-78h-388z" />
    <glyph glyph-name="two.tab" 
d="M75 0v16c0 107 43 203 241 331c110 71 155 119 155 197c0 81 -49 132 -141 132c-78 0 -135 -38 -178 -122l-65 40c52 102 134 160 246 160c139 0 223 -83 223 -205c0 -97 -44 -163 -184 -253c-137 -87 -195 -157 -202 -218h389v-78h-484z" />
    <glyph glyph-name="three.tab" 
d="M311 -14c-110 0 -202 48 -258 136l63 49c53 -75 117 -107 193 -107c104 0 166 53 166 139c0 104 -61 152 -224 152h-29v73h34c152 0 204 47 204 130c0 70 -41 118 -146 118c-71 0 -127 -29 -173 -83l-57 51c55 64 137 110 236 110c155 0 226 -85 226 -186
c0 -93 -55 -158 -147 -174c110 -22 165 -87 165 -193c0 -124 -100 -215 -253 -215z" />
    <glyph glyph-name="four.tab" 
d="M404 0v171h-349v67l329 502h104v-492h117v-77h-117v-171h-84zM146 248h258v390h-2z" />
    <glyph glyph-name="five.tab" 
d="M316 -14c-109 0 -197 51 -249 127l59 54c44 -63 103 -103 187 -103c121 0 176 84 176 180c0 113 -66 174 -160 174c-72 0 -122 -32 -162 -89l-61 23l28 388h399l-6 -77h-323l-18 -236c35 39 84 65 159 65c136 0 230 -98 230 -245c0 -149 -100 -261 -259 -261z" />
    <glyph glyph-name="six.tab" 
d="M337 -14c-147 0 -266 119 -266 371c0 238 128 397 291 397c90 0 148 -25 188 -57l-45 -68c-40 31 -76 48 -142 48c-126 0 -205 -129 -207 -305c47 50 113 94 203 94c149 0 230 -93 230 -232c0 -142 -98 -248 -252 -248zM342 61c99 0 163 63 163 171
c0 93 -44 160 -159 160c-77 0 -143 -38 -188 -99c14 -162 88 -232 184 -232z" />
    <glyph glyph-name="seven.tab" 
d="M164 0l306 660h-375v80h466v-75l-308 -665h-89z" />
    <glyph glyph-name="eight.tab" 
d="M325 -14c-167 0 -267 85 -267 195c0 102 73 161 188 211c-96 44 -154 92 -154 183c0 92 86 179 233 179c152 0 234 -88 234 -179c0 -87 -59 -136 -159 -180c120 -53 192 -105 192 -214c0 -108 -99 -195 -267 -195zM330 426c103 46 144 78 144 144c0 55 -44 114 -148 114
c-100 0 -149 -56 -149 -111c0 -68 47 -101 153 -147zM325 56c107 0 181 51 181 130s-64 122 -186 173c-120 -55 -175 -98 -175 -173c0 -76 74 -130 180 -130z" />
    <glyph glyph-name="nine.tab" 
d="M303 347c78 0 143 39 189 100c-14 163 -88 232 -184 232c-100 0 -163 -62 -163 -170c0 -93 44 -162 158 -162zM288 -14c-94 0 -157 29 -201 67l44 65c45 -37 83 -57 155 -57c127 0 206 131 208 307c-48 -49 -114 -93 -203 -93c-150 0 -231 92 -231 231
c0 143 98 248 252 248c148 0 267 -119 267 -371c0 -238 -128 -397 -291 -397z" />
    <glyph glyph-name="endash.tab" unicode="&#x2012;" 
d="M583 275h-515v76h515v-76z" />
    <glyph glyph-name="parenleft.tab" horiz-adv-x="325" 
d="M273 -205c-163 137 -250 289 -250 480c0 192 87 343 250 480l39 -42c-119 -113 -197 -263 -197 -438s78 -327 198 -439z" />
    <glyph glyph-name="parenright.tab" horiz-adv-x="325" 
d="M52 -205l-41 41c121 112 199 264 199 439s-78 325 -197 438l39 42c163 -137 250 -288 250 -480c0 -191 -87 -343 -250 -480z" />
    <glyph glyph-name="numbersign.tab" 
d="M219 280h172l36 181h-172zM93 0l41 212h-103v68h116l36 181h-111v68h123l42 211h73l-43 -211h172l43 211h71l-42 -211h107v-68h-119l-36 -181h115v-68h-127l-42 -212h-72l41 212h-171l-43 -212h-71z" />
    <glyph glyph-name="percent.tab" horiz-adv-x="980" 
d="M237 299c-105 0 -167 88 -167 224c0 143 67 227 169 227s166 -84 166 -224c0 -136 -63 -227 -168 -227zM245 0l425 740h66l-426 -740h-65zM238 366c62 0 94 65 94 158c0 99 -33 159 -95 159s-94 -64 -94 -157c0 -99 34 -160 95 -160zM743 -10c-106 0 -167 88 -167 224
c0 143 67 227 168 227c102 0 167 -83 167 -224c0 -136 -63 -227 -168 -227zM744 57c61 0 94 66 94 159c0 99 -34 158 -95 158c-62 0 -95 -64 -95 -157c0 -99 34 -160 96 -160z" />
    <glyph glyph-name="asterisk.tab" 
d="M248 344l-56 33l102 148l-180 -13v62l180 -12l-102 148l56 33l77 -163l78 163l56 -33l-102 -148l180 12v-62l-180 13l102 -148l-56 -33l-78 163z" />
    <glyph glyph-name="period.tab" horiz-adv-x="325" 
d="M112 0v105h102v-105h-102z" />
    <glyph glyph-name="comma.tab" horiz-adv-x="325" 
d="M123 -105l28 105h-39v105h102v-93l-51 -117h-40z" />
    <glyph glyph-name="colon.tab" horiz-adv-x="325" 
d="M112 423v105h102v-105h-102zM112 0v105h102v-105h-102z" />
    <glyph glyph-name="semicolon.tab" horiz-adv-x="325" 
d="M112 423v105h102v-105h-102zM123 -105l27 105h-38v105h102v-92l-52 -118h-39z" />
    <glyph glyph-name="slash.tab" 
d="M66 0l430 740h89l-430 -740h-89z" />
    <glyph glyph-name="periodcentered.tab" horiz-adv-x="325" 
d="M111 269v105h104v-105h-104z" />
    <glyph glyph-name="minute.tab" horiz-adv-x="325" 
d="M115 486l17 196l10 58h82l-62 -254h-47z" />
    <glyph glyph-name="second.tab" 
d="M365 486l17 196l10 58h82l-62 -254h-47zM189 486l17 196l10 58h82l-62 -254h-47z" />
    <glyph glyph-name="plus.tab" 
d="M289 77v220h-217v72h217v220h73v-220h217v-72h-217v-220h-73z" />
    <glyph glyph-name="minus.tab" 
d="M72 297v72h507v-72h-507z" />
    <glyph glyph-name="divide.tab" 
d="M277 467v92h93v-92h-93zM72 297v72h507v-72h-507zM277 106v92h93v-92h-93z" />
    <glyph glyph-name="multiply.tab" 
d="M155 98l-50 51l169 169l-169 169l50 51l169 -170l170 170l50 -51l-169 -169l170 -169l-50 -50l-170 169z" />
    <glyph glyph-name="equal.tab" 
d="M72 405v69h505v-69h-505zM72 177v69h505v-69h-505z" />
    <glyph glyph-name="less.tab" 
d="M588 68l-529 228v57l529 227v-76l-432 -180l432 -179v-77z" />
    <glyph glyph-name="greater.tab" 
d="M64 68v77l433 179l-433 180v76l529 -227v-57z" />
    <glyph glyph-name="dollar.tab" 
d="M300 429v249c-39 -3 -137 -20 -137 -116c0 -77 65 -111 137 -133zM354 63c80 6 155 36 155 127c0 89 -76 123 -155 147v-274zM298 -93v88c-117 9 -194 67 -239 144l63 40c43 -66 95 -110 178 -116v288c-115 34 -219 77 -219 204c0 102 78 185 217 192v72h58v-75
c96 -9 164 -56 204 -125l-62 -44c-39 63 -80 91 -144 99v-258c118 -32 237 -78 237 -219c0 -114 -84 -194 -235 -202v-88h-58z" />
    <glyph glyph-name="cent.tab" 
d="M185 264c0 -72 22 -139 65 -177l107 386c-5 1 -10 1 -15 1c-75 0 -157 -57 -157 -210zM337 -11c-22 0 -42 3 -61 8l-35 -126h-54l41 145c-80 45 -125 141 -125 248c0 191 123 275 241 275c9 0 19 -1 28 -2l28 101h54l-32 -112c51 -18 101 -58 131 -135l-69 -29
c-15 40 -41 80 -84 100l-110 -399c15 -6 32 -9 50 -9c68 0 113 36 148 113l66 -28c-41 -88 -103 -150 -217 -150z" />
    <glyph glyph-name="sterling.tab" 
d="M452 -14c-63 0 -112 37 -155 75c-32 -49 -79 -75 -137 -75c-56 0 -114 34 -114 103s48 115 118 115c39 0 71 -18 100 -41c3 20 4 42 3 67c-3 47 -18 87 -37 125h-128v63h94c-24 46 -45 92 -45 146c0 110 75 190 196 190c141 0 193 -94 201 -188l-77 -12
c-6 73 -40 127 -124 127c-70 0 -112 -42 -112 -116c0 -48 25 -95 51 -147h172v-63h-142c17 -40 30 -83 30 -132c0 -41 -6 -76 -16 -108c35 -31 71 -62 114 -62c55 0 79 38 85 133h74c-4 -111 -36 -200 -151 -200zM161 41c41 0 71 20 89 62c-28 26 -57 46 -87 46
c-34 0 -55 -23 -55 -57c0 -32 23 -51 53 -51z" />
    <glyph glyph-name="yen.tab" 
d="M281 0v117h-187v65h187v88h-187v63h184l-241 407h94l195 -337l195 337h92l-243 -407h187v-63h-189v-88h189v-65h-189v-117h-87z" />
    <glyph glyph-name="Euro.tab" 
d="M382 -14c-135 0 -239 84 -268 274h-118v64h112c-2 27 -1 57 -1 89h-111v62h117c28 195 142 279 268 279c138 0 204 -87 236 -212l-78 -21c-28 100 -60 158 -159 158c-92 0 -164 -63 -183 -204h210v-62h-216c-2 -25 -1 -64 0 -89h216v-64h-209c19 -134 83 -199 184 -199
c96 0 140 59 167 168l78 -20c-36 -132 -111 -223 -245 -223z" />
    <glyph glyph-name="florin.tab" 
d="M65 -199l9 65c8 -1 25 -2 36 -2c52 0 89 22 97 79l64 467h-92l9 66h92l16 124c12 91 64 142 178 142c9 0 47 -2 49 -3l-9 -66c-8 1 -25 2 -36 2c-49 0 -89 -17 -96 -74l-17 -125h116l-8 -66h-116l-66 -475c-12 -87 -63 -136 -176 -136c-10 0 -47 1 -50 2z" />
    <glyph glyph-name="summation" unicode="&#x2211;" horiz-adv-x="595" 
d="M375 287l-228 -416h395v-71h-489v62l232 422l-220 384v72h465v-73h-371z" />
    <glyph glyph-name="estimated" unicode="&#x212e;" horiz-adv-x="697" 
d="M664 318h-490v-220c47 -47 105 -71 174 -71c120 0 183 61 237 145l37 -23c-61 -95 -137 -161 -274 -161c-188 0 -310 151 -310 331c0 183 118 331 313 331c196 0 310 -151 313 -332zM525 358v182c-44 41 -108 71 -175 71c-68 0 -129 -24 -176 -71v-182h351z" />
    <glyph glyph-name="uni2117" unicode="&#x2117;" horiz-adv-x="864" 
d="M432 -14c-215 0 -382 170 -382 383c0 214 168 385 383 385c213 0 381 -170 381 -383c0 -214 -169 -385 -382 -385zM433 32c186 0 331 150 331 337c0 188 -146 339 -332 339c-187 0 -332 -150 -332 -337c0 -188 146 -339 333 -339zM362 161h-59v421h148
c96 0 151 -39 151 -119c0 -86 -61 -125 -156 -125h-84v-177zM362 530v-141h87c59 0 94 19 94 71c0 51 -35 70 -95 70h-86z" />
    <glyph glyph-name="product" unicode="&#x220f;" horiz-adv-x="730" 
d="M92 -200v940h546v-940h-86v867h-374v-867h-86z" />
    <glyph glyph-name="Delta" unicode="&#x394;" horiz-adv-x="676" 
d="M30 0l267 744h82l267 -744h-616zM135 71h400l-198 560h-2z" />
    <glyph glyph-name="Omega" unicode="&#x3a9;" horiz-adv-x="748" 
d="M374 755c201 0 309 -170 309 -360c0 -132 -63 -249 -163 -324h155v-71h-235v71c95 80 157 180 157 323c0 161 -80 288 -224 288c-138 0 -222 -119 -222 -287c0 -144 62 -244 157 -324v-71h-236v71h155c-100 73 -162 193 -162 324c0 194 111 360 309 360z" />
    <glyph glyph-name="partialdiff" unicode="&#x2202;" horiz-adv-x="575" 
d="M350 756c131 -111 175 -259 175 -436c0 -203 -130 -331 -277 -331c-137 0 -216 98 -216 228c0 187 135 299 260 299c65 0 120 -33 152 -86c-12 104 -65 209 -143 279zM251 51c93 0 187 95 187 238c0 98 -49 166 -131 166c-96 0 -191 -94 -191 -238
c0 -96 50 -166 135 -166z" />
    <glyph glyph-name="pi" unicode="&#x3c0;" horiz-adv-x="651" 
d="M9 464v65h633v-65h-97v-464h-84v464h-271v-464h-84v464h-97z" />
    <glyph glyph-name="integral" unicode="&#x222b;" horiz-adv-x="344" 
d="M117 599c0 89 47 143 159 143c15 0 41 -3 49 -3v-70c-8 2 -25 3 -37 3c-48 0 -85 -17 -85 -74v-679c0 -72 -28 -120 -122 -120c-15 0 -45 3 -52 4v65c9 -2 22 -4 34 -4c34 0 54 18 54 61v674z" />
    <glyph glyph-name="uni2713" unicode="&#x2713;" horiz-adv-x="598" 
d="M305 -2h-90l-192 527h95l142 -411h2l217 625h95z" />
    <glyph glyph-name="uni00B5" unicode="&#xb5;" horiz-adv-x="593" 
d="M162 -200h-86v728h86v-363c0 -69 30 -104 98 -104c63 0 115 33 171 85v382h86v-528h-86v85c-48 -47 -106 -88 -177 -92c-39 -1 -70 5 -92 29v-222z" />
    <glyph glyph-name="uni02C9" unicode="&#x2c9;" horiz-adv-x="500" 
d="M385 583h-270v69h270v-69z" />
    <glyph glyph-name="uni2126" unicode="&#x2126;" horiz-adv-x="748" 
d="M374 755c201 0 309 -170 309 -360c0 -132 -63 -249 -163 -324h155v-71h-235v71c95 80 157 180 157 323c0 161 -80 288 -224 288c-138 0 -222 -119 -222 -287c0 -144 62 -244 157 -324v-71h-236v71h155c-100 73 -162 193 -162 324c0 194 111 360 309 360z" />
    <glyph glyph-name="uni2206" unicode="&#x2206;" horiz-adv-x="676" 
d="M30 0l267 744h82l267 -744h-616zM135 71h400l-198 560h-2z" />
    <glyph glyph-name="uni2215" unicode="&#x2215;" horiz-adv-x="480" 
d="M63 0h-79l434 740h78z" />
    <glyph glyph-name="uni2219" unicode="&#x2219;" horiz-adv-x="273" 
d="M189 269h-105v105h105v-105z" />
    </font>
</defs>
</svg>
