<?xml version="1.0" standalone="no"?>
<!DOCTYPE svg PUBLIC "-//W3C//DTD SVG 1.1//EN" "http://www.w3.org/Graphics/SVG/1.1/DTD/svg11.dtd" >
<svg xmlns="http://www.w3.org/2000/svg" xmlns:xlink="http://www.w3.org/1999/xlink" version="1.1">
<metadata>
Created by FontForge 20170731 at Tue Nov 17 02:40:28 2015
 By Aleksey,,,
Copyright (c) 2011-15 Victoria's Secret Pink. All rights reserved.
</metadata>
<defs>
<font id="PinkSlab-130" horiz-adv-x="400" >
  <font-face 
    font-family="Pink Slab 130"
    font-weight="600"
    font-stretch="normal"
    units-per-em="1000"
    panose-1="2 0 0 0 0 0 0 0 0 0"
    ascent="800"
    descent="-200"
    x-height="500"
    cap-height="700"
    bbox="-87 -200 1086 900"
    underline-thickness="50"
    underline-position="-200"
    unicode-range="U+0020-10094D"
  />
<missing-glyph horiz-adv-x="820" 
d="M60 700h700v-700h-700v700zM170 605v-510h480v510h-480zM343 539l67 -96l67 96h126l-130 -189l130 -189h-126l-67 96l-67 -96h-126l130 189l-130 189h126z" />
    <glyph glyph-name=".notdef" horiz-adv-x="820" 
d="M60 700h700v-700h-700v700zM170 605v-510h480v510h-480zM343 539l67 -96l67 96h126l-130 -189l130 -189h-126l-67 96l-67 -96h-126l130 189l-130 189h126z" />
    <glyph glyph-name=".null" horiz-adv-x="0" 
 />
    <glyph glyph-name="nonmarkingreturn" horiz-adv-x="333" 
 />
    <glyph glyph-name="space" unicode=" " horiz-adv-x="200" 
 />
    <glyph glyph-name="exclam" unicode="!" horiz-adv-x="240" 
d="M72 213l-33 487h162l-33 -487h-96zM55 0v130h130v-130h-130z" />
    <glyph glyph-name="quotedbl" unicode="&#x22;" horiz-adv-x="427" 
d="M65 441l-21 259h152l-21 -259h-110zM252 441l-21 259h152l-21 -259h-110z" />
    <glyph glyph-name="numbersign" unicode="#" horiz-adv-x="423" 
d="M397 285v-112h-54v-173h-96v173h-70v-173h-97v173h-53v112h53v130h-53v112h53v173h97v-173h70v173h96v-173h54v-112h-54v-130h54zM177 415v-130h70v130h-70z" />
    <glyph glyph-name="dollar" unicode="$" horiz-adv-x="413" 
d="M268 209v95h-169l-61 62v166l68 68h44v100h124v-100h44l68 -68v-92h-117v51h-105v-95h169l61 -62v-166l-68 -68h-53v-100h-124v100h-52l-68 68v92h117v-51h122z" />
    <glyph glyph-name="percent" unicode="%" horiz-adv-x="752" 
d="M322 641v-196l-59 -58h-160l-60 58v196l60 59h160zM218 484v119h-70v-119h70zM89 0l444 700h103l-444 -700h-103zM403 59v196l59 58h160l60 -58v-196l-60 -59h-160zM507 216v-119h70v119h-70z" />
    <glyph glyph-name="ampersand" unicode="&#x26;" horiz-adv-x="517" 
d="M390 628v-155l-109 -101l36 -67l44 83h138l-112 -201l110 -187h-147l-34 61l-31 -61h-172l-73 73v234l85 78l-61 108v135l72 72h181zM186 287l-16 -16v-159h44l31 67zM194 523l26 -52l40 39v80h-66v-67z" />
    <glyph glyph-name="quotesingle" unicode="'" horiz-adv-x="240" 
d="M65 441l-21 259h152l-21 -259h-110z" />
    <glyph glyph-name="parenleft" unicode="(" horiz-adv-x="280" 
d="M240 10v-110h-126l-74 74v752l74 74h126v-110h-70v-680h70z" />
    <glyph glyph-name="parenright" unicode=")" horiz-adv-x="280" 
d="M40 690v110h126l74 -74v-752l-74 -74h-126v110h70v680h-70z" />
    <glyph glyph-name="asterisk" unicode="*" horiz-adv-x="380" 
d="M31 581l47 81l66 -39v77h92v-77l66 39l47 -81l-66 -38l66 -38l-47 -80l-66 38v-76h-92v76l-66 -38l-47 80l66 38z" />
    <glyph glyph-name="plus" unicode="+" horiz-adv-x="427" 
d="M157 528h113v-122h122v-112h-122v-122h-113v122h-122v112h122v122z" />
    <glyph glyph-name="comma" unicode="," horiz-adv-x="240" 
d="M185 130v-110l-52 -120h-123l45 104v126h130z" />
    <glyph glyph-name="hyphen" unicode="-" horiz-adv-x="260" 
d="M228 356v-110h-196v110h196z" />
    <glyph glyph-name="period" unicode="." horiz-adv-x="240" 
d="M55 0v130h130v-130h-130z" />
    <glyph glyph-name="slash" unicode="/" horiz-adv-x="330" 
d="M330 800l-200 -900h-130l200 900h130z" />
    <glyph glyph-name="zero" unicode="0" horiz-adv-x="423" 
d="M390 620v-540l-80 -80h-197l-80 80v540l80 80h197zM260 112v476h-97v-476h97z" />
    <glyph glyph-name="one" unicode="1" horiz-adv-x="423" 
d="M33 550l150 150h104v-588h100v-112h-330v112h100v416l-51 -50z" />
    <glyph glyph-name="two" unicode="2" horiz-adv-x="423" 
d="M164 294v-182h101v101h122v-213h-353v336l70 70h148v182h-88v-101h-122v143l70 70h200l70 -70v-265l-70 -71h-148z" />
    <glyph glyph-name="three" unicode="3" horiz-adv-x="423" 
d="M38 488v132l80 80h184l80 -80v-221l-39 -40l47 -47v-232l-80 -80h-193l-80 80v132h118v-100h105v188h-129v110h121v178h-96v-100h-118z" />
    <glyph glyph-name="four" unicode="4" horiz-adv-x="423" 
d="M30 181v111l171 408h151v-407h44v-112h-44v-69h44v-112h-218v112h44v69h-192zM142 293h80v210z" />
    <glyph glyph-name="five" unicode="5" horiz-adv-x="423" 
d="M40 305v395h350v-112h-220v-171h140l80 -80v-257l-80 -80h-195l-80 80v133h117v-101h108v193h-220z" />
    <glyph glyph-name="six" unicode="6" horiz-adv-x="423" 
d="M117 0l-80 80v540l80 80h186l80 -80v-133h-118v101h-98v-178h143l80 -80v-250l-80 -80h-193zM167 300v-188h93v188h-93z" />
    <glyph glyph-name="seven" unicode="7" horiz-adv-x="423" 
d="M35 487v213h357v-197l-153 -503h-133l156 512v76h-108v-101h-119z" />
    <glyph glyph-name="eight" unicode="8" horiz-adv-x="423" 
d="M44 399v221l80 80h178l80 -80v-221l-39 -40l47 -47v-232l-80 -80h-193l-80 80v232l47 47zM167 300v-188h93v188h-93zM174 588v-178h78v178h-78z" />
    <glyph glyph-name="nine" unicode="9" horiz-adv-x="423" 
d="M310 700l80 -80v-540l-80 -80h-193l-80 80v133h119v-101h104v178h-143l-80 80v250l80 80h193zM260 400v188h-93v-188h93z" />
    <glyph glyph-name="colon" unicode=":" horiz-adv-x="240" 
d="M55 0v130h130v-130h-130zM55 380v130h130v-130h-130z" />
    <glyph glyph-name="semicolon" unicode=";" horiz-adv-x="240" 
d="M55 380v130h130v-130h-130zM185 130v-110l-52 -120h-123l45 104v126h130z" />
    <glyph glyph-name="less" unicode="&#x3c;" horiz-adv-x="427" 
d="M392 264v-124l-357 146v128l357 146v-124l-221 -86z" />
    <glyph glyph-name="equal" unicode="=" horiz-adv-x="427" 
d="M392 495v-113h-357v113h357zM392 318v-113h-357v113h357z" />
    <glyph glyph-name="greater" unicode="&#x3e;" horiz-adv-x="427" 
d="M35 436v124l357 -146v-128l-357 -146v124l221 86z" />
    <glyph glyph-name="question" unicode="?" horiz-adv-x="413" 
d="M35 487v133l80 80h183l80 -80v-212l-115 -94l-6 -101h-97l-10 166l98 80v129h-94v-101h-119zM144 0v130h130v-130h-130z" />
    <glyph glyph-name="at" unicode="@" horiz-adv-x="687" 
d="M304 311v-66h61v66h-61zM655 100v-100h-573l-50 50v599l50 50h523l50 -50v-454l-50 -50h-175l-33 33l-33 -33h-126l-64 64v124l64 63h127v60h-61v-25h-120v66l57 56h197l57 -56v-252h50v353h-409v-498h519z" />
    <glyph glyph-name="A" unicode="A" horiz-adv-x="439" 
d="M268 112l-12 83h-91l-11 -83h31v-112h-175v112h29l87 588h187l86 -588h30v-112h-192v112h31zM211 537l-32 -234h63z" />
    <glyph glyph-name="B" unicode="B" horiz-adv-x="426" 
d="M401 315v-244l-71 -71h-313v112h34v476h-34v112h303l70 -70v-235l-35 -35zM181 299v-187h90v187h-90zM181 588v-177h80v177h-80z" />
    <glyph glyph-name="C" unicode="C" horiz-adv-x="395" 
d="M300 0h-204l-71 71v559l71 70h204l70 -70v-142h-119v100h-96v-476h96v100h119v-141z" />
    <glyph glyph-name="D" unicode="D" horiz-adv-x="426" 
d="M401 630v-559l-71 -71h-313v112h34v476h-34v112h313zM181 588v-476h90v476h-90z" />
    <glyph glyph-name="E" unicode="E" horiz-adv-x="401" 
d="M383 0h-366v112h34v476h-34v112h366v-213h-119v101h-83v-177h130v-112h-130v-187h83v101h119v-213z" />
    <glyph glyph-name="F" unicode="F" horiz-adv-x="399" 
d="M214 112v-112h-197v112h34v476h-34v112h366v-213h-119v101h-83v-187h132v-112h-132v-177h33z" />
    <glyph glyph-name="G" unicode="G" 
d="M305 0h-209l-71 71v559l71 70h209l70 -70v-143h-120v101h-100v-476h90v164h-38v112h168v-317z" />
    <glyph glyph-name="H" unicode="H" horiz-adv-x="454" 
d="M240 0v112h34v187h-93v-187h33v-112h-197v112h34v476h-34v112h197v-112h-33v-177h93v177h-34v112h197v-112h-33v-476h33v-112h-197z" />
    <glyph glyph-name="I" unicode="I" horiz-adv-x="231" 
d="M181 588v-476h33v-112h-197v112h34v476h-34v112h197v-112h-33z" />
    <glyph glyph-name="J" unicode="J" horiz-adv-x="372" 
d="M252 0h-170l-70 71v142h118v-101h62v476h-34v112h198v-112h-34v-517z" />
    <glyph glyph-name="K" unicode="K" horiz-adv-x="470" 
d="M447 112v-112h-198v112h27l-56 159l-39 -77v-82h33v-112h-197v112h34v476h-34v112h197v-112h-33v-189l99 189h-29v112h185v-112h-30l-97 -176l107 -300h31z" />
    <glyph glyph-name="L" unicode="L" horiz-adv-x="379" 
d="M181 588v-476h63v101h119v-213h-346v112h34v476h-34v112h197v-112h-33z" />
    <glyph glyph-name="M" unicode="M" horiz-adv-x="568" 
d="M234 130l-71 263v-281h33v-112h-179v112h34v476h-34v112h174l91 -321l91 321h178v-112h-34v-476h34v-112h-197v112h33v290l-73 -272h-80z" />
    <glyph glyph-name="N" unicode="N" horiz-adv-x="454" 
d="M437 700v-112h-34v-588h-129l-114 367v-255h33v-112h-176v112h34v476h-34v112h162l115 -368v256h-33v112h176z" />
    <glyph glyph-name="O" unicode="O" 
d="M375 630v-559l-70 -71h-209l-71 71v559l71 70h209zM245 112v476h-90v-476h90z" />
    <glyph glyph-name="P" unicode="P" horiz-adv-x="426" 
d="M181 251v-139h33v-112h-197v112h34v476h-34v112h313l71 -70v-309l-71 -70h-149zM181 588v-225h90v225h-90z" />
    <glyph glyph-name="Q" unicode="Q" 
d="M375 630v-555l74 -74l-75 -75l-74 74h-204l-71 71v559l71 70h209zM245 112v476h-90v-476h90z" />
    <glyph glyph-name="R" unicode="R" horiz-adv-x="427" 
d="M181 588v-225h90v225h-90zM181 251v-139h33v-112h-197v112h34v476h-34v112h313l71 -70v-309l-53 -52l35 -157h27v-112h-130l-53 251h-46z" />
    <glyph glyph-name="S" unicode="S" 
d="M247 112v187h-145l-70 71v260l70 70h196l71 -70v-143h-122v101h-85v-177h145l70 -70v-270l-70 -71h-213l-71 71v142h122v-101h102z" />
    <glyph glyph-name="T" unicode="T" horiz-adv-x="458" 
d="M13 487v213h432v-213h-109v101h-42v-476h33v-112h-196v112h33v476h-42v-101h-109z" />
    <glyph glyph-name="U" unicode="U" horiz-adv-x="447" 
d="M240 588v112h191v-112h-34v-517l-70 -71h-206l-70 71v517h-34v112h196v-112h-34v-476h95v476h-34z" />
    <glyph glyph-name="V" unicode="V" horiz-adv-x="439" 
d="M230 145l54 443h-30v112h175v-112h-30l-84 -588h-191l-85 588h-29v112h192v-112h-31l55 -443h4z" />
    <glyph glyph-name="W" unicode="W" horiz-adv-x="652" 
d="M192 700v-112h-27l34 -362h4l62 414h139l62 -414h4l34 362h-27v112h165v-112h-29l-62 -588h-162l-58 395h-4l-57 -395h-169l-63 588h-28v112h182z" />
    <glyph glyph-name="X" unicode="X" horiz-adv-x="445" 
d="M249 588v112h179v-112h-28l-108 -230l112 -246h27v-112h-196v112h28l-50 118l-51 -118h28v-112h-180v112h28l114 242l-108 234h-27v112h196v-112h-29l46 -106l46 106h-27z" />
    <glyph glyph-name="Y" unicode="Y" horiz-adv-x="421" 
d="M310 112v-112h-198v112h34v132l-110 344h-25v112h188v-112h-30l48 -159l47 159h-29v112h175v-112h-25l-109 -340v-136h34z" />
    <glyph glyph-name="Z" unicode="Z" horiz-adv-x="385" 
d="M368 0h-351v122l218 466h-98v-101h-112v213h338v-122l-218 -466h111v101h112v-213z" />
    <glyph glyph-name="bracketleft" unicode="[" horiz-adv-x="280" 
d="M240 10v-110h-200v900h200v-110h-70v-680h70z" />
    <glyph glyph-name="backslash" unicode="\" horiz-adv-x="330" 
d="M200 -100l-200 900h130l200 -900h-130z" />
    <glyph glyph-name="bracketright" unicode="]" horiz-adv-x="280" 
d="M40 690v110h200v-900h-200v110h70v680h-70z" />
    <glyph glyph-name="asciicircum" unicode="^" horiz-adv-x="427" 
d="M127 410h-123l146 290h127l146 -290h-123l-87 172z" />
    <glyph glyph-name="underscore" unicode="_" horiz-adv-x="200" 
d="M200 -67v-110h-200v110h200z" />
    <glyph glyph-name="grave" unicode="`" horiz-adv-x="402" 
d="M82 700h124l58 -135h-124z" />
    <glyph glyph-name="a" unicode="a" horiz-adv-x="396" 
d="M353 430v-319h26v-111h-156v36l-36 -36h-99l-70 70v160l70 70h135v89h-75v-50h-120v91l70 70h185zM148 208v-97h75v97h-75z" />
    <glyph glyph-name="b" unicode="b" horiz-adv-x="399" 
d="M378 430v-360l-70 -70h-99l-36 36v-36h-157v111h27v478h-27v111h157v-236l36 36h99zM173 389v-278h75v278h-75z" />
    <glyph glyph-name="c" unicode="c" horiz-adv-x="371" 
d="M280 0h-189l-70 70v360l70 70h189l70 -70v-130h-120v89h-79v-278h79v89h120v-130z" />
    <glyph glyph-name="d" unicode="d" horiz-adv-x="399" 
d="M21 70v360l70 70h99l36 -36v125h-26v111h156v-589h27v-111h-157v36l-36 -36h-99zM151 389v-278h75v278h-75z" />
    <glyph glyph-name="e" unicode="e" horiz-adv-x="378" 
d="M21 70v360l70 70h195l70 -70v-226h-205v-93h85v50h120v-91l-70 -70h-195zM151 389v-93h75v93h-75z" />
    <glyph glyph-name="f" unicode="f" horiz-adv-x="336" 
d="M16 389v111h50v140l60 60h136l60 -60v-90h-96v39h-30v-89h105v-111h-105v-278h34v-111h-197v111h33v278h-50z" />
    <glyph glyph-name="g" unicode="g" horiz-adv-x="373" 
d="M21 70v360l70 70h99l36 -36v36h130v-630l-70 -70h-195l-70 70v91h120v-50h85v125l-36 -36h-99zM151 389v-278h75v278h-75z" />
    <glyph glyph-name="h" unicode="h" horiz-adv-x="420" 
d="M248 0v389h-75v-278h26v-111h-183v111h27v478h-27v111h157v-236l36 36h99l70 -70v-319h26v-111h-156z" />
    <glyph glyph-name="i" unicode="i" horiz-adv-x="215" 
d="M16 389v111h157v-389h26v-111h-183v111h27v278h-27zM39 564v136h137v-136h-137z" />
    <glyph glyph-name="j" unicode="j" horiz-adv-x="201" 
d="M16 389v111h157v-640l-60 -60h-140l-60 60v100h100v-49h30v478h-27zM39 564v136h137v-136h-137z" />
    <glyph glyph-name="k" unicode="k" horiz-adv-x="426" 
d="M409 0h-185v111h17l-41 74l-27 -32v-42h26v-111h-183v111h27v478h-27v111h157v-378l58 67h-24v111h192v-111h-22l-83 -94l95 -184h20v-111z" />
    <glyph glyph-name="l" unicode="l" horiz-adv-x="215" 
d="M16 589v111h157v-589h26v-111h-183v111h27v478h-27z" />
    <glyph glyph-name="m" unicode="m" horiz-adv-x="593" 
d="M231 0v389h-58v-278h26v-111h-183v111h27v278h-27v111h157v-36l36 36h82l39 -39l39 39h111l70 -70v-319h26v-111h-156v389h-59v-278h27v-111h-157z" />
    <glyph glyph-name="n" unicode="n" horiz-adv-x="420" 
d="M248 0v389h-75v-278h26v-111h-183v111h27v278h-27v111h157v-36l36 36h99l70 -70v-319h26v-111h-156z" />
    <glyph glyph-name="o" unicode="o" horiz-adv-x="378" 
d="M286 0h-195l-70 70v360l70 70h195l70 -70v-360zM151 389v-278h75v278h-75z" />
    <glyph glyph-name="p" unicode="p" horiz-adv-x="399" 
d="M378 430v-360l-70 -70h-99l-36 36v-125h26v-111h-183v111h27v478h-27v111h157v-36l36 36h99zM173 389v-278h75v278h-75z" />
    <glyph glyph-name="q" unicode="q" horiz-adv-x="399" 
d="M21 70v360l70 70h99l36 -36v36h130v-589h27v-111h-183v111h26v125l-36 -36h-99zM151 389v-278h75v278h-75z" />
    <glyph glyph-name="r" unicode="r" horiz-adv-x="349" 
d="M228 339v50h-55v-278h26v-111h-183v111h27v278h-27v111h157v-36l36 36h69l55 -55v-106h-105z" />
    <glyph glyph-name="s" unicode="s" horiz-adv-x="371" 
d="M353 234v-164l-70 -70h-195l-70 70v91h120v-50h85v93h-134l-63 62v164l70 70h179l70 -70v-91h-120v50h-69v-93h135z" />
    <glyph glyph-name="t" unicode="t" horiz-adv-x="316" 
d="M16 389v111h50v100h130v-100h105v-111h-105v-278h30v39h76v-90l-60 -60h-116l-60 60v329h-50z" />
    <glyph glyph-name="u" unicode="u" horiz-adv-x="420" 
d="M173 500v-389h75v278h-27v111h157v-389h26v-111h-156v36l-37 -36h-98l-70 70v319h-27v111h157z" />
    <glyph glyph-name="v" unicode="v" horiz-adv-x="402" 
d="M194 500v-111h-28l40 -246h4l39 246h-28v111h171v-111h-26l-71 -389h-188l-71 389h-26v111h184z" />
    <glyph glyph-name="w" unicode="w" horiz-adv-x="586" 
d="M339 0l-44 285h-4l-43 -285h-175l-43 389h-20v111h166v-111h-25l20 -238h4l53 349h139l53 -349h4l20 238h-25v111h157v-111h-20l-43 -389h-174z" />
    <glyph glyph-name="x" unicode="x" horiz-adv-x="391" 
d="M171 111v-111h-161v111h20l84 153l-81 125h-20v111h181v-111h-18l35 -56l28 56h-19v111h158v-111h-20l-81 -148l84 -130h20v-111h-184v111h21l-38 61l-31 -61h22z" />
    <glyph glyph-name="y" unicode="y" horiz-adv-x="402" 
d="M194 500v-111h-23l35 -162h4l35 162h-24v111h171v-111h-22l-139 -478h24v-111h-173v111h24l33 117l-107 361h-22v111h184z" />
    <glyph glyph-name="z" unicode="z" horiz-adv-x="344" 
d="M18 339v161h308v-104l-171 -285h74v50h105v-161h-324v104l169 285h-56v-50h-105z" />
    <glyph glyph-name="braceleft" unicode="{" horiz-adv-x="280" 
d="M67 -26v321h-44v110h44v321l74 74h99v-110h-43v-301l-39 -39l39 -39v-301h43v-110h-99z" />
    <glyph glyph-name="bar" unicode="|" horiz-adv-x="230" 
d="M180 800v-900h-130v900h130z" />
    <glyph glyph-name="braceright" unicode="}" horiz-adv-x="280" 
d="M213 726v-321h44v-110h-44v-321l-74 -74h-99v110h43v301l39 39l-39 39v301h-43v110h99z" />
    <glyph glyph-name="asciitilde" unicode="~" horiz-adv-x="380" 
d="M307 287l-175 35v-39h-100v92l40 40l175 -35v39h100v-92z" />
    <glyph glyph-name="nbspace" unicode="&#xa0;" horiz-adv-x="200" 
 />
    <glyph glyph-name="exclamdown" unicode="&#xa1;" horiz-adv-x="240" 
d="M168 487l33 -487h-162l33 487h96zM185 700v-130h-130v130h130z" />
    <glyph glyph-name="cent" unicode="&#xa2;" horiz-adv-x="427" 
d="M321 100h-44v-100h-128v100h-44l-70 70v360l70 70h44v100h129v-100h43l70 -70v-110h-120v68h-106v-276h106v68h120v-110z" />
    <glyph glyph-name="sterling" unicode="&#xa3;" horiz-adv-x="427" 
d="M398 112v-112h-366v112h48v191h-48v92h48v235l70 70h175l70 -70v-110h-120v68h-65v-193h112v-92h-112v-191h188z" />
    <glyph glyph-name="yen" unicode="&#xa5;" horiz-adv-x="427" 
d="M48 239v93h79l-114 368h121l83 -286l83 286h114l-115 -368h79v-93h-103v-42h103v-93h-103v-104h-124v104h-103v93h103v42h-103z" />
    <glyph glyph-name="section" unicode="&#xa7;" horiz-adv-x="409" 
d="M382 440v-149l-46 -46l19 -19v-156l-70 -70h-188l-70 70v92h120v-50h78v89h-137l-60 60v149l46 46l-19 19v156l70 70h180l70 -70v-92h-120v49h-70v-88h137zM252 401h-94v-101h94v101z" />
    <glyph glyph-name="dieresis" unicode="&#xa8;" horiz-adv-x="402" 
d="M44 555v136h136v-136h-136zM223 555v136h136v-136h-136z" />
    <glyph glyph-name="copyright" unicode="&#xa9;" horiz-adv-x="579" 
d="M321 218v79h93v-130l-47 -47h-157l-47 47v366l47 47h157l47 -47v-130h-93v79h-55v-264h55zM500 0h-421l-40 40v620l40 40h421l40 -40v-620zM109 65h361v570h-361v-570z" />
    <glyph glyph-name="ordfeminine" unicode="&#xaa;" horiz-adv-x="396" 
d="M353 630v-319h26v-111h-156v36l-36 -36h-99l-70 70v160l70 70h135v89h-75v-50h-120v91l70 70h185zM148 408v-97h75v97h-75zM379 111v-111h-361v111h361z" />
    <glyph glyph-name="uni00AD" unicode="&#xad;" horiz-adv-x="260" 
d="M228 356v-110h-196v110h196z" />
    <glyph glyph-name="registered" unicode="&#xae;" horiz-adv-x="318" 
d="M264 350h-215l-15 15v315l20 20h210l20 -20v-310zM64 382h185v285h-185v-285zM143 592v-57h31v57h-31zM229 410h-47l-21 77h-18v-77h-49v230h105l23 -24v-101l-17 -17z" />
    <glyph glyph-name="macron" unicode="&#xaf;" horiz-adv-x="402" 
d="M311 577h-220v110h220v-110z" />
    <glyph glyph-name="degree" unicode="&#xb0;" horiz-adv-x="358" 
d="M337 641v-184l-59 -59h-184l-59 59v184l59 59h184zM231 496v105h-91v-105h91z" />
    <glyph glyph-name="plusminus" unicode="&#xb1;" horiz-adv-x="427" 
d="M157 585h113v-104h122v-113h-122v-103h-113v103h-122v113h122v104zM392 228v-113h-357v113h357z" />
    <glyph glyph-name="acute" unicode="&#xb4;" horiz-adv-x="402" 
d="M197 700h123l-58 -135h-123z" />
    <glyph glyph-name="paragraph" unicode="&#xb6;" horiz-adv-x="422" 
d="M264 588h-149v-276h36v240h77v-552h-77v200h-56l-70 70v360l70 70h299v-700h-130v588z" />
    <glyph glyph-name="periodcentered" unicode="&#xb7;" horiz-adv-x="240" 
d="M55 236v130h130v-130h-130z" />
    <glyph glyph-name="cedilla" unicode="&#xb8;" horiz-adv-x="402" 
d="M229 -23v-35h45l30 -30v-82l-30 -30h-147v63h107v22h-41l-20 20v72h56z" />
    <glyph glyph-name="ordmasculine" unicode="&#xba;" horiz-adv-x="378" 
d="M286 200h-195l-70 70v360l70 70h195l70 -70v-360zM151 589v-278h75v278h-75zM356 111v-111h-335v111h335z" />
    <glyph glyph-name="questiondown" unicode="&#xbf;" horiz-adv-x="413" 
d="M378 213v-133l-80 -80h-183l-80 80v212l116 94l5 101h97l11 -166l-99 -80v-129h95v101h118zM270 700v-130h-130v130h130z" />
    <glyph glyph-name="Agrave" unicode="&#xc0;" horiz-adv-x="439" 
d="M268 112l-12 83h-91l-11 -83h31v-112h-175v112h29l87 588h187l86 -588h30v-112h-192v112h31zM211 537l-32 -234h63zM100 900h124l58 -135h-124z" />
    <glyph glyph-name="Aacute" unicode="&#xc1;" horiz-adv-x="439" 
d="M268 112l-12 83h-91l-11 -83h31v-112h-175v112h29l87 588h187l86 -588h30v-112h-192v112h31zM211 537l-32 -234h63zM215 900h123l-58 -135h-123z" />
    <glyph glyph-name="Acircumflex" unicode="&#xc2;" horiz-adv-x="439" 
d="M268 112l-12 83h-91l-11 -83h31v-112h-175v112h29l87 588h187l86 -588h30v-112h-192v112h31zM211 537l-32 -234h63zM141 900h155l75 -135h-123l-29 52l-29 -52h-123z" />
    <glyph glyph-name="Atilde" unicode="&#xc3;" horiz-adv-x="439" 
d="M268 112l-12 83h-91l-11 -83h31v-112h-175v112h29l87 588h187l86 -588h30v-112h-192v112h31zM211 537l-32 -234h63zM322 775l-147 25v-35h-100v85l40 40l147 -25v35h100v-85z" />
    <glyph glyph-name="Adieresis" unicode="&#xc4;" horiz-adv-x="439" 
d="M268 112l-12 83h-91l-11 -83h31v-112h-175v112h29l87 588h187l86 -588h30v-112h-192v112h31zM211 537l-32 -234h63zM62 755v136h136v-136h-136zM241 755v136h136v-136h-136z" />
    <glyph glyph-name="Aring" unicode="&#xc5;" horiz-adv-x="439" 
d="M268 112l-12 83h-91l-11 -83h31v-112h-175v112h29l87 588h187l86 -588h30v-112h-192v112h31zM211 537l-32 -234h63zM189 850v-54h59v54h-59zM137 777v93l30 30h104l30 -30v-93l-30 -30h-104z" />
    <glyph glyph-name="AE" unicode="&#xc6;" horiz-adv-x="585" 
d="M448 112v100h119v-212h-329v112h29l-10 82h-91l-11 -82h31v-112h-176v112h30l86 588h441v-212h-119v100h-119l26 -177h140v-112h-123l28 -187h48zM211 538l-31 -234h63z" />
    <glyph glyph-name="Ccedilla" unicode="&#xc7;" horiz-adv-x="395" 
d="M300 0h-204l-71 71v559l71 70h204l70 -70v-142h-119v100h-96v-476h96v100h119v-141zM225 -23v-35h45l30 -30v-82l-30 -30h-147v63h107v22h-41l-20 20v72h56z" />
    <glyph glyph-name="Egrave" unicode="&#xc8;" horiz-adv-x="401" 
d="M383 0h-366v112h34v476h-34v112h366v-213h-119v101h-83v-177h130v-112h-130v-187h83v101h119v-213zM81 900h124l58 -135h-124z" />
    <glyph glyph-name="Eacute" unicode="&#xc9;" horiz-adv-x="401" 
d="M383 0h-366v112h34v476h-34v112h366v-213h-119v101h-83v-177h130v-112h-130v-187h83v101h119v-213zM196 900h123l-58 -135h-123z" />
    <glyph glyph-name="Ecircumflex" unicode="&#xca;" horiz-adv-x="401" 
d="M383 0h-366v112h34v476h-34v112h366v-213h-119v101h-83v-177h130v-112h-130v-187h83v101h119v-213zM122 900h155l75 -135h-123l-29 52l-29 -52h-123z" />
    <glyph glyph-name="Edieresis" unicode="&#xcb;" horiz-adv-x="401" 
d="M383 0h-366v112h34v476h-34v112h366v-213h-119v101h-83v-177h130v-112h-130v-187h83v101h119v-213zM43 755v136h136v-136h-136zM222 755v136h136v-136h-136z" />
    <glyph glyph-name="Igrave" unicode="&#xcc;" horiz-adv-x="231" 
d="M181 588v-476h33v-112h-197v112h34v476h-34v112h197v-112h-33zM-4 900h124l58 -135h-124z" />
    <glyph glyph-name="Iacute" unicode="&#xcd;" horiz-adv-x="231" 
d="M181 588v-476h33v-112h-197v112h34v476h-34v112h197v-112h-33zM111 900h123l-58 -135h-123z" />
    <glyph glyph-name="Icircumflex" unicode="&#xce;" horiz-adv-x="231" 
d="M181 588v-476h33v-112h-197v112h34v476h-34v112h197v-112h-33zM37 900h155l75 -135h-123l-29 52l-29 -52h-123z" />
    <glyph glyph-name="Idieresis" unicode="&#xcf;" horiz-adv-x="231" 
d="M181 588v-476h33v-112h-197v112h34v476h-34v112h197v-112h-33zM-42 755v136h136v-136h-136zM137 755v136h136v-136h-136z" />
    <glyph glyph-name="Eth" unicode="&#xd0;" horiz-adv-x="426" 
d="M401 630v-559l-71 -71h-313v112h34v183h-34v110h34v183h-34v112h313zM181 588v-183h60v-110h-60v-183h90v476h-90z" />
    <glyph glyph-name="Ntilde" unicode="&#xd1;" horiz-adv-x="454" 
d="M437 700v-112h-34v-588h-129l-114 367v-255h33v-112h-176v112h34v476h-34v112h162l115 -368v256h-33v112h176zM330 775l-147 25v-35h-100v85l40 40l147 -25v35h100v-85z" />
    <glyph glyph-name="Ograve" unicode="&#xd2;" 
d="M375 630v-559l-70 -71h-209l-71 71v559l71 70h209zM245 112v476h-90v-476h90zM81 900h124l58 -135h-124z" />
    <glyph glyph-name="Oacute" unicode="&#xd3;" 
d="M375 630v-559l-70 -71h-209l-71 71v559l71 70h209zM245 112v476h-90v-476h90zM196 900h123l-58 -135h-123z" />
    <glyph glyph-name="Ocircumflex" unicode="&#xd4;" 
d="M375 630v-559l-70 -71h-209l-71 71v559l71 70h209zM245 112v476h-90v-476h90zM122 900h155l75 -135h-123l-29 52l-29 -52h-123z" />
    <glyph glyph-name="Otilde" unicode="&#xd5;" 
d="M375 630v-559l-70 -71h-209l-71 71v559l71 70h209zM245 112v476h-90v-476h90zM303 775l-147 25v-35h-100v85l40 40l147 -25v35h100v-85z" />
    <glyph glyph-name="Odieresis" unicode="&#xd6;" 
d="M375 630v-559l-70 -71h-209l-71 71v559l71 70h209zM245 112v476h-90v-476h90zM43 755v136h136v-136h-136zM222 755v136h136v-136h-136z" />
    <glyph glyph-name="multiply" unicode="&#xd7;" horiz-adv-x="427" 
d="M27 457l79 80l107 -107l107 107l80 -80l-107 -107l107 -107l-80 -80l-107 107l-107 -107l-79 80l106 107z" />
    <glyph glyph-name="Oslash" unicode="&#xd8;" 
d="M42 -50l25 78l-42 42v560l70 70h185l16 50h62l-25 -78l42 -42v-560l-70 -70h-185l-16 -50h-62zM155 588v-283l89 283h-89zM245 112v282l-90 -282h90z" />
    <glyph glyph-name="Ugrave" unicode="&#xd9;" horiz-adv-x="447" 
d="M240 588v112h191v-112h-34v-517l-70 -71h-206l-70 71v517h-34v112h196v-112h-34v-476h95v476h-34zM105 900h124l58 -135h-124z" />
    <glyph glyph-name="Uacute" unicode="&#xda;" horiz-adv-x="447" 
d="M240 588v112h191v-112h-34v-517l-70 -71h-206l-70 71v517h-34v112h196v-112h-34v-476h95v476h-34zM220 900h123l-58 -135h-123z" />
    <glyph glyph-name="Ucircumflex" unicode="&#xdb;" horiz-adv-x="447" 
d="M240 588v112h191v-112h-34v-517l-70 -71h-206l-70 71v517h-34v112h196v-112h-34v-476h95v476h-34zM146 900h155l75 -135h-123l-29 52l-29 -52h-123z" />
    <glyph glyph-name="Udieresis" unicode="&#xdc;" horiz-adv-x="447" 
d="M240 588v112h191v-112h-34v-517l-70 -71h-206l-70 71v517h-34v112h196v-112h-34v-476h95v476h-34zM67 755v136h136v-136h-136zM246 755v136h136v-136h-136z" />
    <glyph glyph-name="Yacute" unicode="&#xdd;" horiz-adv-x="421" 
d="M310 112v-112h-198v112h34v132l-110 344h-25v112h188v-112h-30l48 -159l47 159h-29v112h175v-112h-25l-109 -340v-136h34zM206 900h123l-58 -135h-123z" />
    <glyph glyph-name="Thorn" unicode="&#xde;" horiz-adv-x="426" 
d="M181 432v-165h90v165h-90zM181 588v-44h149l71 -70v-249l-71 -70h-149v-43h33v-112h-197v112h34v476h-34v112h197v-112h-33z" />
    <glyph glyph-name="germandbls" unicode="&#xdf;" horiz-adv-x="557" 
d="M386 500v88h-203v-476h36v-112h-202v112h36v535l52 53h325l52 -53v-206l-52 -53h-53v-95h99l60 -60v-163l-70 -70h-152l-70 70v92h120v-50h42v95h-99l-60 60v163l70 70h69z" />
    <glyph glyph-name="agrave" unicode="&#xe0;" horiz-adv-x="396" 
d="M353 430v-319h26v-111h-156v36l-36 -36h-99l-70 70v160l70 70h135v89h-75v-50h-120v91l70 70h185zM148 208v-97h75v97h-75zM79 700h124l58 -135h-124z" />
    <glyph glyph-name="aacute" unicode="&#xe1;" horiz-adv-x="396" 
d="M353 430v-319h26v-111h-156v36l-36 -36h-99l-70 70v160l70 70h135v89h-75v-50h-120v91l70 70h185zM148 208v-97h75v97h-75zM194 700h123l-58 -135h-123z" />
    <glyph glyph-name="acircumflex" unicode="&#xe2;" horiz-adv-x="396" 
d="M353 430v-319h26v-111h-156v36l-36 -36h-99l-70 70v160l70 70h135v89h-75v-50h-120v91l70 70h185zM148 208v-97h75v97h-75zM120 700h155l75 -135h-123l-29 52l-29 -52h-123z" />
    <glyph glyph-name="atilde" unicode="&#xe3;" horiz-adv-x="396" 
d="M353 430v-319h26v-111h-156v36l-36 -36h-99l-70 70v160l70 70h135v89h-75v-50h-120v91l70 70h185zM148 208v-97h75v97h-75zM301 575l-147 25v-35h-100v85l40 40l147 -25v35h100v-85z" />
    <glyph glyph-name="adieresis" unicode="&#xe4;" horiz-adv-x="396" 
d="M353 430v-319h26v-111h-156v36l-36 -36h-99l-70 70v160l70 70h135v89h-75v-50h-120v91l70 70h185zM148 208v-97h75v97h-75zM41 555v136h136v-136h-136zM220 555v136h136v-136h-136z" />
    <glyph glyph-name="aring" unicode="&#xe5;" horiz-adv-x="396" 
d="M353 430v-319h26v-111h-156v36l-36 -36h-99l-70 70v160l70 70h135v89h-75v-50h-120v91l70 70h185zM148 208v-97h75v97h-75zM168 650v-54h59v54h-59zM116 577v93l30 30h104l30 -30v-93l-30 -30h-104z" />
    <glyph glyph-name="ae" unicode="&#xe6;" horiz-adv-x="579" 
d="M97 500h156l37 -38l38 38h159l70 -70v-223h-205v-95h85v50h120v-92l-70 -70h-159l-38 37l-37 -37h-166l-70 70v154l70 70h135v94h-75v-49h-120v91zM147 208v-96h75v96h-75zM352 388v-95h75v95h-75z" />
    <glyph glyph-name="ccedilla" unicode="&#xe7;" horiz-adv-x="371" 
d="M280 0h-189l-70 70v360l70 70h189l70 -70v-130h-120v89h-79v-278h79v89h120v-130zM213 -23v-35h45l30 -30v-82l-30 -30h-147v63h107v22h-41l-20 20v72h56z" />
    <glyph glyph-name="egrave" unicode="&#xe8;" horiz-adv-x="378" 
d="M21 70v360l70 70h195l70 -70v-226h-205v-93h85v50h120v-91l-70 -70h-195zM151 389v-93h75v93h-75zM69 700h124l58 -135h-124z" />
    <glyph glyph-name="eacute" unicode="&#xe9;" horiz-adv-x="378" 
d="M21 70v360l70 70h195l70 -70v-226h-205v-93h85v50h120v-91l-70 -70h-195zM151 389v-93h75v93h-75zM184 700h123l-58 -135h-123z" />
    <glyph glyph-name="ecircumflex" unicode="&#xea;" horiz-adv-x="378" 
d="M21 70v360l70 70h195l70 -70v-226h-205v-93h85v50h120v-91l-70 -70h-195zM151 389v-93h75v93h-75zM110 700h155l75 -135h-123l-29 52l-29 -52h-123z" />
    <glyph glyph-name="edieresis" unicode="&#xeb;" horiz-adv-x="378" 
d="M21 70v360l70 70h195l70 -70v-226h-205v-93h85v50h120v-91l-70 -70h-195zM151 389v-93h75v93h-75zM31 555v136h136v-136h-136zM210 555v136h136v-136h-136z" />
    <glyph glyph-name="igrave" unicode="&#xec;" horiz-adv-x="215" 
d="M16 389v111h157v-389h26v-111h-183v111h27v278h-27zM-11 700h124l58 -135h-124z" />
    <glyph glyph-name="iacute" unicode="&#xed;" horiz-adv-x="215" 
d="M16 389v111h157v-389h26v-111h-183v111h27v278h-27zM104 700h123l-58 -135h-123z" />
    <glyph glyph-name="icircumflex" unicode="&#xee;" horiz-adv-x="215" 
d="M16 389v111h157v-389h26v-111h-183v111h27v278h-27zM30 700h155l75 -135h-123l-29 52l-29 -52h-123z" />
    <glyph glyph-name="idieresis" unicode="&#xef;" horiz-adv-x="215" 
d="M16 389v111h157v-389h26v-111h-183v111h27v278h-27zM-49 555v136h136v-136h-136zM130 555v136h136v-136h-136z" />
    <glyph glyph-name="eth" unicode="&#xf0;" horiz-adv-x="378" 
d="M251 700v-54l-41 -21l146 -145v-410l-70 -70h-195l-70 70v360l70 70h93l-75 74l-88 -44v54l52 26l-89 90h152l38 -39zM151 389v-278h75v278h-75z" />
    <glyph glyph-name="ntilde" unicode="&#xf1;" horiz-adv-x="420" 
d="M248 0v389h-75v-278h26v-111h-183v111h27v278h-27v111h157v-36l36 36h99l70 -70v-319h26v-111h-156zM313 575l-147 25v-35h-100v85l40 40l147 -25v35h100v-85z" />
    <glyph glyph-name="ograve" unicode="&#xf2;" horiz-adv-x="378" 
d="M286 0h-195l-70 70v360l70 70h195l70 -70v-360zM151 389v-278h75v278h-75zM69 700h124l58 -135h-124z" />
    <glyph glyph-name="oacute" unicode="&#xf3;" horiz-adv-x="378" 
d="M286 0h-195l-70 70v360l70 70h195l70 -70v-360zM151 389v-278h75v278h-75zM184 700h123l-58 -135h-123z" />
    <glyph glyph-name="ocircumflex" unicode="&#xf4;" horiz-adv-x="378" 
d="M286 0h-195l-70 70v360l70 70h195l70 -70v-360zM151 389v-278h75v278h-75zM110 700h155l75 -135h-123l-29 52l-29 -52h-123z" />
    <glyph glyph-name="otilde" unicode="&#xf5;" horiz-adv-x="378" 
d="M286 0h-195l-70 70v360l70 70h195l70 -70v-360zM151 389v-278h75v278h-75zM291 575l-147 25v-35h-100v85l40 40l147 -25v35h100v-85z" />
    <glyph glyph-name="odieresis" unicode="&#xf6;" horiz-adv-x="378" 
d="M286 0h-195l-70 70v360l70 70h195l70 -70v-360zM151 389v-278h75v278h-75zM31 555v136h136v-136h-136zM210 555v136h136v-136h-136z" />
    <glyph glyph-name="divide" unicode="&#xf7;" horiz-adv-x="427" 
d="M392 406v-112h-357v112h357zM148 438v130h130v-130h-130zM148 132v130h130v-130h-130z" />
    <glyph glyph-name="oslash" unicode="&#xf8;" horiz-adv-x="378" 
d="M26 -50l36 80l-40 40v360l70 70h183l23 50h55l-36 -80l40 -40v-360l-70 -70h-184l-22 -50h-55zM154 112h73v160zM152 388v-160l72 160h-72z" />
    <glyph glyph-name="ugrave" unicode="&#xf9;" horiz-adv-x="420" 
d="M173 500v-389h75v278h-27v111h157v-389h26v-111h-156v36l-37 -36h-98l-70 70v319h-27v111h157zM91 700h124l58 -135h-124z" />
    <glyph glyph-name="uacute" unicode="&#xfa;" horiz-adv-x="420" 
d="M173 500v-389h75v278h-27v111h157v-389h26v-111h-156v36l-37 -36h-98l-70 70v319h-27v111h157zM206 700h123l-58 -135h-123z" />
    <glyph glyph-name="ucircumflex" unicode="&#xfb;" horiz-adv-x="420" 
d="M173 500v-389h75v278h-27v111h157v-389h26v-111h-156v36l-37 -36h-98l-70 70v319h-27v111h157zM132 700h155l75 -135h-123l-29 52l-29 -52h-123z" />
    <glyph glyph-name="udieresis" unicode="&#xfc;" horiz-adv-x="420" 
d="M173 500v-389h75v278h-27v111h157v-389h26v-111h-156v36l-37 -36h-98l-70 70v319h-27v111h157zM53 555v136h136v-136h-136zM232 555v136h136v-136h-136z" />
    <glyph glyph-name="yacute" unicode="&#xfd;" horiz-adv-x="402" 
d="M197 700h123l-58 -135h-123zM194 500v-111h-23l35 -162h4l35 162h-24v111h171v-111h-22l-139 -478h24v-111h-173v111h24l33 117l-107 361h-22v111h184z" />
    <glyph glyph-name="thorn" unicode="&#xfe;" horiz-adv-x="399" 
d="M378 430v-360l-70 -70h-102l-33 33v-122h26v-111h-182v111h26v678h-26v111h156v-233l33 33h102zM173 388v-276h75v276h-75z" />
    <glyph glyph-name="ydieresis" unicode="&#xff;" horiz-adv-x="402" 
d="M44 555v136h136v-136h-136zM223 555v136h136v-136h-136zM194 500v-111h-23l35 -162h4l35 162h-24v111h171v-111h-22l-139 -478h24v-111h-173v111h24l33 117l-107 361h-22v111h184z" />
    <glyph glyph-name="Amacron" unicode="&#x100;" horiz-adv-x="439" 
d="M268 112l-12 83h-91l-11 -83h31v-112h-175v112h29l87 588h187l86 -588h30v-112h-192v112h31zM211 537l-32 -234h63zM329 777h-220v110h220v-110z" />
    <glyph glyph-name="amacron" unicode="&#x101;" horiz-adv-x="396" 
d="M353 430v-319h26v-111h-156v36l-36 -36h-99l-70 70v160l70 70h135v89h-75v-50h-120v91l70 70h185zM148 208v-97h75v97h-75zM308 577h-220v110h220v-110z" />
    <glyph glyph-name="Abreve" unicode="&#x102;" horiz-adv-x="439" 
d="M268 112l-12 83h-91l-11 -83h31v-112h-175v112h29l87 588h187l86 -588h30v-112h-192v112h31zM211 537l-32 -234h63zM256 852v48h100v-95l-40 -40h-194l-40 40v95h100v-48h74z" />
    <glyph glyph-name="abreve" unicode="&#x103;" horiz-adv-x="396" 
d="M353 430v-319h26v-111h-156v36l-36 -36h-99l-70 70v160l70 70h135v89h-75v-50h-120v91l70 70h185zM148 208v-97h75v97h-75zM235 652v48h100v-95l-40 -40h-194l-40 40v95h100v-48h74z" />
    <glyph glyph-name="Aogonek" unicode="&#x104;" horiz-adv-x="439" 
d="M268 112l-12 83h-91l-11 -83h31v-112h-175v112h29l87 588h187l86 -588h30v-112l-100 -100v-23h120v-77h-156l-36 37v90l73 73h-93v112h31zM211 537l-32 -234h63z" />
    <glyph glyph-name="aogonek" unicode="&#x105;" horiz-adv-x="396" 
d="M353 430v-319h26v-111l-100 -100v-23h120v-77h-156l-36 37v90l73 73h-57v36l-36 -36h-99l-70 70v160l70 70h135v89h-75v-50h-120v91l70 70h185zM148 208v-97h75v97h-75z" />
    <glyph glyph-name="Cacute" unicode="&#x106;" horiz-adv-x="395" 
d="M300 0h-204l-71 71v559l71 70h204l70 -70v-142h-119v100h-96v-476h96v100h119v-141zM193 900h123l-58 -135h-123z" />
    <glyph glyph-name="cacute" unicode="&#x107;" horiz-adv-x="371" 
d="M280 0h-189l-70 70v360l70 70h189l70 -70v-130h-120v89h-79v-278h79v89h120v-130zM181 700h123l-58 -135h-123z" />
    <glyph glyph-name="Ccircumflex" unicode="&#x108;" horiz-adv-x="395" 
d="M300 0h-204l-71 71v559l71 70h204l70 -70v-142h-119v100h-96v-476h96v100h119v-141zM119 900h155l75 -135h-123l-29 52l-29 -52h-123z" />
    <glyph glyph-name="ccircumflex" unicode="&#x109;" horiz-adv-x="371" 
d="M280 0h-189l-70 70v360l70 70h189l70 -70v-130h-120v89h-79v-278h79v89h120v-130zM107 700h155l75 -135h-123l-29 52l-29 -52h-123z" />
    <glyph glyph-name="Cdotaccent" unicode="&#x10a;" horiz-adv-x="395" 
d="M300 0h-204l-71 71v559l71 70h204l70 -70v-142h-119v100h-96v-476h96v100h119v-141zM129 755v136h136v-136h-136z" />
    <glyph glyph-name="cdotaccent" unicode="&#x10b;" horiz-adv-x="371" 
d="M280 0h-189l-70 70v360l70 70h189l70 -70v-130h-120v89h-79v-278h79v89h120v-130zM117 555v136h136v-136h-136z" />
    <glyph glyph-name="Ccaron" unicode="&#x10c;" horiz-adv-x="395" 
d="M300 0h-204l-71 71v559l71 70h204l70 -70v-142h-119v100h-96v-476h96v100h119v-141zM45 900h123l29 -52l29 52h123l-75 -135h-155z" />
    <glyph glyph-name="ccaron" unicode="&#x10d;" horiz-adv-x="371" 
d="M280 0h-189l-70 70v360l70 70h189l70 -70v-130h-120v89h-79v-278h79v89h120v-130zM33 700h123l29 -52l29 52h123l-75 -135h-155z" />
    <glyph glyph-name="Dcaron" unicode="&#x10e;" horiz-adv-x="426" 
d="M401 630v-559l-71 -71h-313v112h34v476h-34v112h313zM181 588v-476h90v476h-90zM57 900h123l29 -52l29 52h123l-75 -135h-155z" />
    <glyph glyph-name="dcaron" unicode="&#x10f;" horiz-adv-x="399" 
d="M21 70v360l70 70h99l36 -36v125h-26v111h156v-589h27v-111h-157v36l-36 -36h-99zM151 389v-278h75v278h-75zM462 525h-83l20 175h83z" />
    <glyph glyph-name="Dcroat" unicode="&#x110;" horiz-adv-x="426" 
d="M401 630v-559l-71 -71h-313v112h34v183h-34v110h34v183h-34v112h313zM181 588v-183h60v-110h-60v-183h90v476h-90z" />
    <glyph glyph-name="dcroat" unicode="&#x111;" horiz-adv-x="409" 
d="M139 554v92h87v54h130v-54h50v-92h-50v-443h27v-111h-157v36l-36 -36h-99l-70 70v360l70 70h99l36 -36v90h-87zM151 389v-278h75v278h-75z" />
    <glyph glyph-name="Emacron" unicode="&#x112;" horiz-adv-x="401" 
d="M383 0h-366v112h34v476h-34v112h366v-213h-119v101h-83v-177h130v-112h-130v-187h83v101h119v-213zM310 777h-220v110h220v-110z" />
    <glyph glyph-name="emacron" unicode="&#x113;" horiz-adv-x="378" 
d="M21 70v360l70 70h195l70 -70v-226h-205v-93h85v50h120v-91l-70 -70h-195zM151 389v-93h75v93h-75zM298 577h-220v110h220v-110z" />
    <glyph glyph-name="Ebreve" unicode="&#x114;" horiz-adv-x="401" 
d="M383 0h-366v112h34v476h-34v112h366v-213h-119v101h-83v-177h130v-112h-130v-187h83v101h119v-213zM237 852v48h100v-95l-40 -40h-194l-40 40v95h100v-48h74z" />
    <glyph glyph-name="ebreve" unicode="&#x115;" horiz-adv-x="378" 
d="M21 70v360l70 70h195l70 -70v-226h-205v-93h85v50h120v-91l-70 -70h-195zM151 389v-93h75v93h-75zM225 652v48h100v-95l-40 -40h-194l-40 40v95h100v-48h74z" />
    <glyph glyph-name="Edotaccent" unicode="&#x116;" horiz-adv-x="401" 
d="M383 0h-366v112h34v476h-34v112h366v-213h-119v101h-83v-177h130v-112h-130v-187h83v101h119v-213zM132 755v136h136v-136h-136z" />
    <glyph glyph-name="edotaccent" unicode="&#x117;" horiz-adv-x="378" 
d="M21 70v360l70 70h195l70 -70v-226h-205v-93h85v50h120v-91l-70 -70h-195zM151 389v-93h75v93h-75zM120 555v136h136v-136h-136z" />
    <glyph glyph-name="Eogonek" unicode="&#x118;" horiz-adv-x="401" 
d="M383 0l-100 -100v-23h120v-77h-156l-36 37v90l73 73h-267v112h34v476h-34v112h366v-213h-119v101h-83v-177h130v-112h-130v-187h83v101h119v-213z" />
    <glyph glyph-name="eogonek" unicode="&#x119;" horiz-adv-x="378" 
d="M21 70v360l70 70h195l70 -70v-226h-205v-93h85v50h120v-91l-170 -170v-23h120v-77h-156l-36 37v90l73 73h-96zM151 389v-93h75v93h-75z" />
    <glyph glyph-name="Ecaron" unicode="&#x11a;" horiz-adv-x="401" 
d="M383 0h-366v112h34v476h-34v112h366v-213h-119v101h-83v-177h130v-112h-130v-187h83v101h119v-213zM48 900h123l29 -52l29 52h123l-75 -135h-155z" />
    <glyph glyph-name="ecaron" unicode="&#x11b;" horiz-adv-x="378" 
d="M21 70v360l70 70h195l70 -70v-226h-205v-93h85v50h120v-91l-70 -70h-195zM151 389v-93h75v93h-75zM36 700h123l29 -52l29 52h123l-75 -135h-155z" />
    <glyph glyph-name="Gcircumflex" unicode="&#x11c;" 
d="M305 0h-209l-71 71v559l71 70h209l70 -70v-143h-120v101h-100v-476h90v164h-38v112h168v-317zM122 900h155l75 -135h-123l-29 52l-29 -52h-123z" />
    <glyph glyph-name="gcircumflex" unicode="&#x11d;" horiz-adv-x="373" 
d="M21 70v360l70 70h99l36 -36v36h130v-630l-70 -70h-195l-70 70v91h120v-50h85v125l-36 -36h-99zM151 389v-278h75v278h-75zM110 700h155l75 -135h-123l-29 52l-29 -52h-123z" />
    <glyph glyph-name="Gbreve" unicode="&#x11e;" 
d="M305 0h-209l-71 71v559l71 70h209l70 -70v-143h-120v101h-100v-476h90v164h-38v112h168v-317zM237 852v48h100v-95l-40 -40h-194l-40 40v95h100v-48h74z" />
    <glyph glyph-name="gbreve" unicode="&#x11f;" horiz-adv-x="373" 
d="M21 70v360l70 70h99l36 -36v36h130v-630l-70 -70h-195l-70 70v91h120v-50h85v125l-36 -36h-99zM151 389v-278h75v278h-75zM225 652v48h100v-95l-40 -40h-194l-40 40v95h100v-48h74z" />
    <glyph glyph-name="Gdotaccent" unicode="&#x120;" 
d="M305 0h-209l-71 71v559l71 70h209l70 -70v-143h-120v101h-100v-476h90v164h-38v112h168v-317zM132 755v136h136v-136h-136z" />
    <glyph glyph-name="gdotaccent" unicode="&#x121;" horiz-adv-x="373" 
d="M21 70v360l70 70h99l36 -36v36h130v-630l-70 -70h-195l-70 70v91h120v-50h85v125l-36 -36h-99zM151 389v-278h75v278h-75zM120 555v136h136v-136h-136z" />
    <glyph glyph-name="Gcommaaccent" unicode="&#x122;" 
d="M305 0h-209l-71 71v559l71 70h209l70 -70v-143h-120v101h-100v-476h90v164h-38v112h168v-317zM242 -200h-123l20 165h123z" />
    <glyph glyph-name="gcommaaccent" unicode="&#x123;" horiz-adv-x="373" 
d="M21 70v360l70 70h99l36 -36v36h130v-630l-70 -70h-195l-70 70v91h120v-50h85v125l-36 -36h-99zM151 389v-278h75v278h-75zM147 700h123l-20 -165h-123z" />
    <glyph glyph-name="Hcircumflex" unicode="&#x124;" horiz-adv-x="454" 
d="M240 0v112h34v187h-93v-187h33v-112h-197v112h34v476h-34v112h197v-112h-33v-177h93v177h-34v112h197v-112h-33v-476h33v-112h-197zM149 900h155l75 -135h-123l-29 52l-29 -52h-123z" />
    <glyph glyph-name="hcircumflex" unicode="&#x125;" horiz-adv-x="420" 
d="M248 0v389h-75v-278h26v-111h-183v111h27v478h-27v111h157v-236l36 36h99l70 -70v-319h26v-111h-156zM29 900h155l75 -135h-123l-29 52l-29 -52h-123z" />
    <glyph glyph-name="Hbar" unicode="&#x126;" horiz-adv-x="454" 
d="M424 548v-97h-20v-339h33v-112h-197v112h34v187h-93v-187h33v-112h-197v112h34v339h-20v97h20v40h-34v112h197v-112h-33v-40h93v40h-34v112h197v-112h-33v-40h20zM181 411h93v40h-93v-40z" />
    <glyph glyph-name="hbar" unicode="&#x127;" horiz-adv-x="430" 
d="M258 0v389h-75v-278h26v-111h-183v111h27v443h-50v92h50v54h130v-54h87v-92h-87v-90l36 36h99l70 -70v-319h26v-111h-156z" />
    <glyph glyph-name="Itilde" unicode="&#x128;" horiz-adv-x="231" 
d="M181 588v-476h33v-112h-197v112h34v476h-34v112h197v-112h-33zM218 775l-147 25v-35h-100v85l40 40l147 -25v35h100v-85z" />
    <glyph glyph-name="itilde" unicode="&#x129;" horiz-adv-x="215" 
d="M16 389v111h157v-389h26v-111h-183v111h27v278h-27zM211 575l-147 25v-35h-100v85l40 40l147 -25v35h100v-85z" />
    <glyph glyph-name="Imacron" unicode="&#x12a;" horiz-adv-x="231" 
d="M181 588v-476h33v-112h-197v112h34v476h-34v112h197v-112h-33zM225 777h-220v110h220v-110z" />
    <glyph glyph-name="imacron" unicode="&#x12b;" horiz-adv-x="215" 
d="M16 389v111h157v-389h26v-111h-183v111h27v278h-27zM218 577h-220v110h220v-110z" />
    <glyph glyph-name="Ibreve" unicode="&#x12c;" horiz-adv-x="231" 
d="M181 588v-476h33v-112h-197v112h34v476h-34v112h197v-112h-33zM152 852v48h100v-95l-40 -40h-194l-40 40v95h100v-48h74z" />
    <glyph glyph-name="ibreve" unicode="&#x12d;" horiz-adv-x="215" 
d="M16 389v111h157v-389h26v-111h-183v111h27v278h-27zM145 652v48h100v-95l-40 -40h-194l-40 40v95h100v-48h74z" />
    <glyph glyph-name="Iogonek" unicode="&#x12e;" horiz-adv-x="231" 
d="M181 588v-476h33v-112l-100 -100v-23h120v-77h-156l-36 37v90l73 73h-98v112h34v476h-34v112h197v-112h-33z" />
    <glyph glyph-name="iogonek" unicode="&#x12f;" horiz-adv-x="215" 
d="M16 389v111h157v-389h26v-111l-100 -100v-23h120v-77h-156l-36 37v90l73 73h-84v111h27v278h-27zM39 564v136h137v-136h-137z" />
    <glyph glyph-name="Idotaccent" unicode="&#x130;" horiz-adv-x="231" 
d="M181 588v-476h33v-112h-197v112h34v476h-34v112h197v-112h-33zM47 755v136h136v-136h-136z" />
    <glyph glyph-name="dotlessi" unicode="&#x131;" horiz-adv-x="215" 
d="M16 389v111h157v-389h26v-111h-183v111h27v278h-27z" />
    <glyph glyph-name="IJ" unicode="&#x132;" horiz-adv-x="603" 
d="M181 588v-476h33v-112h-197v112h34v476h-34v112h197v-112h-33zM483 0h-170l-70 71v142h118v-101h62v476h-34v112h198v-112h-34v-517z" />
    <glyph glyph-name="ij" unicode="&#x133;" horiz-adv-x="416" 
d="M16 389v111h157v-389h26v-111h-183v111h27v278h-27zM199 389v111h157v-640l-60 -60h-140l-60 60v100h103v-49h27v478h-27zM39 555v136h136v-136h-136zM222 555v136h136v-136h-136z" />
    <glyph glyph-name="Jcircumflex" unicode="&#x134;" horiz-adv-x="372" 
d="M252 0h-170l-70 71v142h118v-101h62v476h-34v112h198v-112h-34v-517zM178 900h155l75 -135h-123l-29 52l-29 -52h-123z" />
    <glyph glyph-name="jcircumflex" unicode="&#x135;" horiz-adv-x="201" 
d="M16 389v111h157v-640l-60 -60h-140l-60 60v100h100v-49h30v478h-27zM30 700h155l75 -135h-123l-29 52l-29 -52h-123z" />
    <glyph glyph-name="Kcommaaccent" unicode="&#x136;" horiz-adv-x="470" 
d="M447 112v-112h-198v112h27l-56 159l-39 -77v-82h33v-112h-197v112h34v476h-34v112h197v-112h-33v-189l99 189h-29v112h185v-112h-30l-97 -176l107 -300h31zM274 -200h-123l20 165h123z" />
    <glyph glyph-name="kcommaaccent" unicode="&#x137;" horiz-adv-x="426" 
d="M409 0h-185v111h17l-41 74l-27 -32v-42h26v-111h-183v111h27v478h-27v111h157v-378l58 67h-24v111h192v-111h-22l-83 -94l95 -184h20v-111zM254 -200h-123l20 165h123z" />
    <glyph glyph-name="kgreenlandic" unicode="&#x138;" horiz-adv-x="426" 
d="M409 0h-185v111h17l-41 74l-27 -32v-42h26v-111h-183v111h27v278h-27v111h157v-178l58 67h-24v111h192v-111h-22l-83 -94l95 -184h20v-111z" />
    <glyph glyph-name="Lacute" unicode="&#x139;" horiz-adv-x="379" 
d="M181 588v-476h63v101h119v-213h-346v112h34v476h-34v112h197v-112h-33zM111 900h123l-58 -135h-123z" />
    <glyph glyph-name="lacute" unicode="&#x13a;" horiz-adv-x="215" 
d="M16 589v111h157v-589h26v-111h-183v111h27v478h-27zM103 900h123l-58 -135h-123z" />
    <glyph glyph-name="Lcommaaccent" unicode="&#x13b;" horiz-adv-x="379" 
d="M181 588v-476h63v101h119v-213h-346v112h34v476h-34v112h197v-112h-33zM232 -200h-123l20 165h123z" />
    <glyph glyph-name="lcommaaccent" unicode="&#x13c;" horiz-adv-x="215" 
d="M16 589v111h157v-589h26v-111h-183v111h27v478h-27zM149 -200h-123l20 165h123z" />
    <glyph glyph-name="Lcaron" unicode="&#x13d;" horiz-adv-x="379" 
d="M181 588v-476h63v101h119v-213h-346v112h34v476h-34v112h197v-112h-33zM331 525h-83l20 175h83z" />
    <glyph glyph-name="lcaron" unicode="&#x13e;" horiz-adv-x="215" 
d="M16 589v111h157v-589h26v-111h-183v111h27v478h-27zM279 525h-83l20 175h83z" />
    <glyph glyph-name="Ldot" unicode="&#x13f;" horiz-adv-x="379" 
d="M181 588v-476h63v101h119v-213h-346v112h34v476h-34v112h197v-112h-33zM241 273v130h130v-130h-130z" />
    <glyph glyph-name="ldot" unicode="&#x140;" horiz-adv-x="345" 
d="M16 589v111h157v-589h26v-111h-183v111h27v478h-27zM213 230v130h130v-130h-130z" />
    <glyph glyph-name="Lslash" unicode="&#x141;" horiz-adv-x="399" 
d="M201 588v-166l130 88v-110l-130 -88v-200h63v101h119v-213h-346v112h34v113l-60 -40v110l60 40v253h-34v112h197v-112h-33z" />
    <glyph glyph-name="lslash" unicode="&#x142;" horiz-adv-x="261" 
d="M36 589v111h157v-245l62 55v-102l-62 -55v-242h26v-111h-183v111h27v128l-52 -45v102l52 45v248h-27z" />
    <glyph glyph-name="Nacute" unicode="&#x143;" horiz-adv-x="454" 
d="M437 700v-112h-34v-588h-129l-114 367v-255h33v-112h-176v112h34v476h-34v112h162l115 -368v256h-33v112h176zM223 900h123l-58 -135h-123z" />
    <glyph glyph-name="nacute" unicode="&#x144;" horiz-adv-x="420" 
d="M248 0v389h-75v-278h26v-111h-183v111h27v278h-27v111h157v-36l36 36h99l70 -70v-319h26v-111h-156zM206 700h123l-58 -135h-123z" />
    <glyph glyph-name="Ncommaaccent" unicode="&#x145;" horiz-adv-x="454" 
d="M437 700v-112h-34v-588h-129l-114 367v-255h33v-112h-176v112h34v476h-34v112h162l115 -368v256h-33v112h176zM269 -200h-123l20 165h123z" />
    <glyph glyph-name="ncommaaccent" unicode="&#x146;" horiz-adv-x="420" 
d="M248 0v389h-75v-278h26v-111h-183v111h27v278h-27v111h157v-36l36 36h99l70 -70v-319h26v-111h-156zM252 -200h-123l20 165h123z" />
    <glyph glyph-name="Ncaron" unicode="&#x147;" horiz-adv-x="454" 
d="M437 700v-112h-34v-588h-129l-114 367v-255h33v-112h-176v112h34v476h-34v112h162l115 -368v256h-33v112h176zM75 900h123l29 -52l29 52h123l-75 -135h-155z" />
    <glyph glyph-name="ncaron" unicode="&#x148;" horiz-adv-x="420" 
d="M248 0v389h-75v-278h26v-111h-183v111h27v278h-27v111h157v-36l36 36h99l70 -70v-319h26v-111h-156zM58 700h123l29 -52l29 52h123l-75 -135h-155z" />
    <glyph glyph-name="Eng" unicode="&#x14a;" horiz-adv-x="454" 
d="M243 -89h30v92l-113 364v-255h33v-112h-176v112h34v476h-34v112h162l115 -368v256h-33v112h176v-112h-34v-728l-60 -60h-140l-60 60v100h100v-49z" />
    <glyph glyph-name="eng" unicode="&#x14b;" 
d="M378 -140l-60 -60h-140l-60 60v100h100v-49h30v478h-75v-278h26v-111h-183v111h27v278h-27v111h157v-36l36 36h99l70 -70v-570z" />
    <glyph glyph-name="Omacron" unicode="&#x14c;" 
d="M375 630v-559l-70 -71h-209l-71 71v559l71 70h209zM245 112v476h-90v-476h90zM310 777h-220v110h220v-110z" />
    <glyph glyph-name="omacron" unicode="&#x14d;" horiz-adv-x="378" 
d="M286 0h-195l-70 70v360l70 70h195l70 -70v-360zM151 389v-278h75v278h-75zM298 577h-220v110h220v-110z" />
    <glyph glyph-name="Obreve" unicode="&#x14e;" 
d="M375 630v-559l-70 -71h-209l-71 71v559l71 70h209zM245 112v476h-90v-476h90zM237 852v48h100v-95l-40 -40h-194l-40 40v95h100v-48h74z" />
    <glyph glyph-name="obreve" unicode="&#x14f;" horiz-adv-x="378" 
d="M286 0h-195l-70 70v360l70 70h195l70 -70v-360zM151 389v-278h75v278h-75zM225 652v48h100v-95l-40 -40h-194l-40 40v95h100v-48h74z" />
    <glyph glyph-name="Ohungarumlaut" unicode="&#x150;" 
d="M375 630v-559l-70 -71h-209l-71 71v559l71 70h209zM245 112v476h-90v-476h90zM123 900h110l-58 -135h-110zM266 900h110l-58 -135h-110z" />
    <glyph glyph-name="ohungarumlaut" unicode="&#x151;" horiz-adv-x="378" 
d="M286 0h-195l-70 70v360l70 70h195l70 -70v-360zM151 389v-278h75v278h-75zM121 700h110l-58 -135h-110zM264 700h110l-58 -135h-110z" />
    <glyph glyph-name="OE" unicode="&#x152;" horiz-adv-x="596" 
d="M577 0h-482l-70 70v560l70 70h482v-212h-118v100h-84v-177h130v-112h-130v-187h84v100h118v-212zM245 112v476h-90v-476h90z" />
    <glyph glyph-name="oe" unicode="&#x153;" horiz-adv-x="584" 
d="M257 0h-165l-70 70v360l70 70h165l38 -38l38 38h159l70 -70v-223h-205v-95h85v50h120v-92l-70 -70h-159l-38 38zM152 388v-276h75v276h-75zM357 388v-95h75v95h-75z" />
    <glyph glyph-name="Racute" unicode="&#x154;" horiz-adv-x="427" 
d="M181 588v-225h90v225h-90zM209 900h123l-58 -135h-123zM181 251v-139h33v-112h-197v112h34v476h-34v112h313l71 -70v-309l-53 -52l35 -157h27v-112h-130l-53 251h-46z" />
    <glyph glyph-name="racute" unicode="&#x155;" horiz-adv-x="349" 
d="M228 339v50h-55v-278h26v-111h-183v111h27v278h-27v111h157v-36l36 36h69l55 -55v-106h-105zM170 700h123l-58 -135h-123z" />
    <glyph glyph-name="Rcommaaccent" unicode="&#x156;" horiz-adv-x="427" 
d="M181 588v-225h90v225h-90zM255 -200h-123l20 165h123zM181 251v-139h33v-112h-197v112h34v476h-34v112h313l71 -70v-309l-53 -52l35 -157h27v-112h-130l-53 251h-46z" />
    <glyph glyph-name="rcommaaccent" unicode="&#x157;" horiz-adv-x="349" 
d="M228 339v50h-55v-278h26v-111h-183v111h27v278h-27v111h157v-36l36 36h69l55 -55v-106h-105zM149 -200h-123l20 165h123z" />
    <glyph glyph-name="Rcaron" unicode="&#x158;" horiz-adv-x="427" 
d="M181 588v-225h90v225h-90zM61 900h123l29 -52l29 52h123l-75 -135h-155zM181 251v-139h33v-112h-197v112h34v476h-34v112h313l71 -70v-309l-53 -52l35 -157h27v-112h-130l-53 251h-46z" />
    <glyph glyph-name="rcaron" unicode="&#x159;" horiz-adv-x="349" 
d="M228 339v50h-55v-278h26v-111h-183v111h27v278h-27v111h157v-36l36 36h69l55 -55v-106h-105zM22 700h123l29 -52l29 52h123l-75 -135h-155z" />
    <glyph glyph-name="Sacute" unicode="&#x15a;" 
d="M247 112v187h-145l-70 71v260l70 70h196l71 -70v-143h-122v101h-85v-177h145l70 -70v-270l-70 -71h-213l-71 71v142h122v-101h102zM196 900h123l-58 -135h-123z" />
    <glyph glyph-name="sacute" unicode="&#x15b;" horiz-adv-x="371" 
d="M353 234v-164l-70 -70h-195l-70 70v91h120v-50h85v93h-134l-63 62v164l70 70h179l70 -70v-91h-120v50h-69v-93h135zM181 700h123l-58 -135h-123z" />
    <glyph glyph-name="Scircumflex" unicode="&#x15c;" 
d="M247 112v187h-145l-70 71v260l70 70h196l71 -70v-143h-122v101h-85v-177h145l70 -70v-270l-70 -71h-213l-71 71v142h122v-101h102zM122 900h155l75 -135h-123l-29 52l-29 -52h-123z" />
    <glyph glyph-name="scircumflex" unicode="&#x15d;" horiz-adv-x="371" 
d="M353 234v-164l-70 -70h-195l-70 70v91h120v-50h85v93h-134l-63 62v164l70 70h179l70 -70v-91h-120v50h-69v-93h135zM107 700h155l75 -135h-123l-29 52l-29 -52h-123z" />
    <glyph glyph-name="Scedilla" unicode="&#x15e;" 
d="M247 112v187h-145l-70 71v260l70 70h196l71 -70v-143h-122v101h-85v-177h145l70 -70v-270l-70 -71h-213l-71 71v142h122v-101h102zM228 -23v-35h45l30 -30v-82l-30 -30h-147v63h107v22h-41l-20 20v72h56z" />
    <glyph glyph-name="scedilla" unicode="&#x15f;" horiz-adv-x="371" 
d="M353 234v-164l-70 -70h-195l-70 70v91h120v-50h85v93h-134l-63 62v164l70 70h179l70 -70v-91h-120v50h-69v-93h135zM213 -23v-35h45l30 -30v-82l-30 -30h-147v63h107v22h-41l-20 20v72h56z" />
    <glyph glyph-name="Scaron" unicode="&#x160;" 
d="M247 112v187h-145l-70 71v260l70 70h196l71 -70v-143h-122v101h-85v-177h145l70 -70v-270l-70 -71h-213l-71 71v142h122v-101h102zM48 900h123l29 -52l29 52h123l-75 -135h-155z" />
    <glyph glyph-name="scaron" unicode="&#x161;" horiz-adv-x="371" 
d="M353 234v-164l-70 -70h-195l-70 70v91h120v-50h85v93h-134l-63 62v164l70 70h179l70 -70v-91h-120v50h-69v-93h135zM33 700h123l29 -52l29 52h123l-75 -135h-155z" />
    <glyph glyph-name="Tcommaaccent" unicode="&#x21a;" horiz-adv-x="458" 
d="M13 487v213h432v-213h-109v101h-42v-476h33v-112h-196v112h33v476h-42v-101h-109zM271 -200h-123l20 165h123z" />
    <glyph glyph-name="Tcommaaccent" unicode="&#x162;" horiz-adv-x="458" 
d="M13 487v213h432v-213h-109v101h-42v-476h33v-112h-196v112h33v476h-42v-101h-109zM271 -200h-123l20 165h123z" />
    <glyph glyph-name="tcommaaccent" unicode="&#x21b;" horiz-adv-x="316" 
d="M16 389v111h50v100h130v-100h105v-111h-105v-278h30v39h76v-90l-60 -60h-116l-60 60v329h-50zM221 -200h-123l20 165h123z" />
    <glyph glyph-name="tcommaaccent" unicode="&#x163;" horiz-adv-x="316" 
d="M16 389v111h50v100h130v-100h105v-111h-105v-278h30v39h76v-90l-60 -60h-116l-60 60v329h-50zM221 -200h-123l20 165h123z" />
    <glyph glyph-name="Tcaron" unicode="&#x164;" horiz-adv-x="458" 
d="M13 487v213h432v-213h-109v101h-42v-476h33v-112h-196v112h33v476h-42v-101h-109zM77 900h123l29 -52l29 52h123l-75 -135h-155z" />
    <glyph glyph-name="tcaron" unicode="&#x165;" horiz-adv-x="316" 
d="M16 389v111h50v100h130v-100h105v-111h-105v-278h30v39h76v-90l-60 -60h-116l-60 60v329h-50zM302 525h-83l20 175h83z" />
    <glyph glyph-name="Tbar" unicode="&#x166;" horiz-adv-x="458" 
d="M13 487v213h432v-213h-109v101h-42v-205h78v-112h-78v-159h33v-112h-196v112h33v159h-78v112h78v205h-42v-101h-109z" />
    <glyph glyph-name="tbar" unicode="&#x167;" horiz-adv-x="316" 
d="M281 296v-92h-85v-93h30v39h76v-90l-60 -60h-116l-60 60v144h-50v92h50v93h-50v111h50v100h130v-100h105v-111h-105v-93h85z" />
    <glyph glyph-name="Utilde" unicode="&#x168;" horiz-adv-x="447" 
d="M240 588v112h191v-112h-34v-517l-70 -71h-206l-70 71v517h-34v112h196v-112h-34v-476h95v476h-34zM327 775l-147 25v-35h-100v85l40 40l147 -25v35h100v-85z" />
    <glyph glyph-name="utilde" unicode="&#x169;" horiz-adv-x="420" 
d="M173 500v-389h75v278h-27v111h157v-389h26v-111h-156v36l-37 -36h-98l-70 70v319h-27v111h157zM313 575l-147 25v-35h-100v85l40 40l147 -25v35h100v-85z" />
    <glyph glyph-name="Umacron" unicode="&#x16a;" horiz-adv-x="447" 
d="M240 588v112h191v-112h-34v-517l-70 -71h-206l-70 71v517h-34v112h196v-112h-34v-476h95v476h-34zM334 777h-220v110h220v-110z" />
    <glyph glyph-name="umacron" unicode="&#x16b;" horiz-adv-x="420" 
d="M173 500v-389h75v278h-27v111h157v-389h26v-111h-156v36l-37 -36h-98l-70 70v319h-27v111h157zM320 577h-220v110h220v-110z" />
    <glyph glyph-name="Ubreve" unicode="&#x16c;" horiz-adv-x="447" 
d="M240 588v112h191v-112h-34v-517l-70 -71h-206l-70 71v517h-34v112h196v-112h-34v-476h95v476h-34zM261 852v48h100v-95l-40 -40h-194l-40 40v95h100v-48h74z" />
    <glyph glyph-name="ubreve" unicode="&#x16d;" horiz-adv-x="420" 
d="M173 500v-389h75v278h-27v111h157v-389h26v-111h-156v36l-37 -36h-98l-70 70v319h-27v111h157zM247 652v48h100v-95l-40 -40h-194l-40 40v95h100v-48h74z" />
    <glyph glyph-name="Uring" unicode="&#x16e;" horiz-adv-x="447" 
d="M240 588v112h191v-112h-34v-517l-70 -71h-206l-70 71v517h-34v112h196v-112h-34v-476h95v476h-34zM194 850v-54h59v54h-59zM142 777v93l30 30h104l30 -30v-93l-30 -30h-104z" />
    <glyph glyph-name="uring" unicode="&#x16f;" horiz-adv-x="420" 
d="M173 500v-389h75v278h-27v111h157v-389h26v-111h-156v36l-37 -36h-98l-70 70v319h-27v111h157zM180 650v-54h59v54h-59zM128 577v93l30 30h104l30 -30v-93l-30 -30h-104z" />
    <glyph glyph-name="Uhungarumlaut" unicode="&#x170;" horiz-adv-x="447" 
d="M240 588v112h191v-112h-34v-517l-70 -71h-206l-70 71v517h-34v112h196v-112h-34v-476h95v476h-34zM147 900h110l-58 -135h-110zM290 900h110l-58 -135h-110z" />
    <glyph glyph-name="uhungarumlaut" unicode="&#x171;" horiz-adv-x="420" 
d="M173 500v-389h75v278h-27v111h157v-389h26v-111h-156v36l-37 -36h-98l-70 70v319h-27v111h157zM133 700h110l-58 -135h-110zM276 700h110l-58 -135h-110z" />
    <glyph glyph-name="Uogonek" unicode="&#x172;" horiz-adv-x="447" 
d="M240 588v112h191v-112h-34v-517l-70 -71l-100 -100v-23h120v-77h-156l-36 37v90l73 73h-107l-70 71v517h-34v112h196v-112h-34v-476h95v476h-34z" />
    <glyph glyph-name="uogonek" unicode="&#x173;" horiz-adv-x="420" 
d="M173 500v-389h75v278h-27v111h157v-389h26v-111l-100 -100v-23h120v-77h-156l-36 37v90l73 73h-57v36l-37 -36h-98l-70 70v319h-27v111h157z" />
    <glyph glyph-name="Wcircumflex" unicode="&#x174;" horiz-adv-x="652" 
d="M248 900h155l75 -135h-123l-29 52l-29 -52h-123zM192 700v-112h-27l34 -362h4l62 414h139l62 -414h4l34 362h-27v112h165v-112h-29l-62 -588h-162l-58 395h-4l-57 -395h-169l-63 588h-28v112h182z" />
    <glyph glyph-name="wcircumflex" unicode="&#x175;" horiz-adv-x="586" 
d="M215 700h155l75 -135h-123l-29 52l-29 -52h-123zM339 0l-44 285h-4l-43 -285h-175l-43 389h-20v111h166v-111h-25l20 -238h4l53 349h139l53 -349h4l20 238h-25v111h157v-111h-20l-43 -389h-174z" />
    <glyph glyph-name="Ycircumflex" unicode="&#x176;" horiz-adv-x="421" 
d="M310 112v-112h-198v112h34v132l-110 344h-25v112h188v-112h-30l48 -159l47 159h-29v112h175v-112h-25l-109 -340v-136h34zM132 900h155l75 -135h-123l-29 52l-29 -52h-123z" />
    <glyph glyph-name="ycircumflex" unicode="&#x177;" horiz-adv-x="402" 
d="M123 700h155l75 -135h-123l-29 52l-29 -52h-123zM194 500v-111h-23l35 -162h4l35 162h-24v111h171v-111h-22l-139 -478h24v-111h-173v111h24l33 117l-107 361h-22v111h184z" />
    <glyph glyph-name="Ydieresis" unicode="&#x178;" horiz-adv-x="421" 
d="M310 112v-112h-198v112h34v132l-110 344h-25v112h188v-112h-30l48 -159l47 159h-29v112h175v-112h-25l-109 -340v-136h34zM53 755v136h136v-136h-136zM232 755v136h136v-136h-136z" />
    <glyph glyph-name="Zacute" unicode="&#x179;" horiz-adv-x="385" 
d="M368 0h-351v122l218 466h-98v-101h-112v213h338v-122l-218 -466h111v101h112v-213zM188 900h123l-58 -135h-123z" />
    <glyph glyph-name="zacute" unicode="&#x17a;" horiz-adv-x="344" 
d="M18 339v161h308v-104l-171 -285h74v50h105v-161h-324v104l169 285h-56v-50h-105zM168 700h123l-58 -135h-123z" />
    <glyph glyph-name="Zdotaccent" unicode="&#x17b;" horiz-adv-x="385" 
d="M368 0h-351v122l218 466h-98v-101h-112v213h338v-122l-218 -466h111v101h112v-213zM124 755v136h136v-136h-136z" />
    <glyph glyph-name="zdotaccent" unicode="&#x17c;" horiz-adv-x="344" 
d="M18 339v161h308v-104l-171 -285h74v50h105v-161h-324v104l169 285h-56v-50h-105zM104 555v136h136v-136h-136z" />
    <glyph glyph-name="Zcaron" unicode="&#x17d;" horiz-adv-x="385" 
d="M368 0h-351v122l218 466h-98v-101h-112v213h338v-122l-218 -466h111v101h112v-213zM40 900h123l29 -52l29 52h123l-75 -135h-155z" />
    <glyph glyph-name="zcaron" unicode="&#x17e;" horiz-adv-x="344" 
d="M18 339v161h308v-104l-171 -285h74v50h105v-161h-324v104l169 285h-56v-50h-105zM20 700h123l29 -52l29 52h123l-75 -135h-155z" />
    <glyph glyph-name="Epsilon" unicode="&#x395;" horiz-adv-x="401" 
d="M383 0h-366v112h34v476h-34v112h366v-213h-119v101h-83v-177h130v-112h-130v-187h83v101h119v-213z" />
    <glyph glyph-name="Epsilon" unicode="&#x190;" horiz-adv-x="401" 
d="M383 0h-366v112h34v476h-34v112h366v-213h-119v101h-83v-177h130v-112h-130v-187h83v101h119v-213z" />
    <glyph glyph-name="florin" unicode="&#x192;" horiz-adv-x="427" 
d="M322 395v-92h-112v-372l-70 -70h-108v112h48v330h-48v92h48v235l70 70h175l70 -70v-110h-120v68h-65v-193h112z" />
    <glyph glyph-name="Gamma" unicode="&#x393;" horiz-adv-x="379" 
d="M181 588v-476h33v-112h-197v112h34v476h-34v112h346v-213h-119v101h-63z" />
    <glyph glyph-name="Gamma" unicode="&#x194;" horiz-adv-x="379" 
d="M181 588v-476h33v-112h-197v112h34v476h-34v112h346v-213h-119v101h-63z" />
    <glyph glyph-name="Iota" unicode="&#x399;" horiz-adv-x="231" 
d="M181 588v-476h33v-112h-197v112h34v476h-34v112h197v-112h-33z" />
    <glyph glyph-name="Iota" unicode="&#x196;" horiz-adv-x="231" 
d="M181 588v-476h33v-112h-197v112h34v476h-34v112h197v-112h-33z" />
    <glyph glyph-name="Upsilon" unicode="&#x3a5;" horiz-adv-x="421" 
d="M310 112v-112h-198v112h34v132l-110 344h-25v112h188v-112h-30l48 -159l47 159h-29v112h175v-112h-25l-109 -340v-136h34z" />
    <glyph glyph-name="Upsilon" unicode="&#x1b1;" horiz-adv-x="421" 
d="M310 112v-112h-198v112h34v132l-110 344h-25v112h188v-112h-30l48 -159l47 159h-29v112h175v-112h-25l-109 -340v-136h34z" />
    <glyph glyph-name="Scommaaccent" unicode="&#x218;" 
d="M247 112v187h-145l-70 71v260l70 70h196l71 -70v-143h-122v101h-85v-177h145l70 -70v-270l-70 -71h-213l-71 71v142h122v-101h102zM242 -200h-123l20 165h123z" />
    <glyph glyph-name="scommaaccent" unicode="&#x219;" horiz-adv-x="371" 
d="M353 234v-164l-70 -70h-195l-70 70v91h120v-50h85v93h-134l-63 62v164l70 70h179l70 -70v-91h-120v50h-69v-93h135zM227 -200h-123l20 165h123z" />
    <glyph glyph-name="dotlessj" unicode="&#x237;" horiz-adv-x="201" 
d="M16 389v111h157v-640l-60 -60h-140l-60 60v100h100v-49h30v478h-27z" />
    <glyph glyph-name="circumflex" unicode="&#x2c6;" horiz-adv-x="402" 
d="M123 700h155l75 -135h-123l-29 52l-29 -52h-123z" />
    <glyph glyph-name="caron" unicode="&#x2c7;" horiz-adv-x="402" 
d="M49 700h123l29 -52l29 52h123l-75 -135h-155z" />
    <glyph glyph-name="breve" unicode="&#x2d8;" horiz-adv-x="402" 
d="M238 652v48h100v-95l-40 -40h-194l-40 40v95h100v-48h74z" />
    <glyph glyph-name="dotaccent" unicode="&#x2d9;" horiz-adv-x="402" 
d="M133 555v136h136v-136h-136z" />
    <glyph glyph-name="ring" unicode="&#x2da;" horiz-adv-x="402" 
d="M171 650v-54h59v54h-59zM119 577v93l30 30h104l30 -30v-93l-30 -30h-104z" />
    <glyph glyph-name="ogonek" unicode="&#x2db;" horiz-adv-x="404" 
d="M369 0l-100 -100v-23h120v-77h-156l-36 37v90l103 103z" />
    <glyph glyph-name="tilde" unicode="&#x2dc;" horiz-adv-x="402" 
d="M304 575l-147 25v-35h-100v85l40 40l147 -25v35h100v-85z" />
    <glyph glyph-name="hungarumlaut" unicode="&#x2dd;" horiz-adv-x="402" 
d="M132 700h110l-58 -135h-110zM275 700h110l-58 -135h-110z" />
    <glyph glyph-name="Alpha" unicode="&#x391;" horiz-adv-x="439" 
d="M268 112l-12 83h-91l-11 -83h31v-112h-175v112h29l87 588h187l86 -588h30v-112h-192v112h31zM211 537l-32 -234h63z" />
    <glyph glyph-name="Beta" unicode="&#x392;" horiz-adv-x="426" 
d="M401 315v-244l-71 -71h-313v112h34v476h-34v112h303l70 -70v-235l-35 -35zM181 299v-187h90v187h-90zM181 588v-177h80v177h-80z" />
    <glyph glyph-name="Delta" unicode="&#x394;" horiz-adv-x="439" 
d="M419 0h-399v82l106 618h187l106 -618v-82zM211 537l-73 -425h146z" />
    <glyph glyph-name="Zeta" unicode="&#x396;" horiz-adv-x="385" 
d="M368 0h-351v122l218 466h-98v-101h-112v213h338v-122l-218 -466h111v101h112v-213z" />
    <glyph glyph-name="Eta" unicode="&#x397;" horiz-adv-x="454" 
d="M240 0v112h34v187h-93v-187h33v-112h-197v112h34v476h-34v112h197v-112h-33v-177h93v177h-34v112h197v-112h-33v-476h33v-112h-197z" />
    <glyph glyph-name="Theta" unicode="&#x398;" 
d="M375 630v-559l-70 -71h-209l-71 71v559l71 70h209zM245 112v187h-90v-187h90zM155 588v-177h90v177h-90z" />
    <glyph glyph-name="Kappa" unicode="&#x39a;" horiz-adv-x="470" 
d="M447 112v-112h-198v112h27l-56 159l-39 -77v-82h33v-112h-197v112h34v476h-34v112h197v-112h-33v-189l99 189h-29v112h185v-112h-30l-97 -176l107 -300h31z" />
    <glyph glyph-name="Lambda" unicode="&#x39b;" horiz-adv-x="439" 
d="M211 537l-56 -425h30v-112h-175v112h30l86 588h187l87 -588h29v-112h-192v112h31z" />
    <glyph glyph-name="Mu" unicode="&#x39c;" horiz-adv-x="568" 
d="M234 130l-71 263v-281h33v-112h-179v112h34v476h-34v112h174l91 -321l91 321h178v-112h-34v-476h34v-112h-197v112h33v290l-73 -272h-80z" />
    <glyph glyph-name="Nu" unicode="&#x39d;" horiz-adv-x="454" 
d="M437 700v-112h-34v-588h-129l-114 367v-255h33v-112h-176v112h34v476h-34v112h162l115 -368v256h-33v112h176z" />
    <glyph glyph-name="Xi" unicode="&#x39e;" horiz-adv-x="401" 
d="M136 213v-101h128v101h119v-213h-366v213h119zM264 588h-128v-101h-119v213h366v-213h-119v101zM349 299h-298v112h298v-112z" />
    <glyph glyph-name="Omicron" unicode="&#x39f;" 
d="M375 630v-559l-70 -71h-209l-71 71v559l71 70h209zM245 112v476h-90v-476h90z" />
    <glyph glyph-name="Pi" unicode="&#x3a0;" horiz-adv-x="454" 
d="M274 588h-93v-476h33v-112h-197v112h34v476h-34v112h420v-112h-33v-476h33v-112h-197v112h34v476z" />
    <glyph glyph-name="Rho" unicode="&#x3a1;" horiz-adv-x="426" 
d="M181 251v-139h33v-112h-197v112h34v476h-34v112h313l71 -70v-309l-71 -70h-149zM181 588v-225h90v225h-90z" />
    <glyph glyph-name="Sigma" unicode="&#x3a3;" horiz-adv-x="385" 
d="M283 389v-68l-138 -209h111v101h112v-213h-351v139l143 217l-138 206v138h346v-213h-112v101h-106z" />
    <glyph glyph-name="Tau" unicode="&#x3a4;" horiz-adv-x="458" 
d="M13 487v213h432v-213h-109v101h-42v-476h33v-112h-196v112h33v476h-42v-101h-109z" />
    <glyph glyph-name="Phi" unicode="&#x3a6;" horiz-adv-x="540" 
d="M335 432v-165h50v165h-50zM172 0v112h33v43h-109l-71 70v249l71 70h109v44h-33v112h196v-112h-33v-44h109l71 -70v-249l-71 -70h-109v-43h33v-112h-196zM205 267v165h-50v-165h50z" />
    <glyph glyph-name="Chi" unicode="&#x3a7;" horiz-adv-x="445" 
d="M249 588v112h179v-112h-28l-108 -230l112 -246h27v-112h-196v112h28l-50 118l-51 -118h28v-112h-180v112h28l114 242l-108 234h-27v112h196v-112h-29l46 -106l46 106h-27z" />
    <glyph glyph-name="Psi" unicode="&#x3a8;" horiz-adv-x="566" 
d="M528 588v-267l-71 -70h-109v-139h33v-112h-196v112h33v139h-109l-71 70v267h-27v112h86l71 -70v-267h50v225h-33v112h196v-112h-33v-225h50v267l71 70h86v-112h-27z" />
    <glyph glyph-name="Omega" unicode="&#x2126;" horiz-adv-x="454" 
d="M17 112h63l-46 187v331l71 70h245l70 -70v-331l-47 -187h64v-112h-197v112l50 204v272h-126v-272l50 -204v-112h-197v112z" />
    <glyph glyph-name="Omega" unicode="&#x3a9;" horiz-adv-x="454" 
d="M17 112h63l-46 187v331l71 70h245l70 -70v-331l-47 -187h64v-112h-197v112l50 204v272h-126v-272l50 -204v-112h-197v112z" />
    <glyph glyph-name="Iocyrillic" unicode="&#x401;" horiz-adv-x="401" 
d="M383 0h-366v112h34v476h-34v112h366v-212h-119v100h-83v-177h130v-112h-130v-187h83v101h119v-213zM43 756v136h136v-136h-136zM222 756v136h136v-136h-136z" />
    <glyph glyph-name="Djecyrillic" unicode="&#x402;" horiz-adv-x="544" 
d="M294 382l30 30h125l70 -70v-272l-70 -70h-93v112h33v187h-95v-187h34v-112h-197v112h33v476h-47v-100h-103v212h431v-212h-104v100h-47v-206z" />
    <glyph glyph-name="Gjecyrillic" unicode="&#x403;" horiz-adv-x="380" 
d="M192 900h124l-58 -135h-124zM181 588v-476h33v-112h-197v112h34v476h-34v112h346v-212h-119v100h-63z" />
    <glyph glyph-name="Ecyrillic" unicode="&#x404;" horiz-adv-x="403" 
d="M302 0h-198l-71 71v558l71 71h269v-212h-120v100h-90v-176h153v-113h-153v-186h90v99h120v-141z" />
    <glyph glyph-name="Dzecyrillic" unicode="&#x405;" 
d="M247 112v187h-145l-70 71v260l70 70h196l71 -70v-142h-122v100h-85v-177h145l70 -70v-270l-70 -71h-213l-70 71v142h122v-101h101z" />
    <glyph glyph-name="Icyrillic" unicode="&#x406;" horiz-adv-x="231" 
d="M181 588v-476h33v-112h-197v112h34v476h-34v112h197v-112h-33z" />
    <glyph glyph-name="Yicyrillic" unicode="&#x407;" horiz-adv-x="231" 
d="M181 588v-476h33v-112h-197v112h34v476h-34v112h197v-112h-33zM-42 756v136h136v-136h-136zM138 756v136h136v-136h-136z" />
    <glyph glyph-name="Jecyrillic" unicode="&#x408;" horiz-adv-x="373" 
d="M252 0h-169l-71 71v142h119v-101h61v476h-33v112h197v-112h-34v-517z" />
    <glyph glyph-name="Ljecyrillic" unicode="&#x409;" horiz-adv-x="635" 
d="M209 553l-56 -441h30v-112h-173v112h28l87 588h189l43 -289h183l70 -71v-270l-70 -70h-301v112h31l-56 441h-5zM401 112h79v187h-106z" />
    <glyph glyph-name="Njecyrillic" unicode="&#x40a;" horiz-adv-x="649" 
d="M404 588v-177h150l70 -71v-270l-70 -70h-314v112h34v187h-93v-187h33v-112h-197v112h34v476h-34v112h197v-112h-33v-177h93v177h-34v112h198v-112h-34zM404 112h90v187h-90v-187z" />
    <glyph glyph-name="Tshecyrillic" unicode="&#x40b;" horiz-adv-x="569" 
d="M519 112h34v-112h-197v112h33v187h-95v-187h34v-112h-197v112h33v476h-47v-100h-103v212h431v-212h-104v100h-47v-176h155l70 -70v-230z" />
    <glyph glyph-name="Kjecyrillic" unicode="&#x40c;" horiz-adv-x="462" 
d="M233 900h124l-58 -135h-124zM447 112v-112h-198v112h28l-58 165l-38 -73v-92h33v-112h-197v112h34v476h-34v112h197v-112h-33v-189l99 189h-28v112h185v-112h-30l-97 -175l107 -301h30z" />
    <glyph glyph-name="Ushortcyrillic" unicode="&#x40e;" horiz-adv-x="461" 
d="M170 588l46 -166l45 166h-25v112h174v-112h-29l-106 -344l-33 -132h29v-112h-185v112h32l34 132l-116 344h-25v112h188v-112h-29zM247 852v48h100v-95l-40 -40h-194l-40 40v95h100v-48h74z" />
    <glyph glyph-name="Dzhecyrillic" unicode="&#x40f;" horiz-adv-x="454" 
d="M284 -100h-112v100h-155v112h33v476h-33v112h197v-112h-34v-476h94v476h-34v112h198v-112h-34v-476h34v-112h-154v-100z" />
    <glyph glyph-name="Acyrillic" unicode="&#x410;" horiz-adv-x="439" 
d="M268 112l-11 83h-91l-11 -83h31v-112h-176v112h30l86 588h187l87 -588h29v-112h-191v112h30zM211 538l-31 -234h63z" />
    <glyph glyph-name="Becyrillic" unicode="&#x411;" horiz-adv-x="426" 
d="M181 299v-187h90v187h-90zM51 588h-34v112h346v-212h-119v100h-63v-177h149l71 -71v-270l-71 -70h-313v112h34v476z" />
    <glyph glyph-name="Vecyrillic" unicode="&#x412;" horiz-adv-x="426" 
d="M401 315v-244l-71 -71h-313v112h34v476h-34v112h303l70 -70v-235l-34 -34zM181 299v-187h90v187h-90zM181 588v-177h80v177h-80z" />
    <glyph glyph-name="Gecyrillic" unicode="&#x413;" horiz-adv-x="380" 
d="M181 588v-476h33v-112h-197v112h34v476h-34v112h346v-212h-119v100h-63z" />
    <glyph glyph-name="Decyrillic" unicode="&#x414;" horiz-adv-x="439" 
d="M122 -100h-112v212h28l87 588h189l87 -588h28v-212h-112v100h-195v-100zM209 553l-56 -441h117l-56 441h-5z" />
    <glyph glyph-name="Iecyrillic" unicode="&#x415;" horiz-adv-x="401" 
d="M383 0h-366v112h34v476h-34v112h366v-212h-119v100h-83v-177h130v-112h-130v-187h83v101h119v-213z" />
    <glyph glyph-name="Zhecyrillic" unicode="&#x416;" horiz-adv-x="692" 
d="M15 0v112h30l107 301l-97 175h-30v112h185v-112h-28l99 -189v189h-34v112h198v-112h-34v-189l100 189h-29v112h185v-112h-30l-97 -175l107 -301h31v-112h-198v112h27l-58 165l-38 -73v-92h34v-112h-198v112h34v92l-38 73l-58 -165h28v-112h-198z" />
    <glyph glyph-name="Zecyrillic" unicode="&#x417;" horiz-adv-x="410" 
d="M30 488v212h267l71 -71v-237l-34 -33l41 -41v-247l-71 -71h-205l-71 71v141h120v-99h95v186h-153v113h148v176h-88v-100h-120z" />
    <glyph glyph-name="Iicyrillic" unicode="&#x418;" horiz-adv-x="457" 
d="M181 588v-253l95 233v20h-33v112h197v-112h-34v-476h34v-112h-197v112h33v253l-95 -232v-21h33v-112h-197v112h34v476h-34v112h197v-112h-33z" />
    <glyph glyph-name="Iishortcyrillic" unicode="&#x419;" horiz-adv-x="454" 
d="M181 588v-253l95 233v20h-33v112h197v-112h-34v-476h34v-112h-197v112h33v253l-95 -232v-21h33v-112h-197v112h34v476h-34v112h197v-112h-33zM265 852v48h100v-95l-40 -40h-193l-40 40v95h100v-48h73z" />
    <glyph glyph-name="Kacyrillic" unicode="&#x41a;" horiz-adv-x="462" 
d="M447 112v-112h-198v112h28l-58 165l-38 -73v-92h33v-112h-197v112h34v476h-34v112h197v-112h-33v-189l99 189h-28v112h185v-112h-30l-97 -175l107 -301h30z" />
    <glyph glyph-name="Elcyrillic" unicode="&#x41b;" horiz-adv-x="439" 
d="M209 553l-56 -441h30v-112h-173v112h28l87 588h189l87 -588h28v-112h-190v112h31l-56 441h-5z" />
    <glyph glyph-name="Emcyrillic" unicode="&#x41c;" horiz-adv-x="568" 
d="M234 130l-71 263v-281h33v-112h-179v112h34v476h-34v112h175l90 -321l91 321h178v-112h-34v-476h34v-112h-197v112h33v290l-73 -272h-80z" />
    <glyph glyph-name="Encyrillic" unicode="&#x41d;" horiz-adv-x="454" 
d="M240 0v112h34v187h-93v-187h33v-112h-197v112h34v476h-34v112h197v-112h-33v-177h93v177h-34v112h198v-112h-34v-476h34v-112h-198z" />
    <glyph glyph-name="Ocyrillic" unicode="&#x41e;" 
d="M375 630v-559l-70 -71h-209l-71 71v559l71 70h209zM245 112v476h-90v-476h90z" />
    <glyph glyph-name="Pecyrillic" unicode="&#x41f;" horiz-adv-x="454" 
d="M240 0v112h34v476h-93v-476h33v-112h-197v112h34v476h-34v112h421v-112h-34v-476h34v-112h-198z" />
    <glyph glyph-name="Ercyrillic" unicode="&#x420;" horiz-adv-x="426" 
d="M181 251v-139h33v-112h-197v112h34v476h-34v112h313l71 -70v-308l-71 -71h-149zM181 588v-225h90v225h-90z" />
    <glyph glyph-name="Escyrillic" unicode="&#x421;" horiz-adv-x="395" 
d="M300 0h-204l-71 71v559l71 70h204l70 -70v-142h-119v100h-96v-476h96v100h119v-141z" />
    <glyph glyph-name="Tecyrillic" unicode="&#x422;" horiz-adv-x="458" 
d="M14 488v212h431v-212h-104v100h-47v-476h34v-112h-197v112h33v476h-47v-100h-103z" />
    <glyph glyph-name="Ucyrillic" unicode="&#x423;" horiz-adv-x="421" 
d="M410 700v-112h-29l-106 -344l-33 -132h29v-112h-185v112h32l34 132l-116 344h-25v112h188v-112h-29l46 -166l45 166h-25v112h174z" />
    <glyph glyph-name="Efcyrillic" unicode="&#x424;" horiz-adv-x="600" 
d="M365 588v-57h145l65 -66v-230l-65 -65h-145v-58h34v-112h-198v112h34v58h-144l-66 65v230l66 66h144v57h-34v112h198v-112h-34zM365 424v-147h80v147h-80zM235 277v147h-80v-147h80z" />
    <glyph glyph-name="Xacyrillic" unicode="&#x425;" horiz-adv-x="445" 
d="M249 588v112h179v-112h-28l-108 -230l112 -246h28v-112h-196v112h28l-50 118l-52 -118h28v-112h-180v112h28l114 242l-107 234h-28v112h197v-112h-29l45 -105l46 105h-27z" />
    <glyph glyph-name="Tsecyrillic" unicode="&#x426;" horiz-adv-x="454" 
d="M438 -100h-112v100h-309v112h33v476h-33v112h197v-112h-34v-476h94v476h-34v112h198v-112h-34v-476h34v-212z" />
    <glyph glyph-name="Checyrillic" unicode="&#x427;" horiz-adv-x="454" 
d="M121 289l-70 71v228h-34v112h197v-112h-33v-187h93v187h-34v112h198v-112h-34v-476h34v-112h-198v112h34v177h-153z" />
    <glyph glyph-name="Shacyrillic" unicode="&#x428;" horiz-adv-x="668" 
d="M454 588v112h197v-112h-33v-476h33v-112h-634v112h34v476h-34v112h197v-112h-33v-476h88v476h-34v112h198v-112h-34v-476h89v476h-34z" />
    <glyph glyph-name="Shchacyrillic" unicode="&#x429;" horiz-adv-x="668" 
d="M651 -100h-112v100h-522v112h34v476h-34v112h197v-112h-33v-476h88v476h-34v112h198v-112h-34v-476h89v476h-34v112h197v-112h-33v-476h33v-212z" />
    <glyph glyph-name="Hardsigncyrillic" unicode="&#x42a;" horiz-adv-x="539" 
d="M294 299v-187h90v187h-90zM14 700h314v-112h-34v-177h150l70 -71v-270l-70 -70h-314v112h34v476h-47v-100h-103v212z" />
    <glyph glyph-name="Yericyrillic" unicode="&#x42b;" horiz-adv-x="641" 
d="M181 299v-187h90v187h-90zM181 588v-177h149l71 -71v-270l-71 -70h-313v112h34v476h-34v112h197v-112h-33zM591 588v-476h33v-112h-197v112h34v476h-34v112h197v-112h-33z" />
    <glyph glyph-name="Softsigncyrillic" unicode="&#x42c;" horiz-adv-x="418" 
d="M181 299v-187h90v187h-90zM181 588v-177h149l71 -71v-270l-71 -70h-313v112h34v476h-34v112h197v-112h-33z" />
    <glyph glyph-name="Ereversedcyrillic" unicode="&#x42d;" horiz-adv-x="403" 
d="M299 0h-198l-71 71v141h120v-99h90v186h-153v113h153v176h-90v-100h-120v212h269l71 -71v-558z" />
    <glyph glyph-name="IUcyrillic" unicode="&#x42e;" horiz-adv-x="649" 
d="M624 630v-559l-70 -71h-209l-71 71v228h-93v-187h33v-112h-197v112h34v476h-34v112h197v-112h-33v-177h93v219l71 70h209zM494 112v476h-90v-476h90z" />
    <glyph glyph-name="IAcyrillic" unicode="&#x42f;" horiz-adv-x="427" 
d="M247 112v139h-47l-53 -251h-130v112h27l37 166h-11l-43 44v308l70 70h314v-112h-34v-476h34v-112h-198v112h34zM247 363v225h-90v-225h90z" />
    <glyph glyph-name="acyrillic" unicode="&#x430;" horiz-adv-x="396" 
d="M353 430v-319h26v-111h-156v36l-36 -36h-99l-70 70v160l70 70h135v89h-75v-50h-120v91l70 70h185zM148 208v-97h75v97h-75z" />
    <glyph glyph-name="becyrillic" unicode="&#x431;" horiz-adv-x="378" 
d="M246 760h111v-101l-70 -70h-136v-125l36 36h99l70 -70v-360l-70 -70h-195l-70 70v560l70 70h155v60zM226 111v278h-75v-278h75z" />
    <glyph glyph-name="vecyrillic" unicode="&#x432;" horiz-adv-x="410" 
d="M16 500h297l70 -70v-140l-40 -40l40 -40v-140l-70 -70h-297v111h27v278h-27v111zM253 111v97h-80v-97h80zM173 389v-97h80v97h-80z" />
    <glyph glyph-name="gecyrillic" unicode="&#x433;" horiz-adv-x="345" 
d="M329 500v-185h-98v74h-58v-278h26v-111h-183v111h27v278h-27v111h313z" />
    <glyph glyph-name="decyrillic" unicode="&#x434;" horiz-adv-x="403" 
d="M10 -100v211h26l71 389h188l71 -389h26v-211h-111v100h-160v-100h-111zM153 111h83l-40 246h-4z" />
    <glyph glyph-name="iecyrillic" unicode="&#x435;" horiz-adv-x="378" 
d="M21 70v360l70 70h195l70 -70v-226h-205v-93h85v50h120v-91l-70 -70h-195zM151 389v-93h75v93h-75z" />
    <glyph glyph-name="zhecyrillic" unicode="&#x436;" horiz-adv-x="636" 
d="M202 0h-185v111h20l95 184l-83 94h-22v111h180v-111h-12l58 -67v67h-27v111h184v-111h-27v-67l58 67h-12v111h180v-111h-22l-83 -94l95 -184h20v-111h-185v111h17l-41 74l-27 -32v-42h27v-111h-184v111h27v42l-27 32l-41 -74h17v-111z" />
    <glyph glyph-name="zecyrillic" unicode="&#x437;" horiz-adv-x="388" 
d="M232 111v97h-140v84h140v97h-85v-50h-120v161h265l70 -70v-140l-40 -40l40 -40v-140l-70 -70h-195l-70 70v91h120v-50h85z" />
    <glyph glyph-name="iicyrillic" unicode="&#x438;" horiz-adv-x="426" 
d="M173 389v-132l80 122v10h-26v111h182v-111h-26v-278h26v-111h-182v111h26v132l-80 -122v-10h26v-111h-183v111h27v278h-27v111h183v-111h-26z" />
    <glyph glyph-name="iishortcyrillic" unicode="&#x439;" horiz-adv-x="426" 
d="M173 389v-132l80 122v10h-26v111h182v-111h-26v-278h26v-111h-182v111h26v132l-80 -122v-10h26v-111h-183v111h27v278h-27v111h183v-111h-26zM249 654v46h104v-95l-40 -40h-200l-40 40v95h104v-46h72z" />
    <glyph glyph-name="kacyrillic" unicode="&#x43a;" horiz-adv-x="426" 
d="M409 0h-185v111h17l-41 74l-27 -32v-42h26v-111h-183v111h27v278h-27v111h183v-111h-26v-67l58 67h-12v111h180v-111h-22l-83 -94l95 -184h20v-111z" />
    <glyph glyph-name="elcyrillic" unicode="&#x43b;" horiz-adv-x="402" 
d="M208 0v111h28l-40 246h-4l-39 -246h28v-111h-171v111h26l71 389h188l71 -389h26v-111h-184z" />
    <glyph glyph-name="emcyrillic" unicode="&#x43c;" horiz-adv-x="566" 
d="M524 389v-278h26v-111h-180v111h26v172l-62 -218h-103l-62 218v-172h26v-111h-179v111h27v278h-27v111h196l72 -249l70 249h196v-111h-26z" />
    <glyph glyph-name="encyrillic" unicode="&#x43d;" horiz-adv-x="426" 
d="M43 111v278h-27v111h183v-111h-26v-83h80v83h-26v111h182v-111h-26v-278h26v-111h-182v111h26v84h-80v-84h26v-111h-183v111h27z" />
    <glyph glyph-name="ocyrillic" unicode="&#x43e;" horiz-adv-x="378" 
d="M286 0h-195l-70 70v360l70 70h195l70 -70v-360zM151 389v-278h75v278h-75z" />
    <glyph glyph-name="pecyrillic" unicode="&#x43f;" horiz-adv-x="426" 
d="M253 111v278h-80v-278h26v-111h-183v111h27v278h-27v111h393v-111h-26v-278h26v-111h-182v111h26z" />
    <glyph glyph-name="ercyrillic" unicode="&#x440;" horiz-adv-x="399" 
d="M378 430v-360l-70 -70h-99l-36 36v-125h26v-111h-183v111h27v478h-27v111h157v-36l36 36h99zM173 389v-278h75v278h-75z" />
    <glyph glyph-name="escyrillic" unicode="&#x441;" horiz-adv-x="371" 
d="M280 0h-189l-70 70v360l70 70h189l70 -70v-130h-120v89h-79v-278h79v89h120v-130z" />
    <glyph glyph-name="tecyrillic" unicode="&#x442;" horiz-adv-x="417" 
d="M16 315v185h385v-185h-98v74h-29v-278h26v-111h-183v111h27v278h-30v-74h-98z" />
    <glyph glyph-name="ucyrillic" unicode="&#x443;" horiz-adv-x="402" 
d="M194 500v-111h-23l35 -162h4l35 162h-24v111h171v-111h-22l-139 -478h24v-111h-173v111h24l33 117l-107 361h-22v111h184z" />
    <glyph glyph-name="efcyrillic" unicode="&#x444;" horiz-adv-x="582" 
d="M356 389v-278h75v278h-75zM226 111v278h-75v-278h75zM21 70v360l70 70h99l36 -36v125h-26v111h183v-111h-27v-125l36 36h99l70 -70v-360l-70 -70h-99l-36 36v-125h26v-111h-183v111h27v125l-36 -36h-99z" />
    <glyph glyph-name="hacyrillic" unicode="&#x445;" horiz-adv-x="391" 
d="M171 111v-111h-161v111h20l84 153l-81 125h-20v111h181v-111h-18l35 -56l28 56h-19v111h158v-111h-20l-81 -148l84 -130h20v-111h-184v111h21l-38 61l-31 -61h22z" />
    <glyph glyph-name="tsecyrillic" unicode="&#x446;" horiz-adv-x="426" 
d="M172 389v-278h81v278h-26v111h182v-111h-26v-278h26v-211h-111v100h-282v111h26v278h-26v111h182v-111h-26z" />
    <glyph glyph-name="checyrillic" unicode="&#x447;" horiz-adv-x="420" 
d="M172 389v-108h75v108h-26v111h183v-111h-27v-278h27v-111h-183v111h26v95l-36 -36h-99l-70 70v149h-26v111h182v-111h-26z" />
    <glyph glyph-name="shacyrillic" unicode="&#x448;" horiz-adv-x="627" 
d="M172 389v-278h76v278h-26v111h183v-111h-27v-278h76v278h-26v111h183v-111h-27v-278h27v-111h-595v111h26v278h-26v111h182v-111h-26z" />
    <glyph glyph-name="shchacyrillic" unicode="&#x449;" horiz-adv-x="627" 
d="M172 389v-278h76v278h-26v111h183v-111h-27v-278h76v278h-26v111h183v-111h-27v-278h27v-211h-112v100h-483v111h26v278h-26v111h182v-111h-26z" />
    <glyph glyph-name="hardsigncyrillic" unicode="&#x44a;" horiz-adv-x="496" 
d="M16 315v185h284v-111h-26v-83h135l70 -70v-166l-70 -70h-291v111h26v278h-30v-74h-98zM349 195h-75v-84h75v84z" />
    <glyph glyph-name="yericyrillic" unicode="&#x44b;" horiz-adv-x="599" 
d="M378 236v-166l-70 -70h-292v111h27v278h-27v111h183v-111h-26v-83h135zM556 389v-278h26v-111h-182v111h26v278h-26v111h182v-111h-26zM248 195h-75v-84h75v84z" />
    <glyph glyph-name="softsigncyrillic" unicode="&#x44c;" horiz-adv-x="395" 
d="M378 236v-166l-70 -70h-292v111h27v278h-27v111h183v-111h-26v-83h135zM173 111h75v84h-75v-84z" />
    <glyph glyph-name="ereversedcyrillic" unicode="&#x44d;" horiz-adv-x="388" 
d="M232 111v97h-140v84h140v97h-85v-50h-120v161h265l70 -70v-360l-70 -70h-195l-70 70v91h120v-50h85z" />
    <glyph glyph-name="iucyrillic" unicode="&#x44e;" horiz-adv-x="599" 
d="M577 430v-360l-70 -70h-195l-70 70v125h-69v-84h26v-111h-183v111h27v278h-27v111h183v-111h-26v-83h69v124l70 70h195zM447 111v278h-75v-278h75z" />
    <glyph glyph-name="iacyrillic" unicode="&#x44f;" horiz-adv-x="426" 
d="M26 257v173l70 70h313v-111h-27v-278h27v-111h-183v111h26v76h-27l-41 -76h17v-111h-185v111h20l48 88zM252 389h-96v-91h96v91z" />
    <glyph glyph-name="iocyrillic" unicode="&#x451;" horiz-adv-x="378" 
d="M21 70v360l70 70h195l70 -70v-226h-205v-93h85v50h120v-91l-70 -70h-195zM151 389v-93h75v93h-75zM31 555v136h136v-136h-136zM210 555v136h136v-136h-136z" />
    <glyph glyph-name="djecyrillic" unicode="&#x452;" horiz-adv-x="410" 
d="M270 646v-92h-87v-90l36 36h99l70 -70v-570l-60 -60h-159l-60 60v100h100v-49h49v478h-75v-278h26v-111h-183v111h27v443h-50v92h50v54h130v-54h87z" />
    <glyph glyph-name="gjecyrillic" unicode="&#x453;" horiz-adv-x="345" 
d="M167 700h128l-58 -135h-128zM329 500v-185h-98v74h-58v-278h26v-111h-183v111h27v278h-27v111h313z" />
    <glyph glyph-name="ecyrillic" unicode="&#x454;" horiz-adv-x="388" 
d="M157 208v-97h85v50h120v-91l-70 -70h-195l-70 70v360l70 70h265v-161h-120v50h-85v-97h139v-84h-139z" />
    <glyph glyph-name="dzecyrillic" unicode="&#x455;" horiz-adv-x="371" 
d="M353 234v-164l-70 -70h-195l-70 70v91h120v-50h85v93h-134l-63 62v164l70 70h179l70 -70v-91h-120v50h-69v-93h135z" />
    <glyph glyph-name="icyrillic" unicode="&#x456;" horiz-adv-x="215" 
d="M16 389v111h157v-389h26v-111h-183v111h27v278h-27zM39 564v136h137v-136h-137z" />
    <glyph glyph-name="yicyrillic" unicode="&#x457;" horiz-adv-x="215" 
d="M16 389v111h157v-389h26v-111h-183v111h27v278h-27zM-49 555v136h136v-136h-136zM130 555v136h136v-136h-136z" />
    <glyph glyph-name="jecyrillic" unicode="&#x458;" horiz-adv-x="201" 
d="M16 389v111h157v-640l-60 -60h-140l-60 60v100h100v-49h30v478h-27zM39 564v136h137v-136h-137z" />
    <glyph glyph-name="ljecyrillic" unicode="&#x459;" horiz-adv-x="575" 
d="M208 0v111h28l-40 246h-4l-39 -246h28v-111h-171v111h26l71 389h188l36 -194h157l70 -70v-166l-70 -70h-280zM366 111h62v84h-77z" />
    <glyph glyph-name="njecyrillic" unicode="&#x45a;" horiz-adv-x="605" 
d="M588 236v-166l-70 -70h-291v111h26v84h-80v-84h26v-111h-183v111h27v278h-27v111h183v-111h-26v-83h80v83h-26v111h182v-111h-26v-83h135zM458 195h-75v-84h75v84z" />
    <glyph glyph-name="tshecyrillic" unicode="&#x45b;" horiz-adv-x="430" 
d="M258 0v389h-75v-278h26v-111h-183v111h27v443h-50v92h50v54h130v-54h87v-92h-87v-90l36 36h99l70 -70v-319h26v-111h-156z" />
    <glyph glyph-name="kjecyrillic" unicode="&#x45c;" horiz-adv-x="426" 
d="M409 0h-185v111h17l-41 74l-27 -32v-42h26v-111h-183v111h27v278h-27v111h183v-111h-26v-67l58 67h-12v111h180v-111h-22l-83 -94l95 -184h20v-111zM206 700h123l-58 -135h-123z" />
    <glyph glyph-name="ushortcyrillic" unicode="&#x45e;" horiz-adv-x="401" 
d="M236 654v46h104v-95l-40 -40h-199l-40 40v95h103v-46h72zM194 500v-111h-23l35 -162h4l35 162h-24v111h171v-111h-22l-139 -478h24v-111h-173v111h24l33 117l-107 361h-22v111h184z" />
    <glyph glyph-name="dzhecyrillic" unicode="&#x45f;" horiz-adv-x="426" 
d="M172 389v-278h81v278h-26v111h182v-111h-26v-278h26v-111h-141v-100h-111v100h-141v111h26v278h-26v111h182v-111h-26z" />
    <glyph glyph-name="Geupturncyrillic" unicode="&#x490;" horiz-adv-x="357" 
d="M363 588h-182v-476h33v-112h-197v112h34v476h-34v112h227v100h119v-212z" />
    <glyph glyph-name="geupturncyrillic" unicode="&#x491;" horiz-adv-x="345" 
d="M218 600h111v-211h-156v-278h26v-111h-183v111h27v278h-27v111h202v100z" />
    <glyph glyph-name="Wgrave" unicode="&#x1e80;" horiz-adv-x="652" 
d="M207 900h124l58 -135h-124zM192 700v-112h-27l34 -362h4l62 414h139l62 -414h4l34 362h-27v112h165v-112h-29l-62 -588h-162l-58 395h-4l-57 -395h-169l-63 588h-28v112h182z" />
    <glyph glyph-name="wgrave" unicode="&#x1e81;" horiz-adv-x="586" 
d="M174 700h124l58 -135h-124zM339 0l-44 285h-4l-43 -285h-175l-43 389h-20v111h166v-111h-25l20 -238h4l53 349h139l53 -349h4l20 238h-25v111h157v-111h-20l-43 -389h-174z" />
    <glyph glyph-name="Wacute" unicode="&#x1e82;" horiz-adv-x="652" 
d="M322 900h123l-58 -135h-123zM192 700v-112h-27l34 -362h4l62 414h139l62 -414h4l34 362h-27v112h165v-112h-29l-62 -588h-162l-58 395h-4l-57 -395h-169l-63 588h-28v112h182z" />
    <glyph glyph-name="wacute" unicode="&#x1e83;" horiz-adv-x="586" 
d="M289 700h123l-58 -135h-123zM339 0l-44 285h-4l-43 -285h-175l-43 389h-20v111h166v-111h-25l20 -238h4l53 349h139l53 -349h4l20 238h-25v111h157v-111h-20l-43 -389h-174z" />
    <glyph glyph-name="Wdieresis" unicode="&#x1e84;" horiz-adv-x="652" 
d="M169 755v136h136v-136h-136zM348 755v136h136v-136h-136zM192 700v-112h-27l34 -362h4l62 414h139l62 -414h4l34 362h-27v112h165v-112h-29l-62 -588h-162l-58 395h-4l-57 -395h-169l-63 588h-28v112h182z" />
    <glyph glyph-name="wdieresis" unicode="&#x1e85;" horiz-adv-x="586" 
d="M136 555v136h136v-136h-136zM315 555v136h136v-136h-136zM339 0l-44 285h-4l-43 -285h-175l-43 389h-20v111h166v-111h-25l20 -238h4l53 349h139l53 -349h4l20 238h-25v111h157v-111h-20l-43 -389h-174z" />
    <glyph glyph-name="enspace" unicode="&#x2002;" horiz-adv-x="350" 
 />
    <glyph glyph-name="emspace" unicode="&#x2003;" horiz-adv-x="700" 
 />
    <glyph glyph-name="threeperemspace" unicode="&#x2004;" horiz-adv-x="525" 
 />
    <glyph glyph-name="fourperemspace" unicode="&#x2005;" horiz-adv-x="175" 
 />
    <glyph glyph-name="sixperemspace" unicode="&#x2006;" horiz-adv-x="117" 
 />
    <glyph glyph-name="figurespace" unicode="&#x2007;" 
 />
    <glyph glyph-name="punctuationspace" unicode="&#x2008;" horiz-adv-x="200" 
 />
    <glyph glyph-name="thinspace" unicode="&#x2009;" horiz-adv-x="100" 
 />
    <glyph glyph-name="hairspace" unicode="&#x200a;" horiz-adv-x="50" 
 />
    <glyph glyph-name="zerowidthspace" unicode="&#x200b;" horiz-adv-x="0" 
 />
    <glyph glyph-name="figuredash" unicode="&#x2012;" 
d="M368 356v-110h-336v110h336z" />
    <glyph glyph-name="endash" unicode="&#x2013;" horiz-adv-x="350" 
d="M318 356v-110h-286v110h286z" />
    <glyph glyph-name="emdash" unicode="&#x2014;" horiz-adv-x="700" 
d="M668 356v-110h-636v110h636z" />
    <glyph glyph-name="uni2015" unicode="&#x2015;" horiz-adv-x="800" 
d="M768 356v-110h-736v110h736z" />
    <glyph glyph-name="quoteleft" unicode="&#x2018;" horiz-adv-x="233" 
d="M24 443v124l65 133h122l-57 -117v-140h-130z" />
    <glyph glyph-name="quoteright" unicode="&#x2019;" horiz-adv-x="233" 
d="M209 700v-123l-65 -134h-123l58 118v139h130z" />
    <glyph glyph-name="quotesinglbase" unicode="&#x201a;" horiz-adv-x="233" 
d="M188 133v-123l-65 -134h-122l57 118v139h130z" />
    <glyph glyph-name="reversequoteleft" unicode="&#x201b;" horiz-adv-x="233" 
d="M21 577v123h130v-139l58 -118h-123z" />
    <glyph glyph-name="quotedblleft" unicode="&#x201c;" horiz-adv-x="407" 
d="M24 443v124l65 133h122l-57 -117v-140h-130zM198 443v124l65 133h122l-57 -117v-140h-130z" />
    <glyph glyph-name="quotedblright" unicode="&#x201d;" horiz-adv-x="407" 
d="M209 700v-123l-65 -134h-122l57 118v139h130zM382 700v-123l-65 -134h-122l57 118v139h130z" />
    <glyph glyph-name="quotedblbase" unicode="&#x201e;" horiz-adv-x="407" 
d="M188 133v-123l-65 -134h-122l57 118v139h130zM362 133v-123l-65 -134h-122l57 118v139h130z" />
    <glyph glyph-name="reversequotedblleft" unicode="&#x201f;" horiz-adv-x="407" 
d="M22 577v123h130v-139l57 -118h-122zM195 577v123h130v-139l57 -118h-122z" />
    <glyph glyph-name="dagger" unicode="&#x2020;" horiz-adv-x="380" 
d="M44 507v93h100v100h92v-100h100v-93h-100v-307h-92v307h-100z" />
    <glyph glyph-name="daggerdbl" unicode="&#x2021;" horiz-adv-x="380" 
d="M44 507v93h100v100h92v-100h100v-93h-100v-107h100v-93h-100v-307h-92v307h-100v93h100v107h-100z" />
    <glyph glyph-name="bullet" unicode="&#x2022;" horiz-adv-x="300" 
d="M65 265v170h170v-170h-170z" />
    <glyph glyph-name="ellipsis" unicode="&#x2026;" horiz-adv-x="700" 
d="M62 0v130h130v-130h-130zM508 0v130h130v-130h-130zM284 0v130h130v-130h-130z" />
    <glyph glyph-name="Euro" unicode="&#x20ac;" horiz-adv-x="427" 
d="M322 329l-28 -93h-84v-124h68v68h120v-110l-70 -70h-178l-70 70v166h-48v93h48v42h-48v93h48v166l70 70h178l70 -70v-110h-120v68h-68v-124h153l-28 -93h-125v-42h112z" />
    <glyph glyph-name="published" unicode="&#x2117;" horiz-adv-x="579" 
d="M500 0h-424l-37 37v623l40 40h421l40 -40v-620zM106 65h364v570h-364v-570zM259 485v-115h64v115h-64zM259 275v-155h-97v460h211l47 -47v-211l-47 -47h-114z" />
    <glyph glyph-name="servicemark" unicode="&#x2120;" horiz-adv-x="483" 
d="M318 415l-38 141v-206h-52v350h65l47 -169l46 169h67v-350h-59v210l-38 -145h-38zM131 402v99h-67l-32 33v133l32 33h90l33 -33v-72h-56v53h-39v-95h66l33 -32v-138l-33 -33h-98l-32 33v71h56v-52h47z" />
    <glyph glyph-name="trademark" unicode="&#x2122;" horiz-adv-x="482" 
d="M27 648v52h168v-52h-54v-298h-60v298h-54zM318 415l-37 141v-206h-53v350h65l47 -169l46 169h67v-350h-59v210l-38 -145h-38z" />
    <glyph glyph-name="partialdiff" unicode="&#x2202;" horiz-adv-x="1086" 
d="M1066 637q-29 -7 -41.5 -17.5t-40.5 -52.5l-4 -7q-5 -6 -6.5 -8t-7 -9t-10 -11t-12.5 -11.5t-16 -13.5t-19.5 -14t-24.5 -16q-41 -25 -41 -49q0 -8 4.5 -24t5.5 -22q4 -23 6 -47t3 -32.5t5 -18t13 -18.5q15 -15 15 -36q0 -7 -4 -40t-4 -63q0 -9 2 -35t2 -39
q0 -16 -12 -28q-5 -5 -8.5 -15t-5.5 -12q-6 -6 -23 -6q-15 0 -29.5 4.5t-14.5 11.5q0 5 6.5 13t6.5 10q-1 5 -7.5 6t-6.5 5t16 19.5t16 26.5q0 23 -17 125q-9 13 -34 37.5t-47 59.5q-24 18 -54 18q-33 0 -113 -34t-135 -38q-2 0 -2 -3q0 -16 -1.5 -51.5t-1.5 -54.5
q0 -77 -24 -96q-16 -41 -23 -47q-8 -5 -23 -5q-18 0 -33.5 4.5t-15.5 11.5t4.5 13t8.5 9.5t4 4.5t-4.5 4.5t-4.5 6.5q0 12 41 28q4 20 4 34q0 27 -10 77l-16 73q-64 48 -114 187q-11 32 -30 32q-4 0 -16 -3t-21 -3q-15 0 -15 8q0 4 4.5 11.5t4.5 10.5q0 7 -19.5 9t-42.5 2
t-41.5 6.5t-17.5 21.5q-24 13 -24 41q0 6 7.5 11t34.5 18q7 3 12 5.5l13 6.5l16 8q13 7 28.5 24t33.5 28.5t47 11.5q38 0 71 -32t57.5 -68.5t35.5 -41.5q68 -31 247 -31q29 0 70 3t50 3q38 0 68.5 -13t40.5 -13q39 0 87 36q27 20 49 49.5t24 32.5q34 36 74 36q20 0 20 -11
q0 -10 -20 -14z" />
    <glyph glyph-name="minus" unicode="&#x2212;" horiz-adv-x="427" 
d="M392 406v-112h-357v112h357z" />
    <glyph glyph-name="radical" unicode="&#x221a;" horiz-adv-x="732" 
d="M366 0q-9 0 -19 5q-27 13 -61 34.5t-87.5 66t-95 94t-72.5 122t-31 147.5q0 99 61 165t151 66q88 0 154 -80q66 80 154 80q90 0 151 -66t61 -165q0 -75 -31 -147.5t-72.5 -122t-95 -94t-87.5 -66t-61 -34.5q-10 -5 -19 -5zM606 514q10 1 10 6q0 6 -10 6q-19 0 -35 -17
q-2 -2 -12.5 -16t-22.5 -24q-22 -17 -41 -17q-4 0 -19 6.5t-33 6.5q-5 0 -24 -1.5t-33 -1.5q-85 0 -118 15q-5 2 -16.5 19.5t-27.5 32.5t-34 15q-19 0 -33.5 -14t-18.5 -16q-5 -3 -10 -5.5t-8.5 -4t-6.5 -3.5t-5 -2.5t-4 -1.5t-2.5 -2t-1.5 -1.5t-1 -1.5v-2q0 -6 2.5 -10.5
t5.5 -6.5l3 -2q-1 -12 28.5 -13.5t29.5 -5.5q0 -1 -2 -4.5t-2 -5.5q0 -4 7 -4q4 0 9.5 1.5t7.5 1.5q9 0 15 -15q23 -66 54 -89l7 -35q5 -18 5 -37q0 -6 -2 -16q-19 -7 -19 -13q0 -1 2 -3l2 -2l-4 -5q-4 -4 -4 -8q0 -8 23 -8q3 0 5 0.5t3.5 0.5t2.5 1.5t2 2.5t2.5 3.5t2 4
l2 6t2.5 6.5q12 10 12 46q0 9 0.5 25.5t0.5 24.5q0 1 1 1q26 2 64 18.5t54 16.5q13 0 25 -9q11 -16 22.5 -27.5t16.5 -18.5q8 -53 8 -59q0 -5 -7.5 -12.5t-7.5 -9.5q0 -3 3 -3t3 -2q0 -1 -3 -5t-3 -6q0 -8 21 -8q8 0 11 3q1 1 3 5.5t4 7.5q6 6 6 13q0 6 -1 18.5t-1 16.5
q0 14 1.5 30t1.5 19q0 11 -7 17q-4 4 -6 9t-2.5 9t-1.5 15t-3 22q0 3 -2 10.5t-2 11.5q0 11 19 24q30 17 48 42q13 20 19 25t20 9z" />
    <glyph glyph-name="approxequal" unicode="&#x2248;" horiz-adv-x="427" 
d="M345 362l-210 43v-39h-100v94l47 46l210 -42v39h100v-94zM345 194l-210 42v-39h-100v94l47 47l210 -43v39h100v-94z" />
    <glyph glyph-name="notequal" unicode="&#x2260;" horiz-adv-x="427" 
d="M277 584h111l-45 -89h49v-113h-107l-32 -64h139v-113h-197l-45 -89h-112l45 89h-48v113h106l32 64h-138v113h196z" />
    <glyph glyph-name="fi" unicode="&#xfb01;" horiz-adv-x="551" 
d="M16 389v111h50v140l60 60h136l60 -60v-90h-96v39h-30v-89h105v-111h-105v-278h34v-111h-197v111h33v278h-50zM352 389v111h157v-389h26v-111h-183v111h27v278h-27zM375 564v136h137v-136h-137z" />
    <glyph glyph-name="fl" unicode="&#xfb02;" horiz-adv-x="551" 
d="M16 389v111h50v140l60 60h136l60 -60v-90h-96v39h-30v-89h105v-111h-105v-278h34v-111h-197v111h33v278h-50zM352 589v111h157v-589h26v-111h-183v111h27v478h-27z" />
    <glyph glyph-name="caronSlovak" unicode="&#x100148;" horiz-adv-x="402" 
d="M462 525h-83l20 175h83z" />
    <glyph glyph-name="commaaccent" unicode="&#x100174;" horiz-adv-x="402" 
d="M243 -200h-123l20 165h123z" />
    <glyph glyph-name="dotbelow" unicode="&#x1001c7;" horiz-adv-x="402" 
d="M269 -55v-136h-136v136h136z" />
    <glyph glyph-name="emdash.cap" unicode="&#x1002d3;" horiz-adv-x="700" 
d="M668 405v-110h-636v110h636z" />
    <glyph glyph-name="endash.cap" unicode="&#x1002d7;" horiz-adv-x="350" 
d="M318 405v-110h-286v110h286z" />
    <glyph glyph-name="figuredash.cap" unicode="&#x100375;" 
d="M368 405v-110h-336v110h336z" />
    <glyph glyph-name="hyphen.cap" unicode="&#x100480;" horiz-adv-x="260" 
d="M228 405v-110h-196v110h196z" />
    <glyph glyph-name="idotaccent" unicode="&#x1004c3;" horiz-adv-x="215" 
d="M16 389v111h157v-389h26v-111h-183v111h27v278h-27zM39 564v136h137v-136h-137z" />
    <glyph glyph-name="invertedbreve" unicode="&#x1004f2;" horiz-adv-x="402" 
d="M164 613v-48h-100v95l40 40h194l40 -40v-95h-100v48h-74z" />
    <glyph glyph-name="onethirdemdash" unicode="&#x100704;" horiz-adv-x="233" 
d="M201 356v-110h-169v110h169z" />
    <glyph glyph-name="onethirdemdash.cap" unicode="&#x100705;" horiz-adv-x="233" 
d="M201 405v-110h-169v110h169z" />
    <glyph glyph-name="periodcentered.cap" unicode="&#x10074e;" horiz-adv-x="240" 
d="M55 285v130h130v-130h-130z" />
    <glyph glyph-name="registered.cap" unicode="&#x1007d2;" horiz-adv-x="579" 
d="M500 0h-421l-40 40v620l40 40h421l40 -40v-620zM109 65h361v570h-361v-570zM259 485v-115h63v115h-63zM433 120h-95l-42 155h-37v-155h-97v460h210l46 -47v-201l-34 -34z" />
    <glyph glyph-name="threequarteremdash" unicode="&#x1008b4;" horiz-adv-x="525" 
d="M493 356v-110h-461v110h461z" />
    <glyph glyph-name="threequarteremdash.cap" unicode="&#x1008b5;" horiz-adv-x="525" 
d="M493 405v-110h-461v110h461z" />
    <glyph glyph-name="uni2015.cap" unicode="&#x10094d;" horiz-adv-x="800" 
d="M768 405v-110h-736v110h736z" />
    <glyph glyph-name="doublegrave" horiz-adv-x="402" 
d="M161 700h110l58 -135h-110zM17 700h110l58 -135h-110z" />
    </font>
</defs>
</svg>
