<?xml version="1.0" standalone="no"?>
<!DOCTYPE svg PUBLIC "-//W3C//DTD SVG 1.1//EN" "http://www.w3.org/Graphics/SVG/1.1/DTD/svg11.dtd" >
<svg xmlns="http://www.w3.org/2000/svg" xmlns:xlink="http://www.w3.org/1999/xlink" version="1.1">
<metadata>
Created by FontForge 20170731 at Tue Nov 17 02:40:27 2015
 By Aleksey,,,
Copyright (c) 2011-15 Victoria's Secret Pink. All rights reserved.
</metadata>
<defs>
<font id="PinkSlab-070" horiz-adv-x="380" >
  <font-face 
    font-family="Pink Slab 070"
    font-weight="500"
    font-stretch="normal"
    units-per-em="1000"
    panose-1="2 0 0 0 0 0 0 0 0 0"
    ascent="800"
    descent="-200"
    x-height="500"
    cap-height="700"
    bbox="-62 -200 1086 900"
    underline-thickness="50"
    underline-position="-200"
    unicode-range="U+0020-10094D"
  />
<missing-glyph horiz-adv-x="820" 
d="M60 700h700v-700h-700v700zM150 619v-538h520v538h-520zM317 553l93 -128l93 128h114l-150 -203l150 -203h-114l-93 128l-93 -128h-114l150 203l-150 203h114z" />
    <glyph glyph-name=".notdef" horiz-adv-x="820" 
d="M60 700h700v-700h-700v700zM150 619v-538h520v538h-520zM317 553l93 -128l93 128h114l-150 -203l150 -203h-114l-93 128l-93 -128h-114l150 203l-150 203h114z" />
    <glyph glyph-name=".null" horiz-adv-x="0" 
 />
    <glyph glyph-name="nonmarkingreturn" horiz-adv-x="333" 
 />
    <glyph glyph-name="space" unicode=" " horiz-adv-x="200" 
 />
    <glyph glyph-name="exclam" unicode="!" horiz-adv-x="200" 
d="M76 190l-23 510h94l-24 -510h-47zM65 0v70h70v-70h-70z" />
    <glyph glyph-name="quotedbl" unicode="&#x22;" horiz-adv-x="320" 
d="M73 467l-17 233h88l-17 -233h-54zM193 467l-17 233h88l-17 -233h-54z" />
    <glyph glyph-name="numbersign" unicode="#" horiz-adv-x="377" 
d="M343 251v-64h-46v-187h-64v187h-90v-187h-63v187h-47v64h47v198h-47v64h47v187h63v-187h90v187h64v-187h46v-64h-46v-198h46zM143 449v-198h90v198h-90z" />
    <glyph glyph-name="dollar" unicode="$" 
d="M155 0v100h-75l-40 40v99h60v-74h170v153h-180l-40 40v202l40 40h65v100h70v-100h65l40 -40v-99h-60v74h-150v-152h180l40 -40v-203l-40 -40h-75v-100h-70z" />
    <glyph glyph-name="percent" unicode="%" horiz-adv-x="705" 
d="M259 400h-155l-40 40v220l40 40h155l40 -40v-220zM124 460h115v180h-115v-180zM102 0l431 700h70l-431 -700h-70zM446 300h155l40 -40v-220l-40 -40h-155l-40 40v220zM581 240h-115v-180h115v180z" />
    <glyph glyph-name="ampersand" unicode="&#x26;" horiz-adv-x="390" 
d="M305 388h70l-87 -196l87 -192h-75l-49 108l-48 -108h-121l-37 37v278l78 78l-53 117v153l37 37h166l37 -37v-176l-107 -107l50 -110zM115 291v-225h47l54 120l-64 142zM140 634v-113l34 -77l70 70v120h-104z" />
    <glyph glyph-name="quotesingle" unicode="'" horiz-adv-x="200" 
d="M73 467l-17 233h88l-17 -233h-54z" />
    <glyph glyph-name="parenleft" unicode="(" horiz-adv-x="220" 
d="M190 -34v-66h-103l-37 37v826l37 37h103v-66h-70v-768h70z" />
    <glyph glyph-name="parenright" unicode=")" horiz-adv-x="220" 
d="M30 734v66h103l37 -37v-826l-37 -37h-103v66h70v768h-70z" />
    <glyph glyph-name="asterisk" unicode="*" 
d="M44 596l33 58l80 -47v93h66v-93l80 47l33 -58l-80 -46l80 -46l-33 -58l-80 46v-92h-66v92l-80 -46l-33 58l79 46z" />
    <glyph glyph-name="plus" unicode="+" 
d="M157 495h66v-112h112v-66h-112v-112h-66v112h-112v66h112v112z" />
    <glyph glyph-name="comma" unicode="," horiz-adv-x="200" 
d="M135 70v-66l-45 -104h-70l45 104v66h70z" />
    <glyph glyph-name="hyphen" unicode="-" horiz-adv-x="260" 
d="M225 334v-66h-190v66h190z" />
    <glyph glyph-name="period" unicode="." horiz-adv-x="200" 
d="M65 0v70h70v-70h-70z" />
    <glyph glyph-name="slash" unicode="/" horiz-adv-x="300" 
d="M0 -100l235 900h65l-235 -900h-65z" />
    <glyph glyph-name="zero" unicode="0" 
d="M335 650v-600l-50 -50h-190l-50 50v600l50 50h190zM265 65v570h-150v-570h150z" />
    <glyph glyph-name="one" unicode="1" 
d="M80 505l-45 45l150 150h40v-635h110v-65h-290v65h110v515z" />
    <glyph glyph-name="two" unicode="2" 
d="M90 377h170v258h-150v-123h-60v138l50 50h180l50 -50v-288l-50 -50h-170v-247h169v123h61v-188h-300v327z" />
    <glyph glyph-name="three" unicode="3" 
d="M45 512v138l50 50h180l50 -50v-264l-26 -26l36 -36v-274l-50 -50h-190l-50 50v138h60v-123h160v258h-158v65h148v247h-150v-123h-60z" />
    <glyph glyph-name="four" unicode="4" 
d="M33 183v51l153 466h99v-453h62v-64h-62v-119h60v-64h-188v64h58v119h-182zM105 247h110v330z" />
    <glyph glyph-name="five" unicode="5" 
d="M265 323h-210v377h280v-65h-210v-247h160l50 -50v-288l-50 -50h-190l-50 50v138h60v-123h160v258z" />
    <glyph glyph-name="six" unicode="6" 
d="M95 0l-50 50v600l50 50h180l50 -50v-138h-60v123h-150v-247h170l50 -50v-288l-50 -50h-190zM115 323v-258h150v258h-150z" />
    <glyph glyph-name="seven" unicode="7" 
d="M44 511v189h293v-159l-147 -541h-69l146 540v96h-160v-125h-63z" />
    <glyph glyph-name="eight" unicode="8" 
d="M105 700h170l50 -50v-264l-26 -26l36 -36v-274l-50 -50h-190l-50 50v274l36 36l-26 26v264zM115 323v-258h150v258h-150zM255 635h-130v-247h130v247z" />
    <glyph glyph-name="nine" unicode="9" 
d="M285 700l50 -50v-600l-50 -50h-190l-50 50v138h60v-123h160v247h-170l-50 50v288l50 50h190zM265 377v258h-150v-258h150z" />
    <glyph glyph-name="colon" unicode=":" horiz-adv-x="220" 
d="M75 0v70h70v-70h-70zM75 400v70h70v-70h-70z" />
    <glyph glyph-name="semicolon" unicode=";" horiz-adv-x="220" 
d="M75 400v70h70v-70h-70zM145 70v-64l-44 -106h-71l45 104v66h70z" />
    <glyph glyph-name="less" unicode="&#x3c;" 
d="M335 237v-70l-290 146v74l290 146v-70l-225 -113z" />
    <glyph glyph-name="equal" unicode="=" 
d="M335 449v-66h-290v66h290zM335 317v-66h-290v66h290z" />
    <glyph glyph-name="greater" unicode="&#x3e;" 
d="M45 463v70l290 -146v-74l-290 -146v70l224 113z" />
    <glyph glyph-name="question" unicode="?" horiz-adv-x="400" 
d="M50 510v130l60 60h180l60 -60v-211l-120 -101l-6 -138h-47l-8 169l111 93v182h-164v-124h-66zM166 0v70h70v-70h-70z" />
    <glyph glyph-name="at" unicode="@" horiz-adv-x="610" 
d="M245 195h105v122h-105v-122zM109 65h462v-65h-492l-40 40v620l40 40h452l40 -40v-490l-40 -40h-146l-33 33l-33 -33h-104l-40 40v172l40 40h135v123h-105v-74h-60v99l40 40h155l40 -40v-335h81v440h-392v-570z" />
    <glyph glyph-name="A" unicode="A" horiz-adv-x="387" 
d="M264 64l-18 131h-117l-19 -131h43v-64h-143v64h43l89 636h103l90 -636h42v-64h-154v64h41zM187 575l-46 -312h93z" />
    <glyph glyph-name="B" unicode="B" horiz-adv-x="376" 
d="M341 335v-294l-41 -41h-277v64h48v572h-48v64h269l40 -40v-285l-15 -15zM141 323v-259h130v259h-130zM141 636v-249h120v249h-120z" />
    <glyph glyph-name="C" unicode="C" horiz-adv-x="345" 
d="M270 0h-194l-41 41v619l41 40h194l40 -40v-148h-63v124h-142v-572h142v124h63v-147z" />
    <glyph glyph-name="D" unicode="D" horiz-adv-x="376" 
d="M341 660v-619l-41 -41h-277v64h48v572h-48v64h277zM141 636v-572h130v572h-130z" />
    <glyph glyph-name="E" unicode="E" horiz-adv-x="347" 
d="M325 0h-302v64h48v572h-48v64h302v-189h-67v125h-117v-249h124v-64h-124v-259h117v125h67v-189z" />
    <glyph glyph-name="F" unicode="F" horiz-adv-x="349" 
d="M188 64v-64h-165v64h48v572h-48v64h302v-189h-67v125h-117v-259h128v-64h-128v-249h47z" />
    <glyph glyph-name="G" unicode="G" horiz-adv-x="340" 
d="M265 0h-189l-41 41v619l41 40h189l40 -40v-149h-70v125h-130v-572h130v222h-52v64h122v-309z" />
    <glyph glyph-name="H" unicode="H" horiz-adv-x="408" 
d="M220 0v64h48v259h-127v-259h47v-64h-165v64h48v572h-48v64h165v-64h-47v-249h127v249h-48v64h165v-64h-47v-572h47v-64h-165z" />
    <glyph glyph-name="I" unicode="I" horiz-adv-x="211" 
d="M141 636v-572h47v-64h-165v64h48v572h-48v64h165v-64h-47z" />
    <glyph glyph-name="J" unicode="J" horiz-adv-x="300" 
d="M188 0h-138l-42 41v148h68v-125h82v572h-46v64h164v-64h-48v-595z" />
    <glyph glyph-name="K" unicode="K" horiz-adv-x="408" 
d="M389 64v-64h-156v64h39l-82 237l-49 -111v-126h47v-64h-165v64h48v572h-48v64h165v-64h-47v-285l125 285h-39v64h151v-64h-40l-105 -238l115 -334h41z" />
    <glyph glyph-name="L" unicode="L" horiz-adv-x="319" 
d="M141 636v-572h87v125h67v-189h-272v64h48v572h-48v64h165v-64h-47z" />
    <glyph glyph-name="M" unicode="M" horiz-adv-x="516" 
d="M224 130l-89 359v-425h47v-64h-159v64h48v572h-48v64h132l105 -417l105 417h128v-64h-48v-572h48v-64h-165v64h47v444l-93 -378h-58z" />
    <glyph glyph-name="N" unicode="N" horiz-adv-x="414" 
d="M391 700v-64h-48v-636h-77l-128 469v-405h47v-64h-162v64h48v572h-48v64h124l129 -470v406h-47v64h162z" />
    <glyph glyph-name="O" unicode="O" horiz-adv-x="340" 
d="M305 660v-619l-40 -41h-189l-41 41v619l41 40h189zM235 64v572h-130v-572h130z" />
    <glyph glyph-name="P" unicode="P" horiz-adv-x="376" 
d="M141 271v-207h47v-64h-165v64h48v572h-48v64h277l41 -40v-347l-41 -42h-159zM141 636v-301h130v301h-130z" />
    <glyph glyph-name="Q" unicode="Q" horiz-adv-x="340" 
d="M305 660v-611l82 -82l-49 -49l-82 82h-180l-41 41v619l41 40h189zM235 64v572h-130v-572h130z" />
    <glyph glyph-name="R" unicode="R" horiz-adv-x="379" 
d="M141 271v-207h47v-64h-165v64h48v572h-48v64h277l41 -40v-347l-41 -42h-22l41 -207h37v-64h-94l-57 271h-64zM141 636v-301h130v301h-130z" />
    <glyph glyph-name="S" unicode="S" horiz-adv-x="350" 
d="M243 64v259h-159l-40 41v296l40 40h182l41 -40v-149h-64v125h-129v-249h159l40 -40v-306l-40 -41h-195l-41 41v148h64v-125h142z" />
    <glyph glyph-name="T" unicode="T" horiz-adv-x="386" 
d="M17 511v189h352v-189h-67v125h-74v-572h47v-64h-164v64h47v572h-74v-125h-67z" />
    <glyph glyph-name="U" unicode="U" horiz-adv-x="415" 
d="M220 636v64h171v-64h-46v-595l-42 -41h-192l-40 41v595h-48v64h162v-64h-46v-572h129v572h-48z" />
    <glyph glyph-name="V" unicode="V" horiz-adv-x="387" 
d="M202 95l79 541h-42v64h138v-64h-39l-90 -636h-109l-90 636h-39v64h152v-64h-43l79 -541h4z" />
    <glyph glyph-name="W" unicode="W" horiz-adv-x="550" 
d="M318 640l69 -496h4l46 492h-39v64h142v-64h-34l-71 -636h-92l-66 471h-4l-66 -471h-92l-71 636h-34v64h148v-64h-39l46 -492h4l69 496h80z" />
    <glyph glyph-name="X" unicode="X" horiz-adv-x="379" 
d="M217 636v64h139v-64h-36l-100 -260l116 -312h37v-64h-152v64h40l-74 192l-77 -192h40v-64h-140v64h36l110 284l-106 288h-37v64h154v-64h-41l64 -166l66 166h-39z" />
    <glyph glyph-name="Y" unicode="Y" horiz-adv-x="361" 
d="M264 64v-64h-164v64h48v188l-104 384h-35v64h148v-64h-40l66 -266h4l65 266h-41v64h141v-64h-35l-99 -374v-198h46z" />
    <glyph glyph-name="Z" unicode="Z" horiz-adv-x="329" 
d="M306 0h-283v58l200 578h-118v-125h-74v189h264v-58l-198 -578h135v125h74v-189z" />
    <glyph glyph-name="bracketleft" unicode="[" horiz-adv-x="220" 
d="M190 -34v-66h-140v900h140v-66h-70v-768h70z" />
    <glyph glyph-name="backslash" unicode="\" horiz-adv-x="300" 
d="M65 800l235 -900h-65l-235 900h65z" />
    <glyph glyph-name="bracketright" unicode="]" horiz-adv-x="220" 
d="M30 734v66h140v-900h-140v66h70v768h-70z" />
    <glyph glyph-name="asciicircum" unicode="^" 
d="M77 410h-70l146 290h74l146 -290h-70l-113 224z" />
    <glyph glyph-name="underscore" unicode="_" horiz-adv-x="200" 
d="M200 -67v-66h-200v66h200z" />
    <glyph glyph-name="grave" unicode="`" horiz-adv-x="336" 
d="M76 700h70l58 -135h-70z" />
    <glyph glyph-name="a" unicode="a" horiz-adv-x="325" 
d="M298 65v-65h-104v34l-34 -34h-101l-40 40v202l40 40h135v153h-105v-74h-60v99l40 40h155l40 -40v-395h34zM89 65h105v152h-105v-152z" />
    <glyph glyph-name="b" unicode="b" horiz-adv-x="331" 
d="M303 460v-420l-40 -40h-101l-34 34v-34h-104v65h34v570h-34v65h104v-234l34 34h101zM233 65v370h-105v-370h105z" />
    <glyph glyph-name="c" unicode="c" horiz-adv-x="289" 
d="M200 65v135h60v-160l-40 -40h-151l-40 40v420l40 40h151l40 -40v-160h-60v135h-101v-370h101z" />
    <glyph glyph-name="d" unicode="d" horiz-adv-x="331" 
d="M29 40v420l40 40h101l34 -34v169h-34v65h104v-635h34v-65h-104v34l-34 -34h-101zM99 435v-370h105v370h-105z" />
    <glyph glyph-name="e" unicode="e" horiz-adv-x="303" 
d="M214 65v74h60v-99l-40 -40h-165l-40 40v420l40 40h165l40 -40v-243h-175v-152h115zM99 435v-153h105v153h-105z" />
    <glyph glyph-name="f" unicode="f" horiz-adv-x="282" 
d="M147 64h32v-64h-135v64h32v371h-56v65h56v160l40 40h128l40 -40v-85h-60v60h-77v-135h113v-65h-113v-371z" />
    <glyph glyph-name="g" unicode="g" horiz-adv-x="298" 
d="M29 40v420l40 40h101l34 -34v34h70v-660l-40 -40h-165l-40 40v99h60v-74h115v169l-34 -34h-101zM99 435v-370h105v370h-105z" />
    <glyph glyph-name="h" unicode="h" horiz-adv-x="360" 
d="M24 635v65h104v-234l34 34h101l40 -40v-395h33v-65h-103v435h-105v-370h33v-65h-137v65h34v570h-34z" />
    <glyph glyph-name="i" unicode="i" horiz-adv-x="185" 
d="M46 616v84h84v-84h-84zM25 435v65h103v-435h33v-65h-136v65h33v370h-33z" />
    <glyph glyph-name="j" unicode="j" horiz-adv-x="179" 
d="M128 -160l-40 -40h-110l-40 40v102h60v-78h60v572h-33v64h103v-660zM46 616v84h84v-84h-84z" />
    <glyph glyph-name="k" unicode="k" horiz-adv-x="354" 
d="M25 635v65h103v-411l95 146h-33v65h140v-65h-29l-103 -157l107 -213h30v-65h-135v65h26l-73 145l-25 -39v-106h33v-65h-136v65h33v570h-33z" />
    <glyph glyph-name="l" unicode="l" horiz-adv-x="185" 
d="M25 636v64h103v-636h33v-64h-136v64h33v572h-33z" />
    <glyph glyph-name="m" unicode="m" horiz-adv-x="488" 
d="M24 435v65h104v-34l34 34h82l33 -33l33 33h80l40 -40v-395h34v-65h-104v435h-81v-370h34v-65h-104v435h-81v-370h33v-65h-137v65h34v370h-34z" />
    <glyph glyph-name="n" unicode="n" horiz-adv-x="360" 
d="M24 435v65h104v-34l34 34h101l40 -40v-395h33v-65h-103v435h-105v-370h33v-65h-137v65h34v370h-34z" />
    <glyph glyph-name="o" unicode="o" horiz-adv-x="303" 
d="M274 460v-420l-40 -40h-165l-40 40v420l40 40h165zM204 65v370h-105v-370h105z" />
    <glyph glyph-name="p" unicode="p" horiz-adv-x="331" 
d="M303 460v-420l-40 -40h-101l-34 34v-169h33v-65h-137v65h34v570h-34v65h104v-34l34 34h101zM233 65v370h-105v-370h105z" />
    <glyph glyph-name="q" unicode="q" horiz-adv-x="331" 
d="M29 40v420l40 40h101l34 -34v34h70v-635h34v-65h-138v65h34v169l-34 -34h-101zM99 435v-370h105v370h-105z" />
    <glyph glyph-name="r" unicode="r" horiz-adv-x="311" 
d="M24 435v65h104v-34l34 34h78l40 -40v-99h-70v74h-82v-370h33v-65h-137v65h34v370h-34z" />
    <glyph glyph-name="s" unicode="s" horiz-adv-x="283" 
d="M194 65v153h-125l-40 40v202l40 40h145l40 -40v-99h-60v74h-95v-153h125l40 -40v-202l-40 -40h-165l-40 40v99h60v-74h115z" />
    <glyph glyph-name="t" unicode="t" horiz-adv-x="282" 
d="M20 500h55v100h70v-100h115v-65h-115v-370h55v74h60v-99l-40 -40h-105l-40 40v395h-55v65z" />
    <glyph glyph-name="u" unicode="u" horiz-adv-x="360" 
d="M128 500v-435h105v370h-34v65h104v-435h33v-65h-103v34l-34 -34h-101l-40 40v395h-34v65h104z" />
    <glyph glyph-name="v" unicode="v" horiz-adv-x="320" 
d="M145 500v-65h-37l51 -357h4l51 357h-37v65h133v-65h-32l-67 -435h-102l-67 435h-32v65h135z" />
    <glyph glyph-name="w" unicode="w" horiz-adv-x="490" 
d="M296 0l-49 380h-4l-49 -380h-108l-43 435h-31v65h132v-65h-35l33 -337h4l58 402h85l58 -402h4l33 337h-35v65h129v-65h-31l-43 -435h-108z" />
    <glyph glyph-name="x" unicode="x" horiz-adv-x="309" 
d="M115 435l45 -101l41 101h-22v65h117v-65h-20l-79 -185l83 -185h21v-65h-122v65h22l-50 112l-46 -112h22v-65h-117v65h20l83 196l-77 174h-21v65h122v-65h-22z" />
    <glyph glyph-name="y" unicode="y" horiz-adv-x="316" 
d="M209 435h-28v65h125v-65h-28l-123 -570h27v-65h-124v65h28l37 172l-82 398h-31v65h135v-65h-32l44 -270h4z" />
    <glyph glyph-name="z" unicode="z" horiz-adv-x="283" 
d="M29 361v139h225v-72l-162 -363h112v74h60v-139h-245v72l162 363h-92v-74h-60z" />
    <glyph glyph-name="braceleft" unicode="{" horiz-adv-x="220" 
d="M140 374l-24 -24l24 -24v-360h50v-66h-83l-37 37v380h-50v66h50v380l37 37h83v-66h-50v-360z" />
    <glyph glyph-name="bar" unicode="|" horiz-adv-x="220" 
d="M75 -100v900h70v-900h-70z" />
    <glyph glyph-name="braceright" unicode="}" horiz-adv-x="220" 
d="M150 -63l-37 -37h-83v66h50v360l24 24l-24 24v360h-50v66h83l37 -37v-380h50v-66h-50v-380z" />
    <glyph glyph-name="asciitilde" unicode="~" 
d="M295 303l-190 34v-45h-60v65l40 40l190 -34v45h60v-65z" />
    <glyph glyph-name="nbspace" unicode="&#xa0;" horiz-adv-x="200" 
 />
    <glyph glyph-name="exclamdown" unicode="&#xa1;" horiz-adv-x="200" 
d="M124 510l23 -510h-94l24 510h47zM135 700v-70h-70v70h70z" />
    <glyph glyph-name="cent" unicode="&#xa2;" 
d="M110 535v-370h170v74h60v-99l-40 -40h-75v-100h-70v100h-75l-40 40v420l40 40h75v100h70v-100h75l40 -40v-99h-60v74h-170z" />
    <glyph glyph-name="sterling" unicode="&#xa3;" 
d="M335 65v-65h-290v65h50v250h-50v65h50v280l40 40h150l40 -40v-99h-60v74h-100v-255h100v-65h-100v-250h170z" />
    <glyph glyph-name="yen" unicode="&#xa5;" 
d="M154 0v119h-109v66h109v66h-109v66h90l-115 383h68l103 -344l102 344h67l-115 -383h90v-66h-111v-66h111v-66h-111v-119h-70z" />
    <glyph glyph-name="section" unicode="&#xa7;" horiz-adv-x="353" 
d="M314 260l-40 -40v-180l-40 -40h-145l-40 40v99h60v-74h95v135h-125l-40 40v200l40 40v180l40 40h145l40 -40v-99h-60v74h-95v-135h125l40 -40v-200zM109 435v-170h135v170h-135z" />
    <glyph glyph-name="dieresis" unicode="&#xa8;" horiz-adv-x="336" 
d="M58 590v84h84v-84h-84zM196 590v84h84v-84h-84z" />
    <glyph glyph-name="copyright" unicode="&#xa9;" horiz-adv-x="579" 
d="M344 195v95h60v-120l-40 -40h-151l-40 40v360l40 40h151l40 -40v-120h-60v95h-101v-310h101zM500 0h-421l-40 40v620l40 40h421l40 -40v-620zM109 65h361v570h-361v-570z" />
    <glyph glyph-name="ordfeminine" unicode="&#xaa;" horiz-adv-x="325" 
d="M298 265v-65h-104v34l-34 -34h-101l-40 40v202l40 40h135v153h-105v-74h-60v99l40 40h155l40 -40v-395h34zM89 265h105v152h-105v-152zM19 65h279v-65h-279v65z" />
    <glyph glyph-name="uni00AD" unicode="&#xad;" horiz-adv-x="260" 
d="M212 334v-66h-164v66h164z" />
    <glyph glyph-name="registered" unicode="&#xae;" horiz-adv-x="318" 
d="M264 350h-215l-15 15v315l20 20h210l20 -20v-310zM64 382h185v285h-185v-285zM134 602v-77h48v77h-48zM224 415h-34l-23 77h-33v-77h-35v220h98l20 -20v-103l-17 -17z" />
    <glyph glyph-name="macron" unicode="&#xaf;" horiz-adv-x="336" 
d="M252 662v-60h-167v60h167z" />
    <glyph glyph-name="degree" unicode="&#xb0;" horiz-adv-x="303" 
d="M264 435h-185l-40 40v185l40 40h185l40 -40v-185zM99 495h140v140h-140v-140z" />
    <glyph glyph-name="plusminus" unicode="&#xb1;" 
d="M157 554h66v-112h112v-66h-112v-112h-66v112h-112v66h112v112zM335 212v-66h-290v66h290z" />
    <glyph glyph-name="acute" unicode="&#xb4;" horiz-adv-x="336" 
d="M191 700h70l-58 -135h-70z" />
    <glyph glyph-name="paragraph" unicode="&#xb6;" horiz-adv-x="331" 
d="M145 599h53v-599h-53v200h-66l-40 40v420l40 40h225v-700h-70v635h-125v-370h36v334z" />
    <glyph glyph-name="periodcentered" unicode="&#xb7;" horiz-adv-x="200" 
d="M65 266v70h70v-70h-70z" />
    <glyph glyph-name="cedilla" unicode="&#xb8;" horiz-adv-x="336" 
d="M193 -30v-35h33l30 -30v-75l-30 -30h-120v50h100v35h-43l-20 20v65h50z" />
    <glyph glyph-name="ordmasculine" unicode="&#xba;" horiz-adv-x="303" 
d="M274 660v-420l-40 -40h-165l-40 40v420l40 40h165zM204 265v370h-105v-370h105zM27 65h240v-65h-240v65z" />
    <glyph glyph-name="questiondown" unicode="&#xbf;" horiz-adv-x="400" 
d="M350 190v-130l-60 -60h-180l-60 60v211l120 101l6 138h47l8 -169l-111 -93v-182h164v124h66zM234 700v-70h-70v70h70z" />
    <glyph glyph-name="Agrave" unicode="&#xc0;" horiz-adv-x="387" 
d="M264 64l-18 131h-117l-19 -131h43v-64h-143v64h43l89 636h103l90 -636h42v-64h-154v64h41zM187 575l-46 -312h93zM101 900h70l58 -135h-70z" />
    <glyph glyph-name="Aacute" unicode="&#xc1;" horiz-adv-x="387" 
d="M264 64l-18 131h-117l-19 -131h43v-64h-143v64h43l89 636h103l90 -636h42v-64h-154v64h41zM187 575l-46 -312h93zM216 900h70l-58 -135h-70z" />
    <glyph glyph-name="Acircumflex" unicode="&#xc2;" horiz-adv-x="387" 
d="M264 64l-18 131h-117l-19 -131h43v-64h-143v64h43l89 636h103l90 -636h42v-64h-154v64h41zM187 575l-46 -312h93zM156 900h75l68 -135h-70l-36 70l-35 -70h-70z" />
    <glyph glyph-name="Atilde" unicode="&#xc3;" horiz-adv-x="387" 
d="M264 64l-18 131h-117l-19 -131h43v-64h-143v64h43l89 636h103l90 -636h42v-64h-154v64h41zM187 575l-46 -312h93zM257 775l-107 45v-55h-60v85l40 40l107 -45v55h60v-85z" />
    <glyph glyph-name="Adieresis" unicode="&#xc4;" horiz-adv-x="387" 
d="M264 64l-18 131h-117l-19 -131h43v-64h-143v64h43l89 636h103l90 -636h42v-64h-154v64h41zM187 575l-46 -312h93zM83 790v84h84v-84h-84zM221 790v84h84v-84h-84z" />
    <glyph glyph-name="Aring" unicode="&#xc5;" horiz-adv-x="387" 
d="M264 64l-18 131h-117l-19 -131h43v-64h-143v64h43l89 636h103l90 -636h42v-64h-154v64h41zM187 575l-46 -312h93zM164 863v-62h59v62h-59zM125 795v75l30 30h77l30 -30v-75l-30 -30h-77z" />
    <glyph glyph-name="AE" unicode="&#xc6;" horiz-adv-x="500" 
d="M264 64l-18 131h-117l-19 -131h43v-64h-143v64h43l89 636h336v-189h-67v125h-157l35 -249h129v-64h-120l37 -259h76v125h67v-189h-255v64h41zM187 575l-46 -312h93z" />
    <glyph glyph-name="Ccedilla" unicode="&#xc7;" horiz-adv-x="345" 
d="M270 0h-194l-41 41v619l41 40h194l40 -40v-148h-63v124h-142v-572h142v124h63v-147zM197 -30v-35h33l30 -30v-75l-30 -30h-120v50h100v35h-43l-20 20v65h50z" />
    <glyph glyph-name="Egrave" unicode="&#xc8;" horiz-adv-x="347" 
d="M325 0h-302v64h48v572h-48v64h302v-189h-67v125h-117v-249h124v-64h-124v-259h117v125h67v-189zM82 900h70l58 -135h-70z" />
    <glyph glyph-name="Eacute" unicode="&#xc9;" horiz-adv-x="347" 
d="M325 0h-302v64h48v572h-48v64h302v-189h-67v125h-117v-249h124v-64h-124v-259h117v125h67v-189zM197 900h70l-58 -135h-70z" />
    <glyph glyph-name="Ecircumflex" unicode="&#xca;" horiz-adv-x="347" 
d="M325 0h-302v64h48v572h-48v64h302v-189h-67v125h-117v-249h124v-64h-124v-259h117v125h67v-189zM137 900h75l68 -135h-70l-36 70l-35 -70h-70z" />
    <glyph glyph-name="Edieresis" unicode="&#xcb;" horiz-adv-x="347" 
d="M325 0h-302v64h48v572h-48v64h302v-189h-67v125h-117v-249h124v-64h-124v-259h117v125h67v-189zM64 790v84h84v-84h-84zM202 790v84h84v-84h-84z" />
    <glyph glyph-name="Igrave" unicode="&#xcc;" horiz-adv-x="211" 
d="M141 636v-572h47v-64h-165v64h48v572h-48v64h165v-64h-47zM13 900h70l58 -135h-70z" />
    <glyph glyph-name="Iacute" unicode="&#xcd;" horiz-adv-x="211" 
d="M141 636v-572h47v-64h-165v64h48v572h-48v64h165v-64h-47zM128 900h70l-58 -135h-70z" />
    <glyph glyph-name="Icircumflex" unicode="&#xce;" horiz-adv-x="211" 
d="M141 636v-572h47v-64h-165v64h48v572h-48v64h165v-64h-47zM68 900h75l68 -135h-70l-36 70l-35 -70h-70z" />
    <glyph glyph-name="Idieresis" unicode="&#xcf;" horiz-adv-x="211" 
d="M141 636v-572h47v-64h-165v64h48v572h-48v64h165v-64h-47zM-5 790v84h84v-84h-84zM133 790v84h84v-84h-84z" />
    <glyph glyph-name="Eth" unicode="&#xd0;" horiz-adv-x="376" 
d="M341 660v-619l-41 -41h-277v64h48v254h-48v64h48v254h-48v64h277zM141 636v-254h80v-64h-80v-254h130v572h-130z" />
    <glyph glyph-name="Ntilde" unicode="&#xd1;" horiz-adv-x="414" 
d="M391 700v-64h-48v-636h-77l-128 469v-405h47v-64h-162v64h48v572h-48v64h124l129 -470v406h-47v64h162zM271 775l-107 45v-55h-60v85l40 40l107 -45v55h60v-85z" />
    <glyph glyph-name="Ograve" unicode="&#xd2;" horiz-adv-x="340" 
d="M305 660v-619l-40 -41h-189l-41 41v619l41 40h189zM235 64v572h-130v-572h130zM78 900h70l58 -135h-70z" />
    <glyph glyph-name="Oacute" unicode="&#xd3;" horiz-adv-x="340" 
d="M305 660v-619l-40 -41h-189l-41 41v619l41 40h189zM235 64v572h-130v-572h130zM193 900h70l-58 -135h-70z" />
    <glyph glyph-name="Ocircumflex" unicode="&#xd4;" horiz-adv-x="340" 
d="M305 660v-619l-40 -41h-189l-41 41v619l41 40h189zM235 64v572h-130v-572h130zM133 900h75l68 -135h-70l-36 70l-35 -70h-70z" />
    <glyph glyph-name="Otilde" unicode="&#xd5;" horiz-adv-x="340" 
d="M305 660v-619l-40 -41h-189l-41 41v619l41 40h189zM235 64v572h-130v-572h130zM234 775l-107 45v-55h-60v85l40 40l107 -45v55h60v-85z" />
    <glyph glyph-name="Odieresis" unicode="&#xd6;" horiz-adv-x="340" 
d="M305 660v-619l-40 -41h-189l-41 41v619l41 40h189zM235 64v572h-130v-572h130zM60 790v84h84v-84h-84zM198 790v84h84v-84h-84z" />
    <glyph glyph-name="multiply" unicode="&#xd7;" 
d="M44 449l47 47l99 -99l99 99l47 -47l-99 -99l99 -99l-47 -47l-99 99l-99 -99l-47 47l99 99z" />
    <glyph glyph-name="Oslash" unicode="&#xd8;" horiz-adv-x="340" 
d="M39 -50l19 68l-23 23v619l41 40h176l14 50h35l-19 -67l23 -23v-619l-40 -41h-177l-14 -50h-35zM235 64v454l-129 -454h129zM105 636v-453l129 453h-129z" />
    <glyph glyph-name="Ugrave" unicode="&#xd9;" horiz-adv-x="415" 
d="M220 636v64h171v-64h-46v-595l-42 -41h-192l-40 41v595h-48v64h162v-64h-46v-572h129v572h-48zM115 900h70l58 -135h-70z" />
    <glyph glyph-name="Uacute" unicode="&#xda;" horiz-adv-x="415" 
d="M220 636v64h171v-64h-46v-595l-42 -41h-192l-40 41v595h-48v64h162v-64h-46v-572h129v572h-48zM230 900h70l-58 -135h-70z" />
    <glyph glyph-name="Ucircumflex" unicode="&#xdb;" horiz-adv-x="415" 
d="M220 636v64h171v-64h-46v-595l-42 -41h-192l-40 41v595h-48v64h162v-64h-46v-572h129v572h-48zM170 900h75l68 -135h-70l-36 70l-35 -70h-70z" />
    <glyph glyph-name="Udieresis" unicode="&#xdc;" horiz-adv-x="415" 
d="M220 636v64h171v-64h-46v-595l-42 -41h-192l-40 41v595h-48v64h162v-64h-46v-572h129v572h-48zM97 790v84h84v-84h-84zM235 790v84h84v-84h-84z" />
    <glyph glyph-name="Yacute" unicode="&#xdd;" horiz-adv-x="361" 
d="M203 900h70l-58 -135h-70zM264 64v-64h-164v64h48v188l-104 384h-35v64h148v-64h-40l66 -266h4l65 266h-41v64h141v-64h-35l-99 -374v-198h46z" />
    <glyph glyph-name="Thorn" unicode="&#xde;" horiz-adv-x="376" 
d="M71 636h-48v64h165v-64h-47v-72h159l41 -40v-346l-41 -42h-159v-72h47v-64h-165v64h48v572zM141 500v-300h130v300h-130z" />
    <glyph glyph-name="germandbls" unicode="&#xdf;" horiz-adv-x="420" 
d="M57 65v595l40 40h224l40 -40v-185l-40 -40h-45v-153h75l40 -40v-202l-40 -40h-115l-40 40v99h60v-74h65v153h-75l-40 40v202l40 40h55v135h-173v-570h32v-65h-135v65h32z" />
    <glyph glyph-name="agrave" unicode="&#xe0;" horiz-adv-x="325" 
d="M298 65v-65h-104v34l-34 -34h-101l-40 40v202l40 40h135v153h-105v-74h-60v99l40 40h155l40 -40v-395h34zM89 65h105v152h-105v-152zM46 700h70l58 -135h-70z" />
    <glyph glyph-name="aacute" unicode="&#xe1;" horiz-adv-x="325" 
d="M298 65v-65h-104v34l-34 -34h-101l-40 40v202l40 40h135v153h-105v-74h-60v99l40 40h155l40 -40v-395h34zM89 65h105v152h-105v-152zM171 700h70l-58 -135h-70z" />
    <glyph glyph-name="acircumflex" unicode="&#xe2;" horiz-adv-x="325" 
d="M298 65v-65h-104v34l-34 -34h-101l-40 40v202l40 40h135v153h-105v-74h-60v99l40 40h155l40 -40v-395h34zM89 65h105v152h-105v-152zM101 700h75l68 -135h-70l-36 70l-35 -70h-70z" />
    <glyph glyph-name="atilde" unicode="&#xe3;" horiz-adv-x="325" 
d="M298 65v-65h-104v34l-34 -34h-101l-40 40v202l40 40h135v153h-105v-74h-60v99l40 40h155l40 -40v-395h34zM89 65h105v152h-105v-152zM202 575l-107 45v-55h-60v85l40 40l107 -45v55h60v-85z" />
    <glyph glyph-name="adieresis" unicode="&#xe4;" horiz-adv-x="325" 
d="M298 65v-65h-104v34l-34 -34h-101l-40 40v202l40 40h135v153h-105v-74h-60v99l40 40h155l40 -40v-395h34zM89 65h105v152h-105v-152zM28 590v84h84v-84h-84zM166 590v84h84v-84h-84z" />
    <glyph glyph-name="aring" unicode="&#xe5;" horiz-adv-x="325" 
d="M298 65v-65h-104v34l-34 -34h-101l-40 40v202l40 40h135v153h-105v-74h-60v99l40 40h155l40 -40v-395h34zM89 65h105v152h-105v-152zM109 663v-62h59v62h-59zM70 595v75l30 30h77l30 -30v-75l-30 -30h-77z" />
    <glyph glyph-name="ae" unicode="&#xe6;" horiz-adv-x="468" 
d="M379 65v74h60v-99l-40 -40h-137l-33 33l-33 -33h-137l-40 40v202l40 40h135v153h-105v-74h-60v99l40 40h127l33 -33l33 33h137l40 -40v-243h-175v-152h115zM264 435v-153h105v153h-105zM89 65h105v152h-105v-152z" />
    <glyph glyph-name="ccedilla" unicode="&#xe7;" horiz-adv-x="289" 
d="M200 65v135h60v-160l-40 -40h-151l-40 40v420l40 40h151l40 -40v-160h-60v135h-101v-370h101zM169 -30v-35h33l30 -30v-75l-30 -30h-120v50h100v35h-43l-20 20v65h50z" />
    <glyph glyph-name="egrave" unicode="&#xe8;" horiz-adv-x="303" 
d="M214 65v74h60v-99l-40 -40h-165l-40 40v420l40 40h165l40 -40v-243h-175v-152h115zM99 435v-153h105v153h-105zM59 700h70l58 -135h-70z" />
    <glyph glyph-name="eacute" unicode="&#xe9;" horiz-adv-x="303" 
d="M214 65v74h60v-99l-40 -40h-165l-40 40v420l40 40h165l40 -40v-243h-175v-152h115zM99 435v-153h105v153h-105zM174 700h70l-58 -135h-70z" />
    <glyph glyph-name="ecircumflex" unicode="&#xea;" horiz-adv-x="303" 
d="M214 65v74h60v-99l-40 -40h-165l-40 40v420l40 40h165l40 -40v-243h-175v-152h115zM99 435v-153h105v153h-105zM114 700h75l68 -135h-70l-36 70l-35 -70h-70z" />
    <glyph glyph-name="edieresis" unicode="&#xeb;" horiz-adv-x="303" 
d="M214 65v74h60v-99l-40 -40h-165l-40 40v420l40 40h165l40 -40v-243h-175v-152h115zM99 435v-153h105v153h-105zM41 590v84h84v-84h-84zM179 590v84h84v-84h-84z" />
    <glyph glyph-name="igrave" unicode="&#xec;" horiz-adv-x="185" 
d="M25 435v65h103v-435h33v-65h-136v65h33v370h-33zM1 700h70l58 -135h-70z" />
    <glyph glyph-name="iacute" unicode="&#xed;" horiz-adv-x="185" 
d="M25 435v65h103v-435h33v-65h-136v65h33v370h-33zM116 700h70l-58 -135h-70z" />
    <glyph glyph-name="icircumflex" unicode="&#xee;" horiz-adv-x="185" 
d="M25 435v65h103v-435h33v-65h-136v65h33v370h-33zM56 700h75l68 -135h-70l-36 70l-35 -70h-70z" />
    <glyph glyph-name="idieresis" unicode="&#xef;" horiz-adv-x="185" 
d="M25 435v65h103v-435h33v-65h-136v65h33v370h-33zM-17 590v84h84v-84h-84zM121 590v84h84v-84h-84z" />
    <glyph glyph-name="eth" unicode="&#xf0;" horiz-adv-x="303" 
d="M199 700v-54l-42 -28l117 -138v-440l-40 -40h-165l-40 40v420l40 40h108l-70 83l-78 -53v54l49 33l-69 83h80l40 -48zM204 65v370h-105v-370h105z" />
    <glyph glyph-name="ntilde" unicode="&#xf1;" horiz-adv-x="360" 
d="M24 435v65h104v-34l34 34h101l40 -40v-395h33v-65h-103v435h-105v-370h33v-65h-137v65h34v370h-34zM244 575l-107 45v-55h-60v85l40 40l107 -45v55h60v-85z" />
    <glyph glyph-name="ograve" unicode="&#xf2;" horiz-adv-x="303" 
d="M274 460v-420l-40 -40h-165l-40 40v420l40 40h165zM204 65v370h-105v-370h105zM59 700h70l58 -135h-70z" />
    <glyph glyph-name="oacute" unicode="&#xf3;" horiz-adv-x="303" 
d="M274 460v-420l-40 -40h-165l-40 40v420l40 40h165zM204 65v370h-105v-370h105zM174 700h70l-58 -135h-70z" />
    <glyph glyph-name="ocircumflex" unicode="&#xf4;" horiz-adv-x="303" 
d="M274 460v-420l-40 -40h-165l-40 40v420l40 40h165zM204 65v370h-105v-370h105zM114 700h75l68 -135h-70l-36 70l-35 -70h-70z" />
    <glyph glyph-name="otilde" unicode="&#xf5;" horiz-adv-x="303" 
d="M274 460v-420l-40 -40h-165l-40 40v420l40 40h165zM204 65v370h-105v-370h105zM215 575l-107 45v-55h-60v85l40 40l107 -45v55h60v-85z" />
    <glyph glyph-name="odieresis" unicode="&#xf6;" horiz-adv-x="303" 
d="M274 460v-420l-40 -40h-165l-40 40v420l40 40h165zM204 65v370h-105v-370h105zM41 590v84h84v-84h-84zM179 590v84h84v-84h-84z" />
    <glyph glyph-name="divide" unicode="&#xf7;" 
d="M335 383v-66h-290v66h290zM155 435v70h70v-70h-70zM225 265v-70h-70v70h70z" />
    <glyph glyph-name="oslash" unicode="&#xf8;" horiz-adv-x="303" 
d="M33 -50l21 64l-25 26v420l40 40h149l17 50h35l-22 -65l26 -25v-420l-40 -40h-149l-17 -50h-35zM99 435v-289l97 289h-97zM204 65v288l-97 -288h97z" />
    <glyph glyph-name="ugrave" unicode="&#xf9;" horiz-adv-x="360" 
d="M128 500v-435h105v370h-34v65h104v-435h33v-65h-103v34l-34 -34h-101l-40 40v395h-34v65h104zM88 700h70l58 -135h-70z" />
    <glyph glyph-name="uacute" unicode="&#xfa;" horiz-adv-x="360" 
d="M128 500v-435h105v370h-34v65h104v-435h33v-65h-103v34l-34 -34h-101l-40 40v395h-34v65h104zM203 700h70l-58 -135h-70z" />
    <glyph glyph-name="ucircumflex" unicode="&#xfb;" horiz-adv-x="360" 
d="M128 500v-435h105v370h-34v65h104v-435h33v-65h-103v34l-34 -34h-101l-40 40v395h-34v65h104zM143 700h75l68 -135h-70l-36 70l-35 -70h-70z" />
    <glyph glyph-name="udieresis" unicode="&#xfc;" horiz-adv-x="360" 
d="M128 500v-435h105v370h-34v65h104v-435h33v-65h-103v34l-34 -34h-101l-40 40v395h-34v65h104zM70 590v84h84v-84h-84zM208 590v84h84v-84h-84z" />
    <glyph glyph-name="yacute" unicode="&#xfd;" horiz-adv-x="316" 
d="M181 700h70l-58 -135h-70zM209 435h-28v65h125v-65h-28l-123 -570h27v-65h-124v65h28l37 172l-82 398h-31v65h135v-65h-32l44 -270h4z" />
    <glyph glyph-name="thorn" unicode="&#xfe;" horiz-adv-x="331" 
d="M303 460v-420l-40 -40h-101l-34 34v-169h33v-65h-137v65h34v770h-34v65h104v-234l34 34h101zM233 65v370h-105v-370h105z" />
    <glyph glyph-name="ydieresis" unicode="&#xff;" horiz-adv-x="316" 
d="M48 590v84h84v-84h-84zM186 590v84h84v-84h-84zM209 435h-28v65h125v-65h-28l-123 -570h27v-65h-124v65h28l37 172l-82 398h-31v65h135v-65h-32l44 -270h4z" />
    <glyph glyph-name="Amacron" unicode="&#x100;" horiz-adv-x="387" 
d="M264 64l-18 131h-117l-19 -131h43v-64h-143v64h43l89 636h103l90 -636h42v-64h-154v64h41zM187 575l-46 -312h93zM277 862v-60h-167v60h167z" />
    <glyph glyph-name="amacron" unicode="&#x101;" horiz-adv-x="325" 
d="M298 65v-65h-104v34l-34 -34h-101l-40 40v202l40 40h135v153h-105v-74h-60v99l40 40h155l40 -40v-395h34zM89 65h105v152h-105v-152zM222 662v-60h-167v60h167z" />
    <glyph glyph-name="Abreve" unicode="&#x102;" horiz-adv-x="387" 
d="M264 64l-18 131h-117l-19 -131h43v-64h-143v64h43l89 636h103l90 -636h42v-64h-154v64h41zM187 575l-46 -312h93zM237 825v75h60v-95l-40 -40h-127l-40 40v95h60v-75h87z" />
    <glyph glyph-name="abreve" unicode="&#x103;" horiz-adv-x="325" 
d="M298 65v-65h-104v34l-34 -34h-101l-40 40v202l40 40h135v153h-105v-74h-60v99l40 40h155l40 -40v-395h34zM89 65h105v152h-105v-152zM182 625v75h60v-95l-40 -40h-127l-40 40v95h60v-75h87z" />
    <glyph glyph-name="Aogonek" unicode="&#x104;" horiz-adv-x="387" 
d="M264 64l-18 131h-117l-19 -131h43v-64h-143v64h43l89 636h103l90 -636h42v-64l-100 -100v-50h120v-50h-140l-30 30v90l80 80h-84v64h41zM187 575l-46 -312h93z" />
    <glyph glyph-name="aogonek" unicode="&#x105;" horiz-adv-x="325" 
d="M298 65v-65l-100 -100v-50h120v-50h-140l-30 30v90l80 80h-34v34l-34 -34h-101l-40 40v202l40 40h135v153h-105v-74h-60v99l40 40h155l40 -40v-395h34zM89 65h105v152h-105v-152z" />
    <glyph glyph-name="Cacute" unicode="&#x106;" horiz-adv-x="345" 
d="M270 0h-194l-41 41v619l41 40h194l40 -40v-148h-63v124h-142v-572h142v124h63v-147zM195 900h70l-58 -135h-70z" />
    <glyph glyph-name="cacute" unicode="&#x107;" horiz-adv-x="289" 
d="M200 65v135h60v-160l-40 -40h-151l-40 40v420l40 40h151l40 -40v-160h-60v135h-101v-370h101zM167 700h70l-58 -135h-70z" />
    <glyph glyph-name="Ccircumflex" unicode="&#x108;" horiz-adv-x="345" 
d="M270 0h-194l-41 41v619l41 40h194l40 -40v-148h-63v124h-142v-572h142v124h63v-147zM135 900h75l68 -135h-70l-36 70l-35 -70h-70z" />
    <glyph glyph-name="ccircumflex" unicode="&#x109;" horiz-adv-x="289" 
d="M200 65v135h60v-160l-40 -40h-151l-40 40v420l40 40h151l40 -40v-160h-60v135h-101v-370h101zM107 700h75l68 -135h-70l-36 70l-35 -70h-70z" />
    <glyph glyph-name="Cdotaccent" unicode="&#x10a;" horiz-adv-x="345" 
d="M270 0h-194l-41 41v619l41 40h194l40 -40v-148h-63v124h-142v-572h142v124h63v-147zM131 790v84h84v-84h-84z" />
    <glyph glyph-name="cdotaccent" unicode="&#x10b;" horiz-adv-x="289" 
d="M200 65v135h60v-160l-40 -40h-151l-40 40v420l40 40h151l40 -40v-160h-60v135h-101v-370h101zM103 590v84h84v-84h-84z" />
    <glyph glyph-name="Ccaron" unicode="&#x10c;" horiz-adv-x="345" 
d="M270 0h-194l-41 41v619l41 40h194l40 -40v-148h-63v124h-142v-572h142v124h63v-147zM210 765h-75l-68 135h70l35 -71l36 71h70z" />
    <glyph glyph-name="ccaron" unicode="&#x10d;" horiz-adv-x="289" 
d="M200 65v135h60v-160l-40 -40h-151l-40 40v420l40 40h151l40 -40v-160h-60v135h-101v-370h101zM182 565h-75l-68 135h70l35 -71l36 71h70z" />
    <glyph glyph-name="Dcaron" unicode="&#x10e;" horiz-adv-x="376" 
d="M341 660v-619l-41 -41h-277v64h48v572h-48v64h277zM141 636v-572h130v572h-130zM220 765h-75l-68 135h70l35 -71l36 71h70z" />
    <glyph glyph-name="dcaron" unicode="&#x10f;" horiz-adv-x="331" 
d="M29 40v420l40 40h101l34 -34v169h-34v65h104v-635h34v-65h-104v34l-34 -34h-101zM99 435v-370h105v370h-105zM375 525h-70l20 175h70z" />
    <glyph glyph-name="Dcroat" unicode="&#x110;" horiz-adv-x="376" 
d="M341 660v-619l-41 -41h-277v64h48v254h-48v64h48v254h-48v64h277zM141 636v-254h80v-64h-80v-254h130v572h-130z" />
    <glyph glyph-name="dcroat" unicode="&#x111;" horiz-adv-x="341" 
d="M29 40v420l40 40h101l34 -34v74h-80v55h80v40h-34v65h104v-105h61v-55h-61v-475h34v-65h-104v34l-34 -34h-101zM99 435v-370h105v370h-105z" />
    <glyph glyph-name="Emacron" unicode="&#x112;" horiz-adv-x="347" 
d="M325 0h-302v64h48v572h-48v64h302v-189h-67v125h-117v-249h124v-64h-124v-259h117v125h67v-189zM258 862v-60h-167v60h167z" />
    <glyph glyph-name="emacron" unicode="&#x113;" horiz-adv-x="303" 
d="M214 65v74h60v-99l-40 -40h-165l-40 40v420l40 40h165l40 -40v-243h-175v-152h115zM99 435v-153h105v153h-105zM235 662v-60h-167v60h167z" />
    <glyph glyph-name="Ebreve" unicode="&#x114;" horiz-adv-x="347" 
d="M325 0h-302v64h48v572h-48v64h302v-189h-67v125h-117v-249h124v-64h-124v-259h117v125h67v-189zM218 825v75h60v-95l-40 -40h-127l-40 40v95h60v-75h87z" />
    <glyph glyph-name="ebreve" unicode="&#x115;" horiz-adv-x="303" 
d="M214 65v74h60v-99l-40 -40h-165l-40 40v420l40 40h165l40 -40v-243h-175v-152h115zM99 435v-153h105v153h-105zM195 625v75h60v-95l-40 -40h-127l-40 40v95h60v-75h87z" />
    <glyph glyph-name="Edotaccent" unicode="&#x116;" horiz-adv-x="347" 
d="M325 0h-302v64h48v572h-48v64h302v-189h-67v125h-117v-249h124v-64h-124v-259h117v125h67v-189zM133 790v84h84v-84h-84z" />
    <glyph glyph-name="edotaccent" unicode="&#x117;" horiz-adv-x="303" 
d="M214 65v74h60v-99l-40 -40h-165l-40 40v420l40 40h165l40 -40v-243h-175v-152h115zM99 435v-153h105v153h-105zM110 590v84h84v-84h-84z" />
    <glyph glyph-name="Eogonek" unicode="&#x118;" horiz-adv-x="347" 
d="M325 0l-100 -100v-50h120v-50h-140l-30 30v90l80 80h-232v64h48v572h-48v64h302v-189h-67v125h-117v-249h124v-64h-124v-259h117v125h67v-189z" />
    <glyph glyph-name="eogonek" unicode="&#x119;" horiz-adv-x="303" 
d="M214 65v74h60v-99l-140 -140v-50h120v-50h-140l-30 30v90l80 80h-95l-40 40v420l40 40h165l40 -40v-243h-175v-152h115zM99 435v-153h105v153h-105z" />
    <glyph glyph-name="Ecaron" unicode="&#x11a;" horiz-adv-x="347" 
d="M325 0h-302v64h48v572h-48v64h302v-189h-67v125h-117v-249h124v-64h-124v-259h117v125h67v-189zM212 765h-75l-68 135h70l35 -71l36 71h70z" />
    <glyph glyph-name="ecaron" unicode="&#x11b;" horiz-adv-x="303" 
d="M214 65v74h60v-99l-40 -40h-165l-40 40v420l40 40h165l40 -40v-243h-175v-152h115zM99 435v-153h105v153h-105zM189 565h-75l-68 135h70l35 -71l36 71h70z" />
    <glyph glyph-name="Gcircumflex" unicode="&#x11c;" horiz-adv-x="340" 
d="M265 0h-189l-41 41v619l41 40h189l40 -40v-149h-70v125h-130v-572h130v222h-52v64h122v-309zM133 900h75l68 -135h-70l-36 70l-35 -70h-70z" />
    <glyph glyph-name="gcircumflex" unicode="&#x11d;" horiz-adv-x="298" 
d="M29 40v420l40 40h101l34 -34v34h70v-660l-40 -40h-165l-40 40v99h60v-74h115v169l-34 -34h-101zM99 435v-370h105v370h-105zM114 700h75l68 -135h-70l-36 70l-35 -70h-70z" />
    <glyph glyph-name="Gbreve" unicode="&#x11e;" horiz-adv-x="340" 
d="M265 0h-189l-41 41v619l41 40h189l40 -40v-149h-70v125h-130v-572h130v222h-52v64h122v-309zM214 825v75h60v-95l-40 -40h-127l-40 40v95h60v-75h87z" />
    <glyph glyph-name="gbreve" unicode="&#x11f;" horiz-adv-x="298" 
d="M29 40v420l40 40h101l34 -34v34h70v-660l-40 -40h-165l-40 40v99h60v-74h115v169l-34 -34h-101zM99 435v-370h105v370h-105zM195 625v75h60v-95l-40 -40h-127l-40 40v95h60v-75h87z" />
    <glyph glyph-name="Gdotaccent" unicode="&#x120;" horiz-adv-x="340" 
d="M265 0h-189l-41 41v619l41 40h189l40 -40v-149h-70v125h-130v-572h130v222h-52v64h122v-309zM129 790v84h84v-84h-84z" />
    <glyph glyph-name="gdotaccent" unicode="&#x121;" horiz-adv-x="298" 
d="M29 40v420l40 40h101l34 -34v34h70v-660l-40 -40h-165l-40 40v99h60v-74h115v169l-34 -34h-101zM99 435v-370h105v370h-105zM110 590v84h84v-84h-84z" />
    <glyph glyph-name="Gcommaaccent" unicode="&#x122;" horiz-adv-x="340" 
d="M265 0h-189l-41 41v619l41 40h189l40 -40v-149h-70v125h-130v-572h130v222h-52v64h122v-309zM186 -200h-70l20 165h70z" />
    <glyph glyph-name="gcommaaccent" unicode="&#x123;" horiz-adv-x="298" 
d="M29 40v420l40 40h101l34 -34v34h70v-660l-40 -40h-165l-40 40v99h60v-74h115v169l-34 -34h-101zM99 435v-370h105v370h-105zM136 700h70l-20 -165h-70z" />
    <glyph glyph-name="Hcircumflex" unicode="&#x124;" horiz-adv-x="408" 
d="M220 0v64h48v259h-127v-259h47v-64h-165v64h48v572h-48v64h165v-64h-47v-249h127v249h-48v64h165v-64h-47v-572h47v-64h-165zM167 900h75l68 -135h-70l-36 70l-35 -70h-70z" />
    <glyph glyph-name="hcircumflex" unicode="&#x125;" horiz-adv-x="360" 
d="M24 635v65h104v-234l34 34h101l40 -40v-395h33v-65h-103v435h-105v-370h33v-65h-137v65h34v570h-34zM55 900h75l68 -135h-70l-36 70l-35 -70h-70z" />
    <glyph glyph-name="Hbar" unicode="&#x126;" horiz-adv-x="408" 
d="M368 586v-65h-30v-457h47v-64h-165v64h48v259h-127v-259h47v-64h-165v64h48v457h-30v65h30v50h-48v64h165v-64h-47v-50h127v50h-48v64h165v-64h-47v-50h30zM141 387h127v134h-127v-134z" />
    <glyph glyph-name="hbar" unicode="&#x127;" horiz-adv-x="370" 
d="M7 595h61v40h-34v65h104v-105h80v-55h-80v-74l34 34h101l40 -40v-395h33v-65h-103v435h-105v-370h33v-65h-137v65h34v475h-61v55z" />
    <glyph glyph-name="Itilde" unicode="&#x128;" horiz-adv-x="211" 
d="M141 636v-572h47v-64h-165v64h48v572h-48v64h165v-64h-47zM169 775l-107 45v-55h-60v85l40 40l107 -45v55h60v-85z" />
    <glyph glyph-name="itilde" unicode="&#x129;" horiz-adv-x="185" 
d="M25 435v65h103v-435h33v-65h-136v65h33v370h-33zM157 575l-107 45v-55h-60v85l40 40l107 -45v55h60v-85z" />
    <glyph glyph-name="Imacron" unicode="&#x12a;" horiz-adv-x="211" 
d="M141 636v-572h47v-64h-165v64h48v572h-48v64h165v-64h-47zM189 862v-60h-167v60h167z" />
    <glyph glyph-name="imacron" unicode="&#x12b;" horiz-adv-x="185" 
d="M25 435v65h103v-435h33v-65h-136v65h33v370h-33zM177 662v-60h-167v60h167z" />
    <glyph glyph-name="Ibreve" unicode="&#x12c;" horiz-adv-x="211" 
d="M141 636v-572h47v-64h-165v64h48v572h-48v64h165v-64h-47zM149 825v75h60v-95l-40 -40h-127l-40 40v95h60v-75h87z" />
    <glyph glyph-name="ibreve" unicode="&#x12d;" horiz-adv-x="185" 
d="M25 435v65h103v-435h33v-65h-136v65h33v370h-33zM137 625v75h60v-95l-40 -40h-127l-40 40v95h60v-75h87z" />
    <glyph glyph-name="Iogonek" unicode="&#x12e;" horiz-adv-x="211" 
d="M141 636v-572h47v-64l-100 -100v-50h120v-50h-140l-30 30v90l80 80h-95v64h48v572h-48v64h165v-64h-47z" />
    <glyph glyph-name="iogonek" unicode="&#x12f;" horiz-adv-x="185" 
d="M25 435v65h103v-435h33v-65l-100 -100v-50h120v-50h-140l-30 30v90l80 80h-66v65h33v370h-33zM46 616v84h84v-84h-84z" />
    <glyph glyph-name="Idotaccent" unicode="&#x130;" horiz-adv-x="211" 
d="M141 636v-572h47v-64h-165v64h48v572h-48v64h165v-64h-47zM64 790v84h84v-84h-84z" />
    <glyph glyph-name="dotlessi" unicode="&#x131;" horiz-adv-x="185" 
d="M25 435v65h103v-435h33v-65h-136v65h33v370h-33z" />
    <glyph glyph-name="IJ" unicode="&#x132;" horiz-adv-x="511" 
d="M141 636v-572h47v-64h-165v64h48v572h-48v64h165v-64h-47zM399 0h-138l-42 41v148h68v-125h82v572h-46v64h164v-64h-48v-595z" />
    <glyph glyph-name="ij" unicode="&#x133;" horiz-adv-x="317" 
d="M25 435v65h103v-435h33v-65h-136v65h33v370h-33zM46 590v84h84v-84h-84zM184 590v84h84v-84h-84zM266 -160l-40 -40h-110l-40 40v102h60v-78h60v572h-33v64h103v-660z" />
    <glyph glyph-name="Jcircumflex" unicode="&#x134;" horiz-adv-x="300" 
d="M188 0h-138l-42 41v148h68v-125h82v572h-46v64h164v-64h-48v-595zM155 900h75l68 -135h-70l-36 70l-35 -70h-70z" />
    <glyph glyph-name="jcircumflex" unicode="&#x135;" horiz-adv-x="179" 
d="M128 -160l-40 -40h-110l-40 40v102h60v-78h60v572h-33v64h103v-660zM56 700h75l68 -135h-70l-36 70l-35 -70h-70z" />
    <glyph glyph-name="Kcommaaccent" unicode="&#x136;" horiz-adv-x="408" 
d="M222 -200h-70l20 165h70zM389 64v-64h-156v64h39l-82 237l-49 -111v-126h47v-64h-165v64h48v572h-48v64h165v-64h-47v-285l125 285h-39v64h151v-64h-40l-105 -238l115 -334h41z" />
    <glyph glyph-name="kcommaaccent" unicode="&#x137;" horiz-adv-x="354" 
d="M25 635v65h103v-411l93 146h-33v65h142v-65h-29l-103 -157l107 -213h30v-65h-135v65h26l-72 144l-26 -40v-104h33v-65h-136v65h33v570h-33zM196 -200h-70l20 165h70z" />
    <glyph glyph-name="kgreenlandic" unicode="&#x138;" horiz-adv-x="354" 
d="M25 435v65h103v-211l93 146h-33v65h142v-65h-29l-103 -157l107 -213h30v-65h-135v65h26l-72 144l-26 -40v-104h33v-65h-136v65h33v370h-33z" />
    <glyph glyph-name="Lacute" unicode="&#x139;" horiz-adv-x="319" 
d="M141 636v-572h87v125h67v-189h-272v64h48v572h-48v64h165v-64h-47zM128 900h70l-58 -135h-70z" />
    <glyph glyph-name="lacute" unicode="&#x13a;" horiz-adv-x="185" 
d="M25 636v64h103v-636h33v-64h-136v64h33v572h-33zM115 900h70l-58 -135h-70z" />
    <glyph glyph-name="Lcommaaccent" unicode="&#x13b;" horiz-adv-x="319" 
d="M141 636v-572h87v125h67v-189h-272v64h48v572h-48v64h165v-64h-47zM175 -200h-70l20 165h70z" />
    <glyph glyph-name="lcommaaccent" unicode="&#x13c;" horiz-adv-x="185" 
d="M25 636v64h103v-636h33v-64h-136v64h33v572h-33zM109 -200h-70l20 165h70z" />
    <glyph glyph-name="Lcaron" unicode="&#x13d;" horiz-adv-x="319" 
d="M141 636v-572h87v125h67v-189h-272v64h48v572h-48v64h165v-64h-47zM280 525h-70l20 175h70z" />
    <glyph glyph-name="lcaron" unicode="&#x13e;" horiz-adv-x="185" 
d="M25 636v64h103v-636h33v-64h-136v64h33v572h-33zM229 525h-70l20 175h70z" />
    <glyph glyph-name="Ldot" unicode="&#x13f;" horiz-adv-x="319" 
d="M141 636v-572h87v125h67v-189h-272v64h48v572h-48v64h165v-64h-47zM230 303v70h70v-70h-70z" />
    <glyph glyph-name="ldot" unicode="&#x140;" horiz-adv-x="260" 
d="M25 636v64h103v-636h33v-64h-136v64h33v572h-33zM188 260v70h70v-70h-70z" />
    <glyph glyph-name="Lslash" unicode="&#x141;" horiz-adv-x="329" 
d="M151 636v-250l110 97v-72l-110 -97v-250h87v125h67v-189h-272v64h48v189l-60 -52v72l60 52v311h-48v64h165v-64h-47z" />
    <glyph glyph-name="lslash" unicode="&#x142;" horiz-adv-x="249" 
d="M54 636v64h103v-271l72 81v-75l-72 -81v-290h33v-64h-136v64h33v211l-62 -70v75l62 70v286h-33z" />
    <glyph glyph-name="Nacute" unicode="&#x143;" horiz-adv-x="414" 
d="M391 700v-64h-48v-636h-77l-128 469v-405h47v-64h-162v64h48v572h-48v64h124l129 -470v406h-47v64h162zM230 900h70l-58 -135h-70z" />
    <glyph glyph-name="nacute" unicode="&#x144;" horiz-adv-x="360" 
d="M24 435v65h104v-34l34 34h101l40 -40v-395h33v-65h-103v435h-105v-370h33v-65h-137v65h34v370h-34zM203 700h70l-58 -135h-70z" />
    <glyph glyph-name="Ncommaaccent" unicode="&#x145;" horiz-adv-x="414" 
d="M391 700v-64h-48v-636h-77l-128 469v-405h47v-64h-162v64h48v572h-48v64h124l129 -470v406h-47v64h162zM223 -200h-70l20 165h70z" />
    <glyph glyph-name="ncommaaccent" unicode="&#x146;" horiz-adv-x="360" 
d="M24 435v65h104v-34l34 34h101l40 -40v-395h33v-65h-103v435h-105v-370h33v-65h-137v65h34v370h-34zM196 -200h-70l20 165h70z" />
    <glyph glyph-name="Ncaron" unicode="&#x147;" horiz-adv-x="414" 
d="M391 700v-64h-48v-636h-77l-128 469v-405h47v-64h-162v64h48v572h-48v64h124l129 -470v406h-47v64h162zM245 765h-75l-68 135h70l35 -71l36 71h70z" />
    <glyph glyph-name="ncaron" unicode="&#x148;" horiz-adv-x="360" 
d="M24 435v65h104v-34l34 34h101l40 -40v-395h33v-65h-103v435h-105v-370h33v-65h-137v65h34v370h-34zM218 565h-75l-68 135h70l35 -71l36 71h70z" />
    <glyph glyph-name="Eng" unicode="&#x14a;" horiz-adv-x="414" 
d="M343 -160l-40 -40h-110l-40 40v102h60v-78h60v110l-135 495v-405h47v-64h-162v64h48v572h-48v64h124l129 -470v406h-47v64h162v-64h-48v-796z" />
    <glyph glyph-name="eng" unicode="&#x14b;" horiz-adv-x="332" 
d="M303 -160l-40 -40h-110l-40 40v102h60v-78h60v571h-105v-370h33v-65h-137v65h34v370h-34v65h104v-34l34 34h101l40 -40v-620z" />
    <glyph glyph-name="Omacron" unicode="&#x14c;" horiz-adv-x="340" 
d="M305 660v-619l-40 -41h-189l-41 41v619l41 40h189zM235 64v572h-130v-572h130zM254 862v-60h-167v60h167z" />
    <glyph glyph-name="omacron" unicode="&#x14d;" horiz-adv-x="303" 
d="M274 460v-420l-40 -40h-165l-40 40v420l40 40h165zM204 65v370h-105v-370h105zM235 662v-60h-167v60h167z" />
    <glyph glyph-name="Obreve" unicode="&#x14e;" horiz-adv-x="340" 
d="M305 660v-619l-40 -41h-189l-41 41v619l41 40h189zM235 64v572h-130v-572h130zM214 825v75h60v-95l-40 -40h-127l-40 40v95h60v-75h87z" />
    <glyph glyph-name="obreve" unicode="&#x14f;" horiz-adv-x="303" 
d="M274 460v-420l-40 -40h-165l-40 40v420l40 40h165zM204 65v370h-105v-370h105zM195 625v75h60v-95l-40 -40h-127l-40 40v95h60v-75h87z" />
    <glyph glyph-name="Ohungarumlaut" unicode="&#x150;" horiz-adv-x="340" 
d="M305 660v-619l-40 -41h-189l-41 41v619l41 40h189zM235 64v572h-130v-572h130zM248 900h70l-58 -135h-70zM138 900h70l-58 -135h-70z" />
    <glyph glyph-name="ohungarumlaut" unicode="&#x151;" horiz-adv-x="303" 
d="M274 460v-420l-40 -40h-165l-40 40v420l40 40h165zM204 65v370h-105v-370h105zM229 700h70l-58 -135h-70zM119 700h70l-58 -135h-70z" />
    <glyph glyph-name="OE" unicode="&#x152;" horiz-adv-x="511" 
d="M489 0h-413l-41 41v619l41 40h413v-189h-67v125h-117v-249h124v-64h-124v-259h117v125h67v-189zM105 636v-572h130v572h-130z" />
    <glyph glyph-name="oe" unicode="&#x153;" horiz-adv-x="478" 
d="M389 65v74h60v-99l-40 -40h-137l-33 33l-33 -33h-137l-40 40v420l40 40h137l33 -33l33 33h137l40 -40v-243h-175v-152h115zM204 65v370h-105v-370h105zM274 435v-153h105v153h-105z" />
    <glyph glyph-name="Racute" unicode="&#x154;" horiz-adv-x="379" 
d="M141 271v-207h47v-64h-165v64h48v572h-48v64h277l41 -40v-347l-47 -48h-15l40 -201h37v-64h-94l-57 271h-64zM141 636v-301h130v301h-130zM212 900h70l-58 -135h-70z" />
    <glyph glyph-name="racute" unicode="&#x155;" horiz-adv-x="311" 
d="M24 435v65h104v-34l34 34h78l40 -40v-99h-70v74h-82v-370h33v-65h-137v65h34v370h-34zM175 700h70l-58 -135h-70z" />
    <glyph glyph-name="Rcommaaccent" unicode="&#x156;" horiz-adv-x="379" 
d="M141 271v-207h47v-64h-165v64h48v572h-48v64h277l41 -40v-347l-47 -48h-15l40 -201h37v-64h-94l-57 271h-64zM141 636v-301h130v301h-130zM205 -200h-70l20 165h70z" />
    <glyph glyph-name="rcommaaccent" unicode="&#x157;" horiz-adv-x="311" 
d="M24 435v65h104v-34l34 34h78l40 -40v-99h-70v74h-82v-370h33v-65h-137v65h34v370h-34zM109 -200h-70l20 165h70z" />
    <glyph glyph-name="Rcaron" unicode="&#x158;" horiz-adv-x="379" 
d="M141 271v-207h47v-64h-165v64h48v572h-48v64h277l41 -40v-347l-47 -48h-15l40 -201h37v-64h-94l-57 271h-64zM141 636v-301h130v301h-130zM227 765h-75l-68 135h70l35 -71l36 71h70z" />
    <glyph glyph-name="rcaron" unicode="&#x159;" horiz-adv-x="311" 
d="M24 435v65h104v-34l34 34h78l40 -40v-99h-70v74h-82v-370h33v-65h-137v65h34v370h-34zM190 565h-75l-68 135h70l35 -71l36 71h70z" />
    <glyph glyph-name="Sacute" unicode="&#x15a;" horiz-adv-x="350" 
d="M243 64v259h-159l-40 41v296l40 40h182l41 -40v-149h-64v125h-129v-249h159l40 -40v-306l-40 -41h-195l-41 41v148h64v-125h142zM198 900h70l-58 -135h-70z" />
    <glyph glyph-name="sacute" unicode="&#x15b;" horiz-adv-x="283" 
d="M194 65v153h-125l-40 40v202l40 40h145l40 -40v-99h-60v74h-95v-153h125l40 -40v-202l-40 -40h-165l-40 40v99h60v-74h115zM174 700h70l-58 -135h-70z" />
    <glyph glyph-name="Scircumflex" unicode="&#x15c;" horiz-adv-x="350" 
d="M243 64v259h-159l-40 41v296l40 40h182l41 -40v-149h-64v125h-129v-249h159l40 -40v-306l-40 -41h-195l-41 41v148h64v-125h142zM138 900h75l68 -135h-70l-36 70l-35 -70h-70z" />
    <glyph glyph-name="scircumflex" unicode="&#x15d;" horiz-adv-x="283" 
d="M194 65v153h-125l-40 40v202l40 40h145l40 -40v-99h-60v74h-95v-153h125l40 -40v-202l-40 -40h-165l-40 40v99h60v-74h115zM104 700h75l68 -135h-70l-36 70l-35 -70h-70z" />
    <glyph glyph-name="Scedilla" unicode="&#x15e;" horiz-adv-x="350" 
d="M243 64v259h-159l-40 41v296l40 40h182l41 -40v-149h-64v125h-129v-249h159l40 -40v-306l-40 -41h-195l-41 41v148h64v-125h142zM200 -30v-35h33l30 -30v-75l-30 -30h-120v50h100v35h-43l-20 20v65h50z" />
    <glyph glyph-name="scedilla" unicode="&#x15f;" horiz-adv-x="283" 
d="M194 65v153h-125l-40 40v202l40 40h145l40 -40v-99h-60v74h-95v-153h125l40 -40v-202l-40 -40h-165l-40 40v99h60v-74h115zM166 -30v-35h33l30 -30v-75l-30 -30h-120v50h100v35h-43l-20 20v65h50z" />
    <glyph glyph-name="Scaron" unicode="&#x160;" horiz-adv-x="350" 
d="M243 64v259h-159l-40 41v296l40 40h182l41 -40v-149h-64v125h-129v-249h159l40 -40v-306l-40 -41h-195l-41 41v148h64v-125h142zM213 765h-75l-68 135h70l35 -71l36 71h70z" />
    <glyph glyph-name="scaron" unicode="&#x161;" horiz-adv-x="283" 
d="M194 65v153h-125l-40 40v202l40 40h145l40 -40v-99h-60v74h-95v-153h125l40 -40v-202l-40 -40h-165l-40 40v99h60v-74h115zM179 565h-75l-68 135h70l35 -71l36 71h70z" />
    <glyph glyph-name="Tcommaaccent" unicode="&#x21a;" horiz-adv-x="386" 
d="M209 -200h-70l20 165h70zM17 511v189h352v-189h-67v125h-74v-572h47v-64h-164v64h47v572h-74v-125h-67z" />
    <glyph glyph-name="Tcommaaccent" unicode="&#x162;" horiz-adv-x="386" 
d="M209 -200h-70l20 165h70zM17 511v189h352v-189h-67v125h-74v-572h47v-64h-164v64h47v572h-74v-125h-67z" />
    <glyph glyph-name="tcommaaccent" unicode="&#x21b;" horiz-adv-x="282" 
d="M20 500h55v100h70v-100h115v-65h-115v-370h55v74h60v-99l-40 -40h-105l-40 40v395h-55v65zM176 -200h-70l20 165h70z" />
    <glyph glyph-name="tcommaaccent" unicode="&#x163;" horiz-adv-x="282" 
d="M20 500h55v100h70v-100h115v-65h-115v-370h55v74h60v-99l-40 -40h-105l-40 40v395h-55v65zM176 -200h-70l20 165h70z" />
    <glyph glyph-name="Tcaron" unicode="&#x164;" horiz-adv-x="386" 
d="M231 765h-75l-68 135h70l35 -71l36 71h70zM17 511v189h352v-189h-67v125h-74v-572h47v-64h-164v64h47v572h-74v-125h-67z" />
    <glyph glyph-name="tcaron" unicode="&#x165;" horiz-adv-x="282" 
d="M20 500h55v100h70v-100h115v-65h-115v-370h55v74h60v-99l-40 -40h-105l-40 40v395h-55v65zM246 525h-70l20 175h70z" />
    <glyph glyph-name="Tbar" unicode="&#x166;" horiz-adv-x="386" 
d="M17 511v189h352v-189h-67v125h-74v-259h85v-65h-85v-248h47v-64h-164v64h47v248h-85v65h85v259h-74v-125h-67z" />
    <glyph glyph-name="tbar" unicode="&#x167;" horiz-adv-x="282" 
d="M250 280v-55h-105v-160h55v74h60v-99l-40 -40h-105l-40 40v185h-61v55h61v155h-55v65h55v100h70v-100h115v-65h-115v-155h105z" />
    <glyph glyph-name="Utilde" unicode="&#x168;" horiz-adv-x="415" 
d="M220 636v64h171v-64h-46v-595l-42 -41h-192l-40 41v595h-48v64h162v-64h-46v-572h129v572h-48zM271 775l-107 45v-55h-60v85l40 40l107 -45v55h60v-85z" />
    <glyph glyph-name="utilde" unicode="&#x169;" horiz-adv-x="360" 
d="M128 500v-435h105v370h-34v65h104v-435h33v-65h-103v34l-34 -34h-101l-40 40v395h-34v65h104zM244 575l-107 45v-55h-60v85l40 40l107 -45v55h60v-85z" />
    <glyph glyph-name="Umacron" unicode="&#x16a;" horiz-adv-x="415" 
d="M220 636v64h171v-64h-46v-595l-42 -41h-192l-40 41v595h-48v64h162v-64h-46v-572h129v572h-48zM291 862v-60h-167v60h167z" />
    <glyph glyph-name="umacron" unicode="&#x16b;" horiz-adv-x="360" 
d="M128 500v-435h105v370h-34v65h104v-435h33v-65h-103v34l-34 -34h-101l-40 40v395h-34v65h104zM264 662v-60h-167v60h167z" />
    <glyph glyph-name="Ubreve" unicode="&#x16c;" horiz-adv-x="415" 
d="M220 636v64h171v-64h-46v-595l-42 -41h-192l-40 41v595h-48v64h162v-64h-46v-572h129v572h-48zM251 825v75h60v-95l-40 -40h-127l-40 40v95h60v-75h87z" />
    <glyph glyph-name="ubreve" unicode="&#x16d;" horiz-adv-x="360" 
d="M128 500v-435h105v370h-34v65h104v-435h33v-65h-103v34l-34 -34h-101l-40 40v395h-34v65h104zM224 625v75h60v-95l-40 -40h-127l-40 40v95h60v-75h87z" />
    <glyph glyph-name="Uring" unicode="&#x16e;" horiz-adv-x="415" 
d="M220 636v64h171v-64h-46v-595l-42 -41h-192l-40 41v595h-48v64h162v-64h-46v-572h129v572h-48zM178 863v-62h59v62h-59zM139 795v75l30 30h77l30 -30v-75l-30 -30h-77z" />
    <glyph glyph-name="uring" unicode="&#x16f;" horiz-adv-x="360" 
d="M128 500v-435h105v370h-34v65h104v-435h33v-65h-103v34l-34 -34h-101l-40 40v395h-34v65h104zM151 663v-62h59v62h-59zM112 595v75l30 30h77l30 -30v-75l-30 -30h-77z" />
    <glyph glyph-name="Uhungarumlaut" unicode="&#x170;" horiz-adv-x="415" 
d="M220 636v64h171v-64h-46v-595l-42 -41h-192l-40 41v595h-48v64h162v-64h-46v-572h129v572h-48zM285 900h70l-58 -135h-70zM175 900h70l-58 -135h-70z" />
    <glyph glyph-name="uhungarumlaut" unicode="&#x171;" horiz-adv-x="360" 
d="M128 500v-435h105v370h-34v65h104v-435h33v-65h-103v34l-34 -34h-101l-40 40v395h-34v65h104zM258 700h70l-58 -135h-70zM148 700h70l-58 -135h-70z" />
    <glyph glyph-name="Uogonek" unicode="&#x172;" horiz-adv-x="415" 
d="M220 636v64h171v-64h-46v-595l-42 -41l-100 -100v-50h120v-50h-140l-30 30v90l80 80h-122l-40 41v595h-48v64h162v-64h-46v-572h129v572h-48z" />
    <glyph glyph-name="uogonek" unicode="&#x173;" horiz-adv-x="360" 
d="M128 500v-435h105v370h-34v65h104v-435h33v-65l-100 -100v-50h120v-50h-140l-30 30v90l80 80h-33v34l-34 -34h-101l-40 40v395h-34v65h104z" />
    <glyph glyph-name="Wcircumflex" unicode="&#x174;" horiz-adv-x="550" 
d="M234 900h75l68 -135h-70l-36 70l-35 -70h-70zM318 640l69 -496h4l46 492h-39v64h142v-64h-34l-71 -636h-92l-66 471h-4l-66 -471h-92l-71 636h-34v64h148v-64h-39l46 -492h4l69 496h80z" />
    <glyph glyph-name="wcircumflex" unicode="&#x175;" horiz-adv-x="490" 
d="M208 700h75l68 -135h-70l-36 70l-35 -70h-70zM296 0l-49 380h-4l-49 -380h-108l-43 435h-31v65h132v-65h-35l33 -337h4l58 402h85l58 -402h4l33 337h-35v65h129v-65h-31l-43 -435h-108z" />
    <glyph glyph-name="Ycircumflex" unicode="&#x176;" horiz-adv-x="361" 
d="M143 900h75l68 -135h-70l-36 70l-35 -70h-70zM264 64v-64h-164v64h48v188l-104 384h-35v64h148v-64h-40l66 -266h4l65 266h-41v64h141v-64h-35l-99 -374v-198h46z" />
    <glyph glyph-name="ycircumflex" unicode="&#x177;" horiz-adv-x="316" 
d="M121 700h75l68 -135h-70l-36 70l-35 -70h-70zM209 435h-28v65h125v-65h-28l-123 -570h27v-65h-124v65h28l37 172l-82 398h-31v65h135v-65h-32l44 -270h4z" />
    <glyph glyph-name="Ydieresis" unicode="&#x178;" horiz-adv-x="361" 
d="M70 790v84h84v-84h-84zM208 790v84h84v-84h-84zM264 64v-64h-164v64h48v188l-104 384h-35v64h148v-64h-40l66 -266h4l65 266h-41v64h141v-64h-35l-99 -374v-198h46z" />
    <glyph glyph-name="Zacute" unicode="&#x179;" horiz-adv-x="329" 
d="M306 0h-283v58l200 578h-118v-125h-74v189h264v-58l-198 -578h135v125h74v-189zM187 900h70l-58 -135h-70z" />
    <glyph glyph-name="zacute" unicode="&#x17a;" horiz-adv-x="283" 
d="M29 361v139h225v-72l-162 -363h112v74h60v-139h-245v72l162 363h-92v-74h-60zM164 700h70l-58 -135h-70z" />
    <glyph glyph-name="Zdotaccent" unicode="&#x17b;" horiz-adv-x="329" 
d="M306 0h-283v58l200 578h-118v-125h-74v189h264v-58l-198 -578h135v125h74v-189zM123 790v84h84v-84h-84z" />
    <glyph glyph-name="zdotaccent" unicode="&#x17c;" horiz-adv-x="283" 
d="M29 361v139h225v-72l-162 -363h112v74h60v-139h-245v72l162 363h-92v-74h-60zM100 590v84h84v-84h-84z" />
    <glyph glyph-name="Zcaron" unicode="&#x17d;" horiz-adv-x="329" 
d="M306 0h-283v58l200 578h-118v-125h-74v189h264v-58l-198 -578h135v125h74v-189zM202 765h-75l-68 135h70l35 -71l36 71h70z" />
    <glyph glyph-name="zcaron" unicode="&#x17e;" horiz-adv-x="283" 
d="M29 361v139h225v-72l-162 -363h112v74h60v-139h-245v72l162 363h-92v-74h-60zM179 565h-75l-68 135h70l35 -71l36 71h70z" />
    <glyph glyph-name="Epsilon" unicode="&#x395;" horiz-adv-x="347" 
d="M325 0h-302v64h48v572h-48v64h302v-189h-67v125h-117v-249h124v-64h-124v-259h117v125h67v-189z" />
    <glyph glyph-name="Epsilon" unicode="&#x190;" horiz-adv-x="347" 
d="M325 0h-302v64h48v572h-48v64h302v-189h-67v125h-117v-249h124v-64h-124v-259h117v125h67v-189z" />
    <glyph glyph-name="florin" unicode="&#x192;" 
d="M45 -139v65h50v389h-50v65h50v280l40 40h150l40 -40v-99h-60v74h-100v-255h100v-65h-100v-414l-40 -40h-80z" />
    <glyph glyph-name="Gamma" unicode="&#x393;" horiz-adv-x="319" 
d="M141 636v-572h47v-64h-165v64h48v572h-48v64h272v-189h-67v125h-87z" />
    <glyph glyph-name="Gamma" unicode="&#x194;" horiz-adv-x="319" 
d="M141 636v-572h47v-64h-165v64h48v572h-48v64h272v-189h-67v125h-87z" />
    <glyph glyph-name="Iota" unicode="&#x399;" horiz-adv-x="211" 
d="M141 636v-572h47v-64h-165v64h48v572h-48v64h165v-64h-47z" />
    <glyph glyph-name="Iota" unicode="&#x196;" horiz-adv-x="211" 
d="M141 636v-572h47v-64h-165v64h48v572h-48v64h165v-64h-47z" />
    <glyph glyph-name="Upsilon" unicode="&#x3a5;" horiz-adv-x="361" 
d="M264 64v-64h-164v64h48v188l-104 384h-35v64h148v-64h-40l68 -243l67 243h-41v64h141v-64h-35l-99 -374v-198h46z" />
    <glyph glyph-name="Upsilon" unicode="&#x1b1;" horiz-adv-x="361" 
d="M264 64v-64h-164v64h48v188l-104 384h-35v64h148v-64h-40l68 -243l67 243h-41v64h141v-64h-35l-99 -374v-198h46z" />
    <glyph glyph-name="Scommaaccent" unicode="&#x218;" horiz-adv-x="350" 
d="M243 64v259h-159l-40 41v296l40 40h182l41 -40v-149h-64v125h-129v-249h159l40 -40v-306l-40 -41h-195l-41 41v148h64v-125h142zM191 -200h-70l20 165h70z" />
    <glyph glyph-name="scommaaccent" unicode="&#x219;" horiz-adv-x="283" 
d="M194 65v153h-125l-40 40v202l40 40h145l40 -40v-99h-60v74h-95v-153h125l40 -40v-202l-40 -40h-165l-40 40v99h60v-74h115zM162 -200h-70l20 165h70z" />
    <glyph glyph-name="dotlessj" unicode="&#x237;" horiz-adv-x="179" 
d="M128 -160l-40 -40h-110l-40 40v102h60v-78h60v572h-33v64h103v-660z" />
    <glyph glyph-name="circumflex" unicode="&#x2c6;" horiz-adv-x="336" 
d="M131 700h75l68 -135h-70l-36 70l-35 -70h-70z" />
    <glyph glyph-name="caron" unicode="&#x2c7;" horiz-adv-x="336" 
d="M206 565h-75l-68 135h70l35 -71l36 71h70z" />
    <glyph glyph-name="breve" unicode="&#x2d8;" horiz-adv-x="336" 
d="M212 625v75h60v-95l-40 -40h-127l-40 40v95h60v-75h87z" />
    <glyph glyph-name="dotaccent" unicode="&#x2d9;" horiz-adv-x="336" 
d="M127 590v84h84v-84h-84z" />
    <glyph glyph-name="ring" unicode="&#x2da;" horiz-adv-x="336" 
d="M139 663v-62h59v62h-59zM100 595v75l30 30h77l30 -30v-75l-30 -30h-77z" />
    <glyph glyph-name="ogonek" unicode="&#x2db;" horiz-adv-x="336" 
d="M291 0l-100 -100v-50h120v-50h-140l-30 30v90l100 100z" />
    <glyph glyph-name="tilde" unicode="&#x2dc;" horiz-adv-x="336" 
d="M232 575l-107 45v-55h-60v85l40 40l107 -45v55h60v-85z" />
    <glyph glyph-name="hungarumlaut" unicode="&#x2dd;" horiz-adv-x="336" 
d="M246 700h70l-58 -135h-70zM136 700h70l-58 -135h-70z" />
    <glyph glyph-name="Alpha" unicode="&#x391;" horiz-adv-x="387" 
d="M264 64l-18 131h-117l-19 -131h43v-64h-143v64h43l89 636h103l90 -636h42v-64h-154v64h41zM187 575l-46 -312h93z" />
    <glyph glyph-name="Beta" unicode="&#x392;" horiz-adv-x="376" 
d="M341 335v-294l-41 -41h-277v64h48v572h-48v64h269l40 -40v-285l-15 -15zM141 323v-259h130v259h-130zM141 636v-249h120v249h-120z" />
    <glyph glyph-name="Delta" unicode="&#x394;" horiz-adv-x="387" 
d="M367 0h-347v34l122 666h103l122 -666v-34zM187 595l-97 -531h194z" />
    <glyph glyph-name="Zeta" unicode="&#x396;" horiz-adv-x="329" 
d="M306 0h-283v58l200 578h-118v-125h-74v189h264v-58l-198 -578h135v125h74v-189z" />
    <glyph glyph-name="Eta" unicode="&#x397;" horiz-adv-x="408" 
d="M220 0v64h48v259h-127v-259h47v-64h-165v64h48v572h-48v64h165v-64h-47v-249h127v249h-48v64h165v-64h-47v-572h47v-64h-165z" />
    <glyph glyph-name="Theta" unicode="&#x398;" horiz-adv-x="340" 
d="M305 660v-619l-40 -41h-189l-41 41v619l41 40h189zM235 64v259h-130v-259h130zM105 636v-249h130v249h-130z" />
    <glyph glyph-name="Kappa" unicode="&#x39a;" horiz-adv-x="426" 
d="M389 64v-64h-156v64h39l-78 227l-53 -119v-108h47v-64h-165v64h48v572h-48v64h165v-64h-47v-285l125 285h-39v64h151v-64h-40l-105 -238l115 -334h41z" />
    <glyph glyph-name="Lambda" unicode="&#x39b;" horiz-adv-x="387" 
d="M187 575l-78 -511h42v-64h-141v64h42l90 636h103l89 -636h43v-64h-156v64h43z" />
    <glyph glyph-name="Mu" unicode="&#x39c;" horiz-adv-x="516" 
d="M224 130l-89 359v-425h47v-64h-159v64h48v572h-48v64h132l105 -417l105 417h128v-64h-48v-572h48v-64h-165v64h47v444l-93 -378h-58z" />
    <glyph glyph-name="Nu" unicode="&#x39d;" horiz-adv-x="414" 
d="M391 700v-64h-48v-636h-77l-128 469v-405h47v-64h-162v64h48v572h-48v64h124l129 -470v406h-47v64h162z" />
    <glyph glyph-name="Xi" unicode="&#x39e;" horiz-adv-x="347" 
d="M90 64h168v125h67v-189h-302v189h67v-125zM325 511h-67v125h-168v-125h-67v189h302v-189zM71 323v64h206v-64h-206z" />
    <glyph glyph-name="Omicron" unicode="&#x39f;" horiz-adv-x="340" 
d="M305 660v-619l-40 -41h-189l-41 41v619l41 40h189zM235 64v572h-130v-572h130z" />
    <glyph glyph-name="Pi" unicode="&#x3a0;" horiz-adv-x="408" 
d="M268 636h-127v-572h47v-64h-165v64h48v572h-48v64h362v-64h-47v-572h47v-64h-165v64h48v572z" />
    <glyph glyph-name="Rho" unicode="&#x3a1;" horiz-adv-x="376" 
d="M141 271v-207h47v-64h-165v64h48v572h-48v64h277l41 -40v-347l-41 -42h-159zM141 636v-301h130v301h-130z" />
    <glyph glyph-name="Sigma" unicode="&#x3a3;" horiz-adv-x="329" 
d="M210 394v-30l-113 -300h135v125h74v-189h-283v58l122 324l-111 260v58h272v-189h-74v125h-126z" />
    <glyph glyph-name="Tau" unicode="&#x3a4;" horiz-adv-x="386" 
d="M17 511v189h352v-189h-77v125h-64v-572h47v-64h-164v64h47v572h-64v-125h-77z" />
    <glyph glyph-name="Phi" unicode="&#x3a6;" horiz-adv-x="480" 
d="M205 64v102h-129l-41 42v286l41 40h129v102h-48v64h165v-64h-47v-102h129l41 -40v-286l-41 -42h-129v-102h47v-64h-165v64h48zM275 470v-240h100v240h-100zM205 230v240h-100v-240h100z" />
    <glyph glyph-name="Chi" unicode="&#x3a7;" horiz-adv-x="379" 
d="M217 636v64h139v-64h-36l-100 -260l116 -312h37v-64h-152v64h40l-74 192l-77 -192h40v-64h-140v64h36l110 284l-106 288h-37v64h154v-64h-41l64 -166l66 166h-39z" />
    <glyph glyph-name="Psi" unicode="&#x3a8;" horiz-adv-x="524" 
d="M57 636h-48v64h77l41 -40v-345h100v321h-48v64h165v-64h-47v-321h100v345l41 40h77v-64h-48v-343l-41 -42h-129v-187h47v-64h-165v64h48v187h-129l-41 42v343z" />
    <glyph glyph-name="Omega" unicode="&#x2126;" horiz-adv-x="408" 
d="M385 64v-64h-165v64l68 249v323h-168v-323l68 -249v-64h-165v64h93l-66 238v358l41 40h227l40 -40v-358l-66 -238h93z" />
    <glyph glyph-name="Omega" unicode="&#x3a9;" horiz-adv-x="408" 
d="M385 64v-64h-165v64l68 249v323h-168v-323l68 -249v-64h-165v64h93l-66 238v358l41 40h227l40 -40v-358l-66 -238h93z" />
    <glyph glyph-name="Iocyrillic" unicode="&#x401;" horiz-adv-x="347" 
d="M325 0h-302v64h48v572h-48v64h302v-189h-67v125h-117v-249h124v-64h-124v-259h117v125h67v-189zM64 790v84h84v-84h-84zM202 790v84h84v-84h-84z" />
    <glyph glyph-name="Djecyrillic" unicode="&#x402;" horiz-adv-x="463" 
d="M228 358l30 30h130l40 -40v-308l-40 -40h-77v64h47v259h-130v-259h47v-64h-164v64h47v572h-74v-125h-67v189h352v-189h-67v125h-74v-278z" />
    <glyph glyph-name="Gjecyrillic" unicode="&#x403;" horiz-adv-x="319" 
d="M190 900h70l-58 -135h-70zM141 636v-572h47v-64h-165v64h48v572h-48v64h272v-189h-67v125h-87z" />
    <glyph glyph-name="Ecyrillic" unicode="&#x404;" horiz-adv-x="365" 
d="M278 0h-186l-42 42v616l42 42h228v-188h-60v123h-140v-247h148v-65h-148v-258h140v123h60v-146z" />
    <glyph glyph-name="Dzecyrillic" unicode="&#x405;" horiz-adv-x="350" 
d="M243 64v259h-159l-40 41v296l40 40h182l41 -40v-149h-64v125h-129v-249h159l40 -40v-306l-40 -41h-195l-41 41v148h64v-125h142z" />
    <glyph glyph-name="Icyrillic" unicode="&#x406;" horiz-adv-x="211" 
d="M141 636v-572h47v-64h-165v64h48v572h-48v64h165v-64h-47z" />
    <glyph glyph-name="Yicyrillic" unicode="&#x407;" horiz-adv-x="211" 
d="M141 636v-572h47v-64h-165v64h48v572h-48v64h165v-64h-47zM-5 790v84h84v-84h-84zM133 790v84h84v-84h-84z" />
    <glyph glyph-name="Jecyrillic" unicode="&#x408;" horiz-adv-x="300" 
d="M188 0h-138l-42 41v148h68v-125h82v572h-46v64h164v-64h-48v-595z" />
    <glyph glyph-name="Ljecyrillic" unicode="&#x409;" horiz-adv-x="555" 
d="M185 605l-79 -541h42v-64h-138v64h39l90 636h109l44 -313h187l41 -42v-305l-41 -40h-254v64h43l-79 541h-4zM338 64h112v259h-149z" />
    <glyph glyph-name="Njecyrillic" unicode="&#x40a;" horiz-adv-x="573" 
d="M338 636v-249h159l41 -42v-305l-41 -40h-277v64h48v259h-127v-259h47v-64h-165v64h48v572h-48v64h165v-64h-47v-249h127v249h-48v64h165v-64h-47zM338 64h130v259h-130v-259z" />
    <glyph glyph-name="Tshecyrillic" unicode="&#x40b;" horiz-adv-x="498" 
d="M428 64h47v-64h-164v64h47v259h-130v-259h47v-64h-164v64h47v572h-74v-125h-67v189h352v-189h-67v125h-74v-248h160l40 -40v-284z" />
    <glyph glyph-name="Kjecyrillic" unicode="&#x40c;" horiz-adv-x="408" 
d="M235 900h70l-58 -135h-70zM389 64v-64h-156v64h39l-82 237l-49 -111v-126h47v-64h-165v64h48v572h-48v64h165v-64h-47v-285l125 285h-39v64h151v-64h-40l-105 -238l115 -334h41z" />
    <glyph glyph-name="Ushortcyrillic" unicode="&#x40e;" horiz-adv-x="442" 
d="M115 636l67 -260l66 260h-37v64h141v-64h-36l-101 -384l-49 -188h36v-64h-141v64h36l51 188l-104 384h-35v64h148v-64h-42zM223 825v75h60v-95l-40 -40h-127l-40 40v95h60v-75h87z" />
    <glyph glyph-name="Dzhecyrillic" unicode="&#x40f;" horiz-adv-x="408" 
d="M237 -100h-64v100h-150v64h47v572h-47v64h165v-64h-48v-572h127v572h-47v64h165v-64h-48v-572h48v-64h-148v-100z" />
    <glyph glyph-name="Acyrillic" unicode="&#x410;" horiz-adv-x="387" 
d="M264 64l-18 131h-117l-19 -131h43v-64h-143v64h43l89 636h103l90 -636h42v-64h-154v64h41zM187 575l-46 -312h93z" />
    <glyph glyph-name="Becyrillic" unicode="&#x411;" horiz-adv-x="376" 
d="M141 323v-259h130v259h-130zM71 636h-48v64h272v-189h-67v125h-87v-249h159l41 -42v-305l-41 -40h-277v64h48v572z" />
    <glyph glyph-name="Vecyrillic" unicode="&#x412;" horiz-adv-x="376" 
d="M341 335v-294l-41 -41h-277v64h48v572h-48v64h269l40 -40v-285l-15 -15zM141 323v-259h130v259h-130zM141 636v-249h120v249h-120z" />
    <glyph glyph-name="Gecyrillic" unicode="&#x413;" horiz-adv-x="319" 
d="M141 636v-572h47v-64h-165v64h48v572h-48v64h272v-189h-67v125h-87z" />
    <glyph glyph-name="Decyrillic" unicode="&#x414;" horiz-adv-x="387" 
d="M74 -100h-64v164h39l90 636h109l90 -636h39v-164h-64v100h-239v-100zM185 605l-79 -541h162l-79 541h-4z" />
    <glyph glyph-name="Iecyrillic" unicode="&#x415;" horiz-adv-x="347" 
d="M325 0h-302v64h48v572h-48v64h302v-189h-67v125h-117v-249h124v-64h-124v-259h117v125h67v-189z" />
    <glyph glyph-name="Zhecyrillic" unicode="&#x416;" horiz-adv-x="604" 
d="M19 0v64h41l115 334l-105 238h-40v64h151v-64h-39l125 -285v285h-48v64h166v-64h-48v-285l125 285h-39v64h151v-64h-40l-105 -238l115 -334h41v-64h-156v64h39l-82 237l-49 -111v-126h48v-64h-166v64h48v126l-49 111l-82 -237h39v-64h-156z" />
    <glyph glyph-name="Zecyrillic" unicode="&#x417;" 
d="M45 512v188h223l42 -42v-278l-20 -20l30 -29v-289l-42 -42h-191l-42 42v146h60v-123h145v258h-143v65h133v247h-135v-123h-60z" />
    <glyph glyph-name="Iicyrillic" unicode="&#x418;" horiz-adv-x="414" 
d="M141 636v-381l131 355v26h-47v64h165v-64h-48v-572h48v-64h-165v64h47v381l-131 -355v-26h47v-64h-165v64h48v572h-48v64h165v-64h-47z" />
    <glyph glyph-name="Iishortcyrillic" unicode="&#x419;" horiz-adv-x="414" 
d="M141 636v-381l131 355v26h-47v64h165v-64h-48v-572h48v-64h-165v64h47v381l-131 -355v-26h47v-64h-165v64h48v572h-48v64h165v-64h-47zM250 825v75h60v-95l-40 -40h-127l-40 40v95h60v-75h87z" />
    <glyph glyph-name="Kacyrillic" unicode="&#x41a;" horiz-adv-x="408" 
d="M389 64v-64h-156v64h39l-82 237l-49 -111v-126h47v-64h-165v64h48v572h-48v64h165v-64h-47v-285l125 285h-39v64h151v-64h-40l-105 -238l115 -334h41z" />
    <glyph glyph-name="Elcyrillic" unicode="&#x41b;" horiz-adv-x="387" 
d="M185 605l-79 -541h42v-64h-138v64h39l90 636h109l90 -636h39v-64h-152v64h43l-79 541h-4z" />
    <glyph glyph-name="Emcyrillic" unicode="&#x41c;" horiz-adv-x="516" 
d="M224 130l-89 359v-425h47v-64h-159v64h48v572h-48v64h132l105 -417l105 417h128v-64h-48v-572h48v-64h-165v64h47v444l-93 -378h-58z" />
    <glyph glyph-name="Encyrillic" unicode="&#x41d;" horiz-adv-x="408" 
d="M220 0v64h48v259h-127v-259h47v-64h-165v64h48v572h-48v64h165v-64h-47v-249h127v249h-48v64h165v-64h-47v-572h47v-64h-165z" />
    <glyph glyph-name="Ocyrillic" unicode="&#x41e;" horiz-adv-x="340" 
d="M305 660v-619l-40 -41h-189l-41 41v619l41 40h189zM235 64v572h-130v-572h130z" />
    <glyph glyph-name="Pecyrillic" unicode="&#x41f;" horiz-adv-x="408" 
d="M220 0v64h48v572h-127v-572h47v-64h-165v64h48v572h-48v64h362v-64h-47v-572h47v-64h-165z" />
    <glyph glyph-name="Ercyrillic" unicode="&#x420;" horiz-adv-x="376" 
d="M141 271v-207h47v-64h-165v64h48v572h-48v64h277l41 -40v-347l-41 -42h-159zM141 636v-301h130v301h-130z" />
    <glyph glyph-name="Escyrillic" unicode="&#x421;" horiz-adv-x="345" 
d="M270 0h-194l-41 41v619l41 40h194l40 -40v-148h-63v124h-142v-572h142v124h63v-147z" />
    <glyph glyph-name="Tecyrillic" unicode="&#x422;" horiz-adv-x="386" 
d="M17 511v189h352v-189h-67v125h-74v-572h47v-64h-164v64h47v572h-74v-125h-67z" />
    <glyph glyph-name="Ucyrillic" unicode="&#x423;" horiz-adv-x="361" 
d="M352 700v-64h-36l-101 -384l-49 -188h36v-64h-141v64h36l51 188l-104 384h-35v64h148v-64h-42l67 -260l66 260h-37v64h141z" />
    <glyph glyph-name="Efcyrillic" unicode="&#x424;" horiz-adv-x="500" 
d="M285 636v-95h139l41 -42v-300l-41 -40h-139v-95h47v-64h-165v64h48v95h-139l-41 40v300l41 42h139v95h-48v64h165v-64h-47zM285 477v-254h110v254h-110zM215 223v254h-110v-254h110z" />
    <glyph glyph-name="Xacyrillic" unicode="&#x425;" horiz-adv-x="379" 
d="M217 636v64h139v-64h-36l-100 -260l116 -312h37v-64h-152v64h40l-74 192l-77 -192h40v-64h-140v64h36l110 284l-106 288h-37v64h154v-64h-41l64 -166l66 166h-39z" />
    <glyph glyph-name="Tsecyrillic" unicode="&#x426;" horiz-adv-x="408" 
d="M385 -100h-64v100h-298v64h47v572h-47v64h165v-64h-48v-572h127v572h-47v64h165v-64h-48v-572h48v-164z" />
    <glyph glyph-name="Checyrillic" unicode="&#x427;" horiz-adv-x="408" 
d="M112 313l-41 42v281h-48v64h165v-64h-47v-259h127v259h-48v64h165v-64h-47v-572h47v-64h-165v64h48v249h-156z" />
    <glyph glyph-name="Shacyrillic" unicode="&#x428;" horiz-adv-x="585" 
d="M397 636v64h165v-64h-47v-572h47v-64h-539v64h48v572h-48v64h165v-64h-47v-572h117v572h-48v64h165v-64h-47v-572h117v572h-48z" />
    <glyph glyph-name="Shchacyrillic" unicode="&#x429;" horiz-adv-x="585" 
d="M562 -100h-64v100h-475v64h48v572h-48v64h165v-64h-47v-572h117v572h-48v64h165v-64h-47v-572h117v572h-48v64h165v-64h-47v-572h47v-164z" />
    <glyph glyph-name="Hardsigncyrillic" unicode="&#x42a;" horiz-adv-x="463" 
d="M228 323v-259h130v259h-130zM17 700h258v-64h-47v-249h159l41 -42v-305l-41 -40h-277v64h48v572h-74v-125h-67v189z" />
    <glyph glyph-name="Yericyrillic" unicode="&#x42b;" horiz-adv-x="561" 
d="M141 323v-259h130v259h-130zM141 636v-249h159l41 -42v-305l-41 -40h-277v64h48v572h-48v64h165v-64h-47zM491 636v-572h47v-64h-165v64h48v572h-48v64h165v-64h-47z" />
    <glyph glyph-name="Softsigncyrillic" unicode="&#x42c;" horiz-adv-x="360" 
d="M141 323v-259h130v259h-130zM141 636v-249h159l41 -42v-305l-41 -40h-277v64h48v572h-48v64h165v-64h-47z" />
    <glyph glyph-name="Ereversedcyrillic" unicode="&#x42d;" horiz-adv-x="365" 
d="M273 0h-186l-42 42v146h60v-123h140v258h-148v65h148v247h-140v-123h-60v188h228l42 -42v-616z" />
    <glyph glyph-name="IUcyrillic" unicode="&#x42e;" horiz-adv-x="573" 
d="M538 660v-619l-40 -41h-189l-41 41v282h-127v-259h47v-64h-165v64h48v572h-48v64h165v-64h-47v-249h127v273l41 40h189zM468 64v572h-130v-572h130z" />
    <glyph glyph-name="IAcyrillic" unicode="&#x42f;" horiz-adv-x="379" 
d="M238 64v207h-64l-57 -271h-94v64h37l41 207h-22l-41 42v347l41 40h277v-64h-48v-572h48v-64h-165v64h47zM238 335v301h-130v-301h130z" />
    <glyph glyph-name="acyrillic" unicode="&#x430;" horiz-adv-x="325" 
d="M306 65v-65h-104v34l-34 -34h-101l-40 40v202l40 40h135v153h-105v-74h-60v99l40 40h155l40 -40v-395h34zM97 65h105v152h-105v-152z" />
    <glyph glyph-name="becyrillic" unicode="&#x431;" horiz-adv-x="304" 
d="M212 760h63v-85l-40 -40h-136v-169l34 34h101l40 -40v-420l-40 -40h-165l-40 40v620l40 40h143v60zM204 65v370h-105v-370h105z" />
    <glyph glyph-name="vecyrillic" unicode="&#x432;" horiz-adv-x="343" 
d="M24 500h239l40 -40v-182l-28 -28l28 -27v-183l-40 -40h-239v65h34v370h-34v65zM233 65v153h-105v-153h105zM128 435v-152h105v152h-105z" />
    <glyph glyph-name="gecyrillic" unicode="&#x433;" horiz-adv-x="298" 
d="M274 500v-136h-65v71h-81v-370h33v-65h-137v65h34v370h-34v65h250z" />
    <glyph glyph-name="decyrillic" unicode="&#x434;" horiz-adv-x="320" 
d="M10 -100v165h32l67 435h102l67 -435h32v-165h-65v100h-170v-100h-65zM106 65h106l-51 357h-4z" />
    <glyph glyph-name="iecyrillic" unicode="&#x435;" horiz-adv-x="303" 
d="M214 65v74h60v-99l-40 -40h-165l-40 40v420l40 40h165l40 -40v-243h-175v-152h115zM99 435v-153h105v153h-105z" />
    <glyph glyph-name="zhecyrillic" unicode="&#x436;" horiz-adv-x="522" 
d="M226 289v146h-33v65h136v-65h-33v-146l95 146h-33v65h140v-65h-29l-103 -157l107 -213h30v-65h-135v65h26l-73 145l-25 -39v-106h33v-65h-136v65h33v106l-25 39l-73 -145h26v-65h-135v65h30l107 213l-103 157h-29v65h140v-65h-33z" />
    <glyph glyph-name="zecyrillic" unicode="&#x437;" horiz-adv-x="326" 
d="M216 65v153h-115v65h115v152h-115v-74h-60v139h205l40 -40v-182l-28 -28l28 -27v-183l-40 -40h-165l-40 40v99h60v-74h115z" />
    <glyph glyph-name="iicyrillic" unicode="&#x438;" horiz-adv-x="360" 
d="M128 435v-224l105 209v15h-34v65h137v-65h-33v-370h33v-65h-137v65h34v224l-105 -209v-15h33v-65h-137v65h34v370h-34v65h137v-65h-33z" />
    <glyph glyph-name="iishortcyrillic" unicode="&#x439;" horiz-adv-x="360" 
d="M128 435v-224l105 209v15h-34v65h137v-65h-33v-370h33v-65h-137v65h34v224l-105 -209v-15h33v-65h-137v65h34v370h-34v65h137v-65h-33zM224 625v75h60v-95l-40 -40h-127l-40 40v95h60v-75h87z" />
    <glyph glyph-name="kacyrillic" unicode="&#x43a;" horiz-adv-x="354" 
d="M128 435v-146l95 146h-33v65h140v-65h-29l-103 -157l107 -213h30v-65h-135v65h26l-73 145l-25 -39v-106h33v-65h-136v65h33v370h-33v65h136v-65h-33z" />
    <glyph glyph-name="elcyrillic" unicode="&#x43b;" horiz-adv-x="320" 
d="M175 0v65h37l-51 357h-4l-51 -357h37v-65h-133v65h32l67 435h102l67 -435h32v-65h-135z" />
    <glyph glyph-name="emcyrillic" unicode="&#x43c;" horiz-adv-x="441" 
d="M384 435v-370h33v-65h-137v65h34v245l-60 -245h-68l-60 245v-245h33v-65h-135v65h34v370h-34v65h121l77 -313l75 313h120v-65h-33z" />
    <glyph glyph-name="encyrillic" unicode="&#x43d;" horiz-adv-x="360" 
d="M58 65v370h-34v65h137v-65h-33v-152h105v152h-33v65h136v-65h-33v-370h33v-65h-136v65h33v153h-105v-153h33v-65h-137v65h34z" />
    <glyph glyph-name="ocyrillic" unicode="&#x43e;" horiz-adv-x="303" 
d="M274 460v-420l-40 -40h-165l-40 40v420l40 40h165zM204 65v370h-105v-370h105z" />
    <glyph glyph-name="pecyrillic" unicode="&#x43f;" horiz-adv-x="360" 
d="M233 65v370h-105v-370h33v-65h-137v65h34v370h-34v65h312v-65h-33v-370h33v-65h-136v65h33z" />
    <glyph glyph-name="ercyrillic" unicode="&#x440;" horiz-adv-x="331" 
d="M303 460v-420l-40 -40h-101l-34 34v-169h33v-65h-137v65h34v570h-34v65h104v-34l34 34h101zM233 65v370h-105v-370h105z" />
    <glyph glyph-name="escyrillic" unicode="&#x441;" horiz-adv-x="289" 
d="M200 65v135h60v-160l-40 -40h-151l-40 40v420l40 40h151l40 -40v-160h-60v135h-101v-370h101z" />
    <glyph glyph-name="tecyrillic" unicode="&#x442;" horiz-adv-x="330" 
d="M24 364v136h282v-136h-65v71h-41v-370h34v-65h-138v65h34v370h-41v-71h-65z" />
    <glyph glyph-name="ucyrillic" unicode="&#x443;" horiz-adv-x="316" 
d="M209 435h-28v65h125v-65h-28l-123 -570h27v-65h-124v65h28l37 172l-82 398h-31v65h135v-65h-32l44 -270h4z" />
    <glyph glyph-name="efcyrillic" unicode="&#x444;" horiz-adv-x="476" 
d="M28 40v420l40 40h101l34 -34v169h-33v65h137v-65h-34v-169l34 34h101l40 -40v-420l-40 -40h-101l-34 34v-169h33v-65h-137v65h34v169l-34 -34h-101zM98 435v-370h105v370h-105zM378 65v370h-105v-370h105z" />
    <glyph glyph-name="hacyrillic" unicode="&#x445;" horiz-adv-x="309" 
d="M115 435l45 -101l41 101h-22v65h117v-65h-20l-79 -185l83 -185h21v-65h-122v65h22l-50 112l-46 -112h22v-65h-117v65h20l83 196l-77 174h-21v65h122v-65h-22z" />
    <glyph glyph-name="tsecyrillic" unicode="&#x446;" horiz-adv-x="360" 
d="M127 435v-370h105v370h-33v65h137v-65h-34v-370h34v-165h-65v100h-247v65h33v370h-33v65h136v-65h-33z" />
    <glyph glyph-name="checyrillic" unicode="&#x447;" horiz-adv-x="360" 
d="M127 435v-190h105v190h-33v65h137v-65h-34v-370h34v-65h-137v65h33v149l-34 -34h-101l-40 40v215h-33v65h136v-65h-33z" />
    <glyph glyph-name="shacyrillic" unicode="&#x448;" horiz-adv-x="515" 
d="M127 435v-370h95v370h-33v65h137v-65h-34v-370h95v370h-33v65h137v-65h-34v-370h34v-65h-467v65h33v370h-33v65h136v-65h-33z" />
    <glyph glyph-name="shchacyrillic" unicode="&#x449;" horiz-adv-x="515" 
d="M127 435v-370h95v370h-33v65h137v-65h-34v-370h95v370h-33v65h137v-65h-34v-370h34v-165h-65v100h-402v65h33v370h-33v65h136v-65h-33z" />
    <glyph glyph-name="hardsigncyrillic" unicode="&#x44a;" horiz-adv-x="394" 
d="M24 364v136h210v-65h-34v-152h135l40 -40v-203l-40 -40h-238v65h33v370h-41v-71h-65zM305 218h-105v-153h105v153z" />
    <glyph glyph-name="yericyrillic" unicode="&#x44b;" horiz-adv-x="495" 
d="M303 243v-203l-40 -40h-239v65h34v370h-34v65h137v-65h-33v-152h135zM438 435v-370h33v-65h-137v65h34v370h-34v65h137v-65h-33zM233 218h-105v-153h105v153z" />
    <glyph glyph-name="softsigncyrillic" unicode="&#x44c;" horiz-adv-x="322" 
d="M303 243v-203l-40 -40h-239v65h34v370h-34v65h137v-65h-33v-152h135zM128 65h105v153h-105v-153z" />
    <glyph glyph-name="ereversedcyrillic" unicode="&#x44d;" horiz-adv-x="326" 
d="M216 65v153h-115v65h115v152h-115v-74h-60v139h205l40 -40v-420l-40 -40h-165l-40 40v99h60v-74h115z" />
    <glyph glyph-name="iucyrillic" unicode="&#x44e;" horiz-adv-x="507" 
d="M478 460v-420l-40 -40h-165l-40 40v178h-105v-153h33v-65h-137v65h34v370h-34v65h137v-65h-33v-152h105v177l40 40h165zM408 65v370h-105v-370h105z" />
    <glyph glyph-name="iacyrillic" unicode="&#x44f;" horiz-adv-x="347" 
d="M290 435v-370h33v-65h-137v65h34v122h-69l-31 -122h27v-65h-125v65h29l34 122l-40 40v233l40 40h238v-65h-33zM115 252h105v183h-105v-183z" />
    <glyph glyph-name="iocyrillic" unicode="&#x451;" horiz-adv-x="303" 
d="M214 65v74h60v-99l-40 -40h-165l-40 40v420l40 40h165l40 -40v-243h-175v-152h115zM99 435v-153h105v153h-105zM41 590v84h84v-84h-84zM179 590v84h84v-84h-84z" />
    <glyph glyph-name="djecyrillic" unicode="&#x452;" horiz-adv-x="370" 
d="M7 595h61v40h-34v65h104v-105h80v-55h-80v-74l34 34h101l40 -40v-620l-40 -40h-64v64h34v571h-105v-370h33v-65h-137v65h34v475h-61v55z" />
    <glyph glyph-name="gjecyrillic" unicode="&#x453;" horiz-adv-x="298" 
d="M176 700h70l-58 -135h-70zM274 500v-136h-65v71h-81v-370h33v-65h-137v65h34v370h-34v65h250z" />
    <glyph glyph-name="ecyrillic" unicode="&#x454;" horiz-adv-x="326" 
d="M111 218v-153h115v74h60v-99l-40 -40h-165l-40 40v420l40 40h205v-139h-60v74h-115v-152h115v-65h-115z" />
    <glyph glyph-name="dzecyrillic" unicode="&#x455;" horiz-adv-x="283" 
d="M194 65v153h-125l-40 40v202l40 40h145l40 -40v-99h-60v74h-95v-153h125l40 -40v-202l-40 -40h-165l-40 40v99h60v-74h115z" />
    <glyph glyph-name="icyrillic" unicode="&#x456;" horiz-adv-x="185" 
d="M25 435v65h103v-435h33v-65h-136v65h33v370h-33zM46 590v84h84v-84h-84z" />
    <glyph glyph-name="yicyrillic" unicode="&#x457;" horiz-adv-x="185" 
d="M25 435v65h103v-435h33v-65h-136v65h33v370h-33zM-17 590v84h84v-84h-84zM121 590v84h84v-84h-84z" />
    <glyph glyph-name="jecyrillic" unicode="&#x458;" horiz-adv-x="179" 
d="M128 -160l-40 -40h-110l-40 40v102h60v-78h60v572h-33v64h103v-660zM46 590v84h84v-84h-84z" />
    <glyph glyph-name="ljecyrillic" unicode="&#x459;" horiz-adv-x="453" 
d="M175 0v65h37l-51 357h-4l-51 -357h37v-65h-133v65h32l67 435h102l33 -217h150l40 -40v-203l-40 -40h-219zM278 65h86v153h-110z" />
    <glyph glyph-name="njecyrillic" unicode="&#x45a;" horiz-adv-x="497" 
d="M478 243v-203l-40 -40h-238v65h33v153h-105v-153h33v-65h-137v65h34v370h-34v65h137v-65h-33v-152h105v152h-33v65h136v-65h-33v-152h135zM408 218h-105v-153h105v153z" />
    <glyph glyph-name="tshecyrillic" unicode="&#x45b;" horiz-adv-x="370" 
d="M7 595h61v40h-34v65h104v-105h80v-55h-80v-74l34 34h101l40 -40v-395h33v-65h-103v435h-105v-370h33v-65h-137v65h34v475h-61v55z" />
    <glyph glyph-name="kjecyrillic" unicode="&#x45c;" horiz-adv-x="354" 
d="M202 700h70l-58 -135h-70zM128 435v-146l95 146h-33v65h140v-65h-29l-103 -157l107 -213h30v-65h-135v65h26l-73 145l-25 -39v-106h33v-65h-136v65h33v370h-33v65h136v-65h-33z" />
    <glyph glyph-name="ushortcyrillic" unicode="&#x45e;" horiz-adv-x="316" 
d="M201 625v75h60v-95l-40 -40h-127l-40 40v95h60v-75h87zM209 435h-28v65h125v-65h-28l-123 -570h27v-65h-124v65h28l37 172l-82 398h-31v65h135v-65h-32l44 -270h4z" />
    <glyph glyph-name="dzhecyrillic" unicode="&#x45f;" horiz-adv-x="360" 
d="M127 435v-370h105v370h-33v65h137v-65h-34v-370h34v-65h-124v-100h-65v100h-123v65h33v370h-33v65h136v-65h-33z" />
    <glyph glyph-name="Geupturncyrillic" unicode="&#x490;" horiz-adv-x="274" 
d="M295 636h-154v-572h47v-64h-165v64h48v572h-48v64h205v100h67v-164z" />
    <glyph glyph-name="geupturncyrillic" unicode="&#x491;" horiz-adv-x="298" 
d="M209 600h65v-165h-146v-370h33v-65h-137v65h34v370h-34v65h185v100z" />
    <glyph glyph-name="Wgrave" unicode="&#x1e80;" horiz-adv-x="550" 
d="M179 900h70l58 -135h-70zM318 640l69 -496h4l46 492h-39v64h142v-64h-34l-71 -636h-92l-66 471h-4l-66 -471h-92l-71 636h-34v64h148v-64h-39l46 -492h4l69 496h80z" />
    <glyph glyph-name="wgrave" unicode="&#x1e81;" horiz-adv-x="490" 
d="M153 700h70l58 -135h-70zM296 0l-49 380h-4l-49 -380h-108l-43 435h-31v65h132v-65h-35l33 -337h4l58 402h85l58 -402h4l33 337h-35v65h129v-65h-31l-43 -435h-108z" />
    <glyph glyph-name="Wacute" unicode="&#x1e82;" horiz-adv-x="550" 
d="M304 900h70l-58 -135h-70zM318 640l69 -496h4l46 492h-39v64h142v-64h-34l-71 -636h-92l-66 471h-4l-66 -471h-92l-71 636h-34v64h148v-64h-39l46 -492h4l69 496h80z" />
    <glyph glyph-name="wacute" unicode="&#x1e83;" horiz-adv-x="490" 
d="M268 700h70l-58 -135h-70zM296 0l-49 380h-4l-49 -380h-108l-43 435h-31v65h132v-65h-35l33 -337h4l58 402h85l58 -402h4l33 337h-35v65h129v-65h-31l-43 -435h-108z" />
    <glyph glyph-name="Wdieresis" unicode="&#x1e84;" horiz-adv-x="550" 
d="M161 790v84h84v-84h-84zM299 790v84h84v-84h-84zM318 640l69 -496h4l46 492h-39v64h142v-64h-34l-71 -636h-92l-66 471h-4l-66 -471h-92l-71 636h-34v64h148v-64h-39l46 -492h4l69 496h80z" />
    <glyph glyph-name="wdieresis" unicode="&#x1e85;" horiz-adv-x="490" 
d="M135 590v84h84v-84h-84zM273 590v84h84v-84h-84zM296 0l-49 380h-4l-49 -380h-108l-43 435h-31v65h132v-65h-35l33 -337h4l58 402h85l58 -402h4l33 337h-35v65h129v-65h-31l-43 -435h-108z" />
    <glyph glyph-name="enspace" unicode="&#x2002;" horiz-adv-x="350" 
 />
    <glyph glyph-name="emspace" unicode="&#x2003;" horiz-adv-x="700" 
 />
    <glyph glyph-name="threeperemspace" unicode="&#x2004;" horiz-adv-x="525" 
 />
    <glyph glyph-name="fourperemspace" unicode="&#x2005;" horiz-adv-x="175" 
 />
    <glyph glyph-name="sixperemspace" unicode="&#x2006;" horiz-adv-x="117" 
 />
    <glyph glyph-name="figurespace" unicode="&#x2007;" horiz-adv-x="400" 
 />
    <glyph glyph-name="punctuationspace" unicode="&#x2008;" horiz-adv-x="200" 
 />
    <glyph glyph-name="thinspace" unicode="&#x2009;" horiz-adv-x="100" 
 />
    <glyph glyph-name="hairspace" unicode="&#x200a;" horiz-adv-x="50" 
 />
    <glyph glyph-name="zerowidthspace" unicode="&#x200b;" horiz-adv-x="0" 
 />
    <glyph glyph-name="figuredash" unicode="&#x2012;" horiz-adv-x="400" 
d="M352 334v-66h-304v66h304z" />
    <glyph glyph-name="endash" unicode="&#x2013;" horiz-adv-x="350" 
d="M315 334v-66h-280v66h280z" />
    <glyph glyph-name="emdash" unicode="&#x2014;" horiz-adv-x="700" 
d="M665 334v-66h-630v66h630z" />
    <glyph glyph-name="uni2015" unicode="&#x2015;" horiz-adv-x="800" 
d="M752 334v-66h-704v66h704z" />
    <glyph glyph-name="quoteleft" unicode="&#x2018;" horiz-adv-x="200" 
d="M45 500v96l45 104h70l-45 -104v-96h-70z" />
    <glyph glyph-name="quoteright" unicode="&#x2019;" horiz-adv-x="200" 
d="M155 700v-96l-45 -104h-70l45 104v96h70z" />
    <glyph glyph-name="quotesinglbase" unicode="&#x201a;" horiz-adv-x="200" 
d="M155 79v-96l-45 -104h-70l45 104v96h70z" />
    <glyph glyph-name="reversequoteleft" unicode="&#x201b;" horiz-adv-x="200" 
d="M45 604v96h70v-96l45 -104h-70z" />
    <glyph glyph-name="quotedblleft" unicode="&#x201c;" horiz-adv-x="320" 
d="M45 500v96l45 104h70l-45 -104v-96h-70zM165 500v96l45 104h70l-45 -104v-96h-70z" />
    <glyph glyph-name="quotedblright" unicode="&#x201d;" horiz-adv-x="320" 
d="M275 700v-96l-45 -104h-70l45 104v96h70zM155 700v-96l-45 -104h-70l45 104v96h70z" />
    <glyph glyph-name="quotedblbase" unicode="&#x201e;" horiz-adv-x="320" 
d="M275 79v-96l-45 -104h-70l45 104v96h70zM155 79v-96l-45 -104h-70l45 104v96h70z" />
    <glyph glyph-name="reversequotedblleft" unicode="&#x201f;" horiz-adv-x="320" 
d="M165 604v96h70v-96l45 -104h-70zM45 604v96h70v-96l45 -104h-70z" />
    <glyph glyph-name="dagger" unicode="&#x2020;" 
d="M157 700h66v-112h112v-66h-112v-322h-66v322h-112v66h112v112z" />
    <glyph glyph-name="daggerdbl" unicode="&#x2021;" 
d="M157 700h66v-112h112v-66h-112v-134h112v-66h-112v-322h-66v322h-112v66h112v134h-112v66h112v112z" />
    <glyph glyph-name="bullet" unicode="&#x2022;" horiz-adv-x="300" 
d="M65 265v170h170v-170h-170z" />
    <glyph glyph-name="ellipsis" unicode="&#x2026;" horiz-adv-x="700" 
d="M85 0v70h70v-70h-70zM315 0v70h70v-70h-70zM545 0v70h70v-70h-70z" />
    <glyph glyph-name="Euro" unicode="&#x20ac;" 
d="M95 660l40 40h160l40 -40v-99h-60v74h-110v-186h140l-20 -66h-120v-66h100l-20 -66h-80v-186h110v74h60v-99l-40 -40h-160l-40 40v211h-50v66h50v66h-50v66h50v211z" />
    <glyph glyph-name="published" unicode="&#x2117;" horiz-adv-x="579" 
d="M500 0h-431l-30 30v630l40 40h421l40 -40v-620zM99 65h371v570h-371v-570zM370 285h-131v-155h-70v440h201l40 -40v-205zM340 505h-101v-155h101v155z" />
    <glyph glyph-name="servicemark" unicode="&#x2120;" horiz-adv-x="483" 
d="M139 394v111h-76l-28 28v139l28 28h94l28 -28v-73h-46v57h-54v-107h76l28 -27v-144l-28 -28h-102l-28 28v72h47v-56h61zM441 350h-48v227l-41 -162h-33l-42 162v-227h-46v350h55l49 -185l49 185h57v-350z" />
    <glyph glyph-name="trademark" unicode="&#x2122;" horiz-adv-x="482" 
d="M135 350h-50v306h-58v44h166v-44h-58v-306zM441 350h-47v227l-42 -162h-33l-41 162v-227h-47v350h56l49 -185l49 185h56v-350z" />
    <glyph glyph-name="partialdiff" unicode="&#x2202;" horiz-adv-x="1086" 
d="M1066 637q-29 -7 -41.5 -17.5t-40.5 -52.5l-4 -7q-5 -6 -6.5 -8t-7 -9t-10 -11t-12.5 -11.5t-16 -13.5t-19.5 -14t-24.5 -16q-41 -25 -41 -49q0 -8 4.5 -24t5.5 -22q4 -23 6 -47t3 -32.5t5 -18t13 -18.5q15 -15 15 -36q0 -7 -4 -40t-4 -63q0 -9 2 -35t2 -39
q0 -16 -12 -28q-5 -5 -8.5 -15t-5.5 -12q-6 -6 -23 -6q-15 0 -29.5 4.5t-14.5 11.5q0 5 6.5 13t6.5 10q-1 5 -7.5 6t-6.5 5t16 19.5t16 26.5q0 23 -17 125q-9 13 -34 37.5t-47 59.5q-24 18 -54 18q-33 0 -113 -34t-135 -38q-2 0 -2 -3q0 -16 -1.5 -51.5t-1.5 -54.5
q0 -77 -24 -96q-16 -41 -23 -47q-8 -5 -23 -5q-18 0 -33.5 4.5t-15.5 11.5t4.5 13t8.5 9.5t4 4.5t-4.5 4.5t-4.5 6.5q0 12 41 28q4 20 4 34q0 27 -10 77l-16 73q-64 48 -114 187q-11 32 -30 32q-4 0 -16 -3t-21 -3q-15 0 -15 8q0 4 4.5 11.5t4.5 10.5q0 7 -19.5 9t-42.5 2
t-41.5 6.5t-17.5 21.5q-24 13 -24 41q0 6 7.5 11t34.5 18q7 3 12 5.5l13 6.5l16 8q13 7 28.5 24t33.5 28.5t47 11.5q38 0 71 -32t57.5 -68.5t35.5 -41.5q68 -31 247 -31q29 0 70 3t50 3q38 0 68.5 -13t40.5 -13q39 0 87 36q27 20 49 49.5t24 32.5q34 36 74 36q20 0 20 -11
q0 -10 -20 -14z" />
    <glyph glyph-name="minus" unicode="&#x2212;" 
d="M335 383v-66h-290v66h290z" />
    <glyph glyph-name="radical" unicode="&#x221a;" horiz-adv-x="732" 
d="M366 0q-9 0 -19 5q-27 13 -61 34.5t-87.5 66t-95 94t-72.5 122t-31 147.5q0 99 61 165t151 66q88 0 154 -80q66 80 154 80q90 0 151 -66t61 -165q0 -75 -31 -147.5t-72.5 -122t-95 -94t-87.5 -66t-61 -34.5q-10 -5 -19 -5zM606 514q10 1 10 6q0 6 -10 6q-19 0 -35 -17
q-2 -2 -12.5 -16t-22.5 -24q-22 -17 -41 -17q-4 0 -19 6.5t-33 6.5q-5 0 -24 -1.5t-33 -1.5q-85 0 -118 15q-5 2 -16.5 19.5t-27.5 32.5t-34 15q-19 0 -33.5 -14t-18.5 -16q-5 -3 -10 -5.5t-8.5 -4t-6.5 -3.5t-5 -2.5t-4 -1.5t-2.5 -2t-1.5 -1.5t-1 -1.5v-2q0 -6 2.5 -10.5
t5.5 -6.5l3 -2q-1 -12 28.5 -13.5t29.5 -5.5q0 -1 -2 -4.5t-2 -5.5q0 -4 7 -4q4 0 9.5 1.5t7.5 1.5q9 0 15 -15q23 -66 54 -89l7 -35q5 -18 5 -37q0 -6 -2 -16q-19 -7 -19 -13q0 -1 2 -3l2 -2l-4 -5q-4 -4 -4 -8q0 -8 23 -8q3 0 5 0.5t3.5 0.5t2.5 1.5t2 2.5t2.5 3.5t2 4
l2 6t2.5 6.5q12 10 12 46q0 9 0.5 25.5t0.5 24.5q0 1 1 1q26 2 64 18.5t54 16.5q13 0 25 -9q11 -16 22.5 -27.5t16.5 -18.5q8 -53 8 -59q0 -5 -7.5 -12.5t-7.5 -9.5q0 -3 3 -3t3 -2q0 -1 -3 -5t-3 -6q0 -8 21 -8q8 0 11 3q1 1 3 5.5t4 7.5q6 6 6 13q0 6 -1 18.5t-1 16.5
q0 14 1.5 30t1.5 19q0 11 -7 17q-4 4 -6 9t-2.5 9t-1.5 15t-3 22q0 3 -2 10.5t-2 11.5q0 11 19 24q30 17 48 42q13 20 19 25t20 9z" />
    <glyph glyph-name="approxequal" unicode="&#x2248;" 
d="M295 217l-190 56v-45h-60v70l40 40l190 -56v45h60v-70zM295 362l-190 56v-45h-60v70l40 40l190 -56v45h60v-70z" />
    <glyph glyph-name="notequal" unicode="&#x2260;" 
d="M45 146l58 105h-58v66h94l37 66h-131v66h167l58 105h65l-58 -105h58v-66h-94l-37 -66h131v-66h-167l-58 -105h-65z" />
    <glyph glyph-name="fi" unicode="&#xfb01;" horiz-adv-x="495" 
d="M146 64h32v-64h-135v64h32v371h-56v65h56v160l40 40h128l40 -40v-85h-60v60h-77v-135h113v-65h-113v-371zM356 616v84h84v-84h-84zM335 435v65h103v-435h33v-65h-136v65h33v370h-33z" />
    <glyph glyph-name="fl" unicode="&#xfb02;" horiz-adv-x="495" 
d="M146 64h32v-64h-135v64h32v371h-56v65h56v160l40 40h128l40 -40v-85h-60v60h-77v-135h113v-65h-113v-371zM335 636v64h103v-636h33v-64h-136v64h33v572h-33z" />
    <glyph glyph-name="caronSlovak" unicode="&#x100148;" horiz-adv-x="336" 
d="M370 525h-70l20 175h70z" />
    <glyph glyph-name="commaaccent" unicode="&#x100174;" horiz-adv-x="336" 
d="M184 -200h-70l20 165h70z" />
    <glyph glyph-name="dotbelow" unicode="&#x1001c7;" horiz-adv-x="336" 
d="M210 -90v-84h-84v84h84z" />
    <glyph glyph-name="emdash.cap" unicode="&#x1002d3;" horiz-adv-x="700" 
d="M665 383v-66h-630v66h630z" />
    <glyph glyph-name="endash.cap" unicode="&#x1002d7;" horiz-adv-x="350" 
d="M315 383v-66h-280v66h280z" />
    <glyph glyph-name="figuredash.cap" unicode="&#x100375;" horiz-adv-x="400" 
d="M352 383v-66h-304v66h304z" />
    <glyph glyph-name="hyphen.cap" unicode="&#x100480;" horiz-adv-x="260" 
d="M225 383v-66h-190v66h190z" />
    <glyph glyph-name="idotaccent" unicode="&#x1004c3;" horiz-adv-x="185" 
d="M46 616v84h84v-84h-84zM25 435v65h103v-435h33v-65h-136v65h33v370h-33z" />
    <glyph glyph-name="invertedbreve" unicode="&#x1004f2;" horiz-adv-x="336" 
d="M125 640v-75h-60v95l40 40h127l40 -40v-95h-60v75h-87z" />
    <glyph glyph-name="onethirdemdash" unicode="&#x100704;" horiz-adv-x="233" 
d="M185 334v-66h-137v66h137z" />
    <glyph glyph-name="onethirdemdash.cap" unicode="&#x100705;" horiz-adv-x="233" 
d="M185 383v-66h-137v66h137z" />
    <glyph glyph-name="periodcentered.cap" unicode="&#x10074e;" horiz-adv-x="200" 
d="M65 315v70h70v-70h-70z" />
    <glyph glyph-name="registered.cap" unicode="&#x1007d2;" horiz-adv-x="579" 
d="M500 0h-421l-40 40v620l40 40h421l40 -40v-620zM109 65h361v570h-361v-570zM239 505v-155h96v155h-96zM420 130h-68l-47 155h-66v-155h-70v440h196l40 -40v-205l-34 -34z" />
    <glyph glyph-name="threequarteremdash" unicode="&#x1008b4;" horiz-adv-x="525" 
d="M477 334v-66h-429v66h429z" />
    <glyph glyph-name="threequarteremdash.cap" unicode="&#x1008b5;" horiz-adv-x="525" 
d="M477 383v-66h-429v66h429z" />
    <glyph glyph-name="uni2015.cap" unicode="&#x10094d;" horiz-adv-x="800" 
d="M752 383v-66h-704v66h704z" />
    <glyph glyph-name="doublegrave" horiz-adv-x="336" 
d="M131 700h70l58 -135h-70zM21 700h70l58 -135h-70z" />
    </font>
</defs>
</svg>
