<?xml version="1.0" standalone="no"?>
<!DOCTYPE svg PUBLIC "-//W3C//DTD SVG 1.1//EN" "http://www.w3.org/Graphics/SVG/1.1/DTD/svg11.dtd" >
<svg xmlns="http://www.w3.org/2000/svg" xmlns:xlink="http://www.w3.org/1999/xlink" version="1.1">
<metadata>
Created by FontForge 20170731 at Tue Nov 17 02:40:27 2015
 By Aleksey,,,
Copyright (c) 2011-15 Victoria's Secret Pink. All rights reserved.
</metadata>
<defs>
<font id="PinkSlab-100" horiz-adv-x="370" >
  <font-face 
    font-family="Pink Slab 100"
    font-weight="550"
    font-stretch="normal"
    units-per-em="1000"
    panose-1="2 0 0 0 0 0 0 0 0 0"
    ascent="800"
    descent="-200"
    x-height="500"
    cap-height="700"
    bbox="-90 -200 1086 900"
    underline-thickness="50"
    underline-position="-200"
    unicode-range="U+0020-10094D"
  />
<missing-glyph horiz-adv-x="820" 
d="M60 700h700v-700h-700v700zM160 612v-524h500v524h-500zM330 546l80 -112l80 112h120l-140 -196l140 -196h-120l-80 112l-80 -112h-120l140 196l-140 196h120z" />
    <glyph glyph-name=".notdef" horiz-adv-x="820" 
d="M60 700h700v-700h-700v700zM160 612v-524h500v524h-500zM330 546l80 -112l80 112h120l-140 -196l140 -196h-120l-80 112l-80 -112h-120l140 196l-140 196h120z" />
    <glyph glyph-name=".null" horiz-adv-x="0" 
 />
    <glyph glyph-name="nonmarkingreturn" horiz-adv-x="333" 
 />
    <glyph glyph-name="space" unicode=" " horiz-adv-x="200" 
 />
    <glyph glyph-name="exclam" unicode="!" horiz-adv-x="230" 
d="M79 200l-28 500h128l-28 -500h-72zM65 0v100h100v-100h-100z" />
    <glyph glyph-name="quotedbl" unicode="&#x22;" horiz-adv-x="390" 
d="M74 454l-19 246h120l-19 -246h-82zM234 454l-19 246h120l-19 -246h-82z" />
    <glyph glyph-name="numbersign" unicode="#" horiz-adv-x="400" 
d="M240 700h80v-180h50v-88h-50v-164h50v-88h-50v-180h-80v180h-80v-180h-80v180h-50v88h50v164h-50v88h50v180h80v-180h80v180zM160 432v-164h80v164h-80z" />
    <glyph glyph-name="dollar" unicode="$" horiz-adv-x="400" 
d="M370 339v-184l-55 -55h-75v-100h-90v100h-65l-55 55v95h90v-62h150v118h-175l-55 55v184l55 55h65v100h90v-100h55l55 -55v-95h-90v62h-130v-118h175z" />
    <glyph glyph-name="percent" unicode="%" horiz-adv-x="728" 
d="M310 651v-208l-49 -50h-158l-49 50v208l49 49h158zM228 472v149h-92v-149h92zM95 0l438 700h87l-438 -700h-87zM405 49v208l49 50h158l49 -50v-208l-49 -49h-158zM487 228v-149h92v149h-92z" />
    <glyph glyph-name="ampersand" unicode="&#x26;" horiz-adv-x="450" 
d="M350 642v-152l-109 -108l42 -85l42 91h103l-93 -199l93 -189h-110l-36 73l-34 -73h-144l-59 59v252l80 80l-57 116v135l58 58h165zM166 308l-21 -22v-198h42l42 92zM168 612v-79l32 -67l52 51v95h-84z" />
    <glyph glyph-name="quotesingle" unicode="'" horiz-adv-x="230" 
d="M74 454l-19 246h120l-19 -246h-82z" />
    <glyph glyph-name="parenleft" unicode="(" horiz-adv-x="250" 
d="M215 -12v-88h-114l-56 55v790l56 55h114v-88h-70v-724h70z" />
    <glyph glyph-name="parenright" unicode=")" horiz-adv-x="250" 
d="M35 712v88h115l55 -55v-790l-55 -55h-115v88h70v724h-70z" />
    <glyph glyph-name="asterisk" unicode="*" horiz-adv-x="380" 
d="M38 589l39 69l73 -42v84h80v-84l73 42l39 -69l-73 -42l73 -42l-39 -70l-73 42v-84h-80v84l-73 -42l-39 70l72 42z" />
    <glyph glyph-name="plus" unicode="+" horiz-adv-x="403" 
d="M157 512h89v-117h117v-90h-117v-117h-89v117h-117v90h117v117z" />
    <glyph glyph-name="comma" unicode="," horiz-adv-x="230" 
d="M165 100v-88l-48 -112h-97l45 104v96h100z" />
    <glyph glyph-name="hyphen" unicode="-" horiz-adv-x="260" 
d="M220 345v-88h-180v88h180z" />
    <glyph glyph-name="period" unicode="." horiz-adv-x="230" 
d="M65 0v100h100v-100h-100z" />
    <glyph glyph-name="slash" unicode="/" horiz-adv-x="330" 
d="M0 -100l235 900h95l-235 -900h-95z" />
    <glyph glyph-name="zero" unicode="0" horiz-adv-x="400" 
d="M360 630v-560l-70 -70h-180l-70 70v560l70 70h180zM260 88v524h-120v-524h120z" />
    <glyph glyph-name="one" unicode="1" horiz-adv-x="390" 
d="M45 555l145 145h70v-612h100v-88h-300v88h100v457l-52 -52z" />
    <glyph glyph-name="two" unicode="2" horiz-adv-x="400" 
d="M140 306v-218h127v113h93v-201h-320v339l55 55h157v218h-112v-113h-93v146l56 55h194l55 -55v-283l-55 -56h-157z" />
    <glyph glyph-name="three" unicode="3" horiz-adv-x="400" 
d="M40 500v130l70 70h171l70 -70v-234l-36 -36l45 -45v-245l-70 -70h-180l-70 70v130h90v-112h130v223h-137v88h128v213h-121v-112h-90z" />
    <glyph glyph-name="four" unicode="4" horiz-adv-x="400" 
d="M30 182v81l162 437h125v-430h53v-88h-53v-94h52v-88h-203v88h51v94h-187zM122 270h95v270z" />
    <glyph glyph-name="five" unicode="5" horiz-adv-x="400" 
d="M43 311v389h317v-88h-217v-213h147l70 -70v-259l-70 -70h-182l-70 70v131h88v-113h134v223h-217z" />
    <glyph glyph-name="six" unicode="6" horiz-adv-x="400" 
d="M110 0l-70 70v560l70 70h175l70 -70v-131h-91v113h-124v-213h150l70 -70v-259l-70 -70h-180zM140 311v-223h120v223h-120z" />
    <glyph glyph-name="seven" unicode="7" horiz-adv-x="400" 
d="M38 499v201h325v-178l-150 -522h-101l151 526v86h-134v-113h-91z" />
    <glyph glyph-name="eight" unicode="8" horiz-adv-x="400" 
d="M49 396v234l70 70h162l70 -70v-234l-36 -36l45 -45v-245l-70 -70h-180l-70 70v245l45 45zM140 311v-223h120v223h-120zM149 612v-213h102v213h-102z" />
    <glyph glyph-name="nine" unicode="9" horiz-adv-x="400" 
d="M290 700l70 -70v-560l-70 -70h-180l-70 70v131h92v-113h128v213h-150l-70 70v259l70 70h180zM260 389v223h-120v-223h120z" />
    <glyph glyph-name="colon" unicode=":" horiz-adv-x="230" 
d="M65 0v100h100v-100h-100zM65 340v100h100v-100h-100z" />
    <glyph glyph-name="semicolon" unicode=";" horiz-adv-x="230" 
d="M65 340v100h100v-100h-100zM165 100v-87l-48 -113h-97l45 104v96h100z" />
    <glyph glyph-name="less" unicode="&#x3c;" horiz-adv-x="403" 
d="M363 250v-96l-323 146v100l323 146v-96l-226 -100z" />
    <glyph glyph-name="equal" unicode="=" horiz-adv-x="403" 
d="M363 472v-89h-323v89h323zM363 317v-89h-323v89h323z" />
    <glyph glyph-name="greater" unicode="&#x3e;" horiz-adv-x="403" 
d="M40 450v96l323 -146v-100l-323 -146v96l226 100z" />
    <glyph glyph-name="question" unicode="?" horiz-adv-x="400" 
d="M40 499v131l70 70h180l70 -70v-213l-117 -98l-6 -119h-73l-8 170l104 87v155h-129v-113h-91zM151 0v100h100v-100h-100z" />
    <glyph glyph-name="at" unicode="@" horiz-adv-x="649" 
d="M275 314v-94h82v94h-82zM613 83v-83h-532l-45 45v609l45 45h487l45 -45v-471l-45 -45h-161l-33 33l-32 -33h-116l-51 51v148l51 52h131v91h-82v-49h-90v82l48 49h176l48 -49v-293h66v397h-401v-534h491z" />
    <glyph glyph-name="A" unicode="A" horiz-adv-x="413" 
d="M403 88v-88h-173v88h36l-15 107h-104l-15 -107h37v-88h-159v88h36l88 612h145l88 -612h36zM199 556l-39 -273h78z" />
    <glyph glyph-name="B" unicode="B" horiz-adv-x="401" 
d="M371 325v-269l-56 -56h-295v88h41v524h-41v88h286l55 -55v-260l-25 -25zM161 311v-223h110v223h-110zM161 612v-213h100v213h-100z" />
    <glyph glyph-name="C" unicode="C" 
d="M285 0h-199l-56 56v589l56 55h199l55 -55v-145h-91v112h-119v-524h119v112h91v-144z" />
    <glyph glyph-name="D" unicode="D" horiz-adv-x="401" 
d="M371 645v-589l-56 -56h-295v88h41v524h-41v88h295zM161 612v-524h110v524h-110z" />
    <glyph glyph-name="E" unicode="E" horiz-adv-x="374" 
d="M354 0h-334v88h41v524h-41v88h334v-201h-93v113h-100v-213h127v-88h-127v-223h100v113h93v-201z" />
    <glyph glyph-name="F" unicode="F" horiz-adv-x="374" 
d="M201 88v-88h-181v88h41v524h-41v88h334v-201h-93v113h-100v-223h130v-88h-130v-213h40z" />
    <glyph glyph-name="G" unicode="G" 
d="M285 0h-199l-56 56v589l56 55h199l55 -55v-146h-95v113h-115v-524h110v193h-45v88h145v-313z" />
    <glyph glyph-name="H" unicode="H" horiz-adv-x="431" 
d="M230 0v88h41v223h-110v-223h40v-88h-181v88h41v524h-41v88h181v-88h-40v-213h110v213h-41v88h181v-88h-40v-524h40v-88h-181z" />
    <glyph glyph-name="I" unicode="I" horiz-adv-x="221" 
d="M20 612v88h181v-88h-40v-524h40v-88h-181v88h41v524h-41z" />
    <glyph glyph-name="J" unicode="J" horiz-adv-x="336" 
d="M220 0h-154l-56 56v145h93v-113h72v524h-40v88h181v-88h-41v-556z" />
    <glyph glyph-name="K" unicode="K" horiz-adv-x="448" 
d="M418 88v-88h-177v88h33l-67 193l-46 -98v-95h40v-88h-181v88h41v524h-41v88h181v-88h-40v-237l112 237h-34v88h168v-88h-35l-101 -207l111 -317h36z" />
    <glyph glyph-name="L" unicode="L" horiz-adv-x="349" 
d="M236 201h93v-201h-309v88h41v524h-41v88h181v-88h-40v-524h75v113z" />
    <glyph glyph-name="M" unicode="M" horiz-adv-x="542" 
d="M522 88v-88h-181v88h40v367l-83 -325h-69l-80 311v-353h40v-88h-169v88h41v524h-41v88h153l98 -369l98 369h153v-88h-41v-524h41z" />
    <glyph glyph-name="N" unicode="N" horiz-adv-x="434" 
d="M414 700v-88h-41v-612h-103l-121 418v-330h40v-88h-169v88h41v524h-41v88h143l122 -419v331h-40v88h169z" />
    <glyph glyph-name="O" unicode="O" 
d="M340 645v-589l-55 -56h-199l-56 56v589l56 55h199zM240 88v524h-110v-524h110z" />
    <glyph glyph-name="P" unicode="P" horiz-adv-x="401" 
d="M371 645v-328l-56 -56h-154v-173h40v-88h-181v88h41v524h-41v88h295zM161 612v-263h110v263h-110z" />
    <glyph glyph-name="Q" unicode="Q" 
d="M278 0h-192l-56 56v589l56 55h199l55 -55v-583l78 -78l-62 -62zM240 88v524h-110v-524h110z" />
    <glyph glyph-name="R" unicode="R" horiz-adv-x="403" 
d="M161 612v-263h110v263h-110zM371 645v-328l-56 -56l36 -173h32v-88h-112l-55 261h-55v-173h40v-88h-181v88h41v524h-41v88h295z" />
    <glyph glyph-name="S" unicode="S" horiz-adv-x="375" 
d="M245 88v223h-152l-55 56v278l55 55h189l56 -55v-146h-93v113h-107v-213h152l55 -55v-288l-55 -56h-204l-56 56v145h93v-113h122z" />
    <glyph glyph-name="T" unicode="T" horiz-adv-x="422" 
d="M301 88v-88h-180v88h40v524h-53v-113h-93v201h392v-201h-93v113h-53v-524h40z" />
    <glyph glyph-name="U" unicode="U" horiz-adv-x="431" 
d="M230 612v88h181v-88h-40v-556l-56 -56h-199l-55 56v556h-41v88h179v-88h-40v-524h112v524h-41z" />
    <glyph glyph-name="V" unicode="V" horiz-adv-x="413" 
d="M10 612v88h173v-88h-37l65 -488h4l65 488h-36v88h159v-88h-36l-83 -612h-155l-83 612h-36z" />
    <glyph glyph-name="W" unicode="W" horiz-adv-x="597" 
d="M10 612v88h169v-88h-33l31 -407h4l70 435h111l70 -436h4l31 408h-33v88h153v-88h-35l-58 -612h-132l-61 428h-4l-62 -428h-134l-56 612h-35z" />
    <glyph glyph-name="X" unicode="X" horiz-adv-x="412" 
d="M15 612v88h175v-88h-35l55 -136l56 136h-33v88h159v-88h-32l-104 -245l114 -279h32v-88h-174v88h34l-62 155l-64 -155h34v-88h-160v88h32l112 263l-107 261h-32z" />
    <glyph glyph-name="Y" unicode="Y" horiz-adv-x="391" 
d="M10 612v88h168v-88h-35l58 -201l57 201h-35v88h158v-88h-30l-104 -357v-167h40v-88h-181v88h41v160l-107 364h-30z" />
    <glyph glyph-name="Z" unicode="Z" horiz-adv-x="357" 
d="M329 700v-90l-208 -522h123v113h93v-201h-317v90l209 522h-108v-113h-93v201h301z" />
    <glyph glyph-name="bracketleft" unicode="[" horiz-adv-x="250" 
d="M215 -12v-88h-170v900h170v-88h-70v-724h70z" />
    <glyph glyph-name="backslash" unicode="\" horiz-adv-x="330" 
d="M95 800l235 -900h-95l-235 900h95z" />
    <glyph glyph-name="bracketright" unicode="]" horiz-adv-x="250" 
d="M35 -100v88h70v724h-70v88h170v-900h-170z" />
    <glyph glyph-name="asciicircum" unicode="^" horiz-adv-x="403" 
d="M102 410h-97l146 290h101l146 -290h-97l-100 197z" />
    <glyph glyph-name="underscore" unicode="_" horiz-adv-x="200" 
d="M200 -67v-88h-200v88h200z" />
    <glyph glyph-name="grave" unicode="`" 
d="M80 700h96l58 -135h-96z" />
    <glyph glyph-name="a" unicode="a" horiz-adv-x="360" 
d="M310 445v-357h30v-88h-130v40l-40 -40h-95l-55 55v190l55 55h135v112h-90v-62h-90v95l55 55h170zM120 212v-124h90v124h-90z" />
    <glyph glyph-name="b" unicode="b" horiz-adv-x="365" 
d="M340 445v-390l-55 -55h-95l-40 40v-40h-130v88h30v524h-30v88h130v-240l40 40h95zM150 412v-324h90v324h-90z" />
    <glyph glyph-name="c" unicode="c" horiz-adv-x="330" 
d="M250 0h-170l-55 55v390l55 55h170l55 -55v-145h-90v112h-90v-324h90v112h90v-145z" />
    <glyph glyph-name="d" unicode="d" horiz-adv-x="365" 
d="M25 55v390l55 55h95l40 -40v152h-30v88h130v-612h30v-88h-130v40l-40 -40h-95zM125 412v-324h90v324h-90z" />
    <glyph glyph-name="e" unicode="e" horiz-adv-x="340" 
d="M25 55v390l55 55h180l55 -55v-239h-190v-118h100v62h90v-95l-55 -55h-180zM125 412v-118h90v118h-90z" />
    <glyph glyph-name="f" unicode="f" horiz-adv-x="340" 
d="M20 412v88h50v145l55 55h140l55 -55v-95h-90v62h-60v-112h120v-88h-120v-322h30v-90h-160v90h30v322h-50z" />
    <glyph glyph-name="g" unicode="g" horiz-adv-x="335" 
d="M25 55v390l55 55h95l40 -40v40h100v-645l-55 -55h-180l-55 55v95h90v-62h100v152l-40 -40h-95zM125 412v-324h90v324h-90z" />
    <glyph glyph-name="h" unicode="h" horiz-adv-x="390" 
d="M240 0v412h-90v-324h30v-88h-160v88h30v524h-30v88h130v-240l40 40h95l55 -55v-357h30v-88h-130z" />
    <glyph glyph-name="i" unicode="i" horiz-adv-x="200" 
d="M20 412v88h130v-412h30v-88h-160v88h30v324h-30zM45 590v110h110v-110h-110z" />
    <glyph glyph-name="j" unicode="j" horiz-adv-x="190" 
d="M20 412v88h130v-644l-55 -56h-129l-56 56v104h90v-72h50v524h-30zM45 590v110h110v-110h-110z" />
    <glyph glyph-name="k" unicode="k" horiz-adv-x="390" 
d="M210 0v88h25l-52 120l-33 -46v-74h30v-88h-160v88h30v524h-30v88h130v-381l66 93h-26v88h170v-88h-30l-79 -110l93 -214h26v-88h-160z" />
    <glyph glyph-name="l" unicode="l" horiz-adv-x="200" 
d="M20 612v88h130v-612h30v-88h-160v88h30v524h-30z" />
    <glyph glyph-name="m" unicode="m" horiz-adv-x="540" 
d="M220 0v412h-70v-324h30v-88h-160v88h30v324h-30v88h130v-40l40 40h75l40 -40l40 40h90l55 -55v-357h30v-88h-130v412h-70v-324h30v-88h-130z" />
    <glyph glyph-name="n" unicode="n" horiz-adv-x="390" 
d="M240 0v412h-90v-324h30v-88h-160v88h30v324h-30v88h130v-40l40 40h95l55 -55v-357h30v-88h-130z" />
    <glyph glyph-name="o" unicode="o" horiz-adv-x="340" 
d="M260 0h-180l-55 55v390l55 55h180l55 -55v-390zM125 412v-324h90v324h-90z" />
    <glyph glyph-name="p" unicode="p" horiz-adv-x="365" 
d="M340 445v-390l-55 -55h-95l-40 40v-152h30v-88h-160v88h30v524h-30v88h130v-40l40 40h95zM150 412v-324h90v324h-90z" />
    <glyph glyph-name="q" unicode="q" horiz-adv-x="365" 
d="M25 55v390l55 55h95l40 -40v40h100v-612h30v-88h-160v88h30v152l-40 -40h-95zM125 412v-324h90v324h-90z" />
    <glyph glyph-name="r" unicode="r" horiz-adv-x="330" 
d="M220 350v62h-70v-324h30v-88h-160v88h30v324h-30v88h130v-40l40 40h65l55 -55v-95h-90z" />
    <glyph glyph-name="s" unicode="s" horiz-adv-x="330" 
d="M310 239v-184l-55 -55h-180l-55 55v95h90v-62h100v118h-125l-55 55v184l55 55h160l55 -55v-95h-90v62h-80v-118h125z" />
    <glyph glyph-name="t" unicode="t" horiz-adv-x="320" 
d="M20 412v88h50v100h100v-100h130v-88h-130v-324h40v62h90v-95l-55 -55h-120l-55 55v357h-50z" />
    <glyph glyph-name="u" unicode="u" horiz-adv-x="390" 
d="M150 500v-412h90v324h-30v88h130v-412h30v-88h-130v40l-40 -40h-95l-55 55v357h-30v88h130z" />
    <glyph glyph-name="v" unicode="v" horiz-adv-x="380" 
d="M170 500v-88h-33l56 -298h4l55 298h-32v88h150v-88h-30l-75 -412h-150l-75 412h-30v88h160z" />
    <glyph glyph-name="w" unicode="w" horiz-adv-x="540" 
d="M315 0l-43 327h-4l-43 -327h-143l-42 412h-30v88h154v-88h-28l26 -292h4l50 380h117l50 -380h4l26 292h-28v88h145v-88h-30l-42 -412h-143z" />
    <glyph glyph-name="x" unicode="x" horiz-adv-x="350" 
d="M150 88v-88h-140v88h20l85 173l-80 151h-20v88h150v-88h-19l38 -70l32 70h-21v88h140v-88h-20l-81 -164l86 -160h20v-88h-150v88h18l-42 79l-38 -79h22z" />
    <glyph glyph-name="y" unicode="y" horiz-adv-x="380" 
d="M170 500v-88h-26l50 -234h4l48 234h-26v88h150v-88h-25l-141 -524h26v-88h-150v88h25l36 143l-106 381h-25v88h160z" />
    <glyph glyph-name="z" unicode="z" horiz-adv-x="310" 
d="M20 350v150h270v-88l-170 -324h90v62h90v-150h-290v88l168 324h-68v-62h-90z" />
    <glyph glyph-name="braceleft" unicode="{" horiz-adv-x="250" 
d="M68 -45v351h-46v88h46v351l56 55h91v-88h-47v-331l-32 -31l32 -31v-331h47v-88h-91z" />
    <glyph glyph-name="bar" unicode="|" horiz-adv-x="250" 
d="M75 -100v900h100v-900h-100z" />
    <glyph glyph-name="braceright" unicode="}" horiz-adv-x="250" 
d="M182 745v-351h46v-88h-46v-351l-56 -55h-91v88h47v331l31 31l-31 31v331h-47v88h91z" />
    <glyph glyph-name="asciitilde" unicode="~" horiz-adv-x="380" 
d="M301 295l-182 34v-41h-80v78l40 40l182 -34v41h80v-78z" />
    <glyph glyph-name="nbspace" unicode="&#xa0;" horiz-adv-x="200" 
 />
    <glyph glyph-name="exclamdown" unicode="&#xa1;" horiz-adv-x="230" 
d="M151 500l28 -500h-128l28 500h72zM165 700v-100h-100v100h100z" />
    <glyph glyph-name="cent" unicode="&#xa2;" horiz-adv-x="403" 
d="M310 100h-59v-100h-99v100h-59l-55 55v390l55 55h59v100h99v-100h59l55 -55v-104h-90v70h-137v-322h137v70h90v-104z" />
    <glyph glyph-name="sterling" unicode="&#xa3;" horiz-adv-x="403" 
d="M367 89v-89h-329v89h50v220h-50v79h50v257l55 55h162l55 -55v-104h-90v70h-82v-223h106v-79h-106v-220h179z" />
    <glyph glyph-name="yen" unicode="&#xa5;" horiz-adv-x="403" 
d="M47 245v79h84l-115 376h95l93 -315l92 315h91l-115 -376h85v-79h-108v-54h108v-79h-108v-112h-96v112h-106v79h106v54h-106z" />
    <glyph glyph-name="section" unicode="&#xa7;" horiz-adv-x="353" 
d="M348 450v-175l-43 -43l10 -9v-168l-55 -55h-167l-55 55v95h90v-61h87v112h-131l-50 50v174l43 43l-10 10v167l55 55h162l55 -55v-95h-90v62h-82v-112h131zM248 418h-114v-135h114v135z" />
    <glyph glyph-name="dieresis" unicode="&#xa8;" 
d="M51 573v110h110v-110h-110zM210 573v110h110v-110h-110z" />
    <glyph glyph-name="copyright" unicode="&#xa9;" horiz-adv-x="579" 
d="M332 207v86h77v-125l-43 -43h-155l-43 43v364l43 43h155l43 -43v-125h-77v86h-77v-286h77zM500 0h-421l-40 40v620l40 40h421l40 -40v-620zM109 65h361v570h-361v-570z" />
    <glyph glyph-name="ordfeminine" unicode="&#xaa;" horiz-adv-x="360" 
d="M310 645v-357h30v-88h-130v40l-40 -40h-95l-55 55v190l55 55h135v112h-90v-62h-90v95l55 55h170zM120 412v-124h90v124h-90zM20 88h320v-88h-320v88z" />
    <glyph glyph-name="uni00AD" unicode="&#xad;" horiz-adv-x="260" 
d="M220 345v-88h-180v88h180z" />
    <glyph glyph-name="registered" unicode="&#xae;" horiz-adv-x="318" 
d="M264 350h-215l-15 15v315l20 20h210l20 -20v-310zM64 382h185v285h-185v-285zM138 597v-67h40v67h-40zM227 412h-41l-22 78h-26v-78h-41v225h101l22 -21v-102l-17 -17z" />
    <glyph glyph-name="macron" unicode="&#xaf;" 
d="M282 589h-194v86h194v-86z" />
    <glyph glyph-name="degree" unicode="&#xb0;" horiz-adv-x="331" 
d="M320 651v-185l-49 -49h-184l-50 49v185l50 49h184zM235 495v123h-116v-123h116z" />
    <glyph glyph-name="plusminus" unicode="&#xb1;" horiz-adv-x="403" 
d="M157 569h89v-108h117v-89h-117v-108h-89v108h-117v89h117v108zM363 220v-89h-323v89h323z" />
    <glyph glyph-name="acute" unicode="&#xb4;" 
d="M194 700h97l-58 -135h-97z" />
    <glyph glyph-name="paragraph" unicode="&#xb6;" horiz-adv-x="376" 
d="M148 587h65v-587h-65v200h-61l-55 55v390l55 55h262v-700h-100v611h-137v-322h36v298z" />
    <glyph glyph-name="periodcentered" unicode="&#xb7;" horiz-adv-x="230" 
d="M65 251v100h100v-100h-100z" />
    <glyph glyph-name="cedilla" unicode="&#xb8;" 
d="M212 -27v-35h38l30 -30v-78l-30 -30h-133v57h103v28h-42l-20 20v68h54z" />
    <glyph glyph-name="ordmasculine" unicode="&#xba;" horiz-adv-x="340" 
d="M260 200h-180l-55 55v390l55 55h180l55 -55v-390zM125 612v-324h90v324h-90zM25 88h290v-88h-290v88z" />
    <glyph glyph-name="questiondown" unicode="&#xbf;" horiz-adv-x="400" 
d="M360 201v-131l-70 -70h-180l-70 70v213l117 98l6 119h73l8 -170l-104 -87v-155h129v113h91zM249 700v-100h-100v100h100z" />
    <glyph glyph-name="Agrave" unicode="&#xc0;" horiz-adv-x="413" 
d="M403 88v-88h-173v88h36l-15 107h-104l-15 -107h37v-88h-159v88h36l88 612h145l88 -612h36zM199 556l-39 -273h78zM91 900h96l58 -135h-96z" />
    <glyph glyph-name="Aacute" unicode="&#xc1;" horiz-adv-x="413" 
d="M403 88v-88h-173v88h36l-15 107h-104l-15 -107h37v-88h-159v88h36l88 612h145l88 -612h36zM199 556l-39 -273h78zM215 900h97l-58 -135h-97z" />
    <glyph glyph-name="Acircumflex" unicode="&#xc2;" horiz-adv-x="413" 
d="M403 88v-88h-173v88h36l-15 107h-104l-15 -107h37v-88h-159v88h36l88 612h145l88 -612h36zM144 900h115l71 -135h-97l-32 61l-32 -61h-97zM199 556l-39 -273h78z" />
    <glyph glyph-name="Atilde" unicode="&#xc3;" horiz-adv-x="413" 
d="M403 88v-88h-173v88h36l-15 107h-104l-15 -107h37v-88h-159v88h36l88 612h145l88 -612h36zM199 556l-39 -273h78zM285 775l-127 35v-45h-80v85l40 40l127 -35v45h80v-85z" />
    <glyph glyph-name="Adieresis" unicode="&#xc4;" horiz-adv-x="413" 
d="M403 88v-88h-173v88h36l-15 107h-104l-15 -107h37v-88h-159v88h36l88 612h145l88 -612h36zM199 556l-39 -273h78zM67 773v110h110v-110h-110zM226 773v110h110v-110h-110z" />
    <glyph glyph-name="Aring" unicode="&#xc5;" horiz-adv-x="413" 
d="M403 88v-88h-173v88h36l-15 107h-104l-15 -107h37v-88h-159v88h36l88 612h145l88 -612h36zM199 556l-39 -273h78zM172 856v-57h59v57h-59zM126 786v84l30 30h90l30 -30v-84l-30 -30h-90z" />
    <glyph glyph-name="AE" unicode="&#xc6;" horiz-adv-x="542" 
d="M430 88v113h92v-201h-292v88h36l-15 107h-104l-15 -107h37v-88h-159v88h36l88 612h388v-201h-92v113h-139l31 -213h134v-88h-122l33 -223h63zM199 556l-39 -273h78z" />
    <glyph glyph-name="Ccedilla" unicode="&#xc7;" 
d="M285 0h-199l-56 56v589l56 55h199l55 -55v-145h-91v112h-119v-524h119v112h91v-144zM199 -27v-35h38l30 -30v-78l-30 -30h-133v57h103v28h-42l-20 20v68h54z" />
    <glyph glyph-name="Egrave" unicode="&#xc8;" horiz-adv-x="374" 
d="M354 0h-334v88h41v524h-41v88h334v-201h-93v113h-100v-213h127v-88h-127v-223h100v113h93v-201zM88 900h96l58 -135h-96z" />
    <glyph glyph-name="Eacute" unicode="&#xc9;" horiz-adv-x="374" 
d="M354 0h-334v88h41v524h-41v88h334v-201h-93v113h-100v-213h127v-88h-127v-223h100v113h93v-201zM202 900h97l-58 -135h-97z" />
    <glyph glyph-name="Ecircumflex" unicode="&#xca;" horiz-adv-x="374" 
d="M354 0h-334v88h41v524h-41v88h334v-201h-93v113h-100v-213h127v-88h-127v-223h100v113h93v-201zM136 900h115l71 -135h-97l-32 61l-32 -61h-97z" />
    <glyph glyph-name="Edieresis" unicode="&#xcb;" horiz-adv-x="374" 
d="M354 0h-334v88h41v524h-41v88h334v-201h-93v113h-100v-213h127v-88h-127v-223h100v113h93v-201zM59 773v110h110v-110h-110zM218 773v110h110v-110h-110z" />
    <glyph glyph-name="Igrave" unicode="&#xcc;" horiz-adv-x="221" 
d="M20 612v88h181v-88h-40v-524h40v-88h-181v88h41v524h-41zM7 900h96l58 -135h-96z" />
    <glyph glyph-name="Iacute" unicode="&#xcd;" horiz-adv-x="221" 
d="M20 612v88h181v-88h-40v-524h40v-88h-181v88h41v524h-41zM121 900h97l-58 -135h-97z" />
    <glyph glyph-name="Icircumflex" unicode="&#xce;" horiz-adv-x="221" 
d="M20 612v88h181v-88h-40v-524h40v-88h-181v88h41v524h-41zM55 900h115l71 -135h-97l-32 61l-32 -61h-97z" />
    <glyph glyph-name="Idieresis" unicode="&#xcf;" horiz-adv-x="221" 
d="M20 612v88h181v-88h-40v-524h40v-88h-181v88h41v524h-41zM-22 773v110h110v-110h-110zM137 773v110h110v-110h-110z" />
    <glyph glyph-name="Eth" unicode="&#xd0;" horiz-adv-x="401" 
d="M371 645v-589l-56 -56h-295v88h41v219h-41v87h41v218h-41v88h295zM161 612v-218h70v-87h-70v-219h110v524h-110z" />
    <glyph glyph-name="Ntilde" unicode="&#xd1;" horiz-adv-x="434" 
d="M414 700v-88h-41v-612h-103l-121 418v-330h40v-88h-169v88h41v524h-41v88h143l122 -419v331h-40v88h169zM307 775l-127 35v-45h-80v85l40 40l127 -35v45h80v-85z" />
    <glyph glyph-name="Ograve" unicode="&#xd2;" 
d="M340 645v-589l-55 -56h-199l-56 56v589l56 55h199zM240 88v524h-110v-524h110zM80 900h96l58 -135h-96z" />
    <glyph glyph-name="Oacute" unicode="&#xd3;" 
d="M340 645v-589l-55 -56h-199l-56 56v589l56 55h199zM240 88v524h-110v-524h110zM194 900h97l-58 -135h-97z" />
    <glyph glyph-name="Ocircumflex" unicode="&#xd4;" 
d="M340 645v-589l-55 -56h-199l-56 56v589l56 55h199zM240 88v524h-110v-524h110zM128 900h115l71 -135h-97l-32 61l-32 -61h-97z" />
    <glyph glyph-name="Otilde" unicode="&#xd5;" 
d="M340 645v-589l-55 -56h-199l-56 56v589l56 55h199zM240 88v524h-110v-524h110zM269 775l-127 35v-45h-80v85l40 40l127 -35v45h80v-85z" />
    <glyph glyph-name="Odieresis" unicode="&#xd6;" 
d="M340 645v-589l-55 -56h-199l-56 56v589l56 55h199zM240 88v524h-110v-524h110zM51 773v110h110v-110h-110zM210 773v110h110v-110h-110z" />
    <glyph glyph-name="multiply" unicode="&#xd7;" horiz-adv-x="403" 
d="M35 453l64 63l103 -103l103 103l63 -63l-103 -103l103 -103l-63 -63l-103 103l-103 -103l-64 63l103 103z" />
    <glyph glyph-name="Oslash" unicode="&#xd8;" 
d="M41 -50l22 73l-33 33v589l56 55h180l15 50h48l-22 -73l33 -32v-589l-55 -56h-181l-15 -50h-48zM130 612v-366l109 366h-109zM240 88v365l-110 -365h110z" />
    <glyph glyph-name="Ugrave" unicode="&#xd9;" horiz-adv-x="431" 
d="M230 612v88h181v-88h-40v-556l-56 -56h-199l-55 56v556h-41v88h179v-88h-40v-524h112v524h-41zM109 900h96l58 -135h-96z" />
    <glyph glyph-name="Uacute" unicode="&#xda;" horiz-adv-x="431" 
d="M230 612v88h181v-88h-40v-556l-56 -56h-199l-55 56v556h-41v88h179v-88h-40v-524h112v524h-41zM223 900h97l-58 -135h-97z" />
    <glyph glyph-name="Ucircumflex" unicode="&#xdb;" horiz-adv-x="431" 
d="M230 612v88h181v-88h-40v-556l-56 -56h-199l-55 56v556h-41v88h179v-88h-40v-524h112v524h-41zM157 900h115l71 -135h-97l-32 61l-32 -61h-97z" />
    <glyph glyph-name="Udieresis" unicode="&#xdc;" horiz-adv-x="431" 
d="M230 612v88h181v-88h-40v-556l-56 -56h-199l-55 56v556h-41v88h179v-88h-40v-524h112v524h-41zM80 773v110h110v-110h-110zM239 773v110h110v-110h-110z" />
    <glyph glyph-name="Yacute" unicode="&#xdd;" horiz-adv-x="391" 
d="M10 612v88h168v-88h-35l58 -201l57 201h-35v88h158v-88h-30l-104 -357v-167h40v-88h-181v88h41v160l-107 364h-30zM215 900h97l-58 -135h-97z" />
    <glyph glyph-name="Thorn" unicode="&#xde;" horiz-adv-x="401" 
d="M20 612v88h181v-88h-40v-43h154l56 -55v-328l-56 -56h-154v-42h40v-88h-181v88h41v524h-41zM161 481v-263h110v263h-110z" />
    <glyph glyph-name="germandbls" unicode="&#xdf;" horiz-adv-x="488" 
d="M343 500v111h-187v-522h33v-89h-168v89h34v564l46 47h275l46 -47v-195l-46 -47h-49v-123h86l50 -50v-183l-55 -55h-133l-55 55v95h90v-61h53v124h-86l-50 50v182l55 55h61z" />
    <glyph glyph-name="agrave" unicode="&#xe0;" horiz-adv-x="360" 
d="M310 445v-357h30v-88h-130v40l-40 -40h-95l-55 55v190l55 55h135v112h-90v-62h-90v95l55 55h170zM120 212v-124h90v124h-90zM65 700h96l58 -135h-96z" />
    <glyph glyph-name="aacute" unicode="&#xe1;" horiz-adv-x="360" 
d="M310 445v-357h30v-88h-130v40l-40 -40h-95l-55 55v190l55 55h135v112h-90v-62h-90v95l55 55h170zM120 212v-124h90v124h-90zM179 700h97l-58 -135h-97z" />
    <glyph glyph-name="acircumflex" unicode="&#xe2;" horiz-adv-x="360" 
d="M310 445v-357h30v-88h-130v40l-40 -40h-95l-55 55v190l55 55h135v112h-90v-62h-90v95l55 55h170zM113 700h115l71 -135h-97l-32 61l-32 -61h-97zM120 212v-124h90v124h-90z" />
    <glyph glyph-name="atilde" unicode="&#xe3;" horiz-adv-x="360" 
d="M310 445v-357h30v-88h-130v40l-40 -40h-95l-55 55v190l55 55h135v112h-90v-62h-90v95l55 55h170zM120 212v-124h90v124h-90zM254 575l-127 35v-45h-80v85l40 40l127 -35v45h80v-85z" />
    <glyph glyph-name="adieresis" unicode="&#xe4;" horiz-adv-x="360" 
d="M310 445v-357h30v-88h-130v40l-40 -40h-95l-55 55v190l55 55h135v112h-90v-62h-90v95l55 55h170zM120 212v-124h90v124h-90zM36 573v110h110v-110h-110zM195 573v110h110v-110h-110z" />
    <glyph glyph-name="aring" unicode="&#xe5;" horiz-adv-x="360" 
d="M310 445v-357h30v-88h-130v40l-40 -40h-95l-55 55v190l55 55h135v112h-90v-62h-90v95l55 55h170zM120 212v-124h90v124h-90zM141 656v-57h59v57h-59zM95 586v84l30 30h90l30 -30v-84l-30 -30h-90z" />
    <glyph glyph-name="ae" unicode="&#xe6;" horiz-adv-x="523" 
d="M83 500h141l35 -36l36 36h148l55 -55v-233h-190v-123h100v61h90v-95l-55 -55h-148l-36 35l-35 -35h-151l-55 55v178l55 55h135v123h-90v-61h-90v95zM118 212v-123h90v123h-90zM308 411v-123h90v123h-90z" />
    <glyph glyph-name="ccedilla" unicode="&#xe7;" horiz-adv-x="330" 
d="M250 0h-170l-55 55v390l55 55h170l55 -55v-145h-90v112h-90v-324h90v112h90v-145zM192 -27v-35h38l30 -30v-78l-30 -30h-133v57h103v28h-42l-20 20v68h54z" />
    <glyph glyph-name="egrave" unicode="&#xe8;" horiz-adv-x="340" 
d="M25 55v390l55 55h180l55 -55v-239h-190v-118h100v62h90v-95l-55 -55h-180zM125 412v-118h90v118h-90zM65 700h96l58 -135h-96z" />
    <glyph glyph-name="eacute" unicode="&#xe9;" horiz-adv-x="340" 
d="M25 55v390l55 55h180l55 -55v-239h-190v-118h100v62h90v-95l-55 -55h-180zM125 412v-118h90v118h-90zM179 700h97l-58 -135h-97z" />
    <glyph glyph-name="ecircumflex" unicode="&#xea;" horiz-adv-x="340" 
d="M25 55v390l55 55h180l55 -55v-239h-190v-118h100v62h90v-95l-55 -55h-180zM113 700h115l71 -135h-97l-32 61l-32 -61h-97zM125 412v-118h90v118h-90z" />
    <glyph glyph-name="edieresis" unicode="&#xeb;" horiz-adv-x="340" 
d="M25 55v390l55 55h180l55 -55v-239h-190v-118h100v62h90v-95l-55 -55h-180zM125 412v-118h90v118h-90zM36 573v110h110v-110h-110zM195 573v110h110v-110h-110z" />
    <glyph glyph-name="igrave" unicode="&#xec;" horiz-adv-x="200" 
d="M20 412v88h130v-412h30v-88h-160v88h30v324h-30zM-5 700h96l58 -135h-96z" />
    <glyph glyph-name="iacute" unicode="&#xed;" horiz-adv-x="200" 
d="M20 412v88h130v-412h30v-88h-160v88h30v324h-30zM109 700h97l-58 -135h-97z" />
    <glyph glyph-name="icircumflex" unicode="&#xee;" horiz-adv-x="200" 
d="M20 412v88h130v-412h30v-88h-160v88h30v324h-30zM43 700h115l71 -135h-97l-32 61l-32 -61h-97z" />
    <glyph glyph-name="idieresis" unicode="&#xef;" horiz-adv-x="200" 
d="M20 412v88h130v-412h30v-88h-160v88h30v324h-30zM-34 573v110h110v-110h-110zM125 573v110h110v-110h-110z" />
    <glyph glyph-name="eth" unicode="&#xf0;" horiz-adv-x="340" 
d="M225 700v-54l-41 -24l131 -142v-425l-55 -55h-180l-55 55v390l55 55h102l-73 79l-84 -49v54l52 30l-80 86h116l39 -43zM215 88v324h-90v-324h90z" />
    <glyph glyph-name="ntilde" unicode="&#xf1;" horiz-adv-x="390" 
d="M240 0v412h-90v-324h30v-88h-160v88h30v324h-30v88h130v-40l40 40h95l55 -55v-357h30v-88h-130zM279 575l-127 35v-45h-80v85l40 40l127 -35v45h80v-85z" />
    <glyph glyph-name="ograve" unicode="&#xf2;" horiz-adv-x="340" 
d="M260 0h-180l-55 55v390l55 55h180l55 -55v-390zM125 412v-324h90v324h-90zM65 700h96l58 -135h-96z" />
    <glyph glyph-name="oacute" unicode="&#xf3;" horiz-adv-x="340" 
d="M260 0h-180l-55 55v390l55 55h180l55 -55v-390zM125 412v-324h90v324h-90zM179 700h97l-58 -135h-97z" />
    <glyph glyph-name="ocircumflex" unicode="&#xf4;" horiz-adv-x="340" 
d="M260 0h-180l-55 55v390l55 55h180l55 -55v-390zM125 412v-324h90v324h-90zM113 700h115l71 -135h-97l-32 61l-32 -61h-97z" />
    <glyph glyph-name="otilde" unicode="&#xf5;" horiz-adv-x="340" 
d="M260 0h-180l-55 55v390l55 55h180l55 -55v-390zM125 412v-324h90v324h-90zM254 575l-127 35v-45h-80v85l40 40l127 -35v45h80v-85z" />
    <glyph glyph-name="odieresis" unicode="&#xf6;" horiz-adv-x="340" 
d="M260 0h-180l-55 55v390l55 55h180l55 -55v-390zM125 412v-324h90v324h-90zM36 573v110h110v-110h-110zM195 573v110h110v-110h-110z" />
    <glyph glyph-name="divide" unicode="&#xf7;" horiz-adv-x="403" 
d="M363 395v-90h-323v90h323zM152 437v100h100v-100h-100zM152 163v100h100v-100h-100z" />
    <glyph glyph-name="oslash" unicode="&#xf8;" horiz-adv-x="340" 
d="M29 -50l28 72l-32 33v390l55 55h166l20 50h45l-29 -73l33 -32v-390l-55 -55h-167l-19 -50h-45zM128 89h87v218zM125 411v-218l86 218h-86z" />
    <glyph glyph-name="ugrave" unicode="&#xf9;" horiz-adv-x="390" 
d="M150 500v-412h90v324h-30v88h130v-412h30v-88h-130v40l-40 -40h-95l-55 55v357h-30v88h130zM90 700h96l58 -135h-96z" />
    <glyph glyph-name="uacute" unicode="&#xfa;" horiz-adv-x="390" 
d="M150 500v-412h90v324h-30v88h130v-412h30v-88h-130v40l-40 -40h-95l-55 55v357h-30v88h130zM204 700h97l-58 -135h-97z" />
    <glyph glyph-name="ucircumflex" unicode="&#xfb;" horiz-adv-x="390" 
d="M150 500v-412h90v324h-30v88h130v-412h30v-88h-130v40l-40 -40h-95l-55 55v357h-30v88h130zM138 700h115l71 -135h-97l-32 61l-32 -61h-97z" />
    <glyph glyph-name="udieresis" unicode="&#xfc;" horiz-adv-x="390" 
d="M150 500v-412h90v324h-30v88h130v-412h30v-88h-130v40l-40 -40h-95l-55 55v357h-30v88h130zM61 573v110h110v-110h-110zM220 573v110h110v-110h-110z" />
    <glyph glyph-name="yacute" unicode="&#xfd;" horiz-adv-x="380" 
d="M199 700h97l-58 -135h-97zM170 500v-88h-26l50 -234h4l48 234h-26v88h150v-88h-25l-141 -524h26v-88h-150v88h25l36 143l-106 381h-25v88h160z" />
    <glyph glyph-name="thorn" unicode="&#xfe;" horiz-adv-x="365" 
d="M340 445v-390l-55 -55h-95l-40 40v-152h30v-88h-160v88h30v724h-30v88h130v-240l40 40h95zM150 412v-324h90v324h-90z" />
    <glyph glyph-name="ydieresis" unicode="&#xff;" horiz-adv-x="380" 
d="M56 573v110h110v-110h-110zM215 573v110h110v-110h-110zM170 500v-88h-26l50 -234h4l48 234h-26v88h150v-88h-25l-141 -524h26v-88h-150v88h25l36 143l-106 381h-25v88h160z" />
    <glyph glyph-name="Amacron" unicode="&#x100;" horiz-adv-x="413" 
d="M403 88v-88h-173v88h36l-15 107h-104l-15 -107h37v-88h-159v88h36l88 612h145l88 -612h36zM298 789h-194v86h194v-86zM199 556l-39 -273h78z" />
    <glyph glyph-name="amacron" unicode="&#x101;" horiz-adv-x="360" 
d="M310 445v-357h30v-88h-130v40l-40 -40h-95l-55 55v190l55 55h135v112h-90v-62h-90v95l55 55h170zM267 589h-194v86h194v-86zM120 212v-124h90v124h-90z" />
    <glyph glyph-name="Abreve" unicode="&#x102;" horiz-adv-x="413" 
d="M403 88v-88h-173v88h36l-15 107h-104l-15 -107h37v-88h-159v88h36l88 612h145l88 -612h36zM241 838v62h80v-95l-40 -40h-160l-40 40v95h80v-62h80zM199 556l-39 -273h78z" />
    <glyph glyph-name="abreve" unicode="&#x103;" horiz-adv-x="360" 
d="M310 445v-357h30v-88h-130v40l-40 -40h-95l-55 55v190l55 55h135v112h-90v-62h-90v95l55 55h170zM210 638v62h80v-95l-40 -40h-160l-40 40v95h80v-62h80zM120 212v-124h90v124h-90z" />
    <glyph glyph-name="Aogonek" unicode="&#x104;" horiz-adv-x="413" 
d="M303 -137h120v-63h-147l-34 33v90l77 77h-89v88h36l-15 107h-104l-15 -107h37v-88h-159v88h36l88 612h145l88 -612h36v-88l-100 -100v-37zM199 556l-39 -273h78z" />
    <glyph glyph-name="aogonek" unicode="&#x105;" horiz-adv-x="360" 
d="M240 -137h120v-63h-147l-34 33v90l77 77h-46v40l-40 -40h-95l-55 55v190l55 55h135v112h-90v-62h-90v95l55 55h170l55 -55v-357h30v-88l-100 -100v-37zM120 212v-124h90v124h-90z" />
    <glyph glyph-name="Cacute" unicode="&#x106;" 
d="M285 0h-199l-56 56v589l56 55h199l55 -55v-145h-91v112h-119v-524h119v112h91v-144zM196 900h97l-58 -135h-97z" />
    <glyph glyph-name="cacute" unicode="&#x107;" horiz-adv-x="330" 
d="M250 0h-170l-55 55v390l55 55h170l55 -55v-145h-90v112h-90v-324h90v112h90v-145zM174 700h97l-58 -135h-97z" />
    <glyph glyph-name="Ccircumflex" unicode="&#x108;" 
d="M285 0h-199l-56 56v589l56 55h199l55 -55v-145h-91v112h-119v-524h119v112h91v-144zM130 900h115l71 -135h-97l-32 61l-32 -61h-97z" />
    <glyph glyph-name="ccircumflex" unicode="&#x109;" horiz-adv-x="330" 
d="M250 0h-170l-55 55v390l55 55h170l55 -55v-145h-90v112h-90v-324h90v112h90v-145zM108 700h115l71 -135h-97l-32 61l-32 -61h-97z" />
    <glyph glyph-name="Cdotaccent" unicode="&#x10a;" 
d="M285 0h-199l-56 56v589l56 55h199l55 -55v-145h-91v112h-119v-524h119v112h91v-144zM133 773v110h110v-110h-110z" />
    <glyph glyph-name="cdotaccent" unicode="&#x10b;" horiz-adv-x="330" 
d="M250 0h-170l-55 55v390l55 55h170l55 -55v-145h-90v112h-90v-324h90v112h90v-145zM111 573v110h110v-110h-110z" />
    <glyph glyph-name="Ccaron" unicode="&#x10c;" 
d="M285 0h-199l-56 56v589l56 55h199l55 -55v-145h-91v112h-119v-524h119v112h91v-144zM58 900h97l32 -61l32 61h97l-71 -135h-115z" />
    <glyph glyph-name="ccaron" unicode="&#x10d;" horiz-adv-x="330" 
d="M250 0h-170l-55 55v390l55 55h170l55 -55v-145h-90v112h-90v-324h90v112h90v-145zM36 700h97l32 -61l32 61h97l-71 -135h-115z" />
    <glyph glyph-name="Dcaron" unicode="&#x10e;" horiz-adv-x="401" 
d="M371 645v-589l-56 -56h-295v88h41v524h-41v88h295zM161 612v-524h110v524h-110zM76 900h97l32 -61l32 61h97l-71 -135h-115z" />
    <glyph glyph-name="dcaron" unicode="&#x10f;" horiz-adv-x="365" 
d="M25 55v390l55 55h95l40 -40v152h-30v88h130v-612h30v-88h-130v40l-40 -40h-95zM125 412v-324h90v324h-90zM419 525h-77l20 175h77z" />
    <glyph glyph-name="Dcroat" unicode="&#x110;" horiz-adv-x="401" 
d="M371 645v-589l-56 -56h-295v88h41v219h-41v87h41v218h-41v88h295zM161 612v-218h70v-87h-70v-219h110v524h-110z" />
    <glyph glyph-name="dcroat" unicode="&#x111;" horiz-adv-x="365" 
d="M125 412v-324h90v324h-90zM315 563v-475h30v-88h-130v40l-40 -40h-95l-55 55v390l55 55h95l40 -40v103h-83v74h83v63h100v-63h56v-74h-56z" />
    <glyph glyph-name="Emacron" unicode="&#x112;" horiz-adv-x="374" 
d="M354 0h-334v88h41v524h-41v88h334v-201h-93v113h-100v-213h127v-88h-127v-223h100v113h93v-201zM290 789h-194v86h194v-86z" />
    <glyph glyph-name="emacron" unicode="&#x113;" horiz-adv-x="340" 
d="M25 55v390l55 55h180l55 -55v-239h-190v-118h100v62h90v-95l-55 -55h-180zM267 589h-194v86h194v-86zM125 412v-118h90v118h-90z" />
    <glyph glyph-name="Ebreve" unicode="&#x114;" horiz-adv-x="374" 
d="M354 0h-334v88h41v524h-41v88h334v-201h-93v113h-100v-213h127v-88h-127v-223h100v113h93v-201zM233 838v62h80v-95l-40 -40h-160l-40 40v95h80v-62h80z" />
    <glyph glyph-name="ebreve" unicode="&#x115;" horiz-adv-x="340" 
d="M25 55v390l55 55h180l55 -55v-239h-190v-118h100v62h90v-95l-55 -55h-180zM210 638v62h80v-95l-40 -40h-160l-40 40v95h80v-62h80zM125 412v-118h90v118h-90z" />
    <glyph glyph-name="Edotaccent" unicode="&#x116;" horiz-adv-x="374" 
d="M354 0h-334v88h41v524h-41v88h334v-201h-93v113h-100v-213h127v-88h-127v-223h100v113h93v-201zM139 773v110h110v-110h-110z" />
    <glyph glyph-name="edotaccent" unicode="&#x117;" horiz-adv-x="340" 
d="M25 55v390l55 55h180l55 -55v-239h-190v-118h100v62h90v-95l-55 -55h-180zM125 412v-118h90v118h-90zM116 573v110h110v-110h-110z" />
    <glyph glyph-name="Eogonek" unicode="&#x118;" horiz-adv-x="374" 
d="M254 -137h120v-63h-147l-34 33v90l77 77h-250v88h41v524h-41v88h334v-201h-93v113h-100v-213h127v-88h-127v-223h100v113h93v-201l-100 -100v-37z" />
    <glyph glyph-name="eogonek" unicode="&#x119;" horiz-adv-x="340" 
d="M160 -137h120v-63h-147l-34 33v90l77 77h-96l-55 55v390l55 55h180l55 -55v-239h-190v-118h100v62h90v-95l-155 -155v-37zM125 412v-118h90v118h-90z" />
    <glyph glyph-name="Ecaron" unicode="&#x11a;" horiz-adv-x="374" 
d="M354 0h-334v88h41v524h-41v88h334v-201h-93v113h-100v-213h127v-88h-127v-223h100v113h93v-201zM64 900h97l32 -61l32 61h97l-71 -135h-115z" />
    <glyph glyph-name="ecaron" unicode="&#x11b;" horiz-adv-x="340" 
d="M25 55v390l55 55h180l55 -55v-239h-190v-118h100v62h90v-95l-55 -55h-180zM41 700h97l32 -61l32 61h97l-71 -135h-115zM125 412v-118h90v118h-90z" />
    <glyph glyph-name="Gcircumflex" unicode="&#x11c;" 
d="M285 0h-199l-56 56v589l56 55h199l55 -55v-146h-95v113h-115v-524h110v193h-45v88h145v-313zM130 900h115l71 -135h-97l-32 61l-32 -61h-97z" />
    <glyph glyph-name="gcircumflex" unicode="&#x11d;" horiz-adv-x="335" 
d="M25 55v390l55 55h95l40 -40v40h100v-645l-55 -55h-180l-55 55v95h90v-62h100v152l-40 -40h-95zM125 412v-324h90v324h-90zM113 700h115l71 -135h-97l-32 61l-32 -61h-97z" />
    <glyph glyph-name="Gbreve" unicode="&#x11e;" 
d="M285 0h-199l-56 56v589l56 55h199l55 -55v-146h-95v113h-115v-524h110v193h-45v88h145v-313zM227 838v62h80v-95l-40 -40h-160l-40 40v95h80v-62h80z" />
    <glyph glyph-name="gbreve" unicode="&#x11f;" horiz-adv-x="335" 
d="M25 55v390l55 55h95l40 -40v40h100v-645l-55 -55h-180l-55 55v95h90v-62h100v152l-40 -40h-95zM125 412v-324h90v324h-90zM210 638v62h80v-95l-40 -40h-160l-40 40v95h80v-62h80z" />
    <glyph glyph-name="Gdotaccent" unicode="&#x120;" 
d="M285 0h-199l-56 56v589l56 55h199l55 -55v-146h-95v113h-115v-524h110v193h-45v88h145v-313zM133 773v110h110v-110h-110z" />
    <glyph glyph-name="gdotaccent" unicode="&#x121;" horiz-adv-x="335" 
d="M25 55v390l55 55h95l40 -40v40h100v-645l-55 -55h-180l-55 55v95h90v-62h100v152l-40 -40h-95zM125 412v-324h90v324h-90zM116 573v110h110v-110h-110z" />
    <glyph glyph-name="Gcommaaccent" unicode="&#x122;" 
d="M285 0h-199l-56 56v589l56 55h199l55 -55v-146h-95v113h-115v-524h110v193h-45v88h145v-313zM213 -200h-96l20 165h96z" />
    <glyph glyph-name="gcommaaccent" unicode="&#x123;" horiz-adv-x="335" 
d="M25 55v390l55 55h95l40 -40v40h100v-645l-55 -55h-180l-55 55v95h90v-62h100v152l-40 -40h-95zM125 412v-324h90v324h-90zM141 700h96l-20 -165h-96z" />
    <glyph glyph-name="Hcircumflex" unicode="&#x124;" horiz-adv-x="431" 
d="M230 0v88h41v223h-110v-223h40v-88h-181v88h41v524h-41v88h181v-88h-40v-213h110v213h-41v88h181v-88h-40v-524h40v-88h-181zM166 900h115l71 -135h-97l-32 61l-32 -61h-97z" />
    <glyph glyph-name="hcircumflex" unicode="&#x125;" horiz-adv-x="390" 
d="M240 0v412h-90v-324h30v-88h-160v88h30v524h-30v88h130v-240l40 40h95l55 -55v-357h30v-88h-130zM43 900h115l71 -135h-97l-32 61l-32 -61h-97z" />
    <glyph glyph-name="Hbar" unicode="&#x126;" horiz-adv-x="431" 
d="M396 567v-81h-25v-398h40v-88h-181v88h41v223h-110v-223h40v-88h-181v88h41v398h-25v81h25v45h-41v88h181v-88h-40v-45h110v45h-41v88h181v-88h-40v-45h25zM161 399h110v87h-110v-87z" />
    <glyph glyph-name="hbar" unicode="&#x127;" horiz-adv-x="390" 
d="M150 563v-103l40 40h95l55 -55v-357h30v-88h-130v412h-90v-324h30v-88h-160v88h30v475h-56v74h56v63h100v-63h83v-74h-83z" />
    <glyph glyph-name="Itilde" unicode="&#x128;" horiz-adv-x="221" 
d="M20 612v88h181v-88h-40v-524h40v-88h-181v88h41v524h-41zM196 775l-127 35v-45h-80v85l40 40l127 -35v45h80v-85z" />
    <glyph glyph-name="itilde" unicode="&#x129;" horiz-adv-x="200" 
d="M20 412v88h130v-412h30v-88h-160v88h30v324h-30zM184 575l-127 35v-45h-80v85l40 40l127 -35v45h80v-85z" />
    <glyph glyph-name="Imacron" unicode="&#x12a;" horiz-adv-x="221" 
d="M20 612v88h181v-88h-40v-524h40v-88h-181v88h41v524h-41zM209 789h-194v86h194v-86z" />
    <glyph glyph-name="imacron" unicode="&#x12b;" horiz-adv-x="200" 
d="M20 412v88h130v-412h30v-88h-160v88h30v324h-30zM197 589h-194v86h194v-86z" />
    <glyph glyph-name="Ibreve" unicode="&#x12c;" horiz-adv-x="221" 
d="M20 612v88h181v-88h-40v-524h40v-88h-181v88h41v524h-41zM152 838v62h80v-95l-40 -40h-160l-40 40v95h80v-62h80z" />
    <glyph glyph-name="ibreve" unicode="&#x12d;" horiz-adv-x="200" 
d="M20 412v88h130v-412h30v-88h-160v88h30v324h-30zM140 638v62h80v-95l-40 -40h-160l-40 40v95h80v-62h80z" />
    <glyph glyph-name="Iogonek" unicode="&#x12e;" horiz-adv-x="221" 
d="M101 -137h120v-63h-147l-34 33v90l77 77h-97v88h41v524h-41v88h181v-88h-40v-524h40v-88l-100 -100v-37z" />
    <glyph glyph-name="iogonek" unicode="&#x12f;" horiz-adv-x="200" 
d="M80 -137h120v-63h-147l-34 33v90l77 77h-76v88h30v324h-30v88h130v-412h30v-88l-100 -100v-37zM45 590v110h110v-110h-110z" />
    <glyph glyph-name="Idotaccent" unicode="&#x130;" horiz-adv-x="221" 
d="M20 612v88h181v-88h-40v-524h40v-88h-181v88h41v524h-41zM56 773v110h110v-110h-110z" />
    <glyph glyph-name="dotlessi" unicode="&#x131;" horiz-adv-x="200" 
d="M20 412v88h130v-412h30v-88h-160v88h30v324h-30z" />
    <glyph glyph-name="IJ" unicode="&#x132;" horiz-adv-x="557" 
d="M20 612v88h181v-88h-40v-524h40v-88h-181v88h41v524h-41zM441 0h-154l-56 56v145h93v-113h72v524h-40v88h181v-88h-41v-556z" />
    <glyph glyph-name="ij" unicode="&#x133;" horiz-adv-x="349" 
d="M20 412v88h130v-412h30v-88h-160v88h30v324h-30zM179 412v88h130v-644l-55 -56h-129l-56 56v104h90v-72h50v524h-30zM45 573v110h110v-110h-110zM204 573v110h110v-110h-110z" />
    <glyph glyph-name="Jcircumflex" unicode="&#x134;" horiz-adv-x="336" 
d="M220 0h-154l-56 56v145h93v-113h72v524h-40v88h181v-88h-41v-556zM169 900h115l71 -135h-97l-32 61l-32 -61h-97z" />
    <glyph glyph-name="jcircumflex" unicode="&#x135;" horiz-adv-x="190" 
d="M20 412v88h130v-644l-55 -56h-129l-56 56v104h90v-72h50v524h-30zM43 700h115l71 -135h-97l-32 61l-32 -61h-97z" />
    <glyph glyph-name="Kcommaaccent" unicode="&#x136;" horiz-adv-x="448" 
d="M418 88v-88h-177v88h33l-67 193l-46 -98v-95h40v-88h-181v88h41v524h-41v88h181v-88h-40v-237l112 237h-34v88h168v-88h-35l-101 -207l111 -317h36zM252 -200h-96l20 165h96z" />
    <glyph glyph-name="kcommaaccent" unicode="&#x137;" horiz-adv-x="390" 
d="M210 0v88h25l-52 120l-33 -46v-74h30v-88h-160v88h30v524h-30v88h130v-381l66 93h-26v88h170v-88h-30l-79 -110l93 -214h26v-88h-160zM224 -200h-96l20 165h96z" />
    <glyph glyph-name="kgreenlandic" unicode="&#x138;" horiz-adv-x="390" 
d="M210 0v88h25l-52 120l-33 -46v-74h30v-88h-160v88h30v324h-30v88h130v-181l66 93h-26v88h170v-88h-30l-79 -110l93 -214h26v-88h-95l-1 -1l-1 1h-63z" />
    <glyph glyph-name="Lacute" unicode="&#x139;" horiz-adv-x="349" 
d="M236 201h93v-201h-309v88h41v524h-41v88h181v-88h-40v-524h75v113zM121 900h97l-58 -135h-97z" />
    <glyph glyph-name="lacute" unicode="&#x13a;" horiz-adv-x="200" 
d="M20 612v88h130v-612h30v-88h-160v88h30v524h-30zM254 525h-77l20 175h77z" />
    <glyph glyph-name="Lcommaaccent" unicode="&#x13b;" horiz-adv-x="349" 
d="M236 201h93v-201h-309v88h41v524h-41v88h181v-88h-40v-524h75v113zM213 -200h-96l20 165h96z" />
    <glyph glyph-name="lcommaaccent" unicode="&#x13c;" horiz-adv-x="200" 
d="M20 612v88h130v-612h30v-88h-160v88h30v524h-30zM129 -200h-96l20 165h96z" />
    <glyph glyph-name="Lcaron" unicode="&#x13d;" horiz-adv-x="349" 
d="M236 201h93v-201h-309v88h41v524h-41v88h181v-88h-40v-524h75v113zM306 525h-77l20 175h77z" />
    <glyph glyph-name="lcaron" unicode="&#x13e;" horiz-adv-x="200" 
d="M20 612v88h130v-612h30v-88h-160v88h30v524h-30zM254 525h-77l20 175h77z" />
    <glyph glyph-name="Ldot" unicode="&#x13f;" horiz-adv-x="349" 
d="M236 201h93v-201h-309v88h41v524h-41v88h181v-88h-40v-524h75v113zM236 288v100h100v-100h-100z" />
    <glyph glyph-name="ldot" unicode="&#x140;" horiz-adv-x="300" 
d="M20 612v88h130v-612h30v-88h-160v88h30v524h-30zM200 245v100h100v-100h-100z" />
    <glyph glyph-name="Lslash" unicode="&#x141;" horiz-adv-x="364" 
d="M251 201h93v-201h-309v88h41v151l-60 -46v91l60 46v282h-41v88h181v-88h-40v-206l120 91v-91l-120 -91v-227h75v113z" />
    <glyph glyph-name="lslash" unicode="&#x142;" horiz-adv-x="255" 
d="M45 612v88h130v-256l67 66v-88l-67 -66v-268h30v-88h-160v88h30v169l-57 -57v88l57 58v266h-30z" />
    <glyph glyph-name="Nacute" unicode="&#x143;" horiz-adv-x="434" 
d="M414 700v-88h-41v-612h-103l-121 418v-330h40v-88h-169v88h41v524h-41v88h143l122 -419v331h-40v88h169zM222 900h97l-58 -135h-97z" />
    <glyph glyph-name="nacute" unicode="&#x144;" horiz-adv-x="390" 
d="M240 0v412h-90v-324h30v-88h-160v88h30v324h-30v88h130v-40l40 40h95l55 -55v-357h30v-88h-130zM194 700h97l-58 -135h-97z" />
    <glyph glyph-name="Ncommaaccent" unicode="&#x145;" horiz-adv-x="434" 
d="M414 700v-88h-41v-612h-103l-121 418v-330h40v-88h-169v88h41v524h-41v88h143l122 -419v331h-40v88h169zM240 -200h-96l20 165h96z" />
    <glyph glyph-name="ncommaaccent" unicode="&#x146;" horiz-adv-x="390" 
d="M240 0v412h-90v-324h30v-88h-160v88h30v324h-30v88h130v-40l40 40h95l55 -55v-357h30v-88h-130zM224 -200h-96l20 165h96z" />
    <glyph glyph-name="Ncaron" unicode="&#x147;" horiz-adv-x="434" 
d="M414 700v-88h-41v-612h-103l-121 418v-330h40v-88h-169v88h41v524h-41v88h143l122 -419v331h-40v88h169zM84 900h97l32 -61l32 61h97l-71 -135h-115z" />
    <glyph glyph-name="ncaron" unicode="&#x148;" horiz-adv-x="390" 
d="M240 0v412h-90v-324h30v-88h-160v88h30v324h-30v88h130v-40l40 40h95l55 -55v-357h30v-88h-130zM56 700h97l32 -61l32 61h97l-71 -135h-115z" />
    <glyph glyph-name="Eng" unicode="&#x14a;" horiz-adv-x="434" 
d="M223 -112h50v102l-124 428v-330h40v-88h-169v88h41v524h-41v88h143l122 -419v331h-40v88h169v-88h-41v-756l-55 -56h-129l-56 56v104h90v-72z" />
    <glyph glyph-name="eng" unicode="&#x14b;" horiz-adv-x="365" 
d="M190 -112h50v524h-90v-324h30v-88h-160v88h30v324h-30v88h130v-40l40 40h95l55 -55v-589l-55 -56h-129l-56 56v104h90v-72z" />
    <glyph glyph-name="Omacron" unicode="&#x14c;" 
d="M340 645v-589l-55 -56h-199l-56 56v589l56 55h199zM240 88v524h-110v-524h110zM282 789h-194v86h194v-86z" />
    <glyph glyph-name="omacron" unicode="&#x14d;" horiz-adv-x="340" 
d="M260 0h-180l-55 55v390l55 55h180l55 -55v-390zM125 412v-324h90v324h-90zM267 589h-194v86h194v-86z" />
    <glyph glyph-name="Obreve" unicode="&#x14e;" 
d="M340 645v-589l-55 -56h-199l-56 56v589l56 55h199zM240 88v524h-110v-524h110zM225 838v62h80v-95l-40 -40h-160l-40 40v95h80v-62h80z" />
    <glyph glyph-name="obreve" unicode="&#x14f;" horiz-adv-x="340" 
d="M260 0h-180l-55 55v390l55 55h180l55 -55v-390zM125 412v-324h90v324h-90zM210 638v62h80v-95l-40 -40h-160l-40 40v95h80v-62h80z" />
    <glyph glyph-name="Ohungarumlaut" unicode="&#x150;" 
d="M340 645v-589l-55 -56h-199l-56 56v589l56 55h199zM240 88v524h-110v-524h110zM134 900h90l-58 -135h-90zM261 900h90l-58 -135h-90z" />
    <glyph glyph-name="ohungarumlaut" unicode="&#x151;" horiz-adv-x="340" 
d="M260 0h-180l-55 55v390l55 55h180l55 -55v-390zM125 412v-324h90v324h-90zM119 700h90l-58 -135h-90zM246 700h90l-58 -135h-90z" />
    <glyph glyph-name="OE" unicode="&#x152;" horiz-adv-x="553" 
d="M533 0h-447l-56 56v589l56 55h447v-201h-93v113h-100v-213h127v-88h-127v-223h100v113h93v-201zM130 612v-524h110v524h-110z" />
    <glyph glyph-name="oe" unicode="&#x153;" horiz-adv-x="530" 
d="M232 0h-152l-55 55v390l55 55h152l35 -35l35 35h148l55 -55v-233h-190v-123h100v61h90v-95l-55 -55h-148l-35 35zM125 411v-322h90v322h-90zM315 411v-123h90v123h-90z" />
    <glyph glyph-name="Racute" unicode="&#x154;" horiz-adv-x="403" 
d="M161 612v-263h110v263h-110zM371 645v-328l-56 -56l36 -173h32v-88h-112l-55 261h-55v-173h40v-88h-181v88h41v524h-41v88h295zM212 900h97l-58 -135h-97z" />
    <glyph glyph-name="racute" unicode="&#x155;" horiz-adv-x="330" 
d="M220 350v62h-70v-324h30v-88h-160v88h30v324h-30v88h130v-40l40 40h65l55 -55v-95h-90zM174 700h97l-58 -135h-97z" />
    <glyph glyph-name="Rcommaaccent" unicode="&#x156;" horiz-adv-x="403" 
d="M161 612v-263h110v263h-110zM371 645v-328l-56 -56l36 -173h32v-88h-112l-55 261h-55v-173h40v-88h-181v88h41v524h-41v88h295zM239 -200h-96l20 165h96z" />
    <glyph glyph-name="rcommaaccent" unicode="&#x157;" horiz-adv-x="330" 
d="M220 350v62h-70v-324h30v-88h-160v88h30v324h-30v88h130v-40l40 40h65l55 -55v-95h-90zM129 -200h-96l20 165h96z" />
    <glyph glyph-name="Rcaron" unicode="&#x158;" horiz-adv-x="403" 
d="M371 645v-328l-56 -56l36 -173h32v-88h-112l-55 261h-55v-173h40v-88h-181v88h41v524h-41v88h295zM161 612v-263h110v263h-110zM74 900h97l32 -61l32 61h97l-71 -135h-115z" />
    <glyph glyph-name="rcaron" unicode="&#x159;" horiz-adv-x="330" 
d="M220 350v62h-70v-324h30v-88h-160v88h30v324h-30v88h130v-40l40 40h65l55 -55v-95h-90zM36 700h97l32 -61l32 61h97l-71 -135h-115z" />
    <glyph glyph-name="Sacute" unicode="&#x15a;" horiz-adv-x="375" 
d="M245 88v223h-152l-55 56v278l55 55h189l56 -55v-146h-93v113h-107v-213h152l55 -55v-288l-55 -56h-204l-56 56v145h93v-113h122zM199 900h97l-58 -135h-97z" />
    <glyph glyph-name="sacute" unicode="&#x15b;" horiz-adv-x="330" 
d="M310 239v-184l-55 -55h-180l-55 55v95h90v-62h100v118h-125l-55 55v184l55 55h160l55 -55v-95h-90v62h-80v-118h125zM174 700h97l-58 -135h-97z" />
    <glyph glyph-name="Scircumflex" unicode="&#x15c;" horiz-adv-x="375" 
d="M245 88v223h-152l-55 56v278l55 55h189l56 -55v-146h-93v113h-107v-213h152l55 -55v-288l-55 -56h-204l-56 56v145h93v-113h122zM133 900h115l71 -135h-97l-32 61l-32 -61h-97z" />
    <glyph glyph-name="scircumflex" unicode="&#x15d;" horiz-adv-x="330" 
d="M310 239v-184l-55 -55h-180l-55 55v95h90v-62h100v118h-125l-55 55v184l55 55h160l55 -55v-95h-90v62h-80v-118h125zM108 700h115l71 -135h-97l-32 61l-32 -61h-97z" />
    <glyph glyph-name="Scedilla" unicode="&#x15e;" horiz-adv-x="375" 
d="M245 88v223h-152l-55 56v278l55 55h189l56 -55v-146h-93v113h-107v-213h152l55 -55v-288l-55 -56h-204l-56 56v145h93v-113h122zM211 -27v-35h38l30 -30v-78l-30 -30h-133v57h103v28h-42l-20 20v68h54z" />
    <glyph glyph-name="scedilla" unicode="&#x15f;" horiz-adv-x="330" 
d="M310 239v-184l-55 -55h-180l-55 55v95h90v-62h100v118h-125l-55 55v184l55 55h160l55 -55v-95h-90v62h-80v-118h125zM192 -27v-35h38l30 -30v-78l-30 -30h-133v57h103v28h-42l-20 20v68h54z" />
    <glyph glyph-name="Scaron" unicode="&#x160;" horiz-adv-x="375" 
d="M245 88v223h-152l-55 56v278l55 55h189l56 -55v-146h-93v113h-107v-213h152l55 -55v-288l-55 -56h-204l-56 56v145h93v-113h122zM61 900h97l32 -61l32 61h97l-71 -135h-115z" />
    <glyph glyph-name="scaron" unicode="&#x161;" horiz-adv-x="330" 
d="M310 239v-184l-55 -55h-180l-55 55v95h90v-62h100v118h-125l-55 55v184l55 55h160l55 -55v-95h-90v62h-80v-118h125zM36 700h97l32 -61l32 61h97l-71 -135h-115z" />
    <glyph glyph-name="Tcommaaccent" unicode="&#x21a;" horiz-adv-x="422" 
d="M301 88v-88h-180v88h40v524h-53v-113h-93v201h392v-201h-93v113h-53v-524h40zM239 -200h-96l20 165h96z" />
    <glyph glyph-name="Tcommaaccent" unicode="&#x162;" horiz-adv-x="422" 
d="M301 88v-88h-180v88h40v524h-53v-113h-93v201h392v-201h-93v113h-53v-524h40zM239 -200h-96l20 165h96z" />
    <glyph glyph-name="tcommaaccent" unicode="&#x21b;" horiz-adv-x="320" 
d="M20 412v88h50v100h100v-100h130v-88h-130v-324h40v62h90v-95l-55 -55h-120l-55 55v357h-50zM209 -200h-96l20 165h96z" />
    <glyph glyph-name="tcommaaccent" unicode="&#x163;" horiz-adv-x="320" 
d="M20 412v88h50v100h100v-100h130v-88h-130v-324h40v62h90v-95l-55 -55h-120l-55 55v357h-50zM209 -200h-96l20 165h96z" />
    <glyph glyph-name="Tcaron" unicode="&#x164;" horiz-adv-x="422" 
d="M301 88v-88h-180v88h40v524h-53v-113h-93v201h392v-201h-93v113h-53v-524h40zM82 900h97l32 -61l32 61h97l-71 -135h-115z" />
    <glyph glyph-name="tcaron" unicode="&#x165;" horiz-adv-x="320" 
d="M20 412v88h50v100h100v-100h130v-88h-130v-324h40v62h90v-95l-55 -55h-120l-55 55v357h-50zM274 525h-77l20 175h77z" />
    <glyph glyph-name="Tbar" unicode="&#x166;" horiz-adv-x="422" 
d="M301 88v-88h-180v88h40v204h-81v88h81v232h-53v-113h-93v201h392v-201h-93v113h-53v-232h82v-88h-82v-204h40z" />
    <glyph glyph-name="tbar" unicode="&#x167;" horiz-adv-x="320" 
d="M20 412v88h50v100h100v-100h130v-88h-130v-104h105v-73h-105v-147h40v62h90v-95l-55 -55h-120l-55 55v180h-45v73h45v104h-50z" />
    <glyph glyph-name="Utilde" unicode="&#x168;" horiz-adv-x="431" 
d="M230 612v88h181v-88h-40v-556l-56 -56h-199l-55 56v556h-41v88h179v-88h-40v-524h112v524h-41zM298 775l-127 35v-45h-80v85l40 40l127 -35v45h80v-85z" />
    <glyph glyph-name="utilde" unicode="&#x169;" horiz-adv-x="390" 
d="M150 500v-412h90v324h-30v88h130v-412h30v-88h-130v40l-40 -40h-95l-55 55v357h-30v88h130zM279 575l-127 35v-45h-80v85l40 40l127 -35v45h80v-85z" />
    <glyph glyph-name="Umacron" unicode="&#x16a;" horiz-adv-x="431" 
d="M230 612v88h181v-88h-40v-556l-56 -56h-199l-55 56v556h-41v88h179v-88h-40v-524h112v524h-41zM311 789h-194v86h194v-86z" />
    <glyph glyph-name="umacron" unicode="&#x16b;" horiz-adv-x="390" 
d="M150 500v-412h90v324h-30v88h130v-412h30v-88h-130v40l-40 -40h-95l-55 55v357h-30v88h130zM292 589h-194v86h194v-86z" />
    <glyph glyph-name="Ubreve" unicode="&#x16c;" horiz-adv-x="431" 
d="M230 612v88h181v-88h-40v-556l-56 -56h-199l-55 56v556h-41v88h179v-88h-40v-524h112v524h-41zM254 838v62h80v-95l-40 -40h-160l-40 40v95h80v-62h80z" />
    <glyph glyph-name="ubreve" unicode="&#x16d;" horiz-adv-x="390" 
d="M150 500v-412h90v324h-30v88h130v-412h30v-88h-130v40l-40 -40h-95l-55 55v357h-30v88h130zM235 638v62h80v-95l-40 -40h-160l-40 40v95h80v-62h80z" />
    <glyph glyph-name="Uring" unicode="&#x16e;" horiz-adv-x="431" 
d="M230 612v88h181v-88h-40v-556l-56 -56h-199l-55 56v556h-41v88h179v-88h-40v-524h112v524h-41zM185 856v-57h59v57h-59zM139 786v84l30 30h90l30 -30v-84l-30 -30h-90z" />
    <glyph glyph-name="uring" unicode="&#x16f;" horiz-adv-x="390" 
d="M150 500v-412h90v324h-30v88h130v-412h30v-88h-130v40l-40 -40h-95l-55 55v357h-30v88h130zM166 656v-57h59v57h-59zM120 586v84l30 30h90l30 -30v-84l-30 -30h-90z" />
    <glyph glyph-name="Uhungarumlaut" unicode="&#x170;" horiz-adv-x="431" 
d="M230 612v88h181v-88h-40v-556l-56 -56h-199l-55 56v556h-41v88h179v-88h-40v-524h112v524h-41zM163 900h90l-58 -135h-90zM290 900h90l-58 -135h-90z" />
    <glyph glyph-name="uhungarumlaut" unicode="&#x171;" horiz-adv-x="390" 
d="M150 500v-412h90v324h-30v88h130v-412h30v-88h-130v40l-40 -40h-95l-55 55v357h-30v88h130zM144 700h90l-58 -135h-90zM271 700h90l-58 -135h-90z" />
    <glyph glyph-name="Uogonek" unicode="&#x172;" horiz-adv-x="431" 
d="M215 -137h120v-63h-147l-34 33v90l77 77h-115l-55 56v556h-41v88h179v-88h-40v-524h112v524h-41v88h181v-88h-40v-556l-156 -156v-37z" />
    <glyph glyph-name="uogonek" unicode="&#x173;" horiz-adv-x="390" 
d="M270 -137h120v-63h-147l-34 33v90l77 77h-46v40l-40 -40h-95l-55 55v357h-30v88h130v-412h90v324h-30v88h130v-412h30v-88l-100 -100v-37z" />
    <glyph glyph-name="Wcircumflex" unicode="&#x174;" horiz-adv-x="597" 
d="M245 900h115l71 -135h-97l-32 61l-32 -61h-97zM10 612v88h169v-88h-33l31 -407h4l70 435h111l70 -436h4l31 408h-33v88h153v-88h-35l-58 -612h-132l-61 428h-4l-62 -428h-134l-56 612h-35z" />
    <glyph glyph-name="wcircumflex" unicode="&#x175;" horiz-adv-x="540" 
d="M213 700h115l71 -135h-97l-32 61l-32 -61h-97zM315 0l-43 327h-4l-43 -327h-143l-42 412h-30v88h154v-88h-28l26 -292h4l50 380h117l50 -380h4l26 292h-28v88h145v-88h-30l-42 -412h-143z" />
    <glyph glyph-name="Ycircumflex" unicode="&#x176;" horiz-adv-x="391" 
d="M10 612v88h168v-88h-35l58 -201l57 201h-35v88h158v-88h-30l-104 -357v-167h40v-88h-181v88h41v160l-107 364h-30zM139 900h115l71 -135h-97l-32 61l-32 -61h-97z" />
    <glyph glyph-name="ycircumflex" unicode="&#x177;" horiz-adv-x="380" 
d="M133 700h115l71 -135h-97l-32 61l-32 -61h-97zM170 500v-88h-26l50 -234h4l48 234h-26v88h150v-88h-25l-141 -524h26v-88h-150v88h25l36 143l-106 381h-25v88h160z" />
    <glyph glyph-name="Ydieresis" unicode="&#x178;" horiz-adv-x="391" 
d="M10 612v88h168v-88h-35l58 -201l57 201h-35v88h158v-88h-30l-104 -357v-167h40v-88h-181v88h41v160l-107 364h-30zM62 773v110h110v-110h-110zM221 773v110h110v-110h-110z" />
    <glyph glyph-name="Zacute" unicode="&#x179;" horiz-adv-x="357" 
d="M329 700v-90l-208 -522h123v113h93v-201h-317v90l209 522h-108v-113h-93v201h301zM193 900h97l-58 -135h-97z" />
    <glyph glyph-name="zacute" unicode="&#x17a;" horiz-adv-x="310" 
d="M20 350v150h270v-88l-170 -324h90v62h90v-150h-290v88l168 324h-68v-62h-90zM164 700h97l-58 -135h-97z" />
    <glyph glyph-name="Zdotaccent" unicode="&#x17b;" horiz-adv-x="357" 
d="M329 700v-90l-208 -522h123v113h93v-201h-317v90l209 522h-108v-113h-93v201h301zM130 773v110h110v-110h-110z" />
    <glyph glyph-name="zdotaccent" unicode="&#x17c;" horiz-adv-x="310" 
d="M20 350v150h270v-88l-170 -324h90v62h90v-150h-290v88l168 324h-68v-62h-90zM101 573v110h110v-110h-110z" />
    <glyph glyph-name="Zcaron" unicode="&#x17d;" horiz-adv-x="357" 
d="M329 700v-90l-208 -522h123v113h93v-201h-317v90l209 522h-108v-113h-93v201h301zM55 900h97l32 -61l32 61h97l-71 -135h-115z" />
    <glyph glyph-name="zcaron" unicode="&#x17e;" horiz-adv-x="310" 
d="M20 350v150h270v-88l-170 -324h90v62h90v-150h-290v88l168 324h-68v-62h-90zM26 700h97l32 -61l32 61h97l-71 -135h-115z" />
    <glyph glyph-name="Epsilon" unicode="&#x395;" horiz-adv-x="374" 
d="M354 0h-334v88h41v524h-41v88h334v-201h-93v113h-100v-213h127v-88h-127v-223h100v113h93v-201z" />
    <glyph glyph-name="Epsilon" unicode="&#x190;" horiz-adv-x="374" 
d="M354 0h-334v88h41v524h-41v88h334v-201h-93v113h-100v-213h127v-88h-127v-223h100v113h93v-201z" />
    <glyph glyph-name="florin" unicode="&#x192;" horiz-adv-x="403" 
d="M294 388v-79h-106v-393l-55 -55h-95v89h50v359h-50v79h50v257l55 55h162l55 -55v-104h-90v70h-82v-223h106z" />
    <glyph glyph-name="Gamma" unicode="&#x393;" horiz-adv-x="349" 
d="M329 499h-93v113h-75v-524h40v-88h-181v88h41v524h-41v88h309v-201z" />
    <glyph glyph-name="Gamma" unicode="&#x194;" horiz-adv-x="349" 
d="M329 499h-93v113h-75v-524h40v-88h-181v88h41v524h-41v88h309v-201z" />
    <glyph glyph-name="Iota" unicode="&#x399;" horiz-adv-x="221" 
d="M20 612v88h181v-88h-40v-524h40v-88h-181v88h41v524h-41z" />
    <glyph glyph-name="Iota" unicode="&#x196;" horiz-adv-x="221" 
d="M20 612v88h181v-88h-40v-524h40v-88h-181v88h41v524h-41z" />
    <glyph glyph-name="Upsilon" unicode="&#x3a5;" horiz-adv-x="391" 
d="M10 612v88h168v-88h-35l58 -201l57 201h-35v88h158v-88h-30l-104 -357v-167h40v-88h-181v88h41v160l-107 364h-30z" />
    <glyph glyph-name="Upsilon" unicode="&#x1b1;" horiz-adv-x="391" 
d="M10 612v88h168v-88h-35l58 -201l57 201h-35v88h158v-88h-30l-104 -357v-167h40v-88h-181v88h41v160l-107 364h-30z" />
    <glyph glyph-name="icaron" unicode="&#x1d0;" horiz-adv-x="200" 
d="M20 412v88h130v-412h30v-88h-160v88h30v324h-30zM-29 700h97l32 -61l32 61h97l-71 -135h-115z" />
    <glyph glyph-name="Scommaaccent" unicode="&#x218;" horiz-adv-x="375" 
d="M245 88v223h-152l-55 56v278l55 55h189l56 -55v-146h-93v113h-107v-213h152l55 -55v-288l-55 -56h-204l-56 56v145h93v-113h122zM215 -200h-96l20 165h96z" />
    <glyph glyph-name="scommaaccent" unicode="&#x219;" horiz-adv-x="330" 
d="M310 239v-184l-55 -55h-180l-55 55v95h90v-62h100v118h-125l-55 55v184l55 55h160l55 -55v-95h-90v62h-80v-118h125zM194 -200h-96l20 165h96z" />
    <glyph glyph-name="dotlessj" unicode="&#x237;" horiz-adv-x="190" 
d="M20 412v88h130v-644l-55 -56h-129l-56 56v104h90v-72h50v524h-30z" />
    <glyph glyph-name="circumflex" unicode="&#x2c6;" 
d="M128 700h115l71 -135h-97l-32 61l-32 -61h-97z" />
    <glyph glyph-name="caron" unicode="&#x2c7;" 
d="M56 700h97l32 -61l32 61h97l-71 -135h-115z" />
    <glyph glyph-name="breve" unicode="&#x2d8;" 
d="M225 638v62h80v-95l-40 -40h-160l-40 40v95h80v-62h80z" />
    <glyph glyph-name="dotaccent" unicode="&#x2d9;" 
d="M131 573v110h110v-110h-110z" />
    <glyph glyph-name="ring" unicode="&#x2da;" 
d="M156 656v-57h59v57h-59zM110 586v84l30 30h90l30 -30v-84l-30 -30h-90z" />
    <glyph glyph-name="ogonek" unicode="&#x2db;" 
d="M230 -137h120v-63h-147l-34 33v90l115 115l46 -38l-100 -100v-37z" />
    <glyph glyph-name="tilde" unicode="&#x2dc;" 
d="M269 575l-127 35v-45h-80v85l40 40l127 -35v45h80v-85z" />
    <glyph glyph-name="hungarumlaut" unicode="&#x2dd;" 
d="M134 700h90l-58 -135h-90zM261 700h90l-58 -135h-90z" />
    <glyph glyph-name="Alpha" unicode="&#x391;" horiz-adv-x="413" 
d="M403 88v-88h-173v88h36l-15 107h-104l-15 -107h37v-88h-159v88h36l88 612h145l88 -612h36zM199 556l-39 -273h78z" />
    <glyph glyph-name="Beta" unicode="&#x392;" horiz-adv-x="401" 
d="M371 325v-269l-56 -56h-295v88h41v524h-41v88h286l55 -55v-260l-25 -25zM161 311v-223h110v223h-110zM161 612v-213h100v213h-100z" />
    <glyph glyph-name="Delta" unicode="&#x394;" horiz-adv-x="413" 
d="M393 0h-373v58l114 642h145l114 -642v-58zM199 566l-85 -478h170z" />
    <glyph glyph-name="Zeta" unicode="&#x396;" horiz-adv-x="357" 
d="M329 700v-90l-208 -522h123v113h93v-201h-317v90l209 522h-108v-113h-93v201h301z" />
    <glyph glyph-name="Eta" unicode="&#x397;" horiz-adv-x="431" 
d="M230 0v88h41v223h-110v-223h40v-88h-181v88h41v524h-41v88h181v-88h-40v-213h110v213h-41v88h181v-88h-40v-524h40v-88h-181z" />
    <glyph glyph-name="Theta" unicode="&#x398;" 
d="M340 645v-589l-55 -56h-199l-56 56v589l56 55h199zM240 88v223h-110v-223h110zM130 612v-213h110v213h-110z" />
    <glyph glyph-name="Kappa" unicode="&#x39a;" horiz-adv-x="448" 
d="M418 88v-88h-177v88h33l-67 193l-46 -98v-95h40v-88h-181v88h41v524h-41v88h181v-88h-40v-237l112 237h-34v88h168v-88h-35l-101 -207l111 -317h36z" />
    <glyph glyph-name="Lambda" unicode="&#x39b;" horiz-adv-x="413" 
d="M403 88v-88h-174v88h37l-67 468l-67 -468h36v-88h-158v88h36l88 612h145l88 -612h36z" />
    <glyph glyph-name="Mu" unicode="&#x39c;" horiz-adv-x="542" 
d="M522 88v-88h-181v88h40v367l-83 -325h-69l-80 311v-353h40v-88h-169v88h41v524h-41v88h153l98 -369l98 369h153v-88h-41v-524h41z" />
    <glyph glyph-name="Nu" unicode="&#x39d;" horiz-adv-x="434" 
d="M414 700v-88h-41v-612h-103l-121 418v-330h40v-88h-169v88h41v524h-41v88h143l122 -419v331h-40v88h169z" />
    <glyph glyph-name="Xi" unicode="&#x39e;" horiz-adv-x="374" 
d="M20 0v201h93v-113h148v113h93v-201h-334zM113 612v-113h-93v201h334v-201h-93v113h-148zM288 399v-88h-202v88h202z" />
    <glyph glyph-name="Omicron" unicode="&#x39f;" 
d="M340 645v-589l-55 -56h-199l-56 56v589l56 55h199zM240 88v524h-110v-524h110z" />
    <glyph glyph-name="Pi" unicode="&#x3a0;" horiz-adv-x="431" 
d="M161 88h40v-88h-181v88h41v524h-41v88h391v-88h-40v-524h40v-88h-181v88h41v524h-110v-524z" />
    <glyph glyph-name="Rho" unicode="&#x3a1;" horiz-adv-x="401" 
d="M371 645v-328l-56 -56h-154v-173h40v-88h-181v88h41v524h-41v88h295zM161 612v-263h110v263h-110z" />
    <glyph glyph-name="Sigma" unicode="&#x3a3;" horiz-adv-x="357" 
d="M246 391v-49l-125 -254h123v113h93v-201h-317v98l132 271l-124 233v98h309v-201h-93v113h-116z" />
    <glyph glyph-name="Tau" unicode="&#x3a4;" horiz-adv-x="422" 
d="M301 88v-88h-180v88h40v524h-53v-113h-93v201h392v-201h-93v113h-53v-524h40z" />
    <glyph glyph-name="Phi" unicode="&#x3a6;" horiz-adv-x="521" 
d="M170 0v88h40v42h-124l-56 56v328l56 55h124v43h-40v88h181v-88h-40v-43h124l56 -55v-328l-56 -56h-124v-42h40v-88h-181zM311 481v-263h80v263h-80zM210 218v263h-80v-263h80z" />
    <glyph glyph-name="Chi" unicode="&#x3a7;" horiz-adv-x="412" 
d="M15 612v88h175v-88h-35l55 -136l56 136h-33v88h159v-88h-32l-104 -245l114 -279h32v-88h-174v88h34l-62 155l-64 -155h34v-88h-160v88h32l112 263l-107 261h-32z" />
    <glyph glyph-name="Psi" unicode="&#x3a8;" horiz-adv-x="521" 
d="M391 645l56 55h84v-88h-40v-305l-56 -56h-124v-163h40v-88h-181v88h40v163h-124l-56 56v305h-40v88h84l56 -55v-306h80v273h-40v88h181v-88h-40v-273h80v306z" />
    <glyph glyph-name="Omega" unicode="&#x2126;" horiz-adv-x="431" 
d="M20 88h78l-56 212v345l56 55h236l55 -55v-345l-57 -212h79v-88h-181v60l59 254v298h-147v-298l59 -254v-60h-181v88z" />
    <glyph glyph-name="Omega" unicode="&#x3a9;" horiz-adv-x="431" 
d="M20 88h78l-56 212v345l56 55h236l55 -55v-345l-57 -212h79v-88h-181v60l59 254v298h-147v-298l59 -254v-60h-181v88z" />
    <glyph glyph-name="Iocyrillic" unicode="&#x401;" horiz-adv-x="374" 
d="M354 0h-334v88h41v524h-41v88h334v-201h-93v113h-100v-213h127v-88h-127v-223h100v113h93v-201zM53 773v110h110v-110h-110zM212 773v110h110v-110h-110z" />
    <glyph glyph-name="Djecyrillic" unicode="&#x402;" horiz-adv-x="504" 
d="M261 370l30 30h128l55 -55v-290l-55 -55h-86v88h41v223h-113v-223h40v-88h-180v88h40v524h-60v-113h-86v201h392v-201h-85v113h-61v-242z" />
    <glyph glyph-name="Gjecyrillic" unicode="&#x403;" horiz-adv-x="349" 
d="M191 900h97l-58 -135h-97zM161 612v-524h40v-88h-181v88h41v524h-41v88h309v-201h-93v113h-75z" />
    <glyph glyph-name="Ecyrillic" unicode="&#x404;" horiz-adv-x="384" 
d="M290 0h-192l-57 57v587l57 56h248v-200h-90v111h-115v-211h151v-89h-151v-222h115v111h90v-143z" />
    <glyph glyph-name="Dzecyrillic" unicode="&#x405;" horiz-adv-x="375" 
d="M245 88v223h-152l-55 56v278l55 55h189l56 -55v-146h-93v113h-107v-213h152l55 -55v-288l-55 -56h-204l-56 56v145h93v-113h122z" />
    <glyph glyph-name="Icyrillic" unicode="&#x406;" horiz-adv-x="221" 
d="M161 612v-524h40v-88h-181v88h41v524h-41v88h181v-88h-40z" />
    <glyph glyph-name="Yicyrillic" unicode="&#x407;" horiz-adv-x="221" 
d="M161 612v-524h40v-88h-181v88h41v524h-41v88h181v-88h-40zM-24 773v110h111v-110h-111zM135 773v110h110v-110h-110z" />
    <glyph glyph-name="Jecyrillic" unicode="&#x408;" horiz-adv-x="336" 
d="M220 0h-154l-56 56v145h93v-113h72v524h-40v88h181v-88h-41v-556z" />
    <glyph glyph-name="Ljecyrillic" unicode="&#x409;" horiz-adv-x="595" 
d="M197 579l-68 -491h37v-88h-156v88h33l89 612h149l43 -301h185l56 -56v-288l-56 -55h-277v88h37l-68 491h-4zM370 88h95v223h-128z" />
    <glyph glyph-name="Njecyrillic" unicode="&#x40a;" horiz-adv-x="611" 
d="M371 612v-213h154l56 -56v-288l-56 -55h-295v88h41v223h-110v-223h40v-88h-181v88h41v524h-41v88h181v-88h-40v-213h110v213h-41v88h181v-88h-40zM371 88h110v223h-110v-223z" />
    <glyph glyph-name="Tshecyrillic" unicode="&#x40b;" horiz-adv-x="534" 
d="M474 88h40v-88h-181v88h41v223h-113v-223h40v-88h-180v88h40v524h-60v-113h-86v201h392v-201h-85v113h-61v-212h158l55 -55v-257z" />
    <glyph glyph-name="Kjecyrillic" unicode="&#x40c;" horiz-adv-x="435" 
d="M234 900h97l-58 -135h-97zM418 88v-88h-177v88h33l-70 201l-43 -92v-109h40v-88h-181v88h41v524h-41v88h181v-88h-40v-237l112 237h-34v88h168v-88h-35l-101 -207l111 -317h36z" />
    <glyph glyph-name="Ushortcyrillic" unicode="&#x40e;" horiz-adv-x="452" 
d="M143 612l56 -213l56 213h-32v88h158v-88h-32l-104 -364l-41 -160h33v-88h-164v88h35l42 160l-110 364h-30v88h168v-88h-35zM235 838v62h80v-95l-40 -40h-160l-40 40v95h80v-62h80z" />
    <glyph glyph-name="Dzhecyrillic" unicode="&#x40f;" horiz-adv-x="431" 
d="M260 -100h-88v100h-152v88h40v524h-40v88h181v-88h-41v-524h110v524h-40v88h181v-88h-41v-524h41v-88h-151v-100z" />
    <glyph glyph-name="Acyrillic" unicode="&#x410;" horiz-adv-x="413" 
d="M266 88l-15 107h-104l-15 -107h37v-88h-159v88h36l88 612h145l88 -612h36v-88h-173v88h36zM199 556l-39 -273h78z" />
    <glyph glyph-name="Becyrillic" unicode="&#x411;" horiz-adv-x="401" 
d="M161 311v-223h110v223h-110zM61 612h-41v88h309v-201h-93v113h-75v-213h154l56 -56v-288l-56 -55h-295v88h41v524z" />
    <glyph glyph-name="Vecyrillic" unicode="&#x412;" horiz-adv-x="401" 
d="M371 325v-269l-56 -56h-295v88h41v524h-41v88h286l55 -55v-260l-25 -25zM161 311v-223h110v223h-110zM161 612v-213h100v213h-100z" />
    <glyph glyph-name="Gecyrillic" unicode="&#x413;" horiz-adv-x="349" 
d="M161 612v-524h40v-88h-181v88h41v524h-41v88h309v-201h-93v113h-75z" />
    <glyph glyph-name="Decyrillic" unicode="&#x414;" horiz-adv-x="413" 
d="M98 -100h-88v188h33l89 612h149l89 -612h33v-188h-88v100h-217v-100zM197 579l-68 -491h140l-68 491h-4z" />
    <glyph glyph-name="Iecyrillic" unicode="&#x415;" horiz-adv-x="374" 
d="M354 0h-334v88h41v524h-41v88h334v-201h-93v113h-100v-213h127v-88h-127v-223h100v113h93v-201z" />
    <glyph glyph-name="Zhecyrillic" unicode="&#x416;" horiz-adv-x="648" 
d="M17 0v88h36l111 317l-101 207h-35v88h168v-88h-34l112 -237v237h-41v88h182v-88h-41v-237l112 237h-33v88h168v-88h-35l-101 -207l111 -317h35v-88h-177v88h34l-70 201l-44 -92v-109h41v-88h-182v88h41v109l-43 92l-70 -201h33v-88h-177z" />
    <glyph glyph-name="Zecyrillic" unicode="&#x417;" horiz-adv-x="395" 
d="M38 500v200h244l57 -56v-258l-27 -27l36 -34v-268l-57 -57h-198l-57 57v143h90v-111h120v222h-148v89h141v211h-111v-111h-90z" />
    <glyph glyph-name="Iicyrillic" unicode="&#x418;" horiz-adv-x="436" 
d="M161 612v-317l113 294v23h-40v88h181v-88h-41v-524h41v-88h-181v88h40v317l-113 -294v-23h40v-88h-181v88h41v524h-41v88h181v-88h-40z" />
    <glyph glyph-name="Iishortcyrillic" unicode="&#x419;" horiz-adv-x="434" 
d="M161 612v-317l113 294v23h-40v88h181v-88h-41v-524h41v-88h-181v88h40v317l-113 -294v-23h40v-88h-181v88h41v524h-41v88h181v-88h-40zM258 838v62h80v-95l-40 -40h-161l-40 40v95h80v-62h81z" />
    <glyph glyph-name="Kacyrillic" unicode="&#x41a;" horiz-adv-x="435" 
d="M418 88v-88h-177v88h33l-70 201l-43 -92v-109h40v-88h-181v88h41v524h-41v88h181v-88h-40v-237l112 237h-34v88h168v-88h-35l-101 -207l111 -317h36z" />
    <glyph glyph-name="Elcyrillic" unicode="&#x41b;" horiz-adv-x="413" 
d="M197 579l-68 -491h37v-88h-156v88h33l89 612h149l89 -612h33v-88h-171v88h37l-68 491h-4z" />
    <glyph glyph-name="Emcyrillic" unicode="&#x41c;" horiz-adv-x="542" 
d="M229 130l-80 311v-353h40v-88h-169v88h41v524h-41v88h153l98 -369l98 369h153v-88h-41v-524h41v-88h-181v88h40v367l-83 -325h-69z" />
    <glyph glyph-name="Encyrillic" unicode="&#x41d;" horiz-adv-x="431" 
d="M230 0v88h41v223h-110v-223h40v-88h-181v88h41v524h-41v88h181v-88h-40v-213h110v213h-41v88h181v-88h-40v-524h40v-88h-181z" />
    <glyph glyph-name="Ocyrillic" unicode="&#x41e;" 
d="M340 645v-589l-55 -56h-199l-56 56v589l56 55h199zM240 88v524h-110v-524h110z" />
    <glyph glyph-name="Pecyrillic" unicode="&#x41f;" horiz-adv-x="431" 
d="M230 0v88h41v524h-110v-524h40v-88h-181v88h41v524h-41v88h391v-88h-40v-524h40v-88h-181z" />
    <glyph glyph-name="Ercyrillic" unicode="&#x420;" horiz-adv-x="401" 
d="M161 261v-173h40v-88h-181v88h41v524h-41v88h295l56 -55v-328l-56 -56h-154zM161 612v-263h110v263h-110z" />
    <glyph glyph-name="Escyrillic" unicode="&#x421;" 
d="M285 0h-199l-56 56v589l56 55h199l55 -55v-145h-91v112h-119v-524h119v112h91v-144z" />
    <glyph glyph-name="Tecyrillic" unicode="&#x422;" horiz-adv-x="422" 
d="M15 499v201h392v-201h-85v113h-61v-524h40v-88h-180v88h40v524h-60v-113h-86z" />
    <glyph glyph-name="Ucyrillic" unicode="&#x423;" horiz-adv-x="391" 
d="M381 700v-88h-32l-104 -364l-41 -160h33v-88h-164v88h35l42 160l-110 364h-30v88h168v-88h-35l56 -213l56 213h-32v88h158z" />
    <glyph glyph-name="Efcyrillic" unicode="&#x424;" horiz-adv-x="550" 
d="M325 612v-76h142l53 -54v-265l-53 -53h-142v-76h40v-88h-181v88h41v76h-142l-53 53v265l53 54h142v76h-41v88h181v-88h-40zM325 450v-200h95v200h-95zM225 250v200h-95v-200h95z" />
    <glyph glyph-name="Xacyrillic" unicode="&#x425;" horiz-adv-x="412" 
d="M233 612v88h159v-88h-32l-104 -245l114 -279h32v-88h-174v88h34l-62 155l-64 -155h34v-88h-160v88h32l112 263l-107 261h-32v88h175v-88h-35l55 -136l56 136h-33z" />
    <glyph glyph-name="Tsecyrillic" unicode="&#x426;" horiz-adv-x="431" 
d="M411 -100h-88v100h-303v88h40v524h-40v88h181v-88h-41v-524h110v524h-40v88h181v-88h-41v-524h41v-188z" />
    <glyph glyph-name="Checyrillic" unicode="&#x427;" horiz-adv-x="431" 
d="M117 301l-56 57v254h-41v88h181v-88h-40v-223h110v223h-41v88h181v-88h-40v-524h40v-88h-181v88h41v213h-154z" />
    <glyph glyph-name="Shacyrillic" unicode="&#x428;" horiz-adv-x="626" 
d="M425 612v88h182v-88h-41v-524h41v-88h-587v88h41v524h-41v88h181v-88h-40v-524h103v524h-41v88h181v-88h-40v-524h102v524h-41z" />
    <glyph glyph-name="Shchacyrillic" unicode="&#x429;" horiz-adv-x="626" 
d="M607 -100h-88v100h-499v88h41v524h-41v88h181v-88h-40v-524h103v524h-41v88h181v-88h-40v-524h102v524h-41v88h182v-88h-41v-524h41v-188z" />
    <glyph glyph-name="Hardsigncyrillic" unicode="&#x42a;" horiz-adv-x="501" 
d="M261 311v-223h110v223h-110zM15 700h286v-88h-40v-213h154l56 -56v-288l-56 -55h-295v88h41v524h-60v-113h-86v201z" />
    <glyph glyph-name="Yericyrillic" unicode="&#x42b;" horiz-adv-x="601" 
d="M161 311v-223h110v223h-110zM161 612v-213h154l56 -56v-288l-56 -55h-295v88h41v524h-41v88h181v-88h-40zM541 612v-524h40v-88h-181v88h41v524h-41v88h181v-88h-40z" />
    <glyph glyph-name="Softsigncyrillic" unicode="&#x42c;" horiz-adv-x="389" 
d="M161 311v-223h110v223h-110zM161 612v-213h154l56 -56v-288l-56 -55h-295v88h41v524h-41v88h181v-88h-40z" />
    <glyph glyph-name="Ereversedcyrillic" unicode="&#x42d;" horiz-adv-x="384" 
d="M286 0h-192l-56 57v143h90v-111h115v222h-151v89h151v211h-115v-111h-90v200h248l57 -56v-587z" />
    <glyph glyph-name="IUcyrillic" unicode="&#x42e;" horiz-adv-x="611" 
d="M581 645v-589l-55 -56h-199l-56 56v255h-110v-223h40v-88h-181v88h41v524h-41v88h181v-88h-40v-213h110v246l56 55h199zM481 88v524h-110v-524h110z" />
    <glyph glyph-name="IAcyrillic" unicode="&#x42f;" horiz-adv-x="403" 
d="M242 88v173h-55l-55 -261h-112v88h32l39 187h-17l-42 42v328l56 55h295v-88h-41v-524h41v-88h-181v88h40zM242 349v263h-110v-263h110z" />
    <glyph glyph-name="acyrillic" unicode="&#x430;" horiz-adv-x="360" 
d="M310 445v-357h30v-88h-130v40l-40 -40h-95l-55 55v190l55 55h135v112h-90v-62h-90v95l55 55h170zM120 212v-124h90v124h-90z" />
    <glyph glyph-name="becyrillic" unicode="&#x431;" horiz-adv-x="341" 
d="M229 760h87v-93l-55 -55h-136v-152l40 40h95l55 -55v-390l-55 -55h-180l-55 55v590l55 55h149v60zM215 88v324h-90v-324h90z" />
    <glyph glyph-name="vecyrillic" unicode="&#x432;" horiz-adv-x="376" 
d="M20 500h268l55 -55v-161l-34 -34l34 -33v-162l-55 -55h-268v88h30v324h-30v88zM243 88v125h-93v-125h93zM150 412v-124h93v124h-93z" />
    <glyph glyph-name="gecyrillic" unicode="&#x433;" horiz-adv-x="322" 
d="M302 500v-161h-82v73h-70v-324h30v-88h-160v88h30v324h-30v88h282z" />
    <glyph glyph-name="decyrillic" unicode="&#x434;" horiz-adv-x="380" 
d="M10 -100v188h30l75 412h150l75 -412h30v-188h-88v100h-184v-100h-88zM128 88h115l-56 298h-4z" />
    <glyph glyph-name="iecyrillic" unicode="&#x435;" horiz-adv-x="340" 
d="M25 55v390l55 55h180l55 -55v-239h-190v-118h100v62h90v-95l-55 -55h-180zM125 412v-118h90v118h-90z" />
    <glyph glyph-name="zhecyrillic" unicode="&#x436;" horiz-adv-x="580" 
d="M240 319v93h-30v88h160v-88h-30v-93l66 93h-16v88h160v-88h-30l-79 -110l93 -214h26v-88h-160v88h25l-52 120l-33 -46v-74h30v-88h-160v88h30v74l-33 46l-52 -120h25v-88h-160v88h26l93 214l-79 110h-30v88h160v-88h-16z" />
    <glyph glyph-name="zecyrillic" unicode="&#x437;" horiz-adv-x="357" 
d="M224 88v125h-127v75h127v124h-100v-62h-90v150h235l55 -55v-161l-34 -34l34 -33v-162l-55 -55h-180l-55 55v95h90v-62h100z" />
    <glyph glyph-name="iicyrillic" unicode="&#x438;" horiz-adv-x="393" 
d="M150 412v-168l93 156v12h-29v88h159v-88h-30v-324h30v-88h-159v88h29v168l-93 -156v-12h30v-88h-160v88h30v324h-30v88h160v-88h-30z" />
    <glyph glyph-name="iishortcyrillic" unicode="&#x439;" horiz-adv-x="393" 
d="M237 639v61h81v-95l-40 -40h-163l-40 40v95h82v-61h80zM150 412v-168l93 156v12h-29v88h159v-88h-30v-324h30v-88h-159v88h29v168l-93 -156v-12h30v-88h-160v88h30v324h-30v88h160v-88h-30z" />
    <glyph glyph-name="kacyrillic" unicode="&#x43a;" horiz-adv-x="390" 
d="M150 412v-93l66 93h-16v88h160v-88h-30l-79 -110l93 -214h26v-88h-160v88h25l-52 120l-33 -46v-74h30v-88h-160v88h30v324h-30v88h160v-88h-30z" />
    <glyph glyph-name="elcyrillic" unicode="&#x43b;" horiz-adv-x="380" 
d="M210 0v88h33l-56 298h-4l-55 -298h32v-88h-150v88h30l75 412h150l75 -412h30v-88h-160z" />
    <glyph glyph-name="emcyrillic" unicode="&#x43c;" horiz-adv-x="503" 
d="M454 412v-324h29v-88h-158v88h30v209l-61 -232h-85l-61 232v-209h29v-88h-157v88h30v324h-30v88h159l74 -281l73 281h157v-88h-29z" />
    <glyph glyph-name="encyrillic" unicode="&#x43d;" horiz-adv-x="393" 
d="M50 88v324h-30v88h160v-88h-30v-118h93v118h-29v88h159v-88h-30v-324h30v-88h-159v88h29v118h-93v-118h30v-88h-160v88h30z" />
    <glyph glyph-name="ocyrillic" unicode="&#x43e;" horiz-adv-x="340" 
d="M315 445v-390l-55 -55h-180l-55 55v390l55 55h180zM215 88v324h-90v-324h90z" />
    <glyph glyph-name="pecyrillic" unicode="&#x43f;" horiz-adv-x="393" 
d="M243 88v324h-93v-324h30v-88h-160v88h30v324h-30v88h353v-88h-30v-324h30v-88h-159v88h29z" />
    <glyph glyph-name="ercyrillic" unicode="&#x440;" horiz-adv-x="365" 
d="M340 445v-390l-55 -55h-95l-40 40v-152h30v-88h-160v88h30v524h-30v88h130v-40l40 40h95zM150 412v-324h90v324h-90z" />
    <glyph glyph-name="escyrillic" unicode="&#x441;" horiz-adv-x="330" 
d="M250 0h-170l-55 55v390l55 55h170l55 -55v-145h-90v112h-90v-324h90v112h90v-145z" />
    <glyph glyph-name="tecyrillic" unicode="&#x442;" horiz-adv-x="374" 
d="M20 339v161h333v-161h-81v73h-35v-324h30v-88h-160v88h30v324h-35v-73h-82z" />
    <glyph glyph-name="ucyrillic" unicode="&#x443;" horiz-adv-x="380" 
d="M170 500v-88h-26l50 -234h4l48 234h-26v88h150v-88h-25l-141 -524h26v-88h-150v88h25l36 143l-106 381h-25v88h160z" />
    <glyph glyph-name="efcyrillic" unicode="&#x444;" horiz-adv-x="530" 
d="M315 412v-324h90v324h-90zM215 88v324h-90v-324h90zM25 55v390l55 55h95l40 -40v152h-30v88h160v-88h-30v-152l40 40h95l55 -55v-390l-55 -55h-95l-40 40v-152h30v-88h-160v88h30v152l-40 -40h-95z" />
    <glyph glyph-name="hacyrillic" unicode="&#x445;" horiz-adv-x="350" 
d="M150 88v-88h-140v88h20l85 173l-80 151h-20v88h150v-88h-19l38 -70l32 70h-21v88h140v-88h-20l-81 -164l86 -160h20v-88h-150v88h18l-42 79l-38 -79h22z" />
    <glyph glyph-name="tsecyrillic" unicode="&#x446;" horiz-adv-x="393" 
d="M150 412v-324h92v324h-29v88h160v-88h-31v-324h31v-188h-89v100h-264v88h30v324h-30v88h159v-88h-29z" />
    <glyph glyph-name="checyrillic" unicode="&#x447;" horiz-adv-x="390" 
d="M150 412v-154h90v154h-30v88h160v-88h-30v-324h30v-88h-160v88h30v122l-40 -40h-95l-55 55v187h-30v88h160v-88h-30z" />
    <glyph glyph-name="shacyrillic" unicode="&#x448;" horiz-adv-x="571" 
d="M150 412v-324h85v324h-29v88h159v-88h-30v-324h86v324h-30v88h160v-88h-30v-324h30v-88h-531v88h30v324h-30v88h159v-88h-29z" />
    <glyph glyph-name="shchacyrillic" unicode="&#x449;" horiz-adv-x="571" 
d="M150 412v-324h85v324h-29v88h159v-88h-30v-324h86v324h-30v88h160v-88h-30v-324h30v-188h-88v100h-443v88h30v324h-30v88h159v-88h-29z" />
    <glyph glyph-name="hardsigncyrillic" unicode="&#x44a;" horiz-adv-x="445" 
d="M20 339v161h247v-88h-30v-118h135l55 -55v-184l-55 -55h-265v88h30v324h-35v-73h-82zM327 206h-90v-118h90v118z" />
    <glyph glyph-name="yericyrillic" unicode="&#x44b;" horiz-adv-x="547" 
d="M340 239v-184l-55 -55h-265v88h30v324h-30v88h160v-88h-30v-118h135zM497 412v-324h30v-88h-160v88h30v324h-30v88h160v-88h-30zM240 206h-90v-118h90v118z" />
    <glyph glyph-name="softsigncyrillic" unicode="&#x44c;" horiz-adv-x="358" 
d="M340 239v-184l-55 -55h-265v88h30v324h-30v88h160v-88h-30v-118h135zM150 88h90v118h-90v-118z" />
    <glyph glyph-name="ereversedcyrillic" unicode="&#x44d;" horiz-adv-x="357" 
d="M224 88v125h-127v75h127v124h-100v-62h-90v150h235l55 -55v-390l-55 -55h-180l-55 55v95h90v-62h100z" />
    <glyph glyph-name="iucyrillic" unicode="&#x44e;" horiz-adv-x="553" 
d="M528 445v-390l-55 -55h-180l-55 55v151h-88v-118h30v-88h-160v88h30v324h-30v88h160v-88h-30v-118h88v151l55 55h180zM428 88v324h-90v-324h90z" />
    <glyph glyph-name="iacyrillic" unicode="&#x44f;" horiz-adv-x="390" 
d="M30 242v203l55 55h285v-88h-30v-324h30v-88h-160v88h30v99h-46l-39 -99h25v-88h-160v88h26l39 99zM240 412h-110v-137h110v137z" />
    <glyph glyph-name="iocyrillic" unicode="&#x451;" horiz-adv-x="340" 
d="M25 55v390l55 55h180l55 -55v-239h-190v-118h100v62h90v-95l-55 -55h-180zM125 412v-118h90v118h-90zM36 573v110h110v-110h-110zM195 573v110h110v-110h-110z" />
    <glyph glyph-name="djecyrillic" unicode="&#x452;" horiz-adv-x="365" 
d="M150 563v-103l40 40h95l55 -55v-589l-55 -56h-139l-56 56v104h90v-72h60v524h-90v-324h30v-88h-160v88h30v475h-56v74h56v63h100v-63h83v-74h-83z" />
    <glyph glyph-name="gjecyrillic" unicode="&#x453;" horiz-adv-x="322" 
d="M171 700h100l-58 -135h-100zM302 500v-161h-82v73h-70v-324h30v-88h-160v88h30v324h-30v88h282z" />
    <glyph glyph-name="ecyrillic" unicode="&#x454;" horiz-adv-x="357" 
d="M134 213v-125h100v62h90v-95l-55 -55h-180l-55 55v390l55 55h235v-150h-90v62h-100v-124h127v-75h-127z" />
    <glyph glyph-name="dzecyrillic" unicode="&#x455;" horiz-adv-x="330" 
d="M310 239v-184l-55 -55h-180l-55 55v95h90v-62h100v118h-125l-55 55v184l55 55h160l55 -55v-95h-90v62h-80v-118h125z" />
    <glyph glyph-name="icyrillic" unicode="&#x456;" horiz-adv-x="200" 
d="M20 412v88h130v-412h30v-88h-160v88h30v324h-30zM45 590v110h110v-110h-110z" />
    <glyph glyph-name="yicyrillic" unicode="&#x457;" horiz-adv-x="200" 
d="M20 412v88h130v-412h30v-88h-160v88h30v324h-30zM-34 573v110h110v-110h-110zM125 573v110h110v-110h-110z" />
    <glyph glyph-name="jecyrillic" unicode="&#x458;" horiz-adv-x="190" 
d="M20 412v88h130v-644l-55 -56h-129l-56 56v104h90v-72h50v524h-30zM45 590v110h110v-110h-110z" />
    <glyph glyph-name="ljecyrillic" unicode="&#x459;" horiz-adv-x="529" 
d="M210 0v88h33l-56 298h-4l-55 -298h32v-88h-150v88h30l75 412h150l38 -206h153l55 -55v-184l-55 -55h-246zM340 88h71v118h-92z" />
    <glyph glyph-name="njecyrillic" unicode="&#x45a;" horiz-adv-x="551" 
d="M533 239v-184l-55 -55h-264v88h29v118h-93v-118h30v-88h-160v88h30v324h-30v88h160v-88h-30v-118h93v118h-29v88h159v-88h-30v-118h135zM433 206h-90v-118h90v118z" />
    <glyph glyph-name="tshecyrillic" unicode="&#x45b;" horiz-adv-x="390" 
d="M150 563v-103l40 40h95l55 -55v-357h30v-88h-130v412h-90v-324h30v-88h-160v88h30v475h-56v74h56v63h100v-63h83v-74h-83z" />
    <glyph glyph-name="kjecyrillic" unicode="&#x45c;" horiz-adv-x="390" 
d="M150 412v-93l66 93h-16v88h160v-88h-30l-79 -110l93 -214h26v-88h-160v88h25l-52 120l-33 -46v-74h30v-88h-160v88h30v324h-30v88h160v-88h-30zM199 700h97l-58 -135h-97z" />
    <glyph glyph-name="ushortcyrillic" unicode="&#x45e;" horiz-adv-x="380" 
d="M230 639v61h82v-95l-40 -40h-164l-40 40v95h82v-61h80zM170 500v-88h-26l50 -234h4l48 234h-26v88h150v-88h-25l-141 -524h26v-88h-150v88h25l36 143l-106 381h-25v88h160z" />
    <glyph glyph-name="dzhecyrillic" unicode="&#x45f;" horiz-adv-x="393" 
d="M150 412v-324h92v324h-29v88h160v-88h-31v-324h31v-88h-133v-100h-88v100h-132v88h30v324h-30v88h159v-88h-29z" />
    <glyph glyph-name="Geupturncyrillic" unicode="&#x490;" horiz-adv-x="316" 
d="M329 612h-168v-524h40v-88h-181v88h41v524h-41v88h216v100h93v-188z" />
    <glyph glyph-name="geupturncyrillic" unicode="&#x491;" horiz-adv-x="322" 
d="M213 600h89v-188h-152v-324h30v-88h-160v88h30v324h-30v88h193v100z" />
    <glyph glyph-name="Wgrave" unicode="&#x1e80;" horiz-adv-x="597" 
d="M197 900h96l58 -135h-96zM10 612v88h169v-88h-33l31 -407h4l70 435h111l70 -436h4l31 408h-33v88h153v-88h-35l-58 -612h-132l-61 428h-4l-62 -428h-134l-56 612h-35z" />
    <glyph glyph-name="wgrave" unicode="&#x1e81;" horiz-adv-x="540" 
d="M165 700h96l58 -135h-96zM315 0l-43 327h-4l-43 -327h-143l-42 412h-30v88h154v-88h-28l26 -292h4l50 380h117l50 -380h4l26 292h-28v88h145v-88h-30l-42 -412h-143z" />
    <glyph glyph-name="Wacute" unicode="&#x1e82;" horiz-adv-x="597" 
d="M311 900h97l-58 -135h-97zM10 612v88h169v-88h-33l31 -407h4l70 435h111l70 -436h4l31 408h-33v88h153v-88h-35l-58 -612h-132l-61 428h-4l-62 -428h-134l-56 612h-35z" />
    <glyph glyph-name="wacute" unicode="&#x1e83;" horiz-adv-x="540" 
d="M279 700h97l-58 -135h-97zM315 0l-43 327h-4l-43 -327h-143l-42 412h-30v88h154v-88h-28l26 -292h4l50 380h117l50 -380h4l26 292h-28v88h145v-88h-30l-42 -412h-143z" />
    <glyph glyph-name="Wdieresis" unicode="&#x1e84;" horiz-adv-x="597" 
d="M168 773v110h110v-110h-110zM327 773v110h110v-110h-110zM10 612v88h169v-88h-33l31 -407h4l70 435h111l70 -436h4l31 408h-33v88h153v-88h-35l-58 -612h-132l-61 428h-4l-62 -428h-134l-56 612h-35z" />
    <glyph glyph-name="wdieresis" unicode="&#x1e85;" horiz-adv-x="540" 
d="M136 573v110h110v-110h-110zM295 573v110h110v-110h-110zM315 0l-43 327h-4l-43 -327h-143l-42 412h-30v88h154v-88h-28l26 -292h4l50 380h117l50 -380h4l26 292h-28v88h145v-88h-30l-42 -412h-143z" />
    <glyph glyph-name="enspace" unicode="&#x2002;" horiz-adv-x="350" 
 />
    <glyph glyph-name="emspace" unicode="&#x2003;" horiz-adv-x="700" 
 />
    <glyph glyph-name="threeperemspace" unicode="&#x2004;" horiz-adv-x="525" 
 />
    <glyph glyph-name="fourperemspace" unicode="&#x2005;" horiz-adv-x="175" 
 />
    <glyph glyph-name="sixperemspace" unicode="&#x2006;" horiz-adv-x="117" 
 />
    <glyph glyph-name="figurespace" unicode="&#x2007;" horiz-adv-x="400" 
 />
    <glyph glyph-name="punctuationspace" unicode="&#x2008;" horiz-adv-x="200" 
 />
    <glyph glyph-name="thinspace" unicode="&#x2009;" horiz-adv-x="100" 
 />
    <glyph glyph-name="hairspace" unicode="&#x200a;" horiz-adv-x="50" 
 />
    <glyph glyph-name="zerowidthspace" unicode="&#x200b;" horiz-adv-x="0" 
 />
    <glyph glyph-name="figuredash" unicode="&#x2012;" horiz-adv-x="400" 
d="M360 345v-88h-320v88h320z" />
    <glyph glyph-name="endash" unicode="&#x2013;" horiz-adv-x="350" 
d="M310 345v-88h-270v88h270z" />
    <glyph glyph-name="emdash" unicode="&#x2014;" horiz-adv-x="700" 
d="M660 345v-88h-620v88h620z" />
    <glyph glyph-name="uni2015" unicode="&#x2015;" horiz-adv-x="800" 
d="M760 345v-88h-720v88h720z" />
    <glyph glyph-name="quoteleft" unicode="&#x2018;" horiz-adv-x="217" 
d="M35 472v109l55 119h96l-51 -111v-117h-100z" />
    <glyph glyph-name="quoteright" unicode="&#x2019;" horiz-adv-x="217" 
d="M182 700v-110l-55 -118h-96l51 110v118h100z" />
    <glyph glyph-name="quotesinglbase" unicode="&#x201a;" horiz-adv-x="217" 
d="M172 106v-110l-55 -118h-96l51 110v118h100z" />
    <glyph glyph-name="reversequoteleft" unicode="&#x201b;" horiz-adv-x="217" 
d="M35 590v110h100v-118l51 -110h-96z" />
    <glyph glyph-name="quotedblleft" unicode="&#x201c;" horiz-adv-x="363" 
d="M35 472v109l55 119h96l-51 -111v-117h-100zM181 472v109l55 119h96l-51 -111v-117h-100z" />
    <glyph glyph-name="quotedblright" unicode="&#x201d;" horiz-adv-x="363" 
d="M182 700v-110l-55 -118h-96l51 110v118h100zM329 700v-110l-55 -118h-96l51 110v118h100z" />
    <glyph glyph-name="quotedblbase" unicode="&#x201e;" horiz-adv-x="363" 
d="M172 106v-110l-55 -118h-96l51 110v118h100zM318 106v-110l-55 -118h-96l51 110v118h100z" />
    <glyph glyph-name="reversequotedblleft" unicode="&#x201f;" horiz-adv-x="364" 
d="M35 590v110h100v-118l51 -110h-96zM182 590v110h100v-118l51 -110h-96z" />
    <glyph glyph-name="dagger" unicode="&#x2020;" horiz-adv-x="380" 
d="M44 515v79h106v106h80v-106h106v-79h-106v-315h-80v315h-106z" />
    <glyph glyph-name="daggerdbl" unicode="&#x2021;" horiz-adv-x="380" 
d="M44 515v79h106v106h80v-106h106v-79h-106v-121h106v-79h-106v-315h-80v315h-106v79h106v121h-106z" />
    <glyph glyph-name="bullet" unicode="&#x2022;" horiz-adv-x="300" 
d="M65 265v170h170v-170h-170z" />
    <glyph glyph-name="ellipsis" unicode="&#x2026;" horiz-adv-x="700" 
d="M75 0v100h100v-100h-100zM525 0v100h100v-100h-100zM299 0v100h100v-100h-100z" />
    <glyph glyph-name="Euro" unicode="&#x20ac;" horiz-adv-x="403" 
d="M294 323l-24 -79h-82v-155h89v70h90v-104l-55 -55h-169l-55 55v189h-50v79h50v54h-50v79h50v189l55 55h169l55 -55v-104h-90v70h-89v-155h146l-24 -79h-122v-54h106z" />
    <glyph glyph-name="published" unicode="&#x2117;" horiz-adv-x="579" 
d="M500 0h-428l-33 33v627l40 40h421l40 -40v-620zM102 65h368v570h-368v-570zM249 495v-135h83v135h-83zM249 280v-155h-83v450h206l43 -43v-209l-43 -43h-123z" />
    <glyph glyph-name="servicemark" unicode="&#x2120;" horiz-adv-x="483" 
d="M319 415l-40 152v-217h-50v350h60l48 -177l48 177h62v-350h-54v218l-39 -153h-35zM135 398v105h-71l-31 31v136l31 30h92l30 -30v-73h-51v55h-47v-101h72l30 -30v-141l-30 -30h-100l-31 30v72h52v-54h54z" />
    <glyph glyph-name="trademark" unicode="&#x2122;" horiz-adv-x="482" 
d="M27 652v48h167v-48h-56v-302h-55v302h-56zM319 415l-40 152v-217h-50v350h61l48 -177l48 177h61v-350h-53v218l-40 -153h-35z" />
    <glyph glyph-name="partialdiff" unicode="&#x2202;" horiz-adv-x="1086" 
d="M1066 637q-29 -7 -41.5 -17.5t-40.5 -52.5l-4 -7q-5 -6 -6.5 -8t-7 -9t-10 -11t-12.5 -11.5t-16 -13.5t-19.5 -14t-24.5 -16q-41 -25 -41 -49q0 -8 4.5 -24t5.5 -22q4 -23 6 -47t3 -32.5t5 -18t13 -18.5q15 -15 15 -36q0 -7 -4 -40t-4 -63q0 -9 2 -35t2 -39
q0 -16 -12 -28q-5 -5 -8.5 -15t-5.5 -12q-6 -6 -23 -6q-15 0 -29.5 4.5t-14.5 11.5q0 5 6.5 13t6.5 10q-1 5 -7.5 6t-6.5 5t16 19.5t16 26.5q0 23 -17 125q-9 13 -34 37.5t-47 59.5q-24 18 -54 18q-33 0 -113 -34t-135 -38q-2 0 -2 -3q0 -16 -1.5 -51.5t-1.5 -54.5
q0 -77 -24 -96q-16 -41 -23 -47q-8 -5 -23 -5q-18 0 -33.5 4.5t-15.5 11.5t4.5 13t8.5 9.5t4 4.5t-4.5 4.5t-4.5 6.5q0 12 41 28q4 20 4 34q0 27 -10 77l-16 73q-64 48 -114 187q-11 32 -30 32q-4 0 -16 -3t-21 -3q-15 0 -15 8q0 4 4.5 11.5t4.5 10.5q0 7 -19.5 9t-42.5 2
t-41.5 6.5t-17.5 21.5q-24 13 -24 41q0 6 7.5 11t34.5 18q7 3 12 5.5l13 6.5l16 8q13 7 28.5 24t33.5 28.5t47 11.5q38 0 71 -32t57.5 -68.5t35.5 -41.5q68 -31 247 -31q29 0 70 3t50 3q38 0 68.5 -13t40.5 -13q39 0 87 36q27 20 49 49.5t24 32.5q34 36 74 36q20 0 20 -11
q0 -10 -20 -14z" />
    <glyph glyph-name="minus" unicode="&#x2212;" horiz-adv-x="403" 
d="M363 395v-90h-323v90h323z" />
    <glyph glyph-name="radical" unicode="&#x221a;" horiz-adv-x="732" 
d="M366 0q-9 0 -19 5q-27 13 -61 34.5t-87.5 66t-95 94t-72.5 122t-31 147.5q0 99 61 165t151 66q88 0 154 -80q66 80 154 80q90 0 151 -66t61 -165q0 -75 -31 -147.5t-72.5 -122t-95 -94t-87.5 -66t-61 -34.5q-10 -5 -19 -5zM606 514q10 1 10 6q0 6 -10 6q-19 0 -35 -17
q-2 -2 -12.5 -16t-22.5 -24q-22 -17 -41 -17q-4 0 -19 6.5t-33 6.5q-5 0 -24 -1.5t-33 -1.5q-85 0 -118 15q-5 2 -16.5 19.5t-27.5 32.5t-34 15q-19 0 -33.5 -14t-18.5 -16q-5 -3 -10 -5.5t-8.5 -4t-6.5 -3.5t-5 -2.5t-4 -1.5t-2.5 -2t-1.5 -1.5t-1 -1.5v-2q0 -6 2.5 -10.5
t5.5 -6.5l3 -2q-1 -12 28.5 -13.5t29.5 -5.5q0 -1 -2 -4.5t-2 -5.5q0 -4 7 -4q4 0 9.5 1.5t7.5 1.5q9 0 15 -15q23 -66 54 -89l7 -35q5 -18 5 -37q0 -6 -2 -16q-19 -7 -19 -13q0 -1 2 -3l2 -2l-4 -5q-4 -4 -4 -8q0 -8 23 -8q3 0 5 0.5t3.5 0.5t2.5 1.5t2 2.5t2.5 3.5t2 4
l2 6t2.5 6.5q12 10 12 46q0 9 0.5 25.5t0.5 24.5q0 1 1 1q26 2 64 18.5t54 16.5q13 0 25 -9q11 -16 22.5 -27.5t16.5 -18.5q8 -53 8 -59q0 -5 -7.5 -12.5t-7.5 -9.5q0 -3 3 -3t3 -2q0 -1 -3 -5t-3 -6q0 -8 21 -8q8 0 11 3q1 1 3 5.5t4 7.5q6 6 6 13q0 6 -1 18.5t-1 16.5
q0 14 1.5 30t1.5 19q0 11 -7 17q-4 4 -6 9t-2.5 9t-1.5 15t-3 22q0 3 -2 10.5t-2 11.5q0 11 19 24q30 17 48 42q13 20 19 25t20 9z" />
    <glyph glyph-name="approxequal" unicode="&#x2248;" horiz-adv-x="403" 
d="M320 362l-200 49v-42h-80v82l43 44l200 -50v42h80v-82zM320 205l-200 50v-42h-80v82l43 43l200 -49v42h80v-82z" />
    <glyph glyph-name="notequal" unicode="&#x2260;" horiz-adv-x="403" 
d="M273 569h89l-52 -97h53v-89h-100l-35 -66h135v-89h-182l-51 -97h-88l51 97h-53v89h100l35 66h-135v89h182z" />
    <glyph glyph-name="fi" unicode="&#xfb01;" horiz-adv-x="540" 
d="M20 412v88h50v145l55 55h140l55 -55v-95h-90v62h-60v-112h120v-88h-120v-322h30v-90h-160v90h30v322h-50zM360 412v88h130v-412h30v-88h-160v88h30v324h-30zM385 590v110h110v-110h-110z" />
    <glyph glyph-name="fl" unicode="&#xfb02;" horiz-adv-x="540" 
d="M20 412v88h50v145l55 55h140l55 -55v-95h-90v62h-60v-112h120v-88h-120v-322h30v-90h-160v90h30v322h-50zM360 612v88h130v-612h30v-88h-160v88h30v524h-30z" />
    <glyph glyph-name="caronSlovak" unicode="&#x100148;" 
d="M417 525h-77l20 175h77z" />
    <glyph glyph-name="commaaccent" unicode="&#x100174;" 
d="M214 -200h-96l20 165h96z" />
    <glyph glyph-name="dotbelow" unicode="&#x1001c7;" 
d="M240 -73v-110h-110v110h110z" />
    <glyph glyph-name="emdash.cap" unicode="&#x1002d3;" horiz-adv-x="700" 
d="M660 394v-88h-620v88h620z" />
    <glyph glyph-name="endash.cap" unicode="&#x1002d7;" horiz-adv-x="350" 
d="M310 394v-88h-270v88h270z" />
    <glyph glyph-name="figuredash.cap" unicode="&#x100375;" horiz-adv-x="400" 
d="M360 394v-88h-320v88h320z" />
    <glyph glyph-name="hyphen.cap" unicode="&#x100480;" horiz-adv-x="260" 
d="M220 394v-88h-180v88h180z" />
    <glyph glyph-name="idotaccent" unicode="&#x1004c3;" horiz-adv-x="200" 
d="M20 412v88h130v-412h30v-88h-160v88h30v324h-30zM45 590v110h110v-110h-110z" />
    <glyph glyph-name="invertedbreve" unicode="&#x1004f2;" 
d="M145 627v-62h-80v95l40 40h160l40 -40v-95h-80v62h-80z" />
    <glyph glyph-name="onethirdemdash" unicode="&#x100704;" horiz-adv-x="233" 
d="M193 345v-88h-153v88h153z" />
    <glyph glyph-name="onethirdemdash.cap" unicode="&#x100705;" horiz-adv-x="233" 
d="M193 394v-88h-153v88h153z" />
    <glyph glyph-name="periodcentered.cap" unicode="&#x10074e;" horiz-adv-x="230" 
d="M65 300v100h100v-100h-100z" />
    <glyph glyph-name="registered.cap" unicode="&#x1007d2;" horiz-adv-x="579" 
d="M500 0h-421l-40 40v620l40 40h421l40 -40v-620zM109 65h361v570h-361v-570zM249 495v-135h79v135h-79zM426 125h-81l-45 155h-51v-155h-83v450h202l44 -43v-204l-34 -34z" />
    <glyph glyph-name="threequarteremdash" unicode="&#x1008b4;" horiz-adv-x="525" 
d="M485 345v-88h-445v88h445z" />
    <glyph glyph-name="threequarteremdash.cap" unicode="&#x1008b5;" horiz-adv-x="525" 
d="M485 394v-88h-445v88h445z" />
    <glyph glyph-name="uni2015.cap" unicode="&#x10094d;" horiz-adv-x="800" 
d="M760 394v-88h-720v88h720z" />
    <glyph glyph-name="doublegrave" 
d="M146 700h90l58 -135h-90zM20 700h90l58 -135h-90z" />
    </font>
</defs>
</svg>
