<?xml version="1.0" standalone="no"?>
<!DOCTYPE svg PUBLIC "-//W3C//DTD SVG 1.1//EN" "http://www.w3.org/Graphics/SVG/1.1/DTD/svg11.dtd" >
<svg xmlns="http://www.w3.org/2000/svg" xmlns:xlink="http://www.w3.org/1999/xlink" version="1.1">
<metadata>
Created by FontForge 20170731 at Tue Nov 17 02:40:25 2015
 By Aleksey,,,
Copyright (c) 2011-15 Victoria's Secret Pink. All rights reserved.
</metadata>
<defs>
<font id="PinkOutline-100" horiz-adv-x="370" >
  <font-face 
    font-family="Pink Outline 100"
    font-weight="550"
    font-stretch="normal"
    units-per-em="1000"
    panose-1="2 0 0 0 0 0 0 0 0 0"
    ascent="800"
    descent="-200"
    x-height="500"
    cap-height="700"
    bbox="-90 -200 1086 900"
    underline-thickness="50"
    underline-position="-200"
    unicode-range="U+0020-10094D"
  />
<missing-glyph horiz-adv-x="820" 
d="M60 700h700v-700h-700v700zM160 612v-524h500v524h-500zM330 546l80 -112l80 112h120l-140 -196l140 -196h-120l-80 112l-80 -112h-120l140 196l-140 196h120z" />
    <glyph glyph-name=".notdef" horiz-adv-x="820" 
d="M60 700h700v-700h-700v700zM160 612v-524h500v524h-500zM330 546l80 -112l80 112h120l-140 -196l140 -196h-120l-80 112l-80 -112h-120l140 196l-140 196h120z" />
    <glyph glyph-name=".null" horiz-adv-x="0" 
 />
    <glyph glyph-name="nonmarkingreturn" horiz-adv-x="333" 
 />
    <glyph glyph-name="space" unicode=" " horiz-adv-x="200" 
 />
    <glyph glyph-name="exclam" unicode="!" horiz-adv-x="230" 
d="M79 200l-28 500h128l-28 -500h-72zM83 670l25 -440h14l26 440h-65zM66 0v98h98v-98h-98zM96 68v-38h38v38h-38z" />
    <glyph glyph-name="quotedbl" unicode="&#x22;" horiz-adv-x="390" 
d="M74 454l-19 246h120l-19 -246h-82zM234 454l-19 246h120l-19 -246h-82zM87 670l15 -186h26l15 186h-56zM247 670l15 -186h26l15 186h-56z" />
    <glyph glyph-name="numbersign" unicode="#" horiz-adv-x="400" 
d="M220 0v180h-40v-180h-90v180h-60v90h60v160h-60v90h60v180h90v-180h40v180h90v-180h60v-90h-60v-160h60v-90h-60v-180h-90zM250 670v-180h-100v180h-30v-180h-60v-30h60v-220h-60v-30h60v-180h30v180h100v-180h30v180h60v30h-60v220h60v30h-60v180h-30zM150 240v220h100
v-220h-100zM180 430v-160h40v160h-40z" />
    <glyph glyph-name="dollar" unicode="$" horiz-adv-x="400" 
d="M370 344v-189l-55 -55h-71v-100h-98v100h-61l-55 55v95h98v-52h142v103h-175l-55 55v189l55 55h61v100h98v-100h51l55 -55v-95h-98v52h-122v-103h175zM340 167v165l-37 37h-193v163h182v-52h38v53l-37 37h-69v100h-38v-100h-79l-37 -37v-165l37 -37h193v-163h-202v52h-38
v-53l37 -37h79v-100h38v100h89z" />
    <glyph glyph-name="percent" unicode="%" horiz-adv-x="728" 
d="M310 651v-208l-49 -50h-158l-49 50v208l49 49h158zM86 0l438 700h105l-438 -700h-105zM152 602v-111h60v111h-60zM661 258v-208l-49 -50h-158l-49 50v208l49 49h158zM503 209v-111h60v111h-60zM280 455v184l-31 31h-134l-31 -31v-184l31 -32h134zM540 670l-400 -640h35
l400 640h-35zM122 461v171h120v-171h-120zM631 62v184l-31 31h-134l-31 -31v-184l31 -32h134zM473 68v171h120v-171h-120z" />
    <glyph glyph-name="ampersand" unicode="&#x26;" horiz-adv-x="450" 
d="M229 30l52 108l53 -108h47l-77 156l84 172h-46l-61 -125l-74 151l113 113v133l-41 40h-141l-40 -40v-118l60 -125l-83 -83v-233l41 -41h113zM175 353q56 -112 83 -168l-56 -117h-87v225zM282 511l-92 -92l-52 107v106h144v-121zM437 388l-99 -203l90 -185h-113l-34 68
l-33 -68h-144l-59 59v258l77 77l-54 112v136l58 58h165l59 -58v-157l-107 -106l38 -78l43 87h113zM145 98h38l42 86l-58 119l-22 -22v-183zM168 602v-69l31 -63l53 53v79h-84z" />
    <glyph glyph-name="quotesingle" unicode="'" horiz-adv-x="230" 
d="M74 454l-19 246h120l-19 -246h-82zM87 670l15 -186h26l15 186h-56z" />
    <glyph glyph-name="parenleft" unicode="(" horiz-adv-x="250" 
d="M215 -2v-98h-115l-55 56v788l55 56h115v-98h-70v-704h70zM75 -32l38 -38h72v38h-70v764h70v38h-72l-38 -38v-764z" />
    <glyph glyph-name="parenright" unicode=")" horiz-adv-x="250" 
d="M35 702v98h115l55 -56v-788l-55 -56h-115v98h70v704h-70zM175 732l-38 38h-72v-38h70v-764h-70v-38h72l38 38v764z" />
    <glyph glyph-name="asterisk" unicode="*" horiz-adv-x="380" 
d="M21 568l60 104l49 -28v56h120v-56l49 28l60 -104l-49 -28l49 -28l-60 -104l-49 28v-56h-120v56l-49 -28l-60 104l48 28zM304 583l-20 34l-74 -43v86h-40v-86l-74 43l-20 -34l74 -43l-74 -43l20 -34l74 42v-85h40v85l74 -42l20 34l-75 43z" />
    <glyph glyph-name="plus" unicode="+" horiz-adv-x="403" 
d="M40 301v98h112v112h98v-112h113v-98h-113v-113h-98v113h-112zM220 481h-38v-112h-112v-38h112v-113h38v113h113v38h-113v112z" />
    <glyph glyph-name="comma" unicode="," horiz-adv-x="230" 
d="M134 17v51h-38v-75l-29 -65h27zM164 98v-88l-49 -112h-94l45 104v96h98z" />
    <glyph glyph-name="hyphen" unicode="-" horiz-adv-x="260" 
d="M40 252v98h180v-98h-180zM190 282v38h-120v-38h120z" />
    <glyph glyph-name="period" unicode="." horiz-adv-x="230" 
d="M66 0v98h98v-98h-98zM96 68v-38h38v38h-38z" />
    <glyph glyph-name="slash" unicode="/" horiz-adv-x="330" 
d="M0 -100l235 900h95l-235 -900h-95zM258 770l-219 -840h33l219 840h-33z" />
    <glyph glyph-name="zero" unicode="0" horiz-adv-x="400" 
d="M360 630v-560l-70 -70h-181l-70 70v560l70 70h181zM260 98v504h-121v-504h121zM330 82v536l-53 52h-156l-52 -52v-536l51 -52h158zM290 632v-564h-181v564h181z" />
    <glyph glyph-name="one" unicode="1" horiz-adv-x="390" 
d="M94 468l-69 68l163 164h73v-602h100v-98h-300v98h100v437zM67 536l27 -27l97 98v-539h-100v-38h240v38h-100v602h-31z" />
    <glyph glyph-name="two" unicode="2" horiz-adv-x="400" 
d="M145 301v-203h121v102h98v-200h-319v344l55 55h157v203h-107v-102h-98v145l55 55h195l55 -55v-287l-55 -57h-157zM115 68v263h175l37 39v263l-37 37h-172l-36 -36v-104h38v102h167v-263h-175l-37 -37v-302h259v140h-38v-102h-181z" />
    <glyph glyph-name="three" unicode="3" horiz-adv-x="400" 
d="M40 500v130l70 70h171l70 -70v-222l-48 -48l58 -58v-232l-70 -70h-181l-70 70v132h98v-104h123v188l-20 20h-119v98h109l20 20v178h-113v-102h-98zM70 618v-88h38v102h173v-213l-45 -45h-84v-38h94l45 -45v-223h-183v104h-38v-90l51 -52h158l52 52v208l-70 70l60 60v198
l-53 52h-146z" />
    <glyph glyph-name="four" unicode="4" horiz-adv-x="400" 
d="M30 177v68l181 455h106v-425h53v-98h-53v-79h52v-98h-203v98h51v79h-187zM142 275h75v189zM60 239v-32h187v-139h-51v-38h143v38h-52v139h53v38h-53v425h-55zM247 245h-149l149 375v-375z" />
    <glyph glyph-name="five" unicode="5" horiz-adv-x="400" 
d="M43 305v395h317v-98h-217v-199h147l70 -70v-263l-70 -70h-182l-70 70v132h98v-104h124v207h-217zM73 670v-335h217v-267h-184v104h-38v-90l51 -52h159l52 52v239l-53 52h-164v259h217v38h-257z" />
    <glyph glyph-name="six" unicode="6" horiz-adv-x="400" 
d="M110 0l-70 70v560l70 70h174l70 -70v-132h-108v104h-106v-198h150l70 -70v-264l-70 -70h-180zM140 306v-208h120v208h-120zM70 84l53 -54h155l52 52v240l-51 52h-169v258h166v-104h48v90l-51 52h-151l-52 -52v-534zM110 68v268h180v-268h-180z" />
    <glyph glyph-name="seven" unicode="7" horiz-adv-x="400" 
d="M38 500v200h325v-178l-151 -522h-102l153 527v75h-127v-102h-98zM68 670v-140h38v102h187v-106l-144 -496h42l142 495v145h-265z" />
    <glyph glyph-name="eight" unicode="8" horiz-adv-x="400" 
d="M125 700h162l70 -70v-210l-58 -60l68 -68v-222l-70 -70h-180l-70 70v222l68 68l-60 60v210zM274 670h-137l-52 -52v-196l62 -62l-70 -70v-208l51 -52h157l52 52v208l-70 70l60 62v196zM117 68v208l30 30v-208h120v208l30 -30v-208h-180zM155 404l-30 30v198h162v-198
l-30 -30v198h-102v-198zM147 306l30 30h60l30 -30h-120zM227 374h-42l-30 30h102z" />
    <glyph glyph-name="nine" unicode="9" horiz-adv-x="400" 
d="M290 700l70 -70v-560l-70 -70h-180l-70 70v132h108v-104h112v198h-150l-70 70v264l70 70h180zM260 394v208h-120v-208h120zM330 616l-53 54h-155l-52 -52v-240l51 -52h169v-258h-172v104h-48v-90l51 -52h157l52 52v534zM290 632v-268h-180v268h180z" />
    <glyph glyph-name="colon" unicode=":" horiz-adv-x="230" 
d="M66 0v98h98v-98h-98zM96 68v-38h38v38h-38zM66 342v98h98v-98h-98zM96 410v-38h38v38h-38z" />
    <glyph glyph-name="semicolon" unicode=";" horiz-adv-x="230" 
d="M134 17v51h-38v-75l-29 -65h27zM164 98v-88l-49 -112h-94l45 104v96h98zM66 342v98h98v-98h-98zM96 410v-38h38v38h-38z" />
    <glyph glyph-name="less" unicode="&#x3c;" horiz-adv-x="403" 
d="M363 278v-106l-323 156v44l323 156v-106l-150 -72zM333 220v39l-189 91l189 91v39l-263 -127v-7z" />
    <glyph glyph-name="equal" unicode="=" horiz-adv-x="403" 
d="M40 378v98h323v-98h-323zM40 224v98h323v-98h-323zM333 254v38h-263v-38h263zM333 408v38h-263v-38h263z" />
    <glyph glyph-name="greater" unicode="&#x3e;" horiz-adv-x="403" 
d="M40 422v106l323 -156v-44l-323 -156v106l150 72zM70 480v-39l189 -91l-189 -91v-39l263 127v7z" />
    <glyph glyph-name="question" unicode="?" horiz-adv-x="400" 
d="M40 500v130l70 70h180l70 -70v-213l-117 -98l-6 -119h-73l-8 170l104 87v145h-122v-102h-98zM152 0v98h98v-98h-98zM182 68v-38h38v38h-38zM70 618v-88h38v102h182v-189l-104 -86l7 -127h15l6 104l116 97v187l-52 52h-156z" />
    <glyph glyph-name="at" unicode="@" horiz-adv-x="649" 
d="M613 98v-98h-532l-45 45v610l45 45h487l45 -45v-472l-45 -45h-342l-51 51v158l51 52h131v65h-74v-39h-98v88l48 49h176l48 -49v-277h56v366h-377v-504h477zM275 301v-65h82v65h-82zM583 30v38h-477v564h437v-426h-116v295l-30 31h-152l-30 -31v-46h38v39h134v-125h-149
l-33 -34v-134l33 -33h318l27 27v448l-27 27h-463l-27 -27v-586l27 -27h490zM245 206v125h142v-125h-142z" />
    <glyph glyph-name="A" unicode="A" horiz-adv-x="413" 
d="M229 0v98h36l-13 89h-94l-13 -89h36v-98h-171v98h37l87 602h144l87 -602h37v-98h-173zM151 68h-42l21 149h150l21 -149h-42v-38h113v38h-35l-86 602h-90l-86 -602h-35v-38h111v38zM205 519l-31 -228h63zM190 632h30l54 -371h-138z" />
    <glyph glyph-name="B" unicode="B" horiz-adv-x="401" 
d="M371 325v-268l-57 -57h-294v98h41v504h-41v98h286l55 -55v-260l-25 -25zM341 69v244l-49 46l38 38v236l-37 37h-243v-38h41v-564h-41v-38h252zM301 68h-170v268h135l35 -35v-233zM292 632v-223l-35 -35h-126v258h161zM161 306v-208h110v188l-20 20h-90zM161 602v-198h81
l20 20v178h-101z" />
    <glyph glyph-name="C" unicode="C" 
d="M286 0h-199l-57 57v588l57 55h199l55 -55v-147h-98v104h-113v-504h113v104h98v-145zM99 30h175l37 39v103h-38v-104h-173v564h173v-104h38v105l-37 37h-175l-39 -37v-564z" />
    <glyph glyph-name="D" unicode="D" horiz-adv-x="401" 
d="M342 69v564l-39 37h-252v-38h41v-564h-41v-38h252zM132 68v564h170v-564h-170zM372 645v-588l-57 -57h-294v98h41v504h-41v98h294zM162 602v-504h110v504h-110z" />
    <glyph glyph-name="E" unicode="E" horiz-adv-x="374" 
d="M355 0h-334v98h41v504h-41v98h334v-202h-98v104h-95v-198h127v-98h-127v-208h95v104h98v-202zM51 30h274v142h-38v-104h-155v268h127v38h-127v258h155v-104h38v142h-274v-38h41v-564h-41v-38z" />
    <glyph glyph-name="F" unicode="F" horiz-adv-x="374" 
d="M201 98v-98h-180v98h41v504h-41v98h334v-202h-98v104h-95v-208h130v-98h-130v-198h39zM171 30v38h-39v258h130v38h-130v268h155v-104h38v142h-274v-38h41v-564h-41v-38h120z" />
    <glyph glyph-name="G" unicode="G" 
d="M285 0h-198l-57 57v588l57 55h198l55 -55v-147h-100v104h-110v-504h110v179h-41v98h141v-318zM99 30h174l37 39v276h-81v-38h41v-239h-170v564h170v-104h40v105l-37 37h-174l-39 -37v-564z" />
    <glyph glyph-name="H" unicode="H" horiz-adv-x="431" 
d="M230 0v98h41v208h-109v-208h39v-98h-180v98h41v504h-41v98h180v-98h-39v-198h109v198h-41v98h180v-98h-39v-504h39v-98h-180zM301 68h-41v-38h120v38h-39v564h39v38h-120v-38h41v-258h-169v258h39v38h-120v-38h41v-564h-41v-38h120v38h-39v268h169v-268z" />
    <glyph glyph-name="I" unicode="I" horiz-adv-x="221" 
d="M162 602v-504h39v-98h-180v98h41v504h-41v98h180v-98h-39zM132 68v564h39v38h-120v-38h41v-564h-41v-38h120v38h-39z" />
    <glyph glyph-name="J" unicode="J" horiz-adv-x="336" 
d="M221 0h-155l-55 57v145h98v-104h67v504h-41v98h182v-98h-41v-545zM78 30h131l37 39v563h41v38h-122v-38h41v-564h-127v104h-38v-103z" />
    <glyph glyph-name="K" unicode="K" horiz-adv-x="431" 
d="M162 442l96 160h-14v98h160v-98h-35l-112 -184l115 -320h38v-98h-168v98h25l-75 210l-30 -51v-159h39v-98h-180v98h41v504h-41v98h180v-98h-39v-160zM132 262l69 119l112 -313h-41v-38h108v38h-30l-125 352l125 212h24v38h-100v-38h40l-182 -306v306h39v38h-120v-38h41
v-564h-41v-38h120v38h-39v194z" />
    <glyph glyph-name="L" unicode="L" horiz-adv-x="349" 
d="M162 602v-504h71v104h98v-202h-310v98h41v504h-41v98h180v-98h-39zM132 68v564h39v38h-120v-38h41v-564h-41v-38h250v142h-38v-104h-131z" />
    <glyph glyph-name="M" unicode="M" horiz-adv-x="550" 
d="M37 68v-38h119v38h-40v564l128 -472h60l128 472v-564h-40v-38h121v38h-41v564h41v38h-110l-128 -474l-128 474h-110v-38h41v-564h-41zM7 0v98h41v504h-41v98h163l105 -387l105 387h163v-98h-41v-504h41v-98h-181v98h40v306l-75 -274h-106l-75 274v-306h40v-98h-179z" />
    <glyph glyph-name="N" unicode="N" horiz-adv-x="434" 
d="M414 700v-98h-41v-602h-114l-100 373v-275h40v-98h-179v98h41v504h-41v98h155l100 -374v276h-40v98h179zM384 632v38h-119v-38h40v-534l-153 572h-102v-38h41v-564h-41v-38h119v38h-40v534l153 -572h61v602h41z" />
    <glyph glyph-name="O" unicode="O" 
d="M340 645v-588l-55 -57h-198l-57 57v588l57 55h198zM240 98v504h-110v-504h110zM310 69v564l-37 37h-174l-39 -37v-564l39 -39h174zM270 632v-564h-170v564h170z" />
    <glyph glyph-name="P" unicode="P" horiz-adv-x="401" 
d="M162 257v-159h39v-98h-180v98h41v504h-41v98h294l57 -55v-334l-57 -54h-153zM162 602v-247h110v247h-110zM132 325v307h170v-307h-170zM132 68v219h171l39 36v310l-39 37h-252v-38h41v-564h-41v-38h120v38h-39z" />
    <glyph glyph-name="Q" unicode="Q" 
d="M340 645v-575l89 -90l-66 -71l-91 91h-185l-57 57v588l57 55h198zM240 98v504h-110v-504h110zM310 58v575l-37 37h-174l-39 -37v-564l39 -39h185l78 -78l26 27zM270 632v-564h-170v564h170z" />
    <glyph glyph-name="R" unicode="R" horiz-adv-x="403" 
d="M162 602v-247h110v247h-110zM132 325v307h170v-307h-170zM372 311l-57 -54l37 -159h30v-98h-112l-60 257h-48v-159h39v-98h-180v98h41v504h-41v98h294l57 -55v-334zM325 68l-51 219h29l39 36v310l-39 37h-252v-38h41v-564h-41v-38h120v38h-39v219h104l60 -257h56v38h-27z
" />
    <glyph glyph-name="S" unicode="S" horiz-adv-x="375" 
d="M246 98v208h-153l-55 57v282l55 55h189l57 -57v-145h-98v104h-103v-198h153l55 -55v-292l-55 -57h-205l-57 57v145h98v-104h119zM276 336v-268h-179v104h-38v-103l39 -39h181l37 39v268l-37 37h-171v258h163v-104h38v103l-39 39h-165l-37 -37v-258l37 -39h171z" />
    <glyph glyph-name="T" unicode="T" horiz-adv-x="422" 
d="M15 498v202h392v-202h-98v104h-48v-504h39v-98h-178v98h39v504h-48v-104h-98zM45 670v-142h38v104h108v-564h-39v-38h118v38h-39v564h108v-104h38v142h-332z" />
    <glyph glyph-name="U" unicode="U" horiz-adv-x="431" 
d="M230 602v98h182v-98h-42v-545l-54 -57h-199l-55 57v545h-41v98h179v-98h-42v-504h113v504h-41zM260 670v-38h41v-564h-173v564h42v38h-119v-38h41v-563l37 -39h175l36 39v563h42v38h-122z" />
    <glyph glyph-name="V" unicode="V" horiz-adv-x="413" 
d="M147 602l60 -421l60 421h-36v98h171v-98h-37l-87 -602h-144l-87 602h-37v98h173v-98h-36zM192 68l-81 564h42v38h-113v-38h35l86 -602h90l86 602h35v38h-111v-38h42l-81 -564h-30z" />
    <glyph glyph-name="W" unicode="W" horiz-adv-x="567" 
d="M41 670v-38h34l58 -602h73l78 542l78 -542h71l58 602h34v38h-107v-38h35l-54 -562l-78 540h-74l-78 -540l-54 562h35v38h-109zM11 602v98h169v-98h-31l26 -282l46 320h126l46 -316l27 278h-32v98h167v-98h-36l-59 -602h-124l-52 363l-52 -363h-126l-59 602h-36z" />
    <glyph glyph-name="X" unicode="X" horiz-adv-x="412" 
d="M139 68h-42l96 253l100 -253h-42v-38h110v38h-22l-113 293l103 271h22v38h-100v-38h42l-85 -224l-85 224h42v38h-110v-38h22l98 -264l-114 -300h-22v-38h100v38zM221 98h17l-45 109l-41 -109h17v-98h-160v98h24l105 272l-89 232h-24v98h170v-98h-17l30 -78l30 78h-17v98
h160v-98h-24l-93 -241l103 -263h24v-98h-170v98z" />
    <glyph glyph-name="Y" unicode="Y" horiz-adv-x="391" 
d="M287 98v-98h-182v98h41v149l-110 355h-26v98h162v-98h-31l57 -186l58 186h-31v98h157v-98h-26l-110 -355v-149h41zM40 632h19l117 -379v-185h-41v-38h122v38h-41v185l117 379h19v38h-97v-38h42l-99 -317l-98 317h42v38h-102v-38z" />
    <glyph glyph-name="Z" unicode="Z" horiz-adv-x="357" 
d="M51 30h256v142h-38v-104h-178l207 562v40h-240v-142h38v104h162l-207 -562v-40zM337 0h-316v75l194 527h-89v-104h-98v202h300v-75l-194 -527h105v104h98v-202z" />
    <glyph glyph-name="bracketleft" unicode="[" horiz-adv-x="250" 
d="M215 -2v-98h-170v900h170v-98h-70v-704h70zM75 -70h110v38h-70v764h70v38h-110v-840z" />
    <glyph glyph-name="backslash" unicode="\" horiz-adv-x="330" 
d="M95 800l235 -900h-95l-235 900h95zM291 -70l-219 840h-33l219 -840h33z" />
    <glyph glyph-name="bracketright" unicode="]" horiz-adv-x="250" 
d="M35 -100v98h70v704h-70v98h170v-900h-170zM65 -70h110v840h-110v-38h70v-764h-70v-38z" />
    <glyph glyph-name="asciicircum" unicode="^" horiz-adv-x="403" 
d="M102 410h-97l166 290h61l166 -290h-97l-100 174zM57 440h28l116 205l118 -205h27l-131 230h-27z" />
    <glyph glyph-name="underscore" unicode="_" horiz-adv-x="200" 
d="M0 -160v98h200v-98h-200zM170 -130v38h-140v-38h140z" />
    <glyph glyph-name="grave" unicode="`" 
d="M70 700h116l58 -135h-116zM165 670h-49l33 -75h49z" />
    <glyph glyph-name="a" unicode="a" horiz-adv-x="360" 
d="M310 445v-347h30v-98h-265l-55 55v195l55 55h135v97h-82v-52h-98v95l55 55h170zM120 207v-109h90v109h-90zM280 68v365l-37 37h-147l-36 -36v-54h38v52h142v-157h-153l-37 -37v-171l37 -37h223v38h-30zM90 68v169h150v-169h-150z" />
    <glyph glyph-name="b" unicode="b" horiz-adv-x="365" 
d="M340 445v-390l-55 -55h-265v98h30v504h-30v98h130v-200h135zM50 68v-38h224l36 36v368l-36 36h-154v200h-70v-38h30v-564h-30zM120 432h150v-364h-150v364zM150 402v-304h90v304h-90z" />
    <glyph glyph-name="c" unicode="c" horiz-adv-x="330" 
d="M250 0h-170l-55 55v390l55 55h170l55 -55v-145h-98v102h-82v-304h82v102h98v-145zM275 330v104l-36 36h-148l-36 -36v-368l36 -36h148l36 36v104h-38v-102h-142v364h142v-102h38z" />
    <glyph glyph-name="d" unicode="d" horiz-adv-x="365" 
d="M25 55v390l55 55h135v102h-30v98h130v-602h30v-98h-265zM315 30v38h-30v602h-70v-38h30v-162h-154l-36 -36v-368l36 -36h224zM95 432h150v-364h-150v364zM215 98v304h-90v-304h90z" />
    <glyph glyph-name="e" unicode="e" horiz-adv-x="340" 
d="M25 55v390l55 55h180l55 -55v-244h-190v-103h92v52h98v-95l-55 -55h-180zM125 402v-103h90v103h-90zM55 433v-366l37 -37h157l36 36v54h-38v-52h-152v163h190v202l-37 37h-156zM95 269v163h150v-163h-150z" />
    <glyph glyph-name="f" unicode="f" horiz-adv-x="340" 
d="M20 402v98h50v145l55 55h140l55 -55v-95h-98v52h-52v-102h120v-98h-120v-304h31v-98h-161v98h30v304h-50zM50 470v-38h50v-364h-30v-38h101v38h-31v364h120v38h-120v162h112v-52h38v53l-37 37h-116l-37 -37v-163h-50z" />
    <glyph glyph-name="g" unicode="g" horiz-adv-x="335" 
d="M25 55v390l55 55h235v-645l-55 -55h-180l-55 55v95h98v-52h92v102h-135zM125 402v-304h90v304h-90zM55 433v-366l37 -37h153v-162h-152v52h-38v-53l37 -37h156l37 37v603h-193zM95 68v364h150v-364h-150z" />
    <glyph glyph-name="h" unicode="h" horiz-adv-x="390" 
d="M240 0v402h-90v-304h30v-98h-160v98h30v504h-30v98h130v-200h135l55 -55v-347h30v-98h-130zM50 670v-38h30v-564h-30v-38h100v38h-30v364h150v-402h70v38h-30v366l-36 36h-154v200h-70z" />
    <glyph glyph-name="i" unicode="i" horiz-adv-x="200" 
d="M20 402v98h130v-402h30v-98h-160v98h30v304h-30zM50 470v-38h30v-364h-30v-38h100v38h-30v402h-70zM45 590v110h110v-110h-110zM75 670v-50h50v50h-50z" />
    <glyph glyph-name="j" unicode="j" horiz-adv-x="190" 
d="M20 402v98h130v-644l-55 -56h-129l-56 56v94h98v-52h42v504h-30zM45 590v110h110v-110h-110zM50 470v-38h30v-564h-102v52h-38v-52l38 -38h105l37 38v602h-70zM75 670v-50h50v50h-50z" />
    <glyph glyph-name="k" unicode="k" horiz-adv-x="390" 
d="M190 402v98h170v-98h-37l-72 -100l88 -204h31v-98h-160v98h20l-47 110l-33 -46v-64h30v-98h-160v98h30v504h-30v98h130v-381l59 83h-19zM220 470v-38h47l-147 -208v446h-70v-38h30v-564h-30v-38h100v38h-30v104l71 97l84 -201h-35v-38h100v38h-21l-103 237l92 127h22v38
h-110z" />
    <glyph glyph-name="l" unicode="l" horiz-adv-x="200" 
d="M20 602v98h130v-602h30v-98h-160v98h30v504h-30zM50 670v-38h30v-564h-30v-38h100v38h-30v602h-70z" />
    <glyph glyph-name="m" unicode="m" horiz-adv-x="540" 
d="M390 402h-70v-304h30v-98h-131v402h-69v-304h30v-98h-160v98h30v304h-30v98h415l55 -55v-347h30v-98h-130v402zM424 470h-374v-38h30v-364h-30v-38h100v38h-30v364h129v-402h71v38h-31v364h131v-402h70v38h-30v366z" />
    <glyph glyph-name="n" unicode="n" horiz-adv-x="390" 
d="M240 0v402h-90v-304h30v-98h-160v98h30v304h-30v98h265l55 -55v-347h30v-98h-130zM50 470v-38h30v-364h-30v-38h100v38h-30v364h150v-402h70v38h-30v366l-36 36h-224z" />
    <glyph glyph-name="o" unicode="o" horiz-adv-x="340" 
d="M260 0h-180l-55 55v390l55 55h180l55 -55v-390zM125 402v-304h90v304h-90zM249 30l36 36v368l-36 36h-158l-36 -36v-368l36 -36h158zM245 432v-364h-150v364h150z" />
    <glyph glyph-name="p" unicode="p" horiz-adv-x="365" 
d="M340 445v-390l-55 -55h-135v-102h30v-98h-160v98h30v504h-30v98h265zM50 470v-38h31v-564h-31v-38h100v38h-30v162h154l36 36v368l-36 36h-224zM270 68h-150v364h150v-364zM150 402v-304h90v304h-90z" />
    <glyph glyph-name="q" unicode="q" horiz-adv-x="365" 
d="M25 55v390l55 55h235v-602h30v-98h-160v98h30v102h-135zM285 470h-194l-36 -36v-368l36 -36h154v-162h-30v-38h100v38h-30v602zM245 68h-150v364h150v-364zM215 98v304h-90v-304h90z" />
    <glyph glyph-name="r" unicode="r" horiz-adv-x="330" 
d="M220 350v52h-70v-304h30v-98h-160v98h30v304h-30v98h235l55 -55v-95h-90zM250 432v-52h30v53l-37 37h-193v-38h30v-364h-30v-38h100v38h-30v364h130z" />
    <glyph glyph-name="s" unicode="s" horiz-adv-x="330" 
d="M310 244v-189l-55 -55h-180l-55 55v95h98v-52h92v103h-125l-55 55v189l55 55h160l55 -55v-95h-98v52h-72v-103h125zM280 67v165l-37 37h-143v163h132v-52h38v54l-36 36h-137l-37 -37v-165l37 -37h143v-163h-152v52h-38v-54l36 -36h157z" />
    <glyph glyph-name="t" unicode="t" horiz-adv-x="320" 
d="M20 402v98h50v100h100v-100h130v-98h-130v-304h40v52h90v-95l-55 -55h-120l-55 55v347h-50zM50 470v-38h50v-365l37 -37h96l37 37v53h-30v-52h-100v364h130v38h-130v100h-40v-100h-50z" />
    <glyph glyph-name="u" unicode="u" horiz-adv-x="390" 
d="M150 500v-402h90v304h-30v98h130v-402h30v-98h-265l-55 55v347h-30v98h130zM340 30v38h-30v402h-70v-38h30v-364h-150v402h-70v-38h30v-366l36 -36h224z" />
    <glyph glyph-name="v" unicode="v" horiz-adv-x="360" 
d="M170 500v-98h-33l45 -268l45 268h-33v98h156v-98h-30l-72 -402h-136l-72 402h-30v98h160zM140 432v38h-100v-38h26l71 -402h86l71 402h26v38h-96v-38h39l-64 -364h-34l-64 364h39z" />
    <glyph glyph-name="w" unicode="w" horiz-adv-x="490" 
d="M357 470v-38h30l-28 -364h-12l-76 402h-50l-76 -402h-12l-28 364h30v38h-95v-38h28l31 -402h69l76 402h2l76 -402h74l25 402h29v38h-93zM327 402v98h153v-98h-30l-26 -402h-126l-54 274l-51 -274h-122l-31 402h-30v98h155v-98h-28l12 -152l47 250h100l47 -251l12 153h-28
z" />
    <glyph glyph-name="x" unicode="x" horiz-adv-x="350" 
d="M10 98h25l80 165l-74 139h-26v98h150v-98h-14l32 -60l29 60h-17v98h140v-98h-25l-75 -157l79 -147h26v-98h-150v98h14l-37 69l-34 -69h17v-98h-140v98zM85 68l79 165l88 -165h-32v-38h90v38h-13l-95 178l89 186h14v38h-80v-38h35l-75 -155l-82 155h32v38h-90v-38h13
l90 -169l-94 -195h-14v-38h80v38h-35z" />
    <glyph glyph-name="y" unicode="y" horiz-adv-x="360" 
d="M10 402v98h160v-98h-24l36 -140l35 140h-23v98h156v-98h-28l-126 -504h24v-98h-156v98h27l38 150l-92 354h-27zM40 470v-38h20l100 -382l-46 -182h-20v-38h96v38h-32l141 564h21v38h-96v-38h31l-72 -287l-75 287h32v38h-100z" />
    <glyph glyph-name="z" unicode="z" horiz-adv-x="310" 
d="M20 350v150h270v-88l-165 -314h77v52h98v-150h-290v88l163 314h-55v-52h-98zM50 470v-90h38v52h135l-183 -352v-50h230v90h-38v-52h-157l185 352v50h-210z" />
    <glyph glyph-name="braceleft" unicode="{" horiz-adv-x="250" 
d="M68 -45v346h-46v98h46v346l56 55h91v-98h-47v-331l-22 -21l22 -21v-331h47v-98h-91zM98 331v-364l38 -37h49v38h-47v354l-29 28l29 28v354h47v38h-49l-38 -37v-364h-46v-38h46z" />
    <glyph glyph-name="bar" unicode="|" horiz-adv-x="250" 
d="M75 -100v900h100v-900h-100zM105 770v-840h40v840h-40z" />
    <glyph glyph-name="braceright" unicode="}" horiz-adv-x="250" 
d="M182 745v-346h46v-98h-46v-346l-56 -55h-91v98h47v331l22 21l-22 21v331h-47v98h91zM152 369v364l-38 37h-49v-38h47v-354l29 -28l-29 -28v-354h-47v-38h49l38 37v364h46v38h-46z" />
    <glyph glyph-name="asciitilde" unicode="~" horiz-adv-x="380" 
d="M301 285l-164 27v-24h-98v88l40 40l164 -27v24h98v-88zM107 348l185 -30l19 19v46h-38v-30l-185 30l-19 -19v-46h38v30z" />
    <glyph glyph-name="nbspace" unicode="&#xa0;" horiz-adv-x="200" 
 />
    <glyph glyph-name="exclamdown" unicode="&#xa1;" horiz-adv-x="230" 
d="M151 500l28 -500h-128l28 500h72zM147 30l-25 440h-14l-26 -440h65zM164 700v-98h-98v98h98zM134 632v38h-38v-38h38z" />
    <glyph glyph-name="cent" unicode="&#xa2;" horiz-adv-x="403" 
d="M310 100h-60v-100h-98v100h-59l-55 55v390l55 55h59v100h98v-100h60l55 -55v-104h-98v61h-129v-304h129v61h98v-104zM220 130h78l37 37v62h-38v-61h-189v364h189v-61h38v62l-37 37h-78v100h-38v-100h-77l-37 -37v-366l37 -37h77v-100h38v100z" />
    <glyph glyph-name="sterling" unicode="&#xa3;" horiz-adv-x="403" 
d="M367 98v-98h-329v98h50v206h-50v89h50v252l55 55h162l55 -55v-104h-98v61h-74v-209h106v-89h-106v-206h179zM337 30v38h-179v266h106v29h-106v269h134v-61h38v62l-37 37h-138l-37 -37v-270h-50v-29h50v-266h-50v-38h269z" />
    <glyph glyph-name="yen" unicode="&#xa5;" horiz-adv-x="403" 
d="M47 240v89h78l-109 371h95l93 -315l92 315h91l-110 -371h80v-89h-108v-44h108v-89h-108v-107h-96v107h-106v89h106v44h-106zM77 166v-29h106v-107h36v107h108v29h-108v72l9 32h99v29h-90l110 371h-28l-116 -391l-115 391h-32l109 -371h-88v-29h96l10 -32v-72h-106z" />
    <glyph glyph-name="section" unicode="&#xa7;" horiz-adv-x="353" 
d="M248 410h-114v-119h114v119zM348 458v-205l-33 -33v-165l-55 -55h-167l-55 55v95h98v-52h79v95h-131l-50 50v204l33 33v165l55 55h162l55 -55v-95h-98v52h-74v-94h131zM104 440h174v-179h-174v179zM318 265v181l-32 32h-149v154h134v-52h38v53l-37 37h-138l-37 -37v-165
l-33 -33v-180l32 -32h149v-155h-139v52h-38v-53l37 -37h143l37 37v165z" />
    <glyph glyph-name="dieresis" unicode="&#xa8;" 
d="M51 573v110h110v-110h-110zM81 653v-50h50v50h-50zM210 573v110h110v-110h-110zM240 653v-50h50v50h-50z" />
    <glyph glyph-name="copyright" unicode="&#xa9;" horiz-adv-x="579" 
d="M500 0h-421l-40 40v620l40 40h421l40 -40v-620zM470 68h-361v564h361v-564zM91 30h397l22 22v596l-22 22h-397l-22 -22v-595zM139 98h301v504h-301v-504zM355 125h-132l-55 55v340l55 55h132l55 -55v-113h-98v70h-44v-254h44v70h98v-113zM380 437v72l-36 36h-110l-36 -36
v-318l36 -36h110l36 36v72h-38v-70h-104v314h104v-70h38z" />
    <glyph glyph-name="ordfeminine" unicode="&#xaa;" horiz-adv-x="360" 
d="M310 645v-347h30v-98h-265l-55 55v195l55 55h135v97h-82v-52h-98v95l55 55h170zM120 407v-109h90v109h-90zM280 268v365l-37 37h-147l-36 -36v-54h38v52h142v-157h-153l-37 -37v-171l37 -37h223v38h-30zM90 268v169h150v-169h-150zM20 0v98h320v-98h-320zM310 30v38h-260
v-38h260z" />
    <glyph glyph-name="uni00AD" unicode="&#xad;" horiz-adv-x="260" 
d="M40 252v98h180v-98h-180zM190 282v38h-120v-38h120z" />
    <glyph glyph-name="registered" unicode="&#xae;" horiz-adv-x="318" 
d="M264 350h-215l-15 15v315l20 20h210l20 -20v-310zM64 382h185v285h-185v-285zM138 597v-67h40v67h-40zM227 412h-41l-22 78h-26v-78h-41v225h101l22 -21v-102l-17 -17z" />
    <glyph glyph-name="macron" unicode="&#xaf;" 
d="M88 587v90h194v-90h-194zM252 617v30h-134v-30h134z" />
    <glyph glyph-name="degree" unicode="&#xb0;" horiz-adv-x="331" 
d="M320 651v-184l-49 -50h-185l-49 50v184l49 49h185zM135 602v-87h87v87h-87zM290 479v160l-31 31h-161l-31 -31v-160l31 -32h161zM105 485v147h147v-147h-147z" />
    <glyph glyph-name="plusminus" unicode="&#xb1;" horiz-adv-x="403" 
d="M40 367v98h112v112h98v-112h113v-98h-113v-113h-98v113h-112zM40 126v98h323v-98h-323zM220 547h-38v-112h-112v-38h112v-113h38v113h113v38h-113v112zM333 156v38h-263v-38h263z" />
    <glyph glyph-name="acute" unicode="&#xb4;" 
d="M184 700h116l-58 -135h-116zM254 670h-49l-33 -75h49z" />
    <glyph glyph-name="paragraph" unicode="&#xb6;" horiz-adv-x="376" 
d="M190 572h31v-572h-31v296h-103l-55 55v294l55 55h262v-700h-98v602h-121v-208h60v178zM190 364h-90v268h181v-602h38v640h-220l-37 -37v-270l37 -37h91v38z" />
    <glyph glyph-name="periodcentered" unicode="&#xb7;" horiz-adv-x="230" 
d="M66 252v98h98v-98h-98zM96 320v-38h38v38h-38z" />
    <glyph glyph-name="cedilla" unicode="&#xb8;" 
d="M250 -20l30 -30v-120l-30 -30h-133v90h56l-15 15v75h92zM238 -50h-50v-35h32v-55h-73v-30h91l12 12v96z" />
    <glyph glyph-name="ordmasculine" unicode="&#xba;" horiz-adv-x="340" 
d="M260 200h-180l-55 55v390l55 55h180l55 -55v-390zM125 602v-304h90v304h-90zM249 230l36 36v368l-36 36h-158l-36 -36v-368l36 -36h158zM245 632v-364h-150v364h150zM25 0v98h290v-98h-290zM285 30v38h-230v-38h230z" />
    <glyph glyph-name="questiondown" unicode="&#xbf;" horiz-adv-x="400" 
d="M360 200v-130l-70 -70h-180l-70 70v213l117 98l6 119h73l8 -170l-104 -87v-145h122v102h98zM248 700v-98h-98v98h98zM218 632v38h-38v-38h38zM330 82v88h-38v-102h-182v189l104 86l-7 127h-15l-6 -104l-116 -97v-187l52 -52h156z" />
    <glyph glyph-name="Agrave" unicode="&#xc0;" horiz-adv-x="413" 
d="M229 0v98h36l-13 89h-94l-13 -89h36v-98h-171v98h37l87 602h144l87 -602h37v-98h-173zM151 68h-42l21 149h150l21 -149h-42v-38h113v38h-35l-86 602h-90l-86 -602h-35v-38h111v38zM205 519l-31 -228h63zM190 632h30l54 -371h-138zM91 900h116l58 -135h-116zM186 870h-49
l33 -75h49z" />
    <glyph glyph-name="Aacute" unicode="&#xc1;" horiz-adv-x="413" 
d="M229 0v98h36l-13 89h-94l-13 -89h36v-98h-171v98h37l87 602h144l87 -602h37v-98h-173zM151 68h-42l21 149h150l21 -149h-42v-38h113v38h-35l-86 602h-90l-86 -602h-35v-38h111v38zM205 519l-31 -228h63zM190 632h30l54 -371h-138zM205 900h116l-58 -135h-116zM275 870
h-49l-33 -75h49z" />
    <glyph glyph-name="Acircumflex" unicode="&#xc2;" horiz-adv-x="413" 
d="M229 0v98h36l-13 89h-94l-13 -89h36v-98h-171v98h37l87 602h144l87 -602h37v-98h-173zM151 68h-42l21 149h150l21 -149h-42v-38h113v38h-35l-86 602h-90l-86 -602h-35v-38h111v38zM205 519l-31 -228h63zM190 632h30l54 -371h-138zM234 900l128 -135h-134l-22 24l-22 -24
h-134l128 135h56zM291 795l-70 75h-30l-72 -75h53l34 36l34 -36h51z" />
    <glyph glyph-name="Atilde" unicode="&#xc3;" horiz-adv-x="413" 
d="M229 0v98h36l-13 89h-94l-13 -89h36v-98h-171v98h37l87 602h144l87 -602h37v-98h-173zM151 68h-42l21 149h150l21 -149h-42v-38h113v38h-35l-86 602h-90l-86 -602h-35v-38h111v38zM205 519l-31 -228h63zM190 632h30l54 -371h-138zM300 775l-137 18v-28h-90v85l40 40
l137 -18v28h90v-85zM133 827l157 -20l20 20v43h-30v-33l-157 21l-20 -20v-43h30v32z" />
    <glyph glyph-name="Adieresis" unicode="&#xc4;" horiz-adv-x="413" 
d="M229 0v98h36l-13 89h-94l-13 -89h36v-98h-171v98h37l87 602h144l87 -602h37v-98h-173zM151 68h-42l21 149h150l21 -149h-42v-38h113v38h-35l-86 602h-90l-86 -602h-35v-38h111v38zM205 519l-31 -228h63zM190 632h30l54 -371h-138zM72 773v110h110v-110h-110zM102 853v-50
h50v50h-50zM231 773v110h110v-110h-110zM261 853v-50h50v50h-50z" />
    <glyph glyph-name="Aring" unicode="&#xc5;" horiz-adv-x="413" 
d="M229 0v98h36l-13 89h-94l-13 -89h36v-98h-171v98h37l87 602h144l87 -602h37v-98h-173zM151 68h-42l21 149h150l21 -149h-42v-38h113v38h-35l-86 602h-90l-86 -602h-35v-38h111v38zM205 519l-31 -228h63zM190 632h30l54 -371h-138zM177 856v-57h59v57h-59zM131 786v84
l30 30h90l30 -30v-84l-30 -30h-90z" />
    <glyph glyph-name="AE" unicode="&#xc6;" horiz-adv-x="542" 
d="M522 0h-293v98h36l-13 89h-94l-13 -89h36v-98h-171v98h37l87 602h388v-202h-98v104h-132l28 -198h136v-98h-121l30 -208h59v104h98v-202zM492 30v142h-38v-104h-117l-39 268h128v38h-133l-37 258h198v-104h38v142h-331l-86 -602h-35v-38h111v38h-42l21 149h150l21 -149
h-42v-38h233zM190 632h30l54 -371h-138zM205 519l-31 -228h63z" />
    <glyph glyph-name="Ccedilla" unicode="&#xc7;" 
d="M286 0h-199l-57 57v588l57 55h199l55 -55v-147h-98v104h-113v-504h113v104h98v-145zM99 30h175l37 39v103h-38v-104h-173v564h173v-104h38v105l-37 37h-175l-39 -37v-564zM240 -20l30 -30v-120l-30 -30h-133v90h56l-15 15v75h92zM228 -50h-50v-35h32v-55h-73v-30h91
l12 12v96z" />
    <glyph glyph-name="Egrave" unicode="&#xc8;" horiz-adv-x="374" 
d="M355 0h-334v98h41v504h-41v98h334v-202h-98v104h-95v-198h127v-98h-127v-208h95v104h98v-202zM51 30h274v142h-38v-104h-155v268h127v38h-127v258h155v-104h38v142h-274v-38h41v-564h-41v-38zM83 900h116l58 -135h-116zM178 870h-49l33 -75h49z" />
    <glyph glyph-name="Eacute" unicode="&#xc9;" horiz-adv-x="374" 
d="M355 0h-334v98h41v504h-41v98h334v-202h-98v104h-95v-198h127v-98h-127v-208h95v104h98v-202zM51 30h274v142h-38v-104h-155v268h127v38h-127v258h155v-104h38v142h-274v-38h41v-564h-41v-38zM192 900h116l-58 -135h-116zM262 870h-49l-33 -75h49z" />
    <glyph glyph-name="Ecircumflex" unicode="&#xca;" horiz-adv-x="374" 
d="M355 0h-334v98h41v504h-41v98h334v-202h-98v104h-95v-198h127v-98h-127v-208h95v104h98v-202zM51 30h274v142h-38v-104h-155v268h127v38h-127v258h155v-104h38v142h-274v-38h41v-564h-41v-38zM216 900l128 -135h-134l-22 24l-22 -24h-134l128 135h56zM273 795l-70 75h-30
l-72 -75h53l34 36l34 -36h51z" />
    <glyph glyph-name="Edieresis" unicode="&#xcb;" horiz-adv-x="374" 
d="M355 0h-334v98h41v504h-41v98h334v-202h-98v104h-95v-198h127v-98h-127v-208h95v104h98v-202zM51 30h274v142h-38v-104h-155v268h127v38h-127v258h155v-104h38v142h-274v-38h41v-564h-41v-38zM54 773v110h110v-110h-110zM84 853v-50h50v50h-50zM213 773v110h110v-110
h-110zM243 853v-50h50v50h-50z" />
    <glyph glyph-name="Igrave" unicode="&#xcc;" horiz-adv-x="221" 
d="M162 602v-504h39v-98h-180v98h41v504h-41v98h180v-98h-39zM132 68v564h39v38h-120v-38h41v-564h-41v-38h120v38h-39zM-4 900h116l58 -135h-116zM91 870h-49l33 -75h49z" />
    <glyph glyph-name="Iacute" unicode="&#xcd;" horiz-adv-x="221" 
d="M162 602v-504h39v-98h-180v98h41v504h-41v98h180v-98h-39zM132 68v564h39v38h-120v-38h41v-564h-41v-38h120v38h-39zM110 900h116l-58 -135h-116zM180 870h-49l-33 -75h49z" />
    <glyph glyph-name="Icircumflex" unicode="&#xce;" horiz-adv-x="221" 
d="M162 602v-504h39v-98h-180v98h41v504h-41v98h180v-98h-39zM132 68v564h39v38h-120v-38h41v-564h-41v-38h120v38h-39zM139 900l128 -135h-134l-22 24l-22 -24h-134l128 135h56zM196 795l-70 75h-30l-72 -75h53l34 36l34 -36h51z" />
    <glyph glyph-name="Idieresis" unicode="&#xcf;" horiz-adv-x="221" 
d="M162 602v-504h39v-98h-180v98h41v504h-41v98h180v-98h-39zM132 68v564h39v38h-120v-38h41v-564h-41v-38h120v38h-39zM-23 773v110h110v-110h-110zM7 853v-50h50v50h-50zM136 773v110h110v-110h-110zM166 853v-50h50v50h-50z" />
    <glyph glyph-name="Eth" unicode="&#xd0;" horiz-adv-x="401" 
d="M21 304v94h41v204h-41v98h294l57 -55v-588l-57 -57h-294v98h41v206h-41zM162 602v-204h71v-94h-71v-206h110v504h-110zM342 69v564l-39 37h-252v-38h41v-264h-41v-34h41v-266h-41v-38h252zM203 334v34h-71v264h170v-564h-170v266h71z" />
    <glyph glyph-name="Ntilde" unicode="&#xd1;" horiz-adv-x="434" 
d="M414 700v-98h-41v-602h-114l-100 373v-275h40v-98h-179v98h41v504h-41v98h155l100 -374v276h-40v98h179zM384 632v38h-119v-38h40v-534l-153 572h-102v-38h41v-564h-41v-38h119v38h-40v534l153 -572h61v602h41zM311 775l-137 18v-28h-90v85l40 40l137 -18v28h90v-85z
M144 827l157 -20l20 20v43h-30v-33l-157 21l-20 -20v-43h30v32z" />
    <glyph glyph-name="Ograve" unicode="&#xd2;" 
d="M340 645v-588l-55 -57h-198l-57 57v588l57 55h198zM240 98v504h-110v-504h110zM310 69v564l-37 37h-174l-39 -37v-564l39 -39h174zM270 632v-564h-170v564h170zM70 900h116l58 -135h-116zM165 870h-49l33 -75h49z" />
    <glyph glyph-name="Oacute" unicode="&#xd3;" 
d="M340 645v-588l-55 -57h-198l-57 57v588l57 55h198zM240 98v504h-110v-504h110zM310 69v564l-37 37h-174l-39 -37v-564l39 -39h174zM270 632v-564h-170v564h170zM184 900h116l-58 -135h-116zM254 870h-49l-33 -75h49z" />
    <glyph glyph-name="Ocircumflex" unicode="&#xd4;" 
d="M340 645v-588l-55 -57h-198l-57 57v588l57 55h198zM240 98v504h-110v-504h110zM310 69v564l-37 37h-174l-39 -37v-564l39 -39h174zM270 632v-564h-170v564h170zM213 900l128 -135h-134l-22 24l-22 -24h-134l128 135h56zM270 795l-70 75h-30l-72 -75h53l34 36l34 -36h51z
" />
    <glyph glyph-name="Otilde" unicode="&#xd5;" 
d="M340 645v-588l-55 -57h-198l-57 57v588l57 55h198zM240 98v504h-110v-504h110zM310 69v564l-37 37h-174l-39 -37v-564l39 -39h174zM270 632v-564h-170v564h170zM279 775l-137 18v-28h-90v85l40 40l137 -18v28h90v-85zM112 827l157 -20l20 20v43h-30v-33l-157 21l-20 -20
v-43h30v32z" />
    <glyph glyph-name="Odieresis" unicode="&#xd6;" 
d="M340 645v-588l-55 -57h-198l-57 57v588l57 55h198zM240 98v504h-110v-504h110zM310 69v564l-37 37h-174l-39 -37v-564l39 -39h174zM270 632v-564h-170v564h170zM51 773v110h110v-110h-110zM81 853v-50h50v50h-50zM210 773v110h110v-110h-110zM240 853v-50h50v50h-50z" />
    <glyph glyph-name="multiply" unicode="&#xd7;" horiz-adv-x="403" 
d="M92 171l-70 69l109 109l-109 110l70 69l109 -109l110 110l69 -70l-110 -110l110 -109l-69 -70l-110 110zM92 486l-27 -27l109 -110l-109 -109l27 -27l109 110l110 -110l27 27l-110 109l110 110l-27 27l-110 -110z" />
    <glyph glyph-name="Oslash" unicode="&#xd8;" 
d="M310 69v564l-37 37h-174l-39 -37v-564l39 -39h174zM270 632v-564h-170v564h170zM340 645v-588l-55 -57h-181l-15 -50h-48l22 74l-33 33v588l57 55h179l15 50h48l-22 -73zM130 602v-355l106 355h-106zM240 98v355l-107 -355h107z" />
    <glyph glyph-name="Ugrave" unicode="&#xd9;" horiz-adv-x="431" 
d="M230 602v98h182v-98h-42v-545l-54 -57h-199l-55 57v545h-41v98h179v-98h-42v-504h113v504h-41zM260 670v-38h41v-564h-173v564h42v38h-119v-38h41v-563l37 -39h175l36 39v563h42v38h-122zM101 900h116l58 -135h-116zM196 870h-49l33 -75h49z" />
    <glyph glyph-name="Uacute" unicode="&#xda;" horiz-adv-x="431" 
d="M230 602v98h182v-98h-42v-545l-54 -57h-199l-55 57v545h-41v98h179v-98h-42v-504h113v504h-41zM260 670v-38h41v-564h-173v564h42v38h-119v-38h41v-563l37 -39h175l36 39v563h42v38h-122zM215 900h116l-58 -135h-116zM285 870h-49l-33 -75h49z" />
    <glyph glyph-name="Ucircumflex" unicode="&#xdb;" horiz-adv-x="431" 
d="M230 602v98h182v-98h-42v-545l-54 -57h-199l-55 57v545h-41v98h179v-98h-42v-504h113v504h-41zM260 670v-38h41v-564h-173v564h42v38h-119v-38h41v-563l37 -39h175l36 39v563h42v38h-122zM244 900l128 -135h-134l-22 24l-22 -24h-134l128 135h56zM301 795l-70 75h-30
l-72 -75h53l34 36l34 -36h51z" />
    <glyph glyph-name="Udieresis" unicode="&#xdc;" horiz-adv-x="431" 
d="M230 602v98h182v-98h-42v-545l-54 -57h-199l-55 57v545h-41v98h179v-98h-42v-504h113v504h-41zM260 670v-38h41v-564h-173v564h42v38h-119v-38h41v-563l37 -39h175l36 39v563h42v38h-122zM82 773v110h110v-110h-110zM112 853v-50h50v50h-50zM241 773v110h110v-110h-110z
M271 853v-50h50v50h-50z" />
    <glyph glyph-name="Yacute" unicode="&#xdd;" horiz-adv-x="391" 
d="M287 98v-98h-182v98h41v149l-110 355h-26v98h162v-98h-31l57 -186l58 186h-31v98h157v-98h-26l-110 -355v-149h41zM40 632h19l117 -379v-185h-41v-38h122v38h-41v185l117 379h19v38h-97v-38h42l-99 -317l-98 317h42v38h-102v-38zM195 900h116l-58 -135h-116zM265 870h-49
l-33 -75h49z" />
    <glyph glyph-name="Thorn" unicode="&#xde;" horiz-adv-x="401" 
d="M162 471v-247h110v247h-110zM132 194v307h170v-307h-170zM132 539v93h39v38h-120v-38h41v-564h-41v-38h120v38h-39v88h171l39 36v310l-39 37h-171zM162 602v-33h153l57 -55v-334l-57 -54h-153v-28h39v-98h-180v98h41v504h-41v98h180v-98h-39z" />
    <glyph glyph-name="germandbls" unicode="&#xdf;" horiz-adv-x="488" 
d="M324 500v102h-168v-504h33v-98h-168v98h34v555l46 47h275l46 -47v-204l-46 -47h-49v-103h86l50 -50v-194l-55 -55h-133l-55 55v95h98v-52h45v103h-86l-50 50v194l55 55h42zM354 632v-162h-60l-37 -37v-170l32 -32h104v-163h-105v52h-38v-53l37 -37h109l37 37v170l-32 32
h-104v163h67l28 29v180l-28 29h-251l-28 -29v-573h-34v-38h108v38h-33v564h228z" />
    <glyph glyph-name="agrave" unicode="&#xe0;" horiz-adv-x="360" 
d="M310 445v-347h30v-98h-265l-55 55v195l55 55h135v97h-82v-52h-98v95l55 55h170zM120 207v-109h90v109h-90zM280 68v365l-37 37h-147l-36 -36v-54h38v52h142v-157h-153l-37 -37v-171l37 -37h223v38h-30zM90 68v169h150v-169h-150zM55 700h116l58 -135h-116zM150 670h-49
l33 -75h49z" />
    <glyph glyph-name="aacute" unicode="&#xe1;" horiz-adv-x="360" 
d="M310 445v-347h30v-98h-265l-55 55v195l55 55h135v97h-82v-52h-98v95l55 55h170zM120 207v-109h90v109h-90zM280 68v365l-37 37h-147l-36 -36v-54h38v52h142v-157h-153l-37 -37v-171l37 -37h223v38h-30zM90 68v169h150v-169h-150zM169 700h116l-58 -135h-116zM239 670h-49
l-33 -75h49z" />
    <glyph glyph-name="acircumflex" unicode="&#xe2;" horiz-adv-x="360" 
d="M310 445v-347h30v-98h-265l-55 55v195l55 55h135v97h-82v-52h-98v95l55 55h170zM120 207v-109h90v109h-90zM280 68v365l-37 37h-147l-36 -36v-54h38v52h142v-157h-153l-37 -37v-171l37 -37h223v38h-30zM90 68v169h150v-169h-150zM198 700l128 -135h-134l-22 24l-22 -24
h-134l128 135h56zM255 595l-70 75h-30l-72 -75h53l34 36l34 -36h51z" />
    <glyph glyph-name="atilde" unicode="&#xe3;" horiz-adv-x="360" 
d="M310 445v-347h30v-98h-265l-55 55v195l55 55h135v97h-82v-52h-98v95l55 55h170zM120 207v-109h90v109h-90zM280 68v365l-37 37h-147l-36 -36v-54h38v52h142v-157h-153l-37 -37v-171l37 -37h223v38h-30zM90 68v169h150v-169h-150zM264 575l-137 18v-28h-90v85l40 40
l137 -18v28h90v-85zM97 627l157 -20l20 20v43h-30v-33l-157 21l-20 -20v-43h30v32z" />
    <glyph glyph-name="adieresis" unicode="&#xe4;" horiz-adv-x="360" 
d="M310 445v-347h30v-98h-265l-55 55v195l55 55h135v97h-82v-52h-98v95l55 55h170zM120 207v-109h90v109h-90zM280 68v365l-37 37h-147l-36 -36v-54h38v52h142v-157h-153l-37 -37v-171l37 -37h223v38h-30zM90 68v169h150v-169h-150zM36 573v110h110v-110h-110zM66 653v-50
h50v50h-50zM195 573v110h110v-110h-110zM225 653v-50h50v50h-50z" />
    <glyph glyph-name="aring" unicode="&#xe5;" horiz-adv-x="360" 
d="M310 445v-347h30v-98h-265l-55 55v195l55 55h135v97h-82v-52h-98v95l55 55h170zM120 207v-109h90v109h-90zM280 68v365l-37 37h-147l-36 -36v-54h38v52h142v-157h-153l-37 -37v-171l37 -37h223v38h-30zM90 68v169h150v-169h-150zM141 656v-57h59v57h-59zM95 586v84l30 30
h90l30 -30v-84l-30 -30h-90z" />
    <glyph glyph-name="ae" unicode="&#xe6;" horiz-adv-x="523" 
d="M118 201v-103h90v103h-90zM88 68v163h150v-163h-150zM308 402v-103h90v103h-90zM278 269v163h150v-163h-150zM83 500h155l20 -20l20 20h165l55 -55v-244h-190v-103h92v52h98v-95l-55 -55h-165l-20 20l-20 -20h-165l-55 55v189l55 55h135v103h-82v-52h-98v95zM278 68v163
h190v202l-37 37h-146l-27 -27l-27 27h-137l-36 -36v-54h38v52h142v-163h-153l-37 -37v-165l37 -37h146l27 27l27 -27h147l36 36v54h-38v-52h-152z" />
    <glyph glyph-name="ccedilla" unicode="&#xe7;" horiz-adv-x="330" 
d="M250 0h-170l-55 55v390l55 55h170l55 -55v-145h-98v102h-82v-304h82v102h98v-145zM275 330v104l-36 36h-148l-36 -36v-368l36 -36h148l36 36v104h-38v-102h-142v364h142v-102h38zM230 -20l30 -30v-120l-30 -30h-133v90h56l-15 15v75h92zM218 -50h-50v-35h32v-55h-73v-30
h91l12 12v96z" />
    <glyph glyph-name="egrave" unicode="&#xe8;" horiz-adv-x="340" 
d="M25 55v390l55 55h180l55 -55v-244h-190v-103h92v52h98v-95l-55 -55h-180zM125 402v-103h90v103h-90zM55 433v-366l37 -37h157l36 36v54h-38v-52h-152v163h190v202l-37 37h-156zM95 269v163h150v-163h-150zM55 700h116l58 -135h-116zM150 670h-49l33 -75h49z" />
    <glyph glyph-name="eacute" unicode="&#xe9;" horiz-adv-x="340" 
d="M25 55v390l55 55h180l55 -55v-244h-190v-103h92v52h98v-95l-55 -55h-180zM125 402v-103h90v103h-90zM55 433v-366l37 -37h157l36 36v54h-38v-52h-152v163h190v202l-37 37h-156zM95 269v163h150v-163h-150zM169 700h116l-58 -135h-116zM239 670h-49l-33 -75h49z" />
    <glyph glyph-name="ecircumflex" unicode="&#xea;" horiz-adv-x="340" 
d="M25 55v390l55 55h180l55 -55v-244h-190v-103h92v52h98v-95l-55 -55h-180zM125 402v-103h90v103h-90zM55 433v-366l37 -37h157l36 36v54h-38v-52h-152v163h190v202l-37 37h-156zM95 269v163h150v-163h-150zM198 700l128 -135h-134l-22 24l-22 -24h-134l128 135h56z
M255 595l-70 75h-30l-72 -75h53l34 36l34 -36h51z" />
    <glyph glyph-name="edieresis" unicode="&#xeb;" horiz-adv-x="340" 
d="M25 55v390l55 55h180l55 -55v-244h-190v-103h92v52h98v-95l-55 -55h-180zM125 402v-103h90v103h-90zM55 433v-366l37 -37h157l36 36v54h-38v-52h-152v163h190v202l-37 37h-156zM95 269v163h150v-163h-150zM36 573v110h110v-110h-110zM66 653v-50h50v50h-50zM195 573v110
h110v-110h-110zM225 653v-50h50v50h-50z" />
    <glyph glyph-name="igrave" unicode="&#xec;" horiz-adv-x="200" 
d="M20 402v98h130v-402h30v-98h-160v98h30v304h-30zM50 470v-38h30v-364h-30v-38h100v38h-30v402h-70zM-15 700h116l58 -135h-116zM80 670h-49l33 -75h49z" />
    <glyph glyph-name="iacute" unicode="&#xed;" horiz-adv-x="200" 
d="M20 402v98h130v-402h30v-98h-160v98h30v304h-30zM50 470v-38h30v-364h-30v-38h100v38h-30v402h-70zM99 700h116l-58 -135h-116zM169 670h-49l-33 -75h49z" />
    <glyph glyph-name="icircumflex" unicode="&#xee;" horiz-adv-x="200" 
d="M20 402v98h130v-402h30v-98h-160v98h30v304h-30zM50 470v-38h30v-364h-30v-38h100v38h-30v402h-70zM128 700l128 -135h-134l-22 24l-22 -24h-134l128 135h56zM185 595l-70 75h-30l-72 -75h53l34 36l34 -36h51z" />
    <glyph glyph-name="idieresis" unicode="&#xef;" horiz-adv-x="200" 
d="M20 402v98h130v-402h30v-98h-160v98h30v304h-30zM50 470v-38h30v-364h-30v-38h100v38h-30v402h-70zM-34 573v110h110v-110h-110zM-4 653v-50h50v50h-50zM125 573v110h110v-110h-110zM155 653v-50h50v50h-50z" />
    <glyph glyph-name="eth" unicode="&#xf0;" horiz-adv-x="340" 
d="M225 700v-54l-41 -24l131 -142v-425l-55 -55h-180l-55 55v390l55 55h102l-73 79l-84 -49v54l52 30l-80 86h116l39 -43zM215 88v324h-90v-324h90zM100 670h-34l184 -200h-158l-37 -37v-366l37 -37h156l37 37v402zM245 442v-384h-150v384h150z" />
    <glyph glyph-name="ntilde" unicode="&#xf1;" horiz-adv-x="390" 
d="M240 0v402h-90v-304h30v-98h-160v98h30v304h-30v98h265l55 -55v-347h30v-98h-130zM50 470v-38h30v-364h-30v-38h100v38h-30v364h150v-402h70v38h-30v366l-36 36h-224zM289 575l-137 18v-28h-90v85l40 40l137 -18v28h90v-85zM122 627l157 -20l20 20v43h-30v-33l-157 21
l-20 -20v-43h30v32z" />
    <glyph glyph-name="ograve" unicode="&#xf2;" horiz-adv-x="340" 
d="M260 0h-180l-55 55v390l55 55h180l55 -55v-390zM125 402v-304h90v304h-90zM249 30l36 36v368l-36 36h-158l-36 -36v-368l36 -36h158zM245 432v-364h-150v364h150zM55 700h116l58 -135h-116zM150 670h-49l33 -75h49z" />
    <glyph glyph-name="oacute" unicode="&#xf3;" horiz-adv-x="340" 
d="M260 0h-180l-55 55v390l55 55h180l55 -55v-390zM125 402v-304h90v304h-90zM249 30l36 36v368l-36 36h-158l-36 -36v-368l36 -36h158zM245 432v-364h-150v364h150zM169 700h116l-58 -135h-116zM239 670h-49l-33 -75h49z" />
    <glyph glyph-name="ocircumflex" unicode="&#xf4;" horiz-adv-x="340" 
d="M260 0h-180l-55 55v390l55 55h180l55 -55v-390zM125 402v-304h90v304h-90zM249 30l36 36v368l-36 36h-158l-36 -36v-368l36 -36h158zM245 432v-364h-150v364h150zM198 700l128 -135h-134l-22 24l-22 -24h-134l128 135h56zM255 595l-70 75h-30l-72 -75h53l34 36l34 -36h51
z" />
    <glyph glyph-name="otilde" unicode="&#xf5;" horiz-adv-x="340" 
d="M260 0h-180l-55 55v390l55 55h180l55 -55v-390zM125 402v-304h90v304h-90zM249 30l36 36v368l-36 36h-158l-36 -36v-368l36 -36h158zM245 432v-364h-150v364h150zM264 575l-137 18v-28h-90v85l40 40l137 -18v28h90v-85zM97 627l157 -20l20 20v43h-30v-33l-157 21l-20 -20
v-43h30v32z" />
    <glyph glyph-name="odieresis" unicode="&#xf6;" horiz-adv-x="340" 
d="M260 0h-180l-55 55v390l55 55h180l55 -55v-390zM125 402v-304h90v304h-90zM249 30l36 36v368l-36 36h-158l-36 -36v-368l36 -36h158zM245 432v-364h-150v364h150zM36 573v110h110v-110h-110zM66 653v-50h50v50h-50zM195 573v110h110v-110h-110zM225 653v-50h50v50h-50z
" />
    <glyph glyph-name="divide" unicode="&#xf7;" horiz-adv-x="403" 
d="M40 301v98h323v-98h-323zM150 429v103h103v-103h-103zM333 331v38h-263v-38h263zM223 459v43h-43v-43h43zM253 271v-103h-103v103h103zM180 241v-43h43v43h-43z" />
    <glyph glyph-name="oslash" unicode="&#xf8;" horiz-adv-x="340" 
d="M249 30l36 36v368l-36 36h-158l-36 -36v-368l36 -36h158zM245 432v-364h-150v364h150zM260 0h-167l-19 -50h-45l28 72l-32 33v390l55 55h166l20 50h45l-29 -73l33 -32v-390zM132 98h83v209zM125 402v-209l82 209h-82z" />
    <glyph glyph-name="ugrave" unicode="&#xf9;" horiz-adv-x="390" 
d="M150 500v-402h90v304h-30v98h130v-402h30v-98h-265l-55 55v347h-30v98h130zM340 30v38h-30v402h-70v-38h30v-364h-150v402h-70v-38h30v-366l36 -36h224zM80 700h116l58 -135h-116zM175 670h-49l33 -75h49z" />
    <glyph glyph-name="uacute" unicode="&#xfa;" horiz-adv-x="390" 
d="M150 500v-402h90v304h-30v98h130v-402h30v-98h-265l-55 55v347h-30v98h130zM340 30v38h-30v402h-70v-38h30v-364h-150v402h-70v-38h30v-366l36 -36h224zM194 700h116l-58 -135h-116zM264 670h-49l-33 -75h49z" />
    <glyph glyph-name="ucircumflex" unicode="&#xfb;" horiz-adv-x="390" 
d="M150 500v-402h90v304h-30v98h130v-402h30v-98h-265l-55 55v347h-30v98h130zM340 30v38h-30v402h-70v-38h30v-364h-150v402h-70v-38h30v-366l36 -36h224zM223 700l128 -135h-134l-22 24l-22 -24h-134l128 135h56zM280 595l-70 75h-30l-72 -75h53l34 36l34 -36h51z" />
    <glyph glyph-name="udieresis" unicode="&#xfc;" horiz-adv-x="390" 
d="M150 500v-402h90v304h-30v98h130v-402h30v-98h-265l-55 55v347h-30v98h130zM340 30v38h-30v402h-70v-38h30v-364h-150v402h-70v-38h30v-366l36 -36h224zM61 573v110h110v-110h-110zM91 653v-50h50v50h-50zM220 573v110h110v-110h-110zM250 653v-50h50v50h-50z" />
    <glyph glyph-name="yacute" unicode="&#xfd;" horiz-adv-x="360" 
d="M10 402v98h160v-98h-24l36 -140l35 140h-23v98h156v-98h-28l-126 -504h24v-98h-156v98h27l38 150l-92 354h-27zM40 470v-38h20l100 -382l-46 -182h-20v-38h96v38h-32l141 564h21v38h-96v-38h31l-72 -287l-75 287h32v38h-100zM179 700h116l-58 -135h-116zM249 670h-49
l-33 -75h49z" />
    <glyph glyph-name="thorn" unicode="&#xfe;" horiz-adv-x="365" 
d="M50 602h-30v98h130v-200h135l55 -55v-390l-55 -55h-135v-102h30v-98h-160v98h30v704zM120 470v200h-70v-38h31v-764h-31v-38h100v38h-30v162h154l36 36v368l-36 36h-154zM270 68h-150v364h150v-364zM150 402v-304h90v304h-90z" />
    <glyph glyph-name="ydieresis" unicode="&#xff;" horiz-adv-x="360" 
d="M10 402v98h160v-98h-24l36 -140l35 140h-23v98h156v-98h-28l-126 -504h24v-98h-156v98h27l38 150l-92 354h-27zM40 470v-38h20l100 -382l-46 -182h-20v-38h96v38h-32l141 564h21v38h-96v-38h31l-72 -287l-75 287h32v38h-100zM46 573v110h110v-110h-110zM76 653v-50h50v50
h-50zM205 573v110h110v-110h-110zM235 653v-50h50v50h-50z" />
    <glyph glyph-name="Amacron" unicode="&#x100;" horiz-adv-x="413" 
d="M229 0v98h36l-13 89h-94l-13 -89h36v-98h-171v98h37l87 602h144l87 -602h37v-98h-173zM151 68h-42l21 149h150l21 -149h-42v-38h113v38h-35l-86 602h-90l-86 -602h-35v-38h111v38zM205 519l-31 -228h63zM190 632h30l54 -371h-138zM109 787v90h194v-90h-194zM273 817v30
h-134v-30h134z" />
    <glyph glyph-name="amacron" unicode="&#x101;" horiz-adv-x="360" 
d="M310 445v-347h30v-98h-265l-55 55v195l55 55h135v97h-82v-52h-98v95l55 55h170zM120 207v-109h90v109h-90zM280 68v365l-37 37h-147l-36 -36v-54h38v52h142v-157h-153l-37 -37v-171l37 -37h223v38h-30zM90 68v169h150v-169h-150zM73 587v90h194v-90h-194zM237 617v30
h-134v-30h134z" />
    <glyph glyph-name="Abreve" unicode="&#x102;" horiz-adv-x="413" 
d="M229 0v98h36l-13 89h-94l-13 -89h36v-98h-171v98h37l87 602h144l87 -602h37v-98h-173zM151 68h-42l21 149h150l21 -149h-42v-38h113v38h-35l-86 602h-90l-86 -602h-35v-38h111v38zM205 519l-31 -228h63zM190 632h30l54 -371h-138zM236 855v45h90v-95l-40 -40h-160l-40 40
v95h90v-45h60zM266 870v-45h-120v45h-30v-53l22 -22h136l22 22v53h-30z" />
    <glyph glyph-name="abreve" unicode="&#x103;" horiz-adv-x="360" 
d="M310 445v-347h30v-98h-265l-55 55v195l55 55h135v97h-82v-52h-98v95l55 55h170zM120 207v-109h90v109h-90zM280 68v365l-37 37h-147l-36 -36v-54h38v52h142v-157h-153l-37 -37v-171l37 -37h223v38h-30zM90 68v169h150v-169h-150zM200 655v45h90v-95l-40 -40h-160l-40 40
v95h90v-45h60zM230 670v-45h-120v45h-30v-53l22 -22h136l22 22v53h-30z" />
    <glyph glyph-name="Aogonek" unicode="&#x104;" horiz-adv-x="413" 
d="M229 0v98h36l-13 89h-94l-13 -89h36v-98h-171v98h37l87 602h144l87 -602h37v-98l-110 -110h116v-90h-177l-34 33v90l77 77h-45zM190 632h30l54 -371h-138zM257 -140v37l103 103h-44l-89 -89v-66l16 -15h135v30h-121zM205 519l-31 -228h63zM151 68h-42l21 149h150l21 -149
h-42v-38h113v38h-35l-86 602h-90l-86 -602h-35v-38h111v38z" />
    <glyph glyph-name="aogonek" unicode="&#x105;" horiz-adv-x="360" 
d="M310 445v-347h30v-98l-110 -110h116v-90h-177l-34 33v90l77 77h-137l-55 55v195l55 55h135v97h-82v-52h-98v95l55 55h170zM280 68v365l-37 37h-147l-36 -36v-54h38v52h142v-157h-153l-37 -37v-171l37 -37h155l30 30l34 -30h4v38h-30zM90 68v169h150v-169h-150zM195 -140
v37l103 103h-44l-89 -89v-66l16 -15h135v30h-121zM120 207v-109h90v109h-90z" />
    <glyph glyph-name="Cacute" unicode="&#x106;" 
d="M286 0h-199l-57 57v588l57 55h199l55 -55v-147h-98v104h-113v-504h113v104h98v-145zM99 30h175l37 39v103h-38v-104h-173v564h173v-104h38v105l-37 37h-175l-39 -37v-564zM184 900h116l-58 -135h-116zM254 870h-49l-33 -75h49z" />
    <glyph glyph-name="cacute" unicode="&#x107;" horiz-adv-x="330" 
d="M250 0h-170l-55 55v390l55 55h170l55 -55v-145h-98v102h-82v-304h82v102h98v-145zM275 330v104l-36 36h-148l-36 -36v-368l36 -36h148l36 36v104h-38v-102h-142v364h142v-102h38zM164 700h116l-58 -135h-116zM234 670h-49l-33 -75h49z" />
    <glyph glyph-name="Ccircumflex" unicode="&#x108;" 
d="M286 0h-199l-57 57v588l57 55h199l55 -55v-147h-98v104h-113v-504h113v104h98v-145zM99 30h175l37 39v103h-38v-104h-173v564h173v-104h38v105l-37 37h-175l-39 -37v-564zM213 900l128 -135h-134l-22 24l-22 -24h-134l128 135h56zM270 795l-70 75h-30l-72 -75h53l34 36
l34 -36h51z" />
    <glyph glyph-name="ccircumflex" unicode="&#x109;" horiz-adv-x="330" 
d="M250 0h-170l-55 55v390l55 55h170l55 -55v-145h-98v102h-82v-304h82v102h98v-145zM275 330v104l-36 36h-148l-36 -36v-368l36 -36h148l36 36v104h-38v-102h-142v364h142v-102h38zM193 700l128 -135h-134l-22 24l-22 -24h-134l128 135h56zM250 595l-70 75h-30l-72 -75h53
l34 36l34 -36h51z" />
    <glyph glyph-name="Cdotaccent" unicode="&#x10a;" 
d="M286 0h-199l-57 57v588l57 55h199l55 -55v-147h-98v104h-113v-504h113v104h98v-145zM99 30h175l37 39v103h-38v-104h-173v564h173v-104h38v105l-37 37h-175l-39 -37v-564zM131 773v110h110v-110h-110zM161 853v-50h50v50h-50z" />
    <glyph glyph-name="cdotaccent" unicode="&#x10b;" horiz-adv-x="330" 
d="M250 0h-170l-55 55v390l55 55h170l55 -55v-145h-98v102h-82v-304h82v102h98v-145zM275 330v104l-36 36h-148l-36 -36v-368l36 -36h148l36 36v104h-38v-102h-142v364h142v-102h38zM111 573v110h110v-110h-110zM141 653v-50h50v50h-50z" />
    <glyph glyph-name="Ccaron" unicode="&#x10c;" 
d="M286 0h-199l-57 57v588l57 55h199l55 -55v-147h-98v104h-113v-504h113v104h98v-145zM99 30h175l37 39v103h-38v-104h-173v564h173v-104h38v105l-37 37h-175l-39 -37v-564zM157 765l-128 135h134l22 -24l22 24h134l-128 -135h-56zM100 870l70 -75h30l72 75h-53l-34 -36
l-34 36h-51z" />
    <glyph glyph-name="ccaron" unicode="&#x10d;" horiz-adv-x="330" 
d="M250 0h-170l-55 55v390l55 55h170l55 -55v-145h-98v102h-82v-304h82v102h98v-145zM275 330v104l-36 36h-148l-36 -36v-368l36 -36h148l36 36v104h-38v-102h-142v364h142v-102h38zM137 565l-128 135h134l22 -24l22 24h134l-128 -135h-56zM80 670l70 -75h30l72 75h-53
l-34 -36l-34 36h-51z" />
    <glyph glyph-name="Dcaron" unicode="&#x10e;" horiz-adv-x="401" 
d="M342 69v564l-39 37h-252v-38h41v-564h-41v-38h252zM132 68v564h170v-564h-170zM372 645v-588l-57 -57h-294v98h41v504h-41v98h294zM162 602v-504h110v504h-110zM168 765l-128 135h134l22 -24l22 24h134l-128 -135h-56zM111 870l70 -75h30l72 75h-53l-34 -36l-34 36h-51z
" />
    <glyph glyph-name="dcaron" unicode="&#x10f;" horiz-adv-x="365" 
d="M25 55v390l55 55h135v102h-30v98h130v-602h30v-98h-265zM315 30v38h-30v602h-70v-38h30v-162h-154l-36 -36v-368l36 -36h224zM95 432h150v-364h-150v364zM215 98v304h-90v-304h90zM426 525h-89l20 175h89zM370 555h29l14 115h-29z" />
    <glyph glyph-name="Dcroat" unicode="&#x110;" horiz-adv-x="401" 
d="M21 304v94h41v204h-41v98h294l57 -55v-588l-57 -57h-294v98h41v206h-41zM162 602v-204h71v-94h-71v-206h110v504h-110zM342 69v564l-39 37h-252v-38h41v-264h-41v-34h41v-266h-41v-38h252zM203 334v34h-71v264h170v-564h-170v266h71z" />
    <glyph glyph-name="dcroat" unicode="&#x111;" horiz-adv-x="385" 
d="M95 432h150v-364h-150v364zM215 98v304h-90v-304h90zM25 55v390l55 55h135v53h-89v94h89v53h100v-53h60v-94h-60v-455h30v-98h-265zM315 30v38h-30v515h60v34h-60v53h-40v-53h-89v-34h89v-113h-154l-36 -36v-368l36 -36h224z" />
    <glyph glyph-name="Emacron" unicode="&#x112;" horiz-adv-x="374" 
d="M355 0h-334v98h41v504h-41v98h334v-202h-98v104h-95v-198h127v-98h-127v-208h95v104h98v-202zM51 30h274v142h-38v-104h-155v268h127v38h-127v258h155v-104h38v142h-274v-38h41v-564h-41v-38zM91 787v90h194v-90h-194zM255 817v30h-134v-30h134z" />
    <glyph glyph-name="emacron" unicode="&#x113;" horiz-adv-x="340" 
d="M25 55v390l55 55h180l55 -55v-244h-190v-103h92v52h98v-95l-55 -55h-180zM125 402v-103h90v103h-90zM55 433v-366l37 -37h157l36 36v54h-38v-52h-152v163h190v202l-37 37h-156zM95 269v163h150v-163h-150zM73 587v90h194v-90h-194zM237 617v30h-134v-30h134z" />
    <glyph glyph-name="Ebreve" unicode="&#x114;" horiz-adv-x="374" 
d="M355 0h-334v98h41v504h-41v98h334v-202h-98v104h-95v-198h127v-98h-127v-208h95v104h98v-202zM51 30h274v142h-38v-104h-155v268h127v38h-127v258h155v-104h38v142h-274v-38h41v-564h-41v-38zM218 855v45h90v-95l-40 -40h-160l-40 40v95h90v-45h60zM248 870v-45h-120v45
h-30v-53l22 -22h136l22 22v53h-30z" />
    <glyph glyph-name="ebreve" unicode="&#x115;" horiz-adv-x="340" 
d="M25 55v390l55 55h180l55 -55v-244h-190v-103h92v52h98v-95l-55 -55h-180zM125 402v-103h90v103h-90zM55 433v-366l37 -37h157l36 36v54h-38v-52h-152v163h190v202l-37 37h-156zM95 269v163h150v-163h-150zM200 655v45h90v-95l-40 -40h-160l-40 40v95h90v-45h60zM230 670
v-45h-120v45h-30v-53l22 -22h136l22 22v53h-30z" />
    <glyph glyph-name="Edotaccent" unicode="&#x116;" horiz-adv-x="374" 
d="M355 0h-334v98h41v504h-41v98h334v-202h-98v104h-95v-198h127v-98h-127v-208h95v104h98v-202zM51 30h274v142h-38v-104h-155v268h127v38h-127v258h155v-104h38v142h-274v-38h41v-564h-41v-38zM134 773v110h110v-110h-110zM164 853v-50h50v50h-50z" />
    <glyph glyph-name="edotaccent" unicode="&#x117;" horiz-adv-x="340" 
d="M25 55v390l55 55h180l55 -55v-244h-190v-103h92v52h98v-95l-55 -55h-180zM125 402v-103h90v103h-90zM55 433v-366l37 -37h157l36 36v54h-38v-52h-152v163h190v202l-37 37h-156zM95 269v163h150v-163h-150zM116 573v110h110v-110h-110zM146 653v-50h50v50h-50z" />
    <glyph glyph-name="Eogonek" unicode="&#x118;" horiz-adv-x="374" 
d="M355 0l-110 -110h116v-90h-177l-34 33v90l77 77h-206v98h41v504h-41v98h334v-202h-98v104h-95v-198h127v-98h-127v-208h95v104h98v-202zM210 -140v37l103 103h-44l-89 -89v-66l16 -15h135v30h-121zM51 30h274v142h-38v-104h-155v268h127v38h-127v258h155v-104h38v142
h-274v-38h41v-564h-41v-38z" />
    <glyph glyph-name="eogonek" unicode="&#x119;" horiz-adv-x="340" 
d="M125 402v-103h90v103h-90zM95 269v163h150v-163h-150zM115 -140v37l170 169v54h-38v-52h-152v163h190v202l-37 37h-156l-37 -37v-366l37 -37h113l-120 -119v-66l16 -15h135v30h-121zM25 55v390l55 55h180l55 -55v-244h-190v-103h92v52h98v-95l-165 -165h116v-90h-177
l-34 33v90l77 77h-52z" />
    <glyph glyph-name="Ecaron" unicode="&#x11a;" horiz-adv-x="374" 
d="M355 0h-334v98h41v504h-41v98h334v-202h-98v104h-95v-198h127v-98h-127v-208h95v104h98v-202zM51 30h274v142h-38v-104h-155v268h127v38h-127v258h155v-104h38v142h-274v-38h41v-564h-41v-38zM160 765l-128 135h134l22 -24l22 24h134l-128 -135h-56zM103 870l70 -75h30
l72 75h-53l-34 -36l-34 36h-51z" />
    <glyph glyph-name="ecaron" unicode="&#x11b;" horiz-adv-x="340" 
d="M25 55v390l55 55h180l55 -55v-244h-190v-103h92v52h98v-95l-55 -55h-180zM125 402v-103h90v103h-90zM55 433v-366l37 -37h157l36 36v54h-38v-52h-152v163h190v202l-37 37h-156zM95 269v163h150v-163h-150zM142 565l-128 135h134l22 -24l22 24h134l-128 -135h-56zM85 670
l70 -75h30l72 75h-53l-34 -36l-34 36h-51z" />
    <glyph glyph-name="Gcircumflex" unicode="&#x11c;" 
d="M285 0h-198l-57 57v588l57 55h198l55 -55v-147h-100v104h-110v-504h110v179h-41v98h141v-318zM99 30h174l37 39v276h-81v-38h41v-239h-170v564h170v-104h40v105l-37 37h-174l-39 -37v-564zM213 900l128 -135h-134l-22 24l-22 -24h-134l128 135h56zM270 795l-70 75h-30
l-72 -75h53l34 36l34 -36h51z" />
    <glyph glyph-name="gcircumflex" unicode="&#x11d;" horiz-adv-x="335" 
d="M25 55v390l55 55h235v-645l-55 -55h-180l-55 55v95h98v-52h92v102h-135zM125 402v-304h90v304h-90zM55 433v-366l37 -37h153v-162h-152v52h-38v-53l37 -37h156l37 37v603h-193zM95 68v364h150v-364h-150zM198 700l128 -135h-134l-22 24l-22 -24h-134l128 135h56zM255 595
l-70 75h-30l-72 -75h53l34 36l34 -36h51z" />
    <glyph glyph-name="Gbreve" unicode="&#x11e;" 
d="M285 0h-198l-57 57v588l57 55h198l55 -55v-147h-100v104h-110v-504h110v179h-41v98h141v-318zM99 30h174l37 39v276h-81v-38h41v-239h-170v564h170v-104h40v105l-37 37h-174l-39 -37v-564zM215 855v45h90v-95l-40 -40h-160l-40 40v95h90v-45h60zM245 870v-45h-120v45h-30
v-53l22 -22h136l22 22v53h-30z" />
    <glyph glyph-name="gbreve" unicode="&#x11f;" horiz-adv-x="335" 
d="M25 55v390l55 55h235v-645l-55 -55h-180l-55 55v95h98v-52h92v102h-135zM125 402v-304h90v304h-90zM55 433v-366l37 -37h153v-162h-152v52h-38v-53l37 -37h156l37 37v603h-193zM95 68v364h150v-364h-150zM200 655v45h90v-95l-40 -40h-160l-40 40v95h90v-45h60zM230 670
v-45h-120v45h-30v-53l22 -22h136l22 22v53h-30z" />
    <glyph glyph-name="Gdotaccent" unicode="&#x120;" 
d="M285 0h-198l-57 57v588l57 55h198l55 -55v-147h-100v104h-110v-504h110v179h-41v98h141v-318zM99 30h174l37 39v276h-81v-38h41v-239h-170v564h170v-104h40v105l-37 37h-174l-39 -37v-564zM131 773v110h110v-110h-110zM161 853v-50h50v50h-50z" />
    <glyph glyph-name="gdotaccent" unicode="&#x121;" horiz-adv-x="335" 
d="M25 55v390l55 55h235v-645l-55 -55h-180l-55 55v95h98v-52h92v102h-135zM125 402v-304h90v304h-90zM55 433v-366l37 -37h153v-162h-152v52h-38v-53l37 -37h156l37 37v603h-193zM95 68v364h150v-364h-150zM116 573v110h110v-110h-110zM146 653v-50h50v50h-50z" />
    <glyph glyph-name="Gcommaaccent" unicode="&#x122;" 
d="M285 0h-198l-57 57v588l57 55h198l55 -55v-147h-100v104h-110v-504h110v179h-41v98h141v-318zM99 30h174l37 39v276h-81v-38h41v-239h-170v564h170v-104h40v105l-37 37h-174l-39 -37v-564zM214 -200h-96l20 165h96zM151 -170h36l13 105h-35z" />
    <glyph glyph-name="gcommaaccent" unicode="&#x123;" horiz-adv-x="335" 
d="M25 55v390l55 55h235v-645l-55 -55h-180l-55 55v95h98v-52h92v102h-135zM125 402v-304h90v304h-90zM55 433v-366l37 -37h153v-162h-152v52h-38v-53l37 -37h156l37 37v603h-193zM95 68v364h150v-364h-150zM141 700h96l-20 -165h-96zM204 670h-36l-13 -105h35z" />
    <glyph glyph-name="Hcircumflex" unicode="&#x124;" horiz-adv-x="431" 
d="M230 0v98h41v208h-109v-208h39v-98h-180v98h41v504h-41v98h180v-98h-39v-198h109v198h-41v98h180v-98h-39v-504h39v-98h-180zM301 68h-41v-38h120v38h-39v564h39v38h-120v-38h41v-258h-169v258h39v38h-120v-38h41v-564h-41v-38h120v38h-39v268h169v-268zM243 900
l128 -135h-134l-22 24l-22 -24h-134l128 135h56zM300 795l-70 75h-30l-72 -75h53l34 36l34 -36h51z" />
    <glyph glyph-name="hcircumflex" unicode="&#x125;" horiz-adv-x="390" 
d="M240 0v402h-90v-304h30v-98h-160v98h30v504h-30v98h130v-200h135l55 -55v-347h30v-98h-130zM50 670v-38h30v-564h-30v-38h100v38h-30v364h150v-402h70v38h-30v366l-36 36h-154v200h-70zM128 900l128 -135h-134l-22 24l-22 -24h-134l128 135h56zM185 795l-70 75h-30
l-72 -75h53l34 36l34 -36h51z" />
    <glyph glyph-name="Hbar" unicode="&#x126;" horiz-adv-x="431" 
d="M230 0v98h41v208h-109v-208h39v-98h-180v98h41v375h-30v94h30v35h-41v98h180v-98h-39v-35h109v35h-41v98h180v-98h-39v-35h30v-94h-30v-375h39v-98h-180zM162 404h109v69h-109v-69zM301 68h-41v-38h120v38h-39v435h30v34h-30v95h39v38h-120v-38h41v-95h-169v95h39v38
h-120v-38h41v-95h-30v-34h30v-435h-41v-38h120v38h-39v268h169v-268zM301 374h-169v129h169v-129z" />
    <glyph glyph-name="hbar" unicode="&#x127;" horiz-adv-x="390" 
d="M50 553h-60v94h60v53h100v-53h89v-94h-89v-53h135l55 -55v-347h30v-98h-130v402h-90v-304h30v-98h-160v98h30v455zM80 583v-515h-30v-38h100v38h-30v364h150v-402h70v38h-30v366l-36 36h-154v113h89v34h-89v53h-40v-53h-60v-34h60z" />
    <glyph glyph-name="Itilde" unicode="&#x128;" horiz-adv-x="221" 
d="M162 602v-504h39v-98h-180v98h41v504h-41v98h180v-98h-39zM132 68v564h39v38h-120v-38h41v-564h-41v-38h120v38h-39zM205 775l-137 18v-28h-90v85l40 40l137 -18v28h90v-85zM38 827l157 -20l20 20v43h-30v-33l-157 21l-20 -20v-43h30v32z" />
    <glyph glyph-name="itilde" unicode="&#x129;" horiz-adv-x="200" 
d="M20 402v98h130v-402h30v-98h-160v98h30v304h-30zM50 470v-38h30v-364h-30v-38h100v38h-30v402h-70zM194 575l-137 18v-28h-90v85l40 40l137 -18v28h90v-85zM27 627l157 -20l20 20v43h-30v-33l-157 21l-20 -20v-43h30v32z" />
    <glyph glyph-name="Imacron" unicode="&#x12a;" horiz-adv-x="221" 
d="M162 602v-504h39v-98h-180v98h41v504h-41v98h180v-98h-39zM132 68v564h39v38h-120v-38h41v-564h-41v-38h120v38h-39zM14 787v90h194v-90h-194zM178 817v30h-134v-30h134z" />
    <glyph glyph-name="imacron" unicode="&#x12b;" horiz-adv-x="200" 
d="M20 402v98h130v-402h30v-98h-160v98h30v304h-30zM50 470v-38h30v-364h-30v-38h100v38h-30v402h-70zM3 587v90h194v-90h-194zM167 617v30h-134v-30h134z" />
    <glyph glyph-name="Ibreve" unicode="&#x12c;" horiz-adv-x="221" 
d="M162 602v-504h39v-98h-180v98h41v504h-41v98h180v-98h-39zM132 68v564h39v38h-120v-38h41v-564h-41v-38h120v38h-39zM141 855v45h90v-95l-40 -40h-160l-40 40v95h90v-45h60zM171 870v-45h-120v45h-30v-53l22 -22h136l22 22v53h-30z" />
    <glyph glyph-name="ibreve" unicode="&#x12d;" horiz-adv-x="200" 
d="M20 402v98h130v-402h30v-98h-160v98h30v304h-30zM50 470v-38h30v-364h-30v-38h100v38h-30v402h-70zM130 655v45h90v-95l-40 -40h-160l-40 40v95h90v-45h60zM160 670v-45h-120v45h-30v-53l22 -22h136l22 22v53h-30z" />
    <glyph glyph-name="Iogonek" unicode="&#x12e;" horiz-adv-x="221" 
d="M162 602v-504h39v-98l-110 -110h116v-90h-177l-34 33v90l77 77h-52v98h41v504h-41v98h180v-98h-39zM56 -140v37l103 103h-44l-89 -89v-66l16 -15h135v30h-121zM132 68v564h39v38h-120v-38h41v-564h-41v-38h120v38h-39z" />
    <glyph glyph-name="iogonek" unicode="&#x12f;" horiz-adv-x="200" 
d="M50 470v-38h30v-364h-30v-38h100v38h-30v402h-70zM45 590v110h110v-110h-110zM75 670v-50h50v50h-50zM20 402v98h130v-402h30v-98l-110 -110h116v-90h-177l-34 33v90l77 77h-32v98h30v304h-30zM35 -140v37l103 103h-44l-89 -89v-66l16 -15h135v30h-121z" />
    <glyph glyph-name="Idotaccent" unicode="&#x130;" horiz-adv-x="221" 
d="M162 602v-504h39v-98h-180v98h41v504h-41v98h180v-98h-39zM132 68v564h39v38h-120v-38h41v-564h-41v-38h120v38h-39zM57 773v110h110v-110h-110zM87 853v-50h50v50h-50z" />
    <glyph glyph-name="dotlessi" unicode="&#x131;" horiz-adv-x="200" 
d="M20 402v98h130v-402h30v-98h-160v98h30v304h-30zM50 470v-38h30v-364h-30v-38h100v38h-30v402h-70z" />
    <glyph glyph-name="IJ" unicode="&#x132;" horiz-adv-x="531" 
d="M162 602v-504h39v-98h-180v98h41v504h-41v98h180v-98h-39zM132 68v564h39v38h-120v-38h41v-564h-41v-38h120v38h-39zM416 0h-129l-55 57v145h98v-104h41v504h-41v98h182v-98h-41v-545zM299 30h105l37 39v563h41v38h-122v-38h41v-564h-101v104h-38v-103z" />
    <glyph glyph-name="ij" unicode="&#x133;" horiz-adv-x="349" 
d="M20 402v98h130v-402h30v-98h-160v98h30v304h-30zM50 470v-38h30v-364h-30v-38h100v38h-30v402h-70zM179 402v98h130v-644l-55 -56h-116l-56 56v94h98v-52h29v504h-30zM209 470v-38h30v-564h-89v52h-38v-52l38 -38h92l37 38v602h-70zM45 573v110h110v-110h-110zM75 653
v-50h50v50h-50zM204 573v110h110v-110h-110zM234 653v-50h50v50h-50z" />
    <glyph glyph-name="Jcircumflex" unicode="&#x134;" horiz-adv-x="336" 
d="M221 0h-155l-55 57v145h98v-104h67v504h-41v98h182v-98h-41v-545zM78 30h131l37 39v563h41v38h-122v-38h41v-564h-127v104h-38v-103zM253 900l128 -135h-134l-22 24l-22 -24h-134l128 135h56zM310 795l-70 75h-30l-72 -75h53l34 36l34 -36h51z" />
    <glyph glyph-name="jcircumflex" unicode="&#x135;" horiz-adv-x="190" 
d="M20 402v98h130v-644l-55 -56h-129l-56 56v94h98v-52h42v504h-30zM50 470v-38h30v-564h-102v52h-38v-52l38 -38h105l37 38v602h-70zM128 700l128 -135h-134l-22 24l-22 -24h-134l128 135h56zM185 595l-70 75h-30l-72 -75h53l34 36l34 -36h51z" />
    <glyph glyph-name="Kcommaaccent" unicode="&#x136;" horiz-adv-x="431" 
d="M162 442l96 160h-14v98h160v-98h-35l-112 -184l115 -320h38v-98h-168v98h25l-75 210l-30 -51v-159h39v-98h-180v98h41v504h-41v98h180v-98h-39v-160zM132 262l69 119l112 -313h-41v-38h108v38h-30l-125 352l125 212h24v38h-100v-38h40l-182 -306v306h39v38h-120v-38h41
v-564h-41v-38h120v38h-39v194zM254 -200h-96l20 165h96zM191 -170h36l13 105h-35z" />
    <glyph glyph-name="kcommaaccent" unicode="&#x137;" horiz-adv-x="390" 
d="M190 402v98h170v-98h-37l-72 -100l88 -204h31v-98h-160v98h20l-47 110l-33 -46v-64h30v-98h-160v98h30v504h-30v98h130v-381l59 83h-19zM220 470v-38h47l-147 -208v446h-70v-38h30v-564h-30v-38h100v38h-30v104l71 97l84 -201h-35v-38h100v38h-21l-103 237l92 127h22v38
h-110zM224 -200h-96l20 165h96zM161 -170h36l13 105h-35z" />
    <glyph glyph-name="kgreenlandic" unicode="&#x138;" horiz-adv-x="390" 
d="M190 402v98h170v-98h-37l-72 -100l88 -204h31v-98h-160v98h20l-47 110l-33 -46v-64h30v-98h-160v98h30v304h-30v98h130v-181l59 83h-19zM220 470v-38h47l-147 -208v246h-70v-38h30v-364h-30v-38h100v38h-30v104l71 97l84 -201h-35v-38h100v38h-21l-103 237l92 127h22v38
h-110z" />
    <glyph glyph-name="Lacute" unicode="&#x139;" horiz-adv-x="349" 
d="M162 602v-504h71v104h98v-202h-310v98h41v504h-41v98h180v-98h-39zM132 68v564h39v38h-120v-38h41v-564h-41v-38h250v142h-38v-104h-131zM110 900h116l-58 -135h-116zM180 870h-49l-33 -75h49z" />
    <glyph glyph-name="lacute" unicode="&#x13a;" horiz-adv-x="200" 
d="M20 602v98h130v-602h30v-98h-160v98h30v504h-30zM50 670v-38h30v-564h-30v-38h100v38h-30v602h-70zM99 900h116l-58 -135h-116zM169 870h-49l-33 -75h49z" />
    <glyph glyph-name="Lcommaaccent" unicode="&#x13b;" horiz-adv-x="349" 
d="M162 602v-504h71v104h98v-202h-310v98h41v504h-41v98h180v-98h-39zM132 68v564h39v38h-120v-38h41v-564h-41v-38h250v142h-38v-104h-131zM215 -200h-96l20 165h96zM152 -170h36l13 105h-35z" />
    <glyph glyph-name="lcommaaccent" unicode="&#x13c;" horiz-adv-x="200" 
d="M20 602v98h130v-602h30v-98h-160v98h30v504h-30zM50 670v-38h30v-564h-30v-38h100v38h-30v602h-70zM129 -200h-96l20 165h96zM66 -170h36l13 105h-35z" />
    <glyph glyph-name="Lcaron" unicode="&#x13d;" horiz-adv-x="349" 
d="M162 602v-504h71v104h98v-202h-310v98h41v504h-41v98h180v-98h-39zM132 68v564h39v38h-120v-38h41v-564h-41v-38h250v142h-38v-104h-131zM312 525h-89l20 175h89zM256 555h29l14 115h-29z" />
    <glyph glyph-name="lcaron" unicode="&#x13e;" horiz-adv-x="200" 
d="M20 602v98h130v-602h30v-98h-160v98h30v504h-30zM50 670v-38h30v-564h-30v-38h100v38h-30v602h-70zM261 525h-89l20 175h89zM205 555h29l14 115h-29z" />
    <glyph glyph-name="Ldot" unicode="&#x13f;" horiz-adv-x="349" 
d="M162 602v-504h71v104h98v-202h-310v98h41v504h-41v98h180v-98h-39zM132 68v564h39v38h-120v-38h41v-564h-41v-38h250v142h-38v-104h-131zM237 289v98h98v-98h-98zM267 357v-38h38v38h-38z" />
    <glyph glyph-name="ldot" unicode="&#x140;" horiz-adv-x="300" 
d="M20 602v98h130v-602h30v-98h-160v98h30v504h-30zM50 670v-38h30v-564h-30v-38h100v38h-30v602h-70zM201 246v98h98v-98h-98zM231 314v-38h38v38h-38z" />
    <glyph glyph-name="Lslash" unicode="&#x141;" horiz-adv-x="364" 
d="M146 68v564h39v38h-120v-38h41v-564h-41v-38h250v142h-38v-104h-131zM176 602v-197l120 92v-91l-120 -92v-216h71v104h98v-202h-310v98h41v140l-60 -45v91l60 45v273h-41v98h180v-98h-39z" />
    <glyph glyph-name="lslash" unicode="&#x142;" horiz-adv-x="255" 
d="M75 670v-38h30v-564h-30v-38h100v38h-30v602h-70zM45 602v98h130v-256l67 66v-88l-67 -66v-258h30v-98h-160v98h30v159l-57 -57v88l57 58v256h-30z" />
    <glyph glyph-name="Nacute" unicode="&#x143;" horiz-adv-x="434" 
d="M414 700v-98h-41v-602h-114l-100 373v-275h40v-98h-179v98h41v504h-41v98h155l100 -374v276h-40v98h179zM384 632v38h-119v-38h40v-534l-153 572h-102v-38h41v-564h-41v-38h119v38h-40v534l153 -572h61v602h41zM216 900h116l-58 -135h-116zM286 870h-49l-33 -75h49z" />
    <glyph glyph-name="nacute" unicode="&#x144;" horiz-adv-x="390" 
d="M240 0v402h-90v-304h30v-98h-160v98h30v304h-30v98h265l55 -55v-347h30v-98h-130zM50 470v-38h30v-364h-30v-38h100v38h-30v364h150v-402h70v38h-30v366l-36 36h-224zM194 700h116l-58 -135h-116zM264 670h-49l-33 -75h49z" />
    <glyph glyph-name="Ncommaaccent" unicode="&#x145;" horiz-adv-x="434" 
d="M414 700v-98h-41v-602h-114l-100 373v-275h40v-98h-179v98h41v504h-41v98h155l100 -374v276h-40v98h179zM384 632v38h-119v-38h40v-534l-153 572h-102v-38h41v-564h-41v-38h119v38h-40v534l153 -572h61v602h41zM241 -200h-96l20 165h96zM178 -170h36l13 105h-35z" />
    <glyph glyph-name="ncommaaccent" unicode="&#x146;" horiz-adv-x="390" 
d="M240 0v402h-90v-304h30v-98h-160v98h30v304h-30v98h265l55 -55v-347h30v-98h-130zM50 470v-38h30v-364h-30v-38h100v38h-30v364h150v-402h70v38h-30v366l-36 36h-224zM224 -200h-96l20 165h96zM161 -170h36l13 105h-35z" />
    <glyph glyph-name="Ncaron" unicode="&#x147;" horiz-adv-x="434" 
d="M414 700v-98h-41v-602h-114l-100 373v-275h40v-98h-179v98h41v504h-41v98h155l100 -374v276h-40v98h179zM384 632v38h-119v-38h40v-534l-153 572h-102v-38h41v-564h-41v-38h119v38h-40v534l153 -572h61v602h41zM189 765l-128 135h134l22 -24l22 24h134l-128 -135h-56z
M132 870l70 -75h30l72 75h-53l-34 -36l-34 36h-51z" />
    <glyph glyph-name="ncaron" unicode="&#x148;" horiz-adv-x="390" 
d="M240 0v402h-90v-304h30v-98h-160v98h30v304h-30v98h265l55 -55v-347h30v-98h-130zM50 470v-38h30v-364h-30v-38h100v38h-30v364h150v-402h70v38h-30v366l-36 36h-224zM167 565l-128 135h134l22 -24l22 24h134l-128 -135h-56zM110 670l70 -75h30l72 75h-53l-34 -36l-34 36
h-51z" />
    <glyph glyph-name="Eng" unicode="&#x14a;" horiz-adv-x="434" 
d="M414 700v-98h-41v-746l-55 -56h-129l-56 56v94h98v-52h42v50l-114 425v-275h40v-98h-179v98h41v504h-41v98h155l100 -374v276h-40v98h179zM384 632v38h-119v-38h40v-534l-153 572h-102v-38h41v-564h-41v-38h119v38h-40v534l174 -650v-84h-102v52h-38v-52l38 -38h105
l37 38v764h41z" />
    <glyph glyph-name="eng" unicode="&#x14b;" horiz-adv-x="365" 
d="M240 402h-90v-304h30v-98h-160v98h30v304h-30v98h265l55 -55v-589l-55 -56h-129l-56 56v94h98v-52h42v504zM270 -132h-102v52h-38v-52l38 -38h105l37 38v566l-36 36h-224v-38h30v-364h-30v-38h100v38h-30v364h150v-564z" />
    <glyph glyph-name="Omacron" unicode="&#x14c;" 
d="M340 645v-588l-55 -57h-198l-57 57v588l57 55h198zM240 98v504h-110v-504h110zM310 69v564l-37 37h-174l-39 -37v-564l39 -39h174zM270 632v-564h-170v564h170zM88 787v90h194v-90h-194zM252 817v30h-134v-30h134z" />
    <glyph glyph-name="omacron" unicode="&#x14d;" horiz-adv-x="340" 
d="M260 0h-180l-55 55v390l55 55h180l55 -55v-390zM125 402v-304h90v304h-90zM249 30l36 36v368l-36 36h-158l-36 -36v-368l36 -36h158zM245 432v-364h-150v364h150zM73 587v90h194v-90h-194zM237 617v30h-134v-30h134z" />
    <glyph glyph-name="Obreve" unicode="&#x14e;" 
d="M340 645v-588l-55 -57h-198l-57 57v588l57 55h198zM240 98v504h-110v-504h110zM310 69v564l-37 37h-174l-39 -37v-564l39 -39h174zM270 632v-564h-170v564h170zM215 855v45h90v-95l-40 -40h-160l-40 40v95h90v-45h60zM245 870v-45h-120v45h-30v-53l22 -22h136l22 22v53
h-30z" />
    <glyph glyph-name="obreve" unicode="&#x14f;" horiz-adv-x="340" 
d="M260 0h-180l-55 55v390l55 55h180l55 -55v-390zM125 402v-304h90v304h-90zM249 30l36 36v368l-36 36h-158l-36 -36v-368l36 -36h158zM245 432v-364h-150v364h150zM200 655v45h90v-95l-40 -40h-160l-40 40v95h90v-45h60zM230 670v-45h-120v45h-30v-53l22 -22h136l22 22v53
h-30z" />
    <glyph glyph-name="Ohungarumlaut" unicode="&#x150;" 
d="M340 645v-588l-55 -57h-198l-57 57v588l57 55h198zM240 98v504h-110v-504h110zM310 69v564l-37 37h-174l-39 -37v-564l39 -39h174zM270 632v-564h-170v564h170zM259 900h116l-58 -135h-116zM329 870h-49l-33 -75h49zM109 900h116l-58 -135h-116zM179 870h-49l-33 -75h49z
" />
    <glyph glyph-name="ohungarumlaut" unicode="&#x151;" horiz-adv-x="340" 
d="M260 0h-180l-55 55v390l55 55h180l55 -55v-390zM125 402v-304h90v304h-90zM249 30l36 36v368l-36 36h-158l-36 -36v-368l36 -36h158zM245 432v-364h-150v364h150zM244 700h116l-58 -135h-116zM314 670h-49l-33 -75h49zM94 700h116l-58 -135h-116zM164 670h-49l-33 -75h49
z" />
    <glyph glyph-name="OE" unicode="&#x152;" horiz-adv-x="553" 
d="M240 98v504h-110v-504h110zM533 0h-446l-57 57v588l57 55h446v-202h-98v104h-95v-198h127v-98h-127v-208h95v104h98v-202zM99 30h404v142h-38v-104h-155v268h127v38h-127v258h155v-104h38v142h-404l-39 -37v-564zM100 68v564h170v-564h-170z" />
    <glyph glyph-name="oe" unicode="&#x153;" horiz-adv-x="530" 
d="M125 402v-304h90v304h-90zM245 432v-364h-150v364h150zM315 402v-103h90v103h-90zM285 269v163h150v-163h-150zM245 0h-165l-55 55v390l55 55h165l20 -20l20 20h165l55 -55v-244h-190v-103h92v52h98v-95l-55 -55h-165l-20 20zM238 30l27 27l27 -27h147l36 36v54h-38v-52
h-152v163h190v202l-37 37h-146l-27 -27l-27 27h-147l-36 -36v-368l36 -36h147z" />
    <glyph glyph-name="Racute" unicode="&#x154;" horiz-adv-x="403" 
d="M162 602v-247h110v247h-110zM132 325v307h170v-307h-170zM372 311l-57 -54l37 -159h30v-98h-112l-60 257h-48v-159h39v-98h-180v98h41v504h-41v98h294l57 -55v-334zM325 68l-51 219h29l39 36v310l-39 37h-252v-38h41v-564h-41v-38h120v38h-39v219h104l60 -257h56v38h-27z
M200 900h116l-58 -135h-116zM270 870h-49l-33 -75h49z" />
    <glyph glyph-name="racute" unicode="&#x155;" horiz-adv-x="330" 
d="M220 350v52h-70v-304h30v-98h-160v98h30v304h-30v98h235l55 -55v-95h-90zM250 432v-52h30v53l-37 37h-193v-38h30v-364h-30v-38h100v38h-30v364h130zM164 700h116l-58 -135h-116zM234 670h-49l-33 -75h49z" />
    <glyph glyph-name="Rcommaaccent" unicode="&#x156;" horiz-adv-x="403" 
d="M162 602v-247h110v247h-110zM132 325v307h170v-307h-170zM372 311l-57 -54l37 -159h30v-98h-112l-60 257h-48v-159h39v-98h-180v98h41v504h-41v98h294l57 -55v-334zM325 68l-51 219h29l39 36v310l-39 37h-252v-38h41v-564h-41v-38h120v38h-39v219h104l60 -257h56v38h-27z
M240 -200h-96l20 165h96zM177 -170h36l13 105h-35z" />
    <glyph glyph-name="rcommaaccent" unicode="&#x157;" horiz-adv-x="330" 
d="M220 350v52h-70v-304h30v-98h-160v98h30v304h-30v98h235l55 -55v-95h-90zM250 432v-52h30v53l-37 37h-193v-38h30v-364h-30v-38h100v38h-30v364h130zM129 -200h-96l20 165h96zM66 -170h36l13 105h-35z" />
    <glyph glyph-name="Rcaron" unicode="&#x158;" horiz-adv-x="403" 
d="M162 602v-247h110v247h-110zM132 325v307h170v-307h-170zM372 311l-57 -54l37 -159h30v-98h-112l-60 257h-48v-159h39v-98h-180v98h41v504h-41v98h294l57 -55v-334zM325 68l-51 219h29l39 36v310l-39 37h-252v-38h41v-564h-41v-38h120v38h-39v219h104l60 -257h56v38h-27z
M173 765l-128 135h134l22 -24l22 24h134l-128 -135h-56zM116 870l70 -75h30l72 75h-53l-34 -36l-34 36h-51z" />
    <glyph glyph-name="rcaron" unicode="&#x159;" horiz-adv-x="330" 
d="M220 350v52h-70v-304h30v-98h-160v98h30v304h-30v98h235l55 -55v-95h-90zM250 432v-52h30v53l-37 37h-193v-38h30v-364h-30v-38h100v38h-30v364h130zM137 565l-128 135h134l22 -24l22 24h134l-128 -135h-56zM80 670l70 -75h30l72 75h-53l-34 -36l-34 36h-51z" />
    <glyph glyph-name="Sacute" unicode="&#x15a;" horiz-adv-x="375" 
d="M246 98v208h-153l-55 57v282l55 55h189l57 -57v-145h-98v104h-103v-198h153l55 -55v-292l-55 -57h-205l-57 57v145h98v-104h119zM276 336v-268h-179v104h-38v-103l39 -39h181l37 39v268l-37 37h-171v258h163v-104h38v103l-39 39h-165l-37 -37v-258l37 -39h171zM186 900
h116l-58 -135h-116zM256 870h-49l-33 -75h49z" />
    <glyph glyph-name="sacute" unicode="&#x15b;" horiz-adv-x="330" 
d="M310 244v-189l-55 -55h-180l-55 55v95h98v-52h92v103h-125l-55 55v189l55 55h160l55 -55v-95h-98v52h-72v-103h125zM280 67v165l-37 37h-143v163h132v-52h38v54l-36 36h-137l-37 -37v-165l37 -37h143v-163h-152v52h-38v-54l36 -36h157zM164 700h116l-58 -135h-116z
M234 670h-49l-33 -75h49z" />
    <glyph glyph-name="Scircumflex" unicode="&#x15c;" horiz-adv-x="375" 
d="M246 98v208h-153l-55 57v282l55 55h189l57 -57v-145h-98v104h-103v-198h153l55 -55v-292l-55 -57h-205l-57 57v145h98v-104h119zM276 336v-268h-179v104h-38v-103l39 -39h181l37 39v268l-37 37h-171v258h163v-104h38v103l-39 39h-165l-37 -37v-258l37 -39h171zM215 900
l128 -135h-134l-22 24l-22 -24h-134l128 135h56zM272 795l-70 75h-30l-72 -75h53l34 36l34 -36h51z" />
    <glyph glyph-name="scircumflex" unicode="&#x15d;" horiz-adv-x="330" 
d="M310 244v-189l-55 -55h-180l-55 55v95h98v-52h92v103h-125l-55 55v189l55 55h160l55 -55v-95h-98v52h-72v-103h125zM280 67v165l-37 37h-143v163h132v-52h38v54l-36 36h-137l-37 -37v-165l37 -37h143v-163h-152v52h-38v-54l36 -36h157zM193 700l128 -135h-134l-22 24
l-22 -24h-134l128 135h56zM250 595l-70 75h-30l-72 -75h53l34 36l34 -36h51z" />
    <glyph glyph-name="Scedilla" unicode="&#x15e;" horiz-adv-x="375" 
d="M246 98v208h-153l-55 57v282l55 55h189l57 -57v-145h-98v104h-103v-198h153l55 -55v-292l-55 -57h-205l-57 57v145h98v-104h119zM276 336v-268h-179v104h-38v-103l39 -39h181l37 39v268l-37 37h-171v258h163v-104h38v103l-39 39h-165l-37 -37v-258l37 -39h171zM242 -20
l30 -30v-120l-30 -30h-133v90h56l-15 15v75h92zM230 -50h-50v-35h32v-55h-73v-30h91l12 12v96z" />
    <glyph glyph-name="scedilla" unicode="&#x15f;" horiz-adv-x="330" 
d="M310 244v-189l-55 -55h-180l-55 55v95h98v-52h92v103h-125l-55 55v189l55 55h160l55 -55v-95h-98v52h-72v-103h125zM280 67v165l-37 37h-143v163h132v-52h38v54l-36 36h-137l-37 -37v-165l37 -37h143v-163h-152v52h-38v-54l36 -36h157zM230 -20l30 -30v-120l-30 -30h-133
v90h56l-15 15v75h92zM218 -50h-50v-35h32v-55h-73v-30h91l12 12v96z" />
    <glyph glyph-name="Scaron" unicode="&#x160;" horiz-adv-x="375" 
d="M246 98v208h-153l-55 57v282l55 55h189l57 -57v-145h-98v104h-103v-198h153l55 -55v-292l-55 -57h-205l-57 57v145h98v-104h119zM276 336v-268h-179v104h-38v-103l39 -39h181l37 39v268l-37 37h-171v258h163v-104h38v103l-39 39h-165l-37 -37v-258l37 -39h171zM159 765
l-128 135h134l22 -24l22 24h134l-128 -135h-56zM102 870l70 -75h30l72 75h-53l-34 -36l-34 36h-51z" />
    <glyph glyph-name="scaron" unicode="&#x161;" horiz-adv-x="330" 
d="M310 244v-189l-55 -55h-180l-55 55v95h98v-52h92v103h-125l-55 55v189l55 55h160l55 -55v-95h-98v52h-72v-103h125zM280 67v165l-37 37h-143v163h132v-52h38v54l-36 36h-137l-37 -37v-165l37 -37h143v-163h-152v52h-38v-54l36 -36h157zM137 565l-128 135h134l22 -24
l22 24h134l-128 -135h-56zM80 670l70 -75h30l72 75h-53l-34 -36l-34 36h-51z" />
    <glyph glyph-name="Tcommaaccent" unicode="&#x21a;" horiz-adv-x="422" 
d="M15 498v202h392v-202h-98v104h-48v-504h39v-98h-178v98h39v504h-48v-104h-98zM45 670v-142h38v104h108v-564h-39v-38h118v38h-39v564h108v-104h38v142h-332zM240 -200h-96l20 165h96zM177 -170h36l13 105h-35z" />
    <glyph glyph-name="Tcommaaccent" unicode="&#x162;" horiz-adv-x="422" 
d="M15 498v202h392v-202h-98v104h-48v-504h39v-98h-178v98h39v504h-48v-104h-98zM45 670v-142h38v104h108v-564h-39v-38h118v38h-39v564h108v-104h38v142h-332zM240 -200h-96l20 165h96zM177 -170h36l13 105h-35z" />
    <glyph glyph-name="tcommaaccent" unicode="&#x21b;" horiz-adv-x="320" 
d="M20 402v98h50v100h100v-100h130v-98h-130v-304h40v52h90v-95l-55 -55h-120l-55 55v347h-50zM50 470v-38h50v-365l37 -37h96l37 37v53h-30v-52h-100v364h130v38h-130v100h-40v-100h-50zM189 -200h-96l20 165h96zM126 -170h36l13 105h-35z" />
    <glyph glyph-name="tcommaaccent" unicode="&#x163;" horiz-adv-x="320" 
d="M20 402v98h50v100h100v-100h130v-98h-130v-304h40v52h90v-95l-55 -55h-120l-55 55v347h-50zM50 470v-38h50v-365l37 -37h96l37 37v53h-30v-52h-100v364h130v38h-130v100h-40v-100h-50zM189 -200h-96l20 165h96zM126 -170h36l13 105h-35z" />
    <glyph glyph-name="Tcaron" unicode="&#x164;" horiz-adv-x="422" 
d="M15 498v202h392v-202h-98v104h-48v-504h39v-98h-178v98h39v504h-48v-104h-98zM45 670v-142h38v104h108v-564h-39v-38h118v38h-39v564h108v-104h38v142h-332zM183 765l-128 135h134l22 -24l22 24h134l-128 -135h-56zM126 870l70 -75h30l72 75h-53l-34 -36l-34 36h-51z" />
    <glyph glyph-name="tcaron" unicode="&#x165;" horiz-adv-x="320" 
d="M20 402v98h50v100h100v-100h130v-98h-130v-304h40v52h90v-95l-55 -55h-120l-55 55v347h-50zM50 470v-38h50v-365l37 -37h96l37 37v53h-30v-52h-100v364h130v38h-130v100h-40v-100h-50zM281 525h-89l20 175h89zM225 555h29l14 115h-29z" />
    <glyph glyph-name="Tbar" unicode="&#x166;" horiz-adv-x="422" 
d="M316 321v30h-85v281h108v-104h38v142h-332v-142h38v104h108v-281h-85v-30h85v-253h-39v-38h118v38h-39v253h85zM76 291v90h85v221h-48v-104h-98v202h392v-202h-98v104h-48v-221h85v-90h-85v-193h39v-98h-178v98h39v193h-85z" />
    <glyph glyph-name="tbar" unicode="&#x167;" horiz-adv-x="320" 
d="M170 225v-127h40v52h90v-95l-55 -55h-120l-55 55v170h-45v94h45v83h-50v98h50v100h100v-100h130v-98h-130v-83h104v-94h-104zM100 255v-188l37 -37h96l37 37v53h-30v-52h-100v187h104v34h-104v143h130v38h-130v100h-40v-100h-50v-38h50v-143h-45v-34h45z" />
    <glyph glyph-name="Utilde" unicode="&#x168;" horiz-adv-x="431" 
d="M230 602v98h182v-98h-42v-545l-54 -57h-199l-55 57v545h-41v98h179v-98h-42v-504h113v504h-41zM260 670v-38h41v-564h-173v564h42v38h-119v-38h41v-563l37 -39h175l36 39v563h42v38h-122zM310 775l-137 18v-28h-90v85l40 40l137 -18v28h90v-85zM143 827l157 -20l20 20v43
h-30v-33l-157 21l-20 -20v-43h30v32z" />
    <glyph glyph-name="utilde" unicode="&#x169;" horiz-adv-x="390" 
d="M150 500v-402h90v304h-30v98h130v-402h30v-98h-265l-55 55v347h-30v98h130zM340 30v38h-30v402h-70v-38h30v-364h-150v402h-70v-38h30v-366l36 -36h224zM289 575l-137 18v-28h-90v85l40 40l137 -18v28h90v-85zM122 627l157 -20l20 20v43h-30v-33l-157 21l-20 -20v-43h30
v32z" />
    <glyph glyph-name="Umacron" unicode="&#x16a;" horiz-adv-x="431" 
d="M230 602v98h182v-98h-42v-545l-54 -57h-199l-55 57v545h-41v98h179v-98h-42v-504h113v504h-41zM260 670v-38h41v-564h-173v564h42v38h-119v-38h41v-563l37 -39h175l36 39v563h42v38h-122zM119 787v90h194v-90h-194zM283 817v30h-134v-30h134z" />
    <glyph glyph-name="umacron" unicode="&#x16b;" horiz-adv-x="390" 
d="M150 500v-402h90v304h-30v98h130v-402h30v-98h-265l-55 55v347h-30v98h130zM340 30v38h-30v402h-70v-38h30v-364h-150v402h-70v-38h30v-366l36 -36h224zM98 587v90h194v-90h-194zM262 617v30h-134v-30h134z" />
    <glyph glyph-name="Ubreve" unicode="&#x16c;" horiz-adv-x="431" 
d="M230 602v98h182v-98h-42v-545l-54 -57h-199l-55 57v545h-41v98h179v-98h-42v-504h113v504h-41zM260 670v-38h41v-564h-173v564h42v38h-119v-38h41v-563l37 -39h175l36 39v563h42v38h-122zM246 855v45h90v-95l-40 -40h-160l-40 40v95h90v-45h60zM276 870v-45h-120v45h-30
v-53l22 -22h136l22 22v53h-30z" />
    <glyph glyph-name="ubreve" unicode="&#x16d;" horiz-adv-x="390" 
d="M150 500v-402h90v304h-30v98h130v-402h30v-98h-265l-55 55v347h-30v98h130zM340 30v38h-30v402h-70v-38h30v-364h-150v402h-70v-38h30v-366l36 -36h224zM225 655v45h90v-95l-40 -40h-160l-40 40v95h90v-45h60zM255 670v-45h-120v45h-30v-53l22 -22h136l22 22v53h-30z" />
    <glyph glyph-name="Uring" unicode="&#x16e;" horiz-adv-x="431" 
d="M230 602v98h182v-98h-42v-545l-54 -57h-199l-55 57v545h-41v98h179v-98h-42v-504h113v504h-41zM260 670v-38h41v-564h-173v564h42v38h-119v-38h41v-563l37 -39h175l36 39v563h42v38h-122zM187 856v-57h59v57h-59zM141 786v84l30 30h90l30 -30v-84l-30 -30h-90z" />
    <glyph glyph-name="uring" unicode="&#x16f;" horiz-adv-x="390" 
d="M150 500v-402h90v304h-30v98h130v-402h30v-98h-265l-55 55v347h-30v98h130zM340 30v38h-30v402h-70v-38h30v-364h-150v402h-70v-38h30v-366l36 -36h224zM166 656v-57h59v57h-59zM120 586v84l30 30h90l30 -30v-84l-30 -30h-90z" />
    <glyph glyph-name="Uhungarumlaut" unicode="&#x170;" horiz-adv-x="431" 
d="M230 602v98h182v-98h-42v-545l-54 -57h-199l-55 57v545h-41v98h179v-98h-42v-504h113v504h-41zM260 670v-38h41v-564h-173v564h42v38h-119v-38h41v-563l37 -39h175l36 39v563h42v38h-122zM290 900h116l-58 -135h-116zM360 870h-49l-33 -75h49zM140 900h116l-58 -135h-116
zM210 870h-49l-33 -75h49z" />
    <glyph glyph-name="uhungarumlaut" unicode="&#x171;" horiz-adv-x="390" 
d="M150 500v-402h90v304h-30v98h130v-402h30v-98h-265l-55 55v347h-30v98h130zM340 30v38h-30v402h-70v-38h30v-364h-150v402h-70v-38h30v-366l36 -36h224zM269 700h116l-58 -135h-116zM339 670h-49l-33 -75h49zM119 700h116l-58 -135h-116zM189 670h-49l-33 -75h49z" />
    <glyph glyph-name="Uogonek" unicode="&#x172;" horiz-adv-x="431" 
d="M171 -140v37l169 172v563h42v38h-122v-38h41v-564h-173v564h42v38h-119v-38h41v-563l37 -39h131l-119 -119v-66l16 -15h135v30h-121zM230 602v98h182v-98h-42v-545l-164 -167h116v-90h-177l-34 33v90l77 77h-71l-55 57v545h-41v98h179v-98h-42v-504h113v504h-41z" />
    <glyph glyph-name="uogonek" unicode="&#x173;" horiz-adv-x="390" 
d="M340 30v38h-30v402h-70v-38h30v-364h-150v402h-70v-38h30v-366l36 -36h224zM150 500v-402h90v304h-30v98h130v-402h30v-98l-110 -110h116v-90h-177l-34 33v90l77 77h-137l-55 55v347h-30v98h130zM225 -140v37l103 103h-44l-89 -89v-66l16 -15h135v30h-121z" />
    <glyph glyph-name="Wcircumflex" unicode="&#x174;" horiz-adv-x="567" 
d="M41 670v-38h34l58 -602h73l78 542l78 -542h71l58 602h34v38h-107v-38h35l-54 -562l-78 540h-74l-78 -540l-54 562h35v38h-109zM11 602v98h169v-98h-31l26 -282l46 320h126l46 -316l27 278h-32v98h167v-98h-36l-59 -602h-124l-52 363l-52 -363h-126l-59 602h-36zM311 900
l128 -135h-134l-22 24l-22 -24h-134l128 135h56zM368 795l-70 75h-30l-72 -75h53l34 36l34 -36h51z" />
    <glyph glyph-name="wcircumflex" unicode="&#x175;" horiz-adv-x="490" 
d="M273 700l128 -135h-134l-22 24l-22 -24h-134l128 135h56zM330 595l-70 75h-30l-72 -75h53l34 36l34 -36h51zM357 470v-38h30l-28 -364h-12l-76 402h-50l-76 -402h-12l-28 364h30v38h-95v-38h28l31 -402h69l76 402h2l76 -402h74l25 402h29v38h-93zM327 402v98h153v-98h-30
l-26 -402h-126l-54 274l-51 -274h-122l-31 402h-30v98h155v-98h-28l12 -152l47 250h100l47 -251l12 153h-28z" />
    <glyph glyph-name="Ycircumflex" unicode="&#x176;" horiz-adv-x="391" 
d="M287 98v-98h-182v98h41v149l-110 355h-26v98h162v-98h-31l57 -186l58 186h-31v98h157v-98h-26l-110 -355v-149h41zM40 632h19l117 -379v-185h-41v-38h122v38h-41v185l117 379h19v38h-97v-38h42l-99 -317l-98 317h42v38h-102v-38zM224 900l128 -135h-134l-22 24l-22 -24
h-134l128 135h56zM281 795l-70 75h-30l-72 -75h53l34 36l34 -36h51z" />
    <glyph glyph-name="ycircumflex" unicode="&#x177;" horiz-adv-x="360" 
d="M10 402v98h160v-98h-24l36 -140l35 140h-23v98h156v-98h-28l-126 -504h24v-98h-156v98h27l38 150l-92 354h-27zM40 470v-38h20l100 -382l-46 -182h-20v-38h96v38h-32l141 564h21v38h-96v-38h31l-72 -287l-75 287h32v38h-100zM208 700l128 -135h-134l-22 24l-22 -24h-134
l128 135h56zM265 595l-70 75h-30l-72 -75h53l34 36l34 -36h51z" />
    <glyph glyph-name="Ydieresis" unicode="&#x178;" horiz-adv-x="391" 
d="M287 98v-98h-182v98h41v149l-110 355h-26v98h162v-98h-31l57 -186l58 186h-31v98h157v-98h-26l-110 -355v-149h41zM40 632h19l117 -379v-185h-41v-38h122v38h-41v185l117 379h19v38h-97v-38h42l-99 -317l-98 317h42v38h-102v-38zM62 773v110h110v-110h-110zM92 853v-50
h50v50h-50zM221 773v110h110v-110h-110zM251 853v-50h50v50h-50z" />
    <glyph glyph-name="Zacute" unicode="&#x179;" horiz-adv-x="357" 
d="M51 30h256v142h-38v-104h-178l207 562v40h-240v-142h38v104h162l-207 -562v-40zM337 0h-316v75l194 527h-89v-104h-98v202h300v-75l-194 -527h105v104h98v-202zM178 900h116l-58 -135h-116zM248 870h-49l-33 -75h49z" />
    <glyph glyph-name="zacute" unicode="&#x17a;" horiz-adv-x="310" 
d="M20 350v150h270v-88l-165 -314h77v52h98v-150h-290v88l163 314h-55v-52h-98zM50 470v-90h38v52h135l-183 -352v-50h230v90h-38v-52h-157l185 352v50h-210zM154 700h116l-58 -135h-116zM224 670h-49l-33 -75h49z" />
    <glyph glyph-name="Zdotaccent" unicode="&#x17b;" horiz-adv-x="357" 
d="M51 30h256v142h-38v-104h-178l207 562v40h-240v-142h38v104h162l-207 -562v-40zM337 0h-316v75l194 527h-89v-104h-98v202h300v-75l-194 -527h105v104h98v-202zM125 773v110h110v-110h-110zM155 853v-50h50v50h-50z" />
    <glyph glyph-name="zdotaccent" unicode="&#x17c;" horiz-adv-x="310" 
d="M20 350v150h270v-88l-165 -314h77v52h98v-150h-290v88l163 314h-55v-52h-98zM50 470v-90h38v52h135l-183 -352v-50h230v90h-38v-52h-157l185 352v50h-210zM101 573v110h110v-110h-110zM131 653v-50h50v50h-50z" />
    <glyph glyph-name="Zcaron" unicode="&#x17d;" horiz-adv-x="357" 
d="M51 30h256v142h-38v-104h-178l207 562v40h-240v-142h38v104h162l-207 -562v-40zM337 0h-316v75l194 527h-89v-104h-98v202h300v-75l-194 -527h105v104h98v-202zM151 765l-128 135h134l22 -24l22 24h134l-128 -135h-56zM94 870l70 -75h30l72 75h-53l-34 -36l-34 36h-51z
" />
    <glyph glyph-name="zcaron" unicode="&#x17e;" horiz-adv-x="310" 
d="M20 350v150h270v-88l-165 -314h77v52h98v-150h-290v88l163 314h-55v-52h-98zM50 470v-90h38v52h135l-183 -352v-50h230v90h-38v-52h-157l185 352v50h-210zM127 565l-128 135h134l22 -24l22 24h134l-128 -135h-56zM70 670l70 -75h30l72 75h-53l-34 -36l-34 36h-51z" />
    <glyph glyph-name="florin" unicode="&#x192;" horiz-adv-x="403" 
d="M294 393v-89h-106v-388l-55 -55h-95v98h50v345h-50v89h50v252l55 55h162l55 -55v-104h-98v61h-74v-209h106zM264 334v29h-106v269h134v-61h38v62l-37 37h-138l-37 -37v-270h-50v-29h50v-405h-50v-38h53l37 37v406h106z" />
    <glyph glyph-name="Scommaaccent" unicode="&#x218;" horiz-adv-x="375" 
d="M246 98v208h-153l-55 57v282l55 55h189l57 -57v-145h-98v104h-103v-198h153l55 -55v-292l-55 -57h-205l-57 57v145h98v-104h119zM276 336v-268h-179v104h-38v-103l39 -39h181l37 39v268l-37 37h-171v258h163v-104h38v103l-39 39h-165l-37 -37v-258l37 -39h171zM216 -200
h-96l20 165h96zM153 -170h36l13 105h-35z" />
    <glyph glyph-name="scommaaccent" unicode="&#x219;" horiz-adv-x="330" 
d="M310 244v-189l-55 -55h-180l-55 55v95h98v-52h92v103h-125l-55 55v189l55 55h160l55 -55v-95h-98v52h-72v-103h125zM280 67v165l-37 37h-143v163h132v-52h38v54l-36 36h-137l-37 -37v-165l37 -37h143v-163h-152v52h-38v-54l36 -36h157zM194 -200h-96l20 165h96zM131 -170
h36l13 105h-35z" />
    <glyph glyph-name="dotlessj" unicode="&#x237;" horiz-adv-x="190" 
d="M20 402v98h130v-644l-55 -56h-129l-56 56v94h98v-52h42v504h-30zM50 470v-38h30v-564h-102v52h-38v-52l38 -38h105l37 38v602h-70z" />
    <glyph glyph-name="circumflex" unicode="&#x2c6;" 
d="M213 700l128 -135h-134l-22 24l-22 -24h-134l128 135h56zM270 595l-70 75h-30l-72 -75h53l34 36l34 -36h51z" />
    <glyph glyph-name="caron" unicode="&#x2c7;" 
d="M157 565l-128 135h134l22 -24l22 24h134l-128 -135h-56zM100 670l70 -75h30l72 75h-53l-34 -36l-34 36h-51z" />
    <glyph glyph-name="breve" unicode="&#x2d8;" 
d="M215 655v45h90v-95l-40 -40h-160l-40 40v95h90v-45h60zM245 670v-45h-120v45h-30v-53l22 -22h136l22 22v53h-30z" />
    <glyph glyph-name="dotaccent" unicode="&#x2d9;" 
d="M131 573v110h110v-110h-110zM161 653v-50h50v50h-50z" />
    <glyph glyph-name="ring" unicode="&#x2da;" 
d="M156 656v-57h59v57h-59zM110 586v84l30 30h90l30 -30v-84l-30 -30h-90z" />
    <glyph glyph-name="ogonek" unicode="&#x2db;" 
d="M374 0l-110 -110h116v-90h-177l-34 33v90l137 137zM229 -140v37l103 103l-24 20l-109 -109v-66l16 -15h135v30h-121z" />
    <glyph glyph-name="tilde" unicode="&#x2dc;" 
d="M279 575l-137 18v-28h-90v85l40 40l137 -18v28h90v-85zM112 627l157 -20l20 20v43h-30v-33l-157 21l-20 -20v-43h30v32z" />
    <glyph glyph-name="hungarumlaut" unicode="&#x2dd;" 
d="M259 700h116l-58 -135h-116zM329 670h-49l-33 -75h49zM109 700h116l-58 -135h-116zM179 670h-49l-33 -75h49z" />
    <glyph glyph-name="Iocyrillic" unicode="&#x401;" horiz-adv-x="374" 
d="M355 0h-334v98h41v504h-41v98h334v-202h-98v104h-95v-198h127v-98h-127v-208h95v104h98v-202zM51 30h274v142h-38v-104h-155v268h127v38h-127v258h155v-104h38v142h-274v-38h41v-564h-41v-38zM54 773v110h110v-110h-110zM84 853v-50h50v50h-50zM213 773v110h110v-110
h-110zM243 853v-50h50v50h-50z" />
    <glyph glyph-name="Djecyrillic" unicode="&#x402;" horiz-adv-x="500" 
d="M330 0v98h41v208h-110v-208h39v-98h-178v98h39v504h-48v-104h-98v202h392v-202h-98v104h-48v-198h153l57 -57v-290l-55 -57h-86zM360 68v-38h44l37 39v266l-39 39h-171v258h108v-104h38v142h-332v-142h38v104h108v-564h-39v-38h118v38h-39v268h170v-268h-41z" />
    <glyph glyph-name="Gjecyrillic" unicode="&#x403;" horiz-adv-x="349" 
d="M132 68v564h131v-104h38v142h-250v-38h41v-564h-41v-38h120v38h-39zM162 602v-504h39v-98h-180v98h41v504h-41v98h310v-202h-98v104h-71zM181 900h116l-58 -135h-116zM251 870h-49l-33 -75h49z" />
    <glyph glyph-name="Ecyrillic" unicode="&#x404;" 
d="M273 306h-143v-208h113v104h98v-145l-55 -57h-199l-57 57v588l57 55h254v-202h-98v104h-113v-198h143v-98zM243 374h-143v258h173v-104h38v142h-212l-39 -37v-564l39 -39h175l37 39v103h-38v-104h-173v268h143v38z" />
    <glyph glyph-name="Dzecyrillic" unicode="&#x405;" horiz-adv-x="375" 
d="M246 98v208h-153l-55 57v282l55 55h189l57 -57v-145h-98v104h-103v-198h153l55 -55v-292l-55 -57h-205l-57 57v145h98v-104h119zM276 336v-268h-179v104h-38v-103l39 -39h181l37 39v268l-37 37h-171v258h163v-104h38v103l-39 39h-165l-37 -37v-258l37 -39h171z" />
    <glyph glyph-name="Icyrillic" unicode="&#x406;" horiz-adv-x="221" 
d="M162 602v-504h39v-98h-180v98h41v504h-41v98h180v-98h-39zM132 68v564h39v38h-120v-38h41v-564h-41v-38h120v38h-39z" />
    <glyph glyph-name="Yicyrillic" unicode="&#x407;" horiz-adv-x="221" 
d="M162 602v-504h39v-98h-180v98h41v504h-41v98h180v-98h-39zM132 68v564h39v38h-120v-38h41v-564h-41v-38h120v38h-39zM-23 773v110h110v-110h-110zM7 853v-50h50v50h-50zM136 773v110h110v-110h-110zM166 853v-50h50v50h-50z" />
    <glyph glyph-name="Jecyrillic" unicode="&#x408;" horiz-adv-x="336" 
d="M221 0h-155l-55 57v145h98v-104h67v504h-41v98h182v-98h-41v-545zM78 30h131l37 39v563h41v38h-122v-38h41v-564h-127v104h-38v-103z" />
    <glyph glyph-name="Ljecyrillic" unicode="&#x409;" horiz-adv-x="582" 
d="M321 404h187l57 -54v-295l-57 -55h-279v98h36l-60 421l-60 -421h36v-98h-171v98h37l87 602h144zM251 670h-90l-86 -602h-35v-38h111v38h-42l81 564h30l81 -564h-42v-38h237l39 37v271l-39 36h-203zM298 336h197v-268h-158zM335 306l30 -208h100v208h-130z" />
    <glyph glyph-name="Njecyrillic" unicode="&#x40a;" horiz-adv-x="598" 
d="M371 404h153l57 -54v-295l-57 -55h-294v98h41v208h-109v-208h39v-98h-180v98h41v504h-41v98h180v-98h-39v-198h109v198h-41v98h180v-98h-39v-198zM371 306v-208h110v208h-110zM341 68v268h170v-268h-170zM341 374v258h39v38h-120v-38h41v-258h-169v258h39v38h-120v-38h41
v-564h-41v-38h120v38h-39v268h169v-268h-41v-38h252l39 37v271l-39 36h-171z" />
    <glyph glyph-name="Tshecyrillic" unicode="&#x40b;" horiz-adv-x="533" 
d="M330 0v98h41v208h-110v-208h39v-98h-178v98h39v504h-48v-104h-98v202h392v-202h-98v104h-48v-198h153l57 -57v-249h41v-98h-182zM482 30v38h-41v267l-39 39h-171v258h108v-104h38v142h-332v-142h38v104h108v-564h-39v-38h118v38h-39v268h170v-268h-41v-38h122z" />
    <glyph glyph-name="Kjecyrillic" unicode="&#x40c;" horiz-adv-x="431" 
d="M162 442l96 160h-14v98h160v-98h-35l-112 -184l115 -320h38v-98h-168v98h25l-75 210l-30 -51v-159h39v-98h-180v98h41v504h-41v98h180v-98h-39v-160zM132 262l69 119l112 -313h-41v-38h108v38h-30l-125 352l125 212h24v38h-100v-38h40l-182 -306v306h39v38h-120v-38h41
v-564h-41v-38h120v38h-39v194zM222 900h116l-58 -135h-116zM292 870h-49l-33 -75h49z" />
    <glyph glyph-name="Ushortcyrillic" unicode="&#x40e;" horiz-adv-x="391" 
d="M252 98v-98h-182v98h46l29 150l-109 354h-26v98h162v-98h-31l57 -186l58 186h-31v98h157v-98h-26l-110 -349l-30 -155h36zM40 632h19l117 -379l-35 -185h-41v-38h122v38h-41l35 185l117 379h19v38h-97v-38h42l-99 -317l-98 317h42v38h-102v-38zM225 855v45h90v-95
l-40 -40h-160l-40 40v95h90v-45h60zM255 870v-45h-120v45h-30v-53l22 -22h136l22 22v53h-30z" />
    <glyph glyph-name="Dzhecyrillic" unicode="&#x40f;" horiz-adv-x="431" 
d="M265 0v-104h-98v104h-146v98h39v504h-39v98h180v-98h-41v-504h109v504h-39v98h180v-98h-41v-504h41v-98h-145zM197 30v-104h38v104h145v38h-41v564h41v38h-120v-38h39v-564h-169v564h41v38h-120v-38h39v-564h-39v-38h146z" />
    <glyph glyph-name="Acyrillic" unicode="&#x410;" horiz-adv-x="413" 
d="M229 0v98h36l-13 89h-94l-13 -89h36v-98h-171v98h37l87 602h144l87 -602h37v-98h-173zM151 68h-42l21 149h150l21 -149h-42v-38h113v38h-35l-86 602h-90l-86 -602h-35v-38h111v38zM205 519l-31 -228h63zM190 632h30l54 -371h-138z" />
    <glyph glyph-name="Becyrillic" unicode="&#x411;" horiz-adv-x="401" 
d="M62 602h-41v98h310v-202h-98v104h-71v-198h153l57 -54v-295l-57 -55h-294v98h41v504zM162 306v-208h110v208h-110zM132 68v268h170v-268h-170zM132 632h131v-104h38v142h-250v-38h41v-564h-41v-38h252l39 37v271l-39 36h-171v258z" />
    <glyph glyph-name="Vecyrillic" unicode="&#x412;" horiz-adv-x="401" 
d="M371 325v-268l-57 -57h-294v98h41v504h-41v98h286l55 -55v-260l-25 -25zM341 69v244l-49 46l38 38v236l-37 37h-243v-38h41v-564h-41v-38h252zM301 68h-170v268h135l35 -35v-233zM292 632v-223l-35 -35h-126v258h161zM161 306v-208h110v188l-20 20h-90zM161 602v-198h81
l20 20v178h-101z" />
    <glyph glyph-name="Gecyrillic" unicode="&#x413;" horiz-adv-x="349" 
d="M132 68v564h131v-104h38v142h-250v-38h41v-564h-41v-38h120v38h-39zM162 602v-504h39v-98h-180v98h41v504h-41v98h310v-202h-98v104h-71z" />
    <glyph glyph-name="Decyrillic" unicode="&#x414;" horiz-adv-x="413" 
d="M301 68h-192l81 564h30zM265 98l-60 421l-60 -421h120zM308 0h-204v-104h-98v202h41l87 602h144l87 -602h41v-202h-98v104zM74 30h264v-104h38v142h-39l-86 602h-90l-86 -602h-39v-142h38v104z" />
    <glyph glyph-name="Iecyrillic" unicode="&#x415;" horiz-adv-x="374" 
d="M355 0h-334v98h41v504h-41v98h334v-202h-98v104h-95v-198h127v-98h-127v-208h95v104h98v-202zM51 30h274v142h-38v-104h-155v268h127v38h-127v258h155v-104h38v142h-274v-38h41v-564h-41v-38z" />
    <glyph glyph-name="Zhecyrillic" unicode="&#x416;" horiz-adv-x="648" 
d="M235 381l69 -119v-194h-41v-38h122v38h-41v194l69 119l112 -313h-41v-38h108v38h-30l-125 352l125 212h24v38h-100v-38h40l-182 -306v306h41v38h-122v-38h41v-306l-182 306h40v38h-100v-38h24l125 -212l-125 -352h-30v-38h108v38h-41zM178 602l96 -160v160h-41v98h182
v-98h-41v-160l96 160h-14v98h160v-98h-35l-112 -184l115 -320h38v-98h-168v98h25l-75 210l-30 -51v-159h41v-98h-182v98h41v159l-30 51l-75 -210h25v-98h-168v98h38l115 320l-112 184h-35v98h160v-98h-14z" />
    <glyph glyph-name="Zecyrillic" unicode="&#x417;" 
d="M128 374v-38h108l35 -35v-233h-173v104h-38v-103l37 -39h175l39 39v244l-45 42l45 42v236l-39 37h-212v-142h38v104h173v-223l-35 -35h-108zM341 385l-30 -30l30 -30v-268l-57 -57h-199l-55 57v145h98v-104h113v188l-20 20h-123v98h123l20 20v178h-113v-104h-98v202h254
l57 -55v-260z" />
    <glyph glyph-name="Iicyrillic" unicode="&#x418;" horiz-adv-x="432" 
d="M342 68v564h39v38h-120v-38h41v-51l-170 -363v414h39v38h-120v-38h41v-564h-41v-38h120v38h-39v56l170 363v-419h-41v-38h120v38h-39zM372 602v-504h39v-98h-180v98h41v253l-110 -234v-19h39v-98h-180v98h41v504h-41v98h180v-98h-39v-248l110 234v14h-41v98h180v-98h-39z
" />
    <glyph glyph-name="Iishortcyrillic" unicode="&#x419;" horiz-adv-x="432" 
d="M342 68v564h39v38h-120v-38h41v-51l-170 -363v414h39v38h-120v-38h41v-564h-41v-38h120v38h-39v56l170 363v-419h-41v-38h120v38h-39zM372 602v-504h39v-98h-180v98h41v253l-110 -234v-19h39v-98h-180v98h41v504h-41v98h180v-98h-39v-248l110 234v14h-41v98h180v-98h-39z
M247 855v45h90v-95l-40 -40h-160l-40 40v95h90v-45h60zM277 870v-45h-120v45h-30v-53l22 -22h136l22 22v53h-30z" />
    <glyph glyph-name="Kacyrillic" unicode="&#x41a;" horiz-adv-x="431" 
d="M162 442l96 160h-14v98h160v-98h-35l-112 -184l115 -320h38v-98h-168v98h25l-75 210l-30 -51v-159h39v-98h-180v98h41v504h-41v98h180v-98h-39v-160zM132 262l69 119l112 -313h-41v-38h108v38h-30l-125 352l125 212h24v38h-100v-38h40l-182 -306v306h39v38h-120v-38h41
v-564h-41v-38h120v38h-39v194z" />
    <glyph glyph-name="Elcyrillic" unicode="&#x41b;" horiz-adv-x="413" 
d="M265 98l-60 421l-60 -421h36v-98h-171v98h37l87 602h144l87 -602h37v-98h-173v98h36zM220 632l81 -564h-42v-38h113v38h-35l-86 602h-90l-86 -602h-35v-38h111v38h-42l81 564h30z" />
    <glyph glyph-name="Emcyrillic" unicode="&#x41c;" horiz-adv-x="550" 
d="M37 68v-38h119v38h-40v564l128 -472h60l128 472v-564h-40v-38h121v38h-41v564h41v38h-110l-128 -474l-128 474h-110v-38h41v-564h-41zM7 0v98h41v504h-41v98h163l105 -387l105 387h163v-98h-41v-504h41v-98h-181v98h40v306l-75 -274h-106l-75 274v-306h40v-98h-179z" />
    <glyph glyph-name="Encyrillic" unicode="&#x41d;" horiz-adv-x="431" 
d="M230 0v98h41v208h-109v-208h39v-98h-180v98h41v504h-41v98h180v-98h-39v-198h109v198h-41v98h180v-98h-39v-504h39v-98h-180zM301 68h-41v-38h120v38h-39v564h39v38h-120v-38h41v-258h-169v258h39v38h-120v-38h41v-564h-41v-38h120v38h-39v268h169v-268z" />
    <glyph glyph-name="Ocyrillic" unicode="&#x41e;" 
d="M340 645v-588l-55 -57h-198l-57 57v588l57 55h198zM240 98v504h-110v-504h110zM310 69v564l-37 37h-174l-39 -37v-564l39 -39h174zM270 632v-564h-170v564h170z" />
    <glyph glyph-name="Pecyrillic" unicode="&#x41f;" horiz-adv-x="431" 
d="M230 0v98h41v504h-109v-504h39v-98h-180v98h41v504h-41v98h389v-98h-39v-504h39v-98h-180zM132 632h169v-564h-41v-38h120v38h-39v564h39v38h-329v-38h41v-564h-41v-38h120v38h-39v564z" />
    <glyph glyph-name="Ercyrillic" unicode="&#x420;" horiz-adv-x="401" 
d="M162 257v-159h39v-98h-180v98h41v504h-41v98h294l57 -55v-334l-57 -54h-153zM162 602v-247h110v247h-110zM132 325v307h170v-307h-170zM132 68v219h171l39 36v310l-39 37h-252v-38h41v-564h-41v-38h120v38h-39z" />
    <glyph glyph-name="Escyrillic" unicode="&#x421;" 
d="M286 0h-199l-57 57v588l57 55h199l55 -55v-147h-98v104h-113v-504h113v104h98v-145zM99 30h175l37 39v103h-38v-104h-173v564h173v-104h38v105l-37 37h-175l-39 -37v-564z" />
    <glyph glyph-name="Tecyrillic" unicode="&#x422;" horiz-adv-x="422" 
d="M15 498v202h392v-202h-98v104h-48v-504h39v-98h-178v98h39v504h-48v-104h-98zM45 670v-142h38v104h108v-564h-39v-38h118v38h-39v564h108v-104h38v142h-332z" />
    <glyph glyph-name="Ucyrillic" unicode="&#x423;" horiz-adv-x="391" 
d="M252 98v-98h-182v98h46l29 150l-109 354h-26v98h162v-98h-31l57 -186l58 186h-31v98h157v-98h-26l-110 -349l-30 -155h36zM40 632h19l117 -379l-35 -185h-41v-38h122v38h-41l35 185l117 379h19v38h-97v-38h42l-99 -317l-98 317h42v38h-102v-38z" />
    <glyph glyph-name="Efcyrillic" unicode="&#x424;" horiz-adv-x="550" 
d="M325 438v-176h95v176h-95zM295 232v236h155v-236h-155zM225 262v176h-95v-176h95zM255 468v-236h-155v236h155zM325 164v-66h39v-98h-180v98h41v66h-138l-57 55v263l57 54h138v66h-39v98h180v-98h-41v-66h138l57 -55v-263l-57 -54h-138zM255 632v-126h-156l-39 -36v-239
l39 -37h156v-126h-41v-38h120v38h-39v126h156l39 36v239l-39 37h-156v126h41v38h-120v-38h39z" />
    <glyph glyph-name="Xacyrillic" unicode="&#x425;" horiz-adv-x="412" 
d="M139 68h-42l96 253l100 -253h-42v-38h110v38h-22l-113 293l103 271h22v38h-100v-38h42l-85 -224l-85 224h42v38h-110v-38h22l98 -264l-114 -300h-22v-38h100v38zM221 98h17l-45 109l-41 -109h17v-98h-160v98h24l105 272l-89 232h-24v98h170v-98h-17l30 -78l30 78h-17v98
h160v-98h-24l-93 -241l103 -263h24v-98h-170v98z" />
    <glyph glyph-name="Tsecyrillic" unicode="&#x426;" horiz-adv-x="431" 
d="M380 68h-41v564h41v38h-120v-38h39v-564h-169v564h41v38h-120v-38h39v-564h-39v-38h291v-104h38v142zM312 0h-291v98h39v504h-39v98h180v-98h-41v-504h109v504h-39v98h180v-98h-41v-504h41v-202h-98v104z" />
    <glyph glyph-name="Checyrillic" unicode="&#x427;" horiz-adv-x="431" 
d="M91 632v-267l39 -39h171v-258h-41v-38h120v38h-39v564h39v38h-120v-38h41v-268h-170v268h39v38h-120v-38h41zM118 296l-57 57v249h-41v98h180v-98h-39v-208h110v208h-41v98h180v-98h-39v-504h39v-98h-180v98h41v198h-153z" />
    <glyph glyph-name="Shacyrillic" unicode="&#x428;" horiz-adv-x="640" 
d="M51 30h538v38h-41v564h41v38h-120v-38h39v-564h-169v564h41v38h-120v-38h39v-564h-169v564h41v38h-120v-38h39v-564h-39v-38zM21 0v98h39v504h-39v98h180v-98h-41v-504h109v504h-39v98h180v-98h-41v-504h109v504h-39v98h180v-98h-41v-504h41v-98h-598z" />
    <glyph glyph-name="Shchacyrillic" unicode="&#x429;" horiz-adv-x="640" 
d="M21 0v98h39v504h-39v98h180v-98h-41v-504h109v504h-39v98h180v-98h-41v-504h109v504h-39v98h180v-98h-41v-504h41v-202h-98v104h-500zM51 30h500v-104h38v142h-41v564h41v38h-120v-38h39v-564h-169v564h41v38h-120v-38h39v-564h-169v564h41v38h-120v-38h39v-564h-39v-38z
" />
    <glyph glyph-name="Hardsigncyrillic" unicode="&#x42a;" horiz-adv-x="501" 
d="M113 602v-104h-98v202h286v-98h-39v-198h153l57 -54v-295l-57 -55h-294v98h41v504h-49zM262 306v-208h110v208h-110zM232 68v268h170v-268h-170zM45 670v-142h38v104h109v-564h-41v-38h252l39 37v271l-39 36h-171v258h39v38h-226z" />
    <glyph glyph-name="Yericyrillic" unicode="&#x42b;" horiz-adv-x="601" 
d="M162 602v-198h153l57 -54v-295l-57 -55h-294v98h41v504h-41v98h180v-98h-39zM162 306v-208h110v208h-110zM132 68v268h170v-268h-170zM132 374v258h39v38h-120v-38h41v-564h-41v-38h252l39 37v271l-39 36h-171zM542 602v-504h39v-98h-180v98h41v504h-41v98h180v-98h-39z
M512 68v564h39v38h-120v-38h41v-564h-41v-38h120v38h-39z" />
    <glyph glyph-name="Softsigncyrillic" unicode="&#x42c;" horiz-adv-x="389" 
d="M162 602v-198h153l57 -54v-295l-57 -55h-294v98h41v504h-41v98h180v-98h-39zM162 306v-208h110v208h-110zM132 68v268h170v-268h-170zM132 374v258h39v38h-120v-38h41v-564h-41v-38h252l39 37v271l-39 36h-171z" />
    <glyph glyph-name="Ereversedcyrillic" unicode="&#x42d;" 
d="M241 306h-143v98h143v198h-113v-104h-98v202h254l57 -55v-588l-57 -57h-199l-55 57v145h98v-104h113v208zM271 374h-143v-38h143v-268h-173v104h-38v-103l37 -39h175l39 39v564l-39 37h-212v-142h38v104h173v-258z" />
    <glyph glyph-name="IUcyrillic" unicode="&#x42e;" horiz-adv-x="611" 
d="M271 404v241l57 55h198l55 -55v-588l-55 -57h-198l-57 57v249h-109v-208h39v-98h-180v98h41v504h-41v98h180v-98h-39v-198h109zM301 336v-267l39 -39h174l37 39v564l-37 37h-174l-39 -37v-259h-169v258h39v38h-120v-38h41v-564h-41v-38h120v38h-39v268h169zM481 98v504
h-110v-504h110zM511 632v-564h-170v564h170z" />
    <glyph glyph-name="IAcyrillic" unicode="&#x42f;" horiz-adv-x="403" 
d="M129 287l-51 -219h-27v-38h56l60 257h104v-219h-39v-38h120v38h-41v564h41v38h-252l-39 -37v-310l39 -36h29zM88 257l-57 54v334l57 55h294v-98h-41v-504h41v-98h-180v98h39v159h-48l-60 -257h-112v98h30zM271 632v-307h-170v307h170zM241 355v247h-110v-247h110z" />
    <glyph glyph-name="acyrillic" unicode="&#x430;" horiz-adv-x="360" 
d="M310 445v-347h30v-98h-265l-55 55v195l55 55h135v97h-82v-52h-98v95l55 55h170zM120 207v-109h90v109h-90zM280 68v365l-37 37h-147l-36 -36v-54h38v52h142v-157h-153l-37 -37v-171l37 -37h223v38h-30zM90 68v169h150v-169h-150z" />
    <glyph glyph-name="becyrillic" unicode="&#x431;" horiz-adv-x="341" 
d="M125 402v-304h90v304h-90zM95 470v162h154l37 37v61h-40v-60h-155l-36 -36v-568l36 -36h158l36 36v368l-36 36h-154zM245 432v-364h-150v364h150zM125 500h135l55 -55v-390l-55 -55h-180l-55 55v590l55 55h136v60h100v-103l-55 -55h-136v-102z" />
    <glyph glyph-name="vecyrillic" unicode="&#x432;" horiz-adv-x="373" 
d="M348 225v-168l-57 -57h-271v98h30v304h-30v98h263l55 -55v-160l-25 -25zM318 69v144l-49 46l38 38v136l-37 37h-220v-38h30v-364h-30v-38h229zM278 68h-158v168h123l35 -35v-133zM269 432v-123l-35 -35h-114v158h149zM150 206v-108h98v88l-20 20h-78zM150 402v-98h69
l20 20v78h-89z" />
    <glyph glyph-name="gecyrillic" unicode="&#x433;" horiz-adv-x="323" 
d="M308 500v-161h-98v63h-60v-304h30v-98h-160v98h30v304h-30v98h288zM278 470h-228v-38h30v-364h-30v-38h100v38h-30v364h120v-63h38v101z" />
    <glyph glyph-name="decyrillic" unicode="&#x434;" horiz-adv-x="360" 
d="M178 366l-45 -268h90zM40 68v-142h38v104h204v-104h38v142h-26l-71 402h-86l-71 -402h-26zM97 68l64 364h34l64 -364h-162zM350 98v-202h-98v104h-144v-104h-98v202h30l72 402h136l72 -402h30z" />
    <glyph glyph-name="iecyrillic" unicode="&#x435;" horiz-adv-x="340" 
d="M25 55v390l55 55h180l55 -55v-244h-190v-103h92v52h98v-95l-55 -55h-180zM125 402v-103h90v103h-90zM55 433v-366l37 -37h157l36 36v54h-38v-52h-152v163h190v202l-37 37h-156zM95 269v163h150v-163h-150z" />
    <glyph glyph-name="zhecyrillic" unicode="&#x436;" horiz-adv-x="580" 
d="M310 432h30v38h-100v-38h30v-208l-147 208h37v38h-100v-38h22l92 -127l-103 -237h-21v-38h100v38h-35l84 201l71 -97v-104h-30v-38h100v38h-30v104l71 97l84 -201h-35v-38h100v38h-21l-103 237l92 127h22v38h-100v-38h37l-147 -208v208zM240 319v83h-30v98h160v-98h-30
v-83l59 83h-9v98h160v-98h-37l-72 -100l88 -204h31v-98h-160v98h20l-47 110l-33 -46v-64h30v-98h-160v98h30v64l-33 46l-47 -110h20v-98h-160v98h31l88 204l-72 100h-37v98h160v-98h-9z" />
    <glyph glyph-name="zecyrillic" unicode="&#x437;" horiz-adv-x="341" 
d="M123 274v-38h88l35 -35v-133h-153v54h-38v-53l37 -39h155l39 39v144l-45 42l45 42v136l-39 37h-192v-92h38v54h153v-123l-35 -35h-88zM316 285l-30 -30l30 -30v-168l-57 -57h-179l-55 57v95h98v-54h93v88l-20 20h-103v98h103l20 20v78h-93v-54h-98v152h234l57 -55v-160z
" />
    <glyph glyph-name="iicyrillic" unicode="&#x438;" horiz-adv-x="393" 
d="M310 68v364h30v38h-100v-38h30v-62l-150 -179v241h30v38h-100v-38h30v-364h-30v-38h100v38h-30v62l150 179v-241h-30v-38h100v38h-30zM340 402v-304h30v-98h-160v98h30v127l-90 -107v-20h30v-98h-160v98h30v304h-30v98h160v-98h-30v-127l90 107v20h-30v98h160v-98h-30z
" />
    <glyph glyph-name="iishortcyrillic" unicode="&#x439;" horiz-adv-x="393" 
d="M310 68v364h30v38h-100v-38h30v-62l-150 -179v241h30v38h-100v-38h30v-364h-30v-38h100v38h-30v62l150 179v-241h-30v-38h100v38h-30zM340 402v-304h30v-98h-160v98h30v127l-90 -107v-20h30v-98h-160v98h30v304h-30v98h160v-98h-30v-127l90 107v20h-30v98h160v-98h-30z
M225 655v45h90v-95l-40 -40h-160l-40 40v95h90v-45h60zM255 670v-45h-120v45h-30v-53l22 -22h136l22 22v53h-30z" />
    <glyph glyph-name="kacyrillic" unicode="&#x43a;" horiz-adv-x="390" 
d="M120 432h30v38h-100v-38h30v-364h-30v-38h100v38h-30v104l71 97l84 -201h-35v-38h100v38h-21l-103 237l92 127h22v38h-100v-38h37l-147 -208v208zM150 402v-83l59 83h-9v98h160v-98h-37l-72 -100l88 -204h31v-98h-160v98h20l-47 110l-33 -46v-64h30v-98h-160v98h30v304
h-30v98h160v-98h-30z" />
    <glyph glyph-name="elcyrillic" unicode="&#x43b;" horiz-adv-x="360" 
d="M190 0v98h33l-45 268l-45 -268h33v-98h-156v98h30l72 402h136l72 -402h30v-98h-160zM220 68v-38h100v38h-26l-71 402h-86l-71 -402h-26v-38h96v38h-39l64 364h34l64 -364h-39z" />
    <glyph glyph-name="emcyrillic" unicode="&#x43c;" horiz-adv-x="518" 
d="M50 68v-38h97v38h-29v364l110 -334h60l110 334v-364h-29v-38h99v38h-30v364h30v38h-97l-112 -336l-112 336h-97v-38h30v-364h-30zM20 0v98h30v304h-30v98h150l89 -274l89 274h150v-98h-30v-304h30v-98h-159v98h29v148l-57 -178h-104l-59 178v-148h29v-98h-157z" />
    <glyph glyph-name="encyrillic" unicode="&#x43d;" horiz-adv-x="390" 
d="M210 0v98h30v104h-90v-104h30v-98h-160v98h30v304h-30v98h160v-98h-30v-102h90v102h-30v98h160v-98h-30v-304h30v-98h-160zM270 68h-30v-38h100v38h-30v364h30v38h-100v-38h30v-162h-150v162h30v38h-100v-38h30v-364h-30v-38h100v38h-30v164h150v-164z" />
    <glyph glyph-name="ocyrillic" unicode="&#x43e;" horiz-adv-x="340" 
d="M260 0h-180l-55 55v390l55 55h180l55 -55v-390zM125 402v-304h90v304h-90zM249 30l36 36v368l-36 36h-158l-36 -36v-368l36 -36h158zM245 432v-364h-150v364h150z" />
    <glyph glyph-name="pecyrillic" unicode="&#x43f;" horiz-adv-x="390" 
d="M370 500v-98h-30v-304h30v-98h-160v98h30v304h-90v-304h30v-98h-160v98h30v304h-30v98h350zM340 470h-290v-38h30v-364h-30v-38h100v38h-30v364h150v-364h-30v-38h100v38h-30v364h30v38z" />
    <glyph glyph-name="ercyrillic" unicode="&#x440;" horiz-adv-x="365" 
d="M340 445v-390l-55 -55h-135v-102h30v-98h-160v98h30v504h-30v98h265zM50 470v-38h31v-564h-31v-38h100v38h-30v162h154l36 36v368l-36 36h-224zM270 68h-150v364h150v-364zM150 402v-304h90v304h-90z" />
    <glyph glyph-name="escyrillic" unicode="&#x441;" horiz-adv-x="330" 
d="M250 0h-170l-55 55v390l55 55h170l55 -55v-145h-98v102h-82v-304h82v102h98v-145zM275 330v104l-36 36h-148l-36 -36v-368l36 -36h148l36 36v104h-38v-102h-142v364h142v-102h38z" />
    <glyph glyph-name="tecyrillic" unicode="&#x442;" horiz-adv-x="386" 
d="M15 339v161h356v-161h-98v63h-30v-304h39v-98h-178v98h39v304h-30v-63h-98zM45 470v-101h38v63h90v-364h-39v-38h118v38h-39v364h90v-63h38v101h-296z" />
    <glyph glyph-name="ucyrillic" unicode="&#x443;" horiz-adv-x="360" 
d="M10 402v98h160v-98h-24l36 -140l35 140h-23v98h156v-98h-28l-126 -504h24v-98h-156v98h27l38 150l-92 354h-27zM40 470v-38h20l100 -382l-46 -182h-20v-38h96v38h-32l141 564h21v38h-96v-38h31l-72 -287l-75 287h32v38h-100z" />
    <glyph glyph-name="efcyrillic" unicode="&#x444;" horiz-adv-x="530" 
d="M435 68h-150v364h150v-364zM315 402v-304h90v304h-90zM96 432h150v-364h-150v364zM216 98v304h-90v-304h90zM26 55v390l55 55h135v102h-30v98h160v-98h-30v-102h134l55 -55v-390l-55 -55h-135v-102h30v-98h-160v98h30v102h-134zM92 470l-36 -36v-368l36 -36h154v-162h-31
v-38h100v38h-30v162h154l36 36v368l-36 36h-154v162h31v38h-100v-38h30v-162h-154z" />
    <glyph glyph-name="hacyrillic" unicode="&#x445;" horiz-adv-x="350" 
d="M10 98h25l80 165l-74 139h-26v98h150v-98h-14l32 -60l29 60h-17v98h140v-98h-25l-75 -157l79 -147h26v-98h-150v98h14l-37 69l-34 -69h17v-98h-140v98zM85 68l79 165l88 -165h-32v-38h90v38h-13l-95 178l89 186h14v38h-80v-38h35l-75 -155l-82 155h32v38h-90v-38h13
l90 -169l-94 -195h-14v-38h80v38h-35z" />
    <glyph glyph-name="tsecyrillic" unicode="&#x446;" horiz-adv-x="390" 
d="M340 68h-31v364h31v38h-100v-38h29v-364h-149v364h31v38h-100v-38h29v-364h-29v-38h251v-104h38v142zM272 0h-251v98h29v304h-29v98h160v-98h-31v-304h89v304h-29v98h160v-98h-31v-304h31v-202h-98v104z" />
    <glyph glyph-name="checyrillic" unicode="&#x447;" horiz-adv-x="390" 
d="M240 98v67h-135l-55 55v182h-30v98h160v-98h-30v-139h90v139h-30v98h160v-98h-30v-304h30v-98h-160v98h30zM240 30h100v38h-30v364h30v38h-100v-38h30v-199h-150v199h30v38h-100v-38h30v-201l36 -36h154v-127h-30v-38z" />
    <glyph glyph-name="shacyrillic" unicode="&#x448;" horiz-adv-x="579" 
d="M51 30h478v38h-31v364h31v38h-100v-38h29v-364h-149v364h31v38h-100v-38h29v-364h-149v364h31v38h-100v-38h29v-364h-29v-38zM21 0v98h29v304h-29v98h160v-98h-31v-304h89v304h-29v98h160v-98h-31v-304h89v304h-29v98h160v-98h-31v-304h31v-98h-538z" />
    <glyph glyph-name="shchacyrillic" unicode="&#x449;" horiz-adv-x="579" 
d="M21 0v98h29v304h-29v98h160v-98h-31v-304h89v304h-29v98h160v-98h-31v-304h89v304h-29v98h160v-98h-31v-304h31v-202h-98v104h-440zM51 30h440v-104h38v142h-31v364h31v38h-100v-38h29v-364h-149v364h31v38h-100v-38h29v-364h-149v364h31v38h-100v-38h29v-364h-29v-38z
" />
    <glyph glyph-name="hardsigncyrillic" unicode="&#x44a;" horiz-adv-x="458" 
d="M113 402v-63h-98v161h258v-98h-30v-102h135l55 -55v-190l-55 -55h-265v98h30v304h-30zM45 470v-101h38v63h91v-364h-31v-38h224l36 36v168l-36 36h-154v162h30v38h-198zM213 232h150v-164h-150v164zM243 202v-104h90v104h-90z" />
    <glyph glyph-name="yericyrillic" unicode="&#x44b;" horiz-adv-x="547" 
d="M497 402v-304h30v-98h-160v98h30v304h-30v98h160v-98h-30zM467 68v364h30v38h-100v-38h30v-364h-30v-38h100v38h-30zM340 245v-190l-55 -55h-265v98h30v304h-30v98h160v-98h-30v-102h135zM50 68v-38h224l36 36v168l-36 36h-154v162h30v38h-100v-38h31v-364h-31zM120 232
h150v-164h-150v164zM150 202v-104h90v104h-90z" />
    <glyph glyph-name="softsigncyrillic" unicode="&#x44c;" horiz-adv-x="365" 
d="M340 245v-190l-55 -55h-265v98h30v304h-30v98h160v-98h-30v-102h135zM50 68v-38h224l36 36v168l-36 36h-154v162h30v38h-100v-38h31v-364h-31zM120 232h150v-164h-150v164zM150 202v-104h90v104h-90z" />
    <glyph glyph-name="ereversedcyrillic" unicode="&#x44d;" horiz-adv-x="341" 
d="M123 274v-38h123v-168h-153v54h-38v-53l37 -39h155l39 39v364l-39 37h-192v-92h38v54h153v-158h-123zM316 445v-388l-57 -57h-179l-55 57v95h98v-54h93v108h-123v98h123v98h-93v-54h-98v152h234z" />
    <glyph glyph-name="iucyrillic" unicode="&#x44e;" horiz-adv-x="555" 
d="M240 300v145l55 55h180l55 -55v-390l-55 -55h-180l-55 55v147h-90v-104h30v-98h-160v98h30v304h-30v98h160v-98h-30v-102h90zM270 232v-166l36 -36h158l36 36v368l-36 36h-158l-36 -36v-164h-150v162h30v38h-100v-38h30v-364h-30v-38h100v38h-30v164h150zM340 402v-304
h90v304h-90zM460 432v-364h-150v364h150z" />
    <glyph glyph-name="iacyrillic" unicode="&#x44f;" horiz-adv-x="390" 
d="M270 248h-170v184h170v-184zM240 278v124h-110v-124h110zM172 210h98v-142h-30v-38h100v38h-31v364h31v38h-244l-36 -36v-188l36 -36h35l-60 -142h-21v-38h100v38h-35zM85 180l-55 55v210l55 55h285v-98h-30v-304h30v-98h-160v98h30v82h-47l-33 -82h20v-98h-160v98h31z
" />
    <glyph glyph-name="iocyrillic" unicode="&#x451;" horiz-adv-x="340" 
d="M25 55v390l55 55h180l55 -55v-244h-190v-103h92v52h98v-95l-55 -55h-180zM125 402v-103h90v103h-90zM55 433v-366l37 -37h157l36 36v54h-38v-52h-152v163h190v202l-37 37h-156zM95 269v163h150v-163h-150zM36 573v110h110v-110h-110zM66 653v-50h50v50h-50zM195 573v110
h110v-110h-110zM225 653v-50h50v50h-50z" />
    <glyph glyph-name="djecyrillic" unicode="&#x452;" horiz-adv-x="365" 
d="M340 445v-589l-55 -56h-147l-56 56v94h98v-52h60v504h-90v-304h30v-98h-160v98h30v455h-60v94h60v53h100v-53h89v-94h-89v-53h135zM310 434l-36 36h-154v113h89v34h-89v53h-40v-53h-60v-34h60v-515h-30v-38h100v38h-30v364h150v-564h-120v52h-38v-52l38 -38h123l37 38
v566z" />
    <glyph glyph-name="gjecyrillic" unicode="&#x453;" horiz-adv-x="323" 
d="M308 500v-161h-98v63h-60v-304h30v-98h-160v98h30v304h-30v98h288zM278 470h-228v-38h30v-364h-30v-38h100v38h-30v364h120v-63h38v101zM162 700h116l-58 -135h-116zM232 670h-49l-33 -75h49z" />
    <glyph glyph-name="ecyrillic" unicode="&#x454;" horiz-adv-x="341" 
d="M218 236v38h-123v158h153v-54h38v92h-192l-39 -37v-364l39 -39h155l37 39v53h-38v-54h-153v168h123zM25 57v388l57 55h234v-152h-98v54h-93v-98h123v-98h-123v-108h93v54h98v-95l-55 -57h-179z" />
    <glyph glyph-name="dzecyrillic" unicode="&#x455;" horiz-adv-x="330" 
d="M310 244v-189l-55 -55h-180l-55 55v95h98v-52h92v103h-125l-55 55v189l55 55h160l55 -55v-95h-98v52h-72v-103h125zM280 67v165l-37 37h-143v163h132v-52h38v54l-36 36h-137l-37 -37v-165l37 -37h143v-163h-152v52h-38v-54l36 -36h157z" />
    <glyph glyph-name="icyrillic" unicode="&#x456;" horiz-adv-x="200" 
d="M20 402v98h130v-402h30v-98h-160v98h30v304h-30zM50 470v-38h30v-364h-30v-38h100v38h-30v402h-70zM45 590v110h110v-110h-110zM75 670v-50h50v50h-50z" />
    <glyph glyph-name="yicyrillic" unicode="&#x457;" horiz-adv-x="200" 
d="M20 402v98h130v-402h30v-98h-160v98h30v304h-30zM50 470v-38h30v-364h-30v-38h100v38h-30v402h-70zM-34 573v110h110v-110h-110zM-4 653v-50h50v50h-50zM125 573v110h110v-110h-110zM155 653v-50h50v50h-50z" />
    <glyph glyph-name="jecyrillic" unicode="&#x458;" horiz-adv-x="190" 
d="M20 402v98h130v-644l-55 -56h-129l-56 56v94h98v-52h42v504h-30zM45 590v110h110v-110h-110zM50 470v-38h30v-564h-102v52h-38v-52l38 -38h105l37 38v602h-70zM75 670v-50h50v50h-50z" />
    <glyph glyph-name="ljecyrillic" unicode="&#x459;" horiz-adv-x="525" 
d="M258 270l-35 200h-86l-71 -402h-26v-38h96v38h-39l64 364h34l64 -364h-39v-38h214l36 36v168l-36 36h-176zM265 232h165v-164h-136zM301 202l19 -104h80v104h-99zM190 0v98h33l-45 268l-45 -268h33v-98h-156v98h30l72 402h136l36 -200h161l55 -55v-190l-55 -55h-255z" />
    <glyph glyph-name="njecyrillic" unicode="&#x45a;" horiz-adv-x="555" 
d="M340 300h135l55 -55v-190l-55 -55h-265v98h30v104h-90v-104h30v-98h-160v98h30v304h-30v98h160v-98h-30v-102h90v102h-30v98h160v-98h-30v-102zM310 270v162h30v38h-100v-38h30v-162h-150v162h30v38h-100v-38h30v-364h-30v-38h100v38h-30v164h150v-164h-30v-38h224l36 36
v168l-36 36h-154zM310 232h150v-164h-150v164zM340 202v-104h90v104h-90z" />
    <glyph glyph-name="tshecyrillic" unicode="&#x45b;" horiz-adv-x="390" 
d="M50 553h-60v94h60v53h100v-53h89v-94h-89v-53h135l55 -55v-347h30v-98h-130v402h-90v-304h30v-98h-160v98h30v455zM80 583v-515h-30v-38h100v38h-30v364h150v-402h70v38h-30v366l-36 36h-154v113h89v34h-89v53h-40v-53h-60v-34h60z" />
    <glyph glyph-name="kjecyrillic" unicode="&#x45c;" horiz-adv-x="390" 
d="M120 432h30v38h-100v-38h30v-364h-30v-38h100v38h-30v104l71 97l84 -201h-35v-38h100v38h-21l-103 237l92 127h22v38h-100v-38h37l-147 -208v208zM150 402v-83l59 83h-9v98h160v-98h-37l-72 -100l88 -204h31v-98h-160v98h20l-47 110l-33 -46v-64h30v-98h-160v98h30v304
h-30v98h160v-98h-30zM189 700h116l-58 -135h-116zM259 670h-49l-33 -75h49z" />
    <glyph glyph-name="ushortcyrillic" unicode="&#x45e;" horiz-adv-x="360" 
d="M10 402v98h160v-98h-24l36 -140l35 140h-23v98h156v-98h-28l-126 -504h24v-98h-156v98h27l38 150l-92 354h-27zM40 470v-38h20l100 -382l-46 -182h-20v-38h96v38h-32l141 564h21v38h-96v-38h31l-72 -287l-75 287h32v38h-100zM210 655v45h90v-95l-40 -40h-160l-40 40v95
h90v-45h60zM240 670v-45h-120v45h-30v-53l22 -22h136l22 22v53h-30z" />
    <glyph glyph-name="dzhecyrillic" unicode="&#x45f;" horiz-adv-x="390" 
d="M146 0h-126v98h30v304h-30v98h160v-98h-30v-304h90v304h-30v98h160v-98h-30v-304h30v-98h-126v-104h-98v104zM214 30h126v38h-30v364h30v38h-100v-38h30v-364h-150v364h30v38h-100v-38h30v-364h-30v-38h126v-104h38v104z" />
    <glyph glyph-name="Geupturncyrillic" unicode="&#x490;" horiz-adv-x="349" 
d="M301 632v142h-38v-104h-212v-38h41v-564h-41v-38h120v38h-39v564h169zM233 700v104h98v-202h-169v-504h39v-98h-180v98h41v504h-41v98h212z" />
    <glyph glyph-name="geupturncyrillic" unicode="&#x491;" horiz-adv-x="323" 
d="M210 500v100h98v-198h-158v-304h30v-98h-160v98h30v304h-30v98h190zM278 432v138h-38v-100h-190v-38h30v-364h-30v-38h100v38h-30v364h158z" />
    <glyph glyph-name="Wgrave" unicode="&#x1e80;" horiz-adv-x="567" 
d="M41 670v-38h34l58 -602h73l78 542l78 -542h71l58 602h34v38h-107v-38h35l-54 -562l-78 540h-74l-78 -540l-54 562h35v38h-109zM11 602v98h169v-98h-31l26 -282l46 320h126l46 -316l27 278h-32v98h167v-98h-36l-59 -602h-124l-52 363l-52 -363h-126l-59 602h-36zM168 900
h116l58 -135h-116zM263 870h-49l33 -75h49z" />
    <glyph glyph-name="wgrave" unicode="&#x1e81;" horiz-adv-x="490" 
d="M357 470v-38h30l-28 -364h-12l-76 402h-50l-76 -402h-12l-28 364h30v38h-95v-38h28l31 -402h69l76 402h2l76 -402h74l25 402h29v38h-93zM327 402v98h153v-98h-30l-26 -402h-126l-54 274l-51 -274h-122l-31 402h-30v98h155v-98h-28l12 -152l47 250h100l47 -251l12 153h-28
zM130 700h116l58 -135h-116zM225 670h-49l33 -75h49z" />
    <glyph glyph-name="Wacute" unicode="&#x1e82;" horiz-adv-x="567" 
d="M41 670v-38h34l58 -602h73l78 542l78 -542h71l58 602h34v38h-107v-38h35l-54 -562l-78 540h-74l-78 -540l-54 562h35v38h-109zM11 602v98h169v-98h-31l26 -282l46 320h126l46 -316l27 278h-32v98h167v-98h-36l-59 -602h-124l-52 363l-52 -363h-126l-59 602h-36zM282 900
h116l-58 -135h-116zM352 870h-49l-33 -75h49z" />
    <glyph glyph-name="wacute" unicode="&#x1e83;" horiz-adv-x="490" 
d="M244 700h116l-58 -135h-116zM314 670h-49l-33 -75h49zM357 470v-38h30l-28 -364h-12l-76 402h-50l-76 -402h-12l-28 364h30v38h-95v-38h28l31 -402h69l76 402h2l76 -402h74l25 402h29v38h-93zM327 402v98h153v-98h-30l-26 -402h-126l-54 274l-51 -274h-122l-31 402h-30
v98h155v-98h-28l12 -152l47 250h100l47 -251l12 153h-28z" />
    <glyph glyph-name="Wdieresis" unicode="&#x1e84;" horiz-adv-x="567" 
d="M41 670v-38h34l58 -602h73l78 542l78 -542h71l58 602h34v38h-107v-38h35l-54 -562l-78 540h-74l-78 -540l-54 562h35v38h-109zM11 602v98h169v-98h-31l26 -282l46 320h126l46 -316l27 278h-32v98h167v-98h-36l-59 -602h-124l-52 363l-52 -363h-126l-59 602h-36zM149 773
v110h110v-110h-110zM179 853v-50h50v50h-50zM308 773v110h110v-110h-110zM338 853v-50h50v50h-50z" />
    <glyph glyph-name="wdieresis" unicode="&#x1e85;" horiz-adv-x="490" 
d="M111 573v110h110v-110h-110zM141 653v-50h50v50h-50zM270 573v110h110v-110h-110zM300 653v-50h50v50h-50zM357 470v-38h30l-28 -364h-12l-76 402h-50l-76 -402h-12l-28 364h30v38h-95v-38h28l31 -402h69l76 402h2l76 -402h74l25 402h29v38h-93zM327 402v98h153v-98h-30
l-26 -402h-126l-54 274l-51 -274h-122l-31 402h-30v98h155v-98h-28l12 -152l47 250h100l47 -251l12 153h-28z" />
    <glyph glyph-name="enspace" unicode="&#x2002;" horiz-adv-x="350" 
 />
    <glyph glyph-name="emspace" unicode="&#x2003;" horiz-adv-x="700" 
 />
    <glyph glyph-name="threeperemspace" unicode="&#x2004;" horiz-adv-x="525" 
 />
    <glyph glyph-name="fourperemspace" unicode="&#x2005;" horiz-adv-x="175" 
 />
    <glyph glyph-name="sixperemspace" unicode="&#x2006;" horiz-adv-x="117" 
 />
    <glyph glyph-name="figurespace" unicode="&#x2007;" horiz-adv-x="400" 
 />
    <glyph glyph-name="punctuationspace" unicode="&#x2008;" horiz-adv-x="200" 
 />
    <glyph glyph-name="thinspace" unicode="&#x2009;" horiz-adv-x="100" 
 />
    <glyph glyph-name="hairspace" unicode="&#x200a;" horiz-adv-x="50" 
 />
    <glyph glyph-name="zerowidthspace" unicode="&#x200b;" horiz-adv-x="0" 
 />
    <glyph glyph-name="figuredash" unicode="&#x2012;" horiz-adv-x="400" 
d="M40 252v98h320v-98h-320zM330 282v38h-260v-38h260z" />
    <glyph glyph-name="endash" unicode="&#x2013;" horiz-adv-x="350" 
d="M40 252v98h270v-98h-270zM280 282v38h-210v-38h210z" />
    <glyph glyph-name="emdash" unicode="&#x2014;" horiz-adv-x="700" 
d="M40 252v98h620v-98h-620zM630 282v38h-560v-38h560z" />
    <glyph glyph-name="uni2015" unicode="&#x2015;" horiz-adv-x="800" 
d="M40 252v98h720v-98h-720zM730 282v38h-660v-38h660z" />
    <glyph glyph-name="quoteleft" unicode="&#x2018;" horiz-adv-x="217" 
d="M35 472v109l55 119h96l-51 -111v-117h-100zM65 575v-73h40v93l34 75h-30z" />
    <glyph glyph-name="quoteright" unicode="&#x2019;" horiz-adv-x="217" 
d="M182 700v-109l-55 -119h-96l51 111v117h100zM152 597v73h-40v-93l-34 -75h30z" />
    <glyph glyph-name="quotesinglbase" unicode="&#x201a;" horiz-adv-x="217" 
d="M172 106v-109l-55 -119h-96l51 111v117h100zM142 3v73h-40v-93l-34 -75h30z" />
    <glyph glyph-name="reversequoteleft" unicode="&#x201b;" horiz-adv-x="217" 
d="M61 670v-73l44 -95h30l-34 75v93h-40zM31 591v109h100v-117l51 -111h-96z" />
    <glyph glyph-name="quotedblleft" unicode="&#x201c;" horiz-adv-x="363" 
d="M35 472v109l55 119h96l-51 -111v-117h-100zM65 575v-73h40v93l34 75h-30zM181 472v109l55 119h96l-51 -111v-117h-100zM211 575v-73h40v93l34 75h-30z" />
    <glyph glyph-name="quotedblright" unicode="&#x201d;" horiz-adv-x="363" 
d="M328 700v-109l-55 -119h-96l51 111v117h100zM298 597v73h-40v-93l-34 -75h30zM182 700v-109l-55 -119h-96l51 111v117h100zM152 597v73h-40v-93l-34 -75h30z" />
    <glyph glyph-name="quotedblbase" unicode="&#x201e;" horiz-adv-x="363" 
d="M318 106v-109l-55 -119h-96l51 111v117h100zM288 3v73h-40v-93l-34 -75h30zM172 106v-109l-55 -119h-96l51 111v117h100zM142 3v73h-40v-93l-34 -75h30z" />
    <glyph glyph-name="reversequotedblleft" unicode="&#x201f;" horiz-adv-x="363" 
d="M207 670v-73l44 -95h30l-34 75v93h-40zM177 591v109h100v-117l51 -111h-96zM61 670v-73l44 -95h30l-34 75v93h-40zM31 591v109h100v-117l51 -111h-96z" />
    <glyph glyph-name="dagger" unicode="&#x2020;" horiz-adv-x="380" 
d="M44 505v98h97v97h98v-97h97v-98h-97v-305h-98v305h-97zM209 670h-38v-97h-97v-38h97v-305h38v305h97v38h-97v97z" />
    <glyph glyph-name="daggerdbl" unicode="&#x2021;" horiz-adv-x="380" 
d="M44 505v98h97v97h98v-97h97v-98h-97v-102h97v-98h-97v-305h-98v305h-97v98h97v102h-97zM306 335v38h-97v162h97v38h-97v97h-38v-97h-97v-38h97v-162h-97v-38h97v-305h38v305h97z" />
    <glyph glyph-name="bullet" unicode="&#x2022;" horiz-adv-x="300" 
d="M65 265v170h170v-170h-170zM95 405v-110h110v110h-110zM125 325v50h50v-50h-50z" />
    <glyph glyph-name="ellipsis" unicode="&#x2026;" horiz-adv-x="700" 
d="M76 0v98h98v-98h-98zM106 68v-38h38v38h-38zM301 0v98h98v-98h-98zM331 68v-38h38v38h-38zM526 0v98h98v-98h-98zM556 68v-38h38v38h-38z" />
    <glyph glyph-name="Euro" unicode="&#x20ac;" horiz-adv-x="403" 
d="M297 333l-30 -98h-79v-137h81v61h98v-104l-55 -55h-169l-55 55v180h-50v98h50v35h-50v98h50v179l55 55h169l55 -55v-104h-98v61h-81v-136h149l-30 -98h-119v-35h109zM244 265l12 38h-98v95h127l11 38h-138v196h141v-61h38v62l-37 37h-145l-37 -37v-197h-50v-38h50v-95
h-50v-38h50v-198l37 -37h145l37 37v62h-38v-61h-141v197h86z" />
    <glyph glyph-name="published" unicode="&#x2117;" horiz-adv-x="579" 
d="M268 477v-104h42v104h-42zM268 275v-150h-100v450h199l43 -43v-214l-43 -43h-99zM470 68h-361v564h361v-564zM91 30h397l22 22v596l-22 22h-397l-22 -22v-595zM139 98h301v504h-301v-504zM500 0h-421l-40 40v620l40 40h421l40 -40v-620zM238 343v164h102v-164h-102z
M238 155v150h117l25 25v190l-25 25h-157v-390h40z" />
    <glyph glyph-name="servicemark" unicode="&#x2120;" horiz-adv-x="483" 
d="M319 415l-40 152v-217h-50v350h60l48 -177l48 177h62v-350h-54v218l-39 -153h-35zM135 398v105h-71l-31 31v136l31 30h92l30 -30v-73h-51v55h-47v-101h72l30 -30v-141l-30 -30h-100l-31 30v72h52v-54h54z" />
    <glyph glyph-name="trademark" unicode="&#x2122;" horiz-adv-x="482" 
d="M27 652v48h167v-48h-56v-302h-55v302h-56zM319 415l-40 152v-217h-50v350h61l48 -177l48 177h61v-350h-53v218l-40 -153h-35z" />
    <glyph glyph-name="partialdiff" unicode="&#x2202;" horiz-adv-x="1086" 
d="M1066 637q-29 -7 -41.5 -17.5t-40.5 -52.5l-4 -7q-5 -6 -6.5 -8t-7 -9t-10 -11t-12.5 -11.5t-16 -13.5t-19.5 -14t-24.5 -16q-41 -25 -41 -49q0 -8 4.5 -24t5.5 -22q4 -23 6 -47t3 -32.5t5 -18t13 -18.5q15 -15 15 -36q0 -7 -4 -40t-4 -63q0 -9 2 -35t2 -39
q0 -16 -12 -28q-5 -5 -8.5 -15t-5.5 -12q-6 -6 -23 -6q-15 0 -29.5 4.5t-14.5 11.5q0 5 6.5 13t6.5 10q-1 5 -7.5 6t-6.5 5t16 19.5t16 26.5q0 23 -17 125q-9 13 -34 37.5t-47 59.5q-24 18 -54 18q-33 0 -113 -34t-135 -38q-2 0 -2 -3q0 -16 -1.5 -51.5t-1.5 -54.5
q0 -77 -24 -96q-16 -41 -23 -47q-8 -5 -23 -5q-18 0 -33.5 4.5t-15.5 11.5t4.5 13t8.5 9.5t4 4.5t-4.5 4.5t-4.5 6.5q0 12 41 28q4 20 4 34q0 27 -10 77l-16 73q-64 48 -114 187q-11 32 -30 32q-4 0 -16 -3t-21 -3q-15 0 -15 8q0 4 4.5 11.5t4.5 10.5q0 7 -19.5 9t-42.5 2
t-41.5 6.5t-17.5 21.5q-24 13 -24 41q0 6 7.5 11t34.5 18q7 3 12 5.5l13 6.5l16 8q13 7 28.5 24t33.5 28.5t47 11.5q38 0 71 -32t57.5 -68.5t35.5 -41.5q68 -31 247 -31q29 0 70 3t50 3q38 0 68.5 -13t40.5 -13q39 0 87 36q27 20 49 49.5t24 32.5q34 36 74 36q20 0 20 -11
q0 -10 -20 -14z" />
    <glyph glyph-name="minus" unicode="&#x2212;" horiz-adv-x="403" 
d="M40 301v98h323v-98h-323zM333 331v38h-263v-38h263z" />
    <glyph glyph-name="radical" unicode="&#x221a;" horiz-adv-x="732" 
d="M366 0q-9 0 -19 5q-27 13 -61 34.5t-87.5 66t-95 94t-72.5 122t-31 147.5q0 99 61 165t151 66q88 0 154 -80q66 80 154 80q90 0 151 -66t61 -165q0 -75 -31 -147.5t-72.5 -122t-95 -94t-87.5 -66t-61 -34.5q-10 -5 -19 -5zM606 514q10 1 10 6q0 6 -10 6q-19 0 -35 -17
q-2 -2 -12.5 -16t-22.5 -24q-22 -17 -41 -17q-4 0 -19 6.5t-33 6.5q-5 0 -24 -1.5t-33 -1.5q-85 0 -118 15q-5 2 -16.5 19.5t-27.5 32.5t-34 15q-19 0 -33.5 -14t-18.5 -16q-5 -3 -10 -5.5t-8.5 -4t-6.5 -3.5t-5 -2.5t-4 -1.5t-2.5 -2t-1.5 -1.5t-1 -1.5v-2q0 -6 2.5 -10.5
t5.5 -6.5l3 -2q-1 -12 28.5 -13.5t29.5 -5.5q0 -1 -2 -4.5t-2 -5.5q0 -4 7 -4q4 0 9.5 1.5t7.5 1.5q9 0 15 -15q23 -66 54 -89l7 -35q5 -18 5 -37q0 -6 -2 -16q-19 -7 -19 -13q0 -1 2 -3l2 -2l-4 -5q-4 -4 -4 -8q0 -8 23 -8q3 0 5 0.5t3.5 0.5t2.5 1.5t2 2.5t2.5 3.5t2 4
l2 6t2.5 6.5q12 10 12 46q0 9 0.5 25.5t0.5 24.5q0 1 1 1q26 2 64 18.5t54 16.5q13 0 25 -9q11 -16 22.5 -27.5t16.5 -18.5q8 -53 8 -59q0 -5 -7.5 -12.5t-7.5 -9.5q0 -3 3 -3t3 -2q0 -1 -3 -5t-3 -6q0 -8 21 -8q8 0 11 3q1 1 3 5.5t4 7.5q6 6 6 13q0 6 -1 18.5t-1 16.5
q0 14 1.5 30t1.5 19q0 11 -7 17q-4 4 -6 9t-2.5 9t-1.5 15t-3 22q0 3 -2 10.5t-2 11.5q0 11 19 24q30 17 48 42q13 20 19 25t20 9z" />
    <glyph glyph-name="approxequal" unicode="&#x2248;" horiz-adv-x="403" 
d="M108 425l206 -33l19 19v46h-38v-26l-206 33l-19 -19v-46h38v26zM324 360l-186 29v-20h-98v88l39 39l186 -29v20h98v-88zM108 269l206 -33l19 19v46h-38v-26l-206 33l-19 -19v-46h38v26zM324 204l-186 29v-20h-98v88l39 39l186 -29v20h98v-88z" />
    <glyph glyph-name="notequal" unicode="&#x2260;" horiz-adv-x="403" 
d="M40 378v98h176l49 93h104l-49 -93h43v-98h-95l-30 -56h125v-98h-176l-49 -93h-104l49 93h-43v98h94l30 56h-124zM319 539h-35l-50 -93h-164v-38h144l-61 -116h-83v-38h63l-49 -93h35l49 93h165v38h-145l61 116h84v38h-64z" />
    <glyph glyph-name="fi" unicode="&#xfb01;" horiz-adv-x="540" 
d="M20 402v98h50v145l55 55h140l55 -55v-95h-98v52h-52v-102h120v-98h-120v-304h31v-98h-161v98h30v304h-50zM50 470v-38h50v-364h-30v-38h101v38h-31v364h120v38h-120v162h112v-52h38v53l-37 37h-116l-37 -37v-163h-50zM360 402v98h130v-402h30v-98h-160v98h30v304h-30z
M390 470v-38h30v-364h-30v-38h100v38h-30v402h-70zM385 590v110h110v-110h-110zM415 670v-50h50v50h-50z" />
    <glyph glyph-name="fl" unicode="&#xfb02;" horiz-adv-x="540" 
d="M20 402v98h50v145l55 55h140l55 -55v-95h-98v52h-52v-102h120v-98h-120v-304h31v-98h-161v98h30v304h-50zM50 470v-38h50v-364h-30v-38h101v38h-31v364h120v38h-120v162h112v-52h38v53l-37 37h-116l-37 -37v-163h-50zM360 602v98h130v-602h30v-98h-160v98h30v504h-30z
M390 670v-38h30v-564h-30v-38h100v38h-30v602h-70z" />
    <glyph glyph-name="caronSlovak" unicode="&#x100148;" 
d="M429 525h-89l20 175h89zM373 555h29l14 115h-29z" />
    <glyph glyph-name="commaaccent" unicode="&#x100174;" 
d="M214 -200h-96l20 165h96zM151 -170h36l13 105h-35z" />
    <glyph glyph-name="dotbelow" unicode="&#x1001c7;" 
d="M131 -183v110h110v-110h-110zM161 -103v-50h50v50h-50z" />
    <glyph glyph-name="emdash.cap" unicode="&#x1002d3;" horiz-adv-x="700" 
d="M40 301v98h620v-98h-620zM630 331v38h-560v-38h560z" />
    <glyph glyph-name="endash.cap" unicode="&#x1002d7;" horiz-adv-x="350" 
d="M40 301v98h270v-98h-270zM280 331v38h-210v-38h210z" />
    <glyph glyph-name="figuredash.cap" unicode="&#x100375;" horiz-adv-x="400" 
d="M40 301v98h320v-98h-320zM330 331v38h-260v-38h260z" />
    <glyph glyph-name="hyphen.cap" unicode="&#x100480;" horiz-adv-x="260" 
d="M40 301v98h180v-98h-180zM190 331v38h-120v-38h120z" />
    <glyph glyph-name="idotaccent" unicode="&#x1004c3;" horiz-adv-x="200" 
d="M20 402v98h130v-402h30v-98h-160v98h30v304h-30zM50 470v-38h30v-364h-30v-38h100v38h-30v402h-70zM45 590v110h110v-110h-110zM75 670v-50h50v50h-50z" />
    <glyph glyph-name="invertedbreve" unicode="&#x1004f2;" 
d="M155 610v-45h-90v95l40 40h160l40 -40v-95h-90v45h-60zM125 595v45h120v-45h30v53l-22 22h-136l-22 -22v-53h30z" />
    <glyph glyph-name="onethirdemdash" unicode="&#x100704;" horiz-adv-x="233" 
d="M40 252v98h153v-98h-153zM163 282v38h-93v-38h93z" />
    <glyph glyph-name="onethirdemdash.cap" unicode="&#x100705;" horiz-adv-x="233" 
d="M40 301v98h153v-98h-153zM163 331v38h-93v-38h93z" />
    <glyph glyph-name="periodcentered.cap" unicode="&#x10074e;" horiz-adv-x="230" 
d="M66 301v98h98v-98h-98zM96 369v-38h38v38h-38z" />
    <glyph glyph-name="registered.cap" unicode="&#x1007d2;" horiz-adv-x="579" 
d="M470 68h-361v564h361v-564zM91 30h397l22 22v596l-22 22h-397l-22 -22v-595zM139 98h301v504h-301v-504zM268 477v-104h42v104h-42zM428 125h-105l-43 150h-12v-150h-100v450h198l44 -43v-214l-29 -29zM238 343v164h102v-164h-102zM346 155h42l-43 150h10l25 25v190
l-26 25h-156v-390h40v150h65zM500 0h-421l-40 40v620l40 40h421l40 -40v-620z" />
    <glyph glyph-name="threequarteremdash" unicode="&#x1008b4;" horiz-adv-x="525" 
d="M40 252v98h445v-98h-445zM455 282v38h-385v-38h385z" />
    <glyph glyph-name="threequarteremdash.cap" unicode="&#x1008b5;" horiz-adv-x="525" 
d="M40 301v98h445v-98h-445zM455 331v38h-385v-38h385z" />
    <glyph glyph-name="uni2015.cap" unicode="&#x10094d;" horiz-adv-x="800" 
d="M40 301v98h720v-98h-720zM730 331v38h-660v-38h660z" />
    <glyph glyph-name="doublegrave" 
d="M-5 700h116l58 -135h-116zM90 670h-49l33 -75h49zM145 700h116l58 -135h-116zM240 670h-49l33 -75h49z" />
    </font>
</defs>
</svg>
