<svg xmlns="http://www.w3.org/2000/svg" width="452" height="450" viewBox="0 0 452 450">
    <defs>
        <linearGradient id="wka944a82a" x1="21.371%" x2="88.667%" y1="19.501%" y2="88.204%">
            <stop offset="0%" stop-color="#E31C79"/>
            <stop offset="100%" stop-color="#772583" stop-opacity=".2"/>
        </linearGradient>
    </defs>
    <g fill="none" fill-rule="evenodd" opacity=".203">
        <g fill="url(#wka944a82a)" transform="translate(87 -17)">
            <g>
                <g>
                    <path d="M77.224 202.515c0-29.32 9.678-56.913 27.987-79.803l.498-.63c5.811 4.606 7.079 12.873 2.955 19.02-.615.91-1.16 1.758-1.599 2.482-13 21.489-18.471 46.494-15.554 72.533 2.796 24.913 14.226 48.067 31.64 66.15-1.822 2.32-8.62 7.497-11.421 7.497-22.25-23.79-34.506-54.612-34.506-87.249zm279.89 121.848c-5.773-4.685-6.961-13.027-2.679-19.09 1.398-1.98 2.703-3.892 3.62-5.39 15.01-24.51 22.242-53.504 20.56-83.413-1.776-31.584-13.132-60.75-32.833-84.345l-.517-.617 10.4-8.61.513.621c21.57 25.836 33.998 57.721 35.94 92.2 2.242 39.78-10.008 78.142-34.496 108.023l-.508.621zM174.488 199.208c10.694 19.03 14.068 41.237 9.51 62.517-.46 2.171-.927 4.073-1.42 5.818-1.795 6.327-4.316 12.507-7.494 18.375-2.04 3.767-4.38 7.428-6.952 10.875-3.425 4.583-7.316 8.86-11.575 12.72-2.046 1.856-4.166 3.61-6.295 5.205-1.156.868-2.335 1.717-3.537 2.533-1.477 1.002-3.01 1.977-4.67 2.96l.015.023-3.01 1.726-.038-.074c-12.008 6.226-25.382 9.747-38.723 10.178-.983.028-1.962.047-2.935.047-8.593 0-17.237-1.285-25.55-3.726-4.213-6.151-8.034-12.586-11.491-19.238 2.442 1.336 4.94 2.533 7.484 3.59 10.158 4.227 21.071 6.25 32.05 5.869 12.017-.385 23.522-3.521 34.188-9.315 2.335-1.341 4.66-2.844 6.892-4.459 2.489-1.8 4.842-3.72 6.995-5.701l.21-.19c10.186-9.45 17.595-21.573 21.425-35.059 1.063-3.748 1.845-7.622 2.335-11.519 1.407-11.305.27-22.579-3.295-33.24-.228-.686-.536-1.489-.885-2.347-2.782-6.838-.098-14.669 6.37-18.269l.396.7zM13.194 224.333c0-116.638 94.976-211.198 212.137-211.198 117.156 0 212.137 94.56 212.137 211.198 0 116.643-94.98 211.199-212.137 211.199-117.161 0-212.137-94.556-212.137-211.199zm-13.197 0c0 123.7 101.085 224.337 225.334 224.337 124.249 0 225.329-100.638 225.329-224.337C450.66 100.634 349.58.001 225.33.001 101.083.001-.002 100.634-.002 224.333zm327.775-119.236l.885-.77 6.277-5.108 5.745 6.704-5.67 4.825c-1.3 1.104-1.454 3.062-.34 4.36 1.071 1.249 3.117 1.402 4.37.33l5.387-4.579 6.104 7.256-18.192 15.467-6.17-7.196 3.659-3.108c-1.128-.65-2.032-1.647-2.87-2.644-3.696-4.403-3.295-11.245.833-15.49l-.018-.047zm-29.748 171.817c-12.05 6.365-25.895 7.659-38.975 3.66-13.08-4.004-23.802-12.813-30.186-24.824-6.393-12.002-7.693-25.785-3.677-38.807 4.022-13.017 12.875-23.692 24.935-30.052 7.698-4.06 16.351-6.106 25.032-5.906 18.253.417 35.023 10.554 43.76 26.439.383.728.75 1.46 1.11 2.199.284.58.559 1.164.824 1.758.261.57.513 1.141.75 1.702 4.371 10.88 4.847 22.56 1.38 33.787-4.017 13.009-12.875 23.679-24.953 30.044zm32.781-75.916l-.708.385v-.004l.601-.59-.363-.69-.028.009c-17.134-30.044-55.764-41.326-86.519-25.112-31.514 16.627-43.573 55.68-26.877 87.058 8.084 15.203 21.64 26.356 38.154 31.408 16.323 5 34.198 3.317 49.291-4.649 5.336-2.816 10.238-6.365 14.618-10.591-6.994 13.44-17.716 24.332-31.235 31.686-10.796 5.553-22.367 8.424-34.389 8.536-11.682.134-23.01-2.338-33.373-7.182-2.125-1.122-4.213-2.315-6.268-3.572-6.141-3.748-14.063-2.055-18.224 3.8 3.868 2.964 7.847 5.734 11.98 8.216 0 0 4.362 2.514 4.469 2.574 0-.004.005-.009.005-.014 11.957 5.99 25.186 9.316 38.56 9.622.987.023 1.98.028 2.977.019 13.35-.126 26.798-3.34 38.951-9.293l.038.075 1.92-1.035c.144-.07.293-.14.437-.218l.68-.408-.004-.019c20.116-11.361 34.92-29.705 41.72-51.731 6.285-20.376 5.25-41.493-2.992-61.057-.904-2.259-1.91-4.43-2.992-6.467l-.429-.756z" transform="translate(20 149) translate(-107 -132)"/>
                </g>
            </g>
        </g>
    </g>
</svg>
