<svg width="443" height="442" viewBox="0 0 443 442" xmlns="http://www.w3.org/2000/svg">
    <defs>
        <linearGradient x1="50%" y1="50%" x2="91.581%" y2="99.551%" id="9u1g7jv8fa">
            <stop stop-color="#EFC06E" offset="0%"/>
            <stop stop-color="#772583" offset="100%"/>
        </linearGradient>
    </defs>
    <path d="M75.86 198.914c0-28.799 9.507-55.902 27.491-78.385l.49-.62c5.708 4.525 6.953 12.645 2.902 18.683a58.714 58.714 0 0 0-1.57 2.438c-12.77 21.107-18.144 45.667-15.279 71.244 2.746 24.47 13.975 47.212 31.08 64.974-1.79 2.278-8.468 7.364-11.219 7.364-21.857-23.367-33.895-53.642-33.895-85.698zm274.937 119.681c-5.672-4.602-6.839-12.795-2.632-18.75 1.373-1.946 2.655-3.823 3.556-5.295 14.744-24.073 21.848-52.553 20.195-81.93-1.744-31.022-12.899-59.67-32.251-82.845l-.509-.606 10.217-8.457.504.61c21.188 25.376 33.396 56.695 35.304 90.56 2.202 39.074-9.832 76.753-33.885 106.103l-.5.61zm-179.395-122.93c10.505 18.691 13.82 40.504 9.343 61.406-.454 2.132-.911 4-1.396 5.714a88.884 88.884 0 0 1-7.36 18.049 88.084 88.084 0 0 1-6.83 10.68 87.928 87.928 0 0 1-11.37 12.495 86.168 86.168 0 0 1-6.184 5.113 90.315 90.315 0 0 1-3.474 2.488 88.565 88.565 0 0 1-4.587 2.907l.014.023-2.957 1.695-.037-.073c-11.795 6.115-24.932 9.574-38.037 9.998-.966.027-1.927.045-2.884.045-8.44 0-16.931-1.262-25.097-3.659-4.138-6.042-7.892-12.362-11.288-18.897a76.45 76.45 0 0 0 7.351 3.527c9.979 4.151 20.699 6.138 31.483 5.765 11.805-.379 23.106-3.459 33.584-9.15a77.32 77.32 0 0 0 13.64-9.98l.206-.186c10.006-9.282 17.284-21.189 21.047-34.435a76.602 76.602 0 0 0 2.293-11.315c1.382-11.104.265-22.177-3.236-32.648a38.905 38.905 0 0 0-.87-2.306c-2.733-6.717-.096-14.408 6.257-17.944l.39.688zM12.963 220.344c0-114.565 93.295-207.444 208.382-207.444 115.083 0 208.383 92.88 208.383 207.444 0 114.569-93.3 207.444-208.383 207.444-115.087 0-208.382-92.875-208.382-207.444zm-12.963 0c0 121.5 99.296 220.348 221.345 220.348 122.05 0 221.341-98.848 221.341-220.348C442.686 98.844 343.396 0 221.346 0S0 98.844 0 220.344zm321.973-117.116.87-.757 6.166-5.017 5.643 6.585-5.57 4.739a3.033 3.033 0 0 0-.334 4.283c1.052 1.226 3.062 1.376 4.293.323l5.292-4.497 5.996 7.127-17.87 15.192-6.06-7.068 3.593-3.053c-1.108-.638-1.996-1.617-2.82-2.597-3.63-4.324-3.236-11.046.82-15.215l-.019-.045zm-29.221 168.761c-11.837 6.252-25.437 7.524-38.285 3.596-12.849-3.933-23.381-12.586-29.652-24.383-6.28-11.788-7.557-25.326-3.611-38.117 3.95-12.786 12.647-23.271 24.493-29.518a50.364 50.364 0 0 1 24.59-5.801c17.929.41 34.402 10.367 42.985 25.969a79.499 79.499 0 0 1 1.9 3.887c.256.56.503 1.12.736 1.672 4.294 10.685 4.76 22.16 1.355 33.186-3.945 12.777-12.647 23.258-24.511 29.51zm32.201-74.565-.696.378v-.005l.59-.578-.356-.68-.028.01c-16.83-29.51-54.776-40.591-84.987-24.666-30.956 16.332-42.802 54.69-26.402 85.511 7.942 14.933 21.257 25.887 37.48 30.85 16.034 4.911 33.592 3.257 48.418-4.567a62.982 62.982 0 0 0 14.36-10.403c-6.871 13.201-17.404 23.9-30.683 31.123-10.605 5.454-21.97 8.275-33.78 8.384-11.475.132-22.603-2.297-32.783-7.054a112.509 112.509 0 0 1-6.156-3.508c-6.033-3.682-13.815-2.019-17.902 3.732 3.799 2.911 7.708 5.632 11.768 8.07 0 0 4.284 2.47 4.39 2.528 0-.004.004-.009.004-.013 11.746 5.882 24.74 9.15 37.878 9.45.97.023 1.945.028 2.924.019 13.114-.123 26.325-3.281 38.262-9.127l.037.072 1.886-1.016c.142-.068.288-.136.43-.214l.668-.4-.004-.02c19.76-11.158 34.302-29.176 40.98-50.81 6.175-20.014 5.16-40.756-2.938-59.972a65.426 65.426 0 0 0-2.939-6.352l-.42-.742z" transform="translate(-.003 .501)" fill="url(#9u1g7jv8fa)" fill-rule="evenodd" fill-opacity=".8" opacity=".4"/>
</svg>
