<svg width="451" height="449" viewBox="0 0 451 449" xmlns="http://www.w3.org/2000/svg">
    <defs>
        <linearGradient x1="21.371%" y1="19.501%" x2="88.667%" y2="88.204%" id="ii05h0rrma">
            <stop stop-color="#E31C79" offset="0%"/>
            <stop stop-color="#772583" stop-opacity=".2" offset="100%"/>
        </linearGradient>
    </defs>
    <path d="M77.227 202.514c0-29.32 9.678-56.913 27.986-79.803l.5-.631c5.81 4.607 7.077 12.874 2.953 19.02-.615.91-1.16 1.759-1.598 2.482-13 21.49-18.471 46.494-15.554 72.534 2.796 24.912 14.226 48.066 31.64 66.15-1.822 2.32-8.62 7.497-11.421 7.497-22.251-23.79-34.506-54.612-34.506-87.25zm279.89 121.848c-5.773-4.686-6.961-13.027-2.68-19.09 1.399-1.981 2.704-3.893 3.622-5.391 15.009-24.509 22.24-53.504 20.559-83.412-1.776-31.584-13.132-60.75-32.833-84.345l-.518-.617 10.401-8.61.513.621c21.57 25.836 33.998 57.72 35.94 92.199 2.242 39.78-10.009 78.142-34.496 108.023l-.508.622zM174.491 199.206c10.694 19.03 14.068 41.238 9.51 62.518a89.69 89.69 0 0 1-1.421 5.817 90.497 90.497 0 0 1-7.493 18.376 89.68 89.68 0 0 1-6.952 10.874 89.517 89.517 0 0 1-11.575 12.72 87.721 87.721 0 0 1-6.296 5.206 91.944 91.944 0 0 1-3.536 2.533 90.16 90.16 0 0 1-4.67 2.96l.014.023-3.01 1.726-.037-.074c-12.008 6.225-25.382 9.746-38.723 10.178-.983.028-1.962.046-2.936.046-8.592 0-17.236-1.285-25.55-3.725-4.212-6.152-8.033-12.586-11.49-19.239a77.825 77.825 0 0 0 7.483 3.591c10.159 4.226 21.072 6.25 32.05 5.869 12.018-.385 23.523-3.521 34.19-9.316a78.713 78.713 0 0 0 13.885-10.16l.21-.19c10.186-9.45 17.596-21.572 21.426-35.058a77.994 77.994 0 0 0 2.334-11.52c1.408-11.305.27-22.578-3.294-33.239a39.611 39.611 0 0 0-.885-2.347c-2.782-6.838-.098-14.67 6.37-18.27l.396.701zM13.197 224.332c0-116.638 94.975-211.198 212.137-211.198 117.156 0 212.137 94.56 212.137 211.198 0 116.643-94.98 211.198-212.137 211.198-117.162 0-212.137-94.555-212.137-211.198zm-13.197 0c0 123.699 101.085 224.337 225.334 224.337 124.248 0 225.329-100.638 225.329-224.337C450.663 100.633 349.583 0 225.333 0 101.086 0 0 100.633 0 224.332zm327.775-119.236.885-.77 6.277-5.108 5.745 6.704-5.67 4.824a3.088 3.088 0 0 0-.34 4.361c1.07 1.248 3.116 1.401 4.37.33l5.387-4.58 6.104 7.256-18.192 15.467-6.17-7.195 3.659-3.108c-1.128-.65-2.032-1.647-2.87-2.645-3.696-4.402-3.295-11.245.833-15.49l-.018-.046zm-29.749 171.816c-12.05 6.365-25.894 7.66-38.974 3.66-13.08-4.003-23.802-12.813-30.186-24.824-6.393-12.001-7.694-25.784-3.677-38.806 4.022-13.018 12.875-23.693 24.935-30.053a51.269 51.269 0 0 1 25.032-5.905c18.253.417 35.023 10.554 43.76 26.438a80.94 80.94 0 0 1 1.934 3.957c.261.571.513 1.142.75 1.703 4.371 10.879 4.847 22.56 1.38 33.787-4.017 13.008-12.875 23.678-24.954 30.043zm32.782-75.915-.708.385v-.005l.6-.589-.363-.691-.028.01c-17.134-30.044-55.763-41.327-86.518-25.113-31.514 16.627-43.574 55.68-26.878 87.06 8.085 15.202 21.64 26.354 38.155 31.406 16.323 5.001 34.198 3.317 49.291-4.648a64.117 64.117 0 0 0 14.618-10.591c-6.994 13.44-17.717 24.332-31.235 31.685-10.796 5.553-22.367 8.425-34.389 8.536-11.682.135-23.01-2.338-33.373-7.181a114.534 114.534 0 0 1-6.268-3.572c-6.141-3.749-14.063-2.055-18.224 3.8 3.867 2.964 7.847 5.733 11.98 8.215 0 0 4.362 2.515 4.469 2.575 0-.005.004-.01.004-.014 11.957 5.99 25.187 9.315 38.56 9.622.988.023 1.98.027 2.978.018 13.35-.125 26.798-3.34 38.951-9.292l.037.074 1.92-1.034c.145-.07.294-.14.438-.218l.68-.409-.004-.018c20.116-11.362 34.92-29.705 41.719-51.732 6.286-20.375 5.252-41.492-2.992-61.056a66.613 66.613 0 0 0-2.991-6.467l-.429-.756z" transform="translate(-.003 .001)" fill="url(#ii05h0rrma)" fill-rule="evenodd" opacity=".876"/>
</svg>
