<svg xmlns="http://www.w3.org/2000/svg" width="444" height="442" viewBox="0 0 444 442">
    <defs>
        <linearGradient id="9jk7igvp4a" x1="21.371%" x2="88.667%" y1="19.506%" y2="88.198%">
            <stop offset="0%" stop-color="#E31C79"/>
            <stop offset="100%" stop-color="#772583" stop-opacity=".2"/>
        </linearGradient>
    </defs>
    <g fill="none" fill-rule="evenodd" opacity=".2">
        <g fill="url(#9jk7igvp4a)" transform="translate(-170 -233)">
            <g>
                <g>
                    <path d="M75.857 198.915c0-28.798 9.507-55.902 27.492-78.384l.49-.62c5.707 4.525 6.952 12.645 2.901 18.682-.604.894-1.14 1.727-1.57 2.438-12.77 21.107-18.144 45.668-15.279 71.244 2.747 24.47 13.975 47.212 31.08 64.974-1.79 2.279-8.468 7.364-11.219 7.364-21.856-23.367-33.895-53.642-33.895-85.698zm274.937 119.682c-5.671-4.602-6.839-12.795-2.632-18.751 1.373-1.946 2.655-3.823 3.556-5.295 14.744-24.073 21.848-52.552 20.196-81.93-1.744-31.021-12.9-59.67-32.252-82.845l-.508-.606 10.216-8.457.504.61c21.188 25.377 33.396 56.695 35.305 90.56 2.201 39.074-9.832 76.753-33.886 106.103l-.5.61zM171.4 195.667c10.505 18.69 13.818 40.504 9.342 61.405-.453 2.133-.911 4.001-1.396 5.714-1.762 6.216-4.239 12.285-7.36 18.05-2.005 3.7-4.303 7.295-6.83 10.68-3.364 4.502-7.186 8.704-11.37 12.495-2.01 1.822-4.092 3.545-6.184 5.112-1.135.853-2.293 1.686-3.474 2.488-1.451.985-2.957 1.942-4.587 2.908l.014.022-2.957 1.695-.036-.072c-11.796 6.115-24.933 9.573-38.038 9.997-.966.027-1.927.045-2.884.045-8.44 0-16.931-1.262-25.097-3.659-4.138-6.042-7.891-12.362-11.288-18.896 2.399 1.312 4.852 2.488 7.351 3.527 9.979 4.15 20.699 6.138 31.483 5.764 11.805-.378 23.107-3.459 33.584-9.15 2.293-1.317 4.577-2.793 6.77-4.379 2.444-1.768 4.756-3.654 6.87-5.6l.206-.187c10.006-9.282 17.284-21.189 21.047-34.435 1.044-3.682 1.813-7.487 2.293-11.314 1.383-11.105.266-22.178-3.236-32.649-.224-.674-.526-1.463-.87-2.306-2.732-6.716-.096-14.408 6.257-17.944l.39.688zM12.96 220.344c0-114.564 93.295-207.444 208.383-207.444 115.083 0 208.382 92.88 208.382 207.444 0 114.57-93.3 207.444-208.382 207.444-115.088 0-208.383-92.875-208.383-207.444zm-12.963 0c0 121.5 99.296 220.349 221.346 220.349s221.34-98.849 221.34-220.349c0-121.5-99.29-220.344-221.34-220.344S-.003 98.845-.003 220.345zM321.97 103.23l.87-.757 6.166-5.016 5.644 6.584-5.57 4.739c-1.278 1.084-1.43 3.007-.335 4.283 1.053 1.226 3.062 1.376 4.293.324l5.292-4.498 5.996 7.127-17.87 15.192-6.06-7.067 3.593-3.053c-1.108-.638-1.996-1.618-2.82-2.598-3.63-4.324-3.236-11.045.82-15.215l-.019-.045zM292.75 271.99c-11.837 6.252-25.436 7.523-38.285 3.595-12.848-3.932-23.38-12.586-29.652-24.383-6.28-11.788-7.557-25.326-3.611-38.117 3.95-12.786 12.647-23.27 24.493-29.518 7.562-3.987 16.062-5.997 24.59-5.8 17.929.41 34.403 10.366 42.985 25.968.375.715.737 1.435 1.09 2.16.279.57.549 1.144.81 1.727.256.56.503 1.12.737 1.672 4.293 10.686 4.76 22.16 1.354 33.187-3.945 12.777-12.647 23.257-24.511 29.509zm32.201-74.566l-.695.378v-.004l.59-.58-.357-.678-.027.01c-16.831-29.51-54.777-40.592-84.988-24.666-30.956 16.33-42.802 54.69-26.402 85.51 7.942 14.933 21.258 25.887 37.48 30.85 16.034 4.912 33.593 3.258 48.418-4.566 5.241-2.766 10.057-6.252 14.36-10.403-6.871 13.2-17.403 23.9-30.682 31.122-10.606 5.454-21.971 8.275-33.78 8.384-11.476.133-22.604-2.296-32.784-7.053-2.087-1.103-4.138-2.274-6.156-3.509-6.033-3.682-13.814-2.019-17.902 3.732 3.8 2.912 7.708 5.632 11.768 8.07 0 0 4.285 2.47 4.39 2.529 0-.005.004-.01.004-.014 11.746 5.883 24.74 9.15 37.878 9.45.97.023 1.945.028 2.925.019 13.114-.123 26.324-3.28 38.262-9.127l.036.073 1.886-1.016c.142-.069.288-.137.43-.214l.669-.401-.005-.019c19.76-11.16 34.302-29.176 40.98-50.811 6.176-20.014 5.16-40.756-2.938-59.971-.888-2.22-1.877-4.352-2.939-6.352l-.42-.743z" transform="translate(339 361) translate(-169 -128)"/>
                </g>
            </g>
        </g>
    </g>
</svg>
