 <svg xmlns="http://www.w3.org/2000/svg" width="114" height="118" viewBox="0 0 114 118">
        <defs>
          <path id="ubnwxzdwha" d="M.08 37.511c0 20.525 16.698 37.223 37.223 37.223 20.524 0 37.222-16.698 37.222-37.223C74.525 16.987 57.827.29 37.303.29 16.778.29.08 16.987.08 37.511zm2.18 0C2.26 18.158 17.95 2.47 37.304 2.47S72.345 18.158 72.345 37.51c0 19.354-15.689 35.043-35.042 35.043-19.354 0-35.042-15.69-35.042-35.043zM54.372 17.6l-.146.129.003.007c-.682.704-.75 1.84-.137 2.57.138.165.286.331.474.438l-.605.516 1.02 1.195 3.004-2.567-1.008-1.204-.89.76c-.207.178-.544.152-.722-.055-.184-.215-.159-.54.057-.723l.936-.8-.95-1.113-1.036.847zm-36.91 3.05c-3.025 3.799-4.624 8.377-4.624 13.242 0 5.416 2.025 10.529 5.7 14.477.463 0 1.586-.86 1.887-1.244-2.876-3-4.765-6.842-5.226-10.975-.482-4.321.422-8.47 2.569-12.036.072-.12.162-.26.263-.412.682-1.02.472-2.392-.487-3.156l-.083.104zm39.653 1.46l.086.103c3.255 3.915 5.13 8.754 5.424 13.995.277 4.962-.917 9.772-3.396 13.84-.152.248-.367.565-.598.893-.708 1.007-.511 2.39.442 3.168l.084-.103c4.045-4.958 6.069-11.323 5.698-17.923-.32-5.722-2.373-11.012-5.936-15.298l-.086-.103-1.718 1.428zm-16.762 7.216c-5.206 2.759-7.198 9.239-4.44 14.445 1.336 2.522 3.575 4.373 6.303 5.21 2.696.831 5.649.552 8.142-.77.882-.467 1.691-1.057 2.414-1.758-1.155 2.23-2.925 4.038-5.159 5.258-1.784.921-3.695 1.398-5.68 1.417-1.93.021-3.802-.39-5.514-1.192-.35-.187-.695-.385-1.035-.593-1.014-.622-2.323-.341-3.01.63l-.002.001c.64.491 1.298.95 1.98 1.362l.74.428v-.002c1.975.993 4.16 1.545 6.37 1.596.162.004.327.005.492.004 2.204-.022 4.426-.555 6.434-1.543l.005.013.318-.172.072-.036.113-.069-.002-.002c3.324-1.886 5.769-4.929 6.892-8.583 1.039-3.381.868-6.885-.494-10.131-.15-.375-.315-.736-.494-1.073l-.071-.126-.117.064.1-.098-.06-.115-.005.002c-1.952-3.439-5.596-5.397-9.335-5.397-1.682 0-3.381.396-4.957 1.23zm2.52 17.518c-2.16-.664-3.93-2.127-4.986-4.119-1.055-1.992-1.27-4.278-.606-6.439.663-2.16 2.126-3.931 4.118-4.986 1.27-.674 2.701-1.013 4.135-.98 3.015.069 5.786 1.75 7.23 4.386.062.121.123.244.182.365.047.097.093.194.136.292.044.095.086.19.124.283.722 1.805.8 3.743.228 5.605-.663 2.159-2.127 3.929-4.122 4.985-1.232.655-2.579.986-3.938.986-.836 0-1.677-.125-2.5-.378zM27.788 36.257c.057.143.108.276.146.39.59 1.768.777 3.64.544 5.515-.08.647-.21 1.29-.386 1.91-.632 2.238-1.856 4.25-3.538 5.818l-.036.031c-.355.33-.744.648-1.155.947-.369.268-.753.517-1.139.74-1.761.96-3.661 1.481-5.647 1.545-1.813.063-3.616-.272-5.294-.973-.42-.176-.833-.375-1.236-.596.571 1.104 1.202 2.171 1.898 3.192 1.373.404 2.801.618 4.22.618.161 0 .323-.003.485-.008 2.204-.072 4.413-.655 6.397-1.689l.006.013.497-.287-.002-.003c.274-.164.527-.325.771-.491.199-.136.394-.277.585-.42.35-.266.701-.556 1.04-.865.703-.64 1.346-1.35 1.912-2.11.424-.572.811-1.18 1.148-1.805.524-.973.941-1.999 1.238-3.048.08-.29.158-.605.234-.966.753-3.53.196-7.215-1.571-10.373l-.065-.116c-1.068.597-1.512 1.897-1.052 3.031z" />
          <path id="l5l1cch72c" d="M0 0.075L29.4 0.075 29.4 30.862 0 30.862z" />
          <path id="u0hn4phr3e" d="M0.059 0.075L24.42 0.075 24.42 30.862 0.059 30.862z" />
          <path id="wmeq0ym2cg" d="M0.466 0.075L23.209 0.075 23.209 30.862 0.466 30.862z" />
          <path id="di4ev1618i" d="M0.163 0.075L29.562 0.075 29.562 30.862 0.163 30.862z" />
        </defs>
        <g fill="none" fillRule="evenodd">
          <g>
            <g>
              <g>
                <g transform="translate(-379 -394) translate(339 361) translate(40 33) translate(19.364)">
                  <mask id="tdvxhsne3b" fill="#fff">
                    <use href="#ubnwxzdwha" />
                  </mask>
                  <path fill="#FFF" d="M.08 37.511c0 20.525 16.698 37.223 37.223 37.223 20.524 0 37.222-16.698 37.222-37.223C74.525 16.987 57.827.29 37.303.29 16.778.29.08 16.987.08 37.511zm2.18 0C2.26 18.158 17.95 2.47 37.304 2.47S72.345 18.158 72.345 37.51c0 19.354-15.689 35.043-35.042 35.043-19.354 0-35.042-15.69-35.042-35.043zM54.372 17.6l-.146.129.003.007c-.682.704-.75 1.84-.137 2.57.138.165.286.331.474.438l-.605.516 1.02 1.195 3.004-2.567-1.008-1.204-.89.76c-.207.178-.544.152-.722-.055-.184-.215-.159-.54.057-.723l.936-.8-.95-1.113-1.036.847zm-36.91 3.05c-3.025 3.799-4.624 8.377-4.624 13.242 0 5.416 2.025 10.529 5.7 14.477.463 0 1.586-.86 1.887-1.244-2.876-3-4.765-6.842-5.226-10.975-.482-4.321.422-8.47 2.569-12.036.072-.12.162-.26.263-.412.682-1.02.472-2.392-.487-3.156l-.083.104zm39.653 1.46l.086.103c3.255 3.915 5.13 8.754 5.424 13.995.277 4.962-.917 9.772-3.396 13.84-.152.248-.367.565-.598.893-.708 1.007-.511 2.39.442 3.168l.084-.103c4.045-4.958 6.069-11.323 5.698-17.923-.32-5.722-2.373-11.012-5.936-15.298l-.086-.103-1.718 1.428zm-16.762 7.216c-5.206 2.759-7.198 9.239-4.44 14.445 1.336 2.522 3.575 4.373 6.303 5.21 2.696.831 5.649.552 8.142-.77.882-.467 1.691-1.057 2.414-1.758-1.155 2.23-2.925 4.038-5.159 5.258-1.784.921-3.695 1.398-5.68 1.417-1.93.021-3.802-.39-5.514-1.192-.35-.187-.695-.385-1.035-.593-1.014-.622-2.323-.341-3.01.63l-.002.001c.64.491 1.298.95 1.98 1.362l.74.428v-.002c1.975.993 4.16 1.545 6.37 1.596.162.004.327.005.492.004 2.204-.022 4.426-.555 6.434-1.543l.005.013.318-.172.072-.036.113-.069-.002-.002c3.324-1.886 5.769-4.929 6.892-8.583 1.039-3.381.868-6.885-.494-10.131-.15-.375-.315-.736-.494-1.073l-.071-.126-.117.064.1-.098-.06-.115-.005.002c-1.952-3.439-5.596-5.397-9.335-5.397-1.682 0-3.381.396-4.957 1.23zm2.52 17.518c-2.16-.664-3.93-2.127-4.986-4.119-1.055-1.992-1.27-4.278-.606-6.439.663-2.16 2.126-3.931 4.118-4.986 1.27-.674 2.701-1.013 4.135-.98 3.015.069 5.786 1.75 7.23 4.386.062.121.123.244.182.365.047.097.093.194.136.292.044.095.086.19.124.283.722 1.805.8 3.743.228 5.605-.663 2.159-2.127 3.929-4.122 4.985-1.232.655-2.579.986-3.938.986-.836 0-1.677-.125-2.5-.378zM27.788 36.257c.057.143.108.276.146.39.59 1.768.777 3.64.544 5.515-.08.647-.21 1.29-.386 1.91-.632 2.238-1.856 4.25-3.538 5.818l-.036.031c-.355.33-.744.648-1.155.947-.369.268-.753.517-1.139.74-1.761.96-3.661 1.481-5.647 1.545-1.813.063-3.616-.272-5.294-.973-.42-.176-.833-.375-1.236-.596.571 1.104 1.202 2.171 1.898 3.192 1.373.404 2.801.618 4.22.618.161 0 .323-.003.485-.008 2.204-.072 4.413-.655 6.397-1.689l.006.013.497-.287-.002-.003c.274-.164.527-.325.771-.491.199-.136.394-.277.585-.42.35-.266.701-.556 1.04-.865.703-.64 1.346-1.35 1.912-2.11.424-.572.811-1.18 1.148-1.805.524-.973.941-1.999 1.238-3.048.08-.29.158-.605.234-.966.753-3.53.196-7.215-1.571-10.373l-.065-.116c-1.068.597-1.512 1.897-1.052 3.031z" mask="url(#tdvxhsne3b)" />
                </g>
                <g>
                  <g transform="translate(-379 -394) translate(339 361) translate(40 33) translate(0 86.999)">
                    <mask id="zqk0xughsd" fill="#fff">
                      <use href="#l5l1cch72c" />
                    </mask>
                    <path fill="#FFF" d="M10.632 17.502h10.262L15.763 6.871l-5.131 10.631zM0 30.862L14.838.075h1.85L29.4 26.516l-2.08 4.346-4.716-9.754H8.876l-3.282 6.888c-.402.802-.925 1.471-1.573 2.01-.647.54-1.294.825-1.94.856H0z" mask="url(#zqk0xughsd)" />
                  </g>
                  <g transform="translate(-379 -394) translate(339 361) translate(40 33) translate(0 86.999) translate(31.467)">
                    <mask id="zqahdi1aof" fill="#fff">
                      <use href="#u0hn4phr3e" />
                    </mask>
                    <path fill="#FFF" d="M24.42 19.311c-.03 1.81-.354 3.428-.97 4.854-.617 1.427-1.456 2.64-2.52 3.636-1.063.997-2.334 1.757-3.813 2.278-1.48.523-3.097.783-4.854.783-1.788 0-3.429-.268-4.923-.806-1.495-.536-2.781-1.319-3.86-2.346C2.4 26.68 1.562 25.43.96 23.958c-.6-1.472-.9-3.144-.9-5.015V.075h3.928v19.052c0 2.639.763 4.633 2.289 5.982 1.525 1.35 3.52 2.025 5.986 2.025 2.465 0 4.46-.675 5.986-2.025 1.526-1.35 2.289-3.343 2.289-5.982V4.585c0-.521.1-1.042.3-1.565.2-.521.469-.996.809-1.427.339-.429.732-.781 1.179-1.058.446-.276.931-.414 1.456-.414h.138v19.19z" mask="url(#zqahdi1aof)" />
                  </g>
                  <g transform="translate(-379 -394) translate(339 361) translate(40 33) translate(0 86.999) translate(60.513)">
                    <mask id="xgrc7ze7zh" fill="#fff">
                      <use href="#wmeq0ym2cg" />
                    </mask>
                    <path fill="#FFF" d="M4.395 14.56h4.622c2.22 0 3.89-.388 5.016-1.164 1.124-.776 1.687-2.08 1.687-3.913 0-1.832-.563-3.252-1.687-4.261-1.126-1.009-2.797-1.514-5.016-1.514H4.395V14.56zm4.437 3.633H4.395v8.15c0 .53-.1 1.057-.3 1.584-.201.528-.47 1.01-.81 1.444-.34.435-.732.792-1.178 1.071-.448.28-.933.42-1.456.42H.466V.075H9.11c1.602 0 3.058.217 4.368.652 1.31.435 2.427 1.056 3.351 1.863.925.808 1.642 1.794 2.15 2.957.508 1.165.762 2.477.762 3.936 0 2.236-.593 4.037-1.779 5.403-1.186 1.367-2.813 2.314-4.877 2.841l10.124 13.135h-4.761l-9.616-12.67z" mask="url(#xgrc7ze7zh)" />
                  </g>
                  <g transform="translate(-379 -394) translate(339 361) translate(40 33) translate(0 86.999) translate(84.113)">
                    <mask id="aczackh20j" fill="#fff">
                      <use href="#di4ev1618i" />
                    </mask>
                    <path fill="#FFF" d="M10.795 17.502h10.262L15.925 6.871l-5.13 10.631zM.163 30.862L15.001.075h1.85l12.712 26.441-2.08 4.346-4.716-9.754H9.038l-3.282 6.888c-.4.802-.924 1.471-1.572 2.01-.647.54-1.294.825-1.941.856H.163z" mask="url(#aczackh20j)" />
                  </g>
                </g>
              </g>
            </g>
          </g>
        </g>
      </svg>
