<svg xmlns="http://www.w3.org/2000/svg" width="15" height="15" viewBox="0 0 15 15">
    <g fill="none" fill-rule="evenodd">
        <g>
            <g>
                <g>
                    <g>
                        <g>
                            <path d="M0 0L15 0 15 15 0 15z" transform="translate(-1132 -968) translate(339 850) translate(0 101) translate(793 14) translate(0 3)"/>
                            <path fill="#1DA545" fill-rule="nonzero" d="M7.5 1.25c-3.45 0-6.25 2.8-6.25 6.25s2.8 6.25 6.25 6.25 6.25-2.8 6.25-6.25-2.8-6.25-6.25-6.25zm0 11.25c-2.756 0-5-2.244-5-5s2.244-5 5-5 5 2.244 5 5-2.244 5-5 5zm2.869-7.763L6.25 8.857 4.631 7.243l-.881.881 2.5 2.5 5-5-.881-.888z" transform="translate(-1132 -968) translate(339 850) translate(0 101) translate(793 14) translate(0 3)"/>
                        </g>
                    </g>
                </g>
            </g>
        </g>
    </g>
</svg>
