<svg xmlns="http://www.w3.org/2000/svg" width="15" height="15" viewBox="0 0 15 15">
    <g fill="none" fill-rule="evenodd">
        <g>
            <g>
                <g>
                    <g>
                        <g>
                            <path d="M0 0H15V15H0z" transform="translate(-1132 -918) translate(339 850) translate(0 51) translate(793 14) translate(0 3)"/>
                            <g fill="#FF7600" fill-rule="nonzero" transform="translate(-1132 -918) translate(339 850) translate(0 51) translate(793 14) translate(0 3) translate(1.25 1.25)">
                                <path d="M6.25 0C2.8 0 0 2.8 0 6.25s2.8 6.25 6.25 6.25 6.25-2.8 6.25-6.25S9.7 0 6.25 0zm0 11.25c-2.763 0-5-2.238-5-5 0-2.763 2.237-5 5-5 2.762 0 5 2.237 5 5 0 2.762-2.238 5-5 5z"/>
                                <circle cx="3.125" cy="6.25" r="1"/>
                                <circle cx="6.25" cy="6.25" r="1"/>
                                <circle cx="9.375" cy="6.25" r="1"/>
                            </g>
                        </g>
                    </g>
                </g>
            </g>
        </g>
    </g>
</svg>
