<svg xmlns="http://www.w3.org/2000/svg" width="223" height="83" viewBox="0 0 223 83">
      <defs>
        <path id="zaabrkdt656a" d="M.089 41.493c0 22.703 18.47 41.173 41.173 41.173 22.703 0 41.173-18.47 41.173-41.173C82.435 18.79 63.965.32 41.262.32 18.56.32.09 18.79.09 41.493zm2.412 0c0-21.408 17.353-38.761 38.761-38.761s38.761 17.353 38.761 38.76c0 21.408-17.353 38.762-38.76 38.762C19.853 80.254 2.5 62.9 2.5 41.493zm57.641-22.026l-.162.142.004.008c-.755.78-.83 2.035-.152 2.844.152.182.317.365.524.484l-.669.57 1.128 1.322 3.323-2.84-1.115-1.33-.983.84c-.23.196-.603.168-.8-.062-.203-.237-.175-.596.063-.8l1.036-.884-1.05-1.23-1.147.936zM19.314 22.84C15.968 27.043 14.2 32.107 14.2 37.49c0 5.99 2.24 11.646 6.304 16.013.512 0 1.755-.951 2.087-1.376-3.181-3.32-5.27-7.568-5.78-12.14-.534-4.78.466-9.369 2.841-13.314.08-.133.18-.288.292-.455.754-1.128.522-2.646-.539-3.491l-.091.115zm43.862 1.615l.095.113c3.6 4.331 5.675 9.683 6 15.48.306 5.49-1.015 10.81-3.757 15.31-.168.274-.406.625-.662.988-.782 1.114-.564 2.644.49 3.504l.093-.114c4.474-5.484 6.713-12.525 6.302-19.825-.354-6.33-2.625-12.18-6.566-16.922l-.094-.113-1.9 1.579zm-18.541 7.982c-5.759 3.051-7.962 10.219-4.911 15.978 1.477 2.79 3.954 4.837 6.972 5.764 2.982.918 6.248.609 9.006-.853.975-.516 1.87-1.169 2.67-1.945-1.277 2.467-3.236 4.467-5.706 5.816-1.974 1.02-4.088 1.547-6.284 1.567-2.135.024-4.205-.43-6.098-1.318-.388-.206-.77-.425-1.145-.656-1.122-.688-2.57-.377-3.33.697l-.002.002c.708.542 1.436 1.051 2.19 1.506l.818.473v-.002c2.185 1.098 4.603 1.71 7.046 1.766.18.004.362.005.545.004 2.438-.025 4.895-.614 7.116-1.707l.006.014.352-.19.08-.04.125-.075-.002-.003c3.676-2.086 6.38-5.452 7.623-9.494 1.15-3.74.96-7.616-.546-11.207-.166-.414-.35-.814-.547-1.186l-.079-.14-.13.07.112-.108-.067-.127-.006.003c-2.159-3.804-6.19-5.97-10.325-5.97-1.86 0-3.74.438-5.483 1.36zm2.788 19.377c-2.39-.735-4.349-2.353-5.515-4.556-1.168-2.203-1.406-4.732-.672-7.122.735-2.39 2.352-4.35 4.556-5.516 1.406-.746 2.988-1.12 4.574-1.084 3.334.076 6.4 1.936 7.996 4.852.07.134.137.269.203.403.051.108.102.215.15.323.048.105.095.21.137.313.798 1.996.886 4.14.253 6.2-.735 2.388-2.354 4.346-4.56 5.515-1.363.723-2.853 1.09-4.357 1.09-.924 0-1.855-.138-2.765-.418zm-16.687-11.71c.064.158.12.305.161.432.652 1.956.86 4.025.602 6.1-.088.715-.232 1.426-.426 2.113-.7 2.476-2.053 4.7-3.914 6.435l-.04.035c-.393.364-.823.716-1.277 1.047-.409.297-.833.572-1.26.818-1.948 1.063-4.05 1.639-6.247 1.71-2.005.07-4-.301-5.856-1.077-.465-.195-.921-.415-1.367-.66.632 1.222 1.33 2.403 2.1 3.532 1.518.447 3.098.683 4.668.683.178 0 .357-.003.536-.008 2.438-.08 4.882-.725 7.076-1.868l.007.014.549-.318-.001-.004c.302-.18.583-.358.852-.543.22-.15.436-.305.647-.464.388-.295.776-.615 1.15-.957.778-.707 1.49-1.492 2.115-2.334.47-.632.898-1.304 1.27-1.996.58-1.077 1.041-2.211 1.37-3.372.089-.32.174-.67.259-1.068.833-3.906.216-7.98-1.738-11.474l-.073-.129c-1.181.66-1.672 2.099-1.163 3.354z" />
        <path id="zap7olgmbt8c" d="M0.047 0.163L32.567 0.163 32.567 34.217 0.047 34.217z" />
      </defs>
      <g fill="none" fillRule="evenodd">
        <g>
          <g>
            <g>
              <g transform="translate(-76 -181) translate(20 149) translate(56 32)">
                <mask id="zalp79wgrg4b" fill="#fff">
                  <use href="#zaabrkdt656a" />
                </mask>
                <path fill="#FFF" d="M.089 41.493c0 22.703 18.47 41.173 41.173 41.173 22.703 0 41.173-18.47 41.173-41.173C82.435 18.79 63.965.32 41.262.32 18.56.32.09 18.79.09 41.493zm2.412 0c0-21.408 17.353-38.761 38.761-38.761s38.761 17.353 38.761 38.76c0 21.408-17.353 38.762-38.76 38.762C19.853 80.254 2.5 62.9 2.5 41.493zm57.641-22.026l-.162.142.004.008c-.755.78-.83 2.035-.152 2.844.152.182.317.365.524.484l-.669.57 1.128 1.322 3.323-2.84-1.115-1.33-.983.84c-.23.196-.603.168-.8-.062-.203-.237-.175-.596.063-.8l1.036-.884-1.05-1.23-1.147.936zM19.314 22.84C15.968 27.043 14.2 32.107 14.2 37.49c0 5.99 2.24 11.646 6.304 16.013.512 0 1.755-.951 2.087-1.376-3.181-3.32-5.27-7.568-5.78-12.14-.534-4.78.466-9.369 2.841-13.314.08-.133.18-.288.292-.455.754-1.128.522-2.646-.539-3.491l-.091.115zm43.862 1.615l.095.113c3.6 4.331 5.675 9.683 6 15.48.306 5.49-1.015 10.81-3.757 15.31-.168.274-.406.625-.662.988-.782 1.114-.564 2.644.49 3.504l.093-.114c4.474-5.484 6.713-12.525 6.302-19.825-.354-6.33-2.625-12.18-6.566-16.922l-.094-.113-1.9 1.579zm-18.541 7.982c-5.759 3.051-7.962 10.219-4.911 15.978 1.477 2.79 3.954 4.837 6.972 5.764 2.982.918 6.248.609 9.006-.853.975-.516 1.87-1.169 2.67-1.945-1.277 2.467-3.236 4.467-5.706 5.816-1.974 1.02-4.088 1.547-6.284 1.567-2.135.024-4.205-.43-6.098-1.318-.388-.206-.77-.425-1.145-.656-1.122-.688-2.57-.377-3.33.697l-.002.002c.708.542 1.436 1.051 2.19 1.506l.818.473v-.002c2.185 1.098 4.603 1.71 7.046 1.766.18.004.362.005.545.004 2.438-.025 4.895-.614 7.116-1.707l.006.014.352-.19.08-.04.125-.075-.002-.003c3.676-2.086 6.38-5.452 7.623-9.494 1.15-3.74.96-7.616-.546-11.207-.166-.414-.35-.814-.547-1.186l-.079-.14-.13.07.112-.108-.067-.127-.006.003c-2.159-3.804-6.19-5.97-10.325-5.97-1.86 0-3.74.438-5.483 1.36zm2.788 19.377c-2.39-.735-4.349-2.353-5.515-4.556-1.168-2.203-1.406-4.732-.672-7.122.735-2.39 2.352-4.35 4.556-5.516 1.406-.746 2.988-1.12 4.574-1.084 3.334.076 6.4 1.936 7.996 4.852.07.134.137.269.203.403.051.108.102.215.15.323.048.105.095.21.137.313.798 1.996.886 4.14.253 6.2-.735 2.388-2.354 4.346-4.56 5.515-1.363.723-2.853 1.09-4.357 1.09-.924 0-1.855-.138-2.765-.418zm-16.687-11.71c.064.158.12.305.161.432.652 1.956.86 4.025.602 6.1-.088.715-.232 1.426-.426 2.113-.7 2.476-2.053 4.7-3.914 6.435l-.04.035c-.393.364-.823.716-1.277 1.047-.409.297-.833.572-1.26.818-1.948 1.063-4.05 1.639-6.247 1.71-2.005.07-4-.301-5.856-1.077-.465-.195-.921-.415-1.367-.66.632 1.222 1.33 2.403 2.1 3.532 1.518.447 3.098.683 4.668.683.178 0 .357-.003.536-.008 2.438-.08 4.882-.725 7.076-1.868l.007.014.549-.318-.001-.004c.302-.18.583-.358.852-.543.22-.15.436-.305.647-.464.388-.295.776-.615 1.15-.957.778-.707 1.49-1.492 2.115-2.334.47-.632.898-1.304 1.27-1.996.58-1.077 1.041-2.211 1.37-3.372.089-.32.174-.67.259-1.068.833-3.906.216-7.98-1.738-11.474l-.073-.129c-1.181.66-1.672 2.099-1.163 3.354z" mask="url(#zalp79wgrg4b)" />
              </g>
              <g>
                <g>
                  <path fill="#FFF" d="M12.296 19.44h11.352L17.97 7.68l-5.675 11.76zM.536 34.217L16.949.163h2.045L33.056 29.41l-2.301 4.807-5.216-10.789H10.353l-3.63 7.619c-.444.887-1.023 1.628-1.74 2.224-.715.597-1.43.912-2.146.946H.536zM62.354 21.44c-.034 2.003-.392 3.793-1.073 5.37-.682 1.579-1.61 2.92-2.787 4.022-1.176 1.103-2.582 1.943-4.218 2.52-1.637.578-3.426.865-5.37.865-1.977 0-3.792-.296-5.445-.89-1.654-.594-3.076-1.46-4.269-2.596-1.194-1.138-2.122-2.52-2.787-4.15-.665-1.628-.998-3.478-.998-5.548V.163h4.347v21.074c0 2.92.844 5.125 2.531 6.617 1.688 1.494 3.894 2.24 6.621 2.24 2.727 0 4.935-.746 6.622-2.24 1.688-1.492 2.532-3.698 2.532-6.617V5.152c0-.577.11-1.153.332-1.731.221-.577.519-1.102.895-1.578.375-.475.809-.865 1.304-1.171.494-.305 1.03-.458 1.61-.458h.153v21.227zM72.333 16.186h5.113c2.454 0 4.302-.43 5.548-1.288 1.244-.86 1.866-2.3 1.866-4.328 0-2.026-.622-3.597-1.866-4.714-1.246-1.116-3.094-1.675-5.548-1.675h-5.113v12.005zm4.908 4.018h-4.908v9.016c0 .584-.112 1.168-.332 1.752-.223.583-.52 1.116-.895 1.597-.377.48-.811.876-1.304 1.184-.496.31-1.032.464-1.61.464h-.206V.163h9.562c1.772 0 3.383.24 4.832.721 1.449.481 2.684 1.169 3.707 2.061 1.023.894 1.815 1.984 2.378 3.271.562 1.289.843 2.74.843 4.354 0 2.473-.656 4.465-1.968 5.976-1.312 1.512-3.112 2.56-5.395 3.143l11.198 14.528h-5.266L77.241 20.204z" transform="translate(-76 -181) translate(20 149) translate(56 32) translate(95.048 24.766) translate(0 .015)" />
                  <g transform="translate(-76 -181) translate(20 149) translate(56 32) translate(95.048 24.766) translate(0 .015) translate(93.71)">
                    <mask id="za5ql9s4dmyd" fill="#fff">
                      <use href="#zap7olgmbt8c" />
                    </mask>
                    <path fill="#FFF" d="M11.807 19.44h11.352L17.482 7.68l-5.675 11.76zM.047 34.217L16.46.163h2.045L32.567 29.41l-2.301 4.807-5.216-10.789H9.864l-3.63 7.619c-.444.887-1.023 1.628-1.74 2.224-.715.597-1.43.912-2.146.946h-2.3z" mask="url(#za5ql9s4dmyd)" />
                  </g>
                </g>
              </g>
            </g>
          </g>
        </g>
      </g>
    </svg>
