<svg width="24" height="24" viewBox="0 0 24 24" fill="none" xmlns="http://www.w3.org/2000/svg">
<path d="M12 2C17.5228 2 22 6.47715 22 12C22 17.5228 17.5228 22 12 22C6.47715 22 2 17.5228 2 12C2 6.47715 6.47715 2 12 2Z" fill="#C20606"/>
<path d="M13.125 14.5294H10.875V5.5H13.125V14.5294ZM10.5 17.0098C10.5 16.5915 10.6438 16.232 10.9313 15.9314C11.2313 15.6307 11.5875 15.4804 12 15.4804C12.4 15.4804 12.75 15.6242 13.05 15.9118C13.35 16.1993 13.5 16.5523 13.5 16.9706C13.5 17.3889 13.35 17.7484 13.05 18.049C12.7625 18.3497 12.4125 18.5 12 18.5C11.8 18.5 11.6063 18.4608 11.4188 18.3824C11.2437 18.3039 11.0875 18.1993 10.95 18.0686C10.8125 17.9379 10.7 17.781 10.6125 17.598C10.5375 17.415 10.5 17.219 10.5 17.0098Z" fill="white"/>
</svg>
