<svg width="31" height="29" viewBox="0 0 31 29" xmlns="http://www.w3.org/2000/svg" xmlns:xlink="http://www.w3.org/1999/xlink"><title>C3FA469E-D2DB-4138-9E98-320F0357E6D5</title><defs><path id="a" d="M15.5 28.182H31V0H0v28.182z"/></defs><g fill="none" fill-rule="evenodd"><mask id="b" fill="#fff"><use xlink:href="#a"/></mask><path d="M1.961 14.311h27.115L26.633 27.5c-.08.455-.108.631-.08.523-.028.108-.08.16-.16.16H4.926c-.134 0-.26-.101-.38-.303a1.57 1.57 0 0 1-.22-.659L1.961 14.311zM31 8.34v3.97H0v-3.97h7.65c.16 0 .286-.026.38-.08.093-.054.166-.174.22-.359L11.373 0l1.923.802-2.963 7.5h10.05l-2.92-7.5 1.92-.76 1.202 3.006c.828 2.137 1.455 3.74 1.882 4.81.082.188.173.314.281.38.105.068.253.1.44.1H31z" fill="#003773" mask="url(#b)"/></g></svg>