<svg xmlns="http://www.w3.org/2000/svg" xmlns:xlink="http://www.w3.org/1999/xlink" width="48" height="48" viewBox="0 0 48 48">
<defs>
    <linearGradient id="b" x1="100%" x2="0%" y1="50%" y2="50%">
        <stop offset="0%" stop-color="#E4E4E4"/>
        <stop offset=".706%" stop-color="#E4E4E4"/>
        <stop offset="49.956%" stop-color="#E4E4E4"/>
        <stop offset="50.029%" stop-color="#D6001C"/>
        <stop offset="100%" stop-color="#D6001C"/>
    </linearGradient>
    <path id="a" d="M24.5 38.05c7.483 0 13.55-6.067 13.55-13.55 0-7.483-6.067-13.55-13.55-13.55-7.483 0-13.55 6.067-13.55 13.55 0 7.483 6.067 13.55 13.55 13.55zm0 3.95C14.835 42 7 34.165 7 24.5S14.835 7 24.5 7 42 14.835 42 24.5 34.165 42 24.5 42z">
        <animateTransform  attributeName="transform" type="rotate" from="0 24.5 24.5" to="360 24.5 24.5" dur="0.75s" repeatCount="indefinite" />
    </path>
</defs>
<g fill="none" fill-rule="evenodd">
    <path d="M0 0h48v48H0z"/>
    <path fill="" d="M0 0h48v48H0z"/>
    <use fill="url(#b)" fill-rule="nonzero" xlink:href="#a"/>
</g>
</svg>
