<svg xmlns="http://www.w3.org/2000/svg" width="15" height="15" viewBox="0 0 15 15">
    <path fill="#CC071E" fill-rule="nonzero" d="M7.502 14.278l-.197-.118C6.997 13.974 0 9.643 0 4.738 0 1.638 1.43 0 4.134 0a4.865 4.865 0 0 1 3.368 1.603A4.865 4.865 0 0 1 10.871 0c2.704 0 4.134 1.639 4.134 4.738 0 5.303-7.013 9.26-7.313 9.426l-.19.114zM4.134.79C1.852.79.79 2.045.79 4.738c0 4.036 5.591 7.898 6.712 8.62 1.146-.683 6.713-4.252 6.713-8.62 0-2.693-1.062-3.948-3.344-3.948a3.949 3.949 0 0 0-3.033 1.682l-.336.545-.335-.545A3.949 3.949 0 0 0 4.134.79z"/>
</svg>
