<svg xmlns="http://www.w3.org/2000/svg" width="32" height="44"><g fill="none" fill-rule="evenodd"><path fill="#CD2026" fill-rule="nonzero" d="M16 0C7.177 0 0 7.178 0 16c0 2.302.47 4.5 1.4 6.53 4 8.755 11.67 18.537 13.925 21.16.17.197.416.31.675.31.26 0 .506-.113.675-.31C18.93 41.07 26.6 31.287 30.6 22.53 31.53 20.5 32 18.303 32 16c0-8.822-7.18-16-16-16z"/><path fill="#FFF" d="M24.735 9.332c-.333.148-.592-.007-.998.827-1.276 2.62-2.27 4.74-3.45 7.81.033-2.52.482-4.52.75-6.97.05-.45.12-1.08.11-1.54-.008-.36-.367-.41-1.09-.05-.403.19-.887.18-1.072.66-.786 2.03-2.602 7.69-3.445 10.9-.202.77.56.89.788.1.555-1.91 1.822-6.13 2.576-8.31-.076 1.99-.618 5.14-.365 6.79.08.52.56.74.81 1.18.17.31.46.34.62-.08.74-2.02 2.17-5.57 3.56-8.41-.27 1.25-1.32 6.56-1.61 8.67-.06.42.46.43.92 1.07.1.14.5.3.57-.07.24-1.27 1.85-9.51 2.48-12.13.17-.704.12-1.06-1.18-.48m-10.52 5.99c.55-.826.71-.66.84-.91.166-.315.055-.61-.537-.54 0 0-.22.02-.63.065.66-1.69 1.23-3.12 1.65-4.21.14-.37.16-.64-.07-.695-.247-.06-.956.326-1.39.4-.14.025-.274.17-.32.277-.7 1.6-1.323 3.13-1.865 4.522-.694.12-1.506.28-2.41.48.65-1.668 1.304-3.31 1.945-4.89.317-.78-.513-.858-.835-.068-.42 1.026-1.204 2.946-2.07 5.185-.64.154-1.314.333-2.02.54-.515.145-.54.282-.314.59.12.17.37.154.49.276.3.313.48.692 1.012.75-.48 1.28-.96 2.595-1.39 3.864-.27.8.5.96.8.12.48-1.36.982-2.734 1.5-4.105.43-.1 1.48-.326 2.447-.536-.764 2.1-1.27 3.7-1.46 4.48-.037.15.023.23.055.29.26.38.507.392.84.86.09.13.394.193.5-.12.71-2.15 1.44-4.162 2.12-5.97.282-.06.792-.184 1.104-.65"/><path d="M14.734 18.6c-.05.042-.103.092-.156.143l-.176-.55c.168-.205.33-.407.466-.62.57-.89-.558-1.402-1.044-.825-.26.308-.195.61-.123.87l.1.332c-.14.143-.3.32-.52.578-.55.64-.4 1.472.19 1.656.36.11.7-.054.99-.312l.04.11c.16.388.63.27.45-.196l-.11-.32c.1-.117.18-.237.26-.348.35-.52.01-.827-.34-.52zm-.375-1.224l-.16.165c-.01-.04-.03-.08-.04-.12-.17-.62.54-.45.18-.04zm-.39 1.89c-.22.132-.39-.01-.1-.41.05-.066.1-.124.15-.19l.15.45c-.07.057-.14.108-.21.15z"/></g></svg>