<svg width="16" height="16" xmlns="http://www.w3.org/2000/svg" xmlns:xlink="http://www.w3.org/1999/xlink"><title>79A5E2DA-060F-4468-8208-07DBB03E8570@1.00x</title><defs><path d="M5 9.997L9.997 10 10 5.003 5.003 5 5 9.997zM4 5.003A.996.996 0 0 1 5.003 4h4.994A.996.996 0 0 1 11 5.003v4.994A.996.996 0 0 1 9.997 11H5.003A.996.996 0 0 1 4 9.997V5.003zm1 13.994L9.997 19 10 14.003 5.003 14 5 18.997zm-1-4.994A.996.996 0 0 1 5.003 13h4.994A.996.996 0 0 1 11 14.003v4.994A.996.996 0 0 1 9.997 20H5.003A.996.996 0 0 1 4 18.997v-4.994zm10-4.006l4.997.003L19 5.003 14.003 5 14 9.997zm-1-4.994A.996.996 0 0 1 14.003 4h4.994A.996.996 0 0 1 20 5.003v4.994A.996.996 0 0 1 18.997 11h-4.994A.996.996 0 0 1 13 9.997V5.003zm1 13.994l4.997.003.003-4.997L14.003 14 14 18.997zm-1-4.994A.996.996 0 0 1 14.003 13h4.994A.996.996 0 0 1 20 14.003v4.994A.996.996 0 0 1 18.997 20h-4.994A.996.996 0 0 1 13 18.997v-4.994z" id="prefix__a"/></defs><g transform="translate(-4 -4)" fill="none" fill-rule="evenodd"><path d="M0 0h24v24H0z"/><use fill="#222" xlink:href="#prefix__a"/></g></svg>