<svg width="26" height="26" viewBox="0 0 26 26" fill="none" xmlns="http://www.w3.org/2000/svg">
    <path d="M18.824 1.083C23.266 1.083 26 3.877 26 8.459c0 1.763-1.041 3.932-2.92 6.449-.965 1.291-2.135 2.65-3.463 4.048a77.595 77.595 0 0 1-4.32 4.187 77.438 77.438 0 0 1-1.967 1.712l-.33.272-.33-.273c-.101-.082-.286-.238-.545-.46a79.133 79.133 0 0 1-1.423-1.25 77.58 77.58 0 0 1-4.319-4.188c-1.33-1.398-2.497-2.757-3.462-4.048C1.04 12.39 0 10.22 0 8.457c0-4.58 2.734-7.374 7.176-7.374 2.253 0 4.582 1.693 5.824 3.879 1.24-2.188 3.569-3.878 5.824-3.878zM13 23.607l.195-.167c.415-.356.88-.762 1.38-1.213a75.266 75.266 0 0 0 4.186-4.058c1.279-1.348 2.402-2.652 3.324-3.886 1.726-2.31 2.667-4.272 2.667-5.727 0-3.943-2.235-6.226-6.029-6.226-2.087 0-4.386 1.916-5.245 4.164L13 7.74l-.477-1.248c-.86-2.247-3.16-4.164-5.247-4.164-3.794 0-6.03 2.283-6.03 6.226 0 1.455.943 3.417 2.668 5.727.92 1.235 2.044 2.538 3.324 3.886a75.31 75.31 0 0 0 4.187 4.059c.518.466 1.044.926 1.575 1.378v.001z" fill="#222"/>
</svg>
