<svg width="26" height="26" viewBox="0 0 26 26" fill="none" xmlns="http://www.w3.org/2000/svg">
    <path d="M18.824 1.083C23.266 1.083 26 3.876 26 8.458c0 1.763-1.041 3.932-2.92 6.449-.965 1.29-2.135 2.65-3.463 4.048a77.63 77.63 0 0 1-4.32 4.187 77.638 77.638 0 0 1-1.967 1.712l-.33.272-.33-.273c-.101-.083-.286-.239-.545-.46a78.71 78.71 0 0 1-1.423-1.25 77.615 77.615 0 0 1-4.319-4.188c-1.33-1.399-2.497-2.757-3.462-4.048C1.04 12.39 0 10.22 0 8.457c0-4.58 2.734-7.374 7.176-7.374 2.253 0 4.582 1.692 5.824 3.879 1.24-2.189 3.569-3.879 5.824-3.879zM13 23.606l.195-.167c.415-.357.88-.763 1.38-1.213a75.304 75.304 0 0 0 4.186-4.059c1.279-1.347 2.402-2.652 3.324-3.886 1.726-2.31 2.667-4.271 2.667-5.726 0-3.943-2.235-6.226-6.029-6.226-2.087 0-4.386 1.915-5.245 4.163L13 7.74l-.477-1.248c-.86-2.247-3.16-4.163-5.247-4.163-3.794 0-6.03 2.283-6.03 6.226 0 1.455.943 3.417 2.668 5.726.92 1.236 2.044 2.539 3.324 3.886a75.276 75.276 0 0 0 4.187 4.06c.518.466 1.044.926 1.575 1.378z" fill="#EB0000"/>
    <path d="M7.583 2.167c2.167 0 4.514 3.61 5.417 5.416-.18-1.986 2.167-5.416 6.5-5.416 7.063 0 4.875 8.666 3.792 10.833-.867 1.733-7.223 7.945-10.292 10.833-1.264-1.083-4.983-5.2-9.75-10.833C-2.708 5.958 4.875 2.167 7.583 2.167z" fill="#EB0000" stroke="#EB0000"/>
</svg>
