<?xml version="1.0" encoding="UTF-8"?>
<svg width="53px" height="20px" viewBox="0 0 53 20" version="1.1" xmlns="http://www.w3.org/2000/svg" xmlns:xlink="http://www.w3.org/1999/xlink">
    <title>path-1</title>
    <g id="Home,-DP,--PDP,-PLP,-Bag,-Search" stroke="none" stroke-width="1" fill="none" fill-rule="evenodd">
        <g id="Navigation-for-web-+-mobile-web" transform="translate(-305.000000, -77.000000)" fill="#328648" fill-rule="nonzero">
            <g id="aerie" transform="translate(305.000000, 77.000000)">
                <path d="M52.0706889,13.0383204 C51.4743385,13.6283385 50.9272014,14.0563717 50.2690931,14.5766872 C49.0734973,15.5220906 48.137478,16.2397332 46.8424905,17.0928543 C45.5677674,17.9322311 44.0074137,18.8432741 42.535837,18.1158141 C41.8024611,17.752575 41.1675119,17.15863 40.9349545,16.4606219 C40.6145851,15.4946022 40.6425692,14.444154 40.5422125,14.3479447 C40.1784194,14.6778051 38.8699224,16.1189808 38.6026262,16.3663761 C37.8933745,17.0221699 37.7495941,17.1232878 37.419575,17.417806 C37.1107852,17.6926897 36.5076799,18.1707909 36.1062531,18.2846712 C35.6720174,18.4093506 35.2455014,18.4672725 34.8064408,18.3730267 C34.5623038,18.3435749 34.2863229,18.1010882 34.1232432,17.9518657 C33.7941891,17.6504754 33.672603,17.2155702 33.6320744,16.8160071 C33.5471571,15.9746669 33.6282145,15.7096005 33.3966221,15.5721586 C33.3580234,15.5368165 31.4415963,17.3471217 31.2312332,17.5051798 C30.0887107,18.3622277 29.3331405,18.8079319 28.3720321,19.3940231 C27.7834015,19.7533353 26.0175094,19.9516442 25.4365985,19.7592257 C24.3056556,19.3851875 24.1271365,18.2404935 24.1261715,17.6494936 C24.1261715,17.3019622 24.1657352,17.0260968 24.2670569,16.6923095 C24.3780283,16.3329973 24.4861047,15.9982283 24.627955,15.6516786 C24.9232353,14.994903 25.3565061,14.3184965 25.7627578,13.7157123 C26.2500668,12.9911975 27.4273281,10.9560768 27.5614587,10.7086815 C27.7177835,10.4161268 27.8837581,10.2217448 27.9744652,9.90268345 C28.0767518,9.54238952 28.0574524,9.4098563 27.6087422,9.49035792 C27.340481,9.53846257 27.0423058,9.54140778 26.789484,9.64645259 C26.4681496,9.77996748 26.3494585,10.0725223 26.1738342,10.3277714 C25.9518916,10.6537048 25.6701208,11.0100718 25.4047545,11.3075352 C25.1258787,11.6216879 23.3763912,13.4231576 23.1206745,13.7520363 C22.9045216,14.0318285 20.8703684,16.1219259 20.2566486,16.5656667 C19.9449638,16.7924457 19.3630879,17.3373044 19.0533331,17.568992 C18.6769955,17.8527112 18.3797852,17.9960434 17.9658138,18.231658 C17.6898329,18.3887343 17.0076002,18.7676811 16.6476671,18.9463555 C13.0454404,20.6241274 12.2503065,19.6757788 12.0650326,19.5344101 C10.8597871,18.6135499 10.9311948,16.2986369 10.6967075,16.3467415 C10.3811628,16.4105538 9.06301615,17.6966165 8.74940143,18.0254952 C8.5872868,18.1953341 7.56345537,19.3527906 7.28747442,19.5344101 C6.66603486,19.9428087 5.93169397,19.7415546 5.61325443,19.0769252 C5.20700277,18.231658 5.44149007,17.3107978 5.321834,17.2636748 C5.17129894,17.3019622 4.62030203,17.8438756 4.5054708,17.946957 C4.31826695,18.1158141 3.1506553,19.3586809 2.69422528,19.5913503 C2.19147679,19.8495446 1.97146401,20.1479897 1.22264861,19.9172837 C0.916753648,19.8240197 0.679371445,19.4509633 0.467078417,19.2310563 C0.163113398,18.9178853 -0.191994941,17.6396764 0.122584729,16.6088627 C0.348387314,15.869622 0.571294994,14.768124 0.937017982,14.1388368 C1.51985885,13.1306028 1.89137164,12.5346944 2.65080171,11.6236514 C2.98082087,11.2280153 4.70907912,9.64743433 5.11919065,9.36469687 C5.66729266,8.98673185 6.20478001,8.58422364 6.78279603,8.24650943 C7.21510183,7.99420553 7.49494265,7.84105607 8.01023571,7.75073714 C8.30165616,7.69968734 9.00415305,7.65256443 10.0299144,8.2857785 C10.1717647,8.37315229 10.193959,8.18956927 10.3425641,8.05998127 C10.8182935,7.64667407 11.3181471,7.51315911 12.0650326,7.62213088 C12.3960167,7.67023552 12.3188193,8.31621206 12.2068829,8.59698611 C11.9453765,9.97140434 11.0450611,11.0473775 10.1553603,12.1272775 C9.07266584,13.4398469 8.06427392,14.8466622 7.32510819,16.3575405 C7.06360181,16.8925819 6.62743613,17.9872078 6.82911451,18.5752625 C6.90631197,18.8010598 7.59433439,18.1207227 7.62617834,18.0834171 C7.86742039,17.7938076 8.24665294,17.4560934 8.47921031,17.1635387 C8.9095862,16.6206435 9.58506402,15.8814028 10.0038603,15.4288264 C10.4216915,14.9772319 11.2062108,14.343036 11.6568509,13.8040678 C12.7800741,12.4610648 13.4758163,11.639359 14.6337782,10.4524507 C14.9280936,10.1510604 15.6228707,9.49428487 16.1043899,9.19583973 C16.4257244,8.99556736 16.9014538,8.6725791 17.2999856,8.40358577 C17.9812533,7.94315566 18.3739954,7.70066908 19.0938617,7.29914261 C22.162461,5.58701014 22.9489101,6.36748336 23.1013752,6.61586037 C23.2306809,6.82987693 23.3011236,7.11850474 23.3339325,7.33939342 C23.41113,7.86756267 23.2248911,8.65981663 23.0048784,9.14478993 C22.7153879,9.77898581 21.9868368,10.4848477 21.4377698,10.9305519 C20.9388812,11.3360053 20.4332378,11.693354 19.9054001,12.0880084 C19.1623745,12.6436661 18.356626,13.0373388 17.6290399,13.4663536 C16.955492,13.8629714 16.4305492,14.3273284 15.8245491,14.8123017 C15.2407433,15.2796039 14.7698387,15.9049642 14.2960393,16.4606219 C13.970845,16.8434955 13.6195965,17.9391032 14.4706986,17.8959072 C15.2571477,17.8566381 16.3736161,17.6720733 17.9320399,16.72667 C19.5473969,15.7469061 20.4998206,14.8299728 21.1781933,14.2811872 C21.7552444,13.8148668 23.6050887,12.0634653 24.2043339,11.3890186 C24.6983977,10.8343427 25.3381717,10.2374524 25.6720508,9.54042604 C25.9046081,9.05741622 24.6713786,8.45856253 24.7080474,7.64274711 C24.720592,7.37571734 24.8334933,7.19704295 24.9521844,6.9584832 C25.6585412,5.53596033 27.3646052,6.23691363 27.4639969,6.74152146 C27.4948759,6.89957957 27.5132103,7.03800311 27.52286,7.18624396 C27.5334747,7.34724719 27.4524173,8.00991314 27.6888345,8.0403467 C28.0449078,8.08746961 28.466599,7.90879522 28.8226723,7.88228862 C29.2646278,7.84890984 29.7085132,7.87050789 30.1504687,7.84203781 C30.6792713,7.80865904 31.4531759,7.95493639 31.7291568,8.43598281 C31.7146823,8.49488645 32.1836569,9.10453913 31.7716155,9.76425987 C31.420367,10.3267896 30.5731249,11.4695202 30.3675866,11.6943358 C29.9179114,12.1842177 29.8107999,12.2833721 29.3997234,12.7958338 C28.4183506,14.0249564 27.767962,14.6778051 26.9371242,16.1405788 C26.5964904,16.7404141 26.1564649,17.3304323 26.1738342,18.0392394 C26.1805891,18.3190317 26.2925254,18.598824 26.5791209,18.7303754 C26.821328,18.8403289 27.2700383,18.8344386 27.6859396,18.6488921 C27.980255,18.5173406 28.3633474,18.3288489 28.7242455,18.1109055 C29.0301405,17.9273225 29.7393922,17.3647928 30.0047585,17.1321234 C30.5046121,16.6913278 30.658042,16.6500953 31.1743001,16.2142083 C31.7658257,15.7154909 32.2367302,15.2373896 32.7780774,14.6954762 C33.2711762,14.2016673 33.735326,13.7422189 34.1492974,13.1463105 C34.6230968,12.46401 34.9608358,11.9319138 35.3979664,11.3458226 C35.6015747,11.0729024 35.7492149,10.7450055 35.9065047,10.4455787 C36.0869537,10.1009923 37.7380145,7.9441374 37.9840814,7.68201625 C38.425072,7.20980542 38.8467631,6.68261783 39.3813556,6.29778072 C39.6052282,6.13677744 39.8329608,6.11714289 40.0713079,6.00424425 C40.3588685,5.86680243 40.6280947,5.82458816 40.9320597,5.85894861 C41.4193687,5.79611806 41.8806235,6.15641199 41.5718337,6.63254973 C40.8809163,7.69674213 40.2411423,8.82180167 39.5463652,9.84279807 C39.065811,10.5496417 38.5813969,11.2564854 38.0834732,11.95253 C37.631868,12.5837807 37.3616769,13.3043685 36.9264762,13.9375827 C36.6707596,14.3106391 36.4565366,14.6935127 36.3108264,15.1166372 C36.2471385,15.3012019 36.0309856,15.8362433 36.199855,16.0168811 C36.5771577,16.4223345 37.4649285,15.9216536 37.7756483,15.6830938 C38.3671739,15.2285541 39.1536231,14.591413 39.6554066,14.0475361 C40.0616583,13.608704 41.288133,12.1871629 41.7049993,11.6472129 C43.0009517,9.96453223 46.2345606,7.54555615 46.5076466,7.34921067 C47.5044589,6.63254973 48.9461215,5.79906325 49.7441503,5.42502513 C50.2613733,5.18352022 51.1829181,4.62884429 51.823657,4.74861502 C52.5473833,4.88507511 52.9092464,5.39557332 52.9738992,5.92865125 C53.072326,6.73661283 52.7818706,7.21275056 52.6689693,7.49646976 C52.1363068,8.84634479 50.7062237,9.99005717 49.5077331,10.8559406 C48.1905513,11.8082161 46.829946,12.4021611 45.4259171,13.2111045 C45.0476495,13.4290479 44.5854297,13.7932688 44.2747099,14.0936773 C44.0064487,14.3518716 43.1601715,15.1176189 43.2595632,16.6383145 C43.3155314,17.4953624 45.9624395,16.2534774 46.3686911,15.8647134 C46.5018568,15.7390523 48.4983762,14.2772604 49.6022999,13.1698719 C50.2208447,12.5484385 50.7641218,11.8612294 51.4463544,11.3232428 C51.7040009,11.121007 52.3505297,10.8471051 52.7577463,11.1612578 C53.4390139,11.6904089 52.5126444,12.6014518 52.0706889,13.0383204 M46.7643281,10.6085454 C47.2757614,10.3081368 47.7862296,10.0057648 48.2532742,9.64841607 C48.7241788,9.28910381 49.1661343,8.8983764 49.6466885,8.55182661 C50.2285644,8.13361078 50.6763097,7.63882023 50.7351728,7.13323069 C50.821055,6.40086208 48.2870481,8.06587163 48.0699303,8.22883834 C47.2690066,8.83161892 46.0743758,9.42261877 45.8234841,10.3798029 C45.7298822,10.7420602 46.3542166,10.8490685 46.7643281,10.6085454 M16.5415206,11.7669836 C16.650562,11.9810002 17.714922,11.4754106 18.0420463,11.2839738 C18.5023362,11.0139987 18.9771006,10.6124722 19.4065115,10.3101003 C19.7731994,10.0519059 20.1379575,9.75640602 20.5046454,9.45599747 C20.9330914,9.10453913 21.3538176,8.79627674 21.2814449,8.15422709 C21.247671,7.84989158 20.245069,8.40456751 20.0800594,8.50175855 C16.5752945,10.5643676 16.376511,11.6265966 16.5415206,11.7669836 M6.77025144,13.645028 C6.77025144,13.645028 7.74486946,12.2676645 7.99286626,11.7228058 C8.11155738,11.4606847 8.44640142,10.6301433 8.50622945,10.4475421 C8.69632816,9.86930467 8.86616262,9.59245758 8.54675809,9.02992781 C8.38174851,8.74031825 7.73907964,8.97985975 7.59722926,9.14773508 C7.23922603,9.57478649 6.76156673,10.0165638 6.45277687,10.3876567 C6.04266533,10.8490685 5.78501879,11.1740203 5.49745823,11.5274421 C5.04295816,12.086045 4.60486255,12.654465 4.20150579,13.2454649 C4.04421595,13.4761708 3.84157261,13.7530179 3.71516176,13.997468 C3.61287512,14.1957769 3.21820308,14.7995393 3.11591643,14.9546522 C2.75887816,15.4926388 2.41438448,16.0532051 2.0998048,16.6127896 C1.80838437,17.1301599 1.48222508,17.7260684 1.36835882,18.3033241 C1.26124734,18.8511279 1.39923781,19.6188387 2.00427294,19.2585447 C2.26770929,19.1024501 2.62860744,18.8864701 2.84765524,18.6793256 C3.05705337,18.4810225 3.6254197,18.0196049 3.81841337,17.80657 C4.37520009,17.191027 4.71100906,16.7060537 5.0632225,16.161195 C5.71361114,15.1559063 6.07354432,14.6130111 6.77025144,13.645028 M42.5261873,3.22791941 C42.6188243,3.29173168 43.1534167,3.30547587 43.2576333,3.31136623 C43.5297543,3.32609214 43.9514455,2.82246603 44.118385,2.63299266 C44.3741016,2.34240137 44.6471877,2.05279182 44.8874648,1.75140153 C45.0987928,1.36165578 45.3545095,1.02885022 45.3139808,0.558602842 C45.2840667,0.213034827 45.0785285,0.0265066375 44.759124,0 C43.9167067,0.392690926 42.9237542,1.2399216 42.5310122,2.14801936 C42.4248656,2.39345119 42.2405567,3.03059222 42.5261873,3.22791941" id="path-1"></path>
            </g>
        </g>
    </g>
</svg>
