<svg xmlns="http://www.w3.org/2000/svg" width="52" height="33" viewBox="0 0 52 33">
    <g fill="none" fill-rule="evenodd">
        <rect width="52" height="33" fill="#DDD" rx="3"/>
        <path fill="#333" d="M0 5.634h52v8H0z"/>
        <path fill="#D0021B" d="M38.361 25h-.823v-3.103c-.3.282-.655.49-1.063.624v-.747a2.38 2.38 0 0 0 .7-.4 1.52 1.52 0 0 0 .518-.686h.668V25zm4.011-.765V25h-2.886c.032-.29.125-.563.282-.822.156-.259.464-.602.925-1.03.371-.345.599-.58.683-.703a.906.906 0 0 0 .17-.504c0-.183-.05-.324-.148-.423a.552.552 0 0 0-.409-.148.548.548 0 0 0-.41.155c-.101.104-.16.276-.176.516l-.82-.082c.049-.453.202-.778.46-.976.258-.197.58-.296.967-.296.424 0 .757.115.999.343.242.229.363.513.363.853 0 .193-.035.377-.104.552-.07.175-.18.358-.33.55-.1.126-.279.309-.539.547-.26.239-.424.397-.493.475-.07.078-.126.154-.169.228h1.635zm.527-.375l.797-.096c.026.203.094.358.205.465a.56.56 0 0 0 .405.162c.17 0 .313-.065.429-.194.116-.129.174-.302.174-.521 0-.207-.055-.371-.167-.492a.532.532 0 0 0-.407-.182c-.106 0-.231.02-.378.061l.09-.67c.224.005.393-.043.51-.145a.516.516 0 0 0 .176-.41.467.467 0 0 0-.129-.345.463.463 0 0 0-.342-.129c-.14 0-.261.05-.36.147-.1.097-.16.24-.182.427l-.76-.128c.054-.26.133-.468.24-.623.106-.155.255-.277.445-.366.19-.09.404-.134.64-.134.404 0 .729.13.973.387.201.211.302.45.302.715 0 .377-.206.678-.619.902a1 1 0 0 1 .59.355c.148.183.222.405.222.665 0 .377-.138.698-.413.964a1.423 1.423 0 0 1-1.028.398c-.39 0-.711-.112-.967-.335a1.318 1.318 0 0 1-.446-.878z"/>
        <path fill="#333" d="M5.361 25h-.823v-3.103c-.3.282-.655.49-1.063.624v-.747a2.38 2.38 0 0 0 .7-.4 1.52 1.52 0 0 0 .518-.686h.668V25zm4.011-.765V25H6.486c.032-.29.125-.563.282-.822.156-.259.464-.602.925-1.03.371-.345.599-.58.683-.703a.906.906 0 0 0 .17-.504c0-.183-.05-.324-.148-.423a.552.552 0 0 0-.409-.148.548.548 0 0 0-.41.155c-.101.104-.16.276-.176.516l-.82-.082c.049-.453.202-.778.46-.976.258-.197.58-.296.967-.296.424 0 .757.115.999.343.242.229.363.513.363.853 0 .193-.035.377-.104.552-.07.175-.18.358-.33.55-.1.126-.279.309-.539.547-.26.239-.424.397-.493.475-.07.078-.126.154-.169.228h1.635zm.527-.375l.797-.096c.026.203.094.358.205.465a.56.56 0 0 0 .405.162c.17 0 .313-.065.429-.194.116-.129.174-.302.174-.521 0-.207-.055-.371-.167-.492a.532.532 0 0 0-.407-.182c-.106 0-.231.02-.378.061l.09-.67c.224.005.393-.043.51-.145a.516.516 0 0 0 .176-.41.467.467 0 0 0-.129-.345.463.463 0 0 0-.342-.129c-.14 0-.261.05-.36.147-.1.097-.16.24-.182.427l-.76-.128c.054-.26.133-.468.24-.623.106-.155.255-.277.445-.366.19-.09.404-.134.64-.134.404 0 .729.13.973.387.201.211.302.45.302.715 0 .377-.206.678-.619.902a1 1 0 0 1 .59.355c.148.183.222.405.222.665 0 .377-.138.698-.413.964a1.423 1.423 0 0 1-1.028.398c-.39 0-.711-.112-.967-.335a1.318 1.318 0 0 1-.446-.878zM14.88 25v-.864h-1.757v-.721l1.863-2.727h.692v2.724h.533v.724h-.533V25h-.797zm0-1.588v-1.468l-.986 1.468h.987zm3.402.484l.82-.085a.704.704 0 0 0 .209.44.564.564 0 0 0 .835-.046c.119-.14.178-.35.178-.632 0-.263-.059-.461-.177-.593a.59.59 0 0 0-.461-.198c-.237 0-.449.105-.636.314l-.668-.097.422-2.235h2.176v.77h-1.552l-.13.73c.184-.092.372-.138.563-.138.366 0 .675.133.93.398.253.266.38.61.38 1.035 0 .353-.103.669-.308.946-.279.379-.667.568-1.163.568-.396 0-.72-.106-.97-.32-.25-.212-.399-.498-.448-.857zm6.115-2.14l-.797.089c-.02-.164-.07-.285-.153-.364a.444.444 0 0 0-.319-.117.54.54 0 0 0-.441.235c-.12.156-.196.481-.227.975a.962.962 0 0 1 .765-.363c.343 0 .638.13.883.393.245.261.368.6.368 1.013 0 .44-.13.792-.387 1.058-.258.265-.589.398-.993.398-.434 0-.79-.168-1.07-.505-.279-.337-.419-.89-.419-1.657 0-.787.146-1.354.437-1.702a1.41 1.41 0 0 1 1.134-.521c.326 0 .596.09.81.273.214.183.35.448.409.796zm-1.867 1.797c0 .267.062.474.185.62.123.145.264.218.422.218a.48.48 0 0 0 .38-.18c.102-.118.153-.314.153-.585 0-.28-.055-.484-.164-.614a.515.515 0 0 0-.41-.195.515.515 0 0 0-.402.186c-.109.124-.164.308-.164.55zm2.414-2.025v-.764h2.816v.597c-.233.229-.469.557-.71.985a5.74 5.74 0 0 0-.549 1.363A5.057 5.057 0 0 0 26.314 25h-.793c.013-.594.136-1.2.367-1.816.232-.618.54-1.17.927-1.656h-1.872zm4.043 1.155a.96.96 0 0 1-.464-.371.968.968 0 0 1-.145-.517c0-.32.112-.585.335-.794.224-.209.542-.314.954-.314.408 0 .725.105.95.314.226.209.34.474.34.794a.937.937 0 0 1-.593.888c.239.095.42.235.544.419.124.183.186.395.186.635 0 .397-.127.72-.38.967-.253.248-.589.372-1.009.372-.39 0-.716-.102-.975-.307-.307-.243-.46-.575-.46-.997 0-.232.057-.445.172-.64.116-.194.297-.344.545-.45zm.17-.83c0 .165.047.293.14.384a.504.504 0 0 0 .37.138.51.51 0 0 0 .375-.14.518.518 0 0 0 .14-.384.5.5 0 0 0-.139-.371.497.497 0 0 0-.367-.14.51.51 0 0 0-.378.141.503.503 0 0 0-.14.373zm-.076 1.84c0 .227.058.404.174.53.117.128.262.191.435.191.17 0 .311-.061.422-.183.112-.122.167-.298.167-.529a.684.684 0 0 0-.17-.485.562.562 0 0 0-.43-.183c-.201 0-.351.07-.45.208a.763.763 0 0 0-.148.451z"/>
        <path fill="#D0021B" fill-rule="nonzero" d="M40.87 30.476c-4.071 0-7.37-3.332-7.37-7.44 0-4.107 3.299-7.438 7.37-7.438 4.072 0 7.37 3.331 7.37 7.439 0 4.107-3.298 7.44-7.37 7.44zm0-1c3.517 0 6.37-2.882 6.37-6.44 0-3.557-2.853-6.438-6.37-6.438s-6.37 2.881-6.37 6.439c0 3.557 2.853 6.44 6.37 6.44z"/>
    </g>
</svg>
