<svg xmlns="http://www.w3.org/2000/svg" width="52" height="33" viewBox="0 0 52 33">
    <g fill="none" fill-rule="evenodd">
        <path fill="#FFF" d="M0 33h52V0H0z"/>
        <path fill="#F7B600" d="M0 33h52v-5H0z"/>
        <path fill="#1A1F71" d="M0 5h52V0H0zM25.566 10.27l-2.65 12.304h-3.204l2.65-12.305h3.204zm13.482 7.944l1.688-4.62.97 4.62h-2.658zm3.578 4.36h2.963L43 10.269h-2.734c-.616 0-1.135.355-1.365.902l-4.808 11.403h3.365l.668-1.838h4.111l.389 1.838zm-8.367-4.018c.015-3.247-4.519-3.427-4.488-4.878.01-.44.433-.91 1.358-1.03.46-.06 1.725-.106 3.161.55l.561-2.61a8.691 8.691 0 0 0-2.997-.544c-3.168 0-5.397 1.672-5.415 4.067-.02 1.772 1.592 2.76 2.804 3.35 1.25.603 1.67.99 1.663 1.528-.009.826-.997 1.191-1.916 1.205-1.613.025-2.547-.433-3.292-.778l-.581 2.698c.75.34 2.131.637 3.562.653 3.368 0 5.57-1.652 5.58-4.21zM20.987 10.27l-5.193 12.305h-3.387l-2.555-9.82c-.155-.604-.29-.826-.761-1.081-.77-.416-2.043-.805-3.162-1.047l.076-.357h5.453c.695 0 1.32.46 1.479 1.254l1.35 7.12 3.333-8.374h3.367z"/>
    </g>
</svg>
