<svg xmlns="http://www.w3.org/2000/svg" width="198" height="60" viewBox="0 0 198 60">
    <g fill="#003773" fill-rule="evenodd">
        <path d="M106.87 27.766c0-.868.507-1.597 1.127-1.597.282 0 .536.14.734.392.987.673 1.748.589 1.748.589 3.442-.645 3.3-3.867 3.3-3.867l.029-15.13a.742.742 0 0 1-.085-.336c0-.616.705-1.12 1.608-1.12.874 0 1.607.504 1.607 1.12 0 .084 0 .168-.028.252v14.71c-.282 6.192-4.484 6.92-4.484 6.92-2.595.813-4.118.029-4.682-.42-.508-.168-.875-.784-.875-1.513zm13.086-6.584c0-.869.508-1.57 1.1-1.597h14.582v-6.192c-.225-2.27-1.466-2.55-1.466-2.55-.818-.952-2.06-.868-2.06-.868h-5.189a1.008 1.008 0 0 1-.282.056c-.62 0-1.128-.7-1.128-1.597 0-.813.423-1.485.987-1.57l5.444-.028c3.44-.084 4.907 1.822 4.907 1.822 1.975 1.54 2.003 4.959 2.003 4.959l.056 6.052h34.777a10.787 10.787 0 0 1-.056-.953c0-6.528 5.359-11.823 11.987-11.823s11.987 5.295 11.987 11.823c0 6.529-5.359 11.824-11.987 11.824-5.162 0-9.73-3.222-11.451-7.733H121c-.564-.084-1.044-.785-1.044-1.625zM6.966 7.733c0-.616.65-1.093 1.467-1.093.818 0 1.467.477 1.467 1.093v12.02h13.736V8.097a.742.742 0 0 1-.085-.336c0-.616.705-1.12 1.608-1.12.874 0 1.608.504 1.608 1.12a.99.99 0 0 1-.057.28V19.81h74.828v-4.147s.141-1.233-1.24-1.233H50.712s-1.692 0-2.341-1.456c0 0-.734-1.822 1.551-2.774L74.856 0v.056c.65 0 1.129.644 1.129 1.457 0 .813-.48 1.457-1.072 1.457l-21.464 8.602h46.51s4.4-.365 4.315 3.922l.029 5.716c-.254 1.625-1.608 1.569-1.608 1.569H9.9s.282 5.1-4.062 6.836c0 0-2.623 1.177-4.766.225 0 0-.395-.14-.818-.589 0 0-.254-.532-.254-.98 0-.869.508-1.597 1.128-1.597.339 0 .48.252.846.532.31.196.988.392 2.2-.112 0 0 2.85-1.093 2.85-4.147V7.901a.396.396 0 0 1-.057-.168zm7.362 17.315s1.834-.084 1.918 1.738c.085 1.82-1.692 1.737-1.692 1.737s-1.72.28-1.749-1.737c-.028-1.29 1.523-1.738 1.523-1.738zm4.428-.028s1.834-.084 1.918 1.738c.085 1.82-1.692 1.737-1.692 1.737s-1.72.28-1.749-1.737c-.056-1.29 1.523-1.738 1.523-1.738zM127.374 1.037s1.834-.084 1.918 1.737c.085 1.821-1.692 1.737-1.692 1.737s-1.72.28-1.749-1.737c-.028-1.289 1.523-1.737 1.523-1.737zm49.472 17.651c0-4.903 3.949-8.882 8.828-8.882 4.88 0 8.829 3.98 8.829 8.882 0 4.904-3.95 8.882-8.829 8.882-4.88.028-8.828-3.95-8.828-8.882zM42.885 59.848c-6.146 0-10.63-4.643-10.63-10.656 0-6.013 4.446-10.694 10.63-10.694 6.224 0 10.63 4.643 10.63 10.694 0 3.044-1.082 5.633-3.054 7.612-2.01 1.979-4.638 3.044-7.576 3.044M37.01 49.192c0 3.92 2.551 6.546 5.875 6.546s5.837-2.55 5.837-6.546c0-3.957-2.513-6.583-5.837-6.583s-5.875 2.664-5.875 6.583M56.77 54.842V43.324h-2.522v-3.952h2.522v-4.555h4.484v4.555h3.242v3.952h-3.242v11.103c0 .904.24 1.092.92 1.092h3.803v4.329h-3.923c-3.683 0-5.284-1.468-5.284-5.006M79.818 48.267c0-3.886-1.084-5.372-3.589-5.372-2.879 0-4.299 1.676-4.299 5.524v11.429h-4.487V30.4h4.487v10.209c1.383-1.218 2.99-1.828 4.86-1.828 4.597 0 7.514 3.428 7.514 9.181v11.886h-4.486V48.267M98.885 55.7c2.299 0 4.368-.952 6.436-3.349l3.334 2.702c-2.95 3.425-6.015 4.795-9.847 4.795-6.164 0-10.838-4.376-10.838-10.542 0-6.468 4.328-10.808 10.531-10.808 6.322 0 10.728 4.606 10.728 11.532v.837H92.567c.46 2.892 2.912 4.833 6.318 4.833m-6.28-8.677h11.567c-.612-2.664-2.835-4.414-5.708-4.414-2.909 0-5.284 1.826-5.859 4.414M114.769 48.556v11.292h-4.074V39.575h3.929v1.478c1.055-1.212 2.4-1.819 4.037-1.819.363 0 .764 0 1.564.19v4.547c-1.165-.265-1.637-.34-2.001-.34-2.255 0-3.455 1.477-3.455 4.925M122.424 49.192c0-6.127 4.167-10.694 10.155-10.694 2.753 0 5.022.838 7.254 2.969l-2.828 3.387c-1.45-1.675-2.715-2.245-4.426-2.245-3.236 0-5.617 2.663-5.617 6.583 0 3.958 2.381 6.508 5.617 6.508 1.823 0 3.2-.647 4.539-2.436l2.9 3.425c-2.455 2.321-4.65 3.159-7.439 3.159-5.951 0-10.155-4.53-10.155-10.656M156.752 57.42c-1.635 1.644-3.803 2.428-6.428 2.428-5.894 0-10.306-4.557-10.306-10.307 0-6.124 4.107-10.307 10.306-10.307 2.664 0 4.944.897 6.694 2.577v-2.204h4.26v19.98h-4.526V57.42zm-12.095-7.842c0 3.772 2.587 6.311 6.162 6.311 3.537 0 6.122-2.576 6.122-6.31 0-3.735-2.585-6.312-6.122-6.312-3.575 0-6.162 2.577-6.162 6.311zM170.483 48.556v11.292h-4.074V39.575h3.928v1.478c1.055-1.212 2.4-1.819 4.038-1.819.364 0 .764 0 1.564.19v4.547c-1.164-.265-1.637-.34-2-.34-2.256 0-3.456 1.477-3.456 4.925M186.856 55.7c2.298 0 4.366-.952 6.436-3.349l3.332 2.702c-2.95 3.425-6.013 4.795-9.845 4.795-6.166 0-10.84-4.376-10.84-10.542 0-6.468 4.328-10.808 10.534-10.808 6.32 0 10.725 4.606 10.725 11.532v.837h-16.663c.46 2.892 2.912 4.833 6.321 4.833m-6.282-8.677h11.568c-.613-2.664-2.834-4.414-5.708-4.414-2.91 0-5.286 1.826-5.86 4.414M25.547 48.538c0-3.781-1.251-5.257-3.562-5.257-2.88 0-4.283 1.589-4.283 5.41v11.157h-4.396v-11.31c0-3.743-1.288-5.257-3.6-5.257-2.88 0-4.282 1.589-4.282 5.41v11.157H0V39.612h5.386v1.437c1.44-1.21 3.032-1.815 4.927-1.815 2.312 0 4.13.908 5.608 2.8 1.781-1.854 3.903-2.8 6.48-2.8 4.624 0 7.655 3.367 7.655 8.964v11.65h-4.51v-11.31"/>
    </g>
</svg>
