<svg xmlns="http://www.w3.org/2000/svg" xmlns:xlink="http://www.w3.org/1999/xlink" width="368" height="148" viewBox="0 0 368 148">
    <defs>
        <path id="a" d="M93.972 19.676L140.405.307v.106c1.208 0 2.102 1.224 2.102 2.768 0 1.543-.894 2.767-1.997 2.767l-39.972 16.335h86.616s8.193-.692 8.036 7.45l.053 10.855c-.473 3.087-2.994 2.98-2.994 2.98H19.437s.525 9.684-7.564 12.983c0 0-4.885 2.235-8.877.426 0 0-.736-.266-1.523-1.117 0 0-.474-1.012-.474-1.863 0-1.649.946-3.033 2.102-3.033.63 0 .893.479 1.576 1.011.578.373 1.839.745 4.097-.213 0 0 5.305-2.075 5.305-7.875V15.312c-.052-.106-.105-.212-.105-.319 0-1.17 1.208-2.075 2.731-2.075 1.524 0 2.732.905 2.732 2.075v22.828h25.58V15.685a1.433 1.433 0 0 1-.157-.638c0-1.171 1.312-2.129 2.994-2.129 1.628 0 2.994.958 2.994 2.129 0 .159-.052.372-.105.532v22.348h139.352v-7.875s.263-2.342-2.311-2.342H95.443s-3.152 0-4.36-2.766c0 0-1.366-3.459 2.889-5.268zm144.237-17.4s-2.889.851-2.836 3.299c.052 3.831 3.257 3.299 3.257 3.299s3.308.16 3.151-3.299c-.144-3.167-3.02-3.301-3.503-3.301-.045 0-.069.002-.069.002zm-25.422 12.877c0 .213.052.426.157.639l-.053 28.733s.263 6.119-6.145 7.343c0 0-1.418.161-3.257-1.117-.368-.478-.84-.745-1.366-.745-1.155 0-2.1 1.383-2.1 3.033 0 1.384.682 2.554 1.628 2.874 1.05.851 3.887 2.341 8.719.798 0 0 7.827-1.384 8.352-13.143V15.632c.052-.16.052-.32.052-.479 0-1.17-1.365-2.129-2.993-2.129-1.681 0-2.994.959-2.994 2.129zm33.931-1.862c.139-.004.276-.005.412-.005 6.114-.001 8.728 3.463 8.728 3.463 3.677 2.927 3.729 9.419 3.729 9.419l.106 11.493h64.765a20.675 20.675 0 0 1-.106-1.809c0-12.398 9.98-22.455 22.324-22.455C359.02 13.397 369 23.454 369 35.852c0 12.398-9.98 22.455-22.324 22.455-9.612 0-18.121-6.119-21.326-14.686h-99.012c-1.05-.16-1.943-1.49-1.943-3.086 0-1.65.945-2.98 2.048-3.033H253.6v-11.76c-.42-4.31-2.732-4.842-2.732-4.842-1.523-1.809-3.835-1.65-3.835-1.65h-9.664a1.825 1.825 0 0 1-.525.107c-1.156 0-2.102-1.33-2.102-3.033 0-1.544.789-2.821 1.839-2.98l10.137-.053zm83.623 22.508c0 9.333 7.302 16.868 16.345 16.868h.095c9.088 0 16.441-7.556 16.441-16.868 0-9.313-7.353-16.868-16.441-16.868-9.087 0-16.44 7.555-16.44 16.868zM35.93 47.825s.025-.002.069-.002c.484 0 3.358.134 3.502 3.3.159 3.46-3.15 3.3-3.15 3.3s-3.204.531-3.257-3.3c-.106-2.447 2.836-3.298 2.836-3.298zm-8.246.053l.068-.001c.484 0 3.359.133 3.503 3.3.158 3.459-3.151 3.3-3.151 3.3s-3.204.53-3.257-3.3c-.052-2.448 2.837-3.299 2.837-3.299z"/>
        <path id="c" d="M.355 23h72.573V0H.355z"/>
    </defs>
    <g fill="none" fill-rule="evenodd">
        <g fill="#003773">
            <path d="M79.787 114.553c-11.202 0-19.373-8.594-19.373-19.725 0-11.132 8.101-19.797 19.373-19.797 11.342 0 19.374 8.595 19.374 19.797 0 5.636-1.974 10.426-5.566 14.09-3.664 3.662-8.455 5.635-13.808 5.635M69.08 94.828c0 7.256 4.648 12.117 10.708 12.117 6.058 0 10.638-4.719 10.638-12.117 0-7.327-4.58-12.187-10.638-12.187-6.06 0-10.708 4.931-10.708 12.187M105.67 104.268V82.711h-4.439v-7.398h4.44V66.79h7.89v8.523h5.706v7.398h-5.707v20.781c0 1.691.422 2.043 1.62 2.043h6.693v8.102h-6.905c-6.48 0-9.298-2.747-9.298-9.369M149.778 92.22c0-7.184-2.043-9.931-6.763-9.931-5.426 0-8.1 3.099-8.1 10.215v21.135h-8.457V59.183h8.457V78.06c2.605-2.253 5.634-3.38 9.157-3.38 8.664 0 14.158 6.339 14.158 16.978v21.98h-8.452V92.22zM184.526 106.875c4.226 0 8.032-1.761 11.834-6.2l6.13 5.002c-5.424 6.342-11.06 8.877-18.104 8.877-11.338 0-19.931-8.103-19.931-19.515 0-11.974 7.959-20.006 19.366-20.006 11.624 0 19.725 8.524 19.725 21.346v1.548h-30.638c.844 5.354 5.354 8.948 11.618 8.948m-11.55-16.062h21.27c-1.126-4.931-5.212-8.172-10.496-8.172-5.348 0-9.716 3.38-10.773 8.172M217.018 92.644v20.993h-7.89v-37.69h7.607v2.75c2.044-2.256 4.65-3.384 7.82-3.384.704 0 1.48 0 3.032.354v8.453c-2.256-.494-3.171-.633-3.877-.633-4.366 0-6.692 2.747-6.692 9.157M229.24 94.828c0-11.34 7.89-19.797 19.231-19.797 5.215 0 9.512 1.55 13.738 5.497l-5.356 6.27c-2.746-3.102-5.14-4.157-8.382-4.157-6.127 0-10.636 4.931-10.636 12.187 0 7.325 4.508 12.047 10.636 12.047 3.454 0 6.06-1.199 8.596-4.51l5.496 6.341c-4.65 4.3-8.807 5.847-14.091 5.847-11.273 0-19.232-8.384-19.232-19.725M294.534 109.55c-3.027 3.103-7.041 4.58-11.904 4.58-10.918 0-19.09-8.595-19.09-19.443 0-11.553 7.606-19.442 19.09-19.442 4.933 0 9.158 1.69 12.4 4.86v-4.158h7.889v37.69h-8.385v-4.086zm-22.4-14.793c0 7.115 4.791 11.906 11.411 11.906 6.554 0 11.344-4.861 11.344-11.906 0-7.043-4.79-11.906-11.344-11.906-6.62 0-11.411 4.863-11.411 11.906zM317.759 92.644v20.993h-7.892v-37.69h7.609v2.75c2.044-2.256 4.649-3.384 7.82-3.384.706 0 1.48 0 3.028.354v8.453c-2.252-.494-3.171-.633-3.873-.633-4.368 0-6.692 2.747-6.692 9.157M348.906 106.875c4.228 0 8.032-1.761 11.838-6.2l6.127 5.002c-5.424 6.342-11.06 8.877-18.105 8.877-11.343 0-19.935-8.103-19.935-19.515 0-11.974 7.958-20.006 19.37-20.006 11.626 0 19.727 8.524 19.727 21.346v1.548h-30.644c.845 5.354 5.354 8.948 11.622 8.948m-11.552-16.062h21.274c-1.128-4.931-5.213-8.172-10.496-8.172-5.354 0-9.722 3.38-10.778 8.172M45.904 92.573c0-7.042-2.324-9.793-6.622-9.793-5.354 0-7.96 2.96-7.96 10.076v20.783H23.15V92.573c0-6.973-2.396-9.793-6.694-9.793-5.352 0-7.96 2.96-7.96 10.076v20.783H.043V75.947h8.383v2.677c2.678-2.253 5.637-3.38 9.159-3.38 4.298 0 7.678 1.69 10.426 5.214 3.31-3.454 7.255-5.214 12.047-5.214 8.592 0 14.229 6.27 14.229 16.697v21.698h-8.383V92.573z"/>
        </g>
        <g transform="translate(-1 -.307)">
            <mask id="b" fill="#fff">
                <use xlink:href="#a"/>
            </mask>
            <path fill="#013773" d="M-4 63.307h378v-68H-4z" mask="url(#b)"/>
        </g>
        <g transform="translate(295 124.693)">
            <mask id="d" fill="#fff">
                <use xlink:href="#c"/>
            </mask>
            <path fill="#ADADAD" d="M6.1 5.534h2.405V2.615H6.1zM9.649 5.534h2.405V2.615H9.649zM27.208 5.534H24.08v8.826h-6.958V5.534h-3.129v8.826H6.66c-2.305 0-3.456-.794-3.456-2.382 0-.42.077-1.198.233-2.335l.164-1.47-2.522-.14a28.274 28.274 0 0 0-.502 2.37c-.148.863-.222 1.63-.222 2.3 0 1.291.304 2.265.911 2.918.607.654 1.381 1.082 2.323 1.285.942.202 2.09.303 3.444.303h20.175V5.534zM22.701 21.996h2.405v-2.919h-2.405zM26.251 21.996h2.405v-2.919h-2.405zM37.435 14.36h-1.938c-1.027 0-1.712-.269-2.055-.806-.342-.537-.513-1.202-.513-1.996 0-1.028.11-1.802.327-2.323.217-.522.521-.872.91-1.05.39-.18.911-.27 1.565-.27.544 0 1.113.04 1.704.117v6.328zM62.935.863V14.36h-5.979v-2.849c0-.73-.113-1.517-.339-2.358-.225-.84-.673-1.596-1.342-2.265-.67-.669-1.627-1.004-2.872-1.004H47.78l.421-.817a34.707 34.707 0 0 1 2.288-3.76L48.176 0a24.73 24.73 0 0 0-1.494 1.833c-.53.708-.95 1.374-1.26 1.996L44.02 6.561l1.611 2.172h6.258c.53 0 .984.256 1.366.77.381.514.572 1.176.572 1.985v2.872H40.564V5.651a24.311 24.311 0 0 0-2.545-.409 25.05 25.05 0 0 0-2.872-.175c-1.23 0-2.222.167-2.977.501-.756.335-1.339.985-1.752 1.951-.412.965-.618 2.374-.618 4.226 0 3.642 1.611 5.464 4.833 5.464h2.71c0 .778-.068 1.378-.2 1.798-.132.42-.338.715-.619.887-.279.171-.669.257-1.167.257-.654 0-1.915-.14-3.783-.42v2.825c1.868.296 3.223.444 4.063.444 2.896 0 4.514-1.93 4.857-5.79h25.568V.862h-3.128zM69.799 17.209h3.129V.864h-3.129z" mask="url(#d)"/>
        </g>
    </g>
</svg>
