<svg xmlns="http://www.w3.org/2000/svg" xmlns:xlink="http://www.w3.org/1999/xlink" width="130" height="44" viewBox="0 0 130 44">
    <defs>
        <linearGradient id="a" x1="57.425%" x2="83.984%" y1="9.59%" y2="60.851%">
            <stop offset="0%" stop-color="#FF177B"/>
            <stop offset="100%" stop-color="#FFEC73"/>
        </linearGradient>
        <linearGradient id="c" x1="46.198%" x2="35.259%" y1="-44.035%" y2="101.06%">
            <stop offset="0%" stop-color="#064AA2"/>
            <stop offset="100%" stop-color="#63FFD4"/>
        </linearGradient>
        <path id="b" d="M12.195 12.142L.44 1C.164 1.064 0 1.269 0 1.614v21.32c0 .293.118.467.263.526l11.932-11.318z"/>
        <path id="e" d="M.747 23.398l6.796-3.733 3.001-1.663 4.942-2.662-3.29-3.196L.264 23.463c.133.043.367.02.55-.071"/>
        <linearGradient id="f" x1="73.747%" x2="10.618%" y1="50%" y2="100%">
            <stop offset="0%" stop-color="#FF4521"/>
            <stop offset="100%" stop-color="#8A33DB"/>
        </linearGradient>
        <linearGradient id="i" x1="0%" x2="64.224%" y1="8.905%" y2="77.697%">
            <stop offset="0%" stop-color="#00A3B5"/>
            <stop offset="100%" stop-color="#D6FFA1"/>
        </linearGradient>
        <path id="h" d="M1.062 1.1C.836.98.612.946.43.995l11.767 11.158 3.255-3.08-4.907-2.718-7.417-4.11-2.065-1.143z"/>
    </defs>
    <g fill="none" fill-rule="evenodd">
        <rect width="128.587" height="42.868" x=".5" y=".5" stroke="#333" rx="5"/>
        <g transform="translate(5.264 14.705)">
            <path fill="url(#a)" d="M10.544 6.354L1.078 1.109C.552.82.028.995.028 1.603v21.365c0 .455.375.653.832.4l9.684-5.366 1.88-1.041 3.027-1.676 4.717-2.613c.553-.307.5-.727.033-.97-.467-.24-4.75-2.63-4.75-2.63l-4.907-2.718z"/>
            <mask id="d" fill="#fff">
                <use xlink:href="#b"/>
            </mask>
            <use fill="url(#c)" xlink:href="#b"/>
            <path d="M15.442 9.072l-4.914-2.72c-.017.04-8.954-4.923-9.475-5.177C.523.845 0 1.023 0 1.615v21.407c0 .47.374.668.79.438.496-.276 9.721-5.399 9.738-5.44l4.914-2.719c-.026.038 4.136-2.274 4.65-2.544.592-.343.539-.765.087-.965-.482-.284-4.763-2.678-4.737-2.72" mask="url(#d)"/>
            <mask id="g" fill="#fff">
                <use xlink:href="#e"/>
            </mask>
            <path fill="url(#f)" d="M10.528 6.352c-.017.04-8.954-4.923-9.475-5.177C.523.845 0 1.023 0 1.615v21.407c0 .47.374.668.79.438.496-.276 9.721-5.399 9.738-5.44l4.914-2.719c-.026.038 4.136-2.274 4.65-2.544.592-.343.539-.765.087-.965-.482-.284-4.763-2.678-4.737-2.72l-4.914-2.72z" mask="url(#g)"/>
            <mask id="j" fill="#fff">
                <use xlink:href="#h"/>
            </mask>
            <use fill="url(#i)" xlink:href="#h"/>
            <path d="M15.442 9.072l-4.914-2.72c-.017.04-8.954-4.923-9.475-5.177C.523.845 0 1.023 0 1.615v21.407c0 .47.374.668.79.438.496-.276 9.721-5.399 9.738-5.44l4.914-2.719c-.026.038 4.136-2.274 4.65-2.544.592-.343.539-.765.087-.965-.482-.284-4.763-2.678-4.737-2.72" mask="url(#j)"/>
        </g>
        <path fill="#333" d="M30 10.106C30 8.216 31.51 7 33.386 7c1.257 0 2.08.558 2.592 1.242l-.918.495c-.348-.45-.958-.8-1.674-.8-1.277 0-2.225.9-2.225 2.169 0 1.25.948 2.168 2.225 2.168.658 0 1.238-.279 1.528-.54v-.927H32.98V9.88h3.057v2.241c-.629.658-1.539 1.098-2.651 1.098-1.877 0-3.386-1.232-3.386-3.113M37.597 13.14V7.102h4.482v.933h-3.334v1.556h3.265v.932h-3.265v1.683h3.334v.932h-4.482M45.127 13.14V8.035h-1.95v-.933h5.03v.933h-1.95v5.103h-1.13M52.231 7.103h1.098v6.036H52.23zM56.468 13.14V8.035h-1.95v-.933h5.03v.933h-1.95v5.103h-1.13M63.298 10.121c0-1.794 1.38-3.11 3.339-3.11 1.947 0 3.338 1.316 3.338 3.11 0 1.794-1.391 3.11-3.338 3.11-1.959 0-3.339-1.316-3.339-3.11zm5.488-.046c0-1.23-.846-2.149-2.15-2.149-1.312 0-2.149.918-2.149 2.15 0 1.22.837 2.149 2.15 2.149 1.303 0 2.149-.928 2.149-2.15zM75.744 13.14l-3.36-4.317v4.316h-1.129V7.103h1.159l3.29 4.181V7.103h1.13v6.036h-1.09M97.453 32.26h1.909V19.462h-1.91v12.796zm17.203-8.188l-2.19 5.548h-.065l-2.273-5.548h-2.056l3.408 7.754-1.944 4.314h1.992l5.252-12.068h-2.124zm-10.833 6.734c-.625 0-1.498-.313-1.498-1.086 0-.988 1.087-1.367 2.026-1.367.838 0 1.234.18 1.744.428a2.316 2.316 0 0 1-2.272 2.025zm.231-7.013c-1.383 0-2.815.609-3.408 1.959l1.696.707c.362-.707 1.038-.938 1.745-.938.988 0 1.992.592 2.008 1.646v.132c-.346-.197-1.087-.494-1.992-.494-1.828 0-3.688 1.004-3.688 2.88 0 1.713 1.499 2.816 3.178 2.816 1.283 0 1.992-.576 2.436-1.251h.066v.988h1.845v-4.906c0-2.272-1.697-3.54-3.886-3.54zM92.25 25.63h-2.717v-4.387h2.717c1.427 0 2.238 1.183 2.238 2.193 0 .992-.81 2.194-2.238 2.194zm-.05-6.167h-4.576v12.796h1.909v-4.848H92.2c2.117 0 4.198-1.533 4.198-3.975 0-2.44-2.08-3.973-4.198-3.973zM67.243 30.809c-1.32 0-2.424-1.106-2.424-2.623 0-1.533 1.105-2.655 2.424-2.655 1.302 0 2.325 1.122 2.325 2.655 0 1.517-1.023 2.623-2.325 2.623zm2.193-6.02h-.066c-.429-.511-1.254-.973-2.292-.973-2.177 0-4.172 1.912-4.172 4.37 0 2.44 1.995 4.337 4.172 4.337 1.038 0 1.863-.461 2.292-.99h.066v.627c0 1.666-.89 2.556-2.325 2.556-1.171 0-1.897-.84-2.194-1.55l-1.665.693c.478 1.155 1.747 2.573 3.859 2.573 2.243 0 4.14-1.32 4.14-4.535v-7.818h-1.815v.71zm3.134 7.47h1.912V19.463H72.57v12.796zm4.732-4.221c-.049-1.682 1.303-2.54 2.277-2.54.758 0 1.401.379 1.616.923l-3.893 1.617zm5.937-1.452c-.363-.973-1.467-2.77-3.727-2.77-2.242 0-4.106 1.764-4.106 4.353 0 2.441 1.847 4.354 4.32 4.354 1.995 0 3.15-1.22 3.63-1.93l-1.485-.99c-.496.727-1.171 1.206-2.145 1.206-.972 0-1.665-.446-2.11-1.32l5.821-2.408-.198-.495zM36.86 25.152V27h4.42c-.132 1.039-.479 1.797-1.006 2.324-.644.644-1.65 1.354-3.414 1.354-2.721 0-4.849-2.194-4.849-4.916 0-2.72 2.128-4.913 4.85-4.913 1.467 0 2.54.577 3.33 1.32l1.303-1.304C40.39 19.809 38.922 19 36.86 19 33.133 19 30 22.035 30 25.761c0 3.728 3.133 6.762 6.86 6.762 2.012 0 3.529-.66 4.716-1.897 1.22-1.22 1.6-2.934 1.6-4.32 0-.43-.032-.824-.099-1.154H36.86zM48.2 30.81c-1.318 0-2.456-1.09-2.456-2.64 0-1.566 1.138-2.638 2.456-2.638 1.32 0 2.458 1.072 2.458 2.638 0 1.55-1.138 2.64-2.458 2.64zm0-6.993c-2.407 0-4.37 1.83-4.37 4.353 0 2.508 1.963 4.354 4.37 4.354 2.409 0 4.371-1.846 4.371-4.354 0-2.523-1.962-4.353-4.37-4.353zm9.534 6.993c-1.319 0-2.457-1.09-2.457-2.64 0-1.566 1.138-2.638 2.457-2.638 1.32 0 2.457 1.072 2.457 2.638 0 1.55-1.137 2.64-2.457 2.64zm0-6.993c-2.407 0-4.37 1.83-4.37 4.353 0 2.508 1.963 4.354 4.37 4.354 2.408 0 4.37-1.846 4.37-4.354 0-2.523-1.962-4.353-4.37-4.353z"/>
    </g>
</svg>
