<?xml version="1.0" encoding="UTF-8"?>
<svg width="34px" height="34px" viewBox="0 0 34 34" version="1.1" xmlns="http://www.w3.org/2000/svg" xmlns:xlink="http://www.w3.org/1999/xlink">
    <title>8A293CBD-7FB9-41C2-8377-FF2114986DEB</title>
    <defs>
        <rect id="path-1" x="0" y="0" width="24" height="24" rx="3"></rect>
    </defs>
    <g id="Basket,-Checkput" stroke="none" stroke-width="1" fill="#CD2026" fill-rule="evenodd">
        <g id="Click-and-Collect---Aramex---Selected-Collection-Point---GEO-Active-+-Search---Mobile" transform="translate(-46.000000, -377.000000)">
            <g id="Group-7" transform="translate(0.000000, 282.000000)">
                <g id="Group" transform="translate(0.000000, 85.000000)">
                    <g id="Style/Icons/UI/Search/34px-YYY_1" transform="translate(46.000000, 10.000000)">
                        <g id="ic_search_48px" transform="translate(5.000000, 5.000000)">
                            <mask id="mask-2" fill="white">
                                <use xlink:href="#path-1"></use>
                            </mask>
                            <rect stroke="#CD2026" x="0.5" y="0.5" width="23" height="23" rx="3"></rect>
                            <g id="H&amp;M-Logo" mask="url(#mask-2)" fill="#FFFFFF">
                                <g transform="translate(3.000000, 7.000000)">
                                    <path d="M16.8732251,0.242279122 C16.5726389,0.366307398 16.3391796,0.236215517 15.9720605,0.935183756 C14.8190213,3.1329648 13.9226091,4.91676703 12.8539242,7.48387672 C12.8848145,5.37594727 13.2911405,3.6979825 13.5335104,1.64572797 C13.5780637,1.2670283 13.6410323,0.74610954 13.6315276,0.353077715 C13.6243991,0.0509999588 13.3000512,0.0113109105 12.6466029,0.310081246 C12.283048,0.476554754 11.8458318,0.462773834 11.6789054,0.863522974 C10.968429,2.57070329 9.32827381,7.31685197 8.56670957,10.0008239 C8.38374405,10.6457709 9.07164686,10.7538133 9.27896817,10.0923292 C9.77974716,8.49319126 10.9244697,4.95314865 11.605838,3.13020862 C11.537523,4.79935359 11.0468427,7.43702159 11.2761437,8.82117715 C11.348023,9.25665421 11.7858333,9.44462595 12.0109759,9.81285212 C12.1713678,10.0752408 12.4285888,10.1017002 12.5699712,9.74339628 C13.2364885,8.05550926 14.5344743,5.07883064 15.7867188,2.69748775 C15.5413787,3.74538887 14.5998192,8.19386969 14.3378458,9.96664718 C14.2849759,10.3227461 14.7554586,10.3315659 15.1724774,10.8668168 C15.2663364,10.9869865 15.626327,11.1176296 15.6910778,10.8100395 C15.9138442,9.7467037 17.3674696,2.84025807 17.9365636,0.646335683 C18.0898269,0.055409853 18.0458677,-0.242258009 16.8732251,0.242279122" id="Fill-13"></path>
                                    <path d="M7.42661469,5.27332549 C7.93091116,4.58194206 8.07627776,4.72219885 8.1977157,4.51153866 C8.34906446,4.24807592 8.24916232,4.00001393 7.70957107,4.06106688 C7.70957107,4.06106688 7.50617748,4.07481755 7.13049755,4.11386944 C7.72811578,2.69975107 8.25035875,1.50014308 8.62723512,0.587648961 C8.75465522,0.27798399 8.77140528,0.0513730345 8.56262774,0.00517080081 C8.339493,-0.0443315924 7.69461566,0.27633391 7.29739994,0.339036942 C7.17177448,0.358837899 7.05093476,0.482593882 7.00905961,0.569498083 C6.37375373,1.91156297 5.80484988,3.19037479 5.31132131,4.35588114 C4.68080116,4.45488592 3.94200384,4.58524222 3.11706335,4.75575047 C3.70690477,3.36088303 4.30512123,1.98581656 4.88778406,0.661352524 C5.17492795,0.0101210401 4.41938057,-0.0514819381 4.12625451,0.609099998 C3.74638706,1.46604143 3.03331304,3.07211907 2.24426554,4.94440959 C1.66399558,5.07531592 1.0502255,5.22492315 0.407142806,5.39543139 C-0.0600642457,5.51918738 -0.0804036052,5.63359291 0.121793557,5.89100535 C0.23425825,6.03456229 0.463973369,6.0202616 0.569259465,6.12256655 C0.842046169,6.38712934 1.00715391,6.70394465 1.49470032,6.75179697 C1.05919874,7.82104866 0.624295379,8.92385197 0.230668952,9.98595332 C-0.0163944445,10.6520355 0.687706323,10.7884421 0.958698377,10.083308 C1.39479817,8.94640306 1.85482663,7.79574744 2.32741763,6.64839197 C2.72044584,6.5642379 3.67340465,6.37557878 4.55397927,6.2001203 C3.85526245,7.95965536 3.395234,9.29621998 3.22234944,9.94690143 C3.18884932,10.0717575 3.24448345,10.1410608 3.27259963,10.1922133 C3.50829691,10.5079286 3.73202986,10.5205792 4.03592382,10.910548 C4.11847769,11.0167032 4.39305905,11.0744559 4.48757725,10.8126433 C5.13365102,9.01570641 5.79946593,7.32932489 6.42041461,5.81785181 C6.67824591,5.76614931 7.14186366,5.66274432 7.42661469,5.27332549" id="Fill-11"></path>
                                    <path d="M8.05900738,7.95957561 C8.01054939,7.99424773 7.96017858,8.0341732 7.90853256,8.074624 C7.84987289,7.92647949 7.79185081,7.77780965 7.73765438,7.63544383 C7.90024369,7.47153926 8.05645696,7.31026138 8.18971644,7.13952746 C8.74379534,6.42927435 7.64902726,6.02003828 7.17719943,6.48128253 C6.92534538,6.72713937 6.98783069,6.96879354 7.05732965,7.17577558 C7.07837063,7.2388158 7.11280131,7.33442679 7.15297043,7.44159516 C7.01779813,7.55506755 6.85648403,7.69743337 6.64161108,7.90283941 C6.10729795,8.41451584 6.25267193,9.07906479 6.82524137,9.22563329 C7.1740114,9.31494027 7.49855244,9.18255581 7.78037392,8.97662444 C7.79376363,9.0060432 7.80842855,9.03966465 7.82118065,9.06593141 C7.97101787,9.37430314 8.43391922,9.28079348 8.25730259,8.90833087 C8.22733515,8.84423998 8.18780363,8.753357 8.14508408,8.65354333 C8.23562402,8.558983 8.3197879,8.46337201 8.39247489,8.37459037 C8.73359366,7.95747427 8.40395178,7.71319343 8.05900738,7.95957561 L8.05900738,7.95957561 Z M7.69621004,6.98245225 C7.64456402,7.03078308 7.59546842,7.07333523 7.54701043,7.11483671 C7.53617114,7.08174059 7.52278143,7.0444418 7.51449256,7.01817504 C7.35572888,6.52225867 8.04498007,6.65779514 7.69621004,6.98245225 L7.69621004,6.98245225 Z M7.3219358,8.49226544 C7.11280131,8.5978578 6.94574875,8.48438541 7.22757024,8.16603232 C7.27475302,8.11244813 7.32448622,8.06569331 7.37358182,8.01421046 C7.4207646,8.13346154 7.4692226,8.25428862 7.5189558,8.37406503 C7.45392007,8.41819318 7.38760913,8.45916932 7.3219358,8.49226544 L7.3219358,8.49226544 Z" id="Fill-12"></path>
                                </g>
                            </g>
                        </g>
                    </g>
                </g>
            </g>
        </g>
    </g>
</svg>
