<svg width="22" height="22" viewBox="0 0 22 22" xmlns="http://www.w3.org/2000/svg"><title>3A78C19F-AC27-4B12-BB54-5B49D3F84A40</title><path d="M2.037 12.894a8.077 8.077 0 0 0 2.898 2.883 7.67 7.67 0 0 0 3.963 1.082c1.42 0 2.737-.356 3.948-1.067a7.818 7.818 0 0 0 2.867-2.881 7.786 7.786 0 0 0 1.05-3.965c0-1.43-.355-2.752-1.064-3.964A7.965 7.965 0 0 0 12.815 2.1a7.679 7.679 0 0 0-3.948-1.065c-1.421 0-2.737.355-3.949 1.065a7.946 7.946 0 0 0-2.881 2.883A7.661 7.661 0 0 0 .97 8.93c0 1.443.355 2.764 1.067 3.965zm18.8 9.134L14.6 15.792a9.249 9.249 0 0 1-2.6 1.505 8.69 8.69 0 0 1-3.072.563 8.827 8.827 0 0 1-4.511-1.221 8.994 8.994 0 0 1-3.197-3.197A8.824 8.824 0 0 1 0 8.93c0-1.608.407-3.1 1.22-4.48A8.63 8.63 0 0 1 4.419 1.22 8.659 8.659 0 0 1 8.898 0a8.66 8.66 0 0 1 4.482 1.22 8.878 8.878 0 0 1 3.228 3.229 8.664 8.664 0 0 1 1.22 4.48 8.515 8.515 0 0 1-.562 3.072 9.79 9.79 0 0 1-1.505 2.633l6.236 6.236-1.16 1.158z" fill="#FFF" fill-rule="evenodd"/></svg>