<?xml version="1.0" encoding="utf-8"?>
<!-- Generator: Adobe Illustrator 22.0.1, SVG Export Plug-In . SVG Version: 6.00 Build 0)  -->
<svg version="1.1" id="Layer_1" xmlns="http://www.w3.org/2000/svg" xmlns:xlink="http://www.w3.org/1999/xlink" x="0px" y="0px"
	 width="20px" height="20px" viewBox="0 0 20 20" style="enable-background:new 0 0 20 20;" xml:space="preserve">
<style type="text/css">
	.st0{fill:none;stroke:#000000;stroke-miterlimit:10;}
</style>
<g>
	<path d="M13.8,1.1l5.1,5.1L6.2,18.7l-5.1-5.1L13.8,1.1C13.7,1.1,13.7,1.1,13.8,1.1L13.8,1.1 M13.8,0.1c-0.3,0-0.5,0.1-0.7,0.3
		L0.5,12.9c-0.4,0.4-0.4,1,0,1.4l5.1,5.1c0.2,0.2,0.5,0.3,0.7,0.3s0.5-0.1,0.7-0.3L19.5,6.9c0.4-0.4,0.4-1,0-1.4l-5.1-5.1
		C14.3,0.2,14,0.1,13.8,0.1L13.8,0.1z"/>
</g>
<g>
	<line class="st0" x1="2.9" y1="11.7" x2="4.6" y2="13.4"/>
</g>
<g>
	<line class="st0" x1="5.1" y1="9.5" x2="7.8" y2="12.2"/>
</g>
<g>
	<line class="st0" x1="9.5" y1="5" x2="12.3" y2="7.8"/>
</g>
<g>
	<line class="st0" x1="7.3" y1="7.2" x2="9" y2="8.9"/>
</g>
<g>
	<line class="st0" x1="11.8" y1="2.8" x2="13.4" y2="4.5"/>
</g>
</svg>
