<svg xmlns="http://www.w3.org/2000/svg" xmlns:xlink="http://www.w3.org/1999/xlink" width="48" height="48" viewBox="0 0 48 48">
    <defs>
        <path id="a" d="M20.506 24.598l2.004 1.762a2.248 2.248 0 0 0 2.98 0l2.004-1.762 6.428 5.702H14.078l6.428-5.702zm14.76-6.818v11.422l-6.463-5.746 6.464-5.676zm-22.533 0l6.464 5.676-6.464 5.746V17.78zm1.373-1.08h19.788l-9.56 8.394c-.124.108-.544.108-.668 0l-9.56-8.394zM13.022 15C11.917 15 11 15.9 11 16.983v13.034C11 31.1 11.917 32 13.022 32h21.956C36.083 32 37 31.1 37 30.017V16.983C37 15.9 36.083 15 34.978 15H13.022z"/>
    </defs>
    <g fill="none" fill-rule="evenodd">
        <mask id="b" fill="#fff">
            <use xlink:href="#a"/>
        </mask>
        <use fill="#000" xlink:href="#a"/>
        <g fill="#EB008B" mask="url(#b)">
            <path d="M0 0h48v48H0z"/>
        </g>
    </g>
</svg>
