<svg xmlns="http://www.w3.org/2000/svg" xmlns:xlink="http://www.w3.org/1999/xlink" width="48" height="48" viewBox="0 0 48 48">
    <defs>
        <path id="a" d="M25.207 32.966v-5.981a.79.79 0 0 0-.788-.79 15.55 15.55 0 0 0-13.724 8.387C9.723 27 15.08 20.065 22.662 19.092a13.81 13.81 0 0 1 1.743-.113.79.79 0 0 0 .789-.788l-.092-5.666 12.83 10.161-12.725 10.28zm13.71-11.423L26.101 11.329a1.527 1.527 0 0 0-2.471 1.196v4.89c-8.49.422-15.033 7.647-14.61 16.137.065 1.323.302 2.633.703 3.896.102.327.406.55.749.552a.789.789 0 0 0 .75-.552A13.934 13.934 0 0 1 23.616 27.8v5.166a1.524 1.524 0 0 0 2.47 1.196l12.83-10.24a1.525 1.525 0 0 0 0-2.38z"/>
    </defs>
    <g fill="none" fill-rule="evenodd">
        <mask id="b" fill="#fff">
            <use xlink:href="#a"/>
        </mask>
        <use fill="#000" xlink:href="#a"/>
        <g fill="#E00087" mask="url(#b)">
            <path d="M0 0h48v48H0z"/>
        </g>
    </g>
</svg>
