<svg class="payment-method-icon" xmlns="http://www.w3.org/2000/svg" xlink="http://www.w3.org/1999/xlink" width="50" height="32" viewBox="0 0 50 32"><defs><rect id="prefix__qaa" width="50" height="32" x="0" y="0" rx="2"></rect></defs><g fill="none" fill-rule="evenodd"><mask id="prefix__qab" fill="#fff"><use href="#prefix__qaa"></use></mask><rect width="49.5" height="31.5" x=".25" y=".25" stroke="#333" stroke-width=".5" rx="2"></rect><g fill="#333" fill-rule="nonzero" mask="url(#prefix__qab)"><path d="M16.998 16.084c.02 2.03 1.795 2.704 1.814 2.713-.015.048-.283.962-.935 1.907-.563.817-1.148 1.631-2.07 1.648-.905.017-1.195-.532-2.23-.532s-1.359.515-2.216.549c-.889.033-1.566-.884-2.134-1.698-1.16-1.665-2.048-4.704-.857-6.756.592-1.019 1.65-1.664 2.798-1.68.873-.017 1.697.582 2.23.582.534 0 1.536-.72 2.59-.614.44.018 1.677.176 2.471 1.33-.064.04-1.476.855-1.46 2.551zm-1.701-4.983c.472-.567.79-1.356.703-2.141-.68.027-1.503.45-1.991 1.016-.438.502-.82 1.305-.717 2.074.758.059 1.533-.382 2.005-.95v.001zm6.833-.97c.384-.065.77-.12 1.158-.163.462-.05.927-.075 1.393-.072.723 0 1.347.087 1.872.262.525.175.955.425 1.293.751.292.293.523.644.678 1.031.163.398.244.857.244 1.375 0 .627-.111 1.176-.334 1.647-.215.46-.527.864-.914 1.185-.386.319-.844.557-1.375.714-.53.157-1.11.235-1.737.235-.566 0-1.042-.042-1.428-.126v5.21h-.85V10.13zm.85 6.08c.205.06.434.102.688.125.253.025.524.037.813.037 1.085 0 1.927-.254 2.524-.76.596-.507.895-1.249.895-2.226 0-.47-.078-.88-.235-1.23-.149-.34-.38-.635-.67-.86-.289-.223-.632-.391-1.03-.506-.399-.115-.839-.172-1.321-.172-.386 0-.718.015-.995.045s-.5.064-.67.1v5.446h.001zm12.55 3.908c0 .35.006.7.018 1.049.012.35.048.687.109 1.013h-.796l-.126-1.23h-.037c-.109.169-.247.337-.416.506-.169.169-.365.323-.587.461-.224.14-.477.25-.76.335-.304.087-.617.13-.932.127-.422 0-.793-.07-1.113-.208-.32-.14-.582-.32-.787-.543-.203-.221-.36-.483-.46-.77-.1-.277-.153-.571-.154-.867 0-1.026.43-1.815 1.293-2.37.862-.556 2.162-.821 3.899-.797v-.235c0-.23-.022-.492-.064-.787-.042-.296-.137-.581-.28-.842-.145-.265-.362-.488-.651-.669-.29-.18-.682-.271-1.176-.271-.374 0-.745.057-1.112.172-.368.114-.703.274-1.004.479l-.272-.633c.386-.266.784-.455 1.194-.57.419-.115.85-.173 1.284-.172.603 0 1.095.103 1.475.308.38.205.678.47.895.796.219.33.37.702.443 1.095.078.396.117.799.118 1.203v3.42zm-.85-2.588c-.48-.011-.96.007-1.438.054-.5.048-.962.154-1.384.317-.422.163-.771.4-1.049.714-.277.314-.416.73-.416 1.25 0 .614.175 1.066.525 1.356.35.29.741.434 1.175.434.35 0 .664-.048.94-.145.278-.096.519-.226.724-.388.205-.163.377-.347.516-.552.139-.206.244-.416.317-.634.06-.241.09-.416.09-.525v-1.88zm2.513-4.035L39.4 19.14c.123.32.238.642.345.968.108.331.204.636.289.914h.036c.085-.265.181-.564.29-.896.108-.331.229-.672.361-1.023l2.063-5.608h.904l-2.514 6.369c-.23.615-.469 1.227-.715 1.836-.203.505-.43 1-.678 1.484-.208.404-.44.794-.697 1.167-.226.327-.49.625-.787.886-.337.301-.648.522-.931.66-.284.14-.473.227-.57.263l-.29-.705c.248-.113.49-.24.724-.38.283-.171.545-.378.778-.615.217-.218.455-.503.714-.86.26-.356.492-.787.697-1.294.072-.193.108-.32.108-.38 0-.084-.036-.21-.108-.38l-3.13-8.052h.905z"></path></g></g></svg>
