<svg class="payment-method-icon" xmlns="http://www.w3.org/2000/svg" xlink="http://www.w3.org/1999/xlink" width="50" height="32" viewBox="0 0 50 32"><defs><rect id="prefix__xa" width="50" height="32" x="0" y="0" rx="2"></rect><path id="prefix__xc" d="M22.851 26.262V10.865c0-.532-.435-.966-.966-.966H7.715c-.532 0-.967.434-.967.966v15.397c0 .531.435.966.967.966h14.17c.531 0 .966-.435.966-.966zm1.38 0c0 1.303-1.055 2.358-2.346 2.358H7.715c-1.291 0-2.347-1.055-2.347-2.358V10.865c0-1.304 1.055-2.358 2.347-2.358h14.17c1.291 0 2.347 1.054 2.347 2.358v15.397z"></path></defs><g fill="none" fill-rule="evenodd"><mask id="prefix__xb" fill="#fff"><use href="#prefix__xa"></use></mask><rect width="49.5" height="31.5" x=".25" y=".25" stroke="#333" stroke-width=".5" rx="2"></rect><g mask="url(#prefix__xb)"><g><g transform="translate(6.25 -2.56)"><mask id="prefix__xd" fill="#fff"><use href="#prefix__xc"></use></mask><use fill="#000" fill-rule="nonzero" href="#prefix__xc"></use><g fill="#000" mask="url(#prefix__xd)"><path d="M0 0H36.808V37.12H0z" transform="rotate(-180 18.404 18.56)"></path></g></g><path fill="#FFF" d="M21.471 14.693H26.839V22.426H21.471z" transform="translate(6.25 -2.56)"></path><path fill="#000" d="M19.938 19.268c-.395 0-.714-.317-.714-.708 0-.39.32-.708.714-.708H30.17c.394 0 .714.317.714.708 0 .39-.32.708-.714.708H19.938z" transform="translate(6.25 -2.56)"></path><path fill="#000" d="M30.483 18.56l-3.461-3.432c-.28-.276-.28-.724 0-1 .278-.277.73-.277 1.01 0l3.966 3.932c.278.276.278.724 0 1l-3.967 3.933c-.279.276-.73.276-1.01 0-.278-.277-.278-.725 0-1.001l3.462-3.432z" transform="translate(6.25 -2.56)"></path><path fill="#000" fill-rule="nonzero" d="M12.48 14.075c0-.279.23-.5.506-.5s.495.221.495.5v.255c.678.081 1.254.301 1.783.638.184.104.345.278.345.557 0 .36-.288.638-.644.638-.115 0-.23-.035-.345-.105-.403-.243-.794-.417-1.185-.51v2.227c1.748.44 2.496 1.148 2.496 2.39 0 1.276-.99 2.122-2.45 2.262v.696c0 .278-.219.498-.495.498s-.506-.22-.506-.498v-.72c-.863-.092-1.656-.406-2.358-.904-.195-.128-.31-.314-.31-.557 0-.36.276-.638.632-.638.138 0 .276.046.38.127.54.395 1.07.662 1.702.778v-2.286c-1.68-.44-2.461-1.078-2.461-2.39 0-1.24.977-2.099 2.415-2.215v-.243zm2.094 6.17c0-.51-.254-.823-1.14-1.101v2.111c.737-.081 1.14-.452 1.14-1.01zm-3.152-3.792c0 .487.218.788 1.104 1.078v-2.053c-.736.07-1.104.464-1.104.975z" transform="translate(6.25 -2.56)"></path></g></g></g></svg>
