<svg class="payment-method-icon" xmlns="http://www.w3.org/2000/svg" xlink="http://www.w3.org/1999/xlink" width="50" height="32" viewBox="0 0 50 32"><defs><rect id="prefix__qa" width="50" height="32" x="0" y="0" rx="2"></rect><path id="prefix__qc" d="M7.312 14.69c.408 0 .739.331.739.74 0 .407-.331.738-.74.738h-.48v10.928c0 .02.019.04.041.04h18.522v-.793c0-.404.327-.731.731-.731.404 0 .732.327.732.731v1.531c0 .409-.328.74-.732.74H6.872c-.829 0-1.504-.68-1.504-1.518V15.429c0-.408.327-.739.732-.739h1.212zm22.664-6.183c.809 0 1.464.661 1.464 1.478V22.43c0 .816-.655 1.478-1.464 1.478H11.491c-.808 0-1.463-.662-1.463-1.478V9.985c0-.817.655-1.478 1.463-1.478h18.485zm0 7H11.49v6.923h18.485v-6.923zm0-5.522H11.491v2.41h18.485v-2.41z"></path></defs><g fill="none" fill-rule="evenodd"><mask id="prefix__qb" fill="#fff"><use href="#prefix__qa"></use></mask><rect width="49.5" height="31.5" x=".25" y=".25" stroke="#333" stroke-width=".5" rx="2"></rect><g mask="url(#prefix__qb)"><g transform="translate(6.25 -2.56)"><path d="M0 0H36.808V37.12H0z"></path><mask id="prefix__qd" fill="#fff"><use href="#prefix__qc"></use></mask><use fill="#000" fill-rule="nonzero" href="#prefix__qc"></use><g fill="#000" mask="url(#prefix__qd)"><path d="M0 0H36.808V37.12H0z" transform="rotate(-180 18.404 18.56)"></path></g></g></g></g></svg>
