<svg width="24" height="24" xmlns="http://www.w3.org/2000/svg" xmlns:xlink="http://www.w3.org/1999/xlink">
    <defs>
        <rect id="a" x="0" y="0" width="24" height="24" rx="3"/>
        <path id="c" d="M0 0h20v3.636H0z"/>
    </defs>
    <g fill="#0E1111" fill-rule="evenodd">
        <mask id="b" fill="#fff">
            <use xlink:href="#a"/>
        </mask>
        <rect stroke="#0E1111" x=".5" y=".5" width="23" height="23" rx="3"/>
        <g mask="url(#b)">
            <g transform="translate(2 10.182)">
                <mask id="d" fill="#fff">
                    <use xlink:href="#c"/>
                </mask>
                <path d="M9.822.01c.04-.014.097-.018.12.025.037.07.026.153.028.23.002.16-.005.322.004.482 0 .065.045.133.12.132.233.011.468-.006.702.008.096.007.11.115.106.188 0 .063-.015.156-.098.162-.228.01-.457-.001-.686.005-.062 0-.128.036-.141.097-.012.057-.007.116-.007.174v1.186c.003.153.024.325.147.437.114.103.285.114.434.094.088-.01.167-.052.253-.063.06-.007.097.05.1.1.01.09.019.213-.083.26-.259.116-.57.152-.84.047a.597.597 0 0 1-.34-.357c-.076-.208-.086-.432-.095-.65-.004-.388 0-.776-.002-1.164 0-.051-.013-.11-.06-.14-.104-.057-.24.016-.339-.052a.224.224 0 0 1 0-.294c.096-.073.23-.004.333-.054a.13.13 0 0 0 .065-.115c.007-.175-.002-.35.01-.525.022-.124.163-.172.269-.214M15.594.01c.136-.018.275-.005.413-.01.092.003.191-.008.279.024.064.023.078.086.077.138v3.309c0 .051-.001.12-.07.142a.555.555 0 0 1-.322 0c-.07-.023-.085-.09-.082-.143V.508c.003-.063-.022-.137-.098-.166-.09-.028-.202.008-.28-.05-.094-.08-.074-.264.083-.282M7.129.921c.278-.035.569.006.823.116.071.027.114.106.082.173-.029.07-.074.164-.17.16-.122-.015-.23-.075-.35-.096-.193-.05-.429-.032-.57.11-.141.155-.09.405.079.526.289.215.692.26.959.507.252.225.257.613.066.873-.145.197-.396.31-.649.339-.294.03-.59-.03-.865-.12-.068-.026-.148-.059-.168-.13-.012-.08.031-.162.09-.22.05-.045.125-.028.18-.004.223.093.47.162.717.13.192-.024.354-.175.369-.353.016-.119-.055-.233-.154-.305-.216-.16-.493-.225-.725-.36-.18-.102-.346-.246-.405-.438-.084-.282.048-.604.31-.77a.958.958 0 0 1 .38-.138M4.173 1.497a.55.55 0 0 1 .347-.214c.16-.04.34-.013.47.101.105.092.137.258.094.393-.017.055-.065.097-.12.094-.263.003-.526.004-.789.004-.047.004-.112-.013-.115-.075-.008-.114.054-.216.113-.303zM5.34 3.044c-.09.04-.17.104-.26.142a.86.86 0 0 1-.659.04.636.636 0 0 1-.346-.392A1.35 1.35 0 0 1 4 2.333c.006-.072.077-.102.135-.099H5.2a.172.172 0 0 0 .169-.101c.108-.245.116-.542.018-.792a.648.648 0 0 0-.33-.352C4.851.893 4.618.896 4.401.932c-.161.03-.3.132-.423.244a.875.875 0 0 0-.199.296c-.142.333-.161.712-.13 1.074.024.277.114.551.276.77.139.178.348.275.557.308.267.042.538-.03.78-.152.053-.029.114-.058.145-.118a.525.525 0 0 0 .013-.247c-.004-.04-.042-.084-.08-.063zM13.232 1.558a.551.551 0 0 1 .37-.277.55.55 0 0 1 .474.099c.107.089.142.255.101.392-.016.052-.059.099-.112.098-.263.005-.526.004-.789.006-.05.003-.12-.01-.126-.077a.45.45 0 0 1 .082-.241zm1.226 1.48c-.065.013-.118.06-.176.09a.95.95 0 0 1-.646.134.568.568 0 0 1-.36-.218c-.127-.169-.174-.39-.186-.603-.002-.057-.011-.125.029-.17.037-.038.091-.036.138-.037h1.023c.069.004.143-.025.176-.094.113-.248.12-.552.018-.806a.65.65 0 0 0-.358-.36c-.201-.08-.423-.077-.633-.04-.177.038-.33.156-.46.289-.186.22-.258.522-.286.81-.029.397-.002.821.2 1.164.106.2.294.337.497.396.337.103.702.012 1.001-.17.086-.048.087-.163.085-.254-.004-.048-.01-.115-.062-.131zM.037.97a.356.356 0 0 1 .23-.06c.06.012.074.093.087.151.096.524.192 1.047.286 1.572.014.065.017.137.052.193.055.03.075-.062.091-.106.142-.545.278-1.092.416-1.638.014-.056.039-.119.092-.138a.259.259 0 0 1 .193.004c.054.026.069.097.083.155.109.504.21 1.01.318 1.513.017.073.028.155.079.208.041-.028.062-.078.072-.13.114-.545.233-1.088.353-1.631.014-.065.043-.144.11-.151.07-.003.144.02.2.07.045.05.026.126.012.187-.195.777-.386 1.556-.584 2.333-.03.144-.198.17-.29.09-.043-.046-.057-.115-.072-.177-.115-.507-.23-1.014-.341-1.521-.012-.054-.03-.108-.071-.14-.05.062-.07.144-.092.223-.132.492-.258.987-.393 1.478-.019.059-.034.134-.091.158a.236.236 0 0 1-.181 0c-.052-.024-.07-.09-.083-.147L.01 1.146C0 1.086-.015 1.007.037.97M18.611 1.098c.059.07.083.167.127.249.012.03.04.035.064.025.04-.033.062-.087.092-.132.125-.203.33-.33.538-.33a.47.47 0 0 1 .404.196c.121.163.162.39.164.605v1.74c0 .063 0 .15-.062.172a.215.215 0 0 1-.178-.014c-.047-.03-.054-.1-.053-.157V2.045c-.002-.177.013-.361-.04-.53-.032-.113-.101-.218-.198-.252-.143-.053-.3.015-.405.136-.137.158-.211.38-.251.602-.046.248-.032.505-.034.758v.738c-.001.052-.016.12-.066.13a.29.29 0 0 1-.161-.005c-.056-.026-.06-.108-.06-.17V1.845c-.004-.163-.02-.34-.107-.471a.289.289 0 0 0-.335-.112c-.15.047-.264.19-.339.347a1.82 1.82 0 0 0-.15.794l.003 1.05c0 .054 0 .125-.046.156a.204.204 0 0 1-.191.007c-.046-.024-.055-.09-.054-.143V1.13c-.003-.06.01-.133.064-.154.063-.023.144-.027.195.03.054.085 0 .207.047.297.048.02.078-.045.109-.079.104-.151.245-.274.41-.3.18-.035.385.004.513.174z" fill="#FFF" mask="url(#d)"/>
            </g>
        </g>
    </g>
</svg>
