<?xml version="1.0" encoding="UTF-8"?>
<svg width="34px" height="34px" viewBox="0 0 34 34" version="1.1" xmlns="http://www.w3.org/2000/svg" xmlns:xlink="http://www.w3.org/1999/xlink">
    <title>84893405-9A66-4152-812E-5D26A9DD4539</title>
    <defs>
        <path d="M16.4614644,19.3097826 C15.7361456,19.3097826 15.147165,18.7395963 15.147165,18.0383023 C15.147165,17.3361284 15.7361456,16.7650621 16.4614644,16.7650621 C17.1858743,16.7650621 17.774855,17.3361284 17.774855,18.0383023 C17.774855,18.7395963 17.1858743,19.3097826 16.4614644,19.3097826 L16.4614644,19.3097826 Z M16.4614644,15.5331781 C15.0353677,15.5331781 13.8737669,16.6568323 13.8737669,18.0383023 C13.8737669,19.4188923 15.0353677,20.5416667 16.4614644,20.5416667 C17.8875612,20.5416667 19.048253,19.4188923 19.048253,18.0383023 C19.048253,16.6568323 17.8875612,15.5331781 16.4614644,15.5331781 L16.4614644,15.5331781 Z M9.16646617,19.3097826 C8.44114738,19.3097826 7.85216671,18.7395963 7.85216671,18.0383023 C7.85216671,17.3361284 8.44114738,16.7650621 9.16646617,16.7650621 C9.89087604,16.7650621 10.4798567,17.3361284 10.4798567,18.0383023 C10.4798567,18.7395963 9.89087604,19.3097826 9.16646617,19.3097826 L9.16646617,19.3097826 Z M9.16646617,15.5331781 C7.74036945,15.5331781 6.57785976,16.6568323 6.57785976,18.0383023 C6.57785976,19.4188923 7.74036945,20.5416667 9.16646617,20.5416667 C10.591654,20.5416667 11.7532547,19.4188923 11.7532547,18.0383023 C11.7532547,16.6568323 10.591654,15.5331781 9.16646617,15.5331781 L9.16646617,15.5331781 Z M19.5490684,11.2884576 C19.3381987,12.2070911 18.6483279,12.8476708 17.8730184,12.8476708 L7.81126527,12.8476708 C7.05867886,12.8476708 6.39243992,12.2563665 6.15793835,11.3746894 L4.34918598,4.66268116 L21.0778731,4.66268116 L19.5490684,11.2884576 Z M4.01470313,3.42991718 L3.05670062,0 L0,0 L0,1.23188406 L2.08324645,1.23188406 L2.91218221,4.20688406 L2.91400005,4.20688406 L4.92544176,11.6853002 C5.30991526,13.1178054 6.46969818,14.0804348 7.81126527,14.0804348 L17.8730184,14.0804348 C19.2482156,14.0804348 20.4488999,13.0421325 20.792472,11.5559524 L22.6666667,3.42991718 L4.01470313,3.42991718 Z" id="path-1"></path>
    </defs>
    <g id="Page-1" stroke="none" stroke-width="1" fill="none" fill-rule="evenodd">
        <g id="Artboard" transform="translate(-1213.000000, -140.000000)">
            <g id="Components/Panels/Basket+Price" transform="translate(1057.000000, 134.000000)">
                <g id="Style/Icons/UI/Shopping-Bag" transform="translate(156.000000, 6.000000)">
                    <g id="ic_shoppingbag" transform="translate(5.666667, 7.083333)">
                        <mask id="mask-2" fill="white">
                            <use xlink:href="#path-1"></use>
                        </mask>
                        <use id="Fill-1" fill="#565458" xlink:href="#path-1"></use>
                        <g id="Style/Color/WE-Primary-Gray" mask="url(#mask-2)" fill="#363636">
                            <g transform="translate(-5.666667, -7.083333)" id="Rectangle-4-Copy-5">
                                <rect x="0" y="0" width="34" height="34"></rect>
                            </g>
                        </g>
                    </g>
                </g>
            </g>
        </g>
    </g>
</svg>