<svg xmlns="http://www.w3.org/2000/svg" viewBox="0 0 144.26 193.26" role="img" aria-labelledby="title"><title id="title" stroke="none" fill="#000000" stroke-width="1px">store</title>
<path role="presentation" d="M72.13,106.11a34,34,0,1,1,34-34,34,34,0,0,1-34,34m0-54.84A20.86,20.86,0,1,0,93,72.13,20.89,20.89,0,0,0,72.13,51.27" stroke="none" fill="#000000" stroke-width="1px"></path>
<path d="M72.13,0A72.21,72.21,0,0,0,0,72.13c0,8.79,3.12,19.49,9.5,32.68l9.87-9.87c-4.15-9.31-6.26-17-6.26-22.81a59,59,0,0,1,118,0c0,25.38-38.84,77-59,101.06-8.37-10.05-25.84-31.78-39.64-54l24-24-9.27-9.27L16,117.16l2.62,4.38c19.5,32.7,47.42,64.73,48.59,66.08l4.94,5.64,4.93-5.64c2.74-3.14,67.19-77.25,67.19-115.49A72.21,72.21,0,0,0,72.13,0" stroke="none" fill="#000000" stroke-width="1px"></path>
</svg>