<svg xmlns="http://www.w3.org/2000/svg" width="27" height="27" viewBox="0 0 27 27">
    <g fill="none" fill-rule="evenodd">
        <path stroke="#666" d="M1 13.5C1 6.596 6.596 1 13.5 1S26 6.596 26 13.5 20.404 26 13.5 26 1 20.404 1 13.5z"/>
        <path fill="#666" d="M11.227 13.143V14.5h2.256c-.091.582-.682 1.708-2.256 1.708-1.358 0-2.466-1.12-2.466-2.5s1.108-2.5 2.466-2.5c.773 0 1.29.329 1.585.612l1.08-1.035a3.822 3.822 0 0 0-2.665-1.035 3.965 3.965 0 0 0-3.977 3.958 3.965 3.965 0 0 0 3.977 3.959c2.296 0 3.818-1.606 3.818-3.868 0-.26-.028-.458-.062-.656h-3.756zM19.75 13.143h-1.136v-1.131h-1.137v1.13h-1.136v1.132h1.136v1.13h1.137v-1.13h1.136"/>
    </g>
</svg>
