<svg width="24" height="24" viewBox="0 0 24 24" xmlns="http://www.w3.org/2000/svg">
    <g fill="none" fill-rule="evenodd">
        <rect stroke="#1B1B1B" fill="#FFF" x=".5" y=".5" width="23" height="23" rx="3"/>
        <g fill="#000" fill-rule="nonzero">
            <path d="M5.88 14.626c-.734-.26-1.264-.758-1.627-1.517-.213-.442-.253-.6-.253-1.146 0-.56.032-.695.253-1.153a2.996 2.996 0 0 1 1.43-1.399c.38-.174.561-.205 1.122-.205.79 0 1.375.197 1.865.616l.308.269-.158.174c-.3.331-.411.347-.806.079-.711-.467-1.43-.506-2.157-.111-.672.363-1.027.972-1.027 1.754 0 1.675 1.928 2.584 3.287 1.549l.276-.214.269.261.276.269-.205.213c-.569.593-1.983.87-2.853.561zM11.554 14.642c-1.96-.711-2.568-3.01-1.201-4.551 1.438-1.62 4.195-.98 4.804 1.114.379 1.32-.277 2.726-1.55 3.31-.568.261-1.524.317-2.053.127zm1.509-.759c.395-.118.972-.624 1.177-1.027.482-.948.11-2.078-.861-2.655-.308-.181-.459-.213-.925-.213-.671.008-1.058.182-1.517.703-1.327 1.51.182 3.777 2.126 3.192zM19.002 14.61c.663-.308.948-.703.948-1.303 0-.806-.34-1.122-1.739-1.612-1.248-.435-1.525-.79-1.058-1.343.403-.482 1.224-.514 1.99-.08l.435.245.237-.237c.293-.292.253-.418-.229-.719-1.39-.885-3.429-.173-3.429 1.194 0 .782.419 1.185 1.683 1.611.53.182.948.38 1.09.514.293.276.309.6.024.87-.182.165-.276.189-.806.189-.49 0-.671-.032-.908-.174-.166-.103-.332-.182-.372-.182-.031 0-.142.127-.229.285-.205.347-.158.418.411.663.6.261 1.477.3 1.952.08z"/>
        </g>
    </g>
</svg>
