<?xml version="1.0" encoding="UTF-8"?>
<svg width="88px" height="104px" viewBox="0 0 88 104" version="1.1" xmlns="http://www.w3.org/2000/svg" xmlns:xlink="http://www.w3.org/1999/xlink">
  <title>TBS Map Inactive</title>
  <g id="Page-1" stroke="none" stroke-width="1" fill="none" fill-rule="evenodd">
    <g id="TBS-Map-Inactive" transform="translate(0.818000, 0.500000)" fill-rule="nonzero">
      <path d="M58.915,12.648 C54.713,4.492 49.125,0 43.182,0 C37.24,0 31.652,4.492 27.45,12.648 C23.248,20.804 20.933,31.648 20.933,43.182 C20.933,54.716 23.248,65.56 27.45,73.716 L42.084,102.116 C42.388,102.706 42.785,103 43.184,103 C43.581,103 43.979,102.705 44.283,102.116 L58.916,73.716 C63.119,65.56 65.433,54.716 65.433,43.182 C65.433,31.647 63.119,20.804 58.916,12.648 L58.915,12.648 Z" id="Path" fill="#F8F3E8"></path>
      <circle id="Oval" fill="#F8F3E8" cx="43.182" cy="43.182" r="43.182"></circle>
      <g id="Group" transform="translate(11.181263, 12.759555)" fill="#004236">
        <path d="M43.6887367,0.143445115 C42.0657367,0.436445115 40.8887367,1.85044511 40.8757367,3.50244511 C40.8197367,5.05644511 41.8277367,6.45644511 43.3257367,6.86244511 C57.0857367,12.0124451 65.2877367,26.2494451 60.5427367,39.5614451 C54.9007367,55.4204451 37.5577367,63.6654451 21.8107367,57.9804451 C13.2707367,54.9014451 6.56673673,48.1404451 3.50073673,39.5604451 C-1.22926327,26.1504451 6.98673673,11.9004451 20.7327367,6.76444511 C22.2157367,6.34444511 23.2377367,4.95844511 23.1827367,3.40444511 C23.1957367,1.73844511 22.0057367,0.310445115 20.3827367,0.0444451146 C15.6927367,-0.794554885 -0.124263274,10.2924451 0.000736725874,29.2734451 C0.000736725874,47.0644451 14.3357367,61.4824451 32.0007367,61.4824451 C49.6657367,61.4824451 64.0007367,47.0644451 64.0007367,29.2724451 C64.1247367,10.3054451 48.3217367,-0.779554885 43.6877367,0.142445115 L43.6887367,0.143445115 Z" id="Path"></path>
        <path d="M59.8007367,36.9574451 C56.6787367,32.3664451 52.3677367,28.7124451 47.3287367,26.4034451 C46.2227367,26.0254451 45.4807367,24.9754451 45.5227367,23.7854451 C45.5087367,22.2594451 46.7407367,21.0134451 48.2667367,20.9994451 L48.3647367,20.9994451 C51.4297367,20.9994451 58.0227367,29.2024451 59.8007367,36.9574451 Z" id="Path"></path>
        <path d="M46.2507367,10.5853378 C44.5707367,10.5714451 43.1987367,11.9294451 43.1847367,13.6234451 C43.0867367,14.9104451 43.8567367,16.0864451 45.0467367,16.5344451 C52.2837367,19.8524451 57.7707367,26.1234451 60.1647367,33.7664451 C61.7187367,21.0414451 50.3247367,10.6974451 46.2507367,10.5853378 Z M4.36873673,36.9574451 C7.50473673,32.3664451 11.8157367,28.7124451 16.8407367,26.4034451 C17.9467367,26.0254451 18.6887367,24.9614451 18.6467367,23.7854451 C18.6467367,22.2454451 17.4007367,20.9994451 15.8747367,20.9994451 L15.8187367,20.9994451 C12.7387367,20.9994451 6.16073673,29.2024451 4.36873673,36.9574451 Z" id="Shape"></path>
        <path d="M17.9047367,10.5853378 C19.5987367,10.5714451 20.9707367,11.9294451 20.9987367,13.6094451 L20.9987367,13.6374451 C21.0687367,14.9104451 20.2847367,16.0724451 19.0947367,16.4924451 C11.7877367,19.8244451 6.24473673,26.1094451 3.83673673,33.7664451 C2.29673673,21.0694451 13.7757367,10.6974451 17.9047367,10.5853378 L17.9047367,10.5853378 Z" id="Path"></path>
      </g>
    </g>
  </g>
</svg>
