<?xml version="1.0" encoding="UTF-8"?>
<svg xmlns="http://www.w3.org/2000/svg" xmlns:xlink="http://www.w3.org/1999/xlink" width="28pt" height="33pt" viewBox="0 0 28 33" version="1.1">
<g id="surface1">
<path style=" stroke:none;fill-rule:nonzero;fill:rgb(97.254902%,95.294118%,90.980392%);fill-opacity:1;" d="M 19.007812 4.171875 C 17.667969 1.585938 15.890625 0.160156 14 0.160156 C 12.109375 0.160156 10.332031 1.585938 8.996094 4.171875 C 7.65625 6.761719 6.921875 10.199219 6.921875 13.859375 C 6.921875 17.519531 7.65625 20.960938 8.996094 23.550781 L 13.652344 32.5625 C 13.746094 32.75 13.875 32.839844 14 32.839844 C 14.128906 32.839844 14.253906 32.746094 14.351562 32.5625 L 19.007812 23.550781 C 20.34375 20.960938 21.078125 17.519531 21.078125 13.859375 C 21.078125 10.199219 20.34375 6.761719 19.007812 4.171875 Z M 19.007812 4.171875 "/>
<path style=" stroke:none;fill-rule:nonzero;fill:rgb(97.254902%,95.294118%,90.980392%);fill-opacity:1;" d="M 27.738281 13.859375 C 27.738281 21.429688 21.589844 27.5625 14 27.5625 C 6.410156 27.5625 0.261719 21.429688 0.261719 13.859375 C 0.261719 6.292969 6.410156 0.160156 14 0.160156 C 21.589844 0.160156 27.738281 6.292969 27.738281 13.859375 Z M 27.738281 13.859375 "/>
<path style=" stroke:none;fill-rule:nonzero;fill:rgb(0%,25.882353%,21.176471%);fill-opacity:1;" d="M 17.71875 4.253906 C 17.203125 4.347656 16.828125 4.792969 16.824219 5.320312 C 16.804688 5.8125 17.125 6.257812 17.601562 6.386719 C 21.980469 8.019531 24.589844 12.535156 23.082031 16.761719 C 21.285156 21.792969 15.769531 24.410156 10.757812 22.605469 C 8.039062 21.628906 5.90625 19.484375 4.933594 16.761719 C 3.425781 12.503906 6.039062 7.984375 10.414062 6.355469 C 10.886719 6.21875 11.210938 5.78125 11.195312 5.289062 C 11.199219 4.757812 10.820312 4.304688 10.304688 4.222656 C 8.8125 3.957031 3.777344 7.472656 3.816406 13.496094 C 3.816406 19.140625 8.378906 23.714844 14 23.714844 C 19.621094 23.714844 24.183594 19.140625 24.183594 13.496094 C 24.222656 7.476562 19.191406 3.960938 17.71875 4.253906 Z M 17.71875 4.253906 "/>
<path style=" stroke:none;fill-rule:nonzero;fill:rgb(0%,25.882353%,21.176471%);fill-opacity:1;" d="M 22.84375 15.933594 C 21.851562 14.476562 20.480469 13.316406 18.878906 12.585938 C 18.523438 12.464844 18.289062 12.132812 18.300781 11.753906 C 18.296875 11.269531 18.691406 10.875 19.175781 10.871094 L 19.207031 10.871094 C 20.183594 10.871094 22.28125 13.472656 22.84375 15.933594 Z M 22.84375 15.933594 "/>
<path style=" stroke:none;fill-rule:nonzero;fill:rgb(0%,25.882353%,21.176471%);fill-opacity:1;" d="M 18.535156 7.566406 C 18 7.5625 17.5625 7.992188 17.558594 8.53125 C 17.527344 8.9375 17.773438 9.3125 18.152344 9.453125 C 20.453125 10.507812 22.199219 12.496094 22.960938 14.921875 C 23.457031 10.882812 19.832031 7.601562 18.535156 7.566406 Z M 5.207031 15.933594 C 6.207031 14.476562 7.578125 13.316406 9.175781 12.585938 C 9.527344 12.464844 9.765625 12.128906 9.75 11.753906 C 9.75 11.265625 9.355469 10.871094 8.867188 10.871094 L 8.851562 10.871094 C 7.871094 10.871094 5.777344 13.472656 5.207031 15.933594 Z M 5.207031 15.933594 "/>
<path style=" stroke:none;fill-rule:nonzero;fill:rgb(0%,25.882353%,21.176471%);fill-opacity:1;" d="M 9.515625 7.566406 C 10.054688 7.5625 10.492188 7.992188 10.5 8.527344 L 10.5 8.535156 C 10.523438 8.9375 10.273438 9.308594 9.894531 9.441406 C 7.570312 10.496094 5.804688 12.492188 5.039062 14.921875 C 4.546875 10.894531 8.199219 7.601562 9.515625 7.566406 Z M 9.515625 7.566406 "/>
</g>
</svg>
