<svg width="24" height="34" xmlns="http://www.w3.org/2000/svg">
    <g fill-rule="nonzero" fill="none">
        <path d="M12 .5c3.18 0 6.055 1.275 8.136 3.338A11.315 11.315 0 0 1 23.5 11.9c0 7.388-8.374 17.705-11.053 20.83C8.947 29.688.5 19.314.5 11.9c0-3.15 1.285-6 3.364-8.062A11.515 11.515 0 0 1 12 .5z" stroke="#004236" fill="#004236"/>
        <g fill="#F8F3E8">
            <path d="M14.922 5.036a.858.858 0 0 0-.703.84.836.836 0 0 0 .612.84c3.44 1.287 5.49 4.846 4.304 8.174-1.41 3.965-5.746 6.026-9.683 4.606a7.608 7.608 0 0 1-4.577-4.606c-1.183-3.352.872-6.915 4.308-8.2a.843.843 0 0 0 .612-.839.84.84 0 0 0-.7-.84C7.923 4.801 3.97 7.573 4 12.318c0 4.448 3.584 8.053 8 8.053s8-3.605 8-8.053c.031-4.742-3.92-7.513-5.078-7.282z"/>
            <path d="M18.95 14.24a7.602 7.602 0 0 0-3.118-2.64.666.666 0 0 1-.452-.654.692.692 0 0 1 .686-.696h.025c.766 0 2.415 2.05 2.859 3.99z"/>
            <path d="M15.563 7.646a.762.762 0 0 0-.767.76.719.719 0 0 0 .465.727 7.048 7.048 0 0 1 3.78 4.308c.389-3.18-2.46-5.767-3.479-5.795zM5.092 14.24a7.646 7.646 0 0 1 3.118-2.638.668.668 0 0 0 .452-.655.695.695 0 0 0-.693-.696h-.014c-.77 0-2.415 2.05-2.863 3.99z"/>
            <path d="M8.476 7.646a.768.768 0 0 1 .773.756v.007a.716.716 0 0 1-.476.714 7.08 7.08 0 0 0-3.814 4.318c-.385-3.174 2.485-5.767 3.517-5.795z"/>
        </g>
    </g>
</svg>
