<svg xmlns="http://www.w3.org/2000/svg" xmlns:xlink="http://www.w3.org/1999/xlink" width="33" height="48" viewBox="0 0 33 48">
    <defs>
        <path id="a" d="M36.632 55.198c.245.325.365.485.459.614.066.091.115.161.155.225.044.067.044.067.123.223.059.122.059.122.13.505-.097.988-.097.988-1.457 1.568-1.36-.58-1.36-.58-1.457-1.568.07-.383.07-.383.13-.505.078-.156.078-.156.122-.223.04-.064.09-.134.155-.225.094-.129.214-.289.46-.614l.59-.782.59.782zm-.59.219c-1.357.58-1.357.58-1.452 1.562.069.375.069.375.123.485.063.125.063.125.077.145a33.771 33.771 0 0 0-.486-.653 175.353 175.353 0 0 1-1.655-2.215 119.409 119.409 0 0 1-5.135-7.537c-1.932-3.097-3.564-6.09-4.816-8.931C20.953 34.314 20 30.776 20 27.726c0-8.869 7.182-16.06 16.042-16.06 8.86 0 16.041 7.191 16.041 16.06 0 3.05-.953 6.588-2.698 10.547-1.252 2.841-2.884 5.834-4.815 8.931a119.408 119.408 0 0 1-5.135 7.537c-.552.751-.833 1.126-1.656 2.215-.234.31-.348.462-.427.57.072-.172.072-.172.142-.547-.096-.983-.096-.983-1.452-1.562zm0-16.042c6.443 0 11.666-5.223 11.666-11.667 0-6.443-5.223-11.666-11.666-11.666-6.444 0-11.667 5.223-11.667 11.666 0 6.444 5.223 11.667 11.667 11.667z"/>
    </defs>
    <g fill="none" fill-rule="evenodd" transform="translate(-20 -11)">
        <path d="M0 0h70v70H0z"/>
        <path fill="#FFF" d="M35.667 39.375C29.223 39.375 24 34.152 24 27.708c0-6.443 5.223-11.666 11.667-11.666 6.443 0 11.666 5.223 11.666 11.666 0 6.444-5.223 11.667-11.666 11.667z"/>
        <mask id="b" fill="#fff">
            <use xlink:href="#a"/>
        </mask>
        <use fill="#F4C6CF" fill-rule="nonzero" xlink:href="#a"/>
        <g fill="#F4C6CF" mask="url(#b)">
            <path d="M0 0h70v70H0z"/>
        </g>
    </g>
</svg>
