<?xml version="1.0" standalone="no"?>
<!DOCTYPE svg PUBLIC "-//W3C//DTD SVG 1.1//EN" "http://www.w3.org/Graphics/SVG/1.1/DTD/svg11.dtd" >
<svg xmlns="http://www.w3.org/2000/svg" xmlns:xlink="http://www.w3.org/1999/xlink" version="1.1">
<metadata>
Created by FontForge 20170731 at Wed Mar 11 00:09:07 2015
 By Aleksey,,,
Web use only; not licensed for further use or distribution by website users.
</metadata>
<defs>
<font id="Munged-B5JlkANe3w" horiz-adv-x="987" >
  <font-face 
    font-family="Webtype - web use only"
    font-weight="500"
    font-stretch="extra-condensed"
    units-per-em="2048"
    panose-1="2 0 6 6 2 0 0 2 0 4"
    ascent="1612"
    descent="-436"
    x-height="1085"
    cap-height="1516"
    bbox="-147 -518 2109 2000"
    underline-thickness="50"
    underline-position="-200"
    unicode-range="U+0020-FB04"
  />
<missing-glyph horiz-adv-x="1024" 
d="M0 1434h1024v-1434h-1024v1434zM102 102h820v1229h-820v-1229z" />
    <glyph glyph-name="f_f" unicode="ff" horiz-adv-x="1028" 
d="M631 911h-266v-911h-213v911h-125v174h125v154q0 132 64 204.5t206 72.5h82v-181q-6 2 -19 1t-24 -1q-48 0 -72 -24.5t-24 -81.5v-144h266v154q0 66 14.5 117.5t47.5 87t87.5 54t134.5 18.5h93v-181h-54q-25 0 -45.5 -4t-34.5 -16t-22 -32.5t-8 -53.5v-144h157v-174h-157
v-911h-213v911z" />
    <glyph glyph-name="f_i" unicode="fi" horiz-adv-x="940" 
d="M614 1473h217v-222h-217v222zM152 911h-125v174h125v154q0 132 64 205.5t206 73.5q31 0 51 -1t31 -1v-181q-6 2 -19 2h-24q-48 0 -72 -25.5t-24 -82.5v-144h133v-174h-133v-911h-213v911zM616 1085h213v-1085h-213v1085z" />
    <glyph glyph-name="f_l" unicode="fl" horiz-adv-x="940" 
d="M152 911h-125v174h125v154q0 132 64 205.5t206 73.5q31 0 51 -1t31 -1v-181q-6 2 -19 2h-24q-48 0 -72 -25.5t-24 -82.5v-144h133v-174h-133v-911h-213v911zM616 1516h213v-1516h-213v1516z" />
    <glyph glyph-name="f_f_i" unicode="ffi" horiz-adv-x="1407" 
d="M631 911h-266v-911h-213v911h-125v174h125v154q0 132 64 204.5t206 72.5h82v-181h-43q-48 0 -72 -24.5t-24 -81.5v-144h266v154q0 66 15.5 117.5t48.5 87t84 54t122 18.5h80v-181h-43q-46 0 -70 -24.5t-24 -81.5v-144h131v-174h-131v-911h-213v911zM1090 1085h213v-1085
h-213v1085zM1087 1473h218v-222h-218v222z" />
    <glyph glyph-name="f_f_l" unicode="ffl" horiz-adv-x="1407" 
d="M631 911h-266v-911h-213v911h-125v174h125v154q0 132 64 204.5t206 72.5h82v-181h-43q-48 0 -72 -24.5t-24 -81.5v-144h266v154q0 66 15.5 117.5t48.5 87t84 54t122 18.5h80v-181h-43q-46 0 -70 -24.5t-24 -81.5v-144h131v-174h-131v-911h-213v911zM1090 1516h213v-1516
h-213v1516z" />
    <glyph glyph-name="f_j" unicode="fj" horiz-adv-x="930" 
d="M152 911h-125v174h125v154q0 132 64 205.5t206 73.5q31 0 51 -1t31 -1v-181q-6 2 -19 2h-24q-48 0 -72 -25.5t-24 -82.5v-144h133v-174h-133v-911h-213v911zM610 1473h215v-222h-215v222zM573 -412q-5 0 -18.5 0.5t-28 1t-26 1t-13.5 1.5v168q3 -1 9.5 -1.5t14 -0.5h14.5
h10q43 0 59 27t16 78v1222h215v-1220q0 -72 -13 -124.5t-43 -86.5t-78 -50t-118 -16z" />
    <glyph glyph-name=".notdef" horiz-adv-x="1024" 
d="M0 1434h1024v-1434h-1024v1434zM102 102h820v1229h-820v-1229z" />
    <glyph glyph-name=".null" horiz-adv-x="0" 
 />
    <glyph glyph-name="nonmarkingreturn" horiz-adv-x="682" 
 />
    <glyph glyph-name="space" unicode=" " horiz-adv-x="352" 
 />
    <glyph glyph-name="space" unicode="&#xa0;" horiz-adv-x="352" 
 />
    <glyph glyph-name="exclam" unicode="!" horiz-adv-x="520" 
d="M137 1516h250l-37 -1100h-178zM139 242h244v-242h-244v242z" />
    <glyph glyph-name="quotedbl" unicode="&#x22;" horiz-adv-x="692" 
d="M406 1411v105h192v-105l-23 -422h-147zM92 1411v105h197v-105l-25 -422h-145z" />
    <glyph glyph-name="numbersign" unicode="#" horiz-adv-x="1073" 
d="M199 428h-158v176h184l45 307h-168v176h195l63 429h195l-63 -429h182l61 429h195l-62 -429h164v-176h-190l-45 -307h172v-176h-199l-61 -428h-197l61 428h-180l-61 -428h-197zM604 598l47 320h-188l-45 -320h186z" />
    <glyph glyph-name="dollar" unicode="$" horiz-adv-x="961" 
d="M387 1677h180v-168q61 -14 106.5 -44.5t79.5 -76.5t58.5 -106t44.5 -131l-194 -51q-19 61 -39 105t-43.5 72t-52.5 41t-66 13q-36 0 -64 -12t-47 -33.5t-29 -51t-10 -65.5q0 -59 24 -106.5t64 -88.5t90.5 -77.5t103 -75t103 -82t90.5 -96.5t64 -118.5t24 -149.5
q0 -154 -77.5 -251.5t-229.5 -119.5v-194h-180v196q-69 14 -121 44.5t-90.5 80t-66 118.5t-46.5 159l193 41q31 -134 85 -201.5t142 -67.5q85 0 130.5 45t45.5 133q0 59 -24 106t-63.5 87t-89.5 76.5t-102.5 74.5t-102.5 81.5t-89.5 97t-63.5 121t-24 153.5q0 74 19.5 136
t56.5 108.5t90 76.5t121 40v161z" />
    <glyph glyph-name="percent" unicode="%" horiz-adv-x="1532" 
d="M348 643q-78 0 -132.5 33t-88.5 91.5t-49 139.5t-15 178q0 102 16.5 184.5t52 141.5t89.5 91t129 32t128.5 -31.5t87.5 -90t49.5 -140.5t15.5 -182q0 -95 -15 -177t-49 -142t-87.5 -94t-131.5 -34zM991 1516h185l-633 -1516h-187zM1186 -16q-78 0 -131.5 33t-87.5 91.5
t-49 139.5t-15 176q0 102 16 185t50.5 142t88 91t128.5 32q76 0 129.5 -31.5t87.5 -89.5t49.5 -139.5t15.5 -181.5q0 -96 -15 -178t-49 -142t-87.5 -94t-130.5 -34zM348 795q28 0 47 20t29.5 57.5t15 92t4.5 122.5q0 146 -20.5 218.5t-77.5 72.5q-29 0 -47.5 -19t-29 -55.5
t-15 -90t-4.5 -121.5q0 -147 20.5 -222t77.5 -75zM1186 135q28 0 47 20t30.5 58t16 92.5t4.5 122.5q0 150 -21.5 220.5t-78.5 70.5q-29 0 -47.5 -19.5t-29.5 -56t-15.5 -90t-4.5 -121.5q0 -148 21 -222.5t78 -74.5z" />
    <glyph glyph-name="ampersand" unicode="&#x26;" horiz-adv-x="1090" 
d="M520 799q19 -41 39 -77t39 -67q35 -58 73.5 -116t80.5 -111q29 78 45.5 169t19.5 187h187q-13 -136 -40.5 -264.5t-78.5 -236.5q45 -38 92 -62t96 -31v-198q-83 3 -157 37t-142 90q-62 -63 -144 -99t-194 -36q-98 0 -173 25t-125.5 72t-76.5 116t-26 157q0 84 21.5 151.5
t56.5 124t81 103t95 88.5q-37 91 -60.5 177.5t-23.5 183.5q0 87 23 153t64 110.5t97 67.5t123 23q77 0 129.5 -23.5t85 -63t47 -91.5t14.5 -109q0 -80 -23 -142.5t-60.5 -115.5t-85.5 -99t-99 -93zM453 963q32 30 59.5 58.5t47.5 60t31 68.5t11 83q0 28 -4.5 52t-15 41.5
t-28 27.5t-42.5 10q-54 0 -81.5 -45t-27.5 -119q0 -62 14 -117t36 -120zM645 246q-54 63 -104 134t-95 142q-18 29 -37.5 62t-37.5 67q-53 -59 -87 -126.5t-34 -151.5q0 -45 11.5 -85t36 -69t62.5 -46t91 -17q58 0 107 23t87 67z" />
    <glyph glyph-name="quotesingle" unicode="'" horiz-adv-x="385" 
d="M92 1411v105h201v-105l-25 -422h-149z" />
    <glyph glyph-name="parenleft" unicode="(" horiz-adv-x="629" 
d="M428 -420q-79 94 -145.5 204.5t-114.5 234t-75 259.5t-27 283q0 145 27 280t75 258t114 233t144 206l156 -92q-64 -93 -118 -196t-93.5 -215t-61.5 -231t-22 -243q0 -125 22 -248t61 -237.5t93 -217.5t119 -188z" />
    <glyph glyph-name="parenright" unicode=")" horiz-adv-x="629" 
d="M47 -330q64 94 118 197.5t93.5 215.5t61.5 231.5t22 244.5q0 124 -22 247t-61 237t-93.5 216.5t-118.5 186.5l156 92q79 -95 145 -205t114 -233.5t74.5 -259t26.5 -281.5t-26.5 -281t-74.5 -258t-114 -233.5t-145 -206.5z" />
    <glyph glyph-name="asterisk" unicode="*" horiz-adv-x="938" 
d="M186 813l195 256l-315 -41v186l321 -43l-203 265l166 94l119 -305l123 305l164 -94l-199 -265l315 43v-186l-313 41l195 -256l-160 -96l-125 301l-119 -301z" />
    <glyph glyph-name="plus" unicode="+" horiz-adv-x="952" 
d="M379 582h-299v188h299v406h194v-406h299v-188h-299v-408h-194v408z" />
    <glyph glyph-name="comma" unicode="," horiz-adv-x="453" 
d="M203 0h-103v258h250v-238l-108 -249h-103z" />
    <glyph glyph-name="hyphen" unicode="-" horiz-adv-x="563" 
d="M74 731h415v-188h-415v188z" />
    <glyph glyph-name="hyphen" unicode="&#x2011;" horiz-adv-x="563" 
d="M74 731h415v-188h-415v188z" />
    <glyph glyph-name="hyphen" unicode="&#x2010;" horiz-adv-x="563" 
d="M74 731h415v-188h-415v188z" />
    <glyph glyph-name="hyphen" unicode="&#xad;" horiz-adv-x="563" 
d="M74 731h415v-188h-415v188z" />
    <glyph glyph-name="period" unicode="." horiz-adv-x="453" 
d="M100 258h250v-258h-250v258z" />
    <glyph glyph-name="slash" unicode="/" horiz-adv-x="862" 
d="M629 1516h221l-619 -1516h-219z" />
    <glyph glyph-name="zero" unicode="0" horiz-adv-x="981" 
d="M489 -18q-106 0 -186 43t-134 136.5t-81 241t-27 355.5t27 355.5t81 241t134 136.5t186 43q107 0 187 -43t133 -136.5t79.5 -241t26.5 -355.5t-26.5 -355.5t-79.5 -241t-133 -136.5t-187 -43zM489 168q53 0 92 29t64 97.5t37 182t12 281.5t-12.5 280t-38 179.5t-64 95.5
t-90.5 28t-91 -28t-64.5 -95.5t-38 -179.5t-12.5 -280t13 -281.5t38.5 -182t64.5 -97.5t90 -29z" />
    <glyph glyph-name="one" unicode="1" horiz-adv-x="694" 
d="M59 193h201v1097q-20 -15 -44.5 -27.5t-50.5 -21.5t-52.5 -14.5t-49.5 -5.5v196q62 3 114 27t87 72h209v-1323h178v-193h-592v193z" />
    <glyph glyph-name="two" unicode="2" horiz-adv-x="883" 
d="M49 33q0 129 23.5 227t61.5 174t87 134.5t100.5 109t100.5 97t87 99t61.5 115.5t23.5 146q0 105 -36 155.5t-112 50.5q-34 0 -61.5 -10.5t-50 -37.5t-40.5 -74.5t-32 -120.5l-201 28q16 96 47.5 171.5t80.5 128t116.5 80.5t155.5 28q84 0 149 -26.5t109.5 -76.5
t67 -122.5t22.5 -163.5q0 -93 -22.5 -168t-59 -138.5t-83 -117t-95.5 -102.5t-95.5 -96.5t-83 -98t-59 -107.5t-22.5 -124h520v-193h-760v33z" />
    <glyph glyph-name="three" unicode="3" horiz-adv-x="901" 
d="M436 -20q-95 0 -162 25.5t-114 73t-77 115.5t-50 152l192 37q29 -117 79 -169t124 -52q97 0 141.5 69.5t44.5 200.5q0 79 -13.5 133t-46.5 87t-88 47t-138 14h-54v180h68q78 0 127 14t76.5 44t38 78t10.5 116q0 94 -37 149.5t-123 55.5q-38 0 -66.5 -14t-49.5 -38.5
t-36.5 -57.5t-27.5 -71l-186 50q21 73 55 132t80.5 100.5t106.5 64t134 22.5q98 0 167 -27.5t112.5 -77t63.5 -119t20 -153.5q0 -145 -56.5 -231t-164.5 -117q61 -20 106.5 -51t76.5 -79t46.5 -114.5t15.5 -156.5q0 -95 -24 -174t-72.5 -136.5t-123 -89.5t-175.5 -32z" />
    <glyph glyph-name="four" unicode="4" horiz-adv-x="942" 
d="M535 336h-502v168l477 1012h233v-992h168v-188h-168v-336h-208v336zM541 524v656h-2l-301 -656h303z" />
    <glyph glyph-name="five" unicode="5" horiz-adv-x="899" 
d="M440 -20q-95 0 -161.5 27t-112 75.5t-74.5 116.5t-47 149l193 45q29 -115 75 -173t117 -58q54 0 90.5 24.5t59.5 69.5t33 107.5t10 138.5q0 167 -41 246t-127 79q-66 0 -112 -42.5t-75 -114.5l-176 32l41 814h649l-8 -195h-457l-22 -432q15 25 38 47.5t52.5 39t65.5 26.5
t79 10q75 0 133.5 -29t98 -90t60 -156t20.5 -227q0 -133 -28 -232.5t-80.5 -165.5t-127 -99t-166.5 -33z" />
    <glyph glyph-name="six" unicode="6" horiz-adv-x="922" 
d="M475 -20q-102 0 -179.5 44t-129.5 136t-78.5 233.5t-26.5 337.5q0 189 22.5 339t73.5 254.5t133.5 160t203.5 55.5q77 0 133.5 -24t96 -64t65.5 -92.5t42 -108.5l-186 -55q-11 31 -25 59t-32.5 49t-43.5 33.5t-57 12.5q-61 0 -102 -34.5t-65.5 -100.5t-35 -163
t-10.5 -221q51 60 121 96t148 36q91 0 154 -35.5t102 -98t56 -148.5t17 -187q0 -115 -24.5 -209.5t-74 -162t-124 -105t-174.5 -37.5zM479 162q93 0 136.5 78.5t43.5 240.5q0 67 -7.5 121t-27 92t-52.5 59t-83 21q-61 0 -115.5 -31.5t-99.5 -87.5q3 -131 16.5 -224.5
t38 -153t62 -87.5t88.5 -28z" />
    <glyph glyph-name="seven" unicode="7" horiz-adv-x="807" 
d="M555 1321h-514v195h729v-183l-422 -1333h-221z" />
    <glyph glyph-name="eight" unicode="8" horiz-adv-x="928" 
d="M463 -27q-110 -2 -189.5 28.5t-130.5 83t-75.5 122t-24.5 147.5t22.5 142t60 117.5t85 97.5t98.5 82q-43 34 -82.5 70.5t-70 81.5t-48.5 102.5t-18 132.5t24 141t71 115.5t116.5 78.5t161.5 29q96 0 166.5 -29t116 -78.5t68 -115.5t22.5 -141q0 -63 -17.5 -118
t-47.5 -103t-70 -89t-85 -75q52 -37 100 -77t85 -90.5t59.5 -116t22.5 -153.5q0 -82 -26.5 -153t-79 -123t-131.5 -81.5t-183 -27.5zM473 903q31 27 59 56.5t49 62.5t33.5 70t12.5 79q0 39 -8.5 74t-27.5 61t-49.5 41t-74.5 15q-43 0 -74 -14t-50.5 -39t-28.5 -58.5
t-9 -72.5q0 -48 14 -87t37 -72t53.5 -61.5t63.5 -54.5zM461 147q97 0 147.5 59.5t50.5 160.5q0 51 -15.5 93.5t-43 80t-65 71t-80.5 66.5q-39 -31 -74 -64t-61.5 -71.5t-42 -83t-15.5 -97.5q0 -46 13 -85t38 -68t62.5 -45.5t85.5 -16.5z" />
    <glyph glyph-name="nine" unicode="9" horiz-adv-x="922" 
d="M428 -20q-78 0 -134.5 24t-96 64t-65.5 92t-42 108l186 56q11 -31 25 -59.5t33 -51t44 -36t58 -13.5q61 0 101.5 33.5t65 99.5t34.5 163.5t10 225.5q-51 -60 -121 -95.5t-147 -35.5q-92 0 -155 35.5t-102 98t-56 148.5t-17 187q0 114 25 209t74.5 163.5t124 106
t173.5 37.5q102 0 179.5 -44.5t129.5 -136.5t78.5 -234.5t26.5 -338.5q0 -194 -22 -344t-73 -252.5t-133.5 -156t-203.5 -53.5zM432 743q62 0 116 31.5t99 87.5q-6 255 -54.5 373.5t-150.5 118.5q-93 0 -136.5 -78t-43.5 -240q0 -67 8 -121t27.5 -92.5t52 -59t82.5 -20.5z
" />
    <glyph glyph-name="colon" unicode=":" horiz-adv-x="459" 
d="M106 1085h244v-258h-244v258zM106 258h244v-258h-244v258z" />
    <glyph glyph-name="semicolon" unicode=";" horiz-adv-x="459" 
d="M106 1085h244v-258h-244v258zM205 0h-99v258h244v-238l-106 -249h-101z" />
    <glyph glyph-name="less" unicode="&#x3c;" horiz-adv-x="952" 
d="M94 584v159l740 426v-196l-545 -309l545 -310v-196z" />
    <glyph glyph-name="equal" unicode="=" horiz-adv-x="952" 
d="M76 975h798v-176h-798v176zM76 535h798v-177h-798v177z" />
    <glyph glyph-name="greater" unicode="&#x3e;" horiz-adv-x="952" 
d="M119 354l545 310l-545 309v196l741 -426v-159l-741 -426v196z" />
    <glyph glyph-name="question" unicode="?" horiz-adv-x="819" 
d="M279 414q-3 94 5 157.5t26 112t47.5 92t70.5 98.5q26 36 49 69.5t40.5 68.5t27.5 73t10 82q0 81 -33.5 127.5t-107.5 46.5q-37 0 -65 -14.5t-49.5 -41t-38 -63t-30.5 -81.5l-194 43q20 80 53 144.5t81 110.5t111 70.5t144 24.5q84 0 148 -25t107 -71t65 -111t22 -145
q0 -58 -14 -109t-37 -96.5t-53.5 -87.5t-63.5 -82q-46 -58 -72 -99.5t-38.5 -83t-15.5 -90t-3 -120.5h-192zM250 242h244v-242h-244v242z" />
    <glyph glyph-name="at" unicode="@" horiz-adv-x="1290" 
d="M645 -29q-137 0 -245.5 50.5t-185 150t-117 246t-40.5 338.5q0 191 43 338t121 247t186.5 151.5t239.5 51.5q130 0 237.5 -52t185 -150.5t120.5 -240.5t43 -323q0 -233 -73 -344.5t-212 -111.5q-49 0 -85.5 12t-63 32t-43.5 47t-27 56q-37 -65 -87.5 -106t-119.5 -41
q-54 0 -94 26t-66 73.5t-37.5 114.5t-9.5 150q3 121 23 218.5t55.5 165t87 104t119.5 36.5q57 0 98 -29t64 -81l10 92h164l-57 -592q-5 -49 -1 -82t16 -53t31.5 -28.5t45.5 -8.5q32 0 59.5 16.5t47.5 57t31 108.5t11 170q0 165 -34.5 289t-97.5 207.5t-150.5 125.5
t-192.5 42q-106 0 -193.5 -41t-150 -125t-97 -213t-34.5 -305t35 -305t98 -214t150.5 -126t193.5 -41q42 0 85 5t84 15t79 25t70 35l47 -86q-34 -23 -78 -40.5t-92.5 -30.5t-99 -19.5t-97.5 -6.5zM580 475q37 0 66.5 21.5t60.5 56.5l43 430q-20 34 -49.5 55t-63.5 21
q-63 0 -103 -87t-45 -267q-3 -119 19 -174.5t72 -55.5z" />
    <glyph glyph-name="A" unicode="A" horiz-adv-x="965" 
d="M225 0h-196l344 1522h219l344 -1522h-219l-78 381h-336zM557 778q-12 58 -22.5 110t-20.5 106t-20 114t-19 135h-6q-9 -75 -19 -134.5t-20 -112.5t-20.5 -104.5t-22.5 -109.5l-47 -225h262z" />
    <glyph glyph-name="B" unicode="B" horiz-adv-x="983" 
d="M111 1516h364q92 0 167.5 -20t129.5 -65.5t83.5 -118t29.5 -177.5q0 -87 -17 -148t-45.5 -101.5t-66 -64.5t-78.5 -37v-4q50 -13 94 -37.5t77 -67t52 -106.5t19 -157q0 -108 -30 -186t-85.5 -128.5t-133 -74t-171.5 -23.5h-389v1516zM467 864q49 0 86.5 12.5t63 40
t38.5 72t13 109.5q0 64 -11 107t-35 69t-61.5 37.5t-91.5 11.5h-137v-459h135zM494 180q109 0 156.5 61t47.5 193q0 69 -15 117.5t-44 79.5t-70.5 45t-95.5 14h-141v-510h162z" />
    <glyph glyph-name="C" unicode="C" horiz-adv-x="983" 
d="M518 -16q-109 0 -194 43t-143 136.5t-88 240.5t-30 354q0 206 31 353t89.5 241t142.5 138t190 44q102 0 174.5 -35.5t121 -102.5t75.5 -164t37 -220l-213 -23q-9 89 -24 153.5t-38 106t-55.5 61t-77.5 19.5q-122 0 -174.5 -141.5t-52.5 -427.5q0 -293 53.5 -436.5
t175.5 -143.5q47 0 81.5 19t59 61.5t41 110t27.5 164.5l213 -21q-15 -114 -43.5 -211t-78 -168t-123 -111t-177.5 -40z" />
    <glyph glyph-name="D" unicode="D" horiz-adv-x="1020" 
d="M111 1516h299q132 0 234 -35.5t172 -122.5t106 -232.5t36 -365.5t-37 -366t-107.5 -233.5t-172 -124t-231.5 -36.5h-299v1516zM438 190q83 0 139 31.5t90.5 100.5t49 177t14.5 261q0 150 -14.5 256.5t-49 173.5t-91 98t-140.5 31h-100v-1129h102z" />
    <glyph glyph-name="E" unicode="E" horiz-adv-x="846" 
d="M111 1516h663v-199h-438v-424h313v-188h-313v-512h461v-193h-686v1516z" />
    <glyph glyph-name="F" unicode="F" horiz-adv-x="807" 
d="M111 1516h661v-199h-436v-438h315v-189h-315v-690h-225v1516z" />
    <glyph glyph-name="G" unicode="G" horiz-adv-x="1026" 
d="M492 -14q-111 0 -191.5 46.5t-133.5 141.5t-78.5 241t-25.5 345q0 201 30 347t88 241t142.5 140.5t192.5 45.5q91 0 158.5 -31.5t116 -96t80 -163.5t49.5 -233l-205 -27q-11 94 -27 159.5t-39.5 107t-56 60.5t-76.5 19q-57 0 -99.5 -32t-71.5 -100.5t-43.5 -176
t-14.5 -258.5t15 -260.5t44.5 -181t74 -106t103.5 -34.5q53 0 92.5 21.5t66 67.5t40.5 116t16 168h-200v184h393v-737h-158v195h-4q-14 -44 -38.5 -82t-60 -66.5t-80.5 -44.5t-99 -16z" />
    <glyph glyph-name="H" unicode="H" horiz-adv-x="1053" 
d="M111 1516h225v-619h381v619h223v-1516h-223v702h-381v-702h-225v1516z" />
    <glyph glyph-name="I" unicode="I" horiz-adv-x="467" 
d="M121 1516h225v-1516h-225v1516z" />
    <glyph glyph-name="J" unicode="J" horiz-adv-x="752" 
d="M313 -16q-102 0 -175 21t-126 56l97 175q34 -23 78 -40.5t100 -17.5q74 0 106.5 42t32.5 136v1160h223v-1170q0 -96 -23 -164.5t-66 -112.5t-105.5 -64.5t-141.5 -20.5z" />
    <glyph glyph-name="K" unicode="K" horiz-adv-x="967" 
d="M111 1516h221v-742q7 25 22.5 62t35 80.5t42 89.5t43.5 88l215 422h219l-313 -601l358 -915h-229l-276 709l-117 -226v-483h-221v1516z" />
    <glyph glyph-name="L" unicode="L" horiz-adv-x="815" 
d="M111 1516h225v-1323h440v-193h-665v1516z" />
    <glyph glyph-name="M" unicode="M" horiz-adv-x="1260" 
d="M111 1516h274l242 -1172h6l239 1172h275v-1516h-203v1165h-4q-11 -96 -35 -204t-47 -218l-156 -743h-170l-157 760q-12 51 -24 106.5t-23 109t-19 102t-12 85.5h-6v-1163h-180v1516z" />
    <glyph glyph-name="N" unicode="N" horiz-adv-x="1049" 
d="M111 1516h241l293 -760q34 -90 60.5 -163t46.5 -136h4v1059h180v-1516h-193l-342 860q-15 36 -31 79t-30.5 83.5t-26 74.5t-16.5 52h-6v-1149h-180v1516z" />
    <glyph glyph-name="O" unicode="O" horiz-adv-x="1053" 
d="M526 -16q-104 0 -189.5 44.5t-146.5 139t-94 240.5t-33 350q0 203 33 350t94 241.5t146.5 139.5t189.5 45t189.5 -45t146 -139.5t94 -241.5t33.5 -350q0 -204 -33.5 -350t-94 -240.5t-146 -139t-189.5 -44.5zM526 180q123 0 180.5 146t57.5 432t-57.5 428.5t-180.5 142.5
t-180 -142.5t-57 -428.5t57 -432t180 -146z" />
    <glyph glyph-name="P" unicode="P" horiz-adv-x="938" 
d="M111 1516h356q86 0 163.5 -22t136.5 -75.5t93.5 -142.5t34.5 -223q0 -148 -37.5 -241.5t-98.5 -146.5t-139.5 -72.5t-160.5 -19.5h-127v-573h-221v1516zM469 760q51 0 89.5 15.5t64 49.5t38.5 89t13 133q0 75 -12.5 127t-38 85t-64.5 47.5t-92 14.5h-135v-561h137z" />
    <glyph glyph-name="Q" unicode="Q" horiz-adv-x="1053" 
d="M784 -395q-108 0 -178.5 30t-111.5 83.5t-57.5 126t-16.5 157.5q-81 18 -147 70.5t-112.5 144.5t-72 225.5t-25.5 315.5q0 203 33.5 350t94 241.5t146.5 139.5t191 45q104 0 189 -45t145.5 -139.5t93.5 -241.5t33 -350q0 -187 -26.5 -322.5t-75 -227t-116.5 -142
t-150 -66.5q4 -61 17.5 -100t39.5 -61.5t64.5 -31t91.5 -8.5h65v-194h-115zM528 176q121 0 177.5 148t56.5 434t-56.5 428.5t-177.5 142.5q-125 0 -182 -142.5t-57 -428.5t57 -434t182 -148z" />
    <glyph glyph-name="R" unicode="R" horiz-adv-x="977" 
d="M913 0h-223l-213 590h-147v-590h-219v1516h331q108 0 191.5 -26.5t141.5 -82t88 -142t30 -206.5q0 -64 -11 -124.5t-36 -114t-66 -97.5t-102 -74zM446 772q61 0 104 14.5t70.5 48t40.5 87.5t13 133q0 75 -12.5 126t-41 82t-73.5 44.5t-109 13.5h-108v-549h116z" />
    <glyph glyph-name="S" unicode="S" horiz-adv-x="936" 
d="M477 -23q-101 0 -175 31.5t-126.5 88.5t-85.5 136.5t-51 176.5l205 39q26 -134 80.5 -205.5t154.5 -71.5q45 0 77.5 13t53.5 36t31 55t10 70q0 53 -24 100.5t-63.5 91.5t-90 87t-103 88t-103 94t-90 105t-63.5 120.5t-24 141.5q0 84 27.5 151.5t77 115t119 72.5t153.5 25
q87 0 151 -28t110.5 -79.5t77.5 -124t52 -161.5l-199 -51q-15 61 -33.5 107t-42 76.5t-54 46t-70.5 15.5q-71 0 -110.5 -38.5t-39.5 -112.5q0 -57 24 -106t63.5 -94t90 -87.5t103 -87t103 -92.5t90 -103t63.5 -119.5t24 -142.5q0 -84 -28.5 -154t-80.5 -120t-124 -77.5
t-160 -27.5z" />
    <glyph glyph-name="T" unicode="T" horiz-adv-x="864" 
d="M319 1317h-286v199h796v-199h-284v-1317h-226v1317z" />
    <glyph glyph-name="U" unicode="U" horiz-adv-x="1012" 
d="M508 -16q-114 0 -191.5 34t-125 98t-68.5 155.5t-21 205.5v1039h222v-1014q0 -80 8.5 -141t30 -102t58 -62t91.5 -21q54 0 90 20.5t57.5 61t30 101t8.5 139.5v1018h211v-1035q0 -117 -20.5 -209.5t-67.5 -156.5t-123.5 -97.5t-189.5 -33.5z" />
    <glyph glyph-name="V" unicode="V" horiz-adv-x="952" 
d="M27 1516h221l158 -773q10 -54 20 -105.5t20 -106t19.5 -113.5t19.5 -127h4q9 67 18.5 124t19.5 110t19.5 105t20.5 109l160 777h199l-340 -1522h-219z" />
    <glyph glyph-name="W" unicode="W" horiz-adv-x="1366" 
d="M33 1516h215l117 -752q7 -48 13 -90.5t12 -87.5t12 -97t12 -118h6q7 64 14 115.5t13.5 97t12.5 89t13 91.5l119 752h192l121 -750q8 -50 15 -94.5t13.5 -90t12.5 -96.5t12 -114h7q6 62 11.5 113t11.5 97t12.5 89t13.5 90l116 756h193l-268 -1518h-193l-180 1141h-6
l-184 -1141h-193z" />
    <glyph glyph-name="X" unicode="X" horiz-adv-x="952" 
d="M362 803l-292 713h227l192 -490l187 490h205l-293 -701l336 -815h-228l-235 580l-230 -580h-204z" />
    <glyph glyph-name="Y" unicode="Y" horiz-adv-x="901" 
d="M338 565l-330 951h228l221 -701h6l219 701h211l-332 -951v-565h-223v565z" />
    <glyph glyph-name="Z" unicode="Z" horiz-adv-x="883" 
d="M41 170l541 1147h-500v199h747v-177l-540 -1146h540v-193h-788v170z" />
    <glyph glyph-name="bracketleft" unicode="[" horiz-adv-x="604" 
d="M102 1516h459v-168h-237v-1594h237v-164h-459v1926z" />
    <glyph glyph-name="backslash" unicode="\" horiz-adv-x="862" 
d="M12 1516h219l619 -1516h-221z" />
    <glyph glyph-name="bracketright" unicode="]" horiz-adv-x="604" 
d="M45 -246h236v1594h-236v168h459v-1926h-459v164z" />
    <glyph glyph-name="asciicircum" unicode="^" horiz-adv-x="975" 
d="M406 1516h161l330 -758h-205l-205 514l-204 -514h-205z" />
    <glyph glyph-name="underscore" unicode="_" horiz-adv-x="752" 
d="M-20 -115h792v-166h-792v166z" />
    <glyph glyph-name="grave" unicode="`" horiz-adv-x="772" 
d="M141 1516h217l136 -320h-150z" />
    <glyph glyph-name="a" unicode="a" horiz-adv-x="827" 
d="M266 -12q-100 0 -159.5 68t-59.5 208q0 82 33 153.5t95.5 129.5t151.5 102t201 72v59q0 68 -22.5 103t-81.5 35q-32 0 -64.5 -12t-63 -30t-58.5 -40t-50 -43l-116 137q80 80 179 126t206 46q77 0 130 -20t86 -59.5t47.5 -98t14.5 -136.5v-522q0 -99 5 -161.5t18 -104.5
h-211q-4 15 -7.5 27.5t-6 27t-4 32t-1.5 42.5q-49 -69 -111.5 -105t-150.5 -36zM354 168q26 0 51 8.5t47 22.5t41.5 31.5t34.5 35.5v293q-74 -21 -126 -49.5t-85 -63t-48 -73.5t-15 -80q0 -68 27 -96.5t73 -28.5z" />
    <glyph glyph-name="b" unicode="b" horiz-adv-x="885" 
d="M528 -12q-77 0 -128 38t-93 103v-129h-213v1513h213v-546q18 26 40.5 50.5t51.5 43t64.5 30t77.5 11.5q65 0 118.5 -30.5t91.5 -97t59 -172.5t21 -257q0 -152 -23 -258t-63.5 -172.5t-96 -96.5t-120.5 -30zM467 170q36 0 63.5 19t46 62.5t28 115t9.5 176.5
q0 102 -9.5 172t-28.5 113t-46.5 62t-64.5 19q-24 0 -47.5 -10t-44 -25t-37.5 -32.5t-29 -32.5v-537q13 -18 31 -36.5t39 -33t44 -23.5t46 -9z" />
    <glyph glyph-name="c" unicode="c" horiz-adv-x="801" 
d="M420 -16q-81 0 -149 34t-117 103.5t-76 174.5t-27 247q0 145 28 250.5t78 174t119 101.5t150 33q80 0 136.5 -26t95.5 -73t63 -112.5t39 -145.5l-199 -32q-9 51 -20 89.5t-26.5 64t-38 38.5t-54.5 13q-38 0 -67 -20t-48.5 -64.5t-30 -116t-10.5 -174.5q0 -192 36 -286.5
t122 -94.5q31 0 54 11.5t40 37.5t29 66.5t22 99.5l193 -31q-15 -84 -41.5 -151.5t-68 -114t-99 -71.5t-133.5 -25z" />
    <glyph glyph-name="d" unicode="d" horiz-adv-x="885" 
d="M346 -12q-66 0 -120 30.5t-92.5 97t-59.5 172t-21 255.5q0 151 22.5 257.5t62.5 173.5t95.5 97.5t122.5 30.5q78 0 130.5 -35.5t91.5 -95.5v545h213v-1250q0 -99 5 -161.5t19 -104.5h-221q-3 13 -6 32t-5 37.5t-3.5 33.5t-1.5 20q-18 -26 -41 -50t-52 -43t-63.5 -30.5
t-75.5 -11.5zM420 170q24 0 47 10t44 25t38 32.5t29 32.5v541q-32 42 -73 70t-87 28q-36 0 -63.5 -18.5t-46.5 -61t-28.5 -112t-9.5 -172.5q0 -105 9.5 -176.5t28.5 -115.5t47 -63.5t65 -19.5z" />
    <glyph glyph-name="e" unicode="e" horiz-adv-x="821" 
d="M424 -16q-84 0 -152.5 33.5t-117.5 102.5t-76 174t-27 249q0 146 27.5 251.5t77 174t117.5 101t149 32.5q94 0 159.5 -42.5t107 -117.5t60.5 -178t19 -223v-76h-510q2 -146 43.5 -224.5t128.5 -78.5q35 0 61 11t45.5 32.5t34.5 53t29 73.5l168 -56q-42 -143 -128 -217.5
t-216 -74.5zM567 627q-3 145 -38 220t-109 75q-35 0 -63 -15t-48.5 -49.5t-33 -91t-15.5 -139.5h307z" />
    <glyph glyph-name="f" unicode="f" horiz-adv-x="549" 
d="M152 911h-127v174h127v152q0 66 14.5 118t48 88.5t88 55.5t135.5 19q29 0 55 -1.5t35 -3.5v-180q-5 2 -22.5 2h-30.5q-25 0 -45.5 -5.5t-34.5 -18.5t-22 -34.5t-8 -53.5v-138h157v-174h-157v-911h-213v911z" />
    <glyph glyph-name="g" unicode="g" horiz-adv-x="862" 
d="M647 999q18 20 41 37.5t48 31.5t49.5 23t45.5 13v-209q-17 0 -48.5 -2.5t-65.5 -11.5q12 -39 19 -81t7 -91q0 -95 -25.5 -167.5t-70.5 -121.5t-107.5 -73.5t-136.5 -24.5q-29 0 -56.5 4t-53.5 12q-14 -16 -22.5 -31.5t-8.5 -32.5q0 -14 3 -24.5t11.5 -18t24 -12.5
t41.5 -8l150 -21q85 -10 145 -31.5t98.5 -56t56 -83.5t17.5 -113q0 -72 -31 -132t-88 -102.5t-137 -66t-178 -23.5q-93 0 -162.5 18t-115 51.5t-68.5 81t-23 105.5q0 76 39.5 137.5t118.5 96.5q-86 44 -86 141q0 46 29.5 94.5t80.5 85.5q-63 53 -96 133t-33 183q0 92 26 165
t72 123.5t109 77.5t137 27q76 0 137.5 -26t106.5 -77zM403 479q138 0 138 228q0 117 -32.5 173t-105.5 56q-71 0 -104 -57.5t-33 -171.5q0 -228 137 -228zM287 39q-41 -35 -58.5 -76.5t-17.5 -83.5q0 -71 46 -109t146 -38q101 0 154 40t53 109q0 29 -7.5 52t-26.5 40t-51 28
t-81 17z" />
    <glyph glyph-name="h" unicode="h" horiz-adv-x="885" 
d="M94 1516h213v-558q20 25 49.5 51t66 46.5t78 33.5t85.5 13q51 0 90 -13.5t66 -45.5t41 -84t14 -130v-829h-215v774q0 66 -19.5 98.5t-68.5 32.5q-24 0 -49.5 -9.5t-50.5 -24.5t-47 -33t-40 -35v-803h-213v1516z" />
    <glyph glyph-name="i" unicode="i" horiz-adv-x="424" 
d="M102 1473h217v-222h-217v222zM104 1085h215v-1085h-215v1085z" />
    <glyph glyph-name="j" unicode="j" horiz-adv-x="424" 
d="M102 1473h217v-222h-217v222zM68 -412q-6 0 -20 0.5t-28 1.5t-26 2t-14 2v168q2 -1 8.5 -1.5t14 -1l15 -1t11.5 -0.5q43 0 59 27t16 78v1222h215v-1218q0 -73 -13 -126t-42.5 -87t-77.5 -50t-118 -16z" />
    <glyph glyph-name="k" unicode="k" horiz-adv-x="813" 
d="M94 1516h207v-951q20 59 48 113.5t52 105.5l152 301h205l-221 -403l251 -682h-215l-174 479l-98 -176v-303h-207v1516z" />
    <glyph glyph-name="l" unicode="l" horiz-adv-x="424" 
d="M104 1516h215v-1516h-215v1516z" />
    <glyph glyph-name="m" unicode="m" horiz-adv-x="1346" 
d="M94 1085h213v-127q21 25 49.5 51t63 46.5t74 33.5t81.5 13q88 0 135 -37.5t64 -110.5q23 29 54 56t66.5 47.5t75 32.5t79.5 12q53 0 92.5 -15t66 -48t39.5 -86t13 -128v-825h-216v774q0 66 -18 98.5t-70 32.5q-45 0 -87.5 -29.5t-86.5 -72.5v-803h-213v774
q0 66 -17.5 98.5t-68.5 32.5q-47 0 -91 -30.5t-85 -71.5v-803h-213v1085z" />
    <glyph glyph-name="n" unicode="n" horiz-adv-x="885" 
d="M94 1085h213v-127q20 25 49.5 51t66 46.5t78 33.5t85.5 13q51 0 90 -13.5t66 -45.5t41 -84t14 -130v-829h-215v774q0 66 -19.5 98.5t-68.5 32.5q-24 0 -49.5 -9.5t-50.5 -24.5t-47 -33t-40 -35v-803h-213v1085z" />
    <glyph glyph-name="o" unicode="o" horiz-adv-x="858" 
d="M430 -16q-84 0 -154 34t-120 103.5t-77.5 174.5t-27.5 247q0 144 27.5 249t77 174t119.5 102.5t155 33.5q84 0 153 -33.5t118.5 -102.5t76.5 -174t27 -249q0 -142 -27 -247t-76.5 -174.5t-118.5 -103.5t-153 -34zM430 160q86 0 123 92.5t37 290.5q0 91 -8 161.5
t-26.5 118.5t-49.5 72.5t-76 24.5q-88 0 -126 -91t-38 -286q0 -92 8 -163t27 -120t50.5 -74.5t78.5 -25.5z" />
    <glyph glyph-name="p" unicode="p" horiz-adv-x="885" 
d="M94 1085h213v-118q18 26 40.5 50.5t51.5 43t64.5 30t77.5 11.5q65 0 118.5 -30.5t91.5 -97t59 -172.5t21 -257q0 -152 -22.5 -258t-62.5 -172.5t-96 -96.5t-122 -30q-77 0 -130 35.5t-91 95.5v-529h-213v1495zM467 170q36 0 63.5 19t46 62.5t28 115t9.5 176.5
q0 102 -9.5 172t-28.5 113t-46.5 62t-64.5 19q-24 0 -47.5 -10t-44 -25t-37.5 -32.5t-29 -32.5v-537q13 -18 31 -36.5t39 -33t44 -23.5t46 -9z" />
    <glyph glyph-name="q" unicode="q" horiz-adv-x="885" 
d="M578 127q-18 -26 -41 -50.5t-52 -44.5t-63.5 -32t-75.5 -12q-66 0 -120 29.5t-92.5 95.5t-59.5 172t-21 258q0 151 22.5 257.5t62.5 173.5t95.5 97.5t122.5 30.5q78 0 130.5 -35.5t91.5 -95.5v114h213v-1495h-216zM420 170q24 0 47 10t44 25t38 32.5t29 32.5v541
q-32 42 -72 72t-86 30q-38 0 -66 -19t-47 -62.5t-28 -113.5t-9 -173q0 -105 9.5 -176.5t28.5 -115.5t47 -63.5t65 -19.5z" />
    <glyph glyph-name="r" unicode="r" horiz-adv-x="616" 
d="M94 1085h213v-157h4q18 34 42.5 65.5t57 55.5t72 38.5t86.5 14.5h25l-6 -205h-39q-35 0 -71 -12t-68.5 -32.5t-59 -47t-43.5 -55.5v-750h-213v1085z" />
    <glyph glyph-name="s" unicode="s" horiz-adv-x="772" 
d="M387 -20q-71 0 -127.5 19t-101 54t-79 84t-59.5 109l168 76q34 -84 81.5 -127t113.5 -43t101.5 31t35.5 85q0 37 -19.5 66t-51 53.5t-72.5 47.5t-83 48.5t-83 55.5t-72.5 69t-51 90t-19.5 117q0 72 28 126.5t72.5 91t100.5 55t112 18.5q128 0 208 -63t130 -187l-170 -74
q-25 72 -66 109t-98 37q-51 0 -82 -29t-31 -76q0 -39 19.5 -69t51.5 -55.5t72.5 -48.5t83 -48t83 -55t72.5 -68.5t51.5 -88.5t19.5 -116q0 -65 -23.5 -119t-67 -93t-106.5 -60.5t-141 -21.5z" />
    <glyph glyph-name="t" unicode="t" horiz-adv-x="598" 
d="M412 -8q-69 0 -119.5 12t-82.5 40t-47.5 74.5t-15.5 114.5v678h-124v174h124v381h213v-381h191v-174h-191v-612q0 -40 5.5 -66.5t18.5 -42t34 -22t53 -6.5q22 0 44.5 3.5t33.5 8.5v-170q-17 -5 -55.5 -8.5t-81.5 -3.5z" />
    <glyph glyph-name="u" unicode="u" horiz-adv-x="881" 
d="M297 -12q-51 0 -90 13.5t-65.5 45t-40 83.5t-13.5 130v825h213v-772q0 -68 19.5 -100.5t70.5 -32.5q24 0 49 10t48.5 25t45 33t39.5 35v802h213v-1085h-213v131q-20 -26 -49 -51.5t-65 -45.5t-77 -33t-85 -13z" />
    <glyph glyph-name="v" unicode="v" horiz-adv-x="774" 
d="M18 1085h209l117 -557q14 -72 27 -145t24 -160h6q11 85 24 160.5t26 144.5l116 557h189l-256 -1089h-228z" />
    <glyph glyph-name="w" unicode="w" horiz-adv-x="1118" 
d="M18 1085h201l92 -510q6 -30 10 -58t8 -57.5t8 -64t9 -78.5h6q6 43 11 78t9.5 66t9.5 60t11 61l92 503h177l94 -507q5 -32 9 -59.5t8.5 -57.5t9.5 -65t12 -81h6q6 47 10.5 81.5t9 63t8.5 54.5t9 57l92 514h170l-215 -1087h-185l-137 756h-6l-139 -756h-185z" />
    <glyph glyph-name="x" unicode="x" horiz-adv-x="782" 
d="M285 563l-242 522h217l148 -344l137 344h194l-243 -518l264 -567h-217l-164 381l-162 -381h-197z" />
    <glyph glyph-name="y" unicode="y" horiz-adv-x="799" 
d="M164 -412q-62 0 -103.5 8t-70.5 17l41 174q18 -6 44.5 -10t61.5 -4q28 0 48.5 8.5t35.5 26.5t26 45t21 65l25 92l-277 1075h220l118 -553q7 -34 13 -63t11 -60.5t10.5 -69t12.5 -87.5h7q7 48 12.5 85t11 69t11.5 61.5t14 62.5l121 555h204l-315 -1194q-20 -78 -44.5 -135
t-59.5 -94.5t-83.5 -55.5t-115.5 -18z" />
    <glyph glyph-name="z" unicode="z" horiz-adv-x="739" 
d="M43 141l393 770h-358v174h600v-145l-395 -770h415v-170h-655v141z" />
    <glyph glyph-name="braceleft" unicode="{" horiz-adv-x="618" 
d="M449 -410q-66 0 -114 19t-78.5 55t-45 88t-14.5 119v381q0 70 -7.5 113t-26 66.5t-49.5 31.5t-77 8v164q48 0 79 8.5t49 32t25 66.5t7 112v381q0 67 14 119t45.5 88t82 55t122.5 19h133v-168h-64q-61 0 -86.5 -35t-25.5 -111v-354q0 -75 -9.5 -125t-27.5 -83t-45 -52
t-62 -33v-4q35 -14 62 -33t45 -52t27.5 -83t9.5 -125v-364q0 -75 26 -107.5t86 -32.5h64v-164h-145z" />
    <glyph glyph-name="bar" unicode="|" horiz-adv-x="569" 
d="M176 1516h217v-1926h-217v1926z" />
    <glyph glyph-name="braceright" unicode="}" horiz-adv-x="618" 
d="M25 -248h61q60 0 86.5 33.5t26.5 108.5v364q0 75 9.5 125t28 83t45.5 52t62 33v4q-35 14 -62 33t-45.5 52t-28 83t-9.5 125v354q0 76 -25.5 112t-87.5 36h-61v166h133q73 0 123 -19t81.5 -55t45.5 -88t14 -119v-381q0 -69 7 -112t25 -66.5t48.5 -32t77.5 -8.5v-164
q-45 0 -75.5 -8t-49 -31.5t-26 -66.5t-7.5 -113v-381q0 -134 -60.5 -207.5t-191.5 -73.5h-145v162z" />
    <glyph glyph-name="asciitilde" unicode="~" horiz-adv-x="975" 
d="M682 539q-54 0 -105.5 18.5t-100 40.5t-92.5 40.5t-81 18.5q-29 0 -51 -19t-31 -73l-151 23q15 135 74 194.5t151 59.5q56 0 108 -18.5t100 -41t91 -41t80 -18.5q15 0 28 4t23.5 14t18 27t12.5 43l151 -16q-8 -69 -25 -118t-44.5 -79.5t-66 -44.5t-89.5 -14z" />
    <glyph glyph-name="exclamdown" unicode="&#xa1;" horiz-adv-x="520" 
d="M137 1516h244v-242h-244v242zM168 1100h180l35 -1100h-250z" />
    <glyph glyph-name="cent" unicode="&#xa2;" horiz-adv-x="801" 
d="M330 1305h170v-203q60 -12 103 -42t73.5 -75t50.5 -104t33 -129l-199 -33q-9 51 -20 91t-26.5 67.5t-38 42t-54.5 14.5q-38 0 -67 -22.5t-48.5 -70t-30 -121.5t-10.5 -177q0 -192 36 -294t122 -102q31 0 53.5 12t40 38.5t29.5 69t22 104.5l193 -31q-25 -145 -87.5 -237.5
t-174.5 -116.5v-250h-170v254q-63 17 -114.5 60t-88 112t-56.5 164t-20 217q0 123 20 218t57 163.5t88.5 111t113.5 60.5v209z" />
    <glyph glyph-name="sterling" unicode="&#xa3;" horiz-adv-x="999" 
d="M119 702v160h153q-32 81 -55.5 159t-23.5 150q0 85 23.5 152.5t67.5 114.5t106.5 71.5t139.5 24.5q85 0 146 -27.5t101 -79.5t61 -126.5t26 -167.5l-200 -17q-3 53 -11 96.5t-23.5 74.5t-40 48t-61.5 17q-55 0 -91 -40.5t-36 -135.5q0 -36 7 -74t19 -77t27 -80t31 -83
h265v-160h-205q20 -63 33.5 -130.5t13.5 -139.5q0 -62 -8.5 -115t-24.5 -100q28 -25 57 -41t60 -16q28 0 47.5 13.5t32 45t18.5 83.5t6 128h195q0 -109 -15 -192.5t-48.5 -140.5t-88 -86t-133.5 -29q-32 0 -60.5 8.5t-53.5 22.5t-48 33.5t-45 41.5q-45 -53 -106 -79.5
t-133 -26.5q-48 0 -91.5 13.5t-76.5 41t-52.5 68.5t-19.5 96q0 54 16.5 98.5t47 75.5t73 48t95.5 17q48 0 88 -19t75 -48q2 12 2 24.5v26.5q0 68 -18.5 137.5t-44.5 140.5h-219zM373 217q-32 35 -63 58.5t-66 23.5q-34 0 -56 -23.5t-22 -68.5q0 -40 23 -63t57 -23
q38 0 71.5 21t55.5 75z" />
    <glyph glyph-name="currency" unicode="&#xa4;" horiz-adv-x="1049" 
d="M524 342q-101 0 -167 63l-158 -159l-130 130l182 183q-28 65 -28 144q0 40 7 75.5t19 66.5l-180 180l130 130l156 -156q65 67 169 67t169 -67l154 156l130 -130l-179 -179q26 -64 26 -141q0 -81 -28 -146l183 -181l-130 -131l-158 159q-67 -64 -167 -64zM524 477
q72 0 108.5 58t36.5 170q0 106 -35.5 165t-109.5 59q-72 0 -109 -57t-37 -167q0 -107 36 -167.5t110 -60.5z" />
    <glyph glyph-name="yen" unicode="&#xa5;" horiz-adv-x="911" 
d="M344 197h-266v159h266v131h-266v160h246l-306 869h226l219 -685h4l217 685h211l-309 -869h245v-160h-264v-131h264v-159h-264v-197h-223v197z" />
    <glyph glyph-name="brokenbar" unicode="&#xa6;" horiz-adv-x="569" 
d="M176 1516h217v-838h-217v838zM176 428h217v-838h-217v838z" />
    <glyph glyph-name="section" unicode="&#xa7;" horiz-adv-x="883" 
d="M236 928q-50 55 -80.5 120.5t-30.5 151.5q0 73 21.5 136.5t64 110t105 73t143.5 26.5q86 0 146.5 -25.5t101.5 -74.5t64.5 -119t35.5 -158l-195 -34q-15 114 -50.5 170.5t-104.5 56.5q-63 0 -93 -40.5t-30 -107.5q0 -44 17 -81t46 -70t68 -65t84 -66q56 -43 106.5 -85
t88.5 -90t60.5 -106t22.5 -133q0 -49 -13 -96t-37 -89.5t-57.5 -79.5t-74.5 -65q48 -54 77.5 -118.5t29.5 -151.5q0 -73 -20.5 -135.5t-61.5 -109t-102 -73t-142 -26.5q-87 0 -147.5 25.5t-100.5 73.5t-62.5 117.5t-33.5 158.5l194 35q16 -114 49.5 -171t102.5 -57
q62 0 89.5 41t27.5 107q0 41 -14 76t-39.5 67t-60 62.5t-75.5 62.5q-57 44 -111.5 86.5t-96.5 91.5t-67.5 109.5t-25.5 140.5q0 48 13 95t36.5 89t57 78.5t74.5 65.5zM510 311q53 37 83 83t30 100q0 40 -14.5 74.5t-40.5 66t-62 63t-80 66.5l-55 43q-51 -37 -80 -82.5
t-29 -99.5q0 -42 14.5 -76.5t40.5 -66.5t62.5 -64t81.5 -68q12 -9 24.5 -19t24.5 -20z" />
    <glyph glyph-name="dieresis" unicode="&#xa8;" horiz-adv-x="784" 
d="M451 1413h190v-219h-190v219zM143 1413h191v-219h-191v219z" />
    <glyph glyph-name="copyright" unicode="&#xa9;" horiz-adv-x="1165" 
d="M582 -29q-119 0 -217 60.5t-168 166.5t-108 249.5t-38 308.5q0 110 17.5 211t50.5 188.5t80 159.5t106.5 122.5t129.5 78.5t149 28q119 0 216.5 -60.5t167.5 -166.5t108 -249t38 -308q0 -110 -17.5 -211.5t-50.5 -189t-80 -159.5t-106 -122.5t-129 -78.5t-149 -28z
M584 76q94 0 171 52.5t131 144t83.5 215.5t29.5 268t-29.5 268.5t-84.5 217t-132 145.5t-171 53t-170.5 -52.5t-131 -144t-84.5 -215.5t-30 -268t30 -268.5t85 -217t132 -145.5t171 -53zM586 324q-122 0 -188 110t-66 334t66 335t190 111q54 0 93 -21.5t65.5 -60t41.5 -91.5
t23 -115l-127 -17q-5 38 -12.5 68.5t-19 52.5t-28 33.5t-40.5 11.5q-31 0 -52.5 -22t-35.5 -62t-20.5 -96.5t-6.5 -126.5q0 -71 6.5 -127t20.5 -95t35.5 -60t52.5 -21q46 0 70.5 41.5t35.5 132.5l129 -18q-10 -67 -27 -122t-45 -94t-67.5 -60t-93.5 -21z" />
    <glyph glyph-name="ordfeminine" unicode="&#xaa;" horiz-adv-x="645" 
d="M229 748q-72 0 -117.5 49.5t-45.5 148.5q0 115 83 197.5t250 124.5v53q0 43 -13 67.5t-48 24.5q-43 0 -75 -23t-58 -69l-123 57q43 88 111.5 127t156.5 39q109 0 158 -53.5t49 -169.5v-367q0 -68 3.5 -113t14.5 -79h-161q-5 18 -8 34.5t-5 41.5q-32 -39 -74 -64.5
t-98 -25.5zM285 881q15 0 31 5.5t31 14.5t28 20t24 23v211q-49 -14 -83 -34.5t-55 -45.5t-30.5 -53t-9.5 -57q0 -44 16 -64t48 -20z" />
    <glyph glyph-name="guillemotleft" unicode="&#xab;" horiz-adv-x="838" 
d="M391 541l203 538h199l-197 -538l197 -541h-199zM43 541l201 538h200l-196 -538l196 -541h-200z" />
    <glyph glyph-name="logicalnot" unicode="&#xac;" horiz-adv-x="954" 
d="M862 211h-195v387h-586v186h781v-573z" />
    <glyph glyph-name="registered" unicode="&#xae;" horiz-adv-x="782" 
d="M391 596q-71 0 -130 37t-101.5 100.5t-66 150t-23.5 185.5q0 100 23.5 187.5t66.5 151.5t102.5 101t130.5 37q72 0 131 -36.5t101 -100.5t65 -150t23 -186t-23.5 -187t-66 -151.5t-101.5 -101.5t-131 -37zM393 659q55 0 101 32t78.5 87.5t50.5 130t18 160.5
q0 88 -18 163.5t-51 131t-79 87.5t-102 32t-102 -31.5t-79 -86.5t-51 -130t-18 -162t18.5 -162.5t51.5 -131.5t79.5 -88t102.5 -32zM258 1337h131q67 0 106.5 -37.5t39.5 -121.5q0 -57 -17.5 -94t-48.5 -54l74 -209h-94l-68 195h-35v-195h-88v516zM385 1096q34 0 49 18
t15 62q0 40 -15 57.5t-49 17.5h-39v-155h39z" />
    <glyph glyph-name="macron" unicode="&#xaf;" horiz-adv-x="772" 
d="M143 1364h486v-170h-486v170z" />
    <glyph glyph-name="macron" unicode="&#x2c9;" horiz-adv-x="772" 
d="M143 1364h486v-170h-486v170z" />
    <glyph glyph-name="degree" unicode="&#xb0;" horiz-adv-x="582" 
d="M291 961q-52 0 -93.5 21.5t-71 59.5t-45 91t-15.5 116t15.5 115.5t45 91t71 59.5t93.5 21t93.5 -21t70 -59.5t44 -91t15.5 -115.5t-15.5 -116t-44 -91t-70 -59.5t-93.5 -21.5zM291 1079q43 0 65.5 44.5t22.5 125.5q0 82 -22.5 128t-65.5 46q-44 0 -66 -46t-22 -128
q0 -81 22 -125.5t66 -44.5z" />
    <glyph glyph-name="plusminus" unicode="&#xb1;" horiz-adv-x="961" 
d="M80 283h305v370h-305v178h305v383h190v-383h306v-178h-306v-370h306v-172h-801v172z" />
    <glyph glyph-name="two.sups" unicode="&#xb2;" horiz-adv-x="676" 
d="M80 606q0 79 14.5 139t38 106t53.5 81.5t61.5 66t62 59t54 60t38 70t14.5 88.5q0 53 -19 80.5t-59 27.5q-20 0 -35 -7t-27 -23.5t-21.5 -44.5t-16.5 -70l-152 25q22 127 84 194.5t180 67.5q115 0 173.5 -64.5t58.5 -179.5q0 -73 -22.5 -128.5t-56.5 -101t-74.5 -84
t-76.5 -76.5t-61.5 -79t-30.5 -92h322v-141h-502v26z" />
    <glyph glyph-name="three.sups" unicode="&#xb3;" horiz-adv-x="674" 
d="M326 565q-63 0 -107.5 16t-75 46.5t-50.5 75t-34 100.5l152 28q17 -72 43 -101.5t70 -29.5q55 0 75.5 40t20.5 114q0 41 -8.5 69.5t-29 46.5t-53.5 26t-81 8h-39v131h49q45 0 74.5 6.5t46 22.5t23 41.5t6.5 64.5q0 27 -3.5 49t-12.5 37.5t-24.5 24t-39.5 8.5
q-42 0 -64.5 -31t-38.5 -80l-143 41q28 95 90.5 151t163.5 56q63 0 107.5 -17t72 -47.5t40.5 -73t13 -94.5q0 -169 -114 -215q67 -26 98 -84t31 -164q0 -59 -15.5 -108t-47.5 -84t-80.5 -54.5t-114.5 -19.5z" />
    <glyph glyph-name="acute" unicode="&#xb4;" horiz-adv-x="772" 
d="M416 1516h217l-203 -320h-151z" />
    <glyph glyph-name="mu" unicode="&#xb5;" horiz-adv-x="887" 
d="M94 1085h212v-786q0 -67 20 -101.5t71 -34.5q24 0 49 9.5t48.5 24.5t45.5 33t40 35v820h213v-1085h-213v132q-15 -19 -36 -39.5t-46 -38.5t-54 -31t-61 -18q-23 -2 -43 1.5t-34 21.5v-438h-212v1495z" />
    <glyph glyph-name="mu" unicode="&#x3bc;" horiz-adv-x="887" 
d="M94 1085h212v-786q0 -67 20 -101.5t71 -34.5q24 0 49 9.5t48.5 24.5t45.5 33t40 35v820h213v-1085h-213v132q-15 -19 -36 -39.5t-46 -38.5t-54 -31t-61 -18q-23 -2 -43 1.5t-34 21.5v-438h-212v1495z" />
    <glyph glyph-name="paragraph" unicode="&#xb6;" horiz-adv-x="1004" 
d="M406 688q-78 1 -142 28t-109 78.5t-69.5 127.5t-24.5 176q0 89 23 165.5t66 132.5t103 88t134 32h508v-1926h-190v1739h-111v-1739h-188v1098z" />
    <glyph glyph-name="periodcentered" unicode="&#xb7;" horiz-adv-x="573" 
d="M150 774h256v-258h-256v258z" />
    <glyph glyph-name="periodcentered" unicode="&#x2219;" horiz-adv-x="573" 
d="M150 774h256v-258h-256v258z" />
    <glyph glyph-name="cedilla" unicode="&#xb8;" horiz-adv-x="772" 
d="M393 -406q-68 0 -126 19.5t-101 50.5l45 86q34 -23 79 -39t95 -16q88 0 88 74q0 59 -55 59q-39 0 -68 -35l-74 33l46 176h104l-23 -102q30 28 86 28q24 0 46.5 -8t40 -25t28 -44.5t10.5 -67.5q0 -90 -59.5 -139.5t-161.5 -49.5z" />
    <glyph glyph-name="one.sups" unicode="&#xb9;" horiz-adv-x="539" 
d="M84 721h119v612q-25 -12 -55.5 -19t-61.5 -7v149q85 3 127 60h158v-795h106v-141h-393v141z" />
    <glyph glyph-name="ordmasculine" unicode="&#xba;" horiz-adv-x="649" 
d="M326 735q-125 0 -196 101.5t-71 298.5q0 98 18.5 172.5t53 125t84 76t111.5 25.5q61 0 110 -25.5t83 -76t52.5 -125t18.5 -172.5t-18.5 -172.5t-52.5 -125t-83 -76.5t-110 -26zM326 872q55 0 78.5 64t23.5 199q0 124 -23 192t-79 68q-57 0 -82 -63.5t-25 -196.5
q0 -127 23.5 -195t83.5 -68z" />
    <glyph glyph-name="guillemotright" unicode="&#xbb;" horiz-adv-x="838" 
d="M590 541l-197 538h201l199 -538l-199 -541h-201zM242 541l-199 538h201l202 -538l-202 -541h-201z" />
    <glyph glyph-name="onequarter" unicode="&#xbc;" horiz-adv-x="1425" 
d="M84 721h119v612q-25 -12 -55.5 -19t-61.5 -7v149q85 3 127 60h158v-795h106v-141h-393v141zM1104 201h-307v118l295 623h168v-606h102v-135h-102v-201h-156v201zM958 1516h177l-633 -1516h-178zM1108 336v364l-168 -364h168z" />
    <glyph glyph-name="onehalf" unicode="&#xbd;" horiz-adv-x="1477" 
d="M903 29q0 79 14.5 138.5t38 105.5t53.5 81.5t61.5 66t62 58.5t54 59.5t38 69.5t14.5 88q0 53 -19 81t-59 28q-20 0 -35 -6.5t-27 -23t-21.5 -44t-16.5 -69.5l-152 22q22 128 84 195t181 67q114 0 172.5 -63.5t58.5 -177.5q0 -73 -22.5 -129.5t-56.5 -102t-74.5 -84
t-76.5 -77t-61.5 -79.5t-30.5 -92h322v-141h-502v29zM84 721h119v612q-25 -12 -55.5 -19t-61.5 -7v149q85 3 127 60h158v-795h106v-141h-393v141zM958 1516h177l-633 -1516h-178z" />
    <glyph glyph-name="threequarters" unicode="&#xbe;" horiz-adv-x="1458" 
d="M295 565q-63 0 -107 16t-75 46.5t-50.5 75t-33.5 100.5l151 28q17 -72 43.5 -101.5t69.5 -29.5q55 0 75.5 40t20.5 114q0 41 -8.5 69.5t-29 46.5t-53.5 26t-81 8h-39v131h49q45 0 74.5 6.5t46 22.5t23 41.5t6.5 64.5q0 27 -3.5 49t-12.5 37.5t-24.5 24t-39.5 8.5
q-41 0 -64 -31t-38 -80l-144 41q28 95 90.5 151t163.5 56q63 0 107.5 -17t72.5 -47.5t41 -73t13 -94.5q0 -169 -115 -215q67 -26 98 -84t31 -164q0 -59 -15.5 -108t-47.5 -84t-80.5 -54.5t-114.5 -19.5zM1137 201h-308v118l295 623h168v-606h103v-135h-103v-201h-155v201z
M991 1516h176l-632 -1516h-179zM1141 336v364l-168 -364h168z" />
    <glyph glyph-name="questiondown" unicode="&#xbf;" horiz-adv-x="819" 
d="M326 1516h243v-242h-243v242zM393 -18q-84 0 -148 25t-107 71t-65 111t-22 145q0 57 14 108t37 97t53.5 88t63.5 82q46 57 72 98.5t38.5 83t15.5 90.5t3 121h193q1 -63 -1.5 -111.5t-10.5 -87.5t-20 -71t-29 -62t-39.5 -61t-49.5 -68q-26 -35 -49 -68.5t-40.5 -68.5
t-27.5 -73t-10 -83q0 -80 34 -127t108 -47q37 0 64.5 14.5t49 41t38 63.5t30.5 82l194 -43q-20 -80 -53 -144.5t-81 -110.5t-111 -70.5t-144 -24.5z" />
    <glyph glyph-name="Agrave" unicode="&#xc0;" horiz-adv-x="965" 
d="M225 0h-196l344 1522h219l344 -1522h-219l-78 381h-336zM557 778q-12 58 -22.5 110t-20.5 106t-20 114t-19 135h-6q-9 -75 -19 -134.5t-20 -112.5t-20.5 -104.5t-22.5 -109.5l-47 -225h262zM214 1921h217l136 -320h-150z" />
    <glyph glyph-name="Aacute" unicode="&#xc1;" horiz-adv-x="965" 
d="M225 0h-196l344 1522h219l344 -1522h-219l-78 381h-336zM557 778q-12 58 -22.5 110t-20.5 106t-20 114t-19 135h-6q-9 -75 -19 -134.5t-20 -112.5t-20.5 -104.5t-22.5 -109.5l-47 -225h262zM516 1921h217l-203 -320h-151z" />
    <glyph glyph-name="Acircumflex" unicode="&#xc2;" horiz-adv-x="965" 
d="M225 0h-196l344 1522h219l344 -1522h-219l-78 381h-336zM557 778q-12 58 -22.5 110t-20.5 106t-20 114t-19 135h-6q-9 -75 -19 -134.5t-20 -112.5t-20.5 -104.5t-22.5 -109.5l-47 -225h262zM409 1921h145l182 -326h-129l-129 156l-125 -156h-129z" />
    <glyph glyph-name="Atilde" unicode="&#xc3;" horiz-adv-x="965" 
d="M225 0h-196l344 1522h219l344 -1522h-219l-78 381h-336zM557 778q-12 58 -22.5 110t-20.5 106t-20 114t-19 135h-6q-9 -75 -19 -134.5t-20 -112.5t-20.5 -104.5t-22.5 -109.5l-47 -225h262zM194 1585q0 149 44.5 215.5t125.5 66.5q40 0 73 -18t61 -39t53 -39t49 -18
q28 0 42.5 23.5t14.5 86.5h117q0 -149 -44 -215.5t-126 -66.5q-40 0 -73 18t-61.5 39t-53.5 39t-48 18q-29 0 -43 -24t-14 -86h-117z" />
    <glyph glyph-name="Adieresis" unicode="&#xc4;" horiz-adv-x="965" 
d="M225 0h-196l344 1522h219l344 -1522h-219l-78 381h-336zM557 778q-12 58 -22.5 110t-20.5 106t-20 114t-19 135h-6q-9 -75 -19 -134.5t-20 -112.5t-20.5 -104.5t-22.5 -109.5l-47 -225h262zM541 1818h190v-219h-190v219zM233 1818h191v-219h-191v219z" />
    <glyph glyph-name="Aring" unicode="&#xc5;" horiz-adv-x="965" 
d="M365 1479q-29 24 -44.5 65.5t-15.5 93.5q0 46 12 86t34.5 70t55.5 47t74 17q42 0 75.5 -17t57 -47t36 -70t12.5 -86q0 -52 -15.5 -93.5t-46.5 -65.5l336 -1479h-217l-82 397h-330l-82 -397h-196zM481 1522q18 0 30 10t19.5 26t11 36.5t3.5 41.5t-3.5 41t-11 35.5
t-19.5 25t-30 9.5q-17 0 -28.5 -9.5t-18 -25t-9.5 -35.5t-3 -41t3 -41.5t9.5 -36.5t18 -26t28.5 -10zM606 557l-49 223q-12 58 -22.5 110.5t-20.5 106t-20 113t-19 133.5h-6q-9 -75 -19 -134t-20 -111.5t-20.5 -104t-22.5 -109.5l-51 -227h270z" />
    <glyph glyph-name="AE" unicode="&#xc6;" horiz-adv-x="1393" 
d="M535 1516h784v-199h-438v-426h313v-189h-313v-509h460v-193h-682v401h-286l-140 -401h-219zM659 586v694h-4l-217 -694h221z" />
    <glyph glyph-name="Ccedilla" unicode="&#xc7;" horiz-adv-x="983" 
d="M518 -16q-109 0 -194 43t-143 136.5t-88 240.5t-30 354q0 206 31 353t89.5 241t142.5 138t190 44q102 0 174.5 -35.5t121 -102.5t75.5 -164t37 -220l-213 -23q-9 89 -24 153.5t-38 106t-55.5 61t-77.5 19.5q-122 0 -174.5 -141.5t-52.5 -427.5q0 -293 53.5 -436.5
t175.5 -143.5q47 0 81.5 19t59 61.5t41 110t27.5 164.5l213 -21q-15 -114 -43.5 -211t-78 -168t-123 -111t-177.5 -40zM507 -406q-68 0 -126 19.5t-101 50.5l45 86q34 -23 79 -39t95 -16q88 0 88 74q0 59 -55 59q-39 0 -68 -35l-74 33l46 176h104l-23 -102q30 28 86 28
q24 0 46.5 -8t40 -25t28 -44.5t10.5 -67.5q0 -90 -59.5 -139.5t-161.5 -49.5z" />
    <glyph glyph-name="Egrave" unicode="&#xc8;" horiz-adv-x="846" 
d="M111 1516h663v-199h-438v-424h313v-188h-313v-512h461v-193h-686v1516zM167 1921h217l136 -320h-150z" />
    <glyph glyph-name="Eacute" unicode="&#xc9;" horiz-adv-x="846" 
d="M452 1921h217l-203 -320h-151zM111 1516h663v-199h-438v-424h313v-188h-313v-512h461v-193h-686v1516z" />
    <glyph glyph-name="Ecircumflex" unicode="&#xca;" horiz-adv-x="846" 
d="M371 1921h145l182 -326h-129l-129 156l-125 -156h-129zM111 1516h663v-199h-438v-424h313v-188h-313v-512h461v-193h-686v1516z" />
    <glyph glyph-name="Edieresis" unicode="&#xcb;" horiz-adv-x="846" 
d="M502 1818h190v-219h-190v219zM194 1818h191v-219h-191v219zM111 1516h663v-199h-438v-424h313v-188h-313v-512h461v-193h-686v1516z" />
    <glyph glyph-name="Igrave" unicode="&#xcc;" horiz-adv-x="467" 
d="M121 1516h225v-1516h-225v1516zM-28 1921h217l136 -320h-150z" />
    <glyph glyph-name="Iacute" unicode="&#xcd;" horiz-adv-x="467" 
d="M121 1516h225v-1516h-225v1516zM265 1921h217l-203 -320h-151z" />
    <glyph glyph-name="Icircumflex" unicode="&#xce;" horiz-adv-x="467" 
d="M121 1516h225v-1516h-225v1516zM163 1921h145l182 -326h-129l-129 156l-125 -156h-129z" />
    <glyph glyph-name="Idieresis" unicode="&#xcf;" horiz-adv-x="467" 
d="M121 1516h225v-1516h-225v1516zM294 1818h190v-219h-190v219zM-14 1818h191v-219h-191v219z" />
    <glyph glyph-name="Eth" unicode="&#xd0;" horiz-adv-x="1022" 
d="M111 707h-95v184h95v625h299q132 0 234 -35.5t172 -122.5t106 -232.5t36 -365.5t-37 -366t-107.5 -233.5t-172 -124t-231.5 -36.5h-299v707zM438 190q83 0 139 31.5t90.5 100.5t49 177t14.5 261q0 150 -14.5 256.5t-49 173.5t-91 98t-140.5 31h-100v-428h174v-184h-174
v-517h102z" />
    <glyph glyph-name="Ntilde" unicode="&#xd1;" horiz-adv-x="1049" 
d="M111 1516h241l293 -760q34 -90 60.5 -163t46.5 -136h4v1059h180v-1516h-193l-342 860q-15 36 -31 79t-30.5 83.5t-26 74.5t-16.5 52h-6v-1149h-180v1516zM235 1585q0 149 44.5 215.5t125.5 66.5q40 0 73 -18t61 -39t53 -39t49 -18q28 0 42.5 23.5t14.5 86.5h117
q0 -149 -44 -215.5t-126 -66.5q-40 0 -73 18t-61.5 39t-53.5 39t-48 18q-29 0 -43 -24t-14 -86h-117z" />
    <glyph glyph-name="Ograve" unicode="&#xd2;" horiz-adv-x="1053" 
d="M526 -16q-104 0 -189.5 44.5t-146.5 139t-94 240.5t-33 350q0 203 33 350t94 241.5t146.5 139.5t189.5 45t189.5 -45t146 -139.5t94 -241.5t33.5 -350q0 -204 -33.5 -350t-94 -240.5t-146 -139t-189.5 -44.5zM526 180q123 0 180.5 146t57.5 432t-57.5 428.5t-180.5 142.5
t-180 -142.5t-57 -428.5t57 -432t180 -146zM259 1921h217l136 -320h-150z" />
    <glyph glyph-name="Oacute" unicode="&#xd3;" horiz-adv-x="1053" 
d="M555 1921h217l-203 -320h-151zM526 -16q-104 0 -189.5 44.5t-146.5 139t-94 240.5t-33 350q0 203 33 350t94 241.5t146.5 139.5t189.5 45t189.5 -45t146 -139.5t94 -241.5t33.5 -350q0 -204 -33.5 -350t-94 -240.5t-146 -139t-189.5 -44.5zM526 180q123 0 180.5 146
t57.5 432t-57.5 428.5t-180.5 142.5t-180 -142.5t-57 -428.5t57 -432t180 -146z" />
    <glyph glyph-name="Ocircumflex" unicode="&#xd4;" horiz-adv-x="1053" 
d="M452 1921h145l182 -326h-129l-129 156l-125 -156h-129zM526 -16q-104 0 -189.5 44.5t-146.5 139t-94 240.5t-33 350q0 203 33 350t94 241.5t146.5 139.5t189.5 45t189.5 -45t146 -139.5t94 -241.5t33.5 -350q0 -204 -33.5 -350t-94 -240.5t-146 -139t-189.5 -44.5z
M526 180q123 0 180.5 146t57.5 432t-57.5 428.5t-180.5 142.5t-180 -142.5t-57 -428.5t57 -432t180 -146z" />
    <glyph glyph-name="Otilde" unicode="&#xd5;" horiz-adv-x="1053" 
d="M526 -16q-104 0 -189.5 44.5t-146.5 139t-94 240.5t-33 350q0 203 33 350t94 241.5t146.5 139.5t189.5 45t189.5 -45t146 -139.5t94 -241.5t33.5 -350q0 -204 -33.5 -350t-94 -240.5t-146 -139t-189.5 -44.5zM526 180q123 0 180.5 146t57.5 432t-57.5 428.5t-180.5 142.5
t-180 -142.5t-57 -428.5t57 -432t180 -146zM235 1585q0 149 44.5 215.5t125.5 66.5q40 0 73 -18t61 -39t53 -39t49 -18q28 0 42.5 23.5t14.5 86.5h117q0 -149 -44 -215.5t-126 -66.5q-40 0 -73 18t-61.5 39t-53.5 39t-48 18q-29 0 -43 -24t-14 -86h-117z" />
    <glyph glyph-name="Odieresis" unicode="&#xd6;" horiz-adv-x="1053" 
d="M584 1818h190v-219h-190v219zM276 1818h191v-219h-191v219zM526 -16q-104 0 -189.5 44.5t-146.5 139t-94 240.5t-33 350q0 203 33 350t94 241.5t146.5 139.5t189.5 45t189.5 -45t146 -139.5t94 -241.5t33.5 -350q0 -204 -33.5 -350t-94 -240.5t-146 -139t-189.5 -44.5z
M526 180q123 0 180.5 146t57.5 432t-57.5 428.5t-180.5 142.5t-180 -142.5t-57 -428.5t57 -432t180 -146z" />
    <glyph glyph-name="multiply" unicode="&#xd7;" horiz-adv-x="952" 
d="M870 406l-122 -123l-269 268l-270 -270l-123 122l270 271l-270 268l125 123l268 -268l266 268l123 -125l-266 -266z" />
    <glyph glyph-name="Oslash" unicode="&#xd8;" horiz-adv-x="1053" 
d="M895 1292q46 -96 71 -228t25 -306q0 -204 -33.5 -350.5t-94 -241t-146 -139.5t-189.5 -45q-81 0 -151.5 26.5t-126.5 83.5l-100 -186l-132 67l138 254q-45 94 -69 225t-24 306q0 203 33.5 350t94 241.5t146.5 139.5t191 45q163 0 273 -107l100 183l129 -68zM696 1212
q-58 119 -168 119q-125 0 -185 -143.5t-60 -429.5q0 -162 18 -279zM352 303q62 -125 176 -125q122 0 181 146t59 434q0 80 -4.5 149.5t-13.5 126.5z" />
    <glyph glyph-name="Ugrave" unicode="&#xd9;" horiz-adv-x="1012" 
d="M508 -16q-114 0 -191.5 34t-125 98t-68.5 155.5t-21 205.5v1039h222v-1014q0 -80 8.5 -141t30 -102t58 -62t91.5 -21q54 0 90 20.5t57.5 61t30 101t8.5 139.5v1018h211v-1035q0 -117 -20.5 -209.5t-67.5 -156.5t-123.5 -97.5t-189.5 -33.5zM241 1921h217l136 -320h-150z
" />
    <glyph glyph-name="Uacute" unicode="&#xda;" horiz-adv-x="1012" 
d="M534 1921h217l-203 -320h-151zM508 -16q-114 0 -191.5 34t-125 98t-68.5 155.5t-21 205.5v1039h222v-1014q0 -80 8.5 -141t30 -102t58 -62t91.5 -21q54 0 90 20.5t57.5 61t30 101t8.5 139.5v1018h211v-1035q0 -117 -20.5 -209.5t-67.5 -156.5t-123.5 -97.5t-189.5 -33.5z
" />
    <glyph glyph-name="Ucircumflex" unicode="&#xdb;" horiz-adv-x="1012" 
d="M432 1921h145l182 -326h-129l-129 156l-125 -156h-129zM508 -16q-114 0 -191.5 34t-125 98t-68.5 155.5t-21 205.5v1039h222v-1014q0 -80 8.5 -141t30 -102t58 -62t91.5 -21q54 0 90 20.5t57.5 61t30 101t8.5 139.5v1018h211v-1035q0 -117 -20.5 -209.5t-67.5 -156.5
t-123.5 -97.5t-189.5 -33.5z" />
    <glyph glyph-name="Udieresis" unicode="&#xdc;" horiz-adv-x="1012" 
d="M567 1818h190v-219h-190v219zM259 1818h191v-219h-191v219zM508 -16q-114 0 -191.5 34t-125 98t-68.5 155.5t-21 205.5v1039h222v-1014q0 -80 8.5 -141t30 -102t58 -62t91.5 -21q54 0 90 20.5t57.5 61t30 101t8.5 139.5v1018h211v-1035q0 -117 -20.5 -209.5t-67.5 -156.5
t-123.5 -97.5t-189.5 -33.5z" />
    <glyph glyph-name="Yacute" unicode="&#xdd;" horiz-adv-x="901" 
d="M338 565l-330 951h228l221 -701h6l219 701h211l-332 -951v-565h-223v565zM481 1921h217l-203 -320h-151z" />
    <glyph glyph-name="Thorn" unicode="&#xde;" horiz-adv-x="946" 
d="M111 1516h227v-238h137q86 0 164 -20.5t136.5 -73t93 -142.5t34.5 -229q0 -101 -17 -176t-47 -128t-71 -87t-89.5 -53.5t-102.5 -27t-109 -7.5h-129v-334h-227v1516zM473 524q51 0 89.5 13.5t63.5 46.5t37.5 88t12.5 137q0 78 -12.5 130.5t-38 84t-64 44.5t-90.5 13h-133
v-557h135z" />
    <glyph glyph-name="germandbls" unicode="&#xdf;" horiz-adv-x="940" 
d="M551 -10q-37 0 -65.5 3t-52.5 8.5t-44.5 13t-40.5 16.5l68 170q25 -11 50.5 -18t65.5 -7q35 0 64.5 14t51.5 44t34 78.5t12 117.5q0 76 -17 132t-50.5 94t-83.5 61t-117 33v155q96 13 142 76t46 166q0 188 -143 188q-77 0 -114.5 -59t-37.5 -182v-1094h-215v1087
q0 211 96 320t279 109q86 0 149.5 -25t105.5 -70.5t62.5 -110t20.5 -143.5q0 -56 -14 -106t-39.5 -92t-61.5 -73.5t-81 -49.5q58 -17 109 -50.5t89 -85t60 -122.5t22 -162q0 -111 -26 -193t-72.5 -136t-111 -80.5t-140.5 -26.5z" />
    <glyph glyph-name="agrave" unicode="&#xe0;" horiz-adv-x="827" 
d="M266 -12q-100 0 -159.5 68t-59.5 208q0 82 33 153.5t95.5 129.5t151.5 102t201 72v59q0 68 -22.5 103t-81.5 35q-32 0 -64.5 -12t-63 -30t-58.5 -40t-50 -43l-116 137q80 80 179 126t206 46q77 0 130 -20t86 -59.5t47.5 -98t14.5 -136.5v-522q0 -99 5 -161.5t18 -104.5
h-211q-4 15 -7.5 27.5t-6 27t-4 32t-1.5 42.5q-49 -69 -111.5 -105t-150.5 -36zM354 168q26 0 51 8.5t47 22.5t41.5 31.5t34.5 35.5v293q-74 -21 -126 -49.5t-85 -63t-48 -73.5t-15 -80q0 -68 27 -96.5t73 -28.5zM169 1516h217l136 -320h-150z" />
    <glyph glyph-name="aacute" unicode="&#xe1;" horiz-adv-x="827" 
d="M266 -12q-100 0 -159.5 68t-59.5 208q0 82 33 153.5t95.5 129.5t151.5 102t201 72v59q0 68 -22.5 103t-81.5 35q-32 0 -64.5 -12t-63 -30t-58.5 -40t-50 -43l-116 137q80 80 179 126t206 46q77 0 130 -20t86 -59.5t47.5 -98t14.5 -136.5v-522q0 -99 5 -161.5t18 -104.5
h-211q-4 15 -7.5 27.5t-6 27t-4 32t-1.5 42.5q-49 -69 -111.5 -105t-150.5 -36zM354 168q26 0 51 8.5t47 22.5t41.5 31.5t34.5 35.5v293q-74 -21 -126 -49.5t-85 -63t-48 -73.5t-15 -80q0 -68 27 -96.5t73 -28.5zM442 1516h217l-203 -320h-151z" />
    <glyph glyph-name="acircumflex" unicode="&#xe2;" horiz-adv-x="827" 
d="M266 -12q-100 0 -159.5 68t-59.5 208q0 82 33 153.5t95.5 129.5t151.5 102t201 72v59q0 68 -22.5 103t-81.5 35q-32 0 -64.5 -12t-63 -30t-58.5 -40t-50 -43l-116 137q80 80 179 126t206 46q77 0 130 -20t86 -59.5t47.5 -98t14.5 -136.5v-522q0 -99 5 -161.5t18 -104.5
h-211q-4 15 -7.5 27.5t-6 27t-4 32t-1.5 42.5q-49 -69 -111.5 -105t-150.5 -36zM354 168q26 0 51 8.5t47 22.5t41.5 31.5t34.5 35.5v293q-74 -21 -126 -49.5t-85 -63t-48 -73.5t-15 -80q0 -68 27 -96.5t73 -28.5zM340 1516h145l182 -326h-129l-129 156l-125 -156h-129z" />
    <glyph glyph-name="atilde" unicode="&#xe3;" horiz-adv-x="827" 
d="M266 -12q-100 0 -159.5 68t-59.5 208q0 82 33 153.5t95.5 129.5t151.5 102t201 72v59q0 68 -22.5 103t-81.5 35q-32 0 -64.5 -12t-63 -30t-58.5 -40t-50 -43l-116 137q80 80 179 126t206 46q77 0 130 -20t86 -59.5t47.5 -98t14.5 -136.5v-522q0 -99 5 -161.5t18 -104.5
h-211q-4 15 -7.5 27.5t-6 27t-4 32t-1.5 42.5q-49 -69 -111.5 -105t-150.5 -36zM354 168q26 0 51 8.5t47 22.5t41.5 31.5t34.5 35.5v293q-74 -21 -126 -49.5t-85 -63t-48 -73.5t-15 -80q0 -68 27 -96.5t73 -28.5zM124 1180q0 149 44.5 215.5t125.5 66.5q40 0 73 -18t61 -39
t53 -39t49 -18q28 0 42.5 23.5t14.5 86.5h117q0 -149 -44 -215.5t-126 -66.5q-40 0 -73 18t-61.5 39t-53.5 39t-48 18q-29 0 -43 -24t-14 -86h-117z" />
    <glyph glyph-name="adieresis" unicode="&#xe4;" horiz-adv-x="827" 
d="M266 -12q-100 0 -159.5 68t-59.5 208q0 82 33 153.5t95.5 129.5t151.5 102t201 72v59q0 68 -22.5 103t-81.5 35q-32 0 -64.5 -12t-63 -30t-58.5 -40t-50 -43l-116 137q80 80 179 126t206 46q77 0 130 -20t86 -59.5t47.5 -98t14.5 -136.5v-522q0 -99 5 -161.5t18 -104.5
h-211q-4 15 -7.5 27.5t-6 27t-4 32t-1.5 42.5q-49 -69 -111.5 -105t-150.5 -36zM354 168q26 0 51 8.5t47 22.5t41.5 31.5t34.5 35.5v293q-74 -21 -126 -49.5t-85 -63t-48 -73.5t-15 -80q0 -68 27 -96.5t73 -28.5zM471 1413h190v-219h-190v219zM163 1413h191v-219h-191v219z
" />
    <glyph glyph-name="aring" unicode="&#xe5;" horiz-adv-x="827" 
d="M266 -12q-100 0 -159.5 68t-59.5 208q0 82 33 153.5t95.5 129.5t151.5 102t201 72v59q0 68 -22.5 103t-81.5 35q-32 0 -64.5 -12t-63 -30t-58.5 -40t-50 -43l-116 137q80 80 179 126t206 46q77 0 130 -20t86 -59.5t47.5 -98t14.5 -136.5v-522q0 -99 5 -161.5t18 -104.5
h-211q-4 15 -7.5 27.5t-6 27t-4 32t-1.5 42.5q-49 -69 -111.5 -105t-150.5 -36zM354 168q26 0 51 8.5t47 22.5t41.5 31.5t34.5 35.5v293q-74 -21 -126 -49.5t-85 -63t-48 -73.5t-15 -80q0 -68 27 -96.5t73 -28.5zM411 1157q-41 0 -74 17t-55.5 46.5t-34.5 69.5t-12 86t12 86
t34.5 69.5t55.5 46.5t74 17q42 0 75 -17t56.5 -46.5t36 -69.5t12.5 -86t-12 -86t-35.5 -69.5t-57 -46.5t-75.5 -17zM411 1260q18 0 30 10t19.5 26t11 36.5t3.5 41.5t-3.5 41t-11 35.5t-19.5 25t-30 9.5q-17 0 -28.5 -9.5t-18 -25t-9.5 -35.5t-3 -41t3 -41.5t9.5 -36.5
t18 -26t28.5 -10z" />
    <glyph glyph-name="ae" unicode="&#xe6;" horiz-adv-x="1292" 
d="M596 176q-72 -96 -151.5 -142t-178.5 -46q-100 0 -159.5 68t-59.5 208q0 82 33 153.5t95.5 129.5t151.5 102t201 72v63q0 68 -22.5 101t-81.5 33q-32 0 -64.5 -12t-63 -30t-58.5 -40t-50 -43l-116 137q80 80 179 126t208 46q80 0 128.5 -27t74.5 -80q48 54 106 80.5
t123 26.5q94 0 160.5 -42.5t108 -117.5t60.5 -178t19 -223v-76h-510q2 -146 43.5 -224.5t128.5 -78.5q35 0 61 11t45.5 32.5t34.5 53t29 73.5l168 -56q-42 -143 -128 -217.5t-216 -74.5q-100 0 -175.5 47.5t-123.5 144.5zM528 559q-76 -21 -128 -50t-84.5 -63.5t-47 -73.5
t-14.5 -79q0 -68 27 -96.5t73 -28.5q48 0 100 32t103 89q-14 55 -21.5 116.5t-7.5 137.5v16zM1038 627q-3 145 -38 220t-109 75q-35 0 -63 -15t-48.5 -49.5t-33 -91t-15.5 -139.5h307z" />
    <glyph glyph-name="ccedilla" unicode="&#xe7;" horiz-adv-x="801" 
d="M420 -16q-81 0 -149 34t-117 103.5t-76 174.5t-27 247q0 145 28 250.5t78 174t119 101.5t150 33q80 0 136.5 -26t95.5 -73t63 -112.5t39 -145.5l-199 -32q-9 51 -20 89.5t-26.5 64t-38 38.5t-54.5 13q-38 0 -67 -20t-48.5 -64.5t-30 -116t-10.5 -174.5q0 -192 36 -286.5
t122 -94.5q31 0 54 11.5t40 37.5t29 66.5t22 99.5l193 -31q-15 -84 -41.5 -151.5t-68 -114t-99 -71.5t-133.5 -25zM417 -406q-68 0 -126 19.5t-101 50.5l45 86q34 -23 79 -39t95 -16q88 0 88 74q0 59 -55 59q-39 0 -68 -35l-74 33l46 176h104l-23 -102q30 28 86 28
q24 0 46.5 -8t40 -25t28 -44.5t10.5 -67.5q0 -90 -59.5 -139.5t-161.5 -49.5z" />
    <glyph glyph-name="egrave" unicode="&#xe8;" horiz-adv-x="821" 
d="M424 -16q-84 0 -152.5 33.5t-117.5 102.5t-76 174t-27 249q0 146 27.5 251.5t77 174t117.5 101t149 32.5q94 0 159.5 -42.5t107 -117.5t60.5 -178t19 -223v-76h-510q2 -146 43.5 -224.5t128.5 -78.5q35 0 61 11t45.5 32.5t34.5 53t29 73.5l168 -56q-42 -143 -128 -217.5
t-216 -74.5zM567 627q-3 145 -38 220t-109 75q-35 0 -63 -15t-48.5 -49.5t-33 -91t-15.5 -139.5h307zM145 1516h217l136 -320h-150z" />
    <glyph glyph-name="eacute" unicode="&#xe9;" horiz-adv-x="821" 
d="M440 1516h217l-203 -320h-151zM424 -16q-84 0 -152.5 33.5t-117.5 102.5t-76 174t-27 249q0 146 27.5 251.5t77 174t117.5 101t149 32.5q94 0 159.5 -42.5t107 -117.5t60.5 -178t19 -223v-76h-510q2 -146 43.5 -224.5t128.5 -78.5q35 0 61 11t45.5 32.5t34.5 53t29 73.5
l168 -56q-42 -143 -128 -217.5t-216 -74.5zM567 627q-3 145 -38 220t-109 75q-35 0 -63 -15t-48.5 -49.5t-33 -91t-15.5 -139.5h307z" />
    <glyph glyph-name="ecircumflex" unicode="&#xea;" horiz-adv-x="821" 
d="M338 1516h145l182 -326h-129l-129 156l-125 -156h-129zM424 -16q-84 0 -152.5 33.5t-117.5 102.5t-76 174t-27 249q0 146 27.5 251.5t77 174t117.5 101t149 32.5q94 0 159.5 -42.5t107 -117.5t60.5 -178t19 -223v-76h-510q2 -146 43.5 -224.5t128.5 -78.5q35 0 61 11
t45.5 32.5t34.5 53t29 73.5l168 -56q-42 -143 -128 -217.5t-216 -74.5zM567 627q-3 145 -38 220t-109 75q-35 0 -63 -15t-48.5 -49.5t-33 -91t-15.5 -139.5h307z" />
    <glyph glyph-name="edieresis" unicode="&#xeb;" horiz-adv-x="821" 
d="M469 1413h190v-219h-190v219zM161 1413h191v-219h-191v219zM424 -16q-84 0 -152.5 33.5t-117.5 102.5t-76 174t-27 249q0 146 27.5 251.5t77 174t117.5 101t149 32.5q94 0 159.5 -42.5t107 -117.5t60.5 -178t19 -223v-76h-510q2 -146 43.5 -224.5t128.5 -78.5q35 0 61 11
t45.5 32.5t34.5 53t29 73.5l168 -56q-42 -143 -128 -217.5t-216 -74.5zM567 627q-3 145 -38 220t-109 75q-35 0 -63 -15t-48.5 -49.5t-33 -91t-15.5 -139.5h307z" />
    <glyph glyph-name="igrave" unicode="&#xec;" horiz-adv-x="424" 
d="M104 1085h215v-1085h-215v1085zM-61 1516h217l136 -320h-150z" />
    <glyph glyph-name="iacute" unicode="&#xed;" horiz-adv-x="424" 
d="M263 1516h217l-203 -320h-151zM104 1085h215v-1085h-215v1085z" />
    <glyph glyph-name="icircumflex" unicode="&#xee;" horiz-adv-x="424" 
d="M140 1516h145l182 -326h-129l-129 156l-125 -156h-129zM104 1085h215v-1085h-215v1085z" />
    <glyph glyph-name="idieresis" unicode="&#xef;" horiz-adv-x="424" 
d="M271 1413h190v-219h-190v219zM-37 1413h191v-219h-191v219zM104 1085h215v-1085h-215v1085z" />
    <glyph glyph-name="eth" unicode="&#xf0;" horiz-adv-x="856" 
d="M385 1104l-68 127l132 74q-26 32 -55 61t-60 57l112 121q47 -40 85.5 -77.5t70.5 -75.5l156 88l67 -129l-139 -78q33 -58 55.5 -123.5t37 -143.5t20.5 -172t6 -208q0 -168 -24.5 -290t-71.5 -201.5t-117.5 -118t-161.5 -38.5q-92 0 -162.5 37t-118.5 107.5t-73 172.5
t-25 232q0 132 24 235t69 173.5t110.5 107.5t148.5 37q78 0 135.5 -44t88.5 -115q-14 71 -38.5 136.5t-58.5 127.5zM428 154q86 0 124 97.5t38 276.5q0 88 -9 158.5t-28.5 119.5t-50 75t-74.5 26q-87 0 -124.5 -95t-37.5 -284q0 -88 8.5 -157.5t27.5 -117.5t50 -73.5
t76 -25.5z" />
    <glyph glyph-name="ntilde" unicode="&#xf1;" horiz-adv-x="885" 
d="M94 1085h213v-127q20 25 49.5 51t66 46.5t78 33.5t85.5 13q51 0 90 -13.5t66 -45.5t41 -84t14 -130v-829h-215v774q0 66 -19.5 98.5t-68.5 32.5q-24 0 -49.5 -9.5t-50.5 -24.5t-47 -33t-40 -35v-803h-213v1085zM153 1180q0 149 44.5 215.5t125.5 66.5q40 0 73 -18t61 -39
t53 -39t49 -18q28 0 42.5 23.5t14.5 86.5h117q0 -149 -44 -215.5t-126 -66.5q-40 0 -73 18t-61.5 39t-53.5 39t-48 18q-29 0 -43 -24t-14 -86h-117z" />
    <glyph glyph-name="ograve" unicode="&#xf2;" horiz-adv-x="858" 
d="M430 -16q-84 0 -154 34t-120 103.5t-77.5 174.5t-27.5 247q0 144 27.5 249t77 174t119.5 102.5t155 33.5q84 0 153 -33.5t118.5 -102.5t76.5 -174t27 -249q0 -142 -27 -247t-76.5 -174.5t-118.5 -103.5t-153 -34zM430 160q86 0 123 92.5t37 290.5q0 91 -8 161.5
t-26.5 118.5t-49.5 72.5t-76 24.5q-88 0 -126 -91t-38 -286q0 -92 8 -163t27 -120t50.5 -74.5t78.5 -25.5zM163 1516h217l136 -320h-150z" />
    <glyph glyph-name="oacute" unicode="&#xf3;" horiz-adv-x="858" 
d="M459 1516h217l-203 -320h-151zM430 -16q-84 0 -154 34t-120 103.5t-77.5 174.5t-27.5 247q0 144 27.5 249t77 174t119.5 102.5t155 33.5q84 0 153 -33.5t118.5 -102.5t76.5 -174t27 -249q0 -142 -27 -247t-76.5 -174.5t-118.5 -103.5t-153 -34zM430 160q86 0 123 92.5
t37 290.5q0 91 -8 161.5t-26.5 118.5t-49.5 72.5t-76 24.5q-88 0 -126 -91t-38 -286q0 -92 8 -163t27 -120t50.5 -74.5t78.5 -25.5z" />
    <glyph glyph-name="ocircumflex" unicode="&#xf4;" horiz-adv-x="858" 
d="M356 1516h145l182 -326h-129l-129 156l-125 -156h-129zM430 -16q-84 0 -154 34t-120 103.5t-77.5 174.5t-27.5 247q0 144 27.5 249t77 174t119.5 102.5t155 33.5q84 0 153 -33.5t118.5 -102.5t76.5 -174t27 -249q0 -142 -27 -247t-76.5 -174.5t-118.5 -103.5t-153 -34z
M430 160q86 0 123 92.5t37 290.5q0 91 -8 161.5t-26.5 118.5t-49.5 72.5t-76 24.5q-88 0 -126 -91t-38 -286q0 -92 8 -163t27 -120t50.5 -74.5t78.5 -25.5z" />
    <glyph glyph-name="otilde" unicode="&#xf5;" horiz-adv-x="858" 
d="M430 -16q-84 0 -154 34t-120 103.5t-77.5 174.5t-27.5 247q0 144 27.5 249t77 174t119.5 102.5t155 33.5q84 0 153 -33.5t118.5 -102.5t76.5 -174t27 -249q0 -142 -27 -247t-76.5 -174.5t-118.5 -103.5t-153 -34zM430 160q86 0 123 92.5t37 290.5q0 91 -8 161.5
t-26.5 118.5t-49.5 72.5t-76 24.5q-88 0 -126 -91t-38 -286q0 -92 8 -163t27 -120t50.5 -74.5t78.5 -25.5zM138 1180q0 149 44.5 215.5t125.5 66.5q40 0 73 -18t61 -39t53 -39t49 -18q28 0 42.5 23.5t14.5 86.5h117q0 -149 -44 -215.5t-126 -66.5q-40 0 -73 18t-61.5 39
t-53.5 39t-48 18q-29 0 -43 -24t-14 -86h-117z" />
    <glyph glyph-name="odieresis" unicode="&#xf6;" horiz-adv-x="858" 
d="M487 1413h190v-219h-190v219zM179 1413h191v-219h-191v219zM430 -16q-84 0 -154 34t-120 103.5t-77.5 174.5t-27.5 247q0 144 27.5 249t77 174t119.5 102.5t155 33.5q84 0 153 -33.5t118.5 -102.5t76.5 -174t27 -249q0 -142 -27 -247t-76.5 -174.5t-118.5 -103.5
t-153 -34zM430 160q86 0 123 92.5t37 290.5q0 91 -8 161.5t-26.5 118.5t-49.5 72.5t-76 24.5q-88 0 -126 -91t-38 -286q0 -92 8 -163t27 -120t50.5 -74.5t78.5 -25.5z" />
    <glyph glyph-name="divide" unicode="&#xf7;" horiz-adv-x="952" 
d="M379 1155h192v-225h-192v225zM80 770h792v-188h-792v188zM379 418h192v-223h-192v223z" />
    <glyph glyph-name="oslash" unicode="&#xf8;" horiz-adv-x="858" 
d="M713 948q45 -69 68.5 -169t23.5 -236q0 -142 -27 -247t-76.5 -174.5t-118.5 -103.5t-153 -34q-49 0 -94.5 12t-83.5 35l-59 -119l-136 63l84 166q-43 69 -66.5 169t-23.5 233q0 144 27.5 249t77 174t119.5 102.5t155 33.5q97 0 174 -45l62 121l133 -64zM524 879
q-37 43 -94 43q-88 0 -130 -94.5t-42 -284.5q0 -100 12 -176zM328 207q39 -49 102 -49q87 0 127.5 96t40.5 289q0 99 -12 176z" />
    <glyph glyph-name="ugrave" unicode="&#xf9;" horiz-adv-x="881" 
d="M297 -12q-51 0 -90 13.5t-65.5 45t-40 83.5t-13.5 130v825h213v-772q0 -68 19.5 -100.5t70.5 -32.5q24 0 49 10t48.5 25t45 33t39.5 35v802h213v-1085h-213v131q-20 -26 -49 -51.5t-65 -45.5t-77 -33t-85 -13zM175 1516h217l136 -320h-150z" />
    <glyph glyph-name="uacute" unicode="&#xfa;" horiz-adv-x="881" 
d="M469 1516h217l-203 -320h-151zM297 -12q-51 0 -90 13.5t-65.5 45t-40 83.5t-13.5 130v825h213v-772q0 -68 19.5 -100.5t70.5 -32.5q24 0 49 10t48.5 25t45 33t39.5 35v802h213v-1085h-213v131q-20 -26 -49 -51.5t-65 -45.5t-77 -33t-85 -13z" />
    <glyph glyph-name="ucircumflex" unicode="&#xfb;" horiz-adv-x="881" 
d="M364 1516h145l182 -326h-129l-129 156l-125 -156h-129zM297 -12q-51 0 -90 13.5t-65.5 45t-40 83.5t-13.5 130v825h213v-772q0 -68 19.5 -100.5t70.5 -32.5q24 0 49 10t48.5 25t45 33t39.5 35v802h213v-1085h-213v131q-20 -26 -49 -51.5t-65 -45.5t-77 -33t-85 -13z" />
    <glyph glyph-name="udieresis" unicode="&#xfc;" horiz-adv-x="881" 
d="M496 1413h190v-219h-190v219zM188 1413h191v-219h-191v219zM297 -12q-51 0 -90 13.5t-65.5 45t-40 83.5t-13.5 130v825h213v-772q0 -68 19.5 -100.5t70.5 -32.5q24 0 49 10t48.5 25t45 33t39.5 35v802h213v-1085h-213v131q-20 -26 -49 -51.5t-65 -45.5t-77 -33t-85 -13z
" />
    <glyph glyph-name="yacute" unicode="&#xfd;" horiz-adv-x="799" 
d="M164 -412q-62 0 -103.5 8t-70.5 17l41 174q18 -6 44.5 -10t61.5 -4q28 0 48.5 8.5t35.5 26.5t26 45t21 65l25 92l-277 1075h220l118 -553q7 -34 13 -63t11 -60.5t10.5 -69t12.5 -87.5h7q7 48 12.5 85t11 69t11.5 61.5t14 62.5l121 555h204l-315 -1194q-20 -78 -44.5 -135
t-59.5 -94.5t-83.5 -55.5t-115.5 -18zM430 1516h217l-203 -320h-151z" />
    <glyph glyph-name="thorn" unicode="&#xfe;" horiz-adv-x="885" 
d="M94 1516h213v-543q18 26 40.5 50.5t51.5 43t64.5 30t77.5 11.5q65 0 118.5 -31.5t91.5 -99t59 -174.5t21 -258q0 -152 -22.5 -259t-62.5 -174.5t-96 -98.5t-122 -31q-77 0 -130 35.5t-91 95.5v-523h-213v1926zM467 164q36 0 63.5 19.5t46 64.5t28 117.5t9.5 177.5
q0 102 -9.5 173t-28.5 115t-46.5 64t-64.5 20q-24 0 -47.5 -10t-44 -25t-37.5 -32.5t-29 -32.5v-549q13 -18 31 -36.5t39 -33t44 -23.5t46 -9z" />
    <glyph glyph-name="ydieresis" unicode="&#xff;" horiz-adv-x="799" 
d="M164 -412q-62 0 -103.5 8t-70.5 17l41 174q18 -6 44.5 -10t61.5 -4q28 0 48.5 8.5t35.5 26.5t26 45t21 65l25 92l-277 1075h220l118 -553q7 -34 13 -63t11 -60.5t10.5 -69t12.5 -87.5h7q7 48 12.5 85t11 69t11.5 61.5t14 62.5l121 555h204l-315 -1194q-20 -78 -44.5 -135
t-59.5 -94.5t-83.5 -55.5t-115.5 -18zM461 1413h190v-219h-190v219zM153 1413h191v-219h-191v219z" />
    <glyph glyph-name="Amacron" unicode="&#x100;" horiz-adv-x="965" 
d="M225 0h-196l344 1522h219l344 -1522h-219l-78 381h-336zM557 778q-12 58 -22.5 110t-20.5 106t-20 114t-19 135h-6q-9 -75 -19 -134.5t-20 -112.5t-20.5 -104.5t-22.5 -109.5l-47 -225h262zM239 1769h486v-170h-486v170z" />
    <glyph glyph-name="amacron" unicode="&#x101;" horiz-adv-x="827" 
d="M266 -12q-100 0 -159.5 68t-59.5 208q0 82 33 153.5t95.5 129.5t151.5 102t201 72v59q0 68 -22.5 103t-81.5 35q-32 0 -64.5 -12t-63 -30t-58.5 -40t-50 -43l-116 137q80 80 179 126t206 46q77 0 130 -20t86 -59.5t47.5 -98t14.5 -136.5v-522q0 -99 5 -161.5t18 -104.5
h-211q-4 15 -7.5 27.5t-6 27t-4 32t-1.5 42.5q-49 -69 -111.5 -105t-150.5 -36zM354 168q26 0 51 8.5t47 22.5t41.5 31.5t34.5 35.5v293q-74 -21 -126 -49.5t-85 -63t-48 -73.5t-15 -80q0 -68 27 -96.5t73 -28.5zM169 1364h486v-170h-486v170z" />
    <glyph glyph-name="Abreve" unicode="&#x102;" horiz-adv-x="965" 
d="M225 0h-196l344 1522h219l344 -1522h-219l-78 381h-336zM557 778q-12 58 -22.5 110t-20.5 106t-20 114t-19 135h-6q-9 -75 -19 -134.5t-20 -112.5t-20.5 -104.5t-22.5 -109.5l-47 -225h262zM483 1591q-63 0 -107.5 23t-74 66.5t-44.5 106t-18 142.5h133q8 -100 33 -147.5
t78 -47.5q51 0 76 47.5t35 147.5h131q-3 -80 -18 -142.5t-44 -106t-73.5 -66.5t-106.5 -23z" />
    <glyph glyph-name="abreve" unicode="&#x103;" horiz-adv-x="827" 
d="M266 -12q-100 0 -159.5 68t-59.5 208q0 82 33 153.5t95.5 129.5t151.5 102t201 72v59q0 68 -22.5 103t-81.5 35q-32 0 -64.5 -12t-63 -30t-58.5 -40t-50 -43l-116 137q80 80 179 126t206 46q77 0 130 -20t86 -59.5t47.5 -98t14.5 -136.5v-522q0 -99 5 -161.5t18 -104.5
h-211q-4 15 -7.5 27.5t-6 27t-4 32t-1.5 42.5q-49 -69 -111.5 -105t-150.5 -36zM354 168q26 0 51 8.5t47 22.5t41.5 31.5t34.5 35.5v293q-74 -21 -126 -49.5t-85 -63t-48 -73.5t-15 -80q0 -68 27 -96.5t73 -28.5zM413 1186q-63 0 -107.5 23t-74 66.5t-44.5 106t-18 142.5
h133q8 -100 33 -147.5t78 -47.5q51 0 76 47.5t35 147.5h131q-3 -80 -18 -142.5t-44 -106t-73.5 -66.5t-106.5 -23z" />
    <glyph glyph-name="Aogonek" unicode="&#x104;" horiz-adv-x="965" 
d="M225 0h-196l344 1522h219l344 -1522h-108q-15 -15 -29 -33q-18 -25 -31.5 -52t-21 -55t-7.5 -53q0 -43 18 -66.5t56 -23.5q37 0 65.5 14t57.5 36l59 -62q-48 -42 -103.5 -70t-123.5 -28q-89 0 -129.5 45t-40.5 115q0 34 10.5 68.5t27.5 66.5t40 60q19 23 40 41l-77 378
h-336zM557 778q-12 58 -22.5 110t-20.5 106t-20 114t-19 135h-6q-9 -75 -19 -134.5t-20 -112.5t-20.5 -104.5t-22.5 -109.5l-47 -225h262z" />
    <glyph glyph-name="aogonek" unicode="&#x105;" horiz-adv-x="827" 
d="M266 -12q-100 0 -159.5 68t-59.5 208q0 82 33 153.5t95.5 129.5t151.5 102t201 72v59q0 68 -22.5 103t-81.5 35q-32 0 -64.5 -12t-63 -30t-58.5 -40t-50 -43l-116 137q80 80 179 126t206 46q77 0 130 -20t86 -59.5t47.5 -98t14.5 -136.5v-522q0 -99 5 -161.5t18 -104.5
h-100q-15 -15 -29 -33q-18 -25 -31.5 -52t-21 -55t-7.5 -53q0 -43 18 -66.5t56 -23.5q37 0 65.5 14t57.5 36l59 -62q-48 -42 -103.5 -70t-123.5 -28q-89 0 -129.5 45t-40.5 115q0 34 10.5 68.5t27.5 66.5t40 60q19 23 40 40q-4 14 -7 25q-3 13 -5.5 27.5t-4 32t-1.5 42.5
q-49 -69 -111.5 -105t-150.5 -36zM354 168q26 0 51 8.5t47 22.5t41.5 31.5t34.5 35.5v293q-74 -21 -126 -49.5t-85 -63t-48 -73.5t-15 -80q0 -68 27 -96.5t73 -28.5z" />
    <glyph glyph-name="Cacute" unicode="&#x106;" horiz-adv-x="983" 
d="M520 1921h217l-203 -320h-151zM518 -16q-109 0 -194 43t-143 136.5t-88 240.5t-30 354q0 206 31 353t89.5 241t142.5 138t190 44q102 0 174.5 -35.5t121 -102.5t75.5 -164t37 -220l-213 -23q-9 89 -24 153.5t-38 106t-55.5 61t-77.5 19.5q-122 0 -174.5 -141.5
t-52.5 -427.5q0 -293 53.5 -436.5t175.5 -143.5q47 0 81.5 19t59 61.5t41 110t27.5 164.5l213 -21q-15 -114 -43.5 -211t-78 -168t-123 -111t-177.5 -40z" />
    <glyph glyph-name="cacute" unicode="&#x107;" horiz-adv-x="801" 
d="M430 1516h217l-203 -320h-151zM420 -16q-81 0 -149 34t-117 103.5t-76 174.5t-27 247q0 145 28 250.5t78 174t119 101.5t150 33q80 0 136.5 -26t95.5 -73t63 -112.5t39 -145.5l-199 -32q-9 51 -20 89.5t-26.5 64t-38 38.5t-54.5 13q-38 0 -67 -20t-48.5 -64.5t-30 -116
t-10.5 -174.5q0 -192 36 -286.5t122 -94.5q31 0 54 11.5t40 37.5t29 66.5t22 99.5l193 -31q-15 -84 -41.5 -151.5t-68 -114t-99 -71.5t-133.5 -25z" />
    <glyph glyph-name="Ccircumflex" unicode="&#x108;" horiz-adv-x="983" 
d="M438 1917h145l182 -326h-129l-129 156l-125 -156h-129zM518 -16q-109 0 -194 43t-143 136.5t-88 240.5t-30 354q0 206 31 353t89.5 241t142.5 138t190 44q102 0 174.5 -35.5t121 -102.5t75.5 -164t37 -220l-213 -23q-9 89 -24 153.5t-38 106t-55.5 61t-77.5 19.5
q-122 0 -174.5 -141.5t-52.5 -427.5q0 -293 53.5 -436.5t175.5 -143.5q47 0 81.5 19t59 61.5t41 110t27.5 164.5l213 -21q-15 -114 -43.5 -211t-78 -168t-123 -111t-177.5 -40z" />
    <glyph glyph-name="ccircumflex" unicode="&#x109;" horiz-adv-x="801" 
d="M342 1516h145l182 -326h-129l-129 156l-125 -156h-129zM420 -16q-81 0 -149 34t-117 103.5t-76 174.5t-27 247q0 145 28 250.5t78 174t119 101.5t150 33q80 0 136.5 -26t95.5 -73t63 -112.5t39 -145.5l-199 -32q-9 51 -20 89.5t-26.5 64t-38 38.5t-54.5 13q-38 0 -67 -20
t-48.5 -64.5t-30 -116t-10.5 -174.5q0 -192 36 -286.5t122 -94.5q31 0 54 11.5t40 37.5t29 66.5t22 99.5l193 -31q-15 -84 -41.5 -151.5t-68 -114t-99 -71.5t-133.5 -25z" />
    <glyph glyph-name="Cdotaccent" unicode="&#x10a;" horiz-adv-x="983" 
d="M518 -16q-109 0 -194 43t-143 136.5t-88 240.5t-30 354q0 206 31 353t89.5 241t142.5 138t190 44q102 0 174.5 -35.5t121 -102.5t75.5 -164t37 -220l-213 -23q-9 89 -24 153.5t-38 106t-55.5 61t-77.5 19.5q-122 0 -174.5 -141.5t-52.5 -427.5q0 -293 53.5 -436.5
t175.5 -143.5q47 0 81.5 19t59 61.5t41 110t27.5 164.5l213 -21q-15 -114 -43.5 -211t-78 -168t-123 -111t-177.5 -40zM392 1816h230v-215h-230v215z" />
    <glyph glyph-name="cdotaccent" unicode="&#x10b;" horiz-adv-x="801" 
d="M420 -16q-81 0 -149 34t-117 103.5t-76 174.5t-27 247q0 145 28 250.5t78 174t119 101.5t150 33q80 0 136.5 -26t95.5 -73t63 -112.5t39 -145.5l-199 -32q-9 51 -20 89.5t-26.5 64t-38 38.5t-54.5 13q-38 0 -67 -20t-48.5 -64.5t-30 -116t-10.5 -174.5q0 -192 36 -286.5
t122 -94.5q31 0 54 11.5t40 37.5t29 66.5t22 99.5l193 -31q-15 -84 -41.5 -151.5t-68 -114t-99 -71.5t-133.5 -25zM302 1415h230v-215h-230v215z" />
    <glyph glyph-name="Ccaron" unicode="&#x10c;" horiz-adv-x="983" 
d="M231 1923h131l127 -156l127 156h129l-184 -326h-145zM518 -16q-109 0 -194 43t-143 136.5t-88 240.5t-30 354q0 206 31 353t89.5 241t142.5 138t190 44q102 0 174.5 -35.5t121 -102.5t75.5 -164t37 -220l-213 -23q-9 89 -24 153.5t-38 106t-55.5 61t-77.5 19.5
q-122 0 -174.5 -141.5t-52.5 -427.5q0 -293 53.5 -436.5t175.5 -143.5q47 0 81.5 19t59 61.5t41 110t27.5 164.5l213 -21q-15 -114 -43.5 -211t-78 -168t-123 -111t-177.5 -40z" />
    <glyph glyph-name="ccaron" unicode="&#x10d;" horiz-adv-x="801" 
d="M141 1518h131l127 -156l127 156h129l-184 -326h-145zM420 -16q-81 0 -149 34t-117 103.5t-76 174.5t-27 247q0 145 28 250.5t78 174t119 101.5t150 33q80 0 136.5 -26t95.5 -73t63 -112.5t39 -145.5l-199 -32q-9 51 -20 89.5t-26.5 64t-38 38.5t-54.5 13q-38 0 -67 -20
t-48.5 -64.5t-30 -116t-10.5 -174.5q0 -192 36 -286.5t122 -94.5q31 0 54 11.5t40 37.5t29 66.5t22 99.5l193 -31q-15 -84 -41.5 -151.5t-68 -114t-99 -71.5t-133.5 -25z" />
    <glyph glyph-name="Dcaron" unicode="&#x10e;" horiz-adv-x="1020" 
d="M239 1923h131l127 -156l127 156h129l-184 -326h-145zM111 1516h299q132 0 234 -35.5t172 -122.5t106 -232.5t36 -365.5t-37 -366t-107.5 -233.5t-172 -124t-231.5 -36.5h-299v1516zM438 190q83 0 139 31.5t90.5 100.5t49 177t14.5 261q0 150 -14.5 256.5t-49 173.5
t-91 98t-140.5 31h-100v-1129h102z" />
    <glyph glyph-name="dcaron" unicode="&#x10f;" horiz-adv-x="885" 
d="M942 1391h-80v217h197v-199l-101 -223h-73zM346 -12q-66 0 -120 30.5t-92.5 97t-59.5 172t-21 255.5q0 151 22.5 257.5t62.5 173.5t95.5 97.5t122.5 30.5q78 0 130.5 -35.5t91.5 -95.5v545h213v-1250q0 -99 5 -161.5t19 -104.5h-221q-3 13 -6 32t-5 37.5t-3.5 33.5
t-1.5 20q-18 -26 -41 -50t-52 -43t-63.5 -30.5t-75.5 -11.5zM420 170q24 0 47 10t44 25t38 32.5t29 32.5v541q-32 42 -73 70t-87 28q-36 0 -63.5 -18.5t-46.5 -61t-28.5 -112t-9.5 -172.5q0 -105 9.5 -176.5t28.5 -115.5t47 -63.5t65 -19.5z" />
    <glyph glyph-name="Dcroat" unicode="&#x110;" horiz-adv-x="1022" 
d="M111 707h-95v184h95v625h299q132 0 234 -35.5t172 -122.5t106 -232.5t36 -365.5t-37 -366t-107.5 -233.5t-172 -124t-231.5 -36.5h-299v707zM438 190q83 0 139 31.5t90.5 100.5t49 177t14.5 261q0 150 -14.5 256.5t-49 173.5t-91 98t-140.5 31h-100v-428h174v-184h-174
v-517h102z" />
    <glyph glyph-name="dcroat" unicode="&#x111;" horiz-adv-x="885" 
d="M451 1346h127v170h213v-170h94v-168h-94v-912q0 -99 5 -161.5t19 -104.5h-221q-3 14 -6 34t-5 39.5t-3.5 35t-1.5 20.5q-18 -26 -41 -51t-51.5 -45t-63 -32.5t-76.5 -12.5q-65 0 -119 30t-92 96.5t-59 172.5t-21 258q0 151 21.5 257t60 172.5t92.5 97t119 30.5
q39 0 72.5 -11t62 -29.5t52 -44t43.5 -54.5v215h-127v168zM422 170q25 0 46 8t40 21.5t36 31t34 35.5v547q-16 20 -34 38.5t-38 32.5t-41.5 22.5t-44.5 8.5q-38 0 -66 -18.5t-47 -62t-28 -114t-9 -173.5q0 -105 10 -177t29.5 -116.5t47.5 -64t65 -19.5z" />
    <glyph glyph-name="Emacron" unicode="&#x112;" horiz-adv-x="846" 
d="M111 1516h663v-199h-438v-424h313v-188h-313v-512h461v-193h-686v1516zM200 1769h486v-170h-486v170z" />
    <glyph glyph-name="emacron" unicode="&#x113;" horiz-adv-x="821" 
d="M424 -16q-84 0 -152.5 33.5t-117.5 102.5t-76 174t-27 249q0 146 27.5 251.5t77 174t117.5 101t149 32.5q94 0 159.5 -42.5t107 -117.5t60.5 -178t19 -223v-76h-510q2 -146 43.5 -224.5t128.5 -78.5q35 0 61 11t45.5 32.5t34.5 53t29 73.5l168 -56q-42 -143 -128 -217.5
t-216 -74.5zM567 627q-3 145 -38 220t-109 75q-35 0 -63 -15t-48.5 -49.5t-33 -91t-15.5 -139.5h307zM167 1364h486v-170h-486v170z" />
    <glyph glyph-name="Ebreve" unicode="&#x114;" horiz-adv-x="846" 
d="M111 1516h663v-199h-438v-424h313v-188h-313v-512h461v-193h-686v1516zM432 1587q-63 0 -107.5 23t-74 66.5t-44.5 106t-18 142.5h133q8 -100 33 -147.5t78 -47.5q51 0 76 47.5t35 147.5h131q-3 -80 -18 -142.5t-44 -106t-73.5 -66.5t-106.5 -23z" />
    <glyph glyph-name="ebreve" unicode="&#x115;" horiz-adv-x="821" 
d="M424 -16q-84 0 -152.5 33.5t-117.5 102.5t-76 174t-27 249q0 146 27.5 251.5t77 174t117.5 101t149 32.5q94 0 159.5 -42.5t107 -117.5t60.5 -178t19 -223v-76h-510q2 -146 43.5 -224.5t128.5 -78.5q35 0 61 11t45.5 32.5t34.5 53t29 73.5l168 -56q-42 -143 -128 -217.5
t-216 -74.5zM567 627q-3 145 -38 220t-109 75q-35 0 -63 -15t-48.5 -49.5t-33 -91t-15.5 -139.5h307zM417 1186q-63 0 -107.5 23t-74 66.5t-44.5 106t-18 142.5h133q8 -100 33 -147.5t78 -47.5q51 0 76 47.5t35 147.5h131q-3 -80 -18 -142.5t-44 -106t-73.5 -66.5
t-106.5 -23z" />
    <glyph glyph-name="Edotaccent" unicode="&#x116;" horiz-adv-x="846" 
d="M111 1516h663v-199h-438v-424h313v-188h-313v-512h461v-193h-686v1516zM323 1820h230v-215h-230v215z" />
    <glyph glyph-name="edotaccent" unicode="&#x117;" horiz-adv-x="821" 
d="M424 -16q-84 0 -152.5 33.5t-117.5 102.5t-76 174t-27 249q0 146 27.5 251.5t77 174t117.5 101t149 32.5q94 0 159.5 -42.5t107 -117.5t60.5 -178t19 -223v-76h-510q2 -146 43.5 -224.5t128.5 -78.5q35 0 61 11t45.5 32.5t34.5 53t29 73.5l168 -56q-42 -143 -128 -217.5
t-216 -74.5zM567 627q-3 145 -38 220t-109 75q-35 0 -63 -15t-48.5 -49.5t-33 -91t-15.5 -139.5h307zM296 1415h230v-215h-230v215z" />
    <glyph glyph-name="Eogonek" unicode="&#x118;" horiz-adv-x="846" 
d="M672 -393q-89 0 -129.5 45t-40.5 115q0 34 10 68.5t27 66.5t40.5 59.5t49.5 48.5h112q-21 -19 -39.5 -43.5t-32 -51.5t-21 -55t-7.5 -53q0 -43 18 -66.5t56 -23.5q37 0 66.5 14t58.5 36l57 -62q-46 -42 -101.5 -70t-123.5 -28zM111 1516h663v-199h-438v-424h313v-188
h-313v-512h461v-193h-686v1516z" />
    <glyph glyph-name="eogonek" unicode="&#x119;" horiz-adv-x="821" 
d="M471 -393q-89 0 -129.5 45t-40.5 115q0 34 10 68.5t27 66.5t40.5 59.5t49.5 48.5h112q-21 -19 -39.5 -43.5t-32 -51.5t-21 -55t-7.5 -53q0 -43 18 -66.5t56 -23.5q37 0 66.5 14t58.5 36l57 -62q-46 -42 -101.5 -70t-123.5 -28zM424 -16q-84 0 -152.5 33.5t-117.5 102.5
t-76 174t-27 249q0 146 27.5 251.5t77 174t117.5 101t149 32.5q94 0 159.5 -42.5t107 -117.5t60.5 -178t19 -223v-76h-510q2 -146 43.5 -224.5t128.5 -78.5q35 0 61 11t45.5 32.5t34.5 53t29 73.5l168 -56q-42 -143 -128 -217.5t-216 -74.5zM567 627q-3 145 -38 220t-109 75
q-35 0 -63 -15t-48.5 -49.5t-33 -91t-15.5 -139.5h307z" />
    <glyph glyph-name="Ecaron" unicode="&#x11a;" horiz-adv-x="846" 
d="M184 1923h131l127 -156l127 156h129l-184 -326h-145zM111 1516h663v-199h-438v-424h313v-188h-313v-512h461v-193h-686v1516z" />
    <glyph glyph-name="ecaron" unicode="&#x11b;" horiz-adv-x="821" 
d="M151 1518h131l127 -156l127 156h129l-184 -326h-145zM424 -16q-84 0 -152.5 33.5t-117.5 102.5t-76 174t-27 249q0 146 27.5 251.5t77 174t117.5 101t149 32.5q94 0 159.5 -42.5t107 -117.5t60.5 -178t19 -223v-76h-510q2 -146 43.5 -224.5t128.5 -78.5q35 0 61 11
t45.5 32.5t34.5 53t29 73.5l168 -56q-42 -143 -128 -217.5t-216 -74.5zM567 627q-3 145 -38 220t-109 75q-35 0 -63 -15t-48.5 -49.5t-33 -91t-15.5 -139.5h307z" />
    <glyph glyph-name="Gcircumflex" unicode="&#x11c;" horiz-adv-x="1026" 
d="M442 1917h145l182 -326h-129l-129 156l-125 -156h-129zM492 -14q-111 0 -191.5 46.5t-133.5 141.5t-78.5 241t-25.5 345q0 201 30 347t88 241t142.5 140.5t192.5 45.5q91 0 158.5 -31.5t116 -96t80 -163.5t49.5 -233l-205 -27q-11 94 -27 159.5t-39.5 107t-56 60.5
t-76.5 19q-57 0 -99.5 -32t-71.5 -100.5t-43.5 -176t-14.5 -258.5t15 -260.5t44.5 -181t74 -106t103.5 -34.5q53 0 92.5 21.5t66 67.5t40.5 116t16 168h-200v184h393v-737h-158v195h-4q-14 -44 -38.5 -82t-60 -66.5t-80.5 -44.5t-99 -16z" />
    <glyph glyph-name="gcircumflex" unicode="&#x11d;" horiz-adv-x="862" 
d="M328 1516h145l182 -326h-129l-129 156l-125 -156h-129zM647 999q18 20 41 37.5t48 31.5t49.5 23t45.5 13v-209q-17 0 -48.5 -2.5t-65.5 -11.5q12 -39 19 -81t7 -91q0 -95 -25.5 -167.5t-70.5 -121.5t-107.5 -73.5t-136.5 -24.5q-29 0 -56.5 4t-53.5 12
q-14 -16 -22.5 -31.5t-8.5 -32.5q0 -14 3 -24.5t11.5 -18t24 -12.5t41.5 -8l150 -21q85 -10 145 -31.5t98.5 -56t56 -83.5t17.5 -113q0 -72 -31 -132t-88 -102.5t-137 -66t-178 -23.5q-93 0 -162.5 18t-115 51.5t-68.5 81t-23 105.5q0 76 39.5 137.5t118.5 96.5
q-86 44 -86 141q0 46 29.5 94.5t80.5 85.5q-63 53 -96 133t-33 183q0 92 26 165t72 123.5t109 77.5t137 27q76 0 137.5 -26t106.5 -77zM403 479q138 0 138 228q0 117 -32.5 173t-105.5 56q-71 0 -104 -57.5t-33 -171.5q0 -228 137 -228zM287 39q-41 -35 -58.5 -76.5
t-17.5 -83.5q0 -71 46 -109t146 -38q101 0 154 40t53 109q0 29 -7.5 52t-26.5 40t-51 28t-81 17z" />
    <glyph glyph-name="Gbreve" unicode="&#x11e;" horiz-adv-x="1026" 
d="M492 -14q-111 0 -191.5 46.5t-133.5 141.5t-78.5 241t-25.5 345q0 201 30 347t88 241t142.5 140.5t192.5 45.5q91 0 158.5 -31.5t116 -96t80 -163.5t49.5 -233l-205 -27q-11 94 -27 159.5t-39.5 107t-56 60.5t-76.5 19q-57 0 -99.5 -32t-71.5 -100.5t-43.5 -176
t-14.5 -258.5t15 -260.5t44.5 -181t74 -106t103.5 -34.5q53 0 92.5 21.5t66 67.5t40.5 116t16 168h-200v184h393v-737h-158v195h-4q-14 -44 -38.5 -82t-60 -66.5t-80.5 -44.5t-99 -16zM509 1591q-63 0 -107.5 23t-74 66.5t-44.5 106t-18 142.5h133q8 -100 33 -147.5
t78 -47.5q51 0 76 47.5t35 147.5h131q-3 -80 -18 -142.5t-44 -106t-73.5 -66.5t-106.5 -23z" />
    <glyph glyph-name="gbreve" unicode="&#x11f;" horiz-adv-x="862" 
d="M647 999q18 20 41 37.5t48 31.5t49.5 23t45.5 13v-209q-17 0 -48.5 -2.5t-65.5 -11.5q12 -39 19 -81t7 -91q0 -95 -25.5 -167.5t-70.5 -121.5t-107.5 -73.5t-136.5 -24.5q-29 0 -56.5 4t-53.5 12q-14 -16 -22.5 -31.5t-8.5 -32.5q0 -14 3 -24.5t11.5 -18t24 -12.5
t41.5 -8l150 -21q85 -10 145 -31.5t98.5 -56t56 -83.5t17.5 -113q0 -72 -31 -132t-88 -102.5t-137 -66t-178 -23.5q-93 0 -162.5 18t-115 51.5t-68.5 81t-23 105.5q0 76 39.5 137.5t118.5 96.5q-86 44 -86 141q0 46 29.5 94.5t80.5 85.5q-63 53 -96 133t-33 183q0 92 26 165
t72 123.5t109 77.5t137 27q76 0 137.5 -26t106.5 -77zM403 479q138 0 138 228q0 117 -32.5 173t-105.5 56q-71 0 -104 -57.5t-33 -171.5q0 -228 137 -228zM287 39q-41 -35 -58.5 -76.5t-17.5 -83.5q0 -71 46 -109t146 -38q101 0 154 40t53 109q0 29 -7.5 52t-26.5 40t-51 28
t-81 17zM409 1186q-63 0 -107.5 23t-74 66.5t-44.5 106t-18 142.5h133q8 -100 33 -147.5t78 -47.5q51 0 76 47.5t35 147.5h131q-3 -80 -18 -142.5t-44 -106t-73.5 -66.5t-106.5 -23z" />
    <glyph glyph-name="Gdotaccent" unicode="&#x120;" horiz-adv-x="1026" 
d="M492 -14q-111 0 -191.5 46.5t-133.5 141.5t-78.5 241t-25.5 345q0 201 30 347t88 241t142.5 140.5t192.5 45.5q91 0 158.5 -31.5t116 -96t80 -163.5t49.5 -233l-205 -27q-11 94 -27 159.5t-39.5 107t-56 60.5t-76.5 19q-57 0 -99.5 -32t-71.5 -100.5t-43.5 -176
t-14.5 -258.5t15 -260.5t44.5 -181t74 -106t103.5 -34.5q53 0 92.5 21.5t66 67.5t40.5 116t16 168h-200v184h393v-737h-158v195h-4q-14 -44 -38.5 -82t-60 -66.5t-80.5 -44.5t-99 -16zM403 1816h230v-215h-230v215z" />
    <glyph glyph-name="gdotaccent" unicode="&#x121;" horiz-adv-x="862" 
d="M647 999q18 20 41 37.5t48 31.5t49.5 23t45.5 13v-209q-17 0 -48.5 -2.5t-65.5 -11.5q12 -39 19 -81t7 -91q0 -95 -25.5 -167.5t-70.5 -121.5t-107.5 -73.5t-136.5 -24.5q-29 0 -56.5 4t-53.5 12q-14 -16 -22.5 -31.5t-8.5 -32.5q0 -14 3 -24.5t11.5 -18t24 -12.5
t41.5 -8l150 -21q85 -10 145 -31.5t98.5 -56t56 -83.5t17.5 -113q0 -72 -31 -132t-88 -102.5t-137 -66t-178 -23.5q-93 0 -162.5 18t-115 51.5t-68.5 81t-23 105.5q0 76 39.5 137.5t118.5 96.5q-86 44 -86 141q0 46 29.5 94.5t80.5 85.5q-63 53 -96 133t-33 183q0 92 26 165
t72 123.5t109 77.5t137 27q76 0 137.5 -26t106.5 -77zM403 479q138 0 138 228q0 117 -32.5 173t-105.5 56q-71 0 -104 -57.5t-33 -171.5q0 -228 137 -228zM287 39q-41 -35 -58.5 -76.5t-17.5 -83.5q0 -71 46 -109t146 -38q101 0 154 40t53 109q0 29 -7.5 52t-26.5 40t-51 28
t-81 17zM288 1415h230v-215h-230v215z" />
    <glyph glyph-name="Gcommaaccent" unicode="&#x122;" horiz-adv-x="1026" 
d="M493 -301h-88v217h207v-199l-101 -235h-75zM492 -14q-111 0 -191.5 46.5t-133.5 141.5t-78.5 241t-25.5 345q0 201 30 347t88 241t142.5 140.5t192.5 45.5q91 0 158.5 -31.5t116 -96t80 -163.5t49.5 -233l-205 -27q-11 94 -27 159.5t-39.5 107t-56 60.5t-76.5 19
q-57 0 -99.5 -32t-71.5 -100.5t-43.5 -176t-14.5 -258.5t15 -260.5t44.5 -181t74 -106t103.5 -34.5q53 0 92.5 21.5t66 67.5t40.5 116t16 168h-200v184h393v-737h-158v195h-4q-14 -44 -38.5 -82t-60 -66.5t-80.5 -44.5t-99 -16z" />
    <glyph glyph-name="gcommaaccent" unicode="&#x123;" horiz-adv-x="862" 
d="M307 1393l100 233h74l-57 -217h90v-215h-207v199zM647 999q18 20 41 37.5t48 31.5t49.5 23t45.5 13v-209q-17 0 -48.5 -2.5t-65.5 -11.5q12 -39 19 -81t7 -91q0 -95 -25.5 -167.5t-70.5 -121.5t-107.5 -73.5t-136.5 -24.5q-29 0 -56.5 4t-53.5 12q-14 -16 -22.5 -31.5
t-8.5 -32.5q0 -14 3 -24.5t11.5 -18t24 -12.5t41.5 -8l150 -21q85 -10 145 -31.5t98.5 -56t56 -83.5t17.5 -113q0 -72 -31 -132t-88 -102.5t-137 -66t-178 -23.5q-93 0 -162.5 18t-115 51.5t-68.5 81t-23 105.5q0 76 39.5 137.5t118.5 96.5q-86 44 -86 141q0 46 29.5 94.5
t80.5 85.5q-63 53 -96 133t-33 183q0 92 26 165t72 123.5t109 77.5t137 27q76 0 137.5 -26t106.5 -77zM403 479q138 0 138 228q0 117 -32.5 173t-105.5 56q-71 0 -104 -57.5t-33 -171.5q0 -228 137 -228zM287 39q-41 -35 -58.5 -76.5t-17.5 -83.5q0 -71 46 -109t146 -38
q101 0 154 40t53 109q0 29 -7.5 52t-26.5 40t-51 28t-81 17z" />
    <glyph glyph-name="Hcircumflex" unicode="&#x124;" horiz-adv-x="1053" 
d="M452 1917h145l182 -326h-129l-129 156l-125 -156h-129zM111 1516h225v-619h381v619h223v-1516h-223v702h-381v-702h-225v1516z" />
    <glyph glyph-name="hcircumflex" unicode="&#x125;" horiz-adv-x="885" 
d="M132 1937h145l182 -326h-129l-129 156l-125 -156h-129zM94 1516h213v-558q20 25 49.5 51t66 46.5t78 33.5t85.5 13q51 0 90 -13.5t66 -45.5t41 -84t14 -130v-829h-215v774q0 66 -19.5 98.5t-68.5 32.5q-24 0 -49.5 -9.5t-50.5 -24.5t-47 -33t-40 -35v-803h-213v1516z" />
    <glyph glyph-name="Hbar" unicode="&#x126;" horiz-adv-x="1053" 
d="M18 1270h95v246h223v-246h381v246h223v-246h94v-183h-94v-1087h-223v686h-381v-686h-223v1087h-95v183zM717 872v215h-381v-215h381z" />
    <glyph glyph-name="hbar" unicode="&#x127;" horiz-adv-x="885" 
d="M0 1346h94v170h213v-170h129v-168h-129v-230q20 25 49.5 52.5t66 50t78 37t85.5 14.5q51 0 90 -13.5t66 -44t41 -81t14 -123.5v-840h-213v774q0 68 -19.5 102.5t-70.5 34.5q-24 0 -49.5 -9.5t-50.5 -24.5t-47 -33t-40 -35v-809h-213v1178h-94v168z" />
    <glyph glyph-name="Itilde" unicode="&#x128;" horiz-adv-x="467" 
d="M121 1516h225v-1516h-225v1516zM-53 1581q0 149 44.5 215.5t125.5 66.5q40 0 73 -18t61 -39t53 -39t49 -18q28 0 42.5 23.5t14.5 86.5h117q0 -149 -44 -215.5t-126 -66.5q-40 0 -73 18t-61.5 39t-53.5 39t-48 18q-29 0 -43 -24t-14 -86h-117z" />
    <glyph glyph-name="itilde" unicode="&#x129;" horiz-adv-x="424" 
d="M104 1085h215v-1085h-215v1085zM-76 1180q0 149 44.5 215.5t125.5 66.5q40 0 73 -18t61 -39t53 -39t49 -18q28 0 42.5 23.5t14.5 86.5h117q0 -149 -44 -215.5t-126 -66.5q-40 0 -73 18t-61.5 39t-53.5 39t-48 18q-29 0 -43 -24t-14 -86h-117z" />
    <glyph glyph-name="Imacron" unicode="&#x12a;" horiz-adv-x="467" 
d="M121 1516h225v-1516h-225v1516zM-8 1769h486v-170h-486v170z" />
    <glyph glyph-name="imacron" unicode="&#x12b;" horiz-adv-x="424" 
d="M104 1085h215v-1085h-215v1085zM-31 1364h486v-170h-486v170z" />
    <glyph glyph-name="Ibreve" unicode="&#x12c;" horiz-adv-x="467" 
d="M121 1516h225v-1516h-225v1516zM236 1587q-63 0 -107.5 23t-74 66.5t-44.5 106t-18 142.5h133q8 -100 33 -147.5t78 -47.5q51 0 76 47.5t35 147.5h131q-3 -80 -18 -142.5t-44 -106t-73.5 -66.5t-106.5 -23z" />
    <glyph glyph-name="ibreve" unicode="&#x12d;" horiz-adv-x="424" 
d="M104 1085h215v-1085h-215v1085zM213 1186q-63 0 -107.5 23t-74 66.5t-44.5 106t-18 142.5h133q8 -100 33 -147.5t78 -47.5q51 0 76 47.5t35 147.5h131q-3 -80 -18 -142.5t-44 -106t-73.5 -66.5t-106.5 -23z" />
    <glyph glyph-name="Iogonek" unicode="&#x12e;" horiz-adv-x="467" 
d="M121 1516h225v-1516h-118q-15 -15 -29 -33q-18 -25 -31.5 -52t-21 -55t-7.5 -53q0 -43 18 -66.5t56 -23.5q37 0 66.5 14t58.5 36l57 -62q-46 -42 -101.5 -70t-123.5 -28q-89 0 -130.5 45t-41.5 115q0 34 10.5 68.5t28 66.5t40.5 60q21 24 44 43v1511z" />
    <glyph glyph-name="iogonek" unicode="&#x12f;" horiz-adv-x="424" 
d="M104 1085h215v-1085h-107q-15 -15 -29 -33q-18 -25 -31.5 -52t-21 -55t-7.5 -53q0 -43 17.5 -66.5t56.5 -23.5q37 0 66.5 14t58.5 36l57 -62q-47 -42 -102 -70t-123 -28q-89 0 -130.5 45t-41.5 115q0 34 10.5 68.5t28 66.5t40.5 60q21 24 43 42v1081zM102 1473h217v-222
h-217v222z" />
    <glyph glyph-name="Idotaccent" unicode="&#x130;" horiz-adv-x="467" 
d="M121 1516h225v-1516h-225v1516zM121 1820h230v-215h-230v215z" />
    <glyph glyph-name="dotlessi" unicode="&#x131;" horiz-adv-x="424" 
d="M104 1085h215v-1085h-215v1085z" />
    <glyph glyph-name="IJ" unicode="&#x132;" horiz-adv-x="1178" 
d="M121 1516h225v-1516h-225v1516zM738 -16q-102 0 -175 21t-126 56l97 175q34 -23 78 -40.5t100 -17.5q74 0 106.5 42t32.5 136v1160h223v-1170q0 -96 -23 -164.5t-66 -112.5t-105.5 -64.5t-141.5 -20.5z" />
    <glyph glyph-name="ij" unicode="&#x133;" horiz-adv-x="846" 
d="M102 1473h217v-222h-217v222zM104 1085h215v-1085h-215v1085zM523 1473h217v-222h-217v222zM489 -412q-6 0 -20 0.5t-28 1.5t-26 2t-14 2v168q2 -1 8.5 -1.5t14 -1l15 -1t11.5 -0.5q43 0 59 27t16 78v1222h215v-1218q0 -73 -13 -126t-42.5 -87t-77.5 -50t-118 -16z" />
    <glyph glyph-name="Jcircumflex" unicode="&#x134;" horiz-adv-x="752" 
d="M465 1917h145l182 -326h-129l-129 156l-125 -156h-129zM313 -16q-102 0 -175 21t-126 56l97 175q34 -23 78 -40.5t100 -17.5q74 0 106.5 42t32.5 136v1160h223v-1170q0 -96 -23 -164.5t-66 -112.5t-105.5 -64.5t-141.5 -20.5z" />
    <glyph glyph-name="jcircumflex" unicode="&#x135;" horiz-adv-x="424" 
d="M68 -412q-6 0 -19.5 0.5t-28 1t-26.5 1t-14 1.5v168q2 -1 9 -1.5t14 -0.5h26q43 0 59 27t16 78v1222h215v-1220q0 -72 -13 -124.5t-42.5 -86.5t-77.5 -50t-118 -16zM142 1516h145l182 -326h-129l-129 156l-125 -156h-129z" />
    <glyph glyph-name="Kcommaaccent" unicode="&#x136;" horiz-adv-x="967" 
d="M467 -301h-88v217h207v-199l-101 -235h-75zM111 1516h221v-742q7 25 22.5 62t35 80.5t42 89.5t43.5 88l215 422h219l-313 -601l358 -915h-229l-276 709l-117 -226v-483h-221v1516z" />
    <glyph glyph-name="kcommaaccent" unicode="&#x137;" horiz-adv-x="813" 
d="M391 -301h-88v217h207v-199l-101 -235h-75zM94 1516h207v-951q20 59 48 113.5t52 105.5l152 301h205l-221 -403l251 -682h-215l-174 479l-98 -176v-303h-207v1516z" />
    <glyph glyph-name="kgreenlandic" unicode="&#x138;" horiz-adv-x="813" 
d="M94 1085h207v-520q20 59 48 113.5t52 105.5l154 301h203l-221 -403l251 -682h-213l-176 481l-98 -176v-305h-207v1085z" />
    <glyph glyph-name="Lacute" unicode="&#x139;" horiz-adv-x="815" 
d="M281 1921h217l-203 -320h-151zM111 1516h225v-1323h440v-193h-665v1516z" />
    <glyph glyph-name="lacute" unicode="&#x13a;" horiz-adv-x="424" 
d="M271 1929h217l-203 -320h-151zM104 1516h215v-1516h-215v1516z" />
    <glyph glyph-name="Lcommaaccent" unicode="&#x13b;" horiz-adv-x="815" 
d="M391 -301h-88v217h207v-199l-101 -235h-75zM111 1516h225v-1323h440v-193h-665v1516z" />
    <glyph glyph-name="lcommaaccent" unicode="&#x13c;" horiz-adv-x="424" 
d="M197 -301h-88v217h207v-199l-101 -235h-75zM104 1516h215v-1516h-215v1516z" />
    <glyph glyph-name="Lcaron" unicode="&#x13d;" horiz-adv-x="815" 
d="M539 1298h-90v218h206v-199l-100 -234h-74zM111 1516h225v-1323h440v-193h-665v1516z" />
    <glyph glyph-name="lcaron" unicode="&#x13e;" horiz-adv-x="424" 
d="M469 1391h-78v217h197v-199l-101 -223h-75zM104 1516h215v-1516h-215v1516z" />
    <glyph glyph-name="Ldot" unicode="&#x13f;" horiz-adv-x="907" 
d="M582 909h209v-211h-209v211zM111 1516h225v-1323h440v-193h-665v1516z" />
    <glyph glyph-name="ldot" unicode="&#x140;" horiz-adv-x="649" 
d="M432 756h209v-211h-209v211zM104 1516h215v-1516h-215v1516z" />
    <glyph glyph-name="Lslash" unicode="&#x141;" horiz-adv-x="815" 
d="M117 672l-101 -37v190l101 37v654h225v-574l168 59v-188l-168 -61v-562h440v-190h-665v672z" />
    <glyph glyph-name="lslash" unicode="&#x142;" horiz-adv-x="492" 
d="M139 870l-98 -34v174l98 34v472h217v-400l97 33v-174l-97 -33v-942h-217v870z" />
    <glyph glyph-name="Nacute" unicode="&#x143;" horiz-adv-x="1049" 
d="M553 1921h217l-203 -320h-151zM111 1516h241l293 -760q34 -90 60.5 -163t46.5 -136h4v1059h180v-1516h-193l-342 860q-15 36 -31 79t-30.5 83.5t-26 74.5t-16.5 52h-6v-1149h-180v1516z" />
    <glyph glyph-name="nacute" unicode="&#x144;" horiz-adv-x="885" 
d="M471 1516h217l-203 -320h-151zM94 1085h213v-127q20 25 49.5 51t66 46.5t78 33.5t85.5 13q51 0 90 -13.5t66 -45.5t41 -84t14 -130v-829h-215v774q0 66 -19.5 98.5t-68.5 32.5q-24 0 -49.5 -9.5t-50.5 -24.5t-47 -33t-40 -35v-803h-213v1085z" />
    <glyph glyph-name="Ncommaaccent" unicode="&#x145;" horiz-adv-x="1049" 
d="M507 -301h-88v217h207v-199l-101 -235h-75zM111 1516h241l293 -760q34 -90 60.5 -163t46.5 -136h4v1059h180v-1516h-193l-342 860q-15 36 -31 79t-30.5 83.5t-26 74.5t-16.5 52h-6v-1149h-180v1516z" />
    <glyph glyph-name="ncommaaccent" unicode="&#x146;" horiz-adv-x="885" 
d="M426 -301h-88v217h207v-199l-101 -235h-75zM94 1085h213v-127q20 25 49.5 51t66 46.5t78 33.5t85.5 13q51 0 90 -13.5t66 -45.5t41 -84t14 -130v-829h-215v774q0 66 -19.5 98.5t-68.5 32.5q-24 0 -49.5 -9.5t-50.5 -24.5t-47 -33t-40 -35v-803h-213v1085z" />
    <glyph glyph-name="Ncaron" unicode="&#x147;" horiz-adv-x="1049" 
d="M263 1923h131l127 -156l127 156h129l-184 -326h-145zM111 1516h241l293 -760q34 -90 60.5 -163t46.5 -136h4v1059h180v-1516h-193l-342 860q-15 36 -31 79t-30.5 83.5t-26 74.5t-16.5 52h-6v-1149h-180v1516z" />
    <glyph glyph-name="ncaron" unicode="&#x148;" horiz-adv-x="885" 
d="M182 1518h131l127 -156l127 156h129l-184 -326h-145zM94 1085h213v-127q20 25 49.5 51t66 46.5t78 33.5t85.5 13q51 0 90 -13.5t66 -45.5t41 -84t14 -130v-829h-215v774q0 66 -19.5 98.5t-68.5 32.5q-24 0 -49.5 -9.5t-50.5 -24.5t-47 -33t-40 -35v-803h-213v1085z" />
    <glyph glyph-name="Eng" unicode="&#x14a;" horiz-adv-x="1049" 
d="M113 1516h239l295 -760q32 -90 59 -163t46 -136h6v1059h178v-1565q0 -96 -20 -164.5t-57.5 -113t-91.5 -65t-122 -20.5q-100 0 -173 29t-124 68l90 161q35 -26 79 -46.5t101 -20.5q66 0 97.5 34t36.5 103v10.5t1 20.5q0 13 1 30l-353 885q-15 36 -31 78.5t-30.5 83
t-26 74.5t-16.5 53h-6v-1151h-178v1516z" />
    <glyph glyph-name="eng" unicode="&#x14b;" horiz-adv-x="885" 
d="M94 1085h213v-137q20 25 49.5 52.5t66 50t78 37t85.5 14.5q51 0 90 -13.5t66 -44t41 -81t14 -123.5v-975q0 -72 -13 -124.5t-43 -86.5t-77.5 -50t-116.5 -16q-6 0 -20 0.5l-28 1t-26 1t-14 1.5v168q5 -2 23 -2h26q43 0 59.5 27t16.5 78v911q0 68 -19.5 102.5t-70.5 34.5
q-24 0 -49.5 -9.5t-50.5 -24.5t-47 -33t-40 -35v-809h-213v1085z" />
    <glyph glyph-name="Omacron" unicode="&#x14c;" horiz-adv-x="1053" 
d="M282 1769h486v-170h-486v170zM526 -16q-104 0 -189.5 44.5t-146.5 139t-94 240.5t-33 350q0 203 33 350t94 241.5t146.5 139.5t189.5 45t189.5 -45t146 -139.5t94 -241.5t33.5 -350q0 -204 -33.5 -350t-94 -240.5t-146 -139t-189.5 -44.5zM526 180q123 0 180.5 146
t57.5 432t-57.5 428.5t-180.5 142.5t-180 -142.5t-57 -428.5t57 -432t180 -146z" />
    <glyph glyph-name="omacron" unicode="&#x14d;" horiz-adv-x="858" 
d="M186 1364h486v-170h-486v170zM430 -16q-84 0 -154 34t-120 103.5t-77.5 174.5t-27.5 247q0 144 27.5 249t77 174t119.5 102.5t155 33.5q84 0 153 -33.5t118.5 -102.5t76.5 -174t27 -249q0 -142 -27 -247t-76.5 -174.5t-118.5 -103.5t-153 -34zM430 160q86 0 123 92.5
t37 290.5q0 91 -8 161.5t-26.5 118.5t-49.5 72.5t-76 24.5q-88 0 -126 -91t-38 -286q0 -92 8 -163t27 -120t50.5 -74.5t78.5 -25.5z" />
    <glyph glyph-name="Obreve" unicode="&#x14e;" horiz-adv-x="1053" 
d="M526 -16q-104 0 -189.5 44.5t-146.5 139t-94 240.5t-33 350q0 203 33 350t94 241.5t146.5 139.5t189.5 45t189.5 -45t146 -139.5t94 -241.5t33.5 -350q0 -204 -33.5 -350t-94 -240.5t-146 -139t-189.5 -44.5zM526 180q123 0 180.5 146t57.5 432t-57.5 428.5t-180.5 142.5
t-180 -142.5t-57 -428.5t57 -432t180 -146zM526 1587q-63 0 -107.5 23t-74 66.5t-44.5 106t-18 142.5h133q8 -100 33 -147.5t78 -47.5q51 0 76 47.5t35 147.5h131q-3 -80 -18 -142.5t-44 -106t-73.5 -66.5t-106.5 -23z" />
    <glyph glyph-name="obreve" unicode="&#x14f;" horiz-adv-x="858" 
d="M430 -16q-84 0 -154 34t-120 103.5t-77.5 174.5t-27.5 247q0 144 27.5 249t77 174t119.5 102.5t155 33.5q84 0 153 -33.5t118.5 -102.5t76.5 -174t27 -249q0 -142 -27 -247t-76.5 -174.5t-118.5 -103.5t-153 -34zM430 160q86 0 123 92.5t37 290.5q0 91 -8 161.5
t-26.5 118.5t-49.5 72.5t-76 24.5q-88 0 -126 -91t-38 -286q0 -92 8 -163t27 -120t50.5 -74.5t78.5 -25.5zM430 1186q-63 0 -107.5 23t-74 66.5t-44.5 106t-18 142.5h133q8 -100 33 -147.5t78 -47.5q51 0 76 47.5t35 147.5h131q-3 -80 -18 -142.5t-44 -106t-73.5 -66.5
t-106.5 -23z" />
    <glyph glyph-name="Ohungarumlaut" unicode="&#x150;" horiz-adv-x="1053" 
d="M696 1921h215l-211 -320h-143zM414 1921h213l-207 -320h-144zM526 -16q-104 0 -189.5 44.5t-146.5 139t-94 240.5t-33 350q0 203 33 350t94 241.5t146.5 139.5t189.5 45t189.5 -45t146 -139.5t94 -241.5t33.5 -350q0 -204 -33.5 -350t-94 -240.5t-146 -139t-189.5 -44.5z
M526 180q123 0 180.5 146t57.5 432t-57.5 428.5t-180.5 142.5t-180 -142.5t-57 -428.5t57 -432t180 -146z" />
    <glyph glyph-name="ohungarumlaut" unicode="&#x151;" horiz-adv-x="858" 
d="M599 1516h215l-211 -320h-143zM317 1516h213l-207 -320h-144zM430 -16q-84 0 -154 34t-120 103.5t-77.5 174.5t-27.5 247q0 144 27.5 249t77 174t119.5 102.5t155 33.5q84 0 153 -33.5t118.5 -102.5t76.5 -174t27 -249q0 -142 -27 -247t-76.5 -174.5t-118.5 -103.5
t-153 -34zM430 160q86 0 123 92.5t37 290.5q0 91 -8 161.5t-26.5 118.5t-49.5 72.5t-76 24.5q-88 0 -126 -91t-38 -286q0 -92 8 -163t27 -120t50.5 -74.5t78.5 -25.5z" />
    <glyph glyph-name="OE" unicode="&#x152;" horiz-adv-x="1501" 
d="M807 1516h623v-199h-439v-426h314v-189h-314v-509h461v-193h-645v154q-47 -84 -115 -128t-164 -44q-105 0 -191 45t-146.5 139.5t-94 241t-33.5 350.5q0 203 33.5 350t94 241.5t146.5 139.5t191 45q96 0 164 -44t115 -128v154zM528 180q122 0 178 145t56 433
q0 286 -56.5 428.5t-177.5 142.5q-125 0 -182 -142.5t-57 -428.5q0 -288 57 -433t182 -145z" />
    <glyph glyph-name="oe" unicode="&#x153;" horiz-adv-x="1354" 
d="M430 -16q-84 0 -154 34t-120 103.5t-77.5 174.5t-27.5 247q0 144 27.5 249t77 174t119.5 102.5t155 33.5q171 0 262 -144q47 75 113 109.5t149 34.5q94 0 159.5 -42.5t107 -117.5t60.5 -178t19 -223v-76h-509q2 -146 43.5 -224.5t128.5 -78.5q35 0 61 11t45.5 32.5
t34.5 53t29 73.5l167 -56q-42 -143 -128 -217.5t-216 -74.5q-86 0 -152.5 35.5t-111.5 107.5q-91 -143 -262 -143zM1100 627q-3 145 -38 220t-110 75q-35 0 -63 -15t-48 -49.5t-32.5 -91t-15.5 -139.5h307zM430 160q86 0 123 92.5t37 290.5q0 91 -8 161.5t-26.5 118.5
t-49.5 72.5t-76 24.5q-88 0 -126 -91t-38 -286q0 -92 8 -163t27 -120t50.5 -74.5t78.5 -25.5z" />
    <glyph glyph-name="Racute" unicode="&#x154;" horiz-adv-x="977" 
d="M518 1921h217l-203 -320h-151zM913 0h-223l-213 590h-147v-590h-219v1516h331q108 0 191.5 -26.5t141.5 -82t88 -142t30 -206.5q0 -64 -11 -124.5t-36 -114t-66 -97.5t-102 -74zM446 772q61 0 104 14.5t70.5 48t40.5 87.5t13 133q0 75 -12.5 126t-41 82t-73.5 44.5
t-109 13.5h-108v-549h116z" />
    <glyph glyph-name="racute" unicode="&#x155;" horiz-adv-x="616" 
d="M341 1516h217l-203 -320h-151zM94 1085h213v-157h4q18 34 42.5 65.5t57 55.5t72 38.5t86.5 14.5h25l-6 -205h-39q-35 0 -71 -12t-68.5 -32.5t-59 -47t-43.5 -55.5v-750h-213v1085z" />
    <glyph glyph-name="Rcommaaccent" unicode="&#x156;" horiz-adv-x="977" 
d="M473 -301h-88v217h207v-199l-101 -235h-75zM913 0h-223l-213 590h-147v-590h-219v1516h331q108 0 191.5 -26.5t141.5 -82t88 -142t30 -206.5q0 -64 -11 -124.5t-36 -114t-66 -97.5t-102 -74zM446 772q61 0 104 14.5t70.5 48t40.5 87.5t13 133q0 75 -12.5 126t-41 82
t-73.5 44.5t-109 13.5h-108v-549h116z" />
    <glyph glyph-name="rcommaaccent" unicode="&#x157;" horiz-adv-x="616" 
d="M187 -301h-88v217h207v-199l-101 -235h-75zM94 1085h213v-157h4q18 34 42.5 65.5t57 55.5t72 38.5t86.5 14.5h25l-6 -205h-39q-35 0 -71 -12t-68.5 -32.5t-59 -47t-43.5 -55.5v-750h-213v1085z" />
    <glyph glyph-name="Rcaron" unicode="&#x158;" horiz-adv-x="977" 
d="M218 1923h131l127 -156l127 156h129l-184 -326h-145zM913 0h-223l-213 590h-147v-590h-219v1516h331q108 0 191.5 -26.5t141.5 -82t88 -142t30 -206.5q0 -64 -11 -124.5t-36 -114t-66 -97.5t-102 -74zM446 772q61 0 104 14.5t70.5 48t40.5 87.5t13 133q0 75 -12.5 126
t-41 82t-73.5 44.5t-109 13.5h-108v-549h116z" />
    <glyph glyph-name="rcaron" unicode="&#x159;" horiz-adv-x="616" 
d="M51 1518h131l127 -156l127 156h129l-184 -326h-145zM94 1085h213v-157h4q18 34 42.5 65.5t57 55.5t72 38.5t86.5 14.5h25l-6 -205h-39q-35 0 -71 -12t-68.5 -32.5t-59 -47t-43.5 -55.5v-750h-213v1085z" />
    <glyph glyph-name="Sacute" unicode="&#x15a;" horiz-adv-x="936" 
d="M497 1921h217l-203 -320h-151zM477 -23q-101 0 -175 31.5t-126.5 88.5t-85.5 136.5t-51 176.5l205 39q26 -134 80.5 -205.5t154.5 -71.5q45 0 77.5 13t53.5 36t31 55t10 70q0 53 -24 100.5t-63.5 91.5t-90 87t-103 88t-103 94t-90 105t-63.5 120.5t-24 141.5
q0 84 27.5 151.5t77 115t119 72.5t153.5 25q87 0 151 -28t110.5 -79.5t77.5 -124t52 -161.5l-199 -51q-15 61 -33.5 107t-42 76.5t-54 46t-70.5 15.5q-71 0 -110.5 -38.5t-39.5 -112.5q0 -57 24 -106t63.5 -94t90 -87.5t103 -87t103 -92.5t90 -103t63.5 -119.5t24 -142.5
q0 -84 -28.5 -154t-80.5 -120t-124 -77.5t-160 -27.5z" />
    <glyph glyph-name="sacute" unicode="&#x15b;" horiz-adv-x="772" 
d="M416 1516h217l-203 -320h-151zM387 -20q-71 0 -127.5 19t-101 54t-79 84t-59.5 109l168 76q34 -84 81.5 -127t113.5 -43t101.5 31t35.5 85q0 37 -19.5 66t-51 53.5t-72.5 47.5t-83 48.5t-83 55.5t-72.5 69t-51 90t-19.5 117q0 72 28 126.5t72.5 91t100.5 55t112 18.5
q128 0 208 -63t130 -187l-170 -74q-25 72 -66 109t-98 37q-51 0 -82 -29t-31 -76q0 -39 19.5 -69t51.5 -55.5t72.5 -48.5t83 -48t83 -55t72.5 -68.5t51.5 -88.5t19.5 -116q0 -65 -23.5 -119t-67 -93t-106.5 -60.5t-141 -21.5z" />
    <glyph glyph-name="Scircumflex" unicode="&#x15c;" horiz-adv-x="936" 
d="M391 1917h145l182 -326h-129l-129 156l-125 -156h-129zM477 -23q-101 0 -175 31.5t-126.5 88.5t-85.5 136.5t-51 176.5l205 39q26 -134 80.5 -205.5t154.5 -71.5q45 0 77.5 13t53.5 36t31 55t10 70q0 53 -24 100.5t-63.5 91.5t-90 87t-103 88t-103 94t-90 105
t-63.5 120.5t-24 141.5q0 84 27.5 151.5t77 115t119 72.5t153.5 25q87 0 151 -28t110.5 -79.5t77.5 -124t52 -161.5l-199 -51q-15 61 -33.5 107t-42 76.5t-54 46t-70.5 15.5q-71 0 -110.5 -38.5t-39.5 -112.5q0 -57 24 -106t63.5 -94t90 -87.5t103 -87t103 -92.5t90 -103
t63.5 -119.5t24 -142.5q0 -84 -28.5 -154t-80.5 -120t-124 -77.5t-160 -27.5z" />
    <glyph glyph-name="scircumflex" unicode="&#x15d;" horiz-adv-x="772" 
d="M314 1516h145l182 -326h-129l-129 156l-125 -156h-129zM387 -20q-71 0 -127.5 19t-101 54t-79 84t-59.5 109l168 76q34 -84 81.5 -127t113.5 -43t101.5 31t35.5 85q0 37 -19.5 66t-51 53.5t-72.5 47.5t-83 48.5t-83 55.5t-72.5 69t-51 90t-19.5 117q0 72 28 126.5
t72.5 91t100.5 55t112 18.5q128 0 208 -63t130 -187l-170 -74q-25 72 -66 109t-98 37q-51 0 -82 -29t-31 -76q0 -39 19.5 -69t51.5 -55.5t72.5 -48.5t83 -48t83 -55t72.5 -68.5t51.5 -88.5t19.5 -116q0 -65 -23.5 -119t-67 -93t-106.5 -60.5t-141 -21.5z" />
    <glyph glyph-name="Scedilla" unicode="&#x15e;" horiz-adv-x="936" 
d="M477 -23q-101 0 -175 31.5t-126.5 88.5t-85.5 136.5t-51 176.5l205 39q26 -134 80.5 -205.5t154.5 -71.5q45 0 77.5 13t53.5 36t31 55t10 70q0 53 -24 100.5t-63.5 91.5t-90 87t-103 88t-103 94t-90 105t-63.5 120.5t-24 141.5q0 84 27.5 151.5t77 115t119 72.5t153.5 25
q87 0 151 -28t110.5 -79.5t77.5 -124t52 -161.5l-199 -51q-15 61 -33.5 107t-42 76.5t-54 46t-70.5 15.5q-71 0 -110.5 -38.5t-39.5 -112.5q0 -57 24 -106t63.5 -94t90 -87.5t103 -87t103 -92.5t90 -103t63.5 -119.5t24 -142.5q0 -84 -28.5 -154t-80.5 -120t-124 -77.5
t-160 -27.5zM474 -406q-68 0 -126 19.5t-101 50.5l45 86q34 -23 79 -39t95 -16q88 0 88 74q0 59 -55 59q-39 0 -68 -35l-74 33l46 176h104l-23 -102q30 28 86 28q24 0 46.5 -8t40 -25t28 -44.5t10.5 -67.5q0 -90 -59.5 -139.5t-161.5 -49.5z" />
    <glyph glyph-name="scedilla" unicode="&#x15f;" horiz-adv-x="772" 
d="M387 -20q-71 0 -127.5 19t-101 54t-79 84t-59.5 109l168 76q34 -84 81.5 -127t113.5 -43t101.5 31t35.5 85q0 37 -19.5 66t-51 53.5t-72.5 47.5t-83 48.5t-83 55.5t-72.5 69t-51 90t-19.5 117q0 72 28 126.5t72.5 91t100.5 55t112 18.5q128 0 208 -63t130 -187l-170 -74
q-25 72 -66 109t-98 37q-51 0 -82 -29t-31 -76q0 -39 19.5 -69t51.5 -55.5t72.5 -48.5t83 -48t83 -55t72.5 -68.5t51.5 -88.5t19.5 -116q0 -65 -23.5 -119t-67 -93t-106.5 -60.5t-141 -21.5zM393 -406q-68 0 -126 19.5t-101 50.5l45 86q34 -23 79 -39t95 -16q88 0 88 74
q0 59 -55 59q-39 0 -68 -35l-74 33l46 176h104l-23 -102q30 28 86 28q24 0 46.5 -8t40 -25t28 -44.5t10.5 -67.5q0 -90 -59.5 -139.5t-161.5 -49.5z" />
    <glyph glyph-name="Scaron" unicode="&#x160;" horiz-adv-x="936" 
d="M208 1923h131l127 -156l127 156h129l-184 -326h-145zM477 -23q-101 0 -175 31.5t-126.5 88.5t-85.5 136.5t-51 176.5l205 39q26 -134 80.5 -205.5t154.5 -71.5q45 0 77.5 13t53.5 36t31 55t10 70q0 53 -24 100.5t-63.5 91.5t-90 87t-103 88t-103 94t-90 105t-63.5 120.5
t-24 141.5q0 84 27.5 151.5t77 115t119 72.5t153.5 25q87 0 151 -28t110.5 -79.5t77.5 -124t52 -161.5l-199 -51q-15 61 -33.5 107t-42 76.5t-54 46t-70.5 15.5q-71 0 -110.5 -38.5t-39.5 -112.5q0 -57 24 -106t63.5 -94t90 -87.5t103 -87t103 -92.5t90 -103t63.5 -119.5
t24 -142.5q0 -84 -28.5 -154t-80.5 -120t-124 -77.5t-160 -27.5z" />
    <glyph glyph-name="scaron" unicode="&#x161;" horiz-adv-x="772" 
d="M129 1518h131l127 -156l127 156h129l-184 -326h-145zM387 -20q-71 0 -127.5 19t-101 54t-79 84t-59.5 109l168 76q34 -84 81.5 -127t113.5 -43t101.5 31t35.5 85q0 37 -19.5 66t-51 53.5t-72.5 47.5t-83 48.5t-83 55.5t-72.5 69t-51 90t-19.5 117q0 72 28 126.5t72.5 91
t100.5 55t112 18.5q128 0 208 -63t130 -187l-170 -74q-25 72 -66 109t-98 37q-51 0 -82 -29t-31 -76q0 -39 19.5 -69t51.5 -55.5t72.5 -48.5t83 -48t83 -55t72.5 -68.5t51.5 -88.5t19.5 -116q0 -65 -23.5 -119t-67 -93t-106.5 -60.5t-141 -21.5z" />
    <glyph glyph-name="Tcaron" unicode="&#x164;" horiz-adv-x="864" 
d="M171 1923h131l127 -156l127 156h129l-184 -326h-145zM319 1317h-286v199h796v-199h-284v-1317h-226v1317z" />
    <glyph glyph-name="tcaron" unicode="&#x165;" horiz-adv-x="598" 
d="M508 1391h-78v217h197v-199l-101 -223h-75zM412 -8q-69 0 -119.5 12t-82.5 40t-47.5 74.5t-15.5 114.5v678h-124v174h124v381h213v-381h191v-174h-191v-612q0 -40 5.5 -66.5t18.5 -42t34 -22t53 -6.5q22 0 44.5 3.5t33.5 8.5v-170q-17 -5 -55.5 -8.5t-81.5 -3.5z" />
    <glyph glyph-name="Tbar" unicode="&#x166;" horiz-adv-x="864" 
d="M33 815h286v508h-286v193h796v-193h-284v-508h284v-180h-284v-635h-226v635h-286v180z" />
    <glyph glyph-name="tbar" unicode="&#x167;" horiz-adv-x="598" 
d="M23 645h124v273h-124v167h124v381h213v-381h191v-167h-191v-273h191v-168h-191v-184q0 -40 5.5 -66.5t18.5 -42t34 -22t53 -6.5q22 0 44.5 3.5t33.5 8.5v-162q-17 -6 -55.5 -10t-81.5 -4q-69 0 -119.5 12t-82.5 40t-47.5 74.5t-15.5 114.5v244h-124v168z" />
    <glyph glyph-name="Utilde" unicode="&#x168;" horiz-adv-x="1012" 
d="M508 -16q-114 0 -191.5 34t-125 98t-68.5 155.5t-21 205.5v1039h222v-1014q0 -80 8.5 -141t30 -102t58 -62t91.5 -21q54 0 90 20.5t57.5 61t30 101t8.5 139.5v1018h211v-1035q0 -117 -20.5 -209.5t-67.5 -156.5t-123.5 -97.5t-189.5 -33.5zM216 1581q0 149 44.5 215.5
t125.5 66.5q40 0 73 -18t61 -39t53 -39t49 -18q28 0 42.5 23.5t14.5 86.5h117q0 -149 -44 -215.5t-126 -66.5q-40 0 -73 18t-61.5 39t-53.5 39t-48 18q-29 0 -43 -24t-14 -86h-117z" />
    <glyph glyph-name="utilde" unicode="&#x169;" horiz-adv-x="881" 
d="M297 -12q-51 0 -90 13.5t-65.5 45t-40 83.5t-13.5 130v825h213v-772q0 -68 19.5 -100.5t70.5 -32.5q24 0 49 10t48.5 25t45 33t39.5 35v802h213v-1085h-213v131q-20 -26 -49 -51.5t-65 -45.5t-77 -33t-85 -13zM151 1180q0 149 44.5 215.5t125.5 66.5q40 0 73 -18t61 -39
t53 -39t49 -18q28 0 42.5 23.5t14.5 86.5h117q0 -149 -44 -215.5t-126 -66.5q-40 0 -73 18t-61.5 39t-53.5 39t-48 18q-29 0 -43 -24t-14 -86h-117z" />
    <glyph glyph-name="Umacron" unicode="&#x16a;" horiz-adv-x="1012" 
d="M508 -16q-114 0 -191.5 34t-125 98t-68.5 155.5t-21 205.5v1039h222v-1014q0 -80 8.5 -141t30 -102t58 -62t91.5 -21q54 0 90 20.5t57.5 61t30 101t8.5 139.5v1018h211v-1035q0 -117 -20.5 -209.5t-67.5 -156.5t-123.5 -97.5t-189.5 -33.5zM261 1769h486v-170h-486v170z
" />
    <glyph glyph-name="umacron" unicode="&#x16b;" horiz-adv-x="881" 
d="M297 -12q-51 0 -90 13.5t-65.5 45t-40 83.5t-13.5 130v825h213v-772q0 -68 19.5 -100.5t70.5 -32.5q24 0 49 10t48.5 25t45 33t39.5 35v802h213v-1085h-213v131q-20 -26 -49 -51.5t-65 -45.5t-77 -33t-85 -13zM196 1364h486v-170h-486v170z" />
    <glyph glyph-name="Ubreve" unicode="&#x16c;" horiz-adv-x="1012" 
d="M508 -16q-114 0 -191.5 34t-125 98t-68.5 155.5t-21 205.5v1039h222v-1014q0 -80 8.5 -141t30 -102t58 -62t91.5 -21q54 0 90 20.5t57.5 61t30 101t8.5 139.5v1018h211v-1035q0 -117 -20.5 -209.5t-67.5 -156.5t-123.5 -97.5t-189.5 -33.5zM505 1587q-63 0 -107.5 23
t-74 66.5t-44.5 106t-18 142.5h133q8 -100 33 -147.5t78 -47.5q51 0 76 47.5t35 147.5h131q-3 -80 -18 -142.5t-44 -106t-73.5 -66.5t-106.5 -23z" />
    <glyph glyph-name="ubreve" unicode="&#x16d;" horiz-adv-x="881" 
d="M297 -12q-51 0 -90 13.5t-65.5 45t-40 83.5t-13.5 130v825h213v-772q0 -68 19.5 -100.5t70.5 -32.5q24 0 49 10t48.5 25t45 33t39.5 35v802h213v-1085h-213v131q-20 -26 -49 -51.5t-65 -45.5t-77 -33t-85 -13zM436 1186q-63 0 -107.5 23t-74 66.5t-44.5 106t-18 142.5
h133q8 -100 33 -147.5t78 -47.5q51 0 76 47.5t35 147.5h131q-3 -80 -18 -142.5t-44 -106t-73.5 -66.5t-106.5 -23z" />
    <glyph glyph-name="Uring" unicode="&#x16e;" horiz-adv-x="1012" 
d="M505 1562q-41 0 -74 17t-55.5 46.5t-34.5 69.5t-12 86t12 86t34.5 69.5t55.5 46.5t74 17q42 0 75 -17t56.5 -46.5t36 -69.5t12.5 -86t-12 -86t-35.5 -69.5t-57 -46.5t-75.5 -17zM505 1665q18 0 30 10t19.5 26t11 36.5t3.5 41.5t-3.5 41t-11 35.5t-19.5 25t-30 9.5
q-17 0 -28.5 -9.5t-18 -25t-9.5 -35.5t-3 -41t3 -41.5t9.5 -36.5t18 -26t28.5 -10zM508 -16q-114 0 -191.5 34t-125 98t-68.5 155.5t-21 205.5v1039h222v-1014q0 -80 8.5 -141t30 -102t58 -62t91.5 -21q54 0 90 20.5t57.5 61t30 101t8.5 139.5v1018h211v-1035
q0 -117 -20.5 -209.5t-67.5 -156.5t-123.5 -97.5t-189.5 -33.5z" />
    <glyph glyph-name="uring" unicode="&#x16f;" horiz-adv-x="881" 
d="M438 1157q-41 0 -74 17t-55.5 46.5t-34.5 69.5t-12 86t12 86t34.5 69.5t55.5 46.5t74 17q42 0 75 -17t56.5 -46.5t36 -69.5t12.5 -86t-12 -86t-35.5 -69.5t-57 -46.5t-75.5 -17zM438 1260q18 0 30 10t19.5 26t11 36.5t3.5 41.5t-3.5 41t-11 35.5t-19.5 25t-30 9.5
q-17 0 -28.5 -9.5t-18 -25t-9.5 -35.5t-3 -41t3 -41.5t9.5 -36.5t18 -26t28.5 -10zM297 -12q-51 0 -90 13.5t-65.5 45t-40 83.5t-13.5 130v825h213v-772q0 -68 19.5 -100.5t70.5 -32.5q24 0 49 10t48.5 25t45 33t39.5 35v802h213v-1085h-213v131q-20 -26 -49 -51.5
t-65 -45.5t-77 -33t-85 -13z" />
    <glyph glyph-name="Uhungarumlaut" unicode="&#x170;" horiz-adv-x="1012" 
d="M508 -16q-114 0 -191.5 34t-125 98t-68.5 155.5t-21 205.5v1039h222v-1014q0 -80 8.5 -141t30 -102t58 -62t91.5 -21q54 0 90 20.5t57.5 61t30 101t8.5 139.5v1018h211v-1035q0 -117 -20.5 -209.5t-67.5 -156.5t-123.5 -97.5t-189.5 -33.5zM675 1921h215l-211 -320h-143z
M393 1921h213l-207 -320h-144z" />
    <glyph glyph-name="uhungarumlaut" unicode="&#x171;" horiz-adv-x="881" 
d="M297 -12q-51 0 -90 13.5t-65.5 45t-40 83.5t-13.5 130v825h213v-772q0 -68 19.5 -100.5t70.5 -32.5q24 0 49 10t48.5 25t45 33t39.5 35v802h213v-1085h-213v131q-20 -26 -49 -51.5t-65 -45.5t-77 -33t-85 -13zM610 1516h215l-211 -320h-143zM328 1516h213l-207 -320h-144
z" />
    <glyph glyph-name="Uogonek" unicode="&#x172;" horiz-adv-x="1012" 
d="M522 -393q-89 0 -129.5 45t-40.5 115q0 34 10 68.5t27 66.5t40.5 59.5t49.5 48.5h112q-21 -19 -39.5 -43.5t-32 -51.5t-21 -55t-7.5 -53q0 -43 18 -66.5t56 -23.5q37 0 66.5 14t58.5 36l57 -62q-46 -42 -101.5 -70t-123.5 -28zM508 -16q-114 0 -191.5 34t-125 98
t-68.5 155.5t-21 205.5v1039h222v-1014q0 -80 8.5 -141t30 -102t58 -62t91.5 -21q54 0 90 20.5t57.5 61t30 101t8.5 139.5v1018h211v-1035q0 -117 -20.5 -209.5t-67.5 -156.5t-123.5 -97.5t-189.5 -33.5z" />
    <glyph glyph-name="uogonek" unicode="&#x173;" horiz-adv-x="881" 
d="M297 -12q-51 0 -90 13.5t-65.5 45t-40 83.5t-13.5 130v825h213v-772q0 -68 19.5 -100.5t70.5 -32.5q24 0 49 10t48.5 25t45 33t39.5 35v802h213v-1085h-101q-15 -15 -29 -33q-18 -25 -31.5 -52t-21 -55t-7.5 -53q0 -43 17.5 -66.5t56.5 -23.5q37 0 65.5 14t57.5 36
l59 -62q-48 -42 -103.5 -70t-123.5 -28q-89 0 -129.5 45t-40.5 115q0 34 10.5 68.5t27.5 66.5t40 60q19 23 40 40v129q-20 -26 -49 -51.5t-65 -45.5t-77 -33t-85 -13z" />
    <glyph glyph-name="Wcircumflex" unicode="&#x174;" horiz-adv-x="1366" 
d="M610 1917h145l182 -326h-129l-129 156l-125 -156h-129zM33 1516h215l117 -752q7 -48 13 -90.5t12 -87.5t12 -97t12 -118h6q7 64 14 115.5t13.5 97t12.5 89t13 91.5l119 752h192l121 -750q8 -50 15 -94.5t13.5 -90t12.5 -96.5t12 -114h7q6 62 11.5 113t11.5 97t12.5 89
t13.5 90l116 756h193l-268 -1518h-193l-180 1141h-6l-184 -1141h-193z" />
    <glyph glyph-name="wcircumflex" unicode="&#x175;" horiz-adv-x="1118" 
d="M491 1516h145l182 -326h-129l-129 156l-125 -156h-129zM18 1085h201l92 -510q6 -30 10 -58t8 -57.5t8 -64t9 -78.5h6q6 43 11 78t9.5 66t9.5 60t11 61l92 503h177l94 -507q5 -32 9 -59.5t8.5 -57.5t9.5 -65t12 -81h6q6 47 10.5 81.5t9 63t8.5 54.5t9 57l92 514h170
l-215 -1087h-185l-137 756h-6l-139 -756h-185z" />
    <glyph glyph-name="Ycircumflex" unicode="&#x176;" horiz-adv-x="901" 
d="M338 565l-330 951h228l221 -701h6l219 701h211l-332 -951v-565h-223v565zM379 1917h145l182 -326h-129l-129 156l-125 -156h-129z" />
    <glyph glyph-name="ycircumflex" unicode="&#x177;" horiz-adv-x="799" 
d="M164 -412q-62 0 -103.5 8t-70.5 17l41 174q18 -6 44.5 -10t61.5 -4q28 0 48.5 8.5t35.5 26.5t26 45t21 65l25 92l-277 1075h220l118 -553q7 -34 13 -63t11 -60.5t10.5 -69t12.5 -87.5h7q7 48 12.5 85t11 69t11.5 61.5t14 62.5l121 555h204l-315 -1194q-20 -78 -44.5 -135
t-59.5 -94.5t-83.5 -55.5t-115.5 -18zM332 1516h145l182 -326h-129l-129 156l-125 -156h-129z" />
    <glyph glyph-name="Ydieresis" unicode="&#x178;" horiz-adv-x="901" 
d="M338 565l-330 951h228l221 -701h6l219 701h211l-332 -951v-565h-223v565zM516 1818h190v-219h-190v219zM208 1818h191v-219h-191v219z" />
    <glyph glyph-name="Zacute" unicode="&#x179;" horiz-adv-x="883" 
d="M471 1921h217l-203 -320h-151zM41 170l541 1147h-500v199h747v-177l-540 -1146h540v-193h-788v170z" />
    <glyph glyph-name="zacute" unicode="&#x17a;" horiz-adv-x="739" 
d="M400 1516h217l-203 -320h-151zM43 141l393 770h-358v174h600v-145l-395 -770h415v-170h-655v141z" />
    <glyph glyph-name="Zdotaccent" unicode="&#x17b;" horiz-adv-x="883" 
d="M41 170l541 1147h-500v199h747v-177l-540 -1146h540v-193h-788v170zM327 1820h230v-215h-230v215z" />
    <glyph glyph-name="zdotaccent" unicode="&#x17c;" horiz-adv-x="739" 
d="M43 141l393 770h-358v174h600v-145l-395 -770h415v-170h-655v141zM256 1415h230v-215h-230v215z" />
    <glyph glyph-name="Zcaron" unicode="&#x17d;" horiz-adv-x="883" 
d="M182 1923h131l127 -156l127 156h129l-184 -326h-145zM41 170l541 1147h-500v199h747v-177l-540 -1146h540v-193h-788v170z" />
    <glyph glyph-name="zcaron" unicode="&#x17e;" horiz-adv-x="739" 
d="M111 1518h131l127 -156l127 156h129l-184 -326h-145zM43 141l393 770h-358v174h600v-145l-395 -770h415v-170h-655v141z" />
    <glyph glyph-name="florin" unicode="&#x192;" horiz-adv-x="614" 
d="M-49 -412q-28 0 -55.5 1.5t-42.5 4.5l24 175q13 -4 29.5 -5.5t30.5 -1.5q55 0 84 26.5t38 94.5l109 803h-127l22 170h127l56 385q10 76 33.5 129t63.5 86.5t96 48.5t130 15q26 0 52.5 -2.5t40.5 -4.5l-27 -176q-13 2 -29 3t-33 1q-24 0 -43.5 -5t-34.5 -17.5t-25.5 -35
t-14.5 -56.5l-52 -371h158l-22 -170h-158l-115 -831q-10 -74 -32.5 -125t-60.5 -82.5t-92.5 -45.5t-129.5 -14z" />
    <glyph glyph-name="Scommaaccent" unicode="&#x218;" horiz-adv-x="936" 
d="M452 -301h-88v217h207v-199l-101 -235h-75zM477 -23q-101 0 -175 31.5t-126.5 88.5t-85.5 136.5t-51 176.5l205 39q26 -134 80.5 -205.5t154.5 -71.5q45 0 77.5 13t53.5 36t31 55t10 70q0 53 -24 100.5t-63.5 91.5t-90 87t-103 88t-103 94t-90 105t-63.5 120.5t-24 141.5
q0 84 27.5 151.5t77 115t119 72.5t153.5 25q87 0 151 -28t110.5 -79.5t77.5 -124t52 -161.5l-199 -51q-15 61 -33.5 107t-42 76.5t-54 46t-70.5 15.5q-71 0 -110.5 -38.5t-39.5 -112.5q0 -57 24 -106t63.5 -94t90 -87.5t103 -87t103 -92.5t90 -103t63.5 -119.5t24 -142.5
q0 -84 -28.5 -154t-80.5 -120t-124 -77.5t-160 -27.5z" />
    <glyph glyph-name="scommaaccent" unicode="&#x219;" horiz-adv-x="772" 
d="M370 -301h-88v217h207v-199l-101 -235h-75zM387 -20q-71 0 -127.5 19t-101 54t-79 84t-59.5 109l168 76q34 -84 81.5 -127t113.5 -43t101.5 31t35.5 85q0 37 -19.5 66t-51 53.5t-72.5 47.5t-83 48.5t-83 55.5t-72.5 69t-51 90t-19.5 117q0 72 28 126.5t72.5 91t100.5 55
t112 18.5q128 0 208 -63t130 -187l-170 -74q-25 72 -66 109t-98 37q-51 0 -82 -29t-31 -76q0 -39 19.5 -69t51.5 -55.5t72.5 -48.5t83 -48t83 -55t72.5 -68.5t51.5 -88.5t19.5 -116q0 -65 -23.5 -119t-67 -93t-106.5 -60.5t-141 -21.5z" />
    <glyph glyph-name="Tcommaaccent" unicode="&#x21a;" horiz-adv-x="864" 
d="M415 -301h-88v217h207v-199l-101 -235h-75zM319 1317h-286v199h796v-199h-284v-1317h-226v1317z" />
    <glyph glyph-name="tcommaaccent" unicode="&#x21b;" horiz-adv-x="598" 
d="M241 -301h-88v217h207v-199l-101 -235h-75zM412 -8q-69 0 -119.5 12t-82.5 40t-47.5 74.5t-15.5 114.5v678h-124v174h124v381h213v-381h191v-174h-191v-612q0 -40 5.5 -66.5t18.5 -42t34 -22t53 -6.5q22 0 44.5 3.5t33.5 8.5v-170q-17 -5 -55.5 -8.5t-81.5 -3.5z" />
    <glyph glyph-name="schwa" unicode="&#x259;" horiz-adv-x="823" 
d="M399 1102q84 0 152.5 -33.5t117 -102t75 -173.5t26.5 -248q0 -147 -27.5 -253t-76.5 -174.5t-116.5 -101t-148.5 -32.5q-93 0 -159 42.5t-107.5 118t-60.5 178t-19 222.5v61h510q-1 78 -11.5 139t-32 103.5t-53.5 65t-75 22.5q-35 0 -62 -13t-47.5 -37t-35.5 -57.5
t-27 -74.5l-166 55q42 143 128 218t216 75zM256 461q2 -147 37 -227t110 -80q35 0 63 16.5t48.5 53.5t33 95t15.5 142h-307z" />
    <glyph glyph-name="quoteleft" unicode="&#x2bb;" horiz-adv-x="449" 
d="M104 1251l117 265h103l-74 -250h94v-258h-240v243z" />
    <glyph glyph-name="quoteleft" unicode="&#x2018;" horiz-adv-x="449" 
d="M104 1251l117 265h103l-74 -250h94v-258h-240v243z" />
    <glyph glyph-name="circumflex" unicode="&#x2c6;" horiz-adv-x="797" 
d="M326 1516h145l182 -326h-129l-129 156l-125 -156h-129z" />
    <glyph glyph-name="caron" unicode="&#x2c7;" horiz-adv-x="797" 
d="M139 1518h131l127 -156l127 156h129l-184 -326h-145z" />
    <glyph glyph-name="breve" unicode="&#x2d8;" horiz-adv-x="772" 
d="M387 1186q-63 0 -107.5 23t-74 66.5t-44.5 106t-18 142.5h133q8 -100 33 -147.5t78 -47.5q51 0 76 47.5t35 147.5h131q-3 -80 -18 -142.5t-44 -106t-73.5 -66.5t-106.5 -23z" />
    <glyph glyph-name="dotaccent" unicode="&#x2d9;" horiz-adv-x="772" 
d="M272 1415h230v-215h-230v215z" />
    <glyph glyph-name="ring" unicode="&#x2da;" horiz-adv-x="786" 
d="M391 1157q-41 0 -74 17t-55.5 46.5t-34.5 69.5t-12 86t12 86t34.5 69.5t55.5 46.5t74 17q42 0 75 -17t56.5 -46.5t36 -69.5t12.5 -86t-12 -86t-35.5 -69.5t-57 -46.5t-75.5 -17zM391 1260q18 0 30 10t19.5 26t11 36.5t3.5 41.5t-3.5 41t-11 35.5t-19.5 25t-30 9.5
q-17 0 -28.5 -9.5t-18 -25t-9.5 -35.5t-3 -41t3 -41.5t9.5 -36.5t18 -26t28.5 -10z" />
    <glyph glyph-name="ogonek" unicode="&#x2db;" horiz-adv-x="772" 
d="M373 -393q-89 0 -129.5 45t-40.5 115q0 34 10 68.5t27 66.5t40.5 59.5t49.5 48.5h112q-21 -19 -39.5 -43.5t-32 -51.5t-21 -55t-7.5 -53q0 -43 18 -66.5t56 -23.5q37 0 66.5 14t58.5 36l57 -62q-46 -42 -101.5 -70t-123.5 -28z" />
    <glyph glyph-name="tilde" unicode="&#x2dc;" horiz-adv-x="782" 
d="M102 1180q0 149 44.5 215.5t125.5 66.5q40 0 73 -18t61 -39t53 -39t49 -18q28 0 42.5 23.5t14.5 86.5h117q0 -149 -44 -215.5t-126 -66.5q-40 0 -73 18t-61.5 39t-53.5 39t-48 18q-29 0 -43 -24t-14 -86h-117z" />
    <glyph glyph-name="hungarumlaut" unicode="&#x2dd;" horiz-adv-x="784" 
d="M563 1516h215l-211 -320h-143zM281 1516h213l-207 -320h-144z" />
    <glyph glyph-name="Delta" unicode="&#x394;" horiz-adv-x="961" 
d="M371 1522h219l343 -1522h-906zM676 175l-127 644q-22 101 -40 193.5t-33 191.5h-4q-15 -99 -33.5 -191.5t-40.5 -193.5l-128 -644h406z" />
    <glyph glyph-name="Delta" unicode="&#x2206;" horiz-adv-x="961" 
d="M371 1522h219l343 -1522h-906zM676 175l-127 644q-22 101 -40 193.5t-33 191.5h-4q-15 -99 -33.5 -191.5t-40.5 -193.5l-128 -644h406z" />
    <glyph glyph-name="Omega" unicode="&#x3a9;" horiz-adv-x="1087" 
d="M545 1537q105 0 189.5 -46t144 -135.5t91.5 -221.5t32 -304q0 -118 -21.5 -217.5t-54 -179.5t-69.5 -141.5t-68 -102.5h208v-189h-386v170q28 41 58 96t54.5 131t40 176.5t15.5 231.5q0 268 -58.5 400t-176.5 132q-57 0 -101 -31t-73.5 -95.5t-45 -165t-15.5 -239.5
q0 -132 16 -232.5t40.5 -177t54 -131.5t57.5 -95v-170h-385v189h208q-32 40 -70 101t-70 141.5t-53.5 180.5t-21.5 218q0 173 33 305t93 221.5t145 135t189 45.5z" />
    <glyph glyph-name="Omega" unicode="&#x2126;" horiz-adv-x="1087" 
d="M545 1537q105 0 189.5 -46t144 -135.5t91.5 -221.5t32 -304q0 -118 -21.5 -217.5t-54 -179.5t-69.5 -141.5t-68 -102.5h208v-189h-386v170q28 41 58 96t54.5 131t40 176.5t15.5 231.5q0 268 -58.5 400t-176.5 132q-57 0 -101 -31t-73.5 -95.5t-45 -165t-15.5 -239.5
q0 -132 16 -232.5t40.5 -177t54 -131.5t57.5 -95v-170h-385v189h208q-32 40 -70 101t-70 141.5t-53.5 180.5t-21.5 218q0 173 33 305t93 221.5t145 135t189 45.5z" />
    <glyph glyph-name="pi" unicode="&#x3c0;" horiz-adv-x="1009" 
d="M19 1086h970v-172h-126v-914h-221v916h-274v-916h-223v914h-126v172z" />
    <glyph glyph-name="Wgrave" unicode="&#x1e80;" horiz-adv-x="1366" 
d="M33 1516h215l117 -752q7 -48 13 -90.5t12 -87.5t12 -97t12 -118h6q7 64 14 115.5t13.5 97t12.5 89t13 91.5l119 752h192l121 -750q8 -50 15 -94.5t13.5 -90t12.5 -96.5t12 -114h7q6 62 11.5 113t11.5 97t12.5 89t13.5 90l116 756h193l-268 -1518h-193l-180 1141h-6
l-184 -1141h-193zM405 1917h217l136 -320h-150z" />
    <glyph glyph-name="wgrave" unicode="&#x1e81;" horiz-adv-x="1118" 
d="M18 1085h201l92 -510q6 -30 10 -58t8 -57.5t8 -64t9 -78.5h6q6 43 11 78t9.5 66t9.5 60t11 61l92 503h177l94 -507q5 -32 9 -59.5t8.5 -57.5t9.5 -65t12 -81h6q6 47 10.5 81.5t9 63t8.5 54.5t9 57l92 514h170l-215 -1087h-185l-137 756h-6l-139 -756h-185zM288 1516h217
l136 -320h-150z" />
    <glyph glyph-name="Wacute" unicode="&#x1e82;" horiz-adv-x="1366" 
d="M751 1917h217l-203 -320h-151zM33 1516h215l117 -752q7 -48 13 -90.5t12 -87.5t12 -97t12 -118h6q7 64 14 115.5t13.5 97t12.5 89t13 91.5l119 752h192l121 -750q8 -50 15 -94.5t13.5 -90t12.5 -96.5t12 -114h7q6 62 11.5 113t11.5 97t12.5 89t13.5 90l116 756h193
l-268 -1518h-193l-180 1141h-6l-184 -1141h-193z" />
    <glyph glyph-name="wacute" unicode="&#x1e83;" horiz-adv-x="1118" 
d="M639 1516h217l-203 -320h-151zM18 1085h201l92 -510q6 -30 10 -58t8 -57.5t8 -64t9 -78.5h6q6 43 11 78t9.5 66t9.5 60t11 61l92 503h177l94 -507q5 -32 9 -59.5t8.5 -57.5t9.5 -65t12 -81h6q6 47 10.5 81.5t9 63t8.5 54.5t9 57l92 514h170l-215 -1087h-185l-137 756h-6
l-139 -756h-185z" />
    <glyph glyph-name="Wdieresis" unicode="&#x1e84;" horiz-adv-x="1366" 
d="M741 1814h190v-219h-190v219zM433 1814h191v-219h-191v219zM33 1516h215l117 -752q7 -48 13 -90.5t12 -87.5t12 -97t12 -118h6q7 64 14 115.5t13.5 97t12.5 89t13 91.5l119 752h192l121 -750q8 -50 15 -94.5t13.5 -90t12.5 -96.5t12 -114h7q6 62 11.5 113t11.5 97
t12.5 89t13.5 90l116 756h193l-268 -1518h-193l-180 1141h-6l-184 -1141h-193z" />
    <glyph glyph-name="wdieresis" unicode="&#x1e85;" horiz-adv-x="1118" 
d="M618 1413h190v-219h-190v219zM310 1413h191v-219h-191v219zM18 1085h201l92 -510q6 -30 10 -58t8 -57.5t8 -64t9 -78.5h6q6 43 11 78t9.5 66t9.5 60t11 61l92 503h177l94 -507q5 -32 9 -59.5t8.5 -57.5t9.5 -65t12 -81h6q6 47 10.5 81.5t9 63t8.5 54.5t9 57l92 514h170
l-215 -1087h-185l-137 756h-6l-139 -756h-185z" />
    <glyph glyph-name="Ygrave" unicode="&#x1ef2;" horiz-adv-x="901" 
d="M338 565l-330 951h228l221 -701h6l219 701h211l-332 -951v-565h-223v565zM196 1917h217l136 -320h-150z" />
    <glyph glyph-name="ygrave" unicode="&#x1ef3;" horiz-adv-x="799" 
d="M164 -412q-62 0 -103.5 8t-70.5 17l41 174q18 -6 44.5 -10t61.5 -4q28 0 48.5 8.5t35.5 26.5t26 45t21 65l25 92l-277 1075h220l118 -553q7 -34 13 -63t11 -60.5t10.5 -69t12.5 -87.5h7q7 48 12.5 85t11 69t11.5 61.5t14 62.5l121 555h204l-315 -1194q-20 -78 -44.5 -135
t-59.5 -94.5t-83.5 -55.5t-115.5 -18zM141 1516h217l136 -320h-150z" />
    <glyph glyph-name="space.en" unicode="&#x2002;" horiz-adv-x="1024" 
 />
    <glyph glyph-name="space.em" unicode="&#x2003;" horiz-adv-x="2048" 
 />
    <glyph glyph-name="space.tab_en" unicode="&#x2007;" 
 />
    <glyph glyph-name="space.thin" unicode="&#x2009;" horiz-adv-x="410" 
 />
    <glyph glyph-name="endash.tab" unicode="&#x2012;" 
d="M102 731h785v-188h-785v188z" />
    <glyph glyph-name="endash" unicode="&#x2013;" horiz-adv-x="932" 
d="M74 731h784v-188h-784v188z" />
    <glyph glyph-name="emdash" unicode="&#x2014;" horiz-adv-x="1208" 
d="M74 731h1061v-188h-1061v188z" />
    <glyph glyph-name="emdash.salt_em" unicode="&#x2015;" horiz-adv-x="2048" 
d="M0 731h2048v-186h-2048v186z" />
    <glyph glyph-name="quoteright" unicode="&#x2019;" horiz-adv-x="449" 
d="M201 1257h-99v259h242v-242l-115 -266h-102z" />
    <glyph glyph-name="quotesinglbase" unicode="&#x201a;" horiz-adv-x="449" 
d="M201 0h-99v258h242v-242l-115 -266h-102z" />
    <glyph glyph-name="quotedblleft" unicode="&#x201c;" horiz-adv-x="801" 
d="M459 1251l114 265h101l-74 -250h96v-258h-237v243zM104 1251l115 265h100l-73 -250h94v-258h-236v243z" />
    <glyph glyph-name="quotedblright" unicode="&#x201d;" horiz-adv-x="799" 
d="M553 1257h-94v259h237v-242l-114 -266h-101zM199 1257h-97v259h240v-242l-115 -266h-100z" />
    <glyph glyph-name="quotedblbase" unicode="&#x201e;" horiz-adv-x="799" 
d="M553 0h-94v258h237v-242l-114 -266h-101zM199 0h-97v258h240v-242l-115 -266h-100z" />
    <glyph glyph-name="dagger" unicode="&#x2020;" horiz-adv-x="864" 
d="M352 821l-295 -20v198l295 -24l-33 541h224l-31 -541l293 24v-198l-293 20l31 -1231h-224z" />
    <glyph glyph-name="daggerdbl" unicode="&#x2021;" horiz-adv-x="860" 
d="M350 51l-280 -24v194l280 -22l-26 358l26 350l-280 -20v194l280 -24l-31 459h224l-33 -459l283 24v-194l-283 20l27 -350l-27 -358l283 22v-194l-283 24l33 -461h-224z" />
    <glyph glyph-name="bullet" unicode="&#x2022;" horiz-adv-x="948" 
d="M473 475q-52 0 -96.5 18.5t-76.5 50.5t-50.5 76.5t-18.5 96.5q0 53 18.5 97.5t50.5 77t76.5 51t96.5 18.5q53 0 97.5 -18.5t77 -51t51 -77t18.5 -97.5q0 -52 -18.5 -96.5t-51 -76.5t-77 -50.5t-97.5 -18.5z" />
    <glyph glyph-name="ellipsis" unicode="&#x2026;" horiz-adv-x="1380" 
d="M1028 258h246v-258h-246v258zM567 258h246v-258h-246v258zM104 258h248v-258h-248v258z" />
    <glyph glyph-name="perthousand" unicode="&#x2030;" horiz-adv-x="2173" 
d="M346 643q-78 0 -132.5 33t-88.5 91.5t-49 139.5t-15 178q0 102 16.5 184.5t51.5 141.5t89.5 91t129.5 32t128.5 -31.5t87.5 -90t49.5 -140.5t15.5 -182q0 -95 -15 -177t-49 -142t-87.5 -94t-131.5 -34zM991 1516h185l-633 -1516h-187zM1825 -16q-78 0 -131.5 33
t-87.5 91.5t-49 139.5t-15 176q0 102 16.5 185t51.5 142t88.5 91t128.5 32t128.5 -31.5t87.5 -89.5t50 -139.5t16 -181.5q0 -96 -15.5 -178t-49 -142t-87.5 -94t-132 -34zM1186 -16q-78 0 -131.5 33t-87.5 91.5t-49 139.5t-15 176q0 102 16 185t50.5 142t88 91t128.5 32
q76 0 129.5 -31.5t87.5 -89.5t49.5 -139.5t15.5 -181.5q0 -96 -15 -178t-49 -142t-87.5 -94t-130.5 -34zM346 795q28 0 47 20t29.5 57.5t15 92t4.5 122.5q0 146 -20.5 218.5t-77.5 72.5q-29 0 -47.5 -19t-29 -55.5t-15 -90t-4.5 -121.5q0 -147 20.5 -222t77.5 -75zM1827 135
q28 0 47 20t29.5 58t15 92.5t4.5 122.5q0 149 -20.5 220t-77.5 71q-29 0 -47.5 -19.5t-29 -56t-15 -90t-4.5 -121.5q0 -148 20.5 -222.5t77.5 -74.5zM1186 135q28 0 47 20t30.5 58t16 92.5t4.5 122.5q0 150 -21.5 220.5t-78.5 70.5q-29 0 -47.5 -19.5t-29.5 -56t-15.5 -90
t-4.5 -121.5q0 -148 21 -222.5t78 -74.5z" />
    <glyph glyph-name="minute" unicode="&#x2032;" horiz-adv-x="385" 
d="M121 1411l18 105h199l-117 -527h-149z" />
    <glyph glyph-name="second" unicode="&#x2033;" horiz-adv-x="692" 
d="M432 1411l19 105h192l-115 -527h-147zM121 1411l18 105h195l-117 -527h-145z" />
    <glyph glyph-name="guilsinglleft" unicode="&#x2039;" horiz-adv-x="489" 
d="M33 541l203 538h200l-198 -538l198 -541h-200z" />
    <glyph glyph-name="guilsinglright" unicode="&#x203a;" horiz-adv-x="489" 
d="M250 541l-197 538h201l203 -538l-203 -541h-201z" />
    <glyph glyph-name="fraction" unicode="&#x2044;" horiz-adv-x="729" 
d="M543 1516h196l-563 -1516h-196z" />
    <glyph glyph-name="fraction" unicode="&#x2215;" horiz-adv-x="729" 
d="M543 1516h196l-563 -1516h-196z" />
    <glyph glyph-name="zero.sups" unicode="&#x2070;" horiz-adv-x="764" 
d="M383 565q-66 0 -118.5 26t-89 83.5t-56 148.5t-19.5 221q0 129 19.5 220.5t56 149.5t89 85t118.5 27q67 0 119.5 -27t89 -85t55.5 -149.5t19 -220.5q0 -130 -19 -221t-55.5 -148.5t-89 -83.5t-119.5 -26zM383 700q63 0 88 82.5t25 261.5q0 90 -6 154.5t-19 105.5
t-35 60.5t-53 19.5q-32 0 -53.5 -19.5t-34.5 -60.5t-19 -105.5t-6 -154.5q0 -179 25.5 -261.5t87.5 -82.5z" />
    <glyph glyph-name="four.sups" unicode="&#x2074;" horiz-adv-x="709" 
d="M375 774h-307v119l294 623h168v-607h101v-135h-101v-201h-155v201zM377 909v365l-168 -365h168z" />
    <glyph glyph-name="five.sups" unicode="&#x2075;" horiz-adv-x="717" 
d="M352 561q-68 0 -113 16.5t-74.5 46.5t-46 72.5t-28.5 94.5l150 30q9 -35 18 -59t21.5 -40t29.5 -23t41 -7q31 0 50.5 15t30.5 41.5t14.5 61.5t3.5 75q0 90 -20 137t-71 47q-41 0 -62 -20t-38 -58l-139 19l24 506h443l-11 -142h-292l-11 -231q19 25 50.5 44t87.5 19
q48 0 86.5 -17t65.5 -55t41.5 -98t14.5 -147q0 -86 -18 -148t-52 -102t-83.5 -59t-112.5 -19z" />
    <glyph glyph-name="six.sups" unicode="&#x2076;" horiz-adv-x="725" 
d="M371 561q-63 0 -113 27t-85.5 83.5t-54 144.5t-18.5 210q0 119 14 211.5t47 156.5t87 97t135 33q53 0 91.5 -15.5t66 -41t44.5 -59.5t27 -71l-143 -45q-14 47 -35 73t-59 26q-32 0 -53 -18t-34 -53.5t-18 -89t-6 -124.5q32 32 70.5 53t89.5 21q56 0 95.5 -22t64 -61.5
t36 -93.5t11.5 -118q0 -72 -15.5 -131.5t-47 -102t-81 -66.5t-116.5 -24zM375 696q96 0 96 178q0 79 -18 123.5t-72 44.5q-31 0 -61.5 -16.5t-53.5 -48.5q3 -145 29.5 -213t79.5 -68z" />
    <glyph glyph-name="seven.sups" unicode="&#x2077;" horiz-adv-x="625" 
d="M387 1374h-309v142h475v-134l-262 -809h-166z" />
    <glyph glyph-name="eight.sups" unicode="&#x2078;" horiz-adv-x="719" 
d="M360 557q-70 0 -121 19.5t-84.5 52.5t-50 77t-16.5 93q0 48 13.5 87t36 71.5t51 59t59.5 48.5q-26 21 -49.5 43t-41 49.5t-28 63t-10.5 82.5q0 48 15.5 90t46 73.5t75.5 49.5t104 18q61 0 106 -18t75 -49.5t44.5 -73.5t14.5 -90q0 -77 -37.5 -135t-91.5 -99
q31 -22 60 -46.5t51.5 -55.5t35.5 -71.5t13 -94.5q0 -51 -17.5 -95.5t-51.5 -77.5t-85 -52t-117 -19zM358 684q56 0 84.5 34t28.5 93q0 28 -9.5 52t-25 45t-37 40.5t-45.5 38.5q-21 -17 -40.5 -36t-34.5 -41t-24 -47.5t-9 -55.5q0 -54 28.5 -88.5t83.5 -34.5zM367 1141
q35 31 60.5 67t25.5 84q0 23 -5.5 43.5t-16.5 35.5t-28.5 23.5t-42.5 8.5q-46 0 -67 -31t-21 -76q0 -27 7.5 -48.5t20.5 -40t30 -35t37 -31.5z" />
    <glyph glyph-name="nine.sups" unicode="&#x2079;" horiz-adv-x="725" 
d="M342 561q-52 0 -90.5 15.5t-66 41.5t-45 60t-27.5 70l145 45q14 -45 33 -73t59 -28q33 0 54 18.5t33.5 54.5t17.5 89.5t6 124.5q-31 -31 -69 -51.5t-91 -20.5q-55 0 -94.5 22t-64.5 61.5t-36.5 93.5t-11.5 118q0 72 15.5 131t47.5 101.5t81 66t116 23.5q63 0 113.5 -27
t86 -83.5t54.5 -144.5t19 -210q0 -119 -14.5 -211.5t-47.5 -156t-87.5 -97t-135.5 -33.5zM346 1040q64 0 115 66q-3 145 -29.5 212.5t-79.5 67.5q-51 0 -73.5 -44t-22.5 -134q0 -39 3.5 -70t13.5 -53t27.5 -33.5t45.5 -11.5z" />
    <glyph glyph-name="zero.sinf" unicode="&#x2080;" horiz-adv-x="764" 
d="M383 -422q-66 0 -118.5 26t-89 83.5t-56 148.5t-19.5 221q0 129 19.5 220.5t56 149.5t89 85t118.5 27q67 0 119.5 -27t89 -85t55.5 -149.5t19 -220.5q0 -130 -19 -221t-55.5 -148.5t-89 -83.5t-119.5 -26zM383 -287q63 0 88 82.5t25 261.5q0 90 -6 154.5t-19 105.5
t-35 60.5t-53 19.5q-32 0 -53.5 -19.5t-34.5 -60.5t-19 -105.5t-6 -154.5q0 -179 25.5 -261.5t87.5 -82.5z" />
    <glyph glyph-name="one.sinf" unicode="&#x2081;" horiz-adv-x="539" 
d="M84 -266h119v612q-25 -12 -55.5 -19t-61.5 -7v149q85 3 127 60h158v-795h106v-141h-393v141z" />
    <glyph glyph-name="two.sinf" unicode="&#x2082;" horiz-adv-x="676" 
d="M80 -381q0 79 14.5 139t38 106t53.5 81.5t61.5 66t62 59t54 60t38 70t14.5 88.5q0 53 -19 80.5t-59 27.5q-20 0 -35 -7t-27 -23.5t-21.5 -44.5t-16.5 -70l-152 25q22 127 84 194.5t180 67.5q115 0 173.5 -64.5t58.5 -179.5q0 -73 -22.5 -128.5t-56.5 -101t-74.5 -84
t-76.5 -76.5t-61.5 -79t-30.5 -92h322v-141h-502v26z" />
    <glyph glyph-name="three.sinf" unicode="&#x2083;" horiz-adv-x="674" 
d="M326 -422q-63 0 -107.5 16t-75 46.5t-50.5 75t-34 100.5l152 28q17 -72 43 -101.5t70 -29.5q55 0 75.5 40t20.5 114q0 41 -8.5 69.5t-29 46.5t-53.5 26t-81 8h-39v131h49q45 0 74.5 6.5t46 22.5t23 41.5t6.5 64.5q0 27 -3.5 49t-12.5 37.5t-24.5 24t-39.5 8.5
q-42 0 -64.5 -31t-38.5 -80l-143 41q28 95 90.5 151t163.5 56q63 0 107.5 -17t72 -47.5t40.5 -73t13 -94.5q0 -169 -114 -215q67 -26 98 -84t31 -164q0 -59 -15.5 -108t-47.5 -84t-80.5 -54.5t-114.5 -19.5z" />
    <glyph glyph-name="four.sinf" unicode="&#x2084;" horiz-adv-x="709" 
d="M375 -213h-307v119l294 623h168v-607h101v-135h-101v-201h-155v201zM377 -78v365l-168 -365h168z" />
    <glyph glyph-name="five.sinf" unicode="&#x2085;" horiz-adv-x="717" 
d="M352 -426q-68 0 -113 16.5t-74.5 46.5t-46 72.5t-28.5 94.5l150 30q9 -35 18 -59t21.5 -40t29.5 -23t41 -7q31 0 50.5 15t30.5 41.5t14.5 61.5t3.5 75q0 90 -20 137t-71 47q-41 0 -62 -20t-38 -58l-139 19l24 506h443l-11 -142h-292l-11 -231q19 25 50.5 44t87.5 19
q48 0 86.5 -17t65.5 -55t41.5 -98t14.5 -147q0 -86 -18 -148t-52 -102t-83.5 -59t-112.5 -19z" />
    <glyph glyph-name="six.sinf" unicode="&#x2086;" horiz-adv-x="725" 
d="M371 -426q-63 0 -113 27t-85.5 83.5t-54 144.5t-18.5 210q0 119 14 211.5t47 156.5t87 97t135 33q53 0 91.5 -15.5t66 -41t44.5 -59.5t27 -71l-143 -45q-14 47 -35 73t-59 26q-32 0 -53 -18t-34 -53.5t-18 -89t-6 -124.5q32 32 70.5 53t89.5 21q56 0 95.5 -22t64 -61.5
t36 -93.5t11.5 -118q0 -72 -15.5 -131.5t-47 -102t-81 -66.5t-116.5 -24zM375 -291q96 0 96 178q0 79 -18 123.5t-72 44.5q-31 0 -61.5 -16.5t-53.5 -48.5q3 -145 29.5 -213t79.5 -68z" />
    <glyph glyph-name="seven.sinf" unicode="&#x2087;" horiz-adv-x="625" 
d="M387 387h-309v142h475v-134l-262 -809h-166z" />
    <glyph glyph-name="eight.sinf" unicode="&#x2088;" horiz-adv-x="719" 
d="M360 -430q-70 0 -121 19.5t-84.5 52.5t-50 77t-16.5 93q0 48 13.5 87t36 71.5t51 59t59.5 48.5q-26 21 -49.5 43t-41 49.5t-28 63t-10.5 82.5q0 48 15.5 90t46 73.5t75.5 49.5t104 18q61 0 106 -18t75 -49.5t44.5 -73.5t14.5 -90q0 -77 -37.5 -135t-91.5 -99
q31 -22 60 -46.5t51.5 -55.5t35.5 -71.5t13 -94.5q0 -51 -17.5 -95.5t-51.5 -77.5t-85 -52t-117 -19zM358 -303q56 0 84.5 34t28.5 93q0 28 -9.5 52t-25 45t-37 40.5t-45.5 38.5q-21 -17 -40.5 -36t-34.5 -41t-24 -47.5t-9 -55.5q0 -54 28.5 -88.5t83.5 -34.5zM367 154
q35 31 60.5 67t25.5 84q0 23 -5.5 43.5t-16.5 35.5t-28.5 23.5t-42.5 8.5q-46 0 -67 -31t-21 -76q0 -27 7.5 -48.5t20.5 -40t30 -35t37 -31.5z" />
    <glyph glyph-name="nine.sinf" unicode="&#x2089;" horiz-adv-x="725" 
d="M342 -426q-52 0 -90.5 15.5t-66 41.5t-45 60t-27.5 70l145 45q14 -45 33 -73t59 -28q33 0 54 18.5t33.5 54.5t17.5 89.5t6 124.5q-31 -31 -69 -51.5t-91 -20.5q-55 0 -94.5 22t-64.5 61.5t-36.5 93.5t-11.5 118q0 72 15.5 131t47.5 101.5t81 66t116 23.5q63 0 113.5 -27
t86 -83.5t54.5 -144.5t19 -210q0 -119 -14.5 -211.5t-47.5 -156t-87.5 -97t-135.5 -33.5zM346 53q64 0 115 66q-3 145 -29.5 212.5t-79.5 67.5q-51 0 -73.5 -44t-22.5 -134q0 -39 3.5 -70t13.5 -53t27.5 -33.5t45.5 -11.5z" />
    <glyph glyph-name="Euro" unicode="&#x20ac;" horiz-adv-x="1014" 
d="M565 -18q-84 0 -153.5 27t-122 91t-86.5 168.5t-49 259.5h-134v160h123v133h-123v160h134q16 166 55 273t93.5 169t121.5 86.5t139 24.5q87 0 152 -27t111 -82.5t74.5 -141t41.5 -202.5l-197 -20q-9 73 -22 125.5t-33.5 87t-50.5 51t-72 16.5q-41 0 -74.5 -16.5
t-59 -57.5t-42.5 -110.5t-24 -175.5h292v-160h-299q-2 -15 -2 -29.5v-29.5v-37t2 -37h299v-160h-292q8 -111 25.5 -181.5t43 -110t58.5 -54t71 -14.5q49 0 82 16.5t55 51.5t35.5 91t22.5 134l196 -19q-10 -91 -31.5 -174.5t-65.5 -147t-115 -101t-179 -37.5z" />
    <glyph glyph-name="uni2117" unicode="&#x2117;" horiz-adv-x="1165" 
d="M582 -29q-119 0 -217 60.5t-168 166.5t-108 249.5t-38 308.5q0 110 17.5 211t50.5 188.5t80 159.5t106.5 122.5t129.5 78.5t149 28q119 0 216.5 -60.5t167.5 -166.5t108 -249t38 -308q0 -110 -17.5 -211.5t-50.5 -189t-80 -159.5t-106 -122.5t-129 -78.5t-149 -28z
M584 76q94 0 171 52.5t131 144t83.5 215.5t29.5 268t-29.5 268.5t-84.5 217t-132 145.5t-171 53t-170.5 -52.5t-131 -144t-84.5 -215.5t-30 -268t30 -268.5t85 -217t132 -145.5t171 -53zM385 1188h213q54 0 98 -14.5t74.5 -46t47 -81.5t16.5 -120q0 -77 -18 -128.5t-50 -83
t-76.5 -44.5t-97.5 -13h-68v-321h-139v852zM596 786q25 0 44.5 6.5t32 22t19 42t6.5 65.5q0 75 -25.5 103t-76.5 28h-72v-267h72z" />
    <glyph glyph-name="trademark" unicode="&#x2122;" horiz-adv-x="1294" 
d="M578 1516h188l129 -639l131 639h186v-885h-141v577l-119 -577h-123l-118 577v-577h-133v885zM199 1366h-162v150h471v-150h-160v-735h-149v735z" />
    <glyph glyph-name="estimated" unicode="&#x212e;" horiz-adv-x="1427" 
d="M356 651v-450q146 -146 357 -146q92 0 163.5 22t129 62t104 94t88.5 119l76 -47q-47 -73 -101 -133.5t-121.5 -104t-150.5 -68t-188 -24.5q-144 0 -261.5 54t-200.5 147t-128 216t-45 261q0 141 44 264.5t126.5 215.5t201.5 145t269 53t268.5 -54t200.5 -147t126 -216.5
t46 -262.5h-1004zM1075 1106q-34 31 -75 58t-86.5 46t-95.5 30t-101 11q-105 0 -196.5 -36.5t-164.5 -108.5v-373h719v373z" />
    <glyph glyph-name="partialdiff" unicode="&#x2202;" horiz-adv-x="836" 
d="M337 -16q-84 0 -146 29t-103 83t-61 130t-20 170q0 74 12 157q19 132 58 230.5t92.5 163.5t119.5 97t140 32q87 0 135.5 -41.5t65.5 -109.5q-1 43 -12.5 106.5t-37.5 133t-68 137.5t-102 122l129 120q15 -14 39.5 -39t52.5 -62.5t56.5 -89.5t51.5 -120t37.5 -153.5
t14.5 -190.5q0 -67 -6 -141.5t-17 -155.5q-23 -168 -62.5 -284t-94 -188t-123.5 -104t-151 -32zM337 151q42 0 74.5 23.5t57 69.5t42 114.5t30.5 158.5q8 56 12 103.5t4 89.5q0 94 -26.5 151t-88.5 57q-39 0 -71.5 -21.5t-59 -67t-46 -117t-33.5 -171.5q-7 -50 -11 -94
t-4 -82q0 -48 6.5 -87.5t21 -67.5t37 -43.5t55.5 -15.5z" />
    <glyph glyph-name="product" unicode="&#x220f;" horiz-adv-x="1045" 
d="M111 1516h823v-1926h-224v1734h-375v-1734h-224v1926z" />
    <glyph glyph-name="summation" unicode="&#x2211;" horiz-adv-x="839" 
d="M295 -221h489v-189h-736v165l295 826l-269 767v168h703v-195h-459l257 -740z" />
    <glyph glyph-name="minus" unicode="&#x2212;" horiz-adv-x="952" 
d="M80 770h792v-188h-792v188z" />
    <glyph glyph-name="radical" unicode="&#x221a;" horiz-adv-x="1010" 
d="M396 -5l-213 904h-125v186h296q45 -216 81 -390q15 -74 30 -146.5t26.5 -131t19 -97.5t8.5 -47h4q1 5 6.5 33t15 73.5t22 105t27.5 128.5t31.5 144.5t33.5 151.5q59 268 134 605h198l-355 -1519h-240z" />
    <glyph glyph-name="infinity" unicode="&#x221e;" horiz-adv-x="1147" 
d="M309 350q-57 0 -106 22t-85 69t-56.5 120t-20.5 174t20.5 174t56.5 120.5t85 70t106 22.5q79 0 144 -55.5t116 -157.5q51 102 117 157.5t143 55.5q61 0 112 -22.5t88 -70t57 -120.5t20 -174t-20 -174t-57 -120t-88 -69t-112 -22q-77 0 -143 58t-117 161
q-51 -103 -116 -161t-144 -58zM326 526q30 0 55 17.5t46 47t39 67t34 77.5q-16 40 -34 78.5t-39 68.5t-46 48t-55 18q-59 0 -85 -56.5t-26 -156.5q0 -99 26 -154t85 -55zM815 526q59 0 89 55t30 154q0 100 -30 156.5t-89 56.5q-31 0 -56 -18t-46 -47.5t-38.5 -67.5
t-33.5 -78q16 -40 33.5 -78t38.5 -67.5t46 -47.5t56 -18z" />
    <glyph glyph-name="integral" unicode="&#x222b;" horiz-adv-x="550" 
d="M154 1239q0 66 14.5 117.5t48.5 87.5t88 54.5t134 18.5h22t29.5 -0.5t26 -1t13.5 -1.5v-173q-2 0 -9 0.5t-16 1t-17 0.5h-11q-51 0 -81 -24t-30 -90v-1376q0 -64 -12.5 -113.5t-42 -83t-79 -50.5t-124.5 -17q-6 0 -18.5 0.5t-26 1t-25 1t-13.5 1.5v170q5 -2 20 -2.5
t23 -0.5q46 0 66 23.5t20 82.5v1373z" />
    <glyph glyph-name="approxequal" unicode="&#x2248;" horiz-adv-x="1010" 
d="M705 328q-56 0 -113 20t-109.5 44.5t-98 45t-77.5 21.5q-32 0 -55 -16.5t-33 -69.5l-143 18q7 65 26.5 114t49 82t67.5 49.5t80 16.5q53 -1 108 -21.5t106.5 -45t97 -44.5t79.5 -20q15 -1 28.5 2t24.5 12t18.5 25.5t12.5 42.5l148 -16q-7 -66 -26 -115t-47 -81.5
t-64.5 -48.5t-79.5 -15zM713 725q-36 0 -74 9.5t-75 24.5t-72 32t-67.5 31.5t-61 24.5t-50.5 11q-15 0 -28 -3.5t-23.5 -13t-18.5 -26.5t-14 -45l-145 21q7 65 27 114t49.5 82t67 49.5t79.5 16.5q53 -1 108 -21.5t107 -45t97 -45t79 -21.5q16 0 29.5 3.5t24 12.5t18 25.5
t12.5 42.5l150 -19q-7 -65 -26 -114t-47.5 -82t-65.5 -49t-80 -15z" />
    <glyph glyph-name="notequal" unicode="&#x2260;" horiz-adv-x="944" 
d="M293 375h-217v172h268l78 239h-346v175h397l115 368h182l-117 -368h213v-175h-260l-82 -239h342v-172h-391l-115 -377h-182z" />
    <glyph glyph-name="lessequal" unicode="&#x2264;" horiz-adv-x="999" 
d="M115 707v157l733 355v-201l-508 -232l508 -229v-201zM94 293h787v-176h-787v176z" />
    <glyph glyph-name="greaterequal" unicode="&#x2265;" horiz-adv-x="997" 
d="M164 557l510 229l-510 232v201l735 -355v-157l-735 -351v201zM119 293h786v-176h-786v176z" />
    <glyph glyph-name="lozenge" unicode="&#x25ca;" horiz-adv-x="989" 
d="M66 758l340 758h171l349 -758l-340 -758h-180zM709 756l-216 482l-211 -480l214 -488z" />
    <glyph glyph-name="uni2713" unicode="&#x2713;" horiz-adv-x="887" 
d="M18 1085h213q45 -216 81 -390q15 -74 30 -146.5t27 -131t19.5 -97.5t8.5 -46h4q0 5 6 33t15.5 73t22 104.5t27.5 128.5t31.5 144.5t33.5 151.5q59 268 133 604h198l-354 -1517h-242z" />
    <glyph glyph-name="commaaccent" unicode="&#xf6c3;" horiz-adv-x="453" 
d="M211 -301h-88v217h207v-199l-101 -235h-75z" />
    <glyph glyph-name="apple" unicode="&#xf8ff;" horiz-adv-x="1597" 
d="M702 274l-335 -22v72h-74l22 338l-274 -17v223l274 -14l-22 336h74v74l335 -23l-14 275h223l-16 -275l338 23v-74h72l-23 -336l274 14v-223l-274 17l23 -338h-72v-72l-338 22l16 -274h-223zM1139 854l-15 229l-229 15v-244h244zM702 854v244l-227 -15l-16 -229h243z
M1124 432l15 230h-244v-244zM702 662h-243l14 -230l229 -14v244z" />
    <glyph glyph-name="A.sc" horiz-adv-x="860" 
d="M526 444l-69 340q-11 53 -17.5 94t-11.5 70h-4q-5 -29 -11.5 -70t-17.5 -92l-71 -342h202zM328 1214h207l292 -1214h-206l-66 307h-260l-68 -307h-196z" />
    <glyph glyph-name="Agrave.sc" horiz-adv-x="860" 
d="M526 444l-69 340q-11 53 -17.5 94t-11.5 70h-4q-5 -29 -11.5 -70t-17.5 -92l-71 -342h202zM328 1214h207l292 -1214h-206l-66 307h-260l-68 -307h-196zM165 1630h217l136 -320h-150z" />
    <glyph glyph-name="Aacute.sc" horiz-adv-x="860" 
d="M461 1630h217l-203 -320h-151zM526 444l-69 340q-11 53 -17.5 94t-11.5 70h-4q-5 -29 -11.5 -70t-17.5 -92l-71 -342h202zM328 1214h207l292 -1214h-206l-66 307h-260l-68 -307h-196z" />
    <glyph glyph-name="Acircumflex.sc" horiz-adv-x="860" 
d="M358 1630h145l182 -326h-129l-129 156l-125 -156h-129zM526 444l-69 340q-11 53 -17.5 94t-11.5 70h-4q-5 -29 -11.5 -70t-17.5 -92l-71 -342h202zM328 1214h207l292 -1214h-206l-66 307h-260l-68 -307h-196z" />
    <glyph glyph-name="Atilde.sc" horiz-adv-x="860" 
d="M526 444l-69 340q-11 53 -17.5 94t-11.5 70h-4q-5 -29 -11.5 -70t-17.5 -92l-71 -342h202zM328 1214h207l292 -1214h-206l-66 307h-260l-68 -307h-196zM140 1294q0 149 44.5 215.5t125.5 66.5q40 0 73 -18t61 -39t53 -39t49 -18q28 0 42.5 23.5t14.5 86.5h117
q0 -149 -44 -215.5t-126 -66.5q-40 0 -73 18t-61.5 39t-53.5 39t-48 18q-29 0 -43 -24t-14 -86h-117z" />
    <glyph glyph-name="Adieresis.sc" horiz-adv-x="860" 
d="M489 1527h190v-219h-190v219zM181 1527h191v-219h-191v219zM526 444l-69 340q-11 53 -17.5 94t-11.5 70h-4q-5 -29 -11.5 -70t-17.5 -92l-71 -342h202zM328 1214h207l292 -1214h-206l-66 307h-260l-68 -307h-196z" />
    <glyph glyph-name="Aring.sc" horiz-adv-x="860" 
d="M315 1163q-31 25 -47 67.5t-16 98.5q0 45 12 85t34.5 69t56 46t75.5 17q41 0 74 -17t56 -46t35.5 -69t12.5 -85q0 -54 -16 -97t-47 -69l282 -1163h-206l-66 307h-260l-68 -307h-196zM430 1212q18 0 29.5 10t19 26t10.5 36t3 41t-3 41t-10.5 36t-19 26t-29.5 10
t-29.5 -9.5t-18.5 -25.5t-10 -36.5t-3 -41.5t3 -41t10 -36t18.5 -26t29.5 -10zM526 444l-69 340q-10 50 -17 91.5t-12 72.5h-4q-5 -29 -11.5 -70t-17.5 -92l-71 -342h202z" />
    <glyph glyph-name="Amacron.sc" horiz-adv-x="860" 
d="M526 444l-69 340q-11 53 -17.5 94t-11.5 70h-4q-5 -29 -11.5 -70t-17.5 -92l-71 -342h202zM328 1214h207l292 -1214h-206l-66 307h-260l-68 -307h-196zM188 1478h486v-170h-486v170z" />
    <glyph glyph-name="Abreve.sc" horiz-adv-x="860" 
d="M526 444l-69 340q-11 53 -17.5 94t-11.5 70h-4q-5 -29 -11.5 -70t-17.5 -92l-71 -342h202zM328 1214h207l292 -1214h-206l-66 307h-260l-68 -307h-196zM432 1300q-63 0 -107.5 23t-74 66.5t-44.5 106t-18 142.5h133q8 -100 33 -147.5t78 -47.5q51 0 76 47.5t35 147.5h131
q-3 -80 -18 -142.5t-44 -106t-73.5 -66.5t-106.5 -23z" />
    <glyph glyph-name="Aogonek.sc" horiz-adv-x="860" 
d="M526 444l-69 340q-11 53 -17.5 94t-11.5 70h-4q-5 -29 -11.5 -70t-17.5 -92l-71 -342h202zM328 1214h207l292 -1214h-206l-66 307h-260l-68 -307h-196zM669 -393q-89 0 -129.5 45t-40.5 115q0 34 10 68.5t27 66.5t40.5 59.5t49.5 48.5h112q-21 -19 -39.5 -43.5t-32 -51.5
t-21 -55t-7.5 -53q0 -43 18 -66.5t56 -23.5q37 0 66.5 14t58.5 36l57 -62q-46 -42 -101.5 -70t-123.5 -28z" />
    <glyph glyph-name="B.sc" horiz-adv-x="856" 
d="M104 1212h306q76 0 140.5 -15t111 -50.5t72.5 -95t26 -148.5q0 -65 -14.5 -111.5t-38.5 -79.5t-55.5 -53t-65.5 -30v-4q41 -10 78 -31t64.5 -55.5t43.5 -85t16 -119.5q0 -91 -27 -154.5t-74.5 -103.5t-111.5 -58t-139 -18h-332v1212zM424 156q88 0 125 49.5t37 146.5
q0 103 -44.5 148t-133.5 45h-105v-389h121zM403 698q79 0 118.5 39.5t39.5 136.5q0 94 -35.5 134.5t-119.5 40.5h-103v-351h100z" />
    <glyph glyph-name="C.sc" horiz-adv-x="877" 
d="M459 -16q-92 0 -165 35t-123.5 110t-77.5 193.5t-27 285.5q0 166 27.5 284t78.5 193t123.5 109.5t163.5 34.5q87 0 150 -25.5t105.5 -78t66.5 -133t32 -189.5l-201 -27q-12 145 -48 210t-105 65q-47 0 -81 -25.5t-56 -79t-32.5 -137.5t-10.5 -201t11 -202t33.5 -139.5
t56.5 -80.5t81 -26q37 0 64.5 14.5t47.5 47.5t33 86.5t21 131.5l198 -22q-11 -93 -34 -172.5t-65.5 -137.5t-107.5 -91t-159 -33z" />
    <glyph glyph-name="Ccedilla.sc" horiz-adv-x="877" 
d="M459 -16q-92 0 -165 35t-123.5 110t-77.5 193.5t-27 285.5q0 166 27.5 284t78.5 193t123.5 109.5t163.5 34.5q87 0 150 -25.5t105.5 -78t66.5 -133t32 -189.5l-201 -27q-12 145 -48 210t-105 65q-47 0 -81 -25.5t-56 -79t-32.5 -137.5t-10.5 -201t11 -202t33.5 -139.5
t56.5 -80.5t81 -26q37 0 64.5 14.5t47.5 47.5t33 86.5t21 131.5l198 -22q-11 -93 -34 -172.5t-65.5 -137.5t-107.5 -91t-159 -33zM444 -406q-68 0 -126 19.5t-101 50.5l45 86q34 -23 79 -39t95 -16q88 0 88 74q0 59 -55 59q-39 0 -68 -35l-74 33l46 176h104l-23 -102
q30 28 86 28q24 0 46.5 -8t40 -25t28 -44.5t10.5 -67.5q0 -90 -59.5 -139.5t-161.5 -49.5z" />
    <glyph glyph-name="Cacute.sc" horiz-adv-x="877" 
d="M477 1630h217l-203 -320h-151zM459 -16q-92 0 -165 35t-123.5 110t-77.5 193.5t-27 285.5q0 166 27.5 284t78.5 193t123.5 109.5t163.5 34.5q87 0 150 -25.5t105.5 -78t66.5 -133t32 -189.5l-201 -27q-12 145 -48 210t-105 65q-47 0 -81 -25.5t-56 -79t-32.5 -137.5
t-10.5 -201t11 -202t33.5 -139.5t56.5 -80.5t81 -26q37 0 64.5 14.5t47.5 47.5t33 86.5t21 131.5l198 -22q-11 -93 -34 -172.5t-65.5 -137.5t-107.5 -91t-159 -33z" />
    <glyph glyph-name="Ccircumflex.sc" horiz-adv-x="877" 
d="M383 1628h145l182 -326h-129l-129 156l-125 -156h-129zM459 -16q-92 0 -165 35t-123.5 110t-77.5 193.5t-27 285.5q0 166 27.5 284t78.5 193t123.5 109.5t163.5 34.5q87 0 150 -25.5t105.5 -78t66.5 -133t32 -189.5l-201 -27q-12 145 -48 210t-105 65q-47 0 -81 -25.5
t-56 -79t-32.5 -137.5t-10.5 -201t11 -202t33.5 -139.5t56.5 -80.5t81 -26q37 0 64.5 14.5t47.5 47.5t33 86.5t21 131.5l198 -22q-11 -93 -34 -172.5t-65.5 -137.5t-107.5 -91t-159 -33z" />
    <glyph glyph-name="Cdotaccent.sc" horiz-adv-x="877" 
d="M459 -16q-92 0 -165 35t-123.5 110t-77.5 193.5t-27 285.5q0 166 27.5 284t78.5 193t123.5 109.5t163.5 34.5q87 0 150 -25.5t105.5 -78t66.5 -133t32 -189.5l-201 -27q-12 145 -48 210t-105 65q-47 0 -81 -25.5t-56 -79t-32.5 -137.5t-10.5 -201t11 -202t33.5 -139.5
t56.5 -80.5t81 -26q37 0 64.5 14.5t47.5 47.5t33 86.5t21 131.5l198 -22q-11 -93 -34 -172.5t-65.5 -137.5t-107.5 -91t-159 -33zM339 1527h230v-215h-230v215z" />
    <glyph glyph-name="Ccaron.sc" horiz-adv-x="877" 
d="M177 1632h131l127 -156l127 156h129l-184 -326h-145zM459 -16q-92 0 -165 35t-123.5 110t-77.5 193.5t-27 285.5q0 166 27.5 284t78.5 193t123.5 109.5t163.5 34.5q87 0 150 -25.5t105.5 -78t66.5 -133t32 -189.5l-201 -27q-12 145 -48 210t-105 65q-47 0 -81 -25.5
t-56 -79t-32.5 -137.5t-10.5 -201t11 -202t33.5 -139.5t56.5 -80.5t81 -26q37 0 64.5 14.5t47.5 47.5t33 86.5t21 131.5l198 -22q-11 -93 -34 -172.5t-65.5 -137.5t-107.5 -91t-159 -33z" />
    <glyph glyph-name="D.sc" horiz-adv-x="903" 
d="M104 1212h267q111 0 198 -27.5t147 -96.5t91 -185.5t31 -294.5t-32 -295.5t-92 -187t-146.5 -97.5t-196.5 -28h-267v1212zM395 170q67 0 112 27t72 81t38.5 136t11.5 192q0 108 -11.5 189.5t-39 136t-73 81.5t-112.5 27h-76v-870h78z" />
    <glyph glyph-name="Dcaron.sc" horiz-adv-x="903" 
d="M104 1212h267q111 0 198 -27.5t147 -96.5t91 -185.5t31 -294.5t-32 -295.5t-92 -187t-146.5 -97.5t-196.5 -28h-267v1212zM395 170q67 0 112 27t72 81t38.5 136t11.5 192q0 108 -11.5 189.5t-39 136t-73 81.5t-112.5 27h-76v-870h78zM182 1632h131l127 -156l127 156h129
l-184 -326h-145z" />
    <glyph glyph-name="E.sc" horiz-adv-x="748" 
d="M104 0v1212h578v-178h-365v-311h258v-170h-258v-377h383v-176h-596z" />
    <glyph glyph-name="Egrave.sc" horiz-adv-x="748" 
d="M131 1630h217l136 -320h-150zM104 0v1212h578v-178h-365v-311h258v-170h-258v-377h383v-176h-596z" />
    <glyph glyph-name="Eacute.sc" horiz-adv-x="748" 
d="M424 1630h217l-203 -320h-151zM104 0v1212h578v-178h-365v-311h258v-170h-258v-377h383v-176h-596z" />
    <glyph glyph-name="Ecircumflex.sc" horiz-adv-x="748" 
d="M322 1630h145l182 -326h-129l-129 156l-125 -156h-129zM104 0v1212h578v-178h-365v-311h258v-170h-258v-377h383v-176h-596z" />
    <glyph glyph-name="Edieresis.sc" horiz-adv-x="748" 
d="M453 1527h190v-219h-190v219zM145 1527h191v-219h-191v219zM104 0v1212h578v-178h-365v-311h258v-170h-258v-377h383v-176h-596z" />
    <glyph glyph-name="Emacron.sc" horiz-adv-x="748" 
d="M151 1478h486v-170h-486v170zM104 0v1212h578v-178h-365v-311h258v-170h-258v-377h383v-176h-596z" />
    <glyph glyph-name="Ebreve.sc" horiz-adv-x="748" 
d="M104 0v1212h578v-178h-365v-311h258v-170h-258v-377h383v-176h-596zM385 1298q-63 0 -107.5 23t-74 66.5t-44.5 106t-18 142.5h133q8 -100 33 -147.5t78 -47.5q51 0 76 47.5t35 147.5h131q-3 -80 -18 -142.5t-44 -106t-73.5 -66.5t-106.5 -23z" />
    <glyph glyph-name="Edotaccent.sc" horiz-adv-x="748" 
d="M280 1529h230v-215h-230v215zM104 0v1212h578v-178h-365v-311h258v-170h-258v-377h383v-176h-596z" />
    <glyph glyph-name="Eogonek.sc" horiz-adv-x="748" 
d="M567 -393q-89 0 -129.5 45t-40.5 115q0 34 10 68.5t27 66.5t40.5 59.5t49.5 48.5h112q-21 -19 -39.5 -43.5t-32 -51.5t-21 -55t-7.5 -53q0 -43 18 -66.5t56 -23.5q37 0 66.5 14t58.5 36l57 -62q-46 -42 -101.5 -70t-123.5 -28zM104 0v1212h578v-178h-365v-311h258v-170
h-258v-377h383v-176h-596z" />
    <glyph glyph-name="Ecaron.sc" horiz-adv-x="748" 
d="M135 1632h131l127 -156l127 156h129l-184 -326h-145zM104 0v1212h578v-178h-365v-311h258v-170h-258v-377h383v-176h-596z" />
    <glyph glyph-name="F.sc" horiz-adv-x="715" 
d="M104 0v1212h578v-178h-365v-325h263v-172h-263v-537h-213z" />
    <glyph glyph-name="G.sc" horiz-adv-x="920" 
d="M434 -12q-188 0 -278 151t-90 469q0 162 26.5 279.5t76.5 194t123.5 113t168.5 36.5q78 0 137 -25.5t101.5 -78t70 -132.5t41.5 -188l-195 -25q-8 73 -21.5 124t-32 83.5t-44 47t-57.5 14.5q-45 0 -78.5 -24t-56 -77t-34 -137t-11.5 -203q0 -120 11 -206t34 -140.5
t58.5 -80t84.5 -25.5q88 0 127.5 73t42.5 205h-164v164h346v-600h-143l-2 152h-4q-10 -33 -30 -63t-49.5 -52.5t-69 -35.5t-89.5 -13z" />
    <glyph glyph-name="Gcircumflex.sc" horiz-adv-x="920" 
d="M387 1628h145l182 -326h-129l-129 156l-125 -156h-129zM434 -12q-188 0 -278 151t-90 469q0 162 26.5 279.5t76.5 194t123.5 113t168.5 36.5q78 0 137 -25.5t101.5 -78t70 -132.5t41.5 -188l-195 -25q-8 73 -21.5 124t-32 83.5t-44 47t-57.5 14.5q-45 0 -78.5 -24
t-56 -77t-34 -137t-11.5 -203q0 -120 11 -206t34 -140.5t58.5 -80t84.5 -25.5q88 0 127.5 73t42.5 205h-164v164h346v-600h-143l-2 152h-4q-10 -33 -30 -63t-49.5 -52.5t-69 -35.5t-89.5 -13z" />
    <glyph glyph-name="Gbreve.sc" horiz-adv-x="920" 
d="M434 -12q-188 0 -278 151t-90 469q0 162 26.5 279.5t76.5 194t123.5 113t168.5 36.5q78 0 137 -25.5t101.5 -78t70 -132.5t41.5 -188l-195 -25q-8 73 -21.5 124t-32 83.5t-44 47t-57.5 14.5q-45 0 -78.5 -24t-56 -77t-34 -137t-11.5 -203q0 -120 11 -206t34 -140.5
t58.5 -80t84.5 -25.5q88 0 127.5 73t42.5 205h-164v164h346v-600h-143l-2 152h-4q-10 -33 -30 -63t-49.5 -52.5t-69 -35.5t-89.5 -13zM460 1300q-63 0 -107.5 23t-74 66.5t-44.5 106t-18 142.5h133q8 -100 33 -147.5t78 -47.5q51 0 76 47.5t35 147.5h131q-3 -80 -18 -142.5
t-44 -106t-73.5 -66.5t-106.5 -23z" />
    <glyph glyph-name="Gdotaccent.sc" horiz-adv-x="920" 
d="M434 -12q-188 0 -278 151t-90 469q0 162 26.5 279.5t76.5 194t123.5 113t168.5 36.5q78 0 137 -25.5t101.5 -78t70 -132.5t41.5 -188l-195 -25q-8 73 -21.5 124t-32 83.5t-44 47t-57.5 14.5q-45 0 -78.5 -24t-56 -77t-34 -137t-11.5 -203q0 -120 11 -206t34 -140.5
t58.5 -80t84.5 -25.5q88 0 127.5 73t42.5 205h-164v164h346v-600h-143l-2 152h-4q-10 -33 -30 -63t-49.5 -52.5t-69 -35.5t-89.5 -13zM345 1527h230v-215h-230v215z" />
    <glyph glyph-name="Gcommaaccent.sc" horiz-adv-x="920" 
d="M442 -301h-88v217h207v-199l-101 -235h-75zM434 -12q-188 0 -278 151t-90 469q0 162 26.5 279.5t76.5 194t123.5 113t168.5 36.5q78 0 137 -25.5t101.5 -78t70 -132.5t41.5 -188l-195 -25q-8 73 -21.5 124t-32 83.5t-44 47t-57.5 14.5q-45 0 -78.5 -24t-56 -77t-34 -137
t-11.5 -203q0 -120 11 -206t34 -140.5t58.5 -80t84.5 -25.5q88 0 127.5 73t42.5 205h-164v164h346v-600h-143l-2 152h-4q-10 -33 -30 -63t-49.5 -52.5t-69 -35.5t-89.5 -13z" />
    <glyph glyph-name="H.sc" horiz-adv-x="940" 
d="M104 0v1212h213v-487h306v487h213v-1212h-213v553h-306v-553h-213z" />
    <glyph glyph-name="Hcircumflex.sc" horiz-adv-x="940" 
d="M397 1628h145l182 -326h-129l-129 156l-125 -156h-129zM104 0v1212h213v-487h306v487h213v-1212h-213v553h-306v-553h-213z" />
    <glyph glyph-name="I.sc" horiz-adv-x="442" 
d="M117 0v1212h209v-1212h-209z" />
    <glyph glyph-name="Igrave.sc" horiz-adv-x="442" 
d="M117 0v1212h209v-1212h-209zM-47 1630h217l136 -320h-150z" />
    <glyph glyph-name="Iacute.sc" horiz-adv-x="442" 
d="M267 1630h217l-203 -320h-151zM117 0v1212h209v-1212h-209z" />
    <glyph glyph-name="Icircumflex.sc" horiz-adv-x="442" 
d="M150 1630h145l182 -326h-129l-129 156l-125 -156h-129zM117 0v1212h209v-1212h-209z" />
    <glyph glyph-name="Idieresis.sc" horiz-adv-x="442" 
d="M282 1527h190v-219h-190v219zM-26 1527h191v-219h-191v219zM117 0v1212h209v-1212h-209z" />
    <glyph glyph-name="Itilde.sc" horiz-adv-x="442" 
d="M117 0v1212h209v-1212h-209zM-67 1292q0 149 44.5 215.5t125.5 66.5q40 0 73 -18t61 -39t53 -39t49 -18q28 0 42.5 23.5t14.5 86.5h117q0 -149 -44 -215.5t-126 -66.5q-40 0 -73 18t-61.5 39t-53.5 39t-48 18q-29 0 -43 -24t-14 -86h-117z" />
    <glyph glyph-name="Imacron.sc" horiz-adv-x="442" 
d="M117 0v1212h209v-1212h-209zM-20 1478h486v-170h-486v170z" />
    <glyph glyph-name="Ibreve.sc" horiz-adv-x="442" 
d="M117 0v1212h209v-1212h-209zM224 1298q-63 0 -107.5 23t-74 66.5t-44.5 106t-18 142.5h133q8 -100 33 -147.5t78 -47.5q51 0 76 47.5t35 147.5h131q-3 -80 -18 -142.5t-44 -106t-73.5 -66.5t-106.5 -23z" />
    <glyph glyph-name="Iogonek.sc" horiz-adv-x="442" 
d="M166 -393q-89 0 -130.5 45t-41.5 115q0 34 10.5 68.5t28 66.5t40.5 60q21 24 44 43v1207h209v-1212h-102q-15 -15 -29 -33q-18 -25 -31.5 -52t-21 -55t-7.5 -53q0 -43 18 -66.5t56 -23.5q37 0 66.5 14t58.5 36l57 -62q-46 -42 -101.5 -70t-123.5 -28z" />
    <glyph glyph-name="Idotaccent.sc" horiz-adv-x="442" 
d="M117 0v1212h209v-1212h-209zM109 1529h230v-215h-230v215z" />
    <glyph glyph-name="J.sc" horiz-adv-x="674" 
d="M109 213q32 -22 68 -33.5t79 -11.5q25 0 46 5.5t35 19.5t22 37.5t8 60.5v921h213v-938q0 -153 -78 -221.5t-219 -68.5q-84 0 -153.5 16t-119.5 53z" />
    <glyph glyph-name="Jcircumflex.sc" horiz-adv-x="674" 
d="M393 1628h145l182 -326h-129l-129 156l-125 -156h-129zM109 213q32 -22 68 -33.5t79 -11.5q25 0 46 5.5t35 19.5t22 37.5t8 60.5v921h213v-938q0 -153 -78 -221.5t-219 -68.5q-84 0 -153.5 16t-119.5 53z" />
    <glyph glyph-name="K.sc" horiz-adv-x="854" 
d="M104 0v1212h209v-542q22 43 49.5 97.5t67.5 131.5l172 313h207l-268 -469l303 -743h-221l-226 557l-84 -141v-416h-209z" />
    <glyph glyph-name="Kcommaaccent.sc" horiz-adv-x="854" 
d="M411 -301h-88v217h207v-199l-101 -235h-75zM104 0v1212h209v-542q22 43 49.5 97.5t67.5 131.5l172 313h207l-268 -469l303 -743h-221l-226 557l-84 -141v-416h-209z" />
    <glyph glyph-name="L.sc" horiz-adv-x="709" 
d="M104 0v1212h213v-1036h359v-176h-572z" />
    <glyph glyph-name="Lacute.sc" horiz-adv-x="709" 
d="M104 0v1212h213v-1036h359v-176h-572zM261 1630h217l-203 -320h-151z" />
    <glyph glyph-name="Lcommaaccent.sc" horiz-adv-x="709" 
d="M104 0v1212h213v-1036h359v-176h-572zM358 -301h-88v217h207v-199l-101 -235h-75z" />
    <glyph glyph-name="Lcaron.sc" horiz-adv-x="709" 
d="M483 1018h-73v194h182v-178l-94 -221h-70zM104 0v1212h213v-1036h359v-176h-572z" />
    <glyph glyph-name="M.sc" horiz-adv-x="1096" 
d="M109 1212h247l191 -899h4l184 899h250v-1212h-190v618q0 12 0.5 43.5t0.5 69.5t0.5 76t0.5 63h-4q-7 -57 -18 -116t-25 -131l-140 -623h-145l-139 623q-8 37 -14.5 68t-11.5 60.5t-10 58t-9 60.5h-2q1 -5 1.5 -33t0.5 -66.5v-79v-70.5v-621h-172v1212z" />
    <glyph glyph-name="N.sc" horiz-adv-x="903" 
d="M109 1212h198l248 -626q20 -51 37 -95t33 -94h2v815h168v-1212h-177l-276 670q-19 46 -33.5 85.5t-29.5 84.5h-3v-840h-167v1212z" />
    <glyph glyph-name="Ntilde.sc" horiz-adv-x="903" 
d="M109 1212h198l248 -626q20 -51 37 -95t33 -94h2v815h168v-1212h-177l-276 670q-19 46 -33.5 85.5t-29.5 84.5h-3v-840h-167v1212zM161 1294q0 149 44.5 215.5t125.5 66.5q40 0 73 -18t61 -39t53 -39t49 -18q28 0 42.5 23.5t14.5 86.5h117q0 -149 -44 -215.5t-126 -66.5
q-40 0 -73 18t-61.5 39t-53.5 39t-48 18q-29 0 -43 -24t-14 -86h-117z" />
    <glyph glyph-name="Nacute.sc" horiz-adv-x="903" 
d="M481 1630h217l-203 -320h-151zM109 1212h198l248 -626q20 -51 37 -95t33 -94h2v815h168v-1212h-177l-276 670q-19 46 -33.5 85.5t-29.5 84.5h-3v-840h-167v1212z" />
    <glyph glyph-name="Ncommaaccent.sc" horiz-adv-x="903" 
d="M436 -301h-88v217h207v-199l-101 -235h-75zM109 1212h198l248 -626q20 -51 37 -95t33 -94h2v815h168v-1212h-177l-276 670q-19 46 -33.5 85.5t-29.5 84.5h-3v-840h-167v1212z" />
    <glyph glyph-name="Ncaron.sc" horiz-adv-x="903" 
d="M192 1632h131l127 -156l127 156h129l-184 -326h-145zM109 1212h198l248 -626q20 -51 37 -95t33 -94h2v815h168v-1212h-177l-276 670q-19 46 -33.5 85.5t-29.5 84.5h-3v-840h-167v1212z" />
    <glyph glyph-name="O.sc" horiz-adv-x="936" 
d="M469 -16q-90 0 -164 36t-127.5 112t-82.5 194t-29 282q0 163 29 280.5t82.5 193.5t127.5 111.5t164 35.5q89 0 163 -35.5t127 -111.5t82 -193.5t29 -280.5q0 -164 -29 -282t-82 -194t-127 -112t-163 -36zM469 160q92 0 140 108t48 340q0 230 -48 336.5t-140 106.5
q-94 0 -141 -106.5t-47 -336.5q0 -232 46.5 -340t141.5 -108z" />
    <glyph glyph-name="Ograve.sc" horiz-adv-x="936" 
d="M469 -16q-90 0 -164 36t-127.5 112t-82.5 194t-29 282q0 163 29 280.5t82.5 193.5t127.5 111.5t164 35.5q89 0 163 -35.5t127 -111.5t82 -193.5t29 -280.5q0 -164 -29 -282t-82 -194t-127 -112t-163 -36zM469 160q92 0 140 108t48 340q0 230 -48 336.5t-140 106.5
q-94 0 -141 -106.5t-47 -336.5q0 -232 46.5 -340t141.5 -108zM202 1630h217l136 -320h-150z" />
    <glyph glyph-name="Oacute.sc" horiz-adv-x="936" 
d="M469 -16q-90 0 -164 36t-127.5 112t-82.5 194t-29 282q0 163 29 280.5t82.5 193.5t127.5 111.5t164 35.5q89 0 163 -35.5t127 -111.5t82 -193.5t29 -280.5q0 -164 -29 -282t-82 -194t-127 -112t-163 -36zM469 160q92 0 140 108t48 340q0 230 -48 336.5t-140 106.5
q-94 0 -141 -106.5t-47 -336.5q0 -232 46.5 -340t141.5 -108zM497 1630h217l-203 -320h-151z" />
    <glyph glyph-name="Ocircumflex.sc" horiz-adv-x="936" 
d="M395 1630h145l182 -326h-129l-129 156l-125 -156h-129zM469 -16q-90 0 -164 36t-127.5 112t-82.5 194t-29 282q0 163 29 280.5t82.5 193.5t127.5 111.5t164 35.5q89 0 163 -35.5t127 -111.5t82 -193.5t29 -280.5q0 -164 -29 -282t-82 -194t-127 -112t-163 -36zM469 160
q92 0 140 108t48 340q0 230 -48 336.5t-140 106.5q-94 0 -141 -106.5t-47 -336.5q0 -232 46.5 -340t141.5 -108z" />
    <glyph glyph-name="Otilde.sc" horiz-adv-x="936" 
d="M469 -16q-90 0 -164 36t-127.5 112t-82.5 194t-29 282q0 163 29 280.5t82.5 193.5t127.5 111.5t164 35.5q89 0 163 -35.5t127 -111.5t82 -193.5t29 -280.5q0 -164 -29 -282t-82 -194t-127 -112t-163 -36zM469 160q92 0 140 108t48 340q0 230 -48 336.5t-140 106.5
q-94 0 -141 -106.5t-47 -336.5q0 -232 46.5 -340t141.5 -108zM177 1294q0 149 44.5 215.5t125.5 66.5q40 0 73 -18t61 -39t53 -39t49 -18q28 0 42.5 23.5t14.5 86.5h117q0 -149 -44 -215.5t-126 -66.5q-40 0 -73 18t-61.5 39t-53.5 39t-48 18q-29 0 -43 -24t-14 -86h-117z
" />
    <glyph glyph-name="Odieresis.sc" horiz-adv-x="936" 
d="M526 1527h190v-219h-190v219zM218 1527h191v-219h-191v219zM469 -16q-90 0 -164 36t-127.5 112t-82.5 194t-29 282q0 163 29 280.5t82.5 193.5t127.5 111.5t164 35.5q89 0 163 -35.5t127 -111.5t82 -193.5t29 -280.5q0 -164 -29 -282t-82 -194t-127 -112t-163 -36z
M469 160q92 0 140 108t48 340q0 230 -48 336.5t-140 106.5q-94 0 -141 -106.5t-47 -336.5q0 -232 46.5 -340t141.5 -108z" />
    <glyph glyph-name="Omacron.sc" horiz-adv-x="936" 
d="M469 -16q-90 0 -164 36t-127.5 112t-82.5 194t-29 282q0 163 29 280.5t82.5 193.5t127.5 111.5t164 35.5q89 0 163 -35.5t127 -111.5t82 -193.5t29 -280.5q0 -164 -29 -282t-82 -194t-127 -112t-163 -36zM469 160q92 0 140 108t48 340q0 230 -48 336.5t-140 106.5
q-94 0 -141 -106.5t-47 -336.5q0 -232 46.5 -340t141.5 -108zM224 1478h486v-170h-486v170z" />
    <glyph glyph-name="Obreve.sc" horiz-adv-x="936" 
d="M469 -16q-90 0 -164 36t-127.5 112t-82.5 194t-29 282q0 163 29 280.5t82.5 193.5t127.5 111.5t164 35.5q89 0 163 -35.5t127 -111.5t82 -193.5t29 -280.5q0 -164 -29 -282t-82 -194t-127 -112t-163 -36zM469 160q92 0 140 108t48 340q0 230 -48 336.5t-140 106.5
q-94 0 -141 -106.5t-47 -336.5q0 -232 46.5 -340t141.5 -108zM468 1298q-63 0 -107.5 23t-74 66.5t-44.5 106t-18 142.5h133q8 -100 33 -147.5t78 -47.5q51 0 76 47.5t35 147.5h131q-3 -80 -18 -142.5t-44 -106t-73.5 -66.5t-106.5 -23z" />
    <glyph glyph-name="Ohungarumlaut.sc" horiz-adv-x="936" 
d="M469 -16q-90 0 -164 36t-127.5 112t-82.5 194t-29 282q0 163 29 280.5t82.5 193.5t127.5 111.5t164 35.5q89 0 163 -35.5t127 -111.5t82 -193.5t29 -280.5q0 -164 -29 -282t-82 -194t-127 -112t-163 -36zM469 160q92 0 140 108t48 340q0 230 -48 336.5t-140 106.5
q-94 0 -141 -106.5t-47 -336.5q0 -232 46.5 -340t141.5 -108zM638 1630h215l-211 -320h-143zM356 1630h213l-207 -320h-144z" />
    <glyph glyph-name="P.sc" horiz-adv-x="846" 
d="M104 0v1212h289q92 0 167 -18.5t127.5 -62t81 -116t28.5 -179.5q0 -112 -29 -186.5t-82 -119t-128 -63t-167 -18.5h-78v-449h-209zM313 612h93q50 0 85 12t57.5 39t33 69t10.5 102q0 57 -10.5 96.5t-33 64t-57.5 36t-85 11.5h-93v-430z" />
    <glyph glyph-name="Q.sc" horiz-adv-x="938" 
d="M791 -322h-103q-95 0 -156.5 24t-98 67t-51 101.5t-15.5 127.5q-67 17 -122.5 59.5t-95 116.5t-61.5 181t-22 253q0 163 29 280.5t82.5 193.5t127.5 111.5t164 35.5q88 0 162.5 -35.5t127.5 -111.5t83 -193.5t30 -280.5q0 -147 -23.5 -255.5t-65 -183t-99.5 -117
t-127 -58.5q2 -42 11.5 -69.5t29 -44t50.5 -23.5t77 -7h66v-172zM469 158q48 0 83 26.5t58.5 81.5t35 140t11.5 202q0 116 -12 200t-35.5 138t-58.5 79.5t-82 25.5t-82 -25.5t-58.5 -79.5t-35.5 -138t-12 -200q0 -117 11.5 -202t35 -140t58.5 -81.5t83 -26.5z" />
    <glyph glyph-name="R.sc" horiz-adv-x="874" 
d="M104 1212h306q90 0 163 -20t124 -63.5t78.5 -114t27.5 -170.5q0 -130 -48.5 -211t-136.5 -115l197 -518h-217l-176 469h-109v-469h-209v1212zM414 629q48 0 81.5 11.5t54.5 36.5t30.5 65t9.5 96q0 54 -9.5 93t-30.5 63.5t-55.5 36t-84.5 11.5h-97v-413h101z" />
    <glyph glyph-name="Racute.sc" horiz-adv-x="874" 
d="M467 1630h217l-203 -320h-151zM104 1212h306q90 0 163 -20t124 -63.5t78.5 -114t27.5 -170.5q0 -130 -48.5 -211t-136.5 -115l197 -518h-217l-176 469h-109v-469h-209v1212zM414 629q48 0 81.5 11.5t54.5 36.5t30.5 65t9.5 96q0 54 -9.5 93t-30.5 63.5t-55.5 36
t-84.5 11.5h-97v-413h101z" />
    <glyph glyph-name="Rcommaaccent.sc" horiz-adv-x="874" 
d="M421 -301h-88v217h207v-199l-101 -235h-75zM104 1212h306q90 0 163 -20t124 -63.5t78.5 -114t27.5 -170.5q0 -130 -48.5 -211t-136.5 -115l197 -518h-217l-176 469h-109v-469h-209v1212zM414 629q48 0 81.5 11.5t54.5 36.5t30.5 65t9.5 96q0 54 -9.5 93t-30.5 63.5
t-55.5 36t-84.5 11.5h-97v-413h101z" />
    <glyph glyph-name="Rcaron.sc" horiz-adv-x="874" 
d="M177 1632h131l127 -156l127 156h129l-184 -326h-145zM104 1212h306q90 0 163 -20t124 -63.5t78.5 -114t27.5 -170.5q0 -130 -48.5 -211t-136.5 -115l197 -518h-217l-176 469h-109v-469h-209v1212zM414 629q48 0 81.5 11.5t54.5 36.5t30.5 65t9.5 96q0 54 -9.5 93
t-30.5 63.5t-55.5 36t-84.5 11.5h-97v-413h101z" />
    <glyph glyph-name="S.sc" horiz-adv-x="838" 
d="M424 -16q-84 0 -147.5 21t-110 64t-77.5 107.5t-50 151.5l190 37q28 -114 73 -164.5t122 -50.5q72 0 109.5 37.5t37.5 97.5q0 36 -16 68t-44.5 63t-67.5 61.5t-85 63.5q-57 39 -106 78t-85 85t-56.5 101t-20.5 127q0 67 23 122t65 94t100.5 60t129.5 21q78 0 135.5 -20.5
t99.5 -61t70.5 -99.5t48.5 -137l-182 -45q-25 102 -64.5 146.5t-101.5 44.5q-60 0 -92.5 -33t-32.5 -90q0 -37 16 -68.5t43 -61t63.5 -58t77.5 -58.5q55 -39 106 -79t90 -87t62 -103.5t23 -129.5q0 -65 -21.5 -121t-65 -97t-108 -64t-151.5 -23z" />
    <glyph glyph-name="Sacute.sc" horiz-adv-x="838" 
d="M448 1630h217l-203 -320h-151zM424 -16q-84 0 -147.5 21t-110 64t-77.5 107.5t-50 151.5l190 37q28 -114 73 -164.5t122 -50.5q72 0 109.5 37.5t37.5 97.5q0 36 -16 68t-44.5 63t-67.5 61.5t-85 63.5q-57 39 -106 78t-85 85t-56.5 101t-20.5 127q0 67 23 122t65 94
t100.5 60t129.5 21q78 0 135.5 -20.5t99.5 -61t70.5 -99.5t48.5 -137l-182 -45q-25 102 -64.5 146.5t-101.5 44.5q-60 0 -92.5 -33t-32.5 -90q0 -37 16 -68.5t43 -61t63.5 -58t77.5 -58.5q55 -39 106 -79t90 -87t62 -103.5t23 -129.5q0 -65 -21.5 -121t-65 -97t-108 -64
t-151.5 -23z" />
    <glyph glyph-name="Scircumflex.sc" horiz-adv-x="838" 
d="M344 1628h145l182 -326h-129l-129 156l-125 -156h-129zM424 -16q-84 0 -147.5 21t-110 64t-77.5 107.5t-50 151.5l190 37q28 -114 73 -164.5t122 -50.5q72 0 109.5 37.5t37.5 97.5q0 36 -16 68t-44.5 63t-67.5 61.5t-85 63.5q-57 39 -106 78t-85 85t-56.5 101t-20.5 127
q0 67 23 122t65 94t100.5 60t129.5 21q78 0 135.5 -20.5t99.5 -61t70.5 -99.5t48.5 -137l-182 -45q-25 102 -64.5 146.5t-101.5 44.5q-60 0 -92.5 -33t-32.5 -90q0 -37 16 -68.5t43 -61t63.5 -58t77.5 -58.5q55 -39 106 -79t90 -87t62 -103.5t23 -129.5q0 -65 -21.5 -121
t-65 -97t-108 -64t-151.5 -23z" />
    <glyph glyph-name="Scedilla.sc" horiz-adv-x="838" 
d="M424 -16q-84 0 -147.5 21t-110 64t-77.5 107.5t-50 151.5l190 37q28 -114 73 -164.5t122 -50.5q72 0 109.5 37.5t37.5 97.5q0 36 -16 68t-44.5 63t-67.5 61.5t-85 63.5q-57 39 -106 78t-85 85t-56.5 101t-20.5 127q0 67 23 122t65 94t100.5 60t129.5 21q78 0 135.5 -20.5
t99.5 -61t70.5 -99.5t48.5 -137l-182 -45q-25 102 -64.5 146.5t-101.5 44.5q-60 0 -92.5 -33t-32.5 -90q0 -37 16 -68.5t43 -61t63.5 -58t77.5 -58.5q55 -39 106 -79t90 -87t62 -103.5t23 -129.5q0 -65 -21.5 -121t-65 -97t-108 -64t-151.5 -23zM425 -406q-68 0 -126 19.5
t-101 50.5l45 86q34 -23 79 -39t95 -16q88 0 88 74q0 59 -55 59q-39 0 -68 -35l-74 33l46 176h104l-23 -102q30 28 86 28q24 0 46.5 -8t40 -25t28 -44.5t10.5 -67.5q0 -90 -59.5 -139.5t-161.5 -49.5z" />
    <glyph glyph-name="Scaron.sc" horiz-adv-x="838" 
d="M159 1632h131l127 -156l127 156h129l-184 -326h-145zM424 -16q-84 0 -147.5 21t-110 64t-77.5 107.5t-50 151.5l190 37q28 -114 73 -164.5t122 -50.5q72 0 109.5 37.5t37.5 97.5q0 36 -16 68t-44.5 63t-67.5 61.5t-85 63.5q-57 39 -106 78t-85 85t-56.5 101t-20.5 127
q0 67 23 122t65 94t100.5 60t129.5 21q78 0 135.5 -20.5t99.5 -61t70.5 -99.5t48.5 -137l-182 -45q-25 102 -64.5 146.5t-101.5 44.5q-60 0 -92.5 -33t-32.5 -90q0 -37 16 -68.5t43 -61t63.5 -58t77.5 -58.5q55 -39 106 -79t90 -87t62 -103.5t23 -129.5q0 -65 -21.5 -121
t-65 -97t-108 -64t-151.5 -23z" />
    <glyph glyph-name="Scommaaccent.sc" horiz-adv-x="838" 
d="M403 -301h-88v217h207v-199l-101 -235h-75zM424 -16q-84 0 -147.5 21t-110 64t-77.5 107.5t-50 151.5l190 37q28 -114 73 -164.5t122 -50.5q72 0 109.5 37.5t37.5 97.5q0 36 -16 68t-44.5 63t-67.5 61.5t-85 63.5q-57 39 -106 78t-85 85t-56.5 101t-20.5 127q0 67 23 122
t65 94t100.5 60t129.5 21q78 0 135.5 -20.5t99.5 -61t70.5 -99.5t48.5 -137l-182 -45q-25 102 -64.5 146.5t-101.5 44.5q-60 0 -92.5 -33t-32.5 -90q0 -37 16 -68.5t43 -61t63.5 -58t77.5 -58.5q55 -39 106 -79t90 -87t62 -103.5t23 -129.5q0 -65 -21.5 -121t-65 -97
t-108 -64t-151.5 -23z" />
    <glyph glyph-name="T.sc" horiz-adv-x="766" 
d="M276 0v1034h-243v178h700v-178h-244v-1034h-213z" />
    <glyph glyph-name="Tcommaaccent.sc" horiz-adv-x="766" 
d="M276 0v1034h-243v178h700v-178h-244v-1034h-213zM366 -301h-88v217h207v-199l-101 -235h-75z" />
    <glyph glyph-name="Tcaron.sc" horiz-adv-x="766" 
d="M276 0v1034h-243v178h700v-178h-244v-1034h-213zM125 1632h131l127 -156l127 156h129l-184 -326h-145z" />
    <glyph glyph-name="U.sc" horiz-adv-x="907" 
d="M453 -16q-99 0 -167 28.5t-110 81t-61 127.5t-19 168v823h215v-811q0 -60 7 -105.5t24 -75.5t45.5 -45t71.5 -15q42 0 70 14.5t44.5 44.5t23.5 75t7 105v813h209v-821q0 -94 -19 -169t-61.5 -128t-111 -81.5t-168.5 -28.5z" />
    <glyph glyph-name="Ugrave.sc" horiz-adv-x="907" 
d="M188 1630h217l136 -320h-150zM453 -16q-99 0 -167 28.5t-110 81t-61 127.5t-19 168v823h215v-811q0 -60 7 -105.5t24 -75.5t45.5 -45t71.5 -15q42 0 70 14.5t44.5 44.5t23.5 75t7 105v813h209v-821q0 -94 -19 -169t-61.5 -128t-111 -81.5t-168.5 -28.5z" />
    <glyph glyph-name="Uacute.sc" horiz-adv-x="907" 
d="M483 1630h217l-203 -320h-151zM453 -16q-99 0 -167 28.5t-110 81t-61 127.5t-19 168v823h215v-811q0 -60 7 -105.5t24 -75.5t45.5 -45t71.5 -15q42 0 70 14.5t44.5 44.5t23.5 75t7 105v813h209v-821q0 -94 -19 -169t-61.5 -128t-111 -81.5t-168.5 -28.5z" />
    <glyph glyph-name="Ucircumflex.sc" horiz-adv-x="907" 
d="M383 1630h145l182 -326h-129l-129 156l-125 -156h-129zM453 -16q-99 0 -167 28.5t-110 81t-61 127.5t-19 168v823h215v-811q0 -60 7 -105.5t24 -75.5t45.5 -45t71.5 -15q42 0 70 14.5t44.5 44.5t23.5 75t7 105v813h209v-821q0 -94 -19 -169t-61.5 -128t-111 -81.5
t-168.5 -28.5z" />
    <glyph glyph-name="Udieresis.sc" horiz-adv-x="907" 
d="M514 1527h190v-219h-190v219zM206 1527h191v-219h-191v219zM453 -16q-99 0 -167 28.5t-110 81t-61 127.5t-19 168v823h215v-811q0 -60 7 -105.5t24 -75.5t45.5 -45t71.5 -15q42 0 70 14.5t44.5 44.5t23.5 75t7 105v813h209v-821q0 -94 -19 -169t-61.5 -128t-111 -81.5
t-168.5 -28.5z" />
    <glyph glyph-name="Utilde.sc" horiz-adv-x="907" 
d="M453 -16q-99 0 -167 28.5t-110 81t-61 127.5t-19 168v823h215v-811q0 -60 7 -105.5t24 -75.5t45.5 -45t71.5 -15q42 0 70 14.5t44.5 44.5t23.5 75t7 105v813h209v-821q0 -94 -19 -169t-61.5 -128t-111 -81.5t-168.5 -28.5zM163 1292q0 149 44.5 215.5t125.5 66.5
q40 0 73 -18t61 -39t53 -39t49 -18q28 0 42.5 23.5t14.5 86.5h117q0 -149 -44 -215.5t-126 -66.5q-40 0 -73 18t-61.5 39t-53.5 39t-48 18q-29 0 -43 -24t-14 -86h-117z" />
    <glyph glyph-name="Umacron.sc" horiz-adv-x="907" 
d="M210 1478h486v-170h-486v170zM453 -16q-99 0 -167 28.5t-110 81t-61 127.5t-19 168v823h215v-811q0 -60 7 -105.5t24 -75.5t45.5 -45t71.5 -15q42 0 70 14.5t44.5 44.5t23.5 75t7 105v813h209v-821q0 -94 -19 -169t-61.5 -128t-111 -81.5t-168.5 -28.5z" />
    <glyph glyph-name="Ubreve.sc" horiz-adv-x="907" 
d="M453 -16q-99 0 -167 28.5t-110 81t-61 127.5t-19 168v823h215v-811q0 -60 7 -105.5t24 -75.5t45.5 -45t71.5 -15q42 0 70 14.5t44.5 44.5t23.5 75t7 105v813h209v-821q0 -94 -19 -169t-61.5 -128t-111 -81.5t-168.5 -28.5zM454 1298q-63 0 -107.5 23t-74 66.5t-44.5 106
t-18 142.5h133q8 -100 33 -147.5t78 -47.5q51 0 76 47.5t35 147.5h131q-3 -80 -18 -142.5t-44 -106t-73.5 -66.5t-106.5 -23z" />
    <glyph glyph-name="Uring.sc" horiz-adv-x="907" 
d="M452 1271q-41 0 -74 17t-55.5 46.5t-34.5 69.5t-12 86t12 86t34.5 69.5t55.5 46.5t74 17q42 0 75 -17t56.5 -46.5t36 -69.5t12.5 -86t-12 -86t-35.5 -69.5t-57 -46.5t-75.5 -17zM452 1374q18 0 30 10t19.5 26t11 36.5t3.5 41.5t-3.5 41t-11 35.5t-19.5 25t-30 9.5
q-17 0 -28.5 -9.5t-18 -25t-9.5 -35.5t-3 -41t3 -41.5t9.5 -36.5t18 -26t28.5 -10zM453 -16q-99 0 -167 28.5t-110 81t-61 127.5t-19 168v823h215v-811q0 -60 7 -105.5t24 -75.5t45.5 -45t71.5 -15q42 0 70 14.5t44.5 44.5t23.5 75t7 105v813h209v-821q0 -94 -19 -169
t-61.5 -128t-111 -81.5t-168.5 -28.5z" />
    <glyph glyph-name="Uhungarumlaut.sc" horiz-adv-x="907" 
d="M624 1630h215l-211 -320h-143zM342 1630h213l-207 -320h-144zM453 -16q-99 0 -167 28.5t-110 81t-61 127.5t-19 168v823h215v-811q0 -60 7 -105.5t24 -75.5t45.5 -45t71.5 -15q42 0 70 14.5t44.5 44.5t23.5 75t7 105v813h209v-821q0 -94 -19 -169t-61.5 -128t-111 -81.5
t-168.5 -28.5z" />
    <glyph glyph-name="Uogonek.sc" horiz-adv-x="907" 
d="M471 -393q-89 0 -129.5 45t-40.5 115q0 34 10 68.5t27 66.5t40.5 59.5t49.5 48.5h112q-21 -19 -39.5 -43.5t-32 -51.5t-21 -55t-7.5 -53q0 -43 18 -66.5t56 -23.5q37 0 66.5 14t58.5 36l57 -62q-46 -42 -101.5 -70t-123.5 -28zM453 -16q-99 0 -167 28.5t-110 81
t-61 127.5t-19 168v823h215v-811q0 -60 7 -105.5t24 -75.5t45.5 -45t71.5 -15q42 0 70 14.5t44.5 44.5t23.5 75t7 105v813h209v-821q0 -94 -19 -169t-61.5 -128t-111 -81.5t-168.5 -28.5z" />
    <glyph glyph-name="V.sc" horiz-adv-x="836" 
d="M317 -6l-286 1218h205l149 -714q11 -59 20.5 -119.5t18.5 -114.5h4q6 46 13.5 100t21.5 134l147 714h195l-289 -1218h-199z" />
    <glyph glyph-name="W.sc" horiz-adv-x="1190" 
d="M41 1212h201l96 -639q9 -65 17.5 -124.5t15.5 -122.5h2q8 65 17.5 122.5t19.5 122.5l104 641h172l100 -639q11 -65 19.5 -122t17.5 -125h2q4 34 8 62.5t8.5 56t9 58t9.5 68.5l90 641h189l-221 -1214h-185l-139 868h-2l-143 -868h-187z" />
    <glyph glyph-name="Wcircumflex.sc" horiz-adv-x="1190" 
d="M522 1628h145l182 -326h-129l-129 156l-125 -156h-129zM41 1212h201l96 -639q9 -65 17.5 -124.5t15.5 -122.5h2q8 65 17.5 122.5t19.5 122.5l104 641h172l100 -639q11 -65 19.5 -122t17.5 -125h2q4 34 8 62.5t8.5 56t9 58t9.5 68.5l90 641h189l-221 -1214h-185l-139 868
h-2l-143 -868h-187z" />
    <glyph glyph-name="Wgrave.sc" horiz-adv-x="1190" 
d="M41 1212h201l96 -639q9 -65 17.5 -124.5t15.5 -122.5h2q8 65 17.5 122.5t19.5 122.5l104 641h172l100 -639q11 -65 19.5 -122t17.5 -125h2q4 34 8 62.5t8.5 56t9 58t9.5 68.5l90 641h189l-221 -1214h-185l-139 868h-2l-143 -868h-187zM315 1628h217l136 -320h-150z" />
    <glyph glyph-name="Wacute.sc" horiz-adv-x="1190" 
d="M41 1212h201l96 -639q9 -65 17.5 -124.5t15.5 -122.5h2q8 65 17.5 122.5t19.5 122.5l104 641h172l100 -639q11 -65 19.5 -122t17.5 -125h2q4 34 8 62.5t8.5 56t9 58t9.5 68.5l90 641h189l-221 -1214h-185l-139 868h-2l-143 -868h-187zM657 1628h217l-203 -320h-151z" />
    <glyph glyph-name="Wdieresis.sc" horiz-adv-x="1190" 
d="M653 1525h190v-219h-190v219zM345 1525h191v-219h-191v219zM41 1212h201l96 -639q9 -65 17.5 -124.5t15.5 -122.5h2q8 65 17.5 122.5t19.5 122.5l104 641h172l100 -639q11 -65 19.5 -122t17.5 -125h2q4 34 8 62.5t8.5 56t9 58t9.5 68.5l90 641h189l-221 -1214h-185
l-139 868h-2l-143 -868h-187z" />
    <glyph glyph-name="X.sc" horiz-adv-x="838" 
d="M33 0l276 647l-241 565h211l149 -374l147 374h185l-236 -567l273 -645h-209l-185 457l-182 -457h-188z" />
    <glyph glyph-name="Y.sc" horiz-adv-x="791" 
d="M291 0v453l-275 759h207l121 -366q7 -23 14.5 -49.5t15.5 -53.5t15 -51t12 -41h5q4 17 11.5 43t16 54.5t16.5 55t13 44.5l117 364h196l-276 -759v-453h-209z" />
    <glyph glyph-name="Yacute.sc" horiz-adv-x="791" 
d="M426 1630h217l-203 -320h-151zM291 0v453l-275 759h207l121 -366q7 -23 14.5 -49.5t15.5 -53.5t15 -51t12 -41h5q4 17 11.5 43t16 54.5t16.5 55t13 44.5l117 364h196l-276 -759v-453h-209z" />
    <glyph glyph-name="Ycircumflex.sc" horiz-adv-x="791" 
d="M324 1628h145l182 -326h-129l-129 156l-125 -156h-129zM291 0v453l-275 759h207l121 -366q7 -23 14.5 -49.5t15.5 -53.5t15 -51t12 -41h5q4 17 11.5 43t16 54.5t16.5 55t13 44.5l117 364h196l-276 -759v-453h-209z" />
    <glyph glyph-name="Ydieresis.sc" horiz-adv-x="791" 
d="M461 1527h190v-219h-190v219zM153 1527h191v-219h-191v219zM291 0v453l-275 759h207l121 -366q7 -23 14.5 -49.5t15.5 -53.5t15 -51t12 -41h5q4 17 11.5 43t16 54.5t16.5 55t13 44.5l117 364h196l-276 -759v-453h-209z" />
    <glyph glyph-name="Ygrave.sc" horiz-adv-x="791" 
d="M291 0v453l-275 759h207l121 -366q7 -23 14.5 -49.5t15.5 -53.5t15 -51t12 -41h5q4 17 11.5 43t16 54.5t16.5 55t13 44.5l117 364h196l-276 -759v-453h-209zM141 1628h217l136 -320h-150z" />
    <glyph glyph-name="Z.sc" horiz-adv-x="786" 
d="M47 0v150l440 888h-407v174h649v-149l-440 -891h440v-172h-682z" />
    <glyph glyph-name="Zacute.sc" horiz-adv-x="786" 
d="M422 1630h217l-203 -320h-151zM47 0v150l440 888h-407v174h649v-149l-440 -891h440v-172h-682z" />
    <glyph glyph-name="Zdotaccent.sc" horiz-adv-x="786" 
d="M47 0v150l440 888h-407v174h649v-149l-440 -891h440v-172h-682zM278 1529h230v-215h-230v215z" />
    <glyph glyph-name="Zcaron.sc" horiz-adv-x="786" 
d="M135 1632h131l127 -156l127 156h129l-184 -326h-145zM47 0v150l440 888h-407v174h649v-149l-440 -891h440v-172h-682z" />
    <glyph glyph-name="AE.sc" horiz-adv-x="1196" 
d="M463 1214h665v-170h-362v-325h258v-158h-258v-397h383v-164h-582v328h-233l-121 -328h-188zM567 469v530h-2l-178 -530h180z" />
    <glyph glyph-name="Eth.sc" horiz-adv-x="903" 
d="M106 565h-75v144h75v503h265q111 0 198 -27.5t147 -96.5t91 -185.5t31 -294.5t-32 -295.5t-92 -187t-146.5 -97.5t-196.5 -28h-265v565zM395 174q67 0 112 26.5t72 80t38.5 134.5t11.5 191q0 108 -11.5 189t-39 134.5t-73 80t-112.5 26.5h-76v-327h132v-144h-132v-391h78
z" />
    <glyph glyph-name="Oslash.sc" horiz-adv-x="926" 
d="M467 -16q-69 0 -128.5 23t-107.5 71l-84 -156l-124 70l118 198q-37 76 -56 179t-19 239q0 163 29 280.5t81.5 193.5t126.5 111.5t164 35.5q63 0 117.5 -20t99.5 -62l86 151l121 -71l-109 -185q42 -75 65 -182.5t23 -251.5q0 -164 -30 -282t-83.5 -194t-127.5 -112
t-162 -36zM274 637q0 -53 5 -103t14 -88l305 529q-22 38 -56.5 58t-74.5 20q-97 0 -144.5 -102t-48.5 -314zM467 158q101 0 149 109t48 341q0 25 -1.5 52.5t-4.5 53.5t-7.5 49.5t-9.5 39.5l-317 -549q23 -48 60 -72t83 -24z" />
    <glyph glyph-name="Thorn.sc" horiz-adv-x="846" 
d="M111 1212h211v-188h102q71 0 137.5 -16.5t117.5 -58.5t81.5 -115t30.5 -187q0 -82 -15 -142.5t-41 -103.5t-62 -70.5t-77 -43t-86 -21.5t-90 -6h-101v-260h-208v1212zM432 426q84 0 122 50.5t38 166.5q0 113 -38 162t-122 49h-110v-428h110z" />
    <glyph glyph-name="Dcroat.sc" horiz-adv-x="903" 
d="M106 565h-75v144h75v503h265q111 0 198 -27.5t147 -96.5t91 -185.5t31 -294.5t-32 -295.5t-92 -187t-146.5 -97.5t-196.5 -28h-265v565zM395 174q67 0 112 26.5t72 80t38.5 134.5t11.5 191q0 108 -11.5 189t-39 134.5t-73 80t-112.5 26.5h-76v-327h132v-144h-132v-391h78
z" />
    <glyph glyph-name="Hbar.sc" horiz-adv-x="940" 
d="M29 1022h75v190h213v-190h306v190h213v-190h79v-145h-79v-877h-213v532h-306v-532h-213v877h-75v145zM623 705v172h-306v-172h306z" />
    <glyph glyph-name="IJ.sc" horiz-adv-x="1085" 
d="M117 0v1212h209v-1212h-209zM520 213q32 -22 68 -33.5t79 -11.5q25 0 46 5.5t35 19.5t22 37.5t8 60.5v921h213v-938q0 -153 -78 -221.5t-219 -68.5q-84 0 -153.5 16t-119.5 53z" />
    <glyph glyph-name="Ldot.sc" horiz-adv-x="827" 
d="M520 752h209v-209h-209v209zM104 0v1212h213v-1036h359v-176h-572z" />
    <glyph glyph-name="Lslash.sc" horiz-adv-x="709" 
d="M676 0h-570v510l-77 -27v164l77 27v538h211v-462l125 43v-162l-125 -43v-412h359v-176z" />
    <glyph glyph-name="Eng.sc" horiz-adv-x="903" 
d="M109 1212h198l248 -626q20 -51 37 -95t33 -94h2v815h168v-1335q0 -77 -17 -131.5t-49 -89.5t-78.5 -51.5t-105.5 -16.5q-90 0 -153 24t-109 56l84 152q34 -26 71 -41t80 -15q51 0 80 28t29 99v84l-285 695q-19 46 -33.5 85.5t-29.5 84.5h-3v-840h-167v1212z" />
    <glyph glyph-name="OE.sc" horiz-adv-x="1270" 
d="M430 -16q-74 0 -140 35.5t-116 111t-79 193.5t-29 284q0 168 30 286.5t81 192.5t117.5 108t139.5 34q82 0 137.5 -33.5t90.5 -95.5v112h542v-178h-356v-311h252v-170h-252v-379h375v-174h-561v115q-38 -68 -95.5 -99.5t-136.5 -31.5zM463 158q92 0 138 108.5t46 341.5
q0 230 -46 336.5t-138 106.5t-138 -106.5t-46 -336.5q0 -233 46 -341.5t138 -108.5z" />
    <glyph glyph-name="Tbar.sc" horiz-adv-x="766" 
d="M33 633h243v401h-243v178h700v-178h-244v-401h242v-146h-242v-487h-213v487h-243v146z" />
    <glyph glyph-name="commaaccent.scrap" horiz-adv-x="453" 
d="M123 1393l100 233h74l-57 -217h90v-215h-207v199z" />
    <glyph glyph-name="ordfeminine.sc" horiz-adv-x="700" 
d="M260 1214h182l185 -768h-160l-37 166h-164l-41 -166h-153zM410 721l-45 223q-5 19 -10 45t-7 41h-2q-2 -15 -5.5 -41t-8.5 -45l-45 -223h123z" />
    <glyph glyph-name="ordmasculine.sc" horiz-adv-x="682" 
d="M342 430q-60 0 -109.5 24.5t-85.5 74.5t-55.5 124.5t-19.5 175.5q0 102 19.5 177t55 124.5t85 74t110.5 24.5q59 0 108.5 -24.5t85 -74t55 -124.5t19.5 -177q0 -101 -19.5 -175.5t-55 -124.5t-85 -74.5t-108.5 -24.5zM342 565q59 0 81.5 66.5t22.5 197.5q0 60 -4.5 108.5
t-16 83t-32 53t-51.5 18.5q-60 0 -84.5 -66.5t-24.5 -196.5q0 -60 5 -108.5t17.5 -83t33.5 -53.5t53 -19z" />
    <glyph glyph-name="germandbls.sc" horiz-adv-x="1675" 
d="M424 -16q-84 0 -147.5 21t-110 64t-77.5 107.5t-50 151.5l190 37q28 -114 73 -164.5t122 -50.5q72 0 109.5 37.5t37.5 97.5q0 36 -16 68t-44.5 63t-67.5 61.5t-85 63.5q-57 39 -106 78t-85 85t-56.5 101t-20.5 127q0 67 23 122t65 94t100.5 60t129.5 21q78 0 135.5 -20.5
t99.5 -61t70.5 -99.5t48.5 -137l-182 -45q-25 102 -64.5 146.5t-101.5 44.5q-60 0 -92.5 -33t-32.5 -90q0 -37 16 -68.5t43 -61t63.5 -58t77.5 -58.5q55 -39 106 -79t90 -87t62 -103.5t23 -129.5q0 -65 -21.5 -121t-65 -97t-108 -64t-151.5 -23zM1261 -16q-84 0 -147.5 21
t-110 64t-77.5 107.5t-50 151.5l190 37q28 -114 73 -164.5t122 -50.5q72 0 109.5 37.5t37.5 97.5q0 36 -16 68t-44.5 63t-67.5 61.5t-85 63.5q-57 39 -106 78t-85 85t-56.5 101t-20.5 127q0 67 23 122t65 94t100.5 60t129.5 21q78 0 135.5 -20.5t99.5 -61t70.5 -99.5
t48.5 -137l-182 -45q-25 102 -64.5 146.5t-101.5 44.5q-60 0 -92.5 -33t-32.5 -90q0 -37 16 -68.5t43 -61t63.5 -58t77.5 -58.5q55 -39 106 -79t90 -87t62 -103.5t23 -129.5q0 -65 -21.5 -121t-65 -97t-108 -64t-151.5 -23z" />
    <glyph glyph-name="florin.sc" horiz-adv-x="573" 
d="M-88 -174q8 -2 20 -3t29 -1q90 0 102 94q2 11 8.5 55.5t15.5 107.5t20 136.5t21 143t18.5 126.5t13.5 88h-105l19 144h104l41 272q9 58 26 100t49 70t82 41.5t124 13.5q7 0 19 -0.5t23.5 -0.5t21 -0.5t11.5 -0.5l-20 -151q-11 3 -24.5 3.5t-22.5 0.5q-42 0 -67 -17.5
t-33 -68.5q-9 -52 -16 -100q-7 -42 -13 -86.5t-10 -75.5h131l-21 -144h-129q-5 -31 -12.5 -84.5t-17 -119t-20 -136t-20 -136t-17.5 -119t-13 -84.5q-10 -62 -29 -104.5t-50.5 -68.5t-78 -37.5t-110.5 -11.5q-13 0 -28 0.5t-28 0.5t-22.5 0.5t-12.5 0.5z" />
    <glyph glyph-name="florin.tab" 
d="M72 -233q9 -2 25 -3.5t28 -1.5q56 0 90 26t43 95l119 838h-129q1 4 4 28t7 53t7 54t4 31h129l50 350q10 78 33 131.5t63 86.5t99.5 48t143.5 15q9 0 22.5 -0.5t26 -0.5t22 -0.5t11.5 -0.5l-24 -177q-9 2 -25 3t-28 1q-26 0 -47.5 -5t-39 -17.5t-29 -35t-15.5 -56.5
l-50 -342h160l-20 -166h-162l-121 -860q-12 -78 -34 -130.5t-59.5 -83.5t-93 -44t-132.5 -13q-15 0 -32 0.5t-32 0.5t-25.5 0.5t-13.5 0.5z" />
    <glyph glyph-name="i.trk" horiz-adv-x="424" 
d="M102 1473h217v-222h-217v222zM104 1085h215v-1085h-215v1085z" />
    <glyph glyph-name="zero.dnom" horiz-adv-x="682" 
d="M343 -12q-66 0 -118.5 26t-89 83.5t-56 148.5t-19.5 221q0 129 19.5 220.5t56 149.5t89 85t118.5 27q67 0 119.5 -27t89 -85t55.5 -149.5t19 -220.5q0 -130 -19 -221t-55.5 -148.5t-89 -83.5t-119.5 -26zM343 123q63 0 88 82.5t25 261.5q0 90 -6 154.5t-19 105.5
t-35 60.5t-53 19.5q-32 0 -53.5 -19.5t-34.5 -60.5t-19 -105.5t-6 -154.5q0 -179 25.5 -261.5t87.5 -82.5z" />
    <glyph glyph-name="one.dnom" horiz-adv-x="457" 
d="M44 144h119v612q-25 -12 -55.5 -19t-61.5 -7v149q85 3 127 60h158v-795h106v-141h-393v141z" />
    <glyph glyph-name="two.dnom" horiz-adv-x="594" 
d="M40 29q0 79 14.5 139t38 106t53.5 81.5t61.5 66t62 59t54 60t38 70t14.5 88.5q0 53 -19 80.5t-59 27.5q-20 0 -35 -7t-27 -23.5t-21.5 -44.5t-16.5 -70l-152 25q22 127 84 194.5t180 67.5q115 0 173.5 -64.5t58.5 -179.5q0 -73 -22.5 -128.5t-56.5 -101t-74.5 -84
t-76.5 -76.5t-61.5 -79t-30.5 -92h322v-141h-502v26z" />
    <glyph glyph-name="three.dnom" horiz-adv-x="592" 
d="M286 -12q-63 0 -107.5 16t-75 46.5t-50.5 75t-34 100.5l152 28q17 -72 43 -101.5t70 -29.5q55 0 75.5 40t20.5 114q0 41 -8.5 69.5t-29 46.5t-53.5 26t-81 8h-39v131h49q45 0 74.5 6.5t46 22.5t23 41.5t6.5 64.5q0 27 -3.5 49t-12.5 37.5t-24.5 24t-39.5 8.5
q-42 0 -64.5 -31t-38.5 -80l-143 41q28 95 90.5 151t163.5 56q63 0 107.5 -17t72 -47.5t40.5 -73t13 -94.5q0 -169 -114 -215q67 -26 98 -84t31 -164q0 -59 -15.5 -108t-47.5 -84t-80.5 -54.5t-114.5 -19.5z" />
    <glyph glyph-name="four.dnom" horiz-adv-x="627" 
d="M335 197h-307v119l294 623h168v-607h101v-135h-101v-201h-155v201zM337 332v365l-168 -365h168z" />
    <glyph glyph-name="five.dnom" horiz-adv-x="635" 
d="M312 -16q-68 0 -113 16.5t-74.5 46.5t-46 72.5t-28.5 94.5l150 30q9 -35 18 -59t21.5 -40t29.5 -23t41 -7q31 0 50.5 15t30.5 41.5t14.5 61.5t3.5 75q0 90 -20 137t-71 47q-41 0 -62 -20t-38 -58l-139 19l24 506h443l-11 -142h-292l-11 -231q19 25 50.5 44t87.5 19
q48 0 86.5 -17t65.5 -55t41.5 -98t14.5 -147q0 -86 -18 -148t-52 -102t-83.5 -59t-112.5 -19z" />
    <glyph glyph-name="six.dnom" horiz-adv-x="643" 
d="M331 -16q-63 0 -113 27t-85.5 83.5t-54 144.5t-18.5 210q0 119 14 211.5t47 156.5t87 97t135 33q53 0 91.5 -15.5t66 -41t44.5 -59.5t27 -71l-143 -45q-14 47 -35 73t-59 26q-32 0 -53 -18t-34 -53.5t-18 -89t-6 -124.5q32 32 70.5 53t89.5 21q56 0 95.5 -22t64 -61.5
t36 -93.5t11.5 -118q0 -72 -15.5 -131.5t-47 -102t-81 -66.5t-116.5 -24zM335 119q96 0 96 178q0 79 -18 123.5t-72 44.5q-31 0 -61.5 -16.5t-53.5 -48.5q3 -145 29.5 -213t79.5 -68z" />
    <glyph glyph-name="seven.dnom" horiz-adv-x="543" 
d="M347 797h-309v142h475v-134l-262 -809h-166z" />
    <glyph glyph-name="eight.dnom" horiz-adv-x="637" 
d="M320 -20q-70 0 -121 19.5t-84.5 52.5t-50 77t-16.5 93q0 48 13.5 87t36 71.5t51 59t59.5 48.5q-26 21 -49.5 43t-41 49.5t-28 63t-10.5 82.5q0 48 15.5 90t46 73.5t75.5 49.5t104 18q61 0 106 -18t75 -49.5t44.5 -73.5t14.5 -90q0 -77 -37.5 -135t-91.5 -99
q31 -22 60 -46.5t51.5 -55.5t35.5 -71.5t13 -94.5q0 -51 -17.5 -95.5t-51.5 -77.5t-85 -52t-117 -19zM318 107q56 0 84.5 34t28.5 93q0 28 -9.5 52t-25 45t-37 40.5t-45.5 38.5q-21 -17 -40.5 -36t-34.5 -41t-24 -47.5t-9 -55.5q0 -54 28.5 -88.5t83.5 -34.5zM327 564
q35 31 60.5 67t25.5 84q0 23 -5.5 43.5t-16.5 35.5t-28.5 23.5t-42.5 8.5q-46 0 -67 -31t-21 -76q0 -27 7.5 -48.5t20.5 -40t30 -35t37 -31.5z" />
    <glyph glyph-name="nine.dnom" horiz-adv-x="643" 
d="M302 -16q-52 0 -90.5 15.5t-66 41.5t-45 60t-27.5 70l145 45q14 -45 33 -73t59 -28q33 0 54 18.5t33.5 54.5t17.5 89.5t6 124.5q-31 -31 -69 -51.5t-91 -20.5q-55 0 -94.5 22t-64.5 61.5t-36.5 93.5t-11.5 118q0 72 15.5 131t47.5 101.5t81 66t116 23.5q63 0 113.5 -27
t86 -83.5t54.5 -144.5t19 -210q0 -119 -14.5 -211.5t-47.5 -156t-87.5 -97t-135.5 -33.5zM306 463q64 0 115 66q-3 145 -29.5 212.5t-79.5 67.5q-51 0 -73.5 -44t-22.5 -134q0 -39 3.5 -70t13.5 -53t27.5 -33.5t45.5 -11.5z" />
    <glyph glyph-name="zero.numr" horiz-adv-x="682" 
d="M343 557q-66 0 -118.5 26t-89 83.5t-56 148.5t-19.5 221q0 129 19.5 220.5t56 149.5t89 85t118.5 27q67 0 119.5 -27t89 -85t55.5 -149.5t19 -220.5q0 -130 -19 -221t-55.5 -148.5t-89 -83.5t-119.5 -26zM343 692q63 0 88 82.5t25 261.5q0 90 -6 154.5t-19 105.5
t-35 60.5t-53 19.5q-32 0 -53.5 -19.5t-34.5 -60.5t-19 -105.5t-6 -154.5q0 -179 25.5 -261.5t87.5 -82.5z" />
    <glyph glyph-name="one.numr" horiz-adv-x="457" 
d="M44 713h119v612q-25 -12 -55.5 -19t-61.5 -7v149q85 3 127 60h158v-795h106v-141h-393v141z" />
    <glyph glyph-name="two.numr" horiz-adv-x="594" 
d="M40 598q0 79 14.5 139t38 106t53.5 81.5t61.5 66t62 59t54 60t38 70t14.5 88.5q0 53 -19 80.5t-59 27.5q-20 0 -35 -7t-27 -23.5t-21.5 -44.5t-16.5 -70l-152 25q22 127 84 194.5t180 67.5q115 0 173.5 -64.5t58.5 -179.5q0 -73 -22.5 -128.5t-56.5 -101t-74.5 -84
t-76.5 -76.5t-61.5 -79t-30.5 -92h322v-141h-502v26z" />
    <glyph glyph-name="three.numr" horiz-adv-x="592" 
d="M286 557q-63 0 -107.5 16t-75 46.5t-50.5 75t-34 100.5l152 28q17 -72 43 -101.5t70 -29.5q55 0 75.5 40t20.5 114q0 41 -8.5 69.5t-29 46.5t-53.5 26t-81 8h-39v131h49q45 0 74.5 6.5t46 22.5t23 41.5t6.5 64.5q0 27 -3.5 49t-12.5 37.5t-24.5 24t-39.5 8.5
q-42 0 -64.5 -31t-38.5 -80l-143 41q28 95 90.5 151t163.5 56q63 0 107.5 -17t72 -47.5t40.5 -73t13 -94.5q0 -169 -114 -215q67 -26 98 -84t31 -164q0 -59 -15.5 -108t-47.5 -84t-80.5 -54.5t-114.5 -19.5z" />
    <glyph glyph-name="four.numr" horiz-adv-x="627" 
d="M335 766h-307v119l294 623h168v-607h101v-135h-101v-201h-155v201zM337 901v365l-168 -365h168z" />
    <glyph glyph-name="five.numr" horiz-adv-x="635" 
d="M312 553q-68 0 -113 16.5t-74.5 46.5t-46 72.5t-28.5 94.5l150 30q9 -35 18 -59t21.5 -40t29.5 -23t41 -7q31 0 50.5 15t30.5 41.5t14.5 61.5t3.5 75q0 90 -20 137t-71 47q-41 0 -62 -20t-38 -58l-139 19l24 506h443l-11 -142h-292l-11 -231q19 25 50.5 44t87.5 19
q48 0 86.5 -17t65.5 -55t41.5 -98t14.5 -147q0 -86 -18 -148t-52 -102t-83.5 -59t-112.5 -19z" />
    <glyph glyph-name="six.numr" horiz-adv-x="643" 
d="M331 553q-63 0 -113 27t-85.5 83.5t-54 144.5t-18.5 210q0 119 14 211.5t47 156.5t87 97t135 33q53 0 91.5 -15.5t66 -41t44.5 -59.5t27 -71l-143 -45q-14 47 -35 73t-59 26q-32 0 -53 -18t-34 -53.5t-18 -89t-6 -124.5q32 32 70.5 53t89.5 21q56 0 95.5 -22t64 -61.5
t36 -93.5t11.5 -118q0 -72 -15.5 -131.5t-47 -102t-81 -66.5t-116.5 -24zM335 688q96 0 96 178q0 79 -18 123.5t-72 44.5q-31 0 -61.5 -16.5t-53.5 -48.5q3 -145 29.5 -213t79.5 -68z" />
    <glyph glyph-name="seven.numr" horiz-adv-x="543" 
d="M347 1366h-309v142h475v-134l-262 -809h-166z" />
    <glyph glyph-name="eight.numr" horiz-adv-x="637" 
d="M320 549q-70 0 -121 19.5t-84.5 52.5t-50 77t-16.5 93q0 48 13.5 87t36 71.5t51 59t59.5 48.5q-26 21 -49.5 43t-41 49.5t-28 63t-10.5 82.5q0 48 15.5 90t46 73.5t75.5 49.5t104 18q61 0 106 -18t75 -49.5t44.5 -73.5t14.5 -90q0 -77 -37.5 -135t-91.5 -99
q31 -22 60 -46.5t51.5 -55.5t35.5 -71.5t13 -94.5q0 -51 -17.5 -95.5t-51.5 -77.5t-85 -52t-117 -19zM318 676q56 0 84.5 34t28.5 93q0 28 -9.5 52t-25 45t-37 40.5t-45.5 38.5q-21 -17 -40.5 -36t-34.5 -41t-24 -47.5t-9 -55.5q0 -54 28.5 -88.5t83.5 -34.5zM327 1133
q35 31 60.5 67t25.5 84q0 23 -5.5 43.5t-16.5 35.5t-28.5 23.5t-42.5 8.5q-46 0 -67 -31t-21 -76q0 -27 7.5 -48.5t20.5 -40t30 -35t37 -31.5z" />
    <glyph glyph-name="nine.numr" horiz-adv-x="643" 
d="M302 553q-52 0 -90.5 15.5t-66 41.5t-45 60t-27.5 70l145 45q14 -45 33 -73t59 -28q33 0 54 18.5t33.5 54.5t17.5 89.5t6 124.5q-31 -31 -69 -51.5t-91 -20.5q-55 0 -94.5 22t-64.5 61.5t-36.5 93.5t-11.5 118q0 72 15.5 131t47.5 101.5t81 66t116 23.5q63 0 113.5 -27
t86 -83.5t54.5 -144.5t19 -210q0 -119 -14.5 -211.5t-47.5 -156t-87.5 -97t-135.5 -33.5zM306 1032q64 0 115 66q-3 145 -29.5 212.5t-79.5 67.5q-51 0 -73.5 -44t-22.5 -134q0 -39 3.5 -70t13.5 -53t27.5 -33.5t45.5 -11.5z" />
    <glyph glyph-name="zero.salt_slash" horiz-adv-x="981" 
d="M489 -16q-106 0 -185.5 43t-133 136t-80.5 240t-27 355t27 355.5t80.5 241t133 136.5t185.5 43q108 0 188.5 -43t134 -136.5t80 -241t26.5 -355.5t-26.5 -355t-80 -240t-134 -136t-188.5 -43zM285 758q0 -67 2 -124.5t6 -107.5l361 668q-26 83 -67 117.5t-98 34.5
q-52 0 -90.5 -28.5t-63.5 -96.5t-37.5 -181t-12.5 -282zM489 166q54 0 93 29.5t64.5 98.5t37.5 182.5t12 281.5q0 65 -2 121t-6 105l-360 -666q26 -83 66 -117.5t95 -34.5z" />
    <glyph glyph-name="zero.sc" horiz-adv-x="874" 
d="M438 -18q-90 0 -159 35t-115.5 110.5t-70 194.5t-23.5 286q0 166 23.5 284t70 193t115.5 109.5t159 34.5q91 0 159.5 -34.5t114.5 -109.5t69.5 -193t23.5 -284q0 -167 -23.5 -286t-69.5 -194.5t-114.5 -110.5t-159.5 -35zM438 147q41 0 70.5 23t49 76.5t29 142t9.5 219.5
q0 130 -10 217t-29.5 140t-49.5 75.5t-69 22.5q-41 0 -71 -22.5t-49.5 -75.5t-29 -140t-9.5 -217q0 -131 10.5 -219.5t30.5 -142t50 -76.5t68 -23z" />
    <glyph glyph-name="one.sc" horiz-adv-x="666" 
d="M72 0v176h182v832q-18 -13 -40.5 -24.5t-46.5 -19.5t-48.5 -13t-46.5 -5v180q59 2 106.5 23t79.5 63h199v-1036h159v-176h-544z" />
    <glyph glyph-name="two.sc" horiz-adv-x="805" 
d="M68 0v31q0 103 20.5 182t56 142t83.5 114.5t104 99.5q47 41 84 76t63 72.5t39.5 82t13.5 103.5q0 84 -30 122t-92 38q-29 0 -52 -11t-40.5 -34.5t-30.5 -61.5t-23 -92l-188 27q26 163 110.5 251.5t235.5 88.5q75 0 132 -22.5t96 -64.5t59 -101t20 -132q0 -71 -15 -129.5
t-43 -108.5t-68 -94t-89 -85q-53 -45 -95.5 -84.5t-72.5 -77t-46 -76t-17 -82.5h448v-174h-663z" />
    <glyph glyph-name="three.sc" horiz-adv-x="813" 
d="M408 -18q-84 0 -143.5 21t-100.5 60.5t-65.5 97t-39.5 130.5l177 35q12 -49 26 -83t33 -55.5t45 -31t61 -9.5q76 0 109 53t33 150q0 59 -9.5 99.5t-32.5 65t-63.5 35.5t-101.5 11h-66v156h76q51 0 85.5 10t55.5 32.5t30 59t9 90.5q0 73 -28 112.5t-97 39.5q-55 0 -88 -36
t-55 -105l-170 41q18 60 45.5 110t68 85.5t95 55t125.5 19.5q80 0 136.5 -22t92.5 -62.5t53 -97.5t17 -127q0 -55 -11 -101.5t-33.5 -82.5t-56.5 -60.5t-81 -34.5q97 -20 150.5 -93t53.5 -214q0 -78 -20 -143.5t-61 -112t-104 -72.5t-150 -26z" />
    <glyph glyph-name="four.sc" horiz-adv-x="854" 
d="M471 0v264h-420v142l404 806h215v-784h139v-164h-139v-264h-199zM242 428h233v475h-2z" />
    <glyph glyph-name="five.sc" horiz-adv-x="813" 
d="M397 -16q-88 0 -146.5 22.5t-96 63t-58.5 96.5t-35 123l183 30q18 -91 52 -132.5t93 -41.5q42 0 71.5 17.5t48 50.5t26.5 80.5t8 107.5q0 133 -32.5 193.5t-98.5 60.5q-56 0 -89.5 -32t-56.5 -95l-164 27l35 657h559l-12 -174h-377l-20 -321q21 40 68.5 68t119.5 28
q62 0 112 -23.5t84.5 -72.5t53 -126t18.5 -183q0 -212 -85.5 -318t-260.5 -106z" />
    <glyph glyph-name="six.sc" horiz-adv-x="823" 
d="M424 -20q-84 0 -150 33.5t-111.5 106t-70 187t-24.5 277.5q0 147 20.5 266.5t65.5 203.5t116.5 129.5t173.5 45.5q61 0 109.5 -16.5t84.5 -47.5t61 -75.5t40 -100.5l-172 -51q-20 63 -48.5 93t-84.5 30q-47 0 -78.5 -24t-50.5 -72.5t-27.5 -123t-9.5 -175.5
q16 26 40.5 46.5t53 35t59.5 22.5t60 8q80 0 134.5 -30.5t88 -83.5t48 -123.5t14.5 -151.5q0 -90 -21.5 -165t-64.5 -129t-107 -84.5t-149 -30.5zM428 147q66 0 105.5 54t39.5 180q0 53 -6.5 94.5t-22.5 70t-43 43.5t-67 15q-45 0 -89.5 -21.5t-76.5 -64.5q3 -189 41.5 -280
t118.5 -91z" />
    <glyph glyph-name="seven.sc" horiz-adv-x="733" 
d="M135 0l344 1036h-416v176h621v-161l-348 -1051h-201z" />
    <glyph glyph-name="eight.sc" horiz-adv-x="817" 
d="M406 -23q-91 0 -158 24t-111.5 66t-66 99t-21.5 123q0 61 18 111.5t48.5 92.5t70.5 76.5t84 63.5q-37 25 -70 55t-58 67.5t-39.5 83t-14.5 101.5q0 62 21.5 115t62.5 91.5t100 60.5t134 22q78 0 137.5 -22t99 -61t60 -92t20.5 -114q0 -51 -14.5 -94.5t-39 -81t-58 -69
t-70.5 -56.5q47 -31 87.5 -64.5t70 -74.5t46.5 -92t17 -117q0 -68 -23 -125.5t-68 -99.5t-111.5 -65.5t-153.5 -23.5zM414 735q59 42 87.5 89.5t28.5 109.5q0 28 -6.5 53t-21 44t-37.5 29.5t-57 10.5q-63 0 -94 -37.5t-31 -93.5q0 -69 34.5 -116t96.5 -89zM403 131
q78 0 117 44.5t39 119.5q0 78 -42.5 135t-117.5 105q-71 -50 -110 -106.5t-39 -133.5q0 -74 39.5 -119t113.5 -45z" />
    <glyph glyph-name="nine.sc" horiz-adv-x="823" 
d="M379 -20q-62 0 -110 17.5t-84 49.5t-61 77.5t-40 102.5l170 49q11 -33 23 -57t27.5 -39t36 -22.5t48.5 -7.5q45 0 77 23.5t52 72t29 123t10 176.5q-18 -27 -42.5 -48t-53 -35.5t-59 -22t-58.5 -7.5q-81 0 -135.5 30.5t-88.5 83.5t-48.5 123.5t-14.5 151.5q0 90 21 165
t64 129t107 84t150 30q84 0 150.5 -33t113 -105t71 -186.5t24.5 -277.5q0 -148 -21 -267.5t-66.5 -204t-117.5 -130t-174 -45.5zM389 606q47 0 89 20t79 66q-3 187 -42 279t-120 92q-68 0 -106.5 -55t-38.5 -179q0 -51 7 -92.5t23 -70.5t42.5 -44.5t66.5 -15.5z" />
    <glyph glyph-name="zero.sc_salt_slash" horiz-adv-x="874" 
d="M438 -18q-90 0 -159 35t-115.5 110.5t-70 194.5t-23.5 286q0 166 23.5 284t70 193t115.5 109.5t159 34.5q91 0 159.5 -34.5t114.5 -109.5t69.5 -193t23.5 -284q0 -167 -23.5 -286t-69.5 -194.5t-114.5 -110.5t-159.5 -35zM438 147q41 0 70.5 23t49 76.5t29 142t9.5 219.5
q0 43 -1.5 80.5t-3.5 70.5l-280 -485q20 -69 52 -98t75 -29zM279 608q0 -77 3 -138l279 481q-20 61 -50.5 86.5t-72.5 25.5q-41 0 -71 -22.5t-49.5 -75.5t-29 -140t-9.5 -217z" />
    <glyph glyph-name="zero.tab" 
d="M496 -18q-108 0 -187.5 43t-131.5 136.5t-77.5 241t-25.5 355.5t25.5 355.5t77.5 241t131.5 136.5t187.5 43t187 -43t130.5 -136.5t76.5 -241t25 -355.5t-25 -355.5t-76.5 -241t-130.5 -136.5t-187 -43zM496 166q54 0 91.5 29t61 98t34.5 182.5t11 282.5t-11.5 282
t-35.5 181.5t-61.5 97.5t-89.5 29q-54 0 -92 -29t-62.5 -97.5t-35.5 -181.5t-11 -282t11.5 -282.5t36.5 -182.5t62.5 -98t90.5 -29z" />
    <glyph glyph-name="one.tab" 
d="M162 186h244v1112q-20 -14 -49.5 -26.5t-62.5 -21.5t-66.5 -14t-61.5 -5v186q36 1 72 8t68.5 19t59.5 30t46 42h213v-1330h211v-186h-674v186z" />
    <glyph glyph-name="two.tab" 
d="M96 33q0 138 27.5 242t74.5 186t109 148.5t131 129.5q48 44 88 86t69 89t45.5 101t16.5 122q0 105 -37.5 158t-115.5 53q-32 0 -61 -11.5t-54 -40t-44.5 -76t-33.5 -120.5l-198 28q34 196 135 301t270 105q87 0 153 -26.5t111 -76.5t67.5 -121.5t22.5 -162.5
q0 -96 -23.5 -173.5t-63 -143t-92 -122t-109.5 -110.5q-52 -48 -97 -95.5t-78 -97t-52.5 -103t-20.5 -114.5h538v-188h-778v33z" />
    <glyph glyph-name="three.tab" 
d="M473 -20q-97 0 -166 26.5t-116.5 74.5t-76.5 116t-46 151l192 37q15 -61 35 -103t45.5 -68.5t56 -38t68.5 -11.5q99 0 145.5 68.5t46.5 199.5q0 80 -13.5 134t-46.5 87t-89.5 47.5t-142.5 14.5h-54v176h68q80 0 130.5 13.5t79.5 43.5t39.5 77t10.5 114q0 48 -9 86.5
t-28.5 65.5t-51.5 42t-77 15q-38 0 -67 -13.5t-51 -38.5t-38.5 -60t-29.5 -77l-189 47q22 75 55 136t80 104t110 66.5t144 23.5q98 0 167 -27.5t112.5 -77.5t63.5 -119t20 -153q0 -145 -55.5 -230t-163.5 -116q61 -19 107 -50t76 -78.5t45 -114t15 -156.5
q0 -94 -24.5 -173.5t-74 -137.5t-125 -90.5t-177.5 -32.5z" />
    <glyph glyph-name="four.tab" 
d="M571 346h-510v158l486 1012h233v-992h160v-178h-160v-346h-209v346zM578 524v656h-3l-313 -656h316z" />
    <glyph glyph-name="five.tab" 
d="M481 -20q-98 0 -166 28.5t-113.5 78.5t-73 118t-42.5 147l193 35q24 -108 69 -165.5t125 -57.5q54 0 92 25t62 70t34.5 107.5t10.5 137.5q0 166 -45.5 244.5t-132.5 78.5q-66 0 -111 -43t-76 -112l-172 28l39 816h657l-12 -189h-461l-22 -436q15 24 37.5 46t51.5 38.5
t65 26.5t79 10q77 0 136.5 -28.5t100.5 -89.5t62 -156t21 -228q0 -131 -28 -230.5t-80.5 -166t-128 -100t-171.5 -33.5z" />
    <glyph glyph-name="six.tab" 
d="M508 -18q-104 0 -182 43.5t-130.5 135t-79 233t-26.5 337.5t26 346.5t80 252.5t136 154t194 52q79 0 135.5 -24.5t96.5 -65t65 -93t41 -108.5l-182 -53q-13 34 -28 63t-33.5 50t-43 33t-55.5 12q-115 0 -166.5 -128.5t-54.5 -396.5q54 62 125 97.5t149 35.5
q93 0 156 -34.5t102 -96t55.5 -147t16.5 -186.5q0 -114 -24 -208.5t-73 -162t-124 -104.5t-176 -37zM514 162q91 0 138.5 79t47.5 240q0 68 -8.5 122t-29 92t-55 58.5t-85.5 20.5q-63 0 -117.5 -30.5t-101.5 -86.5q3 -132 17.5 -226t41 -153.5t64.5 -87.5t88 -28z" />
    <glyph glyph-name="seven.tab" 
d="M653 1325h-524v191h748v-183l-433 -1333h-225z" />
    <glyph glyph-name="eight.tab" 
d="M496 -27q-108 0 -189 30t-134.5 82t-80 123t-26.5 152q0 75 22.5 138t60 115.5t87.5 97.5t104 84q-46 34 -87 70t-71.5 81t-48.5 102t-18 132t25.5 140.5t74 114.5t119.5 77t162 28q93 0 164.5 -28t119.5 -77t72.5 -114.5t24.5 -140.5q0 -64 -17 -118.5t-47.5 -101.5
t-72 -87t-89.5 -74q56 -39 106 -79.5t87.5 -91.5t59.5 -116t22 -152q0 -82 -28.5 -153t-83.5 -123t-135 -81.5t-183 -29.5zM494 150q49 0 88 15.5t66.5 44t42 69t14.5 90.5q0 51 -15.5 93.5t-44 80t-68.5 71t-88 66.5q-44 -32 -82 -65t-65.5 -70.5t-43 -81t-15.5 -94.5
q0 -48 14.5 -88t41.5 -69t66 -45.5t89 -16.5zM502 905q37 28 68 57.5t53.5 62t34.5 68.5t12 78q0 39 -10.5 73t-31.5 60t-53 41t-75 15t-75.5 -14t-54.5 -38.5t-33 -58t-11 -71.5q0 -47 13.5 -85t37 -70.5t55.5 -61t70 -56.5z" />
    <glyph glyph-name="nine.tab" 
d="M459 -20q-80 0 -137.5 25t-97.5 66.5t-66 94.5t-43 110l182 54q14 -35 29 -65.5t34.5 -53t44.5 -35t58 -12.5q57 0 98 31t67.5 95.5t39.5 164.5t14 237q-53 -60 -124 -95.5t-148 -35.5q-94 0 -157.5 33.5t-102.5 94.5t-55.5 145.5t-16.5 185.5q0 114 24.5 208.5t74 162.5
t124.5 105.5t176 37.5q103 0 181.5 -43t131 -134t79 -232.5t26.5 -338.5t-26.5 -347.5t-80.5 -252.5t-136 -154t-193 -52zM463 745q62 0 117.5 30t101.5 87q-3 128 -17.5 220.5t-41 152t-64.5 87.5t-88 28q-93 0 -140.5 -78.5t-47.5 -239.5q0 -68 8.5 -121t29.5 -90
t55.5 -56.5t86.5 -19.5z" />
    <glyph glyph-name="zero.tab_salt_slash" 
d="M494 -16q-106 0 -186 43t-133 136t-80 240t-27 355t27 355.5t80 241t133 136.5t186 43q107 0 187.5 -43t134 -136.5t80 -241t26.5 -355.5t-26.5 -355t-80 -240t-134 -136t-187.5 -43zM289 758q0 -67 2 -124.5t6 -107.5l361 668q-26 83 -66.5 117.5t-97.5 34.5
q-53 0 -91.5 -28.5t-63.5 -96.5t-37.5 -181t-12.5 -282zM494 166q54 0 92.5 29.5t64 98.5t37.5 182.5t12 281.5q0 65 -2 121t-6 105l-360 -666q26 -83 66 -117.5t96 -34.5z" />
    <glyph glyph-name="endash.salt_en" horiz-adv-x="1024" 
d="M0 731h1024v-186h-1024v186z" />
    <glyph glyph-name="hyphen.uc" horiz-adv-x="563" 
d="M74 874h415v-188h-415v188z" />
    <glyph glyph-name="endash.uc" horiz-adv-x="932" 
d="M74 874h784v-188h-784v188z" />
    <glyph glyph-name="emdash.uc" horiz-adv-x="1208" 
d="M74 874h1061v-188h-1061v188z" />
    <glyph glyph-name="emdash.uc_salt_em" horiz-adv-x="2048" 
d="M0 874h2048v-186h-2048v186z" />
    <glyph glyph-name="endash.uc_salt_en" horiz-adv-x="1024" 
d="M0 874h1024v-186h-1024v186z" />
    <glyph glyph-name="parenleft.tab" horiz-adv-x="494" 
d="M360 -420q-79 94 -145.5 204.5t-114.5 234t-75 259.5t-27 283q0 145 27 280t75 258t114.5 233t145.5 206l154 -90q-64 -93 -118 -196.5t-93.5 -215.5t-61.5 -231.5t-22 -243.5q0 -125 22 -248t61 -237.5t93 -217.5t119 -188z" />
    <glyph glyph-name="parenleft.uc" horiz-adv-x="629" 
d="M428 -277q-79 94 -145.5 204.5t-114.5 234t-75 259.5t-27 283q0 145 27 280t75 258t114 233t144 206l156 -92q-64 -93 -118 -196t-93.5 -215t-61.5 -231t-22 -243q0 -125 22 -248t61 -237.5t93 -217.5t119 -188z" />
    <glyph glyph-name="bracketleft.uc" horiz-adv-x="604" 
d="M102 1659h459v-168h-237v-1594h237v-164h-459v1926z" />
    <glyph glyph-name="braceleft.uc" horiz-adv-x="618" 
d="M449 -267q-66 0 -114 19t-78.5 55t-45 88t-14.5 119v381q0 70 -7.5 113t-26 66.5t-49.5 31.5t-77 8v164q48 0 79 8.5t49 32t25 66.5t7 112v381q0 67 14 119t45.5 88t82 55t122.5 19h133v-168h-64q-61 0 -86.5 -35t-25.5 -111v-354q0 -75 -9.5 -125t-27.5 -83t-45 -52
t-62 -33v-4q35 -14 62 -33t45 -52t27.5 -83t9.5 -125v-364q0 -75 26 -107.5t86 -32.5h64v-164h-145z" />
    <glyph glyph-name="parenright.tab" horiz-adv-x="494" 
d="M-20 -330q64 93 118 196.5t93 215.5t61 232t22 245q0 124 -21.5 247t-60.5 237t-93 217t-119 188l155 90q79 -95 145.5 -205t114.5 -233.5t74.5 -259t26.5 -281.5t-26.5 -281t-74.5 -258t-114.5 -233.5t-145.5 -206.5z" />
    <glyph glyph-name="parenright.uc" horiz-adv-x="629" 
d="M47 -187q64 94 118 197.5t93.5 215.5t61.5 231.5t22 244.5q0 124 -22 247t-61 237t-93.5 216.5t-118.5 186.5l156 92q79 -95 145 -205t114 -233.5t74.5 -259t26.5 -281.5t-26.5 -281t-74.5 -258t-114 -233.5t-145 -206.5z" />
    <glyph glyph-name="bracketright.uc" horiz-adv-x="604" 
d="M45 -103h236v1594h-236v168h459v-1926h-459v164z" />
    <glyph glyph-name="braceright.uc" horiz-adv-x="618" 
d="M25 -105h61q60 0 86.5 33.5t26.5 108.5v364q0 75 9.5 125t28 83t45.5 52t62 33v4q-35 14 -62 33t-45.5 52t-28 83t-9.5 125v354q0 76 -25.5 112t-87.5 36h-61v166h133q73 0 123 -19t81.5 -55t45.5 -88t14 -119v-381q0 -69 7 -112t25 -66.5t48.5 -32t77.5 -8.5v-164
q-45 0 -75.5 -8t-49 -31.5t-26 -66.5t-7.5 -113v-381q0 -134 -60.5 -207.5t-191.5 -73.5h-145v162z" />
    <glyph glyph-name="guillemotleft.uc" horiz-adv-x="838" 
d="M391 684l203 538h199l-197 -538l197 -541h-199zM43 684l201 538h200l-196 -538l196 -541h-200z" />
    <glyph glyph-name="guilsinglleft.uc" horiz-adv-x="489" 
d="M33 684l203 538h200l-198 -538l198 -541h-200z" />
    <glyph glyph-name="guillemotright.uc" horiz-adv-x="838" 
d="M590 684l-197 538h201l199 -538l-199 -541h-201zM242 684l-199 538h201l202 -538l-202 -541h-201z" />
    </font>
</defs>
</svg>
