<svg xmlns="http://www.w3.org/2000/svg" width="270" height="39" viewBox="0 0 270 39">
    <g fill="none" fill-rule="evenodd">
        <path fill="#231F20" d="M17.353 8.772l-5.71 16.71h-.09L5.618 8.772H0l8.518 21.76h5.8L22.7 8.773zM23.696 5.026h5.165V.48h-5.165v4.546zm0 25.506h5.165V8.772h-5.165v21.76zM36.11 23.546c.272 2.778 2.537 3.788 5.301 3.788 1.948 0 5.347-.378 5.21-2.862-.135-2.526-3.896-2.82-7.657-3.62-3.806-.758-7.52-2.02-7.52-6.44 0-4.756 5.527-6.23 9.786-6.23 4.803 0 9.152 1.852 9.787 6.693h-5.392c-.453-2.273-2.492-2.904-4.758-2.904-1.494 0-4.258.337-4.258 2.23 0 2.358 3.805 2.694 7.611 3.494 3.76.8 7.567 2.062 7.567 6.356 0 5.176-5.618 7.07-10.466 7.07-5.89 0-10.285-2.44-10.376-7.575h5.165zM53.599 30.532h5.165V8.772h-5.165v21.76zm0-25.506h5.165V.48h-5.165v4.546zM79.515 19.63c0-3.745-2.038-7.659-6.66-7.659-4.621 0-6.66 3.914-6.66 7.66 0 3.789 2.039 7.703 6.66 7.703 4.622 0 6.66-3.914 6.66-7.703m-18.485 0c0-6.65 4.304-11.449 11.825-11.449 7.521 0 11.825 4.8 11.825 11.449 0 6.693-4.304 11.491-11.825 11.491-7.521 0-11.825-4.798-11.825-11.491M86.72 8.772h4.892v3.2l.09.083c1.541-2.4 4.215-3.873 7.296-3.873 5.074 0 8.291 2.525 8.291 7.408v14.943h-5.165v-13.68c-.091-3.41-1.54-4.882-4.577-4.882-3.443 0-5.663 2.525-5.663 5.724v12.838h-5.165V8.773zM138.008 17.737c-.182-3.03-2.402-5.766-5.89-5.766-3.58 0-6.027 2.525-6.162 5.766h12.052zm-12.052 3.157c0 3.41 1.993 6.44 6.297 6.44 2.99 0 4.803-1.22 5.71-3.62h4.893c-1.133 4.757-5.483 7.408-10.603 7.408-7.34 0-11.463-4.756-11.463-11.449 0-6.187 4.35-11.49 11.327-11.49 7.386 0 11.917 6.187 11.056 12.711h-17.217zM140.772 8.772h6.252l16.991 21.76h-6.208zM176.791 11.971c-4.35 0-6.57 3.072-6.57 7.702 0 4.378 2.402 7.66 6.57 7.66 4.712 0 6.479-3.871 6.479-7.66 0-3.956-2.22-7.702-6.479-7.702zm-11.553-3.199h4.893v2.946h.09c1.45-2.483 4.26-3.536 7.25-3.536 7.385 0 10.965 5.22 10.965 11.575 0 5.851-3.172 11.365-10.105 11.365-2.99 0-6.206-1.01-7.837-3.41h-.091v10.86h-5.165v-29.8zM190.52 8.772h4.847v4.21h.091c.589-2.316 3.67-4.8 6.841-4.8 1.178 0 1.496.085 1.948.127v4.63c-.725-.084-1.495-.211-2.22-.211-3.533 0-6.342 2.652-6.342 7.45v10.355h-5.166V8.773zM221.056 17.737c-.181-3.03-2.4-5.766-5.89-5.766-3.579 0-6.026 2.525-6.16 5.766h12.05zm-12.05 3.157c0 3.41 1.992 6.44 6.297 6.44 2.99 0 4.802-1.22 5.708-3.62h4.893c-1.132 4.757-5.482 7.408-10.601 7.408-7.34 0-11.464-4.756-11.464-11.449 0-6.187 4.35-11.49 11.328-11.49 7.385 0 11.915 6.187 11.055 12.711h-17.217zM231.795 23.546c.271 2.778 2.537 3.788 5.301 3.788 1.948 0 5.346-.378 5.21-2.862-.135-2.526-3.896-2.82-7.658-3.62-3.806-.758-7.52-2.02-7.52-6.44 0-4.756 5.527-6.23 9.787-6.23 4.802 0 9.151 1.852 9.787 6.693h-5.393c-.453-2.273-2.492-2.904-4.756-2.904-1.496 0-4.26.337-4.26 2.23 0 2.358 3.805 2.694 7.611 3.494 3.761.8 7.567 2.062 7.567 6.356 0 5.176-5.618 7.07-10.466 7.07-5.89 0-10.285-2.44-10.376-7.575h5.166zM254.177 23.546c.272 2.778 2.537 3.788 5.3 3.788 1.95 0 5.348-.378 5.211-2.862-.136-2.526-3.896-2.82-7.656-3.62-3.806-.758-7.522-2.02-7.522-6.44 0-4.756 5.528-6.23 9.786-6.23 4.803 0 9.153 1.852 9.787 6.693h-5.391c-.454-2.273-2.492-2.904-4.758-2.904-1.495 0-4.258.337-4.258 2.23 0 2.358 3.805 2.694 7.611 3.494 3.76.8 7.566 2.062 7.566 6.356 0 5.176-5.618 7.07-10.465 7.07-5.89 0-10.286-2.44-10.376-7.575h5.165z"/>
        <path fill="#EC1D24" d="M151.917 15.464C163.271 1.681 170.015.984 170.431 1.371c.417.387-4.246-.696-15.653 16.708-6.73 10.267-7.556 12.454-7.556 12.454h-7.176s.518-1.286 11.871-15.069"/>
    </g>
</svg>
