<svg xmlns="http://www.w3.org/2000/svg" xmlns:xlink="http://www.w3.org/1999/xlink" width="196" height="64" viewBox="0 0 196 64">
    <defs>
        <path id="a" d="M0 63.544h195.348V.139H0z"/>
    </defs>
    <g fill="none" fill-rule="evenodd">
        <path fill="#010202" d="M102.253 41.615h4.509l12.25 16.803h-4.476z"/>
        <g transform="translate(0 .423)">
            <path fill="#ED3325" d="M106.62 57.995h-4.477s12.876-22.338 21.405-23.307c-7.868 3.637-16.929 23.307-16.929 23.307"/>
            <path fill="#010202" d="M.239 40.533h4.05l4.28 12.902h.065l4.116-12.902h3.855l-6.043 16.802H6.38z"/>
            <mask id="b" fill="#fff">
                <use xlink:href="#a"/>
            </mask>
            <path fill="#010202" d="M17.584 57.335h3.724V40.533h-3.724v16.802zm0-19.695h3.724v-3.51h-3.724v3.51zM26.175 51.94c.196 2.145 1.83 2.926 3.822 2.926 1.405 0 3.856-.292 3.757-2.211-.098-1.95-2.81-2.177-5.52-2.795-2.744-.584-5.423-1.56-5.423-4.972 0-3.673 3.985-4.81 7.056-4.81 3.463 0 6.599 1.43 7.056 5.167h-3.888c-.326-1.754-1.796-2.242-3.43-2.242-1.078 0-3.07.26-3.07 1.722 0 1.82 2.744 2.08 5.488 2.698 2.711.617 5.455 1.592 5.455 4.908 0 3.997-4.05 5.46-7.546 5.46-4.247 0-7.415-1.885-7.48-5.85h3.723zM39.11 57.335h3.724V40.533H39.11v16.802zm0-19.695h3.724v-3.51H39.11v3.51zM57.501 48.918c0-2.893-1.47-5.915-4.802-5.915s-4.801 3.022-4.801 5.915c0 2.925 1.47 5.948 4.801 5.948 3.333 0 4.802-3.023 4.802-5.948m-13.328 0c0-5.135 3.103-8.84 8.526-8.84s8.527 3.705 8.527 8.84c0 5.167-3.104 8.873-8.527 8.873-5.423 0-8.526-3.706-8.526-8.873M62.531 40.533h3.528v2.47l.065.065c1.111-1.853 3.038-2.99 5.26-2.99 3.658 0 5.978 1.95 5.978 5.72v11.537h-3.724V46.774c-.065-2.634-1.11-3.77-3.3-3.77-2.482 0-4.083 1.948-4.083 4.419v9.912h-3.724V40.533zM100.064 47.456c-.13-2.34-1.731-4.453-4.246-4.453-2.581 0-4.345 1.95-4.443 4.453h8.689zm-8.689 2.437c0 2.633 1.437 4.973 4.54 4.973 2.156 0 3.464-.943 4.116-2.795h3.528c-.816 3.672-3.952 5.72-7.643 5.72-5.293 0-8.266-3.673-8.266-8.84 0-4.778 3.137-8.873 8.168-8.873 5.325 0 8.59 4.777 7.971 9.815H91.375zM128.351 43.003c-3.136 0-4.736 2.373-4.736 5.947 0 3.381 1.73 5.916 4.736 5.916 3.398 0 4.672-2.99 4.672-5.916 0-3.055-1.6-5.947-4.672-5.947zm-8.33-2.47h3.528v2.274h.066c1.045-1.917 3.07-2.729 5.226-2.729 5.324 0 7.906 4.03 7.906 8.937 0 4.519-2.287 8.776-7.285 8.776-2.157 0-4.475-.78-5.651-2.633h-.065v8.386h-3.725V40.533zM138.249 40.533h3.495v3.25h.066c.424-1.788 2.645-3.705 4.931-3.705.85 0 1.08.065 1.407.097v3.575c-.524-.065-1.079-.162-1.602-.162-2.548 0-4.573 2.048-4.573 5.752v7.995h-3.724V40.533zM160.2 47.456c-.13-2.34-1.731-4.453-4.246-4.453-2.58 0-4.344 1.95-4.443 4.453h8.69zm-8.69 2.437c0 2.633 1.439 4.973 4.541 4.973 2.157 0 3.464-.943 4.116-2.795h3.529c-.817 3.672-3.953 5.72-7.645 5.72-5.292 0-8.265-3.673-8.265-8.84 0-4.778 3.136-8.873 8.168-8.873 5.325 0 8.591 4.777 7.97 9.815h-12.413zM168.398 51.94c.196 2.145 1.83 2.926 3.823 2.926 1.404 0 3.855-.292 3.756-2.211-.098-1.95-2.81-2.177-5.52-2.795-2.745-.584-5.424-1.56-5.424-4.972 0-3.673 3.987-4.81 7.056-4.81 3.464 0 6.6 1.43 7.057 5.167h-3.887c-.327-1.754-1.797-2.242-3.432-2.242-1.076 0-3.07.26-3.07 1.722 0 1.82 2.745 2.08 5.49 2.698 2.71.617 5.455 1.592 5.455 4.908 0 3.997-4.052 5.46-7.547 5.46-4.247 0-7.416-1.885-7.48-5.85h3.723zM184.045 51.94c.196 2.145 1.829 2.926 3.822 2.926 1.404 0 3.855-.292 3.757-2.211-.099-1.95-2.81-2.177-5.521-2.795-2.743-.584-5.422-1.56-5.422-4.972 0-3.673 3.984-4.81 7.055-4.81 3.464 0 6.6 1.43 7.056 5.167h-3.887c-.326-1.754-1.796-2.242-3.43-2.242-1.079 0-3.07.26-3.07 1.722 0 1.82 2.743 2.08 5.488 2.698 2.711.617 5.454 1.592 5.454 4.908 0 3.997-4.05 5.46-7.545 5.46-4.247 0-7.416-1.885-7.482-5.85h3.725zM115.564 24.616h3.354V5.214h-3.354v19.402zm-7.397-11.983c-1.627-1.111-3.56-1.65-5.793-1.65h-1.48l4.074-5.737h-4.01l-5.953 8.892h6.974c2.2 0 3.961.75 5.23 2.281 1.084 1.322 1.625 2.915 1.625 4.777H88.631c.513-1.087.753-2.317.753-3.726v-6.488h-3.41v6.912c0 2.188-.845 3.302-2.572 3.302H80.12c.45-.485.698-1.712.698-3.666v-6.548H77.4v6.878c0 2.222-.844 3.336-2.565 3.336h-3.14v-.182c.358-.57.548-1.714.548-3.484v-6.548h-3.417v6.67c0 2.37-.846 3.544-2.563 3.544h-7.757c.477-.571.725-1.712.725-3.487v-6.727h-3.346v6.912c0 1.045-.127 1.83-.375 2.278-.358.69-1.021 1.024-2.021 1.024h-7.172V10.982h-3.383v11.472c0 2.887-1.394 4.265-4.204 4.265v2.882c4.113 0 6.862-1.768 7.369-4.985h66.357v-2.103c0-4.71-1.415-7.986-4.29-9.88zM55.885 31.226h3.31v-3.368h-3.31v3.368zM32.783 17.894c0 2.188-.84 3.302-2.566 3.302h-3.283c.452-.485.693-1.712.693-3.666v-6.548h-3.412v6.878c0 2.222-.852 3.336-2.571 3.336h-2.71c.089-.6.145-1.234.145-1.862v-8.352h-3.41v7.957c0 1.955-.478 3.635-1.48 5.046-1.175 1.591-2.71 2.408-4.613 2.408-1.93 0-3.474-.817-4.65-2.408-1-1.411-1.509-3.09-1.509-5.046v-7.957H0v8.352c0 2.91.974 5.342 2.876 7.325 1.839 1.952 4.071 2.942 6.7 2.942 2.65 0 4.896-1.017 6.728-3.06a9.638 9.638 0 0 0 1.417-1.925h12.618c1.542 0 2.838-.54 3.902-1.592 1.289-1.288 1.958-3.121 1.958-5.554v-6.488h-3.416v6.912zM188.047 21.525c-2.023 0-3.41-1.775-3.41-3.931 0-2.35 1.296-3.846 3.227-3.846 2.022 0 3.417 1.685 3.417 3.96 0 2.222-1.27 3.817-3.234 3.817zm-.058-10.84c-4.014 0-6.825 2.849-6.825 6.935 0 1.287.303 2.49.873 3.576h-8.873c-.275-4.175-1.776-7.087-4.523-8.765-1.571-.968-3.417-1.448-5.496-1.448-1.33 0-2.654.27-3.987.842a11.38 11.38 0 0 0-3.234 2.13c.761 1.142 1.305 2.012 1.635 2.643.726-.81 1.628-1.442 2.711-1.894.939-.392 1.79-.567 2.545-.567 2.198 0 3.953.751 5.19 2.282 1.052 1.322 1.566 2.915 1.566 4.777h-21.835c.115-.634.182-1.234.182-1.862v-8.351h-3.414v7.956c0 1.955-.48 3.635-1.474 5.046-1.176 1.591-2.713 2.408-4.615 2.408-1.935 0-3.48-.817-4.657-2.408-.993-1.411-1.506-3.09-1.506-5.046v-7.956h-3.411v8.35c0 2.912.964 5.345 2.869 7.325 1.837 1.953 4.07 2.942 6.705 2.942a8.738 8.738 0 0 0 4.763-1.373c1.417-.877 2.535-2.077 3.382-3.611h41.43c4.046 0 6.757-2.943 6.757-6.907 0-3.933-2.741-7.024-6.758-7.024zm-4.473-2.464h3.297V4.885h-3.297V8.22zm2.867-4.716h3.325V.14h-3.325v3.365zm2.847 4.713h3.283V4.885h-3.283v3.333zm-27.81 22.977h3.32v-3.362h-3.32v3.362zM136.81 8.22h3.317V4.885h-3.317V8.22z" mask="url(#b)"/>
        </g>
    </g>
</svg>
