<?xml version="1.0" standalone="no"?>
<!DOCTYPE svg PUBLIC "-//W3C//DTD SVG 1.1//EN" "http://www.w3.org/Graphics/SVG/1.1/DTD/svg11.dtd" >
<svg xmlns="http://www.w3.org/2000/svg" xmlns:xlink="http://www.w3.org/1999/xlink" version="1.1">
<metadata>
Created by FontForge 20190801 at Mon May 22 23:35:28 2017
 By Jimmy Wärting
Copyright \\\(C\\\)2017 Commercial Type.
</metadata>
<defs>
<font id="Sanomat-Light" horiz-adv-x="450" >
  <font-face 
    font-family="Sanomat Light"
    font-weight="300"
    font-stretch="normal"
    units-per-em="1000"
    panose-1="0 0 0 0 0 0 0 0 0 0"
    ascent="760"
    descent="-240"
    x-height="533"
    cap-height="750"
    bbox="-199.281 -233 1107.83 1069"
    underline-thickness="58"
    underline-position="-95"
    stemh="25"
    stemv="81"
    unicode-range="U+0020-FB04"
  />
<missing-glyph horiz-adv-x="1000" 
 />
    <glyph glyph-name="f_b" unicode="fb" horiz-adv-x="863" 
d="M835 294c0 -213 -130 -307 -285 -307c-66 0 -138 13 -189 27v569c0 37 -1 91 -2 134c-22 18 -51 30 -82 30c-69 0 -101 -44 -101 -120v-94h124c3 0 -4 -38 -7 -38h-117v-470c23 -3 41 -6 63 -8c2 0 0 -17 -2 -17h-198c-2 0 0 17 2 17c21 3 36 5 52 8c1 32 2 54 1 98v372
h-71c-1 0 -1 20 0 20l71 20v31c0 140 100 210 193 210c52 0 75 -5 98 -12c12 2 27 5 49 12c1 0 9 -5 9 -7c0 -30 -1 -73 -1 -118c-1 -58 -1 -119 -1 -156h3c33 27 106 49 155 49c161 0 236 -106 236 -250zM550 12c142 0 202 88 202 261c0 166 -69 224 -192 224
c-45 0 -95 -15 -118 -27v-430c28 -19 67 -28 108 -28z" />
    <glyph glyph-name="f_f" unicode="ff" horiz-adv-x="582" 
d="M359 123v372h-183v-470c23 -3 41 -6 63 -8c2 0 0 -17 -2 -17h-198c-2 0 0 17 2 17c21 3 36 5 52 8c1 32 2 54 1 98v372h-71c-1 0 -1 20 0 20l71 20v45c0 131 88 196 191 196c17 0 37 -2 58 -7c5 -1 3 -65 0 -65h-3c-21 24 -50 41 -81 41c-45 0 -83 -31 -83 -106v-106h183
v33c0 140 100 210 193 210c51 0 73 -4 92 -10c5 -2 3 -66 0 -66h-3c-26 27 -60 47 -99 47c-69 0 -101 -44 -101 -120v-94h141c3 0 -4 -38 -7 -38h-134v-470c23 -3 41 -6 63 -8c2 0 0 -17 -2 -17h-198c-2 0 0 17 2 17c21 3 36 5 52 8c1 32 2 54 1 98z" />
    <glyph glyph-name="f_f_b" unicode="ffb" horiz-adv-x="1128" 
d="M359 123v372h-183v-470c23 -3 41 -6 63 -8c2 0 0 -17 -2 -17h-198c-2 0 0 17 2 17c21 3 36 5 52 8c1 32 2 54 1 98v372h-71c-1 0 -1 20 0 20l71 20v45c0 131 88 196 191 196c17 0 37 -2 58 -7c5 -1 3 -65 0 -65h-3c-21 24 -50 41 -81 41c-45 0 -83 -31 -83 -106v-106h183
v33c0 140 100 210 193 210c52 0 75 -5 98 -12c12 2 27 5 49 12c1 0 9 -5 9 -7c0 -30 -1 -73 -1 -118c-1 -58 -1 -119 -1 -156h3c33 27 106 49 155 49c161 0 236 -106 236 -250c0 -213 -130 -307 -285 -307c-66 0 -138 13 -189 27v569c0 37 -1 91 -2 134
c-22 18 -51 30 -82 30c-69 0 -101 -44 -101 -120v-94h124c3 0 -4 -38 -7 -38h-117v-470c23 -3 41 -6 63 -8c2 0 0 -17 -2 -17h-198c-2 0 0 17 2 17c21 3 36 5 52 8c1 32 2 54 1 98zM707 470v-430c28 -19 67 -28 108 -28c142 0 202 88 202 261c0 166 -69 224 -192 224
c-45 0 -95 -15 -118 -27z" />
    <glyph glyph-name="f_f_h" unicode="ffh" horiz-adv-x="1131" 
d="M359 123v372h-183v-470c23 -3 41 -6 63 -8c2 0 0 -17 -2 -17h-198c-2 0 0 17 2 17c21 3 36 5 52 8c1 32 2 54 1 98v372h-71c-1 0 -1 20 0 20l71 20v45c0 131 88 196 191 196c17 0 37 -2 58 -7c5 -1 3 -65 0 -65h-3c-21 24 -50 41 -81 41c-45 0 -83 -31 -83 -106v-106h183
v33c0 140 100 210 193 210c47 0 70 -4 92 -11c14 3 30 6 52 13c1 0 9 -5 9 -7v-307h3c52 49 139 80 207 80c88 0 139 -40 139 -146v-374c16 -3 32 -5 53 -7c2 0 0 -17 -2 -17h-187c-2 0 0 17 2 17c21 3 36 5 52 8c1 32 1 57 1 99v244c0 85 -23 126 -105 126
c-60 0 -126 -22 -161 -55v-415c16 -3 31 -5 53 -7c2 0 0 -17 -2 -17h-187c-2 0 0 17 2 17c21 3 36 5 52 8c1 32 1 57 1 99v460c0 38 -1 91 -2 133c-22 18 -51 30 -82 30c-69 0 -101 -44 -101 -120v-94h124c3 0 -4 -38 -7 -38h-117v-470c23 -3 41 -6 63 -8c2 0 0 -17 -2 -17
h-198c-2 0 0 17 2 17c21 3 36 5 52 8c1 32 2 54 1 98z" />
    <glyph glyph-name="f_f_i" unicode="ffi" horiz-adv-x="783" 
d="M359 123v372h-183v-470c23 -3 41 -6 63 -8c2 0 0 -17 -2 -17h-198c-2 0 0 17 2 17c21 3 36 5 52 8c1 32 2 54 1 98v372h-71c-1 0 -1 20 0 20l71 20v45c0 131 88 196 191 196c17 0 37 -2 58 -7c5 -1 3 -65 0 -65h-3c-21 24 -50 41 -81 41c-45 0 -83 -31 -83 -106v-106h183
v33c0 141 99 210 198 210c54 0 75 -5 97 -11c5 -2 3 -66 0 -66h-3c-26 27 -62 48 -107 48c-67 0 -103 -42 -103 -120v-94h173c40 0 63 9 81 15c1 0 9 -5 9 -7l-1 -63v-454c16 -3 33 -5 55 -7c2 0 0 -17 -2 -17h-187c-2 0 0 17 2 17c21 3 36 5 52 8c1 32 1 57 1 99v230
c0 52 -1 99 -2 141h-181v-470c23 -3 41 -6 63 -8c2 0 0 -17 -2 -17h-198c-2 0 0 17 2 17c21 3 36 5 52 8c1 32 2 54 1 98z" />
    <glyph glyph-name="f_f_j" unicode="ffj" horiz-adv-x="771" 
d="M359 123v372h-183v-470c23 -3 41 -6 63 -8c2 0 0 -17 -2 -17h-198c-2 0 0 17 2 17c21 3 36 5 52 8c1 32 2 54 1 98v372h-71c-1 0 -1 20 0 20l71 20v45c0 131 88 196 191 196c17 0 37 -2 58 -7c5 -1 3 -65 0 -65h-3c-21 24 -50 41 -81 41c-45 0 -83 -31 -83 -106v-106h183
v33c0 141 99 210 198 210c54 0 75 -5 97 -11c5 -2 3 -66 0 -66h-3c-26 27 -62 48 -107 48c-67 0 -103 -42 -103 -120v-94h173c40 0 63 9 81 15c1 0 9 -5 9 -7l-1 -67v-418c0 -169 -82 -234 -159 -234c-20 0 -31 1 -71 12c-7 2 3 56 4 56h1c39 -22 69 -35 103 -35
c25 0 43 5 43 69v430c0 43 -1 97 -2 141h-181v-470c23 -3 41 -6 63 -8c2 0 0 -17 -2 -17h-198c-2 0 0 17 2 17c21 3 36 5 52 8c1 32 2 54 1 98z" />
    <glyph glyph-name="f_f_k" unicode="ffk" horiz-adv-x="1047" 
d="M359 123v372h-183v-470c23 -3 41 -6 63 -8c2 0 0 -17 -2 -17h-198c-2 0 0 17 2 17c21 3 36 5 52 8c1 32 2 54 1 98v372h-71c-1 0 -1 20 0 20l71 20v45c0 131 88 196 191 196c17 0 37 -2 58 -7c5 -1 3 -65 0 -65h-3c-21 24 -50 41 -81 41c-45 0 -83 -31 -83 -106v-106h183
v33c0 140 100 210 193 210c52 0 75 -5 100 -13c11 2 25 5 45 11c1 0 9 -5 9 -7l-1 -67v-676c16 -3 33 -5 55 -7c2 0 0 -17 -2 -17h-187c-2 0 0 17 2 17c21 3 36 5 52 8c1 32 1 57 1 99v455c0 37 -1 95 -2 138c-22 18 -51 30 -82 30c-69 0 -101 -44 -101 -120v-94h124
c3 0 -4 -38 -7 -38h-117v-470c23 -3 41 -6 63 -8c2 0 0 -17 -2 -17h-198c-2 0 0 17 2 17c21 3 36 5 52 8c1 32 2 54 1 98zM1047 -1c-41 0 -79 1 -112 3c-23 16 -62 57 -89 95c-40 54 -91 119 -117 167v9c109 134 141 178 199 260c21 3 52 2 79 0v-6
c-84 -77 -167 -161 -217 -214v-3c51 -91 178 -250 209 -272c25 -17 29 -19 48 -23c5 -1 2 -16 0 -16z" />
    <glyph glyph-name="f_f_l" unicode="ffl" horiz-adv-x="785" 
d="M359 123v372h-183v-470c23 -3 41 -6 63 -8c2 0 0 -17 -2 -17h-198c-2 0 0 17 2 17c21 3 36 5 52 8c1 32 2 54 1 98v372h-71c-1 0 -1 20 0 20l71 20v45c0 131 88 196 191 196c17 0 37 -2 58 -7c5 -1 3 -65 0 -65h-3c-21 24 -50 41 -81 41c-45 0 -83 -31 -83 -106v-106h183
v33c0 140 100 210 193 210c52 0 75 -5 100 -13c12 2 26 5 45 11c1 0 9 -5 9 -7l-1 -67v-676c16 -3 33 -5 55 -7c2 0 0 -17 -2 -17h-187c-2 0 0 17 2 17c21 3 36 5 52 8c1 32 1 57 1 99v455c0 47 -1 97 -2 138c-22 18 -51 30 -82 30c-69 0 -101 -44 -101 -120v-94h124
c3 0 -4 -38 -7 -38h-117v-470c23 -3 41 -6 63 -8c2 0 0 -17 -2 -17h-198c-2 0 0 17 2 17c21 3 36 5 52 8c1 32 2 54 1 98z" />
    <glyph glyph-name="f_h" unicode="fh" horiz-adv-x="866" 
d="M239 17c2 0 0 -17 -2 -17h-198c-2 0 0 17 2 17c21 3 36 5 52 8c1 32 2 54 1 98v372h-71c-1 0 -1 20 0 20l71 20v31c0 140 100 210 193 210c47 0 70 -4 92 -11c14 3 30 6 52 13c1 0 9 -5 9 -7v-307h3c52 49 139 80 207 80c88 0 139 -40 139 -146v-374c16 -3 32 -5 53 -7
c2 0 0 -17 -2 -17h-187c-2 0 0 17 2 17c21 3 36 5 52 8c1 32 1 57 1 99v244c0 85 -23 126 -105 126c-60 0 -126 -22 -161 -55v-415c16 -3 31 -5 53 -7c2 0 0 -17 -2 -17h-187c-2 0 0 17 2 17c21 3 36 5 52 8c1 32 1 57 1 99v460c0 38 -1 91 -2 133c-22 18 -51 30 -82 30
c-69 0 -101 -44 -101 -120v-94h124c3 0 -4 -38 -7 -38h-117v-470c23 -3 41 -6 63 -8z" />
    <glyph glyph-name="f_i" unicode="fi" horiz-adv-x="518" 
d="M239 17c2 0 0 -17 -2 -17h-198c-2 0 0 17 2 17c21 3 36 5 52 8c1 32 2 54 1 98v372h-71c-1 0 -1 20 0 20l71 20v31c0 141 99 210 198 210c54 0 75 -5 97 -11c5 -2 3 -66 0 -66h-3c-26 27 -62 48 -107 48c-67 0 -103 -42 -103 -120v-94h173c40 0 63 9 81 15c1 0 9 -5 9 -7
l-1 -63v-454c16 -3 33 -5 55 -7c2 0 0 -17 -2 -17h-187c-2 0 0 17 2 17c21 3 36 5 52 8c1 32 1 57 1 99v230c0 52 -1 99 -2 141h-181v-470c23 -3 41 -6 63 -8z" />
    <glyph glyph-name="f_j" unicode="fj" horiz-adv-x="506" 
d="M357 495h-181v-470c23 -3 41 -6 63 -8c2 0 0 -17 -2 -17h-198c-2 0 0 17 2 17c21 3 36 5 52 8c1 32 2 54 1 98v372h-71c-1 0 -1 20 0 20l71 20v31c0 141 99 210 198 210c54 0 75 -5 97 -11c5 -2 3 -66 0 -66h-3c-26 27 -62 48 -107 48c-67 0 -103 -42 -103 -120v-94h173
c40 0 63 9 81 15c1 0 9 -5 9 -7l-1 -67v-418c0 -169 -82 -234 -159 -234c-20 0 -31 1 -71 12c-7 2 3 56 4 56h1c39 -22 69 -35 103 -35c25 0 43 5 43 69v430c0 43 -1 97 -2 141z" />
    <glyph glyph-name="f_k" unicode="fk" horiz-adv-x="782" 
d="M239 17c2 0 0 -17 -2 -17h-198c-2 0 0 17 2 17c21 3 36 5 52 8c1 32 2 54 1 98v372h-71c-1 0 -1 20 0 20l71 20v31c0 140 100 210 193 210c52 0 75 -5 100 -13c11 2 25 5 45 11c1 0 9 -5 9 -7l-1 -67v-676c16 -3 33 -5 55 -7c2 0 0 -17 -2 -17h-187c-2 0 0 17 2 17
c21 3 36 5 52 8c1 32 1 57 1 99v455c0 37 -1 95 -2 138c-22 18 -51 30 -82 30c-69 0 -101 -44 -101 -120v-94h124c3 0 -4 -38 -7 -38h-117v-470c23 -3 41 -6 63 -8zM782 -1c-41 0 -79 1 -112 3c-23 16 -62 57 -89 95c-40 54 -91 119 -117 167v9c109 134 141 178 199 260
c21 3 52 2 79 0v-6c-84 -77 -167 -161 -217 -214v-3c51 -91 178 -250 209 -272c25 -17 29 -19 48 -23c5 -1 2 -16 0 -16z" />
    <glyph glyph-name="f_l" unicode="fl" horiz-adv-x="520" 
d="M239 17c2 0 0 -17 -2 -17h-198c-2 0 0 17 2 17c21 3 36 5 52 8c1 32 2 54 1 98v372h-71c-1 0 -1 20 0 20l71 20v31c0 140 100 210 193 210c52 0 75 -5 100 -13c12 2 26 5 45 11c1 0 9 -5 9 -7l-1 -67v-676c16 -3 33 -5 55 -7c2 0 0 -17 -2 -17h-187c-2 0 0 17 2 17
c21 3 36 5 52 8c1 32 1 57 1 99v455c0 47 -1 97 -2 138c-22 18 -51 30 -82 30c-69 0 -101 -44 -101 -120v-94h124c3 0 -4 -38 -7 -38h-117v-470c23 -3 41 -6 63 -8z" />
    <glyph glyph-name="g_g" unicode="gg" horiz-adv-x="1013" 
d="M1020 -61c0 -106 -112 -172 -271 -172c-144 0 -234 56 -234 135c0 55 25 88 47 103c10 7 46 -10 44 -12c-18 -17 -38 -48 -38 -91c0 -76 75 -108 180 -108c126 0 227 46 227 117c0 62 -33 68 -94 73c-40 3 -98 5 -155 10c-97 8 -126 38 -126 91c0 36 18 64 58 88
c-74 29 -125 99 -125 182c0 109 98 192 200 192c58 0 103 -16 131 -40h8l120 43c9 3 11 -66 0 -65l-104 6c29 -33 45 -87 45 -136c0 -109 -88 -196 -200 -196c-19 0 -36 2 -53 7c-17 -12 -29 -26 -29 -47c0 -23 15 -40 78 -45l151 -11c80 -6 140 -24 140 -124zM492 -59
c0 -106 -100 -174 -269 -174c-144 0 -226 56 -226 135c0 55 25 88 47 103c10 7 48 -10 46 -12c-18 -17 -38 -48 -38 -91c0 -76 65 -108 170 -108c136 0 228 48 228 119c0 62 -36 70 -97 73c-40 2 -88 5 -126 8c-97 8 -126 38 -126 91c0 36 18 64 58 88v2
c-71 30 -119 99 -119 180c0 109 98 192 200 192c58 0 103 -16 131 -40h8l120 43c9 3 11 -66 0 -65l-104 6c29 -33 45 -87 45 -136c0 -109 -88 -196 -200 -196c-20 0 -39 3 -58 8c-18 -12 -30 -27 -30 -48c0 -23 15 -40 78 -45c44 -3 84 -7 122 -9c80 -4 140 -24 140 -124z
M733 186c71 0 122 52 122 169s-51 166 -122 166s-121 -49 -121 -166s50 -169 121 -169zM240 186c71 0 122 52 122 169s-51 166 -122 166s-121 -49 -121 -166s50 -169 121 -169z" />
    <glyph glyph-name=".notdef" horiz-adv-x="1000" 
 />
    <glyph glyph-name="space" unicode=" " horiz-adv-x="183" 
 />
    <glyph glyph-name="exclam" unicode="!" horiz-adv-x="229" 
d="M130 181c0 -2 -20 -2 -20 1l-43 568c0 4 95 4 95 0zM114 -6c-27 0 -48 22 -48 49c0 28 21 49 48 49c28 0 49 -21 49 -49c0 -27 -21 -49 -49 -49z" />
    <glyph glyph-name="quotedbl" unicode="&#x22;" horiz-adv-x="255" 
d="M167 563c-9 83 -14 127 -22 186c0 3 81 4 80 0c-8 -61 -13 -105 -22 -186c0 -3 -36 -2 -36 0zM52 563c-9 83 -14 127 -22 186c0 3 81 4 80 0c-8 -61 -13 -105 -22 -186c0 -3 -36 -2 -36 0z" />
    <glyph glyph-name="numbersign" unicode="#" horiz-adv-x="520" 
d="M280 0c0 -2 -33 -2 -33 0l47 229h-132l-47 -229c0 -2 -33 -2 -33 0l47 229c-46 -1 -76 -2 -100 -4h-6l16 76c26 -1 60 -3 104 -3l35 168c-47 -1 -76 -2 -101 -4h-6l16 76c27 -1 60 -3 105 -4l45 216c0 2 33 2 33 0l-45 -216h132l45 216c0 2 33 2 33 0l-45 -216
c49 1 77 2 101 4h6l-16 -76c-26 1 -60 3 -105 4l-35 -169c51 1 79 2 103 4h6l-16 -76c-27 1 -61 3 -107 4zM308 297l35 169h-132l-35 -169h132z" />
    <glyph glyph-name="dollar" unicode="$" horiz-adv-x="521" 
d="M275 -96c0 -2 -33 -3 -33 -1v85c-67 0 -148 18 -194 44c-7 4 -7 95 0 95h3c52 -61 119 -105 191 -105v333c-100 56 -191 110 -191 222c0 109 82 178 195 185v77c0 2 33 3 33 1v-77c67 -1 102 -11 146 -28c10 -4 7 -90 3 -90h-3c-29 38 -72 80 -146 85v-292
c118 -66 209 -122 209 -235c0 -128 -85 -203 -213 -214v-85zM117 616c0 -79 60 -119 129 -159v272c-60 -5 -129 -33 -129 -113zM416 169c0 90 -76 133 -141 168v-314c79 8 141 45 141 146z" />
    <glyph glyph-name="percent" unicode="%" horiz-adv-x="708" 
d="M190 389c-99 0 -160 70 -160 180c0 120 61 190 155 190c97 0 159 -70 159 -180c0 -120 -63 -190 -154 -190zM524 -9c-99 0 -160 70 -160 180c0 120 61 190 155 190c97 0 159 -70 159 -180c0 -120 -63 -190 -154 -190zM519 342c-58 0 -87 -58 -87 -170
c0 -106 35 -162 93 -162c57 0 85 58 85 170c0 106 -34 162 -91 162zM191 408c57 0 85 58 85 170c0 106 -34 162 -91 162c-58 0 -87 -58 -87 -170c0 -106 35 -162 93 -162zM351 343c-99 -155 -247 -383 -247 -383c-3 -4 -41 -5 -37 0l261 402c95 148 258 402 258 402
c3 4 40 5 36 -1z" />
    <glyph glyph-name="ampersand" unicode="&#x26;" horiz-adv-x="673" 
d="M551 0c-18 12 -52 45 -99 96c-50 -64 -111 -107 -190 -107c-138 0 -231 75 -231 205c0 100 71 159 154 217c-45 62 -75 121 -75 180c0 93 68 172 174 172c80 0 153 -46 153 -130c0 -71 -56 -129 -171 -192c36 -48 80 -98 124 -150c31 -36 58 -68 83 -96
c33 67 64 151 96 244c24 3 61 2 73 0v-7c-48 -84 -91 -184 -142 -267c55 -62 94 -100 119 -119c19 -15 37 -22 63 -29c5 -1 2 -17 0 -17h-131zM186 623c0 -52 27 -107 68 -165c74 58 106 111 106 174c0 75 -38 107 -83 107c-60 0 -91 -55 -91 -116zM118 206
c0 -97 64 -178 160 -178c62 0 110 34 151 93c-31 35 -67 76 -106 122c-45 53 -89 103 -126 152c-50 -53 -79 -112 -79 -189z" />
    <glyph glyph-name="quotesingle" unicode="'" horiz-adv-x="140" 
d="M52 563c-9 83 -14 127 -22 186c0 3 81 4 80 0c-8 -61 -13 -105 -22 -186c0 -3 -36 -2 -36 0z" />
    <glyph glyph-name="parenleft" unicode="(" horiz-adv-x="313" 
d="M60 311c0 217 94 365 214 472c4 3 13 -4 5 -14c-100 -135 -145 -268 -145 -455c0 -168 48 -316 141 -457c7 -10 -1 -17 -5 -14c-84 82 -210 228 -210 468z" />
    <glyph glyph-name="parenright" unicode=")" horiz-adv-x="313" 
d="M253 315c0 -217 -94 -365 -214 -472c-4 -3 -13 4 -5 14c100 135 145 268 145 455c0 168 -48 316 -141 457c-7 10 1 17 5 14c84 -82 210 -228 210 -468z" />
    <glyph glyph-name="asterisk" unicode="*" horiz-adv-x="318" 
d="M102 481c-1 -3 -52 33 -49 36l91 90l-120 19c-3 0 13 60 17 58l107 -59l-20 125c0 3 63 4 62 0l-22 -126l109 60c3 1 21 -57 17 -58l-121 -19l93 -90c2 -2 -47 -40 -49 -36l-58 115z" />
    <glyph glyph-name="plus" unicode="+" horiz-adv-x="444" 
d="M238 149c0 -3 -32 -3 -32 0v187h-174c-3 0 -3 28 0 28h174v187c0 3 32 3 32 0v-187h174c3 0 3 -28 0 -28h-174v-187z" />
    <glyph glyph-name="comma" unicode="," horiz-adv-x="190" 
d="M22 -108c19 78 36 133 50 192c1 3 89 4 87 0c-38 -80 -59 -118 -93 -192c-2 -3 -45 -2 -44 0z" />
    <glyph glyph-name="hyphen" unicode="-" horiz-adv-x="357" 
d="M298 285c-40 2 -87 4 -155 4h-98l17 58c37 -2 74 -4 142 -4h108z" />
    <glyph glyph-name="period" unicode="." horiz-adv-x="207" 
d="M103 -6c-27 0 -48 22 -48 49c0 28 21 49 48 49c28 0 49 -21 49 -49c0 -27 -21 -49 -49 -49z" />
    <glyph glyph-name="slash" unicode="/" horiz-adv-x="403" 
d="M200 308c-63 -172 -179 -486 -179 -486c-2 -5 -35 7 -33 13l181 486c60 165 168 460 168 460c2 4 36 -8 34 -14c-37 -96 -104 -279 -171 -459z" />
    <glyph glyph-name="zero" unicode="0" horiz-adv-x="664" 
d="M337 -12c-186 0 -297 147 -297 378c0 251 111 397 287 397c184 0 297 -147 297 -378c0 -251 -114 -397 -287 -397zM340 10c132 0 191 142 191 373c0 221 -72 358 -205 358c-134 0 -193 -142 -193 -373c0 -221 72 -358 207 -358z" />
    <glyph glyph-name="one" unicode="1" horiz-adv-x="312" 
d="M48 0c-2 0 0 21 2 21c21 3 51 5 67 8c1 32 1 57 1 99v446c0 43 -1 99 -2 143c-22 -4 -34 -6 -75 -10c-2 0 -2 21 1 22c67 15 103 27 154 45c1 0 10 -5 10 -7l-2 -67v-672l69 -7c2 0 0 -21 -2 -21h-223z" />
    <glyph glyph-name="two" unicode="2" horiz-adv-x="530" 
d="M21 0c-8 0 -11 38 -6 43c101 103 140 143 203 212c75 83 165 176 165 302c0 119 -55 179 -152 179c-76 0 -126 -27 -192 -84h-2c-2 0 -3 73 3 75c52 18 113 36 200 36c127 0 236 -61 236 -183c0 -141 -86 -216 -175 -302c-63 -61 -147 -139 -207 -196v-4h151
c105 0 160 5 245 12c1 0 4 0 4 -2l-19 -88h-454z" />
    <glyph glyph-name="three" unicode="3" horiz-adv-x="518" 
d="M218 -11c-87 0 -126 11 -188 34c-6 2 -5 81 -3 81h2c65 -66 115 -88 190 -88c125 0 178 84 178 208c0 118 -62 165 -163 165c-14 0 -29 -1 -44 -3l-37 -6c-3 -1 -10 27 -5 28c140 29 208 86 208 189c0 100 -42 139 -131 139c-70 0 -121 -28 -179 -75h-2c-2 0 -3 69 3 71
c46 15 101 31 180 31c119 0 218 -36 218 -163c0 -84 -70 -149 -189 -186v-2c113 6 234 -51 234 -182c0 -141 -114 -241 -272 -241z" />
    <glyph glyph-name="four" unicode="4" horiz-adv-x="606" 
d="M500 21c2 0 0 -21 -2 -21h-223c-2 0 0 21 2 21c21 3 51 5 67 8c1 32 1 57 1 99v95h-334c-2 0 -2 36 1 37l381 514c1 1 40 -5 40 -7l-2 -67v-452h28c55 0 120 12 125 13c4 1 0 -47 -6 -46c-37 5 -79 8 -120 8h-27v-195zM345 661l-311 -413h311v413z" />
    <glyph glyph-name="five" unicode="5" horiz-adv-x="528" 
d="M215 -12c-82 0 -142 18 -190 40c-6 3 -5 81 -3 81h2c64 -73 117 -94 192 -94c126 0 189 89 189 209c0 142 -53 200 -180 200c-40 0 -98 -15 -137 -51c-2 -2 -22 12 -21 17l54 360h339l-10 -87c0 -1 -1 -1 -7 0c-87 7 -132 9 -193 9h-112l-40 -266c37 30 107 55 166 55
c158 0 234 -69 234 -221c0 -169 -138 -252 -283 -252z" />
    <glyph glyph-name="six" unicode="6" horiz-adv-x="599" 
d="M560 226c0 -150 -111 -238 -247 -238c-148 0 -273 107 -273 338c0 270 167 437 343 437c74 0 106 -6 150 -27c6 -3 5 -69 3 -69h-2c-37 43 -79 69 -151 69c-127 0 -239 -131 -249 -371c35 30 110 80 210 80c146 0 216 -83 216 -219zM133 328c0 -221 60 -314 179 -314
c96 0 158 60 158 209c0 106 -52 177 -160 177c-85 0 -143 -35 -177 -60v-12z" />
    <glyph glyph-name="seven" unicode="7" horiz-adv-x="518" 
d="M140 6c-6 -14 -95 -9 -87 4c47 75 161 252 262 433l128 231h-208c-61 0 -108 -2 -195 -9c-1 0 -5 -1 -5 0l7 90c49 -3 108 -5 160 -5h301c6 0 11 -19 9 -23l-164 -299c-91 -166 -198 -398 -208 -422z" />
    <glyph glyph-name="eight" unicode="8" horiz-adv-x="538" 
d="M513 196c0 -128 -107 -208 -245 -208c-150 0 -243 70 -243 183c0 109 104 164 181 195c-92 42 -165 97 -165 205c0 121 113 192 232 192c150 0 218 -80 218 -173c0 -87 -85 -148 -158 -184c97 -47 180 -99 180 -210zM119 616c0 -107 64 -141 189 -199
c63 39 113 88 113 171c0 86 -42 153 -148 153c-69 0 -154 -35 -154 -125zM96 173c0 -76 36 -163 173 -163c119 0 166 64 166 152c0 97 -107 150 -202 191c-70 -31 -137 -67 -137 -180z" />
    <glyph glyph-name="nine" unicode="9" horiz-adv-x="599" 
d="M559 425c0 -270 -167 -437 -343 -437c-74 0 -111 6 -160 27c-6 3 -5 75 -3 75h2c37 -43 89 -75 161 -75c144 0 240 131 249 371c-39 -31 -111 -80 -212 -80c-124 0 -214 83 -214 219c0 150 121 238 257 238c148 0 263 -107 263 -338zM129 528c0 -106 55 -177 156 -177
c71 0 136 28 181 61v11c0 221 -50 314 -169 314c-96 0 -168 -60 -168 -209z" />
    <glyph glyph-name="colon" unicode=":" horiz-adv-x="217" 
d="M108 364c-27 0 -48 22 -48 49c0 28 21 49 48 49c28 0 49 -21 49 -49c0 -27 -21 -49 -49 -49zM108 -6c-27 0 -48 22 -48 49c0 28 21 49 48 49c28 0 49 -21 49 -49c0 -27 -21 -49 -49 -49z" />
    <glyph glyph-name="semicolon" unicode=";" horiz-adv-x="217" 
d="M120 364c-27 0 -48 22 -48 49c0 28 21 49 48 49c28 0 49 -21 49 -49c0 -27 -21 -49 -49 -49zM23 -108c19 78 36 133 50 192c1 3 89 4 87 0c-38 -80 -59 -118 -93 -192c-2 -3 -45 -2 -44 0z" />
    <glyph glyph-name="less" unicode="&#x3c;" horiz-adv-x="408" 
d="M364 155l-325 159c-2 1 -2 19 0 20l325 158c2 1 2 -30 0 -31l-283 -137l283 -139c2 -1 2 -31 0 -30z" />
    <glyph glyph-name="equal" unicode="=" horiz-adv-x="464" 
d="M412 393h-360c-3 0 -3 27 0 27h360c3 0 3 -27 0 -27zM52 295h360c3 0 3 -27 0 -27h-360c-3 0 -3 27 0 27z" />
    <glyph glyph-name="greater" unicode="&#x3e;" horiz-adv-x="408" 
d="M45 156c-2 -1 -2 29 0 30l283 138l-283 137c-2 1 -2 32 0 31l325 -158c2 -1 2 -19 0 -20z" />
    <glyph glyph-name="question" unicode="?" horiz-adv-x="389" 
d="M123 378c98 79 165 138 165 225c0 98 -65 130 -120 130c-61 0 -109 -36 -140 -76h-3c-4 0 -7 76 3 80c36 14 85 26 144 26c115 0 190 -70 190 -178c0 -103 -99 -190 -195 -257l-7 -147c0 -2 -20 -2 -20 1c-8 57 -24 166 -24 183c0 8 4 11 7 13zM144 -6
c-27 0 -48 22 -48 49c0 28 21 49 48 49c28 0 49 -21 49 -49c0 -27 -21 -49 -49 -49z" />
    <glyph glyph-name="at" unicode="@" horiz-adv-x="969" 
d="M591 43c-42 0 -61 18 -61 48c0 17 4 37 8 55h-4c-24 -33 -80 -103 -147 -103c-71 0 -113 55 -113 137c0 169 161 350 299 350c36 0 61 -12 80 -23h3l29 31c2 2 29 0 28 -3l-28 -107l-86 -335c-3 -14 1 -22 14 -22c92 0 263 93 263 323c0 178 -103 296 -310 296
c-286 0 -453 -220 -453 -449c0 -210 124 -362 366 -362c98 0 185 26 262 68c2 1 5 -12 -2 -17c-45 -35 -137 -80 -271 -80c-261 0 -420 153 -420 379c0 270 229 488 520 488c229 0 367 -142 367 -304c0 -208 -164 -370 -344 -370zM411 90c51 0 112 63 136 103l72 282
c-15 15 -34 28 -57 28c-83 0 -211 -136 -211 -313c0 -73 28 -100 60 -100z" />
    <glyph glyph-name="A" unicode="A" horiz-adv-x="684" 
d="M181 22c2 0 0 -22 -1 -22h-168c-3 0 -2 21 1 21c25 4 39 6 57 10c88 233 199 532 271 730c1 3 15 5 17 0s188 -542 255 -731c25 -3 38 -5 60 -9c2 0 2 -21 -1 -21h-238c-3 0 -3 21 1 21c22 2 47 6 77 8c-14 44 -33 104 -57 173l-17 50l-130 3c-40 1 -82 1 -120 1
l-80 -225c30 -4 42 -6 73 -9zM310 283h117l-108 317h-7c-31 -88 -72 -201 -113 -314c35 -2 74 -3 111 -3z" />
    <glyph glyph-name="B" unicode="B" horiz-adv-x="598" 
d="M34 0c-2 0 0 20 2 21l66 8c2 39 3 118 3 161v533c-26 2 -44 4 -68 7c-2 0 -1 20 1 20h234c136 0 233 -65 233 -168c0 -80 -57 -157 -164 -181v-7c106 -13 222 -62 222 -186c0 -71 -39 -136 -110 -173c-42 -22 -94 -35 -156 -35h-263zM195 28h98c121 0 180 71 180 173
c0 157 -132 177 -278 175v-348zM195 407h62c41 0 75 11 102 30c41 29 63 75 63 127c0 121 -77 160 -191 160h-36v-317z" />
    <glyph glyph-name="C" unicode="C" horiz-adv-x="684" 
d="M417 -12c-217 0 -380 132 -380 380c0 232 171 395 367 395c102 0 182 -13 230 -42c5 -3 1 -87 -2 -87h-2c-79 70 -133 97 -226 97c-167 0 -265 -146 -265 -349c0 -206 98 -364 278 -364c96 0 157 49 219 111h2c2 0 5 -87 0 -90c-54 -29 -143 -51 -221 -51z" />
    <glyph glyph-name="D" unicode="D" horiz-adv-x="720" 
d="M33 0c-2 0 0 20 2 21l66 8c2 39 3 118 3 161v533c-26 2 -44 4 -68 7c-2 0 -1 20 1 20h246c211 0 401 -103 401 -360c0 -246 -167 -390 -408 -390h-243zM196 28h63c226 0 324 130 324 351c0 260 -112 336 -345 343c-13 1 -24 1 -39 1c-1 -35 -3 -100 -3 -140v-555z" />
    <glyph glyph-name="E" unicode="E" horiz-adv-x="599" 
d="M33 0c-2 0 0 21 2 21l66 8c2 39 3 118 3 161v533c-26 2 -44 4 -68 7c-2 0 -1 20 2 20h429c30 0 63 2 80 2c2 0 8 -92 6 -92h-4c-49 37 -103 65 -256 65h-98v-322h49c75 0 135 16 167 31h5c2 0 1 -84 0 -84h-5c-42 18 -91 29 -166 29h-50v-351h107c122 0 205 23 265 68h5
c2 0 -7 -96 -10 -96h-529z" />
    <glyph glyph-name="F" unicode="F" horiz-adv-x="546" 
d="M33 0c-2 0 0 20 2 21l66 8c2 39 3 118 3 161v533c-26 2 -44 4 -68 7c-2 0 -1 20 2 20h399c30 0 63 2 80 2c2 0 9 -92 6 -92h-4c-47 29 -103 65 -256 65h-68v-322h32c100 0 143 13 187 33h5c2 0 3 -88 0 -88h-5c-60 23 -96 31 -186 31h-33v-351l73 -7c2 -1 0 -21 -2 -21
h-233z" />
    <glyph glyph-name="G" unicode="G" horiz-adv-x="738" 
d="M605 18c-53 -17 -121 -30 -188 -30c-217 0 -380 132 -380 380c0 232 181 395 377 395c101 0 174 -18 229 -38c6 -2 5 -81 3 -81h-2c-53 51 -132 87 -230 87c-156 0 -275 -146 -275 -349c0 -206 98 -364 278 -364c64 0 118 9 145 21v252c-26 2 -44 4 -68 7
c-2 0 -1 20 1 20h222c2 0 0 -20 -2 -20l-66 -8c-2 -39 -3 -107 -3 -150v-77h38c2 0 1 -14 0 -15c-18 -10 -47 -21 -79 -30z" />
    <glyph glyph-name="H" unicode="H" horiz-adv-x="761" 
d="M264 21c2 -1 0 -21 -2 -21h-228c-2 0 0 20 2 21l66 8c2 39 3 118 3 161v533c-26 2 -44 4 -68 7c-2 0 -1 20 1 20h228c2 0 0 -20 -2 -20l-66 -8c-2 -39 -3 -118 -3 -161v-155c29 -2 63 -3 115 -3h256v320c-26 2 -44 4 -68 7c-2 0 -1 20 1 20h228c2 0 0 -20 -2 -20l-66 -8
c-2 -39 -3 -118 -3 -161v-533l69 -7c2 -1 0 -21 -2 -21h-228c-2 0 0 20 2 21l66 8c2 39 3 118 3 161v181c-37 1 -82 3 -143 3h-228v-346z" />
    <glyph glyph-name="I" unicode="I" horiz-adv-x="300" 
d="M34 0c-2 0 0 20 2 21l66 8c2 39 3 118 3 161v533c-26 2 -44 4 -68 7c-2 0 -1 20 1 20h228c2 0 0 -20 -2 -20l-66 -8c-2 -39 -3 -118 -3 -161v-533l69 -7c2 -1 0 -21 -2 -21h-228z" />
    <glyph glyph-name="J" unicode="J" horiz-adv-x="304" 
d="M-8 -150c-26 0 -57 6 -77 12c-8 2 -5 76 0 76h3c21 -14 46 -27 69 -36c18 -8 35 -12 50 -12c66 0 74 47 74 112l-1 721c-26 2 -44 4 -68 7c-2 0 -1 20 1 20h228c2 0 0 -20 -2 -20l-66 -8c-2 -39 -3 -118 -3 -161v-442c0 -199 -89 -269 -208 -269z" />
    <glyph glyph-name="K" unicode="K" horiz-adv-x="632" 
d="M33 0c-2 0 0 21 2 21l66 8c2 39 3 118 3 161v533c-26 2 -44 4 -68 7c-2 0 -1 20 1 20h228c2 0 0 -20 -2 -20l-66 -8c-2 -39 -3 -118 -3 -161v-533l69 -7c2 0 0 -21 -2 -21h-228zM633 -2c-10 0 -67 5 -140 9c-28 36 -53 71 -79 105c-45 59 -192 251 -192 251v15l194 245
c24 30 62 90 87 127c28 2 59 2 82 0v-4c-41 -36 -99 -93 -133 -134l-166 -196l260 -330c44 -55 54 -61 89 -66c2 -1 1 -22 -2 -22z" />
    <glyph glyph-name="L" unicode="L" horiz-adv-x="564" 
d="M34 0c-2 0 0 21 2 21l66 8c2 39 3 118 3 161l1 533c-26 2 -44 4 -68 7c-2 0 -1 20 1 20h228c2 0 0 -20 -2 -20l-66 -8c-2 -39 -3 -118 -3 -161v-533h92c122 0 178 27 245 78h5c3 0 -1 -106 -5 -106h-499z" />
    <glyph glyph-name="M" unicode="M" horiz-adv-x="884" 
d="M35 0c-2 0 -1 20 2 21c31 6 45 9 70 13c2 46 5 96 5 155v533c-33 3 -29 4 -67 8c-3 0 -2 20 1 20h199l192 -588h5l224 588h184c2 0 0 -20 -2 -20l-66 -8c-2 -39 -3 -118 -3 -161v-533l69 -7c2 -1 0 -21 -2 -21h-235c-2 0 0 20 2 21l66 8c2 39 4 118 4 161l6 509h-5
l-266 -705c-1 -2 -19 -2 -20 0l-244 720h-7v-680c42 -6 42 -8 73 -13c4 -1 2 -21 0 -21h-185z" />
    <glyph glyph-name="N" unicode="N" horiz-adv-x="746" 
d="M35 0c-2 0 -1 20 2 21c31 6 45 9 70 13c2 46 5 96 5 155v531c-31 4 -44 6 -82 10c-3 0 -2 20 1 20h188l379 -552h4v518c-42 6 -42 8 -73 13c-4 1 -2 21 0 21h185c2 0 1 -20 -2 -21c-31 -6 -45 -9 -70 -13c-2 -46 -5 -96 -5 -155l1 -404c0 -37 -1 -68 4 -157
c0 -2 -14 -5 -15 -3l-477 701h-3v-664c42 -6 42 -8 73 -13c4 -1 2 -21 0 -21h-185z" />
    <glyph glyph-name="O" unicode="O" horiz-adv-x="778" 
d="M394 -12c-194 0 -357 147 -357 378c0 241 161 397 347 397c194 0 357 -147 357 -378c0 -241 -161 -397 -347 -397zM397 13c152 0 242 139 242 370c0 223 -103 355 -256 355c-154 0 -244 -139 -244 -370c0 -223 103 -355 258 -355z" />
    <glyph glyph-name="P" unicode="P" horiz-adv-x="558" 
d="M34 0c-2 0 0 20 2 21l66 8c2 39 3 118 3 161v533c-26 2 -44 4 -68 7c-2 0 -1 20 1 20h159c235 0 331 -71 331 -203c0 -162 -158 -217 -252 -224c-2 0 -3 18 -1 18c58 11 164 55 164 192c0 124 -54 192 -243 192c-1 -53 -1 -109 -1 -164v-533l69 -7c2 -1 0 -21 -2 -21
h-228z" />
    <glyph glyph-name="Q" unicode="Q" horiz-adv-x="778" 
d="M714 -134c-8 -8 -28 -10 -43 -10c-136 0 -251 66 -322 135c-174 21 -312 162 -312 375c0 241 161 397 347 397c194 0 357 -147 357 -378c0 -237 -156 -392 -338 -397c67 -35 170 -58 270 -58c17 0 33 2 40 4c4 1 3 -66 1 -68zM397 13c152 0 242 139 242 370
c0 223 -103 355 -256 355c-154 0 -244 -139 -244 -370c0 -223 103 -355 258 -355z" />
    <glyph glyph-name="R" unicode="R" horiz-adv-x="673" 
d="M665 18c3 0 2 -20 -1 -20c-45 2 -60 1 -145 4c-73 113 -149 244 -202 338c-42 1 -93 2 -122 6v-318l69 -7c2 -1 0 -21 -2 -21h-228c-2 0 0 20 2 21l66 8c2 39 3 118 3 161v532l-68 8c-2 0 -1 20 1 20h203c237 0 312 -77 312 -188c0 -81 -42 -156 -146 -197v-3
c54 -103 115 -201 193 -313c16 -23 39 -27 65 -31zM195 561v-196c117 -10 266 17 266 171c0 147 -60 187 -263 187c-2 -39 -3 -119 -3 -162z" />
    <glyph glyph-name="S" unicode="S" horiz-adv-x="521" 
d="M243 -12c-73 0 -155 18 -201 44c-7 4 -7 95 0 95h3c52 -61 119 -104 198 -105c100 -1 175 33 175 147c0 96 -85 139 -178 186c-87 50 -190 102 -190 222c0 115 86 186 215 186c82 0 119 -10 166 -28c10 -4 7 -90 3 -90h-3c-31 40 -77 85 -166 85
c-59 0 -148 -24 -148 -114c0 -86 86 -132 185 -186c101 -55 192 -109 192 -227c0 -138 -100 -215 -251 -215z" />
    <glyph glyph-name="T" unicode="T" horiz-adv-x="636" 
d="M201 -1c-2 0 0 21 2 21l66 8c2 39 3 118 3 161v533h-65c-82 0 -125 -15 -179 -51c-2 -2 -6 -2 -6 0c-1 31 -2 79 0 91c0 1 3 1 4 1c19 -4 70 -15 117 -15h350c47 0 98 11 117 15c1 0 4 0 4 -1c2 -12 1 -60 0 -91c0 -2 -4 -2 -6 0c-48 33 -97 51 -179 51h-66
c-1 -40 -1 -84 -1 -127v-568c28 -2 45 -4 68 -7c2 0 0 -21 -2 -21h-227z" />
    <glyph glyph-name="U" unicode="U" horiz-adv-x="761" 
d="M379 -10c-165 0 -284 78 -284 275v458c-27 2 -45 4 -68 7c-2 0 -1 20 1 20h228c2 0 0 -20 -2 -20l-66 -8c-2 -39 -3 -116 -3 -159v-301c0 -175 83 -236 216 -236c108 0 221 53 221 256v434c-42 6 -42 8 -73 13c-4 1 -2 21 0 21h185c2 0 1 -20 -2 -21
c-31 -6 -45 -9 -70 -13c-2 -46 -5 -96 -5 -155v-277c0 -224 -119 -294 -278 -294z" />
    <glyph glyph-name="V" unicode="V" horiz-adv-x="688" 
d="M328 -7c-2 5 -194 538 -261 727c-24 5 -41 7 -57 9c-2 0 -2 21 1 21h228c3 0 3 -21 -1 -21c-22 -2 -40 -5 -70 -8c14 -44 33 -104 57 -173l142 -397h7c56 157 145 393 207 568c-30 4 -43 6 -74 9c-2 0 0 22 1 22h169c3 0 2 -20 -1 -21c-19 -4 -33 -6 -57 -10
c-88 -233 -200 -538 -274 -726c-1 -3 -15 -5 -17 0z" />
    <glyph glyph-name="W" unicode="W" horiz-adv-x="1102" 
d="M771 -7c-1 -3 -15 -5 -17 0c-2 4 -123 360 -204 593c-75 -207 -154 -439 -215 -593c-1 -3 -15 -5 -17 0s-185 538 -252 727l-53 9c-2 0 -2 21 1 21h225c3 0 3 -21 -1 -21c-22 -2 -43 -6 -73 -8c14 -44 33 -104 57 -173l131 -396h7l172 485l-29 83c-40 4 -47 6 -72 9
c-2 0 -2 21 1 21h240c3 0 3 -21 -1 -21c-22 -2 -48 -6 -72 -8c14 -44 33 -104 57 -173l132 -396h7l202 568l-71 8c-2 0 0 22 1 22h161c3 0 2 -21 -1 -21l-53 -9c-88 -233 -190 -539 -263 -727z" />
    <glyph glyph-name="X" unicode="X" horiz-adv-x="701" 
d="M195 20c2 0 1 -20 -1 -20h-182c-2 0 0 20 2 20c25 6 33 8 62 14c35 46 50 63 91 125l140 211l-222 351c-28 2 -38 6 -60 9c-2 0 -2 20 0 20h231c2 0 1 -20 -1 -20c-24 -3 -47 -5 -66 -8c23 -39 71 -118 99 -161l81 -128l186 284l-66 13c-2 0 -1 20 1 20h177
c2 0 0 -20 -2 -20c-25 -6 -30 -8 -59 -14c-35 -46 -50 -63 -91 -125l-126 -189l236 -372c30 -3 43 -7 65 -9c1 -1 0 -21 -2 -21h-234c-2 0 -1 20 2 21c24 3 45 5 64 8c-22 39 -72 118 -99 161l-94 149l-200 -306z" />
    <glyph glyph-name="Y" unicode="Y" horiz-adv-x="623" 
d="M423 21c2 0 0 -21 -2 -21h-228c-2 0 0 21 2 21l66 8c2 39 3 118 3 161v154l-213 377l-43 9c-1 0 -1 20 1 20h204c4 0 2 -20 -1 -20c-17 -2 -36 -5 -61 -9l189 -341h4c34 61 72 122 117 207c22 42 45 81 70 134l-73 9c-1 0 -1 20 1 20h155c4 0 2 -20 -1 -20l-42 -8
c-54 -90 -136 -236 -217 -383v-311z" />
    <glyph glyph-name="Z" unicode="Z" horiz-adv-x="619" 
d="M576 -3c-33 1 -104 3 -151 3h-402c-3 0 -3 18 0 22l468 703h-205c-66 0 -160 -26 -218 -65h-3c-4 0 5 93 8 93c33 -1 104 -3 151 -3h368c3 0 3 -18 0 -22l-468 -703h199c109 0 200 31 258 70h3c4 1 -5 -98 -8 -98z" />
    <glyph glyph-name="bracketleft" unicode="[" horiz-adv-x="268" 
d="M79 -146c-2 0 -8 4 -9 7v912c1 3 7 7 9 7h163c3 0 0 -23 -2 -23h-100v-880h102c3 0 0 -23 -2 -23h-161z" />
    <glyph glyph-name="backslash" unicode="\" horiz-adv-x="403" 
d="M192 308c-67 180 -134 363 -171 459c-2 6 32 18 34 14c0 0 108 -295 168 -460l181 -486c2 -6 -31 -18 -33 -13c0 0 -116 314 -179 486z" />
    <glyph glyph-name="bracketright" unicode="]" horiz-adv-x="269" 
d="M189 780c2 0 8 -4 9 -7v-912c-1 -3 -7 -7 -9 -7h-163c-3 0 0 23 2 23h100v880h-102c-3 0 0 23 2 23h161z" />
    <glyph glyph-name="asciicircum" unicode="^" horiz-adv-x="359" 
d="M40 509c-1 -1 -12 5 -10 8l143 240h12l144 -240c2 -3 -8 -10 -11 -8l-142 143z" />
    <glyph glyph-name="underscore" unicode="_" horiz-adv-x="336" 
d="M338 -143h-342c-3 0 0 29 2 29h342c3 0 0 -29 -2 -29z" />
    <glyph glyph-name="grave" unicode="`" 
d="M303 603l-173 72l-1 3c9 17 34 58 36 58h3l151 -128c3 -3 -6 -10 -16 -5z" />
    <glyph glyph-name="a" unicode="a" horiz-adv-x="481" 
d="M161 -13c-74 0 -137 37 -137 129c0 71 44 100 92 117c28 10 100 31 158 56c28 12 47 28 47 54v50c0 95 -31 121 -118 121c-52 0 -111 -31 -146 -65h-3c-3 0 -4 66 0 68c24 11 88 28 149 28c118 0 199 -28 199 -134v-331c0 -46 16 -53 46 -53c11 0 20 2 27 5
c1 1 3 -17 1 -19c-10 -9 -38 -26 -72 -26c-48 0 -79 28 -79 82v15h-3c-25 -57 -95 -97 -161 -97zM192 29c73 0 113 53 129 85v175c-5 -7 -24 -18 -42 -26c-35 -15 -86 -30 -105 -39c-40 -18 -71 -40 -71 -99c0 -64 30 -96 89 -96z" />
    <glyph glyph-name="b" unicode="b" horiz-adv-x="574" 
d="M261 -13c-66 0 -138 13 -189 27v569c0 43 -1 87 -2 131l-49 12c-1 0 -1 13 1 14c57 16 70 20 123 36c1 0 9 -5 9 -7c0 -30 -1 -73 -1 -118c-1 -58 -1 -119 -1 -156h3c33 27 106 49 155 49c161 0 236 -106 236 -250c0 -213 -130 -307 -285 -307zM261 12
c142 0 202 88 202 261c0 166 -69 224 -192 224c-45 0 -95 -15 -118 -27v-430c28 -19 67 -28 108 -28z" />
    <glyph glyph-name="c" unicode="c" horiz-adv-x="487" 
d="M271 -13c-138 0 -243 108 -243 266c0 186 133 291 265 291c66 0 107 -8 149 -23c5 -2 6 -72 0 -72h-3c-51 36 -86 66 -147 66c-104 0 -186 -81 -186 -230c0 -154 76 -243 186 -243c73 -1 134 34 170 70c2 2 7 -7 5 -12c-26 -60 -103 -113 -196 -113z" />
    <glyph glyph-name="d" unicode="d" horiz-adv-x="578" 
d="M246 -11c-118 1 -218 95 -218 263c0 193 138 292 277 292c37 0 89 -7 108 -12h5v48c0 43 -1 90 -2 134l-49 12c-1 0 -1 13 1 14c57 16 68 20 121 36c1 0 9 -5 9 -7l-1 -145v-582c36 -8 38 -9 70 -14c2 0 2 -16 -1 -16c-61 -9 -79 -14 -140 -25c-1 0 -5 5 -5 7v71h-5
c-27 -26 -79 -77 -170 -76zM281 39c92 -1 115 28 135 45v396c-23 20 -66 38 -112 38c-105 0 -197 -73 -197 -235c0 -148 74 -243 174 -244z" />
    <glyph glyph-name="e" unicode="e" horiz-adv-x="502" 
d="M474 103c-25 -54 -103 -116 -200 -116c-149 0 -246 107 -246 275c0 166 88 283 236 283c133 0 211 -92 211 -251h-366c2 -161 76 -250 176 -250c113 0 153 39 186 72c5 5 6 -6 3 -13zM261 521c-79 0 -146 -64 -152 -203l274 9c0 127 -42 194 -122 194z" />
    <glyph glyph-name="f" unicode="f" horiz-adv-x="317" 
d="M39 0c-2 0 0 17 2 17c21 3 36 5 52 8c1 32 2 54 1 98v372h-71c-1 0 -1 20 0 20l71 20v31c0 140 100 210 193 210c51 0 73 -4 92 -10c5 -2 3 -66 0 -66h-3c-26 27 -60 47 -99 47c-69 0 -101 -44 -101 -120v-94h141c3 0 -4 -38 -7 -38h-134v-470c23 -3 41 -6 63 -8
c2 0 0 -17 -2 -17h-198z" />
    <glyph glyph-name="g" unicode="g" horiz-adv-x="520" 
d="M527 -61c0 -106 -112 -172 -281 -172c-164 0 -249 56 -249 135c0 55 25 88 47 103c10 7 48 -10 46 -12c-18 -17 -38 -48 -38 -91c0 -76 68 -108 193 -108c136 0 237 46 237 117c0 62 -33 68 -94 73c-40 3 -104 5 -161 10c-97 8 -126 38 -126 91c0 36 18 64 58 88v2
c-71 30 -119 99 -119 180c0 109 98 192 200 192c58 0 103 -16 131 -40h8l120 43c9 3 11 -66 0 -65l-104 6c29 -33 45 -87 45 -136c0 -109 -88 -196 -200 -196c-20 0 -39 3 -58 8c-18 -12 -30 -27 -30 -48c0 -23 15 -40 78 -45s119 -8 157 -11c80 -6 140 -24 140 -124z
M240 186c71 0 122 52 122 169s-51 166 -122 166s-121 -49 -121 -166s50 -169 121 -169z" />
    <glyph glyph-name="h" unicode="h" horiz-adv-x="586" 
d="M26 0c-2 0 0 17 2 17c21 3 36 5 52 8c1 32 1 57 1 99v460c0 43 -1 86 -2 130c-20 7 -33 9 -53 14c-1 0 -1 14 1 14c60 16 72 21 124 36c1 0 9 -5 9 -7v-307h3c52 49 139 80 207 80c88 0 139 -40 139 -146v-374c16 -3 32 -5 53 -7c2 0 0 -17 -2 -17h-187c-2 0 0 17 2 17
c21 3 36 5 52 8c1 32 1 57 1 99v244c0 85 -23 126 -105 126c-60 0 -126 -22 -161 -55v-415c16 -3 31 -5 53 -7c2 0 0 -17 -2 -17h-187z" />
    <glyph glyph-name="i" unicode="i" horiz-adv-x="240" 
d="M119 637c-27 0 -49 23 -49 50c0 26 22 49 49 49s49 -23 49 -49c0 -27 -22 -50 -49 -50zM26 0c-2 0 0 17 2 17c21 3 36 5 52 8c1 32 1 57 1 99v230c0 43 -1 86 -2 130c-20 7 -34 9 -53 14c-1 0 -1 14 1 14c60 16 72 21 125 36c1 0 9 -5 9 -7l-1 -67v-450
c16 -3 33 -5 55 -7c2 0 0 -17 -2 -17h-187z" />
    <glyph glyph-name="j" unicode="j" horiz-adv-x="226" 
d="M117 637c-27 0 -49 23 -49 50c0 26 22 49 49 49s49 -23 49 -49c0 -27 -22 -50 -49 -50zM-1 -178c-20 0 -31 1 -71 12c-7 2 3 56 4 56h1c39 -22 69 -35 103 -35c25 0 43 5 43 69v430c0 43 -1 86 -2 130c-20 7 -34 9 -53 14c-1 0 -1 14 1 14c60 16 72 21 125 36
c1 0 9 -5 9 -7l-1 -67v-418c0 -169 -82 -234 -159 -234z" />
    <glyph glyph-name="k" unicode="k" horiz-adv-x="502" 
d="M26 0c-2 0 0 17 2 17c21 3 36 5 52 8c1 32 1 57 1 99v455c0 43 -1 86 -2 130c-20 7 -34 10 -53 14c-1 0 -1 14 1 15c60 16 72 20 125 36c1 0 9 -5 9 -7l-1 -67v-676c16 -3 33 -5 55 -7c2 0 0 -17 -2 -17h-187zM502 -1c-41 0 -79 1 -112 3c-23 16 -62 57 -89 95
c-40 54 -91 119 -117 167v9c109 134 141 178 199 260c21 3 52 2 79 0v-6c-84 -77 -167 -161 -217 -214v-3c51 -91 178 -250 209 -272c25 -17 29 -19 48 -23c5 -1 2 -16 0 -16z" />
    <glyph glyph-name="l" unicode="l" horiz-adv-x="240" 
d="M26 0c-2 0 0 17 2 17c21 3 36 5 52 8c1 32 1 57 1 99v455c0 43 -1 86 -2 130c-20 7 -34 10 -53 14c-1 0 -1 14 1 15c60 16 72 20 125 36c1 0 9 -5 9 -7l-1 -67v-676c16 -3 33 -5 55 -7c2 0 0 -17 -2 -17h-187z" />
    <glyph glyph-name="m" unicode="m" horiz-adv-x="905" 
d="M215 17c2 0 0 -17 -2 -17h-187c-2 0 0 17 2 17c21 3 36 5 52 8c1 32 1 57 1 99v230c0 43 -1 86 -2 130c-20 7 -34 9 -53 14c-1 0 -1 14 1 14c60 16 70 21 123 36c1 0 9 -5 9 -7l-1 -77h3c52 49 132 80 200 80c67 0 109 -23 126 -80h2c52 49 137 80 205 80
c88 0 134 -40 134 -146v-374c16 -3 32 -5 53 -7c2 0 0 -17 -2 -17h-187c-2 0 0 17 2 17c21 3 36 5 52 8c1 32 1 57 1 99v244c0 85 -18 126 -100 126c-60 0 -121 -22 -154 -57c1 -12 2 -25 2 -39v-374c16 -3 32 -5 53 -7c2 0 0 -17 -2 -17h-187c-2 0 0 17 2 17
c21 3 36 5 52 8c1 32 1 57 1 99v244c0 85 -18 126 -100 126c-60 0 -117 -22 -152 -55v-415c16 -3 31 -5 53 -7z" />
    <glyph glyph-name="n" unicode="n" horiz-adv-x="584" 
d="M24 0c-2 0 0 17 2 17c21 3 36 5 52 8c1 32 1 57 1 99v230c0 43 -1 86 -2 130c-20 7 -34 9 -53 14c-1 0 -1 14 1 14c60 16 70 21 123 36c1 0 9 -5 9 -7l-1 -77h3c52 49 141 80 209 80c88 0 139 -40 139 -146v-374c16 -3 32 -5 53 -7c2 0 0 -17 -2 -17h-187c-2 0 0 17 2 17
c21 3 36 5 52 8c1 32 1 57 1 99v244c0 85 -23 126 -105 126c-60 0 -126 -22 -161 -55v-415c16 -3 31 -5 53 -7c2 0 0 -17 -2 -17h-187z" />
    <glyph glyph-name="o" unicode="o" horiz-adv-x="567" 
d="M286 -13c-138 0 -258 95 -258 275s115 283 253 283s258 -95 258 -275s-115 -283 -253 -283zM286 12c95 0 166 68 166 251c0 193 -70 256 -171 256c-95 0 -166 -67 -166 -250c0 -193 70 -257 171 -257z" />
    <glyph glyph-name="p" unicode="p" horiz-adv-x="583" 
d="M80 -167c1 32 1 57 1 99v424c0 43 -1 87 -2 131l-49 12c-1 0 -1 13 1 14c57 16 69 20 122 36c1 0 9 -5 9 -7l-1 -47h3c33 27 102 50 151 50c161 0 240 -107 240 -251c0 -213 -130 -307 -285 -307c-37 0 -73 6 -108 15v-168c16 -3 43 -6 63 -9c2 0 0 -17 -2 -17h-197
c-2 0 0 17 2 17c21 3 36 5 52 8zM270 12c142 0 202 88 202 261c0 166 -73 225 -192 225c-45 0 -95 -16 -118 -28v-422c29 -20 67 -36 108 -36z" />
    <glyph glyph-name="q" unicode="q" horiz-adv-x="563" 
d="M357 -192c-2 0 0 17 2 17c21 3 36 5 52 8c2 35 3 56 3 102v128h-4c-35 -35 -82 -74 -155 -74c-118 0 -227 79 -227 256c0 193 144 300 283 300c68 0 116 -23 139 -42h5l32 48c2 2 10 0 10 -2c0 -4 -4 -69 -4 -112v-604l53 -8c2 0 0 -17 -2 -17h-187zM276 48
c61 0 115 26 136 42v378c-23 27 -65 50 -112 51c-63 0 -196 -41 -196 -231c0 -161 81 -240 172 -240z" />
    <glyph glyph-name="r" unicode="r" horiz-adv-x="371" 
d="M26 -1c-2 0 0 17 2 17c21 3 36 5 52 8c1 32 1 58 1 100v229c0 43 -1 86 -2 130c-20 7 -34 10 -53 14c-1 0 -1 14 1 15c60 16 70 20 123 36c1 0 9 -5 9 -7l-1 -93h5c27 45 80 97 140 97c24 0 39 -3 50 -13c3 -3 0 -67 -1 -67h-1c-17 7 -37 14 -67 14
c-44 0 -92 -13 -122 -60v-396c16 -3 41 -4 63 -7c2 0 0 -17 -2 -17h-197z" />
    <glyph glyph-name="s" unicode="s" horiz-adv-x="399" 
d="M190 -13c-71 0 -124 13 -163 34c-5 3 0 76 2 76h4c50 -56 90 -80 157 -80c70 0 112 21 112 94c0 66 -55 89 -144 131c-60 29 -122 68 -122 156c0 100 85 147 167 147c63 0 111 -11 141 -30c2 -2 2 -70 0 -70h-2c-32 47 -76 69 -139 69c-59 0 -101 -31 -101 -85
c0 -67 38 -82 109 -118c75 -38 162 -75 162 -163c0 -120 -100 -161 -183 -161z" />
    <glyph glyph-name="t" unicode="t" horiz-adv-x="346" 
d="M208 -13c-94 0 -123 50 -123 134v374h-81c-2 0 -4 10 0 13c51 37 141 113 154 127c2 3 12 -1 12 -5l-4 -97h161c5 0 -1 -38 -5 -38h-157v-372c0 -53 17 -91 77 -91c37 0 74 20 92 31c2 1 5 -11 3 -15c-18 -32 -69 -61 -129 -61z" />
    <glyph glyph-name="u" unicode="u" horiz-adv-x="575" 
d="M240 -13c-94 0 -163 54 -163 156v259l-1 107c-16 3 -32 5 -53 7c-2 0 0 17 2 17h134v-354c0 -99 33 -139 120 -139c65 0 108 30 134 58v296l-1 115c-16 3 -32 5 -53 7c-2 0 0 17 2 17h133v-370l1 -123c36 -6 37 -7 69 -12c2 0 2 -16 -1 -16c-61 -9 -76 -10 -139 -23
c-1 0 -5 5 -5 7v76h-5c-38 -52 -121 -85 -174 -85z" />
    <glyph glyph-name="v" unicode="v" horiz-adv-x="504" 
d="M247 -7l-205 515l-37 9c-2 0 -2 16 1 16h190c3 0 1 -16 -2 -16c-17 -2 -33 -4 -58 -8c12 -38 31 -97 47 -139l96 -253h2l56 156c35 99 66 183 82 236l-56 8c-2 0 -2 16 1 16h134c3 0 1 -16 -2 -16l-45 -9l-66 -179l-126 -336h-12z" />
    <glyph glyph-name="w" unicode="w" horiz-adv-x="763" 
d="M357 329l-120 -336h-12l-180 515l-40 9c-2 0 -2 16 1 16h182c3 0 1 -16 -2 -16c-17 -2 -31 -5 -51 -8c12 -38 30 -97 44 -139l78 -239h2l76 221l29 83l-26 73l-46 9c-2 0 -2 16 1 16h188c3 0 1 -16 -2 -16c-17 -2 -27 -4 -52 -8l45 -139l78 -239h2l77 221
c36 106 35 104 51 157l-56 8c-2 0 -2 16 1 16h133c3 0 1 -15 -2 -16l-41 -9c-15 -40 -28 -80 -64 -179l-120 -336h-12l-140 398z" />
    <glyph glyph-name="x" unicode="x" horiz-adv-x="503" 
d="M152 17c2 0 1 -17 -1 -17h-136c-1 0 0 17 2 17c20 4 32 7 44 10c49 75 96 144 148 225l-166 256l-41 8c-2 0 -1 17 1 17h184c2 0 0 -17 -2 -17l-51 -7c16 -30 33 -56 50 -82l73 -113c41 64 84 131 122 194l-56 8c-2 0 -1 17 1 17h132c1 0 0 -17 -2 -17l-43 -10
c-50 -74 -87 -131 -140 -213l174 -268c16 -4 30 -6 42 -8c2 0 1 -17 -1 -17h-189c-2 0 0 17 2 17l52 7c-14 30 -26 45 -48 82l-80 123c-40 -61 -83 -130 -128 -204z" />
    <glyph glyph-name="y" unicode="y" horiz-adv-x="490" 
d="M96 -178c-27 0 -47 5 -57 10c-7 3 -5 50 0 50h1c19 -13 40 -24 66 -24c47 0 64 20 81 42c21 27 33 56 43 86l-187 524l-38 7c-2 0 -2 16 1 16h185c3 0 1 -16 -2 -16l-54 -8c12 -38 26 -79 41 -121l97 -295h2l78 236c32 100 42 134 54 180c-19 4 -34 6 -49 8
c-2 0 -2 16 1 16h125c3 0 1 -15 -2 -16c-15 -3 -22 -5 -37 -9c-15 -40 -30 -85 -54 -157l-108 -316c-29 -79 -49 -123 -72 -153c-29 -37 -66 -60 -115 -60z" />
    <glyph glyph-name="z" unicode="z" horiz-adv-x="448" 
d="M428 -1c-58 1 -84 1 -129 1h-283c-2 0 -2 18 0 22l330 490c-89 0 -186 -14 -297 -29h-3c-4 0 -1 53 2 53c32 -1 96 -3 141 -3h242c3 0 3 -18 0 -22l-328 -487c181 3 273 15 325 30h2c4 0 1 -55 -2 -55z" />
    <glyph glyph-name="braceleft" unicode="{" horiz-adv-x="307" 
d="M92 -30c0 61 61 201 61 265c0 30 -13 65 -121 73c-2 0 -2 17 0 17c106 9 121 44 121 74c0 65 -61 203 -61 264c0 63 67 105 177 107c11 0 15 -10 11 -10c-105 -9 -117 -55 -117 -84c0 -60 52 -198 52 -252s-51 -96 -124 -107c68 -11 124 -43 124 -108
c0 -42 -52 -202 -52 -252c0 -38 17 -77 117 -84c4 0 0 -10 -11 -10c-111 2 -177 35 -177 107z" />
    <glyph glyph-name="bar" unicode="|" horiz-adv-x="183" 
d="M75 -140v910c0 3 33 3 33 0v-910c0 -3 -33 -3 -33 0z" />
    <glyph glyph-name="braceright" unicode="}" horiz-adv-x="307" 
d="M215 663c0 -61 -61 -201 -61 -265c0 -30 13 -65 121 -73c2 0 2 -17 0 -17c-106 -9 -121 -44 -121 -74c0 -65 61 -203 61 -264c0 -63 -67 -105 -177 -107c-11 0 -15 10 -11 10c105 9 117 55 117 84c0 60 -52 198 -52 252s51 96 124 107c-68 11 -124 43 -124 108
c0 42 52 202 52 252c0 38 -17 77 -117 84c-4 0 0 10 11 10c111 -2 177 -35 177 -107z" />
    <glyph glyph-name="asciitilde" unicode="~" horiz-adv-x="372" 
d="M42 246c-1 -2 -15 -6 -12 2c19 55 49 117 96 117c38 0 108 -29 146 -29c28 0 45 30 59 56c1 2 13 1 11 -4c-21 -61 -48 -114 -93 -114c-46 0 -111 29 -149 29c-28 0 -44 -31 -58 -57z" />
    <glyph glyph-name="uni00A0" unicode="&#xa0;" horiz-adv-x="183" 
 />
    <glyph glyph-name="exclamdown" unicode="&#xa1;" horiz-adv-x="229" 
d="M99 433c0 2 20 2 20 -1l43 -568c0 -4 -95 -4 -95 0zM115 620c27 0 48 -22 48 -49c0 -28 -21 -49 -48 -49c-28 0 -49 21 -49 49c0 27 21 49 49 49z" />
    <glyph glyph-name="cent" unicode="&#xa2;" horiz-adv-x="495" 
d="M299 -96c0 -2 -33 -2 -33 0v83c-139 5 -240 111 -240 266c0 172 114 275 240 289v92c0 2 33 2 33 0v-90c65 0 111 -10 151 -26c5 -2 6 -65 0 -65h-3c-50 33 -85 62 -148 62v-471c77 1 135 32 171 68c2 2 7 -7 5 -12c-24 -55 -90 -104 -176 -112v-84zM107 285
c0 -140 63 -224 159 -239v467c-91 -14 -159 -93 -159 -228z" />
    <glyph glyph-name="sterling" unicode="&#xa3;" horiz-adv-x="550" 
d="M49 -10c-5 -4 -18 21 -13 26c93 86 128 128 128 212c0 31 -10 71 -22 116c-49 0 -110 -1 -110 -1c-3 0 0 33 3 33c16 0 54 -1 98 -1c-18 65 -38 135 -38 191c0 108 96 197 225 197c65 0 115 -12 153 -32c6 -3 5 -75 3 -75h-2c-47 57 -93 80 -153 80
c-90 0 -130 -73 -130 -154c0 -63 18 -137 33 -207c76 0 195 1 195 1c3 0 -7 -33 -10 -33c-32 1 -116 1 -179 1c8 -37 13 -73 13 -104c0 -85 -85 -144 -120 -170v-4c50 27 84 38 116 38c73 0 119 -43 181 -43c43 0 83 20 114 51c2 2 9 -4 5 -12c-27 -53 -83 -110 -154 -110
c-50 0 -143 54 -200 54c-32 0 -82 -13 -136 -54z" />
    <glyph glyph-name="yen" unicode="&#xa5;" horiz-adv-x="637" 
d="M430 21c2 0 0 -21 -2 -21h-228c-2 0 0 21 2 21l66 8c2 39 3 118 3 161v35c-73 0 -173 -1 -173 -1c-3 0 0 34 3 34c15 0 92 -1 170 -1v85c-73 0 -173 -1 -173 -1c-3 0 0 34 3 34c15 0 92 -1 170 -1l-197 347l-43 9c-1 0 -1 20 1 20h210c4 0 2 -20 -1 -20l-63 -9l165 -321
h4c37 64 58 102 105 187c25 45 46 81 72 134l-73 9c-1 0 -1 20 1 20h153c4 0 2 -20 -1 -20l-42 -8c-53 -89 -122 -209 -198 -348c75 0 173 1 173 1c3 0 -7 -34 -10 -34c-33 1 -101 1 -166 1v-85c76 0 176 1 176 1c3 0 -7 -34 -10 -34c-33 1 -101 1 -166 1v-197z" />
    <glyph glyph-name="brokenbar" unicode="&#xa6;" horiz-adv-x="181" 
d="M75 375v395c0 3 31 3 31 0v-395c0 -3 -31 -3 -31 0zM75 -140v410c0 3 31 3 31 0v-410c0 -3 -31 -3 -31 0z" />
    <glyph glyph-name="section" unicode="&#xa7;" horiz-adv-x="498" 
d="M406 -20c0 -115 -98 -185 -192 -185c-51 0 -96 11 -123 23c-9 4 -7 94 -2 94h3c31 -49 67 -84 123 -84c64 0 119 50 119 120c0 77 -38 116 -147 203c-88 70 -166 122 -166 210c0 61 36 106 107 139c-18 30 -28 63 -28 102c0 95 75 161 174 161c28 0 65 -3 99 -11
c8 -2 7 -83 3 -83h-2c-22 34 -51 64 -106 64c-41 0 -102 -29 -102 -104c0 -71 46 -118 134 -187c102 -80 180 -128 180 -218c0 -65 -49 -109 -108 -139c21 -32 34 -66 34 -105zM229 223c51 -41 98 -79 131 -121c33 21 53 47 53 94c0 64 -55 96 -147 168
c-54 42 -98 79 -127 119c-45 -28 -55 -56 -55 -93c0 -62 65 -102 145 -167z" />
    <glyph glyph-name="dieresis" unicode="&#xa8;" 
d="M308 637c-24 0 -44 21 -44 45c0 25 20 46 44 46c25 0 46 -21 46 -46c0 -24 -21 -45 -46 -45zM141 637c-24 0 -45 21 -45 45c0 25 21 46 45 46c25 0 45 -21 45 -46c0 -24 -20 -45 -45 -45z" />
    <glyph glyph-name="copyright" unicode="&#xa9;" horiz-adv-x="834" 
d="M803 375c0 -216 -171 -388 -386 -388c-214 0 -386 172 -386 388c0 215 172 388 386 388c215 0 386 -173 386 -388zM767 375c0 198 -153 360 -350 360c-196 0 -349 -162 -349 -360s153 -361 349 -361c197 0 350 163 350 361zM435 152c-124 0 -222 82 -222 221
c0 134 99 230 217 230c53 0 97 -8 125 -18c4 -1 2 -66 0 -66h-2c-37 38 -75 60 -125 60c-77 0 -134 -74 -134 -198c0 -122 57 -205 141 -205c51 0 88 29 121 65h2c2 0 2 -64 -1 -66c-25 -12 -71 -23 -122 -23z" />
    <glyph glyph-name="ordfeminine" unicode="&#xaa;" horiz-adv-x="422" 
d="M143 290c-64 0 -118 32 -118 109c0 61 37 87 81 101c23 8 101 34 126 46c24 11 42 23 42 46v39c0 79 -27 101 -95 101c-40 0 -97 -21 -126 -45h-2c-3 0 -4 45 0 47c20 10 77 25 128 25c102 0 170 -25 170 -113v-277c0 -38 13 -44 39 -44c9 0 16 2 22 4c2 1 3 -15 1 -17
c-8 -7 -36 -22 -64 -22c-42 0 -70 24 -70 69v11h-2c-21 -48 -76 -80 -132 -80zM169 328c61 0 91 45 105 71v143c-4 -6 -17 -14 -35 -22s-67 -24 -85 -33c-28 -14 -55 -33 -55 -81c0 -52 26 -78 70 -78z" />
    <glyph glyph-name="guillemotleft" unicode="&#xab;" horiz-adv-x="384" 
d="M344 61l-162 183c-1 1 -1 16 0 17l161 182c5 5 17 4 15 1l-99 -191l99 -192c2 -3 -12 -2 -14 0zM199 61l-162 183c-1 1 -1 16 0 17l161 182c5 5 17 4 15 1l-99 -191l99 -192c2 -3 -12 -2 -14 0z" />
    <glyph glyph-name="registered" unicode="&#xae;" horiz-adv-x="438" 
d="M20 566c0 113 89 198 199 198s199 -85 199 -198c0 -114 -87 -198 -199 -198s-199 83 -199 198zM47 566c0 -100 75 -177 172 -177s172 73 172 177c0 100 -75 177 -172 177s-172 -77 -172 -177zM329 478c1 0 1 -12 0 -12l-56 2l-57 91c-8 0 -17 0 -24 1v-79l23 -2
c1 0 0 -12 -1 -12h-86c-1 0 -1 12 0 12l23 2v182l-23 2c-1 0 0 12 1 12h80c59 0 87 -21 87 -53c0 -22 -14 -43 -40 -54v-1c16 -28 30 -52 52 -83c5 -7 13 -8 21 -8zM192 662v-90c32 -1 64 9 64 45c0 30 -18 45 -64 45z" />
    <glyph glyph-name="macron" unicode="&#xaf;" 
d="M225 637c-54 0 -111 -1 -111 -1c-3 0 0 43 3 43c28 0 60 -1 108 -1c61 0 111 1 111 1c3 0 0 -43 -3 -43c-41 1 -66 1 -108 1z" />
    <glyph glyph-name="degree" unicode="&#xb0;" horiz-adv-x="279" 
d="M14 634c0 71 55 126 125 126s126 -55 126 -126s-56 -125 -126 -125c-71 0 -125 54 -125 125zM45 634c0 -56 39 -101 94 -101c56 0 95 45 95 101s-39 102 -95 102s-94 -46 -94 -102z" />
    <glyph glyph-name="acute" unicode="&#xb4;" 
d="M147 603c-10 -5 -19 2 -16 5l151 128h3c2 0 27 -41 36 -58l-1 -3z" />
    <glyph glyph-name="paragraph" unicode="&#xb6;" horiz-adv-x="474" 
d="M388 723v-823c0 -2 -31 -2 -31 0v823h-85v-823c0 -2 -32 -2 -32 0v487c-9 -1 -23 -2 -36 -2c-115 0 -196 70 -196 182c0 114 79 183 200 183h247c2 0 3 -20 1 -20c-24 -3 -42 -5 -68 -7z" />
    <glyph glyph-name="periodcentered" unicode="&#xb7;" horiz-adv-x="217" 
d="M103 288c-27 0 -48 22 -48 49c0 28 21 49 48 49c28 0 49 -21 49 -49c0 -27 -21 -49 -49 -49z" />
    <glyph glyph-name="cedilla" unicode="&#xb8;" 
d="M145 -205c-4 0 -8 8 -5 9c73 19 110 38 110 63c0 22 -32 37 -60 41l-3 3l38 89h23l-23 -54c50 -10 82 -38 82 -70c0 -44 -55 -78 -162 -81z" />
    <glyph glyph-name="ordmasculine" unicode="&#xba;" horiz-adv-x="513" 
d="M259 290c-119 0 -221 80 -221 231s97 238 216 238s221 -80 221 -231s-97 -238 -216 -238zM259 315c75 0 135 57 135 207c0 159 -59 212 -140 212c-75 0 -135 -56 -135 -207c0 -158 59 -212 140 -212z" />
    <glyph glyph-name="guillemotright" unicode="&#xbb;" horiz-adv-x="384" 
d="M40 445l162 -183c1 -1 1 -16 0 -17l-161 -182c-5 -5 -17 -4 -15 -1l99 191l-99 192c-2 3 12 2 14 0zM185 445l162 -183c1 -1 1 -16 0 -17l-161 -182c-5 -5 -17 -4 -15 -1l99 191l-99 192c-2 3 12 2 14 0z" />
    <glyph glyph-name="onequarter" unicode="&#xbc;" horiz-adv-x="570" 
d="M495 361l-1 -32v-205c27 0 58 6 60 6s0 -34 -2 -33c-18 2 -38 3 -58 3v-80l42 -3c1 0 0 -17 -1 -17h-146c-1 0 0 17 1 17l41 4c1 15 1 19 1 39v40h-161c-1 0 -1 23 0 24l192 240c1 1 32 -2 32 -3zM278 343c-103 -152 -262 -383 -262 -383c-3 -4 -43 -4 -39 0
c73 109 146 212 276 402c99 146 273 402 273 402c3 4 43 5 39 0c-58 -85 -180 -263 -287 -421zM181 410c1 0 0 -17 -1 -17h-150c-1 0 0 17 1 17l43 4v244c0 16 0 33 -1 59c-15 -2 -36 -3 -46 -3c-1 0 -1 18 0 18c39 5 82 12 106 21c1 0 5 -2 5 -3l-1 -32v-304zM432 287
l-128 -163h128v163z" />
    <glyph glyph-name="onehalf" unicode="&#xbd;" horiz-adv-x="607" 
d="M342 0c-3 0 -5 34 -2 36c40 38 70 67 101 98c36 36 66 73 66 134c0 43 -22 73 -65 73c-38 0 -62 -20 -91 -54h-2c-1 0 -1 55 2 56c25 13 58 21 100 21c71 0 123 -29 123 -92c0 -72 -61 -116 -98 -147c-28 -23 -57 -48 -84 -71v-2h62c50 0 92 3 127 7h5l-14 -59h-230z
M278 343c-103 -152 -262 -383 -262 -383c-3 -4 -43 -4 -39 0c73 109 146 212 276 402c99 146 273 402 273 402c3 4 43 5 39 0c-58 -85 -180 -263 -287 -421zM181 410c1 0 0 -17 -1 -17h-150c-1 0 0 17 1 17l43 4v244c0 16 0 33 -1 59c-15 -2 -36 -3 -46 -3c-1 0 -1 18 0 18
c39 5 82 12 106 21c1 0 5 -2 5 -3l-1 -32v-304z" />
    <glyph glyph-name="threequarters" unicode="&#xbe;" horiz-adv-x="609" 
d="M534 361l-1 -32v-205c27 0 58 6 60 6s0 -34 -2 -33c-18 2 -38 3 -58 3v-80l42 -3c1 0 0 -17 -1 -17h-146c-1 0 0 17 1 17l41 4c1 15 1 19 1 39v40h-161c-1 0 -1 23 0 24l192 240c1 1 32 -2 32 -3zM317 343c-103 -152 -262 -383 -262 -383c-3 -4 -43 -4 -39 0
c73 109 146 212 276 402c99 146 273 402 273 402c3 4 43 5 39 0c-58 -85 -180 -263 -287 -421zM113 388c-43 0 -66 5 -95 16c-3 1 -2 56 -1 56h2c30 -33 58 -49 95 -49c49 0 75 40 75 88c0 55 -29 76 -67 76c-15 0 -34 -3 -45 -6c-2 -1 -5 24 -3 24c58 14 96 38 96 84
c0 37 -23 57 -54 57c-37 0 -65 -16 -89 -39h-2c-1 0 -2 46 1 47c19 8 51 15 91 15c69 0 117 -19 117 -78c0 -38 -33 -65 -98 -83v-1c65 3 119 -30 119 -92c0 -67 -55 -115 -142 -115zM471 287l-128 -163h128v163z" />
    <glyph glyph-name="questiondown" unicode="&#xbf;" horiz-adv-x="389" 
d="M266 236c-98 -79 -165 -138 -165 -225c0 -98 65 -130 120 -130c61 0 109 36 140 76h3c4 0 7 -76 -3 -80c-36 -14 -85 -26 -144 -26c-115 0 -190 70 -190 178c0 103 99 190 195 257l7 147c0 2 20 2 20 -1c8 -57 24 -166 24 -183c0 -8 -4 -11 -7 -13zM245 620
c27 0 48 -22 48 -49c0 -28 -21 -49 -48 -49c-28 0 -49 21 -49 49c0 27 21 49 49 49z" />
    <glyph glyph-name="Agrave" unicode="&#xc0;" horiz-adv-x="684" 
d="M181 22c2 0 0 -22 -1 -22h-168c-3 0 -2 21 1 21c25 4 39 6 57 10c88 233 199 532 271 730c1 3 15 5 17 0s188 -542 255 -731c25 -3 38 -5 60 -9c2 0 2 -21 -1 -21h-238c-3 0 -3 21 1 21c22 2 47 6 77 8c-14 44 -33 104 -57 173l-17 50l-130 3c-40 1 -82 1 -120 1
l-80 -225c30 -4 42 -6 73 -9zM310 283h117l-108 317h-7c-31 -88 -72 -201 -113 -314c35 -2 74 -3 111 -3zM440 787l-193 54l-2 2c6 18 23 60 25 61h3l181 -109c4 -1 -3 -11 -14 -8z" />
    <glyph glyph-name="Aacute" unicode="&#xc1;" horiz-adv-x="684" 
d="M181 22c2 0 0 -22 -1 -22h-168c-3 0 -2 21 1 21c25 4 39 6 57 10c88 233 199 532 271 730c1 3 15 5 17 0s188 -542 255 -731c25 -3 38 -5 60 -9c2 0 2 -21 -1 -21h-238c-3 0 -3 21 1 21c22 2 47 6 77 8c-14 44 -33 104 -57 173l-17 50l-130 3c-40 1 -82 1 -120 1
l-80 -225c30 -4 42 -6 73 -9zM310 283h117l-108 317h-7c-31 -88 -72 -201 -113 -314c35 -2 74 -3 111 -3zM272 787c-11 -3 -18 7 -14 8l181 109h3c2 -1 19 -43 25 -61l-2 -2z" />
    <glyph glyph-name="Acircumflex" unicode="&#xc2;" horiz-adv-x="684" 
d="M181 22c2 0 0 -22 -1 -22h-168c-3 0 -2 21 1 21c25 4 39 6 57 10c88 233 199 532 271 730c1 3 15 5 17 0s188 -542 255 -731c25 -3 38 -5 60 -9c2 0 2 -21 -1 -21h-238c-3 0 -3 21 1 21c22 2 47 6 77 8c-14 44 -33 104 -57 173l-17 50l-130 3c-40 1 -82 1 -120 1
l-80 -225c30 -4 42 -6 73 -9zM310 283h117l-108 317h-7c-31 -88 -72 -201 -113 -314c35 -2 74 -3 111 -3zM471 781l-121 59l-121 -59c-5 -2 -17 0 -14 3l121 119c2 2 27 2 29 0l120 -119c3 -3 -9 -5 -14 -3z" />
    <glyph glyph-name="Atilde" unicode="&#xc3;" horiz-adv-x="684" 
d="M181 22c2 0 0 -22 -1 -22h-168c-3 0 -2 21 1 21c25 4 39 6 57 10c88 233 199 532 271 730c1 3 15 5 17 0s188 -542 255 -731c25 -3 38 -5 60 -9c2 0 2 -21 -1 -21h-238c-3 0 -3 21 1 21c22 2 47 6 77 8c-14 44 -33 104 -57 173l-17 50l-130 3c-40 1 -82 1 -120 1
l-80 -225c30 -4 42 -6 73 -9zM310 283h117l-108 317h-7c-31 -88 -72 -201 -113 -314c35 -2 74 -3 111 -3zM415 803c-35 0 -95 26 -124 26c-20 0 -40 -20 -57 -45c-2 -3 -14 -3 -13 0c25 64 58 99 83 99c32 0 95 -27 124 -27c18 0 38 17 58 46c1 2 13 3 12 0
c-24 -67 -56 -99 -83 -99z" />
    <glyph glyph-name="Adieresis" unicode="&#xc4;" horiz-adv-x="684" 
d="M181 22c2 0 0 -22 -1 -22h-168c-3 0 -2 21 1 21c25 4 39 6 57 10c88 233 199 532 271 730c1 3 15 5 17 0s188 -542 255 -731c25 -3 38 -5 60 -9c2 0 2 -21 -1 -21h-238c-3 0 -3 21 1 21c22 2 47 6 77 8c-14 44 -33 104 -57 173l-17 50l-130 3c-40 1 -82 1 -120 1
l-80 -225c30 -4 42 -6 73 -9zM310 283h117l-108 317h-7c-31 -88 -72 -201 -113 -314c35 -2 74 -3 111 -3zM246 784c-24 0 -45 21 -45 45c0 25 21 46 45 46c25 0 45 -21 45 -46c0 -24 -20 -45 -45 -45zM453 784c-24 0 -44 21 -44 45c0 25 20 46 44 46c25 0 46 -21 46 -46
c0 -24 -21 -45 -46 -45z" />
    <glyph glyph-name="Aring" unicode="&#xc5;" horiz-adv-x="684" 
d="M181 22c2 0 0 -22 -1 -22h-168c-3 0 -2 21 1 21c25 4 39 6 57 10c88 233 199 532 271 730c1 3 15 5 17 0s188 -542 255 -731c25 -3 38 -5 60 -9c2 0 2 -21 -1 -21h-238c-3 0 -3 21 1 21c22 2 47 6 77 8c-14 44 -33 104 -57 173l-17 50l-130 3c-40 1 -82 1 -120 1
l-80 -225c30 -4 42 -6 73 -9zM310 283h117l-108 317h-7c-31 -88 -72 -201 -113 -314c35 -2 74 -3 111 -3zM265 862c0 45 36 82 85 82s86 -37 86 -82s-37 -81 -86 -81s-85 36 -85 81zM303 862c0 -33 19 -58 47 -58s48 25 48 58s-20 59 -48 59s-47 -26 -47 -59z" />
    <glyph glyph-name="AE" unicode="&#xc6;" horiz-adv-x="891" 
d="M172 22c2 0 0 -22 -1 -22h-166c-3 0 -2 21 1 21c25 4 39 6 57 10c127 254 250 513 335 692c-25 2 -56 4 -76 7c-2 0 -1 20 2 20h436c30 0 63 2 80 2c2 0 8 -92 6 -92h-4c-49 37 -103 65 -241 65h-75v-327h39c60 0 120 16 152 31h5c2 0 1 -84 0 -84h-5
c-42 18 -91 29 -151 29h-40v-346h84c107 0 190 23 250 68h5c2 0 -7 -96 -10 -96h-491c-2 0 0 21 2 21l66 8c2 39 3 104 3 177v65l-90 2c-37 1 -88 1 -128 1l-118 -243c30 -4 42 -6 73 -9zM347 301h88v420h-5c-46 -98 -123 -259 -199 -417c37 -2 83 -3 116 -3z" />
    <glyph glyph-name="Ccedilla" unicode="&#xc7;" horiz-adv-x="684" 
d="M294 -205c-4 0 -8 8 -5 9c73 19 110 38 110 63c0 22 -32 37 -60 41l-3 3l33 79c-193 18 -332 148 -332 378c0 232 171 395 367 395c102 0 182 -13 230 -42c5 -3 1 -87 -2 -87h-2c-79 70 -133 97 -226 97c-167 0 -265 -146 -265 -349c0 -206 98 -364 278 -364
c96 0 157 49 219 111h2c2 0 5 -87 0 -90c-54 -29 -143 -51 -221 -51c-9 0 -17 0 -25 1l-18 -43c50 -10 82 -38 82 -70c0 -44 -55 -78 -162 -81z" />
    <glyph glyph-name="Egrave" unicode="&#xc8;" horiz-adv-x="599" 
d="M33 0c-2 0 0 21 2 21l66 8c2 39 3 118 3 161v533c-26 2 -44 4 -68 7c-2 0 -1 20 2 20h429c30 0 63 2 80 2c2 0 8 -92 6 -92h-4c-49 37 -103 65 -256 65h-98v-322h49c75 0 135 16 167 31h5c2 0 1 -84 0 -84h-5c-42 18 -91 29 -166 29h-50v-351h107c122 0 205 23 265 68h5
c2 0 -7 -96 -10 -96h-529zM411 787l-193 54l-2 2c6 18 23 60 25 61h3l181 -109c4 -1 -3 -11 -14 -8z" />
    <glyph glyph-name="Eacute" unicode="&#xc9;" horiz-adv-x="599" 
d="M33 0c-2 0 0 21 2 21l66 8c2 39 3 118 3 161v533c-26 2 -44 4 -68 7c-2 0 -1 20 2 20h429c30 0 63 2 80 2c2 0 8 -92 6 -92h-4c-49 37 -103 65 -256 65h-98v-322h49c75 0 135 16 167 31h5c2 0 1 -84 0 -84h-5c-42 18 -91 29 -166 29h-50v-351h107c122 0 205 23 265 68h5
c2 0 -7 -96 -10 -96h-529zM236 787c-11 -3 -18 7 -14 8l181 109h3c2 -1 19 -43 25 -61l-2 -2z" />
    <glyph glyph-name="Ecircumflex" unicode="&#xca;" horiz-adv-x="599" 
d="M33 0c-2 0 0 21 2 21l66 8c2 39 3 118 3 161v533c-26 2 -44 4 -68 7c-2 0 -1 20 2 20h429c30 0 63 2 80 2c2 0 8 -92 6 -92h-4c-49 37 -103 65 -256 65h-98v-322h49c75 0 135 16 167 31h5c2 0 1 -84 0 -84h-5c-42 18 -91 29 -166 29h-50v-351h107c122 0 205 23 265 68h5
c2 0 -7 -96 -10 -96h-529zM442 781l-121 59l-121 -59c-5 -2 -17 0 -14 3l121 119c2 2 27 2 29 0l120 -119c3 -3 -9 -5 -14 -3z" />
    <glyph glyph-name="Edieresis" unicode="&#xcb;" horiz-adv-x="599" 
d="M33 0c-2 0 0 21 2 21l66 8c2 39 3 118 3 161v533c-26 2 -44 4 -68 7c-2 0 -1 20 2 20h429c30 0 63 2 80 2c2 0 8 -92 6 -92h-4c-49 37 -103 65 -256 65h-98v-322h49c75 0 135 16 167 31h5c2 0 1 -84 0 -84h-5c-42 18 -91 29 -166 29h-50v-351h107c122 0 205 23 265 68h5
c2 0 -7 -96 -10 -96h-529zM215 784c-24 0 -45 21 -45 45c0 25 21 46 45 46c25 0 45 -21 45 -46c0 -24 -20 -45 -45 -45zM422 784c-24 0 -44 21 -44 45c0 25 20 46 44 46c25 0 46 -21 46 -46c0 -24 -21 -45 -46 -45z" />
    <glyph glyph-name="Igrave" unicode="&#xcc;" horiz-adv-x="300" 
d="M34 0c-2 0 0 20 2 21l66 8c2 39 3 118 3 161v533c-26 2 -44 4 -68 7c-2 0 -1 20 1 20h228c2 0 0 -20 -2 -20l-66 -8c-2 -39 -3 -118 -3 -161v-533l69 -7c2 -1 0 -21 -2 -21h-228zM240 787l-193 54l-2 2c6 18 23 60 25 61h3l181 -109c4 -1 -3 -11 -14 -8z" />
    <glyph glyph-name="Iacute" unicode="&#xcd;" horiz-adv-x="300" 
d="M34 0c-2 0 0 20 2 21l66 8c2 39 3 118 3 161v533c-26 2 -44 4 -68 7c-2 0 -1 20 1 20h228c2 0 0 -20 -2 -20l-66 -8c-2 -39 -3 -118 -3 -161v-533l69 -7c2 -1 0 -21 -2 -21h-228zM62 787c-11 -3 -18 7 -14 8l181 109h3c2 -1 19 -43 25 -61l-2 -2z" />
    <glyph glyph-name="Icircumflex" unicode="&#xce;" horiz-adv-x="300" 
d="M34 0c-2 0 0 20 2 21l66 8c2 39 3 118 3 161v533c-26 2 -44 4 -68 7c-2 0 -1 20 1 20h228c2 0 0 -20 -2 -20l-66 -8c-2 -39 -3 -118 -3 -161v-533l69 -7c2 -1 0 -21 -2 -21h-228zM271 781l-121 59l-121 -59c-5 -2 -17 0 -14 3l121 119c2 2 27 2 29 0l120 -119
c3 -3 -9 -5 -14 -3z" />
    <glyph glyph-name="Idieresis" unicode="&#xcf;" horiz-adv-x="300" 
d="M34 0c-2 0 0 20 2 21l66 8c2 39 3 118 3 161v533c-26 2 -44 4 -68 7c-2 0 -1 20 1 20h228c2 0 0 -20 -2 -20l-66 -8c-2 -39 -3 -118 -3 -161v-533l69 -7c2 -1 0 -21 -2 -21h-228zM46 784c-24 0 -45 21 -45 45c0 25 21 46 45 46c25 0 45 -21 45 -46c0 -24 -20 -45 -45 -45
zM253 784c-24 0 -44 21 -44 45c0 25 20 46 44 46c25 0 46 -21 46 -46c0 -24 -21 -45 -46 -45z" />
    <glyph glyph-name="Eth" unicode="&#xd0;" horiz-adv-x="720" 
d="M684 390c0 -246 -167 -390 -408 -390h-243c-2 0 0 20 2 21l66 8c2 39 3 118 3 161v174c-43 -1 -79 -1 -79 -1c-3 0 0 33 3 33c13 0 42 0 76 -1v328c-26 2 -44 4 -68 7c-2 0 -1 20 1 20h246c211 0 401 -103 401 -360zM196 28h63c226 0 324 130 324 351
c0 260 -112 336 -345 343c-13 1 -24 1 -39 1c-1 -35 -3 -100 -3 -140v-189h36c52 0 158 2 158 2c3 0 0 -33 -3 -33c-41 1 -98 2 -155 2h-36v-337z" />
    <glyph glyph-name="Ntilde" unicode="&#xd1;" horiz-adv-x="746" 
d="M35 0c-2 0 -1 20 2 21c31 6 45 9 70 13c2 46 5 96 5 155v531c-31 4 -44 6 -82 10c-3 0 -2 20 1 20h188l379 -552h4v518c-42 6 -42 8 -73 13c-4 1 -2 21 0 21h185c2 0 1 -20 -2 -21c-31 -6 -45 -9 -70 -13c-2 -46 -5 -96 -5 -155l1 -404c0 -37 -1 -68 4 -157
c0 -2 -14 -5 -15 -3l-477 701h-3v-664c42 -6 42 -8 73 -13c4 -1 2 -21 0 -21h-185zM460 803c-35 0 -95 26 -124 26c-20 0 -40 -20 -57 -45c-2 -3 -14 -3 -13 0c25 64 58 99 83 99c32 0 95 -27 124 -27c18 0 38 17 58 46c1 2 13 3 12 0c-24 -67 -56 -99 -83 -99z" />
    <glyph glyph-name="Ograve" unicode="&#xd2;" horiz-adv-x="778" 
d="M394 -12c-194 0 -357 147 -357 378c0 241 161 397 347 397c194 0 357 -147 357 -378c0 -241 -161 -397 -347 -397zM397 13c152 0 242 139 242 370c0 223 -103 355 -256 355c-154 0 -244 -139 -244 -370c0 -223 103 -355 258 -355zM479 787l-193 54l-2 2c6 18 23 60 25 61
h3l181 -109c4 -1 -3 -11 -14 -8z" />
    <glyph glyph-name="Oacute" unicode="&#xd3;" horiz-adv-x="778" 
d="M394 -12c-194 0 -357 147 -357 378c0 241 161 397 347 397c194 0 357 -147 357 -378c0 -241 -161 -397 -347 -397zM397 13c152 0 242 139 242 370c0 223 -103 355 -256 355c-154 0 -244 -139 -244 -370c0 -223 103 -355 258 -355zM301 787c-11 -3 -18 7 -14 8l181 109h3
c2 -1 19 -43 25 -61l-2 -2z" />
    <glyph glyph-name="Ocircumflex" unicode="&#xd4;" horiz-adv-x="778" 
d="M394 -12c-194 0 -357 147 -357 378c0 241 161 397 347 397c194 0 357 -147 357 -378c0 -241 -161 -397 -347 -397zM397 13c152 0 242 139 242 370c0 223 -103 355 -256 355c-154 0 -244 -139 -244 -370c0 -223 103 -355 258 -355zM510 781l-121 59l-121 -59
c-5 -2 -17 0 -14 3l121 119c2 2 27 2 29 0l120 -119c3 -3 -9 -5 -14 -3z" />
    <glyph glyph-name="Otilde" unicode="&#xd5;" horiz-adv-x="778" 
d="M394 -12c-194 0 -357 147 -357 378c0 241 161 397 347 397c194 0 357 -147 357 -378c0 -241 -161 -397 -347 -397zM397 13c152 0 242 139 242 370c0 223 -103 355 -256 355c-154 0 -244 -139 -244 -370c0 -223 103 -355 258 -355zM454 803c-35 0 -95 26 -124 26
c-20 0 -40 -20 -57 -45c-2 -3 -14 -3 -13 0c25 64 58 99 83 99c32 0 95 -27 124 -27c18 0 38 17 58 46c1 2 13 3 12 0c-24 -67 -56 -99 -83 -99z" />
    <glyph glyph-name="Odieresis" unicode="&#xd6;" horiz-adv-x="778" 
d="M394 -12c-194 0 -357 147 -357 378c0 241 161 397 347 397c194 0 357 -147 357 -378c0 -241 -161 -397 -347 -397zM397 13c152 0 242 139 242 370c0 223 -103 355 -256 355c-154 0 -244 -139 -244 -370c0 -223 103 -355 258 -355zM492 784c-24 0 -44 21 -44 45
c0 25 20 46 44 46c25 0 46 -21 46 -46c0 -24 -21 -45 -46 -45zM285 784c-24 0 -45 21 -45 45c0 25 21 46 45 46c25 0 45 -21 45 -46c0 -24 -20 -45 -45 -45z" />
    <glyph glyph-name="multiply" unicode="&#xd7;" horiz-adv-x="385" 
d="M57 164c-2 -4 -24 17 -22 19l138 148l-138 147c-2 2 19 23 21 20l136 -145l135 145c2 3 24 -18 22 -20l-137 -147l138 -147c2 -2 -19 -23 -21 -19l-136 145z" />
    <glyph glyph-name="Oslash" unicode="&#xd8;" horiz-adv-x="778" 
d="M121 -48c-3 -4 -32 14 -29 20c22 33 46 66 70 103c-75 66 -125 167 -125 291c0 241 161 397 347 397c71 0 140 -21 198 -60l63 95c4 4 32 -16 31 -21c-18 -25 -40 -58 -66 -96c79 -66 131 -169 131 -296c0 -241 -161 -397 -347 -397c-75 0 -146 23 -205 66zM403 377
l-186 -281c44 -54 105 -83 180 -83c152 0 242 139 242 370c0 106 -22 190 -61 250c-52 -76 -113 -167 -175 -256zM139 368c0 -102 20 -184 57 -243c50 73 107 159 179 268l180 270c-43 49 -102 75 -172 75c-154 0 -244 -139 -244 -370z" />
    <glyph glyph-name="Ugrave" unicode="&#xd9;" horiz-adv-x="761" 
d="M379 -10c-165 0 -284 78 -284 275v458c-27 2 -45 4 -68 7c-2 0 -1 20 1 20h228c2 0 0 -20 -2 -20l-66 -8c-2 -39 -3 -116 -3 -159v-301c0 -175 83 -236 216 -236c108 0 221 53 221 256v434c-42 6 -42 8 -73 13c-4 1 -2 21 0 21h185c2 0 1 -20 -2 -21
c-31 -6 -45 -9 -70 -13c-2 -46 -5 -96 -5 -155v-277c0 -224 -119 -294 -278 -294zM491 787l-193 54l-2 2c6 18 23 60 25 61h3l181 -109c4 -1 -3 -11 -14 -8z" />
    <glyph glyph-name="Uacute" unicode="&#xda;" horiz-adv-x="761" 
d="M379 -10c-165 0 -284 78 -284 275v458c-27 2 -45 4 -68 7c-2 0 -1 20 1 20h228c2 0 0 -20 -2 -20l-66 -8c-2 -39 -3 -116 -3 -159v-301c0 -175 83 -236 216 -236c108 0 221 53 221 256v434c-42 6 -42 8 -73 13c-4 1 -2 21 0 21h185c2 0 1 -20 -2 -21
c-31 -6 -45 -9 -70 -13c-2 -46 -5 -96 -5 -155v-277c0 -224 -119 -294 -278 -294zM313 787c-11 -3 -18 7 -14 8l181 109h3c2 -1 19 -43 25 -61l-2 -2z" />
    <glyph glyph-name="Ucircumflex" unicode="&#xdb;" horiz-adv-x="761" 
d="M379 -10c-165 0 -284 78 -284 275v458c-27 2 -45 4 -68 7c-2 0 -1 20 1 20h228c2 0 0 -20 -2 -20l-66 -8c-2 -39 -3 -116 -3 -159v-301c0 -175 83 -236 216 -236c108 0 221 53 221 256v434c-42 6 -42 8 -73 13c-4 1 -2 21 0 21h185c2 0 1 -20 -2 -21
c-31 -6 -45 -9 -70 -13c-2 -46 -5 -96 -5 -155v-277c0 -224 -119 -294 -278 -294zM522 781l-121 59l-121 -59c-5 -2 -17 0 -14 3l121 119c2 2 27 2 29 0l120 -119c3 -3 -9 -5 -14 -3z" />
    <glyph glyph-name="Udieresis" unicode="&#xdc;" horiz-adv-x="761" 
d="M379 -10c-165 0 -284 78 -284 275v458c-27 2 -45 4 -68 7c-2 0 -1 20 1 20h228c2 0 0 -20 -2 -20l-66 -8c-2 -39 -3 -116 -3 -159v-301c0 -175 83 -236 216 -236c108 0 221 53 221 256v434c-42 6 -42 8 -73 13c-4 1 -2 21 0 21h185c2 0 1 -20 -2 -21
c-31 -6 -45 -9 -70 -13c-2 -46 -5 -96 -5 -155v-277c0 -224 -119 -294 -278 -294zM297 784c-24 0 -45 21 -45 45c0 25 21 46 45 46c25 0 45 -21 45 -46c0 -24 -20 -45 -45 -45zM504 784c-24 0 -44 21 -44 45c0 25 20 46 44 46c25 0 46 -21 46 -46c0 -24 -21 -45 -46 -45z
" />
    <glyph glyph-name="Yacute" unicode="&#xdd;" horiz-adv-x="623" 
d="M423 21c2 0 0 -21 -2 -21h-228c-2 0 0 21 2 21l66 8c2 39 3 118 3 161v154l-213 377l-43 9c-1 0 -1 20 1 20h204c4 0 2 -20 -1 -20c-17 -2 -36 -5 -61 -9l189 -341h4c34 61 72 122 117 207c22 42 45 81 70 134l-73 9c-1 0 -1 20 1 20h155c4 0 2 -20 -1 -20l-42 -8
c-54 -90 -136 -236 -217 -383v-311zM244 787c-11 -3 -18 7 -14 8l181 109h3c2 -1 19 -43 25 -61l-2 -2z" />
    <glyph glyph-name="Thorn" unicode="&#xde;" horiz-adv-x="566" 
d="M264 21c2 -1 0 -21 -2 -21h-228c-2 0 0 20 2 21l66 8c2 39 3 118 3 161v533c-26 2 -44 4 -68 7c-2 0 -1 20 1 20h234c2 0 0 -20 -2 -20c-22 -3 -51 -5 -72 -8c-2 -32 -3 -93 -3 -134c230 -1 337 -53 337 -183c0 -162 -162 -197 -256 -204c-2 0 -3 18 -1 18
c58 11 168 35 168 172c0 124 -67 172 -248 172v-535z" />
    <glyph glyph-name="germandbls" unicode="&#xdf;" horiz-adv-x="579" 
d="M315 776c109 0 179 -47 179 -122c0 -62 -49 -99 -107 -144c-36 -28 -65 -53 -65 -89c0 -46 38 -71 112 -113c93 -53 128 -91 128 -170c0 -88 -75 -151 -161 -151c-55 0 -106 11 -132 22c-5 2 0 76 2 76h4c39 -46 75 -68 128 -68c51 0 93 37 93 97c0 63 -31 84 -107 128
c-74 43 -121 83 -121 142c0 62 53 98 102 151c32 34 49 67 49 113c0 61 -37 102 -119 102c-83 0 -124 -61 -124 -133v-592l54 -8c1 0 0 -17 -2 -17h-189c-2 0 0 17 2 17c21 3 36 5 52 8c1 32 2 54 1 98v368h-71c-1 0 -1 24 0 24l71 20v21c0 142 98 220 221 220z" />
    <glyph glyph-name="agrave" unicode="&#xe0;" horiz-adv-x="481" 
d="M161 -13c-74 0 -137 37 -137 129c0 71 44 100 92 117c28 10 100 31 158 56c28 12 47 28 47 54v50c0 95 -31 121 -118 121c-52 0 -111 -31 -146 -65h-3c-3 0 -4 66 0 68c24 11 88 28 149 28c118 0 199 -28 199 -134v-331c0 -46 16 -53 46 -53c11 0 20 2 27 5
c1 1 3 -17 1 -19c-10 -9 -38 -26 -72 -26c-48 0 -79 28 -79 82v15h-3c-25 -57 -95 -97 -161 -97zM192 29c73 0 113 53 129 85v175c-5 -7 -24 -18 -42 -26c-35 -15 -86 -30 -105 -39c-40 -18 -71 -40 -71 -99c0 -64 30 -96 89 -96zM286 603l-173 72l-1 3c9 17 34 58 36 58h3
l151 -128c3 -3 -6 -10 -16 -5z" />
    <glyph glyph-name="aacute" unicode="&#xe1;" horiz-adv-x="481" 
d="M161 -13c-74 0 -137 37 -137 129c0 71 44 100 92 117c28 10 100 31 158 56c28 12 47 28 47 54v50c0 95 -31 121 -118 121c-52 0 -111 -31 -146 -65h-3c-3 0 -4 66 0 68c24 11 88 28 149 28c118 0 199 -28 199 -134v-331c0 -46 16 -53 46 -53c11 0 20 2 27 5
c1 1 3 -17 1 -19c-10 -9 -38 -26 -72 -26c-48 0 -79 28 -79 82v15h-3c-25 -57 -95 -97 -161 -97zM192 29c73 0 113 53 129 85v175c-5 -7 -24 -18 -42 -26c-35 -15 -86 -30 -105 -39c-40 -18 -71 -40 -71 -99c0 -64 30 -96 89 -96zM150 603c-10 -5 -19 2 -16 5l151 128h3
c2 0 27 -41 36 -58l-1 -3z" />
    <glyph glyph-name="acircumflex" unicode="&#xe2;" horiz-adv-x="481" 
d="M161 -13c-74 0 -137 37 -137 129c0 71 44 100 92 117c28 10 100 31 158 56c28 12 47 28 47 54v50c0 95 -31 121 -118 121c-52 0 -111 -31 -146 -65h-3c-3 0 -4 66 0 68c24 11 88 28 149 28c118 0 199 -28 199 -134v-331c0 -46 16 -53 46 -53c11 0 20 2 27 5
c1 1 3 -17 1 -19c-10 -9 -38 -26 -72 -26c-48 0 -79 28 -79 82v15h-3c-25 -57 -95 -97 -161 -97zM192 29c73 0 113 53 129 85v175c-5 -7 -24 -18 -42 -26c-35 -15 -86 -30 -105 -39c-40 -18 -71 -40 -71 -99c0 -64 30 -96 89 -96zM331 602l-114 74l-114 -74
c-5 -3 -17 0 -14 3l114 139c2 2 27 2 29 0l113 -139c3 -3 -9 -6 -14 -3z" />
    <glyph glyph-name="atilde" unicode="&#xe3;" horiz-adv-x="481" 
d="M161 -13c-74 0 -137 37 -137 129c0 71 44 100 92 117c28 10 100 31 158 56c28 12 47 28 47 54v50c0 95 -31 121 -118 121c-52 0 -111 -31 -146 -65h-3c-3 0 -4 66 0 68c24 11 88 28 149 28c118 0 199 -28 199 -134v-331c0 -46 16 -53 46 -53c11 0 20 2 27 5
c1 1 3 -17 1 -19c-10 -9 -38 -26 -72 -26c-48 0 -79 28 -79 82v15h-3c-25 -57 -95 -97 -161 -97zM192 29c73 0 113 53 129 85v175c-5 -7 -24 -18 -42 -26c-35 -15 -86 -30 -105 -39c-40 -18 -71 -40 -71 -99c0 -64 30 -96 89 -96zM269 631c-33 0 -85 26 -112 26
c-20 0 -40 -19 -57 -44c-2 -3 -14 -3 -13 0c25 64 58 100 83 100c30 0 85 -27 112 -27c18 0 38 16 58 45c1 2 13 3 12 0c-24 -67 -56 -100 -83 -100z" />
    <glyph glyph-name="adieresis" unicode="&#xe4;" horiz-adv-x="481" 
d="M161 -13c-74 0 -137 37 -137 129c0 71 44 100 92 117c28 10 100 31 158 56c28 12 47 28 47 54v50c0 95 -31 121 -118 121c-52 0 -111 -31 -146 -65h-3c-3 0 -4 66 0 68c24 11 88 28 149 28c118 0 199 -28 199 -134v-331c0 -46 16 -53 46 -53c11 0 20 2 27 5
c1 1 3 -17 1 -19c-10 -9 -38 -26 -72 -26c-48 0 -79 28 -79 82v15h-3c-25 -57 -95 -97 -161 -97zM192 29c73 0 113 53 129 85v175c-5 -7 -24 -18 -42 -26c-35 -15 -86 -30 -105 -39c-40 -18 -71 -40 -71 -99c0 -64 30 -96 89 -96zM299 637c-24 0 -44 21 -44 45
c0 25 20 46 44 46c25 0 46 -21 46 -46c0 -24 -21 -45 -46 -45zM132 637c-24 0 -45 21 -45 45c0 25 21 46 45 46c25 0 45 -21 45 -46c0 -24 -20 -45 -45 -45z" />
    <glyph glyph-name="aring" unicode="&#xe5;" horiz-adv-x="481" 
d="M161 -13c-74 0 -137 37 -137 129c0 71 44 100 92 117c28 10 100 31 158 56c28 12 47 28 47 54v50c0 95 -31 121 -118 121c-52 0 -111 -31 -146 -65h-3c-3 0 -4 66 0 68c24 11 88 28 149 28c118 0 199 -28 199 -134v-331c0 -46 16 -53 46 -53c11 0 20 2 27 5
c1 1 3 -17 1 -19c-10 -9 -38 -26 -72 -26c-48 0 -79 28 -79 82v15h-3c-25 -57 -95 -97 -161 -97zM192 29c73 0 113 53 129 85v175c-5 -7 -24 -18 -42 -26c-35 -15 -86 -30 -105 -39c-40 -18 -71 -40 -71 -99c0 -64 30 -96 89 -96zM130 680c0 45 36 82 85 82s86 -37 86 -82
s-37 -81 -86 -81s-85 36 -85 81zM168 680c0 -33 19 -58 47 -58s48 25 48 58s-20 59 -48 59s-47 -26 -47 -59z" />
    <glyph glyph-name="ae" unicode="&#xe6;" horiz-adv-x="782" 
d="M754 103c-25 -54 -105 -116 -195 -116c-87 0 -157 40 -199 109c-1 -2 -2 -3 -2 -3c-23 -37 -76 -106 -186 -106c-68 0 -148 37 -148 130c0 71 44 100 92 117c28 10 98 30 156 55c28 12 47 28 47 54v51c0 98 -31 123 -117 123c-49 0 -111 -24 -145 -53h-3c-3 0 -4 50 0 52
c24 12 86 30 148 30c90 0 158 -17 185 -72c40 45 95 71 162 71c126 0 206 -92 206 -251h-355v-26c9 -144 82 -224 170 -224c106 0 148 39 181 72c5 5 6 -6 3 -13zM546 521c-70 0 -137 -61 -146 -191v-12l263 9c0 127 -44 194 -117 194zM103 125c0 -63 45 -96 101 -96
c73 0 125 50 146 85c-21 41 -32 91 -32 148c0 9 0 19 1 28c-5 -8 -24 -19 -42 -27c-35 -15 -84 -29 -103 -38c-40 -18 -71 -40 -71 -100z" />
    <glyph glyph-name="ccedilla" unicode="&#xe7;" horiz-adv-x="487" 
d="M164 -205c-4 0 -8 8 -5 9c73 19 110 38 110 63c0 22 -32 37 -60 41l-3 3l33 78c-122 15 -211 118 -211 264c0 186 133 291 265 291c66 0 107 -8 149 -23c5 -2 6 -72 0 -72h-3c-51 36 -86 66 -147 66c-104 0 -186 -81 -186 -230c0 -154 76 -243 186 -243
c73 -1 134 34 170 70c2 2 7 -7 5 -12c-26 -60 -103 -113 -196 -113h-10l-17 -41c50 -10 82 -38 82 -70c0 -44 -55 -78 -162 -81z" />
    <glyph glyph-name="egrave" unicode="&#xe8;" horiz-adv-x="502" 
d="M474 103c-25 -54 -103 -116 -200 -116c-149 0 -246 107 -246 275c0 166 88 283 236 283c133 0 211 -92 211 -251h-366c2 -161 76 -250 176 -250c113 0 153 39 186 72c5 5 6 -6 3 -13zM261 521c-79 0 -146 -64 -152 -203l274 9c0 127 -42 194 -122 194zM327 603l-173 72
l-1 3c9 17 34 58 36 58h3l151 -128c3 -3 -6 -10 -16 -5z" />
    <glyph glyph-name="eacute" unicode="&#xe9;" horiz-adv-x="502" 
d="M474 103c-25 -54 -103 -116 -200 -116c-149 0 -246 107 -246 275c0 166 88 283 236 283c133 0 211 -92 211 -251h-366c2 -161 76 -250 176 -250c113 0 153 39 186 72c5 5 6 -6 3 -13zM261 521c-79 0 -146 -64 -152 -203l274 9c0 127 -42 194 -122 194zM191 603
c-10 -5 -19 2 -16 5l151 128h3c2 0 27 -41 36 -58l-1 -3z" />
    <glyph glyph-name="ecircumflex" unicode="&#xea;" horiz-adv-x="502" 
d="M474 103c-25 -54 -103 -116 -200 -116c-149 0 -246 107 -246 275c0 166 88 283 236 283c133 0 211 -92 211 -251h-366c2 -161 76 -250 176 -250c113 0 153 39 186 72c5 5 6 -6 3 -13zM261 521c-79 0 -146 -64 -152 -203l274 9c0 127 -42 194 -122 194zM372 602l-114 74
l-114 -74c-5 -3 -17 0 -14 3l114 139c2 2 27 2 29 0l113 -139c3 -3 -9 -6 -14 -3z" />
    <glyph glyph-name="edieresis" unicode="&#xeb;" horiz-adv-x="502" 
d="M474 103c-25 -54 -103 -116 -200 -116c-149 0 -246 107 -246 275c0 166 88 283 236 283c133 0 211 -92 211 -251h-366c2 -161 76 -250 176 -250c113 0 153 39 186 72c5 5 6 -6 3 -13zM261 521c-79 0 -146 -64 -152 -203l274 9c0 127 -42 194 -122 194zM342 637
c-24 0 -44 21 -44 45c0 25 20 46 44 46c25 0 46 -21 46 -46c0 -24 -21 -45 -46 -45zM175 637c-24 0 -45 21 -45 45c0 25 21 46 45 46c25 0 45 -21 45 -46c0 -24 -20 -45 -45 -45z" />
    <glyph glyph-name="igrave" unicode="&#xec;" horiz-adv-x="240" 
d="M26 0c-2 0 0 17 2 17c21 3 36 5 52 8c1 32 1 57 1 99v230c0 43 -1 86 -2 130c-20 7 -34 9 -53 14c-1 0 -1 14 1 14c60 16 72 21 125 36c1 0 9 -5 9 -7l-1 -67v-450c16 -3 33 -5 55 -7c2 0 0 -17 -2 -17h-187zM189 603l-173 72l-1 3c9 17 34 58 36 58h3l151 -128
c3 -3 -6 -10 -16 -5z" />
    <glyph glyph-name="iacute" unicode="&#xed;" horiz-adv-x="240" 
d="M26 0c-2 0 0 17 2 17c21 3 36 5 52 8c1 32 1 57 1 99v230c0 43 -1 86 -2 130c-20 7 -34 9 -53 14c-1 0 -1 14 1 14c60 16 72 21 125 36c1 0 9 -5 9 -7l-1 -67v-450c16 -3 33 -5 55 -7c2 0 0 -17 -2 -17h-187zM53 603c-10 -5 -19 2 -16 5l151 128h3c2 0 27 -41 36 -58
l-1 -3z" />
    <glyph glyph-name="icircumflex" unicode="&#xee;" horiz-adv-x="240" 
d="M26 0c-2 0 0 17 2 17c21 3 36 5 52 8c1 32 1 57 1 99v230c0 43 -1 86 -2 130c-20 7 -34 9 -53 14c-1 0 -1 14 1 14c60 16 72 21 125 36c1 0 9 -5 9 -7l-1 -67v-450c16 -3 33 -5 55 -7c2 0 0 -17 -2 -17h-187zM230 602l-114 74l-114 -74c-5 -3 -17 0 -14 3l114 139
c2 2 27 2 29 0l113 -139c3 -3 -9 -6 -14 -3z" />
    <glyph glyph-name="idieresis" unicode="&#xef;" horiz-adv-x="240" 
d="M26 0c-2 0 0 17 2 17c21 3 36 5 52 8c1 32 1 57 1 99v230c0 43 -1 86 -2 130c-20 7 -34 9 -53 14c-1 0 -1 14 1 14c60 16 72 21 125 36c1 0 9 -5 9 -7l-1 -67v-450c16 -3 33 -5 55 -7c2 0 0 -17 -2 -17h-187zM204 637c-24 0 -44 21 -44 45c0 25 20 46 44 46
c25 0 46 -21 46 -46c0 -24 -21 -45 -46 -45zM37 637c-24 0 -45 21 -45 45c0 25 21 46 45 46c25 0 45 -21 45 -46c0 -24 -20 -45 -45 -45z" />
    <glyph glyph-name="eth" unicode="&#xf0;" horiz-adv-x="568" 
d="M536 330c0 -240 -112 -343 -250 -343c-137 0 -258 95 -258 275s115 283 253 283c48 0 83 -6 107 -13c-29 52 -67 96 -113 137l-2 -1c-74 -38 -150 -76 -150 -76c-5 -3 -16 22 -13 24c55 28 86 42 144 71c-36 30 -75 58 -117 87c-4 3 6 6 12 4c43 -17 94 -39 145 -69
c59 31 128 69 128 69c4 2 17 -22 13 -25c-35 -18 -64 -34 -115 -60c113 -74 216 -188 216 -363zM115 269c0 -193 71 -257 171 -257c95 0 163 68 163 261c0 85 -14 155 -39 214c-28 17 -69 32 -123 32c-103 0 -172 -67 -172 -250z" />
    <glyph glyph-name="ntilde" unicode="&#xf1;" horiz-adv-x="584" 
d="M24 0c-2 0 0 17 2 17c21 3 36 5 52 8c1 32 1 57 1 99v230c0 43 -1 86 -2 130c-20 7 -34 9 -53 14c-1 0 -1 14 1 14c60 16 70 21 123 36c1 0 9 -5 9 -7l-1 -77h3c52 49 141 80 209 80c88 0 139 -40 139 -146v-374c16 -3 32 -5 53 -7c2 0 0 -17 -2 -17h-187c-2 0 0 17 2 17
c21 3 36 5 52 8c1 32 1 57 1 99v244c0 85 -23 126 -105 126c-60 0 -126 -22 -161 -55v-415c16 -3 31 -5 53 -7c2 0 0 -17 -2 -17h-187zM342 631c-33 0 -85 26 -112 26c-20 0 -40 -19 -57 -44c-2 -3 -14 -3 -13 0c25 64 58 100 83 100c30 0 85 -27 112 -27c18 0 38 16 58 45
c1 2 13 3 12 0c-24 -67 -56 -100 -83 -100z" />
    <glyph glyph-name="ograve" unicode="&#xf2;" horiz-adv-x="567" 
d="M286 -13c-138 0 -258 95 -258 275s115 283 253 283s258 -95 258 -275s-115 -283 -253 -283zM286 12c95 0 166 68 166 251c0 193 -70 256 -171 256c-95 0 -166 -67 -166 -250c0 -193 70 -257 171 -257zM351 603l-173 72l-1 3c9 17 34 58 36 58h3l151 -128
c3 -3 -6 -10 -16 -5z" />
    <glyph glyph-name="oacute" unicode="&#xf3;" horiz-adv-x="567" 
d="M286 -13c-138 0 -258 95 -258 275s115 283 253 283s258 -95 258 -275s-115 -283 -253 -283zM286 12c95 0 166 68 166 251c0 193 -70 256 -171 256c-95 0 -166 -67 -166 -250c0 -193 70 -257 171 -257zM215 603c-10 -5 -19 2 -16 5l151 128h3c2 0 27 -41 36 -58l-1 -3z
" />
    <glyph glyph-name="ocircumflex" unicode="&#xf4;" horiz-adv-x="567" 
d="M286 -13c-138 0 -258 95 -258 275s115 283 253 283s258 -95 258 -275s-115 -283 -253 -283zM286 12c95 0 166 68 166 251c0 193 -70 256 -171 256c-95 0 -166 -67 -166 -250c0 -193 70 -257 171 -257zM396 602l-114 74l-114 -74c-5 -3 -17 0 -14 3l114 139c2 2 27 2 29 0
l113 -139c3 -3 -9 -6 -14 -3z" />
    <glyph glyph-name="otilde" unicode="&#xf5;" horiz-adv-x="567" 
d="M286 -13c-138 0 -258 95 -258 275s115 283 253 283s258 -95 258 -275s-115 -283 -253 -283zM286 12c95 0 166 68 166 251c0 193 -70 256 -171 256c-95 0 -166 -67 -166 -250c0 -193 70 -257 171 -257zM334 631c-33 0 -85 26 -112 26c-20 0 -40 -19 -57 -44
c-2 -3 -14 -3 -13 0c25 64 58 100 83 100c30 0 85 -27 112 -27c18 0 38 16 58 45c1 2 13 3 12 0c-24 -67 -56 -100 -83 -100z" />
    <glyph glyph-name="odieresis" unicode="&#xf6;" horiz-adv-x="567" 
d="M286 -13c-138 0 -258 95 -258 275s115 283 253 283s258 -95 258 -275s-115 -283 -253 -283zM286 12c95 0 166 68 166 251c0 193 -70 256 -171 256c-95 0 -166 -67 -166 -250c0 -193 70 -257 171 -257zM366 637c-24 0 -44 21 -44 45c0 25 20 46 44 46c25 0 46 -21 46 -46
c0 -24 -21 -45 -46 -45zM199 637c-24 0 -45 21 -45 45c0 25 21 46 45 46c25 0 45 -21 45 -46c0 -24 -20 -45 -45 -45z" />
    <glyph glyph-name="divide" unicode="&#xf7;" horiz-adv-x="445" 
d="M222 453c-28 0 -51 25 -51 52c0 31 23 52 51 52c27 0 51 -21 51 -52c0 -27 -24 -52 -51 -52zM412 336h-380c-3 0 -3 28 0 28h380c3 0 3 -28 0 -28zM273 193c0 -28 -24 -53 -51 -53c-28 0 -51 25 -51 53c0 30 23 52 51 52c27 0 51 -22 51 -52z" />
    <glyph glyph-name="oslash" unicode="&#xf8;" horiz-adv-x="567" 
d="M103 -56c-2 -3 -29 10 -27 15l51 80c-60 45 -99 120 -99 223c0 180 115 283 253 283c51 0 99 -13 140 -38c26 41 45 71 45 71c2 4 30 -12 29 -16c-13 -19 -29 -45 -48 -74c56 -46 92 -119 92 -218c0 -180 -115 -283 -253 -283c-48 0 -95 12 -134 35
c-29 -46 -49 -78 -49 -78zM115 269c0 -86 14 -147 39 -187l122 196l122 193c-29 34 -70 48 -117 48c-95 0 -166 -67 -166 -250zM305 264l-132 -209c29 -30 68 -43 113 -43c95 0 166 68 166 251c0 81 -12 139 -34 179c-34 -55 -74 -117 -113 -178z" />
    <glyph glyph-name="ugrave" unicode="&#xf9;" horiz-adv-x="575" 
d="M240 -13c-94 0 -163 54 -163 156v259l-1 107c-16 3 -32 5 -53 7c-2 0 0 17 2 17h134v-354c0 -99 33 -139 120 -139c65 0 108 30 134 58v296l-1 115c-16 3 -32 5 -53 7c-2 0 0 17 2 17h133v-370l1 -123c36 -6 37 -7 69 -12c2 0 2 -16 -1 -16c-61 -9 -76 -10 -139 -23
c-1 0 -5 5 -5 7v76h-5c-38 -52 -121 -85 -174 -85zM345 603l-173 72l-1 3c9 17 34 58 36 58h3l151 -128c3 -3 -6 -10 -16 -5z" />
    <glyph glyph-name="uacute" unicode="&#xfa;" horiz-adv-x="575" 
d="M240 -13c-94 0 -163 54 -163 156v259l-1 107c-16 3 -32 5 -53 7c-2 0 0 17 2 17h134v-354c0 -99 33 -139 120 -139c65 0 108 30 134 58v296l-1 115c-16 3 -32 5 -53 7c-2 0 0 17 2 17h133v-370l1 -123c36 -6 37 -7 69 -12c2 0 2 -16 -1 -16c-61 -9 -76 -10 -139 -23
c-1 0 -5 5 -5 7v76h-5c-38 -52 -121 -85 -174 -85zM209 603c-10 -5 -19 2 -16 5l151 128h3c2 0 27 -41 36 -58l-1 -3z" />
    <glyph glyph-name="ucircumflex" unicode="&#xfb;" horiz-adv-x="575" 
d="M240 -13c-94 0 -163 54 -163 156v259l-1 107c-16 3 -32 5 -53 7c-2 0 0 17 2 17h134v-354c0 -99 33 -139 120 -139c65 0 108 30 134 58v296l-1 115c-16 3 -32 5 -53 7c-2 0 0 17 2 17h133v-370l1 -123c36 -6 37 -7 69 -12c2 0 2 -16 -1 -16c-61 -9 -76 -10 -139 -23
c-1 0 -5 5 -5 7v76h-5c-38 -52 -121 -85 -174 -85zM390 602l-114 74l-114 -74c-5 -3 -17 0 -14 3l114 139c2 2 27 2 29 0l113 -139c3 -3 -9 -6 -14 -3z" />
    <glyph glyph-name="udieresis" unicode="&#xfc;" horiz-adv-x="575" 
d="M240 -13c-94 0 -163 54 -163 156v259l-1 107c-16 3 -32 5 -53 7c-2 0 0 17 2 17h134v-354c0 -99 33 -139 120 -139c65 0 108 30 134 58v296l-1 115c-16 3 -32 5 -53 7c-2 0 0 17 2 17h133v-370l1 -123c36 -6 37 -7 69 -12c2 0 2 -16 -1 -16c-61 -9 -76 -10 -139 -23
c-1 0 -5 5 -5 7v76h-5c-38 -52 -121 -85 -174 -85zM360 637c-24 0 -44 21 -44 45c0 25 20 46 44 46c25 0 46 -21 46 -46c0 -24 -21 -45 -46 -45zM193 637c-24 0 -45 21 -45 45c0 25 21 46 45 46c25 0 45 -21 45 -46c0 -24 -20 -45 -45 -45z" />
    <glyph glyph-name="yacute" unicode="&#xfd;" horiz-adv-x="490" 
d="M96 -178c-27 0 -47 5 -57 10c-7 3 -5 50 0 50h1c19 -13 40 -24 66 -24c47 0 64 20 81 42c21 27 33 56 43 86l-187 524l-38 7c-2 0 -2 16 1 16h185c3 0 1 -16 -2 -16l-54 -8c12 -38 26 -79 41 -121l97 -295h2l78 236c32 100 42 134 54 180c-19 4 -34 6 -49 8
c-2 0 -2 16 1 16h125c3 0 1 -15 -2 -16c-15 -3 -22 -5 -37 -9c-15 -40 -30 -85 -54 -157l-108 -316c-29 -79 -49 -123 -72 -153c-29 -37 -66 -60 -115 -60zM200 603c-10 -5 -19 2 -16 5l151 128h3c2 0 27 -41 36 -58l-1 -3z" />
    <glyph glyph-name="thorn" unicode="&#xfe;" horiz-adv-x="574" 
d="M71 -166c1 32 1 57 1 99v651c0 43 -1 87 -2 131l-49 12c-1 0 -1 13 1 14c57 16 70 20 123 36c1 0 9 -5 9 -7c0 -30 -1 -73 -1 -118c-1 -58 -1 -119 -1 -156h3c33 27 102 50 151 50c161 0 240 -107 240 -251c0 -213 -130 -307 -285 -307c-37 0 -73 6 -108 15v-168
c16 -3 43 -6 63 -9c2 0 0 -17 -2 -17h-197c-2 0 0 17 2 17c21 3 36 5 52 8zM261 13c142 0 202 88 202 261c0 166 -73 225 -192 225c-45 0 -95 -16 -118 -28v-422c29 -20 67 -36 108 -36z" />
    <glyph glyph-name="ydieresis" unicode="&#xff;" horiz-adv-x="490" 
d="M96 -178c-27 0 -47 5 -57 10c-7 3 -5 50 0 50h1c19 -13 40 -24 66 -24c47 0 64 20 81 42c21 27 33 56 43 86l-187 524l-38 7c-2 0 -2 16 1 16h185c3 0 1 -16 -2 -16l-54 -8c12 -38 26 -79 41 -121l97 -295h2l78 236c32 100 42 134 54 180c-19 4 -34 6 -49 8
c-2 0 -2 16 1 16h125c3 0 1 -15 -2 -16c-15 -3 -22 -5 -37 -9c-15 -40 -30 -85 -54 -157l-108 -316c-29 -79 -49 -123 -72 -153c-29 -37 -66 -60 -115 -60zM184 637c-24 0 -45 21 -45 45c0 25 21 46 45 46c25 0 45 -21 45 -46c0 -24 -20 -45 -45 -45zM351 637
c-24 0 -44 21 -44 45c0 25 20 46 44 46c25 0 46 -21 46 -46c0 -24 -21 -45 -46 -45z" />
    <glyph glyph-name="dotlessi" unicode="&#x131;" horiz-adv-x="240" 
d="M26 0c-2 0 0 17 2 17c21 3 36 5 52 8c1 32 1 57 1 99v230c0 43 -1 86 -2 130c-20 7 -34 9 -53 14c-1 0 -1 14 1 14c60 16 72 21 125 36c1 0 9 -5 9 -7l-1 -67v-450c16 -3 33 -5 55 -7c2 0 0 -17 -2 -17h-187z" />
    <glyph glyph-name="Lslash" unicode="&#x141;" horiz-adv-x="564" 
d="M34 0c-2 0 0 21 2 21l66 8c2 39 3 118 3 161v95c-42 -18 -78 -34 -78 -34c-2 -1 -14 26 -11 27l89 40l1 405c-26 2 -44 4 -68 7c-2 0 -1 20 1 20h228c2 0 0 -20 -2 -20l-66 -8c-2 -39 -3 -118 -3 -161v-202c6 2 11 5 17 8c53 24 213 99 213 99c3 1 15 -30 13 -31
c-41 -19 -157 -69 -213 -96l-30 -13v-298h92c122 0 178 27 245 78h5c3 0 -1 -106 -5 -106h-499z" />
    <glyph glyph-name="lslash" unicode="&#x142;" horiz-adv-x="259" 
d="M35 0c-2 0 0 17 2 17c21 3 36 5 52 8c1 32 1 57 1 99v273c-44 -30 -70 -47 -70 -47c-4 -2 -19 20 -17 22l87 61v146c0 43 -1 86 -2 130c-20 7 -34 10 -53 14c-1 0 -1 14 1 15c60 16 72 20 125 36c1 0 9 -5 9 -7l-1 -67v-213c41 29 68 48 68 48c3 2 21 -21 18 -24l-86 -60
v-427c16 -3 33 -5 55 -7c2 0 0 -17 -2 -17h-187z" />
    <glyph glyph-name="OE" unicode="&#x152;" horiz-adv-x="986" 
d="M401 750h453c30 0 63 2 80 2c2 0 8 -92 6 -92h-4c-49 37 -103 65 -240 65h-98v-322h49c59 0 119 16 151 31h5c2 0 1 -84 0 -84h-5c-42 18 -91 29 -150 29h-50v-351h107c106 0 189 23 249 68h5c2 0 -7 -96 -10 -96h-541c-198 0 -371 146 -371 366c0 225 171 384 364 384z
M505 40c1 54 2 122 2 150v519c-20 9 -56 16 -103 16c-165 0 -265 -140 -265 -357c0 -210 113 -343 272 -343c42 0 76 6 94 15z" />
    <glyph glyph-name="oe" unicode="&#x153;" horiz-adv-x="904" 
d="M876 103c-25 -54 -101 -116 -195 -116c-92 0 -163 42 -204 115c-45 -75 -120 -115 -200 -115c-128 0 -249 95 -249 275s116 283 244 283c81 0 161 -38 207 -114c38 71 104 114 192 114c130 0 206 -92 206 -251h-356c2 -160 74 -250 171 -250c110 0 148 39 181 72
c5 5 6 -6 3 -13zM668 521c-76 0 -141 -64 -147 -203l264 9c0 127 -40 194 -117 194zM277 12c85 0 157 68 157 251c0 193 -71 256 -162 256c-85 0 -157 -67 -157 -250c0 -193 71 -257 162 -257z" />
    <glyph glyph-name="Scaron" unicode="&#x160;" horiz-adv-x="521" 
d="M243 -12c-73 0 -155 18 -201 44c-7 4 -7 95 0 95h3c52 -61 119 -104 198 -105c100 -1 175 33 175 147c0 96 -85 139 -178 186c-87 50 -190 102 -190 222c0 115 86 186 215 186c82 0 119 -10 166 -28c10 -4 7 -90 3 -90h-3c-31 40 -77 85 -166 85
c-59 0 -148 -24 -148 -114c0 -86 86 -132 185 -186c101 -55 192 -109 192 -227c0 -138 -100 -215 -251 -215zM383 908c5 2 17 0 14 -3l-121 -121c-2 -2 -27 -2 -29 0l-120 121c-3 3 9 5 14 3l121 -57z" />
    <glyph glyph-name="scaron" unicode="&#x161;" horiz-adv-x="399" 
d="M190 -13c-71 0 -124 13 -163 34c-5 3 0 76 2 76h4c50 -56 90 -80 157 -80c70 0 112 21 112 94c0 66 -55 89 -144 131c-60 29 -122 68 -122 156c0 100 85 147 167 147c63 0 111 -11 141 -30c2 -2 2 -70 0 -70h-2c-32 47 -76 69 -139 69c-59 0 -101 -31 -101 -85
c0 -67 38 -82 109 -118c75 -38 162 -75 162 -163c0 -120 -100 -161 -183 -161zM200 671l114 74c5 3 17 0 14 -3l-113 -139c-2 -2 -27 -2 -29 0l-114 139c-3 3 9 6 14 3z" />
    <glyph glyph-name="Ydieresis" unicode="&#x178;" horiz-adv-x="623" 
d="M423 21c2 0 0 -21 -2 -21h-228c-2 0 0 21 2 21l66 8c2 39 3 118 3 161v154l-213 377l-43 9c-1 0 -1 20 1 20h204c4 0 2 -20 -1 -20c-17 -2 -36 -5 -61 -9l189 -341h4c34 61 72 122 117 207c22 42 45 81 70 134l-73 9c-1 0 -1 20 1 20h155c4 0 2 -20 -1 -20l-42 -8
c-54 -90 -136 -236 -217 -383v-311zM228 784c-24 0 -45 21 -45 45c0 25 21 46 45 46c25 0 45 -21 45 -46c0 -24 -20 -45 -45 -45zM435 784c-24 0 -44 21 -44 45c0 25 20 46 44 46c25 0 46 -21 46 -46c0 -24 -21 -45 -46 -45z" />
    <glyph glyph-name="Zcaron" unicode="&#x17d;" horiz-adv-x="619" 
d="M576 -3c-33 1 -104 3 -151 3h-402c-3 0 -3 18 0 22l468 703h-205c-66 0 -160 -26 -218 -65h-3c-4 0 5 93 8 93c33 -1 104 -3 151 -3h368c3 0 3 -18 0 -22l-468 -703h199c109 0 200 31 258 70h3c4 1 -5 -98 -8 -98zM451 908c5 2 17 0 14 -3l-121 -121c-2 -2 -27 -2 -29 0
l-120 121c-3 3 9 5 14 3l121 -57z" />
    <glyph glyph-name="zcaron" unicode="&#x17e;" horiz-adv-x="448" 
d="M428 -1c-58 1 -84 1 -129 1h-283c-2 0 -2 18 0 22l330 490c-89 0 -186 -14 -297 -29h-3c-4 0 -1 53 2 53c32 -1 96 -3 141 -3h242c3 0 3 -18 0 -22l-328 -487c181 3 273 15 325 30h2c4 0 1 -55 -2 -55zM239 671l114 74c5 3 17 0 14 -3l-113 -139c-2 -2 -27 -2 -29 0
l-114 139c-3 3 9 6 14 3z" />
    <glyph glyph-name="circumflex" unicode="&#x2c6;" 
d="M338 602l-114 74l-114 -74c-5 -3 -17 0 -14 3l114 139c2 2 27 2 29 0l113 -139c3 -3 -9 -6 -14 -3z" />
    <glyph glyph-name="caron" unicode="&#x2c7;" 
d="M224 671l114 74c5 3 17 0 14 -3l-113 -139c-2 -2 -27 -2 -29 0l-114 139c-3 3 9 6 14 3z" />
    <glyph glyph-name="breve" unicode="&#x2d8;" 
d="M224 661c33 0 77 16 97 68c1 3 8 -2 8 -8c-6 -64 -47 -114 -104 -114s-98 50 -104 114c0 6 7 11 8 8c20 -52 65 -68 95 -68z" />
    <glyph glyph-name="dotaccent" unicode="&#x2d9;" 
d="M225 637c-27 0 -49 23 -49 50c0 26 22 49 49 49s49 -23 49 -49c0 -27 -22 -50 -49 -50z" />
    <glyph glyph-name="ring" unicode="&#x2da;" 
d="M140 680c0 45 36 82 85 82s86 -37 86 -82s-37 -81 -86 -81s-85 36 -85 81zM178 680c0 -33 19 -58 47 -58s48 25 48 58s-20 59 -48 59s-47 -26 -47 -59z" />
    <glyph glyph-name="ogonek" unicode="&#x2db;" 
d="M256 0h22c-37 -42 -56 -85 -56 -122c0 -23 17 -43 51 -43c22 0 40 8 51 15c2 1 4 -5 1 -9c-18 -24 -52 -43 -85 -43c-59 0 -87 29 -87 66c0 46 41 92 103 136z" />
    <glyph glyph-name="tilde" unicode="&#x2dc;" 
d="M275 631c-33 0 -85 26 -112 26c-20 0 -40 -19 -57 -44c-2 -3 -14 -3 -13 0c25 64 58 100 83 100c30 0 85 -27 112 -27c18 0 38 16 58 45c1 2 13 3 12 0c-24 -67 -56 -100 -83 -100z" />
    <glyph glyph-name="hungarumlaut" unicode="&#x2dd;" 
d="M239 598c-10 -7 -22 -4 -19 0l91 149l2 1c8 -6 35 -30 50 -43l-1 -3zM103 598c-10 -7 -22 -4 -19 0l91 149l2 1c8 -6 35 -30 50 -43l-1 -3z" />
    <glyph glyph-name="endash" unicode="&#x2013;" horiz-adv-x="535" 
d="M481 297c-40 1 -173 4 -248 4h-188l10 35c37 -1 152 -4 238 -4h197z" />
    <glyph glyph-name="emdash" unicode="&#x2014;" horiz-adv-x="736" 
d="M682 297c-40 1 -169 4 -349 4h-288l10 35c37 -1 148 -4 338 -4h298z" />
    <glyph glyph-name="quoteleft" unicode="&#x2018;" horiz-adv-x="176" 
d="M146 750c-17 -78 -27 -124 -38 -183c-1 -3 -84 -4 -82 0c33 78 48 109 81 183c1 3 39 2 39 0z" />
    <glyph glyph-name="quoteright" unicode="&#x2019;" horiz-adv-x="176" 
d="M30 566c17 78 27 124 38 183c1 3 84 4 82 0c-33 -78 -48 -109 -81 -183c-1 -3 -39 -2 -39 0z" />
    <glyph glyph-name="quotesinglbase" unicode="&#x201a;" horiz-adv-x="176" 
d="M30 -92c17 78 27 124 38 183c1 3 84 4 82 0c-33 -78 -48 -109 -81 -183c-1 -3 -39 -2 -39 0z" />
    <glyph glyph-name="quotedblleft" unicode="&#x201c;" horiz-adv-x="296" 
d="M146 750c-17 -78 -27 -124 -38 -183c-1 -3 -84 -4 -82 0c33 78 48 109 81 183c1 3 39 2 39 0zM266 750c-17 -78 -27 -124 -38 -183c-1 -3 -84 -4 -82 0c33 78 48 109 81 183c1 3 39 2 39 0z" />
    <glyph glyph-name="quotedblright" unicode="&#x201d;" horiz-adv-x="296" 
d="M30 566c17 78 27 124 38 183c1 3 84 4 82 0c-33 -78 -48 -109 -81 -183c-1 -3 -39 -2 -39 0zM150 566c17 78 27 124 38 183c1 3 84 4 82 0c-33 -78 -48 -109 -81 -183c-1 -3 -39 -2 -39 0z" />
    <glyph glyph-name="quotedblbase" unicode="&#x201e;" horiz-adv-x="296" 
d="M30 -92c17 78 27 124 38 183c1 3 84 4 82 0c-33 -78 -48 -109 -81 -183c-1 -3 -39 -2 -39 0zM150 -92c17 78 27 124 38 183c1 3 84 4 82 0c-33 -78 -48 -109 -81 -183c-1 -3 -39 -2 -39 0z" />
    <glyph glyph-name="dagger" unicode="&#x2020;" horiz-adv-x="407" 
d="M212 -50c-1 -1 -4 -2 -8 -2s-7 1 -8 2c-30 365 -41 438 -41 471v6c24 70 35 98 35 143c-52 -2 -83 -13 -142 -33h-5c-3 0 -4 89 0 89h5c59 -20 90 -31 141 -33c-3 67 -20 100 -47 152v5c0 1 42 3 63 3c19 0 61 -2 61 -3v-5c-28 -52 -44 -85 -47 -152c51 2 82 13 141 33h5
c4 0 3 -89 0 -89h-5c-59 20 -90 31 -142 33c0 -45 10 -72 34 -143v-6c0 -33 -10 -106 -40 -471z" />
    <glyph glyph-name="daggerdbl" unicode="&#x2021;" horiz-adv-x="407" 
d="M266 0c0 -1 -42 -3 -61 -3c-21 0 -63 2 -63 3v5c28 53 45 95 48 182c-52 -2 -83 -13 -142 -33h-5c-4 0 -3 89 0 89h5c59 -20 90 -31 142 -33c0 71 -13 110 -37 170v6c24 60 37 98 37 165c-52 -2 -83 -13 -142 -33h-5c-3 0 -4 89 0 89h5c59 -20 90 -31 142 -33
c-3 85 -20 118 -48 171v5c0 1 42 3 63 3c19 0 61 -2 61 -3v-5c-29 -53 -45 -86 -48 -171c52 2 83 13 142 33h5c4 0 3 -89 0 -89h-5c-59 20 -90 31 -142 33c0 -67 12 -104 36 -165v-6c-24 -61 -36 -99 -36 -170c52 2 83 13 142 33h5c3 0 4 -89 0 -89h-5
c-59 20 -90 31 -142 33c3 -87 19 -129 48 -182v-5z" />
    <glyph glyph-name="bullet" unicode="&#x2022;" horiz-adv-x="300" 
d="M34 322c0 65 51 117 115 117c65 0 117 -52 117 -117s-52 -116 -117 -116c-64 0 -115 51 -115 116z" />
    <glyph glyph-name="ellipsis" unicode="&#x2026;" horiz-adv-x="651" 
d="M536 -6c-27 0 -48 22 -48 49c0 28 21 49 48 49c28 0 49 -21 49 -49c0 -27 -21 -49 -49 -49zM325 -6c-27 0 -48 22 -48 49c0 28 21 49 48 49c28 0 49 -21 49 -49c0 -27 -21 -49 -49 -49zM114 -6c-27 0 -48 22 -48 49c0 28 21 49 48 49c28 0 49 -21 49 -49
c0 -27 -21 -49 -49 -49z" />
    <glyph glyph-name="perthousand" unicode="&#x2030;" horiz-adv-x="1063" 
d="M879 -9c-99 0 -160 70 -160 180c0 120 61 190 155 190c97 0 159 -70 159 -180c0 -120 -63 -190 -154 -190zM190 389c-99 0 -160 70 -160 180c0 120 61 190 155 190c97 0 159 -70 159 -180c0 -120 -63 -190 -154 -190zM524 -9c-99 0 -160 70 -160 180
c0 120 61 190 155 190c97 0 159 -70 159 -180c0 -120 -63 -190 -154 -190zM191 408c57 0 85 58 85 170c0 106 -34 162 -91 162c-58 0 -87 -58 -87 -170c0 -106 35 -162 93 -162zM874 342c-58 0 -87 -58 -87 -170c0 -106 35 -162 93 -162c57 0 85 58 85 170
c0 106 -34 162 -91 162zM519 342c-58 0 -87 -58 -87 -170c0 -106 35 -162 93 -162c57 0 85 58 85 170c0 106 -34 162 -91 162zM351 343c-99 -155 -247 -383 -247 -383c-3 -4 -41 -5 -37 0l261 402c95 148 258 402 258 402c3 4 40 5 36 -1z" />
    <glyph glyph-name="guilsinglleft" unicode="&#x2039;" horiz-adv-x="240" 
d="M200 61l-163 183c-1 1 -1 16 0 17l162 182c5 5 17 4 15 1l-99 -191l99 -192c2 -3 -12 -2 -14 0z" />
    <glyph glyph-name="guilsinglright" unicode="&#x203a;" horiz-adv-x="242" 
d="M40 445l163 -183c1 -1 1 -16 0 -17l-162 -182c-5 -5 -17 -4 -15 -1l99 191l-99 192c-2 3 12 2 14 0z" />
    <glyph glyph-name="fraction" unicode="&#x2044;" horiz-adv-x="191" 
d="M102 343c-103 -152 -262 -383 -262 -383c-3 -4 -43 -4 -39 0c73 109 146 212 276 402c99 146 273 402 273 402c3 4 43 5 39 0c-58 -85 -180 -263 -287 -421z" />
    <glyph glyph-name="Euro" unicode="&#x20ac;" horiz-adv-x="644" 
d="M600 119c-27 -61 -101 -131 -205 -131c-165 0 -286 118 -301 333c-45 -1 -90 -1 -90 -1c-3 0 0 33 3 33c11 0 44 0 85 -1v16c0 24 1 47 4 69c-45 -1 -92 -1 -92 -1c-3 0 0 33 3 33c12 0 50 0 94 -1c32 180 152 295 301 295c71 0 141 -9 180 -22c5 -2 1 -87 -2 -87h-2
c-40 36 -85 77 -180 77c-114 0 -185 -102 -203 -263c83 0 255 1 255 1c3 0 -6 -33 -9 -33c-35 1 -176 1 -249 1c-1 -18 -2 -36 -2 -55c0 -10 0 -20 1 -30c72 0 221 1 221 1c3 0 -7 -33 -10 -33c-33 1 -144 1 -210 1c16 -186 105 -279 218 -279c99 0 153 47 187 90
c5 5 6 -6 3 -13z" />
    <glyph glyph-name="trademark" unicode="&#x2122;" horiz-adv-x="686" 
d="M296 462c-1 0 -1 11 0 11l31 5c1 16 2 34 2 59v199l-29 3c-2 0 -1 11 0 11h105l72 -205h2l77 205h99c1 0 0 -11 -1 -11l-28 -3c-1 -20 -1 -44 -1 -60v-200l29 -3c1 0 0 -11 0 -11h-118c-1 0 0 11 0 11c11 2 21 3 30 4c0 14 1 44 1 60l3 180h-2l-97 -257
c0 -1 -24 -1 -24 0l-93 256h-2v-238l31 -5c1 0 0 -11 0 -11h-87zM211 472c1 0 0 -11 -1 -11h-117c-1 0 0 11 1 11l29 4c1 15 1 44 1 61v197h-22c-34 0 -49 -13 -69 -27c-1 -1 -4 -2 -4 0c-1 18 -1 43 0 48h2c7 -2 27 -6 46 -6h153c19 0 39 4 46 6h3c1 -7 1 -30 0 -48
c0 -2 -3 -1 -4 0c-18 13 -36 27 -69 27h-24v-259z" />
    <glyph glyph-name="minus" unicode="&#x2212;" horiz-adv-x="429" 
d="M397 336h-365c-3 0 -3 28 0 28h365c3 0 3 -28 0 -28z" />
    <glyph glyph-name="Dcroat" unicode="&#x110;" horiz-adv-x="720" 
d="M684 390c0 -246 -167 -390 -408 -390h-243c-2 0 0 20 2 21l66 8c2 39 3 118 3 161v174c-43 -1 -79 -1 -79 -1c-3 0 0 33 3 33c13 0 42 0 76 -1v328c-26 2 -44 4 -68 7c-2 0 -1 20 1 20h246c211 0 401 -103 401 -360zM196 28h63c226 0 324 130 324 351
c0 260 -112 336 -345 343c-13 1 -24 1 -39 1c-1 -35 -3 -100 -3 -140v-189h36c52 0 158 2 158 2c3 0 0 -33 -3 -33c-41 1 -98 2 -155 2h-36v-337z" />
    <glyph glyph-name="Eng" unicode="&#x14a;" horiz-adv-x="749" 
d="M637 120c0 -176 -39 -268 -158 -268c-25 0 -52 5 -71 11c-8 2 -5 71 0 71h3c20 -14 40 -27 58 -33s37 -10 52 -10c40 0 69 51 69 111c0 55 -29 92 -91 183l-349 513h-3v-664c42 -6 42 -8 73 -13c4 -1 2 -21 0 -21h-185c-2 0 -1 20 2 21c31 6 45 9 70 13c2 46 5 96 5 155
v533c-33 3 -29 4 -67 8c-3 0 -2 20 1 20h173l379 -558h4v524c-42 6 -42 8 -73 13c-4 1 -2 21 0 21h185c2 0 1 -20 -2 -21c-31 -6 -45 -9 -70 -13c-2 -46 -5 -96 -5 -155v-441z" />
    <glyph glyph-name="IJ" unicode="&#x132;" horiz-adv-x="595" 
d="M283 -150c-26 0 -57 6 -77 12c-8 2 -5 76 0 76h3c21 -14 46 -27 69 -36c18 -8 35 -12 50 -12c66 0 74 47 74 112l-1 721c-26 2 -44 4 -68 7c-2 0 -1 20 1 20h228c2 0 0 -20 -2 -20l-66 -8c-2 -39 -3 -118 -3 -161v-442c0 -199 -89 -269 -208 -269zM34 0c-2 0 0 20 2 21
l66 8c2 39 3 118 3 161v533c-26 2 -44 4 -68 7c-2 0 -1 20 1 20h228c2 0 0 -20 -2 -20l-66 -8c-2 -39 -3 -118 -3 -161v-533l69 -7c2 -1 0 -21 -2 -21h-228z" />
    <glyph glyph-name="dcroat" unicode="&#x111;" horiz-adv-x="578" 
d="M247 -11c-118 1 -218 95 -218 263c0 193 138 292 277 292c37 0 89 -7 108 -12h5v48v30h-153c-3 0 0 31 3 31c49 0 93 -2 149 -2c0 25 -1 50 -1 75l-49 12c-1 0 -1 13 1 14c57 16 68 20 121 36c1 0 9 -5 9 -7l-1 -130h91c3 0 0 -31 -3 -31c-28 0 -59 1 -88 2v-568
c36 -8 38 -9 70 -14c2 0 2 -16 -1 -16c-61 -9 -79 -14 -140 -25c-1 0 -5 5 -5 7v71h-5c-27 -26 -79 -77 -170 -76zM282 39c92 -1 115 28 135 45v396c-23 20 -66 38 -112 38c-105 0 -197 -73 -197 -235c0 -148 74 -243 174 -244z" />
    <glyph glyph-name="eng" unicode="&#x14b;" horiz-adv-x="577" 
d="M428 -76v444c0 85 -23 126 -105 126c-60 0 -126 -22 -161 -55v-415c16 -3 31 -5 53 -7c2 0 0 -17 -2 -17h-187c-2 0 0 17 2 17c21 3 36 5 52 8c1 32 1 57 1 99v230c0 43 -1 86 -2 130c-20 7 -34 9 -53 14c-1 0 -1 14 1 14c60 16 70 21 123 36c1 0 9 -5 9 -7l-1 -77h3
c52 49 141 80 209 80c88 0 139 -40 139 -146v-342c0 -169 -82 -234 -161 -234c-20 0 -31 1 -71 12c-7 2 3 56 4 56h1c39 -22 69 -35 103 -35c25 0 43 5 43 69z" />
    <glyph glyph-name="ij" unicode="&#x133;" horiz-adv-x="456" 
d="M119 637c-27 0 -49 23 -49 50c0 26 22 49 49 49s49 -23 49 -49c0 -27 -22 -50 -49 -50zM26 0c-2 0 0 17 2 17c21 3 36 5 52 8c1 32 1 57 1 99v230c0 43 -1 86 -2 130c-20 7 -34 9 -53 14c-1 0 -1 14 1 14c60 16 72 21 125 36c1 0 9 -5 9 -7l-1 -67v-450
c16 -3 33 -5 55 -7c2 0 0 -17 -2 -17h-187zM347 637c-27 0 -49 23 -49 50c0 26 22 49 49 49s49 -23 49 -49c0 -27 -22 -50 -49 -50zM229 -178c-20 0 -31 1 -71 12c-7 2 3 56 4 56h1c39 -22 69 -35 103 -35c25 0 43 5 43 69v430c0 43 -1 86 -2 130c-20 7 -34 9 -53 14
c-1 0 -1 14 1 14c60 16 72 21 125 36c1 0 9 -5 9 -7l-1 -67v-418c0 -169 -82 -234 -159 -234z" />
    <glyph glyph-name="Abreve" unicode="&#x102;" horiz-adv-x="684" 
d="M181 22c2 0 0 -22 -1 -22h-168c-3 0 -2 21 1 21c25 4 39 6 57 10c88 233 199 532 271 730c1 3 15 5 17 0s188 -542 255 -731c25 -3 38 -5 60 -9c2 0 2 -21 -1 -21h-238c-3 0 -3 21 1 21c22 2 47 6 77 8c-14 44 -33 104 -57 173l-17 50l-130 3c-40 1 -82 1 -120 1
l-80 -225c30 -4 42 -6 73 -9zM310 283h117l-108 317h-7c-31 -88 -72 -201 -113 -314c35 -2 74 -3 111 -3zM349 842c39 0 82 14 103 60c1 3 8 -2 8 -7c-8 -58 -48 -107 -110 -107s-102 49 -110 107c0 5 7 10 8 7c21 -46 64 -60 101 -60z" />
    <glyph glyph-name="Amacron" unicode="&#x100;" horiz-adv-x="684" 
d="M181 22c2 0 0 -22 -1 -22h-168c-3 0 -2 21 1 21c25 4 39 6 57 10c88 233 199 532 271 730c1 3 15 5 17 0s188 -542 255 -731c25 -3 38 -5 60 -9c2 0 2 -21 -1 -21h-238c-3 0 -3 21 1 21c22 2 47 6 77 8c-14 44 -33 104 -57 173l-17 50l-130 3c-40 1 -82 1 -120 1
l-80 -225c30 -4 42 -6 73 -9zM310 283h117l-108 317h-7c-31 -88 -72 -201 -113 -314c35 -2 74 -3 111 -3zM351 814c-51 0 -109 -1 -109 -1c-3 0 0 43 3 43c28 0 61 -1 106 -1c58 0 109 1 109 1c3 0 0 -43 -3 -43c-41 1 -67 1 -106 1z" />
    <glyph glyph-name="Aogonek" unicode="&#x104;" horiz-adv-x="684" 
d="M582 -163c-18 -24 -52 -39 -85 -39c-56 0 -86 28 -86 66c0 46 50 98 109 142c-15 46 -42 130 -65 196l-17 50l-130 3c-40 1 -82 1 -120 1l-80 -225c30 -4 42 -6 73 -9c2 0 0 -22 -1 -22h-168c-3 0 -2 21 1 21c25 4 39 6 57 10c88 233 199 532 271 730c1 3 15 5 17 0
s188 -542 255 -731c25 -3 38 -5 60 -9c2 0 2 -21 -1 -21h-137c-37 -42 -59 -85 -59 -122c0 -27 19 -47 54 -47c22 0 40 8 51 15c2 1 4 -5 1 -9zM310 283h117l-108 317h-7c-31 -88 -72 -201 -113 -314c35 -2 74 -3 111 -3z" />
    <glyph glyph-name="Aringacute" unicode="&#x1fa;" horiz-adv-x="684" 
d="M181 22c2 0 0 -22 -1 -22h-168c-3 0 -2 21 1 21c25 4 39 6 57 10c88 233 199 532 271 730c1 3 15 5 17 0s188 -542 255 -731c25 -3 38 -5 60 -9c2 0 2 -21 -1 -21h-238c-3 0 -3 21 1 21c22 2 47 6 77 8c-14 44 -33 104 -57 173l-17 50l-130 3c-40 1 -82 1 -120 1
l-80 -225c30 -4 42 -6 73 -9zM310 283h117l-108 317h-7c-31 -88 -72 -201 -113 -314c35 -2 74 -3 111 -3zM265 862c0 45 36 82 85 82s86 -37 86 -82s-37 -81 -86 -81s-85 36 -85 81zM303 862c0 -33 19 -58 47 -58s48 25 48 58s-20 59 -48 59s-47 -26 -47 -59zM283 952
c-11 -3 -18 7 -14 8l181 109h3c2 -1 19 -43 25 -61l-2 -2z" />
    <glyph glyph-name="AEacute" unicode="&#x1fc;" horiz-adv-x="891" 
d="M172 22c2 0 0 -22 -1 -22h-166c-3 0 -2 21 1 21c25 4 39 6 57 10c127 254 250 513 335 692c-25 2 -56 4 -76 7c-2 0 -1 20 2 20h436c30 0 63 2 80 2c2 0 8 -92 6 -92h-4c-49 37 -103 65 -241 65h-75v-327h39c60 0 120 16 152 31h5c2 0 1 -84 0 -84h-5
c-42 18 -91 29 -151 29h-40v-346h84c107 0 190 23 250 68h5c2 0 -7 -96 -10 -96h-491c-2 0 0 21 2 21l66 8c2 39 3 104 3 177v65l-90 2c-37 1 -88 1 -128 1l-118 -243c30 -4 42 -6 73 -9zM347 301h88v420h-5c-46 -98 -123 -259 -199 -417c37 -2 83 -3 116 -3zM514 787
c-11 -3 -18 7 -14 8l181 109h3c2 -1 19 -43 25 -61l-2 -2z" />
    <glyph glyph-name="Cacute" unicode="&#x106;" horiz-adv-x="684" 
d="M417 -12c-217 0 -380 132 -380 380c0 232 171 395 367 395c102 0 182 -13 230 -42c5 -3 1 -87 -2 -87h-2c-79 70 -133 97 -226 97c-167 0 -265 -146 -265 -349c0 -206 98 -364 278 -364c96 0 157 49 219 111h2c2 0 5 -87 0 -90c-54 -29 -143 -51 -221 -51zM310 787
c-11 -3 -18 7 -14 8l181 109h3c2 -1 19 -43 25 -61l-2 -2z" />
    <glyph glyph-name="Ccaron" unicode="&#x10c;" horiz-adv-x="684" 
d="M417 -12c-217 0 -380 132 -380 380c0 232 171 395 367 395c102 0 182 -13 230 -42c5 -3 1 -87 -2 -87h-2c-79 70 -133 97 -226 97c-167 0 -265 -146 -265 -349c0 -206 98 -364 278 -364c96 0 157 49 219 111h2c2 0 5 -87 0 -90c-54 -29 -143 -51 -221 -51zM519 908
c5 2 17 0 14 -3l-121 -121c-2 -2 -27 -2 -29 0l-120 121c-3 3 9 5 14 3l121 -57z" />
    <glyph glyph-name="Ccircumflex" unicode="&#x108;" horiz-adv-x="684" 
d="M417 -12c-217 0 -380 132 -380 380c0 232 171 395 367 395c102 0 182 -13 230 -42c5 -3 1 -87 -2 -87h-2c-79 70 -133 97 -226 97c-167 0 -265 -146 -265 -349c0 -206 98 -364 278 -364c96 0 157 49 219 111h2c2 0 5 -87 0 -90c-54 -29 -143 -51 -221 -51zM519 781
l-121 59l-121 -59c-5 -2 -17 0 -14 3l121 119c2 2 27 2 29 0l120 -119c3 -3 -9 -5 -14 -3z" />
    <glyph glyph-name="Cdotaccent" unicode="&#x10a;" horiz-adv-x="684" 
d="M417 -12c-217 0 -380 132 -380 380c0 232 171 395 367 395c102 0 182 -13 230 -42c5 -3 1 -87 -2 -87h-2c-79 70 -133 97 -226 97c-167 0 -265 -146 -265 -349c0 -206 98 -364 278 -364c96 0 157 49 219 111h2c2 0 5 -87 0 -90c-54 -29 -143 -51 -221 -51zM398 784
c-27 0 -49 23 -49 50c0 26 22 49 49 49s49 -23 49 -49c0 -27 -22 -50 -49 -50z" />
    <glyph glyph-name="Dcaron" unicode="&#x10e;" horiz-adv-x="720" 
d="M33 0c-2 0 0 20 2 21l66 8c2 39 3 118 3 161v533c-26 2 -44 4 -68 7c-2 0 -1 20 1 20h246c211 0 401 -103 401 -360c0 -246 -167 -390 -408 -390h-243zM196 28h63c226 0 324 130 324 351c0 260 -112 336 -345 343c-13 1 -24 1 -39 1c-1 -35 -3 -100 -3 -140v-555z
M453 908c5 2 17 0 14 -3l-121 -121c-2 -2 -27 -2 -29 0l-120 121c-3 3 9 5 14 3l121 -57z" />
    <glyph glyph-name="Ebreve" unicode="&#x114;" horiz-adv-x="599" 
d="M33 0c-2 0 0 21 2 21l66 8c2 39 3 118 3 161v533c-26 2 -44 4 -68 7c-2 0 -1 20 2 20h429c30 0 63 2 80 2c2 0 8 -92 6 -92h-4c-49 37 -103 65 -256 65h-98v-322h49c75 0 135 16 167 31h5c2 0 1 -84 0 -84h-5c-42 18 -91 29 -166 29h-50v-351h107c122 0 205 23 265 68h5
c2 0 -7 -96 -10 -96h-529zM314 842c39 0 82 14 103 60c1 3 8 -2 8 -7c-8 -58 -48 -107 -110 -107s-102 49 -110 107c0 5 7 10 8 7c21 -46 64 -60 101 -60z" />
    <glyph glyph-name="Ecaron" unicode="&#x11a;" horiz-adv-x="599" 
d="M33 0c-2 0 0 21 2 21l66 8c2 39 3 118 3 161v533c-26 2 -44 4 -68 7c-2 0 -1 20 2 20h429c30 0 63 2 80 2c2 0 8 -92 6 -92h-4c-49 37 -103 65 -256 65h-98v-322h49c75 0 135 16 167 31h5c2 0 1 -84 0 -84h-5c-42 18 -91 29 -166 29h-50v-351h107c122 0 205 23 265 68h5
c2 0 -7 -96 -10 -96h-529zM442 908c5 2 17 0 14 -3l-121 -121c-2 -2 -27 -2 -29 0l-120 121c-3 3 9 5 14 3l121 -57z" />
    <glyph glyph-name="Edotaccent" unicode="&#x116;" horiz-adv-x="599" 
d="M33 0c-2 0 0 21 2 21l66 8c2 39 3 118 3 161v533c-26 2 -44 4 -68 7c-2 0 -1 20 2 20h429c30 0 63 2 80 2c2 0 8 -92 6 -92h-4c-49 37 -103 65 -256 65h-98v-322h49c75 0 135 16 167 31h5c2 0 1 -84 0 -84h-5c-42 18 -91 29 -166 29h-50v-351h107c122 0 205 23 265 68h5
c2 0 -7 -96 -10 -96h-529zM320 784c-27 0 -49 23 -49 50c0 26 22 49 49 49s49 -23 49 -49c0 -27 -22 -50 -49 -50z" />
    <glyph glyph-name="Emacron" unicode="&#x112;" horiz-adv-x="599" 
d="M33 0c-2 0 0 21 2 21l66 8c2 39 3 118 3 161v533c-26 2 -44 4 -68 7c-2 0 -1 20 2 20h429c30 0 63 2 80 2c2 0 8 -92 6 -92h-4c-49 37 -103 65 -256 65h-98v-322h49c75 0 135 16 167 31h5c2 0 1 -84 0 -84h-5c-42 18 -91 29 -166 29h-50v-351h107c122 0 205 23 265 68h5
c2 0 -7 -96 -10 -96h-529zM322 814c-51 0 -109 -1 -109 -1c-3 0 0 43 3 43c28 0 61 -1 106 -1c58 0 109 1 109 1c3 0 0 -43 -3 -43c-41 1 -67 1 -106 1z" />
    <glyph glyph-name="Eogonek" unicode="&#x118;" horiz-adv-x="599" 
d="M33 0c-2 0 0 21 2 21l66 8c2 39 3 118 3 161v533c-26 2 -44 4 -68 7c-2 0 -1 20 2 20h429c30 0 63 2 80 2c2 0 8 -92 6 -92h-4c-49 37 -103 65 -256 65h-98v-322h49c75 0 135 16 167 31h5c2 0 1 -84 0 -84h-5c-42 18 -91 29 -166 29h-50v-351h107c122 0 205 23 265 68h5
c2 0 -7 -96 -10 -96h-94c-37 -42 -56 -85 -56 -122c0 -23 17 -43 51 -43c22 0 40 8 51 15c2 1 4 -5 1 -9c-18 -24 -52 -43 -85 -43c-59 0 -87 29 -87 66c0 46 41 92 103 136h-413z" />
    <glyph glyph-name="Gbreve" unicode="&#x11e;" horiz-adv-x="738" 
d="M605 18c-53 -17 -121 -30 -188 -30c-217 0 -380 132 -380 380c0 232 181 395 377 395c101 0 174 -18 229 -38c6 -2 5 -81 3 -81h-2c-53 51 -132 87 -230 87c-156 0 -275 -146 -275 -349c0 -206 98 -364 278 -364c64 0 118 9 145 21v252c-26 2 -44 4 -68 7
c-2 0 -1 20 1 20h222c2 0 0 -20 -2 -20l-66 -8c-2 -39 -3 -107 -3 -150v-77h38c2 0 1 -14 0 -15c-18 -10 -47 -21 -79 -30zM408 842c39 0 82 14 103 60c1 3 8 -2 8 -7c-8 -58 -48 -107 -110 -107s-102 49 -110 107c0 5 7 10 8 7c21 -46 64 -60 101 -60z" />
    <glyph glyph-name="Gcircumflex" unicode="&#x11c;" horiz-adv-x="738" 
d="M605 18c-53 -17 -121 -30 -188 -30c-217 0 -380 132 -380 380c0 232 181 395 377 395c101 0 174 -18 229 -38c6 -2 5 -81 3 -81h-2c-53 51 -132 87 -230 87c-156 0 -275 -146 -275 -349c0 -206 98 -364 278 -364c64 0 118 9 145 21v252c-26 2 -44 4 -68 7
c-2 0 -1 20 1 20h222c2 0 0 -20 -2 -20l-66 -8c-2 -39 -3 -107 -3 -150v-77h38c2 0 1 -14 0 -15c-18 -10 -47 -21 -79 -30zM530 781l-121 59l-121 -59c-5 -2 -17 0 -14 3l121 119c2 2 27 2 29 0l120 -119c3 -3 -9 -5 -14 -3z" />
    <glyph glyph-name="uni0122" unicode="&#x122;" horiz-adv-x="738" 
d="M605 18c-53 -17 -121 -30 -188 -30c-217 0 -380 132 -380 380c0 232 181 395 377 395c101 0 174 -18 229 -38c6 -2 5 -81 3 -81h-2c-53 51 -132 87 -230 87c-156 0 -275 -146 -275 -349c0 -206 98 -364 278 -364c64 0 118 9 145 21v252c-26 2 -44 4 -68 7
c-2 0 -1 20 1 20h222c2 0 0 -20 -2 -20l-66 -8c-2 -39 -3 -107 -3 -150v-77h38c2 0 1 -14 0 -15c-18 -10 -47 -21 -79 -30zM342 -211c16 67 24 106 34 157c1 5 83 4 81 0c-34 -68 -49 -93 -82 -157c-1 -3 -33 -2 -33 0z" />
    <glyph glyph-name="Gdotaccent" unicode="&#x120;" horiz-adv-x="738" 
d="M605 18c-53 -17 -121 -30 -188 -30c-217 0 -380 132 -380 380c0 232 181 395 377 395c101 0 174 -18 229 -38c6 -2 5 -81 3 -81h-2c-53 51 -132 87 -230 87c-156 0 -275 -146 -275 -349c0 -206 98 -364 278 -364c64 0 118 9 145 21v252c-26 2 -44 4 -68 7
c-2 0 -1 20 1 20h222c2 0 0 -20 -2 -20l-66 -8c-2 -39 -3 -107 -3 -150v-77h38c2 0 1 -14 0 -15c-18 -10 -47 -21 -79 -30zM408 784c-27 0 -49 23 -49 50c0 26 22 49 49 49s49 -23 49 -49c0 -27 -22 -50 -49 -50z" />
    <glyph glyph-name="Hbar" unicode="&#x126;" horiz-adv-x="761" 
d="M264 21c2 -1 0 -21 -2 -21h-228c-2 0 0 20 2 21l66 8c2 39 3 118 3 161v358h-92c-3 0 0 31 3 31h89v144c-26 2 -44 4 -68 7c-2 0 -1 20 1 20h228c2 0 0 -20 -2 -20l-66 -8c-2 -34 -3 -99 -3 -144c70 -1 144 -1 192 -1h179v146c-26 2 -44 4 -68 7c-2 0 -1 20 1 20h228
c2 0 0 -20 -2 -20l-66 -8c-2 -35 -3 -100 -3 -145h93c3 0 0 -31 -3 -31c-21 0 -53 1 -90 1v-519l69 -7c2 -1 0 -21 -2 -21h-228c-2 0 0 20 2 21l66 8c2 39 3 118 3 161v181c-37 1 -82 3 -143 3h-228v-346zM310 403h256v144c-68 1 -137 1 -179 1h-192v-142
c29 -2 63 -3 115 -3z" />
    <glyph glyph-name="Hcircumflex" unicode="&#x124;" horiz-adv-x="761" 
d="M264 21c2 -1 0 -21 -2 -21h-228c-2 0 0 20 2 21l66 8c2 39 3 118 3 161v533c-26 2 -44 4 -68 7c-2 0 -1 20 1 20h228c2 0 0 -20 -2 -20l-66 -8c-2 -39 -3 -118 -3 -161v-155c29 -2 63 -3 115 -3h256v320c-26 2 -44 4 -68 7c-2 0 -1 20 1 20h228c2 0 0 -20 -2 -20l-66 -8
c-2 -39 -3 -118 -3 -161v-533l69 -7c2 -1 0 -21 -2 -21h-228c-2 0 0 20 2 21l66 8c2 39 3 118 3 161v181c-37 1 -82 3 -143 3h-228v-346zM502 781l-121 59l-121 -59c-5 -2 -17 0 -14 3l121 119c2 2 27 2 29 0l120 -119c3 -3 -9 -5 -14 -3z" />
    <glyph glyph-name="Ibreve" unicode="&#x12c;" horiz-adv-x="300" 
d="M34 0c-2 0 0 20 2 21l66 8c2 39 3 118 3 161v533c-26 2 -44 4 -68 7c-2 0 -1 20 1 20h228c2 0 0 -20 -2 -20l-66 -8c-2 -39 -3 -118 -3 -161v-533l69 -7c2 -1 0 -21 -2 -21h-228zM149 842c39 0 82 14 103 60c1 3 8 -2 8 -7c-8 -58 -48 -107 -110 -107s-102 49 -110 107
c0 5 7 10 8 7c21 -46 64 -60 101 -60z" />
    <glyph glyph-name="Idotaccent" unicode="&#x130;" horiz-adv-x="300" 
d="M34 0c-2 0 0 20 2 21l66 8c2 39 3 118 3 161v533c-26 2 -44 4 -68 7c-2 0 -1 20 1 20h228c2 0 0 -20 -2 -20l-66 -8c-2 -39 -3 -118 -3 -161v-533l69 -7c2 -1 0 -21 -2 -21h-228zM149 784c-27 0 -49 23 -49 50c0 26 22 49 49 49s49 -23 49 -49c0 -27 -22 -50 -49 -50z
" />
    <glyph glyph-name="Imacron" unicode="&#x12a;" horiz-adv-x="300" 
d="M34 0c-2 0 0 20 2 21l66 8c2 39 3 118 3 161v533c-26 2 -44 4 -68 7c-2 0 -1 20 1 20h228c2 0 0 -20 -2 -20l-66 -8c-2 -39 -3 -118 -3 -161v-533l69 -7c2 -1 0 -21 -2 -21h-228zM151 814c-51 0 -109 -1 -109 -1c-3 0 0 43 3 43c28 0 61 -1 106 -1c58 0 109 1 109 1
c3 0 0 -43 -3 -43c-41 1 -67 1 -106 1z" />
    <glyph glyph-name="Iogonek" unicode="&#x12e;" horiz-adv-x="300" 
d="M34 0c-2 0 0 20 2 21l66 8c2 39 3 118 3 161v533c-26 2 -44 4 -68 7c-2 0 -1 20 1 20h228c2 0 0 -20 -2 -20l-66 -8c-2 -39 -3 -118 -3 -161v-533l69 -7c2 -1 0 -21 -2 -21h-66c-37 -42 -56 -85 -56 -122c0 -23 17 -43 51 -43c22 0 40 8 51 15c2 1 4 -5 1 -9
c-18 -24 -52 -43 -85 -43c-59 0 -87 29 -87 66c0 46 41 92 103 136h-140z" />
    <glyph glyph-name="Itilde" unicode="&#x128;" horiz-adv-x="300" 
d="M34 0c-2 0 0 20 2 21l66 8c2 39 3 118 3 161v533c-26 2 -44 4 -68 7c-2 0 -1 20 1 20h228c2 0 0 -20 -2 -20l-66 -8c-2 -39 -3 -118 -3 -161v-533l69 -7c2 -1 0 -21 -2 -21h-228zM215 803c-35 0 -95 26 -124 26c-20 0 -40 -20 -57 -45c-2 -3 -14 -3 -13 0
c25 64 58 99 83 99c32 0 95 -27 124 -27c18 0 38 17 58 46c1 2 13 3 12 0c-24 -67 -56 -99 -83 -99z" />
    <glyph glyph-name="Jcircumflex" unicode="&#x134;" horiz-adv-x="304" 
d="M-8 -150c-26 0 -57 6 -77 12c-8 2 -5 76 0 76h3c21 -14 46 -27 69 -36c18 -8 35 -12 50 -12c66 0 74 47 74 112l-1 721c-26 2 -44 4 -68 7c-2 0 -1 20 1 20h228c2 0 0 -20 -2 -20l-66 -8c-2 -39 -3 -118 -3 -161v-442c0 -199 -89 -269 -208 -269zM274 781l-121 59
l-121 -59c-5 -2 -17 0 -14 3l121 119c2 2 27 2 29 0l120 -119c3 -3 -9 -5 -14 -3z" />
    <glyph glyph-name="uni0136" unicode="&#x136;" horiz-adv-x="632" 
d="M33 0c-2 0 0 21 2 21l66 8c2 39 3 118 3 161v533c-26 2 -44 4 -68 7c-2 0 -1 20 1 20h228c2 0 0 -20 -2 -20l-66 -8c-2 -39 -3 -118 -3 -161v-533l69 -7c2 0 0 -21 -2 -21h-228zM633 -2c-10 0 -67 5 -140 9c-28 36 -53 71 -79 105c-45 59 -192 251 -192 251v15l194 245
c24 30 62 90 87 127c28 2 59 2 82 0v-4c-41 -36 -99 -93 -133 -134l-166 -196l260 -330c44 -55 54 -61 89 -66c2 -1 1 -22 -2 -22zM271 -211c16 67 24 106 34 157c1 5 83 4 81 0c-34 -68 -49 -93 -82 -157c-1 -3 -33 -2 -33 0z" />
    <glyph glyph-name="Lacute" unicode="&#x139;" horiz-adv-x="564" 
d="M34 0c-2 0 0 21 2 21l66 8c2 39 3 118 3 161l1 533c-26 2 -44 4 -68 7c-2 0 -1 20 1 20h228c2 0 0 -20 -2 -20l-66 -8c-2 -39 -3 -118 -3 -161v-533h92c122 0 178 27 245 78h5c3 0 -1 -106 -5 -106h-499zM61 787c-11 -3 -18 7 -14 8l181 109h3c2 -1 19 -43 25 -61l-2 -2z
" />
    <glyph glyph-name="Lcaron" unicode="&#x13d;" horiz-adv-x="564" 
d="M34 0c-2 0 0 21 2 21l66 8c2 39 3 118 3 161l1 533c-26 2 -44 4 -68 7c-2 0 -1 20 1 20h228c2 0 0 -20 -2 -20l-66 -8c-2 -39 -3 -118 -3 -161v-533h92c122 0 178 27 245 78h5c3 0 -1 -106 -5 -106h-499zM306 567l6 182c0 3 79 4 77 0c-27 -75 -37 -100 -66 -172
c-6 -15 -17 -13 -17 -10z" />
    <glyph glyph-name="uni013B" unicode="&#x13b;" horiz-adv-x="564" 
d="M34 0c-2 0 0 21 2 21l66 8c2 39 3 118 3 161l1 533c-26 2 -44 4 -68 7c-2 0 -1 20 1 20h228c2 0 0 -20 -2 -20l-66 -8c-2 -39 -3 -118 -3 -161v-533h92c122 0 178 27 245 78h5c3 0 -1 -106 -5 -106h-499zM245 -211c16 67 24 106 34 157c1 5 83 4 81 0
c-34 -68 -49 -93 -82 -157c-1 -3 -33 -2 -33 0z" />
    <glyph glyph-name="Ldot" unicode="&#x13f;" horiz-adv-x="564" 
d="M34 0c-2 0 0 21 2 21l66 8c2 39 3 118 3 161l1 533c-26 2 -44 4 -68 7c-2 0 -1 20 1 20h228c2 0 0 -20 -2 -20l-66 -8c-2 -39 -3 -118 -3 -161v-533h92c122 0 178 27 245 78h5c3 0 -1 -106 -5 -106h-499zM461 328c-27 0 -48 22 -48 49c0 28 21 49 48 49
c28 0 49 -21 49 -49c0 -27 -21 -49 -49 -49z" />
    <glyph glyph-name="Nacute" unicode="&#x143;" horiz-adv-x="746" 
d="M35 0c-2 0 -1 20 2 21c31 6 45 9 70 13c2 46 5 96 5 155v531c-31 4 -44 6 -82 10c-3 0 -2 20 1 20h188l379 -552h4v518c-42 6 -42 8 -73 13c-4 1 -2 21 0 21h185c2 0 1 -20 -2 -21c-31 -6 -45 -9 -70 -13c-2 -46 -5 -96 -5 -155l1 -404c0 -37 -1 -68 4 -157
c0 -2 -14 -5 -15 -3l-477 701h-3v-664c42 -6 42 -8 73 -13c4 -1 2 -21 0 -21h-185zM307 787c-11 -3 -18 7 -14 8l181 109h3c2 -1 19 -43 25 -61l-2 -2z" />
    <glyph glyph-name="Ncaron" unicode="&#x147;" horiz-adv-x="746" 
d="M35 0c-2 0 -1 20 2 21c31 6 45 9 70 13c2 46 5 96 5 155v531c-31 4 -44 6 -82 10c-3 0 -2 20 1 20h188l379 -552h4v518c-42 6 -42 8 -73 13c-4 1 -2 21 0 21h185c2 0 1 -20 -2 -21c-31 -6 -45 -9 -70 -13c-2 -46 -5 -96 -5 -155l1 -404c0 -37 -1 -68 4 -157
c0 -2 -14 -5 -15 -3l-477 701h-3v-664c42 -6 42 -8 73 -13c4 -1 2 -21 0 -21h-185zM516 908c5 2 17 0 14 -3l-121 -121c-2 -2 -27 -2 -29 0l-120 121c-3 3 9 5 14 3l121 -57z" />
    <glyph glyph-name="uni0145" unicode="&#x145;" horiz-adv-x="746" 
d="M35 0c-2 0 -1 20 2 21c31 6 45 9 70 13c2 46 5 96 5 155v531c-31 4 -44 6 -82 10c-3 0 -2 20 1 20h188l379 -552h4v518c-42 6 -42 8 -73 13c-4 1 -2 21 0 21h185c2 0 1 -20 -2 -21c-31 -6 -45 -9 -70 -13c-2 -46 -5 -96 -5 -155l1 -404c0 -37 -1 -68 4 -157
c0 -2 -14 -5 -15 -3l-477 701h-3v-664c42 -6 42 -8 73 -13c4 -1 2 -21 0 -21h-185zM328 -211c16 67 24 106 34 157c1 5 83 4 81 0c-34 -68 -49 -93 -82 -157c-1 -3 -33 -2 -33 0z" />
    <glyph glyph-name="Obreve" unicode="&#x14e;" horiz-adv-x="778" 
d="M394 -12c-194 0 -357 147 -357 378c0 241 161 397 347 397c194 0 357 -147 357 -378c0 -241 -161 -397 -347 -397zM397 13c152 0 242 139 242 370c0 223 -103 355 -256 355c-154 0 -244 -139 -244 -370c0 -223 103 -355 258 -355zM388 842c39 0 82 14 103 60
c1 3 8 -2 8 -7c-8 -58 -48 -107 -110 -107s-102 49 -110 107c0 5 7 10 8 7c21 -46 64 -60 101 -60z" />
    <glyph glyph-name="Ohungarumlaut" unicode="&#x150;" horiz-adv-x="778" 
d="M394 -12c-194 0 -357 147 -357 378c0 241 161 397 347 397c194 0 357 -147 357 -378c0 -241 -161 -397 -347 -397zM397 13c152 0 242 139 242 370c0 223 -103 355 -256 355c-154 0 -244 -139 -244 -370c0 -223 103 -355 258 -355zM437 786c-11 -5 -22 1 -18 5l115 135h3
c7 -8 26 -29 38 -45l-2 -3zM291 786c-11 -5 -22 1 -18 5l115 135h3c7 -8 26 -29 38 -45l-2 -3z" />
    <glyph glyph-name="Omacron" unicode="&#x14c;" horiz-adv-x="778" 
d="M394 -12c-194 0 -357 147 -357 378c0 241 161 397 347 397c194 0 357 -147 357 -378c0 -241 -161 -397 -347 -397zM397 13c152 0 242 139 242 370c0 223 -103 355 -256 355c-154 0 -244 -139 -244 -370c0 -223 103 -355 258 -355zM390 814c-51 0 -109 -1 -109 -1
c-3 0 0 43 3 43c28 0 61 -1 106 -1c58 0 109 1 109 1c3 0 0 -43 -3 -43c-41 1 -67 1 -106 1z" />
    <glyph glyph-name="Oslashacute" unicode="&#x1fe;" horiz-adv-x="778" 
d="M121 -48c-3 -4 -32 14 -29 20c22 33 46 66 70 103c-75 66 -125 167 -125 291c0 241 161 397 347 397c71 0 140 -21 198 -60l63 95c4 4 32 -16 31 -21c-18 -25 -40 -58 -66 -96c79 -66 131 -169 131 -296c0 -241 -161 -397 -347 -397c-75 0 -146 23 -205 66zM403 377
l-186 -281c44 -54 105 -83 180 -83c152 0 242 139 242 370c0 106 -22 190 -61 250c-52 -76 -113 -167 -175 -256zM139 368c0 -102 20 -184 57 -243c50 73 107 159 179 268l180 270c-43 49 -102 75 -172 75c-154 0 -244 -139 -244 -370zM300 787c-11 -3 -18 7 -14 8l181 109
h3c2 -1 19 -43 25 -61l-2 -2z" />
    <glyph glyph-name="Racute" unicode="&#x154;" horiz-adv-x="673" 
d="M665 18c3 0 2 -20 -1 -20c-45 2 -60 1 -145 4c-73 113 -149 244 -202 338c-42 1 -93 2 -122 6v-318l69 -7c2 -1 0 -21 -2 -21h-228c-2 0 0 20 2 21l66 8c2 39 3 118 3 161v532l-68 8c-2 0 -1 20 1 20h203c237 0 312 -77 312 -188c0 -81 -42 -156 -146 -197v-3
c54 -103 115 -201 193 -313c16 -23 39 -27 65 -31zM195 561v-196c117 -10 266 17 266 171c0 147 -60 187 -263 187c-2 -39 -3 -119 -3 -162zM224 787c-11 -3 -18 7 -14 8l181 109h3c2 -1 19 -43 25 -61l-2 -2z" />
    <glyph glyph-name="Rcaron" unicode="&#x158;" horiz-adv-x="673" 
d="M665 18c3 0 2 -20 -1 -20c-45 2 -60 1 -145 4c-73 113 -149 244 -202 338c-42 1 -93 2 -122 6v-318l69 -7c2 -1 0 -21 -2 -21h-228c-2 0 0 20 2 21l66 8c2 39 3 118 3 161v532l-68 8c-2 0 -1 20 1 20h203c237 0 312 -77 312 -188c0 -81 -42 -156 -146 -197v-3
c54 -103 115 -201 193 -313c16 -23 39 -27 65 -31zM195 561v-196c117 -10 266 17 266 171c0 147 -60 187 -263 187c-2 -39 -3 -119 -3 -162zM407 908c5 2 17 0 14 -3l-121 -121c-2 -2 -27 -2 -29 0l-120 121c-3 3 9 5 14 3l121 -57z" />
    <glyph glyph-name="uni0156" unicode="&#x156;" horiz-adv-x="673" 
d="M665 18c3 0 2 -20 -1 -20c-45 2 -60 1 -145 4c-73 113 -149 244 -202 338c-42 1 -93 2 -122 6v-318l69 -7c2 -1 0 -21 -2 -21h-228c-2 0 0 20 2 21l66 8c2 39 3 118 3 161v532l-68 8c-2 0 -1 20 1 20h203c237 0 312 -77 312 -188c0 -81 -42 -156 -146 -197v-3
c54 -103 115 -201 193 -313c16 -23 39 -27 65 -31zM195 561v-196c117 -10 266 17 266 171c0 147 -60 187 -263 187c-2 -39 -3 -119 -3 -162zM283 -211c16 67 24 106 34 157c1 5 83 4 81 0c-34 -68 -49 -93 -82 -157c-1 -3 -33 -2 -33 0z" />
    <glyph glyph-name="Sacute" unicode="&#x15a;" horiz-adv-x="521" 
d="M243 -12c-73 0 -155 18 -201 44c-7 4 -7 95 0 95h3c52 -61 119 -104 198 -105c100 -1 175 33 175 147c0 96 -85 139 -178 186c-87 50 -190 102 -190 222c0 115 86 186 215 186c82 0 119 -10 166 -28c10 -4 7 -90 3 -90h-3c-31 40 -77 85 -166 85
c-59 0 -148 -24 -148 -114c0 -86 86 -132 185 -186c101 -55 192 -109 192 -227c0 -138 -100 -215 -251 -215zM174 787c-11 -3 -18 7 -14 8l181 109h3c2 -1 19 -43 25 -61l-2 -2z" />
    <glyph glyph-name="uni015E" unicode="&#x15e;" horiz-adv-x="521" 
d="M158 -205c-4 0 -8 8 -5 9c73 19 110 38 110 63c0 22 -32 37 -60 41l-3 3l33 77c-71 2 -147 19 -191 44c-7 4 -7 95 0 95h3c52 -61 119 -104 198 -105c100 -1 175 33 175 147c0 96 -85 139 -178 186c-87 50 -190 102 -190 222c0 115 86 186 215 186c82 0 119 -10 166 -28
c10 -4 7 -90 3 -90h-3c-31 40 -77 85 -166 85c-59 0 -148 -24 -148 -114c0 -86 86 -132 185 -186c101 -55 192 -109 192 -227c0 -134 -95 -210 -238 -215l-18 -42c50 -10 82 -38 82 -70c0 -44 -55 -78 -162 -81z" />
    <glyph glyph-name="Scircumflex" unicode="&#x15c;" horiz-adv-x="521" 
d="M243 -12c-73 0 -155 18 -201 44c-7 4 -7 95 0 95h3c52 -61 119 -104 198 -105c100 -1 175 33 175 147c0 96 -85 139 -178 186c-87 50 -190 102 -190 222c0 115 86 186 215 186c82 0 119 -10 166 -28c10 -4 7 -90 3 -90h-3c-31 40 -77 85 -166 85
c-59 0 -148 -24 -148 -114c0 -86 86 -132 185 -186c101 -55 192 -109 192 -227c0 -138 -100 -215 -251 -215zM383 781l-121 59l-121 -59c-5 -2 -17 0 -14 3l121 119c2 2 27 2 29 0l120 -119c3 -3 -9 -5 -14 -3z" />
    <glyph glyph-name="uni0218" unicode="&#x218;" horiz-adv-x="521" 
d="M243 -12c-73 0 -155 18 -201 44c-7 4 -7 95 0 95h3c52 -61 119 -104 198 -105c100 -1 175 33 175 147c0 96 -85 139 -178 186c-87 50 -190 102 -190 222c0 115 86 186 215 186c82 0 119 -10 166 -28c10 -4 7 -90 3 -90h-3c-31 40 -77 85 -166 85
c-59 0 -148 -24 -148 -114c0 -86 86 -132 185 -186c101 -55 192 -109 192 -227c0 -138 -100 -215 -251 -215zM195 -211c16 67 24 106 34 157c1 5 83 4 81 0c-34 -68 -49 -93 -82 -157c-1 -3 -33 -2 -33 0z" />
    <glyph glyph-name="Tcaron" unicode="&#x164;" horiz-adv-x="636" 
d="M201 -1c-2 0 0 21 2 21l66 8c2 39 3 118 3 161v533h-65c-82 0 -125 -15 -179 -51c-2 -2 -6 -2 -6 0c-1 31 -2 79 0 91c0 1 3 1 4 1c19 -4 70 -15 117 -15h350c47 0 98 11 117 15c1 0 4 0 4 -1c2 -12 1 -60 0 -91c0 -2 -4 -2 -6 0c-48 33 -97 51 -179 51h-66
c-1 -40 -1 -84 -1 -127v-568c28 -2 45 -4 68 -7c2 0 0 -21 -2 -21h-227zM439 908c5 2 17 0 14 -3l-121 -121c-2 -2 -27 -2 -29 0l-120 121c-3 3 9 5 14 3l121 -57z" />
    <glyph glyph-name="Tcommaaccent" unicode="&#x162;" horiz-adv-x="636" 
d="M201 -1c-2 0 0 21 2 21l66 8c2 39 3 118 3 161v533h-65c-82 0 -125 -15 -179 -51c-2 -2 -6 -2 -6 0c-1 31 -2 79 0 91c0 1 3 1 4 1c19 -4 70 -15 117 -15h350c47 0 98 11 117 15c1 0 4 0 4 -1c2 -12 1 -60 0 -91c0 -2 -4 -2 -6 0c-48 33 -97 51 -179 51h-66
c-1 -40 -1 -84 -1 -127v-568c28 -2 45 -4 68 -7c2 0 0 -21 -2 -21h-227zM251 -211c16 67 24 106 34 157c1 5 83 4 81 0c-34 -68 -49 -93 -82 -157c-1 -3 -33 -2 -33 0z" />
    <glyph glyph-name="uni021A" unicode="&#x21a;" horiz-adv-x="636" 
d="M201 -1c-2 0 0 21 2 21l66 8c2 39 3 118 3 161v533h-65c-82 0 -125 -15 -179 -51c-2 -2 -6 -2 -6 0c-1 31 -2 79 0 91c0 1 3 1 4 1c19 -4 70 -15 117 -15h350c47 0 98 11 117 15c1 0 4 0 4 -1c2 -12 1 -60 0 -91c0 -2 -4 -2 -6 0c-48 33 -97 51 -179 51h-66
c-1 -40 -1 -84 -1 -127v-568c28 -2 45 -4 68 -7c2 0 0 -21 -2 -21h-227zM251 -211c16 67 24 106 34 157c1 5 83 4 81 0c-34 -68 -49 -93 -82 -157c-1 -3 -33 -2 -33 0z" />
    <glyph glyph-name="Tbar" unicode="&#x166;" horiz-adv-x="636" 
d="M430 20c2 0 0 -21 -2 -21h-227c-2 0 0 21 2 21l66 8c2 39 3 118 3 161v214h-176c-3 0 0 31 3 31c49 0 99 -1 173 -2v290h-65c-82 0 -125 -15 -179 -51c-2 -2 -6 -2 -6 0c-1 31 -2 79 0 91c0 1 3 1 4 1c19 -4 70 -15 117 -15h350c47 0 98 11 117 15c1 0 4 0 4 -1
c2 -12 1 -60 0 -91c0 -2 -4 -2 -6 0c-48 33 -97 51 -179 51h-66c-1 -40 -1 -84 -1 -127v-163h176c3 0 0 -31 -3 -31c-58 1 -109 2 -173 2v-376c28 -2 45 -4 68 -7z" />
    <glyph glyph-name="Ubreve" unicode="&#x16c;" horiz-adv-x="761" 
d="M379 -10c-165 0 -284 78 -284 275v458c-27 2 -45 4 -68 7c-2 0 -1 20 1 20h228c2 0 0 -20 -2 -20l-66 -8c-2 -39 -3 -116 -3 -159v-301c0 -175 83 -236 216 -236c108 0 221 53 221 256v434c-42 6 -42 8 -73 13c-4 1 -2 21 0 21h185c2 0 1 -20 -2 -21
c-31 -6 -45 -9 -70 -13c-2 -46 -5 -96 -5 -155v-277c0 -224 -119 -294 -278 -294zM400 842c39 0 82 14 103 60c1 3 8 -2 8 -7c-8 -58 -48 -107 -110 -107s-102 49 -110 107c0 5 7 10 8 7c21 -46 64 -60 101 -60z" />
    <glyph glyph-name="Uhungarumlaut" unicode="&#x170;" horiz-adv-x="761" 
d="M379 -10c-165 0 -284 78 -284 275v458c-27 2 -45 4 -68 7c-2 0 -1 20 1 20h228c2 0 0 -20 -2 -20l-66 -8c-2 -39 -3 -116 -3 -159v-301c0 -175 83 -236 216 -236c108 0 221 53 221 256v434c-42 6 -42 8 -73 13c-4 1 -2 21 0 21h185c2 0 1 -20 -2 -21
c-31 -6 -45 -9 -70 -13c-2 -46 -5 -96 -5 -155v-277c0 -224 -119 -294 -278 -294zM303 786c-11 -5 -22 1 -18 5l115 135h3c7 -8 26 -29 38 -45l-2 -3zM449 786c-11 -5 -22 1 -18 5l115 135h3c7 -8 26 -29 38 -45l-2 -3z" />
    <glyph glyph-name="Umacron" unicode="&#x16a;" horiz-adv-x="761" 
d="M379 -10c-165 0 -284 78 -284 275v458c-27 2 -45 4 -68 7c-2 0 -1 20 1 20h228c2 0 0 -20 -2 -20l-66 -8c-2 -39 -3 -116 -3 -159v-301c0 -175 83 -236 216 -236c108 0 221 53 221 256v434c-42 6 -42 8 -73 13c-4 1 -2 21 0 21h185c2 0 1 -20 -2 -21
c-31 -6 -45 -9 -70 -13c-2 -46 -5 -96 -5 -155v-277c0 -224 -119 -294 -278 -294zM402 814c-51 0 -109 -1 -109 -1c-3 0 0 43 3 43c28 0 61 -1 106 -1c58 0 109 1 109 1c3 0 0 -43 -3 -43c-41 1 -67 1 -106 1z" />
    <glyph glyph-name="Uogonek" unicode="&#x172;" horiz-adv-x="761" 
d="M440 -202c-59 0 -87 29 -87 66c0 51 41 92 109 134c-26 -6 -54 -8 -83 -8c-165 0 -284 78 -284 275v458c-27 2 -45 4 -68 7c-2 0 -1 20 1 20h228c2 0 0 -20 -2 -20l-66 -8c-2 -39 -3 -116 -3 -159v-301c0 -175 83 -236 216 -236c108 0 221 53 221 256v434
c-42 6 -42 8 -73 13c-4 1 -2 21 0 21h185c2 0 1 -20 -2 -21c-31 -6 -45 -9 -70 -13c-2 -46 -5 -96 -5 -155v-277c0 -139 -45 -218 -118 -259c-59 -33 -117 -69 -117 -147c0 -23 17 -43 51 -43c22 0 40 8 51 15c2 1 4 -5 1 -9c-18 -24 -52 -43 -85 -43z" />
    <glyph glyph-name="Uring" unicode="&#x16e;" horiz-adv-x="761" 
d="M379 -10c-165 0 -284 78 -284 275v458c-27 2 -45 4 -68 7c-2 0 -1 20 1 20h228c2 0 0 -20 -2 -20l-66 -8c-2 -39 -3 -116 -3 -159v-301c0 -175 83 -236 216 -236c108 0 221 53 221 256v434c-42 6 -42 8 -73 13c-4 1 -2 21 0 21h185c2 0 1 -20 -2 -21
c-31 -6 -45 -9 -70 -13c-2 -46 -5 -96 -5 -155v-277c0 -224 -119 -294 -278 -294zM320 825c0 45 36 82 85 82s86 -37 86 -82s-37 -81 -86 -81s-85 36 -85 81zM358 825c0 -33 19 -58 47 -58s48 25 48 58s-20 59 -48 59s-47 -26 -47 -59z" />
    <glyph glyph-name="Utilde" unicode="&#x168;" horiz-adv-x="761" 
d="M379 -10c-165 0 -284 78 -284 275v458c-27 2 -45 4 -68 7c-2 0 -1 20 1 20h228c2 0 0 -20 -2 -20l-66 -8c-2 -39 -3 -116 -3 -159v-301c0 -175 83 -236 216 -236c108 0 221 53 221 256v434c-42 6 -42 8 -73 13c-4 1 -2 21 0 21h185c2 0 1 -20 -2 -21
c-31 -6 -45 -9 -70 -13c-2 -46 -5 -96 -5 -155v-277c0 -224 -119 -294 -278 -294zM470 803c-35 0 -95 26 -124 26c-20 0 -40 -20 -57 -45c-2 -3 -14 -3 -13 0c25 64 58 99 83 99c32 0 95 -27 124 -27c18 0 38 17 58 46c1 2 13 3 12 0c-24 -67 -56 -99 -83 -99z" />
    <glyph glyph-name="Wacute" unicode="&#x1e82;" horiz-adv-x="1102" 
d="M771 -7c-1 -3 -15 -5 -17 0c-2 4 -123 360 -204 593c-75 -207 -154 -439 -215 -593c-1 -3 -15 -5 -17 0s-185 538 -252 727l-53 9c-2 0 -2 21 1 21h225c3 0 3 -21 -1 -21c-22 -2 -43 -6 -73 -8c14 -44 33 -104 57 -173l131 -396h7l172 485l-29 83c-40 4 -47 6 -72 9
c-2 0 -2 21 1 21h240c3 0 3 -21 -1 -21c-22 -2 -48 -6 -72 -8c14 -44 33 -104 57 -173l132 -396h7l202 568l-71 8c-2 0 0 22 1 22h161c3 0 2 -21 -1 -21l-53 -9c-88 -233 -190 -539 -263 -727zM464 787c-11 -3 -18 7 -14 8l181 109h3c2 -1 19 -43 25 -61l-2 -2z" />
    <glyph glyph-name="Wcircumflex" unicode="&#x174;" horiz-adv-x="1102" 
d="M771 -7c-1 -3 -15 -5 -17 0c-2 4 -123 360 -204 593c-75 -207 -154 -439 -215 -593c-1 -3 -15 -5 -17 0s-185 538 -252 727l-53 9c-2 0 -2 21 1 21h225c3 0 3 -21 -1 -21c-22 -2 -43 -6 -73 -8c14 -44 33 -104 57 -173l131 -396h7l172 485l-29 83c-40 4 -47 6 -72 9
c-2 0 -2 21 1 21h240c3 0 3 -21 -1 -21c-22 -2 -48 -6 -72 -8c14 -44 33 -104 57 -173l132 -396h7l202 568l-71 8c-2 0 0 22 1 22h161c3 0 2 -21 -1 -21l-53 -9c-88 -233 -190 -539 -263 -727zM673 781l-121 59l-121 -59c-5 -2 -17 0 -14 3l121 119c2 2 27 2 29 0l120 -119
c3 -3 -9 -5 -14 -3z" />
    <glyph glyph-name="Wdieresis" unicode="&#x1e84;" horiz-adv-x="1102" 
d="M771 -7c-1 -3 -15 -5 -17 0c-2 4 -123 360 -204 593c-75 -207 -154 -439 -215 -593c-1 -3 -15 -5 -17 0s-185 538 -252 727l-53 9c-2 0 -2 21 1 21h225c3 0 3 -21 -1 -21c-22 -2 -43 -6 -73 -8c14 -44 33 -104 57 -173l131 -396h7l172 485l-29 83c-40 4 -47 6 -72 9
c-2 0 -2 21 1 21h240c3 0 3 -21 -1 -21c-22 -2 -48 -6 -72 -8c14 -44 33 -104 57 -173l132 -396h7l202 568l-71 8c-2 0 0 22 1 22h161c3 0 2 -21 -1 -21l-53 -9c-88 -233 -190 -539 -263 -727zM448 784c-24 0 -45 21 -45 45c0 25 21 46 45 46c25 0 45 -21 45 -46
c0 -24 -20 -45 -45 -45zM655 784c-24 0 -44 21 -44 45c0 25 20 46 44 46c25 0 46 -21 46 -46c0 -24 -21 -45 -46 -45z" />
    <glyph glyph-name="Wgrave" unicode="&#x1e80;" horiz-adv-x="1102" 
d="M771 -7c-1 -3 -15 -5 -17 0c-2 4 -123 360 -204 593c-75 -207 -154 -439 -215 -593c-1 -3 -15 -5 -17 0s-185 538 -252 727l-53 9c-2 0 -2 21 1 21h225c3 0 3 -21 -1 -21c-22 -2 -43 -6 -73 -8c14 -44 33 -104 57 -173l131 -396h7l172 485l-29 83c-40 4 -47 6 -72 9
c-2 0 -2 21 1 21h240c3 0 3 -21 -1 -21c-22 -2 -48 -6 -72 -8c14 -44 33 -104 57 -173l132 -396h7l202 568l-71 8c-2 0 0 22 1 22h161c3 0 2 -21 -1 -21l-53 -9c-88 -233 -190 -539 -263 -727zM636 787l-193 54l-2 2c6 18 23 60 25 61h3l181 -109c4 -1 -3 -11 -14 -8z" />
    <glyph glyph-name="Ycircumflex" unicode="&#x176;" horiz-adv-x="623" 
d="M423 21c2 0 0 -21 -2 -21h-228c-2 0 0 21 2 21l66 8c2 39 3 118 3 161v154l-213 377l-43 9c-1 0 -1 20 1 20h204c4 0 2 -20 -1 -20c-17 -2 -36 -5 -61 -9l189 -341h4c34 61 72 122 117 207c22 42 45 81 70 134l-73 9c-1 0 -1 20 1 20h155c4 0 2 -20 -1 -20l-42 -8
c-54 -90 -136 -236 -217 -383v-311zM454 781l-121 59l-121 -59c-5 -2 -17 0 -14 3l121 119c2 2 27 2 29 0l120 -119c3 -3 -9 -5 -14 -3z" />
    <glyph glyph-name="Ygrave" unicode="&#x1ef2;" horiz-adv-x="623" 
d="M423 21c2 0 0 -21 -2 -21h-228c-2 0 0 21 2 21l66 8c2 39 3 118 3 161v154l-213 377l-43 9c-1 0 -1 20 1 20h204c4 0 2 -20 -1 -20c-17 -2 -36 -5 -61 -9l189 -341h4c34 61 72 122 117 207c22 42 45 81 70 134l-73 9c-1 0 -1 20 1 20h155c4 0 2 -20 -1 -20l-42 -8
c-54 -90 -136 -236 -217 -383v-311zM423 787l-193 54l-2 2c6 18 23 60 25 61h3l181 -109c4 -1 -3 -11 -14 -8z" />
    <glyph glyph-name="Zacute" unicode="&#x179;" horiz-adv-x="619" 
d="M576 -3c-33 1 -104 3 -151 3h-402c-3 0 -3 18 0 22l468 703h-205c-66 0 -160 -26 -218 -65h-3c-4 0 5 93 8 93c33 -1 104 -3 151 -3h368c3 0 3 -18 0 -22l-468 -703h199c109 0 200 31 258 70h3c4 1 -5 -98 -8 -98zM242 787c-11 -3 -18 7 -14 8l181 109h3
c2 -1 19 -43 25 -61l-2 -2z" />
    <glyph glyph-name="Zdotaccent" unicode="&#x17b;" horiz-adv-x="619" 
d="M576 -3c-33 1 -104 3 -151 3h-402c-3 0 -3 18 0 22l468 703h-205c-66 0 -160 -26 -218 -65h-3c-4 0 5 93 8 93c33 -1 104 -3 151 -3h368c3 0 3 -18 0 -22l-468 -703h199c109 0 200 31 258 70h3c4 1 -5 -98 -8 -98zM329 784c-27 0 -49 23 -49 50c0 26 22 49 49 49
s49 -23 49 -49c0 -27 -22 -50 -49 -50z" />
    <glyph glyph-name="abreve" unicode="&#x103;" horiz-adv-x="481" 
d="M161 -13c-74 0 -137 37 -137 129c0 71 44 100 92 117c28 10 100 31 158 56c28 12 47 28 47 54v50c0 95 -31 121 -118 121c-52 0 -111 -31 -146 -65h-3c-3 0 -4 66 0 68c24 11 88 28 149 28c118 0 199 -28 199 -134v-331c0 -46 16 -53 46 -53c11 0 20 2 27 5
c1 1 3 -17 1 -19c-10 -9 -38 -26 -72 -26c-48 0 -79 28 -79 82v15h-3c-25 -57 -95 -97 -161 -97zM192 29c73 0 113 53 129 85v175c-5 -7 -24 -18 -42 -26c-35 -15 -86 -30 -105 -39c-40 -18 -71 -40 -71 -99c0 -64 30 -96 89 -96zM217 661c33 0 77 16 97 68c1 3 8 -2 8 -8
c-6 -64 -47 -114 -104 -114s-98 50 -104 114c0 6 7 11 8 8c20 -52 65 -68 95 -68z" />
    <glyph glyph-name="amacron" unicode="&#x101;" horiz-adv-x="481" 
d="M161 -13c-74 0 -137 37 -137 129c0 71 44 100 92 117c28 10 100 31 158 56c28 12 47 28 47 54v50c0 95 -31 121 -118 121c-52 0 -111 -31 -146 -65h-3c-3 0 -4 66 0 68c24 11 88 28 149 28c118 0 199 -28 199 -134v-331c0 -46 16 -53 46 -53c11 0 20 2 27 5
c1 1 3 -17 1 -19c-10 -9 -38 -26 -72 -26c-48 0 -79 28 -79 82v15h-3c-25 -57 -95 -97 -161 -97zM192 29c73 0 113 53 129 85v175c-5 -7 -24 -18 -42 -26c-35 -15 -86 -30 -105 -39c-40 -18 -71 -40 -71 -99c0 -64 30 -96 89 -96zM218 637c-54 0 -111 -1 -111 -1
c-3 0 0 43 3 43c28 0 60 -1 108 -1c61 0 111 1 111 1c3 0 0 -43 -3 -43c-41 1 -66 1 -108 1z" />
    <glyph glyph-name="aogonek" unicode="&#x105;" horiz-adv-x="481" 
d="M388 -202c-59 0 -87 29 -87 66c0 42 33 83 108 123h-5c-48 0 -79 28 -79 82v15h-3c-25 -57 -95 -97 -161 -97c-74 0 -137 37 -137 129c0 71 44 100 92 117c28 10 100 31 158 56c28 12 47 28 47 54v50c0 95 -31 121 -118 121c-52 0 -111 -31 -146 -65h-3c-3 0 -4 66 0 68
c24 11 88 28 149 28c118 0 199 -28 199 -134v-331c0 -46 16 -53 46 -53c11 0 20 2 27 5c1 1 3 -17 1 -19c-47 -31 -106 -67 -106 -135c0 -23 17 -43 51 -43c22 0 40 8 51 15c2 1 4 -5 1 -9c-18 -24 -52 -43 -85 -43zM192 29c73 0 113 53 129 85v175c-5 -7 -24 -18 -42 -26
c-35 -15 -86 -30 -105 -39c-40 -18 -71 -40 -71 -99c0 -64 30 -96 89 -96z" />
    <glyph glyph-name="aringacute" unicode="&#x1fb;" horiz-adv-x="481" 
d="M161 -13c-74 0 -137 37 -137 129c0 71 44 100 92 117c28 10 100 31 158 56c28 12 47 28 47 54v50c0 95 -31 121 -118 121c-52 0 -111 -31 -146 -65h-3c-3 0 -4 66 0 68c24 11 88 28 149 28c118 0 199 -28 199 -134v-331c0 -46 16 -53 46 -53c11 0 20 2 27 5
c1 1 3 -17 1 -19c-10 -9 -38 -26 -72 -26c-48 0 -79 28 -79 82v15h-3c-25 -57 -95 -97 -161 -97zM192 29c73 0 113 53 129 85v175c-5 -7 -24 -18 -42 -26c-35 -15 -86 -30 -105 -39c-40 -18 -71 -40 -71 -99c0 -64 30 -96 89 -96zM131 678c0 45 36 82 85 82s86 -37 86 -82
s-37 -81 -86 -81s-85 36 -85 81zM169 678c0 -33 19 -58 47 -58s48 25 48 58s-20 59 -48 59s-47 -26 -47 -59zM136 784c-11 -3 -18 7 -14 8l181 109h3c2 -1 19 -43 25 -61l-2 -2z" />
    <glyph glyph-name="aeacute" unicode="&#x1fd;" horiz-adv-x="782" 
d="M754 103c-25 -54 -105 -116 -195 -116c-87 0 -157 40 -199 109c-1 -2 -2 -3 -2 -3c-23 -37 -76 -106 -186 -106c-68 0 -148 37 -148 130c0 71 44 100 92 117c28 10 98 30 156 55c28 12 47 28 47 54v51c0 98 -31 123 -117 123c-49 0 -111 -24 -145 -53h-3c-3 0 -4 50 0 52
c24 12 86 30 148 30c90 0 158 -17 185 -72c40 45 95 71 162 71c126 0 206 -92 206 -251h-355v-26c9 -144 82 -224 170 -224c106 0 148 39 181 72c5 5 6 -6 3 -13zM546 521c-70 0 -137 -61 -146 -191v-12l263 9c0 127 -44 194 -117 194zM103 125c0 -63 45 -96 101 -96
c73 0 125 50 146 85c-21 41 -32 91 -32 148c0 9 0 19 1 28c-5 -8 -24 -19 -42 -27c-35 -15 -84 -29 -103 -38c-40 -18 -71 -40 -71 -100zM323 603c-10 -5 -19 2 -16 5l151 128h3c2 0 27 -41 36 -58l-1 -3z" />
    <glyph glyph-name="cacute" unicode="&#x107;" horiz-adv-x="487" 
d="M271 -13c-138 0 -243 108 -243 266c0 186 133 291 265 291c66 0 107 -8 149 -23c5 -2 6 -72 0 -72h-3c-51 36 -86 66 -147 66c-104 0 -186 -81 -186 -230c0 -154 76 -243 186 -243c73 -1 134 34 170 70c2 2 7 -7 5 -12c-26 -60 -103 -113 -196 -113zM210 603
c-10 -5 -19 2 -16 5l151 128h3c2 0 27 -41 36 -58l-1 -3z" />
    <glyph glyph-name="ccaron" unicode="&#x10d;" horiz-adv-x="487" 
d="M271 -13c-138 0 -243 108 -243 266c0 186 133 291 265 291c66 0 107 -8 149 -23c5 -2 6 -72 0 -72h-3c-51 36 -86 66 -147 66c-104 0 -186 -81 -186 -230c0 -154 76 -243 186 -243c73 -1 134 34 170 70c2 2 7 -7 5 -12c-26 -60 -103 -113 -196 -113zM280 671l114 74
c5 3 17 0 14 -3l-113 -139c-2 -2 -27 -2 -29 0l-114 139c-3 3 9 6 14 3z" />
    <glyph glyph-name="ccircumflex" unicode="&#x109;" horiz-adv-x="487" 
d="M271 -13c-138 0 -243 108 -243 266c0 186 133 291 265 291c66 0 107 -8 149 -23c5 -2 6 -72 0 -72h-3c-51 36 -86 66 -147 66c-104 0 -186 -81 -186 -230c0 -154 76 -243 186 -243c73 -1 134 34 170 70c2 2 7 -7 5 -12c-26 -60 -103 -113 -196 -113zM391 602l-114 74
l-114 -74c-5 -3 -17 0 -14 3l114 139c2 2 27 2 29 0l113 -139c3 -3 -9 -6 -14 -3z" />
    <glyph glyph-name="cdotaccent" unicode="&#x10b;" horiz-adv-x="487" 
d="M271 -13c-138 0 -243 108 -243 266c0 186 133 291 265 291c66 0 107 -8 149 -23c5 -2 6 -72 0 -72h-3c-51 36 -86 66 -147 66c-104 0 -186 -81 -186 -230c0 -154 76 -243 186 -243c73 -1 134 34 170 70c2 2 7 -7 5 -12c-26 -60 -103 -113 -196 -113zM279 637
c-27 0 -49 23 -49 50c0 26 22 49 49 49s49 -23 49 -49c0 -27 -22 -50 -49 -50z" />
    <glyph glyph-name="dcaron" unicode="&#x10f;" horiz-adv-x="578" 
d="M246 -11c-118 1 -218 95 -218 263c0 193 138 292 277 292c37 0 89 -7 108 -12h5v48c0 43 -1 90 -2 134l-49 12c-1 0 -1 13 1 14c57 16 68 20 121 36c1 0 9 -5 9 -7l-1 -145v-582c36 -8 38 -9 70 -14c2 0 2 -16 -1 -16c-61 -9 -79 -14 -140 -25c-1 0 -5 5 -5 7v71h-5
c-27 -26 -79 -77 -170 -76zM281 39c92 -1 115 28 135 45v396c-23 20 -66 38 -112 38c-105 0 -197 -73 -197 -235c0 -148 74 -243 174 -244zM552 567l6 182c0 3 79 4 77 0c-27 -75 -37 -100 -66 -172c-6 -15 -17 -13 -17 -10z" />
    <glyph glyph-name="ebreve" unicode="&#x115;" horiz-adv-x="502" 
d="M474 103c-25 -54 -103 -116 -200 -116c-149 0 -246 107 -246 275c0 166 88 283 236 283c133 0 211 -92 211 -251h-366c2 -161 76 -250 176 -250c113 0 153 39 186 72c5 5 6 -6 3 -13zM261 521c-79 0 -146 -64 -152 -203l274 9c0 127 -42 194 -122 194zM258 661
c33 0 77 16 97 68c1 3 8 -2 8 -8c-6 -64 -47 -114 -104 -114s-98 50 -104 114c0 6 7 11 8 8c20 -52 65 -68 95 -68z" />
    <glyph glyph-name="ecaron" unicode="&#x11b;" horiz-adv-x="502" 
d="M474 103c-25 -54 -103 -116 -200 -116c-149 0 -246 107 -246 275c0 166 88 283 236 283c133 0 211 -92 211 -251h-366c2 -161 76 -250 176 -250c113 0 153 39 186 72c5 5 6 -6 3 -13zM261 521c-79 0 -146 -64 -152 -203l274 9c0 127 -42 194 -122 194zM259 671l114 74
c5 3 17 0 14 -3l-113 -139c-2 -2 -27 -2 -29 0l-114 139c-3 3 9 6 14 3z" />
    <glyph glyph-name="edotaccent" unicode="&#x117;" horiz-adv-x="502" 
d="M474 103c-25 -54 -103 -116 -200 -116c-149 0 -246 107 -246 275c0 166 88 283 236 283c133 0 211 -92 211 -251h-366c2 -161 76 -250 176 -250c113 0 153 39 186 72c5 5 6 -6 3 -13zM261 521c-79 0 -146 -64 -152 -203l274 9c0 127 -42 194 -122 194zM259 637
c-27 0 -49 23 -49 50c0 26 22 49 49 49s49 -23 49 -49c0 -27 -22 -50 -49 -50z" />
    <glyph glyph-name="emacron" unicode="&#x113;" horiz-adv-x="502" 
d="M474 103c-25 -54 -103 -116 -200 -116c-149 0 -246 107 -246 275c0 166 88 283 236 283c133 0 211 -92 211 -251h-366c2 -161 76 -250 176 -250c113 0 153 39 186 72c5 5 6 -6 3 -13zM261 521c-79 0 -146 -64 -152 -203l274 9c0 127 -42 194 -122 194zM259 637
c-54 0 -111 -1 -111 -1c-3 0 0 43 3 43c28 0 60 -1 108 -1c61 0 111 1 111 1c3 0 0 -43 -3 -43c-41 1 -66 1 -108 1z" />
    <glyph glyph-name="eogonek" unicode="&#x119;" horiz-adv-x="502" 
d="M398 -159c-18 -24 -52 -43 -85 -43c-59 0 -87 29 -87 66c0 46 41 92 118 137c-24 -9 -46 -14 -70 -14c-149 0 -246 107 -246 275c0 166 88 283 236 283c133 0 211 -92 211 -251h-366c2 -162 77 -250 176 -250c113 0 153 39 186 72c5 5 6 -6 3 -13
c-19 -42 -65 -74 -100 -101c-55 -42 -79 -87 -79 -124c0 -23 17 -43 51 -43c22 0 40 8 51 15c2 1 4 -5 1 -9zM261 521c-79 0 -146 -64 -152 -203l274 9c0 127 -42 194 -122 194z" />
    <glyph glyph-name="gbreve" unicode="&#x11f;" horiz-adv-x="520" 
d="M527 -61c0 -106 -112 -172 -281 -172c-164 0 -249 56 -249 135c0 55 25 88 47 103c10 7 48 -10 46 -12c-18 -17 -38 -48 -38 -91c0 -76 68 -108 193 -108c136 0 237 46 237 117c0 62 -33 68 -94 73c-40 3 -104 5 -161 10c-97 8 -126 38 -126 91c0 36 18 64 58 88v2
c-71 30 -119 99 -119 180c0 109 98 192 200 192c58 0 103 -16 131 -40h8l120 43c9 3 11 -66 0 -65l-104 6c29 -33 45 -87 45 -136c0 -109 -88 -196 -200 -196c-20 0 -39 3 -58 8c-18 -12 -30 -27 -30 -48c0 -23 15 -40 78 -45s119 -8 157 -11c80 -6 140 -24 140 -124z
M240 186c71 0 122 52 122 169s-51 166 -122 166s-121 -49 -121 -166s50 -169 121 -169zM243 661c33 0 77 16 97 68c1 3 8 -2 8 -8c-6 -64 -47 -114 -104 -114s-98 50 -104 114c0 6 7 11 8 8c20 -52 65 -68 95 -68z" />
    <glyph glyph-name="gcircumflex" unicode="&#x11d;" horiz-adv-x="520" 
d="M527 -61c0 -106 -112 -172 -281 -172c-164 0 -249 56 -249 135c0 55 25 88 47 103c10 7 48 -10 46 -12c-18 -17 -38 -48 -38 -91c0 -76 68 -108 193 -108c136 0 237 46 237 117c0 62 -33 68 -94 73c-40 3 -104 5 -161 10c-97 8 -126 38 -126 91c0 36 18 64 58 88v2
c-71 30 -119 99 -119 180c0 109 98 192 200 192c58 0 103 -16 131 -40h8l120 43c9 3 11 -66 0 -65l-104 6c29 -33 45 -87 45 -136c0 -109 -88 -196 -200 -196c-20 0 -39 3 -58 8c-18 -12 -30 -27 -30 -48c0 -23 15 -40 78 -45s119 -8 157 -11c80 -6 140 -24 140 -124z
M240 186c71 0 122 52 122 169s-51 166 -122 166s-121 -49 -121 -166s50 -169 121 -169zM357 602l-114 74l-114 -74c-5 -3 -17 0 -14 3l114 139c2 2 27 2 29 0l113 -139c3 -3 -9 -6 -14 -3z" />
    <glyph glyph-name="uni0123" unicode="&#x123;" horiz-adv-x="521" 
d="M527 -61c0 -106 -112 -172 -281 -172c-164 0 -249 56 -249 135c0 55 25 88 47 103c10 7 48 -10 46 -12c-18 -17 -38 -48 -38 -91c0 -76 68 -108 193 -108c136 0 237 46 237 117c0 62 -33 68 -94 73c-40 3 -104 5 -161 10c-97 8 -126 38 -126 91c0 36 18 64 58 88v2
c-71 30 -119 99 -119 180c0 109 98 192 200 192c58 0 103 -16 131 -40h8l120 43c9 3 11 -66 0 -65l-104 6c29 -33 45 -87 45 -136c0 -109 -88 -196 -200 -196c-20 0 -39 3 -58 8c-18 -12 -30 -27 -30 -48c0 -23 15 -40 78 -45s119 -8 157 -11c80 -6 140 -24 140 -124z
M240 186c71 0 122 52 122 169s-51 166 -122 166s-121 -49 -121 -166s50 -169 121 -169zM321 768c-16 -67 -24 -106 -34 -157c-1 -5 -83 -4 -81 0c34 68 49 93 82 157c1 3 33 2 33 0z" />
    <glyph glyph-name="gdotaccent" unicode="&#x121;" horiz-adv-x="520" 
d="M527 -61c0 -106 -112 -172 -281 -172c-164 0 -249 56 -249 135c0 55 25 88 47 103c10 7 48 -10 46 -12c-18 -17 -38 -48 -38 -91c0 -76 68 -108 193 -108c136 0 237 46 237 117c0 62 -33 68 -94 73c-40 3 -104 5 -161 10c-97 8 -126 38 -126 91c0 36 18 64 58 88v2
c-71 30 -119 99 -119 180c0 109 98 192 200 192c58 0 103 -16 131 -40h8l120 43c9 3 11 -66 0 -65l-104 6c29 -33 45 -87 45 -136c0 -109 -88 -196 -200 -196c-20 0 -39 3 -58 8c-18 -12 -30 -27 -30 -48c0 -23 15 -40 78 -45s119 -8 157 -11c80 -6 140 -24 140 -124z
M240 186c71 0 122 52 122 169s-51 166 -122 166s-121 -49 -121 -166s50 -169 121 -169zM244 637c-27 0 -49 23 -49 50c0 26 22 49 49 49s49 -23 49 -49c0 -27 -22 -50 -49 -50z" />
    <glyph glyph-name="hbar" unicode="&#x127;" horiz-adv-x="586" 
d="M26 0c-2 0 0 17 2 17c21 3 36 5 52 8c1 32 1 57 1 99v460v26h-91c-3 0 0 31 3 31c27 -1 58 -2 87 -2c0 24 -1 50 -1 75c-20 7 -33 9 -53 14c-1 0 -1 14 1 14c60 16 72 21 124 36c1 0 9 -5 9 -7v-132h153c3 0 0 -31 -3 -31c-50 0 -94 1 -150 2v-146h3c52 49 139 80 207 80
c88 0 139 -40 139 -146v-374c16 -3 32 -5 53 -7c2 0 0 -17 -2 -17h-187c-2 0 0 17 2 17c21 3 36 5 52 8c1 32 1 57 1 99v244c0 85 -23 126 -105 126c-60 0 -126 -22 -161 -55v-415c16 -3 31 -5 53 -7c2 0 0 -17 -2 -17h-187z" />
    <glyph glyph-name="hcircumflex" unicode="&#x125;" horiz-adv-x="586" 
d="M26 0c-2 0 0 17 2 17c21 3 36 5 52 8c1 32 1 57 1 99v460c0 43 -1 86 -2 130c-20 7 -33 9 -53 14c-1 0 -1 14 1 14c60 16 72 21 124 36c1 0 9 -5 9 -7v-307h3c52 49 139 80 207 80c88 0 139 -40 139 -146v-374c16 -3 32 -5 53 -7c2 0 0 -17 -2 -17h-187c-2 0 0 17 2 17
c21 3 36 5 52 8c1 32 1 57 1 99v244c0 85 -23 126 -105 126c-60 0 -126 -22 -161 -55v-415c16 -3 31 -5 53 -7c2 0 0 -17 -2 -17h-187zM428 781l-121 59l-121 -59c-5 -2 -17 0 -14 3l121 119c2 2 27 2 29 0l120 -119c3 -3 -9 -5 -14 -3z" />
    <glyph glyph-name="ibreve" unicode="&#x12d;" horiz-adv-x="240" 
d="M26 0c-2 0 0 17 2 17c21 3 36 5 52 8c1 32 1 57 1 99v230c0 43 -1 86 -2 130c-20 7 -34 9 -53 14c-1 0 -1 14 1 14c60 16 72 21 125 36c1 0 9 -5 9 -7l-1 -67v-450c16 -3 33 -5 55 -7c2 0 0 -17 -2 -17h-187zM120 661c33 0 77 16 97 68c1 3 8 -2 8 -8
c-6 -64 -47 -114 -104 -114s-98 50 -104 114c0 6 7 11 8 8c20 -52 65 -68 95 -68z" />
    <glyph glyph-name="idotaccent" horiz-adv-x="240" 
d="M119 637c-27 0 -49 23 -49 50c0 26 22 49 49 49s49 -23 49 -49c0 -27 -22 -50 -49 -50zM26 0c-2 0 0 17 2 17c21 3 36 5 52 8c1 32 1 57 1 99v230c0 43 -1 86 -2 130c-20 7 -34 9 -53 14c-1 0 -1 14 1 14c60 16 72 21 125 36c1 0 9 -5 9 -7l-1 -67v-450
c16 -3 33 -5 55 -7c2 0 0 -17 -2 -17h-187z" />
    <glyph glyph-name="imacron" unicode="&#x12b;" horiz-adv-x="240" 
d="M26 0c-2 0 0 17 2 17c21 3 36 5 52 8c1 32 1 57 1 99v230c0 43 -1 86 -2 130c-20 7 -34 9 -53 14c-1 0 -1 14 1 14c60 16 72 21 125 36c1 0 9 -5 9 -7l-1 -67v-450c16 -3 33 -5 55 -7c2 0 0 -17 -2 -17h-187zM121 637c-54 0 -111 -1 -111 -1c-3 0 0 43 3 43
c28 0 60 -1 108 -1c61 0 111 1 111 1c3 0 0 -43 -3 -43c-41 1 -66 1 -108 1z" />
    <glyph glyph-name="iogonek" unicode="&#x12f;" horiz-adv-x="240" 
d="M26 0c-2 0 0 17 2 17c21 3 36 5 52 8c1 32 1 57 1 99v230c0 43 -1 86 -2 130c-20 7 -34 9 -53 14c-1 0 -1 14 1 14c60 16 72 21 125 36c1 0 9 -5 9 -7l-1 -67v-450c16 -3 33 -5 55 -7c2 0 0 -17 -2 -17h-52c-37 -42 -56 -85 -56 -122c0 -23 17 -43 51 -43
c22 0 40 8 51 15c2 1 4 -5 1 -9c-18 -24 -52 -43 -85 -43c-59 0 -87 29 -87 66c0 46 41 92 103 136h-113zM119 637c-27 0 -49 23 -49 50c0 26 22 49 49 49s49 -23 49 -49c0 -27 -22 -50 -49 -50z" />
    <glyph glyph-name="itilde" unicode="&#x129;" horiz-adv-x="240" 
d="M26 0c-2 0 0 17 2 17c21 3 36 5 52 8c1 32 1 57 1 99v230c0 43 -1 86 -2 130c-20 7 -34 9 -53 14c-1 0 -1 14 1 14c60 16 72 21 125 36c1 0 9 -5 9 -7l-1 -67v-450c16 -3 33 -5 55 -7c2 0 0 -17 -2 -17h-187zM172 631c-33 0 -85 26 -112 26c-20 0 -40 -19 -57 -44
c-2 -3 -14 -3 -13 0c25 64 58 100 83 100c30 0 85 -27 112 -27c18 0 38 16 58 45c1 2 13 3 12 0c-24 -67 -56 -100 -83 -100z" />
    <glyph glyph-name="jcircumflex" unicode="&#x135;" horiz-adv-x="226" 
d="M-1 -178c-20 0 -31 1 -71 12c-7 2 3 56 4 56h1c39 -22 69 -35 103 -35c25 0 43 5 43 69v430c0 43 -1 86 -2 130c-20 7 -34 9 -53 14c-1 0 -1 14 1 14c60 16 72 21 125 36c1 0 9 -5 9 -7l-1 -67v-418c0 -169 -82 -234 -159 -234zM224 602l-114 74l-114 -74
c-5 -3 -17 0 -14 3l114 139c2 2 27 2 29 0l113 -139c3 -3 -9 -6 -14 -3z" />
    <glyph glyph-name="uni0137" unicode="&#x137;" horiz-adv-x="502" 
d="M26 0c-2 0 0 17 2 17c21 3 36 5 52 8c1 32 1 57 1 99v455c0 43 -1 86 -2 130c-20 7 -34 10 -53 14c-1 0 -1 14 1 15c60 16 72 20 125 36c1 0 9 -5 9 -7l-1 -67v-676c16 -3 33 -5 55 -7c2 0 0 -17 -2 -17h-187zM502 -1c-41 0 -79 1 -112 3c-23 16 -62 57 -89 95
c-40 54 -91 119 -117 167v9c109 134 141 178 199 260c21 3 52 2 79 0v-6c-84 -77 -167 -161 -217 -214v-3c51 -91 178 -250 209 -272c25 -17 29 -19 48 -23c5 -1 2 -16 0 -16zM201 -211c16 67 24 106 34 157c1 5 83 4 81 0c-34 -68 -49 -93 -82 -157c-1 -3 -33 -2 -33 0z
" />
    <glyph glyph-name="lacute" unicode="&#x13a;" horiz-adv-x="240" 
d="M26 0c-2 0 0 17 2 17c21 3 36 5 52 8c1 32 1 57 1 99v455c0 43 -1 86 -2 130c-20 7 -34 10 -53 14c-1 0 -1 14 1 15c60 16 72 20 125 36c1 0 9 -5 9 -7l-1 -67v-676c16 -3 33 -5 55 -7c2 0 0 -17 -2 -17h-187zM37 791c-11 -3 -18 7 -14 8l181 109h3c2 -1 19 -43 25 -61
l-2 -2z" />
    <glyph glyph-name="lcaron" unicode="&#x13e;" horiz-adv-x="240" 
d="M26 0c-2 0 0 17 2 17c21 3 36 5 52 8c1 32 1 57 1 99v455c0 43 -1 86 -2 130c-20 7 -34 10 -53 14c-1 0 -1 14 1 15c60 16 72 20 125 36c1 0 9 -5 9 -7l-1 -67v-676c16 -3 33 -5 55 -7c2 0 0 -17 -2 -17h-187zM215 567l6 182c0 3 79 4 77 0c-27 -75 -37 -100 -66 -172
c-6 -15 -17 -13 -17 -10z" />
    <glyph glyph-name="uni013C" unicode="&#x13c;" horiz-adv-x="240" 
d="M26 0c-2 0 0 17 2 17c21 3 36 5 52 8c1 32 1 57 1 99v455c0 43 -1 86 -2 130c-20 7 -34 10 -53 14c-1 0 -1 14 1 15c60 16 72 20 125 36c1 0 9 -5 9 -7l-1 -67v-676c16 -3 33 -5 55 -7c2 0 0 -17 -2 -17h-187zM54 -211c16 67 24 106 34 157c1 5 83 4 81 0
c-34 -68 -49 -93 -82 -157c-1 -3 -33 -2 -33 0z" />
    <glyph glyph-name="ldot" unicode="&#x140;" horiz-adv-x="286" 
d="M26 0c-2 0 0 17 2 17c21 3 36 5 52 8c1 32 1 57 1 99v455c0 43 -1 86 -2 130c-20 7 -34 10 -53 14c-1 0 -1 14 1 15c60 16 72 20 125 36c1 0 9 -5 9 -7l-1 -67v-676c16 -3 33 -5 55 -7c2 0 0 -17 -2 -17h-187zM263 311c-27 0 -48 22 -48 49c0 28 21 49 48 49
c28 0 49 -21 49 -49c0 -27 -21 -49 -49 -49z" />
    <glyph glyph-name="nacute" unicode="&#x144;" horiz-adv-x="584" 
d="M24 0c-2 0 0 17 2 17c21 3 36 5 52 8c1 32 1 57 1 99v230c0 43 -1 86 -2 130c-20 7 -34 9 -53 14c-1 0 -1 14 1 14c60 16 70 21 123 36c1 0 9 -5 9 -7l-1 -77h3c52 49 141 80 209 80c88 0 139 -40 139 -146v-374c16 -3 32 -5 53 -7c2 0 0 -17 -2 -17h-187c-2 0 0 17 2 17
c21 3 36 5 52 8c1 32 1 57 1 99v244c0 85 -23 126 -105 126c-60 0 -126 -22 -161 -55v-415c16 -3 31 -5 53 -7c2 0 0 -17 -2 -17h-187zM223 603c-10 -5 -19 2 -16 5l151 128h3c2 0 27 -41 36 -58l-1 -3z" />
    <glyph glyph-name="napostrophe" unicode="&#x149;" horiz-adv-x="586" 
d="M24 0c-2 0 0 17 2 17c21 3 36 5 52 8c1 32 1 57 1 99v230c0 43 -1 86 -2 130c-20 7 -34 9 -53 14c-1 0 -1 14 1 14c60 16 70 21 123 36c1 0 9 -5 9 -7l-1 -77h3c52 49 141 80 209 80c88 0 139 -40 139 -146v-374c16 -3 32 -5 53 -7c2 0 0 -17 -2 -17h-187c-2 0 0 17 2 17
c21 3 36 5 52 8c1 32 1 57 1 99v244c0 85 -23 126 -105 126c-60 0 -126 -22 -161 -55v-415c16 -3 31 -5 53 -7c2 0 0 -17 -2 -17h-187zM-27 566c17 78 27 124 38 183c1 3 84 4 82 0c-33 -78 -48 -109 -81 -183c-1 -3 -39 -2 -39 0z" />
    <glyph glyph-name="ncaron" unicode="&#x148;" horiz-adv-x="584" 
d="M24 0c-2 0 0 17 2 17c21 3 36 5 52 8c1 32 1 57 1 99v230c0 43 -1 86 -2 130c-20 7 -34 9 -53 14c-1 0 -1 14 1 14c60 16 70 21 123 36c1 0 9 -5 9 -7l-1 -77h3c52 49 141 80 209 80c88 0 139 -40 139 -146v-374c16 -3 32 -5 53 -7c2 0 0 -17 -2 -17h-187c-2 0 0 17 2 17
c21 3 36 5 52 8c1 32 1 57 1 99v244c0 85 -23 126 -105 126c-60 0 -126 -22 -161 -55v-415c16 -3 31 -5 53 -7c2 0 0 -17 -2 -17h-187zM291 671l114 74c5 3 17 0 14 -3l-113 -139c-2 -2 -27 -2 -29 0l-114 139c-3 3 9 6 14 3z" />
    <glyph glyph-name="uni0146" unicode="&#x146;" horiz-adv-x="586" 
d="M24 0c-2 0 0 17 2 17c21 3 36 5 52 8c1 32 1 57 1 99v230c0 43 -1 86 -2 130c-20 7 -34 9 -53 14c-1 0 -1 14 1 14c60 16 70 21 123 36c1 0 9 -5 9 -7l-1 -77h3c52 49 141 80 209 80c88 0 139 -40 139 -146v-374c16 -3 32 -5 53 -7c2 0 0 -17 -2 -17h-187c-2 0 0 17 2 17
c21 3 36 5 52 8c1 32 1 57 1 99v244c0 85 -23 126 -105 126c-60 0 -126 -22 -161 -55v-415c16 -3 31 -5 53 -7c2 0 0 -17 -2 -17h-187zM224 -211c16 67 24 106 34 157c1 5 83 4 81 0c-34 -68 -49 -93 -82 -157c-1 -3 -33 -2 -33 0z" />
    <glyph glyph-name="obreve" unicode="&#x14f;" horiz-adv-x="567" 
d="M286 -13c-138 0 -258 95 -258 275s115 283 253 283s258 -95 258 -275s-115 -283 -253 -283zM286 12c95 0 166 68 166 251c0 193 -70 256 -171 256c-95 0 -166 -67 -166 -250c0 -193 70 -257 171 -257zM282 661c33 0 77 16 97 68c1 3 8 -2 8 -8c-6 -64 -47 -114 -104 -114
s-98 50 -104 114c0 6 7 11 8 8c20 -52 65 -68 95 -68z" />
    <glyph glyph-name="ohungarumlaut" unicode="&#x151;" horiz-adv-x="567" 
d="M286 -13c-138 0 -258 95 -258 275s115 283 253 283s258 -95 258 -275s-115 -283 -253 -283zM286 12c95 0 166 68 166 251c0 193 -70 256 -171 256c-95 0 -166 -67 -166 -250c0 -193 70 -257 171 -257zM323 598c-10 -7 -22 -4 -19 0l91 149l2 1c8 -6 35 -30 50 -43l-1 -3z
M187 598c-10 -7 -22 -4 -19 0l91 149l2 1c8 -6 35 -30 50 -43l-1 -3z" />
    <glyph glyph-name="omacron" unicode="&#x14d;" horiz-adv-x="567" 
d="M286 -13c-138 0 -258 95 -258 275s115 283 253 283s258 -95 258 -275s-115 -283 -253 -283zM286 12c95 0 166 68 166 251c0 193 -70 256 -171 256c-95 0 -166 -67 -166 -250c0 -193 70 -257 171 -257zM283 637c-54 0 -111 -1 -111 -1c-3 0 0 43 3 43c28 0 60 -1 108 -1
c61 0 111 1 111 1c3 0 0 -43 -3 -43c-41 1 -66 1 -108 1z" />
    <glyph glyph-name="oslashacute" unicode="&#x1ff;" horiz-adv-x="567" 
d="M103 -56c-2 -3 -29 10 -27 15l51 80c-60 45 -99 120 -99 223c0 180 115 283 253 283c51 0 99 -13 140 -38c26 41 45 71 45 71c2 4 30 -12 29 -16c-13 -19 -29 -45 -48 -74c56 -46 92 -119 92 -218c0 -180 -115 -283 -253 -283c-48 0 -95 12 -134 35
c-29 -46 -49 -78 -49 -78zM115 269c0 -86 14 -147 39 -187l122 196l122 193c-29 34 -70 48 -117 48c-95 0 -166 -67 -166 -250zM305 264l-132 -209c29 -30 68 -43 113 -43c95 0 166 68 166 251c0 81 -12 139 -34 179c-34 -55 -74 -117 -113 -178zM207 603
c-10 -5 -19 2 -16 5l151 128h3c2 0 27 -41 36 -58l-1 -3z" />
    <glyph glyph-name="racute" unicode="&#x155;" horiz-adv-x="371" 
d="M26 -1c-2 0 0 17 2 17c21 3 36 5 52 8c1 32 1 58 1 100v229c0 43 -1 86 -2 130c-20 7 -34 10 -53 14c-1 0 -1 14 1 15c60 16 70 20 123 36c1 0 9 -5 9 -7l-1 -93h5c27 45 80 97 140 97c24 0 39 -3 50 -13c3 -3 0 -67 -1 -67h-1c-17 7 -37 14 -67 14
c-44 0 -92 -13 -122 -60v-396c16 -3 41 -4 63 -7c2 0 0 -17 -2 -17h-197zM143 603c-10 -5 -19 2 -16 5l151 128h3c2 0 27 -41 36 -58l-1 -3z" />
    <glyph glyph-name="rcaron" unicode="&#x159;" horiz-adv-x="371" 
d="M26 -1c-2 0 0 17 2 17c21 3 36 5 52 8c1 32 1 58 1 100v229c0 43 -1 86 -2 130c-20 7 -34 10 -53 14c-1 0 -1 14 1 15c60 16 70 20 123 36c1 0 9 -5 9 -7l-1 -93h5c27 45 80 97 140 97c24 0 39 -3 50 -13c3 -3 0 -67 -1 -67h-1c-17 7 -37 14 -67 14
c-44 0 -92 -13 -122 -60v-396c16 -3 41 -4 63 -7c2 0 0 -17 -2 -17h-197zM215 671l114 74c5 3 17 0 14 -3l-113 -139c-2 -2 -27 -2 -29 0l-114 139c-3 3 9 6 14 3z" />
    <glyph glyph-name="uni0157" unicode="&#x157;" horiz-adv-x="371" 
d="M26 -1c-2 0 0 17 2 17c21 3 36 5 52 8c1 32 1 58 1 100v229c0 43 -1 86 -2 130c-20 7 -34 10 -53 14c-1 0 -1 14 1 15c60 16 70 20 123 36c1 0 9 -5 9 -7l-1 -93h5c27 45 80 97 140 97c24 0 39 -3 50 -13c3 -3 0 -67 -1 -67h-1c-17 7 -37 14 -67 14
c-44 0 -92 -13 -122 -60v-396c16 -3 41 -4 63 -7c2 0 0 -17 -2 -17h-197zM52 -211c16 67 24 106 34 157c1 5 83 4 81 0c-34 -68 -49 -93 -82 -157c-1 -3 -33 -2 -33 0z" />
    <glyph glyph-name="sacute" unicode="&#x15b;" horiz-adv-x="399" 
d="M190 -13c-71 0 -124 13 -163 34c-5 3 0 76 2 76h4c50 -56 90 -80 157 -80c70 0 112 21 112 94c0 66 -55 89 -144 131c-60 29 -122 68 -122 156c0 100 85 147 167 147c63 0 111 -11 141 -30c2 -2 2 -70 0 -70h-2c-32 47 -76 69 -139 69c-59 0 -101 -31 -101 -85
c0 -67 38 -82 109 -118c75 -38 162 -75 162 -163c0 -120 -100 -161 -183 -161zM141 603c-10 -5 -19 2 -16 5l151 128h3c2 0 27 -41 36 -58l-1 -3z" />
    <glyph glyph-name="uni015F" unicode="&#x15f;" horiz-adv-x="399" 
d="M89 -205c-4 0 -8 8 -5 9c73 19 110 38 110 63c0 22 -32 37 -60 41l-3 3l32 77c-58 3 -102 14 -136 33c-5 3 0 76 2 76h4c50 -56 90 -80 157 -80c70 0 112 21 112 94c0 66 -55 89 -144 131c-60 29 -122 68 -122 156c0 100 85 147 167 147c63 0 111 -11 141 -30
c2 -2 2 -70 0 -70h-2c-32 47 -76 69 -139 69c-59 0 -101 -31 -101 -85c0 -67 38 -82 109 -118c75 -38 162 -75 162 -163c0 -120 -100 -161 -183 -161h-4l-17 -41c50 -10 82 -38 82 -70c0 -44 -55 -78 -162 -81z" />
    <glyph glyph-name="scircumflex" unicode="&#x15d;" horiz-adv-x="399" 
d="M190 -13c-71 0 -124 13 -163 34c-5 3 0 76 2 76h4c50 -56 90 -80 157 -80c70 0 112 21 112 94c0 66 -55 89 -144 131c-60 29 -122 68 -122 156c0 100 85 147 167 147c63 0 111 -11 141 -30c2 -2 2 -70 0 -70h-2c-32 47 -76 69 -139 69c-59 0 -101 -31 -101 -85
c0 -67 38 -82 109 -118c75 -38 162 -75 162 -163c0 -120 -100 -161 -183 -161zM313 602l-114 74l-114 -74c-5 -3 -17 0 -14 3l114 139c2 2 27 2 29 0l113 -139c3 -3 -9 -6 -14 -3z" />
    <glyph glyph-name="uni0219" unicode="&#x219;" horiz-adv-x="399" 
d="M190 -13c-71 0 -124 13 -163 34c-5 3 0 76 2 76h4c50 -56 90 -80 157 -80c70 0 112 21 112 94c0 66 -55 89 -144 131c-60 29 -122 68 -122 156c0 100 85 147 167 147c63 0 111 -11 141 -30c2 -2 2 -70 0 -70h-2c-32 47 -76 69 -139 69c-59 0 -101 -31 -101 -85
c0 -67 38 -82 109 -118c75 -38 162 -75 162 -163c0 -120 -100 -161 -183 -161zM128 -211c16 67 24 106 34 157c1 5 83 4 81 0c-34 -68 -49 -93 -82 -157c-1 -3 -33 -2 -33 0z" />
    <glyph glyph-name="tbar" unicode="&#x167;" horiz-adv-x="346" 
d="M208 -13c-94 0 -123 50 -123 134v183h-81c-3 0 0 31 3 31c25 -1 51 -2 78 -2v162h-81c-2 0 -4 10 0 13c51 37 141 113 154 127c2 3 12 -1 12 -5l-4 -97h161c5 0 -1 -38 -5 -38h-157v-162h170c3 0 1 -31 -2 -31c-52 0 -104 1 -168 2v-181c0 -53 17 -91 77 -91
c37 0 74 20 92 31c2 1 5 -11 3 -15c-18 -32 -69 -61 -129 -61z" />
    <glyph glyph-name="tcaron" unicode="&#x165;" horiz-adv-x="346" 
d="M208 -13c-94 0 -123 50 -123 134v374h-81c-2 0 -4 10 0 13c51 37 141 113 154 127c2 3 12 -1 12 -5l-4 -97h161c5 0 -1 -38 -5 -38h-157v-372c0 -53 17 -91 77 -91c37 0 74 20 92 31c2 1 5 -11 3 -15c-18 -32 -69 -61 -129 -61zM226 581l6 168c0 3 79 4 77 0
c-23 -64 -36 -91 -66 -158c-7 -15 -17 -13 -17 -10z" />
    <glyph glyph-name="tcommaaccent" unicode="&#x163;" horiz-adv-x="346" 
d="M208 -13c-94 0 -123 50 -123 134v374h-81c-2 0 -4 10 0 13c51 37 141 113 154 127c2 3 12 -1 12 -5l-4 -97h161c5 0 -1 -38 -5 -38h-157v-372c0 -53 17 -91 77 -91c37 0 74 20 92 31c2 1 5 -11 3 -15c-18 -32 -69 -61 -129 -61zM146 -211c16 67 24 106 34 157
c1 5 83 4 81 0c-34 -68 -49 -93 -82 -157c-1 -3 -33 -2 -33 0z" />
    <glyph glyph-name="uni021B" unicode="&#x21b;" horiz-adv-x="346" 
d="M208 -13c-94 0 -123 50 -123 134v374h-81c-2 0 -4 10 0 13c51 37 141 113 154 127c2 3 12 -1 12 -5l-4 -97h161c5 0 -1 -38 -5 -38h-157v-372c0 -53 17 -91 77 -91c37 0 74 20 92 31c2 1 5 -11 3 -15c-18 -32 -69 -61 -129 -61zM146 -211c16 67 24 106 34 157
c1 5 83 4 81 0c-34 -68 -49 -93 -82 -157c-1 -3 -33 -2 -33 0z" />
    <glyph glyph-name="ubreve" unicode="&#x16d;" horiz-adv-x="575" 
d="M240 -13c-94 0 -163 54 -163 156v259l-1 107c-16 3 -32 5 -53 7c-2 0 0 17 2 17h134v-354c0 -99 33 -139 120 -139c65 0 108 30 134 58v296l-1 115c-16 3 -32 5 -53 7c-2 0 0 17 2 17h133v-370l1 -123c36 -6 37 -7 69 -12c2 0 2 -16 -1 -16c-61 -9 -76 -10 -139 -23
c-1 0 -5 5 -5 7v76h-5c-38 -52 -121 -85 -174 -85zM276 661c33 0 77 16 97 68c1 3 8 -2 8 -8c-6 -64 -47 -114 -104 -114s-98 50 -104 114c0 6 7 11 8 8c20 -52 65 -68 95 -68z" />
    <glyph glyph-name="uhungarumlaut" unicode="&#x171;" horiz-adv-x="575" 
d="M240 -13c-94 0 -163 54 -163 156v259l-1 107c-16 3 -32 5 -53 7c-2 0 0 17 2 17h134v-354c0 -99 33 -139 120 -139c65 0 108 30 134 58v296l-1 115c-16 3 -32 5 -53 7c-2 0 0 17 2 17h133v-370l1 -123c36 -6 37 -7 69 -12c2 0 2 -16 -1 -16c-61 -9 -76 -10 -139 -23
c-1 0 -5 5 -5 7v76h-5c-38 -52 -121 -85 -174 -85zM317 598c-10 -7 -22 -4 -19 0l91 149l2 1c8 -6 35 -30 50 -43l-1 -3zM181 598c-10 -7 -22 -4 -19 0l91 149l2 1c8 -6 35 -30 50 -43l-1 -3z" />
    <glyph glyph-name="umacron" unicode="&#x16b;" horiz-adv-x="575" 
d="M240 -13c-94 0 -163 54 -163 156v259l-1 107c-16 3 -32 5 -53 7c-2 0 0 17 2 17h134v-354c0 -99 33 -139 120 -139c65 0 108 30 134 58v296l-1 115c-16 3 -32 5 -53 7c-2 0 0 17 2 17h133v-370l1 -123c36 -6 37 -7 69 -12c2 0 2 -16 -1 -16c-61 -9 -76 -10 -139 -23
c-1 0 -5 5 -5 7v76h-5c-38 -52 -121 -85 -174 -85zM277 637c-54 0 -111 -1 -111 -1c-3 0 0 43 3 43c28 0 60 -1 108 -1c61 0 111 1 111 1c3 0 0 -43 -3 -43c-41 1 -66 1 -108 1z" />
    <glyph glyph-name="uogonek" unicode="&#x173;" horiz-adv-x="575" 
d="M396 -202c-59 0 -87 29 -87 66c0 46 44 92 110 132v76h-5c-38 -52 -121 -85 -174 -85c-94 0 -163 54 -163 156v259l-1 107c-16 3 -32 5 -53 7c-2 0 0 17 2 17h134v-354c0 -99 33 -139 120 -139c65 0 108 30 134 58v296l-1 115c-16 3 -32 5 -53 7c-2 0 0 17 2 17h133v-370
l1 -123c36 -6 37 -7 69 -12c2 0 2 -16 -1 -16c-56 -8 -73 -10 -97 -17c-56 -17 -88 -56 -88 -111c0 -29 17 -49 51 -49c22 0 40 8 51 15c2 1 4 -5 1 -9c-18 -24 -52 -43 -85 -43z" />
    <glyph glyph-name="uring" unicode="&#x16f;" horiz-adv-x="575" 
d="M240 -13c-94 0 -163 54 -163 156v259l-1 107c-16 3 -32 5 -53 7c-2 0 0 17 2 17h134v-354c0 -99 33 -139 120 -139c65 0 108 30 134 58v296l-1 115c-16 3 -32 5 -53 7c-2 0 0 17 2 17h133v-370l1 -123c36 -6 37 -7 69 -12c2 0 2 -16 -1 -16c-61 -9 -76 -10 -139 -23
c-1 0 -5 5 -5 7v76h-5c-38 -52 -121 -85 -174 -85zM192 680c0 45 36 82 85 82s86 -37 86 -82s-37 -81 -86 -81s-85 36 -85 81zM230 680c0 -33 19 -58 47 -58s48 25 48 58s-20 59 -48 59s-47 -26 -47 -59z" />
    <glyph glyph-name="utilde" unicode="&#x169;" horiz-adv-x="575" 
d="M240 -13c-94 0 -163 54 -163 156v259l-1 107c-16 3 -32 5 -53 7c-2 0 0 17 2 17h134v-354c0 -99 33 -139 120 -139c65 0 108 30 134 58v296l-1 115c-16 3 -32 5 -53 7c-2 0 0 17 2 17h133v-370l1 -123c36 -6 37 -7 69 -12c2 0 2 -16 -1 -16c-61 -9 -76 -10 -139 -23
c-1 0 -5 5 -5 7v76h-5c-38 -52 -121 -85 -174 -85zM328 631c-33 0 -85 26 -112 26c-20 0 -40 -19 -57 -44c-2 -3 -14 -3 -13 0c25 64 58 100 83 100c30 0 85 -27 112 -27c18 0 38 16 58 45c1 2 13 3 12 0c-24 -67 -56 -100 -83 -100z" />
    <glyph glyph-name="wacute" unicode="&#x1e83;" horiz-adv-x="763" 
d="M357 329l-120 -336h-12l-180 515l-40 9c-2 0 -2 16 1 16h182c3 0 1 -16 -2 -16c-17 -2 -31 -5 -51 -8c12 -38 30 -97 44 -139l78 -239h2l76 221l29 83l-26 73l-46 9c-2 0 -2 16 1 16h188c3 0 1 -16 -2 -16c-17 -2 -27 -4 -52 -8l45 -139l78 -239h2l77 221
c36 106 35 104 51 157l-56 8c-2 0 -2 16 1 16h133c3 0 1 -15 -2 -16l-41 -9c-15 -40 -28 -80 -64 -179l-120 -336h-12l-140 398zM307 603c-10 -5 -19 2 -16 5l151 128h3c2 0 27 -41 36 -58l-1 -3z" />
    <glyph glyph-name="wcircumflex" unicode="&#x175;" horiz-adv-x="763" 
d="M357 329l-120 -336h-12l-180 515l-40 9c-2 0 -2 16 1 16h182c3 0 1 -16 -2 -16c-17 -2 -31 -5 -51 -8c12 -38 30 -97 44 -139l78 -239h2l76 221l29 83l-26 73l-46 9c-2 0 -2 16 1 16h188c3 0 1 -16 -2 -16c-17 -2 -27 -4 -52 -8l45 -139l78 -239h2l77 221
c36 106 35 104 51 157l-56 8c-2 0 -2 16 1 16h133c3 0 1 -15 -2 -16l-41 -9c-15 -40 -28 -80 -64 -179l-120 -336h-12l-140 398zM500 602l-114 74l-114 -74c-5 -3 -17 0 -14 3l114 139c2 2 27 2 29 0l113 -139c3 -3 -9 -6 -14 -3z" />
    <glyph glyph-name="wdieresis" unicode="&#x1e85;" horiz-adv-x="763" 
d="M357 329l-120 -336h-12l-180 515l-40 9c-2 0 -2 16 1 16h182c3 0 1 -16 -2 -16c-17 -2 -31 -5 -51 -8c12 -38 30 -97 44 -139l78 -239h2l76 221l29 83l-26 73l-46 9c-2 0 -2 16 1 16h188c3 0 1 -16 -2 -16c-17 -2 -27 -4 -52 -8l45 -139l78 -239h2l77 221
c36 106 35 104 51 157l-56 8c-2 0 -2 16 1 16h133c3 0 1 -15 -2 -16l-41 -9c-15 -40 -28 -80 -64 -179l-120 -336h-12l-140 398zM303 637c-24 0 -45 21 -45 45c0 25 21 46 45 46c25 0 45 -21 45 -46c0 -24 -20 -45 -45 -45zM470 637c-24 0 -44 21 -44 45c0 25 20 46 44 46
c25 0 46 -21 46 -46c0 -24 -21 -45 -46 -45z" />
    <glyph glyph-name="wgrave" unicode="&#x1e81;" horiz-adv-x="763" 
d="M357 329l-120 -336h-12l-180 515l-40 9c-2 0 -2 16 1 16h182c3 0 1 -16 -2 -16c-17 -2 -31 -5 -51 -8c12 -38 30 -97 44 -139l78 -239h2l76 221l29 83l-26 73l-46 9c-2 0 -2 16 1 16h188c3 0 1 -16 -2 -16c-17 -2 -27 -4 -52 -8l45 -139l78 -239h2l77 221
c36 106 35 104 51 157l-56 8c-2 0 -2 16 1 16h133c3 0 1 -15 -2 -16l-41 -9c-15 -40 -28 -80 -64 -179l-120 -336h-12l-140 398zM461 603l-173 72l-1 3c9 17 34 58 36 58h3l151 -128c3 -3 -6 -10 -16 -5z" />
    <glyph glyph-name="ycircumflex" unicode="&#x177;" horiz-adv-x="490" 
d="M96 -178c-27 0 -47 5 -57 10c-7 3 -5 50 0 50h1c19 -13 40 -24 66 -24c47 0 64 20 81 42c21 27 33 56 43 86l-187 524l-38 7c-2 0 -2 16 1 16h185c3 0 1 -16 -2 -16l-54 -8c12 -38 26 -79 41 -121l97 -295h2l78 236c32 100 42 134 54 180c-19 4 -34 6 -49 8
c-2 0 -2 16 1 16h125c3 0 1 -15 -2 -16c-15 -3 -22 -5 -37 -9c-15 -40 -30 -85 -54 -157l-108 -316c-29 -79 -49 -123 -72 -153c-29 -37 -66 -60 -115 -60zM381 602l-114 74l-114 -74c-5 -3 -17 0 -14 3l114 139c2 2 27 2 29 0l113 -139c3 -3 -9 -6 -14 -3z" />
    <glyph glyph-name="ygrave" unicode="&#x1ef3;" horiz-adv-x="490" 
d="M96 -178c-27 0 -47 5 -57 10c-7 3 -5 50 0 50h1c19 -13 40 -24 66 -24c47 0 64 20 81 42c21 27 33 56 43 86l-187 524l-38 7c-2 0 -2 16 1 16h185c3 0 1 -16 -2 -16l-54 -8c12 -38 26 -79 41 -121l97 -295h2l78 236c32 100 42 134 54 180c-19 4 -34 6 -49 8
c-2 0 -2 16 1 16h125c3 0 1 -15 -2 -16c-15 -3 -22 -5 -37 -9c-15 -40 -30 -85 -54 -157l-108 -316c-29 -79 -49 -123 -72 -153c-29 -37 -66 -60 -115 -60zM337 603l-173 72l-1 3c9 17 34 58 36 58h3l151 -128c3 -3 -6 -10 -16 -5z" />
    <glyph glyph-name="zacute" unicode="&#x17a;" horiz-adv-x="448" 
d="M428 -1c-58 1 -84 1 -129 1h-283c-2 0 -2 18 0 22l330 490c-89 0 -186 -14 -297 -29h-3c-4 0 -1 53 2 53c32 -1 96 -3 141 -3h242c3 0 3 -18 0 -22l-328 -487c181 3 273 15 325 30h2c4 0 1 -55 -2 -55zM172 603c-10 -5 -19 2 -16 5l151 128h3c2 0 27 -41 36 -58l-1 -3z
" />
    <glyph glyph-name="zdotaccent" unicode="&#x17c;" horiz-adv-x="448" 
d="M428 -1c-58 1 -84 1 -129 1h-283c-2 0 -2 18 0 22l330 490c-89 0 -186 -14 -297 -29h-3c-4 0 -1 53 2 53c32 -1 96 -3 141 -3h242c3 0 3 -18 0 -22l-328 -487c181 3 273 15 325 30h2c4 0 1 -55 -2 -55zM239 637c-27 0 -49 23 -49 50c0 26 22 49 49 49s49 -23 49 -49
c0 -27 -22 -50 -49 -50z" />
    <glyph glyph-name="space_uni0326" 
d="M163 -211c16 67 24 106 34 157c1 5 83 4 81 0c-34 -68 -49 -93 -82 -157c-1 -3 -33 -2 -33 0z" />
    <glyph glyph-name="oneeighth" unicode="&#x215b;" horiz-adv-x="614" 
d="M589 94c0 -60 -52 -99 -128 -99c-83 0 -128 32 -128 85c0 49 41 76 83 92c-41 20 -71 50 -71 99c0 56 51 93 119 93c81 0 114 -38 114 -83c0 -39 -35 -66 -73 -84c49 -24 84 -49 84 -103zM278 343c-103 -152 -262 -383 -262 -383c-3 -4 -43 -4 -39 0
c73 109 146 212 276 402c99 146 273 402 273 402c3 4 43 5 39 0c-58 -85 -180 -263 -287 -421zM181 410c1 0 0 -17 -1 -17h-150c-1 0 0 17 1 17l43 4v244c0 16 0 33 -1 59c-15 -2 -36 -3 -46 -3c-1 0 -1 18 0 18c39 5 82 12 106 21c1 0 5 -2 5 -3l-1 -32v-304zM386 82
c0 -26 20 -68 75 -68c58 0 76 31 76 63c0 45 -54 66 -100 85c-25 -13 -51 -33 -51 -80zM394 292c0 -44 35 -59 91 -85c22 17 42 39 42 73c0 32 -24 65 -65 65c-33 0 -68 -17 -68 -53z" />
    <glyph glyph-name="onethird" unicode="&#x2153;" horiz-adv-x="610" 
d="M277 343c-103 -152 -262 -383 -262 -383c-3 -4 -43 -4 -39 0c73 109 146 212 276 402c99 146 273 402 273 402c3 4 43 5 39 0c-58 -85 -180 -263 -287 -421zM441 -5c-43 0 -66 5 -95 16c-3 1 -2 56 -1 56h2c30 -33 58 -49 95 -49c49 0 75 40 75 88c0 55 -29 76 -67 76
c-15 0 -34 -3 -45 -6c-2 -1 -5 24 -3 24c58 14 96 38 96 84c0 37 -23 57 -54 57c-37 0 -65 -16 -89 -39h-2c-1 0 -2 46 1 47c19 8 51 15 91 15c69 0 117 -19 117 -78c0 -38 -33 -65 -98 -83v-1c65 3 119 -30 119 -92c0 -67 -55 -115 -142 -115zM181 410c1 0 0 -17 -1 -17
h-150c-1 0 0 17 1 17l43 4v244c0 16 0 33 -1 59c-15 -2 -36 -3 -46 -3c-1 0 -1 18 0 18c39 5 82 12 106 21c1 0 5 -2 5 -3l-1 -32v-304z" />
    <glyph glyph-name="threeeighths" unicode="&#x215c;" horiz-adv-x="652" 
d="M317 343c-103 -152 -262 -383 -262 -383c-3 -4 -43 -4 -39 0c73 109 146 212 276 402c99 146 273 402 273 402c3 4 43 5 39 0c-58 -85 -180 -263 -287 -421zM113 388c-43 0 -66 5 -95 16c-3 1 -2 56 -1 56h2c30 -33 58 -49 95 -49c49 0 75 40 75 88c0 55 -29 76 -67 76
c-15 0 -34 -3 -45 -6c-2 -1 -5 24 -3 24c58 14 96 38 96 84c0 37 -23 57 -54 57c-37 0 -65 -16 -89 -39h-2c-1 0 -2 46 1 47c19 8 51 15 91 15c69 0 117 -19 117 -78c0 -38 -33 -65 -98 -83v-1c65 3 119 -30 119 -92c0 -67 -55 -115 -142 -115zM627 94
c0 -60 -52 -99 -128 -99c-83 0 -128 32 -128 85c0 49 41 76 83 92c-41 20 -71 50 -71 99c0 56 51 93 119 93c81 0 114 -38 114 -83c0 -39 -35 -66 -73 -84c49 -24 84 -49 84 -103zM432 292c0 -44 35 -59 91 -85c22 17 42 39 42 73c0 32 -24 65 -65 65c-33 0 -68 -17 -68 -53
zM424 82c0 -26 20 -68 75 -68c58 0 76 31 76 63c0 45 -54 66 -100 85c-25 -13 -51 -33 -51 -80z" />
    <glyph glyph-name="fiveeighths" unicode="&#x215d;" horiz-adv-x="657" 
d="M122 387c-40 0 -72 9 -94 20c-4 2 -4 57 -2 57h2c29 -38 59 -54 94 -54c49 0 78 42 78 89c0 63 -26 88 -74 88c-23 0 -50 -11 -68 -25c-1 -1 -10 6 -10 9l27 179h178l-5 -58h-2c-42 4 -60 5 -98 5h-55l-15 -99c11 6 32 15 69 15c76 0 120 -37 120 -106
c0 -78 -67 -120 -145 -120zM321 343c-103 -152 -262 -383 -262 -383c-3 -4 -43 -4 -39 0c73 109 146 212 276 402c99 146 273 402 273 402c3 4 43 5 39 0c-58 -85 -180 -263 -287 -421zM632 94c0 -60 -52 -99 -128 -99c-83 0 -128 32 -128 85c0 49 41 76 83 92
c-41 20 -71 50 -71 99c0 56 51 93 119 93c81 0 114 -38 114 -83c0 -39 -35 -66 -73 -84c49 -24 84 -49 84 -103zM437 292c0 -44 35 -59 91 -85c22 17 42 39 42 73c0 32 -24 65 -65 65c-33 0 -68 -17 -68 -53zM429 82c0 -26 20 -68 75 -68c58 0 76 31 76 63
c0 45 -54 66 -100 85c-25 -13 -51 -33 -51 -80z" />
    <glyph glyph-name="twothirds" unicode="&#x2154;" horiz-adv-x="673" 
d="M341 343c-103 -152 -262 -383 -262 -383c-3 -4 -43 -4 -39 0c73 109 146 212 276 402c99 146 273 402 273 402c3 4 43 5 39 0c-58 -85 -180 -263 -287 -421zM504 -5c-43 0 -66 5 -95 16c-3 1 -2 56 -1 56h2c30 -33 58 -49 95 -49c49 0 75 40 75 88c0 55 -29 76 -67 76
c-15 0 -34 -3 -45 -6c-2 -1 -5 24 -3 24c58 14 96 38 96 84c0 37 -23 57 -54 57c-37 0 -65 -16 -89 -39h-2c-1 0 -2 46 1 47c19 8 51 15 91 15c69 0 117 -19 117 -78c0 -38 -33 -65 -98 -83v-1c65 3 119 -30 119 -92c0 -67 -55 -115 -142 -115zM28 393c-3 0 -5 34 -2 36
c40 38 70 67 101 98c36 36 66 73 66 134c0 43 -22 73 -65 73c-38 0 -62 -20 -91 -54h-2c-1 0 -1 55 2 56c25 13 58 21 100 21c71 0 123 -29 123 -92c0 -72 -61 -116 -98 -147c-28 -23 -57 -48 -84 -71v-2h62c50 0 92 3 127 7h5l-14 -59h-230z" />
    <glyph glyph-name="seveneighths" unicode="&#x215e;" horiz-adv-x="590" 
d="M243 343c-103 -152 -262 -383 -262 -383c-3 -4 -43 -4 -39 0c73 109 146 212 276 402c99 146 273 402 273 402c3 4 43 5 39 0c-58 -85 -180 -263 -287 -421zM565 94c0 -60 -52 -99 -128 -99c-83 0 -128 32 -128 85c0 49 41 76 83 92c-41 20 -71 50 -71 99
c0 56 51 93 119 93c81 0 114 -38 114 -83c0 -39 -35 -66 -73 -84c49 -24 84 -49 84 -103zM370 292c0 -44 35 -59 91 -85c22 17 42 39 42 73c0 32 -24 65 -65 65c-33 0 -68 -17 -68 -53zM362 82c0 -26 20 -68 75 -68c58 0 76 31 76 63c0 45 -54 66 -100 85
c-25 -13 -51 -33 -51 -80zM91 395c-3 -7 -66 -4 -62 2c24 37 93 142 130 206l54 93h-97c-30 0 -52 -1 -94 -4c0 -1 -2 -1 -2 0l3 60c23 -1 52 -2 76 -2h156c3 0 5 -9 4 -11l-76 -143c-41 -77 -87 -190 -92 -201z" />
    <glyph glyph-name="uni2032" unicode="&#x2032;" horiz-adv-x="176" 
d="M30 566c17 78 27 124 38 183c1 3 84 4 82 0c-33 -78 -48 -109 -81 -183c-1 -3 -39 -2 -39 0z" />
    <glyph glyph-name="uni2033" unicode="&#x2033;" horiz-adv-x="296" 
d="M30 566c17 78 27 124 38 183c1 3 84 4 82 0c-33 -78 -48 -109 -81 -183c-1 -3 -39 -2 -39 0zM150 566c17 78 27 124 38 183c1 3 84 4 82 0c-33 -78 -48 -109 -81 -183c-1 -3 -39 -2 -39 0z" />
    <glyph glyph-name="zero.num" unicode="&#xe416;" horiz-adv-x="354" 
d="M179 388c-95 0 -153 72 -153 180c0 118 58 189 149 189c94 0 153 -72 153 -180c0 -117 -59 -189 -149 -189zM181 409c53 0 81 61 81 167c0 103 -35 160 -88 160c-54 0 -82 -60 -82 -167c0 -101 35 -160 89 -160z" />
    <glyph glyph-name="one.num" unicode="&#xe417;" horiz-adv-x="198" 
d="M176 410c1 0 0 -17 -1 -17h-150c-1 0 0 17 1 17l43 4v244c0 16 0 33 -1 59c-15 -2 -36 -3 -46 -3c-1 0 -1 18 0 18c39 5 82 12 106 21c1 0 5 -2 5 -3l-1 -32v-304z" />
    <glyph glyph-name="two.num" unicode="&#xe418;" horiz-adv-x="283" 
d="M23 393c-3 0 -5 34 -2 36c40 38 70 67 101 98c36 36 66 73 66 134c0 43 -22 73 -65 73c-38 0 -62 -20 -91 -54h-2c-1 0 -1 55 2 56c25 13 58 21 100 21c71 0 123 -29 123 -92c0 -72 -61 -116 -98 -147c-28 -23 -57 -48 -84 -71v-2h62c50 0 92 3 127 7h5l-14 -59h-230z
" />
    <glyph glyph-name="three.num" unicode="&#xe419;" horiz-adv-x="272" 
d="M108 388c-43 0 -66 5 -95 16c-3 1 -2 56 -1 56h2c30 -33 58 -49 95 -49c49 0 75 40 75 88c0 55 -29 76 -67 76c-15 0 -34 -3 -45 -6c-2 -1 -5 24 -3 24c58 14 96 38 96 84c0 37 -23 57 -54 57c-37 0 -65 -16 -89 -39h-2c-1 0 -2 46 1 47c19 8 51 15 91 15
c69 0 117 -19 117 -78c0 -38 -33 -65 -98 -83v-1c65 3 119 -30 119 -92c0 -67 -55 -115 -142 -115z" />
    <glyph glyph-name="four.num" unicode="&#xe41a;" horiz-adv-x="299" 
d="M229 754l-1 -32v-205c27 0 58 6 60 6s0 -34 -2 -33c-18 2 -38 3 -58 3v-80l42 -3c1 0 0 -17 -1 -17h-146c-1 0 0 17 1 17l41 4c1 15 1 19 1 39v40h-161c-1 0 -1 23 0 24l192 240c1 1 32 -2 32 -3zM166 680l-128 -163h128v163z" />
    <glyph glyph-name="five.num" unicode="&#xe41b;" horiz-adv-x="283" 
d="M117 387c-40 0 -72 9 -94 20c-4 2 -4 57 -2 57h2c29 -38 59 -54 94 -54c49 0 78 42 78 89c0 63 -26 88 -74 88c-23 0 -50 -11 -68 -25c-1 -1 -10 6 -10 9l27 179h178l-5 -58h-2c-42 4 -60 5 -98 5h-55l-15 -99c11 6 32 15 69 15c76 0 120 -37 120 -106
c0 -78 -67 -120 -145 -120z" />
    <glyph glyph-name="six.num" unicode="&#xe41c;" horiz-adv-x="310" 
d="M292 502c0 -71 -57 -113 -130 -113c-79 0 -140 51 -140 160c0 126 82 207 173 207c33 0 53 -3 74 -12c3 -1 2 -52 1 -52h-2c-17 21 -41 41 -75 41c-44 0 -95 -55 -104 -155c16 11 48 28 89 28c76 0 114 -39 114 -104zM88 550c0 -96 31 -140 74 -140c33 0 65 28 65 91
c0 44 -25 76 -71 76c-34 0 -58 -12 -68 -19v-8z" />
    <glyph glyph-name="seven.num" unicode="&#xe41d;" horiz-adv-x="256" 
d="M86 395c-3 -7 -66 -4 -62 2c24 37 93 142 130 206l54 93h-97c-30 0 -52 -1 -94 -4c0 -1 -2 -1 -2 0l3 60c23 -1 52 -2 76 -2h156c3 0 5 -9 4 -11l-76 -143c-41 -77 -87 -190 -92 -201z" />
    <glyph glyph-name="eight.num" unicode="&#xe41e;" horiz-adv-x="296" 
d="M276 487c0 -60 -52 -99 -128 -99c-83 0 -128 32 -128 85c0 49 41 76 83 92c-41 20 -71 50 -71 99c0 56 51 93 119 93c81 0 114 -38 114 -83c0 -39 -35 -66 -73 -84c49 -24 84 -49 84 -103zM81 685c0 -44 35 -59 91 -85c22 17 42 39 42 73c0 32 -24 65 -65 65
c-33 0 -68 -17 -68 -53zM73 475c0 -26 20 -68 75 -68c58 0 76 31 76 63c0 45 -54 66 -100 85c-25 -13 -51 -33 -51 -80z" />
    <glyph glyph-name="nine.num" unicode="&#xe41f;" horiz-adv-x="310" 
d="M288 597c0 -126 -76 -209 -175 -209c-41 0 -65 8 -79 14c-3 1 -3 55 -1 55h2c18 -23 42 -46 81 -46c45 0 96 57 105 154c-18 -12 -51 -28 -92 -28c-68 0 -111 41 -111 106c0 70 59 114 129 114c79 0 141 -53 141 -160zM83 646c0 -42 24 -80 70 -80c28 0 52 8 69 21v9
c0 96 -31 140 -75 140c-34 0 -64 -30 -64 -90z" />
    <glyph glyph-name="zero.den" unicode="&#xe402;" horiz-adv-x="354" 
d="M179 -5c-95 0 -153 72 -153 180c0 118 58 189 149 189c94 0 153 -72 153 -180c0 -117 -59 -189 -149 -189zM181 16c53 0 81 61 81 167c0 103 -35 160 -88 160c-54 0 -82 -60 -82 -167c0 -101 35 -160 89 -160z" />
    <glyph glyph-name="one.den" unicode="&#xe403;" horiz-adv-x="198" 
d="M176 17c1 0 0 -17 -1 -17h-150c-1 0 0 17 1 17l43 4v244c0 16 0 33 -1 59c-15 -2 -36 -3 -46 -3c-1 0 -1 18 0 18c39 5 82 12 106 21c1 0 5 -2 5 -3l-1 -32v-304z" />
    <glyph glyph-name="two.den" unicode="&#xe404;" horiz-adv-x="283" 
d="M23 0c-3 0 -5 34 -2 36c40 38 70 67 101 98c36 36 66 73 66 134c0 43 -22 73 -65 73c-38 0 -62 -20 -91 -54h-2c-1 0 -1 55 2 56c25 13 58 21 100 21c71 0 123 -29 123 -92c0 -72 -61 -116 -98 -147c-28 -23 -57 -48 -84 -71v-2h62c50 0 92 3 127 7h5l-14 -59h-230z" />
    <glyph glyph-name="three.den" unicode="&#xe405;" horiz-adv-x="272" 
d="M108 -5c-43 0 -66 5 -95 16c-3 1 -2 56 -1 56h2c30 -33 58 -49 95 -49c49 0 75 40 75 88c0 55 -29 76 -67 76c-15 0 -34 -3 -45 -6c-2 -1 -5 24 -3 24c58 14 96 38 96 84c0 37 -23 57 -54 57c-37 0 -65 -16 -89 -39h-2c-1 0 -2 46 1 47c19 8 51 15 91 15
c69 0 117 -19 117 -78c0 -38 -33 -65 -98 -83v-1c65 3 119 -30 119 -92c0 -67 -55 -115 -142 -115z" />
    <glyph glyph-name="four.den" unicode="&#xe406;" horiz-adv-x="299" 
d="M229 361l-1 -32v-205c27 0 58 6 60 6s0 -34 -2 -33c-18 2 -38 3 -58 3v-80l42 -3c1 0 0 -17 -1 -17h-146c-1 0 0 17 1 17l41 4c1 15 1 19 1 39v40h-161c-1 0 -1 23 0 24l192 240c1 1 32 -2 32 -3zM166 287l-128 -163h128v163z" />
    <glyph glyph-name="five.den" unicode="&#xe407;" horiz-adv-x="283" 
d="M117 -6c-40 0 -72 9 -94 20c-4 2 -4 57 -2 57h2c29 -38 59 -54 94 -54c49 0 78 42 78 89c0 63 -26 88 -74 88c-23 0 -50 -11 -68 -25c-1 -1 -10 6 -10 9l27 179h178l-5 -58h-2c-42 4 -60 5 -98 5h-55l-15 -99c11 6 32 15 69 15c76 0 120 -37 120 -106
c0 -78 -67 -120 -145 -120z" />
    <glyph glyph-name="six.den" unicode="&#xe408;" horiz-adv-x="310" 
d="M292 109c0 -71 -57 -113 -130 -113c-79 0 -140 51 -140 160c0 126 82 207 173 207c33 0 53 -3 74 -12c3 -1 2 -52 1 -52h-2c-17 21 -41 41 -75 41c-44 0 -95 -55 -104 -155c16 11 48 28 89 28c76 0 114 -39 114 -104zM88 157c0 -96 31 -140 74 -140c33 0 65 28 65 91
c0 44 -25 76 -71 76c-34 0 -58 -12 -68 -19v-8z" />
    <glyph glyph-name="seven.den" unicode="&#xe409;" horiz-adv-x="256" 
d="M86 2c-3 -7 -66 -4 -62 2c24 37 93 142 130 206l54 93h-97c-30 0 -52 -1 -94 -4c0 -1 -2 -1 -2 0l3 60c23 -1 52 -2 76 -2h156c3 0 5 -9 4 -11l-76 -143c-41 -77 -87 -190 -92 -201z" />
    <glyph glyph-name="eight.den" unicode="&#xe40a;" horiz-adv-x="296" 
d="M276 94c0 -60 -52 -99 -128 -99c-83 0 -128 32 -128 85c0 49 41 76 83 92c-41 20 -71 50 -71 99c0 56 51 93 119 93c81 0 114 -38 114 -83c0 -39 -35 -66 -73 -84c49 -24 84 -49 84 -103zM81 292c0 -44 35 -59 91 -85c22 17 42 39 42 73c0 32 -24 65 -65 65
c-33 0 -68 -17 -68 -53zM73 82c0 -26 20 -68 75 -68c58 0 76 31 76 63c0 45 -54 66 -100 85c-25 -13 -51 -33 -51 -80z" />
    <glyph glyph-name="nine.den" unicode="&#xe40b;" horiz-adv-x="310" 
d="M288 204c0 -126 -76 -209 -175 -209c-41 0 -65 8 -79 14c-3 1 -3 55 -1 55h2c18 -23 42 -46 81 -46c45 0 96 57 105 154c-18 -12 -51 -28 -92 -28c-68 0 -111 41 -111 106c0 70 59 114 129 114c79 0 141 -53 141 -160zM83 253c0 -42 24 -80 70 -80c28 0 52 8 69 21v9
c0 96 -31 140 -75 140c-34 0 -64 -30 -64 -90z" />
    <glyph glyph-name="space_uni0326.alt" 
d="M302 768c-16 -67 -24 -106 -34 -157c-1 -5 -83 -4 -81 0c34 68 49 93 82 157c1 3 33 2 33 0z" />
    <glyph glyph-name="caron.alt" 
d="M189 567l6 182c0 3 79 4 77 0c-27 -75 -37 -100 -66 -172c-6 -15 -17 -13 -17 -10z" />
    <glyph glyph-name="questiondown.uc" horiz-adv-x="389" 
d="M266 374c-98 -79 -165 -138 -165 -225c0 -98 65 -130 120 -130c61 0 109 36 140 76h3c4 0 7 -76 -3 -80c-36 -14 -85 -26 -144 -26c-115 0 -190 70 -190 178c0 103 99 190 195 257l7 147c0 2 20 2 20 -1c8 -57 24 -166 24 -183c0 -8 -4 -11 -7 -13zM245 758
c27 0 48 -22 48 -49c0 -28 -21 -49 -48 -49c-28 0 -49 21 -49 49c0 27 21 49 49 49z" />
    <glyph glyph-name="exclamdown.uc" horiz-adv-x="229" 
d="M99 571c0 2 20 2 20 -1l43 -568c0 -4 -95 -4 -95 0zM115 758c27 0 48 -22 48 -49c0 -28 -21 -49 -48 -49c-28 0 -49 21 -49 49c0 27 21 49 49 49z" />
    <glyph glyph-name="hyphen.uc" horiz-adv-x="357" 
d="M298 335c-40 2 -87 4 -155 4h-98l17 58c37 -2 74 -4 142 -4h108z" />
    <glyph glyph-name="endash.uc" horiz-adv-x="535" 
d="M481 347c-40 1 -173 4 -248 4h-188l10 35c37 -1 152 -4 238 -4h197z" />
    <glyph glyph-name="emdash.uc" horiz-adv-x="736" 
d="M682 347c-40 1 -169 4 -349 4h-288l10 35c37 -1 148 -4 338 -4h298z" />
    <glyph glyph-name="guilsinglleft.uc" horiz-adv-x="240" 
d="M200 161l-163 183c-1 1 -1 16 0 17l162 182c5 5 17 4 15 1l-99 -191l99 -192c2 -3 -12 -2 -14 0z" />
    <glyph glyph-name="guilsinglright.uc" horiz-adv-x="242" 
d="M40 545l163 -183c1 -1 1 -16 0 -17l-162 -182c-5 -5 -17 -4 -15 -1l99 191l-99 192c-2 3 12 2 14 0z" />
    <glyph glyph-name="guillemotleft.uc" horiz-adv-x="384" 
d="M344 161l-162 183c-1 1 -1 16 0 17l161 182c5 5 17 4 15 1l-99 -191l99 -192c2 -3 -12 -2 -14 0zM199 161l-162 183c-1 1 -1 16 0 17l161 182c5 5 17 4 15 1l-99 -191l99 -192c2 -3 -12 -2 -14 0z" />
    <glyph glyph-name="guillemotright.uc" horiz-adv-x="384" 
d="M40 545l162 -183c1 -1 1 -16 0 -17l-161 -182c-5 -5 -17 -4 -15 -1l99 191l-99 192c-2 3 12 2 14 0zM185 545l162 -183c1 -1 1 -16 0 -17l-161 -182c-5 -5 -17 -4 -15 -1l99 191l-99 192c-2 3 12 2 14 0z" />
    <glyph glyph-name="parenleft.uc" horiz-adv-x="313" 
d="M60 356c0 217 94 365 214 472c4 3 13 -4 5 -14c-100 -135 -145 -268 -145 -455c0 -168 48 -316 141 -457c7 -10 -1 -17 -5 -14c-84 82 -210 228 -210 468z" />
    <glyph glyph-name="parenright.uc" horiz-adv-x="313" 
d="M253 360c0 -217 -94 -365 -214 -472c-4 -3 -13 4 -5 14c100 135 145 268 145 455c0 168 -48 316 -141 457c-7 10 1 17 5 14c84 -82 210 -228 210 -468z" />
    <glyph glyph-name="bracketleft.uc" horiz-adv-x="268" 
d="M79 -101c-2 0 -8 4 -9 7v912c1 3 7 7 9 7h163c3 0 0 -23 -2 -23h-100v-880h102c3 0 0 -23 -2 -23h-161z" />
    <glyph glyph-name="bracketright.uc" horiz-adv-x="269" 
d="M189 825c2 0 8 -4 9 -7v-912c-1 -3 -7 -7 -9 -7h-163c-3 0 0 23 2 23h100v880h-102c-3 0 0 23 2 23h161z" />
    <glyph glyph-name="braceleft.uc" horiz-adv-x="307" 
d="M92 15c0 61 61 201 61 265c0 30 -13 65 -121 73c-2 0 -2 17 0 17c106 9 121 44 121 74c0 65 -61 203 -61 264c0 63 67 105 177 107c11 0 15 -10 11 -10c-105 -9 -117 -55 -117 -84c0 -60 52 -198 52 -252s-51 -96 -124 -107c68 -11 124 -43 124 -108
c0 -42 -52 -202 -52 -252c0 -38 17 -77 117 -84c4 0 0 -10 -11 -10c-111 2 -177 35 -177 107z" />
    <glyph glyph-name="braceright.uc" horiz-adv-x="307" 
d="M215 708c0 -61 -61 -201 -61 -265c0 -30 13 -65 121 -73c2 0 2 -17 0 -17c-106 -9 -121 -44 -121 -74c0 -65 61 -203 61 -264c0 -63 -67 -105 -177 -107c-11 0 -15 10 -11 10c105 9 117 55 117 84c0 60 -52 198 -52 252s51 96 124 107c-68 11 -124 43 -124 108
c0 42 52 202 52 252c0 38 -17 77 -117 84c-4 0 0 10 11 10c111 -2 177 -35 177 -107z" />
    <glyph glyph-name="slash.uc" horiz-adv-x="403" 
d="M219 355c-63 -172 -174 -473 -174 -473c-2 -5 -35 7 -33 13l176 473c60 165 165 453 165 453c2 4 36 -8 34 -14c-37 -96 -101 -272 -168 -452z" />
    <glyph glyph-name="backslash.uc" horiz-adv-x="403" 
d="M184 355c-67 180 -131 356 -168 452c-2 6 32 18 34 14c0 0 105 -288 165 -453l176 -473c2 -6 -31 -18 -33 -13c0 0 -111 301 -174 473z" />
    <glyph glyph-name="at.uc" horiz-adv-x="969" 
d="M588 132c-42 0 -61 18 -61 48c0 17 4 37 8 55h-4c-24 -33 -80 -103 -147 -103c-71 0 -113 55 -113 137c0 169 161 350 299 350c36 0 61 -12 80 -23h3l29 31c2 2 29 0 28 -3l-28 -107l-86 -335c-3 -14 1 -22 14 -22c92 0 263 93 263 323c0 178 -103 296 -310 296
c-286 0 -453 -220 -453 -449c0 -210 124 -362 366 -362c98 0 185 26 262 68c2 1 5 -12 -2 -17c-45 -35 -137 -80 -271 -80c-261 0 -420 153 -420 379c0 270 229 488 520 488c229 0 367 -142 367 -304c0 -208 -164 -370 -344 -370zM408 179c51 0 112 63 136 103l72 282
c-15 15 -34 28 -57 28c-83 0 -211 -136 -211 -313c0 -73 28 -100 60 -100z" />
    <glyph glyph-name="grave.uc" 
d="M316 787l-193 54l-2 2c6 18 23 60 25 61h3l181 -109c4 -1 -3 -11 -14 -8z" />
    <glyph glyph-name="dieresis.uc" horiz-adv-x="500" 
d="M345 784c-24 0 -44 21 -44 45c0 25 20 46 44 46c25 0 46 -21 46 -46c0 -24 -21 -45 -46 -45zM138 784c-24 0 -45 21 -45 45c0 25 21 46 45 46c25 0 45 -21 45 -46c0 -24 -20 -45 -45 -45z" />
    <glyph glyph-name="macron.uc" 
d="M232 814c-51 0 -109 -1 -109 -1c-3 0 0 43 3 43c28 0 61 -1 106 -1c58 0 109 1 109 1c3 0 0 -43 -3 -43c-41 1 -67 1 -106 1z" />
    <glyph glyph-name="acute.uc" 
d="M134 787c-11 -3 -18 7 -14 8l181 109h3c2 -1 19 -43 25 -61l-2 -2z" />
    <glyph glyph-name="circumflex.uc" 
d="M346 781l-121 59l-121 -59c-5 -2 -17 0 -14 3l121 119c2 2 27 2 29 0l120 -119c3 -3 -9 -5 -14 -3z" />
    <glyph glyph-name="caron.uc" 
d="M346 908c5 2 17 0 14 -3l-121 -121c-2 -2 -27 -2 -29 0l-120 121c-3 3 9 5 14 3l121 -57z" />
    <glyph glyph-name="breve.uc" 
d="M224 842c39 0 82 14 103 60c1 3 8 -2 8 -7c-8 -58 -48 -107 -110 -107s-102 49 -110 107c0 5 7 10 8 7c21 -46 64 -60 101 -60z" />
    <glyph glyph-name="dotaccent.uc" 
d="M232 784c-27 0 -49 23 -49 50c0 26 22 49 49 49s49 -23 49 -49c0 -27 -22 -50 -49 -50z" />
    <glyph glyph-name="ring.uc" 
d="M140 862c0 45 36 82 85 82s86 -37 86 -82s-37 -81 -86 -81s-85 36 -85 81zM178 862c0 -33 19 -58 47 -58s48 25 48 58s-20 59 -48 59s-47 -26 -47 -59z" />
    <glyph glyph-name="tilde.uc" 
d="M281 803c-35 0 -95 26 -124 26c-20 0 -40 -20 -57 -45c-2 -3 -14 -3 -13 0c25 64 58 99 83 99c32 0 95 -27 124 -27c18 0 38 17 58 46c1 2 13 3 12 0c-24 -67 -56 -99 -83 -99z" />
    <glyph glyph-name="hungarumlaut.uc" 
d="M240 786c-11 -5 -22 1 -18 5l115 135h3c7 -8 26 -29 38 -45l-2 -3zM94 786c-11 -5 -22 1 -18 5l115 135h3c7 -8 26 -29 38 -45l-2 -3z" />
    <glyph glyph-name="Cacute.pl" horiz-adv-x="684" 
d="M417 -12c-217 0 -380 132 -380 380c0 232 171 395 367 395c102 0 182 -13 230 -42c5 -3 1 -87 -2 -87h-2c-79 70 -133 97 -226 97c-167 0 -265 -146 -265 -349c0 -206 98 -364 278 -364c96 0 157 49 219 111h2c2 0 5 -87 0 -90c-54 -29 -143 -51 -221 -51zM399 796
c-8 -9 -18 -8 -17 -4l45 151l5 3c5 -2 53 -21 69 -31l-1 -2z" />
    <glyph glyph-name="Nacute.pl" horiz-adv-x="746" 
d="M35 0c-2 0 -1 20 2 21c31 6 45 9 70 13c2 46 5 96 5 155v531c-31 4 -44 6 -82 10c-3 0 -2 20 1 20h188l379 -552h4v518c-42 6 -42 8 -73 13c-4 1 -2 21 0 21h185c2 0 1 -20 -2 -21c-31 -6 -45 -9 -70 -13c-2 -46 -5 -96 -5 -155l1 -404c0 -37 -1 -68 4 -157
c0 -2 -14 -5 -15 -3l-477 701h-3v-664c42 -6 42 -8 73 -13c4 -1 2 -21 0 -21h-185zM374 795c-8 -9 -18 -8 -17 -4l45 151l5 3c5 -2 53 -21 69 -31l-1 -2z" />
    <glyph glyph-name="Oacute.pl" horiz-adv-x="778" 
d="M394 -12c-194 0 -357 147 -357 378c0 241 161 397 347 397c194 0 357 -147 357 -378c0 -241 -161 -397 -347 -397zM397 13c152 0 242 139 242 370c0 223 -103 355 -256 355c-154 0 -244 -139 -244 -370c0 -223 103 -355 258 -355zM385 796c-8 -9 -18 -8 -17 -4l45 151
l5 3c5 -2 53 -21 69 -31l-1 -2z" />
    <glyph glyph-name="Sacute.pl" horiz-adv-x="521" 
d="M243 -12c-73 0 -155 18 -201 44c-7 4 -7 95 0 95h3c52 -61 119 -104 198 -105c100 -1 175 33 175 147c0 96 -85 139 -178 186c-87 50 -190 102 -190 222c0 115 86 186 215 186c82 0 119 -10 166 -28c10 -4 7 -90 3 -90h-3c-31 40 -77 85 -166 85
c-59 0 -148 -24 -148 -114c0 -86 86 -132 185 -186c101 -55 192 -109 192 -227c0 -138 -100 -215 -251 -215zM265 796c-8 -9 -18 -8 -17 -4l45 151l5 3c5 -2 53 -21 69 -31l-1 -2z" />
    <glyph glyph-name="Zacute.pl" horiz-adv-x="619" 
d="M576 -3c-33 1 -104 3 -151 3h-402c-3 0 -3 18 0 22l468 703h-205c-66 0 -160 -26 -218 -65h-3c-4 0 5 93 8 93c33 -1 104 -3 151 -3h368c3 0 3 -18 0 -22l-468 -703h199c109 0 200 31 258 70h3c4 1 -5 -98 -8 -98zM314 796c-8 -9 -18 -8 -17 -4l45 151l5 3
c5 -2 53 -21 69 -31l-1 -2z" />
    <glyph glyph-name="acute.pl" 
d="M182 600c-7 -10 -18 -8 -17 -5l39 168l3 1c2 1 49 -14 65 -25v-3z" />
    <glyph glyph-name="acute.ucpl" 
d="M193 796c-8 -9 -18 -8 -17 -4l45 151l5 3c5 -2 53 -21 69 -31l-1 -2z" />
    <glyph glyph-name="cacute.pl" horiz-adv-x="487" 
d="M271 -13c-138 0 -243 108 -243 266c0 186 133 291 265 291c66 0 107 -8 149 -23c5 -2 6 -72 0 -72h-3c-51 36 -86 66 -147 66c-104 0 -186 -81 -186 -230c0 -154 76 -243 186 -243c73 -1 134 34 170 70c2 2 7 -7 5 -12c-26 -60 -103 -113 -196 -113zM277 600
c-7 -10 -18 -8 -17 -5l39 168l3 1c2 1 49 -14 65 -25v-3z" />
    <glyph glyph-name="dotlessj.short" horiz-adv-x="226" 
d="M-11 -168c-1 0 -7 22 -5 23c58 23 95 70 95 119v380c0 43 -1 86 -2 130c-20 7 -34 9 -53 14c-1 0 -1 14 1 14c60 16 72 21 125 36c1 0 9 -5 9 -7l-1 -67v-418c0 -169 -92 -200 -169 -224z" />
    <glyph glyph-name="f.short" horiz-adv-x="317" 
d="M176 639v-106h137c3 0 -4 -38 -7 -38h-130v-470c23 -3 41 -6 63 -8c2 0 0 -17 -2 -17h-198c-2 0 0 17 2 17c21 3 36 5 52 8c1 32 2 54 1 98v372h-71c-1 0 -1 20 0 20l71 20v45c0 131 88 196 191 196c17 0 37 -2 58 -7c5 -1 3 -65 0 -65h-3c-21 24 -50 41 -81 41
c-45 0 -83 -31 -83 -106z" />
    <glyph glyph-name="f_f.short" horiz-adv-x="582" 
d="M359 123v372h-183v-470c23 -3 41 -6 63 -8c2 0 0 -17 -2 -17h-198c-2 0 0 17 2 17c21 3 36 5 52 8c1 32 2 54 1 98v372h-71c-1 0 -1 20 0 20l71 20v45c0 131 88 196 191 196c17 0 37 -2 58 -7c5 -1 3 -65 0 -65h-3c-21 24 -50 41 -81 41c-45 0 -83 -31 -83 -106v-106h183
v47c0 131 88 196 191 196c17 0 37 -2 58 -7c5 -1 3 -65 0 -65h-3c-21 24 -50 41 -81 41c-45 0 -83 -31 -83 -106v-106h137c3 0 -4 -38 -7 -38h-130v-470c23 -3 41 -6 63 -8c2 0 0 -17 -2 -17h-198c-2 0 0 17 2 17c21 3 36 5 52 8c1 32 2 54 1 98z" />
    <glyph glyph-name="j.short" horiz-adv-x="226" 
d="M117 637c-27 0 -49 23 -49 50c0 26 22 49 49 49s49 -23 49 -49c0 -27 -22 -50 -49 -50zM-11 -168c-1 0 -7 22 -5 23c58 23 95 70 95 119v380c0 43 -1 86 -2 130c-20 7 -34 9 -53 14c-1 0 -1 14 1 14c60 16 72 21 125 36c1 0 9 -5 9 -7l-1 -67v-418
c0 -169 -92 -200 -169 -224z" />
    <glyph glyph-name="jcircumflex.short" horiz-adv-x="226" 
d="M-11 -168c-1 0 -7 22 -5 23c58 23 95 70 95 119v380c0 43 -1 86 -2 130c-20 7 -34 9 -53 14c-1 0 -1 14 1 14c60 16 72 21 125 36c1 0 9 -5 9 -7l-1 -67v-418c0 -169 -92 -200 -169 -224zM224 602l-114 74l-114 -74c-5 -3 -17 0 -14 3l114 139c2 2 27 2 29 0l113 -139
c3 -3 -9 -6 -14 -3z" />
    <glyph glyph-name="nacute.pl" horiz-adv-x="586" 
d="M24 0c-2 0 0 17 2 17c21 3 36 5 52 8c1 32 1 57 1 99v230c0 43 -1 86 -2 130c-20 7 -34 9 -53 14c-1 0 -1 14 1 14c60 16 70 21 123 36c1 0 9 -5 9 -7l-1 -77h3c52 49 141 80 209 80c88 0 139 -40 139 -146v-374c16 -3 32 -5 53 -7c2 0 0 -17 -2 -17h-187c-2 0 0 17 2 17
c21 3 36 5 52 8c1 32 1 57 1 99v244c0 85 -23 126 -105 126c-60 0 -126 -22 -161 -55v-415c16 -3 31 -5 53 -7c2 0 0 -17 -2 -17h-187zM283 600c-7 -10 -18 -8 -17 -5l39 168l3 1c2 1 49 -14 65 -25v-3z" />
    <glyph glyph-name="oacute.pl" horiz-adv-x="567" 
d="M286 -13c-138 0 -258 95 -258 275s115 283 253 283s258 -95 258 -275s-115 -283 -253 -283zM286 12c95 0 166 68 166 251c0 193 -70 256 -171 256c-95 0 -166 -67 -166 -250c0 -193 70 -257 171 -257zM285 600c-7 -10 -18 -8 -17 -5l39 168l3 1c2 1 49 -14 65 -25v-3z
" />
    <glyph glyph-name="sacute.pl" horiz-adv-x="399" 
d="M190 -13c-71 0 -124 13 -163 34c-5 3 0 76 2 76h4c50 -56 90 -80 157 -80c70 0 112 21 112 94c0 66 -55 89 -144 131c-60 29 -122 68 -122 156c0 100 85 147 167 147c63 0 111 -11 141 -30c2 -2 2 -70 0 -70h-2c-32 47 -76 69 -139 69c-59 0 -101 -31 -101 -85
c0 -67 38 -82 109 -118c75 -38 162 -75 162 -163c0 -120 -100 -161 -183 -161zM201 600c-7 -10 -18 -8 -17 -5l39 168l3 1c2 1 49 -14 65 -25v-3z" />
    <glyph glyph-name="uni0192" unicode="&#x192;" horiz-adv-x="387" 
d="M161 221c-52 -349 -118 -418 -207 -418c-21 0 -43 5 -62 12c-4 2 8 51 11 51h3c28 -20 58 -33 72 -33c28 0 52 21 67 89c21 93 43 335 60 484h-74c-1 0 1 24 2 24l76 18l5 38c27 209 117 277 210 277c28 0 44 -3 70 -7c4 -1 -6 -60 -8 -60h-3c-28 23 -71 38 -93 38
c-47 0 -64 -49 -75 -119l-24 -167h115c3 0 -7 -42 -10 -42h-110z" />
    <glyph glyph-name="uni0237" unicode="&#x237;" horiz-adv-x="226" 
d="M-1 -178c-20 0 -31 1 -71 12c-7 2 3 56 4 56h1c39 -22 69 -35 103 -35c25 0 43 5 43 69v430c0 43 -1 86 -2 130c-20 7 -34 9 -53 14c-1 0 -1 14 1 14c60 16 72 21 125 36c1 0 9 -5 9 -7l-1 -67v-418c0 -169 -82 -234 -159 -234z" />
    <glyph glyph-name="uni2009" unicode="&#x2009;" horiz-adv-x="95" 
 />
    <glyph glyph-name="zacute.pl" horiz-adv-x="448" 
d="M428 -1c-58 1 -84 1 -129 1h-283c-2 0 -2 18 0 22l330 490c-89 0 -186 -14 -297 -29h-3c-4 0 -1 53 2 53c32 -1 96 -3 141 -3h242c3 0 3 -18 0 -22l-328 -487c181 3 273 15 325 30h2c4 0 1 -55 -2 -55zM230 600c-7 -10 -18 -8 -17 -5l39 168l3 1c2 1 49 -14 65 -25v-3z
" />
    </font>
</defs>
</svg>
