<svg xmlns="http://www.w3.org/2000/svg" xmlns:xlink="http://www.w3.org/1999/xlink" width="52" height="22" viewBox="0 0 52 22">
    <defs>
        <path id="w4buxpxdqa" d="M7.368 0.13L0.636 0.13 0.636 8.588 7.368 8.588 7.368 0.13z"/>
    </defs>
    <g fill="none" fill-rule="evenodd">
        <g>
            <g>
                <g>
                    <g>
                        <g>
                            <path fill="#FFF" d="M10.641 3.735c-.615 0-1.188.441-1.467 1.355h2.474c.041-.866-.266-1.355-1.007-1.355m2.348 2.221H9.006c-.111 1.085.447 1.562 1.397 1.562.797 0 1.496-.27 2.25-.695V7.91c-.74.415-1.593.678-2.599.678-1.733 0-2.879-.888-2.53-2.898.308-1.818 1.706-2.914 3.327-2.914 1.858 0 2.473 1.26 2.208 2.844-.028.118-.056.255-.07.336M15.574 5.272l-.545 3.201h-1.537l.95-5.582h1.314v1.122c.517-.648 1.23-1.188 2.194-1.236l.014 1.373c-.978.06-1.845.522-2.39 1.122M19.837 1.955c-.517 0-.867-.322-.783-.785.07-.474.545-.807 1.062-.807.49 0 .853.333.769.807-.084.463-.545.785-1.048.785m-1.901 6.518l.964-5.582h1.538l-.95 5.582M24.7 1.366c-.53 0-.839.207-.922.707l-.14.818h1.174v1.133h-1.37l-.768 4.45H21.15l.755-4.45h-.894l.195-1.133h.894l.168-.954C22.478.697 23.428.234 24.7.234c.266 0 .475.025.629.048v1.132c-.14-.022-.378-.048-.629-.048M26.615 1.955c-.518 0-.867-.322-.797-.785.084-.474.559-.807 1.062-.807s.867.333.783.807c-.084.463-.545.785-1.048.785m-1.901 6.518l.964-5.582h1.537l-.964 5.582M30.835 3.735c-.615 0-1.188.441-1.454 1.355h2.46c.042-.866-.251-1.355-1.006-1.355m2.348 2.221H29.2c-.112 1.085.46 1.562 1.412 1.562.782 0 1.495-.27 2.236-.695V7.91c-.741.415-1.594.678-2.6.678-1.733 0-2.865-.888-2.53-2.898.308-1.818 1.706-2.914 3.326-2.914 1.86 0 2.474 1.26 2.209 2.844-.015.118-.056.255-.07.336" transform="translate(-1093 -3451) translate(0 3029) translate(0 405) translate(1007 15) translate(86 2.786)"/>
                            <g transform="translate(-1093 -3451) translate(0 3029) translate(0 405) translate(1007 15) translate(86 2.786) translate(33.124)">
                                <mask id="msw308gfwb" fill="#fff">
                                    <use xlink:href="#w4buxpxdqa"/>
                                </mask>
                                <path fill="#FFF" d="M5.132 4.187c-.35-.163-.643-.24-1.16-.24-.811 0-1.51.584-1.705 1.813-.196 1.085.237 1.592.908 1.592.573 0 1.062-.3 1.552-.763l.405-2.402zm-.518 4.286L4.63 7.7c-.517.477-1.202.888-2.055.888-1.3 0-2.194-.866-1.872-2.746.363-2.084 1.789-3.006 3.228-3.006.587 0 1.048.092 1.397.207L5.788.349l1.58-.22-1.426 8.344H4.614z" mask="url(#msw308gfwb)"/>
                            </g>
                            <path fill="#FFF" d="M44.642 5.086c-.391 0-.783.237-1.118.552l-.335 1.917c.237.082.39.115.727.115.726 0 1.243-.404 1.411-1.366.14-.814-.153-1.218-.685-1.218m-.866 3.44c-.727 0-1.314-.105-1.873-.278l1.02-5.926 1.188-.167-.433 2.565c.35-.28.825-.559 1.426-.559.992 0 1.648.667 1.411 2.08-.266 1.558-1.328 2.284-2.74 2.284M49.268 8.703c-.093.178-.484.933-1.17 1.198-.454.176-.926.168-.927.168-.195 0-.32-.018-.418-.045v-.866c.14.033.307.06.53.06.336 0 .63-.14.825-.445l.168-.28-.992-4.17 1.229-.136.587 3.01 1.551-2.951h1.16c-1.15 1.98-2.041 3.496-2.543 4.457M21.514 10.643l-2.558 6.189-.265-1.26c-.713-1.79-2.502-2.779-3.396-3.064l2.124 7.196 2.753-.007 4.095-9.054h-2.753M23.694 19.712L25.315 10.635 27.928 10.635 26.293 19.712z" transform="translate(-1093 -3451) translate(0 3029) translate(0 405) translate(1007 15) translate(86 2.786)"/>
                            <g fill="#FFF">
                                <path d="M8.45.935C7.931.753 7.121.554 6.114.554c-2.57 0-4.388 1.232-4.402 2.995C1.699 4.855 2.999 5.58 3.99 6.014c1.006.444 1.356.729 1.356 1.128-.015.604-.811.885-1.566.885-1.034 0-1.593-.137-2.445-.474L1 7.41.637 9.437c.601.256 1.733.474 2.893.486 2.739 0 4.514-1.218 4.542-3.103 0-1.033-.699-1.817-2.195-2.465-.908-.422-1.466-.7-1.453-1.121 0-.382.461-.785 1.482-.785.852-.012 1.467.166 1.942.352l.238.103.363-1.969" transform="translate(-1093 -3451) translate(0 3029) translate(0 405) translate(1007 15) translate(86 2.786) translate(27.291 9.922)"/>
                            </g>
                            <path fill="#FFF" d="M39.192 16.495c.224-.526 1.048-2.54 1.048-2.54-.014.026.21-.525.336-.865l.181.784s.503 2.162.601 2.62h-2.166zm3.214-5.85h-2.012c-.615 0-1.09.157-1.356.753l-3.87 8.317h2.738l.545-1.37 3.326.008c.084.315.322 1.362.322 1.362h2.417l-2.11-9.07zM16.595 10.635h-4.193l-.028.189c3.648.844 5.366 2.447 6.317 4.75l-.908-4.173c-.168-.573-.615-.744-1.188-.766M.719.696L2.633 8.51 4.31 8.51 9.006.5 7.232.5 3.878 6.534 2.563.419z" transform="translate(-1093 -3451) translate(0 3029) translate(0 405) translate(1007 15) translate(86 2.786)"/>
                        </g>
                    </g>
                </g>
            </g>
        </g>
    </g>
</svg>
