<svg xmlns="http://www.w3.org/2000/svg" width="68" height="21" viewBox="0 0 68 21">
    <g fill="none" fill-rule="evenodd">
        <g fill="#FFF" fill-rule="nonzero">
            <g>
                <g>
                    <g>
                        <g>
                            <path d="M6.025 13.047c-.346-.202-.719-.363-1.109-.479-.39-.114-.798-.172-1.208-.17-.254-.003-.508.024-.756.078-.208.045-.407.123-.588.23-.154.091-.284.213-.38.357-.091.143-.138.305-.136.47-.006.147.035.292.118.417.087.118.203.215.34.283.169.085.35.15.538.192.237.054.477.097.72.129l.57.07c.33.043.657.11.977.2.304.084.59.212.85.379.248.16.454.37.603.612.158.275.236.583.226.895.008.357-.084.71-.267 1.024-.176.296-.422.552-.72.75-.319.21-.676.366-1.054.461-.414.107-.842.16-1.272.158-.29-.001-.581-.023-.869-.066-.306-.043-.609-.107-.905-.192-.28-.086-.553-.193-.814-.32-.258-.122-.5-.271-.72-.446l.72-.978c.155.13.327.241.511.333.424.213.882.362 1.358.441.24.042.484.062.728.063.253.003.505-.021.752-.071.215-.043.42-.118.61-.22.164-.09.305-.21.412-.354.104-.142.157-.309.154-.48.007-.287-.17-.552-.452-.678-.446-.19-.923-.309-1.412-.35l-.643-.083c-.307-.039-.61-.104-.905-.195-.283-.086-.547-.215-.783-.383-.233-.167-.423-.379-.556-.62-.153-.279-.23-.587-.227-.9-.006-.351.082-.699.258-1.011.17-.294.41-.549.702-.745.312-.209.663-.364 1.036-.458.412-.108.839-.16 1.267-.158.554-.007 1.105.068 1.634.22.48.144.936.345 1.357.6l-.665.995zm4.503.583c.371-.004.74.064 1.081.2.321.127.608.317.842.557.24.252.427.545.547.862.137.357.204.733.2 1.111v.425h-4.2c.03.212.104.417.217.603.098.16.229.302.385.417.15.107.32.187.502.237.188.05.384.076.58.075.29-.002.578-.052.85-.146.284-.098.549-.239.783-.416l.611.812c-.32.258-.694.452-1.1.57-.397.11-.81.164-1.226.162-.4.004-.795-.062-1.167-.196-.34-.125-.649-.313-.905-.553-.262-.246-.465-.54-.598-.862-.146-.359-.218-.74-.213-1.124-.004-.379.067-.755.209-1.111.127-.322.324-.616.579-.866.255-.243.563-.433.905-.558.355-.134.734-.203 1.118-.204v.005zm-.023 1.011c-.2-.004-.4.028-.588.092-.17.057-.324.146-.453.262-.127.12-.23.262-.303.416-.082.164-.138.338-.167.516h2.932c-.035-.352-.194-.683-.453-.945-.258-.234-.61-.359-.972-.345l.004.004zm6.557-1.011c.406-.004.81.067 1.186.208.351.137.661.35.905.62l-.792.774c-.182-.17-.393-.31-.625-.416-.23-.095-.48-.142-.733-.138-.227-.002-.452.04-.66.121-.2.086-.377.21-.52.362-.155.152-.275.33-.354.525-.17.437-.17.915 0 1.353.079.196.199.375.353.528.15.146.33.263.53.342.208.081.433.123.66.12.267 0 .53-.055.77-.162.228-.098.44-.229.624-.387l.765.803c-.254.27-.573.483-.932.62-.375.142-.777.213-1.181.209-.419.005-.834-.066-1.222-.209-.713-.262-1.272-.79-1.539-1.452-.283-.701-.283-1.472 0-2.173.267-.656.82-1.178 1.525-1.44.392-.146.813-.218 1.236-.213l.004.005zm8.44 3.13c.01.366-.067.73-.227 1.065-.135.28-.336.529-.588.729-.245.19-.53.33-.837.416-.631.178-1.306.178-1.937 0-.308-.085-.594-.227-.841-.416-.254-.199-.455-.448-.589-.729-.156-.336-.232-.7-.222-1.065v-2.997h1.24v2.914c-.006.216.03.431.104.636.063.158.164.3.295.417.128.11.283.192.452.237.354.098.732.098 1.086 0 .17-.045.324-.126.453-.237.13-.117.231-.26.294-.417.077-.204.113-.42.108-.636v-2.914h1.24l-.031 2.997zm4.502-3.13c.172-.001.343.011.512.037.154.023.306.06.452.112l-.294 1.124c-.143-.066-.295-.113-.452-.141-.16-.032-.322-.049-.485-.05-.185-.002-.37.029-.543.091-.162.06-.307.152-.425.27-.123.13-.217.28-.276.442-.07.19-.103.39-.1.591v2.86h-1.258v-5.203h1.222v.587c.174-.24.417-.43.702-.55.296-.12.617-.179.94-.175l.005.005zm4.141 0c.372-.004.74.064 1.082.2.32.127.608.317.841.557.25.25.443.543.57.862.137.357.204.733.2 1.111v.425H32.61c.03.212.104.417.217.603.098.16.228.302.385.417.15.107.32.187.502.237.188.05.383.076.58.075.29-.002.578-.052.85-.146.284-.098.549-.239.783-.416l.615.807c-.32.258-.694.453-1.1.57-.397.11-.81.165-1.226.163-.399.004-.795-.063-1.167-.196-.34-.125-.648-.313-.905-.553-.262-.247-.465-.54-.598-.862-.146-.36-.218-.74-.212-1.124-.005-.379.066-.755.208-1.111.125-.321.319-.616.57-.866.255-.243.564-.433.905-.558.356-.133.738-.201 1.122-.2l.005.005zm-.023 1.011c-.2-.004-.4.028-.588.092-.17.057-.323.146-.452.262-.128.12-.23.262-.304.416-.081.164-.138.338-.167.516h2.941c-.035-.352-.194-.683-.452-.945-.26-.236-.617-.36-.982-.345l.004.004zm8.015-3.434c.357-.001.714.035 1.063.108.331.07.652.176.955.316.29.135.559.305.8.504.237.193.44.418.603.666l-1.114.683c-.248-.337-.582-.613-.972-.804-.419-.201-.886-.302-1.358-.29-.4-.005-.796.063-1.168.199-.34.13-.648.323-.905.566-.265.25-.473.548-.61.874-.296.725-.296 1.523 0 2.248.137.326.345.623.61.874.257.243.565.436.905.566.372.136.768.204 1.168.2.919.018 1.786-.392 2.303-1.09l1.086.732c-.176.238-.386.453-.624.641-.234.195-.492.362-.77.5-.296.136-.609.24-.932.308-.93.189-1.899.122-2.787-.192-1.037-.373-1.857-1.128-2.263-2.081-.424-1.013-.424-2.134 0-3.147.406-.954 1.226-1.708 2.263-2.081.556-.203 1.149-.305 1.747-.3zm7.285 2.406c.415-.005.827.066 1.213.208.359.132.686.327.964.574.273.247.49.541.638.866.307.697.307 1.476 0 2.173-.148.325-.365.62-.638.866-.278.247-.605.443-.964.574-.78.28-1.645.28-2.426 0-.359-.13-.687-.326-.963-.574-.276-.24-.498-.53-.652-.85-.307-.696-.307-1.475 0-2.172.147-.324.362-.619.633-.866.277-.248.605-.443.964-.574.393-.146.813-.218 1.236-.213l-.005-.012zm0 1.07c-.24-.003-.478.038-.701.12-.21.078-.402.194-.561.342-.16.15-.286.329-.371.524-.181.436-.181.917 0 1.353.085.196.21.374.37.524.16.148.351.264.562.342.45.162.952.162 1.403 0 .427-.154.767-.463.94-.854.182-.435.182-.917 0-1.352-.085-.197-.212-.375-.375-.525-.161-.147-.354-.264-.565-.341-.222-.082-.459-.123-.697-.12l-.005-.013zm6.756-1.07c.693-.025 1.356.26 1.779.766v-3.247h1.235v7.83h-1.235v-.625c-.197.232-.448.421-.733.554-.326.145-.684.217-1.046.208-.754.007-1.479-.272-2.004-.77-.263-.253-.467-.551-.602-.878-.291-.708-.291-1.49 0-2.198.136-.322.341-.617.602-.866.525-.498 1.25-.777 2.004-.77v-.004zm.15 1.07c-.246-.004-.49.042-.715.133-.203.084-.385.206-.534.358-.148.154-.262.334-.335.528-.157.418-.157.873 0 1.29.073.195.187.375.335.53.149.152.33.274.534.357.452.173.96.173 1.412 0 .203-.08.387-.2.538-.35.148-.143.264-.311.344-.495.165-.428.165-.895 0-1.323-.078-.194-.196-.373-.348-.525-.152-.149-.335-.268-.539-.35-.217-.09-.453-.139-.692-.14v-.013zm6.969-1.07c.371-.003.74.065 1.081.2.321.127.609.318.842.557.24.253.427.545.547.862.137.357.204.733.2 1.111v.425H61.79c.03.212.103.417.217.604.098.16.228.301.385.416.15.107.32.188.502.237.188.05.383.076.58.075.29-.002.578-.051.85-.146.284-.098.548-.238.783-.416l.615.808c-.32.258-.694.452-1.1.57-.397.11-.81.165-1.226.162-.399.004-.795-.062-1.167-.195-.34-.125-.648-.314-.905-.554-.262-.246-.465-.54-.598-.862-.146-.359-.218-.74-.212-1.124-.005-.379.066-.755.208-1.11.128-.322.325-.617.579-.867.255-.243.564-.433.905-.558.348-.123.718-.186 1.09-.183v-.012zm3.262 5.336v-.25h.113v-.054h-.294v.055h.127v.262l.054-.013zm.566 0v-.316h-.09l-.105.216-.104-.216h-.09v.316h.063v-.237l.095.204h.064l.095-.204v.237h.072zm-3.851-4.325c-.2-.003-.4.028-.588.092-.17.057-.324.146-.453.262-.127.12-.23.262-.303.416-.082.164-.138.338-.167.517h2.932c-.032-.357-.191-.693-.453-.958-.262-.222-.612-.336-.968-.316v-.013zM10.084 8.239H8.7V1.754L6.197 7.46H4.74L2.246 1.816V8.24H.853V.359h2.122l2.493 5.632L7.958.36h2.122l.004 7.88zm7.286 0h-1.28v-.645c-.205.24-.465.436-.761.574-.337.15-.708.222-1.082.213-.783.007-1.536-.282-2.081-.8-.27-.259-.483-.564-.625-.899-.302-.735-.302-1.546 0-2.28.142-.336.354-.641.625-.9.545-.518 1.298-.807 2.081-.8.375-.008.746.066 1.082.217.296.14.555.338.76.579v-.65h1.28V8.24zm-2.973-4.425c-.255-.004-.509.043-.742.138-.21.087-.398.213-.552.37-.154.16-.272.347-.349.55-.163.434-.163.906 0 1.34.078.202.197.39.353.55.154.157.342.283.552.37.47.18.997.18 1.466 0 .21-.085.4-.208.557-.362.158-.159.28-.344.362-.546.171-.444.171-.929 0-1.373-.081-.202-.204-.387-.362-.546-.157-.154-.346-.277-.557-.362-.23-.09-.478-.134-.728-.129zm8.842.383c-.107-.056-.217-.108-.33-.154-.147-.059-.299-.109-.453-.15-.166-.046-.335-.084-.507-.112-.179-.03-.36-.046-.543-.046-.286-.015-.57.047-.819.18-.18.096-.29.273-.29.465-.003.085.024.168.078.238.053.066.123.12.203.158.098.045.201.079.308.1.118.025.244.047.38.066l.606.083c.54.052 1.055.23 1.498.517.372.254.584.66.566 1.086.003.247-.06.491-.181.712-.127.213-.305.396-.52.537-.253.167-.537.29-.838.362-.368.09-.75.134-1.13.129-.152 0-.327-.008-.526-.025-.215-.019-.428-.052-.638-.1-.235-.054-.465-.125-.688-.212-.236-.093-.46-.212-.665-.354l.593-.882c.11.077.224.148.344.212.134.07.275.128.42.175.17.053.344.094.521.12.214.032.43.048.647.046.343.018.685-.044.996-.179.203-.086.335-.272.34-.478-.004-.158-.097-.301-.245-.38-.237-.12-.5-.194-.77-.216l-.61-.075c-.54-.04-1.055-.222-1.485-.524-.337-.262-.525-.652-.511-1.057-.004-.25.055-.499.172-.725.112-.214.278-.401.484-.545.229-.156.486-.271.76-.341.329-.085.669-.125 1.01-.121.44-.002.877.048 1.303.15.379.086.74.227 1.072.416l-.552.924zm6.073-.283h-2.263v2.348c0 .159.03.316.086.466.042.116.11.222.2.312.08.08.182.142.294.18.117.038.241.058.366.057.21-.001.416-.038.611-.108.199-.068.39-.154.57-.258l.507.94c-.25.154-.516.281-.796.38-.32.109-.66.162-1 .158-.57.03-1.13-.155-1.548-.512-.412-.44-.614-1.012-.561-1.59V3.918h-1.163v-1.07h1.163V1.217h1.285v1.631h2.263l-.014 1.066zm3.937-1.211c.385-.005.768.065 1.122.204.333.132.631.33.874.578.25.262.444.566.57.895.14.37.21.761.203 1.153v.437h-4.357c.031.22.108.432.226.625.103.16.238.302.398.416.155.111.332.194.52.246.196.053.399.08.602.079.31 0 .616-.05.905-.15.293-.097.567-.238.81-.416l.638.832c-.331.267-.72.469-1.14.591-.412.115-.84.172-1.271.17-.421.014-.841-.048-1.236-.182-.357-.129-.68-.324-.95-.575-.272-.256-.483-.56-.62-.895-.152-.372-.227-.767-.222-1.165-.005-.393.067-.784.213-1.153.133-.334.337-.64.602-.9.254-.248.563-.445.905-.578.383-.144.794-.215 1.208-.208v-.004zm-.023 1.049c-.208-.004-.415.029-.61.095-.17.062-.325.156-.453.275-.132.12-.239.262-.317.416-.09.173-.152.357-.185.546h3.04c-.04-.367-.212-.711-.488-.978-.263-.236-.62-.364-.987-.354zm7.24-1.05c.178 0 .355.012.53.038.155.025.307.064.453.117l-.308 1.165c-.143-.066-.295-.115-.453-.145-.165-.032-.333-.05-.502-.05-.192-.002-.382.03-.56.095-.174.061-.329.158-.453.283-.13.134-.228.29-.29.458-.072.197-.107.404-.104.612v2.968h-1.28V2.832h1.266v.608c.18-.242.427-.435.715-.558.307-.122.639-.181.973-.175l.014-.004zm4.377 0c.422-.003.84.07 1.23.217.373.14.702.362.96.645l-.82.804c-.19-.17-.408-.31-.646-.416-.24-.099-.499-.149-.76-.146-.235-.002-.468.04-.684.125-.209.081-.397.202-.552.354-.158.158-.281.343-.362.545-.176.453-.176.95 0 1.403.08.201.204.387.362.545.155.152.343.272.552.354.216.084.449.127.683.125.273.002.542-.052.788-.159.238-.106.456-.247.647-.416l.787.812c-.263.282-.595.503-.968.645-.389.147-.806.22-1.226.217-.434.005-.865-.068-1.267-.217-.737-.27-1.317-.812-1.598-1.494-.294-.727-.294-1.526 0-2.252.281-.682.86-1.224 1.598-1.495.403-.139.832-.204 1.262-.191l.014-.004zm8.991 5.537h-1.28v-.645c-.205.24-.464.436-.76.574-.337.15-.708.222-1.082.213-.784.007-1.536-.282-2.082-.8-.27-.259-.483-.564-.624-.899-.302-.735-.302-1.546 0-2.28.142-.336.354-.641.624-.9.546-.518 1.298-.807 2.082-.8.374-.008.745.066 1.081.217.296.14.556.338.76.579v-.65h1.281V8.24zm-2.968-4.425c-.255-.004-.509.043-.742.138-.21.087-.398.213-.552.37-.154.16-.272.347-.349.55-.163.434-.163.906 0 1.34.077.202.195.388.349.55.154.157.342.283.552.37.469.18.997.18 1.466 0 .21-.085.4-.208.556-.362.159-.159.282-.344.362-.546.172-.444.172-.93 0-1.373-.08-.202-.203-.387-.362-.546-.156-.154-.346-.277-.556-.362-.228-.089-.473-.133-.72-.129h-.004zm7.824-1.107c.177-.001.354.011.53.037.154.025.306.064.452.117l-.308 1.165c-.143-.066-.295-.115-.452-.145-.166-.032-.334-.049-.503-.05-.192-.002-.382.03-.56.096-.173.06-.328.157-.453.283-.13.133-.228.288-.29.458-.072.197-.107.403-.104.611v2.968h-1.28V2.836h1.28v.608c.18-.244.429-.439.72-.562.307-.122.638-.181.972-.175h-.004zm4.2 0c.374-.01.745.065 1.08.216.297.14.556.338.761.579V.134h1.28V8.24h-1.28v-.645c-.204.24-.464.436-.76.574-.337.15-.708.222-1.082.213-.783.007-1.536-.282-2.081-.8-.276-.258-.493-.563-.638-.899-.302-.735-.302-1.546 0-2.28.141-.336.354-.641.624-.9.545-.518 1.298-.807 2.082-.8l.013.005zm4.615 5.037c.051-.001.102.007.15.025.045.017.087.043.122.075.034.03.062.067.081.108.04.085.04.181 0 .266-.02.04-.047.077-.081.108-.036.032-.077.058-.123.075-.047.02-.097.03-.149.03-.152.001-.291-.08-.353-.209-.04-.085-.04-.181 0-.266.039-.084.112-.15.204-.183.048-.02.1-.03.154-.03h-.005zm0 .612c.039 0 .078-.007.113-.021.034-.014.065-.034.09-.059.113-.105.113-.273 0-.378-.025-.025-.056-.045-.09-.059-.037-.007-.076-.007-.113 0-.037-.006-.076-.006-.113 0-.082.037-.14.106-.158.188-.017.082.007.166.067.229.026.024.057.044.091.058.036.02.076.033.118.037l-.005.005zm0-.417c.037-.002.074.009.104.03.024.018.038.046.036.074.002.025-.008.05-.027.067-.022.02-.05.03-.081.033l.113.121h-.09l-.105-.12h-.031v.12h-.073v-.32l.154-.005zm-.086.059v.083h.086c.015.004.03.004.045 0 .006-.01.006-.023 0-.033.007-.01.007-.023 0-.034-.014-.004-.03-.004-.045 0l-.086-.016zm-4.398-4.163c-.256-.004-.509.043-.743.137-.21.087-.397.213-.552.37-.153.162-.271.348-.348.55-.164.434-.164.907 0 1.34.077.203.195.39.348.55.154.158.342.284.552.37.47.18.997.18 1.467 0 .21-.084.4-.207.556-.362.174-.165.308-.362.394-.578.171-.444.171-.93 0-1.374-.08-.202-.204-.387-.362-.545-.157-.154-.346-.278-.557-.362-.23-.086-.48-.126-.728-.117l-.027.021z" transform="translate(-1175 -3452) translate(0 3029) translate(0 405) translate(1007 15) translate(168 3.714)"/>
                        </g>
                    </g>
                </g>
            </g>
        </g>
    </g>
</svg>
