<svg xmlns="http://www.w3.org/2000/svg" width="56" height="26" viewBox="0 0 56 26">
    <g fill="none" fill-rule="evenodd">
        <g fill="#FFF">
            <g>
                <g>
                    <g>
                        <path d="M19.187 6.71h26.51c2.663.004 4.878.793 6.75 2.411 1.84 1.6 2.74 3.506 2.769 5.832l.38-.003-.38-.003c-.028 2.278-.927 4.162-2.77 5.788v-.002c-1.872 1.62-4.089 2.43-6.749 2.434h-26.51c-.21 0-.38.16-.38.356 0 .197.17.356.38.356h26.51c2.828.003 5.267-.886 7.265-2.622l.002-.002c1.978-1.73 2.99-3.845 3.012-6.302v-.006c-.021-2.5-1.032-4.64-3.014-6.35-2-1.737-4.44-2.602-7.265-2.599h-26.51c-.21 0-.38.16-.38.356 0 .197.17.356.38.356z" transform="translate(-1007 -3449) translate(0 3029) translate(0 405) translate(1007 15)"/>
                        <path d="M17.117 6.515c1.52.828 2.72 1.954 3.602 3.356.882 1.425 1.323 3.01 1.348 4.734-.025 1.747-.466 3.333-1.348 4.735-.882 1.402-2.083 2.528-3.602 3.379-1.495.827-3.16 1.24-5.047 1.264-1.838-.023-3.528-.437-5.023-1.264-1.52-.85-2.72-1.977-3.577-3.379-.907-1.402-1.348-2.965-1.372-4.735.024-1.723.465-3.31 1.372-4.734.857-1.402 2.058-2.528 3.577-3.356 1.495-.827 3.185-1.264 5.023-1.287 1.862.023 3.552.46 5.047 1.287M12.07 3.321c-2.23.023-4.263.528-6.077 1.54-1.788 1.01-3.21 2.367-4.312 4.044C.603 10.606.064 12.514.04 14.605c.024 2.092.563 4 1.641 5.7 1.103 1.701 2.524 3.057 4.312 4.091 1.814.989 3.847 1.494 6.077 1.54 2.254-.022 4.288-.528 6.1-1.54 1.814-1.034 3.26-2.39 4.337-4.09 1.054-1.701 1.617-3.609 1.642-5.7-.025-2.092-.563-4-1.642-5.7-1.078-1.678-2.523-3.034-4.336-4.046-1.813-1.01-3.847-1.516-6.101-1.54M27.187 11.342L28.02 11.342 28.902 13.617 29.809 11.342 30.618 11.342 29.246 14.583 28.584 14.583 27.187 11.342M36.767 14.56h.76V12.1h-.76v2.46zm-.024-2.736h.784v-.62h-.784v.62zm-2.352.276h.735v.483c.073-.16.196-.299.318-.39.123-.116.294-.162.515-.139v.736h-.025c-.27 0-.465.069-.588.207-.147.138-.22.368-.22.666v.896h-.735V12.1zm-1.593 1.035c-.024-.162-.073-.276-.172-.391-.097-.092-.22-.138-.367-.138-.171 0-.294.046-.392.138-.098.115-.172.23-.196.39h1.127zm-.49 1.494c-.171 0-.368-.046-.539-.115-.171-.046-.318-.138-.441-.253-.122-.115-.196-.23-.27-.391-.073-.16-.122-.344-.122-.529 0-.183.024-.344.098-.505.073-.162.147-.299.27-.414.122-.115.244-.207.416-.276.172-.069.343-.092.54-.092.22 0 .391.046.563.115.171.069.294.161.392.299.098.115.17.253.245.414.049.16.074.344.074.505l-.025.092v.092h-1.814c.025.161.098.276.221.368.123.069.245.115.416.115.123 0 .221-.023.343-.07.074-.022.172-.091.294-.183l.417.345c-.122.16-.27.276-.441.344-.171.093-.392.139-.637.139zM39.83 14.605c-.27 0-.515-.046-.784-.137-.245-.07-.465-.207-.686-.391l.465-.483c.147.115.294.207.466.276.171.07.343.115.54.115.17 0 .293-.023.367-.092.073-.046.122-.115.122-.207v-.138l-.122-.092-.196-.091-.368-.116-.466-.114-.367-.184-.22-.277c-.05-.114-.074-.229-.074-.39v-.023l.074-.39c.073-.115.147-.23.269-.3.098-.091.22-.16.368-.206.147-.046.318-.07.49-.07.245 0 .465.047.686.116.22.069.416.16.588.299l-.392.528-.466-.23c-.147-.069-.294-.092-.44-.092-.148 0-.246.023-.32.093-.073.045-.122.114-.122.183v.023l.05.138.097.092.245.092.368.092.465.16c.123.047.245.116.343.184l.196.253c.05.115.074.23.074.368v.023c0 .16-.025.299-.098.414-.05.115-.123.23-.245.322-.123.069-.245.137-.417.183-.147.047-.318.07-.49.07M42.035 14.56h.76V12.1h-.76v2.46zm-.025-2.736h.784v-.62h-.784v.62zM47.523 12.1h.736v.345l.146-.138.172-.138.196-.092.245-.023c.294 0 .515.092.662.253.171.16.245.367.245.666v1.586h-.76v-1.378c0-.161-.024-.276-.098-.368-.074-.069-.196-.115-.343-.115-.147 0-.27.046-.343.115-.074.092-.122.207-.122.368v1.378h-.736V12.1zm-2.352 1.678l.27-.046c.073-.023.123-.046.196-.115.049-.046.098-.115.122-.183.025-.07.05-.139.05-.23l-.05-.23c-.024-.069-.073-.138-.122-.184l-.196-.116-.27-.045-.245.045-.196.116c-.073.046-.122.115-.146.183l-.05.23c0 .184.074.323.196.414.123.115.27.16.441.16zm-.073 1.517l-.613-.07c-.22-.022-.392-.091-.563-.183l.27-.528.416.183.465.046c.245 0 .441-.046.564-.16.122-.115.172-.276.172-.506v-.115c-.099.115-.221.23-.344.299-.122.069-.294.092-.514.092-.147 0-.294-.023-.441-.07-.123-.045-.245-.114-.368-.229-.098-.092-.171-.207-.245-.345-.073-.16-.098-.322-.098-.506 0-.183.025-.344.098-.482.074-.161.147-.276.245-.368.123-.115.245-.184.392-.23l.417-.069c.22 0 .392.046.514.115.123.069.245.138.344.253V12.1h.735v1.908c0 .436-.099.758-.319.965-.123.115-.294.207-.466.253l-.661.07zM29.098 18.627c-.269 0-.514-.045-.784-.137-.245-.07-.465-.207-.686-.391l.466-.483c.147.115.294.207.465.276.172.07.343.115.54.115.17 0 .293-.023.367-.092.073-.046.122-.115.122-.207v-.138l-.122-.092-.196-.091-.368-.116-.465-.114-.368-.184-.22-.276c-.05-.115-.074-.23-.074-.39v-.024l.074-.39c.073-.115.147-.23.27-.3.097-.091.22-.16.367-.206.147-.046.318-.069.49-.069.245 0 .465.046.686.115.22.069.417.16.588.299l-.392.528-.466-.23c-.146-.069-.294-.091-.44-.091-.148 0-.246.022-.319.092-.074.045-.123.114-.123.183v.024l.05.137.097.092.245.092.368.092.465.16c.123.047.245.116.344.185l.196.253c.048.114.073.23.073.367v.023c0 .161-.025.299-.098.414-.05.115-.123.23-.245.322-.122.069-.245.138-.417.183-.147.047-.318.07-.49.07M36.032 18.65c-.196 0-.367-.045-.539-.114-.171-.07-.318-.161-.44-.276-.123-.115-.197-.23-.27-.39-.074-.162-.123-.346-.123-.507 0-.183.05-.344.123-.505.073-.161.147-.299.27-.414.122-.115.269-.206.44-.276.172-.068.343-.092.564-.092.245 0 .44.046.612.115.172.07.294.161.417.299l-.441.46c-.074-.092-.172-.161-.27-.207-.073-.046-.196-.069-.343-.069l-.245.046-.196.16-.147.208-.049.252v.023c0 .093.025.185.049.253.025.092.074.161.147.23.05.07.123.115.196.138.074.023.172.046.294.046.123 0 .22-.023.319-.069l.27-.184.44.414c-.122.115-.27.23-.44.322-.172.092-.368.138-.638.138zm-2.94-1.493c-.024-.161-.073-.276-.171-.391-.098-.092-.221-.138-.368-.138-.171 0-.294.046-.392.138-.098.115-.171.23-.196.39h1.127zm-.49 1.494c-.171 0-.367-.046-.54-.115-.17-.046-.318-.138-.44-.253-.123-.115-.196-.23-.27-.39-.073-.162-.122-.345-.122-.53 0-.183.025-.344.098-.505.074-.161.147-.299.27-.414.122-.115.245-.206.416-.276.172-.068.343-.092.539-.092.22 0 .392.046.564.115.171.07.294.161.392.299.098.115.171.253.245.414.049.16.073.345.073.505l-.024.092v.092H31.99c.024.161.098.276.22.368.122.069.245.115.416.115.123 0 .221-.023.343-.07.074-.022.172-.09.295-.183l.416.345c-.122.16-.27.276-.441.345-.171.092-.392.138-.637.138zM38.899 18.627c-.27 0-.49-.091-.661-.252-.148-.161-.221-.368-.221-.667v-1.586h.735v1.38c0 .16.05.275.122.367.074.069.197.115.344.115.122 0 .244-.046.343-.115.073-.092.122-.207.122-.368v-1.379h.735v2.46h-.735v-.345l-.147.138-.171.138-.197.092-.27.022M48.749 18.03c.098 0 .196-.023.27-.046l.195-.138c.049-.069.098-.138.123-.207l.048-.276v-.023l-.048-.276-.123-.206-.196-.138c-.073-.023-.171-.046-.27-.046l-.245.046-.196.138-.147.206c-.024.07-.049.162-.049.276v.023l.05.276c.024.07.073.138.146.207l.196.138.246.046zm-.172.597c-.172 0-.318-.022-.466-.091-.122-.046-.245-.115-.367-.23-.123-.115-.196-.253-.27-.414-.073-.16-.097-.322-.097-.529v-.023c0-.206.024-.39.097-.551.074-.16.147-.276.27-.39.098-.116.22-.185.367-.231.148-.068.294-.092.466-.092.196 0 .368.046.49.115.122.07.245.138.318.253v-1.218h.736v3.356h-.736v-.345c-.073.115-.196.207-.318.276-.122.069-.294.114-.49.114zm-2.793-1.47c-.025-.161-.074-.276-.171-.391-.099-.092-.221-.138-.368-.138-.172 0-.294.046-.392.138-.098.115-.172.23-.196.39h1.127zm-.49 1.494c-.172 0-.368-.046-.54-.115-.17-.046-.318-.138-.44-.253-.123-.115-.196-.23-.27-.39-.073-.162-.122-.345-.122-.53 0-.183.024-.344.098-.505.073-.161.147-.299.27-.414.122-.115.244-.206.416-.276.171-.068.343-.092.539-.092.22 0 .392.046.564.115.171.07.293.161.392.299.097.115.171.253.244.414.05.16.074.345.074.505l-.025.092v.092h-1.813c.025.161.098.276.22.368.123.069.246.115.417.115.123 0 .221-.023.343-.07.074-.022.172-.09.294-.183l.417.345c-.123.16-.27.276-.441.345-.172.092-.392.138-.637.138zm-3.7-2.529h.735v.483c.074-.16.196-.299.319-.39.122-.115.294-.162.514-.139v.736h-.024c-.27 0-.466.069-.588.207-.147.138-.22.368-.22.666v.897h-.736v-2.46zM51.395 5.688h1.053v.23h-.367v.942h-.294v-.942h-.392v-.23m2.621 0V6.86h-.294v-.758l-.318.505h-.049l-.318-.505v.758h-.295V5.688h.319l.343.506.318-.506h.294" transform="translate(-1007 -3449) translate(0 3029) translate(0 405) translate(1007 15)"/>
                        <path d="M18.318 10.032h.906v-.874h-.906v.874zm0-2.23h.906v-.85h-.906v.85zm1.42-3.102h.932v-.85h-.931v.85zm2.745-1.77h1.788v-.92h-1.788V4.7H20.67v.873h-1.544v.597h-.808v.782h-.98v1.356h-.931v.85h-.613v.874h-.686c-1.372 1.907-2.45 3.792-3.234 5.7-1.764-2.322-3.406-3.7-4.925-4.16-.417-.115-.71-.023-.882.321-.171.345-.025.781.49 1.288 1.543 1.585 2.965 3.838 4.263 6.71.196.46.637.713 1.348.782.661.046 1.102-.184 1.298-.69.956-2.367 2.059-4.39 3.333-6.113v-.988h.735v-.85h.784v-1.035h.906v-.965h.931v-.874h.736V8.101h.808V7.39h.784V5.573h.906V4.7h1.054v-.874H23.39V4.7h-.906v.873h-.907v.85h-.906v-.85h.906V2.93h.907z" transform="translate(-1007 -3449) translate(0 3029) translate(0 405) translate(1007 15)"/>
                        <path d="M22.483 3.826L23.389 3.826 23.389 2.93 22.483 2.93zM18.318 7.802L19.224 7.802 19.224 6.952 18.318 6.952zM25.301 2.93L26.281 2.93 26.281 2.01 25.301 2.01zM24.345 2.01L25.325 2.01 25.325 1.091 24.345 1.091zM25.301 1.091L26.281 1.091 26.281.172 25.301.172z" transform="translate(-1007 -3449) translate(0 3029) translate(0 405) translate(1007 15)"/>
                    </g>
                </g>
            </g>
        </g>
    </g>
</svg>
