<svg width="64" height="8" viewBox="0 0 64 8" xmlns="http://www.w3.org/2000/svg">
    <path d="M60.094 4.548 63.234 0h-2.01l-2.072 3.068L57.08 0h-2.073l3.14 4.548V7.89h1.947V4.548zM49.168 1.425h2.7V0H44.52v1.425h2.7v6.41h1.947v.055-6.465zm-8.54 3.452V0H38.68v4.822c0 1.15-.502 1.753-1.633 1.753-1.13 0-1.695-.657-1.695-1.753V0h-2.01v4.877c0 1.918 1.13 3.123 3.643 3.123 2.511 0 3.642-1.205 3.642-3.123zm-16.83 1.26h3.078l.69 1.753h2.01L26.373 0H24.49l-3.203 7.89h1.821l.69-1.753zm2.638-1.26h-2.135l1.068-2.685 1.067 2.685zm-8.603 1.589h-4.395V4.493h3.014v-1.37h-3.014V1.425h4.144V0h-6.154v7.89h6.405V6.466zM3.453 4.493c1.068 0 1.696.329 1.696 1.041 0 .713-.502 1.041-1.57 1.041H2.01V4.493h-.062 1.507zm0-3.178c1.068 0 1.508.329 1.508.932 0 .602-.503.931-1.507.931H2.009V1.315h-.062 1.507zM7.034 5.7c0-1.26-.88-1.754-1.947-1.918 1.023-.12 1.764-.91 1.696-1.808C6.782.383 5.212 0 3.579 0H0v7.89h3.768c1.695 0 3.265-.602 3.265-2.191z" fill="#221D1D" fill-rule="evenodd"/>
</svg>
