<svg xmlns="http://www.w3.org/2000/svg" width="50" height="26" viewBox="0 0 242.54 33.23"><title>Asset 2ldpi</title><g id="Layer_2" data-name="Layer 2"><g id="VS_BTY_logo" data-name="VS BTY logo"><path d="M0,32.7V.13H13c6,0,11.62,1.46,11.62,8.06,0,4.62-2.91,6.82-6.21,7.48v.09c4,.7,7.09,2.77,7.09,8,0,6.56-5.77,9-11.84,9ZM7,13.56h5.28c3.74,0,5.46-1.41,5.46-3.92s-1.54-4-5.37-4H7ZM7,27.25h5.77c4,0,5.72-1.59,5.72-4.36s-2.07-4.27-6-4.27H7ZM44.58,32.7V.13H66.77v6h-15v7H62.63v5.67H51.76v8.1h15.8V32.7ZM83,32.7,94.55,0h6.83l11.53,32.7h-7.26l-2.42-7.26H92.13L89.62,32.7ZM93.89,20.25h7.66L97.81,9.16h-.09Zm34.82,0V.13h7.17V20.07c0,4.71,1.8,7.35,6.07,7.35s6-2.59,6-7.35V.13h7V20.2c0,8-4,13-13.11,13S128.71,28.21,128.71,20.25ZM181.54,32.7V6.12h-9.68v-6h26.58v6h-9.72V32.7Zm42.6,0V18.88L212.92.13h7.39l7.44,12.68L235.23.13h7.31L231.27,18.88V32.7Z"/></g></g></svg>
