<?xml version="1.0" encoding="UTF-8"?>
<svg width="319px" height="220px" viewBox="0 0 46 31" version="1.1" xmlns="http://www.w3.org/2000/svg" xmlns:xlink="http://www.w3.org/1999/xlink">
  <path fill="#000" d="M6.4.5C6.2.2 6.1.1 5.8.1V0H7v.1c-.2 0-.3 0-.3.1s.1.2 1.2 3.2L9 .6c.1-.1.1-.3.1-.4 0-.1-.2-.1-.3-.1V0h1v.1c-.3 0-.4.1-.5.4L7.9 3.9c0 .1 0 .1-.1.1 0 0-.1 0-.1-.1L6.4.5zM11.6 4h-1.2v-.1c.3 0 .3-.2.3-.6V1.1c0-.4-.1-.5-.4-.5V.5h1.1v.1c-.3 0-.3.1-.3.6v2c.1.6.1.7.5.8zm3.7-.7c-.2.4-.6.7-1.2.7-1.1 0-1.8-.7-1.8-1.8 0-1 .7-1.8 1.8-1.8.3 0 .7.1 1 .2.1 0 .1 0 .1.1v.7h-.1c0-.2 0-.4-.2-.6-.2-.2-.5-.3-.9-.3-.9 0-1.3.7-1.3 1.5s.4 1.7 1.4 1.7c.5 0 .9-.2 1.1-.5 0-.1.1-.1.1-.1v.2zm3.6-2.2c-.1-.3-.1-.4-.6-.4h-.7v2.6c0 .5.1.6.4.6V4h-1v-.1c.3 0 .3-.1.3-.5V.7h-.6c-.5 0-.6 0-.6.4H16V.5h2.9v.6zM21.3 4c-1.2 0-1.8-1-1.8-1.8 0-.7.5-1.8 1.8-1.8 1 0 1.8.6 1.8 1.7S22.4 4 21.3 4zm0-3.4c-.8 0-1.3.5-1.3 1.5 0 1.1.6 1.7 1.5 1.7.4 0 1.3-.2 1.3-1.6-.2-1-.8-1.6-1.5-1.6zM26.9 4h-.4c-.5 0-.7-.3-.9-.7-.2-.3-.4-.8-.7-.9h-.2v.9c0 .5.1.6.5.6V4H24v-.1c.3 0 .3 0 .3-.6V.9c0-.2-.1-.3-.4-.3V.5h1.2c.6 0 1.1.3 1.1.9 0 .5-.4.8-.8 1 .3.1.6.9.9 1.2.3.3.4.3.6.4zm-1.8-1.7c.4 0 .7-.3.7-.8s-.3-.8-.8-.8c-.3 0-.3 0-.3.1v1.4s0 .1.1.1c-.1-.1.2 0 .3 0zM28.8 4h-1.2v-.1c.4 0 .4-.2.4-.6V1.1c0-.4-.1-.5-.4-.5V.5h1.1v.1c-.3 0-.3.1-.3.6v2c0 .6 0 .7.4.8zm3-.1c.2 0 .2 0 .2-.1v-.2l-.4-1h-1l-.2.7c0 .1-.1.3-.1.4 0 .1.1.1.3.1V4h-1v-.1c.3 0 .4-.1.5-.4L31.2.6l.1-.2.1.2 1.1 2.8c.1.3.2.4.5.4v.1h-1.2zm-.2-1.5l-.4-1.3V1v.1l-.4 1.2.8.1zM33 1c.1 0 .2-.2.2-.3V.5c0-.1-.1-.1-.1-.1s-.1 0-.1-.1V.2c0-.1.1-.1.2-.1.2 0 .2.2.2.4-.1.2-.1.5-.4.5zm2.1 3c-.3 0-.5 0-.8-.2v-.6h.1c0 .5.4.7.8.7.5 0 .7-.3.7-.6 0-.4-.2-.6-.7-.9-.7-.4-.8-.7-.8-1.1 0-.5.4-.9 1-.9.3 0 .5.1.8.1V1h-.1c0-.1 0-.2-.1-.3 0 0-.2-.2-.6-.2-.4 0-.6.2-.6.6 0 .3.2.5.8.9.5.4.8.7.8 1.1-.3.5-.7.9-1.3.9zM12 8.7V8h.1c0 .6.4.8.9.8s.8-.4.8-.7c0-.4-.3-.7-.8-1-.8-.5-.9-.9-.9-1.2 0-.6.4-1 1.1-1 .4 0 .8.2.8.2v.6c0-.1 0-.2-.1-.3 0-.1-.2-.3-.7-.3-.4 0-.7.3-.7.7 0 .4.3.6.9 1 .6.4.9.8.9 1.2 0 1-1 1.1-1.3 1.1-.6-.1-1-.4-1-.4zm5.4-.4v.6h-2.3v-.1c.2 0 .3-.1.3-.5V5.8c0-.2-.1-.3-.4-.3v-.1h2.3V6h-.1c0-.4-.2-.4-.7-.4h-.7-.1v1.2h.8c.2 0 .2-.1.2-.2h.3v.7h-.1c0-.2 0-.3-.3-.3h-.8v1.3c0 .2 0 .2.6.2.2 0 .6 0 .7-.1.2.2.2.1.3-.1zm3.7 0c-.1.4-.5.7-1.2.7-1.1 0-1.8-.7-1.8-1.8 0-1 .7-1.8 1.8-1.8.3 0 .7.1 1 .2.1 0 .1 0 .1.1v.7c0-.2 0-.4-.2-.6-.2-.2-.5-.3-.9-.3-.9 0-1.3.7-1.3 1.5S19 8.7 20 8.7c.5 0 .9-.2 1.1-.5 0-.1.1-.1.1-.1 0 .1 0 .1-.1.2zm3.9.6h-.4c-.5 0-.7-.3-.9-.7-.2-.3-.4-.8-.8-.8h-.2v.9c0 .5.1.6.5.6V9H22v-.2c.3 0 .3 0 .3-.6V5.8c0-.2-.1-.3-.4-.3v-.1h1.2c.6 0 1.1.3 1.1.9 0 .5-.4.8-.8 1 .3.1.6.9.9 1.2.3.3.4.3.7.4zm-1.9-1.7c.4 0 .7-.3.7-.8s-.3-.8-.8-.8c-.3 0-.3 0-.3.1v1.4s0 .1.1.1h.3zm4.7 1.1v.6h-2.3v-.1c.2 0 .3-.1.3-.5V5.8c0-.2-.1-.3-.4-.3v-.1h2.3V6h-.1c0-.4-.2-.4-.7-.4h-.7-.1v1.2h.8c.2 0 .2-.1.2-.2h.1v.7h-.1c0-.2 0-.3-.3-.3H26v1.3c0 .2 0 .2.6.2.2 0 .6 0 .7-.1.4.2.4.1.5-.1zM31.3 6c-.1-.3-.1-.4-.6-.4H30v2.6c0 .5.1.6.4.6v.1h-1.2v-.1c.3 0 .3-.1.3-.5V5.7h-.6c-.5 0-.6 0-.6.4h-.1v-.6h2.9l.2.5z">
  </path>
  <path fill="#EB008B" d="M3.7 21.7zm-.4.2zm.4-.2zm0-.1zm0 0s.1 0 0 0zm1.4-1.2zm-3 7.9zm4.7-1c.1-.1 0 0 0 0zm1.1-1.6zm-4.3 4.5h-.2l-.1-.1V30h-.1-.1v.1h.1v.1h-.1l.1.1h.1l.3-.1c-.1 0 0 0 0 0zm-3-.2c0 .1 0 .2.1.1 0 0 0-.1-.1-.1zm1.6-.7zm-.9-4.1c-.1.1-.1.1 0 .2v-.2zm2.1 5.1zm-.2-.1zm0 0zm.5-8.6zM6.9 27c-.1.1 0 .1 0 0zm-1.5 1.8h-.2l-.1.1-.2.1v.2s.1 0 .2-.2c.2-.1.2-.1.3-.2 0 .1.1.1 0 0 .1 0 0 0 0 0zm1.1-1.5h.1c.1 0 0-.1-.1 0zm-1 1.6c.1 0 .1-.1.2-.1 0-.1-.2-.1-.2.1zm.2 0c0-.1 0-.1 0 0zm2.6-4.3l-.1.1.1-.1c0 .1 0 0 0 0zm-1.2 2.2c-.1.1 0 .1 0 0zm-6-1c0 .1 0 .1 0 0zm6.7-.1c0-.1 0 0 0 0zm2.5-9.3c0 .1-.1.2-.1.2l-.1.1s-.1.1-.1.2h-.1v.2c-.1 0-.1.1-.1.1s0 .1-.1.1l-.1.1-.1.1v.1h-.1c0 .1 0 .1-.1.2 0 0-.1.1-.1.2v-.1.1c-.2.1-.3.2-.3.3l-.3.3s0 .1-.1.1v.1l-.3.2c0 .1-.2.1-.2.2l-.1.1-.3.3-.4.3h.1v0c.4.1.7.2 1 .4h.1c.3.3.4.5.6.6 0 0-.1 0 0 0v.1s0 .1 0 0c.1.1.1.2.1.3 0 .1.1.2.1.3v.2l.1.4v.1c0 .1 0 .2.1.2-.1 0-.1.1-.1.1h.1c0 .1 0 .1-.1.2 0 0-.1.1 0 .1v.1-.1c.2.2.1.2 0 .3-.1.1-.1.2-.1.3V23.8c0 .1-.1.4-.1.5 0 .1 0 .1-.1.1 0 .1 0 .2-.1.3 0 .2-.1.4-.2.6l-.1.2v.2l-.1.1c0 .2-.2.4-.3.5 0 .1-.1.1-.1.2-.1.1-.1.2-.2.4.2 0 .1.1 0 .2v.2c0 .1-.1.2-.2.3 0 .1-.1.1-.2.3 0 0-.2.1-.2.2l-.3.3c-.1 0-.1 0-.1.1l-.2.3c-.3.3-.6.7-.9.9l-.5.5c-.2.1-.4.3-.4.3-.1 0-.1.1-.2.1 0 0-.1.1-.2.1-.1.1-.2.1-.3.2-.1 0-.2.1-.3.1h-.1-.1c-.1.1-.2 0-.3 0l-.1-.1v-.1.1l-.1-.1.1-.1c-.3-.1-.3-.2-.3-.3h-.1v-.2h-.1-.1s-.1 0-.2-.1l-.2-.2c-.1-.1-.2-.3-.2-.5h.1v-.1s.1 0 .1-.1l-.1.1v-.1c-.2-.2-.1-.4-.1-.5v-.1H2v-.2c0-.1 0-.1.1-.1l.1-.1v.2h.1v-.1c0-.1 0-.1.1-.2 0 0 0-.1.1 0h-.1V28c-.1-.1-.1-.1 0-.2h-.1l-.1-.1.1-.1h.1v-.1s.1-.2.2-.2v-.1l-.1-.1c-.1-.1 0-.1.1-.2v-.1-.1c0-.1.1-.2.2-.3 0 0 0-.1.1-.1 0 0 .1-.1.1-.2.1-.1.2-.2.3-.2h.2c.1 0 .2 0 .2-.1l.2-.2.1-.1c0 .1-.1.3-.2.4 0 0-.1.1-.1.2s-.1.3-.1.5l.4-.1v.4l-.1.1c0 .1-.1.1 0 .1 0 .1 0 .2-.1.2 0 .1-.1.3-.1.3-.1.3-.2.5-.3.7v.1s0 .1-.1.1c0-.2-.1.2-.1.4s-.1.4 0 .5c.1 0 .1.1 0 .1 0 0 0 .1.1.1s.1 0 .1.1h.2s0 .1-.1.1l.1-.1.1.1h-.1-.1s0 .1-.1.1h.5l.3-.1.3-.1-.1.1h.4c0-.1.1-.1.1-.1.1-.1.2-.1.3-.2.1-.1.3-.2.3-.3 0 0 .1 0 .1-.1.1 0 .2-.1.2-.1v-.1c-.1.1-.3.2-.4.3-.1.1-.1 0-.1 0v-.1-.1h.1v-.1l.1-.1h-.1l.2-.2c.1 0 .1 0 .1-.1l.1-.1c0-.1 0-.1.1-.1 0 .1-.2.1-.2 0h.1l.1-.1.1-.1V28c0-.1 0-.1.1-.1v-.1c0-.1.2-.2.2-.1h.1c.1 0 .2-.1.2-.1h-.1v-.1s0-.1.1-.1v-.1c.1 0 .1 0 .1-.1 0 0 0-.1.1-.2h-.2c0-.1.1-.1.2-.2l.1-.1h-.1l.1-.2.1-.1h.1v-.1l.1-.1.1-.1s.1-.1.1-.2c0 0-.1 0-.1.1-.1 0-.1 0-.1-.1v-.1h.1s0-.1.1-.1v.1s0-.1.1-.1c.5 0 .5-.1.5-.1h-.1v-.1h-.2c.1-.1.1-.2.2-.2v-.1l-.1.1v-.2H8V25s-.1 0-.1.1v-.2H8v.1l.1-.1v-.1h-.2c0-.1 0-.1.1-.2.1.1.1 0 .1-.1h.1s0-.1.1-.1h-.1c.1-.1.1-.1.1-.2V24h.1v-.1s0-.1.1-.1c0-.1 0-.2.1-.3l.1-.1c0-.1 0-.2.1-.3v-.3c0-.2.1-.5-.1-.7V22c-.1-.3-.4-.7-.7-.7-.3 0-.6.1-.9.2H7c-.1 0-.3.1-.4.2-.1.1-.2.1-.4.2-.1 0-.2.1-.3.2l-.1.1c-.1.1-.3.2-.5.2v.1l-.2.1c-.1.1-.3.2-.5.4h-.2c-.1 0-.2.1-.2.2 0 0-.1 0-.1.1-.2 0-.3.1-.4.2l-.2.1c-.2.1-.5.3-.9.3v.3c0 .2 0 .3-.1.4v.2c0 .1 0 .3-.1.4 0 .1.1.2 0 .2 0 .1 0 .2-.1.3v.4c0 .1 0 .1-.1.1v.4c0 .2 0 .3-.1.4 0 .1 0 .3-.1.5v1.1s0-.1-.1-.1v.1l-.1.2v.4c-.1 0-.1-.1-.1-.1h-.1l-.1.1c-.1.1-.1.2-.1.3 0 0 0 .1-.1.1 0 .1 0 .2-.1.2v.2s-.1.2-.2.3l-.2.3-.1-.2v-.2-.1-.1l-.1-.1c.1-.1 0-.2 0-.3v-.2c-.1-.1 0-.1 0-.2v-.1-.2-.1-.1c0-.4 0-.7.1-1.1v-.1-.1-.1-.1-.1-.2-.2l.1-.1v-.3-.2l.1-.1s.1-.1 0-.1H.8s0-.1.1-.2v-.1-.1-.1c.1-.1.1-.1.1-.2H.9v-.1H1v-.3s.1 0 .1-.1H1v-.4-.2-.1H.9v-.1c0-.1 0-.1.1-.1H.9l.1-.1s0-.1.1-.1v-.2-.1H1v-.1l.1-.1V23v-.1l.1-.1s0-.1-.1 0c0-.1 0-.2.1-.3v-.1s0-.1.1-.1v-.1h.1s.1-.1.1-.2v-.2-.2h-.1l.1-.2c0-.1 0-.1.1-.3 0 0 0-.1 0 0V21v-.1c.1-.3.1-.7.2-1h.1v-.1c-.1-.1-.1-.1 0-.2v-.1-.1L2 19c.2-.8.3-1.6.5-2.5l.1-.3c.1-.3.2-.7.3-1 .1-.2.1-.2.1-.3l.1-.3c0-.2.1-.5.2-.7.1-.2.1-.4.1-.6v-.2c.1 0 .1-.1.1-.2l-.1-.1h-.2v-.1c-.1-.1-.1-.3 0-.4v-.1c.1-.3.4-.5.6-.8l.1-.2c.1-.2.1-.3.1-.5l.1-.2c.1-.1.1-.3.1-.4.1-.2.3-.3.5-.4.1-.1.2-.1.4-.2h.4l.1.1H6l.5-.3c.5.1.8-.1 1-.2h.1V9c.1 0 .2 0 .3-.1h.2c.5-.2 1-.3 1.4-.4v-.1h.2s0 .1-.1.1h.1c.1 0 .1-.1.2 0 .7 0 1.2.3 1.6.7.1.1.1.2.1.2l.4.4c.2.4.4.8.3 1.4V12.5c0 .1-.1.1 0 .2v.1c0 .1-.1.3-.1.4 0 .1 0 .1-.1.2 0 .1 0 .1-.1.2 0 .1-.1.3-.1.4s-.1.3-.1.3l-.1.2c0 .1-.1.2-.2.3l-.1.4c-.1 0-.1.1-.1.1l-.1.1c0 .1 0 .1-.1.1v.1c-.1.1-.2.2-.3.4-.2.1-.3.3-.5.4zM1.1 26.9c.1-.1.1-.1 0 0zm.2-.7c-.1.1-.1.1 0 0zm0-.7zm.2-.1c0-.1 0 0 0 0zm.1-1.2h-.1c.1 0 0 .3 0 .3h.1v-.1c-.1 0 0-.1 0-.2zm.1-.5zm0-.2zm0-.8c0 .1 0 0 0 0zm.4-2.4c.1-.1.1-.1 0 0zM2 27.5zm.1-.7c0 .1 0 0 0 0zm.1-.5l-.1.2h.1v-.1-.1zm.2-1.5c-.1 0-.1 0 0 0-.1.1 0 .1 0 0zm.1-.7c-.1 0 0 0 0 0zm.4-2.5zm-.4 5.6c0 .1 0 0 0 0 .1 0 .1 0 0 0zm0 .8zm.1-.5c-.1 0-.1 0 0 0-.1 0 0 0 0 0-.1.1-.1.1 0 .1v-.1zm-.4 1s0 .1 0 0c.1.2.1.2 0 .3 0-.1.1-.1 0-.1v-.2c.1 0 .1 0 .1-.1v-.1c0 .1 0 .2-.1.2zm.2.4c-.1 0-.1 0 0 0l-.1-.1V29.1c0-.1 0-.1.1-.2zm0 .3zm0-.1c0 .1 0 0 0 0zm0-.5c0 .1 0 .1 0 0zm.1-.3h-.1c0 .2.1.1.1 0zm.1-.2l-.1.1s0 .1-.1.1l.1.1c0-.2 0-.2.1-.3zm0-.4s-.1 0 0 0zm.1-.4c.1 0 .1 0 0 0zm.1 2.6c-.1.1-.1.1 0 0 0 .1 0 .1 0 0zm1.4-.1zm-.1.2c.1 0 .1 0 .1-.1.1-.1.2-.1.3-.1v-.1c-.1.1-.3.1-.4.3zM4 30c.1 0 0-.1 0 0zm-.3-.1c.1.1.1 0 .2 0H4v-.1h-.1c-.1.1-.1.1-.2.1.1 0 .1 0 0 0zm.1.1c-.1 0-.1 0 0 0v0zm-.2.1c.1 0 .1 0 0 0zm-.2-.2h.2c.1 0 .1-.1.1 0h-.3zm.9.3c-.1 0-.2 0-.2.1-.1-.1-.1 0-.2 0h-.2-.1v-.1-.1l-.1-.1h-.2-.2.1V30.2h.2v.1h.1v.2h.1l-.1-.1v-.1c0 .1 0 .1.1.1v-.1h.6s.1 0 .1-.1zm.2-.2c-.1 0-.2 0-.3.1h.2c0-.1.1-.1.1-.1zm.1-.2h-.2v.2c0-.1.1-.1.2-.2zm.4-.4c0 .1 0 .1 0 0zm-.2.5c0-.1 0-.1 0 0zm.1-.2zm0-.2zm.2-.1zm.2-.1h-.1v.1s.1 0 .1-.1zm.7-1.1zm.6-.7c-.1 0-.1 0 0 0h-.1c0 .1 0 0 .1 0zm.7-1.1c0 .1 0 .1 0 0-.1 0-.1.1-.1.1l.1-.1c0 .1 0 .1 0 0 0 .1 0 .1 0 0 0 .1 0 .1 0 0 0 .1 0 .1 0 0zm1-1.6c-.1 0-.1.1-.1.1l.1-.1zm1-1.7s-.1 0 0 0zm-.5-1.6c0-.1.1-.1 0 0v-.2h-.1v.1c.1 0 .1.1.1.1zm0-.3v-.1.1c0-.1 0-.1 0 0zm.1.5v-.1h-.1l.1.1zm-.2-.8l.2.2H9l-.1-.1-.2-.1zm-.1-.1c0-.1 0 0 0 0 .1-.1.1-.1 0 0zm0 .4c.1-.1 0 0 0 0l.1.1c0-.1 0-.1-.1-.1.1 0 .1-.1 0 0zm-.1-.2s0-.1 0 0zm-.1-.1c0 .1 0 .1 0 0 0 .1 0 .1 0 0 .1 0 0-.1 0 0-.1 0-.1 0 0 0zm-.2-.1c.1 0 .1 0 0 0 .1 0 .1-.1 0 0zm2.3-4.7l-.1.1c0 .1.2 0 .1-.1zm-6.9 2.7c.1 0 .1 0 0 0zm-.1.4v-.1.1zm0 .6v.2c-.1-.1-.1-.2 0-.2v-.2-.2-.1.5zm-.2-.3c0-.1 0-.1 0 0-.1 0-.1.1 0 0zm-.2.4c.1 0 .1 0 0 0 .1 0 .1 0 0 0zm0 .3l.1-.1c-.1 0-.1 0-.1.1zm-.2 1.1c.1 0 .1 0 0 0v.1c.1-.1.1-.1 0-.1zm.1-.8s0-.1 0 0c0-.1.1-.1 0 0l.1-.1v-.1H3v.2c0-.1 0 0 0 0zm0 .3c.1-.1.1 0 0 0 .1-.1.1-.1 0 0 .1-.1.1-.1.1-.2 0 0 0-.1.1-.1h-.1v.1c-.1 0 0 0 0 0-.1.1-.1.1-.1.2zm.1 1.4s0-.1 0 0zm1-.8c-.1 0-.1 0 0 0h-.2l-.1.1h-.1v.1l-.1.1h.1l.1-.1-.1.1-.1.1-.1.1-.2.1h-.1l-.2.2h.1l.1-.1.2-.2c.1 0 .1-.1.1-.1h.1s.1-.1.2-.1l.3-.3zm-.9.7s-.1-.1 0 0zm.1-.2zm.2-.3zm.5-.3zm.3.2c0-.1-.1 0 0 0zm.1-.1zm.1-.3l-.1.1c-.1 0-.1.1-.1.1l-.1.1s.1 0 .1-.1c0 0 .1 0 .1-.1l.1-.1zm.7-.2c-.2 0-.3.1-.4.1 0 .1-.2.2-.2.2l.1.1c.1-.1.2-.3.5-.4zm-.6.1c0 .1.1 0 0 0zm.3-.3c0 .1 0 .1 0 0zm.1 0c0 .1 0 .1 0 0zm.2-.1c-.1 0-.1 0 0 0-.1.1-.2.1-.2.1l-.1.1-.2.1v.1s0-.1.1-.1l.1-.1.1-.1s.1 0 .2-.1zm-.1-.2c0 .1 0 .1 0 0 0 .1 0 .1 0 0zm.5.2l-.1.1.1-.1zm.2-.2h-.1-.1l-.1.1c-.1 0-.1.1-.1.1l.1-.1.1-.1h.2c0 .1 0 0 0 0zm-.4 0c-.1 0 0 0 0 0zm.7-.2c-.1 0-.2.1-.3.2h.1c0-.1.1-.1.2-.2zm0-.1H6h.1c0 .1 0 .1 0 0zm.3-.2h-.2v.1l-.1.1h.1V20l.2-.1zm.3-.2c-.1 0-.1 0 0 0h-.2v.1l.1-.1h.1zm.1-.2c0 .1 0 .1 0 0zm3.9-6.2c0-.1 0-.1.1-.2l.1-.3v-.1-.1c0-.1 0-.2.1-.2.1-.3.2-.7.2-1v-.7c0-.3-.1-.7-.4-.9H10.5c-.3 0-.7 0-1 .1h-.1l-.2.1c-.1.1-.3.1-.5.2l-.1.1c-.4.2-.8.4-1.1.7l-.3.2c-.1.2-.3.3-.5.4l-.3.3c-.2.1-.4.3-.5.4 0 0 0 .1-.1.1 0 .1-.1.2-.1.1-.1 0 0 0 0 0v.2h-.2-.1v.1c0 .1 0 .1-.1.2v.2s0 .1-.1.1c0 .1 0 .2-.1.2v.2l-.1.1v.2c0 .1-.1.1 0 .2-.1.1-.2.3-.2.5s-.1.4-.2.5c0 .2-.1.4-.2.6-.1.2-.1.4-.2.6v.1c0 .1 0 .1-.1.1 0 .1 0 .2-.1.3v.3s-.1.1-.1.2v.2c0 .2-.1.5-.2.7l-.1.6c0 .2-.1.2-.1.6-.1.1-.1.2-.1.3 0 .1 0 .3-.1.3v.2c0 .2 0 .4-.1.5 0 .1-.1.1-.1.1 0 .1 0 .2-.1.3h-.1v-.1-.1l.1-.1c0-.1.1-.2.1-.3v-.1l-.1.3c0 .1-.1.3-.1.3v.2c0 .1 0 .2-.1.4v.1l.1-.1.1-.1.1-.1h.1c0-.1 0-.1.1-.1.1-.1.3-.2.4-.3l.3-.2h.2l.1-.1.4-.4c.1 0 .2-.2.3-.3l.3-.3c.3-.3.6-.5.9-.8l.7-.7.1-.2.2-.2c.3-.2.3-.3.4-.3.1-.2.2-.2.3-.3.2-.1.3-.2.4-.4 0-.1.2-.2.3-.3.4-.3.5-.4.6-.6v-.1h.1c0-.1.1-.2.2-.3.1-.1.2-.3.3-.4.3-.6.6-1.3.9-1.9zM4.2 29.6c.1 0 .1 0 0 0l.1-.2-.1.2c0-.1 0-.1 0 0zm-1.5-2.9zm6-16.4h-.1v.1l.1-.1zm-4 19.1l.1-.1c-.2 0-.3.1-.4.2.2-.1.2-.1.3-.1zm.2-.1c-.1.1 0 .1 0 0zm1-.7zm-2.1 1s.1 0 .1-.1c0 .1-.1.1-.1.1zm2.1-1c-.1 0-.1 0-.1.1.1 0 .1 0 .1-.1-.1 0 0 0 0 0zm11.7-10.8c-.1 0-.1.1-.1.1v.1c0-.1.2-.2.1-.2zm-1.6.5c.1 0 .1 0 0 0 .1-.1.1 0 0 0zm1-1c-.1 0-.1 0 0 0-.1 0 0 0 0 0zm-2.3 2.3s0 .1 0 0zm1.8-1.7c0-.1.1-.1 0 0 0-.1 0 0 0 0zm.1-.1zm4.5-3.6zm2.2-2c-.1.5-.2.9-.3 1.3-.1.6-.2 1.1-.3 1.6 0 .1-.1.2 0 .3-.1.4-.2.9-.3 1.2 0 .4-.1.8-.2 1.2v.1c-.2.3-.2.7-.2.9 0 0 0 .1-.1.1 0 .5-.1.8 0 1.3v.4c0 .1.1-.1.1 0h-.1v.2c-.1 0-.1.1-.1.1-.1 0-.1.1-.1.1s-.1 0-.1.1l-.1-.1-.1.1c-.1 0-.1.1-.1.1 0 .1.1 0 0 .1-.3.2-.5-.2-.6-.5-.3-.9-.1-2.3.1-3.5-.1.2-.2.5-.3.6 0 .1 0 .2-.1.3-.1.3-.3.5-.5.8-.3.2-.5.4-.9.5-.4 0-.7-.1-.9-.3-.1-.1-.1-.2-.2-.3 0-.1-.1-.2 0-.3v-.1-.4c0-.4 0-.7.1-1.1-.1.1-.2.2-.2.3 0 .1-.1.1-.1.2-.1.1-.2.3-.3.4-.3.2-.4.5-.6.7 0 0-.1 0-.1.1s-.2.1-.2.3c-.2.1-.3.5-.5.6 0-.1 0-.1.1-.1-.1 0-.1.1-.1.1v.1c-.1.2-.3.3-.4.4v.1c-.1.1-.2.2-.3.4-.1 0-.2.2-.3.2-.2.2-.3.4-.5.5 0 .1-.1.1-.2.2-.2 0-.2.2-.4.3-.2 0-.3.2-.5.3-.1.1-.2.1-.3.2-.1-.1-.1.1-.2 0-.1.1-.3.1-.5.1s-.3-.1-.5 0c0-.1-.2 0-.2-.1-.2 0-.3-.1-.4-.3-.1.1-.2-.1-.2-.1-.1-.1-.2-.3-.3-.4v-.1c0-.1 0-.1-.1-.1 0-.1 0-.2-.1-.3v-.8-.1c0-.1.1-.4.1-.6h.1c0-.2.1-.4.1-.6.1-.1.1-.3.1-.4.1-.2.2-.5.3-.8l-.1-.1s0-.1.1-.1v-.1l.1-.1v-.1c.1-.1.2 0 .2-.2h.1c.1-.1.1-.2.1-.3h-.1c.2-.2.2-.5.4-.7 0-.1.1-.2.1-.3.1-.1.1-.3.2-.3v-.1c.2-.2.2-.4.4-.6v-.1h.1c.1-.2.2-.4.4-.6.1 0 .1-.1.1-.2.1 0 0-.1.1-.1v-.1c.1 0 .1-.2.2-.2.2-.2.4-.5.6-.7h.1c.1-.2.4-.3.6-.5h.1c0-.1.2-.1.2-.2.1 0 .1.1.2 0 .3.1.6.3.9.5 0 .1 0 .1.1.2 0 .2-.1.4-.2.6 0 .1 0 .1-.1.2 0 .1-.1.2 0 .2-.1.1-.1.3-.3.5v.1c-.1.1-.1.3-.3.4 0 .1-.1.1-.1.3-.1.1-.2.2-.2.3-.1 0-.2.1-.2.2-.1.1-.2.2-.2.3l-.1.1c-.1 0-.1.1-.1.2h-.1c0 .1-.1.2-.1.3-.2.1-.2.2-.3.3 0 .1-.1.1-.1.2-.1 0-.1.1-.2.2 0 0 0 .1.1 0 0 0-.1.1-.1 0 0 .1-.1.1-.1.2-.2 0-.1.2-.3.2 0 0 .1 0 0 .1 0 0-.1.1-.1 0-.1.2-.3.3-.5.4 0 .1 0 0-.1 0-.1.1-.2.2-.3.2 0 .1-.1.1-.1.1-.2.3-.4.7-.5 1-.1.1-.1.3-.1.4-.1.1-.1.3-.1.4 0 .3-.1.5 0 .8h.1c.1 0 .3-.1.4-.1.1 0 .2-.1.3-.2.3-.1.5-.4.8-.5V20c.1 0 .1-.1.2-.2h.1v-.1c.2-.1.3-.3.5-.4.1-.1.2-.3.3-.3 0 0 .1-.1.1-.2h.1c.2-.1.3-.3.5-.4v-.1h.1l.3-.3v-.1c.1 0 .1-.1.2-.2s.2-.2.2-.3c.1 0 .1 0 .1-.1h.1c.1 0 0-.2.1-.2 0-.3.3-.2.3-.5.1 0 .2-.1.1-.2h.1v-.1l.1-.1c-.1.2-.2.3-.3.4-.1 0-.1.1-.1.2-.1 0-.2.2-.2.2 0 .1-.1.1-.1.2 0-.1 0 0-.1 0 0 0 .1-.1 0-.1 0 0 0 .1-.1.1 0 .1-.1.1-.1.2h-.1v.1c-.1 0-.1.1-.2.1v.1c-.2.1-.3.2-.4.4V18c0-.1-.1 0 0 0l-.1.1s-.1.1 0 .1c0 0-.1 0 0 .1 0 0-.1 0-.1.1-.1-.1-.1.1-.1 0 0 .1 0 0-.1.1v.1h-.1v.2s0-.1 0 0v.1c.2-.1.2-.3.4-.4.2-.1.4-.3.5-.5l.2-.2c.1 0 .1-.1.1-.1.1-.1.1-.2.2-.2 0 .1-.1.1-.1.1.1-.1.3-.2.3-.4l.3-.3s0-.1.1-.1v.1c.1 0 .1-.1.2-.2-.1 0 0 0 0-.1v.1c.1-.1.2-.2.2-.3v0h.1c0-.1.1-.1.1-.2v-.1l-.3.3c.1-.1.2-.2.2-.3.1 0 .2-.2.2-.3 0-.1.1-.2.1-.2.2-.1.2-.4.4-.5V15c.1-.1.2-.1.2-.2.1 0 .2-.2.2-.3h.1c.1-.2.2-.3.3-.4h.1c0-.1 0-.1.1-.1l.3-.3c.1-.1.1-.2.1-.3.2-.3.4-.6.5-.8.2-.1.3-.3.4-.5.5-.4 1.3-.3 1.8-.3v-.2c0-.3.4-.1.6-.2.3 0 .6-.1.8.1v.7zm-7.6 6.2s.1 0 0 0c0-.1.1-.2 0-.1.1.1 0 .1 0 .1zm-.4-4s0-.1 0 0c-.1 0 0 0 0 0zm-2 1.7c.1 0 .2-.1.2-.2h.1l.6-.6h.1c.1-.2.3-.3.4-.5.1-.1.2-.2.2-.3h.1c0-.1.2-.2.2-.3.1-.1.2-.3.2-.4h-.1c0 .1-.1.1-.2.2v.1c-.1 0-.3.3-.4.4-.1.1-.2.1-.2.3-.1.1-.2.2-.2.3-.1.1-.2.2-.2.3-.1.1-.2.3-.3.4-.1 0-.1.2-.2.2v.1c-.3-.1-.3-.1-.3 0zm-1.5 6.4zm2.7-2.6c-.1-.1-.1 0-.1.1l-.1.1.1-.1.1-.1zm.8-.7zm.2-.2c-.1 0-.1.1-.1.1s.1 0 .1-.1zm.1-.2c.1 0 .1 0 0 0zm2-2.3c.1 0 .1-.1.1-.1-.1 0-.1.1-.1.1zm-1.3 1.7c.1 0 .1 0 .1-.1s.1-.1.1-.1c-.1.1-.1.2-.2.2zm0 .1s-.1 0 0 0zm-.2.2c0 .1 0 0 0 0 .1 0 .1 0 .2-.1-.1-.1-.2.1-.2.1zm-.2.2c.1 0 .1-.1.1-.1h-.1c.1 0 0 0 0 .1zm0-.2zm.1.9s-.1.1 0 0c-.1.1-.2.2-.1.2-.1-.1 0-.1.1-.2zm.4-.4zm.4-.6c-.1.1-.2.2-.2.3-.1.1-.1.1-.2.1v.1c-.1.1-.2.1-.2.2-.1.1-.1.1-.2.1v.1c.1-.1.2-.1.2-.3h-.1c.1 0 .1-.1.1-.2.1 0 .2-.1.2-.2.1 0 .1-.1.1-.1.3.1.3 0 .3-.1zm0-.7l-.1.1v.1c-.1 0-.1.1-.1.2.1-.2.2-.3.2-.4zm.6 0l-.1.1c-.1 0-.1.1-.1.1 0 .1-.1.2-.1.3-.1 0 0 .1-.1.1s-.1.1-.1.2c0-.1.1-.1.1-.2 0 0 0-.1.1-.1s0-.1.1-.1c0-.1.2-.2.2-.3h.1c-.2 0-.1 0-.1-.1zm.1-1.1s.1-.1 0-.1c0 0-.1.1 0 .1zm.2.7c-.1.1-.2.2-.2.3.1-.1.1-.2.2-.3zm.2-.2c-.1.1 0-.1 0 0zm.5-1.6s-.1 0 0 0zm.2-.3l-.1.1-.1.1s0-.1.1-.1l.1-.1zm2.9-1.9c0-.1 0-.2-.1-.3-.1 0-.2.1-.3.2-.3.3-.5.7-.8 1 0 0-.1.2-.1.3-.1.3-.2.5-.4.8 0 .1-.1.3-.2.3-.1.3-.3.6-.3 1-.1.1-.1.2-.1.2v.1c0 .2-.1.5-.2.7-.1.4-.1.8 0 1.2h.1l.6-1.2c0 .1.1-.1 0-.1v-.1-.2h.1c0-.1 0-.2.1-.2v-.1-.1s.1-.1 0-.1c0-.1.1-.2.1-.2.1-.1.1-.2.2-.3 0 0 0-.1.1-.1-.1 0 0-.2.1-.2 0 .1 0 .1-.1.2.1-.1.1-.3.1-.4 0-.1.1-.2.1-.3 0 0 0-.1.1-.2 0-.1.1-.2.1-.2.1 0 .1-.3.2-.3 0-.2.1-.3.2-.4 0-.1.1-.1 0-.2.1-.1.1-.4.2-.4 0-.1.1-.2 0-.3.2 0 .2 0 .2-.1zM20 16.8s-.1 0 0 0zm11.5-3.5c.1 0 .1 0 0 0zm-1.3 2.2v-.1.1zm-3 3.8c.1-.1.1-.1 0 0 .1-.1 0 0 0 0zm1.8-1.4zm1.3-2.7c0 .1 0 0 0 0zm-2.6 5.1c.1 0 .1 0 0 0zm3.5-6.5s0 .1 0 0zm-1.2 2s.1-.1.1-.2c0 0-.1 0-.1.1.1 0 0 0 0 0v.1zm.3.1c0-.1 0-.1 0 0-.1 0-.1 0 0 0zm-.3.2zm0-.3zm.3-.5zm.4-.8zm.4-.6c0-.1-.1 0 0 0zm-.1.1zm-.4.8s0-.1 0 0c0-.1 0-.1 0 0zm.1-.1c0 .1-.1.1 0 .1-.1 0 0 0 0-.1zm-.9 1.6c0 .1 0 .1 0 0 .1 0 0 0 0 0zm1.4-2.7c0 .1.1 0 0 0zm.2-.2s0-.1 0 0c0-.1-.1 0 0 0zm-.1.1c0 .1 0 0 0 0zm0 2.1zm-.9-.6c.1 0 0 0 0 0 .1 0 .1-.1 0 0zm.1-.2zm-.1.3zm-3.1 4.5c.1 0 0 0 0 0zm4.1-5.2c.1 0 0 0 0 0zm-4 5.3c-.1 0 0 0 0 0zm8.3.4s0 .1 0 0zm.6 5.4c-.1 0-.1 0 0 0 0 .1 0 0 0 0zm9.5-15.9c0 .1-.1.1-.1.2h-.1l.1.1c-.1 0-.1.1-.1.1v.1c-.1 0-.1 0-.1.1 0 0 0 .1-.1.1 0 .1-.1.1-.1.1s-.1 0-.1.1 0 .1-.1.2c0 .1.1 0 0 .1H45v-.1h-.1s-.1 0-.1.1.1 0 .1 0c0 .1 0 .1-.1.2v-.1h-.1c0-.1.1-.1.1-.2h-.1l-.1.1c0 .1-.1.1-.1.2-.1 0-.1.1-.2.1v.1c-.1 0-.1 0-.1.1.1-.1.3-.2.3-.3.1 0 .1-.1.2-.1s0 .1.1.1c-.1.1 0 .1-.1.2V11c-.1 0-.1.1-.1.2v-.1c-.1 0 0 .1 0 .1l-.1.1v.1h-.1c0 .1.1.1.1.2-.1 0-.2.1-.3.2 0-.1.1-.1.1-.2-.1.1-.2.2-.1.3h-.1v.1c-.3.2-.6.5-.8.7 0 .1-.1.1-.2.2-.1 0-.1.2-.3.2v.1c-.2.1-.2.3-.4.3v.1h-.1v-.1c-.1 0-.2.2-.3.3-.2.1-.3.3-.4.4.1.1-.1.2-.1.2v-.1c-.1 0-.1.1-.1.1-.1 0 0 .1-.1.1l-.2.2c-.1.1-.1.2-.3.2 0 .1-.1.1-.1.2-.1.1-.2.1-.2.2-.1.1-.2.3-.3.4-.1.1-.2.2-.2.3 0 .1 0 .2-.1.2v-.1h-.1l-.3.9c0 .2-.1.4-.1.6v.2h-.1c0 .1 0 .1-.1.2l.1-.1c0 .1-.1.1 0 .1-.1 0-.1.1-.1.1-.1 0-.1.1-.1.2-.1 0-.1.1 0 .1l.1-.1s-.1.1 0 .1v.1c0 .1.1.2 0 .3 0 .1-.1.2 0 .2-.1.1-.1.2-.2.3.1 0 0-.1.1-.1v.1H39c0 .3-.1.5-.2.7v.1c0 .1-.1.2-.1.2s-.1 0-.1.1c0-.2.1-.3.1-.4.1-.1 0-.3.1-.4h-.1v-.1c-.1.1 0 .1-.1.2 0 .1-.1.2 0 .4-.1.1-.1.4-.1.6h-.1c0 .1 0 .2-.1.4 0 .1 0 .1-.1.1v.2s0 .1-.1.1c.1.1-.1.2 0 .3-.1.1-.2.3-.1.4.1 0 .1-.2.1-.3 0-.1.1-.1.1-.2.1.1 0 .5-.2.5v.1c0 .1-.1.2 0 .2 0-.1.1-.1.1-.2v.1c0 .1-.1.2 0 .2v.1c-.1.2-.1.2-.1.3-.1.2-.2.5-.2.7.1 0 0-.1.1-.1v.1c-.1.1-.1.2-.1.3-.1.1 0-.1-.1-.1v.1h.1s-.1.1-.1.2c0 .2 0 .2-.1.4v.1s0 .1 0 0c0 0 0 .1 0 0v.1s.1 0 .1-.1V25c0 .2-.1.3-.1.3 0 .1 0 .2-.1.2 0 .1-.1.4-.2.5h.1c-.1.3-.3.6-.5.9h-.1c0 .2-.4.3-.4.5-.1 0-.2.1-.2.1-.2.1-.3.2-.6.3-.1.1-.1.1-.3.2.1-.1 0 0 0-.1h.1-.2s.1 0 .1.1h-.2 0c-.2.1-.4 0-.6.1V28h-.1c-.1 0-.1-.1-.2-.1v-.2h-.1v-.1c0-.1 0-.2-.1-.2.1-.2 0-.3 0-.4-.1 0 0 .1-.1 0v-.2s.1 0 0 0v-.1-.1c-.1-.1 0-.2-.1-.2.1 0 .1-.2 0-.3.1-.1.1-.5 0-.6v-.3c.1-.3.1-.7.2-.9v-.2-.1c0-.1 0 0 .1 0 .1-.2.1-.4.2-.5 0-.1.1-.1.1-.2s.1-.2.1-.2h.1c0-.1 0-.3.1-.5v-.1.1c.1 0 .1-.2.1-.2v-.1c0-.1 0 .1.1 0v-.1-.1h.1V22s0-.1 0 0c.1-.1.1-.2.2-.3 0 0 0-.1.1-.1v-.1s0-.1.1-.1c.2-.5.5-1 .8-1.5.1-.1.2-.3.3-.5.3-.5.6-.9.9-1.3.1-.2.1-.2.3-.3.1-.2.2-.5.3-.7.1 0 0-.1.1-.1 0 .1-.1.1 0 .1.1-.2.3-.4.4-.6.2-.1.2-.3.4-.5 0-.3.1-.6.2-.9.4-1.4.8-3.3 1.1-4.7 0 0-.1.2-.1.3-.1 0-.1.2-.1.2v.1c-.1.2-.3.4-.3.6-.2.2-.3.5-.4.8v.1c-.1.2-.3.5-.4.7v.1c-.1.3-.3.6-.4.9-.2.2-.2.4-.3.6-.2.4-.5.8-.7 1.3h-.1c-.1.2-.3.4-.4.6-.3.3-.7.6-1.2.6-.3 0-.5-.2-.6-.5h-.1c.1 0 0 0 0-.1-.3-.8-.1-2.3.2-3.3h-.1c.2-.4.3-1.1.5-1.4.2-.6.5-1.2.7-1.8.1-.1.4 0 .5-.2.1 0 .3 0 .4-.1.1 0 .1.2.2.2v.1c0 .2 0 .4-.2.6-.1.4-.3.7-.4 1-.1.3-.2.6-.3.8-.1.1-.1.3-.2.4-.2.7-.4 1.4-.5 2v1c.4-.5.6-1 1-1.6.1-.3.3-.6.4-.9 0-.1.1-.2.1-.3 0-.1.1-.2.1-.3 0-.1.1-.1.1-.2.2-.4.4-.7.6-1.1.1-.1.1-.3.3-.4 0-.2.2-.4.3-.5 0-.2.3-.5.4-.7h.1c0-.1.1-.2.1-.3.1 0 .1-.1.1-.2.1 0 .1-.3.2-.3v-.1c0-.2.2-.2.2-.4.1-.1.1-.2.2-.2v-.1h.1c0-.1.1-.2.2-.3 0-.2.3-.4.4-.5h.1c.1-.1.3-.1.5-.2h.3c.2-.1.3.1.3.2s-.1.1 0 .2c-.1.1-.1.4-.2.6h.1c0 .2-.1.4-.2.7-.1.6-.2 1-.4 1.5-.2.8-.3 1.6-.5 2.3v.2s0-.1 0 0-.1.3-.1.4l.3-.3c.1.1.1-.1.1-.1s-.1 0 0 0h.1c.1-.1.2-.2.2-.3.1-.1.2-.2.3-.4v.1s.1 0 .1-.1c.5-.6 1-1.1 1.6-1.6l.3-.3h.1c.2-.2.4-.3.6-.5.2 0 .2-.2.3-.3l.3-.3c0-.1.2-.3.3-.3 0-.1.1-.1.2-.1s0 0 0-.1c.2-.1.4-.2.7-.3 0 .1-.1.2-.1.3l.1-.1c-.1.2-.2.3-.3.4-.2.6-.2.5-.1.4zM33.9 27.7c-.1 0 0 0 0 0zm.3-4.2c.1 0 .1 0 0 0zm.2-.6c.1 0 .1-.1 0 0zm.2 5.2zm3.3-9.8zm-.2.2c.1 0 .1 0 0 0zm-.1.2s.1 0 0 0c.1 0 0-.1 0 0zm-1 .3zm-.8 1.2c0-.1 0 0 0 0zm-.2 6.8c-.1 0-.1 0 0 0-.1 0-.1 0 0 0zm1.1-3c0 .1 0 .1 0 0 0 .1 0 .1 0 0zm.1-.1zm.2-.8c-.1 0-.1 0 0 0-.1 0-.1.1 0 0-.1.1-.1.1 0 0zm.4 1.9c-.1 0 0 .1-.1.1.1 0 0-.1.1-.1zm.1-3.8s-.1 0 0 0c-.1 0-.1.1 0 0zm.2 2.7s0 .1 0 0c0 .1 0 .1 0 0zm.3-5.2c0-.1-.1 0 0 0-.1-.1 0-.1 0-.1 0 .1-.1.1-.1.2 0 0 0 .1-.1.1 0 .1 0 .1-.1.1 0 .1-.1.2-.1.2-.1 0 0-.1-.1 0 0 .1-.1.2-.1.3h-.1c.1 0-.1.1 0 .1 0 .1-.1.1-.1.1-.1 0-.1.1-.1.2H37c-.1.1 0 .2-.1.2v.2h-.1c-.1 0-.1.1-.1.2.1 0 0 .1 0 .1v.1c0 .1 0 .2-.1.2 0 .2-.1.3-.2.4 0 0 0 .1-.1.1 0 0-.1 0 0 0 0 .1 0 0 0 0-.1.1-.1.2-.2.3 0 .2-.1.3-.1.4 0 .1-.1.1 0 .2-.1.1-.1.4-.3.5 0 .1 0 .2-.1.3 0 .2-.2.5-.1.7-.1 0-.1.1-.1.2-.1.3-.1.7-.2 1 .1.1 0 .3 0 .3v.2c.1.1 0 .3 0 .4.1 0 0 .1 0 .1V26.3c.1.2.1.3.1.5.1.1.1.3.3.3V27h.1v-.1l.3-.3c0-.1-.1 0-.1 0 .1-.1.1-.1.1-.2h.1c.1 0 .1-.1.1-.2.1 0 0 0 0 0h.1v-.1h-.1c0-.1 0 0 0 0 0-.1.1-.2.1-.3.1 0 .1-.1.1-.1 0-.1.1-.1.1-.1h-.1s0 .1-.1.1c0-.1.1-.2 0-.2s0-.1 0-.1v.1h-.1s0-.1.1-.1c0-.1.1-.1 0-.1 0-.1-.1 0-.1 0l.1-.1V25s0-.1.1-.1v-.1c-.1 0-.1.2-.2.2 0 0 0-.1.1-.1.1-.1.1 0 .1-.1h-.1v-.1c0-.1.1-.1.1-.2 0 0-.1 0 0-.1 0-.1 0-.2.1-.3V24s.1-.2.1-.3v-.1h.1v-.1c.1-.1 0-.1 0-.2h.1v-.1l.1-.1c.1-.3.2-.7.3-1h-.1s-.1 0-.1.1c0 0 .1-.1.1-.2h.1s0-.1 0 0c-.1 0-.1.1-.1.1V22c.1 0 .1-.1.1-.1.1 0 0 0 0 0l.1-.1c0 .1 0 0-.1.1-.1-.1.1-.4.2-.5-.1 0-.1.1-.1.1 0-.1.1-.2 0-.2 0 0 0-.1.1-.1v.1s-.1 0 0 .1v.1h.1c0-.1 0-.3.1-.4h-.1c.1 0 0 0 0-.1v-.1h.1v-.1s0 .1-.1.1h-.1l.1-.1h-.1l.1-.1c0-.1.1-.1.1-.2.1-.1 0-.2.1-.4-.1 0 0-.1 0-.1-.1 0-.1.1-.1.1V20h-.1s0-.1.1-.1v-.1-.1c.1 0 0-.2.1-.2 0 0-.1-.1 0-.1h.1c.1-.7.1-.6.2-.7zm-.6 2.5s0 .1 0 0zm-.1.5c0 .1 0 0 0 0zm-1 3.5c-.1.1 0 0 0 0zm2.2-5.4c-.1 0-.1 0 0 0-.1 0-.1 0 0 0zm0-.3l-.1.2c.1-.1.1-.2.1-.2zm0-.2zm.1.1s-.1 0 0 0zm.3-1.1c0-.1 0-.1 0 0 0-.1 0-.1 0 0zm-.1.2zm0 .1s-.1 0 0 0zm.1.6c-.1.1-.1 0 0 0-.1 0-.1.1 0 0-.1 0-.1.1-.1.1v.1c0-.1 0-.1.1-.2zm0-.2s0 .1-.1.1c.1 0 .1-.1.1-.1zm0-.9zm.1.5zm0-.1v.1s.1-.1 0-.1zm.1-.4s0 .1 0 0zm1.1-2.6s0-.1 0 0c-.1 0-.1 0 0 0-.1.1-.1.1-.2.1 0 0 0 .1-.1.1v.1c-.1 0-.1.2-.2.2 0 .1-.1.1 0 .2.2-.3.4-.5.5-.7zm.3-.3c-.1 0-.1-.1 0 0-.1.1-.1.2-.3.2 0 0 0 .1.1.1 0-.2.1-.2.2-.3zm.1-.2c-.1 0-.1.1-.1.1s.1 0 .1-.1zm.4-.6c-.1.1-.2.3-.3.4v.1c.1-.1.2-.2.3-.4 0 0 .1-.1 0-.1zm.7-.7c-.1 0-.1.1 0 0-.1.1-.1.1-.1.2 0 0 0-.1.1-.2-.1 0 0 .1 0 0zm.3-.3c-.1 0-.1 0 0 0-.1 0-.1 0 0 0zm.1-.2l-.1.1c.1 0 .1-.1.1-.1zm.3-1.3s-.1 0 0 0zm.1 1c-.1 0-.1 0 0 0-.1.1 0 0 0 0zm.4-.4l-.1.1c.1 0 .1-.1.1-.1zm.4-.5s-.1 0-.2.1c.1 0 .1-.1.2-.1zm.1-.1s.1-.1 0 0c0-.1 0-.1 0 0zm.1 0c-.1 0-.2.1-.2.2.1-.1.2-.1.2-.2zm.1-.6c-.1 0-.1 0 0 0zm.2.4c-.1 0-.2 0-.1.1 0-.1.1 0 .1-.1zm.1-.3h-.1s0 .1 0 0v.1h.1c-.1 0 0-.1 0-.1zm.2-.3c0 .1 0 .1-.1.1h.1s.1-.1 0-.1zm.9-.7s-.1 0 0 0c0 0 0-.1 0 0zm.1-.1c.1 0 .1-.1 0 0zm.1-.1c-.1 0-.1 0 0 0zm-8 12.1c-.1 0 0 0 0 0zm-.1-.1c.1 0 .1 0 0 0zm0 .3c-.1 0 0 0 0 0zm0 .1c-.1 0-.1.1 0 0-.1.1 0 0 0 0zm0-.2s-.1.1 0 0c0 .1 0 0 0 0zm-.1.3zm.8-2.9zm-.6 2.4v-.1.1zm.7-3.4zm-1.7 6.8zm1.5-5.7c0-.1 0 0 0 0 0-.1 0 0 0 0zm-.6 2.2c.1 0 0-.1 0 0 .1 0 .1-.1 0 0 .1-.1 0-.1 0 0 0-.1 0-.1 0 0zm.4-1.6zm.3-.9c-.1 0 0 0 0 0zm0-2.6c-.1.1.1 0 0 0zm1.2-7c0 .1 0 0 0 0zm-.6 11.2zm-.3 1.4c0 .1 0 .1 0 0 0 .1 0 0 0 0zm.3-1.2s-.1.1-.1.2c0 0 0 .1-.1.1h.1v-.1c.1-.1.2-.2.1-.2 0-.1 0-.1 0 0zm.1-.5s0 .1-.1.2v.2h.1v-.4c0 .1 0 0 0 0 .1 0 0 0 0 0 .1-.1.1-.3.2-.3v-.1h-.1c.1.1-.2.3-.1.4zm-.6 2.7s0-.1 0 0zm6.3-13.4zm-3.6 5s0-.1 0 0c0-.1 0 0 0 0zm-4.7 11zm-1.2-4.1c.1 0 0 0 0 0 .1 0 .1 0 0 0zm3.4.2zm1.1-4s0-.1 0 0zM38 23.1c-.1.1-.1.2-.1.2.1 0 0-.1.1-.2zm0 0s0-.1 0 0c0-.1 0-.1 0 0 0 0-.1 0 0 0zm-4.2 4.7s.1 0 0 0c.1 0 0 0 0 0zm3-4.3zm-.2 1.1zm.6-2.7c0 .1 0 0 0 0zm-.9 3.2c.1 0 .1-.1.1-.2h-.1v.2zm1.4-5.2zm-1.8 6.2c0 .1 0 .1 0 0zm.2-6.7c.1 0 .1 0 0 0 .1 0 .1 0 0 0 .1 0 0 0 0 0zm-.1 6.7l.1-.1H36s-.1.1 0 .1zm.2-6.7c0-.1 0 0 0 0 0-.1 0-.1 0 0zm4.9-6.3s-.1 0 0 0zm-2.8 8.3c.1 0 .1-.1 0 0 .1-.1 0-.1 0 0zm-1.6-.9c-.1-.1-.1 0 0 0-.1 0-.1 0 0 0-.1 0-.1 0 0 0zm3.9-15.9c.1 0 0 0 0 0zm-9.9 17.8s.1-.1 0 0c0-.1 0-.1 0 0zm.2.2c-.1 0-.1 0 0 0-.1.1-.1 0 0 0zM41.2 4.5c-.1 0-.1 0 0 0-.1 0-.1.1 0 0zm-10.4 18zm0-.1zm.8-3.5zm-.1.2s.1 0 0 0c.1-.1 0 0 0 0zM37 5.6s.1 0 .1-.1c0 0-.1 0-.1.1zm.2-.2s-.1 0 0 0c-.1.1 0 0 0 0zm-5.6 13.3s.1 0 0 0zm-.8 4.1v.1h.1c-.1-.1 0-.1-.1-.1.1 0 0 0 0 0zm6.5-17.3h.1s-.1-.1-.1 0zm.3-.1c.1 0 0 0 0 0zm2.3-.6c.1 0 0 0 0 0zm.1 0c.1 0 .1 0 .2-.1-.1 0-.1 0-.2.1zm.3-.1s-.1 0-.1.1l.1-.1zm-2.7.6c0 .1 0 .1 0 0 0 .1.1.1 0 0zm2.3-.5c-.1 0-.1 0 0 0-.1.1 0 0 0 0zm2.9 0s-.1 0 0 0c-.1.1 0 .1 0 0zm-9.9 10.8s0-.1.1-.1c-.1 0-.1.1-.1.1zm-.1.7c0-.1.1-.1.1-.1V16c-.1 0-.2.2-.1.3zm.1-.6c0 .1 0 0 0 0zm-.3 2.2c0 .1 0 .1 0 0zm-1.7 5.2c-.1 0-.1.1 0 0zm.2-7c.1 0 .1 0 0 0zm-.4 6.2c-.1 0 0 0 0 0zm.3 1.3c.1-.1.1-.1 0 0 .1-.1.1-.1 0 0 0-.1 0-.1 0 0-.1 0 0 0 0 0zm1.7-5.8l-.1.1c0-.1 0-.1.1-.1zm9.7-12.9s-.1 0-.1.1c.1 0 .1 0 .1-.1zM30.9 18.1zm.2-1.3c0 .1.1.1 0 0zm4.6-11zm-.5.4s0-.1 0 0c0-.1 0-.1 0 0zM32.5 23zm-1.6-3.9c0 .1 0 .1 0 0 0 .1 0 .1 0 0 0 .1 0 .1 0 0zm0 .7c0-.1 0-.1 0 0zm1.9-2.9zm-.3 1.7zm7.2-13.7c0-.1 0-.1 0 0zm-8.1 13.5c0-.1 0-.1 0 0 0-.1 0-.1 0 0 0-.1 0 0 0 0zm4.2-12h0zm-4.2 11.8s0 .1 0 0c0 .1 0 .1 0 0zm1.9-5.9c.1.3-.1.6 0 .9 0 .1 0 .1-.1.1 0 .2-.1.5-.1.6 0 0-.1.1-.1.2v.1c0 .1-.1.1 0 .2-.1 0-.1.2-.1.2v.1h.1l-.1.1H33v.1s-.1.1 0 .1c-.2.1-.2.3-.2.4-.1 0-.1.1-.1.2-.1.2 0 .3-.1.4v.3h-.1v.1c.1 0 .1-.2.1-.2.1 0 .1.1 0 .1h-.1c0 .1-.1.2-.2.3.1 0 .1-.1.1-.1 0 .1-.1.1-.1.1v.2c.1 0 0-.1.1-.1v.3c-.1.1-.1.2-.2.3h.1v.1c-.1 0 0 .1-.1.1v-.1c0 .1.1.1 0 .1v.3h-.1v.1c0 .1 0 .1.1.2 0-.1.1-.2.1-.3h.1s0 .1 0 0c0 .1-.1.2 0 .3-.1 0-.2.1-.2.2h.1s-.1 0-.1.1c0 0 .1 0 0 .1s-.1.2-.1.3c0 0 0 .1.1.1 0 0 0 .1-.1.1 0 .1.1.2-.1.3h.1v.1s.1 0 .1-.1v.1c-.1 0-.1.1-.1.1v.1c0 .1 0 .1-.1.2l.1.1s.1-.1.1 0c0 0 .1-.1.2-.1 0 .1-.1.1 0 .2l-.1.1c.1.1-.1.2 0 .2l-.1.1c.1 0 0 .1.1.1 0 0 0-.1.1-.1h.1s0-.1-.1-.1l.1-.1h.1c-.1 0 0 .1-.1.1v.1c-.1 0-.1.1-.2.1 0 .1.1.1 0 .1h.1s.1-.1.1-.2c0 0 0 .1.1.1h-.1v.1h0c0 .1-.1.2 0 .3v.2h.1v.1c.1.1 0 .2 0 .3h-.1.1v.1c-.1.1 0 .2 0 .3v.1h.1c0 .1-.1.1 0 .1-.1.1 0 .2 0 .3h.1c-.1.1 0 .1-.1.1s-.1.1-.1.1c0 .1.1 0 0 .1-.1 0-.1 0-.2.1v.1c-.1 0-.3.1-.2.2 0 0-.2 0-.2.1h-.1c-.1.1-.2.1-.3 0 0 0 0-.1.1 0 0-.1 0-.1-.1-.1 0-.1 0-.1-.1-.1 0 0-.1 0-.1-.1 0 0-.1 0-.1.1v-.1c0-.1-.1 0 0-.1h-.1v-.1-.1s0 .1-.1.1v-.1s.1 0 0-.1c0-.1-.1 0-.1-.1h.1s0-.1-.1-.1c0-.1.1-.1.1-.2 0 0-.1-.1-.1 0 0 0 .1 0 .1-.1 0 0-.1 0 0 0H31v-.1-.1s0-.1.1-.1c0-.1 0-.2-.1-.3 0 .1-.1.1-.1.1 0 .1.1 0 0 .1h-.1s-.1 0 0-.1.1-.2.2-.2c0-.1.1-.1 0-.2h.1c-.1-.1 0-.3-.1-.3.1-.1 0-.1.1-.2v.1c-.1 0 0-.1.1-.1v-.1h.1v-.1h-.1v-.1l-.1.1c-.1 0 .1-.1 0-.2-.1 0-.1.2-.2.2 0 .1.1 0 0 .1h-.1v-.1s.1 0 .1-.1h-.1c0-.2.2-.2.2-.4.1 0-.1.1 0 .1.1-.1.1-.2.2-.3 0-.1-.1 0-.1-.1h.1v-.1h-.1c0-.2.1-.2 0-.3h.1c0-.2.1-.3-.1-.3 0 0 0-.1.1-.1 0-.1-.1 0-.1 0v-.1c.1 0 0-.1.1-.1h-.1c0-.1.1-.3 0-.2v.1h-.2v-.1h0l.1-.1c-.1-.1 0-.3 0-.4.1 0 .1-.1.1-.1H31l.1-.1v-.1s.1-.1.1-.2h.1v-.1c-.1.1-.1 0-.2.1 0 .1.1 0 .1 0 0 .1-.1.1-.1.1s.1-.2 0-.2c.1 0 .1-.2.1-.1 0-.1-.1-.1 0-.2 0-.1.1-.1.1-.2h-.1c.1-.1.1-.2.1-.3h-.1c0-.1.1-.3.2-.2.1.1.1-.2.1-.2h-.1v.1l-.1.1c0-.1.1-.1 0-.2.1 0 .1-.1.2-.1h-.1c0-.1-.1 0-.1-.1 0 0 .1 0 .1-.1s-.1 0-.1 0 .1 0 0-.1c0-.1.1-.1.2-.1v-.1s-.1.1-.2.1c0-.1.1-.1.1-.2v-.1h-.1c0-.1.1 0 .1-.1V15v.1c0 .2-.2.4-.2.6h-.1c0 .1 0 .1-.1.2-.2.2-.3.5-.4.7v.2c-.1.1-.2.3-.2.5-.3.5-.6 1.2-1 1.7-.2.1-.2.3-.3.4-.1.1-.2.2-.3.2 0 .1-.2.2-.2.1-.2 0-.5.1-.6.1v-.1h-.1c0-.1-.1-.1-.1-.1 0-.1 0-.1-.1-.1.1-.1.1-.2-.1-.1 0 0-.1-.1 0-.1h.1c0-.2-.2-.3-.1-.4-.1 0 0-.1-.1-.1v-.1c0-.3-.1-.5-.2-.7 0-.1 0-.1.1-.1 0-.1-.1 0-.1 0-.1-.1.1-.3 0-.4.1-.1 0-.2 0-.3v0c0-.1.1 0 .1-.1h-.1s0-.1 0 0c0-.1 0-.2.1-.2 0-.1-.1-.1-.1-.1v-.1c.1 0 .1 0 .1-.1v-.1l-.1.1c0-.1.1-.1.1-.1v-.1h-.1s0-.1.1-.1v-.1c0-.1 0-.1-.1-.1.2-.1.1-.6.2-.8 0-.1.1-.3.1-.4-.1 0 0 .1-.1.1v.1c-.3.3-.3.7-.6 1.1v.1c-.1 0-.1.1-.1.2-.1 0-.1.2-.2.2 0 .2-.2.3-.3.5v.1c-.2.2-.2.5-.4.7-.1.2-.2.4-.4.6v.1c-.2.2-.3.4-.6.5-.1 0-.1 0-.2.1-.3.1-.5.1-.7.2-.4 0-.6-.2-.7-.4 0 0 0-.1-.1-.1.1-.1-.1-.1 0-.2 0-.1-.1-.2 0-.2v-.1-.2-.7-.5c.1-.3 0-.5.1-.7.2-1.1.5-2.2.8-3.1.2-.4.4-.8.7-1.2l.2-.2c.3.1.7.1.8.3v.1c0 .2 0 .5-.1.7 0 .2-.1.4-.2.6-.1.4-.3.7-.4 1.1-.2.9-.6 1.9-.6 2.7 0 .1-.1.2 0 .3-.1.2 0 .4 0 .7.4-.5.7-1.3 1.1-1.8.2-.3.3-.6.5-.9l.1-.1v-.1c.1 0 .1-.2.1-.2s.1 0 .1-.1c.1-.2.2-.3.2-.5 0 0 .1 0 .1-.1.1-.3.3-.4.4-.7 0 0 .1-.1.1-.2.2-.2.3-.5.4-.6 0-.1.1-.1.1-.2.1 0 .1-.1.1-.2.1-.1.2-.2.2-.3.1-.1.2-.2.3-.4 0 .1.1-.1.1-.1s.1 0 .1-.1c.1-.2.2-.4.4-.5v-.1c.1-.1.1-.2.2-.3l.1-.1v-.1h.1l.1-.1c.3.1.7.1.8.3v.3c-.2.5-.4.9-.5 1.4-.2.3-.2.8-.4 1.2h-.1c0 .1 0 .2-.1.2 0 .3-.2.5-.2.8-.1 0-.1.1-.1.2 0 0 0 .1 0 0-.1.1-.1.2-.2.3 0 0-.1.1 0 .1 0 .1 0 .3-.1.4v.1c-.1 0 0 .1-.1.2v.2c-.1.1-.1.2-.1.3.1 0 .1-.1.1-.1v.2c.1 0 0 .1 0 .2.1.1 0 .2.1.3h-.1l-.1.1v.1h.1c0-.1.1-.1.1-.1v.1h-.1c0 .1-.1.1-.1.1 0 .1 0 0 .1 0v.2h-.1v.1c.1 0 0-.1.1-.1 0 .1-.1.2 0 .4-.1.2 0 .3 0 .5h.1v.1s.1-.1.1 0v.3c.4-.5.6-1.2 1-1.8.1 0 .1-.2.1-.2.1-.1.1-.2.1-.3h.1c0-.1.1-.2.1-.4v-.2h.1V16c.1 0 0 0 .1-.1h-.1c0-.1.1 0 .1-.1v.2c.1 0 .1-.1.1-.2 0 0 .1 0 0 0v-.1s0 .1-.1.1c0-.1.1-.2.2-.3.1 0 .1-.1.1-.1h-.1v-.1c.1-.1.1-.3.2-.5s.2-.3.3-.4c0 0-.1-.1 0-.1v.1s.1-.1.1-.2c-.1 0-.2 0-.1-.1v.1c0-.1 0-.2.1-.2 0-.1.1-.2.1-.2h.1s.1-.1 0-.1v-.1.1s0-.1.1-.1c0 0 0 .1.1 0v-.1s0-.1.1-.2v-.1c.1.1 0 .2 0 .2h-.1c0-.1.1 0 .1 0v-.1h.1v-.1c0-.1 0-.1.1-.1 0 0-.1 0 0-.1v-.1h0v-.1c0-.1 0-.2.1-.4.1 0 .1-.1.1-.2h.1V12s0-.1.1-.1c-.1-.1-.1.1-.2.1 0-.1.1-.3 0-.3h-.1.1c0-.4.2-.7.2-1 .1-.3.1-.6.2-.9-.1 0 0-.1 0-.1h.1c0-.2 0-.2.1-.4v-.1c0-.5.2-1.1.3-1.6-.2 0-.5 0-.6.1h-.1c-.1.1-.3.1-.4.2h-.2c-.1.1-.3.1-.5.2h-.1c-.2.1-.5.1-.7.2-.8.1-1.4.4-2.1.5-.1.1-.3 0-.4.1h-.2c0-.1-.3-.1-.4-.1v-.1-.2-.1c-.1 0-.1-.1-.1-.2.1 0 .1-.1.2-.2v-.1s.1 0 0 0c.8-.3 1.5-.5 2.3-.7 0 0 .1 0 0 0 1.1-.3 2-.5 3.1-.7h-.1c0 .1.2 0 .3 0 .2-.3.2-.6.3-.9v-.1c.1-.1.1-.2.1-.2h.1c.4-.3.9-.2 1.3-.3.2.2.3.6.3 1 .1 0 .2 0 .3-.1.1 0 .3-.1.5-.1.1 0 .2-.1.3-.1.1 0 .2-.1.2-.1.2-.2.4-.1.6-.2 0 0 0 .1-.1.1-.1.2-.3.1-.5.2h-.1s0 .1-.1.1c-.1-.1-.1 0-.1 0-.1 0 0 .1 0 .1v-.1c-.1 0 0 .1-.1.1v-.1c-.1.1-.3.1-.4.1.1.1 0 .1-.2.2 0 0 0 .1-.1.1H35c0 .1.2 0 .3 0v-.1c.2 0 .4-.1.6-.1 0 .1-.1 0-.1.1.1 0 .2-.1.3-.1.2 0 .3 0 .4-.1 0 0 0-.1.1-.1.1-.1.2 0 .2-.1v.1c.1 0 .3-.2.4-.1.1-.1.3-.1.4-.2.1-.1.3-.2.5-.2.1-.1.2-.1.3-.1 0 .1-.1.1-.2.1.1.1.2-.1.3-.1 0 0-.1 0 0 .1.1 0 .1-.1.2-.1.2-.1.4-.2.7-.2.1 0 .2 0 .3-.1.2.1.3-.1.5-.1 0 0 .1 0 .1-.1.3-.1.7-.1 1-.2.1 0 .2 0 .3-.1.4-.1.9-.2 1.2-.2h.3c0 .1.1.1.1.2h-.1c-.1.1-.4.2-.6.2l-.1.1v.1c.1 0 .2 0 .2-.1v.1c.1-.1.2-.1.3-.1-.3.1-.5.2-.8.3-.1 0-.3.1-.3 0l-.1.1h-.1s-.1 0-.1.1c-.1 0-.2 0-.3.1-.2 0-.4 0-.6.1h-.2c-.1.1-.1 0-.2.1l-.1.1h-.3s-.1.1-.2.1v-.1c-.1 0-.1.1-.2.1h-.1c-.2.1-.4.1-.7.2-.1 0-.2.1-.2.1-.3.1-.5 0-.7.2-.2 0-.4.1-.5.1-.3.1-.6.2-1 .3h-.1s-.1 0-.1.1c-.4.1-.7.2-1.1.3 0 0-.1 0 0 0h-.2c-.1.1 0 .3-.1.5 0 .1-.1.3-.1.4-.1.3-.2.6-.2.9 0 .1-.1.2-.1.3v.4c-.1.1-.1.3-.2.5s0 .4-.1.6c0 .2-.1.4-.1.7-.1.1 0 .2-.1.3 0 .1 0 .2-.1.2.1.1 0 .4-.1.5zM41.8 5c.1 0 .3 0 .4-.1 0 0 .1 0 .1-.1h-.1c-.1.1-.3 0-.4.2zm-.2 0s.1 0 0 0c.1-.1.1-.1 0 0 .1 0 0 0 0 0zm-.2.1c.1 0 .2-.1.2-.2-.1 0-.2.1-.2.2zm-.3 0c0 .1.1 0 .2 0 0 0-.1 0 0 0s.1-.1.1-.1c-.1 0-.2 0-.3.1zm-.4.1c.1 0 .3-.1.4-.2-.1.1-.3 0-.4.2zm-.4.1c.1 0 .2-.1.3-.1-.1-.1-.2 0-.3.1zm-3.7.9s-.1 0-.1.1c0-.1.1 0 .1-.1zm1.1-.2c-.1 0-.2 0-.2.1 0-.1.1-.1.2-.1zm.2-.1h-.2c0 .1.1.1.2 0zm.8-.2h-.1s.1.1.1 0zm.3-.6c.1 0 0 0 0 0zM36 6s.1-.1 0 0c.1-.1 0-.1 0 0zm-.6.1zm0 .4c.1 0 .1 0 .1-.1 0 0-.1 0-.1.1-.1-.1 0-.1 0 0zm-.1.1c.3-.2.6-.1.9-.3-.1 0-.2.1-.3.1.1-.1.2-.1.2-.1.1-.1.2-.1.3-.2h.2c.2.1.4-.1.6-.1l.1-.1h.1s-.1 0-.1.1c.1-.1.2-.1.3-.1.3 0 .6-.1.9-.2.1 0 .2-.1.3-.1 0 .1-.1 0-.1.1.3 0 .6-.1.8-.3-.5.1-1.1.3-1.6.4h-.1c-.3.1-.5.1-.7.2-.1 0-.2 0-.2.1-.1 0-.2 0-.3.1-.2 0-.3.1-.4.1h-.1l-.1.1c-.2 0-.3.1-.4.1 0 .1.1 0 .2.1-.2-.1-.4-.1-.5 0 .1 0 0 0 0 0zm-.1 0s-.1 0 0 0c0 .1 0 .1 0 0zm-.1-.1c0 .1.1.1 0 0 0 0 .1 0 0 0zm-.1 0s.1 0 0 0c.1 0 0 0 0 0zm-.1 0s.1 0 0 0c.1 0 0 0 0 0zm0-.3zm-.1.4s0-.1 0 0c.1-.1 0-.1 0 0zm-3.4.9zm1.1-.9c0-.1 0 0 0 0 0-.1 0-.1 0 0zm.2.6c-.1 0-.1 0-.1.1 0-.1 0-.1.1-.1zm-4.6 9.9c.1 0 0 0 0 0zm0-.2c.1 0 .1 0 0 0zm.1.3zm0-1s.1 0 0 0zm0 .3c0-.1 0-.1 0 0 0 0 0-.1 0 0zm0 0zm-.1.4c.1 0 0-.1.1-.1v-.1c-.1 0 0 .1-.1.2-.1 0 0 0 0 0zm-.9.6zm.1-.3c-.1 0-.1.1 0 0 0 .1 0 .1 0 0zm0 0c-.1 0-.1 0 0 0zm.1.8s-.1 0 0 0c-.1 0-.1 0 0 0zm-.1-.8c0 .1 0 .1-.1.1.1 0 .1-.1.1-.1.1 0 .1-.1 0 0zm0 0c0-.1 0-.1 0 0 0-.1 0-.1 0 0zm.1-.3s0 .1-.1.2h.1c-.1-.1 0-.2 0-.2zm0-.3c0 .1-.1.2 0 .3v-.3zm.6 3.7h-.1c-.1.1 0 0 .1 0zm.1-2.1s0-.1 0 0zm.6 1.8c0 .1 0 .1 0 0zm.1-.1zm1.3-4h.2s-.1 0 0 0h.1v-.2c0 .1 0 .1-.1.1-.2 0-.2 0-.2.1 0 0 0-.1 0 0zm.1.9zm.1-.2v-.1c0 .1-.1.3-.1.4l.1-.1c-.1-.1-.1-.1 0-.2-.1.1-.1.1 0 0zm.1-.1s0 .1-.1.2c.1-.1.1-.2.1-.2zm0-.3s0 .1 0 0c-.1.1-.1.1-.1.2v.1h-.1v.1s0 .1.1.1c.1-.3.1-.4.1-.5zm.4-1.4s0-.1 0 0c0-.1-.1 0 0 0zm-.2.2zm0 .1c0-.1 0-.1 0 0zm0 .9zm.1.7c-.1 0-.1 0 0 0-.1 0 0 0 0 0zm0-1.5c0-.1-.1-.1 0 0 0-.1-.1 0 0 0zm0-.3s0 .1 0 0c0 0 .1 0 0 0zm.1.8zm0-.4c0 .1-.1.1-.1.2.1 0 .2-.2.1-.2zm.1-.8zm0 1zm0 .7c0 .1 0 .1 0 0zm.1-1.1c0 .1 0 .1 0 0 0 .1-.1.2-.1.2v-.1.1c.1 0 .1-.2.1-.2zm.1-.1s0 .1 0 0c0 .1 0 0 0 0zm-.1 3.9c0-.2-.1 0-.1 0h.1zm.1-.4s-.1.1 0 .1v-.1zm-.2 2.2c0 .1.1.1 0 0 .1 0 .1 0 0 0zm0 .5c.1 0 .1 0 0 0 .1 0 .1 0 0 0 .1-.1.1 0 0 0zm.1.1c-.1 0-.1 0-.1.1l.1-.1zm0 1.7c0-.1 0-.1 0 0zm.1-2.2c-.1 0-.1.1-.1 0 0 .1 0 .1-.1.1.1 0 0 .1 0 .1h.1c0-.1 0-.2.1-.2-.1 0 0 0 0 0zm.1-3.4c-.1 0 0 .1-.1.2.1-.1.1-.1.1-.2zm0-.3s-.1.2 0 .2.1-.2 0-.2zm1.1 3c0 .1 0 .1 0 0 .1 0 .1 0 0 0 .1 0 0 0 0 0zm-.3-3.8c-.1 0-.2.2-.2.3.1 0 0 .1 0 0v.1h.1c-.1-.1.1-.2.1-.4zm-.2.7c0-.1.1-.2 0-.2 0 .1 0 .2-.1.3l.1-.1c-.1.1-.1.2 0 .2V17zm-.2 1.4h-.1c0 .1.1.1.1 0 0 0 .1 0 0 0v-.2c-.1 0-.1 0-.1.1v.1h.1zm-.2-2.6v.1s.1-.1 0-.1zm0 .2c.1.1.1-.1 0 0zm0-.7zm.1-.1zm.8-1.6zm-.4 2.6s0-.1 0 0c-.1 0-.1.1 0 .2.1-.1-.1-.1 0-.2zm.2-1.5c.1 0 .1 0 0 0 .2-.1 0 0 0 0zm.1-.3c0 .1-.1.1-.1.2.2 0 .2-.2.1-.2zm.8-2.2zm-1.4 1.5s0-.1 0 0c0 0 0-.1 0 0 0 0 0-.1 0 0zm-.1.1zm-.1-.1zm0 .3zm-.1.7c0 .1-.1.1-.1.1h.1v-.1c.1 0 .1 0 0 0 .1-.1.1-.1.1-.2v-.1-.1-.1c0 .2-.2.3-.1.5v-.2c0 .1-.2.2-.2.3.1 0 .1 0 .2-.1zm0 .2c-.1 0-.1 0 0 0 0 .1 0 0 0 0zm.1.5s-.1 0 0 0c-.1 0-.1 0 0 0-.1.1-.1.1 0 0-.1.1-.1.1 0 0zm0 1v-.2c-.1.1-.1.1 0 .2-.1 0 0 0 0 0zm0 4.2c-.1 0-.1.1-.1.1.1 0 .1-.1.1-.1zm.4-1.8c0-.1-.1-.1-.1-.2-.2 0-.1.2-.1.3h-.1v.1h.1s-.1 0-.1.1c0 0-.1.1 0 .1v.1s.1 0 .1-.1v-.1h.1c0-.1 0-.2.1-.3zm0-1.1c0-.1 0-.1 0 0 0-.1.1-.3.1-.3h-.1c0 .1 0 .1-.1.1 0 0 0 .1.1.2-.1 0-.2 0-.2.1h.1l-.1.1c.1 0 0 .1 0 .1l.1-.1v-.1c.1.1.2-.1.1-.1zm.2 3.2s-.1 0 0 0c-.1 0-.1.1 0 0zm0-1.3s.1 0 0 0c0-.1.1-.1 0-.1v.1c-.1 0-.1.1-.1.2.1 0 0 .2.1.2-.1.1 0 .1 0 .2s0 .1-.1.1c.1 0 0 .1.1.1-.1.2 0 .2-.1.4h.1v-.1s0-.1.1-.1v-.1c-.1-.1 0-.3 0-.4-.1 0 .1-.3-.1-.3.1 0 .1-.1 0-.2zm.1-.2s-.1 0 0 0c-.1.1 0 .1 0 0zm.3-1.1zm0-1.3v.1c.1 0 .1-.1 0-.1zm.1.7c0 .1 0 .1 0 0zm0-1.9c-.1.1-.1.1-.2.1v.2h-.1c.1.2-.1.3 0 .5-.1.2 0 .4 0 .5 0 .1-.1.1-.1.2h.1l-.1.1v.8H32c.1 0 .1.2.1.2s-.1 0-.1.1v.3c-.1.1-.1.1 0 .2-.1 0-.1.1-.1.2 0 0 0-.1.1-.1v.1c.1 0 0 .1.1.1 0-.2 0-.4.1-.6h-.1c0-.1 0-.3.1-.4 0-.2.1-.3 0-.5 0 0 .1 0 .1-.1-.1-.1 0-.3 0-.5v-.3c-.1 0 .1-.2 0-.2 0 0 0-.1.1-.1 0-.2.1-.3 0-.5.1-.2 0-.3.1-.3zm.1 1.3c0 .1 0 .2-.1.3.2 0 .1-.1.1-.3 0 .1 0 0 0 0zm.2-2.6c-.1 0-.1 0 0 0h-.1l.1-.1c-.1 0-.1.1-.2.1 0 .1-.1.2 0 .3v.1c.1.1.1.1.1.2h-.1c.1.2-.2.4 0 .5.1-.1.1-.3.2-.4 0-.1-.1 0 0-.1.1 0 .1-.2.1-.2-.1-.2-.1-.2-.1-.4zm0-.3c-.1.1-.1.2-.1.3.1-.1.2-.3.1-.3zm0-.3v-.1c0-.1.1-.1 0-.2v-.1c.1-.1.2-.4.1-.4-.1.1-.1.2-.1.3v.5c-.1-.1-.1-.1 0 0h-.1-.1c0 .1.1 0 0 .1h-.1v.1h.1s0-.1.1-.1c0-.1 0-.1-.1-.1.1.1.2.1.2 0zm.1 1c0 .1 0 .1 0 0 0 .1 0 0 0 0zm.2-1.6c-.1 0-.1 0 0 0-.1 0 0 0 0 0zm-2.2 10c0 .1 0 0 0 0zm.2.3v.1h.1s-.1 0-.1-.1zm1.5-5.2zm-1.8.7c0 .1 0 0 0 0zm-.1 1.6zm.2-.3c0-.1 0-.1 0 0 0-.1 0-.1 0 0zm0-1.1s0-.1 0 0zm-.1 2.5c-.1 0-.1 0 0 0zm1.7-1.6zm-1.8 1.2s.1 0 0 0zm1.8-1.9c-.1 0-.1 0 0 0-.1 0 0 .1 0 0z">
  </path>
</svg>
