<?xml version="1.0" encoding="utf-8"?>
<!-- Generator: Adobe Illustrator 22.1.0, SVG Export Plug-In . SVG Version: 6.00 Build 0)  -->
<svg version="1.1" id="Layer_1" xmlns="http://www.w3.org/2000/svg" xmlns:xlink="http://www.w3.org/1999/xlink" width="50" height="26"
	 viewBox="0 0 242.5 33.2" style="enable-background:new 0 0 242.5 33.2;" xml:space="preserve">
<style type="text/css">
	.st0{fill:#FFFFFF;}
</style>
<title>Asset 2ldpi</title>
<g id="Layer_2_1_">
	<g id="VS_BTY_logo">
		<path class="st0" d="M0,32.7V0.1h13c6,0,11.6,1.5,11.6,8.1c0,4.6-2.9,6.8-6.2,7.5v0.1c4,0.7,7.1,2.8,7.1,8c0,6.6-5.8,9-11.8,9
			L0,32.7z M7,13.6h5.3c3.7,0,5.5-1.4,5.5-3.9s-1.5-4-5.4-4H7V13.6z M7,27.2h5.8c4,0,5.7-1.6,5.7-4.4s-2.1-4.3-6-4.3H7V27.2z
			 M44.6,32.7V0.1h22.2v6h-15v7h10.9v5.7H51.8v8.1h15.8v5.8H44.6z M83,32.7L94.6,0h6.8l11.5,32.7h-7.3l-2.4-7.3H92.1l-2.5,7.3H83z
			 M93.9,20.2h7.7L97.8,9.2h-0.1L93.9,20.2z M128.7,20.2V0.1h7.2v19.9c0,4.7,1.8,7.4,6.1,7.4s6-2.6,6-7.4V0.1h7v20.1
			c0,8-4,13-13.1,13S128.7,28.2,128.7,20.2L128.7,20.2z M181.5,32.7V6.1h-9.7v-6h26.6v6h-9.7v26.6H181.5z M224.1,32.7V18.9
			L212.9,0.1h7.4l7.4,12.7l7.5-12.7h7.3l-11.3,18.8v13.8H224.1z"/>
	</g>
</g>
</svg>
