<svg version="1.2" baseProfile="tiny-ps" xmlns="http://www.w3.org/2000/svg" viewBox="0 0 1673 358" width="80" height="26">
	<title>pink-main-logo-svg</title>
	<style>
		tspan { white-space:pre }
		.shp0 { fill: #ffffff }
	</style>
	<g id="Layer">
		<path id="Layer" class="shp0" d="M0 1.9C0 2.9 5.2 37.9 11.5 79.6C17.8 121.3 23 156 23 156.7C23 157.7 28.5 158 49.3 158L75.5 158L87.5 79.2L99.6 0.5L82.6 0.2C73.3 0.1 65.5 0.1 65.3 0.3C65.1 0.5 61.9 25.6 58.2 56.1C54.5 86.6 51.4 110.8 51.3 110C51.1 109.2 48.3 85.8 45 58C41.7 30.2 38.8 5.8 38.4 3.7L37.8 0L18.9 0C1 0 0 0.1 0 1.9Z" />
		<path id="Layer" class="shp0" d="M120 79L120 158L138.5 158L157 158L157 79L157 0L138.5 0L120 0L120 79Z" />
		<path id="Layer" class="shp0" d="M191.2 9.3L182 18.5L182 78.5L182 138.5L191.8 148.3L201.5 158L225 158L248.5 158L258.3 148.2L268 138.5L268 122.2L268 106L251 106L234 106L234 116L234 126L226.5 126L219 126L219 78.5L219 31L226.5 31L234 31L234 41L234 51L251 51L268 51L268 34.7L268 18.5L258.7 9.2L249.5 0L225 0L200.5 0L191.2 9.3Z" />
		<path id="Layer" class="shp0" d="M290 15.5L290 31L303.5 31L317 31L317 94.5L317 158L335.5 158L354 158L354 94.5L354 31L367.5 31L381 31L381 15.5L381 0L335.5 0L290 0L290 15.5Z" />
		<path id="Layer" fill-rule="evenodd" class="shp0" d="M421.5 0L472.5 0L491 18.5L491 138.5L471.5 158L422.5 158L403 138.5L403 18.5L421.5 0ZM454 31L440 31L440 126L454 126L454 31Z" />
		<path id="Layer" fill-rule="evenodd" class="shp0" d="M516 0L586.5 0L605 18.5L605 84.4L599.6 90L594.2 95.5L601.6 126C605.6 142.8 609 156.8 609 157.2C609 157.7 600.8 158 590.7 158L572.5 158L567.1 132.7C564.2 118.9 561.6 106.7 561.4 105.7C561 104.5 559.8 104 556.9 104L553 104L553 158L516 158L516 0ZM568 31L553 31L553 72L568 72L568 31Z" />
		<path id="Layer" class="shp0" d="M629 79L629 158L647.5 158L666 158L666 79L666 0L647.5 0L629 0L629 79Z" />
		<path id="Layer" fill-rule="evenodd" class="shp0" d="M710.4 0L736.7 0C751.2 0 763 0.2 763 0.5C763 1.1 785.8 150.5 786.5 154.8L787.1 158L767.8 157.8L748.5 157.5L744.5 124.5L735 124.2L725.4 123.9L723.6 141L721.7 158L704.4 158C691.1 158 687 157.7 687 156.7C687 156.1 692.2 120.5 698.7 77.7L710.4 0ZM737.5 66C736.3 56.4 735.1 49.2 734.7 50C734.4 50.8 733.2 59.6 732 69.5C730.9 79.4 729.6 89 729.3 90.7L728.8 94L741.1 94L740.4 88.8C740 85.9 738.7 75.7 737.5 66Z" />
		<path id="Layer" class="shp0" d="M812 17.6L812 35.1L804.4 49.6L796.8 64L814.4 64L832 64L840.5 47L849 30L849 15L849 0L830.5 0L812 0L812 17.6Z" />
		<path id="Layer" class="shp0" d="M881.2 9.3L872 18.5L872 46L872 73.5L881.8 83.3L891.5 93L906.8 93L922 93L922 109.5L922 126L913.5 126L905 126L905 116L905 106L887.5 106L870 106L870 122.3L870 138.5L879.8 148.3L889.5 158L914.5 158L939.5 158L949.3 148.2L959 138.5L959 109.5L959 80.5L949.7 71.2L940.5 62L924.7 62L909 62L909 46.5L909 31L915.5 31L922 31L922 41L922 51L939.5 51L957 51L957 34.7L957 18.5L947.7 9.2L938.5 0L914.5 0L890.5 0L881.2 9.3Z" />
		<path id="Layer" class="shp0" d="M1046.2 9.3L1037 18.5L1037 46L1037 73.5L1046.8 83.3L1056.5 93L1071.8 93L1087 93L1087 109.5L1087 126L1078.5 126L1070 126L1070 116L1070 106L1052.5 106L1035 106L1035 122.3L1035 138.5L1044.8 148.3L1054.5 158L1079.5 158L1104.5 158L1114.3 148.2L1124 138.5L1124 109.5L1124 80.5L1114.7 71.2L1105.5 62L1089.7 62L1074 62L1074 46.5L1074 31L1080.5 31L1087 31L1087 41L1087 51L1104.5 51L1122 51L1122 34.7L1122 18.5L1112.7 9.2L1103.5 0L1079.5 0L1055.5 0L1046.2 9.3Z" />
		<path id="Layer" class="shp0" d="M1148 79L1148 158L1190 158L1232 158L1232 142L1232 126L1208.5 126L1185 126L1185 109.5L1185 93L1205 93L1225 93L1225 77.5L1225 62L1205 62L1185 62L1185 46.5L1185 31L1208.5 31L1232 31L1232 15.5L1232 0L1190 0L1148 0L1148 79Z" />
		<path id="Layer" class="shp0" d="M1263.2 9.3L1254 18.5L1254 79L1254 139.5L1263.3 148.8L1272.5 158L1296.5 158L1320.5 158L1330.3 148.2L1340 138.5L1340 122.2L1340 106L1323 106L1306 106L1306 116L1306 126L1298 126L1290 126L1290 78.5L1290 31L1298 31L1306 31L1306 41L1306 51L1323 51L1340 51L1340 34.7L1340 18.5L1330.7 9.2L1321.5 0L1297 0L1272.5 0L1263.2 9.3Z" />
		<path id="Layer" fill-rule="evenodd" class="shp0" d="M1364 0L1434.5 0L1453 18.5L1453 84.6L1448 89.5C1445.3 92.2 1443 95.1 1443 96C1443 96.9 1446.2 110.7 1450 126.8C1453.9 142.8 1457 156.4 1457 157C1457 157.7 1450.9 158 1438.8 157.8L1420.6 157.5L1409.4 104.5L1401 103.9L1401 158L1364 158L1364 0ZM1416 31L1401 31L1401 72L1416 72L1416 31Z" />
		<path id="Layer" class="shp0" d="M1477 79L1477 158L1519.5 158L1562 158L1562 142L1562 126L1538 126L1514 126L1514 109.5L1514 93L1534 93L1554 93L1554 77.5L1554 62L1534 62L1514 62L1514 46.5L1514 31L1538 31L1562 31L1562 15.5L1562 0L1519.5 0L1477 0L1477 79Z" />
		<path id="Layer" class="shp0" d="M1582 15.5L1582 31L1595.5 31L1609 31L1609 94.5L1609 158L1627.5 158L1646 158L1646 94.5L1646 31L1659.5 31L1673 31L1673 15.5L1673 0L1627.5 0L1582 0L1582 15.5Z" />
		<path id="Layer" fill-rule="evenodd" class="shp0" d="M637 200L706.5 200L726 219.5L726 285.5L706.5 305L674 305L674 358L637 358L637 200ZM689 232L674 232L674 273L689 273L689 232Z" />
		<path id="Layer" class="shp0" d="M751 279L751 358L769.5 358L788 358L788 279L788 200L769.5 200L751 200L751 279Z" />
		<path id="Layer" class="shp0" d="M815 279L815 358L830 358L845 358L845.1 324.7L845.1 291.5L856.4 324.5L867.7 357.5L885.9 357.8L904 358L904 279L904 200L889 200L874 200L873.8 233.5L873.5 267.1L862 233.5L850.6 200L832.8 200L815 200L815 279Z" />
		<path id="Layer" class="shp0" d="M931 279L931 358L949.5 358L968 358L968 338.7L968.1 319.5L971.9 312.7L975.7 306L985.5 331.2C990.9 345.1 995.6 356.8 996 357.3C996.3 357.7 1005.5 357.9 1016.2 357.8L1035.8 357.5L1018.4 313.5C1008.9 289.3 1000.6 268.1 1000 266.4C999 263.4 999.8 261.6 1015.5 233.1C1024.6 216.5 1032.3 202.3 1032.6 201.5C1033.2 200.1 1030.8 200 1013.4 200.2L993.6 200.5L980.8 227.5L968 254.5L968 227.2L968 200L949.5 200L931 200L931 279Z" />
	</g>
</svg>
