<svg xmlns="http://www.w3.org/2000/svg" width="80" height="25" viewBox="0 0 80 25">
    <path fill="#ff3399" fill-rule="nonzero" d="M46.6 0h9.7v5.6h-2V25h-6.4l-6.5-14.1v8.5h2.1V25h-9.6v-5.6h2V5.6h-2V0h8.7l6.2 13.3V5.6h-2.2V0zM21.3 5.6h2v13.8h-2V25h10v-5.6h-2.1V5.6h2.1V0h-10v5.6zm57.1 13.8L74 9.8l3.9-4.2h1.7V0h-9.5v5.4h1.3l-4.9 5.2V5.4h1.9V0h-9.7v5.6h2v13.8h-2V25h9.7v-5.6h-1.9v-1.8l3.1-3.1 2.1 4.9h-1.6V25H80v-5.6h-1.6zM14.8 0l4 4.2v8.2l-4 4.1H8v3h2.2V25H0v-5.6h2V5.6H0V0h14.8zm-1.9 5.6H8V11h4.9V5.6z"/>
</svg>
