<svg width="32" height="10" viewBox="0 0 32 10" xmlns="http://www.w3.org/2000/svg">
    <path d="M22.52 0v2.24h-.8V10h-2.56l-2.6-5.64v3.4h.84V10h-3.84V7.76h.8V2.24h-.8V0h3.48l2.48 5.32V2.24h-.88V0h3.88zM9.32 2.24v5.52h-.8V10h4V7.76h-.84V2.24h.84V0h-4v2.24h.8zM29.6 3.92l1.56-1.68h.68V0h-3.8v2.16h.52L26.6 4.24V2.16h.76V0h-3.88v2.24h.8v5.52h-.8V10h3.88V7.76h-.76v-.72l1.24-1.24.84 1.96h-.64V10H32V7.76h-.64L29.6 3.92zM7.52 1.68v3.28L5.92 6.6H3.2v1.2h.88V10H0V7.76h.8V2.24H0V0h5.92l1.6 1.68zm-4.32.56V4.4h1.96V2.24H3.2z" fill="#221D1D" fill-rule="evenodd"/>
</svg>
