<svg width="28" height="15" viewBox="0 0 28 15" xmlns="http://www.w3.org/2000/svg">
    <g fill="#000" fill-rule="nonzero">
        <path d="m0 10.24 1.8-.175c.209 2.009.538 2.69 1.361 2.69.703 0 1.109-.495 1.109-1.548 0-1.34-.9-2.25-1.855-3.403C1.36 6.553.23 5.312.23 3.271.23 1.24 1.24 0 3.018 0c2.108 0 2.755 1.416 2.997 3.842l-1.811.208c-.187-1.965-.516-2.349-1.186-2.349-.592 0-.878.516-.878 1.394 0 1.515.878 2.404 1.811 3.502C5.016 7.837 6.17 9 6.17 11.13c0 2.162-1.142 3.282-3.04 3.282-2.36 0-2.877-1.669-3.129-4.171zM9.955 14.313h-1.8L6.366.132h1.91l.78 7.683c.076.845.153 1.888.186 2.909 0 0 .055-.55.022-.1.033-.57.23-2.469.263-2.809l.955-7.683h1.493l.878 7.628c.099.922.187 1.877.252 2.986h.022c.033-1.13.11-1.91.209-2.964l.746-7.64h1.778l-1.8 14.182h-1.8L11.13 4.193h-.033l-1.142 10.12zM16.936.132h1.943v14.137h-1.954V.132zM20.47.132h2.316l1.45 10.032h.021L25.706.132H28v14.137h-1.811V6.586c0-.9.022-1.658.033-2.35h-.033c-.077.879-.23 2.042-.34 2.767l-1.142 7.266h-1.13l-1.142-7.266a30.27 30.27 0 0 1-.33-2.755h-.032c.022.362.022 1.492.022 2.327v7.683h-1.603V.132h-.022z"/>
    </g>
</svg>
