<svg xmlns="http://www.w3.org/2000/svg" width="55" height="26" viewBox="0 0 55 17">
    <g fill="#FFF" fill-rule="nonzero">
        <path d="M0 0h2.272a3.466 3.466 0 0 1-.636.321C2.316 2.28 3.1 4.2 3.826 6.141c.687-1.699 1.353-3.406 2.033-5.108.098-.24.166-.49.202-.747a4.542 4.542 0 0 0-.523-.154L5.544 0h1.802l.002.155c-.2.045-.423.056-.595.18-.166.142-.254.348-.342.542-.774 1.87-1.568 3.733-2.347 5.602-.126.3-.223.623-.448.868a4.672 4.672 0 0 1-.26-.553c-.77-1.934-1.547-3.866-2.318-5.8C.934.75.836.477.613.313.427.2.203.186 0 .123V0zM49.109.495c.026-.306.472-.336.625-.113.376.556.059 1.445-.619 1.577.194-.258.478-.509.456-.861C49.504.835 49.08.8 49.11.495zM12.67 1.808c.544-.597 1.337-.927 2.136-.982.775-.06 1.556.105 2.266.415.032.354.006.71-.017 1.064a.875.875 0 0 1-.114.38c-.097-.33-.096-.71-.33-.984-.251-.274-.609-.427-.968-.506-.702-.155-1.485-.061-2.083.357-.572.41-.868 1.104-.956 1.785-.11.88.026 1.82.516 2.572.28.435.702.782 1.198.939a2.593 2.593 0 0 0 2.116-.232c.262-.157.422-.423.598-.665.044-.083.144-.09.222-.124-.127.625-.648 1.1-1.232 1.31-.55.185-1.146.185-1.713.096-.939-.142-1.8-.77-2.182-1.646-.55-1.22-.392-2.788.542-3.78zM27.502.864a3.855 3.855 0 0 1 2.033.257c.87.36 1.538 1.188 1.682 2.123.15.885.017 1.839-.47 2.603a3.074 3.074 0 0 1-1.509 1.234 3.553 3.553 0 0 1-2.843-.137c-.55-.284-.986-.764-1.258-1.315-.449-.903-.488-2.01-.06-2.928.418-.976 1.362-1.716 2.425-1.837zm.054.273c-.578.09-1.136.385-1.477.868-.445.604-.545 1.384-.507 2.114.048.839.366 1.693 1.006 2.258.606.523 1.483.754 2.257.514.559-.169 1.062-.56 1.315-1.093.338-.727.42-1.56.277-2.347-.1-.653-.393-1.29-.889-1.736a2.4 2.4 0 0 0-1.982-.578zM43.79 6.452c.724-1.89 1.369-3.81 2.124-5.689.2.264.295.584.414.888.598 1.54 1.194 3.08 1.79 4.621.102.243.22.505.455.647.196.101.437.104.6.269-.705.044-1.413.02-2.12.015.071-.21.322-.178.495-.235-.04-.4-.226-.76-.362-1.133-.14-.372-.275-.745-.43-1.11-.622.003-1.243.002-1.864.002-.21.62-.46 1.227-.615 1.864-.023.117-.076.28.048.36.128.079.285.088.43.119v.138c-.633-.006-1.268.024-1.9-.02.152-.119.338-.17.516-.236.219-.078.334-.298.419-.5zm2.005-4.444c-.284.796-.534 1.605-.806 2.405h1.652c-.281-.802-.549-1.609-.846-2.405zM51.973 1.304c.294-.289.702-.432 1.105-.478.548-.062 1.098.06 1.61.251 0 .328.016.656-.019.983a41.82 41.82 0 0 0-.11.076c-.094-.279-.142-.615-.405-.791a1.744 1.744 0 0 0-1.134-.224c-.29.046-.574.188-.747.43a.994.994 0 0 0 .107 1.232c.687.715 1.691 1.072 2.265 1.907.441.59.393 1.487-.123 2.017-.392.428-.987.587-1.55.59a2.942 2.942 0 0 1-1.495-.32c.004-.333-.013-.665 0-.998-.001-.116.046-.223.092-.327.103.35.144.76.441 1.013.458.359 1.114.423 1.65.209.283-.11.525-.337.633-.625.144-.36.042-.78-.183-1.085-.33-.448-.83-.715-1.28-1.021-.428-.29-.854-.622-1.111-1.082a1.525 1.525 0 0 1 .254-1.757zM8.36 1.064L8.362.92c.54.014 1.08-.003 1.619.005.153 0 .303.031.447.079-.196.078-.433.077-.598.22-.117.189-.094.424-.106.638C9.717 3.27 9.72 4.68 9.72 6.089c.012.25-.009.517.112.743.156.224.461.195.7.23 0 .038-.003.112-.004.15-.714-.004-1.428-.004-2.142 0l-.01-.129c.184-.05.435-.056.526-.258.091-.235.094-.492.1-.741V1.921c-.014-.235.005-.498-.134-.7-.132-.135-.338-.12-.508-.157zM18.52.925c1.743.052 3.487.06 5.229.006l-.017 1.04-.137.01c-.046-.224-.078-.54-.35-.596-.565-.133-1.149-.043-1.722-.065.003 1.643 0 3.287.002 4.93.01.24.008.528.21.694.177.111.398.09.598.113v.152c-.735-.005-1.47.013-2.205-.01.085-.227.4-.122.52-.312.135-.203.124-.458.132-.69.004-1.626-.002-3.253.002-4.88-.583.026-1.175-.065-1.749.066-.314.073-.278.472-.382.707-.153-.37-.11-.775-.13-1.165zM32.546 1.002c.438-.12.894-.05 1.34-.063.71.008 1.465-.093 2.128.224.4.17.694.547.787.969.125.518-.07 1.07-.416 1.462-.244.288-.571.49-.915.638.85.604 1.057 1.723 1.817 2.41.25.263.6.41.961.431l.002.134c-.496-.01-1.05.088-1.486-.208-.496-.365-.755-.944-1.082-1.447-.255-.39-.463-.837-.86-1.106-.209-.15-.478-.111-.719-.124 0 .681-.01 1.362.002 2.043.008.212.032.468.225.597.182.093.395.076.592.095l.002.154c-.725-.007-1.45.008-2.174-.008.066-.245.407-.111.52-.31.136-.245.117-.536.13-.807-.003-1.463.01-2.925-.005-4.388 0-.16-.015-.345-.157-.446-.202-.147-.461-.168-.692-.25zm1.557.254c0 .923-.007 1.847.004 2.77.52.095 1.139.172 1.57-.207.582-.573.61-1.615.063-2.22-.423-.43-1.081-.428-1.637-.343zM39.453.954c.69-.06 1.382-.019 2.073-.026.001.048.004.095.006.141-.18.035-.413.004-.534.17-.106.189-.085.415-.094.625a1236.28 1236.28 0 0 0 0 4.278c.013.246-.019.528.148.731.172.181.443.156.67.185l.001.153c-.718-.003-1.435 0-2.153-.001l-.006-.113c.305-.016.601-.242.606-.564.035-1.556.005-3.113.014-4.67-.012-.231.007-.512-.176-.685-.183-.082-.397-.09-.555-.224zM12.033 9.344c.365-.287.829-.43 1.289-.453.58-.033 1.152.1 1.707.257v1.102h-.165c-.084-.286-.152-.617-.41-.8a1.965 1.965 0 0 0-1.405-.28c-.32.053-.64.197-.831.469-.294.387-.315.965-.01 1.352.388.516.97.828 1.486 1.197.565.39 1.131.845 1.419 1.486.376.866-.055 2.022-.97 2.335-.913.367-1.969.278-2.849-.143v-1.34l.152-.009c.038.5.268 1.032.746 1.253.516.215 1.124.259 1.648.047.388-.15.7-.488.793-.897.124-.494-.099-1.014-.45-1.36-.531-.53-1.232-.84-1.798-1.326-.385-.324-.747-.722-.876-1.22-.146-.594.045-1.277.524-1.67zM24.228 10.028c1.092-.476 2.35-.313 3.425.124-.004.478-.003.957-.06 1.431a.321.321 0 0 1-.14-.238c-.053-.27-.105-.563-.308-.765-.322-.313-.77-.46-1.209-.502-.58-.052-1.203 0-1.7.332-.626.383-.957 1.104-1.052 1.81-.103.794-.017 1.632.353 2.35.262.503.678.943 1.211 1.151.667.265 1.437.218 2.085-.079.366-.168.602-.512.824-.833l.196-.02a2.093 2.093 0 0 1-1.465 1.339 3.814 3.814 0 0 1-1.956-.08 2.834 2.834 0 0 1-1.573-1.238c-.486-.813-.595-1.827-.353-2.737a3.066 3.066 0 0 1 1.722-2.045zM16.747 9.866c1.363.07 2.73.06 4.093-.001-.03.377.084.792-.108 1.139-.1-.275-.181-.655-.517-.723-.676-.101-1.361-.045-2.041-.062-.01.805-.008 1.609-.002 2.413.591-.008 1.184.034 1.773-.026.106-.129.205-.261.306-.394.107.476.044.965.046 1.448-.17-.037-.16-.223-.217-.351a.409.409 0 0 0-.332-.297c-.522-.073-1.05-.03-1.576-.047.005.918-.03 1.838.022 2.756.428.162.89.096 1.335.102.377-.012.786.034 1.127-.158.21-.148.207-.434.26-.66l.14.01c-.009.372-.007.745-.006 1.119-1.04.002-2.08 0-3.12.001-.384-.001-.77.018-1.152-.034.248-.148.674-.216.665-.582.061-1.534 0-3.07.027-4.605-.004-.212.02-.436-.06-.637-.144-.218-.436-.22-.666-.263l.003-.148zM28.978 9.912c.498-.106 1.008-.036 1.512-.054.66 0 1.358-.05 1.972.236.5.25.847.8.796 1.367-.04.778-.655 1.4-1.341 1.695.738.568.99 1.515 1.59 2.198.22.24.464.489.79.57.146.05.337.042.415.203-.561.014-1.217.091-1.67-.315-.693-.676-.98-1.655-1.664-2.339-.22-.232-.563-.214-.856-.242.011.745-.044 1.492.026 2.235.012.126.031.267.133.354.183.154.435.152.66.183l-.002.131c-.74-.017-1.483.044-2.22-.037.18-.1.374-.168.57-.233.082-.252.135-.514.132-.781.002-1.426-.002-2.853.002-4.28 0-.22.006-.485-.169-.65-.215-.106-.461-.13-.676-.241zm1.54.267c.002.927-.009 1.856.008 2.784.446.034.928.138 1.349-.067.451-.242.674-.774.676-1.268.003-.461-.152-.97-.552-1.238-.429-.298-.986-.315-1.481-.211zM35.517 9.862c1.362.08 2.727.059 4.09.005-.008.38.003.761-.038 1.14-.208-.209-.19-.622-.512-.705-.693-.144-1.404-.06-2.106-.079-.008.802-.007 1.603-.001 2.405.533 0 1.066.026 1.598-.003.246.002.345-.268.511-.405.028.468.008.936.012 1.404h-.144c-.033-.227-.077-.532-.342-.596-.539-.101-1.09-.045-1.635-.06-.006.795-.006 1.59-.002 2.384 0 .166.014.422.23.441.473.067.953.027 1.43.026.284-.014.598 0 .843-.17.184-.162.2-.427.268-.648l.14.016c-.013.373-.022.746-.025 1.119-1.425-.025-2.852.046-4.275-.038.18-.103.384-.16.55-.286.148-.231.138-.523.154-.787.008-1.408 0-2.816.004-4.224-.005-.202.004-.434-.139-.596-.165-.154-.408-.15-.616-.188l.005-.155zM40.983 9.837c1.196.114 2.398.053 3.597.068.546.004 1.093.01 1.637-.046-.008.372 0 .745-.03 1.116-.211-.115-.145-.395-.288-.559-.086-.12-.243-.137-.377-.147-.509-.035-1.02-.004-1.528-.01.016 1.734-.035 3.47.024 5.204-.003.16.056.333.212.4.215.102.454.134.673.226-.616.096-1.24.023-1.86.05a1.07 1.07 0 0 1-.485-.08c.184-.082.416-.093.56-.247.144-.253.126-.558.131-.839-.002-1.571 0-3.143 0-4.715-.56.015-1.122-.044-1.678.027-.115.014-.242.06-.28.18-.068.187-.118.383-.24.543-.062-.387-.06-.78-.068-1.171z"/>
    </g>
</svg>
