<svg width="60" height="18" viewBox="0 0 60 18" xmlns="http://www.w3.org/2000/svg" xmlns:xlink="http://www.w3.org/1999/xlink">
    <defs>
        <path id="uixygyq05a" d="M0 0h59.4v18H0z"/>
    </defs>
    <g fill="none" fill-rule="evenodd">
        <mask id="zjqgqb8k6b" fill="#fff">
            <use xlink:href="#uixygyq05a"/>
        </mask>
        <g mask="url(#zjqgqb8k6b)" fill="#221D1D">
            <path d="M0 .169V0h2.316v.145c-.41.024-.531.096-.531.24 0 .218.096.387 2.316 6.224l2.17-5.5c.097-.265.193-.554.193-.723 0-.241-.313-.241-.53-.241V0h1.953l-.024.169c-.579.048-.747.193-.965.723L4.052 7.646c-.048.12-.096.17-.144.17-.049 0-.121-.05-.145-.146L1.037.892C.796.29.531.17 0 .17zm8.973 7.574v-.17h.048c.627 0 .627-.41.627-1.23V2.099c0-.82-.096-.94-.7-.964V.989h2.123v.169c-.65 0-.675.169-.675 1.23v3.98c0 .989.048 1.206.892 1.206v.169H8.973zm7.115.072c-2.122 0-3.425-1.447-3.425-3.473 0-1.882 1.327-3.498 3.546-3.498.675 0 1.278.12 1.978.41.12.049.145.097.145.17l-.073 1.35h-.144c0-.386-.097-.844-.386-1.086-.41-.313-.893-.482-1.665-.482-1.785 0-2.605 1.35-2.605 2.991 0 1.64.869 3.305 2.702 3.305 1.037 0 1.712-.386 2.074-1.062.073-.145.097-.169.193-.145.073 0 .073.049.024.193-.337.796-1.133 1.327-2.364 1.327zm9.215-5.692c-.049-.531-.097-.7-.917-.7h-1.303v4.993c0 1.061.121 1.158.869 1.158v.169h-2.316v-.17c.58 0 .651-.264.651-.964v-5.21h-1.11c-.892 0-1.085.024-1.109.7H19.9L19.851.964a28.5 28.5 0 0 0 1.303.048h3.063c.53 0 .965 0 1.23-.048l.024 1.158h-.168zm1.278 2.219c0-1.423 1.037-3.474 3.497-3.474 2.002 0 3.498 1.255 3.498 3.329 0 2.002-1.4 3.642-3.546 3.642-2.436 0-3.45-1.905-3.45-3.497zm.844-.241c0 2.074 1.254 3.4 2.846 3.4.796 0 2.46-.458 2.46-3.039 0-2.122-1.302-3.28-2.7-3.28-1.472 0-2.606.965-2.606 2.919zm12.88 3.642c-.94 0-1.278-.627-1.784-1.423-.435-.676-.869-1.616-1.472-1.665l-.41-.024c-.048 0-.072 0-.072.073V6.44c0 1.062.193 1.11.892 1.11v.169h-2.243v-.17c.53-.023.651-.096.651-1.109V1.785c0-.482-.29-.603-.772-.603V.989h2.34c1.254 0 2.123.579 2.123 1.664 0 .893-.724 1.616-1.496 1.882.676.24 1.206 1.785 1.785 2.363.58.604.796.676 1.255.676v.169h-.796zm-1.52-4.897c0-.989-.602-1.568-1.543-1.568-.506 0-.651 0-.651.17v2.749c0 .096 0 .12.169.169.024 0 .458.024.7.024.82 0 1.326-.603 1.326-1.544zm3.691 4.897v-.17h.049c.627 0 .627-.41.627-1.23V2.099c0-.82-.097-.94-.7-.964V.989h2.123v.169c-.651 0-.676.169-.676 1.23v3.98c0 .989.049 1.206.893 1.206v.169h-2.316zm8.563-.386c0-.097 0-.12-.096-.362l-.7-1.857c-.024-.049-.048-.049-.072-.049h-1.906c-.048 0-.072.025-.096.073l-.483 1.423c-.048.169-.168.53-.168.724 0 .193.193.265.554.289v.169H46.12l.024-.169c.579-.048.772-.265.965-.82l2.05-5.572c.12-.29.12-.314.193-.314.048 0 .072.049.193.314l2.122 5.5c.193.53.434.868 1.038.868l.024.169h-2.123v-.17h-.024c.338-.023.458-.096.458-.216zM49.254 2.29c-.024-.048-.048-.096-.072-.096-.024 0-.048.048-.072.096l-.796 2.388v.025c0 .024.024.024.048.024h1.712c0 .024.024.024.024 0l-.844-2.437zm3.401-.12v-.145c.53-.072.724-.41.724-.627 0-.193-.12-.362-.41-.507-.193-.096-.314-.168-.314-.361 0-.193.17-.338.362-.338.386 0 .724.314.724.844 0 .603-.434 1.013-1.086 1.134zm2.63 5.306V6.175h.168c.024.989.7 1.35 1.52 1.35.916 0 1.399-.602 1.399-1.157 0-.724-.434-1.134-1.4-1.761-1.278-.82-1.615-1.423-1.615-2.074 0-.941.723-1.665 1.881-1.665.627 0 1.061.12 1.472.29v1.061h-.17c-.048-.193-.072-.362-.168-.579-.048-.096-.314-.482-1.23-.482-.7 0-1.206.458-1.206 1.085 0 .603.458.965 1.495 1.665 1.037.699 1.544 1.35 1.544 2.074.024 1.085-.82 1.857-2.074 1.857-.531 0-1.062-.024-1.617-.362zM12.06 16.161h.193c.073 1.158.869 1.52 1.785 1.52 1.061 0 1.665-.7 1.665-1.4 0-.82-.531-1.326-1.617-2.002-1.47-.94-1.833-1.664-1.833-2.34 0-1.085.82-1.857 2.22-1.857.498 0 1.037.097 1.615.29v1.158h-.193c-.048-.193-.072-.41-.192-.603-.073-.121-.41-.58-1.448-.58-.82 0-1.423.531-1.423 1.28 0 .723.555 1.133 1.737 1.953 1.182.772 1.737 1.544 1.737 2.315 0 1.954-1.954 2.075-2.437 2.075-.788-.016-1.39-.161-1.809-.434V16.16zm10.493 1.688h-4.487v-.169c.459 0 .652-.12.652-.989v-4.824c0-.434-.29-.579-.796-.579v-.193c.361.025.892.049 1.374.049h1.906c.193 0 1.085-.024 1.085-.049l-.024 1.134h-.169c-.048-.7-.458-.772-1.278-.772h-1.302c-.097 0-.097.024-.097.097v2.436c0 .048 0 .096.048.096h1.592c.29 0 .41-.096.459-.361h.168v1.423h-.168c-.025-.314-.025-.603-.531-.676a37.858 37.858 0 0 0-1.52-.048c-.048 0-.072.024-.072.072v2.557c.024.459.024.459 1.182.459.362 0 1.182 0 1.375-.097.265-.12.362-.362.386-.772h.24l-.023 1.206zm4.848.097c-2.123 0-3.425-1.448-3.425-3.474 0-1.881 1.327-3.497 3.546-3.497.675 0 1.278.12 1.977.41.097.048.121.072.121.169l-.072 1.35h-.145c0-.385-.096-.844-.386-1.085-.41-.338-.892-.506-1.664-.506-1.785 0-2.605 1.35-2.605 2.99 0 1.64.868 3.305 2.701 3.305 1.037 0 1.713-.386 2.075-1.061.072-.145.096-.17.193-.145.12 0 .12.048.048.217-.338.796-1.134 1.327-2.364 1.327zm9.021-.097c-.94 0-1.278-.627-1.785-1.423-.434-.675-.868-1.616-1.471-1.664l-.41-.024c-.048 0-.073 0-.073.072v1.737c0 1.061.193 1.11.893 1.11v.192h-2.267v-.169c.53-.024.65-.096.65-1.11v-4.679c0-.482-.289-.603-.771-.603v-.193h2.34c1.254 0 2.122.58 2.122 1.665 0 .892-.723 1.616-1.495 1.881.675.241 1.23 1.785 1.785 2.364.554.603.796.675 1.254.675v.17h-.772zm-1.52-4.896c0-.99-.603-1.568-1.543-1.568-.507 0-.651 0-.651.169v2.75c0 .096 0 .12.168.168.025 0 .483.024.7.024.82 0 1.327-.603 1.327-1.543zm7.791 4.896h-4.486v-.169c.458 0 .651-.12.651-.989v-4.824c0-.434-.29-.579-.796-.579v-.193c.362.025.893.049 1.375.049h1.906c.193 0 1.085-.024 1.085-.049l-.024 1.134h-.169c-.048-.7-.458-.772-1.278-.772h-1.303c-.096 0-.096.024-.096.097v2.436c0 .048 0 .096.048.096h1.592c.29 0 .41-.096.458-.361h.17v1.423h-.17c-.024-.314-.024-.603-.53-.676a37.858 37.858 0 0 0-1.52-.048c-.048 0-.072.024-.072.072v2.557c.024.459.024.459 1.182.459.361 0 1.181 0 1.374-.097.266-.12.362-.362.386-.772h.242l-.025 1.206zm6.682-5.62c-.048-.53-.097-.7-.917-.7h-1.302v4.994c0 1.06.12 1.157.868 1.157v.17H45.71v-.17c.578 0 .65-.265.65-.964v-5.21H45.25c-.892 0-1.085.024-1.11.699h-.168l-.048-1.134a28.5 28.5 0 0 0 1.302.049h3.063c.531 0 .965 0 1.23-.049l.025 1.158h-.17z"/>
        </g>
    </g>
</svg>
