<svg xmlns="http://www.w3.org/2000/svg" width="55" height="22" viewBox="0 0 55 22">
    <path fill="#000" fill-rule="nonzero" d="M31.31 0c.282.043.586.065.869.13 1.087.218 1.63.783 1.87 1.522.152.457.217.957.217 1.435.044 3.175.044 6.371.066 9.545a2.84 2.84 0 0 1-.414 1.5c-.413.631-1.152.936-2.196.936-.565 0-1.152-.066-1.717-.153-1.153-.217-1.718-.804-1.957-1.522a4.462 4.462 0 0 1-.218-1.413 660.724 660.724 0 0 1 0-9.284c0-.652.174-1.304.718-1.87.435-.456 1.087-.652 1.848-.717.109 0 .24-.022.348-.044C30.94 0 31.135 0 31.309 0zm1.304 7.566c0-1.63-.022-3.261-.022-4.87 0-.26-.043-.522-.13-.783-.153-.456-.674-.76-1.261-.782-.761-.022-1.24.174-1.479.674a1.67 1.67 0 0 0-.196.782c0 3.283 0 6.567.022 9.85 0 .282.087.565.218.848.195.413.739.674 1.348.695.608.022 1.152-.173 1.326-.565.13-.282.196-.587.196-.891 0-1.674 0-3.327-.022-4.958zM15.764 0c.282.043.586.065.87.13 1.064.218 1.586.805 1.847 1.522.13.37.196.761.196 1.131.022.783 0 1.544 0 2.327 0 .326-.065.37-.522.413a7.012 7.012 0 0 1-.674.043c-.391 0-.478-.043-.478-.348 0-.804.021-1.63.021-2.435 0-.26-.043-.522-.13-.76-.174-.545-.696-.827-1.392-.827-.695 0-1.239.326-1.413.891-.087.261-.13.544-.13.805-.044 3.587-.087 7.175-.109 10.762 0 .326.065.653.196.935.195.413.717.566 1.326.435.609-.109 1.13-.456 1.326-.935.13-.326.196-.652.218-.956.043-.761.021-1.5.021-2.24 0-.283.11-.37.5-.435.261-.043.544-.065.805-.087.217-.022.391.044.391.218-.043 1.043-.087 2.087-.174 3.13-.021.24-.173.522-.304.783-.391.761-1.152 1.261-2.196 1.522a7.897 7.897 0 0 1-1.696.283c-1.13.065-1.696-.435-1.913-1.196a6.008 6.008 0 0 1-.196-1.544c.022-3.5.065-7.022.109-10.523 0-.696.174-1.37.63-1.979.435-.608 1.131-.87 2-.956A.931.931 0 0 1 15.243 0h.521zm24.96 9.067c.348.956.674 1.87 1 2.804.5 1.435 1 2.914 1.5 4.414.109.305 0 .392-.37.305a5.445 5.445 0 0 1-.565-.153c-.543-.13-.587-.195-.739-.608a336.977 336.977 0 0 0-2.37-6.74c0-.022-.022-.022-.043-.066-.305-.043-.63-.065-1.022-.109v.283l.065 5.892c0 .435-.044.457-.652.348-1.11-.174-1.044-.13-1.044-.913-.043-4.61-.087-9.24-.109-13.85 0-.391.066-.435.61-.435.912 0 1.825 0 2.739.022.348 0 .717.065 1.043.13 1.087.218 1.588.848 1.761 1.653.11.522.153 1.043.174 1.544.022 1.065.044 2.109 0 3.174 0 .37-.087.74-.217 1.087-.24.74-.783 1.174-1.761 1.218zM38.05 1.522l.065 6.153c.565.044 1.109.109 1.652.152.522.044.913-.13 1.066-.5.108-.26.173-.522.173-.804 0-1.174-.021-2.37-.021-3.544 0-.174-.044-.37-.087-.544-.13-.522-.566-.848-1.218-.891-.543-.022-1.065-.022-1.63-.022zm11.697 12.785c-.065.456-.13.891-.174 1.348-.109.891-.217 1.783-.326 2.652-.022.261-.174.348-.522.218-.26-.109-.5-.196-.76-.283-.305-.13-.457-.304-.414-.544a1209.81 1209.81 0 0 0 .913-5.914c.174-1.174.348-2.348.522-3.565.196-1.37.413-2.762.609-4.153.152-1.087.326-2.174.478-3.305.044-.283.218-.413.5-.413h1.066c.26.022.434.13.456.413.261 1.87.544 3.761.826 5.697.283 1.978.566 4.022.848 6.087.24 1.762.457 3.545.674 5.35.11.934.24 1.89.37 2.847.065.522-.043.61-.522.348-.195-.108-.391-.195-.587-.304-.37-.196-.5-.348-.543-.761-.087-.652-.153-1.305-.218-1.935-.087-.848-.174-1.696-.282-2.544 0-.087-.13-.24-.196-.283-.87-.37-1.761-.674-2.718-.956zm1.435-10.915h-.087c-.391 3.283-.76 6.457-1.152 9.588.848.24 1.674.5 2.5.761-.413-3.587-.848-7.023-1.261-10.35zM3.609 16.829c.087-.718.152-1.435.24-2.131.152-1.392.304-2.761.456-4.131.13-1.087.24-2.153.37-3.218.152-1.37.326-2.718.478-4.066.109-.826.196-1.674.304-2.5.044-.348.153-.435.522-.435h.74c.326 0 .456.109.413.391-.066.544-.153 1.087-.24 1.63-.152 1.045-.304 2.088-.456 3.154-.174 1.217-.348 2.435-.522 3.696-.174 1.26-.348 2.522-.522 3.805-.196 1.435-.391 2.892-.587 4.348-.065.457-.109.914-.174 1.37-.043.413-.174.565-.587.74-.326.152-.63.282-.957.434-.304.152-.456.065-.478-.174a174.32 174.32 0 0 1-.478-3.544c-.174-1.413-.37-2.848-.544-4.305-.174-1.435-.37-2.892-.543-4.37a995.884 995.884 0 0 1-.522-4.044C.435 2.63.326 1.783.217.913.174.478.261.391.696.391h.609c.456 0 .543.066.587.5.152 1.37.26 2.74.413 4.088.152 1.587.326 3.153.5 4.718.13 1.326.26 2.631.391 3.936.109 1.065.218 2.109.326 3.152 0 .044.022.065.044.087 0-.022.022-.043.043-.043zM22.264 1.457c-.739 0-1.413.021-2.087.021-.391 0-.5-.065-.5-.347V.609c0-.218.13-.326.457-.326h6.022c.305 0 .435.087.413.304v.565c0 .196-.152.283-.434.283h-2.153v.304c-.022 4.153-.022 8.306-.043 12.459v.24c-.022.282-.11.347-.544.39-.24.022-.5.044-.74.044-.282.022-.412-.065-.434-.24v-.238l.065-12.633c-.022-.109-.022-.196-.022-.304zm23.939 7.48c.022 2.63.043 5.24.087 7.87 0 .848.065.826-.978.478-.11-.021-.196-.065-.305-.087-.26-.087-.391-.239-.391-.434v-.218c-.044-5.24-.109-10.48-.152-15.72 0-.478.043-.522.63-.522h.674c.24 0 .37.11.37.305v.304c0 2.696.043 5.37.065 8.023zm-36.071-.175a965.733 965.733 0 0 1-.087 7.936c0 .457-.065.522-.63.718-.218.065-.435.152-.674.217-.261.087-.392 0-.392-.195v-.196c.087-5.458.13-10.915.174-16.372 0-.5.044-.544.652-.544h.5c.479 0 .544.044.544.435l-.065 7.197c-.022.282-.022.543-.022.804zm17.264 13.155h-.261c-.044-.022-.065-.022-.109-.022-.043 0-.109 0-.152-.022-.065-.022-.13-.022-.196-.043a.165.165 0 0 1-.087-.044c-.022-.022-.065-.022-.087-.043a.651.651 0 0 1-.174-.087c-.087-.044-.174-.087-.239-.153a1.523 1.523 0 0 1-.217-.174 1.03 1.03 0 0 1-.218-.217.946.946 0 0 0-.13-.152c-.065-.087-.109-.174-.174-.261a.475.475 0 0 0-.065-.109c-.022-.022-.022-.043-.044-.065a1.06 1.06 0 0 1-.065-.152c0-.022-.022-.044-.022-.065-.022-.044-.022-.11-.043-.153-.022-.065-.022-.13-.044-.195-.022-.109-.022-.218-.022-.326v-.174c0-.066 0-.13.022-.196 0-.065.022-.13.044-.196 0-.022.021-.043.021-.087v-.021c0-.022 0-.022.022-.044.022-.065.044-.109.065-.174 0-.022.022-.043.022-.087v-.022c.022-.065.065-.13.109-.195l.065-.13a2.08 2.08 0 0 1 .5-.566.912.912 0 0 1 .305-.196c.065-.043.13-.065.195-.108a.651.651 0 0 0 .174-.087c.044-.022.087-.022.109-.044.065-.022.152-.043.217-.065.044-.022.087-.022.13-.022h.044c.065-.022.109-.022.174-.022h.348c.044 0 .087 0 .13.022h.044c.087 0 .174.022.26.044.044 0 .066.021.11.021.043.022.087.022.13.044.022 0 .044.022.065.022l.13.065c.11.043.218.109.305.174.152.108.283.217.392.348.043.043.087.087.108.152.022.043.065.065.087.109.065.087.109.173.152.26l.066.13c.021.044.021.066.043.11 0 .021.022.043.022.065.043.087.043.174.065.239.022.065.022.152.044.217v.022c.043.196.021.37 0 .565-.022.087-.022.174-.044.261 0 .044-.022.066-.022.087 0 .044-.021.066-.021.11v.02c-.022.044-.022.088-.044.131-.022.022-.022.066-.043.087-.022.044-.044.109-.066.152a.165.165 0 0 0-.043.087c-.022.044-.044.066-.065.11-.044.043-.066.108-.109.151-.109.13-.24.261-.37.37-.065.043-.108.087-.174.13-.043.022-.087.066-.13.087-.022.022-.044.022-.065.022-.044.022-.109.044-.152.087-.022.022-.066.022-.087.044-.022 0-.044.021-.066.021-.043.022-.087.022-.13.044-.044.022-.109.022-.152.043h-.022c-.022 0-.044.022-.087.022h-.087c-.043 0-.065.022-.109.022h-.021c-.11.022-.174.022-.261.022zm1.63-2.37v-.196c0-.022 0-.044-.021-.065 0-.044 0-.087-.022-.13v-.044c-.022-.044-.044-.087-.044-.152v-.022c-.043-.087-.087-.152-.108-.24a1.642 1.642 0 0 0-.24-.304 1.29 1.29 0 0 0-.39-.282c-.023-.022-.044-.022-.066-.044-.065-.022-.109-.043-.174-.065-.044-.022-.087-.044-.13-.044a1.102 1.102 0 0 0-.283-.043c-.109 0-.24 0-.348.022-.044.021-.109 0-.152.021h-.022c-.022 0-.065 0-.087.022-.022 0-.022 0-.043.022-.022 0-.066.022-.087.022a.651.651 0 0 0-.174.087c-.066.043-.13.065-.174.108a.586.586 0 0 0-.174.152 1.396 1.396 0 0 0-.218.283c-.021.044-.065.087-.087.152a.165.165 0 0 1-.043.087c-.022.066-.065.13-.065.218v.021c-.022.044-.022.087-.044.153-.022.13-.022.239-.022.37 0 .086 0 .151.022.238 0 .066.022.13.044.196.021.065.043.109.065.174 0 .022.022.044.022.065l.065.13a.965.965 0 0 0 .174.24c.087.087.195.174.304.26.044.044.109.066.174.088.022.022.065.022.087.043.065.022.109.044.174.066.044.021.087.021.152.043.065 0 .109.022.174.022.174 0 .37 0 .544-.044.065-.021.13-.021.195-.065h.022c.065-.022.13-.065.196-.087.065-.022.109-.065.174-.109.087-.065.174-.152.26-.239.088-.109.175-.217.218-.326.022-.065.065-.13.087-.196.022-.065.044-.152.065-.217.022-.065.022-.13.022-.217-.022-.087-.022-.13-.022-.174zm1.87 0v-2.131c0-.044 0-.087.022-.109.022-.022.043-.043.087-.043H32.7c.065 0 .152 0 .217.043h.022c.065 0 .152.044.217.065.022 0 .066.022.087.044.066.022.11.065.153.087.065.043.108.065.152.108l.174.174.13.196.13.261c.022.044.022.109.044.152.022.065.022.13.044.196a.716.716 0 0 1 0 .304c0 .044 0 .087-.022.109 0 .043-.022.087-.044.152v.022c0 .043-.043.087-.043.13a1.016 1.016 0 0 1-.109.218l-.065.065c0 .022-.022.022-.022.044a1.064 1.064 0 0 1-.282.26c-.044.022-.066.044-.11.066-.043.021-.086.043-.151.065-.022 0-.022.022 0 .043l.065.066c.087.108.174.217.283.326.021.043.065.065.087.108.043.066.108.13.152.196.087.109.174.196.26.305.088.087.153.195.24.282.065.065.108.13.174.196.021.043.065.087.087.109 0 .021.021.043.021.043v.022c-.021.043-.043.065-.087.065h-.608c-.066 0-.13-.043-.174-.087-.022-.022-.022-.043-.044-.043-.065-.087-.13-.153-.195-.24-.066-.065-.11-.13-.153-.195-.065-.087-.13-.152-.195-.24l-.022-.021-.261-.326c-.065-.066-.109-.13-.174-.196-.043-.043-.087-.087-.109-.152a.946.946 0 0 1-.13-.152s-.022-.022-.044-.022h-.652c-.022 0-.022 0-.022.022v1.456c0 .044 0 .087-.021.13-.022.023-.044.044-.087.044h-.544c-.022 0-.065-.021-.065-.065-.022-.043-.022-.065-.022-.109V20.7c-.087-.326-.087-.74-.087-1.152zm.761-.827v.74c0 .021 0 .043.044.043h.913c.087 0 .174-.022.26-.043.023 0 .044 0 .044-.022.065-.044.13-.065.174-.13a.724.724 0 0 0 .24-.414c0-.021 0-.043.021-.065.022-.087 0-.152 0-.24a.403.403 0 0 0-.043-.151c0-.022-.022-.044-.044-.066a.475.475 0 0 0-.065-.108.513.513 0 0 0-.196-.174c-.022 0-.043-.022-.043-.022a.166.166 0 0 0-.109-.043h-.022c-.021 0-.043-.022-.043-.022h-.065c-.044 0-.087-.022-.11-.022h-.869c-.022 0-.022 0-.043.022v.065c-.044.218-.044.435-.044.652zM17.09 20.46h.239c.065 0 .109.043.109.087.021.043.021.108.043.152a.651.651 0 0 0 .087.174c.043.065.087.087.152.13a.165.165 0 0 0 .087.044c.065.043.152.065.218.087h.043c.022 0 .044 0 .087.022h.326c.087 0 .152-.022.24-.044.065-.022.152-.065.217-.109.043-.043.087-.065.108-.108 0-.022.022-.022.022-.044.022-.022.022-.043.022-.065 0-.022 0-.022.022-.044.021-.065.043-.152.021-.217a.565.565 0 0 0-.195-.348 1.171 1.171 0 0 0-.283-.152c-.022-.022-.065-.022-.087-.044-.065-.021-.109-.043-.174-.065-.065-.022-.108-.043-.174-.065-.043-.022-.087-.022-.13-.044-.022 0-.044-.021-.065-.021-.044-.022-.087-.044-.13-.044-.023 0-.044-.021-.066-.021-.022-.022-.065-.022-.087-.044-.022 0-.044-.022-.065-.022a2.372 2.372 0 0 1-.24-.13 1.642 1.642 0 0 1-.304-.24c-.022-.021-.022-.043-.043-.065a.66.66 0 0 1-.11-.152c-.02-.022-.02-.043-.043-.065-.021-.043-.021-.065-.043-.109v-.021c0-.066-.022-.11-.044-.153-.021-.065-.021-.152-.021-.217 0-.087 0-.174.021-.261 0-.065.022-.13.044-.196.022-.065.065-.152.109-.217.043-.087.13-.174.195-.24.044-.043.087-.086.153-.108.043-.022.108-.065.152-.087.108-.065.217-.087.326-.13.043-.022.109-.022.152-.022.022 0 .065-.022.087-.022.109-.022.218 0 .348 0 .065 0 .109 0 .174.022h.022c.087 0 .152.022.239.043.13.044.239.087.348.153.13.087.239.173.348.304.065.087.13.196.174.304.021.044.021.087.043.109.022.044.022.109.043.152v.022c0 .065.022.13.022.196 0 .065-.043.087-.087.108H19.2a.12.12 0 0 1-.109-.065v-.022c0-.043-.022-.065-.022-.108a.309.309 0 0 0-.043-.13c-.022-.022-.022-.066-.044-.088-.021-.021-.043-.043-.043-.065-.065-.065-.13-.13-.218-.152-.043-.022-.108-.022-.152-.044-.109-.021-.217-.021-.326-.021-.065 0-.13.021-.196.043a.651.651 0 0 0-.174.087.513.513 0 0 0-.174.196c-.043.108-.065.239-.043.348.022.065.043.13.087.195a.83.83 0 0 0 .304.24l.13.065c.044.021.11.043.153.065.022 0 .043.022.065.022.065.021.109.043.174.065.044.022.087.022.13.043.044.022.11.044.153.066.043.021.065.021.109.043.065.044.152.065.217.109.109.043.196.109.304.174a.946.946 0 0 1 .153.13.594.594 0 0 1 .195.261c.022.044.044.109.065.152.044.087.044.174.066.261 0 .065.021.109.021.174 0 .109-.021.218-.043.326-.022.109-.065.196-.109.283-.065.109-.152.196-.239.304-.087.087-.174.13-.283.196-.043.022-.108.044-.152.065-.022.022-.065.022-.109.044-.021 0-.043.022-.065.022h-.021c-.066 0-.11.021-.174.021-.11.022-.24.022-.348.022h-.261c-.065-.022-.13-.022-.196-.043-.043 0-.087-.022-.152-.044-.044-.022-.109-.022-.152-.043-.066-.022-.13-.066-.196-.087l-.196-.13a1.03 1.03 0 0 1-.217-.218.474.474 0 0 0-.087-.109l-.065-.13c-.022-.044-.044-.087-.044-.13-.108-.11-.13-.153-.13-.197-.022-.065-.022-.152-.044-.217v-.087c0-.043.044-.065.087-.065h.305zm3.892-.913v-2.131c0-.044 0-.087.021-.109.022-.022.044-.043.087-.043h1.805c.043 0 .087 0 .109.021.065 0 .108.044.152.044.109.022.196.087.282.152.087.065.174.13.24.196.065.065.108.13.174.195.043.066.087.13.108.218.022.043.022.087.044.13.022.044.022.109.043.152v.087c.022.087.022.196.022.283 0 .065-.022.13-.022.196 0 .022 0 .043-.021.043v.022c0 .043-.022.087-.044.152v.022c0 .043-.022.065-.043.087a1.136 1.136 0 0 1-.305.413c-.065.065-.109.109-.196.152-.065.044-.108.065-.173.109-.066.043-.13.065-.196.087-.044.022-.065.022-.109.022-.065.021-.13.021-.174.043H21.7c-.022 0-.022 0-.022.022v1.478c0 .044-.021.066-.043.087-.022.022-.044.044-.087.044h-.478c-.022 0-.044 0-.066-.022-.065-.022-.087-.065-.087-.13v-.74c.066-.347.066-.826.066-1.282zm.76-.827v.74c0 .021 0 .021.022.021h.935c.065-.021.13-.021.196-.043a.35.35 0 0 0 .152-.087c.087-.044.152-.13.218-.196l.021-.022a.772.772 0 0 0 .087-.195c.022-.065.022-.13.022-.196 0-.043 0-.087-.022-.13 0-.044-.021-.066-.021-.11 0-.043-.022-.064-.044-.108a.78.78 0 0 0-.152-.217.767.767 0 0 0-.283-.174c-.087-.022-.174-.044-.282-.044h-.87c-.022 0-.022 0-.022.022v.022c.044.239.044.478.044.717zm14.264 1.131v-1.848c0-.022 0-.022-.022-.022h-.978c-.044 0-.087-.022-.13-.065-.023-.022-.023-.044-.023-.065v-.5c0-.044.066-.087.11-.087h2.847c.044 0 .066.021.066.065v.587c0 .043 0 .043-.044.043-.043 0-.087.022-.152.022h-.892a.047.047 0 0 0-.043.044v3.652c0 .022 0 .066-.022.087-.022.044-.043.087-.109.087h-.478c-.022 0-.043 0-.087-.021-.043-.022-.065-.044-.065-.11v-1.086c.022-.283.022-.522.022-.783z"/>
</svg>
