<?xml version="1.0" standalone="no"?>
<!DOCTYPE svg PUBLIC "-//W3C//DTD SVG 1.1//EN" "http://www.w3.org/Graphics/SVG/1.1/DTD/svg11.dtd" >
<svg xmlns="http://www.w3.org/2000/svg" xmlns:xlink="http://www.w3.org/1999/xlink" version="1.1">
<metadata>
Created by FontForge 20190801 at Tue May  2 19:44:10 2017
 By Jimmy Wärting
Copyright \\\(C\\\)2016 Commercial Type.
</metadata>
<defs>
<font id="Canela-Thin" horiz-adv-x="478" >
  <font-face 
    font-family="Canela Thin"
    font-weight="100"
    font-stretch="normal"
    units-per-em="1000"
    panose-1="0 0 0 0 0 0 0 0 0 0"
    ascent="775"
    descent="-225"
    x-height="475"
    cap-height="732"
    bbox="-130 -260 1112 1159"
    underline-thickness="20"
    underline-position="-80"
    stemh="20"
    stemv="50"
    unicode-range="U+0020-FB04"
  />
<missing-glyph horiz-adv-x="161" 
 />
    <glyph glyph-name="f_b" unicode="fb" horiz-adv-x="808" 
d="M525 -15c-75 0 -123 28 -151 59l-24 -44h-10v629c0 80 -41 130 -94 130c-65 0 -96 -48 -96 -141v-143h118v-18h-118v-318c0 -75 8 -111 23 -137v-2h-97v2c17 26 24 61 24 137v318h-63v18h63v99c0 129 56 205 158 205c33 0 58 -7 86 -21l46 21v-374h3c36 58 99 85 164 85
c122 0 211 -94 211 -239c0 -135 -79 -266 -243 -266zM537 3c97 0 173 92 173 238c0 138 -79 216 -180 215c-60 -1 -116 -36 -140 -72v-215c0 -116 70 -166 147 -166z" />
    <glyph glyph-name="f_f" unicode="ff" horiz-adv-x="531" 
d="M76 0v2c17 26 24 61 24 137v318h-63v18h63v79c0 129 53 205 145 205c28 0 50 -7 59 -14l12 -80l-6 -2c-37 53 -55 76 -88 76c-41 0 -72 -48 -72 -141v-123h190v99c0 129 53 205 145 205c28 0 50 -7 59 -14l12 -80l-6 -2c-37 53 -55 76 -88 76c-41 0 -72 -48 -72 -141
v-143h118v-18h-118v-318c0 -75 8 -111 23 -137v-2h-97v2c17 26 24 61 24 137v318h-190v-318c0 -75 8 -111 23 -137v-2h-97z" />
    <glyph glyph-name="f_f_b" unicode="ffb" horiz-adv-x="1048" 
d="M765 -15c-75 0 -123 28 -151 59l-24 -44h-10v629c0 80 -41 130 -94 130c-65 0 -96 -48 -96 -141v-143h118v-18h-118v-318c0 -75 8 -111 23 -137v-2h-97v2c17 26 24 61 24 137v318h-190v-318c0 -75 8 -111 23 -137v-2h-97v2c17 26 24 61 24 137v318h-63v18h63v79
c0 129 53 205 145 205c28 0 50 -7 59 -14l12 -80l-6 -2c-37 53 -55 76 -88 76c-41 0 -72 -48 -72 -141v-123h190v99c0 129 56 205 158 205c33 0 58 -7 86 -21l46 21v-374h3c36 58 99 85 164 85c122 0 211 -94 211 -239c0 -135 -79 -266 -243 -266zM777 3
c97 0 173 92 173 238c0 138 -79 216 -180 215c-60 -1 -116 -36 -140 -72v-215c0 -116 70 -166 147 -166z" />
    <glyph glyph-name="f_f_h" unicode="ffh" horiz-adv-x="1021" 
d="M76 0v2c17 26 24 61 24 137v318h-63v18h63v79c0 129 53 205 145 205c28 0 50 -7 59 -14l12 -80l-6 -2c-37 53 -55 76 -88 76c-41 0 -72 -48 -72 -141v-123h190v99c0 129 56 205 158 205c33 0 58 -7 86 -21l46 21v-376c51 60 116 87 180 87c93 0 140 -56 140 -146v-224
c0 -55 1 -84 22 -118v-2h-94v2c19 34 22 67 22 117v214c0 66 -28 118 -112 118c-52 0 -112 -18 -158 -66v-266c0 -52 1 -83 22 -117v-2h-94v2c19 34 22 64 22 117v510c0 80 -41 130 -94 130c-65 0 -96 -48 -96 -141v-143h118v-18h-118v-318c0 -75 8 -111 23 -137v-2h-97v2
c17 26 24 61 24 137v318h-190v-318c0 -75 8 -111 23 -137v-2h-97z" />
    <glyph glyph-name="f_f_i" unicode="ffi" horiz-adv-x="701" 
d="M173 0h-97v2c17 26 24 61 24 137v318h-63v18h63v79c0 129 53 205 145 205c28 0 50 -7 59 -14l12 -80l-6 -2c-37 53 -55 76 -88 76c-41 0 -72 -48 -72 -141v-123h190v99c0 129 53 205 144 205c38 0 68 -13 80 -27l22 -107l-6 -2c-49 81 -74 116 -113 116
c-46 0 -77 -48 -77 -141v-143h154c39 0 67 9 86 20v-375c0 -53 1 -84 22 -118v-2h-94v2c18 34 22 65 22 117v264c0 37 -15 60 -44 74h-146v-318c0 -75 8 -111 23 -137v-2h-97v2c17 26 24 61 24 137v318h-190v-318c0 -75 8 -111 23 -137v-2z" />
    <glyph glyph-name="f_f_j" unicode="ffj" horiz-adv-x="693" 
d="M628 -56c0 -107 -35 -150 -111 -159l-2 5c44 24 65 52 65 140v453c0 37 -12 60 -36 74h-154v-318c0 -75 8 -111 23 -137v-2h-97v2c17 26 24 61 24 137v318h-190v-318c0 -75 8 -111 23 -137v-2h-97v2c17 26 24 61 24 137v318h-63v18h63v79c0 129 53 205 145 205
c28 0 50 -7 59 -14l12 -80l-6 -2c-37 53 -55 76 -88 76c-41 0 -72 -48 -72 -141v-123h190v99c0 129 53 205 144 205c38 0 68 -13 80 -27l22 -107l-6 -2c-49 81 -74 116 -113 116c-46 0 -77 -48 -77 -141v-143h154c39 0 67 9 86 20z" />
    <glyph glyph-name="f_f_k" unicode="ffk" horiz-adv-x="941" 
d="M931 0h-90l-186 249l142 161c19 22 26 45 -9 63v2h116v-2c-49 -21 -58 -33 -90 -71l-113 -128l136 -182c37 -49 59 -71 94 -90v-2zM76 0v2c17 26 24 61 24 137v318h-63v18h63v79c0 129 53 205 145 205c28 0 50 -7 59 -14l12 -80l-6 -2c-37 53 -55 76 -88 76
c-41 0 -72 -48 -72 -141v-123h190v99c0 129 46 205 155 205c35 0 61 -7 89 -21l46 21v-660c0 -52 1 -83 22 -117v-2h-94v2c19 34 22 64 22 117v510c0 80 -42 130 -98 130c-61 0 -92 -48 -92 -141v-143h118v-18h-118v-318c0 -75 8 -111 23 -137v-2h-97v2c17 26 24 61 24 137
v318h-190v-318c0 -75 8 -111 23 -137v-2h-97z" />
    <glyph glyph-name="f_f_l" unicode="ffl" horiz-adv-x="701" 
d="M76 0v2c17 26 24 61 24 137v318h-63v18h63v79c0 129 53 205 145 205c28 0 50 -7 59 -14l12 -80l-6 -2c-37 53 -55 76 -88 76c-41 0 -72 -48 -72 -141v-123h190v99c0 129 56 205 158 205c32 0 57 -7 85 -21l47 21v-660c0 -52 1 -83 22 -117v-2h-94v2c19 34 22 64 22 117
v510c0 80 -41 130 -94 130c-65 0 -96 -48 -96 -141v-143h118v-18h-118v-318c0 -75 8 -111 23 -137v-2h-97v2c17 26 24 61 24 137v318h-190v-318c0 -75 8 -111 23 -137v-2h-97z" />
    <glyph glyph-name="f_f_t" unicode="fft" horiz-adv-x="809" 
d="M784 33c-13 -14 -53 -48 -109 -48c-47 0 -100 24 -100 110v362h-185v-318c0 -75 8 -111 23 -137v-2h-97v2c17 26 24 61 24 137v318h-190v-318c0 -75 8 -111 23 -137v-2h-97v2c17 26 24 61 24 137v318h-63v18h63v79c0 129 53 205 145 205c28 0 50 -7 59 -14l12 -80l-6 -2
c-37 53 -55 76 -88 76c-41 0 -72 -48 -72 -141v-123h190v99c0 129 53 205 145 205c28 0 50 -7 59 -14l12 -80l-6 -2c-37 53 -55 76 -88 76c-41 0 -72 -48 -72 -141v-143h149l84 73h2v-73h148v-18h-148v-364c0 -50 22 -77 73 -77c36 0 69 13 84 21z" />
    <glyph glyph-name="f_h" unicode="fh" horiz-adv-x="781" 
d="M173 0h-97v2c17 26 24 61 24 137v318h-63v18h63v99c0 129 56 205 158 205c32 0 57 -7 85 -21l47 21v-376c51 60 116 87 180 87c93 0 140 -56 140 -146v-224c0 -55 1 -84 22 -118v-2h-94v2c19 34 22 67 22 117v214c0 66 -28 118 -112 118c-52 0 -112 -18 -158 -66v-266
c0 -52 1 -83 22 -117v-2h-94v2c19 34 22 64 22 117v510c0 80 -41 130 -94 130c-65 0 -96 -48 -96 -141v-143h118v-18h-118v-318c0 -75 8 -111 23 -137v-2z" />
    <glyph glyph-name="f_i" unicode="fi" horiz-adv-x="461" 
d="M173 0h-97v2c17 26 24 61 24 137v318h-63v18h63v99c0 129 53 205 144 205c38 0 68 -13 80 -27l22 -107l-6 -2c-49 81 -74 116 -113 116c-46 0 -77 -48 -77 -141v-143h154c39 0 67 9 86 20v-375c0 -53 1 -84 22 -118v-2h-94v2c18 34 22 65 22 117v264c0 37 -15 60 -44 74
h-146v-318c0 -75 8 -111 23 -137v-2z" />
    <glyph glyph-name="f_j" unicode="fj" horiz-adv-x="454" 
d="M388 -56c0 -107 -35 -150 -111 -159l-2 5c44 24 65 52 65 140v453c0 37 -12 60 -36 74h-154v-318c0 -75 8 -111 23 -137v-2h-97v2c17 26 24 61 24 137v318h-63v18h63v99c0 129 53 205 144 205c38 0 68 -13 80 -27l22 -107l-6 -2c-49 81 -74 116 -113 116
c-46 0 -77 -48 -77 -141v-143h154c39 0 67 9 86 20z" />
    <glyph glyph-name="f_k" unicode="fk" horiz-adv-x="701" 
d="M173 0h-97v2c17 26 24 61 24 137v318h-63v18h63v99c0 129 46 205 155 205c34 0 60 -7 88 -21l47 21v-660c0 -52 1 -83 22 -117v-2h-94v2c19 34 22 64 22 117v510c0 80 -42 130 -98 130c-61 0 -92 -48 -92 -141v-143h118v-18h-118v-318c0 -75 8 -111 23 -137v-2zM691 0
h-90l-186 249l142 161c19 22 26 45 -9 63v2h116v-2c-49 -21 -58 -33 -90 -71l-113 -128l136 -182c37 -49 59 -71 94 -90v-2z" />
    <glyph glyph-name="f_l" unicode="fl" horiz-adv-x="461" 
d="M173 2v-2h-97v2c17 26 24 61 24 137v318h-63v18h63v99c0 129 46 205 155 205c34 0 60 -7 88 -21l47 21v-660c0 -52 1 -83 22 -117v-2h-94v2c19 34 22 64 22 117v510c0 80 -42 130 -98 130c-61 0 -92 -48 -92 -141v-143h118v-18h-118v-318c0 -75 8 -111 23 -137z" />
    <glyph glyph-name="f_t" unicode="ft" horiz-adv-x="569" 
d="M544 33c-13 -14 -53 -48 -109 -48c-47 0 -100 24 -100 110v362h-185v-318c0 -75 8 -111 23 -137v-2h-97v2c17 26 24 61 24 137v318h-63v18h63v99c0 129 53 205 145 205c28 0 50 -7 59 -14l12 -80l-6 -2c-37 53 -55 76 -88 76c-41 0 -72 -48 -72 -141v-143h149l84 73h2
v-73h148v-18h-148v-364c0 -50 22 -77 73 -77c36 0 69 13 84 21z" />
    <glyph glyph-name=".notdef" horiz-adv-x="161" 
 />
    <glyph glyph-name="space" unicode=" " horiz-adv-x="150" 
 />
    <glyph glyph-name="exclam" unicode="!" horiz-adv-x="214" 
d="M136 732v-2l-22 -536h-14l-21 536v2h57zM107 -3c-25 0 -47 21 -47 47s22 47 47 47c26 0 47 -21 47 -47s-21 -47 -47 -47z" />
    <glyph glyph-name="quotedbl" unicode="&#x22;" horiz-adv-x="300" 
d="M80 542l-28 190h66l-28 -190h-10zM210 542l-28 190h66l-28 -190h-10z" />
    <glyph glyph-name="numbersign" unicode="#" horiz-adv-x="576" 
d="M362 249l44 234h-192l-44 -234h192zM316 0l43 231h-192l-43 -231h-23l43 231h-129v18h132l44 234h-129v18h132l43 231h23l-43 -231h192l43 231h23l-43 -231h129v-18h-132l-44 -234h129v-18h-132l-43 -231h-23z" />
    <glyph glyph-name="dollar" unicode="$" horiz-adv-x="523" 
d="M266 -114h-23v99c-69 1 -135 15 -188 38l-20 142l8 3c42 -105 100 -156 200 -162v362c-97 42 -192 85 -192 207c0 106 76 165 192 171v76h23v-75c62 0 120 -13 162 -30l20 -139l-8 -3c-39 111 -100 147 -174 151v-306c8 -3 16 -7 25 -10c103 -44 207 -93 207 -227
c0 -137 -108 -192 -232 -197v-100zM445 163c0 115 -86 156 -179 196v-354h1c119 0 178 62 178 158zM93 593c0 -90 69 -128 150 -163v297c-107 -3 -150 -68 -150 -134z" />
    <glyph glyph-name="percent" unicode="%" horiz-adv-x="770" 
d="M185 346c-86 0 -155 87 -155 201c0 113 68 200 155 200c88 0 157 -87 157 -200c0 -114 -70 -201 -157 -201zM185 361c74 0 100 79 100 186c0 106 -26 185 -100 185c-72 0 -98 -79 -98 -185c0 -107 26 -186 98 -186zM583 -8c-86 0 -155 87 -155 201c0 113 68 200 155 200
c88 0 157 -87 157 -200c0 -114 -70 -201 -157 -201zM583 7c74 0 100 79 100 186c0 106 -26 185 -100 185c-72 0 -98 -79 -98 -185c0 -107 26 -186 98 -186zM140 1l-16 13l521 729l17 -11z" />
    <glyph glyph-name="ampersand" unicode="&#x26;" horiz-adv-x="747" 
d="M599 -15c-63 0 -111 34 -153 85c-53 -55 -113 -85 -194 -85c-142 0 -212 91 -212 199c0 106 67 181 167 221c-46 67 -71 119 -71 179c0 97 65 163 153 163c86 0 137 -61 137 -141c0 -85 -59 -156 -164 -193c20 -27 43 -56 69 -90c57 -74 100 -145 142 -199
c68 94 97 216 97 264c0 31 -11 47 -61 54v4h182v-4c-36 -8 -52 -20 -65 -35c-15 -18 -27 -44 -39 -75c-23 -62 -47 -142 -105 -219c42 -51 83 -84 138 -84c52 0 96 29 118 87l4 -2c-20 -74 -63 -129 -143 -129zM176 606c0 -59 26 -110 80 -184c83 33 135 96 135 179
c0 66 -32 128 -105 128c-61 0 -110 -43 -110 -123zM272 11c70 0 121 28 164 70c-49 62 -93 144 -148 216c-28 37 -53 68 -73 97c-68 -33 -125 -91 -125 -194c0 -106 61 -189 182 -189z" />
    <glyph glyph-name="quotesingle" unicode="'" horiz-adv-x="170" 
d="M80 542l-28 190h66l-28 -190h-10z" />
    <glyph glyph-name="parenleft" unicode="(" horiz-adv-x="272" 
d="M257 -120l-8 -10c-111 98 -179 252 -179 442s68 345 179 443l8 -10c-83 -99 -139 -250 -139 -433s56 -333 139 -432z" />
    <glyph glyph-name="parenright" unicode=")" horiz-adv-x="272" 
d="M23 -130l-8 10c83 99 139 249 139 432s-56 334 -139 433l8 10c111 -98 179 -253 179 -443s-68 -344 -179 -442z" />
    <glyph glyph-name="asterisk" unicode="*" horiz-adv-x="362" 
d="M238 474l-57 109l-57 -109l-44 31l86 88l-121 21l17 51l110 -55l-18 122h54l-18 -122l110 55l17 -51l-122 -21l86 -88z" />
    <glyph glyph-name="plus" unicode="+" horiz-adv-x="532" 
d="M487 298h-210v-210h-22v210h-210v20h210v210h22v-210h210v-20z" />
    <glyph glyph-name="comma" unicode="," horiz-adv-x="204" 
d="M48 -148l-8 10c35 32 60 79 60 115c0 20 -17 51 -37 71v2l56 42c21 -16 36 -42 36 -68c0 -75 -61 -136 -107 -172z" />
    <glyph glyph-name="hyphen" unicode="-" horiz-adv-x="281" 
d="M251 263h-221v40h221v-40z" />
    <glyph glyph-name="period" unicode="." horiz-adv-x="198" 
d="M99 -3c-25 0 -47 21 -47 47s22 47 47 47c26 0 47 -21 47 -47s-21 -47 -47 -47z" />
    <glyph glyph-name="slash" unicode="/" horiz-adv-x="403" 
d="M-20 -130l385 911h23l-385 -911h-23z" />
    <glyph glyph-name="zero" unicode="0" horiz-adv-x="640" 
d="M319 -15c-154 0 -279 168 -279 381s124 381 279 381s281 -168 281 -381s-127 -381 -281 -381zM319 4c147 0 214 162 214 362s-67 362 -214 362s-212 -162 -212 -362s65 -362 212 -362z" />
    <glyph glyph-name="one" unicode="1" horiz-adv-x="307" 
d="M243 0h-155v2c41 42 50 66 50 123v500h-88v2c52 30 98 71 139 120h4v-622c0 -57 9 -81 50 -123v-2z" />
    <glyph glyph-name="two" unicode="2" horiz-adv-x="511" 
d="M440 0h-430v10c304 245 394 387 394 530c0 121 -62 188 -166 188c-103 0 -144 -64 -188 -151l-6 2l26 136c36 14 97 32 171 32c162 0 225 -87 225 -199c0 -163 -132 -303 -379 -496h261c67 0 87 25 125 84l8 -3z" />
    <glyph glyph-name="three" unicode="3" horiz-adv-x="529" 
d="M242 -15c-65 0 -140 19 -181 44l-21 126l6 2c65 -100 98 -153 197 -153c133 0 183 100 183 221c0 140 -64 211 -184 211c-61 0 -95 -19 -128 -44l-9 10l299 278h-323l22 52h374v-10l-301 -280c24 9 53 14 84 14c126 0 229 -77 229 -227c0 -147 -100 -244 -247 -244z" />
    <glyph glyph-name="four" unicode="4" horiz-adv-x="547" 
d="M328 0v2c33 42 40 66 40 123v65h-358v10l348 532h69l-392 -520h333v278h54v-278h90l-8 -22h-82v-65c0 -57 7 -81 40 -123v-2h-134z" />
    <glyph glyph-name="five" unicode="5" horiz-adv-x="526" 
d="M235 -15c-73 0 -140 22 -177 44l-23 136l6 2c55 -100 104 -163 202 -163c126 0 180 100 180 225c0 130 -59 218 -192 218c-56 0 -103 -16 -141 -47l-10 8l53 324h339l-10 -52h-317l-42 -254c35 26 78 42 140 42c144 0 243 -88 243 -233c0 -147 -95 -250 -251 -250z" />
    <glyph glyph-name="six" unicode="6" horiz-adv-x="566" 
d="M285 -15c-141 0 -240 129 -240 283c0 155 98 383 377 479l4 -12c-167 -69 -258 -207 -295 -339c30 47 90 90 177 90c125 0 218 -96 218 -237c0 -150 -109 -264 -241 -264zM286 4c103 0 177 95 177 234c0 132 -65 214 -176 214c-68 0 -136 -32 -165 -95
c-8 -35 -11 -69 -11 -101c0 -119 49 -252 175 -252z" />
    <glyph glyph-name="seven" unicode="7" horiz-adv-x="467" 
d="M147 0h-71c76 275 219 504 352 680h-393l12 52h425v-10c-131 -187 -270 -429 -325 -722z" />
    <glyph glyph-name="eight" unicode="8" horiz-adv-x="530" 
d="M264 -15c-135 0 -229 73 -229 191c0 86 50 173 173 200c-107 54 -137 126 -137 191c0 104 79 180 194 180c108 0 189 -66 189 -167c0 -64 -32 -140 -150 -175c173 -73 191 -166 191 -219c0 -137 -105 -201 -231 -201zM264 4c116 0 190 62 190 161c0 88 -59 129 -224 201
l-6 3c-116 -42 -146 -119 -146 -192c0 -108 67 -173 186 -173zM111 587c0 -88 67 -130 178 -176c102 47 122 114 122 170c0 90 -51 147 -145 147c-97 0 -155 -61 -155 -141z" />
    <glyph glyph-name="nine" unicode="9" horiz-adv-x="566" 
d="M144 -15l-4 12c167 69 258 207 295 339c-30 -47 -90 -90 -177 -90c-125 0 -218 96 -218 237c0 150 109 264 241 264c141 0 240 -129 240 -283c0 -155 -98 -383 -377 -479zM278 280c69 0 137 32 166 95c8 35 11 69 11 101c0 119 -49 252 -175 252
c-103 0 -177 -95 -177 -234c0 -132 65 -214 175 -214z" />
    <glyph glyph-name="colon" unicode=":" horiz-adv-x="198" 
d="M99 319c-25 0 -47 21 -47 47s22 47 47 47c26 0 47 -21 47 -47s-21 -47 -47 -47zM99 -3c-25 0 -47 21 -47 47s22 47 47 47c26 0 47 -21 47 -47s-21 -47 -47 -47z" />
    <glyph glyph-name="semicolon" unicode=";" horiz-adv-x="198" 
d="M37 -148l-8 10c35 32 60 79 60 115c0 20 -17 51 -37 71v2l56 42c21 -16 36 -42 36 -68c0 -75 -61 -136 -107 -172zM99 319c-25 0 -47 21 -47 47s22 47 47 47c26 0 47 -21 47 -47s-21 -47 -47 -47z" />
    <glyph glyph-name="less" unicode="&#x3c;" horiz-adv-x="530" 
d="M475 85l-430 208v26l430 208v-25l-409 -196l409 -196v-25z" />
    <glyph glyph-name="equal" unicode="=" horiz-adv-x="532" 
d="M487 379h-442v20h442v-20zM487 237h-442v20h442v-20z" />
    <glyph glyph-name="greater" unicode="&#x3e;" horiz-adv-x="530" 
d="M485 293l-430 -208v25l409 196l-409 196v25l430 -208v-26z" />
    <glyph glyph-name="question" unicode="?" horiz-adv-x="433" 
d="M152 194h-16c23 177 197 194 197 387c0 95 -40 148 -123 148c-80 0 -122 -46 -158 -140l-7 2l19 124c29 11 83 32 151 32c111 0 178 -59 178 -165c0 -186 -201 -210 -241 -388zM150 -3c-25 0 -47 21 -47 47s22 47 47 47c26 0 47 -21 47 -47s-21 -47 -47 -47z" />
    <glyph glyph-name="at" unicode="@" horiz-adv-x="849" 
d="M413 -161c-216 0 -373 139 -373 360c0 235 178 437 441 437c199 0 328 -112 328 -308c0 -158 -86 -296 -219 -296c-106 0 -120 88 -97 173l7 26c-46 -111 -115 -208 -186 -208c-46 0 -77 35 -77 107c0 160 126 322 264 322c29 0 54 -7 71 -17l28 17h4l-65 -244
c-23 -88 -24 -157 57 -157c109 0 178 125 178 273c0 190 -119 292 -296 292c-239 0 -393 -191 -393 -417c0 -212 135 -340 332 -340c78 0 158 21 214 60l8 -16c-60 -42 -140 -64 -226 -64zM336 62c70 0 134 134 173 225l29 113c-10 17 -29 33 -61 33
c-105 0 -190 -164 -190 -290c0 -65 22 -81 49 -81z" />
    <glyph glyph-name="B" unicode="B" horiz-adv-x="577" 
d="M286 0h-234v2c33 42 40 66 40 122v484c0 56 -7 80 -40 122v2c166 0 165 4 231 4c205 1 238 -96 238 -169c0 -86 -45 -158 -132 -181c119 -13 165 -95 165 -183c0 -121 -84 -203 -268 -203zM146 391h170c113 0 150 88 150 169c0 104 -63 156 -186 156
c-49 0 -96 -2 -134 -5v-320zM283 20c147 0 211 71 211 179c0 101 -55 172 -168 172h-180v-344c40 -4 88 -7 137 -7z" />
    <glyph glyph-name="C" unicode="C" horiz-adv-x="742" 
d="M692 216l-20 -153c-38 -29 -146 -78 -270 -78c-229 0 -362 169 -362 382s148 380 388 380c96 0 191 -28 240 -50l20 -141l-8 -2c-66 123 -144 173 -256 173c-216 0 -318 -154 -318 -360s96 -362 300 -362c149 0 226 78 278 213z" />
    <glyph glyph-name="D" unicode="D" horiz-adv-x="717" 
d="M52 0v2c33 50 40 78 40 144v440c0 66 -7 94 -40 144v2c134 0 144 4 281 4c214 0 344 -130 344 -367s-131 -369 -364 -369h-261zM323 716l-177 1v-698l157 1c221 1 308 117 308 335c0 247 -98 360 -288 361z" />
    <glyph glyph-name="E" unicode="E" horiz-adv-x="585" 
d="M570 162l-45 -162h-473v2c26 41 39 69 39 113v502c0 45 -13 72 -39 113v2h423l39 -145l-8 -3c-46 63 -84 123 -114 125l-246 6v-337h161c27 0 51 54 71 85h8v-185h-8c-19 27 -44 80 -71 80h-161v-341l253 7c64 2 109 58 163 141z" />
    <glyph glyph-name="F" unicode="F" horiz-adv-x="530" 
d="M187 2v-2h-135v2c32 40 40 63 40 116v496c0 54 -8 76 -40 116v2h432l31 -145l-8 -3c-46 62 -84 124 -114 125l-246 6v-327h161c27 0 51 54 71 85h8v-185h-8c-19 27 -44 80 -71 80h-161v-250c0 -54 7 -76 40 -116z" />
    <glyph glyph-name="G" unicode="G" horiz-adv-x="802" 
d="M728 91c-49 -33 -142 -106 -305 -106c-237 0 -383 167 -383 381c0 213 152 381 401 381c115 0 208 -28 256 -48l21 -143l-8 -3c-53 120 -133 174 -278 174c-222 0 -326 -159 -326 -362c0 -202 88 -360 317 -360c148 0 255 54 255 159c0 102 -10 137 -46 166v2h136v-2
c-33 -32 -40 -62 -40 -139v-100z" />
    <glyph glyph-name="H" unicode="H" horiz-adv-x="712" 
d="M52 0v2c33 42 40 66 40 122v484c0 56 -7 80 -40 122v2h134v-2c-33 -42 -40 -65 -40 -122v-220h420v220c0 56 -7 80 -40 122v2h134v-2c-33 -42 -40 -65 -40 -122v-484c0 -57 7 -80 40 -122v-2h-134v2c33 42 40 66 40 122v244h-420v-244c0 -57 7 -80 40 -122v-2h-134z" />
    <glyph glyph-name="I" unicode="I" horiz-adv-x="238" 
d="M52 0l1 2c33 42 39 66 39 122v484c0 56 -7 80 -40 122v2h134v-2c-33 -42 -40 -65 -40 -122v-484c0 -57 8 -80 41 -122l-1 -2h-134z" />
    <glyph glyph-name="J" unicode="J" horiz-adv-x="355" 
d="M273 118c0 -85 -46 -133 -128 -133c-32 0 -66 7 -98 22l-18 125l8 3c41 -84 84 -130 125 -130c35 0 57 32 57 97v506c0 57 -7 80 -40 122v2h134v-2c-33 -42 -40 -65 -40 -122v-490z" />
    <glyph glyph-name="K" unicode="K" horiz-adv-x="604" 
d="M52 0l1 2c33 42 39 66 39 122v484c0 56 -7 80 -40 122v2h134v-2c-33 -42 -40 -65 -40 -122v-484c0 -57 8 -80 41 -122l-1 -2h-134zM594 0h-100l-312 381l227 240c44 47 31 81 2 109v2h165v-2c-73 -35 -100 -68 -137 -107l-207 -219l234 -286c63 -77 83 -94 127 -116z" />
    <glyph glyph-name="L" unicode="L" horiz-adv-x="541" 
d="M480 0h-428v2c33 42 40 66 40 122v484c0 56 -7 80 -40 122v2h134v-2c-33 -42 -40 -65 -40 -122v-591l208 7c65 3 110 46 164 141l8 -3z" />
    <glyph glyph-name="M" unicode="M" horiz-adv-x="843" 
d="M187 0h-148v2c43 49 53 75 53 138v494c-4 45 -18 66 -61 96v2h110l284 -635l286 635h101v-2c-49 -34 -61 -57 -61 -123v-480c0 -58 8 -82 40 -125v-2h-133v2c33 43 41 68 41 125v527l-285 -632h-15l-287 635l3 -517c0 -63 14 -89 72 -138v-2z" />
    <glyph glyph-name="N" unicode="N" horiz-adv-x="716" 
d="M617 -3l-506 635l4 -494c0 -62 12 -88 70 -136v-2h-143v2c42 48 50 74 50 136v516c-23 33 -51 62 -80 76v2h89l505 -634l-3 496c-1 62 -10 88 -60 136v2h133v-2c-42 -48 -50 -73 -50 -136v-594z" />
    <glyph glyph-name="O" unicode="O" horiz-adv-x="811" 
d="M405 -15c-208 0 -365 164 -365 380s157 382 365 382s366 -166 366 -382s-158 -380 -366 -380zM405 5c185 0 300 153 300 360c0 206 -115 362 -300 362s-299 -156 -299 -362s114 -360 299 -360z" />
    <glyph glyph-name="P" unicode="P" horiz-adv-x="547" 
d="M52 0v2c33 42 40 66 40 122v484c0 56 -7 80 -40 122v2h243c179 0 232 -93 232 -198c0 -134 -88 -224 -246 -224h-135v-186c0 -57 7 -80 40 -122v-2h-134zM281 712c-29 0 -66 0 -135 -3v-379h134c135 0 191 85 191 204c0 147 -88 178 -190 178z" />
    <glyph glyph-name="Q" unicode="Q" horiz-adv-x="811" 
d="M679 -170c-178 0 -269 119 -294 156c-198 10 -345 170 -345 379c0 216 157 382 365 382s366 -166 366 -382c0 -215 -156 -378 -362 -380c170 -147 328 -115 403 -79l-25 -53c-23 -14 -60 -23 -108 -23zM405 5c185 0 300 153 300 360c0 206 -115 362 -300 362
s-299 -156 -299 -362s114 -360 299 -360z" />
    <glyph glyph-name="R" unicode="R" horiz-adv-x="618" 
d="M186 0h-134v2c33 42 40 66 40 122v484c0 56 -7 80 -40 122v2h257c145 0 205 -68 205 -172c0 -95 -43 -179 -138 -206l123 -231c35 -69 63 -102 109 -121v-2h-105l-183 345h-174v-221c0 -57 7 -80 40 -122v-2zM299 712c-25 0 -79 0 -153 -1v-346h154c115 0 157 91 157 194
c0 91 -36 153 -158 153z" />
    <glyph glyph-name="S" unicode="S" horiz-adv-x="533" 
d="M428 717l20 -139l-8 -3c-41 119 -109 152 -190 152c-112 0 -157 -66 -157 -134c0 -107 98 -140 198 -183c103 -44 207 -93 207 -227c0 -144 -119 -198 -251 -198c-70 0 -138 15 -192 38l-20 142l8 3c45 -113 109 -163 224 -163c119 0 178 62 178 158
c0 120 -93 159 -191 201c-101 43 -203 85 -203 211c0 113 86 172 215 172c62 0 120 -13 162 -30z" />
    <glyph glyph-name="T" unicode="T" horiz-adv-x="634" 
d="M384 2v-2h-134v2c34 42 40 66 40 122v590l-153 -4c-30 -1 -78 -91 -114 -152l-8 3l39 171h526l39 -171l-8 -3c-36 61 -84 151 -114 152l-153 4v-590c0 -57 8 -80 40 -122z" />
    <glyph glyph-name="U" unicode="U" horiz-adv-x="684" 
d="M353 -15c-148 0 -273 73 -273 253v367c0 58 -7 82 -40 125v2h134v-2c-27 -36 -40 -67 -40 -125v-364c0 -172 103 -234 228 -234c172 0 221 116 221 243v342c0 63 -13 89 -72 138v2h155v-2c-50 -49 -62 -75 -62 -138v-341c0 -143 -62 -266 -251 -266z" />
    <glyph glyph-name="V" unicode="V" horiz-adv-x="624" 
d="M325 -8h-27l-226 626c-23 63 -38 87 -72 112v2h147v-2c-18 -20 -35 -63 -16 -115l196 -552l185 517c31 86 0 127 -21 150v2h133v-2c-46 -35 -57 -65 -86 -145z" />
    <glyph glyph-name="W" unicode="W" horiz-adv-x="949" 
d="M284 -9h-27l-188 629c-20 67 -26 86 -59 110v2h139v-2c-14 -18 -42 -44 -22 -112l160 -538l170 476l-22 64c-23 68 -33 86 -66 110v2h147v-2c-18 -18 -49 -40 -24 -112l186 -543l151 510c21 81 -5 122 -23 145v2h133v-2c-47 -35 -62 -65 -86 -145l-177 -594h-27l-180 530
z" />
    <glyph glyph-name="X" unicode="X" horiz-adv-x="612" 
d="M141 2v-2h-136v2c52 33 80 65 124 135l152 243l-159 254c-33 52 -52 76 -87 96v2h151v-2c-32 -15 -31 -49 -5 -91l138 -220l117 176c58 87 58 109 5 135v2h136v-2c-52 -33 -66 -64 -114 -135l-132 -196l189 -301c33 -52 52 -76 87 -96v-2h-151v2c32 15 31 49 5 91
l-167 266l-138 -222c-55 -88 -68 -109 -15 -135z" />
    <glyph glyph-name="Y" unicode="Y" horiz-adv-x="570" 
d="M215 0v2c32 36 40 57 40 104v236l-169 291c-30 52 -51 77 -86 97v2h155v-2c-32 -15 -32 -50 -9 -91l156 -270l135 226c45 75 29 109 -3 135v2h136v-2c-52 -33 -67 -64 -110 -135l-151 -251v-238c0 -48 7 -68 40 -104v-2h-134z" />
    <glyph glyph-name="Z" unicode="Z" horiz-adv-x="608" 
d="M529 0h-499v11l465 705l-263 -8c-71 -2 -121 -59 -171 -151l-8 3l47 172h464v-11l-464 -706l299 9c67 2 120 56 171 157l8 -3z" />
    <glyph glyph-name="bracketleft" unicode="[" horiz-adv-x="299" 
d="M100 -130v885h184v-18h-136v-849h136v-18h-184z" />
    <glyph glyph-name="backslash" unicode="\" horiz-adv-x="403" 
d="M423 -130h-23l-385 911h23z" />
    <glyph glyph-name="bracketright" unicode="]" horiz-adv-x="299" 
d="M199 755v-885h-184v18h136v849h-136v18h184z" />
    <glyph glyph-name="asciicircum" unicode="^" horiz-adv-x="412" 
d="M373 484l-167 177l-167 -177l-9 8l173 253h6l173 -253z" />
    <glyph glyph-name="underscore" unicode="_" horiz-adv-x="490" 
d="M460 -100h-430v18h430v-18z" />
    <glyph glyph-name="grave" unicode="`" horiz-adv-x="314" 
d="M237 539l-7 -6l-172 178l49 38z" />
    <glyph glyph-name="a" unicode="a" horiz-adv-x="464" 
d="M180 21c54 0 106 24 134 52v177c-108 -14 -224 -56 -224 -149c0 -46 28 -80 90 -80zM378 -12c-43 0 -63 29 -64 68c-35 -37 -93 -71 -158 -71c-70 0 -117 38 -117 102c0 117 161 169 275 179v92c0 54 -25 102 -113 102c-54 0 -106 -20 -140 -44l-5 7c40 40 101 67 174 67
c111 0 134 -59 134 -122v-302c0 -26 12 -43 39 -43c23 0 37 13 48 24l3 -2c-7 -22 -29 -57 -76 -57z" />
    <glyph glyph-name="b" unicode="b" horiz-adv-x="530" 
d="M247 -15c-75 0 -123 28 -151 59l-24 -44h-10v673c0 32 -22 50 -44 62v2l94 42v-374h3c36 58 99 85 164 85c122 0 211 -94 211 -239c0 -135 -79 -266 -243 -266zM259 3c97 0 173 92 173 238c0 138 -79 216 -180 215c-60 -1 -116 -36 -140 -72v-215
c0 -116 70 -166 147 -166z" />
    <glyph glyph-name="c" unicode="c" 
d="M438 113l5 -2c-25 -75 -95 -126 -187 -126c-126 0 -216 93 -216 239c0 167 118 266 251 266c63 0 110 -22 134 -33l7 -94l-6 -2c-44 75 -81 111 -152 111c-107 0 -179 -81 -179 -221c0 -127 60 -220 178 -220c61 0 131 25 165 82z" />
    <glyph glyph-name="d" unicode="d" horiz-adv-x="543" 
d="M270 19c63 0 116 36 148 87v226c0 111 -69 140 -130 140c-110 0 -190 -98 -190 -234s72 -219 172 -219zM423 86h-4c-29 -52 -84 -101 -178 -101c-121 0 -201 90 -201 235c0 142 104 270 262 270c45 0 86 -10 116 -27v210c0 32 -22 50 -44 62v2l94 42v-672
c0 -63 11 -74 44 -87v-2l-89 -30v98z" />
    <glyph glyph-name="e" unicode="e" 
d="M260 472c-84 0 -143 -58 -160 -159l277 6v6c0 101 -42 147 -117 147zM443 111c-25 -75 -95 -126 -188 -126c-129 0 -215 99 -215 245c0 158 103 260 223 260c115 0 184 -93 177 -192h-342c-2 -14 -3 -30 -3 -46c0 -128 59 -221 178 -221c62 0 131 25 165 82z" />
    <glyph glyph-name="f" unicode="f" horiz-adv-x="291" 
d="M76 0v2c17 26 24 61 24 137v318h-63v18h63v99c0 129 53 205 145 205c28 0 50 -7 59 -14l12 -80l-6 -2c-37 53 -55 76 -88 76c-41 0 -72 -48 -72 -141v-143h118v-18h-118v-318c0 -75 8 -111 23 -137v-2h-97z" />
    <glyph glyph-name="g" unicode="g" horiz-adv-x="477" 
d="M224 175c81 0 120 70 120 148s-37 149 -121 149s-119 -75 -119 -149s40 -148 120 -148zM460 -78c0 -88 -91 -147 -235 -147c-127 0 -210 46 -210 120c0 55 46 99 94 111c-51 11 -72 37 -72 71c0 58 60 87 110 98c-58 27 -99 85 -99 148c0 88 78 167 175 167
c45 0 87 -16 118 -43l119 54l2 -1v-64h-4l-107 2c30 -30 49 -70 49 -115c0 -90 -80 -166 -176 -166c-22 0 -44 4 -64 12c-47 -15 -76 -39 -76 -73c0 -23 14 -46 87 -48l115 -4c126 -4 174 -58 174 -122zM242 -207c107 0 175 39 175 111c0 60 -48 92 -147 95l-111 2
c-13 0 -25 1 -35 3c-30 -8 -59 -47 -59 -96c0 -77 71 -115 177 -115z" />
    <glyph glyph-name="h" unicode="h" horiz-adv-x="517" 
d="M148 0h-94v2c19 34 22 64 22 117v541c0 38 -22 61 -44 75v2l94 42v-376c51 60 116 87 180 87c93 0 140 -56 140 -146v-224c0 -55 1 -84 22 -118v-2h-94v2c19 34 22 67 22 117v214c0 66 -28 118 -112 118c-52 0 -112 -18 -158 -66v-266c0 -52 1 -83 22 -117v-2z" />
    <glyph glyph-name="i" unicode="i" horiz-adv-x="197" 
d="M139 659c0 -23 -18 -41 -41 -41c-22 0 -41 18 -41 41s19 41 41 41c23 0 41 -18 41 -41zM54 0v2c18 34 22 65 22 117v248c0 37 -22 60 -44 74v2l94 52v-375c0 -53 1 -84 22 -118v-2h-94z" />
    <glyph glyph-name="j" unicode="j" horiz-adv-x="190" 
d="M139 659c0 -23 -18 -41 -41 -41c-22 0 -41 18 -41 41s19 41 41 41c23 0 41 -18 41 -41zM13 -215l-2 5c44 24 65 52 65 140v437c0 37 -22 60 -44 74v2l94 52l-2 -551c0 -107 -35 -150 -111 -159z" />
    <glyph glyph-name="k" unicode="k" horiz-adv-x="437" 
d="M54 0v2c19 34 22 65 22 117v554c0 32 -22 50 -44 62v2l94 42v-659c0 -52 1 -84 22 -118v-2h-94zM427 0h-90l-186 249l142 161c19 22 26 45 -9 63v2h116v-2c-49 -21 -58 -33 -90 -71l-113 -128l136 -182c37 -49 59 -71 94 -90v-2z" />
    <glyph glyph-name="l" unicode="l" horiz-adv-x="197" 
d="M54 0v2c19 34 22 65 22 117v554c0 32 -22 50 -44 62v2l94 42v-659c0 -52 1 -84 22 -118v-2h-94z" />
    <glyph glyph-name="m" unicode="m" horiz-adv-x="748" 
d="M149 2v-2h-95v2c19 33 23 62 23 115v247c0 40 -21 62 -45 78v2l91 53v-93l4 -1c36 52 92 87 161 87c68 0 99 -33 111 -88l3 -1c37 52 92 89 162 89c85 0 113 -52 113 -136v-236c0 -54 2 -83 22 -116v-2h-94v2c18 33 22 65 22 115v227c0 58 -15 107 -89 107
c-61 0 -104 -34 -136 -68v-265c0 -54 2 -83 23 -116v-2h-95v2c19 33 22 65 22 115v227c0 58 -14 107 -90 107c-61 0 -103 -32 -135 -66v-267c0 -52 2 -83 22 -116z" />
    <glyph glyph-name="n" unicode="n" horiz-adv-x="517" 
d="M148 2v-2h-94v2c19 34 22 64 22 117v247c0 38 -22 61 -44 75v2l90 52v-91l4 -1c51 60 116 87 180 87c93 0 140 -56 140 -146v-224c0 -55 1 -84 22 -118v-2h-94v2c19 34 22 67 22 117v214c0 66 -28 118 -112 118c-53 0 -115 -19 -158 -66v-265c0 -53 1 -84 22 -118z" />
    <glyph glyph-name="o" unicode="o" horiz-adv-x="562" 
d="M281 -15c-134 0 -246 111 -246 252s112 253 246 253s246 -112 246 -253s-112 -252 -246 -252zM281 3c122 0 184 104 184 234s-63 235 -184 235s-184 -105 -184 -235s62 -234 184 -234z" />
    <glyph glyph-name="p" unicode="p" horiz-adv-x="544" 
d="M261 3c110 0 185 92 185 237c0 139 -79 216 -175 216c-65 0 -121 -36 -145 -72v-315c32 -42 79 -66 135 -66zM148 -225h-94v2c19 34 22 64 22 117v472c0 38 -22 61 -44 75v2l90 52v-89l7 -1c36 58 99 85 164 85c122 0 211 -94 211 -239c0 -135 -79 -266 -248 -266
c-67 0 -104 19 -130 39v-129c0 -53 1 -84 22 -118v-2z" />
    <glyph glyph-name="q" unicode="q" horiz-adv-x="533" 
d="M395 -225v2c19 34 23 65 23 117v190c-29 -52 -84 -99 -177 -99c-121 0 -201 90 -201 235c0 142 104 270 262 270c51 0 97 -13 127 -34l37 31h2v-592c0 -53 1 -84 22 -118v-2h-95zM270 19c63 0 116 36 148 87v226c0 111 -68 140 -130 140c-110 0 -190 -98 -190 -234
s72 -219 172 -219z" />
    <glyph glyph-name="r" unicode="r" horiz-adv-x="309" 
d="M54 0v2c19 34 22 64 22 117v247c0 38 -22 61 -44 75v2l90 52v-121l5 -1c49 48 90 117 162 117v-80h-2c-14 9 -49 15 -73 15c-17 0 -56 -37 -88 -75v-230c0 -53 1 -84 22 -118v-2h-94z" />
    <glyph glyph-name="s" unicode="s" horiz-adv-x="375" 
d="M313 472l10 -89l-8 -2c-37 72 -78 91 -127 91c-62 0 -107 -35 -107 -88c0 -63 57 -83 127 -110s142 -59 142 -152c0 -84 -61 -137 -176 -137c-64 0 -105 16 -132 29l-10 102l8 2c33 -80 78 -115 148 -115c80 0 121 46 121 102c0 67 -60 92 -126 117s-143 56 -143 143
c0 93 84 125 165 125c41 0 81 -8 108 -18z" />
    <glyph glyph-name="t" unicode="t" horiz-adv-x="319" 
d="M185 -15c-47 0 -100 24 -100 110v362h-54v2l102 89h2v-73h148v-18h-148v-364c0 -50 22 -77 73 -77c36 0 69 13 84 21l2 -4c-13 -14 -53 -48 -109 -48z" />
    <glyph glyph-name="u" unicode="u" horiz-adv-x="490" 
d="M362 -12v86c-37 -46 -89 -89 -167 -89c-86 0 -133 54 -133 140v284c0 30 -17 51 -42 64v2h92v-334c0 -77 32 -117 104 -117c64 0 110 31 141 63v322c0 30 -16 51 -44 64v2h94v-364c0 -64 13 -75 45 -89v-2z" />
    <glyph glyph-name="v" unicode="v" horiz-adv-x="412" 
d="M204 -5l-145 376c-22 57 -34 83 -59 102v2h117v-2c-21 -19 -27 -47 -5 -104l111 -293l107 285c22 59 19 93 -12 112v2h99v-2c-31 -23 -42 -43 -64 -104l-143 -374h-6z" />
    <glyph glyph-name="w" unicode="w" horiz-adv-x="636" 
d="M190 -6h-6l-119 378c-18 58 -36 87 -55 101v2h112v-2c-9 -11 -18 -48 -4 -96l85 -294l106 288v1c-17 49 -31 87 -54 101v2h107v-2c-9 -11 -16 -47 4 -108l92 -281l88 276c19 60 17 94 -14 113v2h99v-2c-31 -23 -41 -43 -61 -104l-123 -375h-6l-122 350z" />
    <glyph glyph-name="x" unicode="x" horiz-adv-x="423" 
d="M111 2v-2h-106v2c40 26 56 36 85 82l96 152l-85 137c-26 43 -63 85 -86 100v2h117v-2c-20 -24 -6 -47 24 -95l65 -106l72 115c26 42 24 66 4 86v2h106v-2c-40 -26 -56 -36 -85 -82l-86 -136l95 -153c26 -43 63 -85 86 -100v-2h-117v2c20 24 6 47 -24 95l-75 121l-82 -130
c-26 -41 -24 -66 -4 -86z" />
    <glyph glyph-name="y" unicode="y" horiz-adv-x="412" 
d="M22 -225l-2 55c35 1 117 25 152 117l25 65l-138 359c-22 57 -34 83 -59 102v2h117v-2c-21 -19 -26 -47 -5 -104l110 -292l108 284c22 59 19 93 -12 112v2h99v-2c-31 -23 -41 -43 -64 -104l-173 -450c-38 -99 -88 -136 -158 -144z" />
    <glyph glyph-name="z" unicode="z" horiz-adv-x="412" 
d="M347 0h-327v7l298 451l-152 -4c-50 -1 -72 -34 -112 -82l-5 2l33 101h299v-8l-297 -450l168 3c60 1 82 32 125 92l5 -2z" />
    <glyph glyph-name="braceleft" unicode="{" horiz-adv-x="283" 
d="M268 -130h-35c-93 0 -143 45 -143 120c0 73 55 143 55 229c0 60 -40 84 -103 84h-12v19h12c63 0 103 24 103 84c0 86 -55 156 -55 229c0 75 50 120 143 120h35v-18h-35c-49 0 -91 -15 -91 -101c0 -55 36 -147 36 -224c0 -74 -48 -92 -96 -98v-3c48 -6 96 -24 96 -98
c0 -77 -36 -169 -36 -224c0 -86 42 -101 91 -101h35v-18z" />
    <glyph glyph-name="bar" unicode="|" horiz-adv-x="205" 
d="M114 -130h-23v911h23v-911z" />
    <glyph glyph-name="braceright" unicode="}" horiz-adv-x="283" 
d="M50 -130h-35v18h35c49 0 91 15 91 101c0 55 -36 147 -36 224c0 74 48 92 96 98v3c-48 6 -96 24 -96 98c0 77 36 169 36 224c0 86 -42 101 -91 101h-35v18h35c93 0 143 -45 143 -120c0 -73 -55 -143 -55 -229c0 -60 40 -84 103 -84h12v-19h-12c-63 0 -103 -24 -103 -84
c0 -86 55 -156 55 -229c0 -75 -50 -120 -143 -120z" />
    <glyph glyph-name="asciitilde" unicode="~" horiz-adv-x="452" 
d="M134 328c51 0 137 -58 205 -58c40 0 58 20 68 61l8 -2c-3 -37 -19 -105 -94 -105c-61 0 -153 58 -206 58c-39 0 -60 -23 -69 -63l-9 2c3 37 24 107 97 107z" />
    <glyph glyph-name="uni00A0" unicode="&#xa0;" horiz-adv-x="150" 
 />
    <glyph glyph-name="exclamdown" unicode="&#xa1;" horiz-adv-x="214" 
d="M136 -243v-2h-57v2l21 536h14zM107 490c26 0 47 -21 47 -47s-21 -47 -47 -47c-25 0 -47 21 -47 47s22 47 47 47z" />
    <glyph glyph-name="cent" unicode="&#xa2;" 
d="M265 -114h-23v99c-119 7 -202 98 -202 239c0 146 90 240 202 261v72h23v-68c8 1 17 1 26 1c63 0 110 -22 134 -33l7 -94l-6 -2c-44 75 -81 111 -152 111h-9v-441h8c61 0 131 25 165 82l5 -2c-24 -73 -91 -123 -178 -126v-99zM95 251c0 -116 49 -203 147 -218v436
c-89 -15 -147 -93 -147 -218z" />
    <glyph glyph-name="sterling" unicode="&#xa3;" horiz-adv-x="533" 
d="M528 162l-61 -162h-452v8c82 62 115 89 129 253l8 97h-83l4 18h81l8 96c16 192 91 275 187 275c43 0 84 -17 104 -30l20 -139l-8 -3c-37 106 -89 152 -139 152c-47 0 -77 -43 -103 -237l-15 -114h142l-4 -18h-141l-10 -74c-22 -165 -83 -223 -118 -239h269
c89 0 117 25 174 120z" />
    <glyph glyph-name="yen" unicode="&#xa5;" horiz-adv-x="540" 
d="M200 0v2c32 36 40 57 40 104v85h-180v18h180v114h-180v18h174l-148 292c-27 54 -51 77 -86 97v2h155v-2c-32 -15 -30 -49 -9 -91l140 -280l121 236c40 79 29 109 -3 135v2h136v-2c-52 -33 -72 -60 -110 -135l-131 -254h175v-18h-180v-114h180v-18h-180v-85
c0 -48 7 -68 40 -104v-2h-134z" />
    <glyph glyph-name="brokenbar" unicode="&#xa6;" horiz-adv-x="205" 
d="M114 365h-23v416h23v-416zM114 -130h-23v415h23v-415z" />
    <glyph glyph-name="section" unicode="&#xa7;" horiz-adv-x="485" 
d="M238 166c19 -10 37 -19 54 -30c54 9 97 58 97 125c0 85 -68 121 -137 159c-19 11 -38 21 -55 33c-56 -7 -101 -55 -101 -126c0 -90 71 -124 142 -161zM201 -164c-48 0 -93 11 -118 25l-8 99l7 2c33 -78 77 -107 137 -107c69 0 119 46 119 118c0 85 -71 119 -141 156
c-71 37 -142 83 -142 180c0 82 55 143 130 153c-40 30 -70 68 -70 131c0 113 91 154 177 154c35 0 69 -6 95 -14l8 -88l-7 -2c-35 62 -61 85 -117 85c-69 0 -114 -48 -114 -115c0 -82 68 -118 137 -157c68 -39 136 -81 136 -177c0 -81 -53 -140 -125 -152
c43 -30 75 -69 75 -136c0 -120 -94 -155 -179 -155z" />
    <glyph glyph-name="dieresis" unicode="&#xa8;" horiz-adv-x="450" 
d="M366 659c0 -23 -18 -41 -41 -41c-22 0 -41 18 -41 41s19 41 41 41c23 0 41 -18 41 -41zM166 659c0 -23 -18 -41 -41 -41c-22 0 -41 18 -41 41s19 41 41 41c23 0 41 -18 41 -41z" />
    <glyph glyph-name="copyright" unicode="&#xa9;" horiz-adv-x="843" 
d="M40 367c0 212 171 380 381 380c211 0 382 -168 382 -380c0 -214 -172 -381 -382 -381s-381 167 -381 381zM65 367c0 -200 159 -361 356 -361s356 161 356 361s-159 360 -356 360s-356 -160 -356 -360zM564 199c-21 -15 -77 -42 -143 -42c-124 0 -196 93 -196 211
c0 116 79 208 206 208c53 0 105 -16 131 -27l11 -91l-5 -2c-35 63 -76 103 -144 103c-98 0 -149 -83 -149 -191c0 -111 48 -194 146 -194c81 0 122 57 148 125l6 -2z" />
    <glyph glyph-name="ordfeminine" unicode="&#xaa;" horiz-adv-x="366" 
d="M151 384c39 0 73 17 92 39v131c-78 -12 -158 -41 -158 -110c0 -35 19 -60 66 -60zM294 354c-32 0 -48 21 -49 53c-26 -29 -68 -56 -121 -56c-55 0 -89 30 -89 79c0 90 120 131 208 141v66c0 49 -19 78 -82 78c-41 0 -81 -12 -109 -34l-6 8c31 34 80 58 141 58
c86 0 107 -48 107 -99v-232c0 -23 8 -34 24 -34c14 0 23 10 31 19l3 -2c-6 -17 -22 -45 -58 -45z" />
    <glyph glyph-name="guillemotleft" unicode="&#xab;" horiz-adv-x="401" 
d="M346 58l-8 -6l-138 175v20l138 175l8 -6l-91 -179zM196 58l-8 -6l-138 175v20l138 175l8 -6l-91 -179z" />
    <glyph glyph-name="registered" unicode="&#xae;" horiz-adv-x="470" 
d="M25 541c0 116 96 206 212 206s208 -90 208 -206c0 -115 -96 -205 -211 -205c-117 0 -209 89 -209 205zM48 541c0 -104 83 -186 187 -186s187 81 187 186s-83 187 -187 187c-105 0 -187 -82 -187 -187zM161 432v2c10 12 12 18 12 35v146c0 17 -2 23 -12 36v2h81
c50 0 71 -24 71 -57c0 -26 -15 -47 -44 -56l39 -71c12 -21 17 -30 32 -35v-2h-44l-54 99h-39v-62c0 -17 2 -23 12 -35v-2h-54zM234 635h-31v-84h33c34 0 46 20 46 45c0 22 -10 39 -48 39z" />
    <glyph glyph-name="macron" unicode="&#xaf;" horiz-adv-x="450" 
d="M82 610v35h285v-35h-285z" />
    <glyph glyph-name="degree" unicode="&#xb0;" horiz-adv-x="295" 
d="M15 615c0 73 61 132 135 132c75 0 130 -59 130 -132c0 -74 -61 -133 -134 -133c-76 0 -131 59 -131 133zM39 615c0 -64 45 -113 109 -113c63 0 108 49 108 113c0 63 -45 112 -108 112c-64 0 -109 -49 -109 -112z" />
    <glyph glyph-name="acute" unicode="&#xb4;" horiz-adv-x="449" 
d="M149 539l130 210l49 -38l-172 -178z" />
    <glyph glyph-name="paragraph" unicode="&#xb6;" horiz-adv-x="458" 
d="M378 0h-58v1c12 32 15 49 15 92v546c0 41 -2 60 -15 92v1h58v-1c-12 -32 -15 -49 -15 -92v-546c0 -41 2 -60 15 -92v-1zM288 0h-58v1c12 32 15 49 15 92v302h-56c-94 0 -169 77 -169 170c0 92 75 167 169 167h99v-1c-12 -32 -15 -49 -15 -92v-546c0 -41 2 -60 15 -92v-1z
" />
    <glyph glyph-name="periodcentered" unicode="&#xb7;" horiz-adv-x="184" 
d="M92 227c-25 0 -47 21 -47 47s22 47 47 47c26 0 47 -21 47 -47s-21 -47 -47 -47z" />
    <glyph glyph-name="cedilla" unicode="&#xb8;" horiz-adv-x="449" 
d="M152 -255l-2 8c62 23 105 45 105 91c0 54 -60 63 -86 65l-1 2s41 68 56 91h28l-37 -59c48 -11 83 -39 83 -86c0 -62 -61 -95 -146 -112z" />
    <glyph glyph-name="ordmasculine" unicode="&#xba;" horiz-adv-x="440" 
d="M220 351c-107 0 -196 89 -195 198c0 109 89 198 195 198s195 -89 195 -198s-89 -198 -195 -198zM220 367c91 0 137 83 137 182s-46 182 -137 182s-138 -83 -138 -182s46 -182 138 -182z" />
    <glyph glyph-name="guillemotright" unicode="&#xbb;" horiz-adv-x="401" 
d="M213 52l-8 6l91 179l-91 179l8 6l138 -175v-20zM63 52l-8 6l91 179l-91 179l8 6l138 -175v-20z" />
    <glyph glyph-name="onequarter" unicode="&#xbc;" horiz-adv-x="595" 
d="M153 354h-106v1c23 27 28 42 28 78v229h-48v4c34 19 65 46 92 78h5v-311c0 -37 5 -51 29 -78v-1zM59 1l-16 13l521 729l17 -11zM467 0v1c18 27 23 42 23 78v21h-173v7l180 278h57l-214 -269h150v126h48v-126h49l-4 -16h-45v-21c0 -37 6 -51 24 -78v-1h-95z" />
    <glyph glyph-name="onehalf" unicode="&#xbd;" horiz-adv-x="655" 
d="M49 1l-16 13l521 729l17 -11zM615 0h-233v7c152 128 198 201 198 280c0 57 -28 91 -77 91c-47 0 -70 -39 -97 -92l-5 2l12 88c19 7 50 17 91 17c89 0 125 -45 125 -104c0 -79 -66 -151 -187 -247h105c48 0 70 29 95 71l5 -2zM153 354h-106v1c23 27 28 42 28 78v229h-48v4
c34 19 65 46 92 78h5v-311c0 -37 5 -51 29 -78v-1z" />
    <glyph glyph-name="threequarters" unicode="&#xbe;" horiz-adv-x="646" 
d="M139 346c-38 0 -78 10 -99 23l-13 83l5 1c34 -55 60 -92 112 -92c61 0 86 51 86 113c0 71 -33 103 -91 103c-31 0 -51 -9 -69 -22l-7 9l147 131h-162l14 43h213v-5l-162 -144c11 3 24 5 38 5c68 0 128 -40 128 -120c0 -77 -57 -128 -140 -128zM110 1l-16 13l521 729
l17 -11zM518 0v1c18 27 23 42 23 78v21h-173v7l180 278h57l-214 -269h150v126h48v-126h49l-4 -16h-45v-21c0 -37 6 -51 24 -78v-1h-95z" />
    <glyph glyph-name="questiondown" unicode="&#xbf;" horiz-adv-x="433" 
d="M281 293h16c-23 -177 -197 -194 -197 -387c0 -95 40 -148 123 -148c80 0 122 46 158 140l7 -2l-19 -124c-29 -11 -83 -32 -151 -32c-111 0 -178 59 -178 165c0 186 201 210 241 388zM283 490c25 0 47 -21 47 -47s-22 -47 -47 -47c-26 0 -47 21 -47 47s21 47 47 47z" />
    <glyph glyph-name="Agrave" unicode="&#xc0;" horiz-adv-x="625" 
d="M432 296l-134 378l-135 -378h269zM117 2v-2h-112v2c37 36 44 54 68 119l226 620h27l229 -629c27 -74 32 -85 65 -110v-2h-125v2c13 18 24 51 2 112l-58 162h-284l-57 -160c-23 -63 -3 -94 19 -114zM395 789l-4 -7l-231 123l37 54z" />
    <glyph glyph-name="Aacute" unicode="&#xc1;" horiz-adv-x="625" 
d="M432 296l-134 378l-135 -378h269zM117 2v-2h-112v2c37 36 44 54 68 119l226 620h27l229 -629c27 -74 32 -85 65 -110v-2h-125v2c13 18 24 51 2 112l-58 162h-284l-57 -160c-23 -63 -3 -94 19 -114zM216 789l198 170l33 -54l-227 -123z" />
    <glyph glyph-name="Acircumflex" unicode="&#xc2;" horiz-adv-x="625" 
d="M432 296l-134 378l-135 -378h269zM117 2v-2h-112v2c37 36 44 54 68 119l226 620h27l229 -629c27 -74 32 -85 65 -110v-2h-125v2c13 18 24 51 2 112l-58 162h-284l-57 -160c-23 -63 -3 -94 19 -114zM459 782l-147 99l-147 -99l-6 7l151 156h4l151 -156z" />
    <glyph glyph-name="Atilde" unicode="&#xc3;" horiz-adv-x="625" 
d="M432 296l-134 378l-135 -378h269zM117 2v-2h-112v2c37 36 44 54 68 119l226 620h27l229 -629c27 -74 32 -85 65 -110v-2h-125v2c13 18 24 51 2 112l-58 162h-284l-57 -160c-23 -63 -3 -94 19 -114zM236 902c65 0 115 -55 173 -55c37 0 52 20 63 65l8 -1
c-2 -39 -12 -115 -86 -115c-65 0 -115 55 -173 55c-37 0 -52 -20 -63 -65l-8 1c2 39 12 115 86 115z" />
    <glyph glyph-name="Adieresis" unicode="&#xc4;" horiz-adv-x="625" 
d="M432 296l-134 378l-135 -378h269zM117 2v-2h-112v2c37 36 44 54 68 119l226 620h27l229 -629c27 -74 32 -85 65 -110v-2h-125v2c13 18 24 51 2 112l-58 162h-284l-57 -160c-23 -63 -3 -94 19 -114zM478 868c0 -23 -18 -41 -41 -41c-22 0 -41 18 -41 41s19 41 41 41
c23 0 41 -18 41 -41zM218 868c0 -23 -18 -41 -41 -41c-22 0 -41 18 -41 41s19 41 41 41c23 0 41 -18 41 -41z" />
    <glyph glyph-name="Aring" unicode="&#xc5;" horiz-adv-x="625" 
d="M432 296l-134 378l-135 -378h269zM117 2v-2h-112v2c37 36 44 54 68 119l226 620h27l229 -629c27 -74 32 -85 65 -110v-2h-125v2c13 18 24 51 2 112l-58 162h-284l-57 -160c-23 -63 -3 -94 19 -114zM223 865c0 49 35 85 84 85s84 -36 84 -85s-35 -83 -84 -83
s-84 34 -84 83zM251 865c0 -40 19 -66 56 -66s56 26 56 66s-18 68 -56 68s-56 -28 -56 -68z" />
    <glyph glyph-name="AE" unicode="&#xc6;" horiz-adv-x="948" 
d="M454 617c0 25 -4 45 -12 63l-215 -384h227v321zM123 2v-2h-118v2c44 35 60 53 99 122l326 576c-9 11 -21 21 -35 30v2h443l39 -145l-8 -3c-46 63 -84 123 -114 125l-246 6v-337h161c27 0 51 54 71 85h8v-185h-8c-19 27 -44 80 -71 80h-161v-341l253 7
c64 2 109 58 163 141l8 -3l-45 -162h-473v2c26 41 39 69 39 113v161h-238l-89 -159c-32 -57 -28 -93 -4 -115z" />
    <glyph glyph-name="Ccedilla" unicode="&#xc7;" horiz-adv-x="742" 
d="M306 -255l-2 8c62 23 105 45 105 91c0 54 -60 63 -86 65l-1 2s28 47 46 76c-208 15 -328 178 -328 380c0 213 148 380 388 380c96 0 191 -28 240 -50l20 -141l-8 -2c-66 123 -144 173 -256 173c-216 0 -318 -154 -318 -360s96 -362 300 -362c149 0 226 78 278 213l8 -2
l-20 -153c-38 -29 -146 -78 -270 -78h-7l-26 -42c48 -11 83 -39 83 -86c0 -62 -61 -95 -146 -112z" />
    <glyph glyph-name="Egrave" unicode="&#xc8;" horiz-adv-x="585" 
d="M570 162l-45 -162h-473v2c26 41 39 69 39 113v502c0 45 -13 72 -39 113v2h423l39 -145l-8 -3c-46 63 -84 123 -114 125l-246 6v-337h161c27 0 51 54 71 85h8v-185h-8c-19 27 -44 80 -71 80h-161v-341l253 7c64 2 109 58 163 141zM364 789l-4 -7l-231 123l37 54z" />
    <glyph glyph-name="Eacute" unicode="&#xc9;" horiz-adv-x="585" 
d="M570 162l-45 -162h-473v2c26 41 39 69 39 113v502c0 45 -13 72 -39 113v2h423l39 -145l-8 -3c-46 63 -84 123 -114 125l-246 6v-337h161c27 0 51 54 71 85h8v-185h-8c-19 27 -44 80 -71 80h-161v-341l253 7c64 2 109 58 163 141zM185 789l198 170l33 -54l-227 -123z" />
    <glyph glyph-name="Ecircumflex" unicode="&#xca;" horiz-adv-x="585" 
d="M570 162l-45 -162h-473v2c26 41 39 69 39 113v502c0 45 -13 72 -39 113v2h423l39 -145l-8 -3c-46 63 -84 123 -114 125l-246 6v-337h161c27 0 51 54 71 85h8v-185h-8c-19 27 -44 80 -71 80h-161v-341l253 7c64 2 109 58 163 141zM443 782l-147 99l-147 -99l-6 7l151 156
h4l151 -156z" />
    <glyph glyph-name="Edieresis" unicode="&#xcb;" horiz-adv-x="585" 
d="M570 162l-45 -162h-473v2c26 41 39 69 39 113v502c0 45 -13 72 -39 113v2h423l39 -145l-8 -3c-46 63 -84 123 -114 125l-246 6v-337h161c27 0 51 54 71 85h8v-185h-8c-19 27 -44 80 -71 80h-161v-341l253 7c64 2 109 58 163 141zM447 868c0 -23 -18 -41 -41 -41
c-22 0 -41 18 -41 41s19 41 41 41c23 0 41 -18 41 -41zM187 868c0 -23 -18 -41 -41 -41c-22 0 -41 18 -41 41s19 41 41 41c23 0 41 -18 41 -41z" />
    <glyph glyph-name="Igrave" unicode="&#xcc;" horiz-adv-x="238" 
d="M52 0l1 2c33 42 39 66 39 122v484c0 56 -7 80 -40 122v2h134v-2c-33 -42 -40 -65 -40 -122v-484c0 -57 8 -80 41 -122l-1 -2h-134zM207 789l-4 -7l-231 123l37 54z" />
    <glyph glyph-name="Iacute" unicode="&#xcd;" horiz-adv-x="238" 
d="M52 0l1 2c33 42 39 66 39 122v484c0 56 -7 80 -40 122v2h134v-2c-33 -42 -40 -65 -40 -122v-484c0 -57 8 -80 41 -122l-1 -2h-134zM28 789l198 170l33 -54l-227 -123z" />
    <glyph glyph-name="Icircumflex" unicode="&#xce;" horiz-adv-x="238" 
d="M52 0l1 2c33 42 39 66 39 122v484c0 56 -7 80 -40 122v2h134v-2c-33 -42 -40 -65 -40 -122v-484c0 -57 8 -80 41 -122l-1 -2h-134zM266 782l-147 99l-147 -99l-6 7l151 156h4l151 -156z" />
    <glyph glyph-name="Idieresis" unicode="&#xcf;" horiz-adv-x="238" 
d="M260 868c0 -23 -18 -41 -41 -41c-22 0 -41 18 -41 41s19 41 41 41c23 0 41 -18 41 -41zM60 868c0 -23 -18 -41 -41 -41c-22 0 -41 18 -41 41s19 41 41 41c23 0 41 -18 41 -41zM52 0l1 2c33 42 39 66 39 122v484c0 56 -7 80 -40 122v2h134v-2c-33 -42 -40 -65 -40 -122
v-484c0 -57 8 -80 41 -122l-1 -2h-134z" />
    <glyph glyph-name="Eth" unicode="&#xd0;" horiz-adv-x="727" 
d="M2 358v18h100v210c0 66 -7 94 -40 144v2c134 0 144 4 281 4c214 0 344 -130 344 -367s-131 -369 -364 -369h-261v2c33 50 40 78 40 144v212h-100zM333 716l-177 1v-341h224v-18h-224v-339l157 1c221 1 308 117 308 335c0 247 -98 360 -288 361z" />
    <glyph glyph-name="Ntilde" unicode="&#xd1;" horiz-adv-x="716" 
d="M617 -3l-506 635l4 -494c0 -62 12 -88 70 -136v-2h-143v2c42 48 50 74 50 136v516c-23 33 -51 62 -80 76v2h89l505 -634l-3 496c-1 62 -10 88 -60 136v2h133v-2c-42 -48 -50 -73 -50 -136v-594zM286 902c65 0 115 -55 173 -55c37 0 52 20 63 65l8 -1
c-2 -39 -12 -115 -86 -115c-65 0 -115 55 -173 55c-37 0 -52 -20 -63 -65l-8 1c2 39 12 115 86 115z" />
    <glyph glyph-name="Ograve" unicode="&#xd2;" horiz-adv-x="811" 
d="M405 -15c-208 0 -365 164 -365 380s157 382 365 382s366 -166 366 -382s-158 -380 -366 -380zM405 5c185 0 300 153 300 360c0 206 -115 362 -300 362s-299 -156 -299 -362s114 -360 299 -360zM493 789l-4 -7l-231 123l37 54z" />
    <glyph glyph-name="Oacute" unicode="&#xd3;" horiz-adv-x="811" 
d="M405 -15c-208 0 -365 164 -365 380s157 382 365 382s366 -166 366 -382s-158 -380 -366 -380zM405 5c185 0 300 153 300 360c0 206 -115 362 -300 362s-299 -156 -299 -362s114 -360 299 -360zM314 789l198 170l33 -54l-227 -123z" />
    <glyph glyph-name="Ocircumflex" unicode="&#xd4;" horiz-adv-x="811" 
d="M405 -15c-208 0 -365 164 -365 380s157 382 365 382s366 -166 366 -382s-158 -380 -366 -380zM405 5c185 0 300 153 300 360c0 206 -115 362 -300 362s-299 -156 -299 -362s114 -360 299 -360zM552 782l-147 99l-147 -99l-6 7l151 156h4l151 -156z" />
    <glyph glyph-name="Otilde" unicode="&#xd5;" horiz-adv-x="811" 
d="M405 -15c-208 0 -365 164 -365 380s157 382 365 382s366 -166 366 -382s-158 -380 -366 -380zM405 5c185 0 300 153 300 360c0 206 -115 362 -300 362s-299 -156 -299 -362s114 -360 299 -360zM326 902c65 0 115 -55 173 -55c37 0 52 20 63 65l8 -1
c-2 -39 -12 -115 -86 -115c-65 0 -115 55 -173 55c-37 0 -52 -20 -63 -65l-8 1c2 39 12 115 86 115z" />
    <glyph glyph-name="Odieresis" unicode="&#xd6;" horiz-adv-x="811" 
d="M405 -15c-208 0 -365 164 -365 380s157 382 365 382s366 -166 366 -382s-158 -380 -366 -380zM405 5c185 0 300 153 300 360c0 206 -115 362 -300 362s-299 -156 -299 -362s114 -360 299 -360zM576 868c0 -23 -18 -41 -41 -41c-22 0 -41 18 -41 41s19 41 41 41
c23 0 41 -18 41 -41zM316 868c0 -23 -18 -41 -41 -41c-22 0 -41 18 -41 41s19 41 41 41c23 0 41 -18 41 -41z" />
    <glyph glyph-name="multiply" unicode="&#xd7;" horiz-adv-x="472" 
d="M406 122l-170 170l-170 -170l-15 15l170 170l-170 170l15 15l170 -170l170 170l15 -15l-170 -170l170 -170z" />
    <glyph glyph-name="Oslash" unicode="&#xd8;" horiz-adv-x="811" 
d="M106 365c0 -116 36 -215 100 -280l381 577c-48 41 -110 65 -182 65c-185 0 -299 -156 -299 -362zM405 5c185 0 300 153 300 360c0 116 -37 217 -102 282l-381 -577c49 -41 110 -65 183 -65zM405 -15c-75 0 -143 21 -200 59l-48 -73h-26l56 85c-90 68 -147 179 -147 309
c0 216 157 382 365 382c75 0 143 -21 199 -59l49 74h26l-57 -86c91 -69 149 -181 149 -311c0 -216 -158 -380 -366 -380z" />
    <glyph glyph-name="Ugrave" unicode="&#xd9;" horiz-adv-x="684" 
d="M353 -15c-148 0 -273 73 -273 253v367c0 58 -7 82 -40 125v2h134v-2c-27 -36 -40 -67 -40 -125v-364c0 -172 103 -234 228 -234c172 0 221 116 221 243v342c0 63 -13 89 -72 138v2h155v-2c-50 -49 -62 -75 -62 -138v-341c0 -143 -62 -266 -251 -266zM448 789l-4 -7
l-231 123l37 54z" />
    <glyph glyph-name="Uacute" unicode="&#xda;" horiz-adv-x="684" 
d="M353 -15c-148 0 -273 73 -273 253v367c0 58 -7 82 -40 125v2h134v-2c-27 -36 -40 -67 -40 -125v-364c0 -172 103 -234 228 -234c172 0 221 116 221 243v342c0 63 -13 89 -72 138v2h155v-2c-50 -49 -62 -75 -62 -138v-341c0 -143 -62 -266 -251 -266zM269 789l198 170
l33 -54l-227 -123z" />
    <glyph glyph-name="Ucircumflex" unicode="&#xdb;" horiz-adv-x="684" 
d="M353 -15c-148 0 -273 73 -273 253v367c0 58 -7 82 -40 125v2h134v-2c-27 -36 -40 -67 -40 -125v-364c0 -172 103 -234 228 -234c172 0 221 116 221 243v342c0 63 -13 89 -72 138v2h155v-2c-50 -49 -62 -75 -62 -138v-341c0 -143 -62 -266 -251 -266zM507 782l-147 99
l-147 -99l-6 7l151 156h4l151 -156z" />
    <glyph glyph-name="Udieresis" unicode="&#xdc;" horiz-adv-x="684" 
d="M353 -15c-148 0 -273 73 -273 253v367c0 58 -7 82 -40 125v2h134v-2c-27 -36 -40 -67 -40 -125v-364c0 -172 103 -234 228 -234c172 0 221 116 221 243v342c0 63 -13 89 -72 138v2h155v-2c-50 -49 -62 -75 -62 -138v-341c0 -143 -62 -266 -251 -266zM531 868
c0 -23 -18 -41 -41 -41c-22 0 -41 18 -41 41s19 41 41 41c23 0 41 -18 41 -41zM271 868c0 -23 -18 -41 -41 -41c-22 0 -41 18 -41 41s19 41 41 41c23 0 41 -18 41 -41z" />
    <glyph glyph-name="Yacute" unicode="&#xdd;" horiz-adv-x="570" 
d="M215 0v2c32 36 40 57 40 104v236l-169 291c-30 52 -51 77 -86 97v2h155v-2c-32 -15 -32 -50 -9 -91l156 -270l135 226c45 75 29 109 -3 135v2h136v-2c-52 -33 -67 -64 -110 -135l-151 -251v-238c0 -48 7 -68 40 -104v-2h-134zM206 789l198 170l33 -54l-227 -123z" />
    <glyph glyph-name="Thorn" unicode="&#xde;" horiz-adv-x="537" 
d="M272 542c-29 0 -59 0 -126 -3v-329h134c128 0 181 74 181 173c0 131 -92 159 -189 159zM187 2l-1 -2h-134l1 2c33 42 39 66 39 122v484c0 56 -7 80 -40 122v2h134v-2c-33 -42 -40 -65 -40 -122v-46h140c172 0 231 -80 231 -179c0 -118 -84 -193 -236 -193h-135v-66
c0 -57 8 -80 41 -122z" />
    <glyph glyph-name="germandbls" unicode="&#xdf;" horiz-adv-x="549" 
d="M371 -15c-65 0 -102 20 -125 33l-10 102l8 2c29 -80 67 -119 136 -119c72 0 113 43 113 103c0 140 -229 92 -229 244c0 121 146 134 146 276c0 70 -36 133 -121 133c-88 0 -139 -64 -139 -171v-588h-74v2c17 26 24 61 24 137v318h-63v18h63v71c0 140 71 233 189 233
c86 0 166 -51 166 -149c0 -138 -160 -163 -160 -259c0 -118 239 -69 239 -247c0 -89 -61 -139 -163 -139z" />
    <glyph glyph-name="agrave" unicode="&#xe0;" horiz-adv-x="464" 
d="M180 21c54 0 106 24 134 52v177c-108 -14 -224 -56 -224 -149c0 -46 28 -80 90 -80zM378 -12c-43 0 -63 29 -64 68c-35 -37 -93 -71 -158 -71c-70 0 -117 38 -117 102c0 117 161 169 275 179v92c0 54 -25 102 -113 102c-54 0 -106 -20 -140 -44l-5 7c40 40 101 67 174 67
c111 0 134 -59 134 -122v-302c0 -26 12 -43 39 -43c23 0 37 13 48 24l3 -2c-7 -22 -29 -57 -76 -57zM291 539l-7 -6l-172 178l49 38z" />
    <glyph glyph-name="aacute" unicode="&#xe1;" horiz-adv-x="464" 
d="M180 21c54 0 106 24 134 52v177c-108 -14 -224 -56 -224 -149c0 -46 28 -80 90 -80zM378 -12c-43 0 -63 29 -64 68c-35 -37 -93 -71 -158 -71c-70 0 -117 38 -117 102c0 117 161 169 275 179v92c0 54 -25 102 -113 102c-54 0 -106 -20 -140 -44l-5 7c40 40 101 67 174 67
c111 0 134 -59 134 -122v-302c0 -26 12 -43 39 -43c23 0 37 13 48 24l3 -2c-7 -22 -29 -57 -76 -57zM166 539l130 210l49 -38l-172 -178z" />
    <glyph glyph-name="acircumflex" unicode="&#xe2;" horiz-adv-x="464" 
d="M180 21c54 0 106 24 134 52v177c-108 -14 -224 -56 -224 -149c0 -46 28 -80 90 -80zM378 -12c-43 0 -63 29 -64 68c-35 -37 -93 -71 -158 -71c-70 0 -117 38 -117 102c0 117 161 169 275 179v92c0 54 -25 102 -113 102c-54 0 -106 -20 -140 -44l-5 7c40 40 101 67 174 67
c111 0 134 -59 134 -122v-302c0 -26 12 -43 39 -43c23 0 37 13 48 24l3 -2c-7 -22 -29 -57 -76 -57zM358 540l-133 111l-129 -111l-7 6l134 173h4l138 -173z" />
    <glyph glyph-name="atilde" unicode="&#xe3;" horiz-adv-x="464" 
d="M180 21c54 0 106 24 134 52v177c-108 -14 -224 -56 -224 -149c0 -46 28 -80 90 -80zM378 -12c-43 0 -63 29 -64 68c-35 -37 -93 -71 -158 -71c-70 0 -117 38 -117 102c0 117 161 169 275 179v92c0 54 -25 102 -113 102c-54 0 -106 -20 -140 -44l-5 7c40 40 101 67 174 67
c111 0 134 -59 134 -122v-302c0 -26 12 -43 39 -43c23 0 37 13 48 24l3 -2c-7 -22 -29 -57 -76 -57zM152 682c54 0 84 -44 141 -44c35 0 52 18 61 54l8 -1c-2 -34 -14 -99 -80 -99c-54 0 -84 44 -141 44c-35 0 -52 -18 -61 -54l-8 1c2 34 14 99 80 99z" />
    <glyph glyph-name="adieresis" unicode="&#xe4;" horiz-adv-x="464" 
d="M180 21c54 0 106 24 134 52v177c-108 -14 -224 -56 -224 -149c0 -46 28 -80 90 -80zM378 -12c-43 0 -63 29 -64 68c-35 -37 -93 -71 -158 -71c-70 0 -117 38 -117 102c0 117 161 169 275 179v92c0 54 -25 102 -113 102c-54 0 -106 -20 -140 -44l-5 7c40 40 101 67 174 67
c111 0 134 -59 134 -122v-302c0 -26 12 -43 39 -43c23 0 37 13 48 24l3 -2c-7 -22 -29 -57 -76 -57zM358 659c0 -23 -18 -41 -41 -41c-22 0 -41 18 -41 41s19 41 41 41c23 0 41 -18 41 -41zM158 659c0 -23 -18 -41 -41 -41c-22 0 -41 18 -41 41s19 41 41 41
c23 0 41 -18 41 -41z" />
    <glyph glyph-name="aring" unicode="&#xe5;" horiz-adv-x="464" 
d="M180 21c54 0 106 24 134 52v177c-108 -14 -224 -56 -224 -149c0 -46 28 -80 90 -80zM378 -12c-43 0 -63 29 -64 68c-35 -37 -93 -71 -158 -71c-70 0 -117 38 -117 102c0 117 161 169 275 179v92c0 54 -25 102 -113 102c-54 0 -106 -20 -140 -44l-5 7c40 40 101 67 174 67
c111 0 134 -59 134 -122v-302c0 -26 12 -43 39 -43c23 0 37 13 48 24l3 -2c-7 -22 -29 -57 -76 -57zM143 654c0 49 35 85 84 85s84 -36 84 -85s-35 -83 -84 -83s-84 34 -84 83zM171 654c0 -40 19 -66 56 -66s56 26 56 66s-18 68 -56 68s-56 -28 -56 -68z" />
    <glyph glyph-name="ae" unicode="&#xe6;" horiz-adv-x="734" 
d="M514 -15c-84 0 -149 43 -183 116c-34 -60 -94 -116 -182 -116c-71 0 -118 38 -118 102c0 117 161 169 275 179v92c0 54 -25 102 -113 102c-54 0 -106 -20 -140 -44l-5 7c40 40 101 67 174 67c94 0 123 -44 130 -96c37 62 97 96 167 96c112 0 180 -88 173 -192h-328
c-2 -14 -3 -30 -3 -46c0 -128 54 -221 171 -221c60 0 129 25 162 82l5 -2c-24 -75 -93 -126 -185 -126zM518 472c-80 0 -136 -58 -152 -159l263 6v6c0 101 -40 147 -111 147zM173 23c71 0 123 47 151 97c-12 31 -18 68 -18 108v22c-106 -14 -219 -55 -219 -149
c0 -45 26 -78 86 -78z" />
    <glyph glyph-name="ccedilla" unicode="&#xe7;" 
d="M154 -255l-2 8c62 23 105 45 105 91c0 54 -60 63 -86 65l-1 2s29 49 47 78c-105 17 -177 104 -177 235c0 167 118 266 251 266c63 0 110 -22 134 -33l7 -94l-6 -2c-44 75 -81 111 -152 111c-107 0 -179 -81 -179 -221c0 -127 60 -220 178 -220c61 0 131 25 165 82l5 -2
c-25 -75 -95 -126 -187 -126h-13l-26 -42c48 -11 83 -39 83 -86c0 -62 -61 -95 -146 -112z" />
    <glyph glyph-name="egrave" unicode="&#xe8;" 
d="M260 472c-84 0 -143 -58 -160 -159l277 6v6c0 101 -42 147 -117 147zM443 111c-25 -75 -95 -126 -188 -126c-129 0 -215 99 -215 245c0 158 103 260 223 260c115 0 184 -93 177 -192h-342c-2 -14 -3 -30 -3 -46c0 -128 59 -221 178 -221c62 0 131 25 165 82zM308 539
l-7 -6l-172 178l49 38z" />
    <glyph glyph-name="eacute" unicode="&#xe9;" 
d="M260 472c-84 0 -143 -58 -160 -159l277 6v6c0 101 -42 147 -117 147zM443 111c-25 -75 -95 -126 -188 -126c-129 0 -215 99 -215 245c0 158 103 260 223 260c115 0 184 -93 177 -192h-342c-2 -14 -3 -30 -3 -46c0 -128 59 -221 178 -221c62 0 131 25 165 82zM183 539
l130 210l49 -38l-172 -178z" />
    <glyph glyph-name="ecircumflex" unicode="&#xea;" 
d="M260 472c-84 0 -143 -58 -160 -159l277 6v6c0 101 -42 147 -117 147zM443 111c-25 -75 -95 -126 -188 -126c-129 0 -215 99 -215 245c0 158 103 260 223 260c115 0 184 -93 177 -192h-342c-2 -14 -3 -30 -3 -46c0 -128 59 -221 178 -221c62 0 131 25 165 82zM375 540
l-133 111l-129 -111l-7 6l134 173h4l138 -173z" />
    <glyph glyph-name="edieresis" unicode="&#xeb;" 
d="M260 472c-84 0 -143 -58 -160 -159l277 6v6c0 101 -42 147 -117 147zM443 111c-25 -75 -95 -126 -188 -126c-129 0 -215 99 -215 245c0 158 103 260 223 260c115 0 184 -93 177 -192h-342c-2 -14 -3 -30 -3 -46c0 -128 59 -221 178 -221c62 0 131 25 165 82zM385 659
c0 -23 -18 -41 -41 -41c-22 0 -41 18 -41 41s19 41 41 41c23 0 41 -18 41 -41zM185 659c0 -23 -18 -41 -41 -41c-22 0 -41 18 -41 41s19 41 41 41c23 0 41 -18 41 -41z" />
    <glyph glyph-name="igrave" unicode="&#xec;" horiz-adv-x="197" 
d="M54 0v2c18 34 22 65 22 117v248c0 37 -22 60 -44 74v2l94 52v-375c0 -53 1 -84 22 -118v-2h-94zM155 539l-7 -6l-172 178l49 38z" />
    <glyph glyph-name="iacute" unicode="&#xed;" horiz-adv-x="197" 
d="M54 0v2c18 34 22 65 22 117v248c0 37 -22 60 -44 74v2l94 52v-375c0 -53 1 -84 22 -118v-2h-94zM51 539l130 210l49 -38l-172 -178z" />
    <glyph glyph-name="icircumflex" unicode="&#xee;" horiz-adv-x="197" 
d="M54 0v2c18 34 22 65 22 117v248c0 37 -22 60 -44 74v2l94 52v-375c0 -53 1 -84 22 -118v-2h-94zM233 540l-133 111l-129 -111l-7 6l134 173h4l138 -173z" />
    <glyph glyph-name="idieresis" unicode="&#xef;" horiz-adv-x="197" 
d="M213 659c0 -23 -18 -41 -41 -41c-22 0 -41 18 -41 41s19 41 41 41c23 0 41 -18 41 -41zM63 659c0 -23 -18 -41 -41 -41c-22 0 -41 18 -41 41s19 41 41 41c23 0 41 -18 41 -41zM54 0v2c18 34 22 65 22 117v248c0 37 -22 60 -44 74v2l94 52v-375c0 -53 1 -84 22 -118v-2
h-94z" />
    <glyph glyph-name="eth" unicode="&#xf0;" horiz-adv-x="562" 
d="M281 -15c-134 0 -246 111 -246 252s99 245 237 245c103 0 158 -58 181 -99c-21 93 -65 187 -139 264l-117 -80l-11 16l114 78c-44 43 -98 80 -164 107l4 10c74 -26 135 -61 186 -100l114 77l11 -16l-109 -74c134 -113 185 -264 185 -388c0 -183 -112 -292 -246 -292z
M281 3c123 0 186 99 186 251c0 25 -2 51 -5 78c-42 90 -114 128 -187 128c-114 0 -180 -93 -180 -223s64 -234 186 -234z" />
    <glyph glyph-name="ntilde" unicode="&#xf1;" horiz-adv-x="517" 
d="M148 2v-2h-94v2c19 34 22 64 22 117v247c0 38 -22 61 -44 75v2l90 52v-91l4 -1c51 60 116 87 180 87c93 0 140 -56 140 -146v-224c0 -55 1 -84 22 -118v-2h-94v2c19 34 22 67 22 117v214c0 66 -28 118 -112 118c-53 0 -115 -19 -158 -66v-265c0 -53 1 -84 22 -118z
M201 682c54 0 84 -44 141 -44c35 0 52 18 61 54l8 -1c-2 -34 -14 -99 -80 -99c-54 0 -84 44 -141 44c-35 0 -52 -18 -61 -54l-8 1c2 34 14 99 80 99z" />
    <glyph glyph-name="ograve" unicode="&#xf2;" horiz-adv-x="562" 
d="M281 -15c-134 0 -246 111 -246 252s112 253 246 253s246 -112 246 -253s-112 -252 -246 -252zM281 3c122 0 184 104 184 234s-63 235 -184 235s-184 -105 -184 -235s62 -234 184 -234zM325 539l-7 -6l-172 178l49 38z" />
    <glyph glyph-name="oacute" unicode="&#xf3;" horiz-adv-x="562" 
d="M281 -15c-134 0 -246 111 -246 252s112 253 246 253s246 -112 246 -253s-112 -252 -246 -252zM281 3c122 0 184 104 184 234s-63 235 -184 235s-184 -105 -184 -235s62 -234 184 -234zM240 539l130 210l49 -38l-172 -178z" />
    <glyph glyph-name="ocircumflex" unicode="&#xf4;" horiz-adv-x="562" 
d="M281 -15c-134 0 -246 111 -246 252s112 253 246 253s246 -112 246 -253s-112 -252 -246 -252zM281 3c122 0 184 104 184 234s-63 235 -184 235s-184 -105 -184 -235s62 -234 184 -234zM412 540l-133 111l-129 -111l-7 6l134 173h4l138 -173z" />
    <glyph glyph-name="otilde" unicode="&#xf5;" horiz-adv-x="562" 
d="M281 -15c-134 0 -246 111 -246 252s112 253 246 253s246 -112 246 -253s-112 -252 -246 -252zM281 3c122 0 184 104 184 234s-63 235 -184 235s-184 -105 -184 -235s62 -234 184 -234zM216 682c54 0 84 -44 141 -44c35 0 52 18 61 54l8 -1c-2 -34 -14 -99 -80 -99
c-54 0 -84 44 -141 44c-35 0 -52 -18 -61 -54l-8 1c2 34 14 99 80 99z" />
    <glyph glyph-name="odieresis" unicode="&#xf6;" horiz-adv-x="562" 
d="M281 -15c-134 0 -246 111 -246 252s112 253 246 253s246 -112 246 -253s-112 -252 -246 -252zM281 3c122 0 184 104 184 234s-63 235 -184 235s-184 -105 -184 -235s62 -234 184 -234zM422 659c0 -23 -18 -41 -41 -41c-22 0 -41 18 -41 41s19 41 41 41
c23 0 41 -18 41 -41zM222 659c0 -23 -18 -41 -41 -41c-22 0 -41 18 -41 41s19 41 41 41c23 0 41 -18 41 -41z" />
    <glyph glyph-name="divide" unicode="&#xf7;" horiz-adv-x="546" 
d="M494 298h-442v20h442v-20zM273 94c-25 0 -47 21 -47 47s22 47 47 47c26 0 47 -21 47 -47s-21 -47 -47 -47zM273 428c-25 0 -47 21 -47 47s22 47 47 47c26 0 47 -21 47 -47s-21 -47 -47 -47z" />
    <glyph glyph-name="oslash" unicode="&#xf8;" horiz-adv-x="562" 
d="M281 -15c-50 0 -96 15 -135 41l-64 -93h-25l73 105c-58 46 -95 117 -95 199c0 141 112 253 246 253c49 0 95 -15 133 -41l66 95h25l-74 -107c58 -46 96 -118 96 -200c0 -141 -112 -252 -246 -252zM281 3c122 0 184 104 184 234c0 69 -18 130 -53 173l-250 -361
c30 -29 69 -46 119 -46zM97 237c0 -69 17 -130 51 -172l250 361c-29 29 -69 46 -117 46c-121 0 -184 -105 -184 -235z" />
    <glyph glyph-name="ugrave" unicode="&#xf9;" horiz-adv-x="490" 
d="M362 -12v86c-37 -46 -89 -89 -167 -89c-86 0 -133 54 -133 140v284c0 30 -17 51 -42 64v2h92v-334c0 -77 32 -117 104 -117c64 0 110 31 141 63v322c0 30 -16 51 -44 64v2h94v-364c0 -64 13 -75 45 -89v-2zM282 539l-7 -6l-172 178l49 38z" />
    <glyph glyph-name="uacute" unicode="&#xfa;" horiz-adv-x="490" 
d="M362 -12v86c-37 -46 -89 -89 -167 -89c-86 0 -133 54 -133 140v284c0 30 -17 51 -42 64v2h92v-334c0 -77 32 -117 104 -117c64 0 110 31 141 63v322c0 30 -16 51 -44 64v2h94v-364c0 -64 13 -75 45 -89v-2zM197 539l130 210l49 -38l-172 -178z" />
    <glyph glyph-name="ucircumflex" unicode="&#xfb;" horiz-adv-x="490" 
d="M362 -12v86c-37 -46 -89 -89 -167 -89c-86 0 -133 54 -133 140v284c0 30 -17 51 -42 64v2h92v-334c0 -77 32 -117 104 -117c64 0 110 31 141 63v322c0 30 -16 51 -44 64v2h94v-364c0 -64 13 -75 45 -89v-2zM363 540l-133 111l-129 -111l-7 6l134 173h4l138 -173z" />
    <glyph glyph-name="udieresis" unicode="&#xfc;" horiz-adv-x="490" 
d="M362 -12v86c-37 -46 -89 -89 -167 -89c-86 0 -133 54 -133 140v284c0 30 -17 51 -42 64v2h92v-334c0 -77 32 -117 104 -117c64 0 110 31 141 63v322c0 30 -16 51 -44 64v2h94v-364c0 -64 13 -75 45 -89v-2zM369 659c0 -23 -18 -41 -41 -41c-22 0 -41 18 -41 41
s19 41 41 41c23 0 41 -18 41 -41zM169 659c0 -23 -18 -41 -41 -41c-22 0 -41 18 -41 41s19 41 41 41c23 0 41 -18 41 -41z" />
    <glyph glyph-name="yacute" unicode="&#xfd;" horiz-adv-x="412" 
d="M22 -225l-2 55c35 1 117 25 152 117l25 65l-138 359c-22 57 -34 83 -59 102v2h117v-2c-21 -19 -26 -47 -5 -104l110 -292l108 284c22 59 19 93 -12 112v2h99v-2c-31 -23 -41 -43 -64 -104l-173 -450c-38 -99 -88 -136 -158 -144zM184 539l130 210l49 -38l-172 -178z" />
    <glyph glyph-name="thorn" unicode="&#xfe;" horiz-adv-x="539" 
d="M256 3c110 0 185 92 185 237c0 139 -79 216 -175 216c-65 0 -121 -36 -145 -72v-315c32 -42 79 -66 135 -66zM143 -223v-2h-94v2c19 34 22 64 22 117v779c0 32 -22 50 -44 62v2l94 42v-374h3c36 58 99 85 164 85c122 0 211 -94 211 -239c0 -135 -79 -266 -248 -266
c-67 0 -104 19 -130 39v-129c0 -53 1 -84 22 -118z" />
    <glyph glyph-name="ydieresis" unicode="&#xff;" horiz-adv-x="412" 
d="M22 -225l-2 55c35 1 117 25 152 117l25 65l-138 359c-22 57 -34 83 -59 102v2h117v-2c-21 -19 -26 -47 -5 -104l110 -292l108 284c22 59 19 93 -12 112v2h99v-2c-31 -23 -41 -43 -64 -104l-173 -450c-38 -99 -88 -136 -158 -144zM364 659c0 -23 -18 -41 -41 -41
c-22 0 -41 18 -41 41s19 41 41 41c23 0 41 -18 41 -41zM164 659c0 -23 -18 -41 -41 -41c-22 0 -41 18 -41 41s19 41 41 41c23 0 41 -18 41 -41z" />
    <glyph glyph-name="dotlessi" unicode="&#x131;" horiz-adv-x="197" 
d="M54 0v2c18 34 22 65 22 117v248c0 37 -22 60 -44 74v2l94 52v-375c0 -53 1 -84 22 -118v-2h-94z" />
    <glyph glyph-name="Lslash" unicode="&#x141;" horiz-adv-x="551" 
d="M18 219v24l84 46v319c0 56 -7 80 -40 122v2h134v-2c-33 -42 -40 -65 -40 -122v-290l252 139v-24l-252 -139v-277l208 7c65 3 110 46 164 141l8 -3l-46 -162h-428v2c33 42 40 66 40 122v141z" />
    <glyph glyph-name="lslash" unicode="&#x142;" horiz-adv-x="222" 
d="M20 259v28l66 69v317c0 32 -22 50 -44 62v2l94 42v-371l64 67v-28l-64 -67v-260c0 -52 1 -84 22 -118v-2h-94v2c19 34 22 65 22 117v209z" />
    <glyph glyph-name="OE" unicode="&#x152;" horiz-adv-x="1025" 
d="M434 20l69 -2c19 33 28 59 28 97v502c0 40 -10 63 -31 97l-86 -2c-197 -5 -308 -110 -308 -349c0 -226 100 -336 328 -343zM1010 162l-45 -162h-541c-239 0 -384 132 -384 369s144 363 364 363h511l39 -145l-8 -3c-46 63 -84 123 -114 125l-246 6v-337h161
c27 0 51 54 71 85h8v-185h-8c-19 27 -44 80 -71 80h-161v-341l253 7c64 2 109 58 163 141z" />
    <glyph glyph-name="oe" unicode="&#x153;" horiz-adv-x="910" 
d="M692 472c-83 0 -143 -58 -160 -159l273 6v6c0 101 -40 147 -113 147zM281 3c122 0 186 104 186 234s-65 235 -186 235s-186 -105 -186 -235s64 -234 186 -234zM875 111c-25 -75 -95 -126 -189 -126c-91 0 -161 48 -193 131c-41 -79 -121 -131 -212 -131
c-134 0 -246 111 -246 252s112 253 246 253c94 0 176 -56 216 -139c37 88 114 139 199 139c113 0 179 -88 172 -192h-338c-2 -14 -3 -30 -3 -46c0 -128 56 -221 178 -221c61 0 131 25 165 82z" />
    <glyph glyph-name="Scaron" unicode="&#x160;" horiz-adv-x="533" 
d="M428 717l20 -139l-8 -3c-41 119 -109 152 -190 152c-112 0 -157 -66 -157 -134c0 -107 98 -140 198 -183c103 -44 207 -93 207 -227c0 -144 -119 -198 -251 -198c-70 0 -138 15 -192 38l-20 142l8 3c45 -113 109 -163 224 -163c119 0 178 62 178 158
c0 120 -93 159 -191 201c-101 43 -203 85 -203 211c0 113 86 172 215 172c62 0 120 -13 162 -30zM265 782h-4l-151 156l6 7l147 -99l147 99l6 -7z" />
    <glyph glyph-name="scaron" unicode="&#x161;" horiz-adv-x="375" 
d="M313 472l10 -89l-8 -2c-37 72 -78 91 -127 91c-62 0 -107 -35 -107 -88c0 -63 57 -83 127 -110s142 -59 142 -152c0 -84 -61 -137 -176 -137c-64 0 -105 16 -132 29l-10 102l8 2c33 -80 78 -115 148 -115c80 0 121 46 121 102c0 67 -60 92 -126 117s-143 56 -143 143
c0 93 84 125 165 125c41 0 81 -8 108 -18zM190 540l-134 173l7 6l129 -111l133 111l7 -6l-138 -173h-4z" />
    <glyph glyph-name="Ydieresis" unicode="&#x178;" horiz-adv-x="570" 
d="M215 0v2c32 36 40 57 40 104v236l-169 291c-30 52 -51 77 -86 97v2h155v-2c-32 -15 -32 -50 -9 -91l156 -270l135 226c45 75 29 109 -3 135v2h136v-2c-52 -33 -67 -64 -110 -135l-151 -251v-238c0 -48 7 -68 40 -104v-2h-134zM468 868c0 -23 -18 -41 -41 -41
c-22 0 -41 18 -41 41s19 41 41 41c23 0 41 -18 41 -41zM208 868c0 -23 -18 -41 -41 -41c-22 0 -41 18 -41 41s19 41 41 41c23 0 41 -18 41 -41z" />
    <glyph glyph-name="Zcaron" unicode="&#x17d;" horiz-adv-x="608" 
d="M529 0h-499v11l465 705l-263 -8c-71 -2 -121 -59 -171 -151l-8 3l47 172h464v-11l-464 -706l299 9c67 2 120 56 171 157l8 -3zM332 782h-4l-151 156l6 7l147 -99l147 99l6 -7z" />
    <glyph glyph-name="zcaron" unicode="&#x17e;" horiz-adv-x="412" 
d="M347 0h-327v7l298 451l-152 -4c-50 -1 -72 -34 -112 -82l-5 2l33 101h299v-8l-297 -450l168 3c60 1 82 32 125 92l5 -2zM216 540l-134 173l7 6l129 -111l133 111l7 -6l-138 -173h-4z" />
    <glyph glyph-name="circumflex" unicode="&#x2c6;" horiz-adv-x="450" 
d="M358 540l-133 111l-129 -111l-7 6l134 173h4l138 -173z" />
    <glyph glyph-name="caron" unicode="&#x2c7;" horiz-adv-x="450" 
d="M223 540l-134 173l7 6l129 -111l133 111l7 -6l-138 -173h-4z" />
    <glyph glyph-name="breve" unicode="&#x2d8;" horiz-adv-x="450" 
d="M224 614c61 0 100 31 115 79h8c-3 -47 -28 -122 -124 -122c-93 0 -117 75 -121 122h8c16 -48 53 -79 114 -79z" />
    <glyph glyph-name="dotaccent" unicode="&#x2d9;" horiz-adv-x="450" 
d="M266 659c0 -23 -18 -41 -41 -41c-22 0 -41 18 -41 41s19 41 41 41c23 0 41 -18 41 -41z" />
    <glyph glyph-name="ring" unicode="&#x2da;" horiz-adv-x="300" 
d="M66 654c0 49 35 85 84 85s84 -36 84 -85s-35 -83 -84 -83s-84 34 -84 83zM94 654c0 -40 19 -66 56 -66s56 26 56 66s-18 68 -56 68s-56 -28 -56 -68z" />
    <glyph glyph-name="ogonek" unicode="&#x2db;" horiz-adv-x="300" 
d="M168 1h22c-64 -48 -101 -103 -101 -155c0 -43 25 -62 64 -62c33 0 65 14 100 55l8 -6c-24 -36 -62 -81 -129 -81c-58 0 -89 31 -89 80c0 62 51 110 125 169z" />
    <glyph glyph-name="tilde" unicode="&#x2dc;" horiz-adv-x="450" 
d="M160 682c54 0 84 -44 141 -44c35 0 52 18 61 54l8 -1c-2 -34 -14 -99 -80 -99c-54 0 -84 44 -141 44c-35 0 -52 -18 -61 -54l-8 1c2 34 14 99 80 99z" />
    <glyph glyph-name="hungarumlaut" unicode="&#x2dd;" horiz-adv-x="449" 
d="M221 548l113 181l39 -36l-145 -152zM79 548l113 181l39 -36l-145 -152z" />
    <glyph glyph-name="endash" unicode="&#x2013;" horiz-adv-x="490" 
d="M460 271h-430v18h430v-18z" />
    <glyph glyph-name="emdash" unicode="&#x2014;" horiz-adv-x="740" 
d="M710 271h-680v18h680v-18z" />
    <glyph glyph-name="quoteleft" unicode="&#x2018;" horiz-adv-x="208" 
d="M154 755l6 -6c-26 -30 -52 -70 -52 -102c0 -19 19 -43 38 -60v-2l-51 -41c-20 14 -35 37 -35 60c0 66 57 119 94 151z" />
    <glyph glyph-name="quoteright" unicode="&#x2019;" horiz-adv-x="208" 
d="M54 544l-6 6c26 30 52 70 52 102c0 19 -19 43 -38 60v2l51 41c20 -14 35 -37 35 -60c0 -66 -57 -119 -94 -151z" />
    <glyph glyph-name="quotesinglbase" unicode="&#x201a;" horiz-adv-x="208" 
d="M54 -86l-6 6c26 30 52 70 52 102c0 19 -19 43 -38 60v2l51 41c20 -14 35 -37 35 -60c0 -66 -57 -119 -94 -151z" />
    <glyph glyph-name="quotedblleft" unicode="&#x201c;" horiz-adv-x="338" 
d="M154 755l6 -6c-26 -30 -52 -70 -52 -102c0 -19 19 -43 38 -60v-2l-51 -41c-20 14 -35 37 -35 60c0 66 57 119 94 151zM284 755l6 -6c-26 -30 -52 -70 -52 -102c0 -19 19 -43 38 -60v-2l-51 -41c-20 14 -35 37 -35 60c0 66 57 119 94 151z" />
    <glyph glyph-name="quotedblright" unicode="&#x201d;" horiz-adv-x="348" 
d="M194 544l-6 6c26 30 52 70 52 102c0 19 -19 43 -38 60v2l51 41c20 -14 35 -37 35 -60c0 -66 -57 -119 -94 -151zM54 544l-6 6c26 30 52 70 52 102c0 19 -19 43 -38 60v2l51 41c20 -14 35 -37 35 -60c0 -66 -57 -119 -94 -151z" />
    <glyph glyph-name="quotedblbase" unicode="&#x201e;" horiz-adv-x="348" 
d="M54 -86l-6 6c26 30 52 70 52 102c0 19 -19 43 -38 60v2l51 41c20 -14 35 -37 35 -60c0 -66 -57 -119 -94 -151zM194 -86l-6 6c26 30 52 70 52 102c0 19 -19 43 -38 60v2l51 41c20 -14 35 -37 35 -60c0 -66 -57 -119 -94 -151z" />
    <glyph glyph-name="dagger" unicode="&#x2020;" horiz-adv-x="416" 
d="M235 262l-18 -262h-18l-18 262l22 256l-163 -23v58l162 -23l-26 202h64l-26 -202l162 23v-58l-163 23z" />
    <glyph glyph-name="daggerdbl" unicode="&#x2021;" horiz-adv-x="416" 
d="M376 179l-162 23l26 -202h-64l26 202l-162 -23v58l162 -23l-18 152l18 152l-162 -23v58l162 -23l-26 202h64l-26 -202l162 23v-58l-162 23l18 -152l-18 -152l162 23v-58z" />
    <glyph glyph-name="bullet" unicode="&#x2022;" horiz-adv-x="238" 
d="M119 211c-41 0 -74 35 -74 74c0 42 33 76 74 76c40 0 74 -34 74 -76c0 -39 -34 -74 -74 -74z" />
    <glyph glyph-name="ellipsis" unicode="&#x2026;" horiz-adv-x="698" 
d="M99 -3c-25 0 -47 21 -47 47s22 47 47 47c26 0 47 -21 47 -47s-21 -47 -47 -47zM349 -3c-25 0 -47 21 -47 47s22 47 47 47c26 0 47 -21 47 -47s-21 -47 -47 -47zM599 -3c-25 0 -47 21 -47 47s22 47 47 47c26 0 47 -21 47 -47s-21 -47 -47 -47z" />
    <glyph glyph-name="perthousand" unicode="&#x2030;" horiz-adv-x="1142" 
d="M185 346c-86 0 -155 87 -155 201c0 113 68 200 155 200c88 0 157 -87 157 -200c0 -114 -70 -201 -157 -201zM185 361c74 0 100 79 100 186c0 106 -26 185 -100 185c-72 0 -98 -79 -98 -185c0 -107 26 -186 98 -186zM583 -8c-86 0 -155 87 -155 201c0 113 68 200 155 200
c88 0 157 -87 157 -200c0 -114 -70 -201 -157 -201zM955 -8c-86 0 -155 87 -155 201c0 113 68 200 155 200c88 0 157 -87 157 -200c0 -114 -70 -201 -157 -201zM583 7c74 0 100 79 100 186c0 106 -26 185 -100 185c-72 0 -98 -79 -98 -185c0 -107 26 -186 98 -186zM955 7
c74 0 100 79 100 186c0 106 -26 185 -100 185c-72 0 -98 -79 -98 -185c0 -107 26 -186 98 -186zM140 1l-16 13l521 729l17 -11z" />
    <glyph glyph-name="guilsinglleft" unicode="&#x2039;" horiz-adv-x="251" 
d="M196 58l-8 -6l-138 175v20l138 175l8 -6l-91 -179z" />
    <glyph glyph-name="guilsinglright" unicode="&#x203a;" horiz-adv-x="251" 
d="M63 52l-8 6l91 179l-91 179l8 6l138 -175v-20z" />
    <glyph glyph-name="fraction" unicode="&#x2044;" horiz-adv-x="278" 
d="M-114 1l-16 13l521 729l17 -11z" />
    <glyph glyph-name="Euro" unicode="&#x20ac;" horiz-adv-x="697" 
d="M627 63c-31 -29 -119 -78 -220 -78c-174 0 -283 130 -307 306h-95v18h93c-2 19 -3 38 -3 58c0 19 1 38 3 56h-93v18h95c27 176 149 306 333 306c76 0 151 -28 190 -50l20 -141l-8 -2c-53 123 -116 173 -206 173c-159 0 -245 -118 -264 -286h251v-18h-253
c-1 -18 -2 -37 -2 -56c0 -20 1 -39 2 -58h253v-18h-251c18 -167 98 -286 246 -286c122 0 185 78 228 213l8 -2z" />
    <glyph glyph-name="trademark" unicode="&#x2122;" horiz-adv-x="749" 
d="M223 405v-2h-80v2c15 19 18 28 18 53v262l-49 -2c-21 0 -49 -48 -72 -79l-5 2l20 91h256l20 -91l-5 -2c-23 31 -53 79 -72 79l-49 2v-262c0 -25 4 -34 18 -53zM431 405v-2h-73v2c20 23 24 32 24 61v212c0 27 -5 36 -27 52v2h68l112 -258l115 258h64v-2
c-22 -15 -27 -25 -27 -54v-216c0 -26 3 -35 18 -55v-2h-80v2c15 20 18 29 18 55v221l-120 -269h-7l-118 270v-216c0 -29 7 -38 33 -61z" />
    <glyph glyph-name="minus" unicode="&#x2212;" horiz-adv-x="532" 
d="M487 298h-442v20h442v-20z" />
    <glyph glyph-name="Dcroat" unicode="&#x110;" horiz-adv-x="727" 
d="M2 358v18h100v210c0 66 -7 94 -40 144v2c134 0 144 4 281 4c214 0 344 -130 344 -367s-131 -369 -364 -369h-261v2c33 50 40 78 40 144v212h-100zM333 716l-177 1v-341h224v-18h-224v-339l157 1c221 1 308 117 308 335c0 247 -98 360 -288 361z" />
    <glyph glyph-name="Eng" unicode="&#x14a;" horiz-adv-x="716" 
d="M495 -225c-32 0 -71 7 -108 22l-18 125l8 3c46 -84 85 -130 136 -130c55 0 93 54 93 152v64l-495 621l4 -494c0 -62 12 -88 70 -136v-2h-143v2c42 48 50 74 50 136v516c-23 33 -51 62 -80 76v2h89l504 -633l-2 495c0 62 -10 88 -60 136v2h133v-2
c-42 -48 -50 -73 -50 -136v-636c0 -116 -35 -183 -131 -183z" />
    <glyph glyph-name="IJ" unicode="&#x132;" horiz-adv-x="602" 
d="M52 0l1 2c33 42 39 66 39 122v484c0 56 -7 80 -40 122v2h134v-2c-33 -42 -40 -65 -40 -122v-484c0 -57 8 -80 41 -122l-1 -2h-134zM520 118c0 -85 -46 -133 -128 -133c-32 0 -66 7 -98 22l-18 125l8 3c41 -84 84 -130 125 -130c35 0 57 32 57 97v506c0 57 -7 80 -40 122
v2h134v-2c-33 -42 -40 -65 -40 -122v-490z" />
    <glyph glyph-name="dcroat" unicode="&#x111;" horiz-adv-x="543" 
d="M423 86h-4c-29 -52 -84 -101 -178 -101c-121 0 -201 90 -201 235c0 142 104 270 262 270c45 0 86 -10 116 -27v116h-195v18h195v76c0 32 -22 50 -44 62v2l94 42v-182h75v-18h-75v-472c0 -63 11 -74 44 -87v-2l-89 -30v98zM270 19c63 0 116 36 148 87v226
c0 111 -69 140 -130 140c-110 0 -190 -98 -190 -234s72 -219 172 -219z" />
    <glyph glyph-name="eng" unicode="&#x14b;" horiz-adv-x="497" 
d="M333 -215l-2 5c44 24 65 52 65 140v403c0 66 -28 118 -112 118c-53 0 -115 -19 -158 -66v-265c0 -53 1 -84 22 -118v-2h-94v2c19 34 22 64 22 117v247c0 38 -22 61 -44 75v2l90 52v-91l4 -1c51 60 116 87 180 87c93 0 140 -56 140 -146l-2 -400
c-1 -107 -35 -150 -111 -159z" />
    <glyph glyph-name="ij" unicode="&#x133;" horiz-adv-x="390" 
d="M139 659c0 -23 -18 -41 -41 -41c-22 0 -41 18 -41 41s19 41 41 41c23 0 41 -18 41 -41zM54 0v2c18 34 22 65 22 117v248c0 37 -22 60 -44 74v2l94 52v-375c0 -53 1 -84 22 -118v-2h-94zM339 659c0 -23 -18 -41 -41 -41c-22 0 -41 18 -41 41s19 41 41 41
c23 0 41 -18 41 -41zM213 -215l-2 5c44 24 65 52 65 140v437c0 37 -22 60 -44 74v2l94 52l-2 -551c0 -107 -35 -150 -111 -159z" />
    <glyph glyph-name="Abreve" unicode="&#x102;" horiz-adv-x="625" 
d="M432 296l-134 378l-135 -378h269zM117 2v-2h-112v2c37 36 44 54 68 119l226 620h27l229 -629c27 -74 32 -85 65 -110v-2h-125v2c13 18 24 51 2 112l-58 162h-284l-57 -160c-23 -63 -3 -94 19 -114zM306 840c67 0 112 35 132 88h8c-7 -51 -35 -131 -141 -131
c-102 0 -129 80 -137 131h8c22 -53 63 -88 130 -88z" />
    <glyph glyph-name="Amacron" unicode="&#x100;" horiz-adv-x="625" 
d="M432 296l-134 378l-135 -378h269zM117 2v-2h-112v2c37 36 44 54 68 119l226 620h27l229 -629c27 -74 32 -85 65 -110v-2h-125v2c13 18 24 51 2 112l-58 162h-284l-57 -160c-23 -63 -3 -94 19 -114zM158 838v35h299v-35h-299z" />
    <glyph glyph-name="Aogonek" unicode="&#x104;" horiz-adv-x="625" 
d="M455 -248c-55 0 -86 31 -86 80c0 62 51 108 111 158c24 21 30 38 30 62c0 16 -4 37 -13 62l-58 162h-284l-57 -160c-23 -63 -3 -94 19 -114v-2h-112v2c37 36 44 54 68 119l226 620h27l229 -629c27 -74 32 -85 65 -110v-2h-105c-64 -48 -100 -102 -100 -154
c0 -43 25 -62 64 -62c33 0 65 14 100 55l8 -6c-24 -36 -62 -81 -132 -81zM432 296l-134 378l-135 -378h269z" />
    <glyph glyph-name="Aringacute" unicode="&#x1fa;" horiz-adv-x="625" 
d="M432 296l-134 378l-135 -378h269zM117 2v-2h-112v2c37 36 44 54 68 119l226 620h27l229 -629c27 -74 32 -85 65 -110v-2h-125v2c13 18 24 51 2 112l-58 162h-284l-57 -160c-23 -63 -3 -94 19 -114zM223 865c0 49 35 85 84 85s84 -36 84 -85s-35 -83 -84 -83
s-84 34 -84 83zM251 865c0 -40 19 -66 56 -66s56 26 56 66s-18 68 -56 68s-56 -28 -56 -68zM216 989l198 170l33 -54l-227 -123z" />
    <glyph glyph-name="AEacute" unicode="&#x1fc;" horiz-adv-x="948" 
d="M454 617c0 25 -4 45 -12 63l-215 -384h227v321zM123 2v-2h-118v2c44 35 60 53 99 122l326 576c-9 11 -21 21 -35 30v2h443l39 -145l-8 -3c-46 63 -84 123 -114 125l-246 6v-337h161c27 0 51 54 71 85h8v-185h-8c-19 27 -44 80 -71 80h-161v-341l253 7
c64 2 109 58 163 141l8 -3l-45 -162h-473v2c26 41 39 69 39 113v161h-238l-89 -159c-32 -57 -28 -93 -4 -115zM507 789l198 170l33 -54l-227 -123z" />
    <glyph glyph-name="Cacute" unicode="&#x106;" horiz-adv-x="742" 
d="M692 216l-20 -153c-38 -29 -146 -78 -270 -78c-229 0 -362 169 -362 382s148 380 388 380c96 0 191 -28 240 -50l20 -141l-8 -2c-66 123 -144 173 -256 173c-216 0 -318 -154 -318 -360s96 -362 300 -362c149 0 226 78 278 213zM316 789l198 170l33 -54l-227 -123z" />
    <glyph glyph-name="Ccaron" unicode="&#x10c;" horiz-adv-x="742" 
d="M692 216l-20 -153c-38 -29 -146 -78 -270 -78c-229 0 -362 169 -362 382s148 380 388 380c96 0 191 -28 240 -50l20 -141l-8 -2c-66 123 -144 173 -256 173c-216 0 -318 -154 -318 -360s96 -362 300 -362c149 0 226 78 278 213zM409 782h-4l-151 156l6 7l147 -99l147 99
l6 -7z" />
    <glyph glyph-name="Ccircumflex" unicode="&#x108;" horiz-adv-x="742" 
d="M692 216l-20 -153c-38 -29 -146 -78 -270 -78c-229 0 -362 169 -362 382s148 380 388 380c96 0 191 -28 240 -50l20 -141l-8 -2c-66 123 -144 173 -256 173c-216 0 -318 -154 -318 -360s96 -362 300 -362c149 0 226 78 278 213zM554 782l-147 99l-147 -99l-6 7l151 156h4
l151 -156z" />
    <glyph glyph-name="Cdotaccent" unicode="&#x10a;" horiz-adv-x="742" 
d="M692 216l-20 -153c-38 -29 -146 -78 -270 -78c-229 0 -362 169 -362 382s148 380 388 380c96 0 191 -28 240 -50l20 -141l-8 -2c-66 123 -144 173 -256 173c-216 0 -318 -154 -318 -360s96 -362 300 -362c149 0 226 78 278 213zM448 868c0 -23 -18 -41 -41 -41
c-22 0 -41 18 -41 41s19 41 41 41c23 0 41 -18 41 -41z" />
    <glyph glyph-name="Dcaron" unicode="&#x10e;" horiz-adv-x="717" 
d="M52 0v2c33 50 40 78 40 144v440c0 66 -7 94 -40 144v2c134 0 144 4 281 4c214 0 344 -130 344 -367s-131 -369 -364 -369h-261zM323 716l-177 1v-698l157 1c221 1 308 117 308 335c0 247 -98 360 -288 361zM326 782h-4l-151 156l6 7l147 -99l147 99l6 -7z" />
    <glyph glyph-name="Ebreve" unicode="&#x114;" horiz-adv-x="585" 
d="M570 162l-45 -162h-473v2c26 41 39 69 39 113v502c0 45 -13 72 -39 113v2h423l39 -145l-8 -3c-46 63 -84 123 -114 125l-246 6v-337h161c27 0 51 54 71 85h8v-185h-8c-19 27 -44 80 -71 80h-161v-341l253 7c64 2 109 58 163 141zM275 840c67 0 112 35 132 88h8
c-7 -51 -35 -131 -141 -131c-102 0 -129 80 -137 131h8c22 -53 63 -88 130 -88z" />
    <glyph glyph-name="Ecaron" unicode="&#x11a;" horiz-adv-x="585" 
d="M570 162l-45 -162h-473v2c26 41 39 69 39 113v502c0 45 -13 72 -39 113v2h423l39 -145l-8 -3c-46 63 -84 123 -114 125l-246 6v-337h161c27 0 51 54 71 85h8v-185h-8c-19 27 -44 80 -71 80h-161v-341l253 7c64 2 109 58 163 141zM298 782h-4l-151 156l6 7l147 -99l147 99
l6 -7z" />
    <glyph glyph-name="Edotaccent" unicode="&#x116;" horiz-adv-x="585" 
d="M570 162l-45 -162h-473v2c26 41 39 69 39 113v502c0 45 -13 72 -39 113v2h423l39 -145l-8 -3c-46 63 -84 123 -114 125l-246 6v-337h161c27 0 51 54 71 85h8v-185h-8c-19 27 -44 80 -71 80h-161v-341l253 7c64 2 109 58 163 141zM317 868c0 -23 -18 -41 -41 -41
c-22 0 -41 18 -41 41s19 41 41 41c23 0 41 -18 41 -41z" />
    <glyph glyph-name="Emacron" unicode="&#x112;" horiz-adv-x="585" 
d="M570 162l-45 -162h-473v2c26 41 39 69 39 113v502c0 45 -13 72 -39 113v2h423l39 -145l-8 -3c-46 63 -84 123 -114 125l-246 6v-337h161c27 0 51 54 71 85h8v-185h-8c-19 27 -44 80 -71 80h-161v-341l253 7c64 2 109 58 163 141zM127 838v35h299v-35h-299z" />
    <glyph glyph-name="Eogonek" unicode="&#x118;" horiz-adv-x="585" 
d="M570 162l-45 -162h-79c-63 -47 -99 -102 -99 -154c0 -43 25 -62 64 -62c33 0 65 14 100 55l8 -6c-24 -36 -62 -81 -129 -81c-58 0 -89 31 -89 80c0 62 50 110 123 168h-372v2c26 41 39 69 39 113v502c0 45 -13 72 -39 113v2h423l39 -145l-8 -3c-46 63 -84 123 -114 125
l-246 6v-337h161c27 0 51 54 71 85h8v-185h-8c-19 27 -44 80 -71 80h-161v-341l253 7c64 2 109 58 163 141z" />
    <glyph glyph-name="Gbreve" unicode="&#x11e;" horiz-adv-x="802" 
d="M728 91c-49 -33 -142 -106 -305 -106c-237 0 -383 167 -383 381c0 213 152 381 401 381c115 0 208 -28 256 -48l21 -143l-8 -3c-53 120 -133 174 -278 174c-222 0 -326 -159 -326 -362c0 -202 88 -360 317 -360c148 0 255 54 255 159c0 102 -10 137 -46 166v2h136v-2
c-33 -32 -40 -62 -40 -139v-100zM406 840c67 0 112 35 132 88h8c-7 -51 -35 -131 -141 -131c-102 0 -129 80 -137 131h8c22 -53 63 -88 130 -88z" />
    <glyph glyph-name="Gcircumflex" unicode="&#x11c;" horiz-adv-x="802" 
d="M728 91c-49 -33 -142 -106 -305 -106c-237 0 -383 167 -383 381c0 213 152 381 401 381c115 0 208 -28 256 -48l21 -143l-8 -3c-53 120 -133 174 -278 174c-222 0 -326 -159 -326 -362c0 -202 88 -360 317 -360c148 0 255 54 255 159c0 102 -10 137 -46 166v2h136v-2
c-33 -32 -40 -62 -40 -139v-100zM554 782l-147 99l-147 -99l-6 7l151 156h4l151 -156z" />
    <glyph glyph-name="uni0122" unicode="&#x122;" horiz-adv-x="802" 
d="M728 91c-49 -33 -142 -106 -305 -106c-237 0 -383 167 -383 381c0 213 152 381 401 381c115 0 208 -28 256 -48l21 -143l-8 -3c-53 120 -133 174 -278 174c-222 0 -326 -159 -326 -362c0 -202 88 -360 317 -360c148 0 255 54 255 159c0 102 -10 137 -46 166v2h136v-2
c-33 -32 -40 -62 -40 -139v-100zM370 -224l-4 6c26 20 49 50 49 73c0 20 -16 45 -33 59v2l48 36c19 -13 32 -36 32 -61c0 -50 -54 -90 -92 -115z" />
    <glyph glyph-name="Gdotaccent" unicode="&#x120;" horiz-adv-x="802" 
d="M728 91c-49 -33 -142 -106 -305 -106c-237 0 -383 167 -383 381c0 213 152 381 401 381c115 0 208 -28 256 -48l21 -143l-8 -3c-53 120 -133 174 -278 174c-222 0 -326 -159 -326 -362c0 -202 88 -360 317 -360c148 0 255 54 255 159c0 102 -10 137 -46 166v2h136v-2
c-33 -32 -40 -62 -40 -139v-100zM448 868c0 -23 -18 -41 -41 -41c-22 0 -41 18 -41 41s19 41 41 41c23 0 41 -18 41 -41z" />
    <glyph glyph-name="Hbar" unicode="&#x126;" horiz-adv-x="732" 
d="M62 0v2c33 42 40 66 40 122v424h-100v18h100v42c0 56 -7 80 -40 122v2h134v-2c-33 -42 -40 -65 -40 -122v-42h420v42c0 56 -7 80 -40 122v2h134v-2c-33 -42 -40 -65 -40 -122v-42h100v-18h-100v-424c0 -57 7 -80 40 -122v-2h-134v2c33 42 40 66 40 122v244h-420v-244
c0 -57 7 -80 40 -122v-2h-134zM156 388h420v160h-420v-160z" />
    <glyph glyph-name="Hcircumflex" unicode="&#x124;" horiz-adv-x="712" 
d="M52 0v2c33 42 40 66 40 122v484c0 56 -7 80 -40 122v2h134v-2c-33 -42 -40 -65 -40 -122v-220h420v220c0 56 -7 80 -40 122v2h134v-2c-33 -42 -40 -65 -40 -122v-484c0 -57 7 -80 40 -122v-2h-134v2c33 42 40 66 40 122v244h-420v-244c0 -57 7 -80 40 -122v-2h-134z
M503 782l-147 99l-147 -99l-6 7l151 156h4l151 -156z" />
    <glyph glyph-name="Ibreve" unicode="&#x12c;" horiz-adv-x="238" 
d="M52 0l1 2c33 42 39 66 39 122v484c0 56 -7 80 -40 122v2h134v-2c-33 -42 -40 -65 -40 -122v-484c0 -57 8 -80 41 -122l-1 -2h-134zM118 840c67 0 112 35 132 88h8c-7 -51 -35 -131 -141 -131c-102 0 -129 80 -137 131h8c22 -53 63 -88 130 -88z" />
    <glyph glyph-name="Idotaccent" unicode="&#x130;" horiz-adv-x="238" 
d="M52 0l1 2c33 42 39 66 39 122v484c0 56 -7 80 -40 122v2h134v-2c-33 -42 -40 -65 -40 -122v-484c0 -57 8 -80 41 -122l-1 -2h-134zM160 868c0 -23 -18 -41 -41 -41c-22 0 -41 18 -41 41s19 41 41 41c23 0 41 -18 41 -41z" />
    <glyph glyph-name="Imacron" unicode="&#x12a;" horiz-adv-x="238" 
d="M52 0l1 2c33 42 39 66 39 122v484c0 56 -7 80 -40 122v2h134v-2c-33 -42 -40 -65 -40 -122v-484c0 -57 8 -80 41 -122l-1 -2h-134zM-30 838v35h299v-35h-299z" />
    <glyph glyph-name="Iogonek" unicode="&#x12e;" horiz-adv-x="238" 
d="M52 0l1 2c33 42 39 66 39 122v484c0 56 -7 80 -40 122v2h134v-2c-33 -42 -40 -65 -40 -122v-484c0 -57 8 -80 41 -122l-1 -2h-27c-63 -47 -99 -102 -99 -154c0 -43 25 -62 64 -62c33 0 65 14 100 55l8 -6c-24 -36 -62 -81 -129 -81c-58 0 -89 31 -89 80
c0 62 50 110 123 168h-85z" />
    <glyph glyph-name="Itilde" unicode="&#x128;" horiz-adv-x="238" 
d="M52 0l1 2c33 42 39 66 39 122v484c0 56 -7 80 -40 122v2h134v-2c-33 -42 -40 -65 -40 -122v-484c0 -57 8 -80 41 -122l-1 -2h-134zM40 902c65 0 115 -55 173 -55c37 0 52 20 63 65l8 -1c-2 -39 -12 -115 -86 -115c-65 0 -115 55 -173 55c-37 0 -52 -20 -63 -65l-8 1
c2 39 12 115 86 115z" />
    <glyph glyph-name="Jcircumflex" unicode="&#x134;" horiz-adv-x="355" 
d="M273 118c0 -85 -46 -133 -128 -133c-32 0 -66 7 -98 22l-18 125l8 3c41 -84 84 -130 125 -130c35 0 57 32 57 97v506c0 57 -7 80 -40 122v2h134v-2c-33 -42 -40 -65 -40 -122v-490zM393 782l-147 99l-147 -99l-6 7l151 156h4l151 -156z" />
    <glyph glyph-name="uni0136" unicode="&#x136;" horiz-adv-x="604" 
d="M52 0l1 2c33 42 39 66 39 122v484c0 56 -7 80 -40 122v2h134v-2c-33 -42 -40 -65 -40 -122v-484c0 -57 8 -80 41 -122l-1 -2h-134zM594 0h-100l-312 381l227 240c44 47 31 81 2 109v2h165v-2c-73 -35 -100 -68 -137 -107l-207 -219l234 -286c63 -77 83 -94 127 -116z
M277 -224l-4 6c26 20 49 50 49 73c0 20 -16 45 -33 59v2l48 36c19 -13 32 -36 32 -61c0 -50 -54 -90 -92 -115z" />
    <glyph glyph-name="Lacute" unicode="&#x139;" horiz-adv-x="541" 
d="M480 0h-428v2c33 42 40 66 40 122v484c0 56 -7 80 -40 122v2h134v-2c-33 -42 -40 -65 -40 -122v-591l208 7c65 3 110 46 164 141l8 -3zM28 789l198 170l33 -54l-227 -123z" />
    <glyph glyph-name="Lcaron" unicode="&#x13d;" horiz-adv-x="541" 
d="M480 0h-428v2c33 42 40 66 40 122v484c0 56 -7 80 -40 122v2h134v-2c-33 -42 -40 -65 -40 -122v-591l208 7c65 3 110 46 164 141l8 -3zM214 531l32 201h63l-88 -203z" />
    <glyph glyph-name="uni013B" unicode="&#x13b;" horiz-adv-x="541" 
d="M480 0h-428v2c33 42 40 66 40 122v484c0 56 -7 80 -40 122v2h134v-2c-33 -42 -40 -65 -40 -122v-591l208 7c65 3 110 46 164 141l8 -3zM248 -224l-4 6c26 20 49 50 49 73c0 20 -16 45 -33 59v2l48 36c19 -13 32 -36 32 -61c0 -50 -54 -90 -92 -115z" />
    <glyph glyph-name="Ldot" unicode="&#x13f;" horiz-adv-x="541" 
d="M480 0h-428v2c33 42 40 66 40 122v484c0 56 -7 80 -40 122v2h134v-2c-33 -42 -40 -65 -40 -122v-591l208 7c65 3 110 46 164 141l8 -3zM429 317c-25 0 -47 21 -47 47s22 47 47 47c26 0 47 -21 47 -47s-21 -47 -47 -47z" />
    <glyph glyph-name="Nacute" unicode="&#x143;" horiz-adv-x="716" 
d="M617 -3l-506 635l4 -494c0 -62 12 -88 70 -136v-2h-143v2c42 48 50 74 50 136v516c-23 33 -51 62 -80 76v2h89l505 -634l-3 496c-1 62 -10 88 -60 136v2h133v-2c-42 -48 -50 -73 -50 -136v-594zM274 789l198 170l33 -54l-227 -123z" />
    <glyph glyph-name="Ncaron" unicode="&#x147;" horiz-adv-x="716" 
d="M617 -3l-506 635l4 -494c0 -62 12 -88 70 -136v-2h-143v2c42 48 50 74 50 136v516c-23 33 -51 62 -80 76v2h89l505 -634l-3 496c-1 62 -10 88 -60 136v2h133v-2c-42 -48 -50 -73 -50 -136v-594zM367 782h-4l-151 156l6 7l147 -99l147 99l6 -7z" />
    <glyph glyph-name="uni0145" unicode="&#x145;" horiz-adv-x="716" 
d="M617 -3l-506 635l4 -494c0 -62 12 -88 70 -136v-2h-143v2c42 48 50 74 50 136v516c-23 33 -51 62 -80 76v2h89l505 -634l-3 496c-1 62 -10 88 -60 136v2h133v-2c-42 -48 -50 -73 -50 -136v-594zM308 -224l-4 6c26 20 49 50 49 73c0 20 -16 45 -33 59v2l48 36
c19 -13 32 -36 32 -61c0 -50 -54 -90 -92 -115z" />
    <glyph glyph-name="Obreve" unicode="&#x14e;" horiz-adv-x="811" 
d="M405 -15c-208 0 -365 164 -365 380s157 382 365 382s366 -166 366 -382s-158 -380 -366 -380zM405 5c185 0 300 153 300 360c0 206 -115 362 -300 362s-299 -156 -299 -362s114 -360 299 -360zM404 840c67 0 112 35 132 88h8c-7 -51 -35 -131 -141 -131
c-102 0 -129 80 -137 131h8c22 -53 63 -88 130 -88z" />
    <glyph glyph-name="Ohungarumlaut" unicode="&#x150;" horiz-adv-x="811" 
d="M405 -15c-208 0 -365 164 -365 380s157 382 365 382s366 -166 366 -382s-158 -380 -366 -380zM405 5c185 0 300 153 300 360c0 206 -115 362 -300 362s-299 -156 -299 -362s114 -360 299 -360zM460 789l140 160l40 -52l-175 -115zM267 789l140 160l40 -52l-175 -115z" />
    <glyph glyph-name="Omacron" unicode="&#x14c;" horiz-adv-x="811" 
d="M405 -15c-208 0 -365 164 -365 380s157 382 365 382s366 -166 366 -382s-158 -380 -366 -380zM405 5c185 0 300 153 300 360c0 206 -115 362 -300 362s-299 -156 -299 -362s114 -360 299 -360zM256 838v35h299v-35h-299z" />
    <glyph glyph-name="Oslashacute" unicode="&#x1fe;" horiz-adv-x="811" 
d="M106 365c0 -116 36 -215 100 -280l381 577c-48 41 -110 65 -182 65c-185 0 -299 -156 -299 -362zM405 5c185 0 300 153 300 360c0 116 -37 217 -102 282l-381 -577c49 -41 110 -65 183 -65zM405 -15c-75 0 -143 21 -200 59l-48 -73h-26l56 85c-90 68 -147 179 -147 309
c0 216 157 382 365 382c75 0 143 -21 199 -59l49 74h26l-57 -86c91 -69 149 -181 149 -311c0 -216 -158 -380 -366 -380zM314 789l198 170l33 -54l-227 -123z" />
    <glyph glyph-name="Racute" unicode="&#x154;" horiz-adv-x="618" 
d="M186 0h-134v2c33 42 40 66 40 122v484c0 56 -7 80 -40 122v2h257c145 0 205 -68 205 -172c0 -95 -43 -179 -138 -206l123 -231c35 -69 63 -102 109 -121v-2h-105l-183 345h-174v-221c0 -57 7 -80 40 -122v-2zM299 712c-25 0 -79 0 -153 -1v-346h154c115 0 157 91 157 194
c0 91 -36 153 -158 153zM187 789l198 170l33 -54l-227 -123z" />
    <glyph glyph-name="Rcaron" unicode="&#x158;" horiz-adv-x="618" 
d="M186 0h-134v2c33 42 40 66 40 122v484c0 56 -7 80 -40 122v2h257c145 0 205 -68 205 -172c0 -95 -43 -179 -138 -206l123 -231c35 -69 63 -102 109 -121v-2h-105l-183 345h-174v-221c0 -57 7 -80 40 -122v-2zM299 712c-25 0 -79 0 -153 -1v-346h154c115 0 157 91 157 194
c0 91 -36 153 -158 153zM280 782h-4l-151 156l6 7l147 -99l147 99l6 -7z" />
    <glyph glyph-name="uni0156" unicode="&#x156;" horiz-adv-x="618" 
d="M186 0h-134v2c33 42 40 66 40 122v484c0 56 -7 80 -40 122v2h257c145 0 205 -68 205 -172c0 -95 -43 -179 -138 -206l123 -231c35 -69 63 -102 109 -121v-2h-105l-183 345h-174v-221c0 -57 7 -80 40 -122v-2zM299 712c-25 0 -79 0 -153 -1v-346h154c115 0 157 91 157 194
c0 91 -36 153 -158 153zM271 -224l-4 6c26 20 49 50 49 73c0 20 -16 45 -33 59v2l48 36c19 -13 32 -36 32 -61c0 -50 -54 -90 -92 -115z" />
    <glyph glyph-name="Sacute" unicode="&#x15a;" horiz-adv-x="533" 
d="M428 717l20 -139l-8 -3c-41 119 -109 152 -190 152c-112 0 -157 -66 -157 -134c0 -107 98 -140 198 -183c103 -44 207 -93 207 -227c0 -144 -119 -198 -251 -198c-70 0 -138 15 -192 38l-20 142l8 3c45 -113 109 -163 224 -163c119 0 178 62 178 158
c0 120 -93 159 -191 201c-101 43 -203 85 -203 211c0 113 86 172 215 172c62 0 120 -13 162 -30zM172 789l198 170l33 -54l-227 -123z" />
    <glyph glyph-name="uni015E" unicode="&#x15e;" horiz-adv-x="533" 
d="M183 -255l-2 8c62 23 105 45 105 91c0 54 -60 63 -86 65l-1 2s27 45 45 74c-69 1 -136 15 -189 38l-20 142l8 3c45 -113 109 -163 224 -163c119 0 178 62 178 158c0 120 -93 159 -191 201c-101 43 -203 85 -203 211c0 113 86 172 215 172c62 0 120 -13 162 -30l20 -139
l-8 -3c-41 119 -109 152 -190 152c-112 0 -157 -66 -157 -134c0 -107 98 -140 198 -183c103 -44 207 -93 207 -227c0 -135 -104 -190 -225 -197l-27 -43c48 -11 83 -39 83 -86c0 -62 -61 -95 -146 -112z" />
    <glyph glyph-name="Scircumflex" unicode="&#x15c;" horiz-adv-x="533" 
d="M428 717l20 -139l-8 -3c-41 119 -109 152 -190 152c-112 0 -157 -66 -157 -134c0 -107 98 -140 198 -183c103 -44 207 -93 207 -227c0 -144 -119 -198 -251 -198c-70 0 -138 15 -192 38l-20 142l8 3c45 -113 109 -163 224 -163c119 0 178 62 178 158
c0 120 -93 159 -191 201c-101 43 -203 85 -203 211c0 113 86 172 215 172c62 0 120 -13 162 -30zM410 782l-147 99l-147 -99l-6 7l151 156h4l151 -156z" />
    <glyph glyph-name="uni0218" unicode="&#x218;" horiz-adv-x="533" 
d="M428 717l20 -139l-8 -3c-41 119 -109 152 -190 152c-112 0 -157 -66 -157 -134c0 -107 98 -140 198 -183c103 -44 207 -93 207 -227c0 -144 -119 -198 -251 -198c-70 0 -138 15 -192 38l-20 142l8 3c45 -113 109 -163 224 -163c119 0 178 62 178 158
c0 120 -93 159 -191 201c-101 43 -203 85 -203 211c0 113 86 172 215 172c62 0 120 -13 162 -30zM226 -224l-4 6c26 20 49 50 49 73c0 20 -16 45 -33 59v2l48 36c19 -13 32 -36 32 -61c0 -50 -54 -90 -92 -115z" />
    <glyph glyph-name="Tcaron" unicode="&#x164;" horiz-adv-x="634" 
d="M384 2v-2h-134v2c34 42 40 66 40 122v590l-153 -4c-30 -1 -78 -91 -114 -152l-8 3l39 171h526l39 -171l-8 -3c-36 61 -84 151 -114 152l-153 4v-590c0 -57 8 -80 40 -122zM319 782h-4l-151 156l6 7l147 -99l147 99l6 -7z" />
    <glyph glyph-name="Tcommaaccent" unicode="&#x162;" horiz-adv-x="634" 
d="M384 2v-2h-134v2c34 42 40 66 40 122v590l-153 -4c-30 -1 -78 -91 -114 -152l-8 3l39 171h526l39 -171l-8 -3c-36 61 -84 151 -114 152l-153 4v-590c0 -57 8 -80 40 -122zM260 -224l-4 6c26 20 49 50 49 73c0 20 -16 45 -33 59v2l48 36c19 -13 32 -36 32 -61
c0 -50 -54 -90 -92 -115z" />
    <glyph glyph-name="uni021A" unicode="&#x21a;" horiz-adv-x="634" 
d="M384 2v-2h-134v2c34 42 40 66 40 122v590l-153 -4c-30 -1 -78 -91 -114 -152l-8 3l39 171h526l39 -171l-8 -3c-36 61 -84 151 -114 152l-153 4v-590c0 -57 8 -80 40 -122zM260 -224l-4 6c26 20 49 50 49 73c0 20 -16 45 -33 59v2l48 36c19 -13 32 -36 32 -61
c0 -50 -54 -90 -92 -115z" />
    <glyph glyph-name="Tbar" unicode="&#x166;" horiz-adv-x="634" 
d="M120 357v20h170v337l-153 -4c-30 -1 -78 -91 -114 -152l-8 3l39 171h526l39 -171l-8 -3c-36 61 -84 151 -114 152l-153 4v-337h170v-20h-170v-233c0 -57 8 -80 40 -122v-2h-134v2c34 42 40 66 40 122v233h-170z" />
    <glyph glyph-name="Ubreve" unicode="&#x16c;" horiz-adv-x="684" 
d="M353 -15c-148 0 -273 73 -273 253v367c0 58 -7 82 -40 125v2h134v-2c-27 -36 -40 -67 -40 -125v-364c0 -172 103 -234 228 -234c172 0 221 116 221 243v342c0 63 -13 89 -72 138v2h155v-2c-50 -49 -62 -75 -62 -138v-341c0 -143 -62 -266 -251 -266zM359 840
c67 0 112 35 132 88h8c-7 -51 -35 -131 -141 -131c-102 0 -129 80 -137 131h8c22 -53 63 -88 130 -88z" />
    <glyph glyph-name="Uhungarumlaut" unicode="&#x170;" horiz-adv-x="684" 
d="M353 -15c-148 0 -273 73 -273 253v367c0 58 -7 82 -40 125v2h134v-2c-27 -36 -40 -67 -40 -125v-364c0 -172 103 -234 228 -234c172 0 221 116 221 243v342c0 63 -13 89 -72 138v2h155v-2c-50 -49 -62 -75 -62 -138v-341c0 -143 -62 -266 -251 -266zM415 789l140 160
l40 -52l-175 -115zM222 789l140 160l40 -52l-175 -115z" />
    <glyph glyph-name="Umacron" unicode="&#x16a;" horiz-adv-x="684" 
d="M353 -15c-148 0 -273 73 -273 253v367c0 58 -7 82 -40 125v2h134v-2c-27 -36 -40 -67 -40 -125v-364c0 -172 103 -234 228 -234c172 0 221 116 221 243v342c0 63 -13 89 -72 138v2h155v-2c-50 -49 -62 -75 -62 -138v-341c0 -143 -62 -266 -251 -266zM211 838v35h299v-35
h-299z" />
    <glyph glyph-name="Uogonek" unicode="&#x172;" horiz-adv-x="684" 
d="M378 -248c-58 0 -89 31 -89 80c0 57 47 109 113 156c-14 -2 -33 -3 -49 -3c-148 0 -273 73 -273 253v367c0 58 -7 82 -40 125v2h134v-2c-27 -36 -40 -67 -40 -125v-364c0 -172 103 -234 228 -234c172 0 221 116 221 243v342c0 63 -13 89 -72 138v2h155v-2
c-50 -49 -62 -75 -62 -138v-341c0 -113 -39 -212 -149 -251c-31 -11 -63 -35 -83 -60c-24 -31 -37 -63 -37 -94c0 -43 25 -62 64 -62c33 0 65 14 100 55l8 -6c-24 -36 -62 -81 -129 -81z" />
    <glyph glyph-name="Uring" unicode="&#x16e;" horiz-adv-x="684" 
d="M353 -15c-148 0 -273 73 -273 253v367c0 58 -7 82 -40 125v2h134v-2c-27 -36 -40 -67 -40 -125v-364c0 -172 103 -234 228 -234c172 0 221 116 221 243v342c0 63 -13 89 -72 138v2h155v-2c-50 -49 -62 -75 -62 -138v-341c0 -143 -62 -266 -251 -266zM276 865
c0 49 35 85 84 85s84 -36 84 -85s-35 -83 -84 -83s-84 34 -84 83zM304 865c0 -40 19 -66 56 -66s56 26 56 66s-18 68 -56 68s-56 -28 -56 -68z" />
    <glyph glyph-name="Utilde" unicode="&#x168;" horiz-adv-x="684" 
d="M353 -15c-148 0 -273 73 -273 253v367c0 58 -7 82 -40 125v2h134v-2c-27 -36 -40 -67 -40 -125v-364c0 -172 103 -234 228 -234c172 0 221 116 221 243v342c0 63 -13 89 -72 138v2h155v-2c-50 -49 -62 -75 -62 -138v-341c0 -143 -62 -266 -251 -266zM281 902
c65 0 115 -55 173 -55c37 0 52 20 63 65l8 -1c-2 -39 -12 -115 -86 -115c-65 0 -115 55 -173 55c-37 0 -52 -20 -63 -65l-8 1c2 39 12 115 86 115z" />
    <glyph glyph-name="Wacute" unicode="&#x1e82;" horiz-adv-x="949" 
d="M284 -9h-27l-188 629c-20 67 -26 86 -59 110v2h139v-2c-14 -18 -42 -44 -22 -112l160 -538l170 476l-22 64c-23 68 -33 86 -66 110v2h147v-2c-18 -18 -49 -40 -24 -112l186 -543l151 510c21 81 -5 122 -23 145v2h133v-2c-47 -35 -62 -65 -86 -145l-177 -594h-27l-180 530
zM354 789l198 170l33 -54l-227 -123z" />
    <glyph glyph-name="Wcircumflex" unicode="&#x174;" horiz-adv-x="949" 
d="M284 -9h-27l-188 629c-20 67 -26 86 -59 110v2h139v-2c-14 -18 -42 -44 -22 -112l160 -538l170 476l-22 64c-23 68 -33 86 -66 110v2h147v-2c-18 -18 -49 -40 -24 -112l186 -543l151 510c21 81 -5 122 -23 145v2h133v-2c-47 -35 -62 -65 -86 -145l-177 -594h-27l-180 530
zM602 782l-147 99l-147 -99l-6 7l151 156h4l151 -156z" />
    <glyph glyph-name="Wdieresis" unicode="&#x1e84;" horiz-adv-x="949" 
d="M284 -9h-27l-188 629c-20 67 -26 86 -59 110v2h139v-2c-14 -18 -42 -44 -22 -112l160 -538l170 476l-22 64c-23 68 -33 86 -66 110v2h147v-2c-18 -18 -49 -40 -24 -112l186 -543l151 510c21 81 -5 122 -23 145v2h133v-2c-47 -35 -62 -65 -86 -145l-177 -594h-27l-180 530
zM616 868c0 -23 -18 -41 -41 -41c-22 0 -41 18 -41 41s19 41 41 41c23 0 41 -18 41 -41zM356 868c0 -23 -18 -41 -41 -41c-22 0 -41 18 -41 41s19 41 41 41c23 0 41 -18 41 -41z" />
    <glyph glyph-name="Wgrave" unicode="&#x1e80;" horiz-adv-x="949" 
d="M284 -9h-27l-188 629c-20 67 -26 86 -59 110v2h139v-2c-14 -18 -42 -44 -22 -112l160 -538l170 476l-22 64c-23 68 -33 86 -66 110v2h147v-2c-18 -18 -49 -40 -24 -112l186 -543l151 510c21 81 -5 122 -23 145v2h133v-2c-47 -35 -62 -65 -86 -145l-177 -594h-27l-180 530
zM533 789l-4 -7l-231 123l37 54z" />
    <glyph glyph-name="Ycircumflex" unicode="&#x176;" horiz-adv-x="570" 
d="M215 0v2c32 36 40 57 40 104v236l-169 291c-30 52 -51 77 -86 97v2h155v-2c-32 -15 -32 -50 -9 -91l156 -270l135 226c45 75 29 109 -3 135v2h136v-2c-52 -33 -67 -64 -110 -135l-151 -251v-238c0 -48 7 -68 40 -104v-2h-134zM444 782l-147 99l-147 -99l-6 7l151 156h4
l151 -156z" />
    <glyph glyph-name="Ygrave" unicode="&#x1ef2;" horiz-adv-x="570" 
d="M215 0v2c32 36 40 57 40 104v236l-169 291c-30 52 -51 77 -86 97v2h155v-2c-32 -15 -32 -50 -9 -91l156 -270l135 226c45 75 29 109 -3 135v2h136v-2c-52 -33 -67 -64 -110 -135l-151 -251v-238c0 -48 7 -68 40 -104v-2h-134zM385 789l-4 -7l-231 123l37 54z" />
    <glyph glyph-name="Zacute" unicode="&#x179;" horiz-adv-x="608" 
d="M529 0h-499v11l465 705l-263 -8c-71 -2 -121 -59 -171 -151l-8 3l47 172h464v-11l-464 -706l299 9c67 2 120 56 171 157l8 -3zM239 789l198 170l33 -54l-227 -123z" />
    <glyph glyph-name="Zdotaccent" unicode="&#x17b;" horiz-adv-x="608" 
d="M529 0h-499v11l465 705l-263 -8c-71 -2 -121 -59 -171 -151l-8 3l47 172h464v-11l-464 -706l299 9c67 2 120 56 171 157l8 -3zM371 868c0 -23 -18 -41 -41 -41c-22 0 -41 18 -41 41s19 41 41 41c23 0 41 -18 41 -41z" />
    <glyph glyph-name="abreve" unicode="&#x103;" horiz-adv-x="464" 
d="M180 21c54 0 106 24 134 52v177c-108 -14 -224 -56 -224 -149c0 -46 28 -80 90 -80zM378 -12c-43 0 -63 29 -64 68c-35 -37 -93 -71 -158 -71c-70 0 -117 38 -117 102c0 117 161 169 275 179v92c0 54 -25 102 -113 102c-54 0 -106 -20 -140 -44l-5 7c40 40 101 67 174 67
c111 0 134 -59 134 -122v-302c0 -26 12 -43 39 -43c23 0 37 13 48 24l3 -2c-7 -22 -29 -57 -76 -57zM217 614c61 0 100 31 115 79h8c-3 -47 -28 -122 -124 -122c-93 0 -117 75 -121 122h8c16 -48 53 -79 114 -79z" />
    <glyph glyph-name="amacron" unicode="&#x101;" horiz-adv-x="464" 
d="M180 21c54 0 106 24 134 52v177c-108 -14 -224 -56 -224 -149c0 -46 28 -80 90 -80zM378 -12c-43 0 -63 29 -64 68c-35 -37 -93 -71 -158 -71c-70 0 -117 38 -117 102c0 117 161 169 275 179v92c0 54 -25 102 -113 102c-54 0 -106 -20 -140 -44l-5 7c40 40 101 67 174 67
c111 0 134 -59 134 -122v-302c0 -26 12 -43 39 -43c23 0 37 13 48 24l3 -2c-7 -22 -29 -57 -76 -57zM85 610v35h285v-35h-285z" />
    <glyph glyph-name="aogonek" unicode="&#x105;" horiz-adv-x="464" 
d="M333 -248c-58 0 -89 31 -89 80c0 58 54 124 123 157c-37 5 -51 33 -52 68c-36 -37 -93 -72 -159 -72c-70 0 -117 38 -117 102c0 117 161 169 275 179v92c0 54 -25 102 -113 102c-54 0 -106 -20 -140 -44l-5 7c40 40 101 67 174 67c111 0 134 -59 134 -122v-302
c0 -26 12 -43 39 -43c23 0 37 13 48 24l3 -2c-4 -12 -13 -28 -26 -39c-14 -12 -31 -17 -46 -25c-43 -22 -92 -74 -92 -135c0 -43 25 -62 64 -62c33 0 65 14 100 55l8 -6c-24 -36 -62 -81 -129 -81zM184 23c50 0 102 23 130 50v177c-106 -14 -219 -55 -219 -148
c0 -46 27 -79 89 -79z" />
    <glyph glyph-name="aringacute" unicode="&#x1fb;" horiz-adv-x="464" 
d="M180 21c54 0 106 24 134 52v177c-108 -14 -224 -56 -224 -149c0 -46 28 -80 90 -80zM378 -12c-43 0 -63 29 -64 68c-35 -37 -93 -71 -158 -71c-70 0 -117 38 -117 102c0 117 161 169 275 179v92c0 54 -25 102 -113 102c-54 0 -106 -20 -140 -44l-5 7c40 40 101 67 174 67
c111 0 134 -59 134 -122v-302c0 -26 12 -43 39 -43c23 0 37 13 48 24l3 -2c-7 -22 -29 -57 -76 -57zM143 654c0 49 35 85 84 85s84 -36 84 -85s-35 -83 -84 -83s-84 34 -84 83zM171 654c0 -40 19 -66 56 -66s56 26 56 66s-18 68 -56 68s-56 -28 -56 -68zM136 789l198 170
l33 -54l-227 -123z" />
    <glyph glyph-name="aeacute" unicode="&#x1fd;" horiz-adv-x="734" 
d="M514 -15c-84 0 -149 43 -183 116c-34 -60 -94 -116 -182 -116c-71 0 -118 38 -118 102c0 117 161 169 275 179v92c0 54 -25 102 -113 102c-54 0 -106 -20 -140 -44l-5 7c40 40 101 67 174 67c94 0 123 -44 130 -96c37 62 97 96 167 96c112 0 180 -88 173 -192h-328
c-2 -14 -3 -30 -3 -46c0 -128 54 -221 171 -221c60 0 129 25 162 82l5 -2c-24 -75 -93 -126 -185 -126zM518 472c-80 0 -136 -58 -152 -159l263 6v6c0 101 -40 147 -111 147zM173 23c71 0 123 47 151 97c-12 31 -18 68 -18 108v22c-106 -14 -219 -55 -219 -149
c0 -45 26 -78 86 -78zM315 539l130 210l49 -38l-172 -178z" />
    <glyph glyph-name="cacute" unicode="&#x107;" 
d="M438 113l5 -2c-25 -75 -95 -126 -187 -126c-126 0 -216 93 -216 239c0 167 118 266 251 266c63 0 110 -22 134 -33l7 -94l-6 -2c-44 75 -81 111 -152 111c-107 0 -179 -81 -179 -221c0 -127 60 -220 178 -220c61 0 131 25 165 82zM196 539l130 210l49 -38l-172 -178z" />
    <glyph glyph-name="ccaron" unicode="&#x10d;" 
d="M438 113l5 -2c-25 -75 -95 -126 -187 -126c-126 0 -216 93 -216 239c0 167 118 266 251 266c63 0 110 -22 134 -33l7 -94l-6 -2c-44 75 -81 111 -152 111c-107 0 -179 -81 -179 -221c0 -127 60 -220 178 -220c61 0 131 25 165 82zM253 540l-134 173l7 6l129 -111l133 111
l7 -6l-138 -173h-4z" />
    <glyph glyph-name="ccircumflex" unicode="&#x109;" 
d="M438 113l5 -2c-25 -75 -95 -126 -187 -126c-126 0 -216 93 -216 239c0 167 118 266 251 266c63 0 110 -22 134 -33l7 -94l-6 -2c-44 75 -81 111 -152 111c-107 0 -179 -81 -179 -221c0 -127 60 -220 178 -220c61 0 131 25 165 82zM388 540l-133 111l-129 -111l-7 6
l134 173h4l138 -173z" />
    <glyph glyph-name="cdotaccent" unicode="&#x10b;" 
d="M438 113l5 -2c-25 -75 -95 -126 -187 -126c-126 0 -216 93 -216 239c0 167 118 266 251 266c63 0 110 -22 134 -33l7 -94l-6 -2c-44 75 -81 111 -152 111c-107 0 -179 -81 -179 -221c0 -127 60 -220 178 -220c61 0 131 25 165 82zM298 659c0 -23 -18 -41 -41 -41
c-22 0 -41 18 -41 41s19 41 41 41c23 0 41 -18 41 -41z" />
    <glyph glyph-name="dcaron" unicode="&#x10f;" horiz-adv-x="543" 
d="M270 19c63 0 116 36 148 87v226c0 111 -69 140 -130 140c-110 0 -190 -98 -190 -234s72 -219 172 -219zM423 86h-4c-29 -52 -84 -101 -178 -101c-121 0 -201 90 -201 235c0 142 104 270 262 270c45 0 86 -10 116 -27v210c0 32 -22 50 -44 62v2l94 42v-672
c0 -63 11 -74 44 -87v-2l-89 -30v98zM507 574l32 201h63l-88 -203z" />
    <glyph glyph-name="ebreve" unicode="&#x115;" 
d="M260 472c-84 0 -143 -58 -160 -159l277 6v6c0 101 -42 147 -117 147zM443 111c-25 -75 -95 -126 -188 -126c-129 0 -215 99 -215 245c0 158 103 260 223 260c115 0 184 -93 177 -192h-342c-2 -14 -3 -30 -3 -46c0 -128 59 -221 178 -221c62 0 131 25 165 82zM234 614
c61 0 100 31 115 79h8c-3 -47 -28 -122 -124 -122c-93 0 -117 75 -121 122h8c16 -48 53 -79 114 -79z" />
    <glyph glyph-name="ecaron" unicode="&#x11b;" 
d="M260 472c-84 0 -143 -58 -160 -159l277 6v6c0 101 -42 147 -117 147zM443 111c-25 -75 -95 -126 -188 -126c-129 0 -215 99 -215 245c0 158 103 260 223 260c115 0 184 -93 177 -192h-342c-2 -14 -3 -30 -3 -46c0 -128 59 -221 178 -221c62 0 131 25 165 82zM240 540
l-134 173l7 6l129 -111l133 111l7 -6l-138 -173h-4z" />
    <glyph glyph-name="edotaccent" unicode="&#x117;" 
d="M260 472c-84 0 -143 -58 -160 -159l277 6v6c0 101 -42 147 -117 147zM443 111c-25 -75 -95 -126 -188 -126c-129 0 -215 99 -215 245c0 158 103 260 223 260c115 0 184 -93 177 -192h-342c-2 -14 -3 -30 -3 -46c0 -128 59 -221 178 -221c62 0 131 25 165 82zM285 659
c0 -23 -18 -41 -41 -41c-22 0 -41 18 -41 41s19 41 41 41c23 0 41 -18 41 -41z" />
    <glyph glyph-name="emacron" unicode="&#x113;" 
d="M260 472c-84 0 -143 -58 -160 -159l277 6v6c0 101 -42 147 -117 147zM443 111c-25 -75 -95 -126 -188 -126c-129 0 -215 99 -215 245c0 158 103 260 223 260c115 0 184 -93 177 -192h-342c-2 -14 -3 -30 -3 -46c0 -128 59 -221 178 -221c62 0 131 25 165 82zM102 610v35
h285v-35h-285z" />
    <glyph glyph-name="eogonek" unicode="&#x119;" 
d="M260 472c-83 0 -143 -58 -160 -159l273 6v6c0 101 -40 147 -113 147zM398 -167c-24 -36 -62 -81 -129 -81c-58 0 -89 31 -89 81c0 63 51 116 116 154c-12 -1 -27 -2 -42 -2c-128 0 -214 93 -214 242c0 164 104 263 224 263c113 0 179 -88 172 -192h-338
c-2 -14 -3 -30 -3 -46c0 -128 56 -221 178 -221c61 0 131 25 165 82l5 -2c-13 -38 -38 -70 -69 -92c-21 -15 -36 -24 -60 -39c-52 -33 -88 -78 -88 -132c0 -45 25 -64 64 -64c33 0 65 14 100 55z" />
    <glyph glyph-name="gbreve" unicode="&#x11f;" horiz-adv-x="477" 
d="M224 175c81 0 120 70 120 148s-37 149 -121 149s-119 -75 -119 -149s40 -148 120 -148zM460 -78c0 -88 -91 -147 -235 -147c-127 0 -210 46 -210 120c0 55 46 99 94 111c-51 11 -72 37 -72 71c0 58 60 87 110 98c-58 27 -99 85 -99 148c0 88 78 167 175 167
c45 0 87 -16 118 -43l119 54l2 -1v-64h-4l-107 2c30 -30 49 -70 49 -115c0 -90 -80 -166 -176 -166c-22 0 -44 4 -64 12c-47 -15 -76 -39 -76 -73c0 -23 14 -46 87 -48l115 -4c126 -4 174 -58 174 -122zM242 -207c107 0 175 39 175 111c0 60 -48 92 -147 95l-111 2
c-13 0 -25 1 -35 3c-30 -8 -59 -47 -59 -96c0 -77 71 -115 177 -115zM228 614c61 0 100 31 115 79h8c-3 -47 -28 -122 -124 -122c-93 0 -117 75 -121 122h8c16 -48 53 -79 114 -79z" />
    <glyph glyph-name="gcircumflex" unicode="&#x11d;" horiz-adv-x="477" 
d="M224 175c81 0 120 70 120 148s-37 149 -121 149s-119 -75 -119 -149s40 -148 120 -148zM460 -78c0 -88 -91 -147 -235 -147c-127 0 -210 46 -210 120c0 55 46 99 94 111c-51 11 -72 37 -72 71c0 58 60 87 110 98c-58 27 -99 85 -99 148c0 88 78 167 175 167
c45 0 87 -16 118 -43l119 54l2 -1v-64h-4l-107 2c30 -30 49 -70 49 -115c0 -90 -80 -166 -176 -166c-22 0 -44 4 -64 12c-47 -15 -76 -39 -76 -73c0 -23 14 -46 87 -48l115 -4c126 -4 174 -58 174 -122zM242 -207c107 0 175 39 175 111c0 60 -48 92 -147 95l-111 2
c-13 0 -25 1 -35 3c-30 -8 -59 -47 -59 -96c0 -77 71 -115 177 -115zM355 540l-133 111l-129 -111l-7 6l134 173h4l138 -173z" />
    <glyph glyph-name="uni0123" unicode="&#x123;" horiz-adv-x="477" 
d="M224 175c81 0 120 70 120 148s-37 149 -121 149s-119 -75 -119 -149s40 -148 120 -148zM460 -78c0 -88 -91 -147 -235 -147c-127 0 -210 46 -210 120c0 55 46 99 94 111c-51 11 -72 37 -72 71c0 58 60 87 110 98c-58 27 -99 85 -99 148c0 88 78 167 175 167
c45 0 87 -16 118 -43l119 54l2 -1v-64h-4l-107 2c30 -30 49 -70 49 -115c0 -90 -80 -166 -176 -166c-22 0 -44 4 -64 12c-47 -15 -76 -39 -76 -73c0 -23 14 -46 87 -48l115 -4c126 -4 174 -58 174 -122zM242 -207c107 0 175 39 175 111c0 60 -48 92 -147 95l-111 2
c-13 0 -25 1 -35 3c-30 -8 -59 -47 -59 -96c0 -77 71 -115 177 -115zM275 754l4 -6c-26 -20 -49 -50 -49 -73c0 -20 16 -45 33 -59v-2l-48 -36c-19 13 -32 36 -32 61c0 50 54 90 92 115z" />
    <glyph glyph-name="gdotaccent" unicode="&#x121;" horiz-adv-x="477" 
d="M224 175c81 0 120 70 120 148s-37 149 -121 149s-119 -75 -119 -149s40 -148 120 -148zM460 -78c0 -88 -91 -147 -235 -147c-127 0 -210 46 -210 120c0 55 46 99 94 111c-51 11 -72 37 -72 71c0 58 60 87 110 98c-58 27 -99 85 -99 148c0 88 78 167 175 167
c45 0 87 -16 118 -43l119 54l2 -1v-64h-4l-107 2c30 -30 49 -70 49 -115c0 -90 -80 -166 -176 -166c-22 0 -44 4 -64 12c-47 -15 -76 -39 -76 -73c0 -23 14 -46 87 -48l115 -4c126 -4 174 -58 174 -122zM242 -207c107 0 175 39 175 111c0 60 -48 92 -147 95l-111 2
c-13 0 -25 1 -35 3c-30 -8 -59 -47 -59 -96c0 -77 71 -115 177 -115zM265 659c0 -23 -18 -41 -41 -41c-22 0 -41 18 -41 41s19 41 41 41c23 0 41 -18 41 -41z" />
    <glyph glyph-name="hbar" unicode="&#x127;" horiz-adv-x="517" 
d="M145 0h-94v2c19 34 22 64 22 117v460h-73v18h73v63c0 38 -22 61 -44 75v2l94 42v-182h197v-18h-197v-176c51 60 116 87 180 87c93 0 140 -56 140 -146v-224c0 -55 1 -84 22 -118v-2h-94v2c19 34 22 67 22 117v214c0 66 -28 118 -112 118c-52 0 -112 -18 -158 -66v-266
c0 -52 1 -83 22 -117v-2z" />
    <glyph glyph-name="hcircumflex" unicode="&#x125;" horiz-adv-x="517" 
d="M148 0h-94v2c19 34 22 64 22 117v541c0 38 -22 61 -44 75v2l94 42v-376c51 60 116 87 180 87c93 0 140 -56 140 -146v-224c0 -55 1 -84 22 -118v-2h-94v2c19 34 22 67 22 117v214c0 66 -28 118 -112 118c-52 0 -112 -18 -158 -66v-266c0 -52 1 -83 22 -117v-2zM423 812
l-147 99l-147 -99l-6 7l151 156h4l151 -156z" />
    <glyph glyph-name="ibreve" unicode="&#x12d;" horiz-adv-x="197" 
d="M54 0v2c18 34 22 65 22 117v248c0 37 -22 60 -44 74v2l94 52v-375c0 -53 1 -84 22 -118v-2h-94zM94 614c61 0 100 31 115 79h8c-3 -47 -28 -122 -124 -122c-93 0 -117 75 -121 122h8c16 -48 53 -79 114 -79z" />
    <glyph glyph-name="idotaccent" horiz-adv-x="197" 
d="M139 659c0 -23 -18 -41 -41 -41c-22 0 -41 18 -41 41s19 41 41 41c23 0 41 -18 41 -41zM54 0v2c18 34 22 65 22 117v248c0 37 -22 60 -44 74v2l94 52v-375c0 -53 1 -84 22 -118v-2h-94z" />
    <glyph glyph-name="imacron" unicode="&#x12b;" horiz-adv-x="197" 
d="M-10 610v35h195v-35h-195zM54 0v2c18 34 22 65 22 117v248c0 37 -22 60 -44 74v2l94 52v-375c0 -53 1 -84 22 -118v-2h-94z" />
    <glyph glyph-name="iogonek" unicode="&#x12f;" horiz-adv-x="197" 
d="M54 0v2c18 34 22 65 22 117v248c0 37 -22 60 -44 74v2l94 52v-375c0 -53 1 -84 22 -118v-2h-18c-63 -47 -99 -102 -99 -154c0 -43 25 -62 64 -62c33 0 65 14 100 55l8 -6c-24 -36 -62 -81 -129 -81c-58 0 -89 31 -89 80c0 62 50 110 123 168h-54zM139 659
c0 -23 -18 -41 -41 -41c-22 0 -41 18 -41 41s19 41 41 41c23 0 41 -18 41 -41z" />
    <glyph glyph-name="itilde" unicode="&#x129;" horiz-adv-x="197" 
d="M54 0v2c18 34 22 65 22 117v248c0 37 -22 60 -44 74v2l94 52v-375c0 -53 1 -84 22 -118v-2h-94zM28 682c54 0 84 -44 141 -44c35 0 52 18 61 54l8 -1c-2 -34 -14 -99 -80 -99c-54 0 -84 44 -141 44c-35 0 -52 -18 -61 -54l-8 1c2 34 14 99 80 99z" />
    <glyph glyph-name="jcircumflex" unicode="&#x135;" horiz-adv-x="190" 
d="M16 -243l-2 5c44 24 65 52 65 140v465c0 37 -22 60 -44 74v2l94 52l-2 -579c0 -107 -35 -150 -111 -159zM234 540l-133 111l-129 -111l-7 6l134 173h4l138 -173z" />
    <glyph glyph-name="uni0137" unicode="&#x137;" horiz-adv-x="437" 
d="M54 0v2c19 34 22 65 22 117v554c0 32 -22 50 -44 62v2l94 42v-659c0 -52 1 -84 22 -118v-2h-94zM427 0h-90l-186 249l142 161c19 22 26 45 -9 63v2h116v-2c-49 -21 -58 -33 -90 -71l-113 -128l136 -182c37 -49 59 -71 94 -90v-2zM177 -224l-4 6c26 20 49 50 49 73
c0 20 -16 45 -33 59v2l48 36c19 -13 32 -36 32 -61c0 -50 -54 -90 -92 -115z" />
    <glyph glyph-name="lacute" unicode="&#x13a;" horiz-adv-x="197" 
d="M54 0v2c19 34 22 65 22 117v554c0 32 -22 50 -44 62v2l94 42v-659c0 -52 1 -84 22 -118v-2h-94zM-5 789l198 170l33 -54l-227 -123z" />
    <glyph glyph-name="lcaron" unicode="&#x13e;" horiz-adv-x="197" 
d="M54 0v2c19 34 22 65 22 117v554c0 32 -22 50 -44 62v2l94 42v-659c0 -52 1 -84 22 -118v-2h-94zM165 574l32 201h63l-88 -203z" />
    <glyph glyph-name="uni013C" unicode="&#x13c;" horiz-adv-x="197" 
d="M54 0v2c19 34 22 65 22 117v554c0 32 -22 50 -44 62v2l94 42v-659c0 -52 1 -84 22 -118v-2h-94zM46 -224l-4 6c26 20 49 50 49 73c0 20 -16 45 -33 59v2l48 36c19 -13 32 -36 32 -61c0 -50 -54 -90 -92 -115z" />
    <glyph glyph-name="ldot" unicode="&#x140;" horiz-adv-x="301" 
d="M54 0v2c19 34 22 65 22 117v554c0 32 -22 50 -44 62v2l94 42v-659c0 -52 1 -84 22 -118v-2h-94zM248 307c-25 0 -47 21 -47 47s22 47 47 47c26 0 47 -21 47 -47s-21 -47 -47 -47z" />
    <glyph glyph-name="nacute" unicode="&#x144;" horiz-adv-x="517" 
d="M148 2v-2h-94v2c19 34 22 64 22 117v247c0 38 -22 61 -44 75v2l90 52v-91l4 -1c51 60 116 87 180 87c93 0 140 -56 140 -146v-224c0 -55 1 -84 22 -118v-2h-94v2c19 34 22 67 22 117v214c0 66 -28 118 -112 118c-53 0 -115 -19 -158 -66v-265c0 -53 1 -84 22 -118z
M205 539l130 210l49 -38l-172 -178z" />
    <glyph glyph-name="napostrophe" unicode="&#x149;" horiz-adv-x="517" 
d="M148 2v-2h-94v2c19 34 22 64 22 117v247c0 38 -22 61 -44 75v2l90 52v-91l4 -1c51 60 116 87 180 87c93 0 140 -56 140 -146v-224c0 -55 1 -84 22 -118v-2h-94v2c19 34 22 67 22 117v214c0 66 -28 118 -112 118c-53 0 -115 -19 -158 -66v-265c0 -53 1 -84 22 -118z
M-6 544l-6 6c26 30 52 70 52 102c0 19 -19 43 -38 60v2l51 41c20 -14 35 -37 35 -60c0 -66 -57 -119 -94 -151z" />
    <glyph glyph-name="ncaron" unicode="&#x148;" horiz-adv-x="517" 
d="M148 2v-2h-94v2c19 34 22 64 22 117v247c0 38 -22 61 -44 75v2l90 52v-91l4 -1c51 60 116 87 180 87c93 0 140 -56 140 -146v-224c0 -55 1 -84 22 -118v-2h-94v2c19 34 22 67 22 117v214c0 66 -28 118 -112 118c-53 0 -115 -19 -158 -66v-265c0 -53 1 -84 22 -118z
M262 540l-134 173l7 6l129 -111l133 111l7 -6l-138 -173h-4z" />
    <glyph glyph-name="uni0146" unicode="&#x146;" horiz-adv-x="517" 
d="M148 2v-2h-94v2c19 34 22 64 22 117v247c0 38 -22 61 -44 75v2l90 52v-91l4 -1c51 60 116 87 180 87c93 0 140 -56 140 -146v-224c0 -55 1 -84 22 -118v-2h-94v2c19 34 22 67 22 117v214c0 66 -28 118 -112 118c-53 0 -115 -19 -158 -66v-265c0 -53 1 -84 22 -118z
M214 -224l-4 6c26 20 49 50 49 73c0 20 -16 45 -33 59v2l48 36c19 -13 32 -36 32 -61c0 -50 -54 -90 -92 -115z" />
    <glyph glyph-name="obreve" unicode="&#x14f;" horiz-adv-x="562" 
d="M281 -15c-134 0 -246 111 -246 252s112 253 246 253s246 -112 246 -253s-112 -252 -246 -252zM281 3c122 0 184 104 184 234s-63 235 -184 235s-184 -105 -184 -235s62 -234 184 -234zM281 614c61 0 100 31 115 79h8c-3 -47 -28 -122 -124 -122c-93 0 -117 75 -121 122h8
c16 -48 53 -79 114 -79z" />
    <glyph glyph-name="ohungarumlaut" unicode="&#x151;" horiz-adv-x="562" 
d="M281 -15c-134 0 -246 111 -246 252s112 253 246 253s246 -112 246 -253s-112 -252 -246 -252zM281 3c122 0 184 104 184 234s-63 235 -184 235s-184 -105 -184 -235s62 -234 184 -234zM327 548l113 181l39 -36l-145 -152zM185 548l113 181l39 -36l-145 -152z" />
    <glyph glyph-name="omacron" unicode="&#x14d;" horiz-adv-x="562" 
d="M281 -15c-134 0 -246 111 -246 252s112 253 246 253s246 -112 246 -253s-112 -252 -246 -252zM281 3c122 0 184 104 184 234s-63 235 -184 235s-184 -105 -184 -235s62 -234 184 -234zM139 610v35h285v-35h-285z" />
    <glyph glyph-name="oslashacute" unicode="&#x1ff;" horiz-adv-x="562" 
d="M281 -15c-50 0 -96 15 -135 41l-64 -93h-25l73 105c-58 46 -95 117 -95 199c0 141 112 253 246 253c49 0 95 -15 133 -41l66 95h25l-74 -107c58 -46 96 -118 96 -200c0 -141 -112 -252 -246 -252zM281 3c122 0 184 104 184 234c0 69 -18 130 -53 173l-250 -361
c30 -29 69 -46 119 -46zM97 237c0 -69 17 -130 51 -172l250 361c-29 29 -69 46 -117 46c-121 0 -184 -105 -184 -235zM240 539l130 210l49 -38l-172 -178z" />
    <glyph glyph-name="racute" unicode="&#x155;" horiz-adv-x="309" 
d="M54 0v2c19 34 22 64 22 117v247c0 38 -22 61 -44 75v2l90 52v-121l5 -1c49 48 90 117 162 117v-80h-2c-14 9 -49 15 -73 15c-17 0 -56 -37 -88 -75v-230c0 -53 1 -84 22 -118v-2h-94zM125 539l130 210l49 -38l-172 -178z" />
    <glyph glyph-name="rcaron" unicode="&#x159;" horiz-adv-x="309" 
d="M54 0v2c19 34 22 64 22 117v247c0 38 -22 61 -44 75v2l90 52v-121l5 -1c49 48 90 117 162 117v-80h-2c-14 9 -49 15 -73 15c-17 0 -56 -37 -88 -75v-230c0 -53 1 -84 22 -118v-2h-94zM182 540l-134 173l7 6l129 -111l133 111l7 -6l-138 -173h-4z" />
    <glyph glyph-name="uni0157" unicode="&#x157;" horiz-adv-x="309" 
d="M54 0v2c19 34 22 64 22 117v247c0 38 -22 61 -44 75v2l90 52v-121l5 -1c49 48 90 117 162 117v-80h-2c-14 9 -49 15 -73 15c-17 0 -56 -37 -88 -75v-230c0 -53 1 -84 22 -118v-2h-94zM46 -224l-4 6c26 20 49 50 49 73c0 20 -16 45 -33 59v2l48 36c19 -13 32 -36 32 -61
c0 -50 -54 -90 -92 -115z" />
    <glyph glyph-name="sacute" unicode="&#x15b;" horiz-adv-x="375" 
d="M313 472l10 -89l-8 -2c-37 72 -78 91 -127 91c-62 0 -107 -35 -107 -88c0 -63 57 -83 127 -110s142 -59 142 -152c0 -84 -61 -137 -176 -137c-64 0 -105 16 -132 29l-10 102l8 2c33 -80 78 -115 148 -115c80 0 121 46 121 102c0 67 -60 92 -126 117s-143 56 -143 143
c0 93 84 125 165 125c41 0 81 -8 108 -18zM143 539l130 210l49 -38l-172 -178z" />
    <glyph glyph-name="uni015F" unicode="&#x15f;" horiz-adv-x="375" 
d="M112 -255l-2 8c62 23 105 45 105 91c0 54 -60 63 -86 65l-1 2s27 45 45 74c-64 0 -104 16 -131 29l-10 102l8 2c33 -80 78 -115 148 -115c80 0 121 46 121 102c0 67 -60 92 -126 117s-143 56 -143 143c0 93 84 125 165 125c41 0 81 -8 108 -18l10 -89l-8 -2
c-37 72 -78 91 -127 91c-62 0 -107 -35 -107 -88c0 -63 57 -83 127 -110s142 -59 142 -152c0 -77 -51 -128 -148 -136l-27 -43c48 -11 83 -39 83 -86c0 -62 -61 -95 -146 -112z" />
    <glyph glyph-name="scircumflex" unicode="&#x15d;" horiz-adv-x="375" 
d="M313 472l10 -89l-8 -2c-37 72 -78 91 -127 91c-62 0 -107 -35 -107 -88c0 -63 57 -83 127 -110s142 -59 142 -152c0 -84 -61 -137 -176 -137c-64 0 -105 16 -132 29l-10 102l8 2c33 -80 78 -115 148 -115c80 0 121 46 121 102c0 67 -60 92 -126 117s-143 56 -143 143
c0 93 84 125 165 125c41 0 81 -8 108 -18zM315 540l-133 111l-129 -111l-7 6l134 173h4l138 -173z" />
    <glyph glyph-name="uni0219" unicode="&#x219;" horiz-adv-x="375" 
d="M313 472l10 -89l-8 -2c-37 72 -78 91 -127 91c-62 0 -107 -35 -107 -88c0 -63 57 -83 127 -110s142 -59 142 -152c0 -84 -61 -137 -176 -137c-64 0 -105 16 -132 29l-10 102l8 2c33 -80 78 -115 148 -115c80 0 121 46 121 102c0 67 -60 92 -126 117s-143 56 -143 143
c0 93 84 125 165 125c41 0 81 -8 108 -18zM140 -224l-4 6c26 20 49 50 49 73c0 20 -16 45 -33 59v2l48 36c19 -13 32 -36 32 -61c0 -50 -54 -90 -92 -115z" />
    <glyph glyph-name="tbar" unicode="&#x167;" horiz-adv-x="319" 
d="M195 -15c-47 0 -100 24 -100 110v215h-64v16h64v131h-54v2l102 89h2v-73h148v-18h-148v-131h138v-16h-138v-217c0 -50 22 -77 73 -77c36 0 69 13 84 21l2 -4c-13 -14 -53 -48 -109 -48z" />
    <glyph glyph-name="tcaron" unicode="&#x165;" horiz-adv-x="319" 
d="M185 -15c-47 0 -100 24 -100 110v362h-54v2l102 89h2v-73h148v-18h-148v-364c0 -50 22 -77 73 -77c36 0 69 13 84 21l2 -4c-13 -14 -53 -48 -109 -48zM211 574l32 201h63l-88 -203z" />
    <glyph glyph-name="tcommaaccent" unicode="&#x163;" horiz-adv-x="319" 
d="M185 -15c-47 0 -100 24 -100 110v362h-54v2l102 89h2v-73h148v-18h-148v-364c0 -50 22 -77 73 -77c36 0 69 13 84 21l2 -4c-13 -14 -53 -48 -109 -48zM119 -224l-4 6c26 20 49 50 49 73c0 20 -16 45 -33 59v2l48 36c19 -13 32 -36 32 -61c0 -50 -54 -90 -92 -115z" />
    <glyph glyph-name="uni021B" unicode="&#x21b;" horiz-adv-x="319" 
d="M185 -15c-47 0 -100 24 -100 110v362h-54v2l102 89h2v-73h148v-18h-148v-364c0 -50 22 -77 73 -77c36 0 69 13 84 21l2 -4c-13 -14 -53 -48 -109 -48zM119 -224l-4 6c26 20 49 50 49 73c0 20 -16 45 -33 59v2l48 36c19 -13 32 -36 32 -61c0 -50 -54 -90 -92 -115z" />
    <glyph glyph-name="ubreve" unicode="&#x16d;" horiz-adv-x="490" 
d="M362 -12v86c-37 -46 -89 -89 -167 -89c-86 0 -133 54 -133 140v284c0 30 -17 51 -42 64v2h92v-334c0 -77 32 -117 104 -117c64 0 110 31 141 63v322c0 30 -16 51 -44 64v2h94v-364c0 -64 13 -75 45 -89v-2zM228 614c61 0 100 31 115 79h8c-3 -47 -28 -122 -124 -122
c-93 0 -117 75 -121 122h8c16 -48 53 -79 114 -79z" />
    <glyph glyph-name="uhungarumlaut" unicode="&#x171;" horiz-adv-x="490" 
d="M362 -12v86c-37 -46 -89 -89 -167 -89c-86 0 -133 54 -133 140v284c0 30 -17 51 -42 64v2h92v-334c0 -77 32 -117 104 -117c64 0 110 31 141 63v322c0 30 -16 51 -44 64v2h94v-364c0 -64 13 -75 45 -89v-2zM277 548l113 181l39 -36l-145 -152zM135 548l113 181l39 -36
l-145 -152z" />
    <glyph glyph-name="umacron" unicode="&#x16b;" horiz-adv-x="490" 
d="M362 -12v86c-37 -46 -89 -89 -167 -89c-86 0 -133 54 -133 140v284c0 30 -17 51 -42 64v2h92v-334c0 -77 32 -117 104 -117c64 0 110 31 141 63v322c0 30 -16 51 -44 64v2h94v-364c0 -64 13 -75 45 -89v-2zM86 610v35h285v-35h-285z" />
    <glyph glyph-name="uogonek" unicode="&#x173;" horiz-adv-x="490" 
d="M322 -248c-58 0 -89 31 -89 80c0 64 50 116 129 169v73c-37 -46 -89 -89 -167 -89c-86 0 -133 54 -133 140v284c0 30 -17 51 -42 64v2h92v-334c0 -77 32 -117 104 -117c64 0 110 31 141 63v322c0 30 -16 51 -44 64v2h94v-364c0 -64 13 -75 45 -89v-2
c-35 -11 -64 -22 -86 -36c-68 -44 -87 -94 -87 -135c0 -46 25 -65 64 -65c33 0 65 14 100 55l8 -6c-24 -36 -62 -81 -129 -81z" />
    <glyph glyph-name="uring" unicode="&#x16f;" horiz-adv-x="490" 
d="M362 -12v86c-37 -46 -89 -89 -167 -89c-86 0 -133 54 -133 140v284c0 30 -17 51 -42 64v2h92v-334c0 -77 32 -117 104 -117c64 0 110 31 141 63v322c0 30 -16 51 -44 64v2h94v-364c0 -64 13 -75 45 -89v-2zM152 654c0 49 35 85 84 85s84 -36 84 -85s-35 -83 -84 -83
s-84 34 -84 83zM180 654c0 -40 19 -66 56 -66s56 26 56 66s-18 68 -56 68s-56 -28 -56 -68z" />
    <glyph glyph-name="utilde" unicode="&#x169;" horiz-adv-x="490" 
d="M362 -12v86c-37 -46 -89 -89 -167 -89c-86 0 -133 54 -133 140v284c0 30 -17 51 -42 64v2h92v-334c0 -77 32 -117 104 -117c64 0 110 31 141 63v322c0 30 -16 51 -44 64v2h94v-364c0 -64 13 -75 45 -89v-2zM163 682c54 0 84 -44 141 -44c35 0 52 18 61 54l8 -1
c-2 -34 -14 -99 -80 -99c-54 0 -84 44 -141 44c-35 0 -52 -18 -61 -54l-8 1c2 34 14 99 80 99z" />
    <glyph glyph-name="wacute" unicode="&#x1e83;" horiz-adv-x="636" 
d="M190 -6h-6l-119 378c-18 58 -36 87 -55 101v2h112v-2c-9 -11 -18 -48 -4 -96l85 -294l106 288v1c-17 49 -31 87 -54 101v2h107v-2c-9 -11 -16 -47 4 -108l92 -281l88 276c19 60 17 94 -14 113v2h99v-2c-31 -23 -41 -43 -61 -104l-123 -375h-6l-122 350zM267 539l130 210
l49 -38l-172 -178z" />
    <glyph glyph-name="wcircumflex" unicode="&#x175;" horiz-adv-x="636" 
d="M190 -6h-6l-119 378c-18 58 -36 87 -55 101v2h112v-2c-9 -11 -18 -48 -4 -96l85 -294l106 288v1c-17 49 -31 87 -54 101v2h107v-2c-9 -11 -16 -47 4 -108l92 -281l88 276c19 60 17 94 -14 113v2h99v-2c-31 -23 -41 -43 -61 -104l-123 -375h-6l-122 350zM459 540l-133 111
l-129 -111l-7 6l134 173h4l138 -173z" />
    <glyph glyph-name="wdieresis" unicode="&#x1e85;" horiz-adv-x="636" 
d="M190 -6h-6l-119 378c-18 58 -36 87 -55 101v2h112v-2c-9 -11 -18 -48 -4 -96l85 -294l106 288v1c-17 49 -31 87 -54 101v2h107v-2c-9 -11 -16 -47 4 -108l92 -281l88 276c19 60 17 94 -14 113v2h99v-2c-31 -23 -41 -43 -61 -104l-123 -375h-6l-122 350zM469 659
c0 -23 -18 -41 -41 -41c-22 0 -41 18 -41 41s19 41 41 41c23 0 41 -18 41 -41zM269 659c0 -23 -18 -41 -41 -41c-22 0 -41 18 -41 41s19 41 41 41c23 0 41 -18 41 -41z" />
    <glyph glyph-name="wgrave" unicode="&#x1e81;" horiz-adv-x="636" 
d="M190 -6h-6l-119 378c-18 58 -36 87 -55 101v2h112v-2c-9 -11 -18 -48 -4 -96l85 -294l106 288v1c-17 49 -31 87 -54 101v2h107v-2c-9 -11 -16 -47 4 -108l92 -281l88 276c19 60 17 94 -14 113v2h99v-2c-31 -23 -41 -43 -61 -104l-123 -375h-6l-122 350zM372 539l-7 -6
l-172 178l49 38z" />
    <glyph glyph-name="ycircumflex" unicode="&#x177;" horiz-adv-x="412" 
d="M22 -225l-2 55c35 1 117 25 152 117l25 65l-138 359c-22 57 -34 83 -59 102v2h117v-2c-21 -19 -26 -47 -5 -104l110 -292l108 284c22 59 19 93 -12 112v2h99v-2c-31 -23 -41 -43 -64 -104l-173 -450c-38 -99 -88 -136 -158 -144zM354 540l-133 111l-129 -111l-7 6
l134 173h4l138 -173z" />
    <glyph glyph-name="ygrave" unicode="&#x1ef3;" horiz-adv-x="412" 
d="M22 -225l-2 55c35 1 117 25 152 117l25 65l-138 359c-22 57 -34 83 -59 102v2h117v-2c-21 -19 -26 -47 -5 -104l110 -292l108 284c22 59 19 93 -12 112v2h99v-2c-31 -23 -41 -43 -64 -104l-173 -450c-38 -99 -88 -136 -158 -144zM267 539l-7 -6l-172 178l49 38z" />
    <glyph glyph-name="zacute" unicode="&#x17a;" horiz-adv-x="412" 
d="M347 0h-327v7l298 451l-152 -4c-50 -1 -72 -34 -112 -82l-5 2l33 101h299v-8l-297 -450l168 3c60 1 82 32 125 92l5 -2zM159 539l130 210l49 -38l-172 -178z" />
    <glyph glyph-name="zdotaccent" unicode="&#x17c;" horiz-adv-x="412" 
d="M347 0h-327v7l298 451l-152 -4c-50 -1 -72 -34 -112 -82l-5 2l33 101h299v-8l-297 -450l168 3c60 1 82 32 125 92l5 -2zM261 659c0 -23 -18 -41 -41 -41c-22 0 -41 18 -41 41s19 41 41 41c23 0 41 -18 41 -41z" />
    <glyph glyph-name="space_uni0326" horiz-adv-x="450" 
d="M179 -224l-4 6c26 20 49 50 49 73c0 20 -16 45 -33 59v2l48 36c19 -13 32 -36 32 -61c0 -50 -54 -90 -92 -115z" />
    <glyph glyph-name="oneeighth" unicode="&#x215b;" horiz-adv-x="619" 
d="M474 -8c-65 0 -122 35 -122 98c0 45 28 86 91 104c-51 26 -72 56 -72 95c0 62 45 104 107 104c57 0 104 -35 104 -90c0 -32 -16 -72 -76 -90c69 -31 95 -70 95 -112c0 -66 -55 -109 -127 -109zM475 7c53 0 89 28 89 75s-34 71 -108 106c-48 -23 -68 -57 -68 -98
c0 -54 34 -83 87 -83zM153 354h-106v1c23 27 28 42 28 78v229h-48v4c34 19 65 46 92 78h5v-311c0 -37 5 -51 29 -78v-1zM49 1l-16 13l521 729l17 -11zM406 313c0 -44 30 -67 89 -94c35 21 51 47 51 84c0 49 -28 75 -69 75c-42 0 -71 -27 -71 -65z" />
    <glyph glyph-name="onethird" unicode="&#x2153;" horiz-adv-x="668" 
d="M153 354h-106v1c23 27 28 42 28 78v229h-48v4c34 19 65 46 92 78h5v-311c0 -37 5 -51 29 -78v-1zM59 1l-16 13l521 729l17 -11zM507 -8c-38 0 -78 10 -99 23l-13 83l5 1c34 -55 60 -92 112 -92c61 0 86 51 86 113c0 71 -33 103 -91 103c-31 0 -51 -9 -69 -22l-7 9
l147 131h-162l14 43h213v-5l-162 -144c11 3 24 5 38 5c68 0 128 -40 128 -120c0 -77 -57 -128 -140 -128z" />
    <glyph glyph-name="threeeighths" unicode="&#x215c;" horiz-adv-x="680" 
d="M535 -8c-65 0 -122 35 -122 98c0 45 28 86 91 104c-51 26 -72 56 -72 95c0 62 45 104 107 104c57 0 104 -35 104 -90c0 -32 -16 -72 -76 -90c69 -31 95 -70 95 -112c0 -66 -55 -109 -127 -109zM139 346c-38 0 -78 10 -99 23l-13 83l5 1c34 -55 60 -92 112 -92
c61 0 86 51 86 113c0 71 -33 103 -91 103c-31 0 -51 -9 -69 -22l-7 9l147 131h-162l14 43h213v-5l-162 -144c11 3 24 5 38 5c68 0 128 -40 128 -120c0 -77 -57 -128 -140 -128zM536 7c53 0 89 28 89 75s-34 71 -108 106c-48 -23 -68 -57 -68 -98c0 -54 34 -83 87 -83zM110 1
l-16 13l521 729l17 -11zM467 313c0 -44 30 -67 89 -94c35 21 51 47 51 84c0 49 -28 75 -69 75c-42 0 -71 -27 -71 -65z" />
    <glyph glyph-name="fiveeighths" unicode="&#x215d;" horiz-adv-x="677" 
d="M532 -8c-65 0 -122 35 -122 98c0 45 28 86 91 104c-51 26 -72 56 -72 95c0 62 45 104 107 104c57 0 104 -35 104 -90c0 -32 -16 -72 -76 -90c69 -31 95 -70 95 -112c0 -66 -55 -109 -127 -109zM128 346c-39 0 -72 10 -92 23l-12 80l5 1c30 -53 57 -89 105 -89
c49 0 86 35 86 109c0 75 -37 118 -99 118c-25 0 -47 -6 -66 -25l-7 5l29 171h185l-8 -42h-168l-19 -113c19 14 40 20 68 20c71 0 133 -44 133 -130c0 -83 -59 -128 -140 -128zM533 7c53 0 89 28 89 75s-34 71 -108 106c-48 -23 -68 -57 -68 -98c0 -54 34 -83 87 -83zM107 1
l-16 13l521 729l17 -11zM464 313c0 -44 30 -67 89 -94c35 21 51 47 51 84c0 49 -28 75 -69 75c-42 0 -71 -27 -71 -65z" />
    <glyph glyph-name="twothirds" unicode="&#x2154;" horiz-adv-x="729" 
d="M247 354h-233v7c152 128 198 201 198 280c0 57 -28 91 -77 91c-47 0 -70 -39 -97 -92l-5 2l12 88c19 7 50 17 91 17c89 0 125 -45 125 -104c0 -79 -66 -151 -187 -247h105c48 0 70 29 95 71l5 -2zM125 1l-16 13l521 729l17 -11zM568 -8c-38 0 -78 10 -99 23l-13 83l5 1
c34 -55 60 -92 112 -92c61 0 86 51 86 113c0 71 -33 103 -91 103c-31 0 -51 -9 -69 -22l-7 9l147 131h-162l14 43h213v-5l-162 -144c11 3 24 5 38 5c68 0 128 -40 128 -120c0 -77 -57 -128 -140 -128z" />
    <glyph glyph-name="seveneighths" unicode="&#x215e;" horiz-adv-x="620" 
d="M475 -8c-65 0 -122 35 -122 98c0 45 28 86 91 104c-51 26 -72 56 -72 95c0 62 45 104 107 104c57 0 104 -35 104 -90c0 -32 -16 -72 -76 -90c69 -31 95 -70 95 -112c0 -66 -55 -109 -127 -109zM476 7c53 0 89 28 89 75s-34 71 -108 106c-48 -23 -68 -57 -68 -98
c0 -54 34 -83 87 -83zM124 354h-53c38 140 100 255 166 343h-197l8 42h231v-5c-65 -99 -128 -226 -155 -380zM50 1l-16 13l521 729l17 -11zM407 313c0 -44 30 -67 89 -94c35 21 51 47 51 84c0 49 -28 75 -69 75c-42 0 -71 -27 -71 -65z" />
    <glyph glyph-name="uni24C5" unicode="&#x24c5;" horiz-adv-x="843" 
d="M40 367c0 212 171 380 381 380c211 0 382 -168 382 -380c0 -214 -172 -381 -382 -381s-381 167 -381 381zM65 367c0 -200 159 -361 356 -361s356 161 356 361s-159 360 -356 360s-356 -160 -356 -360zM308 153v2c18 22 22 34 22 64v271c0 30 -4 42 -22 64v2h130
c93 0 123 -49 123 -112c0 -79 -49 -126 -132 -126h-64v-99c0 -30 3 -42 21 -64v-2h-78zM429 539c-12 0 -25 0 -64 -1v-202h64c67 0 95 47 95 108c0 78 -45 95 -95 95z" />
    <glyph glyph-name="five.num" horiz-adv-x="287" 
d="M123 346c-39 0 -72 10 -92 23l-12 80l5 1c30 -53 57 -89 105 -89c49 0 86 35 86 109c0 75 -37 118 -99 118c-25 0 -47 -6 -66 -25l-7 5l29 171h185l-8 -42h-168l-19 -113c19 14 40 20 68 20c71 0 133 -44 133 -130c0 -83 -59 -128 -140 -128z" />
    <glyph glyph-name="zero.num" horiz-adv-x="358" 
d="M179 346c-86 0 -155 87 -155 201c0 113 68 200 155 200c88 0 157 -87 157 -200c0 -114 -70 -201 -157 -201zM179 361c74 0 100 79 100 186c0 106 -26 185 -100 185c-72 0 -98 -79 -98 -185c0 -107 26 -186 98 -186z" />
    <glyph glyph-name="one.num" horiz-adv-x="182" 
d="M148 354h-106v1c23 27 28 42 28 78v229h-48v4c34 19 65 46 92 78h5v-311c0 -37 5 -51 29 -78v-1z" />
    <glyph glyph-name="two.num" horiz-adv-x="303" 
d="M242 354h-233v7c152 128 198 201 198 280c0 57 -28 91 -77 91c-47 0 -70 -39 -97 -92l-5 2l12 88c19 7 50 17 91 17c89 0 125 -45 125 -104c0 -79 -66 -151 -187 -247h105c48 0 70 29 95 71l5 -2z" />
    <glyph glyph-name="three.num" horiz-adv-x="296" 
d="M134 346c-38 0 -78 10 -99 23l-13 83l5 1c34 -55 60 -92 112 -92c61 0 86 51 86 113c0 71 -33 103 -91 103c-31 0 -51 -9 -69 -22l-7 9l147 131h-162l14 43h213v-5l-162 -144c11 3 24 5 38 5c68 0 128 -40 128 -120c0 -77 -57 -128 -140 -128z" />
    <glyph glyph-name="four.num" horiz-adv-x="306" 
d="M164 354v1c18 27 23 42 23 78v21h-173v7l180 278h57l-214 -269h150v126h48v-126h49l-4 -16h-45v-21c0 -37 6 -51 24 -78v-1h-95z" />
    <glyph glyph-name="six.num" horiz-adv-x="319" 
d="M161 346c-81 0 -135 60 -135 155c0 94 53 195 206 246l4 -10c-82 -35 -129 -104 -149 -173c14 24 44 46 89 46c66 0 119 -48 119 -125c0 -82 -60 -139 -134 -139zM161 361c49 0 83 42 83 116c0 76 -34 108 -84 108c-32 0 -65 -14 -79 -46c-3 -17 -5 -35 -5 -51
c0 -65 27 -127 85 -127z" />
    <glyph glyph-name="seven.num" horiz-adv-x="267" 
d="M108 354h-53c38 140 100 255 166 343h-197l8 42h231v-5c-65 -99 -128 -226 -155 -380z" />
    <glyph glyph-name="eight.num" horiz-adv-x="287" 
d="M141 346c-65 0 -122 35 -122 98c0 45 28 86 91 104c-51 26 -72 56 -72 95c0 62 45 104 107 104c57 0 104 -35 104 -90c0 -32 -16 -72 -76 -90c69 -31 95 -70 95 -112c0 -66 -55 -109 -127 -109zM142 361c53 0 89 28 89 75s-34 71 -108 106c-48 -23 -68 -57 -68 -98
c0 -54 34 -83 87 -83zM73 667c0 -44 30 -67 89 -94c35 21 51 47 51 84c0 49 -28 75 -69 75c-42 0 -71 -27 -71 -65z" />
    <glyph glyph-name="nine.num" horiz-adv-x="319" 
d="M77 356c82 35 130 104 149 174c-14 -25 -44 -47 -89 -47c-66 0 -119 48 -119 125c0 82 60 139 134 139c81 0 135 -60 135 -155c0 -94 -53 -195 -206 -246zM153 508c32 0 65 14 79 46c3 17 5 34 5 51c0 65 -27 127 -85 127c-49 0 -83 -42 -83 -116c0 -76 34 -108 84 -108z
" />
    <glyph glyph-name="five.den" horiz-adv-x="287" 
d="M123 -8c-39 0 -72 10 -92 23l-12 80l5 1c30 -53 57 -89 105 -89c49 0 86 35 86 109c0 75 -37 118 -99 118c-25 0 -47 -6 -66 -25l-7 5l29 171h185l-8 -42h-168l-19 -113c19 14 40 20 68 20c71 0 133 -44 133 -130c0 -83 -59 -128 -140 -128z" />
    <glyph glyph-name="zero.den" horiz-adv-x="356" 
d="M177 -8c-86 0 -155 87 -155 201c0 113 68 200 155 200c88 0 157 -87 157 -200c0 -114 -70 -201 -157 -201zM177 7c74 0 100 79 100 186c0 106 -26 185 -100 185c-72 0 -98 -79 -98 -185c0 -107 26 -186 98 -186z" />
    <glyph glyph-name="one.den" horiz-adv-x="182" 
d="M148 0h-106v1c23 27 28 42 28 78v229h-48v4c34 19 65 46 92 78h5v-311c0 -37 5 -51 29 -78v-1z" />
    <glyph glyph-name="two.den" horiz-adv-x="303" 
d="M242 0h-233v7c152 128 198 201 198 280c0 57 -28 91 -77 91c-47 0 -70 -39 -97 -92l-5 2l12 88c19 7 50 17 91 17c89 0 125 -45 125 -104c0 -79 -66 -151 -187 -247h105c48 0 70 29 95 71l5 -2z" />
    <glyph glyph-name="three.den" horiz-adv-x="296" 
d="M134 -8c-38 0 -78 10 -99 23l-13 83l5 1c34 -55 60 -92 112 -92c61 0 86 51 86 113c0 71 -33 103 -91 103c-31 0 -51 -9 -69 -22l-7 9l147 131h-162l14 43h213v-5l-162 -144c11 3 24 5 38 5c68 0 128 -40 128 -120c0 -77 -57 -128 -140 -128z" />
    <glyph glyph-name="four.den" horiz-adv-x="306" 
d="M164 0v1c18 27 23 42 23 78v21h-173v7l180 278h57l-214 -269h150v126h48v-126h49l-4 -16h-45v-21c0 -37 6 -51 24 -78v-1h-95z" />
    <glyph glyph-name="six.den" horiz-adv-x="319" 
d="M161 -8c-81 0 -135 60 -135 155c0 94 53 195 206 246l4 -10c-82 -35 -129 -104 -149 -173c14 24 44 46 89 46c66 0 119 -48 119 -125c0 -82 -60 -139 -134 -139zM161 7c49 0 83 42 83 116c0 76 -34 108 -84 108c-32 0 -65 -14 -79 -46c-3 -17 -5 -35 -5 -51
c0 -65 27 -127 85 -127z" />
    <glyph glyph-name="seven.den" horiz-adv-x="267" 
d="M108 0h-53c38 140 100 255 166 343h-197l8 42h231v-5c-65 -99 -128 -226 -155 -380z" />
    <glyph glyph-name="eight.den" horiz-adv-x="287" 
d="M141 -8c-65 0 -122 35 -122 98c0 45 28 86 91 104c-51 26 -72 56 -72 95c0 62 45 104 107 104c57 0 104 -35 104 -90c0 -32 -16 -72 -76 -90c69 -31 95 -70 95 -112c0 -66 -55 -109 -127 -109zM142 7c53 0 89 28 89 75s-34 71 -108 106c-48 -23 -68 -57 -68 -98
c0 -54 34 -83 87 -83zM73 313c0 -44 30 -67 89 -94c35 21 51 47 51 84c0 49 -28 75 -69 75c-42 0 -71 -27 -71 -65z" />
    <glyph glyph-name="nine.den" horiz-adv-x="319" 
d="M77 2c82 35 130 104 149 174c-14 -25 -44 -47 -89 -47c-66 0 -119 48 -119 125c0 82 60 139 134 139c81 0 135 -60 135 -155c0 -94 -53 -195 -206 -246zM153 154c32 0 65 14 79 46c3 17 5 34 5 51c0 65 -27 127 -85 127c-49 0 -83 -42 -83 -116c0 -76 34 -108 84 -108z
" />
    <glyph glyph-name="five.sub" horiz-adv-x="287" 
d="M123 -88c-39 0 -72 10 -92 23l-12 80l5 1c30 -53 57 -89 105 -89c49 0 86 35 86 109c0 75 -37 118 -99 118c-25 0 -47 -6 -66 -25l-7 5l29 171h185l-8 -42h-168l-19 -113c19 14 40 20 68 20c71 0 133 -44 133 -130c0 -83 -59 -128 -140 -128z" />
    <glyph glyph-name="zero.sub" horiz-adv-x="358" 
d="M179 -88c-86 0 -155 87 -155 201c0 113 68 200 155 200c88 0 157 -87 157 -200c0 -114 -70 -201 -157 -201zM179 -73c74 0 100 79 100 186c0 106 -26 185 -100 185c-72 0 -98 -79 -98 -185c0 -107 26 -186 98 -186z" />
    <glyph glyph-name="one.sub" horiz-adv-x="182" 
d="M148 -80h-106v1c23 27 28 42 28 78v229h-48v4c34 19 65 46 92 78h5v-311c0 -37 5 -51 29 -78v-1z" />
    <glyph glyph-name="two.sub" horiz-adv-x="303" 
d="M242 -80h-233v7c152 128 198 201 198 280c0 57 -28 91 -77 91c-47 0 -70 -39 -97 -92l-5 2l12 88c19 7 50 17 91 17c89 0 125 -45 125 -104c0 -79 -66 -151 -187 -247h105c48 0 70 29 95 71l5 -2z" />
    <glyph glyph-name="three.sub" horiz-adv-x="296" 
d="M134 -88c-38 0 -78 10 -99 23l-13 83l5 1c34 -55 60 -92 112 -92c61 0 86 51 86 113c0 71 -33 103 -91 103c-31 0 -51 -9 -69 -22l-7 9l147 131h-162l14 43h213v-5l-162 -144c11 3 24 5 38 5c68 0 128 -40 128 -120c0 -77 -57 -128 -140 -128z" />
    <glyph glyph-name="four.sub" horiz-adv-x="306" 
d="M164 -80v1c18 27 23 42 23 78v21h-173v7l180 278h57l-214 -269h150v126h48v-126h49l-4 -16h-45v-21c0 -37 6 -51 24 -78v-1h-95z" />
    <glyph glyph-name="six.sub" horiz-adv-x="319" 
d="M161 -88c-81 0 -135 60 -135 155c0 94 53 195 206 246l4 -10c-82 -35 -129 -104 -149 -173c14 24 44 46 89 46c66 0 119 -48 119 -125c0 -82 -60 -139 -134 -139zM161 -73c49 0 83 42 83 116c0 76 -34 108 -84 108c-32 0 -65 -14 -79 -46c-3 -17 -5 -35 -5 -51
c0 -65 27 -127 85 -127z" />
    <glyph glyph-name="seven.sub" horiz-adv-x="267" 
d="M108 -80h-53c38 140 100 255 166 343h-197l8 42h231v-5c-65 -99 -128 -226 -155 -380z" />
    <glyph glyph-name="eight.sub" horiz-adv-x="287" 
d="M141 -88c-65 0 -122 35 -122 98c0 45 28 86 91 104c-51 26 -72 56 -72 95c0 62 45 104 107 104c57 0 104 -35 104 -90c0 -32 -16 -72 -76 -90c69 -31 95 -70 95 -112c0 -66 -55 -109 -127 -109zM142 -73c53 0 89 28 89 75s-34 71 -108 106c-48 -23 -68 -57 -68 -98
c0 -54 34 -83 87 -83zM73 233c0 -44 30 -67 89 -94c35 21 51 47 51 84c0 49 -28 75 -69 75c-42 0 -71 -27 -71 -65z" />
    <glyph glyph-name="nine.sub" horiz-adv-x="319" 
d="M152 313c81 0 135 -60 135 -155c0 -94 -53 -195 -206 -246l-4 10c82 35 129 104 149 173c-14 -24 -44 -46 -89 -46c-66 0 -119 48 -119 125c0 82 60 139 134 139zM152 298c-49 0 -83 -42 -83 -116c0 -76 34 -108 84 -108c32 0 65 14 79 46c3 17 5 35 5 51
c0 65 -27 127 -85 127z" />
    <glyph glyph-name="plus.sub" horiz-adv-x="315" 
d="M290 106h-123v-123h-20v123h-122v18h122v123h20v-123h123v-18z" />
    <glyph glyph-name="minus.sub" horiz-adv-x="315" 
d="M290 106h-265v18h265v-18z" />
    <glyph glyph-name="five.sup" horiz-adv-x="287" 
d="M123 426c-39 0 -72 10 -92 23l-12 80l5 1c30 -53 57 -89 105 -89c49 0 86 35 86 109c0 75 -37 118 -99 118c-25 0 -47 -6 -66 -25l-7 5l29 171h185l-8 -42h-168l-19 -113c19 14 40 20 68 20c71 0 133 -44 133 -130c0 -83 -59 -128 -140 -128z" />
    <glyph glyph-name="zero.sup" horiz-adv-x="358" 
d="M179 426c-86 0 -155 87 -155 201c0 113 68 200 155 200c88 0 157 -87 157 -200c0 -114 -70 -201 -157 -201zM179 441c74 0 100 79 100 186c0 106 -26 185 -100 185c-72 0 -98 -79 -98 -185c0 -107 26 -186 98 -186z" />
    <glyph glyph-name="one.sup" horiz-adv-x="182" 
d="M148 434h-106v1c23 27 28 42 28 78v229h-48v4c34 19 65 46 92 78h5v-311c0 -37 5 -51 29 -78v-1z" />
    <glyph glyph-name="two.sup" horiz-adv-x="303" 
d="M242 434h-233v7c152 128 198 201 198 280c0 57 -28 91 -77 91c-47 0 -70 -39 -97 -92l-5 2l12 88c19 7 50 17 91 17c89 0 125 -45 125 -104c0 -79 -66 -151 -187 -247h105c48 0 70 29 95 71l5 -2z" />
    <glyph glyph-name="three.sup" horiz-adv-x="296" 
d="M134 426c-38 0 -78 10 -99 23l-13 83l5 1c34 -55 60 -92 112 -92c61 0 86 51 86 113c0 71 -33 103 -91 103c-31 0 -51 -9 -69 -22l-7 9l147 131h-162l14 43h213v-5l-162 -144c11 3 24 5 38 5c68 0 128 -40 128 -120c0 -77 -57 -128 -140 -128z" />
    <glyph glyph-name="four.sup" horiz-adv-x="306" 
d="M164 434v1c18 27 23 42 23 78v21h-173v7l180 278h57l-214 -269h150v126h48v-126h49l-4 -16h-45v-21c0 -37 6 -51 24 -78v-1h-95z" />
    <glyph glyph-name="six.sup" horiz-adv-x="319" 
d="M161 426c-81 0 -135 60 -135 155c0 94 53 195 206 246l4 -10c-82 -35 -129 -104 -149 -173c14 24 44 46 89 46c66 0 119 -48 119 -125c0 -82 -60 -139 -134 -139zM161 441c49 0 83 42 83 116c0 76 -34 108 -84 108c-32 0 -65 -14 -79 -46c-3 -17 -5 -35 -5 -51
c0 -65 27 -127 85 -127z" />
    <glyph glyph-name="seven.sup" horiz-adv-x="267" 
d="M108 434h-53c38 140 100 255 166 343h-197l8 42h231v-5c-65 -99 -128 -226 -155 -380z" />
    <glyph glyph-name="eight.sup" horiz-adv-x="287" 
d="M141 426c-65 0 -122 35 -122 98c0 45 28 86 91 104c-51 26 -72 56 -72 95c0 62 45 104 107 104c57 0 104 -35 104 -90c0 -32 -16 -72 -76 -90c69 -31 95 -70 95 -112c0 -66 -55 -109 -127 -109zM142 441c53 0 89 28 89 75s-34 71 -108 106c-48 -23 -68 -57 -68 -98
c0 -54 34 -83 87 -83zM73 747c0 -44 30 -67 89 -94c35 21 51 47 51 84c0 49 -28 75 -69 75c-42 0 -71 -27 -71 -65z" />
    <glyph glyph-name="nine.sup" horiz-adv-x="319" 
d="M77 436c82 35 130 104 149 174c-14 -25 -44 -47 -89 -47c-66 0 -119 48 -119 125c0 82 60 139 134 139c81 0 135 -60 135 -155c0 -94 -53 -195 -206 -246zM153 588c32 0 65 14 79 46c3 17 5 34 5 51c0 65 -27 127 -85 127c-49 0 -83 -42 -83 -116c0 -76 34 -108 84 -108z
" />
    <glyph glyph-name="plus.sup" horiz-adv-x="315" 
d="M290 616h-123v-123h-20v123h-122v18h122v123h20v-123h123v-18z" />
    <glyph glyph-name="minus.sup" horiz-adv-x="315" 
d="M290 616h-265v18h265v-18z" />
    <glyph glyph-name="space_uni0326.alt" horiz-adv-x="450" 
d="M207 754l4 -6c-26 -20 -49 -50 -49 -73c0 -20 16 -45 33 -59v-2l-48 -36c-19 13 -32 36 -32 61c0 50 54 90 92 115z" />
    <glyph glyph-name="caron.alt" horiz-adv-x="449" 
d="M104 574l32 201h63l-88 -203z" />
    <glyph glyph-name="space.uc" horiz-adv-x="191" 
 />
    <glyph glyph-name="questiondown.uc" horiz-adv-x="433" 
d="M286 538h16c-23 -177 -197 -194 -197 -387c0 -95 40 -148 123 -148c80 0 122 46 158 140l7 -2l-19 -124c-29 -11 -83 -32 -151 -32c-111 0 -178 59 -178 165c0 186 201 210 241 388zM288 735c25 0 47 -21 47 -47s-22 -47 -47 -47c-26 0 -47 21 -47 47s21 47 47 47z" />
    <glyph glyph-name="exclamdown.uc" horiz-adv-x="214" 
d="M136 2v-2h-57v2l21 536h14zM107 735c26 0 47 -21 47 -47s-21 -47 -47 -47c-25 0 -47 21 -47 47s22 47 47 47z" />
    <glyph glyph-name="hyphen.uc" horiz-adv-x="281" 
d="M251 363h-221v40h221v-40z" />
    <glyph glyph-name="endash.uc" horiz-adv-x="490" 
d="M460 371h-430v18h430v-18z" />
    <glyph glyph-name="emdash.uc" horiz-adv-x="740" 
d="M710 371h-680v18h680v-18z" />
    <glyph glyph-name="guilsinglleft.uc" horiz-adv-x="276" 
d="M196 138l-8 -6l-138 175v20l138 175l8 -6l-91 -179z" />
    <glyph glyph-name="guilsinglright.uc" horiz-adv-x="276" 
d="M88 152l-8 6l91 179l-91 179l8 6l138 -175v-20z" />
    <glyph glyph-name="guillemotleft.uc" horiz-adv-x="401" 
d="M346 138l-8 -6l-138 175v20l138 175l8 -6l-91 -179zM196 138l-8 -6l-138 175v20l138 175l8 -6l-91 -179z" />
    <glyph glyph-name="guillemotright.uc" horiz-adv-x="401" 
d="M213 132l-8 6l91 179l-91 179l8 6l138 -175v-20zM63 132l-8 6l91 179l-91 179l8 6l138 -175v-20z" />
    <glyph glyph-name="parenleft.uc" horiz-adv-x="272" 
d="M257 -80l-8 -10c-111 98 -179 252 -179 442s68 345 179 443l8 -10c-83 -99 -139 -250 -139 -433s56 -333 139 -432z" />
    <glyph glyph-name="parenright.uc" horiz-adv-x="272" 
d="M23 -90l-8 10c83 99 139 249 139 432s-56 334 -139 433l8 10c111 -98 179 -253 179 -443s-68 -344 -179 -442z" />
    <glyph glyph-name="bracketleft.uc" horiz-adv-x="299" 
d="M100 -90v885h184v-18h-136v-849h136v-18h-184z" />
    <glyph glyph-name="bracketright.uc" horiz-adv-x="299" 
d="M199 795v-885h-184v18h136v849h-136v18h184z" />
    <glyph glyph-name="braceleft.uc" horiz-adv-x="283" 
d="M268 -90h-35c-93 0 -143 45 -143 120c0 73 55 143 55 229c0 60 -40 84 -103 84h-12v19h12c63 0 103 24 103 84c0 86 -55 156 -55 229c0 75 50 120 143 120h35v-18h-35c-49 0 -91 -15 -91 -101c0 -55 36 -147 36 -224c0 -74 -48 -92 -96 -98v-3c48 -6 96 -24 96 -98
c0 -77 -36 -169 -36 -224c0 -86 42 -101 91 -101h35v-18z" />
    <glyph glyph-name="braceright.uc" horiz-adv-x="283" 
d="M50 -90h-35v18h35c49 0 91 15 91 101c0 55 -36 147 -36 224c0 74 48 92 96 98v3c-48 6 -96 24 -96 98c0 77 36 169 36 224c0 86 -42 101 -91 101h-35v18h35c93 0 143 -45 143 -120c0 -73 -55 -143 -55 -229c0 -60 40 -84 103 -84h12v-19h-12c-63 0 -103 -24 -103 -84
c0 -86 55 -156 55 -229c0 -75 -50 -120 -143 -120z" />
    <glyph glyph-name="slash.uc" horiz-adv-x="403" 
d="M-3 -90l385 911h23l-385 -911h-23z" />
    <glyph glyph-name="backslash.uc" horiz-adv-x="403" 
d="M406 -90h-23l-385 911h23z" />
    <glyph glyph-name="bar.uc" horiz-adv-x="205" 
d="M114 -89h-23v911h23v-911z" />
    <glyph glyph-name="at.uc" horiz-adv-x="849" 
d="M413 -41c-216 0 -373 139 -373 360c0 235 178 437 441 437c199 0 328 -112 328 -308c0 -158 -86 -296 -219 -296c-106 0 -120 88 -97 173l7 26c-46 -111 -115 -208 -186 -208c-46 0 -77 35 -77 107c0 160 126 322 264 322c29 0 54 -7 71 -17l28 17h4l-65 -244
c-23 -88 -24 -157 57 -157c109 0 178 125 178 273c0 190 -119 292 -296 292c-239 0 -393 -191 -393 -417c0 -212 135 -340 332 -340c78 0 158 21 214 60l8 -16c-60 -42 -140 -64 -226 -64zM336 182c70 0 134 134 173 225l29 113c-10 17 -29 33 -61 33
c-105 0 -190 -164 -190 -290c0 -65 22 -81 49 -81z" />
    <glyph glyph-name="grave.uc" horiz-adv-x="449" 
d="M333 789l-4 -7l-231 123l37 54z" />
    <glyph glyph-name="dieresis.uc" horiz-adv-x="450" 
d="M396 868c0 -23 -18 -41 -41 -41c-22 0 -41 18 -41 41s19 41 41 41c23 0 41 -18 41 -41zM136 868c0 -23 -18 -41 -41 -41c-22 0 -41 18 -41 41s19 41 41 41c23 0 41 -18 41 -41z" />
    <glyph glyph-name="macron.uc" horiz-adv-x="314" 
d="M8 838v35h299v-35h-299z" />
    <glyph glyph-name="acute.uc" horiz-adv-x="449" 
d="M98 789l198 170l33 -54l-227 -123z" />
    <glyph glyph-name="circumflex.uc" horiz-adv-x="450" 
d="M372 782l-147 99l-147 -99l-6 7l151 156h4l151 -156z" />
    <glyph glyph-name="caron.uc" horiz-adv-x="450" 
d="M227 782h-4l-151 156l6 7l147 -99l147 99l6 -7z" />
    <glyph glyph-name="breve.uc" horiz-adv-x="450" 
d="M224 840c67 0 112 35 132 88h8c-7 -51 -35 -131 -141 -131c-102 0 -129 80 -137 131h8c22 -53 63 -88 130 -88z" />
    <glyph glyph-name="dotaccent.uc" horiz-adv-x="450" 
d="M266 868c0 -23 -18 -41 -41 -41c-22 0 -41 18 -41 41s19 41 41 41c23 0 41 -18 41 -41z" />
    <glyph glyph-name="ring.uc" horiz-adv-x="300" 
d="M66 865c0 49 35 85 84 85s84 -36 84 -85s-35 -83 -84 -83s-84 34 -84 83zM94 865c0 -40 19 -66 56 -66s56 26 56 66s-18 68 -56 68s-56 -28 -56 -68z" />
    <glyph glyph-name="tilde.uc" horiz-adv-x="450" 
d="M146 902c65 0 115 -55 173 -55c37 0 52 20 63 65l8 -1c-2 -39 -12 -115 -86 -115c-65 0 -115 55 -173 55c-37 0 -52 -20 -63 -65l-8 1c2 39 12 115 86 115z" />
    <glyph glyph-name="hungarumlaut.uc" horiz-adv-x="449" 
d="M240 789l140 160l40 -52l-175 -115zM47 789l140 160l40 -52l-175 -115z" />
    <glyph glyph-name="Cacute.pl" horiz-adv-x="742" 
d="M692 216l-20 -153c-38 -29 -146 -78 -270 -78c-229 0 -362 169 -362 382s148 380 388 380c96 0 191 -28 240 -50l20 -141l-8 -2c-66 123 -144 173 -256 173c-216 0 -318 -154 -318 -360s96 -362 300 -362c149 0 226 78 278 213zM380 786l64 175l57 -30l-113 -149z" />
    <glyph glyph-name="Nacute.pl" horiz-adv-x="716" 
d="M617 -3l-506 635l4 -494c0 -62 12 -88 70 -136v-2h-143v2c42 48 50 74 50 136v516c-23 33 -51 62 -80 76v2h89l505 -634l-3 496c-1 62 -10 88 -60 136v2h133v-2c-42 -48 -50 -73 -50 -136v-594zM338 786l64 175l57 -30l-113 -149z" />
    <glyph glyph-name="Oacute.pl" horiz-adv-x="811" 
d="M405 -15c-208 0 -365 164 -365 380s157 382 365 382s366 -166 366 -382s-158 -380 -366 -380zM405 5c185 0 300 153 300 360c0 206 -115 362 -300 362s-299 -156 -299 -362s114 -360 299 -360zM378 786l64 175l57 -30l-113 -149z" />
    <glyph glyph-name="Sacute.pl" horiz-adv-x="533" 
d="M428 717l20 -139l-8 -3c-41 119 -109 152 -190 152c-112 0 -157 -66 -157 -134c0 -107 98 -140 198 -183c103 -44 207 -93 207 -227c0 -144 -119 -198 -251 -198c-70 0 -138 15 -192 38l-20 142l8 3c45 -113 109 -163 224 -163c119 0 178 62 178 158
c0 120 -93 159 -191 201c-101 43 -203 85 -203 211c0 113 86 172 215 172c62 0 120 -13 162 -30zM236 786l64 175l57 -30l-113 -149z" />
    <glyph glyph-name="Zacute.pl" horiz-adv-x="608" 
d="M529 0h-499v11l465 705l-263 -8c-71 -2 -121 -59 -171 -151l-8 3l47 172h464v-11l-464 -706l299 9c67 2 120 56 171 157l8 -3zM303 786l64 175l57 -30l-113 -149z" />
    <glyph glyph-name="acute.pl" horiz-adv-x="300" 
d="M104 546l63 203l55 -22l-112 -184z" />
    <glyph glyph-name="acute.ucpl" horiz-adv-x="300" 
d="M134 786l64 175l57 -30l-113 -149z" />
    <glyph glyph-name="cacute.pl" 
d="M438 113l5 -2c-25 -75 -95 -126 -187 -126c-126 0 -216 93 -216 239c0 167 118 266 251 266c63 0 110 -22 134 -33l7 -94l-6 -2c-44 75 -81 111 -152 111c-107 0 -179 -81 -179 -221c0 -127 60 -220 178 -220c61 0 131 25 165 82zM230 546l63 203l55 -22l-112 -184z" />
    <glyph glyph-name="divide.osf" horiz-adv-x="546" 
d="M494 233h-442v20h442v-20zM273 29c-25 0 -47 21 -47 47s22 47 47 47c26 0 47 -21 47 -47s-21 -47 -47 -47zM273 363c-25 0 -47 21 -47 47s22 47 47 47c26 0 47 -21 47 -47s-21 -47 -47 -47z" />
    <glyph glyph-name="eight.osf" horiz-adv-x="462" 
d="M232 -10c-116 0 -195 78 -195 177c0 98 77 168 160 202c-74 48 -140 101 -140 198c0 105 78 180 179 180c98 0 174 -75 174 -170c0 -71 -42 -143 -135 -186c78 -51 150 -114 150 -220c0 -116 -91 -181 -193 -181zM254 404c3 -2 7 -4 10 -7c87 53 99 125 99 177
c0 93 -46 154 -130 154c-82 0 -133 -59 -133 -136c0 -93 76 -137 154 -188zM232 9c87 0 140 63 140 147c0 100 -73 148 -149 196c-5 3 -10 6 -15 10c-74 -45 -119 -96 -119 -189c0 -95 47 -164 143 -164z" />
    <glyph glyph-name="equal.osf" horiz-adv-x="532" 
d="M487 314h-442v20h442v-20zM487 172h-442v20h442v-20z" />
    <glyph glyph-name="f.short" horiz-adv-x="291" 
d="M76 0v2c17 26 24 61 24 137v318h-63v18h63v99c0 129 42 205 117 205c26 0 48 -9 57 -14l12 -80l-6 -2c-37 53 -54 76 -78 76c-34 0 -52 -48 -52 -141v-143h118v-18h-118v-318c0 -75 8 -111 23 -137v-2h-97z" />
    <glyph glyph-name="f_f.short" horiz-adv-x="531" 
d="M76 0v2c17 26 24 61 24 137v318h-63v18h63v79c0 129 53 205 145 205c28 0 50 -7 59 -14l12 -80l-6 -2c-37 53 -55 76 -88 76c-41 0 -72 -48 -72 -141v-123h190v99c0 129 42 205 117 205c26 0 48 -9 57 -14l12 -80l-6 -2c-37 53 -54 76 -78 76c-34 0 -52 -48 -52 -141
v-143h118v-18h-118v-318c0 -75 8 -111 23 -137v-2h-97v2c17 26 24 61 24 137v318h-190v-318c0 -75 8 -111 23 -137v-2h-97z" />
    <glyph glyph-name="five.osf" horiz-adv-x="429" 
d="M150 -245c-75 0 -131 33 -149 50l-21 137l8 2c49 -116 90 -170 170 -170c96 0 144 77 144 175c0 133 -77 227 -227 271l113 277h250l-17 -50h-232l-74 -181c140 -40 237 -137 237 -289c0 -123 -73 -222 -202 -222z" />
    <glyph glyph-name="four.osf" horiz-adv-x="466" 
d="M292 -195v195h-285v10l333 485h8v-455h100l-7 -40h-93v-195h-56zM292 40v350l-237 -350h237z" />
    <glyph glyph-name="four.osfalt" horiz-adv-x="466" 
d="M292 -195v195h-285v10l308 467h82l-365 -455h260v158h56v-158h101l-4 -22h-97v-195h-56z" />
    <glyph glyph-name="greater.osf" horiz-adv-x="530" 
d="M485 228l-430 -208v25l409 196l-409 196v25l430 -208v-26z" />
    <glyph glyph-name="less.osf" horiz-adv-x="530" 
d="M475 20l-430 208v26l430 208v-25l-409 -196l409 -196v-25z" />
    <glyph glyph-name="minus.osf" horiz-adv-x="532" 
d="M487 233h-442v20h442v-20z" />
    <glyph glyph-name="multiply.osf" horiz-adv-x="472" 
d="M406 57l-170 170l-170 -170l-15 15l170 170l-170 170l15 15l170 -170l170 170l15 -15l-170 -170l170 -170z" />
    <glyph glyph-name="nacute.pl" horiz-adv-x="517" 
d="M148 2v-2h-94v2c19 34 22 64 22 117v247c0 38 -22 61 -44 75v2l90 52v-91l4 -1c51 60 116 87 180 87c93 0 140 -56 140 -146v-224c0 -55 1 -84 22 -118v-2h-94v2c19 34 22 67 22 117v214c0 66 -28 118 -112 118c-53 0 -115 -19 -158 -66v-265c0 -53 1 -84 22 -118z
M249 546l63 203l55 -22l-112 -184z" />
    <glyph glyph-name="nine.osf" horiz-adv-x="511" 
d="M252 507c135 0 222 -131 222 -284c0 -172 -119 -382 -425 -478l-3 8c171 62 277 178 329 302c-29 -28 -71 -50 -128 -50c-139 0 -210 116 -210 248c0 131 95 254 215 254zM253 488c-102 0 -156 -98 -156 -244c0 -155 60 -221 157 -221c49 0 95 17 129 53
c21 58 31 117 31 173c0 118 -42 239 -161 239z" />
    <glyph glyph-name="oacute.pl" horiz-adv-x="562" 
d="M281 -15c-134 0 -246 111 -246 252s112 253 246 253s246 -112 246 -253s-112 -252 -246 -252zM281 3c122 0 184 104 184 234s-63 235 -184 235s-184 -105 -184 -235s62 -234 184 -234zM264 546l63 203l55 -22l-112 -184z" />
    <glyph glyph-name="one.osf" horiz-adv-x="246" 
d="M194 0h-140v2c33 36 42 50 42 112v315h-84v11l136 67h2v-393c0 -63 11 -76 44 -112v-2z" />
    <glyph glyph-name="plus.osf" horiz-adv-x="532" 
d="M487 233h-210v-210h-22v210h-210v20h210v210h22v-210h210v-20z" />
    <glyph glyph-name="sacute.pl" horiz-adv-x="375" 
d="M313 472l10 -89l-8 -2c-37 72 -78 91 -127 91c-62 0 -107 -35 -107 -88c0 -63 57 -83 127 -110s142 -59 142 -152c0 -84 -61 -137 -176 -137c-64 0 -105 16 -132 29l-10 102l8 2c33 -80 78 -115 148 -115c80 0 121 46 121 102c0 67 -60 92 -126 117s-143 56 -143 143
c0 93 84 125 165 125c41 0 81 -8 108 -18zM167 546l63 203l55 -22l-112 -184z" />
    <glyph glyph-name="seven.osf" horiz-adv-x="432" 
d="M82 -245h-60c109 298 252 510 373 692h-347l12 50h372v-10c-120 -195 -249 -422 -350 -732z" />
    <glyph glyph-name="six.osf" horiz-adv-x="511" 
d="M259 -10c-135 0 -222 131 -222 284c0 172 119 382 425 478l3 -8c-171 -62 -277 -178 -329 -302c29 28 71 50 128 50c139 0 210 -116 210 -248c0 -131 -95 -254 -215 -254zM258 9c102 0 156 98 156 244c0 155 -60 221 -157 221c-49 0 -95 -17 -129 -53
c-21 -58 -31 -117 -31 -173c0 -118 42 -239 161 -239z" />
    <glyph glyph-name="three.osf" horiz-adv-x="438" 
d="M183 -245c-68 0 -128 24 -155 51l-18 136l8 2c48 -108 91 -170 179 -170c97 0 145 72 145 158c0 124 -89 196 -209 216v5c124 38 199 114 199 210c0 75 -41 125 -106 125c-67 0 -109 -56 -154 -133l-7 2l17 118c21 11 83 32 144 32c103 0 160 -60 160 -139
s-52 -149 -156 -190c92 -28 165 -104 165 -217c0 -122 -87 -206 -212 -206z" />
    <glyph glyph-name="three.osfalt" horiz-adv-x="438" 
d="M183 -245c-68 0 -128 24 -155 51l-18 136l8 2c48 -108 91 -170 179 -170c97 0 145 72 145 158c0 124 -89 196 -209 216v5c154 48 191 120 191 192c0 74 -40 126 -122 126c-40 0 -84 -12 -118 -39l-5 6c41 41 93 69 157 69c96 0 150 -62 150 -141
c0 -75 -48 -143 -150 -190c88 -29 159 -105 159 -215c0 -122 -87 -206 -212 -206z" />
    <glyph glyph-name="two.osf" horiz-adv-x="453" 
d="M380 0h-350v8c214 122 285 236 285 344c0 88 -50 136 -116 136c-61 0 -105 -43 -147 -136l-7 2l22 120c26 15 73 33 134 33c118 0 174 -67 174 -153c0 -113 -88 -212 -248 -304h193c59 0 77 17 102 60l6 -3z" />
    <glyph glyph-name="two.osfalt" horiz-adv-x="453" 
d="M380 0h-350v8c214 122 283 236 283 331c0 80 -48 132 -138 132c-45 0 -89 -12 -123 -39l-5 6c41 41 97 69 164 69c104 0 164 -66 164 -156c0 -111 -90 -208 -253 -301h198c59 0 77 17 102 60l6 -3z" />
    <glyph glyph-name="uni0192" unicode="&#x192;" horiz-adv-x="500" 
d="M21 -190c-27 0 -55 8 -67 14l-14 101l8 2c28 -53 50 -97 87 -97c43 0 72 60 98 179l78 358h-83l5 20h82l27 122c32 149 83 238 171 238c27 0 55 -8 67 -14l7 -121l-8 -2c-26 64 -45 117 -81 117c-41 0 -70 -57 -96 -176l-36 -164h108l-4 -20h-108l-70 -319
c-33 -149 -83 -238 -171 -238z" />
    <glyph glyph-name="uni0237" unicode="&#x237;" horiz-adv-x="217" 
d="M16 -243l-2 5c44 24 65 52 65 140v465c0 37 -22 60 -44 74v2l94 52l-2 -579c0 -107 -35 -150 -111 -159z" />
    <glyph glyph-name="zacute.pl" horiz-adv-x="412" 
d="M347 0h-327v7l298 451l-152 -4c-50 -1 -72 -34 -112 -82l-5 2l33 101h299v-8l-297 -450l168 3c60 1 82 32 125 92l5 -2zM203 546l63 203l55 -22l-112 -184z" />
    <glyph glyph-name="zero.osf" horiz-adv-x="521" 
d="M260 -10c-123 0 -224 121 -223 258s102 259 223 259c123 0 224 -122 224 -259s-101 -258 -224 -258zM260 9c114 0 159 116 159 239s-46 240 -159 240s-158 -117 -158 -240s44 -239 158 -239z" />
    <glyph glyph-name="A" unicode="A" horiz-adv-x="625" 
d="M432 296l-134 378l-135 -378h269zM117 2v-2h-112v2c37 36 44 54 68 119l226 620h27l229 -629c27 -74 32 -85 65 -110v-2h-125v2c13 18 24 51 2 112l-58 162h-284l-57 -160c-23 -63 -3 -94 19 -114z" />
    </font>
</defs>
</svg>
