<?xml version="1.0" standalone="no"?>
<!DOCTYPE svg PUBLIC "-//W3C//DTD SVG 1.1//EN" "http://www.w3.org/Graphics/SVG/1.1/DTD/svg11.dtd" >
<svg xmlns="http://www.w3.org/2000/svg" xmlns:xlink="http://www.w3.org/1999/xlink" version="1.1">
<metadata>
Created by FontForge 20190801 at Wed Nov  5 17:00:16 2014
 By Jimmy Wärting
Copyright (c) 2014 Monotype ITC Inc. All rights reserved.
</metadata>
<defs>
<font id="FranklinGothicLTPro-BkCm" horiz-adv-x="392" >
  <font-face 
    font-family="ITCFranklinGothic LT Pro BkCm"
    font-weight="400"
    font-stretch="condensed"
    units-per-em="1000"
    panose-1="2 11 5 8 3 5 3 2 2 4"
    ascent="686"
    descent="-314"
    x-height="493"
    cap-height="667"
    bbox="-120 -250 800 877"
    underline-thickness="50"
    underline-position="-125"
    stemh="65"
    stemv="76"
    unicode-range="U+000D-FB02"
  />
<missing-glyph horiz-adv-x="500" 
d="M0 700h500v-700h-500v700zM80 650l170 -255l170 255h-340zM50 605v-510l170 255zM450 95v510l-170 -255zM420 50l-170 255l-170 -255h340z" />
    <glyph glyph-name="IJ" unicode="IJ" horiz-adv-x="477" 
d="M64 667h76v-667h-76v667zM349 667h76v-442c0 -29 -1 -64 -3 -105c-4 -83 -56 -132 -135 -132c-25 0 -53 3 -78 12v60c24 -5 35 -7 58 -7c24 0 41 4 52 11c23 14 30 47 30 146v457z" />
    <glyph glyph-name="ij" unicode="ij" horiz-adv-x="368" 
d="M56 667h75v-85h-75v85zM59 493h69v-493h-69v493zM237 667h75v-85h-75v85zM240 493h69v-517c0 -45 -4 -77 -11 -96c-14 -40 -39 -54 -115 -54h-30v64h38c41 0 49 13 49 88v515z" />
    <glyph glyph-name="napostrophe" unicode="&#x22;n" horiz-adv-x="417" 
d="M61 478h-44l17 190h66zM364 0h-69v330c0 84 -20 111 -62 111c-53 0 -80 -56 -80 -152v-289h-69v493h63v-75c24 59 60 87 109 87c26 0 45 -7 62 -18c29 -20 46 -51 46 -140v-347z" />
    <glyph glyph-name="fi" unicode="fi" 
d="M180 679c10 0 25 -2 39 -5v-60c-15 4 -23 6 -31 6c-55 0 -55 -52 -55 -92v-35h78v-57h-78v-436h-69v436h-62v57h62v57c0 69 15 129 116 129zM261 667h75v-85h-75v85zM264 493h69v-493h-69v493z" />
    <glyph glyph-name="fl" unicode="fl" 
d="M264 667h69v-667h-69v667zM180 679c10 0 25 -2 39 -5v-60c-15 4 -23 6 -31 6c-55 0 -55 -52 -55 -92v-35h78v-57h-78v-436h-69v436h-62v57h62v57c0 69 15 129 116 129z" />
    <glyph glyph-name=".notdef" horiz-adv-x="500" 
d="M0 700h500v-700h-500v700zM80 650l170 -255l170 255h-340zM50 605v-510l170 255zM450 95v510l-170 -255zM420 50l-170 255l-170 -255h340z" />
    <glyph glyph-name="NULL" horiz-adv-x="0" 
 />
    <glyph glyph-name="CR" unicode="&#xd;" horiz-adv-x="213" 
 />
    <glyph glyph-name="space" unicode=" " horiz-adv-x="213" 
 />
    <glyph glyph-name="exclam" unicode="!" horiz-adv-x="273" 
d="M92 667h89l-24 -501h-43zM94 106h83v-106h-83v106z" />
    <glyph glyph-name="quotedbl" unicode="&#x22;" horiz-adv-x="324" 
d="M60 667h69l-8 -258h-53zM196 667h69l-8 -258h-53z" />
    <glyph glyph-name="numbersign" unicode="#" horiz-adv-x="426" 
d="M131 470l31 197h60l-31 -197h88l31 197h60l-32 -197h87l-9 -56h-86l-24 -146h88l-9 -56h-87l-34 -212h-60l34 212h-88l-34 -212h-59l33 212h-89l8 56h90l23 146h-90l9 56h90zM270 414h-88l-23 -146h88z" />
    <glyph glyph-name="dollar" unicode="$" horiz-adv-x="426" 
d="M186 655v66h47v-65c73 -11 112 -41 140 -124l-59 -22c-16 43 -36 77 -81 87v-219c105 -39 144 -90 144 -174c0 -95 -51 -174 -144 -183v-85h-47v84c-83 7 -136 58 -156 149l62 22c11 -59 37 -98 94 -109v235c-93 35 -131 82 -131 167c0 83 46 163 131 171zM121 498
c0 -45 14 -80 65 -105v204c-45 -11 -65 -46 -65 -99zM233 302v-221c51 9 78 46 78 106c0 53 -17 88 -78 115z" />
    <glyph glyph-name="percent" unicode="%" horiz-adv-x="545" 
d="M142 674c75 0 112 -66 112 -175c0 -108 -40 -172 -112 -172s-112 69 -112 177c0 107 39 170 112 170zM105 0l285 667h49l-285 -667h-49zM94 507c0 -85 10 -128 49 -128c49 0 47 59 47 127c0 87 -14 118 -47 118c-35 0 -49 -36 -49 -117zM403 342c73 0 112 -64 112 -175
c0 -108 -39 -172 -112 -172c-75 0 -112 72 -112 177c0 112 40 170 112 170zM355 175c0 -85 10 -128 49 -128c49 0 47 59 47 127c0 87 -14 118 -47 118c-35 0 -49 -36 -49 -117z" />
    <glyph glyph-name="ampersand" unicode="&#x26;" horiz-adv-x="460" 
d="M220 679c68 0 119 -51 119 -142c0 -71 -35 -128 -108 -172c53 -109 88 -183 103 -208c26 52 43 101 55 209l58 -17c-8 -101 -38 -195 -79 -254c16 -24 37 -35 61 -35c9 0 13 1 25 5v-65c-17 -7 -26 -9 -46 -9c-37 0 -55 9 -83 50c-35 -35 -80 -53 -128 -53
c-103 0 -167 83 -167 196c0 96 47 161 119 202c-30 56 -47 108 -47 151c0 76 43 142 118 142zM169 544c0 -33 9 -69 38 -128c48 31 68 70 68 123c0 48 -17 82 -50 82s-56 -29 -56 -77zM103 186c0 -80 38 -137 101 -137c32 0 60 13 89 43c-48 93 -87 169 -120 242
c-53 -45 -70 -91 -70 -148z" />
    <glyph glyph-name="quotesingle" unicode="'" horiz-adv-x="187" 
d="M59 667h69l-8 -258h-53z" />
    <glyph glyph-name="parenleft" unicode="(" horiz-adv-x="255" 
d="M170 667h57c-67 -115 -105 -262 -105 -417c0 -160 40 -302 105 -417h-57c-80 121 -124 272 -124 417c0 149 44 292 124 417z" />
    <glyph glyph-name="parenright" unicode=")" horiz-adv-x="255" 
d="M29 667h57c83 -129 124 -274 124 -417c0 -145 -44 -296 -124 -417h-57c72 128 105 270 105 417c0 149 -36 296 -105 417z" />
    <glyph glyph-name="asterisk" unicode="*" horiz-adv-x="426" 
d="M191 529l-8 138h59l-9 -139l95 66l30 -53l-104 -48l105 -50l-29 -53l-96 65l8 -140h-59l8 140l-95 -65l-30 53l105 50l-104 48l30 53z" />
    <glyph glyph-name="plus" unicode="+" horiz-adv-x="426" 
d="M180 509h65v-145h144v-61h-144v-145h-65v145h-143v61h143v145z" />
    <glyph glyph-name="comma" unicode="," horiz-adv-x="204" 
d="M60 108h86v-108l-56 -125h-42l47 125h-35v108z" />
    <glyph glyph-name="hyphen" unicode="-" horiz-adv-x="239" 
d="M34 282h170v-60h-170v60z" />
    <glyph glyph-name="period" unicode="." horiz-adv-x="204" 
d="M59 108h87v-108h-87v108z" />
    <glyph glyph-name="slash" unicode="/" 
d="M-5 -167l287 834h60l-287 -834h-60z" />
    <glyph glyph-name="zero" unicode="0" horiz-adv-x="426" 
d="M213 679c131 0 183 -136 183 -353c0 -223 -64 -338 -183 -338s-183 114 -183 346s58 345 183 345zM107 353c0 -207 25 -304 108 -304c67 0 104 73 104 256c0 187 -21 313 -113 313c-83 0 -99 -101 -99 -265z" />
    <glyph glyph-name="one" unicode="1" horiz-adv-x="426" 
d="M209 674h54v-615h100v-59h-281v59h106v504c-28 -41 -60 -69 -111 -97v75c44 25 96 74 132 133z" />
    <glyph glyph-name="two" unicode="2" horiz-adv-x="426" 
d="M215 679c99 0 164 -74 164 -190c0 -48 -12 -97 -33 -144c-42 -94 -148 -209 -229 -275h262v-70h-343v70c188 179 266 293 266 411c0 81 -37 133 -93 133c-60 0 -96 -50 -105 -147l-68 19c15 128 86 193 179 193z" />
    <glyph glyph-name="three" unicode="3" horiz-adv-x="426" 
d="M217 679c99 0 160 -78 160 -179c0 -77 -30 -128 -93 -148c71 -19 112 -80 112 -167c0 -129 -87 -197 -191 -197c-92 0 -164 54 -175 161l65 20c11 -81 48 -120 116 -120c71 0 108 57 108 133c0 61 -32 134 -120 134h-51v62h52c91 0 102 65 102 111c0 84 -32 129 -91 129
c-50 0 -84 -28 -102 -109l-61 18c15 97 77 152 169 152z" />
    <glyph glyph-name="four" unicode="4" horiz-adv-x="426" 
d="M239 679h91v-456h72v-61h-72v-162h-72v162h-230v61zM262 612l-165 -389h161z" />
    <glyph glyph-name="five" unicode="5" horiz-adv-x="426" 
d="M70 667h286l-5 -69h-219l-8 -214c19 41 54 64 106 64c103 0 158 -81 158 -236c0 -144 -79 -224 -183 -224c-93 0 -148 48 -170 156l62 20c19 -80 56 -115 109 -115c67 0 105 57 105 169c0 108 -31 164 -95 164c-48 0 -77 -21 -105 -89l-55 13z" />
    <glyph glyph-name="six" unicode="6" horiz-adv-x="426" 
d="M235 679c76 0 127 -44 154 -136l-65 -21c-19 69 -45 92 -89 92c-81 0 -117 -91 -124 -281c22 70 66 102 125 102c95 0 160 -82 160 -217c0 -145 -69 -230 -173 -230c-119 0 -184 107 -184 324c0 232 69 367 196 367zM125 210c0 -92 38 -156 102 -156c61 0 95 49 95 159
c0 105 -34 161 -95 161c-64 0 -102 -68 -102 -164z" />
    <glyph glyph-name="seven" unicode="7" horiz-adv-x="426" 
d="M61 667h317v-50c-41 -68 -72 -133 -93 -192c-41 -114 -74 -265 -74 -391v-34h-78c0 200 71 453 178 597h-256z" />
    <glyph glyph-name="eight" unicode="8" horiz-adv-x="426" 
d="M219 679c96 0 159 -66 159 -165c0 -72 -31 -124 -102 -160c89 -42 124 -101 124 -181c0 -103 -66 -185 -188 -185c-116 0 -186 71 -186 179c0 72 25 127 121 181c-65 28 -96 93 -96 158c0 97 66 173 168 173zM123 512c0 -57 25 -102 92 -129c75 36 98 73 98 130
c0 69 -34 108 -97 108c-57 0 -93 -42 -93 -109zM101 172c0 -75 44 -123 113 -123c68 0 114 45 114 118c0 61 -26 107 -122 147c-76 -27 -105 -75 -105 -142z" />
    <glyph glyph-name="nine" unicode="9" horiz-adv-x="426" 
d="M207 679c113 0 176 -100 176 -318c0 -255 -65 -373 -195 -373c-84 0 -133 42 -149 131l63 20c12 -61 42 -84 89 -84c79 0 117 80 120 277c-27 -69 -65 -98 -124 -98c-100 0 -158 100 -158 219c0 117 60 226 178 226zM103 455c0 -101 35 -156 96 -156c60 0 101 61 101 156
s-34 157 -99 157c-60 0 -98 -60 -98 -157z" />
    <glyph glyph-name="colon" unicode=":" horiz-adv-x="204" 
d="M59 493h87v-108h-87v108zM59 108h87v-108h-87v108z" />
    <glyph glyph-name="semicolon" unicode=";" horiz-adv-x="204" 
d="M60 493h87v-108h-87v108zM60 108h86v-108l-56 -125h-42l47 125h-35v108z" />
    <glyph glyph-name="less" unicode="&#x3c;" horiz-adv-x="426" 
d="M396 569v-70l-291 -163l291 -162v-70l-366 202v61z" />
    <glyph glyph-name="equal" unicode="=" horiz-adv-x="426" 
d="M37 422h352v-61h-352v61zM37 306h352v-61h-352v61z" />
    <glyph glyph-name="greater" unicode="&#x3e;" horiz-adv-x="426" 
d="M30 569l366 -202v-61l-366 -202v70l291 162l-291 163v70z" />
    <glyph glyph-name="question" unicode="?" horiz-adv-x="409" 
d="M204 679c96 0 158 -69 158 -174c0 -73 -31 -129 -88 -182c-48 -45 -58 -63 -58 -124v-33h-68v25c0 73 2 103 59 161c65 65 78 95 78 150c0 72 -34 116 -85 116c-57 0 -91 -43 -100 -150l-65 16c12 132 73 195 169 195zM140 106h83v-106h-83v106z" />
    <glyph glyph-name="at" unicode="@" horiz-adv-x="562" 
d="M299 680c142 0 226 -121 226 -291c0 -132 -45 -252 -124 -252c-35 0 -58 21 -67 58c-11 -43 -35 -61 -74 -61c-63 0 -98 61 -98 160c0 123 50 220 125 220c37 0 61 -21 69 -70l9 62h51l-31 -214c-3 -23 -6 -52 -6 -64c0 -24 13 -35 25 -35c44 1 65 92 65 188
c0 155 -69 252 -175 252c-122 0 -201 -139 -201 -304c0 -172 83 -295 218 -295c47 0 88 12 129 37l19 -43c-53 -29 -97 -42 -153 -42c-164 0 -274 131 -274 337c0 165 73 357 267 357zM228 285c0 -61 13 -92 41 -92c47 0 60 113 60 185c0 56 -13 77 -38 77
c-43 0 -63 -81 -63 -170z" />
    <glyph glyph-name="A" unicode="A" horiz-adv-x="375" 
d="M149 667h79l150 -667h-78l-42 193h-149l-41 -193h-72zM185 587l-63 -332h124z" />
    <glyph glyph-name="B" unicode="B" horiz-adv-x="426" 
d="M64 667h157c131 0 163 -96 163 -167c0 -67 -24 -130 -83 -145c72 -24 105 -83 105 -170c0 -41 -8 -79 -23 -109c-31 -61 -68 -76 -172 -76h-147v667zM140 380h66c76 0 103 31 103 111c0 78 -38 111 -98 111h-71v-222zM140 65h80c85 0 109 46 109 129
c0 79 -31 124 -117 124h-72v-253z" />
    <glyph glyph-name="C" unicode="C" horiz-adv-x="409" 
d="M232 679c84 0 148 -39 170 -185l-69 -16c-15 107 -48 136 -96 136c-79 0 -116 -96 -116 -287c0 -162 29 -274 114 -274c53 0 82 34 98 130l69 -12c-28 -145 -87 -183 -169 -183c-136 0 -192 131 -192 333c0 195 55 358 191 358z" />
    <glyph glyph-name="D" unicode="D" horiz-adv-x="477" 
d="M64 667h116c66 0 116 -13 151 -39c70 -52 105 -169 105 -289c0 -87 -19 -168 -55 -235c-37 -69 -95 -104 -193 -104h-124v667zM140 602v-537h60c47 0 91 24 115 68c29 53 42 139 41 202c-3 200 -61 267 -173 267h-43z" />
    <glyph glyph-name="E" unicode="E" horiz-adv-x="375" 
d="M64 667h305v-65h-229v-223h177v-65h-177v-249h235v-65h-311v667z" />
    <glyph glyph-name="F" unicode="F" horiz-adv-x="341" 
d="M64 667h295v-65h-219v-226h179v-65h-179v-311h-76v667z" />
    <glyph glyph-name="G" unicode="G" horiz-adv-x="460" 
d="M249 679c92 1 148 -50 169 -175l-65 -23c-20 104 -55 133 -108 133c-87 0 -124 -84 -124 -296c0 -196 44 -270 121 -270c51 0 114 39 114 178v40h-110v65h179v-340h-48l-14 84c-31 -68 -76 -87 -131 -87c-132 0 -191 102 -191 346c0 262 93 344 208 345z" />
    <glyph glyph-name="H" unicode="H" horiz-adv-x="477" 
d="M64 667h76v-283h197v283h76v-667h-76v319h-197v-319h-76v667z" />
    <glyph glyph-name="I" unicode="I" horiz-adv-x="204" 
d="M64 667h76v-667h-76v667z" />
    <glyph glyph-name="J" unicode="J" horiz-adv-x="272" 
d="M144 667h76v-442c0 -29 -1 -64 -3 -105c-4 -83 -56 -132 -135 -132c-25 0 -53 3 -78 12v60c24 -5 35 -7 58 -7c24 0 41 4 52 11c23 14 30 47 30 146v457z" />
    <glyph glyph-name="K" unicode="K" horiz-adv-x="426" 
d="M64 667h76v-335l186 335h82l-145 -243l181 -424h-86l-140 350l-78 -129v-221h-76v667z" />
    <glyph glyph-name="L" unicode="L" horiz-adv-x="341" 
d="M64 667h76v-602h208v-65h-284v667z" />
    <glyph glyph-name="M" unicode="M" horiz-adv-x="596" 
d="M64 667h101l133 -542l135 542h99v-667h-74l6 569l-141 -569h-57l-140 572l6 -572h-68v667z" />
    <glyph glyph-name="N" unicode="N" horiz-adv-x="494" 
d="M64 667h91l211 -522l-4 522h68v-667h-74l-228 571l4 -571h-68v667z" />
    <glyph glyph-name="O" unicode="O" horiz-adv-x="477" 
d="M238 679c129 0 198 -110 198 -341c0 -89 -11 -176 -44 -247s-82 -103 -154 -103c-131 0 -197 106 -197 341c0 227 68 350 197 350zM120 344c0 -197 34 -291 118 -291c80 0 118 83 118 280s-36 281 -119 281c-77 0 -117 -83 -117 -270z" />
    <glyph glyph-name="P" unicode="P" 
d="M64 667h129c51 0 89 -7 114 -21c49 -28 82 -88 82 -179c0 -125 -67 -196 -180 -196h-69v-271h-76v667zM140 336h66c76 0 106 42 106 131c0 85 -33 135 -104 135h-68v-266z" />
    <glyph glyph-name="Q" unicode="Q" horiz-adv-x="477" 
d="M239 679c129 0 197 -113 197 -341c0 -191 -50 -313 -145 -344c-1 -3 -1 -6 -1 -26c1 -55 29 -63 56 -63c19 0 33 6 52 13v-63c-25 -9 -36 -12 -61 -12c-80 0 -118 41 -118 137v8c-137 11 -178 154 -178 342c0 230 69 349 198 349zM120 342c0 -196 33 -290 118 -290
c80 0 118 82 118 281c0 197 -36 281 -119 281c-77 0 -117 -84 -117 -272z" />
    <glyph glyph-name="R" unicode="R" horiz-adv-x="426" 
d="M64 667h156c52 0 79 -8 100 -20c44 -26 79 -84 79 -162c0 -89 -29 -156 -92 -178l107 -307h-81l-98 292h-95v-292h-76v667zM140 357h82c71 0 100 55 100 124c0 19 -4 65 -32 95c-15 16 -36 26 -75 26h-75v-245z" />
    <glyph glyph-name="S" unicode="S" horiz-adv-x="409" 
d="M204 679c89 0 151 -53 175 -162l-69 -17c-17 79 -53 114 -108 114c-59 0 -92 -47 -92 -111c0 -54 23 -81 104 -119c120 -57 175 -94 175 -207c0 -121 -83 -189 -181 -189c-105 0 -177 64 -194 180l71 18c10 -72 49 -133 124 -133c65 0 103 46 103 119c0 31 -6 53 -18 72
c-23 36 -76 52 -131 82c-92 50 -126 82 -126 173c0 109 72 180 167 180z" />
    <glyph glyph-name="T" unicode="T" horiz-adv-x="324" 
d="M-5 667h334v-65h-129v-602h-76v602h-129v65z" />
    <glyph glyph-name="U" unicode="U" horiz-adv-x="443" 
d="M52 667h76v-476c0 -100 20 -138 92 -138c73 0 98 41 98 140v474h73v-476c0 -150 -62 -203 -172 -203c-126 0 -167 60 -167 193v486z" />
    <glyph glyph-name="V" unicode="V" horiz-adv-x="375" 
d="M-5 667h81l114 -566l113 566h77l-151 -667h-82z" />
    <glyph glyph-name="W" unicode="W" horiz-adv-x="579" 
d="M6 667h76l84 -527l95 527h63l104 -527l78 527h68l-111 -667h-75l-97 513l-95 -513h-72z" />
    <glyph glyph-name="X" unicode="X" horiz-adv-x="375" 
d="M18 667h82l89 -240l93 240h74l-130 -307l148 -360h-86l-106 277l-107 -277h-75l146 348z" />
    <glyph glyph-name="Y" unicode="Y" horiz-adv-x="358" 
d="M-11 667h79l116 -309l114 309h71l-152 -385v-282h-76v282z" />
    <glyph glyph-name="Z" unicode="Z" horiz-adv-x="375" 
d="M30 667h321v-53l-252 -546h258v-68h-339v68l248 534h-236v65z" />
    <glyph glyph-name="bracketleft" unicode="[" horiz-adv-x="273" 
d="M96 667h131v-52h-61v-730h61v-52h-131v834z" />
    <glyph glyph-name="backslash" unicode="\" 
d="M326 -167l-287 834h60l287 -834h-60z" />
    <glyph glyph-name="bracketright" unicode="]" horiz-adv-x="273" 
d="M46 667h131v-834h-131v52h61v730h-61v52z" />
    <glyph glyph-name="asciicircum" unicode="^" horiz-adv-x="426" 
d="M179 667h77l180 -369h-77l-146 299l-146 -299h-77z" />
    <glyph glyph-name="underscore" unicode="_" horiz-adv-x="500" 
d="M0 -75h500v-50h-500v50z" />
    <glyph glyph-name="grave" unicode="`" horiz-adv-x="460" 
d="M154 710l136 -128l-28 -32l-153 104z" />
    <glyph glyph-name="a" unicode="a" 
d="M201 505c34 0 63 -7 84 -20c45 -27 55 -60 55 -164v-219c0 -29 0 -66 7 -102h-62c-8 25 -10 41 -10 72c-23 -61 -56 -84 -112 -84c-81 0 -129 55 -129 146c0 106 66 171 190 171c19 0 34 0 45 -1v12c0 76 -1 132 -74 132c-59 0 -74 -40 -85 -93l-63 17
c19 93 73 133 154 133zM108 134c0 -56 22 -87 65 -87c53 0 96 45 96 175v28h-37c-91 0 -124 -40 -124 -116z" />
    <glyph glyph-name="b" unicode="b" horiz-adv-x="409" 
d="M59 667h69v-244c20 53 54 79 102 79c92 0 145 -78 145 -250c0 -175 -58 -261 -155 -261c-56 0 -90 28 -107 69l-17 -60h-37v667zM299 250c0 140 -24 193 -84 193c-56 0 -87 -64 -87 -164v-103c0 -89 38 -129 80 -129c60 0 91 60 91 203z" />
    <glyph glyph-name="c" unicode="c" horiz-adv-x="358" 
d="M193 505c83 0 133 -55 145 -160l-65 -12c-9 77 -34 113 -81 113c-60 0 -82 -52 -82 -200c0 -114 7 -199 82 -199c45 0 72 33 81 113l65 -8c-15 -112 -58 -164 -146 -164c-105 0 -158 75 -158 247c0 191 56 270 159 270z" />
    <glyph glyph-name="d" unicode="d" horiz-adv-x="409" 
d="M281 667h69v-667h-60v64c-25 -57 -64 -73 -109 -73c-96 0 -147 87 -147 247c0 171 61 264 154 264c44 0 74 -20 93 -65v230zM110 252c0 -145 27 -205 88 -205c25 0 83 13 83 128v135c0 80 -30 133 -86 133c-55 0 -85 -54 -85 -191z" />
    <glyph glyph-name="e" unicode="e" horiz-adv-x="375" 
d="M198 505c103 0 158 -80 158 -255v-12h-249v-8c0 -127 35 -183 98 -183c44 0 72 34 85 99l61 -16c-24 -100 -68 -142 -152 -142c-111 0 -165 80 -165 252c0 163 57 265 164 265zM109 295h171c-1 111 -29 151 -84 151c-65 0 -85 -80 -87 -151z" />
    <glyph glyph-name="f" unicode="f" horiz-adv-x="204" 
d="M176 679c12 0 30 -2 53 -5v-60c-23 5 -30 6 -41 6c-63 0 -55 -64 -55 -106v-21h77v-57h-77v-436h-69v436h-62v57h62v27c0 59 3 79 9 96c12 35 39 63 103 63z" />
    <glyph glyph-name="g" unicode="g" horiz-adv-x="358" 
d="M345 569l13 -1v-62h-13c-39 0 -48 -15 -51 -58c24 -35 34 -75 34 -118c0 -99 -56 -164 -144 -164c-17 0 -35 2 -47 9c-20 -7 -35 -24 -35 -48c0 -39 31 -48 124 -54c63 -4 142 -18 142 -119c0 -93 -67 -143 -179 -143c-103 0 -165 49 -165 124c0 45 21 79 64 102
c-31 18 -50 48 -50 84s19 65 58 84c-33 32 -49 76 -49 132c0 100 56 168 140 168c27 0 44 -5 67 -20c2 58 32 86 91 84zM118 334c0 -68 23 -109 70 -109c44 0 67 31 67 112c0 75 -23 109 -68 109s-69 -40 -69 -112zM94 -49c0 -52 37 -81 101 -81c65 0 103 28 103 79
c0 36 -22 55 -67 60s-79 7 -102 9c-25 -17 -35 -38 -35 -67z" />
    <glyph glyph-name="h" unicode="h" 
d="M59 667h69v-241c17 53 49 79 100 79c25 0 47 -7 64 -20c34 -27 47 -53 47 -166v-319h-69v313c0 96 -17 128 -64 128c-63 0 -77 -78 -77 -144v-297h-70v667z" />
    <glyph glyph-name="i" unicode="i" horiz-adv-x="187" 
d="M56 667h75v-85h-75v85zM59 493h69v-493h-69v493z" />
    <glyph glyph-name="j" unicode="j" horiz-adv-x="187" 
d="M56 667h75v-85h-75v85zM59 493h69v-517c0 -45 -4 -77 -11 -96c-14 -40 -39 -54 -115 -54h-30v64h38c41 0 49 13 49 88v515z" />
    <glyph glyph-name="k" unicode="k" horiz-adv-x="358" 
d="M59 667h69v-416l136 242h74l-109 -182l124 -311h-82l-86 241l-57 -89v-152h-69v667z" />
    <glyph glyph-name="l" unicode="l" horiz-adv-x="187" 
d="M59 667h69v-667h-69v667z" />
    <glyph glyph-name="m" unicode="m" horiz-adv-x="596" 
d="M229 505c55 0 87 -32 96 -96c17 67 55 96 107 96c37 0 72 -20 90 -48c22 -35 22 -93 22 -124v-333h-69v327c0 71 -14 114 -63 114c-61 0 -76 -71 -76 -163v-278h-69v317c0 91 -14 124 -59 124c-55 0 -80 -54 -80 -126v-315h-69v493h63v-79c20 63 54 91 107 91z" />
    <glyph glyph-name="n" unicode="n" 
d="M231 505c26 0 45 -7 62 -18c29 -20 46 -51 46 -140v-347h-69v330c0 84 -20 111 -62 111c-53 0 -80 -56 -80 -152v-289h-69v493h63v-75c24 59 60 87 109 87z" />
    <glyph glyph-name="o" unicode="o" 
d="M196 505c107 0 162 -98 162 -263c0 -172 -55 -254 -163 -254c-107 0 -161 87 -161 256c0 160 55 261 162 261zM110 243c0 -137 25 -196 86 -196c60 0 86 60 86 188c0 149 -23 211 -87 211c-61 0 -85 -67 -85 -203z" />
    <glyph glyph-name="p" unicode="p" horiz-adv-x="409" 
d="M230 502c95 0 145 -94 145 -254c0 -164 -51 -257 -148 -257c-47 0 -76 17 -99 59v-217h-69v660h64v-80c19 60 55 89 107 89zM299 244c0 136 -24 199 -85 199c-55 0 -86 -57 -86 -153v-96c0 -99 29 -144 84 -144c64 0 87 55 87 194z" />
    <glyph glyph-name="q" unicode="q" horiz-adv-x="409" 
d="M191 502c52 0 87 -25 103 -74l19 71h37v-666h-69v224c-21 -45 -54 -66 -98 -66c-96 0 -149 84 -149 252c0 161 62 259 157 259zM110 248c0 -133 31 -198 88 -198c51 0 83 50 83 129v158c0 65 -35 106 -82 106c-56 0 -89 -62 -89 -195z" />
    <glyph glyph-name="r" unicode="r" horiz-adv-x="238" 
d="M225 503c9 0 17 -2 21 -3v-77c-4 0 -10 1 -16 1c-96 0 -102 -97 -102 -182v-242h-69v493h63v-98c20 75 55 108 103 108z" />
    <glyph glyph-name="s" unicode="s" horiz-adv-x="324" 
d="M163 505c76 0 122 -41 138 -124l-59 -15c-16 60 -39 80 -78 80c-40 0 -68 -25 -68 -68c0 -36 17 -58 47 -74l81 -43c59 -31 87 -59 87 -127c0 -90 -56 -146 -144 -146c-91 0 -143 49 -155 138l61 16c12 -68 41 -95 93 -95c46 0 74 29 74 76c0 51 -17 65 -101 106
c-81 40 -111 79 -111 142c0 69 44 134 135 134z" />
    <glyph glyph-name="t" unicode="t" horiz-adv-x="238" 
d="M134 625v-132h84v-57h-84v-275c0 -70 6 -96 58 -96c18 0 23 0 39 3v-60c-16 -7 -30 -10 -59 -10c-26 0 -51 6 -66 17c-31 22 -41 59 -41 145v276h-56v57h56v124z" />
    <glyph glyph-name="u" unicode="u" 
d="M52 493h69v-348c0 -74 22 -94 63 -94c56 0 80 52 80 121v321h69v-493h-63v59c-25 -51 -59 -71 -107 -71c-23 0 -49 6 -66 17c-35 22 -45 48 -45 148v340z" />
    <glyph glyph-name="v" unicode="v" horiz-adv-x="307" 
d="M0 493h72l85 -407l82 407h68l-116 -493h-75z" />
    <glyph glyph-name="w" unicode="w" horiz-adv-x="460" 
d="M2 493h70l64 -368l66 368h60l70 -368l66 368h60l-99 -493h-60l-70 365l-64 -365h-62z" />
    <glyph glyph-name="x" unicode="x" horiz-adv-x="307" 
d="M14 493h75l67 -171l63 171h68l-98 -232l115 -261h-73l-80 198l-79 -198h-70l115 260z" />
    <glyph glyph-name="y" unicode="y" horiz-adv-x="290" 
d="M-4 493h71l80 -340l85 340h62l-138 -532c-25 -97 -54 -139 -114 -139c-12 0 -19 1 -39 6v62c12 -4 26 -7 35 -7c16 0 23 4 29 12c12 14 26 69 46 156z" />
    <glyph glyph-name="z" unicode="z" horiz-adv-x="307" 
d="M38 493h246v-40l-185 -394h185v-59h-261v57l178 377h-163v59z" />
    <glyph glyph-name="braceleft" unicode="{" horiz-adv-x="255" 
d="M195 667c7 0 14 -1 21 -1v-51c-53 0 -57 -30 -57 -81v-182c0 -63 -11 -90 -50 -102c45 -18 50 -36 50 -118v-167c0 -67 10 -77 57 -80v-51c-9 -1 -13 -1 -22 -1c-81 0 -104 53 -104 129v184c0 69 -21 70 -46 74v61c34 3 46 15 46 82v172c0 93 36 132 105 132z" />
    <glyph glyph-name="bar" unicode="|" horiz-adv-x="500" 
d="M215 750h70v-1000h-70v1000z" />
    <glyph glyph-name="braceright" unicode="}" horiz-adv-x="255" 
d="M62 667c69 0 105 -39 105 -132v-172c0 -67 12 -79 46 -82v-61c-25 -4 -46 -5 -46 -74v-184c0 -76 -23 -129 -104 -129c-9 0 -13 0 -22 1v51c47 3 57 13 57 80v167c0 82 5 100 50 118c-39 12 -50 39 -50 102v182c0 51 -4 81 -57 81v51c7 0 14 1 21 1z" />
    <glyph glyph-name="asciitilde" unicode="~" horiz-adv-x="426" 
d="M411 406l43 -25c-39 -79 -85 -111 -142 -111c-63 0 -155 67 -208 67c-36 0 -65 -26 -89 -74l-43 27c39 83 80 114 137 114c70 0 150 -67 210 -67c36 0 61 16 92 69z" />
    <glyph glyph-name="Euro" unicode="&#x20ac;" horiz-adv-x="426" 
d="M263 679c83 0 129 -41 156 -152l-68 -16c-16 80 -39 107 -87 107c-60 0 -97 -65 -108 -197h163l-9 -51h-157c-1 -15 -1 -31 -1 -46v-19h147l-9 -51h-136c9 -143 47 -205 106 -205c48 0 82 40 95 113l66 -13c-28 -108 -77 -161 -165 -161c-116 0 -170 85 -179 266h-67
l9 51h56v39c0 8 0 17 1 26h-66l9 51h61c17 167 78 258 183 258z" />
    <glyph glyph-name="quotesinglbase" unicode="&#x201a;" horiz-adv-x="187" 
d="M54 103h89v-96l-58 -121h-42l46 114h-35v103z" />
    <glyph glyph-name="florin" unicode="&#x192;" horiz-adv-x="426" 
d="M341 679c5 0 19 -1 29 -2l-8 -61c-5 1 -11 2 -18 2c-73 0 -84 -60 -99 -170h92l-8 -57h-92l-49 -333c-9 -63 -18 -99 -29 -123c-21 -48 -67 -84 -136 -84c-16 0 -25 1 -40 4l10 65c9 -2 20 -3 31 -3c24 0 38 4 48 12c22 16 32 44 47 146l46 316h-78l9 57h78
c19 132 39 231 167 231z" />
    <glyph glyph-name="quotedblbase" unicode="&#x201e;" horiz-adv-x="324" 
d="M54 103h89v-96l-58 -121h-42l46 114h-35v103zM191 103h89v-96l-58 -121h-42l46 114h-35v103z" />
    <glyph glyph-name="ellipsis" unicode="&#x2026;" horiz-adv-x="613" 
d="M59 108h87v-108h-87v108zM263 108h87v-108h-87v108zM467 108h87v-108h-87v108z" />
    <glyph glyph-name="dagger" unicode="&#x2020;" horiz-adv-x="426" 
d="M179 667h68v-196h120v-64h-120v-574h-68v574h-120v64h120v196z" />
    <glyph glyph-name="daggerdbl" unicode="&#x2021;" horiz-adv-x="426" 
d="M179 667h68v-196h120v-64h-120v-314h120v-64h-120v-196h-68v196h-120v64h120v314h-120v64h120v196z" />
    <glyph glyph-name="circumflex" unicode="&#x2c6;" horiz-adv-x="460" 
d="M98 582l135 117l129 -117l-56 -12l-73 60l-77 -60z" />
    <glyph glyph-name="perthousand" unicode="&#x2030;" horiz-adv-x="801" 
d="M105 0l285 667h49l-285 -667h-49zM403 342c73 0 112 -64 112 -175c0 -108 -39 -172 -112 -172c-75 0 -112 72 -112 177c0 112 40 170 112 170zM355 176c0 -89 12 -129 52 -129c42 0 44 63 44 114c0 95 -10 131 -48 131c-33 0 -48 -33 -48 -116zM142 674
c75 0 112 -66 112 -175c0 -108 -40 -172 -112 -172s-112 69 -112 177c0 107 39 170 112 170zM94 507c0 -85 10 -128 49 -128c47 0 47 59 47 127c0 87 -14 118 -47 118c-35 0 -49 -36 -49 -117zM659 342c73 0 112 -64 112 -175c0 -108 -39 -172 -112 -172
c-75 0 -112 72 -112 177c0 112 40 170 112 170zM611 176c0 -89 12 -129 52 -129c42 0 44 63 44 114c0 95 -10 131 -48 131c-33 0 -48 -33 -48 -116z" />
    <glyph glyph-name="Scaron" unicode="&#x160;" horiz-adv-x="409" 
d="M204 679c89 0 151 -53 175 -162l-69 -17c-17 79 -53 114 -108 114c-59 0 -92 -47 -92 -111c0 -54 23 -81 104 -119c120 -57 175 -94 175 -207c0 -121 -83 -189 -181 -189c-105 0 -177 64 -194 180l71 18c10 -72 49 -133 124 -133c65 0 103 46 103 119c0 31 -6 53 -18 72
c-23 36 -76 52 -131 82c-92 50 -126 82 -126 173c0 109 72 180 167 180zM343 843l-134 -122l-140 122l60 12l80 -60l76 60z" />
    <glyph glyph-name="guilsinglleft" unicode="&#x2039;" horiz-adv-x="187" 
d="M32 255l83 149h40l-45 -149l45 -145h-40z" />
    <glyph glyph-name="OE" unicode="&#x152;" horiz-adv-x="681" 
d="M243 676c63 0 105 -29 128 -89v80h305v-65h-229v-223h178v-65h-178v-249h235v-65h-311v89c-30 -72 -76 -98 -139 -98c-130 0 -191 99 -191 330c0 241 70 355 202 355zM120 322c0 -189 38 -270 125 -270c57 0 105 42 126 133v316c-23 81 -64 114 -121 114
c-92 0 -130 -97 -130 -293z" />
    <glyph glyph-name="Zcaron" unicode="&#x17d;" horiz-adv-x="375" 
d="M30 667h321v-53l-252 -546h258v-68h-339v68l248 534h-236v65zM326 843l-134 -122l-140 122l60 12l80 -60l76 60z" />
    <glyph glyph-name="quoteleft" unicode="&#x2018;" horiz-adv-x="187" 
d="M44 551l58 122h42l-46 -115h35v-103h-89v96z" />
    <glyph glyph-name="quoteright" unicode="&#x2019;" horiz-adv-x="187" 
d="M55 667h89v-96l-58 -121h-42l46 114h-35v103z" />
    <glyph glyph-name="quotedblleft" unicode="&#x201c;" horiz-adv-x="324" 
d="M44 551l58 122h41l-45 -115h35v-103h-89v96zM180 551l58 122h42l-46 -115h35v-103h-89v96z" />
    <glyph glyph-name="quotedblright" unicode="&#x201d;" horiz-adv-x="324" 
d="M54 667h89v-96l-58 -121h-42l46 114h-35v103zM191 667h89v-96l-58 -121h-42l46 114h-35v103z" />
    <glyph glyph-name="bullet" unicode="&#x2022;" horiz-adv-x="94" 
d="M0 401h94v-115h-94v115z" />
    <glyph glyph-name="endash" unicode="&#x2013;" horiz-adv-x="358" 
d="M34 282h290v-60h-290v60z" />
    <glyph glyph-name="emdash" unicode="&#x2014;" horiz-adv-x="545" 
d="M34 282h477v-60h-477v60z" />
    <glyph glyph-name="tilde" unicode="&#x2dc;" horiz-adv-x="460" 
d="M186 681c41 0 63 -46 95 -46c15 0 23 11 38 38l34 -26c-23 -49 -48 -74 -79 -74c-41 0 -61 46 -92 46c-17 0 -26 -14 -39 -40l-37 25c23 51 49 77 80 77z" />
    <glyph glyph-name="trademark" unicode="&#x2122;" horiz-adv-x="562" 
d="M0 667h210v-49h-77v-331h-58v331h-75v49zM231 667h75l71 -280l72 280h74v-380h-57l3 283l-73 -283h-43l-72 284l3 -284h-53v380z" />
    <glyph glyph-name="scaron" unicode="&#x161;" horiz-adv-x="324" 
d="M163 505c76 0 122 -41 138 -124l-59 -15c-16 60 -39 80 -78 80c-40 0 -68 -25 -68 -68c0 -36 17 -58 47 -74l81 -43c59 -31 87 -59 87 -127c0 -90 -56 -146 -144 -146c-91 0 -143 49 -155 138l61 16c12 -68 41 -95 93 -95c46 0 74 29 74 76c0 51 -17 65 -101 106
c-81 40 -111 79 -111 142c0 69 44 134 135 134zM34 687l57 11l78 -59l73 59l56 -11l-129 -118z" />
    <glyph glyph-name="guilsinglright" unicode="&#x203a;" horiz-adv-x="187" 
d="M78 255l-46 149h40l83 -149l-83 -145h-40z" />
    <glyph glyph-name="oe" unicode="&#x153;" horiz-adv-x="630" 
d="M200 505c60 0 110 -31 127 -91c23 59 66 91 127 91c88 0 158 -59 158 -254v-13h-249v-4c0 -131 35 -187 98 -187c41 0 69 27 85 99l61 -16c-24 -101 -72 -142 -156 -142c-57 0 -102 23 -131 86c-23 -62 -65 -86 -122 -86c-107 0 -164 84 -164 253c0 160 56 264 166 264z
M110 240c0 -131 25 -193 90 -193c61 0 86 61 86 189c0 145 -23 210 -87 210c-65 0 -89 -70 -89 -206zM364 295h172c-1 107 -27 151 -83 151c-55 0 -84 -48 -89 -151z" />
    <glyph glyph-name="zcaron" unicode="&#x17e;" horiz-adv-x="307" 
d="M38 493h246v-40l-185 -394h185v-59h-261v57l178 377h-163v59zM29 687l57 11l78 -59l73 59l56 -11l-129 -118z" />
    <glyph glyph-name="Ydieresis" unicode="&#x178;" horiz-adv-x="358" 
d="M-11 667h79l116 -309l114 309h71l-152 -385v-282h-76v282zM114 731c-29 0 -51 23 -51 51s22 51 50 51c31 0 51 -24 51 -51s-19 -51 -50 -51zM255 731c-29 0 -51 23 -51 51s22 51 51 51c31 0 51 -24 51 -51s-20 -51 -51 -51z" />
    <glyph glyph-name="uni00A0" unicode="&#xa0;" horiz-adv-x="213" 
 />
    <glyph glyph-name="exclamdown" unicode="&#xa1;" horiz-adv-x="273" 
d="M95 493h83v-106h-83v106zM92 -174l24 501h43l22 -501h-89z" />
    <glyph glyph-name="cent" unicode="&#xa2;" horiz-adv-x="426" 
d="M196 575v94h47v-93c68 -8 107 -56 118 -148l-66 -13c-8 56 -20 92 -56 101v-350c37 9 51 52 56 100l66 -8c-16 -106 -45 -139 -118 -152v-113h-47v115c-101 12 -125 115 -125 222c0 152 40 229 125 245zM147 341c0 -131 21 -162 52 -172v345c-43 -15 -52 -84 -52 -173z
" />
    <glyph glyph-name="sterling" unicode="&#xa3;" horiz-adv-x="426" 
d="M276 676c47 0 94 -22 125 -87l-52 -35c-21 39 -46 55 -81 55c-48 0 -72 -35 -72 -107c0 -31 5 -78 13 -130h110v-55h-104c4 -27 6 -44 6 -71c0 -69 -17 -148 -72 -183h79c69 0 104 13 132 73l47 -34c-38 -78 -73 -102 -179 -102h-218v63h11c106 0 131 75 131 140
c0 21 -4 62 -11 114h-87v55h80c-8 43 -14 80 -14 121c0 121 66 183 156 183z" />
    <glyph glyph-name="currency" unicode="&#xa4;" horiz-adv-x="426" 
d="M22 481l42 41l61 -60c25 18 54 27 86 27c35 0 61 -7 90 -28l60 60l41 -41l-60 -60c19 -29 26 -56 26 -87c0 -33 -8 -61 -27 -88l60 -59l-42 -41l-59 59c-31 -20 -57 -27 -89 -27c-31 0 -62 10 -86 26l-59 -59l-41 41l59 59c-20 31 -28 54 -28 89c0 29 8 59 27 88z
M119 333c0 -52 42 -93 92 -93c53 0 94 42 94 93c0 49 -39 93 -94 93c-51 0 -92 -42 -92 -93z" />
    <glyph glyph-name="yen" unicode="&#xa5;" horiz-adv-x="426" 
d="M22 667h79l117 -319l113 319h72l-102 -259h93v-51h-113l-30 -75h143v-51h-144v-231h-75v231h-131v51h130l-30 75h-100v51h80z" />
    <glyph glyph-name="brokenbar" unicode="&#xa6;" horiz-adv-x="500" 
d="M215 675h70v-350h-70v350zM215 175h70v-350h-70v350z" />
    <glyph glyph-name="section" unicode="&#xa7;" horiz-adv-x="426" 
d="M211 679c67 0 129 -41 142 -129l-65 -12c-15 64 -43 83 -80 83c-45 0 -73 -34 -73 -84c0 -49 25 -80 65 -97l68 -29c37 -16 61 -32 77 -59c13 -22 20 -43 20 -77c0 -56 -19 -99 -66 -134c53 -29 76 -79 76 -147c0 -113 -62 -175 -162 -175c-89 0 -147 43 -162 144l68 14
c12 -68 45 -99 98 -99c60 0 91 41 91 104c0 35 -11 61 -37 82c-20 16 -60 29 -112 50c-78 31 -100 82 -100 139c0 60 24 106 77 139c-47 33 -66 74 -66 133c0 103 64 154 141 154zM124 275c0 -68 51 -88 132 -117c28 23 43 56 43 96c0 49 -24 77 -75 97l-44 18
c-37 -25 -56 -57 -56 -94z" />
    <glyph glyph-name="dieresis" unicode="&#xa8;" horiz-adv-x="460" 
d="M162 673c28 0 49 -25 49 -49c0 -25 -20 -49 -49 -49c-28 0 -49 22 -49 49s22 49 49 49zM298 673c28 0 49 -25 49 -49c0 -25 -21 -49 -49 -49c-27 0 -49 21 -49 49s23 49 49 49z" />
    <glyph glyph-name="copyright" unicode="&#xa9;" horiz-adv-x="779" 
d="M390 -13c-192 0 -349 155 -349 344c0 197 161 349 345 349c213 0 352 -171 352 -347c0 -187 -149 -346 -348 -346zM394 540c64 0 100 -38 111 -117l-54 -12c-9 63 -25 81 -56 81c-44 0 -67 -51 -67 -163c0 -105 23 -155 66 -155c31 0 48 20 57 77l54 -9
c-16 -89 -55 -116 -112 -116c-81 0 -126 66 -126 199s43 215 127 215zM682 333c0 161 -129 295 -292 295c-164 0 -293 -134 -293 -295s129 -294 293 -294c163 0 292 133 292 294z" />
    <glyph glyph-name="ordfeminine" unicode="&#xaa;" horiz-adv-x="409" 
d="M197 679c32 0 50 -5 67 -14c35 -19 39 -54 39 -112v-168c0 -19 2 -37 5 -54h-49c-6 17 -8 25 -8 50c-16 -41 -42 -58 -82 -58c-59 0 -95 38 -95 101c0 32 8 117 139 117h34v15c0 64 -15 78 -56 78c-35 0 -55 -18 -63 -66l-46 12c15 77 57 99 115 99zM133 429
c0 -32 15 -55 43 -55c41 0 71 32 71 121v12h-23c-73 0 -91 -35 -91 -78z" />
    <glyph glyph-name="guillemotleft" unicode="&#xab;" horiz-adv-x="307" 
d="M33 255l83 149h40l-46 -149l46 -145h-40zM151 255l83 149h40l-45 -149l45 -145h-40z" />
    <glyph glyph-name="logicalnot" unicode="&#xac;" horiz-adv-x="426" 
d="M37 422h352v-217h-65v156h-287v61z" />
    <glyph glyph-name="uni00AD" unicode="&#xad;" horiz-adv-x="239" 
d="M34 282h170v-60h-170v60z" />
    <glyph glyph-name="registered" unicode="&#xae;" horiz-adv-x="460" 
d="M230 674c109 0 200 -90 200 -200c0 -111 -90 -200 -200 -200c-109 0 -200 90 -200 200c0 113 94 200 200 200zM73 474c0 -89 71 -160 157 -160c88 0 157 74 157 160c0 89 -72 160 -158 160c-83 0 -156 -69 -156 -160zM168 367v220h62c47 0 72 -22 72 -65
c0 -28 -10 -46 -31 -57l40 -98h-44l-35 90h-23v-90h-41zM209 553v-62h22c20 0 30 10 30 31c0 19 -8 31 -32 31h-20z" />
    <glyph glyph-name="macron" unicode="&#xaf;" horiz-adv-x="460" 
d="M117 651h225v-55h-225v55z" />
    <glyph glyph-name="degree" unicode="&#xb0;" horiz-adv-x="426" 
d="M213 679c77 0 139 -63 139 -139c0 -77 -63 -139 -139 -139s-139 63 -139 139c0 75 62 139 139 139zM140 540c0 -45 32 -83 73 -83c40 0 73 36 73 83c0 44 -31 83 -74 83c-39 0 -72 -36 -72 -83z" />
    <glyph glyph-name="plusminus" unicode="&#xb1;" horiz-adv-x="426" 
d="M180 509h65v-145h144v-61h-144v-145h-65v145h-143v61h143v145zM37 107h352v-61h-352v61z" />
    <glyph glyph-name="twosuperior" unicode="&#xb2;" horiz-adv-x="290" 
d="M146 674c65 0 107 -48 107 -117c0 -75 -43 -143 -152 -238h152v-52h-223v49c110 101 163 166 163 237c0 43 -19 72 -51 72c-36 0 -55 -30 -60 -87l-53 13c11 79 50 123 117 123z" />
    <glyph glyph-name="threesuperior" unicode="&#xb3;" horiz-adv-x="290" 
d="M147 674c64 0 106 -48 106 -111c0 -44 -20 -72 -64 -85c53 -12 76 -46 76 -97c0 -80 -56 -122 -126 -122c-68 0 -105 39 -114 104l51 15c6 -53 28 -72 67 -72s62 28 62 72c0 45 -27 73 -70 73h-36l-1 48h35c42 0 61 14 61 65c0 45 -24 63 -51 63c-32 0 -50 -18 -58 -65
l-49 14c8 65 54 98 111 98z" />
    <glyph glyph-name="acute" unicode="&#xb4;" horiz-adv-x="460" 
d="M171 582l136 128l45 -56l-154 -104z" />
    <glyph glyph-name="mu" unicode="&#xb5;" 
d="M52 493h69v-321c0 -70 23 -120 71 -120c49 0 72 48 72 120v321h69v-493h-63v60c-15 -52 -40 -72 -77 -72c-39 0 -63 25 -78 72v-227h-63v660z" />
    <glyph glyph-name="paragraph" unicode="&#xb6;" horiz-adv-x="426" 
d="M204 667h160v-834h-52v777h-46v-777h-52v464h-23c-133 0 -174 103 -174 184c0 95 55 186 187 186z" />
    <glyph glyph-name="periodcentered" unicode="&#xb7;" horiz-adv-x="204" 
d="M59 387h87v-108h-87v108z" />
    <glyph glyph-name="cedilla" unicode="&#xb8;" horiz-adv-x="460" 
d="M197 -73l22 73h29l-10 -41h3c56 0 81 -25 81 -68s-31 -75 -83 -75c-31 0 -56 10 -76 23l10 31c28 -13 41 -16 57 -16c27 0 39 16 39 37c0 24 -19 38 -47 38c-8 0 -17 -1 -25 -2z" />
    <glyph glyph-name="onesuperior" unicode="&#xb9;" horiz-adv-x="290" 
d="M145 671h44v-358h61v-46h-185v46h65v271c-24 -25 -36 -32 -69 -49v56c36 19 65 49 84 80z" />
    <glyph glyph-name="ordmasculine" unicode="&#xba;" horiz-adv-x="426" 
d="M213 679c77 0 119 -68 119 -181c0 -115 -41 -175 -120 -175c-77 0 -118 60 -118 175c0 113 43 181 119 181zM158 497c0 -79 12 -123 55 -123c41 0 54 41 54 121c0 95 -15 133 -55 133c-41 0 -54 -48 -54 -131z" />
    <glyph glyph-name="guillemotright" unicode="&#xbb;" horiz-adv-x="307" 
d="M78 255l-46 149h40l83 -149l-83 -145h-40zM197 255l-46 149h40l84 -149l-84 -145h-40z" />
    <glyph glyph-name="onequarter" unicode="&#xbc;" horiz-adv-x="682" 
d="M145 671h44v-358h61v-46h-185v46h65v271c-24 -25 -36 -32 -69 -49v56c36 19 65 49 84 80zM170 0l286 667h56l-286 -667h-56zM523 408h66v-267h43v-46h-43v-95h-57v95h-143v42zM534 336l-88 -195h86z" />
    <glyph glyph-name="onehalf" unicode="&#xbd;" horiz-adv-x="682" 
d="M145 671h44v-358h61v-46h-185v46h65v271c-24 -25 -36 -32 -69 -49v56c36 19 65 49 84 80zM170 0l286 667h56l-286 -667h-56zM529 407c65 0 107 -48 107 -117c0 -75 -43 -143 -152 -238h152v-52h-223v49c110 101 163 166 163 237c0 43 -19 72 -51 72
c-36 0 -55 -30 -60 -87l-53 13c11 79 50 123 117 123z" />
    <glyph glyph-name="threequarters" unicode="&#xbe;" horiz-adv-x="682" 
d="M176 0l285 667h56l-285 -667h-56zM522 407h66v-266h43v-46h-43v-95h-57v95h-142v42zM533 334l-87 -193h85zM147 674c64 0 106 -48 106 -111c0 -44 -20 -72 -64 -85c53 -12 76 -46 76 -97c0 -80 -56 -122 -126 -122c-68 0 -105 39 -114 104l51 15c6 -53 28 -72 67 -72
s62 28 62 72c0 45 -27 73 -70 73h-36l-1 48h35c42 0 61 14 61 65c0 45 -24 63 -51 63c-32 0 -50 -18 -58 -65l-49 14c8 65 54 98 111 98z" />
    <glyph glyph-name="questiondown" unicode="&#xbf;" horiz-adv-x="409" 
d="M204 -186c-96 0 -158 69 -158 174c0 73 31 129 88 182c48 45 58 63 58 124v33h68v-25c0 -73 -2 -103 -59 -161c-65 -65 -78 -95 -78 -150c0 -72 34 -116 85 -116c57 0 91 43 100 150l65 -16c-12 -132 -73 -195 -169 -195zM268 387h-83v106h83v-106z" />
    <glyph glyph-name="Agrave" unicode="&#xc0;" horiz-adv-x="375" 
d="M149 667h79l150 -667h-78l-42 193h-149l-41 -193h-72zM185 587l-63 -332h124zM229 727l-182 65l32 69l169 -95z" />
    <glyph glyph-name="Aacute" unicode="&#xc1;" horiz-adv-x="375" 
d="M149 667h79l150 -667h-78l-42 193h-149l-41 -193h-72zM185 587l-63 -332h124zM330 793l-181 -66l-20 39l170 95z" />
    <glyph glyph-name="Acircumflex" unicode="&#xc2;" horiz-adv-x="375" 
d="M149 667h79l150 -667h-78l-42 193h-149l-41 -193h-72zM185 587l-63 -332h124zM322 739l-58 -12l-76 60l-80 -60l-60 12l140 122z" />
    <glyph glyph-name="Atilde" unicode="&#xc3;" horiz-adv-x="375" 
d="M149 667h79l150 -667h-78l-42 193h-149l-41 -193h-72zM185 587l-63 -332h124zM283 829l36 -26c-24 -52 -50 -77 -82 -77c-46 0 -61 49 -95 49c-15 0 -25 -7 -42 -42l-38 27c22 47 48 79 83 79c16 0 33 -8 52 -24s33 -24 48 -24c16 0 26 17 38 38z" />
    <glyph glyph-name="Adieresis" unicode="&#xc4;" horiz-adv-x="375" 
d="M149 667h79l150 -667h-78l-42 193h-149l-41 -193h-72zM185 587l-63 -332h124zM120 731c-29 0 -51 23 -51 51s22 51 50 51c31 0 51 -24 51 -51s-19 -51 -50 -51zM261 731c-29 0 -51 23 -51 51s22 51 51 51c31 0 51 -24 51 -51s-20 -51 -51 -51z" />
    <glyph glyph-name="Aring" unicode="&#xc5;" horiz-adv-x="375" 
d="M149 667h79l150 -667h-78l-42 193h-149l-41 -193h-72zM185 587l-63 -332h124zM274 793c0 -48 -40 -83 -84 -83s-84 35 -84 83c0 47 39 84 84 84s84 -37 84 -84zM190 756c19 0 37 15 37 38c0 20 -17 37 -37 37s-37 -15 -37 -38c0 -21 17 -37 37 -37z" />
    <glyph glyph-name="AE" unicode="&#xc6;" horiz-adv-x="613" 
d="M264 667h342v-65h-230v-223h179v-65h-179v-249h237v-65h-313v205h-156l-82 -205h-74zM300 611l-132 -341h132v341z" />
    <glyph glyph-name="Ccedilla" unicode="&#xc7;" horiz-adv-x="409" 
d="M232 679c84 0 148 -39 170 -185l-69 -16c-15 107 -48 136 -96 136c-79 0 -116 -96 -116 -287c0 -162 29 -274 114 -274c53 0 82 34 98 130l69 -12c-28 -145 -87 -183 -169 -183l-8 -31h4c56 0 86 -26 86 -73c0 -45 -33 -81 -89 -81c-29 0 -58 8 -83 25l12 35
c18 -11 41 -18 62 -18c24 0 38 14 38 37c0 25 -16 41 -49 41c-9 0 -18 -1 -29 -3l20 71c-110 19 -156 145 -156 330c0 195 55 358 191 358z" />
    <glyph glyph-name="Egrave" unicode="&#xc8;" horiz-adv-x="375" 
d="M64 667h305v-65h-229v-223h177v-65h-177v-249h235v-65h-311v667zM269 727l-182 65l32 69l169 -95z" />
    <glyph glyph-name="Eacute" unicode="&#xc9;" horiz-adv-x="375" 
d="M64 667h305v-65h-229v-223h177v-65h-177v-249h235v-65h-311v667zM352 793l-181 -66l-20 39l170 95z" />
    <glyph glyph-name="Ecircumflex" unicode="&#xca;" horiz-adv-x="375" 
d="M64 667h305v-65h-229v-223h177v-65h-177v-249h235v-65h-311v667zM358 739l-58 -12l-76 60l-80 -60l-60 12l140 122z" />
    <glyph glyph-name="Edieresis" unicode="&#xcb;" horiz-adv-x="375" 
d="M64 667h305v-65h-229v-223h177v-65h-177v-249h235v-65h-311v667zM146 731c-29 0 -51 23 -51 51s22 51 50 51c31 0 51 -24 51 -51s-19 -51 -50 -51zM287 731c-29 0 -51 23 -51 51s22 51 51 51c31 0 51 -24 51 -51s-20 -51 -51 -51z" />
    <glyph glyph-name="Igrave" unicode="&#xcc;" horiz-adv-x="204" 
d="M64 667h76v-667h-76v667zM141 727l-182 65l32 69l169 -95z" />
    <glyph glyph-name="Iacute" unicode="&#xcd;" horiz-adv-x="204" 
d="M64 667h76v-667h-76v667zM247 793l-181 -66l-20 39l170 95z" />
    <glyph glyph-name="Icircumflex" unicode="&#xce;" horiz-adv-x="204" 
d="M64 667h76v-667h-76v667zM241 739l-58 -12l-76 60l-80 -60l-60 12l140 122z" />
    <glyph glyph-name="Idieresis" unicode="&#xcf;" horiz-adv-x="204" 
d="M64 667h76v-667h-76v667zM33 731c-29 0 -51 23 -51 51s22 51 50 51c31 0 51 -24 51 -51s-19 -51 -50 -51zM174 731c-29 0 -51 23 -51 51s22 51 51 51c31 0 51 -24 51 -51s-20 -51 -51 -51z" />
    <glyph glyph-name="Eth" unicode="&#xd0;" horiz-adv-x="477" 
d="M64 667h116c66 0 116 -13 151 -39c70 -52 105 -169 105 -289c0 -87 -19 -168 -55 -235c-37 -69 -95 -104 -193 -104h-124v323h-54v55h54v289zM140 602v-224h103v-55h-103v-258h60c47 0 91 24 115 68c29 53 41 137 41 202c0 200 -61 267 -173 267h-43z" />
    <glyph glyph-name="Ntilde" unicode="&#xd1;" horiz-adv-x="494" 
d="M64 667h91l211 -522l-4 522h68v-667h-74l-228 571l4 -571h-68v667zM338 829l36 -26c-24 -52 -50 -77 -82 -77c-46 0 -61 49 -95 49c-15 0 -25 -7 -42 -42l-38 27c22 47 48 79 83 79c16 0 33 -8 52 -24s33 -24 48 -24c16 0 26 17 38 38z" />
    <glyph glyph-name="Ograve" unicode="&#xd2;" horiz-adv-x="477" 
d="M238 679c129 0 198 -110 198 -341c0 -89 -11 -176 -44 -247s-82 -103 -154 -103c-131 0 -197 106 -197 341c0 227 68 350 197 350zM120 344c0 -197 34 -291 118 -291c80 0 118 83 118 280s-36 281 -119 281c-77 0 -117 -83 -117 -270zM285 727l-182 65l32 69l169 -95z
" />
    <glyph glyph-name="Oacute" unicode="&#xd3;" horiz-adv-x="477" 
d="M238 679c129 0 198 -110 198 -341c0 -89 -11 -176 -44 -247s-82 -103 -154 -103c-131 0 -197 106 -197 341c0 227 68 350 197 350zM120 344c0 -197 34 -291 118 -291c80 0 118 83 118 280s-36 281 -119 281c-77 0 -117 -83 -117 -270zM378 793l-181 -66l-20 39l170 95z
" />
    <glyph glyph-name="Ocircumflex" unicode="&#xd4;" horiz-adv-x="477" 
d="M238 679c129 0 198 -110 198 -341c0 -89 -11 -176 -44 -247s-82 -103 -154 -103c-131 0 -197 106 -197 341c0 227 68 350 197 350zM120 344c0 -197 34 -291 118 -291c80 0 118 83 118 280s-36 281 -119 281c-77 0 -117 -83 -117 -270zM376 739l-58 -12l-76 60l-80 -60
l-60 12l140 122z" />
    <glyph glyph-name="Otilde" unicode="&#xd5;" horiz-adv-x="477" 
d="M238 679c129 0 198 -110 198 -341c0 -89 -11 -176 -44 -247s-82 -103 -154 -103c-131 0 -197 106 -197 341c0 227 68 350 197 350zM120 344c0 -197 34 -291 118 -291c80 0 118 83 118 280s-36 281 -119 281c-77 0 -117 -83 -117 -270zM332 829l36 -26
c-24 -52 -50 -77 -82 -77c-46 0 -61 49 -95 49c-15 0 -25 -7 -42 -42l-38 27c22 47 48 79 83 79c16 0 33 -8 52 -24s33 -24 48 -24c16 0 26 17 38 38z" />
    <glyph glyph-name="Odieresis" unicode="&#xd6;" horiz-adv-x="477" 
d="M238 679c129 0 198 -110 198 -341c0 -89 -11 -176 -44 -247s-82 -103 -154 -103c-131 0 -197 106 -197 341c0 227 68 350 197 350zM120 344c0 -197 34 -291 118 -291c80 0 118 83 118 280s-36 281 -119 281c-77 0 -117 -83 -117 -270zM169 731c-29 0 -51 23 -51 51
s22 51 50 51c31 0 51 -24 51 -51s-19 -51 -50 -51zM310 731c-29 0 -51 23 -51 51s22 51 51 51c31 0 51 -24 51 -51s-20 -51 -51 -51z" />
    <glyph glyph-name="multiply" unicode="&#xd7;" horiz-adv-x="426" 
d="M99 493l115 -115l114 114l43 -44l-113 -113l114 -115l-45 -46l-115 115l-114 -114l-43 44l113 113l-114 115z" />
    <glyph glyph-name="Oslash" unicode="&#xd8;" horiz-adv-x="477" 
d="M340 649l27 64h57l-45 -107c40 -68 57 -151 57 -264c0 -227 -66 -354 -196 -354c-40 0 -74 8 -102 28l-27 -64h-56l43 106c-37 60 -57 140 -57 269c0 231 68 352 197 352c39 0 70 -9 102 -30zM112 347c0 -100 10 -170 23 -209l175 451c-19 20 -39 29 -74 29
c-81 0 -124 -84 -124 -271zM343 527l-175 -450c17 -20 42 -28 70 -28c87 0 126 84 126 285c0 89 -5 146 -21 193z" />
    <glyph glyph-name="Ugrave" unicode="&#xd9;" horiz-adv-x="443" 
d="M52 667h76v-476c0 -100 20 -138 92 -138c73 0 98 41 98 140v474h73v-476c0 -150 -62 -203 -172 -203c-126 0 -167 60 -167 193v486zM259 727l-182 65l32 69l169 -95z" />
    <glyph glyph-name="Uacute" unicode="&#xda;" horiz-adv-x="443" 
d="M52 667h76v-476c0 -100 20 -138 92 -138c73 0 98 41 98 140v474h73v-476c0 -150 -62 -203 -172 -203c-126 0 -167 60 -167 193v486zM372 793l-181 -66l-20 39l170 95z" />
    <glyph glyph-name="Ucircumflex" unicode="&#xdb;" horiz-adv-x="443" 
d="M52 667h76v-476c0 -100 20 -138 92 -138c73 0 98 41 98 140v474h73v-476c0 -150 -62 -203 -172 -203c-126 0 -167 60 -167 193v486zM361 739l-58 -12l-76 60l-80 -60l-60 12l140 122z" />
    <glyph glyph-name="Udieresis" unicode="&#xdc;" horiz-adv-x="443" 
d="M52 667h76v-476c0 -100 20 -138 92 -138c73 0 98 41 98 140v474h73v-476c0 -150 -62 -203 -172 -203c-126 0 -167 60 -167 193v486zM154 731c-29 0 -51 23 -51 51s22 51 50 51c31 0 51 -24 51 -51s-19 -51 -50 -51zM295 731c-29 0 -51 23 -51 51s22 51 51 51
c31 0 51 -24 51 -51s-20 -51 -51 -51z" />
    <glyph glyph-name="Yacute" unicode="&#xdd;" horiz-adv-x="358" 
d="M-11 667h79l116 -309l114 309h71l-152 -385v-282h-76v282zM345 793l-181 -66l-20 39l170 95z" />
    <glyph glyph-name="Thorn" unicode="&#xde;" 
d="M64 667h76v-114h52c75 0 109 -10 143 -43s54 -83 54 -156c0 -127 -68 -196 -180 -196h-69v-158h-76v667zM140 223h66c75 0 106 42 106 131c0 84 -30 135 -104 135h-68v-266z" />
    <glyph glyph-name="germandbls" unicode="&#xdf;" horiz-adv-x="426" 
d="M213 693c80 0 134 -54 134 -141c0 -71 -40 -140 -132 -147c0 -23 28 -40 81 -71c75 -45 99 -101 99 -167c0 -86 -44 -179 -147 -179c-23 0 -40 1 -76 16l17 58c21 -9 32 -11 53 -11c58 0 80 47 80 107c0 54 -20 97 -80 132c-61 35 -82 56 -82 103c0 16 4 36 16 51
c76 8 103 43 103 104c0 56 -25 89 -69 89c-21 0 -37 -5 -48 -15c-23 -21 -34 -49 -34 -145v-513h-69v422h-53v61h53v31c0 59 7 102 20 131c27 59 78 84 134 84z" />
    <glyph glyph-name="agrave" unicode="&#xe0;" 
d="M201 505c34 0 63 -7 84 -20c45 -27 55 -60 55 -164v-219c0 -29 0 -66 7 -102h-62c-8 25 -10 41 -10 72c-23 -61 -56 -84 -112 -84c-81 0 -129 55 -129 146c0 106 66 171 190 171c19 0 34 0 45 -1v12c0 76 -1 132 -74 132c-59 0 -74 -40 -85 -93l-63 17
c19 93 73 133 154 133zM108 134c0 -56 22 -87 65 -87c53 0 96 45 96 175v28h-37c-91 0 -124 -40 -124 -116zM138 710l136 -128l-28 -32l-153 104z" />
    <glyph glyph-name="aacute" unicode="&#xe1;" 
d="M201 505c34 0 63 -7 84 -20c45 -27 55 -60 55 -164v-219c0 -29 0 -66 7 -102h-62c-8 25 -10 41 -10 72c-23 -61 -56 -84 -112 -84c-81 0 -129 55 -129 146c0 106 66 171 190 171c19 0 34 0 45 -1v12c0 76 -1 132 -74 132c-59 0 -74 -40 -85 -93l-63 17
c19 93 73 133 154 133zM108 134c0 -56 22 -87 65 -87c53 0 96 45 96 175v28h-37c-91 0 -124 -40 -124 -116zM136 582l136 128l45 -56l-154 -104z" />
    <glyph glyph-name="acircumflex" unicode="&#xe2;" 
d="M201 505c34 0 63 -7 84 -20c45 -27 55 -60 55 -164v-219c0 -29 0 -66 7 -102h-62c-8 25 -10 41 -10 72c-23 -61 -56 -84 -112 -84c-81 0 -129 55 -129 146c0 106 66 171 190 171c19 0 34 0 45 -1v12c0 76 -1 132 -74 132c-59 0 -74 -40 -85 -93l-63 17
c19 93 73 133 154 133zM108 134c0 -56 22 -87 65 -87c53 0 96 45 96 175v28h-37c-91 0 -124 -40 -124 -116zM69 582l135 117l129 -117l-56 -12l-73 60l-77 -60z" />
    <glyph glyph-name="atilde" unicode="&#xe3;" 
d="M201 505c34 0 63 -7 84 -20c45 -27 55 -60 55 -164v-219c0 -29 0 -66 7 -102h-62c-8 25 -10 41 -10 72c-23 -61 -56 -84 -112 -84c-81 0 -129 55 -129 146c0 106 66 171 190 171c19 0 34 0 45 -1v12c0 76 -1 132 -74 132c-59 0 -74 -40 -85 -93l-63 17
c19 93 73 133 154 133zM108 134c0 -56 22 -87 65 -87c53 0 96 45 96 175v28h-37c-91 0 -124 -40 -124 -116zM157 681c41 0 63 -46 95 -46c15 0 23 11 38 38l34 -26c-23 -49 -48 -74 -79 -74c-41 0 -61 46 -92 46c-17 0 -26 -14 -39 -40l-37 25c23 51 49 77 80 77z" />
    <glyph glyph-name="adieresis" unicode="&#xe4;" 
d="M201 505c34 0 63 -7 84 -20c45 -27 55 -60 55 -164v-219c0 -29 0 -66 7 -102h-62c-8 25 -10 41 -10 72c-23 -61 -56 -84 -112 -84c-81 0 -129 55 -129 146c0 106 66 171 190 171c19 0 34 0 45 -1v12c0 76 -1 132 -74 132c-59 0 -74 -40 -85 -93l-63 17
c19 93 73 133 154 133zM108 134c0 -56 22 -87 65 -87c53 0 96 45 96 175v28h-37c-91 0 -124 -40 -124 -116zM132 673c28 0 49 -25 49 -49c0 -25 -20 -49 -49 -49c-28 0 -49 22 -49 49s22 49 49 49zM268 673c28 0 49 -25 49 -49c0 -25 -21 -49 -49 -49c-27 0 -49 21 -49 49
s23 49 49 49z" />
    <glyph glyph-name="aring" unicode="&#xe5;" 
d="M201 505c34 0 63 -7 84 -20c45 -27 55 -60 55 -164v-219c0 -29 0 -66 7 -102h-62c-8 25 -10 41 -10 72c-23 -61 -56 -84 -112 -84c-81 0 -129 55 -129 146c0 106 66 171 190 171c19 0 34 0 45 -1v12c0 76 -1 132 -74 132c-59 0 -74 -40 -85 -93l-63 17
c19 93 73 133 154 133zM108 134c0 -56 22 -87 65 -87c53 0 96 45 96 175v28h-37c-91 0 -124 -40 -124 -116zM200 718c47 0 84 -38 84 -83c0 -48 -39 -84 -84 -84s-84 37 -84 84c0 45 37 83 84 83zM162 635c0 -23 18 -39 38 -39s38 16 38 39c0 20 -16 38 -39 38
c-20 0 -37 -18 -37 -38z" />
    <glyph glyph-name="ae" unicode="&#xe6;" horiz-adv-x="613" 
d="M197 505c56 0 98 -18 122 -71c24 46 64 71 117 71c103 0 158 -86 158 -261v-6h-250v-10c0 -121 34 -181 98 -181c44 0 71 34 85 99l61 -16c-25 -104 -74 -142 -157 -142c-71 0 -111 36 -131 96c-23 -64 -67 -96 -134 -96c-91 0 -132 61 -132 147c0 111 78 170 183 170
c13 0 31 0 51 -1v15c0 98 -16 129 -74 129c-48 0 -72 -24 -85 -93l-64 17c21 92 73 133 152 133zM345 295h173c-3 107 -30 151 -84 151c-52 0 -82 -44 -89 -151zM108 135c0 -57 23 -88 60 -88c80 0 100 82 100 203h-36c-88 0 -124 -36 -124 -115z" />
    <glyph glyph-name="ccedilla" unicode="&#xe7;" horiz-adv-x="358" 
d="M193 505c83 0 133 -55 145 -160l-65 -12c-9 77 -34 113 -81 113c-60 0 -82 -52 -82 -200c0 -114 7 -199 82 -199c45 0 72 33 81 113l65 -8c-15 -111 -59 -163 -145 -164l-6 -29h3c56 0 81 -25 81 -68s-31 -75 -83 -75c-31 0 -56 10 -76 23l10 31c28 -13 41 -16 57 -16
c27 0 39 16 39 37c0 24 -19 38 -47 38c-8 0 -17 -1 -25 -2l19 63c-87 12 -131 88 -131 245c0 191 56 270 159 270z" />
    <glyph glyph-name="egrave" unicode="&#xe8;" horiz-adv-x="375" 
d="M198 505c103 0 158 -80 158 -255v-12h-249v-8c0 -127 35 -183 98 -183c44 0 72 34 85 99l61 -16c-24 -100 -68 -142 -152 -142c-111 0 -165 80 -165 252c0 163 57 265 164 265zM109 295h171c-1 111 -29 151 -84 151c-65 0 -85 -80 -87 -151zM133 710l136 -128l-28 -32
l-153 104z" />
    <glyph glyph-name="eacute" unicode="&#xe9;" horiz-adv-x="375" 
d="M198 505c103 0 158 -80 158 -255v-12h-249v-8c0 -127 35 -183 98 -183c44 0 72 34 85 99l61 -16c-24 -100 -68 -142 -152 -142c-111 0 -165 80 -165 252c0 163 57 265 164 265zM109 295h171c-1 111 -29 151 -84 151c-65 0 -85 -80 -87 -151zM133 582l136 128l45 -56
l-154 -104z" />
    <glyph glyph-name="ecircumflex" unicode="&#xea;" horiz-adv-x="375" 
d="M198 505c103 0 158 -80 158 -255v-12h-249v-8c0 -127 35 -183 98 -183c44 0 72 34 85 99l61 -16c-24 -100 -68 -142 -152 -142c-111 0 -165 80 -165 252c0 163 57 265 164 265zM109 295h171c-1 111 -29 151 -84 151c-65 0 -85 -80 -87 -151zM68 582l135 117l129 -117
l-56 -12l-73 60l-77 -60z" />
    <glyph glyph-name="edieresis" unicode="&#xeb;" horiz-adv-x="375" 
d="M198 505c103 0 158 -80 158 -255v-12h-249v-8c0 -127 35 -183 98 -183c44 0 72 34 85 99l61 -16c-24 -100 -68 -142 -152 -142c-111 0 -165 80 -165 252c0 163 57 265 164 265zM109 295h171c-1 111 -29 151 -84 151c-65 0 -85 -80 -87 -151zM131 673c28 0 49 -25 49 -49
c0 -25 -20 -49 -49 -49c-28 0 -49 22 -49 49s22 49 49 49zM267 673c28 0 49 -25 49 -49c0 -25 -21 -49 -49 -49c-27 0 -49 21 -49 49s23 49 49 49z" />
    <glyph glyph-name="igrave" unicode="&#xec;" horiz-adv-x="187" 
d="M59 493h69v-493h-69v493zM19 710l136 -128l-28 -32l-153 104z" />
    <glyph glyph-name="iacute" unicode="&#xed;" horiz-adv-x="187" 
d="M59 493h69v-493h-69v493zM34 582l136 128l45 -56l-154 -104z" />
    <glyph glyph-name="icircumflex" unicode="&#xee;" horiz-adv-x="187" 
d="M59 493h69v-493h-69v493zM-38 582l135 117l129 -117l-56 -12l-73 60l-77 -60z" />
    <glyph glyph-name="idieresis" unicode="&#xef;" horiz-adv-x="187" 
d="M59 493h69v-493h-69v493zM26 673c28 0 49 -25 49 -49c0 -25 -20 -49 -49 -49c-28 0 -49 22 -49 49s22 49 49 49zM162 673c28 0 49 -25 49 -49c0 -25 -21 -49 -49 -49c-27 0 -49 21 -49 49s23 49 49 49z" />
    <glyph glyph-name="eth" unicode="&#xf0;" 
d="M139 677l49 29l36 -56l96 56l27 -49l-95 -55c66 -113 106 -231 106 -358c0 -168 -51 -256 -163 -256c-107 0 -161 87 -161 256c0 168 67 261 153 261c20 0 32 -4 45 -12c-8 23 -23 53 -35 77l-97 -56l-27 49l96 56c-3 8 -11 25 -30 58zM110 243c0 -137 26 -196 86 -196
c61 0 86 60 86 188c0 149 -23 211 -87 211c-61 0 -85 -67 -85 -203z" />
    <glyph glyph-name="ntilde" unicode="&#xf1;" 
d="M231 505c26 0 45 -7 62 -18c29 -20 46 -51 46 -140v-347h-69v330c0 84 -20 111 -62 111c-53 0 -80 -56 -80 -152v-289h-69v493h63v-75c24 59 60 87 109 87zM160 681c41 0 63 -46 95 -46c15 0 23 11 38 38l34 -26c-23 -49 -48 -74 -79 -74c-41 0 -61 46 -92 46
c-17 0 -26 -14 -39 -40l-37 25c23 51 49 77 80 77z" />
    <glyph glyph-name="ograve" unicode="&#xf2;" 
d="M196 505c107 0 162 -98 162 -263c0 -172 -55 -254 -163 -254c-107 0 -161 87 -161 256c0 160 55 261 162 261zM110 243c0 -137 25 -196 86 -196c60 0 86 60 86 188c0 149 -23 211 -87 211c-61 0 -85 -67 -85 -203zM125 710l136 -128l-28 -32l-153 104z" />
    <glyph glyph-name="oacute" unicode="&#xf3;" 
d="M196 505c107 0 162 -98 162 -263c0 -172 -55 -254 -163 -254c-107 0 -161 87 -161 256c0 160 55 261 162 261zM110 243c0 -137 25 -196 86 -196c60 0 86 60 86 188c0 149 -23 211 -87 211c-61 0 -85 -67 -85 -203zM140 582l136 128l45 -56l-154 -104z" />
    <glyph glyph-name="ocircumflex" unicode="&#xf4;" 
d="M196 505c107 0 162 -98 162 -263c0 -172 -55 -254 -163 -254c-107 0 -161 87 -161 256c0 160 55 261 162 261zM110 243c0 -137 25 -196 86 -196c60 0 86 60 86 188c0 149 -23 211 -87 211c-61 0 -85 -67 -85 -203zM64 582l135 117l129 -117l-56 -12l-73 60l-77 -60z" />
    <glyph glyph-name="otilde" unicode="&#xf5;" 
d="M196 505c107 0 162 -98 162 -263c0 -172 -55 -254 -163 -254c-107 0 -161 87 -161 256c0 160 55 261 162 261zM110 243c0 -137 25 -196 86 -196c60 0 86 60 86 188c0 149 -23 211 -87 211c-61 0 -85 -67 -85 -203zM155 681c41 0 63 -46 95 -46c15 0 23 11 38 38l34 -26
c-23 -49 -48 -74 -79 -74c-41 0 -61 46 -92 46c-17 0 -26 -14 -39 -40l-37 25c23 51 49 77 80 77z" />
    <glyph glyph-name="odieresis" unicode="&#xf6;" 
d="M196 505c107 0 162 -98 162 -263c0 -172 -55 -254 -163 -254c-107 0 -161 87 -161 256c0 160 55 261 162 261zM110 243c0 -137 25 -196 86 -196c60 0 86 60 86 188c0 149 -23 211 -87 211c-61 0 -85 -67 -85 -203zM128 673c28 0 49 -25 49 -49c0 -25 -20 -49 -49 -49
c-28 0 -49 22 -49 49s22 49 49 49zM264 673c28 0 49 -25 49 -49c0 -25 -21 -49 -49 -49c-27 0 -49 21 -49 49s23 49 49 49z" />
    <glyph glyph-name="divide" unicode="&#xf7;" horiz-adv-x="426" 
d="M171 511h83v-93h-83v93zM37 364h351v-61h-351v61zM171 249h83v-93h-83v93z" />
    <glyph glyph-name="oslash" unicode="&#xf8;" 
d="M273 483l22 53h51l-36 -89c32 -51 48 -116 48 -203c0 -169 -52 -256 -164 -256c-28 0 -40 2 -72 17l-22 -52h-51l34 86c-32 44 -49 111 -49 202c0 163 57 264 160 264c35 0 62 -10 79 -22zM103 243c0 -43 2 -88 14 -132l129 319c-9 11 -26 18 -51 18
c-67 0 -92 -73 -92 -205zM276 376l-127 -316c12 -13 25 -15 44 -15c72 0 96 61 96 204c0 44 -1 90 -13 127z" />
    <glyph glyph-name="ugrave" unicode="&#xf9;" 
d="M52 493h69v-348c0 -74 22 -94 63 -94c56 0 80 52 80 121v321h69v-493h-63v59c-25 -51 -59 -71 -107 -71c-23 0 -49 6 -66 17c-35 22 -45 48 -45 148v340zM110 710l136 -128l-28 -32l-153 104z" />
    <glyph glyph-name="uacute" unicode="&#xfa;" 
d="M52 493h69v-348c0 -74 22 -94 63 -94c56 0 80 52 80 121v321h69v-493h-63v59c-25 -51 -59 -71 -107 -71c-23 0 -49 6 -66 17c-35 22 -45 48 -45 148v340zM137 582l136 128l45 -56l-154 -104z" />
    <glyph glyph-name="ucircumflex" unicode="&#xfb;" 
d="M52 493h69v-348c0 -74 22 -94 63 -94c56 0 80 52 80 121v321h69v-493h-63v59c-25 -51 -59 -71 -107 -71c-23 0 -49 6 -66 17c-35 22 -45 48 -45 148v340zM61 582l135 117l129 -117l-56 -12l-73 60l-77 -60z" />
    <glyph glyph-name="udieresis" unicode="&#xfc;" 
d="M52 493h69v-348c0 -74 22 -94 63 -94c56 0 80 52 80 121v321h69v-493h-63v59c-25 -51 -59 -71 -107 -71c-23 0 -49 6 -66 17c-35 22 -45 48 -45 148v340zM125 673c28 0 49 -25 49 -49c0 -25 -20 -49 -49 -49c-28 0 -49 22 -49 49s22 49 49 49zM261 673
c28 0 49 -25 49 -49c0 -25 -21 -49 -49 -49c-27 0 -49 21 -49 49s23 49 49 49z" />
    <glyph glyph-name="yacute" unicode="&#xfd;" horiz-adv-x="290" 
d="M-4 493h71l80 -340l85 340h62l-138 -532c-25 -97 -54 -139 -114 -139c-12 0 -19 1 -39 6v62c12 -4 26 -7 35 -7c16 0 23 4 29 12c12 14 26 69 46 156zM105 582l136 128l45 -56l-154 -104z" />
    <glyph glyph-name="thorn" unicode="&#xfe;" horiz-adv-x="409" 
d="M230 502c95 0 145 -94 145 -254c0 -164 -51 -257 -148 -257c-47 0 -76 17 -99 59v-217h-69v834h69v-247c19 60 52 82 102 82zM299 244c0 136 -24 199 -85 199c-55 0 -86 -57 -86 -153v-96c0 -99 29 -144 84 -144c64 0 87 55 87 194z" />
    <glyph glyph-name="ydieresis" unicode="&#xff;" horiz-adv-x="290" 
d="M-4 493h71l80 -340l85 340h62l-138 -532c-25 -97 -54 -139 -114 -139c-12 0 -19 1 -39 6v62c12 -4 26 -7 35 -7c16 0 23 4 29 12c12 14 26 69 46 156zM81 673c28 0 49 -25 49 -49c0 -25 -20 -49 -49 -49c-28 0 -49 22 -49 49s22 49 49 49zM217 673c28 0 49 -25 49 -49
c0 -25 -21 -49 -49 -49c-27 0 -49 21 -49 49s23 49 49 49z" />
    <glyph glyph-name="Amacron" unicode="&#x100;" horiz-adv-x="375" 
d="M149 667h79l150 -667h-78l-42 193h-149l-41 -193h-72zM185 587l-63 -332h124zM303 748h-225v55h225v-55z" />
    <glyph glyph-name="amacron" unicode="&#x101;" 
d="M201 505c34 0 63 -7 84 -20c45 -27 55 -60 55 -164v-219c0 -29 0 -66 7 -102h-62c-8 25 -10 41 -10 72c-23 -61 -56 -84 -112 -84c-81 0 -129 55 -129 146c0 106 66 171 190 171c19 0 34 0 45 -1v12c0 76 -1 132 -74 132c-59 0 -74 -40 -85 -93l-63 17
c19 93 73 133 154 133zM108 134c0 -56 22 -87 65 -87c53 0 96 45 96 175v28h-37c-91 0 -124 -40 -124 -116zM88 651h225v-55h-225v55z" />
    <glyph glyph-name="Abreve" unicode="&#x102;" horiz-adv-x="375" 
d="M149 667h79l150 -667h-78l-42 193h-149l-41 -193h-72zM185 587l-63 -332h124zM255 842h52c-2 -73 -48 -108 -116 -108c-67 0 -116 33 -118 108h52c5 -37 28 -53 65 -53s60 16 65 53z" />
    <glyph glyph-name="abreve" unicode="&#x103;" 
d="M201 505c34 0 63 -7 84 -20c45 -27 55 -60 55 -164v-219c0 -29 0 -66 7 -102h-62c-8 25 -10 41 -10 72c-23 -61 -56 -84 -112 -84c-81 0 -129 55 -129 146c0 106 66 171 190 171c19 0 34 0 45 -1v12c0 76 -1 132 -74 132c-59 0 -74 -40 -85 -93l-63 17
c19 93 73 133 154 133zM108 134c0 -56 22 -87 65 -87c53 0 96 45 96 175v28h-37c-91 0 -124 -40 -124 -116zM84 684h52c4 -33 25 -53 65 -53c37 0 60 16 65 53h52c-3 -73 -48 -108 -116 -108c-72 0 -115 37 -118 108z" />
    <glyph glyph-name="Aogonek" unicode="&#x104;" horiz-adv-x="375" 
d="M384 -117l9 -31c-12 -7 -30 -14 -63 -14c-60 0 -94 36 -94 77c0 33 17 61 64 85l-43 193h-148l-41 -193h-72l153 667h79l150 -667h-43c-17 -16 -41 -39 -41 -75c0 -29 21 -47 53 -47c9 0 22 0 37 5zM246 255l-61 333l-63 -333h124z" />
    <glyph glyph-name="aogonek" unicode="&#x105;" 
d="M369 -117l9 -31c-12 -7 -30 -14 -63 -14c-60 0 -94 36 -94 77c0 33 17 61 64 85c-9 28 -10 39 -10 72c-24 -61 -59 -84 -112 -84c-84 0 -129 59 -129 146c0 105 61 171 194 171l41 -1c4 109 -13 144 -74 144c-47 0 -70 -21 -85 -93l-63 17c20 93 71 133 154 133
c33 0 60 -6 82 -19c53 -33 57 -69 57 -178v-206c0 -45 3 -87 7 -102h-27c-17 -16 -41 -39 -41 -75c0 -29 21 -47 53 -47c9 0 22 0 37 5zM269 250h-53c-54 -2 -108 -25 -108 -116c0 -56 24 -87 65 -87c61 0 99 55 96 203z" />
    <glyph glyph-name="Cacute" unicode="&#x106;" horiz-adv-x="409" 
d="M232 679c84 0 148 -39 170 -185l-69 -16c-15 107 -48 136 -96 136c-79 0 -116 -96 -116 -287c0 -162 29 -274 114 -274c53 0 82 34 98 130l69 -12c-28 -145 -87 -183 -169 -183c-136 0 -192 131 -192 333c0 195 55 358 191 358zM384 793l-181 -66l-20 39l170 95z" />
    <glyph glyph-name="cacute" unicode="&#x107;" horiz-adv-x="358" 
d="M193 505c83 0 133 -55 145 -160l-65 -12c-9 77 -34 113 -81 113c-60 0 -82 -52 -82 -200c0 -114 7 -199 82 -199c45 0 72 33 81 113l65 -8c-15 -112 -58 -164 -146 -164c-105 0 -158 75 -158 247c0 191 56 270 159 270zM133 582l136 128l45 -56l-154 -104z" />
    <glyph glyph-name="Ccircumflex" unicode="&#x108;" horiz-adv-x="409" 
d="M232 679c84 0 148 -39 170 -185l-69 -16c-15 107 -48 136 -96 136c-79 0 -116 -96 -116 -287c0 -162 29 -274 114 -274c53 0 82 34 98 130l69 -12c-28 -145 -87 -183 -169 -183c-136 0 -192 131 -192 333c0 195 55 358 191 358zM375 739l-58 -12l-76 60l-80 -60l-60 12
l140 122z" />
    <glyph glyph-name="ccircumflex" unicode="&#x109;" horiz-adv-x="358" 
d="M193 505c83 0 133 -55 145 -160l-65 -12c-9 77 -34 113 -81 113c-60 0 -82 -52 -82 -200c0 -114 7 -199 82 -199c45 0 72 33 81 113l65 -8c-15 -112 -58 -164 -146 -164c-105 0 -158 75 -158 247c0 191 56 270 159 270zM64 582l135 117l129 -117l-56 -12l-73 60l-77 -60z
" />
    <glyph glyph-name="Cdotaccent" unicode="&#x10a;" horiz-adv-x="409" 
d="M232 679c84 0 148 -39 170 -185l-69 -16c-15 107 -48 136 -96 136c-79 0 -116 -96 -116 -287c0 -162 29 -274 114 -274c53 0 82 34 98 130l69 -12c-28 -145 -87 -183 -169 -183c-136 0 -192 131 -192 333c0 195 55 358 191 358zM236 731c-27 0 -51 22 -51 51
c0 31 24 51 51 51s51 -20 51 -51c0 -29 -23 -51 -51 -51z" />
    <glyph glyph-name="cdotaccent" unicode="&#x10b;" horiz-adv-x="358" 
d="M193 505c83 0 133 -55 145 -160l-65 -12c-9 77 -34 113 -81 113c-60 0 -82 -52 -82 -200c0 -114 7 -199 82 -199c45 0 72 33 81 113l65 -8c-15 -112 -58 -164 -146 -164c-105 0 -158 75 -158 247c0 191 56 270 159 270zM192 675c27 0 51 -22 51 -51s-23 -51 -51 -51
s-51 23 -51 51c0 29 24 51 51 51z" />
    <glyph glyph-name="Ccaron" unicode="&#x10c;" horiz-adv-x="409" 
d="M232 679c84 0 148 -39 170 -185l-69 -16c-15 107 -48 136 -96 136c-79 0 -116 -96 -116 -287c0 -162 29 -274 114 -274c53 0 82 34 98 130l69 -12c-28 -145 -87 -183 -169 -183c-136 0 -192 131 -192 333c0 195 55 358 191 358zM372 843l-134 -122l-140 122l60 12l80 -60
l76 60z" />
    <glyph glyph-name="ccaron" unicode="&#x10d;" horiz-adv-x="358" 
d="M193 505c83 0 133 -55 145 -160l-65 -12c-9 77 -34 113 -81 113c-60 0 -82 -52 -82 -200c0 -114 7 -199 82 -199c45 0 72 33 81 113l65 -8c-15 -112 -58 -164 -146 -164c-105 0 -158 75 -158 247c0 191 56 270 159 270zM56 687l57 11l78 -59l73 59l56 -11l-129 -118z" />
    <glyph glyph-name="Dcaron" unicode="&#x10e;" horiz-adv-x="477" 
d="M64 667h116c66 0 116 -13 151 -39c70 -52 105 -169 105 -289c0 -87 -19 -168 -55 -235c-37 -69 -95 -104 -193 -104h-124v667zM140 602v-537h60c47 0 91 24 115 68c29 53 42 139 41 202c-3 200 -61 267 -173 267h-43zM348 843l-134 -122l-140 122l60 12l80 -60l76 60z
" />
    <glyph glyph-name="dcaron" unicode="&#x10f;" horiz-adv-x="472" 
d="M281 667h69v-667h-60v64c-25 -57 -64 -73 -109 -73c-96 0 -147 87 -147 247c0 171 61 264 154 264c44 0 74 -20 93 -65v230zM110 252c0 -145 27 -205 88 -205c25 0 83 13 83 128v135c0 80 -30 133 -86 133c-55 0 -85 -54 -85 -191zM425 478h-44l17 190h66z" />
    <glyph glyph-name="Dcroat" unicode="&#x110;" horiz-adv-x="477" 
d="M64 667h116c66 0 116 -13 151 -39c70 -52 105 -169 105 -289c0 -87 -19 -168 -55 -235c-37 -69 -95 -104 -193 -104h-124v323h-54v55h54v289zM140 602v-224h103v-55h-103v-258h60c47 0 91 24 115 68c29 53 41 137 41 202c0 200 -61 267 -173 267h-43z" />
    <glyph glyph-name="dcroat" unicode="&#x111;" horiz-adv-x="429" 
d="M350 0h-60v64c-21 -51 -57 -73 -109 -73c-99 0 -147 94 -147 247c0 168 58 264 154 264c44 0 76 -21 93 -65v103h-86v55h86v72h69v-72h70v-55h-70v-540zM281 165v152c0 42 -15 126 -86 126c-59 0 -85 -57 -85 -190c0 -145 27 -206 88 -206c62 0 83 64 83 118z" />
    <glyph glyph-name="Emacron" unicode="&#x112;" horiz-adv-x="375" 
d="M64 667h305v-65h-229v-223h177v-65h-177v-249h235v-65h-311v667zM331 748h-225v55h225v-55z" />
    <glyph glyph-name="emacron" unicode="&#x113;" horiz-adv-x="375" 
d="M198 505c103 0 158 -80 158 -255v-12h-249v-8c0 -127 35 -183 98 -183c44 0 72 34 85 99l61 -16c-24 -100 -68 -142 -152 -142c-111 0 -165 80 -165 252c0 163 57 265 164 265zM109 295h171c-1 111 -29 151 -84 151c-65 0 -85 -80 -87 -151zM87 651h225v-55h-225v55z" />
    <glyph glyph-name="Ebreve" unicode="&#x114;" horiz-adv-x="375" 
d="M64 667h305v-65h-229v-223h177v-65h-177v-249h235v-65h-311v667zM283 842h52c-2 -73 -48 -108 -116 -108c-67 0 -116 33 -118 108h52c5 -37 28 -53 65 -53s60 16 65 53z" />
    <glyph glyph-name="ebreve" unicode="&#x115;" horiz-adv-x="375" 
d="M198 505c103 0 158 -80 158 -255v-12h-249v-8c0 -127 35 -183 98 -183c44 0 72 34 85 99l61 -16c-24 -100 -68 -142 -152 -142c-111 0 -165 80 -165 252c0 163 57 265 164 265zM109 295h171c-1 111 -29 151 -84 151c-65 0 -85 -80 -87 -151zM82 684h52
c4 -33 25 -53 65 -53c37 0 60 16 65 53h52c-3 -73 -48 -108 -116 -108c-72 0 -115 37 -118 108z" />
    <glyph glyph-name="Edotaccent" unicode="&#x116;" horiz-adv-x="375" 
d="M64 667h305v-65h-229v-223h177v-65h-177v-249h235v-65h-311v667zM223 731c-27 0 -51 22 -51 51c0 31 24 51 51 51s51 -20 51 -51c0 -29 -23 -51 -51 -51z" />
    <glyph glyph-name="edotaccent" unicode="&#x117;" horiz-adv-x="375" 
d="M198 505c103 0 158 -80 158 -255v-12h-249v-8c0 -127 35 -183 98 -183c44 0 72 34 85 99l61 -16c-24 -100 -68 -142 -152 -142c-111 0 -165 80 -165 252c0 163 57 265 164 265zM109 295h171c-1 111 -29 151 -84 151c-65 0 -85 -80 -87 -151zM197 675c27 0 51 -22 51 -51
s-23 -51 -51 -51s-51 23 -51 51c0 29 24 51 51 51z" />
    <glyph glyph-name="Eogonek" unicode="&#x118;" horiz-adv-x="375" 
d="M356 -117l9 -31c-12 -7 -30 -14 -63 -14c-60 0 -94 36 -94 77c0 33 16 60 64 85h-208v667h305v-65h-229v-223h177v-65h-177v-249h235v-65h-68c-17 -16 -41 -39 -41 -75c0 -29 21 -47 53 -47c9 0 22 0 37 5z" />
    <glyph glyph-name="eogonek" unicode="&#x119;" horiz-adv-x="375" 
d="M266 -117l9 -31c-12 -7 -30 -14 -63 -14c-60 0 -94 36 -94 77c0 31 15 55 47 76c-85 15 -131 92 -131 248c0 165 59 266 164 266c103 0 159 -78 158 -267h-249c-3 -123 29 -191 98 -191c44 0 70 32 85 99l61 -16c-28 -108 -76 -141 -147 -142v-1c-25 -29 -28 -42 -28 -62
c0 -29 21 -47 53 -47c9 0 22 0 37 5zM109 295h171c-1 100 -24 151 -84 151c-66 0 -83 -74 -87 -151z" />
    <glyph glyph-name="Ecaron" unicode="&#x11a;" horiz-adv-x="375" 
d="M64 667h305v-65h-229v-223h177v-65h-177v-249h235v-65h-311v667zM354 843l-134 -122l-140 122l60 12l80 -60l76 60z" />
    <glyph glyph-name="ecaron" unicode="&#x11b;" horiz-adv-x="375" 
d="M198 505c103 0 158 -80 158 -255v-12h-249v-8c0 -127 35 -183 98 -183c44 0 72 34 85 99l61 -16c-24 -100 -68 -142 -152 -142c-111 0 -165 80 -165 252c0 163 57 265 164 265zM109 295h171c-1 111 -29 151 -84 151c-65 0 -85 -80 -87 -151zM66 687l57 11l78 -59l73 59
l56 -11l-129 -118z" />
    <glyph glyph-name="Gcircumflex" unicode="&#x11c;" horiz-adv-x="460" 
d="M249 679c92 1 148 -50 169 -175l-65 -23c-20 104 -55 133 -108 133c-87 0 -124 -84 -124 -296c0 -196 44 -270 121 -270c51 0 114 39 114 178v40h-110v65h179v-340h-48l-14 84c-31 -68 -76 -87 -131 -87c-132 0 -191 102 -191 346c0 262 93 344 208 345zM381 739l-58 -12
l-76 60l-80 -60l-60 12l140 122z" />
    <glyph glyph-name="gcircumflex" unicode="&#x11d;" horiz-adv-x="358" 
d="M345 569l13 -1v-62h-13c-39 0 -48 -15 -51 -58c24 -35 34 -75 34 -118c0 -99 -56 -164 -144 -164c-17 0 -35 2 -47 9c-20 -7 -35 -24 -35 -48c0 -39 31 -48 124 -54c63 -4 142 -18 142 -119c0 -93 -67 -143 -179 -143c-103 0 -165 49 -165 124c0 45 21 79 64 102
c-31 18 -50 48 -50 84s19 65 58 84c-33 32 -49 76 -49 132c0 100 56 168 140 168c27 0 44 -5 67 -20c2 58 32 86 91 84zM118 334c0 -68 23 -109 70 -109c44 0 67 31 67 112c0 75 -23 109 -68 109s-69 -40 -69 -112zM94 -49c0 -52 37 -81 101 -81c65 0 103 28 103 79
c0 36 -22 55 -67 60s-79 7 -102 9c-25 -17 -35 -38 -35 -67zM60 602l135 117l129 -117l-56 -12l-73 60l-77 -60z" />
    <glyph glyph-name="Gbreve" unicode="&#x11e;" horiz-adv-x="460" 
d="M249 679c92 1 148 -50 169 -175l-65 -23c-20 104 -55 133 -108 133c-87 0 -124 -84 -124 -296c0 -196 44 -270 121 -270c51 0 114 39 114 178v40h-110v65h179v-340h-48l-14 84c-31 -68 -76 -87 -131 -87c-132 0 -191 102 -191 346c0 262 93 344 208 345zM309 842h52
c-2 -73 -48 -108 -116 -108c-67 0 -116 33 -118 108h52c5 -37 28 -53 65 -53s60 16 65 53z" />
    <glyph glyph-name="gbreve" unicode="&#x11f;" horiz-adv-x="358" 
d="M345 569l13 -1v-62h-13c-39 0 -48 -15 -51 -58c24 -35 34 -75 34 -118c0 -99 -56 -164 -144 -164c-17 0 -35 2 -47 9c-20 -7 -35 -24 -35 -48c0 -39 31 -48 124 -54c63 -4 142 -18 142 -119c0 -93 -67 -143 -179 -143c-103 0 -165 49 -165 124c0 45 21 79 64 102
c-31 18 -50 48 -50 84s19 65 58 84c-33 32 -49 76 -49 132c0 100 56 168 140 168c27 0 44 -5 67 -20c2 58 32 86 91 84zM118 334c0 -68 23 -109 70 -109c44 0 67 31 67 112c0 75 -23 109 -68 109s-69 -40 -69 -112zM94 -49c0 -52 37 -81 101 -81c65 0 103 28 103 79
c0 36 -22 55 -67 60s-79 7 -102 9c-25 -17 -35 -38 -35 -67zM74 684h52c4 -33 25 -53 65 -53c37 0 60 16 65 53h52c-3 -73 -48 -108 -116 -108c-72 0 -115 37 -118 108z" />
    <glyph glyph-name="Gdotaccent" unicode="&#x120;" horiz-adv-x="460" 
d="M249 679c92 1 148 -50 169 -175l-65 -23c-20 104 -55 133 -108 133c-87 0 -124 -84 -124 -296c0 -196 44 -270 121 -270c51 0 114 39 114 178v40h-110v65h179v-340h-48l-14 84c-31 -68 -76 -87 -131 -87c-132 0 -191 102 -191 346c0 262 93 344 208 345zM247 731
c-27 0 -51 22 -51 51c0 31 24 51 51 51s51 -20 51 -51c0 -29 -23 -51 -51 -51z" />
    <glyph glyph-name="gdotaccent" unicode="&#x121;" horiz-adv-x="358" 
d="M345 569l13 -1v-62h-13c-39 0 -48 -15 -51 -58c24 -35 34 -75 34 -118c0 -99 -56 -164 -144 -164c-17 0 -35 2 -47 9c-20 -7 -35 -24 -35 -48c0 -39 31 -48 124 -54c63 -4 142 -18 142 -119c0 -93 -67 -143 -179 -143c-103 0 -165 49 -165 124c0 45 21 79 64 102
c-31 18 -50 48 -50 84s19 65 58 84c-33 32 -49 76 -49 132c0 100 56 168 140 168c27 0 44 -5 67 -20c2 58 32 86 91 84zM118 334c0 -68 23 -109 70 -109c44 0 67 31 67 112c0 75 -23 109 -68 109s-69 -40 -69 -112zM94 -49c0 -52 37 -81 101 -81c65 0 103 28 103 79
c0 36 -22 55 -67 60s-79 7 -102 9c-25 -17 -35 -38 -35 -67zM187 685c27 0 51 -22 51 -51s-23 -51 -51 -51s-51 23 -51 51c0 29 24 51 51 51z" />
    <glyph glyph-name="Gcommaaccent" unicode="&#x122;" horiz-adv-x="460" 
d="M249 679c92 1 148 -50 169 -175l-65 -23c-20 104 -55 133 -108 133c-87 0 -124 -84 -124 -296c0 -196 44 -270 121 -270c51 0 114 39 114 178v40h-110v65h179v-340h-48l-14 84c-31 -68 -76 -87 -131 -87c-132 0 -191 102 -191 346c0 262 93 344 208 345zM241 -200h-36
l22 70h-30v81h69v-79z" />
    <glyph glyph-name="gcommaaccent" unicode="&#x123;" horiz-adv-x="358" 
d="M345 569l13 -1v-62h-13c-39 0 -48 -15 -51 -58c24 -35 34 -75 34 -118c0 -99 -56 -164 -144 -164c-17 0 -35 2 -47 9c-20 -7 -35 -24 -35 -48c0 -39 31 -48 124 -54c63 -4 142 -18 142 -119c0 -93 -67 -143 -179 -143c-103 0 -165 49 -165 124c0 45 21 79 64 102
c-31 18 -50 48 -50 84s19 65 58 84c-33 32 -49 76 -49 132c0 100 56 168 140 168c27 0 44 -5 67 -20c2 58 32 86 91 84zM118 334c0 -68 23 -109 70 -109c44 0 67 31 67 112c0 75 -23 109 -68 109s-69 -40 -69 -112zM94 -49c0 -52 37 -81 101 -81c65 0 103 28 103 79
c0 36 -22 55 -67 60s-79 7 -102 9c-25 -17 -35 -38 -35 -67zM222 579h-67v75l23 76h34l-18 -74h28v-77z" />
    <glyph glyph-name="Hcircumflex" unicode="&#x124;" horiz-adv-x="477" 
d="M64 667h76v-283h197v283h76v-667h-76v319h-197v-319h-76v667zM376 739l-58 -12l-76 60l-80 -60l-60 12l140 122z" />
    <glyph glyph-name="hcircumflex" unicode="&#x125;" 
d="M59 667h69v-241c17 53 49 79 100 79c25 0 47 -7 64 -20c34 -27 47 -53 47 -166v-319h-69v313c0 96 -17 128 -64 128c-63 0 -77 -78 -77 -144v-297h-70v667zM67 715l135 117l129 -117l-56 -12l-73 60l-77 -60z" />
    <glyph glyph-name="Hbar" unicode="&#x126;" horiz-adv-x="477" 
d="M413 0h-76v319h-197v-319h-76v667h76v-119h197v119h76v-667zM337 384v109h-197v-109h197z" />
    <glyph glyph-name="hbar" unicode="&#x127;" horiz-adv-x="412" 
d="M359 0h-69v313c0 73 -9 128 -64 128c-23 0 -40 -10 -53 -30c-24 -39 -24 -73 -24 -148v-263h-70v540h-70v55h70v72h69v-72h84v-55h-84v-114c19 55 52 79 100 79c27 0 49 -7 66 -22c43 -39 45 -75 45 -166v-317z" />
    <glyph glyph-name="Itilde" unicode="&#x128;" horiz-adv-x="204" 
d="M64 667h76v-667h-76v667zM196 829l36 -26c-24 -52 -50 -77 -82 -77c-46 0 -61 49 -95 49c-15 0 -25 -7 -42 -42l-38 27c22 47 48 79 83 79c16 0 33 -8 52 -24s33 -24 48 -24c16 0 26 17 38 38z" />
    <glyph glyph-name="itilde" unicode="&#x129;" horiz-adv-x="187" 
d="M59 493h69v-493h-69v493zM53 681c41 0 63 -46 95 -46c15 0 23 11 38 38l34 -26c-23 -49 -48 -74 -79 -74c-41 0 -61 46 -92 46c-17 0 -26 -14 -39 -40l-37 25c23 51 49 77 80 77z" />
    <glyph glyph-name="Imacron" unicode="&#x12a;" horiz-adv-x="204" 
d="M64 667h76v-667h-76v667zM215 748h-225v55h225v-55z" />
    <glyph glyph-name="imacron" unicode="&#x12b;" horiz-adv-x="187" 
d="M59 493h69v-493h-69v493zM-18 651h225v-55h-225v55z" />
    <glyph glyph-name="Iogonek" unicode="&#x12e;" horiz-adv-x="204" 
d="M171 -117l9 -31c-12 -7 -30 -14 -63 -14c-60 0 -94 36 -94 77c0 33 16 60 64 85h-23v667h76v-667h-18c-17 -16 -41 -39 -41 -75c0 -29 21 -47 53 -47c9 0 22 0 37 5z" />
    <glyph glyph-name="iogonek" unicode="&#x12f;" horiz-adv-x="187" 
d="M131 582h-75v85h75v-85zM161 -117l9 -31c-12 -7 -30 -14 -63 -14c-60 0 -94 36 -94 77c0 33 16 60 64 85h-18v493h69v-493h-16c-17 -16 -41 -39 -41 -75c0 -29 21 -47 53 -47c9 0 22 0 37 5z" />
    <glyph glyph-name="Idotaccent" unicode="&#x130;" horiz-adv-x="204" 
d="M64 667h76v-667h-76v667zM103 731c-27 0 -51 22 -51 51c0 31 24 51 51 51s51 -20 51 -51c0 -29 -23 -51 -51 -51z" />
    <glyph glyph-name="dotlessi" unicode="&#x131;" horiz-adv-x="187" 
d="M59 493h69v-493h-69v493z" />
    <glyph glyph-name="Jcircumflex" unicode="&#x134;" horiz-adv-x="272" 
d="M144 667h76v-442c0 -29 -1 -64 -3 -105c-4 -83 -56 -132 -135 -132c-25 0 -53 3 -78 12v60c24 -5 35 -7 58 -7c24 0 41 4 52 11c23 14 30 47 30 146v457zM319 739l-58 -12l-76 60l-80 -60l-60 12l140 122z" />
    <glyph glyph-name="jcircumflex" unicode="&#x135;" horiz-adv-x="187" 
d="M2 -174h-30v64h38c41 0 49 13 49 88v515h69v-517c0 -45 -4 -77 -11 -96c-14 -40 -39 -54 -115 -54zM-37 582l135 117l129 -117l-56 -12l-73 60l-77 -60z" />
    <glyph glyph-name="Kcommaaccent" unicode="&#x136;" horiz-adv-x="426" 
d="M64 667h76v-335l186 335h82l-145 -243l181 -424h-86l-140 350l-78 -129v-221h-76v667zM249 -200h-36l22 70h-30v81h69v-79z" />
    <glyph glyph-name="kcommaaccent" unicode="&#x137;" horiz-adv-x="358" 
d="M59 667h69v-416l136 242h74l-109 -182l124 -311h-82l-86 241l-57 -89v-152h-69v667zM204 -200h-36l22 70h-30v81h69v-79z" />
    <glyph glyph-name="Lacute" unicode="&#x139;" horiz-adv-x="341" 
d="M64 667h76v-602h208v-65h-284v667zM283 793l-181 -66l-20 39l170 95z" />
    <glyph glyph-name="lacute" unicode="&#x13a;" horiz-adv-x="187" 
d="M59 667h69v-667h-69v667zM272 793l-181 -66l-20 39l170 95z" />
    <glyph glyph-name="Lcommaaccent" unicode="&#x13b;" horiz-adv-x="341" 
d="M64 667h76v-602h208v-65h-284v667zM213 -200h-36l22 70h-30v81h69v-79z" />
    <glyph glyph-name="lcommaaccent" unicode="&#x13c;" horiz-adv-x="187" 
d="M59 667h69v-667h-69v667zM104 -200h-36l22 70h-30v81h69v-79z" />
    <glyph glyph-name="Lcaron" unicode="&#x13d;" horiz-adv-x="341" 
d="M64 667h76v-602h208v-65h-284v667zM216 478h-44l17 190h66z" />
    <glyph glyph-name="lcaron" unicode="&#x13e;" horiz-adv-x="259" 
d="M59 667h69v-667h-69v667zM213 478h-44l17 190h66z" />
    <glyph glyph-name="Ldot" unicode="&#x13f;" horiz-adv-x="341" 
d="M64 667h76v-602h208v-65h-284v667zM258 376c27 0 51 -22 51 -51s-23 -51 -51 -51s-51 23 -51 51c0 29 24 51 51 51z" />
    <glyph glyph-name="ldot" unicode="&#x140;" horiz-adv-x="253" 
d="M59 667h69v-667h-69v667zM218 376c27 0 51 -22 51 -51s-23 -51 -51 -51s-51 23 -51 51c0 29 24 51 51 51z" />
    <glyph glyph-name="Lslash" unicode="&#x141;" horiz-adv-x="341" 
d="M64 667h76v-289l105 102v-73l-105 -101v-241h208v-65h-284v254l-54 -54v72l54 54v341z" />
    <glyph glyph-name="lslash" unicode="&#x142;" horiz-adv-x="187" 
d="M59 667h69v-260l55 56v-65l-55 -56v-342h-69v295l-55 -56v64l55 56v308z" />
    <glyph glyph-name="Nacute" unicode="&#x143;" horiz-adv-x="494" 
d="M64 667h91l211 -522l-4 522h68v-667h-74l-228 571l4 -571h-68v667zM415 793l-181 -66l-20 39l170 95z" />
    <glyph glyph-name="nacute" unicode="&#x144;" 
d="M231 505c26 0 45 -7 62 -18c29 -20 46 -51 46 -140v-347h-69v330c0 84 -20 111 -62 111c-53 0 -80 -56 -80 -152v-289h-69v493h63v-75c24 59 60 87 109 87zM132 582l136 128l45 -56l-154 -104z" />
    <glyph glyph-name="Ncommaaccent" unicode="&#x145;" horiz-adv-x="494" 
d="M64 667h91l211 -522l-4 522h68v-667h-74l-228 571l4 -571h-68v667zM255 -200h-36l22 70h-30v81h69v-79z" />
    <glyph glyph-name="ncommaaccent" unicode="&#x146;" 
d="M231 505c26 0 45 -7 62 -18c29 -20 46 -51 46 -140v-347h-69v330c0 84 -20 111 -62 111c-53 0 -80 -56 -80 -152v-289h-69v493h63v-75c24 59 60 87 109 87zM208 -200h-36l22 70h-30v81h69v-79z" />
    <glyph glyph-name="Ncaron" unicode="&#x147;" horiz-adv-x="494" 
d="M64 667h91l211 -522l-4 522h68v-667h-74l-228 571l4 -571h-68v667zM384 843l-134 -122l-140 122l60 12l80 -60l76 60z" />
    <glyph glyph-name="ncaron" unicode="&#x148;" 
d="M231 505c26 0 45 -7 62 -18c29 -20 46 -51 46 -140v-347h-69v330c0 84 -20 111 -62 111c-53 0 -80 -56 -80 -152v-289h-69v493h63v-75c24 59 60 87 109 87zM69 687l57 11l78 -59l73 59l56 -11l-129 -118z" />
    <glyph glyph-name="Omacron" unicode="&#x14c;" horiz-adv-x="477" 
d="M238 679c129 0 198 -110 198 -341c0 -89 -11 -176 -44 -247s-82 -103 -154 -103c-131 0 -197 106 -197 341c0 227 68 350 197 350zM120 344c0 -197 34 -291 118 -291c80 0 118 83 118 280s-36 281 -119 281c-77 0 -117 -83 -117 -270zM351 748h-225v55h225v-55z" />
    <glyph glyph-name="omacron" unicode="&#x14d;" 
d="M196 505c107 0 162 -98 162 -263c0 -172 -55 -254 -163 -254c-107 0 -161 87 -161 256c0 160 55 261 162 261zM110 243c0 -137 25 -196 86 -196c60 0 86 60 86 188c0 149 -23 211 -87 211c-61 0 -85 -67 -85 -203zM84 651h225v-55h-225v55z" />
    <glyph glyph-name="Obreve" unicode="&#x14e;" horiz-adv-x="477" 
d="M238 679c129 0 198 -110 198 -341c0 -89 -11 -176 -44 -247s-82 -103 -154 -103c-131 0 -197 106 -197 341c0 227 68 350 197 350zM120 344c0 -197 34 -291 118 -291c80 0 118 83 118 280s-36 281 -119 281c-77 0 -117 -83 -117 -270zM303 842h52
c-2 -73 -48 -108 -116 -108c-67 0 -116 33 -118 108h52c5 -37 28 -53 65 -53s60 16 65 53z" />
    <glyph glyph-name="obreve" unicode="&#x14f;" 
d="M196 505c107 0 162 -98 162 -263c0 -172 -55 -254 -163 -254c-107 0 -161 87 -161 256c0 160 55 261 162 261zM110 243c0 -137 25 -196 86 -196c60 0 86 60 86 188c0 149 -23 211 -87 211c-61 0 -85 -67 -85 -203zM79 684h52c4 -33 25 -53 65 -53c37 0 60 16 65 53h52
c-3 -73 -48 -108 -116 -108c-72 0 -115 37 -118 108z" />
    <glyph glyph-name="Ohungarumlaut" unicode="&#x150;" horiz-adv-x="477" 
d="M238 679c129 0 198 -110 198 -341c0 -89 -11 -176 -44 -247s-82 -103 -154 -103c-131 0 -197 106 -197 341c0 227 68 350 197 350zM120 344c0 -197 34 -291 118 -291c80 0 118 83 118 280s-36 281 -119 281c-77 0 -117 -83 -117 -270zM276 792l-106 -71l-29 35l92 88z
M406 792l-106 -71l-28 35l91 88z" />
    <glyph glyph-name="ohungarumlaut" unicode="&#x151;" 
d="M196 505c107 0 162 -98 162 -263c0 -172 -55 -254 -163 -254c-107 0 -161 87 -161 256c0 160 55 261 162 261zM110 243c0 -137 25 -196 86 -196c60 0 86 60 86 188c0 149 -23 211 -87 211c-61 0 -85 -67 -85 -203zM93 588l83 98l43 -52l-97 -81zM224 588l82 98l43 -52
l-97 -81z" />
    <glyph glyph-name="Racute" unicode="&#x154;" horiz-adv-x="426" 
d="M64 667h156c52 0 79 -8 100 -20c44 -26 79 -84 79 -162c0 -89 -29 -156 -92 -178l107 -307h-81l-98 292h-95v-292h-76v667zM140 357h82c71 0 100 55 100 124c0 19 -4 65 -32 95c-15 16 -36 26 -75 26h-75v-245zM350 793l-181 -66l-20 39l170 95z" />
    <glyph glyph-name="racute" unicode="&#x155;" horiz-adv-x="238" 
d="M225 503c9 0 17 -2 21 -3v-77c-4 0 -10 1 -16 1c-96 0 -102 -97 -102 -182v-242h-69v493h63v-98c20 75 55 108 103 108zM85 582l136 128l45 -56l-154 -104z" />
    <glyph glyph-name="Rcommaaccent" unicode="&#x156;" horiz-adv-x="426" 
d="M64 667h156c52 0 79 -8 100 -20c44 -26 79 -84 79 -162c0 -89 -29 -156 -92 -178l107 -307h-81l-98 292h-95v-292h-76v667zM140 357h82c71 0 100 55 100 124c0 19 -4 65 -32 95c-15 16 -36 26 -75 26h-75v-245zM239 -200h-36l22 70h-30v81h69v-79z" />
    <glyph glyph-name="rcommaaccent" unicode="&#x157;" horiz-adv-x="238" 
d="M225 503c9 0 17 -2 21 -3v-77c-4 0 -10 1 -16 1c-96 0 -102 -97 -102 -182v-242h-69v493h63v-98c20 75 55 108 103 108zM104 -200h-36l22 70h-30v81h69v-79z" />
    <glyph glyph-name="Rcaron" unicode="&#x158;" horiz-adv-x="426" 
d="M64 667h156c52 0 79 -8 100 -20c44 -26 79 -84 79 -162c0 -89 -29 -156 -92 -178l107 -307h-81l-98 292h-95v-292h-76v667zM140 357h82c71 0 100 55 100 124c0 19 -4 65 -32 95c-15 16 -36 26 -75 26h-75v-245zM354 843l-134 -122l-140 122l60 12l80 -60l76 60z" />
    <glyph glyph-name="rcaron" unicode="&#x159;" horiz-adv-x="238" 
d="M225 503c9 0 17 -2 21 -3v-77c-4 0 -10 1 -16 1c-96 0 -102 -97 -102 -182v-242h-69v493h63v-98c20 75 55 108 103 108zM23 687l57 11l78 -59l73 59l56 -11l-129 -118z" />
    <glyph glyph-name="Sacute" unicode="&#x15a;" horiz-adv-x="409" 
d="M204 679c89 0 151 -53 175 -162l-69 -17c-17 79 -53 114 -108 114c-59 0 -92 -47 -92 -111c0 -54 23 -81 104 -119c120 -57 175 -94 175 -207c0 -121 -83 -189 -181 -189c-105 0 -177 64 -194 180l71 18c10 -72 49 -133 124 -133c65 0 103 46 103 119c0 31 -6 53 -18 72
c-23 36 -76 52 -131 82c-92 50 -126 82 -126 173c0 109 72 180 167 180zM358 793l-181 -66l-20 39l170 95z" />
    <glyph glyph-name="sacute" unicode="&#x15b;" horiz-adv-x="324" 
d="M163 505c76 0 122 -41 138 -124l-59 -15c-16 60 -39 80 -78 80c-40 0 -68 -25 -68 -68c0 -36 17 -58 47 -74l81 -43c59 -31 87 -59 87 -127c0 -90 -56 -146 -144 -146c-91 0 -143 49 -155 138l61 16c12 -68 41 -95 93 -95c46 0 74 29 74 76c0 51 -17 65 -101 106
c-81 40 -111 79 -111 142c0 69 44 134 135 134zM107 582l136 128l45 -56l-154 -104z" />
    <glyph glyph-name="Scircumflex" unicode="&#x15c;" horiz-adv-x="409" 
d="M204 679c89 0 151 -53 175 -162l-69 -17c-17 79 -53 114 -108 114c-59 0 -92 -47 -92 -111c0 -54 23 -81 104 -119c120 -57 175 -94 175 -207c0 -121 -83 -189 -181 -189c-105 0 -177 64 -194 180l71 18c10 -72 49 -133 124 -133c65 0 103 46 103 119c0 31 -6 53 -18 72
c-23 36 -76 52 -131 82c-92 50 -126 82 -126 173c0 109 72 180 167 180zM348 739l-58 -12l-76 60l-80 -60l-60 12l140 122z" />
    <glyph glyph-name="scircumflex" unicode="&#x15d;" horiz-adv-x="324" 
d="M163 505c76 0 122 -41 138 -124l-59 -15c-16 60 -39 80 -78 80c-40 0 -68 -25 -68 -68c0 -36 17 -58 47 -74l81 -43c59 -31 87 -59 87 -127c0 -90 -56 -146 -144 -146c-91 0 -143 49 -155 138l61 16c12 -68 41 -95 93 -95c46 0 74 29 74 76c0 51 -17 65 -101 106
c-81 40 -111 79 -111 142c0 69 44 134 135 134zM35 582l135 117l129 -117l-56 -12l-73 60l-77 -60z" />
    <glyph glyph-name="Scedilla" unicode="&#x15e;" horiz-adv-x="409" 
d="M122 -161l10 31c32 -15 42 -16 58 -16c24 0 38 16 38 37c0 17 -11 38 -47 38c-8 0 -19 -1 -25 -2l19 64c-99 16 -149 84 -161 177l71 18c9 -75 52 -133 124 -133c65 0 103 47 103 119c0 63 -23 95 -95 127c-113 52 -180 92 -180 200c0 99 64 180 167 180
c91 0 150 -53 175 -162l-69 -17c-13 71 -51 114 -108 114c-59 0 -92 -49 -92 -110c0 -34 10 -60 31 -77s57 -37 108 -61c104 -48 140 -98 140 -189c0 -112 -73 -188 -185 -189l-7 -29h8c43 0 76 -20 76 -68c0 -41 -30 -75 -82 -75c-28 0 -54 7 -77 23z" />
    <glyph glyph-name="scedilla" unicode="&#x15f;" horiz-adv-x="324" 
d="M79 -161l10 31c32 -15 42 -16 58 -16c24 0 38 16 38 37c0 17 -11 38 -47 38c-8 0 -17 -1 -25 -2l19 64c-59 8 -108 48 -120 135l61 16c11 -67 41 -95 93 -95c47 0 74 29 74 76c0 26 -7 45 -21 58s-39 29 -78 47c-76 36 -113 78 -113 143c0 75 50 134 135 134
c76 0 122 -41 138 -124l-59 -15c-16 61 -41 80 -78 80c-40 0 -68 -25 -68 -68c0 -30 13 -53 38 -68s53 -31 86 -48c64 -32 91 -63 91 -128c0 -96 -61 -147 -150 -146l-7 -29h8c43 0 76 -20 76 -68c0 -41 -30 -75 -82 -75c-28 0 -54 7 -77 23z" />
    <glyph glyph-name="Tcommaaccent" unicode="&#x162;" horiz-adv-x="324" 
d="M-5 667h334v-65h-129v-602h-76v602h-129v65zM172 -200h-36l22 70h-30v81h69v-79z" />
    <glyph glyph-name="tcommaaccent" unicode="&#x163;" horiz-adv-x="238" 
d="M134 625v-132h84v-57h-84v-275c0 -70 6 -96 58 -96c18 0 23 0 39 3v-60c-16 -7 -30 -10 -59 -10c-26 0 -51 6 -66 17c-31 22 -41 59 -41 145v276h-56v57h56v124zM150 -200h-36l22 70h-30v81h69v-79z" />
    <glyph glyph-name="Tcaron" unicode="&#x164;" horiz-adv-x="324" 
d="M-5 667h334v-65h-129v-602h-76v602h-129v65zM298 843l-134 -122l-140 122l60 12l80 -60l76 60z" />
    <glyph glyph-name="tcaron" unicode="&#x165;" horiz-adv-x="264" 
d="M134 625v-132h84v-57h-84v-275c0 -70 6 -96 58 -96c18 0 23 0 39 3v-60c-16 -7 -30 -10 -59 -10c-26 0 -51 6 -66 17c-31 22 -41 59 -41 145v276h-56v57h56v124zM218 530h-44l17 190h66z" />
    <glyph glyph-name="Tbar" unicode="&#x166;" horiz-adv-x="324" 
d="M200 0h-76v376h-100v55h100v171h-129v65h334v-65h-129v-171h99v-55h-99v-376z" />
    <glyph glyph-name="tbar" unicode="&#x167;" horiz-adv-x="238" 
d="M231 68v-60c-20 -9 -37 -10 -59 -10c-106 0 -107 78 -107 162v116h-54v55h54v105h-56v57h56v124l69 8v-132h84v-57h-84v-105h80v-55h-80v-115c0 -20 1 -61 11 -78s33 -18 50 -18c12 0 24 1 36 3z" />
    <glyph glyph-name="Utilde" unicode="&#x168;" horiz-adv-x="443" 
d="M52 667h76v-476c0 -100 20 -138 92 -138c73 0 98 41 98 140v474h73v-476c0 -150 -62 -203 -172 -203c-126 0 -167 60 -167 193v486zM317 829l36 -26c-24 -52 -50 -77 -82 -77c-46 0 -61 49 -95 49c-15 0 -25 -7 -42 -42l-38 27c22 47 48 79 83 79c16 0 33 -8 52 -24
s33 -24 48 -24c16 0 26 17 38 38z" />
    <glyph glyph-name="utilde" unicode="&#x169;" 
d="M52 493h69v-348c0 -74 22 -94 63 -94c56 0 80 52 80 121v321h69v-493h-63v59c-25 -51 -59 -71 -107 -71c-23 0 -49 6 -66 17c-35 22 -45 48 -45 148v340zM152 681c41 0 63 -46 95 -46c15 0 23 11 38 38l34 -26c-23 -49 -48 -74 -79 -74c-41 0 -61 46 -92 46
c-17 0 -26 -14 -39 -40l-37 25c23 51 49 77 80 77z" />
    <glyph glyph-name="Umacron" unicode="&#x16a;" horiz-adv-x="443" 
d="M52 667h76v-476c0 -100 20 -138 92 -138c73 0 98 41 98 140v474h73v-476c0 -150 -62 -203 -172 -203c-126 0 -167 60 -167 193v486zM337 748h-225v55h225v-55z" />
    <glyph glyph-name="umacron" unicode="&#x16b;" 
d="M52 493h69v-348c0 -74 22 -94 63 -94c56 0 80 52 80 121v321h69v-493h-63v59c-25 -51 -59 -71 -107 -71c-23 0 -49 6 -66 17c-35 22 -45 48 -45 148v340zM82 651h225v-55h-225v55z" />
    <glyph glyph-name="Ubreve" unicode="&#x16c;" horiz-adv-x="443" 
d="M52 667h76v-476c0 -100 20 -138 92 -138c73 0 98 41 98 140v474h73v-476c0 -150 -62 -203 -172 -203c-126 0 -167 60 -167 193v486zM289 842h52c-2 -73 -48 -108 -116 -108c-67 0 -116 33 -118 108h52c5 -37 28 -53 65 -53s60 16 65 53z" />
    <glyph glyph-name="ubreve" unicode="&#x16d;" 
d="M52 493h69v-348c0 -74 22 -94 63 -94c56 0 80 52 80 121v321h69v-493h-63v59c-25 -51 -59 -71 -107 -71c-23 0 -49 6 -66 17c-35 22 -45 48 -45 148v340zM76 684h52c4 -33 25 -53 65 -53c37 0 60 16 65 53h52c-3 -73 -48 -108 -116 -108c-72 0 -115 37 -118 108z" />
    <glyph glyph-name="Uring" unicode="&#x16e;" horiz-adv-x="443" 
d="M52 667h76v-476c0 -100 20 -138 92 -138c73 0 98 41 98 140v474h73v-476c0 -150 -62 -203 -172 -203c-126 0 -167 60 -167 193v486zM308 793c0 -48 -40 -83 -84 -83s-84 35 -84 83c0 47 39 84 84 84s84 -37 84 -84zM224 756c19 0 37 15 37 38c0 20 -17 37 -37 37
s-37 -15 -37 -38c0 -21 17 -37 37 -37z" />
    <glyph glyph-name="uring" unicode="&#x16f;" 
d="M52 493h69v-348c0 -74 22 -94 63 -94c56 0 80 52 80 121v321h69v-493h-63v59c-25 -51 -59 -71 -107 -71c-23 0 -49 6 -66 17c-35 22 -45 48 -45 148v340zM193 718c47 0 84 -38 84 -83c0 -48 -39 -84 -84 -84s-84 37 -84 84c0 45 37 83 84 83zM155 635
c0 -23 18 -39 38 -39s38 16 38 39c0 20 -16 38 -39 38c-20 0 -37 -18 -37 -38z" />
    <glyph glyph-name="Uhungarumlaut" unicode="&#x170;" horiz-adv-x="443" 
d="M52 667h76v-476c0 -100 20 -138 92 -138c73 0 98 41 98 140v474h73v-476c0 -150 -62 -203 -172 -203c-126 0 -167 60 -167 193v486zM252 792l-106 -71l-29 35l92 88zM382 792l-106 -71l-28 35l91 88z" />
    <glyph glyph-name="uhungarumlaut" unicode="&#x171;" 
d="M52 493h69v-348c0 -74 22 -94 63 -94c56 0 80 52 80 121v321h69v-493h-63v59c-25 -51 -59 -71 -107 -71c-23 0 -49 6 -66 17c-35 22 -45 48 -45 148v340zM90 588l83 98l43 -52l-97 -81zM221 588l82 98l43 -52l-97 -81z" />
    <glyph glyph-name="Uogonek" unicode="&#x172;" horiz-adv-x="443" 
d="M297 -117l9 -31c-19 -11 -42 -14 -64 -14c-46 0 -93 26 -93 77c0 32 19 56 44 74c-140 7 -141 127 -141 205v473h76v-473c0 -70 0 -141 92 -141c89 0 98 66 98 140v474h73v-471c0 -112 -29 -201 -155 -207c-18 -21 -29 -35 -29 -64c0 -31 24 -47 53 -47c13 0 25 1 37 5z
" />
    <glyph glyph-name="uogonek" unicode="&#x173;" 
d="M354 -117l9 -31c-19 -11 -41 -14 -63 -14c-46 0 -94 25 -94 77c0 42 29 67 64 85v59c-23 -46 -56 -71 -108 -71c-56 0 -99 27 -106 85c-3 26 -4 53 -4 80v340h69v-341c0 -47 3 -101 62 -101c66 0 81 69 81 122v320h69v-493h-28c-22 -21 -41 -43 -41 -75
c0 -31 24 -47 53 -47c13 0 25 1 37 5z" />
    <glyph glyph-name="Wcircumflex" unicode="&#x174;" horiz-adv-x="579" 
d="M6 667h76l84 -527l95 527h63l104 -527l78 527h68l-111 -667h-75l-97 513l-95 -513h-72zM431 739l-58 -12l-76 60l-80 -60l-60 12l140 122z" />
    <glyph glyph-name="wcircumflex" unicode="&#x175;" horiz-adv-x="460" 
d="M2 493h70l64 -368l66 368h60l70 -368l66 368h60l-99 -493h-60l-70 365l-64 -365h-62zM103 582l135 117l129 -117l-56 -12l-73 60l-77 -60z" />
    <glyph glyph-name="Ycircumflex" unicode="&#x176;" horiz-adv-x="358" 
d="M-11 667h79l116 -309l114 309h71l-152 -385v-282h-76v282zM324 739l-58 -12l-76 60l-80 -60l-60 12l140 122z" />
    <glyph glyph-name="ycircumflex" unicode="&#x177;" horiz-adv-x="290" 
d="M-4 493h71l80 -340l85 340h62l-138 -532c-25 -97 -54 -139 -114 -139c-12 0 -19 1 -39 6v62c12 -4 26 -7 35 -7c16 0 23 4 29 12c12 14 26 69 46 156zM18 582l135 117l129 -117l-56 -12l-73 60l-77 -60z" />
    <glyph glyph-name="Zacute" unicode="&#x179;" horiz-adv-x="375" 
d="M30 667h321v-53l-252 -546h258v-68h-339v68l248 534h-236v65zM336 793l-181 -66l-20 39l170 95z" />
    <glyph glyph-name="zacute" unicode="&#x17a;" horiz-adv-x="307" 
d="M38 493h246v-40l-185 -394h185v-59h-261v57l178 377h-163v59zM113 582l136 128l45 -56l-154 -104z" />
    <glyph glyph-name="Zdotaccent" unicode="&#x17b;" horiz-adv-x="375" 
d="M30 667h321v-53l-252 -546h258v-68h-339v68l248 534h-236v65zM194 731c-27 0 -51 22 -51 51c0 31 24 51 51 51s51 -20 51 -51c0 -29 -23 -51 -51 -51z" />
    <glyph glyph-name="zdotaccent" unicode="&#x17c;" horiz-adv-x="307" 
d="M38 493h246v-40l-185 -394h185v-59h-261v57l178 377h-163v59zM163 675c27 0 51 -22 51 -51s-23 -51 -51 -51s-51 23 -51 51c0 29 24 51 51 51z" />
    <glyph glyph-name="Scommaaccent" unicode="&#x218;" horiz-adv-x="409" 
d="M204 679c89 0 151 -53 175 -162l-69 -17c-17 79 -53 114 -108 114c-59 0 -92 -47 -92 -111c0 -54 23 -81 104 -119c120 -57 175 -94 175 -207c0 -121 -83 -189 -181 -189c-105 0 -177 64 -194 180l71 18c10 -72 49 -133 124 -133c65 0 103 46 103 119c0 31 -6 53 -18 72
c-23 36 -76 52 -131 82c-92 50 -126 82 -126 173c0 109 72 180 167 180zM216 -200h-36l22 70h-30v81h69v-79z" />
    <glyph glyph-name="scommaaccent" unicode="&#x219;" horiz-adv-x="324" 
d="M163 505c76 0 122 -41 138 -124l-59 -15c-16 60 -39 80 -78 80c-40 0 -68 -25 -68 -68c0 -36 17 -58 47 -74l81 -43c59 -31 87 -59 87 -127c0 -90 -56 -146 -144 -146c-91 0 -143 49 -155 138l61 16c12 -68 41 -95 93 -95c46 0 74 29 74 76c0 51 -17 65 -101 106
c-81 40 -111 79 -111 142c0 69 44 134 135 134zM172 -200h-36l22 70h-30v81h69v-79z" />
    <glyph glyph-name="uni021A" unicode="&#x21a;" horiz-adv-x="324" 
d="M-5 667h334v-65h-129v-602h-76v602h-129v65zM172 -200h-36l22 70h-30v81h69v-79z" />
    <glyph glyph-name="uni021B" unicode="&#x21b;" horiz-adv-x="238" 
d="M134 625v-132h84v-57h-84v-275c0 -70 6 -96 58 -96c18 0 23 0 39 3v-60c-16 -7 -30 -10 -59 -10c-26 0 -51 6 -66 17c-31 22 -41 59 -41 145v276h-56v57h56v124zM150 -200h-36l22 70h-30v81h69v-79z" />
    <glyph glyph-name="dotlessj" unicode="&#x237;" horiz-adv-x="187" 
d="M2 -174h-30v64h38c41 0 49 13 49 88v515h69v-517c0 -45 -4 -77 -11 -96c-14 -40 -39 -54 -115 -54z" />
    <glyph glyph-name="caron" unicode="&#x2c7;" horiz-adv-x="460" 
d="M98 687l57 11l78 -59l73 59l56 -11l-129 -118z" />
    <glyph glyph-name="uni02C9" unicode="&#x2c9;" horiz-adv-x="460" 
d="M117 651h225v-55h-225v55z" />
    <glyph glyph-name="breve" unicode="&#x2d8;" horiz-adv-x="460" 
d="M113 684h52c4 -33 25 -53 65 -53c37 0 60 16 65 53h52c-3 -73 -48 -108 -116 -108c-72 0 -115 37 -118 108z" />
    <glyph glyph-name="dotaccent" unicode="&#x2d9;" horiz-adv-x="460" 
d="M230 675c27 0 51 -22 51 -51s-23 -51 -51 -51s-51 23 -51 51c0 29 24 51 51 51z" />
    <glyph glyph-name="ring" unicode="&#x2da;" horiz-adv-x="460" 
d="M230 718c47 0 84 -38 84 -83c0 -48 -39 -84 -84 -84s-84 37 -84 84c0 45 37 83 84 83zM192 635c0 -23 18 -39 38 -39s38 16 38 39c0 20 -16 38 -39 38c-20 0 -37 -18 -37 -38z" />
    <glyph glyph-name="ogonek" unicode="&#x2db;" horiz-adv-x="460" 
d="M362 0h35c-31 -28 -41 -50 -41 -75c0 -28 19 -47 54 -47c8 0 21 0 36 5l9 -31c-19 -9 -35 -14 -63 -14c-60 0 -94 33 -94 77c0 35 19 61 64 85z" />
    <glyph glyph-name="hungarumlaut" unicode="&#x2dd;" horiz-adv-x="460" 
d="M167 588l83 98l43 -52l-97 -81zM298 588l82 98l43 -52l-97 -81z" />
    <glyph glyph-name="uni0394" unicode="&#x394;" horiz-adv-x="502" 
d="M215 682h76l185 -634v-48h-450v46zM196 401l-104 -343h315l-111 372c-17 58 -41 138 -44 157h-3c-9 -40 -38 -137 -53 -186z" />
    <glyph glyph-name="uni03A9" unicode="&#x3a9;" horiz-adv-x="544" 
d="M275 676c133 0 220 -136 220 -308c0 -116 -39 -231 -103 -306v-3h114v-59h-186v43c68 65 108 183 108 307c0 137 -56 265 -155 265c-95 0 -158 -110 -158 -265c0 -123 48 -254 107 -307v-43h-185v59h112v3c-67 83 -102 188 -102 300c0 186 94 314 228 314z" />
    <glyph glyph-name="uni03BC" unicode="&#x3bc;" 
d="M52 493h69v-321c0 -70 23 -120 71 -120c49 0 72 48 72 120v321h69v-493h-63v60c-15 -52 -40 -72 -77 -72c-39 0 -63 25 -78 72v-227h-63v660z" />
    <glyph glyph-name="pi" unicode="&#x3c0;" horiz-adv-x="449" 
d="M119 496h313l-6 -62h-60v-313c0 -43 3 -90 11 -121h-64c-8 19 -13 64 -13 119v315h-133c-7 -175 -33 -358 -57 -434h-64c25 84 49 252 55 434c-33 0 -61 -2 -81 -9l-10 47c19 13 57 24 109 24z" />
    <glyph glyph-name="fraction" unicode="&#x2044;" horiz-adv-x="102" 
d="M-120 0l286 667h56l-286 -667h-56z" />
    <glyph glyph-name="afii61289" unicode="&#x2113;" horiz-adv-x="385" 
d="M213 733c63 0 97 -58 97 -150c0 -107 -51 -218 -158 -342v-46c0 -78 24 -147 80 -147c39 0 76 25 105 80l30 -28c-33 -71 -81 -107 -145 -107c-85 0 -134 62 -134 189v5l-45 -42l-20 40c23 21 45 41 65 65v266c0 133 46 217 125 217zM152 515v-202
c77 103 115 191 115 272c0 59 -14 94 -53 94c-36 0 -62 -62 -62 -164z" />
    <glyph glyph-name="Omega" unicode="&#x2126;" horiz-adv-x="544" 
d="M275 676c133 0 220 -136 220 -308c0 -116 -39 -231 -103 -306v-3h114v-59h-186v43c68 65 108 183 108 307c0 137 -56 265 -155 265c-95 0 -158 -110 -158 -265c0 -123 48 -254 107 -307v-43h-185v59h112v3c-67 83 -102 188 -102 300c0 186 94 314 228 314z" />
    <glyph glyph-name="estimated" unicode="&#x212e;" horiz-adv-x="833" 
d="M416 679c204 0 384 -148 384 -348v-7h-621c-4 0 -6 -2 -6 -6v-188c0 -12 3 -21 53 -59c48 -36 116 -63 191 -63c96 0 184 42 247 114h55c-72 -84 -184 -133 -303 -133c-214 0 -384 156 -384 344c0 186 168 346 384 346zM173 535v-187c0 -4 3 -6 8 -6h472c4 0 6 2 6 5v192
c0 11 0 18 -50 55c-53 39 -116 64 -193 64c-64 0 -141 -23 -204 -75c-37 -31 -37 -32 -39 -48z" />
    <glyph glyph-name="partialdiff" unicode="&#x2202;" horiz-adv-x="433" 
d="M190 748c120 0 203 -128 203 -356c0 -252 -76 -399 -207 -399c-92 0 -151 87 -151 216c0 146 78 248 171 248c52 0 96 -29 120 -73h1c1 5 1 13 1 42c-1 138 -56 263 -144 263c-35 0 -70 -14 -102 -45l-22 55c39 33 82 49 130 49zM102 209c0 -96 35 -156 90 -156
c64 0 116 96 129 256c-16 53 -58 89 -106 89c-62 0 -113 -87 -113 -189z" />
    <glyph glyph-name="Delta" unicode="&#x2206;" horiz-adv-x="502" 
d="M215 682h76l185 -634v-48h-450v46zM196 401l-104 -343h315l-111 372c-17 58 -41 138 -44 157h-3c-9 -40 -38 -137 -53 -186z" />
    <glyph glyph-name="product" unicode="&#x220f;" horiz-adv-x="549" 
d="M23 667h503v-66h-81v-693h-66v693h-210v-693h-66v693h-80v66z" />
    <glyph glyph-name="summation" unicode="&#x2211;" horiz-adv-x="434" 
d="M29 667h374v-60h-285v-4l186 -304l-204 -320v-3h317v-68h-397v49l209 330l-200 329v51z" />
    <glyph glyph-name="minus" unicode="&#x2212;" horiz-adv-x="426" 
d="M37 364h352v-61h-352v61z" />
    <glyph glyph-name="uni2215" unicode="&#x2215;" horiz-adv-x="102" 
d="M-120 0l286 667h56l-286 -667h-56z" />
    <glyph glyph-name="uni2219" unicode="&#x2219;" horiz-adv-x="204" 
d="M59 387h87v-108h-87v108z" />
    <glyph glyph-name="radical" unicode="&#x221a;" horiz-adv-x="463" 
d="M271 63l140 732h47l-174 -936h-58l-126 442l-59 -23l-13 44l115 44l93 -324c7 -25 14 -67 18 -91c2 12 8 65 17 112z" />
    <glyph glyph-name="infinity" unicode="&#x221e;" horiz-adv-x="651" 
d="M174 409c49 0 96 -26 155 -99c67 79 108 99 157 99c73 0 124 -53 124 -132s-59 -136 -130 -136c-51 0 -94 29 -153 98c-63 -75 -108 -98 -159 -98c-71 0 -127 58 -127 133c0 77 56 135 133 135zM87 275c0 -55 39 -92 87 -92c62 0 103 63 129 89c-59 77 -94 96 -135 96
c-48 0 -81 -38 -81 -93zM383 310l-31 -34c63 -73 92 -93 131 -93c48 0 82 42 82 91c0 55 -32 94 -85 94c-37 0 -71 -30 -97 -58z" />
    <glyph glyph-name="integral" unicode="&#x222b;" horiz-adv-x="306" 
d="M241 815c17 0 35 -6 44 -11l-10 -50c-7 4 -17 8 -28 8c-13 0 -25 -6 -36 -18c-24 -26 -31 -74 -31 -184c0 -94 10 -365 10 -467c0 -163 -34 -247 -121 -247c-21 0 -40 7 -52 14l11 52c20 -9 26 -9 35 -9c40 0 62 49 62 180c0 115 -10 386 -10 494c0 94 12 157 37 190
s55 48 89 48z" />
    <glyph glyph-name="approxequal" unicode="&#x2248;" horiz-adv-x="447" 
d="M146 398c66 0 108 -64 164 -64c32 0 52 23 73 64l28 -23c-23 -55 -60 -85 -106 -85c-62 0 -112 65 -164 65c-26 0 -51 -15 -77 -64l-30 22c24 51 64 85 112 85zM146 254c66 0 108 -64 164 -64c32 0 52 23 73 64l28 -23c-23 -55 -60 -85 -106 -85c-62 0 -112 65 -164 65
c-26 0 -51 -15 -77 -64l-30 22c24 51 64 85 112 85z" />
    <glyph glyph-name="notequal" unicode="&#x2260;" horiz-adv-x="447" 
d="M244 375l41 95l35 -15l-35 -80h120v-45h-137l-52 -120h189v-44h-206l-42 -95l-34 15l35 80h-117v44h134l52 120h-186v45h203z" />
    <glyph glyph-name="lessequal" unicode="&#x2264;" horiz-adv-x="447" 
d="M46 346l357 195v-55l-311 -162v-2l311 -163v-55l-357 195v47zM42 68h364v-46h-364v46z" />
    <glyph glyph-name="greaterequal" unicode="&#x2265;" horiz-adv-x="447" 
d="M47 541l357 -195v-47l-357 -195v55l311 162v2l-311 163v55zM42 68h364v-46h-364v46z" />
    <glyph glyph-name="lozenge" unicode="&#x25ca;" horiz-adv-x="464" 
d="M45 333l160 369h56l158 -369l-161 -368h-56zM233 639h-2c-10 -41 -16 -55 -23 -71l-102 -233l110 -256c1 -4 11 -32 14 -52h3c6 27 13 50 19 63l105 241l-107 250c-4 9 -10 30 -17 58z" />
    <glyph glyph-name="grave.cap" horiz-adv-x="460" 
d="M306 727l-182 65l32 69l169 -95z" />
    <glyph glyph-name="acute.cap" horiz-adv-x="460" 
d="M359 793l-181 -66l-20 39l170 95z" />
    <glyph glyph-name="circumflex.cap" horiz-adv-x="460" 
d="M367 739l-58 -12l-76 60l-80 -60l-60 12l140 122z" />
    <glyph glyph-name="caron.cap" horiz-adv-x="460" 
d="M367 843l-134 -122l-140 122l60 12l80 -60l76 60z" />
    <glyph glyph-name="tilde.cap" horiz-adv-x="460" 
d="M321 829l36 -26c-24 -52 -50 -77 -82 -77c-46 0 -61 49 -95 49c-15 0 -25 -7 -42 -42l-38 27c22 47 48 79 83 79c16 0 33 -8 52 -24s33 -24 48 -24c16 0 26 17 38 38z" />
    <glyph glyph-name="dieresis.cap" horiz-adv-x="460" 
d="M160 731c-29 0 -51 23 -51 51s22 51 50 51c31 0 51 -24 51 -51s-19 -51 -50 -51zM301 731c-29 0 -51 23 -51 51s22 51 51 51c31 0 51 -24 51 -51s-20 -51 -51 -51z" />
    <glyph glyph-name="macron.cap" horiz-adv-x="460" 
d="M342 748h-225v55h225v-55z" />
    <glyph glyph-name="breve.cap" horiz-adv-x="460" 
d="M295 842h52c-2 -73 -48 -108 -116 -108c-67 0 -116 33 -118 108h52c5 -37 28 -53 65 -53s60 16 65 53z" />
    <glyph glyph-name="ring.cap" horiz-adv-x="460" 
d="M314 793c0 -48 -40 -83 -84 -83s-84 35 -84 83c0 47 39 84 84 84s84 -37 84 -84zM230 756c19 0 37 15 37 38c0 20 -17 37 -37 37s-37 -15 -37 -38c0 -21 17 -37 37 -37z" />
    <glyph glyph-name="hungarumlaut.cap" horiz-adv-x="460" 
d="M302 792l-106 -71l-29 35l92 88zM432 792l-106 -71l-28 35l91 88z" />
    <glyph glyph-name="dotaccent.cap" horiz-adv-x="460" 
d="M230 731c-27 0 -51 22 -51 51c0 31 24 51 51 51s51 -20 51 -51c0 -29 -23 -51 -51 -51z" />
    <glyph glyph-name="caron.alt" horiz-adv-x="460" 
d="M259 520h-44l17 190h66z" />
    <glyph glyph-name="commaaccent" horiz-adv-x="460" 
d="M236 -200h-36l22 70h-30v81h69v-79z" />
    <glyph glyph-name="commaaccent.alt" horiz-adv-x="460" 
d="M223 559h-67v75l23 76h34l-18 -74h28v-77z" />
    <glyph glyph-name="uniF8FF" unicode="&#xf8ff;" horiz-adv-x="512" 
d="M512 0h-512v718h512v-718zM462 50v617h-412v-617h412zM271 234h-46l-2 19c0 41 6 70 19 89s31 40 54 63c24 23 36 46 36 69c0 48 -35 85 -76 85s-74 -27 -82 -95l-50 8c9 95 63 137 135 137c71 0 124 -52 124 -131c0 -45 -15 -76 -64 -121c-24 -22 -38 -39 -42 -52
c-4 -12 -6 -36 -6 -71zM278 117h-56v67h56v-67z" />
    </font>
</defs>
</svg>
