<svg xmlns="http://www.w3.org/2000/svg" xmlns:xlink="http://www.w3.org/1999/xlink" width="34" height="34" viewBox="0 0 34 34">
    <defs>
        <path id="a" d="M27.403 10.482a.814.814 0 0 0-.57-.24H22.17V9.126c0-2.71-2.316-4.877-5.17-4.877s-5.138 2.198-5.138 4.877v1.114H7.168c-.222 0-.444.09-.571.241a.772.772 0 0 0-.222.572l1.174 14.722c.158 2.228 2.156 3.974 4.503 3.974h9.769c2.347 0 4.313-1.746 4.504-3.944l1.3-14.782a.802.802 0 0 0-.222-.542zM12.782 9.127c0-2.198 1.871-3.974 4.218-3.974 2.315 0 4.187 1.776 4.187 3.974v1.114h-8.405V9.127zm12.591 16.649c-.158 1.746-1.713 3.1-3.552 3.1h-9.769c-1.871 0-3.425-1.384-3.552-3.13L7.358 11.174h19.316l-1.3 14.602z"/>
    </defs>
    <g fill="none" fill-rule="evenodd">
        <mask id="b" fill="#fff">
            <use xlink:href="#a"/>
        </mask>
        <use fill="#000" fill-rule="nonzero" xlink:href="#a"/>
        <g fill="#333" mask="url(#b)">
            <path d="M0 0h34v34H0z"/>
        </g>
    </g>
</svg>
