<svg xmlns="http://www.w3.org/2000/svg" width="25" height="25" viewBox="0 0 25 25">
    <g fill="none" fill-rule="evenodd" stroke="#007aff" stroke-linecap="round" stroke-linejoin="round">
        <path d="M15.625 3.646a3.126 3.126 0 0 1-6.25 0 3.125 3.125 0 1 1 6.25 0zM7.813 8.854c0 2.17 1.041 5.209 3.125 5.938v4.479h3.124v-4.48c2.084-.729 3.126-3.767 3.126-5.937H7.813z"/>
        <path d="M16.687 18.559c1.878.33 3.104.876 3.104 1.493 0 1.007-3.264 1.823-7.292 1.823-4.026 0-7.291-.816-7.291-1.823 0-.618 1.233-1.165 3.119-1.494"/>
        <path d="M16.67 16.404c4.56.59 7.81 2.117 7.81 3.909 0 2.3-5.364 4.166-11.98 4.166-6.616 0-11.98-1.866-11.98-4.166 0-1.792 3.25-3.32 7.812-3.909"/>
    </g>
</svg>
