
<svg width="23" height="24" viewBox="0 0 23 24" xmlns="http://www.w3.org/2000/svg">
    <path d="M22.722 10.538 12.043.228a.801.801 0 0 0-1.118 0L.246 10.537a.805.805 0 0 0 .56 1.384h1.418v11.273c0 .445.36.805.805.805h5.637c.444 0 .805-.36.805-.805v-6.442h4.026v6.442c0 .445.36.805.805.805h5.636c.445 0 .805-.36.805-.805V11.922h1.42a.805.805 0 0 0 .56-1.384zm-1.979.58a.805.805 0 0 0-.805.804v11.273h-5.636v-6.442a.805.805 0 0 0-.805-.805H9.47a.805.805 0 0 0-.805.805v6.442H3.029V11.922a.805.805 0 0 0-.805-.805H.805L11.484.807l10.683 10.31h-1.424z" fill="#000" fill-rule="nonzero"/>
</svg>
