<svg xmlns="http://www.w3.org/2000/svg" xmlns:xlink="http://www.w3.org/1999/xlink" width="40" height="40" viewBox="0 0 40 40">
    <defs>
        <path id="a" d="M21.653 24.831c-1.336 0-2.587-.724-3.015-1.553 0 0-.72 2.864-.873 3.416-.531 1.95-2.107 3.916-2.227 4.072-.086.12-.274.069-.291-.07-.035-.258-.429-2.725.034-4.726l1.593-6.78s-.394-.794-.394-1.967c0-1.846 1.062-3.226 2.38-3.226 1.131 0 1.662.845 1.662 1.863 0 1.139-.719 2.847-1.096 4.417-.308 1.328.651 2.398 1.953 2.398 2.347 0 3.922-3.037 3.922-6.608 0-2.725-1.832-4.778-5.138-4.778-3.752 0-6.081 2.812-6.081 5.969 0 1.087.325 1.846.822 2.45.223.275.257.379.171.69-.068.224-.188.776-.257 1-.085.31-.342.431-.616.31-1.73-.707-2.535-2.604-2.535-4.76 0-3.537 2.963-7.781 8.838-7.781 4.71 0 7.828 3.433 7.828 7.125-.017 4.899-2.723 8.54-6.68 8.54z"/>
    </defs>
    <g fill="none" fill-rule="evenodd">
        <path d="M0 0h40v40H0z"/>
        <mask id="b" fill="#fff">
            <use xlink:href="#a"/>
        </mask>
        <use fill="#231F20" fill-rule="nonzero" xlink:href="#a"/>
        <g fill="#000" mask="url(#b)">
            <path d="M40 40H0V0h40z"/>
        </g>
    </g>
</svg>
