<svg xmlns="http://www.w3.org/2000/svg" xmlns:xlink="http://www.w3.org/1999/xlink" width="40" height="40" viewBox="0 0 40 40">
    <defs>
        <path id="a" d="M17.764 23.006v-6.132l5.855 3.076-5.855 3.056zm12.857-7.195s-.212-1.504-.862-2.166c-.824-.87-1.748-.874-2.171-.924-3.033-.221-7.581-.221-7.581-.221h-.01s-4.549 0-7.581.221c-.424.05-1.347.055-2.172.924-.65.662-.86 2.166-.86 2.166s-.217 1.767-.217 3.532V21c0 1.767.216 3.532.216 3.532s.212 1.504.861 2.166c.825.87 1.908.843 2.39.933 1.734.168 7.368.22 7.368.22s4.553-.007 7.586-.228c.423-.05 1.347-.055 2.171-.925.65-.662.862-2.166.862-2.166s.216-1.765.216-3.532v-1.656c0-1.765-.216-3.532-.216-3.532z"/>
    </defs>
    <g fill="none" fill-rule="evenodd">
        <path d="M0 0h40v40H0z"/>
        <path fill="#FFF" d="M40 40H0V0h40z"/>
        <mask id="b" fill="#fff">
            <use xlink:href="#a"/>
        </mask>
        <use fill="#CE1312" xlink:href="#a"/>
        <g fill="#000" mask="url(#b)">
            <path d="M40 40H0V0h40z"/>
        </g>
    </g>
</svg>
