<svg xmlns="http://www.w3.org/2000/svg" width="48" height="48" viewBox="0 0 48 48">
    <g fill="none" fill-rule="evenodd">
        <path d="M0 0h48v48H0z"/>
        <path fill="#FFF" d="M48 48H0V0h48z"/>
        <g fill="#232323">
            <path d="M34.046 37.831l3.483.908V19.397l-1.177-2.59.525-2.106h-25.48l.643 2.116-1.602 2.592v19.33l3.483-.908v-3.218h20.125v3.218zm3.852 1.388l-4.22-1.099v-3.135H14.29v3.135l-4.22 1.099V19.302l1.569-2.54-.74-2.433h26.449l-.607 2.443 1.157 2.584v19.863z"/>
            <path d="M10.058 39.815h27.83V19.343h-27.83z"/>
            <path d="M31.556 19.97H30.8c0-6.081-3.151-11.03-7.025-11.03-3.874 0-7.026 4.949-7.026 11.03h-.754c0-6.502 3.49-11.792 7.78-11.792s7.78 5.29 7.78 11.793"/>
        </g>
    </g>
</svg>
