<svg xmlns="http://www.w3.org/2000/svg" xmlns:xlink="http://www.w3.org/1999/xlink" width="48" height="48" viewBox="0 0 48 48">
    <defs>
        <path id="a" d="M17.882 11.781l13.138 6.513 6.099-3.023a2.018 2.018 0 0 0-.231-.134L24.889 9.19a2.014 2.014 0 0 0-1.777 0l-5.23 2.592zm-2.236 1.109l-4.536 2.248c-.223.11-.419.258-.582.433l12.992 6.44 5.264-2.609-13.138-6.512zM25 38.752l11.89-5.894A1.98 1.98 0 0 0 38 31.084V17.051l-13 6.444v15.257zm-2 .007V23.971l-13-6.444v13.55a1.98 1.98 0 0 0 1.097 1.782L23 38.76zm2.78-31.345l12 5.949a3.962 3.962 0 0 1 2.22 3.55v14.172c0 1.504-.86 2.88-2.218 3.548l-12 5.948a4.031 4.031 0 0 1-3.58 0L10.2 34.63A3.96 3.96 0 0 1 8 31.07V16.912c0-1.505.86-2.88 2.218-3.548l12.002-5.95a4.031 4.031 0 0 1 3.56 0z"/>
    </defs>
    <g fill="none" fill-rule="evenodd">
        <path d="M0 0h48v48H0z"/>
        <path fill="#FFF" d="M48 48H0V0h48z"/>
        <mask id="b" fill="#fff">
            <use xlink:href="#a"/>
        </mask>
        <use fill="#0ABB76" fill-rule="nonzero" xlink:href="#a"/>
        <g fill="#ac8e54" mask="url(#b)">
            <path d="M0 0h48v48H0z"/>
        </g>
        <g fill="#FFF" fill-opacity=".25" mask="url(#b)">
            <path d="M0 0h48v48H0z"/>
        </g>
    </g>
</svg>
