<svg xmlns="http://www.w3.org/2000/svg" xmlns:xlink="http://www.w3.org/1999/xlink" width="48" height="48" viewBox="0 0 48 48">
    <defs>
        <path id="a" d="M10.58 20a14.002 14.002 0 0 0-.58 4c0 1.39.203 2.733.58 4h5.936A19.794 19.794 0 0 1 16 23.952 19.35 19.35 0 0 1 16.506 20H10.58zm.767-2h5.74c1.005-2.878 2.68-5.558 4.937-7.862-4.73.669-8.7 3.7-10.677 7.862zm26.073 2h-5.937c.309 1.319.483 2.673.516 4.048A19.35 19.35 0 0 1 31.493 28h5.927c.377-1.267.58-2.61.58-4 0-1.39-.203-2.733-.58-4zm-.767-2c-1.978-4.162-5.948-7.194-10.678-7.862 2.252 2.298 3.923 4.972 4.928 7.862h5.75zm-7.22 2H18.566a17.377 17.377 0 0 0-.568 4c.033 1.356.225 2.695.568 4h10.865c.343-1.305.535-2.644.567-4a17.377 17.377 0 0 0-.567-4zm-.655-2c-1.011-2.573-2.63-4.96-4.779-7-2.149 2.04-3.767 4.427-4.778 7h9.557zm-17.43 12c1.976 4.162 5.946 7.193 10.676 7.862C19.772 35.564 18.1 32.89 17.096 30h-5.749zm25.305 0H30.91c-1.004 2.878-2.678 5.558-4.936 7.862 4.73-.668 8.7-3.7 10.678-7.862zm-7.875 0h-9.557c1.011 2.573 2.63 4.96 4.778 7 2.15-2.04 3.768-4.427 4.78-7zM24 40c-8.837 0-16-7.163-16-16S15.163 8 24 8s16 7.163 16 16-7.163 16-16 16z"/>
    </defs>
    <g fill="none" fill-rule="evenodd">
        <path d="M0 0h48v48H0z"/>
        <path fill="#FFF" d="M48 48H0V0h48z"/>
        <mask id="b" fill="#fff">
            <use xlink:href="#a"/>
        </mask>
        <use fill="#0ABB76" fill-rule="nonzero" opacity=".485" xlink:href="#a"/>
        <g fill="#d91560" mask="url(#b)">
            <path d="M0 0h48v48H0z"/>
        </g>
        <g fill="#FFF" fill-opacity=".25" mask="url(#b)">
            <path d="M0 0h48v48H0z"/>
        </g>
    </g>
</svg>
