<svg xmlns="http://www.w3.org/2000/svg" xmlns:xlink="http://www.w3.org/1999/xlink" width="48" height="48" viewBox="0 0 48 48">
    <defs>
        <path id="a" d="M24.715 36.352a79.928 79.928 0 0 0 3.436-5.042c1.278-2.048 2.353-4.02 3.169-5.872C32.414 22.955 33 20.78 33 19.012 33 14.035 28.97 10 24 10s-9 4.035-9 9.012c0 1.768.586 3.943 1.68 6.426.816 1.852 1.891 3.824 3.17 5.872a79.928 79.928 0 0 0 3.435 5.042c.264.36.436.592.715.962.279-.37.45-.602.715-.962zm-.31 1.498c.168.223.25.333.314.421.046.063.08.11.107.154.03.047.03.047.084.153.04.084.04.084.089.346-.066.678-.066.678-.999 1.076-.933-.398-.933-.398-.999-1.076.049-.262.049-.262.089-.346.054-.106.054-.106.084-.153.028-.044.061-.091.107-.154.064-.088.146-.198.314-.42l.405-.537.405.536zM24 38c-.93.397-.93.397-.996 1.071.048.258.048.258.085.333.043.086.043.086.053.1-.095-.132-.173-.236-.333-.448-.565-.748-.757-1.004-1.136-1.52a81.88 81.88 0 0 1-3.52-5.167c-1.325-2.124-2.444-4.176-3.303-6.125-1.196-2.714-1.85-5.14-1.85-7.232C13 12.93 17.925 8 24 8s11 4.93 11 11.012c0 2.092-.654 4.518-1.85 7.232-.859 1.949-1.978 4.001-3.302 6.125a81.88 81.88 0 0 1-3.521 5.168c-.379.515-.571.771-1.136 1.519-.16.212-.238.316-.292.39.05-.117.05-.117.097-.375-.066-.674-.066-.674-.996-1.071zm4.431-17.369c1.243-2.266.606-3.99-.993-4.51-2.148-.697-3.405 1.851-3.405 1.852v-.008s-1.238-2.542-3.386-1.844c-1.599.52-2.235 2.244-.993 4.51C20.896 22.897 24.042 26 24.042 26h.002s3.144-3.103 4.387-5.369z"/>
    </defs>
    <g fill="none" fill-rule="evenodd">
        <path d="M0 0h48v48H0z"/>
        <path fill="transparent" d="M48 48H0V0h48z"/>
        <mask id="b" fill="transparent">
            <use xlink:href="#a"/>
        </mask>
        <use fill="#232323" fill-rule="nonzero" xlink:href="#a"/>
        <g fill="#232323" mask="url(#b)">
            <path d="M0 0h48v48H0z"/>
        </g>
        <g fill="transparent" fill-opacity=".25" mask="url(#b)">
            <path d="M0 0h48v48H0z"/>
        </g>
    </g>
</svg>
