<svg xmlns="http://www.w3.org/2000/svg" xmlns:xlink="http://www.w3.org/1999/xlink" width="48" height="48" viewBox="0 0 48 48">
    <defs>
        <path id="a" d="M38.296 31.314a16.11 16.11 0 0 1-14.403 8.908 15.898 15.898 0 0 1-6.83-1.522L7.319 41.95a1 1 0 0 1-1.265-1.265l3.249-9.746a15.895 15.895 0 0 1-1.522-6.827 16.11 16.11 0 0 1 8.904-14.404A15.895 15.895 0 0 1 23.891 8l.944.002c8.181.45 14.714 6.984 15.167 15.22v.888a15.893 15.893 0 0 1-1.706 7.204zm-21.477 5.36a1 1 0 0 1 .767.056 13.9 13.9 0 0 0 6.304 1.492 14.113 14.113 0 0 0 12.62-7.806 13.898 13.898 0 0 0 1.492-6.302l.001-.837C37.608 16.114 31.888 10.394 24.78 10h-.891a13.902 13.902 0 0 0-6.306 1.495A14.112 14.112 0 0 0 9.78 24.114a13.898 13.898 0 0 0 1.492 6.302 1 1 0 0 1 .056.767l-2.745 8.236 8.236-2.745zm7.285-18.142a5.203 5.203 0 0 1 7.372 0 5.23 5.23 0 0 1 0 7.386l-7.474 7.498-7.475-7.498a5.234 5.234 0 0 1 0-7.386 5.201 5.201 0 0 1 7.371 0l.104.103.102-.103zm5.144 6.788l.812-.814a3.23 3.23 0 0 0 0-4.562 3.203 3.203 0 0 0-4.539 0l-1.52 1.524-1.52-1.524a3.201 3.201 0 0 0-4.538 0 3.234 3.234 0 0 0 0 4.562l6.059 6.078 5.246-5.264z"/>
    </defs>
    <g fill="none" fill-rule="evenodd">
        <path d="M0 0h48v48H0z"/>
        <path fill="#FFF" d="M48 48H0V0h48z"/>
        <mask id="b" fill="#fff">
            <use xlink:href="#a"/>
        </mask>
        <use fill="#0ABB76" fill-rule="nonzero" xlink:href="#a"/>
        <g fill="#ac8e54" mask="url(#b)">
            <path d="M0 0h48v48H0z"/>
        </g>
        <g fill="#FFF" fill-opacity=".25" mask="url(#b)">
            <path d="M0 0h48v48H0z"/>
        </g>
    </g>
</svg>
