<svg xmlns="http://www.w3.org/2000/svg" xmlns:xlink="http://www.w3.org/1999/xlink" width="48" height="48" viewBox="0 0 48 48">
    <defs>
        <path id="a" d="M35.894 18.5a4.087 4.087 0 0 1 3.11 1.375 3.96 3.96 0 0 1 .95 3.226L37.853 36.6c-.304 1.972-2.036 3.422-4.05 3.4H16.629c-.56 0-1.015-.448-1.015-1V22.5c0-.14.03-.278.088-.406l6.09-13.5c.163-.361.527-.594.928-.594 3.083 0 5.583 2.462 5.583 5.5v5h7.592zM33.815 38a2.022 2.022 0 0 0 2.03-1.702L37.948 22.8a1.98 1.98 0 0 0-.475-1.613 2.05 2.05 0 0 0-1.567-.687h-8.618c-.56 0-1.015-.448-1.015-1v-6c0-1.72-1.259-3.15-2.918-3.444l-5.71 12.656V38h16.171zm-18.202 0V23.5H12.06c-1.12 0-2.03.895-2.03 2V36c0 1.104.91 2 2.03 2h3.553zm1.015 2H12.06C9.818 40 8 38.209 8 36V25.5c0-2.21 1.818-4 4.06-4h4.568c.561 0 1.015.448 1.015 1V39c0 .552-.454 1-1.015 1z"/>
    </defs>
    <g fill="none" fill-rule="evenodd">
        <path d="M0 0h48v48H0z"/>
        <path fill="#FFF" d="M48 48H0V0h48z"/>
        <mask id="b" fill="#fff">
            <use xlink:href="#a"/>
        </mask>
        <use fill="#d91560" fill-rule="nonzero" xlink:href="#a"/>
        <g fill="#d91560" mask="url(#b)">
            <path d="M0 0h48v48H0z"/>
        </g>
        <g fill="#FFF" fill-opacity=".25" mask="url(#b)">
            <path d="M0 0h48v48H0z"/>
        </g>
    </g>
</svg>
