<svg xmlns="http://www.w3.org/2000/svg" xmlns:xlink="http://www.w3.org/1999/xlink" width="48" height="48" viewBox="0 0 48 48">
    <defs>
        <path id="a" d="M23 30.292a2.5 2.5 0 1 1 2 0V34a1 1 0 0 1-2 0v-3.708zM15 20v-3.222C15 11.924 19.036 8 24 8c3.356 0 6.39 1.809 7.944 4.648a1 1 0 0 1-1.754.96C28.985 11.409 26.623 10 24 10c-3.872 0-7 3.04-7 6.778V20h17.3a3.7 3.7 0 0 1 3.7 3.7v12.6a3.7 3.7 0 0 1-3.7 3.7H13.7a3.7 3.7 0 0 1-3.7-3.7V23.7a3.7 3.7 0 0 1 3.7-3.7H15zm-1.3 2a1.7 1.7 0 0 0-1.7 1.7v12.6a1.7 1.7 0 0 0 1.7 1.7h20.6a1.7 1.7 0 0 0 1.7-1.7V23.7a1.7 1.7 0 0 0-1.7-1.7H13.7z"/>
    </defs>
    <g fill="none" fill-rule="evenodd">
        <path d="M0 0h48v48H0z"/>
        <path fill="#FFF" d="M48 48H0V0h48z"/>
        <mask id="b" fill="#fff">
            <use xlink:href="#a"/>
        </mask>
        <use fill="#0ABB76" fill-rule="nonzero" opacity=".487" xlink:href="#a"/>
        <g fill="#ac8e54" mask="url(#b)">
            <path d="M0 0h48v48H0z"/>
        </g>
        <g fill="#FFF" fill-opacity=".25" mask="url(#b)">
            <path d="M0 0h48v48H0z"/>
        </g>
    </g>
</svg>
