<svg xmlns="http://www.w3.org/2000/svg" xmlns:xlink="http://www.w3.org/1999/xlink" width="48" height="48" viewBox="0 0 48 48">
    <defs>
        <path id="a" d="M36.687 12.475C35.207 10.89 33.198 10 31.104 10c-2.094 0-4.103.89-5.583 2.475L24 14.103l-1.522-1.628c-3.083-3.299-8.082-3.299-11.165 0-3.084 3.3-3.084 8.65 0 11.949L24 38l12.687-13.576C38.167 22.84 39 20.69 39 18.45c0-2.241-.832-4.39-2.313-5.975zM24.059 11.11C25.914 9.124 28.45 8 31.104 8s5.19 1.124 7.044 3.11C39.978 13.068 41 15.706 41 18.45c0 2.743-1.022 5.382-2.852 7.34L25.461 39.365a2 2 0 0 1-2.923 0L9.851 25.789c-3.801-4.068-3.801-10.611 0-14.68 3.874-4.145 10.215-4.145 14.089 0l.12.001z"/>
    </defs>
    <g fill="none" fill-rule="evenodd">
        <path d="M0 0h48v48H0z"/>
        <path fill="#FFF" d="M48 48H0V0h48z"/>
        <mask id="b" fill="#fff">
            <use xlink:href="#a"/>
        </mask>
        <use fill="#000" fill-rule="nonzero" xlink:href="#a"/>
        <g fill="#d91560" mask="url(#b)">
            <path d="M0 0h48v48H0z"/>
        </g>
        <g fill="#FFF" fill-opacity=".25" mask="url(#b)">
            <path d="M0 0h48v48H0z"/>
        </g>
    </g>
</svg>
