<?xml version="1.0" encoding="UTF-8"?>
<svg version="1.1" viewBox="0 0 20 20" xmlns="http://www.w3.org/2000/svg">
  <g fill="none" fill-rule="evenodd">
    <g transform="translate(-569 -2796)">
      <g transform="translate(552 2781)">
        <g transform="translate(16 14)">
          <g transform="translate(1 1)">
            <path d="m7.9071 19.554l-7.6976-7.6976c-0.27941-0.27941-0.27941-0.73206 0-1.0115l10.228-10.228c0.27912-0.27912 0.9-0.34529 1.3276-0.31618 0 0 6.3512 0.24706 6.8176 0.71382 0.55176 0.55147 0.88 6.9838 0.88 6.9838 0.043235 0.54147-0.037059 1.0482-0.31618 1.3276l-10.228 10.228c-0.27941 0.27941-0.73206 0.27941-1.0115 0" fill="#F4C6CF"/>
            <path d="m16.696 5.5587c0.125-0.96294-1.0209-1.4671-1.5735-0.91441 0.55265-0.55265 0.048824-1.6982-0.91441-1.5735-0.99588 0.12941-1.5541 1.5421-0.87029 3.3582 1.8165 0.68412 3.2288 0.12559 3.3582-0.87029" fill="#FEFEFE"/>
          </g>
        </g>
      </g>
    </g>
  </g>
</svg>
