<svg xmlns="http://www.w3.org/2000/svg" xmlns:xlink="http://www.w3.org/1999/xlink" width="38" height="38" viewBox="0 0 38 38">
    <defs>
        <path id="cb6v2kf45a" d="M29.048 9.878c-1.172-1.255-2.762-1.96-4.42-1.96s-3.248.705-4.42 1.96l-1.205 1.289-1.205-1.289c-2.441-2.613-6.4-2.613-8.84 0-2.442 2.612-2.442 6.848 0 9.46l10.045 10.75 10.045-10.75c1.173-1.254 1.832-2.955 1.832-4.73 0-1.774-.659-3.476-1.832-4.73zM19.05 8.797c1.469-1.572 3.477-2.463 5.578-2.463 2.101 0 4.109.89 5.578 2.463 1.449 1.55 2.258 3.639 2.258 5.811 0 2.173-.81 4.262-2.259 5.812L20.16 31.17c-.626.67-1.688.67-2.314 0L7.8 20.42c-3.01-3.221-3.01-8.402 0-11.623 3.067-3.283 8.088-3.283 11.155 0h.095z"/>
    </defs>
    <g fill="none" fill-rule="evenodd">
        <g>
            <g>
                <g>
                    <g transform="translate(-976 -447) translate(0 437) translate(812) translate(164 10)">
                        <path d="M0 0H38.006V38.006H0z"/>
                        <mask id="ycxpg8r1lb" fill="#fff">
                            <use xlink:href="#cb6v2kf45a"/>
                        </mask>
                        <use fill="#000" fill-rule="nonzero" xlink:href="#cb6v2kf45a"/>
                        <g fill="#363636" mask="url(#ycxpg8r1lb)">
                            <path d="M0 0H38.006V38.006H0z" transform="rotate(-180 19.003 19.003)"/>
                        </g>
                    </g>
                </g>
            </g>
        </g>
    </g>
</svg>
