<svg xmlns="http://www.w3.org/2000/svg" width="350" height="77" viewBox="0 0 350 77">
    <g fill="#005699" fill-rule="evenodd">
        <g fill-rule="nonzero">
            <path d="M149.369 16.91c0-4.31-2.563-7.365-6.087-7.365-3.685 0-6.195 3-6.195 7.255 0 4.31 2.617 7.364 6.195 7.364 1.762 0 3.043-.6 3.737-1.746-.213 1.31-.587 2.346-1.068 3.164-.8 1.8-1.655 2.182-3.417 2.182-.64 0-1.922 0-2.456-.055v2.127c.747.055 2.35.055 3.097.055 2.723 0 3.951-.6 5.233-3.382.32-.545.48-1.2.587-1.854.214-.6.374-1.528.374-2.837V16.91zm-6.034 5.126c-2.403 0-4.005-2.29-4.005-5.29 0-2.891 1.495-5.182 3.845-5.182 2.403 0 4.005 2.345 4.005 5.345 0 2.891-1.496 5.182-3.845 5.127zM278.699 26.891h2.296v2.836h-2.296zM282.49 9.71v8.18c0 1.528-.16 2.565-.48 3.165-.48.872-1.389 1.363-2.777 1.363-2.35 0-2.616 0-2.83-.054-.908-.164-1.495-.491-1.869-1.037-.427-.654-.64-1.745-.64-3.272V3.327h-2.35v16.146c0 1.745.427 3.054 1.388 3.982.801.818 1.762 1.254 2.937 1.254h4.058c3.15 0 4.753-1.964 4.753-5.836V9.709h-2.19zM268.02 9.71v9.163c0 3.872-1.603 5.836-4.7 5.836h-8.17c-6.194 0-9.344-3.218-9.344-9.6v-5.4h2.243v5.4c0 4.91 2.296 7.31 6.834 7.31h7.69c2.296 0 3.204-.874 3.204-4.528V9.709h2.242zM254.083 6.818h2.35v2.836h-2.35zM259.529 6.818h2.296v2.836h-2.296zM256.806 2.618h2.296v2.836h-2.296zM213.981 26.891h2.296v2.836h-2.296zM192.888 24.71h-12.602v-2.292h10.2c0-2.945-.535-5.345-1.603-7.09-1.281-2.128-3.31-3.273-5.98-3.437h-.854V9.709c4.538 0 7.689 1.855 9.344 5.564 1.015 2.182 1.495 5.29 1.495 9.436zM177.19 18.873v.109c0 6.273-4.646 11.182-10.52 11.182h-.214c-5.927 0-10.466-4.91-10.466-11.291v-3.164h2.296c0 2.073 0 3.218.054 3.546.374 5.4 3.47 8.672 8.277 8.672 5.126 0 8.33-3.818 8.33-9.763h-8.49c.426-6.764 3.79-10.037 9.504-10.037v2.018c-3.524 0-5.767 1.91-6.675 5.673h7.85l.053 3.055zM134.417 9.71v12.217c0 5.4-2.029 7.964-6.781 8.237v-2.237c2.99 0 4.539-1.69 4.539-5.563V9.709h2.242zM122.296 13.255c-1.922-2.073-5.98-3.11-9.238-3.11h-3.684l5.286-6.763h-2.67c-2.082 3.873-5.18 6.927-6.354 9.054h7.476c2.723 0 6.247.873 7.636 2.673 1.174 1.527 1.762 3.546 1.762 6.11 0 .381 0 .817-.054 1.2H100.51c.427-.874.64-2.237.64-3.655V9.6h-2.242v8.182c0 3.49-.855 4.527-3.258 4.527h-3.898c.428-.873.641-2.073.641-3.49V9.654H90.15v8.181c0 3.491-.694 4.528-2.776 4.528h-4.058c.267-1.091.373-2.237.373-3.546V9.71h-2.35v9.982c-.426 5.127-2.883 8.29-6.78 8.29-4.22 0-6.89-3.817-6.89-9.6V9.71h-2.242v9.11c0 6.654 4.058 11.345 9.185 11.345 3.63 0 6.835-2.291 8.276-6.273.054.327.107.6.107.818h42.185v-3.327c0-3.382-.908-6.11-2.884-8.127zM214.034 9.71v8.18c0 1.528-.16 2.565-.48 3.165-.481.872-1.389 1.363-2.777 1.363H208v-6.163c0-4.364-2.243-6.6-5.82-6.6-1.816 0-3.364.709-4.646 2.181-1.228 1.473-1.869 3.273-1.869 5.4 0 2.128.587 3.928 1.762 5.346 1.175 1.418 2.67 2.127 4.486 2.127h3.47l-.747 1.636c-.801 1.8-1.655 2.182-3.418 2.182-.64 0-1.228 0-1.762-.054V30.6c.748.055 1.602.055 2.35.055 2.67 0 3.738-.764 5.02-3.546.48-.873.747-1.636.96-2.4h3.738c3.15 0 4.753-1.964 4.753-5.836V9.709h-2.243zm-8.33 12.708l-3.685.055c-1.228 0-2.242-.655-2.99-1.91-.64-1.036-.908-2.236-.908-3.545 0-1.254.32-2.4 1.015-3.436.747-1.146 1.762-1.746 2.99-1.746 1.175 0 2.083.382 2.724 1.146.587.654.854 1.473.854 2.454v6.982zM229.039 2.455c-1.709 0-3.31 1.09-3.31 2.836 0 .982.213 1.854 2.883 4.527 2.83-1.254 4.165-2.673 4.165-4.418-.054-1.582-1.122-2.945-3.738-2.945zm-1.228 9.654c-3.738 1.418-5.5 3.164-5.5 5.891 0 2.564 2.029 4.964 6.621 4.964 2.777 0 4.913-.655 7.049-2.891l-8.17-7.964zm9.772 9.436c-1.71 2.182-4.966 3.546-8.758 3.546-6.034 0-8.97-3.11-8.97-7.2 0-3.382 1.975-5.236 6.567-7.2-1.708-1.636-2.99-3.055-2.99-5.346 0-3 2.296-5.018 5.767-5.018 4.325 0 5.767 2.673 5.767 4.91 0 3.108-2.51 4.8-4.966 5.89l7.262 7.037c.748-.982 1.175-3.055 1.282-4.091h2.242c0 1.309-.587 3.654-1.869 5.618l5.073 4.854h-3.31l-3.097-3zM163.039 32.891h2.35v2.836h-2.35zM167.417 32.891h2.296v2.836h-2.296z"/>
        </g>
        <path d="M0 43.218h14.961c5.159 0 7.332 2.91 7.332 6.636a5.543 5.543 0 0 1-4.529 5.644v.075c3.264.339 5.7 3.174 5.558 6.467 0 5.48-4.644 7.48-8.692 7.48H0V43.218zm2.708 11.437H13.54c3.682 0 6.045-1.183 6.045-4.685-.02-3.21-2.16-4.25-5.145-4.25H2.708v8.935zm0 12.39h11.509c3.533 0 6.187-1.401 6.187-5.012 0-3.801-2.356-4.869-5.524-4.869H2.708v9.88zM26.402 56.274c.407-4.02 2.58-6.488 9.14-6.488 6.41 0 8.8 1.993 8.8 5.678v10.03c0 1.585.44 2.136 1.51 2.136.48 0 .955-.034 1.435-.075v1.843c-.749.173-1.513.27-2.281.292-2.762 0-2.911-1.884-2.945-3.4h-.088c-.846 1.251-2.708 3.835-8.95 3.835-3.276 0-7.447-1.441-7.447-5.753 0-5.202 5.342-5.786 9.546-6.01 5.97-.334 6.709-.68 6.709-2.544 0-2.768-1.842-3.76-6.337-3.76-4.353.013-6.384 1.142-6.573 4.216h-2.519zm15.402 2.95c-1.185.776-3.047.919-8.496 1.456-3.169.292-5.01 1.251-5.01 3.543 0 2.985 2.58 3.876 5.524 3.876 3.683 0 7.995-1.993 7.995-5.937v-2.937h-.013zM50.99 44.36h2.708v6.052h5.416v2.04h-5.416v12.675c0 1.66.515 2.435 2.708 2.435a13.15 13.15 0 0 0 2.708-.218v2.285a21.92 21.92 0 0 1-2.985.224c-4.238 0-5.159-1.659-5.159-4.76V52.438h-4.143v-2.04h4.163V44.36zM62.885 43h2.708v11.138h.074c.813-2.04 3.683-4.352 7.921-4.352 6.377 0 8.293 3.319 8.293 7.888V69.52h-2.708V57.198c0-3.794-2.322-5.127-5.781-5.127-5.342 0-7.772 2.72-7.772 7.079v10.37h-2.708V43h-.027zM108.994 66.27c-1.882 2.36-5.524 3.876-9.728 3.876-6.648-.007-9.904-3.346-9.904-7.861 0-3.652 2.173-5.712 7.298-7.82-1.916-1.809-3.318-3.319-3.318-5.787 0-3.244 2.546-5.44 6.411-5.44 4.787 0 6.411 2.91 6.411 5.345 0 3.4-2.762 5.236-5.49 6.378l8.07 7.637c.812-1.068 1.286-3.319 1.401-4.427h2.505a12.235 12.235 0 0 1-2.099 6.086l5.612 5.263h-3.723l-3.446-3.25zm-10.832-10.2C94 57.62 92.07 59.538 92.07 62.448c0 2.768 2.247 5.44 7.365 5.44 3.094 0 5.45-.68 7.846-3.176l-9.119-8.642zm1.354-10.547c-1.882 0-3.682 1.183-3.682 3.06 0 1.067.257 2.04 3.202 4.943 3.168-1.36 4.603-2.91 4.603-4.76-.007-1.747-1.184-3.257-4.123-3.257v.014zM124.341 43.218h14.962c5.158 0 7.331 2.91 7.331 6.636a5.543 5.543 0 0 1-4.529 5.644v.075c3.262.342 5.695 3.176 5.552 6.467 0 5.494-4.644 7.52-8.693 7.52h-14.623V43.219zm2.708 11.43h10.798c3.683 0 6.046-1.183 6.046-4.685.006-3.203-2.126-4.243-5.112-4.243h-11.718v8.935l-.014-.007zm0 12.39h11.455c3.534 0 6.187-1.4 6.187-5.012 0-3.8-2.355-4.868-5.524-4.868h-12.104v9.887l-.014-.007zM160.885 49.8c7.365 0 10.865 4.828 10.865 10.2 0 5.372-3.5 10.2-10.865 10.2-7.366 0-10.866-4.828-10.866-10.2 0-5.372 3.5-10.2 10.866-10.2zm0 18.068c5.159 0 8.124-3.285 8.124-7.895 0-4.61-2.986-7.888-8.124-7.888s-8.124 3.284-8.124 7.888c0 4.603 2.945 7.881 8.124 7.881v.014zM193.008 65.712h-.068c-.738 1.625-3.168 4.427-7.812 4.427-7.847 0-10.426-5.495-10.426-10.2 0-5.345 3.277-10.2 10.426-10.2a8.726 8.726 0 0 1 7.812 4.467h.075V43h2.707v26.52h-2.707v-3.808h-.007zm-7.88-13.64c-4.313 0-7.698 3.025-7.698 7.887 0 3.835 2.14 7.895 7.698 7.895 4.529 0 8.035-2.876 8.035-7.895-.006-3.944-2.47-7.888-8.035-7.888zM215.998 50.378h2.945l-10.385 22.746c-1.401 3.026-2.58 3.876-5.599 3.876-.846 0-1.807 0-2.613-.075V74.64c.59.034 1.212.075 1.95.075 1.95 0 2.911-.442 3.791-2.36l1.252-2.658-9.322-19.319h2.945l7.82 15.966 7.216-15.966zM260.354 43.218h2.945l-8.835 26.302h-3.168l-7.92-22.44h-.075l-7.813 22.44h-3.168l-8.733-26.302h3.06l7.298 22.712h.074l7.772-22.712h3.385l7.772 22.712h.074zM273.948 49.8c7.365 0 10.872 4.828 10.872 10.2 0 5.372-3.5 10.2-10.872 10.2-7.373 0-10.866-4.828-10.866-10.2 0-5.372 3.5-10.2 10.866-10.2zm0 18.068c5.158 0 8.124-3.285 8.124-7.895 0-4.61-2.986-7.888-8.124-7.888-5.139 0-8.124 3.284-8.124 7.888 0 4.603 2.938 7.881 8.124 7.881v.014zM288.72 50.378h2.707v4.386h.075c.995-2.285 2.803-4.978 7.332-4.978a8.089 8.089 0 0 1 1.624.15v2.802a14.236 14.236 0 0 0-2.504-.225c-2.945 0-6.52 1.809-6.52 7.263v9.744h-2.708V50.378h-.006zM302.686 43h2.708v16.7l11.678-9.329h4.061l-9.383 7.27 10.094 11.879h-3.608l-8.516-10.112-4.306 3.312v6.8h-2.708V43z"/>
        <path d="M337.056 56.056c-.677-3.1-2.613-3.985-6.594-3.985-2.87 0-5.524.626-5.524 3.285 0 1.992 1.286 2.4 7.108 3.168 5.822.769 8.293 1.81 8.293 5.536 0 3.726-3.093 6.086-9.098 6.086-6.005 0-9.674-1.986-9.674-6.61h2.505c.48 3.21 2.281 4.318 7.182 4.318 3.798 0 6.378-.775 6.378-3.652 0-1.917-1.354-2.767-7.332-3.352s-8.056-1.992-8.056-5.386c0-3.393 2.708-5.678 8.252-5.678 6.228 0 8.8 2.251 9.099 6.27H337.056zM346.676 49.59a3.318 3.318 0 0 1 3.304 3.329 3.318 3.318 0 0 1-3.313 3.32 3.318 3.318 0 0 1-3.308-3.325 3.325 3.325 0 0 1 3.317-3.325zm0 6.255a2.917 2.917 0 0 0 2.724-1.78 2.94 2.94 0 0 0-.606-3.208 2.908 2.908 0 0 0-3.184-.654 2.93 2.93 0 0 0-1.811 2.711 2.89 2.89 0 0 0 .826 2.072c.541.552 1.28.861 2.051.86zm.047-2.72h-.84v1.755h-.44v-3.944h1.517c.894 0 1.287.387 1.287 1.101a1.059 1.059 0 0 1-.989 1.102l1.185 1.754h-.548l-1.172-1.768zm-.84-.387h.983c.52 0 .927-.143.927-.714a.749.749 0 0 0-.927-.68h-.982v1.42-.026z"/>
    </g>
</svg>
