<svg xmlns="http://www.w3.org/2000/svg" xmlns:xlink="http://www.w3.org/1999/xlink" width="350" height="34" viewBox="0 0 350 34">
    <defs>
        <path id="a" d="M0 .218h14.961c5.159 0 7.332 2.91 7.332 6.636a5.543 5.543 0 0 1-4.529 5.644v.075c3.264.339 5.7 3.174 5.558 6.467 0 5.48-4.644 7.48-8.692 7.48H0V.218zm2.708 11.437H13.54c3.682 0 6.045-1.183 6.045-4.685-.02-3.21-2.16-4.25-5.145-4.25H2.708v8.935zm0 12.39v-9.88H14.88c3.168 0 5.524 1.067 5.524 4.868 0 3.611-2.654 5.012-6.187 5.012H2.707zm23.694-10.771c.407-4.02 2.58-6.488 9.14-6.488 6.41 0 8.8 1.993 8.8 5.678v10.03c0 1.585.44 2.136 1.51 2.136.48 0 .955-.034 1.435-.075v1.843c-.749.173-1.513.27-2.281.292-2.762 0-2.911-1.884-2.945-3.4h-.088c-.846 1.251-2.708 3.835-8.95 3.835-3.276 0-7.447-1.441-7.447-5.753 0-5.202 5.342-5.786 9.546-6.01 5.97-.334 6.709-.68 6.709-2.544 0-2.768-1.842-3.76-6.337-3.76-4.353.013-6.384 1.142-6.573 4.216h-2.519zm15.402 2.95c-1.185.776-3.047.919-8.496 1.456-3.169.292-5.01 1.251-5.01 3.543 0 2.985 2.58 3.876 5.524 3.876 3.683 0 7.995-1.993 7.995-5.937v-2.937h-.013zM50.99 1.36h2.708v6.052h5.416v2.04h-5.416v12.675c0 1.66.515 2.435 2.708 2.435a13.15 13.15 0 0 0 2.708-.218v2.285a21.92 21.92 0 0 1-2.985.224c-4.238 0-5.159-1.659-5.159-4.76V9.438h-4.143v-2.04h4.163V1.36zM62.885 0h2.708v11.138h.074c.813-2.04 3.683-4.352 7.921-4.352 6.377 0 8.293 3.319 8.293 7.888V26.52h-2.708V14.198c0-3.794-2.322-5.127-5.781-5.127-5.342 0-7.772 2.72-7.772 7.079v10.37h-2.708V0h-.027zm46.11 23.27c-1.883 2.36-5.525 3.876-9.729 3.876-6.648-.007-9.904-3.346-9.904-7.861 0-3.652 2.173-5.712 7.298-7.82-1.916-1.809-3.318-3.319-3.318-5.787 0-3.244 2.546-5.44 6.411-5.44 4.787 0 6.411 2.91 6.411 5.345 0 3.4-2.762 5.236-5.49 6.378l8.07 7.637c.812-1.068 1.286-3.319 1.401-4.427h2.505a12.235 12.235 0 0 1-2.099 6.086l5.612 5.263h-3.723l-3.446-3.25zm-10.833-10.2C94 14.62 92.07 16.538 92.07 19.448c0 2.768 2.247 5.44 7.365 5.44 3.094 0 5.45-.68 7.846-3.176l-9.119-8.642zm1.354-10.547c-1.882 0-3.682 1.183-3.682 3.06 0 1.067.257 2.04 3.202 4.943 3.168-1.36 4.603-2.91 4.603-4.76-.007-1.747-1.184-3.257-4.123-3.257v.014zM124.341.218h14.962c5.158 0 7.331 2.91 7.331 6.636a5.543 5.543 0 0 1-4.529 5.644v.075c3.262.342 5.695 3.176 5.552 6.467 0 5.494-4.644 7.52-8.693 7.52h-14.623V.219zm2.708 11.43h10.798c3.683 0 6.046-1.183 6.046-4.685.006-3.203-2.126-4.243-5.112-4.243h-11.718v8.935l-.014-.007zm0 12.39h11.455c3.534 0 6.187-1.4 6.187-5.012 0-3.8-2.355-4.868-5.524-4.868h-12.104v9.887l-.014-.007zM160.885 6.8c7.365 0 10.865 4.828 10.865 10.2 0 5.372-3.5 10.2-10.865 10.2-7.366 0-10.866-4.828-10.866-10.2 0-5.372 3.5-10.2 10.866-10.2zm0 18.068c5.159 0 8.124-3.285 8.124-7.895 0-4.61-2.986-7.888-8.124-7.888s-8.124 3.284-8.124 7.888c0 4.603 2.945 7.881 8.124 7.881v.014zm32.123-2.156h-.068c-.738 1.625-3.168 4.427-7.812 4.427-7.847 0-10.426-5.495-10.426-10.2 0-5.345 3.277-10.2 10.426-10.2a8.726 8.726 0 0 1 7.812 4.467h.075V0h2.707v26.52h-2.707v-3.808h-.007zm-7.88-13.64c-4.313 0-7.698 3.025-7.698 7.887 0 3.835 2.14 7.895 7.698 7.895 4.529 0 8.035-2.876 8.035-7.895-.006-3.944-2.47-7.888-8.035-7.888zm30.87-1.694h2.945l-10.385 22.746c-1.401 3.026-2.58 3.876-5.599 3.876-.846 0-1.807 0-2.613-.075V31.64c.59.034 1.212.075 1.95.075 1.95 0 2.911-.442 3.791-2.36l1.252-2.658-9.322-19.319h2.945l7.82 15.966 7.216-15.966zm44.356-7.16h2.945l-8.835 26.302h-3.168l-7.92-22.44h-.075l-7.813 22.44h-3.168L223.587.218h3.06l7.298 22.712h.074L241.791.218h3.385l7.772 22.712h.074L260.354.218zM273.948 6.8c7.365 0 10.872 4.828 10.872 10.2 0 5.372-3.5 10.2-10.872 10.2-7.373 0-10.866-4.828-10.866-10.2 0-5.372 3.5-10.2 10.866-10.2zm0 18.068c5.158 0 8.124-3.285 8.124-7.895 0-4.61-2.986-7.888-8.124-7.888-5.139 0-8.124 3.284-8.124 7.888 0 4.603 2.938 7.881 8.124 7.881v.014zm14.772-17.49h2.707v4.386h.075c.995-2.285 2.803-4.978 7.332-4.978a8.089 8.089 0 0 1 1.624.15v2.802a14.236 14.236 0 0 0-2.504-.225c-2.945 0-6.52 1.809-6.52 7.263v9.744h-2.708V7.378h-.006zM302.686 0h2.708v16.7l11.678-9.329h4.061l-9.383 7.27 10.094 11.879h-3.608l-8.516-10.112-4.306 3.312v6.8h-2.708V0h-.02zm34.37 13.056c-.677-3.1-2.613-3.985-6.594-3.985-2.87 0-5.524.626-5.524 3.285 0 1.992 1.286 2.4 7.108 3.168 5.822.769 8.293 1.81 8.293 5.536 0 3.726-3.093 6.086-9.098 6.086-6.005 0-9.674-1.986-9.674-6.61h2.505c.48 3.21 2.281 4.318 7.182 4.318 3.798 0 6.378-.775 6.378-3.652 0-1.917-1.354-2.767-7.332-3.352s-8.056-1.992-8.056-5.386c0-3.393 2.708-5.678 8.252-5.678 6.228 0 8.8 2.251 9.099 6.27H337.056zm9.62-6.467a3.318 3.318 0 0 1 3.304 3.33 3.318 3.318 0 0 1-3.313 3.32 3.318 3.318 0 0 1-3.308-3.325 3.325 3.325 0 0 1 3.317-3.325zm0 6.256a2.917 2.917 0 0 0 2.724-1.78 2.94 2.94 0 0 0-.606-3.208 2.908 2.908 0 0 0-3.184-.654 2.93 2.93 0 0 0-1.811 2.711 2.89 2.89 0 0 0 .826 2.072c.541.552 1.28.861 2.051.86zm.047-2.72h-.84v1.755h-.44V7.936h1.517c.894 0 1.287.387 1.287 1.101a1.059 1.059 0 0 1-.989 1.102l1.185 1.754h-.548l-1.172-1.768zm-.84-.387h.983c.52 0 .927-.143.927-.714a.749.749 0 0 0-.927-.68h-.982v1.42-.026z"/>
    </defs>
    <g fill="none" fill-rule="evenodd">
        <mask id="b" fill="#fff">
            <use xlink:href="#a"/>
        </mask>
        <use fill="#005699" xlink:href="#a"/>
        <g fill="#005699" mask="url(#b)">
            <path d="M0 0h350v34H0z"/>
        </g>
    </g>
</svg>
