<svg xmlns="http://www.w3.org/2000/svg" width="138" height="85" viewBox="0 0 138 85">
    <g fill="none" fill-rule="evenodd">
        <g fill-rule="nonzero">
            <path fill="#4E3228" d="M10 67.3H.4V20.6h7.7c3.7 0 6.2 1 7.8 3 1.5 2 2.2 5 2.2 9.7 0 5.1-.6 7.7-2.1 9.4l-.6.6c1.2.8 1.9 1.8 2.4 3.2.7 1.6 1 3.7 1 7.5 0 6.2-.7 9-2.6 11.1-1.5 1.4-3.7 2.2-6.2 2.2zm-9.2-.4H10c2.4 0 4.5-.7 5.9-2.1 1.9-1.9 2.5-4.7 2.5-10.8 0-3.7-.3-5.7-1-7.3-.6-1.4-1.3-2.3-2.5-3.2l-.2-.2.2-.2c.2-.2.5-.4.7-.7 1.5-1.7 2-4.1 2-9.2 0-4.6-.6-7.6-2.1-9.5-1.5-2-3.8-2.9-7.4-2.9H.8v46.1zm8.6-6.1h-2V46.6h1.3c2 0 2.9.3 2.9 5.9v3.6c0 4.5-.8 4.7-2.2 4.7zm-1.6-.4h1.6c1.1 0 1.8 0 1.8-4.1v-3.6c0-5.5-.8-5.5-2.5-5.5h-.9v13.2zm1.1-19.9H7.4V27.3h1.1c1.9 0 2.5.4 2.5 4.7v4.5c.1 4-1.4 4-2.1 4zm-1.1-.4h1.1c.7 0 1.8 0 1.8-3.5v-4.5c0-4.3-.7-4.3-2.1-4.3h-.7v12.3h-.1zm81 27.2H71.5V20.6h16.6v7h-9.3v12.2h8v7h-8v13.5h9.9v7h.1zM72 66.9h16.5v-6.2h-9.9V46.4h7.9v-6.2h-8v-13h9.3V21H72v45.9zm56.4.4h-8V47.6l-7.3-27h7.5l3.7 15.1 3.3-15.1h7.7l-7 26.9v19.8h.1zm-7.6-.4h7.2V47.4l6.8-26.4H128l-3.6 16.5-4-16.5h-6.7l7.1 26.5v19.4zm-83-46.1v-.2h-9.4l-6.1 46.5v.2h7.1l1.4-12h4.6l1.4 12h7.1l-6.1-46.5zm-2 34.2h-5.3l-1.4 12h-6.3l6-45.9h8.6l6 45.9h-6.2l-1.4-12zm-2.6-25.6H33l-1.9 19.8h4l-1.9-19.8zm-.1 2.3l1.5 17h-3.1l1.6-17zm27.3 9.9l7.4-21h-7.5l-4.8 14.3V20.6h-7.3v46.7h7.3V49.6l5.3 17.7h7.5l-7.9-25.7zm-5.1 6h-.2v19.3h-6.5V21h6.5v15.7h.2L60.6 21h6.6L60 41.5v.1l7.7 25.3H61l-5.7-19.3zm58 19.7H106l-4.9-19.5h-.4v19.5h-7.4V20.6h9c4.3 0 9.3 2 9.3 11.5v4.5c0 4.6-1.1 7.3-3.7 9.2l5.4 21.5zm-7-.4h6.5l-5.3-21.3.1-.1c2.6-1.8 3.6-4.4 3.6-8.9v-4.5c0-5.1-1.5-11.1-8.9-11.1h-8.6v45.9h6.6V47.4h1.2l4.8 19.5zm-5.4-25.7h-.7V27.3h.7c1.9 0 2.5.4 2.9.9.5.8.7 2.2.7 4.9v2.1c0 2.7-.2 4.2-.7 4.9-.4.7-1 1.1-2.9 1.1zm-.2-.5h.2c1.7 0 2.3-.3 2.6-.7.5-.7.7-2.1.7-4.7v-2.1c0-2.6-.2-4-.7-4.7-.3-.5-.8-.7-2.6-.7h-.2v12.9z"/>
            <path fill="#C1D39E" d="M16.7 47c-.7-1.7-1.5-2.6-3.5-3.6 1-.5 1.4-.9 1.9-1.4 1.3-1.5 1.8-3.9 1.8-8.7 0-8.6-2.2-11.6-8.8-11.6H1.5v44.4H10c2.2 0 4.1-.7 5.3-1.9C17 62.5 17.6 60 17.6 54c0-3.4-.2-5.5-.9-7zm-10-20.4h1.9c2.6 0 3.3 1.2 3.3 5.5v4.5c0 3.2-.9 4.7-2.9 4.7H6.8V26.6h-.1zm5.7 29.6c0 4.1-.7 5.3-3 5.3H6.7V45.9h2.1c2.9 0 3.6 1.3 3.6 6.7v3.6zm75.3 5.2v4.7h-15V21.7H87v4.7h-9.3V41h8v4.7h-8v15.8h10v-.1zm46.2-39.7l-6.6 25.6v18.9h-5.7V47.4l-6.9-25.7h5.1l4.5 18.4h.3l4.1-18.4h5.2zm-97.2 0h-7.3l-5.8 44.4h4.8l1.4-12h6.7l1.4 12h4.7l-5.9-44.4zm-6.5 28.1l2.4-22.3h.8l2.4 22.3h-5.6zm25-4.8h-.9v21.2h-5V21.7h5V39h.9l5.9-17.3h5l-7 19.9 7.5 24.6h-5.1L55.2 45zm51.5.3c2.8-1.8 3.8-4.1 3.8-8.7v-4.5c0-6.9-2.8-10.4-8.2-10.4h-7.9v44.4h5.1V46.6h2.5l4.9 19.5h5l-5.2-20.8zm-1.4-10c0 5.5-.8 6.6-4.4 6.6h-1.4V26.6h1.4c3.6 0 4.4 1.2 4.4 6.6v2.1z"/>
            <path fill="#4E3228" d="M108 1.1c-3.8 0-6.8 2.8-6.7 7 .1 4.3 3.9 7.1 7.6 7 4-.1 6.7-3 6.7-6.9 0-3.9-3.5-7.1-7.6-7.1zm-4.9 11.1l2.1-2.1c0 .1.1.3.2.4l-2 2c-.1-.2-.2-.2-.3-.3zm-1-6.9l3.4-3.4c.3-.1.5-.2.8-.3l-4.5 4.5c.1-.3.2-.5.3-.8zm-.4 1.1l4.9-4.9c.2 0 .4-.1.6-.1L101.6 7c.1-.1.1-.4.1-.6zm-.1 1.7l6.7-6.7h.5l-1.9 1.9c-.8.3-1.3.8-1.6 1.6l-3.6 3.6c-.1 0-.1-.2-.1-.4zm6.8 3.9c-1.3 0-1.8-.3-2-.7-.3-.5-.6-1.9-.4-3.8.3-2.8 1.4-3.3 2.1-3.4.7-.1 1.5 0 2 .3.2.2.9 1.1.9 3.3 0 2.3-.9 4.3-2.6 4.3zm2.7-6.2l2.1-2.1c.1.1.2.2.2.3l-2.2 2.2c-.1-.1-.1-.3-.1-.4zm-.1-.2c0-.1-.1-.3-.1-.4l1.9-1.9.3.3-2.1 2zm-.2-.6c-.1-.1-.1-.2-.2-.4l1.7-1.7.3.3-1.8 1.8zm-.2-.6c-.1-.1-.1-.2-.2-.3l1.6-1.6c.1.1.2.1.3.2l-1.7 1.7zm-.4-.4l-.3-.3 1.5-1.5c.1.1.2.1.3.2L110.2 4zm-.4-.4c-.1-.1-.2-.1-.3-.2l1.5-1.5c.1.1.2.1.4.2l-1.6 1.5zm-.5-.2c-.1 0-.3-.1-.4-.1l1.5-1.5c.1 0 .3.1.4.1l-1.5 1.5zm-.7-.2h-.5l1.6-1.6c.1 0 .3.1.4.1l-1.5 1.5zm-.7 0c-.2 0-.4 0-.6.1l1.8-1.8c.2 0 .3 0 .5.1l-1.7 1.6zm-2.8 2.2c-.1.2-.1.4-.2.7l-3.2 3.2c0-.1-.1-.3-.1-.5l3.5-3.4zm-.2 1c0 .2 0 .4-.1.6l-3 3c0-.1-.1-.3-.1-.4l3.2-3.2zm-.1.9v.5l-2.7 2.7c-.1-.1-.1-.3-.1-.4l2.8-2.8zm.1.7v.5l-2.5 2.5c-.1-.1-.1-.2-.2-.4l2.7-2.6zm0 .8c0 .2 0 .3.1.5l-2.3 2.3c-.1-.1-.1-.2-.2-.3l2.4-2.5zm.1.6c0 .1.1.3.1.4L103 12c-.1-.1-.2-.2-.2-.3l2.2-2.3zm.4 1.2c.1.1.1.2.2.3l-1.9 1.9-.3-.3 2-1.9zm.3.5c.1.1.2.2.2.3l-1.8 1.8c-.1-.1-.2-.1-.3-.2l1.9-1.9zm.4.4c.1.1.2.2.3.2l-1.7 1.7c-.1-.1-.2-.1-.3-.2l1.7-1.7zm.4.3c.1.1.2.1.3.2l-1.7 1.7c-.1-.1-.2-.1-.4-.2l1.8-1.7zm.6.3c.1.1.3.1.4.1l-1.7 1.7c-.1 0-.3-.1-.4-.1l1.7-1.7zm.6.2h.5l-1.8 1.8c-.1 0-.3-.1-.4-.1l1.7-1.7zm.8 0c.2 0 .5-.1.7-.1l-2 2c-.2 0-.3 0-.5-.1l1.8-1.8zm2.5-2.6l3.3-3.3c0 .2.1.3.1.5l-3.6 3.6c.1-.2.2-.5.2-.8zm.1-.3c0-.2.1-.4.1-.6l3-3c0 .1.1.3.1.4l-3.2 3.2zm.1-.9v-.6l2.7-2.7c0 .1.1.3.1.4l-2.8 2.9zm.1-.8v-.5l2.5-2.5c.1.1.1.2.2.4l-2.7 2.6zm-.1-.8v-.5l2.3-2.3c.1.1.1.2.2.3l-2.5 2.5zm-3.1-5.5l-6.5 6.5v-.5l5.9-5.9h.2c.2-.1.3-.1.4-.1zm-3.1.8l-2.7 2.7c.6-1.3 1.6-2.2 2.7-2.7zm2.3 12l2.3-2.3c.3-.2.6-.5.8-.8l4-4v.5l-6.6 6.6h-.5zm6.8-3.9l-3.4 3.4c-.2.1-.5.2-.8.2l4.4-4.4c0 .3-.1.6-.2.8zm.3-1l-4.8 4.8c-.2 0-.4.1-.6.1l5.5-5.5c-.1.2-.1.4-.1.6zm.1-1.1v.2l-5.8 5.8h-.6l6.4-6.4v.4zm-3.3 5.3l2.8-2.8c-.6 1.2-1.5 2.2-2.8 2.8zm24-12.1l-.2-.2c-.1 0-.2-.1-.2-.1h-5.3c-.1 0-.1 0-.1.1v2.2s.5.5.7.6l.2.2h.6c.1 0 .1 0 .1.1v3.9l-1.2-1.9-2.3-3.8-1.3-1-.3-.2h-5.3c-.1 0-.1 0-.1.1v2.2s.5.5.7.5l.2.2h.8c.1 0 .1 0 .1.1v7.3c0 .1 0 .2-.1.2h-1.4c-.1 0-.2 0-.2.2v2.2c0 .1.6.7.7.7h5.7c.2 0 .2 0 .2-.1v-2.1c0-.1-.1-.1-.1-.2 0 0-.6-.7-.7-.7h-.9c-.1 0-.1 0-.1-.1V6.9c0-.2.1-.1.1 0 .1.1 4.3 7.5 4.3 7.5l.5.4.4.3h3.1c.2 0 .2 0 .2-.2V4.6c0-.2 0-.2.1-.2h1.5c.1 0 .1 0 .1-.1V2c0-.1-.3-.4-.5-.6zM133 13.1l-.8.8h-.5l1.4-1.4v.6h-.1zm0-1.6l-2.4 2.4h-.5L133 11v.5zm0-3.9l-1.8 1.8v-.5L133 7v.6zm0-.8l-1.8 1.8V8l1.8-1.8v.6zm-2.5 2.4l-2 2c-.1-.1-.1-.2-.2-.3l2-2c.1.1.2.2.2.3zm.1.2c.1.1.1.2.2.3l-2 2c-.1-.1-.1-.2-.2-.3l2-2zm.3.5c.1.1.1.1.1.2.1.2.2 0 .2-.1v-.4l1.8-1.8v.5l-3.9 3.9c-.1-.1-.1-.2-.2-.3l2-2zm2.1-1.3v.5l-3.6 3.6c-.1-.1-.1-.2-.2-.3l3.8-3.8zm0 .8v.5l-3.4 3.4c-.1-.1-.1-.2-.2-.3l3.6-3.6zm0 .8v.5l-3.1 3.1s-.1-.2-.2-.3l3.3-3.3zm0-5L131.2 7v-.5l1.8-1.8v.5zm-1.9-2h-.5l1.7-1.7h.5l-1.7 1.7zm2-1.7h.5l-2.3 2.3v-.5-.1l1.8-1.7zm1.6.1v.3l-1.3 1.3h-.3c-.1 0-.1 0-.1.1v.2l-1.8 1.8v-.5l3.4-3.4c.1.1.1.1.1.2zm-3.4 3v-.5l2.6-2.6h.5l-3.1 3.1zm0 1.6v-.5l1.8-1.8v.5l-1.8 1.8zm2.3-2.9l1.1-1.1v.5l-.6.5h-.5v.1zm-3.9-.3v-.5l1-1h.5L129.7 3zm.1-1.5h.7l-.8.8v-.6c0-.2 0-.2.1-.2zm0 1.7l1.7-1.7h.5l-1.7 1.7h-.5zm1.5 4l1.8-1.8V6l-1.8 1.8v-.6zm-3.1 3.6c-.1-.1-.1-.2-.2-.3l2-2c.1.1.1.2.2.3l-2 2zm-7.4 3.1c-.1 0-.1 0 0 0l3.5-3.7v.5l-3.1 3.1h-.4v.1zm1.6-10.6h-.5l1.8-1.8h.5l-1.8 1.8zm2-1.8h.5L122.4 4v-.5l2-2zm-1.9 9l1.8-1.8v.5l-1.9 1.8v-.5h.1zm1.8-2.1l-1.8 1.8v-.5l1.8-1.8v.5zm0-3.2L122.5 7v-.5l1.8-1.8v.5zm-1.8 2.1l1.8-1.8V6l-1.8 1.8v-.5zm0 .8l1.8-1.8v.5l-1.8 1.8v-.5zm2.7-2.6l1.9-1.9c.1.1.1.2.2.3l-1.9 1.9c-.1-.1-.2-.2-.2-.3zm-.1-.2c-.1-.1-.1-.2-.2-.3l1.9-1.9c.1.1.1.2.2.3l-1.9 1.9zm-.3-.5c0-.1-.1-.1-.1-.1 0-.1-.1-.1-.1-.2l1.9-1.9c.1.1.1.2.2.3l-1.9 1.9zm-2.3 1.5v-.5l3.7-3.7c.1.1.1.2.2.3l-3.9 3.9zm0-.8V5l3.4-3.4c0 .1.1.2.2.3l-3.6 3.6zm0-.8v-.5l2.7-2.7h.5l-3.2 3.2zm0 6.6l1.9-1.8v.5l-1.9 1.9v-.6zm1.8-.3v.5l-2.4 2.4h-.5l2.9-2.9zm0 .8v.2c0 .1 0 .1.1.1h.2l-1.8 1.8h-.5l2-2.1zm0-4.2l-1.8 1.8v-.5l1.8-1.9v.6zm3.1-3.6c.1.1.1.2.2.3l-1.9 1.9c-.1-.1-.1-.2-.2-.3l1.9-1.9zm.3.5c.1.1.1.2.2.3L126 6.7c-.1-.1-.1-.2-.2-.3l1.9-1.9zm.3.5c.1.1.1.2.2.3l-2 2c-.1-.1-.1-.2-.2-.3l2-2zm.3.5c.1.1.1.2.2.3l-2 2c-.1-.1-.1-.2-.2-.3l2-2zm.3.5c.1.1.1.2.2.3l-2 2c-.1-.1-.1-.2-.2-.3l2-2zm.3.5c.1.1.1.2.2.3l-2 2c-.1-.1-.1-.2-.2-.3l2-2zm.3.5c.1.1.1.2.2.3l-2 2c-.1-.1-.1-.2-.2-.3l2-2zm.3.4c.1.1.1.2.2.3l-2 2c-.1-.1-.1-.2-.2-.3l2-2zm.3.5c.1.1.1.2.2.3l-2 2c-.1-.1-.1-.2-.2-.3l2-2zm-9.1-4.7v-.4l1.4-1.4h.5l-1.8 1.8c0 .1-.1 0-.1 0zm0-.7V2l.6-.6h.5l-1.1 1.1zm.1-1h.3l-.3.3c-.1-.1-.1-.2 0-.3-.1 0-.1 0 0 0zm.3 1.8l1.8-1.8h.5l-1.8 1.8h-.5zm1.1 8.8l-1.5 1.5V13l1-1h.5v.1zm-1.4 0h.7l-.7.7v-.7c-.1 0-.1 0 0 0zm5.2 1.7l-.1.1h-.5l.6-.6v.5zm-.9.1h-.5l1.4-1.4v.5l-.9.9zm.9-1.8l-1.7 1.8h-.5l1.8-1.8h.4zm-.6 0l-1.8 1.8h-.6l1.8-1.8h.6zm7.6-.4v.5l-1.6 1.6h-.5l2.1-2.1zm-.1 2.2h-.5l.6-.6v.4c0 .2 0 .2-.1.2zm1.7-10.6h-.2l.3-.3v.2c0 .1 0 .1-.1.1zm-39.2-2s-.1-.1-.3-.1h-6.5c-.2 0-.2 0-.2.2v2.1l.2.2.5.5c.1.1.1.1.2.1h.7c.1 0 .1 0 .1.1v1.9c0 .1 0 .1-.2.1h-3.8c-.1 0-.1 0-.1-.1V4.4c0-.1 0-.1.1-.1h1.5s.1 0 .1-.1V3.1c0-.4.1-.9 0-1 0-.1-.1-.1-.1-.1l-.6-.6s-.1-.1-.2-.1h-6.6c-.1 0-.2.1-.2.2v2c0 .1.1.1.1.2.1.1.6.6.7.6h.7s.1 0 .1.1v7.3c0 .1 0 .1-.1.1h-1.3c-.1 0-.2 0-.2.1v2.2c0 .1.1.1.1.2.1.1.5.5.6.5H87.3c.1 0 .2 0 .2-.2v-2.1c0-.1-.7-.7-.8-.7h-.8c-.1 0-.1 0-.1-.1V9.5c0-.1 0-.1.1-.1h3.8c.1 0 .1 0 .1.1v2.2c0 .1 0 .1-.2.1h-1.4c-.1 0-.2 0-.2.1V14c0 .1.1.1.1.2l.2.2.1.1.1.1c.1.1.2.2.3.2h6.7c.2 0 .2 0 .2-.1v-2.1c0-.1-.6-.6-.6-.7-.1-.1-.2-.1-.2-.1h-.8c-.1 0-.1 0-.1-.1V4.4c0-.2 0-.2.1-.2h1.5s.1 0 .1-.1v-.9c0-.4.1-1.1 0-1.1.3-.1-.3-.8-.3-.8zm-5.1 7.2H90l3.2-3.2v.5l-2.8 2.8v-.1h-.1zm2.9-.3L90.4 11v-.5l2.8-2.8v.5zm-2.8 1.5l2.8-2.8v.5l-2.8 2.8v-.5zm2.8-3l-2.8 2.8V9l2.8-2.8v.5zm-2.8 4.6l2.8-2.8V9l-2.8 2.8v-.5zm2.8.1l-2.4 2.4h-.5l3-3v.6h-.1zm0 .2v.4c0 .1 0 .1.1.1l-1.7 1.7H91l2.2-2.2zm.3.5h.5l-1.7 1.7h-.5l1.7-1.7zm-.3-7l-3.4 3.4h-.5l4-4v.6h-.1zM89 8.5h-.5l1.9-1.9 2.8-2.8v.5L89 8.5zm1.3-5.2h-.5l1.9-1.9h.5l-1.9 1.9zm2.1-1.8h.5L90.4 4v-.5l2-2zm-2 3.5l3.5-3.5h.5l-4.1 4.1V5h.1zm0-.2v-.5l2.8-2.8h.5l-3.3 3.3zm3.3-1.5L95 2v.5l-.8.8h-.5zM95 1.5v.2l-1.6 1.6h-.1c-.1 0-.1 0-.1.1v.1l-2.8 2.8v-.5l4.3-4.3h.3c-.1 0 0 0 0 0zm-6.3 1.8v-.4l1.4-1.4h.5l-1.9 1.8zm0-1.3l.6-.6h.5l-1.1 1.1V2zm0-.5h.3l-.3.3v-.3zm.3 1.8l1.9-1.9h.5l-1.9 1.9H89zm1.1 3.3l-1.9 1.9h-.5l1.9-1.9h.5zM85 11.7l-2.1 2.1h-.5l2.6-2.6v.5zm0 .3c0 .1 0 .1.1.1h.3l-1.7 1.7h-.5L85 12zm0-1l-2.9 2.9h-.5l3.4-3.4v.5zm-4.5 1.5l.4-.4h.5l-1 1v-.6h.1zm3.2-11h.5L82 3.7v-.2c0-.1 0-.1-.1-.1h-.1l1.9-1.9zm-2.1 1.8h-.5L83 1.4h.5l-1.9 1.9zm5.1-.3l-.4.4h-.5l.9-.9V3zM85 6.2l-2.9 2.9v-.5L85 5.7v.5zm-2.9 3.2L85 6.5v.1c0 .1 0 .1.1.1h.3L82.1 10v-.6zm2.9-4l-2.9 2.9v-.5L85 4.9v.5zm-2.9 2.2V7L85 4.1v.5l-2.9 3zm3.5-4.3h-.4c-.1 0-.1 0-.1.1v.4l-2.9 2.9v-.5l4.6-4.6v.5l-1.2 1.2zM82.1 6v-.5l4-4h.5L82.1 6zm0-.8v-.5l3.2-3.2h.5l-3.7 3.7zm0-.8v-.5l2.4-2.4h.5l-2.9 2.9zm-1.6 9.3v-.4l1.2-1.2h.3c.1 0 .1 0 .1-.1v-.2L85 8.9v.5l-4.4 4.4c-.1 0-.1 0-.1-.1zm4.8-5.2l1.9-1.9h.5l-1.9 1.9h-.5zM85 9.6v.5l-3.7 3.7h-.5L85 9.6zm2.4-1.1h-.5l1.9-1.9h.5l-1.9 1.9zm1.1-1.9l-1.9 1.9h-.5L88 6.6h.5zm-1.5 0l-1.9 1.9s-.1 0-.1.1l-2.9 2.9V11l4.3-4.3h.6v-.1zm-.8 0l-4.1 4.1v-.5l3.6-3.6h.5zm.5-3.3l.1-.1-.1.1zm-6.2-1l.8-.8h.5l-1.4 1.4v-.6h.1zm.1-.8h.5l-.6.6.1-.6c-.1 0-.1 0 0 0zm-.1 1.7v-.1l1.6-1.6h.5l-1.9 1.9-.2-.2c0 .1 0 .1 0 0zm.1 8.9l-.1.2.1-.2c-.1 0-.1 0 0 0zm6.1 1l-.7.7h-.5l1.2-1.2v.5zm-.1.7h-.3l.4-.4v.3c0 .1 0 .1-.1.1zm.1-1.6v.2l-1.5 1.5h-.5l1.7-1.7h.3c0-.1 0-.1 0 0zm-.5-.1l-1.7 1.7H84l1.7-1.7h.5zm3.9 0l-1.5 1.5V13l.9-.9h.6zm-1.4 0h.6l-.7.7.1-.7zm0 1.7l4.5-4.5v.5l-4 4h-.5zm4.5-3.7v.5L90 13.8h-.5l3.7-3.7zm1.7 2.2v.5l-.9.9h-.5l1.4-1.4zm-.2 1.5h-.6l.7-.7v.5c.1.2.1.2-.1.2zm.2-1.7l-1.7 1.7h-.5l1.7-1.7h.5c-.1 0-.1 0 0 0zm0-8.8h-.4l.5-.5v.4c0 .1 0 .1-.1.1zM55.4 1.9s-.5-.6-.7-.7c-.2-.2-.2-.1-.5-.1H49c-.1 0-.1 0-.1.1v2.4s.2.2.4.3c.2.1.4.3.4.3h.7c.1 0 .1 0 .1.1v5.3c0 .7-.1 2.6-2.2 2.6s-2.2-1.8-2.2-2.9v-5c0-.2 0-.2.2-.2h1.4c.1 0 .1 0 .1-.1V2s-.2-.3-.4-.5S47 1 47 1h-6.7c-.1 0-.1 0-.1.1v2.3s.1.1.4.3c.2.2.4.3.5.3h.9c.1 0 .1 0 .1.1V10c0 1.3.2 2.5 1.2 3.4 1.6 1.6 3.2 1.6 5.3 1.6 2.1 0 5.3-1.1 5.3-4.9V4.2c0-.1 0-.1.1-.1h1.5c.1 0 .1 0 .1-.1V1.9h-.2zm-3-.5h.5l-2.1 2.1v-.3c0-.1 0-.1-.1-.1h-.1l1.8-1.7zm-2 1.8h-.5l1.8-1.8h.5l-1.8 1.8zm3.9 0h-.5l.7-.7V3l-.2.2zm-1.5 3.9l-2 1.9v-.5l1.9-1.9c.1.1.1.3.1.5zm-2 1.1v-.5l1.9-1.9v.5l-1.9 1.9zm0-2.1l1.9-1.9v.5l-1.9 1.9v-.5zm0 3.2l1.9-1.9v.5l-2 2c.1-.2.1-.4.1-.6zm2-3.8l-1.9 1.9v-.5L52.8 5v.5zm.7-2.3H53l1.5-1.5v.5l-1 1zm-.7.7l-1.9 1.9v-.5l1.9-1.9v.5zm-2-.1l2.4-2.4h.5l-2.9 2.9v-.5zm0 6.3l2-2v.5l-2.1 2.1c0-.1 0-.4.1-.6zm1.9 1l-3 3c-.2.1-.5.1-.7.2l3.7-3.7v.5zm1.7-9.7l-3.6 3.7v-.5L54 1.4h.4zm-5.2.8l.8-.8h.5l-1.4 1.4v-.6h.1zm.1-.8h.5l-.6.6.1-.6c-.1 0-.1 0 0 0zm-.1 1.7l1.6-1.7h.5l-1.8 1.8-.3-.1c0 .1 0 .1 0 0zm0 9.1l-2.1 2.1h-.5l1.9-1.9c.3-.1.5-.1.7-.2zm-1 .2l-1.9 1.9c-.2 0-.3 0-.5-.1l1.8-1.8H48.2zm-2.5 1.7c-.1 0-.3-.1-.4-.1l1.7-1.7c.1 0 .3.1.5.1l-1.8 1.7zm1.1-1.9L45.1 14c-.1 0-.3-.1-.4-.1l1.8-1.8c.1 0 .2.1.3.1zm-4.6-9H42l1.8-1.8h.5l-2.1 2.1v-.3zm-.5 0h-.5L43 1.4h.5l-1.8 1.8zm4.7 0h-.5l.9-.9v.5l-.4.4zM45 5.4l-2.8 2.8v-.5L45 4.9v.5zm-2.8 2v-.5L45 4.1v.5l-2.8 2.8zm3.5-4.2h-.5l1.6-1.6v.5l-1.1 1.1zm-3.5 2.6v-.5l3.9-3.9h.5l-4.4 4.4zm0-.8v-.5l3.1-3.1h.5L42.2 5zm0-.8v-.5l2.3-2.3h.5l-2.8 2.8zm0 1.8L45 3.2v.5l-2.8 2.8V6zm0 2.4L45 5.6v.5l-2.8 2.8v-.5zm0 .8L45 6.4V7l-2.8 2.8v-.6zm0 1.1V10L45 7.2v.5l-2.8 2.8v-.2zm.1.4L45 8v.5l-2.7 2.7v-.5zM45 8.8v.5l-2.5 2.5c0-.1-.1-.3-.1-.4L45 8.8zm0 .8v.5l-2.3 2.3c-.1-.1-.1-.2-.2-.4L45 9.6zm.1.7c0 .1.1.3.1.4l-2.1 2.1c-.1-.1-.2-.2-.2-.3l2.2-2.2zm.2.6c.1.1.1.2.2.3l-2 2c-.1-.1-.2-.2-.3-.2l2.1-2.1zm.7.8c.1.1.2.2.3.2l-1.8 1.8c-.1-.1-.2-.1-.4-.2l1.9-1.8zm.7-8.5c.1 0 .1 0 0 0zm-6.2-.9l1-1h.5l-1.5 1.5v-.5zm0-.9h.6l-.7.7.1-.7zm0 1.7l1.7-1.8h.5l-1.8 1.8h-.4c0 .1 0 .1 0 0zm3.2 10.2l1.9-1.9c.1.1.2.2.2.3L44 13.5c-.1-.1-.2-.1-.3-.2zm3.6 1l2.2-2.2c.4-.2.7-.5.9-.9l2.3-2.3v.5l-4.9 4.9h-.5zm.8 0l4.6-4.6v.5l-4 4c-.2.1-.4.1-.6.1zm2.6-.7l-.6.3 2.5-2.5c-.3.8-.9 1.6-1.9 2.2zM27.1 1.1c-3.8 0-6.8 2.8-6.7 7 .1 4.3 3.9 7.1 7.6 7 4-.1 6.7-3 6.7-6.9 0-3.9-3.5-7.1-7.6-7.1zm-4.9 11.1l2.1-2.1c0 .1.1.3.2.4l-2 2-.3-.3zm-1.5-4.1l6.7-6.7h.5l-1.9 2c-.8.3-1.3.8-1.6 1.6l-3.6 3.6c-.1-.1-.1-.3-.1-.5zm6.7 3.9c-1.3 0-1.8-.3-2-.7-.3-.5-.6-1.9-.4-3.8.3-2.8 1.4-3.3 2.1-3.4.7-.1 1.5 0 2 .3.2.2.9 1.1.9 3.3.1 2.3-.8 4.3-2.6 4.3zm2.8-5.8c0-.2-.1-.3-.1-.4l2.1-2.1c.1.1.2.2.2.3l-2.2 2.2zm-.1-.6c0-.1-.1-.3-.1-.4l1.9-1.9.3.3-2.1 2zm-.2-.6c-.1-.1-.1-.2-.2-.4l1.7-1.7.3.3L29.9 5zm-.3-.6c-.1-.1-.1-.2-.2-.3L31 2.5c.1.1.2.1.3.2l-1.7 1.7zm-.3-.4l-.3-.3 1.5-1.5c.1.1.2.1.3.2L29.3 4zm-.4-.4c-.1-.1-.2-.1-.3-.2L30 2c.1.1.2.1.4.2l-1.5 1.4zm-.6-.2c-.1 0-.3-.1-.4-.1l1.5-1.5c.1 0 .3.1.4.1l-1.5 1.5zm-.6-.2h-.5l1.6-1.6c.1 0 .3.1.4.1l-1.5 1.5zm-.8 0c-.2 0-.4 0-.6.1l1.8-1.8c.2 0 .3 0 .5.1l-1.7 1.6zm-2.7 2.2c-.1.2-.1.4-.2.7l-3.2 3.2c0-.2-.1-.3-.1-.5l3.5-3.4zm-.2 1c0 .2 0 .4-.1.6l-3 3c0-.1-.1-.3-.1-.4L24 6.4zm-.1.9v.5l-2.7 2.7c-.1-.1-.1-.3-.1-.4l2.8-2.8zm0 .7v.5L21.4 11c-.1-.1-.1-.2-.2-.4L23.9 8zm.1.8c0 .2 0 .3.1.5l-2.3 2.3c-.1-.1-.1-.2-.2-.3L24 8.8zm.1.6c0 .1.1.3.1.4L22.1 12c-.1-.1-.2-.2-.2-.3l2.2-2.3zm.4 1.2c.1.1.1.2.2.3l-1.9 1.9-.3-.3 2-1.9zm.3.5c.1.1.2.2.2.3l-1.8 1.8c-.1-.1-.2-.1-.3-.2l1.9-1.9zm.4.4c.1.1.2.2.3.2l-1.7 1.7c-.1-.1-.2-.1-.3-.2l1.7-1.7zm.4.3c.1.1.2.1.3.2l-1.7 1.7c-.1-.1-.2-.1-.4-.2l1.8-1.7zm.6.3c.1 0 .3.1.4.1l-1.7 1.7c-.1 0-.3-.1-.4-.1l1.7-1.7zm.6.2h.5l-1.8 1.8c-.1 0-.3-.1-.4-.1l1.7-1.7zm.7 0c.2 0 .5-.1.7-.1l-2 2c-.2 0-.3 0-.5-.1l1.8-1.8zm2.3-1.8c.1-.2.2-.5.3-.8l3.3-3.3c0 .2.1.3.1.5l-3.7 3.6zm.4-1.1c0-.2.1-.4.1-.6l3-3c0 .1.1.3.1.4l-3.2 3.2zm.1-.9v-.6L33 5.2c0 .1.1.3.1.4l-2.8 2.9zm0-.8v-.5l2.5-2.5c.1.1.1.2.2.4l-2.7 2.6zm0-.8v-.5l2.3-2.3c.1.1.1.2.2.3l-2.5 2.5zm-3.2-5.5l-6.5 6.5v-.5l5.9-5.9h.2c.3-.1.4-.1.4-.1zm-5.9 3.9l3.4-3.4c.3-.1.5-.2.8-.3l-4.5 4.5c.1-.3.2-.5.3-.8zm-.4 1.1l4.9-4.9c.2 0 .4-.1.6-.1L20.7 7c.1-.1.1-.4.1-.6zm3.3-4.2l-2.7 2.7c.6-1.3 1.6-2.2 2.7-2.7zm2.3 12l2.3-2.3c.3-.2.6-.5.8-.8l4-4v.5l-6.6 6.6h-.5zm6.8-3.9l-3.4 3.4c-.2.1-.5.2-.8.2l4.4-4.4c0 .3-.1.6-.2.8zm.3-1L28.7 14c-.2 0-.4.1-.6.1l5.5-5.5c-.1.3-.1.5-.1.7zm.1-1.1v.2l-5.8 5.8h-.6l6.4-6.4v.4zm-3.4 5.3l2.8-2.8c-.5 1.2-1.4 2.2-2.8 2.8zm106.6-11c-.3 0-.6-.3-.6-.6s.3-.6.6-.6.6.3.6.6-.2.6-.6.6zm0-1.1c-.3 0-.5.2-.5.5s.2.5.5.5.5-.2.5-.5-.2-.5-.5-.5zm0 .5h.1l.1-.1c0-.1-.1-.2-.2-.2h-.1l.1.3zm-.1.3l-.1.1v-.1h.1l-.1-.7h-.1v-.1h.4s.1.1.1.2 0 .2-.1.2h-.1l.2.3h.1v.1h-.1l-.3-.4v.4zM14.6 9c-.6-.8-1.8-1.4-1.9-1.4v-.1s.9-.5 1.4-.9c.5-.6.8-1.2.6-2.4-.3-1.6-1.7-2.9-4.5-3.1C9.2 1 8.5 1 8 1H1.4c-.2 0-.3 0-.3.1v2.2l.3.3.5.5H3v7.3c0 .2 0 .2-.1.2H1.3h-.1v2.2s0 .1.1.2.6.5.7.6h4.1s4.8 0 5.6-.1c1.4-.1 2.8-1 3.3-2.5.4-1.1.2-2.2-.4-3zm-4 4.7H10l4.2-4.2c0 .2.1.3.1.5l-3.7 3.7zm3.6-3.4v.6l-2.7 2.7c-.2.1-.5.1-.7.1l3.4-3.4zm-5.5 3.4h-.3l5.3-5.3c.1.1.2.2.2.3L9 13.6c-.2.1-.3.1-.3.1zm4.8-5.3l-5.4 5.4h-.5l1.9-1.9c.3-.1.6-.2.8-.4.2-.2.5-.4.6-.8 0-.1.1-.2.1-.3l2.2-2.2c.2 0 .2.1.3.2zM1.6 13.7v-.4l1.5-1.5h.2s.1-.1.1-.2v-.1l2.7-2.8v.5l-4.4 4.4h-.1v.1zM4.8 1.4h.5l-2 2v-.1c0-.1 0-.1-.1-.1H3l1.8-1.8zm-2 1.7h-.6l1.7-1.7h.5L2.8 3.1zm3.3.7L3.4 6.5V6l2.8-2.8v.6h-.1zm3.6-2.4h.5L8.4 3.2H7.8l1.9-1.8c-.1 0 0 0 0 0zm1.1.1L9 3.3h-.5l1.8-1.8c.2-.1.4-.1.5 0zm1.7.4c.1 0 .1.1.2.1l-2 2c-.1-.1-.1-.2-.2-.3l1.8-1.8h.2zm-1.6 2.7v-.2c0-.1 0-.1-.1-.2l2-2c.1.1.2.2.3.2l-2.2 2.2zM9.7 5.9c-.4.1-2.5 0-2.5 0-.1 0-.1 0-.1-.1V4c0-.1 0-.1.1-.1h2.4c.5 0 .7.1.8.2.1.1.2.1.2.2s.1.5 0 .7c-.1.4-.3.8-.9.9zM6.2 8c-.1 0-.1.1-.1.1v.4l-2.7 2.8v-.5L8 6.2h.6L6.7 8h-.5zm-2.8-.4l2.7-2.8v.5L3.4 8v-.4zm0 .8l2.7-2.7v.5L3.3 9v-.6h.1zm0 .8l3-3h.5L3.4 9.7v-.5zm0 .8l3.8-3.8h.5l-4.3 4.3V10zm7-6.5c-.1-.1-.2-.2-.3-.2l1.7-1.7c.1 0 .3.1.4.1l-1.8 1.8zm-.6-.2h-.5L11 1.6c.1 0 .3.1.5.1L9.8 3.3zm-2.3-.1H7l1.8-1.8h.5L7.5 3.2zM6.1 4.6L3.4 7.4v-.5l2.7-2.8v.5zM3.4 5.7v-.5l3.8-3.8h.5L3.4 5.7zm0-.8v-.5l3-3h.5L3.4 4.9zm0-.8v-.5l2.2-2.2h.5L3.4 4.1zm-1.8 9v-.5l.7-.7h.5l-1.2 1.2zM6.9 8l1.8-1.8h.6L7.5 8h-.6zm2.7-1.8c.4 0 .7-.2 1-.4.3-.2.4-.6.4-.9l2.4-2.4c.1.1.2.2.2.3L8.4 8h-.5l1.7-1.8zm4.2-2.6v.5L11 6.9h-.1V7L9.8 8.1c-.1 0-.2 0-.3-.1h-.2l4.5-4.4zm-2.7 5.9l1.7-1.7c.1.1.2.1.3.2l-2 2v-.5zm1.5-1.8L11 9.3c0-.1-.1-.3-.2-.4l1.4-1.4c.2 0 .3.1.4.2zm-1.9 1.1c0-.1-.1-.1-.1-.1s-.1-.1-.2-.1l1.2-1.2c.1 0 .2.1.2.1.1 0 .1 0 .2.1l-1.3 1.2zm-.8-.6L11 7.1c.1 0 .3.1.4.1l-1.2 1.2c0-.1-.1-.1-.3-.2zm2.5-1.7l1.2-1.2c-.2.4-.5.8-1.2 1.2zm-.4.2c-.2.1-.5.2-.7.2l2.6-2.6c0 .2 0 .4-.1.6L12 6.7zM9 8.1H8.4L13.5 3c.1.1.1.3.2.4L9 8.1zM6.1 11l-2.8 2.8h-.5l3.3-3.3v.5zm0 .2v.5l-2 2h-.5l2.5-2.5zm.2.7h.5L5 13.7h-.5l1.8-1.8zm.8 0h.6l-1.9 1.9h-.5l1.8-1.9zm.1-.3c-.1 0-.1 0 0 0-.1-.2-.1-2.3-.1-2.5 0-.1 0-.2.1-.2h2.7c.4 0 .6.1.7.2.1.1.2.1.2.6 0 .2-.1.7-.3 1-.4.5-.8.7-1.3.8-.4.1-2 .1-2 .1zm1.8.2h.3l-1.9 1.9h-.5l1.9-1.9c0 .1.1 0 .2 0zM8.5 1.4L6.7 3.2h-.5L8 1.4h.5zm-5.6 0L1.6 2.7v-.5l.8-.8h.5zm-1.3 0h.5l-.5.5v-.5zm0 1.7V3l1.6-1.6h.5L2 3.1h-.4zm0 8.8H2l-.4.4v-.4zm.4 1.8l4.1-4.1v.5l-3.6 3.6H2zm4 0l1.9-1.9h.6l-1.9 1.9H6zm3.2.1L14 9c.1.1.1.3.1.4l-4.4 4.4h-.5zm4.9-2.5c-.2.9-1.2 1.8-2.3 2.2l2.3-2.3c.1 0 0 .1 0 .1zm60.3 0c-.1-.1-.6-.4-.6-.4s-1.5-1.2-1.7-1.3c-.2-.1-.2-.1-.3.1-.1.1-1 1.7-2.9 2-2 .2-3.4-1.2-3.4-4.1 0-2.5 1.7-4.1 2.7-4.1 1.6-.1 2.3.4 2.8 2.3 0 0 .1.1.3.2.1.1.5.6.6.6H74c.1 0 .1 0 .1-.2V2l-.1-.2s-.7-.8-.8-.8H71v.7c-.5-.4-1.4-.9-3.2-.9-.8 0-2.4 0-4 1.1s-3.3 3.3-3 6.4c.4 3.8 3.6 6.9 7.7 6.8 3.2-.1 5.1-2.4 5.8-3.6.2-.1.2-.1.1-.2zm-1.5-.7c.1.1.2.2.3.2l-2.9 2.9c-.2.1-.5.2-.8.2l3.4-3.3zm-3.7 3.5c-.2 0-.4.1-.6.1l3.9-3.9c.1.1.2.2.3.2l-3.6 3.6zm.1-2.2c.3-.1.6-.2.8-.3l-2.6 2.6H67l2.3-2.3zm-.4 0L66.8 14c-.1 0-.3 0-.5-.1l2-2c.2.1.4.1.6 0zM61.3 9c0-.1 0-.2-.1-.3L64.9 5c-.1.3-.3.6-.4.9l-3.3 3.3c.1-.1.1-.2.1-.2zm7.9-7.8l-1.6 1.6c-.2 0-.5.1-.8.2l1.9-1.9c.2.1.4.1.5.1zm1.9.9c.1.1.2 0 .2-.2v-.1l.5-.5h.5l-2.2 2.2c-.1-.1-.2-.2-.3-.2l1.3-1.2zm-1.5 1.2c-.1-.1-.2-.1-.4-.2l1.3-1.3c.1.1.2.2.3.2l-1.2 1.3zm-.5-.3c-.1 0-.3-.1-.4-.1l1.4-1.4c.1.1.3.1.4.2L69.1 3zm-.7-.1h-.5l1.6-1.6c.2 0 .3.1.4.1l-1.5 1.5zm-3.9 3.3c0 .2-.1.4-.1.6l-2.9 2.9c0-.1-.1-.3-.1-.4l3.1-3.1zm-.1.9v.5l-2.7 2.7c-.1-.1-.1-.3-.2-.4l2.9-2.8zm.1.8c0 .2 0 .3.1.5L62 10.9c-.1-.1-.1-.2-.2-.4l2.7-2.6zm.1.7c0 .2.1.3.1.4l-2.4 2.3c-.1-.1-.1-.2-.2-.3l2.5-2.4zm.1.6c0 .1.1.3.2.4l-2.2 2.2c-.1-.1-.2-.2-.2-.3l2.2-2.3zm.3.6c.1.1.1.2.2.4l-2.2 2-.3-.3L65 9.8zm.2.5c.1.1.2.2.2.3l-2 2-.3-.3 2.1-2zm.4.4l.3.3-2 2c-.1-.1-.2-.1-.3-.2l2-2.1zm.4.4c.1.1.2.2.3.2l-1.9 1.9c-.1-.1-.2-.1-.3-.2l1.9-1.9zm.5.4c.1.1.2.1.4.2L65 13.6c-.1-.1-.3-.1-.4-.2l1.9-1.9zm.5.2c.1.1.3.1.4.1l-1.9 1.9c-.1 0-.3-.1-.4-.1l1.9-1.9zm.6.2c.2 0 .3.1.5.1l-2 2c-.1 0-.3-.1-.4-.1l1.9-2zm5.2-6.2h-.6l.8-.8v.6l-.2.2zm-.8 0h-.6L73 4.1v.6l-1 1zm-.8 0s0-.2-.1-.4l2-2v.6l-1.9 1.8zM71 5c0-.1-.1-.3-.2-.4L73 2.4V3l-2 2zm-.2-.5c-.1-.1-.1-.2-.2-.3l2.5-2.5v.5l-2.3 2.3zm2.3-3.1L70.5 4l-.3-.3 2.3-2.3h.6zm-1.6 0l-.2.2v-.2h.2zm-3-.3l-2.3 2.3c-.3.2-.6.5-.8.8l-4.2 4.2v-.5L68 1.1h.5zm-.7 0l-6.6 6.6v-.6l6-6h.6zm-1.5.1c.2 0 .4-.1.6-.1l-5.7 5.7c0-.2.1-.4.1-.7l5-4.9zm-4.9 4.6c.1-.3.2-.6.3-.8l3.5-3.5c.3-.1.5-.2.8-.3l-4.6 4.6zm1.8-3c.5-.5 1-.8 1.5-1.1l-2.8 2.8c.3-.6.8-1.2 1.3-1.7zm4.6 11.4l3-3c.5-.4.8-.8 1-1l.2-.2s.1 0 .1.1l.2.2-4 4c-.1-.1-.3-.1-.5-.1zm5.7-3c-.7.8-1.5 1.8-2.7 2.4l2.6-2.6h.1v.2z"/>
        </g>
        <text fill="#333" font-family="FilosofiaItalic, Filosofia" font-size="12" font-style="italic">
            <tspan x="43.032" y="84">Middle East</tspan>
        </text>
    </g>
</svg>
