<svg xmlns="http://www.w3.org/2000/svg" xmlns:xlink="http://www.w3.org/1999/xlink" width="26" height="26" viewBox="0 0 26 26">
    <defs>
        <path id="a" d="M7.5 20c0-6.904 5.596-12.5 12.5-12.5S32.5 13.096 32.5 20 26.904 32.5 20 32.5 7.5 26.904 7.5 20z"/>
    </defs>
    <g fill="none" fill-rule="evenodd" transform="translate(-7 -7)">
        <mask id="b" fill="#fff">
            <use xlink:href="#a"/>
        </mask>
        <use fill="#353132" xlink:href="#a"/>
        <path fill="#FFF" d="M20 13.333c-1.81 0-2.037.008-2.748.04-.71.033-1.194.145-1.618.31-.439.17-.81.398-1.181.77-.371.37-.599.742-.77 1.18-.165.424-.278.909-.31 1.618-.031.711-.04.938-.04 2.75 0 1.81.008 2.036.04 2.747.033.71.146 1.194.31 1.618.17.439.399.81.77 1.181.37.371.742.6 1.18.77.424.165.909.277 1.618.31.711.032.938.04 2.749.04 1.81 0 2.037-.008 2.748-.04.71-.033 1.195-.145 1.62-.31.437-.17.809-.399 1.18-.77.37-.37.598-.742.769-1.18.164-.425.276-.91.31-1.619.031-.71.04-.937.04-2.748 0-1.81-.009-2.038-.04-2.749-.034-.71-.146-1.194-.31-1.618a3.272 3.272 0 0 0-.77-1.18 3.258 3.258 0 0 0-1.18-.77c-.425-.165-.91-.277-1.62-.31-.71-.032-.937-.04-2.748-.04H20zm-.597 1.202H20c1.78 0 1.99.006 2.694.038.65.03 1.002.138 1.237.23.311.12.533.265.766.498.234.234.378.456.5.767.09.235.2.587.229 1.237.032.703.039.914.039 2.694 0 1.779-.007 1.99-.04 2.693-.029.65-.137 1.002-.229 1.237-.12.311-.265.533-.499.766a2.062 2.062 0 0 1-.766.499c-.234.091-.587.2-1.237.23-.703.031-.914.038-2.694.038-1.78 0-1.992-.007-2.694-.039-.65-.03-1.003-.138-1.238-.23a2.065 2.065 0 0 1-.767-.498 2.066 2.066 0 0 1-.499-.766c-.091-.235-.2-.588-.23-1.238-.031-.703-.038-.914-.038-2.694 0-1.78.007-1.99.039-2.693.03-.65.138-1.003.23-1.238.12-.311.265-.533.498-.767.233-.233.456-.377.767-.499.235-.091.588-.2 1.238-.23.615-.027.853-.036 2.096-.037v.002zm4.156 1.107a.8.8 0 1 0 0 1.6.8.8 0 0 0 0-1.6zm-3.558.934a3.424 3.424 0 1 0 0 6.848 3.424 3.424 0 0 0 0-6.848zm0 1.202a2.222 2.222 0 1 1 0 4.444 2.222 2.222 0 0 1 0-4.444z" mask="url(#b)"/>
    </g>
</svg>
