<?xml version="1.0" standalone="no"?>
<!DOCTYPE svg PUBLIC "-//W3C//DTD SVG 20010904//EN"
 "http://www.w3.org/TR/2001/REC-SVG-20010904/DTD/svg10.dtd">
<svg version="1.0" xmlns="http://www.w3.org/2000/svg"
 width="100" height="24" viewBox="0 0 204 75"
 preserveAspectRatio="xMidYMid meet">

<g transform="translate(0.000000,75.000000) scale(0.100000,-0.100000)"
fill="#000000" stroke="none">
<path d="M253 716 c-92 -30 -176 -106 -220 -201 -23 -50 -28 -73 -28 -140 0
-71 4 -89 33 -147 38 -78 101 -139 180 -176 48 -22 71 -26 142 -26 99 0 171
24 235 78 l40 34 -20 22 c-39 43 -53 44 -99 11 -106 -75 -242 -63 -335 31 -48
48 -71 103 -71 174 0 141 111 254 250 253 66 0 114 -16 164 -54 l37 -28 34 33
35 34 -26 27 c-14 14 -51 39 -82 54 -68 34 -200 44 -269 21z"/>
<path d="M961 714 c-195 -71 -293 -279 -221 -467 28 -74 108 -158 183 -192
158 -73 349 -19 446 126 123 183 53 423 -149 517 -70 33 -192 40 -259 16z
m190 -94 c52 -14 128 -85 155 -145 41 -87 25 -185 -43 -264 -120 -140 -332
-112 -415 56 -27 56 -30 70 -26 126 6 73 24 112 75 163 66 67 160 90 254 64z"/>
<path d="M1670 710 c-86 -40 -120 -89 -120 -172 0 -98 41 -134 222 -198 156
-54 191 -99 132 -169 -58 -69 -179 -64 -286 11 -15 11 -23 8 -49 -19 -39 -38
-35 -54 27 -93 180 -113 434 -20 434 160 0 95 -58 145 -235 205 -44 14 -95 38
-113 52 -28 21 -33 30 -30 61 7 79 128 109 233 57 28 -14 53 -25 57 -25 3 0
16 16 27 36 26 44 20 53 -52 84 -76 33 -187 38 -247 10z"/>
</g>
</svg>
