<svg width="24" height="24" xmlns="http://www.w3.org/2000/svg">
    <g fill="none" fill-rule="evenodd">
        <rect stroke="#0E1111" fill="#FFF" x=".5" y=".5" width="23" height="23" rx="3"/>
        <g fill="#000">
            <path d="M7.816 13.097v1.975h.345c.012 0 .084.003.128-.05.04-.048.027-.119.027-.157v-1.512c0-.016.008-.158-.027-.206-.036-.05-.187-.05-.191-.05h-.282zm0 4.106h.353c.012 0 .131 0 .19-.053a.263.263 0 0 0 .088-.21v-1.52c0-.064-.004-.116-.04-.165-.04-.052-.107-.067-.182-.067h-.409v2.015zm1.29-1.497v.968c0 .164-.01.285-.112.417-.142.176-.44.209-.567.209H7v-.097h.158v-4.106H7V13h1.36c.17 0 .297.034.424.143.21.18.19.4.19.405v1.032c0 .004.008.21-.127.338-.174.165-.309.172-.305.192 0 .029.242.025.416.194.103.102.147.207.147.402zM10.156 16.203h.658l-.309-1.754-.349 1.754zm.27-2.055h-.145v-.073h.893v.073h-.161l.58 3.08h.144v.072h-.875v-.072h.123l-.14-.901h-.71l-.193.9h.144v.073h-.454v-.072h.125l.668-3.08zM13.456 14.36c0-.062.011-.107-.037-.155-.052-.05-.131-.057-.191-.057h-.19v1.504h.224c.07 0 .127-.023.164-.062.046-.048.03-.124.03-.163V14.36zm.198 1.289c0 .02.229.036.386.132.16.099.175.202.175.346v1.1h.153v.073h-.773v-1.288c0-.102.026-.2-.083-.26-.067-.038-.194-.03-.265-.03h-.21v1.506h.15v.072h-.924v-.072h.154v-3.08h-.154v-.072h1.085c.074 0 .351-.015.509.076.171.098.22.23.22.394v.686c0 .034.011.189-.127.296-.128.101-.296.107-.296.12zM15.266 14.621v2.607h.17v.072h-.541v-.072h.167v-3.08h-.167v-.073h.86l.87 2.795v-2.722h-.166v-.073H17v.073h-.171V17.3H16.1z"/>
        </g>
        <g fill="#070707">
            <path d="M5.195 7.398c0-.087.004-.154-.038-.216-.045-.066-.108-.079-.198-.079h-.187v2.14h.224a.19.19 0 0 0 .165-.086c.045-.068.034-.173.034-.228V7.398zm-.423 4h.153v.102H4v-.102h.15V7.103H4v-.102h1.086c.075 0 .352-.02.51.106.172.137.22.322.22.55v1.068a.58.58 0 0 1-.19.456c-.161.133-.427.16-.645.16h-.21v2.057zM7.528 7.425c0-.247-.08-.347-.24-.343-.173 0-.272.088-.272.343v3.658c0 .185.051.329.248.329.193 0 .264-.094.264-.33V7.426zm-.26 4.075c-.711 0-.904-.282-.904-.726V7.803c0-.53.314-.799.924-.803.585-.003.892.344.892.803v2.971c0 .444-.248.73-.912.726zM10.544 7v.906h-.091v-.705h-.516v4.198h.15v.101h-.903v-.101h.147V7.2H8.82v.705h-.091V7h1.816M12.908 7v.906h-.09v-.705h-.516v4.198h.15v.101h-.903v-.101h.146V7.2h-.512v.705h-.091V7h1.816M14.362 9.11h.8v-.394h.11v.99h-.11V9.31h-.8v1.99h.8v-.679h.11v.879h-1.816v-.101h.18V7.1h-.18V7h1.816v.88h-.11V7.2h-.8v1.91M16.85 7.398c0-.087.009-.15-.033-.217-.046-.07-.113-.079-.165-.079h-.164V9.2h.194a.16.16 0 0 0 .141-.087c.039-.066.026-.173.026-.227V7.398zm.17 1.798c0 .028.197.05.332.184.139.138.152.283.152.483V11.4h.132v.101h-.668V9.703c0-.142.023-.28-.07-.362-.059-.054-.168-.043-.23-.043h-.18v2.1h.129v.102h-.797v-.101h.132V7.102h-.132v-.1h.936c.064 0 .302-.021.439.105.147.137.19.322.19.55v.957c0 .048.01.263-.11.413-.11.142-.255.15-.255.169zM18.858 9.894l-.545-2.793h-.13V7h.78v.101h-.126l.46 2.37.407-2.37h-.13V7H20v.101h-.126l-.492 2.8V11.4h.126v.101h-.78v-.101h.13V9.894"/>
        </g>
    </g>
</svg>
