<?xml version="1.0" standalone="no"?>
<!DOCTYPE svg PUBLIC "-//W3C//DTD SVG 1.1//EN" "http://www.w3.org/Graphics/SVG/1.1/DTD/svg11.dtd" >
<svg>
<metadata>
Created by FontForge 20090622 at Mon Oct 23 19:37:20 2017
 By deploy user
Copyright (c) 1991 Adobe Systems Incorporated.  All Rights Reserved.
</metadata>
<defs>
<font id="ATSackersGothic-Medium" horiz-adv-x="833" >
  <font-face 
    font-family="ATSackersGothic"
    font-weight="500"
    font-stretch="normal"
    units-per-em="1000"
    panose-1="2 0 6 5 2 0 0 2 0 3"
    ascent="800"
    descent="-200"
    x-height="518"
    cap-height="750"
    bbox="-216 -235 1234 1040"
    underline-thickness="50"
    underline-position="-50"
    unicode-range="U+0020-U+FB06"
  />
<missing-glyph horiz-adv-x="370" 
 />
    <glyph glyph-name=".notdef" horiz-adv-x="370" 
 />
    <glyph glyph-name=".null" horiz-adv-x="0" 
 />
    <glyph glyph-name="nonmarkingreturn" horiz-adv-x="370" 
 />
    <glyph glyph-name="space" unicode=" " horiz-adv-x="370" 
 />
    <glyph glyph-name="space" unicode="&#xa0;" horiz-adv-x="370" 
 />
    <glyph glyph-name="dollar" unicode="$" horiz-adv-x="889" 
d="M486 -88h-80v72q-50 2 -91 12.5t-77 28.5t-68.5 42.5t-65.5 56.5l56 67q29 -29 55 -50.5t54.5 -36.5t61.5 -23.5t75 -11.5v228h-37t-52 4t-57 13.5t-52.5 29t-38.5 50.5t-15 77q0 63 28 102.5t67.5 62t83 30.5t73.5 8v76h80v-76q72 -6 132.5 -31.5t100.5 -60.5l-50 -72
q-26 18 -48 31.5t-43.5 23t-44 15.5t-47.5 9v-200q15 0 40 -1t55 -6t60.5 -16.5t55.5 -32.5t40.5 -53.5t15.5 -79.5q0 -46 -15.5 -79.5t-40 -57t-54.5 -38.5t-59.5 -23.5t-55.5 -12.5t-42 -5v-72zM486 69l43.5 8.5t57 19t50 38t21.5 64.5q0 36 -20.5 55.5t-49 29t-57.5 11.5
t-45 2v-228zM406 589q-23 0 -50 -3t-51 -14.5t-40 -33.5t-16 -60q0 -30 14 -47.5t36.5 -26.5t50.5 -11.5t56 -2.5v199z" />
    <glyph glyph-name="flourishclose" horiz-adv-x="1296" 
d="M1234 181q0 -29 -8 -60.5t-26 -58.5t-48 -44.5t-74 -17.5q-23 0 -44 10.5t-36.5 27t-24.5 36.5t-9 40q0 33 17 56.5t53 23.5q18 0 35 -16t17 -39q0 -19 -6.5 -32t-15.5 -21t-19 -12.5t-17 -5.5q5 -10 16 -25t35 -15q20 0 39.5 8t34.5 24.5t24.5 42.5t9.5 62
q0 39 -16 74.5t-44.5 63t-67.5 44t-85 16.5q-38 0 -72.5 -12t-66.5 -32t-62.5 -46l-61.5 -55l-83 -76.5t-88 -70t-96 -51.5t-106 -20q-72 0 -124 25.5t-85.5 64t-50 84.5t-16.5 87q0 29 8 61t26 59t48 44.5t75 17.5q23 0 43.5 -10.5t36 -26.5t24.5 -36.5t9 -39.5
q0 -33 -16.5 -56.5t-53.5 -23.5q-18 0 -35 15.5t-17 38.5q0 19 6.5 32.5t15.5 21.5t19 12t18 6q-2 4 -6 11t-10 13t-15 10.5t-21 4.5q-20 0 -39.5 -8t-34.5 -24.5t-24.5 -42.5t-9.5 -62q0 -39 16.5 -75t45 -63.5t67.5 -44t84 -16.5t86.5 17t80 44.5t75.5 62l75 70.5
q34 33 70 63.5t75 54.5t82 38t92 14q72 0 124 -25.5t85.5 -64.5t50 -85t16.5 -87z" />
    <glyph glyph-name="ampersand" unicode="&#x26;" horiz-adv-x="870" 
d="M803 0h-123l-56 57q-20 -14 -47.5 -27.5t-59 -23.5t-66 -16t-69.5 -6q-55 0 -106.5 13.5t-91.5 40.5t-64.5 67.5t-24.5 93.5q0 47 24.5 81.5t58 58t68 37t53.5 18.5q-6 9 -18 23t-24 31t-20.5 35.5t-8.5 36.5q0 32 17 59.5t46.5 47t69 30.5t83.5 11q54 0 105.5 -16
t99.5 -38l-40 -81q-31 17 -71.5 32t-92.5 15q-21 0 -44 -4.5t-42 -12.5t-31 -18t-12 -21q0 -14 9 -25t19 -21l286 -297q20 20 47 54t47 67l72 -47q-14 -25 -26.5 -44t-24.5 -35t-25 -30.5t-28 -29.5zM363 326l-48 -14t-59.5 -24.5t-51 -38t-21.5 -53.5q0 -30 18 -53
t47.5 -39t66 -24t72.5 -8q74 0 115.5 18t57.5 35z" />
    <glyph glyph-name="ampersandalternate" horiz-adv-x="667" 
d="M524 380l20.5 -37t19.5 -40.5t14.5 -45.5t5.5 -52q0 -48 -16 -89t-48 -70t-80 -45.5t-112 -16.5q-58 0 -108 16t-86.5 46t-57.5 73t-21 97q0 50 14.5 85.5t38.5 59.5t54 38.5t60 21.5v2l-35 15t-33.5 22t-25.5 36t-10 58q0 45 21 77.5t53.5 53.5t72 31t76.5 10
q34 0 60 -5.5t46.5 -14t37 -19l31.5 -19.5l-48 -73q-5 3 -16 10.5t-27 14.5t-34.5 12.5t-38.5 5.5q-24 0 -50 -5t-47.5 -15.5t-35 -28t-13.5 -42.5q0 -29 20.5 -47t53 -28.5t71.5 -14.5t76 -4h173v-77zM368 359q-22 0 -58.5 -2t-71 -15.5t-60 -42.5t-25.5 -82
q0 -36 13.5 -63t37 -45.5t56 -27.5t70.5 -9q72 0 114 34t42 100q0 24 -7 48t-16.5 44t-19 36t-15.5 25h-60z" />
    <glyph glyph-name="parenleft" unicode="(" horiz-adv-x="426" 
d="M323 -16q-3 2 -20.5 14.5t-42.5 35t-53 55.5t-52 76.5t-40 97t-17 117.5q1 62 17 114.5t40 94.5t52 74t53 54.5t42.5 34.5l20.5 14l9 -10q-1 -5 -23 -27.5t-48.5 -67.5t-48 -114t-21.5 -167q0 -67 10.5 -120.5t26 -95.5t33.5 -72.5t33.5 -51t26 -32t11.5 -14.5z" />
    <glyph glyph-name="parenright" unicode=")" horiz-adv-x="426" 
d="M102 766l20.5 -14t42.5 -34.5t53 -54.5t52 -74t40 -94.5t17 -114.5q-1 -64 -17 -117.5t-40 -97t-52 -76.5t-53 -55.5t-42.5 -35t-20.5 -14.5l-9 10q0 3 11 14.5t26.5 32t33.5 51t33.5 72.5t26 95.5t10.5 120.5q0 65 -10.5 117.5t-26 93t-33.5 70.5t-33.5 50t-26.5 31
t-11 14z" />
    <glyph glyph-name="asterisk" unicode="*" horiz-adv-x="481" 
d="M267 388h-45v140l-126 -71l-23 40l124 71l-122 70l22 39l125 -69v142h45v-142l121 70l23 -40l-123 -70l123 -70l-22 -39l-122 69v-140z" />
    <glyph glyph-name="careof" unicode="&#x2105;" horiz-adv-x="1204" 
d="M1158 189q0 -53 -21 -91.5t-54 -64t-74 -37.5t-81 -12q-59 0 -102.5 20t-72 51t-42 66.5t-13.5 67.5q0 57 22.5 96t56.5 63t74.5 35t76.5 11q45 0 86.5 -14.5t73.5 -41.5t51 -65t19 -84zM928 44q38 0 68.5 12t52 32t33 46t11.5 55q0 28 -12 54.5t-34 46.5t-52.5 32
t-66.5 12t-66.5 -11t-52 -30.5t-34 -46t-12.5 -57.5q0 -29 12 -55.5t34 -46.5t52.5 -31.5t66.5 -11.5zM481 325q-6 -4 -21.5 -13.5t-40.5 -19t-59.5 -17t-78.5 -7.5q-54 0 -99.5 14.5t-78 40t-50.5 61.5t-18 80q0 48 18.5 86t51 64t75.5 40t93 14q40 0 72.5 -7.5t57.5 -18.5
t43 -22.5t30 -20.5l-36 -53l-29 21t-34 20t-43 15t-55 6q-44 0 -77.5 -11t-56 -30.5t-34 -45.5t-11.5 -56q0 -27 11 -52t33 -44t55.5 -30t78.5 -11q35 0 63.5 7t50.5 16t36.5 18l22.5 14zM380 -53h-66l539 758h66z" />
    <glyph glyph-name="comma" unicode="," horiz-adv-x="389" 
d="M137 -155l22 18t30 28.5t26.5 35.5t11.5 38q0 11 -6.5 15.5t-17 6t-22.5 2.5t-23 5q-13 5 -25 18t-12 41q0 24 17 41.5t41 17.5q15 0 31 -7t28.5 -20.5t20.5 -33.5t8 -46q0 -39 -17.5 -70.5t-39.5 -53t-42 -34t-24 -13.5z" />
    <glyph glyph-name="hyphen" unicode="-" horiz-adv-x="333" 
d="M307 219h-276v75h276v-75z" />
    <glyph glyph-name="period" unicode="." horiz-adv-x="370" 
d="M249 48q0 -27 -19 -45.5t-45 -18.5q-27 0 -45.5 18.5t-18.5 45.5q0 26 18.5 45t45.5 19q26 0 45 -19t19 -45z" />
    <glyph glyph-name="slash" unicode="/" horiz-adv-x="630" 
d="M146 0h-88l431 750h88z" />
    <glyph glyph-name="zero" unicode="0" horiz-adv-x="889" 
d="M827 326q0 -70 -26 -132t-75.5 -108.5t-120.5 -74t-161 -27.5t-161 27.5t-120.5 74t-75.5 108.5t-26 132t26 132t75.5 108.5t120.5 74t161 27.5t161 -27.5t120.5 -74t75.5 -108.5t26 -132zM444 72q75 0 130 22t92 58t55 81.5t18 92.5t-18 92.5t-54.5 81.5t-92 58
t-130.5 22t-130.5 -22t-92 -58t-54.5 -81.5t-18 -92.5t18 -92.5t54.5 -81.5t92 -58t130.5 -22z" />
    <glyph glyph-name="one" unicode="1" horiz-adv-x="611" 
d="M349 0h-88v652h88v-652z" />
    <glyph glyph-name="two" unicode="2" horiz-adv-x="889" 
d="M746 0h-599q0 36 3.5 77t14 81.5t29 78.5t48.5 68.5t73 51.5t102 27l135 14q45 5 74.5 25t29.5 53q0 16 -9 34.5t-30.5 34t-57 25.5t-89.5 10q-51 0 -89.5 -6t-69 -16t-56 -23l-51.5 -26l-41 79q34 17 67.5 32t69.5 25.5t76 16.5t86 6q43 0 92.5 -9t91.5 -31t70 -58.5
t28 -91.5q0 -39 -15.5 -69.5t-41.5 -52t-60 -34t-70 -15.5l-138 -14q-51 -5 -83.5 -27.5t-52 -52.5t-29 -63.5t-14.5 -61.5h506v-88z" />
    <glyph glyph-name="three" unicode="3" horiz-adv-x="889" 
d="M173 597l55.5 26t60.5 23t70 16t83 6q78 0 136 -14.5t96.5 -39.5t57.5 -57t19 -68q0 -28 -8.5 -50t-21 -39.5t-26.5 -30.5t-25 -22q16 -9 37.5 -23t40 -33.5t31.5 -45.5t13 -60q0 -45 -25 -82t-71.5 -63.5t-113 -41t-150.5 -14.5q-59 0 -106.5 7t-87.5 20t-75.5 32
t-69.5 42l48 73l41 -25.5t58.5 -28t81 -23t107.5 -9.5q74 0 126.5 10t85.5 26t48 35t15 37q0 27 -17 48.5t-48.5 37t-75 24t-97.5 8.5h-65v88h65q107 0 152 28t45 71q0 13 -9 29.5t-33.5 31t-67 24.5t-109.5 10q-38 0 -68.5 -5t-57.5 -13t-52 -19l-52 -23z" />
    <glyph glyph-name="four" unicode="4" horiz-adv-x="889" 
d="M669 0h-88v167h-476l-43 88l514 397h93v-397h153v-88h-153v-167zM581 548l-382 -291v-2h382v293z" />
    <glyph glyph-name="five" unicode="5" horiz-adv-x="889" 
d="M217 376q59 20 119.5 35.5t122.5 15.5q79 0 138.5 -19t99 -49.5t59 -70.5t19.5 -82q0 -43 -23 -83t-67.5 -71t-109.5 -49.5t-149 -18.5q-87 0 -171.5 27t-159.5 71l52 72l47.5 -25t62 -27t77 -21.5t93.5 -8.5q38 0 83.5 8t84.5 25t65.5 42.5t26.5 61.5q0 31 -19 55.5
t-50.5 41t-73 25t-86.5 8.5q-44 0 -78.5 -5.5t-65 -15t-60 -23.5l-65.5 -31l-60 52v336h597v-88h-509v-188z" />
    <glyph glyph-name="six" unicode="6" horiz-adv-x="889" 
d="M733 495q-56 38 -120 61.5t-130 23.5q-82 0 -140.5 -26.5t-96.5 -65.5t-56 -83t-18 -80q73 36 153.5 58t162.5 22q55 0 112.5 -10.5t104.5 -35t77 -64.5t30 -98q0 -54 -29.5 -94t-78 -66.5t-110.5 -39.5t-127 -13q-90 0 -161 26.5t-120.5 71.5t-75.5 105t-26 127
q0 72 29.5 136t83 112.5t127 77t160.5 28.5q63 0 112 -12t86 -28.5t62 -33.5l40 -27zM465 72q64 0 113 10.5t81 28.5t48.5 41.5t16.5 49.5q0 18 -11.5 38t-38.5 37t-71.5 28.5t-110.5 11.5q-79 0 -156.5 -23.5t-147.5 -61.5q9 -19 25.5 -46.5t48 -52.5t81 -43t122.5 -18z
" />
    <glyph glyph-name="seven" unicode="7" horiz-adv-x="907" 
d="M328 0h-106l394 564h-484v88h551l54 -65z" />
    <glyph glyph-name="eight" unicode="8" horiz-adv-x="889" 
d="M798 177q0 -43 -23.5 -78.5t-68.5 -61t-110 -39.5t-148 -14q-82 0 -148.5 12.5t-113 38t-71.5 62.5t-25 87q0 34 12 60.5t31.5 46.5t43 34.5t46.5 23.5l-23.5 19t-28 29t-23 40.5t-9.5 54.5q0 52 26 86t69 54t99 28t115 8q27 0 59.5 -2t66.5 -9t65.5 -19t56.5 -32t40 -49
t15 -69q0 -30 -9.5 -53t-23 -39.5t-27.5 -28t-24 -18.5q19 -10 42 -24t42.5 -34t33 -48t13.5 -66zM451 72q71 0 120.5 8t80 22.5t44.5 34.5t14 43q0 32 -19 55t-53.5 37.5t-83 21t-106.5 6.5q-50 0 -98 -6.5t-86.5 -21t-62 -37t-23.5 -53.5q0 -48 68.5 -79t204.5 -31z
M448 388q64 0 105.5 10t66 25t34 32.5t9.5 32.5q0 23 -16 40.5t-44.5 29t-69 17t-88.5 5.5q-62 0 -103.5 -7.5t-67 -19.5t-36.5 -28t-11 -32q0 -26 16.5 -45.5t46 -32.5t70 -20t88.5 -7z" />
    <glyph glyph-name="nine" unicode="9" horiz-adv-x="889" 
d="M163 157q56 -38 120 -61.5t130 -23.5q82 0 140.5 26.5t96.5 65.5t56 83t18 80q-73 -36 -153.5 -58t-162.5 -22q-55 0 -112.5 10.5t-104.5 35t-77 64t-30 98.5q0 53 32 93t82 66.5t111 40t120 13.5q90 0 161 -26.5t120.5 -71.5t75.5 -105t26 -127q0 -72 -29.5 -136
t-83 -112.5t-127 -77t-160.5 -28.5q-63 0 -112 12t-86 28.5t-62 33.5l-40 27zM404 335q79 0 156.5 23.5t147.5 61.5q-9 19 -26 46.5t-48.5 52.5t-80.5 43t-122 18q-65 0 -113.5 -12.5t-80.5 -31.5t-48.5 -42t-16.5 -44q0 -17 11.5 -37t38.5 -37t71.5 -29t110.5 -12z" />
    <glyph glyph-name="colon" unicode=":" horiz-adv-x="370" 
d="M249 48q0 -27 -19 -45.5t-45 -18.5q-27 0 -45.5 18.5t-18.5 45.5q0 26 18.5 45t45.5 19q26 0 45 -19t19 -45zM249 432q0 -27 -19 -45.5t-45 -18.5q-27 0 -45.5 18.5t-18.5 45.5q0 26 18.5 45t45.5 19q26 0 45 -19t19 -45z" />
    <glyph glyph-name="semicolon" unicode=";" horiz-adv-x="389" 
d="M137 -161l22 18t30 28.5t26.5 35.5t11.5 38q0 11 -6.5 15.5t-17 6t-22.5 2.5t-23 5q-13 5 -25 18t-12 41q0 24 17 41.5t41 17.5q15 0 31 -7t28.5 -20.5t20.5 -33.5t8 -46q0 -39 -17.5 -70.5t-39.5 -53t-42 -34t-24 -13.5zM249 432q0 -27 -19 -45.5t-45 -18.5
q-27 0 -45.5 18.5t-18.5 45.5q0 26 18.5 45t45.5 19q26 0 45 -19t19 -45z" />
    <glyph glyph-name="rperiodsuperior" horiz-adv-x="556" 
d="M478 305h-90l-120 178h-183v-178h-75v445h299q26 0 53.5 -5.5t50 -20t37 -40.5t14.5 -66q0 -35 -11.5 -57.5t-28.5 -36.5t-36 -22t-34 -13zM285 558q49 0 76.5 11.5t27.5 48.5q0 33 -25.5 45t-78.5 12h-200v-117h200zM651 359q0 -27 -19 -45.5t-45 -18.5
q-27 0 -45.5 18.5t-18.5 45.5q0 26 18.5 45t45.5 19t45.5 -19t18.5 -45z" />
    <glyph glyph-name="rsperiodsuperior" horiz-adv-x="1148" 
d="M478 305h-90l-120 178h-183v-178h-75v445h299q26 0 53.5 -5.5t50 -20t37 -40.5t14.5 -66q0 -35 -11.5 -57.5t-28.5 -36.5t-36 -22t-34 -13zM285 558q49 0 76.5 11.5t27.5 48.5q0 33 -25.5 45t-78.5 12h-200v-117h200zM1221 359q0 -27 -19 -45.5t-45 -18.5
q-27 0 -45.5 18.5t-18.5 45.5q0 26 18.5 45t45.5 19q26 0 45 -19t19 -45zM869 573q36 -2 67.5 -10.5t54.5 -25t36 -40.5t13 -58q0 -29 -14.5 -55.5t-43.5 -46t-73 -31t-103 -11.5q-65 0 -131.5 19t-117.5 55l41 63q21 -13 41.5 -24t44.5 -19.5t54.5 -13.5t71.5 -5
q43 0 72.5 6.5t48 16.5t26.5 22.5t8 25.5q0 30 -24.5 41t-62.5 14l-127 8q-32 2 -60.5 8t-51 20.5t-35.5 39.5t-13 64q0 22 15 44t43.5 40t70.5 29t97 11q52 0 99.5 -12.5t100.5 -44.5l-37 -63q-24 13 -43.5 22t-39 14t-40.5 7t-47 2q-63 0 -103.5 -17.5t-40.5 -42.5
t28 -34.5t65 -11.5z" />
    <glyph glyph-name="speriodsuperior" horiz-adv-x="593" 
d="M620 359q0 -27 -19 -45.5t-45 -18.5q-27 0 -45.5 18.5t-18.5 45.5q0 26 18.5 45t45.5 19q26 0 45 -19t19 -45zM268 573q36 -2 67.5 -10.5t54.5 -25t36 -40.5t13 -58q0 -29 -14.5 -55.5t-43.5 -46t-73 -31t-103 -11.5q-65 0 -131.5 19t-117.5 55l41 63q21 -13 41.5 -24
t44.5 -19.5t54.5 -13.5t71.5 -5q43 0 72.5 6.5t48 16.5t26.5 22.5t8 25.5q0 30 -24.5 41t-62.5 14l-127 8q-32 2 -60.5 8t-51 20.5t-35.5 39.5t-13 64q0 22 15 44t43.5 40t70.5 29t97 11q52 0 99.5 -12.5t100.5 -44.5l-37 -63q-24 13 -43.5 22t-39 14t-40.5 7t-47 2
q-63 0 -103.5 -17.5t-40.5 -42.5t28 -34.5t65 -11.5z" />
    <glyph glyph-name="question" unicode="?" horiz-adv-x="593" 
d="M272 185h-88v74q0 40 6.5 63.5t34.5 44.5l110 82q36 26 58.5 60.5t22.5 63.5q0 51 -46 78t-137 27q-49 0 -89 -6t-80 -17v92q6 2 25 5t45 6t55 5.5t55 2.5q57 0 105 -10t82.5 -32.5t53.5 -59t19 -90.5q0 -32 -10.5 -59.5t-26.5 -50.5t-35 -41t-36 -31l-100 -76
q-14 -11 -19 -23.5t-5 -33.5v-74zM293 48q0 -27 -19 -45.5t-45 -18.5q-27 0 -45.5 18.5t-18.5 45.5q0 26 18.5 45t45.5 19q26 0 45 -19t19 -45z" />
    <glyph glyph-name="Aswash" 
d="M419 643l-141 -298h277zM814 0h-98l-122 257h-360l-90 -201q-18 -39 -42 -79t-61 -73t-88.5 -54t-123.5 -21h-45l5 89h48q45 0 79 12.5t60 35t46.5 53.5t38.5 68l314 663h88z" />
    <glyph glyph-name="A" unicode="A" 
d="M814 0h-98l-122 257h-360l-118 -257h-98l357 750h88zM419 643l-141 -298h277z" />
    <glyph glyph-name="B" unicode="B" horiz-adv-x="907" 
d="M551 750q44 0 86.5 -11.5t75.5 -36.5t53 -63.5t20 -93.5q0 -32 -7 -57.5t-17.5 -44.5t-23.5 -32t-24 -19q18 -10 36.5 -27t34.5 -40t26 -52t10 -62q0 -65 -24.5 -106.5t-63 -64.5t-86.5 -31.5t-96 -8.5h-418v750h418zM551 428q72 0 109.5 33.5t37.5 87.5q0 47 -36 80
t-111 33h-330v-234h330zM551 88q41 0 74.5 6t57.5 19.5t37 36.5t13 57q0 66 -48.5 99.5t-133.5 33.5h-330v-252h330z" />
    <glyph glyph-name="C" unicode="C" horiz-adv-x="944" 
d="M860 133l-43.5 -40t-70 -49.5t-103.5 -42t-143 -17.5q-76 0 -150.5 24.5t-133.5 73.5t-95.5 122.5t-36.5 170.5t36 170.5t94 122.5t130 73.5t143 24.5q78 0 138.5 -18t105.5 -42.5t74 -49.5t44 -39l-63 -61q-15 13 -42 34t-64.5 40.5t-85.5 33.5t-105 14
q-72 0 -130.5 -25.5t-100 -67.5t-64 -96t-22.5 -112t23 -113t65.5 -97.5t104 -68.5t139.5 -26q66 0 115.5 15t85 36t59 42.5t36.5 34.5z" />
    <glyph glyph-name="D" unicode="D" horiz-adv-x="926" 
d="M508 750q64 0 114.5 -18.5t89 -49t65.5 -70t44 -81t25 -82.5t8 -74t-6.5 -74t-22 -82.5t-41.5 -81t-64.5 -70t-91 -49t-120.5 -18.5h-368v750h368zM508 88q64 0 112.5 28t80.5 70.5t48.5 93t16.5 95.5q0 46 -16.5 96.5t-48.5 93t-80.5 70t-112.5 27.5h-280v-574h280z" />
    <glyph glyph-name="E" unicode="E" horiz-adv-x="852" 
d="M779 0h-638v750h616v-88h-528v-229h278v-88h-278v-257h550v-88z" />
    <glyph glyph-name="F" unicode="F" horiz-adv-x="815" 
d="M235 0h-88v750h616v-88h-528v-229h329v-88h-329v-345z" />
    <glyph glyph-name="G" unicode="G" horiz-adv-x="907" 
d="M823 209q0 -51 -26 -93t-71.5 -71t-107.5 -45t-134 -16q-78 0 -151.5 24t-130.5 72.5t-91.5 123t-34.5 176.5q0 75 29.5 145t83.5 123.5t129.5 85.5t168.5 32q68 0 120.5 -15.5t91.5 -37.5t65.5 -46l43.5 -40l-60 -63l-42.5 35t-57 37.5t-72 29.5t-85.5 12
q-75 0 -135 -25t-103 -66.5t-66 -95.5t-23 -111q0 -68 23 -124.5t65 -97t102 -63.5t134 -23q61 0 107.5 12.5t77.5 33t46.5 46t15.5 51.5v105h-258v88h346v-199z" />
    <glyph glyph-name="H" unicode="H" horiz-adv-x="963" 
d="M810 0h-88v348h-482v-348h-88v750h88v-314h482v314h88v-750z" />
    <glyph glyph-name="I" unicode="I" horiz-adv-x="389" 
d="M238 0h-88v750h88v-750z" />
    <glyph glyph-name="J" unicode="J" horiz-adv-x="815" 
d="M660 290q0 -62 -17.5 -117.5t-56 -97.5t-99 -66.5t-147.5 -24.5q-85 0 -139 20.5t-88.5 51t-54.5 66l-37 64.5l79 40q16 -24 31.5 -51t40.5 -50t63.5 -38t100.5 -15q112 0 174 54t62 164v460h88v-460z" />
    <glyph glyph-name="K" unicode="K" 
d="M816 0h-105l-266 422l-205 -195v-227h-88v750h88v-411l418 411h117l-264 -263z" />
    <glyph glyph-name="L" unicode="L" horiz-adv-x="722" 
d="M708 0h-559v750h88v-662h471v-88z" />
    <glyph glyph-name="M" unicode="M" horiz-adv-x="1037" 
d="M885 0h-88v575h-2l-277 -512l-277 512h-2v-575h-88v750h88l279 -507l279 507h88v-750z" />
    <glyph glyph-name="N" unicode="N" horiz-adv-x="963" 
d="M815 0h-88l-486 611h-2v-611h-88v750h88l486 -619h2v619h88v-750z" />
    <glyph glyph-name="O" unicode="O" horiz-adv-x="1000" 
d="M97 375q0 79 30.5 150t84.5 124.5t127.5 85t160.5 31.5q86 0 160 -31.5t128 -85t84.5 -124.5t30.5 -150t-30.5 -150t-84.5 -124.5t-128 -85t-160 -31.5t-160 31.5t-128 85t-84.5 124.5t-30.5 150zM185 375q0 -62 24 -117.5t66 -96.5t99.5 -65t125.5 -24q67 0 125 24
t100 65t66 96.5t24 117.5t-24 117t-66 96.5t-100 65.5t-125 24q-68 0 -125.5 -24t-99.5 -65.5t-66 -96.5t-24 -117z" />
    <glyph glyph-name="P" unicode="P" horiz-adv-x="852" 
d="M233 0h-88v750h414q35 0 76 -8.5t76.5 -32t59.5 -65.5t24 -109q0 -60 -18.5 -100.5t-50 -66t-75 -36.5t-92.5 -11h-326v-321zM559 409q31 0 58.5 5.5t47 20t31 38.5t11.5 62q0 39 -12.5 64t-33 39t-47.5 19t-55 5h-326v-253h326z" />
    <glyph glyph-name="Q" unicode="Q" horiz-adv-x="1000" 
d="M647 5q-29 -10 -68 -15.5t-79 -5.5q-85 0 -158.5 30.5t-128 83t-85.5 124t-31 153.5t31 153.5t85.5 124t128 83t158.5 30.5t158.5 -30.5t128 -83t85.5 -124t31 -153.5q0 -103 -46.5 -188.5t-126.5 -138.5l80 -84l-78 -49zM667 114q68 42 108 110t40 151q0 62 -24 117
t-66 96.5t-100 65.5t-125 24q-68 0 -125.5 -24t-99.5 -65.5t-66 -96.5t-24 -117t24 -117.5t66 -96.5t99.5 -65t125.5 -24q19 0 38 2t34 7l-44 48l79 47z" />
    <glyph glyph-name="R" unicode="R" horiz-adv-x="889" 
d="M794 0h-101l-173 312h-297v-312h-88v750h374q28 0 61.5 -2.5t67 -10t65 -22t56 -38.5t39 -59t14.5 -83q0 -61 -17.5 -102t-45.5 -67t-62 -38.5t-67 -15.5zM545 400q37 0 69.5 4t57 17.5t38.5 40t14 72.5q0 35 -14 59.5t-37 39.5t-52.5 22t-59.5 7h-338v-262h322z" />
    <glyph glyph-name="S" unicode="S" 
d="M493 440q52 0 103 -10.5t90.5 -35.5t64 -67t24.5 -104q0 -61 -30 -106t-80 -74.5t-114.5 -44t-133.5 -14.5q-86 0 -149 18.5t-107.5 44.5t-73.5 53t-45 45l63 62l41 -38t61 -44.5t88.5 -37t124.5 -15.5q63 0 113 11.5t84 31.5t52 47.5t18 60.5q0 35 -16 59.5t-41 40
t-55 22.5t-58 7h-158q-54 0 -102 9.5t-83.5 32t-56 58t-20.5 88.5q0 39 18.5 79t57.5 73t100.5 53.5t147.5 20.5q64 0 116 -13.5t91 -31.5t66 -36.5l41 -28.5l-55 -69l-44.5 29t-55.5 30t-70.5 23t-90.5 9q-63 0 -107.5 -13.5t-72.5 -33.5t-41 -44.5t-13 -46.5q0 -38 21 -58
t53.5 -29.5t70.5 -11t72 -1.5h91z" />
    <glyph glyph-name="T" unicode="T" horiz-adv-x="759" 
d="M423 0h-88v662h-274v88h636v-88h-274v-662z" />
    <glyph glyph-name="U" unicode="U" horiz-adv-x="963" 
d="M812 291q0 -72 -19.5 -129t-60 -96.5t-103 -60.5t-148.5 -21q-89 0 -152 21t-102.5 60.5t-58 96.5t-18.5 129v459h88v-459q0 -119 62 -169t181 -50t181 50t62 169v459h88v-459z" />
    <glyph glyph-name="V" unicode="V" 
d="M453 0h-76l-357 750h100l296 -624l296 624h100z" />
    <glyph glyph-name="W" unicode="W" horiz-adv-x="1000" 
d="M743 0h-80l-161 580h-2l-151 -580h-80l-256 750h88l207 -595h2l147 595h84l161 -595h2l193 595h88z" />
    <glyph glyph-name="X" unicode="X" horiz-adv-x="778" 
d="M650 0l-260 339l-263 -339h-112l319 410l-264 340h112l208 -270l211 270h112l-266 -340l315 -410h-112z" />
    <glyph glyph-name="Y" unicode="Y" horiz-adv-x="759" 
d="M421 0h-88v347l-317 403h114l249 -316l249 316h114l-321 -403v-347z" />
    <glyph glyph-name="Z" unicode="Z" horiz-adv-x="704" 
d="M678 0h-615l-38 76l520 586h-482v88h570l38 -73l-520 -589h527v-88z" />
    <glyph glyph-name="bracketleft" unicode="[" horiz-adv-x="278" 
d="M221 0h-164v750h164v-55h-76v-640h76v-55z" />
    <glyph glyph-name="Dapostrophe" horiz-adv-x="1056" 
d="M508 750q64 0 114.5 -18.5t89 -49t65.5 -70t44 -81t25 -82.5t8 -74t-6.5 -74t-22 -82.5t-41.5 -81t-64.5 -70t-91 -49t-120.5 -18.5h-368v750h368zM508 88q64 0 112.5 28t80.5 70.5t48.5 93t16.5 95.5q0 46 -16.5 96.5t-48.5 93t-80.5 70t-112.5 27.5h-280v-574h280z
M951 499l22 18t30 28.5t26.5 35.5t11.5 38q0 11 -6.5 15.5t-17 6t-22.5 2.5t-23 5q-13 5 -25 18t-12 41q0 24 17 41.5t41 17.5q15 0 31 -7t28.5 -20.5t20.5 -33.5t8 -46q0 -39 -17.5 -70.5t-39.5 -53t-42 -34t-24 -13.5z" />
    <glyph glyph-name="bracketright" unicode="]" horiz-adv-x="278" 
d="M221 0h-164v55h76v640h-76v55h164v-750z" />
    <glyph glyph-name="circumflex" unicode="&#x2c6;" horiz-adv-x="407" 
d="M146 705h112l95 -125h-90l-61 74l-59 -74h-90z" />
    <glyph glyph-name="baselinerulequarterpt" horiz-adv-x="1000" 
d="M1000 -25h-1000l1 25h999v-25z" />
    <glyph glyph-name="grave" unicode="`" horiz-adv-x="407" 
d="M196 705l79 -125h-88l-111 125h120z" />
    <glyph glyph-name="a" unicode="a" horiz-adv-x="685" 
d="M667 0h-104l-66 121h-316l-64 -121h-100l280 518h88zM340 419l-113 -210h226z" />
    <glyph glyph-name="b" unicode="b" horiz-adv-x="741" 
d="M461 518q23 0 52.5 -4.5t56 -18.5t44.5 -40.5t18 -70.5q0 -21 -2.5 -34.5t-6.5 -24t-9.5 -19.5t-11.5 -20q8 -8 17.5 -18.5t18 -25t14.5 -34.5t6 -47q0 -34 -10.5 -63.5t-34 -51t-61 -34t-91.5 -12.5h-328v518h328zM461 319q35 0 59 12t24 43q0 34 -22.5 45t-60.5 11
h-240v-111h240zM461 88q51 0 80 14t29 53q0 25 -7 40.5t-20.5 23t-33 10t-44.5 2.5h-244v-143h240z" />
    <glyph glyph-name="c" unicode="c" horiz-adv-x="741" 
d="M665 64q-8 -5 -28 -18.5t-53 -27t-78.5 -24t-103.5 -10.5q-71 0 -130 20t-102 56t-66.5 87t-23.5 113q0 60 24 110.5t66 87t98.5 56.5t121.5 20q54 0 97 -10.5t76 -26t56.5 -32l39.5 -28.5l-47 -74l-43.5 28.5t-48.5 26.5t-58 20t-72 8q-51 0 -92.5 -15t-70 -41t-44 -61
t-15.5 -75q0 -34 14 -67t43 -58.5t73 -41t103 -15.5q45 0 82 9t65.5 21t48 24t29.5 19z" />
    <glyph glyph-name="d" unicode="d" horiz-adv-x="759" 
d="M413 518q42 0 88.5 -10t85.5 -38t64.5 -78.5t25.5 -130.5q0 -67 -21.5 -116t-58 -81.5t-84.5 -48t-100 -15.5h-284v518h284zM413 88q36 0 68 10.5t56 31.5t38 53.5t14 76.5q0 48 -14.5 80.5t-39 52.5t-56.5 28.5t-66 8.5h-196v-342h196z" />
    <glyph glyph-name="e" unicode="e" horiz-adv-x="685" 
d="M602 0h-466v518h456v-88h-368v-119h202v-88h-202v-135h378v-88z" />
    <glyph glyph-name="f" unicode="f" horiz-adv-x="667" 
d="M243 0h-88v518h451v-88h-363v-119h214v-88h-214v-223z" />
    <glyph glyph-name="g" unicode="g" horiz-adv-x="722" 
d="M647 76l-39 -26.5t-55.5 -30t-73.5 -25t-93 -10.5q-72 0 -129.5 22.5t-98 60t-62 87.5t-21.5 105q0 54 21 103.5t61 88t98.5 61t133.5 22.5q52 0 92.5 -10t70.5 -24t50.5 -28.5l31.5 -22.5l-51 -71q-43 29 -92.5 48.5t-101.5 19.5q-56 0 -98.5 -15.5t-71 -42t-42.5 -60.5
t-14 -70t14.5 -69.5t43 -59.5t70.5 -41.5t96 -15.5q45 0 89.5 13.5t82.5 36.5v79h-149v88h237v-213z" />
    <glyph glyph-name="h" unicode="h" horiz-adv-x="796" 
d="M645 0h-88v222h-318v-222h-88v518h88v-208h318v208h88v-518z" />
    <glyph glyph-name="i" unicode="i" horiz-adv-x="389" 
d="M238 0h-88v518h88v-518z" />
    <glyph glyph-name="j" unicode="j" horiz-adv-x="648" 
d="M517 232q0 -55 -12 -100.5t-40 -78.5t-74 -51t-114 -18q-57 0 -97.5 15t-68 37t-44 46t-24.5 42l73 49q6 -13 17 -30.5t30 -33t47 -26.5t68 -11q57 0 87.5 16.5t44.5 40.5t16.5 52t2.5 51v286h88v-286z" />
    <glyph glyph-name="k" unicode="k" horiz-adv-x="667" 
d="M623 0h-108l-196 270l-97 -86v-184h-88v518h88v-230l253 230h113l-200 -190z" />
    <glyph glyph-name="l" unicode="l" horiz-adv-x="574" 
d="M534 0h-404v518h88v-430h316v-88z" />
    <glyph glyph-name="m" unicode="m" horiz-adv-x="870" 
d="M719 0h-88v364h-2l-194 -291l-194 291h-2v-364h-88v518h88l196 -298l196 298h88v-518z" />
    <glyph glyph-name="n" unicode="n" horiz-adv-x="796" 
d="M648 0h-88l-324 385v-385h-88v518h88l324 -384v384h88v-518z" />
    <glyph glyph-name="o" unicode="o" 
d="M416 72q54 0 96.5 15t72 41t45 59.5t15.5 71.5q0 37 -15.5 71t-45 60t-72 41t-96.5 15t-96.5 -15t-72 -41t-45 -60t-15.5 -71q0 -38 15.5 -71.5t45 -59.5t72 -41t96.5 -15zM733 259q0 -56 -21.5 -106t-62.5 -87.5t-99.5 -59.5t-133.5 -22q-74 0 -132.5 22t-99.5 59.5
t-63 87.5t-22 106t21.5 106t62.5 87.5t99.5 59.5t133.5 22t133.5 -22t99.5 -59.5t62.5 -87.5t21.5 -106z" />
    <glyph glyph-name="p" unicode="p" horiz-adv-x="704" 
d="M224 0h-88v518h289q31 0 67.5 -4t68.5 -20.5t53.5 -50t21.5 -91.5q0 -49 -15.5 -80.5t-43 -50t-66.5 -26t-86 -7.5h-201v-188zM425 276q31 0 54 2t38.5 10t23 23t7.5 41q0 29 -9 45t-25.5 23.5t-39 8.5t-49.5 1h-201v-154h201z" />
    <glyph glyph-name="q" unicode="q" 
d="M584 -69l-64 64q-15 -4 -28 -6l-25 -4q-13 -1 -25 -1h-26q-74 0 -132.5 22t-99.5 59.5t-63 87.5t-22 106t21.5 106t62.5 87.5t99.5 59.5t133.5 22t133.5 -22t99.5 -59.5t62.5 -87.5t21.5 -106q0 -70 -28.5 -124.5t-94.5 -102.5l60 -64zM546 100q46 26 72.5 68.5
t26.5 90.5q0 37 -15.5 71t-45 60t-72 41t-96.5 15t-96.5 -15t-72 -41t-45 -60t-15.5 -71q0 -38 15.5 -71.5t45 -59.5t72 -41t96.5 -15h14t16 2l-24 28l87 37z" />
    <glyph glyph-name="r" unicode="r" horiz-adv-x="722" 
d="M664 0h-110l-149 212h-182v-212h-88v518h320q39 0 74.5 -7.5t63 -24.5t43.5 -45.5t16 -71.5t-13 -71.5t-33.5 -45.5t-45 -25.5t-47.5 -12.5zM464 300q44 0 72 14.5t28 52.5q0 22 -7 34.5t-20.5 19t-33 8t-44.5 1.5h-236v-130h241z" />
    <glyph glyph-name="s" unicode="s" horiz-adv-x="685" 
d="M548 386l-35.5 19.5t-45 19.5t-58 15t-75.5 6q-72 0 -108.5 -18t-36.5 -51q0 -19 5 -31.5t22.5 -20t50.5 -11t89 -3.5q88 0 139.5 -12.5t78.5 -33.5t35 -48.5t8 -57.5q0 -56 -23.5 -90.5t-60.5 -53t-82.5 -25t-88.5 -6.5q-66 0 -117 10.5t-88.5 24.5t-61.5 29t-37 24
l42 77q22 -14 46 -27.5t54 -24.5t69.5 -18t94.5 -7q35 0 64 4t50 13t32.5 24t11.5 37q0 25 -8.5 38.5t-33 20.5t-69 9.5t-117.5 4.5q-44 1 -81 8.5t-63.5 24t-41 43.5t-14.5 68q0 33 13 63t41.5 53t74 37t110.5 14q47 0 88 -8.5t74 -19.5t57 -22.5t37 -18.5z" />
    <glyph glyph-name="t" unicode="t" horiz-adv-x="611" 
d="M350 0h-88v430h-200v88h486v-88h-198v-430z" />
    <glyph glyph-name="u" unicode="u" horiz-adv-x="796" 
d="M648 225q0 -49 -10 -93t-38 -77t-76.5 -52t-125.5 -19t-125.5 19t-76 52t-38 77t-10.5 93v293h88v-293q0 -35 5 -63.5t22 -48.5t49 -30.5t86 -10.5t86 10.5t49 30.5t22 48.5t5 63.5v293h88v-293z" />
    <glyph glyph-name="v" unicode="v" horiz-adv-x="667" 
d="M369 0h-88l-269 518h100l214 -412l216 412h100z" />
    <glyph glyph-name="w" unicode="w" 
d="M627 0h-88l-121 373h-2l-127 -373h-88l-183 518h94l131 -375h2l130 375h88l121 -375h2l137 375h94z" />
    <glyph glyph-name="x" unicode="x" horiz-adv-x="648" 
d="M632 0h-120l-187 210l-190 -210h-120l249 276l-215 242h117l159 -176l165 176h114l-220 -242z" />
    <glyph glyph-name="y" unicode="y" horiz-adv-x="574" 
d="M331 0h-88v233l-227 285h112l159 -201l159 201h112l-227 -285v-233z" />
    <glyph glyph-name="z" unicode="z" horiz-adv-x="537" 
d="M521 0h-463l-42 69l367 361h-336v88h426l48 -69l-370 -361h370v-88z" />
    <glyph glyph-name="braceleft" unicode="{" horiz-adv-x="537" 
d="M422 -235q-38 1 -75.5 14.5t-67.5 36t-49 53t-19 66.5q0 27 3.5 50t8.5 46q5 26 10.5 50t5.5 44q0 23 -9 43.5t-24.5 36.5t-35.5 28t-41 19v24q21 7 41 18t35.5 27t24.5 36.5t9 45.5q0 20 -5.5 44t-10.5 50q-5 23 -8.5 46t-3.5 50q0 36 19 66.5t49 53t67.5 35.5t75.5 15
v-25q-28 -6 -48 -20t-33 -33t-19.5 -40.5t-6.5 -42.5q0 -20 2 -40.5t5 -44.5l4.5 -41.5t2.5 -37.5q0 -42 -17 -71.5t-41.5 -49.5t-51 -32.5t-45.5 -20.5q19 -8 45.5 -21.5t51 -34t41.5 -49.5t17 -69q0 -14 -2.5 -37.5l-4.5 -41.5q-3 -24 -5 -44.5t-2 -40.5q0 -21 6.5 -42.5
t19.5 -40.5t33 -33t48 -20v-25z" />
    <glyph glyph-name="Oapostrophe" horiz-adv-x="1111" 
d="M97 375q0 79 30.5 150t84.5 124.5t127.5 85t160.5 31.5q86 0 160 -31.5t128 -85t84.5 -124.5t30.5 -150t-30.5 -150t-84.5 -124.5t-128 -85t-160 -31.5t-160 31.5t-128 85t-84.5 124.5t-30.5 150zM185 375q0 -62 24 -117.5t66 -96.5t99.5 -65t125.5 -24q67 0 125 24
t100 65t66 96.5t24 117.5t-24 117t-66 96.5t-100 65.5t-125 24q-68 0 -125.5 -24t-99.5 -65.5t-66 -96.5t-24 -117zM987 499l22 18t30 28.5t26.5 35.5t11.5 38q0 11 -6.5 15.5t-17 6t-22.5 2.5t-23 5q-13 5 -25 18t-12 41q0 24 17 41.5t41 17.5q15 0 31 -7t28.5 -20.5
t20.5 -33.5t8 -46q0 -39 -17.5 -70.5t-39.5 -53t-42 -34t-24 -13.5z" />
    <glyph glyph-name="braceright" unicode="}" horiz-adv-x="537" 
d="M115 -210q28 6 48 20t33 33t19.5 40.5t6.5 42.5q0 20 -2 40.5t-5 44.5l-4.5 41.5t-2.5 37.5q0 40 17 69t41.5 49.5t51 34t45.5 21.5q-19 8 -45.5 20.5t-51 32.5t-41.5 49.5t-17 71.5q0 14 2.5 37.5l4.5 41.5q3 24 5 44.5t2 40.5q0 21 -6.5 42.5t-19.5 40.5t-33 33t-48 20
v25q37 -2 75 -15t68 -35.5t49 -53t19 -66.5q0 -27 -3.5 -50t-8.5 -46q-5 -26 -10.5 -50t-5.5 -44q0 -25 9 -45.5t24.5 -36.5t35.5 -27t41 -18v-24q-21 -7 -41 -19t-35.5 -28t-24.5 -36.5t-9 -43.5q0 -20 5.5 -44t10.5 -50q5 -23 8.5 -46t3.5 -50q0 -36 -19 -66.5t-49 -53
t-68 -36t-75 -14.5v25z" />
    <glyph glyph-name="tilde" unicode="&#x2dc;" horiz-adv-x="407" 
d="M36 580q0 15 3 34t12 36t25.5 28.5t43.5 11.5q22 0 42.5 -5t40.5 -12l37.5 -11.5t32.5 -5.5q11 0 22 10t11 24h64q0 -19 -3 -37.5t-12.5 -33.5t-26.5 -24.5t-45 -9.5q-21 0 -44 5t-44 11l-38.5 11t-26.5 5q-16 0 -23 -12t-7 -25h-64z" />
    <glyph glyph-name="quoteleft" unicode="&#x2018;" horiz-adv-x="389" 
d="M219 488q-5 1 -24.5 13.5t-41.5 34t-39.5 53t-17.5 70.5q0 26 8 46t20.5 33.5t28.5 20.5t31 7q24 0 41 -17.5t17 -41.5q0 -28 -12 -41t-25 -18q-11 -4 -23 -5t-22.5 -2.5t-17 -6t-6.5 -15.5q0 -19 11.5 -38t26.5 -35.5t30 -28.5l22 -18z" />
    <glyph glyph-name="quoteright" unicode="&#x2019;" horiz-adv-x="389" 
d="M163 499l22 18t30 28.5t26.5 35.5t11.5 38q0 11 -6.5 15.5t-17 6t-22.5 2.5t-23 5q-13 5 -25 18t-12 41q0 24 17 41.5t41 17.5q15 0 31 -7t28.5 -20.5t20.5 -33.5t8 -46q0 -39 -17.5 -70.5t-39.5 -53t-42 -34t-24 -13.5z" />
    <glyph glyph-name="quotedblleft" unicode="&#x201c;" horiz-adv-x="667" 
d="M493 488q-5 1 -24.5 13.5t-41.5 34t-39.5 53t-17.5 70.5q0 26 8 46t20.5 33.5t28.5 20.5t31 7q24 0 41 -17.5t17 -41.5q0 -28 -12 -41t-25 -18q-11 -4 -23 -5t-22.5 -2.5t-17 -6t-6.5 -15.5q0 -19 11.5 -38t26.5 -35.5t30 -28.5l22 -18zM227 488q-5 1 -24.5 13.5
t-41.5 34t-39.5 53t-17.5 70.5q0 26 8 46t20.5 33.5t28.5 20.5t31 7q24 0 41 -17.5t17 -41.5q0 -28 -12 -41t-25 -18q-11 -4 -23 -5t-22.5 -2.5t-17 -6t-6.5 -15.5q0 -19 11.5 -38t26.5 -35.5t30 -28.5l22 -18z" />
    <glyph glyph-name="quotedblright" unicode="&#x201d;" horiz-adv-x="667" 
d="M170 499l22 18t30 28.5t26.5 35.5t11.5 38q0 11 -6.5 15.5t-17 6t-22.5 2.5t-23 5q-13 5 -25 18t-12 41q0 24 17 41.5t41 17.5q15 0 31 -7t28.5 -20.5t20.5 -33.5t8 -46q0 -39 -17.5 -70.5t-39.5 -53t-42 -34t-24 -13.5zM436 499l22 18t30 28.5t26.5 35.5t11.5 38
q0 11 -6.5 15.5t-17 6t-22.5 2.5t-23 5q-13 5 -25 18t-12 41q0 24 17 41.5t41 17.5q15 0 31 -7t28.5 -20.5t20.5 -33.5t8 -46q0 -39 -17.5 -70.5t-39.5 -53t-42 -34t-24 -13.5z" />
    <glyph glyph-name="emdash" unicode="&#x2014;" horiz-adv-x="741" 
d="M710 219h-680v75h680v-75z" />
    <glyph glyph-name="csuperior" horiz-adv-x="481" 
d="M483 355l-27.5 -16.5t-50 -23.5t-73 -21t-94.5 -9q-56 0 -103.5 17t-82 48t-53.5 74.5t-19 96.5q0 49 20.5 91t55.5 73t82 48t100 17q49 0 88 -9.5t69 -23t52 -28.5t36 -26l-47 -64q-41 27 -90 49t-108 22q-42 0 -75.5 -12t-56 -32t-34.5 -47t-12 -58q0 -28 10.5 -55.5
t32.5 -50t55.5 -36.5t79.5 -14q40 0 73.5 7t60 16.5t44.5 19.5l28 16z" />
    <glyph glyph-name="cent" unicode="&#xa2;" horiz-adv-x="889" 
d="M503 -106h-80v90q-16 2 -42.5 8t-56.5 18.5t-60.5 32.5t-55.5 50t-40.5 71t-15.5 96q0 51 15 91t39.5 70t55 50.5t60.5 34t56.5 20t44.5 8.5v90h80v-90q71 -8 130.5 -35t97.5 -59l-48 -74q-20 14 -43 28.5t-47 26t-47 18.5t-43 7v-374q55 4 100 20.5t95 51.5l39 -81
q-53 -35 -110.5 -57t-123.5 -22v-90zM423 446q-18 -3 -48.5 -12.5t-60.5 -30.5t-52 -57t-22 -92q0 -49 22 -82.5t51.5 -54.5t60.5 -31.5t49 -13.5v374z" />
    <glyph glyph-name="sterling" unicode="&#xa3;" horiz-adv-x="889" 
d="M712 0h-568v80h92v218h-92v75h92v75q0 42 14 82t44 70.5t78 49t116 18.5q67 0 114.5 -17t78 -44.5t44.5 -63.5t14 -74h-93q0 19 -7.5 40t-25 38.5t-47 29t-73.5 11.5q-46 0 -78 -12.5t-52.5 -33.5t-29.5 -49t-9 -59v-61h189v-75h-189v-218h388v-80z" />
    <glyph glyph-name="rd" horiz-adv-x="1222" 
d="M529 207h-90l-120 178h-183v-178h-75v445h299q26 0 53.5 -5.5t50 -20t37 -40.5t14.5 -66q0 -35 -11.5 -57.5t-28.5 -36.5t-36 -22t-34 -13zM923 282q34 0 66.5 8.5t57 26.5t39.5 45t15 63t-13.5 64t-37 47.5t-56 30t-71.5 10.5h-156v-295h156zM336 460q21 0 39.5 2.5
t33 9t23 18.5t8.5 30q0 33 -25.5 45t-78.5 12h-200v-117h200zM923 652q48 0 93.5 -14.5t81 -43t57 -71t21.5 -98.5q0 -54 -20.5 -95t-55 -68.5t-80.5 -41t-97 -13.5h-231v445h231z" />
    <glyph glyph-name="yen" unicode="&#xa5;" horiz-adv-x="889" 
d="M485 0h-88v247h-213v60h213l-61 73h-152v60h104l-176 212h106l225 -274l226 274h107l-179 -212h102v-60h-151l-63 -73h214v-60h-214v-247z" />
    <glyph glyph-name="florin" unicode="&#x192;" horiz-adv-x="704" 
d="M344 114q-9 -70 -19.5 -119.5t-33.5 -81.5t-63.5 -47t-110.5 -15q-15 0 -29.5 1l-28.5 2l17 81q11 0 21.5 -0.5t21.5 -0.5q41 0 64.5 9.5t37 31.5t20.5 58t15 89l37 266h-154l13 72h152l11 68q6 31 19 56.5t34.5 44t51.5 29t70 10.5q26 0 51 -2l50 -4l-14 -76
q-15 2 -30.5 3t-31.5 1q-46 0 -70 -15t-34.5 -36t-13 -43t-5.5 -36h159l-12 -72h-158z" />
    <glyph glyph-name="dieresis" unicode="&#xa8;" horiz-adv-x="407" 
d="M67 680h92v-100h-92v100zM248 680h92v-100h-92v100z" />
    <glyph glyph-name="guilsinglleft" unicode="&#x2039;" horiz-adv-x="333" 
d="M277 67h-80l-135 193l135 195h80l-115 -195z" />
    <glyph glyph-name="guilsinglright" unicode="&#x203a;" horiz-adv-x="333" 
d="M141 67h-80l115 193l-115 195h80l135 -195z" />
    <glyph glyph-name="guillemotleft" unicode="&#xab;" horiz-adv-x="556" 
d="M267 67h-80l-135 193l135 195h80l-115 -195zM499 67h-80l-135 193l135 195h80l-115 -195z" />
    <glyph glyph-name="oneromannumeral" horiz-adv-x="352" 
d="M220 0h-88v652h88v-652z" />
    <glyph glyph-name="fiveromannumeral" horiz-adv-x="759" 
d="M419 0h-77l-313 652h100l253 -526l250 526h98z" />
    <glyph glyph-name="tenromannumeral" horiz-adv-x="741" 
d="M709 0h-113l-226 288l-225 -288h-113l282 359l-228 293h113l172 -221l177 221h113l-235 -291z" />
    <glyph glyph-name="apostrophec" horiz-adv-x="759" 
d="M698 64q-8 -5 -28 -18.5t-53 -27t-78.5 -24t-103.5 -10.5q-71 0 -130 20t-102 56t-66.5 87t-23.5 113q0 60 24 110.5t66 87t98.5 56.5t121.5 20q54 0 97 -10.5t76 -26t56.5 -32l39.5 -28.5l-47 -74l-43.5 28.5t-48.5 26.5t-58 20t-72 8q-51 0 -92.5 -15t-70 -41t-44 -61
t-15.5 -75q0 -34 14 -67t43 -58.5t73 -41t103 -15.5q45 0 82 9t65.5 21t48 24t29.5 19zM12 499l22 18t30 28.5t26.5 35.5t11.5 38q0 11 -6.5 15.5t-17 6t-22.5 2.5t-23 5q-13 5 -25 18t-12 41q0 24 17 41.5t41 17.5q15 0 31 -7t28.5 -20.5t20.5 -33.5t8 -46
q0 -39 -17.5 -70.5t-39.5 -53t-42 -34t-24 -13.5z" />
    <glyph glyph-name="apostrophes" horiz-adv-x="759" 
d="M623 386l-35.5 19.5t-45 19.5t-58 15t-75.5 6q-72 0 -108.5 -18t-36.5 -51q0 -19 5 -31.5t22.5 -20t50.5 -11t89 -3.5q88 0 139.5 -12.5t78.5 -33.5t35 -48.5t8 -57.5q0 -56 -23.5 -90.5t-60.5 -53t-82.5 -25t-88.5 -6.5q-66 0 -117 10.5t-88.5 24.5t-61.5 29t-37 24
l42 77q22 -14 46 -27.5t54 -24.5t69.5 -18t94.5 -7q35 0 64 4t50 13t32.5 24t11.5 37q0 25 -8.5 38.5t-33 20.5t-69 9.5t-117.5 4.5q-44 1 -81 8.5t-63.5 24t-41 43.5t-14.5 68q0 33 13 63t41.5 53t74 37t110.5 14q47 0 88 -8.5t74 -19.5t57 -22.5t37 -18.5zM13 499l22 18
t30 28.5t26.5 35.5t11.5 38q0 11 -6.5 15.5t-17 6t-22.5 2.5t-23 5q-13 5 -25 18t-12 41q0 24 17 41.5t41 17.5q15 0 31 -7t28.5 -20.5t20.5 -33.5t8 -46q0 -39 -17.5 -70.5t-39.5 -53t-42 -34t-24 -13.5z" />
    <glyph glyph-name="acute" unicode="&#xb4;" horiz-adv-x="407" 
d="M252 580h-88l79 125h120z" />
    <glyph glyph-name="ring" unicode="&#x2da;" horiz-adv-x="407" 
d="M89 694q0 24 9 44.5t24.5 36t36.5 24.5t46 9q24 0 44.5 -9t35.5 -25t24 -36.5t9 -43.5q0 -24 -9 -44.5t-24.5 -36t-36 -24.5t-43.5 -9q-24 0 -45 9t-37 24.5t-25 36t-9 44.5zM205 751q-24 0 -41.5 -17t-17.5 -40t17 -40t42 -17q22 0 39 16t17 41q0 23 -16 40t-40 17z" />
    <glyph glyph-name="caron" unicode="&#x2c7;" horiz-adv-x="407" 
d="M143 705l59 -74l61 74h90l-95 -125h-112l-93 125h90z" />
    <glyph glyph-name="bulletlowercase" horiz-adv-x="593" 
d="M390 259q0 -32 -21.5 -53.5t-53.5 -21.5t-53.5 21.5t-21.5 53.5q0 31 22 53t53 22q32 0 53.5 -22t21.5 -53z" />
    <glyph glyph-name="nd" horiz-adv-x="1222" 
d="M504 207h-70l-294 324v-324h-75v445h67l297 -327v327h75v-445zM904 652q48 0 93.5 -14.5t81 -43t57 -71t21.5 -98.5q0 -54 -20.5 -95t-55 -68.5t-80.5 -41t-97 -13.5h-231v445h231zM904 282q34 0 66.5 8.5t57 26.5t39.5 45t15 63t-13.5 64t-37 47.5t-56 30t-71.5 10.5
h-156v-295h156z" />
    <glyph glyph-name="st" unicode="&#xfb06;" horiz-adv-x="1000" 
d="M263 475q36 -2 67.5 -10.5t54.5 -25t36 -40.5t13 -58q0 -29 -14.5 -55.5t-43.5 -46t-73 -31t-103 -11.5q-65 0 -131.5 19t-117.5 55l41 63q21 -13 41.5 -24t44.5 -19.5t54.5 -13.5t71.5 -5q43 0 72.5 6.5t48 16.5t26.5 22.5t8 25.5q0 30 -24.5 41t-62.5 14l-127 8
q-32 2 -60.5 8t-51 20.5t-35.5 39.5t-13 64q0 22 15 44t43.5 40t70.5 29t97 11q52 0 99.5 -12.5t100.5 -44.5l-37 -63q-24 13 -43.5 22t-39 14t-40.5 7t-47 2q-63 0 -103.5 -17.5t-40.5 -42.5t28 -34.5t65 -11.5zM772 207h-75v370h-175v75h424v-75h-174v-370z" />
    <glyph glyph-name="th" horiz-adv-x="1204" 
d="M688 652v-181h288v181h75v-445h-75v189h-288v-189h-75v445h75zM276 207h-75v370h-175v75h424v-75h-174v-370z" />
    <glyph glyph-name="guillemotright" unicode="&#xbb;" horiz-adv-x="556" 
d="M363 67h-80l115 193l-115 195h80l135 -195zM131 67h-80l115 193l-115 195h80l135 -195z" />
    <glyph glyph-name="onequarter" unicode="&#xbc;" horiz-adv-x="1204" 
d="M995 0h-60v98h-298l-27 53l324 240h61v-238h94v-55h-94v-98zM935 329l-238 -174v-2h238v176zM220 260h-60v392h60v-392zM270 -53h-66l539 758h66z" />
    <glyph glyph-name="onehalf" unicode="&#xbd;" horiz-adv-x="1204" 
d="M260 -53h-66l539 758h66zM224 260h-60v392h60v-392zM1063 0h-390q0 23 4.5 60t22 73.5t52.5 64.5t97 34l88 8q28 2 47 14.5t19 33.5q0 10 -6 21t-19.5 20.5t-36.5 15.5t-57 6q-33 0 -58 -3.5t-45 -9.5t-36.5 -13.5l-33.5 -15.5l-27 47q55 29 99.5 39.5t94.5 10.5
q24 0 56 -5t60.5 -17.5t48.5 -35.5t20 -59q0 -24 -10.5 -42.5t-28 -31t-39.5 -20t-45 -9.5l-90 -9q-33 -3 -54 -16.5t-33.5 -31.5t-19 -38t-10.5 -36h330v-55z" />
    <glyph glyph-name="threequarters" unicode="&#xbe;" horiz-adv-x="1204" 
d="M1044 0h-60v98h-298l-27 53l324 240h61v-238h94v-55h-94v-98zM984 329l-238 -174v-2h238v176zM115 623q35 17 74 30t96 13q49 0 85.5 -8.5t61 -23.5t36.5 -34.5t12 -41.5q0 -18 -5.5 -32.5t-13.5 -25.5t-16.5 -18.5l-15.5 -13.5l23.5 -14t25.5 -20t20.5 -29t8.5 -39
q0 -54 -61 -87t-167 -33q-37 0 -67 4t-55.5 12t-47.5 19t-44 25l31 44q10 -6 25.5 -14.5t37 -16t50.5 -13t68 -5.5q78 0 124 18t46 45q0 19 -12.5 32.5t-33 22.5t-47 13.5t-54.5 4.5h-41v55h41q21 0 42 3.5t38.5 11.5t28.5 19.5t11 28.5q0 8 -5.5 17.5t-20.5 18t-41 14.5
t-67 6q-24 0 -43 -3t-36 -8t-33 -11l-33 -13zM397 -53h-66l539 758h66z" />
    <glyph glyph-name="onethird" unicode="&#x2153;" horiz-adv-x="1204" 
d="M218 260h-60v392h60v-392zM692 361q35 17 74 30t96 13q49 0 85.5 -8.5t61 -23.5t36.5 -34.5t12 -41.5q0 -18 -5.5 -32.5t-13.5 -25.5t-16.5 -18.5l-15.5 -13.5l23.5 -14t25.5 -20t20.5 -29t8.5 -39q0 -54 -61 -87t-167 -33q-37 0 -67 4t-55.5 12t-47.5 19t-44 25l31 44
q10 -6 25.5 -14.5t37 -16t50.5 -13t68 -5.5q78 0 124 18t46 45q0 19 -12.5 32.5t-33 22.5t-47 13.5t-54.5 4.5h-41v55h41q21 0 42 3.5t38.5 11.5t28.5 19.5t11 28.5q0 8 -5.5 17.5t-20.5 18t-41 14.5t-67 6q-24 0 -43 -3t-36 -8t-33 -11l-33 -13zM243 -53h-66l539 758h66z
" />
    <glyph glyph-name="Agrave" unicode="&#xc0;" 
d="M814 0h-98l-122 257h-360l-118 -257h-98l357 750h88zM419 643l-141 -298h277zM444 937l79 -125h-88l-111 125h120z" />
    <glyph glyph-name="Aacute" unicode="&#xc1;" 
d="M814 0h-98l-122 257h-360l-118 -257h-98l357 750h88zM419 643l-141 -298h277zM465 812h-88l79 125h120z" />
    <glyph glyph-name="Acircumflex" unicode="&#xc2;" 
d="M814 0h-98l-122 257h-360l-118 -257h-98l357 750h88zM419 643l-141 -298h277zM369 937h112l95 -125h-90l-61 74l-59 -74h-90z" />
    <glyph glyph-name="Atilde" unicode="&#xc3;" 
d="M814 0h-98l-122 257h-360l-118 -257h-98l357 750h88zM419 643l-141 -298h277zM259 812q0 15 3 34t12 36t25.5 28.5t43.5 11.5q22 0 42.5 -5t40.5 -12l37.5 -11.5t32.5 -5.5q11 0 22 10t11 24h64q0 -19 -3 -37.5t-12.5 -33.5t-26.5 -24.5t-45 -9.5q-21 0 -44 5t-44 11
l-38.5 11t-26.5 5q-16 0 -23 -12t-7 -25h-64z" />
    <glyph glyph-name="Adieresis" unicode="&#xc4;" 
d="M814 0h-98l-122 257h-360l-118 -257h-98l357 750h88zM419 643l-141 -298h277zM290 912h92v-100h-92v100zM471 912h92v-100h-92v100z" />
    <glyph glyph-name="Aring" unicode="&#xc5;" 
d="M814 0h-98l-122 257h-360l-118 -257h-98l357 750h88zM419 643l-141 -298h277zM312 926q0 24 9 44.5t24.5 36t36.5 24.5t46 9q24 0 44.5 -9t35.5 -25t24 -36.5t9 -43.5q0 -24 -9 -44.5t-24.5 -36t-36 -24.5t-43.5 -9q-24 0 -45 9t-37 24.5t-25 36t-9 44.5zM428 983
q-24 0 -41.5 -17t-17.5 -40t17 -40t42 -17q22 0 39 16t17 41q0 23 -16 40t-40 17z" />
    <glyph glyph-name="Ccedilla" unicode="&#xc7;" horiz-adv-x="944" 
d="M465 -66q12 0 31 -1.5t37 -8.5t31 -21t13 -40q0 -23 -12 -41t-31 -30t-42.5 -18t-46.5 -6q-32 0 -62.5 8.5t-59.5 20.5l24 49q19 -9 40 -14.5t42 -5.5q9 0 18.5 1.5t17.5 5t13 9.5t5 15q0 15 -13 24t-29 9q-11 0 -22.5 -2.5t-23.5 -5.5l-21 26l58 82q-68 9 -131 38
t-111 77.5t-77 116t-29 153.5q0 97 36 170.5t94 122.5t130 73.5t143 24.5q78 0 138.5 -18t105.5 -42.5t74 -49.5t44 -39l-63 -61q-15 13 -42 34t-64.5 40.5t-85.5 33.5t-105 14q-72 0 -130.5 -25.5t-100 -67.5t-64 -96t-22.5 -112t23 -113t65.5 -97.5t104 -68.5t139.5 -26
q66 0 115.5 15t85 36t59 42.5t36.5 34.5l60 -67l-43.5 -40t-70 -49.5t-103.5 -42t-143 -17.5z" />
    <glyph glyph-name="Egrave" unicode="&#xc8;" horiz-adv-x="852" 
d="M779 0h-638v750h616v-88h-528v-229h278v-88h-278v-257h550v-88zM454 937l79 -125h-88l-111 125h120z" />
    <glyph glyph-name="Eacute" unicode="&#xc9;" horiz-adv-x="852" 
d="M779 0h-638v750h616v-88h-528v-229h278v-88h-278v-257h550v-88zM510 812h-88l79 125h120z" />
    <glyph glyph-name="Ecircumflex" unicode="&#xca;" horiz-adv-x="852" 
d="M779 0h-638v750h616v-88h-528v-229h278v-88h-278v-257h550v-88zM349 937h112l95 -125h-90l-61 74l-59 -74h-90z" />
    <glyph glyph-name="Edieresis" unicode="&#xcb;" horiz-adv-x="852" 
d="M779 0h-638v750h616v-88h-528v-229h278v-88h-278v-257h550v-88zM270 912h92v-100h-92v100zM451 912h92v-100h-92v100z" />
    <glyph glyph-name="Igrave" unicode="&#xcc;" horiz-adv-x="389" 
d="M238 0h-88v750h88v-750zM207 937l79 -125h-88l-111 125h120z" />
    <glyph glyph-name="Iacute" unicode="&#xcd;" horiz-adv-x="389" 
d="M238 0h-88v750h88v-750zM243 812h-88l79 125h120z" />
    <glyph glyph-name="Icircumflex" unicode="&#xce;" horiz-adv-x="389" 
d="M238 0h-88v750h88v-750zM147 937h112l95 -125h-90l-61 74l-59 -74h-90z" />
    <glyph glyph-name="Idieresis" unicode="&#xcf;" horiz-adv-x="389" 
d="M238 0h-88v750h88v-750zM68 912h92v-100h-92v100zM249 912h92v-100h-92v100z" />
    <glyph glyph-name="Ntilde" unicode="&#xd1;" horiz-adv-x="963" 
d="M815 0h-88l-486 611h-2v-611h-88v750h88l486 -619h2v619h88v-750zM334 812q0 15 3 34t12 36t25.5 28.5t43.5 11.5q22 0 42.5 -5t40.5 -12l37.5 -11.5t32.5 -5.5q11 0 22 10t11 24h64q0 -19 -3 -37.5t-12.5 -33.5t-26.5 -24.5t-45 -9.5q-21 0 -44 5t-44 11l-38.5 11
t-26.5 5q-16 0 -23 -12t-7 -25h-64z" />
    <glyph glyph-name="Ograve" unicode="&#xd2;" horiz-adv-x="1000" 
d="M97 375q0 79 30.5 150t84.5 124.5t127.5 85t160.5 31.5q86 0 160 -31.5t128 -85t84.5 -124.5t30.5 -150t-30.5 -150t-84.5 -124.5t-128 -85t-160 -31.5t-160 31.5t-128 85t-84.5 124.5t-30.5 150zM185 375q0 -62 24 -117.5t66 -96.5t99.5 -65t125.5 -24q67 0 125 24
t100 65t66 96.5t24 117.5t-24 117t-66 96.5t-100 65.5t-125 24q-68 0 -125.5 -24t-99.5 -65.5t-66 -96.5t-24 -117zM543 937l79 -125h-88l-111 125h120z" />
    <glyph glyph-name="Oacute" unicode="&#xd3;" horiz-adv-x="1000" 
d="M97 375q0 79 30.5 150t84.5 124.5t127.5 85t160.5 31.5q86 0 160 -31.5t128 -85t84.5 -124.5t30.5 -150t-30.5 -150t-84.5 -124.5t-128 -85t-160 -31.5t-160 31.5t-128 85t-84.5 124.5t-30.5 150zM185 375q0 -62 24 -117.5t66 -96.5t99.5 -65t125.5 -24q67 0 125 24
t100 65t66 96.5t24 117.5t-24 117t-66 96.5t-100 65.5t-125 24q-68 0 -125.5 -24t-99.5 -65.5t-66 -96.5t-24 -117zM584 812h-88l79 125h120z" />
    <glyph glyph-name="Ocircumflex" unicode="&#xd4;" horiz-adv-x="1000" 
d="M97 375q0 79 30.5 150t84.5 124.5t127.5 85t160.5 31.5q86 0 160 -31.5t128 -85t84.5 -124.5t30.5 -150t-30.5 -150t-84.5 -124.5t-128 -85t-160 -31.5t-160 31.5t-128 85t-84.5 124.5t-30.5 150zM185 375q0 -62 24 -117.5t66 -96.5t99.5 -65t125.5 -24q67 0 125 24
t100 65t66 96.5t24 117.5t-24 117t-66 96.5t-100 65.5t-125 24q-68 0 -125.5 -24t-99.5 -65.5t-66 -96.5t-24 -117zM453 937h112l95 -125h-90l-61 74l-59 -74h-90z" />
    <glyph glyph-name="Otilde" unicode="&#xd5;" horiz-adv-x="1000" 
d="M97 375q0 79 30.5 150t84.5 124.5t127.5 85t160.5 31.5q86 0 160 -31.5t128 -85t84.5 -124.5t30.5 -150t-30.5 -150t-84.5 -124.5t-128 -85t-160 -31.5t-160 31.5t-128 85t-84.5 124.5t-30.5 150zM185 375q0 -62 24 -117.5t66 -96.5t99.5 -65t125.5 -24q67 0 125 24
t100 65t66 96.5t24 117.5t-24 117t-66 96.5t-100 65.5t-125 24q-68 0 -125.5 -24t-99.5 -65.5t-66 -96.5t-24 -117zM353 812q0 15 3 34t12 36t25.5 28.5t43.5 11.5q22 0 42.5 -5t40.5 -12l37.5 -11.5t32.5 -5.5q11 0 22 10t11 24h64q0 -19 -3 -37.5t-12.5 -33.5t-26.5 -24.5
t-45 -9.5q-21 0 -44 5t-44 11l-38.5 11t-26.5 5q-16 0 -23 -12t-7 -25h-64z" />
    <glyph glyph-name="Odieresis" unicode="&#xd6;" horiz-adv-x="1000" 
d="M97 375q0 79 30.5 150t84.5 124.5t127.5 85t160.5 31.5q86 0 160 -31.5t128 -85t84.5 -124.5t30.5 -150t-30.5 -150t-84.5 -124.5t-128 -85t-160 -31.5t-160 31.5t-128 85t-84.5 124.5t-30.5 150zM185 375q0 -62 24 -117.5t66 -96.5t99.5 -65t125.5 -24q67 0 125 24
t100 65t66 96.5t24 117.5t-24 117t-66 96.5t-100 65.5t-125 24q-68 0 -125.5 -24t-99.5 -65.5t-66 -96.5t-24 -117zM374 912h92v-100h-92v100zM555 912h92v-100h-92v100z" />
    <glyph glyph-name="Zcaron" unicode="&#x17d;" horiz-adv-x="704" 
d="M678 0h-615l-38 76l520 586h-482v88h570l38 -73l-520 -589h527v-88zM312 937l59 -74l61 74h90l-95 -125h-112l-93 125h90z" />
    <glyph glyph-name="zcaron" unicode="&#x17e;" horiz-adv-x="537" 
d="M521 0h-463l-42 69l367 361h-336v88h426l48 -69l-370 -361h370v-88zM218 705l59 -74l61 74h90l-95 -125h-112l-93 125h90z" />
    <glyph glyph-name="Ugrave" unicode="&#xd9;" horiz-adv-x="963" 
d="M812 291q0 -72 -19.5 -129t-60 -96.5t-103 -60.5t-148.5 -21q-89 0 -152 21t-102.5 60.5t-58 96.5t-18.5 129v459h88v-459q0 -119 62 -169t181 -50t181 50t62 169v459h88v-459zM509 937l79 -125h-88l-111 125h120z" />
    <glyph glyph-name="Uacute" unicode="&#xda;" horiz-adv-x="963" 
d="M812 291q0 -72 -19.5 -129t-60 -96.5t-103 -60.5t-148.5 -21q-89 0 -152 21t-102.5 60.5t-58 96.5t-18.5 129v459h88v-459q0 -119 62 -169t181 -50t181 50t62 169v459h88v-459zM520 812h-88l79 125h120z" />
    <glyph glyph-name="Ucircumflex" unicode="&#xdb;" horiz-adv-x="963" 
d="M812 291q0 -72 -19.5 -129t-60 -96.5t-103 -60.5t-148.5 -21q-89 0 -152 21t-102.5 60.5t-58 96.5t-18.5 129v459h88v-459q0 -119 62 -169t181 -50t181 50t62 169v459h88v-459zM434 937h112l95 -125h-90l-61 74l-59 -74h-90z" />
    <glyph glyph-name="Udieresis" unicode="&#xdc;" horiz-adv-x="963" 
d="M812 291q0 -72 -19.5 -129t-60 -96.5t-103 -60.5t-148.5 -21q-89 0 -152 21t-102.5 60.5t-58 96.5t-18.5 129v459h88v-459q0 -119 62 -169t181 -50t181 50t62 169v459h88v-459zM355 912h92v-100h-92v100zM536 912h92v-100h-92v100z" />
    <glyph glyph-name="Yacute" unicode="&#xdd;" horiz-adv-x="759" 
d="M421 0h-88v347l-317 403h114l249 -316l249 316h114l-321 -403v-347zM438 812h-88l79 125h120z" />
    <glyph glyph-name="agrave" unicode="&#xe0;" horiz-adv-x="685" 
d="M667 0h-104l-66 121h-316l-64 -121h-100l280 518h88zM340 419l-113 -210h226zM355 705l79 -125h-88l-111 125h120z" />
    <glyph glyph-name="aacute" unicode="&#xe1;" horiz-adv-x="685" 
d="M667 0h-104l-66 121h-316l-64 -121h-100l280 518h88zM340 419l-113 -210h226zM421 580h-88l79 125h120z" />
    <glyph glyph-name="acircumflex" unicode="&#xe2;" horiz-adv-x="685" 
d="M667 0h-104l-66 121h-316l-64 -121h-100l280 518h88zM340 419l-113 -210h226zM285 705h112l95 -125h-90l-61 74l-59 -74h-90z" />
    <glyph glyph-name="atilde" unicode="&#xe3;" horiz-adv-x="685" 
d="M667 0h-104l-66 121h-316l-64 -121h-100l280 518h88zM340 419l-113 -210h226zM175 580q0 15 3 34t12 36t25.5 28.5t43.5 11.5q22 0 42.5 -5t40.5 -12l37.5 -11.5t32.5 -5.5q11 0 22 10t11 24h64q0 -19 -3 -37.5t-12.5 -33.5t-26.5 -24.5t-45 -9.5q-21 0 -44 5t-44 11
l-38.5 11t-26.5 5q-16 0 -23 -12t-7 -25h-64z" />
    <glyph glyph-name="adieresis" unicode="&#xe4;" horiz-adv-x="685" 
d="M667 0h-104l-66 121h-316l-64 -121h-100l280 518h88zM340 419l-113 -210h226zM206 680h92v-100h-92v100zM387 680h92v-100h-92v100z" />
    <glyph glyph-name="aring" unicode="&#xe5;" horiz-adv-x="685" 
d="M667 0h-104l-66 121h-316l-64 -121h-100l280 518h88zM340 419l-113 -210h226zM233 694q0 24 9 44.5t24.5 36t36.5 24.5t46 9q24 0 44.5 -9t35.5 -25t24 -36.5t9 -43.5q0 -24 -9 -44.5t-24.5 -36t-36 -24.5t-43.5 -9q-24 0 -45 9t-37 24.5t-25 36t-9 44.5zM349 751
q-24 0 -41.5 -17t-17.5 -40t17 -40t42 -17q22 0 39 16t17 41q0 23 -16 40t-40 17z" />
    <glyph glyph-name="dotlessi" unicode="&#x131;" horiz-adv-x="389" 
d="M238 0h-88v518h88v-518z" />
    <glyph glyph-name="ccedilla" unicode="&#xe7;" horiz-adv-x="741" 
d="M385 -66q12 0 31 -1.5t37 -8.5t31 -21t13 -40q0 -23 -12 -41t-31 -30t-42.5 -18t-46.5 -6q-32 0 -62.5 8.5t-59.5 20.5l24 49q19 -9 40 -14.5t42 -5.5q9 0 18.5 1.5t17.5 5t13 9.5t5 15q0 15 -13 24t-29 9q-11 0 -22.5 -2.5t-23.5 -5.5l-21 26l56 78q-60 7 -110 29.5
t-85.5 58t-55 82.5t-19.5 104q0 60 24 110.5t66 87t98.5 56.5t121.5 20q54 0 97 -10.5t76 -26t56.5 -32l39.5 -28.5l-47 -74l-43.5 28.5t-48.5 26.5t-58 20t-72 8q-51 0 -92.5 -15t-70 -41t-44 -61t-15.5 -75q0 -34 14 -67t43 -58.5t73 -41t103 -15.5q45 0 82 9t65.5 21
t48 24t29.5 19l39 -81q-15 -11 -37.5 -24.5t-53 -25.5t-68.5 -20.5t-85 -9.5z" />
    <glyph glyph-name="egrave" unicode="&#xe8;" horiz-adv-x="685" 
d="M602 0h-466v518h456v-88h-368v-119h202v-88h-202v-135h378v-88zM375 705l79 -125h-88l-111 125h120z" />
    <glyph glyph-name="eacute" unicode="&#xe9;" horiz-adv-x="685" 
d="M602 0h-466v518h456v-88h-368v-119h202v-88h-202v-135h378v-88zM421 580h-88l79 125h120z" />
    <glyph glyph-name="ecircumflex" unicode="&#xea;" horiz-adv-x="685" 
d="M602 0h-466v518h456v-88h-368v-119h202v-88h-202v-135h378v-88zM295 705h112l95 -125h-90l-61 74l-59 -74h-90z" />
    <glyph glyph-name="edieresis" unicode="&#xeb;" horiz-adv-x="685" 
d="M602 0h-466v518h456v-88h-368v-119h202v-88h-202v-135h378v-88zM221 680h92v-100h-92v100zM402 680h92v-100h-92v100z" />
    <glyph glyph-name="igrave" unicode="&#xec;" horiz-adv-x="389" 
d="M238 0h-88v518h88v-518zM207 705l79 -125h-88l-111 125h120z" />
    <glyph glyph-name="iacute" unicode="&#xed;" horiz-adv-x="389" 
d="M238 0h-88v518h88v-518zM248 580h-88l79 125h120z" />
    <glyph glyph-name="icircumflex" unicode="&#xee;" horiz-adv-x="389" 
d="M238 0h-88v518h88v-518zM137 705h112l95 -125h-90l-61 74l-59 -74h-90z" />
    <glyph glyph-name="idieresis" unicode="&#xef;" horiz-adv-x="389" 
d="M238 0h-88v518h88v-518zM68 680h92v-100h-92v100zM249 680h92v-100h-92v100z" />
    <glyph glyph-name="ntilde" unicode="&#xf1;" horiz-adv-x="796" 
d="M648 0h-88l-324 385v-385h-88v518h88l324 -384v384h88v-518zM241 580q0 15 3 34t12 36t25.5 28.5t43.5 11.5q22 0 42.5 -5t40.5 -12l37.5 -11.5t32.5 -5.5q11 0 22 10t11 24h64q0 -19 -3 -37.5t-12.5 -33.5t-26.5 -24.5t-45 -9.5q-21 0 -44 5t-44 11l-38.5 11t-26.5 5
q-16 0 -23 -12t-7 -25h-64z" />
    <glyph glyph-name="ograve" unicode="&#xf2;" 
d="M416 72q54 0 96.5 15t72 41t45 59.5t15.5 71.5q0 37 -15.5 71t-45 60t-72 41t-96.5 15t-96.5 -15t-72 -41t-45 -60t-15.5 -71q0 -38 15.5 -71.5t45 -59.5t72 -41t96.5 -15zM733 259q0 -56 -21.5 -106t-62.5 -87.5t-99.5 -59.5t-133.5 -22q-74 0 -132.5 22t-99.5 59.5
t-63 87.5t-22 106t21.5 106t62.5 87.5t99.5 59.5t133.5 22t133.5 -22t99.5 -59.5t62.5 -87.5t21.5 -106zM429 705l79 -125h-88l-111 125h120z" />
    <glyph glyph-name="oacute" unicode="&#xf3;" 
d="M416 72q54 0 96.5 15t72 41t45 59.5t15.5 71.5q0 37 -15.5 71t-45 60t-72 41t-96.5 15t-96.5 -15t-72 -41t-45 -60t-15.5 -71q0 -38 15.5 -71.5t45 -59.5t72 -41t96.5 -15zM733 259q0 -56 -21.5 -106t-62.5 -87.5t-99.5 -59.5t-133.5 -22q-74 0 -132.5 22t-99.5 59.5
t-63 87.5t-22 106t21.5 106t62.5 87.5t99.5 59.5t133.5 22t133.5 -22t99.5 -59.5t62.5 -87.5t21.5 -106zM475 580h-88l79 125h120z" />
    <glyph glyph-name="ocircumflex" unicode="&#xf4;" 
d="M416 72q54 0 96.5 15t72 41t45 59.5t15.5 71.5q0 37 -15.5 71t-45 60t-72 41t-96.5 15t-96.5 -15t-72 -41t-45 -60t-15.5 -71q0 -38 15.5 -71.5t45 -59.5t72 -41t96.5 -15zM733 259q0 -56 -21.5 -106t-62.5 -87.5t-99.5 -59.5t-133.5 -22q-74 0 -132.5 22t-99.5 59.5
t-63 87.5t-22 106t21.5 106t62.5 87.5t99.5 59.5t133.5 22t133.5 -22t99.5 -59.5t62.5 -87.5t21.5 -106zM359 705h112l95 -125h-90l-61 74l-59 -74h-90z" />
    <glyph glyph-name="otilde" unicode="&#xf5;" 
d="M416 72q54 0 96.5 15t72 41t45 59.5t15.5 71.5q0 37 -15.5 71t-45 60t-72 41t-96.5 15t-96.5 -15t-72 -41t-45 -60t-15.5 -71q0 -38 15.5 -71.5t45 -59.5t72 -41t96.5 -15zM733 259q0 -56 -21.5 -106t-62.5 -87.5t-99.5 -59.5t-133.5 -22q-74 0 -132.5 22t-99.5 59.5
t-63 87.5t-22 106t21.5 106t62.5 87.5t99.5 59.5t133.5 22t133.5 -22t99.5 -59.5t62.5 -87.5t21.5 -106zM259 580q0 15 3 34t12 36t25.5 28.5t43.5 11.5q22 0 42.5 -5t40.5 -12l37.5 -11.5t32.5 -5.5q11 0 22 10t11 24h64q0 -19 -3 -37.5t-12.5 -33.5t-26.5 -24.5t-45 -9.5
q-21 0 -44 5t-44 11l-38.5 11t-26.5 5q-16 0 -23 -12t-7 -25h-64z" />
    <glyph glyph-name="odieresis" unicode="&#xf6;" 
d="M416 72q54 0 96.5 15t72 41t45 59.5t15.5 71.5q0 37 -15.5 71t-45 60t-72 41t-96.5 15t-96.5 -15t-72 -41t-45 -60t-15.5 -71q0 -38 15.5 -71.5t45 -59.5t72 -41t96.5 -15zM733 259q0 -56 -21.5 -106t-62.5 -87.5t-99.5 -59.5t-133.5 -22q-74 0 -132.5 22t-99.5 59.5
t-63 87.5t-22 106t21.5 106t62.5 87.5t99.5 59.5t133.5 22t133.5 -22t99.5 -59.5t62.5 -87.5t21.5 -106zM285 680h92v-100h-92v100zM466 680h92v-100h-92v100z" />
    <glyph glyph-name="Scaron" unicode="&#x160;" 
d="M493 440q52 0 103 -10.5t90.5 -35.5t64 -67t24.5 -104q0 -61 -30 -106t-80 -74.5t-114.5 -44t-133.5 -14.5q-86 0 -149 18.5t-107.5 44.5t-73.5 53t-45 45l63 62l41 -38t61 -44.5t88.5 -37t124.5 -15.5q63 0 113 11.5t84 31.5t52 47.5t18 60.5q0 35 -16 59.5t-41 40
t-55 22.5t-58 7h-158q-54 0 -102 9.5t-83.5 32t-56 58t-20.5 88.5q0 39 18.5 79t57.5 73t100.5 53.5t147.5 20.5q64 0 116 -13.5t91 -31.5t66 -36.5l41 -28.5l-55 -69l-44.5 29t-55.5 30t-70.5 23t-90.5 9q-63 0 -107.5 -13.5t-72.5 -33.5t-41 -44.5t-13 -46.5q0 -38 21 -58
t53.5 -29.5t70.5 -11t72 -1.5h91zM376 937l59 -74l61 74h90l-95 -125h-112l-93 125h90z" />
    <glyph glyph-name="scaron" unicode="&#x161;" horiz-adv-x="685" 
d="M548 386l-35.5 19.5t-45 19.5t-58 15t-75.5 6q-72 0 -108.5 -18t-36.5 -51q0 -19 5 -31.5t22.5 -20t50.5 -11t89 -3.5q88 0 139.5 -12.5t78.5 -33.5t35 -48.5t8 -57.5q0 -56 -23.5 -90.5t-60.5 -53t-82.5 -25t-88.5 -6.5q-66 0 -117 10.5t-88.5 24.5t-61.5 29t-37 24
l42 77q22 -14 46 -27.5t54 -24.5t69.5 -18t94.5 -7q35 0 64 4t50 13t32.5 24t11.5 37q0 25 -8.5 38.5t-33 20.5t-69 9.5t-117.5 4.5q-44 1 -81 8.5t-63.5 24t-41 43.5t-14.5 68q0 33 13 63t41.5 53t74 37t110.5 14q47 0 88 -8.5t74 -19.5t57 -22.5t37 -18.5zM287 705l59 -74
l61 74h90l-95 -125h-112l-93 125h90z" />
    <glyph glyph-name="ugrave" unicode="&#xf9;" horiz-adv-x="796" 
d="M648 225q0 -49 -10 -93t-38 -77t-76.5 -52t-125.5 -19t-125.5 19t-76 52t-38 77t-10.5 93v293h88v-293q0 -35 5 -63.5t22 -48.5t49 -30.5t86 -10.5t86 10.5t49 30.5t22 48.5t5 63.5v293h88v-293zM401 705l79 -125h-88l-111 125h120z" />
    <glyph glyph-name="uacute" unicode="&#xfa;" horiz-adv-x="796" 
d="M648 225q0 -49 -10 -93t-38 -77t-76.5 -52t-125.5 -19t-125.5 19t-76 52t-38 77t-10.5 93v293h88v-293q0 -35 5 -63.5t22 -48.5t49 -30.5t86 -10.5t86 10.5t49 30.5t22 48.5t5 63.5v293h88v-293zM447 580h-88l79 125h120z" />
    <glyph glyph-name="ucircumflex" unicode="&#xfb;" horiz-adv-x="796" 
d="M648 225q0 -49 -10 -93t-38 -77t-76.5 -52t-125.5 -19t-125.5 19t-76 52t-38 77t-10.5 93v293h88v-293q0 -35 5 -63.5t22 -48.5t49 -30.5t86 -10.5t86 10.5t49 30.5t22 48.5t5 63.5v293h88v-293zM341 705h112l95 -125h-90l-61 74l-59 -74h-90z" />
    <glyph glyph-name="udieresis" unicode="&#xfc;" horiz-adv-x="796" 
d="M648 225q0 -49 -10 -93t-38 -77t-76.5 -52t-125.5 -19t-125.5 19t-76 52t-38 77t-10.5 93v293h88v-293q0 -35 5 -63.5t22 -48.5t49 -30.5t86 -10.5t86 10.5t49 30.5t22 48.5t5 63.5v293h88v-293zM267 680h92v-100h-92v100zM448 680h92v-100h-92v100z" />
    <glyph glyph-name="yacute" unicode="&#xfd;" horiz-adv-x="574" 
d="M331 0h-88v233l-227 285h112l159 -201l159 201h112l-227 -285v-233zM346 580h-88l79 125h120z" />
    <glyph glyph-name="Ydieresis" unicode="&#x178;" horiz-adv-x="759" 
d="M421 0h-88v347l-317 403h114l249 -316l249 316h114l-321 -403v-347zM253 912h92v-100h-92v100zM434 912h92v-100h-92v100z" />
    <glyph glyph-name="ydieresis" unicode="&#xff;" horiz-adv-x="574" 
d="M331 0h-88v233l-227 285h112l159 -201l159 201h112l-227 -285v-233zM156 680h92v-100h-92v100zM337 680h92v-100h-92v100z" />
    <glyph glyph-name="numbersign" unicode="#" horiz-adv-x="648" 
d="M433 410h-168l-53 -147h168zM337 0h-51l76 213h-168l-76 -213h-51l76 213h-127l16 50h129l53 147h-128l17 50h129l65 179h51l-65 -179h168l65 179h51l-65 -179h130l-17 -50h-131l-53 -147h130l-17 -50h-131z" />
    <glyph glyph-name="exclam" unicode="!" horiz-adv-x="352" 
d="M208 178h-64l-22 572h108zM240 48q0 -27 -19 -45.5t-45 -18.5q-27 0 -45.5 18.5t-18.5 45.5q0 26 18.5 45t45.5 19q26 0 45 -19t19 -45z" />
    <glyph glyph-name="flourishopen" horiz-adv-x="1296" 
d="M1028 375q7 -2 17 -6t19 -12t15.5 -21t6.5 -32q0 -23 -17 -39t-35 -16q-36 0 -53 23.5t-17 56.5q0 20 9 40t24.5 36.5t36.5 27t44 10.5q44 0 74 -17.5t48 -44.5t26 -59t8 -60q0 -41 -16.5 -87t-50 -85t-85.5 -64.5t-124 -25.5q-49 0 -92 14t-82 38t-75 54.5t-70 63.5
l-75 70.5t-75.5 62t-80 44.5t-86.5 17t-84 -16.5t-67.5 -44.5t-45 -64.5t-16.5 -76.5q0 -35 9.5 -60.5t24.5 -42t34.5 -24t39.5 -7.5q12 0 21 4.5t15 10.5t10 12.5t6 11.5q-8 1 -18 5.5t-19 12.5t-15.5 21t-6.5 33q0 23 17 38.5t35 15.5q37 0 53.5 -23.5t16.5 -56.5
q0 -20 -9 -40t-24.5 -36t-36 -26.5t-43.5 -10.5q-45 0 -75 17t-48 43.5t-26 58t-8 60.5q0 41 16.5 87.5t50 85.5t85.5 65t124 26q56 0 106 -20t96 -51.5t88 -70l83 -76.5l61.5 -55t62.5 -46t66.5 -32t72.5 -12q46 0 85 16.5t67.5 44t44.5 63t16 74.5q0 36 -9.5 62
t-24.5 42.5t-34.5 24.5t-39.5 8q-24 0 -35 -15t-16 -25z" />
  </font>
</defs>
</svg>
