<svg xmlns="http://www.w3.org/2000/svg" width="35" height="56" viewBox="0 0 35 56">
    <defs>
        <filter id="prefix__a" width="185.7%" height="500%" x="-42.9%" y="-200%" filterUnits="objectBoundingBox">
            <feGaussianBlur in="SourceGraphic" stdDeviation="2"/>
        </filter>
    </defs>
    <g fill="none" fill-rule="evenodd" transform="translate(1 1)">
        <ellipse cx="16" cy="48.5" fill="#000" filter="url(#prefix__a)" opacity=".54" rx="7" ry="1.5"/>
        <path fill="#B61935" fill-rule="nonzero" stroke="#B61935" stroke-linejoin="round" stroke-width="1.637" d="M16.513 0C7.383 0 0 7.43 0 16.616c0 12.462 16.513 30.858 16.513 30.858s16.512-18.396 16.512-30.858C33.025 7.43 25.642 0 16.513 0z"/>
        <g fill="#FFF">
            <path d="M15.4 2.347c.359-.48.931-.744 1.507-.855.693-.158 1.477-.05 2.04.402.455.367.593 1.031.406 1.57-.073.217-.282.386-.518.372-1.142.012-2.286.016-3.429.02-.202.012-.485-.056-.498-.303-.035-.454.231-.86.491-1.206zm5.065 6.17c-.391.162-.737.416-1.133.568-.896.37-1.935.488-2.86.158-.711-.255-1.242-.87-1.506-1.565-.242-.633-.35-1.323-.318-2 .024-.286.332-.406.585-.391 1.54-.007 3.082.002 4.623-.004.293.013.603-.125.731-.4.473-.978.504-2.163.079-3.162-.27-.632-.799-1.138-1.432-1.403-.893-.38-1.903-.37-2.848-.225-.698.121-1.303.523-1.835.971-.377.318-.651.74-.863 1.181-.617 1.331-.701 2.842-.565 4.284.105 1.107.494 2.2 1.197 3.07.604.712 1.512 1.1 2.42 1.234 1.16.168 2.335-.122 3.384-.609.234-.115.5-.231.635-.47.107-.314.12-.662.057-.986-.02-.16-.183-.336-.351-.25zM.168.386C.474.206.843.124 1.195.151c.274.047.336.364.392.59.433 2.044.864 4.088 1.286 6.135.06.254.075.536.23.756.248.114.34-.243.41-.413C4.15 5.09 4.758 2.954 5.38.823c.063-.22.173-.466.41-.54.277-.085.592-.097.866.014.24.101.31.38.372.607.49 1.966.944 3.94 1.426 5.908.078.285.126.603.356.812.183-.111.279-.306.324-.508.511-2.128 1.045-4.25 1.584-6.37.06-.254.193-.562.49-.59.314-.012.65.078.9.272.2.195.117.496.051.731-.875 3.036-1.73 6.078-2.618 9.11-.135.562-.89.664-1.3.351-.194-.179-.255-.448-.324-.691C7.403 7.95 6.89 5.972 6.386 3.992c-.05-.211-.135-.421-.319-.548-.22.244-.312.564-.41.872-.594 1.921-1.158 3.852-1.763 5.77-.086.23-.154.523-.41.619-.259.09-.555.1-.812 0-.231-.094-.31-.354-.37-.574C1.546 7.11.795 4.09.045 1.069-.002.842-.065.532.168.386" transform="translate(6 12)"/>
        </g>
    </g>
</svg>
