<svg xmlns="http://www.w3.org/2000/svg" width="88" height="84" viewBox="0 0 88 84">
    <g fill="none" fill-rule="evenodd">
        <g fill="#F8F3E8">
            <g>
                <path d="M59.01.193c-2.194.397-3.782 2.306-3.8 4.537-.076 2.099 1.285 3.99 3.308 4.538 18.585 6.958 29.665 26.186 23.255 44.166-7.62 21.422-31.045 32.558-52.315 24.882-11.533-4.16-20.59-13.292-24.73-24.882-6.39-18.112 4.708-37.36 23.274-44.299 2.004-.567 3.384-2.439 3.309-4.537.019-2.25-1.588-4.179-3.782-4.538C21.196-1.074-.169 13.9.001 39.538c0 24.03 19.36 43.505 43.221 43.505 23.86 0 43.221-19.475 43.221-43.505.17-25.62-21.175-40.593-27.434-39.345z" transform="translate(-975 -1551) translate(975.664 1551.479)"/>
                <path d="M80.771 49.918c-4.216-6.202-10.04-11.137-16.846-14.256-1.493-.51-2.495-1.929-2.439-3.536-.019-2.06 1.645-3.743 3.706-3.762h.132c4.14 0 13.046 11.08 15.447 21.554z" transform="translate(-975 -1551) translate(975.664 1551.479)"/>
                <path d="M62.47 14.297c-2.27-.019-4.122 1.815-4.141 4.103-.133 1.74.907 3.327 2.514 3.932 9.775 4.481 17.187 12.952 20.42 23.275 2.099-17.187-13.292-31.159-18.794-31.31zM5.9 49.918c4.235-6.202 10.058-11.137 16.846-14.256 1.494-.51 2.496-1.948 2.439-3.536 0-2.08-1.683-3.762-3.744-3.762h-.075c-4.16 0-13.046 11.08-15.466 21.554z" transform="translate(-975 -1551) translate(975.664 1551.479)"/>
                <path d="M24.183 14.297c2.288-.019 4.14 1.815 4.178 4.084v.038c.095 1.72-.964 3.29-2.571 3.857-9.87 4.5-17.357 12.989-20.609 23.33-2.08-17.148 13.424-31.158 19.002-31.31z" transform="translate(-975 -1551) translate(975.664 1551.479)"/>
            </g>
        </g>
    </g>
</svg>
