<svg xmlns="http://www.w3.org/2000/svg" xmlns:xlink="http://www.w3.org/1999/xlink" width="464" height="33" viewBox="0 0 464 33">
    <defs>
        <path id="a" d="M16.226.544H0v31.92h16.226z"/>
        <path id="c" d="M1.157 30.222h13.914V1.008H1.157z"/>
    </defs>
    <g fill="none" fill-rule="evenodd">
        <g transform="translate(0 -.284)">
            <mask id="b" fill="#fff">
                <use xlink:href="#a"/>
            </mask>
            <path fill="#000" d="M6.892 17.148V31.74h1.373v.724H0v-.724H1.34V1.28H0V.551h9.7c.67 0 3.148-.136 4.551.756 1.535.972 1.975 2.28 1.975 3.896v7.573c0 .81-.203 2.233-1.708 3.232-1.44.951-3.813 1.14-5.755 1.14h-1.87zm3.78-13.783c0-.615.033-1.086-.334-1.528-.405-.47-.973-.557-1.772-.557H6.892v15.177h2.006c.637 0 1.135-.222 1.472-.616.4-.471.302-1.228.302-1.617V3.365z" mask="url(#b)"/>
        </g>
        <g transform="translate(42.815 2.234)">
            <mask id="d" fill="#fff">
                <use xlink:href="#c"/>
            </mask>
            <path fill="#000" d="M15.07 25.515c0 2.88-1.896 4.734-6.986 4.707-5.45 0-6.927-1.827-6.927-4.707V6.217c0-3.43 2.41-5.187 7.08-5.208 4.484-.022 6.834 2.23 6.834 5.208v19.298zm-5-21.751c0-1.604-.602-2.253-1.833-2.225-1.325 0-2.078.573-2.078 2.225v23.75c0 1.206.392 2.134 1.896 2.134 1.475 0 2.015-.603 2.015-2.133V3.764z" mask="url(#d)"/>
        </g>
        <path fill="#000" d="M102.25 3.47v5.786h-.755V4.744H97.25v26.782h1.237v.66H91.05v-.66h1.203V4.744h-4.217v4.512h-.75V3.47zM146.618 3.47v5.786h-.754V4.744h-4.246v26.782h1.237v.66h-7.438v-.66h1.203V4.744h-4.216v4.512h-.757V3.47zM182.103 16.923h5.51v-2.506h.751v6.315h-.752v-2.534h-5.509v12.707h5.51v-4.333h.751v5.608h-12.497v-.654h1.234V4.118h-1.234V3.47h12.497v5.614h-.752V4.745h-5.509zM228.788 17.474c0 .172 1.836.325 3.1 1.177 1.291.875 1.417 1.806 1.417 3.08v9.796h1.23v.66h-6.232V20.705c0-.903.212-1.778-.663-2.302-.54-.351-1.562-.28-2.136-.28h-1.689v13.404h1.207v.66h-7.439v-.66h1.233V4.12h-1.233v-.65h8.732c.603 0 2.834-.123 4.1.677 1.384.875 1.77 2.052 1.77 3.507v6.115c0 .302.091 1.68-1.02 2.625-1.022.908-2.377.957-2.377 1.08zm-1.6-11.476c0-.55.094-.956-.3-1.377-.422-.454-1.054-.502-1.538-.502h-1.535V17.5h1.807c.573 0 1.023-.199 1.322-.555.367-.422.243-1.102.243-1.454V5.998zM266.591 21.937l-5.21-17.817h-1.24v-.65h7.44v.65h-1.201l4.392 15.11 3.886-15.11h-1.231v-.65h4.06v.65h-1.204l-4.695 17.865v9.546h1.204v.65h-7.442v-.65h1.241zM324.104 20.349v7.185c0 1.221-.065 2.113-.94 3.09-1.203 1.307-3.716 1.557-4.786 1.557h-12.04v-.72h1.338V.99h-1.339V.267h11.475c1.435 0 2.508.253 3.581 1.063 1.772 1.335 1.603 2.978 1.603 3.005v7.66c0 .027.07 1.561-1.069 2.508-1.472 1.22-2.61 1.28-2.574 1.416 0 .225 2.04.198 3.508 1.446.872.75 1.243 1.535 1.243 2.984zm-10.878 11.113h2.98c.102 0 1.106 0 1.606-.395.532-.443.736-.924.736-1.557V18.23c0-.475-.032-.865-.33-1.226-.338-.39-.906-.497-1.548-.497h-3.444v14.955zm0-30.472v14.653h2.915c.1 0 .7.026 1.07-.362.331-.362.233-.898.233-1.172V2.886c0-.108.064-1.167-.233-1.533C316.91.99 315.64.99 315.604.99h-2.378zM361.147 4.119h-1.238V3.47h7.682v.649h-1.384l5 27.413h1.232v.648h-7.53v-.648h1.054l-1.2-8.024h-6.114l-1.659 8.024h1.237v.648h-3.914v-.648h1.083l5.751-27.413zm-2.317 18.288h5.66l-2.649-15.603-3.01 15.603zM412.833 17.474c0 .172 1.84.325 3.11 1.177 1.285.875 1.406 1.806 1.406 3.08v9.796h1.242v.66h-6.241V20.705c0-.903.208-1.778-.661-2.302-.54-.351-1.572-.28-2.136-.28h-1.689v13.404h1.207v.66h-7.439v-.66h1.232V4.12h-1.232v-.65h8.732c.6 0 2.833-.123 4.095.677 1.388.875 1.774 2.052 1.774 3.507v6.115c0 .302.092 1.68-1.022 2.625-1.023.908-2.378.957-2.378 1.08zm-1.595-11.476c0-.55.09-.956-.299-1.377-.421-.454-1.055-.502-1.535-.502h-1.54V17.5h1.807c.573 0 1.023-.199 1.325-.555.364-.422.242-1.102.242-1.454V5.998zM456.627 32.187l-6.057-23.86v23.205h1.233v.655h-3.913v-.655h1.207V4.119h-1.207v-.655h6.235l6.294 24.887V4.119h-1.2v-.655h3.913v.655h-1.241v28.068z"/>
    </g>
</svg>
