<svg xmlns="http://www.w3.org/2000/svg" xmlns:xlink="http://www.w3.org/1999/xlink" width="450" height="32" viewBox="0 0 450 32">
    <defs>
        <path id="a" d="M15.74.528H0v31.009h15.74z"/>
        <path id="c" d="M.153 28.387h13.496V.008H.153z"/>
    </defs>
    <g fill="none" fill-rule="evenodd">
        <g transform="translate(0 -.305)">
            <mask id="b" fill="#fff">
                <use xlink:href="#a"/>
            </mask>
            <path fill="#000" d="M6.686 16.658v14.176h1.331v.703H0v-.703H1.3V1.244H0V.535h9.41c.65 0 3.053-.132 4.414.734 1.49.945 1.916 2.216 1.916 3.785v7.357c0 .788-.197 2.169-1.657 3.14-1.396.924-3.699 1.107-5.582 1.107H6.686zM10.353 3.27c0-.598.031-1.055-.325-1.485-.392-.456-.943-.54-1.719-.54H6.686v14.743h1.946c.618 0 1.1-.216 1.427-.599.389-.457.294-1.192.294-1.57V3.269z" mask="url(#b)"/>
        </g>
        <g transform="translate(42.502 3.113)">
            <mask id="d" fill="#fff">
                <use xlink:href="#c"/>
            </mask>
            <path fill="#000" d="M13.65 23.815c0 2.797-1.84 4.598-6.778 4.572-5.287 0-6.72-1.775-6.72-4.572V5.068C.153 1.736 2.492.029 7.02.008c4.35-.02 6.63 2.168 6.63 5.06v18.747zM8.797 2.685c0-1.559-.583-2.189-1.778-2.162-1.285 0-2.016.557-2.016 2.162v23.072c0 1.17.38 2.072 1.84 2.072 1.43 0 1.954-.586 1.954-2.072V2.685z" mask="url(#d)"/>
        </g>
        <path fill="#000" d="M99.187 3.342v5.621h-.733V4.58h-4.12v26.017h1.2v.641h-7.213v-.64h1.168V4.58h-4.091v4.383h-.728v-5.62zM142.225 3.342v5.621h-.732V4.58h-4.119v26.017h1.2v.641h-7.215v-.64h1.167V4.58h-4.09v4.383h-.734v-5.62zM176.646 16.41h5.344v-2.434h.73v6.135h-.73V17.65h-5.344v12.344h5.344v-4.21h.73v5.448h-12.123v-.635h1.197V3.972h-1.197v-.63h12.122v5.454h-.729V4.58h-5.344zM221.932 16.946c0 .168 1.78.316 3.006 1.144 1.253.85 1.375 1.754 1.375 2.992v9.516h1.194v.64h-6.045V20.086c0-.877.205-1.727-.644-2.236-.524-.342-1.515-.273-2.072-.273h-1.638v13.022h1.17v.64h-7.215v-.64h1.196V3.973h-1.196v-.631h8.47c.585 0 2.75-.12 3.977.657 1.343.85 1.716 1.994 1.716 3.407v5.94c0 .293.09 1.632-.988 2.55-.992.882-2.306.93-2.306 1.05zm-1.553-11.148c0-.534.092-.928-.29-1.338-.41-.44-1.023-.487-1.492-.487h-1.489v12.999h1.753c.556 0 .992-.194 1.283-.54.355-.41.235-1.07.235-1.413V5.8zM258.602 21.281L253.55 3.973h-1.204v-.631h7.217v.631h-1.165l4.26 14.678 3.77-14.678h-1.194v-.631h3.938v.631h-1.168l-4.554 17.355v9.274h1.168v.63h-7.22v-.63h1.205zM314.392 19.739v6.98c0 1.186-.064 2.052-.911 3.002-1.168 1.27-3.606 1.512-4.644 1.512h-11.68v-.699h1.299V.934h-1.299V.23h11.13c1.393 0 2.434.246 3.475 1.032 1.719 1.297 1.555 2.893 1.555 2.92v7.442c0 .025.067 1.515-1.037 2.435-1.428 1.186-2.532 1.243-2.497 1.375 0 .22 1.979.193 3.403 1.406.845.729 1.206 1.49 1.206 2.898zm-10.553 10.795h2.891c.1 0 1.073 0 1.558-.383.517-.43.714-.898.714-1.513V17.681c0-.462-.031-.84-.32-1.191-.328-.378-.88-.484-1.502-.484h-3.341v14.528zm0-29.6v14.233h2.828c.096 0 .679.026 1.038-.35.321-.353.226-.873.226-1.14V2.775c0-.105.062-1.134-.226-1.49-.293-.352-1.524-.352-1.559-.352h-2.307zM350.325 3.973h-1.201v-.63h7.451v.63h-1.342l4.85 26.63h1.195v.63h-7.305v-.63h1.023l-1.163-7.795H347.9l-1.609 7.794h1.2v.63h-3.797v-.63h1.051l5.579-26.63zm-2.248 17.765h5.49l-2.57-15.157-2.92 15.157zM400.462 16.946c0 .168 1.785.316 3.016 1.144 1.247.85 1.364 1.754 1.364 2.992v9.516h1.205v.64h-6.054V20.086c0-.877.201-1.727-.641-2.236-.523-.342-1.525-.273-2.072-.273h-1.638v13.022h1.17v.64h-7.215v-.64h1.194V3.973h-1.194v-.631h8.47c.582 0 2.748-.12 3.972.657 1.346.85 1.721 1.994 1.721 3.407v5.94c0 .293.09 1.632-.992 2.55-.992.882-2.306.93-2.306 1.05zm-1.548-11.148c0-.534.087-.928-.29-1.338-.408-.44-1.023-.487-1.488-.487h-1.494v12.999h1.753c.556 0 .992-.194 1.285-.54.353-.41.234-1.07.234-1.413V5.8zM442.943 31.238l-5.875-23.177v22.541h1.195v.636h-3.795v-.636h1.17V3.972h-1.17v-.635h6.048l6.105 24.175V3.972h-1.164v-.635h3.797v.636h-1.205v27.265z"/>
    </g>
</svg>
