<svg xmlns="http://www.w3.org/2000/svg" viewBox="0.999 0.999 236.953 23.457"><path d="M8.764 3.053c0-.444.023-.792-.247-1.113-.29-.344-.704-.41-1.288-.41H6.01V12.59h1.46c.464 0 .828-.16 1.07-.445.293-.347.222-.892.222-1.178V3.053zM6.012 13.097v10.627h.997v.525H1v-.526h.973V1.53H1v-.525h7.057c.487 0 2.288-.104 3.31.548 1.12.708 1.435 1.662 1.435 2.84v5.52c0 .587-.146 1.62-1.24 2.353-1.045.688-2.774.83-4.186.83H6.012M29.477 5.18c0-1.17-.438-1.643-1.337-1.624-.964 0-1.513.418-1.513 1.623V22.48c0 .875.286 1.555 1.383 1.555 1.074 0 1.467-.44 1.467-1.555V5.18zm3.638 15.84c0 2.102-1.382 3.45-5.085 3.436-3.962 0-5.037-1.334-5.037-3.435V6.968c0-2.502 1.752-3.777 5.147-3.797 3.265-.016 4.975 1.626 4.975 3.797V21.02M55.392 3.335v4.213h-.55v-3.28h-3.088V23.78h.9v.47H47.24v-.47h.88V4.267h-3.07v3.28h-.546V3.336h10.888M77.668 3.335v4.213h-.545v-3.28h-3.09V23.78h.9v.47h-5.41v-.47h.876V4.267h-3.067v3.28h-.55V3.336H77.67M93.487 13.14H97.5V11.31h.547v4.6H97.5V14.07h-4.013v9.248H97.5v-3.153h.547v4.085H88.95v-.47h.903V3.806h-.902v-.47h9.097v4.088H97.5V4.267h-4.013v8.872M116.293 5.18c0-.403.065-.695-.22-1.007-.31-.324-.767-.367-1.117-.367h-1.12v9.752h1.318c.415 0 .743-.146.963-.402.26-.308.175-.805.175-1.058v-6.92zm1.16 8.358c0 .13 1.34.237 2.254.856.944.644 1.032 1.314 1.032 2.246v7.14h.898v.47H117.1v-8.355c0-.658.157-1.297-.48-1.68-.395-.255-1.138-.2-1.557-.2h-1.227v9.767h.876v.47H109.3v-.472h.902V3.806h-.902v-.47h6.357c.438 0 2.057-.094 2.982.493 1 .635 1.287 1.495 1.287 2.553v4.452c0 .22.068 1.224-.743 1.918-.746.66-1.732.694-1.732.785M134.956 16.787l-3.79-12.98h-.898v-.472h5.41v.47h-.873l3.2 11.01 2.824-11.01h-.9v-.47h2.956v.47h-.873l-3.42 13.018v6.957h.876v.47h-5.415v-.47h.9v-6.993M158.89 1.53v10.675h2.116c.074 0 .512.02.78-.266.245-.264.17-.647.17-.852V2.914c0-.084.048-.854-.17-1.117-.22-.266-1.145-.266-1.17-.266h-1.726zm0 22.195h2.167c.072 0 .803 0 1.17-.285.39-.32.534-.668.534-1.137V14.09c0-.348-.025-.63-.242-.896-.246-.28-.658-.36-1.12-.36h-2.508v10.89zm7.91-8.094v5.235c0 .89-.05 1.54-.683 2.252-.873.95-2.697 1.133-3.48 1.133h-8.758v-.525h.97V1.53h-.97v-.525h8.346c1.042 0 1.823.185 2.603.772 1.288.973 1.167 2.167 1.167 2.19v5.58c0 .018.05 1.135-.777 1.823-1.067.896-1.898.935-1.877 1.038 0 .16 1.486.14 2.558 1.052.632.548.9 1.117.9 2.17M182.07 17.137h4.114l-1.932-11.375-2.183 11.375zm1.682-13.33h-.9v-.47h5.59v.47h-1.012l3.64 19.973h.897v.47h-5.48v-.47h.772l-.878-5.84h-4.453l-1.2 5.84h.898v.47h-2.847v-.47h.786l4.186-19.974M210.197 5.18c0-.403.065-.695-.22-1.007-.307-.324-.768-.367-1.117-.367h-1.115v9.752h1.313c.415 0 .743-.146.964-.402.266-.308.175-.805.175-1.058v-6.92zm1.162 8.358c0 .13 1.336.237 2.258.856.938.644 1.025 1.314 1.025 2.246v7.14h.898v.47h-4.53v-8.355c0-.658.15-1.297-.485-1.68-.396-.255-1.14-.2-1.555-.2h-1.228v9.767h.88v.47h-5.417v-.472h.9V3.806h-.9v-.47h6.354c.437 0 2.06-.094 2.98.493 1.006.635 1.29 1.495 1.29 2.553v4.452c0 .22.066 1.224-.74 1.918-.748.66-1.73.694-1.73.785M233.217 24.25l-4.4-17.374V23.78h.894v.47h-2.846v-.47h.88V3.806h-.88v-.47h4.533l4.582 18.123V3.805h-.878v-.47h2.85v.47h-.903V24.25h-3.833"/></svg>
