<svg xmlns="http://www.w3.org/2000/svg" width="370" height="64" viewBox="0 0 370 64">
    <g fill="#000" fill-rule="nonzero">
        <path d="M9.3 40.2c0-.5 0-.9-.3-1.2-.3-.4-.8-.4-1.4-.4H6.3v12.1h1.6c.5 0 .9-.2 1.2-.5.3-.4.2-1 .2-1.3v-8.7zm-3 11v11.6h1.1v.6H.8v-.6h1.1V38.5H.8V38h7.7c.5 0 2.5-.1 3.6.6 1.2.8 1.6 1.8 1.6 3.1v6c0 .6-.2 1.8-1.4 2.6-1.1.8-3 .9-4.6.9H6.3zM42.9 42.5c0-1.3-.5-1.8-1.5-1.8-1.1 0-1.7.5-1.7 1.8v18.9c0 1 .3 1.7 1.5 1.7s1.6-.5 1.6-1.7V42.5h.1zm3.9 17.3c0 2.3-1.5 3.8-5.6 3.7-4.3 0-5.5-1.5-5.5-3.7V44.5c0-2.7 1.9-4.1 5.6-4.1 3.6 0 5.4 1.8 5.4 4.1v15.3h.1zM82.1 40.5v4.6h-.6v-3.6h-3.4v21.3h1v.6h-5.9v-.6h1V41.5h-3.4v3.6h-.6v-4.6zM117.4 40.5v4.6h-.6v-3.6h-3.4v21.3h1v.6h-5.9v-.6h.9V41.5h-3.3v3.6h-.6v-4.6zM145.6 51.2h4.4v-2h.6v5h-.6v-2h-4.4v10.1h4.4v-3.4h.6v4.5h-9.9v-.6h.9V41h-.9v-.5h9.9V45h-.6v-3.5h-4.4zM181.5 42.5c0-.4.1-.8-.2-1.1-.3-.4-.8-.4-1.2-.4h-1.2v10.7h1.4c.5 0 .8-.2 1.1-.4.3-.3.2-.9.2-1.2v-7.6h-.1zm1.2 9.2c0 .1 1.5.3 2.5.9 1 .7 1.1 1.4 1.1 2.5v7.8h1v.5h-5v-9.1c0-.7.2-1.4-.5-1.8-.4-.3-1.2-.2-1.7-.2h-1.3V63h1v.5h-5.9V63h1V41h-1v-.5h6.9c.5 0 2.3-.1 3.3.5 1.1.7 1.4 1.6 1.4 2.8v4.9c0 .2.1 1.3-.8 2.1-.9.7-2 .8-2 .9zM212.8 55.2L208.7 41h-1v-.5h5.9v.5h-1l3.5 12.1 3.1-12.1h-1v-.5h3.3v.5h-1l-3.7 14.2v7.6h.9v.6h-5.9v-.6h1zM249.9 38.5v11.7h2.3c.1 0 .6 0 .9-.3.3-.3.2-.7.2-.9v-9c0-.1.1-.9-.2-1.2-.2-.3-1.2-.3-1.3-.3h-1.9zm0 24.3h2.4c.1 0 .9 0 1.3-.3.4-.4.6-.7.6-1.2v-9c0-.4 0-.7-.3-1-.3-.3-.7-.4-1.2-.4H250v11.9h-.1zm8.6-8.9v5.7c0 1-.1 1.7-.7 2.5-1 1-3 1.2-3.8 1.2h-9.6v-.6h1.1V38.5h-1.1V38h9.1c1.1 0 2 .2 2.8.8 1.4 1.1 1.3 2.4 1.3 2.4v6.1s.1 1.2-.9 2c-1.2 1-2.1 1-2 1.1 0 .2 1.6.2 2.8 1.2.7.6 1 1.2 1 2.3zM286.2 55.6h4.5l-2.1-12.4-2.4 12.4zM288 41h-1v-.5h6.1v.5H292l4 21.8h1v.5h-6v-.5h.8l-1-6.4H286l-1.3 6.4h1v.5h-3.1v-.5h.9L288 41zM327.8 42.5c0-.4.1-.8-.2-1.1-.3-.4-.8-.4-1.2-.4h-1.2v10.7h1.4c.5 0 .8-.2 1.1-.4.3-.3.2-.9.2-1.2v-7.6h-.1zm1.3 9.2c0 .1 1.5.3 2.5.9 1 .7 1.1 1.4 1.1 2.5v7.8h1v.5h-5v-9.1c0-.7.2-1.4-.5-1.8-.4-.3-1.2-.2-1.7-.2h-1.3V63h1v.5h-5.9V63h1V41h-1v-.5h6.9c.5 0 2.3-.1 3.3.5 1.1.7 1.4 1.6 1.4 2.8v4.9c0 .2.1 1.3-.8 2.1-.9.7-2 .8-2 .9zM363.9 63.4l-4.8-19v18.4h1v.6H357v-.6h.9V41h-.9v-.5h4.9l5 19.8V41h-.9v-.5h3.1v.5h-1v22.4zM282.8 21.7c0-.9-.8-1.6-1.8-1.6s-1.8.7-1.8 1.6c0 .9.8 1.6 1.8 1.6 1-.1 1.8-.7 1.8-1.6zm-6-6.4h2.4c.9 0 1.3-.6 1.3-1.2V5.8h4.3v8c0 3.1-1.9 4.3-5.4 4.3h-2.5v-2.8h-.1zm.4 2.8h-12.7v-2.8h12.7v2.8zm-12 0h-6v-2.8h6v2.8zM252.7 6.9h-1.2s-1 0-1.3.3c-.2.3-.2 1.8-.2 1.9V14c0 .2-.1.6.2.9.3.3.8.3.9.3h1.6V6.9zm3.9 8.4h3.2v2.8h-3.2c0 3.8-2.9 5.1-6.1 5.1-1.6 0-3.4-.5-4.4-1l1-1.4c.8.4 1.9.6 3 .7 2.2.2 2.3-2 2.3-3.2V18h-2c-4.1 0-4.4-2.1-4.4-5.7 0-4.1 0-6.6 5.2-6.6h5.4v9.6zM238.1 2.1c0-.9-.9-1.6-1.8-1.6-1 0-1.8.7-1.8 1.6 0 .9.8 1.5 1.8 1.5.9 0 1.8-.6 1.8-1.5zm4.7 0c0-.9-.8-1.6-1.8-1.6s-1.8.7-1.8 1.6c0 .9.8 1.5 1.8 1.5s1.8-.6 1.8-1.5zm-8.1 13.2h2.4c.9 0 1.3-.6 1.3-1.2V5.8h4.3v8c0 3.1-1.9 4.3-5.4 4.3h-2.5v-2.8h-.1zm.4 2.8h-6v-2.8h6v2.8zm-5.2 0h-10v-2.8h10v2.8zm-5.3 0h-10v-2.8h10v2.8zm-12.2-4c0 .7.5 1.2 1.4 1.2h1.3v2.8h-1.3c-.5 0-1 0-1.5-.2v.2c0 3.6-2.4 5.1-5.6 5.1-.8 0-2.6-.3-2.5-.2l.8-.8c0 .1.6.1.9.1 1.6 0 2.2-.9 2.2-2.1V5.8h4.2v8.3h.1zm-15.9 7.6c0-.9-.8-1.6-1.8-1.6s-1.8.7-1.8 1.6c0 .9.8 1.5 1.8 1.5s1.8-.7 1.8-1.5zm-4.7 0c0-.9-.8-1.6-1.8-1.6s-1.8.7-1.8 1.6c0 .9.8 1.5 1.8 1.5s1.8-.7 1.8-1.5zm7.7-8.7c0 1.6-.6 2.2-2.2 2.2H185c-.8 0-2-.5-2-1.6V5.8h-4.3v7.5c0 3.1 2.7 4.9 5.9 4.9h13.3c3.2 0 5.3-1.5 5.3-5.1v-2.9H196.4c-1.2 0-2.8-.2-2.8-1.9 0-1.3 1.6-1.7 2.8-1.7 0 0 .1-3.3 0-3.3-3.7 0-5.8 1.5-5.8 4.5 0 3.6 2.1 5.3 5.8 5.3h3.1V13zm-42.2 8.7c0-.9-.8-1.6-1.8-1.6s-1.8.7-1.8 1.6c0 .9.8 1.6 1.8 1.6 1-.1 1.8-.7 1.8-1.6zm-5.9-6.4h2.4c.9 0 1.3-.6 1.3-1.2V5.8h4.3v8c0 3.1-1.9 4.3-5.4 4.3h-2.5v-2.8h-.1zm.3 2.8h-6v-2.8h6v2.8zm-5.2 0h-6v-2.8h6v2.8zm-5.2 0h-6v-2.8h6v2.8zm-5.3 0h-12.7v-2.8H136v2.8zm-11.9 0h-6v-2.8h6v2.8zm-5.4 0H117c-3.6 0-5.4-1.2-5.4-4.3V.5h4.2v13.6c0 .6.4 1.2 1.3 1.2h1.6v2.8zM99.9 23s.7-.9.8-.8c0 0 .6.1.9.1 1.6 0 2.2-1.6 2.2-2.8V5.8h4.2v12.3c0 3.6-2.4 5.1-5.6 5.1-.8 0-1.7-.1-2.5-.2zM93.5 2.1c0-.9-.8-1.6-1.8-1.6s-1.8.7-1.8 1.6c0 .9.8 1.5 1.8 1.5s1.8-.6 1.8-1.5zm4.4 16.2V5.8h-4.3v12.5c0 1.1.1 4-2.1 4s-2.1-2.9-2.1-4V5.8h-4.3v12.6c0 3.1 3.2 4.9 6.4 4.9 3.2-.1 6.4-1.8 6.4-5z"/>
        <path d="M284.4 5.8h-4.9v.5H285.8v-.5zM242.2 5.8h-4.9v.5H243.6v-.5zM212 5.8h-4.9v.5H213.4v-.5zM182.6 5.8h-5v.5h6.4v-.5zM158.9 5.8h-5v.5h6.4v-.5zM107.6 5.8h-4.9v.5H109v-.5zM97.6 5.8h-4.9v.5H99v-.5zM89 5.8h-4.9v.5H90.4v-.5zM115.4.5h-5V1h6.4V.5zM256.3 5.8l-5 .5h6.4v-.5z"/>
    </g>
</svg>
