<svg width="24" height="24" xmlns="http://www.w3.org/2000/svg">
    <g fill="none" fill-rule="evenodd">
        <rect stroke="#004236" fill="#F8F3E8" x=".5" y=".5" width="23" height="23" rx="3"/>
        <g fill="#004236" fill-rule="nonzero">
            <path d="M14.922 4.35a.858.858 0 0 0-.703.84.836.836 0 0 0 .612.84c3.44 1.288 5.49 4.847 4.304 8.175-1.41 3.965-5.746 6.026-9.683 4.605a7.608 7.608 0 0 1-4.577-4.605c-1.183-3.352.872-6.915 4.308-8.2a.843.843 0 0 0 .612-.84.84.84 0 0 0-.7-.84C7.923 4.117 3.97 6.889 4 11.634c0 4.448 3.584 8.052 8 8.052s8-3.604 8-8.052c.031-4.742-3.92-7.514-5.078-7.283z"/>
            <path d="M18.95 13.554a7.602 7.602 0 0 0-3.118-2.639.666.666 0 0 1-.452-.654.692.692 0 0 1 .686-.696h.025c.766 0 2.415 2.05 2.859 3.99z"/>
            <path d="M15.563 6.961a.762.762 0 0 0-.767.76.719.719 0 0 0 .465.727 7.048 7.048 0 0 1 3.78 4.308c.389-3.181-2.46-5.767-3.479-5.795zM5.092 13.554a7.646 7.646 0 0 1 3.118-2.639.668.668 0 0 0 .452-.654.695.695 0 0 0-.693-.696h-.014c-.77 0-2.415 2.05-2.863 3.99z"/>
            <path d="M8.476 6.961a.768.768 0 0 1 .773.756v.007a.716.716 0 0 1-.476.714 7.08 7.08 0 0 0-3.814 4.318c-.385-3.174 2.485-5.767 3.517-5.795z"/>
        </g>
    </g>
</svg>
