<?xml version="1.0" standalone="no"?>
<!DOCTYPE svg PUBLIC "-//W3C//DTD SVG 1.1//EN" "http://www.w3.org/Graphics/SVG/1.1/DTD/svg11.dtd" >
<svg xmlns="http://www.w3.org/2000/svg">
<metadata>Generated by IcoMoon</metadata>
<defs>
<font id="alshaya-icons" horiz-adv-x="1024">
<font-face units-per-em="1024" ascent="960" descent="-64" />
<missing-glyph horiz-adv-x="1024" />
<glyph unicode="&#x20;" horiz-adv-x="512" d="" />
<glyph unicode="&#xe006;" glyph-name="ic_bell" d="M512 896q55 0 104-17.833t87-49.167 68.333-74.5 50.5-93.333 31.5-106.5q33.667-169 71.5-267.167t99.167-159.5h-391.333q7.333-21 7.333-42.667 0-53-37.5-90.5t-90.5-37.5-90.5 37.5-37.5 90.5q0 21.667 7.333 42.667h-391.333q61.333 61.333 99.167 159.5t71.5 267.167q11.333 56.333 31.5 106.5t50.5 93.333 68.333 74.5 87 49.167 104 17.833zM512 128q-17.667 0-30.167-12.5t-12.5-30.167 12.5-30.167 30.167-12.5 30.167 12.5 12.5 30.167-12.5 30.167-30.167 12.5zM512 810.667q-38.667 0-72.833-12t-58.5-30.667-45.167-44.833-33.833-50.833-23.5-52.667-15.5-46.167-8.333-35.5q-42.667-215-94-324.667h703.333q-51.333 109.667-94 324.667-3.333 17.333-8.333 35.5t-15.5 46.167-23.5 52.667-33.833 50.833-45.167 44.833-58.5 30.667-72.833 12z" />
<glyph unicode="&#xe083;" glyph-name="ic_marquee-plus" d="M512 640q17.667 0 30.167-12.5t12.5-30.167v-128h128q17.667 0 30.167-12.5t12.5-30.167-12.5-30.167-30.167-12.5h-128v-128q0-17.667-12.5-30.167t-30.167-12.5-30.167 12.5-12.5 30.167v128h-128q-17.667 0-30.167 12.5t-12.5 30.167 12.5 30.167 30.167 12.5h128v128q0 17.667 12.5 30.167t30.167 12.5zM85.333 213.334q17.667 0 30.167-12.5t12.5-30.167v-85.333q0-17.667 12.5-30.167t30.167-12.5h85.333q17.667 0 30.167-12.5t12.5-30.167-12.5-30.167-30.167-12.5h-85.333q-53 0-90.5 37.5t-37.5 90.5v85.333q0 17.667 12.5 30.167t30.167 12.5zM85.333 554.667q17.667 0 30.167-12.5t12.5-30.167v-170.667q0-17.667-12.5-30.167t-30.167-12.5-30.167 12.5-12.5 30.167v170.667q0 17.667 12.5 30.167t30.167 12.5zM426.667 42.667h170.667q17.667 0 30.167-12.5t12.5-30.167-12.5-30.167-30.167-12.5h-170.667q-17.667 0-30.167 12.5t-12.5 30.167 12.5 30.167 30.167 12.5zM170.667 896h85.333q17.667 0 30.167-12.5t12.5-30.167-12.5-30.167-30.167-12.5h-85.333q-17.667 0-30.167-12.5t-12.5-30.167v-85.333q0-17.667-12.5-30.167t-30.167-12.5-30.167 12.5-12.5 30.167v85.333q0 53 37.5 90.5t90.5 37.5zM938.667 213.334q17.667 0 30.167-12.5t12.5-30.167v-85.333q0-53-37.5-90.5t-90.5-37.5h-85.333q-17.667 0-30.167 12.5t-12.5 30.167 12.5 30.167 30.167 12.5h85.333q17.667 0 30.167 12.5t12.5 30.167v85.333q0 17.667 12.5 30.167t30.167 12.5zM938.667 554.667q17.667 0 30.167-12.5t12.5-30.167v-170.667q0-17.667-12.5-30.167t-30.167-12.5-30.167 12.5-12.5 30.167v170.667q0 17.667 12.5 30.167t30.167 12.5zM426.667 896h170.667q17.667 0 30.167-12.5t12.5-30.167-12.5-30.167-30.167-12.5h-170.667q-17.667 0-30.167 12.5t-12.5 30.167 12.5 30.167 30.167 12.5zM768 896h85.333q53 0 90.5-37.5t37.5-90.5v-85.333q0-17.667-12.5-30.167t-30.167-12.5-30.167 12.5-12.5 30.167v85.333q0 17.667-12.5 30.167t-30.167 12.5h-85.333q-17.667 0-30.167 12.5t-12.5 30.167 12.5 30.167 30.167 12.5z" />
<glyph unicode="&#xe900;" glyph-name="ic_arrowdown" d="M740.48 377.814c-3.856 3.834-9.171 6.204-15.040 6.204s-11.184-2.37-15.041-6.205l-177.066-176.852v503.040c0 11.782-9.551 21.333-21.333 21.333s-21.333-9.551-21.333-21.333v-503.253l-177.067 177.067c-3.706 3.188-8.565 5.13-13.876 5.13-11.782 0-21.333-9.551-21.333-21.333 0-5.312 1.941-10.17 5.153-13.904l213.31-213.305c3.856-3.834 9.171-6.204 15.040-6.204s11.184 2.37 15.041 6.205l213.332 213.332c3.898 3.867 6.311 9.225 6.311 15.147 0 5.816-2.327 11.088-6.101 14.936z" />
<glyph unicode="&#xe901;" glyph-name="ic_arrowup" d="M740.48 505.814l-213.333 213.333c-3.856 3.834-9.171 6.204-15.040 6.204s-11.184-2.37-15.041-6.205l-213.332-213.332c-3.188-3.706-5.13-8.565-5.13-13.876 0-11.782 9.551-21.333 21.333-21.333 5.312 0 10.17 1.941 13.904 5.153l176.825 176.616v-503.040c0-11.782 9.551-21.333 21.333-21.333s21.333 9.551 21.333 21.333v503.253l177.067-177.067c3.706-3.188 8.565-5.13 13.876-5.13 11.782 0 21.333 9.551 21.333 21.333 0 5.312-1.941 10.17-5.153 13.904z" />
<glyph unicode="&#xe902;" glyph-name="ic_blog" d="M512 821.334c-217.968 0-394.667-176.698-394.667-394.667s176.698-394.667 394.667-394.667c217.968 0 394.667 176.698 394.667 394.667-0.243 217.87-176.796 394.424-394.643 394.667zM512 53.334c-206.186 0-373.333 167.147-373.333 373.333s167.147 373.333 373.333 373.333c206.186 0 373.333-167.147 373.333-373.333-0.243-206.089-167.245-373.091-373.311-373.333zM376.533 417.707c8.879 4.083 14.934 12.902 14.934 23.135 0 0.042 0 0.083 0 0.125 0.004 0.148 0.006 0.33 0.006 0.512 0 4.44-1.19 8.602-3.268 12.185-4.016 6.904-11.001 11.851-19.202 13.092-2.991 0.253-6.301 0.386-9.642 0.386s-6.651-0.134-9.925-0.396l-42.235 0.028v-106.667h36.48q21.333 0 26.027 0c5.462 0.475 10.413 2.32 14.612 5.188 3.818 2.787 6.935 6.52 8.994 10.852 2.226 4.328 3.487 9.243 3.487 14.452 0 0.005 0 0.010 0 0.015 0.001 0.084 0.002 0.184 0.002 0.284 0 5.941-2.007 11.412-5.379 15.775-3.507 5.163-8.656 9.068-14.691 10.98zM328.747 450.134h30.933c3.204-0.258 6.033-1.679 8.103-3.836 1.736-2.036 2.789-4.692 2.789-7.593 0-0.182-0.004-0.363-0.012-0.543 0.006-0.103 0.009-0.253 0.009-0.404 0-3.070-1.224-5.855-3.21-7.893-2.301-2.167-5.337-3.581-8.696-3.835l-29.701-0.003zM371.413 384c-2.013-2.221-4.74-3.761-7.816-4.256-2.28-0.188-4.847-0.29-7.437-0.29s-5.157 0.101-7.696 0.301l-19.717-0.021v27.733h17.493c1.183 0.068 2.566 0.107 3.959 0.107 5.398 0 10.66-0.583 15.726-1.689 2.338-0.784 4.683-2.508 6.315-4.779 1.5-2.208 2.378-4.884 2.378-7.765 0-0.134-0.002-0.267-0.006-0.4 0.004-0.101 0.007-0.244 0.007-0.387 0-3.282-1.215-6.28-3.219-8.569zM437.12 466.987h-21.547v-106.027h75.307v17.92h-53.76v88.107zM553.6 469.334c-0.301 0.006-0.657 0.009-1.013 0.009-7.938 0-15.508-1.571-22.419-4.418-5.018-2.221-9.624-5.46-13.462-9.444-4.092-4.169-7.461-9.040-9.911-14.418-3.253-7.835-5.068-16.569-5.068-25.727 0-0.741 0.012-1.48 0.035-2.215-0.060-0.837-0.093-1.94-0.093-3.052 0-14.229 5.379-27.202 14.214-36.996 9.885-9.010 23.153-14.559 37.717-14.559s27.831 5.549 37.804 14.648c8.756 9.795 14.135 22.85 14.135 37.163 0 1.172-0.036 2.335-0.107 3.489 0.076 0.875 0.114 2.081 0.114 3.297 0 14.342-5.381 27.427-14.235 37.347-9.052 9.191-21.702 14.919-35.689 14.919-0.711 0-1.419-0.015-2.123-0.044zM574.933 386.56c-5.289-5.816-12.887-9.452-21.333-9.452s-16.044 3.636-21.312 9.429c-5.276 6.741-8.448 15.31-8.448 24.619 0 1.029 0.039 2.049 0.115 3.059-0.041 0.47-0.059 1.178-0.059 1.89 0 9.899 3.568 18.965 9.487 25.983 5.376 5.474 12.929 8.904 21.284 8.904s15.908-3.43 21.329-8.959c5.139-6.7 8.232-15.195 8.232-24.413 0-1.095-0.044-2.18-0.129-3.254 0.075-0.732 0.113-1.75 0.113-2.777 0-9.278-3.085-17.836-8.285-24.703zM672.213 400.214h24.747v-13.44c-3.374-2.562-7.251-4.721-11.416-6.295-4.35-1.806-9.034-2.819-13.947-2.878-0.069 0-0.123-0.001-0.178-0.001-8.428 0-15.991 3.702-21.151 9.569-5.413 7.097-8.656 16.049-8.656 25.759 0 1.006 0.035 2.004 0.103 2.993-0.078 0.73-0.118 1.736-0.118 2.751 0 9.045 3.181 17.348 8.484 23.85 5.273 5.476 12.751 8.921 21.033 8.921 0.462 0 0.921-0.011 1.378-0.032 0.256 0.017 0.631 0.025 1.008 0.025 5.42 0 10.446-1.684 14.585-4.558 4.015-2.947 7.033-7.211 8.411-12.159l21.371 3.894c-1.845 9.461-7.007 17.48-14.202 22.973-7.828 5.010-17.261 7.945-27.38 7.945-1.584 0-3.151-0.072-4.698-0.213-0.339 0.033-0.972 0.044-1.607 0.044-8.646 0-16.831-1.978-24.125-5.507-8.781-4.157-16.1-10.997-20.88-19.46-4.055-8.124-6.357-17.419-6.357-27.251 0-0.852 0.017-1.701 0.052-2.545-0.006-0.080-0.007-0.316-0.007-0.554 0-10.060 2.283-19.587 6.359-28.090 3.921-8.178 10.389-15.058 18.38-19.546 8.27-4.558 17.863-7.172 28.066-7.172 0.487 0 0.973 0.006 1.457 0.018-0.071-0.001-0.070-0.001-0.069-0.001 9.365 0 18.31 1.801 26.506 5.077 7.101 2.519 13.629 6.436 19.203 11.401l-0.059 42.615h-46.293z" />
<glyph unicode="&#xe903;" glyph-name="ic_blogselect" d="M554.667 451.2c-0.241 0.008-0.525 0.012-0.81 0.012-8.144 0-15.461-3.537-20.5-9.159-5.157-6.721-8.25-15.216-8.25-24.434 0-1.095 0.044-2.18 0.129-3.254-0.089-0.81-0.135-1.917-0.135-3.035 0-9.197 3.096-17.672 8.302-24.438 5.219-5.722 12.817-9.358 21.264-9.358s16.044 3.636 21.312 9.429c5.283 6.843 8.455 15.511 8.455 24.919 0 1.074-0.041 2.138-0.122 3.191 0.065 0.657 0.097 1.586 0.097 2.523 0 9.322-3.164 17.905-8.476 24.735-4.948 5.435-12.159 8.891-20.177 8.891-0.383 0-0.764-0.008-1.143-0.023zM365.44 405.334c-4.581 1.017-9.843 1.6-15.241 1.6-1.392 0-2.776-0.039-4.149-0.115l-17.303 0.008v-28.587h20.053c2.203-0.178 4.77-0.279 7.36-0.279s5.157 0.101 7.696 0.301c2.818 0.485 5.545 2.025 7.547 4.234 1.878 2.248 3.013 5.155 3.013 8.326 0 0.227-0.006 0.453-0.017 0.677 0.005 0.082 0.007 0.215 0.007 0.349 0 2.881-0.879 5.557-2.383 7.775-1.454 2.567-3.742 4.58-6.495 5.68zM358.613 426.667c3.408 0.256 6.443 1.671 8.754 3.847 1.977 2.028 3.201 4.813 3.201 7.883 0 0.151-0.003 0.302-0.009 0.451 0.008 0.133 0.012 0.314 0.012 0.496 0 2.902-1.053 5.557-2.798 7.606-2.060 2.145-4.889 3.566-8.048 3.821l-30.765 0.003v-24.747h14.080zM512 821.334c-217.968 0-394.667-176.698-394.667-394.667s176.698-394.667 394.667-394.667c217.968 0 394.667 176.698 394.667 394.667-0.243 217.87-176.796 394.424-394.643 394.667zM393.387 377.814c-2.133-4.506-5.25-8.238-9.092-11.037-4.175-2.856-9.127-4.702-14.473-5.169q-5.448-0.008-26.142-0.008h-36.48v106.667h42.667c2.842 0.234 6.152 0.368 9.493 0.368s6.651-0.134 9.925-0.396c7.953-1.281 14.947-6.306 18.912-13.279 2.085-3.599 3.275-7.761 3.275-12.201 0-0.182-0.002-0.364-0.006-0.545 0.001-0.008 0.001-0.050 0.001-0.092 0-10.233-6.054-19.051-14.776-23.070 5.91-1.636 11.032-5.027 14.734-9.612 3.37-4.356 5.376-9.828 5.376-15.768 0-0.1-0.001-0.2-0.002-0.3 0.016-0.356 0.025-0.793 0.025-1.231 0-5.229-1.271-10.16-3.521-14.503zM490.88 360.96h-75.307v106.667h21.333v-88.107h53.76zM591.573 373.76c-9.929-9.059-23.196-14.608-37.76-14.608s-27.831 5.549-37.804 14.648c-8.748 9.706-14.126 22.679-14.126 36.908 0 1.111 0.033 2.215 0.098 3.31-0.028 0.477-0.040 1.216-0.040 1.957 0 9.158 1.815 17.893 5.104 25.863 2.414 5.242 5.783 10.113 9.869 14.277 3.844 3.989 8.45 7.228 13.585 9.485 6.792 2.812 14.363 4.383 22.301 4.383 0.356 0 0.712-0.003 1.066-0.009 0.611 0.032 1.389 0.050 2.172 0.050 13.886 0 26.454-5.646 35.533-14.767 8.807-9.866 14.188-22.951 14.188-37.293 0-1.216-0.039-2.422-0.115-3.618 0.079-0.892 0.12-2.125 0.12-3.367 0-14.319-5.384-27.38-14.239-37.269zM719.573 375.68c-5.516-4.914-12.044-8.832-19.217-11.392-8.124-3.233-17.069-5.034-26.434-5.034-0.001 0-0.002 0-0.003 0-0.412-0.010-0.898-0.016-1.385-0.016-10.203 0-19.795 2.614-28.144 7.209-7.913 4.452-14.381 11.332-18.355 19.632-4.465 8.507-7.119 18.237-7.368 28.563-0.007 0.384-0.010 0.745-0.010 1.106 0 10.467 2.608 20.324 7.21 28.958 4.74 8.367 12.060 15.206 20.885 19.386 7.25 3.506 15.434 5.485 24.080 5.485 0.635 0 1.268-0.011 1.898-0.032 0.815 0.060 1.874 0.092 2.94 0.092 10.465 0 20.196-3.139 28.303-8.528 7.098-5.442 12.26-13.462 14.066-22.683l-21.294-4.292c-1.416 5.107-4.434 9.371-8.47 12.329-4.117 2.863-9.144 4.547-14.564 4.547-0.377 0-0.753-0.008-1.126-0.024-0.339 0.021-0.798 0.031-1.26 0.031-8.282 0-15.759-3.445-21.078-8.98-6.355-6.749-10.254-15.854-10.254-25.869 0-0.209 0.002-0.417 0.005-0.625-0.061-0.824-0.096-1.822-0.096-2.828 0-9.709 3.243-18.661 8.705-25.832 5.111-5.794 12.675-9.496 21.102-9.496 0.054 0 0.109 0 0.163 0 0.023 0 0.061 0 0.098 0 4.876 0 9.532 0.94 13.797 2.649 4.232 1.59 8.109 3.75 11.598 6.395l-0.115 13.357h-23.040v17.92h46.507z" />
<glyph unicode="&#xe904;" glyph-name="ic_checkboxempty" d="M832 746.667v-640h-640v640h640zM832 810.667h-640c-35.346 0-64-28.654-64-64v-640c0-35.346 28.654-64 64-64h640c35.346 0 64 28.654 64 64v640c0 35.346-28.654 64-64 64z" />
<glyph unicode="&#xe905;" glyph-name="ic_checkboxfull" d="M894.72 759.467c-6.163 29.422-31.892 51.2-62.707 51.2-0.005 0-0.009 0-0.014 0h-639.999c-35.346 0-64-28.654-64-64v-640c0-35.346 28.654-64 64-64h640c35.346 0 64 28.654 64 64v640c0 0.019 0 0.041 0 0.064 0 4.508-0.466 8.907-1.353 13.152zM747.947 532.054l-277.333-277.333c-5.789-5.782-13.784-9.359-22.613-9.359s-16.824 3.576-22.614 9.359l-149.333 149.333c-5.321 5.699-8.588 13.376-8.588 21.815 0 17.673 14.327 32 32 32 8.44 0 16.116-3.267 21.834-8.606l126.701-126.703 254.72 254.72c5.699 5.321 13.376 8.588 21.815 8.588 17.673 0 32-14.327 32-32 0-8.44-3.267-16.116-8.606-21.834z" />
<glyph unicode="&#xe906;" glyph-name="ic_checkshape" d="M710.187 569.814l-262.187-262.4-134.187 134.187c-3.706 3.188-8.565 5.13-13.876 5.13-11.782 0-21.333-9.551-21.333-21.333 0-5.312 1.941-10.17 5.153-13.904l149.31-149.305c3.856-3.834 9.171-6.204 15.040-6.204s11.184 2.37 15.041 6.205l277.332 277.332c3.188 3.706 5.13 8.565 5.13 13.876 0 11.782-9.551 21.333-21.333 21.333-5.312 0-10.17-1.941-13.904-5.153zM512 832c-223.859 0-405.333-181.474-405.333-405.333s181.474-405.333 405.333-405.333c223.859 0 405.333 181.474 405.333 405.333s-181.474 405.333-405.333 405.333zM512 64c-200.295 0-362.667 162.371-362.667 362.667s162.371 362.667 362.667 362.667c200.295 0 362.667-162.371 362.667-362.667s-162.371-362.667-362.667-362.667z" />
<glyph unicode="&#xe907;" glyph-name="ic_chevrondown" d="M512 288c-0.037 0-0.080 0-0.123 0-5.86 0-11.169 2.363-15.025 6.188l-234.665 234.665c-3.188 3.706-5.13 8.565-5.13 13.876 0 11.782 9.551 21.333 21.333 21.333 5.312 0 10.17-1.941 13.904-5.153l219.705-219.496 219.52 219.733c3.706 3.188 8.565 5.13 13.876 5.13 11.782 0 21.333-9.551 21.333-21.333 0-5.312-1.941-10.17-5.153-13.904l-234.643-234.639c-3.806-3.882-9.077-6.314-14.917-6.4z" />
<glyph unicode="&#xe908;" glyph-name="ic_chevronleft" d="M629.333 170.667c-0.037 0-0.080 0-0.123 0-5.86 0-11.169 2.363-15.025 6.188l-234.665 234.665c-3.834 3.856-6.204 9.171-6.204 15.040s2.37 11.184 6.205 15.041l234.666 234.666c3.706 3.188 8.565 5.13 13.876 5.13 11.782 0 21.333-9.551 21.333-21.333 0-5.312-1.941-10.17-5.153-13.904l-219.496-219.492 219.733-219.52c3.898-3.867 6.311-9.225 6.311-15.147 0-11.782-9.551-21.333-21.333-21.333-0.044 0-0.087 0-0.131 0z" />
<glyph unicode="&#xe909;" glyph-name="ic_chevronright" d="M394.667 170.667c-0.037 0-0.080 0-0.124 0-11.782 0-21.333 9.551-21.333 21.333 0 5.922 2.413 11.28 6.309 15.146l219.735 219.521-219.733 219.52c-3.188 3.706-5.13 8.565-5.13 13.876 0 11.782 9.551 21.333 21.333 21.333 5.312 0 10.17-1.941 13.904-5.153l234.639-234.643c3.834-3.856 6.204-9.171 6.204-15.040s-2.37-11.184-6.205-15.041l-234.666-234.666c-3.834-3.803-9.106-6.161-14.928-6.187z" />
<glyph unicode="&#xe90a;" glyph-name="ic_chevronup" d="M746.667 288c-0.037 0-0.080 0-0.123 0-5.86 0-11.169 2.363-15.025 6.188l-219.519 219.732-219.52-219.733c-3.706-3.188-8.565-5.13-13.876-5.13-11.782 0-21.333 9.551-21.333 21.333 0 5.312 1.941 10.17 5.153 13.904l234.643 234.639c3.856 3.834 9.171 6.204 15.040 6.204s11.184-2.37 15.041-6.205l234.666-234.666c3.771-3.845 6.098-9.117 6.098-14.934 0-11.751-9.501-21.283-21.24-21.333z" />
<glyph unicode="&#xe90b;" glyph-name="ic_close" d="M542.080 426.667l155.52 155.52c3.188 3.706 5.13 8.565 5.13 13.876 0 11.782-9.551 21.333-21.333 21.333-5.312 0-10.17-1.941-13.904-5.153l-155.492-155.496-155.52 155.52c-3.706 3.188-8.565 5.13-13.876 5.13-11.782 0-21.333-9.551-21.333-21.333 0-5.312 1.941-10.17 5.153-13.904l155.496-155.492-155.52-155.52c-4.577-3.936-7.457-9.733-7.457-16.204 0-11.782 9.551-21.333 21.333-21.333 6.47 0 12.268 2.88 16.18 7.429l155.544 155.548 155.52-155.52c3.706-3.188 8.565-5.13 13.876-5.13 11.782 0 21.333 9.551 21.333 21.333 0 5.312-1.941 10.17-5.153 13.904z" />
<glyph unicode="&#xe90c;" glyph-name="ic_closeshape" d="M512 832c-223.859 0-405.333-181.474-405.333-405.333s181.474-405.333 405.333-405.333c223.859 0 405.333 181.474 405.333 405.333s-181.474 405.333-405.333 405.333zM512 64c-200.295 0-362.667 162.371-362.667 362.667s162.371 362.667 362.667 362.667c200.295 0 362.667-162.371 362.667-362.667s-162.371-362.667-362.667-362.667zM697.813 612.48c-3.856 3.834-9.171 6.204-15.040 6.204s-11.184-2.37-15.041-6.205l-155.732-155.732-155.52 155.52c-3.706 3.188-8.565 5.13-13.876 5.13-11.782 0-21.333-9.551-21.333-21.333 0-5.312 1.941-10.17 5.153-13.904l155.496-155.492-155.52-155.52c-4.577-3.936-7.457-9.733-7.457-16.204 0-11.782 9.551-21.333 21.333-21.333 6.47 0 12.268 2.88 16.18 7.429l155.544 155.548 155.52-155.52c3.706-3.188 8.565-5.13 13.876-5.13 11.782 0 21.333 9.551 21.333 21.333 0 5.312-1.941 10.17-5.153 13.904l-155.496 155.492 155.52 155.52c3.962 3.877 6.418 9.278 6.418 15.252 0 5.869-2.37 11.185-6.205 15.042z" />
<glyph unicode="&#xe90d;" glyph-name="ic_delivery" d="M746.667 485.12l-170.667-79.787v-42.667l170.667 79.787v42.667zM682.667 369.28l-106.667-49.92v-42.027l106.667 49.92v42.027zM840.96 659.414l-320 149.333c-2.656 1.277-5.774 2.023-9.067 2.023s-6.411-0.746-9.195-2.078l-319.872-149.278h-1.493l-1.493-1.28-1.707-1.493-2.347-2.773-1.28-1.707c-0.623-1.032-1.198-2.228-1.659-3.479l-0.048-1.641c-1.055-2.043-1.808-4.421-2.123-6.935l-0.011-426.771c0-0.016 0-0.034 0-0.053 0-8.531 5.007-15.892 12.243-19.305l320.13-149.388c2.345-1.116 5.097-1.768 8-1.768s5.655 0.652 8.115 1.817l-0.115-0.049 320 149.333c8.172 2.912 13.977 10.446 14.292 19.376l0.001 422.224c0.075 0.672 0.118 1.451 0.118 2.24s-0.043 1.568-0.126 2.335c0.008-0.079 0.008-0.061 0.008-0.042 0 8.531-5.007 15.892-12.243 19.305zM512 765.867l269.227-125.867-92.8-42.667-269.227 125.867zM490.667 97.494l-277.333 129.493v379.52l277.333-129.493zM512 514.347l-269.653 125.653 126.293 58.88 269.227-125.867zM810.667 226.987l-277.333-129.493v379.52l277.333 129.28z" />
<glyph unicode="&#xe90e;" glyph-name="ic_deliveryservice" d="M853.333 298.667c0 76.16-45.227 120.533-128 126.933v43.733c0 11.782-9.551 21.333-21.333 21.333h-10.453l46.507 108.373c15.817 2.828 29.671 9.782 40.831 19.701 21.987 21.781 35.653 52.089 35.653 85.589 0 11.735-1.677 23.078-4.804 33.803-13.153 47.964-52.951 84.837-102.462 93.75-1.967 0.348-3.319 0.479-4.701 0.479-11.782 0-21.333-9.551-21.333-21.333 0-4.613 1.464-8.883 3.952-12.373 15.529-21.268 7.209-33.428-18.391-59.455-10.169-9.082-18.702-19.724-25.287-31.597-5.289-10.203-8.208-21.548-8.208-33.574 0-9.239 1.722-18.075 4.863-26.206 4.228-9.874 10.597-18.638 18.53-25.678l-82.699-116.118v304.64c0 11.782-9.551 21.333-21.333 21.333h-149.333c-11.782 0-21.333-9.551-21.333-21.333v-298.667l-66.773 117.333c-1.505 2.542-3.43 4.671-5.703 6.359l-85.391 64.041c-3.521 2.664-7.973 4.267-12.8 4.267-11.782 0-21.333-9.551-21.333-21.333v-106.667c0.001-4.015 1.111-7.77 3.040-10.976l44.533-74.357h-26.24c-11.782 0-21.333-9.551-21.333-21.333v-362.667c0-58.91 47.756-106.667 106.667-106.667h320c58.91 0 106.667 47.756 106.667 106.667v64c82.773 7.253 128 51.627 128 128zM617.387 490.667l74.88 104.96-45.013-104.96zM681.387 688.854c4.971 7.612 10.606 14.196 16.982 19.978 19.649 16.415 33.456 39.067 38.374 64.872 16.533-10.421 28.561-26.959 33.688-46.305 2.17-7.221 3.346-14.866 3.346-22.784 0-20.822-8.128-39.746-21.385-53.771-7.823-6.727-18.127-10.845-29.392-10.845-7.31 0-14.215 1.734-20.326 4.814-9.993 3.167-18.218 10.281-22.892 19.499-1.252 3.271-1.917 6.795-1.917 10.474 0 5.151 1.304 9.997 3.599 14.226zM426.667 789.334h106.667v-21.333h-64c-11.782 0-21.333-9.551-21.333-21.333s9.551-21.333 21.333-21.333h64v-21.333h-21.333c-11.782 0-21.333-9.551-21.333-21.333s9.551-21.333 21.333-21.333h21.333v-21.333h-64c-11.782 0-21.333-9.551-21.333-21.333s9.551-21.333 21.333-21.333h64v-21.333h-21.333c-11.782 0-21.333-9.551-21.333-21.333s9.551-21.333 21.333-21.333h21.333v-42.667h-106.667zM234.667 640l42.667-31.573-42.667-27.733v1.067zM257.28 544.214l42.667 28.587 47.36-82.133h-57.813zM682.667 106.667c0-35.346-28.654-64-64-64h-320c-35.346 0-64 28.654-64 64v341.333h448v-341.333zM725.333 213.334v169.387c75.947-6.827 85.333-50.56 85.333-84.267s-9.387-77.44-85.333-85.12z" />
<glyph unicode="&#xe90f;" glyph-name="ic_direction" d="M569.813 591.147c-3.706 3.188-8.565 5.13-13.876 5.13-11.782 0-21.333-9.551-21.333-21.333 0-5.312 1.941-10.17 5.153-13.904l69.95-70.372h-183.040c-11.782 0-21.333-9.551-21.333-21.333v-192c0-11.782 9.551-21.333 21.333-21.333s21.333 9.551 21.333 21.333v170.667h161.92l-70.4-70.4c-4.577-3.936-7.457-9.733-7.457-16.204 0-11.782 9.551-21.333 21.333-21.333 6.47 0 12.268 2.88 16.18 7.429l106.69 106.695c3.834 3.856 6.204 9.171 6.204 15.040s-2.37 11.184-6.205 15.041zM879.36 467.2l-326.613 326.613c-10.415 10.37-24.779 16.781-40.64 16.781s-30.225-6.411-40.642-16.784l-326.611-326.398c-10.422-10.391-16.87-24.763-16.87-40.64s6.448-30.249 16.868-40.639l326.401-326.401c10.415-10.37 24.779-16.781 40.64-16.781s30.225 6.411 40.642 16.784l326.398 325.971c10.533 10.212 17.071 24.493 17.071 40.301 0 0.232-0.001 0.463-0.004 0.695-0.039 15.76-6.383 30.067-16.648 40.506zM849.067 416.214l-326.613-326.613c-2.713-2.767-6.489-4.482-10.667-4.482s-7.954 1.715-10.664 4.48l-325.976 326.616c-2.821 2.687-4.576 6.472-4.576 10.667s1.755 7.98 4.57 10.661l326.406 326.192c2.713 2.767 6.489 4.482 10.667 4.482s7.954-1.715 10.664-4.48l326.402-326.402c2.514-2.756 4.054-6.438 4.054-10.481 0-0.065 0-0.131-0.001-0.196 0.003-0.095 0.005-0.218 0.005-0.342 0-3.961-1.635-7.539-4.268-10.098z" />
<glyph unicode="&#xe910;" glyph-name="ic_email" d="M512 821.334c-217.968 0-394.667-176.698-394.667-394.667s176.698-394.667 394.667-394.667c217.968 0 394.667 176.698 394.667 394.667-0.243 217.87-176.796 394.424-394.643 394.667zM512 53.334c-206.186 0-373.333 167.147-373.333 373.333s167.147 373.333 373.333 373.333c206.186 0 373.333-167.147 373.333-373.333-0.243-206.089-167.245-373.091-373.311-373.333zM313.6 408.107h53.547v17.92h-53.547v23.68h57.6v18.133h-79.147v-106.88h81.28v17.92h-59.733v29.227zM442.88 394.88l-19.413 72.96h-32.213v-106.88h20.053v84.053l21.12-84.053h20.907l21.12 84.053v-84.053h20.053v106.88h-32.427l-19.2-72.96zM546.773 467.84l-42.667-106.667h22.827l8.747 24.32h42.667l9.387-24.32h23.467l-42.667 106.667zM543.573 403.84l14.507 39.68 14.72-39.68zM623.147 467.84h21.547v-106.88h-21.547v106.88zM687.36 466.987h-21.547v-106.027h75.307v17.92h-53.76v88.107z" />
<glyph unicode="&#xe911;" glyph-name="ic_emailselect" d="M543.36 403.2h29.227l-14.72 39.68-14.507-39.68zM512 821.334c-217.968 0-394.667-176.698-394.667-394.667s176.698-394.667 394.667-394.667c217.968 0 394.667 176.698 394.667 394.667-0.243 217.87-176.796 394.424-394.643 394.667zM373.333 360.96h-81.493v106.667h79.36v-18.133h-57.6v-22.827h53.76v-17.92h-53.76v-29.013h59.733zM494.507 360.96h-20.053v84.053l-21.333-84.053h-21.333l-21.333 84.053v-84.053h-20.053v106.667h32.213l19.413-72.96 19.2 72.96h32.427zM588.8 360.96l-9.387 24.32h-42.667l-8.747-24.32h-23.040l42.667 106.667h21.973l42.667-106.667zM644.693 360.96h-21.333v106.667h21.333zM741.12 360.96h-75.307v106.667h21.333v-88.107h53.76z" />
<glyph unicode="&#xe912;" glyph-name="ic_facebook" d="M512 821.334c-217.968 0-394.667-176.698-394.667-394.667s176.698-394.667 394.667-394.667c217.968 0 394.667 176.698 394.667 394.667-0.243 217.87-176.796 394.424-394.643 394.667zM512 53.334c-206.186 0-373.333 167.147-373.333 373.333s167.147 373.333 373.333 373.333c206.186 0 373.333-167.147 373.333-373.333-0.243-206.089-167.245-373.091-373.311-373.333zM544.213 534.827c0 18.773 1.707 28.8 28.8 28.8h36.053v71.893h-57.6c-69.333 0-93.653-34.987-93.653-93.653v-42.667h-42.667v-72.533h42.667v-208.853h86.4v208.853h57.6l7.68 71.893h-65.28z" />
<glyph unicode="&#xe913;" glyph-name="ic_facebookselect" d="M512 821.334c-217.968 0-394.667-176.698-394.667-394.667s176.698-394.667 394.667-394.667c217.968 0 394.667 176.698 394.667 394.667-0.243 217.87-176.796 394.424-394.643 394.667zM601.813 426.667h-57.6v-208.853h-86.4v208.853h-42.667v72.107h42.667v42.667c0 58.667 24.32 93.653 93.653 93.653h57.6v-72.107h-36.053c-26.88 0-28.8-10.027-28.8-28.8v-36.053h65.28z" />
<glyph unicode="&#xe914;" glyph-name="ic_googleplus" d="M512 821.334c-217.968 0-394.667-176.698-394.667-394.667s176.698-394.667 394.667-394.667c217.968 0 394.667 176.698 394.667 394.667-0.243 217.87-176.796 394.424-394.643 394.667zM512 53.334c-206.186 0-373.333 167.147-373.333 373.333s167.147 373.333 373.333 373.333c206.186 0 373.333-167.147 373.333-373.333-0.243-206.089-167.245-373.091-373.311-373.333zM442.24 443.947v-42.667h69.76c-6.381-30.263-32.861-52.652-64.571-52.652-1.676 0-3.337 0.063-4.982 0.185-42.196-0.013-76.581 34.371-76.581 76.787s34.385 76.8 76.8 76.8c0.402 0.008 0.877 0.013 1.352 0.013 18.324 0 34.977-7.152 47.32-18.817l33.034 31.817c-20.937 19.696-49.214 31.798-80.317 31.798-0.564 0-1.127-0.004-1.689-0.012-67.073 0.001-121.515-54.441-121.515-121.599s54.442-121.6 121.6-121.6c1.521-0.074 3.303-0.116 5.096-0.116 62.092 0 112.427 50.335 112.427 112.427 0 2.292-0.069 4.568-0.204 6.826-0.021 6.803-0.718 13.731-2.018 20.443zM669.013 478.72h-34.773v-34.773h-34.987v-34.56h34.987v-34.773h34.773v34.773h34.987v34.56h-34.987v34.773z" />
<glyph unicode="&#xe915;" glyph-name="ic_googleplusselect" d="M512 821.334c-217.968 0-394.667-176.698-394.667-394.667s176.698-394.667 394.667-394.667c217.968 0 394.667 176.698 394.667 394.667-0.243 217.87-176.796 394.424-394.643 394.667zM442.24 305.067c-67.158 0-121.6 54.442-121.6 121.6s54.442 121.6 121.6 121.6c0.477 0.007 1.040 0.011 1.603 0.011 31.103 0 59.379-12.102 80.377-31.854l-33.554-31.73c-12.311 11.634-28.964 18.787-47.288 18.787-0.476 0-0.95-0.005-1.423-0.014-42.345 0.001-76.729-34.383-76.729-76.799s34.385-76.8 76.8-76.8c1.615-0.141 3.494-0.221 5.392-0.221 31.727 0 58.219 22.414 64.505 52.271l-69.684 0.43v42.667h115.413c1.187-6.012 1.884-12.94 1.92-20.024 0.163-2.298 0.256-4.946 0.256-7.615 0-62.092-50.335-112.427-112.427-112.427-1.816 0-3.622 0.043-5.417 0.128zM704 409.387h-34.987v-34.773h-34.773v34.773h-34.987v34.56h34.987v34.773h34.987v-34.773h34.773z" />
<glyph unicode="&#xe916;" glyph-name="ic_hide" d="M936.32 436.267c-81.479 151.539-238.921 252.819-420.019 252.819-1.512 0-3.023-0.007-4.532-0.021-53.622-0.070-105.41-8.807-153.847-24.888l37.598-33.137c34.934 9.747 75.051 15.353 116.476 15.36 1.22 0.012 2.656 0.019 4.095 0.019 160.825 0 301.195-87.58 376.019-217.648-33.534-64.303-81.805-115.1-139.908-151.721l29.024-31.718c65.593 43.206 118.127 101.206 153.698 169.454 2.655 5.315 3.519 8.657 3.519 12.201 0 3.375-0.784 6.567-2.179 9.404zM640 329.174c21.249 26.982 34.081 61.46 34.081 98.934 0 88.719-71.921 160.64-160.64 160.64-37.474 0-71.952-12.832-99.278-34.341l-164.349 164.954c-3.706 3.188-8.565 5.13-13.876 5.13-11.782 0-21.333-9.551-21.333-21.333 0-5.312 1.941-10.17 5.153-13.904l59.283-59.279c-82.603-44.094-148.414-110.317-190.806-190.794-2.632-5.281-3.476-8.585-3.476-12.086s0.843-6.805 2.338-9.72c81.409-151.662 239.014-253.129 420.319-253.129 1.613 0 3.223 0.008 4.832 0.024 69.18 0.188 135.151 14.768 194.911 40.909l66.603-70.991c3.706-3.188 8.565-5.13 13.876-5.13 11.782 0 21.333 9.551 21.333 21.333 0 5.312-1.941 10.17-5.153 13.904zM512 544.854c0.094 0 0.206 0 0.317 0 65.155 0 117.973-52.818 117.973-117.973 0-25.138-7.862-48.44-21.262-67.58l-164.015 164.647c18.684 13.083 41.887 20.907 66.917 20.907 0.024 0 0.049 0 0.073 0zM414.72 493.654l164.267-164.267c-18.83-13.293-42.256-21.247-67.54-21.247-65.155 0-117.973 52.818-117.973 117.973 0 25.284 7.954 48.709 21.495 67.912zM512 206.934c-1.216-0.012-2.653-0.019-4.091-0.019-160.825 0-301.195 87.58-376.019 217.648 40.623 76.101 102.149 134.679 176.32 171.686l75.79-72.088c-21.249-26.982-34.081-61.46-34.081-98.934 0-88.719 71.921-160.64 160.64-160.64 37.474 0 71.952 12.832 99.278 34.341l61.949-62.554c-47.404-18.637-102.302-29.44-159.723-29.44-0.023 0-0.045 0-0.068 0z" />
<glyph unicode="&#xe917;" glyph-name="ic_infomation" d="M512 512c-11.782 0-21.333-9.551-21.333-21.333v-256c0-11.782 9.551-21.333 21.333-21.333s21.333 9.551 21.333 21.333v256c0 11.782-9.551 21.333-21.333 21.333zM512 640c-11.782 0-21.333-9.551-21.333-21.333v-42.667c0-11.782 9.551-21.333 21.333-21.333s21.333 9.551 21.333 21.333v42.667c0 11.782-9.551 21.333-21.333 21.333zM512 832c-223.859 0-405.333-181.474-405.333-405.333s181.474-405.333 405.333-405.333c223.859 0 405.333 181.474 405.333 405.333s-181.474 405.333-405.333 405.333zM512 64c-200.295 0-362.667 162.371-362.667 362.667s162.371 362.667 362.667 362.667c200.295 0 362.667-162.371 362.667-362.667s-162.371-362.667-362.667-362.667z" />
<glyph unicode="&#xe918;" glyph-name="ic_instagram" d="M512 821.334c-217.968 0-394.667-176.698-394.667-394.667s176.698-394.667 394.667-394.667c217.968 0 394.667 176.698 394.667 394.667-0.243 217.87-176.796 394.424-394.643 394.667zM512 53.334c-206.186 0-373.333 167.147-373.333 373.333s167.147 373.333 373.333 373.333c206.186 0 373.333-167.147 373.333-373.333-0.243-206.089-167.245-373.091-373.311-373.333zM706.133 560.854c-10.877 27.618-32.329 49.070-59.237 59.7-15.179 5.79-31.908 9.195-49.374 9.63-21.522 0.004-28.989 1.284-85.522 1.284s-62.507 0-85.333-1.28c-17.955-0.378-34.985-3.867-50.727-9.947-26.598-10.53-48.049-31.982-58.679-58.89-5.529-15.177-8.644-31.878-8.78-49.289 0-21.394-1.28-28.861-1.28-85.394s0-62.507 1.28-85.333c0.406-17.96 3.892-34.986 9.948-50.737 10.528-26.587 31.98-48.039 58.889-58.669 15.431-5.98 32.461-9.469 50.257-9.844 21.493-0.003 28.959-1.283 85.493-1.283s62.507 0 85.333 1.28c17.959 0.401 34.986 3.888 50.736 9.948 26.575 10.552 48.018 31.995 58.67 58.888 4.997 14.766 7.738 30.955 7.738 47.784 0 0.926-0.008 1.85-0.025 2.772 0.002 21.195 1.282 28.661 1.282 85.195s0 62.507-1.28 85.333c-0.456 17.658-3.86 34.384-9.733 49.897zM678.613 343.894c-0.169-13.678-2.737-26.706-7.299-38.752-6.786-17.109-20.68-31.003-38.108-37.888-11.727-4.472-24.756-7.040-38.365-7.199-21.402-0.001-28.228-1.281-82.842-1.281s-61.227 0-82.773 1.28c-13.679 0.174-26.706 2.741-38.754 7.299-17.107 6.785-31.001 20.679-37.886 38.108-4.468 11.727-7.035 24.756-7.199 38.362-0.001 21.404-1.281 28.23-1.281 82.844s0 61.227 1.28 82.773c0.169 13.678 2.737 26.706 7.299 38.752 6.786 17.109 20.68 31.003 38.108 37.888 11.727 4.468 24.756 7.035 38.362 7.199 19.057 0.001 26.31 1.067 64.070 1.067h18.773c54.613 0 61.227 0 82.773-1.28 13.679-0.174 26.706-2.741 38.754-7.299 17.107-6.785 31.001-20.679 37.886-38.108 4.468-11.727 7.035-24.756 7.199-38.362 0.001-21.404 1.281-28.23 1.281-82.844s-0.213-60.8-1.28-82.56zM621.44 560.64v0c-13.549 0-24.533-10.984-24.533-24.533s10.984-24.533 24.533-24.533c13.549 0 24.533 10.984 24.533 24.533s-10.984 24.533-24.533 24.533zM512 531.84c-58.086 0-105.173-47.088-105.173-105.173s47.088-105.173 105.173-105.173c58.086 0 105.173 47.088 105.173 105.173s-47.088 105.173-105.173 105.173zM512 358.4c-37.703 0-68.267 30.564-68.267 68.267s30.564 68.267 68.267 68.267c37.703 0 68.267-30.564 68.267-68.267s-30.564-68.267-68.267-68.267z" />
<glyph unicode="&#xe919;" glyph-name="ic_instagramselect" d="M671.573 547.414c-7.044 17.888-20.939 31.782-38.367 38.667-11.727 4.459-24.754 7.026-38.358 7.199-21.408 0.001-28.234 1.281-82.848 1.281h-18.347c-38.187 0-45.44 0-64-1.067-13.677-0.165-26.706-2.732-38.751-7.299-17.111-6.786-31.005-20.68-37.889-38.108-4.463-11.727-7.031-24.755-7.199-38.36-0.001-21.406-1.281-28.019-1.281-82.846s0-61.227 1.28-82.773c0.165-13.677 2.732-26.706 7.299-38.751 6.786-17.111 20.68-31.005 38.108-37.889 11.727-4.459 24.754-7.026 38.358-7.199 21.408-0.001 28.234-1.281 82.848-1.281s61.227 0 82.773 1.28c13.676 0.16 26.705 2.728 38.749 7.298 17.112 6.786 31.007 20.68 37.891 38.109 4.463 11.727 7.031 24.755 7.199 38.36 0.001 21.406 1.281 28.233 1.281 82.846s0 61.227-1.28 82.773c-0.34 13.66-3.050 26.589-7.732 38.528zM512 321.494c-58.086 0-105.173 47.088-105.173 105.173s47.088 105.173 105.173 105.173c58.086 0 105.173-47.088 105.173-105.173s-47.088-105.173-105.173-105.173zM621.44 512c-13.549 0-24.533 10.984-24.533 24.533s10.984 24.533 24.533 24.533v0c13.549 0 24.533-10.984 24.533-24.533s-10.984-24.533-24.533-24.533zM580.267 426.667c0-37.703-30.564-68.267-68.267-68.267s-68.267 30.564-68.267 68.267c0 37.703 30.564 68.267 68.267 68.267s68.267-30.564 68.267-68.267zM512 821.334c-217.968 0-394.667-176.698-394.667-394.667s176.698-394.667 394.667-394.667c217.968 0 394.667 176.698 394.667 394.667-0.243 217.87-176.796 394.424-394.643 394.667zM715.52 341.334c-0.428-17.963-3.912-34.987-9.95-50.746-10.55-26.564-31.993-48.008-58.887-58.659-15.431-5.96-32.458-9.447-50.247-9.845-21.503-0.003-28.97-1.283-85.503-1.283s-62.507 0-85.333 1.28c-17.955 0.378-34.985 3.867-50.727 9.947-26.598 10.53-48.049 31.982-58.679 58.89-4.998 14.716-7.74 30.849-7.74 47.623 0 0.982 0.009 1.962 0.028 2.94-0.002 21.187-1.282 28.654-1.282 85.187s0 62.507 1.28 85.333c0.378 17.955 3.867 34.985 9.947 50.727 10.53 26.598 31.982 48.049 58.89 58.679 15.177 5.529 31.878 8.644 49.289 8.78 21.394 0 28.861 1.28 85.394 1.28s62.507 0 85.333-1.28c17.96-0.41 34.986-3.896 50.739-9.949 26.586-10.528 48.037-31.98 58.667-58.888 5.486-15.175 8.597-31.87 8.78-49.267 0.001-21.416 1.281-28.883 1.281-85.416s-0.213-62.507-1.28-85.333z" />
<glyph unicode="&#xe91a;" glyph-name="ic_language" d="M512 832c-223.859 0-405.333-181.474-405.333-405.333s181.474-405.333 405.333-405.333c223.859 0 405.333 181.474 405.333 405.333s-181.474 405.333-405.333 405.333zM832 595.627h-171.947c-17.72 70.666-43.629 132.771-77.315 189.733 109.939-26.405 198.628-95.079 248.308-187.785zM530.347 789.334c36.4-55.148 65.625-119.055 84.249-187.335l-206.489-4.665c19.708 72.945 48.933 136.852 86.883 194.506 4.637-2.506 10.611-2.506 16.797-2.506s12.373 0 18.56 0zM638.507 426.667c-0.14-44.769-4.716-88.385-13.31-130.54l-226.904 4.247c-8.016 38.001-12.606 81.664-12.606 126.4s4.59 88.399 13.325 130.546l226.695-4.146c7.877-37.975 12.452-81.666 12.586-126.403zM439.467 782.080c-31.872-53.619-57.778-115.65-74.469-181.358l-172.998-4.882c50.676 94.568 139.357 163.162 245.079 185.812zM172.587 552.96h182.4c-7.565-38.004-11.895-81.697-11.895-126.4s4.329-88.397 12.592-130.682l-183.097 4.282c-14.673 37.524-23.177 80.969-23.177 126.4s8.504 88.876 24.006 128.83zM192 257.707h172.587c17.742-70.59 43.648-132.621 77.315-189.517-110.161 26.178-199.096 94.814-248.949 187.577zM494.293 65.707c-36.4 55.148-65.625 119.055-84.249 187.335l206.702 4.665c-19.708-72.945-48.933-136.852-86.883-194.506-4.637 2.506-10.611 2.506-16.797 2.506s-13.227-1.707-19.413-1.707zM585.173 72.107c31.872 53.619 57.778 115.65 74.469 181.358l172.358 4.882c-50.501-94.912-139.218-163.823-245.074-186.661zM851.413 300.374h-182.187c7.356 37.917 11.621 81.571 11.733 126.201-0.189 44.868-4.528 88.507-12.652 130.8l183.106-4.414c14.673-37.524 23.177-80.969 23.177-126.4s-8.504-88.876-24.006-128.83z" />
<glyph unicode="&#xe91b;" glyph-name="ic_list" d="M320 597.334h-149.333c-11.782 0-21.333-9.551-21.333-21.333s9.551-21.333 21.333-21.333h149.333c11.782 0 21.333 9.551 21.333 21.333s-9.551 21.333-21.333 21.333zM320 448h-149.333c-11.782 0-21.333-9.551-21.333-21.333s9.551-21.333 21.333-21.333h149.333c11.782 0 21.333 9.551 21.333 21.333s-9.551 21.333-21.333 21.333zM320 298.667h-149.333c-11.782 0-21.333-9.551-21.333-21.333s9.551-21.333 21.333-21.333h149.333c11.782 0 21.333 9.551 21.333 21.333s-9.551 21.333-21.333 21.333zM426.667 554.667h426.667c11.782 0 21.333 9.551 21.333 21.333s-9.551 21.333-21.333 21.333h-426.667c-11.782 0-21.333-9.551-21.333-21.333s9.551-21.333 21.333-21.333zM853.333 448h-426.667c-11.782 0-21.333-9.551-21.333-21.333s9.551-21.333 21.333-21.333h426.667c11.782 0 21.333 9.551 21.333 21.333s-9.551 21.333-21.333 21.333zM853.333 298.667h-426.667c-11.782 0-21.333-9.551-21.333-21.333s9.551-21.333 21.333-21.333h426.667c11.782 0 21.333 9.551 21.333 21.333s-9.551 21.333-21.333 21.333z" />
<glyph unicode="&#xe91c;" glyph-name="ic_login" d="M490.667 302.72v-110.72c0-11.782 9.551-21.333 21.333-21.333s21.333 9.551 21.333 21.333v110.72c12.843 7.514 21.333 21.241 21.333 36.95 0 23.564-19.103 42.667-42.667 42.667s-42.667-19.103-42.667-42.667c0-15.709 8.49-29.436 21.132-36.841zM832 533.334h-85.333v106.667c0 121.6-96.213 213.333-224 213.333s-224-91.733-224-213.333v-106.667h-106.667c-11.782 0-21.333-9.551-21.333-21.333v-490.667c0-11.782 9.551-21.333 21.333-21.333h640c11.782 0 21.333 9.551 21.333 21.333v490.667c0 11.782-9.551 21.333-21.333 21.333zM341.333 640c0 97.28 77.867 170.667 181.333 170.667s181.333-73.387 181.333-170.667v-106.667h-362.667zM810.667 42.667h-597.333v448h597.333z" />
<glyph unicode="&#xe91d;" glyph-name="ic_logout" d="M490.667 302.72v-110.72c0-11.782 9.551-21.333 21.333-21.333s21.333 9.551 21.333 21.333v110.72c12.843 7.514 21.333 21.241 21.333 36.95 0 23.564-19.103 42.667-42.667 42.667s-42.667-19.103-42.667-42.667c0-15.709 8.49-29.436 21.132-36.841zM832 533.334h-85.333v106.667c0 121.6-96.213 213.333-224 213.333-2.121 0.074-4.613 0.116-7.115 0.116-93.379 0-173.087-58.532-204.437-140.908-5.506-15.26-9.264-31.3-11.085-47.922l42.583-5.42c1.531 14.006 4.537 26.792 8.901 38.931 25.685 65.941 89.75 112.653 164.726 112.653 2.26 0 4.51-0.042 6.75-0.127 103.144 0.010 181.010-73.377 181.010-170.657v-106.667h-512c-11.782 0-21.333-9.551-21.333-21.333v-490.667c0-11.782 9.551-21.333 21.333-21.333h640c11.782 0 21.333 9.551 21.333 21.333v490.667c0 11.782-9.551 21.333-21.333 21.333zM810.667 42.667h-597.333v448h597.333z" />
<glyph unicode="&#xe91e;" glyph-name="ic_map" d="M906.027 808.107c-3.060 1.797-6.739 2.858-10.667 2.858s-7.607-1.061-10.767-2.913l-244.593-163.785-244.053 162.773c-3.327 2.247-7.427 3.587-11.84 3.587s-8.513-1.34-11.916-3.635l-255.924-170.618c-5.788-3.852-9.561-10.335-9.6-17.701v-554.673c0.062-11.735 9.59-21.223 21.333-21.223 4.368 0 8.43 1.313 11.812 3.566l244.189 162.724 244.267-162.773 2.347-1.067h2.133c2.173-0.939 4.703-1.485 7.36-1.485s5.187 0.546 7.484 1.532l2.010-0.047 2.347 1.067 256 170.667c5.696 3.889 9.387 10.351 9.387 17.675 0 0.011 0 0.023 0 0.034v554.665c-0.022 8.090-4.544 15.119-11.194 18.718zM405.333 749.867l213.333-142.72v-503.467l-213.333 142.507v500.48c0.041 0.479 0.064 1.037 0.064 1.6s-0.023 1.121-0.069 1.672zM149.333 607.147l213.333 142.72c-0.041-0.479-0.064-1.037-0.064-1.6s0.023-1.121 0.069-1.672l-0.005-500.408-213.333-142.293zM874.667 246.187l-213.333-142.293v503.253l213.333 142.293z" />
<glyph unicode="&#xe91f;" glyph-name="ic_mappin" d="M512 832c-146.893-2.036-265.19-121.591-265.19-268.776 0-1.059 0.006-2.116 0.018-3.172-0.001-169.226 237.439-514.826 247.679-529.546 3.907-5.545 10.282-9.123 17.493-9.123s13.587 3.578 17.448 9.056c10.072 14.787 247.725 360.387 247.725 529.774 0.011 0.895 0.017 1.952 0.017 3.011 0 147.185-118.297 266.74-264.998 268.774zM512 81.067c-55.467 83.84-222.507 348.16-222.507 479.147-0.013 0.897-0.020 1.955-0.020 3.015 0 123.622 99.198 224.075 222.337 226.102 123.519-2.027 222.717-102.48 222.717-226.102 0-1.060-0.007-2.119-0.022-3.175 0.002-130.827-167.252-395.147-222.505-478.987zM512 682.667c-0.826 0.020-1.798 0.032-2.773 0.032-67.158 0-121.6-54.442-121.6-121.6s54.442-121.6 121.6-121.6c67.147 0 121.582 54.424 121.6 121.567 0.004 0.385 0.007 0.838 0.007 1.291 0 65.928-53.025 119.472-118.755 120.31zM512 482.347c-0.827-0.031-1.798-0.049-2.773-0.049-43.594 0-78.933 35.34-78.933 78.933s35.34 78.933 78.933 78.933c43.577 0 78.906-35.312 78.933-78.882 0.019-0.642 0.030-1.395 0.030-2.15 0-42.372-33.937-76.818-76.113-77.638z" />
<glyph unicode="&#xe920;" glyph-name="ic_menu" d="M853.333 576h-682.667c-11.782 0-21.333 9.551-21.333 21.333s9.551 21.333 21.333 21.333h682.667c11.782 0 21.333-9.551 21.333-21.333s-9.551-21.333-21.333-21.333zM853.333 405.334h-682.667c-11.782 0-21.333 9.551-21.333 21.333s9.551 21.333 21.333 21.333h682.667c11.782 0 21.333-9.551 21.333-21.333s-9.551-21.333-21.333-21.333zM853.333 234.667h-682.667c-11.782 0-21.333 9.551-21.333 21.333s9.551 21.333 21.333 21.333h682.667c11.782 0 21.333-9.551 21.333-21.333s-9.551-21.333-21.333-21.333z" />
<glyph unicode="&#xe921;" glyph-name="ic_mylocation" d="M441.6 497.067c-18.057-18.033-29.227-42.959-29.227-70.493 0-55.022 44.604-99.627 99.627-99.627s99.627 44.604 99.627 99.627c0 27.534-11.17 52.46-29.226 70.492-18.025 18.002-42.913 29.134-70.401 29.134s-52.376-11.132-70.401-29.134zM552.32 386.347c-10.314-10.346-24.58-16.747-40.34-16.747-31.458 0-56.96 25.502-56.96 56.96s25.502 56.96 56.96 56.96c15.761 0 30.026-6.401 40.339-16.745 10.271-10.303 16.621-24.517 16.621-40.215s-6.35-29.912-16.621-40.215zM917.333 448h-107.733c-11.058 147.917-128.349 265.209-275.271 276.207l-0.995 107.793c0 11.782-9.551 21.333-21.333 21.333s-21.333-9.551-21.333-21.333v-107.733c-147.917-11.058-265.209-128.349-276.207-275.271l-107.793-0.995c-11.782 0-21.333-9.551-21.333-21.333s9.551-21.333 21.333-21.333h107.733c11.058-147.917 128.349-265.209 275.271-276.207l0.995-107.793c0-11.782 9.551-21.333 21.333-21.333s21.333 9.551 21.333 21.333v107.733c147.917 11.058 265.209 128.349 276.207 275.271l107.793 0.995c11.782 0 21.333 9.551 21.333 21.333s-9.551 21.333-21.333 21.333zM512 170.667c-141.385 0-256 114.615-256 256s114.615 256 256 256c141.385 0 256-114.615 256-256s-114.615-256-256-256z" />
<glyph unicode="&#xe922;" glyph-name="ic_newsletter" d="M597.333 597.334c-33.11-1.532-62.854-14.8-85.421-35.707-22.392 20.906-52.136 34.175-84.948 35.696-75.391 0.011-116.778-46.709-116.778-131.829 0-130.987 183.040-244.267 190.933-249.173l10.667-6.4 10.88 5.973c7.893 4.267 192 108.16 192 249.6-0.64 85.12-42.027 131.84-117.333 131.84zM512 259.84c-52.907 34.987-159.787 122.88-159.787 205.867 0 78.933 39.467 89.173 73.813 89.173 27.836-1.725 52.029-15.944 67.232-37.068l18.742-30.132 18.133 29.44c15.303 21.42 39.413 35.702 66.93 37.532 36.75 0.014 74.083-10.652 74.083-89.159 0.213-98.987-121.6-182.4-159.147-205.653zM512 810.667c-234.667 0-426.667-172.373-426.667-384 0.231-79.547 26.637-152.882 71.053-211.893-15.212-32.979-36.432-61.518-62.85-84.168-5.174-4.202-8.258-10.176-8.258-16.871 0-9.2 5.824-17.040 13.986-20.034 20.887-6.696 44.744-10.528 69.496-10.528 38.254 0 74.371 9.153 106.278 25.39 65.859-41.624 147.15-65.904 234.111-65.904 1.002 0 2.002 0.003 3.002 0.010 234.513-0.001 426.513 172.373 426.513 383.999s-192 384-426.667 384zM512 85.334c-0.664-0.004-1.449-0.006-2.234-0.006-82.827 0-159.968 24.343-224.659 66.266-1.658 1.166-5.668 2.442-9.975 2.442-3.558 0-6.913-0.871-9.862-2.412-29.774-16.168-65.332-25.705-103.117-25.705-4.51 0-8.987 0.136-13.43 0.404 21.147 24.334 38.134 52.565 50.245 83.255 1.727 4.448 2.316 7.236 2.316 10.163 0 5.013-1.729 9.622-4.623 13.264-42.323 52.561-68.133 120.048-68.659 193.546-0.001 188.277 172.373 341.45 383.999 341.45s384-153.173 384-341.333-172.373-341.333-384-341.333z" />
<glyph unicode="&#xe923;" glyph-name="ic_nextdaydelivery" d="M533.333 724.267v43.733h42.667c11.782 0 21.333 9.551 21.333 21.333s-9.551 21.333-21.333 21.333h-128c-11.782 0-21.333-9.551-21.333-21.333s9.551-21.333 21.333-21.333h42.667v-43.733c-179.107-11.558-320-159.658-320-340.666 0-188.513 152.82-341.333 341.333-341.333s341.333 152.82 341.333 341.333c0 181.008-140.893 329.108-318.994 340.614zM734.933 186.027l-35.84 35.84c-3.939 4.641-9.776 7.567-16.297 7.567-11.782 0-21.333-9.551-21.333-21.333 0-6.415 2.831-12.168 7.312-16.079l35.225-36.075c-46.125-39.221-105.027-64.699-169.686-69.488l-0.981 41.542c0 11.782-9.551 21.333-21.333 21.333s-21.333-9.551-21.333-21.333v-41.6c-68.444 4.962-129.667 32.415-177.136 74.915l31.003 30.685c3.188 3.706 5.13 8.565 5.13 13.876 0 11.782-9.551 21.333-21.333 21.333-5.312 0-10.17-1.941-13.904-5.153l-30.479-30.056c-39.221 46.125-64.699 105.027-69.488 169.686l41.542 0.981c11.782 0 21.333 9.551 21.333 21.333s-9.551 21.333-21.333 21.333h-41.6c4.848 65.64 30.326 124.542 69.898 171.090l29.942-30.717c3.876-3.876 9.232-6.274 15.147-6.274 11.83 0 21.421 9.59 21.421 21.421 0 5.915-2.398 11.27-6.274 15.147l-30.507 30.507c47.089 42.366 108.227 69.955 175.646 75.033l0.994-20.207c0-11.782 9.551-21.333 21.333-21.333s21.333 9.551 21.333 21.333v20.267c65.64-4.848 124.542-30.326 171.090-69.898l-35.624-35.702c-4.577-3.936-7.457-9.733-7.457-16.204 0-11.782 9.551-21.333 21.333-21.333 6.47 0 12.268 2.88 16.18 7.429l35.864 35.868c42.247-47.057 69.756-108.114 74.82-175.433l-52.207-0.993c-11.782 0-21.333-9.551-21.333-21.333s9.551-21.333 21.333-21.333h52.267c-4.962-68.444-32.415-129.667-74.915-177.136zM681.6 317.44l-126.933 66.56c-0.165 9.528-3.428 18.263-8.821 25.274l45.941 102.726c1.154 2.542 1.827 5.512 1.827 8.64 0 11.789-9.557 21.347-21.347 21.347-8.662 0-16.119-5.159-19.466-12.572l-45.068-102.748c-19.805-3.954-34.521-21.199-34.521-41.882 0-23.564 19.103-42.667 42.667-42.667 7.155 0 13.899 1.761 19.821 4.874l125.633-67.099c3.211-2.039 7.123-3.249 11.317-3.249 11.782 0 21.333 9.551 21.333 21.333 0 8.617-5.109 16.041-12.464 19.408z" />
<glyph unicode="&#xe924;" glyph-name="ic_pinterest" d="M512 32c-217.968 0-394.667 176.698-394.667 394.667s176.698 394.667 394.667 394.667c217.968 0 394.667-176.698 394.667-394.667-0.243-217.87-176.796-394.424-394.643-394.667zM512 800c-206.186 0-373.333-167.147-373.333-373.333s167.147-373.333 373.333-373.333c206.186 0 373.333 167.147 373.333 373.333-0.243 206.089-167.245 373.091-373.311 373.333zM384 133.334c-1.996 13.724-3.136 29.57-3.136 45.683 0 19.126 1.606 37.876 4.691 56.124 6.765 25.34 41.112 170.193 41.112 170.193-6.611 14.798-10.461 32.069-10.461 50.239 0 0.488 0.003 0.975 0.008 1.462-0.001 48.353 27.946 85.259 62.933 85.259 0.528 0.023 1.146 0.037 1.768 0.037 23.564 0 42.667-19.103 42.667-42.667 0-2.272-0.178-4.502-0.52-6.678 0.031-29.626-18.955-74.212-28.769-115.599-0.986-3.731-1.552-8.015-1.552-12.431 0-27.924 22.636-50.56 50.56-50.56 0.846 0 1.687 0.021 2.523 0.062 61.749-0.005 109.109 65.275 109.109 159.355 0.047 1.341 0.074 2.916 0.074 4.498 0 75.877-61.51 137.387-137.387 137.387-2.803 0-5.586-0.084-8.347-0.249-1.53 0.105-3.77 0.154-6.021 0.154-83.181 0-150.613-67.432-150.613-150.613 0-0.198 0-0.396 0.001-0.593 0.026-29.798 9.704-57.36 26.078-79.709 1.451-1.477 2.504-3.969 2.504-6.707 0-1.048-0.154-2.060-0.441-3.014-2.541-10.806-8.514-34.486-9.581-39.393s-5.12-7.68-11.733-4.693c-42.667 20.267-70.613 83.84-70.613 134.827 0 109.867 79.787 210.56 229.76 210.56 120.533 0 213.333-85.333 213.333-200.96 0-119.893-75.52-216.533-180.48-216.533-0.511-0.010-1.113-0.016-1.716-0.016-31.498 0-59.34 15.657-76.166 39.612l-21.531-82.477c-11.216-34.813-25.689-65.042-43.598-92.851z" />
<glyph unicode="&#xe925;" glyph-name="ic_pinterestselect" d="M512 821.334c-217.968 0-394.667-176.698-394.667-394.667s176.698-394.667 394.667-394.667c217.968 0 394.667 176.698 394.667 394.667-0.243 217.87-176.796 394.424-394.643 394.667zM553.173 258.987c-1.055-0.043-2.292-0.067-3.536-0.067-31.429 0-59.217 15.588-76.055 39.454l-21.529-82.48c-11.213-34.812-25.687-65.042-43.597-92.849l-24.457 10.289c-1.996 13.724-3.136 29.57-3.136 45.683 0 19.126 1.606 37.876 4.691 56.124 6.765 25.34 41.112 170.193 41.112 170.193-6.611 14.798-10.461 32.069-10.461 50.239 0 0.488 0.003 0.975 0.008 1.462-0.001 48.353 27.946 85.259 62.933 85.259 0.528 0.023 1.146 0.037 1.768 0.037 23.564 0 42.667-19.103 42.667-42.667 0-2.272-0.178-4.502-0.52-6.678 0.031-29.626-18.955-74.212-28.769-115.599-0.986-3.731-1.552-8.015-1.552-12.431 0-27.924 22.636-50.56 50.56-50.56 0.846 0 1.687 0.021 2.523 0.062 61.749-0.005 109.109 65.275 109.109 159.355 0.047 1.341 0.074 2.916 0.074 4.498 0 75.877-61.51 137.387-137.387 137.387-2.803 0-5.586-0.084-8.347-0.249-1.53 0.105-3.77 0.154-6.021 0.154-83.181 0-150.613-67.432-150.613-150.613 0-0.198 0-0.396 0.001-0.593 0.026-29.798 9.704-57.36 26.078-79.709 1.451-1.477 2.504-3.969 2.504-6.707 0-1.048-0.154-2.060-0.441-3.014-2.541-10.806-8.514-34.486-9.581-39.393s-5.12-7.68-11.733-4.693c-42.667 20.267-70.613 83.84-70.613 134.827 0 109.867 79.787 210.56 229.76 210.56 120.533 0 213.333-85.333 213.333-200.96 1.493-119.893-74.027-216.32-178.773-216.32z" />
<glyph unicode="&#xe926;" glyph-name="ic_play" d="M512 832c-223.859 0-405.333-181.474-405.333-405.333s181.474-405.333 405.333-405.333c223.859 0 405.333 181.474 405.333 405.333s-181.474 405.333-405.333 405.333zM512 64c-200.295 0-362.667 162.371-362.667 362.667s162.371 362.667 362.667 362.667c200.295 0 362.667-162.371 362.667-362.667s-162.371-362.667-362.667-362.667zM714.88 445.227l-320 192c-3.111 1.875-6.866 2.984-10.881 2.984-11.782 0-21.333-9.551-21.333-21.333 0-0.074 0-0.148 0.001-0.221v-383.989c0.002-11.78 9.553-21.33 21.333-21.33 4.014 0 7.77 1.109 10.976 3.037l319.904 191.946c6.298 3.785 10.447 10.581 10.447 18.347s-4.149 14.561-10.351 18.293zM405.333 272.64v308.053l257.067-154.027z" />
<glyph unicode="&#xe927;" glyph-name="ic_prize" d="M659.2 365.654c156.16 27.52 256 161.067 279.253 378.667 0.082 0.704 0.129 1.52 0.129 2.347 0 11.753-9.503 21.285-21.245 21.333h-134.618c1.493 21.333 2.347 42.667 2.347 64 0 11.782-9.551 21.333-21.333 21.333h-505.387c-11.782 0-21.333-9.551-21.333-21.333 0-21.333 0-42.667 2.347-64h-132.693c-0.038 0-0.084 0-0.13 0-11.782 0-21.333-9.551-21.333-21.333 0-0.827 0.047-1.643 0.139-2.445 24.098-216.649 122.444-349.982 277.324-378.142 38.31-69.188 80.731-128.951 128.937-183.48l-0.937-139.933h-138.88c-11.782 0-21.333-9.551-21.333-21.333s9.551-21.333 21.333-21.333h318.72c11.782 0 21.333 9.551 21.333 21.333s-9.551 21.333-21.333 21.333h-137.173v141.013c46.433 53.28 88.167 112.907 123.223 176.721zM778.453 725.334h114.56c-15.573-108.16-64-263.893-207.787-309.333 45.354 89.827 78.155 194.209 92.689 304.352zM742.187 810.667c-7.893-297.387-178.347-523.307-230.187-586.24-53.76 62.933-224 287.573-231.893 586.24zM130.987 725.334h112.853c15.075-114.889 47.797-219.051 95.583-314.352-145.29 51.952-193.077 207.685-208.437 314.352z" />
<glyph unicode="&#xe928;" glyph-name="ic_radioempty" d="M512 789.334c200.295 0 362.667-162.371 362.667-362.667s-162.371-362.667-362.667-362.667c-200.295 0-362.667 162.371-362.667 362.667s162.371 362.667 362.667 362.667zM512 853.334c-235.641 0-426.667-191.025-426.667-426.667s191.025-426.667 426.667-426.667c235.641 0 426.667 191.025 426.667 426.667s-191.025 426.667-426.667 426.667z" />
<glyph unicode="&#xe929;" glyph-name="ic_radiofull" d="M512 32c-217.968 0-394.667 176.698-394.667 394.667s176.698 394.667 394.667 394.667c217.968 0 394.667-176.698 394.667-394.667-0.243-217.87-176.796-394.424-394.643-394.667zM512 693.334c-147.394 0-266.88-119.486-266.88-266.88s119.486-266.88 266.88-266.88c147.394 0 266.88 119.486 266.88 266.88 0 0.075 0 0.15 0 0.225-0.121 147.333-119.535 266.747-266.868 266.868zM512 789.334c200.295 0 362.667-162.371 362.667-362.667s-162.371-362.667-362.667-362.667c-200.295 0-362.667 162.371-362.667 362.667s162.371 362.667 362.667 362.667zM512 128c164.949 0 298.667 133.718 298.667 298.667s-133.718 298.667-298.667 298.667c-164.949 0-298.667-133.718-298.667-298.667s133.718-298.667 298.667-298.667zM512 853.334c-235.641 0-426.667-191.025-426.667-426.667s191.025-426.667 426.667-426.667c235.641 0 426.667 191.025 426.667 426.667s-191.025 426.667-426.667 426.667zM512 192c-129.603 0-234.667 105.064-234.667 234.667s105.064 234.667 234.667 234.667c129.603 0 234.667-105.064 234.667-234.667s-105.064-234.667-234.667-234.667z" />
<glyph unicode="&#xe92a;" glyph-name="ic_rating" d="M754.56 42.667c-3.676 0.019-7.128 0.965-10.138 2.616l-232.422 122.184-232.747-122.453c-2.868-1.531-6.273-2.43-9.889-2.43-11.782 0-21.333 9.551-21.333 21.333 0 1.235 0.105 2.446 0.306 3.623l44.355 259.074-188.16 183.68c-4.032 3.887-6.537 9.335-6.537 15.368 0 10.701 7.879 19.562 18.153 21.098l260.17 37.774 116.267 234.667c3.576 7.061 10.779 11.817 19.093 11.817s15.517-4.756 19.037-11.696l116.323-234.788 260.053-37.76c10.391-1.55 18.27-10.411 18.27-21.112 0-6.033-2.504-11.481-6.53-15.361l-188.167-183.473 44.373-259.2c0.198-1.091 0.311-2.347 0.311-3.629 0-11.782-9.551-21.333-21.333-21.333-0.109 0-0.218 0.001-0.327 0.002zM165.333 510.507l165.333-161.067c3.993-3.881 6.471-9.303 6.471-15.304 0-1.225-0.103-2.426-0.302-3.595l-38.169-227.501 204.373 106.667c2.876 1.541 6.292 2.447 9.92 2.447s7.044-0.905 10.035-2.503l204.259-106.611-40.107 227.413c-0.181 1.043-0.284 2.244-0.284 3.469 0 6.001 2.478 11.423 6.466 15.299l165.338 161.072-228.48 33.493c-7.074 1.091-12.919 5.526-15.944 11.609l-102.242 207.057-102.187-207.787c-3.081-6.208-8.926-10.642-15.881-11.718z" />
<glyph unicode="&#xe92b;" glyph-name="ic_ratingfull" d="M925.44 532.267c-2.483 7.955-9.288 13.83-17.599 14.922l-259.948 37.772-116.267 234.667c-4.028 6.837-11.353 11.353-19.733 11.353s-15.705-4.516-19.675-11.246l-116.325-234.773-259.627-37.76c-11.059-0.874-19.702-10.063-19.702-21.271 0-6.509 2.915-12.338 7.512-16.251l187.977-183.278-44.373-258.773c-0.341-1.429-0.537-3.069-0.537-4.755 0-11.782 9.551-21.333 21.333-21.333 4.059 0 7.854 1.134 11.084 3.102l232.439 122.187 232.32-122.24c3.136-1.915 6.931-3.049 10.99-3.049 11.782 0 21.333 9.551 21.333 21.333 0 1.686-0.196 3.327-0.565 4.9l-44.131 258.629 187.947 183.253c4.156 3.902 6.745 9.431 6.745 15.565 0 2.526-0.439 4.949-1.244 7.197z" />
<glyph unicode="&#xe92c;" glyph-name="ic_rewards" d="M786.133 385.92c-13.735 12.012-31.818 19.357-51.615 19.413h-137.185v92.16c0.182 2.267 0.286 4.909 0.286 7.575 0 30.445-13.541 57.728-34.928 76.155-24.877 18.67-75.864 18.030-97.624 13.55l-17.067-3.413v-122.027c0-52.693-50.773-92.587-93.867-103.893-8.192 11.297-21.349 18.56-36.202 18.56-0.023 0-0.045 0-0.068 0h-102.396c-24.742 0-44.8-20.058-44.8-44.8v-294.4c0-24.742 20.058-44.8 44.8-44.8h102.4c13.462 0.046 25.513 6.052 33.658 15.515 13.748-9.327 30.655-14.972 48.873-15.088h278.643c44.373 0 77.44 30.080 88.32 80.213 2.773 13.227 41.173 226.347 42.667 234.667v0c1.293 4.999 2.035 10.738 2.035 16.65 0 21.771-10.065 41.19-25.796 53.86zM320 44.8c0-1.178-0.955-2.133-2.133-2.133h-102.4c-1.178 0-2.133 0.955-2.133 2.133v294.4c0 1.178 0.955 2.133 2.133 2.133h102.4c1.178 0 2.133-0.955 2.133-2.133v-294.4zM768 323.627c-11.093-61.653-40.32-223.36-42.667-234.667-6.187-30.080-21.333-46.293-46.293-46.293h-278.4c-13.013 0-37.973 6.613-37.973 31.787v249.173c58.88 14.507 128 67.413 128 145.707v85.333c2.587 0.256 5.591 0.402 8.629 0.402 13.718 0 26.741-2.977 38.458-8.319 10.449-10.705 17.278-25.869 17.278-42.628 0-2.335-0.133-4.639-0.391-6.906l0.026-96.789c0 0 0 0 0-0.001 0-20.779 16.784-37.638 37.535-37.759h142.305c9.115-0.132 17.399-3.588 23.717-9.206 6.706-4.912 11.034-12.804 11.034-21.707 0-2.903-0.46-5.698-1.311-8.317zM512 661.334c11.782 0 21.333 9.551 21.333 21.333v149.333c0 11.782-9.551 21.333-21.333 21.333s-21.333-9.551-21.333-21.333v-149.333c0-11.782 9.551-21.333 21.333-21.333zM362.667 490.667c0 11.782-9.551 21.333-21.333 21.333h-170.667c-11.782 0-21.333-9.551-21.333-21.333s9.551-21.333 21.333-21.333h170.667c11.782 0 21.333 9.551 21.333 21.333zM853.333 512h-149.333c-11.782 0-21.333-9.551-21.333-21.333s9.551-21.333 21.333-21.333h149.333c11.782 0 21.333 9.551 21.333 21.333s-9.551 21.333-21.333 21.333zM640 618.667c0.037 0 0.080 0 0.123 0 5.86 0 11.169 2.363 15.025 6.188l106.665 106.665c3.188 3.706 5.13 8.565 5.13 13.876 0 11.782-9.551 21.333-21.333 21.333-5.312 0-10.17-1.941-13.904-5.153l-106.639-106.643c-3.772-3.845-6.1-9.118-6.1-14.935 0-11.677 9.381-21.162 21.018-21.331zM368.853 624.854c3.706-3.188 8.565-5.13 13.876-5.13 11.782 0 21.333 9.551 21.333 21.333 0 5.312-1.941 10.17-5.153 13.904l-106.643 106.639c-3.706 3.188-8.565 5.13-13.876 5.13-11.782 0-21.333-9.551-21.333-21.333 0-5.312 1.941-10.17 5.153-13.904z" />
<glyph unicode="&#xe92d;" glyph-name="ic_search" d="M847.147 121.814l-243.627 243.413c35.976 42.357 57.855 97.666 57.855 158.085 0 135.258-109.648 244.907-244.907 244.907s-244.907-109.648-244.907-244.907c0-135.258 109.648-244.907 244.907-244.907 59.81 0 114.613 21.44 157.142 57.054l243.243-243.939c3.706-3.188 8.565-5.13 13.876-5.13 11.782 0 21.333 9.551 21.333 21.333 0 5.312-1.941 10.17-5.153 13.904zM213.333 523.094c0.486 111.326 90.845 201.385 202.238 201.385 111.694 0 202.24-90.546 202.24-202.24 0-111.393-90.059-201.753-201.339-202.238-0.237-0.001-0.462-0.001-0.687-0.001-111.812 0-202.453 90.641-202.453 202.453 0 0.225 0 0.451 0.001 0.676z" />
<glyph unicode="&#xe92e;" glyph-name="ic_shoppingbag" d="M911.147 114.56l-53.333 426.667c-4.063 31.787-30.947 56.109-63.512 56.109-0.172 0-0.343-0.001-0.515-0.002h-132.454v64c0 82.475-66.859 149.333-149.333 149.333s-149.333-66.859-149.333-149.333v-64h-132.693c-0.153 0.001-0.334 0.002-0.515 0.002-32.489 0-59.324-24.209-63.45-55.571l-54.008-426.991c-0.328-2.435-0.516-5.25-0.516-8.109 0-35.346 28.654-64 64-64 0.181 0 0.362 0.001 0.543 0.002h671.546c0.145-0.001 0.317-0.002 0.489-0.002 35.346 0 64 28.654 64 64 0 2.783-0.178 5.525-0.522 8.214zM405.333 661.334c0 58.91 47.756 106.667 106.667 106.667s106.667-47.756 106.667-106.667v-64h-213.333zM863.573 92.587c-3.924-4.45-9.635-7.245-15.999-7.253h-671.361c-0.054 0-0.117-0.001-0.181-0.001-11.782 0-21.333 9.551-21.333 21.333 0 0.978 0.066 1.941 0.193 2.884l53.961 426.557c1.419 10.529 10.348 18.561 21.152 18.561 0.064 0 0.127 0 0.191-0.001h132.47v-42.667h-21.333c-11.782 0-21.333-9.551-21.333-21.333s9.551-21.333 21.333-21.333h85.333c11.782 0 21.333 9.551 21.333 21.333s-9.551 21.333-21.333 21.333h-21.333v42.667h213.333v-42.667h-21.333c-11.782 0-21.333-9.551-21.333-21.333s9.551-21.333 21.333-21.333h85.333c11.782 0 21.333 9.551 21.333 21.333s-9.551 21.333-21.333 21.333h-21.333v42.667h133.12c0.046 0 0.1 0.001 0.154 0.001 10.88 0 19.858-8.145 21.169-18.67l53.344-426.771c0.070-0.651 0.111-1.406 0.111-2.17 0-5.591-2.151-10.68-5.67-14.484z" />
<glyph unicode="&#xe92f;" glyph-name="ic_show" d="M512 265.814c-88.837 0-160.853 72.016-160.853 160.853s72.016 160.853 160.853 160.853c88.837 0 160.853-72.016 160.853-160.853-0.121-88.788-72.065-160.732-160.842-160.853zM512 544.854c-65.273 0-118.187-52.914-118.187-118.187s52.914-118.187 118.187-118.187c65.273 0 118.187 52.914 118.187 118.187-0.121 65.224-52.963 118.065-118.175 118.187zM512 164.267c-1.24-0.012-2.706-0.018-4.173-0.018-181.133 0-338.612 101.275-418.901 250.289-2.684 5.324-3.528 8.628-3.528 12.129s0.843 6.805 2.338 9.72c81.423 151.418 238.865 252.699 419.963 252.699 1.512 0 3.023-0.007 4.532-0.021 1.047 0.014 2.558 0.021 4.070 0.021 181.098 0 338.54-101.281 418.774-250.29 2.684-5.324 3.527-8.628 3.527-12.13s-0.843-6.805-2.338-9.72c-81.478-151.423-238.957-252.698-420.091-252.698-1.467 0-2.933 0.007-4.397 0.020zM130.773 426.667c75.94-132.173 216.31-219.753 377.136-219.753 1.438 0 2.875 0.007 4.31 0.021 0.997-0.014 2.433-0.021 3.872-0.021 160.825 0 301.195 87.58 376.019 217.648-74.824 134.278-215.194 221.858-376.019 221.858-1.438 0-2.875-0.007-4.31-0.021-0.997 0.014-2.433 0.021-3.872 0.021-160.825 0-301.195-87.58-376.019-217.648z" />
<glyph unicode="&#xe930;" glyph-name="ic_twitter" d="M685.227 539.52c-22.827-8.107-26.027-7.040-14.72 5.12 7.952 7.988 14.206 17.674 18.171 28.466s-3.877 0.548-8.357-2.439c-6.622-3.332-14.473-6.451-22.615-8.898l-15.571-4.968-13.227 8.96c-6.578 4.565-14.102 8.584-22.083 11.692-7.187 1.871-14.583 2.799-22.196 2.799-9.079 0-17.849-1.319-26.131-3.775-30.213-10.575-51.966-39.417-51.966-73.341 0-1.609 0.049-3.207 0.145-4.792l-0.011-13.009-13.44 1.707c-50.447 6.475-94.642 29.307-127.986 62.919l-17.721 17.721-4.48-13.013c-2.939-7.901-4.64-17.029-4.64-26.554 0-20.786 8.1-39.681 21.317-53.699 10.63-11.268 8.284-12.974-10.276-6.148-3.684 1.767-7.993 2.854-12.541 2.986 0.837-13.346 4.285-25.695 9.808-36.831 8.533-14.702 21.363-26.778 36.786-34.407l13.734-6.414h-15.573c-15.147 0-15.573 0-13.867-5.973 9.683-21.215 27.601-37.252 49.558-44.216l17.216-5.918-14.507-8.747c-20.649-12.066-45.348-19.432-71.715-20.050-1.019 0.029-2.007 0.047-2.999 0.047-6.569 0-12.952-0.796-19.058-2.297 15.458-9.634 32.65-17.764 50.938-23.396 20.783-6.338 43.009-9.767 66.036-9.767 40.945 0 79.357 10.841 112.524 29.809 38.282 24.892 69.033 60.719 87.681 103.077 9.852 25.435 16.033 53.119 17.833 81.991 0.040 13.174 0.040 14.88 15.827 29.814 6.709 6.493 12.864 13.46 18.447 20.881 3.739 5.146 3.313 5.146-10.341 0.666zM512 821.334c-217.968 0-394.667-176.698-394.667-394.667s176.698-394.667 394.667-394.667c217.968 0 394.667 176.698 394.667 394.667-0.243 217.87-176.796 394.424-394.643 394.667zM512 53.334c-206.186 0-373.333 167.147-373.333 373.333s167.147 373.333 373.333 373.333c206.186 0 373.333-167.147 373.333-373.333-0.243-206.089-167.245-373.091-373.311-373.333z" />
<glyph unicode="&#xe931;" glyph-name="ic_twitterselect" d="M512 821.334c-217.968 0-394.667-176.698-394.667-394.667s176.698-394.667 394.667-394.667c217.968 0 394.667 176.698 394.667 394.667-0.243 217.87-176.796 394.424-394.643 394.667zM696.533 538.88c-5.91-7.873-12.065-14.84-18.725-21.287-15.195-14.979-15.835-16.686-15.835-29.059-2.217-29.786-8.756-57.418-19.010-83.169-18.535-41.765-49.126-77.432-87.383-102.301-33.046-19.051-71.572-29.961-112.646-29.961-22.988 0-45.177 3.417-66.088 9.771-18.128 5.596-35.32 13.726-51.020 23.955 6.348 0.906 12.731 1.702 19.3 1.702 0.992 0 1.98-0.018 2.963-0.054 26.404 0.626 51.102 7.991 72.471 20.445l13.787 8.359-16.64 5.76c-22.532 7.121-40.45 23.158-49.925 43.866-1.915 6.267-1.275 6.481 13.659 6.481h15.573l-13.013 6.4c-15.541 7.875-28.062 19.779-36.47 34.354-5.493 10.991-8.941 23.339-9.808 36.394 4.579 0.16 8.887-0.927 12.763-2.776 18.368-6.744 21.141-5.038 10.048 6.269-13.247 13.994-21.392 32.935-21.392 53.778 0 9.64 1.742 18.874 4.929 27.402l4.303 12.473 17.707-17.707c33.358-33.626 77.553-56.458 126.908-62.818l14.532-1.822v13.227c-0.076 1.288-0.12 2.795-0.12 4.312 0 33.52 21.239 62.080 50.994 72.956 8.172 2.464 16.942 3.783 26.021 3.783 7.613 0 15.009-0.927 22.082-2.675 8.094-3.231 15.619-7.25 22.56-12.053l12.863-8.722 14.507 4.693c9.207 2.722 17.058 5.841 24.555 9.567 3.605 1.953 7.659 3.447 7.659 2.593-4.14-11.339-10.395-21.025-18.35-29.016-11.304-12.157-8.104-13.224 14.723-5.117 13.867 5.12 14.293 5.12 11.52 0z" />
<glyph unicode="&#xe932;" glyph-name="ic_user" d="M795.947 233.387l-177.28 59.307v80c65.154 49.874 106.754 127.682 106.754 215.205 0 2.417-0.032 4.827-0.095 7.229 0.007 142.152-97.486 258.205-218.233 258.205s-219.093-116.053-219.093-258.56c-0.064-2.187-0.101-4.76-0.101-7.341 0-91.757 46.158-172.733 116.522-220.975l0.912-73.764-177.92-59.307c-55.886-17.010-96.392-66.755-99.4-126.388l-0.013-85.665c0-11.782 9.551-21.333 21.333-21.333h725.333c11.782 0 21.333 9.551 21.333 21.333v85.333c-2.981 60.168-43.827 110.042-99.071 126.469zM507.093 810.667c85.333 0 157.653-75.733 173.227-175.36-56.107-10.667-91.093 7.893-124.373 66.133-3.71 6.611-10.675 11.005-18.667 11.005s-14.957-4.394-18.611-10.898c-17.762-34.027-79.629-64.107-129.975-64.107-0.606-0.010-1.322-0.015-2.038-0.015-18.235 0-35.645 3.531-51.584 9.945 19.489 92.683 89.036 163.296 172.023 163.296zM330.667 594.774c0 2.56 0 4.907 0 7.467 16.926-5.682 36.416-8.961 56.672-8.961 0.251 0 0.502 0.001 0.753 0.002 57.23 1.050 108.977 23.851 147.467 60.46 24.55-38.786 67.229-64.087 115.817-64.087 0.051 0 0.102 0 0.152 0 11.11 0.16 21.863 1.24 32.319 3.167-1.18-118.367-80.754-213.514-177.394-213.514s-175.787 96.427-175.787 215.467zM853.333 42.667h-682.667v64c0 45.013 38.613 74.667 71.040 85.333l192 64c8.411 2.988 14.326 10.878 14.326 20.15 0 0.416-0.012 0.83-0.035 1.24l0.003 68.637c17.712-6.249 38.137-9.859 59.405-9.859 24.715 0 48.292 4.876 69.82 13.718l-1.225-72.552c0-0.016 0-0.036 0-0.055 0-9.339 6.001-17.276 14.357-20.167l192.15-64.045c39.066-11.042 67.754-44.992 70.808-86.079z" />
<glyph unicode="&#xe933;" glyph-name="ic_whiteglovedelivery" d="M874.667 810.667h-469.333c-35.346 0-64-28.654-64-64v-426.667h-85.333v10.88c-0.121 24.929-20.297 45.106-45.215 45.227h-81.291c-24.471-0.711-44.051-20.664-44.16-45.216v-245.557c0.121-24.929 20.297-45.106 45.215-45.227h79.585c0.127-0.001 0.277-0.002 0.427-0.002 25.022 0 45.32 20.224 45.439 45.217v36.491c3.751-2.391 8.098-4.677 12.634-6.603l149.926-64.223c12.436-5.263 26.896-8.322 42.071-8.322 0.21 0 0.419 0.001 0.628 0.002-0.015 0 0.004 0 0.024 0 9.286 0 18.317 1.089 26.974 3.145l276.543 74.508c23.881 7.312 41.708 27.276 45.814 51.884l64.053 0.383c35.346 0 64 28.654 64 64v510.080c0 35.346-28.654 64-64 64zM211.84 85.334c0-0.943-0.764-1.707-1.707-1.707h-80.64c-0.846 0.11-1.493 0.826-1.493 1.693 0 0.005 0 0.009 0 0.014v245.546c0 0.943 0.764 1.707 1.707 1.707h80.427c0.943 0 1.707-0.764 1.707-1.707zM576 766.080h128v-207.147l-62.507 54.187-65.493-55.253zM751.36 161.28l-275.84-74.453c-4.71-1.16-10.117-1.825-15.68-1.825-9.267 0-18.103 1.846-26.159 5.192l-148.881 63.834c-17.019 7.217-28.895 23.466-29.65 42.574l-0.003 80.732h278.187c11.782 0 21.333-9.551 21.333-21.333s-9.551-21.333-21.333-21.333h-98.56v-42.667h324.267c4.948 0 8.96-4.012 8.96-8.96 0-0.031 0-0.069 0-0.106 0-10.441-7.077-19.23-16.695-21.831zM896 236.587c0-11.782-9.551-21.333-21.333-21.333h-75.733c-9.43 11.786-23.772 19.301-39.875 19.413h-165.352c2.319 6.353 3.66 13.686 3.66 21.333 0 35.346-28.654 64-64 64-0.012 0-0.024 0-0.035 0h-149.331v426.667c0 11.782 9.551 21.333 21.333 21.333h128v-301.867l107.733 90.667 105.6-91.52v302.72h128c11.782 0 21.333-9.551 21.333-21.333z" />
<glyph unicode="&#xe934;" glyph-name="ic_wishlist" d="M512 39.254l-10.667 6.4c-16.64 10.027-394.667 244.053-394.667 509.013 0 167.467 77.227 256 223.36 256 72.431-3.79 136.585-36.356 181.769-86.384 45.593 50.028 109.747 82.594 181.53 86.357 146.78 0.027 224.007-88.506 224.007-255.973 0-286.507-378.88-500.267-395.093-509.227zM330.027 768c-123.307 0-180.693-67.84-180.693-213.333 0-218.027 302.080-426.667 362.667-465.707 61.867 36.907 362.667 229.76 362.667 465.707 0 145.493-57.387 213.333-180.693 213.333-67.836-3.624-126.853-38.418-163.39-90.208l-18.583-30.112-18.133 29.44c-36.987 52.462-96.004 87.256-163.305 90.857z" />
<glyph unicode="&#xe935;" glyph-name="ic_wishlistfull" d="M693.973 810.667c-72.566-3.925-136.756-36.814-181.748-87.21-45.442 50.396-109.632 83.286-181.534 87.181-146.371 0.029-224.024-88.931-224.024-255.971 0-264.533 378.453-498.56 394.453-508.373l10.24-6.4 10.667 5.973c16.213 8.96 395.307 222.507 395.307 508.8 0 167.040-77.653 256-223.36 256z" />
<glyph unicode="&#xe936;" glyph-name="ic_youtube" d="M512 821.334c-217.968 0-394.667-176.698-394.667-394.667s176.698-394.667 394.667-394.667c217.968 0 394.667 176.698 394.667 394.667-0.243 217.87-176.796 394.424-394.643 394.667zM512 53.334c-206.186 0-373.333 167.147-373.333 373.333s167.147 373.333 373.333 373.333c206.186 0 373.333-167.147 373.333-373.333-0.243-206.089-167.245-373.091-373.311-373.333zM696.32 545.494c-10.378 10.765-24.862 17.51-40.924 17.706-58.063 4.267-143.396 4.267-143.396 4.267v0s-85.333 0-143.36-4.267c-16.098-0.196-30.582-6.941-40.943-17.689-8.413-11.716-14.185-25.843-16.181-41.156-2.458-20.633-3.926-44.19-4.101-68.054l-0.001-30.968c0.176-24.111 1.644-47.668 4.338-70.851 1.76-12.764 7.533-26.89 16.117-38.865 11.712-10.627 27.562-17.39 44.987-17.644 32.905-3.201 139.358-4.267 139.358-4.267s85.333 0 143.36 4.267c16.093 0.222 30.569 6.961 40.944 17.69 8.411 11.715 14.184 25.841 16.18 41.154 2.467 20.706 3.935 44.339 4.101 68.28l0.001 31.169c-0.177 24.112-1.644 47.669-4.338 70.852-1.865 12.704-7.703 26.747-16.326 38.641zM469.333 366.080v117.547l110.933-59.093z" />
<glyph unicode="&#xe937;" glyph-name="ic_youtubeselect" d="M469.76 366.080l110.507 58.453-110.507 59.093v-117.547zM512 821.334c-217.968 0-394.667-176.698-394.667-394.667s176.698-394.667 394.667-394.667c217.968 0 394.667 176.698 394.667 394.667-0.243 217.87-176.796 394.424-394.643 394.667zM716.8 405.334c-0.176-24.111-1.644-47.668-4.338-70.851-1.76-12.764-7.533-26.89-16.117-38.865-10.203-10.47-24.679-17.209-40.731-17.43-57.428-4.267-143.401-4.267-143.401-4.267s-106.667 0-139.307 4.267c-17.477 0.255-33.327 7.017-45.278 17.966-8.345 11.652-14.117 25.779-16.113 41.092-2.511 20.483-4.053 43.949-4.313 67.723l-0.003 31.299c0.177 24.112 1.644 47.669 4.338 70.852 1.76 12.763 7.533 26.889 16.117 38.864 10.19 10.489 24.675 17.235 40.736 17.43 58.276 4.054 143.61 4.054 143.61 4.054v0s85.333 0 143.36-4.267c16.098-0.196 30.582-6.941 40.943-17.689 8.413-11.716 14.185-25.843 16.181-41.156 2.458-20.633 3.926-44.19 4.101-68.054z" />
<glyph unicode="&#xe938;" glyph-name="ic_zoom" d="M847.147 121.814l-243.84 243.627c35.706 42.301 57.408 97.432 57.408 157.632 0 135.376-109.744 245.12-245.12 245.12s-245.12-109.744-245.12-245.12c0-135.376 109.744-245.12 245.12-245.12 60.2 0 115.332 21.702 157.998 57.709l243.261-244.141c3.706-3.188 8.565-5.13 13.876-5.13 11.782 0 21.333 9.551 21.333 21.333 0 5.312-1.941 10.17-5.153 13.904zM213.333 523.094c0.485 111.326 90.844 201.386 202.238 201.386 111.694 0 202.24-90.546 202.24-202.24 0-111.543-90.302-201.996-201.788-202.24-0.087 0-0.162 0-0.238 0-111.812 0-202.453 90.641-202.453 202.453 0 0.225 0 0.45 0.001 0.675zM512 554.667h-74.667v69.333c0 11.782-9.551 21.333-21.333 21.333s-21.333-9.551-21.333-21.333v-69.333h-74.667c-11.782 0-21.333-9.551-21.333-21.333s9.551-21.333 21.333-21.333h74.667v-80c0-11.782 9.551-21.333 21.333-21.333s21.333 9.551 21.333 21.333v80h74.667c11.782 0 21.333 9.551 21.333 21.333s-9.551 21.333-21.333 21.333z" />
<glyph unicode="&#xe939;" glyph-name="ic_warning" d="M461.575 763.251l-345.123-558.368c-37.289-60.329-10.11-108.884 60.438-108.884h670.194c70.532 0 97.607 48.749 60.438 108.884l-345.123 558.368c-27.776 44.938-72.983 45.045-100.825 0zM491.302 751.267c11.115 17.961 29.171 17.904 40.251 0l352.168-569.043c18.534-29.947 4.67-54.224-30.133-54.224h-684.296c-35.176 0-48.766 24.118-30.135 54.224l352.145 569.043zM512 576c-17.673 0-32-14.497-32-31.905v-192.19c0-17.621 14.204-31.905 32-31.905 17.673 0 32 14.497 32 31.905v192.19c0 17.621-14.204 31.905-32 31.905v0zM512 192c17.673 0 32 14.327 32 32s-14.327 32-32 32c-17.673 0-32-14.327-32-32s14.327-32 32-32v0z" />
<glyph unicode="&#xe93a;" glyph-name="ic_price-tag" d="M976 960h-384c-26.4 0-63.274-15.274-81.942-33.942l-476.116-476.116c-18.668-18.668-18.668-49.214 0-67.882l412.118-412.118c18.668-18.668 49.214-18.668 67.882 0l476.118 476.118c18.666 18.666 33.94 55.54 33.94 81.94v384c0 26.4-21.6 48-48 48zM736 576c-53.020 0-96 42.98-96 96s42.98 96 96 96 96-42.98 96-96-42.98-96-96-96z" />
<glyph unicode="&#xe93b;" glyph-name="Check" d="M450.133 285.867l-155.733 155.733 44.8 44.8 110.933-113.067 236.8 236.8 42.667-44.8z" />
<glyph unicode="&#xe93c;" glyph-name="filter" d="M418.133 614.4c-6.4 17.067-23.467 29.867-42.667 29.867s-36.267-12.8-42.667-29.867h-64v-29.867h64c6.4-17.067 23.467-29.867 42.667-29.867s36.267 12.8 42.667 29.867h334.933v29.867h-334.933zM618.667 492.8c-19.2 0-36.267-12.8-42.667-29.867h-307.2v-29.867h307.2c6.4-17.067 23.467-29.867 42.667-29.867s36.267 12.8 42.667 29.867h91.733v29.867h-91.733c-6.4 17.067-23.467 29.867-42.667 29.867zM435.2 341.333c-19.2 0-36.267-12.8-42.667-29.867h-123.733v-29.867h123.733c6.4-17.067 23.467-29.867 42.667-29.867s36.267 12.8 42.667 29.867h275.2v29.867h-275.2c-6.4 17.067-23.467 29.867-42.667 29.867z" />
<glyph unicode="&#xe93d;" glyph-name="edit-input" d="M590.933 676.267v-59.733h-194.133l343.467-343.467-42.667-42.667-343.467 343.467v-194.133h-59.733v296.533z" />
<glyph unicode="&#xe93e;" glyph-name="arrow-left" d="M740.267 475.733h-345.6l160 160-40.533 40.533-230.4-228.267 228.267-228.267 40.533 40.533-157.867 160h345.6v55.467z" />
<glyph unicode="&#xe93f;" glyph-name="arrow-right" d="M283.733 420.267h345.6l-160-160 40.533-40.533 230.4 228.267-228.267 228.267-40.533-40.533 157.867-160h-345.6v-55.467z" />
<glyph unicode="&#xe9ac;" glyph-name="bin" d="M128 640v-640c0-35.2 28.8-64 64-64h576c35.2 0 64 28.8 64 64v640h-704zM320 64h-64v448h64v-448zM448 64h-64v448h64v-448zM576 64h-64v448h64v-448zM704 64h-64v448h64v-448zM848 832h-208v80c0 26.4-21.6 48-48 48h-224c-26.4 0-48-21.6-48-48v-80h-208c-26.4 0-48-21.6-48-48v-80h832v80c0 26.4-21.6 48-48 48zM576 832h-192v63.198h192v-63.198z" />
</font>
</defs>
</svg>
