<?xml version="1.0" standalone="no"?>
<!DOCTYPE svg PUBLIC "-//W3C//DTD SVG 1.1//EN" "http://www.w3.org/Graphics/SVG/1.1/DTD/svg11.dtd" >
<svg xmlns="http://www.w3.org/2000/svg" xmlns:xlink="http://www.w3.org/1999/xlink" version="1.1">
<metadata>
Created by FontForge 20190801 at Wed Jul  3 23:21:07 2019
 By Jimmy Wärting
Copyright Martin Wenzel 2011-2019, supertype.de. All rights reserved.
</metadata>
<defs>
<font id="Realist-Regular" horiz-adv-x="355" >
  <font-face 
    font-family="Realist"
    font-weight="400"
    font-stretch="normal"
    units-per-em="1000"
    panose-1="2 0 0 0 0 0 0 0 0 0"
    ascent="750"
    descent="-250"
    x-height="487"
    cap-height="690"
    bbox="-167 -238 1001 887"
    underline-thickness="58"
    underline-position="-131"
    stemh="75"
    stemv="83"
    unicode-range="U+0020-E006"
  />
<missing-glyph horiz-adv-x="553" 
d="M50 0v700h453v-700h-453zM100 50h353v600h-353v-600z" />
    <glyph glyph-name="uniFB00" unicode="ff" horiz-adv-x="656" 
d="M301 487v-70h-117v-417h-83v417h-68v70h68v58c0 120 70 171 159 171c29 0 45 -6 52 -8v-72c-6 2 -19 7 -40 7c-52 0 -88 -23 -88 -99v-57h117zM640 487v-70h-128v-417h-83v417h-68v70h68v58c0 120 70 171 159 171c29 0 45 -6 52 -8v-72c-6 2 -19 7 -40 7
c-52 0 -88 -23 -88 -99v-57h128z" />
    <glyph glyph-name="uniFB03" unicode="ffi" horiz-adv-x="884" 
d="M301 487v-70h-117v-417h-83v417h-68v70h68v58c0 120 70 171 159 171c29 0 45 -6 52 -8v-72c-6 2 -19 7 -40 7c-52 0 -88 -23 -88 -99v-57h117zM640 487v-70h-128v-417h-83v417h-68v70h68v58c0 120 70 171 159 171c29 0 45 -6 52 -8v-72c-6 2 -19 7 -40 7
c-52 0 -88 -23 -88 -99v-57h128zM813 668v-97h-85v97h85zM812 487v-487h-83v487h83z" />
    <glyph glyph-name="uniFB04" unicode="ffl" horiz-adv-x="885" 
d="M301 487v-70h-117v-417h-83v417h-68v70h68v58c0 120 70 171 159 171c29 0 45 -6 52 -8v-72c-6 2 -19 7 -40 7c-52 0 -88 -23 -88 -99v-57h117zM640 487v-70h-128v-417h-83v417h-68v70h68v58c0 120 70 171 159 171c29 0 45 -6 52 -8v-72c-6 2 -19 7 -40 7
c-52 0 -88 -23 -88 -99v-57h128zM812 710v-710h-83v710h83z" />
    <glyph glyph-name="fi" unicode="fi" horiz-adv-x="556" 
d="M312 487v-70h-128v-417h-83v417h-68v70h68v58c0 120 70 171 159 171c29 0 45 -6 52 -8v-72c-6 2 -19 7 -40 7c-52 0 -88 -23 -88 -99v-57h128zM485 668v-97h-85v97h85zM484 487v-487h-83v487h83z" />
    <glyph glyph-name="fl" unicode="fl" horiz-adv-x="557" 
d="M312 487v-70h-128v-417h-83v417h-68v70h68v58c0 120 70 171 159 171c29 0 45 -6 52 -8v-72c-6 2 -19 7 -40 7c-52 0 -88 -23 -88 -99v-57h128zM484 710v-710h-83v710h83z" />
    <glyph glyph-name="arrowleft" unicode="&#x28;arrow&#x2d;w&#x29;" horiz-adv-x="807" 
d="M417 672l50 -49l-276 -271v-2h571v-69h-571v-2l276 -272l-50 -49l-357 357z" />
    <glyph glyph-name="arrowup" unicode="&#x28;arrow&#x2d;n&#x29;" horiz-adv-x="804" 
d="M759 315l-49 -50l-271 276h-2v-571h-69v571h-2l-272 -276l-49 50l357 357z" />
    <glyph glyph-name="arrowright" unicode="&#x28;arrow&#x2d;e&#x29;" horiz-adv-x="807" 
d="M390 -42l-50 49l276 271v2h-571v69h571v2l-276 272l50 49l357 -357z" />
    <glyph glyph-name="arrowdown" unicode="&#x28;arrow&#x2d;s&#x29;" horiz-adv-x="804" 
d="M45 315l49 50l271 -276h2v571h69v-571h2l272 276l49 -50l-357 -357z" />
    <glyph glyph-name="uni2196" unicode="&#x28;arrow&#x2d;nw&#x29;" horiz-adv-x="655" 
d="M595 582v-70l-386 4l-1 -2l403 -403l-49 -50l-404 404l-1 -2l3 -386h-70v505h505z" />
    <glyph glyph-name="uni2197" unicode="&#x28;arrow&#x2d;ne&#x29;" horiz-adv-x="655" 
d="M60 582h505v-505h-70l3 386l-1 2l-404 -404l-49 50l403 403l-1 2l-386 -4v70z" />
    <glyph glyph-name="uni2198" unicode="&#x28;arrow&#x2d;se&#x29;" horiz-adv-x="655" 
d="M60 77v70l386 -4l1 2l-403 403l49 50l404 -404l1 2l-3 386h70v-505h-505z" />
    <glyph glyph-name="uni2199" unicode="&#x28;arrow&#x2d;sw&#x29;" horiz-adv-x="655" 
d="M595 77h-505v505h70l-3 -386l1 -2l404 404l49 -50l-403 -403l1 -2l386 4v-70z" />
    <glyph glyph-name=".notdef" horiz-adv-x="553" 
d="M50 0v700h453v-700h-453zM100 50h353v600h-353v-600z" />
    <glyph glyph-name="space" unicode=" " horiz-adv-x="261" 
 />
    <glyph glyph-name="space" unicode="&#xa0;" horiz-adv-x="261" 
 />
    <glyph glyph-name="A" unicode="A" horiz-adv-x="661" 
d="M374 690l270 -690h-89l-84 223h-286l-83 -223h-86l271 690h87zM445 292l-116 311h-2l-115 -311h233z" />
    <glyph glyph-name="Aacute" unicode="&#xc1;" horiz-adv-x="661" 
d="M495 848v-2l-124 -118h-82l102 120h104zM374 690l270 -690h-89l-84 223h-286l-83 -223h-86l271 690h87zM445 292l-116 311h-2l-115 -311h233z" />
    <glyph glyph-name="Acircumflex" unicode="&#xc2;" horiz-adv-x="661" 
d="M469 728h-69l-69 72h-2l-69 -72h-69l91 117h96zM374 690l270 -690h-89l-84 223h-286l-83 -223h-86l271 690h87zM445 292l-116 311h-2l-115 -311h233z" />
    <glyph glyph-name="Adieresis" unicode="&#xc4;" horiz-adv-x="661" 
d="M295 830v-87h-82v87h82zM458 830v-87h-82v87h82zM374 690l270 -690h-89l-84 223h-286l-83 -223h-86l271 690h87zM445 292l-116 311h-2l-115 -311h233z" />
    <glyph glyph-name="AE" unicode="&#xc6;" horiz-adv-x="937" 
d="M893 690v-75h-357v-222h324v-75h-324v-241h367v-77h-450v223h-265l-86 -223h-86l271 690h606zM453 615h-113l-125 -323h238v323z" />
    <glyph glyph-name="Agrave" unicode="&#xc0;" horiz-adv-x="661" 
d="M371 728h-82l-124 118v2h104zM374 690l270 -690h-89l-84 223h-286l-83 -223h-86l271 690h87zM445 292l-116 311h-2l-115 -311h233z" />
    <glyph glyph-name="Aring" unicode="&#xc5;" horiz-adv-x="661" 
d="M422 807c0 -50 -40 -80 -92 -80s-92 30 -92 80s40 80 92 80s92 -30 92 -80zM375 807c0 24 -18 37 -45 37s-45 -13 -45 -37c0 -23 18 -37 45 -37s45 14 45 37zM374 690l270 -690h-89l-84 223h-286l-83 -223h-86l271 690h87zM445 292l-116 311h-2l-115 -311h233z" />
    <glyph glyph-name="Atilde" unicode="&#xc3;" horiz-adv-x="661" 
d="M485 827c-2 -66 -28 -98 -82 -98c-60 0 -100 46 -145 46c-26 0 -36 -14 -37 -41h-47c2 66 27 99 83 99c58 0 99 -47 143 -47c27 0 38 14 39 41h46zM374 690l270 -690h-89l-84 223h-286l-83 -223h-86l271 690h87zM445 292l-116 311h-2l-115 -311h233z" />
    <glyph glyph-name="B" unicode="B" horiz-adv-x="642" 
d="M600 187c0 -110 -89 -187 -276 -187h-247v690h240c175 0 252 -65 252 -171c0 -94 -54 -144 -128 -158v-2c91 -13 159 -72 159 -172zM486 509c0 74 -53 106 -176 106h-150v-223h150c123 0 176 47 176 117zM515 195c0 77 -63 124 -195 124h-160v-242h160
c135 0 195 41 195 118z" />
    <glyph glyph-name="B" unicode="&#xe000;" horiz-adv-x="642" 
d="M600 187c0 -110 -89 -187 -276 -187h-247v690h240c175 0 252 -65 252 -171c0 -94 -54 -144 -128 -158v-2c91 -13 159 -72 159 -172zM486 509c0 74 -53 106 -176 106h-150v-223h150c123 0 176 47 176 117zM515 195c0 77 -63 124 -195 124h-160v-242h160
c135 0 195 41 195 118z" />
    <glyph glyph-name="C" unicode="C" horiz-adv-x="634" 
d="M41 343c0 250 173 359 348 359c132 0 184 -45 219 -69l-36 -68c-32 23 -77 61 -181 61c-142 0 -265 -86 -265 -278c0 -195 104 -282 253 -282c113 0 172 40 196 58l30 -68c-26 -20 -94 -68 -231 -68c-190 0 -333 107 -333 355z" />
    <glyph glyph-name="Ccedilla" unicode="&#xc7;" horiz-adv-x="634" 
d="M41 343c0 250 173 359 348 359c132 0 184 -45 219 -69l-36 -68c-32 23 -77 61 -181 61c-142 0 -265 -86 -265 -278c0 -195 104 -282 253 -282c113 0 172 40 196 58l30 -68c-24 -19 -86 -62 -206 -67l-22 -43c60 -4 92 -30 92 -72c0 -49 -36 -82 -115 -82
c-38 0 -62 8 -76 15v44c12 -6 34 -12 63 -12c42 0 61 13 61 36c0 27 -27 41 -91 41l-4 4l38 69c-175 10 -304 119 -304 354z" />
    <glyph glyph-name="D" unicode="D" horiz-adv-x="730" 
d="M692 353c0 -238 -149 -353 -408 -353h-207v690h207c256 0 408 -100 408 -337zM607 351c0 184 -116 264 -323 264h-124v-538h124c207 0 323 85 323 274z" />
    <glyph glyph-name="Eth" unicode="&#xd0;" horiz-adv-x="756" 
d="M716 353c0 -238 -149 -353 -408 -353h-207v318h-83v75h83v297h207c256 0 408 -100 408 -337zM390 393v-75h-206v-241h124c207 0 323 85 323 274c0 184 -116 264 -323 264h-124v-222h206z" />
    <glyph glyph-name="E" unicode="E" horiz-adv-x="562" 
d="M518 690v-75h-358v-222h324v-75h-324v-241h368v-77h-451v690h441z" />
    <glyph glyph-name="Eacute" unicode="&#xc9;" horiz-adv-x="562" 
d="M462 848v-2l-124 -118h-82l102 120h104zM518 690v-75h-358v-222h324v-75h-324v-241h368v-77h-451v690h441z" />
    <glyph glyph-name="Ecircumflex" unicode="&#xca;" horiz-adv-x="562" 
d="M436 728h-69l-69 72h-2l-69 -72h-69l91 117h96zM518 690v-75h-358v-222h324v-75h-324v-241h368v-77h-451v690h441z" />
    <glyph glyph-name="Edieresis" unicode="&#xcb;" horiz-adv-x="562" 
d="M262 830v-87h-82v87h82zM425 830v-87h-82v87h82zM518 690v-75h-358v-222h324v-75h-324v-241h368v-77h-451v690h441z" />
    <glyph glyph-name="Egrave" unicode="&#xc8;" horiz-adv-x="562" 
d="M338 728h-82l-124 118v2h104zM518 690v-75h-358v-222h324v-75h-324v-241h368v-77h-451v690h441z" />
    <glyph glyph-name="F" unicode="F" horiz-adv-x="536" 
d="M518 690v-75h-358v-261h326v-74h-326v-280h-83v690h441z" />
    <glyph glyph-name="G" unicode="G" horiz-adv-x="689" 
d="M41 343c0 249 172 359 361 359c133 0 194 -45 226 -69l-36 -68c-31 24 -84 61 -188 61c-147 0 -278 -80 -278 -279c0 -196 115 -281 275 -281c61 0 108 11 141 23v203h-129v75h212v-319c-23 -14 -95 -60 -235 -60c-196 0 -349 102 -349 355z" />
    <glyph glyph-name="H" unicode="H" horiz-adv-x="718" 
d="M641 690v-690h-83v318h-398v-318h-83v690h83v-297h398v297h83z" />
    <glyph glyph-name="I" unicode="I" horiz-adv-x="260" 
d="M171 690v-690h-83v690h83z" />
    <glyph glyph-name="Iacute" unicode="&#xcd;" horiz-adv-x="260" 
d="M295 848v-2l-124 -118h-82l102 120h104zM171 690v-690h-83v690h83z" />
    <glyph glyph-name="Icircumflex" unicode="&#xce;" horiz-adv-x="260" 
d="M269 728h-69l-69 72h-2l-69 -72h-69l91 117h96zM171 690v-690h-83v690h83z" />
    <glyph glyph-name="Idieresis" unicode="&#xcf;" horiz-adv-x="260" 
d="M95 830v-87h-82v87h82zM258 830v-87h-82v87h82zM171 690v-690h-83v690h83z" />
    <glyph glyph-name="Igrave" unicode="&#xcc;" horiz-adv-x="260" 
d="M171 728h-82l-124 118v2h104zM171 690v-690h-83v690h83z" />
    <glyph glyph-name="J" unicode="J" horiz-adv-x="464" 
d="M391 690v-452c0 -183 -90 -250 -240 -250c-58 0 -97 18 -111 26l17 76c12 -7 45 -24 91 -24c106 0 160 44 160 173v376h-261v75h344z" />
    <glyph glyph-name="K" unicode="K" horiz-adv-x="648" 
d="M160 690v-300h84l270 300h105l-303 -334l327 -356h-112l-286 317h-85v-317h-83v690h83z" />
    <glyph glyph-name="L" unicode="L" horiz-adv-x="538" 
d="M160 690v-613h369v-77h-452v690h83z" />
    <glyph glyph-name="M" unicode="M" horiz-adv-x="883" 
d="M806 690v-690h-83v526h-2l-242 -526h-75l-242 526h-2v-526h-83v690h99l265 -575h2l266 575h97z" />
    <glyph glyph-name="N" unicode="N" horiz-adv-x="718" 
d="M641 690v-690h-78l-402 542h-1v-542h-83v690h78l401 -542h2v542h83z" />
    <glyph glyph-name="Ntilde" unicode="&#xd1;" horiz-adv-x="718" 
d="M513 827c-2 -66 -28 -98 -82 -98c-60 0 -100 46 -145 46c-26 0 -36 -14 -37 -41h-47c2 66 27 99 83 99c58 0 99 -47 143 -47c27 0 38 14 39 41h46zM641 690v-690h-78l-402 542h-1v-542h-83v690h78l401 -542h2v542h83z" />
    <glyph glyph-name="O" unicode="O" horiz-adv-x="744" 
d="M703 345c0 -230 -133 -357 -332 -357c-197 0 -330 127 -330 357s133 357 331 357s331 -127 331 -357zM618 345c0 180 -98 281 -246 281c-149 0 -246 -101 -246 -281c0 -179 97 -279 246 -279c148 0 246 100 246 279z" />
    <glyph glyph-name="Ograve" unicode="&#xd2;" horiz-adv-x="744" 
d="M412 736h-82l-124 118v2h104zM703 345c0 -230 -133 -357 -332 -357c-197 0 -330 127 -330 357s133 357 331 357s331 -127 331 -357zM618 345c0 180 -98 281 -246 281c-149 0 -246 -101 -246 -281c0 -179 97 -279 246 -279c148 0 246 100 246 279z" />
    <glyph glyph-name="Oacute" unicode="&#xd3;" horiz-adv-x="744" 
d="M537 856v-2l-124 -118h-82l102 120h104zM703 345c0 -230 -133 -357 -332 -357c-197 0 -330 127 -330 357s133 357 331 357s331 -127 331 -357zM618 345c0 180 -98 281 -246 281c-149 0 -246 -101 -246 -281c0 -179 97 -279 246 -279c148 0 246 100 246 279z" />
    <glyph glyph-name="Ocircumflex" unicode="&#xd4;" horiz-adv-x="744" 
d="M511 736h-69l-69 72h-2l-69 -72h-69l91 117h96zM703 345c0 -230 -133 -357 -332 -357c-197 0 -330 127 -330 357s133 357 331 357s331 -127 331 -357zM618 345c0 180 -98 281 -246 281c-149 0 -246 -101 -246 -281c0 -179 97 -279 246 -279c148 0 246 100 246 279z" />
    <glyph glyph-name="Odieresis" unicode="&#xd6;" horiz-adv-x="744" 
d="M337 838v-87h-82v87h82zM500 838v-87h-82v87h82zM703 345c0 -230 -133 -357 -332 -357c-197 0 -330 127 -330 357s133 357 331 357s331 -127 331 -357zM618 345c0 180 -98 281 -246 281c-149 0 -246 -101 -246 -281c0 -179 97 -279 246 -279c148 0 246 100 246 279z" />
    <glyph glyph-name="OE" unicode="&#x152;" horiz-adv-x="1036" 
d="M41 343c0 240 155 359 368 359c74 0 115 -6 142 -12h441v-75h-358v-222h325v-75h-325v-242h367v-76h-450c-27 -5 -70 -12 -145 -12c-213 0 -365 116 -365 355zM413 66c70 0 114 7 138 12v535c-24 6 -67 13 -134 13c-172 0 -291 -91 -291 -281s118 -279 287 -279z" />
    <glyph glyph-name="Oslash" unicode="&#xd8;" horiz-adv-x="744" 
d="M703 345c0 -230 -133 -357 -331 -357c-75 0 -140 18 -192 53l-39 -53h-62l62 84c-64 60 -100 153 -100 273c0 230 133 357 331 357c74 0 139 -18 192 -52l38 52h63l-62 -84c64 -60 100 -153 100 -273zM126 345c0 -88 23 -157 65 -204l325 443c-39 28 -88 42 -144 42
c-149 0 -246 -101 -246 -281zM618 345c0 88 -23 157 -65 205l-325 -443c39 -27 88 -41 144 -41c148 0 246 100 246 279z" />
    <glyph glyph-name="Otilde" unicode="&#xd5;" horiz-adv-x="744" 
d="M527 835c-2 -66 -28 -98 -82 -98c-60 0 -100 46 -145 46c-26 0 -36 -14 -37 -41h-47c2 66 27 99 83 99c58 0 99 -47 143 -47c27 0 38 14 39 41h46zM703 345c0 -230 -133 -357 -332 -357c-197 0 -330 127 -330 357s133 357 331 357s331 -127 331 -357zM618 345
c0 180 -98 281 -246 281c-149 0 -246 -101 -246 -281c0 -179 97 -279 246 -279c148 0 246 100 246 279z" />
    <glyph glyph-name="P" unicode="P" horiz-adv-x="599" 
d="M574 472c0 -145 -100 -227 -290 -227h-124v-245h-83v690h207c198 0 290 -73 290 -218zM489 470c0 95 -64 145 -206 145h-123v-297h123c143 0 206 58 206 152z" />
    <glyph glyph-name="Thorn" unicode="&#xde;" horiz-adv-x="603" 
d="M576 377c0 -145 -100 -227 -290 -227h-126v-150h-83v690h83v-94h126c197 0 290 -74 290 -219zM491 375c0 95 -65 146 -208 146h-123v-298h124c143 0 207 58 207 152z" />
    <glyph glyph-name="Q" unicode="Q" horiz-adv-x="745" 
d="M690 -83l-67 -50l-108 148c-43 -18 -91 -27 -143 -27c-198 0 -331 127 -331 357s133 357 331 357c197 0 331 -127 331 -357c0 -131 -44 -229 -117 -288zM618 345c0 179 -98 281 -246 281c-149 0 -246 -102 -246 -281s97 -279 246 -279c148 0 246 100 246 279z" />
    <glyph glyph-name="R" unicode="R" horiz-adv-x="632" 
d="M602 0h-100l-173 265c-14 -1 -29 -2 -45 -2h-124v-263h-83v690h209c194 0 288 -69 288 -207c0 -99 -54 -172 -158 -203zM490 477c0 91 -64 138 -204 138h-126v-279h123c141 0 207 55 207 141z" />
    <glyph glyph-name="S" unicode="S" horiz-adv-x="561" 
d="M495 640l-32 -71c-27 17 -85 57 -179 57c-91 0 -154 -31 -154 -95c0 -75 58 -98 188 -140c129 -43 204 -99 204 -208c0 -121 -91 -195 -250 -195c-133 0 -200 46 -235 72l33 75c25 -20 91 -69 204 -69c100 0 164 33 164 107c0 70 -53 107 -178 149
c-126 42 -213 87 -213 204c0 110 96 176 238 176c119 0 178 -41 210 -62z" />
    <glyph glyph-name="uni1E9E" horiz-adv-x="685" 
d="M648 188c0 -133 -98 -200 -235 -200c-98 0 -138 28 -161 42l24 77c19 -13 60 -42 134 -42c96 0 155 43 155 118c0 96 -65 145 -202 145h-25v66l148 219v2h-156c-129 0 -174 -55 -174 -175v-440h-83v441c0 176 78 249 256 249h260v-60l-159 -233c154 -15 218 -92 218 -209
z" />
    <glyph glyph-name="T" unicode="T" horiz-adv-x="618" 
d="M611 690v-75h-260v-615h-83v615h-262v75h605z" />
    <glyph glyph-name="U" unicode="U" horiz-adv-x="717" 
d="M645 690v-384c0 -211 -93 -318 -288 -318c-194 0 -285 101 -285 318v384h83v-386c0 -165 68 -238 206 -238c135 0 203 72 203 238v386h81z" />
    <glyph glyph-name="Uacute" unicode="&#xda;" horiz-adv-x="717" 
d="M525 848v-2l-124 -118h-82l102 120h104zM645 690v-384c0 -211 -93 -318 -288 -318c-194 0 -285 101 -285 318v384h83v-386c0 -165 68 -238 206 -238c135 0 203 72 203 238v386h81z" />
    <glyph glyph-name="Ucircumflex" unicode="&#xdb;" horiz-adv-x="717" 
d="M499 728h-69l-69 72h-2l-69 -72h-69l91 117h96zM645 690v-384c0 -211 -93 -318 -288 -318c-194 0 -285 101 -285 318v384h83v-386c0 -165 68 -238 206 -238c135 0 203 72 203 238v386h81z" />
    <glyph glyph-name="Udieresis" unicode="&#xdc;" horiz-adv-x="717" 
d="M324 830v-87h-82v87h82zM487 830v-87h-82v87h82zM645 690v-384c0 -211 -93 -318 -288 -318c-194 0 -285 101 -285 318v384h83v-386c0 -165 68 -238 206 -238c135 0 203 72 203 238v386h81z" />
    <glyph glyph-name="Ugrave" unicode="&#xd9;" horiz-adv-x="717" 
d="M400 728h-82l-124 118v2h104zM645 690v-384c0 -211 -93 -318 -288 -318c-194 0 -285 101 -285 318v384h83v-386c0 -165 68 -238 206 -238c135 0 203 72 203 238v386h81z" />
    <glyph glyph-name="V" unicode="V" horiz-adv-x="654" 
d="M639 690l-269 -690h-86l-269 690h89l223 -593h2l224 593h86z" />
    <glyph glyph-name="W" unicode="W" horiz-adv-x="937" 
d="M908 690l-149 -690h-87l-203 567h-2l-203 -567h-86l-150 690h86l113 -557h2l196 557h86l196 -557h2l114 557h85z" />
    <glyph glyph-name="X" unicode="X" horiz-adv-x="625" 
d="M600 690l-237 -339l249 -351h-102l-202 288l-197 -288h-98l250 356l-238 334h102l189 -271l186 271h98z" />
    <glyph glyph-name="Y" unicode="Y" horiz-adv-x="603" 
d="M598 690l-255 -434v-256h-83v256l-255 434h98l201 -354h2l199 354h93z" />
    <glyph glyph-name="Yacute" unicode="&#xdd;" horiz-adv-x="603" 
d="M468 848v-2l-124 -118h-82l102 120h104zM598 690l-255 -434v-256h-83v256l-255 434h98l201 -354h2l199 354h93z" />
    <glyph glyph-name="Ydieresis" unicode="&#x178;" horiz-adv-x="603" 
d="M268 830v-87h-82v87h82zM431 830v-87h-82v87h82zM598 690l-255 -434v-256h-83v256l-255 434h98l201 -354h2l199 354h93z" />
    <glyph glyph-name="Z" unicode="Z" horiz-adv-x="627" 
d="M577 690v-67l-419 -545v-1h436v-77h-549v68l422 545v2h-409v75h519z" />
    <glyph glyph-name="acute.uc" horiz-adv-x="284" 
d="M249 848v-2l-124 -118h-82l102 120h104z" />
    <glyph glyph-name="dieresis.uc" horiz-adv-x="329" 
d="M130 830v-87h-82v87h82zM293 830v-87h-82v87h82z" />
    <glyph glyph-name="grave.uc" horiz-adv-x="284" 
d="M240 728h-82l-124 118v2h104z" />
    <glyph glyph-name="macron.uc" horiz-adv-x="331" 
d="M315 812v-64h-298v64h298z" />
    <glyph glyph-name="tilde.uc" horiz-adv-x="397" 
d="M354 827c-2 -66 -28 -98 -82 -98c-60 0 -100 46 -145 46c-26 0 -36 -14 -37 -41h-47c2 66 27 99 83 99c58 0 99 -47 143 -47c27 0 38 14 39 41h46z" />
    <glyph glyph-name="a" unicode="a" horiz-adv-x="497" 
d="M46 132c0 100 79 151 214 151c39 0 70 -3 89 -5v15c0 91 -34 133 -114 133c-77 0 -122 -36 -145 -61l-38 57c28 30 87 77 192 77c131 0 188 -74 188 -207v-292h-79v54h-2c-14 -19 -52 -66 -152 -66c-103 0 -153 59 -153 144zM129 137c0 -48 30 -77 88 -77
c80 0 116 39 132 58v95c-19 2 -46 3 -83 3c-91 0 -137 -27 -137 -79z" />
    <glyph glyph-name="aacute" unicode="&#xe1;" horiz-adv-x="497" 
d="M413 685v-2l-129 -137h-82l106 139h105zM46 132c0 100 79 151 214 151c39 0 70 -3 89 -5v15c0 91 -34 133 -114 133c-77 0 -122 -36 -145 -61l-38 57c28 30 87 77 192 77c131 0 188 -74 188 -207v-292h-79v54h-2c-14 -19 -52 -66 -152 -66c-103 0 -153 59 -153 144z
M129 137c0 -48 30 -77 88 -77c80 0 116 39 132 58v95c-19 2 -46 3 -83 3c-91 0 -137 -27 -137 -79z" />
    <glyph glyph-name="acircumflex" unicode="&#xe2;" horiz-adv-x="497" 
d="M388 545h-68l-76 88h-1l-76 -88h-68l95 141h99zM46 132c0 100 79 151 214 151c39 0 70 -3 89 -5v15c0 91 -34 133 -114 133c-77 0 -122 -36 -145 -61l-38 57c28 30 87 77 192 77c131 0 188 -74 188 -207v-292h-79v54h-2c-14 -19 -52 -66 -152 -66
c-103 0 -153 59 -153 144zM129 137c0 -48 30 -77 88 -77c80 0 116 39 132 58v95c-19 2 -46 3 -83 3c-91 0 -137 -27 -137 -79z" />
    <glyph glyph-name="adieresis" unicode="&#xe4;" horiz-adv-x="497" 
d="M205 661v-91h-82v91h82zM362 661v-91h-81v91h81zM46 132c0 100 79 151 214 151c39 0 70 -3 89 -5v15c0 91 -34 133 -114 133c-77 0 -122 -36 -145 -61l-38 57c28 30 87 77 192 77c131 0 188 -74 188 -207v-292h-79v54h-2c-14 -19 -52 -66 -152 -66
c-103 0 -153 59 -153 144zM129 137c0 -48 30 -77 88 -77c80 0 116 39 132 58v95c-19 2 -46 3 -83 3c-91 0 -137 -27 -137 -79z" />
    <glyph glyph-name="ae" unicode="&#xe6;" horiz-adv-x="811" 
d="M46 132c0 99 79 151 215 151c36 0 69 -2 88 -4v13c0 91 -35 134 -118 134c-74 0 -117 -35 -140 -60l-38 56c28 31 86 77 189 77c82 0 133 -32 158 -91c39 59 102 91 177 91c130 0 196 -78 196 -235v-46h-340c8 -103 61 -154 161 -154c86 0 130 36 145 51l32 -63
c-21 -20 -74 -64 -187 -64c-80 0 -144 25 -185 79c-27 -31 -83 -79 -189 -79c-109 0 -164 59 -164 144zM574 426c-74 0 -132 -52 -141 -139h260c-1 89 -38 139 -119 139zM129 137c0 -48 32 -76 95 -76c83 0 125 38 145 62c-10 26 -16 57 -19 92c-26 1 -55 1 -83 1
c-93 0 -138 -27 -138 -79z" />
    <glyph glyph-name="agrave" unicode="&#xe0;" horiz-adv-x="497" 
d="M284 546h-81l-129 137v2h105zM46 132c0 100 79 151 214 151c39 0 70 -3 89 -5v15c0 91 -34 133 -114 133c-77 0 -122 -36 -145 -61l-38 57c28 30 87 77 192 77c131 0 188 -74 188 -207v-292h-79v54h-2c-14 -19 -52 -66 -152 -66c-103 0 -153 59 -153 144zM129 137
c0 -48 30 -77 88 -77c80 0 116 39 132 58v95c-19 2 -46 3 -83 3c-91 0 -137 -27 -137 -79z" />
    <glyph glyph-name="aring" unicode="&#xe5;" horiz-adv-x="497" 
d="M336 626c0 -52 -38 -85 -93 -85s-93 33 -93 85c0 51 38 84 93 84s93 -33 93 -84zM288 626c0 25 -17 41 -45 41s-45 -16 -45 -41s17 -41 45 -41s45 16 45 41zM46 132c0 100 79 151 214 151c39 0 70 -3 89 -5v15c0 91 -34 133 -114 133c-77 0 -122 -36 -145 -61l-38 57
c28 30 87 77 192 77c131 0 188 -74 188 -207v-292h-79v54h-2c-14 -19 -52 -66 -152 -66c-103 0 -153 59 -153 144zM129 137c0 -48 30 -77 88 -77c80 0 116 39 132 58v95c-19 2 -46 3 -83 3c-91 0 -137 -27 -137 -79z" />
    <glyph glyph-name="atilde" unicode="&#xe3;" horiz-adv-x="497" 
d="M395 662c0 -71 -25 -113 -80 -113c-64 0 -97 61 -141 61c-26 0 -35 -21 -37 -53h-47c0 72 25 114 80 114c64 0 97 -61 141 -61c26 0 35 20 37 52h47zM46 132c0 100 79 151 214 151c39 0 70 -3 89 -5v15c0 91 -34 133 -114 133c-77 0 -122 -36 -145 -61l-38 57
c28 30 87 77 192 77c131 0 188 -74 188 -207v-292h-79v54h-2c-14 -19 -52 -66 -152 -66c-103 0 -153 59 -153 144zM129 137c0 -48 30 -77 88 -77c80 0 116 39 132 58v95c-19 2 -46 3 -83 3c-91 0 -137 -27 -137 -79z" />
    <glyph glyph-name="b" unicode="b" horiz-adv-x="547" 
d="M508 252c0 -172 -88 -264 -211 -264c-92 0 -129 43 -146 67h-2v-55h-80v710h83v-266h2c19 18 63 55 152 55c117 0 202 -82 202 -247zM424 246c0 121 -54 179 -140 179c-68 0 -112 -37 -132 -62v-237c22 -27 60 -62 127 -62c85 0 145 58 145 182z" />
    <glyph glyph-name="c" unicode="c" horiz-adv-x="459" 
d="M438 454l-32 -65c-22 17 -54 36 -112 36c-92 0 -173 -53 -173 -178c0 -129 67 -183 162 -183c66 0 105 20 125 35l26 -68c-26 -17 -74 -43 -161 -43c-140 0 -236 77 -236 256c0 177 123 255 250 255c84 0 124 -24 151 -45z" />
    <glyph glyph-name="ccedilla" unicode="&#xe7;" horiz-adv-x="459" 
d="M368 -126c0 -49 -36 -82 -115 -82c-38 0 -62 8 -76 15v44c12 -6 34 -12 63 -12c42 0 61 13 61 36c0 27 -27 41 -91 41l-4 4l38 69c-124 10 -207 89 -207 255c0 177 123 255 250 255c84 0 124 -24 151 -45l-32 -65c-22 17 -54 36 -112 36c-92 0 -173 -53 -173 -178
c0 -129 67 -183 162 -183c66 0 105 20 125 35l26 -68c-23 -15 -65 -38 -136 -42l-22 -43c60 -4 92 -30 92 -72z" />
    <glyph glyph-name="d" unicode="d" horiz-adv-x="552" 
d="M483 710v-710h-79v55h-2c-15 -19 -51 -67 -154 -67c-118 0 -208 81 -208 256c0 167 101 255 217 255c89 0 127 -40 141 -56h2v267h83zM125 247c0 -130 63 -183 145 -183c79 0 112 38 130 60v238c-18 24 -52 63 -127 63c-82 0 -148 -56 -148 -178z" />
    <glyph glyph-name="eth" unicode="&#xf0;" horiz-adv-x="548" 
d="M509 266c0 -180 -97 -278 -241 -278c-130 0 -228 82 -228 252c0 175 112 254 225 254c82 0 121 -42 136 -65h3c-26 75 -71 125 -126 160l-152 -70l-22 43l120 55c-38 16 -79 27 -121 34l22 71c67 -12 131 -32 187 -64l139 64l22 -43l-115 -53c91 -71 151 -184 151 -360z
M425 243c0 125 -65 177 -149 177c-85 0 -152 -49 -152 -176c0 -125 65 -180 152 -180c84 0 149 57 149 179z" />
    <glyph glyph-name="e" unicode="e" horiz-adv-x="498" 
d="M37 245c0 165 98 254 224 254c128 0 199 -77 199 -234v-47h-339c9 -102 62 -154 160 -154c82 0 131 38 146 52l32 -62c-22 -21 -79 -66 -192 -66c-137 0 -230 80 -230 257zM259 426c-75 0 -131 -47 -138 -138h259c-1 89 -41 138 -121 138z" />
    <glyph glyph-name="eacute" unicode="&#xe9;" horiz-adv-x="498" 
d="M428 685v-2l-129 -137h-82l106 139h105zM37 245c0 165 98 254 224 254c128 0 199 -77 199 -234v-47h-339c9 -102 62 -154 160 -154c82 0 131 38 146 52l32 -62c-22 -21 -79 -66 -192 -66c-137 0 -230 80 -230 257zM259 426c-75 0 -131 -47 -138 -138h259
c-1 89 -41 138 -121 138z" />
    <glyph glyph-name="ecircumflex" unicode="&#xea;" horiz-adv-x="498" 
d="M403 545h-68l-76 88h-1l-76 -88h-68l95 141h99zM37 245c0 165 98 254 224 254c128 0 199 -77 199 -234v-47h-339c9 -102 62 -154 160 -154c82 0 131 38 146 52l32 -62c-22 -21 -79 -66 -192 -66c-137 0 -230 80 -230 257zM259 426c-75 0 -131 -47 -138 -138h259
c-1 89 -41 138 -121 138z" />
    <glyph glyph-name="edieresis" unicode="&#xeb;" horiz-adv-x="498" 
d="M220 661v-91h-82v91h82zM377 661v-91h-81v91h81zM37 245c0 165 98 254 224 254c128 0 199 -77 199 -234v-47h-339c9 -102 62 -154 160 -154c82 0 131 38 146 52l32 -62c-22 -21 -79 -66 -192 -66c-137 0 -230 80 -230 257zM259 426c-75 0 -131 -47 -138 -138h259
c-1 89 -41 138 -121 138z" />
    <glyph glyph-name="egrave" unicode="&#xe8;" horiz-adv-x="498" 
d="M298 546h-81l-129 137v2h105zM37 245c0 165 98 254 224 254c128 0 199 -77 199 -234v-47h-339c9 -102 62 -154 160 -154c82 0 131 38 146 52l32 -62c-22 -21 -79 -66 -192 -66c-137 0 -230 80 -230 257zM259 426c-75 0 -131 -47 -138 -138h259c-1 89 -41 138 -121 138z
" />
    <glyph glyph-name="f" unicode="f" horiz-adv-x="328" 
d="M312 487v-70h-128v-417h-83v417h-68v70h68v58c0 120 70 171 159 171c29 0 45 -6 52 -8v-72c-6 2 -19 7 -40 7c-52 0 -88 -23 -88 -99v-57h128z" />
    <glyph glyph-name="g" unicode="g" horiz-adv-x="550" 
d="M484 487v-445c0 -172 -75 -254 -247 -254c-111 0 -163 47 -189 72l35 70c18 -19 66 -68 155 -68c121 0 163 53 163 164v19h-2c-15 -18 -52 -57 -152 -57c-116 0 -207 78 -207 253c0 178 105 258 215 258c95 0 131 -46 148 -67h2v55h79zM125 244c0 -127 62 -180 145 -180
c76 0 112 39 131 62v236c-19 24 -53 63 -125 63c-82 0 -151 -53 -151 -181z" />
    <glyph glyph-name="h" unicode="h" horiz-adv-x="556" 
d="M152 710v-272h2c21 21 69 61 158 61c108 0 177 -61 177 -201v-298h-83v282c0 103 -38 144 -120 144c-65 0 -111 -37 -134 -62v-364h-83v710h83z" />
    <glyph glyph-name="i" unicode="i" horiz-adv-x="229" 
d="M157 668v-97h-85v97h85zM156 487v-487h-83v487h83z" />
    <glyph glyph-name="i.dot" horiz-adv-x="229" 
d="M157 668v-97h-85v97h85zM156 487v-487h-83v487h83z" />
    <glyph glyph-name="iacute" unicode="&#xed;" horiz-adv-x="229" 
d="M284 685v-2l-129 -137h-82l106 139h105zM156 487v-487h-83v487h83z" />
    <glyph glyph-name="icircumflex" unicode="&#xee;" horiz-adv-x="229" 
d="M259 545h-68l-76 88h-1l-76 -88h-68l95 141h99zM156 487v-487h-83v487h83z" />
    <glyph glyph-name="idieresis" unicode="&#xef;" horiz-adv-x="229" 
d="M77 661v-91h-82v91h82zM234 661v-91h-81v91h81zM156 487v-487h-83v487h83z" />
    <glyph glyph-name="igrave" unicode="&#xec;" horiz-adv-x="229" 
d="M155 546h-81l-129 137v2h105zM156 487v-487h-83v487h83z" />
    <glyph glyph-name="j" unicode="j" horiz-adv-x="235" 
d="M163 668v-97h-85v97h85zM162 487v-536c0 -117 -57 -158 -147 -158c-29 0 -45 5 -52 8v72c7 -2 21 -7 42 -7c50 0 74 24 74 94v527h83z" />
    <glyph glyph-name="k" unicode="k" horiz-adv-x="506" 
d="M494 0h-107l-173 221h-62v-221h-83v710h83v-416h69l154 193h100l-187 -230z" />
    <glyph glyph-name="l" unicode="l" horiz-adv-x="229" 
d="M156 710v-710h-83v710h83z" />
    <glyph glyph-name="m" unicode="m" horiz-adv-x="868" 
d="M146 487v-55h2c21 26 71 67 155 67c66 0 117 -23 146 -75c26 29 82 75 175 75c111 0 178 -59 178 -200v-299h-83v283c0 101 -42 142 -119 142c-61 0 -104 -32 -130 -59c4 -20 6 -42 6 -67v-299h-83v283c0 101 -43 142 -117 142c-62 0 -104 -37 -127 -62v-363h-83v487h80z
" />
    <glyph glyph-name="n" unicode="n" horiz-adv-x="553" 
d="M146 487v-55h2c20 23 68 67 162 67c110 0 176 -60 176 -200v-299h-83v283c0 101 -40 142 -120 142c-65 0 -111 -37 -134 -62v-363h-83v487h80z" />
    <glyph glyph-name="ntilde" unicode="&#xf1;" horiz-adv-x="553" 
d="M431 662c0 -71 -25 -113 -80 -113c-64 0 -97 61 -141 61c-26 0 -35 -21 -37 -53h-47c0 72 25 114 80 114c64 0 97 -61 141 -61c26 0 35 20 37 52h47zM146 487v-55h2c20 23 68 67 162 67c110 0 176 -60 176 -200v-299h-83v283c0 101 -40 142 -120 142
c-65 0 -111 -37 -134 -62v-363h-83v487h80z" />
    <glyph glyph-name="o" unicode="o" horiz-adv-x="543" 
d="M506 244c0 -175 -108 -256 -235 -256c-126 0 -234 81 -234 256c0 174 108 255 234 255c127 0 235 -81 235 -255zM422 244c0 122 -65 181 -151 181c-85 0 -150 -59 -150 -181c0 -123 64 -180 150 -180c87 0 151 57 151 180z" />
    <glyph glyph-name="oacute" unicode="&#xf3;" horiz-adv-x="543" 
d="M441 685v-2l-129 -137h-82l106 139h105zM506 244c0 -175 -108 -256 -235 -256c-126 0 -234 81 -234 256c0 174 108 255 234 255c127 0 235 -81 235 -255zM422 244c0 122 -65 181 -151 181c-85 0 -150 -59 -150 -181c0 -123 64 -180 150 -180c87 0 151 57 151 180z" />
    <glyph glyph-name="ocircumflex" unicode="&#xf4;" horiz-adv-x="543" 
d="M416 545h-68l-76 88h-1l-76 -88h-68l95 141h99zM506 244c0 -175 -108 -256 -235 -256c-126 0 -234 81 -234 256c0 174 108 255 234 255c127 0 235 -81 235 -255zM422 244c0 122 -65 181 -151 181c-85 0 -150 -59 -150 -181c0 -123 64 -180 150 -180c87 0 151 57 151 180z
" />
    <glyph glyph-name="odieresis" unicode="&#xf6;" horiz-adv-x="543" 
d="M234 661v-91h-82v91h82zM391 661v-91h-81v91h81zM506 244c0 -175 -108 -256 -235 -256c-126 0 -234 81 -234 256c0 174 108 255 234 255c127 0 235 -81 235 -255zM422 244c0 122 -65 181 -151 181c-85 0 -150 -59 -150 -181c0 -123 64 -180 150 -180c87 0 151 57 151 180
z" />
    <glyph glyph-name="oe" unicode="&#x153;" horiz-adv-x="884" 
d="M37 244c0 174 108 255 233 255c87 0 155 -40 191 -119h2c34 75 99 119 187 119c127 0 195 -80 195 -241v-40h-339c7 -103 60 -154 160 -154c86 0 130 36 146 51l31 -62c-21 -20 -73 -65 -182 -65c-99 0 -164 39 -198 118h-2c-37 -78 -105 -118 -191 -118
c-125 0 -233 81 -233 256zM645 426c-74 0 -130 -51 -139 -138h260c-2 88 -39 138 -121 138zM422 244c0 122 -65 181 -151 181c-85 0 -150 -59 -150 -181c0 -123 64 -180 150 -180c87 0 151 57 151 180z" />
    <glyph glyph-name="ograve" unicode="&#xf2;" horiz-adv-x="543" 
d="M312 546h-81l-129 137v2h105zM506 244c0 -175 -108 -256 -235 -256c-126 0 -234 81 -234 256c0 174 108 255 234 255c127 0 235 -81 235 -255zM422 244c0 122 -65 181 -151 181c-85 0 -150 -59 -150 -181c0 -123 64 -180 150 -180c87 0 151 57 151 180z" />
    <glyph glyph-name="oslash" unicode="&#xf8;" horiz-adv-x="543" 
d="M506 244c0 -175 -108 -256 -235 -256c-50 0 -96 13 -135 38l-29 -38h-61l53 70c-38 42 -62 104 -62 186c0 174 108 255 234 255c50 0 98 -13 136 -39l30 39h60l-53 -70c38 -42 62 -103 62 -185zM121 244c0 -51 11 -90 30 -119l209 273c-25 18 -55 27 -89 27
c-85 0 -150 -59 -150 -181zM422 244c0 50 -11 89 -29 118l-209 -273c25 -17 54 -25 87 -25c87 0 151 57 151 180z" />
    <glyph glyph-name="otilde" unicode="&#xf5;" horiz-adv-x="543" 
d="M424 662c0 -71 -25 -113 -80 -113c-64 0 -97 61 -141 61c-26 0 -35 -21 -37 -53h-47c0 72 25 114 80 114c64 0 97 -61 141 -61c26 0 35 20 37 52h47zM506 244c0 -175 -108 -256 -235 -256c-126 0 -234 81 -234 256c0 174 108 255 234 255c127 0 235 -81 235 -255z
M422 244c0 122 -65 181 -151 181c-85 0 -150 -59 -150 -181c0 -123 64 -180 150 -180c87 0 151 57 151 180z" />
    <glyph glyph-name="p" unicode="p" horiz-adv-x="546" 
d="M506 252c0 -177 -93 -264 -215 -264c-88 0 -123 37 -140 55h-2v-243h-83v687h80v-55h2c19 23 64 67 158 67c117 0 200 -86 200 -247zM421 247c0 117 -53 178 -141 178c-69 0 -111 -38 -131 -63v-235c19 -25 56 -63 126 -63c91 0 146 58 146 183z" />
    <glyph glyph-name="thorn" unicode="&#xfe;" horiz-adv-x="549" 
d="M509 252c0 -177 -92 -264 -217 -264c-88 0 -121 36 -138 55h-2v-243h-83v910h83v-272h2c20 21 65 61 154 61c117 0 201 -79 201 -247zM424 247c0 119 -53 178 -141 178c-69 0 -111 -38 -131 -63v-235c19 -25 56 -63 126 -63c92 0 146 59 146 183z" />
    <glyph glyph-name="q" unicode="q" horiz-adv-x="549" 
d="M483 487v-687h-83v241h-2c-18 -17 -53 -53 -152 -53c-119 0 -206 86 -206 254c0 172 103 257 219 257c94 0 126 -45 143 -67h2v55h79zM125 246c0 -126 62 -182 144 -182c76 0 111 36 131 61v238c-20 24 -53 62 -126 62c-82 0 -149 -57 -149 -179z" />
    <glyph glyph-name="r" unicode="r" horiz-adv-x="319" 
d="M305 496v-75h-20c-70 0 -113 -36 -136 -86v-335h-83v487h80v-77h2c19 43 54 86 157 86z" />
    <glyph glyph-name="s" unicode="s" horiz-adv-x="426" 
d="M372 453l-30 -68c-25 16 -66 41 -128 41c-57 0 -90 -20 -90 -54c0 -38 23 -57 117 -88c94 -32 144 -73 144 -150c0 -88 -62 -146 -176 -146c-97 0 -148 34 -173 54l32 73c22 -19 67 -52 140 -52c64 0 95 26 95 63c0 38 -20 60 -112 92c-93 33 -146 67 -146 150
c0 82 67 131 168 131c87 0 134 -30 159 -46z" />
    <glyph glyph-name="germandbls" unicode="&#xdf;" horiz-adv-x="603" 
d="M578 131c0 -83 -64 -143 -181 -143c-89 0 -135 33 -160 52l31 74c23 -20 65 -51 131 -51c65 0 95 28 95 65c0 41 -22 62 -105 93c-83 32 -123 67 -123 137c0 100 116 132 116 214c0 44 -38 79 -100 79c-69 0 -130 -42 -130 -145v-506h-83v510c0 151 104 212 215 212
c107 0 179 -59 179 -148c0 -112 -113 -143 -113 -205c0 -36 15 -55 98 -82c82 -28 130 -74 130 -156z" />
    <glyph glyph-name="t" unicode="t" horiz-adv-x="340" 
d="M310 487v-70h-130v-249c0 -84 29 -102 84 -102c23 0 38 5 46 8v-72c-8 -3 -30 -10 -63 -10c-85 0 -150 33 -150 167v258h-68v70h68v109h83v-109h130z" />
    <glyph glyph-name="u" unicode="u" horiz-adv-x="550" 
d="M484 487v-487h-79v55h-2c-17 -20 -57 -67 -161 -67c-111 0 -176 59 -176 200v299h83v-282c0 -103 37 -141 120 -141c69 0 110 38 132 61v362h83z" />
    <glyph glyph-name="uacute" unicode="&#xfa;" horiz-adv-x="550" 
d="M445 685v-2l-129 -137h-82l106 139h105zM484 487v-487h-79v55h-2c-17 -20 -57 -67 -161 -67c-111 0 -176 59 -176 200v299h83v-282c0 -103 37 -141 120 -141c69 0 110 38 132 61v362h83z" />
    <glyph glyph-name="ucircumflex" unicode="&#xfb;" horiz-adv-x="550" 
d="M420 545h-68l-76 88h-1l-76 -88h-68l95 141h99zM484 487v-487h-79v55h-2c-17 -20 -57 -67 -161 -67c-111 0 -176 59 -176 200v299h83v-282c0 -103 37 -141 120 -141c69 0 110 38 132 61v362h83z" />
    <glyph glyph-name="udieresis" unicode="&#xfc;" horiz-adv-x="550" 
d="M237 661v-91h-82v91h82zM394 661v-91h-81v91h81zM484 487v-487h-79v55h-2c-17 -20 -57 -67 -161 -67c-111 0 -176 59 -176 200v299h83v-282c0 -103 37 -141 120 -141c69 0 110 38 132 61v362h83z" />
    <glyph glyph-name="ugrave" unicode="&#xf9;" horiz-adv-x="550" 
d="M315 546h-81l-129 137v2h105zM484 487v-487h-79v55h-2c-17 -20 -57 -67 -161 -67c-111 0 -176 59 -176 200v299h83v-282c0 -103 37 -141 120 -141c69 0 110 38 132 61v362h83z" />
    <glyph glyph-name="v" unicode="v" horiz-adv-x="489" 
d="M478 487l-199 -487h-69l-199 487h91l143 -376h2l143 376h88z" />
    <glyph glyph-name="w" unicode="w" horiz-adv-x="737" 
d="M716 487l-132 -487h-78l-137 373h-2l-136 -373h-78l-132 487h86l90 -362h1l132 362h77l132 -362h1l90 362h86z" />
    <glyph glyph-name="x" unicode="x" horiz-adv-x="477" 
d="M450 487l-163 -238l172 -249h-100l-124 186h-2l-120 -186h-95l172 252l-162 235h100l113 -172h2l112 172h95z" />
    <glyph glyph-name="y" unicode="y" horiz-adv-x="491" 
d="M480 487l-182 -459c-72 -179 -120 -234 -279 -234v77c111 0 152 45 192 147l-197 469h91l148 -376h2l138 376h87z" />
    <glyph glyph-name="yacute" unicode="&#xfd;" horiz-adv-x="491" 
d="M420 685v-2l-129 -137h-82l106 139h105zM480 487l-182 -459c-72 -179 -120 -234 -279 -234v77c111 0 152 45 192 147l-197 469h91l148 -376h2l138 376h87z" />
    <glyph glyph-name="ydieresis" unicode="&#xff;" horiz-adv-x="491" 
d="M212 661v-91h-82v91h82zM369 661v-91h-81v91h81zM480 487l-182 -459c-72 -179 -120 -234 -279 -234v77c111 0 152 45 192 147l-197 469h91l148 -376h2l138 376h87z" />
    <glyph glyph-name="z" unicode="z" horiz-adv-x="471" 
d="M432 487v-56l-269 -354v-2h280v-75h-403v56l275 357v2h-262v72h379z" />
    <glyph glyph-name="acute" unicode="&#xb4;" horiz-adv-x="286" 
d="M253 685v-2l-129 -137h-82l106 139h105z" />
    <glyph glyph-name="cedilla" unicode="&#xb8;" horiz-adv-x="284" 
d="M239 -126c0 -49 -36 -82 -115 -82c-38 0 -62 8 -76 15v44c12 -6 34 -12 63 -12c42 0 61 13 61 36c0 27 -27 41 -91 41l-4 4l48 87h53l-31 -61c60 -4 92 -30 92 -72z" />
    <glyph glyph-name="dieresis" unicode="&#xa8;" horiz-adv-x="325" 
d="M125 661v-91h-82v91h82zM282 661v-91h-81v91h81z" />
    <glyph glyph-name="grave" unicode="`" horiz-adv-x="286" 
d="M243 546h-81l-129 137v2h105z" />
    <glyph glyph-name="macron" unicode="&#xaf;" horiz-adv-x="333" 
d="M317 634v-63h-301v63h301z" />
    <glyph glyph-name="tilde" unicode="&#x2dc;" horiz-adv-x="400" 
d="M352 662c0 -71 -25 -113 -80 -113c-64 0 -97 61 -141 61c-26 0 -35 -21 -37 -53h-47c0 72 25 114 80 114c64 0 97 -61 141 -61c26 0 35 20 37 52h47z" />
    <glyph glyph-name="bar" unicode="|" horiz-adv-x="255" 
d="M162 710v-830h-69v830h69z" />
    <glyph glyph-name="brokenbar" unicode="&#xa6;" horiz-adv-x="255" 
d="M162 710v-367h-69v367h69zM162 247v-367h-69v367h69z" />
    <glyph glyph-name="slash" unicode="/" horiz-adv-x="404" 
d="M396 710l-338 -830h-73l337 830h74z" />
    <glyph glyph-name="backslash" unicode="\" horiz-adv-x="404" 
d="M7 710h74l337 -830h-73z" />
    <glyph glyph-name="comma" unicode="," horiz-adv-x="221" 
d="M157 105v-82c0 -131 -46 -166 -128 -166v39c46 2 70 28 70 104h-35v105h93z" />
    <glyph glyph-name="period" unicode="." horiz-adv-x="221" 
d="M157 105v-105h-93v105h93z" />
    <glyph glyph-name="semicolon" unicode=";" horiz-adv-x="222" 
d="M158 487v-105h-93v105h93zM157 105v-82c0 -131 -46 -166 -128 -166v39c46 2 70 28 70 104h-35v105h93z" />
    <glyph glyph-name="colon" unicode=":" horiz-adv-x="221" 
d="M157 487v-105h-93v105h93zM157 105v-105h-93v105h93z" />
    <glyph glyph-name="periodcentered" unicode="&#xb7;" horiz-adv-x="221" 
d="M157 364v-105h-93v105h93z" />
    <glyph glyph-name="ellipsis" unicode="&#x2026;" horiz-adv-x="835" 
d="M190 105v-105h-93v105h93zM464 105v-105h-93v105h93zM738 105v-105h-94v105h94z" />
    <glyph glyph-name="exclam" unicode="!" horiz-adv-x="260" 
d="M186 690l-10 -517h-75l-10 517h95zM185 105v-105h-93v105h93z" />
    <glyph glyph-name="exclamdown" unicode="&#xa1;" horiz-adv-x="260" 
d="M75 382v105h93v-105h-93zM74 -203l10 517h75l10 -517h-95z" />
    <glyph glyph-name="question" unicode="?" horiz-adv-x="398" 
d="M385 557c0 -160 -193 -173 -193 -276c0 -50 27 -84 45 -106v-2h-86c-18 22 -42 55 -42 116c0 123 191 149 191 258c0 52 -33 79 -97 79c-77 0 -129 -36 -153 -54l-31 66c28 22 94 64 201 64c105 0 165 -51 165 -145zM242 105v-105h-93v105h93z" />
    <glyph glyph-name="questiondown" unicode="&#xbf;" horiz-adv-x="383" 
d="M156 382v105h93v-105h-93zM13 -70c0 160 193 173 193 276c0 50 -27 84 -45 106v2h86c18 -22 42 -55 42 -116c0 -123 -191 -149 -191 -258c0 -52 33 -79 97 -79c77 0 129 36 153 54l31 -66c-28 -22 -94 -64 -201 -64c-105 0 -165 51 -165 145z" />
    <glyph glyph-name="ampersand" unicode="&#x26;" horiz-adv-x="612" 
d="M50 156c0 115 92 171 176 206c-32 53 -51 102 -51 167c0 107 80 173 185 173c103 0 160 -62 160 -156c0 -114 -81 -172 -179 -214c11 -15 24 -31 37 -49l212 -283h-105l-190 261c-10 15 -20 28 -30 42c-67 -29 -130 -64 -130 -139c0 -65 38 -100 112 -101
c52 0 87 12 103 19l13 -72c-20 -9 -60 -22 -121 -22c-119 0 -192 50 -192 168zM258 528c0 -48 15 -90 44 -137c84 36 137 72 137 148c0 53 -29 88 -84 88c-58 0 -97 -37 -97 -99z" />
    <glyph glyph-name="at" unicode="@" horiz-adv-x="680" 
d="M231 132c0 101 80 151 213 151c44 0 73 -3 87 -5v5c0 99 -52 144 -152 144c-144 0 -248 -83 -248 -283c0 -193 99 -284 265 -284c104 0 162 29 187 43l17 -67c-26 -16 -88 -48 -212 -48c-199 0 -336 109 -336 356c0 245 149 355 326 355c159 0 236 -82 236 -227v-272h-80
v54h-2c-14 -20 -49 -66 -149 -66c-99 0 -152 55 -152 144zM315 136c0 -48 30 -75 87 -75c77 0 113 38 129 57v95c-17 2 -41 3 -81 3c-90 0 -135 -26 -135 -80z" />
    <glyph glyph-name="asterisk" unicode="*" horiz-adv-x="418" 
d="M54 624l131 -82l-6 155h60l-6 -155l131 82l30 -51l-137 -72l137 -73l-30 -51l-131 82l6 -154h-60l5 154l-130 -82l-30 51l136 73l-136 72z" />
    <glyph glyph-name="section" unicode="&#xa7;" horiz-adv-x="516" 
d="M42 329c0 66 42 109 94 134c-27 26 -40 58 -40 100c0 88 73 139 170 139c76 0 113 -24 142 -41l-25 -67c-24 14 -59 36 -116 36c-56 0 -90 -21 -90 -61c0 -46 23 -68 131 -106c109 -37 165 -84 165 -162c0 -67 -40 -111 -89 -136c28 -28 41 -62 41 -105
c0 -90 -78 -144 -180 -144c-86 0 -135 32 -159 49l27 70c21 -15 64 -46 131 -46c61 0 98 24 98 66c0 46 -23 71 -133 110c-110 38 -167 83 -167 164zM264 231c23 -8 43 -16 61 -26c39 15 66 42 66 79c0 49 -28 73 -137 113c-23 8 -43 17 -60 26c-41 -16 -69 -44 -69 -80
c0 -49 28 -72 139 -112z" />
    <glyph glyph-name="paragraph" unicode="&#xb6;" horiz-adv-x="560" 
d="M483 690v-690h-66v690h66zM349 690v-690h-67v345h-53c-113 0 -197 57 -197 172s87 173 205 173h112z" />
    <glyph glyph-name="copyright" unicode="&#xa9;" horiz-adv-x="788" 
d="M745 345c0 -218 -143 -357 -351 -357c-209 0 -351 139 -351 357s142 357 351 357c208 0 351 -139 351 -357zM681 345c0 178 -113 296 -287 296s-287 -118 -287 -296s113 -296 287 -296s287 118 287 296zM200 347c0 141 103 206 210 206c81 0 117 -28 134 -42l-26 -55
c-15 12 -43 33 -102 33c-79 0 -144 -45 -144 -142c0 -98 60 -141 140 -141c59 0 90 19 106 31l22 -53c-19 -15 -56 -42 -135 -42c-111 0 -205 61 -205 205z" />
    <glyph glyph-name="registered" unicode="&#xae;" horiz-adv-x="517" 
d="M483 474c0 -140 -94 -222 -225 -222c-130 0 -224 82 -224 222s94 222 224 222c131 0 225 -82 225 -222zM435 474c0 116 -72 177 -177 177c-104 0 -176 -61 -176 -177s72 -177 176 -177c105 0 177 61 177 177zM364 369h-53l-45 76h-13h-33v-76h-44v224h78
c67 0 100 -25 100 -73c0 -31 -15 -54 -45 -66zM309 519c0 23 -16 36 -57 36h-32v-74h31c41 0 58 14 58 38z" />
    <glyph glyph-name="trademark" unicode="&#x2122;" horiz-adv-x="942" 
d="M386 690v-59h-150v-355h-68v355h-150v59h368zM884 690v-414h-66v286h-2l-125 -286h-57l-126 286h-2v-286h-67v414h79l144 -324h1l143 324h78z" />
    <glyph glyph-name="ordfeminine" unicode="&#xaa;" horiz-adv-x="350" 
d="M38 456c0 65 53 100 143 100c22 0 42 -2 50 -3v8c0 52 -20 76 -71 76c-46 0 -74 -22 -88 -36l-31 43c19 20 57 53 127 53c93 0 132 -50 132 -137v-189h-65v34h-2c-10 -13 -33 -42 -95 -42c-65 0 -100 37 -100 93zM106 463c0 -27 18 -44 51 -44c45 0 65 22 74 33v55
c-14 1 -27 1 -46 1c-53 0 -79 -15 -79 -45z" />
    <glyph glyph-name="ordmasculine" unicode="&#xba;" horiz-adv-x="376" 
d="M345 528c0 -114 -73 -166 -157 -166c-83 0 -157 52 -157 166c0 115 74 168 157 168c84 0 157 -53 157 -168zM274 528c0 73 -37 107 -86 107c-48 0 -85 -34 -85 -107c0 -72 37 -105 85 -105c50 0 86 33 86 105z" />
    <glyph glyph-name="bullet" unicode="&#x2022;" horiz-adv-x="336" 
d="M290 300c0 -76 -49 -125 -122 -125s-121 49 -121 125s48 126 121 126s122 -50 122 -126z" />
    <glyph glyph-name="quoteleft" unicode="&#x2018;" horiz-adv-x="195" 
d="M48 474v74c0 124 47 148 120 148v-38c-44 -3 -65 -19 -65 -88h32v-96h-87z" />
    <glyph glyph-name="quoteright" unicode="&#x2019;" horiz-adv-x="195" 
d="M147 690v-74c0 -124 -47 -148 -120 -148v38c44 3 65 19 65 88h-32v96h87z" />
    <glyph glyph-name="quotedblbase" unicode="&#x201e;" horiz-adv-x="347" 
d="M148 96v-74c0 -124 -47 -148 -120 -148v38c44 3 65 19 65 88h-32v96h87zM300 96v-74c0 -124 -47 -148 -120 -148v38c44 3 65 19 65 88h-32v96h87z" />
    <glyph glyph-name="quotedblleft" unicode="&#x201c;" horiz-adv-x="347" 
d="M48 474v74c0 124 47 148 120 148v-38c-44 -3 -65 -19 -65 -88h32v-96h-87zM200 474v74c0 124 47 148 120 148v-38c-44 -3 -65 -19 -65 -88h32v-96h-87z" />
    <glyph glyph-name="quotedblright" unicode="&#x201d;" horiz-adv-x="347" 
d="M147 690v-74c0 -124 -47 -148 -120 -148v38c44 3 65 19 65 88h-32v96h87zM299 690v-74c0 -124 -47 -148 -120 -148v38c44 3 65 19 65 88h-32v96h87z" />
    <glyph glyph-name="quotesingle" unicode="'" horiz-adv-x="221" 
d="M149 690l-14 -218h-61v218h75z" />
    <glyph glyph-name="quotedbl" unicode="&#x22;" horiz-adv-x="345" 
d="M146 690l-14 -218h-61v218h75zM274 690l-14 -218h-61v218h75z" />
    <glyph glyph-name="asciicircum" unicode="^" horiz-adv-x="486" 
d="M454 354h-80l-129 238h-2l-131 -238h-79l185 336h50z" />
    <glyph glyph-name="degree" unicode="&#xb0;" horiz-adv-x="372" 
d="M346 541c0 -96 -68 -162 -160 -162s-160 66 -160 162c0 95 68 161 160 161s160 -66 160 -161zM279 541c0 57 -38 94 -93 94s-92 -37 -92 -94c0 -58 37 -95 92 -95s93 37 93 95z" />
    <glyph glyph-name="numbersign" unicode="#" horiz-adv-x="630" 
d="M573 511v-57l-102 -4v-204h102v-57l-102 -4l-5 -185h-65v185h-173l-5 -185h-64v185h-102v58l102 3v204h-102v57l102 4l6 179h63v-179h173l6 179h64v-179h102zM401 450h-173v-204h173v204z" />
    <glyph glyph-name="percent" unicode="%" horiz-adv-x="760" 
d="M362 531c0 -114 -72 -172 -162 -172c-89 0 -162 58 -162 172c0 113 73 171 162 171c90 0 162 -58 162 -171zM689 690l-529 -690h-88l529 690h88zM293 531c0 74 -39 110 -93 110s-91 -36 -91 -110c0 -75 37 -111 91 -111s93 36 93 111zM723 159c0 -113 -72 -171 -162 -171
c-89 0 -162 58 -162 171c0 114 73 172 162 172c90 0 162 -58 162 -172zM654 159c0 75 -39 111 -93 111s-91 -36 -91 -111c0 -74 37 -109 91 -109s93 35 93 109z" />
    <glyph glyph-name="cent" unicode="&#xa2;" horiz-adv-x="460" 
d="M244 -105v94c-124 10 -207 89 -207 255c0 157 97 236 207 252v94h69v-92c67 -4 101 -25 125 -44l-32 -65c-22 17 -54 36 -112 36c-92 0 -173 -53 -173 -178c0 -129 67 -183 162 -183c66 0 105 20 125 35l26 -68c-22 -14 -59 -35 -121 -41v-95h-69z" />
    <glyph glyph-name="currency" unicode="&#xa4;" horiz-adv-x="543" 
d="M31 92l77 76c-22 32 -35 72 -35 116s13 84 35 116l-77 76l41 43l76 -76c33 26 76 41 123 41s90 -15 124 -41l75 76l42 -43l-77 -76c22 -33 35 -72 35 -116s-13 -83 -35 -116l77 -76l-42 -43l-76 77c-33 -26 -76 -41 -123 -41s-89 15 -122 41l-77 -77zM397 284
c0 74 -50 129 -126 129s-126 -55 -126 -129s50 -129 126 -129s126 55 126 129z" />
    <glyph glyph-name="dollar" unicode="$" horiz-adv-x="508" 
d="M226 -105v93c-108 5 -163 44 -194 67l31 71c23 -18 78 -63 179 -63c90 0 142 31 142 97c0 64 -46 93 -158 134c-113 41 -178 82 -178 186c0 94 70 154 178 164v94h70v-95c84 -7 130 -39 155 -57l-33 -68c-25 16 -70 52 -154 52c-81 0 -132 -26 -132 -83
c0 -73 44 -93 160 -132c117 -39 177 -91 177 -192c0 -94 -62 -157 -173 -172v-96h-70z" />
    <glyph glyph-name="Euro" unicode="&#x20ac;" horiz-adv-x="568" 
d="M105 344c0 12 0 24 1 36h-70v57h76c29 186 146 265 278 265c82 0 122 -28 144 -44l-28 -69c-19 15 -53 37 -116 37c-97 0 -171 -56 -193 -189h280v-57h-286c-1 -11 -1 -22 -1 -34c0 -11 0 -23 1 -33h286v-57h-281c20 -140 91 -191 189 -191c68 0 106 22 126 38l24 -67
c-23 -20 -64 -48 -158 -48c-140 0 -244 75 -267 268h-74v57h70c-1 10 -1 20 -1 31z" />
    <glyph glyph-name="sterling" unicode="&#xa3;" horiz-adv-x="513" 
d="M404 351v-72h-170c1 -7 1 -14 1 -22c0 -93 -37 -153 -70 -182h318v-75h-421v60c43 34 92 101 92 193c0 9 0 18 -1 26h-70v72h60c-11 54 -28 99 -28 177c0 120 91 174 190 174c83 0 130 -26 156 -42l-26 -71c-19 12 -61 37 -125 37c-61 0 -110 -30 -110 -102
s15 -119 26 -173h178z" />
    <glyph glyph-name="yen" unicode="&#xa5;" horiz-adv-x="579" 
d="M499 220v-57h-169v-163h-83v163h-168v57h168v70h-168v56h153l-200 344h96l162 -289h1l162 289h93l-201 -344h154v-56h-169v-70h169z" />
    <glyph glyph-name="mu" unicode="&#xb5;" horiz-adv-x="576" 
d="M235 -11c-35 0 -63 6 -86 18v-207h-83v687h83v-285c0 -97 33 -137 115 -137c74 0 113 39 134 63v359h83v-360c0 -50 15 -63 47 -63c15 0 23 3 26 3v-66c-4 -2 -22 -9 -50 -9c-46 0 -81 19 -97 62c-26 -28 -76 -65 -172 -65z" />
    <glyph glyph-name="plus" unicode="+" horiz-adv-x="548" 
d="M497 347v-69h-187v-185h-73v185h-187v69h187v183h73v-183h187z" />
    <glyph glyph-name="plusminus" unicode="&#xb1;" horiz-adv-x="548" 
d="M497 441v-69h-187v-178h-73v178h-187v69h187v178h73v-178h187zM498 149v-69h-447v69h447z" />
    <glyph glyph-name="divide" unicode="&#xf7;" horiz-adv-x="548" 
d="M317 457c0 -26 -17 -42 -43 -42c-25 0 -43 16 -43 42c0 25 18 40 43 40c26 0 43 -15 43 -40zM497 347v-69h-447v69h447zM317 167c0 -25 -17 -40 -43 -40c-25 0 -43 15 -43 40c0 27 18 42 43 42c26 0 43 -15 43 -42z" />
    <glyph glyph-name="equal" unicode="=" horiz-adv-x="548" 
d="M497 422v-65h-447v65h447zM497 268v-66h-447v66h447z" />
    <glyph glyph-name="multiply" unicode="&#xd7;" horiz-adv-x="548" 
d="M486 475l-162 -163l162 -163l-51 -49l-162 163l-161 -163l-51 50l161 162l-161 162l51 50l161 -163l162 163z" />
    <glyph glyph-name="asciitilde" unicode="~" horiz-adv-x="548" 
d="M499 378c-2 -78 -29 -146 -114 -146c-84 0 -156 83 -221 83c-48 0 -59 -35 -62 -71h-54c3 78 30 145 115 145c83 0 156 -83 221 -83c47 0 58 37 61 72h54z" />
    <glyph glyph-name="logicalnot" unicode="&#xac;" horiz-adv-x="548" 
d="M496 347v-192h-71v123h-374v69h445z" />
    <glyph glyph-name="less" unicode="&#x3c;" horiz-adv-x="548" 
d="M496 592v-76l-349 -210v-2l349 -210v-75l-444 263v47z" />
    <glyph glyph-name="greater" unicode="&#x3e;" horiz-adv-x="548" 
d="M52 19v76l349 210v2l-349 210v75l444 -263v-47z" />
    <glyph glyph-name="parenleft" unicode="(" horiz-adv-x="303" 
d="M60 295c0 248 98 368 141 415h76c-44 -46 -144 -167 -144 -415c0 -247 100 -369 144 -415h-76c-43 47 -141 167 -141 415z" />
    <glyph glyph-name="parenright" unicode=")" horiz-adv-x="303" 
d="M243 295c0 -248 -98 -368 -141 -415h-76c44 46 144 167 144 415c0 247 -100 369 -144 415h76c43 -47 141 -167 141 -415z" />
    <glyph glyph-name="bracketleft" unicode="[" horiz-adv-x="280" 
d="M247 710v-61h-89v-708h89v-61h-159v830h159z" />
    <glyph glyph-name="bracketright" unicode="]" horiz-adv-x="280" 
d="M33 -120v61h89v708h-89v61h159v-830h-159z" />
    <glyph glyph-name="braceleft" unicode="{" horiz-adv-x="321" 
d="M288 716v-61c-56 -1 -89 -20 -89 -107v-153c0 -68 -44 -96 -92 -99v-2c48 -2 92 -32 92 -99v-154c0 -87 33 -105 89 -106v-61c-94 3 -159 34 -159 154v161c0 56 -34 74 -90 75v62c56 1 90 20 90 76v160c0 120 65 151 159 154z" />
    <glyph glyph-name="braceright" unicode="}" horiz-adv-x="321" 
d="M33 -126v61c56 1 89 20 89 107v153c0 68 44 96 92 99v2c-48 2 -92 32 -92 99v154c0 87 -33 105 -89 106v61c94 -3 159 -34 159 -154v-161c0 -56 34 -74 90 -75v-62c-56 -1 -90 -20 -90 -76v-160c0 -120 -65 -151 -159 -154z" />
    <glyph glyph-name="guilsinglleft" unicode="&#x2039;" horiz-adv-x="233" 
d="M207 125h-69l-117 159l117 159h69l-96 -159z" />
    <glyph glyph-name="guilsinglright" unicode="&#x203a;" horiz-adv-x="233" 
d="M26 443h69l117 -159l-117 -159h-69l96 159z" />
    <glyph glyph-name="guillemotleft" unicode="&#xab;" horiz-adv-x="370" 
d="M205 125h-67l-117 159l117 159h67l-97 -159zM344 125h-67l-117 159l117 159h67l-97 -159z" />
    <glyph glyph-name="guillemotright" unicode="&#xbb;" horiz-adv-x="370" 
d="M165 443h67l117 -159l-117 -159h-67l97 159zM26 443h67l117 -159l-117 -159h-67l97 159z" />
    <glyph glyph-name="hyphen" unicode="-" horiz-adv-x="318" 
d="M280 332v-72h-243v72h243z" />
    <glyph glyph-name="uni00AD" unicode="&#xad;" horiz-adv-x="318" 
d="M280 332v-72h-243v72h243z" />
    <glyph glyph-name="endash" unicode="&#x2013;" horiz-adv-x="548" 
d="M503 348v-72h-459v72h459z" />
    <glyph glyph-name="emdash" unicode="&#x2014;" horiz-adv-x="817" 
d="M772 348v-72h-728v72h728z" />
    <glyph glyph-name="underscore" unicode="_" horiz-adv-x="548" 
d="M532 -96v-72h-516v72h516z" />
    <glyph glyph-name="zero" unicode="0" horiz-adv-x="629" 
d="M582 345c0 -258 -129 -357 -267 -357c-139 0 -267 99 -267 357s128 357 267 357c138 0 267 -99 267 -357zM497 345c0 203 -86 281 -182 281c-97 0 -183 -78 -183 -281s86 -279 183 -279c96 0 182 76 182 279z" />
    <glyph glyph-name="one" unicode="1" horiz-adv-x="345" 
d="M267 690v-690h-83v600l-143 -56l-25 69l186 77h65z" />
    <glyph glyph-name="two" unicode="2" horiz-adv-x="514" 
d="M459 522c0 -142 -109 -234 -202 -339l-92 -105v-1h311v-77h-428v64l131 149c130 149 194 197 194 298c0 72 -38 115 -121 115c-87 0 -142 -48 -170 -77l-42 60c35 36 103 93 226 93c131 0 193 -71 193 -180z" />
    <glyph glyph-name="three" unicode="3" horiz-adv-x="491" 
d="M430 532c0 -103 -57 -148 -127 -170v-2c78 -17 150 -63 150 -180c0 -116 -82 -192 -229 -192c-111 0 -164 49 -192 79l41 69c22 -25 68 -70 152 -70c94 0 143 45 143 118c0 90 -71 137 -200 137h-27v74h28c115 0 176 47 176 127c0 63 -37 104 -114 104
c-78 0 -122 -41 -144 -67l-44 58c26 30 88 85 202 85c122 0 185 -68 185 -170z" />
    <glyph glyph-name="four" unicode="4" horiz-adv-x="559" 
d="M531 259v-75h-98v-184h-83v184h-319v67l329 439h73v-431h98zM350 259v298h-2l-219 -298h221z" />
    <glyph glyph-name="five" unicode="5" horiz-adv-x="522" 
d="M479 207c0 -147 -100 -219 -247 -219c-122 0 -177 52 -203 77l37 72c23 -24 76 -71 166 -71c101 0 162 44 162 136c0 113 -83 159 -230 159h-78l30 329h335v-75h-263l-16 -181h11c179 0 296 -66 296 -227z" />
    <glyph glyph-name="six" unicode="6" horiz-adv-x="554" 
d="M516 220c0 -145 -82 -232 -219 -232c-152 0 -243 107 -243 353c0 260 132 361 290 361c91 0 132 -35 151 -49l-34 -70c-15 11 -51 43 -116 43c-112 0 -197 -71 -205 -237c40 29 96 52 170 52c131 0 206 -79 206 -221zM295 367c-69 0 -122 -24 -156 -51
c4 -176 62 -252 162 -252c81 0 132 49 132 152c0 97 -44 151 -138 151z" />
    <glyph glyph-name="seven" unicode="7" horiz-adv-x="498" 
d="M482 690v-61l-321 -629h-94l317 613v2h-343v75h441z" />
    <glyph glyph-name="eight" unicode="8" horiz-adv-x="541" 
d="M474 532c0 -96 -57 -137 -112 -164v-1c64 -26 134 -81 134 -193c0 -117 -86 -186 -226 -186c-138 0 -225 69 -225 186c0 112 71 157 134 185v2c-56 27 -112 74 -112 172c0 105 80 169 203 169c124 0 204 -64 204 -170zM393 527c0 64 -48 101 -123 101s-123 -37 -123 -101
c0 -75 61 -101 134 -131c59 25 112 56 112 131zM411 184c0 86 -74 116 -151 146c-65 -25 -130 -60 -130 -146c0 -75 53 -118 140 -118s141 43 141 118z" />
    <glyph glyph-name="nine" unicode="9" horiz-adv-x="560" 
d="M508 359c0 -272 -106 -371 -287 -371c-93 0 -142 41 -162 59l33 75c15 -14 59 -56 131 -56c124 0 194 72 200 238c-36 -29 -90 -54 -168 -54c-126 0 -210 82 -210 234c0 139 92 218 226 218c149 0 237 -107 237 -343zM128 486c0 -103 49 -162 140 -162
c78 0 126 29 156 56c-3 173 -63 247 -156 247c-82 0 -140 -46 -140 -141z" />
    <glyph glyph-name="zero.tf" horiz-adv-x="548" 
d="M510 345c0 -263 -104 -357 -236 -357s-236 94 -236 357s104 357 236 357s236 -94 236 -357zM425 345c0 214 -66 281 -151 281s-151 -67 -151 -281s66 -279 151 -279s151 65 151 279z" />
    <glyph glyph-name="one.tf" horiz-adv-x="548" 
d="M352 690v-615h150v-75h-433v75h200v527l-162 -62l-25 69l205 81h65z" />
    <glyph glyph-name="two.tf" horiz-adv-x="548" 
d="M486 513c0 -140 -113 -238 -210 -336l-97 -99v-1h331v-77h-452v65l123 130c124 130 220 199 220 308c0 73 -40 123 -128 123c-96 0 -152 -54 -179 -84l-42 60c30 35 100 100 234 100c130 0 200 -73 200 -189z" />
    <glyph glyph-name="three.tf" horiz-adv-x="548" 
d="M473 531c0 -104 -61 -149 -130 -170v-1c76 -16 154 -61 154 -181c0 -115 -87 -191 -244 -191c-127 0 -185 55 -215 85l43 69c23 -26 75 -76 172 -76c105 0 160 46 160 117c0 91 -76 138 -211 138h-41v74h42c121 0 185 46 185 126c0 63 -38 105 -125 105
c-91 0 -141 -45 -166 -74l-45 58c28 32 96 92 223 92c133 0 198 -69 198 -171z" />
    <glyph glyph-name="four.tf" horiz-adv-x="548" 
d="M519 259v-75h-90v-184h-83v184h-315v67l325 439h73v-431h90zM346 259v298h-2l-215 -298h217z" />
    <glyph glyph-name="five.tf" horiz-adv-x="548" 
d="M497 206c0 -146 -100 -218 -251 -218c-127 0 -184 53 -210 78l37 72c23 -24 78 -72 172 -72c106 0 167 44 167 136c0 112 -82 159 -234 159h-84l30 329h344v-75h-272l-16 -181h17c183 0 300 -67 300 -228z" />
    <glyph glyph-name="six.tf" horiz-adv-x="548" 
d="M515 222c0 -141 -77 -234 -219 -234c-148 0 -242 107 -242 353c0 256 131 361 284 361c95 0 135 -36 156 -55l-37 -68c-18 17 -50 47 -120 47c-107 0 -190 -75 -197 -241c40 29 95 53 169 53c129 0 206 -77 206 -216zM294 364c-72 0 -121 -27 -155 -54
c6 -173 66 -246 162 -246c82 0 131 51 131 152c0 97 -46 148 -138 148z" />
    <glyph glyph-name="seven.tf" horiz-adv-x="548" 
d="M524 690v-61l-353 -629h-97l350 613v2h-372v75h472z" />
    <glyph glyph-name="eight.tf" horiz-adv-x="548" 
d="M475 532c0 -96 -58 -136 -113 -164v-2c64 -26 135 -81 135 -192c0 -118 -85 -186 -223 -186s-224 68 -224 186c0 111 72 157 135 186v1c-56 28 -112 75 -112 172c0 106 79 169 200 169s202 -64 202 -170zM394 527c0 64 -48 101 -121 101s-119 -37 -119 -101
c0 -74 57 -101 131 -130c58 24 109 56 109 130zM412 183c0 86 -72 117 -149 147c-65 -25 -128 -61 -128 -147c0 -74 53 -117 138 -117c86 0 139 43 139 117z" />
    <glyph glyph-name="nine.tf" horiz-adv-x="548" 
d="M502 359c0 -272 -106 -371 -287 -371c-91 0 -140 41 -160 59l32 76c14 -15 59 -57 130 -57c125 0 193 72 199 238c-36 -30 -89 -54 -166 -54c-124 0 -208 82 -208 234c0 139 92 218 224 218c148 0 236 -107 236 -343zM125 485c0 -102 49 -161 139 -161
c76 0 124 28 153 56c-3 173 -62 247 -154 247c-80 0 -138 -46 -138 -142z" />
    <glyph glyph-name="zero.osf" horiz-adv-x="565" 
d="M522 273c0 -205 -113 -286 -240 -286c-128 0 -238 81 -238 286c0 203 113 285 240 285s238 -82 238 -285zM437 273c0 149 -70 208 -154 208c-85 0 -155 -59 -155 -208c0 -151 70 -207 155 -207c84 0 154 56 154 207z" />
    <glyph glyph-name="one.osf" horiz-adv-x="325" 
d="M249 540v-540h-83v454l-125 -48l-24 66l168 68h64z" />
    <glyph glyph-name="two.osf" horiz-adv-x="470" 
d="M414 399c0 -105 -67 -161 -151 -241l-84 -80v-1h257v-77h-386v60l104 100c104 101 175 147 175 227c0 53 -31 89 -103 89c-80 0 -124 -44 -148 -69l-41 56c30 33 90 89 205 89c114 0 172 -63 172 -153z" />
    <glyph glyph-name="three.osf" horiz-adv-x="487" 
d="M424 382c0 -103 -57 -148 -127 -170v-2c78 -17 150 -63 150 -180c0 -116 -82 -192 -229 -192c-111 0 -164 49 -192 79l41 69c22 -25 68 -70 152 -70c94 0 143 45 143 118c0 90 -71 137 -200 137h-27v74h28c115 0 176 47 176 127c0 63 -37 104 -114 104
c-78 0 -122 -41 -144 -67l-44 58c26 30 88 85 202 85c122 0 185 -68 185 -170z" />
    <glyph glyph-name="four.osf" horiz-adv-x="561" 
d="M536 109v-75h-98v-184h-83v184h-319v67l329 439h73v-431h98zM355 109v298h-2l-219 -298h221z" />
    <glyph glyph-name="five.osf" horiz-adv-x="515" 
d="M476 57c0 -147 -100 -219 -247 -219c-122 0 -177 52 -203 77l37 72c23 -24 76 -71 166 -71c101 0 162 44 162 136c0 113 -83 159 -230 159h-78l30 329h335v-75h-263l-16 -181h11c179 0 296 -66 296 -227z" />
    <glyph glyph-name="six.osf" horiz-adv-x="558" 
d="M516 220c0 -145 -82 -232 -219 -232c-152 0 -243 107 -243 353c0 260 132 361 290 361c91 0 132 -35 151 -49l-34 -70c-15 11 -51 43 -116 43c-112 0 -197 -71 -205 -237c40 29 96 52 170 52c131 0 206 -79 206 -221zM295 367c-69 0 -122 -24 -156 -51
c4 -176 62 -252 162 -252c81 0 132 49 132 152c0 97 -44 151 -138 151z" />
    <glyph glyph-name="seven.osf" horiz-adv-x="490" 
d="M471 540v-61l-321 -629h-94l317 613v2h-343v75h441z" />
    <glyph glyph-name="eight.osf" horiz-adv-x="544" 
d="M475 532c0 -96 -57 -137 -112 -164v-1c64 -26 134 -81 134 -193c0 -117 -86 -186 -226 -186c-138 0 -225 69 -225 186c0 112 71 157 134 185v2c-56 27 -112 74 -112 172c0 105 80 169 203 169c124 0 204 -64 204 -170zM394 527c0 64 -48 101 -123 101s-123 -37 -123 -101
c0 -75 61 -101 134 -131c59 25 112 56 112 131zM412 184c0 86 -74 116 -151 146c-65 -25 -130 -60 -130 -146c0 -75 53 -118 140 -118s141 43 141 118z" />
    <glyph glyph-name="nine.osf" horiz-adv-x="552" 
d="M504 209c0 -272 -106 -371 -287 -371c-93 0 -142 41 -162 59l33 75c15 -14 59 -56 131 -56c124 0 194 72 200 238c-36 -29 -90 -54 -168 -54c-126 0 -210 82 -210 234c0 139 92 218 226 218c149 0 237 -107 237 -343zM124 336c0 -103 49 -162 140 -162
c78 0 126 29 156 56c-3 173 -63 247 -156 247c-82 0 -140 -46 -140 -141z" />
    <glyph glyph-name="zero.tosf" horiz-adv-x="548" 
d="M508 270c0 -200 -108 -282 -235 -282s-233 82 -233 282c0 201 108 283 236 283c127 0 232 -82 232 -283zM423 270c0 146 -65 206 -148 206c-85 0 -151 -60 -151 -206c0 -145 66 -204 150 -204s149 59 149 204z" />
    <glyph glyph-name="one.tosf" horiz-adv-x="548" 
d="M344 540v-468h146v-72h-398v72h169v384l-147 -55l-23 66l189 73h64z" />
    <glyph glyph-name="two.tosf" horiz-adv-x="548" 
d="M467 396c0 -116 -80 -172 -168 -245l-87 -73v-1h279v-77h-411v64l112 95c112 95 190 143 190 226c0 55 -29 91 -108 91c-88 0 -143 -48 -173 -77l-40 61c33 34 104 92 224 92c123 0 182 -62 182 -156z" />
    <glyph glyph-name="three.tosf" horiz-adv-x="548" 
d="M473 381c0 -104 -61 -149 -130 -170v-1c76 -16 154 -61 154 -181c0 -115 -87 -191 -244 -191c-127 0 -185 55 -215 85l43 69c23 -26 75 -76 172 -76c105 0 160 46 160 117c0 91 -76 138 -211 138h-41v74h42c121 0 185 46 185 126c0 63 -38 105 -125 105
c-91 0 -141 -45 -166 -74l-45 58c28 32 96 92 223 92c133 0 198 -69 198 -171z" />
    <glyph glyph-name="four.tosf" horiz-adv-x="548" 
d="M519 109v-75h-90v-184h-83v184h-315v67l325 439h73v-431h90zM346 109v298h-2l-215 -298h217z" />
    <glyph glyph-name="five.tosf" horiz-adv-x="548" 
d="M497 56c0 -146 -100 -218 -251 -218c-127 0 -184 53 -210 78l37 72c23 -24 78 -72 172 -72c106 0 167 44 167 136c0 112 -82 159 -234 159h-84l30 329h344v-75h-272l-16 -181h17c183 0 300 -67 300 -228z" />
    <glyph glyph-name="six.tosf" horiz-adv-x="548" 
d="M516 222c0 -141 -77 -234 -219 -234c-148 0 -242 107 -242 353c0 256 131 361 284 361c95 0 135 -36 156 -55l-37 -68c-18 17 -50 47 -120 47c-107 0 -190 -75 -197 -241c40 29 95 53 169 53c129 0 206 -77 206 -216zM295 364c-72 0 -121 -27 -155 -54
c6 -173 66 -246 162 -246c82 0 131 51 131 152c0 97 -46 148 -138 148z" />
    <glyph glyph-name="seven.tosf" horiz-adv-x="548" 
d="M524 540v-61l-353 -629h-97l350 613v2h-372v75h472z" />
    <glyph glyph-name="eight.tosf" horiz-adv-x="548" 
d="M475 532c0 -96 -58 -136 -113 -164v-2c64 -26 135 -81 135 -192c0 -118 -85 -186 -223 -186s-224 68 -224 186c0 111 72 157 135 186v1c-56 28 -112 75 -112 172c0 106 79 169 200 169s202 -64 202 -170zM394 527c0 64 -48 101 -121 101s-119 -37 -119 -101
c0 -74 57 -101 131 -130c58 24 109 56 109 130zM412 183c0 86 -72 117 -149 147c-65 -25 -128 -61 -128 -147c0 -74 53 -117 138 -117c86 0 139 43 139 117z" />
    <glyph glyph-name="nine.tosf" horiz-adv-x="548" 
d="M502 209c0 -272 -106 -371 -287 -371c-91 0 -140 41 -160 59l32 76c14 -15 59 -57 130 -57c125 0 193 72 199 238c-36 -30 -89 -54 -166 -54c-124 0 -208 82 -208 234c0 139 92 218 224 218c148 0 236 -107 236 -343zM125 335c0 -102 49 -161 139 -161
c76 0 124 28 153 56c-3 173 -62 247 -154 247c-80 0 -138 -46 -138 -142z" />
    <glyph glyph-name="fraction" horiz-adv-x="208" 
d="M375 690l-458 -690h-84l458 690h84z" />
    <glyph glyph-name="thinspace" horiz-adv-x="86" 
 />
    <glyph glyph-name="onequarter" unicode="&#xbc;" horiz-adv-x="906" 
d="M231 690v-353h97v-61h-269v61h101v280l-90 -34l-19 57l126 50h54zM768 690l-458 -690h-84l458 690h84zM878 164v-58h-49v-106h-68v106h-181v51l191 257h58v-250h49zM761 164v153h-2l-108 -153h110z" />
    <glyph glyph-name="onehalf" unicode="&#xbd;" horiz-adv-x="906" 
d="M228 690v-353h97v-61h-269v61h101v280l-90 -34l-19 57l126 50h54zM737 690l-458 -690h-84l458 690h84zM861 301c0 -79 -46 -124 -95 -169l-71 -68v-2h175v-62h-274v51l118 118c41 38 74 71 74 123c0 38 -22 66 -72 66c-49 0 -79 -29 -92 -45l-36 45c18 22 59 63 139 63
c88 0 134 -48 134 -120z" />
    <glyph glyph-name="threequarters" unicode="&#xbe;" horiz-adv-x="906" 
d="M311 590c0 -63 -42 -95 -89 -102v-2c50 -7 94 -39 94 -107c0 -61 -49 -110 -148 -110c-82 0 -117 34 -133 51l33 53c13 -16 40 -42 95 -42c53 0 80 22 80 57c0 45 -41 68 -116 68h-24v57h25c72 0 111 24 111 66c0 33 -22 56 -70 56c-53 0 -81 -24 -95 -39l-32 48
c19 20 60 53 136 53c89 0 133 -45 133 -107zM756 690l-458 -690h-84l458 690h84zM878 164v-58h-49v-106h-68v106h-181v51l191 257h58v-250h49zM761 164v153h-2l-108 -153h110z" />
    <glyph glyph-name="uni2070" 
d="M323 483c0 -153 -66 -214 -145 -214c-80 0 -146 61 -146 214s66 214 146 214c79 0 145 -61 145 -214zM252 483c0 111 -34 151 -74 151c-41 0 -75 -40 -75 -151s34 -151 75 -151c40 0 74 40 74 151z" />
    <glyph glyph-name="onesuperior" unicode="&#xb9;" 
d="M229 690v-353h97v-61h-269v61h101v280l-90 -34l-19 57l126 50h54z" />
    <glyph glyph-name="twosuperior" unicode="&#xb2;" 
d="M310 577c0 -79 -46 -124 -95 -169l-71 -68v-2h175v-62h-274v51l118 118c41 38 74 71 74 123c0 38 -22 66 -72 66c-49 0 -79 -29 -92 -45l-36 45c18 22 59 63 139 63c88 0 134 -48 134 -120z" />
    <glyph glyph-name="threesuperior" unicode="&#xb3;" 
d="M307 590c0 -63 -42 -95 -89 -102v-2c50 -7 94 -39 94 -107c0 -61 -49 -110 -148 -110c-82 0 -117 34 -133 51l33 53c13 -16 40 -42 95 -42c53 0 80 22 80 57c0 45 -41 68 -116 68h-24v57h25c72 0 111 24 111 66c0 33 -22 56 -70 56c-53 0 -81 -24 -95 -39l-32 48
c19 20 60 53 136 53c89 0 133 -45 133 -107z" />
    <glyph glyph-name="uni2074" 
d="M328 440v-58h-49v-106h-68v106h-181v51l191 257h58v-250h49zM211 440v153h-2l-108 -153h110z" />
    <glyph glyph-name="uni2075" 
d="M315 401c0 -83 -58 -132 -150 -132c-77 0 -115 30 -132 46l29 57c13 -14 44 -40 95 -40c56 0 84 24 84 70c0 56 -45 78 -126 78h-54l17 210h220v-62h-161l-7 -92h1c113 0 184 -40 184 -135z" />
    <glyph glyph-name="uni2076" 
d="M326 411c0 -86 -47 -142 -133 -142c-94 0 -152 67 -152 210c0 156 85 218 176 218c64 0 90 -24 104 -36l-29 -53c-11 10 -30 28 -73 28c-57 0 -103 -40 -107 -127c23 17 53 29 93 29c73 0 121 -46 121 -127zM189 483c-35 0 -59 -11 -77 -26c3 -92 35 -129 83 -129
c39 0 65 27 65 79c0 50 -26 76 -71 76z" />
    <glyph glyph-name="uni2077" 
d="M332 690v-51l-198 -363h-83l195 350v2h-204v62h290z" />
    <glyph glyph-name="uni2078" 
d="M307 592c0 -57 -33 -84 -67 -102v-2c35 -19 75 -51 75 -112c0 -65 -54 -107 -138 -107s-138 42 -138 107c0 61 40 93 75 112v2c-33 18 -67 45 -67 102c0 68 55 105 130 105s130 -37 130 -105zM241 586c0 33 -26 53 -64 53s-64 -19 -64 -53c0 -37 32 -55 64 -72
c33 17 64 35 64 72zM246 386c0 40 -37 62 -69 77c-32 -15 -69 -37 -69 -77c0 -36 28 -57 69 -57s69 21 69 57z" />
    <glyph glyph-name="uni2079" 
d="M317 492c0 -155 -61 -223 -166 -223c-67 0 -97 28 -111 40l27 55c10 -11 36 -34 79 -34c65 0 97 40 101 123c-21 -17 -51 -30 -93 -30c-69 0 -122 46 -122 134c0 90 60 140 135 140c95 0 150 -67 150 -205zM98 558c0 -52 26 -80 70 -80c38 0 63 14 79 29
c-1 94 -30 131 -81 131c-37 0 -68 -26 -68 -80z" />
    <glyph glyph-name="comma.sups" horiz-adv-x="176" 
d="M125 350v-54c0 -84 -31 -108 -90 -108v28c32 2 45 19 45 60h-30v74h75z" />
    <glyph glyph-name="period.sups" horiz-adv-x="177" 
d="M126 350v-74h-75v74h75z" />
    <glyph glyph-name="hyphen.sups" horiz-adv-x="221" 
d="M186 494v-58h-151v58h151z" />
    <glyph glyph-name="parenleft.sups" horiz-adv-x="216" 
d="M45 483c0 149 62 221 88 249h58c-26 -27 -87 -101 -87 -249s61 -222 87 -249h-58c-26 28 -88 100 -88 249z" />
    <glyph glyph-name="parenright.sups" horiz-adv-x="216" 
d="M171 483c0 -149 -62 -221 -88 -249h-58c26 27 87 101 87 249s-61 222 -87 249h58c26 -28 88 -100 88 -249z" />
    <glyph glyph-name="uni2080" 
d="M323 57c0 -153 -66 -214 -145 -214c-80 0 -146 61 -146 214s66 214 146 214c79 0 145 -61 145 -214zM252 57c0 111 -34 151 -74 151c-41 0 -75 -40 -75 -151s34 -151 75 -151c40 0 74 40 74 151z" />
    <glyph glyph-name="uni2081" 
d="M229 264v-353h97v-61h-269v61h101v280l-90 -34l-19 57l126 50h54z" />
    <glyph glyph-name="uni2082" 
d="M310 151c0 -79 -46 -124 -95 -169l-71 -68v-2h175v-62h-274v51l118 118c41 38 74 71 74 123c0 38 -22 66 -72 66c-49 0 -79 -29 -92 -45l-36 45c18 22 59 63 139 63c88 0 134 -48 134 -120z" />
    <glyph glyph-name="uni2083" 
d="M307 164c0 -63 -42 -95 -89 -102v-2c50 -7 94 -39 94 -107c0 -61 -49 -110 -148 -110c-82 0 -117 34 -133 51l33 53c13 -16 40 -42 95 -42c53 0 80 22 80 57c0 45 -41 68 -116 68h-24v57h25c72 0 111 24 111 66c0 33 -22 56 -70 56c-53 0 -81 -24 -95 -39l-32 48
c19 20 60 53 136 53c89 0 133 -45 133 -107z" />
    <glyph glyph-name="uni2084" 
d="M328 14v-58h-49v-106h-68v106h-181v51l191 257h58v-250h49zM211 14v153h-2l-108 -153h110z" />
    <glyph glyph-name="uni2085" 
d="M315 -25c0 -83 -58 -132 -150 -132c-77 0 -115 30 -132 46l29 57c13 -14 44 -40 95 -40c56 0 84 24 84 70c0 56 -45 78 -126 78h-54l17 210h220v-62h-161l-7 -92h1c113 0 184 -40 184 -135z" />
    <glyph glyph-name="uni2086" 
d="M326 -15c0 -86 -47 -142 -133 -142c-94 0 -152 67 -152 210c0 156 85 218 176 218c64 0 90 -24 104 -36l-29 -53c-11 10 -30 28 -73 28c-57 0 -103 -40 -107 -127c23 17 53 29 93 29c73 0 121 -46 121 -127zM189 57c-35 0 -59 -11 -77 -26c3 -92 35 -129 83 -129
c39 0 65 27 65 79c0 50 -26 76 -71 76z" />
    <glyph glyph-name="uni2087" 
d="M332 264v-51l-198 -363h-83l195 350v2h-204v62h290z" />
    <glyph glyph-name="uni2088" 
d="M307 166c0 -57 -33 -84 -67 -102v-2c35 -19 75 -51 75 -112c0 -65 -54 -107 -138 -107s-138 42 -138 107c0 61 40 93 75 112v2c-33 18 -67 45 -67 102c0 68 55 105 130 105s130 -37 130 -105zM241 160c0 33 -26 53 -64 53s-64 -19 -64 -53c0 -37 32 -55 64 -72
c33 17 64 35 64 72zM246 -40c0 40 -37 62 -69 77c-32 -15 -69 -37 -69 -77c0 -36 28 -57 69 -57s69 21 69 57z" />
    <glyph glyph-name="uni2089" 
d="M317 66c0 -155 -61 -223 -166 -223c-67 0 -97 28 -111 40l27 55c10 -11 36 -34 79 -34c65 0 97 40 101 123c-21 -17 -51 -30 -93 -30c-69 0 -122 46 -122 134c0 90 60 140 135 140c95 0 150 -67 150 -205zM98 132c0 -52 26 -80 70 -80c38 0 63 14 79 29
c-1 94 -30 131 -81 131c-37 0 -68 -26 -68 -80z" />
    <glyph glyph-name="comma.subs" horiz-adv-x="176" 
d="M125 -76v-54c0 -84 -31 -108 -90 -108v28c32 2 45 19 45 60h-30v74h75z" />
    <glyph glyph-name="period.subs" horiz-adv-x="177" 
d="M126 -76v-74h-75v74h75z" />
    <glyph glyph-name="hyphen.subs" horiz-adv-x="221" 
d="M186 68v-58h-151v58h151z" />
    <glyph glyph-name="parenleft.subs" horiz-adv-x="216" 
d="M45 57c0 149 62 221 88 249h58c-26 -27 -87 -101 -87 -249s61 -222 87 -249h-58c-26 28 -88 100 -88 249z" />
    <glyph glyph-name="parenright.subs" horiz-adv-x="216" 
d="M171 57c0 -149 -62 -221 -88 -249h-58c26 27 87 101 87 249s-61 222 -87 249h58c26 -28 88 -100 88 -249z" />
    <glyph glyph-name="zero.numr" 
d="M323 483c0 -153 -66 -214 -145 -214c-80 0 -146 61 -146 214s66 214 146 214c79 0 145 -61 145 -214zM252 483c0 111 -34 151 -74 151c-41 0 -75 -40 -75 -151s34 -151 75 -151c40 0 74 40 74 151z" />
    <glyph glyph-name="one.numr" 
d="M229 690v-353h97v-61h-269v61h101v280l-90 -34l-19 57l126 50h54z" />
    <glyph glyph-name="two.numr" 
d="M310 577c0 -79 -46 -124 -95 -169l-71 -68v-2h175v-62h-274v51l118 118c41 38 74 71 74 123c0 38 -22 66 -72 66c-49 0 -79 -29 -92 -45l-36 45c18 22 59 63 139 63c88 0 134 -48 134 -120z" />
    <glyph glyph-name="three.numr" 
d="M307 590c0 -63 -42 -95 -89 -102v-2c50 -7 94 -39 94 -107c0 -61 -49 -110 -148 -110c-82 0 -117 34 -133 51l33 53c13 -16 40 -42 95 -42c53 0 80 22 80 57c0 45 -41 68 -116 68h-24v57h25c72 0 111 24 111 66c0 33 -22 56 -70 56c-53 0 -81 -24 -95 -39l-32 48
c19 20 60 53 136 53c89 0 133 -45 133 -107z" />
    <glyph glyph-name="four.numr" 
d="M328 440v-58h-49v-106h-68v106h-181v51l191 257h58v-250h49zM211 440v153h-2l-108 -153h110z" />
    <glyph glyph-name="five.numr" 
d="M315 401c0 -83 -58 -132 -150 -132c-77 0 -115 30 -132 46l29 57c13 -14 44 -40 95 -40c56 0 84 24 84 70c0 56 -45 78 -126 78h-54l17 210h220v-62h-161l-7 -92h1c113 0 184 -40 184 -135z" />
    <glyph glyph-name="six.numr" 
d="M326 411c0 -86 -47 -142 -133 -142c-94 0 -152 67 -152 210c0 156 85 218 176 218c64 0 90 -24 104 -36l-29 -53c-11 10 -30 28 -73 28c-57 0 -103 -40 -107 -127c23 17 53 29 93 29c73 0 121 -46 121 -127zM189 483c-35 0 -59 -11 -77 -26c3 -92 35 -129 83 -129
c39 0 65 27 65 79c0 50 -26 76 -71 76z" />
    <glyph glyph-name="seven.numr" 
d="M332 690v-51l-198 -363h-83l195 350v2h-204v62h290z" />
    <glyph glyph-name="eight.numr" 
d="M307 592c0 -57 -33 -84 -67 -102v-2c35 -19 75 -51 75 -112c0 -65 -54 -107 -138 -107s-138 42 -138 107c0 61 40 93 75 112v2c-33 18 -67 45 -67 102c0 68 55 105 130 105s130 -37 130 -105zM241 586c0 33 -26 53 -64 53s-64 -19 -64 -53c0 -37 32 -55 64 -72
c33 17 64 35 64 72zM246 386c0 40 -37 62 -69 77c-32 -15 -69 -37 -69 -77c0 -36 28 -57 69 -57s69 21 69 57z" />
    <glyph glyph-name="nine.numr" 
d="M317 492c0 -155 -61 -223 -166 -223c-67 0 -97 28 -111 40l27 55c10 -11 36 -34 79 -34c65 0 97 40 101 123c-21 -17 -51 -30 -93 -30c-69 0 -122 46 -122 134c0 90 60 140 135 140c95 0 150 -67 150 -205zM98 558c0 -52 26 -80 70 -80c38 0 63 14 79 29
c-1 94 -30 131 -81 131c-37 0 -68 -26 -68 -80z" />
    <glyph glyph-name="comma.numr" horiz-adv-x="176" 
d="M125 350v-54c0 -84 -31 -108 -90 -108v28c32 2 45 19 45 60h-30v74h75z" />
    <glyph glyph-name="period.numr" horiz-adv-x="177" 
d="M126 350v-74h-75v74h75z" />
    <glyph glyph-name="hyphen.numr" horiz-adv-x="221" 
d="M186 494v-58h-151v58h151z" />
    <glyph glyph-name="parenleft.numr" horiz-adv-x="216" 
d="M45 483c0 149 62 221 88 249h58c-26 -27 -87 -101 -87 -249s61 -222 87 -249h-58c-26 28 -88 100 -88 249z" />
    <glyph glyph-name="parenright.numr" horiz-adv-x="216" 
d="M171 483c0 -149 -62 -221 -88 -249h-58c26 27 87 101 87 249s-61 222 -87 249h58c26 -28 88 -100 88 -249z" />
    <glyph glyph-name="zero.dnom" 
d="M323 207c0 -153 -66 -214 -145 -214c-80 0 -146 61 -146 214s66 214 146 214c79 0 145 -61 145 -214zM252 207c0 111 -34 151 -74 151c-41 0 -75 -40 -75 -151s34 -151 75 -151c40 0 74 40 74 151z" />
    <glyph glyph-name="one.dnom" 
d="M229 414v-353h97v-61h-269v61h101v280l-90 -34l-19 57l126 50h54z" />
    <glyph glyph-name="two.dnom" 
d="M310 301c0 -79 -46 -124 -95 -169l-71 -68v-2h175v-62h-274v51l118 118c41 38 74 71 74 123c0 38 -22 66 -72 66c-49 0 -79 -29 -92 -45l-36 45c18 22 59 63 139 63c88 0 134 -48 134 -120z" />
    <glyph glyph-name="three.dnom" 
d="M307 314c0 -63 -42 -95 -89 -102v-2c50 -7 94 -39 94 -107c0 -61 -49 -110 -148 -110c-82 0 -117 34 -133 51l33 53c13 -16 40 -42 95 -42c53 0 80 22 80 57c0 45 -41 68 -116 68h-24v57h25c72 0 111 24 111 66c0 33 -22 56 -70 56c-53 0 -81 -24 -95 -39l-32 48
c19 20 60 53 136 53c89 0 133 -45 133 -107z" />
    <glyph glyph-name="four.dnom" 
d="M328 164v-58h-49v-106h-68v106h-181v51l191 257h58v-250h49zM211 164v153h-2l-108 -153h110z" />
    <glyph glyph-name="five.dnom" 
d="M315 125c0 -83 -58 -132 -150 -132c-77 0 -115 30 -132 46l29 57c13 -14 44 -40 95 -40c56 0 84 24 84 70c0 56 -45 78 -126 78h-54l17 210h220v-62h-161l-7 -92h1c113 0 184 -40 184 -135z" />
    <glyph glyph-name="six.dnom" 
d="M326 135c0 -86 -47 -142 -133 -142c-94 0 -152 67 -152 210c0 156 85 218 176 218c64 0 90 -24 104 -36l-29 -53c-11 10 -30 28 -73 28c-57 0 -103 -40 -107 -127c23 17 53 29 93 29c73 0 121 -46 121 -127zM189 207c-35 0 -59 -11 -77 -26c3 -92 35 -129 83 -129
c39 0 65 27 65 79c0 50 -26 76 -71 76z" />
    <glyph glyph-name="seven.dnom" 
d="M332 414v-51l-198 -363h-83l195 350v2h-204v62h290z" />
    <glyph glyph-name="eight.dnom" 
d="M307 316c0 -57 -33 -84 -67 -102v-2c35 -19 75 -51 75 -112c0 -65 -54 -107 -138 -107s-138 42 -138 107c0 61 40 93 75 112v2c-33 18 -67 45 -67 102c0 68 55 105 130 105s130 -37 130 -105zM241 310c0 33 -26 53 -64 53s-64 -19 -64 -53c0 -37 32 -55 64 -72
c33 17 64 35 64 72zM246 110c0 40 -37 62 -69 77c-32 -15 -69 -37 -69 -77c0 -36 28 -57 69 -57s69 21 69 57z" />
    <glyph glyph-name="nine.dnom" 
d="M317 216c0 -155 -61 -223 -166 -223c-67 0 -97 28 -111 40l27 55c10 -11 36 -34 79 -34c65 0 97 40 101 123c-21 -17 -51 -30 -93 -30c-69 0 -122 46 -122 134c0 90 60 140 135 140c95 0 150 -67 150 -205zM98 282c0 -52 26 -80 70 -80c38 0 63 14 79 29
c-1 94 -30 131 -81 131c-37 0 -68 -26 -68 -80z" />
    <glyph glyph-name="comma.dnom" horiz-adv-x="176" 
d="M125 74v-54c0 -84 -31 -108 -90 -108v28c32 2 45 19 45 60h-30v74h75z" />
    <glyph glyph-name="period.dnom" horiz-adv-x="177" 
d="M126 74v-74h-75v74h75z" />
    <glyph glyph-name="hyphen.dnom" horiz-adv-x="221" 
d="M186 218v-58h-151v58h151z" />
    <glyph glyph-name="parenleft.dnom" horiz-adv-x="216" 
d="M45 207c0 149 62 221 88 249h58c-26 -27 -87 -101 -87 -249s61 -222 87 -249h-58c-26 28 -88 100 -88 249z" />
    <glyph glyph-name="parenright.dnom" horiz-adv-x="216" 
d="M171 207c0 -149 -62 -221 -88 -249h-58c26 27 87 101 87 249s-61 222 -87 249h58c26 -28 88 -100 88 -249z" />
    <glyph glyph-name="slash.uc" horiz-adv-x="404" 
d="M414 755l-338 -830h-73l337 830h74z" />
    <glyph glyph-name="exclamdown.uc" horiz-adv-x="260" 
d="M75 585v105h93v-105h-93zM74 0l10 517h75l10 -517h-95z" />
    <glyph glyph-name="questiondown.uc" horiz-adv-x="398" 
d="M156 585v105h93v-105h-93zM13 133c0 160 193 173 193 276c0 50 -27 84 -45 106v2h86c18 -22 42 -55 42 -116c0 -123 -191 -149 -191 -258c0 -52 33 -79 97 -79c77 0 129 36 153 54l31 -66c-28 -22 -94 -64 -201 -64c-105 0 -165 51 -165 145z" />
    <glyph glyph-name="parenleft.uc" horiz-adv-x="303" 
d="M60 340c0 248 98 368 141 415h76c-44 -46 -144 -167 -144 -415c0 -247 100 -369 144 -415h-76c-43 47 -141 167 -141 415z" />
    <glyph glyph-name="parenright.uc" horiz-adv-x="303" 
d="M243 340c0 -248 -98 -368 -141 -415h-76c44 46 144 167 144 415c0 247 -100 369 -144 415h76c43 -47 141 -167 141 -415z" />
    <glyph glyph-name="bracketleft.uc" horiz-adv-x="280" 
d="M247 755v-61h-89v-708h89v-61h-159v830h159z" />
    <glyph glyph-name="bracketright.uc" horiz-adv-x="280" 
d="M33 -75v61h89v708h-89v61h159v-830h-159z" />
    <glyph glyph-name="braceleft.uc" horiz-adv-x="321" 
d="M288 761v-61c-56 -1 -89 -20 -89 -107v-153c0 -68 -44 -96 -92 -99v-2c48 -2 92 -32 92 -99v-154c0 -87 33 -105 89 -106v-61c-94 3 -159 34 -159 154v161c0 56 -34 74 -90 75v62c56 1 90 20 90 76v160c0 120 65 151 159 154z" />
    <glyph glyph-name="braceright.uc" horiz-adv-x="321" 
d="M33 -81v61c56 1 89 20 89 107v153c0 68 44 96 92 99v2c-48 2 -92 32 -92 99v154c0 87 -33 105 -89 106v61c94 -3 159 -34 159 -154v-161c0 -56 34 -74 90 -75v-62c-56 -1 -90 -20 -90 -76v-160c0 -120 -65 -151 -159 -154z" />
    <glyph glyph-name="guilsinglleft.uc" horiz-adv-x="233" 
d="M207 170h-69l-117 159l117 159h69l-96 -159z" />
    <glyph glyph-name="guilsinglright.uc" horiz-adv-x="233" 
d="M26 488h69l117 -159l-117 -159h-69l96 159z" />
    <glyph glyph-name="guillemotleft.uc" horiz-adv-x="370" 
d="M205 170h-67l-117 159l117 159h67l-97 -159zM344 170h-67l-117 159l117 159h67l-97 -159z" />
    <glyph glyph-name="guillemotright.uc" horiz-adv-x="370" 
d="M165 488h67l117 -159l-117 -159h-67l97 159zM26 488h67l117 -159l-117 -159h-67l97 159z" />
    <glyph glyph-name="hyphen.uc" horiz-adv-x="318" 
d="M281 377v-72h-243v72h243z" />
    <glyph glyph-name="uni00AD.uc" horiz-adv-x="318" 
d="M281 377v-72h-243v72h243z" />
    <glyph glyph-name="endash.uc" horiz-adv-x="548" 
d="M503 393v-72h-459v72h459z" />
    <glyph glyph-name="emdash.uc" horiz-adv-x="817" 
d="M772 393v-72h-728v72h728z" />
    <glyph glyph-name="Adieresis.alt1" horiz-adv-x="661" 
d="M250 840c27 0 44 -20 44 -47v-7c0 -27 -17 -47 -44 -47s-45 20 -45 47v7c0 27 18 47 45 47zM411 840c27 0 45 -20 45 -47v-7c0 -27 -18 -47 -45 -47s-44 20 -44 47v7c0 27 17 47 44 47zM374 690l270 -690h-89l-84 223h-286l-83 -223h-86l271 690h87zM445 292l-116 311h-2
l-115 -311h233z" />
    <glyph glyph-name="Edieresis.alt1" horiz-adv-x="562" 
d="M217 840c27 0 44 -20 44 -47v-7c0 -27 -17 -47 -44 -47s-45 20 -45 47v7c0 27 18 47 45 47zM378 840c27 0 45 -20 45 -47v-7c0 -27 -18 -47 -45 -47s-44 20 -44 47v7c0 27 17 47 44 47zM518 690v-75h-358v-222h324v-75h-324v-241h368v-77h-451v690h441z" />
    <glyph glyph-name="I.alt1" horiz-adv-x="361" 
d="M310 690v-72h-89v-544h92v-74h-266v74h91v544h-88v72h260z" />
    <glyph glyph-name="Iacute.alt1" horiz-adv-x="361" 
d="M346 848v-2l-124 -118h-82l102 120h104zM310 690v-72h-89v-544h92v-74h-266v74h91v544h-88v72h260z" />
    <glyph glyph-name="Icircumflex.alt1" horiz-adv-x="361" 
d="M320 728h-69l-69 72h-2l-69 -72h-69l91 117h96zM310 690v-72h-89v-544h92v-74h-266v74h91v544h-88v72h260z" />
    <glyph glyph-name="Idieresis.alt1" horiz-adv-x="361" 
d="M101 840c27 0 44 -20 44 -47v-7c0 -27 -17 -47 -44 -47s-45 20 -45 47v7c0 27 18 47 45 47zM262 840c27 0 45 -20 45 -47v-7c0 -27 -18 -47 -45 -47s-44 20 -44 47v7c0 27 17 47 44 47zM310 690v-72h-89v-544h92v-74h-266v74h91v544h-88v72h260z" />
    <glyph glyph-name="Igrave.alt1" horiz-adv-x="361" 
d="M222 728h-82l-124 118v2h104zM310 690v-72h-89v-544h92v-74h-266v74h91v544h-88v72h260z" />
    <glyph glyph-name="Odieresis.alt1" horiz-adv-x="744" 
d="M291 848c27 0 44 -20 44 -47v-7c0 -27 -17 -47 -44 -47s-45 20 -45 47v7c0 27 18 47 45 47zM452 848c27 0 45 -20 45 -47v-7c0 -27 -18 -47 -45 -47s-44 20 -44 47v7c0 27 17 47 44 47zM703 345c0 -230 -133 -357 -332 -357c-197 0 -330 127 -330 357s133 357 331 357
s331 -127 331 -357zM618 345c0 180 -98 281 -246 281c-149 0 -246 -101 -246 -281c0 -179 97 -279 246 -279c148 0 246 100 246 279z" />
    <glyph glyph-name="Udieresis.alt1" horiz-adv-x="717" 
d="M279 840c27 0 44 -20 44 -47v-7c0 -27 -17 -47 -44 -47s-45 20 -45 47v7c0 27 18 47 45 47zM440 840c27 0 45 -20 45 -47v-7c0 -27 -18 -47 -45 -47s-44 20 -44 47v7c0 27 17 47 44 47zM645 690v-384c0 -211 -93 -318 -288 -318c-194 0 -285 101 -285 318v384h83v-386
c0 -165 68 -238 206 -238c135 0 203 72 203 238v386h81z" />
    <glyph glyph-name="Ydieresis.alt1" horiz-adv-x="603" 
d="M222 840c27 0 44 -20 44 -47v-7c0 -27 -17 -47 -44 -47s-45 20 -45 47v7c0 27 18 47 45 47zM383 840c27 0 45 -20 45 -47v-7c0 -27 -18 -47 -45 -47s-44 20 -44 47v7c0 27 17 47 44 47zM598 690l-255 -434v-256h-83v256l-255 434h98l201 -354h2l199 354h93z" />
    <glyph glyph-name="dieresis.uc.alt1" horiz-adv-x="339" 
d="M89 840c27 0 44 -20 44 -47v-7c0 -27 -17 -47 -44 -47s-45 20 -45 47v7c0 27 18 47 45 47zM250 840c27 0 45 -20 45 -47v-7c0 -27 -18 -47 -45 -47s-44 20 -44 47v7c0 27 17 47 44 47z" />
    <glyph glyph-name="a.alt1" horiz-adv-x="526" 
d="M505 67v-66c-7 -3 -25 -9 -51 -9c-45 0 -78 18 -94 58c-26 -28 -74 -62 -158 -62c-104 0 -156 59 -156 143c0 100 79 152 214 152c40 0 71 -3 89 -5v17c0 90 -35 131 -116 131c-76 0 -121 -35 -144 -60l-36 57c27 29 88 76 192 76c132 0 187 -73 187 -206v-166
c0 -50 15 -63 47 -63c12 0 22 2 26 3zM129 136c0 -47 30 -76 89 -76c73 0 112 32 131 55v98c-19 2 -45 3 -83 3c-91 0 -137 -27 -137 -80z" />
    <glyph glyph-name="aacute.alt1" horiz-adv-x="526" 
d="M411 685v-2l-129 -137h-82l106 139h105zM505 67v-66c-7 -3 -25 -9 -51 -9c-45 0 -78 18 -94 58c-26 -28 -74 -62 -158 -62c-104 0 -156 59 -156 143c0 100 79 152 214 152c40 0 71 -3 89 -5v17c0 90 -35 131 -116 131c-76 0 -121 -35 -144 -60l-36 57c27 29 88 76 192 76
c132 0 187 -73 187 -206v-166c0 -50 15 -63 47 -63c12 0 22 2 26 3zM129 136c0 -47 30 -76 89 -76c73 0 112 32 131 55v98c-19 2 -45 3 -83 3c-91 0 -137 -27 -137 -80z" />
    <glyph glyph-name="acircumflex.alt1" horiz-adv-x="526" 
d="M386 545h-68l-76 88h-1l-76 -88h-68l95 141h99zM505 67v-66c-7 -3 -25 -9 -51 -9c-45 0 -78 18 -94 58c-26 -28 -74 -62 -158 -62c-104 0 -156 59 -156 143c0 100 79 152 214 152c40 0 71 -3 89 -5v17c0 90 -35 131 -116 131c-76 0 -121 -35 -144 -60l-36 57
c27 29 88 76 192 76c132 0 187 -73 187 -206v-166c0 -50 15 -63 47 -63c12 0 22 2 26 3zM129 136c0 -47 30 -76 89 -76c73 0 112 32 131 55v98c-19 2 -45 3 -83 3c-91 0 -137 -27 -137 -80z" />
    <glyph glyph-name="adieresis.alt1" horiz-adv-x="526" 
d="M163 664c27 0 44 -19 44 -47v-7c0 -28 -17 -47 -44 -47c-28 0 -45 19 -45 47v7c0 28 17 47 45 47zM321 664c27 0 44 -19 44 -47v-7c0 -28 -17 -47 -44 -47s-44 19 -44 47v7c0 28 17 47 44 47zM505 67v-66c-7 -3 -25 -9 -51 -9c-45 0 -78 18 -94 58
c-26 -28 -74 -62 -158 -62c-104 0 -156 59 -156 143c0 100 79 152 214 152c40 0 71 -3 89 -5v17c0 90 -35 131 -116 131c-76 0 -121 -35 -144 -60l-36 57c27 29 88 76 192 76c132 0 187 -73 187 -206v-166c0 -50 15 -63 47 -63c12 0 22 2 26 3zM129 136c0 -47 30 -76 89 -76
c73 0 112 32 131 55v98c-19 2 -45 3 -83 3c-91 0 -137 -27 -137 -80z" />
    <glyph glyph-name="ae.alt1" horiz-adv-x="811" 
d="M46 132c0 99 79 151 215 151c36 0 69 -2 88 -4v13c0 91 -35 134 -118 134c-74 0 -117 -35 -140 -60l-38 56c28 31 86 77 189 77c82 0 133 -32 158 -91c39 59 102 91 177 91c130 0 196 -78 196 -235v-46h-340c8 -103 61 -154 161 -154c86 0 130 36 145 51l32 -63
c-21 -20 -74 -64 -187 -64c-80 0 -144 25 -185 79c-27 -31 -83 -79 -189 -79c-109 0 -164 59 -164 144zM574 426c-74 0 -132 -52 -141 -139h260c-1 89 -38 139 -119 139zM129 137c0 -48 32 -76 95 -76c83 0 125 38 145 62c-10 26 -16 57 -19 92c-26 1 -55 1 -83 1
c-93 0 -138 -27 -138 -79z" />
    <glyph glyph-name="agrave.alt1" horiz-adv-x="526" 
d="M282 546h-81l-129 137v2h105zM505 67v-66c-7 -3 -25 -9 -51 -9c-45 0 -78 18 -94 58c-26 -28 -74 -62 -158 -62c-104 0 -156 59 -156 143c0 100 79 152 214 152c40 0 71 -3 89 -5v17c0 90 -35 131 -116 131c-76 0 -121 -35 -144 -60l-36 57c27 29 88 76 192 76
c132 0 187 -73 187 -206v-166c0 -50 15 -63 47 -63c12 0 22 2 26 3zM129 136c0 -47 30 -76 89 -76c73 0 112 32 131 55v98c-19 2 -45 3 -83 3c-91 0 -137 -27 -137 -80z" />
    <glyph glyph-name="aring.alt1" horiz-adv-x="526" 
d="M334 626c0 -52 -38 -85 -93 -85s-93 33 -93 85c0 51 38 84 93 84s93 -33 93 -84zM286 626c0 25 -17 41 -45 41s-45 -16 -45 -41s17 -41 45 -41s45 16 45 41zM505 67v-66c-7 -3 -25 -9 -51 -9c-45 0 -78 18 -94 58c-26 -28 -74 -62 -158 -62c-104 0 -156 59 -156 143
c0 100 79 152 214 152c40 0 71 -3 89 -5v17c0 90 -35 131 -116 131c-76 0 -121 -35 -144 -60l-36 57c27 29 88 76 192 76c132 0 187 -73 187 -206v-166c0 -50 15 -63 47 -63c12 0 22 2 26 3zM129 136c0 -47 30 -76 89 -76c73 0 112 32 131 55v98c-19 2 -45 3 -83 3
c-91 0 -137 -27 -137 -80z" />
    <glyph glyph-name="atilde.alt1" horiz-adv-x="526" 
d="M394 662c0 -71 -25 -113 -80 -113c-64 0 -97 61 -141 61c-26 0 -35 -21 -37 -53h-47c0 72 25 114 80 114c64 0 97 -61 141 -61c26 0 35 20 37 52h47zM505 67v-66c-7 -3 -25 -9 -51 -9c-45 0 -78 18 -94 58c-26 -28 -74 -62 -158 -62c-104 0 -156 59 -156 143
c0 100 79 152 214 152c40 0 71 -3 89 -5v17c0 90 -35 131 -116 131c-76 0 -121 -35 -144 -60l-36 57c27 29 88 76 192 76c132 0 187 -73 187 -206v-166c0 -50 15 -63 47 -63c12 0 22 2 26 3zM129 136c0 -47 30 -76 89 -76c73 0 112 32 131 55v98c-19 2 -45 3 -83 3
c-91 0 -137 -27 -137 -80z" />
    <glyph glyph-name="b.alt1" horiz-adv-x="549" 
d="M508 262c0 -194 -99 -274 -250 -274c-105 0 -161 35 -189 57v665h83v-269h2c24 22 74 58 156 58c119 0 198 -79 198 -237zM424 255c0 118 -52 170 -137 170c-68 0 -114 -37 -135 -60v-272c17 -12 50 -29 110 -29c100 0 162 54 162 191z" />
    <glyph glyph-name="edieresis.alt1" horiz-adv-x="498" 
d="M179 664c27 0 44 -19 44 -47v-7c0 -28 -17 -47 -44 -47c-28 0 -45 19 -45 47v7c0 28 17 47 45 47zM337 664c27 0 44 -19 44 -47v-7c0 -28 -17 -47 -44 -47s-44 19 -44 47v7c0 28 17 47 44 47zM37 245c0 165 98 254 224 254c128 0 199 -77 199 -234v-47h-339
c9 -102 62 -154 160 -154c82 0 131 38 146 52l32 -62c-22 -21 -79 -66 -192 -66c-137 0 -230 80 -230 257zM259 426c-75 0 -131 -47 -138 -138h259c-1 89 -41 138 -121 138z" />
    <glyph glyph-name="uniFB03.alt1" horiz-adv-x="884" 
d="M301 487v-70h-117v-417h-83v417h-68v70h68v58c0 120 70 171 159 171c29 0 45 -6 52 -8v-72c-6 2 -19 7 -40 7c-52 0 -88 -23 -88 -99v-57h117zM640 487v-70h-128v-417h-83v417h-68v70h68v58c0 120 70 171 159 171c29 0 45 -6 52 -8v-72c-6 2 -19 7 -40 7
c-52 0 -88 -23 -88 -99v-57h128zM770 675c31 0 51 -18 51 -53v-5c0 -35 -20 -53 -51 -53c-30 0 -50 18 -50 53v5c0 35 20 53 50 53zM812 487v-487h-83v487h83z" />
    <glyph glyph-name="uniFB04.alt1" horiz-adv-x="909" 
d="M301 487v-70h-117v-417h-83v417h-68v70h68v58c0 120 70 171 159 171c29 0 45 -6 52 -8v-72c-6 2 -19 7 -40 7c-52 0 -88 -23 -88 -99v-57h117zM640 487v-70h-128v-417h-83v417h-68v70h68v58c0 120 70 171 159 171c29 0 45 -6 52 -8v-72c-6 2 -19 7 -40 7
c-52 0 -88 -23 -88 -99v-57h128zM885 69v-66c-5 -3 -22 -10 -51 -10c-70 0 -110 30 -110 135v582h83v-575c0 -59 19 -70 52 -70c13 0 22 3 26 4z" />
    <glyph glyph-name="fi.alt1" horiz-adv-x="556" 
d="M312 487v-70h-128v-417h-83v417h-68v70h68v58c0 120 70 171 159 171c29 0 45 -6 52 -8v-72c-6 2 -19 7 -40 7c-52 0 -88 -23 -88 -99v-57h128zM442 675c31 0 51 -18 51 -53v-5c0 -35 -20 -53 -51 -53c-30 0 -50 18 -50 53v5c0 35 20 53 50 53zM484 487v-487h-83v487h83z
" />
    <glyph glyph-name="fl.alt1" horiz-adv-x="581" 
d="M312 487v-70h-128v-417h-83v417h-68v70h68v58c0 120 70 171 159 171c29 0 45 -6 52 -8v-72c-6 2 -19 7 -40 7c-52 0 -88 -23 -88 -99v-57h128zM557 69v-66c-5 -3 -22 -10 -51 -10c-70 0 -110 30 -110 135v582h83v-575c0 -59 19 -70 52 -70c13 0 22 3 26 4z" />
    <glyph glyph-name="g.alt1" horiz-adv-x="549" 
d="M518 -27c0 -101 -98 -185 -285 -185c-142 0 -195 55 -195 132c0 74 51 107 74 119v2c-29 15 -41 41 -41 74c0 55 47 81 63 90v2c-48 27 -77 72 -77 132c0 101 79 160 197 160c98 0 150 -39 171 -84h2c8 57 39 83 104 83v-77h-14c-44 0 -65 -22 -65 -84
c0 -95 -78 -157 -198 -157c-21 0 -41 2 -60 6c-19 -8 -43 -25 -43 -50c0 -26 21 -39 71 -39h148c94 0 148 -45 148 -124zM369 339c0 60 -44 91 -114 91c-71 0 -115 -31 -115 -91c0 -58 44 -89 114 -89c71 0 115 31 115 89zM119 -57c0 -52 32 -82 118 -82
c127 0 197 44 197 102c0 37 -22 59 -78 59h-144c-15 0 -29 1 -41 2c-25 -13 -52 -37 -52 -81z" />
    <glyph glyph-name="i.alt1" horiz-adv-x="229" 
d="M114 675c31 0 51 -18 51 -53v-5c0 -35 -20 -53 -51 -53c-30 0 -50 18 -50 53v5c0 35 20 53 50 53zM156 487v-487h-83v487h83z" />
    <glyph glyph-name="i.dot.alt1" horiz-adv-x="229" 
d="M114 675c31 0 51 -18 51 -53v-5c0 -35 -20 -53 -51 -53c-30 0 -50 18 -50 53v5c0 35 20 53 50 53zM156 487v-487h-83v487h83z" />
    <glyph glyph-name="idieresis.alt1" horiz-adv-x="229" 
d="M36 664c27 0 44 -19 44 -47v-7c0 -28 -17 -47 -44 -47c-28 0 -45 19 -45 47v7c0 28 17 47 45 47zM194 664c27 0 44 -19 44 -47v-7c0 -28 -17 -47 -44 -47s-44 19 -44 47v7c0 28 17 47 44 47zM156 487v-487h-83v487h83z" />
    <glyph glyph-name="j.alt1" horiz-adv-x="235" 
d="M121 675c31 0 51 -18 51 -53v-5c0 -35 -20 -53 -51 -53s-51 18 -51 53v5c0 35 20 53 51 53zM162 487v-536c0 -117 -57 -158 -147 -158c-29 0 -45 5 -52 8v72c7 -2 21 -7 42 -7c50 0 74 24 74 94v527h83z" />
    <glyph glyph-name="l.alt1" horiz-adv-x="253" 
d="M229 69v-66c-5 -3 -22 -10 -51 -10c-70 0 -110 30 -110 135v582h83v-575c0 -59 19 -70 52 -70c13 0 22 3 26 4z" />
    <glyph glyph-name="odieresis.alt1" horiz-adv-x="543" 
d="M193 664c27 0 44 -19 44 -47v-7c0 -28 -17 -47 -44 -47c-28 0 -45 19 -45 47v7c0 28 17 47 45 47zM351 664c27 0 44 -19 44 -47v-7c0 -28 -17 -47 -44 -47s-44 19 -44 47v7c0 28 17 47 44 47zM506 244c0 -175 -108 -256 -235 -256c-126 0 -234 81 -234 256
c0 174 108 255 234 255c127 0 235 -81 235 -255zM422 244c0 122 -65 181 -151 181c-85 0 -150 -59 -150 -181c0 -123 64 -180 150 -180c87 0 151 57 151 180z" />
    <glyph glyph-name="q.alt1" horiz-adv-x="548" 
d="M481 456v-656h-82v243h-2c-16 -16 -56 -55 -157 -55c-117 0 -202 84 -202 252c0 181 115 259 263 259c99 0 153 -29 180 -43zM398 403c-19 9 -49 22 -105 22c-95 0 -170 -55 -170 -182c0 -132 56 -179 143 -179c76 0 112 36 132 60v279z" />
    <glyph glyph-name="udieresis.alt1" horiz-adv-x="550" 
d="M196 664c27 0 44 -19 44 -47v-7c0 -28 -17 -47 -44 -47c-28 0 -45 19 -45 47v7c0 28 17 47 45 47zM354 664c27 0 44 -19 44 -47v-7c0 -28 -17 -47 -44 -47s-44 19 -44 47v7c0 28 17 47 44 47zM484 487v-487h-79v55h-2c-17 -20 -57 -67 -161 -67c-111 0 -176 59 -176 200
v299h83v-282c0 -103 37 -141 120 -141c69 0 110 38 132 61v362h83z" />
    <glyph glyph-name="ydieresis.alt1" horiz-adv-x="491" 
d="M171 664c27 0 44 -19 44 -47v-7c0 -28 -17 -47 -44 -47c-28 0 -45 19 -45 47v7c0 28 17 47 45 47zM329 664c27 0 44 -19 44 -47v-7c0 -28 -17 -47 -44 -47s-44 19 -44 47v7c0 28 17 47 44 47zM480 487l-182 -459c-72 -179 -120 -234 -279 -234v77c111 0 152 45 192 147
l-197 469h91l148 -376h2l138 376h87z" />
    <glyph glyph-name="dieresis.alt1" horiz-adv-x="333" 
d="M88 664c27 0 44 -19 44 -47v-7c0 -28 -17 -47 -44 -47c-28 0 -45 19 -45 47v7c0 28 17 47 45 47zM246 664c27 0 44 -19 44 -47v-7c0 -28 -17 -47 -44 -47s-44 19 -44 47v7c0 28 17 47 44 47z" />
    <glyph glyph-name="comma.alt1" horiz-adv-x="221" 
d="M58 57c0 37 26 54 54 54c36 0 64 -28 64 -86c0 -96 -59 -143 -118 -172l-20 38c38 21 76 51 79 109h-6c-32 0 -53 26 -53 57z" />
    <glyph glyph-name="period.alt1" horiz-adv-x="221" 
d="M110 112c31 0 52 -21 52 -58v-4c0 -37 -21 -58 -52 -58c-30 0 -51 21 -51 58v4c0 37 21 58 51 58z" />
    <glyph glyph-name="semicolon.alt1" horiz-adv-x="221" 
d="M108 495c31 0 52 -21 52 -58v-4c0 -37 -21 -58 -52 -58c-30 0 -51 21 -51 58v4c0 37 21 58 51 58zM58 57c0 37 26 54 54 54c36 0 64 -28 64 -86c0 -96 -59 -143 -118 -172l-20 38c38 21 76 51 79 109h-6c-32 0 -53 26 -53 57z" />
    <glyph glyph-name="colon.alt1" horiz-adv-x="221" 
d="M110 495c31 0 52 -21 52 -58v-4c0 -37 -21 -58 -52 -58c-30 0 -51 21 -51 58v4c0 37 21 58 51 58zM110 112c31 0 52 -21 52 -58v-4c0 -37 -21 -58 -52 -58c-30 0 -51 21 -51 58v4c0 37 21 58 51 58z" />
    <glyph glyph-name="ellipsis.alt1" horiz-adv-x="842" 
d="M147 111c31 0 52 -20 52 -57v-4c0 -37 -21 -58 -52 -58c-30 0 -51 21 -51 58v4c0 37 21 57 51 57zM421 111c31 0 52 -20 52 -57v-4c0 -37 -21 -58 -52 -58c-30 0 -52 21 -52 58v4c0 37 22 57 52 57zM695 111c31 0 52 -20 52 -57v-4c0 -37 -21 -58 -52 -58s-52 21 -52 58
v4c0 37 21 57 52 57z" />
    <glyph glyph-name="periodcentered.alt1" horiz-adv-x="221" 
d="M110 372c31 0 52 -21 52 -58v-4c0 -37 -21 -58 -52 -58c-30 0 -51 21 -51 58v4c0 37 21 58 51 58z" />
    <glyph glyph-name="exclam.alt1" horiz-adv-x="260" 
d="M186 690l-10 -517h-75l-10 517h95zM138 112c31 0 52 -21 52 -58v-4c0 -37 -21 -58 -52 -58c-30 0 -51 21 -51 58v4c0 37 21 58 51 58z" />
    <glyph glyph-name="exclamdown.alt1" horiz-adv-x="260" 
d="M122 375c-31 0 -52 21 -52 58v4c0 37 21 58 52 58c30 0 51 -21 51 -58v-4c0 -37 -21 -58 -51 -58zM74 -203l10 517h75l10 -517h-95z" />
    <glyph glyph-name="question.alt1" horiz-adv-x="398" 
d="M385 557c0 -160 -193 -173 -193 -276c0 -50 27 -84 45 -106v-2h-86c-18 22 -42 55 -42 116c0 123 191 149 191 258c0 52 -33 79 -96 79c-77 0 -130 -36 -154 -54l-31 66c28 22 94 64 202 64c105 0 164 -52 164 -145zM195 112c31 0 52 -21 52 -58v-4
c0 -37 -21 -58 -52 -58c-30 0 -51 21 -51 58v4c0 37 21 58 51 58z" />
    <glyph glyph-name="questiondown.alt1" horiz-adv-x="383" 
d="M203 375c-31 0 -52 21 -52 58v4c0 37 21 58 52 58c30 0 51 -21 51 -58v-4c0 -37 -21 -58 -51 -58zM13 -70c0 160 193 173 193 276c0 50 -27 84 -45 106v2h86c18 -22 42 -55 42 -116c0 -123 -191 -149 -191 -258c0 -52 33 -79 96 -79c77 0 130 36 154 54l31 -66
c-28 -22 -94 -64 -202 -64c-105 0 -164 52 -164 145z" />
    <glyph glyph-name="ampersand.alt1" horiz-adv-x="652" 
d="M55 162c0 104 67 160 133 198c-42 47 -70 95 -70 169c0 110 74 173 176 173c94 0 156 -59 156 -154c0 -112 -65 -164 -138 -204c10 -10 19 -20 29 -30l111 -120c26 53 43 119 53 194l78 -17c-13 -96 -38 -176 -76 -237l122 -132v-2h-111l-62 69
c-55 -53 -127 -81 -220 -81c-112 0 -181 64 -181 174zM200 528c0 -54 27 -94 65 -135c61 34 105 71 105 148c0 56 -34 86 -79 86c-55 0 -91 -36 -91 -99zM141 172c0 -69 40 -110 108 -110c66 0 117 23 156 63l-130 143c-13 15 -27 28 -39 41c-54 -31 -95 -69 -95 -137z" />
    <glyph glyph-name="quotedblbase.alt1" horiz-adv-x="347" 
d="M53 52c0 30 24 48 50 48c30 0 52 -21 52 -73c0 -92 -56 -136 -110 -160l-17 34c34 16 75 42 75 99h-2c-30 0 -48 22 -48 52zM205 52c0 30 24 48 50 48c30 0 52 -21 52 -73c0 -92 -56 -136 -110 -160l-17 34c34 16 75 42 75 99h-2c-30 0 -48 22 -48 52z" />
    <glyph glyph-name="quoteleft.alt1" horiz-adv-x="195" 
d="M143 517c0 -30 -24 -48 -50 -48c-30 0 -52 21 -52 73c0 92 56 136 110 160l17 -34c-34 -16 -75 -42 -75 -99h2c30 0 48 -22 48 -52z" />
    <glyph glyph-name="quoteright.alt1" horiz-adv-x="195" 
d="M155 623c0 -92 -56 -136 -110 -160l-17 34c34 16 75 42 75 99h-2c-30 0 -48 22 -48 52s24 48 50 48c30 0 52 -21 52 -73z" />
    <glyph glyph-name="quotedblleft.alt1" horiz-adv-x="347" 
d="M143 517c0 -30 -24 -48 -50 -48c-30 0 -52 21 -52 73c0 92 56 136 110 160l17 -34c-34 -16 -75 -42 -75 -99h2c30 0 48 -22 48 -52zM193 542c0 92 56 136 110 160l17 -34c-34 -16 -75 -42 -75 -99h2c30 0 48 -22 48 -52s-24 -48 -50 -48c-30 0 -52 21 -52 73z" />
    <glyph glyph-name="quotedblright.alt1" horiz-adv-x="347" 
d="M155 623c0 -92 -56 -136 -110 -160l-17 34c34 16 75 42 75 99h-2c-30 0 -48 22 -48 52s24 48 50 48c30 0 52 -21 52 -73zM204 648c0 30 24 48 50 48c30 0 52 -21 52 -73c0 -92 -56 -136 -110 -160l-17 34c34 16 75 42 75 99h-2c-30 0 -48 22 -48 52z" />
    <glyph glyph-name="exclamdown.uc.alt1" horiz-adv-x="260" 
d="M122 578c-31 0 -52 21 -52 58v4c0 37 21 58 52 58c30 0 51 -21 51 -58v-4c0 -37 -21 -58 -51 -58zM74 0l10 517h75l10 -517h-95z" />
    <glyph glyph-name="questiondown.uc.alt1" horiz-adv-x="398" 
d="M203 578c-31 0 -52 21 -52 58v4c0 37 21 58 52 58c30 0 51 -21 51 -58v-4c0 -37 -21 -58 -51 -58zM13 133c0 160 193 173 193 276c0 50 -27 84 -45 106v2h86c18 -22 42 -55 42 -116c0 -123 -191 -149 -191 -258c0 -52 33 -79 96 -79c77 0 130 36 154 54l31 -66
c-28 -22 -94 -64 -202 -64c-105 0 -164 52 -164 145z" />
    <glyph glyph-name="a.alt2" horiz-adv-x="550" 
d="M484 487v-487h-79v55h-2c-17 -21 -53 -67 -154 -67c-123 0 -209 82 -209 254c0 174 104 257 217 257c93 0 129 -44 146 -67h2v55h79zM125 243c0 -125 62 -179 145 -179c75 0 109 35 131 60v240c-21 25 -52 61 -126 61c-83 0 -150 -55 -150 -182z" />
    <glyph glyph-name="aacute.alt2" horiz-adv-x="550" 
d="M440 685v-2l-129 -137h-82l106 139h105zM484 487v-487h-79v55h-2c-17 -21 -53 -67 -154 -67c-123 0 -209 82 -209 254c0 174 104 257 217 257c93 0 129 -44 146 -67h2v55h79zM125 243c0 -125 62 -179 145 -179c75 0 109 35 131 60v240c-21 25 -52 61 -126 61
c-83 0 -150 -55 -150 -182z" />
    <glyph glyph-name="acircumflex.alt2" horiz-adv-x="550" 
d="M414 545h-68l-76 88h-1l-76 -88h-68l95 141h99zM484 487v-487h-79v55h-2c-17 -21 -53 -67 -154 -67c-123 0 -209 82 -209 254c0 174 104 257 217 257c93 0 129 -44 146 -67h2v55h79zM125 243c0 -125 62 -179 145 -179c75 0 109 35 131 60v240c-21 25 -52 61 -126 61
c-83 0 -150 -55 -150 -182z" />
    <glyph glyph-name="adieresis.alt2" horiz-adv-x="550" 
d="M232 661v-91h-82v91h82zM389 661v-91h-81v91h81zM484 487v-487h-79v55h-2c-17 -21 -53 -67 -154 -67c-123 0 -209 82 -209 254c0 174 104 257 217 257c93 0 129 -44 146 -67h2v55h79zM125 243c0 -125 62 -179 145 -179c75 0 109 35 131 60v240c-21 25 -52 61 -126 61
c-83 0 -150 -55 -150 -182z" />
    <glyph glyph-name="ae.alt2" horiz-adv-x="853" 
d="M39 241c0 174 102 258 213 258c91 0 126 -44 142 -67h2v55h72v-62c36 48 91 74 157 74c124 0 191 -78 191 -235v-46h-340c7 -103 60 -154 161 -154c86 0 130 36 146 51l31 -64c-22 -20 -77 -63 -190 -63c-81 0 -145 25 -185 81c-29 -34 -85 -81 -188 -81
c-128 0 -212 71 -212 253zM124 243c0 -129 53 -179 143 -179c77 0 119 35 143 64c-11 33 -17 73 -17 119v117c-21 25 -51 62 -123 62c-80 0 -146 -56 -146 -183zM615 426c-75 0 -130 -51 -139 -139h260c-1 89 -39 139 -121 139z" />
    <glyph glyph-name="agrave.alt2" horiz-adv-x="550" 
d="M310 546h-81l-129 137v2h105zM484 487v-487h-79v55h-2c-17 -21 -53 -67 -154 -67c-123 0 -209 82 -209 254c0 174 104 257 217 257c93 0 129 -44 146 -67h2v55h79zM125 243c0 -125 62 -179 145 -179c75 0 109 35 131 60v240c-21 25 -52 61 -126 61
c-83 0 -150 -55 -150 -182z" />
    <glyph glyph-name="aring.alt2" horiz-adv-x="550" 
d="M363 626c0 -52 -38 -85 -93 -85s-93 33 -93 85c0 51 38 84 93 84s93 -33 93 -84zM315 626c0 25 -17 41 -45 41s-45 -16 -45 -41s17 -41 45 -41s45 16 45 41zM484 487v-487h-79v55h-2c-17 -21 -53 -67 -154 -67c-123 0 -209 82 -209 254c0 174 104 257 217 257
c93 0 129 -44 146 -67h2v55h79zM125 243c0 -125 62 -179 145 -179c75 0 109 35 131 60v240c-21 25 -52 61 -126 61c-83 0 -150 -55 -150 -182z" />
    <glyph glyph-name="atilde.alt2" horiz-adv-x="550" 
d="M422 662c0 -71 -25 -113 -80 -113c-64 0 -97 61 -141 61c-26 0 -35 -21 -37 -53h-47c0 72 25 114 80 114c64 0 97 -61 141 -61c26 0 35 20 37 52h47zM484 487v-487h-79v55h-2c-17 -21 -53 -67 -154 -67c-123 0 -209 82 -209 254c0 174 104 257 217 257
c93 0 129 -44 146 -67h2v55h79zM125 243c0 -125 62 -179 145 -179c75 0 109 35 131 60v240c-21 25 -52 61 -126 61c-83 0 -150 -55 -150 -182z" />
    <glyph glyph-name="y.alt2" horiz-adv-x="548" 
d="M482 487v-445c0 -170 -69 -254 -237 -254c-108 0 -158 48 -182 71l36 69c19 -21 63 -66 148 -66c117 0 152 55 152 166v23h-2c-17 -20 -52 -63 -157 -63c-111 0 -176 59 -176 200v299h83v-282c0 -104 36 -141 120 -141c70 0 110 38 132 61v362h83z" />
    <glyph glyph-name="yacute.alt2" horiz-adv-x="548" 
d="M442 685v-2l-129 -137h-82l106 139h105zM482 487v-445c0 -170 -69 -254 -237 -254c-108 0 -158 48 -182 71l36 69c19 -21 63 -66 148 -66c117 0 152 55 152 166v23h-2c-17 -20 -52 -63 -157 -63c-111 0 -176 59 -176 200v299h83v-282c0 -104 36 -141 120 -141
c70 0 110 38 132 61v362h83z" />
    <glyph glyph-name="ydieresis.alt2" horiz-adv-x="548" 
d="M235 661v-91h-82v91h82zM392 661v-91h-81v91h81zM482 487v-445c0 -170 -69 -254 -237 -254c-108 0 -158 48 -182 71l36 69c19 -21 63 -66 148 -66c117 0 152 55 152 166v23h-2c-17 -20 -52 -63 -157 -63c-111 0 -176 59 -176 200v299h83v-282c0 -104 36 -141 120 -141
c70 0 110 38 132 61v362h83z" />
    <glyph glyph-name="a.alt3" horiz-adv-x="578" 
d="M556 67v-66c-4 -2 -22 -9 -52 -9c-45 0 -79 18 -95 60c-25 -28 -71 -64 -160 -64c-124 0 -210 78 -210 251c0 186 119 260 263 260c97 0 153 -27 181 -41v-331c0 -50 15 -63 46 -63c14 0 24 3 27 3zM124 239c0 -128 55 -175 143 -175c77 0 113 35 133 59v281
c-19 9 -49 21 -106 21c-95 0 -170 -50 -170 -186z" />
    <glyph glyph-name="aacute.alt3" horiz-adv-x="578" 
d="M457 685v-2l-129 -137h-82l106 139h105zM556 67v-66c-4 -2 -22 -9 -52 -9c-45 0 -79 18 -95 60c-25 -28 -71 -64 -160 -64c-124 0 -210 78 -210 251c0 186 119 260 263 260c97 0 153 -27 181 -41v-331c0 -50 15 -63 46 -63c14 0 24 3 27 3zM124 239
c0 -128 55 -175 143 -175c77 0 113 35 133 59v281c-19 9 -49 21 -106 21c-95 0 -170 -50 -170 -186z" />
    <glyph glyph-name="acircumflex.alt3" horiz-adv-x="578" 
d="M431 545h-68l-76 88h-1l-76 -88h-68l95 141h99zM556 67v-66c-4 -2 -22 -9 -52 -9c-45 0 -79 18 -95 60c-25 -28 -71 -64 -160 -64c-124 0 -210 78 -210 251c0 186 119 260 263 260c97 0 153 -27 181 -41v-331c0 -50 15 -63 46 -63c14 0 24 3 27 3zM124 239
c0 -128 55 -175 143 -175c77 0 113 35 133 59v281c-19 9 -49 21 -106 21c-95 0 -170 -50 -170 -186z" />
    <glyph glyph-name="adieresis.alt3" horiz-adv-x="578" 
d="M208 664c27 0 44 -19 44 -47v-7c0 -28 -17 -47 -44 -47c-28 0 -45 19 -45 47v7c0 28 17 47 45 47zM366 664c27 0 44 -19 44 -47v-7c0 -28 -17 -47 -44 -47s-44 19 -44 47v7c0 28 17 47 44 47zM556 67v-66c-4 -2 -22 -9 -52 -9c-45 0 -79 18 -95 60
c-25 -28 -71 -64 -160 -64c-124 0 -210 78 -210 251c0 186 119 260 263 260c97 0 153 -27 181 -41v-331c0 -50 15 -63 46 -63c14 0 24 3 27 3zM124 239c0 -128 55 -175 143 -175c77 0 113 35 133 59v281c-19 9 -49 21 -106 21c-95 0 -170 -50 -170 -186z" />
    <glyph glyph-name="ae.alt3" horiz-adv-x="854" 
d="M39 239c0 185 116 260 260 260c94 0 148 -25 166 -35v-46c36 53 93 81 162 81c124 0 190 -78 190 -235v-46h-340c8 -103 61 -154 161 -154c86 0 130 36 146 51l31 -62c-22 -20 -75 -65 -185 -65c-83 0 -149 26 -190 82c-29 -34 -85 -82 -189 -82c-128 0 -212 71 -212 251
zM616 426c-75 0 -130 -51 -139 -139h260c-1 89 -39 139 -121 139zM124 240c0 -127 54 -176 143 -176c78 0 121 36 144 65c-11 33 -17 72 -17 118v160c-14 6 -41 18 -102 18c-93 0 -168 -51 -168 -185z" />
    <glyph glyph-name="agrave.alt3" horiz-adv-x="578" 
d="M327 546h-81l-129 137v2h105zM556 67v-66c-4 -2 -22 -9 -52 -9c-45 0 -79 18 -95 60c-25 -28 -71 -64 -160 -64c-124 0 -210 78 -210 251c0 186 119 260 263 260c97 0 153 -27 181 -41v-331c0 -50 15 -63 46 -63c14 0 24 3 27 3zM124 239c0 -128 55 -175 143 -175
c77 0 113 35 133 59v281c-19 9 -49 21 -106 21c-95 0 -170 -50 -170 -186z" />
    <glyph glyph-name="aring.alt3" horiz-adv-x="578" 
d="M380 626c0 -52 -38 -85 -93 -85s-93 33 -93 85c0 51 38 84 93 84s93 -33 93 -84zM332 626c0 25 -17 41 -45 41s-45 -16 -45 -41s17 -41 45 -41s45 16 45 41zM556 67v-66c-4 -2 -22 -9 -52 -9c-45 0 -79 18 -95 60c-25 -28 -71 -64 -160 -64c-124 0 -210 78 -210 251
c0 186 119 260 263 260c97 0 153 -27 181 -41v-331c0 -50 15 -63 46 -63c14 0 24 3 27 3zM124 239c0 -128 55 -175 143 -175c77 0 113 35 133 59v281c-19 9 -49 21 -106 21c-95 0 -170 -50 -170 -186z" />
    <glyph glyph-name="atilde.alt3" horiz-adv-x="578" 
d="M439 662c0 -71 -25 -113 -80 -113c-64 0 -97 61 -141 61c-26 0 -35 -21 -37 -53h-47c0 72 25 114 80 114c64 0 97 -61 141 -61c26 0 35 20 37 52h47zM556 67v-66c-4 -2 -22 -9 -52 -9c-45 0 -79 18 -95 60c-25 -28 -71 -64 -160 -64c-124 0 -210 78 -210 251
c0 186 119 260 263 260c97 0 153 -27 181 -41v-331c0 -50 15 -63 46 -63c14 0 24 3 27 3zM124 239c0 -128 55 -175 143 -175c77 0 113 35 133 59v281c-19 9 -49 21 -106 21c-95 0 -170 -50 -170 -186z" />
    <glyph glyph-name="g.alt3" horiz-adv-x="549" 
d="M40 240c0 181 114 259 263 259c99 0 152 -29 180 -43v-414c0 -172 -79 -254 -247 -254c-112 0 -164 47 -189 71l35 72c18 -20 63 -68 154 -68c118 0 164 54 164 166v21h-2c-14 -17 -50 -62 -155 -62c-116 0 -203 84 -203 252zM125 243c0 -132 57 -179 143 -179
c77 0 111 36 132 60v279c-19 9 -49 22 -105 22c-96 0 -170 -57 -170 -182z" />
    <glyph glyph-name="ydieresis.alt3" horiz-adv-x="548" 
d="M194 664c27 0 44 -19 44 -47v-7c0 -28 -17 -47 -44 -47c-28 0 -45 19 -45 47v7c0 28 17 47 45 47zM352 664c27 0 44 -19 44 -47v-7c0 -28 -17 -47 -44 -47s-44 19 -44 47v7c0 28 17 47 44 47zM482 487v-445c0 -170 -69 -254 -237 -254c-108 0 -158 48 -182 71l36 69
c19 -21 63 -66 148 -66c117 0 152 55 152 166v23h-2c-17 -20 -52 -63 -157 -63c-111 0 -176 59 -176 200v299h83v-282c0 -104 36 -141 120 -141c70 0 110 38 132 61v362h83z" />
    <glyph glyph-name="arrowleft.ss01" horiz-adv-x="839" 
d="M325 570c0 -28 -22 -50 -49 -50c-28 0 -50 22 -50 50c0 27 22 50 50 50c27 0 49 -23 49 -50zM250 442c0 -28 -23 -50 -50 -50c-28 0 -50 22 -50 50c0 27 22 50 50 50c27 0 50 -23 50 -50zM175 315c0 -28 -23 -50 -50 -50c-28 0 -50 22 -50 50c0 27 22 49 50 49
c27 0 50 -22 50 -49zM325 315c0 -28 -22 -50 -49 -50c-28 0 -50 22 -50 50c0 27 22 49 50 49c27 0 49 -22 49 -49zM477 315c0 -28 -22 -50 -49 -50c-28 0 -51 22 -51 50c0 27 23 49 51 49c27 0 49 -22 49 -49zM628 315c0 -28 -23 -50 -50 -50c-28 0 -50 22 -50 50
c0 27 22 49 50 49c27 0 50 -22 50 -49zM779 315c0 -28 -22 -50 -49 -50c-28 0 -50 22 -50 50c0 27 22 49 50 49c27 0 49 -22 49 -49zM250 187c0 -28 -23 -50 -50 -50c-28 0 -50 22 -50 50c0 27 22 49 50 49c27 0 50 -22 50 -49zM325 60c0 -28 -22 -50 -49 -50
c-28 0 -50 22 -50 50c0 27 22 49 50 49c27 0 49 -22 49 -49z" />
    <glyph glyph-name="arrowup.ss01" horiz-adv-x="730" 
d="M415 616c0 -28 -23 -51 -50 -51s-50 23 -50 51c0 27 23 49 50 49s50 -22 50 -49zM287 540c0 -28 -23 -50 -50 -50s-50 22 -50 50c0 27 23 49 50 49s50 -22 50 -49zM542 540c0 -28 -22 -50 -49 -50c-28 0 -51 22 -51 50c0 27 23 49 51 49c27 0 49 -22 49 -49zM160 465
c0 -28 -23 -50 -50 -50c-28 0 -50 22 -50 50c0 27 22 49 50 49c27 0 50 -22 50 -49zM670 465c0 -28 -22 -50 -49 -50c-28 0 -51 22 -51 50c0 27 23 49 51 49c27 0 49 -22 49 -49zM415 465c0 -28 -23 -50 -50 -50s-50 22 -50 50c0 27 23 49 50 49s50 -22 50 -49zM415 313
c0 -27 -23 -50 -50 -50s-50 23 -50 50s23 50 50 50s50 -23 50 -50zM415 163c0 -28 -23 -51 -50 -51s-50 23 -50 51c0 27 23 49 50 49s50 -22 50 -49zM415 12c0 -28 -23 -50 -50 -50s-50 22 -50 50c0 27 23 49 50 49s50 -22 50 -49z" />
    <glyph glyph-name="arrowright.ss01" horiz-adv-x="841" 
d="M514 569c0 28 22 50 49 50c28 0 50 -22 50 -50c0 -27 -22 -49 -50 -49c-27 0 -49 22 -49 49zM589 442c0 28 23 50 50 50c28 0 50 -22 50 -50c0 -27 -22 -49 -50 -49c-27 0 -50 22 -50 49zM664 314c0 28 23 50 50 50c28 0 50 -22 50 -50c0 -27 -22 -49 -50 -49
c-27 0 -50 22 -50 49zM514 314c0 28 22 50 49 50c28 0 50 -22 50 -50c0 -27 -22 -49 -50 -49c-27 0 -49 22 -49 49zM362 314c0 28 22 50 49 50c28 0 51 -22 51 -50c0 -27 -23 -49 -51 -49c-27 0 -49 22 -49 49zM211 314c0 28 23 50 50 50c28 0 50 -22 50 -50
c0 -27 -22 -49 -50 -49c-27 0 -50 22 -50 49zM60 314c0 28 22 50 49 50c28 0 50 -22 50 -50c0 -27 -22 -49 -50 -49c-27 0 -49 22 -49 49zM589 187c0 28 23 50 50 50c28 0 50 -22 50 -50c0 -27 -22 -50 -50 -50c-27 0 -50 23 -50 50zM514 59c0 28 22 50 49 50
c28 0 50 -22 50 -50c0 -27 -22 -50 -50 -50c-27 0 -49 23 -49 50z" />
    <glyph glyph-name="arrowdown.ss01" horiz-adv-x="730" 
d="M315 617c0 28 23 50 50 50s50 -22 50 -50c0 -27 -23 -49 -50 -49s-50 22 -50 49zM315 466c0 28 23 51 50 51s50 -23 50 -51c0 -27 -23 -49 -50 -49s-50 22 -50 49zM315 316c0 27 23 50 50 50s50 -23 50 -50s-23 -50 -50 -50s-50 23 -50 50zM570 164c0 28 23 50 50 50
c28 0 50 -22 50 -50c0 -27 -22 -49 -50 -49c-27 0 -50 22 -50 49zM60 164c0 28 22 50 49 50c28 0 51 -22 51 -50c0 -27 -23 -49 -51 -49c-27 0 -49 22 -49 49zM315 164c0 28 23 50 50 50s50 -22 50 -50c0 -27 -23 -49 -50 -49s-50 22 -50 49zM443 89c0 28 23 50 50 50
s50 -22 50 -50c0 -27 -23 -49 -50 -49s-50 22 -50 49zM188 89c0 28 22 50 49 50c28 0 51 -22 51 -50c0 -27 -23 -49 -51 -49c-27 0 -49 22 -49 49zM315 13c0 28 23 51 50 51s50 -23 50 -51c0 -27 -23 -49 -50 -49s-50 22 -50 49z" />
    <glyph glyph-name="uni2196.ss01" horiz-adv-x="739" 
d="M539 598c0 -28 -23 -50 -50 -50c-28 0 -50 22 -50 50c0 27 22 49 50 49c27 0 50 -22 50 -49zM394 561c0 -28 -22 -50 -49 -50c-28 0 -50 22 -50 50c0 27 22 49 50 49c27 0 49 -22 49 -49zM251 524c0 -28 -22 -50 -49 -50c-28 0 -51 22 -51 50c0 27 23 49 51 49
c27 0 49 -22 49 -49zM358 417c0 -28 -22 -51 -49 -51c-28 0 -51 23 -51 51c0 27 23 49 51 49c27 0 49 -22 49 -49zM214 380c0 -28 -22 -51 -49 -51c-28 0 -51 23 -51 51c0 27 23 49 51 49c27 0 49 -22 49 -49zM464 310c0 -28 -22 -51 -49 -51c-28 0 -50 23 -50 51
c0 27 22 49 50 49c27 0 49 -22 49 -49zM176 236c0 -28 -22 -50 -49 -50c-28 0 -51 22 -51 50c0 27 23 50 51 50c27 0 49 -23 49 -50zM571 203c0 -28 -22 -51 -49 -51c-28 0 -50 23 -50 51c0 27 22 49 50 49c27 0 49 -22 49 -49zM679 96c0 -28 -23 -50 -50 -50
c-28 0 -50 22 -50 50c0 27 22 50 50 50c27 0 50 -23 50 -50z" />
    <glyph glyph-name="uni2197.ss01" horiz-adv-x="739" 
d="M200 598c0 27 23 49 50 49c28 0 50 -22 50 -49c0 -28 -22 -50 -50 -50c-27 0 -50 22 -50 50zM345 561c0 27 22 49 49 49c28 0 50 -22 50 -49c0 -28 -22 -50 -50 -50c-27 0 -49 22 -49 50zM488 524c0 27 22 49 49 49c28 0 51 -22 51 -49c0 -28 -23 -50 -51 -50
c-27 0 -49 22 -49 50zM381 417c0 27 22 49 49 49c28 0 51 -22 51 -49c0 -28 -23 -51 -51 -51c-27 0 -49 23 -49 51zM525 380c0 27 22 49 49 49c28 0 51 -22 51 -49c0 -28 -23 -51 -51 -51c-27 0 -49 23 -49 51zM275 310c0 27 22 49 49 49c28 0 50 -22 50 -49
c0 -28 -22 -51 -50 -51c-27 0 -49 23 -49 51zM563 236c0 27 22 50 49 50c28 0 51 -23 51 -50c0 -28 -23 -50 -51 -50c-27 0 -49 22 -49 50zM168 203c0 27 22 49 49 49c28 0 50 -22 50 -49c0 -28 -22 -51 -50 -51c-27 0 -49 23 -49 51zM60 96c0 27 23 50 50 50
c28 0 50 -23 50 -50c0 -28 -22 -50 -50 -50c-27 0 -50 22 -50 50z" />
    <glyph glyph-name="uni2198.ss01" horiz-adv-x="739" 
d="M60 562c0 28 23 50 50 50c28 0 50 -22 50 -50c0 -27 -22 -50 -50 -50c-27 0 -50 23 -50 50zM168 455c0 28 22 51 49 51c28 0 50 -23 50 -51c0 -27 -22 -49 -50 -49c-27 0 -49 22 -49 49zM563 422c0 28 22 50 49 50c28 0 51 -22 51 -50c0 -27 -23 -50 -51 -50
c-27 0 -49 23 -49 50zM275 348c0 28 22 51 49 51c28 0 50 -23 50 -51c0 -27 -22 -49 -50 -49c-27 0 -49 22 -49 49zM525 278c0 28 22 51 49 51c28 0 51 -23 51 -51c0 -27 -23 -49 -51 -49c-27 0 -49 22 -49 49zM381 241c0 28 22 51 49 51c28 0 51 -23 51 -51
c0 -27 -23 -49 -51 -49c-27 0 -49 22 -49 49zM488 134c0 28 22 50 49 50c28 0 51 -22 51 -50c0 -27 -23 -49 -51 -49c-27 0 -49 22 -49 49zM345 97c0 28 22 50 49 50c28 0 50 -22 50 -50c0 -27 -22 -49 -50 -49c-27 0 -49 22 -49 49zM200 60c0 28 23 50 50 50
c28 0 50 -22 50 -50c0 -27 -22 -49 -50 -49c-27 0 -50 22 -50 49z" />
    <glyph glyph-name="uni2199.ss01" horiz-adv-x="739" 
d="M679 562c0 -27 -23 -50 -50 -50c-28 0 -50 23 -50 50c0 28 22 50 50 50c27 0 50 -22 50 -50zM571 455c0 -27 -22 -49 -49 -49c-28 0 -50 22 -50 49c0 28 22 51 50 51c27 0 49 -23 49 -51zM176 422c0 -27 -22 -50 -49 -50c-28 0 -51 23 -51 50c0 28 23 50 51 50
c27 0 49 -22 49 -50zM464 348c0 -27 -22 -49 -49 -49c-28 0 -50 22 -50 49c0 28 22 51 50 51c27 0 49 -23 49 -51zM214 278c0 -27 -22 -49 -49 -49c-28 0 -51 22 -51 49c0 28 23 51 51 51c27 0 49 -23 49 -51zM358 241c0 -27 -22 -49 -49 -49c-28 0 -51 22 -51 49
c0 28 23 51 51 51c27 0 49 -23 49 -51zM251 134c0 -27 -22 -49 -49 -49c-28 0 -51 22 -51 49c0 28 23 50 51 50c27 0 49 -22 49 -50zM394 97c0 -27 -22 -49 -49 -49c-28 0 -50 22 -50 49c0 28 22 50 50 50c27 0 49 -22 49 -50zM539 60c0 -27 -23 -49 -50 -49
c-28 0 -50 22 -50 49c0 28 22 50 50 50c27 0 50 -22 50 -50z" />
    <glyph glyph-name="arrowleft.ss02" horiz-adv-x="816" 
d="M78 318c0 182 148 330 330 330s330 -148 330 -330s-148 -330 -330 -330s-330 148 -330 330zM170 318l224 -223l44 43l-147 147v2h358v63h-358v2l147 146l-44 44z" />
    <glyph glyph-name="arrowup.ss02" horiz-adv-x="816" 
d="M408 648c182 0 330 -148 330 -330s-148 -330 -330 -330s-330 148 -330 330s148 330 330 330zM408 556l-223 -224l43 -44l147 147h2v-358h63v358h2l146 -147l44 44z" />
    <glyph glyph-name="arrowright.ss02" horiz-adv-x="816" 
d="M738 318c0 -182 -148 -330 -330 -330s-330 148 -330 330s148 330 330 330s330 -148 330 -330zM646 318l-224 224l-44 -44l147 -146v-2h-358v-63h358v-2l-147 -147l44 -43z" />
    <glyph glyph-name="arrowdown.ss02" horiz-adv-x="816" 
d="M408 -12c-182 0 -330 148 -330 330s148 330 330 330s330 -148 330 -330s-148 -330 -330 -330zM408 80l223 224l-43 44l-147 -147h-2v358h-63v-358h-2l-146 147l-44 -44z" />
    <glyph glyph-name="uni2196.ss02" horiz-adv-x="816" 
d="M78 318c0 182 148 330 330 330s330 -148 330 -330s-148 -330 -330 -330s-330 148 -330 330zM240 486v-316h63l-1 207l1 1l254 -252l43 43l-252 254l1 1l207 -1v63h-316z" />
    <glyph glyph-name="uni2197.ss02" horiz-adv-x="816" 
d="M738 318c0 -182 -148 -330 -330 -330s-330 148 -330 330s148 330 330 330s330 -148 330 -330zM576 486h-316v-63l207 1l1 -1l-252 -254l43 -43l254 252l1 -1l-1 -207h63v316z" />
    <glyph glyph-name="uni2198.ss02" horiz-adv-x="816" 
d="M738 318c0 -182 -148 -330 -330 -330s-330 148 -330 330s148 330 330 330s330 -148 330 -330zM576 150v316h-63l1 -207l-1 -1l-254 252l-43 -43l252 -254l-1 -1l-207 1v-63h316z" />
    <glyph glyph-name="uni2199.ss02" horiz-adv-x="816" 
d="M78 318c0 182 148 330 330 330s330 -148 330 -330s-148 -330 -330 -330s-330 148 -330 330zM240 150h316v63l-207 -1l-1 1l252 254l-43 43l-254 -252l-1 1l1 207h-63v-316z" />
    <glyph glyph-name="orn001" unicode="&#xe001;" horiz-adv-x="1000" 
d="M1000 -200h-1000v1000h63v-937h937v-63zM250 800v-750h750v-63h-813v813h63zM438 800v-562h562v-63h-625v625h63zM625 800v-375h375v-63h-438v438h63zM1000 550h-250v250h63v-187h187v-63zM1000 800v-62h-62v62h62z" />
    <glyph glyph-name="orn002" unicode="&#xe002;" horiz-adv-x="1000" 
d="M1000 800v-63h-937v-937h-63v1000h1000zM250 -200h-63v813h813v-63h-750v-750zM438 -200h-63v625h625v-63h-562v-562zM625 -200h-63v438h438v-63h-375v-375zM1000 50v-63h-187v-187h-63v250h250zM1000 -200h-62v62h62v-62z" />
    <glyph glyph-name="orn003" unicode="&#xe003;" horiz-adv-x="1000" 
d="M0 -200v63h937v937h63v-1000h-1000zM750 800h63v-813h-813v63h750v750zM562 800h63v-625h-625v63h562v562zM375 800h63v-438h-438v63h375v375zM0 550v63h187v187h63v-250h-250zM0 800h62v-62h-62v62z" />
    <glyph glyph-name="orn004" unicode="&#xe004;" horiz-adv-x="1000" 
d="M0 800h1000v-1000h-63v937h-937v63zM750 -200v750h-750v63h813v-813h-63zM562 -200v562h-562v63h625v-625h-63zM375 -200v375h-375v63h438v-438h-63zM0 50h250v-250h-63v187h-187v63zM0 -200v62h62v-62h-62z" />
    <glyph glyph-name="orn005" unicode="&#xe005;" horiz-adv-x="1000" 
d="M939 800h59v-1000h-59v1000zM752 800h59v-1000h-59v1000zM564 800h59v-1000h-59v1000zM377 800h59v-1000h-59v1000zM189 800h59v-1000h-59v1000zM2 800h59v-1000h-59v1000z" />
    <glyph glyph-name="orn006" unicode="&#xe006;" horiz-adv-x="1000" 
d="M1000 800v-63h-1000v63h1000zM1000 613v-63h-1000v63h1000zM1000 425v-63h-1000v63h1000zM1000 238v-63h-1000v63h1000zM1000 50v-63h-1000v63h1000zM1000 -137v-63h-1000v63h1000z" />
    <glyph glyph-name="orn009" horiz-adv-x="1000" 
d="M143 700c0 -23 -20 -43 -43 -43s-43 20 -43 43s20 43 43 43s43 -20 43 -43zM343 700c0 -23 -20 -43 -43 -43s-43 20 -43 43s20 43 43 43s43 -20 43 -43zM543 700c0 -23 -20 -43 -43 -43s-43 20 -43 43s20 43 43 43s43 -20 43 -43zM743 700c0 -23 -20 -43 -43 -43
s-43 20 -43 43s20 43 43 43s43 -20 43 -43zM943 700c0 -23 -20 -43 -43 -43s-43 20 -43 43s20 43 43 43s43 -20 43 -43zM143 500c0 -23 -20 -43 -43 -43s-43 20 -43 43s20 43 43 43s43 -20 43 -43zM343 500c0 -23 -20 -43 -43 -43s-43 20 -43 43s20 43 43 43s43 -20 43 -43z
M543 500c0 -23 -20 -43 -43 -43s-43 20 -43 43s20 43 43 43s43 -20 43 -43zM743 500c0 -23 -20 -43 -43 -43s-43 20 -43 43s20 43 43 43s43 -20 43 -43zM943 500c0 -23 -20 -43 -43 -43s-43 20 -43 43s20 43 43 43s43 -20 43 -43zM943 300c0 -23 -20 -43 -43 -43
s-43 20 -43 43s20 43 43 43s43 -20 43 -43zM743 300c0 -23 -20 -43 -43 -43s-43 20 -43 43s20 43 43 43s43 -20 43 -43zM543 300c0 -23 -20 -43 -43 -43s-43 20 -43 43s20 43 43 43s43 -20 43 -43zM343 300c0 -23 -20 -43 -43 -43s-43 20 -43 43s20 43 43 43s43 -20 43 -43z
M143 300c0 -23 -20 -43 -43 -43s-43 20 -43 43s20 43 43 43s43 -20 43 -43zM143 100c0 -23 -20 -43 -43 -43s-43 20 -43 43s20 43 43 43s43 -20 43 -43zM343 100c0 -23 -20 -43 -43 -43s-43 20 -43 43s20 43 43 43s43 -20 43 -43zM543 100c0 -23 -20 -43 -43 -43
s-43 20 -43 43s20 43 43 43s43 -20 43 -43zM743 100c0 -23 -20 -43 -43 -43s-43 20 -43 43s20 43 43 43s43 -20 43 -43zM943 100c0 -23 -20 -43 -43 -43s-43 20 -43 43s20 43 43 43s43 -20 43 -43zM143 -100c0 -23 -20 -43 -43 -43s-43 20 -43 43s20 43 43 43s43 -20 43 -43
zM343 -100c0 -23 -20 -43 -43 -43s-43 20 -43 43s20 43 43 43s43 -20 43 -43zM543 -100c0 -23 -20 -43 -43 -43s-43 20 -43 43s20 43 43 43s43 -20 43 -43zM743 -100c0 -23 -20 -43 -43 -43s-43 20 -43 43s20 43 43 43s43 -20 43 -43zM943 -100c0 -23 -20 -43 -43 -43
s-43 20 -43 43s20 43 43 43s43 -20 43 -43z" />
    </font>
</defs>
</svg>
