<svg xmlns="http://www.w3.org/2000/svg" width="60" height="39" viewBox="0 0 60 39">
    <g fill="#FFF" fill-rule="evenodd">
        <path d="M56.309.858c-.986.44-1.75-.02-2.952 2.458-3.778 7.792-6.714 14.117-10.213 23.217.1-7.473 1.43-13.42 2.226-20.698.146-1.342.351-3.19.321-4.583C45.668.182 44.605.04 42.464 1.1c-1.19.59-2.622.54-3.169 1.962-2.327 6.052-7.7 22.88-10.195 32.396-.599 2.286 1.654 2.67 2.333.323 1.642-5.67 5.39-18.219 7.622-24.682-.224 5.917-1.83 15.27-1.08 20.177.236 1.543 1.669 2.21 2.408 3.515.525.93 1.367 1.023 1.83-.247 2.183-5.984 6.434-16.538 10.537-24.98-.804 3.716-3.889 19.487-4.746 25.773-.173 1.263 1.367 1.292 2.734 3.19.308.427 1.487.89 1.699-.201.729-3.77 5.491-28.255 7.355-36.034.502-2.096.358-3.15-3.483-1.434M24.693 18.696c1.677-2.452 2.162-1.954 2.564-2.7.504-.935.17-1.814-1.622-1.597 0 0-.677.047-1.926.187 1.986-5.014 3.723-9.267 4.976-12.503.425-1.097.481-1.9-.213-2.065-.742-.175-2.888.962-4.207 1.184-.42.07-.821.508-.959.818a365.188 365.188 0 0 0-5.645 13.424c-2.098.351-4.554.813-7.297 1.418 1.962-4.945 3.95-9.822 5.888-14.516.954-2.31-1.557-2.528-2.532-.187-1.263 3.04-3.635 8.733-6.258 15.372-1.929.463-3.971.993-6.11 1.598-1.552.44-1.62.845-.947 1.758.374.508 1.137.457 1.488.82.906.938 1.455 2.061 3.077 2.231A406.541 406.541 0 0 0 .767 35.404c-.822 2.363 1.52 2.847 2.42.346 1.45-4.03 2.98-8.11 4.55-12.179 1.309-.298 4.477-.966 7.405-1.589-2.324 6.239-3.853 10.978-4.428 13.284-.11.444.073.69.167.87.783 1.119 1.528 1.165 2.537 2.547.275.377 1.19.58 1.502-.347 2.15-6.372 4.363-12.35 6.427-17.71.857-.183 2.4-.548 3.346-1.93M26.5 28.204c-.152.128-.311.275-.473.426-.185-.55-.367-1.1-.537-1.628.51-.606 1.002-1.204 1.421-1.837 1.74-2.632-1.7-4.15-3.184-2.44-.79.911-.594 1.806-.375 2.574.066.234.174.587.3.984-.425.422-.931.948-1.607 1.71-1.68 1.897-1.222 4.358.577 4.902 1.095.33 2.116-.159 3.001-.922.043.108.09.232.13.33.47 1.143 1.926.797 1.371-.584-.095-.237-.22-.574-.354-.945.284-.35.549-.704.778-1.034 1.073-1.544.037-2.45-1.048-1.536zm-1.14-3.622c-.164.179-.317.337-.469.49-.036-.122-.077-.26-.103-.357-.499-1.838 1.667-1.335.572-.133zm-1.178 5.596c-.658.39-1.182-.03-.296-1.21.149-.199.306-.371.459-.562.148.443.301.89.456 1.333a5.341 5.341 0 0 1-.619.439z"/>
    </g>
</svg>
