<svg xmlns="http://www.w3.org/2000/svg" xmlns:xlink="http://www.w3.org/1999/xlink" width="311" height="27" viewBox="0 0 311 27">
    <defs>
        <path id="a" d="M.063.126h310.559v26.812H.063z"/>
        <path id="c" d="M0 0h311v27H0z"/>
        <path id="e" d="M0 0h311v27H0z"/>
        <path id="g" d="M0 0h311v27H0z"/>
        <path id="i" d="M.063.126h310.559v26.812H.063z"/>
        <path id="k" d="M0 0h311v27H0z"/>
        <path id="m" d="M0 0h311v27H0z"/>
        <path id="o" d="M0 0h311v27H0z"/>
        <path id="q" d="M.063.126h310.559v26.812H.063z"/>
        <path id="s" d="M0 0h311v27H0z"/>
        <path id="u" d="M0 0h311v27H0z"/>
        <path id="w" d="M0 0h311v27H0z"/>
    </defs>
    <g fill="none" fill-rule="evenodd">
        <g>
            <mask id="b" fill="#fff">
                <use xlink:href="#a"/>
            </mask>
            <g mask="url(#b)">
                <mask id="d" fill="#fff">
                    <use xlink:href="#c"/>
                </mask>
                <path fill="#000" fill-rule="nonzero" d="M.693 21.788V5.338c0-1.759 0-3.14-.693-4.647C3.274.69 5.666.502 7.24.502c8.31 0 15.613 4.207 15.613 13.626 0 5.023-3.777 12.495-15.487 12.495-2.078 0-4.03-.188-7.429-.188.693-1.319.756-2.763.756-4.647zM3.777 2.826v21.348c.567.126 2.204.252 3.715.252 10.702 0 12.15-6.719 12.15-10.36 0-6.406-4.47-11.492-12.78-11.492-1.448.063-2.455.126-3.085.252z" mask="url(#d)"/>
            </g>
        </g>
        <g>
            <mask id="f" fill="#fff">
                <use xlink:href="#e"/>
            </mask>
            <path fill="#000" fill-rule="nonzero" d="M47.405 13.186h-6.421v11.302h8.184c1.763 0 3.085-.25 4.218-.69l-.944 2.7c-.567-.063-.944-.063-1.448-.063H37.27c.692-1.444.692-2.888.692-4.772v-16.2c0-1.821-.063-3.265-.692-4.772h11.772c.693 0 1.196 0 2.015-.063V3.39c-.944-.691-2.518-.691-2.959-.691h-7.114v8.54h8.247c.504 0 .819 0 1.448-.063v2.637c-.189-.251-.818-.628-3.274-.628" mask="url(#f)"/>
        </g>
        <g>
            <mask id="h" fill="#fff">
                <use xlink:href="#g"/>
            </mask>
            <path fill="#000" fill-rule="nonzero" d="M69.503 5.463c0-1.821 0-3.265-.693-4.772 2.896 0 3.778-.189 6.548-.189 4.784 0 8.373 2.01 8.373 6.154 0 2.763-1.889 4.646-3.652 5.4 3.274 1.004 5.352 3.579 5.352 6.593 0 2.449-1.637 7.974-9.947 7.974-1.574 0-4.03-.188-6.737-.188.63-1.444.693-2.888.693-4.772v-16.2h.063zm5.54-3.014c-.819 0-1.826.063-2.518.188v8.728c.818.063 1.762.063 2.644.063 3.525 0 5.729-1.57 5.729-4.27-.063-3.956-3.526-4.71-5.855-4.71zm.252 10.863c-.378 0-1.889.062-2.833.125v10.989c.944.125 1.825.125 2.833.125 3.903 0 6.925-1.632 6.925-5.777.063-4.081-3.715-5.462-6.925-5.462z" mask="url(#h)"/>
        </g>
        <g>
            <mask id="j" fill="#fff">
                <use xlink:href="#i"/>
            </mask>
            <g mask="url(#j)">
                <mask id="l" fill="#fff">
                    <use xlink:href="#k"/>
                </mask>
                <path fill="#000" fill-rule="nonzero" d="M111.872 13.186h-6.359v11.302h8.185c1.762 0 3.084-.25 4.218-.69l-.945 2.7c-.566-.063-.944-.063-1.448-.063h-13.661c.692-1.444.692-2.888.692-4.772v-16.2c0-1.821-.063-3.265-.692-4.772h11.773c.692 0 1.196 0 2.014-.063V3.39c-.944-.691-2.518-.691-2.959-.691h-7.114v8.54h8.247c.504 0 .819 0 1.448-.063v2.637c-.251-.251-.944-.628-3.4-.628" mask="url(#l)"/>
                <g>
                    <mask id="n" fill="#fff">
                        <use xlink:href="#m"/>
                    </mask>
                    <path fill="#000" fill-rule="nonzero" d="M134.032 5.463c0-2.135-.189-3.203-1.574-4.772h4.344l16.746 19.214V5.463c0-1.821-.063-3.265-.692-4.772h3.651c-.692 1.444-.692 2.888-.692 4.772V27L136.299 4.772v16.954c0 1.82.063 3.265.692 4.772h-3.651c.692-1.445.692-2.889.692-4.772V5.463" mask="url(#n)"/>
                </g>
            </g>
        </g>
        <g>
            <mask id="p" fill="#fff">
                <use xlink:href="#o"/>
            </mask>
            <path fill="#000" fill-rule="nonzero" d="M192.266 13.249h-14.732v8.477c0 1.82.063 3.265.693 4.772h-4.407c.693-1.445.693-2.889.693-4.772V5.463c0-1.821-.063-3.265-.693-4.772h4.407c-.693 1.444-.693 2.888-.693 4.772v5.588h14.669V5.463c0-1.821-.063-3.265-.692-4.772h4.406c-.692 1.444-.692 2.888-.692 4.772v16.263c0 1.82.063 3.265.692 4.772h-4.406c.692-1.445.692-2.889.692-4.772v-8.477" mask="url(#p)"/>
        </g>
        <g>
            <mask id="r" fill="#fff">
                <use xlink:href="#q"/>
            </mask>
            <g mask="url(#r)">
                <mask id="t" fill="#fff">
                    <use xlink:href="#s"/>
                </mask>
                <path fill="#000" fill-rule="nonzero" d="M227.458 16.702h-10.576l-2.14 5.212c-.756 1.82-1.323 3.265-1.197 4.584H209.2c1.07-.817 1.763-2.198 2.581-4.019l8.184-18.837c.315-.754.504-2.26.252-2.951h3.84c.126.502.315 1.004.504 1.507l8.688 20.218c.755 1.821 1.51 3.14 2.581 4.019h-4.973c.126-1.319-.378-2.763-1.196-4.584l-2.204-5.149zm-9.632-1.946h9.065l-4.658-10.36-4.407 10.36z" mask="url(#t)"/>
                <g>
                    <mask id="v" fill="#fff">
                        <use xlink:href="#u"/>
                    </mask>
                    <path fill="#000" fill-rule="nonzero" d="M273.416.69h3.525c-.567 1.508-.504 2.89-.252 4.836l1.826 16.325c.252 1.884.378 3.265 1.196 4.647h-4.596c.567-1.507.504-2.889.252-4.835L273.604 5.4 264.035 27 253.522 4.395l-1.196 17.268c-.126 1.884-.315 3.328.251 4.835h-3.714c.818-1.382 1.007-2.763 1.196-4.647l1.322-16.325c.126-1.884.315-3.391-.378-4.835h4.344l9.255 20.218L273.416.691" mask="url(#v)"/>
                </g>
                <g>
                    <mask id="x" fill="#fff">
                        <use xlink:href="#w"/>
                    </mask>
                    <path fill="#000" fill-rule="nonzero" d="M302.438 2.198c-2.518 0-4.344 1.758-4.344 3.579 0 1.82 1.26 3.076 4.722 5.274 4.658 2.951 7.743 4.772 7.743 8.665 0 4.082-3.903 7.284-8.436 7.284-1.951 0-5.477-.251-7.366-2.072v-3.39c1.826 2.322 3.589 3.453 6.989 3.453 3.273 0 5.603-2.01 5.603-5.024 0-1.883-1.763-3.265-5.352-5.525-2.203-1.57-6.736-4.207-6.736-8.163 0-3.893 3.777-6.153 7.429-6.153 1.826 0 4.029 0 5.918.941v3.077c-1.826-1.381-3.652-1.946-6.17-1.946" mask="url(#x)"/>
                </g>
            </g>
        </g>
    </g>
</svg>
