<svg xmlns="http://www.w3.org/2000/svg" width="349" height="29" viewBox="0 0 349 29">
    <g fill="#333" fill-rule="nonzero">
        <path d="M36.51 13.902c0-2.306.002-3.885.005-4.738a54.45 54.45 0 0 1 .032-1.887c.024-.534.112-.931.262-1.19.151-.258.438-.429.86-.511a3.574 3.574 0 0 1 .796-.072.262.262 0 0 0 .167-.086.262.262 0 0 0 .086-.168.198.198 0 0 0-.117-.194c-.08-.04-.21-.06-.39-.06-.55.004-1.185.016-1.904.037l-1.28.036c-.148-.003-.576-.015-1.285-.036a79.497 79.497 0 0 0-1.936-.036c-.179-.001-.309.019-.389.059a.198.198 0 0 0-.117.194.263.263 0 0 0 .072.168.247.247 0 0 0 .181.086c.113 0 .258.009.434.027.177.018.358.045.543.081.339.067.584.232.737.493.153.262.245.653.276 1.172.035.405.056 1.034.064 1.887.007.853.01 2.432.009 4.738v5.43c.001 1.497-.01 2.82-.036 3.968-.026 1.149-.074 2.046-.145 2.692-.044.455-.12.822-.226 1.1a.828.828 0 0 1-.607.53 5.79 5.79 0 0 1-.488.099c-.176.028-.34.044-.489.045-.09.004-.154.033-.194.086a.27.27 0 0 0-.059.167c.006.175.175.26.507.254a51.348 51.348 0 0 0 1.872-.054c.702-.032 1.127-.05 1.276-.055l1.38.055c.801.031 1.668.05 2.6.054.18-.002.31-.026.39-.073.08-.046.119-.107.117-.18a.27.27 0 0 0-.058-.168c-.04-.053-.105-.082-.195-.086a7.562 7.562 0 0 1-.656-.045c-.28-.029-.543-.062-.791-.1-.454-.074-.75-.25-.892-.53-.14-.277-.23-.644-.266-1.099-.07-.646-.112-1.543-.127-2.692a265.403 265.403 0 0 1-.018-3.968v-5.43zm43.375-7.493l3.98.072c1.484.044 2.49.219 3.018.525.529.306.801.698.819 1.176l.036.326c.017.213.046.358.086.434.04.077.096.114.167.11a.258.258 0 0 0 .2-.105.465.465 0 0 0 .09-.294c.004-.246.022-.759.054-1.539.032-.78.05-1.437.054-1.972a1.056 1.056 0 0 0-.018-.25c-.015-.07-.057-.109-.126-.112a2.184 2.184 0 0 0-.33.045c-.15.029-.34.062-.575.1-.251.037-.563.07-.936.099-.374.029-.821.044-1.344.045H73.046c-.206.001-.554-.01-1.045-.032-.49-.021-.975-.06-1.452-.113-.425-.062-.742-.136-.95-.221-.208-.086-.362-.132-.461-.14-.057.012-.116.086-.177.221a5.75 5.75 0 0 0-.15.358c-.044.229-.163.775-.356 1.638-.194.862-.304 1.426-.33 1.692.004.09.031.155.08.194.05.04.096.06.136.06a.3.3 0 0 0 .19-.05c.055-.037.1-.117.136-.24.046-.102.099-.224.158-.367a4.25 4.25 0 0 1 .349-.61c.215-.356.562-.605 1.04-.747.478-.143 1.205-.22 2.18-.231l4.596-.072v12.923c.003 1.497-.003 2.82-.018 3.968-.015 1.149-.057 2.046-.126 2.692-.046.457-.135.83-.267 1.118a.944.944 0 0 1-.674.547c-.148.038-.305.071-.47.1a2.945 2.945 0 0 1-.471.045c-.09.003-.155.025-.195.068a.208.208 0 0 0-.059.15.198.198 0 0 0 .118.194c.08.04.21.06.39.059.539-.005 1.187-.023 1.944-.054.757-.032 1.206-.05 1.348-.055l1.389.055c.79.031 1.643.05 2.556.054.18-.002.309-.026.389-.073.08-.046.119-.107.117-.18a.284.284 0 0 0-.045-.168c-.033-.053-.103-.082-.208-.086a12.889 12.889 0 0 1-1.448-.145c-.472-.074-.785-.25-.94-.53-.156-.277-.252-.644-.29-1.099-.07-.646-.112-1.543-.127-2.692a265.128 265.128 0 0 1-.018-3.968V6.409zM90.774 16.58c-.008 1.892.422 3.758 1.29 5.596.867 1.838 2.218 3.368 4.055 4.59 1.836 1.223 4.204 1.857 7.103 1.904 3.889-.093 6.977-1.327 9.264-3.701 2.288-2.374 3.458-5.328 3.51-8.86-.076-3.617-1.28-6.437-3.61-8.462-2.329-2.024-5.323-3.052-8.983-3.086-2.924.057-5.318.728-7.182 2.014-1.864 1.286-3.24 2.848-4.127 4.685-.887 1.837-1.327 3.61-1.32 5.32zm3.293-.833c.049-3.348.91-5.856 2.583-7.525 1.673-1.669 3.864-2.503 6.572-2.502 2.598.007 4.813.96 6.645 2.86 1.833 1.898 2.79 4.698 2.873 8.398-.054 2.932-.586 5.152-1.598 6.66-1.012 1.509-2.182 2.522-3.511 3.041-1.33.519-2.498.76-3.504.724-2.936-.038-5.332-1.084-7.188-3.14-1.855-2.056-2.813-4.895-2.872-8.516zm28.393 3.584c.004 1.497-.003 2.82-.022 3.968-.02 1.149-.072 2.046-.159 2.692-.06.455-.14.822-.24 1.1a.8.8 0 0 1-.592.53c-.15.037-.312.07-.488.099-.177.028-.34.044-.489.045-.09.004-.155.033-.195.086a.27.27 0 0 0-.058.167c.006.175.175.26.506.254a55.262 55.262 0 0 0 1.927-.054c.729-.032 1.136-.05 1.222-.055l1.357.055a72.6 72.6 0 0 0 2.55.054c.18-.002.31-.026.39-.073.08-.046.119-.107.118-.18a.285.285 0 0 0-.046-.168c-.033-.053-.102-.082-.208-.086a7.368 7.368 0 0 1-.651-.045c-.276-.029-.53-.062-.76-.1-.474-.074-.793-.25-.96-.53-.165-.277-.267-.644-.307-1.099-.069-.644-.111-1.536-.126-2.674a262.258 262.258 0 0 1-.018-3.95v-.724c0-.175.072-.26.217-.254l2.753.073a.605.605 0 0 1 .244.036.622.622 0 0 1 .19.145c.36.447.852 1.091 1.475 1.932a94.9 94.9 0 0 0 1.963 2.557 50.438 50.438 0 0 0 2.334 2.86c.67.749 1.339 1.304 2.009 1.664.376.216.817.373 1.32.471.504.098 1.198.146 2.081.145h1.99c.285 0 .484-.019.598-.059.113-.04.167-.105.162-.195a.248.248 0 0 0-.076-.167.296.296 0 0 0-.213-.086 4.898 4.898 0 0 1-.398-.013 7.307 7.307 0 0 1-.724-.096c-.39-.027-.868-.18-1.434-.457-.566-.276-1.27-.836-2.112-1.678a62.405 62.405 0 0 1-3.045-3.48 401.604 401.604 0 0 1-3.614-4.484c1.461-1.259 3.783-2.46 4.367-3.606.583-1.146.864-2.285.841-3.417-.042-1.073-.31-1.967-.805-2.683-.495-.716-.962-1.221-1.402-1.516a7.216 7.216 0 0 0-2.832-1.104 17.138 17.138 0 0 0-3.103-.235c-.573.003-1.318.015-2.235.036-.916.021-1.498.033-1.746.036a389.85 389.85 0 0 1-1.406-.036c-.793-.021-1.578-.033-2.357-.036-.18-.001-.31.019-.39.059a.199.199 0 0 0-.117.194.262.262 0 0 0 .086.168c.054.053.11.082.168.086.156 0 .341.008.556.022.215.015.391.031.53.05.508.069.847.239 1.017.511.17.273.265.67.285 1.19.035.405.056 1.034.063 1.887.008.853.01 2.432.01 4.738v5.43zm2.75-12.706a.352.352 0 0 1 .073-.222.513.513 0 0 1 .18-.14c.18-.04.483-.079.91-.118.428-.04.884-.06 1.37-.063 1.718.012 3.06.54 4.027 1.583.966 1.044 1.458 2.531 1.474 4.462-.012 1.18-.196 2.168-.552 2.964-.355.795-2.11 1.376-2.665 1.742a3.091 3.091 0 0 1-1.195.461c-.687.165-1.34.057-2.002-.058-.671-.09-1.138-.2-1.402-.33a.579.579 0 0 1-.163-.173.44.44 0 0 1-.054-.226V6.626zm25.11 7.276c-.002-2.306 0-3.885.004-4.738.003-.853.014-1.482.031-1.887.024-.534.112-.931.263-1.19.15-.258.437-.429.86-.511a3.574 3.574 0 0 1 .795-.072.262.262 0 0 0 .168-.086.262.262 0 0 0 .086-.168.199.199 0 0 0-.118-.194c-.08-.04-.21-.06-.39-.06-.55.004-1.185.016-1.903.037l-1.28.036c-.148-.003-.577-.015-1.285-.036a79.498 79.498 0 0 0-1.936-.036c-.18-.001-.31.019-.39.059a.198.198 0 0 0-.117.194.263.263 0 0 0 .072.168.247.247 0 0 0 .181.086c.113 0 .258.009.435.027.176.018.357.045.542.081.339.067.585.232.738.493.153.262.245.653.276 1.172.034.405.055 1.034.063 1.887s.01 2.432.01 4.738v5.43c0 1.497-.011 2.82-.037 3.968-.026 1.149-.074 2.046-.145 2.692-.044.455-.119.822-.226 1.1a.828.828 0 0 1-.606.53c-.15.037-.312.07-.489.099a3.27 3.27 0 0 1-.488.045c-.09.004-.155.033-.195.086a.27.27 0 0 0-.059.167c.006.175.175.26.507.254a51.348 51.348 0 0 0 1.873-.054c.7-.032 1.126-.05 1.275-.055l1.38.055c.801.031 1.668.05 2.601.054.18-.002.31-.026.389-.073.08-.046.12-.107.118-.18a.27.27 0 0 0-.06-.168c-.04-.053-.104-.082-.194-.086a7.562 7.562 0 0 1-.656-.045c-.28-.029-.543-.062-.791-.1-.453-.074-.75-.25-.891-.53-.141-.277-.23-.644-.267-1.099-.07-.646-.112-1.543-.127-2.692a265.14 265.14 0 0 1-.018-3.968v-5.43zm10.316 10.968c-.29.787-.632 1.43-1.027 1.928-.394.497-.944.796-1.65.896a8.185 8.185 0 0 1-.941.072.316.316 0 0 0-.2.072.236.236 0 0 0-.09.181c.006.175.211.26.615.254a45.686 45.686 0 0 0 1.977-.054c.634-.032 1.049-.05 1.244-.055.23.005.657.023 1.28.055.624.031 1.15.05 1.579.054.146 0 .26-.019.344-.059a.206.206 0 0 0 .126-.195.232.232 0 0 0-.068-.18c-.047-.047-.133-.071-.258-.073h-.289a1.397 1.397 0 0 1-.746-.185c-.215-.128-.328-.344-.34-.647a4.37 4.37 0 0 1 .127-.95c.083-.358.198-.73.344-1.114l1.81-4.923c.072-.175.18-.26.325-.253h7.346c.087-.002.148.01.185.036a.351.351 0 0 1 .104.145l2.86 7.059c.093.251.095.444.004.579-.091.134-.19.218-.294.253a1.331 1.331 0 0 0-.163.082c-.036.022-.054.067-.054.135.008.086.118.14.33.163.212.023.476.04.791.054 1.146.035 2.202.056 3.167.064.965.007 1.586.01 1.864.009.188 0 .354-.019.497-.059.143-.04.219-.105.226-.195a.218.218 0 0 0-.13-.194.591.591 0 0 0-.268-.059 4.714 4.714 0 0 1-.579-.036 4.062 4.062 0 0 1-.687-.145c-.342-.063-.735-.308-1.181-.733-.446-.425-.957-1.303-1.533-2.633a626.113 626.113 0 0 1-1.936-4.706c-.783-1.919-1.582-3.884-2.398-5.896-.816-2.012-1.53-3.768-2.14-5.266-.61-1.498-.997-2.435-1.162-2.811-.154-.348-.28-.62-.38-.82-.1-.198-.226-.299-.38-.302-.102-.014-.206.058-.312.217-.106.158-.256.484-.448.977l-7.49 19.258zm4.596-6.443c-.108 0-.145-.073-.108-.218l2.967-8.434c.18-.47.362-.47.543 0l3.148 8.434c.02.073.025.127.014.163-.012.037-.052.055-.122.055h-6.442zM194.05 28.67c.888.01 1.782-.063 2.683-.217.9-.154 1.695-.444 2.384-.869 1.12-.755 1.9-1.589 2.338-2.502.438-.913.648-1.829.63-2.747.024-1.3-.36-2.537-1.154-3.71-.794-1.174-2.147-2.41-4.058-3.71l-.905-.616c-1.549-1.03-2.63-1.92-3.243-2.674s-.907-1.6-.882-2.539c.032-1.089.448-1.915 1.248-2.48.801-.563 1.796-.847 2.986-.85 1.409.04 2.427.249 3.053.624.627.376.984.675 1.072.896.097.184.193.432.29.747.096.314.157.572.18.774a.83.83 0 0 0 .078.294c.037.068.107.103.212.104.106 0 .175-.055.208-.168.034-.112.049-.285.046-.52.006-1.045.03-1.832.072-2.362l.072-.896c.003-.088-.02-.147-.068-.176-.047-.03-.133-.043-.257-.041-.12.003-.261-.003-.426-.018a5.6 5.6 0 0 1-.696-.127c-.39-.094-.876-.177-1.457-.249a15.77 15.77 0 0 0-1.836-.113c-2.13.015-3.832.528-5.103 1.539-1.27 1.01-1.922 2.428-1.954 4.253-.025 1.048.306 2.092.99 3.131.686 1.04 1.876 2.192 3.57 3.457l1.447 1.086c1.403 1.004 2.425 1.883 3.067 2.638.643.755.96 1.662.95 2.72-.002 1.184-.405 2.155-1.208 2.914-.803.758-1.992 1.15-3.569 1.176a6.934 6.934 0 0 1-3.125-.678c-.972-.467-1.607-1.254-1.905-2.362a3.658 3.658 0 0 1-.095-.63 6.868 6.868 0 0 1-.013-.493c-.006-.247-.103-.368-.29-.362-.175.006-.26.175-.253.507-.023.263-.058.679-.104 1.249-.046.57-.072 1.24-.077 2.01-.008.398.017.668.072.81.056.14.189.256.398.347.67.304 1.42.52 2.249.648.828.127 1.623.189 2.383.185zm32.274.109c.986.004 1.946-.113 2.882-.353a8.09 8.09 0 0 0 2.583-1.168c1.22-.933 2.045-1.971 2.474-3.113.429-1.142.63-2.107.602-2.896.046-1.41-.3-2.77-1.04-4.077-.741-1.307-2.155-2.783-4.244-4.43l-1.013-.796c-1.704-1.312-2.874-2.407-3.51-3.285-.636-.878-.938-1.81-.905-2.796.03-1.332.46-2.362 1.29-3.091.83-.73 1.883-1.099 3.161-1.109 1.632.056 2.775.326 3.429.81.654.485 1.02.855 1.095 1.109.112.223.213.52.303.891.09.372.145.678.167.919.014.146.04.26.077.344.037.083.108.125.213.127.09.001.154-.065.194-.2.04-.134.06-.345.059-.633.006-1.225.03-2.15.072-2.774l.073-1.063c.003-.09-.021-.155-.073-.195-.051-.04-.147-.06-.29-.059a3.336 3.336 0 0 1-.483-.036 11.883 11.883 0 0 1-.783-.145c-.448-.11-.945-.197-1.493-.262a16.384 16.384 0 0 0-1.872-.1c-2.323.03-4.146.632-5.47 1.806-1.322 1.174-1.996 2.744-2.021 4.71-.044 1.208.26 2.431.914 3.67.653 1.24 1.916 2.634 3.79 4.186l1.629 1.339c1.535 1.24 2.617 2.335 3.248 3.285.63.95.934 2.027.913 3.23.002 1.215-.426 2.307-1.284 3.277-.858.97-2.155 1.482-3.89 1.538-1.25.014-2.378-.267-3.384-.841-1.006-.575-1.663-1.525-1.972-2.851a4.918 4.918 0 0 1-.095-.738 9.952 9.952 0 0 1-.014-.601c.003-.144-.012-.246-.045-.308s-.103-.092-.208-.09c-.09-.001-.155.045-.2.14-.043.094-.073.24-.09.439-.023.3-.058.785-.104 1.457a38.706 38.706 0 0 0-.077 2.38c-.009.469.019.789.082.959.063.17.217.31.461.416.745.358 1.526.611 2.343.76.818.15 1.653.222 2.506.218zm17.742-9.448c.004 1.497-.003 2.82-.022 3.968-.02 1.149-.072 2.046-.159 2.692a5.64 5.64 0 0 1-.24 1.113.746.746 0 0 1-.592.516c-.15.022-.312.05-.488.086a2.86 2.86 0 0 1-.489.06c-.09.003-.154.032-.194.085a.27.27 0 0 0-.06.167c.007.175.176.26.507.254.26 0 .555-.008.882-.023.328-.014.65-.03.964-.05a27.177 27.177 0 0 1 1.375-.036 44.66 44.66 0 0 1 2.642.073c.651.02 1.438.043 2.361.068.923.024 2.758.038 3.952.04.599.017 1.02-.016 1.266-.1.246-.082.415-.315.507-.696.097-.395.192-.944.285-1.647.093-.703.143-1.143.15-1.321a1.014 1.014 0 0 0-.041-.317c-.03-.097-.089-.148-.177-.154a.222.222 0 0 0-.203.1c-.048.069-.088.193-.122.37-.088.605-.248 1.07-.48 1.394a2.178 2.178 0 0 1-.968.742c-.445.156-1.752.251-2.369.285a23.15 23.15 0 0 1-1.592.041c-1.531.026-2.549-.126-3.053-.457-.505-.331-.753-1-.747-2.004a70.372 70.372 0 0 1-.013-2.462c.007-1.219.011-2.148.013-2.787v-2.57a.24.24 0 0 1 .041-.15c.03-.043.088-.065.177-.068.383 0 1.145.01 2.284.032 1.139.022 1.982.06 2.529.113.599.076 1.01.196 1.234.362.224.166.355.36.394.58.07.198.111.38.127.547.015.166.02.322.018.466 0 .187.072.283.217.29.107-.009.182-.074.226-.195.044-.122.065-.25.063-.385.002-.14.017-.421.046-.846.028-.424.061-.806.1-1.145.041-.503.093-.89.153-1.163.06-.272.093-.451.1-.538-.007-.175-.067-.26-.182-.253-.053.003-.118.042-.194.117l-.276.28a1.21 1.21 0 0 1-.615.313c-.25.052-.564.093-.941.122-.286.024-.824.04-1.612.051-.79.01-1.56.017-2.312.019l-1.396.003c-.086 0-.14-.028-.158-.082a.715.715 0 0 1-.023-.244V6.626a.578.578 0 0 1 .037-.245c.025-.054.073-.081.144-.081a176.413 176.413 0 0 1 3.243.048c.681.016 1.132.036 1.353.06.842.103 2.188.224 2.486.363.299.138.489.331.57.579.071.19.12.389.145.597.026.208.038.371.036.489-.006.26.079.392.254.398a.245.245 0 0 0 .185-.109.602.602 0 0 0 .104-.217c.037-.225.072-.572.104-1.04.033-.47.058-.798.077-.987.042-.427.094-.75.154-.968a2.64 2.64 0 0 0 .1-.48.542.542 0 0 0-.032-.2c-.022-.056-.06-.087-.113-.09a.558.558 0 0 0-.217.06 1.44 1.44 0 0 1-.218.085l-.588.09c-.259.04-.545.07-.86.091a174 174 0 0 1-3.02.016 941.438 941.438 0 0 1-5.355-.016l-1.37-.036a99.168 99.168 0 0 0-2.321-.036c-.18-.001-.31.019-.389.059a.198.198 0 0 0-.118.194.262.262 0 0 0 .086.168c.054.053.11.082.168.086.156 0 .341.008.556.022.215.015.391.031.53.05.508.069.847.239 1.017.511.17.273.265.67.285 1.19.035.405.056 1.034.063 1.887.008.853.01 2.432.01 4.738v5.43zm68.45 0c.004 1.497-.003 2.82-.022 3.968-.02 1.149-.072 2.046-.159 2.692-.06.457-.139.828-.24 1.113a.746.746 0 0 1-.592.516c-.15.022-.312.05-.488.086a2.86 2.86 0 0 1-.489.06c-.09.003-.155.032-.194.085a.27.27 0 0 0-.06.167c.007.175.176.26.507.254.26 0 .554-.008.882-.023.328-.014.65-.03.964-.05a27.174 27.174 0 0 1 1.375-.036 44.661 44.661 0 0 1 2.642.073c.651.02 1.438.043 2.361.068.923.024 2.844.038 4.038.04.599.017 1.02-.016 1.267-.1.245-.082.414-.315.506-.696.098-.395.193-.944.285-1.647.093-.703.143-1.143.15-1.321a1.015 1.015 0 0 0-.041-.317c-.03-.097-.088-.148-.176-.154a.222.222 0 0 0-.204.1c-.048.069-.088.193-.122.37-.088.605-.248 1.07-.48 1.394a2.178 2.178 0 0 1-.968.742c-.445.156-1.838.251-2.455.285a23.15 23.15 0 0 1-1.592.041c-1.531.026-2.549-.126-3.053-.457-.505-.331-.753-1-.747-2.004a70.322 70.322 0 0 1-.013-2.462c.007-1.219.011-2.148.013-2.787v-2.57a.24.24 0 0 1 .041-.15c.03-.043.088-.065.177-.068.383 0 1.145.01 2.284.032 1.139.022 1.982.06 2.528.113.6.076 1.011.196 1.235.362.224.166.355.36.394.58.07.198.111.38.127.547.015.166.02.322.018.466 0 .187.072.283.217.29.107-.009.182-.074.226-.195a1.09 1.09 0 0 0 .063-.385c.002-.14.017-.421.046-.846.028-.424.061-.806.099-1.145.042-.503.093-.89.154-1.163.06-.272.093-.451.1-.538-.007-.175-.067-.26-.182-.253-.053.003-.118.042-.194.117l-.276.28a1.21 1.21 0 0 1-.615.313c-.25.052-.564.093-.941.122-.286.024-.824.04-1.612.051-.79.01-1.56.017-2.312.019l-1.396.003c-.086 0-.14-.028-.158-.082a.716.716 0 0 1-.023-.244V6.626a.578.578 0 0 1 .037-.245c.025-.054.073-.081.144-.081a176.42 176.42 0 0 1 3.243.048c.681.016 1.132.036 1.353.06.841.103 2.015.224 2.314.363.298.138.488.331.57.579.07.19.119.389.145.597.025.208.037.371.036.489-.006.26.078.392.253.398a.245.245 0 0 0 .186-.109.602.602 0 0 0 .104-.217c.037-.225.071-.572.104-1.04.032-.47.058-.798.077-.987.042-.427.093-.75.153-.968.06-.22.094-.379.1-.48a.542.542 0 0 0-.032-.2c-.022-.056-.06-.087-.113-.09a.558.558 0 0 0-.217.06 1.44 1.44 0 0 1-.217.085l-.588.09c-.26.04-.546.07-.86.091-.317.012-1.67.017-2.847.016A941.427 941.427 0 0 1 314 5.07l-1.37-.036a99.165 99.165 0 0 0-2.321-.036c-.18-.001-.31.019-.39.059a.198.198 0 0 0-.117.194.262.262 0 0 0 .086.168c.054.053.11.082.168.086.156 0 .341.008.556.022.215.015.391.031.53.05.508.069.847.239 1.017.511.17.273.265.67.285 1.19.035.405.056 1.034.063 1.887.008.853.01 2.432.01 4.738v5.43zm27.979-12.923l3.98.072c1.483.044 2.489.219 3.017.525.529.306.802.698.82 1.176l.035.326c.018.213.046.358.086.434.04.077.096.114.168.11a.258.258 0 0 0 .199-.105.465.465 0 0 0 .09-.294c.005-.246.023-.759.054-1.539.032-.78.05-1.437.055-1.972a1.056 1.056 0 0 0-.018-.25c-.015-.07-.058-.109-.127-.112a2.184 2.184 0 0 0-.33.045c-.149.029-.34.062-.575.1-.25.037-.563.07-.936.099-.373.029-.821.044-1.344.045h-12.014c-.206.001-.554-.01-1.045-.032-.49-.021-.975-.06-1.452-.113-.425-.062-.742-.136-.95-.221-.208-.086-.362-.132-.461-.14-.057.012-.115.086-.177.221-.06.135-.11.254-.149.358-.044.229-.163.775-.357 1.638-.194.862-.304 1.426-.33 1.692.004.09.031.155.081.194.05.04.095.06.136.06a.3.3 0 0 0 .19-.05c.054-.037.1-.117.135-.24.046-.102.1-.224.159-.367a4.25 4.25 0 0 1 .348-.61c.216-.356.562-.605 1.04-.747.478-.143 1.205-.22 2.18-.231l4.597-.072v12.923c.003 1.497-.003 2.82-.018 3.968-.016 1.149-.058 2.046-.127 2.692-.046.457-.135.83-.267 1.118a.944.944 0 0 1-.674.547c-.148.038-.305.071-.47.1a2.945 2.945 0 0 1-.47.045c-.09.003-.155.025-.195.068a.208.208 0 0 0-.06.15.198.198 0 0 0 .118.194c.08.04.21.06.39.059.54-.005 1.188-.023 1.945-.054.756-.032 1.206-.05 1.348-.055l1.388.055c.791.031 1.643.05 2.556.054.18-.002.309-.026.389-.073.08-.046.12-.107.118-.18a.285.285 0 0 0-.046-.168c-.033-.053-.102-.082-.208-.086a12.889 12.889 0 0 1-1.448-.145c-.471-.074-.785-.25-.94-.53-.155-.277-.252-.644-.29-1.099-.069-.646-.111-1.543-.126-2.692a265.131 265.131 0 0 1-.018-3.968V6.409zM56.902 28.887c.953.003 1.9-.049 2.841-.155.941-.105 1.717-.284 2.329-.535.233-.097.393-.203.48-.318.086-.115.165-.312.235-.59.157-.612.307-1.376.451-2.293.145-.916.222-1.471.232-1.666a.602.602 0 0 0-.081-.3c-.052-.086-.111-.13-.179-.135-.093-.003-.158.029-.195.095-.037.066-.07.18-.098.34-.05.319-.169.735-.357 1.249a4.458 4.458 0 0 1-.748 1.33c-.56.616-1.22 1.017-1.98 1.203-.759.185-1.67.268-2.735.25-3.104-.097-5.585-1.22-7.446-3.373-1.86-2.153-2.813-4.757-2.86-7.813-.026-1.566.138-3.028.491-4.385.353-1.358 1.045-2.583 2.077-3.677.48-.55 1.22-1.04 2.219-1.467 1-.427 2.406-.653 4.219-.676 1.28.012 2.41.178 3.385.5.976.32 1.723.723 2.24 1.207.377.34.671.786.882 1.339.21.553.317 1.136.32 1.748-.002.218.012.381.041.49.03.109.093.163.187.163.083.003.154-.047.212-.15.058-.102.096-.27.114-.503.014-.26.025-.713.032-1.362.007-.65.018-1.249.033-1.798.033-.55.063-.949.089-1.198.026-.25.04-.432.04-.545a.337.337 0 0 0-.068-.232c-.05-.06-.146-.093-.289-.095a10.148 10.148 0 0 1-1.414-.168c-.476-.09-.98-.191-1.512-.304a22.789 22.789 0 0 0-2.179-.277c-.738-.058-1.4-.087-1.983-.086-2.176.022-3.962.341-5.357.958-1.395.616-2.514 1.399-3.357 2.347-1.244 1.429-2.097 2.92-2.56 4.471-.464 1.552-.683 2.87-.66 3.954-.029 1.5.201 3.058.692 4.671.49 1.614 1.42 3.108 2.788 4.481 1.106 1.091 2.422 1.914 3.946 2.47 1.525.555 3.353.833 5.483.835zM274.01 28.887c.954.003 1.9-.049 2.841-.155.941-.105 1.718-.284 2.33-.535.232-.097.392-.203.479-.318.087-.115.165-.312.236-.59.156-.612.306-1.376.45-2.293.145-.916.222-1.471.232-1.666a.602.602 0 0 0-.08-.3c-.052-.086-.112-.13-.18-.135-.093-.003-.158.029-.195.095a1.19 1.19 0 0 0-.097.34c-.05.319-.17.735-.358 1.249a4.458 4.458 0 0 1-.748 1.33c-.56.616-1.22 1.017-1.98 1.203-.758.185-1.67.268-2.734.25-3.104-.097-5.586-1.22-7.446-3.373-1.86-2.153-2.814-4.757-2.862-7.813-.025-1.566.14-3.028.492-4.385.353-1.358 1.045-2.583 2.077-3.677.48-.55 1.22-1.04 2.22-1.467.999-.427 2.405-.653 4.218-.676 1.28.012 2.41.178 3.386.5.976.32 1.722.723 2.239 1.207.377.34.671.786.882 1.339.21.553.318 1.136.321 1.748-.003.218.011.381.04.49.03.109.093.163.188.163.082.003.153-.047.211-.15.058-.102.096-.27.114-.503.015-.26.026-.713.032-1.362.007-.65.018-1.249.033-1.798.034-.55.064-.949.09-1.198.025-.25.039-.432.04-.545a.337.337 0 0 0-.07-.232c-.049-.06-.145-.093-.288-.095a10.149 10.149 0 0 1-1.414-.168c-.476-.09-.98-.191-1.512-.304a22.79 22.79 0 0 0-2.179-.277c-.738-.058-1.399-.087-1.983-.086-2.176.022-3.961.341-5.357.958-1.395.616-2.514 1.399-3.357 2.347-1.244 1.429-2.097 2.92-2.56 4.471-.464 1.552-.683 2.87-.659 3.954-.03 1.5.2 3.058.691 4.671.49 1.614 1.42 3.108 2.788 4.481 1.106 1.091 2.422 1.914 3.947 2.47 1.525.555 3.352.833 5.483.835zM180.13 9.754l-.088-.111c1.064-.749 1.755-1.5 2.074-2.253.319-.753.478-1.393.478-1.92 0-.36-.11-.54-.333-.54a1.36 1.36 0 0 0-.261.055 1.393 1.393 0 0 1-.363.056c-1.505.036-1.756-1.837-1.123-2.468.295-.305.693-.457 1.196-.457.6 0 1.119.244 1.559.734.44.49.66 1.174.66 2.052 0 .98-.28 1.855-.842 2.627-.56.772-1.546 1.513-2.958 2.225zM288.24 19.652a212.37 212.37 0 0 1-.023 3.969c-.02 1.148-.072 2.046-.159 2.692-.06.455-.14.821-.24 1.1a.8.8 0 0 1-.592.529c-.15.038-.312.07-.489.1a3.27 3.27 0 0 1-.488.045c-.09.003-.155.032-.195.086a.27.27 0 0 0-.058.167c.006.175.175.26.506.253a55.31 55.31 0 0 0 1.927-.054l1.222-.054 1.357.054c.787.032 1.637.05 2.55.054.18-.001.31-.025.39-.072.08-.047.119-.107.117-.181a.284.284 0 0 0-.045-.167c-.033-.054-.102-.083-.208-.086a7.367 7.367 0 0 1-.651-.046c-.276-.028-.53-.061-.76-.1-.474-.074-.793-.25-.96-.529-.165-.278-.268-.644-.307-1.1-.07-.644-.111-1.535-.126-2.673a262.237 262.237 0 0 1-.018-3.95v-.725c0-.175.072-.259.217-.253l2.753.072a.604.604 0 0 1 .244.037.623.623 0 0 1 .19.144c.36.448.852 1.092 1.475 1.933a94.93 94.93 0 0 0 1.963 2.556 50.438 50.438 0 0 0 2.334 2.86c.67.75 1.339 1.305 2.008 1.665.377.216.818.373 1.321.47.504.099 1.197.147 2.081.145h1.99c.285.001.484-.018.598-.058.113-.04.167-.105.162-.195a.248.248 0 0 0-.077-.167.296.296 0 0 0-.212-.086 4.897 4.897 0 0 1-.398-.014 7.309 7.309 0 0 1-.724-.095c-.39-.028-.868-.18-1.434-.457s-1.27-.836-2.112-1.679a62.397 62.397 0 0 1-3.045-3.48 401.4 401.4 0 0 1-3.614-4.484c1.461-1.258 3.783-2.46 4.367-3.606.583-1.145.864-2.284.841-3.416-.042-1.073-.31-1.968-.805-2.683-.495-.716-.962-1.221-1.402-1.516a7.216 7.216 0 0 0-2.832-1.104 17.136 17.136 0 0 0-3.103-.236c-.573.003-1.318.015-2.235.036-.916.022-1.498.034-1.746.037a389.68 389.68 0 0 1-1.406-.037 103.66 103.66 0 0 0-2.357-.036c-.18 0-.31.02-.39.06a.198.198 0 0 0-.117.194.262.262 0 0 0 .086.167c.054.054.11.082.168.086.156 0 .341.008.556.023.215.014.391.03.53.05.508.068.847.239 1.017.51.17.273.265.67.285 1.19.035.406.056 1.035.063 1.888.008.853.01 2.432.01 4.737v5.43zm2.75-12.706a.352.352 0 0 1 .072-.221.513.513 0 0 1 .18-.14c.18-.04.483-.08.91-.118.427-.04.884-.06 1.37-.064 1.718.012 3.06.54 4.027 1.584.966 1.044 1.458 2.531 1.474 4.462-.012 1.18-.196 2.168-.552 2.963-.356.796-2.11 1.377-2.666 1.742a3.09 3.09 0 0 1-1.194.462c-.687.165-1.34.056-2.002-.059-.671-.09-1.138-.2-1.402-.33a.58.58 0 0 1-.163-.172.44.44 0 0 1-.054-.226V6.946zM8.427 6.033a55.978 55.978 0 0 1-.67-1.802c-.176-.509-.268-.881-.275-1.117a.79.79 0 0 1 .083-.378c.06-.126.185-.235.372-.325.17-.07.382-.116.639-.141.257-.025.487-.037.691-.035.24.006.356-.076.35-.246 0-.17-.315-.253-.945-.247-.695.005-1.36.022-1.995.053-.634.03-1.054.048-1.26.053a96.62 96.62 0 0 1-1.575-.053c-.8-.03-1.64-.048-2.52-.053a3.382 3.382 0 0 0-.665.044c-.16.033-.242.1-.245.203a.24.24 0 0 0 .061.175c.043.046.116.07.22.07.114-.002.296.004.546.018.25.015.511.056.783.123.593.144 1.07.393 1.43.748.362.354.725 1.008 1.09 1.96l8.575 21.56c.317.83.558 1.404.722 1.724.164.32.343.472.538.457.153.02.32-.161.499-.545.18-.384.503-1.093.971-2.128.407-.877.993-2.227 1.759-4.049a1674.66 1674.66 0 0 0 2.756-6.608l2.485-6.018a318.497 318.497 0 0 0 1.435-3.513c.465-1.164.847-1.975 1.146-2.431.3-.457.559-.748.78-.875.345-.202.677-.326.997-.37.319-.043.546-.061.682-.052.28.006.42-.076.42-.246-.006-.17-.204-.253-.595-.247-.545.005-1.1.022-1.667.053-.566.03-.92.048-1.063.053-.239-.005-.688-.022-1.347-.053-.66-.03-1.354-.048-2.083-.053-.277-.001-.475.02-.595.062-.12.042-.178.116-.175.22.003.085.041.143.114.171a.707.707 0 0 0 .271.04 8.59 8.59 0 0 1 .652.017c.237.015.463.056.678.123a.78.78 0 0 1 .359.365c.067.15.099.299.096.444a2.597 2.597 0 0 1-.092.59c-.059.231-.133.48-.223.747-.297.95-.908 2.664-1.833 5.139a526.533 526.533 0 0 1-2.984 7.788 242.63 242.63 0 0 1-2.673 6.593L8.427 6.033z"/>
    </g>
</svg>
