<?xml version="1.0" encoding="UTF-8"?>
<svg width="41px" height="53px" viewBox="0 0 41 53" version="1.1" xmlns="http://www.w3.org/2000/svg" xmlns:xlink="http://www.w3.org/1999/xlink">
    <title>22197640-7720-4C88-A30A-E5EE89E76C32</title>
    <defs>
        <filter x="-21.3%" y="-99.6%" width="142.6%" height="299.2%" filterUnits="objectBoundingBox" id="filter-1">
            <feGaussianBlur stdDeviation="1.2" in="SourceGraphic"></feGaussianBlur>
        </filter>
        <path d="M18.7018905,0.296354487 C18.3681485,0.434214983 18.1094609,0.289834058 17.7031663,1.06669658 C16.4257398,3.5085972 15.4330199,5.49034183 14.2491613,8.34256372 C14.2836864,6.00033252 14.7335126,4.13688709 15.0022075,1.85566848 C15.0517434,1.43556656 15.1212938,0.85617988 15.1107862,0.419776891 C15.1032808,0.0844405486 14.7435199,0.0397290363 14.0194948,0.372270909 C13.617203,0.556705897 13.1328518,0.541336315 12.9482179,0.987054203 C12.1611471,2.88356752 10.3438291,8.15766299 9.50071768,11.139362 C9.29757036,11.8561434 10.059623,11.9758398 10.2892896,11.2408944 C10.8446924,9.46407749 12.1121115,5.53086164 12.8666587,3.50533698 C12.7911039,5.35993325 12.2477099,8.29086603 12.5013938,9.82875576 C12.5814519,10.3126647 13.0658031,10.5213185 13.3154842,10.9307082 C13.493113,11.2222646 13.7783199,11.2511407 13.9349335,10.8529288 C14.6729687,8.97783979 16.1105112,5.67011937 17.4975171,3.02422248 C17.2258201,4.18905053 16.1830638,9.13153561 15.8933537,11.1016366 C15.8348113,11.4975198 16.3551887,11.5068347 16.817524,12.101591 C16.9215994,12.2352598 17.3203887,12.3801064 17.3919405,12.0382497 C17.6386194,10.8571205 19.2492875,3.18350724 19.8792444,0.745798334 C20.0493678,0.0890979978 20.0003322,-0.241580895 18.7013902,0.296354487 M9.33139839,0.000895224882 L9.41815781,0.00572965715 C9.64832473,0.0569615983 9.62931094,0.309395345 9.48920934,0.654046585 C9.07440852,1.670302 8.5,3.00605843 7.84301549,4.58120775 C8.25581486,4.53742773 8.47997742,4.52252389 8.47997742,4.52252389 C9.07290743,4.45405938 9.18348762,4.73024612 9.01636642,5.02413117 C8.88377026,5.25793512 8.72365414,5.10191057 8.16825135,5.87178692 C7.85552456,6.30586119 7.34515443,6.42043444 7.06194904,6.47818681 C6.3117331,8.31823205 5.60273224,10.1726087 4.93540683,12.0401126 C4.91359131,12.140144 4.83129457,12.2192466 4.72458373,12.2427532 C4.61787288,12.2662598 4.50621562,12.229882 4.4385465,12.1495627 C4.10480447,11.7150227 3.85862593,11.7005846 3.59943797,11.3494129 C3.56841547,11.2930578 3.5073712,11.2157441 3.54389769,11.0760207 C3.73453594,10.3517873 4.23990244,8.86326654 5.00896018,6.90387766 C4.04075802,7.09949053 2.9924978,7.30954149 2.55968392,7.40315622 C2.04241613,8.67291169 1.54052037,9.94804681 1.05409203,11.2283192 C0.756376124,12.0135652 -0.0181856021,11.8617323 0.253511438,11.1193349 C0.697911094,9.91263824 1.16146462,8.71212699 1.64401986,7.51819521 C1.10763086,7.46510029 0.925999138,7.11206564 0.625781415,6.81771485 C0.510197591,6.70360735 0.257514341,6.71990842 0.133924711,6.56015791 C-0.0882364042,6.27325904 -0.0662204378,6.14611068 0.447151869,6.00778444 C1.15466497,5.81822625 1.83015485,5.65148957 2.46861787,5.50617716 C3.33624709,3.42103715 4.12081608,1.63257666 4.53861908,0.678265321 C4.86085277,-0.057145907 5.69145514,0.0113185962 5.37622653,0.736483436 C4.71568262,2.25202756 4.06636299,3.77178929 3.42831386,5.29566045 C4.33597211,5.10563653 5.14806106,4.96078986 5.84206436,4.85040831 C6.43476942,3.43384409 7.05734116,2.02826475 7.7094186,0.634485299 C7.75545198,0.53714461 7.88804815,0.399284114 8.02714902,0.377394103 C8.46296509,0.307532365 9.17298,-0.0492282434 9.41815781,0.00572965715 Z M7.78247158,7.20428314 C8.26982502,6.6668135 9.39964438,7.14420204 8.82822998,7.97276225 C8.69063019,8.17163533 8.52901298,8.35933054 8.36139142,8.55028595 C8.41793243,8.71655689 8.47747561,8.889814 8.53801952,9.06260536 C8.59105798,9.01509938 8.64309572,8.96899064 8.69313201,8.92847083 C9.04939037,8.64110621 9.38963713,8.9261421 9.03738166,9.41191405 C8.96182687,9.51577517 8.87526409,9.62708821 8.78169624,9.73746975 C8.81887674,9.83708263 8.8577431,9.93614337 8.89828078,10.034615 C9.07991251,10.469155 8.60206596,10.5781393 8.4479542,10.2181185 L8.4479542,10.2181185 L8.40542336,10.1142574 C8.11471253,10.3545818 7.7794694,10.5087433 7.42020886,10.4044165 C6.82928031,10.2334881 6.67867108,9.45895429 7.23057133,8.86233505 C7.45273245,8.62247642 7.61835256,8.45713697 7.7579538,8.32393392 C7.71692404,8.19911428 7.68139828,8.08826699 7.65938231,8.0146793 C7.58783042,7.77295768 7.52328361,7.49164775 7.78247158,7.20428314 Z M7.98511854,8.99181214 C7.93508226,9.05235898 7.88354488,9.10638539 7.83500968,9.16879521 C7.54429885,9.53999391 7.71642368,9.67273121 7.93208008,9.54930881 C8.00012943,9.51065198 8.06817878,9.463146 8.1352274,9.41098256 C8.08469075,9.27172483 8.0341541,9.13153561 7.98511854,8.99181214 Z M8.31886058,7.78925875 C8.67862148,7.41107388 7.96710548,7.25272061 8.1312245,7.8311758 L8.1312245,7.8311758 L8.16474881,7.94342032 C8.2147851,7.89498285 8.26532175,7.84514814 8.31886058,7.78879301 L8.31886058,7.78879301 Z" id="path-2"></path>
    </defs>
    <g id="Basket,-Checkput" stroke="none" stroke-width="1" fill="none" fill-rule="evenodd">
        <g id="Click-and-Collect---Aramex---Selected-Collection-Point---Desktop" transform="translate(-651.000000, -351.000000)">
            <g id="Group-13" transform="translate(158.000000, 84.000000)">
                <g id="Group-15" transform="translate(13.029412, 55.022727)">
                    <g id="Style/Icons/UI/Map-Pin/34px" transform="translate(479.970588, 211.977273)">
                        <ellipse id="Oval" fill="#000000" opacity="0.540039062" filter="url(#filter-1)" cx="20.5" cy="46.375" rx="8.44117647" ry="1.80681818"></ellipse>
                        <path d="M20.5,6.62272727 C24.3348835,6.62272727 27.8034696,8.1583124 30.3131083,10.6442783 C32.8206805,13.1281972 34.3705882,16.5609699 34.3705882,20.3568182 C34.3705882,29.8426892 22.9136389,43.3389841 20.4997701,46.0767297 C18.0847979,43.3371426 6.62941176,29.842042 6.62941176,20.3568182 C6.62941176,16.5609699 8.17931949,13.1281972 10.6868917,10.6442783 C13.1965304,8.1583124 16.6651165,6.62272727 20.5,6.62272727 Z" id="Shape" stroke="#000000" stroke-width="1.2" fill="#FFFFFF" fill-rule="nonzero"></path>
                        <g id="H&amp;M-Logo" transform="translate(10.539449, 14.333607)">
                            <mask id="mask-3" fill="white">
                                <use xlink:href="#path-2"></use>
                            </mask>
                            <use id="Combined-Shape" fill="#CD2026" fill-rule="nonzero" xlink:href="#path-2"></use>
                            <g id="Style/Color/H&amp;M-Primary-Red" mask="url(#mask-3)" fill="#CD2026">
                                <g transform="translate(-0.892390, -0.798845)" id="Rectangle-4-Copy-5">
                                    <rect x="0" y="0" width="21.7058824" height="14.1470019"></rect>
                                </g>
                            </g>
                        </g>
                    </g>
                </g>
            </g>
        </g>
    </g>
</svg>