<svg xmlns="http://www.w3.org/2000/svg" xmlns:xlink="http://www.w3.org/1999/xlink" width="35" height="56" viewBox="0 0 35 56">
    <defs>
        <filter id="prefix__a" width="185.7%" height="500%" x="-42.9%" y="-200%" filterUnits="objectBoundingBox">
            <feGaussianBlur in="SourceGraphic" stdDeviation="2"/>
        </filter>
        <path id="prefix__b" d="M19.796.344c-.352.153-.626-.007-1.055.856-1.348 2.716-2.396 4.92-3.646 8.09.036-2.604.51-4.676.795-7.212.052-.467.125-1.112.114-1.597-.008-.373-.387-.422-1.152-.053-.425.205-.936.188-1.131.684-.831 2.109-2.75 7.973-3.64 11.289-.215.797.59.93.832.113.587-1.976 1.925-6.35 2.722-8.602-.08 2.062-.654 5.321-.386 7.031.085.539.596.77.86 1.226.187.324.488.356.654-.087.779-2.085 2.297-5.763 3.761-8.705-.287 1.295-1.388 6.791-1.693 8.982-.062.44.487.45.975 1.112.11.148.531.31.607-.07.26-1.314 1.961-9.847 2.626-12.557.18-.73.128-1.098-1.244-.5M9.911.014l.083.007c.243.057.223.337.075.72-.438 1.13-1.045 2.616-1.739 4.367.436-.048.673-.065.673-.065.626-.076.743.231.566.558-.14.26-.309.086-.895.942-.33.483-.87.61-1.168.675-.792 2.046-1.54 4.108-2.246 6.184-.023.112-.11.2-.222.226-.113.026-.23-.015-.302-.104-.353-.483-.612-.5-.886-.89-.033-.062-.097-.148-.059-.304.201-.805.735-2.46 1.547-4.639-1.022.218-2.129.451-2.586.555-.546 1.412-1.076 2.83-1.59 4.254-.314.873-1.132.704-.845-.122.47-1.341.959-2.676 1.468-4.004-.566-.059-.758-.451-1.075-.779-.122-.127-.389-.108-.52-.286-.234-.32-.21-.46.331-.614.747-.211 1.46-.396 2.135-.558C3.572 3.818 4.4 1.83 4.84.769c.34-.818 1.218-.742.885.064-.698 1.685-1.383 3.375-2.057 5.07.959-.211 1.816-.373 2.549-.495C6.844 3.833 7.5 2.27 8.189.72c.049-.108.189-.262.336-.286.46-.078 1.21-.474 1.469-.413zM8.267 8.026c.514-.597 1.707-.067 1.104.855-.146.22-.316.43-.493.642l.186.57c.056-.053.111-.105.164-.15.376-.32.736-.002.364.538-.08.115-.172.24-.27.362.039.11.08.22.123.33.191.484-.313.605-.476.204l-.045-.115c-.307.267-.66.439-1.04.323-.624-.19-.783-1.052-.2-1.715.234-.267.41-.45.557-.599-.044-.139-.081-.262-.104-.344-.076-.269-.144-.581.13-.9zm.214 1.988c-.053.067-.108.127-.159.197-.307.412-.125.56.103.423.071-.043.143-.096.214-.154-.053-.155-.107-.31-.158-.466zm.352-1.337c.38-.42-.371-.597-.198.046l.035.125c.053-.054.106-.11.163-.172z"/>
    </defs>
    <g fill="none" fill-rule="evenodd" transform="translate(1 1)">
        <ellipse cx="16" cy="48.5" fill="#000" filter="url(#prefix__a)" opacity=".54" rx="7" ry="1.5"/>
        <path fill="#FFF" fill-rule="nonzero" stroke="#000" stroke-linejoin="round" stroke-width="1.637" d="M16.616 0C7.486 0 .103 7.43.103 16.616c0 12.462 16.513 30.858 16.513 30.858s16.513-18.396 16.513-30.858C33.129 7.43 25.745 0 16.616 0z"/>
        <g transform="translate(5.804 9.376)">
            <mask id="prefix__c" fill="#fff">
                <use xlink:href="#prefix__b"/>
            </mask>
            <use fill="#CD2026" fill-rule="nonzero" xlink:href="#prefix__b"/>
            <g fill="#CD2026" mask="url(#prefix__c)">
                <path d="M0 0H22.919V15.731H0z" transform="translate(-.893 -.874)"/>
            </g>
        </g>
    </g>
</svg>
