<svg width="24" height="34" xmlns="http://www.w3.org/2000/svg" xmlns:xlink="http://www.w3.org/1999/xlink">
    <defs>
        <path d="M15.509.246c-.277.114-.491-.005-.828.64-1.06 2.027-1.883 3.672-2.865 6.04.029-1.945.402-3.492.625-5.385.04-.35.099-.83.09-1.193-.006-.278-.305-.315-.905-.039-.334.153-.735.14-.888.51-.653 1.575-2.16 5.953-2.86 8.429-.168.595.464.694.655.084.46-1.475 1.511-4.74 2.137-6.422-.063 1.54-.513 3.973-.303 5.25.066.401.468.575.675.915.147.242.384.266.514-.065.612-1.557 1.804-4.303 2.954-6.5-.225.968-1.09 5.07-1.33 6.706-.049.33.383.337.766.83.087.112.417.232.477-.052.204-.98 1.54-7.351 2.062-9.375.141-.545.1-.82-.977-.373M7.73.001l.081.004c.191.042.175.252.06.538-.345.844-.821 1.953-1.366 3.26.342-.036.528-.048.528-.048.492-.057.584.172.445.416-.11.194-.243.065-.703.704-.26.36-.683.455-.918.503a112.575 112.575 0 0 0-1.763 4.618.225.225 0 0 1-.175.168.243.243 0 0 1-.237-.078c-.277-.36-.481-.372-.696-.664-.026-.047-.076-.11-.046-.227.158-.601.577-1.837 1.215-3.463-.803.162-1.672.336-2.031.414A143.774 143.774 0 0 0 .874 9.322c-.247.652-.89.525-.664-.09.369-1.003.753-2 1.153-2.99C.92 6.197.768 5.904.52 5.66.423 5.565.214 5.579.11 5.446c-.184-.238-.166-.344.26-.458a45.496 45.496 0 0 1 1.676-.417c.72-1.73 1.37-3.216 1.717-4.008.267-.61.956-.554.694.048a284.099 284.099 0 0 0-1.615 3.785 41.858 41.858 0 0 1 2.002-.37 92.697 92.697 0 0 1 1.548-3.5c.038-.08.148-.195.264-.213.361-.058.95-.354 1.153-.308zm-1.275 5.98c.404-.446 1.34-.05.867.638a5.39 5.39 0 0 1-.387.48l.146.425a3.5 3.5 0 0 1 .129-.112c.295-.238.578-.002.285.402a4.674 4.674 0 0 1-.212.27c.031.083.063.165.097.247.15.36-.246.45-.373.152l-.036-.086c-.24.2-.519.327-.817.24-.49-.141-.615-.784-.157-1.28.184-.199.322-.336.437-.447a11.228 11.228 0 0 1-.081-.256c-.06-.201-.113-.435.102-.673zm.168 1.484c-.042.05-.084.095-.125.147-.24.308-.098.418.08.316.057-.032.114-.072.17-.115a34.962 34.962 0 0 1-.125-.348z" id="a"/>
    </defs>
    <g fill="none" fill-rule="evenodd">
        <path d="M12 .5c3.18 0 6.055 1.275 8.136 3.338A11.315 11.315 0 0 1 23.5 11.9c0 7.388-8.374 17.705-11.053 20.83C8.947 29.688.5 19.314.5 11.9c0-3.15 1.285-6 3.364-8.062A11.515 11.515 0 0 1 12 .5z" stroke="#CD2026" fill="#CD2026" fill-rule="nonzero"/>
        <g transform="translate(3.74 6.9)">
            <mask id="b" fill="#fff">
                <use xlink:href="#a"/>
            </mask>
            <use fill="#CD2026" fill-rule="nonzero" xlink:href="#a"/>
            <g mask="url(#b)">
                <path fill="#FAF9F8" d="M-.74-.663h18V11.08h-18z"/>
            </g>
        </g>
    </g>
</svg>
