<svg width="34" height="34" xmlns="http://www.w3.org/2000/svg" xmlns:xlink="http://www.w3.org/1999/xlink">
    <defs>
        <path d="M8.716 8.716a.74.74 0 0 1 1.046 0L17 15.955l7.238-7.239a.74.74 0 0 1 .963-.071l.083.071a.74.74 0 0 1 0 1.046L18.045 17l7.239 7.238a.74.74 0 0 1 .071.963l-.071.083a.74.74 0 0 1-1.046 0L17 18.045l-7.238 7.239a.74.74 0 0 1-.963.071l-.083-.071a.74.74 0 0 1 0-1.046L15.955 17 8.716 9.762a.74.74 0 0 1-.071-.963z" id="a"/>
    </defs>
    <g fill="none" fill-rule="evenodd">
        <path d="M34 34H0V0h34z" fill="#000"/>
        <mask id="b" fill="#fff">
            <use xlink:href="#a"/>
        </mask>
        <use fill="#0ABB76" fill-rule="nonzero" xlink:href="#a"/>
        <g mask="url(#b)" fill="#FFF">
            <path d="M34 34H0V0h34z"/>
        </g>
    </g>
</svg>
