<svg width="16" height="16" xmlns="http://www.w3.org/2000/svg">
    <g fill="#000" fill-rule="nonzero">
        <path d="M11.67 0H4.332A4.336 4.336 0 0 0 0 4.331v7.338A4.336 4.336 0 0 0 4.33 16h7.339A4.336 4.336 0 0 0 16 11.67V4.33A4.336 4.336 0 0 0 11.67 0zM8 12.375A4.38 4.38 0 0 1 3.627 8 4.38 4.38 0 0 1 8 3.625 4.38 4.38 0 0 1 12.376 8 4.38 4.38 0 0 1 8 12.375zm4.48-7.718c-.713 0-1.293-.58-1.293-1.293s.58-1.293 1.293-1.293 1.293.58 1.293 1.293-.58 1.293-1.293 1.293z"/>
        <path d="M8 4.563A3.44 3.44 0 0 0 4.565 8 3.44 3.44 0 0 0 8 11.437 3.44 3.44 0 0 0 11.438 8 3.44 3.44 0 0 0 8 4.563zM12.48 3.01a.355.355 0 1 0 .001.71.355.355 0 0 0 0-.71z"/>
    </g>
</svg>
