<svg width="32" height="32" xmlns="http://www.w3.org/2000/svg" xmlns:xlink="http://www.w3.org/1999/xlink">
    <defs>
        <path d="M24.31 23.333c.381 0 .69.299.69.667a.678.678 0 0 1-.69.667H5.69A.678.678 0 0 1 5 24c0-.368.309-.667.69-.667zm0-8c.381 0 .69.299.69.667a.678.678 0 0 1-.69.667H5.69A.678.678 0 0 1 5 16c0-.368.309-.667.69-.667zm0-8c.381 0 .69.299.69.667a.678.678 0 0 1-.69.667H5.69A.678.678 0 0 1 5 8c0-.368.309-.667.69-.667z" id="a"/>
    </defs>
    <g fill="none" fill-rule="evenodd">
        <mask id="b" fill="#fff">
            <use xlink:href="#a"/>
        </mask>
        <use fill="#444" fill-rule="nonzero" xlink:href="#a"/>
    </g>
</svg>
