<svg width="12" height="16" xmlns="http://www.w3.org/2000/svg">
    <path d="M2.568 16c-.452-3.33.664-5.83 1.183-8.484-.884-1.543.106-4.65 1.97-3.885 2.294.942-1.987 5.739.887 6.339 3 .624 4.226-5.401 2.365-7.36C6.285-.22 1.148 2.544 1.78 6.595c.154.99 1.14 1.29.394 2.658C.453 8.858-.06 7.45.005 5.574.113 2.503 2.667.352 5.23.054c3.24-.377 6.28 1.234 6.7 4.395.474 3.57-1.461 7.434-4.927 7.156-.939-.076-1.333-.559-2.07-1.023-.405 2.203-.899 4.315-2.364 5.418z" fill="#1B1B1B" fill-rule="evenodd"/>
</svg>
