<svg width="25" height="27" xmlns="http://www.w3.org/2000/svg">
    <path d="M19.609 16.68c-1.512 0-2.866.69-3.764 1.771l-5.842-3.317a4.87 4.87 0 0 0 0-3.267l5.841-3.318a4.883 4.883 0 0 0 3.764 1.771A4.898 4.898 0 0 0 24.5 5.427 4.897 4.897 0 0 0 19.609.535a4.897 4.897 0 0 0-4.892 4.892c0 .573.1 1.122.281 1.634l-5.842 3.318a4.883 4.883 0 0 0-3.763-1.77A4.898 4.898 0 0 0 .5 13.5a4.898 4.898 0 0 0 4.893 4.892c1.511 0 2.865-.69 3.763-1.77l5.842 3.317a4.87 4.87 0 0 0-.282 1.634 4.897 4.897 0 0 0 4.893 4.892 4.897 4.897 0 0 0 4.891-4.892 4.898 4.898 0 0 0-4.891-4.893zm0-14.433a3.183 3.183 0 0 1 3.18 3.18 3.184 3.184 0 0 1-3.18 3.181 3.184 3.184 0 0 1-3.18-3.181 3.184 3.184 0 0 1 3.18-3.18zM5.393 16.68a3.184 3.184 0 0 1-3.181-3.18 3.184 3.184 0 0 1 3.18-3.18 3.183 3.183 0 0 1 3.18 3.18 3.183 3.183 0 0 1-3.18 3.18zm14.216 8.073a3.184 3.184 0 0 1-3.18-3.18 3.184 3.184 0 0 1 3.18-3.18 3.184 3.184 0 0 1 3.18 3.18 3.183 3.183 0 0 1-3.18 3.18z" fill="#444" fill-rule="nonzero"/>
</svg>
