<svg width="26" height="25" xmlns="http://www.w3.org/2000/svg" xmlns:xlink="http://www.w3.org/1999/xlink">
    <defs>
        <path d="m19.074 17.97.079.05a1.014 1.014 0 0 1 .429.859c0 .345-.064.495-.139.554-.016.013-14.041.016-14.041.016-.067-.075-.13-.225-.13-.57 0-.288.086-.506.233-.68.085-.1.165-.16.193-.174l.08-.05 6.3-4.533a4.16 4.16 0 0 0 .447-.345c.152-.133.282-.267.384-.408a1.254 1.254 0 0 0 .244-.599c.055-.438-.106-.833-.384-1.2-.129-.17-.256-.3-.353-.384l-.06-.046a1.822 1.822 0 0 1-.314-.289c-.178-.204-.274-.405-.274-.576 0-.468.249-.735.659-.735.392 0 .652.286.652.735h1.301c0-1.157-.819-2.058-1.954-2.058-1.144 0-1.959.874-1.959 2.058 0 .547.232 1.03.603 1.455.206.237.412.408.564.511l-.06-.046c.032.028.099.096.164.182.089.117.127.21.125.226-.036.029-.102.097-.187.172-.123.107-.25.2-.326.25l-6.324 4.55.08-.049c-.168.087-.38.245-.588.491a2.337 2.337 0 0 0-.547 1.542c0 .732.229 1.274.642 1.6.277.219.56.293.789.293h14.05c.229 0 .511-.074.788-.293.413-.326.642-.868.642-1.6 0-.62-.206-1.138-.546-1.543a2.029 2.029 0 0 0-.586-.492l.079.049-6.671-4.835-.755 1.078 6.67 4.835z" id="a"/>
    </defs>
    <use fill="#1B1B1B" fill-rule="nonzero" transform="matrix(-1 0 0 1 25.353 0)" xlink:href="#a"/>
</svg>
