<svg width="16" height="16" xmlns="http://www.w3.org/2000/svg">
    <path d="M8 0a8 8 0 1 0 8 8 8 8 0 0 0-8-8zm3.08 11.8c-.13 0-.218-.045-.34-.119-1.159-.701-2.605-1.07-4.139-1.07-.856 0-1.717.11-2.523.278-.131.028-.296.078-.395.078a.499.499 0 0 1-.506-.503c0-.335.194-.503.435-.55a13.35 13.35 0 0 1 2.995-.353c1.75 0 3.31.402 4.653 1.206.2.117.317.236.317.532 0 .289-.235.5-.498.5zm.871-2.118c-.174 0-.283-.07-.4-.139-1.302-.772-3.106-1.285-5.08-1.285-1.014 0-1.888.142-2.612.335-.156.043-.243.09-.39.09a.627.627 0 0 1-.624-.628c0-.34.165-.574.497-.668.9-.247 1.818-.437 3.155-.437 2.094 0 4.12.521 5.712 1.475.267.152.366.347.366.632a.622.622 0 0 1-.624.625zm.993-2.462c-.163 0-.26-.04-.412-.124-1.448-.868-3.696-1.346-5.869-1.346-1.085 0-2.186.11-3.196.384-.116.03-.263.088-.41.088a.75.75 0 0 1-.754-.765c0-.435.27-.679.56-.764C4.003 4.357 5.276 4.2 6.66 4.2c2.35 0 4.821.484 6.626 1.544.244.138.412.345.412.726 0 .436-.35.75-.754.75z" fill="#000" fill-rule="nonzero"/>
</svg>
