<svg xmlns="http://www.w3.org/2000/svg" width="16" height="18" viewBox="0 0 16 22">
    <path fill="#333" stroke="#333" stroke-width=".568" d="M7.897.278C3.54.278 0 3.818 0 8.176 0 9.734.362 10.803 1.172 12l6.487 9.59c.052.081.142.13.238.13.097 0 .187-.049.238-.13L14.623 12c.81-1.198 1.172-2.267 1.172-3.825 0-4.358-3.54-7.898-7.898-7.898zm0 .565c4.054 0 7.334 3.28 7.334 7.333 0 1.474-.314 2.37-1.084 3.508l-6.25 9.237-6.249-9.237C.878 10.546.564 9.65.564 8.176c0-4.054 3.28-7.333 7.333-7.333zm0 3.384c-2.021 0-3.666 1.645-3.666 3.667 0 2.021 1.645 3.666 3.666 3.666 2.022 0 3.667-1.645 3.667-3.666 0-2.022-1.645-3.667-3.667-3.667zm0 .564C9.614 4.791 11 6.177 11 7.894c0 1.717-1.386 3.102-3.103 3.102-1.716 0-3.102-1.385-3.102-3.102 0-1.717 1.386-3.103 3.102-3.103z"/>
</svg>
