<svg width="9" height="16" xmlns="http://www.w3.org/2000/svg">
    <path d="M8.933 15.01c-.512.579-1.7.971-2.764.99h-.117c-3.573 0-4.35-2.776-4.35-4.395v-4.5H.296A.304.304 0 0 1 0 6.793V4.667c0-.224.134-.423.334-.498 1.834-.683 2.41-2.374 2.495-3.66C2.852.167 3.022 0 3.304 0h2.099c.162 0 .295.14.295.311v3.6h2.456c.162 0 .295.139.295.31v2.555a.304.304 0 0 1-.295.311H5.686v4.162c0 1.045.652 1.334 1.055 1.334.386-.01.767-.134.957-.216.142-.06.266-.1.377-.07.104.028.172.105.218.246l.65 2.01c.054.16.1.335-.01.458" fill="#1B1B1B" fill-rule="evenodd"/>
</svg>
