<svg width="20" height="16" xmlns="http://www.w3.org/2000/svg">
    <path d="M6.29 16c7.548 0 11.675-6.155 11.675-11.492 0-.175-.004-.35-.011-.522A8.281 8.281 0 0 0 20 1.894a8.298 8.298 0 0 1-2.356.636A4.064 4.064 0 0 0 19.448.296a8.319 8.319 0 0 1-2.605.98A4.13 4.13 0 0 0 13.848 0C11.58 0 9.744 1.81 9.744 4.039c0 .317.035.625.106.92A11.711 11.711 0 0 1 1.392.74 3.976 3.976 0 0 0 .837 2.77c0 1.401.723 2.639 1.825 3.362a4.124 4.124 0 0 1-1.858-.505v.051c0 1.957 1.414 3.59 3.291 3.96a4.172 4.172 0 0 1-1.853.07c.522 1.604 2.037 2.772 3.833 2.805a8.317 8.317 0 0 1-5.096 1.73c-.331 0-.658-.02-.979-.057A11.755 11.755 0 0 0 6.29 16" fill="#1B1B1B" fill-rule="evenodd"/>
</svg>
