<svg width="24" height="34" xmlns="http://www.w3.org/2000/svg">
    <g fill-rule="nonzero" fill="none">
        <path d="M12 .5c3.18 0 6.055 1.275 8.136 3.338A11.315 11.315 0 0 1 23.5 11.9c0 7.388-8.374 17.705-11.053 20.83C8.947 29.688.5 19.314.5 11.9c0-3.15 1.285-6 3.364-8.062A11.515 11.515 0 0 1 12 .5z" stroke="#003773" fill="#FFF"/>
        <path d="M11.99 22.78c-1.233 0-2.466.003-3.699 0-.312-.002-.44-.155-.357-.458.214-.777.445-1.552.678-2.323.095-.316.103-.302-.186-.431-.34-.153-.673-.33-1.011-.49-.15-.07-.183-.183-.157-.34.185-1.118.576-2.15 1.253-3.052.691-.922 1.558-1.585 2.689-1.82 1.222-.252 2.332.037 3.314.813 1.155.914 1.804 2.16 2.139 3.6.018.078.032.157.044.235.072.512.15.418-.343.696a7.199 7.199 0 0 1-.867.392c-.154.063-.181.137-.13.301.239.77.464 1.545.693 2.319a.81.81 0 0 1 .027.176c.015.256-.083.376-.33.38-.742.014-1.484.022-2.227.028-.51.004-1.02 0-1.53 0v-.025zm.027-9.507c-2.424-.017-4.358-2.026-4.355-4.514.004-2.56 2.077-4.542 4.454-4.495 2.367.046 4.302 2.066 4.284 4.527-.019 2.5-1.974 4.498-4.383 4.482" fill="#003773"/>
    </g>
</svg>
