<svg width="25" height="34" xmlns="http://www.w3.org/2000/svg">
    <g fill-rule="nonzero" fill="none">
        <path d="M11.571 33.68a1.141 1.141 0 0 0 1.585 0 57.767 57.767 0 0 0 5.721-6.7c3.855-5.281 5.8-9.902 5.8-13.785.422-4.567-1.828-8.975-5.812-11.387a12.593 12.593 0 0 0-13.003 0C1.878 4.22-.373 8.628.051 13.195c0 3.862 1.955 8.504 5.81 13.785a59.59 59.59 0 0 0 5.71 6.7z" fill="#003773"/>
        <path d="M12.354 23.154c-1.233 0-2.466.003-3.7 0-.311-.003-.44-.156-.357-.459.215-.777.445-1.551.678-2.323.096-.316.103-.302-.185-.43-.342-.154-.674-.33-1.012-.49-.15-.07-.183-.184-.157-.34.186-1.12.576-2.15 1.253-3.052.692-.923 1.558-1.586 2.69-1.82 1.221-.253 2.331.036 3.313.813 1.156.914 1.805 2.16 2.14 3.6.017.077.03.156.043.235.072.512.15.417-.343.695a7.199 7.199 0 0 1-.866.392c-.155.063-.182.138-.13.302.238.77.464 1.545.693 2.318a.81.81 0 0 1 .027.176c.014.256-.084.377-.33.38-.742.014-1.485.023-2.228.028-.51.005-1.02.001-1.53.001v-.026h.001zm.026-9.507c-2.424-.018-4.358-2.026-4.354-4.515.003-2.56 2.077-4.542 4.453-4.494 2.368.046 4.303 2.066 4.284 4.526-.018 2.5-1.974 4.499-4.383 4.483" fill="#FFF"/>
    </g>
</svg>
