<?xml version="1.0" encoding="UTF-8"?>
<svg width="23px" height="17px" viewBox="0 0 23 17" version="1.1" xmlns="http://www.w3.org/2000/svg" xmlns:xlink="http://www.w3.org/1999/xlink">
    <!-- Generator: Sketch 52.4 (67378) - http://www.bohemiancoding.com/sketch -->
    <title>Email_icon</title>
    <desc>Created with Sketch.</desc>
    <g id="UAE" stroke="none" stroke-width="1" fill="none" fill-rule="evenodd">
        <g id="PDP-icons" transform="translate(-368.000000, -795.000000)">
            <g id="Email_icon" transform="translate(369.000000, 796.000000)">
                <path d="M21.9486756,14.4678492 L21.9486756,1.24124169 C21.9486756,0.796719813 21.5883194,0.436363636 21.1437976,0.436363636 L0.82245122,0.436363636 C0.377929348,0.436363636 0.0175731707,0.796719813 0.0175731707,1.24124169 L0.0175731707,14.4678492 C0.0175731707,14.9123711 0.377929348,15.2727273 0.82245122,15.2727273 L21.1437976,15.2727273 C21.5883194,15.2727273 21.9486756,14.9123711 21.9486756,14.4678492 Z" id="path2451" fill="#DADADA"></path>
                <path d="M0.221582927,0.220370861 L9.6826561,9.68622517 C10.3839195,10.3839735 11.6599732,10.3757086 12.3464268,9.69258278 L21.8010073,0.296556291" id="path2455" stroke="#FFFFFF"></path>
                <path d="M0.546485366,15.4296954 L7.79548537,8.11282119" id="path2457" stroke="#FFFFFF"></path>
                <path d="M21.3366463,15.345351 L14.2830707,8.21427815" id="path2459" stroke="#FFFFFF"></path>
            </g>
        </g>
    </g>
</svg>