<?xml version="1.0" encoding="UTF-8"?>
<svg width="20px" height="20px" viewBox="0 0 20 20" version="1.1" xmlns="http://www.w3.org/2000/svg" xmlns:xlink="http://www.w3.org/1999/xlink">
    <!-- Generator: Sketch 52.4 (67378) - http://www.bohemiancoding.com/sketch -->
    <title>WhatsApp_icon</title>
    <desc>Created with Sketch.</desc>
    <g id="UAE" stroke="none" stroke-width="1" fill="none" fill-rule="evenodd">
        <g id="PDP-icons" transform="translate(-329.000000, -794.000000)" fill="#DADADA" fill-rule="nonzero">
            <g id="WhatsApp_icon" transform="translate(329.000000, 794.000000)">
                <path d="M10.0001132,20 C8.24670401,20 6.59944548,19.548368 5.16629887,18.7557309 L0.330216178,20 L1.43495728,15.1634315 C0.524415775,13.6566228 3.37507799e-14,11.8893273 3.37507799e-14,10 C3.37507799e-14,4.47708766 4.47711198,0 10.0003395,0 C15.5237934,-3.03886232e-15 20,4.47708766 20,10 C20,15.5229123 15.5233407,20 10.0001132,20 Z M14.5799808,12.0170617 C14.3346348,11.8945736 13.1291801,11.3012933 12.9051095,11.2200908 C12.6803599,11.138204 12.5164941,11.0971465 12.3533073,11.3423508 C12.1901205,11.5877831 11.7202512,12.1395497 11.5769818,12.3030953 C11.4339388,12.467097 11.2911221,12.4876257 11.045776,12.3649096 C10.8008827,12.2424215 10.0112035,11.9833033 9.07485996,11.1482402 C8.34629095,10.4988481 7.85424093,9.69663101 7.71119787,9.45119865 C7.56838115,9.20599439 7.69625983,9.07347004 7.8187065,8.95143815 C7.92915747,8.8414954 8.06405251,8.66517643 8.18649918,8.52215962 C8.30939852,8.37891471 8.35013863,8.27695536 8.43139252,8.11318172 C8.51355175,7.94963619 8.4725853,7.80661937 8.41102246,7.6836751 C8.3499123,7.56118702 7.85922028,6.35501015 7.65506705,5.86437353 C7.45091382,5.37373691 7.24698693,5.45539563 7.10371754,5.45539563 C6.96090081,5.45539563 6.79726136,5.43486691 6.63384824,5.43486691 C6.47043513,5.43486691 6.20471906,5.49622499 5.97996944,5.74142926 C5.75544616,5.98686161 5.12239009,6.57991378 5.12239009,7.78586255 C5.12239009,8.99203942 6.0003395,10.1573869 6.12323884,10.3209325 C6.24568551,10.4842499 7.81848017,13.0398485 10.310417,14.0213499 C12.8025802,15.0021669 12.8025802,14.6748477 13.2520794,14.6337903 C13.701126,14.5929609 14.7019748,14.0409662 14.9070333,13.468899 C15.1107339,12.8959193 15.1107339,12.4052827 15.0498501,12.3030953 C14.9880609,12.2011359 14.8248741,12.1395497 14.5799808,12.0170617 Z" id="Shape"></path>
            </g>
        </g>
    </g>
</svg>