<svg width="24" height="34" xmlns="http://www.w3.org/2000/svg">
    <g fill-rule="nonzero" fill="none">
        <path d="M12 .5c3.18 0 6.055 1.275 8.136 3.338A11.315 11.315 0 0 1 23.5 11.9c0 7.388-8.374 17.705-11.053 20.83C8.947 29.688.5 19.314.5 11.9c0-3.15 1.285-6 3.364-8.062A11.515 11.515 0 0 1 12 .5z" stroke="#0E1111" fill="#0E1111"/>
        <path fill="#FFF" d="M4 8v9.476h16v-4.498h-5.015V8z"/>
        <path d="M9.309 11.223a1.185 1.185 0 0 1-.259.722c-.088.113-.191.213-.307.296a1.19 1.19 0 0 1-1.129.142 1.384 1.384 0 0 1-.595-.462 1.123 1.123 0 0 1-.226-.556 1.301 1.301 0 0 1 .077-.66 1.33 1.33 0 0 1 .674-.694 1.314 1.314 0 0 1 .923-.031c.15.053.288.136.406.243a1.293 1.293 0 0 1 .374.566c.046.127.06.259.06.433h.002zm-1.636-.036c0 .016.002.045.006.074a.288.288 0 0 0 .217.26c.111.034.23.03.339-.012a.267.267 0 0 0 .163-.187.527.527 0 0 0 .006-.27.284.284 0 0 0-.247-.229.57.57 0 0 0-.284.019.282.282 0 0 0-.15.122.424.424 0 0 0-.05.223zM10.754 12.46a1.102 1.102 0 0 1-.337-.046 1.124 1.124 0 0 1-.322-.15 1.462 1.462 0 0 1-.41-.409 1.09 1.09 0 0 1-.134-.285 1.312 1.312 0 0 1 .016-.827c.066-.175.17-.334.303-.465.104-.107.227-.194.363-.257.102-.045.21-.076.32-.092a1.296 1.296 0 0 1 .656.065 1.282 1.282 0 0 1 .538.397c.08.097.145.207.191.325a1.284 1.284 0 0 1-.021.979c-.081.171-.196.324-.339.448a1.217 1.217 0 0 1-.355.23 1.14 1.14 0 0 1-.469.088v-.001zm.028-.915c.015 0 .031-.003.047-.004a.358.358 0 0 0 .182-.063.283.283 0 0 0 .109-.19.56.56 0 0 0-.018-.282.268.268 0 0 0-.216-.177.574.574 0 0 0-.298.015.281.281 0 0 0-.188.206.51.51 0 0 0 0 .26.286.286 0 0 0 .097.158c.084.066.184.075.285.078M5.19 10.876c0-.492-.003-.983 0-1.474a.409.409 0 0 1 .188-.34c.087-.06.19-.09.296-.086h1.23c.07-.004.064.004.064.065v.694c0 .043-.005.047-.047.047h-.603a.355.355 0 0 0-.115.018c-.074.027-.101.091-.104.163-.004.11-.002.22-.003.33v.063c0 .02.01.03.03.029h.398c.053 0 .053 0 .053.052v.708c0 .046-.003.049-.047.048h-.4c-.03 0-.036.005-.036.036v1.16c0 .022-.008.03-.03.03H5.21c-.022 0-.025-.009-.025-.027v-1.516h.004zM12.536 11.441v-.586c0-.033-.006-.039-.039-.039h-.293c-.028 0-.035-.005-.035-.035v-.744c0-.028.007-.033.035-.033h.292c.035 0 .042-.006.042-.041v-.74c0-.033.004-.036.037-.036h.815c.038 0 .042.003.043.04l.003.415c0 .106 0 .212.002.318 0 .04.007.046.047.046h.261c.028 0 .036.007.036.035v.738c0 .03-.008.036-.036.036h-.264c-.035 0-.041.006-.041.042v.531a.282.282 0 0 0 .024.135.158.158 0 0 0 .113.09.433.433 0 0 0 .07.004h.252c.04 0 .045.005.045.046v.718c0 .036-.004.04-.038.04h-.911a.47.47 0 0 1-.424-.254.402.402 0 0 1-.038-.178v-.548h.002zM12.336 14.752v-1.685c0-.038.006-.044.044-.044h.823c.035 0 .042.007.042.042v1.597a.03.03 0 0 0 0 .01l.009.021a.074.074 0 0 0 .02-.011c.022-.026.042-.053.063-.08l.338-.421a.07.07 0 0 1 .06-.03h.905a.025.025 0 0 1 .017.01.025.025 0 0 1-.006.02c-.056.07-.113.137-.17.206l-.509.627-.124.15a.031.031 0 0 0-.008.037 771.024 771.024 0 0 0 .819.989l.21.255a.075.075 0 0 1 .01.021.078.078 0 0 1-.023.007h-.986a.053.053 0 0 1-.044-.021l-.45-.548c-.032-.04-.063-.08-.097-.118a.116.116 0 0 0-.025-.018.098.098 0 0 0-.008.029v.643c0 .028-.006.033-.04.033h-.822c-.048 0-.048 0-.048-.049v-1.672zM8.308 16.516a1.15 1.15 0 0 1-.657-.196 1.453 1.453 0 0 1-.313-.284 1.165 1.165 0 0 1-.18-.292 1.32 1.32 0 0 1-.024-.952c.117-.316.353-.573.657-.715a1.33 1.33 0 0 1 .913-.052 1.174 1.174 0 0 1 .557.365c.144.157.244.35.29.558.034.167.039.338.013.507a1.12 1.12 0 0 1-.092.312 1.367 1.367 0 0 1-.52.576c-.1.063-.21.11-.324.136a1.246 1.246 0 0 1-.322.037h.002zm.036-1.648a.405.405 0 0 0-.208.05.358.358 0 0 0-.173.25.45.45 0 0 0 .017.236.265.265 0 0 0 .195.178.564.564 0 0 0 .262.004.271.271 0 0 0 .22-.199.507.507 0 0 0-.014-.345.246.246 0 0 0-.153-.142 1.445 1.445 0 0 0-.146-.033" fill="#0E1111"/>
        <path d="M15.902 16.515a1.136 1.136 0 0 1-.664-.198 1.493 1.493 0 0 1-.41-.41 1.1 1.1 0 0 1-.134-.28 1.288 1.288 0 0 1-.033-.658 1.397 1.397 0 0 1 .45-.741 1.12 1.12 0 0 1 .307-.182c.186-.07.384-.097.581-.083.105.004.209.02.309.05.145.042.28.115.396.212.123.103.225.23.3.371.043.078.081.16.114.242a.728.728 0 0 1 .053.269c0 .028-.007.035-.035.04l-.258.057-.227.05-.231.051-.226.05-.247.055-.222.048c-.035.009-.074.016-.11.024-.006 0-.016.008-.015.01a.049.049 0 0 0 .013.022l.115.09c.068.054.149.06.23.05a.364.364 0 0 0 .262-.154c.035-.046.035-.044.081-.013l.276.18c.122.079.246.157.367.237.04.026.04.028.005.064-.08.085-.156.173-.239.255a.836.836 0 0 1-.158.121 1.153 1.153 0 0 1-.583.171h-.07.003zm.017-1.71a.41.41 0 0 0-.33.171.909.909 0 0 0-.064.112.038.038 0 0 0 0 .025c0 .003.01.004.015.003l.25-.057.243-.056.15-.036c.023-.005.025-.015.01-.03a.392.392 0 0 0-.275-.13M11.078 16.515a1.165 1.165 0 0 1-.677-.196 1.48 1.48 0 0 1-.39-.379 1.107 1.107 0 0 1-.156-.319 1.317 1.317 0 0 1-.051-.508c.014-.173.066-.341.153-.492.097-.167.228-.312.383-.425.092-.07.194-.123.302-.16.199-.066.41-.084.617-.052.077.012.153.029.228.052.105.034.203.085.293.15.13.096.244.213.335.348.01.016.01.027-.008.038a62.89 62.89 0 0 0-.49.312l-.21.137c-.036.024-.036.022-.065-.012a.636.636 0 0 0-.097-.09.271.271 0 0 0-.18-.045.526.526 0 0 0-.17.025.282.282 0 0 0-.173.162.489.489 0 0 0-.014.307.271.271 0 0 0 .176.2.475.475 0 0 0 .307.014.31.31 0 0 0 .152-.11l.016-.019a.02.02 0 0 1 .03-.003c.188.122.376.245.566.366l.153.1a.022.022 0 0 1 .013.016.023.023 0 0 1-.005.02c-.109.162-.251.3-.418.401a1.084 1.084 0 0 1-.41.146c-.07.01-.14.016-.212.024l.002-.008zM5.19 14.57v-1.502c0-.04.004-.045.043-.045h.81c.035 0 .042.007.042.044v2.36c0 .033.002.067.007.1a.168.168 0 0 0 .14.139.71.71 0 0 0 .092.005h.599c.029 0 .035.006.035.041v.73c0 .024-.008.033-.032.033H5.6a.478.478 0 0 1-.243-.062.306.306 0 0 1-.132-.162.667.667 0 0 1-.035-.236V14.57zM17.42 15.418v-.944c0-.06.005-.12.016-.18a.332.332 0 0 1 .236-.268.658.658 0 0 1 .198-.025h1.08c.036 0 .042.005.042.043v.718c0 .04-.005.046-.046.046h-.405a.403.403 0 0 0-.13.023c-.061.022-.083.079-.091.14a.53.53 0 0 0-.002.066v1.406c0 .023-.007.031-.03.031h-.831c-.03 0-.035-.006-.035-.033v-1.023h-.001z" fill="#0E1111"/>
    </g>
</svg>
