<svg xmlns="http://www.w3.org/2000/svg" xmlns:xlink="http://www.w3.org/1999/xlink" width="368" height="56" viewBox="0 0 368 56">
    <defs>
        <path id="a" d="M32.188.629H.415v54.457h31.772z"/>
    </defs>
    <g fill="none" fill-rule="evenodd">
        <path fill="#003773" d="M79.745 55.37c-11.202 0-19.373-8.593-19.373-19.725 0-11.132 8.101-19.797 19.373-19.797 11.342 0 19.374 8.595 19.374 19.797 0 5.636-1.975 10.426-5.566 14.09-3.664 3.663-8.455 5.636-13.808 5.636M69.037 35.644c0 7.258 4.647 12.119 10.708 12.119 6.058 0 10.638-4.72 10.638-12.118 0-7.327-4.58-12.187-10.638-12.187-6.06 0-10.708 4.932-10.708 12.187M105.628 45.085V23.528h-4.439V16.13h4.44V7.607h7.89v8.523h5.706v7.398h-5.707V44.31c0 1.691.422 2.043 1.62 2.043h6.693v8.102h-6.905c-6.482 0-9.298-2.747-9.298-9.369"/>
        <g transform="translate(126 -.63)">
            <mask id="b" fill="#fff">
                <use xlink:href="#a"/>
            </mask>
            <path fill="#003773" d="M23.735 33.667c0-7.185-2.043-9.932-6.762-9.932-5.425 0-8.1 3.099-8.1 10.215v21.136H.415V.629h8.457v18.878c2.604-2.253 5.634-3.38 9.156-3.38 8.665 0 14.159 6.339 14.159 16.978v21.98h-8.453V33.668z" mask="url(#b)"/>
        </g>
        <path fill="#003773" d="M184.483 47.692c4.226 0 8.031-1.761 11.834-6.2l6.131 5.002c-5.425 6.342-11.061 8.877-18.106 8.877-11.338 0-19.93-8.103-19.93-19.515 0-11.974 7.96-20.006 19.367-20.006 11.623 0 19.725 8.524 19.725 21.346v1.548h-30.638c.843 5.354 5.352 8.948 11.617 8.948m-11.55-16.062h21.27c-1.126-4.931-5.212-8.172-10.495-8.172-5.35 0-9.716 3.38-10.774 8.172M216.976 33.461v20.993h-7.89v-37.69h7.607v2.75c2.044-2.256 4.65-3.384 7.82-3.384.703 0 1.48 0 3.03.354v8.453c-2.254-.494-3.17-.633-3.876-.633-4.365 0-6.691 2.747-6.691 9.157M229.198 35.645c0-11.341 7.89-19.797 19.23-19.797 5.215 0 9.512 1.55 13.74 5.497l-5.358 6.27c-2.747-3.102-5.139-4.157-8.382-4.157-6.127 0-10.635 4.93-10.635 12.187 0 7.325 4.508 12.048 10.635 12.048 3.455 0 6.06-1.2 8.596-4.511l5.496 6.34c-4.65 4.3-8.807 5.849-14.092 5.849-11.27 0-19.23-8.384-19.23-19.726M294.492 50.368c-3.028 3.103-7.042 4.579-11.905 4.579-10.917 0-19.089-8.595-19.089-19.442 0-11.554 7.605-19.443 19.09-19.443 4.931 0 9.157 1.69 12.4 4.86v-4.158h7.888v37.69h-8.384v-4.086zm-22.4-14.794c0 7.115 4.791 11.906 11.411 11.906 6.553 0 11.343-4.861 11.343-11.906 0-7.043-4.79-11.906-11.343-11.906-6.62 0-11.412 4.863-11.412 11.906zM317.716 33.461v20.993h-7.892v-37.69h7.609v2.75c2.044-2.256 4.649-3.384 7.82-3.384.706 0 1.48 0 3.027.354v8.453c-2.251-.494-3.17-.633-3.872-.633-4.368 0-6.692 2.747-6.692 9.157M348.863 47.692c4.228 0 8.032-1.761 11.838-6.2l6.127 5.002c-5.424 6.342-11.06 8.877-18.106 8.877-11.342 0-19.934-8.103-19.934-19.515 0-11.974 7.958-20.006 19.37-20.006 11.626 0 19.726 8.524 19.726 21.346v1.548h-30.643c.845 5.354 5.353 8.948 11.622 8.948M337.311 31.63h21.274c-1.128-4.931-5.213-8.172-10.496-8.172-5.354 0-9.722 3.38-10.778 8.172M45.861 33.39c0-7.042-2.323-9.793-6.621-9.793-5.355 0-7.96 2.96-7.96 10.076v20.782h-8.174V33.39c0-6.974-2.395-9.793-6.693-9.793-5.353 0-7.96 2.96-7.96 10.076v20.782H.002v-37.69h8.381v2.676c2.678-2.253 5.638-3.38 9.16-3.38 4.298 0 7.677 1.691 10.425 5.214 3.313-3.454 7.255-5.214 12.047-5.214 8.592 0 14.23 6.271 14.23 16.697v21.697h-8.383V33.39z"/>
    </g>
</svg>
