<svg xmlns="http://www.w3.org/2000/svg" xmlns:xlink="http://www.w3.org/1999/xlink" width="368" height="115" viewBox="0 0 368 115">
    <defs>
        <path id="a" d="M93.972 19.5L140.405.131v.107c1.208 0 2.102 1.223 2.102 2.767 0 1.543-.894 2.766-1.997 2.766l-39.972 16.336h86.616s8.193-.691 8.036 7.45l.053 10.855c-.473 3.086-2.994 2.98-2.994 2.98H19.437s.525 9.684-7.564 12.984c0 0-4.885 2.234-8.877.425 0 0-.736-.266-1.523-1.118 0 0-.474-1.01-.474-1.862 0-1.649.946-3.033 2.102-3.033.63 0 .893.479 1.576 1.011.578.373 1.839.745 4.097-.212 0 0 5.305-2.076 5.305-7.876V15.137c-.052-.107-.105-.213-.105-.32 0-1.17 1.208-2.074 2.731-2.074 1.524 0 2.732.904 2.732 2.074v22.828h25.58V15.509a1.427 1.427 0 0 1-.157-.639c0-1.17 1.312-2.127 2.994-2.127 1.628 0 2.994.957 2.994 2.127 0 .16-.052.373-.105.533v22.349h139.352v-7.875s.263-2.342-2.311-2.342H95.443s-3.152 0-4.36-2.767c0 0-1.366-3.459 2.889-5.268zM238.209 2.1s-2.889.852-2.836 3.3c.052 3.831 3.257 3.298 3.257 3.298s3.308.16 3.151-3.298c-.144-3.168-3.02-3.301-3.503-3.301l-.069.001zm-25.422 12.877c0 .213.052.426.157.638l-.053 28.735s.263 6.119-6.145 7.343c0 0-1.418.159-3.257-1.118-.368-.478-.84-.744-1.366-.744-1.155 0-2.1 1.383-2.1 3.033 0 1.383.682 2.554 1.628 2.872 1.05.853 3.887 2.342 8.719.799 0 0 7.827-1.383 8.352-13.143V15.456c.052-.159.052-.319.052-.479 0-1.171-1.365-2.128-2.993-2.128-1.681 0-2.994.957-2.994 2.128zm33.931-1.863c.138-.003.275-.005.409-.005 6.116 0 8.731 3.465 8.731 3.465 3.677 2.926 3.729 9.418 3.729 9.418l.106 11.493h64.765a20.72 20.72 0 0 1-.106-1.809c0-12.398 9.98-22.455 22.324-22.455C359.02 13.221 369 23.278 369 35.676c0 12.398-9.98 22.455-22.324 22.455-9.612 0-18.121-6.119-21.326-14.686h-99.012c-1.05-.159-1.943-1.49-1.943-3.086 0-1.65.945-2.98 2.048-3.033H253.6V25.567c-.42-4.31-2.732-4.843-2.732-4.843-1.523-1.809-3.835-1.65-3.835-1.65h-9.664a1.857 1.857 0 0 1-.525.106c-1.156 0-2.102-1.329-2.102-3.032 0-1.543.789-2.82 1.839-2.98l10.137-.054zm83.623 22.509c0 9.333 7.302 16.869 16.345 16.868h.095c9.088 0 16.441-7.556 16.441-16.868 0-9.312-7.353-16.867-16.441-16.867-9.087 0-16.44 7.555-16.44 16.867zM35.93 47.649l.07-.001c.486 0 3.357.134 3.501 3.3.159 3.458-3.15 3.299-3.15 3.299s-3.204.532-3.257-3.299c-.106-2.448 2.836-3.299 2.836-3.299zm-8.246.053l.068-.001c.484 0 3.359.134 3.503 3.3.158 3.459-3.151 3.299-3.151 3.299s-3.204.532-3.257-3.299c-.052-2.447 2.837-3.299 2.837-3.299z"/>
    </defs>
    <g fill="none" fill-rule="evenodd">
        <g fill="#003773">
            <path d="M79.787 114.553c-11.202 0-19.373-8.593-19.373-19.724 0-11.133 8.101-19.797 19.373-19.797 11.342 0 19.374 8.594 19.374 19.796 0 5.636-1.974 10.426-5.566 14.09-3.664 3.662-8.455 5.635-13.808 5.635M69.08 94.828c0 7.256 4.648 12.117 10.708 12.117 6.058 0 10.638-4.718 10.638-12.117 0-7.327-4.58-12.187-10.638-12.187-6.06 0-10.708 4.931-10.708 12.187M105.67 104.268V82.711h-4.439v-7.398h4.44V66.79h7.89v8.523h5.706v7.398h-5.707v20.781c0 1.691.422 2.043 1.62 2.043h6.693v8.102h-6.905c-6.48 0-9.298-2.747-9.298-9.369M149.778 92.221c0-7.185-2.043-9.932-6.763-9.932-5.426 0-8.1 3.099-8.1 10.215v21.135h-8.457V59.183h8.457v18.878c2.605-2.253 5.634-3.38 9.157-3.38 8.664 0 14.158 6.339 14.158 16.978v21.98h-8.452V92.221zM184.526 106.875c4.226 0 8.032-1.761 11.834-6.2l6.13 5.002c-5.424 6.342-11.06 8.877-18.104 8.877-11.338 0-19.931-8.103-19.931-19.515 0-11.974 7.959-20.006 19.366-20.006 11.624 0 19.725 8.524 19.725 21.346v1.548h-30.638c.844 5.354 5.354 8.948 11.618 8.948m-11.55-16.062h21.27c-1.126-4.931-5.212-8.172-10.496-8.172-5.348 0-9.716 3.38-10.773 8.172M217.018 92.644v20.993h-7.89v-37.69h7.607v2.75c2.044-2.256 4.65-3.384 7.82-3.384.704 0 1.48 0 3.032.354v8.453c-2.256-.494-3.171-.633-3.877-.633-4.366 0-6.692 2.747-6.692 9.157M229.24 94.828c0-11.34 7.89-19.797 19.231-19.797 5.215 0 9.512 1.55 13.738 5.497l-5.356 6.27c-2.746-3.102-5.14-4.157-8.382-4.157-6.127 0-10.636 4.931-10.636 12.187 0 7.325 4.508 12.047 10.636 12.047 3.454 0 6.06-1.199 8.596-4.51l5.496 6.341c-4.65 4.3-8.807 5.847-14.091 5.847-11.273 0-19.232-8.384-19.232-19.725M294.534 109.551c-3.027 3.102-7.041 4.58-11.904 4.58-10.918 0-19.09-8.596-19.09-19.444 0-11.553 7.606-19.442 19.09-19.442 4.933 0 9.158 1.69 12.4 4.86v-4.158h7.889v37.691h-8.385v-4.087zm-22.4-14.794c0 7.115 4.791 11.906 11.411 11.906 6.554 0 11.344-4.86 11.344-11.906 0-7.043-4.79-11.906-11.344-11.906-6.62 0-11.411 4.863-11.411 11.906zM317.759 92.644v20.993h-7.892v-37.69h7.609v2.75c2.044-2.256 4.649-3.384 7.82-3.384.706 0 1.48 0 3.028.354v8.453c-2.252-.494-3.171-.633-3.873-.633-4.368 0-6.692 2.747-6.692 9.157M348.906 106.875c4.228 0 8.032-1.761 11.838-6.2l6.127 5.002c-5.424 6.342-11.06 8.877-18.105 8.877-11.343 0-19.935-8.103-19.935-19.515 0-11.974 7.958-20.006 19.37-20.006 11.626 0 19.727 8.524 19.727 21.346v1.548h-30.644c.845 5.354 5.354 8.948 11.622 8.948m-11.552-16.062h21.274c-1.128-4.931-5.213-8.172-10.496-8.172-5.354 0-9.722 3.38-10.778 8.172M45.904 92.573c0-7.042-2.324-9.793-6.622-9.793-5.354 0-7.96 2.96-7.96 10.076v20.783H23.15V92.573c0-6.973-2.396-9.793-6.694-9.793-5.352 0-7.96 2.96-7.96 10.076v20.783H.043V75.947h8.383v2.677c2.678-2.253 5.637-3.38 9.159-3.38 4.298 0 7.678 1.691 10.426 5.214 3.31-3.454 7.255-5.214 12.047-5.214 8.592 0 14.229 6.271 14.229 16.697v21.698h-8.383V92.573z"/>
        </g>
        <g transform="translate(-1 -.131)">
            <mask id="b" fill="#fff">
                <use xlink:href="#a"/>
            </mask>
            <path fill="#013773" d="M-4 63.131h378v-68H-4z" mask="url(#b)"/>
        </g>
    </g>
</svg>
