<svg xmlns="http://www.w3.org/2000/svg" xmlns:xlink="http://www.w3.org/1999/xlink" width="368" height="84" viewBox="0 0 368 84">
    <defs>
        <path id="a" d="M32.196.945H.424v54.456h31.772V.945z"/>
        <path id="c" d="M0 .016v18.668h11.473V.016z"/>
        <path id="e" d="M0 84.055h367.894V1H0z"/>
    </defs>
    <g fill="none" fill-rule="evenodd" transform="translate(0 -1)">
        <path fill="#003773" d="M79.754 56.37c-11.202 0-19.373-8.594-19.373-19.725 0-11.132 8.1-19.797 19.373-19.797 11.342 0 19.374 8.595 19.374 19.797 0 5.636-1.974 10.426-5.566 14.09-3.664 3.662-8.455 5.635-13.808 5.635zM69.046 36.645c0 7.256 4.648 12.117 10.708 12.117 6.058 0 10.638-4.719 10.638-12.117 0-7.327-4.58-12.187-10.638-12.187-6.06 0-10.708 4.931-10.708 12.187zM105.637 46.086V24.529h-4.44V17.13h4.44V8.608h7.89v8.523h5.707v7.398h-5.707v20.78c0 1.692.422 2.044 1.619 2.044h6.694v8.102h-6.905c-6.481 0-9.298-2.747-9.298-9.37"/>
        <g transform="translate(126 .055)">
            <mask id="b" fill="#fff">
                <use xlink:href="#a"/>
            </mask>
            <path fill="#003773" d="M23.744 33.983c0-7.185-2.043-9.932-6.763-9.932-5.426 0-8.1 3.099-8.1 10.215V55.4H.424V.945h8.457v18.878c2.605-2.253 5.634-3.38 9.157-3.38 8.664 0 14.158 6.339 14.158 16.978V55.4h-8.452V33.983z" mask="url(#b)"/>
        </g>
        <path fill="#003773" d="M184.492 48.692c4.226 0 8.032-1.761 11.834-6.199l6.13 5.001c-5.424 6.342-11.06 8.877-18.104 8.877-11.338 0-19.931-8.103-19.931-19.515 0-11.974 7.959-20.006 19.366-20.006 11.624 0 19.725 8.524 19.725 21.346v1.548h-30.638c.844 5.354 5.354 8.948 11.618 8.948m-11.55-16.062h21.27c-1.126-4.931-5.212-8.172-10.496-8.172-5.348 0-9.716 3.381-10.773 8.172M216.984 34.462v20.992h-7.889v-37.69h7.606v2.75c2.044-2.255 4.651-3.383 7.82-3.383.704 0 1.48 0 3.032.354v8.453c-2.256-.494-3.172-.633-3.877-.633-4.366 0-6.692 2.747-6.692 9.157M229.207 36.645c0-11.34 7.89-19.797 19.23-19.797 5.215 0 9.512 1.55 13.738 5.497l-5.356 6.27c-2.747-3.102-5.14-4.157-8.382-4.157-6.127 0-10.636 4.931-10.636 12.187 0 7.325 4.509 12.047 10.637 12.047 3.454 0 6.06-1.199 8.596-4.51l5.495 6.341c-4.65 4.3-8.808 5.847-14.091 5.847-11.272 0-19.231-8.384-19.231-19.725M294.501 51.368c-3.028 3.102-7.042 4.579-11.905 4.579-10.917 0-19.089-8.595-19.089-19.443 0-11.553 7.606-19.442 19.089-19.442 4.933 0 9.158 1.69 12.4 4.86v-4.158h7.889v37.69h-8.384v-4.086zM272.1 36.574c0 7.115 4.792 11.906 11.412 11.906 6.553 0 11.343-4.861 11.343-11.906 0-7.043-4.79-11.906-11.343-11.906-6.62 0-11.412 4.863-11.412 11.906zM317.725 34.462v20.992h-7.892v-37.69h7.609v2.75c2.044-2.255 4.649-3.383 7.82-3.383.706 0 1.48 0 3.028.354v8.453c-2.252-.494-3.171-.633-3.873-.633-4.368 0-6.692 2.747-6.692 9.157M348.872 48.692c4.228 0 8.032-1.761 11.838-6.199l6.127 5.001c-5.424 6.342-11.059 8.877-18.105 8.877-11.343 0-19.935-8.103-19.935-19.515 0-11.974 7.958-20.006 19.37-20.006 11.626 0 19.727 8.524 19.727 21.346v1.548H337.25c.845 5.354 5.354 8.948 11.622 8.948M337.32 32.63h21.274c-1.128-4.931-5.213-8.172-10.496-8.172-5.354 0-9.722 3.381-10.778 8.172M45.87 34.39c0-7.042-2.324-9.793-6.622-9.793-5.354 0-7.96 2.96-7.96 10.076v20.783h-8.172V34.39c0-6.973-2.396-9.793-6.694-9.793-5.352 0-7.96 2.96-7.96 10.076v20.783H.009V17.764h8.383v2.677c2.678-2.253 5.637-3.38 9.159-3.38 4.298 0 7.678 1.69 10.426 5.214 3.31-3.454 7.255-5.214 12.047-5.214 8.592 0 14.229 6.27 14.229 16.697v21.698H45.87V34.39z"/>
        <g transform="translate(0 65.055)">
            <mask id="d" fill="#fff">
                <use xlink:href="#c"/>
            </mask>
            <path fill="#ADADAD" d="M2.8 12.754v5.93H0V.016h2.8v10.84L7.513 5.84h3.55l-5.624 5.812 6.035 7.032H7.84z" mask="url(#d)"/>
        </g>
        <path fill="#ADADAD" d="M18.015 84.055c-.852 0-1.609-.127-2.273-.38a4.527 4.527 0 0 1-1.682-1.097 4.714 4.714 0 0 1-1.043-1.734c-.238-.68-.357-1.449-.357-2.309v-7.64h2.812v7.277c0 .594.063 1.098.188 1.512.125.414.298.75.521 1.008.223.258.49.445.803.562.312.117.656.176 1.031.176.391 0 .744-.059 1.061-.176.316-.117.585-.304.808-.562.223-.258.395-.594.516-1.008.121-.414.181-.918.181-1.512v-7.277h2.813v7.64c0 .86-.117 1.631-.352 2.315a4.642 4.642 0 0 1-1.037 1.74 4.462 4.462 0 0 1-1.687 1.09c-.668.25-1.436.375-2.303.375M31.984 83.739H29.85l-4.898-12.844h3.07l2.953 8.356 2.824-8.356h2.696l2.929 8.379 2.907-8.38h2.965L40.41 83.74h-2.168L35.1 74.786zM52.495 73.18c-.523 0-1.012.102-1.465.305a3.504 3.504 0 0 0-1.178.855 4.1 4.1 0 0 0-.785 1.307 4.64 4.64 0 0 0-.287 1.658c0 .617.096 1.182.287 1.693.192.512.453.95.785 1.313s.725.644 1.178.844c.453.2.942.298 1.465.298.625 0 1.186-.1 1.682-.304a3.586 3.586 0 0 0 1.265-.856c.348-.367.616-.804.803-1.312a4.797 4.797 0 0 0 .28-1.676c0-.609-.092-1.166-.28-1.67a3.74 3.74 0 0 0-.803-1.3 3.623 3.623 0 0 0-1.265-.85c-.496-.203-1.057-.305-1.682-.305zm3.96 9.164c-.444.516-.991.93-1.64 1.242-.648.313-1.414.47-2.297.47a6.82 6.82 0 0 1-4.81-1.935 6.577 6.577 0 0 1-1.447-2.132 6.677 6.677 0 0 1-.528-2.66c0-.969.176-1.864.528-2.684a6.592 6.592 0 0 1 1.447-2.133 6.676 6.676 0 0 1 2.156-1.412 6.89 6.89 0 0 1 2.654-.51 5.608 5.608 0 0 1 2.403.533c.336.161.635.344.896.551.262.207.475.42.639.64v-1.419h2.812V83.74h-2.812v-1.395z"/>
        <mask id="f" fill="#fff">
            <use xlink:href="#e"/>
        </mask>
        <path fill="#ADADAD" d="M62.866 83.74h2.801V70.894h-2.801V83.74zm-.41-16.806c0-.274.043-.525.128-.756a1.666 1.666 0 0 1 .932-.973c.215-.089.451-.134.709-.134.266 0 .508.045.727.134a1.68 1.68 0 0 1 .943.973c.09.231.135.482.135.756 0 .281-.045.54-.135.773-.09.235-.215.436-.375.604a1.64 1.64 0 0 1-.568.387 1.913 1.913 0 0 1-.727.134c-.258 0-.494-.047-.709-.14a1.718 1.718 0 0 1-.932-.99 2.2 2.2 0 0 1-.128-.768zM72.967 83.739c-.492 0-.957-.074-1.395-.223a3.145 3.145 0 0 1-1.142-.673 3.268 3.268 0 0 1-.774-1.12c-.19-.445-.287-.964-.287-1.558v-6.75h-1.51v-2.52h1.51v-3.117h2.813v3.117h2.062v2.52h-2.062v6.679c0 .407.103.696.31.868.207.172.495.257.862.257h1.312v2.52h-1.699z" mask="url(#f)"/>
    </g>
</svg>
