<svg width="15" height="15" viewBox="0 0 15 15" xmlns="http://www.w3.org/2000/svg"><title>DE6E8A65-296D-4967-9554-3DADBB38EC51</title><g stroke="#666" fill="none" fill-rule="evenodd" stroke-linejoin="round"><path d="M5.875 8.333V10.1l-3.256 1.163a1.95 1.95 0 0 0-1.294 1.836v1.226h12.35V13.1a1.95 1.95 0 0 0-1.294-1.836L9.125 10.1V8.211"/><path d="M10.669 4.9c0 2.154-1.456 3.9-3.25 3.9-1.796 0-3.25-1.746-3.25-3.9S5.623 1 7.419 1c1.794 0 3.25 1.746 3.25 3.9z"/><path d="M10.638 4.545c-.109.013-.184.009-.294.03-1.107.213-1.818-.188-2.427-1.254-.366.7-1.51 1.254-2.448 1.254-.462 0-.86-.095-1.259-.303"/></g></svg>