<svg width="23" height="22" viewBox="0 0 23 22" fill="none" xmlns="http://www.w3.org/2000/svg">
<path d="M9.37467 18.875C9.37467 18.5303 9.30354 18.1889 9.16534 17.8705C9.02714 17.552 8.82458 17.2626 8.56922 17.0188C8.31386 16.7751 8.0107 16.5817 7.67705 16.4498C7.34341 16.3179 6.98581 16.25 6.62467 16.25C6.26354 16.25 5.90594 16.3179 5.5723 16.4498C5.23865 16.5817 4.93549 16.7751 4.68013 17.0188C4.42477 17.2626 4.22221 17.552 4.08401 17.8705C3.94581 18.1889 3.87467 18.5303 3.87467 18.875C3.87467 19.5712 4.16441 20.2389 4.68013 20.7312C5.19586 21.2234 5.89533 21.5 6.62467 21.5C7.35402 21.5 8.05349 21.2234 8.56922 20.7312C9.08494 20.2389 9.37467 19.5712 9.37467 18.875V18.875ZM5.54667 18.875C5.54667 18.6673 5.61119 18.4643 5.73206 18.2917C5.85293 18.119 6.02472 17.9844 6.22572 17.9049C6.42672 17.8255 6.6479 17.8047 6.86127 17.8452C7.07465 17.8857 7.27065 17.9857 7.42449 18.1325C7.57833 18.2794 7.68309 18.4665 7.72554 18.6702C7.76798 18.8738 7.7462 19.085 7.66294 19.2768C7.57969 19.4687 7.4387 19.6327 7.2578 19.748C7.07691 19.8634 6.86423 19.925 6.64667 19.925C6.35541 19.9243 6.07633 19.8134 5.87063 19.6165C5.66494 19.4197 5.54942 19.153 5.54942 18.875H5.54667ZM18.5413 18.875C18.5413 18.1788 18.2516 17.5111 17.7359 17.0188C17.2202 16.5266 16.5207 16.25 15.7913 16.25C15.062 16.25 14.3625 16.5266 13.8468 17.0188C13.3311 17.5111 13.0413 18.1788 13.0413 18.875C13.0413 19.5712 13.3311 20.2389 13.8468 20.7312C14.3625 21.2234 15.062 21.5 15.7913 21.5C16.5207 21.5 17.2202 21.2234 17.7359 20.7312C18.2516 20.2389 18.5413 19.5712 18.5413 18.875ZM14.7133 18.875C14.7133 18.6673 14.7779 18.4643 14.8987 18.2917C15.0196 18.119 15.1914 17.9844 15.3924 17.9049C15.5934 17.8255 15.8146 17.8047 16.0279 17.8452C16.2413 17.8857 16.4373 17.9857 16.5912 18.1325C16.745 18.2794 16.8498 18.4665 16.8922 18.6702C16.9346 18.8738 16.9129 19.085 16.8296 19.2768C16.7464 19.4687 16.6054 19.6327 16.4245 19.748C16.2436 19.8634 16.0309 19.925 15.8133 19.925C15.6684 19.9257 15.5248 19.899 15.3907 19.8466C15.2566 19.7941 15.1347 19.7169 15.032 19.6193C14.9292 19.5218 14.8477 19.4058 14.7921 19.278C14.7365 19.1503 14.7078 19.0133 14.7078 18.875H14.7133V18.875ZM5.04984 2.4845L4.40176 0.5H0.208008V1.90438H3.33109L6.64851 11.4305L5.04984 15.1125H19.0657V13.7081H7.25992L7.63759 12.7579L20.3893 11.4314L22.208 2.4845H5.04984ZM19.0657 10.1521L8.23251 11.1207L5.61267 3.958H20.3948L19.0657 10.153V10.1521Z" fill="black"/>
<path d="M10.2913 9.25L11.5746 4.875H12.5435L13.935 7.65662L14.7536 4.875H15.7913L14.5079 9.25H13.6142L12.1677 6.38088L11.3289 9.25H10.2913Z" fill="black"/>
</svg>
