<svg width="18" height="18" viewBox="0 0 18 18" fill="none" xmlns="http://www.w3.org/2000/svg">
<path d="M16.965 7.61151C17.0686 8.16657 17.125 8.7469 17.125 9.35249C17.125 14.0894 13.9547 17.4577 9.16635 17.4577C8.07742 17.458 6.9991 17.2438 5.99299 16.8272C4.98689 16.4107 4.07273 15.7999 3.30274 15.03C2.53275 14.26 1.92203 13.3458 1.50547 12.3397C1.0889 11.3336 0.874668 10.2553 0.875 9.16635C0.874668 8.07742 1.0889 6.9991 1.50547 5.99299C1.92203 4.98689 2.53275 4.07273 3.30274 3.30274C4.07273 2.53275 4.98689 1.92203 5.99299 1.50547C6.9991 1.0889 8.07742 0.874668 9.16635 0.875C11.4051 0.875 13.2758 1.69874 14.711 3.03628L12.3737 5.37359V5.36769C11.5037 4.53889 10.3994 4.11355 9.16635 4.11355C6.43064 4.11355 4.20704 6.42475 4.20704 9.1613C4.20704 11.897 6.43064 14.2133 9.16635 14.2133C11.6485 14.2133 13.3381 12.794 13.6852 10.845H9.16635V7.61151H16.9658H16.965Z" fill="black"/>
</svg>
