<svg width="11" height="21" viewBox="0 0 11 21" fill="none" xmlns="http://www.w3.org/2000/svg">
<path fill-rule="evenodd" clip-rule="evenodd" d="M6.123 17.116V17.512H6.12V20.16C8.316 18.282 9.883 15.63 10.44 12.6L6.123 17.117V17.116ZM1.59 3.96C1.23963 4.62534 0.948833 5.32039 0.721 6.037L4.681 10.08V7.115L1.589 3.96H1.59ZM4.681 12.486V12.088L0.234 7.56C0.0782273 8.37815 -0.000118803 9.20915 1.35216e-07 10.042C1.35216e-07 10.148 0.00200013 10.253 0.00500013 10.358L4.68 15.12V12.486H4.681ZM10.801 10.039C10.801 9.191 10.721 8.362 10.568 7.56L6.125 12.084V12.481H6.12V15.12L10.795 10.359C10.798 10.252 10.8 10.146 10.8 10.039M6.124 7.5H6.12V10.08L10.08 6.037C9.8525 5.32042 9.56204 4.62537 9.212 3.96L6.124 7.113V7.5ZM4.68 17.515V17.118L0.36 12.6C0.916 15.63 2.483 18.283 4.68 20.16V17.515ZM6.12 5.4L8.64 2.814C7.93787 1.76111 7.08935 0.813593 6.12 0V5.4ZM4.68 5.4V0C3.71078 0.813345 2.86227 1.76051 2.16 2.813L4.68 5.4Z" fill="#00A651"/>
</svg>
