<svg width="16" height="18" viewBox="0 0 16 18" fill="none" xmlns="http://www.w3.org/2000/svg">
<path d="M0.203752 0.912535C0.475421 0.626282 0.915884 0.626282 1.18755 0.912535L8 8.09047L14.8124 0.912535C15.0632 0.648302 15.4578 0.627976 15.7307 0.851558L15.7962 0.912535C16.0679 1.19879 16.0679 1.66289 15.7962 1.94915L8.984 9.12729L15.7962 16.3054C16.047 16.5697 16.0663 16.9855 15.8541 17.273L15.7962 17.3421C15.5246 17.6283 15.0841 17.6283 14.8124 17.3421L8 10.1641L1.18755 17.3421C0.936781 17.6063 0.542185 17.6266 0.269287 17.403L0.203752 17.3421C-0.0679173 17.0558 -0.0679173 16.5917 0.203752 16.3054L7.016 9.12729L0.203752 1.94915C-0.0470197 1.68491 -0.0663096 1.26914 0.145882 0.981588L0.203752 0.912535Z" fill="#404040"/>
</svg>
