<svg width="30" height="31" viewBox="0 0 30 31" fill="none" xmlns="http://www.w3.org/2000/svg">
<path d="M14.9187 3.62526C18.8777 3.62526 19.3478 3.64194 20.9083 3.71281C24.9282 3.89625 26.8021 5.81615 26.9849 9.83104C27.0567 11.4028 27.0698 11.876 27.0698 15.8617C27.0698 19.8474 27.0546 20.3164 26.9849 21.8903C26.7999 25.901 24.9282 27.8251 20.9083 28.0085C19.3478 28.0815 18.8799 28.0961 14.9187 28.0961C10.9642 28.0961 10.4941 28.0815 8.93137 28.0085C4.90714 27.823 3.03975 25.8969 2.85911 21.8903C2.78729 20.3164 2.77205 19.8453 2.77205 15.8596C2.77205 11.8739 2.78729 11.4028 2.85911 9.82895C3.04193 5.81615 4.91367 3.89625 8.93137 3.71281C10.4962 3.64194 10.9642 3.62526 14.9187 3.62526ZM14.9187 0.936157C10.8967 0.936157 10.3939 0.952834 8.81166 1.02579C3.43151 1.27386 0.43891 4.2819 0.192973 9.70596C0.12115 11.2986 0.101562 11.8072 0.101562 15.8596C0.101562 19.912 0.12115 20.4207 0.190796 22.0133C0.436734 27.4332 3.42498 30.4454 8.81166 30.6935C10.3939 30.7643 10.8967 30.7831 14.9187 30.7831C18.9452 30.7831 19.4523 30.7643 21.0302 30.6935C26.4082 30.4454 29.4073 27.4374 29.6511 22.0133C29.7229 20.4207 29.7425 19.912 29.7425 15.8596C29.7425 11.8072 29.7229 11.2986 29.6511 9.70805C29.4095 4.29232 26.419 1.27594 21.0324 1.02579C19.4523 0.952834 18.9452 0.936157 14.9187 0.936157ZM14.9187 8.19673C10.7182 8.19673 7.30992 11.6279 7.30992 15.8596C7.30992 20.0913 10.7182 23.5246 14.9187 23.5246C19.1236 23.5246 22.5297 20.0934 22.5297 15.8596C22.5297 11.6279 19.1236 8.19673 14.9187 8.19673ZM14.9187 20.8334C12.1917 20.8334 9.98259 18.6071 9.98259 15.8596C9.98259 13.1122 12.1917 10.8858 14.9187 10.8858C17.648 10.8858 19.8614 13.1122 19.8614 15.8596C19.8614 18.6071 17.648 20.8334 14.9187 20.8334ZM22.8323 6.10382C21.8485 6.10382 21.0541 6.90638 21.0541 7.89447C21.0541 8.88256 21.8485 9.68512 22.8323 9.68512C23.8138 9.68512 24.6104 8.88256 24.6104 7.89447C24.6104 6.90638 23.8138 6.10382 22.8323 6.10382Z" fill="black"/>
</svg>
