<svg width="41" height="27" viewBox="0 0 41 27" fill="none" xmlns="http://www.w3.org/2000/svg">
<path d="M39.299 0.459595H2.2C1.403 0.459595 0.75 1.09759 0.75 1.89259V24.6726C0.75 25.4676 1.403 26.1066 2.201 26.1066H39.3C40.098 26.1066 40.751 25.4686 40.751 24.6736V1.89259C40.751 1.09759 40.098 0.459595 39.3 0.459595H39.299ZM39.299 1.35959C39.613 1.35959 39.861 1.60159 39.861 1.89259V24.6726C39.8592 24.7446 39.8432 24.8155 39.814 24.8813C39.7847 24.9471 39.7428 25.0065 39.6906 25.056C39.6385 25.1056 39.577 25.1445 39.5098 25.1703C39.4426 25.1961 39.371 25.2085 39.299 25.2066H2.2C2.05472 25.2101 1.91399 25.1558 1.80864 25.0557C1.70329 24.9556 1.64193 24.8179 1.638 24.6726V1.89259C1.638 1.60159 1.886 1.35959 2.2 1.35959H39.3H39.299Z" fill="#CCCCCC"/>
<path d="M18.2349 11.5846C18.2318 10.4848 18.4738 9.39804 18.9432 8.40342C19.4127 7.40881 20.0978 6.53127 20.9489 5.83459C19.7064 4.82349 18.1538 4.27087 16.5519 4.26959C12.6099 4.26959 9.42188 7.54159 9.42188 11.5846C9.42188 15.6276 12.6099 18.8986 16.5519 18.8986C18.2149 18.8986 19.7399 18.3096 20.9489 17.3346C19.3049 16.0146 18.2349 13.9206 18.2349 11.5846V11.5846Z" fill="#EB001B"/>
<path d="M33.0504 11.5846C33.0504 15.6276 29.8614 18.8986 25.9204 18.8986C24.3187 18.8976 22.766 18.3453 21.5234 17.3346C23.1874 15.9936 24.2364 13.9206 24.2364 11.5846C24.2397 10.4848 23.9978 9.39817 23.5285 8.40356C23.0593 7.40895 22.3743 6.53137 21.5234 5.83459C22.7659 4.82349 24.3185 4.27087 25.9204 4.26959C29.8614 4.26959 33.0504 7.56159 33.0504 11.5846Z" fill="#F79E1B"/>
<path d="M13.6198 22.5966V21.3776C13.6198 20.9106 13.3428 20.6056 12.8678 20.6056C12.7353 20.6007 12.6037 20.63 12.4857 20.6906C12.3677 20.7512 12.2672 20.841 12.1938 20.9516C12.1306 20.841 12.038 20.7502 11.9262 20.6891C11.8145 20.628 11.688 20.5991 11.5608 20.6056C11.4516 20.6012 11.3431 20.6251 11.2459 20.6751C11.1486 20.725 11.0659 20.7993 11.0058 20.8906V20.6466H10.5898V22.5966H11.0058V21.5196C11.0058 21.1746 11.1838 21.0116 11.4618 21.0116C11.7388 21.0116 11.8768 21.1946 11.8768 21.5196V22.5966H12.2928V21.5196C12.2928 21.1746 12.4908 21.0116 12.7488 21.0116C13.0258 21.0116 13.1648 21.1946 13.1648 21.5196V22.5966H13.6198V22.5966ZM19.7798 20.6466H19.1068V20.0566H18.6908V20.6466H18.3138V21.0326H18.6908V21.9266C18.6908 22.3736 18.8688 22.6366 19.3438 22.6366C19.5228 22.6366 19.7208 22.5766 19.8588 22.4956L19.7398 22.1296C19.6338 22.1979 19.51 22.2334 19.3838 22.2316C19.1858 22.2316 19.1068 22.1096 19.1068 21.9056V21.0326H19.7798V20.6466V20.6466ZM23.3048 20.6066C23.2044 20.6048 23.1053 20.6302 23.0181 20.6802C22.931 20.7302 22.859 20.8029 22.8098 20.8906V20.6466H22.3938V22.5966H22.8098V21.4996C22.8098 21.1746 22.9488 20.9916 23.2058 20.9916C23.2858 20.9916 23.3848 21.0116 23.4638 21.0316L23.5828 20.6256C23.5028 20.6056 23.3848 20.6056 23.3048 20.6056V20.6066ZM17.9778 20.8086C17.7798 20.6666 17.5018 20.6056 17.2048 20.6056C16.7298 20.6056 16.4128 20.8496 16.4128 21.2356C16.4128 21.5606 16.6508 21.7436 17.0668 21.8046L17.2648 21.8246C17.4828 21.8646 17.6008 21.9266 17.6008 22.0276C17.6008 22.1706 17.4428 22.2716 17.1658 22.2716C16.8878 22.2716 16.6698 22.1706 16.5318 22.0686L16.3338 22.3936C16.5518 22.5566 16.8488 22.6376 17.1458 22.6376C17.6998 22.6376 18.0168 22.3736 18.0168 22.0076C18.0168 21.6626 17.7598 21.4796 17.3638 21.4176L17.1658 21.3976C16.9868 21.3776 16.8488 21.3376 16.8488 21.2156C16.8488 21.0726 16.9868 20.9916 17.2048 20.9916C17.4125 21.0011 17.6154 21.0568 17.7988 21.1546L17.9778 20.8086V20.8086ZM29.0288 20.6056C28.9283 20.6039 28.8291 20.6295 28.7419 20.6797C28.6548 20.7298 28.5829 20.8027 28.5338 20.8906V20.6466H28.1178V22.5966H28.5338V21.4996C28.5338 21.1746 28.6728 20.9916 28.9298 20.9916C29.0098 20.9916 29.1088 21.0116 29.1878 21.0316L29.3068 20.6256C29.2268 20.6056 29.1088 20.6056 29.0288 20.6056ZM23.7208 21.6216C23.7208 22.2116 24.1168 22.6376 24.7308 22.6376C25.0088 22.6376 25.2068 22.5766 25.4048 22.4136L25.2068 22.0686C25.0678 22.1847 24.893 22.2493 24.7118 22.2516C24.3748 22.2516 24.1368 22.0076 24.1368 21.6216C24.1368 21.2556 24.3748 21.0116 24.7118 20.9916C24.8898 20.9916 25.0478 21.0526 25.2068 21.1746L25.4048 20.8296C25.2068 20.6666 25.0088 20.6056 24.7308 20.6056C24.1168 20.6056 23.7208 21.0326 23.7208 21.6216ZM27.5638 21.6216V20.6466H27.1478V20.8906C27.0793 20.7985 26.9894 20.7245 26.886 20.6749C26.7825 20.6252 26.6685 20.6015 26.5538 20.6056C26.0188 20.6056 25.6028 21.0326 25.6028 21.6216C25.6028 22.2116 26.0188 22.6376 26.5528 22.6376C26.8308 22.6376 27.0288 22.5356 27.1478 22.3526V22.5966H27.5638V21.6216V21.6216ZM26.0388 21.6216C26.0388 21.2766 26.2568 20.9916 26.6128 20.9916C26.9498 20.9916 27.1868 21.2556 27.1868 21.6216C27.1868 21.9666 26.9498 22.2516 26.6128 22.2516C26.2568 22.2316 26.0388 21.9666 26.0388 21.6216ZM21.0668 20.6056C20.5128 20.6056 20.1168 21.0116 20.1168 21.6216C20.1168 22.2316 20.5128 22.6376 21.0868 22.6376C21.3638 22.6376 21.6418 22.5566 21.8598 22.3736L21.6618 22.0686C21.5038 22.1947 21.309 22.2659 21.1068 22.2716C20.8498 22.2716 20.5918 22.1496 20.5328 21.8046H21.9388V21.6416C21.9588 21.0116 21.6018 20.6056 21.0668 20.6056V20.6056ZM21.0668 20.9716C21.3248 20.9716 21.5028 21.1336 21.5428 21.4386H20.5528C20.5918 21.1746 20.7698 20.9716 21.0668 20.9716ZM31.3868 21.6216V19.8746H30.9698V20.8906C30.9013 20.7985 30.8114 20.7245 30.708 20.6749C30.6045 20.6252 30.4905 20.6015 30.3758 20.6056C29.8408 20.6056 29.4258 21.0326 29.4258 21.6216C29.4258 22.2116 29.8408 22.6376 30.3758 22.6376C30.6528 22.6376 30.8508 22.5356 30.9698 22.3526V22.5966H31.3858V21.6216H31.3868ZM29.8608 21.6216C29.8608 21.2766 30.0788 20.9916 30.4358 20.9916C30.7718 20.9916 31.0098 21.2556 31.0098 21.6216C31.0098 21.9666 30.7718 22.2516 30.4358 22.2516C30.0788 22.2316 29.8608 21.9666 29.8608 21.6216ZM15.9568 21.6216V20.6466H15.5418V20.8906C15.4732 20.7984 15.3832 20.7243 15.2795 20.6747C15.1759 20.625 15.0617 20.6013 14.9468 20.6056C14.4128 20.6056 13.9968 21.0326 13.9968 21.6216C13.9968 22.2116 14.4128 22.6376 14.9468 22.6376C15.2248 22.6376 15.4228 22.5356 15.5418 22.3526V22.5966H15.9568V21.6216V21.6216ZM14.4128 21.6216C14.4128 21.2766 14.6298 20.9916 14.9868 20.9916C15.3238 20.9916 15.5608 21.2556 15.5608 21.6216C15.5608 21.9666 15.3238 22.2516 14.9868 22.2516C14.6298 22.2316 14.4128 21.9666 14.4128 21.6216Z" fill="black"/>
</svg>