<svg width="30" height="20" viewBox="0 0 30 20" fill="none" xmlns="http://www.w3.org/2000/svg">
<path d="M28.9655 18C29.5368 18 30 18.4477 30 19C30 19.5523 29.5368 20 28.9655 20H1.03448C0.463154 20 0 19.5523 0 19C0 18.4477 0.463154 18 1.03448 18H28.9655ZM28.9655 9C29.5368 9 30 9.44772 30 10C30 10.5523 29.5368 11 28.9655 11H1.03448C0.463154 11 0 10.5523 0 10C0 9.44772 0.463154 9 1.03448 9H28.9655ZM28.9655 0C29.5368 0 30 0.447715 30 1C30 1.55228 29.5368 2 28.9655 2H1.03448C0.463154 2 0 1.55228 0 1C0 0.447715 0.463154 0 1.03448 0H28.9655Z" fill="black"/>
</svg>
