<svg width="22" height="22" viewBox="0 0 22 22" xmlns="http://www.w3.org/2000/svg">
    <g transform="translate(.75)" stroke="#cf0a2c" fill="none" fill-rule="evenodd">
        <path d="M18.25 6.75c.69 0 1.315.28 1.768.732.452.453.732 1.078.732 1.768v7.875l-19.75.5L.5 9.25c0-.69.28-1.315.732-1.768A2.492 2.492 0 0 1 3 6.75z" fill="#FFF"/>
        <path fill="#FFF" d="M5.5 14.875h10.25v5.875H5.5z"/>
        <rect fill="#FFF" x="5.5" y=".5" width="10.25" height="6.188" rx="1"/>
        <path stroke-linecap="round" d="M4.063 14.688h13.125"/>
        <path stroke-width=".75" stroke-linecap="round" d="M7.188 17.188h3.125M10.938 19.063h3.125M7.188 19.063h1.875"/>
        <rect stroke-width=".75" fill="#FFF" x="16.875" y="8.75" width="1.875" height="1.875" rx=".938"/>
    </g>
</svg>
