<svg width="17" height="17" viewBox="0 0 17 17" fill="none" xmlns="http://www.w3.org/2000/svg">
<path d="M1.8598 2.43911C2.97221 1.32614 4.46673 0.67859 6.0395 0.628126C7.61228 0.577662 9.14524 1.12807 10.3267 2.16744C11.5082 3.20682 12.2495 4.65713 12.3998 6.22351C12.5502 7.78989 12.0984 9.35476 11.1363 10.5999L16.4307 15.8943L15.401 16.9241L10.1167 11.6399C8.88213 12.6293 7.31557 13.1084 5.73874 12.9789C4.16191 12.8495 2.69449 12.1212 1.63778 10.9437C0.581066 9.76622 0.0152652 8.22883 0.056554 6.64724C0.0978428 5.06565 0.743087 3.55987 1.8598 2.43911ZM9.58367 3.46887C9.1456 3.02267 8.62347 2.66769 8.04744 2.42443C7.47141 2.18116 6.85288 2.05443 6.2276 2.05156C5.60231 2.04869 4.98265 2.16973 4.40441 2.40769C3.82616 2.64565 3.3008 2.99582 2.85865 3.43796C2.4165 3.88011 2.06633 4.40548 1.82837 4.98373C1.59041 5.56197 1.46937 6.18163 1.47224 6.80692C1.47512 7.4322 1.60184 8.05072 1.84511 8.62676C2.08837 9.20279 2.44336 9.72492 2.88955 10.163C3.78002 11.0372 4.9797 11.5245 6.2276 11.5188C7.47549 11.513 8.67064 11.0148 9.55305 10.1324C10.4355 9.24996 10.9337 8.05481 10.9395 6.80692C10.9452 5.55902 10.4579 4.35934 9.58367 3.46887Z" fill="black"/>
</svg>
