<svg width="32" height="27" viewBox="0 0 32 27" fill="none" xmlns="http://www.w3.org/2000/svg">
<path d="M30.781 0.675136C29.5424 1.45236 28.1664 2.00685 26.7202 2.31144C25.5572 1.00194 23.8945 0.184937 22.0515 0.184937C18.5242 0.184937 15.6624 3.19748 15.6624 6.91655C15.6624 7.44357 15.7201 7.95448 15.8258 8.44929C10.5132 8.16852 5.80362 5.48738 2.64872 1.41619C2.07503 2.45978 1.7772 3.62216 1.7813 4.80156C1.7813 7.13518 2.91303 9.19494 4.62624 10.4032C3.60223 10.3659 2.60565 10.0758 1.73324 9.56087V9.64602C1.73324 12.9071 3.93903 15.6297 6.86087 16.2488C5.9233 16.5177 4.93032 16.5572 3.97267 16.3638C4.78723 19.0358 7.1468 20.9851 9.94609 21.0403C7.75712 22.8446 5.00108 23.9216 2.00236 23.9216C1.48815 23.9216 0.981156 23.8894 0.476562 23.8273C3.33861 25.7848 6.76565 26.8408 10.2825 26.849C22.0395 26.849 28.4695 16.5917 28.4695 7.69443C28.4695 7.40445 28.4647 7.11217 28.4526 6.82449C29.7021 5.87631 30.7858 4.69109 31.6388 3.34016C30.4838 3.88132 29.2446 4.23887 27.9697 4.39881C29.2912 3.5657 30.3028 2.2493 30.781 0.675136Z" fill="black"/>
</svg>
