<svg width="41" height="27" viewBox="0 0 41 27" fill="none" xmlns="http://www.w3.org/2000/svg">
<path d="M38.799 0.459595H1.7C0.903 0.459595 0.25 1.09759 0.25 1.89259V24.6726C0.25 25.4676 0.903 26.1066 1.701 26.1066H38.8C39.598 26.1066 40.251 25.4686 40.251 24.6736V1.89259C40.251 1.09759 39.598 0.459595 38.8 0.459595H38.799ZM38.799 1.35959C39.113 1.35959 39.361 1.60159 39.361 1.89259V24.6726C39.3592 24.7446 39.3432 24.8155 39.314 24.8813C39.2847 24.9471 39.2428 25.0065 39.1906 25.056C39.1385 25.1056 39.077 25.1445 39.0098 25.1703C38.9426 25.1961 38.871 25.2085 38.799 25.2066H1.7C1.55472 25.2101 1.41399 25.1558 1.30864 25.0557C1.20329 24.9556 1.14193 24.8179 1.138 24.6726V1.89259C1.138 1.60159 1.386 1.35959 1.7 1.35959H38.8H38.799Z" fill="#CCCCCC"/>
<path d="M17.2524 8.17957L15.6114 18.6566H18.2344L19.8744 8.17957H17.2524V8.17957ZM25.1644 12.4476C24.2484 11.9836 23.6864 11.6696 23.6864 11.1946C23.6974 10.7626 24.1614 10.3206 25.1974 10.3206C25.8696 10.3011 26.5376 10.4338 27.1514 10.7086L27.3894 10.8176L27.7464 8.62557C26.9951 8.3364 26.1964 8.18989 25.3914 8.19357C22.8014 8.19357 20.9774 9.57557 20.9654 11.5516C20.9444 13.0096 22.2714 13.8186 23.2654 14.3046C24.2794 14.8026 24.6254 15.1246 24.6254 15.5676C24.6144 16.2476 23.8054 16.5606 23.0494 16.5606C22.0034 16.5606 21.4414 16.3986 20.5874 16.0206L20.2424 15.8586L19.8754 18.1366C20.4914 18.4186 21.6254 18.6656 22.8014 18.6776C25.5544 18.6776 27.3454 17.3176 27.3684 15.2116C27.3774 14.0556 26.6774 13.1716 25.1644 12.4476V12.4476ZM34.4714 8.21257H32.4414C31.8164 8.21257 31.3414 8.39657 31.0704 9.05557L27.1734 18.6566H29.9264L30.6854 16.5786H33.7654L34.1584 18.6656H36.5864L34.4714 8.21257ZM31.4484 14.4806C31.5014 14.4856 32.5054 11.0866 32.5054 11.0866L33.3044 14.4806H31.4484V14.4806ZM13.4184 8.18057L10.8484 15.2986L10.5684 13.8946C10.0934 12.2746 8.60441 10.5146 6.94141 9.64057L9.29441 18.6466H12.0704L16.1944 8.18157H13.4194V8.17957L13.4184 8.18057Z" fill="#1A1F71"/>
</svg>
