<svg width="24" height="22" viewBox="0 0 24 22" fill="none" xmlns="http://www.w3.org/2000/svg">
<path fill-rule="evenodd" clip-rule="evenodd" d="M12.1424 19.87L3.30336 11.031C2.79206 10.5208 2.38662 9.91455 2.11032 9.24715C1.83403 8.57975 1.69233 7.86433 1.69337 7.142C1.69337 5.735 2.22936 4.327 3.30336 3.253C3.81371 2.74158 4.4201 2.33607 5.08768 2.05977C5.75526 1.78347 6.47087 1.64183 7.19337 1.643C8.72337 1.643 10.2534 2.277 11.3544 3.546H12.9304C13.4462 2.94776 14.0851 2.46794 14.8034 2.13933C15.5217 1.81073 16.3025 1.64109 17.0924 1.642C18.4994 1.642 19.9074 2.179 20.9814 3.253C21.4928 3.76335 21.8983 4.36974 22.1746 5.03732C22.4509 5.7049 22.5925 6.4205 22.5914 7.143C22.5923 7.86516 22.4505 8.58039 22.1742 9.24761C21.8979 9.91483 21.4925 10.5209 20.9814 11.031L12.1424 19.871V19.87Z" stroke="black" stroke-width="2"/>
</svg>
