<svg width="281" height="42" viewBox="0 0 281 42" xmlns="http://www.w3.org/2000/svg"><title>D4B7DAE1-648B-44C3-875C-BCAA79443104</title><g fill="#003773" fill-rule="evenodd"><path d="M61.11 41.784c-8.758 0-15.147-6.588-15.147-15.12 0-8.531 6.334-15.173 15.147-15.173 8.868 0 15.147 6.588 15.147 15.174 0 4.32-1.543 7.992-4.352 10.8-2.864 2.808-6.61 4.32-10.795 4.32m-8.373-15.12c0 5.562 3.636 9.288 8.373 9.288 4.736 0 8.317-3.618 8.317-9.288 0-5.616-3.58-9.342-8.317-9.342s-8.373 3.78-8.373 9.342M80.895 34.681V18.338h-3.594V12.73h3.594V6.268h6.39v6.462h4.62v5.608h-4.62v15.755c0 1.282.34 1.549 1.31 1.549h5.42v6.142h-5.59c-5.248 0-7.53-2.083-7.53-7.103M113.738 25.351c0-5.513-1.545-7.622-5.114-7.622-4.103 0-6.127 2.379-6.127 7.839v16.216h-6.393V0h6.393v14.486c1.971-1.729 4.261-2.594 6.926-2.594 6.551 0 10.707 4.865 10.707 13.027v16.865h-6.392V25.351M140.907 35.899c3.276 0 6.224-1.351 9.171-4.752l4.75 3.833c-4.203 4.86-8.57 6.804-14.03 6.804-8.785 0-15.445-6.21-15.445-14.958 0-9.178 6.168-15.335 15.008-15.335 9.008 0 15.286 6.534 15.286 16.362v1.188h-23.743c.655 4.104 4.15 6.858 9.003 6.858m-8.948-12.312h16.482c-.872-3.78-4.04-6.264-8.133-6.264-4.146 0-7.53 2.592-8.35 6.264M163.54 25.762v16.022h-5.804V13.02h5.599v2.097c1.503-1.72 3.42-2.58 5.752-2.58.518 0 1.088 0 2.229.269v6.45c-1.66-.375-2.333-.482-2.852-.482-3.212 0-4.923 2.096-4.923 6.989M174.45 26.665c0-8.694 5.937-15.174 14.47-15.174 3.923 0 7.156 1.188 10.336 4.212l-4.029 4.806c-2.068-2.376-3.869-3.186-6.307-3.186-4.611 0-8.004 3.78-8.004 9.342 0 5.616 3.393 9.234 8.004 9.234 2.598 0 4.56-.919 6.468-3.456l4.132 4.86c-3.498 3.293-6.625 4.481-10.6 4.481-8.48 0-14.47-6.426-14.47-15.12M223.365 38.34c-2.33 2.332-5.419 3.444-9.159 3.444-8.399 0-14.686-6.465-14.686-14.625 0-8.69 5.852-14.624 14.686-14.624 3.795 0 7.045 1.272 9.539 3.656v-3.127h6.07v28.35h-6.45V38.34zm-17.234-11.127c0 5.351 3.686 8.954 8.78 8.954 5.04 0 8.724-3.656 8.724-8.954 0-5.299-3.684-8.955-8.724-8.955-5.094 0-8.78 3.656-8.78 8.955zM242.932 25.762v16.022h-5.806V13.02h5.598v2.097c1.503-1.72 3.42-2.58 5.754-2.58.519 0 1.088 0 2.228.269v6.45c-1.658-.375-2.332-.482-2.85-.482-3.214 0-4.924 2.096-4.924 6.989M266.263 35.899c3.275 0 6.222-1.351 9.17-4.752l4.748 3.833c-4.202 4.86-8.568 6.804-14.028 6.804-8.787 0-15.447-6.21-15.447-14.958 0-9.178 6.168-15.335 15.01-15.335 9.008 0 15.284 6.534 15.284 16.362v1.188h-23.744c.656 4.104 4.15 6.858 9.007 6.858m-8.953-12.312h16.485c-.873-3.78-4.04-6.264-8.133-6.264-4.148 0-7.533 2.592-8.352 6.264M36.403 25.737c0-5.366-1.782-7.46-5.075-7.46-4.105 0-6.103 2.255-6.103 7.675v15.832h-6.264V25.737c0-5.312-1.836-7.46-5.13-7.46-4.103 0-6.102 2.255-6.102 7.675v15.832H0V13.071h7.675v2.04c2.053-1.718 4.32-2.576 7.02-2.576 3.294 0 5.886 1.288 7.992 3.972 2.538-2.63 5.562-3.972 9.234-3.972 6.588 0 10.908 4.777 10.908 12.719v16.53h-6.426V25.737"/></g></svg>