<svg width="29" height="31" viewBox="0 0 29 31" fill="none" xmlns="http://www.w3.org/2000/svg">
<path d="M14.2933 3.68397C18.0852 3.68397 18.5355 3.70065 20.0301 3.77153C23.8803 3.95497 25.6751 5.87486 25.8502 9.88975C25.919 11.4615 25.9315 11.9347 25.9315 15.9204C25.9315 19.9061 25.9169 20.3752 25.8502 21.949C25.673 25.9597 23.8803 27.8838 20.0301 28.0672C18.5355 28.1402 18.0873 28.1548 14.2933 28.1548C10.5057 28.1548 10.0554 28.1402 8.55868 28.0672C4.7043 27.8817 2.91574 25.9556 2.74272 21.949C2.67393 20.3752 2.65934 19.904 2.65934 15.9183C2.65934 11.9326 2.67393 11.4615 2.74272 9.88767C2.91782 5.87486 4.71056 3.95497 8.55868 3.77153C10.0575 3.70065 10.5057 3.68397 14.2933 3.68397ZM14.2933 0.994873C10.4411 0.994873 9.95952 1.01155 8.44403 1.08451C3.29096 1.33257 0.424672 4.34061 0.189115 9.76468C0.120324 11.3573 0.101562 11.8659 0.101562 15.9183C0.101562 19.9708 0.120324 20.4794 0.18703 22.072C0.422587 27.4919 3.28471 30.5041 8.44403 30.7522C9.95952 30.823 10.4411 30.8418 14.2933 30.8418C18.1498 30.8418 18.6355 30.823 20.1468 30.7522C25.2978 30.5041 28.1704 27.4961 28.4038 22.072C28.4726 20.4794 28.4914 19.9708 28.4914 15.9183C28.4914 11.8659 28.4726 11.3573 28.4038 9.76676C28.1724 4.35104 25.3082 1.33466 20.1489 1.08451C18.6355 1.01155 18.1498 0.994873 14.2933 0.994873ZM14.2933 8.25545C10.2701 8.25545 7.00567 11.6867 7.00567 15.9183C7.00567 20.15 10.2701 23.5833 14.2933 23.5833C18.3207 23.5833 21.5831 20.1521 21.5831 15.9183C21.5831 11.6867 18.3207 8.25545 14.2933 8.25545ZM14.2933 20.8921C11.6814 20.8921 9.56553 18.6658 9.56553 15.9183C9.56553 13.1709 11.6814 10.9445 14.2933 10.9445C16.9074 10.9445 19.0274 13.1709 19.0274 15.9183C19.0274 18.6658 16.9074 20.8921 14.2933 20.8921ZM21.8729 6.16253C20.9306 6.16253 20.1698 6.96509 20.1698 7.95318C20.1698 8.94127 20.9306 9.74383 21.8729 9.74383C22.813 9.74383 23.576 8.94127 23.576 7.95318C23.576 6.96509 22.813 6.16253 21.8729 6.16253Z" fill="black"/>
</svg>
