<svg width="31" height="27" viewBox="0 0 31 27" fill="none" xmlns="http://www.w3.org/2000/svg">
<path d="M29.7636 0.733852C28.5774 1.51108 27.2594 2.06557 25.8742 2.37015C24.7604 1.06065 23.1678 0.243652 21.4026 0.243652C18.0241 0.243652 15.2832 3.25619 15.2832 6.97527C15.2832 7.50229 15.3384 8.0132 15.4397 8.508C10.3513 8.22723 5.8405 5.54609 2.81875 1.4749C2.26928 2.51849 1.98402 3.68087 1.98794 4.86027C1.98794 7.1939 3.07191 9.25366 4.71281 10.4619C3.73202 10.4246 2.77751 10.1345 1.94192 9.61958V9.70473C1.94192 12.9658 4.05461 15.6884 6.85312 16.3075C5.95513 16.5764 5.00405 16.616 4.08683 16.4225C4.867 19.0945 7.12699 21.0438 9.80812 21.099C7.71154 22.9033 5.07183 23.9804 2.19967 23.9804C1.70717 23.9804 1.22158 23.9481 0.738281 23.886C3.47952 25.8435 6.76192 26.8996 10.1303 26.9077C21.3911 26.9077 27.5497 16.6504 27.5497 7.75314C27.5497 7.46316 27.5451 7.17089 27.5336 6.88321C28.7303 5.93503 29.7682 4.74981 30.5852 3.39888C29.479 3.94003 28.2921 4.29759 27.071 4.45753C28.3367 3.62442 29.3056 2.30801 29.7636 0.733852Z" fill="black"/>
</svg>
