<svg xmlns="http://www.w3.org/2000/svg" xmlns:xlink="http://www.w3.org/1999/xlink" width="34" height="35" viewBox="0 0 34 35">
    <defs>
        <filter id="4coon92aeb" color-interpolation-filters="auto">
            <feColorMatrix in="SourceGraphic" values="0 0 0 0 0.839216 0 0 0 0 0.000000 0 0 0 0 0.109804 0 0 0 1.000000 0"/>
        </filter>
        <rect id="o8zsl8lnwa" width="24" height="24" x="5" y="5" rx="3"/>
    </defs>
    <g fill="#fff" fill-rule="evenodd">
        <g>
            <g>
                <g transform="translate(-15.000000, -466.000000) translate(0.000000, 446.000000) translate(15.000000, 20.606557)">
                    <mask id="7hi6ndk4sc" fill="#fff">
                        <use xlink:href="#o8zsl8lnwa"/>
                    </mask>
                    <rect width="23" height="23" x="5.5" y="5.5" stroke="#000" rx="3"/>
                    <g filter="url(#4coon92aeb)">
                        <g mask="url(#7hi6ndk4sc)">
                            <g fill="#FFF">
                                <path d="M16.873.242c-.3.124-.534-.006-.9.693-1.154 2.198-2.05 3.982-3.12 6.549.032-2.108.438-3.786.68-5.838.045-.379.108-.9.099-1.293-.008-.302-.332-.342-.985-.043-.364.167-.801.153-.968.554-.71 1.707-2.35 6.453-3.112 9.137-.183.645.505.753.712.091.5-1.599 1.645-5.139 2.327-6.962-.068 1.67-.56 4.307-.33 5.691.072.436.51.624.735.992.16.262.418.289.559-.07.666-1.687 1.964-4.664 3.217-7.046-.246 1.048-1.187 5.497-1.45 7.27-.052.356.418.365.835.9.094.12.454.25.52-.057.222-1.063 1.675-7.97 2.245-10.164.153-.59.109-.888-1.064-.404M7.427 5.273c.504-.691.65-.55.77-.761.152-.264.052-.512-.487-.45 0 0-.204.013-.58.052C7.728 2.7 8.25 1.5 8.627.588c.128-.31.144-.537-.064-.583-.224-.05-.868.271-1.266.334-.125.02-.246.144-.288.23-.635 1.343-1.204 2.621-1.698 3.787-.63.099-1.369.23-2.194.4.59-1.395 1.188-2.77 1.77-4.095.288-.65-.468-.712-.76-.052-.38.857-1.094 2.463-1.883 4.335-.58.131-1.194.28-1.837.451-.467.124-.487.239-.285.496.112.144.342.13.447.232.273.264.438.58.926.629C1.059 7.82.625 8.924.23 9.986c-.247.666.457.802.728.097.436-1.137.896-2.287 1.368-3.435.393-.084 1.346-.272 2.227-.448-.699 1.76-1.159 3.096-1.332 3.747-.033.125.022.194.05.245.236.316.46.329.764.719.082.106.357.163.452-.098.646-1.797 1.311-3.484 1.932-4.995.258-.052.722-.155 1.007-.545M8.059 7.96c-.048.034-.099.074-.15.115-.06-.149-.117-.297-.171-.44.162-.163.318-.325.452-.495.554-.71-.541-1.12-1.013-.659-.252.246-.19.488-.12.695.021.063.056.158.096.266-.135.113-.297.255-.511.46-.535.513-.39 1.177.183 1.324.349.089.674-.043.955-.25.014.03.028.064.041.09.15.308.613.215.436-.158-.03-.064-.07-.155-.112-.254.09-.095.175-.19.247-.28.342-.417.012-.66-.333-.414zm-.363-.978c-.051.049-.1.091-.149.133-.01-.033-.024-.07-.033-.097-.158-.496.531-.36.182-.036zm-.374 1.51c-.21.106-.376-.008-.094-.326.047-.054.096-.1.146-.152.047.12.095.24.145.36-.065.044-.131.085-.197.118z" transform="translate(8.000000, 12.000000)"/>
                            </g>
                        </g>
                    </g>
                </g>
            </g>
        </g>
    </g>
</svg>
