<svg width="24" height="24" xmlns="http://www.w3.org/2000/svg" xmlns:xlink="http://www.w3.org/1999/xlink">
    <defs>
        <rect id="a" x="0" y="0" width="24" height="24" rx="3"/>
    </defs>
    <g fill="#CD2026" fill-rule="evenodd">
        <mask id="b" fill="#fff">
            <use xlink:href="#a"/>
        </mask>
        <rect stroke="#CD2026" x=".5" y=".5" width="23" height="23" rx="3"/>
        <g mask="url(#b)" fill="#FFF">
            <path d="M19.873 7.242c-.3.124-.534-.006-.9.693-1.154 2.198-2.05 3.982-3.12 6.549.032-2.108.438-3.786.68-5.838.045-.379.108-.9.099-1.293-.008-.302-.332-.342-.985-.043-.364.167-.801.153-.968.554-.71 1.707-2.35 6.453-3.112 9.137-.183.645.505.753.712.091.5-1.599 1.645-5.139 2.327-6.962-.068 1.67-.56 4.307-.33 5.691.072.436.51.624.735.992.16.262.418.289.559-.07.666-1.687 1.964-4.664 3.217-7.046-.246 1.048-1.187 5.497-1.45 7.27-.052.356.418.365.835.9.094.12.454.25.52-.057.222-1.063 1.675-7.97 2.245-10.164.153-.59.109-.888-1.064-.404M10.427 12.273c.504-.691.65-.55.77-.761.152-.264.052-.512-.487-.45 0 0-.204.013-.58.052.598-1.414 1.12-2.614 1.497-3.526.128-.31.144-.537-.064-.583-.224-.05-.868.271-1.266.334-.125.02-.246.144-.288.23a100.317 100.317 0 0 0-1.698 3.787c-.63.099-1.369.23-2.194.4.59-1.395 1.188-2.77 1.77-4.095.288-.65-.468-.712-.76-.052-.38.857-1.094 2.463-1.883 4.335-.58.131-1.194.28-1.837.451-.467.124-.487.239-.285.496.112.144.342.13.447.232.273.264.438.58.926.629-.436 1.069-.87 2.172-1.264 3.234-.247.666.457.802.728.097.436-1.137.896-2.287 1.368-3.435.393-.084 1.346-.272 2.227-.448-.699 1.76-1.159 3.096-1.332 3.747-.033.125.022.194.05.245.236.316.46.329.764.719.082.106.357.163.452-.098a119.968 119.968 0 0 1 1.932-4.995c.258-.052.722-.155 1.007-.545M11.059 14.96c-.048.034-.099.074-.15.115a35.86 35.86 0 0 1-.171-.44c.162-.163.318-.325.452-.495.554-.71-.541-1.12-1.013-.659-.252.246-.19.488-.12.695.021.063.056.158.096.266a10.44 10.44 0 0 0-.511.46c-.535.513-.39 1.177.183 1.324.349.089.674-.043.955-.25.014.03.028.064.041.09.15.308.613.215.436-.158a9.37 9.37 0 0 1-.112-.254c.09-.095.175-.19.247-.28.342-.417.012-.66-.333-.414zm-.363-.978c-.051.049-.1.091-.149.133-.01-.033-.024-.07-.033-.097-.158-.496.531-.36.182-.036zm-.374 1.51c-.21.106-.376-.008-.094-.326.047-.054.096-.1.146-.152.047.12.095.24.145.36a1.799 1.799 0 0 1-.197.118z"/>
        </g>
    </g>
</svg>
