<svg id="Layer_1" data-name="Layer 1" xmlns="http://www.w3.org/2000/svg" viewBox="0 0 648.87 471.27"><title>logo</title><path d="M648.87,244.72c0,60.07-3.63,90.89-10.23,133.1s-21.45,47.08-46.19,56.82c-105.58,34.09-195.43,36.63-268,36.63s-162.43-2.54-268-36.63C31.67,424.9,16.83,420,10.23,377.82S0,304.79,0,244.72,3.63,135.66,10.23,93.45,31.67,46.37,56.42,36.63C162,2.54,251.85,0,324.43,0s162.44,2.54,268,36.63c24.74,9.74,39.59,14.61,46.19,56.82s10.23,91.21,10.23,151.27Z" fill="red" fill-rule="evenodd"/><path d="M592,249.7c-2-1.7-6.44-.91-14.26,2.57a14.16,14.16,0,0,1-2.5.79c-3,.74-5.75,1.43-9.54,9.25-15.49,31.79-26.49,55.64-39.27,88.43.5-18.07,2.76-33.88,5.15-50.55,1.26-8.81,2.56-17.93,3.62-27.56l.09-.83a149,149,0,0,0,1.19-17.38,3.89,3.89,0,0,0-1.75-3.49c-2.18-1.32-6.22-.54-12,2.31a30.09,30.09,0,0,1-4.15,1.55c-3.49,1.12-7.11,2.27-8.77,6.56-9.31,24.15-30.64,90.67-40.52,128.22-1.26,4.79.5,7.58,2.81,8.21,2.67.74,6.17-1.29,7.72-6.6,4.93-16.93,19.2-64.92,28.76-93.2-.43,7.19-1.25,15.31-2.1,23.82-1.91,19.1-3.89,38.85-1.94,51.48.59,3.92,3.08,6.51,5.48,9a26.79,26.79,0,0,1,4.16,5.11c1.18,2.11,2.8,3.22,4.4,3.1s3.11-1.62,4.05-4.18c8.8-24,24.62-62.79,39.5-93.9-4.4,21.21-14.68,74.21-17.76,96.72-.43,3.17,1.59,4.65,4.15,6.53a28.73,28.73,0,0,1,6.84,6.56,5.9,5.9,0,0,0,4.4,2.15,3.84,3.84,0,0,0,.83-.09,3.59,3.59,0,0,0,2.69-3.1c.21-1.09,21.23-109.3,29.2-142.5C593.52,254.27,593.81,251.22,592,249.7Z" fill="#fff"/><path d="M454.78,323.61c4-6,6.22-7.44,7.68-8.41a5.75,5.75,0,0,0,2.33-2.36c1.12-2.11,1.2-4,.25-5.42-.8-1.16-2.7-2.41-7.18-1.87,0,0-2.3.18-6.44.64,3.07-7.91,6-15.33,8.69-22.21,4-10.13,7.43-18.88,10.27-26.36,1.35-3.59,1.61-6,.81-7.48a3.06,3.06,0,0,0-2.11-1.57h0c-1.83-.44-5.12.8-8.92,2.23a47.87,47.87,0,0,1-7.69,2.45c-2,.33-3.65,2.32-4.23,3.63-7.68,17.69-15,35.48-21.8,52.88-8.75,1.51-17.76,3.29-26.82,5.31,6.63-17.06,13.77-35,22.43-56.39,1.87-4.63.46-7.12-1.48-7.91-2.83-1.15-7.29,1.08-9.57,6.68l-.43,1c-4.86,11.95-13.91,34.14-23.78,59.59-8,2-15.86,4.07-23.43,6.26-3.5,1-5.12,2-5.6,3.38s.46,3.07,1.57,4.6a6.76,6.76,0,0,0,3.61,2.21,5.64,5.64,0,0,1,2.22,1.12c.75.78,1.44,1.61,2.11,2.42,2.35,2.82,4.77,5.72,9.43,6.5-6.39,17.12-11.65,31.75-16.06,44.71-1.66,4.86-.14,7.83,2.11,8.61,2.72.94,6.52-1.1,8.54-6.82,5.26-14.93,11.16-31.05,17.54-47.93,3.94-.9,11.69-2.58,19.89-4.36l7.38-1.61c-9.39,25.77-14.84,43.53-16.82,51.61a4.63,4.63,0,0,0,.58,3.66l.18.31a20,20,0,0,0,4.54,4.66,24.57,24.57,0,0,1,5.32,5.44,4.05,4.05,0,0,0,3.21,1.54,3.79,3.79,0,0,0,.58-.05,4,4,0,0,0,3.19-3c7.26-21.92,15.39-44.77,24.84-69.82C444.92,330.75,451,329.22,454.78,323.61Z" fill="#fff"/><path d="M465.74,360.47c-1.43-1.27-3.69-.93-5.74.86a14,14,0,0,0-1.12,1q-.83-2.56-1.63-5.12a83.54,83.54,0,0,0,5.29-7.08c3.54-5.52,1.76-9.73-1.09-11.83a9.14,9.14,0,0,0-12.24,1.36c-3.16,3.76-2.51,7.41-1.57,10.82.23.86.59,2.09,1,3.55-1.84,1.9-3.74,4-5.95,6.54-3.62,4.21-5,9.42-3.72,13.93a9.45,9.45,0,0,0,6.25,6.6,9.68,9.68,0,0,0,2.9.44c2.81,0,5.69-1.2,8.6-3.59l.16.4c1.1,2.76,3.44,3.57,5.08,2.92s2.63-2.63,1.42-5.72c-.34-.87-.76-2-1.23-3.37,1-1.25,1.92-2.56,2.81-3.88C467.64,364.37,467.05,361.63,465.74,360.47Zm-14.88,4.77c.34-.48.66-.91,1-1.32.41,1.25.84,2.52,1.26,3.78a16.72,16.72,0,0,1-1.95,1.38h0c-.89.54-1.58.57-1.81.32S449,367.82,450.86,365.24Zm4.19-21.3a1.07,1.07,0,0,1,.49-.12,1,1,0,0,1,.82.4c.36.48.33,1.47-.84,2.79h0l-1,1.1c0-.1,0-.2-.08-.3C453.83,345.47,454.35,344.28,455.05,343.94Z" fill="#fff"/><polygon points="429.99 221.46 449.92 221.46 449.92 79.73 429.99 79.73 429.99 221.46 429.99 221.46" fill="#fff"/><path d="M254.23,107.8v13.33h19V104.56C271.23,83.12,256.38,78,245.37,78s-28.43,5.57-28.43,29.74.18,28.64,21.87,43.73c13.58,9.44,17.15,15.43,17.57,23.56,0,0,.33,12.1,0,17.94-1,19.08-20.11,14.46-20.14,1.42V173.55H216.91v20.66c0,18.15,12.1,28.73,29.43,29,10,.16,29.43-3.87,29.85-28.58V169.68c-1-18.15-12.1-25.17-20.72-31.58s-19.23-10.77-19.78-20.75v-9.71c0-17.72,18.39-17.45,18.45,0" fill="#fff"/><polygon points="69.76 221.46 69.76 134.08 84.61 221.46 98.19 221.46 113.2 134.08 113.2 221.46 133.13 221.46 133.13 79.73 111.08 79.73 91.48 158.28 71.88 79.73 49.83 79.73 49.83 221.46 69.76 221.46 69.76 221.46" fill="#fff"/><polygon points="357.4 79.73 377.33 79.73 377.33 140.87 397.42 140.87 397.42 79.73 417.35 79.73 417.35 221.46 397.42 221.46 397.42 158.56 377.33 158.56 377.33 221.46 357.4 221.46 357.4 79.73 357.4 79.73" fill="#fff"/><path d="M557.84,186.2c0,13.24,5.78,17.63,10.68,17.63s10.68-4.36,10.68-17.63V114.93c0-13.33-5.78-17.63-10.68-17.63s-10.68,4.33-10.68,17.63Zm-19.93-71.27c0-13.39,6.35-37,30.61-37s30.52,22.78,30.52,37V186.2c0,14.15-6.54,37-30.52,37s-30.61-22.87-30.61-37Z" fill="#fff"/><path d="M164.64,186.2c0,13.24,5.78,17.63,10.68,17.63S186,199.47,186,186.2V114.93c0-13.33-5.78-17.63-10.68-17.63s-10.68,4.33-10.68,17.63Zm-19.93-71.27c0-13.39,6.35-37,30.61-37s30.55,22.78,30.55,37V186.2c0,14.15-6.53,37-30.55,37s-30.61-22.87-30.61-37Z" fill="#fff"/><path d="M346.27,173.34V186.2c0,17-5.32,37-29.34,37s-30.61-22.87-30.61-37V114.93c0-13.39,6.36-37,30.61-37s28.28,19.69,28.28,37v11.38H327.07V114.93c0-12.09-3.76-17.63-10.11-17.63-4.78,0-10.67,3.75-10.67,17.63V186.2c0,10.88,4,17.63,10.67,17.63,5.6,0,10.11-4.23,10.11-17.63V173.34Z" fill="#fff"/><polygon points="483.53 221.46 483.53 132.94 508.12 221.46 525.57 221.46 525.57 79.73 506 79.73 506 153.54 484.89 79.73 463.78 79.73 463.78 221.46 483.53 221.46 483.53 221.46" fill="#fff"/><path d="M305,326.43c0,22.53-1.36,34.17-3.84,50s-8,17.65-17.32,21.31c-39.59,12.78-79.18,13.73-106.4,13.73s-66.81-1-106.4-13.73c-9.28-3.66-14.85-5.48-17.32-21.31s-3.84-27.47-3.84-50,1.36-34.16,3.84-50,8-17.66,17.32-21.31c39.59-12.78,79.18-13.74,106.4-13.74s66.81,1,106.4,13.74c9.28,3.65,14.85,5.48,17.32,21.31s3.84,27.47,3.84,50Z" fill="#fff" fill-rule="evenodd"/><path d="M67.55,284.62h97.92v20.79H129.36v62.83h-25.7V305.41H67.55Z" fill="red"/><path d="M165.47,284.62h28.12l32.76,62.14,32.76-62.14h28.12l-45,83.62H210.49Z" fill="red"/></svg>