<svg xmlns="http://www.w3.org/2000/svg" width="23" height="14" viewBox="0 0 23 14">
    <path fill="#FFF" fill-rule="evenodd" d="M20.469 5.752V3.327H18.66v2.425h-2.603v1.733h2.603V9.98h1.809V7.485H23V5.752h-2.531zM7.305 5.614v2.772l3.95-.003c-.62 1.797-1.582 2.775-3.95 2.775-2.397 0-4.267-1.861-4.267-4.158 0-2.297 1.87-4.158 4.267-4.158 1.267 0 2.086.426 2.836 1.021.601-.576.551-.658 2.08-2.041A7.457 7.457 0 0 0 7.305 0C3.271 0 0 3.134 0 7s3.27 7 7.305 7c6.03 0 7.504-5.032 7.016-8.386H7.305z"/>
</svg>
