<svg xmlns="http://www.w3.org/2000/svg" xmlns:xlink="http://www.w3.org/1999/xlink" width="18" height="18" viewBox="0 0 18 18">
    <defs>
        <path id="a" d="M8.997 17.964H0V.006h17.994v17.958z"/>
    </defs>
    <g fill="none" fill-rule="evenodd">
        <g transform="translate(0 .03)">
            <mask id="b" fill="#fff">
                <use xlink:href="#a"/>
            </mask>
            <path fill="#FFF" d="M8.997.006c-2.443 0-2.75.01-3.71.054-.957.043-1.611.195-2.183.417A4.411 4.411 0 0 0 1.51 1.513c-.5.499-.808 1-1.038 1.59-.222.571-.374 1.224-.418 2.18C.01 6.24 0 6.546 0 8.985s.01 2.744.054 3.702c.044.956.196 1.609.418 2.18.23.59.538 1.091 1.038 1.59.5.5 1.002.806 1.594 1.036.572.222 1.226.374 2.184.417.96.044 1.266.054 3.71.054 2.443 0 2.749-.01 3.709-.054.957-.043 1.611-.195 2.184-.417a4.411 4.411 0 0 0 1.593-1.036c.5-.499.808-1 1.038-1.59.222-.571.374-1.224.418-2.18.044-.958.054-1.263.054-3.702s-.01-2.744-.054-3.702c-.044-.956-.196-1.609-.418-2.18a4.401 4.401 0 0 0-1.038-1.59c-.5-.5-1.002-.806-1.593-1.036-.573-.222-1.227-.374-2.184-.417-.96-.044-1.266-.054-3.71-.054m0 1.618c2.403 0 2.687.009 3.636.052.877.04 1.353.186 1.67.31.42.162.72.357 1.035.67.315.315.51.614.673 1.033.123.317.27.792.31 1.668.043.946.052 1.23.052 3.628s-.009 2.682-.052 3.628c-.04.876-.187 1.351-.31 1.668-.163.419-.358.718-.673 1.032a2.788 2.788 0 0 1-1.035.672c-.317.123-.793.27-1.67.31-.949.042-1.233.051-3.636.051-2.402 0-2.687-.009-3.635-.052-.878-.04-1.354-.186-1.671-.31a2.788 2.788 0 0 1-1.035-.67 2.782 2.782 0 0 1-.673-1.033c-.123-.317-.27-.792-.31-1.668-.043-.946-.052-1.23-.052-3.628s.01-2.682.053-3.628c.04-.876.186-1.351.31-1.668.163-.419.358-.718.672-1.032a2.788 2.788 0 0 1 1.035-.672c.317-.123.793-.27 1.67-.31.95-.042 1.234-.051 3.636-.051" mask="url(#b)"/>
        </g>
        <path fill="#FFF" d="M8.997 12.008c-1.656 0-2.999-1.34-2.999-2.993a2.996 2.996 0 0 1 3-2.993 2.996 2.996 0 0 1 2.998 2.993 2.996 2.996 0 0 1-2.999 2.993m0-7.604a4.616 4.616 0 0 0-4.62 4.611 4.616 4.616 0 0 0 4.62 4.611 4.616 4.616 0 0 0 4.62-4.611 4.616 4.616 0 0 0-4.62-4.611M14.88 4.222a1.079 1.079 0 1 1-2.158-.002 1.079 1.079 0 0 1 2.158.002"/>
    </g>
</svg>
