<svg width="27" height="27" viewBox="0 0 27 27" xmlns="http://www.w3.org/2000/svg"><title>B62C799B-97BE-4D50-8139-A2983FE1A05C</title><g fill="none" fill-rule="evenodd"><path d="M13.5 7c-1.765 0-1.986.008-2.68.04-.692.031-1.164.14-1.577.301-.428.166-.79.388-1.152.75a3.19 3.19 0 0 0-.75 1.151c-.161.414-.27.886-.302 1.578-.03.693-.039.915-.039 2.68 0 1.765.008 1.986.04 2.68.031.691.14 1.164.301 1.577.166.428.388.79.75 1.152.361.361.724.584 1.151.75.414.16.886.27 1.578.302.693.031.915.039 2.68.039 1.765 0 1.986-.008 2.68-.04.691-.031 1.164-.14 1.578-.301a3.18 3.18 0 0 0 1.15-.75 3.19 3.19 0 0 0 .75-1.152c.16-.413.27-.886.303-1.577.03-.694.039-.915.039-2.68 0-1.765-.008-1.987-.04-2.68-.032-.692-.141-1.164-.301-1.578a3.19 3.19 0 0 0-.75-1.151 3.177 3.177 0 0 0-1.152-.75c-.414-.16-.887-.27-1.578-.302-.694-.031-.915-.039-2.68-.039h.002zm-.583 1.171h.584c1.735 0 1.94.007 2.626.038.634.029.978.135 1.207.224.303.117.52.258.747.486.227.227.368.444.486.747.09.23.195.573.224 1.207.031.685.038.89.038 2.626 0 1.734-.007 1.94-.038 2.625-.029.634-.135.978-.224 1.207a2.01 2.01 0 0 1-.486.746 2.01 2.01 0 0 1-.747.487c-.229.089-.573.195-1.207.224-.685.03-.89.038-2.626.038-1.736 0-1.942-.007-2.627-.038-.634-.03-.978-.136-1.207-.224a2.013 2.013 0 0 1-.747-.487 2.015 2.015 0 0 1-.487-.747c-.089-.229-.195-.573-.224-1.206-.03-.686-.037-.891-.037-2.627 0-1.736.006-1.94.037-2.626.03-.634.135-.978.224-1.207.118-.303.259-.52.487-.747.227-.228.444-.369.747-.487.23-.089.573-.195 1.207-.224.6-.027.832-.035 2.043-.036v.001zm4.053 1.08a.78.78 0 1 0 0 1.56.78.78 0 0 0 0-1.56zm-3.47.911a3.338 3.338 0 1 0 .001 6.676 3.338 3.338 0 0 0 0-6.676zm0 1.171a2.167 2.167 0 1 1 0 4.334 2.167 2.167 0 0 1 0-4.334z" fill="#0060AA"/><path d="M1 13.5C1 6.596 6.596 1 13.5 1S26 6.596 26 13.5 20.404 26 13.5 26 1 20.404 1 13.5z" stroke="#0060AA"/></g></svg>