<svg xmlns="http://www.w3.org/2000/svg" xmlns:xlink="http://www.w3.org/1999/xlink" width="17" height="17" viewBox="0 0 17 17">
    <defs>
        <path id="a" d="M0 16.892h16.892V0H0z"/>
    </defs>
    <g fill="none" fill-rule="evenodd">
        <mask id="b" fill="#fff">
            <use xlink:href="#a"/>
        </mask>
        <path fill="#FFF" d="M8.446 0a8.446 8.446 0 0 0-3.078 16.31c-.074-.668-.14-1.693.03-2.422.153-.66.99-4.198.99-4.198s-.253-.506-.253-1.254c0-1.175.68-2.051 1.528-2.051.72 0 1.069.54 1.069 1.19 0 .724-.462 1.807-.7 2.811-.199.841.422 1.526 1.25 1.526 1.502 0 2.656-1.582 2.656-3.867 0-2.022-1.453-3.436-3.528-3.436-2.403 0-3.813 1.802-3.813 3.665 0 .726.28 1.504.628 1.928.069.083.08.156.059.242l-.235.958c-.037.154-.122.187-.282.113-1.055-.492-1.715-2.034-1.715-3.272 0-2.665 1.936-5.111 5.58-5.111 2.93 0 5.207 2.088 5.207 4.878 0 2.91-1.835 5.253-4.382 5.253-.856 0-1.66-.445-1.936-.97l-.526 2.008c-.19.733-.706 1.653-1.05 2.214A8.446 8.446 0 1 0 8.445 0" mask="url(#b)"/>
    </g>
</svg>
