<svg width="27" height="27" viewBox="0 0 27 27" xmlns="http://www.w3.org/2000/svg"><title>EC1884C0-75BB-4A09-96F6-66054251C0B4</title><g fill="none" fill-rule="evenodd"><path d="M13.481 26.146c-6.894 0-12.48-5.593-12.48-12.492 0-6.898 5.586-12.49 12.48-12.49 6.893 0 12.48 5.592 12.48 12.49 0 6.899-5.587 12.492-12.48 12.492z" stroke="#0060AA"/><path d="M9.343 23.196c-.099-.895-.187-2.27.04-3.249.205-.883 1.327-5.626 1.327-5.626s-.339-.678-.339-1.68c0-1.575.91-2.75 2.047-2.75.964 0 1.43.726 1.43 1.595 0 .972-.617 2.423-.937 3.77-.266 1.127.566 2.045 1.675 2.045 2.011 0 3.556-2.122 3.556-5.184 0-2.71-1.945-4.605-4.724-4.605-3.218 0-5.107 2.416-5.107 4.912 0 .973.373 2.017.841 2.584.092.112.106.21.079.325-.086.357-.277 1.126-.314 1.283-.05.207-.165.252-.38.153-1.412-.659-2.294-2.727-2.294-4.386 0-3.571 2.592-6.851 7.473-6.851 3.924 0 6.973 2.798 6.973 6.538 0 3.901-2.458 7.041-5.869 7.041-1.147 0-2.224-.597-2.593-1.3l-.705 2.69c-.255.984-.945 2.216-1.405 2.968" fill="#0060AA"/></g></svg>