<svg xmlns="http://www.w3.org/2000/svg" xmlns:xlink="http://www.w3.org/1999/xlink" width="18" height="15" viewBox="0 0 18 15">
    <defs>
        <path id="a" d="M9 14.94h9V0H0v14.94h9z"/>
    </defs>
    <g fill="none" fill-rule="evenodd">
        <mask id="b" fill="#fff">
            <use xlink:href="#a"/>
        </mask>
        <path fill="#FFF" d="M5.66 14.94c6.794 0 10.508-5.748 10.508-10.731 0-.163-.003-.326-.01-.488A7.604 7.604 0 0 0 18 1.77c-.662.3-1.374.502-2.12.593A3.772 3.772 0 0 0 17.502.276a7.308 7.308 0 0 1-2.345.916A3.654 3.654 0 0 0 12.463 0c-2.04 0-3.694 1.69-3.694 3.771 0 .296.032.584.096.86-3.07-.157-5.791-1.658-7.612-3.94a3.82 3.82 0 0 0-.5 1.895 3.79 3.79 0 0 0 1.643 3.14 3.609 3.609 0 0 1-1.673-.472v.048c0 1.827 1.273 3.351 2.962 3.697a3.632 3.632 0 0 1-1.667.065c.47 1.498 1.833 2.589 3.45 2.62A7.313 7.313 0 0 1 0 13.245a10.297 10.297 0 0 0 5.66 1.694" mask="url(#b)"/>
    </g>
</svg>
