<svg xmlns="http://www.w3.org/2000/svg" xmlns:xlink="http://www.w3.org/1999/xlink" width="20" height="14" viewBox="0 0 20 14">
    <defs>
        <path id="a" d="M19.99 6.996v6.985H0V.01h19.99z"/>
    </defs>
    <g fill="none" fill-rule="evenodd">
        <path fill="#000" d="M7.93 4l4.737 3.143.664-.343z"/>
        <g transform="translate(0 .008)">
            <mask id="b" fill="#fff">
                <use xlink:href="#a"/>
            </mask>
            <path fill="#FFF" d="M7.931 9.572l-.001-5.58 5.401 2.8-5.4 2.78zM19.79 3.025s-.196-1.369-.795-1.972c-.76-.79-1.612-.795-2.003-.84C14.195.01 10 .01 10 .01H9.99s-4.196 0-6.993.201c-.39.046-1.242.05-2.003.841C.394 1.656.2 3.025.2 3.025S0 4.632 0 6.239v1.507c0 1.607.2 3.215.2 3.215s.195 1.368.794 1.971c.76.791 1.76.766 2.204.849 1.6.152 6.797.2 6.797.2s4.2-.007 6.997-.208c.39-.046 1.243-.05 2.003-.84.6-.604.795-1.972.795-1.972s.2-1.608.2-3.215V6.24c0-1.607-.2-3.214-.2-3.214z" mask="url(#b)"/>
        </g>
    </g>
</svg>
