<svg width="24" height="34" xmlns="http://www.w3.org/2000/svg">
    <g fill-rule="nonzero" fill="none">
        <path d="M12 .5c3.18 0 6.055 1.275 8.136 3.338A11.315 11.315 0 0 1 23.5 11.9c0 7.388-8.374 17.705-11.053 20.83C8.947 29.688.5 19.314.5 11.9c0-3.15 1.285-6 3.364-8.062A11.515 11.515 0 0 1 12 .5z" stroke="#000" fill="#000"/>
        <g fill="#FFF">
            <path d="M10.312 13.218 8.99 10.05l-1.323 3.168h2.645zm.523 1.291H7.114L6.038 17H4.5l3.998-9.041h.953C10.189 9.774 13.448 17 13.448 17h-1.537l-1.076-2.49zM19.5 9.22h-3.629v2.184h3.537v1.29H15.87v3.015H19.5V17h-4.982V7.959H19.5z"/>
        </g>
    </g>
</svg>
