<svg width="24" height="34" xmlns="http://www.w3.org/2000/svg">
    <g fill-rule="nonzero" fill="none">
        <path d="M12 .5c3.18 0 6.055 1.275 8.136 3.338A11.315 11.315 0 0 1 23.5 11.9c0 7.388-8.374 17.705-11.053 20.83C8.947 29.688.5 19.314.5 11.9c0-3.15 1.285-6 3.364-8.062A11.515 11.515 0 0 1 12 .5z" stroke="#000" fill="#FFF"/>
        <g fill="#000">
            <path d="M10.312 13.259 8.99 10.092l-1.323 3.167h2.645zm.523 1.292H7.114l-1.076 2.49H4.5L8.498 8h.953c.738 1.815 3.997 9.041 3.997 9.041h-1.537l-1.076-2.49zM19.5 9.261h-3.629v2.184h3.537v1.291H15.87v3.014H19.5v1.291h-4.982V8H19.5z"/>
        </g>
    </g>
</svg>
