<svg xmlns="http://www.w3.org/2000/svg" xmlns:xlink="http://www.w3.org/1999/xlink" width="64" height="28" viewBox="0 0 64 28">
    <defs>
        <path id="a" d="M9.21.178H.795v11.593H9.21V.178z"/>
    </defs>
    <g fill="none" fill-rule="evenodd">
        <path fill="#FEFEFE" d="M0 1.576l2.393 10.71H4.49l5.87-10.98H8.14L3.949 9.578 2.306 1.196zM12.403 5.742c-.77 0-1.485.604-1.834 1.857h3.092c.052-1.188-.332-1.857-1.258-1.857m2.935 3.044h-4.98c-.139 1.486.56 2.14 1.747 2.14.997 0 1.87-.369 2.813-.953v1.491a6.078 6.078 0 0 1-3.25.929c-2.166 0-3.598-1.218-3.161-3.972.385-2.492 2.131-3.994 4.158-3.994 2.323 0 3.092 1.726 2.76 3.897-.035.163-.07.35-.087.462M18.57 7.847l-.682 4.388h-1.922l1.188-7.65h1.642v1.537c.647-.888 1.538-1.628 2.743-1.694l.017 1.882c-1.222.081-2.305.716-2.987 1.537M23.897 3.301c-.646 0-1.083-.441-.978-1.076.087-.649.68-1.105 1.327-1.105.612 0 1.066.456.961 1.105-.104.635-.681 1.076-1.31 1.076m-2.376 8.935l1.206-7.652h1.921l-1.187 7.652M29.976 2.494c-.663 0-1.048.284-1.153.97l-.174 1.12h1.467v1.553h-1.712l-.96 6.099h-1.905l.944-6.099h-1.118l.244-1.552h1.118l.21-1.308c.261-1.7 1.45-2.335 3.04-2.335.331 0 .593.035.785.067V2.56a4.85 4.85 0 0 0-.786-.067M32.37 3.301c-.647 0-1.084-.441-.996-1.076.104-.649.698-1.105 1.328-1.105.628 0 1.083.456.977 1.105-.104.635-.68 1.076-1.31 1.076m-2.376 8.935L31.2 4.584h1.921l-1.205 7.652M37.645 5.742c-.769 0-1.485.604-1.817 1.857h3.075c.052-1.188-.315-1.857-1.258-1.857m2.935 3.044h-4.979c-.14 1.486.576 2.14 1.765 2.14.978 0 1.869-.369 2.795-.953v1.491a6.08 6.08 0 0 1-3.25.929c-2.166 0-3.58-1.218-3.162-3.972.385-2.492 2.132-3.994 4.158-3.994 2.323 0 3.092 1.726 2.76 3.897-.018.163-.07.35-.087.462"/>
        <g transform="translate(40.506 .622)">
            <mask id="b" fill="#fff">
                <use xlink:href="#a"/>
            </mask>
            <path fill="#FEFEFE" d="M6.415 5.739c-.437-.224-.804-.33-1.45-.33-1.014 0-1.887.802-2.131 2.486-.245 1.487.296 2.182 1.135 2.182.716 0 1.328-.411 1.94-1.046l.506-3.292zm-.647 5.875l.018-1.06c-.647.654-1.503 1.217-2.568 1.217-1.624 0-2.743-1.187-2.34-3.764.453-2.856 2.235-4.12 4.035-4.12.733 0 1.31.127 1.746.284L7.235.478l1.975-.3-1.783 11.436H5.768z" mask="url(#b)"/>
        </g>
        <path fill="#FEFEFE" d="M54.904 7.593c-.49 0-.979.325-1.398.756l-.418 2.628c.296.112.488.158.908.158.908 0 1.554-.554 1.764-1.872.174-1.117-.192-1.67-.856-1.67m-1.083 4.714a6.998 6.998 0 0 1-2.34-.38l1.274-8.123 1.485-.228-.542 3.515c.437-.385 1.032-.766 1.783-.766 1.24 0 2.06.914 1.764 2.852-.332 2.135-1.66 3.13-3.424 3.13M60.686 12.55c-.116.244-.605 1.28-1.461 1.643-.569.24-1.159.23-1.16.23-.244 0-.4-.025-.523-.061v-1.188c.174.046.384.082.664.082.42 0 .786-.193 1.03-.61l.21-.384-1.24-5.714 1.537-.187.734 4.125 1.938-4.044h1.45c-1.439 2.712-2.552 4.792-3.179 6.108M25.993 15.209l-3.196 8.483-.332-1.725c-.89-2.456-3.127-3.81-4.245-4.201l2.655 9.863 3.441-.01 5.119-12.41h-3.442M28.718 27.64l2.026-12.441h3.268l-2.044 12.44zM43.777 15.504a8.186 8.186 0 0 0-2.918-.523c-3.213 0-5.485 1.689-5.503 4.105-.017 1.79 1.607 2.785 2.849 3.378 1.257.61 1.693 1 1.693 1.548-.017.827-1.013 1.212-1.956 1.212-1.293 0-1.991-.188-3.057-.65l-.42-.197-.454 2.78c.752.35 2.167.65 3.617.665 3.423 0 5.642-1.669 5.677-4.252 0-1.416-.873-2.49-2.743-3.38-1.135-.577-1.833-.958-1.816-1.536 0-.522.576-1.075 1.852-1.075a5.714 5.714 0 0 1 2.428.481l.296.143.455-2.7M48.091 23.23c.28-.72 1.31-3.48 1.31-3.48-.017.035.262-.72.42-1.187l.227 1.075s.628 2.963.75 3.592h-2.707zm4.018-8.017h-2.516c-.768 0-1.362.214-1.694 1.032l-4.839 11.4h3.424s.56-1.538.681-1.878c.367 0 3.686.01 4.158.01.104.432.402 1.868.402 1.868h3.022l-2.638-12.432z"/>
        <path fill="#FEFEFE" d="M19.845 15.199h-5.241l-.035.258c4.56 1.158 6.708 3.355 7.895 6.51l-1.135-5.719c-.21-.785-.768-1.019-1.484-1.05"/>
    </g>
</svg>
