<svg xmlns="http://www.w3.org/2000/svg" width="15" height="18" viewBox="0 0 15 18">
    <g fill="#FFF" fill-rule="nonzero">
        <path d="M13.171 9.668a1.633 1.633 0 0 0-1.068-.402H9.266V7.36a2.078 2.078 0 0 0-.719-1.734c-.512-.384-1.566-.37-2.017-.278l-.353.07v2.524c0 1.09-1.05 1.916-1.941 2.15a.922.922 0 0 0-.75-.385H1.368a.927.927 0 0 0-.927.927v6.09c0 .511.415.926.927.926h2.118a.922.922 0 0 0 .697-.322c.298.202.65.311 1.01.313h5.763c.918 0 1.602-.622 1.827-1.659.057-.274.852-4.682.883-4.854a1.43 1.43 0 0 0-.495-1.46zM3.53 16.723c0 .025-.02.044-.044.044H1.368a.044.044 0 0 1-.044-.044v-6.089c0-.024.02-.044.044-.044h2.118c.024 0 .044.02.044.044v6.09zm9.266-5.767c-.23 1.275-.834 4.62-.882 4.854-.128.622-.442.957-.958.957H5.198c-.27 0-.786-.136-.786-.657v-5.154c1.218-.3 2.648-1.394 2.648-3.014V6.177c.329-.03.66.024.962.16.27.268.404.644.362 1.023v2.008c0 .43.347.778.776.78h2.943c.181.003.355.07.49.19.194.141.276.39.203.618zM7.501 3.971a.441.441 0 0 0 .441-.441V.441a.441.441 0 0 0-.882 0V3.53c0 .244.198.441.441.441z"/>
        <path d="M4.412 7.501a.441.441 0 0 0-.44-.441H.441a.441.441 0 0 0 0 .882h3.53a.441.441 0 0 0 .44-.44zM14.561 7.06h-3.089a.441.441 0 1 0 0 .882h3.09a.441.441 0 0 0 0-.882zM10.149 4.854c.117 0 .23-.046.313-.128l2.206-2.206a.441.441 0 0 0-.622-.623L9.84 4.104a.441.441 0 0 0 .309.75zM4.54 4.726a.441.441 0 0 0 .623-.622L2.956 1.897a.441.441 0 0 0-.622.623L4.54 4.726z"/>
    </g>
</svg>
