<svg xmlns="http://www.w3.org/2000/svg" width="17" height="15" viewBox="0 0 17 15">
    <g fill="#FFF" fill-rule="nonzero">
        <path d="M10.368 4.147a2.617 2.617 0 0 0-1.659.693 2.617 2.617 0 0 0-1.659-.693c-1.46 0-2.264.908-2.264 2.563 0 2.547 3.558 4.749 3.712 4.844l.207.125.212-.117c.153-.082 3.732-2.102 3.732-4.852-.012-1.655-.817-2.563-2.28-2.563zM8.71 10.708c-1.028-.68-3.106-2.389-3.106-4.002 0-1.534.767-1.733 1.435-1.733a1.738 1.738 0 0 1 1.31.725l.361.58.353-.571a1.738 1.738 0 0 1 1.306-.73c.71 0 1.435.207 1.435 1.733.004 1.925-2.364 3.546-3.094 3.998z"/>
        <path d="M8.71 0C4.146 0 .414 3.351.414 7.465a6.889 6.889 0 0 0 1.368 4.102 4.47 4.47 0 0 1-1.215 1.658.415.415 0 0 0 .12.714 4.562 4.562 0 0 0 3.389-.278 8.887 8.887 0 0 0 4.632 1.269c4.562 0 8.295-3.351 8.295-7.465S13.27 0 8.709 0zm0 14.1a8.041 8.041 0 0 1-4.38-1.268.415.415 0 0 0-.415-.021 4.272 4.272 0 0 1-2.256.493 5.877 5.877 0 0 0 .979-1.659.415.415 0 0 0-.058-.414 6.096 6.096 0 0 1-1.336-3.766C1.244 3.807 4.595.829 8.71.829s7.465 2.978 7.465 6.636-3.35 6.636-7.465 6.636z"/>
    </g>
</svg>
