<svg width="24" height="24" xmlns="http://www.w3.org/2000/svg">
    <g fill="none" fill-rule="evenodd">
        <rect stroke="#003773" fill="#FFF" x=".5" y=".5" width="23" height="23" rx="3"/>
        <path d="M11.992 19.785c-1.038 0-2.077.003-3.115 0-.263-.002-.371-.13-.301-.386.18-.655.375-1.307.57-1.956.081-.267.087-.255-.155-.363-.288-.13-.567-.278-.852-.413-.126-.059-.154-.154-.132-.285.156-.943.485-1.811 1.055-2.571.582-.777 1.312-1.335 2.264-1.532 1.03-.213 1.964.03 2.79.684.974.77 1.52 1.82 1.802 3.032.015.065.027.131.037.198.061.43.127.35-.289.585a6.062 6.062 0 0 1-.73.33c-.13.054-.152.116-.11.254.202.648.392 1.301.585 1.952.014.048.02.1.022.149.013.215-.07.317-.278.32-.624.012-1.25.019-1.875.023-.43.004-.86.001-1.289.001v-.022h.001zm.022-8.006c-2.041-.015-3.67-1.706-3.667-3.802.003-2.155 1.75-3.824 3.75-3.785 1.994.04 3.624 1.74 3.608 3.813-.015 2.105-1.662 3.787-3.69 3.774" fill="#003773" fill-rule="nonzero"/>
    </g>
</svg>
