<svg width="24" height="34" viewBox="0 0 24 34" xmlns="http://www.w3.org/2000/svg">
    <g fill-rule="nonzero" fill="none">
        <path d="M12 .5c3.18 0 6.055 1.275 8.136 3.338A11.315 11.315 0 0 1 23.5 11.9c0 7.388-8.374 17.705-11.053 20.83C8.947 29.688.5 19.314.5 11.9c0-3.15 1.285-6 3.364-8.062A11.515 11.515 0 0 1 12 .5z" stroke="#1B1B1B" fill="#FFF"/>
        <g fill="#000">
            <path d="M5.88 14.456c-.734-.261-1.264-.759-1.627-1.517-.213-.443-.253-.6-.253-1.146 0-.561.032-.695.253-1.154a2.996 2.996 0 0 1 1.43-1.398c.38-.174.561-.206 1.122-.206.79 0 1.375.198 1.865.617l.308.268-.158.174c-.3.332-.411.348-.806.08-.711-.467-1.43-.506-2.157-.111-.672.363-1.027.971-1.027 1.754 0 1.675 1.928 2.583 3.287 1.548l.276-.213.269.26.276.27-.205.213c-.569.592-1.983.869-2.853.56zM11.554 14.471c-1.96-.71-2.568-3.01-1.201-4.55 1.438-1.62 4.195-.98 4.804 1.113.379 1.32-.277 2.726-1.55 3.311-.568.26-1.524.316-2.053.126zm1.509-.758c.395-.119.972-.624 1.177-1.027.482-.948.11-2.078-.861-2.655-.308-.182-.459-.213-.925-.213-.671.008-1.058.181-1.517.703-1.327 1.509.182 3.777 2.126 3.192zM19.002 14.44c.663-.308.948-.703.948-1.304 0-.806-.34-1.122-1.739-1.612-1.248-.434-1.525-.79-1.058-1.343.403-.482 1.224-.513 1.99-.079l.435.245.237-.237c.293-.292.253-.419-.229-.719-1.39-.885-3.429-.174-3.429 1.193 0 .782.419 1.185 1.683 1.612.53.182.948.38 1.09.513.293.277.309.601.024.87-.182.166-.276.19-.806.19-.49 0-.671-.032-.908-.175-.166-.102-.332-.181-.372-.181-.031 0-.142.126-.229.284-.205.348-.158.419.411.664.6.26 1.477.3 1.952.079z"/>
        </g>
    </g>
</svg>
