<svg width="24" height="24" xmlns="http://www.w3.org/2000/svg" xmlns:xlink="http://www.w3.org/1999/xlink">
    <defs>
        <rect id="a" x="0" y="0" width="24" height="24" rx="3"/>
    </defs>
    <g fill="none" fill-rule="evenodd">
        <mask id="b" fill="#fff">
            <use xlink:href="#a"/>
        </mask>
        <use fill="#3A6A9F" xlink:href="#a"/>
        <g mask="url(#b)">
            <path d="M15 14.79c0-.12.15-.24.345-.27l.33-.045.045-3.615c.03-3.45.015-3.615-.27-3.885-.165-.15-.3-.315-.3-.39 0-.105 1.26-.585 1.53-.585.06 0 .12 1.35.12 3 0 2.535.03 3 .225 3 .255 0 1.215-.825 1.44-1.23.135-.24.105-.3-.165-.375-.165-.045-.285-.165-.255-.255.075-.21 2.505-.225 2.505-.015 0 .09-.18.195-.405.255-.24.06-.795.45-1.245.855l-.825.72 1.05 1.185c.585.63 1.23 1.23 1.47 1.32.225.09.405.24.405.345 0 .15-.36.195-1.35.195-1.095 0-1.35-.045-1.35-.225 0-.135.135-.225.315-.225.3 0 .3-.015-.09-.48-.9-1.095-1.455-1.62-1.59-1.545-.195.135-.165 1.635.045 1.845.105.105.3.18.45.18.15 0 .27.105.27.225 0 .18-.255.225-1.35.225-1.065 0-1.35-.045-1.35-.21z" fill="#FFF"/>
            <path d="M11.246 14.852c-.162-.082-.393-.115-.501-.066-.176.082-.203-.443-.203-4.105 0-3.99-.014-4.22-.271-4.532-.15-.18-.271-.394-.271-.476C10 5.525 11.043 5 11.327 5c.122 0 .163.591.163 2.233v2.233l.379-.131c.704-.263 1.747-.18 2.14.197.61.542.907 1.15.975 2.003.163 2.07-.934 3.481-2.682 3.465-.406 0-.88-.066-1.056-.148z" fill="#FFF"/>
            <path d="M13.791 10.89c-.233-.589-.612-.89-1.123-.89-.657 0-.668.043-.668 1.707 0 1.579.056 1.837.5 2.138.301.215.457.215.846-.057.634-.416.857-1.865.445-2.898z" fill="#3A6A9F"/>
            <g>
                <path d="M4 18.763c0-.127.142-.238.3-.238.159 0 .349-.11.396-.253.048-.142.095-1.725.095-3.545 0-2.722-.047-3.324-.237-3.482-.396-.316-.27-.601.396-.95.807-.411.95-.395.95.064 0 .38.015.38.49.142 1.71-.854 3.419.016 3.593 1.82.19 1.994-1.203 3.498-3.26 3.514h-.84l.048 1.297c.047 1.314.047 1.314.506 1.393.254.048.491.174.539.285.047.143-.317.19-1.457.19C4.27 19 4 18.953 4 18.763z" fill="#FFF"/>
                <path d="M8.283 14.674c.55-.535.717-.937.717-1.68 0-.847-.35-1.487-1-1.784-.617-.282-1.167-.282-1.633.015-.334.208-.367.342-.367 1.769 0 1.427.033 1.56.367 1.77.566.356 1.5.296 1.916-.09z" fill="#3A6A9F"/>
            </g>
        </g>
    </g>
</svg>
