<svg xmlns="http://www.w3.org/2000/svg" width="22" height="22" viewBox="0 0 22 22">
    <g fill="#333333" fill-rule="nonzero">
        <path d="M18.778 3.222c-4.296-4.296-11.26-4.296-15.556 0-4.296 4.296-4.296 11.26 0 15.556 4.296 4.296 11.26 4.296 15.556 0a11 11 0 0 0 0-15.556zM4.041 17.959C.197 14.116.197 7.884 4.04 4.041 7.884.197 14.116.197 17.959 4.04c3.844 3.843 3.844 10.075 0 13.918a9.842 9.842 0 0 1-13.918 0z"/>
        <path d="M18.131 11a.579.579 0 0 0-.577-.577h-5.977V4.454a.579.579 0 0 0-1.154 0v5.969H4.454a.579.579 0 1 0 0 1.154h5.969v5.969a.579.579 0 0 0 1.154 0v-5.969h5.969A.579.579 0 0 0 18.13 11z"/>
    </g>
</svg>
