<?xml version="1.0" encoding="utf-8"?>
<svg width="35" height="56" viewBox="0 0 35 56" xmlns="http://www.w3.org/2000/svg" xmlns:bx="https://boxy-svg.com">
  <defs>
    <filter id="prefix__a" width="185.7%" height="500%" x="-42.9%" y="-200%" filterUnits="objectBoundingBox">
      <feGaussianBlur in="SourceGraphic" stdDeviation="2"/>
    </filter>
    <bx:guide x="32.15" y="13.32" angle="90"/>
    <bx:guide x="38.569" y="23.641" angle="90"/>
    <bx:guide x="17.471" y="36.278" angle="0"/>
    <bx:guide x="7.129" y="29.398" angle="0"/>
    <bx:guide x="27.441" y="39.701" angle="0"/>
  </defs>
  <g fill="none" fill-rule="evenodd" transform="translate(1 1)">
    <ellipse cx="16" cy="48.5" filter="url(#prefix__a)" opacity=".54" rx="7" ry="1.5" fill="#000"/>
    <path fill-rule="nonzero" stroke-linejoin="round" stroke-width="1.637" d="M16.513 0C7.383 0 0 7.43 0 16.616c0 12.462 16.513 30.858 16.513 30.858s16.512-18.396 16.512-30.858C33.025 7.43 25.642 0 16.513 0z" style="fill: rgb(123, 231, 216); stroke: rgb(123, 231, 216);"/>
    <g fill="#FFF"/>
  </g>
  <path d="M 13.541 24.218 L 13.541 13.327 C 13.586 13.327 13.621 13.323 13.657 13.323 C 14.912 13.323 16.17 13.314 17.426 13.327 C 17.766 13.343 18.105 13.377 18.442 13.429 C 18.941 13.491 19.432 13.608 19.906 13.775 C 20.509 13.976 21.074 14.274 21.581 14.654 C 22.194 15.11 22.685 15.707 23.013 16.393 C 23.191 16.774 23.32 17.174 23.396 17.586 C 23.478 18.04 23.504 18.501 23.476 18.961 C 23.454 19.357 23.385 19.748 23.271 20.128 C 23.115 20.654 22.87 21.15 22.547 21.594 C 22.289 21.951 21.987 22.272 21.646 22.553 C 21.289 22.847 20.897 23.099 20.478 23.3 C 19.557 23.735 18.557 23.98 17.537 24.023 C 17.127 24.027 16.717 24.023 16.299 24.023 L 16.299 23.894 C 16.577 23.894 16.853 23.905 17.129 23.894 C 17.889 23.877 18.625 23.626 19.234 23.179 C 19.793 22.751 20.22 22.177 20.468 21.523 C 20.631 21.108 20.745 20.677 20.81 20.239 C 20.856 19.959 20.859 19.673 20.883 19.391 C 20.893 19.292 20.9 19.192 20.902 19.093 C 20.891 18.735 20.887 18.377 20.856 18.022 C 20.815 17.377 20.692 16.739 20.49 16.123 C 20.329 15.624 20.079 15.156 19.752 14.743 C 19.185 14.055 18.366 13.617 17.473 13.523 C 16.956 13.477 16.431 13.477 15.894 13.456 L 15.894 13.614 C 15.894 16.631 15.896 19.648 15.898 22.666 C 15.912 22.793 15.843 22.914 15.727 22.969 C 15.083 23.331 14.438 23.701 13.799 24.069 C 13.716 24.116 13.636 24.169 13.558 24.22 L 13.541 24.22 L 13.541 24.217 L 13.541 24.218 Z" fill-rule="nonzero" style="fill: rgb(255, 255, 255);"/>
</svg>