<?xml version="1.0" encoding="utf-8"?>
<svg width="35" height="56" viewBox="0 0 35 56" xmlns="http://www.w3.org/2000/svg" xmlns:bx="https://boxy-svg.com">
  <defs>
    <filter id="prefix__a" width="185.7%" height="500%" x="-42.9%" y="-200%" filterUnits="objectBoundingBox">
      <feGaussianBlur in="SourceGraphic" stdDeviation="2"/>
    </filter>
    <bx:guide x="32.15" y="13.32" angle="90"/>
    <bx:guide x="38.569" y="23.641" angle="90"/>
    <bx:guide x="17.471" y="36.278" angle="0"/>
    <bx:guide x="7.129" y="29.398" angle="0"/>
    <bx:guide x="27.441" y="39.701" angle="0"/>
  </defs>
  <g fill="none" fill-rule="evenodd" transform="translate(1 1)">
    <ellipse cx="16" cy="48.5" fill="#000" filter="url(#prefix__a)" opacity=".54" rx="7" ry="1.5"/>
    <path fill="#FFF" fill-rule="nonzero" stroke-linejoin="round" stroke-width="1.637" d="M16.513 0C7.383 0 0 7.43 0 16.616c0 12.462 16.513 30.858 16.513 30.858s16.512-18.396 16.512-30.858C33.025 7.43 25.642 0 16.513 0z" style="stroke: rgb(0, 0, 0);"/>
  </g>
  <path d="M 13.463 24.218 L 13.463 13.327 C 13.508 13.327 13.543 13.323 13.579 13.323 C 14.834 13.323 16.092 13.314 17.348 13.327 C 17.688 13.343 18.027 13.377 18.364 13.429 C 18.863 13.491 19.354 13.608 19.828 13.775 C 20.431 13.976 20.996 14.274 21.503 14.654 C 22.116 15.11 22.607 15.707 22.935 16.393 C 23.113 16.774 23.242 17.174 23.318 17.586 C 23.4 18.04 23.426 18.501 23.398 18.961 C 23.376 19.357 23.307 19.748 23.193 20.128 C 23.037 20.654 22.792 21.15 22.469 21.594 C 22.211 21.951 21.909 22.272 21.568 22.553 C 21.211 22.847 20.819 23.099 20.4 23.3 C 19.479 23.735 18.479 23.98 17.459 24.023 C 17.049 24.027 16.639 24.023 16.221 24.023 L 16.221 23.894 C 16.499 23.894 16.775 23.905 17.051 23.894 C 17.811 23.877 18.547 23.626 19.156 23.179 C 19.715 22.751 20.142 22.177 20.39 21.523 C 20.553 21.108 20.667 20.677 20.732 20.239 C 20.778 19.959 20.781 19.673 20.805 19.391 C 20.815 19.292 20.822 19.192 20.824 19.093 C 20.813 18.735 20.809 18.377 20.778 18.022 C 20.737 17.377 20.614 16.739 20.412 16.123 C 20.251 15.624 20.001 15.156 19.674 14.743 C 19.107 14.055 18.288 13.617 17.395 13.523 C 16.878 13.477 16.353 13.477 15.816 13.456 L 15.816 13.614 C 15.816 16.631 15.818 19.648 15.82 22.666 C 15.834 22.793 15.765 22.914 15.649 22.969 C 15.005 23.331 14.36 23.701 13.721 24.069 C 13.638 24.116 13.558 24.169 13.48 24.22 L 13.463 24.22 L 13.463 24.217 L 13.463 24.218 Z" fill-rule="nonzero" style=""/>
</svg>