<svg xmlns="http://www.w3.org/2000/svg" xmlns:xlink="http://www.w3.org/1999/xlink" width="54" height="21" viewBox="0 0 54 21">
    <defs>
        <path id="ngo315mega" d="M51.172 8.304c.051.018.009-.016 0 0M14.727 19.418c-.019.021-.013.023.01.038.038-.023.012-.039-.01-.038m36.466-6.582c-.585.576-1.122.994-1.768 1.503-1.174.924-2.093 1.625-3.364 2.458-1.25.82-2.782 1.71-4.227 1-.72-.355-1.343-.935-1.571-1.617-.315-.944-.287-1.97-.386-2.065-.357.323-1.641 1.73-1.904 1.973-.696.64-.837.74-1.16 1.027-.304.269-.896.736-1.29.847-.426.122-.845.178-1.276.086-.24-.028-.51-.265-.67-.411-.323-.295-.443-.72-.482-1.11-.084-.822-.004-1.081-.232-1.216-.037-.034-1.918 1.735-2.125 1.89-1.121.837-1.863 1.272-2.806 1.845-.578.351-2.312.545-2.882.357-1.11-.366-1.285-1.484-1.286-2.062 0-.34.039-.609.138-.935.11-.351.215-.678.355-1.017.29-.642.715-1.303 1.113-1.892.479-.707 1.634-2.696 1.766-2.938.153-.286.316-.476.405-.787.1-.352.082-.482-.359-.403-.263.047-.556.05-.804.152-.315.13-.432.417-.604.666-.218.319-.494.667-.755.957-.274.307-1.99 2.068-2.242 2.389-.212.273-2.209 2.316-2.811 2.75-.306.22-.877.753-1.181.98-.37.277-.661.417-1.068.647-.27.154-.94.524-1.294.698-3.535 1.64-4.316.713-4.498.575-1.183-.9-1.113-3.162-1.343-3.115-.31.063-1.603 1.32-1.911 1.64-.16.167-1.164 1.298-1.435 1.475-.61.4-1.33.203-1.643-.447-.4-.826-.169-1.726-.286-1.772-.148.038-.689.567-.802.668-.183.165-1.33 1.38-1.778 1.607-.493.252-.709.544-1.444.318-.3-.09-.533-.455-.742-.67-.298-.306-.647-1.555-.338-2.563.222-.722.44-1.798.8-2.413.572-.985.936-1.568 1.682-2.458.324-.386 2.02-1.93 2.423-2.207.538-.37 1.065-.763 1.633-1.093.424-.246.699-.396 1.204-.484.286-.05.976-.096 1.983.523.139.085.16-.094.307-.22.467-.405.957-.535 1.69-.429.325.047.25.678.14.953-.257 1.343-1.14 2.394-2.014 3.45-1.063 1.282-2.053 2.657-2.778 4.133-.257.523-.685 1.592-.487 2.167.076.22.751-.444.782-.48.237-.284.61-.614.838-.9.422-.53 1.085-1.252 1.496-1.695.41-.44 1.18-1.06 1.623-1.587 1.102-1.312 1.785-2.115 2.922-3.275.289-.295.97-.936 1.443-1.228.316-.196.783-.511 1.174-.774.668-.45 1.054-.687 1.76-1.08 3.013-1.672 3.784-.91 3.934-.667.127.21.196.491.228.707.076.516-.107 1.29-.323 1.764-.284.62-.999 1.31-1.538 1.745-.49.396-.986.745-1.504 1.131-.73.543-1.52.928-2.234 1.347-.661.387-1.177.841-1.771 1.315-.573.457-1.036 1.068-1.5 1.61-.32.375-.665 1.445.17 1.403.773-.038 1.868-.219 3.398-1.142 1.586-.958 2.52-1.854 3.186-2.39.567-.456 2.383-2.167 2.97-2.826.486-.542 1.114-1.125 1.441-1.806.229-.472-.982-1.057-.946-1.855.012-.26.123-.435.24-.668.693-1.39 2.368-.705 2.465-.212.03.154.049.29.058.434.01.158-.07.805.163.835.35.046.763-.129 1.113-.155.434-.032.87-.011 1.303-.039.52-.032 1.279.11 1.55.58-.014.058.446.654.041 1.298-.344.55-1.176 1.667-1.378 1.886-.441.479-.546.576-.95 1.077-.963 1.2-1.601 1.839-2.417 3.268-.334.586-.766 1.163-.75 1.855.008.274.117.547.399.675.237.108.678.102 1.086-.08.289-.128.665-.312 1.02-.525.3-.18.996-.729 1.256-.956.49-.431.641-.471 1.148-.897.58-.487 1.043-.955 1.574-1.484.484-.483.94-.932 1.346-1.514.465-.667.797-1.187 1.226-1.76.2-.266.345-.586.5-.879.176-.337 1.797-2.444 2.038-2.7.433-.462.847-.977 1.372-1.353.22-.157.443-.176.677-.287.282-.134.547-.175.845-.142.478-.061.931.291.628.756-.678 1.04-1.306 2.14-1.988 3.137-.472.69-.947 1.382-1.436 2.062-.443.616-.709 1.32-1.136 1.94-.25.364-.461.738-.604 1.151-.063.18-.275.704-.109.88.37.396 1.242-.093 1.547-.326.58-.444 1.352-1.067 1.845-1.598.399-.43 1.602-1.818 2.012-2.346 1.272-1.644 4.446-4.008 4.714-4.2.978-.7 2.393-1.514 3.176-1.88.508-.236 1.413-.778 2.042-.66.71.133 1.065.632 1.129 1.153.096.789-.189 1.254-.3 1.531-.522 1.32-1.926 2.437-3.103 3.283-1.292.93-2.628 1.511-4.006 2.301-.371.213-.825.57-1.13.863-.263.252-1.094 1-.997 2.486.055.838 2.654-.376 3.052-.756.131-.122 2.09-1.55 3.174-2.633.607-.607 1.14-1.279 1.81-1.804.253-.198.888-.466 1.287-.159.67.518-.24 1.408-.674 1.835m-.02-4.532c.05.018.008-.016 0 0m-5.188 2.157c.502-.293 1.003-.589 1.461-.938.462-.35.896-.733 1.368-1.071.57-.409 1.01-.892 1.068-1.386.085-.716-2.403.91-2.616 1.07-.786.59-1.959 1.167-2.205 2.102-.092.354.521.458.924.223m-29.666 1.132c.107.21 1.152-.285 1.473-.472.452-.263.918-.656 1.34-.951.36-.253.717-.541 1.077-.835.42-.343.834-.644.763-1.272-.033-.297-1.017.245-1.18.34-3.44 2.015-3.635 3.053-3.473 3.19m-9.59 1.835s.956-1.345 1.2-1.878c.116-.256.445-1.068.503-1.246.187-.565.354-.835.04-1.385-.162-.283-.793-.05-.932.115-.351.417-.82.849-1.123 1.212-.403.45-.656.768-.938 1.113-.446.546-.876 1.102-1.272 1.679-.154.225-.353.496-.477.735-.1.194-.488.784-.589.935-.35.526-.688 1.074-.997 1.62-.286.506-.606 1.088-.718 1.652-.105.535.03 1.286.624.934.259-.153.613-.364.828-.566.206-.194.763-.645.953-.853.546-.602.876-1.076 1.222-1.608.638-.982.991-1.513 1.675-2.459M41.825 3.25c.09.062.615.075.718.081.267.014.68-.478.844-.663.251-.284.52-.567.755-.861.208-.381.459-.706.419-1.166-.03-.337-.231-.52-.545-.546-.826.384-1.801 1.212-2.187 2.1-.104.24-.285.862-.004 1.055"/>
    </defs>
    <g fill="none" fill-rule="evenodd">
        <g>
            <g>
                <g>
                    <g transform="translate(-262 -60) translate(24 54) translate(232) translate(6.947 6.939)">
                        <mask id="w5o9ok4bcb" fill="#fff">
                            <use xlink:href="#ngo315mega"/>
                        </mask>
                        <use fill="#E5E6E7" xlink:href="#ngo315mega"/>
                        <g fill="#333" mask="url(#w5o9ok4bcb)">
                            <path d="M0 0H66V34H0z" transform="translate(-6.947 -6.939)"/>
                        </g>
                    </g>
                </g>
            </g>
        </g>
    </g>
</svg>
