<?xml version="1.0" encoding="utf-8"?>
<!-- Generator: Adobe Illustrator 24.0.0, SVG Export Plug-In . SVG Version: 6.00 Build 0)  -->
<svg version="1.1" id="Layer_1" xmlns="http://www.w3.org/2000/svg" xmlns:xlink="http://www.w3.org/1999/xlink" x="0px" y="0px"
	 viewBox="0 0 720 720" style="enable-background:new 0 0 720 720;" xml:space="preserve">
<style type="text/css">
	.st0{fill:#242729;}
</style>
<g>
	<path class="st0" d="M129.9,413.28h-13.32l-3.9,8.92h-5.52l14.4-32.48l3.47,0.01c2.62,6.55,14.4,32.48,14.4,32.48h-5.54
		L129.9,413.28z M128.05,408.67l-4.8-11.44l-4.77,11.44H128.05z"/>
	<path class="st0" d="M501.65,413.28h-13.32l-3.9,8.92h-5.52l14.4-32.48l3.47,0.01c2.62,6.55,14.4,32.48,14.4,32.48h-5.54
		L501.65,413.28z M499.8,408.68l-4.8-11.44l-4.77,11.44H499.8z"/>
</g>
<polygon class="st0" points="219,394.32 205.98,394.32 205.98,402.13 218.62,402.13 218.62,406.74 205.98,406.74 205.98,417.59 
	219,417.59 219,422.2 201.08,422.2 201.08,389.71 219,389.71 "/>
<g>
	<path class="st0" d="M246.33,408.36l10.06,13.85h-6l-9.28-13.3h-0.88v13.3h-4.9v-32.49h5.74c4.29,0,7.39,0.81,9.3,2.42
		c2.1,1.79,3.16,4.17,3.16,7.11c0,2.3-0.66,4.28-1.98,5.93C250.23,406.84,248.49,407.89,246.33,408.36 M240.23,404.63h1.56
		c4.64,0,6.96-1.77,6.96-5.32c0-3.32-2.26-4.99-6.78-4.99h-1.75V404.63z"/>
</g>
<rect x="271.23" y="389.71" class="st0" width="4.9" height="32.49"/>
<g>
	<path class="st0" d="M316.6,391.46v5.81c-2.83-2.37-5.77-3.56-8.8-3.56c-3.34,0-6.15,1.2-8.44,3.6c-2.3,2.38-3.45,5.3-3.45,8.75
		c0,3.41,1.15,6.29,3.45,8.63c2.3,2.34,5.12,3.51,8.46,3.51c1.73,0,3.19-0.28,4.4-0.84c0.67-0.28,1.37-0.66,2.09-1.14
		c0.72-0.48,1.48-1.05,2.28-1.73v5.91c-2.81,1.58-5.75,2.38-8.84,2.38c-4.64,0-8.61-1.62-11.89-4.86c-3.27-3.27-4.9-7.21-4.9-11.82
		c0-4.14,1.37-7.83,4.1-11.07c3.37-3.97,7.72-5.96,13.07-5.96C311.06,389.08,313.88,389.88,316.6,391.46"/>
</g>
<polygon class="st0" points="466.29,394.33 453.26,394.33 453.26,402.14 465.91,402.14 465.91,406.74 453.26,406.74 453.26,417.6 
	466.29,417.6 466.29,422.21 448.36,422.21 448.36,389.72 466.29,389.72 "/>
<g>
	<path class="st0" d="M537.37,405.29h13.42v1.07c0,2.44-0.29,4.6-0.86,6.48c-0.56,1.74-1.51,3.37-2.84,4.88
		c-3.02,3.39-6.85,5.09-11.51,5.09c-4.55,0-8.44-1.64-11.68-4.92c-3.24-3.3-4.86-7.25-4.86-11.87c0-4.71,1.65-8.71,4.94-11.99
		c3.3-3.3,7.31-4.95,12.04-4.95c2.54,0,4.91,0.52,7.11,1.56c2.1,1.04,4.17,2.72,6.21,5.05l-3.49,3.34
		c-2.67-3.55-5.91-5.32-9.74-5.32c-3.44,0-6.32,1.19-8.65,3.56c-2.33,2.33-3.49,5.25-3.49,8.75c0,3.62,1.3,6.6,3.89,8.94
		c2.43,2.17,5.06,3.26,7.89,3.26c2.41,0,4.58-0.81,6.5-2.44c1.92-1.64,2.99-3.61,3.22-5.89h-8.1V405.29z"/>
</g>
<polygon class="st0" points="570.53,389.72 570.53,417.6 580.09,417.6 580.09,422.21 565.63,422.21 565.63,389.72 "/>
<polygon class="st0" points="594.93,389.72 594.93,422.21 612.85,422.21 612.85,417.6 599.83,417.6 599.83,406.74 612.47,406.74 
	612.47,402.14 599.83,402.14 599.83,394.33 612.85,394.33 612.85,389.72 "/>
<g>
	<path class="st0" d="M352.08,413.28h-13.32l-3.9,8.92h-5.52l14.4-32.48l3.47,0.01c2.62,6.55,14.4,32.48,14.4,32.48h-5.54
		L352.08,413.28z M350.23,408.67l-4.8-11.44l-4.77,11.44H350.23z"/>
</g>
<polygon class="st0" points="159.11,402.57 167.8,422.21 169.13,422.21 178.07,402.59 181.21,422.2 186.24,422.2 180.48,389.49 
	179.08,389.49 168.54,412.52 158.37,389.49 156.95,389.49 150.55,422.2 155.62,422.2 "/>
<polygon class="st0" points="403.84,422.21 403.84,389.71 398.94,389.71 398.94,412.31 376.12,389.49 374.22,389.49 374.22,422.2 
	379.12,422.2 379.12,399.38 401.95,422.21 "/>
<g>
	<path class="st0" d="M339.39,311.39h5.3v6.35h-5.3V311.39z M354.65,355.07c-3.61,0.93-9.38,1.4-13.57,1.4
		c-8.79,0-12.81-4.25-12.81-12.87v-16.48l5.18-5.53v21.67c0,5.65,2.33,8.27,7.86,8.27c2.97,0,5.76-0.17,8.1-0.58V322.4l5.24-0.76
		v32.32V355.07z"/>
	<path class="st0" d="M536.97,344.24h-0.29c-3.09,0-5.3-1.86-5.3-6.23c0-4.37,2.27-6.41,5.59-6.41c3.26,0,5.53,2.04,5.53,6.41
		C542.51,342.43,540.99,344.24,536.97,344.24 M536.97,326.71c-6.17,0-10.89,3.44-10.89,11.18c0,2.74,0.58,4.72,1.51,6.35h-6.81
		h-0.53h-8.15h-0.29h-8.38h-0.29h-1.05c-1.86,0-4.14-0.41-6.23-1.57v-13.51l-5.24,0.82v17.18c0,5.65-2.33,8.27-7.75,8.27
		c-0.58,0-3.03-0.17-3.61-0.17l2.27,5.12h1.51c8.56,0,12.58-4.02,12.81-12.17c2.15,0.76,4.31,1.11,6.46,1.11h1.1h0.47h8.21h0.29
		h8.38h0.29h15.9c7.16,0,10.83-3.49,10.83-11.42C547.81,331.31,544.43,326.71,536.97,326.71"/>
</g>
<polygon class="st0" points="553.69,349.3 558.87,349.3 558.87,311.8 553.69,312.55 "/>
<g>
	<path class="st0" d="M556.77,305.04c-1.34,0-1.98-0.93-1.98-2.8c0-1.69,0.87-2.62,1.98-2.62c0.76,0,1.69,0.76,2.8,1.69l1.63-1.86
		c-1.28-1.51-2.74-2.27-4.43-2.27c-2.16,0-4.6,1.34-4.6,5.07c0,0.93,0.29,2.1,0.58,2.8h-1.92l-1.11,2.5h10.54l1.34-2.5H556.77z"/>
</g>
<rect x="246.56" y="355.77" class="st0" width="5.3" height="6.35"/>
<g>
	<path class="st0" d="M292.16,337.48c0,4.48-1.69,6.76-6.29,6.76h-8.15h-0.29h-8.38h-0.29h-5.94l-0.58-4.25
		c-1.22-9.78-7.16-16.66-15.49-16.66c-1.92,0-4.19,0.47-6.76,1.4l-2.85,6.12c2.85-1.92,5.47-2.8,7.98-2.8
		c7.16,0,12.35,7.4,12.52,16.19h-21.95h-0.53h-8.15h-0.29h-8.38h-0.29h-8.38h-0.29h-8.38h-0.29h-8.38h-0.29h-1.04
		c-1.86,0-4.08-0.41-6.17-1.57V311.8l-5.24,0.76v38.38c-2.33,0.41-5.12,0.58-8.1,0.58c-5.53,0-7.86-2.62-7.86-8.27v-13.01
		l-5.18,5.53v7.83c0,8.62,4.08,12.87,12.75,12.87c4.14,0,10.02-0.46,13.63-1.4v-1.11v-5.71c2.15,0.7,4.25,1.05,6.41,1.05h1.1h0.53
		h8.15h0.29h8.38h0.29h8.38h0.29h8.39h0.29h8.38h0.29h33.08h0.47h8.21h0.29h8.68v-0.01c7.31-0.1,10.72-3.81,10.72-10.88V323.1
		l-5.24,0.82V337.48z"/>
</g>
<polygon class="st0" points="309.16,311.8 303.98,312.55 303.98,349.3 309.16,349.3 "/>
<g>
	<path class="st0" d="M305.32,361.01c-1.34,0-2.04-0.93-2.04-2.85c0-1.69,0.88-2.56,2.04-2.56c0.7,0,1.75,0.7,2.74,1.69l1.69-1.86
		c-1.34-1.57-2.8-2.33-4.43-2.33c-2.21,0-4.66,1.4-4.66,5.07c0,0.99,0.29,2.1,0.58,2.85h-1.86l-1.16,2.5h10.54l1.34-2.5H305.32z"/>
</g>
<rect x="275.58" y="355.71" class="st0" width="4.66" height="6.06"/>
<rect x="282.86" y="355.71" class="st0" width="4.6" height="6.06"/>
<g>
	<path class="st0" d="M470,323.91v13.57c0,4.49-1.69,6.76-6.29,6.76h-8.15h-0.29h-8.38h-0.29h-6.35v-4.72
		c0-7.16-5.18-11.3-10.72-12.81l11.42-13.11l-5.77-1.75l-15.61,18.81h0.17c6.41,0,15.32,2.5,15.32,8.85v4.72h-15.14h-0.53h-8.15
		h-0.29h-8.38h-0.29h-8.38h-0.29h-8.38h-0.29h-8.38h-0.29h-5.59c-1.11,0-2.15-0.29-2.15-3.26V311.8l-5.24,0.76v28.77
		c0,6.99,3.96,7.98,6.81,7.98h6.46h0.52h8.15h0.29h8.38h0.29h8.39h0.29h8.39h0.29h8.38h0.29h26.67h0.53h8.15h0.29h8.68v-0.01
		c7.31-0.1,10.72-3.81,10.72-10.88V323.1L470,323.91z"/>
</g>
<rect x="453.43" y="355.71" class="st0" width="4.66" height="6.06"/>
<rect x="460.71" y="355.71" class="st0" width="4.6" height="6.06"/>
</svg>
