<svg xmlns="http://www.w3.org/2000/svg" width="25" height="25" viewBox="0 0 25 25">
    <g fill="none" fill-rule="evenodd">
        <path fill="#FFF" d="M12.5.329C5.778.329.329 5.779.329 12.5c0 6.722 5.45 12.171 12.171 12.171 6.722 0 12.171-5.45 12.171-12.171C24.664 5.781 19.22.336 12.5.329z"/>
        <path fill="#3B5998" fill-rule="nonzero" d="M12.5.329C5.778.329.329 5.779.329 12.5c0 6.722 5.45 12.171 12.171 12.171 6.722 0 12.171-5.45 12.171-12.171C24.664 5.781 19.22.336 12.5.329zM15.27 12.5h-1.777v6.44H10.83V12.5H9.513v-2.224h1.316V8.961c0-1.81.75-2.889 2.888-2.889h1.776v2.224h-1.111c-.83 0-.889.31-.889.888v1.112h2.014L15.27 12.5z"/>
    </g>
</svg>
