<svg xmlns="http://www.w3.org/2000/svg" width="25" height="25" viewBox="0 0 25 25">
    <g fill="none" fill-rule="evenodd">
        <path fill="#FFF" d="M12.5.329C5.778.329.329 5.779.329 12.5c0 6.722 5.45 12.171 12.171 12.171 6.722 0 12.171-5.45 12.171-12.171C24.664 5.781 19.22.336 12.5.329z"/>
        <path fill="#BD081C" fill-rule="nonzero" d="M12.5.329C5.778.329.329 5.779.329 12.5c0 6.722 5.45 12.171 12.171 12.171 6.722 0 12.171-5.45 12.171-12.171C24.664 5.781 19.22.336 12.5.329zm1.27 17.342a2.868 2.868 0 0 1-2.46-1.224L10.65 19a12.033 12.033 0 0 1-1.315 2.816l-.783-.27a10.31 10.31 0 0 1 .04-3.079c.216-.842 1.275-5.31 1.275-5.31a3.882 3.882 0 0 1-.322-1.591c0-1.494.862-2.632 1.94-2.632a1.316 1.316 0 0 1 1.356 1.513c0 .921-.585 2.296-.888 3.573a1.56 1.56 0 0 0 1.585 1.94c1.908 0 3.369-2.013 3.369-4.914a4.237 4.237 0 0 0-4.48-4.368 4.645 4.645 0 0 0-4.842 4.658c0 .879.279 1.735.796 2.447.076.083.104.2.072.31-.079.335-.263 1.065-.296 1.216-.033.152-.158.237-.362.145-1.316-.625-2.178-2.586-2.178-4.158 0-3.388 2.46-6.493 7.086-6.493 3.717 0 6.579 2.631 6.579 6.197.046 3.697-2.283 6.671-5.513 6.671z"/>
    </g>
</svg>
