<svg xmlns="http://www.w3.org/2000/svg" width="25" height="25" viewBox="0 0 25 25">
    <g fill="none" fill-rule="evenodd">
        <path fill="#FFF" d="M12.5.329C5.778.329.329 5.779.329 12.5c0 6.722 5.45 12.171 12.171 12.171 6.722 0 12.171-5.45 12.171-12.171C24.664 5.781 19.22.336 12.5.329z"/>
        <path fill="#55ACEE" fill-rule="nonzero" d="M12.5.329C5.778.329.329 5.779.329 12.5c0 6.722 5.45 12.171 12.171 12.171 6.722 0 12.171-5.45 12.171-12.171C24.664 5.781 19.22.336 12.5.329zm5.69 8.71a5.447 5.447 0 0 1-.578.658c-.467.46-.487.514-.487.895a8.625 8.625 0 0 1-.566 2.507 7.27 7.27 0 0 1-2.743 3.23 7 7 0 0 1-5.434.618 6.303 6.303 0 0 1-1.6-.736c.216-.052.438-.074.659-.066a4.664 4.664 0 0 0 2.217-.619l.447-.27-.513-.177a2.507 2.507 0 0 1-1.546-1.368c-.053-.178-.033-.185.428-.185h.48l-.401-.197a2.678 2.678 0 0 1-1.132-1.072c-.17-.35-.271-.73-.296-1.119a.98.98 0 0 1 .388.092c.573.21.658.158.316-.19a2.414 2.414 0 0 1-.513-2.487l.138-.402.546.546a6.737 6.737 0 0 0 3.947 1.941l.415.053v-.408a2.395 2.395 0 0 1 1.585-2.388c.472-.137.97-.148 1.448-.033.248.094.484.218.704.368l.408.277.447-.145c.25-.074.495-.168.73-.283.138-.072.263-.118.263-.092-.12.336-.313.641-.565.895-.35.375-.25.407.454.157.427-.157.44-.157.355 0z"/>
    </g>
</svg>
