<svg xmlns="http://www.w3.org/2000/svg" width="25" height="25" viewBox="0 0 25 25">
    <g fill="none" fill-rule="evenodd">
        <path fill="#FFF" d="M12.5.329C5.778.329.329 5.779.329 12.5c0 6.722 5.45 12.171 12.171 12.171 6.722 0 12.171-5.45 12.171-12.171C24.664 5.781 19.22.336 12.5.329z"/>
        <path fill="#CE1312" fill-rule="nonzero" d="M11.197 14.368l3.408-1.802-3.408-1.823z"/>
        <path fill="#CE1312" fill-rule="nonzero" d="M12.5.329C5.778.329.329 5.779.329 12.5c0 6.722 5.45 12.171 12.171 12.171 6.722 0 12.171-5.45 12.171-12.171C24.664 5.781 19.22.336 12.5.329zm6.316 12.829c-.005.699-.047 1.397-.125 2.092-.059.462-.23.903-.5 1.283a1.79 1.79 0 0 1-1.263.546c-1.77.132-4.421.132-4.421.132s-3.29 0-4.296-.132a2.112 2.112 0 0 1-1.395-.553c-.27-.38-.442-.82-.5-1.283a19.934 19.934 0 0 1-.132-2.085v-.954c.005-.7.047-1.397.125-2.092.059-.462.23-.903.5-1.283.331-.344.786-.54 1.263-.546 1.796-.125 4.428-.125 4.428-.125s2.632 0 4.421.131c.477.006.932.203 1.263.547.27.38.442.82.5 1.282.079.695.12 1.393.125 2.093l.007.947z"/>
    </g>
</svg>
