<svg width="24" height="24" xmlns="http://www.w3.org/2000/svg" xmlns:xlink="http://www.w3.org/1999/xlink">
    <defs>
        <rect id="a" x="0" y="0" width="24" height="24" rx="3"/>
    </defs>
    <g fill="#8C2431" fill-rule="evenodd">
        <mask id="b" fill="#fff">
            <use xlink:href="#a"/>
        </mask>
        <rect stroke="#8C2431" x=".5" y=".5" width="23" height="23" rx="3"/>
        <g mask="url(#b)">
            <path fill="#FFF" d="M5 15V9h1.667l.833 4 .833-4H10v6H9v-4l-1 4H7l-1-4-.167 4z"/>
            <path d="M14 9v3.667c0 .86-.07 1.833-1.535 1.833C11 14.5 11 13.5 11 12.667V9M17.4 9v4.583c0 .611-.222.917-.667.917h-.666c-.445 0-.667-.306-.667-.917v-.916M19 9v6" stroke="#FFF"/>
        </g>
    </g>
</svg>
