<svg xmlns="http://www.w3.org/2000/svg" xmlns:xlink="http://www.w3.org/1999/xlink" width="764" height="102" viewBox="0 0 764 102">
    <defs>
        <path id="a" d="M0 .613h58.838v58.482H0z"/>
        <path id="c" d="M.64.217h31.74v59.038H.64z"/>
        <path id="e" d="M.12.916h41.96v50.5H.12z"/>
        <path id="g" d="M.343.103h24.772V17H.343z"/>
        <path id="i" d="M.37.752h17.315V18H.37z"/>
        <path id="k" d="M.726.752H18.04V18H.726z"/>
        <path id="m" d="M.624.752h17.312V18H.624z"/>
    </defs>
    <g fill="none" fill-rule="evenodd">
        <g transform="translate(0 -.217)">
            <mask id="b" fill="#fff">
                <use xlink:href="#a"/>
            </mask>
            <path fill="#231F20" d="M7.713 7.282C5.907 2.836 3.959 1.792 0 1.792V.612h17.229v1.11c-2.99.141-3.961.628-3.961 1.804 0 1.67.766 2.92 17.295 46.541l16.252-41.05c.764-2.017 1.53-4.098 1.53-5.419 0-1.808-2.291-1.735-4.028-1.876V.613h14.52l-.143 1.178c-4.375.347-5.624 1.388-7.295 5.491l-21.182 50.5c-.42.967-.762 1.313-1.113 1.313-.416 0-.832-.416-1.11-1.11L7.714 7.282z" mask="url(#b)"/>
        </g>
        <path fill="#231F20" d="M84.35 58.199H67.126v-1.184h.277c4.654 0 4.723-3.055 4.723-9.17V16.037c0-6.045-.765-6.947-5.21-7.225V7.7h15.84v1.248c-4.932 0-5.003 1.252-5.003 9.169v29.728c0 7.435.412 9.103 6.597 9.103v1.251zM137.835 48.962c-2.57 5.904-8.408 9.933-17.574 9.933-15.836 0-25.562-10.905-25.562-25.912 0-14.028 9.864-26.114 26.465-26.114 5 0 9.585.972 14.863 3.057.768.278.975.486.975 1.18l-.487 10.139h-1.11c-.071-2.845-.695-6.248-2.921-8.054-3.057-2.5-6.596-3.823-12.432-3.823-13.405 0-19.38 10.14-19.38 22.3 0 12.226 6.53 24.654 20.215 24.654 7.71 0 12.782-2.914 15.419-7.846.56-1.11.763-1.25 1.388-1.11.558.136.626.486.14 1.596M190.288 16.175h-1.177c-.42-3.891-.698-5.28-6.88-5.28h-9.655v37.373c0 7.847.837 8.68 6.46 8.68v1.25H161.81v-1.182c4.307 0 4.864-2.014 4.864-7.295V10.895h-8.27c-6.666 0-8.123.21-8.333 5.28h-1.247l-.281-8.476s6.807.417 9.795.417h22.923c3.958 0 7.29-.067 9.17-.346l.067.068-.21 8.337zM224.466 58.999c-18.131 0-25.701-14.17-25.701-26.113 0-10.7 7.779-25.91 26.117-25.91 14.934 0 26.046 9.376 26.046 24.864 0 14.87-10.417 27.159-26.462 27.159m-.071-49.802c-11.042 0-19.38 7.294-19.38 21.878 0 15.423 9.308 25.352 21.256 25.352 5.974 0 18.338-3.4 18.338-22.71 0-15.905-9.725-24.52-20.214-24.52M306.922 58.199h-5.765c-7.016 0-9.515-4.725-13.267-10.702-3.196-4.998-6.461-12.084-10.905-12.362l-3.056-.207c-.345 0-.488.07-.488.627v13.057c0 7.849 1.389 8.338 6.599 8.338v1.249h-16.95v-1.184c3.963-.206 4.864-.692 4.864-8.335V13.673c0-3.612-2.152-4.583-5.834-4.583V7.838h17.505c9.443 0 15.837 4.241 15.837 12.364 0 6.599-5.42 12.159-11.252 14.101 4.998 1.876 9.099 13.268 13.264 17.642 4.24 4.516 5.903 5.005 9.448 5.005v1.249zM279.9 33.262c6.116 0 9.934-4.584 9.934-11.6 0-7.433-4.516-11.67-11.46-11.67-3.752 0-4.934.069-4.934 1.18v20.563c0 .692.069.901 1.182 1.18.207.069 3.54.347 5.278.347zM334.691 58.199h-17.228v-1.184h.28c4.653 0 4.726-3.055 4.726-9.17V16.039c0-6.047-.768-6.949-5.213-7.227V7.7h15.837v1.249c-4.93 0-5 1.251-5 9.169v29.727c0 7.435.412 9.105 6.598 9.105v1.249zM377.953 57.015c2.502-.138 3.472-.692 3.472-1.665 0-.764 0-.974-.694-2.78l-5.278-13.89c-.136-.279-.28-.417-.626-.417h-14.24c-.344 0-.553.204-.69.556l-3.62 10.695c-.41 1.18-1.314 3.89-1.314 5.351 0 1.458 1.386 2.012 4.097 2.085v1.25h-14.585l.207-1.185c4.375-.345 5.7-1.943 7.222-6.11L367.19 9.297c.833-2.222.972-2.36 1.387-2.36.348 0 .622.274 1.46 2.36l15.906 41.05c1.527 4.03 3.197 6.53 7.707 6.53l.212 1.322h-15.908v-1.184zm-3.684-21.322v-.074l-6.316-18.127c-.143-.416-.278-.763-.487-.763-.21 0-.348.277-.488.763l-5.902 17.92c0 .071-.068.143-.068.207 0 .142.134.214.274.214h12.781c.14 0 .206 0 .206-.14zM394.517 14.704c1.813-.168 2.702-2.695 2.957-3.668.25-.956.452-1.755.228-2.425-.284-.85-1.048-1.154-1.87-1.615-.426-.24-.8-.473-1.144-.941-.486-.663-.642-1.27-.459-2.126.269-1.276 1.622-1.945 2.9-1.671 2.248.475 3.368 2.868 3.082 6.464-.103 1.304-1.18 6.513-5.682 6.796l-.012-.814zM425.076 58.912c-4.027 0-7.849-.204-12.015-2.774v-9.66h1.254c.211 7.367 5.274 10.009 11.388 10.009 6.877 0 10.49-4.447 10.49-8.617 0-5.35-3.199-8.543-10.417-13.128-9.593-6.043-12.09-10.557-12.09-15.49 0-7.015 5.42-12.362 14.104-12.362 4.721 0 7.917.834 10.968 2.084v7.987h-1.244c-.279-1.391-.488-2.778-1.322-4.237-.416-.691-2.428-3.543-9.17-3.543-5.208 0-8.96 3.334-8.96 8.059 0 4.445 3.404 7.222 11.254 12.43 7.71 5.14 11.462 10.138 11.605 15.424 0 8.128-6.327 13.818-15.845 13.818"/>
        <g transform="translate(482 -.217)">
            <mask id="d" fill="#fff">
                <use xlink:href="#c"/>
            </mask>
            <path fill="#231F20" d="M.64 56.062V45.715h1.39c.628 8.68 6.457 11.321 13.404 11.321 7.992 0 12.36-5.209 12.36-10.489 0-6.112-3.957-9.86-12.08-15.004C4.744 24.599 2.099 19.18 2.099 14.11 2.098 6.05 8.214.216 18.628.216c5.63 0 12.018 2.221 12.018 2.221v8.614h-1.391c-.271-1.46-.552-2.986-1.527-4.582-.556-.901-2.984-4.24-10.76-4.24-6.183 0-10.7 3.964-10.7 9.586 0 5.35 4.099 8.544 13.059 14.52 8.75 5.834 13.054 11.456 13.054 17.363 0 14.657-14.648 15.556-18.262 15.556-8.827 0-13.48-3.194-13.48-3.194" mask="url(#d)"/>
        </g>
        <path fill="#231F20" d="M561.17 49.306l-.142 8.894h-33.544v-1.25c3.47-.072 4.924-.907 4.924-7.366v-36.05c0-3.196-2.148-4.377-5.9-4.377v-1.32c2.779.21 6.672.348 10.283.348 2.776 0 9.86 0 14.308-.069 1.389 0 8.196-.208 8.196-.278l-.142 8.543h-1.251c-.276-5.276-3.405-5.697-9.514-5.697 0 0-7.57-.066-9.726-.066-.691 0-.763.208-.763.694V29.44c0 .346 0 .697.415.697h11.88c2.223 0 3.054-.764 3.474-2.78h1.315v10.626h-1.315c-.141-2.362-.207-4.583-3.958-5-2.015-.206-10.212-.347-11.324-.347-.346 0-.487.211-.487.485v19.17c.14 3.475.21 3.475 8.82 3.475 2.78 0 8.894-.066 10.35-.764 2.019-.97 2.642-2.778 2.852-5.697h1.249zM614.926 48.958c-2.566 5.905-8.405 9.933-17.571 9.933-15.838 0-25.563-10.904-25.563-25.91 0-14.03 9.866-26.116 26.464-26.116 5.003 0 9.584.973 14.868 3.057.763.277.97.487.97 1.179l-.49 10.143h-1.11c-.068-2.848-.696-6.25-2.915-8.057-3.058-2.5-6.6-3.823-12.435-3.823-13.402 0-19.377 10.143-19.377 22.3 0 12.225 6.522 24.655 20.212 24.655 7.714 0 12.782-2.916 15.416-7.846.563-1.112.77-1.25 1.39-1.112.56.14.626.488.14 1.597M670.414 58.199h-5.77c-7.014 0-9.515-4.725-13.265-10.702-3.196-4.998-6.464-12.084-10.904-12.362l-3.055-.207c-.352 0-.489.07-.489.627v13.057c0 7.849 1.392 8.338 6.596 8.338v1.249h-16.949v-1.184c3.966-.206 4.865-.692 4.865-8.335V13.673c0-3.612-2.152-4.583-5.836-4.583V7.838h17.508c9.445 0 15.837 4.241 15.837 12.364 0 6.599-5.419 12.159-11.257 14.101 5.006 1.876 9.104 13.268 13.27 17.642 4.235 4.516 5.902 5.005 9.45 5.005v1.249zm-27.02-24.937c6.112 0 9.936-4.584 9.936-11.6 0-7.433-4.522-11.67-11.466-11.67-3.754 0-4.933.069-4.933 1.18v20.563c0 .692.07.901 1.18 1.18.212.069 3.543.347 5.282.347zM711.904 49.306l-.137 8.894h-33.549v-1.25c3.472-.072 4.93-.907 4.93-7.366v-36.05c0-3.196-2.15-4.377-5.906-4.377v-1.32c2.776.21 6.672.348 10.283.348 2.776 0 9.86 0 14.31-.069 1.387 0 8.193-.208 8.193-.278l-.138 8.543h-1.247c-.277-5.276-3.409-5.697-9.518-5.697 0 0-7.57-.066-9.727-.066-.69 0-.76.208-.76.694V29.44c0 .346 0 .697.414.697h11.874c2.226 0 3.057-.764 3.477-2.78h1.32v10.626h-1.32c-.139-2.362-.21-4.583-3.956-5-2.02-.206-10.21-.347-11.322-.347-.35 0-.487.211-.487.485v19.17c.137 3.475.21 3.475 8.82 3.475 2.78 0 8.888-.066 10.35-.764 2.01-.97 2.641-2.778 2.845-5.697h1.251z"/>
        <g transform="translate(721 6.783)">
            <mask id="f" fill="#fff">
                <use xlink:href="#e"/>
            </mask>
            <path fill="#231F20" d="M41.87 9.392h-1.187c-.412-3.891-.683-5.28-6.87-5.28h-9.65v37.373c0 7.847.826 8.68 6.456 8.68v1.25H13.395v-1.182c4.302 0 4.856-2.014 4.856-7.295V4.112H9.986c-6.667 0-8.127.21-8.334 5.28H.405L.12.916s6.817.417 9.8.417h22.924c3.96 0 7.29-.067 9.168-.346l.068.068-.21 8.337z" mask="url(#f)"/>
        </g>
        <path fill="#231F20" d="M149.492 84.997c0 .103-.08.154-.242.154-.059 0-.129.004-.209.01a2.644 2.644 0 0 0-.319.056c-.367.074-.594.253-.682.539-.088.286-.132.76-.132 1.419l-.044 12.892c0 .367-.004.653-.01.858-.008.206-.02.36-.034.462a.508.508 0 0 1-.055.198c-.022.029-.055.044-.099.044-.132 0-.323-.132-.572-.396a34.58 34.58 0 0 1-.946-1.056 487.65 487.65 0 0 0-2.992-3.465l-1.342-1.54c-.455-.521-.968-1.111-1.54-1.771-.616-.704-1.225-1.4-1.826-2.09a374.408 374.408 0 0 0-3.036-3.432c-.382-.425-.66-.74-.836-.945l.286 11.549c.014.454.04.832.077 1.133.036.3.088.55.154.748.066.198.15.349.253.45a.871.871 0 0 0 .374.22c.205.06.414.097.627.11.212.016.37.023.473.023.117 0 .176.044.176.132 0 .117-.132.177-.396.177-.63 0-1.15-.012-1.562-.034a20.577 20.577 0 0 0-.77-.033c-.103 0-.356.01-.759.033-.404.022-.855.034-1.353.034-.235 0-.352-.06-.352-.177 0-.088.058-.132.176-.132.088 0 .22-.007.396-.022.176-.014.345-.051.506-.11.278-.073.458-.308.54-.704.08-.396.12-1.093.12-2.09 0-1.525.007-3.014.022-4.466V91.86c0-.66.003-1.305.011-1.936.007-.63.011-1.236.011-1.815v-1.573a1.78 1.78 0 0 0-.198-.825c-.132-.256-.382-.421-.748-.495a1.404 1.404 0 0 0-.363-.055 8.88 8.88 0 0 0-.385-.011c-.118 0-.176-.044-.176-.132 0-.117.117-.176.352-.176.205 0 .454.008.748.022l.902.044c.396 0 .744-.007 1.045-.022.3-.014.531-.014.693 0 .22.294.54.697.957 1.21.418.513.898 1.1 1.441 1.76a142.98 142.98 0 0 0 1.76 2.1c.63.742 1.268 1.486 1.914 2.234.542.617 1.07 1.22 1.584 1.815.513.595 1.001 1.155 1.463 1.683.462.528.887 1.008 1.276 1.44.388.433.722.805 1.001 1.112l-.242-10.89c-.015-.718-.077-1.224-.187-1.518-.11-.293-.334-.483-.67-.572a4.38 4.38 0 0 0-.628-.088 8.238 8.238 0 0 0-.45-.022c-.119 0-.177-.051-.177-.154 0-.103.146-.154.44-.154.25 0 .495.004.737.01l.682.023.55.022c.154.007.26.01.32.01.116 0 .343-.01.681-.032.337-.022.733-.033 1.188-.033.264 0 .396.05.396.154M164.012 98.835c0 .044-.011.158-.033.34l-.077.617-.088.67a5.11 5.11 0 0 1-.088.507 1.505 1.505 0 0 1-.132.33.397.397 0 0 1-.198.165.993.993 0 0 1-.33.066c-.132.007-.308.01-.528.01-.836 0-1.614-.007-2.332-.02-.72-.015-1.364-.031-1.936-.044-.572-.016-1.053-.031-1.441-.044a22.541 22.541 0 0 0-.825-.023c-.396 0-.77.01-1.122.033a16.6 16.6 0 0 1-1.034.034c-.235 0-.352-.06-.352-.177 0-.088.058-.132.176-.132.102 0 .212-.007.33-.021.117-.015.227-.038.33-.067a.578.578 0 0 0 .45-.395 4.01 4.01 0 0 0 .188-.815c.058-.47.09-1.118.099-1.947.007-.828.01-1.771.01-2.827v-7.272a14.446 14.446 0 0 0-.044-1.353c-.03-.38-.102-.666-.22-.857-.117-.19-.36-.322-.725-.396a1.448 1.448 0 0 0-.363-.055 8.88 8.88 0 0 0-.385-.011c-.118 0-.176-.044-.176-.131 0-.118.117-.177.352-.177.352 0 .733.008 1.144.022.41.015.858.03 1.342.044h3.465c.638 0 1.21-.004 1.716-.011.506-.007.825-.011.957-.011.425-.03.74-.066.946-.11a.466.466 0 0 0 .154-.066.273.273 0 0 1 .154-.044c.058 0 .088.066.088.198 0 .074-.022.187-.066.34a4.113 4.113 0 0 0-.11.694c0 .059-.004.154-.011.287-.008.13-.02.274-.033.428a9.564 9.564 0 0 0-.033.44 1.953 1.953 0 0 1-.033.298 1.182 1.182 0 0 1-.055.165c-.022.05-.055.076-.1.076-.117 0-.175-.095-.175-.285 0-.074-.008-.191-.022-.353a1.401 1.401 0 0 0-.11-.44c-.074-.176-.345-.333-.814-.473-.47-.14-1.086-.23-1.848-.274-.088 0-.264-.004-.528-.012l-.858-.022-.913-.022a33 33 0 0 0-.715-.011c-.088 0-.132.073-.132.22v6.072c0 .147.044.22.132.22h2.222c.528 0 1.023-.003 1.485-.011.462-.007.759-.018.89-.033.265-.03.477-.06.639-.088a.665.665 0 0 0 .396-.22c.16-.19.27-.286.33-.286.073 0 .11.059.11.176 0 .074-.022.206-.066.397-.044.19-.081.469-.11.835a5.091 5.091 0 0 0-.033.385l-.022.418-.022.374a3.557 3.557 0 0 0-.011.232c0 .088-.008.179-.022.274-.015.096-.06.144-.132.144-.103 0-.154-.067-.154-.2 0-.116-.004-.23-.011-.34a1.82 1.82 0 0 0-.077-.385 1.133 1.133 0 0 0-.286-.473c-.147-.154-.433-.253-.858-.297a17.495 17.495 0 0 0-.858-.044 85.093 85.093 0 0 0-1.342-.033l-1.31-.021a56.884 56.884 0 0 0-.736-.012c-.103 0-.154.052-.154.154v6.359c.014.293.04.516.077.67a.462.462 0 0 0 .297.33c.16.066.41.107.748.122.337.014.814.02 1.43.02h.66c.293 0 .605-.006.935-.02.33-.015.645-.041.946-.077.3-.038.524-.085.67-.144.294-.117.514-.297.66-.54.147-.241.257-.59.33-1.044.045-.22.11-.33.199-.33.073 0 .113.037.12.11.008.074.012.147.012.22"/>
        <g transform="translate(166 84.783)">
            <mask id="h" fill="#fff">
                <use xlink:href="#g"/>
            </mask>
            <path fill="#231F20" d="M25.115.236c0 .117-.066.176-.198.176-.044 0-.15.008-.319.021a1.64 1.64 0 0 0-.429.09c-.337.116-.609.388-.814.813-.205.425-.41.946-.616 1.562-.16.47-.352 1.037-.572 1.704a516.3 516.3 0 0 1-.715 2.156 561.08 561.08 0 0 0-.78 2.366c-.265.806-.52 1.588-.77 2.342-.25.756-.477 1.45-.683 2.08a62.98 62.98 0 0 1-.528 1.562c-.147.41-.264.74-.352.99a5.26 5.26 0 0 1-.23.572.883.883 0 0 1-.177.263.251.251 0 0 1-.165.067c-.117 0-.216-.085-.297-.253a13.122 13.122 0 0 1-.363-.89L12.795 3.623h-.044a1422.28 1422.28 0 0 0-1.364 3.652c-.293.792-.605 1.616-.935 2.475-.33.858-.642 1.682-.935 2.474a281.276 281.276 0 0 1-1.364 3.61c-.176.468-.308.78-.396.933-.088.155-.198.232-.33.232a.212.212 0 0 1-.154-.067.994.994 0 0 1-.154-.24 3.782 3.782 0 0 1-.198-.519 19.158 19.158 0 0 1-.264-.913L2.741 2.26c-.176-.586-.352-.99-.528-1.21a1.702 1.702 0 0 0-.682-.505 1.845 1.845 0 0 0-.55-.11 10.07 10.07 0 0 0-.44-.022C.41.412.343.36.343.257c0-.102.118-.154.352-.154h.847c.286 0 .55.004.792.012.242.007.448.011.616.011h.341c.103 0 .366-.004.792-.01C4.51.106 5 .102 5.557.102c.162 0 .267.016.32.045.051.03.076.066.076.11 0 .102-.073.154-.22.154-.088 0-.22.004-.396.011-.176.007-.33.047-.462.121a.449.449 0 0 0-.198.175.626.626 0 0 0-.088.353c0 .146.041.4.121.76a73 73 0 0 0 .297 1.263 108.502 108.502 0 0 0 .836 3.114c.206.725.418 1.485.638 2.277.22.792.433 1.543.638 2.255.205.711.381 1.335.528 1.87.147.535.25.898.308 1.09H8l4.664-12.54c.161-.456.275-.738.341-.849.066-.109.135-.164.21-.164.072 0 .15.076.23.231.081.154.187.421.32.802l4.377 12.475h.088c.103-.338.24-.78.407-1.33l.561-1.838c.206-.675.425-1.383.66-2.123.235-.74.458-1.47.671-2.19.212-.717.415-1.396.605-2.035.19-.637.352-1.19.484-1.66a6.28 6.28 0 0 0 .21-.902c.021-.19.032-.36.032-.506a.564.564 0 0 0-.242-.484c-.16-.118-.499-.176-1.012-.176-.132 0-.198-.052-.198-.155 0-.102.125-.154.374-.154.558 0 1.045.004 1.463.012.418.007.68.011.781.011h.253c.125 0 .272-.004.44-.01.168-.009.35-.013.54-.013h.55c.204 0 .307.045.307.133" mask="url(#h)"/>
        </g>
        <path fill="#231F20" d="M214.897 85.02c0 .116-.096.175-.286.175-.118 0-.268.014-.45.044a1.336 1.336 0 0 0-.518.198c-.22.132-.415.29-.583.473-.169.183-.378.421-.627.714-.118.147-.294.401-.528.76a123.3 123.3 0 0 0-.792 1.232c-.294.462-.594.95-.902 1.463-.308.513-.598 1.004-.869 1.473-.272.47-.51.884-.715 1.243-.206.36-.338.62-.396.782a3.8 3.8 0 0 0-.286 1.122c-.03.351-.044.712-.044 1.078v1.891c0 .176.003.47.011.88.007.411.026.852.055 1.321.03.323.102.593.22.814.117.22.344.352.682.396.161.03.304.051.43.066.123.015.237.021.34.021.117 0 .176.044.176.132 0 .117-.118.177-.352.177-.323 0-.697-.012-1.122-.033a25.415 25.415 0 0 0-2.574 0 18.55 18.55 0 0 1-1.056.033c-.235 0-.352-.06-.352-.177 0-.088.06-.132.176-.132.102 0 .231-.006.385-.02.154-.016.282-.038.385-.067a.659.659 0 0 0 .484-.396c.102-.22.168-.49.198-.814.03-.469.047-.91.055-1.32.007-.41.011-.705.011-.88v-1.892a5.315 5.315 0 0 0-.154-1.364 3.956 3.956 0 0 0-.154-.485c-.059-.145-.125-.3-.198-.462-.03-.057-.125-.226-.286-.506a47.108 47.108 0 0 0-.616-1.022c-.25-.403-.517-.844-.803-1.32a99.727 99.727 0 0 0-1.617-2.608 34.028 34.028 0 0 0-.55-.836 8.295 8.295 0 0 0-.803-1.077 3.557 3.557 0 0 0-.67-.595 1.473 1.473 0 0 0-.529-.242 2.112 2.112 0 0 0-.44-.065c-.147 0-.22-.052-.22-.155 0-.102.095-.154.286-.154h.495c.227 0 .462.004.704.012.242.007.458.011.65.011h.33c.072 0 .292-.004.66-.01.365-.009.761-.013 1.187-.013.117 0 .194.016.231.045a.136.136 0 0 1 .055.11c0 .043-.03.07-.088.077a1.631 1.631 0 0 0-.528.154.236.236 0 0 0-.132.186c-.029.12.011.28.121.485l.297.55a368.37 368.37 0 0 0 1.122 1.924 2775 2775 0 0 1 1.782 3.06l.726 1.241c.205.353.344.58.418.683.073-.147.205-.393.396-.737l.65-1.177c.241-.44.501-.899.78-1.375l.792-1.354c.25-.425.465-.799.65-1.122.182-.322.31-.542.384-.659.132-.25.256-.507.374-.77.117-.264.176-.469.176-.617 0-.16-.055-.263-.165-.307a2.547 2.547 0 0 0-.363-.11 1.72 1.72 0 0 0-.242-.055c-.059-.007-.088-.04-.088-.099 0-.088.117-.133.352-.133.293 0 .586.004.88.012.293.007.484.011.572.011h.33c.19 0 .4-.004.627-.01.227-.009.454-.013.682-.013h.495c.19 0 .286.045.286.133"/>
        <g transform="translate(216 83.783)">
            <mask id="j" fill="#fff">
                <use xlink:href="#i"/>
            </mask>
            <path fill="#231F20" d="M15.573 9.618c0-1.32-.187-2.486-.561-3.498-.374-1.012-.87-1.859-1.485-2.54A6.21 6.21 0 0 0 8.885 1.5c-.924 0-1.778.15-2.563.45a5.413 5.413 0 0 0-2.035 1.364c-.572.61-1.02 1.364-1.342 2.266-.323.902-.484 1.954-.484 3.157 0 1.276.179 2.435.539 3.476.359 1.042.858 1.928 1.496 2.662a6.666 6.666 0 0 0 2.233 1.694c.85.396 1.775.594 2.772.594.499 0 1.093-.092 1.782-.275.689-.183 1.353-.546 1.99-1.089.639-.542 1.18-1.309 1.629-2.299.447-.99.67-2.284.67-3.883m2.113-.616a9.677 9.677 0 0 1-.627 3.487 8.635 8.635 0 0 1-1.771 2.86 8.345 8.345 0 0 1-2.772 1.936c-1.086.477-2.288.715-3.608.715-1.511 0-2.805-.264-3.883-.792-1.078-.528-1.962-1.21-2.651-2.046A8.233 8.233 0 0 1 .855 12.38 9.979 9.979 0 0 1 .37 9.353c0-.586.074-1.21.22-1.869.147-.66.374-1.309.682-1.947a9.685 9.685 0 0 1 1.155-1.826 7.58 7.58 0 0 1 1.66-1.53 8.25 8.25 0 0 1 2.2-1.044C7.112.881 8.028.752 9.039.752c1.233 0 2.377.19 3.433.572a7.976 7.976 0 0 1 2.739 1.64 7.58 7.58 0 0 1 1.815 2.594c.44 1.02.66 2.167.66 3.444" mask="url(#j)"/>
        </g>
        <path fill="#231F20" d="M246.665 89.573c0-1.29-.338-2.284-1.012-2.981-.675-.697-1.606-1.045-2.794-1.045-.339 0-.639.014-.903.044a5.35 5.35 0 0 0-.571.087c-.117.045-.177.133-.177.265v6.798c0 .132.016.217.044.253.03.037.08.069.154.099.177.074.425.121.749.143.322.022.666.033 1.034.033.263 0 .594-.029.99-.088a2.259 2.259 0 0 0 1.055-.44c.352-.264.68-.66.98-1.189.3-.527.45-1.187.45-1.979m5.61 11.726c0 .074-.036.121-.11.143a1.722 1.722 0 0 1-.417.033h-1.057c-.615 0-1.1-.055-1.452-.165-.351-.11-.623-.231-.814-.363a5.526 5.526 0 0 1-1.198-1.155c-.375-.477-.803-1.14-1.287-1.991a37.933 37.933 0 0 0-.88-1.452 32.079 32.079 0 0 0-.704-1.056 3.933 3.933 0 0 0-.98-1.012c-.358-.249-.685-.381-.978-.396a14.843 14.843 0 0 0-.495-.033 9.098 9.098 0 0 1-.451-.033c-.088-.015-.15-.011-.188.011-.036.022-.055.092-.055.209-.014.88-.014 1.702 0 2.464 0 .338.004.671.012 1.001.007.33.013.645.022.946a22.514 22.514 0 0 0 .077 1.419c.029.323.096.594.198.814.102.22.322.352.66.396.16.029.34.052.538.066a6.4 6.4 0 0 0 .452.022c.117 0 .175.044.175.132 0 .117-.117.176-.352.176-.308 0-.615-.004-.924-.011-.308-.007-.59-.015-.846-.022a64.979 64.979 0 0 1-.935-.033c-.309.015-.572.025-.792.033l-.683.022a20.72 20.72 0 0 1-.594.011c-.234 0-.352-.059-.352-.176 0-.088.059-.132.177-.132a2.61 2.61 0 0 0 .66-.088.578.578 0 0 0 .45-.396c.08-.22.143-.491.188-.814.058-.469.091-1.118.099-1.947.007-.828.01-1.771.01-2.828V87.824c0-.33-.004-.594-.01-.792a12.846 12.846 0 0 0-.033-.562c-.03-.38-.103-.667-.22-.857-.119-.19-.36-.322-.727-.396a1.404 1.404 0 0 0-.363-.055 8.88 8.88 0 0 0-.385-.011c-.117 0-.175-.044-.175-.132 0-.117.117-.176.352-.176.249 0 .512.003.792.011l.78.022c.243.008.447.014.617.022.168.007.268.011.297.011.059 0 .194-.004.407-.011.213-.008.453-.014.726-.022l.803-.022c.263-.008.483-.011.66-.011.704 0 1.404.055 2.1.165.698.11 1.339.378 1.925.803.132.103.286.245.463.429.175.184.34.399.495.649.154.249.286.536.395.858.11.323.165.675.165 1.055 0 .412-.061.844-.186 1.299a4.65 4.65 0 0 1-.627 1.342c-.294.44-.68.851-1.156 1.232-.477.381-1.06.697-1.749.946.396.206.781.539 1.155 1.001.374.462.722.972 1.045 1.529.381.675.77 1.319 1.167 1.936.395.616.74 1.092 1.034 1.43.279.308.52.558.726.748.204.191.4.341.583.451.183.11.367.191.55.242.183.052.385.099.605.143.278.044.45.07.517.076.066.008.099.048.099.122M269.963 101.299c0 .06-.055.104-.165.133-.11.028-.216.044-.32.044-.234 0-.527-.012-.88-.033a16.19 16.19 0 0 0-1.055-.034c-.337 0-.657.01-.957.034-.301.02-.576.033-.825.033-.132 0-.253-.004-.363-.012-.11-.007-.165-.055-.165-.143 0-.043.037-.073.11-.087a2.21 2.21 0 0 0 .242-.067c.16-.044.212-.14.154-.286-.03-.073-.114-.194-.253-.362-.14-.17-.275-.326-.407-.474a27.036 27.036 0 0 1-.726-.77 94.245 94.245 0 0 0-1.111-1.188c-.418-.44-.862-.905-1.331-1.396l-1.375-1.442a349.295 349.295 0 0 1-2.19-2.31h-.11v2.156c0 1.057.004 1.999.012 2.827.007.829.04 1.479.099 1.947.029.324.095.594.198.815.103.219.322.35.66.395.16.03.319.052.473.067.154.014.282.02.385.02.117 0 .176.045.176.133 0 .117-.117.177-.352.177-.264 0-.54-.004-.825-.012l-.781-.021a47.675 47.675 0 0 1-.605-.023 11.542 11.542 0 0 0-.32-.011c-.043 0-.146.004-.307.01-.162.009-.35.016-.561.024l-.66.02c-.227.009-.422.013-.583.013-.235 0-.352-.06-.352-.177 0-.088.058-.132.176-.132.102 0 .212-.007.33-.021.117-.015.227-.037.33-.067a.578.578 0 0 0 .45-.395c.08-.221.144-.491.188-.815.058-.468.092-1.118.099-1.947.007-.828.01-1.77.01-2.827v-7.272c0-.33-.003-.592-.01-.791a12.797 12.797 0 0 0-.033-.561c-.03-.381-.103-.667-.22-.858-.118-.19-.36-.322-.726-.396a1.448 1.448 0 0 0-.363-.055 8.665 8.665 0 0 0-.385-.01c-.117 0-.176-.044-.176-.132 0-.117.117-.177.352-.177.249 0 .509.004.78.012l.749.02c.227.009.425.016.594.024.169.006.267.01.297.01.044 0 .15-.004.319-.01.168-.008.359-.015.572-.023l.66-.021c.227-.008.422-.012.583-.012.235 0 .352.06.352.177 0 .088-.06.132-.176.132-.074 0-.15.003-.231.01a2.86 2.86 0 0 0-.32.055c-.293.06-.494.187-.604.386-.11.197-.18.487-.21.868-.014.177-.025.363-.032.56-.008.2-.011.463-.011.793v4.719h.088a9.29 9.29 0 0 1 .45-.483l.87-.892 1.1-1.122 1.133-1.154c.359-.367.682-.7.968-1.001.286-.301.495-.525.627-.672.308-.322.594-.634.858-.935.264-.3.396-.546.396-.737 0-.161-.074-.26-.22-.297a5.473 5.473 0 0 0-.528-.098c-.162-.03-.242-.082-.242-.155 0-.102.132-.154.396-.154.102 0 .238.004.407.012.169.007.348.014.539.02l.55.024c.176.006.33.01.462.01.396 0 .777-.01 1.144-.033.367-.021.689-.033.968-.033.22 0 .33.052.33.154 0 .103-.073.155-.22.155-.367 0-.777.102-1.232.307-.22.103-.422.213-.605.33a5.395 5.395 0 0 0-.55.407 8.95 8.95 0 0 0-.561.517c-.191.19-.411.404-.66.639a67.11 67.11 0 0 1-.517.506l-.88.857-1.056 1.034c-.374.367-.726.715-1.056 1.045-.33.33-.616.62-.858.869-.242.25-.4.418-.473.506.088.103.279.309.572.616.293.308.638.668 1.034 1.078.396.412.818.85 1.265 1.32a304.703 304.703 0 0 0 2.387 2.475c.322.33.557.569.704.715a38.362 38.362 0 0 0 1.54 1.463c.22.198.436.382.649.55.213.169.436.334.67.495a1.3 1.3 0 0 0 .562.23c.213.039.356.056.429.056.19 0 .286.044.286.132M338.866 98.747a7.358 7.358 0 0 1-.099.946l-.11.67a5.74 5.74 0 0 1-.12.584 2.542 2.542 0 0 1-.122.308.403.403 0 0 1-.187.177 1.09 1.09 0 0 1-.385.087c-.169.014-.4.022-.693.022-1.598 0-2.93-.022-3.993-.065a65.239 65.239 0 0 0-2.563-.067c-.044 0-.15.004-.319.01-.169.009-.363.016-.583.023l-.67.022c-.228.008-.423.012-.584.012-.235 0-.352-.06-.352-.177 0-.088.058-.132.176-.132a2.61 2.61 0 0 0 .66-.088.578.578 0 0 0 .451-.395 4.01 4.01 0 0 0 .187-.815c.058-.47.092-1.118.1-1.947.006-.828.01-1.771.01-2.827v-7.272c0-.33-.004-.593-.01-.791a12.705 12.705 0 0 0-.034-.561c-.03-.381-.103-.667-.22-.858-.118-.19-.359-.322-.726-.396a1.404 1.404 0 0 0-.363-.055 8.88 8.88 0 0 0-.385-.011c-.117 0-.176-.044-.176-.132 0-.117.117-.176.352-.176.25 0 .513.004.792.01l.781.023a78.231 78.231 0 0 1 .913.033l.33-.011.66-.022.76-.022c.255-.007.464-.011.626-.011.234 0 .352.059.352.176 0 .088-.059.132-.176.132-.073 0-.179.004-.319.01a2.477 2.477 0 0 0-.407.056c-.323.059-.539.187-.649.385-.11.198-.179.488-.209.869-.015.176-.026.363-.033.56a23.31 23.31 0 0 0-.01.793v11.209c0 .396.017.708.054.935.037.227.143.392.32.495.175.103.45.165.824.187.374.022.905.034 1.595.034h.99c.586 0 1.111-.03 1.573-.09.462-.057.825-.248 1.09-.571.146-.175.27-.388.373-.638.103-.25.17-.476.198-.682.03-.19.095-.286.198-.286.088 0 .132.11.132.33"/>
        <g transform="translate(341 83.783)">
            <mask id="l" fill="#fff">
                <use xlink:href="#k"/>
            </mask>
            <path fill="#231F20" d="M15.928 9.618c0-1.32-.187-2.486-.561-3.498-.374-1.012-.87-1.859-1.485-2.54A6.21 6.21 0 0 0 9.24 1.5c-.924 0-1.778.15-2.563.45a5.413 5.413 0 0 0-2.035 1.364c-.572.61-1.02 1.364-1.342 2.266-.323.902-.484 1.954-.484 3.157 0 1.276.179 2.435.539 3.476.359 1.042.858 1.928 1.496 2.662a6.666 6.666 0 0 0 2.233 1.694c.85.396 1.775.594 2.772.594.499 0 1.093-.092 1.782-.275.689-.183 1.353-.546 1.99-1.089.639-.542 1.18-1.309 1.629-2.299.447-.99.67-2.284.67-3.883m2.113-.616a9.677 9.677 0 0 1-.627 3.487 8.635 8.635 0 0 1-1.771 2.86 8.345 8.345 0 0 1-2.772 1.936c-1.086.477-2.288.715-3.608.715-1.511 0-2.805-.264-3.883-.792-1.078-.528-1.962-1.21-2.651-2.046A8.233 8.233 0 0 1 1.21 12.38a9.979 9.979 0 0 1-.484-3.026c0-.586.074-1.21.22-1.869.147-.66.374-1.309.682-1.947a9.685 9.685 0 0 1 1.155-1.826 7.58 7.58 0 0 1 1.66-1.53 8.25 8.25 0 0 1 2.2-1.044C7.467.881 8.383.752 9.394.752c1.233 0 2.377.19 3.433.572a7.976 7.976 0 0 1 2.739 1.64 7.58 7.58 0 0 1 1.815 2.594c.44 1.02.66 2.167.66 3.444" mask="url(#l)"/>
        </g>
        <path fill="#231F20" d="M380.468 84.997c0 .103-.081.154-.242.154-.06 0-.128.004-.21.01-.08.009-.186.026-.318.056-.367.074-.594.253-.682.539-.088.286-.132.76-.132 1.419l-.044 12.892c0 .367-.004.653-.011.858-.007.206-.02.36-.033.462a.508.508 0 0 1-.055.198c-.022.029-.055.044-.1.044-.131 0-.322-.132-.571-.396a34.58 34.58 0 0 1-.946-1.056 487.65 487.65 0 0 0-2.992-3.465l-1.342-1.54c-.455-.521-.968-1.111-1.54-1.771-.616-.704-1.225-1.4-1.826-2.09a374.408 374.408 0 0 0-3.036-3.432c-.382-.425-.66-.74-.836-.945l.286 11.549c.014.454.04.832.077 1.133.036.3.088.55.154.748.066.198.15.349.253.45a.871.871 0 0 0 .374.22c.205.06.414.097.627.11.212.016.37.023.473.023.117 0 .176.044.176.132 0 .117-.132.177-.396.177-.631 0-1.151-.012-1.562-.034a20.577 20.577 0 0 0-.77-.033c-.103 0-.356.01-.76.033-.403.022-.854.034-1.352.034-.235 0-.352-.06-.352-.177 0-.088.058-.132.176-.132.088 0 .22-.007.396-.022.176-.014.345-.051.506-.11.278-.073.458-.308.539-.704.08-.396.12-1.093.12-2.09 0-1.525.008-3.014.023-4.466V91.86c0-.66.003-1.305.01-1.936.008-.63.012-1.236.012-1.815v-1.573a1.78 1.78 0 0 0-.198-.825c-.132-.256-.382-.421-.748-.495a1.404 1.404 0 0 0-.363-.055 8.88 8.88 0 0 0-.385-.011c-.118 0-.176-.044-.176-.132 0-.117.117-.176.352-.176.205 0 .454.008.748.022l.902.044c.396 0 .744-.007 1.045-.022.3-.014.53-.014.693 0 .22.294.539.697.957 1.21.418.513.898 1.1 1.44 1.76a142.98 142.98 0 0 0 1.76 2.1c.63.742 1.269 1.486 1.915 2.234.542.617 1.07 1.22 1.584 1.815.513.595 1 1.155 1.463 1.683.462.528.887 1.008 1.276 1.44.388.433.722.805 1 1.112l-.241-10.89c-.015-.718-.077-1.224-.187-1.518-.11-.293-.334-.483-.671-.572a4.38 4.38 0 0 0-.627-.088 8.238 8.238 0 0 0-.451-.022c-.118 0-.176-.051-.176-.154 0-.103.146-.154.44-.154.249 0 .495.004.737.01l.682.023.55.022c.154.007.26.01.319.01.117 0 .344-.01.682-.032.337-.022.733-.033 1.188-.033.264 0 .396.05.396.154M398.947 93.62c0-.703-.066-1.341-.198-1.913a8.06 8.06 0 0 0-.517-1.551 7.253 7.253 0 0 0-.693-1.21 8.773 8.773 0 0 0-.704-.87 7.275 7.275 0 0 0-1.628-1.308 8.016 8.016 0 0 0-1.76-.76 9.293 9.293 0 0 0-1.859-.34 24.426 24.426 0 0 0-1.947-.077 7.718 7.718 0 0 0-.814.044 4.128 4.128 0 0 0-.385.055c-.11.022-.187.04-.23.055-.177.073-.265.22-.265.44 0 .19-.004.462-.01.814-.009.352-.01.745-.01 1.177v7.094c0 .529.001 1.006.01 1.43.006.427.014.786.021 1.079.008.293.011.49.011.594a11.773 11.773 0 0 0 .044 1.001c.014.169.033.323.055.462a.692.692 0 0 0 .1.297c.072.103.19.202.351.298.161.094.39.179.682.252.293.074.664.132 1.111.176.447.044.993.066 1.64.066a7.89 7.89 0 0 0 2.892-.528 6.733 6.733 0 0 0 2.343-1.518c.28-.28.528-.616.748-1.012.22-.396.408-.825.561-1.287a8.49 8.49 0 0 0 .341-1.44c.073-.5.11-1.005.11-1.52m1.98-.681a9.457 9.457 0 0 1-.726 3.663 8.488 8.488 0 0 1-1.65 2.541 8.315 8.315 0 0 1-.913.814 7.25 7.25 0 0 1-1.375.825 9.455 9.455 0 0 1-1.892.638c-.719.169-1.547.253-2.486.253-.469 0-.975-.015-1.518-.044-.543-.03-1.049-.06-1.518-.088a55.269 55.269 0 0 1-1.22-.088 11.903 11.903 0 0 0-.628-.044c-.088 0-.22.004-.396.01-.176.009-.367.015-.572.023l-.627.022c-.213.008-.399.01-.56.01-.236 0-.353-.058-.353-.175 0-.088.058-.132.176-.132a2.61 2.61 0 0 0 .66-.088.577.577 0 0 0 .451-.396c.08-.22.143-.491.188-.814.057-.47.09-1.118.098-1.947.007-.828.011-1.771.011-2.827v-7.272c0-.33-.004-.593-.01-.791a12.705 12.705 0 0 0-.034-.561c-.029-.381-.103-.667-.22-.858-.118-.19-.359-.322-.726-.396a1.404 1.404 0 0 0-.363-.055 8.88 8.88 0 0 0-.385-.011c-.118 0-.176-.044-.176-.132 0-.117.117-.176.352-.176.25 0 .513.004.792.01l.781.023a78.231 78.231 0 0 1 .913.033c.058 0 .187-.004.385-.011l.704-.022.891-.022c.322-.007.653-.011.99-.011.542 0 1.184.004 1.925.01.74.008 1.514.085 2.322.232.805.147 1.605.392 2.397.737a6.89 6.89 0 0 1 2.178 1.529c.278.293.547.624.803.99.256.367.484.78.682 1.243.198.462.356.972.473 1.529.117.558.176 1.166.176 1.826"/>
        <g transform="translate(404 83.783)">
            <mask id="n" fill="#fff">
                <use xlink:href="#m"/>
            </mask>
            <path fill="#231F20" d="M15.825 9.618c0-1.32-.187-2.486-.56-3.498-.376-1.012-.87-1.859-1.485-2.54a6.2 6.2 0 0 0-2.135-1.552A6.202 6.202 0 0 0 9.138 1.5c-.924 0-1.78.15-2.563.451A5.413 5.413 0 0 0 4.54 3.315c-.572.61-1.02 1.364-1.342 2.266-.324.902-.484 1.954-.484 3.157 0 1.276.18 2.435.54 3.476.358 1.042.856 1.928 1.495 2.662a6.653 6.653 0 0 0 2.232 1.694c.85.396 1.774.594 2.772.594.498 0 1.093-.092 1.783-.275.687-.183 1.351-.546 1.99-1.089.64-.542 1.18-1.309 1.63-2.299.444-.99.67-2.284.67-3.883m2.11-.616a9.677 9.677 0 0 1-.627 3.487 8.647 8.647 0 0 1-1.769 2.86 8.353 8.353 0 0 1-2.774 1.936c-1.084.477-2.287.715-3.607.715-1.51 0-2.805-.264-3.883-.792-1.078-.528-1.96-1.21-2.65-2.046a8.253 8.253 0 0 1-1.519-2.783 10.008 10.008 0 0 1-.483-3.026c0-.586.073-1.21.22-1.869.146-.66.374-1.309.68-1.947A9.741 9.741 0 0 1 2.68 3.711a7.557 7.557 0 0 1 1.661-1.53 8.256 8.256 0 0 1 2.201-1.044C7.362.881 8.28.752 9.292.752c1.23 0 2.375.19 3.431.572a7.966 7.966 0 0 1 2.74 1.64 7.578 7.578 0 0 1 1.813 2.594c.442 1.02.66 2.167.66 3.444" mask="url(#n)"/>
        </g>
        <path fill="#231F20" d="M443.364 84.997c0 .103-.08.154-.24.154-.06 0-.13.004-.21.01a2.655 2.655 0 0 0-.32.056c-.367.074-.593.253-.68.539-.09.286-.134.76-.134 1.419l-.044 12.892c0 .367-.004.653-.01.858a4.52 4.52 0 0 1-.034.462.508.508 0 0 1-.055.198c-.022.029-.054.044-.098.044-.133 0-.323-.132-.572-.396-.25-.264-.566-.616-.947-1.056-.6-.703-1.14-1.331-1.617-1.881a884.61 884.61 0 0 0-1.375-1.584c-.439-.506-.888-1.02-1.342-1.54-.455-.521-.968-1.111-1.54-1.771l-1.826-2.09a331.327 331.327 0 0 0-3.036-3.432c-.38-.425-.659-.74-.836-.945l.286 11.549c.015.454.04.832.077 1.133.036.3.088.55.155.748.065.198.15.349.252.45a.875.875 0 0 0 .375.22c.205.06.414.097.626.11.212.016.371.023.473.023.117 0 .176.044.176.132 0 .117-.132.177-.396.177-.63 0-1.15-.012-1.562-.034-.41-.022-.667-.033-.77-.033-.102 0-.355.01-.758.033a25.02 25.02 0 0 1-1.354.034c-.234 0-.35-.06-.35-.177 0-.088.057-.132.174-.132.088 0 .22-.007.397-.022.176-.014.344-.051.506-.11.278-.073.458-.308.54-.704.08-.396.12-1.093.12-2.09 0-1.525.007-3.014.021-4.466V91.86c0-.66.004-1.305.011-1.936.008-.63.012-1.236.012-1.815v-1.573c0-.293-.067-.568-.199-.825-.13-.256-.38-.421-.748-.495a1.396 1.396 0 0 0-.363-.055 8.795 8.795 0 0 0-.385-.011c-.117 0-.175-.044-.175-.132 0-.117.117-.176.351-.176.205 0 .455.008.748.022l.903.044c.395 0 .744-.007 1.044-.022.301-.014.532-.014.693 0 .221.294.54.697.957 1.21.418.513.898 1.1 1.441 1.76.543.66 1.13 1.36 1.76 2.1.631.742 1.27 1.486 1.914 2.234.543.617 1.07 1.22 1.584 1.815s1.001 1.155 1.463 1.683c.462.528.888 1.008 1.276 1.44.39.433.723.805 1.001 1.112l-.242-10.89c-.014-.718-.077-1.224-.186-1.518-.11-.293-.334-.483-.67-.572a4.38 4.38 0 0 0-.628-.088 8.238 8.238 0 0 0-.45-.022c-.12 0-.177-.051-.177-.154 0-.103.145-.154.44-.154.248 0 .494.004.737.01l.681.023.55.022c.154.007.261.01.32.01.117 0 .344-.01.681-.032.338-.022.733-.033 1.188-.033.264 0 .396.05.396.154M513.349 97.213c.015.22-.004.483-.055.79a4.403 4.403 0 0 1-.88 1.968 4.1 4.1 0 0 1-.98.889 5.088 5.088 0 0 1-1.692.714 8.62 8.62 0 0 1-1.915.209c-.513 0-1.02-.036-1.518-.106a6.468 6.468 0 0 1-1.32-.321.97.97 0 0 1-.143-.065.306.306 0 0 0-.143-.043c-.058 0-.095.015-.11.043a.367.367 0 0 1-.065.086c-.09.113-.162.17-.221.17-.103 0-.153-.07-.153-.213 0-.142.006-.346.02-.608.016-.263.024-.468.024-.615.013-.381.025-.773.032-1.176a5.773 5.773 0 0 0-.032-.892c-.031-.234.036-.351.197-.351.073 0 .114.018.12.054.009.037.02.099.034.188.015.102.029.223.044.362.015.14.044.29.088.45.103.412.275.76.518 1.046.24.286.523.518.846.693.323.176.679.305 1.068.385.387.08.788.12 1.198.12.572 0 1.078-.087 1.518-.263.44-.176.807-.4 1.1-.672.293-.272.514-.583.66-.936a2.45 2.45 0 0 0 .198-1.057 3.547 3.547 0 0 0-.231-1.18 3.69 3.69 0 0 0-.627-1.034 6.778 6.778 0 0 0-1.066-.992 26.043 26.043 0 0 0-1.53-1.07c-.792-.498-1.448-.971-1.968-1.42-.522-.447-.932-.881-1.233-1.3a4.108 4.108 0 0 1-.627-1.221 4.272 4.272 0 0 1-.176-1.212c0-.587.11-1.135.33-1.642.22-.506.54-.94.958-1.3.418-.36.923-.642 1.517-.847.594-.206 1.266-.31 2.013-.31.47 0 .898.032 1.287.092.389.06.729.128 1.023.203.205.06.348.103.429.125a.409.409 0 0 0 .253-.012c.059-.014.106-.056.144-.124.036-.068.077-.101.12-.101.118 0 .162.105.133.316-.03.387-.044.753-.044 1.097 0 .345.014.76.044 1.243.014.338-.044.506-.176.506-.074 0-.118-.025-.133-.077a1.91 1.91 0 0 1-.044-.21 8.314 8.314 0 0 0-.153-.56 2.435 2.435 0 0 0-.221-.54 1.671 1.671 0 0 0-.22-.285 2.035 2.035 0 0 0-.528-.395 3.768 3.768 0 0 0-.913-.342c-.373-.095-.84-.143-1.397-.143-.88 0-1.598.245-2.156.737-.558.49-.836 1.13-.836 1.92 0 .369.073.708.22 1.024.146.314.374.626.682.934.308.307.697.632 1.166.977.469.344 1.027.736 1.672 1.176 2.523 1.67 3.806 3.376 3.85 5.118M534.91 101.299c0 .117-.119.177-.354.177-.307 0-.616-.004-.923-.012l-.847-.021c-.257-.008-.47-.015-.639-.023a13.949 13.949 0 0 0-.297-.011l-.296.01c-.169.009-.364.016-.583.024l-.682.02c-.235.009-.433.013-.595.013-.234 0-.35-.06-.35-.177 0-.088.057-.132.174-.132.103 0 .213-.007.33-.021.118-.015.228-.037.331-.067a.58.58 0 0 0 .451-.395c.08-.221.142-.491.186-.815.06-.468.092-1.118.1-1.947.007-.828.011-1.77.011-2.827v-2.31c0-.088-.044-.132-.132-.132h-9.328c-.088 0-.132.044-.132.132v2.31c0 1.057.003 1.999.011 2.827.006.829.04 1.479.098 1.947.03.324.096.594.198.815.103.219.323.35.661.395.161.03.34.052.54.067.197.014.347.02.45.02.117 0 .176.045.176.133 0 .117-.118.177-.352.177-.309 0-.616-.004-.925-.012l-.846-.021c-.257-.008-.47-.015-.638-.023a14.204 14.204 0 0 0-.297-.011c-.03 0-.129.004-.298.01-.168.009-.362.016-.583.024l-.682.02c-.234.009-.432.013-.593.013-.236 0-.353-.06-.353-.177 0-.088.06-.132.177-.132.102 0 .212-.007.33-.021.117-.015.227-.037.33-.067a.576.576 0 0 0 .45-.395c.081-.221.144-.491.188-.815.058-.468.091-1.118.098-1.947.008-.828.011-1.77.011-2.827v-7.272c0-.33-.003-.592-.01-.791a11.412 11.412 0 0 0-.034-.561c-.029-.381-.102-.667-.22-.858-.117-.19-.359-.322-.725-.396a1.448 1.448 0 0 0-.363-.055 8.702 8.702 0 0 0-.385-.01c-.118 0-.177-.044-.177-.132 0-.117.118-.177.353-.177.25 0 .512.004.792.012l.781.02c.241.009.447.016.615.024.17.006.268.01.298.01.03 0 .128-.004.297-.01.168-.008.362-.015.583-.023l.681-.021c.235-.008.433-.012.594-.012.235 0 .353.06.353.177 0 .088-.059.132-.176.132-.074 0-.15.003-.23.01a2.872 2.872 0 0 0-.32.055c-.294.06-.496.187-.605.386-.11.197-.18.487-.209.868-.015.177-.027.363-.033.56-.008.2-.01.463-.01.793v3.862c0 .088.043.132.131.132h9.328c.088 0 .132-.044.132-.132V87.823a14.565 14.565 0 0 0-.044-1.353c-.03-.38-.103-.666-.22-.857-.118-.19-.36-.322-.727-.396a1.447 1.447 0 0 0-.362-.055 8.67 8.67 0 0 0-.386-.01c-.117 0-.175-.044-.175-.132 0-.117.117-.177.351-.177.25 0 .514.004.793.012l.78.02c.243.009.448.016.617.024l.296.01c.03 0 .128-.004.297-.01.17-.008.364-.015.583-.023l.683-.021c.234-.008.432-.012.594-.012.234 0 .351.06.351.177 0 .088-.058.132-.176.132-.073 0-.15.003-.23.01a2.823 2.823 0 0 0-.319.055c-.294.06-.495.187-.606.386-.109.197-.18.487-.209.868-.014.177-.025.363-.032.56-.008.2-.012.463-.012.793v7.271c0 1.057.004 1.999.012 2.827.007.829.04 1.479.1 1.947.028.324.093.594.197.815.102.219.322.35.66.395.161.03.341.052.54.067.196.014.347.02.45.02.116 0 .176.045.176.133M544.502 88.1c-.118-.324-.228-.324-.33 0l-1.937 5.938c-.044.103-.021.155.067.155h4.202c.088 0 .117-.052.088-.155l-2.09-5.939zm8.58 13.198c0 .074-.044.121-.132.144a1.333 1.333 0 0 1-.308.033c-.161 0-.44-.008-.836-.022-.396-.015-.828-.03-1.298-.044-.47-.015-.888-.007-1.254.022-.367.028-.682.044-.946.044-.205 0-.327-.016-.363-.044-.037-.029-.055-.08-.055-.154 0-.044.044-.074.132-.088a8.66 8.66 0 0 0 .242-.044c.19-.044.341-.092.451-.144a.407.407 0 0 0 .22-.209.663.663 0 0 0 .022-.35 2.964 2.964 0 0 0-.165-.573l-.572-1.518c-.205-.543-.404-1.057-.594-1.54a57.574 57.574 0 0 1-.638-1.694c-.045-.088-.11-.132-.198-.132h-4.73c-.103 0-.176.058-.22.176l-1.32 3.894c-.205.571-.308 1.064-.308 1.474 0 .22.092.382.275.483.183.104.37.154.561.154h.22c.146 0 .22.044.22.132 0 .117-.11.177-.33.177-.133 0-.286-.004-.462-.012l-.506-.02-.451-.024a6.592 6.592 0 0 0-.298-.01c-.117 0-.395.01-.835.033-.44.021-.916.033-1.43.033-.278 0-.418-.06-.418-.177 0-.088.066-.132.198-.132a1.992 1.992 0 0 0 .418-.044c.513-.073.899-.296 1.155-.67.256-.374.488-.84.693-1.397l4.994-13.662c.132-.367.227-.602.286-.704.059-.103.124-.154.198-.154.073 0 .139.047.198.142.058.096.154.313.286.65a195.277 195.277 0 0 1 1.176 3.07c.301.798.635 1.675 1.002 2.628l1.089 2.827c.359.932.704 1.814 1.033 2.65l.826 2.09c.19.485.359.873.505 1.166.147.294.287.526.418.694.133.168.257.29.374.363.118.073.257.132.418.176.368.102.646.161.837.175l.164.034c.038.007.056.041.056.098zM572.552 84.997c0 .103-.08.154-.241.154-.06 0-.13.004-.21.01a2.655 2.655 0 0 0-.32.056c-.366.074-.592.253-.68.539-.09.286-.133.76-.133 1.419l-.044 12.892c0 .367-.004.653-.011.858a4.52 4.52 0 0 1-.033.462.508.508 0 0 1-.055.198c-.022.029-.054.044-.098.044-.133 0-.323-.132-.572-.396-.25-.264-.566-.616-.947-1.056-.601-.703-1.14-1.331-1.617-1.881a884.61 884.61 0 0 0-1.375-1.584l-1.342-1.54c-.455-.521-.968-1.111-1.54-1.771l-1.826-2.09a331.327 331.327 0 0 0-3.036-3.432c-.381-.425-.66-.74-.836-.945l.286 11.549c.015.454.04.832.077 1.133.036.3.088.55.155.748.065.198.15.349.252.45a.875.875 0 0 0 .375.22c.205.06.414.097.626.11.212.016.37.023.473.023.117 0 .176.044.176.132 0 .117-.132.177-.396.177-.63 0-1.151-.012-1.562-.034-.41-.022-.667-.033-.77-.033-.102 0-.355.01-.758.033a25.02 25.02 0 0 1-1.354.034c-.234 0-.351-.06-.351-.177 0-.088.058-.132.175-.132.088 0 .22-.007.397-.022.176-.014.344-.051.506-.11.278-.073.458-.308.539-.704.08-.396.12-1.093.12-2.09 0-1.525.008-3.014.022-4.466V91.86c0-.66.004-1.305.01-1.936.009-.63.013-1.236.013-1.815v-1.573c0-.293-.067-.568-.2-.825-.13-.256-.38-.421-.747-.495a1.396 1.396 0 0 0-.363-.055 8.795 8.795 0 0 0-.385-.011c-.117 0-.175-.044-.175-.132 0-.117.117-.176.35-.176.206 0 .456.008.749.022l.903.044c.395 0 .744-.007 1.044-.022.3-.014.532-.014.693 0 .22.294.539.697.957 1.21.418.513.898 1.1 1.44 1.76.544.66 1.13 1.36 1.76 2.1.632.742 1.27 1.486 1.915 2.234.543.617 1.07 1.22 1.584 1.815s1 1.155 1.463 1.683c.462.528.888 1.008 1.276 1.44l1 1.112-.241-10.89c-.014-.718-.077-1.224-.186-1.518-.111-.293-.334-.483-.671-.572a4.38 4.38 0 0 0-.627-.088 8.238 8.238 0 0 0-.451-.022c-.12 0-.176-.051-.176-.154 0-.103.145-.154.439-.154.249 0 .495.004.738.01l.68.023.55.022c.155.007.262.01.32.01.118 0 .345-.01.682-.032.338-.022.733-.033 1.188-.033.264 0 .396.05.396.154M592.483 93.84c0 .089-.059.134-.176.134a2.342 2.342 0 0 0-.55.065c-.294.059-.495.188-.605.385-.109.198-.18.488-.209.869a21.23 21.23 0 0 0-.033.45 6.87 6.87 0 0 0-.01.386v3.895c0 .073-.02.128-.056.165a1.636 1.636 0 0 1-.23.165 6.16 6.16 0 0 1-1.222.615 12.868 12.868 0 0 1-2.816.726 9 9 0 0 1-1.155.088c-.425 0-.913-.018-1.462-.054a10.159 10.159 0 0 1-3.565-.925 7.015 7.015 0 0 1-1.77-1.177c-.748-.674-1.358-1.576-1.827-2.706-.469-1.13-.704-2.383-.704-3.762 0-.806.1-1.573.297-2.298a9.547 9.547 0 0 1 .792-2.013 7.704 7.704 0 0 1 1.166-1.64 7.323 7.323 0 0 1 1.397-1.177c.998-.616 2.013-1.02 3.048-1.21 1.033-.19 1.975-.286 2.826-.286.352 0 .704.015 1.056.043a18.865 18.865 0 0 1 1.804.236c.234.043.403.07.506.086.338.07.623.128.858.17.235.043.425.065.573.065.205 0 .318-.04.34-.117.022-.08.078-.118.165-.118.074 0 .11.043.11.128v.17a77.894 77.894 0 0 1-.077 1.362 45.8 45.8 0 0 0-.055 1.033c-.015.352-.02.63-.02.836 0 .177-.017.298-.045.363a.157.157 0 0 1-.155.1c-.073 0-.125-.111-.154-.33a4.803 4.803 0 0 0-.12-.65 2.81 2.81 0 0 0-.342-.802c-.132-.206-.345-.415-.638-.627a4.953 4.953 0 0 0-1.078-.573 8.757 8.757 0 0 0-3.234-.583c-.352 0-.726.019-1.122.055a7.37 7.37 0 0 0-1.242.23 8.2 8.2 0 0 0-1.31.487c-.439.205-.865.47-1.276.793-.323.25-.616.588-.88 1.013a7.876 7.876 0 0 0-.682 1.41 9.487 9.487 0 0 0-.44 1.63 9.588 9.588 0 0 0-.154 1.697c0 .778.07 1.49.21 2.136.138.647.315 1.223.527 1.73.213.507.44.943.682 1.31.243.368.473.669.693.904.821.882 1.665 1.473 2.53 1.773.865.302 1.804.452 2.816.452.617 0 1.221-.054 1.815-.165.595-.11 1.038-.245 1.331-.407.293-.161.44-.418.44-.77v-3.3c0-.44-.01-.795-.033-1.067a2.086 2.086 0 0 0-.132-.637.74.74 0 0 0-.297-.353 2.046 2.046 0 0 0-.528-.21 1.41 1.41 0 0 0-.363-.053 7.457 7.457 0 0 0-.385-.011c-.117 0-.176-.045-.176-.133 0-.117.117-.176.352-.176.25 0 .473.004.671.01.198.009.392.017.583.023l.572.022a17.693 17.693 0 0 0 1.804-.022 15.57 15.57 0 0 1 1.012-.033c.235 0 .352.059.352.176M613.428 101.299c0 .117-.118.177-.353.177-.307 0-.616-.004-.923-.012l-.847-.021c-.257-.008-.47-.015-.64-.023a13.949 13.949 0 0 0-.296-.011c-.03 0-.128.004-.296.01-.17.009-.364.016-.583.024l-.682.02c-.235.009-.433.013-.595.013-.234 0-.351-.06-.351-.177 0-.088.058-.132.175-.132.103 0 .213-.007.33-.021.118-.015.228-.037.33-.067a.58.58 0 0 0 .452-.395c.08-.221.142-.491.186-.815.059-.468.092-1.118.1-1.947.007-.828.01-1.77.01-2.827v-2.31c0-.088-.043-.132-.131-.132h-9.328c-.088 0-.132.044-.132.132v2.31c0 1.057.003 1.999.01 2.827.007.829.04 1.479.099 1.947.029.324.096.594.198.815.103.219.323.35.66.395.162.03.34.052.54.067.198.014.348.02.45.02.118 0 .177.045.177.133 0 .117-.118.177-.352.177-.31 0-.616-.004-.925-.012l-.846-.021c-.257-.008-.47-.015-.638-.023a14.204 14.204 0 0 0-.297-.011c-.03 0-.13.004-.298.01-.168.009-.362.016-.583.024l-.682.02c-.234.009-.432.013-.593.013-.236 0-.353-.06-.353-.177 0-.088.059-.132.177-.132.102 0 .212-.007.33-.021.117-.015.227-.037.329-.067a.576.576 0 0 0 .45-.395c.082-.221.145-.491.189-.815.058-.468.09-1.118.098-1.947.008-.828.01-1.77.01-2.827v-7.272c0-.33-.002-.592-.01-.791a11.412 11.412 0 0 0-.033-.561c-.03-.381-.102-.667-.22-.858-.117-.19-.36-.322-.725-.396a1.448 1.448 0 0 0-.363-.055 8.702 8.702 0 0 0-.385-.01c-.118 0-.177-.044-.177-.132 0-.117.118-.177.353-.177.249 0 .512.004.792.012l.78.02c.242.009.448.016.616.024.169.006.268.01.298.01l.297-.01c.168-.008.362-.015.583-.023l.68-.021c.236-.008.434-.012.595-.012.235 0 .353.06.353.177 0 .088-.06.132-.176.132-.074 0-.151.003-.231.01a2.872 2.872 0 0 0-.32.055c-.293.06-.495.187-.604.386-.111.197-.18.487-.21.868-.014.177-.026.363-.032.56-.008.2-.011.463-.011.793v3.862c0 .088.044.132.132.132h9.328c.088 0 .132-.044.132-.132V87.823a14.565 14.565 0 0 0-.044-1.353c-.03-.38-.103-.666-.22-.857-.118-.19-.36-.322-.727-.396a1.447 1.447 0 0 0-.362-.055 8.67 8.67 0 0 0-.386-.01c-.117 0-.175-.044-.175-.132 0-.117.117-.177.35-.177.25 0 .515.004.794.012l.78.02c.243.009.448.016.617.024l.296.01c.03 0 .128-.004.297-.01.169-.008.364-.015.583-.023l.683-.021c.234-.008.432-.012.594-.012.234 0 .35.06.35.177 0 .088-.057.132-.175.132-.073 0-.15.003-.23.01a2.823 2.823 0 0 0-.32.055c-.293.06-.494.187-.605.386-.11.197-.18.487-.21.868-.013.177-.024.363-.031.56-.008.2-.012.463-.012.793v7.271c0 1.057.004 1.999.012 2.827.007.829.04 1.479.099 1.947.029.324.094.594.198.815.102.219.322.35.66.395.16.03.34.052.539.067.197.014.348.02.45.02.117 0 .177.045.177.133M623.02 88.1c-.118-.324-.228-.324-.33 0l-1.938 5.938c-.043.103-.02.155.067.155h4.202c.089 0 .118-.052.089-.155l-2.09-5.939zm8.58 13.198c0 .074-.044.121-.133.144a1.333 1.333 0 0 1-.308.033c-.16 0-.44-.008-.836-.022-.395-.015-.827-.03-1.298-.044-.47-.015-.887-.007-1.254.022-.366.028-.681.044-.945.044-.206 0-.327-.016-.364-.044-.036-.029-.054-.08-.054-.154 0-.044.043-.074.131-.088a8.66 8.66 0 0 0 .243-.044c.19-.044.34-.092.45-.144a.407.407 0 0 0 .22-.209.663.663 0 0 0 .023-.35 2.964 2.964 0 0 0-.166-.573c-.175-.469-.366-.976-.572-1.518-.204-.543-.404-1.057-.593-1.54a57.574 57.574 0 0 1-.639-1.694c-.044-.088-.11-.132-.197-.132h-4.73c-.103 0-.176.058-.22.176l-1.32 3.894c-.206.571-.308 1.064-.308 1.474 0 .22.091.382.274.483.183.104.37.154.562.154h.22c.146 0 .22.044.22.132 0 .117-.11.177-.33.177-.134 0-.287-.004-.463-.012l-.505-.02-.452-.024a6.592 6.592 0 0 0-.298-.01c-.116 0-.394.01-.834.033-.44.021-.917.033-1.43.033-.279 0-.418-.06-.418-.177 0-.088.066-.132.197-.132a1.992 1.992 0 0 0 .418-.044c.514-.073.9-.296 1.156-.67.255-.374.487-.84.692-1.397l4.995-13.662c.131-.367.226-.602.285-.704.06-.103.125-.154.198-.154.073 0 .14.047.198.142.058.096.154.313.287.65a195.277 195.277 0 0 1 1.176 3.07c.3.798.635 1.675 1.001 2.628l1.09 2.827c.358.932.703 1.814 1.032 2.65l.827 2.09c.19.485.359.873.505 1.166.147.294.287.526.418.694.133.168.257.29.374.363.117.073.256.132.418.176.367.102.645.161.837.175l.163.034c.038.007.057.041.057.098zM639.256 101.299c0 .117-.118.177-.353.177-.307 0-.571-.004-.792-.012l-.626-.021-.594-.023a19.819 19.819 0 0 0-1.837.023c-.338.02-.675.033-1.012.033-.235 0-.352-.06-.352-.177 0-.088.058-.132.175-.132.103 0 .213-.007.33-.021.118-.015.228-.037.33-.067a.578.578 0 0 0 .452-.395c.08-.221.143-.491.187-.815.058-.468.09-1.118.099-1.947.007-.828.01-1.77.01-2.827v-7.272a14.565 14.565 0 0 0-.044-1.353c-.043-.717-.292-1.128-.747-1.231a3.126 3.126 0 0 0-.682-.087c-.118 0-.176-.044-.176-.132 0-.117.117-.177.352-.177.366 0 .722.012 1.067.033.344.023.73.033 1.154.033.426 0 .807-.01 1.145-.033.337-.021.675-.033 1.012-.033.234 0 .352.06.352.177 0 .088-.06.132-.177.132-.073 0-.15.003-.23.01a2.823 2.823 0 0 0-.32.055c-.292.06-.494.187-.604.386-.11.197-.18.487-.21.868-.013.177-.025.363-.032.56-.008.2-.011.463-.011.793v7.271c0 1.057.003 1.999.01 2.827.008.829.04 1.479.1 1.947.029.324.095.594.198.815.102.219.322.35.66.395.16.03.34.052.539.067.198.014.348.02.45.02.118 0 .177.045.177.133M300.1 92.427c0-1.796-1.346-2.918-3.085-2.918-2.19 0-3.087 1.796-3.087 3.087 0 1.401.898 3.084 3.03 3.084 1.908 0 3.143-1.458 3.143-3.253M476.817 92.427c0-1.796-1.347-2.918-3.087-2.918-2.188 0-3.086 1.796-3.086 3.087 0 1.401.898 3.084 3.03 3.084 1.908 0 3.143-1.458 3.143-3.253"/>
    </g>
</svg>
