<svg xmlns="http://www.w3.org/2000/svg" width="287" height="60" viewBox="0 0 287 60">
    <g fill="#1A1919" fill-rule="evenodd">
        <path d="M70.628 23.252c-2.19 0-3.518-.827-4.504-2.976-.34 1.933-1.668 2.976-3.828 2.976H53.81c-2.436 0-4.288-.889-4.288-3.775v-5.803c0-.827-.462-1.134-2.282-1.134v-.797l4.226-.185v8.103c0 1.75.895 2.702 2.5 2.794h7.528c1.977 0 2.748-1.197 2.748-3.163v-6.599c0-.767-.03-1.012-1.08-1.35l3.054-.584v6.632c0 2.025 1.326 5.064 3.797 5.064h.986v.797h-.37zM55.415 9.102c-.648 0-1.142-.46-1.142-1.135 0-.645.494-1.167 1.142-1.167.68 0 1.172.522 1.172 1.167 0 .675-.492 1.136-1.172 1.136zm4.106 0c-.68 0-1.143-.46-1.143-1.135 0-.645.463-1.167 1.143-1.167.646 0 1.139.522 1.139 1.167 0 .675-.493 1.136-1.14 1.136z"/>
        <path d="M69.871 28.69c-.678 0-1.14-.462-1.14-1.136 0-.644.462-1.165 1.14-1.165.649 0 1.143.52 1.143 1.165 0 .674-.494 1.136-1.143 1.136zm.555-6.231h1.265c1.942-.031 2.744-1.197 2.744-3.162v-7.735c0-.768-.03-1.045-1.08-1.351l3.052-.615v9.7c0 2.55-1.695 3.959-4.192 3.959h-1.789v-.796zm3.547 6.231c-.68 0-1.172-.462-1.172-1.136 0-.644.493-1.165 1.172-1.165.647 0 1.14.52 1.14 1.165 0 .674-.493 1.136-1.14 1.136zM85.272 23.256c-1.08 4.82-4.226 5.801-6.727 5.801h-.124c-.431 0-.863-.029-2.005-.121 4.874-1.136 7.345-3.008 7.345-9.362v-7.153c0-.768-.033-1.042-1.082-1.352l3.056-.613v8.227c0 .46-.032 1.075-.063 1.443-.06.858-.152 1.626-.276 2.333h4.443v.797h-4.567z"/>
        <path d="M101.853 5.426c-.245 1.809-5.46 4.571-7.25 5.03v.064c2.87 0 6.077 3.099 6.077 6.32v5.615h5.493v.798H89.296v-.798h9.195V16.93c0-2.392-1.388-5.797-5.307-5.797h-2.438l.586-.798h.432c2.068 0 8.455-3.806 8.67-6.813l1.42 1.904z"/>
        <path d="M105.878 28.69c-.646 0-1.143-.462-1.143-1.136 0-.644.497-1.165 1.143-1.165.678 0 1.141.52 1.141 1.165 0 .674-.463 1.136-1.14 1.136zm10.333-5.435c-2.19 0-3.547-.919-4.566-3.007-.369 1.935-1.942 3.007-4.103 3.007h-1.912v-.796h1.359c1.974-.031 2.775-1.197 2.775-3.162v-7.89c0-.767-.031-.89-1.08-1.196l3.056-.615v7.797c0 2.057 1.386 5.066 3.823 5.066h.955v.796h-.307zm-6.231 5.435c-.679 0-1.174-.462-1.174-1.136a1.15 1.15 0 0 1 1.174-1.165c.647 0 1.14.52 1.14 1.165 0 .674-.493 1.136-1.14 1.136z"/>
        <path d="M115.915 22.455h.31c2.066 0 2.867-1.197 2.867-3.161v-5.585c0-.767-.03-.892-1.078-1.197l3.026-.613v5.953c.152 2.025 1.509 4.603 3.764 4.603 2.096 0 2.93-1.197 2.93-3.161v-6.72c0-.798-.031-.89-1.111-1.228l3.054-.583v6.628c0 2.058 1.421 5.064 3.827 5.064 2.097 0 2.931-1.197 2.931-3.161v-7.732c0-.769-.03-1.045-1.11-1.352l3.054-.614v9.698c0 2.548-1.696 3.958-4.196 3.958-2.191 0-3.456-.95-4.599-3.006-.37 1.934-1.943 3.006-4.043 3.006-2.19 0-3.363-.889-4.473-2.699l-.093-.123c-.431 1.81-2.035 2.822-4.102 2.822h-.958v-.797zM150.138 19.477V5.662c0-.86-.462-1.166-2.28-1.166v-.798l4.224-.185v16.148c0 1.75.892 2.7 2.465 2.794h1.265v.797h-1.42c-2.465 0-4.254-.89-4.254-3.775"/>
        <path d="M154.681 28.69c-.678 0-1.14-.462-1.14-1.136 0-.644.462-1.165 1.14-1.165.648 0 1.142.52 1.142 1.165 0 .674-.494 1.136-1.142 1.136zm.555-6.231h1.264c1.942-.031 2.745-1.197 2.745-3.162v-7.735c0-.768-.03-1.045-1.08-1.351l3.051-.615v9.7c0 2.55-1.694 3.959-4.192 3.959h-1.788v-.796zm3.546 6.231c-.68 0-1.17-.462-1.17-1.136 0-.644.49-1.165 1.17-1.165.646 0 1.142.52 1.142 1.165 0 .674-.496 1.136-1.142 1.136zM168.568 11.562c0-.769-.032-1.045-1.078-1.351l3.05-.615v7.614c0 5.587-.615 11.847-7.307 11.847-.432 0-.866-.03-2.006-.121 4.843-1.135 7.187-3.008 7.341-9.363v-8.011zM189.253 23.256h-4.443c-1.05 4.698-4.473 5.801-6.971 5.801-.433 0-.864-.03-2.005-.121 2.776-.615 5.985-1.443 7.003-5.68h-4.104c-1.944 0-4.44-1.842-4.44-4.758 0-5.403 3.7-8.872 8.852-8.872h2.005v10.99c0 .676-.093 1.29-.185 1.843h4.288v.797zm-6.108-2.517V10.455a3.226 3.226 0 0 0-.743-.092c-2.959 0-6.169 3.161-6.169 7.95 0 1.904 1.081 4.052 3.18 4.146h3.577c.092-.554.124-1.075.155-1.72z"/>
        <path d="M199.291 23.252c-2.192 0-3.548-.92-4.565-3.007-.372 1.933-1.942 3.007-4.103 3.007h-1.91v-.797h1.355c1.975-.032 2.776-1.197 2.776-3.163v-7.89c0-.766-.03-.888-1.079-1.196l3.054-.615v7.799c0 2.056 1.388 5.065 3.825 5.065h.955v.797h-.308zm-8.328-17.374c-.678 0-1.172-.46-1.172-1.105 0-.676.494-1.198 1.172-1.198.647 0 1.142.522 1.142 1.198 0 .644-.495 1.105-1.142 1.105zm4.072 0c-.649 0-1.14-.46-1.14-1.105 0-.676.491-1.198 1.14-1.198.678 0 1.141.522 1.141 1.198 0 .644-.463 1.105-1.141 1.105z"/>
        <path d="M211.585 5.426c-.248 1.809-5.46 4.571-7.253 5.03v.064c2.871 0 6.08 3.099 6.08 6.32v5.615h5.491v.798h-16.877v-.798h9.195V16.93c0-2.392-1.388-5.797-5.307-5.797h-2.437l.587-.798h.43c2.068 0 8.455-3.806 8.67-6.813l1.42 1.904z"/>
        <path d="M215.607 28.69c-.646 0-1.14-.462-1.14-1.136 0-.644.494-1.165 1.14-1.165.678 0 1.141.52 1.141 1.165 0 .674-.463 1.136-1.14 1.136zm10.335-5.435c-2.193 0-3.55-.919-4.568-3.007-.37 1.935-1.942 3.007-4.101 3.007h-1.913v-.796h1.358c1.974-.031 2.776-1.197 2.776-3.162v-7.89c0-.767-.03-.89-1.08-1.196l3.055-.615v7.797c0 2.057 1.388 5.066 3.824 5.066h.957v.796h-.308zm-6.232 5.435c-.679 0-1.173-.462-1.173-1.136a1.15 1.15 0 0 1 1.173-1.165c.647 0 1.141.52 1.141 1.165 0 .674-.494 1.136-1.141 1.136z"/>
        <path d="M225.675 22.455h9.225c1.944 0 2.715-1.198 2.715-3.162v-1.72c-.895 1.75-2.223 2.518-4.442 2.518-1.944 0-4.413-1.842-4.413-4.759 0-5.373 3.673-7.43 8.824-7.43h2.005v11.391c0 2.548-1.42 3.96-3.918 3.96h-9.996v-.798zm11.909-13.754a5.82 5.82 0 0 0-.74-.061c-2.961 0-6.17 1.719-6.17 6.538 0 1.843 1.11 4.145 3.177 4.237 2.129 0 3.733-2.334 3.733-4.882V8.7zm-4.72-3.41c-.649 0-1.14-.46-1.14-1.103 0-.676.491-1.167 1.14-1.167.68 0 1.172.491 1.172 1.167 0 .644-.492 1.103-1.171 1.103zm2.036-2.945c-.679 0-1.171-.46-1.171-1.107 0-.675.492-1.196 1.17-1.196.65 0 1.14.521 1.14 1.196 0 .646-.49 1.107-1.14 1.107zm2.068 2.945c-.68 0-1.174-.46-1.174-1.103 0-.676.494-1.167 1.174-1.167.647 0 1.139.491 1.139 1.167 0 .644-.492 1.103-1.139 1.103zM2.951 39.987c-.679-1.662-1.41-2.053-2.899-2.053v-.44h6.475v.416c-1.124.052-1.49.234-1.49.674 0 .623.288 1.09 6.5 17.398l6.106-15.346c.287-.754.575-1.531.575-2.027 0-.675-.86-.647-1.514-.7v-.414h5.457l-.054.44c-1.644.13-2.113.518-2.741 2.052l-7.959 18.879c-.158.362-.287.49-.419.49-.157 0-.312-.155-.417-.414l-7.62-18.955zM31.747 59.102h-6.472v-.442h.104c1.747 0 1.775-1.142 1.775-3.429v-11.89c0-2.26-.288-2.597-1.959-2.7v-.417h5.953v.467c-1.853 0-1.88.469-1.88 3.428v11.112c0 2.78.155 3.404 2.479 3.404v.467zM51.844 55.65c-.967 2.207-3.16 3.713-6.604 3.713-5.95 0-9.605-4.077-9.605-9.686 0-5.244 3.707-9.763 9.944-9.763 1.88 0 3.602.363 5.585 1.142.289.105.366.181.366.44l-.182 3.792h-.417c-.027-1.064-.262-2.336-1.098-3.01-1.15-.936-2.48-1.43-4.672-1.43-5.035 0-7.281 3.79-7.281 8.337 0 4.57 2.453 9.215 7.595 9.215 2.896 0 4.802-1.088 5.794-2.932.21-.415.286-.468.522-.415.209.05.235.182.053.597M71.552 43.393h-.442c-.159-1.454-.262-1.975-2.585-1.975h-3.627V55.39c0 2.934.314 3.245 2.426 3.245v.467h-6.472v-.442c1.617 0 1.827-.753 1.827-2.727V41.418h-3.107c-2.505 0-3.052.08-3.131 1.975h-.469l-.106-3.169s2.558.157 3.681.157h8.613c1.488 0 2.74-.027 3.445-.132l.026.027-.079 3.117zM84.394 59.402c-6.812 0-9.657-5.298-9.657-9.762 0-4 2.924-9.686 9.813-9.686 5.612 0 9.788 3.505 9.788 9.295 0 5.558-3.915 10.153-9.944 10.153m-.026-18.618c-4.15 0-7.281 2.728-7.281 8.18 0 5.764 3.496 9.476 7.986 9.476 2.243 0 6.89-1.27 6.89-8.49 0-5.945-3.653-9.166-7.595-9.166M115.377 59.102h-2.166c-2.636 0-3.576-1.766-4.986-4-1.2-1.87-2.426-4.517-4.097-4.62l-1.147-.08c-.132 0-.185.028-.185.236v4.881c0 2.934.523 3.116 2.48 3.116v.467h-6.37v-.442c1.49-.077 1.829-.258 1.829-3.116V42.458c0-1.351-.808-1.714-2.193-1.714v-.468h6.578c3.549 0 5.95 1.585 5.95 4.622 0 2.467-2.036 4.545-4.227 5.272 1.878.702 3.42 4.96 4.984 6.595 1.594 1.688 2.218 1.87 3.55 1.87v.467zm-10.152-9.323c2.297 0 3.731-1.712 3.731-4.334 0-2.78-1.696-4.364-4.306-4.364-1.41 0-1.854.026-1.854.441v7.687c0 .26.026.338.444.44.08.028 1.332.13 1.985.13zM125.811 59.102h-6.472v-.442h.104c1.747 0 1.778-1.142 1.778-3.429V43.342c0-2.26-.291-2.598-1.96-2.701v-.417h5.95v.467c-1.853 0-1.88.469-1.88 3.428v11.112c0 2.78.156 3.404 2.48 3.404v.467zM142.067 58.66c.939-.052 1.304-.258 1.304-.622 0-.286 0-.365-.261-1.04l-1.984-5.193c-.05-.103-.105-.155-.234-.155h-5.35c-.13 0-.21.076-.26.208l-1.36 3.998c-.154.441-.494 1.454-.494 2s.522.752 1.54.78v.467h-5.48l.078-.443c1.643-.128 2.142-.725 2.713-2.284l5.743-15.554c.313-.831.367-.882.521-.882.132 0 .235.102.548.882l5.976 15.346c.574 1.505 1.203 2.44 2.897 2.44l.08.495h-5.977v-.443zm-1.385-7.971v-.027l-2.374-6.776c-.052-.157-.104-.286-.182-.286-.08 0-.131.104-.184.286l-2.216 6.699c0 .026-.027.053-.027.077 0 .054.051.08.104.08h4.802c.053 0 .077 0 .077-.053zM148.29 42.843c.682-.062 1.016-1.008 1.112-1.371.092-.358.169-.657.085-.907-.107-.318-.395-.43-.704-.604-.159-.09-.3-.177-.429-.35-.182-.25-.242-.476-.173-.798.103-.475.61-.725 1.091-.623.845.178 1.264 1.072 1.156 2.417-.037.488-.441 2.435-2.134 2.54l-.004-.304zM159.772 59.37c-1.512 0-2.949-.077-4.515-1.038v-3.61h.471c.08 2.753 1.982 3.741 4.28 3.741 2.584 0 3.942-1.662 3.942-3.222 0-2-1.203-3.193-3.915-4.907-3.606-2.26-4.542-3.947-4.542-5.79 0-2.624 2.036-4.623 5.3-4.623 1.772 0 2.974.312 4.12.78v2.985h-.467c-.105-.519-.183-1.037-.496-1.582-.157-.26-.912-1.326-3.447-1.326-1.957 0-3.366 1.247-3.366 3.012 0 1.661 1.279 2.7 4.228 4.648 2.898 1.921 4.307 3.79 4.361 5.766 0 3.04-2.377 5.165-5.954 5.165M181.4 58.222v-3.866h.523c.237 3.244 2.428 4.231 5.038 4.231 3.002 0 4.644-1.947 4.644-3.921 0-2.285-1.487-3.686-4.538-5.61-4.124-2.596-5.118-4.62-5.118-6.518 0-3.01 2.298-5.192 6.212-5.192 2.116 0 4.515.829 4.515.829v3.222h-.523c-.1-.546-.206-1.117-.573-1.714-.208-.336-1.121-1.585-4.043-1.585-2.324 0-4.02 1.482-4.02 3.584 0 2 1.54 3.195 4.906 5.428 3.289 2.18 4.905 4.282 4.905 6.49 0 5.48-5.504 5.816-6.862 5.816-3.316 0-5.065-1.194-5.065-1.194M210.908 55.778l-.054 3.324H198.25v-.466c1.305-.028 1.852-.338 1.852-2.752v-13.48c0-1.193-.808-1.634-2.216-1.634v-.494c1.043.079 2.505.13 3.863.13 1.043 0 3.704 0 5.375-.026.523 0 3.08-.078 3.08-.104l-.053 3.194h-.47c-.104-1.973-1.279-2.13-3.575-2.13 0 0-2.845-.024-3.655-.024-.26 0-.286.077-.286.258v6.777c0 .13 0 .26.156.26h4.465c.834 0 1.145-.284 1.304-1.038h.495v3.972h-.495c-.054-.883-.079-1.713-1.487-1.868-.758-.079-3.837-.13-4.255-.13-.13 0-.183.079-.183.18v7.167c.053 1.3.079 1.3 3.314 1.3 1.045 0 3.342-.026 3.89-.287.757-.362.992-1.037 1.07-2.129h.47zM231.107 55.649c-.964 2.207-3.16 3.713-6.602 3.713-5.95 0-9.605-4.078-9.605-9.686 0-5.245 3.707-9.764 9.943-9.764 1.88 0 3.601.364 5.588 1.143.286.105.365.182.365.441l-.184 3.792h-.418c-.027-1.065-.262-2.336-1.096-3.013-1.15-.934-2.48-1.429-4.672-1.429-5.035 0-7.28 3.792-7.28 8.337 0 4.57 2.45 9.217 7.594 9.217 2.897 0 4.802-1.09 5.792-2.933.212-.416.29-.467.523-.416.21.053.235.183.052.598M251.957 59.102h-2.168c-2.636 0-3.575-1.766-4.984-4-1.201-1.87-2.43-4.517-4.098-4.62l-1.147-.08c-.133 0-.184.028-.184.236v4.881c0 2.934.524 3.116 2.478 3.116v.467h-6.368v-.442c1.49-.077 1.828-.258 1.828-3.116V42.458c0-1.351-.81-1.714-2.192-1.714v-.468h6.577c3.549 0 5.951 1.585 5.951 4.622 0 2.467-2.037 4.545-4.229 5.272 1.88.702 3.42 4.96 4.986 6.595 1.591 1.688 2.216 1.87 3.55 1.87v.467zm-10.152-9.323c2.296 0 3.733-1.712 3.733-4.334 0-2.78-1.699-4.364-4.308-4.364-1.412 0-1.854.026-1.854.441v7.687c0 .26.026.338.442.44.082.028 1.333.13 1.987.13zM267.546 55.778l-.051 3.324H254.89v-.466c1.305-.028 1.852-.338 1.852-2.752v-13.48c0-1.193-.807-1.634-2.22-1.634v-.494c1.045.079 2.508.13 3.865.13 1.043 0 3.704 0 5.374-.026.524 0 3.08-.078 3.08-.104l-.051 3.194h-.469c-.104-1.973-1.28-2.13-3.577-2.13 0 0-2.844-.024-3.655-.024-.257 0-.284.077-.284.258v6.777c0 .13 0 .26.156.26h4.46c.837 0 1.148-.284 1.308-1.038h.495v3.972h-.495c-.053-.883-.08-1.713-1.487-1.868-.76-.079-3.837-.13-4.254-.13-.132 0-.183.079-.183.18v7.167c.051 1.3.077 1.3 3.314 1.3 1.045 0 3.339-.026 3.888-.287.756-.362.992-1.037 1.07-2.129h.47zM286.697 43.393h-.446c-.155-1.454-.258-1.975-2.581-1.975h-3.627V55.39c0 2.934.31 3.245 2.426 3.245v.467h-6.471v-.442c1.616 0 1.823-.753 1.823-2.727V41.418h-3.104c-2.506 0-3.054.08-3.132 1.975h-.47l-.105-3.169s2.56.157 3.683.157h8.613c1.487 0 2.738-.027 3.444-.132l.025.027-.078 3.117z"/>
    </g>
</svg>
