<svg xmlns="http://www.w3.org/2000/svg" xmlns:xlink="http://www.w3.org/1999/xlink" width="202" height="50" viewBox="0 0 202 50">
    <defs>
        <path id="prefix__a" d="M0 0H348.966V44.751H0z"/>
    </defs>
    <g fill="none" fill-rule="evenodd">
        <mask id="prefix__b" fill="#fff">
            <use xlink:href="#prefix__a"/>
        </mask>
        <g fill="#000" fill-rule="nonzero" mask="url(#prefix__b)">
            <g>
                <path d="M104.642 20.04h2.31v-3.339H104.3v-2.459h3.512v-3.335H104.3v-2.63h2.35V4.822H91.515c.27-.374.523-.759.76-1.154L88.709 2c-.93 1.418-2.121 2.885-3.527 4.29-.695.695-1.423 1.356-2.182 1.981l3.142 2.159c.364-.29.722-.587 1.072-.892v1.369h-3.49v3.335h3.49v2.459H84.78v3.34h2.374c-.864 1.693-2.301 3.672-3.356 4.631L86.85 27c1.495-1.43 2.892-3.411 3.95-5.742l-2.36-1.218h15.242l-2.446 1.439c1.202 1.598 2.59 3.618 3.4 5.296L108 25.072c-.723-1.51-2.091-3.64-3.358-5.032zm-4.043-3.339h-.936v-2.459h.936v2.459zm-4.342-2.459v2.459h-.98v-2.459h.98zm-.98-3.335v-2.63h.98v2.63h-.98zm5.322 0h-.936v-2.63h.936v2.63zm-9.692-2.63h.957v2.63h-.957v-2.63zm0 5.965h.957v2.459h-.957v-2.459z" transform="translate(10 8)"/>
                <path d="M90.636 20.694c.526 1.174 1.346 4.396 1.351 5.366l3.61-.798c-.412-2.445-.791-3.777-1.668-5.414l-3.293.846zm4.837.216c.653 1.107 1.818 4.013 1.947 5.175l3.678-.926c-.5-2.215-1.17-3.674-2.085-5.237l-3.54.988zm37.773-15.976h-11.19v.575L119.7 3.332c-1.88 1.13-4.797 2.057-8.127 2.477-.043 0-.074.006-.118.011v19.377h3.949v-1.272h6.045V20.05h-6.045v-4.503h6.045v-3.665h-6.045V8.71c2.62-.518 4.917-1.278 6.65-2.192v19.949h3.995V8.643h3.197V20.05h-2.605l1.337 4.1h1.964c1.823 0 3.301-1.399 3.301-3.119.002-.32.002-16.097.002-16.097zm20.569 15.751c.313-.29.644-.595.967-.906 1.075-1.085 2.007-2.183 2.737-3.208l-1.087-1.055V5.078h-6.631V2h-4.296v3.078h-6.773v16.978h-.015c-.813.18-1.628.346-2.446.5l.822 4.047c.429-.092.852-.195 1.277-.296 3.655-.871 6.98-1.918 9.599-2.977l-.012-2.523c2.433 2.572 5.855 4.801 9.671 6.068l2.097-3.498c-2.287-.758-4.28-1.658-5.91-2.692zm-1.662-7.83h-9.28v-.88h9.28v.88zm.627 3.437c-.311.403-.636.794-.975 1.174-.273.311-.555.616-.836.904-.587-.624-1.089-1.322-1.493-2.078h3.304zm-.627-7.926v.897h-9.28v-.897h9.28zm-9.28 12.67v-4.744h2.03c.495 1.174 1.222 2.345 2.143 3.473-1.375.476-2.767.9-4.173 1.272zm37.689-17.253h-13.91v9.894h13.907l.003-9.894zm-10.073 3.262h6.234v3.237h-6.234V7.045zm-8.248 7.806v11.628h3.833v-.831h3.043v.826h3.836V14.85h-10.712zm3.833 7.509v-4.077h3.042v4.077h-3.042zm18.925-7.51h-10.873v11.63h3.92v-.832h3.037v.826H185V14.85zm-6.953 7.51v-4.077h3.037v4.077h-3.037zm-107.58 5.963h-6.672V.01h6.678l-.006 28.314zM17.729 8.027l-3.822 20.3-4.67-.004L5.395 8.027v20.296L0 28.263V.009L8.222 0l3.338 17.708L14.905 0h8.51v28.326h-5.686v-20.3zm26.324 13.219c0 4.888-3.983 7.727-8.872 7.727-4.894 0-8.877-2.839-8.877-7.73L26.28 0h6.677l.017 21.123c0 1.21.993 2.195 2.206 2.195 1.21 0 2.209-.983 2.209-2.195L37.398 0h6.68l-.025 21.246zm16.851.878c0 4.275-3.476 6.876-7.743 6.876-4.271 0-7.739-2.6-7.739-6.876-.02-1.065-.017-2.635-.017-4.134l5.942-.006v4.145c0 .798.644 1.445 1.446 1.445.799 0 1.448-.646 1.452-1.445L54.247 0h6.677l-.02 22.124z" transform="translate(10 8)"/>
            </g>
        </g>
    </g>
</svg>
