<svg xmlns="http://www.w3.org/2000/svg" xmlns:xlink="http://www.w3.org/1999/xlink" width="324" height="38" viewBox="0 0 324 38">
    <defs>
        <path id="a" d="M0 0h324v38H0z"/>
        <path id="c" d="M120.81 0c1.698 0 3.332.475 4.966 1.494v3.6c-1.7-1.426-3.398-2.173-5.228-2.173-1.96 0-3.66.747-4.967 2.241-1.372 1.495-2.026 3.26-2.026 5.366s.654 3.872 2.026 5.299c1.372 1.426 3.006 2.173 5.032 2.173 1.046 0 1.895-.204 2.614-.543.392-.204.784-.408 1.242-.68.457-.271.85-.679 1.372-1.086v3.6a10.283 10.283 0 0 1-5.228 1.426c-2.745 0-5.097-1.019-7.058-2.988-1.96-2.038-2.875-4.416-2.875-7.268 0-2.514.784-4.823 2.418-6.793C115.058 1.223 117.672 0 120.809 0zm138.38 0c1.574 0 3.01.34 4.38.951 1.3.611 2.6 1.698 3.832 3.125l-2.19 2.037c-1.642-2.173-3.627-3.26-6.022-3.26-2.122 0-3.901.747-5.338 2.173-1.438 1.427-2.19 3.193-2.19 5.367 0 2.241.82 4.075 2.395 5.502 1.505 1.358 3.148 1.97 4.859 1.97 1.506 0 2.806-.476 4.038-1.495 1.163-1.019 1.848-2.242 1.984-3.6h-4.996V9.917h8.418v.68c0 1.494-.205 2.852-.547 4.007-.342 1.087-.958 2.038-1.78 2.989-1.847 2.105-4.243 3.124-7.117 3.124-2.806 0-5.201-1.019-7.254-3.056-1.985-2.038-3.012-4.483-3.012-7.268 0-2.921 1.027-5.367 3.08-7.336C253.783 1.019 256.247 0 259.19 0zM10.905 0c1.625 3.86 8.805 19.237 8.805 19.237h-3.387l-2.37-5.3H5.757l-2.37 5.3H0L8.805 0h2.1zm224.392 0c1.625 3.86 8.805 19.237 8.805 19.237h-3.387l-2.37-5.3h-8.196l-2.37 5.3h-3.387L233.197 0h2.1zM66.71 0v2.683h-7.73v4.646h7.534v2.748H58.98v6.412h7.731v2.748H56.098V0H66.71zm13.933 0c2.49 0 4.277.458 5.362 1.44 1.213 1.046 1.851 2.486 1.851 4.187 0 1.374-.383 2.552-1.149 3.534-.766 1.047-1.787 1.636-3.064 1.897l5.81 8.18h-3.448l-5.362-7.853h-.511v7.852h-2.809V0h3.32zm20.939 0v19.237H98.55V0h3.033zM216.81 0v2.683h-7.73v4.646h7.468v2.748h-7.469v6.412h7.73v2.748h-10.612V0h10.613zm63.725 0v16.49h6.018v2.747h-9.097V0h3.08zm25.728 0v2.683h-7.73v4.646h7.468v2.748h-7.468v6.412h7.73v2.748h-10.613V0h10.613zm-160.42 0c1.625 3.86 8.804 19.237 8.804 19.237h-3.386l-2.37-5.3h-8.197l-2.37 5.3h-3.387L143.743 0h2.1zM30.44 0l6.045 13.518L42.73 0h.855L47 19.237h-3.023L42.138 7.67l-5.323 11.568h-.789L30.835 7.67l-2.037 11.568h-3.023L29.586 0h.855zm132.942 0l14.053 13.388V.13h2.987v19.107h-1.154L165.216 5.784v13.453h-2.987V0h1.154zM9.89 4.45l-2.913 6.74h5.825L9.89 4.45zm224.392 0l-2.913 6.74h5.825l-2.912-6.74zm-89.454 0l-2.912 6.74h5.825l-2.913-6.74zM81.154 2.813h-1.021v6.085h.894c2.681 0 4.022-1.047 4.022-3.14 0-1.964-1.277-2.945-3.895-2.945z"/>
    </defs>
    <g fill="none" fill-rule="evenodd">
        <mask id="b" fill="#fff">
            <use xlink:href="#a"/>
        </mask>
        <g mask="url(#b)">
            <g transform="translate(8.757 8.636)">
                <mask id="d" fill="#fff">
                    <use xlink:href="#c"/>
                </mask>
                <use fill="#333" fill-rule="nonzero" xlink:href="#c"/>
                <g mask="url(#d)">
                    <path fill="#333" d="M0 0h306.486v20.727H0z"/>
                </g>
            </g>
        </g>
    </g>
</svg>
