<svg xmlns="http://www.w3.org/2000/svg" width="164" height="42" viewBox="0 0 164 42">
    <g fill="#242729" fill-rule="nonzero">
        <path d="M7.374 37.953H3.056L1.79 40.844H0l4.664-10.527h1.121c.85 2.123 4.668 10.527 4.668 10.527H8.657l-1.283-2.89zm-.6-1.494l-1.56-3.708L3.67 36.46h3.105zM127.862 37.953h-4.317l-1.268 2.895h-1.789l4.667-10.53h1.125c.85 2.122 4.667 10.526 4.667 10.526h-1.795l-1.29-2.89zm-.6-1.49l-1.556-3.708-1.549 3.707h3.105zM36.255 31.808h-4.223v2.532h4.097v1.494h-4.097v3.516h4.223v1.494h-5.811v-10.53h5.811zM45.11 36.359l3.26 4.485h-1.944l-3.008-4.307h-.285v4.307h-1.588v-10.53h1.86c1.391 0 2.396.263 3.014.788a2.872 2.872 0 0 1 1.024 2.304 2.988 2.988 0 0 1-.648 1.922c-.423.534-1.023.9-1.692 1.03m-1.977-1.208h.506c1.512 0 2.269-.575 2.269-1.724 0-1.077-.733-1.621-2.195-1.621h-.567l-.013 3.345zM53.18 30.317h1.588v10.53H53.18zM67.885 30.881v1.883a4.411 4.411 0 0 0-2.852-1.153 3.624 3.624 0 0 0-2.732 1.166 3.935 3.935 0 0 0-1.119 2.836 3.837 3.837 0 0 0 1.119 2.797 3.695 3.695 0 0 0 2.742 1.138c.488.014.974-.08 1.422-.272.238-.102.466-.224.681-.367a8.58 8.58 0 0 0 .739-.56v1.915c-.87.505-1.859.77-2.865.772a5.293 5.293 0 0 1-3.854-1.576 5.231 5.231 0 0 1-1.588-3.83 5.416 5.416 0 0 1 1.329-3.588 5.302 5.302 0 0 1 4.236-1.945 5.39 5.39 0 0 1 2.742.771M116.401 31.811h-4.22v2.532h4.097v1.49h-4.097v3.52h4.22v1.495h-5.811v-10.53h5.811zM139.439 35.364h4.35v.35c.01.71-.084 1.417-.28 2.1a4.482 4.482 0 0 1-.92 1.582 4.78 4.78 0 0 1-3.73 1.65 5.127 5.127 0 0 1-3.786-1.595 5.51 5.51 0 0 1 6.233-8.832 6.654 6.654 0 0 1 2.012 1.636l-1.13 1.07c-.865-1.147-1.918-1.722-3.16-1.724a3.766 3.766 0 0 0-2.801 1.154 3.844 3.844 0 0 0-1.121 2.839 3.96 3.96 0 0 0 3.82 3.954 3.17 3.17 0 0 0 2.108-.79 2.82 2.82 0 0 0 1.043-1.91h-2.625l-.013-1.484zM150.19 30.317v9.037h3.095v1.494h-4.687v-10.53zM158.095 30.317v10.53h5.811v-1.493h-4.223v-3.52h4.1v-1.491h-4.1V31.81h4.223v-1.494zM79.384 37.953h-4.317l-1.264 2.891h-1.792l4.667-10.527h1.125c.852 2.123 4.67 10.527 4.67 10.527h-1.799l-1.29-2.89zm-.6-1.494l-1.555-3.708-1.546 3.708h3.102zM16.844 34.482l2.813 6.366h.435l2.894-6.36 1.018 6.356h1.63l-1.867-10.601h-.454l-3.416 7.464-3.296-7.464h-.457l-2.078 10.601h1.644zM96.16 40.848V30.314h-1.588v7.325l-7.396-7.396h-.616v10.601h1.592v-7.396l7.396 7.4zM75.271 4.93h1.718v2.058h-1.718V4.93zm4.946 14.157c-1.446.31-2.922.462-4.401.454-2.849 0-4.152-1.378-4.152-4.172v-5.344l1.682-1.793v7.024c0 1.831.752 2.68 2.548 2.68.877.01 1.754-.053 2.622-.188v-9.25l1.701-.246v10.835zM139.319 15.577h-.094c-.998 0-1.718-.606-1.718-2.02 0-1.413.74-2.077 1.812-2.077 1.073 0 1.796.648 1.796 2.078 0 1.429-.493 2.019-1.796 2.019m0-5.682c-2 0-3.53 1.112-3.53 3.624a3.993 3.993 0 0 0 .493 2.058h-8.278a4.233 4.233 0 0 1-2.019-.51v-4.381l-1.698.266v5.568c0 1.831-.755 2.68-2.512 2.68-.188 0-.972-.055-1.17-.055l.736 1.66h.492c2.775 0 4.078-1.297 4.152-3.945a6.255 6.255 0 0 0 2.097.357h11.237c2.324 0 3.513-1.131 3.513-3.698 0-2.133-1.095-3.624-3.513-3.624M144.728 17.22h1.68V5.063l-1.68.246zM145.727 2.859c-.435 0-.649-.302-.649-.905 0-.547.286-.852.649-.852.246 0 .547.246.907.551l.528-.606a1.838 1.838 0 0 0-1.435-.736c-.697 0-1.491.434-1.491 1.643.01.31.075.617.191.905h-.626l-.356.813h3.416l.434-.813h-1.568zM45.184 19.314h1.718v2.058h-1.718zM59.964 13.386c0 1.455-.548 2.19-2.039 2.19h-7.474L50.26 14.2c-.396-3.173-2.32-5.4-5.02-5.4-.75.026-1.49.18-2.188.454l-.927 1.98a4.628 4.628 0 0 1 2.593-.904c2.323 0 4.002 2.396 4.057 5.248H27.177a4.152 4.152 0 0 1-2-.51V5.064l-1.702.246v12.44c-.867.134-1.744.197-2.622.187-1.795 0-2.55-.849-2.55-2.68v-4.214l-1.68 1.793v2.538c0 2.793 1.323 4.17 4.136 4.17a20.805 20.805 0 0 0 4.418-.453v-2.207c.669.223 1.37.338 2.074.34h30.953c2.369-.032 3.474-1.238 3.474-3.53V8.726l-1.698.263-.016 4.398zM65.474 5.063l-1.68.246V17.22h1.68zM64.229 21.009c-.434 0-.648-.302-.648-.924 0-.548.282-.83.648-.83.347.078.659.27.885.545l.548-.603a1.854 1.854 0 0 0-1.433-.755c-.72 0-1.51.454-1.51 1.643.01.316.073.629.188.924h-.603l-.38.813h3.417l.434-.813h-1.546zM54.59 19.294h1.51v1.964h-1.51zM56.949 19.294h1.491v1.964h-1.491zM117.604 8.988v4.398c0 1.455-.545 2.19-2.04 2.19h-7.603v-1.529c0-2.32-1.682-3.662-3.474-4.152l3.717-4.249-1.87-.564-5.06 6.097h.06c2.074 0 4.961.81 4.961 2.868v1.53H85.423c-.36 0-.7-.094-.7-1.057V5.063l-1.699.243v9.328c0 2.268 1.297 2.592 2.21 2.592h30.613c2.37-.032 3.474-1.238 3.474-3.53v-4.97l-1.717.262zM112.233 19.294h1.51v1.964h-1.51zM114.593 19.294h1.491v1.964h-1.491z"/>
    </g>
</svg>
