<svg width="24" height="24" viewBox="0 0 24 24" fill="none" xmlns="http://www.w3.org/2000/svg">
    <g clip-path="url(#9mfj5gccda)">
        <path d="M12 12.763a4.27 4.27 0 0 0 3.005-1.233 4.191 4.191 0 0 0 1.245-2.977 4.19 4.19 0 0 0-1.245-2.978A4.27 4.27 0 0 0 12 4.342a4.27 4.27 0 0 0-3.005 1.233A4.19 4.19 0 0 0 7.75 8.553c0 1.116.448 2.187 1.245 2.977A4.27 4.27 0 0 0 12 12.763zm0 15.158c1.005 0 2-.196 2.928-.577a7.657 7.657 0 0 0 2.482-1.643 7.577 7.577 0 0 0 1.658-2.459 7.519 7.519 0 0 0-1.659-8.26 7.655 7.655 0 0 0-2.481-1.642 7.712 7.712 0 0 0-8.337 1.643 7.543 7.543 0 0 0-2.24 5.359c0 2.01.805 3.938 2.24 5.36A7.687 7.687 0 0 0 12 27.92z" stroke="#000" stroke-miterlimit="50"/>
    </g>
    <defs>
        <clipPath id="9mfj5gccda">
            <path fill="#fff" transform="translate(3.5 3.5)" d="M0 0h17v16H0z"/>
        </clipPath>
    </defs>
</svg>
