<svg width="18" height="21" viewBox="0 0 18 21" fill="none" xmlns="http://www.w3.org/2000/svg">
<path d="M17.125 4.30707H13.2788C13.0383 2.10607 11.2115 0.375 9 0.375C6.78848 0.375 4.96167 2.10607 4.7212 4.30707H0.875V21H17.1008V4.30707H17.125ZM9.00009 1.36412C10.6827 1.36412 12.053 2.65014 12.2933 4.30707H5.70681C5.94709 2.65014 7.31737 1.36412 9 1.36412H9.00009ZM16.1635 20.0107H1.8367V5.29624H4.69729V7.79395C4.69729 8.06599 4.91359 8.28851 5.17801 8.28851C5.44244 8.28851 5.65873 8.06598 5.65873 7.79395V5.29624H12.3414V7.79395C12.3414 8.06599 12.5577 8.28851 12.8221 8.28851C13.0865 8.28851 13.3028 8.06598 13.3028 7.79395V5.29624H16.1634L16.1635 20.0107Z" fill="white"/>
</svg>
