<svg width="14" height="17" viewBox="0 0 14 17" fill="none" xmlns="http://www.w3.org/2000/svg">
<path d="M13.5 3.64565H10.423C10.2307 1.88486 8.76921 0.5 7 0.5C5.23079 0.5 3.76933 1.88486 3.57696 3.64565H0.5V17H13.4806V3.64565H13.5ZM7.00007 1.2913C8.34617 1.2913 9.44238 2.32011 9.63462 3.64565H4.36545C4.55767 2.32011 5.65389 1.2913 7 1.2913H7.00007ZM12.7308 16.2086H1.26936V4.43699H3.55783V6.43516C3.55783 6.65279 3.73088 6.83081 3.94241 6.83081C4.15395 6.83081 4.32699 6.65278 4.32699 6.43516V4.43699H9.67308V6.43516C9.67308 6.65279 9.84613 6.83081 10.0577 6.83081C10.2692 6.83081 10.4422 6.65278 10.4422 6.43516V4.43699H12.7307L12.7308 16.2086Z" fill="black"/>
</svg>
