<svg width="18" height="19" viewBox="0 0 18 19" fill="none" xmlns="http://www.w3.org/2000/svg">
<path d="M7.27031 0.166992C11.1498 0.166992 14.2906 3.43378 14.2906 7.45851C14.2906 9.25869 13.6623 10.9072 12.6205 12.1796L17.5821 17.2503C17.8059 17.479 17.806 17.8499 17.5822 18.0787C17.3584 18.3075 16.9956 18.3075 16.7717 18.0788L11.8157 13.0156C10.5913 14.0972 9.00459 14.75 7.27031 14.75C3.39085 14.75 0.25 11.4833 0.25 7.45851C0.25 3.43378 3.39085 0.166992 7.27031 0.166992ZM7.27031 1.33857C4.02837 1.33857 1.39617 4.0763 1.39617 7.45851C1.39617 10.8407 4.02837 13.5785 7.27031 13.5785C8.87036 13.5785 10.3219 12.9116 11.3817 11.8295L11.421 11.7831C11.4326 11.7712 11.4446 11.76 11.4569 11.7493C12.5007 10.6461 13.1444 9.13112 13.1444 7.45851C13.1444 4.0763 10.5123 1.33857 7.27031 1.33857Z" fill="#777777"/>
</svg>
