<svg width="48" height="48" viewBox="0 0 48 48" fill="none" xmlns="http://www.w3.org/2000/svg">
<path fill-rule="evenodd" clip-rule="evenodd" d="M22.8701 43.67C22.6601 43.26 22.1801 42.37 23.4301 41.77C23.6401 41.67 23.3401 41.45 23.8101 41.39C24.2801 41.33 24.7801 41.27 25.0201 41.01C25.2601 40.75 25.9001 40.54 26.2001 40.22C26.5001 39.9 26.6101 39.57 26.8801 39.45C27.1401 39.33 27.2601 39.21 27.2601 38.95C27.2601 38.69 27.3801 38.33 27.8801 38.3C28.3801 38.27 28.1701 38.3 28.6701 38.15C29.1701 38 29.3801 37.89 29.4901 37.5C29.6101 37.12 30.0801 36.71 30.2001 36.35C30.3201 36 30.1101 35.35 30.4901 35.11C30.8701 34.87 30.9301 34.79 31.1701 34.58C31.4101 34.37 31.7301 33.52 31.4301 33.4C31.1401 33.28 30.8701 33.49 30.6601 33.22C30.4501 32.96 30.4801 32.96 29.9201 32.84C29.3601 32.72 28.8901 32.52 28.3901 32.28C27.8901 32.04 27.5101 32.1 27.1801 32.02C26.8601 31.93 26.8801 31.81 26.9701 31.7C27.0601 31.58 26.9401 31.64 26.8301 31.38C26.7101 31.12 26.9801 30.35 25.9801 30.38C24.9801 30.41 24.4801 30.17 24.3001 29.88C24.1201 29.59 23.9501 29.82 23.7701 29.59C23.5901 29.36 23.7101 29.27 23.3001 29.15C22.8901 29.03 22.7001 29.21 22.4101 29.15C22.1201 29.09 22.4501 28.71 21.9501 28.83C21.4501 28.95 21.3301 28.62 20.9801 28.62C20.6301 28.62 20.5701 29.36 20.4501 29.36C20.3301 29.36 20.1001 29.36 20.1601 29.07C20.2201 28.78 20.2001 28.54 20.1501 28.3C20.1001 28.06 20.4801 27.68 19.6901 27.8C18.9001 27.92 18.1901 28.01 18.2201 27.42C18.2501 26.83 18.6001 26.6 18.3701 26.27C18.1401 25.94 17.5501 26.15 17.0701 25.8C16.6001 25.45 16.6301 24.92 16.8101 24.65C16.9901 24.39 17.6301 23.7 17.0501 23.81C16.4701 23.92 16.2001 24.27 16.0801 24.62C15.9601 24.97 16.2001 25.03 15.5201 25C14.8401 24.97 14.1401 24.53 14.0201 24.06C13.9001 23.59 13.9001 22.91 14.2301 22.56C14.5501 22.21 14.1701 22.12 14.5501 21.79C14.9301 21.47 15.0201 21.35 15.5501 21.41C16.0801 21.47 16.2301 21.41 16.5801 21.23C16.9301 21.05 16.9301 20.82 17.2901 21.11C17.6501 21.4 17.7901 21.08 18.1701 21.26C18.5501 21.44 18.2901 21.61 18.6101 22.11C18.9301 22.61 19.3801 22.88 19.2601 22.05C19.1401 21.23 18.4701 20.96 19.1701 20.43C19.8801 19.9 20.5201 19.34 20.5801 18.87C20.6401 18.4 20.5501 17.99 20.8401 17.9C21.1301 17.81 21.0801 17.64 21.3701 17.4C21.6601 17.16 22.0201 17.05 22.2201 16.61C22.4201 16.17 22.5701 15.99 22.9601 15.93C23.3401 15.87 23.6101 15.67 23.7301 15.61C23.8501 15.55 24.2401 15.26 24.1901 15.49C24.1401 15.72 23.9101 15.73 23.9101 16.02C23.9101 16.31 24.1201 16.02 24.4101 15.93C24.7001 15.84 25.3201 15.75 25.1801 15.58C25.0301 15.4 24.7101 15.81 24.5001 15.4C24.2901 14.99 23.8501 14.78 23.9401 14.7C24.0301 14.62 24.4701 14.64 24.4701 14.44C24.4701 14.23 24.4101 14.12 24.0301 14.2C23.6501 14.29 23.3201 14.17 22.9101 14.55C22.5001 14.93 22.0301 15.2 22.1401 14.81C22.2501 14.42 22.4601 14.13 23.0201 14.02C23.5801 13.9 24.0201 13.52 24.5801 13.67C25.1401 13.82 25.6101 13.84 25.9901 13.64C26.3701 13.44 26.5501 13.82 26.7301 13.32C26.9101 12.82 27.2901 12.32 26.7001 12.02C26.1101 11.73 25.3801 12.05 25.1701 11.7C24.9601 11.35 25.1101 11.2 24.8501 11.02C24.5901 10.84 24.4201 10.34 24.1901 10.46C23.9601 10.58 24.0501 11.34 23.5201 10.96C22.9901 10.58 23.0501 10.34 22.5501 10.08C22.0501 9.82001 22.2301 9.82001 21.3701 9.76001C20.5201 9.70001 20.4901 9.94001 20.4901 10.29C20.4901 10.64 20.1701 10.64 20.2001 10.91C20.2301 11.17 20.9101 10.91 20.9701 11.35C21.0301 11.79 20.6801 12.35 20.3201 12.41C19.9701 12.47 20.1401 12.62 20.0301 13.12C19.9101 13.62 19.6501 14.15 19.3801 13.68C19.1201 13.21 19.8801 12.8 19.1201 12.41C18.3501 12.03 18.1201 12.38 17.4701 12.15C16.8201 11.91 16.0301 11.94 16.0601 11.24C16.0901 10.53 16.4401 10.39 16.5601 10.09C16.6801 9.80001 16.6201 9.74001 17.1801 9.62001C17.7401 9.50001 18.0601 9.50001 18.1501 9.18001C18.2401 8.86001 18.0001 8.68001 18.4701 8.68001C18.9401 8.68001 18.6201 8.89001 19.1501 8.53001C19.6801 8.18001 20.0301 8.24001 19.5901 8.00001C19.1501 7.76001 18.8801 7.62001 18.6201 8.00001C18.3601 8.38001 18.1201 8.44001 17.9401 8.35001C17.7601 8.26001 18.2901 8.03001 18.0301 7.97001C17.7701 7.91001 17.9401 8.09001 17.4701 8.00001C17.0001 7.91001 17.0901 7.97001 16.7901 8.32001C16.5001 8.67001 16.7001 8.79001 16.3801 8.88001C16.0601 8.97001 16.1201 8.62001 15.6401 8.70001C15.1701 8.79001 15.5501 8.76001 14.9301 8.88001C14.3101 9.00001 14.7801 8.79001 14.1101 9.03001C13.4301 9.27001 14.0201 9.32001 13.2001 9.44001C12.3801 9.56001 11.9401 9.00001 11.4601 8.85001C10.9901 8.70001 9.60007 10.88 8.90007 11.88C8.19007 12.88 7.42007 12.95 7.45007 13.37C7.48007 13.78 7.98007 14.03 8.25007 14.59C8.52007 15.15 8.96007 15.53 8.81007 16.18C8.66007 16.83 8.31007 17 8.43007 17.92C8.55007 18.84 8.50007 19.5 8.75007 19.83C8.95007 20.09 8.95007 20.09 9.28007 20.3C9.75007 20.6 9.59007 20.84 10.0501 21.07C10.3901 21.23 10.7801 21.51 11.0801 22.13C11.3101 22.59 11.0501 22.47 11.4001 22.95C12.1301 23.94 11.5801 23.83 12.1701 24.45C12.7601 25.07 13.3201 25.07 13.7901 25.48C14.2601 25.89 14.6701 25.66 15.0301 25.74C15.3801 25.83 15.0301 25.77 15.5301 26.06C16.0301 26.35 16.6501 26.03 17.0001 26.59C17.3501 27.15 17.2601 27.44 17.7701 27.74C18.2701 28.03 19.0601 28.65 19.1501 28.45C19.3601 28.01 19.7401 27.98 19.7701 28.16C19.8001 28.34 20.1201 28.48 19.7701 28.66C19.4201 28.84 19.1501 28.63 18.9501 29.13C18.7501 29.63 18.4501 29.6 18.5701 30.1C18.6901 30.6 18.5701 30.81 18.3601 31.13C18.1501 31.45 18.1501 31.19 17.9501 31.54C17.7501 31.89 17.8001 32.07 17.7701 32.39C17.7401 32.71 18.2401 32.54 17.9801 32.83C17.7201 33.12 17.1901 32.95 17.6001 33.45C18.0101 33.95 17.8401 33.51 18.3901 34.39C18.9501 35.27 18.6301 35.21 19.6001 35.86C20.5701 36.51 21.1001 36.39 21.2501 36.89C21.4001 37.39 21.4301 38.07 21.1601 38.66C20.9001 39.25 20.8701 38.78 20.9001 39.43C20.9301 40.08 21.0201 40.08 20.8101 40.52C20.6001 40.96 20.9301 41.11 20.7201 41.7C20.5101 42.29 19.8901 43 20.2701 43.33C20.6501 43.66 22.8701 43.67 22.8701 43.67Z" fill="black"/>
<path d="M24.0001 43.67C34.8635 43.67 43.6701 34.8634 43.6701 24C43.6701 13.1366 34.8635 4.33 24.0001 4.33C13.1366 4.33 4.33008 13.1366 4.33008 24C4.33008 34.8634 13.1366 43.67 24.0001 43.67Z" stroke="black" stroke-width="1.5" stroke-miterlimit="10"/>
<path fill-rule="evenodd" clip-rule="evenodd" d="M24.4203 6.46C25.0803 6.85 26.4103 6.9 25.7503 7.07C25.0903 7.24 24.9803 7.01 24.8103 7.35C24.6403 7.69 24.5303 7.35 24.9803 8.01C25.4203 8.67 25.7303 8.07 25.9403 9.01C26.1503 9.95 26.8103 9.84 27.7503 10.17C28.6903 10.5 28.8003 11.06 28.9703 10.17C29.1403 9.28 28.8103 9.71 29.1403 9.28C29.6203 8.65 29.3603 8.89 30.2203 8.39C31.0803 7.89 30.4703 7.87 31.3503 7.61C32.2403 7.34 33.1203 7.18 32.5103 6.51C31.9003 5.85 33.5103 6.45 31.9003 5.85C30.3003 5.24 30.6803 5.3 28.9103 5.08C27.1403 4.86 25.1303 4.66 24.2103 4.36C23.2803 4.06 23.7603 6.07 24.4203 6.46Z" fill="black"/>
<path fill-rule="evenodd" clip-rule="evenodd" d="M39.2003 34.2C39.2803 33.62 39.4503 33.49 39.4103 32.79C39.3703 32.09 39.4103 31.21 39.8703 30.38C40.3303 29.55 40.3303 29.72 40.1603 28.97C39.9903 28.22 39.4703 28.22 39.7303 27.72C39.9903 27.22 39.9503 27.06 39.9103 26.85C39.8703 26.64 40.5303 26.85 39.8703 26.64C39.2103 26.43 39.7003 26.22 39.2103 26.43C38.7203 26.64 38.9603 26.76 38.3403 26.8C37.7203 26.84 37.4703 27.3 37.0103 26.92C36.5503 26.54 36.3003 26.05 35.8903 25.72C35.4803 25.39 34.9403 24.97 35.0203 24.64C35.1003 24.31 35.3503 24.68 35.1003 24.31C34.8503 23.94 34.4803 24.56 34.8503 23.94C35.2203 23.32 35.2703 22.74 35.1003 22.36C34.9303 21.98 34.9803 21.78 35.3503 21.28C35.7203 20.78 36.0603 20.2 36.1403 20.03C36.2203 19.86 36.3903 19.82 36.5103 19.66C36.6303 19.5 36.3003 19.58 36.5903 19.2C36.8803 18.82 37.1303 18.91 37.0903 18.58C37.0503 18.25 36.5503 18.21 37.0503 18.25C37.5503 18.29 37.5503 18.62 37.8403 18.5C38.1303 18.38 37.8003 18.39 38.3403 18.24C38.8803 18.09 39.0003 17.77 39.3403 18.24C39.6803 18.71 39.4203 18.75 39.8803 19.12C40.3403 19.49 40.3403 19.41 40.5903 19.62C40.8403 19.83 40.7603 20.12 41.0903 19.7C41.4203 19.28 40.9003 18.41 40.8203 18C40.7403 17.6 40.4003 17.35 40.1603 17.02C39.9203 16.69 39.7003 16.48 39.4103 16.52C39.1203 16.56 39.4903 16.52 39.1203 16.56C38.7503 16.6 39.0403 16.81 38.7503 16.6C38.4603 16.39 38.5803 16.43 38.3303 16.72C38.0803 17.01 37.7903 16.97 37.9303 17.3C38.0703 17.63 38.4503 17.47 38.0803 17.63C37.7103 17.79 37.6203 17.84 37.3703 17.8C37.1203 17.76 37.6603 17.63 37.1203 17.76C36.5803 17.89 36.3703 18.05 36.4103 17.68C36.4503 17.31 36.7403 17.72 36.4503 17.31C36.1603 16.9 35.9503 17.35 36.1603 16.89C36.3703 16.43 36.5303 16.77 36.3703 16.43C36.2103 16.09 35.8703 15.97 36.2003 15.89C36.5303 15.81 36.6203 15.77 36.8203 15.89C37.0203 16.01 36.9403 15.77 37.3203 15.81C37.6903 15.85 37.9803 15.52 37.5703 15.18C37.1603 14.84 36.7803 15.06 36.8603 14.76C36.9403 14.46 36.7403 14.72 37.1903 14.51C37.6403 14.3 37.2703 14.43 37.6503 14.3C38.0303 14.17 38.2303 14.26 38.1903 13.97C38.1503 13.68 37.9403 13.51 38.3603 13.55C38.7803 13.59 38.6103 13.51 38.9803 13.8C39.3503 14.09 39.1003 13.84 39.9803 14.34C40.8503 14.84 42.3903 17.25 42.3903 17.25L43.6703 21.73L43.5503 26.67L42.5103 30.7L40.8203 34.19C40.8203 34.19 40.2903 34.7 40.0203 34.98C39.1803 35.89 39.2003 34.2 39.2003 34.2Z" fill="black"/>
</svg>