<svg width="32" height="22" viewBox="0 0 32 22" fill="none" xmlns="http://www.w3.org/2000/svg">
<path d="M29.9399 10.999L28.8115 7.37864C28.413 6.10154 27.2465 5.24361 25.9092 5.24361H24.0248V3.56683C24.0248 2.35493 23.039 1.36886 21.8271 1.36886H19.4067V0.500002C19.4067 0.223904 19.183 0 18.9067 0C18.6303 0 18.4067 0.223904 18.4067 0.500002V1.36893H5.6186V0.500002C5.6186 0.223904 5.39495 0 5.1186 0C4.84225 0 4.6186 0.223904 4.6186 0.500002V1.36893H2.19822C0.986315 1.36893 0 2.35499 0 3.5669V17.366C0 18.2659 0.731907 18.9978 1.63184 18.9978H4.87907C5.11785 20.3934 6.33332 21.46 7.79588 21.46C9.25844 21.46 10.4735 20.3934 10.7123 18.9978H22.173C22.4118 20.3934 23.6272 21.46 25.0898 21.46C26.5524 21.46 27.7675 20.3934 28.0062 18.9978H30.3682C31.2681 18.9978 32 18.2659 32 17.366V13.1831C31.9999 12.0185 31.0864 11.072 29.9399 10.999ZM25.9091 6.24362C26.8066 6.24362 27.5892 6.81957 27.8563 7.67624L28.8878 10.9851H25.223C24.5624 10.9851 24.0248 10.4477 24.0248 9.78714C24.0248 9.67962 24.0248 6.11466 24.0248 6.24368H25.9091V6.24362ZM7.79582 20.4599C6.7138 20.4599 5.83344 19.5798 5.83344 18.4978C5.83344 17.416 6.7138 16.5358 7.79582 16.5358C8.87783 16.5358 9.75776 17.4159 9.75776 18.4978C9.75776 19.5798 8.8779 20.4599 7.79582 20.4599ZM25.0898 20.4599C24.0078 20.4599 23.1274 19.5798 23.1274 18.4978C23.1274 17.416 24.0078 16.5358 25.0898 16.5358C26.1718 16.5358 27.0517 17.4159 27.0517 18.4978C27.0517 19.5798 26.1718 20.4599 25.0898 20.4599ZM30.9999 17.3659C30.9999 17.7143 30.7167 17.9978 30.3681 17.9978H28.0061C27.7674 16.6023 26.5523 15.5358 25.0897 15.5358C23.6272 15.5358 22.4117 16.6022 22.1729 17.9978H10.7122C10.4735 16.6023 9.25838 15.5358 7.79582 15.5358C6.33325 15.5358 5.11778 16.6022 4.879 17.9978H1.63177C1.28317 17.9978 0.999941 17.7143 0.999941 17.3659V3.5669C0.999941 2.90625 1.53751 2.36893 2.19816 2.36893H21.8271C22.4877 2.36893 23.0248 2.90631 23.0248 3.5669V9.78714C23.0248 10.999 24.0112 11.9851 25.2231 11.9851C25.9469 11.9851 29.8747 11.9849 29.8017 11.9851C30.4623 11.9851 30.9999 12.5225 30.9999 13.1831V17.3659H30.9999Z" fill="black"/>
<path d="M6.19669 6.91993C6.47304 6.91993 6.69669 6.69602 6.69669 6.41992C6.69669 6.14383 6.47304 5.91992 6.19669 5.91992H4.03504C3.75869 5.91992 3.53503 6.14383 3.53503 6.41992V10.8111C3.53503 11.0872 3.75869 11.3111 4.03504 11.3111C4.31138 11.3111 4.53504 11.0872 4.53504 10.8111V9.11552H6.19663C6.47298 9.11552 6.69663 8.89162 6.69663 8.61552C6.69663 8.33942 6.47298 8.11552 6.19663 8.11552H4.53504V6.91999H6.19669V6.91993Z" fill="black"/>
<path d="M15.5425 6.91993C15.8188 6.91993 16.0425 6.69602 16.0425 6.41992C16.0425 6.14383 15.8188 5.91992 15.5425 5.91992H13.3804C13.104 5.91992 12.8804 6.14383 12.8804 6.41992V10.8111C12.8804 11.0872 13.104 11.3111 13.3804 11.3111H15.5425C15.8188 11.3111 16.0425 11.0872 16.0425 10.8111C16.0425 10.535 15.8188 10.3111 15.5425 10.3111H13.8804V9.11552H15.5425C15.8188 9.11552 16.0425 8.89162 16.0425 8.61552C16.0425 8.33942 15.8188 8.11552 15.5425 8.11552H13.8804V6.91999H15.5425V6.91993Z" fill="black"/>
<path d="M19.9897 6.91993C20.2661 6.91993 20.4897 6.69602 20.4897 6.41992C20.4897 6.14383 20.2661 5.91992 19.9897 5.91992H17.8281C17.5518 5.91992 17.3281 6.14383 17.3281 6.41992V10.8111C17.3281 11.0872 17.5518 11.3111 17.8281 11.3111H19.9897C20.2661 11.3111 20.4897 11.0872 20.4897 10.8111C20.4897 10.535 20.2661 10.3111 19.9897 10.3111H18.3281V9.11552H19.9897C20.2661 9.11552 20.4897 8.89162 20.4897 8.61552C20.4897 8.33942 20.2661 8.11552 19.9897 8.11552H18.3281V6.91999H19.9897V6.91993Z" fill="black"/>
<path d="M11.5947 7.51757C11.5947 6.6367 10.8779 5.91992 9.99705 5.91992H8.38428C8.10793 5.91992 7.88428 6.14383 7.88428 6.41992V10.8111C7.88428 11.0872 8.10793 11.3111 8.38428 11.3111C8.66063 11.3111 8.88428 11.0872 8.88428 10.8111V9.11552H9.68795L10.6474 11.0347C10.7712 11.2829 11.073 11.381 11.3183 11.2584C11.5654 11.1348 11.6655 10.8346 11.542 10.5875L10.7166 8.93637C11.2351 8.67196 11.5947 8.13852 11.5947 7.51757ZM8.88422 6.91993H9.99699C10.3266 6.91993 10.5946 7.18802 10.5946 7.51757C10.5946 7.84711 10.3266 8.11546 9.99699 8.11546H8.88422V6.91993Z" fill="black"/>
</svg>
