<!--  Google logo in black.  -->
<svg width="16" height="18" viewBox="0 0 16 18" fill="none" xmlns="http://www.w3.org/2000/svg">
<path d="M15.2538 7.61151C15.3498 8.16657 15.4021 8.7469 15.4021 9.35249C15.4021 14.0894 12.4643 17.4577 8.02707 17.4577C7.01799 17.458 6.01875 17.2438 5.08642 16.8272C4.1541 16.4107 3.30698 15.7999 2.59346 15.03C1.87993 14.26 1.314 13.3458 0.927981 12.3397C0.541968 11.3336 0.343443 10.2553 0.34375 9.16635C0.343443 8.07742 0.541968 6.9991 0.927981 5.99299C1.314 4.98689 1.87993 4.07273 2.59346 3.30274C3.30698 2.53275 4.1541 1.92203 5.08642 1.50547C6.01875 1.0889 7.01799 0.874668 8.02707 0.875C10.1017 0.875 11.8352 1.69874 13.1651 3.03628L10.9992 5.37359V5.36769C10.193 4.53889 9.16973 4.11355 8.02707 4.11355C5.49198 4.11355 3.43144 6.42475 3.43144 9.1613C3.43144 11.897 5.49198 14.2133 8.02707 14.2133C10.3272 14.2133 11.8929 12.794 12.2145 10.845H8.02707V7.61151H15.2546H15.2538Z" fill="black"/>
</svg>
