<svg width="19" height="19" viewBox="0 0 19 19" fill="none" xmlns="http://www.w3.org/2000/svg">
<path d="M12.1952 0.862254C12.4555 0.601905 12.8776 0.601905 13.138 0.862254L18.138 5.86225C18.3983 6.1226 18.3983 6.54471 18.138 6.80506L13.138 11.8051C12.8776 12.0654 12.4555 12.0654 12.1952 11.8051C11.9348 11.5447 11.9348 11.1226 12.1952 10.8623L16.0566 7.00033H4.99992C3.20742 7.00033 1.74537 8.4152 1.66967 10.1891L1.66659 10.3337V18.0003C1.66659 18.3685 1.36811 18.667 0.999919 18.667C0.631729 18.667 0.333252 18.3685 0.333252 18.0003V10.3337C0.333252 7.75633 2.42259 5.66699 4.99992 5.66699H16.0566L12.1952 1.80506C11.9549 1.56474 11.9364 1.18659 12.1397 0.925059L12.1952 0.862254Z" fill="#242424"/>
</svg>
