<svg width="22" height="16" viewBox="0 0 22 16" fill="none" xmlns="http://www.w3.org/2000/svg">
<path d="M20.8504 12.8033L11.6504 5.90332L13.9504 4.17832C14.0173 4.12811 14.0717 4.063 14.1091 3.98815C14.1465 3.91329 14.166 3.83076 14.166 3.74707C14.166 2.8416 13.8063 1.97322 13.1661 1.33296C12.5258 0.692703 11.6574 0.333008 10.752 0.333008C9.84649 0.333008 8.97811 0.692703 8.33785 1.33296C7.69759 1.97322 7.33789 2.8416 7.33789 3.74707C7.33789 3.89004 7.39468 4.02715 7.49578 4.12824C7.59687 4.22934 7.73398 4.28613 7.87695 4.28613C8.01992 4.28613 8.15703 4.22934 8.25813 4.12824C8.35922 4.02715 8.41602 3.89004 8.41602 3.74707C8.42295 3.15491 8.65453 2.58748 9.06392 2.15958C9.47331 1.73168 10.0299 1.47523 10.6212 1.44213C11.2125 1.40903 11.7943 1.60174 12.2489 1.98127C12.7035 2.36081 12.9969 2.89884 13.0699 3.48652L10.4375 5.46309L10.4195 5.48105L0.653516 12.8033C0.442321 12.9617 0.286318 13.1825 0.207604 13.4345C0.12889 13.6865 0.131456 13.9569 0.214937 14.2073C0.298419 14.4578 0.458585 14.6756 0.672747 14.83C0.886909 14.9843 1.14421 15.0674 1.4082 15.0674H20.0957C20.3597 15.0674 20.617 14.9843 20.8312 14.83C21.0453 14.6756 21.2055 14.4578 21.289 14.2073C21.3725 13.9569 21.375 13.6865 21.2963 13.4345C21.2176 13.1825 21.0616 12.9617 20.8504 12.8033ZM20.2664 13.8635C20.2579 13.9015 20.2359 13.9351 20.2045 13.9582C20.1732 13.9814 20.1345 13.9924 20.0957 13.9893H1.4082C1.36937 13.9924 1.33072 13.9814 1.29936 13.9582C1.268 13.9351 1.24603 13.9015 1.2375 13.8635C1.22315 13.8284 1.22159 13.7894 1.23308 13.7532C1.24458 13.7171 1.2684 13.6862 1.30039 13.6658L10.752 6.57715L20.2035 13.6658C20.2355 13.6862 20.2593 13.7171 20.2708 13.7532C20.2823 13.7894 20.2808 13.8284 20.2664 13.8635Z" fill="black"/>
</svg>
