<svg width="26" height="26" viewBox="0 0 26 26" fill="none" xmlns="http://www.w3.org/2000/svg">
<path d="M13.0008 0C5.8216 0 0 5.82007 0 13.0008C0 18.3225 3.20127 22.8966 7.78303 24.9069C7.74634 24.0004 7.77692 22.9088 8.00776 21.9212C8.25848 20.8663 9.68025 14.8384 9.68025 14.8384C9.68025 14.8384 9.26595 14.0082 9.26595 12.7806C9.26595 10.8544 10.3835 9.41577 11.7732 9.41577C12.9549 9.41577 13.5267 10.304 13.5267 11.368C13.5267 12.5559 12.7684 14.3339 12.3785 15.9804C12.0529 17.3609 13.0696 18.4845 14.4302 18.4845C16.893 18.4845 18.5518 15.3215 18.5518 11.5729C18.5518 8.72476 16.6332 6.59211 13.1429 6.59211C9.20021 6.59211 6.74346 9.53196 6.74346 12.8158C6.74346 13.9501 7.07673 14.7482 7.59958 15.3658C7.84112 15.6517 7.87323 15.7648 7.78609 16.092C7.72494 16.3289 7.58123 16.9068 7.52161 17.1346C7.43447 17.4633 7.16846 17.5825 6.87188 17.4602C5.05415 16.7188 4.20874 14.7298 4.20874 12.4932C4.20874 8.8012 7.32287 4.37079 13.4991 4.37079C18.4631 4.37079 21.7301 7.96496 21.7301 11.819C21.7301 16.919 18.8957 20.7288 14.7145 20.7288C13.3126 20.7288 11.9918 19.9705 11.5392 19.1098C11.5392 19.1098 10.784 22.1047 10.625 22.6825C10.3499 23.6839 9.81019 24.6868 9.3164 25.4665C10.4859 25.812 11.7212 26 13.0008 26C20.1799 26 26 20.1799 26 13.0008C26 5.82007 20.1799 0 13.0008 0Z" fill="white"/>
</svg>
