<svg width="48" height="48" viewBox="0 0 48 48" fill="none" xmlns="http://www.w3.org/2000/svg">
    <path fill-rule="evenodd" clip-rule="evenodd" d="M31.706 13.712h-5.934v-1.93C25.772 9.145 23.693 7 21.138 7c-2.556 0-4.635 2.145-4.635 4.782v1.93H10.57A.582.582 0 0 0 10 14.3v21.813c0 .322.258.588.57.588h11.87a9.584 9.584 0 0 1-1.062-4.4 9.625 9.625 0 0 1 10.897-9.542v-8.46a.581.581 0 0 0-.57-.586zm-14.064-1.93c0-1.99 1.568-3.606 3.496-3.606s3.496 1.617 3.496 3.607v1.93h-6.992V11.782z" fill="#000"/>
    <path d="M31.003 24.6a7.7 7.7 0 1 0 0 15.4 7.7 7.7 0 0 0 0-15.4zm3.401 8.384h-2.717v2.717a.684.684 0 1 1-1.369 0v-2.717h-2.716a.684.684 0 0 1 0-1.368h2.716v-2.717a.685.685 0 0 1 1.37 0v2.717h2.716a.684.684 0 1 1 0 1.368z" fill="#000"/>
</svg>
