<svg width="14" height="14" viewBox="0 0 14 14" fill="none" xmlns="http://www.w3.org/2000/svg">
<path d="M7.02287 13.0457C10.3492 13.0457 13.0457 10.3492 13.0457 7.02284C13.0457 3.69651 10.3492 0.999982 7.02287 0.999982C3.69654 0.999982 1.00001 3.69651 1.00001 7.02284C1.00001 10.3492 3.69654 13.0457 7.02287 13.0457ZM7.00001 0.199982C10.7555 0.199982 13.8 3.24445 13.8 6.99998C13.8 10.7555 10.7555 13.8 7.00001 13.8C3.24448 13.8 0.200012 10.7555 0.200012 6.99998C0.200012 3.24445 3.24448 0.199982 7.00001 0.199982ZM7.00001 6.59998C6.66864 6.59998 6.40001 6.86861 6.40001 7.19998V9.99998C6.40001 10.3314 6.66864 10.6 7.00001 10.6C7.33138 10.6 7.60001 10.3314 7.60001 9.99998V7.19998C7.60001 6.86861 7.33138 6.59998 7.00001 6.59998ZM7.00001 3.79998C6.66864 3.79998 6.40001 4.06861 6.40001 4.39998V5.19998C6.40001 5.53135 6.66864 5.79998 7.00001 5.79998C7.33138 5.79998 7.60001 5.53135 7.60001 5.19998V4.39998C7.60001 4.06861 7.33138 3.79998 7.00001 3.79998Z" fill="#333333"/>
</svg>
