<svg width="24" height="24" viewBox="0 0 24 24" fill="none" xmlns="http://www.w3.org/2000/svg">
    <mask id="mamrdeba2a" style="mask-type:alpha" maskUnits="userSpaceOnUse" x="6" y="6" width="13" height="13">
        <path d="M6.334 6.334c.21-.21.55-.21.76 0l5.259 5.26 5.26-5.26a.537.537 0 0 1 .709-.045l.05.045c.21.21.21.55 0 .76l-5.26 5.26 5.26 5.259a.537.537 0 0 1 .045.709l-.045.05c-.21.21-.55.21-.76 0l-5.259-5.26-5.26 5.26a.537.537 0 0 1-.709.045l-.05-.045a.537.537 0 0 1 0-.76l5.26-5.259-5.26-5.26a.537.537 0 0 1-.045-.708l.045-.05z" fill="#fff"/>
    </mask>
    <g mask="url(#mamrdeba2a)">
        <path d="M6.334 6.334c.21-.21.55-.21.76 0l5.259 5.26 5.26-5.26a.537.537 0 0 1 .709-.045l.05.045c.21.21.21.55 0 .76l-5.26 5.26 5.26 5.259a.537.537 0 0 1 .045.709l-.045.05c-.21.21-.55.21-.76 0l-5.259-5.26-5.26 5.26a.537.537 0 0 1-.709.045l-.05-.045a.537.537 0 0 1 0-.76l5.26-5.259-5.26-5.26a.537.537 0 0 1-.045-.708l.045-.05z" fill="#333"/>
    </g>
</svg>
