<svg width="14" height="14" viewBox="0 0 14 14" fill="none" xmlns="http://www.w3.org/2000/svg">
<path d="M0.178283 0.178283C0.415993 -0.0594276 0.801398 -0.0594276 1.03911 0.178283L7 6.139L12.9609 0.178283C13.1803 -0.0411422 13.5256 -0.0580209 13.7644 0.127646L13.8217 0.178283C14.0594 0.415993 14.0594 0.801398 13.8217 1.03911L7.861 7L13.8217 12.9609C14.0411 13.1803 14.058 13.5256 13.8724 13.7644L13.8217 13.8217C13.584 14.0594 13.1986 14.0594 12.9609 13.8217L7 7.861L1.03911 13.8217C0.819684 14.0411 0.474412 14.058 0.235626 13.8724L0.178283 13.8217C-0.0594276 13.584 -0.0594276 13.1986 0.178283 12.9609L6.139 7L0.178283 1.03911C-0.0411422 0.819684 -0.0580209 0.474412 0.127646 0.235626L0.178283 0.178283Z" fill="#333333"/>
</svg>
