<svg width="48" height="48" viewBox="0 0 48 48" fill="none" xmlns="http://www.w3.org/2000/svg">
<mask id="mask0_113_1111" style="mask-type:alpha" maskUnits="userSpaceOnUse" x="9" y="8" width="30" height="31">
<path d="M21.0348 8C27.6853 8 33.0696 13.6002 33.0696 20.4998C33.0696 23.5858 31.9925 26.4118 30.2066 28.5931L38.7121 37.2856C39.0959 37.6777 39.096 38.3135 38.7124 38.7058C38.3288 39.098 37.7067 39.0981 37.323 38.706L28.8269 30.0262C26.7279 31.8803 24.0079 32.9995 21.0348 32.9995C14.3843 32.9995 9 27.3993 9 20.4998C9 13.6002 14.3843 8 21.0348 8ZM21.0348 10.0084C15.4772 10.0084 10.9649 14.7017 10.9649 20.4998C10.9649 26.2978 15.4772 30.9911 21.0348 30.9911C23.7778 30.9911 26.2661 29.8479 28.083 27.9928L28.1504 27.9133C28.1702 27.893 28.1908 27.8737 28.2119 27.8555C30.0012 25.9642 31.1048 23.3671 31.1048 20.4998C31.1048 14.7017 26.5924 10.0084 21.0348 10.0084Z" fill="white"/>
</mask>
<g mask="url(#mask0_113_1111)">
<path d="M21.0348 8C27.6853 8 33.0696 13.6002 33.0696 20.4998C33.0696 23.5858 31.9925 26.4118 30.2066 28.5931L38.7121 37.2856C39.0959 37.6777 39.096 38.3135 38.7124 38.7058C38.3288 39.098 37.7067 39.0981 37.323 38.706L28.8269 30.0262C26.7279 31.8803 24.0079 32.9995 21.0348 32.9995C14.3843 32.9995 9 27.3993 9 20.4998C9 13.6002 14.3843 8 21.0348 8ZM21.0348 10.0084C15.4772 10.0084 10.9649 14.7017 10.9649 20.4998C10.9649 26.2978 15.4772 30.9911 21.0348 30.9911C23.7778 30.9911 26.2661 29.8479 28.083 27.9928L28.1504 27.9133C28.1702 27.893 28.1908 27.8737 28.2119 27.8555C30.0012 25.9642 31.1048 23.3671 31.1048 20.4998C31.1048 14.7017 26.5924 10.0084 21.0348 10.0084Z" fill="#333333"/>
</g>
</svg>
