<svg width="48" height="48" viewBox="0 0 48 48" fill="none" xmlns="http://www.w3.org/2000/svg">
<path fill-rule="evenodd" clip-rule="evenodd" d="M42.3301 29.82C41.5701 30.15 33.0001 32.9 32.7201 32.99C32.6901 33 32.6401 33.01 32.6601 32.98C32.6801 32.95 32.7101 32.91 32.7301 32.88C32.7401 32.86 32.7501 32.84 32.7701 32.82C32.7901 32.79 32.8001 32.76 32.8101 32.73C32.8201 32.71 32.8301 32.7 32.8301 32.68C32.8501 32.63 32.8701 32.59 32.8801 32.54C32.8901 32.52 32.8901 32.51 32.9001 32.49C32.9101 32.45 32.9301 32.4 32.9401 32.36C32.9401 32.35 32.9401 32.34 32.9501 32.34C32.9601 32.29 32.9701 32.23 32.9801 32.18C32.9801 32.17 32.9801 32.15 32.9801 32.14C32.9901 32.08 32.9901 32.03 32.9901 31.97C32.9901 31.96 32.9901 31.95 32.9901 31.94C32.9901 31.93 32.9901 31.92 32.9901 31.91C32.9901 30.89 32.1801 30.09 31.0501 30.07H23.5201C22.9201 29.79 22.4101 29.54 22.0601 29.36C16.8001 26.6 11.3901 27.7 11.3901 27.7V38.2H14.1301L27.2101 42.2C27.2101 42.2 40.2001 35.64 44.1501 32.9C46.0901 31.56 45.0301 28.66 42.3301 29.82Z" stroke="black" stroke-width="1.5" stroke-miterlimit="10"/>
<path d="M32.7401 32.82C32.3101 33.6 31.2101 33.74 31.2101 33.74H21.4701C19.3301 33.74 19.3301 35.7 19.3301 35.7" stroke="black" stroke-width="1.5" stroke-miterlimit="10" stroke-linecap="round" stroke-linejoin="round"/>
<path d="M7.5001 40.97C4.9301 40.97 2.8501 38.89 2.8501 36.32V29.31C2.8501 26.74 4.9301 24.66 7.5001 24.66C10.0701 24.66 12.1501 26.74 12.1501 29.31V36.32C12.1501 38.89 10.0701 40.97 7.5001 40.97Z" fill="black"/>
<path d="M32.16 7.22999C30.26 5.32999 27.17 5.32999 25.26 7.22999L24 8.48999L22.74 7.22999C20.84 5.32999 17.75 5.32999 15.84 7.22999C13.94 9.12999 13.94 12.22 15.84 14.13L17.1 15.39L24 22.29L30.9 15.39L32.16 14.13C34.06 12.22 34.06 9.12999 32.16 7.22999Z" stroke="black" stroke-width="1.5" stroke-miterlimit="10"/>
</svg>