<svg width="21" height="24" viewBox="0 0 21 24" fill="none" xmlns="http://www.w3.org/2000/svg">
<path d="M20.9992 9.84202C18.935 9.84696 16.9214 9.20321 15.2429 8.00171V16.3813C15.2424 17.9333 14.768 19.4482 13.8832 20.7233C12.9985 21.9984 11.7456 22.973 10.2919 23.5168C8.83834 24.0606 7.25336 24.1477 5.74893 23.7664C4.24451 23.3851 2.89235 22.5536 1.87326 21.383C0.854173 20.2125 0.216732 18.7587 0.0461706 17.2161C-0.12439 15.6735 0.180059 14.1156 0.91881 12.7507C1.65756 11.3858 2.7954 10.279 4.18018 9.57823C5.56497 8.87746 7.13069 8.61616 8.66798 8.82927V13.0439C7.96451 12.8227 7.20911 12.8293 6.50966 13.063C5.8102 13.2966 5.20246 13.7453 4.77322 14.345C4.34399 14.9446 4.1152 15.6646 4.11955 16.402C4.12389 17.1395 4.36114 17.8567 4.79741 18.4512C5.23368 19.0458 5.84666 19.4873 6.54882 19.7127C7.25098 19.9381 8.00641 19.9359 8.70722 19.7063C9.40804 19.4768 10.0184 19.0316 10.4511 18.4345C10.8839 17.8374 11.1169 17.1188 11.1169 16.3813V0H15.2429C15.2401 0.348435 15.2693 0.696395 15.3301 1.03948C15.4735 1.80537 15.7716 2.53396 16.2062 3.18068C16.6409 3.8274 17.2028 4.37867 17.8578 4.80075C18.7896 5.41688 19.8821 5.74528 20.9992 5.74505V9.84202Z" fill="white"/>
</svg>
