<svg width="27" height="22" viewBox="0 0 27 22" fill="none" xmlns="http://www.w3.org/2000/svg">
<path d="M26.004 2.56534C25.0485 3.00046 24.0198 3.29472 22.9407 3.42619C24.0427 2.75003 24.8883 1.67788 25.2866 0.400687C24.2548 1.02676 23.1147 1.48223 21.8967 1.7264C20.9259 0.663639 19.5385 0 18.003 0C15.0587 0 12.67 2.44952 12.67 5.47033C12.67 5.89919 12.7158 6.31553 12.8074 6.71621C8.37342 6.4877 4.44313 4.31209 1.81022 0.998589C1.3508 1.80935 1.08827 2.75003 1.08827 3.75175C1.08827 5.64876 2.03001 7.3235 3.46171 8.30488C2.58865 8.27827 1.76443 8.0294 1.04401 7.62246V7.68976C1.04401 10.3412 2.88323 12.5528 5.32535 13.0537C4.87813 13.182 4.4065 13.2462 3.9196 13.2462C3.57618 13.2462 3.24039 13.2133 2.91528 13.1491C3.5945 15.3216 5.56346 16.904 7.89873 16.9463C6.07325 18.4144 3.77155 19.2894 1.27295 19.2894C0.842531 19.2894 0.416687 19.2643 0 19.2142C2.36122 20.7638 5.16661 21.67 8.17805 21.67C17.9923 21.67 23.3574 13.3354 23.3574 6.10579C23.3574 5.86788 23.3528 5.62997 23.3436 5.39676C24.3861 4.62512 25.2912 3.66254 26.004 2.56534Z" fill="white"/>
</svg>
