<svg width="27" height="19" viewBox="0 0 27 19" fill="none" xmlns="http://www.w3.org/2000/svg">
<path d="M10.3174 12.6068L10.3166 5.24848L17.3427 8.94033L10.3174 12.6068ZM25.7447 3.97339C25.7447 3.97339 25.4903 2.16879 24.711 1.37411C23.722 0.330638 22.6135 0.325728 22.1056 0.265165C18.4666 -1.78814e-07 13.008 0 13.008 0H12.9967C12.9967 0 7.53811 -1.78814e-07 3.89908 0.265165C3.39036 0.325728 2.28273 0.330638 1.29292 1.37411C0.513592 2.16879 0.260047 3.97339 0.260047 3.97339C0.260047 3.97339 0 6.09308 0 8.21195V10.1991C0 12.3187 0.260047 14.4376 0.260047 14.4376C0.260047 14.4376 0.513592 16.2422 1.29292 17.0369C2.28273 18.0804 3.58215 18.0476 4.16075 18.1565C6.24113 18.3578 13.0024 18.42 13.0024 18.42C13.0024 18.42 18.4666 18.4118 22.1056 18.1467C22.6135 18.0853 23.722 18.0804 24.711 17.0369C25.4903 16.2422 25.7447 14.4376 25.7447 14.4376C25.7447 14.4376 26.0047 12.3187 26.0047 10.1991V8.21195C26.0047 6.09308 25.7447 3.97339 25.7447 3.97339Z" fill="white"/>
</svg>
