<?xml version="1.0" encoding="UTF-8"?>
<svg width="27px" height="27px" viewBox="0 0 27 27" version="1.1" xmlns="http://www.w3.org/2000/svg" xmlns:xlink="http://www.w3.org/1999/xlink">
    <!-- Generator: Sketch 52.4 (67378) - http://www.bohemiancoding.com/sketch -->
    <title>Email_icon</title>
    <desc>Created with Sketch.</desc>
    <g id="UAE" stroke="none" stroke-width="1" fill="none" fill-rule="evenodd">
        <g id="PDP-icons" transform="translate(-1038.000000, -758.000000)">
            <g id="Default" transform="translate(868.000000, 758.000000)">
                <g id="Email_icon" transform="translate(170.000000, 0.000000)">
                    <rect id="Rectangle" fill="#999999" fill-rule="nonzero" x="0" y="0" width="27" height="27" rx="13.5"></rect>
                    <g id="if_aiga_mail_134146" transform="translate(6.000000, 8.000000)" stroke="#FFFFFF" stroke-width="1.12152442">
                        <path d="M14.9650061,9.95121951 L14.9650061,0.848780488 C14.9650061,0.545697393 14.7193087,0.3 14.4162256,0.3 L0.560762195,0.3 C0.257679101,0.3 0.0119817073,0.545697393 0.0119817073,0.848780488 L0.0119817073,9.95121951 C0.0119817073,10.2543026 0.257679101,10.5 0.560762195,10.5 L14.4162256,10.5 C14.7193087,10.5 14.9650061,10.2543026 14.9650061,9.95121951 Z" id="path2451"></path>
                        <path d="M0.151079268,0.151504967 L6.60181098,6.6592798 C7.07994512,7.13898179 7.94998171,7.13329967 8.41801829,6.66365066 L14.8643232,0.20388245" id="path2455"></path>
                        <path d="M0.372603659,10.6079156 L5.31510366,5.57756457" id="path2457"></path>
                        <path d="M14.5477134,10.5499288 L9.73845732,5.64731623" id="path2459"></path>
                    </g>
                </g>
            </g>
        </g>
    </g>
</svg>