<?xml version="1.0" encoding="UTF-8"?>
<svg width="27px" height="27px" viewBox="0 0 27 27" version="1.1" xmlns="http://www.w3.org/2000/svg" xmlns:xlink="http://www.w3.org/1999/xlink">
    <!-- Generator: Sketch 52.4 (67378) - http://www.bohemiancoding.com/sketch -->
    <title>Facebook_icon</title>
    <desc>Created with Sketch.</desc>
    <g id="UAE" stroke="none" stroke-width="1" fill="none" fill-rule="evenodd">
        <g id="PDP-icons" transform="translate(-868.000000, -798.000000)">
            <g id="Hover" transform="translate(868.000000, 798.000000)">
                <g id="Facebook_icon">
                    <rect id="Rectangle" fill="#365FA1" fill-rule="nonzero" x="0" y="0" width="27" height="27" rx="13.5"></rect>
                    <path d="M16.5473333,11.4694286 L14.3175417,11.4694286 L14.3175417,10.0368571 C14.3175417,9.49885714 14.6815417,9.37342857 14.9379167,9.37342857 C15.1937083,9.37342857 16.5114583,9.37342857 16.5114583,9.37342857 L16.5114583,7.00828571 L14.344375,7 C11.9387083,7 11.39125,8.764 11.39125,9.89285714 L11.39125,11.4694286 L10,11.4694286 L10,13.9065714 L11.39125,13.9065714 C11.39125,17.0342857 11.39125,20.8028571 11.39125,20.8028571 L14.3175417,20.8028571 C14.3175417,20.8028571 14.3175417,16.9971429 14.3175417,13.9065714 L16.292125,13.9065714 L16.5473333,11.4694286 Z" id="Path" fill="#FFFFFF"></path>
                </g>
            </g>
        </g>
    </g>
</svg>