<?xml version="1.0" encoding="UTF-8"?>
<svg width="27px" height="27px" viewBox="0 0 27 27" version="1.1" xmlns="http://www.w3.org/2000/svg" xmlns:xlink="http://www.w3.org/1999/xlink">
    <!-- Generator: Sketch 52.4 (67378) - http://www.bohemiancoding.com/sketch -->
    <title>Instagram_icon</title>
    <desc>Created with Sketch.</desc>
    <g id="UAE" stroke="none" stroke-width="1" fill="none" fill-rule="evenodd">
        <g id="PDP-icons" transform="translate(-936.000000, -798.000000)">
            <g id="Hover" transform="translate(868.000000, 798.000000)">
                <g id="Instagram_icon" transform="translate(68.000000, 0.000000)">
                    <rect id="Rectangle" fill="#34648C" fill-rule="nonzero" x="0" y="0" width="27" height="27" rx="13.5"></rect>
                    <g id="Group" transform="translate(6.000000, 6.000000)" fill="#FFFFFF">
                        <path d="M7.56,3.73529412 C5.46,3.73529412 3.72,5.41176471 3.72,7.5 C3.72,9.58823529 5.43,11.2647059 7.56,11.2647059 C9.69,11.2647059 11.4,9.55882353 11.4,7.5 C11.4,5.44117647 9.66,3.73529412 7.56,3.73529412 Z M7.56,9.91176471 C6.21,9.91176471 5.1,8.82352941 5.1,7.5 C5.1,6.17647059 6.21,5.08823529 7.56,5.08823529 C8.91,5.08823529 10.02,6.17647059 10.02,7.5 C10.02,8.82352941 8.91,9.91176471 7.56,9.91176471 Z" id="Shape" fill-rule="nonzero"></path>
                        <ellipse id="Oval" cx="11.55" cy="3.64705882" rx="1" ry="1"></ellipse>
                        <path d="M13.8,1.44117647 C13.02,0.647058824 11.91,0.235294118 10.65,0.235294118 L4.47,0.235294118 C1.86,0.235294118 0.12,1.94117647 0.12,4.5 L0.12,10.5294118 C0.12,11.7941176 0.54,12.8823529 1.38,13.6764706 C2.19,14.4411765 3.27,14.8235294 4.5,14.8235294 L10.62,14.8235294 C11.91,14.8235294 12.99,14.4117647 13.77,13.6764706 C14.58,12.9117647 15,11.8235294 15,10.5588235 L15,4.5 C15,3.26470588 14.58,2.20588235 13.8,1.44117647 Z M13.68,10.5588235 C13.68,11.4705882 13.35,12.2058824 12.81,12.7058824 C12.27,13.2058824 11.52,13.4705882 10.62,13.4705882 L4.5,13.4705882 C3.6,13.4705882 2.85,13.2058824 2.31,12.7058824 C1.77,12.1764706 1.5,11.4411765 1.5,10.5294118 L1.5,4.5 C1.5,3.61764706 1.77,2.88235294 2.31,2.35294118 C2.82,1.85294118 3.6,1.58823529 4.5,1.58823529 L10.68,1.58823529 C11.58,1.58823529 12.33,1.85294118 12.87,2.38235294 C13.38,2.91176471 13.68,3.64705882 13.68,4.5 L13.68,10.5588235 Z" id="Shape" fill-rule="nonzero"></path>
                    </g>
                </g>
            </g>
        </g>
    </g>
</svg>