<?xml version="1.0" encoding="UTF-8"?>
<svg width="27px" height="27px" viewBox="0 0 27 27" version="1.1" xmlns="http://www.w3.org/2000/svg" xmlns:xlink="http://www.w3.org/1999/xlink">
    <!-- Generator: Sketch 52.4 (67378) - http://www.bohemiancoding.com/sketch -->
    <title>Pinterest_icon</title>
    <desc>Created with Sketch.</desc>
    <g id="UAE" stroke="none" stroke-width="1" fill="none" fill-rule="evenodd">
        <g id="PDP-icons" transform="translate(-970.000000, -758.000000)">
            <g id="Default" transform="translate(868.000000, 758.000000)">
                <g id="Pinterest_icon" transform="translate(102.000000, 0.000000)">
                    <rect id="Rectangle" fill="#999999" fill-rule="nonzero" x="0" y="0" width="27" height="27" rx="13.5"></rect>
                    <path d="M13.8940007,6 C9.31104365,6 7,9.32602923 7,12.1002244 C7,13.7796302 7.62810732,15.2736115 8.97506357,15.8298847 C9.19601432,15.9220847 9.39402667,15.8332996 9.45811926,15.5857255 C9.50264674,15.4149848 9.60823084,14.9826693 9.65511962,14.8020256 C9.71954954,14.5571834 9.69458716,14.4718131 9.51613991,14.2577042 C9.12787379,13.7943139 8.87926203,13.1939895 8.87926203,12.3430178 C8.87926203,9.87547287 10.703202,7.66642943 13.6285225,7.66642943 C16.2188749,7.66642943 17.6420676,9.26866035 17.6420676,11.4080416 C17.6420676,14.2238975 16.4111526,16.6002669 14.5841767,16.6002669 C13.5748871,16.6002669 12.819944,15.7557833 13.0614718,14.7193871 C13.3512377,13.4821998 13.9128912,12.1476904 13.9128912,11.2540334 C13.9128912,10.4549669 13.4888681,9.7883951 12.612149,9.7883951 C11.5805958,9.7883951 10.7517775,10.8688424 10.7517775,12.3156992 C10.7517775,13.2373576 11.0594219,13.8609028 11.0594219,13.8609028 C11.0594219,13.8609028 10.0039182,18.3889467 9.81872438,19.1818666 C9.45036068,20.7612182 9.76340236,22.696735 9.79005138,22.8920624 C9.80556853,23.0081661 9.95264414,23.0361676 10.0194354,22.9487483 C10.1142249,22.8227417 11.3434532,21.2874411 11.7607297,19.7528235 C11.8791323,19.3188006 12.4390991,17.0691209 12.4390991,17.0691209 C12.7744045,17.7165697 13.754009,18.2854778 14.7956822,18.2854778 C17.8960766,18.2854778 20,15.4242048 20,11.594149 C20.0003373,8.6973619 17.576963,6 13.8940007,6 Z" id="Path" fill="#FFFFFF"></path>
                </g>
            </g>
        </g>
    </g>
</svg>