<?xml version="1.0" encoding="UTF-8"?>
<svg width="27px" height="27px" viewBox="0 0 27 27" version="1.1" xmlns="http://www.w3.org/2000/svg" xmlns:xlink="http://www.w3.org/1999/xlink">
    <!-- Generator: Sketch 52.4 (67378) - http://www.bohemiancoding.com/sketch -->
    <title>Twitter_icon</title>
    <desc>Created with Sketch.</desc>
    <g id="UAE" stroke="none" stroke-width="1" fill="none" fill-rule="evenodd">
        <g id="PDP-icons" transform="translate(-902.000000, -798.000000)">
            <g id="Hover" transform="translate(868.000000, 798.000000)">
                <g id="Twitter_icon" transform="translate(34.000000, 0.000000)">
                    <rect id="Rectangle" fill="#27AADE" fill-rule="nonzero" x="0" y="0" width="27" height="27" rx="13.5"></rect>
                    <path d="M19.80838,9.27143902 C19.33752,9.48741463 18.83078,9.63309756 18.29908,9.69829268 C18.84196,9.36292683 19.25822,8.83170732 19.45452,8.198 C18.94674,8.50895122 18.38462,8.73458537 17.78584,8.85639024 C17.30666,8.32946341 16.62364,8 15.86782,8 C14.41676,8 13.24026,9.21402439 13.24026,10.7116341 C13.24026,10.9238537 13.2634,11.1307073 13.30838,11.3295122 C11.12438,11.2162927 9.1879,10.1369512 7.8918,8.49634146 C7.6656,8.89663415 7.53612,9.36239024 7.53612,9.85980488 C7.53612,10.800439 7.99996,11.6305366 8.70508,12.1166829 C8.27452,12.1024634 7.86918,11.9803902 7.5148,11.7772927 C7.51454,11.788561 7.51454,11.8000976 7.51454,11.8116341 C7.51454,13.1251951 8.42038,14.2209024 9.62262,14.4704146 C9.40214,14.532122 9.16996,14.5653902 8.93024,14.5653902 C8.76072,14.5653902 8.59614,14.5484878 8.43572,14.516561 C8.77034,15.5937561 9.74066,16.3779756 10.89038,16.3997073 C9.99104,17.1270488 8.85822,17.5606098 7.62686,17.5606098 C7.41496,17.5606098 7.20566,17.5477317 7,17.5225122 C8.16324,18.2922439 9.54436,18.7408293 11.02818,18.7408293 C15.86184,18.7408293 18.50474,14.609122 18.50474,11.0258049 C18.50474,10.9082927 18.5024,10.7910488 18.49746,10.6746098 C19.0107,10.2930976 19.45634,9.81526829 19.80838,9.27143902 Z" id="Path" fill="#FFFFFF"></path>
                </g>
            </g>
        </g>
    </g>
</svg>