<?xml version="1.0" encoding="UTF-8"?>
<svg width="27px" height="27px" viewBox="0 0 27 27" version="1.1" xmlns="http://www.w3.org/2000/svg" xmlns:xlink="http://www.w3.org/1999/xlink">
    <!-- Generator: Sketch 52.4 (67378) - http://www.bohemiancoding.com/sketch -->
    <title>WhatsApp_icon</title>
    <desc>Created with Sketch.</desc>
    <g id="UAE" stroke="none" stroke-width="1" fill="none" fill-rule="evenodd">
        <g id="PDP-icons" transform="translate(-1004.000000, -758.000000)" fill-rule="nonzero">
            <g id="Default" transform="translate(868.000000, 758.000000)">
                <g id="WhatsApp_icon" transform="translate(136.000000, 0.000000)">
                    <rect id="Rectangle" fill="#999999" x="0" y="0" width="27" height="27" rx="13.5"></rect>
                    <path d="M14.1454222,20.5879111 C12.7681778,20.5879111 11.4743111,20.2359111 10.3486222,19.6181333 L6.55004047,20.5879111 L7.41777778,16.8183111 C6.70257778,15.6439111 6.29066667,14.2664889 6.29066667,12.7939556 C6.29066667,8.48942222 9.80728889,5 14.1456,5 C18.4840889,5 22,8.48942222 22,12.7939556 C22,17.0984889 18.4837333,20.5879111 14.1454222,20.5879111 Z M7.54168889,12.7939556 C7.54168889,14.2279111 8.00906667,15.5557333 8.79964444,16.6359111 L7.97457778,19.0693333 L10.5123556,18.2627556 C11.5550222,18.9473778 12.8040889,19.3466667 14.1456,19.3466667 C17.7866667,19.3466667 20.7493333,16.4074667 20.7493333,12.7941333 C20.7491556,9.18097778 17.7868444,6.24124444 14.1454222,6.24124444 C10.5038222,6.24124444 7.54168889,9.1808 7.54168889,12.7939556 Z M17.7427556,14.3660444 C17.5500444,14.2705778 16.6032,13.8081778 16.4272,13.7448889 C16.2506667,13.6810667 16.1219556,13.6490667 15.9937778,13.8401778 C15.8656,14.0314667 15.4965333,14.4615111 15.384,14.5889778 C15.2716444,14.7168 15.1594667,14.7328 14.9667556,14.6371556 C14.7744,14.5416889 14.1541333,14.3397333 13.4186667,13.6888889 C12.8464,13.1827556 12.4599111,12.5575111 12.3475556,12.3662222 C12.2353778,12.1751111 12.3358222,12.0718222 12.432,11.9767111 C12.5187556,11.8910222 12.6247111,11.7536 12.7208889,11.6421333 C12.8174222,11.5304889 12.8494222,11.4510222 12.9132444,11.3233778 C12.9777778,11.1959111 12.9456,11.0844444 12.8972444,10.9886222 C12.8492444,10.8931556 12.4638222,9.95306667 12.3034667,9.57066667 C12.1431111,9.18826667 11.9829333,9.25191111 11.8704,9.25191111 C11.7582222,9.25191111 11.6296889,9.23591111 11.5013333,9.23591111 C11.3729778,9.23591111 11.1642667,9.28373333 10.9877333,9.47484444 C10.8113778,9.66613333 10.3141333,10.1283556 10.3141333,11.0682667 C10.3141333,12.0083556 11.0037333,12.9166222 11.1002667,13.0440889 C11.1964444,13.1713778 12.4318222,15.1632 14.3891556,15.9281778 C16.3466667,16.6926222 16.3466667,16.4375111 16.6997333,16.4055111 C17.0524444,16.3736889 17.8385778,15.9434667 17.9996444,15.4976 C18.1596444,15.0510222 18.1596444,14.6686222 18.1118222,14.5889778 C18.0632889,14.5095111 17.9351111,14.4615111 17.7427556,14.3660444 Z" id="Shape" fill="#FFFFFF"></path>
                </g>
            </g>
        </g>
    </g>
</svg>