<?xml version="1.0" encoding="UTF-8"?>
<svg width="38px" height="23px" viewBox="0 0 38 23" version="1.1" xmlns="http://www.w3.org/2000/svg" xmlns:xlink="http://www.w3.org/1999/xlink">
    <!-- Generator: sketchtool 51.1 (57501) - http://www.bohemiancoding.com/sketch -->
    <title>FA6E68A7-DFBA-4855-9C40-912E3309D6EA</title>
    <desc>Created with sketchtool.</desc>
    <defs></defs>
    <g id="Page-1" stroke="none" stroke-width="1" fill="none" fill-rule="evenodd">
        <g id="Logo" transform="translate(-40.000000, -483.000000)" fill="#E7529D">
            <g id="VS-Pink---Small" transform="translate(40.000000, 483.000000)">
                <path d="M25.1928,15.9026 L24.1448,18.1146 L24.1448,15.9026 L22.7228,15.9026 L22.7228,22.1206 L24.1448,22.1206 L24.1448,20.5836 L24.4638,19.9976 L25.2898,22.1206 L26.8178,22.1206 L25.3428,18.3816 L26.7018,15.9026 L25.1928,15.9026 Z M20.4578,15.9026 L20.4578,18.7096 L19.4988,15.9026 L18.1128,15.9026 L18.1128,22.1206 L19.2678,22.1206 L19.2678,19.3136 L20.2268,22.1206 L21.6128,22.1206 L21.6128,15.9026 L20.4578,15.9026 Z M15.5818,22.1206 L17.0028,22.1206 L17.0028,15.9026 L15.5818,15.9026 L15.5818,22.1206 Z M11.0948,15.9026 L11.0948,22.1206 L12.5168,22.1206 L12.5168,19.9886 L13.8038,19.9886 L14.5598,19.2256 L14.5598,16.6576 L13.8038,15.9026 L11.0948,15.9026 Z M12.5168,18.7806 L13.1378,18.7806 L13.1378,17.1106 L12.5168,17.1106 L12.5168,18.7806 Z" id="Fill-1"></path>
                <path d="M35.2665,0.0005 L34.5115,0.7555 L34.5115,2.9135 L35.2665,3.6675 L36.4925,3.6675 L36.4925,5.0095 L35.7725,5.0095 L35.7725,4.2285 L34.4315,4.2285 L34.4315,5.4635 L35.1865,6.2185 L37.1585,6.2185 L37.9125,5.4635 L37.9125,3.2165 L37.1585,2.4615 L35.9325,2.4615 L35.9325,1.2085 L36.4925,1.2085 L36.4925,1.9895 L37.8335,1.9895 L37.8335,0.7555 L37.0695,0.0005 L35.2665,0.0005 Z M32.1125,0.0005 L32.1125,1.4295 L31.5435,2.5315 L32.8665,2.5315 L33.5335,1.2175 L33.5335,0.0005 L32.1125,0.0005 Z M28.1155,0.0005 L27.1735,6.2185 L28.5145,6.2185 L28.6655,4.9035 L29.4565,4.9035 L29.6165,6.2185 L31.0915,6.2185 L30.1405,0.0005 L28.1155,0.0005 Z M29.0655,1.6075 L29.3225,3.7575 L28.7995,3.7575 L29.0655,1.6075 Z M24.8915,6.2185 L26.3115,6.2185 L26.3115,0.0005 L24.8915,0.0005 L24.8915,6.2185 Z M20.4315,0.0005 L20.4315,6.2185 L21.8525,6.2185 L21.8525,4.0865 L22.1995,4.0865 L22.6525,6.2185 L24.0555,6.2185 L23.4605,3.7305 L23.4965,3.7305 L23.8955,3.3225 L23.8955,0.7555 L23.1405,0.0005 L20.4315,0.0005 Z M21.8525,2.8785 L22.4745,2.8785 L22.4745,1.2085 L21.8525,1.2085 L21.8525,2.8785 Z M16.7005,0.0005 L15.9455,0.7555 L15.9455,5.4635 L16.7005,6.2185 L18.6545,6.2185 L19.4095,5.4635 L19.4095,0.7555 L18.6545,0.0005 L16.7005,0.0005 Z M17.3675,5.0105 L17.9885,5.0105 L17.9885,1.2085 L17.3675,1.2085 L17.3675,5.0105 Z M11.4675,0.0005 L11.4675,1.2085 L12.5525,1.2085 L12.5525,6.2185 L13.9735,6.2185 L13.9735,1.2085 L15.0575,1.2085 L15.0575,0.0005 L11.4675,0.0005 Z M7.9675,0.0005 L7.2135,0.7555 L7.2135,5.4635 L7.9675,6.2185 L9.8245,6.2185 L10.5795,5.4635 L10.5795,4.2275 L9.2825,4.2275 L9.2825,5.0095 L8.6335,5.0095 L8.6335,1.2085 L9.2825,1.2085 L9.2825,1.9895 L10.5795,1.9895 L10.5795,0.7555 L9.8245,0.0005 L7.9675,0.0005 Z M4.7705,6.2185 L6.1925,6.2185 L6.1925,0.0005 L4.7705,0.0005 L4.7705,6.2185 Z M2.5935,0.0005 L2.0345,4.6095 L1.4835,0.0005 L0.0005,0.0005 L0.9415,6.2185 L2.9675,6.2185 L3.9165,0.0005 L2.5935,0.0005 Z" id="Fill-2"></path>
                <path d="M31.5574,9.1596 L31.5574,7.9516 L27.9684,7.9516 L27.9684,9.1596 L29.0524,9.1596 L29.0524,14.1696 L30.4744,14.1696 L30.4744,9.1596 L31.5574,9.1596 Z M23.8374,14.1696 L27.1334,14.1696 L27.1334,12.9616 L25.2594,12.9616 L25.2594,11.6196 L26.8314,11.6196 L26.8314,10.4126 L25.2594,10.4126 L25.2594,9.1596 L27.1334,9.1596 L27.1334,7.9516 L23.8374,7.9516 L23.8374,14.1696 Z M23.0024,14.1696 L22.4084,11.6816 L22.4434,11.6816 L22.8434,11.2736 L22.8434,8.7066 L22.0884,7.9516 L19.3784,7.9516 L19.3784,14.1696 L20.7994,14.1696 L20.7994,12.0376 L21.1454,12.0376 L21.5994,14.1696 L23.0024,14.1696 Z M20.7994,10.8296 L21.4214,10.8296 L21.4214,9.1596 L20.7994,9.1596 L20.7994,10.8296 Z M17.6014,14.1696 L18.3564,13.4146 L18.3564,12.1796 L17.0594,12.1796 L17.0594,12.9616 L16.4114,12.9616 L16.4114,9.1596 L17.0594,9.1596 L17.0594,9.9406 L18.3564,9.9406 L18.3564,8.7066 L17.6014,7.9516 L15.7454,7.9516 L14.9904,8.7066 L14.9904,13.4146 L15.7454,14.1696 L17.6014,14.1696 Z M10.8154,14.1696 L14.1104,14.1696 L14.1104,12.9616 L12.2364,12.9616 L12.2364,11.6196 L13.8084,11.6196 L13.8084,10.4126 L12.2364,10.4126 L12.2364,9.1596 L14.1104,9.1596 L14.1104,7.9516 L10.8154,7.9516 L10.8154,14.1696 Z M9.0834,14.1696 L9.8374,13.4146 L9.8374,11.1676 L9.0834,10.4126 L7.8564,10.4126 L7.8564,9.1596 L8.4164,9.1596 L8.4164,9.9406 L9.7574,9.9406 L9.7574,8.7066 L8.9944,7.9516 L7.1904,7.9516 L6.4354,8.7066 L6.4354,10.8646 L7.1904,11.6196 L8.4164,11.6196 L8.4164,12.9616 L7.6974,12.9616 L7.6974,12.1806 L6.3554,12.1806 L6.3554,13.4146 L7.1114,14.1696 L9.0834,14.1696 Z" id="Fill-3"></path>
            </g>
        </g>
    </g>
</svg>
