<svg xmlns="http://www.w3.org/2000/svg" viewBox="0 0.84 18 15" fill="none"><path d="M9 9.763a4.27 4.27 0 0 0 3.005-1.233 4.19 4.19 0 0 0 1.245-2.977 4.19 4.19 0 0 0-1.245-2.978A4.27 4.27 0 0 0 9 1.342a4.27 4.27 0 0 0-3.006 1.233A4.19 4.19 0 0 0 4.75 5.553 4.19 4.19 0 0 0 5.994 8.53 4.27 4.27 0 0 0 9 9.763Zm0 15.158c1.004 0 1.999-.196 2.927-.577a7.657 7.657 0 0 0 2.482-1.643 7.577 7.577 0 0 0 1.658-2.459 7.519 7.519 0 0 0-1.658-8.26 7.655 7.655 0 0 0-2.482-1.642A7.712 7.712 0 0 0 9 9.763a7.687 7.687 0 0 0-5.41 2.22 7.543 7.543 0 0 0-2.24 5.359c0 2.01.806 3.938 2.24 5.36A7.687 7.687 0 0 0 9 24.92Z" stroke="#000" stroke-miterlimit="50"/></svg>