<svg xmlns="http://www.w3.org/2000/svg" width="38" height="38" viewBox="0 0 38 38">
    <g fill="none" fill-rule="evenodd">
        <circle cx="19" cy="19" r="19" fill="#FC9AD4" fill-opacity=".193"/>
        <g fill="#004990" fill-rule="nonzero">
            <path d="M22.484 1.397c-.93-.9-2.156-1.395-3.45-1.395-1.295 0-2.52.495-3.45 1.395l-.063.06c-1.515 1.465-1.94 3.735-1.056 5.648l1.563 3.388v11.412c0 1.154.94 2.093 2.094 2.093h1.624c1.155 0 2.094-.939 2.094-2.093V10.498l1.646-3.34c.956-1.941.554-4.256-1.002-5.761zm-1.581 20.508c0 .637-.52 1.156-1.157 1.156h-1.624c-.638 0-1.156-.519-1.156-1.156v-7.14h2.063v3.021c0 .259.21.469.468.469.26 0 .47-.21.47-.469v-3.02h.936v7.139zm-3.937-8.077v-2.98H20.903v2.98h-3.937zm5.679-7.084l-1.56 3.166h-.206l.378-2.266c.042-.256-.13-.497-.386-.54-.255-.042-.497.13-.54.386l-.403 2.42h-.525V7.567c0-.26-.21-.47-.469-.47s-.469.21-.469.47V9.91h-.389l-.403-2.42c-.043-.256-.284-.428-.54-.386-.255.043-.427.284-.385.54l.378 2.266h-.334l-1.476-3.198c-.716-1.552-.372-3.393.857-4.58l.062-.061c1.57-1.518 4.028-1.518 5.597 0 1.262 1.22 1.589 3.098.813 4.673zM6.28 15.004v-2.067c0-.383-.231-.713-.562-.858V9.183c0-.52-.284-.994-.742-1.24l-1.5-.803c-.44-.236-.958-.224-1.386.033-.428.256-.684.707-.684 1.206v3.7c-.33.145-.562.475-.562.858v2.067c-.473.048-.844.448-.844.933v6.655c0 .776.63 1.406 1.406 1.406h4.312c.775 0 1.406-.63 1.406-1.406v-6.655c0-.485-.37-.885-.844-.933zM2.343 8.38c0-.24.16-.361.228-.402.069-.041.251-.124.462-.011l1.5.804c.153.081.248.24.248.413V12H2.343V8.38zm-.562 4.558h3.562V15H1.781v-2.063zm4.406 9.655c0 .259-.21.47-.469.47h-.844v-3.563c0-.259-.21-.469-.468-.469-.26 0-.47.21-.47.47v3.561h-2.53c-.258 0-.469-.21-.469-.469v-6.655h5.25v6.655z" transform="translate(7 7)"/>
            <path d="M4.737 17.387c-.087-.088-.208-.138-.331-.138-.124 0-.244.05-.332.138-.087.087-.137.208-.137.331 0 .123.05.244.137.331.088.088.208.138.332.138.123 0 .244-.05.331-.138.087-.087.137-.208.137-.331 0-.123-.05-.244-.137-.331zM13.78 11.531h-2.156V6.938h.797c.259 0 .469-.21.469-.469 0-.258-.21-.468-.47-.468h-.796v-.563h.797c.259 0 .469-.21.469-.468 0-.26-.21-.47-.47-.47h-.796V3.94h.797c.259 0 .469-.21.469-.47 0-.258-.21-.468-.47-.468h-.796V2.44h.797c.259 0 .469-.21.469-.469s-.21-.469-.47-.469h-.796V.94h.797c.259 0 .469-.21.469-.469s-.21-.468-.47-.468H9.89c-.259 0-.469.21-.469.468 0 .259.21.469.469.469h.797V1.5H9.89c-.259 0-.469.21-.469.469s.21.469.469.469h.797V3H9.89c-.259 0-.469.21-.469.469s.21.469.469.469h.797V4.5H9.89c-.259 0-.469.21-.469.469 0 .258.21.468.469.468h.797v.563H9.89c-.259 0-.469.21-.469.468 0 .26.21.47.469.47h.797v4.592H8.53c-.259 0-.468.21-.468.469v5.235c0 2.306.631 4.566 1.826 6.538.085.14.237.225.4.225h1.733c.164 0 .316-.085.4-.225 1.196-1.972 1.827-4.232 1.827-6.538V12c0-.259-.21-.469-.468-.469zm-.47 5.704c0 2.047-.537 4.055-1.557 5.826h-1.197C9.536 21.291 9 19.281 9 17.235v-2.704h2.824c.259 0 .469-.21.469-.469s-.21-.468-.469-.468H9v-1.125h4.312v4.766zM19.829 19.095c-.087-.087-.208-.137-.331-.137-.124 0-.245.05-.332.137-.087.087-.137.208-.137.331 0 .124.05.245.137.332.087.087.208.137.332.137.123 0 .244-.05.33-.137.088-.087.138-.208.138-.332 0-.123-.05-.244-.137-.331z" transform="translate(7 7)"/>
        </g>
    </g>
</svg>
