<svg xmlns="http://www.w3.org/2000/svg" width="38" height="38" viewBox="0 0 38 38">
    <g fill="none" fill-rule="evenodd">
        <circle cx="19" cy="19" r="19" fill="#39B54A" fill-opacity=".115"/>
        <g fill="#004990" fill-rule="nonzero">
            <path d="M13.033 6.095V4.96h.057c.234 0 .418-.221.418-.462V.432c0-.115-.043-.225-.121-.307C13.308.045 13.2 0 13.09 0H2.36c-.11 0-.215.046-.29.127-.076.081-.117.192-.113.304v4.067c0 .24.17.462.403.462h.072v1.137c0 .002-.015.005-.02.008l-.064.032-.079.042-.062.036-.075.044-.061.038-.072.046-.06.041-.069.048-.06.044-.066.05-.059.046-.064.053-.057.048-.062.055-.055.05-.06.058-.053.052-.059.06-.05.053c-.02.02-.039.042-.058.063l-.048.054c-.02.022-.038.044-.056.067l-.045.054-.057.073-.04.052c-.024.031-.046.062-.069.094l-.038.054-.074.11-.033.054-.05.081-.036.06-.044.078-.034.064c-.014.026-.028.051-.04.076l-.034.067-.037.077-.03.068-.035.079-.029.07-.031.078c-.01.024-.018.048-.026.071l-.03.08-.023.073-.027.081-.021.073-.023.083-.02.073-.02.085-.017.073-.017.088-.014.072-.015.09-.012.072-.012.092-.008.07-.01.098-.005.066-.006.11.003.055c-.002.055.002.11.002.166v9.532c0 1.352 1.059 2.45 2.367 2.453h10.706c1.312-.003 2.376-1.099 2.381-2.454v-9.53c.003-.896-.251-1.772-.73-2.52-.42-.66-1.006-1.19-1.696-1.531zM2.8.872h9.864v3.216H2.8V.872zm11.815 18.803c-.004.875-.691 1.581-1.538 1.582H2.373c-.843-.001-1.526-.71-1.524-1.58v-9.531c-.001-.768.231-1.517.664-2.141.05-.072.1-.142.154-.21.027-.033.054-.08.082-.112.35-.398.776-.713 1.254-.924h.003c.16-.052.27-.205.269-.379V4.96h8.914v1.42c0 .18.105.34.266.406 1.293.528 2.16 1.878 2.16 3.36v9.529z" transform="translate(6 8)"/>
            <path d="M12.222 12.044H9.611V9.361c0-.242-.191-.438-.427-.438H6.573c-.235 0-.426.196-.426.438v2.683H3.589c-.236 0-.427.196-.427.438v2.52c0 .241.191.437.427.437h2.558v2.683c0 .242.19.438.426.438h2.611c.236 0 .427-.196.427-.438V15.44h2.611c.236 0 .427-.196.427-.438v-2.519c0-.242-.191-.438-.427-.438zm-.426 2.52H9.184c-.235 0-.426.195-.426.437v2.683H7v-2.683c0-.242-.19-.438-.426-.438H4.015V12.92h2.558c.235 0 .426-.196.426-.438V9.8h1.76v2.683c0 .242.19.438.425.438h2.612v1.643zM24.5 15.187l-5.048-1.84c-1.178-.43-2.484.164-2.927 1.331-.443 1.168.144 2.472 1.314 2.923-1.205.135-2.093 1.182-2.024 2.386.068 1.203 1.07 2.144 2.282 2.143h5.378c.808 0 1.556-.422 1.968-1.114.411-.69.425-1.547.036-2.25.47-.57.635-1.33.44-2.041-.193-.711-.723-1.284-1.418-1.538zm.553 2.624c-.037.098-.084.193-.142.281-.406-.328-.913-.507-1.436-.506h-2.264l.873-2.37 2.12.774c.74.27 1.12 1.085.849 1.82zm-7.682-1.733c-.243-.52-.147-1.135.244-1.558.391-.422.999-.568 1.54-.37l2.122.773-.754 2.045c.08-.222-.034-.467-.256-.548l-1.718-.626c-.144-.054-.307-.027-.425.071-.119.098-.175.252-.149.403.027.152.133.277.279.329l1.717.626c.107.039.225.034.328-.013.104-.048.184-.135.223-.241l-.227.617h-.002l-2.12-.773c-.355-.129-.644-.393-.802-.735zm-.7 3.78c.001-.783.64-1.417 1.426-1.417h2.249v2.178c.001-.111-.042-.218-.121-.296-.08-.078-.187-.12-.298-.118h-1.83c-.237 0-.43.192-.43.428s.193.427.43.427h1.83c.237-.006.424-.202.419-.439v.653h-2.249c-.787 0-1.425-.634-1.426-1.416zm6.804 1.416h-2.27v-2.833h2.27c.787 0 1.425.634 1.425 1.417 0 .782-.638 1.416-1.425 1.416z" transform="translate(6 8)"/>
        </g>
    </g>
</svg>
