<svg xmlns="http://www.w3.org/2000/svg" width="18" height="18" viewBox="0 0 18 18">
    <g opacity=".233">
        <path d="M16.179 11.144c-.241 0-.437.206-.437.46v4.092c0 .763-.586 1.382-1.31 1.382H2.183c-.722 0-1.308-.619-1.309-1.382V3.689c.001-.763.587-1.382 1.31-1.383h3.876c.241 0 .437-.206.437-.46 0-.255-.196-.461-.437-.461H2.183C.978 1.386 0 2.417 0 3.689v12.007C.001 16.968.978 18 2.183 18h12.25c1.205-.001 2.181-1.032 2.182-2.304v-4.091c0-.255-.195-.461-.436-.461z"/>
        <path d="M16.825.622c-.83-.83-2.175-.83-3.004 0L5.4 9.042c-.058.058-.1.13-.122.208l-1.107 3.998c-.045.164 0 .34.121.46.12.12.296.166.46.121l3.998-1.107c.078-.022.15-.064.208-.122l8.42-8.42c.83-.83.83-2.174 0-3.004l-.553-.554zM5.538 10.098l7.33-7.329 2.363 2.364-7.33 7.329-2.363-2.364zm.768-.406l2.002 2.002-2.77.768.768-2.77zm9.998-5.99l-.452.452-2.006-2.006.452-.452c.416-.415 1.09-.415 1.506 0l.5.5c.415.416.415 1.09 0 1.506z"/>
    </g>
</svg>
