<svg xmlns="http://www.w3.org/2000/svg" width="24" height="24" viewBox="0 0 24 24">
    <g fill="#004990">
        <path d="M12.857 16.967c0 1.042.848 1.89 1.89 1.89h2.22c1.042 0 1.89-.848 1.89-1.89v-2.22c0-1.042-.848-1.89-1.89-1.89h-2.22c-1.042 0-1.89.848-1.89 1.89v2.22zm1.89-2.22h2.22l.002 2.22h-2.222v-2.22z"/>
        <circle cx="18" cy="9.429" r="1"/>
        <circle cx="13.714" cy="9.429" r="1"/>
        <path d="M23.063 16.5c.517 0 .937-.42.937-.938V5.626c0-2.068-1.682-3.75-3.75-3.75h-1.219V.937c0-.517-.42-.937-.937-.937-.518 0-.938.42-.938.938v.937h-4.265V.937c0-.517-.42-.937-.938-.937s-.937.42-.937.938v.937h-4.22V.937C6.797.42 6.378 0 5.86 0c-.517 0-.937.42-.937.938v.937H3.75C1.682 1.875 0 3.557 0 5.625V20.25C0 22.318 1.682 24 3.75 24h16.5c2.068 0 3.75-1.682 3.75-3.75 0-.518-.42-.938-.938-.938-.517 0-.937.42-.937.938 0 1.034-.841 1.875-1.875 1.875H3.75c-1.034 0-1.875-.841-1.875-1.875V5.625c0-1.034.841-1.875 1.875-1.875h1.172v.938c0 .517.42.937.937.937.518 0 .938-.42.938-.938V3.75h4.219v.938c0 .517.42.937.937.937.518 0 .938-.42.938-.938V3.75h4.265v.938c0 .517.42.937.938.937s.937-.42.937-.938V3.75h1.219c1.034 0 1.875.841 1.875 1.875v9.938c0 .517.42.937.938.937z"/>
        <circle cx="6" cy="18" r="1"/>
        <circle cx="6" cy="9.429" r="1"/>
        <circle cx="6" cy="13.714" r="1"/>
        <circle cx="10.286" cy="13.714" r="1"/>
        <circle cx="10.286" cy="9.429" r="1"/>
        <circle cx="10.286" cy="18" r="1"/>
    </g>
</svg>
