<svg xmlns="http://www.w3.org/2000/svg" width="24" height="23" viewBox="0 0 24 23">
    <g fill="#004990">
        <path d="M22.133 5.433h-2.545V.803c0-.442-.358-.8-.8-.8H5.212c-.442 0-.8.358-.8.8v4.63H1.867C.837 5.433 0 6.271 0 7.3v8.048c0 1.03.837 1.867 1.867 1.867h2.545v4.294c0 .442.358.8.8.8h13.576c.442 0 .8-.358.8-.8v-4.294h2.545c1.03 0 1.867-.837 1.867-1.867V7.3c0-1.03-.837-1.867-1.867-1.867zm-16.12-3.83h11.975v3.83H6.012v-3.83zM17.987 20.71H6.012v-6.545h11.976v6.545zm4.412-5.36c0 .146-.12.266-.267.266h-2.545v-2.25c0-.442-.358-.8-.8-.8H5.212c-.442 0-.8.358-.8.8v2.25H1.867c-.147 0-.267-.12-.267-.267V7.3c0-.147.12-.267.267-.267h20.266c.147 0 .267.12.267.267v8.048z"/>
        <path d="M18.788 8.53H16.75c-.441 0-.8.359-.8.8 0 .443.359.8.8.8h2.037c.442 0 .8-.357.8-.8 0-.441-.358-.8-.8-.8zM15.467 17.898H8.533c-.441 0-.8.359-.8.8 0 .442.358.8.8.8h6.934c.441 0 .8-.358.8-.8 0-.441-.359-.8-.8-.8zM15.467 15.375H8.533c-.441 0-.8.358-.8.8 0 .442.358.8.8.8h6.934c.441 0 .8-.358.8-.8 0-.442-.359-.8-.8-.8z"/>
    </g>
</svg>
