<svg xmlns="http://www.w3.org/2000/svg" xmlns:xlink="http://www.w3.org/1999/xlink" width="24" height="24" viewBox="0 0 24 24">
    <defs>
        <path id="prefix__a" d="M1.03 3.704h.58l1.356 11.33c.025.272.258.466.529.466h9.01c.271 0 .49-.194.53-.465l1.355-11.33h.58c.298 0 .53-.233.53-.53 0-.298-.232-.53-.53-.53h-4.053V1.03c0-.297-.232-.53-.529-.53H5.612c-.297 0-.53.233-.53.53v1.615H1.03c-.297 0-.529.232-.529.53 0 .297.245.53.53.53zM6.14 1.56H9.86v1.086H6.14V1.559zm7.177 2.145l-1.278 10.75H3.96L2.682 3.703h10.636zM6.244 5.435c-.296 0-.529.233-.529.53v6.344c0 .297.233.53.53.53.296 0 .529-.233.529-.53V5.965c0-.297-.233-.53-.53-.53zm3.512 0c-.297 0-.53.233-.53.53v6.344c0 .297.246.53.53.53.296 0 .529-.233.529-.53V5.965c0-.297-.233-.53-.53-.53z"/>
    </defs>
    <g fill="none" fill-rule="evenodd" transform="translate(4 4)">
        <mask id="prefix__b" fill="#fff">
            <use xlink:href="#prefix__a"/>
        </mask>
        <use fill="#000" xlink:href="#prefix__a"/>
        <g fill="#E51B23" mask="url(#prefix__b)">
            <path d="M0 0H24V24H0z" transform="translate(-4 -4)"/>
        </g>
    </g>
</svg>
