<svg xmlns="http://www.w3.org/2000/svg" width="16" height="16" viewBox="0 0 16 16">
    <g fill="#004990">
        <path d="M8.571 11.312c0 .694.566 1.26 1.26 1.26h1.48c.695 0 1.26-.566 1.26-1.26v-1.48c0-.695-.565-1.26-1.26-1.26h-1.48c-.694 0-1.26.565-1.26 1.26v1.48zm1.26-1.48h1.48l.001 1.48h-1.48v-1.48z"/>
        <circle cx="12" cy="6.286" r="1"/>
        <circle cx="9.143" cy="6.286" r="1"/>
        <path d="M15.375 11c.345 0 .625-.28.625-.625V3.75c0-1.378-1.121-2.5-2.5-2.5h-.813V.625c0-.345-.28-.625-.624-.625-.346 0-.626.28-.626.625v.625H8.595V.625C8.594.28 8.314 0 7.969 0s-.625.28-.625.625v.625H4.53V.625C4.531.28 4.251 0 3.906 0s-.625.28-.625.625v.625H2.5C1.121 1.25 0 2.372 0 3.75v9.75C0 14.879 1.121 16 2.5 16h11c1.379 0 2.5-1.121 2.5-2.5 0-.345-.28-.625-.625-.625s-.625.28-.625.625c0 .69-.56 1.25-1.25 1.25h-11c-.69 0-1.25-.56-1.25-1.25V3.75c0-.69.56-1.25 1.25-1.25h.781v.625c0 .345.28.625.625.625s.625-.28.625-.625V2.5h2.813v.625c0 .345.28.625.625.625s.625-.28.625-.625V2.5h2.844v.625c0 .345.28.625.624.625.346 0 .626-.28.626-.625V2.5h.812c.69 0 1.25.56 1.25 1.25v6.625c0 .345.28.625.625.625z"/>
        <circle cx="4" cy="12" r="1"/>
        <circle cx="4" cy="6.286" r="1"/>
        <circle cx="4" cy="9.143" r="1"/>
        <circle cx="6.857" cy="9.143" r="1"/>
        <circle cx="6.857" cy="6.286" r="1"/>
        <circle cx="6.857" cy="12" r="1"/>
    </g>
</svg>
