<svg width="24" height="24" xmlns="http://www.w3.org/2000/svg"><defs><path d="M10.416 13.941c.29 0 .525.235.525.525v1.774c0 .29-.235.525-.525.525h-.009a.525.525 0 0 1-.525-.525v-1.774c0-.29.235-.525.525-.525h.01zM4.48 7.384a.53.53 0 0 1 .047.695l-.047.054-2.21 2.207a2.647 2.647 0 0 0 3.642 3.84l.102-.096 2.208-2.209a.53.53 0 0 1 .796.695l-.047.054-2.209 2.209a3.706 3.706 0 0 1-5.346-5.131l.105-.11L3.73 7.384a.53.53 0 0 1 .749 0zm8.504 5.556 1.753 1.753a.525.525 0 0 1 0 .742l-.006.007a.525.525 0 0 1-.743 0l-1.753-1.754a.525.525 0 0 1 0-.742l.006-.006a.525.525 0 0 1 .743 0zm2.55-2.352c.29 0 .526.235.526.525v.01a.525.525 0 0 1-.525.524H13.76a.525.525 0 0 1-.525-.525v-.009c0-.29.235-.525.525-.525h1.774zM14.49 1.865a3.706 3.706 0 0 1 .106 5.131l-.106.11-2.208 2.209a.53.53 0 0 1-.796-.695l.047-.054 2.209-2.208a2.647 2.647 0 0 0-3.642-3.84l-.102.096L7.79 4.823a.53.53 0 0 1-.796-.695l.047-.054L9.25 1.865a3.706 3.706 0 0 1 5.24 0zM2.3 5.118c.29 0 .525.235.525.525v.008c0 .29-.236.525-.525.525H.525A.525.525 0 0 1 0 5.651v-.008c0-.29.235-.525.525-.525h1.774zm-.227-3.795 1.753 1.753a.525.525 0 0 1 0 .743l-.006.006a.525.525 0 0 1-.743 0L1.323 2.072a.525.525 0 0 1 0-.743l.006-.006a.525.525 0 0 1 .743 0zM5.652 0c.29 0 .524.235.524.525v1.774c0 .29-.235.525-.525.525h-.008a.525.525 0 0 1-.525-.525V.525c0-.29.235-.525.525-.525h.008z" id="a"/></defs><g transform="translate(4.059 3.53)" fill="none"><mask id="b" fill="#fff"><use href="#a"/></mask><use fill="#D8D8D8" href="#a"/><g mask="url(#b)" fill="#333"><path d="M19.941 20.47h-24v-24h24z"/></g></g></svg>
