<svg width="28" height="24" viewBox="0 0 28 24" xmlns="http://www.w3.org/2000/svg">
    <g stroke="#000" stroke-width="1.8" fill="none" fill-rule="evenodd">
        <path stroke-linecap="round" stroke-linejoin="round" d="m1 12.273 2.527-2.132L14.361 1 27 11.574"/>
        <path d="M3.527 10.141v11.105c.479 1.2 1.25 1.8 2.316 1.8h4.864c1.34-.53 2.01-1.13 2.01-1.8v-4.808c-.013-.306.11-.459.37-.459h2.69c.266.079.4.232.4.46v4.807c.15 1.2.83 1.8 2.037 1.8h4.665c.662-.047 1.149-.2 1.461-.458.47-.388 1.014-1.042 1.014-1.648V10.141"/>
    </g>
</svg>
