<svg width="25" height="26" viewBox="0 0 25 26" xmlns="http://www.w3.org/2000/svg" xmlns:xlink="http://www.w3.org/1999/xlink">
    <defs>
        <path d="m12.633 6.273 4.78 2.355c.543.265.885.81.885 1.405v5.61c0 .596-.342 1.14-.883 1.404l-4.781 2.355a1.616 1.616 0 0 1-1.427 0l-4.782-2.355a1.566 1.566 0 0 1-.876-1.41v-5.604c0-.596.342-1.14.883-1.405l4.782-2.355a1.616 1.616 0 0 1 1.419 0zm-6.289 4.002.001 5.364a.783.783 0 0 0 .438.706l4.741 2.335v-5.854l-5.18-2.55zm11.157-.188-5.18 2.55v6.04l4.738-2.332a.784.784 0 0 0 .443-.702v-5.556zM8.594 8.44l-1.806.89a.795.795 0 0 0-.232.171l5.176 2.55 2.096-1.033L8.594 8.44zm2.976-1.464L9.485 8l5.234 2.578 2.43-1.196a.805.805 0 0 0-.09-.053l-4.781-2.354a.807.807 0 0 0-.708 0z" id="5kbsxr3aua"/>
    </defs>
    <g transform="translate(.077 .516)" fill="#FFF" fill-rule="nonzero">
        <path d="M11.923 0c6.895 0 12.485 5.59 12.485 12.484 0 6.895-5.59 12.485-12.485 12.485-4.725 0-8.979-2.649-11.104-6.774a.443.443 0 0 1 .787-.406 11.597 11.597 0 0 0 10.317 6.294c6.406 0 11.6-5.193 11.6-11.599 0-6.406-5.194-11.599-11.6-11.599C7.62.885 3.734 3.25 1.72 6.965a.443.443 0 1 1-.779-.423A12.48 12.48 0 0 1 11.923 0z"/>
        <path d="m.84 3.829.026.067.732 2.39 2.426-.606a.443.443 0 0 1 .283.836l-.068.023-2.833.708-.048.01-.063.004-.071-.007-.067-.017-.059-.025-.038-.022-.062-.047-.036-.037-.039-.053-.038-.076L.02 4.155a.443.443 0 0 1 .784-.387l.036.06z"/>
        <use xlink:href="#5kbsxr3aua"/>
    </g>
</svg>
