<svg xmlns="http://www.w3.org/2000/svg" width="20" height="17" viewBox="0 0 20 17">
    <g fill="none" fill-rule="evenodd">
        <path stroke="#3680CB" stroke-linecap="round" stroke-width=".9" d="M10.426 6.882c-.36-.99.148-1.38.855-1.638a1.4 1.4 0 0 1 1.259.135 1.4 1.4 0 0 1 .877-.913c.708-.257 1.366-.233 1.708.706.342.938-1.408 3.442-1.408 3.442s-2.93-.742-3.29-1.732z"/>
        <path fill="#3680CB" d="M19.972 10.96a.562.562 0 0 0-.704-.344L10.42 13.46a2.391 2.391 0 0 0-2.026-1.094h-.099c-.04 0-.086.004-.127.008L4.654 2.11a.542.542 0 0 0-.28-.311L.804.057a.562.562 0 0 0-.745.24.53.53 0 0 0 .247.723l3.368 1.642 3.439 10.067a2.422 2.422 0 0 0-.478.388 2.266 2.266 0 0 0-.63 1.662C6.058 16.025 7.105 17 8.389 17h.099c1.313-.052 2.339-1.13 2.285-2.409a.817.817 0 0 0-.008-.1l8.853-2.844a.544.544 0 0 0 .354-.688zm-11.53 4.957c-.708.028-1.297-.503-1.325-1.182a1.204 1.204 0 0 1 .337-.887c.23-.244.544-.384.886-.396h.053c.684 0 1.244.52 1.273 1.187.024.675-.523 1.25-1.223 1.278zm.964-4.067L6.598 3.633a.538.538 0 0 1 .354-.684l4.274-1.374L15.5.197a.578.578 0 0 1 .425.032.542.542 0 0 1 .28.311l2.804 8.222a.53.53 0 0 1-.033.412.548.548 0 0 1-.321.271l-8.549 2.749a.557.557 0 0 1-.7-.344zm2.697-9.424l-1.054.34-3.22 1.038L10.287 11l7.495-2.409-2.459-7.199-3.22 1.035z"/>
    </g>
</svg>