<svg xmlns="http://www.w3.org/2000/svg" width="18" height="19" viewBox="0 0 18 19">
    <g fill="none" fill-rule="evenodd">
        <g fill="#000" fill-rule="nonzero">
            <g>
                <path d="M10.756 12.848c.622-.511 1.02-1.287 1.02-2.153 0-1.537-1.25-2.787-2.787-2.787-1.536 0-2.787 1.25-2.787 2.787 0 .866.398 1.642 1.02 2.153-1.274.647-2.15 1.97-2.15 3.494v1.13c0 .292.237.528.528.528h6.778c.291 0 .527-.236.527-.527v-1.13c0-1.525-.875-2.848-2.15-3.495zM8.989 8.963c.955 0 1.732.777 1.732 1.732s-.777 1.732-1.732 1.732-1.732-.777-1.732-1.732.777-1.732 1.732-1.732zm2.862 7.982H6.127v-.603c0-1.577 1.284-2.86 2.863-2.86 1.577 0 2.86 1.283 2.86 2.86v.603zM4.931 6.01l.932-1.087c.256-.3.105-.765-.278-.856l-1.393-.333-.747-1.222c-.198-.324-.687-.349-.9 0l-.747 1.222-1.393.333c-.383.091-.534.556-.278.856l.932 1.087-.115 1.428c-.03.387.359.683.728.529l1.323-.55 1.322.55c.364.15.76-.136.728-.53L4.931 6.01zm-.944-.52c-.09.107-.136.246-.125.386l.063.786-.727-.303c-.13-.054-.276-.054-.405 0l-.728.303.062-.786c.012-.14-.033-.279-.125-.385l-.512-.599.766-.183c.137-.033.255-.118.328-.238l.411-.673.41.673c.074.12.192.205.328.238l.767.183-.513.599zM16.941 6.01l.932-1.087c.256-.3.105-.765-.278-.856l-1.393-.333-.747-1.222c-.197-.324-.687-.349-.9 0l-.746 1.222-1.394.333c-.383.091-.534.556-.278.856l.932 1.087-.115 1.428c-.03.387.359.683.729.529l1.322-.55 1.323.55c.363.15.76-.136.728-.53L16.94 6.01zm-.943-.52c-.092.107-.137.246-.125.386l.062.786-.727-.303c-.13-.054-.276-.054-.405 0l-.728.303.063-.786c.011-.14-.034-.279-.125-.385l-.513-.599.767-.183c.136-.033.254-.118.327-.238l.411-.673.411.673c.073.12.191.205.328.238l.766.183-.512.599zM10.936 3.75l.932-1.087c.256-.299.105-.764-.278-.856l-1.393-.333L9.45.252c-.197-.323-.687-.349-.9 0l-.747 1.222-1.393.333c-.383.091-.534.557-.278.856l.932 1.088-.115 1.427c-.03.387.359.683.728.53L9 5.157l1.322.55c.364.15.76-.137.729-.53l-.115-1.427zm-.943-.519c-.092.107-.137.245-.126.385l.063.786-.727-.303c-.13-.053-.276-.053-.405 0l-.728.303.063-.786c.01-.14-.034-.278-.126-.385l-.512-.599.767-.183c.136-.032.254-.118.327-.238L9 1.54l.411.672c.073.12.191.206.328.238l.766.183-.512.6z" transform="translate(-640 -780) translate(640 780.5)"/>
            </g>
        </g>
    </g>
</svg>
