<svg width="15" height="18" viewBox="0 0 15 18" xmlns="http://www.w3.org/2000/svg" xmlns:xlink="http://www.w3.org/1999/xlink"><title>21F44AF9-B341-4B58-8F93-1C985201C7F7</title><defs><path d="M4.565 7.339a.452.452 0 0 1-.456.446H.456c-.25 0-.456-.2-.456-.446 0-.245.205-.446.456-.446h3.653c.25 0 .456.2.456.446zm9.98-.446c.254 0 .455.2.455.446a.452.452 0 0 1-.456.446h-3.653c-.25 0-.456-.2-.456-.446 0-.245.206-.446.456-.446h3.653zM7.5 4.467c-.25 0-.456-.201-.456-.446V.446C7.044.2 7.25 0 7.5 0c.25 0 .456.2.456.446V4.02a.452.452 0 0 1-.456.446zm2.396.973a.476.476 0 0 1-.323-.13.44.44 0 0 1 0-.632l2.586-2.53a.463.463 0 0 1 .646 0 .44.44 0 0 1 0 .632L10.22 5.31a.47.47 0 0 1-.323.13zm-5.115-.13L2.195 2.78a.44.44 0 0 1 0-.632.463.463 0 0 1 .646 0l2.586 2.53a.44.44 0 0 1 0 .632.47.47 0 0 1-.646 0zm8.195 4.842a1.9 1.9 0 0 1 .653 1.765l-.702 4.273c-.084.632-.376 1.126-.847 1.438-.369.242-.85.372-1.398.372H5.241c-.513 0-.988-.204-1.337-.539a.937.937 0 0 1-.6.216h-1.74a.93.93 0 0 1-.937-.918v-5.56a.93.93 0 0 1 .938-.917h1.731c.281 0 .532.119.703.308l.045-.01a3.924 3.924 0 0 0 1.048-.517c.642-.45.965-1.011.965-1.672V6.217c0-.193.13-.364.319-.424.05-.015 1.162-.345 1.982.242.52.375.783 1.003.783 1.865v1.802h2.608c.445 0 .881.16 1.227.45zM3.33 16.759v-5.56a.026.026 0 0 0-.026-.025h-1.74a.026.026 0 0 0-.026.026v5.559c0 .015.011.026.027.026h1.739a.026.026 0 0 0 .026-.026zm9.4-4.98a1.035 1.035 0 0 0-.346-.954 1.01 1.01 0 0 0-.635-.235H8.685c-.25 0-.456-.2-.456-.445V7.896c0-.56-.137-.947-.41-1.144-.254-.182-.6-.193-.85-.167V8.39c0 .958-.475 1.794-1.368 2.415-.642.45-1.287.628-1.314.635-.007 0-.011.004-.019.004l-.026.008v4.778l.011.052c.076.472.501.829.988.829H10.682c1.212 0 1.31-.777 1.34-1.033.005-.008.005-.015.005-.019l.702-4.28z" id="a"/></defs><use fill="#AC8E54" xlink:href="#a" fill-rule="evenodd"/></svg>