<svg xmlns="http://www.w3.org/2000/svg" width="18" height="19" viewBox="0 0 18 19">
    <g fill="none" fill-rule="evenodd">
        <g fill="#000" fill-rule="nonzero">
            <g>
                <path d="M9 0C5.198 0 0 2.874 0 9c0 5.97 5 9 9 9 6.863 0 9-6.013 9-9 0-4.408-3.373-9-9-9zM6.913.847c-.939.8-1.719 2.126-2.222 3.77-.652-.386-1.25-.865-1.782-1.42 1.098-1.153 2.487-1.96 4.004-2.35zm-4.39 2.781c.595.62 1.272 1.148 2.009 1.566-.276 1.074-.44 2.265-.46 3.515H.587c.064-1.867.744-3.65 1.935-5.08zm0 10.744C1.329 12.94.652 11.158.588 9.29h3.483c.022 1.254.185 2.44.46 3.515-.733.421-1.41.946-2.008 1.566zm.386.435c.532-.556 1.13-1.034 1.782-1.42.503 1.64 1.283 2.969 2.222 3.77-1.517-.394-2.906-1.201-4.004-2.35zm5.8 2.59c-1.509-.19-2.81-1.877-3.511-4.294 1.084-.55 2.282-.857 3.511-.903v5.198zm0-5.775c-1.282.043-2.53.358-3.66.91-.237-.991-.379-2.086-.4-3.241h4.06v2.331zm0-2.913H4.65c.021-1.155.163-2.25.4-3.242 1.134.553 2.381.868 3.66.911v2.331zm0-2.909c-1.233-.042-2.427-.354-3.511-.903C5.9 2.477 7.2.794 8.709.602V5.8zm6.768-2.172c1.19 1.432 1.871 3.214 1.935 5.081h-3.48c-.021-1.254-.184-2.44-.46-3.515.733-.421 1.41-.946 2.005-1.566zm-.386-.435c-.532.556-1.13 1.034-1.782 1.42-.503-1.64-1.283-2.965-2.222-3.77 1.517.394 2.906 1.201 4.004 2.35zM9.29.603c1.509.19 2.81 1.877 3.511 4.294-1.084.55-2.278.857-3.511.903V.602zm0 5.775c1.282-.043 2.53-.358 3.66-.91.237.991.379 2.086.4 3.241h-4.06V6.378zm0 2.913h4.06c-.021 1.155-.163 2.25-.4 3.242-1.13-.557-2.378-.872-3.66-.911V9.291zm0 8.107V12.2c1.233.042 2.427.354 3.511.903-.702 2.42-2.002 4.103-3.511 4.295zm1.796-.245c.939-.8 1.719-2.126 2.222-3.77.652.386 1.25.865 1.782 1.42-1.098 1.153-2.487 1.96-4.004 2.35zm4.39-2.781c-.595-.62-1.272-1.145-2.005-1.566.276-1.074.439-2.265.46-3.515h3.48c-.064 1.867-.744 3.65-1.935 5.08z" transform="translate(-640 -376) translate(640 376.5)"/>
            </g>
        </g>
    </g>
</svg>
