<svg xmlns="http://www.w3.org/2000/svg" width="14" height="21" viewBox="0 0 14 21">
    <g fill="none" fill-rule="evenodd">
        <g fill="#000" fill-rule="nonzero">
            <g>
                <path d="M10.742 2.384H8.203V.588c0-.324-.262-.586-.585-.586L5.312 0c-.323 0-.585.263-.585.586v1.798H2.148C.964 2.384 0 3.348 0 4.533v13.319C0 19.036.964 20 2.148 20h8.594c1.185 0 2.149-.964 2.149-2.148V4.532c0-1.184-.964-2.148-2.149-2.148zM5.898 1.172l1.133.001v2.383H5.898V1.172zm5.82 16.68c0 .538-.437.976-.976.976H2.148c-.538 0-.976-.438-.976-.976V4.532c0-.538.438-.976.976-.976h2.579v.586c0 .324.262.586.585.586h2.305c.324 0 .586-.262.586-.586v-.586h2.54c.538 0 .976.438.976.977v13.319z" transform="translate(-642 -620) translate(642.578 620.5)"/>
                <path d="M9.96 14.102H2.93c-.324 0-.586.262-.586.586 0 .324.262.586.586.586h7.03c.325 0 .587-.262.587-.586 0-.324-.262-.586-.586-.586zM5.273 16.446H2.93c-.324 0-.586.262-.586.586 0 .323.262.585.586.585h2.343c.324 0 .586-.262.586-.585 0-.324-.262-.586-.586-.586zM9.96 16.446H7.618c-.323 0-.586.262-.586.586 0 .323.263.585.586.585h2.344c.324 0 .586-.262.586-.585 0-.324-.262-.586-.586-.586zM4.102 12.93h4.687c.324 0 .586-.262.586-.585v-1.172c0-1.079-.581-2.028-1.469-2.54.778-1.16-.056-2.733-1.46-2.733-1.406 0-2.243 1.576-1.459 2.738-.92.539-1.471 1.534-1.471 2.574v1.133c0 .323.262.585.586.585zm2.343-5.858c.323 0 .586.262.586.585 0 .323-.263.586-.586.586-.323 0-.586-.263-.586-.586 0-.323.263-.585.586-.585zm-1.758 4.14c0-.996.805-1.816 1.794-1.797.95.02 1.722.808 1.722 1.758v.586H4.688v-.547z" transform="translate(-642 -620) translate(642.578 620.5)"/>
            </g>
        </g>
    </g>
</svg>
