<svg xmlns="http://www.w3.org/2000/svg" width="17" height="21" viewBox="0 0 17 21">
    <g fill="none" fill-rule="evenodd">
        <g fill="#000" fill-rule="nonzero">
            <g>
                <path d="M12.997 10.328l-1.724-.246c.025-.074.02-.155-.01-.226-.046-.095-.135-.16-.238-.178L9.359 9.4v-.486c.798-.462 1.362-1.242 1.549-2.145h.387c.535 0 .968-.434.968-.968 0-.535-.433-.969-.968-.969h-.296l.316-.732c.562-1.304-.022-2.817-1.313-3.405L9.1.285C8.016-.198 6.756-.06 5.799.642l-.509.381c-.588.151-1.076.56-1.327 1.113-.252.552-.24 1.189.032 1.731l.483.964h-.283c-.534 0-.968.434-.968.969 0 .534.434.968.968.968h.388c.186.903.75 1.683 1.549 2.145V9.4l-1.668.278c-.103.017-.192.083-.237.178-.032.071-.036.152-.011.226l-1.722.246C1.066 10.538.006 11.76 0 13.203v6.474c0 .179.144.323.323.323h14.845c.178 0 .322-.144.322-.323v-6.474c-.006-1.443-1.066-2.665-2.493-2.875zm-3.686-.282l1.157.194-1.162 2.093-.968-1.162c.488-.194.85-.614.973-1.125zm2.307-4.245c0 .178-.145.322-.323.322h-.323v-.645h.323c.178 0 .323.144.323.323zM4.624 2.268c.247-.41.69-.661 1.17-.663.505 0 .977.252 1.256.673l.102.152.537-.358-.102-.152c-.286-.43-.719-.742-1.217-.88C7.114.583 8.035.52 8.834.873l.9.41c.972.443 1.411 1.582.988 2.563l-.097.22-.33-.668c-.043-.086-.122-.148-.216-.17-.093-.023-.192-.002-.268.056l-.517.388c-.918.688-2.18.688-3.098 0l-.516-.388c-.077-.058-.175-.079-.27-.057-.093.023-.172.085-.214.171l-.355.716-.267-.533c-.21-.417-.191-.912.05-1.312zm-.429 3.855c-.178 0-.322-.144-.322-.322 0-.179.144-.323.322-.323h.323v.645h-.323zm.968 0V4.91l.439-.877.207.155c1.147.86 2.725.86 3.872 0l.208-.155.438.877v1.214c0 1.426-1.156 2.582-2.582 2.582S5.163 7.549 5.163 6.123zM7.745 9.35c.329 0 .655-.05.968-.148v.471c0 .535-.433.968-.968.968-.535 0-.968-.433-.968-.968v-.471c.313.098.64.149.968.148zm-1.566.696c.123.511.486.93.974 1.125l-.968 1.161L5.02 10.24l1.158-.193zm-2.306 6.727h7.745v2.582H3.873v-2.582zm10.972 2.582h-2.582v-4.841h-.645v1.613H3.873v-1.613h-.646v4.84H.645v-6.151c.005-1.122.83-2.073 1.94-2.236l1.948-.279 1.317 2.37c.051.092.145.154.251.164h.03c.096 0 .187-.043.248-.116l1.366-1.638 1.366 1.639c.061.073.152.116.248.116h.03c.106-.01.2-.072.252-.165l1.315-2.368 1.95.278c1.11.164 1.933 1.113 1.939 2.235v6.152z" transform="translate(-641 -698) translate(641.527 698.5)"/>
                <path d="M7.785 14.191v-.323H7.14v.323c-.535 0-.968.434-.968.968v.646c0 .534.433.968.968.968v1.29c-.178 0-.323-.144-.323-.322v-.645h-.645v.645c0 .535.433.968.968.968v.323h.645v-.323c.535 0 .969-.433.969-.968v-.645c0-.535-.434-.969-.969-.969v-1.29c.179 0 .323.144.323.322v.646h.646v-.646c0-.534-.434-.968-.969-.968zm.323 2.905v.645c0 .178-.144.323-.323.323v-1.291c.179 0 .323.144.323.323zm-.968-.969c-.178 0-.323-.144-.323-.322v-.646c0-.178.145-.322.323-.322v1.29z" transform="translate(-641 -698) translate(641.527 698.5)"/>
            </g>
        </g>
    </g>
</svg>
