<svg xmlns="http://www.w3.org/2000/svg" xmlns:xlink="http://www.w3.org/1999/xlink" width="26" height="33" viewBox="0 0 26 33">
    <defs>
        <path id="a" d="M12.435 13.457h-.253A1.189 1.189 0 0 1 11 12.26c0-.66.529-1.196 1.182-1.196h5.996l.45-1.592C19.024 8.073 20.43 7 21.868 7h4.263c1.44 0 2.845 1.072 3.24 2.473l.45 1.592h5.997c.653 0 1.182.535 1.182 1.196 0 .66-.529 1.196-1.182 1.196h-.253l-.86 23.482C34.644 38.636 33.242 40 31.565 40H16.436c-1.678 0-3.08-1.367-3.141-3.061l-.86-23.482zm2.365 0l.857 23.394a.802.802 0 0 0 .78.758h15.127a.8.8 0 0 0 .78-.758l.856-23.394H14.8zm5.837-2.392h6.726l-.264-.936c-.106-.373-.584-.738-.968-.738H21.87c-.384 0-.862.365-.968.738l-.264.936zm2.418 6.696c0-.528.423-.957.945-.957s.945.429.945.957v16.26a.951.951 0 0 1-.945.957.951.951 0 0 1-.945-.956V17.76zm-5.2.028a.952.952 0 0 1 .917-.984.95.95 0 0 1 .973.928l.473 16.26a.951.951 0 0 1-.917.985.95.95 0 0 1-.973-.928l-.473-16.261zm10.4-.056a.95.95 0 0 1 .973-.928.951.951 0 0 1 .917.984l-.473 16.26a.95.95 0 0 1-.973.929.952.952 0 0 1-.917-.984l.473-16.261z"/>
    </defs>
    <g fill="none" fill-rule="evenodd" transform="translate(-11 -7)">
        <mask id="b" fill="transparent">
            <use xlink:href="#a"/>
        </mask>
        <use fill="#dadada" xlink:href="#a"/>
        <g fill="transparent" mask="url(#b)">
            <path d="M0 0h48v48H0z"/>
        </g>
    </g>
</svg>
