<svg xmlns="http://www.w3.org/2000/svg" width="15" height="15" viewBox="0 0 20 20"><defs><clipPath id="a"><path fill="#fff" d="M831 803a10 10 0 1 1 0 20 10 10 0 0 1 0-20z"/></clipPath></defs><path fill="#fff" d="M10 0a10 10 0 1 1 0 20 10 10 0 0 1 0-20z"/><path fill="none" stroke="#ccc" stroke-linecap="round" stroke-linejoin="round" stroke-miterlimit="50" stroke-width="4" d="M831 803a10 10 0 1 1 0 20 10 10 0 0 1 0-20z" clip-path="url(&quot;#a&quot;)" transform="translate(-821 -803)"/><path d="M10 6a4 4 0 1 1 0 8 4 4 0 0 1 0-8z"/></svg>
