<svg viewBox="0 0 10 13" fill="none" xmlns="http://www.w3.org/2000/svg"><path d="M5 0C2.835 0 1.094 1.696 1.094 3.796V5.32C.377 5.388 0 5.962 0 6.66v4.996C0 12.4.635 13 1.42 13h7.16c.785 0 1.42-.6 1.42-1.344V6.66c0-.697-.377-1.275-1.094-1.344v-1.52C8.906 1.696 7.165 0 5 0Zm0 1.473c1.385 0 2.5 1.04 2.5 2.332v1.51h-5v-1.51c0-1.293 1.115-2.332 2.5-2.332Zm0 5.764c.604 0 1.094.463 1.094 1.034 0 .363-.199.684-.498.868.016.053.03.108.03.167v1.182c0 .327-.28.59-.626.59s-.625-.263-.625-.59V9.306c0-.058.013-.114.03-.167a1.023 1.023 0 0 1-.499-.868c0-.571.49-1.034 1.094-1.034Z" fill="#fff"/></svg>