<svg xmlns="http://www.w3.org/2000/svg" fill="none" viewBox="0.87 1.78 15.61 18.9"><path d="M15.555 8.213h-1.463V4.759a2.754 2.754 0 0 0-2.754-2.754H6.002a2.754 2.754 0 0 0-2.754 2.754v3.454H1.785a.688.688 0 0 0-.689.688v10.854c0 .38.308.688.689.688h13.77c.38 0 .688-.307.688-.688V8.9a.688.688 0 0 0-.688-.688ZM4.797 4.759c0-.665.54-1.205 1.205-1.205h5.336c.664 0 1.204.54 1.204 1.205v3.454H4.797V4.759Zm9.897 14.135H2.645V9.762h12.049v9.132Z" fill="#0B80FF" stroke="#fff" stroke-width=".459"/><path d="M7.817 16.144v-1.613a1.462 1.462 0 1 1 1.705 0v1.613c0 .134-.11.244-.243.244H8.06a.244.244 0 0 1-.244-.244Z" fill="#0B80FF" stroke="#fff" stroke-width=".184"/></svg>