<svg xmlns="http://www.w3.org/2000/svg" width="16" height="16" viewBox="0 0 16 16">
    <g fill="#004990">
        <path d="M14.838 9.712c-.221 0-.4.19-.4.423v3.752c-.001.7-.539 1.267-1.202 1.268H2.002c-.663-.001-1.2-.568-1.201-1.268V2.875c0-.7.538-1.267 1.2-1.268h3.556c.221 0 .4-.19.4-.423 0-.233-.179-.422-.4-.422H2.002C.897.763.002 1.708 0 2.875v11.012C.001 15.053.897 16 2.002 16h11.234c1.105-.001 2-.947 2.002-2.113v-3.752c0-.234-.18-.423-.4-.423z"/>
        <path d="M14.965.548c-.73-.73-1.914-.73-2.644 0L4.906 7.96c-.05.051-.087.114-.106.183l-.975 3.52c-.04.144 0 .299.106.405.106.106.26.146.405.106l3.52-.975c.07-.019.132-.056.183-.106l7.414-7.414c.73-.73.73-1.914 0-2.645l-.488-.487zM5.03 8.89l6.452-6.453 2.08 2.081-6.452 6.452-2.08-2.08zm.675-.358l1.763 1.763-2.438.675.675-2.438zm8.803-5.274l-.398.398-1.766-1.766.398-.397c.366-.366.96-.366 1.326 0l.44.44c.365.366.365.96 0 1.325z"/>
    </g>
</svg>
