<svg xmlns="http://www.w3.org/2000/svg" xmlns:xlink="http://www.w3.org/1999/xlink" width="34" height="34" viewBox="0 0 34 34">
    <defs>
        <path id="prefix__a" d="M17 4.25c.391 0 .708.317.708.708v1.44c5.304.35 9.545 4.59 9.894 9.893h1.44c.39 0 .708.318.708.709 0 .391-.317.708-.708.708h-1.44c-.35 5.304-4.59 9.545-9.893 9.894v1.44c0 .39-.318.708-.709.708-.391 0-.708-.317-.708-.708v-1.44c-5.304-.35-9.545-4.59-9.894-9.893h-1.44c-.39 0-.708-.318-.708-.709 0-.391.317-.708.708-.708h1.44c.35-5.304 4.59-9.545 9.893-9.894v-1.44c0-.39.318-.708.709-.708zm.709 3.569v1.39c0 .39-.318.708-.709.708-.391 0-.708-.317-.708-.709v-1.39c-4.521.345-8.13 3.953-8.473 8.473h1.39c.39 0 .708.318.708.709 0 .391-.317.708-.709.708h-1.39c.345 4.521 3.953 8.13 8.473 8.473v-1.39c0-.39.318-.708.709-.708.391 0 .708.317.708.709v1.39c4.521-.345 8.13-3.953 8.473-8.473h-1.39c-.39 0-.708-.318-.708-.709 0-.391.317-.708.709-.708h1.39c-.345-4.521-3.953-8.13-8.473-8.473zM17 13.459c1.956 0 3.542 1.585 3.542 3.541S18.956 20.542 17 20.542c-1.956 0-3.542-1.586-3.542-3.542 0-1.956 1.586-3.542 3.542-3.542zm0 1.416c-1.174 0-2.125.951-2.125 2.125s.951 2.125 2.125 2.125 2.125-.951 2.125-2.125-.951-2.125-2.125-2.125z"/>
    </defs>
    <g fill="none" fill-rule="evenodd">
        <mask id="prefix__b" fill="#fff">
            <use xlink:href="#prefix__a"/>
        </mask>
        <use fill="#0ABB76" fill-rule="nonzero" xlink:href="#prefix__a"/>
        <g fill="#000" mask="url(#prefix__b)">
            <path d="M0 0H34V34H0z" transform="rotate(-180 17 17)"/>
        </g>
    </g>
</svg>
