<svg xmlns="http://www.w3.org/2000/svg" xmlns:xlink="http://www.w3.org/1999/xlink" width="25" height="24" viewBox="0 0 25 24">
    <defs>
        <path id="prefix__a" d="M26.752 15.97l-1.938 7.962c-.336 1.376-1.54 2.34-2.92 2.341H12.11c-1.381 0-2.585-.965-2.92-2.341L7.248 15.97h19.505zM7.24 24.43c.558 2.294 2.565 3.903 4.866 3.903h9.783c2.301 0 4.308-1.61 4.866-3.902l2.257-9.242c.135-.552-.192-1.112-.73-1.25-.08-.02-.162-.03-.245-.03h-4.234l-1.816-7.47c-.063-.262-.228-.488-.458-.627-.23-.14-.506-.18-.766-.114-.538.142-.862.705-.723 1.256l1.696 6.955h-9.471l1.696-6.955c.138-.551-.185-1.114-.723-1.256-.26-.067-.536-.026-.766.114-.23.139-.395.365-.458.627l-1.816 7.472H5.963c-.554-.002-1.005.459-1.005 1.028 0 .087.01.174.031.26l2.25 9.233v-.001z"/>
    </defs>
    <g fill="none" fill-rule="evenodd" transform="translate(-4 -5)">
        <path d="M0 0H34V34H0z"/>
        <mask id="prefix__b" fill="#fff">
            <use xlink:href="#prefix__a"/>
        </mask>
        <g fill="#000" mask="url(#prefix__b)">
            <path d="M0 0H34V34H0z" transform="rotate(-180 17 17)"/>
        </g>
    </g>
</svg>
