<svg xmlns="http://www.w3.org/2000/svg" xmlns:xlink="http://www.w3.org/1999/xlink" width="23" height="24" viewBox="0 0 23 24">
    <defs>
        <path id="a" d="M17 22.152c.569 0 1.03.46 1.03 1.03v4.121a1.03 1.03 0 1 1-2.06 0v-4.121c0-.57.461-1.03 1.03-1.03zm3.64-1.512a1.03 1.03 0 0 1 1.457 0l2.916 2.916a1.03 1.03 0 0 1-1.457 1.457l-2.916-2.916a1.03 1.03 0 0 1 0-1.457zm-8.737 0a1.03 1.03 0 1 1 1.457 1.457l-2.916 2.916a1.03 1.03 0 0 1-1.457-1.457zm-1.085-4.67a1.03 1.03 0 1 1 0 2.06H6.697a1.03 1.03 0 1 1 0-2.06zm16.485 0a1.03 1.03 0 1 1 0 2.06h-4.121a1.03 1.03 0 1 1 0-2.06zM8.987 8.987a1.03 1.03 0 0 1 1.457 0l2.916 2.916a1.03 1.03 0 1 1-1.457 1.457l-2.916-2.916a1.03 1.03 0 0 1 0-1.457zm14.569 0a1.03 1.03 0 1 1 1.457 1.457l-2.916 2.916a1.03 1.03 0 1 1-1.457-1.457zM17 5.667c.569 0 1.03.46 1.03 1.03v4.121a1.03 1.03 0 1 1-2.06 0V6.697c0-.57.461-1.03 1.03-1.03z"/>
    </defs>
    <g fill="none" fill-rule="evenodd" transform="translate(-5.5 -5)">
        <path d="M0 0h34v34H0z"/>
        <mask id="b" fill="#fff">
            <use xlink:href="#a"/>
        </mask>
        <use fill="#0ABB76" fill-rule="nonzero" opacity=".617" xlink:href="#a"/>
        <g fill="#FFF" mask="url(#b)">
            <path d="M34 34H0V0h34z"/>
        </g>
    </g>
</svg>
