<svg width="16" height="16" viewBox="0 0 16 16" xmlns="http://www.w3.org/2000/svg">
    <g fill="#000" fill-rule="nonzero">
        <path d="M15.086 15.543H.914A.914.914 0 0 1 0 14.629V4.8c0-.126.102-.229.229-.229H15.77c.127 0 .229.103.229.229v9.829c0 .505-.41.914-.914.914zM.457 5.029v9.6c0 .252.205.457.457.457h14.172a.457.457 0 0 0 .457-.457v-9.6H.457z"/>
        <path d="M15.771 5.029H.23A.229.229 0 0 1 0 4.8V2.286c0-.505.41-.915.914-.915h2.057a.229.229 0 0 1 0 .458H.914a.457.457 0 0 0-.457.457V4.57h15.086V2.286a.457.457 0 0 0-.457-.457h-2.057a.229.229 0 0 1 0-.458h2.057c.505 0 .914.41.914.915V4.8a.229.229 0 0 1-.229.229z"/>
        <path d="M11.429 1.829H4.57a.229.229 0 0 1 0-.458h6.858a.229.229 0 0 1 0 .458z"/>
        <path d="M12.8 3.2h-1.143a.457.457 0 0 1-.457-.457V.457c0-.252.205-.457.457-.457H12.8c.252 0 .457.205.457.457v2.286a.457.457 0 0 1-.457.457zM11.657.457v2.286H12.8V.457h-1.143zM4.343 3.2H3.2a.457.457 0 0 1-.457-.457V.457C2.743.205 2.948 0 3.2 0h1.143c.252 0 .457.205.457.457v2.286a.457.457 0 0 1-.457.457zm0-2.743H3.2v2.286h1.143V.457zM13.414 8.229H12.3a.357.357 0 0 1-.357-.357V6.757c0-.197.16-.357.357-.357h1.114c.197 0 .357.16.357.357v1.115c0 .197-.16.356-.357.357zM12.4 7.77h.914v-.914H12.4v.914zM10.176 8.229H9.062a.357.357 0 0 1-.357-.357V6.757c0-.197.16-.357.357-.357h1.114c.197 0 .357.16.357.357v1.115c0 .197-.16.356-.357.357zM9.162 7.77h.914v-.914h-.914v.914zM6.938 8.229H5.824a.357.357 0 0 1-.357-.357V6.757c0-.197.16-.357.357-.357h1.114c.197 0 .357.16.357.357v1.115c0 .197-.16.356-.357.357zM5.924 7.77h.914v-.914h-.914v.914zM13.414 10.971H12.3a.357.357 0 0 1-.357-.357V9.5c0-.197.16-.357.357-.357h1.114c.197 0 .357.16.357.357v1.114c0 .197-.16.357-.357.357zm-1.014-.457h.914V9.6H12.4v.914zM10.176 10.971H9.062a.357.357 0 0 1-.357-.357V9.5c0-.197.16-.357.357-.357h1.114c.197 0 .357.16.357.357v1.114c0 .197-.16.357-.357.357zm-1.014-.457h.914V9.6h-.914v.914zM6.938 10.971H5.824a.357.357 0 0 1-.357-.357V9.5c0-.197.16-.357.357-.357h1.114c.197 0 .357.16.357.357v1.114c0 .198-.16.357-.357.357zm-1.014-.457h.914V9.6h-.914v.914zM3.7 10.971H2.586a.357.357 0 0 1-.357-.357V9.5c0-.197.16-.357.357-.357H3.7c.197 0 .357.16.357.357v1.114c0 .197-.16.357-.357.357zm-1.014-.457H3.6V9.6h-.914v.914zM10.176 13.714H9.062a.357.357 0 0 1-.357-.357v-1.114c0-.197.16-.357.357-.357h1.114c.197 0 .357.16.357.357v1.114c0 .197-.16.357-.357.357zm-1.014-.457h.914v-.914h-.914v.914zM6.938 13.714H5.824a.357.357 0 0 1-.357-.357v-1.114c0-.197.16-.357.357-.357h1.114c.197 0 .357.16.357.357v1.114c0 .197-.16.357-.357.357zm-1.014-.457h.914v-.914h-.914v.914zM3.7 13.714H2.586a.357.357 0 0 1-.357-.357v-1.114c0-.197.16-.357.357-.357H3.7c.197 0 .357.16.357.357v1.114c0 .197-.16.357-.357.357zm-1.014-.457H3.6v-.914h-.914v.914z"/>
    </g>
</svg>
