<svg width="15" height="18" fill="none" xmlns="http://www.w3.org/2000/svg"><path fill-rule="evenodd" clip-rule="evenodd" d="M12.772 3.95H9.28V2.814C9.28 1.262 8.057 0 6.553 0 5.05 0 3.826 1.262 3.826 2.814V3.95H.335A.342.342 0 0 0 0 4.295V17.13c0 .19.151.346.335.346h7.529a5.097 5.097 0 0 1 5.243-8.684V4.294a.342.342 0 0 0-.335-.345ZM4.496 2.814c0-1.171.923-2.122 2.057-2.122 1.135 0 2.057.951 2.057 2.122V3.95H4.496V2.814Z" fill="#000"/><path d="M10.922 9.32a4.078 4.078 0 1 0 0 8.156 4.078 4.078 0 0 0 0-8.156Zm1.801 4.44h-1.438V15.2a.363.363 0 0 1-.725 0v-1.438H9.12a.362.362 0 0 1 0-.725h1.439v-1.439a.363.363 0 0 1 .725 0v1.439h1.438a.362.362 0 0 1 0 .725Z" fill="#000"/></svg>