<svg width="45" height="45" fill="none" xmlns="http://www.w3.org/2000/svg"><path d="M0 22.5C0 10.074 10.074 0 22.5 0S45 10.074 45 22.5 34.926 45 22.5 45 0 34.926 0 22.5Z" fill="#000" fill-opacity=".7"/><path fill-rule="evenodd" clip-rule="evenodd" d="M31.25 16.25h-17.5V32.5h17.5V16.25ZM12.5 15v18.75h20V15h-20Z" fill="#fff"/><path d="M26.25 20v-5a3.75 3.75 0 1 0-7.5 0v5H17.5v-5a5 5 0 0 1 10 0v5h-1.25ZM24 29a6 6 0 1 1 12 0 6 6 0 0 1-12 0Z" fill="#fff"/><path fill-rule="evenodd" clip-rule="evenodd" d="M29.7 28.7v-3.9h.6v3.9h3.9v.6h-3.9v3.9h-.6v-3.9h-3.9v-.6h3.9Z" fill="#454545"/><path d="M30 34.5a5.5 5.5 0 0 1-5.5-5.5h-1a6.5 6.5 0 0 0 6.5 6.5v-1Zm5.5-5.5a5.5 5.5 0 0 1-5.5 5.5v1a6.5 6.5 0 0 0 6.5-6.5h-1ZM30 23.5a5.5 5.5 0 0 1 5.5 5.5h1a6.5 6.5 0 0 0-6.5-6.5v1Zm0-1a6.5 6.5 0 0 0-6.5 6.5h1a5.5 5.5 0 0 1 5.5-5.5v-1Z" fill="#454545"/></svg>