<svg xmlns="http://www.w3.org/2000/svg" xmlns:xlink="http://www.w3.org/1999/xlink" width="47" height="34" viewBox="0 0 47 34">
    <defs>
        <path id="prefix__a" d="M13.45 23c.304 0 .55.246.55.55 0 .304-.246.55-.55.55h-7.9c-.304 0-.55-.246-.55-.55 0-.304.246-.55.55-.55h7.9zm-1-4c.304 0 .55.246.55.55 0 .304-.246.55-.55.55H1.55c-.304 0-.55-.246-.55-.55 0-.304.246-.55.55-.55h10.9zm3-4c.304 0 .55.246.55.55 0 .304-.246.55-.55.55h-9.9c-.304 0-.55-.246-.55-.55 0-.304.246-.55.55-.55h9.9zm3-4c.304 0 .55.246.55.55 0 .304-.246.55-.55.55h-7.9c-.304 0-.55-.246-.55-.55 0-.304.246-.55.55-.55h7.9zm5.53-1.95v10.447h-1.643v-.275c0-.303-.245-.55-.547-.55h-3.284c-.334.027-.549.266-.548.55v7.698c0 .304.245.55.548.55h3.284c.302 0 .547-.246.547-.55v-.799l4.13 2.113c.078.04.163.06.249.06h7.663c.096 0 .19-.027.273-.077l6.629-3.9c.574-.338.76-.968.76-1.52 0-1.057-.864-1.925-1.915-1.925-.091 0-.182.005-.274.017V9.05c0-.303-.245-.55-.547-.55H24.527c-.334.027-.55.266-.548.55zm1.094.55h13.684v11.736l-1.822.928c-.307-.655-.973-1.117-1.736-1.117H30c-.328 0-.736-.303-1.334-.73-.598-.428-1.398-.92-2.497-.92h-1.095V9.6zm7.941-1.036h-2.2c-.303 0-.55.503-.55 1.125v11.25c0 .622.247 1.126.55 1.126h2.2c.304 0 .55-.504.55-1.125V9.689v-.106c-.027-.58-.265-1.022-.55-1.02zm-.55.73v12.315h-1.1V9.294h1.1zM21.243 19.772v6.6h-2.189v-6.6h2.19zm4.927.825c.78 0 1.309.325 1.864.722.555.396 1.126.927 1.967.927h5.2c.464 0 .82.359.82.825 0 .467-.356.825-.82.825h-4.926c-.198-.003-.382.101-.481.272-.1.172-.1.384 0 .555.1.171.283.276.48.273H35.2c.932 0 1.715-.682 1.881-1.573l2.72-1.391c.08-.04.189-.06.325-.06.46 0 .821.362.821.824 0 .29-.117.519-.214.576l-6.508 3.823h-7.38l-4.508-2.311v-4.287h3.832z"/>
    </defs>
    <g fill="none" fill-rule="evenodd">
        <mask id="prefix__b" fill="#fff">
            <use xlink:href="#prefix__a"/>
        </mask>
        <use fill="#000" fill-rule="nonzero" xlink:href="#prefix__a"/>
        <g fill="#004990" mask="url(#prefix__b)">
            <path d="M0 0H47V34H0z"/>
        </g>
    </g>
</svg>
