<svg xmlns="http://www.w3.org/2000/svg" xmlns:xlink="http://www.w3.org/1999/xlink" width="22" height="22" viewBox="0 0 22 22">
    <defs>
        <path id="jc53qetaca" d="M12.833 1.833L22 5.995v10.003l-9.155 4.164-.01.005-9.168-4.169-.001-.744.804.347 7.98 3.627v-8.305L4.512 6.91v-.006l-.845-.397V6l9.167-4.166zm8.403 5.038l-7.955 4.021v8.306l7.955-3.615V6.871zM4.583 13.475v.917H0v-.917h4.583zm.917-2.75v.917H.917v-.917H5.5zm7.333-8.12l-7.96 3.61 7.952 4.02h.02l7.95-4.019-7.962-3.611zm-8.25 5.37v.917H0v-.917h4.583z"/>
    </defs>
    <g fill="none" fill-rule="evenodd">
        <g>
            <g>
                <g>
                    <g transform="translate(-867.000000, -99.000000) translate(854.000000, 82.000000) translate(13.000000, 16.000000) translate(0.000000, 1.000000)">
                        <path d="M0 0H22V22H0z"/>
                        <use fill="#222" xlink:href="#jc53qetaca"/>
                    </g>
                </g>
            </g>
        </g>
    </g>
</svg>
