<?xml version="1.0" encoding="UTF-8"?>
<svg width="27px" height="21px" viewBox="0 0 27 21" version="1.1" xmlns="http://www.w3.org/2000/svg" xmlns:xlink="http://www.w3.org/1999/xlink">
    <!-- Generator: Sketch 54 (76480) - https://sketchapp.com -->
    <title>Shape</title>
    <desc>Created with Sketch.</desc>
    <g id="Page-1" stroke="none" stroke-width="1" fill="none" fill-rule="evenodd">
        <g id="CORE-Galaxy-S8-[colour-image-swatches-expanded]" transform="translate(-316.000000, -610.000000)" fill="#000000" fill-rule="nonzero" stroke="#000000" stroke-width="0.1">
            <g id="social-copy" transform="translate(0.000000, 596.000000)">
                <g id="share" transform="translate(316.000000, 14.000000)">
                    <path d="M1.2726674,20.7890161 C1.21420794,20.7890161 1.15574848,20.7890161 1.09728901,20.7890161 C0.804991698,20.7305566 0.571153846,20.4382593 0.571153846,20.0875025 C0.571153846,13.6569616 2.8510729,5.99877197 13.4906951,5.58955573 L13.4906951,1.26355547 C13.4906951,1.02971762 13.6076141,0.737420309 13.8414519,0.620501383 C14.0752898,0.503582457 14.3675871,0.503582457 14.5429655,0.678960846 L26.4686959,9.15558297 C26.6440743,9.27250189 26.7609932,9.50633975 26.7609932,9.7401776 C26.7609932,9.97401545 26.6440743,10.2078533 26.4686959,10.3247722 L14.5429655,18.6844754 C14.3091276,18.8598538 14.0752898,18.8598538 13.8414519,18.7429349 C13.6076141,18.626016 13.4906951,18.3921781 13.4906951,18.0998808 L13.4906951,13.83234 C9.45699221,13.83234 5.3648298,14.1830968 1.85726203,20.3797998 C1.7403431,20.6720972 1.50650525,20.7890161 1.2726674,20.7890161 Z M14.8352628,2.60812312 L14.8352628,6.29106929 C14.8352628,6.70028553 14.5429655,6.99258284 14.1343338,6.99258284 C6.76785691,7.0510423 2.79319803,10.5001506 2.03322501,17.5152862 C5.8330901,12.4871878 10.2175498,12.4871878 14.1343338,12.4871878 L14.1343338,12.4871878 C14.3097122,12.4871878 14.4850906,12.5462318 14.6020095,12.7210256 C14.7189285,12.8379445 14.8352628,13.0133229 14.8352628,13.1887013 L14.8352628,16.813188 L24.831831,9.7401776 L14.8352628,2.60812312 Z" id="Shape"></path>
                </g>
            </g>
        </g>
    </g>
</svg>