<svg width="18" height="20" viewBox="0 0 18 20" fill="none" xmlns="http://www.w3.org/2000/svg">
<path d="M16.5701 13.3776H9.70592C9.65552 13.3776 9.60565 13.3879 9.55933 13.4079C9.51301 13.4279 9.47121 13.4571 9.43647 13.4939C9.40172 13.5306 9.37477 13.5741 9.35723 13.6217C9.33969 13.6692 9.33194 13.7199 9.33444 13.7705C9.34953 14.0757 9.36271 14.3808 9.37163 14.6864L9.4016 15.7047C9.47215 18.113 11.0896 19.9995 13.084 19.9995C14.9779 19.9995 16.5535 18.2836 16.7492 16.0078L16.9405 13.7833C16.9449 13.7317 16.9386 13.6796 16.922 13.6305C16.9054 13.5814 16.8788 13.5364 16.844 13.4981C16.8091 13.4599 16.7668 13.4294 16.7196 13.4086C16.6724 13.3877 16.6214 13.3769 16.5699 13.377L16.5701 13.3776ZM16.0084 15.9443C15.8463 17.83 14.5893 19.2517 13.0842 19.2517C11.4949 19.2517 10.2038 17.6843 10.1452 15.6834L10.1152 14.6652C10.1101 14.4858 10.1036 14.3065 10.0957 14.1271H16.1646L16.0084 15.9443Z" fill="#050505"/>
<path d="M12.7768 0.0233577C11.582 -0.112678 10.4419 0.348688 9.56399 1.32382C8.42152 2.59306 7.95293 4.51083 8.34119 6.32677L8.40473 6.62023C8.77749 8.37259 9.04482 10.146 9.20527 11.9308C9.21365 12.0238 9.2563 12.1103 9.32484 12.1733C9.39338 12.2364 9.48285 12.2713 9.57568 12.2713H16.7302C16.8233 12.2713 16.913 12.2361 16.9816 12.1728C17.0502 12.1094 17.0926 12.0224 17.1006 11.929L17.5192 7.05935C17.8231 3.51451 15.6961 0.357672 12.7768 0.0233577ZM16.7773 6.99626L16.3882 11.5235H9.91357C9.74799 9.82346 9.48689 8.13421 9.13153 6.46388L9.06777 6.16956C8.72903 4.5844 9.13004 2.92011 10.1146 1.82647C10.4263 1.45231 10.824 1.1603 11.2731 0.975768C11.7223 0.791235 12.2094 0.719743 12.6922 0.76749C15.2154 1.05625 17.0476 3.85011 16.7778 6.99583L16.7773 6.99626Z" fill="#050505"/>
<path d="M4.42274 0H2.08977C1.75723 0 1.43831 0.132957 1.20318 0.369621C0.968037 0.606286 0.835938 0.927272 0.835938 1.26197V18.675C0.836219 19.0095 0.968443 19.3302 1.20355 19.5666C1.43866 19.8031 1.75741 19.9359 2.08977 19.9359H4.42274C4.75509 19.9359 5.07384 19.8031 5.30895 19.5666C5.54406 19.3302 5.67628 19.0095 5.67656 18.675V1.26111C5.67634 0.926565 5.54414 0.605799 5.30903 0.369319C5.07391 0.132839 4.75512 -7.6885e-08 4.42274 0ZM4.42274 19.1862H2.08977C1.95468 19.1862 1.82511 19.1322 1.72949 19.0362C1.63387 18.9402 1.58002 18.8099 1.57973 18.6739V1.26111C1.57973 1.12496 1.63347 0.994393 1.72912 0.898123C1.82477 0.801853 1.9545 0.747769 2.08977 0.747769H4.42274C4.558 0.747769 4.68773 0.801853 4.78338 0.898123C4.87903 0.994393 4.93277 1.12496 4.93277 1.26111V2.74531H4.55024C4.45161 2.74531 4.35702 2.78475 4.28727 2.85494C4.21753 2.92514 4.17835 3.02035 4.17835 3.11962C4.17835 3.2189 4.21753 3.31411 4.28727 3.3843C4.35702 3.4545 4.45161 3.49394 4.55024 3.49394H4.93277V4.25475H4.55024C4.45161 4.25475 4.35702 4.29419 4.28727 4.36439C4.21753 4.43458 4.17835 4.52979 4.17835 4.62906C4.17835 4.72834 4.21753 4.82355 4.28727 4.89374C4.35702 4.96394 4.45161 5.00338 4.55024 5.00338H4.93277V5.78002H3.99771C3.89908 5.78002 3.80448 5.81946 3.73474 5.88965C3.66499 5.95985 3.62581 6.05506 3.62581 6.15433C3.62581 6.25361 3.66499 6.34881 3.73474 6.41901C3.80448 6.48921 3.89908 6.52864 3.99771 6.52864H4.93277V7.30443H4.55024C4.45161 7.30443 4.35702 7.34387 4.28727 7.41407C4.21753 7.48426 4.17835 7.57947 4.17835 7.67874C4.17835 7.77802 4.21753 7.87323 4.28727 7.94342C4.35702 8.01362 4.45161 8.05306 4.55024 8.05306H4.93277V8.8297H4.55024C4.45161 8.8297 4.35702 8.86914 4.28727 8.93933C4.21753 9.00953 4.17835 9.10474 4.17835 9.20401C4.17835 9.30329 4.21753 9.39849 4.28727 9.46869C4.35702 9.53889 4.45161 9.57832 4.55024 9.57832H4.93277V10.355H4.55024C4.45161 10.355 4.35702 10.3944 4.28727 10.4646C4.21753 10.5348 4.17835 10.63 4.17835 10.7293C4.17835 10.8286 4.21753 10.9238 4.28727 10.994C4.35702 11.0642 4.45161 11.1036 4.55024 11.1036H4.93277V11.8817H3.99771C3.89908 11.8817 3.80448 11.9212 3.73474 11.9914C3.66499 12.0616 3.62581 12.1568 3.62581 12.256C3.62581 12.3553 3.66499 12.4505 3.73474 12.5207C3.80448 12.5909 3.89908 12.6304 3.99771 12.6304H4.93277V13.4072H4.55024C4.45161 13.4072 4.35702 13.4467 4.28727 13.5169C4.21753 13.587 4.17835 13.6823 4.17835 13.7815C4.17835 13.8808 4.21753 13.976 4.28727 14.0462C4.35702 14.1164 4.45161 14.1558 4.55024 14.1558H4.93277V14.9318H4.55024C4.45161 14.9318 4.35702 14.9713 4.28727 15.0415C4.21753 15.1117 4.17835 15.2069 4.17835 15.3062C4.17835 15.4054 4.21753 15.5006 4.28727 15.5708C4.35702 15.641 4.45161 15.6805 4.55024 15.6805H4.93277V16.4569H4.55024C4.45161 16.4569 4.35702 16.4963 4.28727 16.5665C4.21753 16.6367 4.17835 16.7319 4.17835 16.8312C4.17835 16.9305 4.21753 17.0257 4.28727 17.0959C4.35702 17.1661 4.45161 17.2055 4.55024 17.2055H4.93277V17.9822H3.99771C3.89908 17.9822 3.80448 18.0216 3.73474 18.0918C3.66499 18.162 3.62581 18.2572 3.62581 18.3565C3.62581 18.4558 3.66499 18.551 3.73474 18.6212C3.80448 18.6914 3.89908 18.7308 3.99771 18.7308H4.92618C4.91259 18.8557 4.85374 18.9713 4.76087 19.0553C4.668 19.1394 4.54762 19.186 4.42274 19.1864V19.1862Z" fill="#050505"/>
<path d="M3.17004 1.71289C3.04952 1.71285 2.93171 1.74878 2.83148 1.81613C2.73126 1.88349 2.65313 1.97925 2.60699 2.0913C2.56084 2.20335 2.54874 2.32666 2.57223 2.44563C2.59571 2.56459 2.65372 2.67388 2.73892 2.75966C2.82412 2.84545 2.93269 2.90387 3.05088 2.92755C3.16907 2.95123 3.29159 2.9391 3.40293 2.89269C3.51428 2.84628 3.60944 2.76769 3.6764 2.66684C3.74336 2.56599 3.7791 2.44742 3.7791 2.32612C3.7791 2.16352 3.71494 2.00757 3.60072 1.89258C3.48651 1.77758 3.33159 1.71295 3.17004 1.71289Z" fill="#050505"/>
</svg>
