<svg width="16" height="24" viewBox="0 0 16 24" xmlns="http://www.w3.org/2000/svg"><title>DC42FFF4-6B6C-4B0F-AEB4-6B7BA4EE756F</title><g fill-rule="nonzero" fill="#fff"><path d="M8 0A7.754 7.754 0 0 0 .35 7.84c0 4.886 6.85 14.855 7.145 15.28a.615.615 0 0 0 1.01 0c.289-.425 7.144-10.394 7.144-15.28A7.754 7.754 0 0 0 8 0zm0 21.662C6.4 19.243 1.582 11.618 1.582 7.84A6.523 6.523 0 0 1 8 1.23a6.523 6.523 0 0 1 6.418 6.61c0 3.778-4.824 11.403-6.418 13.822z"/><path d="M8 4.308a3.508 3.508 0 1 0 3.428 3.507A3.47 3.47 0 0 0 8 4.308zm0 5.778a2.277 2.277 0 1 1 2.197-2.277A2.24 2.24 0 0 1 8 10.111v-.025z"/></g></svg>