<svg width="48" height="48" viewBox="0 0 48 48" xmlns="http://www.w3.org/2000/svg" xmlns:xlink="http://www.w3.org/1999/xlink">
    <defs>
        <path d="m19.447.45 13.125 6.474A4.31 4.31 0 0 1 35 10.787V26.21a4.309 4.309 0 0 1-2.426 3.86L19.45 36.545a4.429 4.429 0 0 1-3.916 0L2.406 30.069A4.307 4.307 0 0 1 0 26.193V10.786a4.31 4.31 0 0 1 2.426-3.86L15.553.45a4.43 4.43 0 0 1 3.894 0zM2.187 11.456V26.2c-.005.82.461 1.573 1.2 1.94l13.019 6.421V18.468L2.187 11.455zm30.625-.518L18.593 17.95v16.604l13.005-6.414a2.155 2.155 0 0 0 1.215-1.93l-.001-15.273zM8.362 6.409l-4.96 2.447c-.244.12-.459.28-.637.472l14.21 7.008 5.758-2.84L8.362 6.409zm8.167-4.027-5.721 2.821 14.37 7.087L31.848 9a2.21 2.21 0 0 0-.252-.145L18.472 2.383c-.613-.3-1.332-.3-1.943-.001z" id="i7lopdf4va"/>
    </defs>
    <g transform="translate(6.5 5.5)" fill="none" fill-rule="evenodd">
        <mask id="708d6iwvhb" fill="#fff">
            <use xlink:href="#i7lopdf4va"/>
        </mask>
        <use fill="#0ABB76" fill-rule="nonzero" xlink:href="#i7lopdf4va"/>
        <g mask="url(#708d6iwvhb)" fill="#000">
            <path d="M-6.5-5.5h48v48h-48z"/>
        </g>
    </g>
</svg>
