<svg width="48" height="48" viewBox="0 0 48 48" xmlns="http://www.w3.org/2000/svg">
    <g stroke="#000" fill="none" fill-rule="evenodd">
        <g transform="translate(6 8)">
            <path d="M29 11c1.105 0 2.105.448 2.828 1.172A3.987 3.987 0 0 1 33 15v13H1V15c0-1.105.448-2.105 1.172-2.828A3.987 3.987 0 0 1 5 11z" stroke-width="2" fill="#FFF"/>
            <path stroke-width="2" fill="#FFF" d="M9 24h16v9H9z"/>
            <rect stroke-width="2" fill="#FFF" x="9" y="1" width="16" height="9.5" rx="1"/>
            <path stroke-width="2" stroke-linecap="round" d="M6.5 23.5h21"/>
            <path stroke-width="1.5" stroke-linecap="round" d="M11.5 27.5h5M17.5 30.5h5M11.5 30.5h3"/>
        </g>
        <rect fill="#FFF" x="33" y="22" width="3" height="3" rx="1.5"/>
    </g>
</svg>
