<svg width="16" height="16" viewBox="0 0 16 16" xmlns="http://www.w3.org/2000/svg">
    <g fill="#000" fill-rule="nonzero">
        <path d="M8 0C3.589 0 0 3.589 0 8s3.589 8 8 8 8-3.589 8-8-3.589-8-8-8zm0 15.304C3.972 15.304.696 12.028.696 8 .696 3.972 3.972.696 8 .696c4.028 0 7.304 3.276 7.304 7.304 0 4.028-3.276 7.304-7.304 7.304z"/>
        <path d="m11.377 10.885-3.03-3.029V2.435a.348.348 0 0 0-.695 0V8c0 .093.037.18.102.246l3.13 3.13a.35.35 0 0 0 .493 0 .348.348 0 0 0 0-.491z"/>
    </g>
</svg>
