<?xml version="1.0" standalone="no"?>
<!DOCTYPE svg PUBLIC "-//W3C//DTD SVG 1.1//EN" "http://www.w3.org/Graphics/SVG/1.1/DTD/svg11.dtd" >
<svg xmlns="http://www.w3.org/2000/svg" xmlns:xlink="http://www.w3.org/1999/xlink" version="1.1">
<metadata>
Created by FontForge 20170731 at Wed Jul  9 18:19:28 2014
 By Aleksey,,,
Copyright (c) 2011 Victoria's Secret Pink. All rights reserved.
</metadata>
<defs>
<font id="." horiz-adv-x="774" >
  <font-face 
    font-family="."
    font-weight="500"
    font-stretch="normal"
    units-per-em="2048"
    panose-1="2 0 0 0 0 0 0 0 0 0"
    ascent="1536"
    descent="-512"
    x-height="1024"
    cap-height="1434"
    bbox="-178 -410 1397 1843"
    underline-thickness="102"
    underline-position="-306"
    unicode-range="U+0020-FB02"
  />
<missing-glyph horiz-adv-x="748" 
d="M68 0v1365h544v-1365h-544zM136 68h408v1229h-408v-1229z" />
    <glyph glyph-name="uniFB01" unicode="fi" horiz-adv-x="1128" 
d="M768 1155v279h281v-279h-281zM721 797v227h321v-797h54v-227h-375v227h55v570h-55zM33 797v227h102v287l123 123h279l122 -123v-185h-196v80h-62v-182h215v-227h-215v-570h70v-227h-403v227h67v570h-102z" />
    <glyph glyph-name="uniFB02" unicode="fl" horiz-adv-x="1128" 
d="M721 1206v228h321v-1207h54v-227h-375v227h55v979h-55zM33 797v227h102v287l123 123h279l122 -123v-185h-196v80h-62v-182h215v-227h-215v-570h70v-227h-403v227h67v570h-102z" />
    <glyph glyph-name=".notdef" horiz-adv-x="748" 
d="M68 0v1365h544v-1365h-544zM136 68h408v1229h-408v-1229z" />
    <glyph glyph-name="glyph1" horiz-adv-x="0" 
 />
    <glyph glyph-name="glyph2" horiz-adv-x="682" 
 />
    <glyph glyph-name="space" unicode=" " horiz-adv-x="409" 
 />
    <glyph glyph-name="exclam" unicode="!" horiz-adv-x="491" 
d="M113 0v266h266v-266h-266zM147 436l-67 998h332l-68 -998h-197z" />
    <glyph glyph-name="quotedbl" unicode="&#x22;" horiz-adv-x="874" 
d="M516 903l-43 531h311l-43 -531h-225zM133 903l-43 531h311l-43 -531h-225z" />
    <glyph glyph-name="numbersign" unicode="#" horiz-adv-x="866" 
d="M362 850v-266h144v266h-144zM813 584v-230h-111v-354h-196v354h-144v-354h-198v354h-109v230h109v266h-109v229h109v355h198v-355h144v355h196v-355h111v-229h-111v-266h111z" />
    <glyph glyph-name="dollar" unicode="$" horiz-adv-x="845" 
d="M549 428v195h-346l-125 127v340l139 139h90v205h254v-205h90l140 -139v-189h-240v105h-215v-195h346l125 -127v-340l-139 -139h-109v-205h-254v205h-106l-140 139v188h240v-104h250z" />
    <glyph glyph-name="percent" unicode="%" horiz-adv-x="1540" 
d="M1038 442v-243h144v243h-144zM825 121v401l121 119h328l123 -119v-401l-123 -121h-328zM182 0l910 1434h211l-910 -1434h-211zM446 991v244h-143v-244h143zM659 1313v-402l-120 -118h-328l-123 118v402l123 121h328z" />
    <glyph glyph-name="ampersand" unicode="&#x26;" horiz-adv-x="1058" 
d="M397 1071l54 -106l81 79v164h-135v-137zM381 588l-33 -33v-326h90l64 138zM799 1286v-317l-224 -207l74 -137l90 170h283l-229 -412l225 -383h-301l-70 125l-63 -125h-353l-149 150v479l174 159l-125 222v276l148 148h370z" />
    <glyph glyph-name="quotesingle" unicode="'" horiz-adv-x="491" 
d="M133 903l-43 531h311l-43 -531h-225z" />
    <glyph glyph-name="parenleft" unicode="(" horiz-adv-x="573" 
d="M492 20v-225h-259l-151 152v1540l151 151h259v-225h-144v-1393h144z" />
    <glyph glyph-name="parenright" unicode=")" horiz-adv-x="573" 
d="M82 1413v225h258l152 -151v-1540l-152 -152h-258v225h143v1393h-143z" />
    <glyph glyph-name="asterisk" unicode="*" horiz-adv-x="778" 
d="M63 1190l97 166l135 -80v158h188v-158l135 80l97 -166l-135 -78l135 -78l-97 -164l-135 78v-155h-188v155l-135 -78l-97 164l136 78z" />
    <glyph glyph-name="plus" unicode="+" horiz-adv-x="874" 
d="M803 831v-229h-250v-250h-231v250h-250v229h250v250h231v-250h250z" />
    <glyph glyph-name="comma" unicode="," horiz-adv-x="491" 
d="M379 266v-225l-107 -246h-252l93 213v258h266z" />
    <glyph glyph-name="hyphen" unicode="-" horiz-adv-x="532" 
d="M467 829v-225h-401v225h401z" />
    <glyph glyph-name="period" unicode="." horiz-adv-x="491" 
d="M113 0v266h266v-266h-266z" />
    <glyph glyph-name="slash" unicode="/" horiz-adv-x="675" 
d="M676 1638l-410 -1843h-266l410 1843h266z" />
    <glyph glyph-name="zero" unicode="0" horiz-adv-x="866" 
d="M532 229v975h-198v-975h198zM799 1270v-1106l-164 -164h-404l-163 164v1106l163 164h404z" />
    <glyph glyph-name="one" unicode="1" horiz-adv-x="866" 
d="M68 1126l307 308h213v-1205h205v-229h-676v229h205v852l-105 -102z" />
    <glyph glyph-name="two" unicode="2" horiz-adv-x="866" 
d="M336 602v-373h207v207h250v-436h-723v688l143 143h303v373h-180v-207h-250v293l143 144h410l143 -144v-542l-143 -146h-303z" />
    <glyph glyph-name="three" unicode="3" horiz-adv-x="866" 
d="M78 999v271l164 164h376l164 -164v-453l-80 -82l97 -96v-475l-164 -164h-395l-164 164v270h241v-205h215v385h-264v226h248v364h-197v-205h-241z" />
    <glyph glyph-name="four" unicode="4" horiz-adv-x="866" 
d="M291 600h164v430zM61 371v227l351 836h309v-834h90v-229h-90v-142h90v-229h-446v229h90v142h-394z" />
    <glyph glyph-name="five" unicode="5" horiz-adv-x="866" 
d="M82 625v809h717v-230h-451v-350h287l164 -164v-526l-164 -164h-399l-164 164v272h239v-207h221v396h-450z" />
    <glyph glyph-name="six" unicode="6" horiz-adv-x="866" 
d="M342 614v-385h190v385h-190zM240 0l-164 164v1106l164 164h381l163 -164v-273h-241v207h-201v-364h293l164 -164v-512l-164 -164h-395z" />
    <glyph glyph-name="seven" unicode="7" horiz-adv-x="866" 
d="M72 997v437h731v-404l-314 -1030h-272l320 1049v155h-222v-207h-243z" />
    <glyph glyph-name="eight" unicode="8" horiz-adv-x="866" 
d="M356 1204v-364h160v364h-160zM342 614v-385h190v385h-190zM90 817v453l164 164h364l164 -164v-453l-80 -82l97 -96v-475l-164 -164h-395l-164 164v475l96 96z" />
    <glyph glyph-name="nine" unicode="9" horiz-adv-x="866" 
d="M532 819v385h-190v-385h190zM635 1434l164 -164v-1106l-164 -164h-395l-164 164v272h243v-207h213v365h-292l-164 164v512l164 164h395z" />
    <glyph glyph-name="colon" unicode=":" horiz-adv-x="491" 
d="M113 778v266h266v-266h-266zM113 0v266h266v-266h-266z" />
    <glyph glyph-name="semicolon" unicode=";" horiz-adv-x="491" 
d="M379 266v-225l-107 -246h-252l93 213v258h266zM113 778v266h266v-266h-266z" />
    <glyph glyph-name="less" unicode="&#x3c;" horiz-adv-x="874" 
d="M803 1147v-254l-453 -176l453 -176v-254l-731 299v262z" />
    <glyph glyph-name="equal" unicode="=" horiz-adv-x="874" 
d="M803 651v-231h-731v231h731zM803 1014v-232h-731v232h731z" />
    <glyph glyph-name="greater" unicode="&#x3e;" horiz-adv-x="874" 
d="M72 287v254l452 176l-452 176v254l731 -299v-262z" />
    <glyph glyph-name="question" unicode="?" horiz-adv-x="845" 
d="M295 0v266h266v-266h-266zM72 997v273l164 164h374l164 -164v-434l-235 -193l-13 -207h-198l-21 340l201 164v264h-193v-207h-243z" />
    <glyph glyph-name="at" unicode="@" horiz-adv-x="1406" 
d="M1341 205v-205h-1173l-102 102v1227l102 103h1071l102 -103v-930l-102 -102h-358l-68 68l-68 -68h-258l-131 131v254l131 129h261v123h-125v-51h-246v135l117 115h403l117 -115v-516h102v723h-837v-1020h1062zM623 637v-135h125v135h-125z" />
    <glyph glyph-name="A" unicode="A" horiz-adv-x="899" 
d="M432 1100l-65 -479h129zM549 229l-25 170h-186l-23 -170h64v-229h-359v229h60l178 1205h383l176 -1205h62v-229h-394v229h64z" />
    <glyph glyph-name="B" unicode="B" horiz-adv-x="872" 
d="M371 1204v-362h164v362h-164zM371 612v-383h184v383h-184zM821 645v-500l-145 -145h-641v229h69v975h-69v230h620l144 -144v-481l-72 -72z" />
    <glyph glyph-name="C" unicode="C" horiz-adv-x="808" 
d="M614 0h-417l-146 145v1145l146 144h417l144 -144v-291h-244v205h-197v-975h197v205h244v-289z" />
    <glyph glyph-name="D" unicode="D" horiz-adv-x="872" 
d="M371 1204v-975h184v975h-184zM821 1290v-1145l-145 -145h-641v229h69v975h-69v230h641z" />
    <glyph glyph-name="E" unicode="E" horiz-adv-x="821" 
d="M784 0h-749v229h69v975h-69v230h749v-437h-243v207h-170v-362h266v-230h-266v-383h170v207h243v-436z" />
    <glyph glyph-name="F" unicode="F" horiz-adv-x="817" 
d="M438 229v-229h-403v229h69v975h-69v230h749v-437h-243v207h-170v-383h270v-229h-270v-363h67z" />
    <glyph glyph-name="G" unicode="G" horiz-adv-x="819" 
d="M625 0h-428l-146 145v1145l146 144h428l143 -144v-293h-246v207h-205v-975h185v336h-78v230h344v-650z" />
    <glyph glyph-name="H" unicode="H" horiz-adv-x="929" 
d="M492 0v229h69v383h-190v-383h67v-229h-403v229h69v975h-69v230h403v-230h-67v-362h190v362h-69v230h403v-230h-68v-975h68v-229h-403z" />
    <glyph glyph-name="I" unicode="I" horiz-adv-x="473" 
d="M371 1204v-975h67v-229h-403v229h69v975h-69v230h403v-230h-67z" />
    <glyph glyph-name="J" unicode="J" horiz-adv-x="761" 
d="M516 0h-348l-143 145v291h241v-207h127v975h-69v230h405v-230h-70v-1059z" />
    <glyph glyph-name="K" unicode="K" horiz-adv-x="962" 
d="M915 229v-229h-405v229h55l-114 326l-80 -158v-168h67v-229h-403v229h69v975h-69v230h403v-230h-67v-387l202 387h-59v230h379v-230h-62l-198 -360l219 -615h63z" />
    <glyph glyph-name="L" unicode="L" horiz-adv-x="776" 
d="M371 1204v-975h129v207h243v-436h-708v229h69v975h-69v230h403v-230h-67z" />
    <glyph glyph-name="M" unicode="M" horiz-adv-x="1163" 
d="M479 266l-145 539v-576h67v-229h-366v229h69v975h-69v230h356l187 -658l186 658h364v-230h-69v-975h69v-229h-403v229h68v594l-150 -557h-164z" />
    <glyph glyph-name="N" unicode="N" horiz-adv-x="929" 
d="M895 1434v-230h-70v-1204h-264l-233 752v-523h67v-229h-360v229h69v975h-69v230h332l235 -754v524h-67v230h360z" />
    <glyph glyph-name="O" unicode="O" horiz-adv-x="819" 
d="M502 229v975h-185v-975h185zM768 1290v-1145l-143 -145h-428l-146 145v1145l146 144h428z" />
    <glyph glyph-name="P" unicode="P" horiz-adv-x="872" 
d="M371 1204v-461h184v461h-184zM371 514v-285h67v-229h-403v229h69v975h-69v230h641l145 -144v-633l-145 -143h-305z" />
    <glyph glyph-name="Q" unicode="Q" horiz-adv-x="819" 
d="M502 229v975h-185v-975h185zM768 1290v-1136l152 -152l-154 -154l-152 152h-417l-146 145v1145l146 144h428z" />
    <glyph glyph-name="R" unicode="R" horiz-adv-x="874" 
d="M371 514v-285h67v-229h-403v229h69v975h-69v230h641l145 -144v-633l-108 -106l71 -322h56v-229h-267l-108 514h-94zM371 1204v-461h184v461h-184z" />
    <glyph glyph-name="S" unicode="S" horiz-adv-x="819" 
d="M506 229v383h-297l-143 146v532l143 144h401l146 -144v-293h-250v207h-174v-362h297l143 -144v-553l-143 -145h-436l-146 145v291h250v-207h209z" />
    <glyph glyph-name="T" unicode="T" horiz-adv-x="937" 
d="M27 997v437h884v-437h-223v207h-86v-975h68v-229h-402v229h68v975h-86v-207h-223z" />
    <glyph glyph-name="U" unicode="U" horiz-adv-x="915" 
d="M492 1204v230h391v-230h-70v-1059l-143 -145h-422l-144 145v1059h-69v230h401v-230h-69v-975h194v975h-69z" />
    <glyph glyph-name="V" unicode="V" horiz-adv-x="899" 
d="M467 334l115 870h-62v230h359v-230h-62l-176 -1204h-383l-178 1204h-60v230h394v-230h-64z" />
    <glyph glyph-name="W" unicode="W" horiz-adv-x="1253" 
d="M393 1434v-230h-55l61 -659l103 766h284l103 -766l61 659h-55v230h338v-230h-59l-111 -1204h-332l-98 727l-96 -727h-347l-112 1204h-58v230h373z" />
    <glyph glyph-name="X" unicode="X" horiz-adv-x="911" 
d="M510 1204v230h367v-230h-58l-221 -471l229 -504h56v-229h-402v229h58l-103 242l-104 -242h57v-229h-369v229h58l233 496l-221 479h-55v230h401v-230h-59l94 -217l94 217h-55z" />
    <glyph glyph-name="Y" unicode="Y" horiz-adv-x="862" 
d="M635 229v-229h-406v229h70v271l-225 704h-51v230h385v-230h-62l98 -325l97 325h-60v230h359v-230h-52l-223 -696v-279h70z" />
    <glyph glyph-name="Z" unicode="Z" horiz-adv-x="788" 
d="M754 0h-719v250l446 954h-200v-207h-230v437h692v-250l-446 -955h227v207h230v-436z" />
    <glyph glyph-name="bracketleft" unicode="[" horiz-adv-x="573" 
d="M492 20v-225h-410v1843h410v-225h-144v-1393h144z" />
    <glyph glyph-name="backslash" unicode="\" horiz-adv-x="675" 
d="M410 -205l-410 1843h266l410 -1843h-266z" />
    <glyph glyph-name="bracketright" unicode="]" horiz-adv-x="573" 
d="M82 1413v225h410v-1843h-410v225h143v1393h-143z" />
    <glyph glyph-name="asciicircum" unicode="^" horiz-adv-x="874" 
d="M866 840h-252l-178 352l-176 -352h-252l299 594h260z" />
    <glyph glyph-name="underscore" unicode="_" horiz-adv-x="409" 
d="M410 -137v-225h-410v225h410z" />
    <glyph glyph-name="grave" unicode="`" horiz-adv-x="823" 
d="M168 1434h254l119 -277h-254z" />
    <glyph glyph-name="a" unicode="a" horiz-adv-x="811" 
d="M303 426v-199h154v199h-154zM723 881v-654h53v-227h-319v74l-74 -74h-203l-143 143v328l143 143h277v183h-154v-103h-246v187l144 143h379z" />
    <glyph glyph-name="b" unicode="b" horiz-adv-x="817" 
d="M354 797v-570h154v570h-154zM774 881v-738l-143 -143h-203l-74 74v-74h-321v227h55v979h-55v228h321v-484l74 74h203z" />
    <glyph glyph-name="c" unicode="c" horiz-adv-x="759" 
d="M573 0h-387l-143 143v738l143 143h387l144 -143v-267h-246v183h-162v-570h162v183h246v-267z" />
    <glyph glyph-name="d" unicode="d" horiz-adv-x="817" 
d="M309 797v-570h154v570h-154zM43 143v738l143 143h203l74 -74v256h-53v228h319v-1207h55v-227h-321v74l-74 -74h-203z" />
    <glyph glyph-name="e" unicode="e" 
d="M309 797v-191h154v191h-154zM43 143v738l143 143h400l143 -143v-463h-420v-191h174v103h246v-187l-143 -143h-400z" />
    <glyph glyph-name="f" unicode="f" horiz-adv-x="688" 
d="M33 797v227h102v287l123 123h279l122 -123v-185h-196v80h-62v-182h215v-227h-215v-570h70v-227h-403v227h67v570h-102z" />
    <glyph glyph-name="g" unicode="g" horiz-adv-x="763" 
d="M309 797v-570h154v570h-154zM43 143v738l143 143h203l74 -74v74h266v-1290l-143 -144h-400l-143 144v186h246v-102h174v256l-74 -74h-203z" />
    <glyph glyph-name="h" unicode="h" horiz-adv-x="860" 
d="M508 0v797h-154v-570h54v-227h-375v227h55v979h-55v228h321v-484l74 74h203l143 -143v-654h53v-227h-319z" />
    <glyph glyph-name="i" unicode="i" horiz-adv-x="440" 
d="M80 1155v279h280v-279h-280zM33 797v227h321v-797h54v-227h-375v227h55v570h-55z" />
    <glyph glyph-name="j" unicode="j" horiz-adv-x="411" 
d="M80 1155v279h280v-279h-280zM33 797v227h321v-1311l-123 -123h-286l-123 123v205h205v-100h61v979h-55z" />
    <glyph glyph-name="k" unicode="k" horiz-adv-x="872" 
d="M838 0h-379v227h35l-84 152l-56 -66v-86h54v-227h-375v227h55v979h-55v228h321v-775l119 138h-49v227h393v-227h-45l-170 -193l195 -377h41v-227z" />
    <glyph glyph-name="l" unicode="l" horiz-adv-x="440" 
d="M33 1206v228h321v-1207h54v-227h-375v227h55v979h-55z" />
    <glyph glyph-name="m" unicode="m" horiz-adv-x="1214" 
d="M473 0v797h-119v-570h54v-227h-375v227h55v570h-55v227h321v-74l74 74h168l80 -80l80 80h227l143 -143v-654h54v-227h-320v797h-121v-570h56v-227h-322z" />
    <glyph glyph-name="n" unicode="n" horiz-adv-x="860" 
d="M508 0v797h-154v-570h54v-227h-375v227h55v570h-55v227h321v-74l74 74h203l143 -143v-654h53v-227h-319z" />
    <glyph glyph-name="o" unicode="o" 
d="M309 797v-570h154v570h-154zM586 0h-400l-143 143v738l143 143h400l143 -143v-738z" />
    <glyph glyph-name="p" unicode="p" horiz-adv-x="817" 
d="M354 797v-570h154v570h-154zM774 881v-738l-143 -143h-203l-74 74v-256h54v-228h-375v228h55v979h-55v227h321v-74l74 74h203z" />
    <glyph glyph-name="q" unicode="q" horiz-adv-x="817" 
d="M309 797v-570h154v570h-154zM43 143v738l143 143h203l74 -74v74h266v-1206h55v-228h-374v228h53v256l-74 -74h-203z" />
    <glyph glyph-name="r" unicode="r" horiz-adv-x="714" 
d="M467 694v103h-113v-570h54v-227h-375v227h55v570h-55v227h321v-74l74 74h141l113 -113v-217h-215z" />
    <glyph glyph-name="s" unicode="s" horiz-adv-x="759" 
d="M723 479v-336l-143 -143h-400l-143 143v187h246v-103h174v191h-275l-129 127v336l144 143h366l144 -143v-187h-246v103h-142v-191h277z" />
    <glyph glyph-name="t" unicode="t" horiz-adv-x="647" 
d="M33 797v227h102v205h266v-205h215v-227h-215v-570h62v80h155v-184l-122 -123h-238l-123 123v674h-102z" />
    <glyph glyph-name="u" unicode="u" horiz-adv-x="860" 
d="M354 1024v-797h154v570h-55v227h321v-797h53v-227h-319v74l-76 -74h-201l-143 143v654h-55v227h321z" />
    <glyph glyph-name="v" unicode="v" horiz-adv-x="823" 
d="M397 1024v-227h-57l86 -463l84 463h-57v227h350v-227h-53l-152 -797h-373l-151 797h-54v227h377z" />
    <glyph glyph-name="w" unicode="w" horiz-adv-x="1118" 
d="M629 0l-70 522l-67 -522h-365l-66 797h-41v227h340v-227h-51l29 -447l88 674h285l88 -674l28 447h-51v227h322v-227h-41l-66 -797h-362z" />
    <glyph glyph-name="x" unicode="x" horiz-adv-x="800" 
d="M350 227v-227h-330v227h41l172 314l-165 256h-41v227h370v-227h-37l72 -115l57 115h-38v227h323v-227h-41l-166 -303l172 -267h41v-227h-377v227h43l-77 125l-64 -125h45z" />
    <glyph glyph-name="y" unicode="y" horiz-adv-x="823" 
d="M397 1024v-227h-47l76 -271l76 271h-49v227h350v-227h-45l-285 -979h49v-228h-354v228h49l68 239l-219 740h-46v227h377z" />
    <glyph glyph-name="z" unicode="z" horiz-adv-x="704" 
d="M37 694v330h631v-213l-351 -584h152v103h215v-330h-664v213l347 584h-115v-103h-215z" />
    <glyph glyph-name="braceleft" unicode="{" horiz-adv-x="573" 
d="M137 829v658l152 151h203v-225h-89v-616l-79 -80l79 -80v-617h89v-225h-203l-152 152v657h-90v225h90z" />
    <glyph glyph-name="bar" unicode="|" horiz-adv-x="471" 
d="M369 1638v-1843h-267v1843h267z" />
    <glyph glyph-name="braceright" unicode="}" horiz-adv-x="573" 
d="M436 604v-657l-151 -152h-203v225h88v617l80 80l-80 80v616h-88v225h203l151 -151v-658h90v-225h-90z" />
    <glyph glyph-name="asciitilde" unicode="~" horiz-adv-x="778" 
d="M629 588l-359 71v-79h-204v188l81 82l359 -72v80h205v-188z" />
    <glyph glyph-name="uni00A0" unicode="&#xa0;" horiz-adv-x="409" 
 />
    <glyph glyph-name="exclamdown" unicode="&#xa1;" horiz-adv-x="491" 
d="M379 1434v-267h-266v267h266zM344 997l68 -997h-332l67 997h197z" />
    <glyph glyph-name="cent" unicode="&#xa2;" horiz-adv-x="874" 
d="M657 205h-90v-205h-262v205h-90l-143 143v737l143 144h90v205h264v-205h88l144 -144v-225h-246v139h-217v-565h217v139h246v-225z" />
    <glyph glyph-name="sterling" unicode="&#xa3;" horiz-adv-x="874" 
d="M659 809v-188h-229v-392h385v-229h-749v229h98v392h-98v188h98v481l143 144h359l143 -144v-225h-246v139h-133v-395h229z" />
    <glyph glyph-name="yen" unicode="&#xa5;" horiz-adv-x="874" 
d="M98 213v190h211v86h-211v191h162l-233 754h247l170 -586l170 586h234l-236 -754h162v-191h-211v-86h211v-190h-211v-213h-254v213h-211z" />
    <glyph glyph-name="section" unicode="&#xa7;" horiz-adv-x="837" 
d="M516 821h-192v-207h192v207zM782 901v-305l-94 -94l39 -39v-320l-143 -143h-385l-144 143v189h246v-103h160v183h-281l-123 123v305l95 94l-39 39v319l143 144h369l143 -144v-188h-246v100h-143v-180h280z" />
    <glyph glyph-name="dieresis" unicode="&#xa8;" horiz-adv-x="823" 
d="M457 1137v278h278v-278h-278zM90 1137v278h279v-278h-279z" />
    <glyph glyph-name="copyright" unicode="&#xa9;" horiz-adv-x="1185" 
d="M223 133h740v1167h-740v-1167zM1024 0h-862l-82 82v1270l82 82h862l82 -82v-1270zM657 446v162h191v-266l-96 -96h-322l-96 96v750l96 96h322l96 -96v-267h-191v162h-112v-541h112z" />
    <glyph glyph-name="ordfeminine" unicode="&#xaa;" horiz-adv-x="811" 
d="M776 227v-227h-739v227h739zM303 836v-199h154v199h-154zM723 1290v-653h53v-227h-319v73l-74 -73h-203l-143 143v328l143 143h277v182h-154v-102h-246v186l144 144h379z" />
    <glyph glyph-name="uni00AD" unicode="&#xad;" horiz-adv-x="532" 
d="M467 829v-225h-401v225h401z" />
    <glyph glyph-name="registered" unicode="&#xae;" horiz-adv-x="651" 
d="M469 840h-96l-43 157h-37v-157h-100v471h215l47 -49v-207l-35 -35zM293 1212v-116h63v116h-63zM131 782h379v584h-379v-584zM541 717h-441l-30 31v645l41 41h430l41 -41v-635z" />
    <glyph glyph-name="macron" unicode="&#xaf;" horiz-adv-x="823" 
d="M637 1182h-451v225h451v-225z" />
    <glyph glyph-name="degree" unicode="&#xb0;" horiz-adv-x="733" 
d="M473 1016v215h-186v-215h186zM690 1313v-377l-121 -121h-376l-121 121v377l121 121h376z" />
    <glyph glyph-name="plusminus" unicode="&#xb1;" horiz-adv-x="874" 
d="M803 985v-231h-250v-211h-231v211h-250v231h250v213h231v-213h250zM803 467v-231h-731v231h731z" />
    <glyph glyph-name="acute" unicode="&#xb4;" horiz-adv-x="823" 
d="M403 1434h252l-118 -277h-252z" />
    <glyph glyph-name="paragraph" unicode="&#xb6;" horiz-adv-x="864" 
d="M309 1130h158v-1130h-158v410h-114l-144 143v737l144 144h612v-1434h-266v1204h-305v-565h73v491z" />
    <glyph glyph-name="periodcentered" unicode="&#xb7;" horiz-adv-x="491" 
d="M113 584v266h266v-266h-266z" />
    <glyph glyph-name="cedilla" unicode="&#xb8;" horiz-adv-x="823" 
d="M469 -47v-72h92l62 -61v-168l-62 -62h-301v129h219v45h-84l-41 41v148h115z" />
    <glyph glyph-name="ordmasculine" unicode="&#xba;" 
d="M729 227v-227h-686v227h686zM309 1206v-569h154v569h-154zM586 410h-400l-143 143v737l143 144h400l143 -144v-737z" />
    <glyph glyph-name="questiondown" unicode="&#xbf;" horiz-adv-x="845" 
d="M553 1434v-267h-266v267h266zM774 436v-272l-164 -164h-374l-164 164v434l237 193l10 206h199l23 -340l-203 -163v-265h194v207h242z" />
    <glyph glyph-name="Agrave" unicode="&#xc0;" horiz-adv-x="899" 
d="M205 1843h254l119 -276h-254zM432 1100l-65 -479h129zM549 229l-25 170h-186l-23 -170h64v-229h-359v229h60l178 1205h383l176 -1205h62v-229h-394v229h64z" />
    <glyph glyph-name="Aacute" unicode="&#xc1;" horiz-adv-x="899" 
d="M440 1843h252l-119 -276h-251zM432 1100l-65 -479h129zM549 229l-25 170h-186l-23 -170h64v-229h-359v229h60l178 1205h383l176 -1205h62v-229h-394v229h64z" />
    <glyph glyph-name="Acircumflex" unicode="&#xc2;" horiz-adv-x="899" 
d="M289 1843h317l154 -276h-252l-59 106l-60 -106h-252zM432 1100l-65 -479h129zM549 229l-25 170h-186l-23 -170h64v-229h-359v229h60l178 1205h383l176 -1205h62v-229h-394v229h64z" />
    <glyph glyph-name="Atilde" unicode="&#xc3;" horiz-adv-x="899" 
d="M659 1587l-301 51v-71h-204v174l82 82l301 -51v71h204v-174zM432 1100l-65 -479h129zM549 229l-25 170h-186l-23 -170h64v-229h-359v229h60l178 1205h383l176 -1205h62v-229h-394v229h64z" />
    <glyph glyph-name="Adieresis" unicode="&#xc4;" horiz-adv-x="899" 
d="M494 1546v279h278v-279h-278zM127 1546v279h279v-279h-279zM432 1100l-65 -479h129zM549 229l-25 170h-186l-23 -170h64v-229h-359v229h60l178 1205h383l176 -1205h62v-229h-394v229h64z" />
    <glyph glyph-name="Aring" unicode="&#xc5;" horiz-adv-x="899" 
d="M281 1591v191l61 61h213l61 -61v-191l-61 -61h-213zM387 1741v-111h121v111h-121zM432 1100l-65 -479h129zM549 229l-25 170h-186l-23 -170h64v-229h-359v229h60l178 1205h383l176 -1205h62v-229h-394v229h64z" />
    <glyph glyph-name="AE" unicode="&#xc6;" horiz-adv-x="1198" 
d="M547 229l-21 168h-186l-23 -168h64v-229h-361v229h62l176 1205h903v-435h-243v205h-244l53 -362h287v-230h-252l57 -383h99v205h243v-434h-674v229h60zM432 1102l-63 -479h129z" />
    <glyph glyph-name="Ccedilla" unicode="&#xc7;" horiz-adv-x="808" 
d="M461 -47v-72h92l61 -61v-168l-61 -62h-301v129h219v45h-84l-41 41v148h115zM614 0h-417l-146 145v1145l146 144h417l144 -144v-291h-244v205h-197v-975h197v205h244v-289z" />
    <glyph glyph-name="Egrave" unicode="&#xc8;" horiz-adv-x="821" 
d="M166 1843h254l119 -276h-254zM784 0h-749v229h69v975h-69v230h749v-437h-243v207h-170v-362h266v-230h-266v-383h170v207h243v-436z" />
    <glyph glyph-name="Eacute" unicode="&#xc9;" horiz-adv-x="821" 
d="M401 1843h252l-118 -276h-252zM784 0h-749v229h69v975h-69v230h749v-437h-243v207h-170v-362h266v-230h-266v-383h170v207h243v-436z" />
    <glyph glyph-name="Ecircumflex" unicode="&#xca;" horiz-adv-x="821" 
d="M250 1843h317l154 -276h-252l-59 106l-60 -106h-252zM784 0h-749v229h69v975h-69v230h749v-437h-243v207h-170v-362h266v-230h-266v-383h170v207h243v-436z" />
    <glyph glyph-name="Edieresis" unicode="&#xcb;" horiz-adv-x="821" 
d="M455 1546v279h278v-279h-278zM88 1546v279h279v-279h-279zM784 0h-749v229h69v975h-69v230h749v-437h-243v207h-170v-362h266v-230h-266v-383h170v207h243v-436z" />
    <glyph glyph-name="Igrave" unicode="&#xcc;" horiz-adv-x="473" 
d="M-8 1843h254l119 -276h-254zM371 1204v-975h67v-229h-403v229h69v975h-69v230h403v-230h-67z" />
    <glyph glyph-name="Iacute" unicode="&#xcd;" horiz-adv-x="473" 
d="M227 1843h252l-119 -276h-251zM371 1204v-975h67v-229h-403v229h69v975h-69v230h403v-230h-67z" />
    <glyph glyph-name="Icircumflex" unicode="&#xce;" horiz-adv-x="473" 
d="M76 1843h317l154 -276h-252l-59 106l-60 -106h-252zM371 1204v-975h67v-229h-403v229h69v975h-69v230h403v-230h-67z" />
    <glyph glyph-name="Idieresis" unicode="&#xcf;" horiz-adv-x="473" 
d="M281 1546v279h278v-279h-278zM-86 1546v279h279v-279h-279zM371 1204v-975h67v-229h-403v229h69v975h-69v230h403v-230h-67z" />
    <glyph glyph-name="Eth" unicode="&#xd0;" horiz-adv-x="872" 
d="M821 1290v-1145l-145 -145h-641v229h69v375h-69v225h69v375h-69v230h641zM371 604v-375h184v975h-184v-375h123v-225h-123z" />
    <glyph glyph-name="Ntilde" unicode="&#xd1;" horiz-adv-x="929" 
d="M676 1587l-301 51v-71h-205v174l82 82l301 -51v71h205v-174zM895 1434v-230h-70v-1204h-264l-233 752v-523h67v-229h-360v229h69v975h-69v230h332l235 -754v524h-67v230h360z" />
    <glyph glyph-name="Ograve" unicode="&#xd2;" horiz-adv-x="819" 
d="M166 1843h254l119 -276h-254zM502 229v975h-185v-975h185zM768 1290v-1145l-143 -145h-428l-146 145v1145l146 144h428z" />
    <glyph glyph-name="Oacute" unicode="&#xd3;" horiz-adv-x="819" 
d="M401 1843h252l-118 -276h-252zM502 229v975h-185v-975h185zM768 1290v-1145l-143 -145h-428l-146 145v1145l146 144h428z" />
    <glyph glyph-name="Ocircumflex" unicode="&#xd4;" horiz-adv-x="819" 
d="M250 1843h317l154 -276h-252l-59 106l-60 -106h-252zM502 229v975h-185v-975h185zM768 1290v-1145l-143 -145h-428l-146 145v1145l146 144h428z" />
    <glyph glyph-name="Otilde" unicode="&#xd5;" horiz-adv-x="819" 
d="M621 1587l-302 51v-71h-204v174l82 82l301 -51v71h204v-174zM502 229v975h-185v-975h185zM768 1290v-1145l-143 -145h-428l-146 145v1145l146 144h428z" />
    <glyph glyph-name="Odieresis" unicode="&#xd6;" horiz-adv-x="819" 
d="M455 1546v279h278v-279h-278zM88 1546v279h279v-279h-279zM502 229v975h-185v-975h185zM768 1290v-1145l-143 -145h-428l-146 145v1145l146 144h428z" />
    <glyph glyph-name="multiply" unicode="&#xd7;" horiz-adv-x="874" 
d="M55 936l162 164l219 -219l219 219l164 -164l-219 -219l219 -219l-164 -164l-219 219l-219 -219l-162 164l217 219z" />
    <glyph glyph-name="Oslash" unicode="&#xd8;" horiz-adv-x="819" 
d="M768 1290v-1147l-143 -143h-379l-33 -102h-127l51 159l-86 86v1147l144 144h378l33 102h127l-51 -160zM317 1204v-579l183 579h-183zM317 229h185v578z" />
    <glyph glyph-name="Ugrave" unicode="&#xd9;" horiz-adv-x="915" 
d="M215 1843h254l119 -276h-254zM492 1204v230h391v-230h-70v-1059l-143 -145h-422l-144 145v1059h-69v230h401v-230h-69v-975h194v975h-69z" />
    <glyph glyph-name="Uacute" unicode="&#xda;" horiz-adv-x="915" 
d="M451 1843h251l-118 -276h-252zM492 1204v230h391v-230h-70v-1059l-143 -145h-422l-144 145v1059h-69v230h401v-230h-69v-975h194v975h-69z" />
    <glyph glyph-name="Ucircumflex" unicode="&#xdb;" horiz-adv-x="915" 
d="M299 1843h317l154 -276h-252l-59 106l-60 -106h-252zM492 1204v230h391v-230h-70v-1059l-143 -145h-422l-144 145v1059h-69v230h401v-230h-69v-975h194v975h-69z" />
    <glyph glyph-name="Udieresis" unicode="&#xdc;" horiz-adv-x="915" 
d="M504 1546v279h278v-279h-278zM137 1546v279h279v-279h-279zM492 1204v230h391v-230h-70v-1059l-143 -145h-422l-144 145v1059h-69v230h401v-230h-69v-975h194v975h-69z" />
    <glyph glyph-name="Yacute" unicode="&#xdd;" horiz-adv-x="862" 
d="M422 1843h252l-119 -276h-252zM635 229v-229h-406v229h70v271l-225 704h-51v230h385v-230h-62l98 -325l97 325h-60v230h359v-230h-52l-223 -696v-279h70z" />
    <glyph glyph-name="Thorn" unicode="&#xde;" horiz-adv-x="872" 
d="M371 1204v-90h305l145 -143v-510l-145 -144h-305v-88h67v-229h-403v229h69v975h-69v230h403v-230h-67zM371 885v-338h184v338h-184z" />
    <glyph glyph-name="germandbls" unicode="&#xdf;" horiz-adv-x="1140" 
d="M791 1024v180h-416v-975h74v-229h-414v229h74v1096l106 109h666l106 -109v-422l-106 -108h-109v-195h203l123 -123v-334l-144 -143h-311l-143 143v189h245v-103h86v195h-202l-123 123v334l143 143h142z" />
    <glyph glyph-name="agrave" unicode="&#xe0;" horiz-adv-x="811" 
d="M162 1434h254l119 -277h-254zM303 426v-199h154v199h-154zM723 881v-654h53v-227h-319v74l-74 -74h-203l-143 143v328l143 143h277v183h-154v-103h-246v187l144 143h379z" />
    <glyph glyph-name="aacute" unicode="&#xe1;" horiz-adv-x="811" 
d="M397 1434h252l-119 -277h-251zM303 426v-199h154v199h-154zM723 881v-654h53v-227h-319v74l-74 -74h-203l-143 143v328l143 143h277v183h-154v-103h-246v187l144 143h379z" />
    <glyph glyph-name="acircumflex" unicode="&#xe2;" horiz-adv-x="811" 
d="M246 1434h317l154 -277h-252l-59 107l-60 -107h-252zM303 426v-199h154v199h-154zM723 881v-654h53v-227h-319v74l-74 -74h-203l-143 143v328l143 143h277v183h-154v-103h-246v187l144 143h379z" />
    <glyph glyph-name="atilde" unicode="&#xe3;" horiz-adv-x="811" 
d="M616 1178l-301 51v-72h-204v174l82 82l301 -51v72h204v-174zM303 426v-199h154v199h-154zM723 881v-654h53v-227h-319v74l-74 -74h-203l-143 143v328l143 143h277v183h-154v-103h-246v187l144 143h379z" />
    <glyph glyph-name="adieresis" unicode="&#xe4;" horiz-adv-x="811" 
d="M451 1137v278h278v-278h-278zM84 1137v278h278v-278h-278zM303 426v-199h154v199h-154zM723 881v-654h53v-227h-319v74l-74 -74h-203l-143 143v328l143 143h277v183h-154v-103h-246v187l144 143h379z" />
    <glyph glyph-name="aring" unicode="&#xe5;" horiz-adv-x="811" 
d="M238 1182v190l61 62h213l61 -62v-190l-61 -62h-213zM344 1331v-110h121v110h-121zM303 426v-199h154v199h-154zM723 881v-654h53v-227h-319v74l-74 -74h-203l-143 143v328l143 143h277v183h-154v-103h-246v187l144 143h379z" />
    <glyph glyph-name="ae" unicode="&#xe6;" horiz-adv-x="1185" 
d="M594 946l78 78h325l144 -143v-457h-420v-195h174v103h246v-189l-144 -143h-325l-78 76l-76 -76h-340l-143 143v316l143 143h277v193h-154v-101h-246v187l144 143h319zM301 426v-197h154v197h-154zM721 795v-195h153v195h-153z" />
    <glyph glyph-name="ccedilla" unicode="&#xe7;" horiz-adv-x="759" 
d="M436 -47v-72h92l62 -61v-168l-62 -62h-301v129h219v45h-84l-40 41v148h114zM573 0h-387l-143 143v738l143 143h387l144 -143v-267h-246v183h-162v-570h162v183h246v-267z" />
    <glyph glyph-name="egrave" unicode="&#xe8;" 
d="M141 1434h254l119 -277h-254zM309 797v-191h154v191h-154zM43 143v738l143 143h400l143 -143v-463h-420v-191h174v103h246v-187l-143 -143h-400z" />
    <glyph glyph-name="eacute" unicode="&#xe9;" 
d="M377 1434h252l-119 -277h-252zM309 797v-191h154v191h-154zM43 143v738l143 143h400l143 -143v-463h-420v-191h174v103h246v-187l-143 -143h-400z" />
    <glyph glyph-name="ecircumflex" unicode="&#xea;" 
d="M225 1434h318l153 -277h-252l-59 107l-59 -107h-252zM309 797v-191h154v191h-154zM43 143v738l143 143h400l143 -143v-463h-420v-191h174v103h246v-187l-143 -143h-400z" />
    <glyph glyph-name="edieresis" unicode="&#xeb;" 
d="M430 1137v278h279v-278h-279zM63 1137v278h279v-278h-279zM309 797v-191h154v191h-154zM43 143v738l143 143h400l143 -143v-463h-420v-191h174v103h246v-187l-143 -143h-400z" />
    <glyph glyph-name="igrave" unicode="&#xec;" horiz-adv-x="440" 
d="M-23 1434h254l119 -277h-254zM33 797v227h321v-797h54v-227h-375v227h55v570h-55z" />
    <glyph glyph-name="iacute" unicode="&#xed;" horiz-adv-x="440" 
d="M213 1434h252l-119 -277h-252zM33 797v227h321v-797h54v-227h-375v227h55v570h-55z" />
    <glyph glyph-name="icircumflex" unicode="&#xee;" horiz-adv-x="440" 
d="M61 1434h318l153 -277h-251l-60 107l-59 -107h-252zM33 797v227h321v-797h54v-227h-375v227h55v570h-55z" />
    <glyph glyph-name="idieresis" unicode="&#xef;" horiz-adv-x="440" 
d="M266 1137v278h279v-278h-279zM-100 1137v278h278v-278h-278zM33 797v227h321v-797h54v-227h-375v227h55v570h-55z" />
    <glyph glyph-name="eth" unicode="&#xf0;" 
d="M309 797v-570h154v570h-154zM514 1434v-111l-84 -43l299 -297v-840l-143 -143h-400l-143 143v738l143 143h191l-154 152l-180 -91v111l107 53l-183 185h312l77 -80z" />
    <glyph glyph-name="ntilde" unicode="&#xf1;" horiz-adv-x="860" 
d="M641 1178l-301 51v-72h-205v174l82 82l301 -51v72h205v-174zM508 0v797h-154v-570h54v-227h-375v227h55v570h-55v227h321v-74l74 74h203l143 -143v-654h53v-227h-319z" />
    <glyph glyph-name="ograve" unicode="&#xf2;" 
d="M141 1434h254l119 -277h-254zM309 797v-570h154v570h-154zM586 0h-400l-143 143v738l143 143h400l143 -143v-738z" />
    <glyph glyph-name="oacute" unicode="&#xf3;" 
d="M377 1434h252l-119 -277h-252zM309 797v-570h154v570h-154zM586 0h-400l-143 143v738l143 143h400l143 -143v-738z" />
    <glyph glyph-name="ocircumflex" unicode="&#xf4;" 
d="M225 1434h318l153 -277h-252l-59 107l-59 -107h-252zM309 797v-570h154v570h-154zM586 0h-400l-143 143v738l143 143h400l143 -143v-738z" />
    <glyph glyph-name="otilde" unicode="&#xf5;" 
d="M596 1178l-301 51v-72h-205v174l82 82l301 -51v72h205v-174zM309 797v-570h154v570h-154zM586 0h-400l-143 143v738l143 143h400l143 -143v-738z" />
    <glyph glyph-name="odieresis" unicode="&#xf6;" 
d="M430 1137v278h279v-278h-279zM63 1137v278h279v-278h-279zM309 797v-570h154v570h-154zM586 0h-400l-143 143v738l143 143h400l143 -143v-738z" />
    <glyph glyph-name="divide" unicode="&#xf7;" horiz-adv-x="874" 
d="M303 270v267h266v-267h-266zM303 897v266h266v-266h-266zM803 831v-229h-731v229h731z" />
    <glyph glyph-name="oslash" unicode="&#xf8;" 
d="M563 1024l47 102h113l-74 -163l82 -82v-738l-143 -143h-377l-45 -102h-113l74 163l-82 82v738l143 143h375zM311 795v-328l148 328h-148zM315 229h150v328z" />
    <glyph glyph-name="ugrave" unicode="&#xf9;" horiz-adv-x="860" 
d="M186 1434h254l119 -277h-254zM354 1024v-797h154v570h-55v227h321v-797h53v-227h-319v74l-76 -74h-201l-143 143v654h-55v227h321z" />
    <glyph glyph-name="uacute" unicode="&#xfa;" horiz-adv-x="860" 
d="M422 1434h252l-119 -277h-252zM354 1024v-797h154v570h-55v227h321v-797h53v-227h-319v74l-76 -74h-201l-143 143v654h-55v227h321z" />
    <glyph glyph-name="ucircumflex" unicode="&#xfb;" horiz-adv-x="860" 
d="M270 1434h318l153 -277h-252l-59 107l-59 -107h-252zM354 1024v-797h154v570h-55v227h321v-797h53v-227h-319v74l-76 -74h-201l-143 143v654h-55v227h321z" />
    <glyph glyph-name="udieresis" unicode="&#xfc;" horiz-adv-x="860" 
d="M475 1137v278h279v-278h-279zM109 1137v278h278v-278h-278zM354 1024v-797h154v570h-55v227h321v-797h53v-227h-319v74l-76 -74h-201l-143 143v654h-55v227h321z" />
    <glyph glyph-name="yacute" unicode="&#xfd;" horiz-adv-x="823" 
d="M403 1434h252l-118 -277h-252zM397 1024v-227h-47l76 -271l76 271h-49v227h350v-227h-45l-285 -979h49v-228h-354v228h49l68 239l-219 740h-46v227h377z" />
    <glyph glyph-name="thorn" unicode="&#xfe;" horiz-adv-x="817" 
d="M354 795v-566h154v566h-154zM774 881v-738l-143 -143h-209l-68 68v-250h54v-228h-373v228h53v1388h-53v228h319v-478l68 68h209z" />
    <glyph glyph-name="ydieresis" unicode="&#xff;" horiz-adv-x="823" 
d="M457 1137v278h278v-278h-278zM90 1137v278h279v-278h-279zM397 1024v-227h-47l76 -271l76 271h-49v227h350v-227h-45l-285 -979h49v-228h-354v228h49l68 239l-219 740h-46v227h377z" />
    <glyph glyph-name="OE" unicode="&#x152;" horiz-adv-x="1220" 
d="M502 229v975h-185v-975h185zM1182 0h-987l-144 143v1147l144 144h987v-435h-242v205h-172v-362h266v-230h-266v-383h172v205h242v-434z" />
    <glyph glyph-name="oe" unicode="&#x153;" horiz-adv-x="1196" 
d="M526 0h-338l-143 143v738l143 143h338l78 -78l78 78h326l143 -143v-457h-420v-195h174v103h246v-189l-143 -143h-326l-78 78zM311 795v-566h154v566h-154zM731 795v-195h154v195h-154z" />
    <glyph glyph-name="Ydieresis" unicode="&#x178;" horiz-adv-x="862" 
d="M475 1546v279h279v-279h-279zM109 1546v279h278v-279h-278zM635 229v-229h-406v229h70v271l-225 704h-51v230h385v-230h-62l98 -325l97 325h-60v230h359v-230h-52l-223 -696v-279h70z" />
    <glyph glyph-name="circumflex" unicode="&#x2c6;" horiz-adv-x="823" 
d="M252 1434h317l154 -277h-252l-59 107l-60 -107h-252z" />
    <glyph glyph-name="ring" unicode="&#x2da;" horiz-adv-x="823" 
d="M244 1182v190l61 62h213l62 -62v-190l-62 -62h-213zM350 1331v-110h121v110h-121z" />
    <glyph glyph-name="tilde" unicode="&#x2dc;" horiz-adv-x="823" 
d="M623 1178l-301 51v-72h-205v174l82 82l301 -51v72h205v-174z" />
    <glyph glyph-name="Alpha" unicode="&#x391;" horiz-adv-x="899" 
d="M432 1100l-65 -479h129zM549 229l-25 170h-186l-23 -170h64v-229h-359v229h60l178 1205h383l176 -1205h62v-229h-394v229h64z" />
    <glyph glyph-name="Beta" unicode="&#x392;" horiz-adv-x="872" 
d="M371 1204v-362h164v362h-164zM371 612v-383h184v383h-184zM821 645v-500l-145 -145h-641v229h69v975h-69v230h620l144 -144v-481l-72 -72z" />
    <glyph glyph-name="Gamma" unicode="&#x393;" horiz-adv-x="776" 
d="M371 1204v-975h67v-229h-403v229h69v975h-69v230h708v-437h-243v207h-129z" />
    <glyph glyph-name="Delta" unicode="&#x394;" horiz-adv-x="899" 
d="M432 1100l-149 -871h299zM858 0h-817v168l217 1266h383l217 -1266v-168z" />
    <glyph glyph-name="Epsilon" unicode="&#x395;" horiz-adv-x="821" 
d="M784 0h-749v229h69v975h-69v230h749v-437h-243v207h-170v-362h266v-230h-266v-383h170v207h243v-436z" />
    <glyph glyph-name="Zeta" unicode="&#x396;" horiz-adv-x="788" 
d="M754 0h-719v250l446 954h-200v-207h-230v437h692v-250l-446 -955h227v207h230v-436z" />
    <glyph glyph-name="Eta" unicode="&#x397;" horiz-adv-x="929" 
d="M492 0v229h69v383h-190v-383h67v-229h-403v229h69v975h-69v230h403v-230h-67v-362h190v362h-69v230h403v-230h-68v-975h68v-229h-403z" />
    <glyph glyph-name="Theta" unicode="&#x398;" horiz-adv-x="819" 
d="M768 1290v-1145l-143 -145h-428l-146 145v1145l146 144h428zM317 229h185v383h-185v-383zM502 842v362h-185v-362h185z" />
    <glyph glyph-name="Iota" unicode="&#x399;" horiz-adv-x="473" 
d="M371 1204v-975h67v-229h-403v229h69v975h-69v230h403v-230h-67z" />
    <glyph glyph-name="Kappa" unicode="&#x39a;" horiz-adv-x="962" 
d="M915 229v-229h-405v229h55l-114 326l-80 -158v-168h67v-229h-403v229h69v975h-69v230h403v-230h-67v-387l202 387h-59v230h379v-230h-62l-198 -360l219 -615h63z" />
    <glyph glyph-name="Lambda" unicode="&#x39b;" horiz-adv-x="899" 
d="M432 1100l-115 -871h62v-229h-359v229h62l176 1205h383l178 -1205h60v-229h-394v229h64z" />
    <glyph glyph-name="Mu" unicode="&#x39c;" horiz-adv-x="1163" 
d="M479 266l-145 539v-576h67v-229h-366v229h69v975h-69v230h356l187 -658l186 658h364v-230h-69v-975h69v-229h-403v229h68v594l-150 -557h-164z" />
    <glyph glyph-name="Nu" unicode="&#x39d;" horiz-adv-x="929" 
d="M895 1434v-230h-70v-1204h-264l-233 752v-523h67v-229h-360v229h69v975h-69v230h332l235 -754v524h-67v230h360z" />
    <glyph glyph-name="Xi" unicode="&#x39e;" horiz-adv-x="821" 
d="M715 612h-611v230h611v-230zM541 1204h-262v-207h-244v437h749v-437h-243v207zM279 436v-207h262v207h243v-436h-749v436h244z" />
    <glyph glyph-name="Omicron" unicode="&#x39f;" horiz-adv-x="819" 
d="M502 229v975h-185v-975h185zM768 1290v-1145l-143 -145h-428l-146 145v1145l146 144h428z" />
    <glyph glyph-name="Pi" unicode="&#x3a0;" horiz-adv-x="929" 
d="M561 1204h-190v-975h67v-229h-403v229h69v975h-69v230h860v-230h-68v-975h68v-229h-403v229h69v975z" />
    <glyph glyph-name="Rho" unicode="&#x3a1;" horiz-adv-x="872" 
d="M371 1204v-461h184v461h-184zM371 514v-285h67v-229h-403v229h69v975h-69v230h641l145 -144v-633l-145 -143h-305z" />
    <glyph glyph-name="Sigma" unicode="&#x3a3;" horiz-adv-x="788" 
d="M307 1204l273 -407v-140l-283 -428h227v207h230v-436h-719v285l293 444l-283 422v283h709v-437h-230v207h-217z" />
    <glyph glyph-name="Tau" unicode="&#x3a4;" horiz-adv-x="937" 
d="M27 997v437h884v-437h-223v207h-86v-975h68v-229h-402v229h68v975h-86v-207h-223z" />
    <glyph glyph-name="Upsilon" unicode="&#x3a5;" horiz-adv-x="862" 
d="M635 229v-229h-406v229h70v271l-225 704h-51v230h385v-230h-62l98 -325l97 325h-60v230h359v-230h-52l-223 -696v-279h70z" />
    <glyph glyph-name="Phi" unicode="&#x3a6;" horiz-adv-x="1105" 
d="M420 547v338h-103v-338h103zM352 0v229h68v88h-223l-146 144v510l146 143h223v90h-68v230h402v-230h-68v-90h223l146 -143v-510l-146 -144h-223v-88h68v-229h-402zM686 885v-338h102v338h-102z" />
    <glyph glyph-name="Chi" unicode="&#x3a7;" horiz-adv-x="911" 
d="M510 1204v230h367v-230h-58l-221 -471l229 -504h56v-229h-402v229h58l-103 242l-104 -242h57v-229h-369v229h58l233 496l-221 479h-55v230h401v-230h-59l94 -217l94 217h-55z" />
    <glyph glyph-name="Psi" unicode="&#x3a8;" horiz-adv-x="1159" 
d="M1081 1204v-547l-145 -143h-223v-285h67v-229h-401v229h67v285h-223l-145 143v547h-55v230h176l145 -144v-547h102v461h-67v230h401v-230h-67v-461h102v547l146 144h176v-230h-56z" />
    <glyph glyph-name="Omega" unicode="&#x3a9;" horiz-adv-x="929" 
d="M764 229h131v-229h-403v229l102 418v557h-258v-557l102 -418v-229h-403v229h129l-94 383v678l145 144h502l143 -144v-678z" />
    <glyph glyph-name="uni2000" unicode="&#x2000;" horiz-adv-x="921" 
 />
    <glyph glyph-name="uni2001" unicode="&#x2001;" horiz-adv-x="1843" 
 />
    <glyph glyph-name="uni2002" unicode="&#x2002;" horiz-adv-x="921" 
 />
    <glyph glyph-name="uni2003" unicode="&#x2003;" horiz-adv-x="1843" 
 />
    <glyph glyph-name="uni2004" unicode="&#x2004;" horiz-adv-x="614" 
 />
    <glyph glyph-name="uni2005" unicode="&#x2005;" horiz-adv-x="460" 
 />
    <glyph glyph-name="uni2006" unicode="&#x2006;" horiz-adv-x="307" 
 />
    <glyph glyph-name="uni2007" unicode="&#x2007;" horiz-adv-x="307" 
 />
    <glyph glyph-name="uni2008" unicode="&#x2008;" horiz-adv-x="230" 
 />
    <glyph glyph-name="uni2009" unicode="&#x2009;" horiz-adv-x="368" 
 />
    <glyph glyph-name="uni200A" unicode="&#x200a;" horiz-adv-x="102" 
 />
    <glyph glyph-name="uni2010" unicode="&#x2010;" horiz-adv-x="532" 
d="M467 829v-225h-401v225h401z" />
    <glyph glyph-name="uni2011" unicode="&#x2011;" horiz-adv-x="532" 
d="M467 829v-225h-401v225h401z" />
    <glyph glyph-name="figuredash" unicode="&#x2012;" horiz-adv-x="532" 
d="M467 829v-225h-401v225h401z" />
    <glyph glyph-name="endash" unicode="&#x2013;" horiz-adv-x="716" 
d="M651 829v-225h-585v225h585z" />
    <glyph glyph-name="emdash" unicode="&#x2014;" horiz-adv-x="1433" 
d="M1368 829v-225h-1302v225h1302z" />
    <glyph glyph-name="quoteleft" unicode="&#x2018;" horiz-adv-x="477" 
d="M49 907v254l133 273h250l-117 -240v-287h-266z" />
    <glyph glyph-name="quoteright" unicode="&#x2019;" horiz-adv-x="477" 
d="M428 1434v-252l-133 -275h-252l119 242v285h266z" />
    <glyph glyph-name="quotesinglbase" unicode="&#x201a;" horiz-adv-x="477" 
d="M385 272v-252l-133 -274h-250l117 242v284h266z" />
    <glyph glyph-name="quotedblleft" unicode="&#x201c;" horiz-adv-x="833" 
d="M406 907v254l133 273h249l-116 -240v-287h-266zM49 907v254l133 273h250l-117 -240v-287h-266z" />
    <glyph glyph-name="quotedblright" unicode="&#x201d;" horiz-adv-x="833" 
d="M782 1434v-252l-133 -275h-250l117 242v285h266zM428 1434v-252l-133 -275h-250l117 242v285h266z" />
    <glyph glyph-name="quotedblbase" unicode="&#x201e;" horiz-adv-x="833" 
d="M741 272v-252l-133 -274h-250l117 242v284h266zM385 272v-252l-133 -274h-250l117 242v284h266z" />
    <glyph glyph-name="bullet" unicode="&#x2022;" horiz-adv-x="614" 
d="M133 543v348h348v-348h-348z" />
    <glyph glyph-name="ellipsis" unicode="&#x2026;" horiz-adv-x="1433" 
d="M582 0v266h266v-266h-266zM1040 0v266h267v-266h-267zM127 0v266h266v-266h-266z" />
    <glyph glyph-name="uni202F" unicode="&#x202f;" horiz-adv-x="368" 
 />
    <glyph glyph-name="uni205F" unicode="&#x205f;" horiz-adv-x="460" 
 />
    <glyph glyph-name="Euro" unicode="&#x20ac;" horiz-adv-x="874" 
d="M659 674l-57 -191h-172v-254h139v140h246v-226l-143 -143h-365l-143 143v340h-98v191h98v86h-98v190h98v340l143 144h365l143 -144v-225h-246v139h-139v-254h313l-57 -190h-256v-86h229z" />
    <glyph glyph-name="trademark" unicode="&#x2122;" horiz-adv-x="987" 
d="M651 850l-76 289v-422h-108v717h133l96 -347l95 347h137v-717h-121v430l-78 -297h-78zM55 1327v107h344v-107h-110v-610h-123v610h-111z" />
    <glyph glyph-name="uni25FC" unicode="&#x25fc;" horiz-adv-x="1024" 
d="M0 1024h1024v-1024h-1024v1024z" />
  </font>
</defs>
</svg>
