<svg xmlns="http://www.w3.org/2000/svg" width="55" height="17" viewBox="0 0 55 17">
    <path fill="#F39" fill-rule="nonzero" d="M.016.085C3.437.095 6.86.09 10.283.087c.944 1.02 1.904 2.023 2.842 3.043a721.41 721.41 0 0 0 0 5.434c-.94.988-1.89 1.959-2.807 2.97-1.396.04-2.794 0-4.19.017.006.28.004.561 0 .834.417 0 .833 0 1.25-.008-.004 1.493 0 2.979-.002 4.472-2.454-.008-4.907 0-7.36-.008.008-1.494.008-2.979 0-4.472h1.18c.004-2.609.004-5.217 0-7.826-.393-.008-.785 0-1.178-.008C.02 3.034.026 1.532.015.039l.001.046zm14.618.003c2.436.003 4.872 0 7.31 0-.005 1.5-.001 2.998-.002 4.496-.382 0-.765-.002-1.148 0-.008 2.608.012 5.217-.01 7.825.393-.003.778-.003 1.164-.002v4.469h-7.305c.008-1.49.008-2.978 0-4.468.393-.003.786-.004 1.18.001.016-2.608 0-5.217.008-7.826-.394-.008-.795 0-1.188-.008.008-1.501.016-2.994 0-4.496l-.01.01zM23.456.08c2.016.008 4.033 0 6.053.006 1.268 2.426 2.56 4.845 3.837 7.27.042.077.098.148.152.219.008-1.092 0-2.182.006-3.273-.39.008-.78 0-1.17 0-.009-1.413 0-2.818-.009-4.23 2.176 0 4.343.007 6.519-.009.016 1.502.024 3.003-.009 4.504-.369 0-.738-.008-1.107 0-.016 4.094.008 8.196-.016 12.29-1.461-.016-2.914.016-4.375-.016-1.421-2.674-2.898-5.315-4.335-7.98-.072-.12-.128-.256-.24-.337-.009 1.34 0 2.681-.009 4.022.466.008.94 0 1.405 0 0 1.429-.008 2.858 0 4.287H23.44c.008-1.494.008-2.979 0-4.472h1.18V4.535c-.393-.008-.787 0-1.18-.008.008-1.501.008-2.995 0-4.496l.016.05zm16.673 0h6.883c-.008 1.36-.012 2.72.003 4.078-.246.008-.49.01-.73.013 0 .65.004 1.3 0 1.952.502-.546.978-1.118 1.476-1.67.075-.081.137-.176.193-.272l-.261-.016c-.002-1.363.005-2.725-.003-4.086 2.404.004 4.809.005 7.212 0-.008 1.498 0 2.996-.002 4.495-.65.003-1.309-.002-1.967.002-.658.69-1.3 1.397-1.967 2.071-.072.097-.248.193-.152.338.819 1.806 1.63 3.612 2.448 5.418.554 0 1.1.008 1.646 0v4.48h-7.2c0-1.422.007-2.842 0-4.263.336.008.674.008 1.01.008-.336-.739-.65-1.485-.987-2.224l-.072-.016c-.522.554-1.043 1.116-1.581 1.662l.008.594h.954v4.27h-6.903c0-1.485 0-2.978.008-4.47.393 0 .778.007 1.172.007-.008-2.609 0-5.218 0-7.826-.386-.008-.779.016-1.172-.017.008-1.493.008-2.986 0-4.479L40.129.08z"/>
</svg>
