<svg xmlns="http://www.w3.org/2000/svg" xmlns:xlink="http://www.w3.org/1999/xlink" width="40" height="40" viewBox="0 0 40 40">
    <defs>
        <path id="prefix__a" d="M14.551 12.014c-.248-.124-1.469-.725-1.696-.808-.228-.083-.393-.124-.559.125-.165.248-.641.807-.786.973-.145.165-.29.186-.538.062-.248-.124-1.048-.386-1.997-1.232-.738-.658-1.236-1.471-1.381-1.72-.145-.248-.016-.383.109-.506.111-.111.248-.29.372-.435.124-.145.166-.249.248-.414.083-.166.042-.31-.02-.435-.062-.124-.559-1.346-.766-1.843-.201-.484-.406-.419-.558-.426-.145-.007-.31-.009-.476-.009-.166 0-.435.062-.663.31-.227.25-.869.85-.869 2.071 0 1.222.89 2.402 1.014 2.568.124.166 1.751 2.673 4.242 3.748.592.256 1.055.409 1.416.523.594.189 1.136.162 1.563.098.478-.07 1.47-.6 1.676-1.18.207-.58.207-1.077.145-1.18-.062-.104-.227-.166-.476-.29m-4.53 6.184h-.003c-1.483 0-2.936-.399-4.204-1.151l-.302-.18-3.126.82.834-3.046-.196-.313c-.827-1.314-1.263-2.834-1.263-4.394.002-4.552 3.707-8.256 8.263-8.256 2.206 0 4.28.86 5.84 2.421 1.559 1.561 2.417 3.636 2.416 5.842-.001 4.553-3.707 8.257-8.26 8.257m7.03-15.285C15.174 1.036 12.68.001 10.02 0 4.544 0 .087 4.456.084 9.934c0 1.75.457 3.46 1.327 4.966L0 20.048l5.268-1.381c1.451.79 3.086 1.208 4.749 1.209h.004c5.477 0 9.935-4.457 9.937-9.934.001-2.655-1.031-5.15-2.908-7.029"/>
    </defs>
    <g fill="none" fill-rule="evenodd" transform="translate(10 10)">
        <mask id="prefix__b" fill="#fff">
            <use xlink:href="#prefix__a"/>
        </mask>
        <use fill="#FFF" xlink:href="#prefix__a"/>
        <g fill="#000" mask="url(#prefix__b)">
            <path d="M0 0H40V40H0z" transform="rotate(-180 15 15)"/>
        </g>
    </g>
</svg>
