<svg xmlns="http://www.w3.org/2000/svg" xmlns:xlink="http://www.w3.org/1999/xlink" width="40" height="40" viewBox="0 0 40 40">
    <defs>
        <path id="prefix__a" d="M10.683 20h-9.58C.495 20 0 19.506 0 18.896V1.104C0 .494.494 0 1.104 0h17.792C19.506 0 20 .494 20 1.104v17.792c0 .61-.494 1.104-1.104 1.104H13.8v-7.745h2.6l.389-3.019h-2.99V7.31c0-.873.243-1.469 1.497-1.469h1.598v-2.7c-.277-.037-1.225-.12-2.33-.12-2.304 0-3.881 1.407-3.881 3.99v2.226H8.076v3.019h2.607V20z"/>
    </defs>
    <g fill="none" fill-rule="evenodd" transform="translate(10 10)">
        <mask id="prefix__b" fill="#fff">
            <use xlink:href="#prefix__a"/>
        </mask>
        <use fill="#4460A0" xlink:href="#prefix__a"/>
        <g fill="#000" mask="url(#prefix__b)">
            <path d="M0 0H40V40H0z" transform="rotate(-180 15 15)"/>
        </g>
    </g>
</svg>
