<svg xmlns="http://www.w3.org/2000/svg" width="291" height="43" viewBox="0 0 291 43">
    <g>
        <path d="M2.73 18.503c0-1.68 0-1.9-1.166-2.656l-.384-.259c-.183-.232-.166-.564.04-.777 1.493-.639 2.922-1.42 4.267-2.33.222-.03.436.096.517.305-.091.661-.149 1.326-.172 1.992 0 .299.086.558.384.558.564-.26 3.274-2.025 6.03-2.025 4.355 0 7.152 3.538 7.152 7.894 0 5.975-4.394 10.316-10.511 10.316-.792 0-1.583-.057-2.366-.172-.39.086-.603.299-.603 1.208v4.528c0 3.067.086 3.452 1.637 3.671l1.677.212c.136.153.204.356.188.56-.017.204-.116.393-.275.523-2.067-.087-3.313-.133-4.824-.133-1.511 0-2.843.046-4.05.133-.155-.132-.252-.32-.268-.523-.016-.204.05-.405.183-.56l.907-.126c1.591-.219 1.637-.664 1.637-3.757V18.503zm3.188 7.966c-.08 1.044.432 2.045 1.325 2.59.92.613 1.998.943 3.102.949 3.532 0 5.6-3.28 5.6-7.768 0-3.452-1.942-6.944-5.819-6.944-1.327-.071-2.633.36-3.658 1.208-.391.472-.517 1.122-.517 2.543l-.033 7.422zM40.783 22.18c0 5.398-3.704 9.295-9.086 9.295-4.957 0-8.834-3.499-8.834-8.89-.061-2.466.883-4.85 2.615-6.604 1.732-1.754 4.102-2.725 6.564-2.69 2.352-.035 4.617.894 6.267 2.573 1.651 1.679 2.545 3.96 2.474 6.316zm-9.278-7.66c-2.843 0-4.957 2.715-4.957 7.461 0 3.93 1.77 8.16 5.56 8.16 3.791 0 4.95-3.984 4.95-7.303 0-3.632-1.464-8.319-5.553-8.319zM50.452 15.668c-.729 0-.775.126-.775 1.035v8.067c0 2.502.305 4.793 3.148 4.793.396 0 .79-.075 1.16-.22.39-.125.947-.603 1.08-.603.344 0 .516.478.43.737-1.15 1.288-2.8 2.015-4.526 1.991-3.705 0-4.48-2.071-4.48-4.647v-9.905c0-1.162-.04-1.248-.901-1.248h-1.206c-.256-.233-.311-.614-.133-.91.991-.272 1.925-.722 2.757-1.328.725-.755 1.335-1.614 1.81-2.549.218-.086.735-.086.907.22v1.938c0 .776.04.823.775.823h4.779c.464.508.484 1.281.046 1.812l-4.87-.006zM64.11 15.668c-.735 0-.775.126-.775 1.035v8.067c0 2.502.298 4.793 3.141 4.793.4 0 .795-.075 1.167-.22.384-.125.947-.603 1.073-.603.345 0 .517.478.431.737-1.149 1.286-2.797 2.013-4.52 1.991-3.704 0-4.48-2.071-4.48-4.647v-9.905c0-1.162-.046-1.248-.907-1.248h-1.226c-.254-.235-.306-.615-.126-.91.99-.274 1.924-.724 2.757-1.328.723-.757 1.332-1.616 1.809-2.549.212-.086.729-.086.901.22v1.938c0 .776.046.823.775.823h4.785c.466.508.483 1.284.04 1.812l-4.844-.006zM75.609 19.83c-1.12 0-1.16.087-1.16 1.162 0 4.362 2.538 8.073 7.15 8.073 1.419 0 2.651-.432 3.977-2.118.173-.067.367-.045.521.058.155.103.25.274.254.46-1.425 2.934-4.526 3.983-6.766 3.983-2.411.081-4.721-.973-6.243-2.848-1.203-1.62-1.839-3.591-1.81-5.61 0-5.31 3.487-9.752 8.656-9.752 3.704 0 6.117 2.543 6.117 5.132.024.382-.035.765-.173 1.122-.126.259-.729.305-2.538.305l-7.985.033zm2.65-1.327c3.188 0 4.136-.173 4.48-.432.133-.086.259-.259.259-.823 0-1.208-.815-2.716-3.314-2.716-2.498 0-4.738 2.33-4.785 3.751 0 .087 0 .22.305.22h3.055zM91.719 18.503c0-1.68 0-1.9-1.16-2.656l-.39-.259c-.185-.233-.165-.567.046-.777 1.497-.598 2.95-1.304 4.347-2.11.219.039.345.125.345.298v2.503c0 .219.046.345.132.391 1.505-1.254 3.141-2.589 4.739-2.589.488-.042.972.12 1.338.446.366.326.582.79.597 1.28.021.51-.162 1.009-.51 1.383-.347.374-.83.594-1.34.61-.34-.003-.67-.11-.947-.306-.555-.4-1.213-.63-1.895-.664-.627.017-1.206.34-1.551.863-.43.604-.563 1.859-.563 3.32v5.868c0 3.107.086 3.625 1.723 3.751l1.55.133c.136.152.204.353.188.556-.016.203-.115.391-.274.52-2.021-.087-3.274-.127-4.778-.127-1.504 0-2.843.04-3.976.126-.159-.128-.258-.316-.274-.519-.016-.203.052-.404.188-.556l.815-.133c1.597-.259 1.637-.664 1.637-3.751l.013-7.601zM104.032 39.747c-.036-.468.134-.929.465-1.26.331-.332.791-.502 1.258-.466h.822c.58.026 1.127-.273 1.418-.777.99-1.51 1.827-3.116 2.499-4.793.234-.593.38-1.217.43-1.852 0-.863-.172-1.381-.729-2.981l-3.36-9.235c-.735-2.025-1.033-3.06-2.544-3.366l-1.074-.212c-.258-.22-.219-.95.126-1.082 1.378.086 2.65.132 4.095.132 1.16 0 2.366-.046 3.745-.132.344.132.39.863.086 1.082l-1.074.212c-.603.133-.947.259-.947.564.327 1.378.743 2.733 1.246 4.057l1.378 3.983c.347 1.048.765 2.07 1.252 3.06.619-1.017 1.15-2.086 1.591-3.193l1.465-3.405c.947-2.244 1.51-3.844 1.51-4.316 0-.305-.258-.604-1.033-.737l-1.326-.212c-.298-.22-.258-.95.086-1.082 1.379.086 2.651.133 3.791.133 1.14 0 2.068-.047 3.274-.133.166.124.27.314.287.521.016.207-.057.412-.2.561l-.73.126c-1.425.259-2.2 1.514-3.665 4.574l-2.425 4.96c-1.418 2.887-4.95 10.396-7.065 15.103-.729 1.64-1.762 1.992-2.757 1.992-.503.049-1.002-.125-1.367-.476s-.557-.844-.528-1.35zM136.73 6.553c0-2.55-.046-2.809-1.325-3.585l-.431-.26c-.212-.248-.212-.614 0-.862 1.603-.505 3.172-1.11 4.699-1.813.18-.003.344.098.424.26-.086 1.513-.173 3.451-.173 5.35v8.16c0 .73.173.902.438.902 1.497-.9 3.204-1.39 4.95-1.42 4.911 0 8.225 3.71 8.225 8.457 0 5.736-4.136 9.753-9.908 9.753-1.243.021-2.48-.17-3.658-.564-.59-.229-1.194-.415-1.81-.558-.344 0-.662.345-.907.664-.04.046-.086.046-.173.046-.18 0-.345-.1-.43-.259.046-.604.092-1.427.092-3.671l-.013-20.6zm3.181 18.469c-.07 1.336.311 2.657 1.08 3.75.816.953 2.022 1.48 3.274 1.428 4.05 0 5.646-3.452 5.646-7.163 0-4.448-2.286-7.9-6.547-7.9-1.018-.048-2.03.181-2.93.664-.437.305-.523.776-.523 2.463v6.758zM165.677 21.922c.663-.213.663-.605.73-1.249l.04-1.991c.045-1.6-.471-3.758-3.142-3.758-1.206 0-2.651.604-2.757 1.945-.04.664-.086 1.209-.43 1.468-.724.499-1.575.782-2.453.816-.165.02-.33-.038-.447-.156-.118-.117-.175-.283-.156-.448 0-2.244 4.864-5.311 8.006-5.311 3.14 0 4.639 1.812 4.48 5.045l-.252 7.522c-.086 1.992.298 3.758 1.988 3.758.372-.006.739-.095 1.073-.259.22-.133.431-.305.564-.305.132 0 .298.259.298.564-.837 1.172-2.18 1.877-3.618 1.899-1.09.027-2.128-.466-2.797-1.328-.179-.26-.43-.604-.663-.604-.599.206-1.166.497-1.683.863-.922.626-1.991.999-3.102 1.082-1.093.052-2.167-.303-3.015-.996-.853-.77-1.336-1.87-1.325-3.02 0-1.68.815-2.656 3.572-3.665l5.09-1.872zm-2.65 7.594c.97-.085 1.894-.46 2.65-1.075.517-.518.564-1.122.564-2.032l.086-2.542c0-.478-.173-.565-.438-.565-.601.079-1.193.223-1.762.432-2.545.863-3.791 1.514-3.791 3.193.001.7.285 1.37.787 1.858.501.487 1.178.751 1.877.731h.027zM177.52 18.503c0-1.68 0-1.9-1.166-2.656l-.385-.259c-.182-.232-.165-.564.04-.777 1.5-.598 2.955-1.304 4.354-2.11.212.039.345.125.345.298v2.503c0 .219.04.345.126.391 1.51-1.254 3.147-2.589 4.738-2.589.49-.044.975.116 1.343.443s.584.791.599 1.283c.02.512-.166 1.01-.514 1.383-.348.374-.832.594-1.342.61-.34-.003-.67-.11-.948-.306-.554-.401-1.212-.632-1.895-.664-.626.017-1.205.34-1.55.863-.431.604-.557 1.859-.557 3.32v5.868c0 3.107.086 3.625 1.723 3.751l1.55.133c.133.153.198.353.182.556-.016.202-.113.389-.268.52-2.028-.087-3.274-.127-4.785-.127-1.51 0-2.843.04-3.976.126-.155-.13-.252-.317-.268-.52-.016-.202.05-.402.182-.555l.822-.133c1.59-.259 1.637-.664 1.637-3.751l.013-7.601zM192.252 18.503c0-1.68 0-1.9-1.166-2.656l-.385-.259c-.182-.232-.165-.564.04-.777 1.504-.555 2.947-1.262 4.308-2.111.204-.005.392.113.477.299-.086.996-.086 1.64-.086 2.031-.006.127.042.25.131.34.09.09.213.137.34.132 1.808-1.122 3.836-2.198 6.03-2.198 3.578 0 5.043 2.457 5.043 5.351v7.422c0 3.107.086 3.539 1.637 3.751l.948.133c.132.154.198.354.181.556-.016.202-.112.39-.268.52-1.292-.087-2.544-.126-4.049-.126-1.504 0-2.843.04-4.01.126-.154-.13-.25-.318-.267-.52-.016-.202.05-.402.182-.556l.821-.133c1.591-.258 1.637-.663 1.637-3.75v-6.434c0-2.456-1.12-4.268-4.049-4.268-1.383-.062-2.723.49-3.665 1.507-.556.737-.662 1.327-.662 2.589v6.639c0 3.107.086 3.492 1.637 3.75l.775.133c.133.154.198.354.182.556-.016.202-.113.39-.268.52-1.167-.086-2.412-.126-3.923-.126-1.511 0-2.843.04-4.05.126-.155-.13-.251-.318-.268-.52-.016-.202.05-.402.182-.556l.908-.132c1.59-.213 1.637-.664 1.637-3.751l.02-7.608zM226.063 6.553c0-2.55-.04-2.809-1.325-3.585l-.43-.26c-.213-.248-.213-.614 0-.862 1.593-.476 3.144-1.082 4.638-1.813.182-.004.35.097.431.26-.046 1.327-.133 3.451-.133 5.35v14.805c0 .557.047.664.776.664.947 0 1.77-.472 2.929-1.68l1.77-1.899c1.206-1.294 1.504-1.772 1.504-1.991 0-.22-.212-.346-.948-.432l-1.034-.133c-.384-.126-.384-.95 0-1.075h.994c2.287.001 4.572-.114 6.846-.345.305.126.345.863.086 1.075l-1.378.259c-1.017.266-1.95.787-2.71 1.514-1.369 1.14-2.678 2.35-3.924 3.624-.517.472-.557.664-.298 1.036.902 1.199 1.864 2.351 2.883 3.452 1.683 1.9 3.187 3.579 4.049 4.402.642.521 1.419.85 2.24.95l.603.086c.305.212.258.949-.086 1.075-1.246-.086-2.71-.126-4.09-.126-1.722 0-3.233.04-4.48.126-.165-.123-.27-.312-.286-.518-.016-.206.057-.41.2-.557l.776-.133c.663-.086 1.074-.173 1.074-.432s-.173-.557-.73-1.208l-4.638-5.35c-.333-.386-.817-.607-1.326-.605-.775 0-.821.133-.821 1.467v2.377c0 3.107.086 3.538 1.636 3.75l1.034.134c.136.151.204.353.188.556-.016.203-.115.391-.274.52-1.418-.087-2.65-.127-4.175-.127-1.524 0-2.843.04-4.135.126-.162-.128-.26-.32-.27-.527-.008-.207.073-.407.223-.548l.948-.133c1.597-.213 1.637-.664 1.637-3.751l.026-19.518zM247.688 18.503c0-1.68 0-1.9-1.16-2.656l-.391-.259c-.184-.233-.164-.567.046-.777 1.533-.58 3.016-1.286 4.434-2.11.218 0 .39.085.43.258-.086 1.507-.172 3.578-.172 5.351v7.767c0 3.107.086 3.539 1.637 3.751l.908.133c.133.154.198.354.182.556-.016.202-.113.39-.268.52-1.326-.087-2.545-.126-4.05-.126-1.504 0-2.842.04-4.048.126-.159-.128-.258-.316-.274-.52-.016-.203.051-.404.187-.556l.902-.133c1.597-.212 1.637-.663 1.637-3.75v-7.575zM251.22 4.52c-.038 1.184-.994 2.13-2.176 2.153-1.182.023-2.174-.885-2.258-2.067-.015-.618.227-1.215.668-1.648.44-.433 1.042-.663 1.658-.635.572-.01 1.121.217 1.52.626.4.41.612.966.588 1.538v.033zM273.235 24.557c0 3.406.04 5.006 1.246 5.006.635-.06 1.259-.206 1.856-.432.298.087.344 1.162-.047 1.381-1.933.286-3.836.748-5.686 1.381-.258 0-.47-.133-.47-.345v-.737c.033-.444.004-.891-.087-1.328h-.172c-1.895 1.328-3.36 1.992-5.427 1.992-4.785 0-7.953-3.758-7.953-8.285 0-6.042 4.566-9.926 10.424-9.926.978-.031 1.954.099 2.89.386.212 0 .258-.26.258-.605V6.553c0-2.55-.046-2.809-1.325-3.585l-.43-.26c-.213-.248-.213-.614 0-.862 1.593-.475 3.144-1.081 4.638-1.813.182-.004.35.097.43.26-.039 1.327-.125 3.451-.125 5.35l-.02 18.914zm-3.154-6.473c.047-.6-.122-1.2-.478-1.686-.85-1.145-2.193-1.817-3.618-1.812-3.917 0-5.964 3.412-5.964 7.163 0 3.93 2.2 7.641 6.421 7.641 1.21-.012 2.38-.438 3.314-1.208.266-.488.373-1.048.305-1.6l.02-8.498zM289.127 14.028c.427 1.115.652 2.298.663 3.492-.253.317-.71.375-1.034.133-.73-1.899-2.022-3.154-3.791-3.154-.73-.06-1.449.197-1.976.705-.527.508-.812 1.219-.78 1.95 0 1.767 1.808 2.716 3.313 3.58 2.28 1.294 4.393 2.761 4.393 5.828 0 3.28-3.015 4.92-6.202 4.92-2.028 0-3.533-.432-4.64-1.295-.42-1.413-.595-2.889-.516-4.362.27-.27.702-.287.994-.04.729 2.37 2.107 4.442 4.566 4.442 1.55 0 2.883-.903 2.883-2.762 0-1.992-1.723-3.06-3.314-3.983-2.498-1.421-4.268-2.935-4.268-5.311 0-3.154 2.585-4.92 5.859-4.92 1.868 0 3.465.432 3.85.777z" transform="translate(.504 .522)"/>
    </g>
</svg>
