<svg xmlns="http://www.w3.org/2000/svg" width="176" height="26" viewBox="0 0 176 26">
    <g>
        <path d="M1.656 11.199c0-1.017 0-1.15-.708-1.607l-.233-.157c-.11-.14-.1-.342.024-.47.906-.387 1.772-.86 2.588-1.41.135-.02.265.057.314.184-.056.4-.09.802-.105 1.206 0 .18.052.337.233.337.342-.157 1.985-1.225 3.657-1.225 2.64 0 4.335 2.141 4.335 4.777 0 3.617-2.664 6.245-6.373 6.245-.48 0-.96-.035-1.434-.105-.237.052-.366.181-.366.732v2.74c0 1.856.053 2.09.993 2.222l1.016.129c.083.092.124.215.115.338-.01.124-.07.238-.167.317-1.253-.053-2.009-.08-2.925-.08-.916 0-1.724.027-2.455.08-.095-.08-.153-.194-.163-.317-.01-.123.03-.245.11-.338l.551-.077c.964-.132.993-.401.993-2.274V11.199zm1.932 4.822c-.048.632.262 1.237.804 1.567.557.371 1.21.571 1.88.575 2.142 0 3.396-1.985 3.396-4.702 0-2.09-1.177-4.203-3.528-4.203-.805-.043-1.597.218-2.218.731-.237.286-.314.68-.314 1.54l-.02 4.492zM24.728 13.425c0 3.267-2.246 5.626-5.509 5.626-3.005 0-5.356-2.118-5.356-5.38-.037-1.493.535-2.937 1.585-3.998 1.05-1.062 2.487-1.65 3.98-1.628 1.427-.022 2.8.54 3.8 1.557 1.001 1.016 1.543 2.397 1.5 3.823zm-5.625-4.637c-1.724 0-3.006 1.643-3.006 4.516 0 2.38 1.073 4.939 3.371 4.939 2.299 0 3.002-2.411 3.002-4.42 0-2.198-.888-5.035-3.367-5.035zM30.591 9.483c-.442 0-.47.076-.47.627v4.882c0 1.515.185 2.901 1.909 2.901.24 0 .479-.045.703-.132.237-.077.574-.366.655-.366.209 0 .313.29.26.446-.696.78-1.697 1.22-2.744 1.206-2.246 0-2.716-1.254-2.716-2.813v-5.995c0-.704-.024-.756-.546-.756h-.732c-.155-.14-.188-.371-.08-.55.601-.165 1.167-.438 1.672-.804.44-.457.809-.977 1.097-1.543.132-.052.446-.052.55.133v1.173c0 .47.024.498.47.498h2.897c.282.308.294.776.028 1.097l-2.953-.004zM38.873 9.483c-.446 0-.47.076-.47.627v4.882c0 1.515.18 2.901 1.904 2.901.242 0 .482-.045.707-.132.233-.077.575-.366.651-.366.21 0 .314.29.262.446-.697.779-1.696 1.218-2.74 1.206-2.247 0-2.717-1.254-2.717-2.813v-5.995c0-.704-.028-.756-.55-.756h-.744c-.154-.142-.186-.372-.076-.55.6-.166 1.166-.439 1.671-.804.439-.458.808-.978 1.097-1.543.129-.052.442-.052.547.133v1.173c0 .47.028.498.47.498h2.9c.283.308.294.777.025 1.097l-2.937-.004zM45.844 12.003c-.679 0-.703.052-.703.703 0 2.64 1.54 4.886 4.336 4.886.86 0 1.607-.261 2.41-1.282.106-.04.224-.027.317.035.094.062.151.166.154.279-.864 1.776-2.744 2.41-4.103 2.41-1.462.05-2.862-.588-3.785-1.723-.73-.98-1.115-2.174-1.097-3.396 0-3.214 2.114-5.903 5.248-5.903 2.246 0 3.709 1.54 3.709 3.107.014.23-.021.462-.105.679-.076.156-.442.184-1.539.184l-4.842.02zm1.608-.804c1.932 0 2.507-.105 2.716-.261.08-.053.157-.157.157-.499 0-.73-.494-1.643-2.01-1.643-1.514 0-2.872 1.41-2.9 2.27 0 .053 0 .133.184.133h1.853zM55.613 11.199c0-1.017 0-1.15-.703-1.607l-.237-.157c-.112-.141-.1-.343.028-.47.908-.363 1.789-.79 2.636-1.278.132.024.209.076.209.18v1.516c0 .132.028.209.08.237.912-.76 1.905-1.567 2.873-1.567.296-.026.59.072.812.27.222.197.352.477.361.774.013.31-.098.61-.308.837-.211.227-.504.36-.813.369-.206-.001-.406-.066-.574-.185-.337-.242-.736-.382-1.15-.402-.38.01-.73.206-.94.523-.261.365-.341 1.125-.341 2.009V15.8c0 1.88.052 2.194 1.044 2.27l.94.08c.083.092.124.214.114.337-.01.123-.07.237-.166.314-1.225-.052-1.985-.076-2.897-.076-.912 0-1.724.024-2.41.076-.097-.077-.157-.19-.167-.314-.01-.123.031-.245.114-.336l.494-.08c.969-.158.993-.403.993-2.271l.008-4.601zM63.079 24.057c-.022-.283.08-.562.282-.762.2-.201.48-.304.762-.282h.499c.352.016.683-.166.86-.47.6-.915 1.107-1.887 1.515-2.902.142-.358.23-.736.26-1.12 0-.523-.104-.837-.441-1.805l-2.038-5.59c-.446-1.225-.626-1.852-1.543-2.037l-.65-.128c-.157-.133-.133-.575.076-.655.836.052 1.607.08 2.483.08.703 0 1.435-.028 2.27-.08.21.08.238.522.053.655l-.651.128c-.366.08-.575.157-.575.342.199.834.45 1.654.756 2.455l.835 2.411c.21.634.464 1.253.76 1.852.375-.616.697-1.262.964-1.932l.888-2.062c.575-1.358.916-2.326.916-2.612 0-.184-.156-.365-.626-.446l-.804-.128c-.181-.133-.157-.575.052-.655.836.052 1.607.08 2.299.08.69 0 1.253-.028 1.985-.08.1.075.164.19.174.315.01.126-.035.25-.122.34l-.442.076c-.864.157-1.334.916-2.222 2.769l-1.471 3.001c-.86 1.748-3.002 6.293-4.283 9.142-.442.992-1.07 1.205-1.672 1.205-.305.03-.608-.075-.83-.287-.22-.213-.337-.512-.32-.818zM82.905 3.966c0-1.543-.028-1.7-.804-2.17l-.261-.157c-.129-.15-.129-.372 0-.522.972-.305 1.923-.672 2.849-1.097.109-.002.209.06.257.157-.052.916-.104 2.09-.104 3.239v4.938c0 .442.104.546.265.546.907-.545 1.943-.841 3.001-.86 2.978 0 4.987 2.247 4.987 5.12 0 3.472-2.507 5.903-6.007 5.903-.754.013-1.504-.103-2.218-.342-.358-.138-.724-.25-1.097-.337-.21 0-.402.209-.55.401-.025.029-.053.029-.105.029-.11 0-.21-.06-.261-.157.028-.366.056-.864.056-2.222l-.008-12.469zm1.929 11.179c-.042.809.188 1.608.655 2.27.494.577 1.226.895 1.985.864 2.455 0 3.423-2.09 3.423-4.336 0-2.692-1.386-4.781-3.97-4.781-.617-.03-1.231.11-1.776.401-.265.185-.317.47-.317 1.491v4.09zM100.457 13.268c.401-.128.401-.365.442-.755l.024-1.206c.028-.968-.286-2.274-1.905-2.274-.731 0-1.607.366-1.672 1.177-.024.402-.052.732-.26.888-.44.303-.955.474-1.487.495-.1.011-.2-.023-.272-.095-.071-.07-.106-.17-.094-.271 0-1.358 2.95-3.215 4.854-3.215 1.905 0 2.813 1.097 2.716 3.054l-.152 4.553c-.053 1.205.18 2.274 1.205 2.274.226-.003.448-.057.651-.156.133-.08.261-.185.342-.185.08 0 .18.156.18.341-.507.71-1.321 1.136-2.194 1.15-.66.016-1.29-.282-1.695-.804-.109-.157-.261-.366-.402-.366-.363.125-.707.301-1.02.523-.56.378-1.208.604-1.881.655-.663.03-1.314-.184-1.829-.603-.517-.466-.81-1.132-.803-1.828 0-1.017.494-1.608 2.166-2.219l3.086-1.133zm-1.608 4.597c.59-.051 1.149-.278 1.608-.65.313-.314.341-.68.341-1.23l.052-1.54c0-.289-.104-.34-.265-.34-.365.046-.723.134-1.069.26-1.543.523-2.298.916-2.298 1.933 0 .424.173.83.477 1.124.304.295.715.455 1.138.443h.016zM107.637 11.199c0-1.017 0-1.15-.707-1.607l-.233-.157c-.11-.14-.1-.342.024-.47.91-.363 1.792-.79 2.64-1.278.129.024.209.076.209.18v1.516c0 .132.024.209.076.237.917-.76 1.91-1.567 2.873-1.567.297-.027.592.07.815.268.223.197.354.478.363.776.012.31-.1.611-.312.837-.21.227-.504.36-.813.369-.206-.002-.407-.066-.575-.185-.336-.243-.735-.382-1.15-.402-.379.01-.73.206-.94.523-.26.365-.337 1.125-.337 2.009V15.8c0 1.88.052 2.194 1.045 2.27l.94.08c.08.093.12.215.11.337-.01.122-.068.236-.162.314-1.23-.052-1.985-.076-2.901-.076-.917 0-1.724.024-2.411.076-.094-.078-.153-.192-.163-.314-.01-.122.03-.244.11-.336l.499-.08c.964-.158.992-.403.992-2.271l.008-4.601zM116.57 11.199c0-1.017 0-1.15-.707-1.607l-.233-.157c-.111-.14-.1-.342.024-.47.912-.336 1.787-.764 2.612-1.278.124-.003.237.068.289.18-.052.604-.052.993-.052 1.23-.004.077.025.152.08.206.054.054.128.083.205.08 1.097-.68 2.327-1.33 3.657-1.33 2.17 0 3.057 1.486 3.057 3.238v4.493c0 1.88.053 2.141.993 2.27l.575.08c.08.093.12.214.11.337-.01.122-.069.236-.163.314-.783-.052-1.543-.076-2.455-.076-.912 0-1.724.024-2.43.076-.095-.078-.154-.192-.163-.314-.01-.123.03-.244.11-.337l.498-.08c.965-.157.993-.402.993-2.27V11.89c0-1.487-.68-2.584-2.455-2.584-.84-.037-1.652.297-2.223.912-.337.446-.401.804-.401 1.568v4.018c0 1.88.052 2.113.992 2.27l.47.08c.08.093.12.215.11.337-.01.122-.068.236-.162.314-.707-.052-1.463-.076-2.379-.076-.916 0-1.724.024-2.455.076-.094-.078-.153-.192-.162-.314-.01-.122.03-.244.11-.336l.55-.08c.965-.13.993-.403.993-2.271l.012-4.605zM137.071 3.966c0-1.543-.024-1.7-.804-2.17l-.26-.157c-.13-.15-.13-.372 0-.522.965-.288 1.906-.655 2.812-1.097.11-.002.212.059.261.157-.028.803-.08 2.09-.08 3.239v8.96c0 .338.028.402.47.402.575 0 1.073-.285 1.776-1.017l1.073-1.149c.731-.783.912-1.073.912-1.205 0-.133-.129-.21-.575-.261l-.626-.08c-.233-.077-.233-.575 0-.652h.602c1.387.001 2.772-.069 4.151-.209.185.077.21.523.052.651l-.835.157c-.617.16-1.183.476-1.644.916-.83.69-1.623 1.423-2.379 2.194-.313.285-.337.402-.18.627.547.725 1.13 1.423 1.747 2.09 1.021 1.149 1.933 2.165 2.456 2.664.39.315.86.514 1.358.574l.365.052c.185.129.157.575-.052.651-.755-.052-1.643-.076-2.479-.076-1.045 0-1.96.024-2.716.076-.1-.074-.164-.189-.174-.313-.01-.125.034-.248.121-.338l.47-.08c.402-.052.651-.104.651-.261 0-.157-.104-.338-.442-.731l-2.812-3.24c-.202-.233-.496-.366-.804-.365-.47 0-.498.08-.498.888v1.439c0 1.88.052 2.141.992 2.27l.627.08c.083.092.124.214.114.337-.01.123-.07.237-.166.314-.86-.052-1.607-.076-2.532-.076-.924 0-1.723.024-2.507.076-.098-.077-.158-.194-.163-.319-.006-.125.044-.246.135-.332l.574-.08c.969-.129.993-.402.993-2.27l.016-11.814zM150.183 11.199c0-1.017 0-1.15-.704-1.607l-.237-.157c-.111-.141-.1-.343.029-.47.93-.352 1.828-.78 2.688-1.278.132 0 .237.052.26.157-.051.912-.104 2.165-.104 3.238v4.702c0 1.88.053 2.141.993 2.27l.55.08c.08.093.12.214.11.337-.01.122-.068.236-.162.314-.803-.052-1.543-.076-2.455-.076-.912 0-1.724.024-2.455.076-.096-.077-.156-.19-.166-.314-.01-.123.031-.245.114-.337l.546-.08c.969-.129.993-.402.993-2.27v-4.585zm2.141-8.463c-.022.717-.602 1.29-1.319 1.304-.717.014-1.318-.536-1.369-1.251-.01-.375.137-.736.405-.998.267-.262.632-.401 1.006-.385.346-.005.68.132.921.38.242.248.37.584.356.93v.02zM165.673 14.864c0 2.06.024 3.03.755 3.03.385-.037.764-.125 1.126-.262.18.052.209.703-.029.836-1.172.173-2.326.453-3.447.836-.157 0-.285-.08-.285-.21v-.445c.02-.27.002-.54-.053-.804h-.104c-1.15.804-2.037 1.206-3.291 1.206-2.901 0-4.822-2.275-4.822-5.015 0-3.657 2.769-6.008 6.32-6.008.593-.019 1.185.06 1.753.234.128 0 .156-.157.156-.366v-3.93c0-1.543-.028-1.7-.803-2.17l-.262-.157c-.128-.15-.128-.372 0-.522.967-.287 1.908-.654 2.813-1.097.11-.002.212.059.261.157-.024.803-.076 2.09-.076 3.239l-.012 11.448zm-1.913-3.918c.03-.364-.073-.726-.289-1.02-.516-.694-1.33-1.1-2.194-1.098-2.375 0-3.616 2.066-3.616 4.336 0 2.379 1.334 4.625 3.893 4.625.734-.008 1.443-.266 2.01-.731.161-.296.226-.635.184-.969l.012-5.143zM175.309 8.49c.259.675.395 1.391.402 2.114-.153.192-.43.227-.627.08-.442-1.149-1.226-1.908-2.299-1.908-.442-.036-.878.12-1.198.427-.32.307-.492.737-.473 1.18 0 1.07 1.097 1.644 2.009 2.166 1.382.784 2.664 1.672 2.664 3.528 0 1.985-1.828 2.978-3.761 2.978-1.23 0-2.142-.262-2.813-.784-.255-.855-.361-1.748-.313-2.64.164-.163.426-.174.602-.024.442 1.434 1.278 2.688 2.769 2.688.94 0 1.748-.546 1.748-1.671 0-1.206-1.045-1.853-2.01-2.411-1.514-.86-2.587-1.776-2.587-3.215 0-1.909 1.567-2.978 3.552-2.978 1.133 0 2.102.262 2.335.47z"/>
    </g>
</svg>
