<svg xmlns="http://www.w3.org/2000/svg" xmlns:xlink="http://www.w3.org/1999/xlink" width="370" height="76" viewBox="0 0 324 76">
    <defs>
        <path id="ap8estsfza" d="M0.084 0.457L60.624 0.457 60.624 27.816 0.084 27.816z"/>
        <path id="n7pf2k0vnc" d="M0 0.457L189.761 0.457 189.761 36.48 0 36.48z"/>
    </defs>
    <g fill="none" fill-rule="evenodd">
        <g transform="translate(31.347 4.957) translate(201.076 27.831)">
            <mask id="kqx01kub7b" fill="#fff">
                <use xlink:href="#ap8estsfza"/>
            </mask>
            <path fill="#000" d="M60.515 15.49c0-1.001-.263-2.187-.596-3-.33-.297-1.694-.666-3.247-.666-2.81 0-5.027 1.518-5.027 4.22 0 2.035 1.514 3.332 3.656 4.552 1.371.779 2.848 1.704 2.848 3.407 0 1.592-1.146 2.37-2.476 2.37-2.107 0-3.29-1.78-3.918-3.816-.187-.22-.668-.182-.85.04-.072 1.22.149 3.033.442 3.739.921.738 2.219 1.112 3.954 1.112 2.738 0 5.323-1.41 5.323-4.222 0-2.63-1.808-3.889-3.77-5-1.29-.737-2.847-1.554-2.847-3.071 0-1.332.926-2.258 2.367-2.258 1.516 0 2.623 1.075 3.256 2.703.18.22.737.145.885-.11zm-12.676 9.958c-.558.182-1.181.368-1.59.368-1.034 0-1.071-1.368-1.071-4.294V5.269c0-1.63.07-3.481.11-4.59-.073-.149-.224-.222-.369-.222-1.334.701-3.07 1.259-3.991 1.555-.188.11-.188.63 0 .74l.371.222c1.105.666 1.145.889 1.145 3.073v5.591c0 .296-.04.517-.222.517-.41-.149-1.221-.331-2.475-.331-5.029 0-8.946 3.33-8.946 8.514 0 3.888 2.737 7.11 6.835 7.11 1.778 0 3.033-.597 4.658-1.706h.15c.077.15.077.594.077 1.15v.629c0 .185.178.295.404.295 1.031-.407 3.324-.965 4.874-1.185.33-.187.298-1.111.04-1.183zm-5.395-2.186c0 .593-.04 1.147-.263 1.371-.59.592-1.844 1.035-2.843 1.035-3.62 0-5.508-3.182-5.508-6.553 0-3.219 1.739-6.146 5.104-6.146 1.443 0 2.547.777 3.105 1.555.255.372.405.704.405 1.444v7.294zm-15.446 3.776c.254-.111.331-.74.07-.925l-.775-.11c-1.33-.187-1.401-.555-1.401-3.222v-6.663c0-1.518.072-3.296.145-4.593-.037-.146-.183-.221-.372-.221-.846.555-2.957 1.518-3.807 1.815-.18.11-.18.519-.036.667l.336.22c.992.67.992.855.992 2.295v6.48c0 2.667-.034 3.035-1.4 3.222l-.777.11c-.26.186-.185.814.073.925 1.039-.073 2.144-.111 3.474-.111 1.293 0 2.366.038 3.478.111zm-1.816-22.73c0-1.037-.7-1.89-1.81-1.89-1.07 0-1.994.742-1.994 1.963 0 .997.738 1.813 1.883 1.813 1 0 1.92-.59 1.92-1.886zM17.57 26.113l-.518-.075c-.664-.11-1.404-.331-1.917-.813-.741-.702-2.035-2.146-3.478-3.777-1.259-1.405-1.848-2.11-2.48-2.962-.218-.295-.182-.48.263-.889.666-.63 1.922-1.96 3.36-3.108.964-.778 1.594-1.147 2.335-1.299l1.18-.221c.223-.186.182-.814-.076-.924-2.068.221-4.247.297-5.873.297h-.853c-.336.11-.336.813 0 .923l.885.11c.631.077.813.187.813.371 0 .187-.255.594-1.294 1.705L8.406 17.08c-.998 1.038-1.704 1.445-2.512 1.445-.63 0-.663-.072-.663-.553V5.269c0-1.63.069-3.481.109-4.59C5.263.53 5.117.456 4.969.456 3.636 1.158 1.902 1.716.976 2.012c-.182.11-.182.63 0 .74l.373.222c1.107.666 1.144.889 1.144 3.073V22.78c0 2.667-.037 3.035-1.407 3.222l-.813.11c-.292.186-.219.814.04.925 1.11-.073 2.216-.111 3.547-.111 1.293 0 2.362.038 3.583.111.262-.111.333-.74.073-.925l-.885-.11c-1.331-.187-1.4-.555-1.4-3.222v-2.036c0-1.148.032-1.256.7-1.256.404 0 .813.146 1.143.515l3.956 4.589c.482.56.628.817.628 1.037 0 .224-.368.297-.926.373l-.664.11c-.258.15-.219.779.073.925 1.071-.073 2.37-.111 3.846-.111 1.182 0 2.44.038 3.51.111.295-.111.333-.74.074-.925z" mask="url(#kqx01kub7b)"/>
        </g>
        <g transform="translate(31.347 4.957) translate(0 27.831)">
            <mask id="n1ftbxs6xd" fill="#fff">
                <use xlink:href="#n7pf2k0vnc"/>
            </mask>
            <path fill="#000" d="M189.6 26.113l-.813-.11c-1.332-.187-1.405-.555-1.405-3.22v-6.369c0-2.481-1.258-4.59-4.323-4.59-1.885 0-3.624.924-5.177 1.887-.255 0-.405-.186-.405-.408 0-.334 0-.887.073-1.738-.073-.186-.258-.262-.403-.262-.74.555-2.844 1.519-3.694 1.816-.19.111-.19.518-.04.666l.331.22c1 .67 1 .856 1 2.296v6.482c0 2.665-.037 3.033-1.404 3.22l-.777.11c-.259.185-.186.814.076.924 1.033-.073 2.144-.11 3.472-.11 1.29 0 2.361.037 3.36.11.264-.11.337-.739.075-.924l-.665-.11c-1.331-.221-1.404-.555-1.404-3.22v-5.666c0-1.072.073-1.593.555-2.221.517-.703 1.738-1.297 3.142-1.297 2.512 0 3.475 1.556 3.475 3.665v5.519c0 2.665-.041 2.999-1.407 3.22l-.705.11c-.25.185-.182.814.076.924 1-.073 2.109-.11 3.438-.11 1.295 0 2.367.037 3.475.11.255-.11.335-.739.073-.924zm-20.032-12.81c0-.887-.733-1.48-1.663-1.48-1.364 0-2.766 1.146-4.065 2.222-.073-.04-.11-.148-.11-.334v-2.146c0-.15-.112-.223-.295-.262-.922.555-2.887 1.519-3.733 1.816-.19.111-.19.518-.037.666l.329.22c1.002.67 1.002.856 1.002 2.296v6.482c0 2.665-.04 2.999-1.402 3.22l-.709.11c-.255.185-.182.814.076.924.96-.073 2.068-.11 3.403-.11 1.294 0 2.365.037 4.1.11.26-.11.336-.739.077-.924l-1.33-.11c-1.404-.11-1.48-.555-1.48-3.22v-5.038c0-1.26.11-2.33.481-2.85.294-.406.737-.74 1.33-.74.519 0 1.069.224 1.623.594.258.147.449.258.816.258.59 0 1.587-.482 1.587-1.704zm-13.384 12.513c0-.259-.11-.481-.255-.481-.11 0-.296.147-.482.261-.221.11-.558.22-.926.22-1.44 0-1.776-1.519-1.701-3.22l.222-6.444c.109-2.777-1.182-4.329-3.842-4.329-2.701 0-6.88 2.63-6.88 4.552 0 .336.183.518.519.518.55 0 1.553-.257 2.106-.7.3-.224.332-.67.372-1.262.073-1.146 1.33-1.666 2.362-1.666 2.293 0 2.742 1.852 2.701 3.22l-.036 1.707c-.037.552-.077.888-.627 1.07l-4.4 1.593c-2.37.853-3.07 1.702-3.07 3.148 0 1.037.445 1.961 1.141 2.59.632.554 1.521.854 2.592.854 1.036 0 1.85-.483 2.662-.928.74-.406 1.185-.737 1.447-.737.218 0 .44.296.583.516.635.815 1.52 1.15 2.41 1.15 1.807 0 3.102-1.446 3.102-1.632zm-5.952-4.885l-.074 2.183c0 .776-.036 1.295-.477 1.74-.372.372-1.52.928-2.26.928-1.886 0-2.327-1.594-2.327-2.224 0-1.442 1.073-1.997 3.256-2.737.66-.225 1.29-.374 1.514-.374.225 0 .368.077.368.484zm-12.049-1.851c0-4.073-2.844-7.257-7.056-7.257-1.814 0-3.292.666-4.25 1.221-.222 0-.372-.147-.372-.778V5.269c0-1.629.073-3.294.15-4.59-.077-.148-.223-.222-.372-.222-1.403.741-3.179 1.222-4.024 1.556-.186.11-.186.63 0 .74l.364.22c1.111.667 1.148.89 1.148 3.073v17.661c0 1.924-.037 2.628-.073 3.145.073.15.222.223.369.223.073 0 .108 0 .149-.038.186-.256.477-.552.776-.552.296 0 .777.258 1.55.48.74.259 1.776.482 3.142.482 4.954 0 8.5-3.444 8.5-8.367zm-3.104 1.109c0 3.185-1.367 6.146-4.84 6.146-1.186 0-2.18-.443-2.808-1.222-.63-.775-.926-1.925-.926-3.22v-5.775c0-1.443.073-1.852.445-2.112.518-.335 1.404-.59 2.512-.59 3.66 0 5.617 2.959 5.617 6.773zm-23.283-7.034c.263-.22.225-.778-.073-.926-1.036.077-1.884.112-2.806.112-.964 0-2.072-.035-3.256-.112-.296.112-.329.74-.07.926l1.145.186c.664.11.886.37.886.63 0 .408-.482 1.775-1.294 3.699l-1.258 2.926c-.664 1.52-1.254 2.666-1.367 2.739-.146-.073-.85-2.035-1.072-2.629l-1.181-3.403c-.223-.63-1.072-3.037-1.072-3.48 0-.26.295-.371.814-.482l.925-.186c.259-.186.219-.814-.077-.926-1.18.077-2.216.112-3.215.112-1.218 0-2.33-.035-3.51-.112-.296.112-.333.74-.11.926l.923.186c1.294.258 1.552 1.148 2.179 2.887l2.885 7.923c.48 1.37.626 1.813.626 2.555 0 .518-.259 1.295-.368 1.59-.332.889-1.072 2.444-2.144 4.11-.259.406-.627.667-1.217.667h-.703c-.813 0-1.48.48-1.48 1.48 0 .928.556 1.595 1.628 1.595.85 0 1.736-.337 2.363-1.74 1.812-4.04 4.841-10.478 6.063-12.96l2.07-4.26c1.258-2.625 1.921-3.698 3.139-3.923l.627-.11zm-18.986.148c0-.887-.74-1.48-1.663-1.48-1.37 0-2.774 1.146-4.068 2.222-.073-.04-.109-.148-.109-.334v-2.146c0-.15-.113-.223-.295-.262-.923.555-2.884 1.519-3.733 1.816-.186.111-.186.518-.036.666l.331.22c.999.67.999.856.999 2.296v6.482c0 2.665-.037 2.999-1.404 3.22l-.703.11c-.259.185-.182.814.072.924.963-.073 2.071-.11 3.402-.11 1.29 0 2.366.037 4.101.11.26-.11.335-.739.072-.924l-1.33-.11c-1.403-.11-1.476-.555-1.476-3.22v-5.038c0-1.26.11-2.33.481-2.85.296-.406.74-.74 1.331-.74.517 0 1.071.224 1.625.594.26.147.442.258.813.258.59 0 1.59-.482 1.59-1.704zm-24.501 5.149c0-.927.036-1.003.995-1.003h6.839c1.553 0 2.067-.039 2.18-.26.073-.147.146-.442.146-.961 0-2.222-2.067-4.405-5.247-4.405-4.432 0-7.43 3.813-7.43 8.366 0 1.628.445 3.37 1.554 4.81 1.072 1.41 2.956 2.448 5.359 2.448 1.922 0 4.582-.928 5.8-3.444-.036-.334-.295-.555-.663-.445-1.145 1.442-2.18 1.814-3.398 1.814-3.956 0-6.135-3.183-6.135-6.92zm.404-2.3c.037-1.221 1.926-3.217 4.102-3.217 2.143 0 2.846 1.292 2.846 2.33 0 .48-.112.63-.222.704-.295.223-1.108.37-3.843.37h-2.624c-.259 0-.259-.111-.259-.187zm-6.208-2.255c.335-.226.404-1.223-.036-1.556h-4.1c-.63 0-.666-.035-.666-.702V9.973c-.15-.26-.59-.26-.776-.187-.368.74-1.072 1.738-1.553 2.187-.367.333-1.29.81-2.36 1.146-.15.222-.113.627.109.778h1.035c.74 0 .776.075.776 1.072v8.479c0 2.22.663 4 3.84 4 1.884 0 3.214-.929 3.88-1.707.073-.22-.077-.628-.371-.628-.11 0-.59.407-.922.518-.299.11-.627.185-.999.185-2.437 0-2.695-1.961-2.695-4.108v-6.925c0-.777.036-.886.662-.886h4.176zm-12.821 0c.33-.226.404-1.223-.04-1.556h-4.102c-.627 0-.667-.035-.667-.702V9.973c-.145-.26-.59-.26-.776-.187-.368.74-1.071 1.738-1.55 2.187-.367.333-1.294.81-2.366 1.146-.145.222-.109.627.11.778h1.035c.74 0 .777.075.777 1.072v8.479c0 2.22.666 4 3.842 4 1.888 0 3.215-.929 3.882-1.707.073-.22-.076-.628-.372-.628-.109 0-.59.407-.922.518-.295.11-.627.185-.995.185-2.442 0-2.702-1.961-2.702-4.108v-6.925c0-.777.037-.886.668-.886h4.178zm-13.602 5.591c0-4.557-3.36-7.665-7.502-7.665-4.364 0-7.87 3.332-7.87 7.995 0 4.628 3.324 7.63 7.575 7.63 4.619 0 7.797-3.332 7.797-7.96zm-3.178.59c0 2.849-1 6.257-4.25 6.257-3.254 0-4.77-3.629-4.77-6.999 0-4.07 1.813-6.4 4.252-6.4 3.514 0 4.768 3.997 4.768 7.142zm-16.26-1.48c0-3.737-2.402-6.775-6.135-6.775-2.366 0-4.691 1.518-5.173 1.74-.262 0-.335-.222-.335-.483 0-.479.073-1.034.15-1.7-.077-.187-.223-.262-.446-.262-.961.705-2.697 1.594-3.656 2-.186.112-.186.52-.04.667l.335.22c.995.67.995.856.995 2.296v15.918c0 2.667-.036 3.04-1.403 3.226l-.773.109c-.262.188-.186.816.07.926 1.034-.075 2.143-.11 3.477-.11 1.29 0 2.362.035 4.138.11.258-.11.332-.738.072-.926l-1.439-.186c-1.33-.185-1.407-.518-1.407-3.149v-3.882c0-.78.186-.965.518-1.038.334.073 1.366.148 2.034.148 5.245 0 9.019-3.703 9.019-8.849zm-2.996.963c0 3.849-1.771 6.663-4.801 6.663-.777 0-1.925-.26-2.665-.815-.736-.592-1.108-1.036-1.108-2.221V16.82c0-1.223.113-1.78.444-2.187.408-.44 1.554-1.035 3.143-1.035 3.324 0 4.987 3.001 4.987 5.962z" mask="url(#n1ftbxs6xd)"/>
        </g>
        <path fill="#000" d="M138.785 7.196l-2.625.498c.855.279.874.419.874.877v3.827c0 4.605-2.05 5.88-4.06 5.88-2.008 0-4.057-1.275-4.057-5.88V8.153l-3.184.139v.678c1.134 0 1.432.16 1.432.638v2.79c0 3.209 1.95 6.558 5.81 6.558 3.84 0 5.81-3.35 5.81-6.558V7.196zm-6.068-2.81c-.538 0-1.015.458-1.015 1.036 0 .598.477 1.036 1.015 1.036.557 0 1.035-.438 1.035-1.036 0-.578-.478-1.037-1.035-1.037zm10.544 8.71c-.159 3.747-1.59 5.162-4.476 5.94.737.059 1.174.08 1.433.08 4.456 0 4.794-3.948 4.794-7.515V6.638l-2.646.498c.876.279.895.418.895.896v5.063zm4.995-.06c0 1.894 1.254 2.492 2.945 2.492h1.113v-.738h-.994c-.837-.06-1.313-.618-1.313-1.675V2.831l-3.184.139v.657c1.134 0 1.433.18 1.433.66v8.749zm3.7 2.492h1.373c1.691 0 2.886-.917 2.886-2.591v-6.3l-2.628.5c.877.278.897.417.897.895v4.844c0 1.157-.439 1.894-1.493 1.914h-1.035v.738zm1.89 1.793c-.557 0-1.034.439-1.034 1.037 0 .578.477 1.016 1.034 1.016.558 0 1.035-.438 1.035-1.016 0-.598-.477-1.037-1.035-1.037zm15.56-8.272c-.06-.119-.08-.279-.08-.398 0-.778.895-1.356 1.571-1.356 1.254 0 1.812 1.236 2.01 2.431h.955v-2.89h-.995c-.04.18-.08.32-.099.32-.02 0-.1-.04-.24-.1l-.058-.02c-.358-.179-.856-.418-1.752-.418-1.492 0-2.884 1.056-2.884 2.352 0 .777.04.876.636 2.173.338.737.836 1.753 1.612 3.647h-5.213c-.856-.06-1.333-.618-1.333-1.675V7.913l-3.184.14v.677c1.134 0 1.433.16 1.433.638v3.668c0 1.894 1.273 2.492 2.965 2.492h7.382c-.976-2.413-2.329-5.562-2.727-6.479zm-3.741 8.292c-.597 0-1.015.439-1.015 1.017 0 .538.418.997 1.015.997s1.015-.46 1.015-.997c0-.578-.418-1.017-1.015-1.017zm2.885 0c-.598 0-1.015.439-1.015 1.017 0 .538.417.997 1.015.997.576 0 .994-.46.994-.997 0-.578-.418-1.017-.994-1.017zm9.231-4.246c-.159 3.748-1.592 5.163-4.477 5.94.737.06 1.175.08 1.434.08 2.785 0 3.959-1.555 4.437-3.587h3.043v-.738h-2.905c.18-1.017.22-2.113.22-3.189V6.638l-2.647.498c.876.279.895.418.895.896v5.063zm4.06 2.433h1.928c1.693 0 2.887-.917 2.887-2.591v-6.3l-2.627.5c.876.278.895.417.895.895v4.844c0 1.157-.438 1.894-1.493 1.914h-1.59v.738zm1.193-12.996c-.617 0-1.015.438-1.015 1.016 0 .558.398 1.017 1.015 1.017.577 0 1.015-.459 1.015-1.017 0-.578-.438-1.016-1.015-1.016zm2.866 0c-.578 0-1.016.438-1.016 1.016 0 .558.438 1.017 1.016 1.017.597 0 1.014-.459 1.014-1.017 0-.578-.417-1.016-1.014-1.016zm3.82 16.563c.715.06 1.352.1 1.63.1 1.613 0 3.682-.479 4.517-3.667h2.746v-.738h-2.567c.1-.857.14-1.914.14-3.189V6.718h-1.512c-3.383 0-5.81 2.232-5.81 5.7 0 1.914 1.711 3.11 3.043 3.11h2.289c-.738 2.53-2.566 3.168-4 3.487l-.477.08zm4.715-4.923c0 .26-.02.419-.04.618h-2.05c-1.133 0-1.75-1.316-1.75-2.49 0-2.972 1.87-4.965 3.62-4.965h.22v6.837zm3.82 1.356h1.372c1.691 0 2.886-.917 2.886-2.591v-6.3l-2.627.5c.875.278.895.417.895.895v4.844c0 1.157-.436 1.894-1.492 1.914h-1.034v.738zm1.89 1.793c-.556 0-1.034.439-1.034 1.037 0 .578.478 1.016 1.034 1.016.557 0 1.034-.438 1.034-1.016 0-.598-.477-1.037-1.034-1.037zM72.212 2.79l-2.626.499c.855.279.875.418.875.877v8.232c0 4.604-2.05 5.88-4.059 5.88-2.01 0-4.058-1.276-4.058-5.88V8.152l-3.184.14v.678c1.134 0 1.433.16 1.433.638v2.79c0 3.21 1.95 6.558 5.81 6.558 3.84 0 5.81-3.349 5.81-6.558V2.79zm3.244 10.246c0 1.894 1.253 2.492 2.944 2.492h1.114v-.739h-.995c-.836-.059-1.313-.617-1.313-1.674V2.83l-3.183.14v.658c1.134 0 1.433.18 1.433.658v8.75zm9.55-10.405c-.557 0-1.035.439-1.035 1.017 0 .598.478 1.037 1.034 1.037.557 0 1.035-.439 1.035-1.037 0-.578-.478-1.017-1.035-1.017zm-.26 12.419c.359.218.975.478 2.389.478h4.794v-.739h-5.073c-.617 0-.876-.138-1.115-.299 1.751-.956 3.662-2.191 3.662-4.384 0-1.874-1.711-3.429-4.14-3.45-2.387 0-4.257 1.477-4.257 3.37 0 1.874 1.254 3.388 2.925 4.484-.458.28-.876.28-1.572.28h-3.203v.738h3.581c1.054 0 1.651-.28 2.01-.478zm-2.029-5.024c0-.14.02-.359.04-.518.12-1.176.936-2.173 2.387-2.173 1.493 0 2.309 1.097 2.309 2.67 0 2.274-.896 2.872-2.248 3.788-.06.04-.14.12-.22.16-1.273-.857-2.268-2.273-2.268-3.927zm8.834 5.502h14.067c-.02-5.044-1.91-8.312-5.074-8.312-1.134 0-3.004 1.335-4.517 4.145l.339-7.554-3.164.14v.657c1.135 0 1.254.18 1.254.659v7.614c0 1.176-.597 1.912-1.93 1.912h-.975v.739zm3.86-.739c.379-1.912 3.084-6.935 5.213-6.935 1.612 0 3.064 2.431 3.104 6.935h-8.317zm15.34-10.164l-2.626.498c.856.298.875.458.875.897v8.77h-1.114l-.478.738h4.915c1.254 0 2.467-.36 2.945-1.555.616.936 1.492 1.555 2.487 1.555h.457v-.739h-.775c-1.393 0-2.248-1.813-2.248-3.07V2.75l-2.606.5c.794.278.874.358.874.796v8.89c0 1.156-.438 1.853-1.492 1.853h-1.214V4.625zm-3.442-1.157l.2-.538h.935c-.419-.299-.797-.777-.797-1.355 0-.857.597-1.575 1.592-1.575.716 0 1.234.458 1.234 1.037 0 .418-.24.538-.577.538-.319 0-.597-.16-.597-.439 0-.159.12-.338.278-.438-.079-.14-.258-.2-.377-.2-.379 0-.578.439-.578.877 0 .578.418 1.555 1.234 1.555h.876v.538h-3.423zm10.525 12.06h.856c1.69 0 2.904-.918 2.904-2.592V2.791l-2.625.498c.874.279.874.418.874.877v8.71c0 1.177-.456 1.913-1.571 1.913h-.438v.739z" transform="translate(31.347 4.957)"/>
    </g>
</svg>
