<svg xmlns="http://www.w3.org/2000/svg" width="323" height="76" viewBox="0 0 323 76">
    <g>
        <path d="M2.728 18.503c0-1.68 0-1.9-1.165-2.656l-.384-.259c-.183-.232-.166-.564.04-.777 1.492-.639 2.92-1.42 4.264-2.33.222-.03.436.096.516.305-.09.661-.148 1.326-.172 1.992 0 .299.086.558.384.558.563-.26 3.272-2.025 6.026-2.025 4.351 0 7.145 3.538 7.145 7.894 0 5.975-4.39 10.316-10.502 10.316-.791 0-1.581-.057-2.364-.172-.39.086-.603.299-.603 1.208v4.528c0 3.067.086 3.452 1.636 3.671l1.675.212c.137.153.205.356.188.56-.016.204-.115.393-.274.523-2.066-.087-3.31-.133-4.82-.133-1.51 0-2.841.046-4.047.133-.155-.132-.252-.32-.268-.523-.016-.204.05-.405.182-.56l.908-.126c1.589-.219 1.635-.664 1.635-3.757V18.503zm3.185 7.966c-.08 1.044.432 2.045 1.325 2.59.918.613 1.995.943 3.099.949 3.53 0 5.595-3.28 5.595-7.768 0-3.452-1.94-6.944-5.814-6.944-1.326-.071-2.63.36-3.655 1.208-.39.472-.517 1.122-.517 2.543l-.033 7.422zM40.751 22.18c0 5.398-3.701 9.295-9.078 9.295-4.953 0-8.827-3.499-8.827-8.89-.062-2.466.881-4.85 2.612-6.604 1.73-1.754 4.099-2.725 6.56-2.69 2.35-.035 4.612.894 6.262 2.573 1.65 1.679 2.542 3.96 2.471 6.316zm-9.27-7.66c-2.841 0-4.954 2.715-4.954 7.461 0 3.93 1.769 8.16 5.556 8.16 3.788 0 4.947-3.984 4.947-7.303 0-3.632-1.464-8.319-5.55-8.319zM50.413 15.668c-.729 0-.775.126-.775 1.035v8.067c0 2.502.305 4.793 3.145 4.793.397 0 .79-.075 1.16-.22.39-.125.946-.603 1.079-.603.344 0 .516.478.43.737-1.15 1.288-2.799 2.015-4.523 1.991-3.701 0-4.476-2.071-4.476-4.647v-9.905c0-1.162-.04-1.248-.9-1.248h-1.206c-.255-.233-.31-.614-.132-.91.99-.272 1.924-.722 2.754-1.328.725-.755 1.334-1.614 1.808-2.549.219-.086.735-.086.907.22v1.938c0 .776.04.823.775.823h4.775c.464.508.484 1.281.046 1.812l-4.867-.006zM64.06 15.668c-.734 0-.774.126-.774 1.035v8.067c0 2.502.298 4.793 3.139 4.793.398 0 .793-.075 1.165-.22.384-.125.947-.603 1.073-.603.344 0 .516.478.43.737-1.147 1.286-2.794 2.013-4.516 1.991-3.702 0-4.476-2.071-4.476-4.647v-9.905c0-1.162-.047-1.248-.908-1.248h-1.225c-.253-.235-.305-.615-.125-.91.99-.274 1.922-.724 2.754-1.328.723-.757 1.332-1.616 1.808-2.549.212-.086.729-.086.9.22v1.938c0 .776.047.823.775.823h4.782c.465.508.482 1.284.04 1.812l-4.841-.006zM75.55 19.83c-1.12 0-1.16.087-1.16 1.162 0 4.362 2.537 8.073 7.146 8.073 1.417 0 2.649-.432 3.973-2.118.173-.067.367-.045.521.058.155.103.25.274.254.46-1.424 2.934-4.523 3.983-6.761 3.983-2.41.081-4.717-.973-6.238-2.848-1.202-1.62-1.838-3.591-1.808-5.61 0-5.31 3.483-9.752 8.648-9.752 3.702 0 6.112 2.543 6.112 5.132.024.382-.034.765-.172 1.122-.126.259-.728.305-2.536.305l-7.98.033zm2.648-1.327c3.186 0 4.133-.173 4.477-.432.132-.086.258-.259.258-.823 0-1.208-.814-2.716-3.31-2.716-2.497 0-4.736 2.33-4.782 3.751 0 .087 0 .22.305.22h3.052zM91.648 18.503c0-1.68 0-1.9-1.16-2.656l-.39-.259c-.184-.233-.164-.567.046-.777 1.497-.598 2.949-1.304 4.344-2.11.219.039.345.125.345.298v2.503c0 .219.046.345.132.391 1.503-1.254 3.139-2.589 4.735-2.589.488-.042.972.12 1.338.446.365.326.58.79.595 1.28.022.51-.161 1.009-.508 1.383-.348.374-.83.594-1.339.61-.34-.003-.67-.11-.947-.306-.554-.4-1.212-.63-1.894-.664-.626.017-1.204.34-1.55.863-.43.604-.562 1.859-.562 3.32v5.868c0 3.107.086 3.625 1.721 3.751l1.55.133c.136.152.204.353.187.556-.016.203-.115.391-.273.52-2.02-.087-3.271-.127-4.775-.127-1.503 0-2.84.04-3.973.126-.158-.128-.257-.316-.273-.519-.017-.203.051-.404.187-.556l.815-.133c1.596-.259 1.635-.664 1.635-3.751l.014-7.601zM103.951 39.747c-.036-.468.134-.929.465-1.26.33-.332.79-.502 1.257-.466h.821c.58.026 1.126-.273 1.417-.777.99-1.51 1.826-3.116 2.497-4.793.234-.593.38-1.217.43-1.852 0-.863-.172-1.381-.728-2.981l-3.358-9.235c-.735-2.025-1.033-3.06-2.543-3.366l-1.072-.212c-.259-.22-.219-.95.125-1.082 1.378.086 2.65.132 4.093.132 1.159 0 2.364-.046 3.741-.132.345.132.39.863.086 1.082l-1.072.212c-.603.133-.947.259-.947.564.327 1.378.743 2.733 1.245 4.057l1.377 3.983c.346 1.048.765 2.07 1.251 3.06.618-1.017 1.15-2.086 1.59-3.193l1.463-3.405c.947-2.244 1.51-3.844 1.51-4.316 0-.305-.258-.604-1.033-.737l-1.324-.212c-.298-.22-.259-.95.086-1.082 1.377.086 2.648.133 3.787.133 1.14 0 2.066-.047 3.272-.133.165.124.27.314.286.521.017.207-.056.412-.2.561l-.729.126c-1.423.259-2.198 1.514-3.662 4.574l-2.423 4.96c-1.417 2.887-4.947 10.396-7.06 15.103-.728 1.64-1.76 1.992-2.754 1.992-.503.049-1.002-.125-1.366-.476-.365-.351-.557-.844-.528-1.35zM136.624 6.553c0-2.55-.047-2.809-1.325-3.585l-.43-.26c-.212-.248-.212-.614 0-.862 1.602-.505 3.17-1.11 4.695-1.813.18-.003.344.098.424.26-.086 1.513-.172 3.451-.172 5.35v8.16c0 .73.172.902.437.902 1.495-.9 3.201-1.39 4.946-1.42 4.907 0 8.218 3.71 8.218 8.457 0 5.736-4.132 9.753-9.9 9.753-1.241.021-2.477-.17-3.655-.564-.589-.229-1.193-.415-1.808-.558-.344 0-.662.345-.907.664-.04.046-.086.046-.172.046-.18 0-.346-.1-.43-.259.046-.604.092-1.427.092-3.671l-.013-20.6zm3.178 18.469c-.069 1.336.311 2.657 1.08 3.75.815.953 2.02 1.48 3.27 1.428 4.047 0 5.643-3.452 5.643-7.163 0-4.448-2.285-7.9-6.543-7.9-1.017-.048-2.029.181-2.927.664-.437.305-.523.776-.523 2.463v6.758zM165.548 21.922c.663-.213.663-.605.729-1.249l.04-1.991c.046-1.6-.47-3.758-3.14-3.758-1.204 0-2.648.604-2.754 1.945-.04.664-.086 1.209-.43 1.468-.723.499-1.573.782-2.45.816-.166.02-.33-.038-.448-.156-.117-.117-.174-.283-.155-.448 0-2.244 4.86-5.311 8-5.311 3.138 0 4.635 1.812 4.476 5.045l-.252 7.522c-.086 1.992.298 3.758 1.987 3.758.372-.006.738-.095 1.072-.259.219-.133.43-.305.563-.305.133 0 .298.259.298.564-.836 1.172-2.178 1.877-3.615 1.899-1.09.027-2.126-.466-2.795-1.328-.179-.26-.43-.604-.662-.604-.599.206-1.165.497-1.682.863-.921.626-1.99.999-3.1 1.082-1.092.052-2.164-.303-3.012-.996-.853-.77-1.335-1.87-1.324-3.02 0-1.68.814-2.656 3.569-3.665l5.085-1.872zm-2.648 7.594c.97-.085 1.893-.46 2.648-1.075.517-.518.563-1.122.563-2.032l.086-2.542c0-.478-.172-.565-.437-.565-.6.079-1.192.223-1.761.432-2.543.863-3.788 1.514-3.788 3.193.002.7.285 1.37.786 1.858.502.487 1.178.751 1.876.731h.027zM177.382 18.503c0-1.68 0-1.9-1.166-2.656l-.384-.259c-.182-.232-.165-.564.04-.777 1.499-.598 2.953-1.304 4.35-2.11.213.039.345.125.345.298v2.503c0 .219.04.345.126.391 1.51-1.254 3.145-2.589 4.734-2.589.49-.044.975.116 1.342.443.368.327.584.791.599 1.283.02.512-.165 1.01-.514 1.383-.348.374-.83.594-1.34.61-.34-.003-.67-.11-.947-.306-.554-.401-1.212-.632-1.894-.664-.626.017-1.205.34-1.55.863-.43.604-.556 1.859-.556 3.32v5.868c0 3.107.086 3.625 1.722 3.751l1.55.133c.132.153.197.353.18.556-.015.202-.112.389-.267.52-2.026-.087-3.271-.127-4.78-.127-1.51 0-2.842.04-3.974.126-.155-.13-.252-.317-.268-.52-.016-.202.05-.402.182-.555l.82-.133c1.59-.259 1.637-.664 1.637-3.751l.013-7.601zM192.102 18.503c0-1.68 0-1.9-1.165-2.656l-.384-.259c-.183-.232-.166-.564.04-.777 1.502-.555 2.944-1.262 4.304-2.111.204-.005.392.113.477.299-.086.996-.086 1.64-.086 2.031-.006.127.042.25.131.34.09.09.212.137.339.132 1.807-1.122 3.834-2.198 6.026-2.198 3.575 0 5.039 2.457 5.039 5.351v7.422c0 3.107.086 3.539 1.636 3.751l.946.133c.133.154.198.354.182.556-.016.202-.112.39-.268.52-1.29-.087-2.542-.126-4.046-.126-1.503 0-2.84.04-4.006.126-.155-.13-.251-.318-.268-.52-.016-.202.05-.402.182-.556l.821-.133c1.59-.258 1.636-.663 1.636-3.75v-6.434c0-2.456-1.12-4.268-4.046-4.268-1.382-.062-2.722.49-3.662 1.507-.556.737-.662 1.327-.662 2.589v6.639c0 3.107.086 3.492 1.635 3.75l.775.133c.132.154.198.354.182.556-.016.202-.113.39-.268.52-1.165-.086-2.41-.126-3.92-.126-1.51 0-2.841.04-4.046.126-.155-.13-.252-.318-.268-.52-.016-.202.05-.402.182-.556l.907-.132c1.59-.213 1.636-.664 1.636-3.751l.02-7.608zM225.887 6.553c0-2.55-.04-2.809-1.324-3.585l-.43-.26c-.212-.248-.212-.614 0-.862 1.592-.476 3.142-1.082 4.635-1.813.181-.004.349.097.43.26-.046 1.327-.132 3.451-.132 5.35v14.805c0 .557.046.664.775.664.947 0 1.768-.472 2.927-1.68l1.768-1.899c1.205-1.294 1.503-1.772 1.503-1.991 0-.22-.212-.346-.947-.432l-1.033-.133c-.384-.126-.384-.95 0-1.075h.993c2.285.001 4.568-.114 6.84-.345.305.126.345.863.087 1.075l-1.378.259c-1.016.266-1.948.787-2.708 1.514-1.367 1.14-2.676 2.35-3.92 3.624-.517.472-.556.664-.298 1.036.901 1.199 1.863 2.351 2.88 3.452 1.682 1.9 3.186 3.579 4.046 4.402.643.521 1.418.85 2.239.95l.602.086c.305.212.259.949-.086 1.075-1.245-.086-2.708-.126-4.086-.126-1.721 0-3.231.04-4.476.126-.165-.123-.27-.312-.286-.518-.017-.206.056-.41.2-.557l.775-.133c.662-.086 1.072-.173 1.072-.432s-.172-.557-.728-1.208l-4.635-5.35c-.333-.386-.816-.607-1.325-.605-.774 0-.82.133-.82 1.467v2.377c0 3.107.085 3.538 1.635 3.75l1.033.134c.136.151.204.353.187.556-.016.203-.115.391-.273.52-1.417-.087-2.65-.127-4.172-.127-1.523 0-2.84.04-4.132.126-.162-.128-.26-.32-.27-.527-.008-.207.073-.407.223-.548l.947-.133c1.596-.213 1.636-.664 1.636-3.751l.026-19.518zM247.495 18.503c0-1.68 0-1.9-1.159-2.656l-.39-.259c-.184-.233-.165-.567.046-.777 1.532-.58 3.013-1.286 4.43-2.11.218 0 .39.085.43.258-.086 1.507-.172 3.578-.172 5.351v7.767c0 3.107.086 3.539 1.636 3.751l.907.133c.132.154.198.354.182.556-.017.202-.113.39-.268.52-1.325-.087-2.543-.126-4.046-.126-1.503 0-2.841.04-4.046.126-.159-.128-.258-.316-.274-.52-.016-.203.052-.404.188-.556l.9-.133c1.596-.212 1.636-.663 1.636-3.75v-7.575zm3.53-13.982c-.038 1.184-.994 2.13-2.175 2.153-1.18.023-2.173-.885-2.256-2.067-.015-.618.227-1.215.667-1.648.44-.433 1.041-.663 1.658-.635.57-.01 1.12.217 1.518.626.399.41.611.966.587 1.538v.033zM273.022 24.557c0 3.406.04 5.006 1.245 5.006.635-.06 1.258-.206 1.855-.432.297.087.344 1.162-.047 1.381-1.932.286-3.833.748-5.681 1.381-.259 0-.47-.133-.47-.345v-.737c.032-.444.003-.891-.087-1.328h-.172c-1.894 1.328-3.357 1.992-5.423 1.992-4.781 0-7.947-3.758-7.947-8.285 0-6.042 4.563-9.926 10.417-9.926.977-.031 1.952.099 2.887.386.212 0 .258-.26.258-.605V6.553c0-2.55-.046-2.809-1.324-3.585l-.43-.26c-.213-.248-.213-.614 0-.862 1.592-.475 3.142-1.081 4.635-1.813.181-.004.348.097.43.26-.04 1.327-.126 3.451-.126 5.35l-.02 18.914zm-3.152-6.473c.048-.6-.121-1.2-.476-1.686-.85-1.145-2.192-1.817-3.616-1.812-3.914 0-5.96 3.412-5.96 7.163 0 3.93 2.199 7.641 6.417 7.641 1.209-.012 2.377-.438 3.31-1.208.267-.488.374-1.048.306-1.6l.02-8.498zM288.902 14.028c.427 1.115.651 2.298.662 3.492-.252.317-.71.375-1.033.133-.728-1.899-2.02-3.154-3.788-3.154-.728-.06-1.447.197-1.974.705-.527.508-.811 1.219-.78 1.95 0 1.767 1.807 2.716 3.31 3.58 2.278 1.294 4.39 2.761 4.39 5.828 0 3.28-3.012 4.92-6.197 4.92-2.027 0-3.53-.432-4.636-1.295-.42-1.413-.595-2.889-.516-4.362.27-.27.702-.287.993-.04.729 2.37 2.106 4.442 4.563 4.442 1.55 0 2.88-.903 2.88-2.762 0-1.992-1.722-3.06-3.31-3.983-2.497-1.421-4.265-2.935-4.265-5.311 0-3.154 2.582-4.92 5.853-4.92 1.868 0 3.464.432 3.848.777z" transform="translate(16.48 16.522)"/>
    </g>
</svg>
