<?xml version="1.0" standalone="no"?>
<!DOCTYPE svg PUBLIC "-//W3C//DTD SVG 1.1//EN" "http://www.w3.org/Graphics/SVG/1.1/DTD/svg11.dtd" >
<svg xmlns="http://www.w3.org/2000/svg" xmlns:xlink="http://www.w3.org/1999/xlink" version="1.1">
<metadata>
Created by FontForge 20150804 at Mon Jul 15 10:35:19 2019
 By cloudconvert
(c) 2007-2015 H &#38; M Hennes &#38; Mauritz AB
</metadata>
<defs>
<font id="HMAmperserifTextW06-Regular" horiz-adv-x="610" >
  <font-face 
    font-family="HM Amperserif Text W06 Regular"
    font-weight="400"
    font-stretch="normal"
    units-per-em="1000"
    panose-1="2 7 5 4 7 7 6 2 3 0"
    ascent="800"
    descent="-200"
    x-height="486"
    cap-height="720"
    bbox="-251 -244 1258 970"
    underline-thickness="50"
    underline-position="-125"
    unicode-range="U+0002-FEFF"
  />
<missing-glyph horiz-adv-x="500" 
d="M0 700h500v-700h-500v700zM420 650h-340l170 -255zM450 95v510l-170 -255zM420 50l-170 255l-170 -255h340zM50 95l170 255l-170 255v-510z" />
    <glyph glyph-name="uniFB00" unicode="ff" horiz-adv-x="659" 
d="M208 454v-422h77v-32h-255v32h77v422h-86v32h86v37q0 58 19.5 101.5t52 72.5t75 43.5t89.5 14.5q45 0 83 -13t62 -36q23 24 53.5 36.5t62.5 12.5q26 0 49 -7.5t40.5 -21.5t27.5 -33.5t10 -42.5q0 -29 -15 -46t-41 -17q-20 0 -35.5 13.5t-15.5 36.5q0 13 4 21.5t9.5 15.5
t9.5 13.5t4 15.5q0 21 -47 21q-18 0 -32 -4t-24 -15.5t-15.5 -32t-5.5 -52.5v-134h131v-32h-131v-422h77v-32h-255v32h77v422h-218zM426 523q0 14 1 28t3 27q-20 17 -20 44q0 13 4.5 21.5t10.5 15.5t10.5 12.5t4.5 12.5q0 12 -24.5 25.5t-72.5 13.5q-30 0 -55 -7.5
t-42.5 -25.5t-27.5 -47.5t-10 -73.5v-83h218v37z" />
    <glyph glyph-name="uniFB03" unicode="ffi" horiz-adv-x="954" 
d="M208 454v-422h77v-32h-255v32h77v422h-86v32h86v37q0 58 19.5 101.5t52 72.5t75 43.5t89.5 14.5q49 0 90 -15.5t64 -42.5q33 29 75.5 43.5t89.5 14.5q37 0 70 -9t58 -25.5t39 -39.5t14 -51q0 -27 -16 -45.5t-44 -18.5q-22 0 -38 15t-16 41q0 13 4.5 21.5t10.5 15.5
t10.5 12.5t4.5 12.5q0 12 -24.5 25.5t-72.5 13.5q-30 0 -55 -7.5t-42.5 -25.5t-27.5 -47.5t-10 -73.5v-83h319v-454h77v-32h-255v32h77v422h-218v-422h77v-32h-255v32h77v422h-218zM426 523q0 31 5 54q-9 7 -15 18.5t-6 26.5q0 13 4.5 21.5t10.5 15.5t10.5 12.5t4.5 12.5
q0 12 -24.5 25.5t-72.5 13.5q-30 0 -55 -7.5t-42.5 -25.5t-27.5 -47.5t-10 -73.5v-83h218v37z" />
    <glyph glyph-name="f_l.liga" unicode="fl" horiz-adv-x="635" 
d="M426 32v535q-4 -1 -10 -1q-22 0 -38 15t-16 41q0 13 4.5 21.5t10.5 15.5t10.5 12.5t4.5 12.5q0 12 -19.5 25.5t-57.5 13.5q-23 0 -42.5 -9t-33.5 -29.5t-22.5 -52.5t-8.5 -77v-69h119v-32h-119v-422h77v-32h-255v32h77v422h-86v32h86v32q0 58 18 102t47.5 74t67 45.5
t75.5 15.5q31 0 64 -5t78 -5h70v-713h77v-32h-255v32h77z" />
    <glyph glyph-name="f_i.liga" unicode="fi" horiz-adv-x="635" 
d="M440 684q0 12 -24.5 25.5t-72.5 13.5q-30 0 -55 -7.5t-42.5 -25.5t-27.5 -47.5t-10 -73.5v-83h319v-454h77v-32h-255v32h77v422h-218v-422h77v-32h-255v32h77v422h-86v32h86v37q0 58 19.5 101.5t52 72.5t75 43.5t89.5 14.5q37 0 70 -9t58 -25.5t39 -39.5t14 -51
q0 -27 -16 -45.5t-44 -18.5q-22 0 -38 15t-16 41q0 13 4.5 21.5t10.5 15.5t10.5 12.5t4.5 12.5z" />
    <glyph glyph-name="uniFB04" unicode="ffl" horiz-adv-x="954" 
d="M343 755q48 0 89 -15t64 -42q28 28 64.5 42.5t73.5 14.5q31 0 64 -5t78 -5h70v-713h77v-32h-255v32h77v535q-4 -1 -10 -1q-22 0 -38 15t-16 41q0 13 4.5 21.5t10.5 15.5t10.5 12.5t4.5 12.5q0 12 -19.5 25.5t-57.5 13.5q-23 0 -42.5 -9t-33.5 -29.5t-22.5 -52.5t-8.5 -77
v-69h119v-32h-119v-422h77v-32h-255v32h77v422h-218v-422h77v-32h-255v32h77v422h-86v32h86v37q0 58 19.5 101.5t52 72.5t75 43.5t89.5 14.5zM426 518q0 31 6 58q-10 8 -16 19.5t-6 26.5q0 13 4.5 21.5t10.5 15.5t10.5 12.5t4.5 12.5q0 12 -24.5 25.5t-72.5 13.5
q-30 0 -55 -7.5t-42.5 -25.5t-27.5 -47.5t-10 -73.5v-83h218v32z" />
    <glyph glyph-name="f_b.liga" unicode="fb" horiz-adv-x="937" 
d="M670 22q28 0 49.5 11t35 37t20.5 68.5t7 104.5q0 61 -7 103.5t-20.5 68.5t-35 37.5t-49.5 11.5q-30 0 -56.5 -13t-45.5 -36.5t-30 -56.5t-11 -72v-86q0 -39 11 -72t30 -56.5t45.5 -36.5t56.5 -13zM527 400q6 18 18.5 35.5t30.5 31t41.5 21.5t52.5 8q46 0 86.5 -19.5
t71 -54t48 -80.5t17.5 -99t-17.5 -99t-48 -80t-71 -54t-86.5 -20q-29 0 -52.5 8t-41.5 21.5t-30.5 31t-18.5 35.5v-86h-178v32h77v535q-4 -1 -10 -1q-22 0 -38 15t-16 41q0 13 4.5 21.5t10.5 15.5t10.5 12.5t4.5 12.5q0 12 -19.5 25.5t-57.5 13.5q-23 0 -42.5 -9
t-33.5 -29.5t-22.5 -52.5t-8.5 -77v-69h119v-32h-119v-422h77v-32h-255v32h77v422h-86v32h86v32q0 58 18 102t47.5 74t67 45.5t75.5 15.5q31 0 64 -5t78 -5h70v-345z" />
    <glyph glyph-name="f_f_b.liga" unicode="ffb" horiz-adv-x="1256" 
d="M846 400q6 18 18.5 35.5t30.5 31t41.5 21.5t52.5 8q46 0 86.5 -19.5t71 -54t48 -80.5t17.5 -99t-17.5 -99t-48 -80t-71 -54t-86.5 -20q-29 0 -52.5 8t-41.5 21.5t-30.5 31t-18.5 35.5v-86h-178v32h77v535q-4 -1 -10 -1q-22 0 -38 15t-16 41q0 13 4.5 21.5t10.5 15.5
t10.5 12.5t4.5 12.5q0 12 -19.5 25.5t-57.5 13.5q-23 0 -42.5 -9t-33.5 -29.5t-22.5 -52.5t-8.5 -77v-69h119v-32h-119v-422h77v-32h-255v32h77v422h-218v-422h77v-32h-255v32h77v422h-86v32h86v37q0 58 19.5 101.5t52 72.5t75 43.5t89.5 14.5q48 0 89.5 -15.5t63.5 -41.5
q28 28 64.5 42.5t73.5 14.5q31 0 64 -5t78 -5h70v-345zM989 22q28 0 49.5 11t35 37t20.5 68.5t7 104.5q0 61 -7 103.5t-20.5 68.5t-35 37.5t-49.5 11.5q-30 0 -56.5 -13t-45.5 -36.5t-30 -56.5t-11 -72v-86q0 -39 11 -72t30 -56.5t45.5 -36.5t56.5 -13zM426 518
q0 16 1.5 31.5t4.5 26.5q-10 8 -16 19.5t-6 26.5q0 13 4.5 21.5t10.5 15.5t10.5 12.5t4.5 12.5q0 12 -24.5 25.5t-72.5 13.5q-30 0 -55 -7.5t-42.5 -25.5t-27.5 -47.5t-10 -73.5v-83h218v32z" />
    <glyph glyph-name="f_f_h.liga" unicode="ffh" horiz-adv-x="1283" 
d="M846 370q13 60 55.5 95t98.5 35q39 0 72 -11t57.5 -34t38 -59t13.5 -86v-278h77v-32h-249v32h71v300q0 69 -25 96.5t-75 27.5q-24 0 -48 -14t-43 -42t-31 -69.5t-12 -95.5v-203h71v-32h-249v32h77v535q-4 -1 -10 -1q-22 0 -38 15t-16 41q0 13 4.5 21.5t10.5 15.5
t10.5 12.5t4.5 12.5q0 12 -19.5 25.5t-57.5 13.5q-23 0 -42.5 -9t-33.5 -29.5t-22.5 -52.5t-8.5 -77v-69h119v-32h-119v-422h77v-32h-255v32h77v422h-218v-422h77v-32h-255v32h77v422h-86v32h86v37q0 58 19.5 101.5t52 72.5t75 43.5t89.5 14.5q48 0 89.5 -15.5t63.5 -41.5
q28 28 64.5 42.5t73.5 14.5q31 0 64 -5t78 -5h70v-375zM426 518q0 16 1.5 31.5t4.5 26.5q-10 8 -16 19.5t-6 26.5q0 13 4.5 21.5t10.5 15.5t10.5 12.5t4.5 12.5q0 12 -24.5 25.5t-72.5 13.5q-30 0 -55 -7.5t-42.5 -25.5t-27.5 -47.5t-10 -73.5v-83h218v32z" />
    <glyph glyph-name="f_f_j.liga" unicode="ffj" horiz-adv-x="972" 
d="M527 454v-422h77v-32h-255v32h77v422h-218v-422h77v-32h-255v32h77v422h-86v32h86v37q0 58 19.5 101.5t52 72.5t75 43.5t89.5 14.5q49 0 90 -15.5t64 -42.5q33 29 75.5 43.5t89.5 14.5q37 0 70 -9t58 -25.5t39 -39.5t14 -51q0 -27 -16 -45.5t-44 -18.5q-22 0 -38 15
t-16 41q0 13 4.5 21.5t10.5 15.5t10.5 12.5t4.5 12.5q0 12 -24.5 25.5t-72.5 13.5q-30 0 -55 -7.5t-42.5 -25.5t-27.5 -47.5t-10 -73.5v-83h319v-477q0 -58 -14 -101.5t-37.5 -72.5t-54.5 -43.5t-65 -14.5q-49 0 -80 29t-31 76q0 27 16 45.5t40 18.5q22 0 36 -15t14 -36
q0 -13 -6.5 -20.5t-14.5 -13.5t-14.5 -12t-6.5 -15q0 -11 13.5 -18t33.5 -7q19 0 32 4.5t21.5 17t12.5 34t4 55.5v534h-218zM426 523q0 29 5 54q-9 7 -15 18.5t-6 26.5q0 13 4.5 21.5t10.5 15.5t10.5 12.5t4.5 12.5q0 12 -24.5 25.5t-72.5 13.5q-30 0 -55 -7.5t-42.5 -25.5
t-27.5 -47.5t-10 -73.5v-83h218v37z" />
    <glyph glyph-name="f_f_k.liga" unicode="ffk" horiz-adv-x="1212" 
d="M846 280l228 174h-93v32h216v-32h-67l-166 -127l214 -295h48v-32h-249v32h73l-167 234l-37 -29v-205h55v-32h-233v32h77v535q-4 -1 -10 -1q-22 0 -38 15t-16 41q0 13 4.5 21.5t10.5 15.5t10.5 12.5t4.5 12.5q0 12 -19.5 25.5t-57.5 13.5q-23 0 -42.5 -9t-33.5 -29.5
t-22.5 -52.5t-8.5 -77v-69h119v-32h-119v-422h77v-32h-255v32h77v422h-218v-422h77v-32h-255v32h77v422h-86v32h86v37q0 58 19.5 101.5t52 72.5t75 43.5t89.5 14.5q48 0 88.5 -15.5t64.5 -41.5q29 28 65 42.5t73 14.5q31 0 64 -5t78 -5h70v-465zM426 518q0 31 6 58
q-10 8 -16 19.5t-6 26.5q0 13 4.5 21.5t10.5 15.5t10.5 12.5t4.5 12.5q0 12 -24.5 25.5t-72.5 13.5q-30 0 -55 -7.5t-42.5 -25.5t-27.5 -47.5t-10 -73.5v-83h218v32z" />
    <glyph glyph-name="f_f_thorn.liga" unicode="ff&#xfe;" horiz-adv-x="1256" 
d="M846 400q6 18 18.5 35.5t30.5 31t41.5 21.5t52.5 8q46 0 86.5 -19.5t71 -54t48 -80.5t17.5 -99t-17.5 -99t-48 -80t-71 -54t-86.5 -20q-29 0 -52.5 8t-41.5 21.5t-30.5 31t-18.5 35.5v-277h77v-32h-255v32h77v758q-4 -1 -10 -1q-22 0 -38 15t-16 41q0 13 4.5 21.5
t10.5 15.5t10.5 12.5t4.5 12.5q0 12 -19.5 25.5t-57.5 13.5q-23 0 -42.5 -9t-33.5 -29.5t-22.5 -52.5t-8.5 -77v-69h119v-32h-119v-422h77v-32h-255v32h77v422h-218v-422h77v-32h-255v32h77v422h-86v32h86v37q0 58 19.5 101.5t52 72.5t75 43.5t89.5 14.5q48 0 89.5 -15.5
t63.5 -41.5q28 28 64.5 42.5t73.5 14.5q31 0 64 -5t78 -5h70v-345zM989 22q28 0 49.5 11t35 37t20.5 68.5t7 104.5q0 61 -7 103.5t-20.5 68.5t-35 37.5t-49.5 11.5q-30 0 -56.5 -13t-45.5 -36.5t-30 -56.5t-11 -72v-86q0 -39 11 -72t30 -56.5t45.5 -36.5t56.5 -13zM426 518
q0 16 1.5 31.5t4.5 26.5q-10 8 -16 19.5t-6 26.5q0 13 4.5 21.5t10.5 15.5t10.5 12.5t4.5 12.5q0 12 -24.5 25.5t-72.5 13.5q-30 0 -55 -7.5t-42.5 -25.5t-27.5 -47.5t-10 -73.5v-83h218v32z" />
    <glyph glyph-name="f_h.liga" unicode="fh" horiz-adv-x="964" 
d="M349 0v32h77v535q-4 -1 -10 -1q-22 0 -38 15t-16 41q0 13 4.5 21.5t10.5 15.5t10.5 12.5t4.5 12.5q0 12 -19.5 25.5t-57.5 13.5q-23 0 -42.5 -9t-33.5 -29.5t-22.5 -52.5t-8.5 -77v-69h119v-32h-119v-422h77v-32h-255v32h77v422h-86v32h86v32q0 58 18 102t47.5 74
t67 45.5t75.5 15.5q31 0 64 -5t78 -5h70v-375q13 60 55.5 95t98.5 35q39 0 72 -11t57.5 -34t38 -59t13.5 -86v-278h77v-32h-249v32h71v300q0 69 -25 96.5t-75 27.5q-24 0 -48 -14t-43 -42t-31 -69.5t-12 -95.5v-203h71v-32h-249z" />
    <glyph glyph-name="f_j.liga" unicode="fj" horiz-adv-x="616" 
d="M527 9q0 -58 -14 -101.5t-37.5 -72.5t-54.5 -43.5t-65 -14.5q-49 0 -80 29t-31 76q0 27 16 45.5t40 18.5q22 0 36 -15t14 -36q0 -13 -6.5 -20.5t-14.5 -13.5t-14.5 -12t-6.5 -15q0 -11 13.5 -18t33.5 -7q19 0 32 4.5t21.5 17t12.5 34t4 55.5v534h-218v-422h77v-32h-255
v32h77v422h-86v32h86v37q0 58 19.5 101.5t52 72.5t75 43.5t89.5 14.5q37 0 70 -9t58 -25.5t39 -39.5t14 -51q0 -27 -16 -45.5t-44 -18.5q-22 0 -38 15t-16 41q0 13 4.5 21.5t10.5 15.5t10.5 12.5t4.5 12.5q0 12 -24.5 25.5t-72.5 13.5q-30 0 -55 -7.5t-42.5 -25.5
t-27.5 -47.5t-10 -73.5v-83h319v-477z" />
    <glyph glyph-name="f_k.liga" unicode="fk" horiz-adv-x="893" 
d="M527 280l228 174h-93v32h216v-32h-67l-166 -127l214 -295h48v-32h-249v32h73l-167 234l-37 -29v-205h55v-32h-233v32h77v535q-4 -1 -10 -1q-22 0 -38 15t-16 41q0 13 4.5 21.5t10.5 15.5t10.5 12.5t4.5 12.5q0 12 -19.5 25.5t-57.5 13.5q-23 0 -42.5 -9t-33.5 -29.5
t-22.5 -52.5t-8.5 -77v-69h119v-32h-119v-422h77v-32h-255v32h77v422h-86v32h86v32q0 58 18 102t47.5 74t67 45.5t75.5 15.5q31 0 64 -5t78 -5h70v-465z" />
    <glyph glyph-name="f_thorn.liga" unicode="f&#xfe;" horiz-adv-x="937" 
d="M670 22q28 0 49.5 11t35 37t20.5 68.5t7 104.5q0 61 -7 103.5t-20.5 68.5t-35 37.5t-49.5 11.5q-30 0 -56.5 -13t-45.5 -36.5t-30 -56.5t-11 -72v-86q0 -39 11 -72t30 -56.5t45.5 -36.5t56.5 -13zM527 400q6 18 18.5 35.5t30.5 31t41.5 21.5t52.5 8q46 0 86.5 -19.5
t71 -54t48 -80.5t17.5 -99t-17.5 -99t-48 -80t-71 -54t-86.5 -20q-29 0 -52.5 8t-41.5 21.5t-30.5 31t-18.5 35.5v-277h77v-32h-255v32h77v758q-4 -1 -10 -1q-22 0 -38 15t-16 41q0 13 4.5 21.5t10.5 15.5t10.5 12.5t4.5 12.5q0 12 -19.5 25.5t-57.5 13.5q-23 0 -42.5 -9
t-33.5 -29.5t-22.5 -52.5t-8.5 -77v-69h119v-32h-119v-422h77v-32h-255v32h77v422h-86v32h86v32q0 58 18 102t47.5 74t67 45.5t75.5 15.5q31 0 64 -5t78 -5h70v-345z" />
    <glyph glyph-name=".notdef" horiz-adv-x="500" 
d="M0 700h500v-700h-500v700zM420 650h-340l170 -255zM450 95v510l-170 -255zM420 50l-170 255l-170 -255h340zM50 95l170 255l-170 255v-510z" />
    <glyph glyph-name="glyph1" horiz-adv-x="0" 
 />
    <glyph glyph-name="glyph1" horiz-adv-x="0" 
 />
    <glyph glyph-name="uni000D" unicode="&#xd;" horiz-adv-x="259" 
 />
    <glyph glyph-name="space" unicode=" " horiz-adv-x="259" 
 />
    <glyph glyph-name="comma" unicode="," horiz-adv-x="258" 
d="M199 30q0 -63 -32.5 -109t-90.5 -71l-12 30q46 22 61.5 44t15.5 39q0 12 -6 18.5t-17 10.5q-6 2 -15.5 6t-18 11.5t-15 19t-6.5 28.5q0 27 17.5 46t44.5 19q32 0 53 -25t21 -67z" />
    <glyph glyph-name="hyphen" unicode="-" horiz-adv-x="400" 
d="M326 254h-252v64h252v-64z" />
    <glyph glyph-name="period" unicode="." horiz-adv-x="268" 
d="M134 120q27 0 46 -19t19 -46t-19 -46t-46 -19t-46 19t-19 46t19 46t46 19z" />
    <glyph glyph-name="zero" unicode="0" horiz-adv-x="652" 
d="M326 730q57 0 106.5 -29t86 -79.5t57.5 -118t21 -143.5q0 -77 -21 -144t-58 -117.5t-86 -79.5t-106 -29t-106.5 29t-86 79.5t-57.5 117.5t-21 144q0 76 21 143.5t58 118t86 79.5t106 29zM326 698q-40 0 -67 -14.5t-43.5 -52.5t-24 -103.5t-7.5 -167.5t7.5 -167.5
t24 -103.5t43.5 -52.5t67 -14.5t67 14.5t43.5 52.5t24 103.5t7.5 167.5t-7.5 167.5t-24 103.5t-43.5 52.5t-67 14.5z" />
    <glyph glyph-name="one" unicode="1" horiz-adv-x="462" 
d="M62 536q55 36 104.5 82.5t85.5 101.5h62v-688h111v-32h-337v32h111v575q-22 -23 -54.5 -49.5t-64.5 -47.5z" />
    <glyph glyph-name="two" unicode="2" 
d="M80 102q6 6 16.5 15.5t26.5 17.5t38 14t51 6q26 0 52 -8t52.5 -17.5t53 -17.5t53.5 -8q36 0 54.5 26.5t21.5 71.5h32q-6 -108 -50 -159.5t-110 -51.5q-33 0 -62.5 15t-57.5 32.5t-54.5 32.5t-54.5 15q-33 0 -55.5 -23.5t-30.5 -71.5l-32 4q15 109 60.5 188.5t141.5 131.5
q33 18 57.5 36.5t41 44.5t24.5 61t8 86q0 46 -7 76t-21.5 47.5t-37 24.5t-52.5 7q-26 0 -50 -7.5t-42 -19.5t-29 -26.5t-11 -29.5t11 -20.5t24 -11t24 -17t11 -38.5q0 -32 -19.5 -49t-48.5 -17q-32 0 -50 20.5t-18 55.5q0 42 16.5 77.5t45.5 61t68 39.5t85 14
q43 0 84.5 -13.5t73.5 -39t52 -62t20 -83.5q0 -43 -21 -79t-55 -66t-78 -55t-90 -47q-34 -17 -60.5 -39t-46.5 -46.5t-33.5 -49.5t-21.5 -48z" />
    <glyph glyph-name="three" unicode="3" horiz-adv-x="560" 
d="M184 377q-19 0 -19 20t19 20q7 0 20.5 -2t45.5 -2q48 0 70.5 33.5t22.5 105.5q0 44 -7 72t-21.5 44.5t-37 23t-52.5 6.5q-24 0 -45 -6.5t-37.5 -17t-26 -22.5t-9.5 -24t10.5 -16.5t23 -9.5t23 -14.5t10.5 -32.5q0 -28 -18 -46t-47 -18q-30 0 -47.5 20.5t-17.5 52.5
q0 37 14.5 67.5t40 52.5t59.5 34t74 12q43 0 84.5 -11.5t74 -33.5t52.5 -54t20 -72q0 -68 -45.5 -107t-124.5 -54q47 -6 86.5 -18.5t67.5 -34t43.5 -53t15.5 -74.5q0 -54 -23.5 -96.5t-62.5 -71.5t-88 -44.5t-100 -15.5q-44 0 -81.5 12.5t-65 35.5t-43 55t-15.5 70
q0 34 18 55t50 21q29 0 48.5 -18.5t19.5 -47.5q0 -24 -11 -34t-24 -15.5t-24 -10t-11 -17.5t11 -26.5t29 -24t42 -17t50 -6.5q39 0 67.5 8t47.5 29t28 57.5t9 93.5q0 43 -10 75.5t-27 53.5t-40 31.5t-50 10.5q-26 0 -40.5 -2t-25.5 -2z" />
    <glyph glyph-name="four" unicode="4" horiz-adv-x="560" 
d="M556 232v-32h-129v-168h89v-32h-293v32h89v168h-296v32l353 488h58v-488h129zM56 232h256v355z" />
    <glyph glyph-name="five" unicode="5" horiz-adv-x="550" 
d="M102 96q0 -13 9.5 -26.5t26.5 -24t40 -17t49 -6.5q36 0 63 8.5t44.5 29.5t26 57t8.5 92q0 45 -9.5 81.5t-27 62.5t-42.5 40.5t-56 14.5q-44 0 -72 -12t-51 -37h-32l38 361h277q18 0 35.5 3t27.5 22h22l-14 -125h-326l-23 -214q12 10 44 22t74 12q61 0 110 -17t83.5 -48
t52.5 -73t18 -93q0 -52 -22.5 -92.5t-60 -68.5t-85 -43t-96.5 -15q-46 0 -82.5 12.5t-62 35.5t-39.5 55t-14 70q0 34 18 55t50 21q29 0 48.5 -18.5t19.5 -47.5q0 -24 -11 -34t-24 -15.5t-24 -10t-11 -17.5z" />
    <glyph glyph-name="six" unicode="6" 
d="M317 403q-37 0 -72 -22t-61 -54v-16q0 -79 9.5 -134t27.5 -89.5t43.5 -50t56.5 -15.5q55 0 86.5 53t31.5 146q0 91 -31.5 136.5t-90.5 45.5zM408 580q0 18 5 29.5t11.5 19t11.5 14.5t5 16q0 20 -25.5 29t-63.5 9q-40 0 -70 -14t-51 -50.5t-32.5 -99t-13.5 -159.5
q26 31 66.5 49.5t92.5 18.5q43 0 84 -14.5t72 -42.5t50 -69t19 -94q0 -109 -65.5 -170.5t-182.5 -61.5q-61 0 -110 21t-83.5 62.5t-53.5 103t-19 142.5q0 97 24.5 173t65 128.5t94 80.5t111.5 28q42 0 77 -10.5t60 -29t39 -44t14 -56.5q0 -33 -17.5 -52.5t-47.5 -19.5
q-29 0 -48 17.5t-19 45.5z" />
    <glyph glyph-name="seven" unicode="7" horiz-adv-x="530" 
d="M208 620q-75 0 -103.5 -26.5t-28.5 -89.5h-32v216h466q-46 -74 -78.5 -132.5t-54.5 -108.5t-34.5 -95t-19 -91.5t-8.5 -98t-2 -115.5q0 -48 -18 -68.5t-49 -20.5q-30 0 -49 21t-19 69q0 19 1.5 41.5t8.5 52.5t21.5 70t40.5 94t66 123.5t97 158.5h-205z" />
    <glyph glyph-name="eight" unicode="8" horiz-adv-x="607" 
d="M372 407q33 -19 66 -40.5t59.5 -47.5t43 -58t16.5 -73q0 -45 -18 -81.5t-51.5 -62.5t-81.5 -40t-109 -14q-115 0 -181 48t-66 130q0 79 41.5 123t128.5 69q-26 16 -51.5 35.5t-46 43.5t-33.5 52.5t-13 61.5q0 88 61 132.5t169 44.5q106 0 166 -42.5t60 -114.5
q0 -33 -11 -58.5t-32 -45t-50.5 -34.5t-66.5 -28zM306 700q-47 0 -79.5 -27t-32.5 -81q0 -27 14 -51t35.5 -45t48 -38.5t50.5 -32.5q15 10 29.5 24t26.5 32.5t19.5 41.5t7.5 50q0 58 -30 92.5t-89 34.5zM297 21q32 0 58.5 10.5t45 28.5t28.5 40.5t10 46.5q0 36 -17 63.5
t-44 50t-60.5 41.5t-66.5 40q-18 -12 -35.5 -26.5t-30.5 -35t-21 -48t-8 -64.5q0 -67 35 -107t106 -40z" />
    <glyph glyph-name="nine" unicode="9" 
d="M293 316q37 0 72 22t61 54v16q0 79 -9.5 134t-27.5 89.5t-43.5 50t-56.5 15.5q-55 0 -86.5 -53t-31.5 -146q0 -91 31.5 -136.5t90.5 -45.5zM179 60q0 -20 24.5 -29t61.5 -9t66 14t49 50.5t31.5 99t13.5 159.5q-26 -31 -66.5 -49.5t-92.5 -18.5q-44 0 -84.5 14.5
t-71.5 42.5t-50 69t-19 94q0 109 65.5 170.5t182.5 61.5q61 0 110 -21t83.5 -62.5t53.5 -103t19 -142.5q0 -97 -24 -173t-64 -128.5t-92.5 -80.5t-109.5 -28q-42 0 -76 10.5t-58 29t-37.5 44t-13.5 56.5q0 33 17.5 52.5t47.5 19.5q29 0 48 -17.5t19 -45.5q0 -18 -5 -29.5
t-11.5 -19t-11.5 -14.5t-5 -16z" />
    <glyph glyph-name="A" unicode="A" horiz-adv-x="712" 
d="M415 263l-114 295l-107 -295h221zM111 32h84v-32h-206v32h87l253 700h26l272 -700h96v-32h-302v32h84l-77 199h-245z" />
    <glyph glyph-name="B" unicode="B" horiz-adv-x="642" 
d="M321 411q64 0 97 35.5t33 102.5q0 68 -33 103.5t-97 35.5h-70v-277h70zM321 32q80 0 121 42.5t41 123.5q0 95 -39 138t-115 43h-78v-347h70zM321 720q121 0 184 -44.5t63 -122.5q0 -68 -47.5 -108t-140.5 -49q115 -13 170.5 -62t55.5 -141q0 -94 -72.5 -143.5
t-212.5 -49.5h-296v32h111v656h-111v32h296z" />
    <glyph glyph-name="C" unicode="C" horiz-adv-x="691" 
d="M390 730q26 0 51.5 -6.5t48 -14t41.5 -13.5t33 -6q17 0 25 6.5t11 23.5h31v-260h-31q-11 52 -30.5 96t-46 75.5t-60.5 49t-73 17.5q-53 0 -91 -16t-63 -54t-37 -101t-12 -157t11.5 -160t36 -108t63 -61t93.5 -19q40 0 75 17.5t63 49t48.5 75t31.5 96.5h32v-260h-31
q-3 17 -11 23.5t-25 6.5q-15 0 -34.5 -6.5t-43.5 -14t-50.5 -13.5t-54.5 -6q-70 0 -130.5 30t-105.5 81.5t-71 121t-26 147.5q0 75 26 140.5t71 114.5t105.5 77t129.5 28z" />
    <glyph glyph-name="D" unicode="D" horiz-adv-x="790" 
d="M25 0v32h111v656h-111v32h366q69 0 129.5 -28.5t105.5 -77.5t71 -114.5t26 -139.5t-26 -139.5t-70.5 -114.5t-105 -77.5t-129.5 -28.5h-367zM386 32q51 0 90 14.5t65 51t39.5 100t13.5 162.5t-13.5 162.5t-40 100t-65.5 51t-90 14.5h-134v-656h135z" />
    <glyph glyph-name="E" unicode="E" horiz-adv-x="668" 
d="M25 0v32h111v656h-111v32h559v-240h-31q0 46 -14.5 84.5t-41 66t-64.5 42.5t-85 15h-97v-297h43q33 0 57.5 11.5t40 31t23.5 46t8 57.5h31v-324h-31q0 31 -8 58t-23.5 46.5t-40 30.5t-57.5 11h-43v-327h131q53 0 94 17.5t69 49t42.5 75.5t14.5 96h32v-270h-609z" />
    <glyph glyph-name="F" unicode="F" horiz-adv-x="639" 
d="M251 688v-315h43q33 0 57.5 11.5t40 31t23.5 46t8 57.5h31v-324h-31q0 31 -8 58t-23.5 46.5t-40 30.5t-57.5 11h-43v-309h111v-32h-337v32h111v656h-111v32h559v-240h-31q0 46 -14.5 84.5t-41 66t-64.5 42.5t-85 15h-97z" />
    <glyph glyph-name="G" unicode="G" horiz-adv-x="751" 
d="M391 -10q-70 0 -130.5 27t-105.5 75t-71 114t-26 144q0 75 26 143.5t71 121t105.5 84t129.5 31.5q26 0 51.5 -6.5t48 -14t41.5 -13.5t33 -6q17 0 25 6.5t11 23.5h31v-260h-31q-11 52 -30.5 96t-46 75.5t-60.5 49t-73 17.5q-53 0 -91 -19t-63 -61t-37 -108t-12 -160
t11.5 -157t36 -101t63 -54t93.5 -16q77 0 117 35t40 103v118h-106v32h307v-32h-90v-278h-32q-3 20 -15.5 33t-34.5 13q-15 0 -29 -9t-34 -19.5t-49 -19t-74 -8.5z" />
    <glyph glyph-name="H" unicode="H" horiz-adv-x="839" 
d="M703 688v-656h111v-32h-337v32h111v318h-337v-318h111v-32h-337v32h111v656h-111v32h337v-32h-111v-306h337v306h-111v32h337v-32h-111z" />
    <glyph glyph-name="I" unicode="I" horiz-adv-x="393" 
d="M254 32h111v-32h-337v32h111v656h-111v32h337v-32h-111v-656z" />
    <glyph glyph-name="J" unicode="J" horiz-adv-x="495" 
d="M81 59q0 -15 23 -26t60 -11q48 0 70 26.5t22 101.5v538h-111v32h337v-32h-111v-451q0 -131 -54 -189t-153 -58q-78 0 -119 39t-41 106q0 34 20 59t53 25q26 0 45.5 -18.5t19.5 -49.5q0 -18 -9.5 -30.5t-21 -22.5t-21 -18.5t-9.5 -20.5z" />
    <glyph glyph-name="K" unicode="K" horiz-adv-x="731" 
d="M517 32l-266 326v-326h103v-32h-329v32h111v656h-111v32h329v-32h-103v-321l323 321h-74v32h211v-32h-92l-270 -268l317 -388h82v-32h-308v32h77z" />
    <glyph glyph-name="L" unicode="L" horiz-adv-x="648" 
d="M25 0v32h111v656h-111v32h337v-32h-111v-656h111q53 0 94 17.5t69 49t42.5 75.5t14.5 96h32v-270h-589z" />
    <glyph glyph-name="M" unicode="M" horiz-adv-x="941" 
d="M165 32h111v-32h-255v32h111v656h-111v32h238l215 -553l206 553h240v-32h-111v-656h111v-32h-337v32h111v633l-253 -677h-19l-257 661v-617z" />
    <glyph glyph-name="N" unicode="N" horiz-adv-x="790" 
d="M640 -12l-480 678v-634h111v-32h-255v32h111v656h-111v32h247l367 -519v487h-111v32h255v-32h-111v-700h-23z" />
    <glyph glyph-name="O" unicode="O" horiz-adv-x="781" 
d="M390 730q70 0 130.5 -29t105.5 -79.5t71 -118t26 -143.5q0 -77 -26 -144t-71 -117.5t-105.5 -79.5t-129.5 -29q-70 0 -130.5 29t-105.5 79.5t-71 117.5t-26 144q0 76 26 143.5t71 118t105.5 79.5t129.5 29zM390 698q-55 0 -93.5 -17.5t-63 -57.5t-35.5 -104.5t-11 -158.5
t11.5 -158.5t36 -104.5t63 -57.5t93.5 -17.5t93.5 17.5t63 57.5t35.5 104.5t11 158.5t-11.5 158.5t-36 104.5t-63 57.5t-93.5 17.5z" />
    <glyph glyph-name="P" unicode="P" horiz-adv-x="626" 
d="M251 32h111v-32h-337v32h111v656h-111v32h286q133 0 202 -54t69 -157q0 -100 -66.5 -152.5t-196.5 -52.5q-14 0 -32.5 1.5t-35.5 4.5v-278zM251 341q17 -2 34.5 -3.5t33.5 -1.5q69 0 104.5 43.5t35.5 125.5q0 89 -38 136t-110 47h-60v-347z" />
    <glyph glyph-name="Q" unicode="Q" horiz-adv-x="803" 
d="M633 -63q32 0 54.5 20.5t25.5 64.5h32q-5 -81 -49 -125t-113 -44q-46 0 -84.5 17t-73 38t-66 38t-62.5 17q-24 0 -45.5 -23t-35.5 -64l-30 10q16 45 42.5 75t66.5 44q-52 17 -95.5 51.5t-75 81t-49 103t-17.5 119.5q0 76 26 143.5t71 118t105.5 79.5t129.5 29
q70 0 130.5 -29t105.5 -79.5t71 -118t26 -143.5q0 -67 -20 -127t-55.5 -108t-84 -81t-105.5 -46q24 -9 46 -19.5t44 -20t43 -15.5t42 -6zM390 698q-55 0 -93.5 -17.5t-63 -57.5t-35.5 -104.5t-11 -158.5t11.5 -158.5t36 -104.5t63 -57.5t93.5 -17.5t93.5 17.5t63 57.5
t35.5 104.5t11 158.5t-11.5 158.5t-36 104.5t-63 57.5t-93.5 17.5z" />
    <glyph glyph-name="R" unicode="R" horiz-adv-x="724" 
d="M311 720q125 0 190 -45t65 -132q0 -69 -55.5 -115.5t-149.5 -58.5q74 0 120.5 -10t73 -34.5t36.5 -67.5t10 -109q0 -37 3 -60t8.5 -36t13.5 -17.5t19 -4.5q29 0 53 37l26 -18q-20 -32 -47.5 -45.5t-65.5 -13.5q-32 0 -56.5 9.5t-41 33.5t-25 65.5t-8.5 104.5
q0 42 -6.5 70.5t-24 45t-46.5 23.5t-74 7h-78v-317h111v-32h-337v32h111v656h-111v32h286zM303 381q72 0 109 40t37 118q0 72 -35 110.5t-103 38.5h-60v-307h52z" />
    <glyph glyph-name="S" unicode="S" horiz-adv-x="611" 
d="M319 -10q-28 0 -54 6.5t-49.5 15t-44.5 15t-39 6.5q-31 0 -36 -37h-31v288h32q7 -61 27.5 -109.5t50.5 -82.5t66.5 -52t77.5 -18q63 0 101.5 34.5t38.5 95.5q0 41 -16 69t-42 47.5t-59 33t-68 27t-68 29.5t-59 39.5t-42 57t-16 82.5q0 44 16.5 80t44 61t63 38.5
t72.5 13.5q26 0 46.5 -5t38 -11t32 -11t29.5 -5q29 0 35 32h31v-231h-32q-27 102 -76 150.5t-104 48.5q-30 0 -54.5 -9.5t-42.5 -25.5t-27.5 -37.5t-9.5 -45.5q0 -32 17 -54t45 -38.5t63.5 -29.5t72.5 -27t72.5 -32t63.5 -44t45 -62.5t17 -87.5q0 -45 -17 -84.5t-47 -68.5
t-72 -45.5t-92 -16.5z" />
    <glyph glyph-name="T" unicode="T" horiz-adv-x="717" 
d="M264 688q-95 0 -150 -58.5t-55 -159.5h-31v250h661v-250h-31q0 101 -55 159.5t-150 58.5h-37v-656h111v-32h-337v32h111v656h-37z" />
    <glyph glyph-name="U" unicode="U" horiz-adv-x="736" 
d="M614 688v-488q0 -111 -60 -160.5t-184 -49.5q-125 0 -186.5 50t-61.5 156v492h-111v32h337v-32h-111v-493q0 -86 40.5 -125.5t123.5 -39.5q92 0 136 42t44 128v488h-111v32h255v-32h-111z" />
    <glyph glyph-name="V" unicode="V" horiz-adv-x="690" 
d="M371 -12h-25l-272 700h-96v32h302v-32h-84l204 -526l190 526h-84v32h206v-32h-88z" />
    <glyph glyph-name="W" unicode="W" horiz-adv-x="1033" 
d="M737 -12h-25l-189 517l-176 -517h-25l-256 700h-86v32h283v-32h-75l188 -515l129 380l-49 135h-86v32h283v-32h-75l188 -515l176 515h-75v32h186v-32h-77z" />
    <glyph glyph-name="X" unicode="X" horiz-adv-x="730" 
d="M712 32v-32h-312v32h89l-161 279l-196 -279h85v-32h-199v32h75l218 308l-201 348h-92v32h312v-32h-89l144 -250l176 250h-87v32h223v-32h-98l-196 -280l217 -376h92z" />
    <glyph glyph-name="Y" unicode="Y" horiz-adv-x="685" 
d="M569 688h-81v32h209v-32h-90l-202 -357v-299h111v-32h-337v32h111v299l-203 357h-99v32h314v-32h-81l174 -308z" />
    <glyph glyph-name="Z" unicode="Z" horiz-adv-x="635" 
d="M316 688q-95 0 -150 -58.5t-55 -159.5h-31v250h475l-377 -688h165q53 0 94 17.5t69 49t42.5 75.5t14.5 96h32v-270h-560l377 688h-96z" />
    <glyph glyph-name="a" unicode="a" horiz-adv-x="527" 
d="M146 115q0 -45 20.5 -64.5t48.5 -19.5q22 0 43 9t37.5 26t26.5 42.5t10 57.5v92q-32 -4 -66.5 -11.5t-57.5 -16.5q-18 -7 -29.5 -16t-19 -22t-10.5 -31.5t-3 -45.5zM528 52q-12 -26 -34 -44t-67 -18q-16 0 -32 3.5t-28.5 13t-21.5 26t-12 41.5q-12 -25 -28.5 -41.5
t-35.5 -26t-40 -13t-42 -3.5q-31 0 -58 9t-46.5 25t-31 39t-11.5 50q0 58 27.5 87t76.5 46q43 15 93.5 27t94.5 17v64q0 33 -7.5 54.5t-21 33.5t-33 17t-44.5 5q-32 0 -53.5 -9.5t-21.5 -22.5q0 -7 5.5 -14t11.5 -15t11.5 -19t5.5 -25q0 -22 -16 -37t-39 -15q-26 0 -40.5 16
t-14.5 43q0 24 11 47.5t32 41.5t51 29.5t68 11.5q41 0 76.5 -11t61.5 -35.5t40.5 -64t14.5 -96.5v-173q0 -48 7.5 -65t25.5 -17q13 0 21.5 8.5t16.5 24.5z" />
    <glyph glyph-name="b" unicode="b" horiz-adv-x="619" 
d="M352 -10q-29 0 -52.5 8t-41.5 21.5t-30.5 31t-18.5 35.5v-86h-178v32h77v681h-77v32h178v-345q6 18 18.5 35.5t30.5 31t41.5 21.5t52.5 8q46 0 86.5 -19.5t71 -54t48 -80.5t17.5 -99t-17.5 -99t-48 -80t-71 -54t-86.5 -20zM352 22q28 0 49.5 11t35 37t20.5 68.5t7 104.5
q0 61 -7 103.5t-20.5 68.5t-35 37.5t-49.5 11.5q-30 0 -56.5 -13t-45.5 -36.5t-30 -56.5t-11 -72v-86q0 -39 11 -72t30 -56.5t45.5 -36.5t56.5 -13z" />
    <glyph glyph-name="c" unicode="c" horiz-adv-x="482" 
d="M315 349q0 16 7 26.5t15 19t15 16.5t7 17q0 17 -22 26.5t-54 9.5q-34 0 -57.5 -11t-38.5 -36.5t-21.5 -67.5t-6.5 -105q0 -62 7 -104t22 -67.5t37.5 -36t53.5 -10.5q28 0 50.5 9.5t40 26t29 38.5t16.5 47h33q-5 -33 -18.5 -62t-35.5 -50t-51.5 -33t-66.5 -12
q-44 0 -86 17.5t-74.5 50t-52 79.5t-19.5 107q0 59 20.5 106t54 79.5t76.5 49.5t88 17q33 0 62.5 -10t51.5 -28t34.5 -44t12.5 -57q0 -30 -18.5 -51t-49.5 -21q-25 0 -43 17.5t-18 46.5z" />
    <glyph glyph-name="d" unicode="d" horiz-adv-x="619" 
d="M267 464q-29 0 -50 -11t-34.5 -37t-20.5 -68.5t-7 -104.5t7 -104t20.5 -68t34.5 -37.5t50 -11.5q30 0 56.5 13t45.5 36.5t30 56.5t11 72v86q0 39 -11 72t-30 56.5t-45.5 36.5t-56.5 13zM511 32h77v-32h-178v86q-6 -18 -18.5 -35.5t-30.5 -31t-42 -21.5t-52 -8
q-46 0 -86.5 19.5t-71 54t-48 80.5t-17.5 99q0 52 17.5 98.5t48 80.5t71 54t86.5 20q28 0 52 -8t42 -21.5t30.5 -31t18.5 -35.5v313h-77v32h178v-713z" />
    <glyph glyph-name="e" unicode="e" horiz-adv-x="521" 
d="M159 244q0 -62 7.5 -104t23.5 -67.5t40 -36t57 -10.5q29 0 53 9.5t42.5 26t30.5 38.5t18 47h33q-6 -33 -20.5 -62t-38.5 -50t-56.5 -33t-74.5 -12q-44 0 -85.5 17.5t-73.5 50t-51.5 79.5t-19.5 107q0 59 18.5 106t48.5 79.5t68.5 49.5t79.5 17t80 -15.5t69.5 -45.5
t49 -74.5t18.5 -102.5h-317v-14zM361 290q0 50 -6 83.5t-18.5 53.5t-32 28.5t-45.5 8.5q-24 0 -41.5 -9t-30 -29t-19.5 -53.5t-8 -82.5h201z" />
    <glyph glyph-name="f" unicode="f" horiz-adv-x="340" 
d="M412 650q0 -29 -15 -46t-41 -17q-20 0 -35.5 13.5t-15.5 36.5q0 13 4 21.5t9.5 15.5t9.5 13.5t4 15.5q0 21 -47 21q-18 0 -32 -4t-24 -15.5t-15.5 -32t-5.5 -52.5v-134h131v-32h-131v-422h77v-32h-255v32h77v422h-86v32h86v37q0 58 14.5 101.5t39 72.5t57 43.5t67.5 14.5
q26 0 49 -7.5t40.5 -21.5t27.5 -33.5t10 -42.5z" />
    <glyph glyph-name="g" unicode="g" horiz-adv-x="529" 
d="M374 91q54 -4 90.5 -37.5t36.5 -89.5q0 -85 -63 -136t-185 -51q-114 0 -170 32t-56 93q0 46 31.5 74t73.5 39q-50 12 -72.5 38.5t-22.5 66.5q0 49 25 78t70 29h4q-28 20 -43.5 49.5t-15.5 67.5q0 34 13.5 62t37.5 48t58.5 31t76.5 11q36 0 62.5 -7t46.5 -18q-2 5 -3.5 13
t-1.5 19q0 43 27 68t65 25q27 0 41 -12.5t14 -32.5q0 -22 -12.5 -35t-32.5 -13q-11 0 -18.5 4.5t-13.5 10.5t-11 10.5t-12 4.5q-8 0 -11.5 -8t-3.5 -22q0 -22 3.5 -38.5t11.5 -24.5q17 -20 26 -41.5t9 -53.5q0 -35 -13.5 -63t-37.5 -48t-58.5 -31t-76.5 -11q-20 0 -33.5 2
t-23 4t-17.5 4t-18 2q-39 0 -56.5 -10t-17.5 -36q0 -23 15.5 -39t56.5 -21q16 -2 31.5 -3t31.5 -2h61h43.5t37.5 -2zM416 -92q0 40 -24.5 60.5t-75.5 26.5q-38 5 -76 6t-70 6q-32 -17 -52.5 -39t-20.5 -56q0 -21 7.5 -40t25.5 -33t48 -22t75 -8q77 0 120 26t43 73zM263 469
q-91 0 -91 -125t91 -125t91 125t-91 125z" />
    <glyph glyph-name="h" unicode="h" horiz-adv-x="646" 
d="M343 456q-24 0 -48 -14t-43 -42t-31 -69.5t-12 -95.5v-203h71v-32h-249v32h77v681h-77v32h178v-375q13 60 55.5 95t98.5 35q39 0 72 -11t57.5 -34t38 -59t13.5 -86v-278h77v-32h-249v32h71v300q0 69 -25 96.5t-75 27.5z" />
    <glyph glyph-name="i" unicode="i" horiz-adv-x="317" 
d="M209 32h77v-32h-255v32h77v422h-77v32h178v-454zM158 710q24 0 40.5 -16.5t16.5 -40.5t-16.5 -40.5t-40.5 -16.5t-40.5 16.5t-16.5 40.5t16.5 40.5t40.5 16.5z" />
    <glyph glyph-name="j" unicode="j" horiz-adv-x="292" 
d="M21 -105q0 -13 -6.5 -20.5t-14.5 -13.5t-14.5 -12t-6.5 -15q0 -11 13.5 -18t33.5 -7q19 0 32 4.5t21.5 17t12.5 34t4 55.5v534h-77v32h178v-477q0 -58 -14 -101.5t-37.5 -72.5t-54.5 -43.5t-65 -14.5q-49 0 -80 29t-31 76q0 27 16 45.5t40 18.5q22 0 36 -15t14 -36z
M146 710q24 0 40.5 -16.5t16.5 -40.5t-16.5 -40.5t-40.5 -16.5t-40.5 16.5t-16.5 40.5t16.5 40.5t40.5 16.5z" />
    <glyph glyph-name="k" unicode="k" horiz-adv-x="575" 
d="M541 32h48v-32h-249v32h73l-167 234l-37 -29v-205h55v-32h-233v32h77v681h-77v32h178v-465l228 174h-93v32h216v-32h-67l-166 -127z" />
    <glyph glyph-name="l" unicode="l" horiz-adv-x="317" 
d="M209 32h77v-32h-255v32h77v681h-77v32h178v-713z" />
    <glyph glyph-name="m" unicode="m" horiz-adv-x="918" 
d="M715 332q0 62 -19.5 93t-62.5 31q-24 0 -46.5 -14t-39 -42t-26.5 -69.5t-10 -95.5v-203h67v-32h-235v32h67v300q0 62 -19.5 93t-62.5 31q-24 0 -46.5 -14t-39 -42t-26.5 -69.5t-10 -95.5v-203h67v-32h-245v32h77v422h-77v32h178v-116q11 60 50.5 95t89.5 35
q72 0 111 -37.5t50 -100.5q6 30 18.5 55.5t31.5 43.5t43 28.5t51 10.5q36 0 66 -11t52 -34t34.5 -59t12.5 -86v-278h77v-32h-245v32h67v300z" />
    <glyph glyph-name="n" unicode="n" horiz-adv-x="643" 
d="M206 32h71v-32h-249v32h77v422h-77v32h178v-116q13 60 55.5 95t98.5 35q39 0 72 -11t57.5 -34t38 -59t13.5 -86v-278h77v-32h-249v32h71v300q0 69 -25 96.5t-75 27.5q-24 0 -48 -14t-43 -42t-31 -69.5t-12 -95.5v-203z" />
    <glyph glyph-name="o" unicode="o" horiz-adv-x="578" 
d="M289 496q47 0 91 -18.5t78.5 -51.5t55 -79.5t20.5 -103.5t-21 -103.5t-55 -79.5t-78.5 -51.5t-90.5 -18.5q-47 0 -91 18.5t-78 51.5t-55 79.5t-21 103.5t21 103.5t55 79.5t78 51.5t91 18.5zM289 464q-34 0 -58.5 -11t-40.5 -37t-23.5 -68t-7.5 -105t7.5 -105.5t23.5 -68
t40.5 -36.5t58.5 -11q33 0 57.5 11t40.5 36.5t24 68t8 105.5t-8 105t-24 68t-40.5 37t-57.5 11z" />
    <glyph glyph-name="p" unicode="p" horiz-adv-x="608" 
d="M341 22q28 0 49.5 11t35 37t20.5 68.5t7 104.5q0 61 -7 103.5t-20.5 68.5t-35 37.5t-49.5 11.5q-30 0 -56.5 -13t-45.5 -36.5t-30 -56.5t-11 -72v-86q0 -39 11 -72t30 -56.5t45.5 -36.5t56.5 -13zM97 454h-77v32h178v-86q6 18 18.5 35.5t30.5 31t41.5 21.5t52.5 8
q46 0 86.5 -19.5t71 -54t48 -80.5t17.5 -99t-17.5 -99t-48 -80t-71 -54t-86.5 -20q-29 0 -52.5 8t-41.5 21.5t-30.5 31t-18.5 35.5v-277h77v-32h-255v32h77v645z" />
    <glyph glyph-name="q" unicode="q" horiz-adv-x="608" 
d="M333 -191h77v277q-6 -18 -18.5 -35.5t-30.5 -31t-42 -21.5t-52 -8q-46 0 -86.5 19.5t-71 54t-48 80.5t-17.5 99q0 52 17.5 98.5t48 80.5t71 54t86.5 20q28 0 52 -8t42 -21.5t30.5 -31t18.5 -35.5v86h178v-32h-77v-645h77v-32h-255v32zM267 464q-29 0 -50 -11t-34.5 -37
t-20.5 -68.5t-7 -104.5t7 -104t20.5 -68t34.5 -37.5t50 -11.5q30 0 56.5 13t45.5 36.5t30 56.5t11 72v86q0 39 -11 72t-30 56.5t-45.5 36.5t-56.5 13z" />
    <glyph glyph-name="r" unicode="r" horiz-adv-x="424" 
d="M206 32h77v-32h-255v32h77v422h-77v32h178v-77q15 44 45 65.5t62 21.5q48 0 81.5 -30.5t33.5 -82.5q0 -26 -15 -43t-41 -17q-20 0 -35 14.5t-15 38.5q0 13 5.5 22.5t11.5 16.5t11.5 13t5.5 14q0 22 -43 22q-20 0 -39 -12.5t-34 -35t-24.5 -53.5t-9.5 -69v-262z" />
    <glyph glyph-name="s" unicode="s" horiz-adv-x="465" 
d="M70 354q0 32 12 58.5t33 46t48.5 30t58.5 10.5q18 0 33 -4t27.5 -8.5t23 -8.5t20.5 -4q11 0 18.5 6t7.5 19h31v-160h-31q-8 37 -22 61.5t-31 39.5t-37 21t-40 6q-38 0 -64 -19.5t-26 -47.5q0 -30 21 -48t53 -31t68.5 -25t68.5 -30t53 -46.5t21 -74.5q0 -32 -12.5 -60.5
t-35 -50.5t-54.5 -34.5t-72 -12.5q-20 0 -38.5 4.5t-35 10.5t-31 10.5t-26.5 4.5q-24 0 -27 -26h-31v201h31q5 -44 20.5 -76.5t37 -54t48 -32t52.5 -10.5q39 0 66.5 20t27.5 54q0 37 -20 58.5t-49.5 36t-64 26t-64 28t-49.5 42.5t-20 70z" />
    <glyph glyph-name="t" unicode="t" horiz-adv-x="367" 
d="M345 143q-4 -81 -33.5 -119t-92.5 -38q-66 0 -104 31t-38 101v336h-86v32h86v125q10 -3 23 -3q20 0 39.5 9t34.5 26h4v-157h156v-32h-156v-329q0 -56 14.5 -77.5t42.5 -21.5q31 0 53 27t25 90h32z" />
    <glyph glyph-name="u" unicode="u" horiz-adv-x="623" 
d="M414 454h-77v32h178v-454h77v-32h-178v116q-12 -60 -52 -95t-93 -35q-37 0 -68 11t-53.5 34t-35.5 59t-13 86v278h-77v32h178v-332q0 -69 23 -96.5t68 -27.5q22 0 44 14t39.5 42t28.5 69.5t11 95.5v203z" />
    <glyph glyph-name="v" unicode="v" horiz-adv-x="499" 
d="M259 -16h-19l-186 470h-72v32h257v-32h-76l123 -312l124 312h-44v32h149v-32h-70z" />
    <glyph glyph-name="w" unicode="w" horiz-adv-x="784" 
d="M554 -16h-19l-143 381l-143 -381h-19l-176 470h-72v32h229v-32h-50l114 -307l100 265l-16 42h-62v32h229v-32h-60l114 -307l115 307h-44v32h149v-32h-70z" />
    <glyph glyph-name="x" unicode="x" horiz-adv-x="522" 
d="M529 32v-32h-239v32h56l-107 168l-133 -168h51v-32h-168v32h79l154 193l-147 229h-66v32h239v-32h-56l97 -150l119 150h-53v32h168v-32h-77l-140 -176l157 -246h66z" />
    <glyph glyph-name="y" unicode="y" horiz-adv-x="492" 
d="M71 -105q0 -15 -6 -23.5t-13 -14.5t-13 -11.5t-6 -14.5q0 -11 16.5 -17t33.5 -6q19 0 35 7t31.5 25t32 49t35.5 79l16 43l-183 443h-73v32h241v-32h-59l126 -305l115 305h-60v32h164v-32h-70l-184 -492q-21 -56 -40 -92t-39 -56.5t-41.5 -28.5t-46.5 -8t-46.5 7.5
t-37.5 21.5t-25.5 33.5t-9.5 42.5q0 29 17 48.5t40 19.5q21 0 35.5 -15.5t14.5 -39.5z" />
    <glyph glyph-name="z" unicode="z" horiz-adv-x="494" 
d="M244 456q-35 0 -64 -11.5t-49.5 -32.5t-31.5 -49t-11 -61h-31v184h387l-282 -456h109q35 0 63.5 11.5t49 32.5t32 49t11.5 61h31v-184h-424l282 456h-72z" />
    <glyph glyph-name="germandbls" unicode="&#xdf;" 
d="M397 -13q-70 0 -105 23.5t-35 62.5q0 23 12.5 36.5t35.5 13.5q21 0 32.5 -12.5t11.5 -30.5q0 -13 -6.5 -21.5t-6.5 -16.5q0 -11 14 -17t47 -6q39 0 66.5 18.5t27.5 55.5t-15.5 58.5t-39.5 36t-51 26t-51 28t-39.5 42.5t-15.5 70q0 30 11 53t27.5 42.5t35.5 37t35.5 37.5
t27.5 43.5t11 54.5q0 45 -31 73t-84 28q-32 0 -53.5 -7.5t-35 -25t-19.5 -47.5t-6 -75v-568h-178v32h77v451q0 136 58 204t157 68q64 0 105.5 -35t41.5 -98q0 -48 -18.5 -79.5t-40.5 -55t-40.5 -43t-18.5 -44.5q0 -31 17 -49t42.5 -31.5t55.5 -25.5t55.5 -30t42.5 -46
t17 -73q0 -32 -12.5 -60.5t-35 -50.5t-54.5 -34.5t-72 -12.5z" />
    <glyph glyph-name="ampersand" unicode="&#x26;" horiz-adv-x="670" 
d="M493 135q17 32 27 73.5t10 105.5q0 41 -19 58t-64 17h-29v30h256v-30h-29q-45 0 -64 -17t-19 -58q0 -70 -12 -118.5t-38 -86.5l3 -4q9 -12 19 -25t20.5 -23t20.5 -16.5t21 -6.5q20 0 36.5 21t16.5 53h30q0 -59 -32.5 -91.5t-81.5 -32.5q-74 0 -126 52
q-32 -24 -73.5 -37.5t-90.5 -13.5q-56 0 -102 13.5t-79 40t-51.5 66.5t-18.5 94q0 43 10 77t30.5 62t52.5 51.5t76 44.5l-7 15q-17 35 -25 67t-8 58q0 35 11.5 64t32 49.5t48.5 31.5t61 11q48 0 77 -32t29 -82q0 -62 -29.5 -103t-75.5 -64q19 -36 42.5 -78t48.5 -84
t49.5 -81.5t45.5 -70.5zM207 83q25 -29 51.5 -40.5t56.5 -11.5q26 0 51 7.5t49 24.5l-7 9q-25 34 -52.5 76.5t-54.5 87.5t-51.5 89t-42.5 81q-45 -23 -65 -50.5t-20 -72.5q0 -24 7.5 -51.5t19.5 -54.5t27.5 -51.5t30.5 -42.5zM304 698q-29 0 -47 -17.5t-18 -50.5
q0 -29 13 -64t29 -67l11 -22q37 18 62.5 53t25.5 84q0 37 -20.5 60.5t-55.5 23.5z" />
    <glyph glyph-name="colon" unicode=":" horiz-adv-x="305" 
d="M153 120q27 0 46 -19t19 -46t-19 -46t-46 -19t-46 19t-19 46t19 46t46 19zM153 491q27 0 46 -19t19 -46t-19 -46t-46 -19t-46 19t-19 46t19 46t46 19z" />
    <glyph glyph-name="semicolon" unicode=";" horiz-adv-x="305" 
d="M153 491q27 0 46 -19t19 -46t-19 -46t-46 -19t-46 19t-19 46t19 46t46 19zM220 30q0 -63 -32.5 -109t-90.5 -71l-12 30q46 22 61.5 44t15.5 39q0 12 -6 18.5t-17 10.5q-6 2 -15.5 6t-18 11.5t-15 19t-6.5 28.5q0 27 17.5 46t44.5 19q32 0 53 -25t21 -67z" />
    <glyph glyph-name="ntilde" unicode="&#xf1;" horiz-adv-x="643" 
d="M206 32h71v-32h-249v32h77v422h-77v32h178v-116q13 60 55.5 95t98.5 35q39 0 72 -11t57.5 -34t38 -59t13.5 -86v-278h77v-32h-249v32h71v300q0 69 -25 96.5t-75 27.5q-24 0 -48 -14t-43 -42t-31 -69.5t-12 -95.5v-203zM472 711q0 -59 -22.5 -91.5t-69.5 -32.5
q-23 0 -42 8.5t-35.5 18.5t-32 18.5t-30.5 8.5q-25 0 -38 -18t-13 -44h-31q0 59 22.5 91.5t69.5 32.5q22 0 41.5 -8.5t36 -18.5t32 -18.5t30.5 -8.5q25 0 38 18t13 44h31z" />
    <glyph glyph-name="eacute" unicode="&#xe9;" horiz-adv-x="521" 
d="M159 244q0 -62 7.5 -104t23.5 -67.5t40 -36t57 -10.5q29 0 53 9.5t42.5 26t30.5 38.5t18 47h33q-6 -33 -20.5 -62t-38.5 -50t-56.5 -33t-74.5 -12q-44 0 -85.5 17.5t-73.5 50t-51.5 79.5t-19.5 107q0 59 18.5 106t48.5 79.5t68.5 49.5t79.5 17t80 -15.5t69.5 -45.5
t49 -74.5t18.5 -102.5h-317v-14zM361 290q0 50 -6 83.5t-18.5 53.5t-32 28.5t-45.5 8.5q-24 0 -41.5 -9t-30 -29t-19.5 -53.5t-8 -82.5h201zM339 729q21 0 32.5 -12t11.5 -30q0 -34 -41 -55l-138 -71l-15 20l99 117q13 15 23.5 23t27.5 8z" />
    <glyph glyph-name="parenleft" unicode="(" horiz-adv-x="316" 
d="M298 745q-32 -43 -57.5 -85.5t-43.5 -96t-27.5 -123.5t-9.5 -166t9.5 -166t27.5 -123.5t43.5 -96t57.5 -85.5h-32q-45 39 -81.5 85t-62 103t-39 126.5t-13.5 156.5t13.5 156.5t39 126.5t62 103t81.5 85h32z" />
    <glyph glyph-name="parenright" unicode=")" horiz-adv-x="316" 
d="M18 -197q32 43 57.5 85.5t43.5 96t27.5 123.5t9.5 166t-9.5 166t-27.5 123.5t-43.5 96t-57.5 85.5h32q45 -39 81 -85t61.5 -103t39.5 -126.5t14 -156.5t-14 -156.5t-39.5 -126.5t-61.5 -103t-81 -85h-32z" />
    <glyph glyph-name="slash" unicode="/" horiz-adv-x="400" 
d="M-6 -138l377 883h35l-377 -883h-35z" />
    <glyph glyph-name="Euro" unicode="&#x20ac;" horiz-adv-x="640" 
d="M391 306l-10 -32h-182q10 -135 50 -193.5t112 -58.5q35 0 66.5 17.5t57 49t44.5 75t29 96.5h32v-260h-31q-3 17 -11 23.5t-25 6.5q-13 0 -30 -6.5t-37.5 -14t-44.5 -13.5t-50 -6q-50 0 -96 21.5t-83.5 59.5t-64.5 90t-40 113h-83l10 32h67q-1 12 -2 23q-1 10 -1.5 20.5
t-0.5 20.5v13.5t1 14.5q0 8 1 15h-70l10 32h64q11 61 37.5 113t65 90.5t85.5 60t99 21.5q25 0 47.5 -6.5t42 -14t36 -13.5t28.5 -6q16 0 24 6.5t11 23.5h31v-260h-30q-9 52 -27.5 96t-43 75.5t-55 49t-64.5 17.5q-36 0 -64 -12.5t-48.5 -42t-33 -78t-16.5 -120.5h218
l-10 -32h-210q-1 -6 -1 -14v-36v-20t1 -18q0 -10 1 -19h194z" />
    <glyph glyph-name="sterling" unicode="&#xa3;" horiz-adv-x="640" 
d="M326 272q0 -35 -7 -73t-21 -70q29 -7 69 -17.5t76 -10.5q27 0 44 7t27.5 20t16 29.5t10.5 36.5h31q-15 -104 -47.5 -154t-100.5 -50q-23 0 -43.5 6.5t-40 17t-39 24t-39.5 26.5q-26 -36 -58.5 -55t-67.5 -19t-53.5 18.5t-18.5 50.5q0 42 30.5 64.5t88.5 22.5
q14 0 28.5 -1.5t27.5 -3.5q15 -3 30 -5q2 7 4 16q2 7 3.5 16t1.5 19q0 32 -7 57t-18 46.5t-26.5 41t-31.5 40.5h-111v32h87q-18 26 -32 56t-14 73q0 45 17.5 81t49 62t74 40t93.5 14q37 0 69.5 -12t56.5 -31t37.5 -43t13.5 -49q0 -32 -17 -50t-49 -18q-31 0 -47 18t-16 43
q0 11 4 20t9.5 17.5t9.5 16.5t4 18q0 17 -21 27.5t-54 10.5q-52 0 -85 -24.5t-33 -81.5q0 -24 5.5 -47t14.5 -46t19 -46.5t19 -48.5h140v-32h-129q8 -23 12 -48t4 -52zM136 20q32 0 55.5 14t46.5 46q-13 8 -27.5 13t-28 8t-24.5 4.5t-17 1.5q-24 0 -35.5 -14.5t-11.5 -33.5
q0 -16 10.5 -27.5t31.5 -11.5z" />
    <glyph glyph-name="asterisk" unicode="*" horiz-adv-x="424" 
d="M212 737q17 0 27 -11t10 -33q0 -14 -4.5 -29.5t-10 -32t-10 -33.5t-4.5 -35q0 -7 7 -5q15 9 27.5 21.5t24 25.5t23 25t23.5 19q13 8 27 8q15 0 25 -10.5t10 -27.5q0 -20 -25 -35q-12 -7 -28 -11t-33 -7t-34 -7.5t-32 -13.5q-2 -1 -2 -4t2 -4q15 -9 32 -13.5t34 -7.5
t33 -7t28 -11q25 -15 25 -35q0 -17 -10 -27.5t-25 -10.5q-14 0 -27 8q-12 7 -23.5 19t-23 25t-24 25.5t-27.5 21.5q-7 2 -7 -5q0 -18 4.5 -35t10 -33.5t10 -32t4.5 -29.5q0 -22 -10 -33t-27 -11t-27 11t-10 33q0 14 4.5 29.5t10 32t10 33.5t4.5 35q0 7 -7 5
q-15 -9 -27.5 -21.5t-24 -25.5t-23 -25t-23.5 -19q-13 -8 -27 -8q-15 0 -25 10.5t-10 27.5q0 20 25 35q12 7 28 11t33 7t34 7.5t32 13.5q2 1 2 4t-2 4q-15 9 -32 13.5t-34 7.5t-33 7t-28 11q-25 15 -25 35q0 17 10 27.5t25 10.5q14 0 27 -8q12 -7 23.5 -19t23 -25t24 -25.5
t27.5 -21.5q7 -2 7 5q0 18 -4.5 35t-10 33.5t-10 32t-4.5 29.5q0 22 10 33t27 11z" />
    <glyph glyph-name="numbersign" unicode="#" horiz-adv-x="590" 
d="M395 276h140l-8 -32h-140l-61 -244h-34l61 244h-180l-61 -244h-34l61 244h-139l8 32h139l48 189h-140l8 32h140l62 248h34l-62 -248h180l62 248h34l-62 -248h139l-8 -32h-139zM229 465l-48 -189h180l48 189h-180z" />
    <glyph glyph-name="quotesingle" unicode="'" horiz-adv-x="246" 
d="M111 464q-22 86 -28.5 135.5t-6.5 69.5q0 29 12 45t35 16t35 -16t12 -45q0 -20 -6.5 -69.5t-28.5 -135.5h-24z" />
    <glyph glyph-name="quotedbl" unicode="&#x22;" horiz-adv-x="388" 
d="M111 464q-22 86 -28.5 135.5t-6.5 69.5q0 29 12 45t35 16t35 -16t12 -45q0 -20 -6.5 -69.5t-28.5 -135.5h-24zM251 464q-22 86 -28.5 135.5t-6.5 69.5q0 29 12 45t35 16t35 -16t12 -45q0 -20 -6.5 -69.5t-28.5 -135.5h-24z" />
    <glyph glyph-name="quotedblbase" unicode="&#x201e;" horiz-adv-x="434" 
d="M187 26q0 -57 -29.5 -98.5t-82.5 -64.5l-12 30q42 20 54.5 38t12.5 34q0 11 -6 17.5t-15 10.5q-5 2 -13 6t-15.5 11t-12.5 16.5t-5 23.5q0 25 16 42t41 17q29 0 48 -22.5t19 -60.5zM375 26q0 -57 -29.5 -98.5t-82.5 -64.5l-12 30q42 20 54.5 38t12.5 34q0 11 -6 17.5
t-15 10.5q-5 2 -13 6t-15.5 11t-12.5 16.5t-5 23.5q0 25 16 42t41 17q29 0 48 -22.5t19 -60.5z" />
    <glyph glyph-name="quotesinglbase" unicode="&#x201a;" horiz-adv-x="246" 
d="M187 26q0 -57 -29.5 -98.5t-82.5 -64.5l-12 30q42 20 54.5 38t12.5 34q0 11 -6 17.5t-15 10.5q-5 2 -13 6t-15.5 11t-12.5 16.5t-5 23.5q0 25 16 42t41 17q29 0 48 -22.5t19 -60.5z" />
    <glyph glyph-name="quoteright" unicode="&#x2019;" horiz-adv-x="246" 
d="M187 647q0 -57 -29.5 -98.5t-82.5 -64.5l-12 30q42 20 54.5 38t12.5 34q0 11 -6 17.5t-15 10.5q-5 2 -13 6t-15.5 11t-12.5 16.5t-5 23.5q0 25 16 42t41 17q29 0 48 -22.5t19 -60.5z" />
    <glyph glyph-name="quotedblright" unicode="&#x201d;" horiz-adv-x="434" 
d="M187 647q0 -57 -29.5 -98.5t-82.5 -64.5l-12 30q42 20 54.5 38t12.5 34q0 11 -6 17.5t-15 10.5q-5 2 -13 6t-15.5 11t-12.5 16.5t-5 23.5q0 25 16 42t41 17q29 0 48 -22.5t19 -60.5zM375 647q0 -57 -29.5 -98.5t-82.5 -64.5l-12 30q42 20 54.5 38t12.5 34q0 11 -6 17.5
t-15 10.5q-5 2 -13 6t-15.5 11t-12.5 16.5t-5 23.5q0 25 16 42t41 17q29 0 48 -22.5t19 -60.5z" />
    <glyph glyph-name="quoteleft" unicode="&#x2018;" horiz-adv-x="246" 
d="M59 571q0 57 29.5 98.5t82.5 64.5l12 -30q-42 -20 -54.5 -38t-12.5 -34q0 -11 6 -17.5t15 -10.5q5 -2 13 -6t15.5 -11t12.5 -16.5t5 -23.5q0 -25 -16 -42t-41 -17q-29 0 -48 22.5t-19 60.5z" />
    <glyph glyph-name="quotedblleft" unicode="&#x201c;" horiz-adv-x="434" 
d="M247 571q0 57 29.5 98.5t82.5 64.5l12 -30q-42 -20 -54.5 -38t-12.5 -34q0 -11 6 -17.5t15 -10.5q5 -2 13 -6t15.5 -11t12.5 -16.5t5 -23.5q0 -25 -16 -42t-41 -17q-29 0 -48 22.5t-19 60.5zM59 571q0 57 29.5 98.5t82.5 64.5l12 -30q-42 -20 -54.5 -38t-12.5 -34
q0 -11 6 -17.5t15 -10.5q5 -2 13 -6t15.5 -11t12.5 -16.5t5 -23.5q0 -25 -16 -42t-41 -17q-29 0 -48 22.5t-19 60.5z" />
    <glyph glyph-name="ellipsis" unicode="&#x2026;" horiz-adv-x="840" 
d="M134 120q27 0 46 -19t19 -46t-19 -46t-46 -19t-46 19t-19 46t19 46t46 19zM706 120q27 0 46 -19t19 -46t-19 -46t-46 -19t-46 19t-19 46t19 46t46 19zM420 120q27 0 46 -19t19 -46t-19 -46t-46 -19t-46 19t-19 46t19 46t46 19z" />
    <glyph glyph-name="periodcentered" unicode="&#xb7;" horiz-adv-x="268" 
d="M134 335q27 0 46 -19t19 -46t-19 -46t-46 -19t-46 19t-19 46t19 46t46 19z" />
    <glyph glyph-name="backslash" unicode="\" horiz-adv-x="400" 
d="M371 -138l-376 883h34l376 -883h-34z" />
    <glyph glyph-name="bracketleft" unicode="[" horiz-adv-x="334" 
d="M312 -165v-32h-200v942h200v-32h-124v-878h124z" />
    <glyph glyph-name="bracketright" unicode="]" horiz-adv-x="334" 
d="M146 -165v878h-124v32h200v-942h-200v32h124z" />
    <glyph glyph-name="dagger" unicode="&#x2020;" horiz-adv-x="528" 
d="M232 469q16 0 16 14q0 18 -7 45t-15.5 56t-15.5 57t-7 48q0 31 16 48.5t45 17.5t45 -17.5t16 -48.5q0 -20 -7 -48t-15.5 -57t-15.5 -56t-7 -45q0 -14 16 -14q18 0 37.5 7t39 15.5t39 15.5t37.5 7q28 0 43.5 -16t15.5 -45t-15.5 -45t-43.5 -16q-18 0 -37.5 7t-39 15.5
t-39 15.5t-37.5 7q-16 0 -16 -14q0 -51 12.5 -95.5t47.5 -79.5q-35 -70 -47.5 -169t-12.5 -230v-72h-32v72q0 131 -12.5 230t-47.5 169q35 35 47.5 79.5t12.5 95.5q0 14 -16 14q-18 0 -37.5 -7t-39 -15.5t-39 -15.5t-37.5 -7q-28 0 -43.5 16t-15.5 45t15.5 45t43.5 16
q18 0 37.5 -7t39 -15.5t39 -15.5t37.5 -7z" />
    <glyph glyph-name="daggerdbl" unicode="&#x2021;" horiz-adv-x="528" 
d="M336 266q-35 -35 -45.5 -71t-10.5 -86q0 -14 16 -14q18 0 37.5 7t39 15.5t39 15.5t37.5 7q28 0 43.5 -16t15.5 -45t-15.5 -45t-43.5 -16q-18 0 -37.5 7t-39 15.5t-39 15.5t-37.5 7q-16 0 -16 -14q0 -18 7 -45t15.5 -56t15.5 -57t7 -48q0 -31 -16 -48.5t-45 -17.5
t-45 17.5t-16 48.5q0 20 7 48t15.5 57t15.5 56t7 45q0 14 -16 14q-18 0 -37.5 -7t-39 -15.5t-39 -15.5t-37.5 -7q-28 0 -43.5 16t-15.5 45t15.5 45t43.5 16q18 0 37.5 -7t39 -15.5t39 -15.5t37.5 -7q16 0 16 14q0 50 -11 86t-45 71q34 35 45 71t11 86q0 14 -16 14
q-18 0 -37.5 -7t-39 -15.5t-39 -15.5t-37.5 -7q-28 0 -43.5 16t-15.5 45t15.5 45t43.5 16q18 0 37.5 -7t39 -15.5t39 -15.5t37.5 -7q16 0 16 14q0 18 -7 45t-15.5 56t-15.5 57t-7 48q0 31 16 48.5t45 17.5t45 -17.5t16 -48.5q0 -20 -7 -48t-15.5 -57t-15.5 -56t-7 -45
q0 -14 16 -14q18 0 37.5 7t39 15.5t39 15.5t37.5 7q28 0 43.5 -16t15.5 -45t-15.5 -45t-43.5 -16q-18 0 -37.5 7t-39 15.5t-39 15.5t-37.5 7q-16 0 -16 -14q0 -50 10.5 -86t45.5 -71z" />
    <glyph glyph-name="yen" unicode="&#xa5;" horiz-adv-x="640" 
d="M78 688h-94v32h309v-32h-78l157 -303l154 303h-78v32h208v-32h-94l-124 -243h122v-32h-138l-35 -68v-39h173v-32h-173v-242h107v-32h-338v32h107v242h-173v32h173v25l-42 82h-131v32h114z" />
    <glyph glyph-name="uni20B9" unicode="&#x20b9;" horiz-adv-x="640" 
d="M598 688h-274q40 -20 62.5 -52.5t24.5 -77.5h187v-32h-187q-7 -63 -59.5 -102.5t-134.5 -53.5q42 -2 71 -13.5t51.5 -36t42 -64t42.5 -99.5q15 -39 24.5 -64t16.5 -39t13.5 -19t16.5 -5q24 0 48 37l26 -18q-20 -32 -47.5 -45.5t-65.5 -13.5q-37 0 -60 12t-40 38t-33.5 67
t-39.5 99q-18 46 -33.5 74t-32 43.5t-35.5 20.5t-45 5h-24v32h36q69 0 106 37t40 108h-250v32h249q-5 63 -39.5 96.5t-97.5 33.5h-112v32h553v-32z" />
    <glyph glyph-name="uni20BA" unicode="&#x20ba;" horiz-adv-x="640" 
d="M38 396l106 61v231h-111v32h337v-32h-111v-165l128 74l16 -27l-144 -83v-72l136 78l16 -27l-152 -88v-346q66 0 118 15t88 41.5t55 61.5t19 76q0 29 -10 41.5t-27 12.5q-8 0 -15 -2t-16 -2q-21 0 -35.5 17.5t-14.5 45.5t18 46t51 18q42 0 67 -30t25 -86q0 -79 -25.5 -134
t-70 -89t-103 -49t-124.5 -15h-226v32h111v279l-82 -47l-16 28l98 56v72l-90 -52z" />
    <glyph glyph-name="alpha" unicode="&#x3b1;" horiz-adv-x="620" 
d="M487 165q0 -36 3.5 -59t9.5 -36.5t14.5 -19t19.5 -5.5q14 0 25 6.5t26 27.5l26 -18q-25 -37 -50.5 -54t-66.5 -17q-42 0 -67 29t-33 91q-15 -63 -50 -91.5t-94 -28.5q-42 0 -79.5 19t-65.5 52t-44.5 77.5t-16.5 95.5q0 55 17 102.5t46.5 83t68.5 56t84 20.5
q110 0 139 -138q2 32 5.5 64t8.5 64h107q-7 -35 -13 -75.5t-10.5 -82.5t-7 -84t-2.5 -79zM265 464q-27 0 -47.5 -11.5t-34.5 -38.5t-21 -71t-7 -109q0 -59 6.5 -99.5t19.5 -65.5t32 -36t43 -11q27 0 49.5 10t39 35.5t25.5 70.5t9 116q0 55 -9 95t-25 65.5t-36.5 37.5
t-43.5 12z" />
    <glyph glyph-name="beta" unicode="&#x3b2;" horiz-adv-x="589" 
d="M314 -10q-27 0 -47.5 5t-36.5 12.5t-28 15.5t-20 15l6 -242l-105 -19q3 79 4 171t2 189.5t1 195.5v188q0 121 52.5 177.5t146.5 56.5q99 0 149.5 -47t50.5 -131q0 -72 -41 -115.5t-120 -56.5q107 -11 162 -62.5t55 -145.5q0 -101 -60 -154t-171 -53zM278 387
q-17 0 -23.5 -2t-14.5 -2t-15 5.5t-7 15.5t7 15.5t15 5.5t14.5 -2t23.5 -2q54 0 84.5 41.5t30.5 114.5t-27.5 110.5t-78.5 37.5q-28 0 -48.5 -7t-34 -23.5t-20 -45t-6.5 -70.5v-109.5t0.5 -124t1.5 -131.5t2 -132q10 -10 23 -20.5t28 -19.5t32.5 -14.5t37.5 -5.5q63 0 97 45
t34 132q0 97 -39 142.5t-117 45.5z" />
    <glyph glyph-name="gamma" unicode="&#x3b3;" horiz-adv-x="557" 
d="M465 335q0 19 -9 30.5t-19.5 22t-19 22t-8.5 30.5q0 24 14 40t40 16q27 0 42.5 -22t15.5 -49q0 -29 -8.5 -73.5t-30.5 -93.5q-30 -66 -64 -119.5t-66 -113.5q12 -54 18.5 -95.5t6.5 -77.5q0 -38 -16.5 -56.5t-45.5 -18.5q-58 0 -58 70q0 24 6 58.5t21 79.5
q-47 139 -80.5 226t-58 135.5t-41.5 65.5t-31 17q-15 0 -25 -11.5t-15 -17.5l-24 20q24 33 52 54.5t62 21.5q30 0 53 -13.5t46 -54t47.5 -114.5t57.5 -194l13 -49q26 43 52.5 88t52.5 100q10 22 15 39.5t5 36.5z" />
    <glyph glyph-name="delta" unicode="&#x3b4;" horiz-adv-x="571" 
d="M37 243q0 53 18 97.5t48 77t69 51t82 19.5q-36 27 -62 47.5t-43.5 38.5t-26 35t-8.5 36q0 48 43.5 76t116.5 28q107 0 159.5 -28.5t52.5 -72.5q0 -26 -14 -40.5t-37 -14.5q-20 0 -33 12t-29 42q-17 32 -44.5 51t-65.5 19q-33 0 -52.5 -9.5t-19.5 -29.5q0 -13 8 -25.5
t27 -29.5t51.5 -40.5t82.5 -56.5q81 -54 124 -123t43 -145q0 -62 -21 -111.5t-55 -84.5t-78.5 -53.5t-90.5 -18.5q-47 0 -91 18.5t-78 51.5t-55 79.5t-21 103.5zM424 197q0 48 -7 84.5t-22.5 66t-40 55.5t-58.5 53q-37 0 -64.5 -8t-46 -31t-28 -64.5t-9.5 -109.5
q0 -63 8 -105.5t24.5 -68t41.5 -36.5t60 -11q73 0 107.5 40t34.5 135z" />
    <glyph glyph-name="epsilon" unicode="&#x3b5;" horiz-adv-x="454" 
d="M271 235q-59 0 -88 -24t-29 -79q0 -106 111 -106q29 0 53 9.5t42.5 26t30.5 39t18 47.5l32 -6q-6 -32 -20.5 -59.5t-38 -48t-56 -32.5t-74.5 -12q-101 0 -152.5 35.5t-51.5 102.5q0 57 45 87t131 38q-73 5 -113 34.5t-40 80.5q0 60 50.5 94t146.5 34q68 0 107.5 -30
t39.5 -81q0 -26 -14.5 -44t-39.5 -18q-21 0 -37 15t-16 39q0 12 5 21t11 16t11 13t5 12q0 11 -18.5 18t-53.5 7q-49 0 -75.5 -23.5t-26.5 -70.5q0 -101 105 -101q14 0 25.5 2t21.5 2q11 0 18.5 -5.5t7.5 -15.5t-7.5 -15.5t-18.5 -5.5q-10 0 -21.5 2t-25.5 2z" />
    <glyph glyph-name="zeta" unicode="&#x3b6;" horiz-adv-x="470" 
d="M439 695q0 -24 -16.5 -46.5t-43.5 -39.5t-61 -28t-69 -11q-58 -84 -88 -161.5t-30 -154.5q0 -83 35 -117t91 -34q17 0 38.5 1t35.5 1q64 0 95 -33t31 -96q0 -50 -14 -87.5t-36 -62t-49 -37t-53 -12.5q-35 0 -53 16t-18 42t15 40.5t41 14.5q11 0 19.5 -4t16.5 -9t16 -9
t18 -4q27 0 44 20.5t17 54.5q0 29 -18 46t-66 17q-20 0 -44 -3t-50 -3q-188 0 -188 204q0 41 9.5 83t29 87.5t48.5 95.5t69 106q-64 5 -104 35.5t-40 84.5q0 29 14 46t40 17q25 0 40 -14.5t15 -39.5q0 -17 -7 -27.5t-7 -26.5q0 -19 16.5 -31t54.5 -14q46 60 89 99t73 39
q23 0 33.5 -13.5t10.5 -31.5z" />
    <glyph glyph-name="eta" unicode="&#x3b7;" horiz-adv-x="595" 
d="M92 337q0 59 -9 78.5t-26 19.5q-12 0 -20.5 -7t-17.5 -24l-26 16q23 39 47.5 57.5t64.5 18.5q38 0 59 -21.5t26 -70.5q23 45 63 70.5t88 25.5q38 0 69 -10t52.5 -34.5t33.5 -65.5t12 -102q0 -53 0.5 -116.5t1 -129.5t1 -129.5t1.5 -115.5l-109 -20q1 64 2 135t1.5 142
t0.5 138.5v123.5q0 79 -22 110.5t-68 31.5q-24 0 -46 -11.5t-39.5 -35.5t-28 -60.5t-10.5 -85.5v-265h-101v337z" />
    <glyph glyph-name="theta" unicode="&#x3b8;" horiz-adv-x="578" 
d="M289 755q47 0 91 -27.5t78.5 -78t55 -121t20.5 -155.5q0 -86 -21 -156.5t-55 -121t-78.5 -78t-90.5 -27.5q-47 0 -91 27.5t-78 78t-55 121t-21 156.5q0 85 21 155.5t55 121t78 78t91 27.5zM289 22q32 0 56 16.5t40.5 55.5t24.5 103.5t9 159.5h-260q0 -95 8.5 -159.5
t24.5 -103.5t40 -55.5t57 -16.5zM289 723q-33 0 -57 -17t-40 -56t-24.5 -103t-8.5 -158h260q-1 94 -9 158t-24.5 103t-40.5 56t-56 17z" />
    <glyph glyph-name="iota" unicode="&#x3b9;" horiz-adv-x="323" 
d="M310 62q-26 -35 -54.5 -53.5t-68.5 -18.5q-51 0 -78 32t-27 101v363h101v-346q0 -57 12 -74.5t36 -17.5q17 0 28.5 8t24.5 24z" />
    <glyph glyph-name="kappa" unicode="&#x3ba;" horiz-adv-x="575" 
d="M388 417q-9 0 -19.5 -5t-25.5 -18.5t-35 -37t-47 -61.5q49 -67 86.5 -111t64.5 -70t46 -36.5t32 -10.5q17 0 29 13t20 27l28 -16q-16 -31 -31 -50.5t-30.5 -31t-31 -15.5t-33.5 -4q-24 0 -46.5 9t-50.5 35.5t-64 73.5t-87 123v-231h-101v337q0 59 -9 78.5t-26 19.5
q-12 0 -20.5 -7t-17.5 -24l-26 16q23 39 47.5 57.5t64.5 18.5q48 0 68 -32.5t20 -107.5v-103q51 74 91 121t72 74t58.5 37.5t51.5 10.5q32 0 49.5 -20.5t17.5 -46.5q0 -28 -17.5 -46t-42.5 -18q-17 0 -28 8t-19.5 18t-17 18t-20.5 8z" />
    <glyph glyph-name="lambda" unicode="&#x3bb;" horiz-adv-x="570" 
d="M163 644q-12 0 -22 -4t-19.5 -8.5t-20.5 -8t-24 -3.5q-33 0 -51.5 17.5t-18.5 41.5q0 34 23 55t61 21q37 0 67 -13t56.5 -45t51 -86.5t51.5 -137.5q6 -18 13 -44t15 -56t15.5 -60t14.5 -55q11 -40 20.5 -70.5t21 -51.5t27.5 -32t39 -11q17 0 33 6.5t25 13.5q5 -7 7 -17.5
t2 -19.5q0 -16 -3.5 -31.5t-11.5 -27.5t-21 -19.5t-32 -7.5q-24 0 -42 11.5t-33 37t-28 66t-26 97.5q-10 43 -20 84.5t-19 77.5l-191 -364h-115l268 496q-14 42 -27 70.5t-26 45.5t-27.5 24.5t-32.5 7.5z" />
    <glyph glyph-name="nu" unicode="&#x3bd;" horiz-adv-x="534" 
d="M386 440q0 24 14.5 40t40.5 16q27 0 42 -21.5t15 -48.5t-10.5 -72.5t-43.5 -104.5l-149 -265h-16q-37 99 -64.5 170t-48.5 120.5t-36 80t-26.5 47t-21 22t-18.5 5.5q-11 0 -19 -6.5t-14 -13.5l-22 22q24 32 51.5 48.5t51.5 16.5q28 0 50.5 -13.5t46.5 -54.5t52.5 -116.5
t68.5 -199.5l83 147q16 29 23 48t7 34q0 19 -9 29.5t-19.5 19.5t-19.5 20t-9 30z" />
    <glyph glyph-name="xi" unicode="&#x3be;" horiz-adv-x="459" 
d="M318 625q0 13 5 22.5t10.5 17t10.5 13.5t5 12q0 11 -15.5 17.5t-44.5 6.5q-57 0 -87 -40t-30 -115q0 -64 30.5 -96.5t84.5 -32.5q24 0 36.5 3t23.5 3t18.5 -5.5t7.5 -15.5t-7.5 -15.5t-18.5 -5.5t-23.5 2t-36.5 2q-70 0 -110 -44t-40 -113q0 -33 6.5 -56.5t23 -39.5
t45.5 -24.5t73 -11.5q30 -2 59 -5.5t51.5 -16t36.5 -38.5t14 -73q0 -50 -14 -87.5t-36 -62t-49 -37t-53 -12.5q-35 0 -53 16t-18 42t15 40.5t41 14.5q11 0 19.5 -4t16.5 -9t16 -9t18 -4q27 0 44 20.5t17 54.5q0 25 -11.5 37.5t-29.5 17t-39 4.5t-39 2q-36 3 -79.5 9
t-80.5 25.5t-62 59.5t-25 111q0 40 13.5 75t38.5 62.5t59 46.5t75 28q-75 11 -114 48t-39 101q0 85 54 132t158 47q65 0 101.5 -29t36.5 -77q0 -26 -16 -44t-43 -18q-21 0 -35.5 13.5t-14.5 34.5z" />
    <glyph glyph-name="rho" unicode="&#x3c1;" horiz-adv-x="601" 
d="M79 -223q2 97 3 215t1 237q0 68 17 118t47 83t72 49.5t93 16.5q47 0 91 -18.5t78.5 -51.5t55 -79.5t20.5 -103.5t-21 -103.5t-55 -79.5t-78.5 -51.5t-90.5 -18.5q-50 0 -82.5 16t-50.5 36q1 -65 2 -129.5t3 -116.5zM179 96q21 -35 55.5 -54.5t77.5 -19.5q34 0 59.5 11
t42 36.5t24.5 68t8 105.5t-8 105t-24.5 68t-42 37t-59.5 11q-36 0 -61 -11.5t-41.5 -39t-24 -72.5t-7.5 -111z" />
    <glyph glyph-name="sigma1" unicode="&#x3c2;" horiz-adv-x="476" 
d="M243 420q-57 0 -88 -45.5t-31 -114.5q0 -84 33 -120.5t89 -36.5q17 0 38.5 1t35.5 1q64 0 95 -33t31 -96q0 -50 -14 -87.5t-36 -62t-49 -37t-53 -12.5q-35 0 -53 16t-18 42t15 40.5t41 14.5q11 0 19.5 -4t16.5 -9t16 -9t18 -4q27 0 44 20.5t17 54.5q0 29 -18 46t-66 17
q-20 0 -44 -3t-50 -3q-94 0 -141 50.5t-47 142.5q0 59 24 114.5t66 98t99.5 68.5t124.5 26q54 0 77.5 -21.5t23.5 -54.5q0 -25 -15.5 -40t-41.5 -15q-24 0 -41 8.5t-33.5 19t-36 19t-48.5 8.5z" />
    <glyph glyph-name="sigma" unicode="&#x3c3;" horiz-adv-x="596" 
d="M571 402q-42 1 -96.5 4.5t-105.5 5.5q77 -35 113 -79.5t36 -109.5q0 -52 -19.5 -95t-51.5 -73.5t-74.5 -47.5t-88.5 -17q-48 0 -92 18.5t-78 51.5t-54 79.5t-20 103.5q0 54 20.5 98.5t57 77t86.5 50t109 17.5h272zM417 230q0 31 -8 59.5t-20.5 51.5t-29 41.5t-32.5 30.5
h-7q-84 0 -126.5 -46t-42.5 -155q0 -55 8 -91.5t24 -58.5t41 -31t60 -9q34 0 59 10t41.5 34t24.5 64t8 100z" />
    <glyph glyph-name="tau" unicode="&#x3c4;" horiz-adv-x="537" 
d="M271 355q-9 -66 -9 -115q0 -141 60 -141q23 0 36 19t16 47h31q0 -93 -22 -134t-68 -41q-48 0 -71.5 43t-23.5 136q0 62 7 113.5t18 102.5h-39q-39 0 -65 -8.5t-42.5 -23.5t-24.5 -36t-10 -45h-31q3 54 15.5 94.5t38 67t66 39.5t100.5 13h251l-18 -101h-210z" />
    <glyph glyph-name="upsilon" unicode="&#x3c5;" horiz-adv-x="540" 
d="M209 140q0 -34 7 -57t19 -36.5t28.5 -19t36.5 -5.5q38 0 66 17.5t46 49t27 75t9 96.5q0 41 -17 63.5t-38 38t-38 30.5t-17 41q0 29 15.5 46t40.5 17q19 0 34.5 -9.5t27 -35t18 -72t6.5 -119.5q0 -60 -11.5 -109.5t-34 -85.5t-56 -55.5t-78.5 -19.5q-99 0 -145.5 45.5
t-46.5 146.5v155q0 59 -9 78.5t-26 19.5q-12 0 -20.5 -7t-17.5 -24l-26 16q23 39 47.5 57.5t64.5 18.5q48 0 68 -32.5t20 -107.5v-216z" />
    <glyph glyph-name="phi" unicode="&#x3c6;" horiz-adv-x="738" 
d="M308 -223q2 43 2.5 98.5t2.5 118.5q-54 7 -102.5 28t-85.5 53.5t-59 75t-22 92.5q0 57 20 103.5t53 79.5t74.5 51.5t85.5 18.5q23 0 38 -3.5t23 -8.5l-14 -28q-8 5 -21.5 6.5t-25.5 1.5q-32 0 -55 -11t-38 -36.5t-22 -68t-7 -105.5q0 -54 9.5 -93t29 -65t49.5 -40.5
t70 -19.5q2 69 2.5 138.5t1.5 132.5q1 56 11 94t28.5 61.5t46 34t62.5 10.5q43 0 84 -18.5t73.5 -51.5t52 -79.5t19.5 -103.5q0 -53 -24 -96.5t-64 -76.5t-92 -53t-109 -25q2 -52 3.5 -101.5t4.5 -94.5zM398 335q0 -67 1.5 -148t3.5 -164q46 3 79.5 16t56 39t33.5 66.5
t11 98.5q0 63 -8 105.5t-23 68.5t-37 37t-50 11q-31 0 -49 -28t-18 -102z" />
    <glyph glyph-name="chi" unicode="&#x3c7;" horiz-adv-x="539" 
d="M311 84q22 -107 57.5 -156.5t83.5 -49.5q29 0 42 13.5t15 32.5h32q0 -76 -21.5 -116.5t-69.5 -40.5q-65 0 -103 71.5t-57 205.5l-145 -267h-113l217 401q-20 108 -56.5 157.5t-83.5 49.5q-29 0 -42 -13.5t-15 -32.5h-32q0 76 21.5 116.5t69.5 40.5q64 0 102.5 -71.5
t57.5 -206.5l145 268h113z" />
    <glyph glyph-name="psi" unicode="&#x3c8;" horiz-adv-x="738" 
d="M209 150q0 -35 12.5 -58.5t34.5 -38.5t51.5 -22t63.5 -9l2 204q0 54 -0.5 116t-2.5 125t-5 125t-6 117l105 19q-2 -48 -3.5 -98.5t-2 -105.5t-1.5 -116t-1 -130q-1 -57 0 -120.5t3 -129.5q94 17 140.5 79t46.5 153q0 43 -17 65.5t-38 37.5t-38 29.5t-17 40.5
q0 29 15.5 46t40.5 17q19 0 34.5 -9.5t27 -35t18 -72t6.5 -119.5q0 -52 -14.5 -96.5t-42.5 -79t-69 -57t-93 -31.5q2 -53 4 -103.5t4 -96.5l-105 -19q2 51 4 103t4 110q-138 3 -200 49t-62 143v155q0 59 -9 78.5t-26 19.5q-12 0 -20.5 -7t-17.5 -24l-26 16q23 39 47.5 57.5
t64.5 18.5q48 0 68 -32.5t20 -107.5v-206z" />
    <glyph glyph-name="omega" unicode="&#x3c9;" horiz-adv-x="746" 
d="M373 380q54 0 54 -78q0 -38 -10.5 -90t-28.5 -97q9 -16 20 -31t24 -27t28.5 -19t33.5 -7q54 0 76.5 46.5t22.5 137.5q0 88 -30.5 147t-104.5 101l11 30q114 -26 173.5 -93t59.5 -182q0 -109 -49.5 -168.5t-130.5 -59.5q-30 0 -53 6.5t-40 18.5t-30.5 29t-25.5 39
q-12 -22 -25.5 -39t-30.5 -29t-40 -18.5t-53 -6.5q-81 0 -130.5 59.5t-49.5 168.5q0 115 59.5 182t173.5 93l11 -30q-74 -42 -104.5 -101t-30.5 -147q0 -91 22.5 -137.5t76.5 -46.5q18 0 33.5 7t28.5 19t24 27t20 31q-18 45 -28.5 97t-10.5 90q0 78 54 78z" />
    <glyph glyph-name="omicron" unicode="&#x3bf;" horiz-adv-x="578" 
d="M289 496q47 0 91 -18.5t78.5 -51.5t55 -79.5t20.5 -103.5t-21 -103.5t-55 -79.5t-78.5 -51.5t-90.5 -18.5q-47 0 -91 18.5t-78 51.5t-55 79.5t-21 103.5t21 103.5t55 79.5t78 51.5t91 18.5zM289 464q-34 0 -58.5 -11t-40.5 -37t-23.5 -68t-7.5 -105t7.5 -105.5t23.5 -68
t40.5 -36.5t58.5 -11q33 0 57.5 11t40.5 36.5t24 68t8 105.5t-8 105t-24 68t-40.5 37t-57.5 11z" />
    <glyph glyph-name="mu" unicode="&#xb5;" horiz-adv-x="597" 
d="M617 61q-27 -38 -53.5 -54.5t-66.5 -16.5q-88 0 -107 84q-19 -43 -55 -65.5t-84 -22.5q-20 0 -38.5 4.5t-35.5 14.5q0 -25 1 -52.5t2 -55.5t2.5 -54t2.5 -47l-105 -19q2 93 3.5 185t1.5 185v339h101v-340q0 -66 20.5 -92t62.5 -26q24 0 46.5 12t39.5 36.5t27.5 61
t10.5 85.5v263h101v-346q0 -54 12 -74.5t34 -20.5q14 0 25 6.5t26 27.5z" />
    <glyph glyph-name="pi" unicode="&#x3c0;" horiz-adv-x="638" 
d="M410 245q0 -74 20 -110t49 -36q23 0 36 19t16 47h31q0 -93 -22 -134t-68 -41q-48 0 -71.5 43t-23.5 136q0 62 2 113.5t6 102.5h-99q0 -118 -9.5 -194.5t-27.5 -121t-44 -62t-60 -17.5q-31 0 -48 15.5t-17 44.5q0 27 14.5 43.5t42.5 16.5q12 0 23.5 -5t25.5 -5q13 0 25 12
t22 44t16 87.5t6 141.5h-49q-39 0 -65 -8.5t-42.5 -23.5t-24.5 -36t-10 -45h-31q3 54 15.5 94.5t38 67t66 39.5t100.5 13h352l-18 -101h-171q-2 -28 -4 -60.5t-2 -79.5z" />
    <glyph glyph-name="ordfeminine" unicode="&#xaa;" horiz-adv-x="410" 
d="M344 378q9 0 17 6.5t14 16.5l25 -17q-12 -19 -29 -28.5t-43 -9.5q-35 0 -57.5 17t-28.5 50q-15 -35 -45 -50.5t-66 -15.5q-47 0 -75.5 23t-28.5 61q0 39 19 63.5t54 37.5t72 22.5t67 14.5v54q0 44 -19 58t-53 14q-20 0 -36 -5t-16 -15q0 -5 3.5 -9.5t8 -10.5t8 -13.5
t3.5 -18.5q0 -15 -12 -26t-31 -11q-20 0 -31.5 11t-11.5 28q0 20 9.5 38t26 32t39 22.5t47.5 8.5q68 0 106.5 -37t38.5 -118v-136q0 -35 7 -46t18 -11zM239 539q-22 -2 -45.5 -8.5t-38.5 -12.5q-24 -9 -33 -26.5t-9 -48.5q0 -33 14 -46t32 -13q15 0 29.5 8t25.5 22.5
t18 33.5t7 42v49z" />
    <glyph glyph-name="Alpha" unicode="&#x391;" horiz-adv-x="712" 
d="M415 263l-114 295l-107 -295h221zM111 32h84v-32h-206v32h87l253 700h26l272 -700h96v-32h-302v32h84l-77 199h-245z" />
    <glyph glyph-name="Beta" unicode="&#x392;" horiz-adv-x="642" 
d="M321 411q64 0 97 35.5t33 102.5q0 68 -33 103.5t-97 35.5h-70v-277h70zM321 32q80 0 121 42.5t41 123.5q0 95 -39 138t-115 43h-78v-347h70zM321 720q121 0 184 -44.5t63 -122.5q0 -68 -47.5 -108t-140.5 -49q115 -13 170.5 -62t55.5 -141q0 -94 -72.5 -143.5
t-212.5 -49.5h-296v32h111v656h-111v32h296z" />
    <glyph glyph-name="Epsilon" unicode="&#x395;" horiz-adv-x="668" 
d="M25 0v32h111v656h-111v32h559v-240h-31q0 46 -14.5 84.5t-41 66t-64.5 42.5t-85 15h-97v-297h43q33 0 57.5 11.5t40 31t23.5 46t8 57.5h31v-324h-31q0 31 -8 58t-23.5 46.5t-40 30.5t-57.5 11h-43v-327h131q53 0 94 17.5t69 49t42.5 75.5t14.5 96h32v-270h-609z" />
    <glyph glyph-name="Eta" unicode="&#x397;" horiz-adv-x="839" 
d="M703 688v-656h111v-32h-337v32h111v318h-337v-318h111v-32h-337v32h111v656h-111v32h337v-32h-111v-306h337v306h-111v32h337v-32h-111z" />
    <glyph glyph-name="Iota" unicode="&#x399;" horiz-adv-x="393" 
d="M254 32h111v-32h-337v32h111v656h-111v32h337v-32h-111v-656z" />
    <glyph glyph-name="Mu" unicode="&#x39c;" horiz-adv-x="941" 
d="M165 32h111v-32h-255v32h111v656h-111v32h238l215 -553l206 553h240v-32h-111v-656h111v-32h-337v32h111v633l-253 -677h-19l-257 661v-617z" />
    <glyph glyph-name="Nu" unicode="&#x39d;" horiz-adv-x="790" 
d="M640 -12l-480 678v-634h111v-32h-255v32h111v656h-111v32h247l367 -519v487h-111v32h255v-32h-111v-700h-23z" />
    <glyph glyph-name="Omicron" unicode="&#x39f;" horiz-adv-x="781" 
d="M390 730q70 0 130.5 -29t105.5 -79.5t71 -118t26 -143.5q0 -77 -26 -144t-71 -117.5t-105.5 -79.5t-129.5 -29q-70 0 -130.5 29t-105.5 79.5t-71 117.5t-26 144q0 76 26 143.5t71 118t105.5 79.5t129.5 29zM390 698q-55 0 -93.5 -17.5t-63 -57.5t-35.5 -104.5t-11 -158.5
t11.5 -158.5t36 -104.5t63 -57.5t93.5 -17.5t93.5 17.5t63 57.5t35.5 104.5t11 158.5t-11.5 158.5t-36 104.5t-63 57.5t-93.5 17.5z" />
    <glyph glyph-name="Rho" unicode="&#x3a1;" horiz-adv-x="626" 
d="M251 32h111v-32h-337v32h111v656h-111v32h286q133 0 202 -54t69 -157q0 -100 -66.5 -152.5t-196.5 -52.5q-14 0 -32.5 1.5t-35.5 4.5v-278zM251 341q17 -2 34.5 -3.5t33.5 -1.5q69 0 104.5 43.5t35.5 125.5q0 89 -38 136t-110 47h-60v-347z" />
    <glyph glyph-name="Tau" unicode="&#x3a4;" horiz-adv-x="717" 
d="M264 688q-95 0 -150 -58.5t-55 -159.5h-31v250h661v-250h-31q0 101 -55 159.5t-150 58.5h-37v-656h111v-32h-337v32h111v656h-37z" />
    <glyph glyph-name="Upsilon" unicode="&#x3a5;" horiz-adv-x="685" 
d="M569 688h-81v32h209v-32h-90l-202 -357v-299h111v-32h-337v32h111v299l-203 357h-99v32h314v-32h-81l174 -308z" />
    <glyph glyph-name="Chi" unicode="&#x3a7;" horiz-adv-x="730" 
d="M712 32v-32h-312v32h89l-161 279l-196 -279h85v-32h-199v32h75l218 308l-201 348h-92v32h312v-32h-89l144 -250l176 250h-87v32h223v-32h-98l-196 -280l217 -376h92z" />
    <glyph glyph-name="Zeta" unicode="&#x396;" horiz-adv-x="635" 
d="M316 688q-95 0 -150 -58.5t-55 -159.5h-31v250h475l-377 -688h165q53 0 94 17.5t69 49t42.5 75.5t14.5 96h32v-270h-560l377 688h-96z" />
    <glyph glyph-name="Gamma" unicode="&#x393;" horiz-adv-x="649" 
d="M25 0v32h111v656h-111v32h569v-270h-32q0 52 -17.5 96t-47.5 75.5t-71 49t-89 17.5h-86v-656h111v-32h-337z" />
    <glyph glyph-name="Kappa" unicode="&#x39a;" horiz-adv-x="731" 
d="M517 32l-266 326v-326h103v-32h-329v32h111v656h-111v32h329v-32h-103v-321l323 321h-74v32h211v-32h-92l-270 -268l317 -388h82v-32h-308v32h77z" />
    <glyph glyph-name="Theta" unicode="&#x398;" horiz-adv-x="793" 
d="M396 730q71 0 133 -29t107.5 -79.5t72 -118t26.5 -143.5q0 -77 -26.5 -144t-72 -117.5t-107.5 -79.5t-132 -29q-71 0 -133 29t-107.5 79.5t-72 117.5t-26.5 144q0 76 26.5 143.5t72 118t107 79.5t132.5 29zM396 698q-56 0 -96 -17.5t-65 -57.5t-36.5 -104.5t-11.5 -158.5
t11.5 -158.5t37 -104.5t65.5 -57.5t96 -17.5t96 17.5t65 57.5t36.5 104.5t11.5 158.5t-11.5 158.5t-37 104.5t-65.5 57.5t-96 17.5zM530 260h-32v60h-202v-60h-32v208h32v-60h202v60h32v-208z" />
    <glyph glyph-name="Lambda" unicode="&#x39b;" horiz-adv-x="712" 
d="M111 32h84v-32h-206v32h87l253 700h26l272 -700h96v-32h-302v32h84l-204 526z" />
    <glyph glyph-name="Pi" unicode="&#x3a0;" horiz-adv-x="829" 
d="M783 688h-90v-656h111v-32h-337v32h111v656h-327v-656h111v-32h-337v32h111v656h-111v32h758v-32z" />
    <glyph glyph-name="Xi" unicode="&#x39e;" horiz-adv-x="651" 
d="M593 0h-535v156h32v-60h471v60h32v-156zM541 564v60h-431v-60h-32v156h495v-156h-32zM503 260h-32v60h-291v-60h-32v208h32v-60h291v60h32v-208z" />
    <glyph glyph-name="Sigma" unicode="&#x3a3;" horiz-adv-x="636" 
d="M595 302v-302h-599l300 334l-280 386h549v-250h-31q0 101 -55 159.5t-150 58.5h-154l215 -296l-267 -298h248q47 0 83 15.5t60 43t36.5 65.5t12.5 84h32z" />
    <glyph glyph-name="Phi" unicode="&#x3a6;" horiz-adv-x="850" 
d="M369 614q-54 0 -91 -11t-60 -39.5t-33 -78t-10 -125.5t10 -125t33 -77.5t60 -39.5t91 -12v508zM481 8h111v-32h-334v32h111v66q-68 1 -127 24t-102.5 62t-68.5 90.5t-25 109.5q0 59 25 111t69 91t102.5 61.5t126.5 22.5v66h-111v32h334v-32h-111v-66q68 -1 127 -24
t102.5 -62t68.5 -90.5t25 -109.5q0 -59 -25 -111t-69 -91t-103 -61.5t-126 -22.5v-66zM481 106q54 0 91 11t60 39.5t33 77.5t10 126q0 76 -10 124.5t-33 77t-60 40t-91 12.5v-508z" />
    <glyph glyph-name="uni0413" unicode="&#x413;" horiz-adv-x="649" 
d="M25 0v32h111v656h-111v32h569v-270h-32q0 52 -17.5 96t-47.5 75.5t-71 49t-89 17.5h-86v-656h111v-32h-337z" />
    <glyph glyph-name="uni041F" unicode="&#x41f;" horiz-adv-x="829" 
d="M783 688h-90v-656h111v-32h-337v32h111v656h-327v-656h111v-32h-337v32h111v656h-111v32h758v-32z" />
    <glyph glyph-name="uni0424" unicode="&#x424;" horiz-adv-x="850" 
d="M369 614q-54 0 -91 -11t-60 -39.5t-33 -78t-10 -125.5t10 -125t33 -77.5t60 -39.5t91 -12v508zM481 8h111v-32h-334v32h111v66q-68 1 -127 24t-102.5 62t-68.5 90.5t-25 109.5q0 59 25 111t69 91t102.5 61.5t126.5 22.5v66h-111v32h334v-32h-111v-66q68 -1 127 -24
t102.5 -62t68.5 -90.5t25 -109.5q0 -59 -25 -111t-69 -91t-103 -61.5t-126 -22.5v-66zM481 106q54 0 91 11t60 39.5t33 77.5t10 126q0 76 -10 124.5t-33 77t-60 40t-91 12.5v-508z" />
    <glyph glyph-name="Psi" unicode="&#x3a8;" horiz-adv-x="825" 
d="M470 32h111v-32h-337v32h111v249q-80 0 -132.5 12t-83 42t-42.5 80.5t-12 126.5q0 46 -2.5 74t-7 42.5t-11 19t-13.5 4.5q-9 0 -17.5 -6.5t-13.5 -11.5l-20 24q9 10 32.5 23t57.5 13q29 0 49.5 -9t34 -31.5t19.5 -61t6 -96.5q0 -70 7.5 -112t25.5 -64.5t48 -29.5t75 -7
v375h-107v32h329v-32h-107v-375q45 0 75 7t48 29.5t25.5 64.5t7.5 112q0 58 6 96.5t19.5 61t34 31.5t49.5 9q34 0 57.5 -13t32.5 -23l-20 -24q-5 5 -13.5 11.5t-17.5 6.5q-8 0 -14 -4.5t-10.5 -19t-7 -42.5t-2.5 -74q0 -76 -12 -126.5t-42.5 -80.5t-83 -42t-132.5 -12v-249z
" />
    <glyph glyph-name="uni0410" unicode="&#x410;" horiz-adv-x="712" 
d="M415 263l-114 295l-107 -295h221zM111 32h84v-32h-206v32h87l253 700h26l272 -700h96v-32h-302v32h84l-77 199h-245z" />
    <glyph glyph-name="uni0412" unicode="&#x412;" horiz-adv-x="642" 
d="M321 411q64 0 97 35.5t33 102.5q0 68 -33 103.5t-97 35.5h-70v-277h70zM321 32q80 0 121 42.5t41 123.5q0 95 -39 138t-115 43h-78v-347h70zM321 720q121 0 184 -44.5t63 -122.5q0 -68 -47.5 -108t-140.5 -49q115 -13 170.5 -62t55.5 -141q0 -94 -72.5 -143.5
t-212.5 -49.5h-296v32h111v656h-111v32h296z" />
    <glyph glyph-name="uni0415" unicode="&#x415;" horiz-adv-x="668" 
d="M25 0v32h111v656h-111v32h559v-240h-31q0 46 -14.5 84.5t-41 66t-64.5 42.5t-85 15h-97v-297h43q33 0 57.5 11.5t40 31t23.5 46t8 57.5h31v-324h-31q0 31 -8 58t-23.5 46.5t-40 30.5t-57.5 11h-43v-327h131q53 0 94 17.5t69 49t42.5 75.5t14.5 96h32v-270h-609z" />
    <glyph glyph-name="uni041D" unicode="&#x41d;" horiz-adv-x="839" 
d="M703 688v-656h111v-32h-337v32h111v318h-337v-318h111v-32h-337v32h111v656h-111v32h337v-32h-111v-306h337v306h-111v32h337v-32h-111z" />
    <glyph glyph-name="uni041C" unicode="&#x41c;" horiz-adv-x="941" 
d="M165 32h111v-32h-255v32h111v656h-111v32h238l215 -553l206 553h240v-32h-111v-656h111v-32h-337v32h111v633l-253 -677h-19l-257 661v-617z" />
    <glyph glyph-name="uni041E" unicode="&#x41e;" horiz-adv-x="781" 
d="M390 730q70 0 130.5 -29t105.5 -79.5t71 -118t26 -143.5q0 -77 -26 -144t-71 -117.5t-105.5 -79.5t-129.5 -29q-70 0 -130.5 29t-105.5 79.5t-71 117.5t-26 144q0 76 26 143.5t71 118t105.5 79.5t129.5 29zM390 698q-55 0 -93.5 -17.5t-63 -57.5t-35.5 -104.5t-11 -158.5
t11.5 -158.5t36 -104.5t63 -57.5t93.5 -17.5t93.5 17.5t63 57.5t35.5 104.5t11 158.5t-11.5 158.5t-36 104.5t-63 57.5t-93.5 17.5z" />
    <glyph glyph-name="uni0420" unicode="&#x420;" horiz-adv-x="626" 
d="M251 32h111v-32h-337v32h111v656h-111v32h286q133 0 202 -54t69 -157q0 -100 -66.5 -152.5t-196.5 -52.5q-14 0 -32.5 1.5t-35.5 4.5v-278zM251 341q17 -2 34.5 -3.5t33.5 -1.5q69 0 104.5 43.5t35.5 125.5q0 89 -38 136t-110 47h-60v-347z" />
    <glyph glyph-name="uni0422" unicode="&#x422;" horiz-adv-x="717" 
d="M264 688q-95 0 -150 -58.5t-55 -159.5h-31v250h661v-250h-31q0 101 -55 159.5t-150 58.5h-37v-656h111v-32h-337v32h111v656h-37z" />
    <glyph glyph-name="uni0421" unicode="&#x421;" horiz-adv-x="691" 
d="M390 730q26 0 51.5 -6.5t48 -14t41.5 -13.5t33 -6q17 0 25 6.5t11 23.5h31v-260h-31q-11 52 -30.5 96t-46 75.5t-60.5 49t-73 17.5q-53 0 -91 -16t-63 -54t-37 -101t-12 -157t11.5 -160t36 -108t63 -61t93.5 -19q40 0 75 17.5t63 49t48.5 75t31.5 96.5h32v-260h-31
q-3 17 -11 23.5t-25 6.5q-15 0 -34.5 -6.5t-43.5 -14t-50.5 -13.5t-54.5 -6q-70 0 -130.5 30t-105.5 81.5t-71 121t-26 147.5q0 75 26 140.5t71 114.5t105.5 77t129.5 28z" />
    <glyph glyph-name="uni0425" unicode="&#x425;" horiz-adv-x="730" 
d="M712 32v-32h-312v32h89l-161 279l-196 -279h85v-32h-199v32h75l218 308l-201 348h-92v32h312v-32h-89l144 -250l176 250h-87v32h223v-32h-98l-196 -280l217 -376h92z" />
    <glyph glyph-name="uni0405" unicode="&#x405;" horiz-adv-x="611" 
d="M319 -10q-28 0 -54 6.5t-49.5 15t-44.5 15t-39 6.5q-31 0 -36 -37h-31v288h32q7 -61 27.5 -109.5t50.5 -82.5t66.5 -52t77.5 -18q63 0 101.5 34.5t38.5 95.5q0 41 -16 69t-42 47.5t-59 33t-68 27t-68 29.5t-59 39.5t-42 57t-16 82.5q0 44 16.5 80t44 61t63 38.5
t72.5 13.5q26 0 46.5 -5t38 -11t32 -11t29.5 -5q29 0 35 32h31v-231h-32q-27 102 -76 150.5t-104 48.5q-30 0 -54.5 -9.5t-42.5 -25.5t-27.5 -37.5t-9.5 -45.5q0 -32 17 -54t45 -38.5t63.5 -29.5t72.5 -27t72.5 -32t63.5 -44t45 -62.5t17 -87.5q0 -45 -17 -84.5t-47 -68.5
t-72 -45.5t-92 -16.5z" />
    <glyph glyph-name="uni0455" unicode="&#x455;" horiz-adv-x="465" 
d="M70 354q0 32 12 58.5t33 46t48.5 30t58.5 10.5q18 0 33 -4t27.5 -8.5t23 -8.5t20.5 -4q11 0 18.5 6t7.5 19h31v-160h-31q-8 37 -22 61.5t-31 39.5t-37 21t-40 6q-38 0 -64 -19.5t-26 -47.5q0 -30 21 -48t53 -31t68.5 -25t68.5 -30t53 -46.5t21 -74.5q0 -32 -12.5 -60.5
t-35 -50.5t-54.5 -34.5t-72 -12.5q-20 0 -38.5 4.5t-35 10.5t-31 10.5t-26.5 4.5q-24 0 -27 -26h-31v201h31q5 -44 20.5 -76.5t37 -54t48 -32t52.5 -10.5q39 0 66.5 20t27.5 54q0 37 -20 58.5t-49.5 36t-64 26t-64 28t-49.5 42.5t-20 70z" />
    <glyph glyph-name="uni0406" unicode="&#x406;" horiz-adv-x="393" 
d="M254 32h111v-32h-337v32h111v656h-111v32h337v-32h-111v-656z" />
    <glyph glyph-name="uni0456" unicode="&#x456;" horiz-adv-x="317" 
d="M209 32h77v-32h-255v32h77v422h-77v32h178v-454zM158 710q24 0 40.5 -16.5t16.5 -40.5t-16.5 -40.5t-40.5 -16.5t-40.5 16.5t-16.5 40.5t16.5 40.5t40.5 16.5z" />
    <glyph glyph-name="uni0408" unicode="&#x408;" horiz-adv-x="495" 
d="M81 59q0 -15 23 -26t60 -11q48 0 70 26.5t22 101.5v538h-111v32h337v-32h-111v-451q0 -131 -54 -189t-153 -58q-78 0 -119 39t-41 106q0 34 20 59t53 25q26 0 45.5 -18.5t19.5 -49.5q0 -18 -9.5 -30.5t-21 -22.5t-21 -18.5t-9.5 -20.5z" />
    <glyph glyph-name="uni0458" unicode="&#x458;" horiz-adv-x="292" 
d="M21 -105q0 -13 -6.5 -20.5t-14.5 -13.5t-14.5 -12t-6.5 -15q0 -11 13.5 -18t33.5 -7q19 0 32 4.5t21.5 17t12.5 34t4 55.5v534h-77v32h178v-477q0 -58 -14 -101.5t-37.5 -72.5t-54.5 -43.5t-65 -14.5q-49 0 -80 29t-31 76q0 27 16 45.5t40 18.5q22 0 36 -15t14 -36z
M146 710q24 0 40.5 -16.5t16.5 -40.5t-16.5 -40.5t-40.5 -16.5t-40.5 16.5t-16.5 40.5t16.5 40.5t40.5 16.5z" />
    <glyph glyph-name="uni0430" unicode="&#x430;" horiz-adv-x="527" 
d="M146 115q0 -45 20.5 -64.5t48.5 -19.5q22 0 43 9t37.5 26t26.5 42.5t10 57.5v92q-32 -4 -66.5 -11.5t-57.5 -16.5q-18 -7 -29.5 -16t-19 -22t-10.5 -31.5t-3 -45.5zM528 52q-12 -26 -34 -44t-67 -18q-16 0 -32 3.5t-28.5 13t-21.5 26t-12 41.5q-12 -25 -28.5 -41.5
t-35.5 -26t-40 -13t-42 -3.5q-31 0 -58 9t-46.5 25t-31 39t-11.5 50q0 58 27.5 87t76.5 46q43 15 93.5 27t94.5 17v64q0 33 -7.5 54.5t-21 33.5t-33 17t-44.5 5q-32 0 -53.5 -9.5t-21.5 -22.5q0 -7 5.5 -14t11.5 -15t11.5 -19t5.5 -25q0 -22 -16 -37t-39 -15q-26 0 -40.5 16
t-14.5 43q0 24 11 47.5t32 41.5t51 29.5t68 11.5q41 0 76.5 -11t61.5 -35.5t40.5 -64t14.5 -96.5v-173q0 -48 7.5 -65t25.5 -17q13 0 21.5 8.5t16.5 24.5z" />
    <glyph glyph-name="uni0441" unicode="&#x441;" horiz-adv-x="482" 
d="M315 349q0 16 7 26.5t15 19t15 16.5t7 17q0 17 -22 26.5t-54 9.5q-34 0 -57.5 -11t-38.5 -36.5t-21.5 -67.5t-6.5 -105q0 -62 7 -104t22 -67.5t37.5 -36t53.5 -10.5q28 0 50.5 9.5t40 26t29 38.5t16.5 47h33q-5 -33 -18.5 -62t-35.5 -50t-51.5 -33t-66.5 -12
q-44 0 -86 17.5t-74.5 50t-52 79.5t-19.5 107q0 59 20.5 106t54 79.5t76.5 49.5t88 17q33 0 62.5 -10t51.5 -28t34.5 -44t12.5 -57q0 -30 -18.5 -51t-49.5 -21q-25 0 -43 17.5t-18 46.5z" />
    <glyph glyph-name="uni0435" unicode="&#x435;" horiz-adv-x="521" 
d="M159 244q0 -62 7.5 -104t23.5 -67.5t40 -36t57 -10.5q29 0 53 9.5t42.5 26t30.5 38.5t18 47h33q-6 -33 -20.5 -62t-38.5 -50t-56.5 -33t-74.5 -12q-44 0 -85.5 17.5t-73.5 50t-51.5 79.5t-19.5 107q0 59 18.5 106t48.5 79.5t68.5 49.5t79.5 17t80 -15.5t69.5 -45.5
t49 -74.5t18.5 -102.5h-317v-14zM361 290q0 50 -6 83.5t-18.5 53.5t-32 28.5t-45.5 8.5q-24 0 -41.5 -9t-30 -29t-19.5 -53.5t-8 -82.5h201z" />
    <glyph glyph-name="uni043E" unicode="&#x43e;" horiz-adv-x="578" 
d="M289 496q47 0 91 -18.5t78.5 -51.5t55 -79.5t20.5 -103.5t-21 -103.5t-55 -79.5t-78.5 -51.5t-90.5 -18.5q-47 0 -91 18.5t-78 51.5t-55 79.5t-21 103.5t21 103.5t55 79.5t78 51.5t91 18.5zM289 464q-34 0 -58.5 -11t-40.5 -37t-23.5 -68t-7.5 -105t7.5 -105.5t23.5 -68
t40.5 -36.5t58.5 -11q33 0 57.5 11t40.5 36.5t24 68t8 105.5t-8 105t-24 68t-40.5 37t-57.5 11z" />
    <glyph glyph-name="uni0440" unicode="&#x440;" horiz-adv-x="608" 
d="M341 22q28 0 49.5 11t35 37t20.5 68.5t7 104.5q0 61 -7 103.5t-20.5 68.5t-35 37.5t-49.5 11.5q-30 0 -56.5 -13t-45.5 -36.5t-30 -56.5t-11 -72v-86q0 -39 11 -72t30 -56.5t45.5 -36.5t56.5 -13zM97 454h-77v32h178v-86q6 18 18.5 35.5t30.5 31t41.5 21.5t52.5 8
q46 0 86.5 -19.5t71 -54t48 -80.5t17.5 -99t-17.5 -99t-48 -80t-71 -54t-86.5 -20q-29 0 -52.5 8t-41.5 21.5t-30.5 31t-18.5 35.5v-277h77v-32h-255v32h77v645z" />
    <glyph glyph-name="uni0443" unicode="&#x443;" horiz-adv-x="492" 
d="M71 -105q0 -15 -6 -23.5t-13 -14.5t-13 -11.5t-6 -14.5q0 -11 16.5 -17t33.5 -6q19 0 35 7t31.5 25t32 49t35.5 79l16 43l-183 443h-73v32h241v-32h-59l126 -305l115 305h-60v32h164v-32h-70l-184 -492q-21 -56 -40 -92t-39 -56.5t-41.5 -28.5t-46.5 -8t-46.5 7.5
t-37.5 21.5t-25.5 33.5t-9.5 42.5q0 29 17 48.5t40 19.5q21 0 35.5 -15.5t14.5 -39.5z" />
    <glyph glyph-name="uni0445" unicode="&#x445;" horiz-adv-x="522" 
d="M529 32v-32h-239v32h56l-107 168l-133 -168h51v-32h-168v32h79l154 193l-147 229h-66v32h239v-32h-56l97 -150l119 150h-53v32h168v-32h-77l-140 -176l157 -246h66z" />
    <glyph glyph-name="braceleft" unicode="{" horiz-adv-x="350" 
d="M68 290q29 0 44.5 16.5t15.5 56.5v242q0 75 40 107.5t138 32.5v-32q-60 0 -81 -28.5t-21 -95.5v-182q0 -33 -4 -56t-13.5 -38.5t-26.5 -25t-43 -13.5q26 -5 43 -14t26.5 -24.5t13.5 -38.5t4 -56v-182q0 -34 4.5 -57.5t16.5 -38.5t31.5 -21.5t49.5 -6.5v-32
q-98 0 -138 32.5t-40 107.5v242q0 40 -15.5 56.5t-44.5 16.5v32z" />
    <glyph glyph-name="bar" unicode="|" horiz-adv-x="230" 
d="M139 745v-968h-48v968h48z" />
    <glyph glyph-name="braceright" unicode="}" horiz-adv-x="350" 
d="M282 258q-29 0 -44.5 -16.5t-15.5 -56.5v-242q0 -75 -40 -107.5t-138 -32.5v32q30 0 49.5 6.5t31.5 21.5t16.5 38.5t4.5 57.5v182q0 33 4 56t13.5 38.5t26.5 24.5t43 14q-26 4 -43 13.5t-26.5 25t-13.5 38.5t-4 56v182q0 67 -21 95.5t-81 28.5v32q98 0 138 -32.5
t40 -107.5v-242q0 -40 15.5 -56.5t44.5 -16.5v-32z" />
    <glyph glyph-name="percent" unicode="%" horiz-adv-x="679" 
d="M189 731q32 0 61 -11.5t50.5 -33t34.5 -52.5t13 -70t-13 -70t-34.5 -52.5t-50.5 -33t-61 -11.5t-61 11.5t-51 33t-34.5 52.5t-12.5 70t12.5 70t34.5 52.5t51 33t61 11.5zM189 701q-101 0 -101 -137t101 -137t101 137t-101 137zM78 0h-47l566 720h47zM490 -12
q-32 0 -61 11.5t-51 33t-34.5 52.5t-12.5 70t12.5 70t34.5 52.5t51 33t61 11.5t61 -11.5t50.5 -33t34.5 -52.5t13 -70t-13 -70t-34.5 -52.5t-50.5 -33t-61 -11.5zM490 18q101 0 101 137t-101 137t-101 -137t101 -137z" />
    <glyph glyph-name="plus" unicode="+" horiz-adv-x="498" 
d="M467 266h-198v-198h-40v198h-198v40h198v198h40v-198h198v-40z" />
    <glyph glyph-name="equal" unicode="=" horiz-adv-x="498" 
d="M467 232v-40h-436v40h436zM467 380v-40h-436v40h436z" />
    <glyph glyph-name="less" unicode="&#x3c;" horiz-adv-x="498" 
d="M39 303l420 201v-41l-378 -181l378 -181v-41l-420 201v42z" />
    <glyph glyph-name="greater" unicode="&#x3e;" horiz-adv-x="498" 
d="M459 261l-420 -201v41l378 181l-378 181v41l420 -201v-42z" />
    <glyph glyph-name="guilsinglleft" unicode="&#x2039;" horiz-adv-x="262" 
d="M209 91h-32l-135 152l135 152h32l-79 -152z" />
    <glyph glyph-name="guilsinglright" unicode="&#x203a;" horiz-adv-x="262" 
d="M132 243l-79 152h32l135 -152l-135 -152h-32z" />
    <glyph glyph-name="guillemotleft" unicode="&#xab;" horiz-adv-x="425" 
d="M372 91h-32l-135 152l135 152h32l-79 -152zM209 111h-32l-135 132l135 132h32l-79 -132z" />
    <glyph glyph-name="guillemotright" unicode="&#xbb;" horiz-adv-x="425" 
d="M132 243l-79 152h32l135 -152l-135 -152h-32zM295 243l-79 132h32l135 -132l-135 -132h-32z" />
    <glyph glyph-name="uni2219" unicode="&#x2219;" horiz-adv-x="268" 
d="M134 335q27 0 46 -19t19 -46t-19 -46t-46 -19t-46 19t-19 46t19 46t46 19z" />
    <glyph glyph-name="endash" unicode="&#x2013;" horiz-adv-x="480" 
d="M470 302v-32h-460v32h460z" />
    <glyph glyph-name="emdash" unicode="&#x2014;" horiz-adv-x="980" 
d="M970 302v-32h-960v32h960z" />
    <glyph glyph-name="bullet" unicode="&#x2022;" horiz-adv-x="370" 
d="M185 147q-26 0 -48 10t-39 26.5t-26.5 39t-9.5 47.5t9.5 47.5t26.5 39.5t39 26.5t48 9.5q25 0 47.5 -9.5t39 -26.5t26.5 -39.5t10 -47.5t-10 -47.5t-26.5 -39t-39 -26.5t-47.5 -10z" />
    <glyph glyph-name="tbar" unicode="&#x167;" horiz-adv-x="367" 
d="M345 143q-4 -81 -33.5 -119t-92.5 -38q-66 0 -104 31t-38 101v153h-77v32h77v151h-86v32h86v125q10 -3 23 -3q20 0 39.5 9t34.5 26h4v-157h156v-32h-156v-151h122v-32h-122v-146q0 -56 14.5 -77.5t42.5 -21.5q31 0 53 27t25 90h32z" />
    <glyph glyph-name="Delta" unicode="&#x2206;" horiz-adv-x="685" 
d="M660 0h-643l296 732h32zM70 48h445l-229 532z" />
    <glyph glyph-name="Omega" unicode="&#x2126;" horiz-adv-x="802" 
d="M401 699q-54 0 -92.5 -12.5t-63 -42t-36 -79.5t-11.5 -125q0 -76 9.5 -124t28 -76.5t46 -41.5t63.5 -18v-180h-317v210h31q0 -64 34 -94t102 -30h119v66q-50 11 -94.5 35t-78 60t-53 84.5t-19.5 108.5t25.5 113t70.5 92t105.5 62t130.5 23t130.5 -23t105.5 -62t70.5 -92
t25.5 -113t-19.5 -108.5t-53 -84.5t-78 -60t-94.5 -35v-66h119q68 0 102 30t34 94h31v-210h-317v180q36 5 63.5 18t46 41.5t28 76.5t9.5 124q0 75 -11.5 125t-36 79.5t-63 42t-92.5 12.5z" />
    <glyph glyph-name="zero.dnom" horiz-adv-x="413" 
d="M207 438q35 0 66 -17.5t53.5 -47.5t35.5 -70.5t13 -86.5t-13 -86.5t-36 -70.5t-53.5 -47.5t-65.5 -17.5q-36 0 -66.5 17.5t-53.5 47.5t-36 70.5t-13 86.5t13 86.5t36 70.5t54 47.5t66 17.5zM207 406q-24 0 -40.5 -8t-26.5 -29.5t-14.5 -58.5t-4.5 -94t4.5 -94t14.5 -58.5
t26.5 -29.5t40.5 -8t40 8t26 29.5t14.5 58.5t4.5 94t-4.5 94t-14.5 58.5t-26 29.5t-40 8z" />
    <glyph glyph-name="one.dnom" horiz-adv-x="304" 
d="M129 347q-13 -13 -31 -27.5t-38 -26.5l-18 26q32 19 64.5 49.5t54.5 63.5h43v-400h73v-32h-220v32h72v315z" />
    <glyph glyph-name="two.dnom" horiz-adv-x="365" 
d="M68 76q7 6 17 10q8 4 20 7t28 3q17 0 33 -5t31.5 -10.5t30 -10.5t29.5 -5q20 0 31 16t13 43h32q-3 -68 -31 -98.5t-70 -30.5q-21 0 -38.5 8.5t-34 18t-31.5 18t-30 8.5q-20 0 -33 -13t-18 -41l-32 3q5 33 13 62t22.5 54t36.5 46t55 37q21 10 36 20.5t24.5 24.5t14.5 33
t5 47q0 51 -17 68t-55 17q-17 0 -31.5 -4.5t-25.5 -11.5t-17.5 -15t-6.5 -15q0 -8 7 -11.5t15 -7t15 -9.5t7 -20q0 -20 -12.5 -29.5t-31.5 -9.5q-20 0 -31.5 14.5t-11.5 35.5q0 25 10 46.5t28 36.5t42.5 23.5t53.5 8.5q27 0 53 -8t46.5 -23.5t33 -37.5t12.5 -50
q0 -27 -13 -49t-34 -40.5t-48.5 -34.5t-55.5 -29q-23 -11 -38.5 -24.5t-26 -26.5t-15.5 -23.5t-6 -15.5z" />
    <glyph glyph-name="three.dnom" horiz-adv-x="360" 
d="M109 108q0 -13 -7 -18.5t-15 -8t-15 -5t-7 -9.5q0 -14 24 -27.5t57 -13.5q24 0 42 4.5t29 16t16.5 31.5t5.5 51q0 48 -21.5 70.5t-55.5 22.5q-16 0 -22.5 -1.5t-17.5 -1.5q-19 0 -19 19t19 19q7 0 15 -1.5t25 -1.5q56 0 56 74q0 47 -17 63t-55 16q-15 0 -28.5 -4t-23 -10
t-15.5 -12.5t-6 -11.5q0 -7 6.5 -9t14.5 -4.5t14.5 -8t6.5 -17.5q0 -17 -11.5 -28t-30.5 -11t-30 12t-11 35q0 45 34 72.5t84 27.5q27 0 53 -7t47 -20t33.5 -32.5t12.5 -43.5q0 -41 -28.5 -64t-78.5 -32q59 -8 96.5 -32t37.5 -76q0 -33 -15 -58.5t-39.5 -43t-55.5 -26.5
t-63 -9q-55 0 -92 29t-37 75q0 24 12 36.5t32 12.5q18 0 31 -11t13 -28z" />
    <glyph glyph-name="four.dnom" horiz-adv-x="357" 
d="M347 145v-31h-78v-82h59v-32h-193v32h59v82h-179v31l207 287h47v-287h78zM194 145v201l-145 -201h145z" />
    <glyph glyph-name="five.dnom" horiz-adv-x="352" 
d="M101 366l-11 -114q7 5 17 9q8 3 20.5 6t28.5 3q72 0 116 -39.5t44 -102.5q0 -32 -13.5 -56.5t-36 -42t-53 -26.5t-63.5 -9q-57 0 -90 29t-33 75q0 24 11.5 36.5t31.5 12.5q19 0 31.5 -10t12.5 -27q0 -14 -7 -19.5t-15 -8t-15 -5.5t-7 -10q0 -13 21.5 -27t54.5 -14
q21 0 37 4.5t27 16t16.5 31.5t5.5 51q0 50 -21.5 80t-60.5 30q-25 0 -42 -10.5t-25 -21.5h-31l24 225h157q12 0 22.5 2t16.5 13h31l-9 -81h-193z" />
    <glyph glyph-name="six.dnom" horiz-adv-x="385" 
d="M258 342q0 10 3 16t6.5 10t6.5 8t3 9q0 8 -16 14t-39 6t-41 -7.5t-30.5 -27t-20 -53.5t-8.5 -87q4 4 11 9.5t16.5 10.5t27.5 10t41 5q27 0 52 -8.5t44.5 -25.5t31.5 -41.5t12 -56.5q0 -65 -40.5 -102t-113.5 -37q-77 0 -121.5 50t-44.5 147q0 58 15 104t40.5 77.5t59 48
t69.5 16.5q54 0 86 -24.5t32 -59.5q0 -23 -11 -35t-30 -12q-18 0 -29.5 9.5t-11.5 26.5zM201 231q-23 0 -43 -12t-37 -29v-8q0 -85 22 -120.5t61 -35.5q34 0 52 28.5t18 78.5q0 98 -73 98z" />
    <glyph glyph-name="seven.dnom" horiz-adv-x="334" 
d="M142 360q-45 0 -62 -16t-17 -54h-32v142h286q-41 -67 -64.5 -113.5t-35.5 -88t-15 -83.5t-3 -100q0 -29 -10.5 -41t-32.5 -12t-33 12.5t-11 41.5q0 17 3 40.5t16.5 60t40 88t73.5 123.5h-103z" />
    <glyph glyph-name="eight.dnom" horiz-adv-x="390" 
d="M243 241q21 -11 41 -23.5t35.5 -27.5t25.5 -34t10 -43q0 -54 -43 -86.5t-121 -32.5q-74 0 -115 30t-41 80q0 48 24 74t80 41q-17 10 -32.5 21t-27.5 25t-19.5 30.5t-7.5 36.5q0 53 38 79.5t107 26.5q68 0 105 -27t37 -70q0 -41 -24 -62.5t-72 -37.5zM197 407
q-30 0 -50 -13t-20 -43q0 -15 8.5 -29t22 -26.5t29 -22.5t29.5 -16q19 11 37 32t18 52q0 32 -18.5 49t-55.5 17zM191 26q42 0 65 19.5t23 46.5q0 20 -10.5 36t-27 29t-36.5 23.5t-38 21.5q-12 -7 -23.5 -15t-20.5 -19.5t-14.5 -27t-5.5 -36.5q0 -38 21.5 -58t66.5 -20z" />
    <glyph glyph-name="nine.dnom" horiz-adv-x="385" 
d="M114 46q0 -8 15 -14t38 -6q22 0 39.5 7.5t29.5 27t18.5 53t8.5 86.5q-1 0 -7.5 -5.5t-18.5 -12t-29.5 -11.5t-40.5 -5q-27 0 -52.5 8.5t-45 25.5t-31 41.5t-11.5 56.5q0 65 40.5 102t113.5 37q77 0 121.5 -50t44.5 -147q0 -58 -15 -104t-39.5 -77.5t-57 -48t-68.5 -16.5
q-53 0 -84.5 24.5t-31.5 59.5q0 23 11 35t30 12q18 0 29.5 -9.5t11.5 -26.5q0 -10 -3 -16t-6.5 -10t-6.5 -8t-3 -9zM184 200q23 0 43 12t37 29v8q0 85 -22 120.5t-61 35.5q-34 0 -52 -28.5t-18 -78.5q0 -98 73 -98z" />
    <glyph glyph-name="paragraph" unicode="&#xb6;" horiz-adv-x="556" 
d="M168 44q0 -12 -3.5 -19.5t-8 -14t-8 -13.5t-3.5 -17q0 -13 11 -21.5t33 -8.5q37 0 59.5 29.5t22.5 103.5v257q-104 0 -157 49t-53 141t53 141t157 49h268v-32h-75v-520q0 -68 -19 -115t-54.5 -77t-84.5 -43.5t-109 -13.5q-66 0 -100.5 36t-34.5 89q0 24 13.5 39.5
t39.5 15.5t39.5 -15.5t13.5 -39.5zM262 -48q25 6 49 18.5t42.5 37.5t29.5 64.5t11 100.5v515h-91v-586q0 -44 -5.5 -72.5t-12.5 -45t-14 -23.5z" />
    <glyph glyph-name="section" unicode="&#xa7;" horiz-adv-x="497" 
d="M89 -53q0 28 17 43.5t43 15.5q25 0 40.5 -16.5t15.5 -39.5q0 -17 -7.5 -28.5t-7.5 -23.5q0 -14 12 -22.5t35 -8.5q51 0 78.5 24t27.5 60q0 37 -22 64t-55 49.5t-71.5 44t-71.5 47.5t-55 59.5t-22 80.5q0 60 36.5 99t102.5 59q-38 23 -64.5 56t-26.5 87q0 37 12.5 66.5
t34.5 49.5t52.5 31t66.5 11q68 0 108 -30t40 -82q0 -28 -17 -43.5t-43 -15.5q-25 0 -40.5 16.5t-15.5 39.5q0 17 7.5 28.5t7.5 23.5q0 14 -12 22.5t-35 8.5q-51 0 -78.5 -24t-27.5 -60q0 -31 22 -51.5t55 -37t71.5 -33.5t71.5 -40t55 -56t22 -83q0 -65 -37 -105t-103 -62
q22 -15 42 -32t35 -38t24 -46.5t9 -55.5q0 -39 -14 -69.5t-38.5 -51.5t-58 -32t-73.5 -11q-68 0 -108 30t-40 82zM373 290q0 29 -13 49.5t-33.5 36.5t-47 29t-53.5 27q-57 -9 -82.5 -33.5t-25.5 -59.5q0 -23 13 -41.5t34 -35t48 -32t56 -32.5q16 3 34.5 8.5t34 16t25.5 27
t10 40.5z" />
    <glyph glyph-name="uni0411" unicode="&#x411;" horiz-adv-x="662" 
d="M525 480q0 38 -15 75t-41 66.5t-60.5 48t-73.5 18.5h-84v-288q34 6 69 6q140 0 213 -51t73 -149q0 -106 -74 -156t-226 -50h-281v32h111v656h-111v32h531v-240h-31zM251 32h59q43 0 75 9.5t54 30.5t33 55t11 83q0 80 -40 122t-116 42q-18 0 -37 -2t-39 -4v-336z" />
    <glyph glyph-name="uni0418" unicode="&#x418;" horiz-adv-x="839" 
d="M588 607l-337 -526v-49h111v-32h-337v32h111v656h-111v32h337v-32h-111v-547l337 525v22h-111v32h337v-32h-111v-656h111v-32h-337v32h111v575z" />
    <glyph glyph-name="uni0426" unicode="&#x426;" horiz-adv-x="834" 
d="M820 32v-250h-32q0 27 -8 64.5t-25 71.5t-44.5 58t-67.5 24h-618v32h111v656h-111v32h337v-32h-111v-656h327v656h-111v32h337v-32h-111v-656h127z" />
    <glyph glyph-name="uni040F" unicode="&#x40f;" horiz-adv-x="829" 
d="M25 0v32h111v656h-111v32h337v-32h-111v-656h327v656h-111v32h337v-32h-111v-656h111v-32h-253q-42 0 -66 -23t-36.5 -57t-15.5 -73.5t-3 -72.5h-31q0 33 -3 72.5t-15.5 73.5t-36.5 57t-66 23h-253z" />
    <glyph glyph-name="uni0429" unicode="&#x429;" horiz-adv-x="1160" 
d="M25 32h111v656h-111v32h325v-32h-99v-656h269v656h-99v32h313v-32h-99v-656h269v656h-99v32h325v-32h-111v-656h127v-250h-32q0 27 -8 64.5t-25 71.5t-44.5 58t-67.5 24h-944v32z" />
    <glyph glyph-name="uni0428" unicode="&#x428;" horiz-adv-x="1155" 
d="M25 0v32h111v656h-111v32h325v-32h-99v-656h269v656h-99v32h313v-32h-99v-656h269v656h-99v32h325v-32h-111v-656h111v-32h-1105z" />
    <glyph glyph-name="uni042E" unicode="&#x42e;" horiz-adv-x="1065" 
d="M690 730q66 0 124 -29t101 -79.5t67.5 -118t24.5 -143.5q0 -77 -24.5 -144t-67.5 -117.5t-100.5 -79.5t-123.5 -29q-65 0 -122 28t-100 77t-68 114.5t-27 140.5h-123v-318h111v-32h-337v32h111v656h-111v32h337v-32h-111v-306h123q4 73 30 136.5t68 110.5t98 74t120 27z
M690 698q-50 0 -85.5 -17.5t-58 -57.5t-33 -104.5t-10.5 -158.5t10.5 -158.5t33 -104.5t58 -57.5t86.5 -17.5q50 0 85.5 17.5t58 57.5t33 104.5t10.5 158.5t-10.5 158.5t-33 104.5t-58 57.5t-86.5 17.5z" />
    <glyph glyph-name="uni0427" unicode="&#x427;" horiz-adv-x="767" 
d="M516 688h-107v32h333v-32h-111v-656h111v-32h-337v32h111v291q-32 -16 -71.5 -24.5t-77.5 -8.5q-123 0 -186.5 46.5t-63.5 153.5v198h-111v32h333v-32h-107v-228q0 -66 27.5 -102t102.5 -36q42 0 83 9t71 24v333z" />
    <glyph glyph-name="uni0423" unicode="&#x423;" horiz-adv-x="678" 
d="M90 688h-96v32h301v-32h-84l201 -414l163 414h-84v32h207v-32h-88l-210 -532q-33 -84 -70.5 -127t-91.5 -43q-65 0 -101 35t-36 84q0 34 20 56t49 22q27 0 45 -19t18 -51q0 -14 -7 -23t-15 -17l-15 -15t-7 -16q0 -14 14.5 -19.5t34.5 -5.5q33 0 60.5 26t56.5 88z" />
    <glyph glyph-name="uni040B" unicode="&#x40b;" horiz-adv-x="918" 
d="M264 688q-95 0 -150 -58.5t-55 -159.5h-31v250h653v-240h-31q0 46 -14.5 84t-41 65.5t-64.5 43t-85 15.5h-45v-378q6 15 20.5 34.5t37 36t53.5 28t69 11.5q45 0 83.5 -11t66.5 -34t44 -59t16 -86v-198h111v-32h-329v32h103v220q0 69 -29.5 96.5t-87.5 27.5
q-33 0 -62 -13.5t-50.5 -38.5t-33.5 -60.5t-12 -80.5v-151h103v-32h-329v32h111v656h-21z" />
    <glyph glyph-name="uni042C" unicode="&#x42c;" horiz-adv-x="618" 
d="M251 688v-278q17 3 37 4.5t36 1.5q133 0 202.5 -52.5t69.5 -152.5q0 -109 -72 -160t-220 -51h-279v32h111v656h-111v32h337v-32h-111zM251 32h56q41 0 72 9.5t52 31.5t31.5 57t10.5 85q0 82 -38.5 125.5t-110.5 43.5q-17 0 -36.5 -1.5t-36.5 -4.5v-346z" />
    <glyph glyph-name="uni042A" unicode="&#x42a;" horiz-adv-x="757" 
d="M390 32h56q41 0 72 9.5t52 31.5t31.5 57t10.5 85q0 82 -38.5 125.5t-110.5 43.5q-17 0 -36.5 -1.5t-36.5 -4.5v-346zM501 720v-32h-111v-278q17 3 37 4.5t36 1.5q133 0 202.5 -52.5t69.5 -152.5q0 -109 -72 -160t-220 -51h-279v32h111v656h-11q-95 0 -150 -58.5
t-55 -159.5h-31v250h473z" />
    <glyph glyph-name="uni042B" unicode="&#x42b;" horiz-adv-x="938" 
d="M251 688v-278q17 3 37 4.5t36 1.5q133 0 202.5 -52.5t69.5 -152.5q0 -109 -72 -160t-220 -51h-279v32h111v656h-111v32h337v-32h-111zM251 32h56q41 0 72 9.5t52 31.5t31.5 57t10.5 85q0 82 -38.5 125.5t-110.5 43.5q-17 0 -36.5 -1.5t-36.5 -4.5v-346zM802 32h111v-32
h-337v32h111v656h-111v32h337v-32h-111v-656z" />
    <glyph glyph-name="uni0417" unicode="&#x417;" horiz-adv-x="684" 
d="M358 -10q-34 0 -63.5 6t-54.5 13.5t-45.5 14t-35.5 6.5q-17 0 -25 -6.5t-11 -23.5h-31v260h31q13 -53 35 -96.5t51.5 -75t66 -49t77.5 -17.5q71 0 111.5 43.5t40.5 127.5q0 97 -40.5 141.5t-121.5 44.5q-22 0 -32.5 -2.5t-24.5 -2.5t-25.5 5t-11.5 16q0 12 11.5 16.5
t25.5 4.5t24.5 -2.5t32.5 -2.5q64 0 97 37t33 106q0 70 -33 107t-97 37q-38 0 -71 -17.5t-60 -48.5t-47 -74t-32 -94h-31v256h31q3 -17 11 -23.5t23 -6.5q14 0 32.5 6t41.5 13.5t49.5 14t57.5 6.5q112 0 172 -45.5t60 -126.5q0 -70 -44 -111.5t-133 -50.5
q112 -14 168.5 -61.5t56.5 -141.5q0 -48 -19 -85.5t-54 -64t-85 -40t-112 -13.5z" />
    <glyph glyph-name="uni041B" unicode="&#x41b;" horiz-adv-x="812" 
d="M121 -20q-25 0 -48 8.5t-41 24t-28.5 37.5t-10.5 49q0 36 20 59t49 23q27 0 45 -19t18 -51q0 -16 -6.5 -27t-14 -19.5t-13.5 -15.5t-6 -15q0 -22 40 -22q45 0 86 45.5t71.5 130t49 204.5t18.5 268v28h-111v32h548v-32h-111v-656h111v-32h-337v32h111v656h-179v-28
q0 -163 -20.5 -289.5t-56 -213.5t-83 -132t-101.5 -45z" />
    <glyph glyph-name="uni0409" unicode="&#x409;" horiz-adv-x="1043" 
d="M450 0v32h111v656h-179v-28q0 -163 -20.5 -289.5t-56 -213.5t-83 -132t-101.5 -45q-25 0 -48 8.5t-41 24t-28.5 37.5t-10.5 49q0 36 20 59t49 23q27 0 45 -19t18 -51q0 -16 -6.5 -27t-14 -19.5t-13.5 -15.5t-6 -15q0 -22 40 -22q45 0 86 45.5t71.5 130t49 204.5t18.5 268
v28h-111v32h548v-32h-111v-278q17 3 37 4.5t36 1.5q133 0 202.5 -52.5t69.5 -152.5q0 -109 -72 -160t-220 -51h-279zM676 32h56q41 0 72 9.5t52 31.5t31.5 57t10.5 85q0 82 -38.5 125.5t-110.5 43.5q-17 0 -36.5 -1.5t-36.5 -4.5v-346z" />
    <glyph glyph-name="uni0414" unicode="&#x414;" horiz-adv-x="773" 
d="M141 32q33 47 57.5 107t41.5 138t25.5 176.5t8.5 221.5v13h-111v32h580v-32h-111v-656h127v-250h-32q0 27 -8 64.5t-25 71.5t-44.5 58t-67.5 24h-391q-40 0 -67.5 -24t-45 -58t-25 -71.5t-7.5 -64.5h-32v250h127zM306 688v-13q0 -123 -8.5 -221t-25 -176t-40.5 -138
t-56 -108h341v656h-211z" />
    <glyph glyph-name="uni042F" unicode="&#x42f;" horiz-adv-x="717" 
d="M466 381v307h-60q-72 0 -109 -38.5t-37 -110.5q0 -78 39.5 -118t114.5 -40h52zM72 30q9 0 15.5 4t11 14.5t7 29.5t4.5 48q6 123 65 180.5t179 62.5q-44 4 -82.5 18.5t-67 37.5t-45 53t-16.5 65q0 87 67 132t196 45h286v-32h-111v-656h111v-32h-337v32h111v317h-32
q-60 0 -97 -12t-58.5 -36.5t-31.5 -61.5t-15 -86q-5 -46 -14 -77t-24 -50t-36.5 -27.5t-51.5 -8.5q-38 0 -65.5 13.5t-47.5 45.5l26 18q24 -37 53 -37z" />
    <glyph glyph-name="uni041A" unicode="&#x41a;" horiz-adv-x="756" 
d="M547 678q-7 0 -16 -14t-18.5 -36.5t-19.5 -51t-19 -58.5q-13 -42 -32.5 -79t-54.5 -57q115 -7 175 -67.5t65 -189.5q1 -29 3.5 -47.5t7 -29t11.5 -14.5t16 -4q29 0 53 37l26 -18q-20 -32 -47.5 -45.5t-65.5 -13.5q-30 0 -51.5 8t-36.5 27.5t-24.5 50.5t-13.5 78
q-5 52 -15 91t-31.5 64.5t-58.5 38t-97 12.5h-52v-328h111v-32h-337v32h111v656h-111v32h337v-32h-111v-296h59q51 0 82.5 36.5t48.5 93.5q11 36 23.5 73t29 67t39 49t52.5 19q22 0 38.5 -6.5t27 -17t15.5 -22.5t5 -24q0 -25 -14.5 -44.5t-43.5 -19.5t-44 19t-15 45
q0 6 -1 12t-6 6z" />
    <glyph glyph-name="uni0416" unicode="&#x416;" horiz-adv-x="1093" 
d="M453 360q-60 0 -97 -12.5t-59 -38t-31.5 -64.5t-14.5 -91q-5 -47 -14 -78t-24 -50.5t-36.5 -27.5t-51.5 -8q-38 0 -65.5 13.5t-47.5 45.5l26 18q24 -37 53 -37q9 0 16 4t11.5 14.5t7 29t3.5 47.5q5 129 64.5 189.5t175.5 67.5q-35 20 -54.5 57t-32.5 79q-9 30 -19 58.5
t-20 51t-18.5 36.5t-15.5 14q-5 0 -6 -6t-1 -12q0 -26 -15 -45t-44 -19t-43.5 19.5t-14.5 44.5q0 12 5 24t15.5 22.5t26.5 17t39 6.5q30 0 52.5 -19t39 -49t29 -67t23.5 -73q17 -57 48.5 -93.5t82.5 -36.5h43v296h-111v32h337v-32h-111v-296h43q51 0 82.5 36.5t48.5 93.5
q11 36 23.5 73t29 67t39 49t52.5 19q22 0 38.5 -6.5t27 -17t15.5 -22.5t5 -24q0 -25 -14.5 -44.5t-43.5 -19.5t-44 19t-15 45q0 6 -1 12t-6 6q-7 0 -16 -14t-18.5 -36.5t-19.5 -51t-19 -58.5q-13 -42 -32.5 -79t-54.5 -57q115 -7 175 -67.5t65 -189.5q1 -29 3.5 -47.5t7 -29
t11.5 -14.5t16 -4q29 0 53 37l26 -18q-20 -32 -47.5 -45.5t-65.5 -13.5q-30 0 -51.5 8t-36.5 27.5t-24.5 50.5t-13.5 78q-5 52 -15 91t-31.5 64.5t-58.5 38t-97 12.5h-36v-328h111v-32h-337v32h111v328h-36z" />
    <glyph glyph-name="uni043D" unicode="&#x43d;" horiz-adv-x="643" 
d="M615 486v-32h-77v-422h77v-32h-255v32h77v199h-231v-199h77v-32h-255v32h77v422h-77v32h255v-32h-77v-191h231v191h-77v32h255z" />
    <glyph glyph-name="uni043F" unicode="&#x43f;" horiz-adv-x="637" 
d="M431 454h-225v-422h77v-32h-255v32h77v422h-77v32h581v-32h-77v-422h77v-32h-255v32h77v422z" />
    <glyph glyph-name="uni0438" unicode="&#x438;" horiz-adv-x="643" 
d="M437 383l-231 -323v-28h77v-32h-255v32h77v422h-77v32h255v-32h-77v-338l231 322v16h-77v32h255v-32h-77v-422h77v-32h-255v32h77v351z" />
    <glyph glyph-name="uni043A" unicode="&#x43a;" horiz-adv-x="577" 
d="M515 27q8 0 16 8t14 17l26 -18q-14 -22 -33 -33t-48 -11q-23 0 -40.5 4.5t-30 17t-20.5 35t-14 59.5q-6 40 -12.5 65.5t-19.5 40t-36.5 20t-63.5 5.5h-47v-205h77v-32h-255v32h77v422h-77v32h255v-32h-77v-185h26q36 0 59 17t38 42t26 54.5t24.5 54.5t32 42t49.5 17
q41 0 60 -21.5t19 -43.5q0 -23 -13 -41t-40 -18q-25 0 -38.5 18t-13.5 43q0 6 -0.5 11t-5.5 5q-7 0 -14 -10.5t-14 -27.5t-15.5 -37.5t-19 -41t-24 -38.5t-31.5 -29q52 -1 84.5 -12t52 -32.5t28.5 -55.5t15 -81q4 -31 8.5 -44t15.5 -13z" />
    <glyph glyph-name="uni0436" unicode="&#x436;" horiz-adv-x="827" 
d="M363 454h-77v32h255v-32h-77v-185h18q36 0 59 17t38 42t26 54.5t24.5 54.5t32 42t49.5 17q41 0 60 -21.5t19 -43.5q0 -23 -13 -41t-40 -18q-25 0 -38.5 18t-13.5 43q0 6 -0.5 11t-5.5 5q-7 0 -14 -10.5t-14 -27.5t-15.5 -37.5t-19 -41t-24 -38.5t-31.5 -29
q52 -1 84.5 -12t52 -32.5t28.5 -55.5t15 -81q4 -31 8.5 -44t15.5 -13q8 0 16 8t14 17l26 -18q-14 -22 -33 -33t-48 -11q-23 0 -40.5 4.5t-30 17t-20.5 35t-14 59.5q-6 40 -12.5 65.5t-19.5 40t-36.5 20t-63.5 5.5h-39v-205h77v-32h-255v32h77v205h-39q-40 0 -63.5 -5.5
t-36.5 -20t-19.5 -40t-12.5 -65.5q-6 -37 -14 -59.5t-20.5 -35t-30 -17t-40.5 -4.5q-29 0 -48 11t-33 33l26 18q6 -9 14 -17t16 -8q11 0 15.5 13t8.5 44q6 47 15 81t28.5 55.5t52 32.5t84.5 12q-18 11 -31.5 29t-24 38.5t-19 41t-15.5 37.5t-14 27.5t-14 10.5q-5 0 -5.5 -5
t-0.5 -11q0 -25 -13.5 -43t-38.5 -18q-27 0 -40 18t-13 41q0 22 19 43.5t60 21.5q31 0 49.5 -17t32 -42t24.5 -54.5t26 -54.5t37.5 -42t59.5 -17h18v185z" />
    <glyph glyph-name="uni0404" unicode="&#x404;" horiz-adv-x="700" 
d="M558 391q-9 -11 -23 -24t-31 -24.5t-37.5 -19.5t-43.5 -8q-25 0 -46.5 8.5t-42 18t-41 18t-42.5 8.5q-14 0 -24 -3.5t-17 -8.5q-8 -5 -14 -11q1 -87 13.5 -148.5t37 -100t62.5 -56.5t91 -18q40 0 75 17.5t63 49t48.5 75t31.5 96.5h32v-260h-31q-3 17 -11 23.5t-25 6.5
q-15 0 -34.5 -6.5t-43.5 -14t-50.5 -13.5t-54.5 -6q-70 0 -130.5 30t-105.5 81.5t-71 121t-26 147.5q0 75 26 140.5t71 114.5t105.5 77t129.5 28q26 0 51.5 -6.5t48 -14t41.5 -13.5t33 -6q17 0 25 6.5t11 23.5h31v-260h-31q-11 52 -30.5 96t-46 75.5t-60.5 49t-73 17.5
q-52 0 -90 -16t-63 -53t-37.5 -99t-12.5 -153q2 3 9.5 10.5t21 16t32 15t42.5 6.5q27 0 47 -7t37 -15.5t34.5 -15.5t39.5 -7q17 0 37.5 9t43.5 28z" />
    <glyph glyph-name="uni042D" unicode="&#x42d;" horiz-adv-x="709" 
d="M163 410q23 -19 44 -24.5t38 -5.5q22 0 40 7t35.5 15.5t37.5 15.5t48 7q24 0 42.5 -5t32 -12t22 -13.5t10.5 -9.5q-2 84 -15 143.5t-38.5 97t-65 55t-93.5 17.5q-39 0 -73 -17.5t-60.5 -49t-46 -75.5t-30.5 -96h-31v260h31q3 -17 11 -23.5t25 -6.5q14 0 33 6t41.5 13.5
t48 14t51.5 6.5q71 0 133.5 -30t108.5 -81.5t72.5 -121t26.5 -147.5q0 -75 -26.5 -140.5t-72.5 -114.5t-108 -77t-133 -28q-29 0 -56 6t-51 13.5t-43.5 14t-34.5 6.5q-17 0 -25 -6.5t-11 -23.5h-31v260h32q11 -53 31.5 -96.5t48.5 -75t63.5 -49t76.5 -17.5q54 0 94 16t66 54
t38.5 101t12.5 156q-6 5 -14 9q-7 4 -17.5 7t-24.5 3q-23 0 -43.5 -8.5t-41.5 -18t-43 -18t-47 -8.5q-23 0 -44 7t-38.5 17t-31.5 22t-23 23z" />
    <glyph glyph-name="uni0402" unicode="&#x402;" horiz-adv-x="909" 
d="M475 -122q0 33 21 56.5t56 23.5q28 0 47 -17t19 -47q0 -19 -10 -28.5t-22.5 -16t-22.5 -12.5t-10 -17q0 -10 13 -15.5t36 -5.5q27 0 49.5 15.5t38 51.5t24 95.5t8.5 147.5q0 60 -11 110.5t-32 87t-52 56.5t-71 20q-43 0 -84.5 -15t-71.5 -46v-290h103v-32h-329v32h111
v656h-21q-95 0 -150 -58.5t-55 -159.5h-31v250h653v-240h-31q0 46 -14.5 84t-41 65.5t-64.5 43t-85 15.5h-45v-323q29 23 71 36.5t85 13.5q65 0 118.5 -22.5t91.5 -62.5t58.5 -96.5t20.5 -123.5q0 -84 -23.5 -148t-58.5 -107t-77 -64.5t-79 -21.5q-36 0 -61.5 10t-41 26
t-22.5 35.5t-7 37.5z" />
    <glyph glyph-name="uni045B" unicode="&#x45b;" horiz-adv-x="646" 
d="M209 604v-234q13 60 55.5 95t98.5 35q39 0 72 -11t57.5 -34t38 -59t13.5 -86v-278h77v-32h-249v32h71v300q0 69 -25 96.5t-75 27.5q-24 0 -48 -14t-43 -42t-31 -69.5t-12 -95.5v-203h71v-32h-249v32h77v572h-78v32h78v77h-77v32h178v-109h107v-32h-107z" />
    <glyph glyph-name="uni0452" unicode="&#x452;" horiz-adv-x="601" 
d="M325 -155q0 -11 9.5 -18.5t28.5 -7.5q20 0 36 17t26.5 57t16 106.5t5.5 164.5q0 67 -6 122.5t-20 96t-37.5 63t-59.5 22.5q-22 0 -41.5 -7t-35 -17t-25.5 -19.5t-13 -13.5v-379h71v-32h-249v32h77v572h-78v32h78v77h-77v32h178v-109h107v-32h-107v-151q20 20 51 33.5
t69 13.5q57 0 100.5 -24.5t73 -69t44.5 -106t15 -136.5q0 -93 -18 -163.5t-47 -117.5t-64.5 -71t-69.5 -24q-45 0 -73.5 28t-28.5 73q0 29 15 48.5t41 19.5q22 0 36 -15t14 -36q0 -13 -6.5 -20.5t-14.5 -13.5t-14.5 -12t-6.5 -15z" />
    <glyph glyph-name="uni040A" unicode="&#x40a;" horiz-adv-x="1001" 
d="M646 416h70q128 0 195.5 -52.5t67.5 -152.5q0 -109 -69.5 -160t-212.5 -51h-269v32h103v352h-280v-352h103v-32h-329v32h111v656h-111v32h329v-32h-103v-272h280v272h-103v32h329v-32h-111v-272zM646 32h53q39 0 68.5 9.5t49 31.5t29.5 57t10 85q0 82 -36 125.5
t-105 43.5h-69v-352z" />
    <glyph glyph-name="uni0490" unicode="&#x490;" horiz-adv-x="557" 
d="M251 688v-656h111v-32h-337v32h111v656h-111v32h305q42 0 78 18.5t62.5 49t41.5 68.5t15 77h31v-245h-307z" />
    <glyph glyph-name="uni0433" unicode="&#x433;" horiz-adv-x="470" 
d="M416 291q0 32 -11.5 61.5t-31 52t-45.5 36t-55 13.5h-67v-422h77v-32h-255v32h77v422h-77v32h420v-195h-32z" />
    <glyph glyph-name="uni0491" unicode="&#x491;" horiz-adv-x="429" 
d="M206 454v-422h77v-32h-255v32h77v422h-77v32h222q31 0 57 13.5t45 35t29.5 48.5t10.5 54h32v-183h-218z" />
    <glyph glyph-name="uni043C" unicode="&#x43c;" horiz-adv-x="717" 
d="M322 -8l-185 461v-421h77v-32h-186v32h77v422h-77v32h205l130 -335l125 335h201v-32h-77v-422h77v-32h-255v32h77v425l-173 -465h-16z" />
    <glyph glyph-name="uni0442" unicode="&#x442;" horiz-adv-x="519" 
d="M188 454q-27 0 -51.5 -13.5t-42.5 -35t-29 -49.5t-11 -57h-32v187h475v-187h-32q0 29 -11 57t-29 49.5t-42.5 35t-51.5 13.5h-21v-422h77v-32h-255v32h77v422h-21z" />
    <glyph glyph-name="uni0446" unicode="&#x446;" horiz-adv-x="649" 
d="M599 -189q0 24 -6.5 56.5t-21.5 62t-39 50t-58 20.5h-446v32h77v422h-77v32h255v-32h-77v-422h225v422h-77v32h255v-32h-77v-422h99v-221h-32z" />
    <glyph glyph-name="uni0449" unicode="&#x449;" horiz-adv-x="941" 
d="M28 32h77v422h-77v32h247v-32h-69v-422h209v422h-69v32h237v-32h-69v-422h209v422h-69v32h247v-32h-77v-422h99v-221h-32q0 24 -6.5 56.5t-21.5 62t-39 50t-58 20.5h-738v32z" />
    <glyph glyph-name="uni0448" unicode="&#x448;" horiz-adv-x="929" 
d="M28 0v32h77v422h-77v32h247v-32h-69v-422h209v422h-69v32h237v-32h-69v-422h209v422h-69v32h247v-32h-77v-422h77v-32h-873z" />
    <glyph glyph-name="uni0447" unicode="&#x447;" horiz-adv-x="590" 
d="M183 321q0 -47 20 -72t73 -25q28 0 55.5 6t52.5 19v205h-69v32h247v-32h-77v-422h77v-32h-255v32h77v184q-20 -9 -49 -16.5t-63 -7.5q-94 0 -142 31t-48 104v127h-77v32h247v-32h-69v-133z" />
    <glyph glyph-name="uni043B" unicode="&#x43b;" horiz-adv-x="589" 
d="M56 26q0 -5 7.5 -8t18.5 -3q24 0 47.5 24.5t42 75.5t30.5 130.5t12 189.5v19h-77v32h424v-32h-77v-422h77v-32h-255v32h77v422h-137v-19q0 -109 -12 -193t-34 -141.5t-52 -87t-66 -29.5q-26 0 -45 8.5t-31.5 22t-18.5 30t-6 32.5q0 27 17.5 44.5t44.5 17.5
q23 0 38.5 -14.5t15.5 -36.5q0 -15 -6.5 -25t-14 -17t-14 -11.5t-6.5 -8.5z" />
    <glyph glyph-name="uni0459" unicode="&#x459;" horiz-adv-x="783" 
d="M556 286q46 0 85 -8t67.5 -26t44.5 -46.5t16 -68.5q0 -77 -58.5 -107t-173.5 -30h-231v32h77v422h-137v-19q0 -109 -12 -193t-34 -141.5t-52 -87t-66 -29.5q-26 0 -45 8.5t-31.5 22t-18.5 30t-6 32.5q0 27 17.5 44.5t44.5 17.5q23 0 38.5 -14.5t15.5 -36.5
q0 -15 -6.5 -25t-14 -17t-14 -11.5t-6.5 -8.5q0 -5 7.5 -8t18.5 -3q24 0 47.5 24.5t42 75.5t30.5 130.5t12 189.5v19h-77v32h424v-32h-77v-176q9 2 30 5t42 3zM551 254q-17 0 -35 -2t-32 -5v-215h56q56 0 85 27t29 79q0 61 -27.5 88.5t-75.5 27.5z" />
    <glyph glyph-name="uni045F" unicode="&#x45f;" horiz-adv-x="637" 
d="M437 0q-37 0 -57.5 -20t-30.5 -49.5t-12.5 -64t-2.5 -63.5h-32q0 29 -2.5 63.5t-12.5 64t-30.5 49.5t-56.5 20h-172v32h77v422h-77v32h255v-32h-77v-422h225v422h-77v32h255v-32h-77v-422h77v-32h-172z" />
    <glyph glyph-name="uni0434" unicode="&#x434;" horiz-adv-x="614" 
d="M227 454v-8q0 -90 -4.5 -154.5t-14 -112.5t-23.5 -83t-33 -64h244v422h-169zM18 -189v221h99q21 30 35.5 64.5t24 82t14 112.5t4.5 155v8h-61v32h440v-32h-77v-422h99v-221h-32q0 24 -6.5 56.5t-21.5 62t-39 50t-58 20.5h-264q-35 0 -58.5 -20.5t-38.5 -50t-21.5 -62
t-6.5 -56.5h-32z" />
    <glyph glyph-name="uni044E" unicode="&#x44e;" horiz-adv-x="802" 
d="M529 496q44 0 85 -18.5t73 -51.5t51.5 -79.5t19.5 -103.5t-19.5 -103.5t-51.5 -79.5t-73.5 -51.5t-84.5 -18.5q-42 0 -82.5 17.5t-72 49t-52 76t-22.5 98.5h-94v-199h77v-32h-255v32h77v422h-77v32h255v-32h-77v-191h95q3 52 23.5 95t52 74t71 47.5t81.5 16.5zM529 464
q-30 0 -51.5 -11t-35.5 -37t-20.5 -68t-6.5 -105t6.5 -105.5t20.5 -68t35.5 -36.5t51.5 -11q29 0 50.5 11t35.5 36.5t21 68t7 105.5t-7 105t-21 68t-35.5 37t-50.5 11z" />
    <glyph glyph-name="uni044C" unicode="&#x44c;" horiz-adv-x="505" 
d="M206 278q9 2 30 5t42 3q46 0 85 -8t67.5 -26t44.5 -46.5t16 -68.5q0 -77 -58.5 -107t-173.5 -30h-231v32h77v422h-77v32h255v-32h-77v-176zM206 32h56q56 0 85 27t29 79q0 61 -27.5 88.5t-75.5 27.5q-17 0 -35 -2t-32 -5v-215z" />
    <glyph glyph-name="uni045A" unicode="&#x45a;" horiz-adv-x="813" 
d="M514 286h72q46 0 85 -8t67.5 -26t44.5 -46.5t16 -68.5q0 -77 -58.5 -107t-173.5 -30h-223v32h69v222h-207v-222h69v-32h-247v32h77v422h-77v32h247v-32h-69v-168h207v168h-69v32h247v-32h-77v-168zM514 32h56q56 0 85 27t29 79q0 61 -27.5 88.5t-75.5 27.5h-67v-222z" />
    <glyph glyph-name="uni044B" unicode="&#x44b;" horiz-adv-x="773" 
d="M206 278q9 2 30 5t42 3q46 0 85 -8t67.5 -26t44.5 -46.5t16 -68.5q0 -77 -58.5 -107t-173.5 -30h-231v32h77v422h-77v32h255v-32h-77v-176zM567 454h-77v32h255v-32h-77v-422h77v-32h-255v32h77v422zM206 32h56q56 0 85 27t29 79q0 61 -27.5 88.5t-75.5 27.5
q-17 0 -35 -2t-32 -5v-215z" />
    <glyph glyph-name="uni044A" unicode="&#x44a;" horiz-adv-x="609" 
d="M382 286q46 0 85 -8t67.5 -26t44.5 -46.5t16 -68.5q0 -77 -58.5 -107t-173.5 -30h-231v32h77v422h-27q-26 0 -49 -12.5t-40.5 -33.5t-28 -47.5t-10.5 -53.5h-32v179h365v-32h-77v-176q9 2 30 5t42 3zM377 254q-17 0 -35 -2t-32 -5v-215h56q56 0 85 27t29 79
q0 61 -27.5 88.5t-75.5 27.5z" />
    <glyph glyph-name="uni0432" unicode="&#x432;" horiz-adv-x="549" 
d="M278 282q45 0 68 22t23 64q0 86 -91 86h-72v-172h72zM273 32q55 0 84 26.5t29 77.5q0 60 -27.5 87t-80.5 27h-72v-218h67zM28 0v32h77v422h-77v32h247q97 0 145.5 -26.5t48.5 -86.5q0 -45 -33 -74t-101 -32q87 -5 126.5 -39.5t39.5 -97.5q0 -71 -58 -100.5t-173 -29.5
h-242z" />
    <glyph glyph-name="uni0437" unicode="&#x437;" horiz-adv-x="516" 
d="M46 114q0 23 15 39.5t45 16.5q28 0 44.5 -16.5t16.5 -39.5q0 -14 -4.5 -22.5t-10 -13.5t-10 -9t-4.5 -10q0 -9 9.5 -16t24.5 -11.5t32.5 -7t33.5 -2.5q64 0 89.5 29.5t25.5 78.5q0 63 -28.5 92t-80.5 29q-13 0 -28 -2t-23 -2q-14 0 -25.5 5t-11.5 15q0 11 11.5 15.5
t25.5 4.5q8 0 23 -2t28 -2q47 0 71.5 24t24.5 67q0 45 -23 67.5t-67 22.5q-24 0 -46 -11.5t-40 -31.5t-32 -47t-21 -59h-32v171h31q4 -20 21 -20q8 0 20.5 4.5t28 10.5t35 10.5t41.5 4.5q184 0 184 -118q0 -53 -36 -79.5t-105 -30.5q85 -7 127 -38t42 -100t-54 -104.5
t-170 -35.5q-50 0 -87 11t-62 29t-37 40t-12 44z" />
    <glyph glyph-name="uni0444" unicode="&#x444;" horiz-adv-x="750" 
d="M326 464q-43 0 -74.5 -9.5t-52 -34.5t-30.5 -68t-10 -109t10 -109t30.5 -67.5t52 -34.5t74.5 -10v442zM424 -191h77v-32h-252v32h77v181q-54 0 -105 15.5t-90.5 47t-63 79t-23.5 111.5t24 111.5t63 79t90 47t105 15.5v217h-77v32h175v-249q54 0 105 -15.5t90.5 -47
t63 -79t23.5 -111.5t-24 -111.5t-63 -79t-90 -47t-105 -15.5v-181zM424 22q43 0 74.5 9.5t52 34.5t30.5 68t10 109t-10 109t-30.5 67.5t-52 34.5t-74.5 10v-442z" />
    <glyph glyph-name="uni044F" unicode="&#x44f;" horiz-adv-x="555" 
d="M349 262v192h-47q-52 0 -79.5 -24.5t-27.5 -69.5q0 -48 29 -73t82 -25h43zM75 82q7 87 45 126.5t113 41.5q-67 9 -106 38t-39 74q0 62 48 93t141 31h250v-32h-77v-422h77v-32h-255v32h77v198h-36q-39 0 -62.5 -7.5t-37.5 -23.5t-20.5 -39.5t-10.5 -56.5q-4 -32 -10.5 -54
t-18 -35t-29 -18.5t-43.5 -5.5q-55 0 -82 44l26 18q6 -9 14 -17t16 -8q11 0 14.5 11.5t5.5 43.5z" />
    <glyph glyph-name="uni044D" unicode="&#x44d;" horiz-adv-x="536" 
d="M167 295q5 -5 12 -9q6 -3 15 -5.5t22 -2.5q16 0 29.5 4t25.5 9t22.5 9t20.5 4q12 0 23 -3.5t19.5 -8.5t14 -9.5t6.5 -6.5q-2 61 -11.5 98t-27 57t-41 26.5t-51.5 6.5t-50.5 -11.5t-39.5 -31t-29 -46t-19 -56.5h-32v167h31q4 -20 21 -20q7 0 19 4.5t27 10.5t33.5 10.5
t38.5 4.5q51 0 96 -18.5t78 -52t52.5 -81.5t19.5 -108q0 -56 -19 -101.5t-52 -77.5t-77.5 -49.5t-95.5 -17.5q-50 0 -87 11t-62 29t-37 40t-12 44q0 23 15 39.5t45 16.5q28 0 44.5 -16.5t16.5 -39.5q0 -14 -4.5 -22.5t-10 -13.5t-10 -9t-4.5 -10q0 -9 9.5 -16t25 -11.5
t34.5 -7t37 -2.5q32 0 56.5 9.5t40.5 33.5t24 64t8 100v15q-4 1 -8 3q-4 1 -9 2t-12 1q-29 0 -57 -11t-57 -11q-32 0 -54.5 14t-33.5 30z" />
    <glyph glyph-name="uni0454" unicode="&#x454;" horiz-adv-x="483" 
d="M372 434q0 6 -7.5 11.5t-20 9.5t-28.5 6.5t-33 2.5q-31 0 -54.5 -9.5t-39 -34t-23 -66.5t-7.5 -107q2 4 20 16t44 12q10 0 19 -3l19.5 -6.5t23.5 -6.5t30 -3q18 0 30 7q6 4 11 8l21 -22q-6 -8 -15 -16.5t-20 -15.5t-23.5 -12t-24.5 -5q-13 0 -27 4t-27.5 8.5t-26.5 8.5
t-25 4q-7 0 -12 -1.5t-9 -3.5l-8 -4q0 -56 9.5 -92.5t25.5 -58.5t38 -30.5t49 -8.5q28 0 50.5 9.5t40 26t29 38.5t16.5 47h33q-5 -33 -18.5 -62t-35.5 -50t-51.5 -33t-66.5 -12q-46 0 -88.5 17t-74.5 49.5t-51.5 79.5t-19.5 108q0 59 20 106t53 79.5t76 49.5t90 17
q39 0 70 -9.5t52.5 -25.5t33 -37.5t11.5 -46.5q0 -29 -17.5 -49t-46.5 -20q-23 0 -39.5 15t-16.5 39q0 14 6.5 24.5t14.5 18.5t14.5 15t6.5 14z" />
    <glyph glyph-name="uni0431" unicode="&#x431;" horiz-adv-x="592" 
d="M296 22q32 0 56 11t39.5 36.5t23 68t7.5 105.5t-7.5 105t-23 68t-39.5 37t-56 11q-33 0 -56.5 -11t-39 -37t-23 -68t-7.5 -105t7.5 -105.5t23 -68t39 -36.5t56.5 -11zM95 390q29 45 82 75.5t119 30.5q48 0 93.5 -18.5t81 -51.5t56.5 -79.5t21 -103.5t-21.5 -103.5
t-56.5 -79.5t-80.5 -51.5t-93.5 -18.5t-93.5 17t-80.5 51.5t-56.5 85.5t-21.5 119q0 96 20 174.5t61.5 136.5t105 93t149.5 43q37 4 60 8t36.5 9t19.5 12t9 16h31q0 -38 -9.5 -66t-31.5 -47t-56.5 -29t-84.5 -12q-81 -4 -131.5 -22.5t-79 -47t-38.5 -63.5t-10 -71v-7z" />
    <glyph glyph-name="uni0403" unicode="&#x403;" horiz-adv-x="649" 
d="M25 0v32h111v656h-111v32h569v-270h-32q0 52 -17.5 96t-47.5 75.5t-71 49t-89 17.5h-86v-656h111v-32h-337zM421 905q22 0 33 -12t11 -32t-14.5 -33t-40.5 -21l-152 -45l-11 25l120 92q17 14 28 20t26 6z" />
    <glyph glyph-name="uni0453" unicode="&#x453;" horiz-adv-x="470" 
d="M416 291q0 32 -11.5 61.5t-31 52t-45.5 36t-55 13.5h-67v-422h77v-32h-255v32h77v422h-77v32h420v-195h-32zM311 729q21 0 32.5 -12t11.5 -30q0 -34 -41 -55l-138 -71l-15 20l99 117q13 15 23.5 23t27.5 8z" />
    <glyph glyph-name="uni045C" unicode="&#x45c;" horiz-adv-x="577" 
d="M515 27q8 0 16 8t14 17l26 -18q-14 -22 -33 -33t-48 -11q-23 0 -40.5 4.5t-30 17t-20.5 35t-14 59.5q-6 40 -12.5 65.5t-19.5 40t-36.5 20t-63.5 5.5h-47v-205h77v-32h-255v32h77v422h-77v32h255v-32h-77v-185h26q36 0 59 17t38 42t26 54.5t24.5 54.5t32 42t49.5 17
q41 0 60 -21.5t19 -43.5q0 -23 -13 -41t-40 -18q-25 0 -38.5 18t-13.5 43q0 6 -0.5 11t-5.5 5q-7 0 -14 -10.5t-14 -27.5t-15.5 -37.5t-19 -41t-24 -38.5t-31.5 -29q52 -1 84.5 -12t52 -32.5t28.5 -55.5t15 -81q4 -31 8.5 -44t15.5 -13zM393 729q21 0 32.5 -12t11.5 -30
q0 -34 -41 -55l-138 -71l-15 20l99 117q13 15 23.5 23t27.5 8z" />
    <glyph glyph-name="uni040C" unicode="&#x40c;" horiz-adv-x="756" 
d="M470 905q22 0 33 -12t11 -32t-14.5 -33t-40.5 -21l-152 -45l-11 25l120 92q17 14 28 20t26 6zM547 678q-7 0 -16 -14t-18.5 -36.5t-19.5 -51t-19 -58.5q-13 -42 -32.5 -79t-54.5 -57q115 -7 175 -67.5t65 -189.5q1 -29 3.5 -47.5t7 -29t11.5 -14.5t16 -4q29 0 53 37
l26 -18q-20 -32 -47.5 -45.5t-65.5 -13.5q-30 0 -51.5 8t-36.5 27.5t-24.5 50.5t-13.5 78q-5 52 -15 91t-31.5 64.5t-58.5 38t-97 12.5h-52v-328h111v-32h-337v32h111v656h-111v32h337v-32h-111v-296h59q51 0 82.5 36.5t48.5 93.5q11 36 23.5 73t29 67t39 49t52.5 19
q22 0 38.5 -6.5t27 -17t15.5 -22.5t5 -24q0 -25 -14.5 -44.5t-43.5 -19.5t-44 19t-15 45q0 6 -1 12t-6 6z" />
    <glyph glyph-name="uni0401" unicode="&#x401;" horiz-adv-x="668" 
d="M25 0v32h111v656h-111v32h559v-240h-31q0 46 -14.5 84.5t-41 66t-64.5 42.5t-85 15h-97v-297h43q33 0 57.5 11.5t40 31t23.5 46t8 57.5h31v-324h-31q0 31 -8 58t-23.5 46.5t-40 30.5t-57.5 11h-43v-327h131q53 0 94 17.5t69 49t42.5 75.5t14.5 96h32v-270h-609zM430 891
q22 0 38.5 -16t16.5 -39t-16.5 -39t-38.5 -16q-23 0 -38.5 16t-15.5 39t15.5 39t38.5 16zM224 891q23 0 38.5 -16t15.5 -39t-15.5 -39t-38.5 -16q-22 0 -38.5 16t-16.5 39t16.5 39t38.5 16z" />
    <glyph glyph-name="uni0451" unicode="&#x451;" horiz-adv-x="521" 
d="M159 244q0 -62 7.5 -104t23.5 -67.5t40 -36t57 -10.5q29 0 53 9.5t42.5 26t30.5 38.5t18 47h33q-6 -33 -20.5 -62t-38.5 -50t-56.5 -33t-74.5 -12q-44 0 -85.5 17.5t-73.5 50t-51.5 79.5t-19.5 107q0 59 18.5 106t48.5 79.5t68.5 49.5t79.5 17t80 -15.5t69.5 -45.5
t49 -74.5t18.5 -102.5h-317v-14zM361 290q0 50 -6 83.5t-18.5 53.5t-32 28.5t-45.5 8.5q-24 0 -41.5 -9t-30 -29t-19.5 -53.5t-8 -82.5h201zM360 698q21 0 37 -15t16 -38t-16 -38t-37 -15q-23 0 -38 15t-15 38t15 38t38 15zM160 698q23 0 38 -15t15 -38t-15 -38t-38 -15
q-21 0 -37 15t-16 38t16 38t37 15z" />
    <glyph glyph-name="uni0407" unicode="&#x407;" horiz-adv-x="393" 
d="M254 32h111v-32h-337v32h111v656h-111v32h337v-32h-111v-656zM300 891q22 0 38.5 -16t16.5 -39t-16.5 -39t-38.5 -16q-23 0 -38.5 16t-15.5 39t15.5 39t38.5 16zM94 891q23 0 38.5 -16t15.5 -39t-15.5 -39t-38.5 -16q-22 0 -38.5 16t-16.5 39t16.5 39t38.5 16z" />
    <glyph glyph-name="uni0457" unicode="&#x457;" horiz-adv-x="317" 
d="M209 32h77v-32h-255v32h77v422h-77v32h178v-454zM254 698q21 0 37 -15t16 -38t-16 -38t-37 -15q-23 0 -38 15t-15 38t15 38t38 15zM54 698q23 0 38 -15t15 -38t-15 -38t-38 -15q-21 0 -37 15t-16 38t16 38t37 15z" />
    <glyph glyph-name="uni0419" unicode="&#x419;" horiz-adv-x="839" 
d="M490 880q0 22 13.5 36t34.5 14q25 0 42.5 -16.5t17.5 -48.5q0 -48 -44.5 -76.5t-131.5 -28.5t-131.5 28.5t-44.5 76.5q0 32 17.5 48.5t42.5 16.5q21 0 34.5 -14t13.5 -36q0 -17 -8 -25t-18 -12t-18 -7t-8 -11q0 -9 29.5 -22t90.5 -13t90.5 13t29.5 22t-8 12t-18 7
t-18 11.5t-8 24.5zM588 607l-337 -526v-49h111v-32h-337v32h111v656h-111v32h337v-32h-111v-547l337 525v22h-111v32h337v-32h-111v-656h111v-32h-337v32h111v575z" />
    <glyph glyph-name="uni0439" unicode="&#x439;" horiz-adv-x="643" 
d="M437 383l-231 -323v-28h77v-32h-255v32h77v422h-77v32h255v-32h-77v-338l231 322v16h-77v32h255v-32h-77v-422h77v-32h-255v32h77v351zM322 597q58 0 86.5 13t28.5 22q0 7 -8 10.5t-17 7t-17 11t-8 24.5q0 21 13 34.5t33 13.5q24 0 41 -16t17 -47q0 -48 -41.5 -75.5
t-127.5 -27.5t-127.5 27.5t-41.5 75.5q0 31 17 47t41 16q20 0 33 -13.5t13 -34.5q0 -17 -8 -24.5t-17 -11t-17 -7t-8 -10.5q0 -9 28.5 -22t86.5 -13z" />
    <glyph glyph-name="uni040E" unicode="&#x40e;" horiz-adv-x="678" 
d="M90 688h-96v32h301v-32h-84l201 -414l163 414h-84v32h207v-32h-88l-210 -532q-33 -84 -70.5 -127t-91.5 -43q-65 0 -101 35t-36 84q0 34 20 56t49 22q27 0 45 -19t18 -51q0 -14 -7 -23t-15 -17l-15 -15t-7 -16q0 -14 14.5 -19.5t34.5 -5.5q33 0 60.5 26t56.5 88zM450 880
q0 22 13.5 36t34.5 14q25 0 42.5 -16.5t17.5 -48.5q0 -48 -44.5 -76.5t-131.5 -28.5t-131.5 28.5t-44.5 76.5q0 32 17.5 48.5t42.5 16.5q21 0 34.5 -14t13.5 -36q0 -17 -8 -25t-18 -12t-18 -7t-8 -11q0 -9 29.5 -22t90.5 -13t90.5 13t29.5 22t-8 12t-18 7t-18 11.5t-8 24.5z
" />
    <glyph glyph-name="uni045E" unicode="&#x45e;" horiz-adv-x="492" 
d="M71 -105q0 -15 -6 -23.5t-13 -14.5t-13 -11.5t-6 -14.5q0 -11 16.5 -17t33.5 -6q19 0 35 7t31.5 25t32 49t35.5 79l16 43l-183 443h-73v32h241v-32h-59l126 -305l115 305h-60v32h164v-32h-70l-184 -492q-21 -56 -40 -92t-39 -56.5t-41.5 -28.5t-46.5 -8t-46.5 7.5
t-37.5 21.5t-25.5 33.5t-9.5 42.5q0 29 17 48.5t40 19.5q21 0 35.5 -15.5t14.5 -39.5zM260 597q58 0 86.5 13t28.5 22q0 7 -8 10.5t-17 7t-17 11t-8 24.5q0 21 13 34.5t33 13.5q24 0 41 -16t17 -47q0 -48 -41.5 -75.5t-127.5 -27.5t-127.5 27.5t-41.5 75.5q0 31 17 47t41 16
q20 0 33 -13.5t13 -34.5q0 -17 -8 -24.5t-17 -11t-17 -7t-8 -10.5q0 -9 28.5 -22t86.5 -13z" />
    <glyph glyph-name="uni0400" unicode="&#x400;" horiz-adv-x="668" 
d="M25 0v32h111v656h-111v32h559v-240h-31q0 46 -14.5 84.5t-41 66t-64.5 42.5t-85 15h-97v-297h43q33 0 57.5 11.5t40 31t23.5 46t8 57.5h31v-324h-31q0 31 -8 58t-23.5 46.5t-40 30.5t-57.5 11h-43v-327h131q53 0 94 17.5t69 49t42.5 75.5t14.5 96h32v-270h-609zM281 905
q15 0 26 -6t28 -20l120 -92l-11 -25l-152 45q-26 8 -40.5 21t-14.5 33t11 32t33 12z" />
    <glyph glyph-name="uni0450" unicode="&#x450;" horiz-adv-x="521" 
d="M159 244q0 -62 7.5 -104t23.5 -67.5t40 -36t57 -10.5q29 0 53 9.5t42.5 26t30.5 38.5t18 47h33q-6 -33 -20.5 -62t-38.5 -50t-56.5 -33t-74.5 -12q-44 0 -85.5 17.5t-73.5 50t-51.5 79.5t-19.5 107q0 59 18.5 106t48.5 79.5t68.5 49.5t79.5 17t80 -15.5t69.5 -45.5
t49 -74.5t18.5 -102.5h-317v-14zM361 290q0 50 -6 83.5t-18.5 53.5t-32 28.5t-45.5 8.5q-24 0 -41.5 -9t-30 -29t-19.5 -53.5t-8 -82.5h201zM228 729q17 0 27.5 -8t23.5 -23l99 -117l-15 -20l-138 71q-41 21 -41 55q0 18 11.5 30t32.5 12z" />
    <glyph glyph-name="egrave" unicode="&#xe8;" horiz-adv-x="521" 
d="M159 244q0 -62 7.5 -104t23.5 -67.5t40 -36t57 -10.5q29 0 53 9.5t42.5 26t30.5 38.5t18 47h33q-6 -33 -20.5 -62t-38.5 -50t-56.5 -33t-74.5 -12q-44 0 -85.5 17.5t-73.5 50t-51.5 79.5t-19.5 107q0 59 18.5 106t48.5 79.5t68.5 49.5t79.5 17t80 -15.5t69.5 -45.5
t49 -74.5t18.5 -102.5h-317v-14zM361 290q0 50 -6 83.5t-18.5 53.5t-32 28.5t-45.5 8.5q-24 0 -41.5 -9t-30 -29t-19.5 -53.5t-8 -82.5h201zM208 729q17 0 27.5 -8t23.5 -23l99 -117l-15 -20l-138 71q-41 21 -41 55q0 18 11.5 30t32.5 12z" />
    <glyph glyph-name="uni040D" unicode="&#x40d;" horiz-adv-x="839" 
d="M588 607l-337 -526v-49h111v-32h-337v32h111v656h-111v32h337v-32h-111v-547l337 525v22h-111v32h337v-32h-111v-656h111v-32h-337v32h111v575zM352 905q15 0 26 -6t28 -20l120 -92l-11 -25l-152 45q-26 8 -40.5 21t-14.5 33t11 32t33 12z" />
    <glyph glyph-name="uni045D" unicode="&#x45d;" horiz-adv-x="245" 
d="M265 729q17 0 27.5 -8t23.5 -23l99 -117l-15 -20l-138 71q-41 21 -41 55q0 18 11.5 30t32.5 12zM437 383l-231 -323v-28h77v-32h-255v32h77v422h-77v32h255v-32h-77v-338l231 322v16h-77v32h255v-32h-77v-422h77v-32h-255v32h77v351z" />
    <glyph glyph-name="ae" unicode="&#xe6;" horiz-adv-x="788" 
d="M436 244q0 -62 7.5 -104t22.5 -67.5t38.5 -36t55.5 -10.5q28 0 51.5 9.5t41 26t29 38.5t16.5 47h33q-5 -33 -19.5 -62t-37.5 -50t-55 -33t-72 -12q-68 0 -118.5 29t-74.5 98q-5 -20 -15.5 -42.5t-30.5 -41.5t-49.5 -31t-71.5 -12q-31 0 -58 9t-46.5 25t-31 39t-11.5 50
q0 58 27.5 87t76.5 46q43 15 93.5 27t94.5 17v64q0 33 -7.5 54.5t-21 33.5t-33 17t-44.5 5q-32 0 -53.5 -9.5t-21.5 -22.5q0 -7 5.5 -14t11.5 -15t11.5 -19t5.5 -25q0 -22 -16 -37t-39 -15q-26 0 -40.5 16t-14.5 43q0 24 11 47.5t32 41.5t51 29.5t68 11.5q50 0 91 -16.5
t65 -52.5q27 34 63 51.5t77 17.5q39 0 77 -15.5t67.5 -45.5t47.5 -74.5t18 -102.5h-307v-14zM146 115q0 -45 20.5 -64.5t48.5 -19.5q22 0 43 9t37.5 26t26.5 42.5t10 57.5v92q-32 -4 -66.5 -11.5t-57.5 -16.5q-18 -7 -29.5 -16t-19 -22t-10.5 -31.5t-3 -45.5zM628 290
q0 50 -5.5 83.5t-17.5 53.5t-30.5 28.5t-43.5 8.5q-23 0 -39.5 -9t-28.5 -29t-18.5 -53.5t-7.5 -82.5h191z" />
    <glyph glyph-name="oe" unicode="&#x153;" horiz-adv-x="876" 
d="M524 244q0 -63 7.5 -105t23 -67t39 -35.5t54.5 -10.5q28 0 51.5 9.5t41 26t29 38.5t16.5 47h33q-5 -33 -19.5 -62t-37.5 -50t-55 -33t-72 -12q-48 0 -93.5 22t-77.5 64q-34 -41 -81.5 -63.5t-98.5 -22.5q-45 0 -88.5 18.5t-77 51.5t-54 79.5t-20.5 103.5t20.5 103.5
t54 79.5t77 51.5t88.5 18.5q50 0 96.5 -21.5t81.5 -61.5q29 40 71.5 61.5t87.5 21.5q39 0 77 -15.5t67.5 -45.5t47.5 -74.5t18 -102.5h-307v-14zM716 290q0 50 -5.5 83.5t-17.5 53.5t-30.5 28.5t-43.5 8.5q-23 0 -39.5 -9t-28.5 -29t-18.5 -53.5t-7.5 -82.5h191zM284 464
q-33 0 -56.5 -11t-38.5 -37t-22.5 -68t-7.5 -105t7.5 -105.5t22.5 -68t38.5 -36.5t56.5 -11q32 0 55.5 11t39 36.5t23 68t7.5 105.5t-7.5 105t-23 68t-39 37t-55.5 11z" />
    <glyph glyph-name="thorn" unicode="&#xfe;" horiz-adv-x="608" 
d="M341 22q28 0 49.5 11t35 37t20.5 68.5t7 104.5q0 61 -7 103.5t-20.5 68.5t-35 37.5t-49.5 11.5q-30 0 -56.5 -13t-45.5 -36.5t-30 -56.5t-11 -72v-86q0 -39 11 -72t30 -56.5t45.5 -36.5t56.5 -13zM198 400q6 18 18.5 35.5t30.5 31t41.5 21.5t52.5 8q46 0 86.5 -19.5
t71 -54t48 -80.5t17.5 -99t-17.5 -99t-48 -80t-71 -54t-86.5 -20q-29 0 -52.5 8t-41.5 21.5t-30.5 31t-18.5 35.5v-277h77v-32h-255v32h77v904h-77v32h178v-345z" />
    <glyph glyph-name="AE" unicode="&#xc6;" horiz-adv-x="936" 
d="M191 32v-32h-207v32h87l365 656h-111v32h543v-240h-31q0 46 -14.5 84.5t-41 66t-64.5 42.5t-85 15h-81v-297h35q33 0 57.5 11.5t40 31t23.5 46t8 57.5h31v-324h-31q0 31 -8 58t-23.5 46.5t-40 30.5t-57.5 11h-35v-327h99q53 0 94 17.5t69 49t42.5 75.5t14.5 96h32v-270
h-577v32h111v244h-193l-136 -244h84zM436 308v315l-175 -315h175z" />
    <glyph glyph-name="OE" unicode="&#x152;" horiz-adv-x="1032" 
d="M578 0q-45 0 -85.5 -5t-93.5 -5q-72 0 -134.5 29t-108 79.5t-72 117.5t-26.5 144q0 76 26.5 143.5t72.5 117.5t108.5 79.5t134.5 29.5q53 0 93 -5t85 -5h370v-240h-31q0 46 -14.5 84.5t-41 66t-64.5 42.5t-85 15h-97v-297h43q33 0 57.5 11.5t40 31t23.5 46t8 57.5h31
v-324h-31q0 31 -8 58t-23.5 46.5t-40 30.5t-57.5 11h-43v-327h131q53 0 94 17.5t69 49t42.5 75.5t14.5 96h32v-270h-420zM394 698q-55 0 -94 -14.5t-64 -52.5t-37 -103.5t-12 -167.5t11.5 -167.5t36.5 -103.5t64 -52.5t94 -14.5q29 0 53.5 3t53.5 9v652q-29 6 -53 9t-53 3z
" />
    <glyph glyph-name="Tbar" unicode="&#x166;" horiz-adv-x="717" 
d="M541 376h-125v-344h111v-32h-337v32h111v344h-125v32h125v280h-37q-95 0 -150 -58.5t-55 -159.5h-31v250h661v-250h-31q0 101 -55 159.5t-150 58.5h-37v-280h125v-32z" />
    <glyph glyph-name="Thorn" unicode="&#xde;" horiz-adv-x="626" 
d="M25 688v32h337v-32h-111v-103h60q133 0 202 -54t69 -157q0 -100 -66.5 -152.5t-196.5 -52.5q-14 0 -32.5 1.5t-35.5 4.5v-143h111v-32h-337v32h111v656h-111zM251 206q17 -2 34.5 -3.5t33.5 -1.5q69 0 104.5 43.5t35.5 125.5q0 89 -38 136t-110 47h-60v-347z" />
    <glyph glyph-name="Oslash" unicode="&#xd8;" horiz-adv-x="781" 
d="M390 730q66 0 123.5 -25.5t100.5 -70.5l77 86h43l-98 -110q41 -50 64 -114t23 -136q0 -77 -26 -144t-71 -117.5t-105.5 -79.5t-129.5 -29q-66 0 -122.5 25t-101.5 70l-76 -85h-43l98 109q-41 48 -64.5 113t-23.5 138q0 76 26 143.5t71 118t105.5 79.5t129.5 29zM390 698
q-55 0 -93.5 -17.5t-63 -57.5t-35.5 -104.5t-11 -158.5q0 -57 4 -103t13 -82l363 406q-23 63 -66 90t-111 27zM594 360q0 57 -4 103t-13 81l-362 -405q23 -63 65.5 -90t110.5 -27q55 0 93.5 17.5t63 57.5t35.5 104.5t11 158.5z" />
    <glyph glyph-name="oslash" unicode="&#xf8;" horiz-adv-x="578" 
d="M475 408q27 -32 43 -73.5t16 -91.5q0 -57 -21 -103.5t-55 -79.5t-78.5 -51.5t-90.5 -18.5q-45 0 -87.5 17t-76.5 48l-55 -55h-44l77 78q-27 32 -43 73.5t-16 91.5q0 57 21 103.5t55 79.5t78 51.5t91 18.5q45 0 88 -17t76 -48l55 55h44zM419 243q0 30 -1.5 55.5t-5.5 46.5
l-238 -240q15 -46 43 -64.5t72 -18.5q33 0 57.5 11t40.5 36.5t24 68t8 105.5zM289 464q-34 0 -58.5 -11t-40.5 -37t-23.5 -68t-7.5 -105q0 -30 1.5 -55.5t5.5 -46.5l237 239q-14 46 -42.5 65t-71.5 19z" />
    <glyph glyph-name="lslash" unicode="&#x142;" horiz-adv-x="317" 
d="M209 32h77v-32h-255v32h77v337l-70 -45v37l70 45v307h-77v32h178v-278l70 45v-37l-70 -45v-398z" />
    <glyph glyph-name="Lslash" unicode="&#x141;" horiz-adv-x="648" 
d="M374 478l-123 -79v-367h111q53 0 94 17.5t69 49t42.5 75.5t14.5 96h32v-270h-589v32h111v297l-102 -66v37l102 66v322h-111v32h337v-32h-111v-252l123 79v-37z" />
    <glyph glyph-name="hbar" unicode="&#x127;" horiz-adv-x="646" 
d="M209 604v-234q13 60 55.5 95t98.5 35q39 0 72 -11t57.5 -34t38 -59t13.5 -86v-278h77v-32h-249v32h71v300q0 69 -25 96.5t-75 27.5q-24 0 -48 -14t-43 -42t-31 -69.5t-12 -95.5v-203h71v-32h-249v32h77v572h-78v32h78v77h-77v32h178v-109h107v-32h-107z" />
    <glyph glyph-name="Hbar" unicode="&#x126;" horiz-adv-x="839" 
d="M801 537h-98v-505h111v-32h-337v32h111v318h-337v-318h111v-32h-337v32h111v505h-98v32h98v119h-111v32h337v-32h-111v-119h337v119h-111v32h337v-32h-111v-119h98v-32zM588 382v155h-337v-155h337z" />
    <glyph glyph-name="eng" unicode="&#x14b;" horiz-adv-x="643" 
d="M541 14q0 -58 -14 -101.5t-37.5 -72.5t-54.5 -43.5t-65 -14.5q-49 0 -80 29t-31 76q0 27 16 45.5t40 18.5q22 0 36 -15t14 -36q0 -13 -6.5 -20.5t-14.5 -13.5t-14.5 -12t-6.5 -15q0 -11 13.5 -18t33.5 -7q19 0 32 4.5t21.5 17t12.5 34t4 55.5v407q0 69 -25 96.5t-75 27.5
q-24 0 -48 -14t-43 -42t-31 -69.5t-12 -95.5v-203h71v-32h-249v32h77v422h-77v32h178v-116q13 60 55.5 95t98.5 35q39 0 72 -11t57.5 -34t38 -59t13.5 -86v-296z" />
    <glyph glyph-name="Eng" unicode="&#x14a;" horiz-adv-x="790" 
d="M397 -83q0 29 18.5 50t50.5 21q24 0 42 -17.5t18 -46.5q0 -15 -7.5 -25.5t-16 -19t-16 -16.5t-7.5 -18q0 -14 15 -23t42 -9q46 0 70.5 35t24.5 116v37l-471 665v-634h111v-32h-255v32h111v656h-111v32h247l367 -519v487h-111v32h255v-32h-111v-739q0 -89 -33.5 -128
t-93.5 -39q-30 0 -55 10t-44 28t-29.5 42.5t-10.5 54.5z" />
    <glyph glyph-name="brokenbar" unicode="&#xa6;" horiz-adv-x="230" 
d="M139 -223h-48v334h48v-334zM139 411h-48v334h48v-334z" />
    <glyph glyph-name="currency" unicode="&#xa4;" horiz-adv-x="640" 
d="M321 471q34 0 65 -12t54 -32l61 61l22 -22l-61 -61q20 -23 32 -54t12 -65q0 -35 -12 -65t-32 -54l61 -61l-22 -22l-61 61q-23 -20 -54 -32t-65 -12q-35 0 -65.5 12t-54.5 32l-61 -61l-22 22l61 61q-20 24 -31.5 54.5t-11.5 64.5t11.5 64.5t31.5 54.5l-61 61l22 22l61 -61
q24 20 54.5 32t65.5 12zM321 439q-32 0 -59.5 -12t-48.5 -33t-33 -49t-12 -59q0 -32 12 -59.5t33 -48.5t48.5 -33t59.5 -12q31 0 59 12t49 33t33 48.5t12 59.5q0 31 -12 59t-33 49t-49 33t-59 12z" />
    <glyph glyph-name="cent" unicode="&#xa2;" horiz-adv-x="482" 
d="M315 449q0 16 7 26.5t15 19t15 16.5t7 17q0 17 -22 26.5t-54 9.5h-4v-438q28 0 50.5 9.5t40 26t29 38.5t16.5 47h33q-5 -33 -18.5 -61.5t-35 -49.5t-50.5 -33.5t-65 -12.5v-90h-32v92q-40 5 -77 24.5t-65 52t-44.5 76.5t-16.5 99q0 53 16.5 96.5t44.5 75.5t65 51.5
t77 25.5v93h32v-90h4q33 0 62.5 -10t51.5 -28t34.5 -44t12.5 -57q0 -30 -18.5 -51t-49.5 -21q-25 0 -43 17.5t-18 46.5zM159 344q0 -54 5.5 -92.5t16.5 -64t27.5 -39.5t38.5 -19v431q-24 -5 -41 -19.5t-27.5 -40.5t-15 -64.5t-4.5 -91.5z" />
    <glyph glyph-name="florin" unicode="&#x192;" horiz-adv-x="640" 
d="M147 22q13 0 26.5 3t26 18.5t23.5 47.5t19 89l40 282h-96l6 32h95l4 29q8 58 27 101.5t45 72.5t56.5 43.5t61.5 14.5q24 0 46 -7.5t39 -21.5t27 -33.5t10 -42.5q0 -29 -15 -46t-41 -17q-20 0 -35.5 13.5t-15.5 36.5q0 13 4 21.5t9.5 15.5t9.5 13.5t4 15.5q0 10 -12 15.5
t-30 5.5q-12 0 -23.5 -4.5t-21.5 -16t-18 -30.5t-12 -48l-18 -131h122l-6 -32h-121l-25 -180q-11 -80 -32.5 -136t-49 -90.5t-61 -50t-68.5 -15.5q-21 0 -41 7t-35 20t-24.5 32.5t-9.5 45.5q0 27 16 45.5t40 18.5q22 0 36 -15t14 -36q0 -13 -6.5 -20.5t-14.5 -13.5
t-14.5 -12t-6.5 -15q0 -11 14 -18t32 -7z" />
    <glyph glyph-name="copyright" unicode="&#xa9;" horiz-adv-x="755" 
d="M378 702q71 0 133 -27t108.5 -73.5t73.5 -108.5t27 -133t-27 -133.5t-73.5 -109t-108.5 -73t-133 -26.5t-133 26.5t-108.5 73t-73.5 109t-27 133.5t27 133t73.5 108.5t108.5 73.5t133 27zM497 420q-14 66 -48.5 107t-84.5 41q-30 0 -52 -8.5t-36.5 -31t-22 -62
t-7.5 -100.5q0 -64 7.5 -105.5t23 -65.5t39 -33.5t54.5 -9.5q50 0 84.5 41t48.5 107h30v-174h-30q-3 20 -22 20q-9 0 -20.5 -4t-25.5 -9t-30 -9t-35 -4q-41 0 -80.5 19.5t-70 52.5t-49 78t-18.5 96q0 48 18 91t48 74.5t68 50t78 18.5q18 0 34.5 -4t30 -9t25.5 -9t21 -4
q18 0 22 20h30v-174h-30zM378 670q-64 0 -120.5 -24.5t-98.5 -66.5t-66.5 -98.5t-24.5 -120.5t24.5 -120.5t66.5 -98.5t98.5 -66.5t120.5 -24.5t120.5 24.5t98.5 66.5t66.5 98.5t24.5 120.5t-24.5 120.5t-66.5 98.5t-98.5 66.5t-120.5 24.5z" />
    <glyph glyph-name="registered" unicode="&#xae;" horiz-adv-x="606" 
d="M303 774q58 0 108.5 -22t88 -59.5t59.5 -88t22 -108.5q0 -57 -22 -108t-59.5 -88.5t-88 -59.5t-108.5 -22q-57 0 -108 22t-88.5 59.5t-59.5 88.5t-22 108q0 58 22 108.5t59.5 88t88.5 59.5t108 22zM303 744q-51 0 -96 -19.5t-79 -53t-53.5 -79t-19.5 -96.5t19.5 -96
t53.5 -79t79 -53.5t96 -19.5t96.5 19.5t79 53.5t53 79t19.5 96t-19.5 96.5t-53 79t-79 53t-96.5 19.5zM483 360q-18 -27 -56 -27q-32 0 -53.5 19.5t-21.5 73.5q0 32 -15 47t-48 15h-20v-120h52v-30h-176v30h54v263h-54v31h140q127 0 127 -79q0 -32 -27.5 -53t-74.5 -26
q33 0 54.5 -4.5t34 -15.5t18 -30.5t5.5 -49.5q0 -38 19 -38q6 0 10 3t6 7zM279 518q60 0 60 59q0 54 -57 54h-13v-113h10z" />
    <glyph glyph-name="trademark" unicode="&#x2122;" horiz-adv-x="1174" 
d="M1091 690h-66v-372h66v-30h-219v30h66v374l-152 -411h-21l-159 410v-373h66v-30h-164v30h66v372h-66v30h177l118 -304l112 304h176v-30zM472 556h-29q0 24 -10 48t-26.5 43t-39 31t-47.5 12h-20v-372h66v-30h-218v30h66v372h-20q-25 0 -47 -12t-39 -31t-27 -43t-10 -48
h-29v164h430v-164z" />
    <glyph glyph-name="partialdiff" unicode="&#x2202;" horiz-adv-x="570" 
d="M200 630q0 -21 -15.5 -38t-44.5 -17q-27 0 -39.5 17t-12.5 42q0 24 10.5 46t31.5 39t51 27t69 10q60 0 109 -23t84.5 -68.5t55 -113.5t19.5 -158q0 -94 -22 -169t-59.5 -127t-88 -79.5t-107.5 -27.5q-46 0 -82 15.5t-60.5 43t-37.5 66t-13 83.5q0 60 17.5 114t49.5 95
t77 65t101 24q45 0 73.5 -16t43.5 -39q-5 85 -20.5 140t-37.5 86.5t-48.5 44t-53.5 12.5q-31 0 -47 -12.5t-16 -31.5q0 -14 6.5 -25t6.5 -25zM310 457q-33 0 -60 -23.5t-46.5 -63t-30 -91.5t-10.5 -108q0 -45 5 -73.5t15.5 -45.5t25.5 -23.5t35 -6.5q31 0 61 24.5t53 66.5
t37 97.5t14 117.5q0 67 -27.5 98t-71.5 31z" />
    <glyph glyph-name="integral" unicode="&#x222b;" horiz-adv-x="390" 
d="M291 9q0 -58 -12 -101.5t-33 -72.5t-49.5 -43.5t-61.5 -14.5q-51 0 -82.5 30t-31.5 75q0 26 15.5 41t38.5 15q20 0 33.5 -12.5t13.5 -33.5q0 -12 -4.5 -20.5t-9.5 -15t-9.5 -13t-4.5 -13.5q0 -21 41 -21q32 0 46.5 25.5t14.5 82.5q0 71 -15 149.5t-33.5 157t-33.5 155
t-15 144.5q0 58 12 101.5t33 72.5t49.5 43.5t61.5 14.5q51 0 82.5 -30t31.5 -75q0 -26 -15.5 -41t-38.5 -15q-20 0 -33.5 12.5t-13.5 33.5q0 12 4.5 20.5t9.5 15t9.5 13t4.5 13.5q0 21 -41 21q-32 0 -46.5 -25.5t-14.5 -82.5q0 -71 15 -149.5t33.5 -157t33.5 -155t15 -144.5
z" />
    <glyph glyph-name="infinity" unicode="&#x221e;" horiz-adv-x="540" 
d="M131 410q48 0 80.5 -25t58.5 -57q13 16 27.5 30.5t31 26t36.5 18.5t44 7q45 0 73 -29.5t28 -76.5t-28 -76.5t-73 -29.5q-24 0 -44 7t-36.5 18.5t-31 26t-27.5 30.5q-26 -32 -58.5 -57t-80.5 -25q-45 0 -73 29.5t-28 76.5t28 76.5t73 29.5zM409 378q-40 0 -67 -22.5
t-52 -51.5q25 -29 52 -51.5t67 -22.5q32 0 50.5 19.5t18.5 54.5t-18.5 54.5t-50.5 19.5zM131 230q39 0 66.5 22.5t52.5 51.5q-24 29 -52 51.5t-67 22.5q-32 0 -50.5 -19.5t-18.5 -54.5t18.5 -54.5t50.5 -19.5z" />
    <glyph glyph-name="degree" unicode="&#xb0;" horiz-adv-x="340" 
d="M170 759q28 0 52.5 -10.5t42.5 -28.5t28.5 -42.5t10.5 -52.5t-10.5 -52.5t-28.5 -42.5t-42.5 -28.5t-52.5 -10.5q-27 0 -51.5 10.5t-43 28.5t-29 42.5t-10.5 52.5t10.5 52.5t29 42.5t43 28.5t51.5 10.5zM170 727q-21 0 -39.5 -8t-32.5 -22t-22 -32.5t-8 -39.5t8 -39.5
t22 -32.5t32.5 -22t39.5 -8t39.5 8t32.5 22t22 32.5t8 39.5t-8 39.5t-22 32.5t-32.5 22t-39.5 8z" />
    <glyph glyph-name="radical" unicode="&#x221a;" horiz-adv-x="530" 
d="M100 282l-69 -29l-10 30l132 54l94 -287l236 695h34l-273 -806h-31z" />
    <glyph glyph-name="lozenge" unicode="&#x25ca;" horiz-adv-x="560" 
d="M299 745l230 -385l-230 -385h-38l-230 385l230 385h38zM280 5l212 355l-212 355l-212 -355z" />
    <glyph glyph-name="product" unicode="&#x220f;" horiz-adv-x="813" 
d="M767 688h-90v-879h111v-32h-337v32h111v879h-311v-879h111v-32h-337v32h111v879h-111v32h742v-32z" />
    <glyph glyph-name="summation" unicode="&#x2211;" horiz-adv-x="652" 
d="M601 79v-302h-578l296 434l-275 509h537v-250h-31q0 101 -55 159.5t-150 58.5h-159l220 -407l-280 -410h251q47 0 83 15.5t60 43t36.5 65.5t12.5 84h32z" />
    <glyph glyph-name="logicalnot" unicode="&#xac;" horiz-adv-x="498" 
d="M448 397v-238h-40v198h-377v40h417z" />
    <glyph glyph-name="minus" unicode="&#x2212;" horiz-adv-x="498" 
d="M31 266v40h436v-40h-436z" />
    <glyph glyph-name="multiply" unicode="&#xd7;" horiz-adv-x="498" 
d="M447 456l-170 -170l170 -170l-28 -28l-170 170l-170 -170l-28 28l170 170l-170 170l28 28l170 -170l170 170z" />
    <glyph glyph-name="divide" unicode="&#xf7;" horiz-adv-x="498" 
d="M249 380q-20 0 -33.5 13.5t-13.5 33.5t13.5 33.5t33.5 13.5t33.5 -13.5t13.5 -33.5t-13.5 -33.5t-33.5 -13.5zM31 266v40h436v-40h-436zM249 98q-20 0 -33.5 13.5t-13.5 33.5t13.5 33.5t33.5 13.5t33.5 -13.5t13.5 -33.5t-13.5 -33.5t-33.5 -13.5z" />
    <glyph glyph-name="notequal" unicode="&#x2260;" horiz-adv-x="498" 
d="M467 340h-171l-57 -108h228v-40h-250l-79 -149l-30 16l71 133h-148v40h170l58 108h-228v40h249l80 149l30 -16l-72 -133h149v-40z" />
    <glyph glyph-name="plusminus" unicode="&#xb1;" horiz-adv-x="498" 
d="M467 286h-198v-178h-40v178h-198v40h198v178h40v-178h198v-40zM31 26v40h436v-40h-436z" />
    <glyph glyph-name="lessequal" unicode="&#x2264;" horiz-adv-x="498" 
d="M39 322l420 181v-41l-374 -161l374 -161v-41l-420 181v42zM31 26v40h436v-40h-436z" />
    <glyph glyph-name="greaterequal" unicode="&#x2265;" horiz-adv-x="498" 
d="M459 280l-420 -181v41l373 161l-373 161v41l420 -181v-42zM31 26v40h436v-40h-436z" />
    <glyph glyph-name="approxequal" unicode="&#x2248;" horiz-adv-x="498" 
d="M135 231q-34 0 -50.5 -21.5t-17.5 -61.5h-40q0 63 31 93t77 30q34 0 63.5 -14t57 -31t54 -31t53.5 -14q34 0 50.5 21.5t17.5 61.5h40q0 -63 -31 -93t-77 -30q-34 0 -63.5 14t-57 31t-54 31t-53.5 14zM135 391q-34 0 -50.5 -21.5t-17.5 -61.5h-40q0 63 31 93t77 30
q34 0 63.5 -14t57 -31t54 -31t53.5 -14q34 0 50.5 21.5t17.5 61.5h40q0 -63 -31 -93t-77 -30q-34 0 -63.5 14t-57 31t-54 31t-53.5 14z" />
    <glyph glyph-name="asciicircum" unicode="^" horiz-adv-x="360" 
d="M198 720l127 -260h-35l-110 225l-110 -225h-35l127 260h36z" />
    <glyph glyph-name="underscore" unicode="_" horiz-adv-x="480" 
d="M490 -77v-36h-500v36h500z" />
    <glyph glyph-name="asciitilde" unicode="~" horiz-adv-x="584" 
d="M27 189q0 88 34 134.5t109 46.5q36 0 68.5 -12t65 -27t65 -27t68.5 -12q42 0 65 27.5t23 65.5h32q0 -88 -34 -134.5t-109 -46.5q-36 0 -68.5 12t-65 27t-65 27t-68.5 12q-42 0 -65 -27.5t-23 -65.5h-32z" />
    <glyph glyph-name="at" unicode="@" horiz-adv-x="858" 
d="M634 118q18 0 40 12.5t41 38t31.5 63t12.5 87.5q0 62 -21 115t-59.5 91.5t-93.5 60.5t-124 22q-76 0 -137 -24t-104 -68t-66 -106t-23 -137q0 -161 87 -242.5t240 -81.5q69 0 117 20.5t87 58.5l22 -23q-51 -52 -116 -78.5t-153 -26.5q-79 0 -144 24t-111.5 68.5t-72 109
t-25.5 145.5q0 88 30.5 160.5t84 124.5t126.5 80t159 28q74 0 135.5 -23.5t105.5 -64.5t68.5 -96.5t24.5 -120.5q0 -63 -14.5 -109.5t-39 -76.5t-58 -44.5t-70.5 -14.5q-55 0 -81 25.5t-26 80.5q-24 -51 -59 -78.5t-86 -27.5q-62 0 -97 44t-35 114q0 43 14.5 86.5t42.5 79
t69 58t95 22.5q73 0 96 -55l10 47h95l-47 -236q-4 -18 -6 -37t-3 -35q-1 -32 8 -46t30 -14zM382 130q19 0 40 12.5t40.5 36t35 55.5t23.5 71l16 83q-8 28 -28.5 49t-45.5 21q-29 0 -54 -19.5t-43 -51.5t-28 -74t-10 -88q0 -51 13.5 -73t40.5 -22z" />
    <glyph glyph-name="Eth" unicode="&#xd0;" horiz-adv-x="790" 
d="M25 0v32h111v330h-101v32h101v294h-111v32h366q69 0 129.5 -28.5t105.5 -77.5t71 -114.5t26 -139.5t-26 -139.5t-70.5 -114.5t-105 -77.5t-129.5 -28.5h-367zM386 32q51 0 90 14.5t65 51t39.5 100t13.5 162.5t-13.5 162.5t-40 100t-65.5 51t-90 14.5h-134v-294h128v-32
h-128v-330h135z" />
    <glyph glyph-name="Dcroat" unicode="&#x110;" horiz-adv-x="790" 
d="M25 0v32h111v330h-101v32h101v294h-111v32h366q69 0 129.5 -28.5t105.5 -77.5t71 -114.5t26 -139.5t-26 -139.5t-70.5 -114.5t-105 -77.5t-129.5 -28.5h-367zM386 32q51 0 90 14.5t65 51t39.5 100t13.5 162.5t-13.5 162.5t-40 100t-65.5 51t-90 14.5h-134v-294h128v-32
h-128v-330h135z" />
    <glyph glyph-name="dcroat" unicode="&#x111;" horiz-adv-x="619" 
d="M560 604h-49v-572h77v-32h-178v86q-6 -18 -18.5 -35.5t-30.5 -31t-42 -21.5t-52 -8q-46 0 -86.5 19.5t-71 54t-48 80.5t-17.5 99q0 52 17.5 98.5t48 80.5t71 54t86.5 20q28 0 52 -8t42 -21.5t30.5 -31t18.5 -35.5v204h-121v32h121v77h-77v32h178v-109h49v-32zM267 464
q-29 0 -50 -11t-34.5 -37t-20.5 -68.5t-7 -104.5t7 -104t20.5 -68t34.5 -37.5t50 -11.5q30 0 56.5 13t45.5 36.5t30 56.5t11 72v86q0 39 -11 72t-30 56.5t-45.5 36.5t-56.5 13z" />
    <glyph glyph-name="eth" unicode="&#xf0;" horiz-adv-x="570" 
d="M273 673q-17 20 -37 37.5t-40 31.5l7 13q29 -13 55.5 -27.5t51.5 -31.5l95 59l16 -27l-84 -52q86 -66 137.5 -158.5t51.5 -206.5q0 -72 -20.5 -131t-54.5 -101t-77.5 -65.5t-88.5 -23.5q-46 0 -89.5 18.5t-77 51.5t-54 79.5t-20.5 103.5t20 103.5t53 79.5t75 51.5
t87 18.5q35 0 63 -11t46 -30q-14 55 -38.5 104t-56.5 90l-167 -103l-16 27zM279 464q-31 0 -53.5 -11t-37.5 -37t-22 -68t-7 -105t7.5 -105.5t23 -68t39 -36.5t56.5 -11q32 0 56 12.5t39.5 42t23 78.5t7.5 121q0 100 -35 144t-97 44z" />
    <glyph glyph-name="acute" unicode="&#xb4;" horiz-adv-x="245" 
d="M174 729q21 0 32.5 -12t11.5 -30q0 -34 -41 -55l-138 -71l-15 20l99 117q13 15 23.5 23t27.5 8z" />
    <glyph glyph-name="grave" unicode="`" horiz-adv-x="245" 
d="M71 729q17 0 27.5 -8t23.5 -23l99 -117l-15 -20l-138 71q-41 21 -41 55q0 18 11.5 30t32.5 12z" />
    <glyph glyph-name="circumflex" unicode="&#x2c6;" horiz-adv-x="366" 
d="M196 736q38 -48 71.5 -89t71.5 -77l-18 -18l-138 99l-138 -99l-18 18q38 36 71.5 77t71.5 89h26z" />
    <glyph glyph-name="tilde" unicode="&#x2dc;" horiz-adv-x="376" 
d="M345 711q0 -59 -22.5 -91.5t-69.5 -32.5q-23 0 -42 8.5t-35.5 18.5t-32 18.5t-30.5 8.5q-25 0 -38 -18t-13 -44h-31q0 59 22.5 91.5t69.5 32.5q22 0 41.5 -8.5t36 -18.5t32 -18.5t30.5 -8.5q25 0 38 18t13 44h31z" />
    <glyph glyph-name="dieresis" unicode="&#xa8;" horiz-adv-x="376" 
d="M288 698q21 0 37 -15t16 -38t-16 -38t-37 -15q-23 0 -38 15t-15 38t15 38t38 15zM88 698q23 0 38 -15t15 -38t-15 -38t-38 -15q-21 0 -37 15t-16 38t16 38t37 15z" />
    <glyph glyph-name="caron" unicode="&#x2c7;" horiz-adv-x="366" 
d="M170 565q-38 48 -71.5 89t-71.5 77l18 18l138 -99l138 99l18 -18q-38 -36 -71.5 -77t-71.5 -89h-26z" />
    <glyph glyph-name="macron" unicode="&#xaf;" horiz-adv-x="324" 
d="M297 623h-270v44h270v-44z" />
    <glyph glyph-name="breve" unicode="&#x2d8;" horiz-adv-x="368" 
d="M331 745q-5 -81 -44.5 -121.5t-102.5 -40.5t-102.5 40.5t-44.5 121.5h32q29 -90 115 -90t115 90h32v0z" />
    <glyph glyph-name="ring" unicode="&#x2da;" horiz-adv-x="201" 
d="M100 725q33 0 56.5 -23.5t23.5 -55.5q0 -33 -23.5 -56.5t-56.5 -23.5q-32 0 -55.5 23.5t-23.5 56.5q0 32 23.5 55.5t55.5 23.5zM100 695q-20 0 -34.5 -14.5t-14.5 -34.5q0 -21 14.5 -35.5t34.5 -14.5q21 0 35.5 14.5t14.5 35.5q0 20 -14.5 34.5t-35.5 14.5z" />
    <glyph glyph-name="dotaccent" unicode="&#x2d9;" horiz-adv-x="184" 
d="M92 710q24 0 40.5 -16.5t16.5 -40.5t-16.5 -40.5t-40.5 -16.5t-40.5 16.5t-16.5 40.5t16.5 40.5t40.5 16.5z" />
    <glyph glyph-name="glyph335" horiz-adv-x="166" 
d="M93 751q23 0 34.5 -14.5t11.5 -32.5q0 -8 -2 -15.5t-6.5 -16t-11 -20t-16.5 -27.5l-52 -90h-30l19 155q4 28 16.5 44.5t36.5 16.5z" />
    <glyph glyph-name="hungarumlaut" unicode="&#x2dd;" horiz-adv-x="412" 
d="M157 720q22 0 33 -12.5t11 -29.5q0 -28 -40 -51l-119 -68l-20 24l90 107q14 16 22.5 23t22.5 7zM327 720q22 0 33 -12.5t11 -29.5q0 -28 -40 -51l-119 -68l-20 24l90 107q14 16 22.5 23t22.5 7z" />
    <glyph glyph-name="cedilla" unicode="&#xb8;" horiz-adv-x="221" 
d="M85 0h35l-34 -52q1 0 8 2t21 2q35 0 57 -20t22 -53q0 -23 -8 -40t-21.5 -28t-31 -16.5t-35.5 -5.5q-38 0 -61.5 19.5t-37.5 47.5l16 26q10 -25 29 -43t46 -18q18 0 32 12t14 39q0 22 -11.5 35t-33.5 13q-12 0 -22 -5l-24 23z" />
    <glyph glyph-name="ccedilla" unicode="&#xe7;" horiz-adv-x="482" 
d="M226 -4q-37 8 -70 28.5t-58 52t-39.5 74t-14.5 93.5q0 59 20.5 106t54 79.5t76.5 49.5t88 17q33 0 62.5 -10t51.5 -28t34.5 -44t12.5 -57q0 -30 -18.5 -51t-49.5 -21q-25 0 -43 17.5t-18 46.5q0 16 7 26.5t15 19t15 16.5t7 17q0 17 -22 26.5t-54 9.5q-34 0 -57.5 -11
t-38.5 -36.5t-21.5 -67.5t-6.5 -105q0 -62 7 -104t22 -67.5t37.5 -36t53.5 -10.5q28 0 50.5 9.5t40 26t29 38.5t16.5 47h33q-5 -33 -18.5 -62t-35.5 -50t-51.5 -33t-66.5 -12h-8.5t-9.5 1l-28 -44q1 0 8 2.5t21 2.5q35 0 57 -20t22 -53q0 -23 -8 -40t-21.5 -28t-31 -16.5
t-35.5 -5.5q-38 0 -61.5 19.5t-37.5 47.5l16 26q10 -25 29 -43t46 -18q18 0 32 12t14 39q0 22 -11.5 35t-33.5 13q-12 0 -22 -5l-24 23z" />
    <glyph glyph-name="ogonek" unicode="&#x2db;" horiz-adv-x="242" 
d="M215 -167q-22 -26 -49.5 -41t-62.5 -15q-40 0 -55.5 19t-15.5 49q0 13 6 28t20.5 33.5t39 41.5t62.5 52h37q-22 -23 -36.5 -41t-23.5 -34.5t-13 -33.5t-4 -36q0 -33 26 -33q13 0 25 10t19 20z" />
    <glyph glyph-name="uni2080" unicode="&#x2080;" horiz-adv-x="413" 
d="M207 278q35 0 66 -17.5t53.5 -47.5t35.5 -70.5t13 -86.5t-13 -86.5t-36 -70.5t-53.5 -47.5t-65.5 -17.5q-36 0 -66.5 17.5t-53.5 47.5t-36 70.5t-13 86.5t13 86.5t36 70.5t54 47.5t66 17.5zM207 246q-24 0 -40.5 -8t-26.5 -29.5t-14.5 -58.5t-4.5 -94t4.5 -94t14.5 -58.5
t26.5 -29.5t40.5 -8t40 8t26 29.5t14.5 58.5t4.5 94t-4.5 94t-14.5 58.5t-26 29.5t-40 8z" />
    <glyph glyph-name="uni2081" unicode="&#x2081;" horiz-adv-x="304" 
d="M129 187q-13 -13 -31 -27.5t-38 -26.5l-18 26q32 19 64.5 49.5t54.5 63.5h43v-400h73v-32h-220v32h72v315z" />
    <glyph glyph-name="uni2082" unicode="&#x2082;" horiz-adv-x="362" 
d="M65 -84q7 6 17 10q8 4 20 7t28 3q17 0 33 -5t31.5 -10.5t30 -10.5t29.5 -5q20 0 31 16t13 43h32q-3 -68 -31 -98.5t-70 -30.5q-21 0 -38.5 8.5t-34 18t-31.5 18t-30 8.5q-20 0 -33 -13t-18 -41l-32 3q5 33 13 62t22.5 54t36.5 46t55 37q21 10 36 20.5t24.5 24.5t14.5 33
t5 47q0 51 -17 68t-55 17q-17 0 -31.5 -4.5t-25.5 -11.5t-17.5 -15t-6.5 -15q0 -8 7 -11.5t15 -7t15 -9.5t7 -20q0 -20 -12.5 -29.5t-31.5 -9.5q-20 0 -31.5 14.5t-11.5 35.5q0 25 10 46.5t28 36.5t42.5 23.5t53.5 8.5q27 0 53 -8t46.5 -23.5t33 -37.5t12.5 -50
q0 -27 -13 -49t-34 -40.5t-48.5 -34.5t-55.5 -29q-23 -11 -38.5 -24.5t-26 -26.5t-15.5 -23.5t-6 -15.5z" />
    <glyph glyph-name="uni2083" unicode="&#x2083;" horiz-adv-x="360" 
d="M109 -52q0 -13 -7 -18.5t-15 -8t-15 -5t-7 -9.5q0 -14 24 -27.5t57 -13.5q24 0 42 4.5t29 16t16.5 31.5t5.5 51q0 48 -21.5 70.5t-55.5 22.5q-16 0 -22.5 -1.5t-17.5 -1.5q-19 0 -19 19t19 19q7 0 15 -1.5t25 -1.5q56 0 56 74q0 47 -17 63t-55 16q-15 0 -28.5 -4t-23 -10
t-15.5 -12.5t-6 -11.5q0 -7 6.5 -9t14.5 -4.5t14.5 -8t6.5 -17.5q0 -17 -11.5 -28t-30.5 -11t-30 12t-11 35q0 45 34 72.5t84 27.5q27 0 53 -7t47 -20t33.5 -32.5t12.5 -43.5q0 -41 -28.5 -64t-78.5 -32q59 -8 96.5 -32t37.5 -76q0 -33 -15 -58.5t-39.5 -43t-55.5 -26.5
t-63 -9q-55 0 -92 29t-37 75q0 24 12 36.5t32 12.5q18 0 31 -11t13 -28z" />
    <glyph glyph-name="uni2084" unicode="&#x2084;" horiz-adv-x="357" 
d="M347 -15v-31h-78v-82h59v-32h-193v32h59v82h-179v31l207 287h47v-287h78zM194 -15v201l-145 -201h145z" />
    <glyph glyph-name="uni2085" unicode="&#x2085;" horiz-adv-x="352" 
d="M101 206l-11 -114q7 5 17 9q8 3 20.5 6t28.5 3q72 0 116 -39.5t44 -102.5q0 -32 -13.5 -56.5t-36 -42t-53 -26.5t-63.5 -9q-57 0 -90 29t-33 75q0 24 11.5 36.5t31.5 12.5q19 0 31.5 -10t12.5 -27q0 -14 -7 -19.5t-15 -8t-15 -5.5t-7 -10q0 -13 21.5 -27t54.5 -14
q21 0 37 4.5t27 16t16.5 31.5t5.5 51q0 50 -21.5 80t-60.5 30q-25 0 -42 -10.5t-25 -21.5h-31l24 225h157q12 0 22.5 2t16.5 13h31l-9 -81h-193z" />
    <glyph glyph-name="uni2086" unicode="&#x2086;" horiz-adv-x="385" 
d="M258 182q0 10 3 16t6.5 10t6.5 8t3 9q0 8 -16 14t-39 6t-41 -7.5t-30.5 -27t-20 -53.5t-8.5 -87q4 4 11 9.5t16.5 10.5t27.5 10t41 5q27 0 52 -8.5t44.5 -25.5t31.5 -41.5t12 -56.5q0 -65 -40.5 -102t-113.5 -37q-77 0 -121.5 50t-44.5 147q0 58 15 104t40.5 77.5t59 48
t69.5 16.5q54 0 86 -24.5t32 -59.5q0 -23 -11 -35t-30 -12q-18 0 -29.5 9.5t-11.5 26.5zM201 71q-23 0 -43 -12t-37 -29v-8q0 -85 22 -120.5t61 -35.5q34 0 52 28.5t18 78.5q0 98 -73 98z" />
    <glyph glyph-name="uni2087" unicode="&#x2087;" horiz-adv-x="334" 
d="M142 200q-45 0 -62 -16t-17 -54h-32v142h286q-41 -67 -64.5 -113.5t-35.5 -88t-15 -83.5t-3 -100q0 -29 -10.5 -41t-32.5 -12t-33 12.5t-11 41.5q0 17 3 40.5t16.5 60t40 88t73.5 123.5h-103z" />
    <glyph glyph-name="uni2088" unicode="&#x2088;" horiz-adv-x="390" 
d="M243 81q21 -11 41 -23.5t35.5 -27.5t25.5 -34t10 -43q0 -54 -43 -86.5t-121 -32.5q-74 0 -115 30t-41 80q0 48 24 74t80 41q-17 10 -32.5 21t-27.5 25t-19.5 30.5t-7.5 36.5q0 53 38 79.5t107 26.5q68 0 105 -27t37 -70q0 -41 -24 -62.5t-72 -37.5zM197 247
q-30 0 -50 -13t-20 -43q0 -15 8.5 -29t22 -26.5t29 -22.5t29.5 -16q19 11 37 32t18 52q0 32 -18.5 49t-55.5 17zM191 -134q42 0 65 19.5t23 46.5q0 20 -10.5 36t-27 29t-36.5 23.5t-38 21.5q-12 -7 -23.5 -15t-20.5 -19.5t-14.5 -27t-5.5 -36.5q0 -38 21.5 -58t66.5 -20z
" />
    <glyph glyph-name="uni2089" unicode="&#x2089;" horiz-adv-x="385" 
d="M114 -114q0 -8 15 -14t38 -6q22 0 39.5 7.5t29.5 27t18.5 53t8.5 86.5q-1 0 -7.5 -5.5t-18.5 -12t-29.5 -11.5t-40.5 -5q-27 0 -52.5 8.5t-45 25.5t-31 41.5t-11.5 56.5q0 65 40.5 102t113.5 37q77 0 121.5 -50t44.5 -147q0 -58 -15 -104t-39.5 -77.5t-57 -48
t-68.5 -16.5q-53 0 -84.5 24.5t-31.5 59.5q0 23 11 35t30 12q18 0 29.5 -9.5t11.5 -26.5q0 -10 -3 -16t-6.5 -10t-6.5 -8t-3 -9zM184 40q23 0 43 12t37 29v8q0 85 -22 120.5t-61 35.5q-34 0 -52 -28.5t-18 -78.5q0 -98 73 -98z" />
    <glyph glyph-name="zero.numr" horiz-adv-x="413" 
d="M207 726q35 0 66 -17.5t53.5 -47.5t35.5 -70.5t13 -86.5t-13 -86.5t-36 -70.5t-53.5 -47.5t-65.5 -17.5q-36 0 -66.5 17.5t-53.5 47.5t-36 70.5t-13 86.5t13 86.5t36 70.5t54 47.5t66 17.5zM207 694q-24 0 -40.5 -8t-26.5 -29.5t-14.5 -58.5t-4.5 -94t4.5 -94t14.5 -58.5
t26.5 -29.5t40.5 -8t40 8t26 29.5t14.5 58.5t4.5 94t-4.5 94t-14.5 58.5t-26 29.5t-40 8z" />
    <glyph glyph-name="one.numr" horiz-adv-x="304" 
d="M129 635q-13 -13 -31 -27.5t-38 -26.5l-18 26q32 19 64.5 49.5t54.5 63.5h43v-400h73v-32h-220v32h72v315z" />
    <glyph glyph-name="two.numr" horiz-adv-x="362" 
d="M65 364q7 6 17 10q8 4 20 7t28 3q17 0 33 -5t31.5 -10.5t30 -10.5t29.5 -5q20 0 31 16t13 43h32q-3 -68 -31 -98.5t-70 -30.5q-21 0 -38.5 8.5t-34 18t-31.5 18t-30 8.5q-20 0 -33 -13t-18 -41l-32 3q5 33 13 62t22.5 54t36.5 46t55 37q21 10 36 20.5t24.5 24.5t14.5 33
t5 47q0 51 -17 68t-55 17q-17 0 -31.5 -4.5t-25.5 -11.5t-17.5 -15t-6.5 -15q0 -8 7 -11.5t15 -7t15 -9.5t7 -20q0 -20 -12.5 -29.5t-31.5 -9.5q-20 0 -31.5 14.5t-11.5 35.5q0 25 10 46.5t28 36.5t42.5 23.5t53.5 8.5q27 0 53 -8t46.5 -23.5t33 -37.5t12.5 -50
q0 -27 -13 -49t-34 -40.5t-48.5 -34.5t-55.5 -29q-23 -11 -38.5 -24.5t-26 -26.5t-15.5 -23.5t-6 -15.5z" />
    <glyph glyph-name="three.numr" horiz-adv-x="360" 
d="M109 396q0 -13 -7 -18.5t-15 -8t-15 -5t-7 -9.5q0 -14 24 -27.5t57 -13.5q24 0 42 4.5t29 16t16.5 31.5t5.5 51q0 48 -21.5 70.5t-55.5 22.5q-16 0 -22.5 -1.5t-17.5 -1.5q-19 0 -19 19t19 19q7 0 15 -1.5t25 -1.5q56 0 56 74q0 47 -17 63t-55 16q-15 0 -28.5 -4t-23 -10
t-15.5 -12.5t-6 -11.5q0 -7 6.5 -9t14.5 -4.5t14.5 -8t6.5 -17.5q0 -17 -11.5 -28t-30.5 -11t-30 12t-11 35q0 45 34 72.5t84 27.5q27 0 53 -7t47 -20t33.5 -32.5t12.5 -43.5q0 -41 -28.5 -64t-78.5 -32q59 -8 96.5 -32t37.5 -76q0 -33 -15 -58.5t-39.5 -43t-55.5 -26.5
t-63 -9q-55 0 -92 29t-37 75q0 24 12 36.5t32 12.5q18 0 31 -11t13 -28z" />
    <glyph glyph-name="four.numr" horiz-adv-x="357" 
d="M347 433v-31h-78v-82h59v-32h-193v32h59v82h-179v31l207 287h47v-287h78zM194 433v201l-145 -201h145z" />
    <glyph glyph-name="five.numr" horiz-adv-x="352" 
d="M101 654l-11 -114q7 5 17 9q8 3 20.5 6t28.5 3q72 0 116 -39.5t44 -102.5q0 -32 -13.5 -56.5t-36 -42t-53 -26.5t-63.5 -9q-57 0 -90 29t-33 75q0 24 11.5 36.5t31.5 12.5q19 0 31.5 -10t12.5 -27q0 -14 -7 -19.5t-15 -8t-15 -5.5t-7 -10q0 -13 21.5 -27t54.5 -14
q21 0 37 4.5t27 16t16.5 31.5t5.5 51q0 50 -21.5 80t-60.5 30q-25 0 -42 -10.5t-25 -21.5h-31l24 225h157q12 0 22.5 2t16.5 13h31l-9 -81h-193z" />
    <glyph glyph-name="six.numr" horiz-adv-x="385" 
d="M258 630q0 10 3 16t6.5 10t6.5 8t3 9q0 8 -16 14t-39 6t-41 -7.5t-30.5 -27t-20 -53.5t-8.5 -87q4 4 11 9.5t16.5 10.5t27.5 10t41 5q27 0 52 -8.5t44.5 -25.5t31.5 -41.5t12 -56.5q0 -65 -40.5 -102t-113.5 -37q-77 0 -121.5 50t-44.5 147q0 58 15 104t40.5 77.5t59 48
t69.5 16.5q54 0 86 -24.5t32 -59.5q0 -23 -11 -35t-30 -12q-18 0 -29.5 9.5t-11.5 26.5zM201 519q-23 0 -43 -12t-37 -29v-8q0 -85 22 -120.5t61 -35.5q34 0 52 28.5t18 78.5q0 98 -73 98z" />
    <glyph glyph-name="seven.numr" horiz-adv-x="334" 
d="M142 648q-45 0 -62 -16t-17 -54h-32v142h286q-41 -67 -64.5 -113.5t-35.5 -88t-15 -83.5t-3 -100q0 -29 -10.5 -41t-32.5 -12t-33 12.5t-11 41.5q0 17 3 40.5t16.5 60t40 88t73.5 123.5h-103z" />
    <glyph glyph-name="eight.numr" horiz-adv-x="390" 
d="M243 529q21 -11 41 -23.5t35.5 -27.5t25.5 -34t10 -43q0 -54 -43 -86.5t-121 -32.5q-74 0 -115 30t-41 80q0 48 24 74t80 41q-17 10 -32.5 21t-27.5 25t-19.5 30.5t-7.5 36.5q0 53 38 79.5t107 26.5q68 0 105 -27t37 -70q0 -41 -24 -62.5t-72 -37.5zM197 695
q-30 0 -50 -13t-20 -43q0 -15 8.5 -29t22 -26.5t29 -22.5t29.5 -16q19 11 37 32t18 52q0 32 -18.5 49t-55.5 17zM191 314q42 0 65 19.5t23 46.5q0 20 -10.5 36t-27 29t-36.5 23.5t-38 21.5q-12 -7 -23.5 -15t-20.5 -19.5t-14.5 -27t-5.5 -36.5q0 -38 21.5 -58t66.5 -20z" />
    <glyph glyph-name="nine.numr" horiz-adv-x="385" 
d="M114 334q0 -8 15 -14t38 -6q22 0 39.5 7.5t29.5 27t18.5 53t8.5 86.5q-1 0 -7.5 -5.5t-18.5 -12t-29.5 -11.5t-40.5 -5q-27 0 -52.5 8.5t-45 25.5t-31 41.5t-11.5 56.5q0 65 40.5 102t113.5 37q77 0 121.5 -50t44.5 -147q0 -58 -15 -104t-39.5 -77.5t-57 -48t-68.5 -16.5
q-53 0 -84.5 24.5t-31.5 59.5q0 23 11 35t30 12q18 0 29.5 -9.5t11.5 -26.5q0 -10 -3 -16t-6.5 -10t-6.5 -8t-3 -9zM184 488q23 0 43 12t37 29v8q0 85 -22 120.5t-61 35.5q-34 0 -52 -28.5t-18 -78.5q0 -98 73 -98z" />
    <glyph glyph-name="uni2070" unicode="&#x2070;" horiz-adv-x="413" 
d="M207 751q35 0 66 -17.5t53.5 -47.5t35.5 -70.5t13 -86.5t-13 -86.5t-36 -70.5t-53.5 -47.5t-65.5 -17.5q-36 0 -66.5 17.5t-53.5 47.5t-36 70.5t-13 86.5t13 86.5t36 70.5t54 47.5t66 17.5zM207 719q-24 0 -40.5 -8t-26.5 -29.5t-14.5 -58.5t-4.5 -94t4.5 -94t14.5 -58.5
t26.5 -29.5t40.5 -8t40 8t26 29.5t14.5 58.5t4.5 94t-4.5 94t-14.5 58.5t-26 29.5t-40 8z" />
    <glyph glyph-name="uni00B9" unicode="&#xb9;" horiz-adv-x="304" 
d="M129 660q-13 -13 -31 -27.5t-38 -26.5l-18 26q32 19 64.5 49.5t54.5 63.5h43v-400h73v-32h-220v32h72v315z" />
    <glyph glyph-name="uni00B2" unicode="&#xb2;" horiz-adv-x="362" 
d="M65 389q7 6 17 10q8 4 20 7t28 3q17 0 33 -5t31.5 -10.5t30 -10.5t29.5 -5q20 0 31 16t13 43h32q-3 -68 -31 -98.5t-70 -30.5q-21 0 -38.5 8.5t-34 18t-31.5 18t-30 8.5q-20 0 -33 -13t-18 -41l-32 3q5 33 13 62t22.5 54t36.5 46t55 37q21 10 36 20.5t24.5 24.5t14.5 33
t5 47q0 51 -17 68t-55 17q-17 0 -31.5 -4.5t-25.5 -11.5t-17.5 -15t-6.5 -15q0 -8 7 -11.5t15 -7t15 -9.5t7 -20q0 -20 -12.5 -29.5t-31.5 -9.5q-20 0 -31.5 14.5t-11.5 35.5q0 25 10 46.5t28 36.5t42.5 23.5t53.5 8.5q27 0 53 -8t46.5 -23.5t33 -37.5t12.5 -50
q0 -27 -13 -49t-34 -40.5t-48.5 -34.5t-55.5 -29q-23 -11 -38.5 -24.5t-26 -26.5t-15.5 -23.5t-6 -15.5z" />
    <glyph glyph-name="uni00B3" unicode="&#xb3;" horiz-adv-x="360" 
d="M109 421q0 -13 -7 -18.5t-15 -8t-15 -5t-7 -9.5q0 -14 24 -27.5t57 -13.5q24 0 42 4.5t29 16t16.5 31.5t5.5 51q0 48 -21.5 70.5t-55.5 22.5q-16 0 -22.5 -1.5t-17.5 -1.5q-19 0 -19 19t19 19q7 0 15 -1.5t25 -1.5q56 0 56 74q0 47 -17 63t-55 16q-15 0 -28.5 -4t-23 -10
t-15.5 -12.5t-6 -11.5q0 -7 6.5 -9t14.5 -4.5t14.5 -8t6.5 -17.5q0 -17 -11.5 -28t-30.5 -11t-30 12t-11 35q0 45 34 72.5t84 27.5q27 0 53 -7t47 -20t33.5 -32.5t12.5 -43.5q0 -41 -28.5 -64t-78.5 -32q59 -8 96.5 -32t37.5 -76q0 -33 -15 -58.5t-39.5 -43t-55.5 -26.5
t-63 -9q-55 0 -92 29t-37 75q0 24 12 36.5t32 12.5q18 0 31 -11t13 -28z" />
    <glyph glyph-name="uni2074" unicode="&#x2074;" horiz-adv-x="357" 
d="M347 458v-31h-78v-82h59v-32h-193v32h59v82h-179v31l207 287h47v-287h78zM194 458v201l-145 -201h145z" />
    <glyph glyph-name="uni2075" unicode="&#x2075;" horiz-adv-x="352" 
d="M101 679l-11 -114q7 5 17 9q8 3 20.5 6t28.5 3q72 0 116 -39.5t44 -102.5q0 -32 -13.5 -56.5t-36 -42t-53 -26.5t-63.5 -9q-57 0 -90 29t-33 75q0 24 11.5 36.5t31.5 12.5q19 0 31.5 -10t12.5 -27q0 -14 -7 -19.5t-15 -8t-15 -5.5t-7 -10q0 -13 21.5 -27t54.5 -14
q21 0 37 4.5t27 16t16.5 31.5t5.5 51q0 50 -21.5 80t-60.5 30q-25 0 -42 -10.5t-25 -21.5h-31l24 225h157q12 0 22.5 2t16.5 13h31l-9 -81h-193z" />
    <glyph glyph-name="uni2076" unicode="&#x2076;" horiz-adv-x="385" 
d="M258 655q0 10 3 16t6.5 10t6.5 8t3 9q0 8 -16 14t-39 6t-41 -7.5t-30.5 -27t-20 -53.5t-8.5 -87q4 4 11 9.5t16.5 10.5t27.5 10t41 5q27 0 52 -8.5t44.5 -25.5t31.5 -41.5t12 -56.5q0 -65 -40.5 -102t-113.5 -37q-77 0 -121.5 50t-44.5 147q0 58 15 104t40.5 77.5t59 48
t69.5 16.5q54 0 86 -24.5t32 -59.5q0 -23 -11 -35t-30 -12q-18 0 -29.5 9.5t-11.5 26.5zM201 544q-23 0 -43 -12t-37 -29v-8q0 -85 22 -120.5t61 -35.5q34 0 52 28.5t18 78.5q0 98 -73 98z" />
    <glyph glyph-name="uni2077" unicode="&#x2077;" horiz-adv-x="334" 
d="M142 673q-45 0 -62 -16t-17 -54h-32v142h286q-41 -67 -64.5 -113.5t-35.5 -88t-15 -83.5t-3 -100q0 -29 -10.5 -41t-32.5 -12t-33 12.5t-11 41.5q0 17 3 40.5t16.5 60t40 88t73.5 123.5h-103z" />
    <glyph glyph-name="uni2078" unicode="&#x2078;" horiz-adv-x="390" 
d="M243 554q21 -11 41 -23.5t35.5 -27.5t25.5 -34t10 -43q0 -54 -43 -86.5t-121 -32.5q-74 0 -115 30t-41 80q0 48 24 74t80 41q-17 10 -32.5 21t-27.5 25t-19.5 30.5t-7.5 36.5q0 53 38 79.5t107 26.5q68 0 105 -27t37 -70q0 -41 -24 -62.5t-72 -37.5zM197 720
q-30 0 -50 -13t-20 -43q0 -15 8.5 -29t22 -26.5t29 -22.5t29.5 -16q19 11 37 32t18 52q0 32 -18.5 49t-55.5 17zM191 339q42 0 65 19.5t23 46.5q0 20 -10.5 36t-27 29t-36.5 23.5t-38 21.5q-12 -7 -23.5 -15t-20.5 -19.5t-14.5 -27t-5.5 -36.5q0 -38 21.5 -58t66.5 -20z" />
    <glyph glyph-name="uni2079" unicode="&#x2079;" horiz-adv-x="385" 
d="M114 359q0 -8 15 -14t38 -6q22 0 39.5 7.5t29.5 27t18.5 53t8.5 86.5q-1 0 -7.5 -5.5t-18.5 -12t-29.5 -11.5t-40.5 -5q-27 0 -52.5 8.5t-45 25.5t-31 41.5t-11.5 56.5q0 65 40.5 102t113.5 37q77 0 121.5 -50t44.5 -147q0 -58 -15 -104t-39.5 -77.5t-57 -48t-68.5 -16.5
q-53 0 -84.5 24.5t-31.5 59.5q0 23 11 35t30 12q18 0 29.5 -9.5t11.5 -26.5q0 -10 -3 -16t-6.5 -10t-6.5 -8t-3 -9zM184 513q23 0 43 12t37 29v8q0 85 -22 120.5t-61 35.5q-34 0 -52 -28.5t-18 -78.5q0 -98 73 -98z" />
    <glyph glyph-name="ordmasculine" unicode="&#xba;" horiz-adv-x="440" 
d="M220 726q34 0 66 -13.5t56.5 -38.5t39.5 -60t15 -78q0 -42 -15 -77t-40 -60t-56.5 -39t-65.5 -14t-66 14t-56.5 39t-39.5 60t-15 77q0 43 15 78t39.5 60t56.5 38.5t66 13.5zM220 696q-24 0 -42 -8t-29.5 -26.5t-17 -49.5t-5.5 -76q0 -46 5.5 -76.5t17 -49t29.5 -26.5
t42 -8t42 8t30 26.5t17.5 49t5.5 76.5q0 45 -5.5 76t-17.5 49.5t-30 26.5t-42 8z" />
    <glyph glyph-name="fraction" unicode="&#x2044;" horiz-adv-x="182" 
d="M-203 0h-48l636 720h48z" />
    <glyph glyph-name="uni2215" unicode="&#x2215;" horiz-adv-x="182" 
d="M-203 0h-48l636 720h48z" />
    <glyph glyph-name="acute.aalt" horiz-adv-x="270" 
d="M200 905q22 0 33 -12t11 -32t-14.5 -33t-40.5 -21l-152 -45l-11 25l120 92q17 14 28 20t26 6z" />
    <glyph glyph-name="dieresis.aalt" horiz-adv-x="366" 
d="M286 891q22 0 38.5 -16t16.5 -39t-16.5 -39t-38.5 -16q-23 0 -38.5 16t-15.5 39t15.5 39t38.5 16zM80 891q23 0 38.5 -16t15.5 -39t-15.5 -39t-38.5 -16q-22 0 -38.5 16t-16.5 39t16.5 39t38.5 16z" />
    <glyph glyph-name="dotaccent.aalt" horiz-adv-x="194" 
d="M97 905q27 0 46 -19t19 -46t-19 -46t-46 -19t-46 19t-19 46t19 46t46 19z" />
    <glyph glyph-name="hungarumlaut.aalt" horiz-adv-x="406" 
d="M165 913q20 0 31 -11.5t11 -28.5q0 -20 -13 -32t-38 -24l-116 -56l-15 22l88 98q14 17 25.5 24.5t26.5 7.5zM335 913q20 0 31 -11.5t11 -28.5q0 -20 -13 -32t-38 -24l-116 -56l-15 22l88 98q14 17 25.5 24.5t26.5 7.5z" />
    <glyph glyph-name="macron.aalt" horiz-adv-x="366" 
d="M335 813h-304v44h304v-44z" />
    <glyph glyph-name="ring.aalt" horiz-adv-x="210" 
d="M105 891q34 0 58 -24t24 -58t-24 -58t-58 -24t-58 24t-24 58t24 58t58 24zM105 861q-21 0 -36.5 -15.5t-15.5 -36.5t15.5 -36.5t36.5 -15.5t36.5 15.5t15.5 36.5t-15.5 36.5t-36.5 15.5z" />
    <glyph glyph-name="tilde.aalt" horiz-adv-x="366" 
d="M345 896q0 -57 -22.5 -87t-71.5 -30q-23 0 -42.5 7.5t-38 17t-35.5 17t-33 7.5q-24 0 -37 -17.5t-13 -40.5h-31q0 57 22.5 87.5t71.5 30.5q22 0 42 -7.5t38.5 -17t35 -17t33.5 -7.5q24 0 37 17t13 40h31z" />
    <glyph glyph-name="caron.aalt" horiz-adv-x="366" 
d="M169 769q-38 48 -72 82.5t-72 70.5l18 18l140 -88l140 88l18 -18q-38 -36 -72 -70.5t-72 -82.5h-28z" />
    <glyph glyph-name="uni02C9" unicode="&#x2c9;" horiz-adv-x="324" 
d="M297 623h-270v44h270v-44z" />
    <glyph glyph-name="breve.aalt" horiz-adv-x="366" 
d="M336 919q-5 -73 -47 -111t-106 -38t-106 38t-47 111h32q14 -36 46 -55t75 -19t75 19t46 55h32v0z" />
    <glyph glyph-name="exclamdown" unicode="&#xa1;" horiz-adv-x="295" 
d="M147 366q-27 0 -46 19t-19 46t19 46t46 19t46 -19t19 -46t-19 -46t-46 -19zM79 -126q0 50 8 99t18 98.5t18 100t8 104.5v46h32v-46q0 -54 8 -104.5t18 -100t18 -98.5t8 -99q0 -56 -17.5 -87t-50.5 -31t-50.5 31t-17.5 87z" />
    <glyph glyph-name="questiondown" unicode="&#xbf;" horiz-adv-x="466" 
d="M254 366q-27 0 -46 19t-19 46t19 46t46 19t46 -19t19 -46t-19 -46t-46 -19zM295 -83q0 29 19 46t47 17q30 0 47.5 -20.5t17.5 -52.5q0 -69 -47 -110t-132 -41q-43 0 -81 11.5t-66 34t-44 55t-16 73.5q0 44 15.5 76t38.5 57t50 46.5t50 45t38.5 51t15.5 65.5q0 25 -6 51
h32q6 -26 6 -51q0 -37 -8 -64t-20.5 -50t-27 -44.5t-27 -47t-20.5 -58t-8 -77.5q0 -43 6 -70.5t17.5 -43.5t29.5 -22.5t42 -6.5q41 0 67 14.5t26 35.5q0 13 -9.5 18.5t-21.5 11t-21.5 16t-9.5 34.5z" />
    <glyph glyph-name="circumflex.aalt" horiz-adv-x="366" 
d="M197 933q38 -48 72 -82.5t72 -70.5l-18 -18l-140 88l-140 -88l-18 18q38 36 72 70.5t72 82.5h28z" />
    <glyph glyph-name="grave.aalt" horiz-adv-x="270" 
d="M90 905q15 0 26 -6t28 -20l120 -92l-11 -25l-152 45q-26 8 -40.5 21t-14.5 33t11 32t33 12z" />
    <glyph glyph-name="tonos" unicode="&#x384;" horiz-adv-x="191" 
d="M108 751q23 0 34.5 -14.5t11.5 -32.5q0 -17 -11 -35.5t-26 -42.5l-56 -91h-27l20 155q7 61 54 61z" />
    <glyph glyph-name="dieresistonos" unicode="&#x385;" horiz-adv-x="420" 
d="M89 681q20 0 34.5 -14.5t14.5 -34.5t-14.5 -34.5t-34.5 -14.5t-34.5 14.5t-14.5 34.5t14.5 34.5t34.5 14.5zM221 751q23 0 33 -14.5t10 -32.5q0 -16 -11 -40.5t-24 -56.5l-29 -72h-27v155q0 61 48 61zM331 681q20 0 34.5 -14.5t14.5 -34.5t-14.5 -34.5t-34.5 -14.5
t-34.5 14.5t-14.5 34.5t14.5 34.5t34.5 14.5z" />
    <glyph glyph-name="anoteleia" unicode="&#x387;" horiz-adv-x="268" 
d="M134 551q27 0 46 -19t19 -46t-19 -46t-46 -19t-46 19t-19 46t19 46t46 19z" />
    <glyph glyph-name="uniFB02" unicode="&#xfb02;" horiz-adv-x="635" 
d="M426 32v535q-4 -1 -10 -1q-22 0 -38 15t-16 41q0 13 4.5 21.5t10.5 15.5t10.5 12.5t4.5 12.5q0 12 -19.5 25.5t-57.5 13.5q-23 0 -42.5 -9t-33.5 -29.5t-22.5 -52.5t-8.5 -77v-69h119v-32h-119v-422h77v-32h-255v32h77v422h-86v32h86v32q0 58 18 102t47.5 74t67 45.5
t75.5 15.5q31 0 64 -5t78 -5h70v-713h77v-32h-255v32h77z" />
    <glyph glyph-name="dotlessi" unicode="&#x131;" horiz-adv-x="317" 
d="M209 32h77v-32h-255v32h77v422h-77v32h178v-454z" />
    <glyph glyph-name="igrave" unicode="&#xec;" horiz-adv-x="317" 
d="M209 32h77v-32h-255v32h77v422h-77v32h178v-454zM101 729q17 0 27.5 -8t23.5 -23l99 -117l-15 -20l-138 71q-41 21 -41 55q0 18 11.5 30t32.5 12z" />
    <glyph glyph-name="uni0237" unicode="&#x237;" horiz-adv-x="292" 
d="M21 -105q0 -13 -6.5 -20.5t-14.5 -13.5t-14.5 -12t-6.5 -15q0 -11 13.5 -18t33.5 -7q19 0 32 4.5t21.5 17t12.5 34t4 55.5v534h-77v32h178v-477q0 -58 -14 -101.5t-37.5 -72.5t-54.5 -43.5t-65 -14.5q-49 0 -80 29t-31 76q0 27 16 45.5t40 18.5q22 0 36 -15t14 -36z" />
    <glyph glyph-name="ograve" unicode="&#xf2;" horiz-adv-x="578" 
d="M289 496q47 0 91 -18.5t78.5 -51.5t55 -79.5t20.5 -103.5t-21 -103.5t-55 -79.5t-78.5 -51.5t-90.5 -18.5q-47 0 -91 18.5t-78 51.5t-55 79.5t-21 103.5t21 103.5t55 79.5t78 51.5t91 18.5zM289 464q-34 0 -58.5 -11t-40.5 -37t-23.5 -68t-7.5 -105t7.5 -105.5t23.5 -68
t40.5 -36.5t58.5 -11q33 0 57.5 11t40.5 36.5t24 68t8 105.5t-8 105t-24 68t-40.5 37t-57.5 11zM235 729q17 0 27.5 -8t23.5 -23l99 -117l-15 -20l-138 71q-41 21 -41 55q0 18 11.5 30t32.5 12z" />
    <glyph glyph-name="oacute" unicode="&#xf3;" horiz-adv-x="578" 
d="M289 496q47 0 91 -18.5t78.5 -51.5t55 -79.5t20.5 -103.5t-21 -103.5t-55 -79.5t-78.5 -51.5t-90.5 -18.5q-47 0 -91 18.5t-78 51.5t-55 79.5t-21 103.5t21 103.5t55 79.5t78 51.5t91 18.5zM289 464q-34 0 -58.5 -11t-40.5 -37t-23.5 -68t-7.5 -105t7.5 -105.5t23.5 -68
t40.5 -36.5t58.5 -11q33 0 57.5 11t40.5 36.5t24 68t8 105.5t-8 105t-24 68t-40.5 37t-57.5 11zM367 729q21 0 32.5 -12t11.5 -30q0 -34 -41 -55l-138 -71l-15 20l99 117q13 15 23.5 23t27.5 8z" />
    <glyph glyph-name="ocircumflex" unicode="&#xf4;" horiz-adv-x="578" 
d="M289 496q47 0 91 -18.5t78.5 -51.5t55 -79.5t20.5 -103.5t-21 -103.5t-55 -79.5t-78.5 -51.5t-90.5 -18.5q-47 0 -91 18.5t-78 51.5t-55 79.5t-21 103.5t21 103.5t55 79.5t78 51.5t91 18.5zM289 464q-34 0 -58.5 -11t-40.5 -37t-23.5 -68t-7.5 -105t7.5 -105.5t23.5 -68
t40.5 -36.5t58.5 -11q33 0 57.5 11t40.5 36.5t24 68t8 105.5t-8 105t-24 68t-40.5 37t-57.5 11zM302 736q38 -48 71.5 -89t71.5 -77l-18 -18l-138 99l-138 -99l-18 18q38 36 71.5 77t71.5 89h26z" />
    <glyph glyph-name="otilde" unicode="&#xf5;" horiz-adv-x="578" 
d="M289 496q47 0 91 -18.5t78.5 -51.5t55 -79.5t20.5 -103.5t-21 -103.5t-55 -79.5t-78.5 -51.5t-90.5 -18.5q-47 0 -91 18.5t-78 51.5t-55 79.5t-21 103.5t21 103.5t55 79.5t78 51.5t91 18.5zM289 464q-34 0 -58.5 -11t-40.5 -37t-23.5 -68t-7.5 -105t7.5 -105.5t23.5 -68
t40.5 -36.5t58.5 -11q33 0 57.5 11t40.5 36.5t24 68t8 105.5t-8 105t-24 68t-40.5 37t-57.5 11zM446 711q0 -59 -22.5 -91.5t-69.5 -32.5q-23 0 -42 8.5t-35.5 18.5t-32 18.5t-30.5 8.5q-25 0 -38 -18t-13 -44h-31q0 59 22.5 91.5t69.5 32.5q22 0 41.5 -8.5t36 -18.5
t32 -18.5t30.5 -8.5q25 0 38 18t13 44h31z" />
    <glyph glyph-name="odieresis" unicode="&#xf6;" horiz-adv-x="578" 
d="M289 496q47 0 91 -18.5t78.5 -51.5t55 -79.5t20.5 -103.5t-21 -103.5t-55 -79.5t-78.5 -51.5t-90.5 -18.5q-47 0 -91 18.5t-78 51.5t-55 79.5t-21 103.5t21 103.5t55 79.5t78 51.5t91 18.5zM289 464q-34 0 -58.5 -11t-40.5 -37t-23.5 -68t-7.5 -105t7.5 -105.5t23.5 -68
t40.5 -36.5t58.5 -11q33 0 57.5 11t40.5 36.5t24 68t8 105.5t-8 105t-24 68t-40.5 37t-57.5 11zM389 698q21 0 37 -15t16 -38t-16 -38t-37 -15q-23 0 -38 15t-15 38t15 38t38 15zM189 698q23 0 38 -15t15 -38t-15 -38t-38 -15q-21 0 -37 15t-16 38t16 38t37 15z" />
    <glyph glyph-name="omacron" unicode="&#x14d;" horiz-adv-x="578" 
d="M289 496q47 0 91 -18.5t78.5 -51.5t55 -79.5t20.5 -103.5t-21 -103.5t-55 -79.5t-78.5 -51.5t-90.5 -18.5q-47 0 -91 18.5t-78 51.5t-55 79.5t-21 103.5t21 103.5t55 79.5t78 51.5t91 18.5zM289 464q-34 0 -58.5 -11t-40.5 -37t-23.5 -68t-7.5 -105t7.5 -105.5t23.5 -68
t40.5 -36.5t58.5 -11q33 0 57.5 11t40.5 36.5t24 68t8 105.5t-8 105t-24 68t-40.5 37t-57.5 11zM424 623h-270v44h270v-44z" />
    <glyph glyph-name="obreve" unicode="&#x14f;" horiz-adv-x="578" 
d="M289 496q47 0 91 -18.5t78.5 -51.5t55 -79.5t20.5 -103.5t-21 -103.5t-55 -79.5t-78.5 -51.5t-90.5 -18.5q-47 0 -91 18.5t-78 51.5t-55 79.5t-21 103.5t21 103.5t55 79.5t78 51.5t91 18.5zM289 464q-34 0 -58.5 -11t-40.5 -37t-23.5 -68t-7.5 -105t7.5 -105.5t23.5 -68
t40.5 -36.5t58.5 -11q33 0 57.5 11t40.5 36.5t24 68t8 105.5t-8 105t-24 68t-40.5 37t-57.5 11zM436 745q-5 -81 -44.5 -121.5t-102.5 -40.5t-102.5 40.5t-44.5 121.5h32q29 -90 115 -90t115 90h32v0z" />
    <glyph glyph-name="ohungarumlaut" unicode="&#x151;" horiz-adv-x="578" 
d="M289 496q47 0 91 -18.5t78.5 -51.5t55 -79.5t20.5 -103.5t-21 -103.5t-55 -79.5t-78.5 -51.5t-90.5 -18.5q-47 0 -91 18.5t-78 51.5t-55 79.5t-21 103.5t21 103.5t55 79.5t78 51.5t91 18.5zM289 464q-34 0 -58.5 -11t-40.5 -37t-23.5 -68t-7.5 -105t7.5 -105.5t23.5 -68
t40.5 -36.5t58.5 -11q33 0 57.5 11t40.5 36.5t24 68t8 105.5t-8 105t-24 68t-40.5 37t-57.5 11zM284 720q22 0 33 -12.5t11 -29.5q0 -28 -40 -51l-119 -68l-20 24l90 107q14 16 22.5 23t22.5 7zM454 720q22 0 33 -12.5t11 -29.5q0 -28 -40 -51l-119 -68l-20 24l90 107
q14 16 22.5 23t22.5 7z" />
    <glyph glyph-name="racute" unicode="&#x155;" horiz-adv-x="424" 
d="M206 32h77v-32h-255v32h77v422h-77v32h178v-77q15 44 45 65.5t62 21.5q48 0 81.5 -30.5t33.5 -82.5q0 -26 -15 -43t-41 -17q-20 0 -35 14.5t-15 38.5q0 13 5.5 22.5t11.5 16.5t11.5 13t5.5 14q0 22 -43 22q-20 0 -39 -12.5t-34 -35t-24.5 -53.5t-9.5 -69v-262zM297 729
q21 0 32.5 -12t11.5 -30q0 -34 -41 -55l-138 -71l-15 20l99 117q13 15 23.5 23t27.5 8z" />
    <glyph glyph-name="rcaron" unicode="&#x159;" horiz-adv-x="424" 
d="M206 32h77v-32h-255v32h77v422h-77v32h178v-77q15 44 45 65.5t62 21.5q48 0 81.5 -30.5t33.5 -82.5q0 -26 -15 -43t-41 -17q-20 0 -35 14.5t-15 38.5q0 13 5.5 22.5t11.5 16.5t11.5 13t5.5 14q0 22 -43 22q-20 0 -39 -12.5t-34 -35t-24.5 -53.5t-9.5 -69v-262zM206 565
q-38 48 -71.5 89t-71.5 77l18 18l138 -99l138 99l18 -18q-38 -36 -71.5 -77t-71.5 -89h-26z" />
    <glyph glyph-name="uni0157" unicode="&#x157;" horiz-adv-x="424" 
d="M206 32h77v-32h-255v32h77v422h-77v32h178v-77q15 44 45 65.5t62 21.5q48 0 81.5 -30.5t33.5 -82.5q0 -26 -15 -43t-41 -17q-20 0 -35 14.5t-15 38.5q0 13 5.5 22.5t11.5 16.5t11.5 13t5.5 14q0 22 -43 22q-20 0 -39 -12.5t-34 -35t-24.5 -53.5t-9.5 -69v-262zM153 -62
q25 0 41 -17t16 -49q0 -41 -22.5 -70.5t-60.5 -45.5l-12 28q6 3 14 8t15.5 11t13 12t5.5 11q0 8 -8 11.5t-21 8.5q-14 5 -22.5 15t-8.5 27q0 20 13.5 35t36.5 15z" />
    <glyph glyph-name="sacute" unicode="&#x15b;" horiz-adv-x="465" 
d="M70 354q0 32 12 58.5t33 46t48.5 30t58.5 10.5q18 0 33 -4t27.5 -8.5t23 -8.5t20.5 -4q11 0 18.5 6t7.5 19h31v-160h-31q-8 37 -22 61.5t-31 39.5t-37 21t-40 6q-38 0 -64 -19.5t-26 -47.5q0 -30 21 -48t53 -31t68.5 -25t68.5 -30t53 -46.5t21 -74.5q0 -32 -12.5 -60.5
t-35 -50.5t-54.5 -34.5t-72 -12.5q-20 0 -38.5 4.5t-35 10.5t-31 10.5t-26.5 4.5q-24 0 -27 -26h-31v201h31q5 -44 20.5 -76.5t37 -54t48 -32t52.5 -10.5q39 0 66.5 20t27.5 54q0 37 -20 58.5t-49.5 36t-64 26t-64 28t-49.5 42.5t-20 70zM309 729q21 0 32.5 -12t11.5 -30
q0 -34 -41 -55l-138 -71l-15 20l99 117q13 15 23.5 23t27.5 8z" />
    <glyph glyph-name="scircumflex" unicode="&#x15d;" horiz-adv-x="465" 
d="M70 354q0 32 12 58.5t33 46t48.5 30t58.5 10.5q18 0 33 -4t27.5 -8.5t23 -8.5t20.5 -4q11 0 18.5 6t7.5 19h31v-160h-31q-8 37 -22 61.5t-31 39.5t-37 21t-40 6q-38 0 -64 -19.5t-26 -47.5q0 -30 21 -48t53 -31t68.5 -25t68.5 -30t53 -46.5t21 -74.5q0 -32 -12.5 -60.5
t-35 -50.5t-54.5 -34.5t-72 -12.5q-20 0 -38.5 4.5t-35 10.5t-31 10.5t-26.5 4.5q-24 0 -27 -26h-31v201h31q5 -44 20.5 -76.5t37 -54t48 -32t52.5 -10.5q39 0 66.5 20t27.5 54q0 37 -20 58.5t-49.5 36t-64 26t-64 28t-49.5 42.5t-20 70zM244 736q38 -48 71.5 -89t71.5 -77
l-18 -18l-138 99l-138 -99l-18 18q38 36 71.5 77t71.5 89h26z" />
    <glyph glyph-name="scaron" unicode="&#x161;" horiz-adv-x="465" 
d="M70 354q0 32 12 58.5t33 46t48.5 30t58.5 10.5q18 0 33 -4t27.5 -8.5t23 -8.5t20.5 -4q11 0 18.5 6t7.5 19h31v-160h-31q-8 37 -22 61.5t-31 39.5t-37 21t-40 6q-38 0 -64 -19.5t-26 -47.5q0 -30 21 -48t53 -31t68.5 -25t68.5 -30t53 -46.5t21 -74.5q0 -32 -12.5 -60.5
t-35 -50.5t-54.5 -34.5t-72 -12.5q-20 0 -38.5 4.5t-35 10.5t-31 10.5t-26.5 4.5q-24 0 -27 -26h-31v201h31q5 -44 20.5 -76.5t37 -54t48 -32t52.5 -10.5q39 0 66.5 20t27.5 54q0 37 -20 58.5t-49.5 36t-64 26t-64 28t-49.5 42.5t-20 70zM218 565q-38 48 -71.5 89t-71.5 77
l18 18l138 -99l138 99l18 -18q-38 -36 -71.5 -77t-71.5 -89h-26z" />
    <glyph glyph-name="scedilla" unicode="&#x15f;" horiz-adv-x="465" 
d="M206 -8q-26 5 -51 15t-43 10q-24 0 -27 -26h-31v201h31q5 -44 20.5 -76.5t37 -54t48 -32t52.5 -10.5q39 0 66.5 20t27.5 54q0 37 -20 58.5t-49.5 36t-64 26t-64 28t-49.5 42.5t-20 70q0 32 12 58.5t33 46t48.5 30t58.5 10.5q18 0 33 -4t27.5 -8.5t23 -8.5t20.5 -4
q11 0 18.5 6t7.5 19h31v-160h-31q-8 37 -22 61.5t-31 39.5t-37 21t-40 6q-38 0 -64 -19.5t-26 -47.5q0 -30 21 -48t53 -31t68.5 -25t68.5 -30t53 -46.5t21 -74.5q0 -32 -12.5 -60.5t-35 -50.5t-54.5 -34.5t-72 -12.5h-5l-26 -40q1 0 8 2.5t21 2.5q35 0 57 -20t22 -53
q0 -23 -8 -40t-21.5 -28t-31 -16.5t-35.5 -5.5q-38 0 -61.5 19.5t-37.5 47.5l16 26q10 -25 29 -43t46 -18q18 0 32 12t14 39q0 22 -11.5 35t-33.5 13q-12 0 -22 -5l-24 23z" />
    <glyph glyph-name="uni0219" unicode="&#x219;" horiz-adv-x="465" 
d="M70 354q0 32 12 58.5t33 46t48.5 30t58.5 10.5q18 0 33 -4t27.5 -8.5t23 -8.5t20.5 -4q11 0 18.5 6t7.5 19h31v-160h-31q-8 37 -22 61.5t-31 39.5t-37 21t-40 6q-38 0 -64 -19.5t-26 -47.5q0 -30 21 -48t53 -31t68.5 -25t68.5 -30t53 -46.5t21 -74.5q0 -32 -12.5 -60.5
t-35 -50.5t-54.5 -34.5t-72 -12.5q-20 0 -38.5 4.5t-35 10.5t-31 10.5t-26.5 4.5q-24 0 -27 -26h-31v201h31q5 -44 20.5 -76.5t37 -54t48 -32t52.5 -10.5q39 0 66.5 20t27.5 54q0 37 -20 58.5t-49.5 36t-64 26t-64 28t-49.5 42.5t-20 70zM239 -62q25 0 41 -17t16 -49
q0 -41 -22.5 -70.5t-60.5 -45.5l-12 28q6 3 14 8t15.5 11t13 12t5.5 11q0 8 -8 11.5t-21 8.5q-14 5 -22.5 15t-8.5 27q0 20 13.5 35t36.5 15z" />
    <glyph glyph-name="tcaron" unicode="&#x165;" horiz-adv-x="367" 
d="M345 143q-4 -81 -33.5 -119t-92.5 -38q-66 0 -104 31t-38 101v336h-86v32h86v125q10 -3 23 -3q20 0 39.5 9t34.5 26h4v-157h156v-32h-156v-329q0 -56 14.5 -77.5t42.5 -21.5q31 0 53 27t25 90h32zM292 751q23 0 34.5 -14.5t11.5 -32.5q0 -8 -2 -15.5t-6.5 -16t-11 -20
t-16.5 -27.5l-52 -90h-30l19 155q4 28 16.5 44.5t36.5 16.5z" />
    <glyph glyph-name="uni0163" unicode="&#x163;" horiz-adv-x="367" 
d="M345 143q-4 -81 -33.5 -119t-92.5 -38q-66 0 -104 31t-38 101v336h-86v32h86v125q10 -3 23 -3q20 0 39.5 9t34.5 26h4v-157h156v-32h-156v-329q0 -56 14.5 -77.5t42.5 -21.5q31 0 53 27t25 90h32zM205 -62q25 0 41 -17t16 -49q0 -41 -22.5 -70.5t-60.5 -45.5l-12 28
q6 3 14 8t15.5 11t13 12t5.5 11q0 8 -8 11.5t-21 8.5q-14 5 -22.5 15t-8.5 27q0 20 13.5 35t36.5 15z" />
    <glyph glyph-name="uni021B" unicode="&#x21b;" horiz-adv-x="367" 
d="M345 143q-4 -81 -33.5 -119t-92.5 -38q-66 0 -104 31t-38 101v336h-86v32h86v125q10 -3 23 -3q20 0 39.5 9t34.5 26h4v-157h156v-32h-156v-329q0 -56 14.5 -77.5t42.5 -21.5q31 0 53 27t25 90h32zM205 -62q25 0 41 -17t16 -49q0 -41 -22.5 -70.5t-60.5 -45.5l-12 28
q6 3 14 8t15.5 11t13 12t5.5 11q0 8 -8 11.5t-21 8.5q-14 5 -22.5 15t-8.5 27q0 20 13.5 35t36.5 15z" />
    <glyph glyph-name="ugrave" unicode="&#xf9;" horiz-adv-x="623" 
d="M414 454h-77v32h178v-454h77v-32h-178v116q-12 -60 -52 -95t-93 -35q-37 0 -68 11t-53.5 34t-35.5 59t-13 86v278h-77v32h178v-332q0 -69 23 -96.5t68 -27.5q22 0 44 14t39.5 42t28.5 69.5t11 95.5v203zM243 729q17 0 27.5 -8t23.5 -23l99 -117l-15 -20l-138 71
q-41 21 -41 55q0 18 11.5 30t32.5 12z" />
    <glyph glyph-name="uacute" unicode="&#xfa;" horiz-adv-x="623" 
d="M414 454h-77v32h178v-454h77v-32h-178v116q-12 -60 -52 -95t-93 -35q-37 0 -68 11t-53.5 34t-35.5 59t-13 86v278h-77v32h178v-332q0 -69 23 -96.5t68 -27.5q22 0 44 14t39.5 42t28.5 69.5t11 95.5v203zM377 729q21 0 32.5 -12t11.5 -30q0 -34 -41 -55l-138 -71l-15 20
l99 117q13 15 23.5 23t27.5 8z" />
    <glyph glyph-name="ucircumflex" unicode="&#xfb;" horiz-adv-x="623" 
d="M414 454h-77v32h178v-454h77v-32h-178v116q-12 -60 -52 -95t-93 -35q-37 0 -68 11t-53.5 34t-35.5 59t-13 86v278h-77v32h178v-332q0 -69 23 -96.5t68 -27.5q22 0 44 14t39.5 42t28.5 69.5t11 95.5v203zM312 736q38 -48 71.5 -89t71.5 -77l-18 -18l-138 99l-138 -99
l-18 18q38 36 71.5 77t71.5 89h26z" />
    <glyph glyph-name="utilde" unicode="&#x169;" horiz-adv-x="623" 
d="M414 454h-77v32h178v-454h77v-32h-178v116q-12 -60 -52 -95t-93 -35q-37 0 -68 11t-53.5 34t-35.5 59t-13 86v278h-77v32h178v-332q0 -69 23 -96.5t68 -27.5q22 0 44 14t39.5 42t28.5 69.5t11 95.5v203zM456 711q0 -59 -22.5 -91.5t-69.5 -32.5q-23 0 -42 8.5t-35.5 18.5
t-32 18.5t-30.5 8.5q-25 0 -38 -18t-13 -44h-31q0 59 22.5 91.5t69.5 32.5q22 0 41.5 -8.5t36 -18.5t32 -18.5t30.5 -8.5q25 0 38 18t13 44h31z" />
    <glyph glyph-name="udieresis" unicode="&#xfc;" horiz-adv-x="623" 
d="M414 454h-77v32h178v-454h77v-32h-178v116q-12 -60 -52 -95t-93 -35q-37 0 -68 11t-53.5 34t-35.5 59t-13 86v278h-77v32h178v-332q0 -69 23 -96.5t68 -27.5q22 0 44 14t39.5 42t28.5 69.5t11 95.5v203zM399 698q21 0 37 -15t16 -38t-16 -38t-37 -15q-23 0 -38 15t-15 38
t15 38t38 15zM199 698q23 0 38 -15t15 -38t-15 -38t-38 -15q-21 0 -37 15t-16 38t16 38t37 15z" />
    <glyph glyph-name="umacron" unicode="&#x16b;" horiz-adv-x="623" 
d="M414 454h-77v32h178v-454h77v-32h-178v116q-12 -60 -52 -95t-93 -35q-37 0 -68 11t-53.5 34t-35.5 59t-13 86v278h-77v32h178v-332q0 -69 23 -96.5t68 -27.5q22 0 44 14t39.5 42t28.5 69.5t11 95.5v203zM434 623h-270v44h270v-44z" />
    <glyph glyph-name="ubreve" unicode="&#x16d;" horiz-adv-x="623" 
d="M414 454h-77v32h178v-454h77v-32h-178v116q-12 -60 -52 -95t-93 -35q-37 0 -68 11t-53.5 34t-35.5 59t-13 86v278h-77v32h178v-332q0 -69 23 -96.5t68 -27.5q22 0 44 14t39.5 42t28.5 69.5t11 95.5v203zM446 745q-5 -81 -44.5 -121.5t-102.5 -40.5t-102.5 40.5
t-44.5 121.5h32q29 -90 115 -90t115 90h32v0z" />
    <glyph glyph-name="uring" unicode="&#x16f;" horiz-adv-x="623" 
d="M414 454h-77v32h178v-454h77v-32h-178v116q-12 -60 -52 -95t-93 -35q-37 0 -68 11t-53.5 34t-35.5 59t-13 86v278h-77v32h178v-332q0 -69 23 -96.5t68 -27.5q22 0 44 14t39.5 42t28.5 69.5t11 95.5v203zM299 725q33 0 56.5 -23.5t23.5 -55.5q0 -33 -23.5 -56.5
t-56.5 -23.5q-32 0 -55.5 23.5t-23.5 56.5q0 32 23.5 55.5t55.5 23.5zM299 695q-20 0 -34.5 -14.5t-14.5 -34.5q0 -21 14.5 -35.5t34.5 -14.5q21 0 35.5 14.5t14.5 35.5q0 20 -14.5 34.5t-35.5 14.5z" />
    <glyph glyph-name="uhungarumlaut" unicode="&#x171;" horiz-adv-x="623" 
d="M414 454h-77v32h178v-454h77v-32h-178v116q-12 -60 -52 -95t-93 -35q-37 0 -68 11t-53.5 34t-35.5 59t-13 86v278h-77v32h178v-332q0 -69 23 -96.5t68 -27.5q22 0 44 14t39.5 42t28.5 69.5t11 95.5v203zM294 720q22 0 33 -12.5t11 -29.5q0 -28 -40 -51l-119 -68l-20 24
l90 107q14 16 22.5 23t22.5 7zM464 720q22 0 33 -12.5t11 -29.5q0 -28 -40 -51l-119 -68l-20 24l90 107q14 16 22.5 23t22.5 7z" />
    <glyph glyph-name="uogonek" unicode="&#x173;" horiz-adv-x="623" 
d="M521 -167q-22 -26 -49.5 -41t-62.5 -15q-40 0 -55.5 19t-15.5 49q0 13 6 28t20.5 33.5t39 41.5t62.5 52h-52v116q-12 -60 -52 -95t-93 -35q-37 0 -68 11t-53.5 34t-35.5 59t-13 86v278h-77v32h178v-332q0 -69 23 -96.5t68 -27.5q22 0 44 14t39.5 42t28.5 69.5t11 95.5
v203h-77v32h178v-454h77v-32h-89q-22 -23 -36.5 -41t-23.5 -34.5t-13 -33.5t-4 -36q0 -33 26 -33q13 0 25 10t19 20z" />
    <glyph glyph-name="wcircumflex" unicode="&#x175;" horiz-adv-x="784" 
d="M554 -16h-19l-143 381l-143 -381h-19l-176 470h-72v32h229v-32h-50l114 -307l100 265l-16 42h-62v32h229v-32h-60l114 -307l115 307h-44v32h149v-32h-70zM433 736q38 -48 71.5 -89t71.5 -77l-18 -18l-138 99l-138 -99l-18 18q38 36 71.5 77t71.5 89h26z" />
    <glyph glyph-name="wdieresis" unicode="&#x1e85;" horiz-adv-x="784" 
d="M554 -16h-19l-143 381l-143 -381h-19l-176 470h-72v32h229v-32h-50l114 -307l100 265l-16 42h-62v32h229v-32h-60l114 -307l115 307h-44v32h149v-32h-70zM520 698q21 0 37 -15t16 -38t-16 -38t-37 -15q-23 0 -38 15t-15 38t15 38t38 15zM320 698q23 0 38 -15t15 -38
t-15 -38t-38 -15q-21 0 -37 15t-16 38t16 38t37 15z" />
    <glyph glyph-name="wacute" unicode="&#x1e83;" horiz-adv-x="784" 
d="M554 -16h-19l-143 381l-143 -381h-19l-176 470h-72v32h229v-32h-50l114 -307l100 265l-16 42h-62v32h229v-32h-60l114 -307l115 307h-44v32h149v-32h-70zM499 729q21 0 32.5 -12t11.5 -30q0 -34 -41 -55l-138 -71l-15 20l99 117q13 15 23.5 23t27.5 8z" />
    <glyph glyph-name="wgrave" unicode="&#x1e81;" horiz-adv-x="784" 
d="M554 -16h-19l-143 381l-143 -381h-19l-176 470h-72v32h229v-32h-50l114 -307l100 265l-16 42h-62v32h229v-32h-60l114 -307l115 307h-44v32h149v-32h-70zM366 729q17 0 27.5 -8t23.5 -23l99 -117l-15 -20l-138 71q-41 21 -41 55q0 18 11.5 30t32.5 12z" />
    <glyph glyph-name="yacute" unicode="&#xfd;" horiz-adv-x="492" 
d="M71 -105q0 -15 -6 -23.5t-13 -14.5t-13 -11.5t-6 -14.5q0 -11 16.5 -17t33.5 -6q19 0 35 7t31.5 25t32 49t35.5 79l16 43l-183 443h-73v32h241v-32h-59l126 -305l115 305h-60v32h164v-32h-70l-184 -492q-21 -56 -40 -92t-39 -56.5t-41.5 -28.5t-46.5 -8t-46.5 7.5
t-37.5 21.5t-25.5 33.5t-9.5 42.5q0 29 17 48.5t40 19.5q21 0 35.5 -15.5t14.5 -39.5zM340 729q21 0 32.5 -12t11.5 -30q0 -34 -41 -55l-138 -71l-15 20l99 117q13 15 23.5 23t27.5 8z" />
    <glyph glyph-name="ycircumflex" unicode="&#x177;" horiz-adv-x="492" 
d="M71 -105q0 -15 -6 -23.5t-13 -14.5t-13 -11.5t-6 -14.5q0 -11 16.5 -17t33.5 -6q19 0 35 7t31.5 25t32 49t35.5 79l16 43l-183 443h-73v32h241v-32h-59l126 -305l115 305h-60v32h164v-32h-70l-184 -492q-21 -56 -40 -92t-39 -56.5t-41.5 -28.5t-46.5 -8t-46.5 7.5
t-37.5 21.5t-25.5 33.5t-9.5 42.5q0 29 17 48.5t40 19.5q21 0 35.5 -15.5t14.5 -39.5zM273 736q38 -48 71.5 -89t71.5 -77l-18 -18l-138 99l-138 -99l-18 18q38 36 71.5 77t71.5 89h26z" />
    <glyph glyph-name="ydieresis" unicode="&#xff;" horiz-adv-x="492" 
d="M71 -105q0 -15 -6 -23.5t-13 -14.5t-13 -11.5t-6 -14.5q0 -11 16.5 -17t33.5 -6q19 0 35 7t31.5 25t32 49t35.5 79l16 43l-183 443h-73v32h241v-32h-59l126 -305l115 305h-60v32h164v-32h-70l-184 -492q-21 -56 -40 -92t-39 -56.5t-41.5 -28.5t-46.5 -8t-46.5 7.5
t-37.5 21.5t-25.5 33.5t-9.5 42.5q0 29 17 48.5t40 19.5q21 0 35.5 -15.5t14.5 -39.5zM360 698q21 0 37 -15t16 -38t-16 -38t-37 -15q-23 0 -38 15t-15 38t15 38t38 15zM160 698q23 0 38 -15t15 -38t-15 -38t-38 -15q-21 0 -37 15t-16 38t16 38t37 15z" />
    <glyph glyph-name="ygrave" unicode="&#x1ef3;" horiz-adv-x="492" 
d="M71 -105q0 -15 -6 -23.5t-13 -14.5t-13 -11.5t-6 -14.5q0 -11 16.5 -17t33.5 -6q19 0 35 7t31.5 25t32 49t35.5 79l16 43l-183 443h-73v32h241v-32h-59l126 -305l115 305h-60v32h164v-32h-70l-184 -492q-21 -56 -40 -92t-39 -56.5t-41.5 -28.5t-46.5 -8t-46.5 7.5
t-37.5 21.5t-25.5 33.5t-9.5 42.5q0 29 17 48.5t40 19.5q21 0 35.5 -15.5t14.5 -39.5zM197 729q17 0 27.5 -8t23.5 -23l99 -117l-15 -20l-138 71q-41 21 -41 55q0 18 11.5 30t32.5 12z" />
    <glyph glyph-name="zacute" unicode="&#x17a;" horiz-adv-x="494" 
d="M244 456q-35 0 -64 -11.5t-49.5 -32.5t-31.5 -49t-11 -61h-31v184h387l-282 -456h109q35 0 63.5 11.5t49 32.5t32 49t11.5 61h31v-184h-424l282 456h-72zM336 729q21 0 32.5 -12t11.5 -30q0 -34 -41 -55l-138 -71l-15 20l99 117q13 15 23.5 23t27.5 8z" />
    <glyph glyph-name="zcaron" unicode="&#x17e;" horiz-adv-x="494" 
d="M244 456q-35 0 -64 -11.5t-49.5 -32.5t-31.5 -49t-11 -61h-31v184h387l-282 -456h109q35 0 63.5 11.5t49 32.5t32 49t11.5 61h31v-184h-424l282 456h-72zM244 565q-38 48 -71.5 89t-71.5 77l18 18l138 -99l138 99l18 -18q-38 -36 -71.5 -77t-71.5 -89h-26z" />
    <glyph glyph-name="zdotaccent" unicode="&#x17c;" horiz-adv-x="494" 
d="M244 456q-35 0 -64 -11.5t-49.5 -32.5t-31.5 -49t-11 -61h-31v184h387l-282 -456h109q35 0 63.5 11.5t49 32.5t32 49t11.5 61h31v-184h-424l282 456h-72zM257 710q24 0 40.5 -16.5t16.5 -40.5t-16.5 -40.5t-40.5 -16.5t-40.5 16.5t-16.5 40.5t16.5 40.5t40.5 16.5z" />
    <glyph glyph-name="jcircumflex" unicode="&#x135;" horiz-adv-x="292" 
d="M21 -105q0 -13 -6.5 -20.5t-14.5 -13.5t-14.5 -12t-6.5 -15q0 -11 13.5 -18t33.5 -7q19 0 32 4.5t21.5 17t12.5 34t4 55.5v534h-77v32h178v-477q0 -58 -14 -101.5t-37.5 -72.5t-54.5 -43.5t-65 -14.5q-49 0 -80 29t-31 76q0 27 16 45.5t40 18.5q22 0 36 -15t14 -36z
M161 736q38 -48 71.5 -89t71.5 -77l-18 -18l-138 99l-138 -99l-18 18q38 36 71.5 77t71.5 89h26z" />
    <glyph glyph-name="uni0137" unicode="&#x137;" horiz-adv-x="575" 
d="M541 32h48v-32h-249v32h73l-167 234l-37 -29v-205h55v-32h-233v32h77v681h-77v32h178v-465l228 174h-93v32h216v-32h-67l-166 -127zM298 -62q25 0 41 -17t16 -49q0 -41 -22.5 -70.5t-60.5 -45.5l-12 28q6 3 14 8t15.5 11t13 12t5.5 11q0 8 -8 11.5t-21 8.5
q-14 5 -22.5 15t-8.5 27q0 20 13.5 35t36.5 15z" />
    <glyph glyph-name="nacute" unicode="&#x144;" horiz-adv-x="643" 
d="M206 32h71v-32h-249v32h77v422h-77v32h178v-116q13 60 55.5 95t98.5 35q39 0 72 -11t57.5 -34t38 -59t13.5 -86v-278h77v-32h-249v32h71v300q0 69 -25 96.5t-75 27.5q-24 0 -48 -14t-43 -42t-31 -69.5t-12 -95.5v-203zM389 729q21 0 32.5 -12t11.5 -30q0 -34 -41 -55
l-138 -71l-15 20l99 117q13 15 23.5 23t27.5 8z" />
    <glyph glyph-name="ncaron" unicode="&#x148;" horiz-adv-x="643" 
d="M206 32h71v-32h-249v32h77v422h-77v32h178v-116q13 60 55.5 95t98.5 35q39 0 72 -11t57.5 -34t38 -59t13.5 -86v-278h77v-32h-249v32h71v300q0 69 -25 96.5t-75 27.5q-24 0 -48 -14t-43 -42t-31 -69.5t-12 -95.5v-203zM297 565q-38 48 -71.5 89t-71.5 77l18 18l138 -99
l138 99l18 -18q-38 -36 -71.5 -77t-71.5 -89h-26z" />
    <glyph glyph-name="uni0146" unicode="&#x146;" horiz-adv-x="643" 
d="M206 32h71v-32h-249v32h77v422h-77v32h178v-116q13 60 55.5 95t98.5 35q39 0 72 -11t57.5 -34t38 -59t13.5 -86v-278h77v-32h-249v32h71v300q0 69 -25 96.5t-75 27.5q-24 0 -48 -14t-43 -42t-31 -69.5t-12 -95.5v-203zM320 -62q25 0 41 -17t16 -49q0 -41 -22.5 -70.5
t-60.5 -45.5l-12 28q6 3 14 8t15.5 11t13 12t5.5 11q0 8 -8 11.5t-21 8.5q-14 5 -22.5 15t-8.5 27q0 20 13.5 35t36.5 15z" />
    <glyph glyph-name="lacute" unicode="&#x13a;" horiz-adv-x="317" 
d="M209 32h77v-32h-255v32h77v681h-77v32h178v-713zM254 905q22 0 33 -12t11 -32t-14.5 -33t-40.5 -21l-152 -45l-11 25l120 92q17 14 28 20t26 6z" />
    <glyph glyph-name="uni013C" unicode="&#x13c;" horiz-adv-x="317" 
d="M209 32h77v-32h-255v32h77v681h-77v32h178v-713zM156 -62q25 0 41 -17t16 -49q0 -41 -22.5 -70.5t-60.5 -45.5l-12 28q6 3 14 8t15.5 11t13 12t5.5 11q0 8 -8 11.5t-21 8.5q-14 5 -22.5 15t-8.5 27q0 20 13.5 35t36.5 15z" />
    <glyph glyph-name="lcaron" unicode="&#x13e;" horiz-adv-x="317" 
d="M209 32h77v-32h-255v32h77v681h-77v32h178v-713zM323 751q23 0 34.5 -14.5t11.5 -32.5q0 -8 -2 -15.5t-6.5 -16t-11 -20t-16.5 -27.5l-52 -90h-30l19 155q4 28 16.5 44.5t36.5 16.5z" />
    <glyph glyph-name="ldot" unicode="&#x140;" horiz-adv-x="352" 
d="M209 32h77v-32h-255v32h77v681h-77v32h178v-713zM333 425q27 0 46 -19t19 -46t-19 -46t-46 -19t-46 19t-19 46t19 46t46 19z" />
    <glyph glyph-name="hcircumflex" unicode="&#x125;" horiz-adv-x="646" 
d="M343 456q-24 0 -48 -14t-43 -42t-31 -69.5t-12 -95.5v-203h71v-32h-249v32h77v681h-77v32h178v-375q13 60 55.5 95t98.5 35q39 0 72 -11t57.5 -34t38 -59t13.5 -86v-278h77v-32h-249v32h71v300q0 69 -25 96.5t-75 27.5zM324 970q38 -48 71.5 -89t71.5 -77l-18 -18
l-138 99l-138 -99l-18 18q38 36 71.5 77t71.5 89h26z" />
    <glyph glyph-name="iacute" unicode="&#xed;" horiz-adv-x="317" 
d="M209 32h77v-32h-255v32h77v422h-77v32h178v-454zM236 729q21 0 32.5 -12t11.5 -30q0 -34 -41 -55l-138 -71l-15 20l99 117q13 15 23.5 23t27.5 8z" />
    <glyph glyph-name="icircumflex" unicode="&#xee;" horiz-adv-x="317" 
d="M209 32h77v-32h-255v32h77v422h-77v32h178v-454zM173 736q38 -48 71.5 -89t71.5 -77l-18 -18l-138 99l-138 -99l-18 18q38 36 71.5 77t71.5 89h26z" />
    <glyph glyph-name="itilde" unicode="&#x129;" horiz-adv-x="317" 
d="M209 32h77v-32h-255v32h77v422h-77v32h178v-454zM317 711q0 -59 -22.5 -91.5t-69.5 -32.5q-23 0 -42 8.5t-35.5 18.5t-32 18.5t-30.5 8.5q-25 0 -38 -18t-13 -44h-31q0 59 22.5 91.5t69.5 32.5q22 0 41.5 -8.5t36 -18.5t32 -18.5t30.5 -8.5q25 0 38 18t13 44h31z" />
    <glyph glyph-name="idieresis" unicode="&#xef;" horiz-adv-x="317" 
d="M209 32h77v-32h-255v32h77v422h-77v32h178v-454zM260 698q21 0 37 -15t16 -38t-16 -38t-37 -15q-23 0 -38 15t-15 38t15 38t38 15zM60 698q23 0 38 -15t15 -38t-15 -38t-38 -15q-21 0 -37 15t-16 38t16 38t37 15z" />
    <glyph glyph-name="imacron" unicode="&#x12b;" horiz-adv-x="317" 
d="M209 32h77v-32h-255v32h77v422h-77v32h178v-454zM295 623h-270v44h270v-44z" />
    <glyph glyph-name="ibreve" unicode="&#x12d;" horiz-adv-x="317" 
d="M209 32h77v-32h-255v32h77v422h-77v32h178v-454zM307 745q-5 -81 -44.5 -121.5t-102.5 -40.5t-102.5 40.5t-44.5 121.5h32q29 -90 115 -90t115 90h32v0z" />
    <glyph glyph-name="iogonek" unicode="&#x12f;" horiz-adv-x="317" 
d="M223 -167q-22 -26 -49.5 -41t-62.5 -15q-40 0 -55.5 19t-15.5 49q0 13 6 28t20.5 33.5t39 41.5t62.5 52h-137v32h77v422h-77v32h178v-454h77v-32h-81q-22 -23 -36.5 -41t-23.5 -34.5t-13 -33.5t-4 -36q0 -33 26 -33q13 0 25 10t19 20zM158 710q24 0 40.5 -16.5
t16.5 -40.5t-16.5 -40.5t-40.5 -16.5t-40.5 16.5t-16.5 40.5t16.5 40.5t40.5 16.5z" />
    <glyph glyph-name="uni0123" unicode="&#x123;" horiz-adv-x="529" 
d="M374 91q54 -4 90.5 -37.5t36.5 -89.5q0 -85 -63 -136t-185 -51q-114 0 -170 32t-56 93q0 46 31.5 74t73.5 39q-50 12 -72.5 38.5t-22.5 66.5q0 49 25 78t70 29h4q-28 20 -43.5 49.5t-15.5 67.5q0 34 13.5 62t37.5 48t58.5 31t76.5 11q36 0 62.5 -7t46.5 -18q-2 5 -3.5 13
t-1.5 19q0 43 27 68t65 25q27 0 41 -12.5t14 -32.5q0 -22 -12.5 -35t-32.5 -13q-11 0 -18.5 4.5t-13.5 10.5t-11 10.5t-12 4.5q-8 0 -11.5 -8t-3.5 -22q0 -22 3.5 -38.5t11.5 -24.5q17 -20 26 -41.5t9 -53.5q0 -35 -13.5 -63t-37.5 -48t-58.5 -31t-76.5 -11q-20 0 -33.5 2
t-23 4t-17.5 4t-18 2q-39 0 -56.5 -10t-17.5 -36q0 -23 15.5 -39t56.5 -21q16 -2 31.5 -3t31.5 -2h61h43.5t37.5 -2zM416 -92q0 40 -24.5 60.5t-75.5 26.5q-38 5 -76 6t-70 6q-32 -17 -52.5 -39t-20.5 -56q0 -21 7.5 -40t25.5 -33t48 -22t75 -8q77 0 120 26t43 73zM263 469
q-91 0 -91 -125t91 -125t91 125t-91 125zM264 596q-25 0 -41 17t-16 49q0 41 22.5 70.5t60.5 45.5l12 -28q-6 -3 -14 -8t-15.5 -11t-13 -12t-5.5 -11q0 -8 8 -11.5t21 -8.5q14 -5 22.5 -15t8.5 -27q0 -20 -13.5 -35t-36.5 -15z" />
    <glyph glyph-name="gdotaccent" unicode="&#x121;" horiz-adv-x="529" 
d="M374 91q54 -4 90.5 -37.5t36.5 -89.5q0 -85 -63 -136t-185 -51q-114 0 -170 32t-56 93q0 46 31.5 74t73.5 39q-50 12 -72.5 38.5t-22.5 66.5q0 49 25 78t70 29h4q-28 20 -43.5 49.5t-15.5 67.5q0 34 13.5 62t37.5 48t58.5 31t76.5 11q36 0 62.5 -7t46.5 -18q-2 5 -3.5 13
t-1.5 19q0 43 27 68t65 25q27 0 41 -12.5t14 -32.5q0 -22 -12.5 -35t-32.5 -13q-11 0 -18.5 4.5t-13.5 10.5t-11 10.5t-12 4.5q-8 0 -11.5 -8t-3.5 -22q0 -22 3.5 -38.5t11.5 -24.5q17 -20 26 -41.5t9 -53.5q0 -35 -13.5 -63t-37.5 -48t-58.5 -31t-76.5 -11q-20 0 -33.5 2
t-23 4t-17.5 4t-18 2q-39 0 -56.5 -10t-17.5 -36q0 -23 15.5 -39t56.5 -21q16 -2 31.5 -3t31.5 -2h61h43.5t37.5 -2zM416 -92q0 40 -24.5 60.5t-75.5 26.5q-38 5 -76 6t-70 6q-32 -17 -52.5 -39t-20.5 -56q0 -21 7.5 -40t25.5 -33t48 -22t75 -8q77 0 120 26t43 73zM263 469
q-91 0 -91 -125t91 -125t91 125t-91 125zM264 710q24 0 40.5 -16.5t16.5 -40.5t-16.5 -40.5t-40.5 -16.5t-40.5 16.5t-16.5 40.5t16.5 40.5t40.5 16.5z" />
    <glyph glyph-name="gbreve" unicode="&#x11f;" horiz-adv-x="529" 
d="M374 91q54 -4 90.5 -37.5t36.5 -89.5q0 -85 -63 -136t-185 -51q-114 0 -170 32t-56 93q0 46 31.5 74t73.5 39q-50 12 -72.5 38.5t-22.5 66.5q0 49 25 78t70 29h4q-28 20 -43.5 49.5t-15.5 67.5q0 34 13.5 62t37.5 48t58.5 31t76.5 11q36 0 62.5 -7t46.5 -18q-2 5 -3.5 13
t-1.5 19q0 43 27 68t65 25q27 0 41 -12.5t14 -32.5q0 -22 -12.5 -35t-32.5 -13q-11 0 -18.5 4.5t-13.5 10.5t-11 10.5t-12 4.5q-8 0 -11.5 -8t-3.5 -22q0 -22 3.5 -38.5t11.5 -24.5q17 -20 26 -41.5t9 -53.5q0 -35 -13.5 -63t-37.5 -48t-58.5 -31t-76.5 -11q-20 0 -33.5 2
t-23 4t-17.5 4t-18 2q-39 0 -56.5 -10t-17.5 -36q0 -23 15.5 -39t56.5 -21q16 -2 31.5 -3t31.5 -2h61h43.5t37.5 -2zM416 -92q0 40 -24.5 60.5t-75.5 26.5q-38 5 -76 6t-70 6q-32 -17 -52.5 -39t-20.5 -56q0 -21 7.5 -40t25.5 -33t48 -22t75 -8q77 0 120 26t43 73zM263 469
q-91 0 -91 -125t91 -125t91 125t-91 125zM411 745q-5 -81 -44.5 -121.5t-102.5 -40.5t-102.5 40.5t-44.5 121.5h32q29 -90 115 -90t115 90h32v0z" />
    <glyph glyph-name="gcircumflex" unicode="&#x11d;" horiz-adv-x="529" 
d="M374 91q54 -4 90.5 -37.5t36.5 -89.5q0 -85 -63 -136t-185 -51q-114 0 -170 32t-56 93q0 46 31.5 74t73.5 39q-50 12 -72.5 38.5t-22.5 66.5q0 49 25 78t70 29h4q-28 20 -43.5 49.5t-15.5 67.5q0 34 13.5 62t37.5 48t58.5 31t76.5 11q36 0 62.5 -7t46.5 -18q-2 5 -3.5 13
t-1.5 19q0 43 27 68t65 25q27 0 41 -12.5t14 -32.5q0 -22 -12.5 -35t-32.5 -13q-11 0 -18.5 4.5t-13.5 10.5t-11 10.5t-12 4.5q-8 0 -11.5 -8t-3.5 -22q0 -22 3.5 -38.5t11.5 -24.5q17 -20 26 -41.5t9 -53.5q0 -35 -13.5 -63t-37.5 -48t-58.5 -31t-76.5 -11q-20 0 -33.5 2
t-23 4t-17.5 4t-18 2q-39 0 -56.5 -10t-17.5 -36q0 -23 15.5 -39t56.5 -21q16 -2 31.5 -3t31.5 -2h61h43.5t37.5 -2zM416 -92q0 40 -24.5 60.5t-75.5 26.5q-38 5 -76 6t-70 6q-32 -17 -52.5 -39t-20.5 -56q0 -21 7.5 -40t25.5 -33t48 -22t75 -8q77 0 120 26t43 73zM263 469
q-91 0 -91 -125t91 -125t91 125t-91 125zM277 796q38 -48 71.5 -89t71.5 -77l-18 -18l-138 99l-138 -99l-18 18q38 36 71.5 77t71.5 89h26z" />
    <glyph glyph-name="eogonek" unicode="&#x119;" horiz-adv-x="521" 
d="M159 244q0 -62 7.5 -104t23.5 -67.5t40 -36t57 -10.5q29 0 53 9.5t42.5 26t30.5 38.5t18 47h33q-5 -32 -17 -54.5t-29 -44.5q-17 -20 -31 -36.5t-27 -31.5q-24 -29 -39.5 -57.5t-15.5 -67.5q0 -33 26 -33q13 0 25 10t19 20l25 -19q-22 -26 -49.5 -41t-62.5 -15
q-40 0 -55.5 19t-15.5 49q0 33 34.5 72t98.5 85q-17 -5 -36 -8.5t-40 -3.5q-44 0 -85.5 17.5t-73.5 50t-51.5 79.5t-19.5 107q0 59 18.5 106t48.5 79.5t68.5 49.5t79.5 17t80 -15.5t69.5 -45.5t49 -74.5t18.5 -102.5h-317v-14zM361 290q0 50 -6 83.5t-18.5 53.5t-32 28.5
t-45.5 8.5q-24 0 -41.5 -9t-30 -29t-19.5 -53.5t-8 -82.5h201z" />
    <glyph glyph-name="edotaccent" unicode="&#x117;" horiz-adv-x="521" 
d="M159 244q0 -62 7.5 -104t23.5 -67.5t40 -36t57 -10.5q29 0 53 9.5t42.5 26t30.5 38.5t18 47h33q-6 -33 -20.5 -62t-38.5 -50t-56.5 -33t-74.5 -12q-44 0 -85.5 17.5t-73.5 50t-51.5 79.5t-19.5 107q0 59 18.5 106t48.5 79.5t68.5 49.5t79.5 17t80 -15.5t69.5 -45.5
t49 -74.5t18.5 -102.5h-317v-14zM361 290q0 50 -6 83.5t-18.5 53.5t-32 28.5t-45.5 8.5q-24 0 -41.5 -9t-30 -29t-19.5 -53.5t-8 -82.5h201zM260 710q24 0 40.5 -16.5t16.5 -40.5t-16.5 -40.5t-40.5 -16.5t-40.5 16.5t-16.5 40.5t16.5 40.5t40.5 16.5z" />
    <glyph glyph-name="ebreve" unicode="&#x115;" horiz-adv-x="521" 
d="M159 244q0 -62 7.5 -104t23.5 -67.5t40 -36t57 -10.5q29 0 53 9.5t42.5 26t30.5 38.5t18 47h33q-6 -33 -20.5 -62t-38.5 -50t-56.5 -33t-74.5 -12q-44 0 -85.5 17.5t-73.5 50t-51.5 79.5t-19.5 107q0 59 18.5 106t48.5 79.5t68.5 49.5t79.5 17t80 -15.5t69.5 -45.5
t49 -74.5t18.5 -102.5h-317v-14zM361 290q0 50 -6 83.5t-18.5 53.5t-32 28.5t-45.5 8.5q-24 0 -41.5 -9t-30 -29t-19.5 -53.5t-8 -82.5h201zM407 745q-5 -81 -44.5 -121.5t-102.5 -40.5t-102.5 40.5t-44.5 121.5h32q29 -90 115 -90t115 90h32v0z" />
    <glyph glyph-name="emacron" unicode="&#x113;" horiz-adv-x="521" 
d="M159 244q0 -62 7.5 -104t23.5 -67.5t40 -36t57 -10.5q29 0 53 9.5t42.5 26t30.5 38.5t18 47h33q-6 -33 -20.5 -62t-38.5 -50t-56.5 -33t-74.5 -12q-44 0 -85.5 17.5t-73.5 50t-51.5 79.5t-19.5 107q0 59 18.5 106t48.5 79.5t68.5 49.5t79.5 17t80 -15.5t69.5 -45.5
t49 -74.5t18.5 -102.5h-317v-14zM361 290q0 50 -6 83.5t-18.5 53.5t-32 28.5t-45.5 8.5q-24 0 -41.5 -9t-30 -29t-19.5 -53.5t-8 -82.5h201zM395 623h-270v44h270v-44z" />
    <glyph glyph-name="edieresis" unicode="&#xeb;" horiz-adv-x="521" 
d="M159 244q0 -62 7.5 -104t23.5 -67.5t40 -36t57 -10.5q29 0 53 9.5t42.5 26t30.5 38.5t18 47h33q-6 -33 -20.5 -62t-38.5 -50t-56.5 -33t-74.5 -12q-44 0 -85.5 17.5t-73.5 50t-51.5 79.5t-19.5 107q0 59 18.5 106t48.5 79.5t68.5 49.5t79.5 17t80 -15.5t69.5 -45.5
t49 -74.5t18.5 -102.5h-317v-14zM361 290q0 50 -6 83.5t-18.5 53.5t-32 28.5t-45.5 8.5q-24 0 -41.5 -9t-30 -29t-19.5 -53.5t-8 -82.5h201zM360 698q21 0 37 -15t16 -38t-16 -38t-37 -15q-23 0 -38 15t-15 38t15 38t38 15zM160 698q23 0 38 -15t15 -38t-15 -38t-38 -15
q-21 0 -37 15t-16 38t16 38t37 15z" />
    <glyph glyph-name="ecaron" unicode="&#x11b;" horiz-adv-x="521" 
d="M159 244q0 -62 7.5 -104t23.5 -67.5t40 -36t57 -10.5q29 0 53 9.5t42.5 26t30.5 38.5t18 47h33q-6 -33 -20.5 -62t-38.5 -50t-56.5 -33t-74.5 -12q-44 0 -85.5 17.5t-73.5 50t-51.5 79.5t-19.5 107q0 59 18.5 106t48.5 79.5t68.5 49.5t79.5 17t80 -15.5t69.5 -45.5
t49 -74.5t18.5 -102.5h-317v-14zM361 290q0 50 -6 83.5t-18.5 53.5t-32 28.5t-45.5 8.5q-24 0 -41.5 -9t-30 -29t-19.5 -53.5t-8 -82.5h201zM247 565q-38 48 -71.5 89t-71.5 77l18 18l138 -99l138 99l18 -18q-38 -36 -71.5 -77t-71.5 -89h-26z" />
    <glyph glyph-name="ecircumflex" unicode="&#xea;" horiz-adv-x="521" 
d="M159 244q0 -62 7.5 -104t23.5 -67.5t40 -36t57 -10.5q29 0 53 9.5t42.5 26t30.5 38.5t18 47h33q-6 -33 -20.5 -62t-38.5 -50t-56.5 -33t-74.5 -12q-44 0 -85.5 17.5t-73.5 50t-51.5 79.5t-19.5 107q0 59 18.5 106t48.5 79.5t68.5 49.5t79.5 17t80 -15.5t69.5 -45.5
t49 -74.5t18.5 -102.5h-317v-14zM361 290q0 50 -6 83.5t-18.5 53.5t-32 28.5t-45.5 8.5q-24 0 -41.5 -9t-30 -29t-19.5 -53.5t-8 -82.5h201zM273 736q38 -48 71.5 -89t71.5 -77l-18 -18l-138 99l-138 -99l-18 18q38 36 71.5 77t71.5 89h26z" />
    <glyph glyph-name="dcaron" unicode="&#x10f;" horiz-adv-x="619" 
d="M267 464q-29 0 -50 -11t-34.5 -37t-20.5 -68.5t-7 -104.5t7 -104t20.5 -68t34.5 -37.5t50 -11.5q30 0 56.5 13t45.5 36.5t30 56.5t11 72v86q0 39 -11 72t-30 56.5t-45.5 36.5t-56.5 13zM511 32h77v-32h-178v86q-6 -18 -18.5 -35.5t-30.5 -31t-42 -21.5t-52 -8
q-46 0 -86.5 19.5t-71 54t-48 80.5t-17.5 99q0 52 17.5 98.5t48 80.5t71 54t86.5 20q28 0 52 -8t42 -21.5t30.5 -31t18.5 -35.5v313h-77v32h178v-713zM623 751q23 0 34.5 -14.5t11.5 -32.5q0 -8 -2 -15.5t-6.5 -16t-11 -20t-16.5 -27.5l-52 -90h-30l19 155q4 28 16.5 44.5
t36.5 16.5z" />
    <glyph glyph-name="cdotaccent" unicode="&#x10b;" horiz-adv-x="482" 
d="M315 349q0 16 7 26.5t15 19t15 16.5t7 17q0 17 -22 26.5t-54 9.5q-34 0 -57.5 -11t-38.5 -36.5t-21.5 -67.5t-6.5 -105q0 -62 7 -104t22 -67.5t37.5 -36t53.5 -10.5q28 0 50.5 9.5t40 26t29 38.5t16.5 47h33q-5 -33 -18.5 -62t-35.5 -50t-51.5 -33t-66.5 -12
q-44 0 -86 17.5t-74.5 50t-52 79.5t-19.5 107q0 59 20.5 106t54 79.5t76.5 49.5t88 17q33 0 62.5 -10t51.5 -28t34.5 -44t12.5 -57q0 -30 -18.5 -51t-49.5 -21q-25 0 -43 17.5t-18 46.5zM264 710q24 0 40.5 -16.5t16.5 -40.5t-16.5 -40.5t-40.5 -16.5t-40.5 16.5t-16.5 40.5
t16.5 40.5t40.5 16.5z" />
    <glyph glyph-name="ccaron" unicode="&#x10d;" horiz-adv-x="482" 
d="M315 349q0 16 7 26.5t15 19t15 16.5t7 17q0 17 -22 26.5t-54 9.5q-34 0 -57.5 -11t-38.5 -36.5t-21.5 -67.5t-6.5 -105q0 -62 7 -104t22 -67.5t37.5 -36t53.5 -10.5q28 0 50.5 9.5t40 26t29 38.5t16.5 47h33q-5 -33 -18.5 -62t-35.5 -50t-51.5 -33t-66.5 -12
q-44 0 -86 17.5t-74.5 50t-52 79.5t-19.5 107q0 59 20.5 106t54 79.5t76.5 49.5t88 17q33 0 62.5 -10t51.5 -28t34.5 -44t12.5 -57q0 -30 -18.5 -51t-49.5 -21q-25 0 -43 17.5t-18 46.5zM251 565q-38 48 -71.5 89t-71.5 77l18 18l138 -99l138 99l18 -18q-38 -36 -71.5 -77
t-71.5 -89h-26z" />
    <glyph glyph-name="ccircumflex" unicode="&#x109;" horiz-adv-x="482" 
d="M315 349q0 16 7 26.5t15 19t15 16.5t7 17q0 17 -22 26.5t-54 9.5q-34 0 -57.5 -11t-38.5 -36.5t-21.5 -67.5t-6.5 -105q0 -62 7 -104t22 -67.5t37.5 -36t53.5 -10.5q28 0 50.5 9.5t40 26t29 38.5t16.5 47h33q-5 -33 -18.5 -62t-35.5 -50t-51.5 -33t-66.5 -12
q-44 0 -86 17.5t-74.5 50t-52 79.5t-19.5 107q0 59 20.5 106t54 79.5t76.5 49.5t88 17q33 0 62.5 -10t51.5 -28t34.5 -44t12.5 -57q0 -30 -18.5 -51t-49.5 -21q-25 0 -43 17.5t-18 46.5zM277 736q38 -48 71.5 -89t71.5 -77l-18 -18l-138 99l-138 -99l-18 18q38 36 71.5 77
t71.5 89h26z" />
    <glyph glyph-name="cacute" unicode="&#x107;" horiz-adv-x="482" 
d="M315 349q0 16 7 26.5t15 19t15 16.5t7 17q0 17 -22 26.5t-54 9.5q-34 0 -57.5 -11t-38.5 -36.5t-21.5 -67.5t-6.5 -105q0 -62 7 -104t22 -67.5t37.5 -36t53.5 -10.5q28 0 50.5 9.5t40 26t29 38.5t16.5 47h33q-5 -33 -18.5 -62t-35.5 -50t-51.5 -33t-66.5 -12
q-44 0 -86 17.5t-74.5 50t-52 79.5t-19.5 107q0 59 20.5 106t54 79.5t76.5 49.5t88 17q33 0 62.5 -10t51.5 -28t34.5 -44t12.5 -57q0 -30 -18.5 -51t-49.5 -21q-25 0 -43 17.5t-18 46.5zM343 729q21 0 32.5 -12t11.5 -30q0 -34 -41 -55l-138 -71l-15 20l99 117
q13 15 23.5 23t27.5 8z" />
    <glyph glyph-name="aogonek" unicode="&#x105;" horiz-adv-x="527" 
d="M485 -167q-22 -26 -49.5 -41t-62.5 -15q-40 0 -55.5 19t-15.5 49q0 13 5.5 27.5t18.5 31.5t35.5 38.5t56.5 47.5q-15 1 -29.5 5.5t-26 14.5t-19.5 25.5t-10 38.5q-12 -25 -28.5 -41.5t-35.5 -26t-40 -13t-42 -3.5q-31 0 -58 9t-46.5 25t-31 39t-11.5 50q0 58 27.5 87
t76.5 46q43 15 93.5 27t94.5 17v64q0 33 -7.5 54.5t-21 33.5t-33 17t-44.5 5q-32 0 -53.5 -9.5t-21.5 -22.5q0 -7 5.5 -14t11.5 -15t11.5 -19t5.5 -25q0 -22 -16 -37t-39 -15q-26 0 -40.5 16t-14.5 43q0 24 11 47.5t32 41.5t51 29.5t68 11.5q41 0 76.5 -11t61.5 -35.5
t40.5 -64t14.5 -96.5v-173q0 -48 7.5 -65t25.5 -17q13 0 21.5 8.5t16.5 24.5l27 -15q-10 -21 -25 -36.5t-42 -21.5q-20 -21 -33.5 -38.5t-22 -33.5t-12 -32t-3.5 -35q0 -33 26 -33q13 0 25 10t19 20zM146 115q0 -45 20.5 -64.5t48.5 -19.5q22 0 43 9t37.5 26t26.5 42.5
t10 57.5v92q-32 -4 -66.5 -11.5t-57.5 -16.5q-18 -7 -29.5 -16t-19 -22t-10.5 -31.5t-3 -45.5z" />
    <glyph glyph-name="aring" unicode="&#xe5;" horiz-adv-x="527" 
d="M146 115q0 -45 20.5 -64.5t48.5 -19.5q22 0 43 9t37.5 26t26.5 42.5t10 57.5v92q-32 -4 -66.5 -11.5t-57.5 -16.5q-18 -7 -29.5 -16t-19 -22t-10.5 -31.5t-3 -45.5zM528 52q-12 -26 -34 -44t-67 -18q-16 0 -32 3.5t-28.5 13t-21.5 26t-12 41.5q-12 -25 -28.5 -41.5
t-35.5 -26t-40 -13t-42 -3.5q-31 0 -58 9t-46.5 25t-31 39t-11.5 50q0 58 27.5 87t76.5 46q43 15 93.5 27t94.5 17v64q0 33 -7.5 54.5t-21 33.5t-33 17t-44.5 5q-32 0 -53.5 -9.5t-21.5 -22.5q0 -7 5.5 -14t11.5 -15t11.5 -19t5.5 -25q0 -22 -16 -37t-39 -15q-26 0 -40.5 16
t-14.5 43q0 24 11 47.5t32 41.5t51 29.5t68 11.5q41 0 76.5 -11t61.5 -35.5t40.5 -64t14.5 -96.5v-173q0 -48 7.5 -65t25.5 -17q13 0 21.5 8.5t16.5 24.5zM246 725q33 0 56.5 -23.5t23.5 -55.5q0 -33 -23.5 -56.5t-56.5 -23.5q-32 0 -55.5 23.5t-23.5 56.5q0 32 23.5 55.5
t55.5 23.5zM246 695q-20 0 -34.5 -14.5t-14.5 -34.5q0 -21 14.5 -35.5t34.5 -14.5q21 0 35.5 14.5t14.5 35.5q0 20 -14.5 34.5t-35.5 14.5z" />
    <glyph glyph-name="abreve" unicode="&#x103;" horiz-adv-x="527" 
d="M146 115q0 -45 20.5 -64.5t48.5 -19.5q22 0 43 9t37.5 26t26.5 42.5t10 57.5v92q-32 -4 -66.5 -11.5t-57.5 -16.5q-18 -7 -29.5 -16t-19 -22t-10.5 -31.5t-3 -45.5zM528 52q-12 -26 -34 -44t-67 -18q-16 0 -32 3.5t-28.5 13t-21.5 26t-12 41.5q-12 -25 -28.5 -41.5
t-35.5 -26t-40 -13t-42 -3.5q-31 0 -58 9t-46.5 25t-31 39t-11.5 50q0 58 27.5 87t76.5 46q43 15 93.5 27t94.5 17v64q0 33 -7.5 54.5t-21 33.5t-33 17t-44.5 5q-32 0 -53.5 -9.5t-21.5 -22.5q0 -7 5.5 -14t11.5 -15t11.5 -19t5.5 -25q0 -22 -16 -37t-39 -15q-26 0 -40.5 16
t-14.5 43q0 24 11 47.5t32 41.5t51 29.5t68 11.5q41 0 76.5 -11t61.5 -35.5t40.5 -64t14.5 -96.5v-173q0 -48 7.5 -65t25.5 -17q13 0 21.5 8.5t16.5 24.5zM393 745q-5 -81 -44.5 -121.5t-102.5 -40.5t-102.5 40.5t-44.5 121.5h32q29 -90 115 -90t115 90h32v0z" />
    <glyph glyph-name="amacron" unicode="&#x101;" horiz-adv-x="527" 
d="M146 115q0 -45 20.5 -64.5t48.5 -19.5q22 0 43 9t37.5 26t26.5 42.5t10 57.5v92q-32 -4 -66.5 -11.5t-57.5 -16.5q-18 -7 -29.5 -16t-19 -22t-10.5 -31.5t-3 -45.5zM528 52q-12 -26 -34 -44t-67 -18q-16 0 -32 3.5t-28.5 13t-21.5 26t-12 41.5q-12 -25 -28.5 -41.5
t-35.5 -26t-40 -13t-42 -3.5q-31 0 -58 9t-46.5 25t-31 39t-11.5 50q0 58 27.5 87t76.5 46q43 15 93.5 27t94.5 17v64q0 33 -7.5 54.5t-21 33.5t-33 17t-44.5 5q-32 0 -53.5 -9.5t-21.5 -22.5q0 -7 5.5 -14t11.5 -15t11.5 -19t5.5 -25q0 -22 -16 -37t-39 -15q-26 0 -40.5 16
t-14.5 43q0 24 11 47.5t32 41.5t51 29.5t68 11.5q41 0 76.5 -11t61.5 -35.5t40.5 -64t14.5 -96.5v-173q0 -48 7.5 -65t25.5 -17q13 0 21.5 8.5t16.5 24.5zM381 623h-270v44h270v-44z" />
    <glyph glyph-name="adieresis" unicode="&#xe4;" horiz-adv-x="527" 
d="M146 115q0 -45 20.5 -64.5t48.5 -19.5q22 0 43 9t37.5 26t26.5 42.5t10 57.5v92q-32 -4 -66.5 -11.5t-57.5 -16.5q-18 -7 -29.5 -16t-19 -22t-10.5 -31.5t-3 -45.5zM528 52q-12 -26 -34 -44t-67 -18q-16 0 -32 3.5t-28.5 13t-21.5 26t-12 41.5q-12 -25 -28.5 -41.5
t-35.5 -26t-40 -13t-42 -3.5q-31 0 -58 9t-46.5 25t-31 39t-11.5 50q0 58 27.5 87t76.5 46q43 15 93.5 27t94.5 17v64q0 33 -7.5 54.5t-21 33.5t-33 17t-44.5 5q-32 0 -53.5 -9.5t-21.5 -22.5q0 -7 5.5 -14t11.5 -15t11.5 -19t5.5 -25q0 -22 -16 -37t-39 -15q-26 0 -40.5 16
t-14.5 43q0 24 11 47.5t32 41.5t51 29.5t68 11.5q41 0 76.5 -11t61.5 -35.5t40.5 -64t14.5 -96.5v-173q0 -48 7.5 -65t25.5 -17q13 0 21.5 8.5t16.5 24.5zM346 698q21 0 37 -15t16 -38t-16 -38t-37 -15q-23 0 -38 15t-15 38t15 38t38 15zM146 698q23 0 38 -15t15 -38
t-15 -38t-38 -15q-21 0 -37 15t-16 38t16 38t37 15z" />
    <glyph glyph-name="atilde" unicode="&#xe3;" horiz-adv-x="527" 
d="M146 115q0 -45 20.5 -64.5t48.5 -19.5q22 0 43 9t37.5 26t26.5 42.5t10 57.5v92q-32 -4 -66.5 -11.5t-57.5 -16.5q-18 -7 -29.5 -16t-19 -22t-10.5 -31.5t-3 -45.5zM528 52q-12 -26 -34 -44t-67 -18q-16 0 -32 3.5t-28.5 13t-21.5 26t-12 41.5q-12 -25 -28.5 -41.5
t-35.5 -26t-40 -13t-42 -3.5q-31 0 -58 9t-46.5 25t-31 39t-11.5 50q0 58 27.5 87t76.5 46q43 15 93.5 27t94.5 17v64q0 33 -7.5 54.5t-21 33.5t-33 17t-44.5 5q-32 0 -53.5 -9.5t-21.5 -22.5q0 -7 5.5 -14t11.5 -15t11.5 -19t5.5 -25q0 -22 -16 -37t-39 -15q-26 0 -40.5 16
t-14.5 43q0 24 11 47.5t32 41.5t51 29.5t68 11.5q41 0 76.5 -11t61.5 -35.5t40.5 -64t14.5 -96.5v-173q0 -48 7.5 -65t25.5 -17q13 0 21.5 8.5t16.5 24.5zM403 711q0 -59 -22.5 -91.5t-69.5 -32.5q-23 0 -42 8.5t-35.5 18.5t-32 18.5t-30.5 8.5q-25 0 -38 -18t-13 -44h-31
q0 59 22.5 91.5t69.5 32.5q22 0 41.5 -8.5t36 -18.5t32 -18.5t30.5 -8.5q25 0 38 18t13 44h31z" />
    <glyph glyph-name="acircumflex" unicode="&#xe2;" horiz-adv-x="527" 
d="M146 115q0 -45 20.5 -64.5t48.5 -19.5q22 0 43 9t37.5 26t26.5 42.5t10 57.5v92q-32 -4 -66.5 -11.5t-57.5 -16.5q-18 -7 -29.5 -16t-19 -22t-10.5 -31.5t-3 -45.5zM528 52q-12 -26 -34 -44t-67 -18q-16 0 -32 3.5t-28.5 13t-21.5 26t-12 41.5q-12 -25 -28.5 -41.5
t-35.5 -26t-40 -13t-42 -3.5q-31 0 -58 9t-46.5 25t-31 39t-11.5 50q0 58 27.5 87t76.5 46q43 15 93.5 27t94.5 17v64q0 33 -7.5 54.5t-21 33.5t-33 17t-44.5 5q-32 0 -53.5 -9.5t-21.5 -22.5q0 -7 5.5 -14t11.5 -15t11.5 -19t5.5 -25q0 -22 -16 -37t-39 -15q-26 0 -40.5 16
t-14.5 43q0 24 11 47.5t32 41.5t51 29.5t68 11.5q41 0 76.5 -11t61.5 -35.5t40.5 -64t14.5 -96.5v-173q0 -48 7.5 -65t25.5 -17q13 0 21.5 8.5t16.5 24.5zM259 736q38 -48 71.5 -89t71.5 -77l-18 -18l-138 99l-138 -99l-18 18q38 36 71.5 77t71.5 89h26z" />
    <glyph glyph-name="aacute" unicode="&#xe1;" horiz-adv-x="527" 
d="M146 115q0 -45 20.5 -64.5t48.5 -19.5q22 0 43 9t37.5 26t26.5 42.5t10 57.5v92q-32 -4 -66.5 -11.5t-57.5 -16.5q-18 -7 -29.5 -16t-19 -22t-10.5 -31.5t-3 -45.5zM528 52q-12 -26 -34 -44t-67 -18q-16 0 -32 3.5t-28.5 13t-21.5 26t-12 41.5q-12 -25 -28.5 -41.5
t-35.5 -26t-40 -13t-42 -3.5q-31 0 -58 9t-46.5 25t-31 39t-11.5 50q0 58 27.5 87t76.5 46q43 15 93.5 27t94.5 17v64q0 33 -7.5 54.5t-21 33.5t-33 17t-44.5 5q-32 0 -53.5 -9.5t-21.5 -22.5q0 -7 5.5 -14t11.5 -15t11.5 -19t5.5 -25q0 -22 -16 -37t-39 -15q-26 0 -40.5 16
t-14.5 43q0 24 11 47.5t32 41.5t51 29.5t68 11.5q41 0 76.5 -11t61.5 -35.5t40.5 -64t14.5 -96.5v-173q0 -48 7.5 -65t25.5 -17q13 0 21.5 8.5t16.5 24.5zM325 729q21 0 32.5 -12t11.5 -30q0 -34 -41 -55l-138 -71l-15 20l99 117q13 15 23.5 23t27.5 8z" />
    <glyph glyph-name="agrave" unicode="&#xe0;" horiz-adv-x="527" 
d="M146 115q0 -45 20.5 -64.5t48.5 -19.5q22 0 43 9t37.5 26t26.5 42.5t10 57.5v92q-32 -4 -66.5 -11.5t-57.5 -16.5q-18 -7 -29.5 -16t-19 -22t-10.5 -31.5t-3 -45.5zM528 52q-12 -26 -34 -44t-67 -18q-16 0 -32 3.5t-28.5 13t-21.5 26t-12 41.5q-12 -25 -28.5 -41.5
t-35.5 -26t-40 -13t-42 -3.5q-31 0 -58 9t-46.5 25t-31 39t-11.5 50q0 58 27.5 87t76.5 46q43 15 93.5 27t94.5 17v64q0 33 -7.5 54.5t-21 33.5t-33 17t-44.5 5q-32 0 -53.5 -9.5t-21.5 -22.5q0 -7 5.5 -14t11.5 -15t11.5 -19t5.5 -25q0 -22 -16 -37t-39 -15q-26 0 -40.5 16
t-14.5 43q0 24 11 47.5t32 41.5t51 29.5t68 11.5q41 0 76.5 -11t61.5 -35.5t40.5 -64t14.5 -96.5v-173q0 -48 7.5 -65t25.5 -17q13 0 21.5 8.5t16.5 24.5zM170 729q17 0 27.5 -8t23.5 -23l99 -117l-15 -20l-138 71q-41 21 -41 55q0 18 11.5 30t32.5 12z" />
    <glyph glyph-name="Zdotaccent" unicode="&#x17b;" horiz-adv-x="635" 
d="M316 688q-95 0 -150 -58.5t-55 -159.5h-31v250h475l-377 -688h165q53 0 94 17.5t69 49t42.5 75.5t14.5 96h32v-270h-560l377 688h-96zM331 905q27 0 46 -19t19 -46t-19 -46t-46 -19t-46 19t-19 46t19 46t46 19z" />
    <glyph glyph-name="Zcaron" unicode="&#x17d;" horiz-adv-x="635" 
d="M316 688q-95 0 -150 -58.5t-55 -159.5h-31v250h475l-377 -688h165q53 0 94 17.5t69 49t42.5 75.5t14.5 96h32v-270h-560l377 688h-96zM317 769q-38 48 -72 82.5t-72 70.5l18 18l140 -88l140 88l18 -18q-38 -36 -72 -70.5t-72 -82.5h-28z" />
    <glyph glyph-name="Zacute" unicode="&#x179;" horiz-adv-x="635" 
d="M316 688q-95 0 -150 -58.5t-55 -159.5h-31v250h475l-377 -688h165q53 0 94 17.5t69 49t42.5 75.5t14.5 96h32v-270h-560l377 688h-96zM424 905q22 0 33 -12t11 -32t-14.5 -33t-40.5 -21l-152 -45l-11 25l120 92q17 14 28 20t26 6z" />
    <glyph glyph-name="Yacute" unicode="&#xdd;" horiz-adv-x="685" 
d="M569 688h-81v32h209v-32h-90l-202 -357v-299h111v-32h-337v32h111v299l-203 357h-99v32h314v-32h-81l174 -308zM464 905q22 0 33 -12t11 -32t-14.5 -33t-40.5 -21l-152 -45l-11 25l120 92q17 14 28 20t26 6z" />
    <glyph glyph-name="Ycircumflex" unicode="&#x176;" horiz-adv-x="685" 
d="M569 688h-81v32h209v-32h-90l-202 -357v-299h111v-32h-337v32h111v299l-203 357h-99v32h314v-32h-81l174 -308zM385 933q38 -48 72 -82.5t72 -70.5l-18 -18l-140 88l-140 -88l-18 18q38 36 72 70.5t72 82.5h28z" />
    <glyph glyph-name="Ydieresis" unicode="&#x178;" horiz-adv-x="685" 
d="M569 688h-81v32h209v-32h-90l-202 -357v-299h111v-32h-337v32h111v299l-203 357h-99v32h314v-32h-81l174 -308zM474 891q22 0 38.5 -16t16.5 -39t-16.5 -39t-38.5 -16q-23 0 -38.5 16t-15.5 39t15.5 39t38.5 16zM268 891q23 0 38.5 -16t15.5 -39t-15.5 -39t-38.5 -16
q-22 0 -38.5 16t-16.5 39t16.5 39t38.5 16z" />
    <glyph glyph-name="Ygrave" unicode="&#x1ef2;" horiz-adv-x="685" 
d="M569 688h-81v32h209v-32h-90l-202 -357v-299h111v-32h-337v32h111v299l-203 357h-99v32h314v-32h-81l174 -308zM301 905q15 0 26 -6t28 -20l120 -92l-11 -25l-152 45q-26 8 -40.5 21t-14.5 33t11 32t33 12z" />
    <glyph glyph-name="Wcircumflex" unicode="&#x174;" horiz-adv-x="1033" 
d="M737 -12h-25l-189 517l-176 -517h-25l-256 700h-86v32h283v-32h-75l188 -515l129 380l-49 135h-86v32h283v-32h-75l188 -515l176 515h-75v32h186v-32h-77zM536 933q38 -48 72 -82.5t72 -70.5l-18 -18l-140 88l-140 -88l-18 18q38 36 72 70.5t72 82.5h28z" />
    <glyph glyph-name="Wacute" unicode="&#x1e82;" horiz-adv-x="1033" 
d="M737 -12h-25l-189 517l-176 -517h-25l-256 700h-86v32h283v-32h-75l188 -515l129 380l-49 135h-86v32h283v-32h-75l188 -515l176 515h-75v32h186v-32h-77zM618 905q22 0 33 -12t11 -32t-14.5 -33t-40.5 -21l-152 -45l-11 25l120 92q17 14 28 20t26 6z" />
    <glyph glyph-name="Wdieresis" unicode="&#x1e84;" horiz-adv-x="1033" 
d="M737 -12h-25l-189 517l-176 -517h-25l-256 700h-86v32h283v-32h-75l188 -515l129 380l-49 135h-86v32h283v-32h-75l188 -515l176 515h-75v32h186v-32h-77zM625 891q22 0 38.5 -16t16.5 -39t-16.5 -39t-38.5 -16q-23 0 -38.5 16t-15.5 39t15.5 39t38.5 16zM419 891
q23 0 38.5 -16t15.5 -39t-15.5 -39t-38.5 -16q-22 0 -38.5 16t-16.5 39t16.5 39t38.5 16z" />
    <glyph glyph-name="Wgrave" unicode="&#x1e80;" horiz-adv-x="1033" 
d="M737 -12h-25l-189 517l-176 -517h-25l-256 700h-86v32h283v-32h-75l188 -515l129 380l-49 135h-86v32h283v-32h-75l188 -515l176 515h-75v32h186v-32h-77zM454 905q15 0 26 -6t28 -20l120 -92l-11 -25l-152 45q-26 8 -40.5 21t-14.5 33t11 32t33 12z" />
    <glyph glyph-name="Ugrave" unicode="&#xd9;" horiz-adv-x="736" 
d="M614 688v-488q0 -111 -60 -160.5t-184 -49.5q-125 0 -186.5 50t-61.5 156v492h-111v32h337v-32h-111v-493q0 -86 40.5 -125.5t123.5 -39.5q92 0 136 42t44 128v488h-111v32h255v-32h-111zM336 905q15 0 26 -6t28 -20l120 -92l-11 -25l-152 45q-26 8 -40.5 21t-14.5 33
t11 32t33 12z" />
    <glyph glyph-name="Uacute" unicode="&#xda;" horiz-adv-x="736" 
d="M614 688v-488q0 -111 -60 -160.5t-184 -49.5q-125 0 -186.5 50t-61.5 156v492h-111v32h337v-32h-111v-493q0 -86 40.5 -125.5t123.5 -39.5q92 0 136 42t44 128v488h-111v32h255v-32h-111zM499 905q22 0 33 -12t11 -32t-14.5 -33t-40.5 -21l-152 -45l-11 25l120 92
q17 14 28 20t26 6z" />
    <glyph glyph-name="Ucircumflex" unicode="&#xdb;" horiz-adv-x="736" 
d="M614 688v-488q0 -111 -60 -160.5t-184 -49.5q-125 0 -186.5 50t-61.5 156v492h-111v32h337v-32h-111v-493q0 -86 40.5 -125.5t123.5 -39.5q92 0 136 42t44 128v488h-111v32h255v-32h-111zM417 933q38 -48 72 -82.5t72 -70.5l-18 -18l-140 88l-140 -88l-18 18
q38 36 72 70.5t72 82.5h28z" />
    <glyph glyph-name="Utilde" unicode="&#x168;" horiz-adv-x="736" 
d="M614 688v-488q0 -111 -60 -160.5t-184 -49.5q-125 0 -186.5 50t-61.5 156v492h-111v32h337v-32h-111v-493q0 -86 40.5 -125.5t123.5 -39.5q92 0 136 42t44 128v488h-111v32h255v-32h-111zM565 896q0 -57 -22.5 -87t-71.5 -30q-23 0 -42.5 7.5t-38 17t-35.5 17t-33 7.5
q-24 0 -37 -17.5t-13 -40.5h-31q0 57 22.5 87.5t71.5 30.5q22 0 42 -7.5t38.5 -17t35 -17t33.5 -7.5q24 0 37 17t13 40h31z" />
    </font>
</defs>
</svg>
