<?xml version="1.0" standalone="no"?>
<!DOCTYPE svg PUBLIC "-//W3C//DTD SVG 1.1//EN" "http://www.w3.org/Graphics/SVG/1.1/DTD/svg11.dtd" >
<svg>
<metadata>
Created by FontForge 20090622 at Thu May  2 10:27:05 2019
 By deploy user
&#194;&#169; 2007-2015 H &#38; M Hennes &#38; Mauritz AB
</metadata>
<defs>
<font id="HMAmpersandW06-Light" horiz-adv-x="1102" >
  <font-face 
    font-family="HM Ampersand W06 Light"
    font-weight="300"
    font-stretch="normal"
    units-per-em="2048"
    panose-1="2 11 6 3 2 1 2 2 2 4"
    ascent="1638"
    descent="-410"
    x-height="1022"
    cap-height="1475"
    bbox="-343 -508 2398 1978"
    underline-thickness="102"
    underline-position="-154"
    unicode-range="U+0002-U+FEFF"
  />
<missing-glyph horiz-adv-x="2048" 
d="M256 0v1536h1536v-1536h-1536zM384 128h1280v1280h-1280v-1280z" />
    <glyph glyph-name="uniFB01" unicode="fi" horiz-adv-x="1112" 
d="M381 0h-129v905h-217v117h217v154q0 180 80 248.5t215 68.5q64 0 117 -8v-119q-58 6 -109 6q-98 0 -136 -45t-38 -147v-158h254v-117h-254v-905zM899 1294q-38 0 -68 29.5t-30 67.5t30 67t68 29t67 -29t29 -67q0 -39 -29 -68t-67 -29zM838 0v1022h129v-1022h-129z" />
    <glyph glyph-name="uniFB02" unicode="fl" horiz-adv-x="1096" 
d="M381 0h-129v905h-217v117h217v154q0 180 80 248.5t215 68.5q64 0 117 -8v-119q-58 6 -109 6q-98 0 -136 -45t-38 -147v-158h254v-117h-254v-905zM956 0h-129v1475h129v-1475z" />
    <glyph glyph-name="colon_hyphen.liga" unicode="&#x3a;&#x2d;" horiz-adv-x="1272" 
d="M202 911q-41 0 -72.5 32t-31.5 73t30.5 72.5t73.5 31.5q45 0 75 -32t30 -72q0 -41 -30.5 -73t-74.5 -32zM202 104q-41 0 -72.5 32t-31.5 73t30.5 72.5t73.5 31.5q45 0 75 -32t30 -72q0 -41 -30.5 -73t-74.5 -32zM419 561v101h795v-101h-795z" />
    <glyph glyph-name=".notdef" horiz-adv-x="2048" 
d="M256 0v1536h1536v-1536h-1536zM384 128h1280v1280h-1280v-1280z" />
    <glyph glyph-name="glyph1" horiz-adv-x="0" 
 />
    <glyph glyph-name="glyph1" horiz-adv-x="0" 
 />
    <glyph glyph-name="uni000D" unicode="&#xd;" horiz-adv-x="477" 
 />
    <glyph glyph-name="space" unicode=" " horiz-adv-x="477" 
 />
    <glyph glyph-name="exclam" unicode="!" horiz-adv-x="412" 
d="M141 381v1079h129v-1079h-129zM206 184q43 0 73.5 -30.5t30.5 -73.5q0 -42 -31 -73.5t-73 -31.5q-41 0 -73 32t-32 73q0 42 31.5 73t73.5 31z" />
    <glyph glyph-name="quotedbl" unicode="&#x22;" horiz-adv-x="840" 
d="M174 944l-60 364q-8 48 -8 74q0 61 25.5 92t77.5 31q51 0 76.5 -31t25.5 -92q0 -26 -67 -438h-70zM594 944l-60 364q-8 48 -8 74q0 61 25.5 92t77.5 31q51 0 76.5 -31t25.5 -92q0 -26 -67 -438h-70z" />
    <glyph glyph-name="numbersign" unicode="#" horiz-adv-x="1178" 
d="M55 1053h289l84 422h127l-84 -422h338l84 422h127l-84 -422h184v-121h-209l-82 -402h291v-120h-315l-82 -410h-127l82 410h-338l-82 -410h-127l82 410h-158v120h183l81 402h-264v121zM365 530h337l82 402h-338z" />
    <glyph glyph-name="dollar" unicode="$" horiz-adv-x="1212" 
d="M207 426q15 -153 100 -236.5t240 -97.5v635q-236 60 -333 155t-97 246q0 156 118.5 257t311.5 118v168h127v-170q194 -20 302 -122.5t130 -288.5h-139q-11 125 -84.5 197t-208.5 91v-549q229 -47 344 -152.5t115 -268.5q0 -178 -127 -296t-332 -139v-170h-127v168
q-213 19 -339.5 140.5t-139.5 314.5h139zM547 860v518q-146 -18 -218.5 -80.5t-72.5 -169.5q0 -105 66 -164.5t225 -103.5zM674 696v-602q152 18 234.5 100t82.5 214q0 123 -70.5 182.5t-246.5 105.5z" />
    <glyph glyph-name="percent" unicode="%" horiz-adv-x="1731" 
d="M96 1067q0 219 78 328.5t234 109.5q157 0 236 -109.5t79 -328.5q0 -220 -79 -330t-236 -110q-156 0 -234 110t-78 330zM217 1067q0 -167 47.5 -250.5t143.5 -83.5q97 0 145.5 83.5t48.5 250.5q0 164 -48.5 246t-145.5 82q-96 0 -143.5 -82t-47.5 -246zM422 0l760 1475
h135l-760 -1475h-135zM1010 408q0 220 77.5 330t233.5 110q157 0 236 -110t79 -330t-79 -329.5t-236 -109.5q-156 0 -233.5 109.5t-77.5 329.5zM1130 408q0 -165 47.5 -247.5t143.5 -82.5q97 0 146 82.5t49 247.5q0 164 -49 246.5t-146 82.5q-96 0 -143.5 -82.5
t-47.5 -246.5z" />
    <glyph glyph-name="ampersand" unicode="&#x26;" horiz-adv-x="1409" 
d="M471 842q-123 140 -153.5 214.5t-30.5 149.5q0 127 86 213t235 86q151 0 240.5 -84t89.5 -215q0 -109 -66 -199.5t-225 -189.5l391 -465q80 159 84 369h135q-8 -272 -133 -471l211 -250h-161l-127 150q-86 -91 -195.5 -136t-243.5 -45q-220 0 -352.5 121.5t-132.5 300.5
q0 131 72.5 233.5t275.5 217.5zM573 905q137 85 181.5 147.5t44.5 153.5q0 83 -48 129.5t-141 46.5q-88 0 -136 -48t-48 -128q0 -56 25.5 -117t121.5 -184zM545 754q-168 -102 -225.5 -181t-57.5 -182q0 -138 95 -218.5t251 -80.5q112 0 202 38.5t157 115.5z" />
    <glyph glyph-name="quotesingle" unicode="'" horiz-adv-x="420" 
d="M174 944l-60 364q-8 48 -8 74q0 61 25.5 92t77.5 31q51 0 76.5 -31t25.5 -92q0 -26 -67 -438h-70z" />
    <glyph glyph-name="parenleft" unicode="(" horiz-adv-x="545" 
d="M508 -426h-119q-152 217 -227.5 454.5t-75.5 495.5t75.5 496t227.5 455h119q-143 -226 -214 -464t-71 -487q0 -250 71 -487t214 -463z" />
    <glyph glyph-name="parenright" unicode=")" horiz-adv-x="545" 
d="M154 -426h-119q142 226 213 463t71 487q0 249 -71 487t-213 464h119q151 -217 227 -455t76 -496t-76 -495.5t-227 -454.5z" />
    <glyph glyph-name="asterisk" unicode="*" horiz-adv-x="772" 
d="M432 1237l252 94l39 -121l-258 -69l168 -207l-101 -76l-147 225l-145 -225l-99 74l164 207l-258 69l39 119l246 -92l-10 264h122z" />
    <glyph glyph-name="plus" unicode="+" horiz-adv-x="1364" 
d="M745 674v-449h-124v449h-408v127h408v446h124v-446h404v-127h-404z" />
    <glyph glyph-name="comma" unicode="," horiz-adv-x="354" 
d="M178 -25q-45 0 -77.5 30.5t-32.5 76.5q0 41 30.5 71.5t71.5 30.5q52 0 83.5 -38t31.5 -107q0 -104 -36.5 -188.5t-109.5 -149.5l-49 39q44 51 66 109.5t22 125.5z" />
    <glyph glyph-name="hyphen" unicode="-" horiz-adv-x="662" 
d="M55 573v101h549v-101h-549z" />
    <glyph glyph-name="period" unicode="." horiz-adv-x="352" 
d="M172 184q43 0 73.5 -30.5t30.5 -73.5t-30.5 -74t-73.5 -31t-73.5 31t-30.5 74t30.5 73.5t73.5 30.5z" />
    <glyph glyph-name="slash" unicode="/" horiz-adv-x="719" 
d="M55 0l496 1475h111l-496 -1475h-111z" />
    <glyph glyph-name="zero" unicode="0" horiz-adv-x="1253" 
d="M1155 737q0 -356 -129.5 -562t-398.5 -206q-260 0 -395.5 198t-135.5 570t135.5 570t395.5 198q258 0 393 -198t135 -570zM1018 737q0 324 -98 486.5t-293 162.5q-197 0 -295.5 -162.5t-98.5 -486.5q0 -325 98.5 -487t295.5 -162q195 0 293 162t98 487z" />
    <glyph glyph-name="one" unicode="1" horiz-adv-x="766" 
d="M582 1481v-1481h-136v1069h-364v98q206 0 294 75t113 239h93z" />
    <glyph glyph-name="two" unicode="2" horiz-adv-x="1130" 
d="M96 0v117l467 419q128 117 228 240.5t100 302.5q0 142 -82.5 223.5t-228.5 81.5q-148 0 -233 -79t-107 -236h-140q30 206 156.5 321t323.5 115q199 0 324.5 -116.5t125.5 -309.5q0 -144 -64 -259t-198 -246t-498 -455h762v-119h-936z" />
    <glyph glyph-name="three" unicode="3" horiz-adv-x="1180" 
d="M131 1069q28 206 153.5 321t309.5 115q178 0 306 -111t128 -280q0 -101 -52.5 -190t-141.5 -136q123 -56 185 -148t62 -220q0 -201 -138 -326t-341 -125q-226 0 -363 126.5t-147 353.5h135q7 -179 100.5 -268t274.5 -89q160 0 249 85.5t89 242.5q0 146 -93 224.5
t-269 78.5h-103v111h98q158 0 239 74t81 206q0 125 -91 196.5t-208 71.5q-141 0 -220 -74.5t-110 -238.5h-133z" />
    <glyph glyph-name="four" unicode="4" horiz-adv-x="1114" 
d="M735 1475h133v-1008h199v-119h-199v-348h-135v348h-678v119zM733 1274l-540 -807h540v807z" />
    <glyph glyph-name="five" unicode="5" horiz-adv-x="1184" 
d="M379 1356l-86 -488q116 76 293 76q231 0 365 -125t134 -354q0 -221 -144 -358.5t-361 -137.5q-178 0 -308 100t-166 259h136q42 -118 127 -177t213 -59q166 0 265 99.5t99 273.5q0 172 -97.5 265t-266.5 93q-200 0 -322 -121l-115 25l127 748h699v-119h-592z" />
    <glyph glyph-name="six" unicode="6" horiz-adv-x="1200" 
d="M807 1475l-383 -527q83 29 186 29q224 0 358 -139.5t134 -354.5q0 -203 -137.5 -358.5t-366.5 -155.5q-235 0 -367.5 145t-132.5 341q0 144 58 278.5t186 311.5l309 430h156zM236 461q0 -153 98 -261t264 -108t265.5 110t99.5 281q0 168 -102.5 269.5t-276.5 101.5
q-169 0 -258.5 -109t-89.5 -284z" />
    <glyph glyph-name="seven" unicode="7" horiz-adv-x="1036" 
d="M47 1475h959v-117l-652 -1358h-139l653 1356h-821v119z" />
    <glyph glyph-name="eight" unicode="8" horiz-adv-x="1194" 
d="M369 803q-106 56 -158.5 135.5t-52.5 181.5q0 177 135.5 281t304.5 104q175 0 306.5 -107t131.5 -278q0 -102 -53 -181.5t-158 -135.5q60 -24 109 -62.5t87 -91.5q77 -106 77 -223q0 -208 -147 -332.5t-353 -124.5q-212 0 -357 127t-145 330q0 116 77 223q38 53 87 91.5
t109 62.5zM295 1118q0 -121 83.5 -190.5t219.5 -69.5q134 0 217.5 69.5t83.5 190.5q0 127 -85.5 195.5t-215.5 68.5q-134 0 -218.5 -71t-84.5 -193zM242 426q0 -153 98.5 -243.5t257.5 -90.5q158 0 257 91t99 243q0 138 -95 224.5t-261 86.5q-163 0 -259.5 -86t-96.5 -225z
" />
    <glyph glyph-name="nine" unicode="9" horiz-adv-x="1200" 
d="M391 0l383 526q-83 -28 -186 -28q-224 0 -358 139.5t-134 353.5q0 204 137.5 359t366.5 155q235 0 367.5 -144.5t132.5 -340.5q0 -144 -58 -279t-186 -312l-309 -429h-156zM963 1014q0 153 -98.5 260.5t-264.5 107.5t-265 -109.5t-99 -281.5q0 -167 102 -268.5
t276 -101.5q169 0 259 109t90 284z" />
    <glyph glyph-name="colon" unicode=":" horiz-adv-x="352" 
d="M172 844q-41 0 -72.5 31.5t-31.5 72.5q0 43 31 74t73 31q43 0 73.5 -31t30.5 -74q0 -41 -31 -72.5t-73 -31.5zM172 -25q-41 0 -72.5 32t-31.5 73q0 42 31 73t73 31q43 0 73.5 -30.5t30.5 -73.5q0 -42 -31 -73.5t-73 -31.5z" />
    <glyph glyph-name="semicolon" unicode=";" horiz-adv-x="354" 
d="M174 844q-42 0 -74 31.5t-32 72.5q0 43 31.5 74t74.5 31q42 0 72 -31t30 -74q0 -41 -30.5 -72.5t-71.5 -31.5zM178 -25q-45 0 -77.5 30.5t-32.5 76.5q0 41 30.5 71.5t71.5 30.5q52 0 83.5 -38t31.5 -107q0 -104 -36.5 -188.5t-109.5 -149.5l-49 39q44 51 66 109.5
t22 125.5z" />
    <glyph glyph-name="less" unicode="&#x3c;" horiz-adv-x="1374" 
d="M1149 246l-926 446v86l926 449v-135l-739 -353v-4l739 -352v-137z" />
    <glyph glyph-name="equal" unicode="=" horiz-adv-x="1362" 
d="M213 1020h936v-125h-936v125zM213 580h936v-125h-936v125z" />
    <glyph glyph-name="greater" unicode="&#x3e;" horiz-adv-x="1374" 
d="M1149 692l-926 -446v137l742 350v4l-742 355v135l926 -449v-86z" />
    <glyph glyph-name="question" unicode="?" horiz-adv-x="1008" 
d="M172 1051h-137q20 223 138 338.5t316 115.5q200 0 315.5 -106.5t115.5 -292.5q0 -202 -187 -385q-105 -104 -143 -168t-39 -172h-133q5 127 57 214.5t162 201.5q77 78 110 148.5t33 160.5q0 132 -77.5 204t-213.5 72q-139 0 -222 -85t-95 -246zM484 -25q-43 0 -73.5 31
t-30.5 74t30.5 73.5t73.5 30.5t74 -30.5t31 -73.5t-31 -74t-74 -31z" />
    <glyph glyph-name="at" unicode="@" horiz-adv-x="2025" 
d="M1352 889l26 143h140l-108 -575q-12 -65 -19 -112.5t-7 -70.5q0 -72 36.5 -107.5t109.5 -35.5q147 0 230 147.5t83 372.5q0 340 -211 536.5t-575 196.5q-383 0 -628 -239.5t-245 -601.5q0 -247 110.5 -433.5t309 -288.5t430.5 -102q307 0 522 107l46 -109
q-250 -118 -568 -118q-411 0 -693 260.5t-282 683.5q0 262 130 485.5t359.5 350t508.5 126.5q414 0 662.5 -231.5t248.5 -622.5q0 -249 -120 -442t-328 -193q-103 0 -181.5 54.5t-82.5 146.5q-77 -101 -172.5 -151t-209.5 -50q-194 0 -301.5 110.5t-107.5 309.5
q0 258 159.5 441.5t415.5 183.5q111 0 189 -43t123 -129zM1298 662q0 130 -64 206t-196 76q-193 0 -310.5 -150.5t-117.5 -357.5q0 -153 67.5 -229t203.5 -76q143 0 243.5 87t137 220t36.5 224z" />
    <glyph glyph-name="A" unicode="A" horiz-adv-x="1368" 
d="M1352 0h-144l-196 516h-662l-196 -516h-140l578 1475h182zM963 635l-277 719h-8l-281 -719h566z" />
    <glyph glyph-name="B" unicode="B" horiz-adv-x="1257" 
d="M137 1475h508q237 0 366.5 -94t129.5 -271q0 -122 -59 -206t-177 -130q142 -36 213.5 -122t71.5 -222q0 -208 -147.5 -319t-399.5 -111h-506v1475zM272 1356v-531h373q177 0 265.5 70.5t88.5 212.5q0 124 -88.5 186t-265.5 62h-373zM645 121q202 0 303 77t101 232
q0 139 -101 209t-303 70h-373v-588h373z" />
    <glyph glyph-name="C" unicode="C" horiz-adv-x="1360" 
d="M1167 1081q-31 134 -150 218.5t-280 84.5q-243 0 -371 -175t-128 -472q0 -296 128 -471.5t371 -175.5q161 0 280 85t150 218h136q-41 -194 -197.5 -309t-368.5 -115q-298 0 -469.5 210t-171.5 558t171.5 558t469.5 210q214 0 369.5 -113.5t196.5 -310.5h-136z" />
    <glyph glyph-name="D" unicode="D" horiz-adv-x="1399" 
d="M137 1475h475q334 0 511 -190.5t177 -547.5q0 -356 -176.5 -546.5t-511.5 -190.5h-475v1475zM614 1354h-342v-1233h342q271 0 407 154t136 462t-136 462.5t-407 154.5z" />
    <glyph glyph-name="E" unicode="E" horiz-adv-x="1157" 
d="M1049 0h-912v1475h893v-121h-758v-537h721v-121h-721v-575h777v-121z" />
    <glyph glyph-name="F" unicode="F" horiz-adv-x="1065" 
d="M272 0h-135v1475h860v-121h-725v-537h682v-121h-682v-696z" />
    <glyph glyph-name="G" unicode="G" horiz-adv-x="1462" 
d="M1337 1044h-139q-49 161 -175.5 250.5t-303.5 89.5q-234 0 -357.5 -177t-123.5 -470t123.5 -470t357.5 -177t364 140t142 384h-387v117h526v-39q0 -342 -165 -532.5t-480 -190.5q-287 0 -455 211.5t-168 556.5q0 338 164 553t459 215q238 0 396.5 -119t221.5 -342z" />
    <glyph glyph-name="H" unicode="H" horiz-adv-x="1372" 
d="M272 0h-135v1475h135v-658h826v658h135v-1475h-135v696h-826v-696z" />
    <glyph glyph-name="I" unicode="I" horiz-adv-x="412" 
d="M272 0h-135v1475h135v-1475z" />
    <glyph glyph-name="J" unicode="J" horiz-adv-x="977" 
d="M702 1475h136v-1080q0 -198 -102 -312t-304 -114q-152 0 -262.5 94.5t-134.5 253.5h135q18 -107 88 -167t176 -60q134 0 201 76t67 229v1080z" />
    <glyph glyph-name="K" unicode="K" horiz-adv-x="1178" 
d="M555 823l635 -823h-166l-553 727l-199 -231v-496h-135v1475h135v-801l684 801h158z" />
    <glyph glyph-name="L" unicode="L" horiz-adv-x="1024" 
d="M987 0h-850v1475h135v-1356h715v-119z" />
    <glyph glyph-name="M" unicode="M" horiz-adv-x="1636" 
d="M897 0h-162l-461 1319h-8v-1319h-129v1475h219l465 -1336l465 1336h213v-1475h-129v1319h-8z" />
    <glyph glyph-name="N" unicode="N" horiz-adv-x="1372" 
d="M1233 1475v-1475h-164l-803 1302v-1302h-129v1475h174l793 -1288v1288h129z" />
    <glyph glyph-name="O" unicode="O" horiz-adv-x="1475" 
d="M1376 737q0 -348 -170.5 -558t-468.5 -210t-469.5 210t-171.5 558t171.5 558t469.5 210t468.5 -210t170.5 -558zM1235 737q0 296 -127.5 471.5t-370.5 175.5t-371 -175t-128 -472q0 -296 128 -471.5t371 -175.5t370.5 175.5t127.5 471.5z" />
    <glyph glyph-name="P" unicode="P" horiz-adv-x="1221" 
d="M639 655h-367v-655h-135v1475h502q247 0 380.5 -107t133.5 -303t-133.5 -303t-380.5 -107zM272 776h367q186 0 279.5 72t93.5 217q0 144 -93.5 216.5t-279.5 72.5h-367v-578z" />
    <glyph glyph-name="Q" unicode="Q" horiz-adv-x="1475" 
d="M1108 84q-151 -115 -371 -115q-298 0 -469.5 210t-171.5 558t171.5 558t469.5 210t468.5 -210t170.5 -558q0 -355 -180 -569q40 -53 81 -67.5t132 -14.5v-117q-215 0 -301 115zM1118 279q117 177 117 458q0 296 -127.5 471.5t-370.5 175.5t-371 -175t-128 -472
q0 -296 128 -471.5t371 -175.5q182 0 301 103q-45 71 -88 101t-125 30v116q105 0 168.5 -39t124.5 -122z" />
    <glyph glyph-name="R" unicode="R" horiz-adv-x="1217" 
d="M598 655h-326v-655h-135v1475h502q247 0 380.5 -107t133.5 -303q0 -170 -101.5 -274t-297.5 -129l422 -662h-160zM272 776h367q186 0 279.5 72t93.5 217q0 144 -93.5 216.5t-279.5 72.5h-367v-578z" />
    <glyph glyph-name="S" unicode="S" horiz-adv-x="1180" 
d="M37 426h139q18 -168 117 -252t278 -84q175 0 282.5 83t107.5 235q0 129 -80.5 191t-300.5 114q-289 67 -391.5 166t-102.5 249q0 173 142.5 275t340.5 102q217 0 350.5 -104.5t155.5 -310.5h-139q-12 145 -110 218.5t-257 73.5q-142 0 -243 -66t-101 -188q0 -113 77 -176
t319 -116q279 -63 380 -167.5t101 -260.5q0 -195 -151 -317t-380 -122q-220 0 -368.5 120.5t-165.5 336.5z" />
    <glyph glyph-name="T" unicode="T" horiz-adv-x="1266" 
d="M45 1475h1174v-121h-519v-1354h-135v1354h-520v121z" />
    <glyph glyph-name="U" unicode="U" horiz-adv-x="1323" 
d="M254 1475v-904q0 -242 102 -362.5t306 -120.5q203 0 305 120.5t102 362.5v904h135v-904q0 -194 -64 -329t-187 -204t-291 -69q-256 0 -399.5 154t-143.5 448v904h135z" />
    <glyph glyph-name="V" unicode="V" horiz-adv-x="1356" 
d="M1327 1475l-577 -1475h-158l-582 1475h144l516 -1332h8l510 1332h139z" />
    <glyph glyph-name="W" unicode="W" horiz-adv-x="1868" 
d="M932 1331l-334 -1331h-186l-346 1475h139l303 -1342h6l330 1342h182l324 -1342h6l311 1342h135l-354 -1475h-191l-321 1331h-4z" />
    <glyph glyph-name="X" unicode="X" horiz-adv-x="1278" 
d="M631 883l397 592h152l-473 -705l514 -770h-154l-434 653l-428 -653h-150l504 762l-473 713h154z" />
    <glyph glyph-name="Y" unicode="Y" horiz-adv-x="1278" 
d="M647 670l457 805h137l-532 -912v-563h-136v549l-538 926h149z" />
    <glyph glyph-name="Z" unicode="Z" horiz-adv-x="1229" 
d="M1151 1475v-119l-915 -1235h915v-121h-1075v119l915 1235h-860v121h1020z" />
    <glyph glyph-name="bracketleft" unicode="[" horiz-adv-x="666" 
d="M137 -426v1901h492v-117h-363v-1667h363v-117h-492z" />
    <glyph glyph-name="backslash" unicode="\" horiz-adv-x="719" 
d="M662 0h-111l-496 1475h111z" />
    <glyph glyph-name="bracketright" unicode="]" horiz-adv-x="666" 
d="M526 1475v-1901h-491v117h362v1667h-362v117h491z" />
    <glyph glyph-name="asciicircum" unicode="^" horiz-adv-x="1303" 
d="M1141 725h-156l-332 571h-6l-332 -571h-153l440 733h96z" />
    <glyph glyph-name="underscore" unicode="_" horiz-adv-x="1034" 
d="M1049 -213h-1065v113h1065v-113z" />
    <glyph glyph-name="grave" unicode="`" horiz-adv-x="645" 
d="M412 1182h-148l-258 295h162z" />
    <glyph glyph-name="a" unicode="a" horiz-adv-x="1024" 
d="M242 762h-131q31 147 138.5 219t260.5 72q178 0 279.5 -102.5t101.5 -268.5v-514q0 -113 22 -168h-133q-22 59 -22 119q-126 -150 -324 -150q-160 0 -253 78t-93 223q0 177 168 271t506 123v18q0 120 -63.5 185t-186.5 65q-112 0 -179.5 -42.5t-90.5 -127.5zM762 563
q-281 -35 -411 -104.5t-130 -188.5q0 -86 60 -134t153 -48q150 0 239 84.5t89 237.5v153z" />
    <glyph glyph-name="b" unicode="b" horiz-adv-x="1178" 
d="M266 885q126 168 359 168q214 0 346.5 -147t132.5 -396q0 -247 -132.5 -394t-346.5 -147q-237 0 -359 178v-147h-129v1475h129v-590zM266 502q0 -194 94 -304t263 -110q161 0 254.5 110.5t93.5 313.5q0 207 -95.5 314.5t-252.5 107.5q-168 0 -262.5 -102t-94.5 -279v-51z
" />
    <glyph glyph-name="c" unicode="c" horiz-adv-x="1055" 
d="M866 731q-42 100 -116.5 150.5t-182.5 50.5q-145 0 -252.5 -105.5t-107.5 -316.5q0 -139 48 -234t133.5 -140.5t178.5 -45.5q108 0 182.5 50t116.5 151h133q-39 -157 -151.5 -239.5t-280.5 -82.5q-205 0 -349 142.5t-144 398.5t146.5 399.5t346.5 143.5
q168 0 280.5 -82.5t151.5 -239.5h-133z" />
    <glyph glyph-name="d" unicode="d" horiz-adv-x="1180" 
d="M913 0v147q-121 -178 -362 -178q-213 0 -345 147t-132 394q0 252 132.5 397.5t344.5 145.5q235 0 360 -168v590h129v-1475h-127zM911 508v31q0 194 -91 294.5t-267 100.5q-160 0 -253 -110.5t-93 -311.5q0 -203 93 -313.5t253 -110.5q179 0 268.5 105t89.5 315z" />
    <glyph glyph-name="e" unicode="e" horiz-adv-x="1110" 
d="M887 285h139q-60 -154 -181 -235t-270 -81q-211 0 -356 144t-145 399q0 164 64.5 286.5t181 188.5t251.5 66q207 0 336 -138.5t129 -392.5q0 -46 -4 -73h-821q13 -182 118 -270.5t242 -88.5q110 0 189 48.5t127 146.5zM209 565h696q-7 177 -100.5 272t-233.5 95
q-142 0 -244.5 -90.5t-117.5 -276.5z" />
    <glyph glyph-name="f" unicode="f" horiz-adv-x="690" 
d="M381 0h-129v905h-217v117h217v154q0 180 80 248.5t215 68.5q64 0 117 -8v-119q-58 6 -109 6q-98 0 -136 -45t-38 -147v-158h254v-117h-254v-905z" />
    <glyph glyph-name="g" unicode="g" horiz-adv-x="1094" 
d="M221 127q-98 41 -98 143t106 154q-120 102 -120 266q0 166 119.5 264.5t308.5 98.5q151 0 262 -64q113 82 264 82v-117q-108 -6 -174 -36q74 -94 74 -228q0 -169 -122 -265.5t-304 -96.5q-121 0 -209 39q-72 -33 -72 -93q0 -56 58.5 -70t222.5 -14q256 0 384 -79
t128 -236q0 -155 -143 -243.5t-369 -88.5q-229 0 -370.5 88.5t-141.5 243.5q0 85 56.5 152.5t139.5 99.5zM537 936q-137 0 -218 -64.5t-81 -181.5q0 -121 84.5 -184.5t214.5 -63.5q133 0 215 66t82 182q0 122 -84 184t-213 62zM158 -127q0 -103 105.5 -156t271.5 -53
q165 0 272.5 54t107.5 157q0 98 -87.5 149.5t-290.5 51.5q-202 0 -290.5 -50.5t-88.5 -152.5z" />
    <glyph glyph-name="h" unicode="h" 
d="M266 1475v-580q59 79 144.5 118.5t197.5 39.5q179 0 272 -104t93 -304v-645h-129v637q0 160 -65 227.5t-189 67.5q-145 0 -234.5 -84.5t-89.5 -237.5v-610h-129v1475h129z" />
    <glyph glyph-name="i" unicode="i" horiz-adv-x="420" 
d="M210 1294q-39 0 -68.5 29.5t-29.5 67.5t29.5 67t68.5 29q38 0 67 -29t29 -67q0 -39 -29 -68t-67 -29zM145 0v1022h129v-1022h-129z" />
    <glyph glyph-name="j" unicode="j" horiz-adv-x="420" 
d="M210 1294q-39 0 -68.5 29.5t-29.5 67.5t29.5 67t68.5 29q38 0 67 -29t29 -67q0 -39 -29 -68t-67 -29zM274 1022v-1135q0 -183 -49.5 -263.5t-201.5 -80.5q-37 0 -70 4v119l70 -2q60 0 85.5 20t31 62t5.5 141v1135h129z" />
    <glyph glyph-name="k" unicode="k" horiz-adv-x="999" 
d="M498 610l506 -610h-170l-428 518l-140 -139v-379h-129v1475h129v-926l475 473h174z" />
    <glyph glyph-name="l" unicode="l" horiz-adv-x="406" 
d="M266 0h-129v1475h129v-1475z" />
    <glyph glyph-name="m" unicode="m" horiz-adv-x="1726" 
d="M266 897q51 78 129.5 117t184.5 39q117 0 195.5 -46.5t117.5 -138.5q57 92 143.5 138.5t202.5 46.5q179 0 268.5 -96.5t89.5 -288.5v-668h-129v670q0 136 -56.5 199t-182.5 63q-136 0 -216.5 -78t-80.5 -221v-633h-129v637q0 162 -58 228.5t-182 66.5q-134 0 -215.5 -84
t-81.5 -238v-610h-129v1022h129v-125z" />
    <glyph glyph-name="n" unicode="n" 
d="M266 1022v-127q118 158 342 158q179 0 272 -104t93 -304v-645h-129v637q0 152 -57.5 223.5t-188.5 71.5q-151 0 -241.5 -84t-90.5 -238v-610h-129v1022h129z" />
    <glyph glyph-name="o" unicode="o" horiz-adv-x="1147" 
d="M573 1053q210 0 355 -143.5t145 -399.5q0 -255 -145 -398t-355 -143q-209 0 -354 143t-145 398q0 168 65 290.5t182.5 187.5t251.5 65zM573 90q158 0 262.5 105.5t104.5 314.5q0 139 -47.5 234t-134 141.5t-185.5 46.5q-157 0 -261.5 -106t-104.5 -316
q0 -209 104.5 -314.5t261.5 -105.5z" />
    <glyph glyph-name="p" unicode="p" horiz-adv-x="1178" 
d="M266 885q63 84 152.5 126t206.5 42q214 0 346.5 -147t132.5 -396q0 -247 -132.5 -394t-346.5 -147q-235 0 -359 170v-565h-129v1448h129v-137zM266 508q0 -209 89 -313.5t268 -104.5q162 0 255 110t93 312q0 201 -93 310.5t-255 109.5q-175 0 -266 -100t-91 -293v-31z
" />
    <glyph glyph-name="q" unicode="q" horiz-adv-x="1180" 
d="M911 139q-62 -85 -151.5 -127.5t-206.5 -42.5q-215 0 -347 147t-132 394q0 249 132 396t347 147q116 0 205.5 -42t152.5 -126v137h129v-1448h-129v565zM911 539q0 193 -90.5 293t-265.5 100q-162 0 -255 -109.5t-93 -310.5q0 -202 93 -312t255 -110q178 0 267 104.5
t89 313.5v31z" />
    <glyph glyph-name="r" unicode="r" horiz-adv-x="715" 
d="M137 1022h129v-158q39 90 123 139.5t195 49.5q51 0 94 -6v-121q-50 6 -94 6q-151 0 -234.5 -85.5t-83.5 -246.5v-600h-129v1022z" />
    <glyph glyph-name="s" unicode="s" horiz-adv-x="915" 
d="M838 760h-129q-10 86 -70 129t-170 43q-117 0 -182.5 -42.5t-65.5 -117.5q0 -71 48.5 -101t164.5 -60q154 -41 233 -71t134 -91t55 -164q0 -147 -111 -231.5t-278 -84.5q-168 0 -280 84.5t-130 239.5h129q22 -102 92.5 -152.5t188.5 -50.5t187 49t69 137t-58.5 124.5
t-212.5 77.5q-131 36 -199.5 64.5t-116.5 84t-48 145.5q0 131 108 206t273 75q154 0 255 -73.5t114 -219.5z" />
    <glyph glyph-name="t" unicode="t" horiz-adv-x="696" 
d="M55 1022h189v328h129v-328h245v-117h-245v-706q0 -60 23.5 -84.5t107.5 -24.5q37 0 114 6v-104q-64 -23 -141 -23q-123 0 -178 56t-55 198v682h-189v117z" />
    <glyph glyph-name="u" unicode="u" 
d="M834 0v127q-59 -79 -144.5 -118.5t-197.5 -39.5q-179 0 -272 104t-93 304v645h129v-637q0 -152 57.5 -223.5t188.5 -71.5q150 0 241 84t91 238v610h129v-1022h-129z" />
    <glyph glyph-name="v" unicode="v" horiz-adv-x="973" 
d="M563 0h-153l-400 1022h137l338 -893h9l337 893h132z" />
    <glyph glyph-name="w" unicode="w" horiz-adv-x="1571" 
d="M782 770l-252 -770h-176l-334 1022h138l286 -893h7l288 893h92l289 -893h6l287 893h137l-333 -1022h-177l-252 770h-6z" />
    <glyph glyph-name="x" unicode="x" horiz-adv-x="989" 
d="M487 420l-288 -420h-156l373 524l-350 498h159l283 -404l278 404h156l-360 -508l362 -514h-160z" />
    <glyph glyph-name="y" unicode="y" horiz-adv-x="1014" 
d="M543 182l319 840h131l-475 -1229q-60 -155 -127 -202.5t-164 -47.5q-89 0 -153 33v119q79 -33 153 -33t108.5 34.5t59.5 100.5l78 203l-438 1022h145l355 -840h8z" />
    <glyph glyph-name="z" unicode="z" horiz-adv-x="901" 
d="M834 0h-768v117l591 788h-585v117h739v-117l-592 -788h615v-117z" />
    <glyph glyph-name="braceleft" unicode="{" horiz-adv-x="684" 
d="M35 580q79 8 116 70.5t45.5 145.5t8.5 216v147q0 160 80 238t258 78h104v-117h-100q-71 0 -114 -10.5t-71 -54t-28 -134.5v-147q0 -253 -50 -352.5t-124 -135.5q75 -36 124.5 -136.5t49.5 -350.5v-148q0 -91 28 -134t71 -53.5t114 -10.5h100v-117h-104q-174 0 -256 75.5
t-82 239.5v148q0 133 -8.5 217t-45.5 146t-116 71v109z" />
    <glyph glyph-name="bar" unicode="|" horiz-adv-x="406" 
d="M266 -426h-129v1901h129v-1901z" />
    <glyph glyph-name="braceright" unicode="}" horiz-adv-x="684" 
d="M647 471q-79 -9 -116 -71t-45.5 -146t-8.5 -217v-148q0 -164 -82 -239.5t-256 -75.5h-104v117h100q71 0 114 10.5t71 53.5t28 134v148q0 250 49.5 350.5t124.5 136.5q-75 36 -124.5 135.5t-49.5 352.5v147q0 91 -28 134.5t-71 54t-114 10.5h-100v117h104q174 0 256 -76
t82 -240v-147q0 -133 8.5 -216t45.5 -145.5t116 -70.5v-109z" />
    <glyph glyph-name="asciitilde" unicode="~" horiz-adv-x="987" 
d="M928 975q0 -118 -65 -191t-177 -73q-70 0 -178 55q-113 57 -151 70.5t-70 13.5q-54 0 -80.5 -33.5t-26.5 -99.5h-135q0 117 65 190.5t177 73.5q116 0 249 -81q97 -58 150 -58t80 33t27 100h135z" />
    <glyph glyph-name="Aacute" unicode="&#xc1;" horiz-adv-x="1368" 
d="M1352 0h-144l-196 516h-662l-196 -516h-140l578 1475h182zM963 635l-277 719h-8l-281 -719h566zM721 1573h-146l242 295h162z" />
    <glyph glyph-name="Agrave" unicode="&#xc0;" horiz-adv-x="1368" 
d="M1352 0h-144l-196 516h-662l-196 -516h-140l578 1475h182zM963 635l-277 719h-8l-281 -719h566zM791 1573h-148l-258 295h162z" />
    <glyph glyph-name="Acircumflex" unicode="&#xc2;" horiz-adv-x="1368" 
d="M1352 0h-144l-196 516h-662l-196 -516h-140l578 1475h182zM963 635l-277 719h-8l-281 -719h566zM487 1573h-151l276 295h146l272 -295h-149l-197 200z" />
    <glyph glyph-name="Adieresis" unicode="&#xc4;" horiz-adv-x="1368" 
d="M1352 0h-144l-196 516h-662l-196 -516h-140l578 1475h182zM963 635l-277 719h-8l-281 -719h566zM470 1593q-40 0 -69.5 29t-29.5 69t29.5 69t69.5 29q39 0 68.5 -29t29.5 -69t-29.5 -69t-68.5 -29zM896 1593q-40 0 -69.5 29t-29.5 69t29.5 69t69.5 29q39 0 68.5 -29
t29.5 -69t-29.5 -69t-68.5 -29z" />
    <glyph glyph-name="Atilde" unicode="&#xc3;" horiz-adv-x="1368" 
d="M1352 0h-144l-196 516h-662l-196 -516h-140l578 1475h182zM963 635l-277 719h-8l-281 -719h566zM1045 1804q0 -100 -54 -159.5t-145 -59.5q-83 0 -176 53q-100 57 -146 57q-79 0 -79 -102h-123q0 99 54 158t144 59q48 0 89 -12t120 -55q66 -37 117 -37q76 0 76 98h123z
" />
    <glyph glyph-name="Amacron" unicode="&#x100;" horiz-adv-x="1368" 
d="M1352 0h-144l-196 516h-662l-196 -516h-140l578 1475h182zM963 635l-277 719h-8l-281 -719h566zM365 1593v131h637v-131h-637z" />
    <glyph glyph-name="Aring" unicode="&#xc5;" horiz-adv-x="1368" 
d="M1352 0h-144l-196 516h-662l-196 -516h-140l578 1475h182zM963 635l-277 719h-8l-281 -719h566zM682 1552q-88 0 -150.5 62t-62.5 151t62 151t151 62t151 -62t62 -151t-62 -151t-151 -62zM682 1880q-47 0 -80.5 -34t-33.5 -81t33.5 -81t80.5 -34q48 0 81.5 34t33.5 81
t-33.5 81t-81.5 34z" />
    <glyph glyph-name="Abreve" unicode="&#x102;" horiz-adv-x="1368" 
d="M1352 0h-144l-196 516h-662l-196 -516h-140l578 1475h182zM963 635l-277 719h-8l-281 -719h566zM512 1802q25 -139 170 -139t170 139h121q-17 -120 -94 -185t-197 -65q-121 0 -197.5 65.5t-91.5 184.5h119z" />
    <glyph glyph-name="Aogonek" unicode="&#x104;" horiz-adv-x="1368" 
d="M1352 0q-111 -61 -167.5 -112.5t-56.5 -120.5q0 -47 33.5 -69t110.5 -22l80 2v-100q-58 -8 -92 -8q-137 0 -205 49.5t-68 147.5q0 70 53 133t160 118l-188 498h-662l-196 -516h-140l576 1475h186zM963 635l-279 733h-4l-283 -733h566z" />
    <glyph glyph-name="AE" unicode="&#xc6;" horiz-adv-x="1958" 
d="M938 0v516h-592l-196 -516h-140l576 1475h1245v-121h-758v-537h721v-121h-721v-575h776v-121h-911zM393 635h545v719h-266z" />
    <glyph glyph-name="Cacute" unicode="&#x106;" horiz-adv-x="1360" 
d="M1167 1081q-31 134 -150 218.5t-280 84.5q-243 0 -371 -175t-128 -472q0 -296 128 -471.5t371 -175.5q161 0 280 85t150 218h136q-41 -194 -197.5 -309t-368.5 -115q-298 0 -469.5 210t-171.5 558t171.5 558t469.5 210q214 0 369.5 -113.5t196.5 -310.5h-136zM778 1573
h-146l242 295h162z" />
    <glyph glyph-name="Ccaron" unicode="&#x10c;" horiz-adv-x="1360" 
d="M1167 1081q-31 134 -150 218.5t-280 84.5q-243 0 -371 -175t-128 -472q0 -296 128 -471.5t371 -175.5q161 0 280 85t150 218h136q-41 -194 -197.5 -309t-368.5 -115q-298 0 -469.5 210t-171.5 558t171.5 558t469.5 210q214 0 369.5 -113.5t196.5 -310.5h-136zM393 1868
h151l197 -201l197 201h149l-272 -295h-146z" />
    <glyph glyph-name="Ccedilla" unicode="&#xc7;" horiz-adv-x="1360" 
d="M627 -158l39 131q-273 28 -421.5 235.5t-148.5 528.5q0 348 171.5 558t469.5 210q214 0 369.5 -113.5t196.5 -310.5h-136q-31 134 -150 218.5t-280 84.5q-243 0 -371 -175t-128 -472q0 -296 128 -471.5t371 -175.5q161 0 280 85t150 218h136q-38 -180 -178.5 -294
t-342.5 -128l-16 -59q164 -23 164 -145q0 -81 -65 -139t-208 -58q-33 0 -131 8l9 105q74 -7 100 -7q162 0 162 91q0 44 -46.5 59t-123.5 16z" />
    <glyph glyph-name="Dcaron" unicode="&#x10e;" horiz-adv-x="1399" 
d="M137 1475h475q334 0 511 -190.5t177 -547.5q0 -356 -176.5 -546.5t-511.5 -190.5h-475v1475zM614 1354h-342v-1233h342q271 0 407 154t136 462t-136 462.5t-407 154.5zM287 1868h151l197 -201l197 201h149l-272 -295h-146z" />
    <glyph glyph-name="Dcroat" unicode="&#x110;" horiz-adv-x="1399" 
d="M-6 680v127h143v668h475q334 0 511 -190.5t177 -547.5q0 -356 -176.5 -546.5t-511.5 -190.5h-475v680h-143zM614 1354h-342v-547h297v-127h-297v-559h342q271 0 407 154t136 462t-136 462.5t-407 154.5z" />
    <glyph glyph-name="Eacute" unicode="&#xc9;" horiz-adv-x="1157" 
d="M1049 0h-912v1475h893v-121h-758v-537h721v-121h-721v-575h777v-121zM655 1573h-146l242 295h162z" />
    <glyph glyph-name="Egrave" unicode="&#xc8;" horiz-adv-x="1157" 
d="M1049 0h-912v1475h893v-121h-758v-537h721v-121h-721v-575h777v-121zM682 1573h-148l-258 295h162z" />
    <glyph glyph-name="Ecircumflex" unicode="&#xca;" horiz-adv-x="1157" 
d="M1049 0h-912v1475h893v-121h-758v-537h721v-121h-721v-575h777v-121zM393 1573h-151l276 295h146l272 -295h-149l-197 200z" />
    <glyph glyph-name="Edieresis" unicode="&#xcb;" horiz-adv-x="1157" 
d="M1049 0h-912v1475h893v-121h-758v-537h721v-121h-721v-575h777v-121zM378 1632q-40 0 -69.5 29t-29.5 69t29.5 69t69.5 29q39 0 68.5 -29t29.5 -69t-29.5 -69t-68.5 -29zM804 1632q-40 0 -69.5 29t-29.5 69t29.5 69t69.5 29q39 0 68.5 -29t29.5 -69t-29.5 -69t-68.5 -29z
" />
    <glyph glyph-name="Emacron" unicode="&#x112;" horiz-adv-x="1157" 
d="M1049 0h-912v1475h893v-121h-758v-537h721v-121h-721v-575h777v-121zM272 1632v131h637v-131h-637z" />
    <glyph glyph-name="Ecaron" unicode="&#x11a;" horiz-adv-x="1157" 
d="M1049 0h-912v1475h893v-121h-758v-537h721v-121h-721v-575h777v-121zM254 1868h151l197 -201l197 201h149l-272 -295h-146z" />
    <glyph glyph-name="Edotaccent" unicode="&#x116;" horiz-adv-x="1157" 
d="M1049 0h-912v1475h893v-121h-758v-537h721v-121h-721v-575h777v-121zM603 1632q-39 0 -69 29t-30 67t30 67t69 29q38 0 67 -29t29 -67t-29 -67t-67 -29z" />
    <glyph glyph-name="Eogonek" unicode="&#x118;" horiz-adv-x="1157" 
d="M1049 0q-111 -61 -167.5 -112.5t-56.5 -120.5q0 -47 33.5 -69t110.5 -22l80 2v-100q-58 -8 -93 -8q-136 0 -204 49.5t-68 147.5q0 63 45 121.5t135 111.5h-727v1475h893v-121h-758v-537h721v-121h-721v-575h777v-121z" />
    <glyph glyph-name="Gbreve" unicode="&#x11e;" horiz-adv-x="1462" 
d="M1337 1044h-139q-49 161 -175.5 250.5t-303.5 89.5q-234 0 -357.5 -177t-123.5 -470t123.5 -470t357.5 -177t364 140t142 384h-387v117h526v-39q0 -342 -165 -532.5t-480 -190.5q-287 0 -455 211.5t-168 556.5q0 338 164 553t459 215q238 0 396.5 -119t221.5 -342z
M557 1802q25 -139 170 -139t170 139h121q-17 -120 -94 -185t-197 -65q-121 0 -197.5 65.5t-91.5 184.5h119z" />
    <glyph glyph-name="Gcommaaccent" unicode="&#x122;" horiz-adv-x="1462" 
d="M1337 1044h-139q-49 161 -175.5 250.5t-303.5 89.5q-234 0 -357.5 -177t-123.5 -470t123.5 -470t357.5 -177t364 140t142 384h-387v117h526v-39q0 -342 -165 -532.5t-480 -190.5q-287 0 -455 211.5t-168 556.5q0 338 164 553t459 215q238 0 396.5 -119t221.5 -342z
M750 -471l-68 45q55 73 55 143q-50 0 -80 28.5t-30 78.5q0 42 29.5 72t72.5 30q53 0 84 -38.5t31 -106.5q0 -141 -94 -252z" />
    <glyph glyph-name="Iacute" unicode="&#xcd;" horiz-adv-x="412" 
d="M272 0h-135v1475h135v-1475zM238 1552h-146l242 295h162z" />
    <glyph glyph-name="Igrave" unicode="&#xcc;" horiz-adv-x="412" 
d="M272 0h-135v1475h135v-1475zM340 1552h-148l-258 295h162z" />
    <glyph glyph-name="Icircumflex" unicode="&#xce;" horiz-adv-x="412" 
d="M272 0h-135v1475h135v-1475zM8 1573h-151l276 295h146l272 -295h-149l-197 200z" />
    <glyph glyph-name="Idieresis" unicode="&#xcf;" horiz-adv-x="412" 
d="M272 0h-135v1475h135v-1475zM-7 1632q-40 0 -69.5 29t-29.5 69t29.5 69t69.5 29q39 0 68.5 -29t29.5 -69t-29.5 -69t-68.5 -29zM419 1632q-40 0 -69.5 29t-29.5 69t29.5 69t69.5 29q39 0 68.5 -29t29.5 -69t-29.5 -69t-68.5 -29z" />
    <glyph glyph-name="Imacron" unicode="&#x12a;" horiz-adv-x="412" 
d="M272 0h-135v1475h135v-1475zM-113 1632v131h637v-131h-637z" />
    <glyph glyph-name="Idotaccent" unicode="&#x130;" horiz-adv-x="412" 
d="M272 0h-135v1475h135v-1475zM205 1632q-39 0 -69 29t-30 67t30 67t69 29q38 0 67 -29t29 -67t-29 -67t-67 -29z" />
    <glyph glyph-name="Iogonek" unicode="&#x12e;" horiz-adv-x="412" 
d="M272 0q-60 -53 -91 -114.5t-31 -106.5q0 -61 30.5 -82t118.5 -21l74 2v-100q-43 -8 -103 -8q-129 0 -190 46q-30 23 -45 60.5t-15 90.5q0 64 29 121.5t88 109.5v1477h135v-1475z" />
    <glyph glyph-name="Kcommaaccent" unicode="&#x136;" horiz-adv-x="1178" 
d="M555 823l635 -823h-166l-553 727l-199 -231v-496h-135v1475h135v-801l684 801h158zM613 -471l-68 45q55 73 55 143q-50 0 -80 28.5t-30 78.5q0 42 29.5 72t72.5 30q53 0 84 -38.5t31 -106.5q0 -141 -94 -252z" />
    <glyph glyph-name="Lacute" unicode="&#x139;" horiz-adv-x="1024" 
d="M987 0h-850v1475h135v-1356h715v-119zM467 1571h-146l242 295h162z" />
    <glyph glyph-name="Lcaron" unicode="&#x13d;" horiz-adv-x="1024" 
d="M674 1284q-46 0 -78.5 30t-32.5 77q0 41 30.5 71.5t72.5 30.5q52 0 83 -38t31 -107q0 -104 -36.5 -188.5t-108.5 -149.5l-49 39q44 50 66 109t22 126zM987 0h-850v1475h135v-1356h715v-119z" />
    <glyph glyph-name="Lcommaaccent" unicode="&#x13b;" horiz-adv-x="1024" 
d="M987 0h-850v1475h135v-1356h715v-119zM574 -471l-68 45q55 73 55 143q-50 0 -80 28.5t-30 78.5q0 42 29.5 72t72.5 30q53 0 84 -38.5t31 -106.5q0 -141 -94 -252z" />
    <glyph glyph-name="Lslash" unicode="&#x141;" horiz-adv-x="1090" 
d="M987 0h-850v571l-147 -104v164l147 104v740h135v-646l234 166v-164l-234 -165v-547h715v-119z" />
    <glyph glyph-name="Nacute" unicode="&#x143;" horiz-adv-x="1372" 
d="M1233 1475v-1475h-164l-803 1302v-1302h-129v1475h174l793 -1288v1288h129zM739 1573h-146l242 295h162z" />
    <glyph glyph-name="Ntilde" unicode="&#xd1;" horiz-adv-x="1372" 
d="M1233 1475v-1475h-164l-803 1302v-1302h-129v1475h174l793 -1288v1288h129zM1061 1804q0 -100 -54 -159.5t-145 -59.5q-83 0 -176 53q-100 57 -146 57q-79 0 -79 -102h-123q0 99 54 158t144 59q48 0 89 -12t120 -55q66 -37 117 -37q76 0 76 98h123z" />
    <glyph glyph-name="Ncaron" unicode="&#x147;" horiz-adv-x="1372" 
d="M1233 1475v-1475h-164l-803 1302v-1302h-129v1475h174l793 -1288v1288h129zM344 1868h151l197 -201l197 201h149l-272 -295h-146z" />
    <glyph glyph-name="Ncommaaccent" unicode="&#x145;" horiz-adv-x="1372" 
d="M1233 1475v-1475h-164l-803 1302v-1302h-129v1475h174l793 -1288v1288h129zM699 -471l-68 45q55 73 55 143q-50 0 -80 28.5t-30 78.5q0 42 29.5 72t72.5 30q53 0 84 -38.5t31 -106.5q0 -141 -94 -252z" />
    <glyph glyph-name="Oacute" unicode="&#xd3;" horiz-adv-x="1475" 
d="M1376 737q0 -348 -170.5 -558t-468.5 -210t-469.5 210t-171.5 558t171.5 558t469.5 210t468.5 -210t170.5 -558zM1235 737q0 296 -127.5 471.5t-370.5 175.5t-371 -175t-128 -472q0 -296 128 -471.5t371 -175.5t370.5 175.5t127.5 471.5zM774 1573h-146l242 295h162z" />
    <glyph glyph-name="Ograve" unicode="&#xd2;" horiz-adv-x="1475" 
d="M1376 737q0 -348 -170.5 -558t-468.5 -210t-469.5 210t-171.5 558t171.5 558t469.5 210t468.5 -210t170.5 -558zM1235 737q0 296 -127.5 471.5t-370.5 175.5t-371 -175t-128 -472q0 -296 128 -471.5t371 -175.5t370.5 175.5t127.5 471.5zM868 1573h-148l-258 295h162z
" />
    <glyph glyph-name="Ocircumflex" unicode="&#xd4;" horiz-adv-x="1475" 
d="M1376 737q0 -348 -170.5 -558t-468.5 -210t-469.5 210t-171.5 558t171.5 558t469.5 210t468.5 -210t170.5 -558zM1235 737q0 296 -127.5 471.5t-370.5 175.5t-371 -175t-128 -472q0 -296 128 -471.5t371 -175.5t370.5 175.5t127.5 471.5zM542 1573h-151l276 295h146
l272 -295h-149l-197 200z" />
    <glyph glyph-name="Odieresis" unicode="&#xd6;" horiz-adv-x="1475" 
d="M1376 737q0 -348 -170.5 -558t-468.5 -210t-469.5 210t-171.5 558t171.5 558t469.5 210t468.5 -210t170.5 -558zM1235 737q0 296 -127.5 471.5t-370.5 175.5t-371 -175t-128 -472q0 -296 128 -471.5t371 -175.5t370.5 175.5t127.5 471.5zM525 1634q-40 0 -69.5 29
t-29.5 69t29.5 69t69.5 29q39 0 68.5 -29t29.5 -69t-29.5 -69t-68.5 -29zM951 1634q-40 0 -69.5 29t-29.5 69t29.5 69t69.5 29q39 0 68.5 -29t29.5 -69t-29.5 -69t-68.5 -29z" />
    <glyph glyph-name="Otilde" unicode="&#xd5;" horiz-adv-x="1475" 
d="M1376 737q0 -348 -170.5 -558t-468.5 -210t-469.5 210t-171.5 558t171.5 558t469.5 210t468.5 -210t170.5 -558zM1235 737q0 296 -127.5 471.5t-370.5 175.5t-371 -175t-128 -472q0 -296 128 -471.5t371 -175.5t370.5 175.5t127.5 471.5zM1098 1804q0 -100 -54 -159.5
t-145 -59.5q-83 0 -176 53q-100 57 -146 57q-79 0 -79 -102h-123q0 99 54 158t144 59q48 0 89 -12t120 -55q66 -37 117 -37q76 0 76 98h123z" />
    <glyph glyph-name="Omacron" unicode="&#x14c;" horiz-adv-x="1475" 
d="M1376 737q0 -348 -170.5 -558t-468.5 -210t-469.5 210t-171.5 558t171.5 558t469.5 210t468.5 -210t170.5 -558zM1235 737q0 296 -127.5 471.5t-370.5 175.5t-371 -175t-128 -472q0 -296 128 -471.5t371 -175.5t370.5 175.5t127.5 471.5zM422 1632v131h637v-131h-637z
" />
    <glyph glyph-name="Ohungarumlaut" unicode="&#x150;" horiz-adv-x="1475" 
d="M1376 737q0 -348 -170.5 -558t-468.5 -210t-469.5 210t-171.5 558t171.5 558t469.5 210t468.5 -210t170.5 -558zM1235 737q0 296 -127.5 471.5t-370.5 175.5t-371 -175t-128 -472q0 -296 128 -471.5t371 -175.5t370.5 175.5t127.5 471.5zM578 1573h-145l242 295h161z
M994 1573h-145l241 295h162z" />
    <glyph glyph-name="Oslash" unicode="&#xd8;" horiz-adv-x="1475" 
d="M1214 1284q162 -211 162 -547q0 -348 -170.5 -558t-468.5 -210q-236 0 -397 135l-98 -135h-144l162 219q-164 210 -164 549q0 348 171.5 558t469.5 210q230 0 396 -135l100 135h143zM1057 1266q-126 118 -320 118q-243 0 -371 -175t-128 -472q0 -269 104 -438zM416 207
q123 -117 321 -117q243 0 370.5 175.5t127.5 471.5q0 267 -105 437z" />
    <glyph glyph-name="OE" unicode="&#x152;" horiz-adv-x="2259" 
d="M1235 0v236q-84 -134 -208.5 -200.5t-289.5 -66.5q-298 0 -469.5 210t-171.5 558t171.5 558t469.5 210q165 0 289.5 -66.5t208.5 -199.5v236h893v-121h-758v-537h721v-121h-721v-575h776v-121h-911zM238 737q0 -296 128 -471.5t371 -175.5t370.5 175.5t127.5 471.5
t-127.5 471.5t-370.5 175.5t-371 -175t-128 -472z" />
    <glyph glyph-name="Racute" unicode="&#x154;" horiz-adv-x="1217" 
d="M598 655h-326v-655h-135v1475h502q247 0 380.5 -107t133.5 -303q0 -170 -101.5 -274t-297.5 -129l422 -662h-160zM272 776h367q186 0 279.5 72t93.5 217q0 144 -93.5 216.5t-279.5 72.5h-367v-578zM647 1571h-146l242 295h162z" />
    <glyph glyph-name="Rcaron" unicode="&#x158;" horiz-adv-x="1217" 
d="M598 655h-326v-655h-135v1475h502q247 0 380.5 -107t133.5 -303q0 -170 -101.5 -274t-297.5 -129l422 -662h-160zM272 776h367q186 0 279.5 72t93.5 217q0 144 -93.5 216.5t-279.5 72.5h-367v-578zM258 1866h151l197 -201l197 201h149l-272 -295h-146z" />
    <glyph glyph-name="Rcommaaccent" unicode="&#x156;" horiz-adv-x="1217" 
d="M598 655h-326v-655h-135v1475h502q247 0 380.5 -107t133.5 -303q0 -170 -101.5 -274t-297.5 -129l422 -662h-160zM272 776h367q186 0 279.5 72t93.5 217q0 144 -93.5 216.5t-279.5 72.5h-367v-578zM629 -471l-68 45q55 73 55 143q-50 0 -80 28.5t-30 78.5q0 42 29.5 72
t72.5 30q53 0 84 -38.5t31 -106.5q0 -141 -94 -252z" />
    <glyph glyph-name="Sacute" unicode="&#x15a;" horiz-adv-x="1180" 
d="M37 426h139q18 -168 117 -252t278 -84q175 0 282.5 83t107.5 235q0 129 -80.5 191t-300.5 114q-289 67 -391.5 166t-102.5 249q0 173 142.5 275t340.5 102q217 0 350.5 -104.5t155.5 -310.5h-139q-12 145 -110 218.5t-257 73.5q-142 0 -243 -66t-101 -188q0 -113 77 -176
t319 -116q279 -63 380 -167.5t101 -260.5q0 -195 -151 -317t-380 -122q-220 0 -368.5 120.5t-165.5 336.5zM629 1571h-146l242 295h162z" />
    <glyph glyph-name="Scaron" unicode="&#x160;" horiz-adv-x="1180" 
d="M37 426h139q18 -168 117 -252t278 -84q175 0 282.5 83t107.5 235q0 129 -80.5 191t-300.5 114q-289 67 -391.5 166t-102.5 249q0 173 142.5 275t340.5 102q217 0 350.5 -104.5t155.5 -310.5h-139q-12 145 -110 218.5t-257 73.5q-142 0 -243 -66t-101 -188q0 -113 77 -176
t319 -116q279 -63 380 -167.5t101 -260.5q0 -195 -151 -317t-380 -122q-220 0 -368.5 120.5t-165.5 336.5zM227 1868h151l197 -201l197 201h149l-272 -295h-146z" />
    <glyph glyph-name="Scedilla" unicode="&#x15e;" horiz-adv-x="1180" 
d="M457 -158l39 131q-201 23 -323 142.5t-136 310.5h139q18 -168 117 -252t278 -84q175 0 282.5 83t107.5 235q0 129 -80.5 191t-300.5 114q-289 67 -391.5 166t-102.5 249q0 173 142.5 275t340.5 102q217 0 350.5 -104.5t155.5 -310.5h-139q-12 145 -110 218.5t-257 73.5
q-142 0 -243 -66t-101 -188q0 -113 77 -176t319 -116q279 -63 380 -167.5t101 -260.5q0 -182 -133 -302t-357 -135l-16 -59q164 -23 164 -145q0 -81 -65 -139t-208 -58q-33 0 -131 8l9 105q75 -7 100 -7q162 0 162 91q0 44 -46.5 59t-123.5 16z" />
    <glyph glyph-name="Scommaaccent" unicode="&#x218;" horiz-adv-x="1180" 
d="M37 426h139q18 -168 117 -252t278 -84q175 0 282.5 83t107.5 235q0 129 -80.5 191t-300.5 114q-289 67 -391.5 166t-102.5 249q0 173 142.5 275t340.5 102q217 0 350.5 -104.5t155.5 -310.5h-139q-12 145 -110 218.5t-257 73.5q-142 0 -243 -66t-101 -188q0 -113 77 -176
t319 -116q279 -63 380 -167.5t101 -260.5q0 -195 -151 -317t-380 -122q-220 0 -368.5 120.5t-165.5 336.5zM596 -471l-68 45q55 73 55 143q-50 0 -80 28.5t-30 78.5q0 42 29.5 72t72.5 30q53 0 84 -38.5t31 -106.5q0 -141 -94 -252z" />
    <glyph glyph-name="Tcaron" unicode="&#x164;" horiz-adv-x="1266" 
d="M45 1475h1174v-121h-519v-1354h-135v1354h-520v121zM287 1868h151l197 -201l197 201h149l-272 -295h-146z" />
    <glyph glyph-name="uni021A" unicode="&#x21a;" horiz-adv-x="1266" 
d="M45 1475h1174v-121h-519v-1354h-135v1354h-520v121zM648 -471l-68 45q55 73 55 143q-50 0 -80 28.5t-30 78.5q0 42 29.5 72t72.5 30q53 0 84 -38.5t31 -106.5q0 -141 -94 -252z" />
    <glyph glyph-name="Tcommaaccent" unicode="&#x162;" horiz-adv-x="1266" 
d="M45 1475h1174v-121h-519v-1354h-135v1354h-520v121zM648 -471l-68 45q55 73 55 143q-50 0 -80 28.5t-30 78.5q0 42 29.5 72t72.5 30q53 0 84 -38.5t31 -106.5q0 -141 -94 -252z" />
    <glyph glyph-name="Uacute" unicode="&#xda;" horiz-adv-x="1323" 
d="M254 1475v-904q0 -242 102 -362.5t306 -120.5q203 0 305 120.5t102 362.5v904h135v-904q0 -194 -64 -329t-187 -204t-291 -69q-256 0 -399.5 154t-143.5 448v904h135zM709 1573h-146l242 295h162z" />
    <glyph glyph-name="Ugrave" unicode="&#xd9;" horiz-adv-x="1323" 
d="M254 1475v-904q0 -242 102 -362.5t306 -120.5q203 0 305 120.5t102 362.5v904h135v-904q0 -194 -64 -329t-187 -204t-291 -69q-256 0 -399.5 154t-143.5 448v904h135zM760 1573h-148l-258 295h162z" />
    <glyph glyph-name="Ucircumflex" unicode="&#xdb;" horiz-adv-x="1323" 
d="M254 1475v-904q0 -242 102 -362.5t306 -120.5q203 0 305 120.5t102 362.5v904h135v-904q0 -194 -64 -329t-187 -204t-291 -69q-256 0 -399.5 154t-143.5 448v904h135zM466 1573h-151l276 295h146l272 -295h-149l-197 200z" />
    <glyph glyph-name="Udieresis" unicode="&#xdc;" horiz-adv-x="1323" 
d="M254 1475v-904q0 -242 102 -362.5t306 -120.5q203 0 305 120.5t102 362.5v904h135v-904q0 -194 -64 -329t-187 -204t-291 -69q-256 0 -399.5 154t-143.5 448v904h135zM459 1632q-40 0 -69.5 29t-29.5 69t29.5 69t69.5 29q39 0 68.5 -29t29.5 -69t-29.5 -69t-68.5 -29z
M885 1632q-40 0 -69.5 29t-29.5 69t29.5 69t69.5 29q39 0 68.5 -29t29.5 -69t-29.5 -69t-68.5 -29z" />
    <glyph glyph-name="Umacron" unicode="&#x16a;" horiz-adv-x="1323" 
d="M254 1475v-904q0 -242 102 -362.5t306 -120.5q203 0 305 120.5t102 362.5v904h135v-904q0 -194 -64 -329t-187 -204t-291 -69q-256 0 -399.5 154t-143.5 448v904h135zM348 1632v131h637v-131h-637z" />
    <glyph glyph-name="Uring" unicode="&#x16e;" horiz-adv-x="1323" 
d="M254 1475v-904q0 -242 102 -362.5t306 -120.5q203 0 305 120.5t102 362.5v904h135v-904q0 -194 -64 -329t-187 -204t-291 -69q-256 0 -399.5 154t-143.5 448v904h135zM678 1552q-88 0 -150.5 62t-62.5 151t62 151t151 62t151 -62t62 -151t-62 -151t-151 -62zM678 1880
q-47 0 -80.5 -34t-33.5 -81t33.5 -81t80.5 -34q48 0 81.5 34t33.5 81t-33.5 81t-81.5 34z" />
    <glyph glyph-name="Uhungarumlaut" unicode="&#x170;" horiz-adv-x="1323" 
d="M254 1475v-904q0 -242 102 -362.5t306 -120.5q203 0 305 120.5t102 362.5v904h135v-904q0 -194 -64 -329t-187 -204t-291 -69q-256 0 -399.5 154t-143.5 448v904h135zM507 1573h-145l242 295h161zM923 1573h-145l241 295h162z" />
    <glyph glyph-name="Uogonek" unicode="&#x172;" horiz-adv-x="1323" 
d="M254 1475v-904q0 -242 102 -362.5t306 -120.5q203 0 305 120.5t102 362.5v904h135v-904q0 -257 -105 -400.5t-282 -182.5q-109 -63 -154 -111t-45 -110q0 -47 33.5 -69t110.5 -22l80 2v-100q-58 -8 -92 -8q-137 0 -205 49.5t-68 147.5q0 54 33.5 105t101.5 99
q-240 18 -366.5 171.5t-126.5 428.5v904h135z" />
    <glyph glyph-name="Yacute" unicode="&#xdd;" horiz-adv-x="1278" 
d="M647 670l457 805h137l-532 -912v-563h-136v549l-538 926h149zM713 1573h-146l242 295h162z" />
    <glyph glyph-name="Ydieresis" unicode="&#x178;" horiz-adv-x="1278" 
d="M647 670l457 805h137l-532 -912v-563h-136v549l-538 926h149zM427 1591q-40 0 -69.5 29t-29.5 69t29.5 69t69.5 29q39 0 68.5 -29t29.5 -69t-29.5 -69t-68.5 -29zM853 1591q-40 0 -69.5 29t-29.5 69t29.5 69t69.5 29q39 0 68.5 -29t29.5 -69t-29.5 -69t-68.5 -29z" />
    <glyph glyph-name="Zacute" unicode="&#x179;" horiz-adv-x="1229" 
d="M1151 1475v-119l-915 -1235h915v-121h-1075v119l915 1235h-860v121h1020zM725 1573h-146l242 295h162z" />
    <glyph glyph-name="Zcaron" unicode="&#x17d;" horiz-adv-x="1229" 
d="M1151 1475v-119l-915 -1235h915v-121h-1075v119l915 1235h-860v121h1020zM309 1868h151l197 -201l197 201h149l-272 -295h-146z" />
    <glyph glyph-name="Zdotaccent" unicode="&#x17b;" horiz-adv-x="1229" 
d="M1151 1475v-119l-915 -1235h915v-121h-1075v119l915 1235h-860v121h1020zM658 1632q-39 0 -69 29t-30 67t30 67t69 29q38 0 67 -29t29 -67t-29 -67t-67 -29z" />
    <glyph glyph-name="Eth" unicode="&#xd0;" horiz-adv-x="1399" 
d="M-6 680v127h143v668h475q334 0 511 -190.5t177 -547.5q0 -356 -176.5 -546.5t-511.5 -190.5h-475v680h-143zM614 1354h-342v-547h297v-127h-297v-559h342q271 0 407 154t136 462t-136 462.5t-407 154.5z" />
    <glyph glyph-name="Thorn" unicode="&#xde;" horiz-adv-x="1221" 
d="M137 0v1475h135v-297h367q247 0 380.5 -107t133.5 -303t-133.5 -303t-380.5 -107h-367v-358h-135zM272 479h367q186 0 279.5 72t93.5 217q0 144 -93.5 216.5t-279.5 72.5h-367v-578z" />
    <glyph glyph-name="aacute" unicode="&#xe1;" horiz-adv-x="1024" 
d="M242 762h-131q31 147 138.5 219t260.5 72q178 0 279.5 -102.5t101.5 -268.5v-514q0 -113 22 -168h-133q-22 59 -22 119q-126 -150 -324 -150q-160 0 -253 78t-93 223q0 177 168 271t506 123v18q0 120 -63.5 185t-186.5 65q-112 0 -179.5 -42.5t-90.5 -127.5zM762 563
q-281 -35 -411 -104.5t-130 -188.5q0 -86 60 -134t153 -48q150 0 239 84.5t89 237.5v153zM578 1182h-146l242 295h162z" />
    <glyph glyph-name="agrave" unicode="&#xe0;" horiz-adv-x="1024" 
d="M242 762h-131q31 147 138.5 219t260.5 72q178 0 279.5 -102.5t101.5 -268.5v-514q0 -113 22 -168h-133q-22 59 -22 119q-126 -150 -324 -150q-160 0 -253 78t-93 223q0 177 168 271t506 123v18q0 120 -63.5 185t-186.5 65q-112 0 -179.5 -42.5t-90.5 -127.5zM762 563
q-281 -35 -411 -104.5t-130 -188.5q0 -86 60 -134t153 -48q150 0 239 84.5t89 237.5v153zM629 1182h-148l-258 295h162z" />
    <glyph glyph-name="acircumflex" unicode="&#xe2;" horiz-adv-x="1024" 
d="M242 762h-131q31 147 138.5 219t260.5 72q178 0 279.5 -102.5t101.5 -268.5v-514q0 -113 22 -168h-133q-22 59 -22 119q-126 -150 -324 -150q-160 0 -253 78t-93 223q0 177 168 271t506 123v18q0 120 -63.5 185t-186.5 65q-112 0 -179.5 -42.5t-90.5 -127.5zM762 563
q-281 -35 -411 -104.5t-130 -188.5q0 -86 60 -134t153 -48q150 0 239 84.5t89 237.5v153zM315 1182h-151l276 295h146l272 -295h-149l-197 200z" />
    <glyph glyph-name="adieresis" unicode="&#xe4;" horiz-adv-x="1024" 
d="M242 762h-131q31 147 138.5 219t260.5 72q178 0 279.5 -102.5t101.5 -268.5v-514q0 -113 22 -168h-133q-22 59 -22 119q-126 -150 -324 -150q-160 0 -253 78t-93 223q0 177 168 271t506 123v18q0 120 -63.5 185t-186.5 65q-112 0 -179.5 -42.5t-90.5 -127.5zM762 563
q-281 -35 -411 -104.5t-130 -188.5q0 -86 60 -134t153 -48q150 0 239 84.5t89 237.5v153zM300 1272q-40 0 -69.5 29t-29.5 69t29.5 69t69.5 29q39 0 68.5 -29t29.5 -69t-29.5 -69t-68.5 -29zM726 1272q-40 0 -69.5 29t-29.5 69t29.5 69t69.5 29q39 0 68.5 -29t29.5 -69
t-29.5 -69t-68.5 -29z" />
    <glyph glyph-name="atilde" unicode="&#xe3;" horiz-adv-x="1024" 
d="M242 762h-131q31 147 138.5 219t260.5 72q178 0 279.5 -102.5t101.5 -268.5v-514q0 -113 22 -168h-133q-22 59 -22 119q-126 -150 -324 -150q-160 0 -253 78t-93 223q0 177 168 271t506 123v18q0 120 -63.5 185t-186.5 65q-112 0 -179.5 -42.5t-90.5 -127.5zM762 563
q-281 -35 -411 -104.5t-130 -188.5q0 -86 60 -134t153 -48q150 0 239 84.5t89 237.5v153zM873 1446q0 -100 -54 -159.5t-145 -59.5q-83 0 -176 53q-100 57 -146 57q-79 0 -79 -102h-123q0 99 54 158t144 59q48 0 89 -12t120 -55q66 -37 117 -37q76 0 76 98h123z" />
    <glyph glyph-name="amacron" unicode="&#x101;" horiz-adv-x="1024" 
d="M242 762h-131q31 147 138.5 219t260.5 72q178 0 279.5 -102.5t101.5 -268.5v-514q0 -113 22 -168h-133q-22 59 -22 119q-126 -150 -324 -150q-160 0 -253 78t-93 223q0 177 168 271t506 123v18q0 120 -63.5 185t-186.5 65q-112 0 -179.5 -42.5t-90.5 -127.5zM762 563
q-281 -35 -411 -104.5t-130 -188.5q0 -86 60 -134t153 -48q150 0 239 84.5t89 237.5v153zM199 1299v131h637v-131h-637z" />
    <glyph glyph-name="aring" unicode="&#xe5;" horiz-adv-x="1024" 
d="M242 762h-131q31 147 138.5 219t260.5 72q178 0 279.5 -102.5t101.5 -268.5v-514q0 -113 22 -168h-133q-22 59 -22 119q-126 -150 -324 -150q-160 0 -253 78t-93 223q0 177 168 271t506 123v18q0 120 -63.5 185t-186.5 65q-112 0 -179.5 -42.5t-90.5 -127.5zM762 563
q-281 -35 -411 -104.5t-130 -188.5q0 -86 60 -134t153 -48q150 0 239 84.5t89 237.5v153zM518 1182q-88 0 -150.5 62t-62.5 151t62 151t151 62t151 -62t62 -151t-62 -151t-151 -62zM518 1510q-47 0 -80.5 -34t-33.5 -81t33.5 -81t80.5 -34q48 0 81.5 34t33.5 81t-33.5 81
t-81.5 34z" />
    <glyph glyph-name="abreve" unicode="&#x103;" horiz-adv-x="1024" 
d="M242 762h-131q31 147 138.5 219t260.5 72q178 0 279.5 -102.5t101.5 -268.5v-514q0 -113 22 -168h-133q-22 59 -22 119q-126 -150 -324 -150q-160 0 -253 78t-93 223q0 177 168 271t506 123v18q0 120 -63.5 185t-186.5 65q-112 0 -179.5 -42.5t-90.5 -127.5zM762 563
q-281 -35 -411 -104.5t-130 -188.5q0 -86 60 -134t153 -48q150 0 239 84.5t89 237.5v153zM356 1485q25 -139 170 -139t170 139h121q-17 -120 -94 -185t-197 -65q-121 0 -197.5 65.5t-91.5 184.5h119z" />
    <glyph glyph-name="aogonek" unicode="&#x105;" horiz-adv-x="1024" 
d="M240 762h-131q32 147 141 219t260 72q180 0 280.5 -102t100.5 -269v-514q0 -113 22 -168q-111 -61 -167 -112.5t-56 -120.5q0 -50 36 -70.5t108 -20.5l79 2v-100q-57 -8 -92 -8q-136 0 -204 49.5t-68 147.5q0 71 55.5 135t167.5 121q-14 45 -14 96q-63 -75 -146 -112.5
t-186 -37.5q-154 0 -246 78.5t-92 222.5q0 177 168 271t506 123v18q0 120 -63.5 185t-186.5 65q-113 0 -181 -42.5t-91 -127.5zM762 563q-281 -35 -411 -104.5t-130 -188.5q0 -91 61.5 -137.5t143.5 -46.5q155 0 245.5 84.5t90.5 239.5v153z" />
    <glyph glyph-name="ae" unicode="&#xe6;" horiz-adv-x="1792" 
d="M848 840q63 106 164 159.5t239 53.5q201 0 334 -139t133 -390q0 -48 -6 -75h-817q1 -174 112 -266.5t248 -92.5q110 0 188.5 48.5t125.5 146.5h143q-62 -154 -184 -235t-268 -81q-131 0 -242 62t-176 180q-56 -117 -164 -179.5t-242 -62.5q-150 0 -249 77t-99 208
q0 122 70.5 192t181.5 94.5t362 24.5h68q0 106 -9 169t-51.5 114.5t-96 68.5t-103.5 17q-108 0 -173.5 -43t-88.5 -129h-131q31 146 135 218.5t256 72.5q112 0 203.5 -57t136.5 -156zM893 565h696q-6 176 -103.5 272.5t-234.5 96.5q-151 0 -247.5 -91.5t-110.5 -277.5z
M770 422v31h-154q-240 0 -317.5 -47t-77.5 -146q0 -79 61.5 -125.5t155.5 -46.5q157 0 244.5 86.5t87.5 247.5z" />
    <glyph glyph-name="cacute" unicode="&#x107;" horiz-adv-x="1055" 
d="M866 731q-42 100 -116.5 150.5t-182.5 50.5q-145 0 -252.5 -105.5t-107.5 -316.5q0 -139 48 -234t133.5 -140.5t178.5 -45.5q108 0 182.5 50t116.5 151h133q-39 -157 -151.5 -239.5t-280.5 -82.5q-205 0 -349 142.5t-144 398.5t146.5 399.5t346.5 143.5
q168 0 280.5 -82.5t151.5 -239.5h-133zM612 1182h-146l242 295h162z" />
    <glyph glyph-name="ccaron" unicode="&#x10d;" horiz-adv-x="1055" 
d="M866 731q-42 100 -116.5 150.5t-182.5 50.5q-145 0 -252.5 -105.5t-107.5 -316.5q0 -139 48 -234t133.5 -140.5t178.5 -45.5q108 0 182.5 50t116.5 151h133q-39 -157 -151.5 -239.5t-280.5 -82.5q-205 0 -349 142.5t-144 398.5t146.5 399.5t346.5 143.5
q168 0 280.5 -82.5t151.5 -239.5h-133zM221 1477h151l197 -201l197 201h149l-272 -295h-146z" />
    <glyph glyph-name="ccedilla" unicode="&#xe7;" horiz-adv-x="1055" 
d="M444 -158l39 135q-189 32 -299 172t-110 361q0 256 146.5 399.5t346.5 143.5q168 0 280.5 -82.5t151.5 -239.5h-133q-42 100 -116.5 150.5t-182.5 50.5q-145 0 -252.5 -105.5t-107.5 -316.5q0 -139 48 -234t133.5 -140.5t178.5 -45.5q108 0 182.5 50t116.5 151h133
q-39 -151 -139 -230.5t-260 -89.5l-16 -59q164 -23 164 -145q0 -88 -70 -142.5t-203 -54.5q-33 0 -131 8l8 105q75 -7 101 -7q161 0 161 91q0 44 -46.5 59t-123.5 16z" />
    <glyph glyph-name="dcaron" unicode="&#x10f;" horiz-adv-x="1262" 
d="M913 0v147q-121 -178 -362 -178q-213 0 -345 147t-132 394q0 252 132.5 397.5t344.5 145.5q235 0 360 -168v590h129v-1475h-127zM911 508v31q0 194 -91 294.5t-267 100.5q-160 0 -253 -110.5t-93 -311.5q0 -203 93 -313.5t253 -110.5q179 0 268.5 105t89.5 315z
M1309 1284q-46 0 -78.5 30t-32.5 77q0 41 30.5 71.5t71.5 30.5q53 0 84 -38t31 -107q0 -104 -36.5 -188.5t-108.5 -149.5l-49 39q44 50 66 109t22 126zM1180 0z" />
    <glyph glyph-name="dcroat" unicode="&#x111;" horiz-adv-x="1180" 
d="M637 1206v117h274v152h129v-152h148v-117h-148v-1206h-127v147q-121 -178 -362 -178q-213 0 -345 147t-132 394q0 252 132.5 397.5t344.5 145.5q235 0 360 -168v321h-274zM911 508v31q0 194 -91 294.5t-267 100.5q-160 0 -253 -110.5t-93 -311.5q0 -203 93 -313.5
t253 -110.5q179 0 268.5 105t89.5 315z" />
    <glyph glyph-name="eacute" unicode="&#xe9;" horiz-adv-x="1110" 
d="M887 285h139q-60 -154 -181 -235t-270 -81q-211 0 -356 144t-145 399q0 164 64.5 286.5t181 188.5t251.5 66q207 0 336 -138.5t129 -392.5q0 -46 -4 -73h-821q13 -182 118 -270.5t242 -88.5q110 0 189 48.5t127 146.5zM209 565h696q-7 177 -100.5 272t-233.5 95
q-142 0 -244.5 -90.5t-117.5 -276.5zM606 1182h-146l242 295h162z" />
    <glyph glyph-name="egrave" unicode="&#xe8;" horiz-adv-x="1110" 
d="M887 285h139q-60 -154 -181 -235t-270 -81q-211 0 -356 144t-145 399q0 164 64.5 286.5t181 188.5t251.5 66q207 0 336 -138.5t129 -392.5q0 -46 -4 -73h-821q13 -182 118 -270.5t242 -88.5q110 0 189 48.5t127 146.5zM209 565h696q-7 177 -100.5 272t-233.5 95
q-142 0 -244.5 -90.5t-117.5 -276.5zM692 1182h-148l-258 295h162z" />
    <glyph glyph-name="ecircumflex" unicode="&#xea;" horiz-adv-x="1110" 
d="M887 285h139q-60 -154 -181 -235t-270 -81q-211 0 -356 144t-145 399q0 164 64.5 286.5t181 188.5t251.5 66q207 0 336 -138.5t129 -392.5q0 -46 -4 -73h-821q13 -182 118 -270.5t242 -88.5q110 0 189 48.5t127 146.5zM209 565h696q-7 177 -100.5 272t-233.5 95
q-142 0 -244.5 -90.5t-117.5 -276.5zM376 1182h-151l276 295h146l272 -295h-149l-197 200z" />
    <glyph glyph-name="edieresis" unicode="&#xeb;" horiz-adv-x="1110" 
d="M887 285h139q-60 -154 -181 -235t-270 -81q-211 0 -356 144t-145 399q0 164 64.5 286.5t181 188.5t251.5 66q207 0 336 -138.5t129 -392.5q0 -46 -4 -73h-821q13 -182 118 -270.5t242 -88.5q110 0 189 48.5t127 146.5zM209 565h696q-7 177 -100.5 272t-233.5 95
q-142 0 -244.5 -90.5t-117.5 -276.5zM359 1272q-40 0 -69.5 29t-29.5 69t29.5 69t69.5 29q39 0 68.5 -29t29.5 -69t-29.5 -69t-68.5 -29zM785 1272q-40 0 -69.5 29t-29.5 69t29.5 69t69.5 29q39 0 68.5 -29t29.5 -69t-29.5 -69t-68.5 -29z" />
    <glyph glyph-name="emacron" unicode="&#x113;" horiz-adv-x="1110" 
d="M887 285h139q-60 -154 -181 -235t-270 -81q-211 0 -356 144t-145 399q0 164 64.5 286.5t181 188.5t251.5 66q207 0 336 -138.5t129 -392.5q0 -46 -4 -73h-821q13 -182 118 -270.5t242 -88.5q110 0 189 48.5t127 146.5zM209 565h696q-7 177 -100.5 272t-233.5 95
q-142 0 -244.5 -90.5t-117.5 -276.5zM254 1272v131h637v-131h-637z" />
    <glyph glyph-name="ecaron" unicode="&#x11b;" horiz-adv-x="1110" 
d="M887 285h139q-60 -154 -181 -235t-270 -81q-211 0 -356 144t-145 399q0 164 64.5 286.5t181 188.5t251.5 66q207 0 336 -138.5t129 -392.5q0 -46 -4 -73h-821q13 -182 118 -270.5t242 -88.5q110 0 189 48.5t127 146.5zM209 565h696q-7 177 -100.5 272t-233.5 95
q-142 0 -244.5 -90.5t-117.5 -276.5zM223 1477h151l197 -201l197 201h149l-272 -295h-146z" />
    <glyph glyph-name="edotaccent" unicode="&#x117;" horiz-adv-x="1110" 
d="M887 285h139q-60 -154 -181 -235t-270 -81q-211 0 -356 144t-145 399q0 164 64.5 286.5t181 188.5t251.5 66q207 0 336 -138.5t129 -392.5q0 -46 -4 -73h-821q13 -182 118 -270.5t242 -88.5q110 0 189 48.5t127 146.5zM209 565h696q-7 177 -100.5 272t-233.5 95
q-142 0 -244.5 -90.5t-117.5 -276.5zM572 1278q-39 0 -69 29t-30 67t30 67t69 29q38 0 67 -29t29 -67t-29 -67t-67 -29z" />
    <glyph glyph-name="eogonek" unicode="&#x119;" horiz-adv-x="1112" 
d="M887 285h139q-35 -95 -96 -162q-103 -121 -144 -192t-41 -144q0 -63 38 -87t112 -24l80 2v-100q-57 -8 -117 -8q-124 0 -186 49.5t-62 147.5q0 53 20 107.5t60 109.5q-54 -15 -115 -15q-211 0 -356 144t-145 399q0 164 64.5 286.5t181 188.5t251.5 66q207 0 336 -138.5
t129 -392.5q0 -46 -4 -73h-821q13 -182 118 -270.5t242 -88.5q110 0 189 48.5t127 146.5zM209 565h696q-7 177 -100.5 272t-233.5 95q-142 0 -244.5 -90.5t-117.5 -276.5z" />
    <glyph glyph-name="gbreve" unicode="&#x11f;" horiz-adv-x="1094" 
d="M221 127q-98 41 -98 143t106 154q-120 102 -120 266q0 166 119.5 264.5t308.5 98.5q151 0 262 -64q113 82 264 82v-117q-108 -6 -174 -36q74 -94 74 -228q0 -169 -122 -265.5t-304 -96.5q-121 0 -209 39q-72 -33 -72 -93q0 -56 58.5 -70t222.5 -14q256 0 384 -79
t128 -236q0 -155 -143 -243.5t-369 -88.5q-229 0 -370.5 88.5t-141.5 243.5q0 85 56.5 152.5t139.5 99.5zM537 936q-137 0 -218 -64.5t-81 -181.5q0 -121 84.5 -184.5t214.5 -63.5q133 0 215 66t82 182q0 122 -84 184t-213 62zM158 -127q0 -103 105.5 -156t271.5 -53
q165 0 272.5 54t107.5 157q0 98 -87.5 149.5t-290.5 51.5q-202 0 -290.5 -50.5t-88.5 -152.5zM370 1452q25 -139 170 -139t170 139h121q-17 -120 -94 -185t-197 -65q-121 0 -197.5 65.5t-91.5 184.5h119z" />
    <glyph glyph-name="gcommaaccent" unicode="&#x123;" horiz-adv-x="1094" 
d="M221 127q-98 41 -98 143t106 154q-120 102 -120 266q0 166 119.5 264.5t308.5 98.5q151 0 262 -64q113 82 264 82v-117q-108 -6 -174 -36q74 -94 74 -228q0 -169 -122 -265.5t-304 -96.5q-121 0 -209 39q-72 -33 -72 -93q0 -56 58.5 -70t222.5 -14q256 0 384 -79
t128 -236q0 -155 -143 -243.5t-369 -88.5q-229 0 -370.5 88.5t-141.5 243.5q0 85 56.5 152.5t139.5 99.5zM537 936q-137 0 -218 -64.5t-81 -181.5q0 -121 84.5 -184.5t214.5 -63.5q133 0 215 66t82 182q0 122 -84 184t-213 62zM158 -127q0 -103 105.5 -156t271.5 -53
q165 0 272.5 54t107.5 157q0 98 -87.5 149.5t-290.5 51.5q-202 0 -290.5 -50.5t-88.5 -152.5zM524 1585l68 -45q-55 -73 -55 -144q50 0 80 -28t30 -78q0 -42 -29.5 -72t-72.5 -30q-53 0 -84 38.5t-31 106.5q0 141 94 252z" />
    <glyph glyph-name="iacute" unicode="&#xed;" horiz-adv-x="422" 
d="M147 0v1022h129v-1022h-129zM221 1182h-146l242 295h162z" />
    <glyph glyph-name="igrave" unicode="&#xec;" horiz-adv-x="422" 
d="M147 0v1022h129v-1022h-129zM350 1182h-148l-258 295h162z" />
    <glyph glyph-name="icircumflex" unicode="&#xee;" horiz-adv-x="422" 
d="M147 0v1022h129v-1022h-129zM20 1182h-151l276 295h146l272 -295h-149l-197 200z" />
    <glyph glyph-name="idieresis" unicode="&#xef;" horiz-adv-x="422" 
d="M147 0v1022h129v-1022h-129zM1 1272q-40 0 -69.5 29t-29.5 69t29.5 69t69.5 29q39 0 68.5 -29t29.5 -69t-29.5 -69t-68.5 -29zM427 1272q-40 0 -69.5 29t-29.5 69t29.5 69t69.5 29q39 0 68.5 -29t29.5 -69t-29.5 -69t-68.5 -29z" />
    <glyph glyph-name="imacron" unicode="&#x12b;" horiz-adv-x="422" 
d="M147 0v1022h129v-1022h-129zM-104 1266v131h637v-131h-637z" />
    <glyph glyph-name="iogonek" unicode="&#x12f;" horiz-adv-x="420" 
d="M209 1294q-39 0 -68.5 29.5t-29.5 67.5t29.5 67t68.5 29q38 0 67 -29t29 -67q0 -39 -29 -68t-67 -29zM147 0v1022h129v-1022q-120 -117 -120 -211q0 -60 31.5 -86.5t117.5 -26.5l74 2v-100q-39 -8 -92 -8q-137 0 -205 52t-68 155q0 62 35.5 122.5t97.5 100.5z" />
    <glyph glyph-name="dotlessi" unicode="&#x131;" horiz-adv-x="422" 
d="M147 0v1022h129v-1022h-129z" />
    <glyph glyph-name="kcommaaccent" unicode="&#x137;" horiz-adv-x="999" 
d="M498 610l506 -610h-170l-428 518l-140 -139v-379h-129v1475h129v-926l475 473h174zM531 -471l-68 45q55 73 55 143q-50 0 -80 28.5t-30 78.5q0 42 29.5 72t72.5 30q53 0 84 -38.5t31 -106.5q0 -141 -94 -252z" />
    <glyph glyph-name="lacute" unicode="&#x13a;" horiz-adv-x="406" 
d="M266 0h-129v1475h129v-1475zM239 1570h-146l242 295h162z" />
    <glyph glyph-name="lcaron" unicode="&#x13e;" horiz-adv-x="487" 
d="M510 1284q-46 0 -78.5 30t-32.5 77q0 41 30.5 71.5t72.5 30.5q52 0 83 -38t31 -107q0 -104 -36.5 -188.5t-108.5 -149.5l-49 39q44 50 66 109t22 126zM266 0h-129v1475h129v-1475zM406 0z" />
    <glyph glyph-name="lcommaaccent" unicode="&#x13c;" horiz-adv-x="406" 
d="M266 0h-129v1475h129v-1475zM217 -471l-68 45q55 73 55 143q-50 0 -80 28.5t-30 78.5q0 42 29.5 72t72.5 30q53 0 84 -38.5t31 -106.5q0 -141 -94 -252z" />
    <glyph glyph-name="lslash" unicode="&#x142;" horiz-adv-x="406" 
d="M266 0h-129v592l-170 -119v158l170 119v725h129v-633l191 135v-158l-191 -135v-684z" />
    <glyph glyph-name="nacute" unicode="&#x144;" 
d="M266 1022v-127q118 158 342 158q179 0 272 -104t93 -304v-645h-129v637q0 152 -57.5 223.5t-188.5 71.5q-151 0 -241.5 -84t-90.5 -238v-610h-129v1022h129zM616 1182h-146l242 295h162z" />
    <glyph glyph-name="ntilde" unicode="&#xf1;" 
d="M266 1022v-127q118 158 342 158q179 0 272 -104t93 -304v-645h-129v637q0 152 -57.5 223.5t-188.5 71.5q-151 0 -241.5 -84t-90.5 -238v-610h-129v1022h129zM909 1446q0 -100 -54 -159.5t-145 -59.5q-83 0 -176 53q-100 57 -146 57q-79 0 -79 -102h-123q0 99 54 158
t144 59q48 0 89 -12t120 -55q66 -37 117 -37q76 0 76 98h123z" />
    <glyph glyph-name="ncaron" unicode="&#x148;" 
d="M266 1022v-127q118 158 342 158q179 0 272 -104t93 -304v-645h-129v637q0 152 -57.5 223.5t-188.5 71.5q-151 0 -241.5 -84t-90.5 -238v-610h-129v1022h129zM223 1477h151l197 -201l197 201h149l-272 -295h-146z" />
    <glyph glyph-name="ncommaaccent" unicode="&#x146;" 
d="M266 1022v-127q118 158 342 158q179 0 272 -104t93 -304v-645h-129v637q0 152 -57.5 223.5t-188.5 71.5q-151 0 -241.5 -84t-90.5 -238v-610h-129v1022h129zM578 -471l-68 45q55 73 55 143q-50 0 -80 28.5t-30 78.5q0 42 29.5 72t72.5 30q53 0 84 -38.5t31 -106.5
q0 -141 -94 -252z" />
    <glyph glyph-name="oacute" unicode="&#xf3;" horiz-adv-x="1147" 
d="M573 1053q210 0 355 -143.5t145 -399.5q0 -255 -145 -398t-355 -143q-209 0 -354 143t-145 398q0 168 65 290.5t182.5 187.5t251.5 65zM573 90q158 0 262.5 105.5t104.5 314.5q0 139 -47.5 234t-134 141.5t-185.5 46.5q-157 0 -261.5 -106t-104.5 -316
q0 -209 104.5 -314.5t261.5 -105.5zM612 1182h-146l242 295h162z" />
    <glyph glyph-name="ograve" unicode="&#xf2;" horiz-adv-x="1147" 
d="M573 1053q210 0 355 -143.5t145 -399.5q0 -255 -145 -398t-355 -143q-209 0 -354 143t-145 398q0 168 65 290.5t182.5 187.5t251.5 65zM573 90q158 0 262.5 105.5t104.5 314.5q0 139 -47.5 234t-134 141.5t-185.5 46.5q-157 0 -261.5 -106t-104.5 -316
q0 -209 104.5 -314.5t261.5 -105.5zM715 1182h-148l-258 295h162z" />
    <glyph glyph-name="ocircumflex" unicode="&#xf4;" horiz-adv-x="1147" 
d="M573 1053q210 0 355 -143.5t145 -399.5q0 -255 -145 -398t-355 -143q-209 0 -354 143t-145 398q0 168 65 290.5t182.5 187.5t251.5 65zM573 90q158 0 262.5 105.5t104.5 314.5q0 139 -47.5 234t-134 141.5t-185.5 46.5q-157 0 -261.5 -106t-104.5 -316
q0 -209 104.5 -314.5t261.5 -105.5zM376 1182h-151l276 295h146l272 -295h-149l-197 200z" />
    <glyph glyph-name="odieresis" unicode="&#xf6;" horiz-adv-x="1147" 
d="M573 1053q210 0 355 -143.5t145 -399.5q0 -255 -145 -398t-355 -143q-209 0 -354 143t-145 398q0 168 65 290.5t182.5 187.5t251.5 65zM573 90q158 0 262.5 105.5t104.5 314.5q0 139 -47.5 234t-134 141.5t-185.5 46.5q-157 0 -261.5 -106t-104.5 -316
q0 -209 104.5 -314.5t261.5 -105.5zM361 1272q-40 0 -69.5 29t-29.5 69t29.5 69t69.5 29q39 0 68.5 -29t29.5 -69t-29.5 -69t-68.5 -29zM787 1272q-40 0 -69.5 29t-29.5 69t29.5 69t69.5 29q39 0 68.5 -29t29.5 -69t-29.5 -69t-68.5 -29z" />
    <glyph glyph-name="otilde" unicode="&#xf5;" horiz-adv-x="1147" 
d="M573 1053q210 0 355 -143.5t145 -399.5q0 -255 -145 -398t-355 -143q-209 0 -354 143t-145 398q0 168 65 290.5t182.5 187.5t251.5 65zM573 90q158 0 262.5 105.5t104.5 314.5q0 139 -47.5 234t-134 141.5t-185.5 46.5q-157 0 -261.5 -106t-104.5 -316
q0 -209 104.5 -314.5t261.5 -105.5zM934 1446q0 -100 -54 -159.5t-145 -59.5q-83 0 -176 53q-100 57 -146 57q-79 0 -79 -102h-123q0 99 54 158t144 59q48 0 89 -12t120 -55q66 -37 117 -37q76 0 76 98h123z" />
    <glyph glyph-name="omacron" unicode="&#x14d;" horiz-adv-x="1147" 
d="M573 1053q210 0 355 -143.5t145 -399.5q0 -255 -145 -398t-355 -143q-209 0 -354 143t-145 398q0 168 65 290.5t182.5 187.5t251.5 65zM573 90q158 0 262.5 105.5t104.5 314.5q0 139 -47.5 234t-134 141.5t-185.5 46.5q-157 0 -261.5 -106t-104.5 -316
q0 -209 104.5 -314.5t261.5 -105.5zM254 1266v131h637v-131h-637z" />
    <glyph glyph-name="ohungarumlaut" unicode="&#x151;" horiz-adv-x="1147" 
d="M573 1053q210 0 355 -143.5t145 -399.5q0 -255 -145 -398t-355 -143q-209 0 -354 143t-145 398q0 168 65 290.5t182.5 187.5t251.5 65zM573 90q158 0 262.5 105.5t104.5 314.5q0 139 -47.5 234t-134 141.5t-185.5 46.5q-157 0 -261.5 -106t-104.5 -316
q0 -209 104.5 -314.5t261.5 -105.5zM408 1182h-145l242 295h161zM824 1182h-145l241 295h162z" />
    <glyph glyph-name="oslash" unicode="&#xf8;" horiz-adv-x="1147" 
d="M868 958l76 95h137l-133 -166q125 -143 125 -377q0 -255 -145 -398t-355 -143q-158 0 -290 88l-72 -88h-137l127 160q-127 145 -127 381q0 168 65 290.5t182.5 187.5t251.5 65q164 0 295 -95zM793 864q-94 68 -220 68q-157 0 -261.5 -106t-104.5 -316q0 -177 76 -281z
M358 154q91 -64 215 -64q158 0 262.5 105.5t104.5 314.5q0 168 -74 276z" />
    <glyph glyph-name="oe" unicode="&#x153;" horiz-adv-x="1976" 
d="M1751 285h139q-59 -154 -180.5 -235t-269.5 -81q-137 0 -254.5 66t-181.5 190q-64 -125 -180.5 -190.5t-252.5 -65.5q-209 0 -354 143t-145 398q0 256 145 399.5t354 143.5q135 0 251.5 -66t181.5 -190q64 123 180.5 189.5t251.5 66.5q206 0 335.5 -138.5t129.5 -392.5
q0 -46 -5 -73h-821q13 -182 118 -270.5t243 -88.5q110 0 188.5 48.5t126.5 146.5zM571 90q158 0 262.5 105.5t104.5 314.5q0 210 -104.5 316t-262.5 106q-157 0 -261.5 -106t-104.5 -316q0 -168 62.5 -261.5t145.5 -126t158 -32.5zM1073 565h696q-7 177 -100 272t-233 95
q-143 0 -245.5 -90.5t-117.5 -276.5z" />
    <glyph glyph-name="racute" unicode="&#x155;" horiz-adv-x="715" 
d="M137 1022h129v-158q39 90 123 139.5t195 49.5q51 0 94 -6v-121q-50 6 -94 6q-151 0 -234.5 -85.5t-83.5 -246.5v-600h-129v1022zM434 1182h-146l242 295h162z" />
    <glyph glyph-name="rcaron" unicode="&#x159;" horiz-adv-x="715" 
d="M137 1022h129v-158q39 90 123 139.5t195 49.5q51 0 94 -6v-121q-50 6 -94 6q-151 0 -234.5 -85.5t-83.5 -246.5v-600h-129v1022zM41 1477h151l197 -201l197 201h149l-272 -295h-146z" />
    <glyph glyph-name="rcommaaccent" unicode="&#x157;" horiz-adv-x="715" 
d="M137 1022h129v-158q39 90 123 139.5t195 49.5q51 0 94 -6v-121q-50 6 -94 6q-151 0 -234.5 -85.5t-83.5 -246.5v-600h-129v1022zM308 -471l-68 45q55 73 55 143q-50 0 -80 28.5t-30 78.5q0 42 29.5 72t72.5 30q53 0 84 -38.5t31 -106.5q0 -141 -94 -252z" />
    <glyph glyph-name="sacute" unicode="&#x15b;" horiz-adv-x="915" 
d="M838 760h-129q-10 86 -70 129t-170 43q-117 0 -182.5 -42.5t-65.5 -117.5q0 -71 48.5 -101t164.5 -60q154 -41 233 -71t134 -91t55 -164q0 -147 -111 -231.5t-278 -84.5q-168 0 -280 84.5t-130 239.5h129q22 -102 92.5 -152.5t188.5 -50.5t187 49t69 137t-58.5 124.5
t-212.5 77.5q-131 36 -199.5 64.5t-116.5 84t-48 145.5q0 131 108 206t273 75q154 0 255 -73.5t114 -219.5zM508 1182h-146l242 295h162z" />
    <glyph glyph-name="scaron" unicode="&#x161;" horiz-adv-x="915" 
d="M838 760h-129q-10 86 -70 129t-170 43q-117 0 -182.5 -42.5t-65.5 -117.5q0 -71 48.5 -101t164.5 -60q154 -41 233 -71t134 -91t55 -164q0 -147 -111 -231.5t-278 -84.5q-168 0 -280 84.5t-130 239.5h129q22 -102 92.5 -152.5t188.5 -50.5t187 49t69 137t-58.5 124.5
t-212.5 77.5q-131 36 -199.5 64.5t-116.5 84t-48 145.5q0 131 108 206t273 75q154 0 255 -73.5t114 -219.5zM111 1477h151l197 -201l197 201h149l-272 -295h-146z" />
    <glyph glyph-name="scedilla" unicode="&#x15f;" horiz-adv-x="918" 
d="M371 -158l39 131q-159 19 -247.5 98.5t-105.5 221.5h129q22 -102 92.5 -152.5t188.5 -50.5t187 49t69 137t-58.5 124.5t-212.5 77.5q-131 36 -199.5 64.5t-116.5 84t-48 145.5q0 131 108 206t273 75q154 0 255 -73.5t114 -219.5h-129q-10 86 -70 129t-170 43
q-117 0 -182.5 -42.5t-65.5 -117.5q0 -71 48.5 -101t164.5 -60q154 -41 233 -71t134 -91t55 -164q0 -129 -87.5 -211t-240.5 -101l-18 -61q82 -11 123 -47.5t41 -97.5q0 -88 -70 -142.5t-203 -54.5q-33 0 -131 8l9 105q74 -7 100 -7q162 0 162 91q0 44 -46.5 59t-123.5 16z
" />
    <glyph glyph-name="scommaaccent" unicode="&#x219;" horiz-adv-x="915" 
d="M838 760h-129q-10 86 -70 129t-170 43q-117 0 -182.5 -42.5t-65.5 -117.5q0 -71 48.5 -101t164.5 -60q154 -41 233 -71t134 -91t55 -164q0 -147 -111 -231.5t-278 -84.5q-168 0 -280 84.5t-130 239.5h129q22 -102 92.5 -152.5t188.5 -50.5t187 49t69 137t-58.5 124.5
t-212.5 77.5q-131 36 -199.5 64.5t-116.5 84t-48 145.5q0 131 108 206t273 75q154 0 255 -73.5t114 -219.5zM498 -471l-68 45q55 73 55 143q-50 0 -80 28.5t-30 78.5q0 42 29.5 72t72.5 30q53 0 84 -38.5t31 -106.5q0 -141 -94 -252z" />
    <glyph glyph-name="germandbls" unicode="&#xdf;" horiz-adv-x="1257" 
d="M137 0v936q0 280 132.5 424.5t357.5 144.5q192 0 313 -99.5t121 -275.5q0 -122 -57.5 -209t-172.5 -139q74 -19 131.5 -53t98.5 -82q82 -97 82 -237q0 -213 -133 -327t-359 -114l-119 6v117l119 -2q179 0 269 79.5t90 238.5q0 152 -112 228.5t-335 76.5h-31v116h33
q179 0 269 75t90 226q0 133 -85.5 193.5t-213.5 60.5q-180 0 -269.5 -112t-89.5 -336v-936h-129z" />
    <glyph glyph-name="tcaron" unicode="&#x165;" horiz-adv-x="696" 
d="M55 1022h189v328h129v-328h245v-117h-245v-706q0 -60 23.5 -84.5t107.5 -24.5q37 0 114 6v-104q-64 -23 -141 -23q-123 0 -178 56t-55 198v682h-189v117zM627 1100l-62 33q43 73 43 151q-43 0 -71.5 26.5t-28.5 67.5t27 69t67 28q46 0 75.5 -36.5t29.5 -97.5
q0 -130 -80 -241z" />
    <glyph glyph-name="uni021B" unicode="&#x21b;" horiz-adv-x="696" 
d="M55 1022h189v328h129v-328h245v-117h-245v-706q0 -60 23.5 -84.5t107.5 -24.5q37 0 114 6v-104q-64 -23 -141 -23q-123 0 -178 56t-55 198v682h-189v117zM418 -471l-68 45q55 73 55 143q-50 0 -80 28.5t-30 78.5q0 42 29.5 72t72.5 30q53 0 84 -38.5t31 -106.5
q0 -141 -94 -252z" />
    <glyph glyph-name="tcommaaccent" unicode="&#x163;" horiz-adv-x="696" 
d="M55 1022h189v328h129v-328h245v-117h-245v-706q0 -60 23.5 -84.5t107.5 -24.5q37 0 114 6v-104q-64 -23 -141 -23q-123 0 -178 56t-55 198v682h-189v117zM418 -471l-68 45q55 73 55 143q-50 0 -80 28.5t-30 78.5q0 42 29.5 72t72.5 30q53 0 84 -38.5t31 -106.5
q0 -141 -94 -252z" />
    <glyph glyph-name="uacute" unicode="&#xfa;" 
d="M834 0v127q-59 -79 -144.5 -118.5t-197.5 -39.5q-179 0 -272 104t-93 304v645h129v-637q0 -152 57.5 -223.5t188.5 -71.5q150 0 241 84t91 238v610h129v-1022h-129zM602 1182h-146l242 295h162z" />
    <glyph glyph-name="ugrave" unicode="&#xf9;" 
d="M834 0v127q-59 -79 -144.5 -118.5t-197.5 -39.5q-179 0 -272 104t-93 304v645h129v-637q0 -152 57.5 -223.5t188.5 -71.5q150 0 241 84t91 238v610h129v-1022h-129zM649 1182h-148l-258 295h162z" />
    <glyph glyph-name="ucircumflex" unicode="&#xfb;" 
d="M834 0v127q-59 -79 -144.5 -118.5t-197.5 -39.5q-179 0 -272 104t-93 304v645h129v-637q0 -152 57.5 -223.5t188.5 -71.5q150 0 241 84t91 238v610h129v-1022h-129zM358 1182h-151l276 295h146l272 -295h-149l-197 200z" />
    <glyph glyph-name="udieresis" unicode="&#xfc;" 
d="M834 0v127q-59 -79 -144.5 -118.5t-197.5 -39.5q-179 0 -272 104t-93 304v645h129v-637q0 -152 57.5 -223.5t188.5 -71.5q150 0 241 84t91 238v610h129v-1022h-129zM341 1272q-40 0 -69.5 29t-29.5 69t29.5 69t69.5 29q39 0 68.5 -29t29.5 -69t-29.5 -69t-68.5 -29z
M767 1272q-40 0 -69.5 29t-29.5 69t29.5 69t69.5 29q39 0 68.5 -29t29.5 -69t-29.5 -69t-68.5 -29z" />
    <glyph glyph-name="umacron" unicode="&#x16b;" 
d="M834 0v127q-59 -79 -144.5 -118.5t-197.5 -39.5q-179 0 -272 104t-93 304v645h129v-637q0 -152 57.5 -223.5t188.5 -71.5q150 0 241 84t91 238v610h129v-1022h-129zM255 1266v131h637v-131h-637z" />
    <glyph glyph-name="uring" unicode="&#x16f;" 
d="M834 0v127q-59 -79 -144.5 -118.5t-197.5 -39.5q-179 0 -272 104t-93 304v645h129v-637q0 -152 57.5 -223.5t188.5 -71.5q150 0 241 84t91 238v610h129v-1022h-129zM555 1155q-88 0 -150.5 62t-62.5 151t62 151t151 62t151 -62t62 -151t-62 -151t-151 -62zM555 1483
q-47 0 -80.5 -34t-33.5 -81t33.5 -81t80.5 -34q48 0 81.5 34t33.5 81t-33.5 81t-81.5 34z" />
    <glyph glyph-name="uhungarumlaut" unicode="&#x171;" 
d="M834 0v127q-59 -79 -144.5 -118.5t-197.5 -39.5q-179 0 -272 104t-93 304v645h129v-637q0 -152 57.5 -223.5t188.5 -71.5q150 0 241 84t91 238v610h129v-1022h-129zM380 1182h-145l242 295h161zM796 1182h-145l241 295h162z" />
    <glyph glyph-name="uogonek" unicode="&#x173;" 
d="M962 1022v-1022q-111 -61 -167 -112.5t-56 -120.5q0 -47 33.5 -69t110.5 -22l79 2v-100q-44 -8 -92 -8q-136 0 -204 46.5t-68 139.5q0 144 235 254v117q-59 -79 -144.5 -118.5t-197.5 -39.5q-178 0 -271 104t-93 304v645h129v-637q0 -152 57.5 -223.5t188.5 -71.5
q150 0 240.5 84t90.5 238v610h129z" />
    <glyph glyph-name="yacute" unicode="&#xfd;" horiz-adv-x="1014" 
d="M543 182l319 840h131l-475 -1229q-60 -155 -127 -202.5t-164 -47.5q-89 0 -153 33v119q79 -33 153 -33t108.5 34.5t59.5 100.5l78 203l-438 1022h145l355 -840h8zM567 1182h-146l242 295h162z" />
    <glyph glyph-name="ydieresis" unicode="&#xff;" horiz-adv-x="1014" 
d="M543 182l319 840h131l-475 -1229q-60 -155 -127 -202.5t-164 -47.5q-89 0 -153 33v119q79 -33 153 -33t108.5 34.5t59.5 100.5l78 203l-438 1022h145l355 -840h8zM326 1272q-40 0 -69.5 29t-29.5 69t29.5 69t69.5 29q39 0 68.5 -29t29.5 -69t-29.5 -69t-68.5 -29z
M752 1272q-40 0 -69.5 29t-29.5 69t29.5 69t69.5 29q39 0 68.5 -29t29.5 -69t-29.5 -69t-68.5 -29z" />
    <glyph glyph-name="zacute" unicode="&#x17a;" horiz-adv-x="901" 
d="M834 0h-768v117l591 788h-585v117h739v-117l-592 -788h615v-117zM520 1182h-146l242 295h162z" />
    <glyph glyph-name="zcaron" unicode="&#x17e;" horiz-adv-x="901" 
d="M834 0h-768v117l591 788h-585v117h739v-117l-592 -788h615v-117zM102 1477h151l197 -201l197 201h149l-272 -295h-146z" />
    <glyph glyph-name="zdotaccent" unicode="&#x17c;" horiz-adv-x="901" 
d="M834 0h-768v117l591 788h-585v117h739v-117l-592 -788h615v-117zM455 1294q-39 0 -69 29t-30 67t30 67t69 29q38 0 67 -29t29 -67t-29 -67t-67 -29z" />
    <glyph glyph-name="eth" unicode="&#xf0;" horiz-adv-x="1147" 
d="M442 1305q-41 22 -178 86l64 98q116 -46 207 -100l143 127l65 -78l-118 -107q224 -156 336 -361.5t112 -459.5q0 -255 -145 -398t-355 -143q-209 0 -354 143t-145 398q0 170 66 292.5t184.5 186.5t248.5 64q135 0 238 -62q-128 166 -276 260l-160 -141l-66 78zM940 510
q0 139 -47.5 234t-134 141.5t-185.5 46.5q-157 0 -261.5 -106t-104.5 -316q0 -209 104.5 -314.5t261.5 -105.5q158 0 262.5 105.5t104.5 314.5z" />
    <glyph glyph-name="thorn" unicode="&#xfe;" horiz-adv-x="1178" 
d="M266 885q63 84 152.5 126t206.5 42q214 0 346.5 -147t132.5 -396q0 -247 -132.5 -394t-346.5 -147q-235 0 -359 170v-565h-129v1901h129v-590zM266 508q0 -209 89 -313.5t268 -104.5q162 0 255 110t93 312q0 201 -93 310.5t-255 109.5q-175 0 -266 -100t-91 -293v-31z
" />
    <glyph glyph-name="acute" unicode="&#xb4;" horiz-adv-x="643" 
d="M367 1182h-146l242 295h162z" />
    <glyph glyph-name="circumflex" unicode="&#x2c6;" horiz-adv-x="674" 
d="M141 1182h-151l276 295h146l272 -295h-149l-197 200z" />
    <glyph glyph-name="dieresis" unicode="&#xa8;" horiz-adv-x="649" 
d="M109 1272q-40 0 -69.5 29t-29.5 69t29.5 69t69.5 29q39 0 68.5 -29t29.5 -69t-29.5 -69t-68.5 -29zM535 1272q-40 0 -69.5 29t-29.5 69t29.5 69t69.5 29q39 0 68.5 -29t29.5 -69t-29.5 -69t-68.5 -29z" />
    <glyph glyph-name="tilde" unicode="&#x2dc;" horiz-adv-x="694" 
d="M709 1446q0 -100 -54 -159.5t-145 -59.5q-83 0 -176 53q-100 57 -146 57q-79 0 -79 -102h-123q0 99 54 158t144 59q48 0 89 -12t120 -55q66 -37 117 -37q76 0 76 98h123z" />
    <glyph glyph-name="macron" unicode="&#xaf;" horiz-adv-x="1034" 
d="M1049 1577h-1065v113h1065v-113z" />
    <glyph glyph-name="uni02C9" unicode="&#x2c9;" horiz-adv-x="707" 
d="M33 1266v131h637v-131h-637z" />
    <glyph glyph-name="caron" unicode="&#x2c7;" horiz-adv-x="674" 
d="M-10 1477h151l197 -201l197 201h149l-272 -295h-146z" />
    <glyph glyph-name="breve" unicode="&#x2d8;" horiz-adv-x="680" 
d="M168 1452q25 -139 170 -139t170 139h121q-17 -120 -94 -185t-197 -65q-121 0 -197.5 65.5t-91.5 184.5h119z" />
    <glyph glyph-name="ring" unicode="&#x2da;" horiz-adv-x="707" 
d="M352 1155q-88 0 -150.5 62t-62.5 151t62 151t151 62t151 -62t62 -151t-62 -151t-151 -62zM352 1483q-47 0 -80.5 -34t-33.5 -81t33.5 -81t80.5 -34q48 0 81.5 34t33.5 81t-33.5 81t-81.5 34z" />
    <glyph glyph-name="dotaccent" unicode="&#x2d9;" horiz-adv-x="649" 
d="M326 1278q-39 0 -69 29t-30 67t30 67t69 29q38 0 67 -29t29 -67t-29 -67t-67 -29z" />
    <glyph glyph-name="hungarumlaut" unicode="&#x2dd;" horiz-adv-x="633" 
d="M145 1182h-145l242 295h161zM561 1182h-145l241 295h162z" />
    <glyph glyph-name="cedilla" unicode="&#xb8;" horiz-adv-x="670" 
d="M231 -158l50 166h118l-28 -96q82 -11 123 -47.5t41 -97.5q0 -88 -70 -142.5t-203 -54.5q-33 0 -131 8l8 105q75 -7 101 -7q161 0 161 91q0 44 -46.5 59t-123.5 16z" />
    <glyph glyph-name="ogonek" unicode="&#x2db;" horiz-adv-x="670" 
d="M432 51l84 -51q-111 -61 -167 -112.5t-56 -120.5q0 -47 33 -69t110 -22l80 2v-100q-57 -8 -92 -8q-136 0 -204 49.5t-68 147.5q0 79 70 150t210 134z" />
    <glyph glyph-name="uni00B9" unicode="&#xb9;" horiz-adv-x="485" 
d="M326 631h-113v608h-199v90q109 0 157.5 39.5t61.5 116.5h93v-854z" />
    <glyph glyph-name="uni00B2" unicode="&#xb2;" horiz-adv-x="635" 
d="M584 639h-537v96l295.5 280t92.5 115t32 125q0 69 -38 107.5t-107 38.5q-77 0 -119.5 -41.5t-50.5 -124.5h-107q14 131 86.5 200.5t192.5 69.5q114 0 189 -67t75 -181q0 -90 -44 -165.5t-147 -174.5l-186 -176h373v-102z" />
    <glyph glyph-name="uni00B3" unicode="&#xb3;" horiz-adv-x="729" 
d="M510 1098q131 -59 131 -205q0 -119 -82 -193.5t-203 -74.5q-127 0 -206 71.5t-93 206.5h115q10 -87 56 -130.5t128 -43.5q80 0 124 43t44 121q0 145 -174 145h-74v107h68q154 0 154 133q0 53 -35 88t-105 35q-77 0 -119.5 -41.5t-50.5 -124.5h-106q12 132 86 201t192 69
q110 0 182 -62.5t72 -154.5q0 -122 -104 -190z" />
    <glyph glyph-name="ordfeminine" unicode="&#xaa;" horiz-adv-x="741" 
d="M514 811q-89 -90 -217 -90q-103 0 -162 53.5t-59 151.5q0 111 105.5 171t332.5 85v28q0 77 -34.5 115.5t-102.5 38.5q-63 0 -104 -30t-60 -89h-123q27 116 98.5 174t188.5 58q130 0 195 -67.5t65 -201.5v-334q0 -82 27 -133h-127q-18 40 -23 70zM514 997v90
q-168 -24 -238.5 -59.5t-70.5 -101.5q0 -38 28 -66.5t82 -28.5q83 0 141 46.5t58 119.5z" />
    <glyph glyph-name="ordmasculine" unicode="&#xba;" horiz-adv-x="760" 
d="M55 1098q0 178 94 278.5t230 100.5t229.5 -100.5t93.5 -278.5q0 -177 -94 -277t-229 -100t-229.5 100t-94.5 277zM178 1098q0 -130 55.5 -197t145.5 -67t145.5 67t55.5 197t-55 198t-146 68t-146 -68t-55 -198z" />
    <glyph glyph-name="guilsinglleft" unicode="&#x2039;" horiz-adv-x="506" 
d="M197 530l252 -462h-140l-254 469l254 450h140z" />
    <glyph glyph-name="guilsinglright" unicode="&#x203a;" horiz-adv-x="506" 
d="M55 68l252 462l-252 457h140l254 -450l-254 -469h-140z" />
    <glyph glyph-name="guillemotleft" unicode="&#xab;" horiz-adv-x="995" 
d="M686 530l252 -462h-139l-254 469l254 450h139zM197 530l252 -462h-140l-254 469l254 450h140z" />
    <glyph glyph-name="guillemotright" unicode="&#xbb;" horiz-adv-x="995" 
d="M55 68l252 462l-252 457h140l254 -450l-254 -469h-140zM545 68l252 462l-252 457h139l254 -450l-254 -469h-139z" />
    <glyph glyph-name="quotedblleft" unicode="&#x201c;" horiz-adv-x="745" 
d="M182 1219q46 0 78.5 -30.5t32.5 -76.5q0 -41 -30.5 -71.5t-72.5 -30.5q-52 0 -83 38t-31 107q0 104 36 188.5t109 149.5l49 -39q-44 -51 -66 -109.5t-22 -125.5zM557 1219q46 0 78.5 -30.5t32.5 -76.5q0 -41 -31 -71.5t-72 -30.5q-52 0 -83 38t-31 107q0 104 36 188.5
t109 149.5l49 -39q-44 -51 -66 -109.5t-22 -125.5z" />
    <glyph glyph-name="quotedblright" unicode="&#x201d;" horiz-adv-x="745" 
d="M186 1284q-45 0 -77.5 30t-32.5 77q0 41 30.5 71.5t71.5 30.5q53 0 84 -38t31 -107q0 -104 -36.5 -188.5t-109.5 -149.5l-49 39q44 50 66 109t22 126zM561 1284q-45 0 -77.5 30t-32.5 77q0 41 30.5 71.5t71.5 30.5q52 0 83.5 -38t31.5 -107q0 -104 -36.5 -188.5
t-109.5 -149.5l-49 39q44 50 66 109t22 126z" />
    <glyph glyph-name="quoteleft" unicode="&#x2018;" horiz-adv-x="371" 
d="M182 1219q46 0 78.5 -30.5t32.5 -76.5q0 -41 -30.5 -71.5t-72.5 -30.5q-52 0 -83 38t-31 107q0 104 36 188.5t109 149.5l49 -39q-44 -51 -66 -109.5t-22 -125.5z" />
    <glyph glyph-name="quoteright" unicode="&#x2019;" horiz-adv-x="371" 
d="M186 1284q-45 0 -77.5 30t-32.5 77q0 41 30.5 71.5t71.5 30.5q53 0 84 -38t31 -107q0 -104 -36.5 -188.5t-109.5 -149.5l-49 39q44 50 66 109t22 126z" />
    <glyph glyph-name="quotesinglbase" unicode="&#x201a;" horiz-adv-x="371" 
d="M186 -25q-45 0 -77.5 30.5t-32.5 76.5q0 41 30.5 71.5t71.5 30.5q53 0 84 -38t31 -107q0 -104 -36.5 -188.5t-109.5 -149.5l-49 39q44 51 66 109.5t22 125.5z" />
    <glyph glyph-name="quotedblbase" unicode="&#x201e;" horiz-adv-x="745" 
d="M186 -25q-45 0 -77.5 30.5t-32.5 76.5q0 41 30.5 71.5t71.5 30.5q53 0 84 -38t31 -107q0 -104 -36.5 -188.5t-109.5 -149.5l-49 39q44 51 66 109.5t22 125.5zM561 -25q-45 0 -77.5 30.5t-32.5 76.5q0 41 30.5 71.5t71.5 30.5q52 0 83.5 -38t31.5 -107
q0 -104 -36.5 -188.5t-109.5 -149.5l-49 39q44 51 66 109.5t22 125.5z" />
    <glyph glyph-name="ellipsis" unicode="&#x2026;" horiz-adv-x="1376" 
d="M174 -25q-42 0 -74 31.5t-32 73.5t31.5 73t74.5 31q42 0 72 -31t30 -73t-30.5 -73.5t-71.5 -31.5zM686 -25q-42 0 -74 31.5t-32 73.5t31.5 73t74.5 31q42 0 72 -31t30 -73t-30.5 -73.5t-71.5 -31.5zM1198 -25q-42 0 -74 31.5t-32 73.5t31.5 73t74.5 31q42 0 72 -31
t30 -73t-30.5 -73.5t-71.5 -31.5z" />
    <glyph glyph-name="uni00AD" unicode="&#xad;" horiz-adv-x="662" 
d="M55 573v101h549v-101h-549z" />
    <glyph glyph-name="endash" unicode="&#x2013;" horiz-adv-x="907" 
d="M850 573h-795v101h795v-101z" />
    <glyph glyph-name="emdash" unicode="&#x2014;" horiz-adv-x="1194" 
d="M1137 573h-1082v101h1082v-101z" />
    <glyph glyph-name="exclamdown" unicode="&#xa1;" horiz-adv-x="412" 
d="M206 844q-42 0 -73.5 31t-31.5 73t31.5 73.5t73.5 31.5t73 -31.5t31 -73.5q0 -43 -30.5 -73.5t-73.5 -30.5zM141 647h129v-1079h-129v1079zM56 1022z" />
    <glyph glyph-name="questiondown" unicode="&#xbf;" horiz-adv-x="1008" 
d="M519 1053q43 0 74 -31t31 -74t-31 -73.5t-74 -30.5t-73.5 30.5t-30.5 73.5t30.5 74t73.5 31zM831 -23h138q-20 -223 -138 -338.5t-317 -115.5t-314.5 106.5t-115.5 292.5q0 202 186 385q106 104 143.5 168t39.5 172h133q-6 -127 -58 -214.5t-161 -201.5
q-77 -78 -110.5 -148.5t-33.5 -160.5q0 -132 77.5 -204t213.5 -72q139 0 222.5 85.5t94.5 245.5zM666 1022z" />
    <glyph glyph-name="periodcentered" unicode="&#xb7;" horiz-adv-x="352" 
d="M172 864q43 0 73.5 -30.5t30.5 -73.5t-30.5 -74t-73.5 -31t-73.5 31t-30.5 74t30.5 73.5t73.5 30.5z" />
    <glyph glyph-name="uni2219" unicode="&#x2219;" horiz-adv-x="352" 
d="M172 864q43 0 73.5 -30.5t30.5 -73.5t-30.5 -74t-73.5 -31t-73.5 31t-30.5 74t30.5 73.5t73.5 30.5z" />
    <glyph glyph-name="bullet" unicode="&#x2022;" horiz-adv-x="770" 
d="M383 508q-93 0 -159 67t-66 160q0 94 66 161t159 67t160 -67.5t67 -160.5t-67 -160t-160 -67z" />
    <glyph glyph-name="dagger" unicode="&#x2020;" horiz-adv-x="938" 
d="M532 -426h-129v1233h-368v123h368v545h129v-545h369v-123h-369v-1233z" />
    <glyph glyph-name="daggerdbl" unicode="&#x2021;" horiz-adv-x="938" 
d="M532 -426h-129v682h-368v123h368v428h-368v123h368v545h129v-545h369v-123h-369v-428h369v-123h-369v-682z" />
    <glyph glyph-name="section" unicode="&#xa7;" horiz-adv-x="1204" 
d="M186 911q-71 88 -71 217q0 113 63.5 198.5t178 132t241.5 46.5q217 0 350.5 -104.5t155.5 -310.5h-139q-13 145 -110.5 218.5t-256.5 73.5q-142 0 -243 -66t-101 -188q0 -112 77 -176t318 -116q280 -63 380.5 -167.5t100.5 -260.5q0 -116 -59 -215q59 -90 59 -211
q0 -200 -152.5 -319.5t-377.5 -119.5q-221 0 -369.5 120.5t-164.5 336.5h139q18 -168 117 -252t278 -84q175 0 282 83t107 235q0 129 -80 191t-301 114q-289 67 -391 166t-102 249q0 121 71 209zM969 291q20 57 20 117q0 129 -80 191t-301 114q-225 52 -319 112
q-35 -50 -35 -123q0 -110 75 -173.5t320 -118.5q216 -48 320 -119z" />
    <glyph glyph-name="paragraph" unicode="&#xb6;" horiz-adv-x="1114" 
d="M451 766h-60q-158 0 -257 101.5t-99 252.5q0 152 99 253.5t257 101.5h563v-1901h-135v1780h-233v-1780h-135v1192z" />
    <glyph glyph-name="copyright" unicode="&#xa9;" horiz-adv-x="1628" 
d="M813 1505q316 0 542 -225.5t226 -542.5q0 -316 -226 -542t-542 -226t-542 226t-226 542q0 317 226 542.5t542 225.5zM815 88q268 0 458.5 191t190.5 458q0 268 -190.5 458.5t-458.5 190.5q-267 0 -458 -190.5t-191 -458.5q0 -267 191 -458t458 -191zM1036 567h138
q-25 -133 -124.5 -215t-236.5 -82q-182 0 -287.5 128t-105.5 339t105.5 339t287.5 128q138 0 236.5 -80t126.5 -217h-140q-21 76 -82 124t-141 48q-124 0 -189 -92.5t-65 -249.5q0 -156 65 -249t189 -93q81 0 141.5 48t81.5 124z" />
    <glyph glyph-name="registered" unicode="&#xae;" horiz-adv-x="1628" 
d="M813 1505q316 0 542 -225.5t226 -542.5q0 -316 -226 -542t-542 -226t-542 226t-226 542q0 317 226 542.5t542 225.5zM815 88q268 0 458.5 191t190.5 458q0 268 -190.5 458.5t-458.5 190.5q-267 0 -458 -190.5t-191 -458.5q0 -267 191 -458t458 -191zM940 674l250 -371
h-150l-233 359h-205v-359h-119v868h346q157 0 242.5 -66.5t85.5 -184.5q0 -94 -54.5 -155.5t-162.5 -90.5zM602 1065v-293h227q100 0 150.5 37t50.5 111q0 72 -50.5 108.5t-150.5 36.5h-227z" />
    <glyph glyph-name="trademark" unicode="&#x2122;" horiz-adv-x="1692" 
d="M700 1477v-113h-274v-705h-117v705h-274v113h665zM1276 659h-131l-225 574v-574h-113v818h133l270 -701l271 701h133v-818h-113v574z" />
    <glyph glyph-name="onequarter" unicode="&#xbc;" horiz-adv-x="1497" 
d="M353 630h-113v608h-199v90q109 0 157.5 39.5t61.5 116.5h93v-854zM256 0l760 1475h135l-759 -1475h-136zM1452 190h-109v-190h-112v190h-381v105l395 555h98v-555h109v-105zM1231 295v339l-225 -339h225z" />
    <glyph glyph-name="onehalf" unicode="&#xbd;" horiz-adv-x="1548" 
d="M357 634h-113v608h-199v90q109 0 157.5 39.5t61.5 116.5h93v-854zM255 0l760 1475h135l-759 -1475h-136zM1501 0h-537v96l295.5 280t92.5 115t32 125q0 69 -38 107.5t-107 38.5q-77 0 -119.5 -41.5t-50.5 -124.5h-107q14 131 86.5 200.5t192.5 69.5q114 0 189 -67
t75 -181q0 -90 -44 -165.5t-147 -174.5l-186 -176h373v-102z" />
    <glyph glyph-name="threequarters" unicode="&#xbe;" horiz-adv-x="1675" 
d="M510 1098q131 -59 131 -205q0 -119 -82 -193.5t-203 -74.5q-127 0 -206 71.5t-93 206.5h115q10 -87 56 -130.5t128 -43.5q80 0 124 43t44 121q0 145 -174 145h-74v107h68q154 0 154 133q0 53 -35 88t-105 35q-77 0 -119.5 -41.5t-50.5 -124.5h-106q12 132 86 201t192 69
q110 0 182 -62.5t72 -154.5q0 -122 -104 -190zM432 0l760 1475h135l-759 -1475h-136zM1632 190h-109v-190h-112v190h-381v105l395 555h98v-555h109v-105zM1411 295v339l-225 -339h225z" />
    <glyph glyph-name="fraction" unicode="&#x2044;" horiz-adv-x="762" 
d="M-68 0l760 1475h135l-759 -1475h-136z" />
    <glyph glyph-name="uni2215" unicode="&#x2215;" horiz-adv-x="762" 
d="M-68 0l760 1475h135l-759 -1475h-136z" />
    <glyph glyph-name="Euro" unicode="&#x20ac;" horiz-adv-x="1251" 
d="M369 504q25 -209 115.5 -313.5t246.5 -104.5q133 0 211 58t117 178h135q-50 -178 -160.5 -265.5t-302.5 -87.5q-213 0 -343 137.5t-155 397.5h-157v117h143l-2 116l2 119h-143v117h155q34 259 163 395.5t337 136.5q192 0 302.5 -87.5t160.5 -264.5h-135q-39 120 -117 178
t-211 58q-153 0 -247 -106.5t-122 -309.5h529v-117h-537l-2 -119l2 -116h537v-117h-522z" />
    <glyph glyph-name="sterling" unicode="&#xa3;" horiz-adv-x="1210" 
d="M1057 141l45 -116q-112 -56 -238 -56q-86 0 -222 50q-137 51 -224 51q-78 0 -154.5 -24.5t-152.5 -72.5l-66 115q106 63 174 191t68 282q0 46 -11 111h-174v121h146q-43 181 -43 280q0 217 113.5 324.5t304.5 107.5t301.5 -94.5t140.5 -282.5h-141q-13 126 -92 192
t-209 66q-141 0 -211 -78.5t-70 -234.5q0 -89 41 -280h491v-121h-471q11 -65 11 -113q0 -245 -129 -397q82 26 157 26q101 0 241 -55q115 -45 183 -45q83 0 191 53z" />
    <glyph glyph-name="yen" unicode="&#xa5;" horiz-adv-x="1278" 
d="M185 1475l463 -805l456 805h138l-473 -809h440v-117h-500v-168h500v-117h-500v-264h-135v264h-506v117h506v168h-506v117h438l-471 809h150z" />
    <glyph glyph-name="florin" unicode="&#x192;" horiz-adv-x="1053" 
d="M616 723l-137 -850q-27 -170 -108.5 -251t-245.5 -81q-79 0 -111 6l15 121q41 -4 96 -4q97 0 147 42.5t70 164.5l139 852h-221l16 125h220l63 369q12 66 54 142t111.5 111t180.5 35q80 0 111 -6l-15 -121q-40 4 -96 4q-98 0 -148.5 -49.5t-67.5 -151.5l-56 -333h252
l-17 -125h-252z" />
    <glyph glyph-name="cent" unicode="&#xa2;" horiz-adv-x="1069" 
d="M639 -197h-121v170q-198 26 -315 167.5t-117 369.5q0 225 117.5 367.5t314.5 171.5v172h121v-172q150 -16 243.5 -95.5t129.5 -222.5h-133q-35 84 -95 133t-145 64v-834q85 14 145 63.5t95 133.5h133q-36 -143 -129.5 -222.5t-243.5 -95.5v-170zM518 926
q-150 -31 -224.5 -135t-74.5 -281q0 -179 74.5 -283t224.5 -133v832z" />
    <glyph glyph-name="currency" unicode="&#xa4;" horiz-adv-x="1159" 
d="M172 1128l125 -131q134 103 283 103q183 0 282 -103l125 131l72 -73l-125 -123q98 -133 98 -277q0 -159 -98 -274l125 -125l-72 -70l-125 121q-137 -96 -282 -96q-151 0 -283 96l-125 -121l-72 70l125 125q-98 128 -98 274q0 148 98 277l-125 123zM231 655
q0 -138 103 -239t246 -101q141 0 243.5 101t102.5 239q0 148 -101 250.5t-245 102.5q-146 0 -247.5 -102.5t-101.5 -250.5z" />
    <glyph glyph-name="degree" unicode="&#xb0;" horiz-adv-x="758" 
d="M377 922q-121 0 -206 85t-85 205q0 121 85 207t206 86t207 -86t86 -207q0 -120 -86 -205t-207 -85zM377 1391q-74 0 -126 -52.5t-52 -126.5q0 -73 52 -125.5t126 -52.5q73 0 125.5 52.5t52.5 125.5q0 74 -52 126.5t-126 52.5z" />
    <glyph glyph-name="perthousand" unicode="&#x2030;" horiz-adv-x="2497" 
d="M96 1065q0 220 78 330t234 110q157 0 236 -110t79 -330q0 -219 -79 -328.5t-236 -109.5q-156 0 -234 109.5t-78 328.5zM217 1065q0 -166 47.5 -249t143.5 -83q97 0 145.5 83t48.5 249q0 165 -48.5 247.5t-145.5 82.5q-96 0 -143.5 -82.5t-47.5 -247.5zM422 0l760 1475
h135l-760 -1475h-135zM1010 408q0 220 77.5 330t233.5 110q157 0 236 -110t79 -330t-79 -329.5t-236 -109.5q-156 0 -233.5 109.5t-77.5 329.5zM1772 408q0 220 77.5 330t233.5 110q157 0 236 -110t79 -330t-79 -329.5t-236 -109.5q-156 0 -233.5 109.5t-77.5 329.5z
M2083 78q97 0 145.5 82.5t48.5 247.5q0 164 -48.5 246.5t-145.5 82.5t-145 -82.5t-48 -246.5q0 -165 48 -247.5t145 -82.5zM1130 408q0 -165 47.5 -247.5t143.5 -82.5q97 0 146 82.5t49 247.5q0 164 -49 246.5t-146 82.5q-96 0 -143.5 -82.5t-47.5 -246.5z" />
    <glyph glyph-name="multiply" unicode="&#xd7;" horiz-adv-x="1352" 
d="M1145 340l-88 -90l-383 385l-377 -385l-90 92l381 379l-379 379l88 90l381 -383l379 383l86 -92l-379 -377z" />
    <glyph glyph-name="divide" unicode="&#xf7;" horiz-adv-x="1364" 
d="M682 1024q-40 0 -69 29.5t-29 68.5q0 40 29 69.5t69 29.5t69 -29.5t29 -69.5q0 -39 -29 -68.5t-69 -29.5zM1151 674h-938v127h938v-127zM682 254q-40 0 -69 29.5t-29 68.5q0 40 29 69.5t69 29.5t69 -29.5t29 -69.5q0 -39 -29 -68.5t-69 -29.5z" />
    <glyph glyph-name="minus" unicode="&#x2212;" horiz-adv-x="1364" 
d="M1149 674h-936v127h936v-127z" />
    <glyph glyph-name="plusminus" unicode="&#xb1;" horiz-adv-x="1364" 
d="M1149 678h-406v-412h-125v412h-405v125h405v416h125v-416h406v-125zM1149 0h-936v125h936v-125z" />
    <glyph glyph-name="notequal" unicode="&#x2260;" horiz-adv-x="1364" 
d="M1149 455h-547l-137 -279h-133l139 279h-258v125h322l151 315h-473v125h537l139 285h135l-139 -285h264v-125h-330l-153 -315h483v-125z" />
    <glyph glyph-name="lessequal" unicode="&#x2264;" horiz-adv-x="1364" 
d="M1149 270l-936 418v84l936 416v-135l-733 -322v-4l733 -319v-138zM1149 0h-936v125h936v-125z" />
    <glyph glyph-name="greaterequal" unicode="&#x2265;" horiz-adv-x="1364" 
d="M1149 688l-936 -418v138l733 317v8l-733 320v133l936 -414v-84zM1149 0h-936v125h936v-125z" />
    <glyph glyph-name="approxequal" unicode="&#x2248;" horiz-adv-x="987" 
d="M45 846q0 117 65 190.5t177 73.5q116 0 249 -81q97 -58 150 -58t80 33t27 100h135q0 -118 -65 -191t-177 -73q-70 0 -178 55q-113 57 -151 70.5t-70 13.5q-54 0 -80.5 -33.5t-26.5 -99.5h-135zM45 438q0 118 65 191t177 73q116 0 249 -80q97 -59 150 -59t80 33t27 100
h135q0 -117 -65 -190.5t-177 -73.5q-70 0 -178 55q-113 58 -151 71t-70 13q-54 0 -80.5 -33.5t-26.5 -99.5h-135z" />
    <glyph glyph-name="logicalnot" unicode="&#xac;" horiz-adv-x="1366" 
d="M1153 438h-133v406h-807v133h940v-539z" />
    <glyph glyph-name="brokenbar" unicode="&#xa6;" horiz-adv-x="410" 
d="M268 692h-129v875h129v-875zM268 -483h-129v901h129v-901z" />
    <glyph glyph-name="infinity" unicode="&#x221e;" horiz-adv-x="1649" 
d="M817 696h-4q-82 -119 -177 -178t-204 -59q-156 0 -252 94t-96 244t94.5 245t247.5 95q117 0 214 -59.5t173 -178.5h4q83 119 179 178.5t204 59.5q154 0 252 -93t98 -241q0 -146 -95 -245t-245 -99q-117 0 -215.5 59t-177.5 178zM881 799q68 -110 146.5 -164.5
t168.5 -54.5q103 0 160 61t57 160q0 98 -56.5 157.5t-158.5 59.5q-86 0 -165.5 -55t-151.5 -164zM752 799q-62 103 -148 161t-172 58q-99 0 -156 -63t-57 -162q0 -94 61 -156t154 -62q86 0 165.5 56t152.5 168z" />
    <glyph glyph-name="partialdiff" unicode="&#x2202;" horiz-adv-x="1194" 
d="M958 891h7l4 71q13 205 -66.5 314.5t-228.5 109.5q-134 0 -232 -59l-51 109q123 69 283 69q201 0 316.5 -128.5t115.5 -360.5q0 -261 -78 -513t-221.5 -393t-337.5 -141q-169 0 -273 118.5t-104 315.5q0 269 167 447t396 178q100 0 181.5 -37t121.5 -100zM942 715
q-26 81 -96.5 137.5t-181.5 56.5q-177 0 -306 -140t-129 -363q0 -154 67 -236t181 -82q184 0 303.5 185.5t161.5 441.5z" />
    <glyph glyph-name="uni00B5" unicode="&#xb5;" horiz-adv-x="1157" 
d="M266 1022v-604q0 -164 70.5 -246t212.5 -82q137 0 216 89t79 257v586h129v-770q0 -77 20 -110t74 -33q25 0 39 2v-107q-14 -16 -80 -16q-68 0 -112 35.5t-52 101.5h-10q-58 -78 -135.5 -117t-173.5 -39q-92 0 -157.5 28t-104.5 85h-15v-508h-129v1448h129z" />
    <glyph glyph-name="uni2206" unicode="&#x2206;" horiz-adv-x="1368" 
d="M590 1475h186l576 -1475h-1338zM199 119h964l-483 1249z" />
    <glyph glyph-name="uni2126" unicode="&#x2126;" horiz-adv-x="1466" 
d="M733 1384q-133 0 -227 -49t-154.5 -130t-89.5 -184t-29 -214q0 -240 98.5 -409t272.5 -277v-121h-512v121h324v8q-166 135 -245 310t-79 368q0 158 45 287t128 220t202 141t266 50q148 0 266.5 -50t201.5 -141t128 -220t45 -287q0 -193 -78.5 -368t-244.5 -310v-8h323
v-121h-512v121q174 108 272.5 277t98.5 409q0 111 -28.5 214t-89 184t-155 130t-227.5 49z" />
    <glyph glyph-name="summation" unicode="&#x2211;" horiz-adv-x="1346" 
d="M49 -428l-10 76l702 880l-655 854v93h1124v-117h-944l637 -826l-676 -845h1033v-115h-1211z" />
    <glyph glyph-name="product" unicode="&#x220f;" horiz-adv-x="1430" 
d="M1126 -426v1784h-825v-1784h-135v1901h1096v-1901h-136z" />
    <glyph glyph-name="integral" unicode="&#x222b;" horiz-adv-x="999" 
d="M840 1399q-53 12 -121 12q-82 0 -123 -56.5t-41 -168.5v-1307q0 -167 -79.5 -258.5t-227.5 -91.5q-89 0 -150 16l37 117q53 -12 121 -12q82 0 123 56.5t41 168.5v1311q0 166 79 256t228 90q88 0 150 -16z" />
    <glyph glyph-name="radical" unicode="&#x221a;" horiz-adv-x="1090" 
d="M678 -25h-137l-295 693l-119 -74l-49 96l221 135l303 -706l375 1356h119z" />
    <glyph glyph-name="lozenge" unicode="&#x25ca;" horiz-adv-x="1227" 
d="M1100 729l-467 -749h-82l-463 745l463 750h82zM961 729l-369 588l-365 -588l367 -594z" />
    <glyph glyph-name="uni00A0" unicode="&#xa0;" horiz-adv-x="477" 
 />
    <glyph glyph-name="glyph329" 
d="M578 -471l-68 45q55 73 55 143q-50 0 -80 28.5t-30 78.5q0 42 29.5 72t72.5 30q53 0 84 -38.5t31 -106.5q0 -141 -94 -252z" />
    <glyph glyph-name="glyph330" horiz-adv-x="635" 
d="M619 825h-109v-190h-112v190h-381v105l395 555h98v-555h109v-105zM398 930v339l-225 -339h225z" />
    <glyph glyph-name="g.ss01" horiz-adv-x="1180" 
d="M217 -156q41 -98 124 -139t194 -41q77 0 146 15.5t121 60.5t81.5 124t29.5 208v75q-69 -98 -160 -138t-200 -40q-104 0 -191.5 37t-152 106.5t-100 170t-35.5 227.5q0 129 35.5 229.5t100 170t152 106.5t191.5 37q111 0 201 -38t157 -130v137h129v-952q0 -168 -48 -271.5
t-121.5 -160t-164 -76t-171.5 -19.5q-173 0 -292.5 76t-158.5 225h133zM911 539q0 198 -91 296.5t-267 98.5q-72 0 -134.5 -24.5t-109.5 -77t-74.5 -132t-27.5 -188.5q0 -111 26.5 -190.5t73.5 -132t110.5 -77t135.5 -24.5q176 0 267 102.5t91 319.5v29z" />
    <glyph glyph-name="gbreve.ss01" horiz-adv-x="1180" 
d="M217 -156q41 -98 124 -139t194 -41q77 0 146 15.5t121 60.5t81.5 124t29.5 208v75q-69 -98 -160 -138t-200 -40q-104 0 -191.5 37t-152 106.5t-100 170t-35.5 227.5q0 129 35.5 229.5t100 170t152 106.5t191.5 37q111 0 201 -38t157 -130v137h129v-952q0 -168 -48 -271.5
t-121.5 -160t-164 -76t-171.5 -19.5q-173 0 -292.5 76t-158.5 225h133zM911 539q0 198 -91 296.5t-267 98.5q-72 0 -134.5 -24.5t-109.5 -77t-74.5 -132t-27.5 -188.5q0 -111 26.5 -190.5t73.5 -132t110.5 -77t135.5 -24.5q176 0 267 102.5t91 319.5v29zM388 1452
q25 -139 170 -139t170 139h121q-17 -120 -94 -185t-197 -65q-121 0 -197.5 65.5t-91.5 184.5h119z" />
    <glyph glyph-name="gcommaaccent.ss01" horiz-adv-x="1180" 
d="M217 -156q41 -98 124 -139t194 -41q77 0 146 15.5t121 60.5t81.5 124t29.5 208v75q-69 -98 -160 -138t-200 -40q-104 0 -191.5 37t-152 106.5t-100 170t-35.5 227.5q0 129 35.5 229.5t100 170t152 106.5t191.5 37q111 0 201 -38t157 -130v137h129v-952q0 -168 -48 -271.5
t-121.5 -160t-164 -76t-171.5 -19.5q-173 0 -292.5 76t-158.5 225h133zM911 539q0 198 -91 296.5t-267 98.5q-72 0 -134.5 -24.5t-109.5 -77t-74.5 -132t-27.5 -188.5q0 -111 26.5 -190.5t73.5 -132t110.5 -77t135.5 -24.5q176 0 267 102.5t91 319.5v29zM684 1292
q0 -39 -28.5 -71.5t-75.5 -32.5q-45 0 -76 31.5t-31 91.5q0 65 22.5 131.5t77.5 126.5l50 -35q-31 -39 -45.5 -78t-16.5 -61q6 2 19 2q38 0 71 -29t33 -76z" />
    <glyph glyph-name="uni0374" unicode="&#x374;" horiz-adv-x="518" 
d="M268 1182h-106l98 385h146z" />
    <glyph glyph-name="uni0375" unicode="&#x375;" horiz-adv-x="518" 
d="M66 -508l151 393h150l-181 -393h-120z" />
    <glyph glyph-name="uni037E" unicode="&#x37e;" horiz-adv-x="354" 
d="M174 844q-42 0 -74 31.5t-32 72.5q0 43 31.5 74t74.5 31q42 0 72 -31t30 -74q0 -41 -30.5 -72.5t-71.5 -31.5zM178 -25q-45 0 -77.5 30.5t-32.5 76.5q0 41 30.5 71.5t71.5 30.5q52 0 83.5 -38t31.5 -107q0 -104 -36.5 -188.5t-109.5 -149.5l-49 39q44 51 66 109.5
t22 125.5z" />
    <glyph glyph-name="tonos" unicode="&#x384;" horiz-adv-x="649" 
d="M313 1182h-106l98 385h146z" />
    <glyph glyph-name="dieresistonos" unicode="&#x385;" horiz-adv-x="897" 
d="M434 1182h-106l98 385h145zM190 1272q-38 0 -68 30t-30 68q0 39 30 68.5t68 29.5t67.5 -29.5t29.5 -68.5q0 -38 -29 -68t-68 -30zM707 1272q-39 0 -69 30t-30 68t30 67t69 29q38 0 67 -29t29 -67t-29.5 -68t-66.5 -30z" />
    <glyph glyph-name="Alphatonos" unicode="&#x386;" horiz-adv-x="1368" 
d="M1352 0h-144l-196 516h-662l-196 -516h-140l578 1475h182zM963 635l-277 719h-8l-281 -719h566zM162 1090h-107l99 385h145z" />
    <glyph glyph-name="anoteleia" unicode="&#x387;" horiz-adv-x="406" 
d="M199 1165q52 0 91.5 -38.5t39.5 -92.5q0 -53 -39 -92t-92 -39q-54 0 -92.5 39.5t-38.5 91.5q0 54 38.5 92.5t92.5 38.5z" />
    <glyph glyph-name="Epsilontonos" unicode="&#x388;" horiz-adv-x="1120" 
d="M1016 0h-912v1475h893v-121h-758v-537h721v-121h-721v-575h777v-121zM-162 1090h-107l99 385h145z" />
    <glyph glyph-name="Etatonos" unicode="&#x389;" horiz-adv-x="1335" 
d="M235 0h-135v1475h135v-658h826v658h135v-1475h-135v696h-826v-696zM-162 1090h-107l99 385h145z" />
    <glyph glyph-name="Iotatonos" unicode="&#x38a;" horiz-adv-x="377" 
d="M238 0h-135v1475h135v-1475zM-162 1090h-107l99 385h145z" />
    <glyph glyph-name="Omicrontonos" unicode="&#x38c;" horiz-adv-x="1434" 
d="M1336 737q0 -348 -170.5 -558t-468.5 -210t-469.5 210t-171.5 558t171.5 558t469.5 210t468.5 -210t170.5 -558zM1195 737q0 296 -127.5 471.5t-370.5 175.5t-371 -175t-128 -472q0 -296 128 -471.5t371 -175.5t370.5 175.5t127.5 471.5zM-50 1090h-107l99 385h145z" />
    <glyph glyph-name="Upsilontonos" unicode="&#x38e;" horiz-adv-x="1231" 
d="M600 670l457 805h137l-532 -912v-563h-136v549l-538 926h149zM-236 1090h-107l99 385h145z" />
    <glyph glyph-name="Omegatonos" unicode="&#x38f;" horiz-adv-x="1425" 
d="M822 121q185 115 278 286.5t93 399.5q0 256 -132 416.5t-368 160.5t-368 -160.5t-132 -416.5q0 -228 92.5 -399.5t278.5 -286.5v-121h-512v121h324v8q-324 264 -324 678q0 318 173 508t468 190q293 0 467 -190t174 -508q0 -414 -323 -678v-8h323v-121h-512v121zM-51 1090
h-107l99 385h145z" />
    <glyph glyph-name="iotadieresistonos" unicode="&#x390;" horiz-adv-x="442" 
d="M131 186v836h129v-795q0 -83 11 -110t57 -27l63 2v-106q-43 -17 -96 -17q-85 0 -124.5 49t-39.5 168zM234 1182h-106l98 385h145zM-10 1272q-38 0 -68 30t-30 68q0 39 30 68.5t68 29.5t67.5 -29.5t29.5 -68.5q0 -38 -29 -68t-68 -30zM507 1272q-39 0 -69 30t-30 68t30 67
t69 29q38 0 67 -29t29 -67t-29.5 -68t-66.5 -30z" />
    <glyph glyph-name="Alpha" unicode="&#x391;" horiz-adv-x="1368" 
d="M1352 0h-144l-196 516h-662l-196 -516h-140l578 1475h182zM963 635l-277 719h-8l-281 -719h566z" />
    <glyph glyph-name="Beta" unicode="&#x392;" horiz-adv-x="1257" 
d="M137 1475h508q237 0 366.5 -94t129.5 -271q0 -122 -59 -206t-177 -130q142 -36 213.5 -122t71.5 -222q0 -208 -147.5 -319t-399.5 -111h-506v1475zM272 1356v-531h373q177 0 265.5 70.5t88.5 212.5q0 124 -88.5 186t-265.5 62h-373zM645 121q202 0 303 77t101 232
q0 139 -101 209t-303 70h-373v-588h373z" />
    <glyph glyph-name="Gamma" unicode="&#x393;" horiz-adv-x="1024" 
d="M137 1475h850v-119h-715v-1356h-135v1475z" />
    <glyph glyph-name="Delta" unicode="&#x394;" horiz-adv-x="1368" 
d="M590 1475h186l576 -1475h-1338zM199 119h964l-483 1249z" />
    <glyph glyph-name="Epsilon" unicode="&#x395;" horiz-adv-x="1157" 
d="M1049 0h-912v1475h893v-121h-758v-537h721v-121h-721v-575h777v-121z" />
    <glyph glyph-name="Zeta" unicode="&#x396;" horiz-adv-x="1229" 
d="M1151 1475v-119l-915 -1235h915v-121h-1075v119l915 1235h-860v121h1020z" />
    <glyph glyph-name="Eta" unicode="&#x397;" horiz-adv-x="1372" 
d="M272 0h-135v1475h135v-658h826v658h135v-1475h-135v696h-826v-696z" />
    <glyph glyph-name="Theta" unicode="&#x398;" horiz-adv-x="1475" 
d="M1376 737q0 -348 -170.5 -558t-468.5 -210t-469.5 210t-171.5 558t171.5 558t469.5 210t468.5 -210t170.5 -558zM1235 737q0 296 -127.5 471.5t-370.5 175.5t-371 -175t-128 -472q0 -296 128 -471.5t371 -175.5t370.5 175.5t127.5 471.5zM1053 696h-631v121h631v-121z
" />
    <glyph glyph-name="Iota" unicode="&#x399;" horiz-adv-x="412" 
d="M272 0h-135v1475h135v-1475z" />
    <glyph glyph-name="Kappa" unicode="&#x39a;" horiz-adv-x="1186" 
d="M555 823l635 -823h-166l-553 727l-199 -231v-496h-135v1475h135v-801l684 801h158z" />
    <glyph glyph-name="Lambda" unicode="&#x39b;" horiz-adv-x="1368" 
d="M1208 0l-524 1368h-4l-526 -1368h-140l576 1475h186l576 -1475h-144z" />
    <glyph glyph-name="Mu" unicode="&#x39c;" horiz-adv-x="1630" 
d="M897 0h-162l-461 1319h-8v-1319h-129v1475h219l465 -1336l465 1336h213v-1475h-129v1319h-8z" />
    <glyph glyph-name="Nu" unicode="&#x39d;" horiz-adv-x="1372" 
d="M1233 1475v-1475h-164l-803 1302v-1302h-129v1475h174l793 -1288v1288h129z" />
    <glyph glyph-name="Xi" unicode="&#x39e;" horiz-adv-x="1219" 
d="M1108 1354h-999v121h999v-121zM205 696v121h809v-121h-809zM1110 121v-121h-1001v121h1001z" />
    <glyph glyph-name="Omicron" unicode="&#x39f;" horiz-adv-x="1475" 
d="M1376 737q0 -348 -170.5 -558t-468.5 -210t-469.5 210t-171.5 558t171.5 558t469.5 210t468.5 -210t170.5 -558zM1235 737q0 296 -127.5 471.5t-370.5 175.5t-371 -175t-128 -472q0 -296 128 -471.5t371 -175.5t370.5 175.5t127.5 471.5z" />
    <glyph glyph-name="Pi" unicode="&#x3a0;" horiz-adv-x="1372" 
d="M272 0h-135v1475h1096v-1475h-135v1354h-826v-1354z" />
    <glyph glyph-name="Rho" unicode="&#x3a1;" horiz-adv-x="1221" 
d="M639 655h-367v-655h-135v1475h502q247 0 380.5 -107t133.5 -303t-133.5 -303t-380.5 -107zM272 776h367q186 0 279.5 72t93.5 217q0 144 -93.5 216.5t-279.5 72.5h-367v-578z" />
    <glyph glyph-name="Sigma" unicode="&#x3a3;" horiz-adv-x="1167" 
d="M784 768l-546 -647h854v-121h-1016v119l551 651l-525 586v119h963v-121h-801l520 -580v-6z" />
    <glyph glyph-name="Tau" unicode="&#x3a4;" horiz-adv-x="1266" 
d="M45 1475h1174v-121h-519v-1354h-135v1354h-520v121z" />
    <glyph glyph-name="Upsilon" unicode="&#x3a5;" horiz-adv-x="1278" 
d="M647 670l457 805h137l-532 -912v-563h-136v549l-538 926h149z" />
    <glyph glyph-name="Phi" unicode="&#x3a6;" horiz-adv-x="1489" 
d="M676 -10v186q-278 9 -444 165.5t-166 401.5q0 246 166 402.5t444 165.5v180h135v-180q277 -9 443.5 -165.5t166.5 -402.5q0 -245 -166.5 -401.5t-443.5 -165.5v-186h-135zM811 1198v-909q224 9 346.5 131t122.5 323q0 202 -122.5 324t-346.5 131zM676 289v909
q-224 -9 -346.5 -131t-122.5 -324q0 -201 122.5 -323t346.5 -131zM516 1475z" />
    <glyph glyph-name="Chi" unicode="&#x3a7;" horiz-adv-x="1278" 
d="M631 883l397 592h152l-473 -705l514 -770h-154l-434 653l-428 -653h-150l504 762l-473 713h154z" />
    <glyph glyph-name="Psi" unicode="&#x3a8;" horiz-adv-x="1468" 
d="M666 0v451q-285 14 -427.5 151t-142.5 397v476h135v-476q0 -216 94 -317.5t341 -114.5v908h135v-908q246 13 340 114.5t94 317.5v476h135v-476q0 -260 -142.5 -397t-426.5 -151v-451h-135z" />
    <glyph glyph-name="Omega" unicode="&#x3a9;" horiz-adv-x="1466" 
d="M862 121q185 115 278 286.5t93 399.5q0 256 -132 416.5t-368 160.5t-368 -160.5t-132 -416.5q0 -228 92.5 -399.5t278.5 -286.5v-121h-512v121h324v8q-324 264 -324 678q0 318 173 508t468 190q293 0 467 -190t174 -508q0 -414 -323 -678v-8h323v-121h-512v121z" />
    <glyph glyph-name="Iotadieresis" unicode="&#x3aa;" horiz-adv-x="412" 
d="M272 0h-135v1475h135v-1475zM-7 1632q-40 0 -69.5 29t-29.5 69t29.5 69t69.5 29q39 0 68.5 -29t29.5 -69t-29.5 -69t-68.5 -29zM419 1632q-40 0 -69.5 29t-29.5 69t29.5 69t69.5 29q39 0 68.5 -29t29.5 -69t-29.5 -69t-68.5 -29z" />
    <glyph glyph-name="Upsilondieresis" unicode="&#x3ab;" horiz-adv-x="1278" 
d="M647 670l457 805h137l-532 -912v-563h-136v549l-538 926h149zM427 1591q-40 0 -69.5 29t-29.5 69t29.5 69t69.5 29q39 0 68.5 -29t29.5 -69t-29.5 -69t-68.5 -29zM853 1591q-40 0 -69.5 29t-29.5 69t29.5 69t69.5 29q39 0 68.5 -29t29.5 -69t-29.5 -69t-68.5 -29z" />
    <glyph glyph-name="alphatonos" unicode="&#x3ac;" horiz-adv-x="1227" 
d="M1176 2q-15 -16 -80 -16q-154 0 -166 164h-10q-58 -88 -153.5 -134.5t-207.5 -46.5q-215 0 -350 147.5t-135 393.5q0 249 132 396t347 147q116 0 205.5 -42t152.5 -126v137h129v-778q0 -81 21.5 -112.5t73.5 -31.5q27 0 41 2v-100zM911 514v31q0 194 -89 291.5t-267 97.5
q-162 0 -255 -110t-93 -312q0 -209 95.5 -316.5t252.5 -107.5q164 0 260 112.5t96 313.5zM622 1182h-106l98 385h146z" />
    <glyph glyph-name="epsilontonos" unicode="&#x3ad;" horiz-adv-x="946" 
d="M764 307h129q-20 -154 -136.5 -246t-285.5 -92q-183 0 -294 91t-111 245q0 170 172 254q-140 71 -140 213q0 125 107.5 202t269.5 77q157 0 262.5 -75t132.5 -212h-131q-23 84 -88.5 126t-173.5 42q-112 0 -179 -42.5t-67 -117.5q0 -76 57 -118t167 -42h139v-116h-139
q-120 0 -188 -51t-68 -140q0 -111 76.5 -163t193.5 -52q120 0 198 58t97 159zM567 1182h-106l98 385h146z" />
    <glyph glyph-name="etatonos" unicode="&#x3ae;" horiz-adv-x="1063" 
d="M139 0v795q0 80 -17 103.5t-63 23.5h-18v94q36 12 72 12q123 0 143 -125h10q106 150 322 150q176 0 269 -104t93 -304v-1071h-129v1055q0 176 -65.5 239.5t-192.5 63.5q-141 0 -218 -84t-77 -246v-602h-129zM571 1182h-106l98 385h146z" />
    <glyph glyph-name="iotatonos" unicode="&#x3af;" horiz-adv-x="442" 
d="M131 186v836h129v-795q0 -83 11 -110t57 -27l63 2v-106q-43 -17 -96 -17q-85 0 -124.5 49t-39.5 168zM270 1182h-106l98 385h146z" />
    <glyph glyph-name="upsilondieresistonos" unicode="&#x3b0;" horiz-adv-x="1090" 
d="M963 1022v-623q0 -216 -109.5 -323t-308.5 -107q-204 0 -311 109.5t-107 320.5v623h129v-614q0 -176 76.5 -247t212.5 -71q150 0 219.5 78.5t69.5 239.5v614h129zM543 1182h-106l98 385h145zM299 1272q-38 0 -68 30t-30 68q0 39 30 68.5t68 29.5t67.5 -29.5t29.5 -68.5
q0 -38 -29 -68t-68 -30zM816 1272q-39 0 -69 30t-30 68t30 67t69 29q38 0 67 -29t29 -67t-29.5 -68t-66.5 -30z" />
    <glyph glyph-name="alpha" unicode="&#x3b1;" horiz-adv-x="1227" 
d="M1176 2q-15 -16 -80 -16q-154 0 -166 164h-10q-58 -88 -153.5 -134.5t-207.5 -46.5q-215 0 -350 147.5t-135 393.5q0 249 132 396t347 147q116 0 205.5 -42t152.5 -126v137h129v-778q0 -81 21.5 -112.5t73.5 -31.5q27 0 41 2v-100zM911 514v31q0 194 -89 291.5t-267 97.5
q-162 0 -255 -110t-93 -312q0 -209 95.5 -316.5t252.5 -107.5q164 0 260 112.5t96 313.5z" />
    <glyph glyph-name="beta" unicode="&#x3b2;" horiz-adv-x="1188" 
d="M256 -426h-129v1337q0 188 58 318.5t166 197t241 66.5q198 0 319 -98.5t121 -272.5q0 -121 -57.5 -210t-163.5 -124q147 -38 221 -129t74 -235t-57.5 -246t-165.5 -155.5t-242 -53.5q-135 0 -231 40.5t-154 121.5v-557zM502 715v116h47q176 0 264 71.5t88 215.5
q0 123 -90.5 188.5t-218.5 65.5q-157 0 -246.5 -117.5t-89.5 -343.5v-419q0 -194 98 -298t279 -104q170 0 255 80t85 240q0 152 -105.5 228.5t-316.5 76.5h-49z" />
    <glyph glyph-name="gamma" unicode="&#x3b3;" horiz-adv-x="1034" 
d="M477 -426v430l-321 877q-18 51 -68 51h-47v108q36 13 80 13q70 0 107.5 -33.5t66.5 -114.5l256 -723h6l326 840h141l-418 -1022v-426h-129z" />
    <glyph glyph-name="delta" unicode="&#x3b4;" horiz-adv-x="1155" 
d="M504 1350q251 -105 410 -334t159 -506q0 -255 -145 -398t-355 -143q-209 0 -354 141.5t-145 395.5q0 168 64 291.5t181 189.5t259 66q93 0 170 -31l2 6q-89 107 -223 189.5t-312 140.5v117h725v-117h-436v-8zM207 502q0 -204 105.5 -308t260.5 -104q158 0 262.5 105.5
t104.5 314.5q0 136 -46 231t-130.5 143t-185.5 48q-158 0 -264.5 -108t-106.5 -322z" />
    <glyph glyph-name="epsilon" unicode="&#x3b5;" horiz-adv-x="946" 
d="M764 307h129q-20 -154 -136.5 -246t-285.5 -92q-183 0 -294 91t-111 245q0 170 172 254q-140 71 -140 213q0 125 107.5 202t269.5 77q157 0 262.5 -75t132.5 -212h-131q-23 84 -88.5 126t-173.5 42q-112 0 -179 -42.5t-67 -117.5q0 -76 57 -118t167 -42h139v-116h-139
q-120 0 -188 -51t-68 -140q0 -111 76.5 -163t193.5 -52q120 0 198 58t97 159z" />
    <glyph glyph-name="zeta" unicode="&#x3b6;" horiz-adv-x="874" 
d="M766 -238l2 84q0 88 -54 113t-192 35q-247 17 -343.5 122t-96.5 333q0 260 170 513t412 396h-531v117h725v-101q-297 -163 -470 -408t-173 -517q0 -172 58.5 -245.5t265.5 -92.5q123 -12 189.5 -28.5t106 -62.5t39.5 -139q0 -55 -12 -119h-96z" />
    <glyph glyph-name="eta" unicode="&#x3b7;" horiz-adv-x="1063" 
d="M139 0v795q0 80 -17 103.5t-63 23.5h-18v94q36 12 72 12q123 0 143 -125h10q106 150 322 150q176 0 269 -104t93 -304v-1071h-129v1055q0 176 -65.5 239.5t-192.5 63.5q-141 0 -218 -84t-77 -246v-602h-129z" />
    <glyph glyph-name="theta" unicode="&#x3b8;" horiz-adv-x="1153" 
d="M1059 733q0 -332 -132.5 -548t-363.5 -216q-235 0 -352 187t-117 561q0 336 133 556t365 220q227 0 347 -199t120 -561zM922 809q-8 293 -90 428t-242 135t-252 -144.5t-109 -418.5h693zM227 692q0 -320 85 -461t253 -141q167 0 259.5 160.5t97.5 441.5h-695z" />
    <glyph glyph-name="iota" unicode="&#x3b9;" horiz-adv-x="442" 
d="M131 186v836h129v-795q0 -83 11 -110t57 -27l63 2v-106q-43 -17 -96 -17q-85 0 -124.5 49t-39.5 168z" />
    <glyph glyph-name="kappa" unicode="&#x3ba;" horiz-adv-x="1016" 
d="M498 610l506 -610h-170l-428 518l-140 -139v-379h-129v1022h129v-473l475 473h174z" />
    <glyph glyph-name="lambda" unicode="&#x3bb;" horiz-adv-x="1036" 
d="M862 0l-313 856h-8l-363 -856h-143l446 1022q-82 222 -101.5 263.5t-55 63t-97.5 21.5q-35 0 -69 -6v119q35 10 90 10q108 0 174 -60.5t121 -207.5l456 -1225h-137z" />
    <glyph glyph-name="mu" unicode="&#x3bc;" horiz-adv-x="1157" 
d="M266 1022v-604q0 -164 70.5 -246t212.5 -82q137 0 216 89t79 257v586h129v-770q0 -77 20 -110t74 -33q25 0 39 2v-107q-14 -16 -80 -16q-68 0 -112 35.5t-52 101.5h-10q-58 -78 -135.5 -117t-173.5 -39q-92 0 -157.5 28t-104.5 85h-15v-508h-129v1448h129z" />
    <glyph glyph-name="nu" unicode="&#x3bd;" horiz-adv-x="1034" 
d="M606 0h-129l-321 881q-18 51 -68 51h-47v108q36 13 80 13q70 0 107.5 -33.5t66.5 -114.5l256 -723h6l326 840h141z" />
    <glyph glyph-name="xi" unicode="&#x3be;" horiz-adv-x="877" 
d="M864 -238h-96l2 84q0 76 -39 100t-172 34q-264 19 -374.5 116t-110.5 287q0 137 82.5 241t234.5 150q-239 94 -239 318q0 95 53 167t145 101h-237v117h751v-117h-170q-196 0 -302.5 -68t-106.5 -194q0 -135 88.5 -202t265.5 -67h137v-116h-143q-204 0 -315 -84.5
t-111 -247.5q0 -151 88 -208.5t287 -74.5q105 -9 163 -23.5t95 -59t37 -134.5q0 -55 -13 -119z" />
    <glyph glyph-name="omicron" unicode="&#x3bf;" horiz-adv-x="1147" 
d="M573 1053q210 0 355 -143.5t145 -399.5q0 -255 -145 -398t-355 -143q-209 0 -354 143t-145 398q0 168 65 290.5t182.5 187.5t251.5 65zM573 90q158 0 262.5 105.5t104.5 314.5q0 139 -47.5 234t-134 141.5t-185.5 46.5q-157 0 -261.5 -106t-104.5 -316
q0 -209 104.5 -314.5t261.5 -105.5z" />
    <glyph glyph-name="pi" unicode="&#x3c0;" horiz-adv-x="1171" 
d="M928 905v-659q0 -74 18.5 -103.5t93.5 -29.5h25t22 2v-113q-10 -4 -37.5 -10t-58.5 -6q-114 0 -156 62.5t-42 178.5v678h-426v-905h-136v905h-221v117h1141v-117h-223z" />
    <glyph glyph-name="rho" unicode="&#x3c1;" horiz-adv-x="1149" 
d="M594 932q-78 -2 -143.5 -27.5t-112.5 -78t-73.5 -132.5t-26.5 -186q0 -213 91 -315.5t265 -102.5q76 0 139.5 25.5t109.5 78t72.5 131t26.5 187.5q0 106 -26.5 186t-72.5 131.5t-109.5 77t-139.5 25.5zM594 1053q104 0 192 -37t153 -106.5t100.5 -170t35.5 -229.5
q0 -127 -35.5 -227.5t-99 -170t-152 -106.5t-192.5 -37q-100 0 -194.5 37t-163.5 133v-565h-129v932q0 129 36.5 230.5t101 172t153.5 107.5t194 37z" />
    <glyph glyph-name="sigma1" unicode="&#x3c2;" horiz-adv-x="1018" 
d="M928 760h-137q-21 86 -83 129t-165 43q-167 0 -261 -109t-94 -309q0 -164 88 -263.5t298 -133.5q114 -18 179 -37.5t108.5 -66t43.5 -132.5q0 -55 -12 -119h-96l2 72q0 71 -45 108t-211 60q-244 33 -366 161t-122 351q0 253 134.5 396t345.5 143q170 0 268 -73.5
t125 -219.5z" />
    <glyph glyph-name="sigma" unicode="&#x3c3;" horiz-adv-x="1096" 
d="M1081 905h-233q190 -124 190 -399q0 -254 -135.5 -395.5t-345.5 -141.5q-211 0 -347 135.5t-136 382.5q0 255 141.5 395t364.5 140h501v-117zM207 504q0 -205 94.5 -309.5t255.5 -104.5q164 0 256 111.5t92 322.5q0 184 -96 280.5t-246 96.5q-159 0 -257.5 -100
t-98.5 -297z" />
    <glyph glyph-name="tau" unicode="&#x3c4;" horiz-adv-x="793" 
d="M772 905h-330v-661q0 -82 17.5 -110t85.5 -28l65 3v-113q-50 -10 -100 -10q-103 0 -150 50t-47 179v690h-303v117h762v-117z" />
    <glyph glyph-name="upsilon" unicode="&#x3c5;" horiz-adv-x="1090" 
d="M963 1022v-623q0 -216 -109.5 -323t-308.5 -107q-204 0 -311 109.5t-107 320.5v623h129v-614q0 -176 76.5 -247t212.5 -71q150 0 219.5 78.5t69.5 239.5v614h129z" />
    <glyph glyph-name="phi" unicode="&#x3c6;" horiz-adv-x="1321" 
d="M596 1051v424h129v-424q230 -8 382.5 -153t152.5 -382q0 -238 -153 -387.5t-382 -159.5v-395h-129v395q-229 10 -382 159.5t-153 387.5q0 237 152.5 382t382.5 153zM725 82q181 10 291 122t110 310q0 196 -108 305t-293 119v-856zM596 938q-185 -10 -293 -119t-108 -305
q0 -198 109.5 -310t291.5 -122v856z" />
    <glyph glyph-name="chi" unicode="&#x3c7;" horiz-adv-x="1085" 
d="M88 1026q26 12 68 12q84 0 129 -81l288 -506l353 571h159l-438 -698l357 -624.5t55 -27.5h26v-100q-25 -12 -67 -12q-37 0 -63 12.5t-43.5 33.5t-63.5 101l-293 510l-395 -643h-160l483 770l-200 352q-110 193 -118 205.5t-19.5 18.5t-30.5 6h-27v100z" />
    <glyph glyph-name="psi" unicode="&#x3c8;" horiz-adv-x="1313" 
d="M721 -31v-395h-129v395q-210 0 -337.5 106.5t-127.5 297.5v649h129v-653q0 -145 84 -219t252 -76v1401h129v-1401q168 1 252 74.5t84 220.5v653h129v-649q0 -191 -127.5 -297.5t-337.5 -106.5z" />
    <glyph glyph-name="omega" unicode="&#x3c9;" horiz-adv-x="1485" 
d="M743 170q-48 -101 -126 -151t-185 -50q-169 0 -257.5 127t-88.5 371q0 156 53.5 303t149.5 252h143q-119 -150 -166 -276t-47 -269q0 -203 57.5 -295t174.5 -92q113 0 170 84.5t57 253.5v303h129v-303q0 -169 56.5 -253.5t170.5 -84.5q120 0 176 95t56 292q0 143 -47 269
t-166 276h143q96 -105 149.5 -252t53.5 -303q0 -244 -89 -371t-257 -127q-110 0 -187.5 50t-122.5 151z" />
    <glyph glyph-name="iotadieresis" unicode="&#x3ca;" horiz-adv-x="442" 
d="M131 186v836h129v-795q0 -83 11 -110t57 -27l63 2v-106q-43 -17 -96 -17q-85 0 -124.5 49t-39.5 168zM3 1272q-40 0 -69.5 29t-29.5 69t29.5 69t69.5 29q39 0 68.5 -29t29.5 -69t-29.5 -69t-68.5 -29zM429 1272q-40 0 -69.5 29t-29.5 69t29.5 69t69.5 29q39 0 68.5 -29
t29.5 -69t-29.5 -69t-68.5 -29z" />
    <glyph glyph-name="upsilondieresis" unicode="&#x3cb;" horiz-adv-x="1090" 
d="M963 1022v-623q0 -216 -109.5 -323t-308.5 -107q-204 0 -311 109.5t-107 320.5v623h129v-614q0 -176 76.5 -247t212.5 -71q150 0 219.5 78.5t69.5 239.5v614h129zM341 1272q-40 0 -69.5 29t-29.5 69t29.5 69t69.5 29q39 0 68.5 -29t29.5 -69t-29.5 -69t-68.5 -29z
M767 1272q-40 0 -69.5 29t-29.5 69t29.5 69t69.5 29q39 0 68.5 -29t29.5 -69t-29.5 -69t-68.5 -29z" />
    <glyph glyph-name="omicrontonos" unicode="&#x3cc;" horiz-adv-x="1147" 
d="M573 1053q210 0 355 -143.5t145 -399.5q0 -255 -145 -398t-355 -143q-209 0 -354 143t-145 398q0 168 65 290.5t182.5 187.5t251.5 65zM573 90q158 0 262.5 105.5t104.5 314.5q0 139 -47.5 234t-134 141.5t-185.5 46.5q-157 0 -261.5 -106t-104.5 -316
q0 -209 104.5 -314.5t261.5 -105.5zM610 1182h-106l98 385h146z" />
    <glyph glyph-name="upsilontonos" unicode="&#x3cd;" horiz-adv-x="1090" 
d="M963 1022v-623q0 -216 -109.5 -323t-308.5 -107q-204 0 -311 109.5t-107 320.5v623h129v-614q0 -176 76.5 -247t212.5 -71q150 0 219.5 78.5t69.5 239.5v614h129zM607 1182h-106l98 385h146z" />
    <glyph glyph-name="omegatonos" unicode="&#x3ce;" horiz-adv-x="1485" 
d="M743 170q-48 -101 -126 -151t-185 -50q-169 0 -257.5 127t-88.5 371q0 156 53.5 303t149.5 252h143q-119 -150 -166 -276t-47 -269q0 -203 57.5 -295t174.5 -92q113 0 170 84.5t57 253.5v303h129v-303q0 -169 56.5 -253.5t170.5 -84.5q120 0 176 95t56 292q0 143 -47 269
t-166 276h143q96 -105 149.5 -252t53.5 -303q0 -244 -89 -371t-257 -127q-110 0 -187.5 50t-122.5 151zM794 1182h-106l98 385h146z" />
    <glyph glyph-name="afii00208" unicode="&#x2015;" horiz-adv-x="1221" 
d="M63 573v101h1082v-101h-1082z" />
    <glyph glyph-name="afii10023" unicode="&#x401;" horiz-adv-x="1157" 
d="M1049 0h-912v1475h893v-121h-758v-537h721v-121h-721v-575h777v-121zM378 1632q-40 0 -69.5 29t-29.5 69t29.5 69t69.5 29q39 0 68.5 -29t29.5 -69t-29.5 -69t-68.5 -29zM804 1632q-40 0 -69.5 29t-29.5 69t29.5 69t69.5 29q39 0 68.5 -29t29.5 -69t-29.5 -69t-68.5 -29z
" />
    <glyph glyph-name="afii10051" unicode="&#x402;" horiz-adv-x="1712" 
d="M700 827q228 41 406 41q261 0 384.5 -103t123.5 -345q0 -218 -143 -334.5t-402 -116.5q-76 0 -119 6v123l115 -2q203 0 306.5 71.5t103.5 252.5q0 106 -24.5 174.5t-107 111t-247.5 42.5q-199 0 -396 -37v-711h-135v1354h-520v121h1174v-121h-519v-527z" />
    <glyph glyph-name="afii10052" unicode="&#x403;" horiz-adv-x="1042" 
d="M272 1356v-1356h-135v1475h860v-119h-725zM629 1573h-146l242 295h162z" />
    <glyph glyph-name="afii10053" unicode="&#x404;" horiz-adv-x="1360" 
d="M1167 1081q-31 134 -150 218.5t-280 84.5q-222 0 -350 -147.5t-147 -419.5h735v-121h-737q11 -290 139.5 -448t359.5 -158q161 0 280 85t150 218h136q-41 -194 -197.5 -309t-368.5 -115q-298 0 -469.5 210t-171.5 558t171.5 558t469.5 210q214 0 369.5 -113.5
t196.5 -310.5h-136z" />
    <glyph glyph-name="afii10054" unicode="&#x405;" horiz-adv-x="1167" 
d="M37 426h139q18 -168 117 -252t278 -84q175 0 282.5 83t107.5 235q0 129 -80.5 191t-300.5 114q-289 67 -391.5 166t-102.5 249q0 173 142.5 275t340.5 102q217 0 350.5 -104.5t155.5 -310.5h-139q-12 145 -110 218.5t-257 73.5q-142 0 -243 -66t-101 -188q0 -113 77 -176
t319 -116q279 -63 380 -167.5t101 -260.5q0 -195 -151 -317t-380 -122q-220 0 -368.5 120.5t-165.5 336.5z" />
    <glyph glyph-name="afii10055" unicode="&#x406;" horiz-adv-x="412" 
d="M272 0h-135v1475h135v-1475z" />
    <glyph glyph-name="afii10056" unicode="&#x407;" horiz-adv-x="412" 
d="M272 0h-135v1475h135v-1475zM-3 1632q-40 0 -69.5 29t-29.5 69t29.5 69t69.5 29q39 0 68.5 -29t29.5 -69t-29.5 -69t-68.5 -29zM423 1632q-40 0 -69.5 29t-29.5 69t29.5 69t69.5 29q39 0 68.5 -29t29.5 -69t-29.5 -69t-68.5 -29z" />
    <glyph glyph-name="afii10057" unicode="&#x408;" horiz-adv-x="977" 
d="M702 1475h136v-1080q0 -198 -102 -312t-304 -114q-152 0 -262.5 94.5t-134.5 253.5h135q18 -107 88 -167t176 -60q134 0 201 76t67 229v1080z" />
    <glyph glyph-name="afii10058" unicode="&#x409;" horiz-adv-x="2288" 
d="M1303 854h378q251 0 395 -108.5t144 -317.5q0 -210 -140 -319t-399 -109h-514v1354h-684v-322q0 -338 -18 -502t-93.5 -295.5t-250.5 -265.5l-86 113q152 115 216 224.5t80.5 264.5t16.5 492v412h955v-621zM1303 121h378q204 0 301 73.5t97 233.5q0 152 -93 228.5
t-305 76.5h-378v-612z" />
    <glyph glyph-name="afii10059" unicode="&#x40a;" horiz-adv-x="2191" 
d="M1585 0h-514v696h-799v-696h-135v1475h135v-658h799v658h135v-621h379q251 0 395 -108.5t144 -317.5q0 -210 -140.5 -319t-398.5 -109zM1206 121h379q203 0 300 73.5t97 233.5q0 158 -97 231.5t-300 73.5h-379v-612z" />
    <glyph glyph-name="afii10060" unicode="&#x40b;" horiz-adv-x="1722" 
d="M1599 0h-135v424q0 114 -25 180.5t-108 105t-252 38.5q-176 0 -379 -37v-711h-135v1354h-520v121h1174v-121h-519v-527q219 41 404 41q256 0 375.5 -99t119.5 -343v-426z" />
    <glyph glyph-name="afii10061" unicode="&#x40c;" horiz-adv-x="1178" 
d="M555 823l635 -823h-166l-553 727l-199 -231v-496h-135v1475h135v-801l684 801h158zM633 1573h-146l242 295h162z" />
    <glyph glyph-name="afii10062" unicode="&#x40e;" horiz-adv-x="1225" 
d="M57 111q97 -19 203 -19q83 0 133 20t81 66.5t99 204.5l-542 1092h157l453 -936l412 936h141l-547 -1246q-63 -145 -148.5 -202.5t-238.5 -57.5q-128 0 -203 27v115zM469 1800q25 -139 170 -139t170 139h121q-17 -120 -94 -185t-197 -65q-121 0 -197.5 65.5t-91.5 184.5
h119z" />
    <glyph glyph-name="afii10145" unicode="&#x40f;" horiz-adv-x="1372" 
d="M137 1475h135v-1354h826v1354h135v-1475h-477v-260h-135v260h-484v1475z" />
    <glyph glyph-name="afii10017" unicode="&#x410;" horiz-adv-x="1368" 
d="M1352 0h-144l-196 516h-662l-196 -516h-140l578 1475h182zM963 635l-277 719h-8l-281 -719h566z" />
    <glyph glyph-name="afii10018" unicode="&#x411;" horiz-adv-x="1257" 
d="M272 854h379q251 0 395 -108.5t144 -317.5q0 -210 -140 -319t-399 -109h-514v1475h895v-121h-760v-500zM272 121h379q203 0 300.5 73.5t97.5 233.5q0 158 -97.5 231.5t-300.5 73.5h-379v-612z" />
    <glyph glyph-name="afii10019" unicode="&#x412;" horiz-adv-x="1257" 
d="M137 1475h508q237 0 366.5 -94t129.5 -271q0 -122 -59 -206t-177 -130q142 -36 213.5 -122t71.5 -222q0 -208 -147.5 -319t-399.5 -111h-506v1475zM272 1356v-531h373q177 0 265.5 70.5t88.5 212.5q0 124 -88.5 186t-265.5 62h-373zM645 121q202 0 303 77t101 232
q0 139 -101 209t-303 70h-373v-588h373z" />
    <glyph glyph-name="afii10020" unicode="&#x413;" horiz-adv-x="1042" 
d="M272 1356v-1356h-135v1475h860v-119h-725z" />
    <glyph glyph-name="afii10021" unicode="&#x414;" horiz-adv-x="1550" 
d="M35 -293v414h129q132 134 191 254.5t75 264t16 417.5v418h861v-1354h206v-414h-135v293h-1208v-293h-135zM582 1026q0 -362 -43.5 -543.5t-194.5 -361.5h827v1233h-589v-328z" />
    <glyph glyph-name="afii10022" unicode="&#x415;" horiz-adv-x="1157" 
d="M1049 0h-912v1475h893v-121h-758v-537h721v-121h-721v-575h777v-121z" />
    <glyph glyph-name="afii10024" unicode="&#x416;" horiz-adv-x="1827" 
d="M1249 829l582 -829h-158l-504 727l-188 -238v-489h-135v489l-193 238l-499 -727h-160l581 829l-507 646h155l623 -803v803h135v-803l623 803h155z" />
    <glyph glyph-name="afii10025" unicode="&#x417;" horiz-adv-x="1180" 
d="M834 784q123 -54 185 -145t62 -219q0 -203 -136.5 -327t-340.5 -124q-232 0 -369 125t-143 355h139q7 -180 100 -269.5t273 -89.5q160 0 248 85t88 245q0 146 -92 222.5t-270 76.5h-103v121h100q156 0 234 68.5t78 205.5q0 128 -75.5 199t-207.5 71q-149 0 -233 -77.5
t-113 -243.5h-139q28 213 158.5 327.5t326.5 114.5q190 0 307 -107.5t117 -283.5q0 -102 -53 -192.5t-141 -137.5z" />
    <glyph glyph-name="afii10026" unicode="&#x418;" horiz-adv-x="1372" 
d="M1104 0v1302l-803 -1302h-164v1475h129v-1284l793 1284h174v-1475h-129z" />
    <glyph glyph-name="afii10027" unicode="&#x419;" horiz-adv-x="1372" 
d="M1104 0v1302l-803 -1302h-164v1475h129v-1284l793 1284h174v-1475h-129zM514 1859q25 -139 170 -139t170 139h121q-17 -120 -94 -185t-197 -65q-121 0 -197.5 65.5t-91.5 184.5h119z" />
    <glyph glyph-name="afii10028" unicode="&#x41a;" horiz-adv-x="1178" 
d="M555 823l635 -823h-166l-553 727l-199 -231v-496h-135v1475h135v-801l684 801h158z" />
    <glyph glyph-name="afii10029" unicode="&#x41b;" horiz-adv-x="1446" 
d="M59 -31l-86 113q152 115 216.5 224.5t81 264.5t16.5 492v412h1020v-1475h-136v1354h-749v-322q0 -338 -18.5 -502t-94 -295.5t-250.5 -265.5z" />
    <glyph glyph-name="afii10030" unicode="&#x41c;" horiz-adv-x="1630" 
d="M897 0h-162l-461 1319h-8v-1319h-129v1475h219l465 -1336l465 1336h213v-1475h-129v1319h-8z" />
    <glyph glyph-name="afii10031" unicode="&#x41d;" horiz-adv-x="1372" 
d="M272 0h-135v1475h135v-658h826v658h135v-1475h-135v696h-826v-696z" />
    <glyph glyph-name="afii10032" unicode="&#x41e;" horiz-adv-x="1475" 
d="M1376 737q0 -348 -170.5 -558t-468.5 -210t-469.5 210t-171.5 558t171.5 558t469.5 210t468.5 -210t170.5 -558zM1235 737q0 296 -127.5 471.5t-370.5 175.5t-371 -175t-128 -472q0 -296 128 -471.5t371 -175.5t370.5 175.5t127.5 471.5z" />
    <glyph glyph-name="afii10033" unicode="&#x41f;" horiz-adv-x="1372" 
d="M272 0h-135v1475h1096v-1475h-135v1354h-826v-1354z" />
    <glyph glyph-name="afii10034" unicode="&#x420;" horiz-adv-x="1221" 
d="M639 655h-367v-655h-135v1475h502q247 0 380.5 -107t133.5 -303t-133.5 -303t-380.5 -107zM272 776h367q186 0 279.5 72t93.5 217q0 144 -93.5 216.5t-279.5 72.5h-367v-578z" />
    <glyph glyph-name="afii10035" unicode="&#x421;" horiz-adv-x="1360" 
d="M1167 1081q-31 134 -150 218.5t-280 84.5q-243 0 -371 -175t-128 -472q0 -296 128 -471.5t371 -175.5q161 0 280 85t150 218h136q-41 -194 -197.5 -309t-368.5 -115q-298 0 -469.5 210t-171.5 558t171.5 558t469.5 210q214 0 369.5 -113.5t196.5 -310.5h-136z" />
    <glyph glyph-name="afii10036" unicode="&#x422;" horiz-adv-x="1266" 
d="M45 1475h1174v-121h-519v-1354h-135v1354h-520v121z" />
    <glyph glyph-name="afii10037" unicode="&#x423;" horiz-adv-x="1225" 
d="M57 111q97 -19 203 -19q83 0 133 20t81 66.5t99 204.5l-542 1092h157l453 -936l412 936h141l-547 -1246q-63 -145 -148.5 -202.5t-238.5 -57.5q-128 0 -203 27v115z" />
    <glyph glyph-name="afii10038" unicode="&#x424;" horiz-adv-x="1499" 
d="M682 -10v186q-277 9 -443.5 165.5t-166.5 401.5q0 246 166.5 402.5t443.5 165.5v180h135v-180q278 -9 444 -165.5t166 -402.5q0 -245 -166 -401.5t-444 -165.5v-186h-135zM817 1198v-909q224 9 346.5 131t122.5 323q0 202 -122.5 324t-346.5 131zM682 289v909
q-224 -9 -346.5 -131t-122.5 -324q0 -201 122.5 -323t346.5 -131zM516 1475z" />
    <glyph glyph-name="afii10039" unicode="&#x425;" horiz-adv-x="1278" 
d="M631 883l397 592h152l-473 -705l514 -770h-154l-434 653l-428 -653h-150l504 762l-473 713h154z" />
    <glyph glyph-name="afii10040" unicode="&#x426;" horiz-adv-x="1417" 
d="M137 1475h135v-1354h764v1354h135v-1354h205v-414h-137v293h-1102v1475z" />
    <glyph glyph-name="afii10041" unicode="&#x427;" horiz-adv-x="1274" 
d="M96 1475h135v-422q0 -110 27 -178t113 -108t256 -40q180 0 372 29v719h136v-1475h-136v641q-204 -35 -385 -35q-272 0 -395 105.5t-123 341.5v422z" />
    <glyph glyph-name="afii10042" unicode="&#x428;" horiz-adv-x="1642" 
d="M272 1475v-1354h480v1354h135v-1354h481v1354h135v-1475h-1366v1475h135z" />
    <glyph glyph-name="afii10043" unicode="&#x429;" horiz-adv-x="1751" 
d="M1503 121h207v-414h-137v293h-1436v1475h135v-1354h480v1354h135v-1354h481v1354h135v-1354zM1642 0z" />
    <glyph glyph-name="afii10044" unicode="&#x42a;" horiz-adv-x="1393" 
d="M-41 1475h449v-621h378q251 0 395 -108.5t144 -317.5q0 -200 -134 -314t-405 -114h-514v1354h-313v121zM408 121h378q204 0 301 73.5t97 233.5q0 158 -97.5 231.5t-300.5 73.5h-378v-612z" />
    <glyph glyph-name="afii10045" unicode="&#x42b;" horiz-adv-x="1651" 
d="M272 1475v-621h379q251 0 395 -108.5t144 -317.5q0 -210 -140 -319t-399 -109h-514v1475h135zM272 733v-612h379q203 0 300.5 73.5t97.5 233.5q0 158 -97.5 231.5t-300.5 73.5h-379zM1376 0v1475h135v-1475h-135z" />
    <glyph glyph-name="afii10046" unicode="&#x42c;" horiz-adv-x="1257" 
d="M272 1475v-621h379q251 0 395 -108.5t144 -317.5q0 -210 -140 -319t-399 -109h-514v1475h135zM272 733v-612h379q203 0 300.5 73.5t97.5 233.5q0 158 -97.5 231.5t-300.5 73.5h-379z" />
    <glyph glyph-name="afii10047" unicode="&#x42d;" horiz-adv-x="1360" 
d="M383 696v121h733q-19 273 -146.5 420t-348.5 147q-161 0 -280.5 -84.5t-150.5 -218.5h-135q40 197 196 310.5t370 113.5q298 0 469.5 -210t171.5 -558t-171.5 -558t-469.5 -210q-212 0 -368.5 115t-197.5 309h135q31 -133 150.5 -218t280.5 -85q230 0 358.5 159
t138.5 447h-735z" />
    <glyph glyph-name="afii10048" unicode="&#x42e;" horiz-adv-x="2001" 
d="M137 0v1475h135v-658h353q24 325 194 506.5t445 181.5q297 0 468 -210t171 -558q0 -339 -167 -553.5t-472 -214.5q-285 0 -456 192.5t-185 534.5h-351v-696h-135zM764 737q0 -296 128 -471.5t372 -175.5q242 0 369.5 175.5t127.5 471.5t-127.5 471.5t-369.5 175.5
q-244 0 -372 -175t-128 -472z" />
    <glyph glyph-name="afii10049" unicode="&#x42f;" horiz-adv-x="1217" 
d="M1077 1475v-1475h-135v655h-326l-417 -655h-160l422 662q-196 25 -298 129t-102 274q0 196 133.5 303t380.5 107h502zM575 1354q-186 0 -279 -72.5t-93 -216.5q0 -145 93 -217t279 -72h367v578h-367z" />
    <glyph glyph-name="afii10065" unicode="&#x430;" horiz-adv-x="1024" 
d="M242 762h-131q31 147 138.5 219t260.5 72q178 0 279.5 -102.5t101.5 -268.5v-514q0 -113 22 -168h-133q-22 59 -22 119q-126 -150 -324 -150q-160 0 -253 78t-93 223q0 177 168 271t506 123v18q0 120 -63.5 185t-186.5 65q-112 0 -179.5 -42.5t-90.5 -127.5zM762 563
q-281 -35 -411 -104.5t-130 -188.5q0 -86 60 -134t153 -48q150 0 239 84.5t89 237.5v153z" />
    <glyph glyph-name="afii10066" unicode="&#x431;" horiz-adv-x="1155" 
d="M233 918q144 135 349 135q209 0 354 -143.5t145 -399.5q0 -255 -145 -398t-354 -143q-210 0 -355 143t-145 398q0 172 10 291t39.5 214.5t87.5 166.5t145 113.5t210 70.5l223 49q96 20 123 60h151q-18 -76 -82 -121t-190 -73l-199 -44q-176 -38 -263 -112t-104 -207z
M582 90q157 0 261.5 105.5t104.5 314.5q0 139 -47.5 234t-134 141.5t-184.5 46.5q-158 0 -262.5 -106t-104.5 -316q0 -209 104.5 -314.5t262.5 -105.5z" />
    <glyph glyph-name="afii10067" unicode="&#x432;" horiz-adv-x="1069" 
d="M137 1022h455q177 0 265.5 -67t88.5 -201q0 -67 -37 -124.5t-100 -84.5q182 -58 182 -232q0 -162 -109.5 -237.5t-275.5 -75.5h-469v1022zM266 905v-315h338q104 0 156.5 41.5t52.5 124.5q0 81 -59 115t-191 34h-297zM582 117q160 0 218 46.5t58 143.5q0 84 -58 125
t-196 41h-338v-356h316z" />
    <glyph glyph-name="afii10068" unicode="&#x433;" horiz-adv-x="821" 
d="M784 1022v-117h-518v-905h-129v1022h647z" />
    <glyph glyph-name="afii10069" unicode="&#x434;" horiz-adv-x="1255" 
d="M1219 -276h-129v276h-926v-276h-129v393h121q107 134 147.5 259.5t40.5 356.5v289h670v-905h205v-393zM885 117v788h-412v-186q0 -403 -160 -602h572z" />
    <glyph glyph-name="afii10070" unicode="&#x435;" horiz-adv-x="1110" 
d="M887 285h139q-60 -154 -181 -235t-270 -81q-211 0 -356 144t-145 399q0 164 64.5 286.5t181 188.5t251.5 66q207 0 336 -138.5t129 -392.5q0 -46 -4 -73h-821q13 -182 118 -270.5t242 -88.5q110 0 189 48.5t127 146.5zM209 565h696q-7 177 -100.5 272t-233.5 95
q-142 0 -244.5 -90.5t-117.5 -276.5z" />
    <glyph glyph-name="afii10072" unicode="&#x436;" horiz-adv-x="1491" 
d="M1038 623l457 -623h-158l-383 524l-143 -157v-367h-129v367l-150 157l-378 -524h-158l455 623l-363 399h164l430 -481v481h129v-481l428 481h164z" />
    <glyph glyph-name="afii10073" unicode="&#x437;" horiz-adv-x="924" 
d="M90 745q23 147 125.5 226.5t261.5 79.5q161 0 256.5 -74t95.5 -199q0 -76 -30.5 -133.5t-91.5 -95.5q83 -38 125 -99t42 -145q0 -158 -108.5 -247t-296.5 -89q-173 0 -287.5 98.5t-126.5 262.5h129q12 -111 88.5 -175.5t198.5 -64.5q135 0 202.5 53.5t67.5 161.5
q0 90 -67 135t-201 45h-147v117h149q110 0 165.5 43.5t55.5 130.5q0 78 -56.5 117t-168.5 39q-110 0 -173 -47t-79 -140h-129z" />
    <glyph glyph-name="afii10074" unicode="&#x438;" horiz-adv-x="1112" 
d="M137 1022h129v-819l578 819h129v-1022h-129v819l-578 -819h-129v1022z" />
    <glyph glyph-name="afii10075" unicode="&#x439;" horiz-adv-x="1112" 
d="M137 1022h129v-819l578 819h129v-1022h-129v819l-578 -819h-129v1022zM388 1452q25 -139 170 -139t170 139h121q-17 -120 -94 -185t-197 -65q-121 0 -197.5 65.5t-91.5 184.5h119z" />
    <glyph glyph-name="afii10076" unicode="&#x43a;" horiz-adv-x="999" 
d="M498 610l506 -610h-170l-428 518l-140 -139v-379h-129v1022h129v-473l475 473h174z" />
    <glyph glyph-name="afii10077" unicode="&#x43b;" horiz-adv-x="1085" 
d="M956 0h-129v905h-469v-151q0 -227 -14 -347.5t-73 -227t-191 -212.5l-80 101q106 90 152 162t61.5 182t15.5 333v277h727v-1022z" />
    <glyph glyph-name="afii10078" unicode="&#x43c;" horiz-adv-x="1282" 
d="M641 455l373 567h129v-1022h-129v815l-312 -465h-124l-312 465v-815h-129v1022h129z" />
    <glyph glyph-name="afii10079" unicode="&#x43d;" horiz-adv-x="1112" 
d="M973 0h-129v483h-578v-483h-129v1022h129v-422h578v422h129v-1022z" />
    <glyph glyph-name="afii10080" unicode="&#x43e;" horiz-adv-x="1147" 
d="M573 1053q210 0 355 -143.5t145 -399.5q0 -255 -145 -398t-355 -143q-209 0 -354 143t-145 398q0 168 65 290.5t182.5 187.5t251.5 65zM573 90q158 0 262.5 105.5t104.5 314.5q0 139 -47.5 234t-134 141.5t-185.5 46.5q-157 0 -261.5 -106t-104.5 -316
q0 -209 104.5 -314.5t261.5 -105.5z" />
    <glyph glyph-name="afii10081" unicode="&#x43f;" horiz-adv-x="1112" 
d="M973 0h-129v905h-578v-905h-129v1022h836v-1022z" />
    <glyph glyph-name="afii10082" unicode="&#x440;" horiz-adv-x="1178" 
d="M266 885q63 84 152.5 126t206.5 42q214 0 346.5 -147t132.5 -396q0 -247 -132.5 -394t-346.5 -147q-235 0 -359 170v-565h-129v1448h129v-137zM266 508q0 -209 89 -313.5t268 -104.5q162 0 255 110t93 312q0 201 -93 310.5t-255 109.5q-175 0 -266 -100t-91 -293v-31z
" />
    <glyph glyph-name="afii10083" unicode="&#x441;" horiz-adv-x="1055" 
d="M866 731q-42 100 -116.5 150.5t-182.5 50.5q-145 0 -252.5 -105.5t-107.5 -316.5q0 -139 48 -234t133.5 -140.5t178.5 -45.5q108 0 182.5 50t116.5 151h133q-39 -157 -151.5 -239.5t-280.5 -82.5q-205 0 -349 142.5t-144 398.5t146.5 399.5t346.5 143.5
q168 0 280.5 -82.5t151.5 -239.5h-133z" />
    <glyph glyph-name="afii10084" unicode="&#x442;" horiz-adv-x="909" 
d="M35 1022h837v-117h-354v-905h-129v905h-354v117z" />
    <glyph glyph-name="afii10085" unicode="&#x443;" horiz-adv-x="1014" 
d="M543 182l319 840h131l-475 -1229q-60 -155 -127 -202.5t-164 -47.5q-89 0 -153 33v119q79 -33 153 -33t108.5 34.5t59.5 100.5l78 203l-438 1022h145l355 -840h8z" />
    <glyph glyph-name="afii10086" unicode="&#x444;" horiz-adv-x="1862" 
d="M866 1475h129v-596q47 79 137.5 126.5t200.5 47.5q210 0 332.5 -144.5t122.5 -394.5q0 -248 -126.5 -396.5t-328.5 -148.5q-109 0 -200 47t-138 125v-567h-129v567q-47 -78 -137.5 -125t-200.5 -47q-201 0 -327.5 148.5t-126.5 396.5q0 250 122.5 394.5t331.5 144.5
q110 0 201 -47.5t137 -126.5v596zM995 516v-10q0 -198 88.5 -307t251.5 -109q160 0 240 105.5t80 316.5q0 210 -80 315t-240 105q-163 0 -251.5 -109t-88.5 -307zM866 506v10q0 198 -88 307t-252 109q-160 0 -239.5 -105t-79.5 -315q0 -211 79.5 -316.5t239.5 -105.5
q164 0 252 109t88 307z" />
    <glyph glyph-name="afii10087" unicode="&#x445;" horiz-adv-x="989" 
d="M487 420l-288 -420h-156l373 524l-350 498h159l283 -404l278 404h156l-360 -508l362 -514h-160z" />
    <glyph glyph-name="afii10088" unicode="&#x446;" horiz-adv-x="1212" 
d="M973 117h203v-393h-129v276h-910v1022h129v-905h578v905h129v-905zM1110 0z" />
    <glyph glyph-name="afii10089" unicode="&#x447;" horiz-adv-x="1087" 
d="M242 1022v-272q0 -129 58 -175.5t243 -46.5q105 0 276 17v477h129v-1022h-129v432q-182 -24 -293 -24q-225 0 -319 78.5t-94 263.5v272h129z" />
    <glyph glyph-name="afii10090" unicode="&#x448;" horiz-adv-x="1587" 
d="M1448 0h-1311v1022h129v-901h463v901h129v-901h461v901h129v-1022z" />
    <glyph glyph-name="afii10091" unicode="&#x449;" horiz-adv-x="1690" 
d="M1524 0h-1387v1022h129v-901h463v901h129v-901h461v901h129v-901h205v-397h-129v276zM1587 0z" />
    <glyph glyph-name="afii10092" unicode="&#x44a;" horiz-adv-x="1106" 
d="M-6 1022h366v-418h248q218 0 327 -76t109 -227t-109 -226t-327 -75h-377v905h-237v117zM360 487v-370h250q157 0 229 42t72 142q0 101 -72.5 143.5t-228.5 42.5h-250z" />
    <glyph glyph-name="afii10093" unicode="&#x44b;" horiz-adv-x="1378" 
d="M266 1022v-418h248q218 0 327 -76t109 -227t-109 -226t-327 -75h-377v1022h129zM266 487v-370h250q156 0 228.5 42t72.5 142q0 101 -72.5 143.5t-228.5 42.5h-250zM1110 1022h129v-1022h-129v1022z" />
    <glyph glyph-name="afii10094" unicode="&#x44c;" horiz-adv-x="1012" 
d="M266 1022v-418h248q218 0 327 -76t109 -227t-109 -226t-327 -75h-377v1022h129zM266 487v-370h250q156 0 228.5 42t72.5 142q0 101 -72.5 143.5t-228.5 42.5h-250z" />
    <glyph glyph-name="afii10095" unicode="&#x44d;" horiz-adv-x="1075" 
d="M857 449h-454v116h454q-16 189 -121.5 278t-236.5 89q-108 0 -183 -50.5t-116 -150.5h-133q39 157 151.5 239.5t280.5 82.5q200 0 346.5 -143.5t146.5 -399.5t-144 -398.5t-349 -142.5q-168 0 -280.5 82.5t-151.5 239.5h133q41 -101 116 -151t183 -50q135 0 237.5 87
t120.5 272z" />
    <glyph glyph-name="afii10096" unicode="&#x44e;" horiz-adv-x="1626" 
d="M553 469h-285v-469h-129v1022h129v-436h287q24 226 166.5 346.5t331.5 120.5q209 0 354 -143.5t145 -399.5q0 -255 -144.5 -398t-354.5 -143q-196 0 -340.5 129t-159.5 371zM1419 510q0 210 -104 316t-262 106t-262.5 -106t-104.5 -316q0 -209 104.5 -314.5t262.5 -105.5
q157 0 261.5 105.5t104.5 314.5z" />
    <glyph glyph-name="afii10097" unicode="&#x44f;" horiz-adv-x="1014" 
d="M874 1022v-1022h-129v438h-194l-322 -438h-163l327 444q-137 17 -210.5 95t-73.5 192q0 141 103 216t300 75h362zM518 905q-151 0 -213.5 -42.5t-62.5 -131.5t63.5 -132.5t212.5 -43.5h227v350h-227z" />
    <glyph glyph-name="afii10071" unicode="&#x451;" horiz-adv-x="1110" 
d="M887 285h139q-60 -154 -181 -235t-270 -81q-211 0 -356 144t-145 399q0 164 64.5 286.5t181 188.5t251.5 66q207 0 336 -138.5t129 -392.5q0 -46 -4 -73h-821q13 -182 118 -270.5t242 -88.5q110 0 189 48.5t127 146.5zM209 565h696q-7 177 -100.5 272t-233.5 95
q-142 0 -244.5 -90.5t-117.5 -276.5zM355 1272q-40 0 -69.5 29t-29.5 69t29.5 69t69.5 29q39 0 68.5 -29t29.5 -69t-29.5 -69t-68.5 -29zM781 1272q-40 0 -69.5 29t-29.5 69t29.5 69t69.5 29q39 0 68.5 -29t29.5 -69t-29.5 -69t-68.5 -29z" />
    <glyph glyph-name="afii10099" unicode="&#x452;" horiz-adv-x="1106" 
d="M270 895q59 79 144.5 118.5t197.5 39.5q179 0 272 -104t93 -304v-758q0 -213 -60.5 -278.5t-191.5 -65.5q-37 0 -70 4v119l70 -2q60 0 85.5 20t31.5 62t6 141v750q0 150 -60.5 222.5t-193.5 72.5q-145 0 -234.5 -84.5t-89.5 -237.5v-610h-129v1217h-147v116h147v142h129
v-142h381v-116h-381v-322z" />
    <glyph glyph-name="afii10100" unicode="&#x453;" horiz-adv-x="821" 
d="M784 1022v-117h-518v-905h-129v1022h647zM510 1182h-146l242 295h162z" />
    <glyph glyph-name="afii10101" unicode="&#x454;" horiz-adv-x="1075" 
d="M874 291h134q-40 -157 -152.5 -239.5t-280.5 -82.5q-205 0 -349 142.5t-144 398.5q0 168 66 290.5t183.5 187.5t243.5 65q168 0 280.5 -82.5t152.5 -239.5h-134q-41 100 -116 150.5t-183 50.5q-130 0 -236 -89t-122 -278h469v-116h-469q19 -185 121 -272t237 -87
q108 0 183 50t116 151z" />
    <glyph glyph-name="afii10102" unicode="&#x455;" horiz-adv-x="915" 
d="M838 760h-129q-10 86 -70 129t-170 43q-117 0 -182.5 -42.5t-65.5 -117.5q0 -71 48.5 -101t164.5 -60q154 -41 233 -71t134 -91t55 -164q0 -147 -111 -231.5t-278 -84.5q-168 0 -280 84.5t-130 239.5h129q22 -102 92.5 -152.5t188.5 -50.5t187 49t69 137t-58.5 124.5
t-212.5 77.5q-131 36 -199.5 64.5t-116.5 84t-48 145.5q0 131 108 206t273 75q154 0 255 -73.5t114 -219.5z" />
    <glyph glyph-name="afii10103" unicode="&#x456;" horiz-adv-x="420" 
d="M210 1294q-39 0 -68.5 29.5t-29.5 67.5t29.5 67t68.5 29q38 0 67 -29t29 -67q0 -39 -29 -68t-67 -29zM145 0v1022h129v-1022h-129z" />
    <glyph glyph-name="afii10104" unicode="&#x457;" horiz-adv-x="422" 
d="M147 0v1022h129v-1022h-129zM-5 1272q-40 0 -69.5 29t-29.5 69t29.5 69t69.5 29q39 0 68.5 -29t29.5 -69t-29.5 -69t-68.5 -29zM421 1272q-40 0 -69.5 29t-29.5 69t29.5 69t69.5 29q39 0 68.5 -29t29.5 -69t-29.5 -69t-68.5 -29z" />
    <glyph glyph-name="afii10105" unicode="&#x458;" horiz-adv-x="420" 
d="M210 1294q-39 0 -68.5 29.5t-29.5 67.5t29.5 67t68.5 29q38 0 67 -29t29 -67q0 -39 -29 -68t-67 -29zM274 1022v-1135q0 -183 -49.5 -263.5t-201.5 -80.5q-37 0 -70 4v119l70 -2q60 0 85.5 20t31 62t5.5 141v1135h129z" />
    <glyph glyph-name="afii10106" unicode="&#x459;" horiz-adv-x="1696" 
d="M950 604h248q218 0 327 -76t109 -227t-109 -226t-327 -75h-377v905h-469v-151q0 -227 -14 -347.5t-73 -227t-191 -212.5l-80 101q118 98 171.5 200.5t57.5 476.5v277h727v-418zM950 487v-370h250q156 0 228.5 42t72.5 142q0 101 -72.5 143.5t-228.5 42.5h-250z" />
    <glyph glyph-name="afii10107" unicode="&#x45a;" horiz-adv-x="1620" 
d="M874 1022v-418h248q218 0 327.5 -76t109.5 -227t-109.5 -226t-327.5 -75h-377v481h-479v-481h-129v1022h129v-424h479v424h129zM874 487v-370h250q157 0 229 42t72 142q0 101 -72.5 143.5t-228.5 42.5h-250z" />
    <glyph glyph-name="afii10108" unicode="&#x45b;" horiz-adv-x="1106" 
d="M270 895q59 79 144.5 118.5t197.5 39.5q179 0 272 -104t93 -304v-645h-129v637q0 150 -60.5 222.5t-193.5 72.5q-145 0 -234.5 -84.5t-89.5 -237.5v-610h-129v1217h-147v116h147v142h129v-142h381v-116h-381v-322z" />
    <glyph glyph-name="afii10109" unicode="&#x45c;" horiz-adv-x="999" 
d="M498 610l506 -610h-170l-428 518l-140 -139v-379h-129v1022h129v-473l475 473h174zM567 1182h-146l242 295h162z" />
    <glyph glyph-name="afii10110" unicode="&#x45e;" horiz-adv-x="1014" 
d="M543 182l319 840h131l-475 -1229q-60 -155 -127 -202.5t-164 -47.5q-89 0 -153 33v119q79 -33 153 -33t108.5 34.5t59.5 100.5l78 203l-438 1022h145l355 -840h8zM372 1452q25 -139 170 -139t170 139h121q-17 -120 -94 -185t-197 -65q-121 0 -197.5 65.5t-91.5 184.5h119
z" />
    <glyph glyph-name="afii10193" unicode="&#x45f;" horiz-adv-x="1112" 
d="M494 0h-357v1022h129v-905h578v905h129v-1022h-350v-276h-129v276z" />
    <glyph glyph-name="afii10050" unicode="&#x490;" horiz-adv-x="1057" 
d="M272 0h-135v1475h727v272h135v-393h-727v-1354z" />
    <glyph glyph-name="afii10098" unicode="&#x491;" horiz-adv-x="821" 
d="M266 0h-129v1022h518v227h129v-344h-518v-905z" />
    <glyph glyph-name="afii61352" unicode="&#x2116;" horiz-adv-x="2484" 
d="M1233 1475v-1475h-164l-803 1297v-1297h-129v1475h174l793 -1282v1282h129zM2396 946q0 -254 -145 -397t-355 -143q-209 0 -354 143t-145 397q0 256 145 399.5t354 143.5q210 0 355 -143.5t145 -399.5zM2263 946q0 210 -104.5 316t-262.5 106q-157 0 -261.5 -106
t-104.5 -316q0 -209 104.5 -314.5t261.5 -105.5q158 0 262.5 105.5t104.5 314.5zM1417 121h959v-121h-959v121zM1370 0z" />
    <glyph glyph-name="glyph505" horiz-adv-x="1456" 
d="M444 877q-103 37 -161 119t-58 186q0 143 100 233t250 90q125 0 214 -69t98 -191h-135q-11 67 -61 103t-122 36q-95 0 -148.5 -53.5t-53.5 -148.5q0 -112 84 -180.5t223 -73.5v-121q-207 0 -333 -97t-126 -274q0 -154 103 -250t262 -96q182 0 290.5 100.5t108.5 274.5
q0 182 -148 311l72 94q73 -69 170 -69q89 0 133.5 38.5t44.5 116.5q0 50 -37 113l115 68q57 -81 57 -179q0 -123 -78 -201.5t-251 -70.5q59 -109 59 -221q0 -230 -151.5 -363t-384.5 -133q-225 0 -365.5 126t-140.5 339q0 161 97 277.5t273 165.5z" />
    <glyph glyph-name="glyph506" horiz-adv-x="2259" 
d="M467 844q-180 193 -180 362q0 134 90.5 216.5t230.5 82.5q146 0 238 -81t92 -218q0 -105 -64.5 -194t-226.5 -189l389 -463q31 41 99 215l348 900h182l580 -1475h-144l-196 516h-662q-68 -175 -123 -254l215 -256h-161l-132 154q-172 -191 -442 -191q-211 0 -344 108.5
t-133 297.5q0 144 78 254t266 215zM573 911q134 80 180 146.5t46 152.5q0 88 -50.5 134.5t-138.5 46.5q-85 0 -136.5 -50t-51.5 -133q0 -45 20.5 -101t130.5 -196zM1577 1354h-8l-279 -719h565zM963 256l-422 500q-154 -88 -216.5 -175t-62.5 -198q0 -135 94 -213t244 -78
q231 0 363 164z" />
    <glyph glyph-name="glyph507" horiz-adv-x="1675" 
d="M393 987q-157 79 -157 248q0 128 99 199t232 71t221 -67.5t105 -194.5h-129q-16 70 -65.5 105.5t-131.5 35.5q-89 0 -139.5 -38t-50.5 -111q0 -98 65.5 -148.5t196.5 -52.5v-116q-204 0 -314 -98t-110 -283q0 -203 139 -323t359 -120q244 0 375 110.5t131 323.5
q0 145 -59 218t-177 73q-83 0 -132.5 -36t-49.5 -103q0 -95 108 -123v-119q-110 13 -174.5 79.5t-64.5 162.5q0 92 51.5 154t133.5 80.5t226 23.5q131 5 207.5 20t129 69.5t52.5 168.5q0 87 -52 138.5t-140 51.5q-61 0 -100.5 -21t-57.5 -62h-129q21 98 99 150t190 52
q143 0 235.5 -85.5t92.5 -223.5q0 -149 -97.5 -243.5t-275.5 -118.5q125 -129 125 -306q0 -263 -177 -411t-468 -148q-281 0 -461 154.5t-180 413.5q0 165 79.5 277.5t239.5 172.5z" />
    <glyph glyph-name="glyph508" horiz-adv-x="368" 
d="M162 1090h-107l99 385h145z" />
    <glyph glyph-name="uni20A9" unicode="&#x20a9;" horiz-adv-x="1868" 
d="M29 672v116h199l-162 687h139l156 -687h315l168 687h183l165 -687h316l160 687h135l-164 -687h199v-116h-228l-162 -672h-190l-162 672h-330l-167 -672h-187l-158 672h-225zM936 1331h-4l-135 -543h271zM1221 672l129 -539h6l125 539h-260zM388 672l120 -539h7l133 539
h-260z" />
    <glyph glyph-name="afii57636" unicode="&#x20aa;" horiz-adv-x="1597" 
d="M1441 1124v-686q0 -241 -94 -339.5t-403 -98.5h-404v778h131v-659h273q245 0 305.5 70t60.5 249v686h131zM925 346v340q0 183 -63.5 251.5t-304.5 68.5h-271v-1006h-131v1124h402q308 0 403.5 -98t95.5 -340v-340h-131z" />
    <glyph glyph-name="uni0E3F" unicode="&#xe3f;" horiz-adv-x="1257" 
d="M137 1475h410v196h127v-196q216 -6 337 -94q130 -94 130 -271q0 -122 -59 -206t-177 -130q142 -36 213.5 -122t71.5 -222q0 -208 -148 -319q-138 -104 -368 -111v-197h-127v197h-410v1475zM948 198q101 77 101 232q0 139 -101 209q-94 65 -274 70v-588q180 5 274 77z
M272 121h275v588h-275v-588zM272 1356v-531h275v531h-275zM910 895q89 71 89 213q0 124 -89 186q-81 57 -236 61v-530q155 6 236 70z" />
    <glyph glyph-name="uniFEFF" unicode="&#xfeff;" horiz-adv-x="0" 
 />
    <glyph glyph-name="uni20BA" unicode="&#x20ba;" horiz-adv-x="1233" 
d="M954 1155l-460 -168v-84l460 168v-123l-460 -168v-678h43q241 0 369 175.5t128 472.5h142q0 -349 -171 -558.5t-468 -209.5q-91 0 -179 18v731l-282 -102v123l282 102v84l-282 -102v122l282 103v414h136v-365l460 168v-123z" />
    <glyph glyph-name="Ccircumflex" unicode="&#x108;" horiz-adv-x="1360" 
d="M1167 1081q-31 134 -150 218.5t-280 84.5q-243 0 -371 -175t-128 -472q0 -296 128 -471.5t371 -175.5q161 0 280 85t150 218h136q-41 -194 -197.5 -309t-368.5 -115q-298 0 -469.5 210t-171.5 558t171.5 558t469.5 210q214 0 369.5 -113.5t196.5 -310.5h-136zM908 1573
l-205 217l-207 -217h-131l265 295h145l265 -295h-132z" />
    <glyph glyph-name="ccircumflex" unicode="&#x109;" horiz-adv-x="1055" 
d="M866 731q-42 100 -116.5 150.5t-182.5 50.5q-145 0 -252.5 -105.5t-107.5 -316.5q0 -139 48 -234t133.5 -140.5t178.5 -45.5q108 0 182.5 50t116.5 151h133q-39 -157 -151.5 -239.5t-280.5 -82.5q-205 0 -349 142.5t-144 398.5t146.5 399.5t346.5 143.5
q168 0 280.5 -82.5t151.5 -239.5h-133zM345 1182h-151l276 295h146l272 -295h-149l-197 200z" />
    <glyph glyph-name="Cdotaccent" unicode="&#x10a;" horiz-adv-x="1360" 
d="M1167 1081q-31 134 -150 218.5t-280 84.5q-243 0 -371 -175t-128 -472q0 -296 128 -471.5t371 -175.5q161 0 280 85t150 218h136q-41 -194 -197.5 -309t-368.5 -115q-298 0 -469.5 210t-171.5 558t171.5 558t469.5 210q214 0 369.5 -113.5t196.5 -310.5h-136zM716 1594
q-39 0 -69 29t-30 67t30 67t69 29q38 0 67 -29t29 -67t-29 -67t-67 -29z" />
    <glyph glyph-name="cdotaccent" unicode="&#x10b;" horiz-adv-x="1055" 
d="M866 731q-42 100 -116.5 150.5t-182.5 50.5q-145 0 -252.5 -105.5t-107.5 -316.5q0 -139 48 -234t133.5 -140.5t178.5 -45.5q108 0 182.5 50t116.5 151h133q-39 -157 -151.5 -239.5t-280.5 -82.5q-205 0 -349 142.5t-144 398.5t146.5 399.5t346.5 143.5
q168 0 280.5 -82.5t151.5 -239.5h-133zM542 1274q-39 0 -69 29t-30 67t30 67t69 29q38 0 67 -29t29 -67t-29 -67t-67 -29z" />
    <glyph glyph-name="Ebreve" unicode="&#x114;" horiz-adv-x="1157" 
d="M1049 0h-912v1475h893v-121h-758v-537h721v-121h-721v-575h777v-121zM896 1841q-40 -268 -303 -268q-266 0 -303 268h101q28 -174 202 -174t202 174h101z" />
    <glyph glyph-name="ebreve" unicode="&#x115;" horiz-adv-x="1110" 
d="M887 285h139q-60 -154 -181 -235t-270 -81q-211 0 -356 144t-145 399q0 164 64.5 286.5t181 188.5t251.5 66q207 0 336 -138.5t129 -392.5q0 -46 -4 -73h-821q13 -182 118 -270.5t242 -88.5q110 0 189 48.5t127 146.5zM209 565h696q-7 177 -100.5 272t-233.5 95
q-142 0 -244.5 -90.5t-117.5 -276.5zM390 1455q25 -139 170 -139t170 139h121q-17 -120 -94 -185t-197 -65q-121 0 -197.5 65.5t-91.5 184.5h119z" />
    <glyph glyph-name="Gcircumflex" unicode="&#x11c;" horiz-adv-x="1462" 
d="M1337 1044h-139q-49 161 -175.5 250.5t-303.5 89.5q-234 0 -357.5 -177t-123.5 -470t123.5 -470t357.5 -177t364 140t142 384h-387v117h526v-39q0 -342 -165 -532.5t-480 -190.5q-287 0 -455 211.5t-168 556.5q0 338 164 553t459 215q238 0 396.5 -119t221.5 -342z
M926 1573l-205 217l-207 -217h-131l265 295h145l265 -295h-132z" />
    <glyph glyph-name="gcircumflex" unicode="&#x11d;" horiz-adv-x="1094" 
d="M221 127q-98 41 -98 143t106 154q-120 102 -120 266q0 166 119.5 264.5t308.5 98.5q151 0 262 -64q113 82 264 82v-117q-108 -6 -174 -36q74 -94 74 -228q0 -169 -122 -265.5t-304 -96.5q-121 0 -209 39q-72 -33 -72 -93q0 -56 58.5 -70t222.5 -14q256 0 384 -79
t128 -236q0 -155 -143 -243.5t-369 -88.5q-229 0 -370.5 88.5t-141.5 243.5q0 85 56.5 152.5t139.5 99.5zM537 936q-137 0 -218 -64.5t-81 -181.5q0 -121 84.5 -184.5t214.5 -63.5q133 0 215 66t82 182q0 122 -84 184t-213 62zM158 -127q0 -103 105.5 -156t271.5 -53
q165 0 272.5 54t107.5 157q0 98 -87.5 149.5t-290.5 51.5q-202 0 -290.5 -50.5t-88.5 -152.5zM344 1182h-151l276 295h146l272 -295h-149l-197 200z" />
    <glyph glyph-name="Gdotaccent" unicode="&#x120;" horiz-adv-x="1462" 
d="M1337 1044h-139q-49 161 -175.5 250.5t-303.5 89.5q-234 0 -357.5 -177t-123.5 -470t123.5 -470t357.5 -177t364 140t142 384h-387v117h526v-39q0 -342 -165 -532.5t-480 -190.5q-287 0 -455 211.5t-168 556.5q0 338 164 553t459 215q238 0 396.5 -119t221.5 -342z
M720 1593q-39 0 -69 29t-30 67t30 67t69 29q38 0 67 -29t29 -67t-29 -67t-67 -29z" />
    <glyph glyph-name="gdotaccent" unicode="&#x121;" horiz-adv-x="1094" 
d="M221 127q-98 41 -98 143t106 154q-120 102 -120 266q0 166 119.5 264.5t308.5 98.5q151 0 262 -64q113 82 264 82v-117q-108 -6 -174 -36q74 -94 74 -228q0 -169 -122 -265.5t-304 -96.5q-121 0 -209 39q-72 -33 -72 -93q0 -56 58.5 -70t222.5 -14q256 0 384 -79
t128 -236q0 -155 -143 -243.5t-369 -88.5q-229 0 -370.5 88.5t-141.5 243.5q0 85 56.5 152.5t139.5 99.5zM537 936q-137 0 -218 -64.5t-81 -181.5q0 -121 84.5 -184.5t214.5 -63.5q133 0 215 66t82 182q0 122 -84 184t-213 62zM158 -127q0 -103 105.5 -156t271.5 -53
q165 0 272.5 54t107.5 157q0 98 -87.5 149.5t-290.5 51.5q-202 0 -290.5 -50.5t-88.5 -152.5zM541 1274q-39 0 -69 29t-30 67t30 67t69 29q38 0 67 -29t29 -67t-29 -67t-67 -29z" />
    <glyph glyph-name="Hcircumflex" unicode="&#x124;" horiz-adv-x="1372" 
d="M272 0h-135v1475h135v-658h826v658h135v-1475h-135v696h-826v-696zM890 1573l-205 217l-207 -217h-131l265 295h145l265 -295h-132z" />
    <glyph glyph-name="hcircumflex" unicode="&#x125;" 
d="M266 1475v-580q59 79 144.5 118.5t197.5 39.5q179 0 272 -104t93 -304v-645h-129v637q0 160 -65 227.5t-189 67.5q-145 0 -234.5 -84.5t-89.5 -237.5v-610h-129v1475h129zM359 1573h-151l276 295h146l272 -295h-149l-197 200z" />
    <glyph glyph-name="Hbar" unicode="&#x126;" horiz-adv-x="1514" 
d="M59 1096v120h149v259h135v-259h825v259h135v-259h150v-120h-150v-1096h-135v696h-825v-696h-135v1096h-149zM343 816h825v280h-825v-280z" />
    <glyph glyph-name="hbar" unicode="&#x127;" horiz-adv-x="1104" 
d="M630 1327v-101h-364v-359q50 91 139.5 140t210.5 49q359 0 359 -416v-640h-127v636q0 156 -61.5 231t-197.5 75q-71 0 -130.5 -22.5t-102.5 -65t-66.5 -103.5t-23.5 -138v-613h-127v1226h-145v101h145v149h127v-149h364z" />
    <glyph glyph-name="Itilde" unicode="&#x128;" horiz-adv-x="412" 
d="M272 0h-135v1475h135v-1475zM37 1816q24 0 45 -3.5t43.5 -11t47 -20t55.5 -30.5q43 -27 79.5 -43t58.5 -16q88 0 93 120h107q-4 -107 -55 -164t-139 -57q-54 0 -99 20t-95 50q-26 15 -46 25.5t-35.5 17t-27.5 9t-23 2.5q-92 0 -96 -120h-106q4 109 53.5 165t139.5 56z
" />
    <glyph glyph-name="itilde" unicode="&#x129;" horiz-adv-x="422" 
d="M147 0v1022h129v-1022h-129zM573 1446q0 -100 -54 -159.5t-145 -59.5q-83 0 -176 53q-100 57 -146 57q-79 0 -79 -102h-123q0 99 54 158t144 59q48 0 89 -12t120 -55q66 -37 117 -37q76 0 76 98h123z" />
    <glyph glyph-name="Ibreve" unicode="&#x12c;" horiz-adv-x="412" 
d="M272 0h-135v1475h135v-1475zM509 1841q-40 -268 -303 -268q-266 0 -303 268h101q28 -174 202 -174t202 174h101z" />
    <glyph glyph-name="ibreve" unicode="&#x12d;" horiz-adv-x="422" 
d="M147 0v1022h129v-1022h-129zM34 1452q25 -139 170 -139t170 139h121q-17 -120 -94 -185t-197 -65q-121 0 -197.5 65.5t-91.5 184.5h119z" />
    <glyph glyph-name="IJ" unicode="&#x132;" horiz-adv-x="1390" 
d="M137 0v1475h135v-1475h-135zM1251 415q0 -220 -102 -333t-300 -113q-79 0 -146.5 23.5t-120 68t-87.5 109t-49 146.5h135q8 -52 30.5 -94t57 -71t80 -45t100.5 -16q136 0 201.5 79t65.5 246v1060h135v-1060z" />
    <glyph glyph-name="ij" unicode="&#x133;" horiz-adv-x="823" 
d="M205 1489q38 0 64.5 -26.5t26.5 -64.5t-26.5 -64t-64.5 -26q-18 0 -34 7t-28.5 19t-19.5 28.5t-7 35.5t7 35.5t19.5 29t28.5 19.5t34 7zM617 1489q38 0 64.5 -26.5t26.5 -64.5t-26.5 -64t-64.5 -26q-18 0 -34 7t-28.5 19t-19.5 28.5t-7 35.5t7 35.5t19.5 29t28.5 19.5
t34 7zM142 0v1026h127v-1026h-127zM361 -336q17 -1 33.5 -1h34.5q37 0 61.5 7t38.5 29t19.5 63.5t5.5 109.5v1154h127v-1154q0 -101 -15 -163.5t-45 -97t-75.5 -47t-106.5 -12.5q-22 0 -41.5 1t-36.5 3v108z" />
    <glyph glyph-name="Jcircumflex" unicode="&#x134;" horiz-adv-x="977" 
d="M702 1475h136v-1080q0 -198 -102 -312t-304 -114q-152 0 -262.5 94.5t-134.5 253.5h135q18 -107 88 -167t176 -60q134 0 201 76t67 229v1080zM966 1573l-205 217l-207 -217h-131l265 295h145l265 -295h-132z" />
    <glyph glyph-name="jcircumflex" unicode="&#x135;" horiz-adv-x="412" 
d="M412 1182l-206 217l-207 -217h-131l266 295h145l265 -295h-132zM-51 -336q17 -1 33.5 -1h34.5q37 0 61.5 7t38.5 29t19.5 63.5t5.5 109.5v1154h127v-1154q0 -101 -15 -163.5t-45 -97t-75.5 -47t-106.5 -12.5q-22 0 -41.5 1t-36.5 3v108z" />
    <glyph glyph-name="kgreenlandic" unicode="&#x138;" horiz-adv-x="1001" 
d="M749 1026h165l-406 -403l497 -623h-162l-426 533l-153 -153v-380h-127v1026h127v-486z" />
    <glyph glyph-name="Ldot" unicode="&#x13f;" horiz-adv-x="1024" 
d="M987 119v-119h-850v1475h135v-1356h715zM610 1038q38 0 64.5 -26.5t26.5 -64.5t-26.5 -64t-64.5 -26q-18 0 -34.5 7.5t-29 19.5t-20 28.5t-7.5 34.5t7.5 34.5t20 29t29 20t34.5 7.5z" />
    <glyph glyph-name="ldot" unicode="&#x140;" horiz-adv-x="596" 
d="M137 0v1476h127v-1476h-127zM469 881q38 0 64.5 -26.5t26.5 -64.5t-26.5 -64t-64.5 -26q-18 0 -34.5 7.5t-29 19.5t-19.5 28.5t-7 34.5t7 34.5t19.5 29t29 20t34.5 7.5z" />
    <glyph glyph-name="napostrophe" unicode="&#x149;" 
d="M101 1493q45 0 75 -33.5t30 -90.5q0 -214 -146 -351l-55 47q86 100 91 230q-42 3 -68 30.5t-26 68.5q0 20 8 38t21.5 31.5t31.5 21.5t38 8zM614 1056q359 0 359 -416v-640h-127v636q0 157 -61 231.5t-198 74.5q-71 0 -130.5 -22.5t-102 -65t-66.5 -103.5t-24 -138v-613
h-127v1026h127v-159q51 91 140.5 140t209.5 49z" />
    <glyph glyph-name="Eng" unicode="&#x14a;" horiz-adv-x="1373" 
d="M1234 -128q0 -101 -15 -163.5t-45 -97t-75.5 -47t-106.5 -12.5q-22 0 -41.5 1t-36.5 3v108q17 -1 33.5 -1h34.5q37 0 62 7t39 29t20 63.5t6 109.5v129l-846 1255v-1256h-126v1475h127l845 -1254v1254h125v-1603z" />
    <glyph glyph-name="eng" unicode="&#x14b;" 
d="M614 1056q359 0 359 -416v-768q0 -101 -15 -163.5t-45 -97t-75.5 -47t-106.5 -12.5q-22 0 -41.5 1t-36.5 3v108q17 -1 33.5 -1h34.5q37 0 61.5 7t38.5 29t19.5 63.5t5.5 109.5v764q0 157 -61 231.5t-198 74.5q-71 0 -130.5 -22.5t-102 -65t-66.5 -103.5t-24 -138v-613
h-127v1026h127v-159q51 91 140.5 140t209.5 49z" />
    <glyph glyph-name="Obreve" unicode="&#x14e;" horiz-adv-x="1475" 
d="M1376 737q0 -348 -170.5 -558t-468.5 -210t-469.5 210t-171.5 558t171.5 558t469.5 210t468.5 -210t170.5 -558zM1235 737q0 296 -127.5 471.5t-370.5 175.5t-371 -175t-128 -472q0 -296 128 -471.5t371 -175.5t370.5 175.5t127.5 471.5zM1039 1841q-40 -268 -303 -268
q-266 0 -303 268h101q28 -174 202 -174t202 174h101z" />
    <glyph glyph-name="obreve" unicode="&#x14f;" horiz-adv-x="1147" 
d="M573 1053q210 0 355 -143.5t145 -399.5q0 -255 -145 -398t-355 -143q-209 0 -354 143t-145 398q0 168 65 290.5t182.5 187.5t251.5 65zM573 90q158 0 262.5 105.5t104.5 314.5q0 139 -47.5 234t-134 141.5t-185.5 46.5q-157 0 -261.5 -106t-104.5 -316
q0 -209 104.5 -314.5t261.5 -105.5zM405 1455q25 -139 170 -139t170 139h121q-17 -120 -94 -185t-197 -65q-121 0 -197.5 65.5t-91.5 184.5h119z" />
    <glyph glyph-name="Scircumflex" unicode="&#x15c;" horiz-adv-x="1180" 
d="M37 426h139q18 -168 117 -252t278 -84q175 0 282.5 83t107.5 235q0 129 -80.5 191t-300.5 114q-289 67 -391.5 166t-102.5 249q0 173 142.5 275t340.5 102q217 0 350.5 -104.5t155.5 -310.5h-139q-12 145 -110 218.5t-257 73.5q-142 0 -243 -66t-101 -188q0 -113 77 -176
t319 -116q279 -63 380 -167.5t101 -260.5q0 -195 -151 -317t-380 -122q-220 0 -368.5 120.5t-165.5 336.5zM779 1573l-205 217l-207 -217h-131l265 295h145l265 -295h-132z" />
    <glyph glyph-name="scircumflex" unicode="&#x15d;" horiz-adv-x="915" 
d="M838 760h-129q-10 86 -70 129t-170 43q-117 0 -182.5 -42.5t-65.5 -117.5q0 -71 48.5 -101t164.5 -60q154 -41 233 -71t134 -91t55 -164q0 -147 -111 -231.5t-278 -84.5q-168 0 -280 84.5t-130 239.5h129q22 -102 92.5 -152.5t188.5 -50.5t187 49t69 137t-58.5 124.5
t-212.5 77.5q-131 36 -199.5 64.5t-116.5 84t-48 145.5q0 131 108 206t273 75q154 0 255 -73.5t114 -219.5zM263 1182h-151l276 295h146l272 -295h-149l-197 200z" />
    <glyph glyph-name="Tbar" unicode="&#x166;" horiz-adv-x="1266" 
d="M249 735v120h317v500h-521v120h1174v-120h-519v-500h319v-120h-319v-735h-134v735h-317z" />
    <glyph glyph-name="tbar" unicode="&#x167;" horiz-adv-x="708" 
d="M370 664h207v-113h-207v-324q0 -42 5.5 -69.5t20.5 -43.5t41 -22.5t66 -6.5q18 0 49.5 1.5t78.5 5.5v-100q-37 -12 -74.5 -17.5t-78.5 -5.5q-62 0 -107 12.5t-73.5 42.5t-42 81t-13.5 128v318h-139v112h139v250h-187v113h187v326h128v-326h261v-113h-261v-249z" />
    <glyph glyph-name="Utilde" unicode="&#x168;" horiz-adv-x="1323" 
d="M254 1475v-904q0 -242 102 -362.5t306 -120.5q203 0 305 120.5t102 362.5v904h135v-904q0 -194 -64 -329t-187 -204t-291 -69q-256 0 -399.5 154t-143.5 448v904h135zM494 1816q24 0 45 -3.5t43.5 -11t47 -20t55.5 -30.5q43 -27 79.5 -43t58.5 -16q88 0 93 120h107
q-4 -107 -55 -164t-139 -57q-54 0 -99 20t-95 50q-26 15 -46 25.5t-35.5 17t-27.5 9t-23 2.5q-92 0 -96 -120h-106q4 109 53.5 165t139.5 56z" />
    <glyph glyph-name="utilde" unicode="&#x169;" 
d="M834 0v127q-59 -79 -144.5 -118.5t-197.5 -39.5q-179 0 -272 104t-93 304v645h129v-637q0 -152 57.5 -223.5t188.5 -71.5q150 0 241 84t91 238v610h129v-1022h-129zM905 1444q0 -100 -54 -159.5t-145 -59.5q-83 0 -176 53q-100 57 -146 57q-79 0 -79 -102h-123
q0 99 54 158t144 59q48 0 89 -12t120 -55q66 -37 117 -37q76 0 76 98h123z" />
    <glyph glyph-name="Ubreve" unicode="&#x16c;" horiz-adv-x="1323" 
d="M254 1475v-904q0 -242 102 -362.5t306 -120.5q203 0 305 120.5t102 362.5v904h135v-904q0 -194 -64 -329t-187 -204t-291 -69q-256 0 -399.5 154t-143.5 448v904h135zM965 1841q-40 -268 -303 -268q-266 0 -303 268h101q28 -174 202 -174t202 174h101z" />
    <glyph glyph-name="ubreve" unicode="&#x16d;" 
d="M834 0v127q-59 -79 -144.5 -118.5t-197.5 -39.5q-179 0 -272 104t-93 304v645h129v-637q0 -152 57.5 -223.5t188.5 -71.5q150 0 241 84t91 238v610h129v-1022h-129zM372 1455q25 -139 170 -139t170 139h121q-17 -120 -94 -185t-197 -65q-121 0 -197.5 65.5t-91.5 184.5
h119z" />
    <glyph glyph-name="Wcircumflex" unicode="&#x174;" horiz-adv-x="1868" 
d="M932 1331l-334 -1331h-186l-346 1475h139l303 -1342h6l330 1342h182l324 -1342h6l311 1342h135l-354 -1475h-191l-321 1331h-4zM1140 1573l-205 217l-207 -217h-131l265 295h145l265 -295h-132z" />
    <glyph glyph-name="wcircumflex" unicode="&#x175;" horiz-adv-x="1571" 
d="M782 770l-252 -770h-176l-334 1022h138l286 -893h7l288 893h92l289 -893h6l287 893h137l-333 -1022h-177l-252 770h-6zM591 1182h-151l276 295h146l272 -295h-149l-197 200z" />
    <glyph glyph-name="Ycircumflex" unicode="&#x176;" horiz-adv-x="1278" 
d="M647 670l457 805h137l-532 -912v-563h-136v549l-538 926h149zM844 1573l-205 217l-207 -217h-131l265 295h145l265 -295h-132z" />
    <glyph glyph-name="ycircumflex" unicode="&#x177;" horiz-adv-x="1014" 
d="M543 182l319 840h131l-475 -1229q-60 -155 -127 -202.5t-164 -47.5q-89 0 -153 33v119q79 -33 153 -33t108.5 34.5t59.5 100.5l78 203l-438 1022h145l355 -840h8zM338 1182h-151l276 295h146l272 -295h-149l-197 200z" />
    <glyph glyph-name="uni0237" unicode="&#x237;" horiz-adv-x="412" 
d="M-51 -336q17 -1 33.5 -1h34.5q37 0 61.5 7t38.5 29t19.5 63.5t5.5 109.5v1154h127v-1154q0 -101 -15 -163.5t-45 -97t-75.5 -47t-106.5 -12.5q-22 0 -41.5 1t-36.5 3v108z" />
    <glyph glyph-name="uni0400" unicode="&#x400;" horiz-adv-x="1157" 
d="M1049 0h-912v1475h893v-121h-758v-537h721v-121h-721v-575h777v-121zM655 1573l-259 295h145l246 -295h-132z" />
    <glyph glyph-name="uni040D" unicode="&#x40d;" horiz-adv-x="1372" 
d="M1104 0v1302l-803 -1302h-164v1475h129v-1284l793 1284h174v-1475h-129zM640 1573l-259 295h145l246 -295h-132z" />
    <glyph glyph-name="uni0450" unicode="&#x450;" horiz-adv-x="1110" 
d="M887 285h139q-60 -154 -181 -235t-270 -81q-211 0 -356 144t-145 399q0 164 64.5 286.5t181 188.5t251.5 66q207 0 336 -138.5t129 -392.5q0 -46 -4 -73h-821q13 -182 118 -270.5t242 -88.5q110 0 189 48.5t127 146.5zM209 565h696q-7 177 -100.5 272t-233.5 95
q-142 0 -244.5 -90.5t-117.5 -276.5zM762 1182h-148l-258 295h162z" />
    <glyph glyph-name="uni045D" unicode="&#x45d;" horiz-adv-x="1112" 
d="M137 1022h129v-819l578 819h129v-1022h-129v819l-578 -819h-129v1022zM677 1182h-148l-258 295h162z" />
    <glyph glyph-name="Wgrave" unicode="&#x1e80;" horiz-adv-x="1868" 
d="M932 1331l-334 -1331h-186l-346 1475h139l303 -1342h6l330 1342h182l324 -1342h6l311 1342h135l-354 -1475h-191l-321 1331h-4zM998 1573l-259 295h145l246 -295h-132z" />
    <glyph glyph-name="wgrave" unicode="&#x1e81;" horiz-adv-x="1571" 
d="M782 770l-252 -770h-176l-334 1022h138l286 -893h7l288 893h92l289 -893h6l287 893h137l-333 -1022h-177l-252 770h-6zM872 1182h-148l-258 295h162z" />
    <glyph glyph-name="Wacute" unicode="&#x1e82;" horiz-adv-x="1868" 
d="M932 1331l-334 -1331h-186l-346 1475h139l303 -1342h6l330 1342h182l324 -1342h6l311 1342h135l-354 -1475h-191l-321 1331h-4zM870 1573l246 295h145l-259 -295h-132z" />
    <glyph glyph-name="wacute" unicode="&#x1e83;" horiz-adv-x="1571" 
d="M782 770l-252 -770h-176l-334 1022h138l286 -893h7l288 893h92l289 -893h6l287 893h137l-333 -1022h-177l-252 770h-6zM827 1182h-146l242 295h162z" />
    <glyph glyph-name="Wdieresis" unicode="&#x1e84;" horiz-adv-x="1868" 
d="M932 1331l-334 -1331h-186l-346 1475h139l303 -1342h6l330 1342h182l324 -1342h6l311 1342h135l-354 -1475h-191l-321 1331h-4zM732 1800q38 0 64 -26t26 -64t-26 -64.5t-64 -26.5q-18 0 -34.5 7.5t-29 20t-20 29t-7.5 34.5t7.5 34.5t20 28.5t29 19.5t34.5 7.5z
M1138 1800q38 0 64 -26t26 -64t-26 -64.5t-64 -26.5q-18 0 -34.5 7.5t-29 20t-19.5 29t-7 34.5t7 34.5t19.5 28.5t29 19.5t34.5 7.5z" />
    <glyph glyph-name="wdieresis" unicode="&#x1e85;" horiz-adv-x="1571" 
d="M782 770l-252 -770h-176l-334 1022h138l286 -893h7l288 893h92l289 -893h6l287 893h137l-333 -1022h-177l-252 770h-6zM569 1272q-40 0 -69.5 29t-29.5 69t29.5 69t69.5 29q39 0 68.5 -29t29.5 -69t-29.5 -69t-68.5 -29zM995 1272q-40 0 -69.5 29t-29.5 69t29.5 69
t69.5 29q39 0 68.5 -29t29.5 -69t-29.5 -69t-68.5 -29z" />
    <glyph glyph-name="Ygrave" unicode="&#x1ef2;" horiz-adv-x="1278" 
d="M647 670l457 805h137l-532 -912v-563h-136v549l-538 926h149zM576 1573l-259 295h145l246 -295h-132z" />
    <glyph glyph-name="ygrave" unicode="&#x1ef3;" horiz-adv-x="1014" 
d="M543 182l319 840h131l-475 -1229q-60 -155 -127 -202.5t-164 -47.5q-89 0 -153 33v119q79 -33 153 -33t108.5 34.5t59.5 100.5l78 203l-438 1022h145l355 -840h8zM675 1182h-148l-258 295h162z" />
    <glyph glyph-name="uni203D" unicode="&#x203d;" horiz-adv-x="997" 
d="M485 1505q99 0 178.5 -28t136 -79.5t87 -124.5t30.5 -164q0 -50 -10 -97t-32.5 -94t-58 -95t-86.5 -100q-51 -51 -85.5 -93t-56 -80t-31 -76.5t-10.5 -81.5h-118l-45 772h127l21 -492q42 56 103 118q153 157 153 318q0 64 -21.5 116t-61 89t-95.5 56.5t-125 19.5
t-125 -23t-96.5 -66.5t-64.5 -106.5t-28 -142h-136q20 221 137 337.5t313 116.5zM487 183q21 0 39 -8t31.5 -22t21.5 -32t8 -39q0 -42 -29 -71t-71 -29q-21 0 -39 8t-32 21.5t-22 31.5t-8 39t8 39t22 32t32 22t39 8z" />
    <glyph glyph-name="uni2070" unicode="&#x2070;" horiz-adv-x="709" 
d="M352 1502q81 0 139.5 -31t96.5 -88.5t56 -139t18 -181.5q0 -101 -18 -182t-56 -138.5t-96.5 -88.5t-139.5 -31q-80 0 -138.5 31t-96.5 88.5t-56.5 138.5t-18.5 182q0 100 18.5 181.5t56.5 139t96.5 88.5t138.5 31zM352 1400q-54 0 -91.5 -23.5t-61.5 -68t-35 -107
t-11 -140.5t11 -141t35 -107t61.5 -67.5t91.5 -23.5t92 23.5t62 67.5t35 107t11 141t-11 140.5t-35 107t-62 68t-92 23.5z" />
    <glyph glyph-name="uni2075" unicode="&#x2075;" horiz-adv-x="726" 
d="M251 1393l-46 -240q37 23 75.5 33t83.5 10q65 0 118 -19t91 -55.5t58.5 -88.5t20.5 -118t-22 -120.5t-62 -93t-96 -59.5t-123 -21q-52 0 -98 14.5t-83 41.5t-62.5 66t-35.5 88l109 -1q17 -50 61.5 -80.5t109.5 -30.5q44 0 80 13.5t61.5 39t39.5 62t14 81.5t-14.5 79.5
t-39 57.5t-58.5 34.5t-73 11.5q-116 0 -180 -72l-95 36l76 427h434v-96h-344z" />
    <glyph glyph-name="uni2076" unicode="&#x2076;" horiz-adv-x="658" 
d="M264 1193q30 13 68 13q66 0 118 -21.5t89 -60t56.5 -91t19.5 -115.5q0 -62 -20 -115.5t-57.5 -93t-91.5 -62.5t-121 -23q-68 0 -121.5 23t-90.5 62t-57 90t-20 107q0 46 9 88t28.5 86t50 91.5t72.5 103.5l162 214h126zM326 1109q-43 0 -77 -15t-58 -41.5t-36.5 -63
t-12.5 -79.5q0 -42 13 -76.5t37 -60t58 -39.5t76 -14t75.5 14.5t57.5 40.5t36.5 61.5t12.5 76.5q0 43 -12.5 79t-36 62t-57.5 40.5t-76 14.5z" />
    <glyph glyph-name="uni2077" unicode="&#x2077;" horiz-adv-x="659" 
d="M234 635h-108l356 759h-432v95h548v-69z" />
    <glyph glyph-name="uni2078" unicode="&#x2078;" horiz-adv-x="676" 
d="M330 1502q53 0 99 -15t79.5 -43.5t53 -68.5t19.5 -89q0 -135 -129 -187q78 -26 120.5 -82.5t42.5 -136.5q0 -60 -20.5 -107.5t-58 -81t-90 -51.5t-116.5 -18q-65 0 -117.5 17.5t-90 51t-58 81.5t-20.5 108q0 77 43 135.5t120 83.5q-128 53 -128 187q0 49 19 89t53 68.5
t80 43.5t99 15zM330 1412q-68 0 -108.5 -34t-40.5 -97t41.5 -98.5t107.5 -35.5t107.5 35.5t41.5 98.5t-40.5 97t-108.5 34zM330 1037q-81 0 -130.5 -41t-49.5 -116q0 -39 13 -70t37 -52.5t57 -32.5t73 -11q82 0 131.5 43.5t49.5 122.5q0 75 -49.5 116t-131.5 41z" />
    <glyph glyph-name="uni2079" unicode="&#x2079;" horiz-adv-x="669" 
d="M338 1502q66 0 119 -23t90 -61t56.5 -89t19.5 -106q0 -45 -9.5 -86.5t-29 -84t-49.5 -89.5t-70 -104l-160 -223h-123l217 304q-30 -13 -68 -13q-65 0 -116.5 21.5t-88 59.5t-56 90t-19.5 114q0 60 20 113t57 92.5t90.5 62t119.5 22.5zM337 1407q-41 0 -74.5 -14.5
t-57 -40t-36 -60.5t-12.5 -75q0 -43 12 -79t35 -61.5t57 -40t76 -14.5t76 15t57.5 41t36 62.5t12.5 78.5q0 41 -12.5 75.5t-36.5 59.5t-57.5 39t-75.5 14z" />
    <glyph glyph-name="uni2080" unicode="&#x2080;" horiz-adv-x="740" 
d="M370 667q81 0 139.5 -31t96.5 -88.5t56 -139t18 -181.5q0 -101 -18 -182t-56 -138.5t-96.5 -88.5t-139.5 -31q-80 0 -138.5 31t-96.5 88.5t-56.5 138.5t-18.5 182q0 100 18.5 181.5t56.5 139t96.5 88.5t138.5 31zM370 565q-54 0 -91.5 -23.5t-61.5 -68t-35 -107
t-11 -140.5t11 -141t35 -107t61.5 -67.5t91.5 -23.5t92 23.5t62 67.5t35 107t11 141t-11 140.5t-35 107t-62 68t-92 23.5z" />
    <glyph glyph-name="uni2081" unicode="&#x2081;" horiz-adv-x="484" 
d="M220 -200v596h-206v89q185 9 221 169h89v-854h-104z" />
    <glyph glyph-name="uni2082" unicode="&#x2082;" horiz-adv-x="639" 
d="M327 663q59 0 107 -16.5t81.5 -47.5t52 -75.5t18.5 -99.5q0 -105 -52 -188q-24 -38 -83.5 -102.5t-142.5 -140.5l-110 -99h393v-97h-544v86l161 148l85.5 80l61 60.5t43 47.5t30.5 40q28 39 40 78.5t12 84.5q0 145 -153 145q-156 0 -180 -157h-101q17 125 89.5 189
t191.5 64z" />
    <glyph glyph-name="uni2083" unicode="&#x2083;" horiz-adv-x="727" 
d="M359 666q57 0 104 -16t80.5 -45t52 -69t18.5 -87q0 -138 -117 -190q141 -53 141 -206q0 -60 -21.5 -109t-59 -84t-89.5 -54t-112 -19q-131 0 -207.5 70.5t-91.5 206.5h101q25 -182 198 -182q40 0 72.5 12t56 34.5t36 54t12.5 70.5q0 153 -185 153l-71 -1v95h69
q162 0 162 142q0 57 -38.5 93t-109.5 36q-166 0 -184 -180h-102q32 275 285 275z" />
    <glyph glyph-name="uni2084" unicode="&#x2084;" horiz-adv-x="709" 
d="M654 91v-97h-108v-194h-104v194h-397v89l408 571h93v-563h108zM442 91v401l-279 -401h279z" />
    <glyph glyph-name="uni2085" unicode="&#x2085;" horiz-adv-x="726" 
d="M251 558l-46 -240q37 23 75.5 33t83.5 10q65 0 118 -19t91 -55.5t58.5 -88.5t20.5 -118t-22 -120.5t-62 -93t-96 -59.5t-123 -21q-52 0 -98 14.5t-83 41.5t-62.5 66t-35.5 88l109 -1q17 -50 61.5 -80.5t109.5 -30.5q44 0 80 13.5t61.5 39t39.5 62t14 81.5t-14.5 79.5
t-39 57.5t-58.5 34.5t-73 11.5q-116 0 -180 -72l-95 36l76 427h434v-96h-344z" />
    <glyph glyph-name="uni2086" unicode="&#x2086;" horiz-adv-x="658" 
d="M264 358q30 13 68 13q66 0 118 -21.5t89 -60t56.5 -91t19.5 -115.5q0 -62 -20 -115.5t-57.5 -93t-91.5 -62.5t-121 -23q-68 0 -121.5 23t-90.5 62t-57 90t-20 107q0 46 9 88t28.5 86t50 91.5t72.5 103.5l162 214h126zM326 274q-43 0 -77 -15t-58 -41.5t-36.5 -63
t-12.5 -79.5q0 -42 13 -76.5t37 -60t58 -39.5t76 -14t75.5 14.5t57.5 40.5t36.5 61.5t12.5 76.5q0 43 -12.5 79t-36 62t-57.5 40.5t-76 14.5z" />
    <glyph glyph-name="uni2087" unicode="&#x2087;" horiz-adv-x="659" 
d="M234 -200h-108l356 759h-432v95h548v-69z" />
    <glyph glyph-name="uni2088" unicode="&#x2088;" horiz-adv-x="676" 
d="M330 667q53 0 99 -15t79.5 -43.5t53 -68.5t19.5 -89q0 -135 -129 -187q78 -26 120.5 -82.5t42.5 -136.5q0 -60 -20.5 -107.5t-58 -81t-90 -51.5t-116.5 -18q-65 0 -117.5 17.5t-90 51t-58 81.5t-20.5 108q0 77 43 135.5t120 83.5q-128 53 -128 187q0 49 19 89t53 68.5
t80 43.5t99 15zM330 577q-68 0 -108.5 -34t-40.5 -97t41.5 -98.5t107.5 -35.5t107.5 35.5t41.5 98.5t-40.5 97t-108.5 34zM330 202q-81 0 -130.5 -41t-49.5 -116q0 -39 13 -70t37 -52.5t57 -32.5t73 -11q82 0 131.5 43.5t49.5 122.5q0 75 -49.5 116t-131.5 41z" />
    <glyph glyph-name="uni2089" unicode="&#x2089;" horiz-adv-x="669" 
d="M338 667q66 0 119 -23t90 -61t56.5 -89t19.5 -106q0 -45 -9.5 -86.5t-29 -84t-49.5 -89.5t-70 -104l-160 -223h-123l217 304q-30 -13 -68 -13q-65 0 -116.5 21.5t-88 59.5t-56 90t-19.5 114q0 60 20 113t57 92.5t90.5 62t119.5 22.5zM337 572q-41 0 -74.5 -14.5t-57 -40
t-36 -60.5t-12.5 -75q0 -43 12 -79t35 -61.5t57 -40t76 -14.5t76 15t57.5 41t36 62.5t12.5 78.5q0 41 -12.5 75.5t-36.5 59.5t-57.5 39t-75.5 14z" />
    <glyph glyph-name="uni20B9" unicode="&#x20b9;" horiz-adv-x="1236" 
d="M727 1355q122 -76 136 -230h238v-120h-237q-17 -152 -119 -234.5t-276 -106.5l423 -664l-156 -1l-414 656v120h30q165 4 258.5 58.5t111.5 170.5h-587v120h587q-18 121 -113.5 176t-251.5 55h-223v120h966v-120h-373z" />
    <glyph glyph-name="uni20BD" unicode="&#x20bd;" horiz-adv-x="1306" 
d="M61 394v119h162v143h-161v119h161v700h500q121 0 216.5 -26.5t162 -78t101.5 -128.5t35 -178q0 -102 -35 -178.5t-101 -127.5t-162 -76.5t-219 -25.5h-366v-143h387v-118h-387v-395h-132v394h-162zM725 775q89 0 159 17t118 52.5t73 90t25 130.5q0 151 -98 220.5
t-277 69.5h-371v-580h371z" />
    <glyph glyph-name="afii61248" unicode="&#x2105;" horiz-adv-x="1870" 
d="M478 1503q128 0 212 -63.5t114 -184.5h-111q-23 69 -75.5 107.5t-139.5 38.5q-53 0 -99.5 -18.5t-81.5 -56t-55.5 -94.5t-20.5 -133t20 -133t54.5 -94.5t81.5 -56.5t102 -19q87 0 138.5 37.5t75.5 108.5h111q-30 -122 -114 -185t-212 -63q-81 0 -149 28t-116.5 80.5
t-76 127.5t-27.5 169q0 93 27.5 168t77 127.5t117 80.5t147.5 28zM314 0l1110 1475h137l-1110 -1475h-137zM1387 785q82 0 151 -28.5t119 -82t78 -128.5t28 -168q0 -94 -28.5 -169.5t-78.5 -129t-119 -82t-150 -28.5q-83 0 -152 28.5t-119.5 82t-78.5 129t-28 169.5
t28.5 169t78.5 128t119.5 81.5t151.5 28.5zM1387 683q-58 0 -106.5 -20t-84 -58.5t-55 -95.5t-19.5 -131q0 -75 19.5 -132.5t55 -96t84 -58.5t106.5 -20q57 0 105.5 20t83.5 58.5t55 96t20 132.5q0 74 -19.5 131t-55 95.5t-84 58.5t-105.5 20z" />
    <glyph glyph-name="afii61289" unicode="&#x2113;" horiz-adv-x="760" 
d="M433 93q19 0 35.5 3.5t31.5 11.5t29.5 21t30.5 32l67 -81q-38 -50 -92 -78.5t-123 -28.5q-103 0 -151 61.5t-48 202.5v97l-99 -104l-67 77l166 175v684q0 69 12.5 128.5t39.5 103t70 68.5t104 25q57 0 95.5 -23t62 -63t33.5 -95t10 -118q0 -79 -14 -162t-48 -172
t-92 -184.5t-145 -199.5v-244q0 -69 19 -103t73 -34zM439 1380q-53 0 -75.5 -51t-22.5 -156v-548q39 56 73 129t58.5 150t38.5 153t14 138q0 43 -4 77t-14 58t-26.5 37t-41.5 13z" />
    <glyph glyph-name="uni2117" unicode="&#x2117;" horiz-adv-x="1596" 
d="M798 1488q103 0 199 -27t180 -75.5t152.5 -117t117.5 -152t76 -179.5t27 -200t-27 -200t-76 -179.5t-117.5 -152t-152 -117.5t-179.5 -76t-200 -27q-103 0 -199.5 27t-180 76t-152.5 117.5t-118 152t-76 179.5t-27 200t27 200t76 179.5t118 152t152.5 117t179.5 75.5
t200 27zM799 1380q-89 0 -171 -23t-153 -65t-130 -101t-101 -130.5t-65 -153.5t-23 -170q0 -89 23 -171t65 -153.5t101 -130t130 -100t153 -64.5t171 -23q88 0 170.5 23t153.5 64.5t130 100t101 130t65 153.5t23 171q0 88 -23 170t-65 153.5t-101 130.5t-130 101t-153.5 65
t-170.5 23zM872 1143q146 0 228.5 -63.5t82.5 -184.5q0 -123 -85.5 -188t-249.5 -65h-199v-320h-108v821h331zM649 740h225q94 0 145.5 38t51.5 117q0 77 -51.5 114.5t-145.5 37.5h-225v-307z" />
    <glyph glyph-name="glyph592" horiz-adv-x="721" 
d="M169 1573l246 295h145l-259 -295h-132z" />
    <glyph glyph-name="glyph593" horiz-adv-x="951" 
d="M779 1841q-40 -268 -303 -268q-266 0 -303 268h101q28 -174 202 -174t202 174h101z" />
    <glyph glyph-name="glyph594" horiz-adv-x="705" 
d="M561 1542q39 0 65 -27t26 -67q0 -63 -22.5 -110.5t-62.5 -79t-95 -47t-120 -15.5q-62 0 -116.5 16.5t-95 48t-64 78.5t-23.5 109q0 19 7 36.5t19 30t28.5 20t35.5 7.5q38 0 64.5 -26.5t26.5 -64.5q0 -55 -50 -77q6 -20 22.5 -35.5t39 -26.5t50 -16.5t55.5 -5.5
q63 0 109 21.5t59 62.5q-22 11 -35.5 31.5t-13.5 45.5q0 18 7.5 34.5t20 29t29 20t34.5 7.5z" />
    <glyph glyph-name="glyph595" horiz-adv-x="487" 
d="M246 1493q42 0 69.5 -31t27.5 -82q0 -170 -120 -296l-57 42q72 84 78 186q-92 8 -92 90q0 19 7.5 35.5t20 29t29.5 19.5t37 7z" />
    <glyph glyph-name="glyph596" horiz-adv-x="1021" 
d="M716 1573l-205 217l-207 -217h-131l265 295h145l265 -295h-132z" />
    <glyph glyph-name="glyph597" horiz-adv-x="960" 
d="M277 1800q38 0 64 -26t26 -64t-26 -64.5t-64 -26.5q-18 0 -34.5 7.5t-29 20t-20 29t-7.5 34.5t7.5 34.5t20 28.5t29 19.5t34.5 7.5zM683 1800q38 0 64 -26t26 -64t-26 -64.5t-64 -26.5q-18 0 -34.5 7.5t-29 20t-19.5 29t-7 34.5t7 34.5t19.5 28.5t29 19.5t34.5 7.5z" />
    <glyph glyph-name="eight.dnom" horiz-adv-x="676" 
d="M330 867q53 0 99 -15t79.5 -43.5t53 -68.5t19.5 -89q0 -135 -129 -187q78 -26 120.5 -82.5t42.5 -136.5q0 -60 -20.5 -107.5t-58 -81t-90 -51.5t-116.5 -18q-65 0 -117.5 17.5t-90 51t-58 81.5t-20.5 108q0 77 43 135.5t120 83.5q-128 53 -128 187q0 49 19 89t53 68.5
t80 43.5t99 15zM330 777q-68 0 -108.5 -34t-40.5 -97t41.5 -98.5t107.5 -35.5t107.5 35.5t41.5 98.5t-40.5 97t-108.5 34zM330 402q-81 0 -130.5 -41t-49.5 -116q0 -39 13 -70t37 -52.5t57 -32.5t73 -11q82 0 131.5 43.5t49.5 122.5q0 75 -49.5 116t-131.5 41z" />
    <glyph glyph-name="eight.numr" horiz-adv-x="676" 
d="M330 1502q53 0 99 -15t79.5 -43.5t53 -68.5t19.5 -89q0 -135 -129 -187q78 -26 120.5 -82.5t42.5 -136.5q0 -60 -20.5 -107.5t-58 -81t-90 -51.5t-116.5 -18q-65 0 -117.5 17.5t-90 51t-58 81.5t-20.5 108q0 77 43 135.5t120 83.5q-128 53 -128 187q0 49 19 89t53 68.5
t80 43.5t99 15zM330 1412q-68 0 -108.5 -34t-40.5 -97t41.5 -98.5t107.5 -35.5t107.5 35.5t41.5 98.5t-40.5 97t-108.5 34zM330 1037q-81 0 -130.5 -41t-49.5 -116q0 -39 13 -70t37 -52.5t57 -32.5t73 -11q82 0 131.5 43.5t49.5 122.5q0 75 -49.5 116t-131.5 41z" />
    <glyph glyph-name="eight.tnum" horiz-adv-x="1190" 
d="M594 1505q93 0 173 -26.5t139.5 -76t93 -119t33.5 -154.5q0 -234 -232 -326q139 -46 215 -144t76 -237q0 -104 -35.5 -187.5t-100.5 -142.5t-157 -91t-205 -32t-205 32t-157 91t-100.5 142.5t-35.5 187.5q0 66 20 125.5t57.5 109t91.5 87t122 59.5q-231 91 -231 326
q0 85 33.5 154.5t92.5 119t139 76t173 26.5zM594 1389q-69 0 -125.5 -18t-96 -52.5t-61 -84t-21.5 -111.5t22 -111t62 -83t96 -52.5t124 -18.5q69 0 125 18.5t95.5 52.5t61.5 83t22 111q0 63 -21.5 112t-61.5 83.5t-96 52.5t-125 18zM594 734q-84 0 -151 -22t-114 -63
t-72 -98.5t-25 -128.5q0 -79 25.5 -141.5t73 -106t114 -66.5t149.5 -23t150 23.5t114 67t72.5 106t25.5 140.5q0 71 -25 128.5t-72 98.5t-114 63t-151 22z" />
    <glyph glyph-name="five.dnom" horiz-adv-x="726" 
d="M251 758l-46 -240q37 23 75.5 33t83.5 10q65 0 118 -19t91 -55.5t58.5 -88.5t20.5 -118t-22 -120.5t-62 -93t-96 -59.5t-123 -21q-52 0 -98 14.5t-83 41.5t-62.5 66t-35.5 88l109 -1q17 -50 61.5 -80.5t109.5 -30.5q44 0 80 13.5t61.5 39t39.5 62t14 81.5t-14.5 79.5
t-39 57.5t-58.5 34.5t-73 11.5q-116 0 -180 -72l-95 36l76 427h434v-96h-344z" />
    <glyph glyph-name="five.numr" horiz-adv-x="726" 
d="M251 1393l-46 -240q37 23 75.5 33t83.5 10q65 0 118 -19t91 -55.5t58.5 -88.5t20.5 -118t-22 -120.5t-62 -93t-96 -59.5t-123 -21q-52 0 -98 14.5t-83 41.5t-62.5 66t-35.5 88l109 -1q17 -50 61.5 -80.5t109.5 -30.5q44 0 80 13.5t61.5 39t39.5 62t14 81.5t-14.5 79.5
t-39 57.5t-58.5 34.5t-73 11.5q-116 0 -180 -72l-95 36l76 427h434v-96h-344z" />
    <glyph glyph-name="five.tnum" horiz-adv-x="1190" 
d="M370 1355l-90 -507q145 97 328 97q109 0 199 -31.5t153.5 -91.5t98.5 -147.5t35 -199.5q0 -113 -37.5 -206t-105.5 -160t-162 -103.5t-206 -36.5q-91 0 -170.5 25.5t-142.5 73t-106 114t-61 148.5h134q37 -118 125.5 -181.5t221.5 -63.5q84 0 153 27.5t118 78.5t76 123
t27 161q0 86 -26.5 152.5t-74.5 112.5t-116 69.5t-151 23.5q-205 0 -335 -130l-114 24l128 748h706v-120h-605z" />
    <glyph glyph-name="four.dnom" horiz-adv-x="709" 
d="M654 291v-97h-108v-194h-104v194h-397v89l408 571h93v-563h108zM442 291v401l-279 -401h279z" />
    <glyph glyph-name="four.numr" horiz-adv-x="709" 
d="M654 927v-98h-108v-193h-104v193h-397v89l408 572h93v-563h108zM442 927v400l-279 -400h279z" />
    <glyph glyph-name="uni2074" unicode="&#x2074;" horiz-adv-x="709" 
d="M654 927v-98h-108v-193h-104v193h-397v89l408 572h93v-563h108zM442 927v400l-279 -400h279z" />
    <glyph glyph-name="four.tnum" horiz-adv-x="1190" 
d="M1104 467v-119h-199v-348h-132v348h-679v119l686 1008h125v-1008h199zM773 467v810l-545 -810h545z" />
    <glyph glyph-name="gcircumflex.ss01" horiz-adv-x="1180" 
d="M217 -156q41 -98 124 -139t194 -41q77 0 146 15.5t121 60.5t81.5 124t29.5 208v75q-69 -98 -160 -138t-200 -40q-104 0 -191.5 37t-152 106.5t-100 170t-35.5 227.5q0 129 35.5 229.5t100 170t152 106.5t191.5 37q111 0 201 -38t157 -130v137h129v-952q0 -168 -48 -271.5
t-121.5 -160t-164 -76t-171.5 -19.5q-173 0 -292.5 76t-158.5 225h133zM911 539q0 198 -91 296.5t-267 98.5q-72 0 -134.5 -24.5t-109.5 -77t-74.5 -132t-27.5 -188.5q0 -111 26.5 -190.5t73.5 -132t110.5 -77t135.5 -24.5q176 0 267 102.5t91 319.5v29zM371 1182h-151
l276 295h146l272 -295h-149l-197 200z" />
    <glyph glyph-name="gdotaccent.ss01" horiz-adv-x="1180" 
d="M217 -156q41 -98 124 -139t194 -41q77 0 146 15.5t121 60.5t81.5 124t29.5 208v75q-69 -98 -160 -138t-200 -40q-104 0 -191.5 37t-152 106.5t-100 170t-35.5 227.5q0 129 35.5 229.5t100 170t152 106.5t191.5 37q111 0 201 -38t157 -130v137h129v-952q0 -168 -48 -271.5
t-121.5 -160t-164 -76t-171.5 -19.5q-173 0 -292.5 76t-158.5 225h133zM911 539q0 198 -91 296.5t-267 98.5q-72 0 -134.5 -24.5t-109.5 -77t-74.5 -132t-27.5 -188.5q0 -111 26.5 -190.5t73.5 -132t110.5 -77t135.5 -24.5q176 0 267 102.5t91 319.5v29zM561 1278
q-39 0 -69 29t-30 67t30 67t69 29q38 0 67 -29t29 -67t-29 -67t-67 -29z" />
    <glyph glyph-name="glyph610" horiz-adv-x="763" 
d="M445 1573l-259 295h145l246 -295h-132z" />
    <glyph glyph-name="nine.dnom" horiz-adv-x="669" 
d="M338 867q66 0 119 -23t90 -61t56.5 -89t19.5 -106q0 -45 -9.5 -86.5t-29 -84t-49.5 -89.5t-70 -104l-160 -223h-123l217 304q-30 -13 -68 -13q-65 0 -116.5 21.5t-88 59.5t-56 90t-19.5 114q0 60 20 113t57 92.5t90.5 62t119.5 22.5zM337 772q-41 0 -74.5 -14.5t-57 -40
t-36 -60.5t-12.5 -75q0 -43 12 -79t35 -61.5t57 -40t76 -14.5t76 15t57.5 41t36 62.5t12.5 78.5q0 41 -12.5 75.5t-36.5 59.5t-57.5 39t-75.5 14z" />
    <glyph glyph-name="nine.numr" horiz-adv-x="669" 
d="M338 1502q66 0 119 -23t90 -61t56.5 -89t19.5 -106q0 -45 -9.5 -86.5t-29 -84t-49.5 -89.5t-70 -104l-160 -223h-123l217 304q-30 -13 -68 -13q-65 0 -116.5 21.5t-88 59.5t-56 90t-19.5 114q0 60 20 113t57 92.5t90.5 62t119.5 22.5zM337 1407q-41 0 -74.5 -14.5
t-57 -40t-36 -60.5t-12.5 -75q0 -43 12 -79t35 -61.5t57 -40t76 -14.5t76 15t57.5 41t36 62.5t12.5 78.5q0 41 -12.5 75.5t-36.5 59.5t-57.5 39t-75.5 14z" />
    <glyph glyph-name="nine.tnum" horiz-adv-x="1190" 
d="M594 1505q119 0 212 -41t156.5 -109t97 -155.5t33.5 -180.5q0 -74 -13.5 -141.5t-45.5 -141t-85 -159t-132 -194.5l-278 -383h-156l400 549q-80 -48 -200 -48q-112 0 -202.5 37t-154 103t-98 157t-34.5 199q0 102 34 194.5t98.5 162t157.5 110.5t210 41zM594 1387
q-84 0 -151 -29.5t-114.5 -82t-73 -123.5t-25.5 -155q0 -87 25.5 -157t73.5 -118.5t116 -75t153 -26.5q87 0 154 28.5t112.5 80t69 124.5t23.5 163q0 77 -25.5 144.5t-73 118t-114.5 79.5t-150 29z" />
    <glyph glyph-name="one.dnom" horiz-adv-x="484" 
d="M220 0v596h-206v89q185 9 221 169h89v-854h-104z" />
    <glyph glyph-name="one.numr" horiz-adv-x="484" 
d="M220 636v595h-206v90q185 9 221 169h89v-854h-104z" />
    <glyph glyph-name="one.tnum" horiz-adv-x="1190" 
d="M659 0v1069h-365v105q87 4 152.5 25t113 59.5t77.5 93.5t47 126h108v-1478h-133z" />
    <glyph glyph-name="seven.dnom" horiz-adv-x="659" 
d="M234 0h-108l356 759h-432v95h548v-69z" />
    <glyph glyph-name="seven.numr" horiz-adv-x="659" 
d="M234 635h-108l356 759h-432v95h548v-69z" />
    <glyph glyph-name="seven.tnum" horiz-adv-x="1190" 
d="M440 0h-142l642 1355h-810v120h946v-120z" />
    <glyph glyph-name="six.dnom" horiz-adv-x="658" 
d="M264 558q30 13 68 13q66 0 118 -21.5t89 -60t56.5 -91t19.5 -115.5q0 -62 -20 -115.5t-57.5 -93t-91.5 -62.5t-121 -23q-68 0 -121.5 23t-90.5 62t-57 90t-20 107q0 46 9 88t28.5 86t50 91.5t72.5 103.5l162 214h126zM326 474q-43 0 -77 -15t-58 -41.5t-36.5 -63
t-12.5 -79.5q0 -42 13 -76.5t37 -60t58 -39.5t76 -14t75.5 14.5t57.5 40.5t36.5 61.5t12.5 76.5q0 43 -12.5 79t-36 62t-57.5 40.5t-76 14.5z" />
    <glyph glyph-name="six.numr" horiz-adv-x="658" 
d="M264 1193q30 13 68 13q66 0 118 -21.5t89 -60t56.5 -91t19.5 -115.5q0 -62 -20 -115.5t-57.5 -93t-91.5 -62.5t-121 -23q-68 0 -121.5 23t-90.5 62t-57 90t-20 107q0 46 9 88t28.5 86t50 91.5t72.5 103.5l162 214h126zM326 1109q-43 0 -77 -15t-58 -41.5t-36.5 -63
t-12.5 -79.5q0 -42 13 -76.5t37 -60t58 -39.5t76 -14t75.5 14.5t57.5 40.5t36.5 61.5t12.5 76.5q0 43 -12.5 79t-36 62t-57.5 40.5t-76 14.5z" />
    <glyph glyph-name="six.tnum" horiz-adv-x="1190" 
d="M405 925q83 49 199 49q112 0 202.5 -36.5t154.5 -102.5t98.5 -157t34.5 -200q0 -104 -34 -196t-98.5 -162t-157.5 -110.5t-211 -40.5q-117 0 -209.5 40.5t-156.5 108t-98 155.5t-34 183q0 73 13 139.5t44.5 139.5t84.5 159t134 197l278 384h155zM590 855
q-87 0 -153.5 -28t-112.5 -79.5t-69.5 -125t-23.5 -163.5q0 -78 25.5 -145.5t72.5 -118t114 -79.5t150 -29q84 0 152 29.5t115 82t72.5 124t25.5 155.5q0 87 -25.5 156.5t-73.5 118.5t-116 75.5t-153 26.5z" />
    <glyph glyph-name="three.dnom" horiz-adv-x="727" 
d="M359 866q57 0 104 -16t80.5 -45t52 -69t18.5 -87q0 -138 -117 -190q141 -53 141 -206q0 -60 -21.5 -109t-59 -84t-89.5 -54t-112 -19q-131 0 -207.5 70.5t-91.5 206.5h101q25 -182 198 -182q40 0 72.5 12t56 34.5t36 54t12.5 70.5q0 153 -185 153l-71 -1v95h69
q162 0 162 142q0 57 -38.5 93t-109.5 36q-166 0 -184 -180h-102q32 275 285 275z" />
    <glyph glyph-name="three.numr" horiz-adv-x="727" 
d="M359 1505q57 0 104 -16t80.5 -45t52 -69t18.5 -87q0 -138 -117 -190q141 -53 141 -206q0 -60 -21.5 -109t-59 -84t-89.5 -54t-112 -19q-131 0 -207.5 70.5t-91.5 206.5h101q25 -182 198 -182q40 0 72.5 12t56 34.5t36 54t12.5 70.5q0 153 -185 153l-71 -1v95h69
q162 0 162 142q0 57 -38.5 93t-109.5 36q-166 0 -184 -180h-102q32 275 285 275z" />
    <glyph glyph-name="three.tnum" horiz-adv-x="1190" 
d="M610 1505q92 0 170 -27.5t134.5 -78t88.5 -121t32 -157.5q0 -112 -60.5 -199t-172.5 -135q137 -40 212 -134.5t75 -228.5q0 -104 -36 -188.5t-100.5 -143.5t-154 -91t-197.5 -32q-114 0 -205.5 32.5t-157 94t-101.5 150t-37 200.5h124q5 -175 103 -268t275 -93
q82 0 147.5 22.5t110.5 66t69 106.5t24 144q0 70 -25 125.5t-73 94.5t-117.5 60t-159.5 21h-98v114h99q78 0 138.5 20t101.5 56.5t62 88t21 115.5q0 62 -21.5 112t-60 84.5t-92 53t-117.5 18.5q-300 0 -348 -319h-126q14 105 53 186t99.5 137t141.5 85t179 29z" />
    <glyph glyph-name="glyph626" horiz-adv-x="1070" 
d="M367 1816q24 0 45 -3.5t43.5 -11t47 -20t55.5 -30.5q43 -27 79.5 -43t58.5 -16q88 0 93 120h107q-4 -107 -55 -164t-139 -57q-54 0 -99 20t-95 50q-26 15 -46 25.5t-35.5 17t-27.5 9t-23 2.5q-92 0 -96 -120h-106q4 109 53.5 165t139.5 56z" />
    <glyph glyph-name="two.dnom" horiz-adv-x="639" 
d="M327 863q59 0 107 -16.5t81.5 -47.5t52 -75.5t18.5 -99.5q0 -105 -52 -188q-24 -38 -83.5 -102.5t-142.5 -140.5l-110 -99h393v-97h-544v86l161 148l85.5 80l61 60.5t43 47.5t30.5 40q28 39 40 78.5t12 84.5q0 145 -153 145q-156 0 -180 -157h-101q17 125 89.5 189
t191.5 64z" />
    <glyph glyph-name="two.numr" horiz-adv-x="639" 
d="M327 1502q59 0 107 -16.5t81.5 -47.5t52 -75.5t18.5 -99.5q0 -105 -52 -188q-24 -38 -83.5 -102.5t-142.5 -140.5l-110 -99h393v-97h-544v86l161 148l85.5 80l61 60.5t43 47.5t30.5 40q28 39 40 78.5t12 84.5q0 145 -153 145q-156 0 -180 -157h-101q17 125 89.5 189
t191.5 64z" />
    <glyph glyph-name="two.tnum" horiz-adv-x="1190" 
d="M477 430l168.5 156.5t142 153t97.5 161t36 180.5q0 69 -22 125.5t-63 96.5t-99.5 62t-130.5 22q-297 0 -345 -318h-126q13 104 51.5 185t98.5 137t141 85t180 29t182 -30.5t142.5 -86.5t93 -134t33.5 -173q0 -105 -36 -195.5t-98 -174t-145.5 -164.5l-178.5 -168
l-293 -261h756v-118h-936v114z" />
    <glyph glyph-name="zero.dnom" horiz-adv-x="740" 
d="M370 867q81 0 139.5 -31t96.5 -88.5t56 -139t18 -181.5q0 -101 -18 -182t-56 -138.5t-96.5 -88.5t-139.5 -31q-80 0 -138.5 31t-96.5 88.5t-56.5 138.5t-18.5 182q0 100 18.5 181.5t56.5 139t96.5 88.5t138.5 31zM370 765q-54 0 -91.5 -23.5t-61.5 -68t-35 -107
t-11 -140.5t11 -141t35 -107t61.5 -67.5t91.5 -23.5t92 23.5t62 67.5t35 107t11 141t-11 140.5t-35 107t-62 68t-92 23.5z" />
    <glyph glyph-name="zero.numr" horiz-adv-x="740" 
d="M370 1502q81 0 139.5 -31t96.5 -88.5t56 -139t18 -181.5q0 -101 -18 -182t-56 -138.5t-96.5 -88.5t-139.5 -31q-80 0 -138.5 31t-96.5 88.5t-56.5 138.5t-18.5 182q0 100 18.5 181.5t56.5 139t96.5 88.5t138.5 31zM370 1400q-54 0 -91.5 -23.5t-61.5 -68t-35 -107
t-11 -140.5t11 -141t35 -107t61.5 -67.5t91.5 -23.5t92 23.5t62 67.5t35 107t11 141t-11 140.5t-35 107t-62 68t-92 23.5z" />
    <glyph glyph-name="zero.tnum" horiz-adv-x="1190" 
d="M594 1505q262 0 396 -195.5t134 -572.5t-134 -572.5t-396 -195.5q-261 0 -395.5 195.5t-134.5 572.5t134.5 572.5t395.5 195.5zM594 1388q-394 0 -394 -651t394 -651t394 651t-394 651z" />
    <glyph glyph-name="uniFB00" unicode="&#xfb00;" horiz-adv-x="1380" 
d="M381 0h-129v905h-217v117h217v154q0 180 80 248.5t215 68.5q64 0 117 -8v-119q-58 6 -109 6q-98 0 -136 -45t-38 -147v-158h254v-117h-254v-905zM1071 0h-129v905h-217v117h217v154q0 180 80 248.5t215 68.5q64 0 117 -8v-119q-58 6 -109 6q-98 0 -136 -45t-38 -147v-158
h254v-117h-254v-905z" />
    <glyph glyph-name="uniFB03" unicode="&#xfb03;" horiz-adv-x="1800" 
d="M381 0h-129v905h-217v117h217v154q0 180 80 248.5t215 68.5q64 0 117 -8v-119q-58 6 -109 6q-98 0 -136 -45t-38 -147v-158h254v-117h-254v-905zM1071 0h-129v905h-217v117h217v154q0 180 80 248.5t215 68.5q64 0 117 -8v-119q-58 6 -109 6q-98 0 -136 -45t-38 -147v-158
h254v-117h-254v-905zM1590 1294q-39 0 -68.5 29.5t-29.5 67.5t29.5 67t68.5 29q38 0 67 -29t29 -67q0 -39 -29 -68t-67 -29zM1525 0v1022h129v-1022h-129z" />
    <glyph glyph-name="uniFB04" unicode="&#xfb04;" horiz-adv-x="1800" 
d="M381 0h-129v905h-217v117h217v154q0 180 80 248.5t215 68.5q64 0 117 -8v-119q-58 6 -109 6q-98 0 -136 -45t-38 -147v-158h254v-117h-254v-905zM1071 0h-129v905h-217v117h217v154q0 180 80 248.5t215 68.5q64 0 117 -8v-119q-58 6 -109 6q-98 0 -136 -45t-38 -147v-158
h254v-117h-254v-905zM1660 0h-129v1475h129v-1475z" />
    <glyph glyph-name="uni0002" horiz-adv-x="0" 
 />
    <glyph glyph-name="uni0009" unicode="&#x9;" horiz-adv-x="477" 
 />
    <glyph glyph-name="uni000A" unicode="&#xa;" horiz-adv-x="477" 
 />
    </font>
</defs>
</svg>
