<?xml version="1.0" standalone="no"?>
<!DOCTYPE svg PUBLIC "-//W3C//DTD SVG 1.1//EN" "http://www.w3.org/Graphics/SVG/1.1/DTD/svg11.dtd" >
<svg xmlns="http://www.w3.org/2000/svg" xmlns:xlink="http://www.w3.org/1999/xlink" version="1.1">
<metadata>
Created by FontForge 20170910 at Thu Jul 12 14:37:55 2018
 By Jimmy Wärting
</metadata>
<defs>
<font id="Sunrise-Bold" horiz-adv-x="386" >
  <font-face 
    font-family="Sunrise"
    font-weight="700"
    font-stretch="normal"
    units-per-em="1000"
    panose-1="2 0 8 6 4 0 0 2 0 4"
    ascent="800"
    descent="-200"
    x-height="538"
    cap-height="722"
    bbox="-145 -275 986 964"
    underline-thickness="50"
    underline-position="-100"
    unicode-range="U+000D-FB02"
  />
<missing-glyph horiz-adv-x="193" 
 />
    <glyph glyph-name=".notdef" horiz-adv-x="193" 
 />
    <glyph glyph-name="exclam" unicode="!" horiz-adv-x="242" 
d="M85 212l-19 510h110l-19 -510h-72zM172 0h-102v118h102v-118z" />
    <glyph glyph-name="quotedbl" unicode="&#x22;" horiz-adv-x="290" 
d="M35 448v274h82v-274h-82zM173 448v274h82v-274h-82z" />
    <glyph glyph-name="numbersign" unicode="#" 
d="M355 292v-78h-63l-21 -214h-78l22 214h-71l-21 -214h-79l22 214h-57v78h66l13 138h-58v78h66l22 214h78l-22 -214h70l22 214h78l-22 -214h55v-78h-62l-14 -138h54zM236 430h-69l-14 -138h70z" />
    <glyph glyph-name="dollar" unicode="$" horiz-adv-x="366" 
d="M130 541q0 -27 11 -45.5t28 -32.5t39 -27t43.5 -29.5t41.5 -38.5t33 -55q11 -29 11 -117q0 -85 -10 -119q-16 -53 -57 -72q-23 -10 -62 -14v-74h-64v75q-52 8 -85 47q-9 11 -14 24t-7.5 26t-3 24t-0.5 18v108h96q0 -88 3 -104q9 -56 52 -56q49 0 49 97q0 76 -14 101
q-20 36 -72 73q-59 44 -77 66q-36 44 -37 116q-1 101 25 143q25 43 85 54v77h64v-75q122 -17 114 -227h-98q0 65 -5 89q-8 49 -35 49q-35 0 -46 -31q-8 -21 -8 -70z" />
    <glyph glyph-name="percent" unicode="%" horiz-adv-x="674" 
d="M337 588q0 -31 -11.5 -57t-31.5 -45t-47 -29.5t-57 -10.5t-57 10.5t-47 29.5t-31.5 45t-11.5 57t11.5 57.5t31.5 46t46.5 30t57.5 10.5t57.5 -10.5t46.5 -30t31.5 -46t11.5 -57.5zM84 588q0 -21 8.5 -39.5t23 -32t34 -21.5t40.5 -8t40.5 8t34 21.5t23 32t8.5 39.5
q0 22 -8.5 41t-23 33t-34 22t-40.5 8t-40.5 -8t-34 -22t-23 -33t-8.5 -41zM568 725l-433 -744l-30 17l431 744zM630 131q0 -31 -11.5 -57t-31 -44.5t-46.5 -29t-57 -10.5t-57 10.5t-47 29t-31.5 44.5t-11.5 57t11.5 57.5t31.5 46t46.5 30t57.5 10.5t57.5 -10.5t46 -30
t31 -46t11.5 -57.5zM377 131q0 -21 8.5 -39.5t23.5 -32t34.5 -21.5t40.5 -8t40.5 8t34 21.5t23 32t8.5 39.5q0 22 -8.5 41t-23 33t-34 22t-40.5 8t-40.5 -8t-34.5 -22t-23.5 -33t-8.5 -41z" />
    <glyph glyph-name="ampersand" unicode="&#x26;" horiz-adv-x="484" 
d="M166 589q0 -55 30 -139q52 79 52 132q0 78 -39 78q-43 0 -43 -71zM351 350l88 -27q-11 -59 -59 -189q28 -28 61 -34v-110q-72 2 -122 55q-51 -55 -124 -55q-68 0 -109 47t-41 122q0 102 83 204q-50 126 -50 199q0 76 35.5 123t100.5 47q59 0 93.5 -41t34.5 -109
q0 -59 -36 -120q-16 -28 -72 -99q35 -82 78 -147q30 88 39 134zM144 175q0 -32 18 -54.5t45 -22.5q28 0 49 21q-57 78 -85 145q-27 -48 -27 -89z" />
    <glyph glyph-name="quoteright" unicode="&#x2019;" horiz-adv-x="193" 
d="M148 722v-118l-60 -124h-46l43 124h-39v118h102z" />
    <glyph glyph-name="parenleft" unicode="(" horiz-adv-x="234" 
d="M28 381q0 61 10.5 116.5t28 104.5t40.5 92t49 79h50q-47 -78 -79.5 -177.5t-32.5 -214.5q0 -124 28.5 -226.5t83.5 -196.5h-50q-28 43 -51.5 89.5t-40.5 98.5t-26.5 110.5t-9.5 124.5z" />
    <glyph glyph-name="parenright" unicode=")" horiz-adv-x="234" 
d="M206 381q0 -66 -9.5 -124.5t-26.5 -110.5t-40.5 -98.5t-51.5 -89.5h-50q55 94 83.5 196.5t28.5 226.5q0 115 -32.5 214.5t-79.5 177.5h50q25 -36 48.5 -79t41 -92t28 -104.5t10.5 -116.5z" />
    <glyph glyph-name="asterisk" unicode="*" horiz-adv-x="354" 
d="M72 478l60 87l-95 33l18 46l95 -31v109h54v-109l95 31l18 -46l-96 -33l61 -87l-43 -30l-62 92l-62 -92z" />
    <glyph glyph-name="plus" unicode="+" horiz-adv-x="575" 
d="M258 608h59v-218h217v-59h-217v-218h-59v218h-217v59h217v218z" />
    <glyph glyph-name="comma" unicode="," horiz-adv-x="193" 
d="M148 118v-118l-60 -124h-46l42 124h-39v118h103z" />
    <glyph glyph-name="hyphen" unicode="-" horiz-adv-x="326" 
d="M39 390h248v-59h-248v59z" />
    <glyph glyph-name="period" unicode="." horiz-adv-x="193" 
d="M148 0h-103v118h103v-118z" />
    <glyph glyph-name="slash" unicode="/" horiz-adv-x="326" 
d="M49 -10h-67l294 742h68z" />
    <glyph glyph-name="zero" unicode="0" 
d="M244 157v408q0 69 -50 69t-50 -69v-408q0 -69 50 -69t50 69zM41 188v346q0 103 36.5 150.5t116.5 47.5t116.5 -47.5t36.5 -150.5v-346q0 -103 -36.5 -150.5t-116.5 -47.5t-116.5 47.5t-36.5 150.5z" />
    <glyph glyph-name="one" unicode="1" 
d="M154 0v572h-85v67q81 47 128 93h54v-732h-97z" />
    <glyph glyph-name="two" unicode="2" 
d="M338 0h-300v97q118 198 154 272q53 110 53 183q0 82 -49 82q-52 0 -52 -75v-49h-102v34q0 82 43 135t117 53q65 0 105.5 -47.5t40.5 -112.5q0 -88 -37 -176q-39 -95 -163 -294h190v-102z" />
    <glyph glyph-name="three" unicode="3" 
d="M39 209h98v-49q0 -72 49 -72q51 0 51 85v55q0 58 -21 80t-71 22v98q49 0 68 23.5t19 86.5q0 52 -10 74t-34 22q-48 0 -48 -74v-30h-97v34q0 75 39 121.5t108 46.5q66 0 105 -56q35 -52 35 -129q0 -67 -13 -101q-15 -40 -55 -65q47 -28 62.5 -65.5t15.5 -113.5
q0 -212 -157 -212q-144 0 -144 176v43z" />
    <glyph glyph-name="four" unicode="4" 
d="M96 266h107v282h-1zM202 0v174h-188v92l182 456h105v-456h57v-92h-57v-174h-99z" />
    <glyph glyph-name="five" unicode="5" 
d="M43 209h98v-58q0 -63 48 -63q53 0 53 88v164q0 66 -45 66q-41 0 -59 -55h-82q7 261 7 371h261l-3 -102h-170l-6 -156l2 -2q31 42 83 42q115 0 115 -190v-100q0 -116 -34.5 -170t-112.5 -54q-155 0 -155 164v55z" />
    <glyph glyph-name="six" unicode="6" 
d="M333 528h-94v37q0 69 -46 69q-50 0 -50 -69v-169q24 27 38 36q20 12 50 12q51 0 81 -34q34 -39 34 -114v-86q0 -115 -36 -167.5t-117 -52.5q-80 0 -116.5 47.5t-36.5 150.5v346q0 103 36 150t117 48q63 1 101.5 -44.5t38.5 -115.5v-44zM143 313v-156q0 -69 50 -69t50 69
v120q0 69 -45 69q-19 0 -55 -33z" />
    <glyph glyph-name="seven" unicode="7" 
d="M229 620h-180v102h284v-70l-128 -652h-102z" />
    <glyph glyph-name="eight" unicode="8" 
d="M40 200q0 71 13 111q14 46 52 74q-57 48 -57 144q-1 203 144 203t145 -203q0 -97 -56 -144q38 -28 52 -74q13 -40 13 -111q0 -210 -153 -210t-153 210zM193 88q56 0 56 120t-56 120t-56 -120t56 -120zM193 436q47 0 47 99t-47 99t-47 -99t47 -99z" />
    <glyph glyph-name="nine" unicode="9" 
d="M53 194h94v-37q0 -69 46 -69q50 0 50 69v169q-24 -27 -38 -36q-20 -12 -50 -12q-51 0 -81 34q-34 39 -34 114v86q0 115 36 167.5t117 52.5q80 0 116.5 -47.5t36.5 -150.5v-346q0 -103 -36 -150t-117 -48q-63 -1 -101.5 44.5t-38.5 115.5v44zM243 409v156q0 69 -50 69
t-50 -69v-120q0 -69 45 -69q19 0 55 33z" />
    <glyph glyph-name="colon" unicode=":" horiz-adv-x="193" 
d="M148 0h-103v118h103v-118zM148 278h-103v118h103v-118z" />
    <glyph glyph-name="semicolon" unicode=";" horiz-adv-x="193" 
d="M148 118v-118l-60 -124h-46l42 124h-39v118h103zM148 278h-103v118h103v-118z" />
    <glyph glyph-name="less" unicode="&#x3c;" horiz-adv-x="575" 
d="M534 166v-63l-493 231v53l493 220v-63l-415 -184z" />
    <glyph glyph-name="equal" unicode="=" horiz-adv-x="575" 
d="M534 427h-493v59h493v-59zM534 235h-493v59h493v-59z" />
    <glyph glyph-name="greater" unicode="&#x3e;" horiz-adv-x="575" 
d="M456 360l-415 184v63l493 -220v-53l-493 -231v63z" />
    <glyph glyph-name="question" unicode="?" horiz-adv-x="338" 
d="M203 212h-84v84q0 77 45.5 173.5t45.5 125.5q0 18 -10.5 31.5t-26.5 13.5q-46 0 -61 -76l-84 36q41 132 158 132q50 0 87.5 -38.5t37.5 -95.5q0 -60 -28 -111l-52 -88q-28 -57 -28 -133v-54zM211 0h-103v118h103v-118z" />
    <glyph glyph-name="at" unicode="@" horiz-adv-x="774" 
d="M325 198q22 0 42.5 13t38.5 34t33 48t25.5 55t16 55.5t5.5 49.5q0 29 -18.5 49.5t-48.5 20.5q-39 0 -70.5 -23.5t-53.5 -59t-34 -76t-12 -73.5q0 -18 5 -34.5t14.5 -29.5t23.5 -21t33 -8zM542 563h65l-99 -296q-6 -16 -9.5 -30t-2.5 -24t7.5 -16t21.5 -6q30 0 58 22
t49.5 56.5t34.5 76t13 80.5q0 60 -22.5 107.5t-60.5 80.5t-88.5 50.5t-105.5 17.5q-68 0 -124.5 -26t-97.5 -70t-64 -103.5t-23 -125.5t24 -124t65.5 -101t98.5 -68t123 -25q76 0 145.5 35t114.5 98h57q-23 -42 -57 -76t-76 -57.5t-89 -36t-95 -12.5q-78 0 -146 29.5
t-117.5 80.5t-78 119t-28.5 145q0 76 29 143t79 117t116.5 79t141.5 29q70 0 132 -23.5t107.5 -64.5t72 -97.5t26.5 -123.5q0 -58 -21 -110t-54 -91t-73.5 -62t-79.5 -23q-26 0 -51 12.5t-33 38.5q-22 -23 -54 -36t-63 -13q-32 0 -57 11.5t-42 31.5t-26.5 47t-9.5 57
q0 49 17.5 101.5t49 95.5t76.5 71t99 28q35 0 65 -16t45 -48z" />
    <glyph glyph-name="A" unicode="A" 
d="M193 578l-43 -310h87l-42 310h-2zM135 160l-20 -160h-104l116 722h134l115 -722h-104l-19 160h-118z" />
    <glyph glyph-name="B" unicode="B" horiz-adv-x="415" 
d="M140 324v-222h45q78 0 78 111t-88 111h-35zM140 620v-194h39q32 0 52.5 24t20.5 68q1 102 -71 102h-41zM32 0v722h160q167 0 167 -191q0 -116 -75 -151q87 -44 87 -171q0 -209 -168 -209h-171z" />
    <glyph glyph-name="C" unicode="C" horiz-adv-x="416" 
d="M257 483v53q0 87 -49 87q-54 0 -54 -81v-363q0 -80 54 -80q49 0 49 74v73h102v-69q0 -82 -37 -132q-41 -55 -114 -55q-77 0 -118 55q-38 50 -38 132v368q0 82 38 132q41 55 118 55q73 0 114 -59q37 -54 37 -141v-49h-102z" />
    <glyph glyph-name="D" unicode="D" horiz-adv-x="435" 
d="M160 620v-518h38q43 0 60 22t17 79v316q0 57 -17 79t-61 22h-37zM52 0v722h161q171 0 170 -218l-1 -286q0 -218 -170 -218h-160z" />
    <glyph glyph-name="E" unicode="E" 
d="M353 0h-301v722h289v-108h-181v-186h139v-108h-139v-212h193v-108z" />
    <glyph glyph-name="F" unicode="F" 
d="M160 0h-108v722h301v-108h-193v-186h144v-108h-144v-320z" />
    <glyph glyph-name="G" unicode="G" horiz-adv-x="435" 
d="M202 268v98h176v-366h-52l-20 54q-25 -35 -47 -48q-25 -16 -62 -16q-65 0 -104.5 50t-39.5 135v372q0 81 39 131q43 54 119 54q78 0 122 -58q40 -54 40 -140v-46h-103q0 78 -15 109q-13 27 -46 27q-48 0 -48 -79v-371q0 -76 50 -76q32 0 45.5 23t13.5 77v70h-68z" />
    <glyph glyph-name="H" unicode="H" horiz-adv-x="402" 
d="M52 0v722h97v-313h104v313h97v-722h-97v316h-104v-316h-97z" />
    <glyph glyph-name="I" unicode="I" horiz-adv-x="242" 
d="M175 0h-108v722h108v-722z" />
    <glyph glyph-name="J" unicode="J" horiz-adv-x="242" 
d="M3 -10v108h22q57 0 57 60v564h108v-578q0 -75 -31 -111q-36 -43 -120 -43h-36z" />
    <glyph glyph-name="K" unicode="K" 
d="M155 0h-108v722h108v-267h2l113 267h108l-117 -269l131 -453h-109l-88 336h-2l-38 -80v-256z" />
    <glyph glyph-name="L" unicode="L" horiz-adv-x="338" 
d="M325 0h-278v722h108v-614h170v-108z" />
    <glyph glyph-name="M" unicode="M" horiz-adv-x="518" 
d="M472 722v-722h-105v408l-74 -408h-71l-72 411v-411h-104v722h118l94 -396l101 396h113z" />
    <glyph glyph-name="N" unicode="N" horiz-adv-x="423" 
d="M52 0v722h109l109 -376v376h101v-722h-90l-127 451v-451h-102z" />
    <glyph glyph-name="O" unicode="O" horiz-adv-x="421" 
d="M52 548q0 82 37 131q41 53 118 53q79 0 122 -53q40 -50 40 -131v-375q0 -81 -38 -130q-42 -53 -120 -53t-120 53q-39 48 -39 130v375zM156 176q0 -81 55 -81t55 81l-1 369q0 81 -54 81q-55 0 -55 -81v-369z" />
    <glyph glyph-name="P" unicode="P" horiz-adv-x="435" 
d="M160 620v-222h42q53 0 72.5 23.5t19.5 87.5t-19.5 87.5t-72.5 23.5h-42zM160 0h-108v722h155q101 0 148 -49.5t47 -163.5t-47 -163.5t-148 -49.5h-47v-296z" />
    <glyph glyph-name="Q" unicode="Q" horiz-adv-x="435" 
d="M415 54l-1 -108q-52 11 -61 16q-22 11 -48 51q-35 -23 -88 -23q-81 0 -125 54q-40 50 -40 131v372q0 81 40 131q44 54 126 54q81 0 125 -54q40 -50 40 -131v-372q0 -54 -19 -93q26 -26 51 -28zM225 148l1 110q14 -8 49 -44v330q0 80 -58 80q-57 0 -57 -80v-366
q0 -80 57 -80q24 0 37 11q-11 23 -29 39z" />
    <glyph glyph-name="R" unicode="R" horiz-adv-x="435" 
d="M160 620v-222h38q44 0 62 24t18 87t-18 87t-62 24h-38zM160 296v-296h-108v722h151q93 0 138 -50t45 -163q0 -143 -76 -182l92 -327h-110l-76 299q-21 -3 -56 -3z" />
    <glyph glyph-name="S" unicode="S" horiz-adv-x="366" 
d="M130 541q0 -27 11 -45.5t28 -32.5t39 -27t43.5 -29.5t41.5 -38.5t33 -55q11 -29 11 -117q0 -85 -10 -119q-16 -53 -57 -72q-32 -15 -99 -15q-70 0 -112 49q-9 11 -14 24t-7.5 26t-3 24t-0.5 18v108h96q0 -88 3 -104q9 -56 52 -56q49 0 49 97q0 76 -14 101q-20 36 -72 73
q-59 44 -77 66q-36 44 -37 116q-1 101 25 143q34 57 128 57q144 0 135 -228h-98q0 65 -5 89q-8 49 -35 49q-35 0 -46 -31q-8 -21 -8 -70z" />
    <glyph glyph-name="T" unicode="T" horiz-adv-x="338" 
d="M115 0v614h-105v108h317v-108h-104v-614h-108z" />
    <glyph glyph-name="U" unicode="U" horiz-adv-x="435" 
d="M52 182v540h108v-545q0 -79 58 -79q57 0 57 79v545h108v-540q0 -92 -44 -142t-121 -50q-78 0 -122 50t-44 142z" />
    <glyph glyph-name="V" unicode="V" 
d="M194 221l78 501h106l-131 -722h-108l-131 722h106l78 -501h2z" />
    <glyph glyph-name="W" unicode="W" horiz-adv-x="580" 
d="M169 262l70 460h89l73 -460h2l60 460h101l-111 -722h-90l-78 477h-2l-73 -477h-91l-119 722h101l66 -460h2z" />
    <glyph glyph-name="X" unicode="X" 
d="M12 0l124 378l-115 344h106l66 -229h2l60 229h106l-109 -344l122 -378h-106l-73 263h-2l-75 -263h-106z" />
    <glyph glyph-name="Y" unicode="Y" 
d="M247 300v-300h-108v300l-130 422h110l75 -275h2l72 275h110z" />
    <glyph glyph-name="Z" unicode="Z" 
d="M240 614h-177v108h286v-118l-199 -496h199v-108h-310v118z" />
    <glyph glyph-name="bracketleft" unicode="[" horiz-adv-x="220" 
d="M31 773h164v-51h-104v-713h104v-51h-164v815z" />
    <glyph glyph-name="backslash" unicode="\" horiz-adv-x="326" 
d="M-18 732h68l294 -742h-67z" />
    <glyph glyph-name="bracketright" unicode="]" horiz-adv-x="219" 
d="M188 -42h-164v51h104v713h-104v51h164v-815z" />
    <glyph glyph-name="asciicircum" unicode="^" horiz-adv-x="365" 
d="M147 722h72l97 -143h-46l-87 105l-89 -105h-45z" />
    <glyph glyph-name="underscore" unicode="_" horiz-adv-x="435" 
d="M0 -10v49h435v-49h-435z" />
    <glyph glyph-name="quoteleft" unicode="&#x2018;" horiz-adv-x="193" 
d="M45 490v118l60 124h46l-43 -124h40v-118h-103z" />
    <glyph glyph-name="a" unicode="a" 
d="M133 380h-97q4 81 45.5 124.5t111.5 43.5q141 0 141 -146l1 -345q0 -12 5 -57h-93q-2 15 -5 42q-57 -52 -114 -52q-48 0 -74 35q-25 32 -25 86q0 86 52 143q47 53 156 101v32q0 69 -48 69q-53 0 -56 -76zM237 132v141q-64 -42 -87.5 -73.5t-23.5 -68.5q0 -49 45 -49
q35 0 66 50z" />
    <glyph glyph-name="b" unicode="b" 
d="M139 0h-92v722h98v-230q34 33 49 42q23 14 52 14q47 0 73 -38.5t26 -111.5l-1 -258q0 -72 -26.5 -111t-72.5 -39q-35 0 -57 14.5t-47 51.5h-2v-56zM145 428v-318q33 -28 55 -28q47 0 47 87v200q0 87 -47 87q-22 0 -55 -28z" />
    <glyph glyph-name="c" unicode="c" 
d="M345 354h-98v14q0 88 -54 88t-54 -88v-198q0 -88 54 -88t54 88v34h98v-14q0 -200 -152 -200q-151 0 -151 200v158q0 200 151 200q149 0 152 -194z" />
    <glyph glyph-name="d" unicode="d" 
d="M339 0h-93v56h-2q-25 -37 -47 -51.5t-57 -14.5q-99 0 -99 150v258q0 150 99 150q29 0 52 -14q15 -9 49 -42v230h98v-722zM241 110v318q-33 28 -56 28q-47 0 -47 -87v-200q0 -87 48 -87q22 0 55 28z" />
    <glyph glyph-name="e" unicode="e" 
d="M139 340h108v28q0 88 -54 88t-54 -88v-28zM344 348v-100h-205v-78q0 -88 54 -88t54 88v12h98q-3 -192 -152 -192q-151 0 -151 200v158q0 200 151 200t151 -200z" />
    <glyph glyph-name="f" unicode="f" horiz-adv-x="242" 
d="M66 0v446h-57v92h57v67q0 127 109 127h49v-92h-28q-32 0 -32 -36v-66h56v-92h-56v-446h-98z" />
    <glyph glyph-name="g" unicode="g" 
d="M370 548v-93q-5 1 -15 1q-29 0 -47 -17q11 -43 11 -85q1 -119 -37 -169q-34 -47 -112 -47h-31q-20 -6 -20 -25q0 -27 65 -30q92 -5 121 -17q66 -26 66 -108q0 -128 -201 -128q-154 0 -155 86q0 30 18.5 53.5t45.5 30.5v2q-44 20 -44 68t59 87q-38 30 -50 64
q-13 38 -13 129q0 110 34 154t117 44q65 0 109 -58q21 35 35.5 46.5t43.5 11.5zM201 -90q47 0 64.5 9t17.5 31t-17.5 31t-65.5 9q-47 0 -64 -9t-17 -31t17.5 -31t64.5 -9zM172 230h1q29 0 38 22.5t9 90.5t-10 90.5t-39 22.5q-25 0 -35 -22q-12 -26 -12 -91t13 -91
q10 -22 35 -22z" />
    <glyph glyph-name="h" unicode="h" 
d="M47 0v722h97v-234l24.5 24.5t24.5 19t28.5 12t36.5 4.5q38 0 59.5 -30t21.5 -83v-435h-97v417q0 20 -9.5 29.5t-25.5 9.5t-31 -10t-32 -24v-422h-97z" />
    <glyph glyph-name="i" unicode="i" horiz-adv-x="193" 
d="M145 0h-97v538h97v-538zM145 620h-97v102h97v-102z" />
    <glyph glyph-name="j" unicode="j" horiz-adv-x="193" 
d="M0 -170v102h16q37 0 37 42v564h98v-569q0 -139 -113 -139h-38zM151 620h-98v102h98v-102z" />
    <glyph glyph-name="k" unicode="k" 
d="M358 538l-102 -170l113 -368h-98l-79 267h-1l-47 -79v-188h-97v722h97v-374h2l107 190h105z" />
    <glyph glyph-name="l" unicode="l" horiz-adv-x="193" 
d="M145 0h-97v722h97v-722z" />
    <glyph glyph-name="m" unicode="m" horiz-adv-x="580" 
d="M338 0h-98v417q0 39 -34 39q-23 0 -62 -34v-422h-98v538h92v-54q39 38 52 47q25 17 56 17q35 0 54 -15q15 -13 32 -49q58 64 109 64q91 0 91 -113v-435h-98l1 417q0 39 -36 39q-23 0 -61 -34v-422z" />
    <glyph glyph-name="n" unicode="n" 
d="M144 0h-97v538h92v-54q39 38 54 47q27 17 65 17t59.5 -30t21.5 -83v-435h-97v417q0 39 -35 39q-22 0 -63 -34v-422z" />
    <glyph glyph-name="o" unicode="o" 
d="M247 170v198q0 88 -54 88t-54 -88l1 -198q0 -88 53 -88q54 0 54 88zM42 190v158q0 200 152 200q151 0 151 -200v-158q0 -200 -152 -200q-151 0 -151 200z" />
    <glyph glyph-name="p" unicode="p" 
d="M47 538h92v-56h3q25 37 47 51.5t57 14.5q47 0 73 -38.5t26 -111.5l-1 -258q0 -72 -26 -111t-72 -39q-29 0 -52 15q-15 8 -49 41v-216h-98v708zM145 428v-318q33 -28 55 -28q47 0 47 87v200q0 87 -47 87q-22 0 -55 -28z" />
    <glyph glyph-name="q" unicode="q" 
d="M247 538h92v-708h-98v216q-34 -33 -49 -41q-23 -15 -52 -15q-47 0 -73 38.5t-26 111.5l1 258q0 72 26.5 111t72.5 39q35 0 57 -14.5t47 -51.5h2v56zM241 110v318q-33 28 -55 28q-47 0 -47 -87v-200q0 -87 47 -87q22 0 55 28z" />
    <glyph glyph-name="r" unicode="r" horiz-adv-x="290" 
d="M144 0h-97v538h93v-63h2q37 73 110 73h20v-117q-37 11 -63 11q-27 0 -46 -19t-19 -53v-370z" />
    <glyph glyph-name="s" unicode="s" horiz-adv-x="338" 
d="M300 56q-15 -41 -52 -55q-29 -11 -89 -11q-62 0 -102 38q-19 19 -23 59q-1 6 -2 92h88q0 -69 3 -81q8 -42 47 -42q45 0 46 72q1 57 -14 79q-18 27 -66 55q-53 32 -69 49q-33 33 -33 88q0 76 22 107q31 42 116 42q131 -1 123 -168h-89q0 48 -4 67q-8 34 -32 34
q-32 0 -42 -23q-7 -15 -7 -53q0 -39 37 -59.5t80 -47t61 -65.5q10 -22 11 -88q1 -59 -10 -89z" />
    <glyph glyph-name="t" unicode="t" horiz-adv-x="242" 
d="M63 446h-54v92h54v145h98v-145h65v-92h-65v-310q0 -44 33 -44h32l-1 -96q-19 -6 -48 -6q-114 0 -114 121v335z" />
    <glyph glyph-name="u" unicode="u" 
d="M242 538h97v-538h-92v54q-39 -38 -53 -47q-28 -17 -66 -17t-59.5 30t-21.5 83v435h97v-417q0 -39 35 -39q22 0 63 34v422z" />
    <glyph glyph-name="v" unicode="v" horiz-adv-x="338" 
d="M170 178l61 360h99l-113 -538h-95l-113 538h99l60 -360h2z" />
    <glyph glyph-name="w" unicode="w" horiz-adv-x="484" 
d="M144 202l61 336h73l52 -336h2l53 336h94l-108 -538h-79l-53 340h-1l-64 -340h-78l-91 538h94l43 -336h2z" />
    <glyph glyph-name="x" unicode="x" horiz-adv-x="338" 
d="M11 0l104 285l-97 253h101l50 -150l52 150h101l-101 -251l106 -287h-101l-56 182h-2l-56 -182h-101z" />
    <glyph glyph-name="y" unicode="y" horiz-adv-x="338" 
d="M173 194l59 344h98l-123 -578q-15 -72 -46 -100.5t-87 -28.5h-41v92h23q65 0 66 87q0 21 -11 71l-102 457h99l63 -344h2z" />
    <glyph glyph-name="z" unicode="z" horiz-adv-x="338" 
d="M204 446h-166v92h274v-92l-182 -354h182v-92h-287v92z" />
    <glyph glyph-name="braceleft" unicode="{" horiz-adv-x="215" 
d="M65 88v190q0 32 -13.5 48t-51.5 18v50q37 1 51 17t14 48v185q0 70 32.5 99.5t93.5 29.5h17v-51h-15q-37 0 -52.5 -17t-15.5 -63v-187q0 -71 -53 -85v-2q28 -8 40.5 -28t12.5 -57v-194q0 -46 15.5 -63t52.5 -17h15v-51h-17q-61 0 -93.5 30t-32.5 100z" />
    <glyph glyph-name="bar" unicode="|" horiz-adv-x="166" 
d="M54 814h58v-905h-58v905z" />
    <glyph glyph-name="braceright" unicode="}" horiz-adv-x="242" 
d="M150 88q0 -70 -32.5 -100t-93.5 -30h-17v51h15q37 0 52.5 17t15.5 63v194q0 37 12.5 57t40.5 28v2q-53 14 -53 85v187q0 46 -15.5 63t-52.5 17h-15v51h17q61 0 93.5 -29.5t32.5 -99.5v-185q0 -32 14 -48t51 -17v-50q-38 -2 -51.5 -18t-13.5 -48v-190z" />
    <glyph glyph-name="asciitilde" unicode="~" horiz-adv-x="598" 
d="M307 388q29 -14 55.5 -24.5t45.5 -10.5q17 0 32 8.5t27.5 21t22 27.5t16.5 28l39 -33q-10 -20 -23.5 -39.5t-31 -34.5t-38 -24.5t-45.5 -9.5q-27 0 -57 11t-59 24.5t-54.5 25t-44.5 11.5q-20 0 -36 -9t-29 -23t-23 -30.5t-19 -30.5l-32 46q10 16 23.5 34t30 33t37.5 25
t48 10q26 0 56 -11t59 -25z" />
    <glyph glyph-name="exclamdown" unicode="&#xa1;" horiz-adv-x="242" 
d="M157 326l19 -510h-110l19 510h72zM70 538h102v-118h-102v118z" />
    <glyph glyph-name="cent" unicode="&#xa2;" 
d="M137 148l70 317q-4 1 -13 1q-64 0 -64 -88l1 -198q0 -10 5 -32h1zM349 364h-91v14q0 39 -13 59l-80 -337q11 -8 30 -8q61 0 61 88v34h97v-14q0 -200 -159 -200q-22 0 -38 4l-28 -120h-65l34 145q-64 46 -64 171v158q0 200 161 200q10 0 28 -2l30 128h65l-36 -150
q66 -45 68 -170z" />
    <glyph glyph-name="sterling" unicode="&#xa3;" 
d="M30 -10v107q40 15 54 65q13 45 13 157h-67v84h55q-24 122 -24 164q0 165 143 165q140 0 140 -202h-89q-2 65 -13.5 87.5t-39.5 22.5q-44 0 -44 -64q0 -34 9 -84q15 -80 16 -89h86v-84h-77q-3 -148 -31 -203q29 -24 61 -24q44 0 44 107h87v-59q0 -71 -30.5 -110.5
t-85.5 -39.5q-60 0 -111 48q-54 -43 -96 -48z" />
    <glyph glyph-name="fraction" unicode="&#x2044;" horiz-adv-x="145" 
d="M-66 -10h-79l356 742h79z" />
    <glyph glyph-name="yen" unicode="&#xa5;" 
d="M364 468v-84h-106l-23 -80h129v-84h-129v-220h-84v220h-129v84h129l-23 80h-106v84h76l-79 254h87l88 -299h2l84 299h87l-79 -254h76z" />
    <glyph glyph-name="florin" unicode="&#x192;" 
d="M30 -73q9 -5 25 -5q23 0 37 16t23 63t15.5 133.5t14.5 227.5h-81v84h87q4 80 18.5 135t36 88.5t50 48t60.5 14.5q11 0 20.5 -1.5t20.5 -3.5v-94q-20 13 -45 13q-14 0 -26 -9t-21 -31.5t-14.5 -61t-6.5 -98.5h88v-84h-92q-6 -127 -15.5 -226t-28 -167t-50 -103.5
t-82.5 -35.5q-17 0 -34 5v92z" />
    <glyph glyph-name="section" unicode="&#xa7;" horiz-adv-x="435" 
d="M349 652l-60 -50q-40 52 -65 52q-46 0 -46 -46q0 -34 55 -93q50 -55 101 -109q55 -68 55 -126q0 -50 -25 -83.5t-69 -34.5q44 -49 44 -108t-32.5 -96.5t-82.5 -37.5q-75 0 -148 81l64 57q28 -60 68 -60q51 0 51 50q0 35 -55 98q-52 59 -104 117q-55 72 -55 128
q0 49 26.5 79t70.5 35q-44 38 -44 105q0 55 32 88.5t93 33.5q77 0 126 -80zM125 399q0 -24 60 -98.5t84 -74.5q17 0 28.5 13t11.5 31q0 23 -59.5 97t-86.5 74q-38 0 -38 -42z" />
    <glyph glyph-name="currency" unicode="&#xa4;" horiz-adv-x="417" 
d="M-15 181l66 68q-18 26 -27 56.5t-9 63.5q0 68 36 119l-66 68l43 41l64 -66q23 17 52.5 27.5t64.5 10.5t64.5 -10.5t52.5 -27.5l64 66l43 -41l-66 -68q35 -52 35 -119q0 -33 -9.5 -63.5t-26.5 -55.5l67 -69l-43 -41l-65 66q-23 -17 -52 -26.5t-64 -9.5t-64 9.5t-52 26.5
l-65 -66zM323 369q0 29 -7.5 54.5t-22 44t-36 29t-48.5 10.5t-48.5 -10.5t-36.5 -29t-22.5 -44t-7.5 -54.5q0 -59 30 -98t85 -39t84.5 39t29.5 98z" />
    <glyph glyph-name="quotesingle" unicode="'" horiz-adv-x="193" 
d="M56 448v274h81v-274h-81z" />
    <glyph glyph-name="quotedblleft" unicode="&#x201c;" 
d="M61 490v118l60 124h46l-43 -124h40v-118h-103zM222 490v118l60 124h46l-43 -124h40v-118h-103z" />
    <glyph glyph-name="guillemotleft" unicode="&#xab;" horiz-adv-x="437" 
d="M209 552l-91 -192l90 -192h-49l-104 192l104 192h50zM387 552l-92 -192l91 -192h-49l-105 192l105 192h50z" />
    <glyph glyph-name="guilsinglleft" unicode="&#x2039;" horiz-adv-x="261" 
d="M210 552l-92 -192l91 -192h-49l-105 192l105 192h50z" />
    <glyph glyph-name="guilsinglright" unicode="&#x203a;" horiz-adv-x="261" 
d="M101 552l105 -192l-105 -192h-49l91 192l-92 192h50z" />
    <glyph glyph-name="fi" unicode="&#xfb01;" 
d="M54 0v446h-57v92h57v67q0 127 109 127h48v-92h-28q-32 0 -32 -36v-66h56v-92h-56v-446h-97zM338 0h-97v538h97v-538zM338 620h-97v102h97v-102z" />
    <glyph glyph-name="fl" unicode="&#xfb02;" 
d="M54 0v446h-57v92h57v67q0 127 109 127h48v-92h-28q-32 0 -32 -36v-66h56v-92h-56v-446h-97zM338 0h-97v722h97v-722z" />
    <glyph glyph-name="endash" unicode="&#x2013;" horiz-adv-x="493" 
d="M0 331v59h493v-59h-493z" />
    <glyph glyph-name="dagger" unicode="&#x2020;" horiz-adv-x="518" 
d="M57 487v55h172v180h60v-180h172v-55h-172v-487h-60v487h-172z" />
    <glyph glyph-name="daggerdbl" unicode="&#x2021;" horiz-adv-x="518" 
d="M57 487v55h172v180h60v-180h172v-55h-172v-255h172v-55h-172v-177h-60v177h-172v55h172v255h-172z" />
    <glyph glyph-name="periodcentered" unicode="&#xb7;" horiz-adv-x="193" 
 />
    <glyph glyph-name="paragraph" unicode="&#xb6;" horiz-adv-x="435" 
d="M170 -80v432q-75 0 -119.5 51t-44.5 131q1 188 180 188h251v-64h-49v-738h-71v738h-76v-738h-71z" />
    <glyph glyph-name="bullet" unicode="&#x2022;" horiz-adv-x="435" 
d="M99 360q0 24 9.5 46t25.5 38t37.5 25.5t46.5 9.5q24 0 45.5 -9.5t37.5 -25.5t25.5 -38t9.5 -46t-9.5 -45.5t-25.5 -37.5t-37.5 -25.5t-45.5 -9.5q-25 0 -46.5 9.5t-37.5 25.5t-25.5 37.5t-9.5 45.5z" />
    <glyph glyph-name="quotesinglbase" unicode="&#x201a;" horiz-adv-x="193" 
d="M148 118v-118l-60 -124h-46l43 124h-39v118h102z" />
    <glyph glyph-name="quotedblbase" unicode="&#x201e;" 
d="M325 118v-118l-60 -124h-46l43 124h-39v118h102zM164 118v-118l-60 -124h-46l43 124h-39v118h102z" />
    <glyph glyph-name="quotedblright" unicode="&#x201d;" 
d="M325 722v-118l-60 -124h-46l43 124h-39v118h102zM164 722v-118l-60 -124h-46l43 124h-39v118h102z" />
    <glyph glyph-name="guillemotright" unicode="&#xbb;" horiz-adv-x="437" 
d="M278 552l104 -192l-104 -192h-49l90 192l-91 192h50zM100 552l105 -192l-105 -192h-49l91 192l-92 192h50z" />
    <glyph glyph-name="ellipsis" unicode="&#x2026;" horiz-adv-x="870" 
d="M195 0h-103v118h103v-118zM486 0h-103v118h103v-118zM777 0h-103v118h103v-118z" />
    <glyph glyph-name="perthousand" unicode="&#x2030;" horiz-adv-x="968" 
d="M305 588q0 -31 -11.5 -57t-31.5 -45t-47 -29.5t-57 -10.5t-57 10.5t-46.5 29.5t-31 45t-11.5 57t11.5 57.5t31 46t46 30t57.5 10.5t57.5 -10.5t46.5 -30t31.5 -46t11.5 -57.5zM52 588q0 -21 8.5 -39.5t23 -32t34 -21.5t40.5 -8t40.5 8t34.5 21.5t23.5 32t8.5 39.5
q0 22 -8.5 41t-23.5 33t-34.5 22t-40.5 8t-40.5 -8t-34 -22t-23 -33t-8.5 -41zM536 725l-433 -744l-30 17l431 744zM599 131q0 -31 -11.5 -57t-31.5 -44.5t-47 -29t-57 -10.5t-57 10.5t-47 29t-31.5 44.5t-11.5 57t11.5 57.5t31.5 46t46.5 30t57.5 10.5t57.5 -10.5t46.5 -30
t31.5 -46t11.5 -57.5zM346 131q0 -21 8.5 -39.5t23 -32t34 -21.5t40.5 -8t40.5 8t34 21.5t23 32t8.5 39.5q0 22 -8.5 41t-23 33t-34 22t-40.5 8t-40.5 -8t-34 -22t-23 -33t-8.5 -41zM956 131q0 -31 -11.5 -57t-31.5 -44.5t-47 -29t-57 -10.5t-57 10.5t-47 29t-31.5 44.5
t-11.5 57t11.5 57.5t31.5 46t46.5 30t57.5 10.5t57.5 -10.5t46.5 -30t31.5 -46t11.5 -57.5zM703 131q0 -21 8.5 -39.5t23 -32t34 -21.5t40.5 -8t40.5 8t34 21.5t23 32t8.5 39.5q0 22 -8.5 41t-23 33t-34 22t-40.5 8t-40.5 -8t-34 -22t-23 -33t-8.5 -41z" />
    <glyph glyph-name="questiondown" unicode="&#xbf;" horiz-adv-x="338" 
d="M135 326h84v-84q0 -77 -45.5 -173.5t-45.5 -125.5q0 -18 10.5 -31.5t26.5 -13.5q46 0 61 76l84 -36q-40 -132 -158 -132q-50 0 -87.5 38.5t-37.5 95.5q0 60 28 111l52 88q28 57 28 133v54zM127 538h103v-118h-103v118z" />
    <glyph glyph-name="grave" unicode="`" horiz-adv-x="193" 
d="M86 602l-114 144h118l68 -144h-72z" />
    <glyph glyph-name="acute" unicode="&#xb4;" horiz-adv-x="193" 
d="M221 746l-114 -144h-72l69 144h117z" />
    <glyph glyph-name="circumflex" unicode="&#x2c6;" horiz-adv-x="193" 
d="M-35 602l84 144h95l84 -144h-80l-51 89l-52 -89h-80z" />
    <glyph glyph-name="tilde" unicode="&#x2dc;" horiz-adv-x="303" 
d="M293 733q-3 -21 -9.5 -42.5t-17 -38t-25.5 -27t-37 -10.5q-16 0 -29.5 6t-27.5 14q-13 8 -25.5 13.5t-26.5 5.5q-20 0 -28 -11t-9 -33h-48q3 21 9.5 42.5t17 38t25.5 27t37 10.5q16 0 30 -6t27 -13t25.5 -13.5t26.5 -6.5q20 0 28 11t9 33h48z" />
    <glyph glyph-name="macron" unicode="&#xaf;" horiz-adv-x="180" 
d="M-31 663v59h242v-59h-242z" />
    <glyph glyph-name="breve" unicode="&#x2d8;" horiz-adv-x="193" 
d="M174 749h50q-4 -62 -34 -99q-34 -43 -94 -43q-59 0 -93 43q-30 37 -34 99h50q7 -75 78 -74q70 -1 77 74z" />
    <glyph glyph-name="dotaccent" unicode="&#x2d9;" horiz-adv-x="193" 
d="M50 722h94v-108h-94v108z" />
    <glyph glyph-name="dieresis" unicode="&#xa8;" horiz-adv-x="193" 
d="M212 614h-94v108h94v-108zM-19 722h94v-108h-94v108z" />
    <glyph glyph-name="ring" unicode="&#x2da;" horiz-adv-x="193" 
d="M7 704q0 42 26 72t63 30t63 -30t26 -72t-26 -72t-63 -30t-63 30t-26 72zM51 704q0 -22 13 -37t32 -15t32 15t13 37t-13 37t-32 15t-32 -15t-13 -37z" />
    <glyph glyph-name="cedilla" unicode="&#xb8;" horiz-adv-x="193" 
d="M7 -163q11 -6 28 -11.5t29 -5.5q23 0 37 12t14 29q0 15 -8 23t-19.5 11t-23.5 1t-21 -6l-20 18l60 92h41l-35 -60q17 3 34 -0.5t31 -13.5t23 -25t9 -35q0 -24 -9 -43t-24 -32t-34.5 -20t-40.5 -7q-31 0 -53.5 9t-32.5 14z" />
    <glyph glyph-name="hungarumlaut" unicode="&#x2dd;" horiz-adv-x="193" 
d="M137 746l-109 -144h-68l60 144h117zM290 746l-114 -144h-72l69 144h117z" />
    <glyph glyph-name="ogonek" unicode="&#x2db;" horiz-adv-x="193" 
d="M211 9q-16 -8 -36 -19t-37.5 -26t-29.5 -35t-12 -45q0 -23 12.5 -35t29.5 -12q20 0 41.5 13.5t37.5 26.5l16 -36q-27 -23 -57.5 -41.5t-65.5 -18.5t-60.5 23.5t-25.5 68.5q0 39 20 65.5t49 43t61.5 25.5t56.5 14v-12z" />
    <glyph glyph-name="caron" unicode="&#x2c7;" horiz-adv-x="193" 
d="M144 602h-95l-84 144h80l52 -89l51 89h80z" />
    <glyph glyph-name="emdash" unicode="&#x2014;" horiz-adv-x="986" 
d="M0 331v59h986v-59h-986z" />
    <glyph glyph-name="AE" unicode="&#xc6;" horiz-adv-x="628" 
d="M195 278h96v354h-2zM11 0l202 722h370v-108h-184v-186h142v-108h-142v-212h196v-108h-304v170h-125l-46 -170h-109z" />
    <glyph glyph-name="ordfeminine" unicode="&#xaa;" horiz-adv-x="231" 
d="M80 631h-67q5 101 106 101q92 0 92 -88l-1 -208q0 -6 5 -34h-61q0 4 -2 11t-2 10q-31 -27 -73 -27q-65 0 -64 73q0 51 33 86q30 32 97 61v19q0 37 -30 37q-31 0 -33 -41zM143 486v73q-38 -22 -50.5 -38.5t-12.5 -38.5q0 -26 26 -26t37 30z" />
    <glyph glyph-name="Lslash" unicode="&#x141;" horiz-adv-x="338" 
d="M155 339v-231h170v-108h-278v290l-47 -22v82l47 22v350h108v-301l101 47v-82z" />
    <glyph glyph-name="Oslash" unicode="&#xd8;" horiz-adv-x="435" 
d="M162 257l110 325q-9 42 -54 42q-57 0 -57 -80v-287h1zM274 424l-102 -303q11 -23 46 -23q57 0 57 80v246h-1zM140 7l-44 -127h-71l60 176q-32 47 -32 119v372q0 81 40 131q44 54 124 54q54 0 91 -24l33 96h70l-52 -152q24 -43 24 -105v-372q0 -81 -40 -131
q-44 -54 -126 -54q-45 0 -77 17z" />
    <glyph glyph-name="OE" unicode="&#x152;" horiz-adv-x="628" 
d="M287 185v355q0 75 -60 75q-67 0 -67 -95l1 -315q0 -95 66 -95q60 0 60 75zM595 0h-359q-182 0 -183 220l-1 282q0 220 183 220h348v-108h-188v-186h146v-108h-146v-212h200v-108z" />
    <glyph glyph-name="ordmasculine" unicode="&#xba;" horiz-adv-x="231" 
d="M143 509v110q0 49 -27 49t-27 -49v-110q0 -49 27 -49t27 49zM18 517v95q0 120 98 120t98 -120v-95q0 -121 -98 -121t-98 121z" />
    <glyph glyph-name="ae" unicode="&#xe6;" horiz-adv-x="580" 
d="M237 132v141q-63 -42 -86.5 -73.5t-23.5 -68.5q0 -49 45 -49q35 0 65 50zM335 340h107l-1 28q-3 88 -53 88q-53 0 -53 -88v-28zM539 248h-204v-78q0 -88 53 -88q54 0 54 88v12h97q-3 -192 -152 -192q-81 0 -118 70q-69 -70 -129 -70q-110 0 -110 121q0 86 51 143
q48 53 156 101v32q0 69 -47 69q-53 0 -56 -76h-97q4 80 43.5 124t99.5 44q75 0 112 -50q33 50 103 50q144 0 144 -200v-100z" />
    <glyph glyph-name="dotlessi" unicode="&#x131;" horiz-adv-x="193" 
d="M145 0h-97v538h97v-538z" />
    <glyph glyph-name="lslash" unicode="&#x142;" horiz-adv-x="193" 
d="M146 390v-390h-98v333l-61 -36v74l61 36v315h98v-258l61 36v-74z" />
    <glyph glyph-name="oslash" unicode="&#xf8;" 
d="M245 353l-85 -259q15 -12 33 -12q54 0 54 88v183h-2zM133 1l-39 -121h-58l51 153q-45 51 -45 157v158q0 200 151 200q32 0 62 -11l35 109h60l-48 -143q42 -50 42 -155v-158q0 -200 -151 -200q-33 0 -60 11zM141 173l87 269q-13 14 -35 14q-54 0 -54 -88v-195h2z" />
    <glyph glyph-name="oe" unicode="&#x153;" horiz-adv-x="580" 
d="M242 170v198q0 88 -48 88q-54 0 -54 -88v-198q0 -88 53 -88q49 0 49 88zM340 340h101v28q0 88 -53 88q-48 0 -48 -88v-28zM539 248h-199v-78q0 -88 47 -88q54 0 54 88v12h98q-3 -192 -141 -192q-74 0 -106 62q-29 -62 -109 -62q-141 0 -141 200v158q0 200 141 200
q84 0 111 -61q31 61 104 61q141 0 141 -200v-100z" />
    <glyph glyph-name="germandbls" unicode="&#xdf;" 
d="M144 0h-97v540q0 188 138 188q148 0 148 -197q0 -124 -64 -134v-2q81 -29 81 -191q0 -114 -26 -161q-24 -43 -76 -43h-57v95q11 -3 23 -3q34 0 34 67v101q0 78 -53 78l-1 92q25 4 32.5 17.5t8.5 54.5l1 70q1 64 -46 64q-46 0 -46 -74v-562z" />
    <glyph glyph-name="onesuperior" unicode="&#xb9;" horiz-adv-x="231" 
d="M82 292v335h-45v48q47 21 86 57h42v-440h-83z" />
    <glyph glyph-name="logicalnot" unicode="&#xac;" horiz-adv-x="522" 
d="M396 99v209h-355v98h440v-307h-85z" />
    <glyph glyph-name="mu" unicode="&#xb5;" 
d="M242 538h97v-538h-92l1 54q-35 -34 -49 -44q-24 -17 -55 -20v-160h-97v708h97v-417q0 -39 35 -39q22 0 63 34v422z" />
    <glyph glyph-name="trademark" unicode="&#x2122;" horiz-adv-x="678" 
d="M30 722h236v-47h-90v-239h-56v239h-90v47zM313 722h80l62 -218h1l63 218h81v-286h-52v219h-2q-3 -13 -7 -27q-3 -12 -7.5 -26t-8.5 -28l-41 -138h-53l-41 138q-4 12 -8 26.5t-7 26.5l-7 28h-2v-219h-51v286z" />
    <glyph glyph-name="Eth" unicode="&#xd0;" horiz-adv-x="435" 
d="M17 320v108h35v294h161q170 0 170 -218v-286q0 -218 -171 -218h-160v320h-35zM224 428v-108h-64v-218h38q43 0 60 22t17 79v316q0 57 -17 79t-61 22h-37v-192h64z" />
    <glyph glyph-name="onehalf" unicode="&#xbd;" horiz-adv-x="579" 
d="M137 -10h-79l357 742h79zM87 292v335h-45v48q49 22 86 57h43v-440h-84zM551 0h-204v81q127 167 127 251q0 28 -24 28q-28 0 -28 -34v-19h-75v20q0 49 31.5 81t81.5 32q42 0 68 -28t26 -68q0 -61 -20 -111q-24 -64 -92 -153h109v-80z" />
    <glyph glyph-name="plusminus" unicode="&#xb1;" horiz-adv-x="522" 
d="M218 369v137h86v-137h177v-98h-177v-137h-86v137h-177v98h177zM41 0v98h440v-98h-440z" />
    <glyph glyph-name="Thorn" unicode="&#xde;" horiz-adv-x="435" 
d="M160 722v-140h47q101 0 148 -49.5t47 -163.5t-47 -163.5t-148 -49.5h-47v-156h-108v722h108zM160 480v-222h42q53 0 72.5 23.5t19.5 87.5t-19.5 87.5t-72.5 23.5h-42z" />
    <glyph glyph-name="onequarter" unicode="&#xbc;" horiz-adv-x="579" 
d="M390 176h56v133h-2zM446 0v100h-124v80l112 253h83v-257h33v-76h-33v-100h-71zM144 -10h-79l356 742h80zM89 292v335h-46v48q46 20 87 56h43v-439h-84z" />
    <glyph glyph-name="divide" unicode="&#xf7;" horiz-adv-x="575" 
d="M41 390h493v-59h-493v59zM251 522v86h74v-86h-74zM251 113v87h74v-87h-74z" />
    <glyph glyph-name="brokenbar" unicode="&#xa6;" horiz-adv-x="193" 
d="M139 296v-306h-85v306h85zM139 732v-306h-85v306h85z" />
    <glyph glyph-name="degree" unicode="&#xb0;" horiz-adv-x="348" 
d="M49 609q0 25 10 47.5t27 39.5t39.5 26.5t48.5 9.5t49 -9.5t40 -26.5t26.5 -39.5t9.5 -47.5q0 -26 -9.5 -48t-26.5 -39t-40 -26.5t-49 -9.5t-48.5 9.5t-39.5 26.5t-27 39t-10 48zM244 609q0 32 -19 54t-51 22t-51 -22t-19 -54q0 -33 19 -54.5t51 -21.5t51 21.5t19 54.5z
" />
    <glyph glyph-name="thorn" unicode="&#xfe;" 
d="M47 722h98v-235h2q21 33 42.5 47t56.5 14q47 0 73 -38.5t26 -111.5v-258q-1 -72 -27 -111t-72 -39q-29 0 -52 15q-15 8 -49 41v-216h-98v892zM145 428v-318q33 -28 55 -28q47 0 47 87v200q0 87 -47 87q-22 0 -55 -28z" />
    <glyph glyph-name="threequarters" unicode="&#xbe;" horiz-adv-x="579" 
d="M390 176h55v133h-1zM445 0v100h-123v80l112 253h83v-257h33v-76h-33v-100h-72zM160 -10h-79l357 742h79zM26 418h75v-21q0 -31 23 -31q24 0 24 39v25q0 33 -12 45q-10 9 -38 9v74q26 0 37 11.5t11 46.5q0 40 -22 40t-22 -28v-17h-73v20q0 45 26.5 73t71.5 28q48 0 75 -34
q24 -30 24 -77q0 -73 -41 -99q28 -17 37 -39.5t9 -68.5q0 -128 -109 -128q-96 0 -96 107v25z" />
    <glyph glyph-name="twosuperior" unicode="&#xb2;" horiz-adv-x="231" 
d="M217 292h-205v81q127 167 128 251q0 28 -25 28q-28 0 -28 -34v-19h-75l1 20q2 49 33 81t80 32q42 0 68 -28t26 -68q0 -61 -20 -111q-25 -64 -93 -153h110v-80z" />
    <glyph glyph-name="registered" unicode="&#xae;" horiz-adv-x="776" 
d="M17 362q0 76 29.5 143.5t80 117.5t118 79.5t144.5 29.5q76 0 143.5 -29.5t118 -79.5t79.5 -117.5t29 -143.5q0 -77 -29 -144.5t-79.5 -118t-118 -80t-143.5 -29.5q-77 0 -144.5 29.5t-118 80t-80 118t-29.5 144.5zM699 362q0 67 -23 124.5t-64.5 98.5t-98.5 64.5
t-124 23.5q-68 0 -125.5 -23.5t-99 -64.5t-65 -98.5t-23.5 -124.5q0 -69 23.5 -126.5t65 -99t99 -64.5t125.5 -23q67 0 124 23t98.5 64.5t64.5 99t23 126.5zM304 152h-54v424h182q83 0 115.5 -30.5t32.5 -87.5q0 -30 -10 -51.5t-27.5 -35.5t-41.5 -21.5t-52 -9.5l126 -188
h-61l-119 188h-91v-188zM379 390q22 0 47 -0.5t46 5t35 20t14 44.5q0 22 -8.5 35.5t-22.5 21t-32.5 9.5t-37.5 2h-116v-137h75z" />
    <glyph glyph-name="minus" unicode="&#x2212;" horiz-adv-x="522" 
d="M481 204h-440v98h440v-98z" />
    <glyph glyph-name="eth" unicode="&#xf0;" 
d="M247 163v162q0 81 -54 81t-54 -81l1 -162q0 -81 53 -81q54 0 54 81zM336 718l26 -70l-82 -37q65 -133 65 -297v-140q0 -184 -152 -184q-151 0 -151 184v140q0 184 151 184q7 0 33 -2q-3 35 -26 80l-91 -40l-24 72l81 35q-19 33 -41 55l75 24q22 -18 41 -46z" />
    <glyph glyph-name="multiply" unicode="&#xd7;" horiz-adv-x="522" 
d="M481 437l-159 -184l159 -183l-60 -70l-160 184l-160 -184l-60 70l160 183l-160 184l60 69l160 -184l160 184z" />
    <glyph glyph-name="threesuperior" unicode="&#xb3;" horiz-adv-x="231" 
d="M17 418h75v-21q0 -31 23 -31q24 0 24 39v25q0 33 -12 45q-10 9 -37 9l-1 74q26 0 37 11.5t11 46.5q0 40 -22 40t-22 -28v-17h-73v20q0 45 26.5 73t71.5 28q48 0 75 -34q25 -30 25 -77q1 -72 -41 -99q28 -17 36.5 -39.5t8.5 -68.5q-1 -128 -109 -128q-96 0 -96 107v25z
" />
    <glyph glyph-name="copyright" unicode="&#xa9;" horiz-adv-x="776" 
d="M17 362q0 76 29.5 143.5t80 117.5t118 79.5t144.5 29.5q76 0 143.5 -29.5t118 -79.5t79.5 -117.5t29 -143.5q0 -77 -29 -144.5t-79.5 -118t-118 -80t-143.5 -29.5q-77 0 -144.5 29.5t-118 80t-80 118t-29.5 144.5zM389 49q68 0 125 23t98.5 64.5t64.5 99t23 126.5
q0 67 -23 124.5t-64.5 98.5t-98.5 64.5t-125 23.5t-125 -23.5t-98.5 -64.5t-65 -98.5t-23.5 -124.5q0 -69 23.5 -126.5t65 -99t98.5 -64.5t125 -23zM577 295q-3 -34 -18 -60.5t-38.5 -45t-53 -28.5t-61.5 -10q-47 0 -84.5 16.5t-64.5 45t-41.5 68t-14.5 84.5q0 46 14 84.5
t40 67t63.5 44.5t84.5 16q67 0 115.5 -36t58.5 -104h-55q-8 39 -41 64.5t-77 25.5q-37 0 -64 -13t-45 -35.5t-26.5 -51.5t-8.5 -61q0 -31 9.5 -60.5t27.5 -53t45.5 -38t63.5 -14.5q43 0 76.5 26.5t39.5 68.5h55z" />
    <glyph glyph-name="space" unicode=" " horiz-adv-x="193" 
 />
    <glyph glyph-name="Aacute" unicode="&#xc1;" 
d="M193 578l-43 -310h87l-42 310h-2zM135 160l-20 -160h-104l116 722h134l115 -722h-104l-19 160h-118zM318 904l-114 -144h-72l69 144h117z" />
    <glyph glyph-name="Acircumflex" unicode="&#xc2;" 
d="M193 578l-43 -310h87l-42 310h-2zM135 160l-20 -160h-104l116 722h134l115 -722h-104l-19 160h-118zM62 760l84 144h95l84 -144h-80l-51 89l-52 -89h-80z" />
    <glyph glyph-name="Adieresis" unicode="&#xc4;" 
d="M193 578l-43 -310h87l-42 310h-2zM135 160l-20 -160h-104l116 722h134l115 -722h-104l-19 160h-118zM309 772h-94v108h94v-108zM78 880h94v-108h-94v108z" />
    <glyph glyph-name="Agrave" unicode="&#xc0;" 
d="M193 578l-43 -310h87l-42 310h-2zM135 160l-20 -160h-104l116 722h134l115 -722h-104l-19 160h-118zM183 760l-114 144h118l68 -144h-72z" />
    <glyph glyph-name="Aring" unicode="&#xc5;" 
d="M193 578l-43 -310h87l-42 310h-2zM135 160l-20 -160h-104l116 722h134l115 -722h-104l-19 160h-118zM104 862q0 42 26 72t63 30t63 -30t26 -72t-26 -72t-63 -30t-63 30t-26 72zM148 862q0 -22 13 -37t32 -15t32 15t13 37t-13 37t-32 15t-32 -15t-13 -37z" />
    <glyph glyph-name="Atilde" unicode="&#xc3;" 
d="M193 578l-43 -310h87l-42 310h-2zM135 160l-20 -160h-104l116 722h134l115 -722h-104l-19 160h-118zM335 891q-3 -21 -9.5 -42.5t-17 -38t-25.5 -27t-37 -10.5q-16 0 -29.5 6t-27.5 14q-13 8 -25.5 13.5t-26.5 5.5q-20 0 -28 -11t-9 -33h-48q3 21 9.5 42.5t17 38t25.5 27
t37 10.5q16 0 30 -6t27 -13t25.5 -13.5t26.5 -6.5q20 0 28 11t9 33h48z" />
    <glyph glyph-name="Ccedilla" unicode="&#xc7;" horiz-adv-x="435" 
d="M266 483v53q0 87 -49 87q-54 0 -54 -81v-363q0 -80 54 -80q49 0 49 74v73h102v-69q0 -82 -37 -132q-41 -55 -114 -55q-77 0 -118 55q-38 50 -38 132v368q0 82 38 132q41 55 118 55q73 0 114 -59q37 -54 37 -141v-49h-102zM128 -163q11 -6 28 -11.5t29 -5.5q23 0 37 12
t14 29q0 15 -8 23t-19.5 11t-23.5 1t-21 -6l-20 18l60 92h41l-35 -60q17 3 34 -0.5t31 -13.5t23 -25t9 -35q0 -24 -9 -43t-24 -32t-34.5 -20t-40.5 -7q-31 0 -53.5 9t-32.5 14z" />
    <glyph glyph-name="Eacute" unicode="&#xc9;" 
d="M353 0h-301v722h289v-108h-181v-186h139v-108h-139v-212h193v-108zM328 904l-114 -144h-72l69 144h117z" />
    <glyph glyph-name="Ecircumflex" unicode="&#xca;" 
d="M353 0h-301v722h289v-108h-181v-186h139v-108h-139v-212h193v-108zM65 760l84 144h95l84 -144h-80l-51 89l-52 -89h-80z" />
    <glyph glyph-name="Edieresis" unicode="&#xcb;" 
d="M353 0h-301v722h289v-108h-181v-186h139v-108h-139v-212h193v-108zM312 772h-94v108h94v-108zM81 880h94v-108h-94v108z" />
    <glyph glyph-name="Egrave" unicode="&#xc8;" 
d="M353 0h-301v722h289v-108h-181v-186h139v-108h-139v-212h193v-108zM193 760l-114 144h118l68 -144h-72z" />
    <glyph glyph-name="Iacute" unicode="&#xcd;" horiz-adv-x="242" 
d="M175 0h-108v722h108v-722zM245 904l-114 -144h-72l69 144h117z" />
    <glyph glyph-name="Icircumflex" unicode="&#xce;" horiz-adv-x="242" 
d="M175 0h-108v722h108v-722zM-11 760l84 144h95l84 -144h-80l-51 89l-52 -89h-80z" />
    <glyph glyph-name="Idieresis" unicode="&#xcf;" horiz-adv-x="242" 
d="M175 0h-108v722h108v-722zM236 772h-94v108h94v-108zM5 880h94v-108h-94v108z" />
    <glyph glyph-name="Igrave" unicode="&#xcc;" horiz-adv-x="242" 
d="M175 0h-108v722h108v-722zM110 760l-114 144h118l68 -144h-72z" />
    <glyph glyph-name="Ntilde" unicode="&#xd1;" horiz-adv-x="435" 
d="M58 0v722h109l109 -376v376h101v-722h-90l-127 451v-451h-102zM360 891q-3 -21 -9.5 -42.5t-17 -38t-25.5 -27t-37 -10.5q-16 0 -29.5 6t-27.5 14q-13 8 -25.5 13.5t-26.5 5.5q-20 0 -28 -11t-9 -33h-48q3 21 9.5 42.5t17 38t25.5 27t37 10.5q16 0 30 -6t27 -13
t25.5 -13.5t26.5 -6.5q20 0 28 11t9 33h48z" />
    <glyph glyph-name="Oacute" unicode="&#xd3;" horiz-adv-x="435" 
d="M59 548q0 82 37 131q41 53 118 53q79 0 122 -53q40 -50 40 -131v-375q0 -81 -38 -130q-42 -53 -120 -53t-120 53q-39 48 -39 130v375zM163 176q0 -81 55 -81t55 81l-1 369q0 81 -54 81q-55 0 -55 -81v-369zM342 904l-114 -144h-72l69 144h117z" />
    <glyph glyph-name="Ocircumflex" unicode="&#xd4;" horiz-adv-x="435" 
d="M59 548q0 82 37 131q41 53 118 53q79 0 122 -53q40 -50 40 -131v-375q0 -81 -38 -130q-42 -53 -120 -53t-120 53q-39 48 -39 130v375zM163 176q0 -81 55 -81t55 81l-1 369q0 81 -54 81q-55 0 -55 -81v-369zM86 760l84 144h95l84 -144h-80l-51 89l-52 -89h-80z" />
    <glyph glyph-name="Odieresis" unicode="&#xd6;" horiz-adv-x="435" 
d="M59 548q0 82 37 131q41 53 118 53q79 0 122 -53q40 -50 40 -131v-375q0 -81 -38 -130q-42 -53 -120 -53t-120 53q-39 48 -39 130v375zM163 176q0 -81 55 -81t55 81l-1 369q0 81 -54 81q-55 0 -55 -81v-369zM333 772h-94v108h94v-108zM102 880h94v-108h-94v108z" />
    <glyph glyph-name="Ograve" unicode="&#xd2;" horiz-adv-x="435" 
d="M59 548q0 82 37 131q41 53 118 53q79 0 122 -53q40 -50 40 -131v-375q0 -81 -38 -130q-42 -53 -120 -53t-120 53q-39 48 -39 130v375zM163 176q0 -81 55 -81t55 81l-1 369q0 81 -54 81q-55 0 -55 -81v-369zM207 760l-114 144h118l68 -144h-72z" />
    <glyph glyph-name="Otilde" unicode="&#xd5;" horiz-adv-x="435" 
d="M59 548q0 82 37 131q41 53 118 53q79 0 122 -53q40 -50 40 -131v-375q0 -81 -38 -130q-42 -53 -120 -53t-120 53q-39 48 -39 130v375zM163 176q0 -81 55 -81t55 81l-1 369q0 81 -54 81q-55 0 -55 -81v-369zM360 891q-3 -21 -9.5 -42.5t-17 -38t-25.5 -27t-37 -10.5
q-16 0 -29.5 6t-27.5 14q-13 8 -25.5 13.5t-26.5 5.5q-20 0 -28 -11t-9 -33h-48q3 21 9.5 42.5t17 38t25.5 27t37 10.5q16 0 30 -6t27 -13t25.5 -13.5t26.5 -6.5q20 0 28 11t9 33h48z" />
    <glyph glyph-name="Scaron" unicode="&#x160;" 
d="M142 541q0 -27 11 -45.5t28 -32.5t39 -27t43.5 -29.5t41.5 -38.5t33 -55q11 -29 11 -117q0 -85 -10 -119q-16 -53 -57 -72q-32 -15 -99 -15q-70 0 -112 49q-9 11 -14 24t-7.5 26t-3 24t-0.5 18v108h96q0 -88 3 -104q9 -56 52 -56q49 0 49 97q0 76 -14 101q-20 36 -72 73
q-59 44 -77 66q-36 44 -37 116q-1 101 25 143q34 57 128 57q144 0 135 -228h-98q0 65 -5 89q-8 49 -35 49q-35 0 -46 -31q-8 -21 -8 -70zM237 760h-95l-84 144h80l52 -89l51 89h80z" />
    <glyph glyph-name="Uacute" unicode="&#xda;" horiz-adv-x="435" 
d="M52 182v540h108v-545q0 -79 58 -79q57 0 57 79v545h108v-540q0 -92 -44 -142t-121 -50q-78 0 -122 50t-44 142zM342 904l-114 -144h-72l69 144h117z" />
    <glyph glyph-name="Ucircumflex" unicode="&#xdb;" horiz-adv-x="435" 
d="M52 182v540h108v-545q0 -79 58 -79q57 0 57 79v545h108v-540q0 -92 -44 -142t-121 -50q-78 0 -122 50t-44 142zM86 760l84 144h95l84 -144h-80l-51 89l-52 -89h-80z" />
    <glyph glyph-name="Udieresis" unicode="&#xdc;" horiz-adv-x="435" 
d="M52 182v540h108v-545q0 -79 58 -79q57 0 57 79v545h108v-540q0 -92 -44 -142t-121 -50q-78 0 -122 50t-44 142zM333 772h-94v108h94v-108zM102 880h94v-108h-94v108z" />
    <glyph glyph-name="Ugrave" unicode="&#xd9;" horiz-adv-x="435" 
d="M52 182v540h108v-545q0 -79 58 -79q57 0 57 79v545h108v-540q0 -92 -44 -142t-121 -50q-78 0 -122 50t-44 142zM207 760l-114 144h118l68 -144h-72z" />
    <glyph glyph-name="Yacute" unicode="&#xdd;" 
d="M247 300v-300h-108v300l-130 422h110l75 -275h2l72 275h110zM305 904l-114 -144h-72l69 144h117z" />
    <glyph glyph-name="Ydieresis" unicode="&#x178;" 
d="M247 300v-300h-108v300l-130 422h110l75 -275h2l72 275h110zM309 772h-94v108h94v-108zM78 880h94v-108h-94v108z" />
    <glyph glyph-name="Zcaron" unicode="&#x17d;" 
d="M240 614h-177v108h286v-118l-199 -496h199v-108h-310v118zM254 760h-95l-84 144h80l52 -89l51 89h80z" />
    <glyph glyph-name="scaron" unicode="&#x161;" horiz-adv-x="338" 
d="M300 56q-15 -41 -52 -55q-29 -11 -89 -11q-62 0 -102 38q-19 19 -23 59q-1 6 -2 92h88q0 -69 3 -81q8 -42 47 -42q45 0 46 72q1 57 -14 79q-18 27 -66 55q-53 32 -69 49q-33 33 -33 88q0 76 22 107q31 42 116 42q131 -1 123 -168h-89q0 48 -4 67q-8 34 -32 34
q-32 0 -42 -23q-7 -15 -7 -53q0 -39 37 -59.5t80 -47t61 -65.5q10 -22 11 -88q1 -59 -10 -89zM212 602h-95l-84 144h80l52 -89l51 89h80z" />
    <glyph glyph-name="yacute" unicode="&#xfd;" horiz-adv-x="338" 
d="M173 194l59 344h98l-123 -578q-15 -72 -46 -100.5t-87 -28.5h-41v92h23q65 0 66 87q0 21 -11 71l-102 457h99l63 -344h2zM294 746l-114 -144h-72l69 144h117z" />
    <glyph glyph-name="ydieresis" unicode="&#xff;" horiz-adv-x="338" 
d="M173 194l59 344h98l-123 -578q-15 -72 -46 -100.5t-87 -28.5h-41v92h23q65 0 66 87q0 21 -11 71l-102 457h99l63 -344h2zM285 614h-94v108h94v-108zM54 722h94v-108h-94v108z" />
    <glyph glyph-name="zcaron" unicode="&#x17e;" horiz-adv-x="338" 
d="M204 446h-166v92h274v-92l-182 -354h182v-92h-287v92zM223 602h-95l-84 144h80l52 -89l51 89h80z" />
    <glyph glyph-name="aacute" unicode="&#xe1;" 
d="M317 746l-114 -144h-72l69 144h117zM133 380h-97q4 81 45.5 124.5t111.5 43.5q141 0 141 -146l1 -345q0 -12 5 -57h-93q-2 15 -5 42q-57 -52 -114 -52q-48 0 -74 35q-25 32 -25 86q0 86 52 143q47 53 156 101v32q0 69 -48 69q-53 0 -56 -76zM237 132v141
q-64 -42 -87.5 -73.5t-23.5 -68.5q0 -49 45 -49q35 0 66 50z" />
    <glyph glyph-name="agrave" unicode="&#xe0;" 
d="M133 380h-97q4 81 45.5 124.5t111.5 43.5q141 0 141 -146l1 -345q0 -12 5 -57h-93q-2 15 -5 42q-57 -52 -114 -52q-48 0 -74 35q-25 32 -25 86q0 86 52 143q47 53 156 101v32q0 69 -48 69q-53 0 -56 -76zM237 132v141q-64 -42 -87.5 -73.5t-23.5 -68.5q0 -49 45 -49
q35 0 66 50zM170 602l-114 144h118l68 -144h-72z" />
    <glyph glyph-name="acircumflex" unicode="&#xe2;" 
d="M133 380h-97q4 81 45.5 124.5t111.5 43.5q141 0 141 -146l1 -345q0 -12 5 -57h-93q-2 15 -5 42q-57 -52 -114 -52q-48 0 -74 35q-25 32 -25 86q0 86 52 143q47 53 156 101v32q0 69 -48 69q-53 0 -56 -76zM237 132v141q-64 -42 -87.5 -73.5t-23.5 -68.5q0 -49 45 -49
q35 0 66 50zM49 602l84 144h95l84 -144h-80l-51 89l-52 -89h-80z" />
    <glyph glyph-name="adieresis" unicode="&#xe4;" 
d="M133 380h-97q4 81 45.5 124.5t111.5 43.5q141 0 141 -146l1 -345q0 -12 5 -57h-93q-2 15 -5 42q-57 -52 -114 -52q-48 0 -74 35q-25 32 -25 86q0 86 52 143q47 53 156 101v32q0 69 -48 69q-53 0 -56 -76zM237 132v141q-64 -42 -87.5 -73.5t-23.5 -68.5q0 -49 45 -49
q35 0 66 50zM295 614h-94v108h94v-108zM64 722h94v-108h-94v108z" />
    <glyph glyph-name="atilde" unicode="&#xe3;" 
d="M133 380h-97q4 81 45.5 124.5t111.5 43.5q141 0 141 -146l1 -345q0 -12 5 -57h-93q-2 15 -5 42q-57 -52 -114 -52q-48 0 -74 35q-25 32 -25 86q0 86 52 143q47 53 156 101v32q0 69 -48 69q-53 0 -56 -76zM237 132v141q-64 -42 -87.5 -73.5t-23.5 -68.5q0 -49 45 -49
q35 0 66 50zM321 733q-3 -21 -9.5 -42.5t-17 -38t-25.5 -27t-37 -10.5q-16 0 -29.5 6t-27.5 14q-13 8 -25.5 13.5t-26.5 5.5q-20 0 -28 -11t-9 -33h-48q3 21 9.5 42.5t17 38t25.5 27t37 10.5q16 0 30 -6t27 -13t25.5 -13.5t26.5 -6.5q20 0 28 11t9 33h48z" />
    <glyph glyph-name="aring" unicode="&#xe5;" 
d="M133 380h-97q4 81 45.5 124.5t111.5 43.5q141 0 141 -146l1 -345q0 -12 5 -57h-93q-2 15 -5 42q-57 -52 -114 -52q-48 0 -74 35q-25 32 -25 86q0 86 52 143q47 53 156 101v32q0 69 -48 69q-53 0 -56 -76zM237 132v141q-64 -42 -87.5 -73.5t-23.5 -68.5q0 -49 45 -49
q35 0 66 50zM92 704q0 42 26 72t63 30t63 -30t26 -72t-26 -72t-63 -30t-63 30t-26 72zM136 704q0 -22 13 -37t32 -15t32 15t13 37t-13 37t-32 15t-32 -15t-13 -37z" />
    <glyph glyph-name="ccedilla" unicode="&#xe7;" 
d="M92 -163q11 -6 28 -11.5t29 -5.5q23 0 37 12t14 29q0 15 -8 23t-19.5 11t-23.5 1t-21 -6l-20 18l60 92h41l-35 -60q17 3 34 -0.5t31 -13.5t23 -25t9 -35q0 -24 -9 -43t-24 -32t-34.5 -20t-40.5 -7q-31 0 -53.5 9t-32.5 14zM247 354v14q0 88 -54 88t-54 -88v-198
q0 -88 54 -88t54 88v34h98v-14q0 -200 -152 -200q-151 0 -151 200v158q0 200 151 200q149 0 152 -194h-98z" />
    <glyph glyph-name="eacute" unicode="&#xe9;" 
d="M139 340h108v28q0 88 -54 88t-54 -88v-28zM344 348v-100h-205v-78q0 -88 54 -88t54 88v12h98q-3 -192 -152 -192q-151 0 -151 200v158q0 200 151 200t151 -200zM305 746l-114 -144h-72l69 144h117z" />
    <glyph glyph-name="egrave" unicode="&#xe8;" 
d="M139 340h108v28q0 88 -54 88t-54 -88v-28zM344 348v-100h-205v-78q0 -88 54 -88t54 88v12h98q-3 -192 -152 -192q-151 0 -151 200v158q0 200 151 200t151 -200zM171 602l-114 144h118l68 -144h-72z" />
    <glyph glyph-name="ecircumflex" unicode="&#xea;" 
d="M139 340h108v28q0 88 -54 88t-54 -88v-28zM344 348v-100h-205v-78q0 -88 54 -88t54 88v12h98q-3 -192 -152 -192q-151 0 -151 200v158q0 200 151 200t151 -200zM61 602l84 144h95l84 -144h-80l-51 89l-52 -89h-80z" />
    <glyph glyph-name="edieresis" unicode="&#xeb;" 
d="M139 340h108v28q0 88 -54 88t-54 -88v-28zM344 348v-100h-205v-78q0 -88 54 -88t54 88v12h98q-3 -192 -152 -192q-151 0 -151 200v158q0 200 151 200t151 -200zM308 614h-94v108h94v-108zM77 722h94v-108h-94v108z" />
    <glyph glyph-name="iacute" unicode="&#xed;" horiz-adv-x="193" 
d="M145 0h-97v538h97v-538zM221 746l-114 -144h-72l69 144h117z" />
    <glyph glyph-name="igrave" unicode="&#xec;" horiz-adv-x="193" 
d="M145 0h-97v538h97v-538zM86 602l-114 144h118l68 -144h-72z" />
    <glyph glyph-name="icircumflex" unicode="&#xee;" horiz-adv-x="193" 
d="M145 0h-97v538h97v-538zM-35 602l84 144h95l84 -144h-80l-51 89l-52 -89h-80z" />
    <glyph glyph-name="idieresis" unicode="&#xef;" horiz-adv-x="193" 
d="M145 0h-97v538h97v-538zM212 614h-94v108h94v-108zM-19 722h94v-108h-94v108z" />
    <glyph glyph-name="ntilde" unicode="&#xf1;" 
d="M144 0h-97v538h92v-54q39 38 54 47q27 17 65 17t59.5 -30t21.5 -83v-435h-97v417q0 39 -35 39q-22 0 -63 -34v-422zM334 733q-3 -21 -9.5 -42.5t-17 -38t-25.5 -27t-37 -10.5q-16 0 -29.5 6t-27.5 14q-13 8 -25.5 13.5t-26.5 5.5q-20 0 -28 -11t-9 -33h-48q3 21 9.5 42.5
t17 38t25.5 27t37 10.5q16 0 30 -6t27 -13t25.5 -13.5t26.5 -6.5q20 0 28 11t9 33h48z" />
    <glyph glyph-name="oacute" unicode="&#xf3;" 
d="M247 170v198q0 88 -54 88t-54 -88l1 -198q0 -88 53 -88q54 0 54 88zM42 190v158q0 200 152 200q151 0 151 -200v-158q0 -200 -152 -200q-151 0 -151 200zM317 746l-114 -144h-72l69 144h117z" />
    <glyph glyph-name="ograve" unicode="&#xf2;" 
d="M247 170v198q0 88 -54 88t-54 -88l1 -198q0 -88 53 -88q54 0 54 88zM42 190v158q0 200 152 200q151 0 151 -200v-158q0 -200 -152 -200q-151 0 -151 200zM183 602l-114 144h118l68 -144h-72z" />
    <glyph glyph-name="ocircumflex" unicode="&#xf4;" 
d="M247 170v198q0 88 -54 88t-54 -88l1 -198q0 -88 53 -88q54 0 54 88zM42 190v158q0 200 152 200q151 0 151 -200v-158q0 -200 -152 -200q-151 0 -151 200zM61 602l84 144h95l84 -144h-80l-51 89l-52 -89h-80z" />
    <glyph glyph-name="odieresis" unicode="&#xf6;" 
d="M247 170v198q0 88 -54 88t-54 -88l1 -198q0 -88 53 -88q54 0 54 88zM42 190v158q0 200 152 200q151 0 151 -200v-158q0 -200 -152 -200q-151 0 -151 200zM308 614h-94v108h94v-108zM77 722h94v-108h-94v108z" />
    <glyph glyph-name="otilde" unicode="&#xf5;" 
d="M247 170v198q0 88 -54 88t-54 -88l1 -198q0 -88 53 -88q54 0 54 88zM42 190v158q0 200 152 200q151 0 151 -200v-158q0 -200 -152 -200q-151 0 -151 200zM334 733q-3 -21 -9.5 -42.5t-17 -38t-25.5 -27t-37 -10.5q-16 0 -29.5 6t-27.5 14q-13 8 -25.5 13.5t-26.5 5.5
q-20 0 -28 -11t-9 -33h-48q3 21 9.5 42.5t17 38t25.5 27t37 10.5q16 0 30 -6t27 -13t25.5 -13.5t26.5 -6.5q20 0 28 11t9 33h48z" />
    <glyph glyph-name="uacute" unicode="&#xfa;" 
d="M242 538h97v-538h-92v54q-39 -38 -53 -47q-28 -17 -66 -17t-59.5 30t-21.5 83v435h97v-417q0 -39 35 -39q22 0 63 34v422zM317 746l-114 -144h-72l69 144h117z" />
    <glyph glyph-name="ugrave" unicode="&#xf9;" 
d="M242 538h97v-538h-92v54q-39 -38 -53 -47q-28 -17 -66 -17t-59.5 30t-21.5 83v435h97v-417q0 -39 35 -39q22 0 63 34v422zM183 602l-114 144h118l68 -144h-72z" />
    <glyph glyph-name="ucircumflex" unicode="&#xfb;" 
d="M242 538h97v-538h-92v54q-39 -38 -53 -47q-28 -17 -66 -17t-59.5 30t-21.5 83v435h97v-417q0 -39 35 -39q22 0 63 34v422zM61 602l84 144h95l84 -144h-80l-51 89l-52 -89h-80z" />
    <glyph glyph-name="udieresis" unicode="&#xfc;" 
d="M242 538h97v-538h-92v54q-39 -38 -53 -47q-28 -17 -66 -17t-59.5 30t-21.5 83v435h97v-417q0 -39 35 -39q22 0 63 34v422zM309 614h-94v108h94v-108zM78 722h94v-108h-94v108z" />
    <glyph glyph-name="NULL" horiz-adv-x="0" 
 />
    <glyph glyph-name="NULL" horiz-adv-x="0" 
 />
    <glyph glyph-name="nonmarkingreturn" unicode="&#xd;" horiz-adv-x="193" 
 />
    <glyph glyph-name="Gbreve" unicode="&#x11e;" horiz-adv-x="435" 
d="M202 268v98h176v-366h-52l-20 54q-25 -35 -47 -48q-25 -16 -62 -16q-65 0 -104.5 50t-39.5 135v372q0 81 39 131q43 54 119 54q78 0 122 -58q40 -54 40 -140v-46h-103q0 78 -15 109q-13 27 -46 27q-48 0 -48 -79v-371q0 -76 50 -76q32 0 45.5 23t13.5 77v70h-68zM295 949
h50q-4 -62 -34 -99q-34 -43 -94 -43q-59 0 -93 43q-30 37 -34 99h50q7 -75 78 -74q70 -1 77 74z" />
    <glyph glyph-name="Scedilla" unicode="&#x15e;" horiz-adv-x="366" 
d="M130 541q0 -27 11 -45.5t28 -32.5t39 -27t43.5 -29.5t41.5 -38.5t33 -55q11 -29 11 -117q0 -85 -10 -119q-16 -53 -57 -72q-32 -15 -99 -15q-70 0 -112 49q-9 11 -14 24t-7.5 26t-3 24t-0.5 18v108h96q0 -88 3 -104q9 -56 52 -56q49 0 49 97q0 76 -14 101q-20 36 -72 73
q-59 44 -77 66q-36 44 -37 116q-1 101 25 143q34 57 128 57q144 0 135 -228h-98q0 65 -5 89q-8 49 -35 49q-35 0 -46 -31q-8 -21 -8 -70zM101 -163q11 -6 28 -11.5t29 -5.5q23 0 37 12t14 29q0 15 -8 23t-19.5 11t-23.5 1t-21 -6l-20 18l60 92h41l-35 -60q17 3 34 -0.5
t31 -13.5t23 -25t9 -35q0 -24 -9 -43t-24 -32t-34.5 -20t-40.5 -7q-31 0 -53.5 9t-32.5 14z" />
    <glyph glyph-name="Abreve" unicode="&#x102;" 
d="M193 578l-43 -310h87l-42 310h-2zM135 160l-20 -160h-104l116 722h134l115 -722h-104l-19 160h-118zM270 949h50q-4 -62 -34 -99q-34 -43 -94 -43q-59 0 -93 43q-30 37 -34 99h50q7 -75 78 -74q70 -1 77 74z" />
    <glyph glyph-name="Eogonek" unicode="&#x118;" 
d="M353 0h-301v722h289v-108h-181v-186h139v-108h-139v-212h193v-108zM301 9q-16 -8 -36 -19t-37.5 -26t-29.5 -35t-12 -45q0 -23 12.5 -35t29.5 -12q20 0 41.5 13.5t37.5 26.5l16 -36q-27 -23 -57.5 -41.5t-65.5 -18.5t-60.5 23.5t-25.5 68.5q0 39 20 65.5t49 43t61.5 25.5
t56.5 14v-12z" />
    <glyph glyph-name="Ccaron" unicode="&#x10c;" horiz-adv-x="416" 
d="M257 483v53q0 87 -49 87q-54 0 -54 -81v-363q0 -80 54 -80q49 0 49 74v73h102v-69q0 -82 -37 -132q-41 -55 -114 -55q-77 0 -118 55q-38 50 -38 132v368q0 82 38 132q41 55 118 55q73 0 114 -59q37 -54 37 -141v-49h-102zM255 802h-95l-84 144h80l52 -89l51 89h80z" />
    <glyph glyph-name="Cacute" unicode="&#x106;" horiz-adv-x="416" 
d="M257 483v53q0 87 -49 87q-54 0 -54 -81v-363q0 -80 54 -80q49 0 49 74v73h102v-69q0 -82 -37 -132q-41 -55 -114 -55q-77 0 -118 55q-38 50 -38 132v368q0 82 38 132q41 55 118 55q73 0 114 -59q37 -54 37 -141v-49h-102zM321 946l-114 -144h-72l69 144h117z" />
    <glyph glyph-name="Dcaron" unicode="&#x10e;" horiz-adv-x="435" 
d="M160 620v-518h38q43 0 60 22t17 79v316q0 57 -17 79t-61 22h-37zM52 0v722h161q171 0 170 -218l-1 -286q0 -218 -170 -218h-160zM254 802h-95l-84 144h80l52 -89l51 89h80z" />
    <glyph glyph-name="Ncaron" unicode="&#x147;" horiz-adv-x="423" 
d="M52 0v722h109l109 -376v376h101v-722h-90l-127 451v-451h-102zM259 802h-95l-84 144h80l52 -89l51 89h80z" />
    <glyph glyph-name="Ecaron" unicode="&#x11a;" 
d="M353 0h-301v722h289v-108h-181v-186h139v-108h-139v-212h193v-108zM240 802h-95l-84 144h80l52 -89l51 89h80z" />
    <glyph glyph-name="Rcaron" unicode="&#x158;" horiz-adv-x="435" 
d="M160 620v-222h38q44 0 62 24t18 87t-18 87t-62 24h-38zM160 296v-296h-108v722h151q93 0 138 -50t45 -163q0 -143 -76 -182l92 -327h-110l-76 299q-21 -3 -56 -3zM252 802h-95l-84 144h80l52 -89l51 89h80z" />
    <glyph glyph-name="Tcaron" unicode="&#x164;" horiz-adv-x="338" 
d="M115 0v614h-105v108h317v-108h-104v-614h-108zM216 802h-95l-84 144h80l52 -89l51 89h80z" />
    <glyph glyph-name="Sacute" unicode="&#x15a;" horiz-adv-x="366" 
d="M130 541q0 -27 11 -45.5t28 -32.5t39 -27t43.5 -29.5t41.5 -38.5t33 -55q11 -29 11 -117q0 -85 -10 -119q-16 -53 -57 -72q-32 -15 -99 -15q-70 0 -112 49q-9 11 -14 24t-7.5 26t-3 24t-0.5 18v108h96q0 -88 3 -104q9 -56 52 -56q49 0 49 97q0 76 -14 101q-20 36 -72 73
q-59 44 -77 66q-36 44 -37 116q-1 101 25 143q34 57 128 57q144 0 135 -228h-98q0 65 -5 89q-8 49 -35 49q-35 0 -46 -31q-8 -21 -8 -70zM316 946l-114 -144h-72l69 144h117z" />
    <glyph glyph-name="Zacute" unicode="&#x179;" 
d="M240 614h-177v108h286v-118l-199 -496h199v-108h-310v118zM326 946l-114 -144h-72l69 144h117z" />
    <glyph glyph-name="Racute" unicode="&#x154;" horiz-adv-x="435" 
d="M160 620v-222h38q44 0 62 24t18 87t-18 87t-62 24h-38zM160 296v-296h-108v722h151q93 0 138 -50t45 -163q0 -143 -76 -182l92 -327h-110l-76 299q-21 -3 -56 -3zM330 946l-114 -144h-72l69 144h117z" />
    <glyph glyph-name="Nacute" unicode="&#x143;" horiz-adv-x="423" 
d="M52 0v722h109l109 -376v376h101v-722h-90l-127 451v-451h-102zM334 946l-114 -144h-72l69 144h117z" />
    <glyph glyph-name="Uhungarumlaut" unicode="&#x170;" horiz-adv-x="435" 
d="M52 182v540h108v-545q0 -79 58 -79q57 0 57 79v545h108v-540q0 -92 -44 -142t-121 -50q-78 0 -122 50t-44 142zM269 946l-109 -144h-68l60 144h117zM422 946l-114 -144h-72l69 144h117z" />
    <glyph glyph-name="Ohungarumlaut" unicode="&#x150;" horiz-adv-x="421" 
d="M52 548q0 82 37 131q41 53 118 53q79 0 122 -53q40 -50 40 -131v-375q0 -81 -38 -130q-42 -53 -120 -53t-120 53q-39 48 -39 130v375zM156 176q0 -81 55 -81t55 81l-1 369q0 81 -54 81q-55 0 -55 -81v-369zM262 946l-109 -144h-68l60 144h117zM415 946l-114 -144h-72
l69 144h117z" />
    <glyph glyph-name="Zdotaccent" unicode="&#x17b;" 
d="M240 614h-177v108h286v-118l-199 -496h199v-108h-310v118zM159 922h94v-108h-94v108z" />
    <glyph glyph-name="Idotaccent" unicode="&#x130;" horiz-adv-x="242" 
d="M175 0h-108v722h108v-722zM74 922h94v-108h-94v108z" />
    <glyph glyph-name="Umacron" unicode="&#x16a;" horiz-adv-x="435" 
d="M52 182v540h108v-545q0 -79 58 -79q57 0 57 79v545h108v-540q0 -92 -44 -142t-121 -50q-78 0 -122 50t-44 142zM96 863v59h242v-59h-242z" />
    <glyph glyph-name="Uogonek" unicode="&#x172;" horiz-adv-x="435" 
d="M52 182v540h108v-545q0 -79 58 -79q57 0 57 79v545h108v-540q0 -92 -44 -142t-121 -50q-78 0 -122 50t-44 142zM291 9q-16 -8 -36 -19t-37.5 -26t-29.5 -35t-12 -45q0 -23 12.5 -35t29.5 -12q20 0 41.5 13.5t37.5 26.5l16 -36q-27 -23 -57.5 -41.5t-65.5 -18.5
t-60.5 23.5t-25.5 68.5q0 39 20 65.5t49 43t61.5 25.5t56.5 14v-12z" />
    <glyph glyph-name="Emacron" unicode="&#x112;" 
d="M353 0h-301v722h289v-108h-181v-186h139v-108h-139v-212h193v-108zM72 863v59h242v-59h-242z" />
    <glyph glyph-name="Amacron" unicode="&#x100;" 
d="M193 578l-43 -310h87l-42 310h-2zM135 160l-20 -160h-104l116 722h134l115 -722h-104l-19 160h-118zM72 863v59h242v-59h-242z" />
    <glyph glyph-name="Omacron" unicode="&#x14c;" horiz-adv-x="421" 
d="M52 548q0 82 37 131q41 53 118 53q79 0 122 -53q40 -50 40 -131v-375q0 -81 -38 -130q-42 -53 -120 -53t-120 53q-39 48 -39 130v375zM156 176q0 -81 55 -81t55 81l-1 369q0 81 -54 81q-55 0 -55 -81v-369zM89 863v59h242v-59h-242z" />
    <glyph glyph-name="Imacron" unicode="&#x12a;" horiz-adv-x="242" 
d="M175 0h-108v722h108v-722zM0 863v59h242v-59h-242z" />
    <glyph glyph-name="Edotaccent" unicode="&#x116;" 
d="M353 0h-301v722h289v-108h-181v-186h139v-108h-139v-212h193v-108zM146 922h94v-108h-94v108z" />
    <glyph glyph-name="uni021A" unicode="&#x21a;" horiz-adv-x="338" 
d="M115 0v614h-105v108h317v-108h-104v-614h-108zM218 -70v-100l-56 -105h-39l36 105h-38v100h97z" />
    <glyph glyph-name="uni0218" unicode="&#x218;" horiz-adv-x="366" 
d="M130 541q0 -27 11 -45.5t28 -32.5t39 -27t43.5 -29.5t41.5 -38.5t33 -55q11 -29 11 -117q0 -85 -10 -119q-16 -53 -57 -72q-32 -15 -99 -15q-70 0 -112 49q-9 11 -14 24t-7.5 26t-3 24t-0.5 18v108h96q0 -88 3 -104q9 -56 52 -56q49 0 49 97q0 76 -14 101q-20 36 -72 73
q-59 44 -77 66q-36 44 -37 116q-1 101 25 143q34 57 128 57q144 0 135 -228h-98q0 65 -5 89q-8 49 -35 49q-35 0 -46 -31q-8 -21 -8 -70zM233 -70v-100l-56 -105h-39l36 105h-38v100h97z" />
    </font>
</defs>
</svg>
