<svg xmlns="http://www.w3.org/2000/svg" xmlns:xlink="http://www.w3.org/1999/xlink" width="48" height="48" viewBox="0 0 48 48">
    <defs>
        <path id="a" d="M27.592 28.51V24.01H20.39v5.401h-3.6V22.21c0-.99.81-1.8 1.8-1.8h9.002v-4.502l6.301 6.302-6.301 6.301zm13.881-5.78L25.27 6.528a1.793 1.793 0 0 0-2.538 0L6.527 22.73a1.793 1.793 0 0 0 0 2.538L22.73 41.473a1.793 1.793 0 0 0 2.538 0L41.473 25.27c.703-.684.703-1.818 0-2.538z"/>
    </defs>
    <g fill="none" fill-rule="evenodd">
        <path d="M0 0h48v48H0z"/>
        <path fill="#FFF" d="M0 0h48v48H0z"/>
        <mask id="b" fill="#fff">
            <use xlink:href="#a"/>
        </mask>
        <use fill="#000" xlink:href="#a"/>
        <g fill="#000" mask="url(#b)">
            <path d="M0 0h48v48H0z"/>
        </g>
        <g fill="#FFF" fill-opacity=".25" mask="url(#b)">
            <path d="M0 0h48v48H0z"/>
        </g>
    </g>
</svg>
