<svg xmlns="http://www.w3.org/2000/svg" xmlns:xlink="http://www.w3.org/1999/xlink" width="48" height="48" viewBox="0 0 48 48">
    <defs>
        <path id="a" d="M39.42 13.095c.354.164.581.52.58.91a.922.922 0 0 1 0 .21v19.79a1 1 0 0 1-.67.91l-15 7a.894.894 0 0 1-.75 0l-15-7a1.001 1.001 0 0 1-.58-.91v-20c.014-.115.048-.227.1-.33v-.07a.976.976 0 0 1 .08-.17l.06-.08.11-.13.08-.07.07-.06h.07l15-7c.269-.127.581-.127.85 0l15 7zM38 33.364v-17.78l-13 6.06v17.79l13-6.07zm-3-12.1v2l-8 3.74v-2l8-3.74zm-3 5.43v1.97l-5 2.34v-1.97l5-2.34zm-8-6.8l5.9-2.75-12.62-5.9-5.92 2.76L24 19.895zm-1 19.54v-17.79l-13-6.07v17.79l13 6.07zm1-31.33l-4.35 2 12.62 5.9 4.35-2L24 8.105z"/>
    </defs>
    <g fill="none" fill-rule="evenodd">
        <path d="M0 0h48v48H0z"/>
        <path fill="#FFF" d="M0 0h48v48H0z"/>
        <mask id="b" fill="#fff">
            <use xlink:href="#a"/>
        </mask>
        <use fill="#000" xlink:href="#a"/>
        <g fill="#000" mask="url(#b)">
            <path d="M0 0h48v48H0z"/>
        </g>
        <g fill="#FFF" fill-opacity=".25" mask="url(#b)">
            <path d="M0 0h48v48H0z"/>
        </g>
    </g>
</svg>
