<svg xmlns="http://www.w3.org/2000/svg" xmlns:xlink="http://www.w3.org/1999/xlink" width="48" height="48" viewBox="0 0 48 48">
    <defs>
        <path id="a" d="M31.467 10.167c5.858 0 9.533 3.406 9.533 8.975 0 2.184-1.373 4.78-3.84 7.776-1.248 1.516-2.756 3.106-4.47 4.743a96.26 96.26 0 0 1-5.557 4.89 97.393 97.393 0 0 1-1.832 1.462c-.333.259-.572.44-.702.538l-.599.448-.599-.448c-.13-.097-.369-.28-.702-.538-.553-.43-1.169-.92-1.832-1.462a96.26 96.26 0 0 1-5.558-4.89c-1.713-1.637-3.221-3.227-4.469-4.743C8.373 23.921 7 21.326 7 19.142c0-5.57 3.675-8.975 9.533-8.975 2.84 0 5.762 1.826 7.467 4.27 1.704-2.445 4.625-4.27 7.467-4.27zm-7.393 26.266a95.4 95.4 0 0 0 1.793-1.43 94.3 94.3 0 0 0 5.442-4.788c1.66-1.585 3.115-3.12 4.307-4.568C37.81 22.982 39 20.732 39 19.142c0-4.43-2.747-6.975-7.533-6.975-2.6 0-5.48 2.177-6.545 4.705L24 19.058l-.922-2.186c-1.064-2.526-3.948-4.705-6.545-4.705-4.786 0-7.533 2.546-7.533 6.975 0 1.59 1.19 3.84 3.384 6.505 1.192 1.449 2.647 2.983 4.307 4.568a94.3 94.3 0 0 0 5.442 4.788A95.4 95.4 0 0 0 24 36.49l.074-.058z"/>
    </defs>
    <g fill="none" fill-rule="evenodd">
        <path d="M0 0h48v48H0z"/>
        <path fill="#FFF" d="M0 0h48v48H0z"/>
        <mask id="b" fill="#fff">
            <use xlink:href="#a"/>
        </mask>
        <use fill="#FFF" xlink:href="#a"/>
        <g fill="#000" mask="url(#b)">
            <path d="M0 0h48v48H0z"/>
        </g>
        <g fill="#FFF" fill-opacity=".25" mask="url(#b)">
            <path d="M0 0h48v48H0z"/>
        </g>
    </g>
</svg>
