<svg xmlns="http://www.w3.org/2000/svg" xmlns:xlink="http://www.w3.org/1999/xlink" width="48" height="48" viewBox="0 0 48 48">
    <defs>
        <path id="a" d="M17.136 22.429h10.516c.096.55.175 1.1.175 1.822 0 6.286-4.263 10.749-10.69 10.749C10.98 35 6 30.081 6 24s4.98-11 11.136-11c3.007 0 5.52 1.084 7.462 2.876l-3.023 2.875c-.827-.785-2.275-1.697-4.439-1.697-3.802 0-6.904 3.112-6.904 6.946 0 3.834 3.102 6.946 6.904 6.946 4.407 0 6.062-3.127 6.316-4.746h-6.316v-3.771zm23.864 0v3.142h-3.182v3.143h-3.182v-3.143h-3.181V22.43h3.181v-3.143h3.182v3.143H41z"/>
    </defs>
    <g fill="none" fill-rule="evenodd">
        <path d="M0 0h48v48H0z"/>
        <path fill="#FFF" d="M0 0h48v48H0z"/>
        <mask id="b" fill="#fff">
            <use xlink:href="#a"/>
        </mask>
        <use fill="#FFF" xlink:href="#a"/>
        <g fill="#000" mask="url(#b)">
            <path d="M0 0h48v48H0z"/>
        </g>
        <g fill="#FFF" fill-opacity=".25" mask="url(#b)">
            <path d="M0 0h48v48H0z"/>
        </g>
    </g>
</svg>
