<svg xmlns="http://www.w3.org/2000/svg" xmlns:xlink="http://www.w3.org/1999/xlink" width="48" height="48" viewBox="0 0 48 48">
    <defs>
        <path id="a" d="M24 8.005c4.344 0 4.889.018 6.595.096 1.702.078 2.865.348 3.882.744a7.84 7.84 0 0 1 2.833 1.845 7.84 7.84 0 0 1 1.845 2.833c.396 1.017.666 2.18.744 3.882.078 1.706.096 2.251.096 6.595 0 4.344-.018 4.889-.096 6.595-.078 1.702-.348 2.865-.744 3.882a7.84 7.84 0 0 1-1.845 2.833 7.84 7.84 0 0 1-2.833 1.845c-1.017.396-2.18.666-3.882.744-1.706.078-2.251.096-6.595.096-4.344 0-4.889-.018-6.595-.096-1.702-.078-2.865-.348-3.882-.744a7.84 7.84 0 0 1-2.833-1.845 7.84 7.84 0 0 1-1.845-2.833c-.396-1.017-.666-2.18-.744-3.882-.078-1.706-.096-2.251-.096-6.595 0-4.344.018-4.889.096-6.595.078-1.702.348-2.865.744-3.882a7.84 7.84 0 0 1 1.845-2.833 7.84 7.84 0 0 1 2.833-1.845c1.017-.396 2.18-.666 3.882-.744 1.706-.078 2.251-.096 6.595-.096zm0 2.882c-4.27 0-4.777.016-6.463.093-1.56.071-2.407.332-2.97.551-.747.29-1.28.637-1.84 1.196a4.955 4.955 0 0 0-1.196 1.84c-.219.563-.48 1.41-.55 2.97-.078 1.686-.094 2.192-.094 6.463 0 4.27.016 4.777.093 6.463.071 1.56.332 2.407.551 2.97.29.747.637 1.28 1.196 1.84.56.56 1.093.906 1.84 1.196.563.219 1.41.48 2.97.55 1.686.078 2.192.094 6.463.094s4.777-.016 6.463-.093c1.56-.071 2.407-.332 2.97-.551a4.955 4.955 0 0 0 1.84-1.196c.56-.56.906-1.093 1.196-1.84.219-.563.48-1.41.55-2.97.078-1.686.094-2.192.094-6.463 0-4.27-.016-4.777-.093-6.463-.071-1.56-.332-2.407-.551-2.97a4.955 4.955 0 0 0-1.196-1.84 4.956 4.956 0 0 0-1.84-1.196c-.563-.219-1.41-.48-2.97-.55-1.686-.078-2.192-.094-6.463-.094zm0 4.9a8.214 8.214 0 1 1 0 16.427 8.214 8.214 0 0 1 0-16.428zm0 13.545a5.332 5.332 0 1 0 0-10.664 5.332 5.332 0 0 0 0 10.664zm10.458-13.87a1.92 1.92 0 1 1-3.84 0 1.92 1.92 0 0 1 3.84 0z"/>
    </defs>
    <g fill="none" fill-rule="evenodd">
        <path d="M0 0h48v48H0z"/>
        <path fill="#FFF" d="M0 0h48v48H0z"/>
        <mask id="b" fill="#fff">
            <use xlink:href="#a"/>
        </mask>
        <use fill="#FFF" xlink:href="#a"/>
        <g fill="#000" mask="url(#b)">
            <path d="M0 0h48v48H0z"/>
        </g>
        <g fill="#FFF" fill-opacity=".25" mask="url(#b)">
            <path d="M0 0h48v48H0z"/>
        </g>
    </g>
</svg>
