<svg xmlns="http://www.w3.org/2000/svg" xmlns:xlink="http://www.w3.org/1999/xlink" width="48" height="48" viewBox="0 0 48 48">
    <defs>
        <path id="a" d="M24.003 10l-17 29.278h34L24.003 10zm1.73-1.004l17 29.278c.774 1.333-.188 3.004-1.73 3.004h-34c-1.542 0-2.504-1.671-1.73-3.004l17-29.278c.771-1.328 2.689-1.328 3.46 0zm-3.73 20.42h4V19h-4v10.417zm0 6.584h4v-3.83h-4V36z"/>
    </defs>
    <g fill="none" fill-rule="evenodd">
        <path fill="#FFF" d="M0 0h48v48H0z"/>
        <mask id="b" fill="#fff">
            <use xlink:href="#a"/>
        </mask>
        <use fill="#000" fill-rule="nonzero" xlink:href="#a"/>
        <g fill="#000" mask="url(#b)">
            <path d="M0 0h48v48H0z"/>
        </g>
        <g fill="#FFF" fill-opacity=".25" mask="url(#b)">
            <path d="M0 0h48v48H0z"/>
        </g>
    </g>
</svg>
