<svg xmlns="http://www.w3.org/2000/svg" xmlns:xlink="http://www.w3.org/1999/xlink" width="48" height="48" viewBox="0 0 48 48">
    <defs>
        <path id="a" d="M39.91 29.92h-8.54c.361-1.953.545-3.934.55-5.92a33.026 33.026 0 0 0-.56-5.92h8.55a16.706 16.706 0 0 1 0 11.85v-.01zm-12.48 10.7a33.109 33.109 0 0 0 3.54-8.73H39a17.047 17.047 0 0 1-11.6 8.77l.03-.04zm-4.26.3a31.179 31.179 0 0 1-4-9h9.74a31.206 31.206 0 0 1-4 9h-.86c-.29 0-.62.08-.91.08l.03-.08zM9 31.92h8.09a33.075 33.075 0 0 0 3.54 8.73A17.05 17.05 0 0 1 9 31.92zm-.91-13.84h8.55a31.736 31.736 0 0 0 0 11.85H8.09a16.695 16.695 0 0 1 0-11.85zM20.6 7.34a33.075 33.075 0 0 0-3.54 8.73H9a17.047 17.047 0 0 1 11.6-8.73zM29.93 24a30.973 30.973 0 0 1-.59 5.92H18.67a29.996 29.996 0 0 1 0-11.85h10.66c.387 1.953.584 3.939.59 5.93h.01zM24.86 7a31.194 31.194 0 0 1 4 9h-9.73a31.167 31.167 0 0 1 4-9h1.73zM39 16.08h-8.06a33.106 33.106 0 0 0-3.54-8.74A17.048 17.048 0 0 1 39 16.08zM24 5C13.506 5 5 13.506 5 24c0 10.493 8.506 19 19 19 10.493 0 19-8.507 19-19 0-10.494-8.507-19-19-19z"/>
    </defs>
    <g fill="none" fill-rule="evenodd">
        <path d="M0 0h48v48H0z"/>
        <path fill="#FFF" d="M0 0h48v48H0z"/>
        <mask id="b" fill="#fff">
            <use xlink:href="#a"/>
        </mask>
        <use fill="#000" xlink:href="#a"/>
        <g fill="#000" mask="url(#b)">
            <path d="M0 0h48v48H0z"/>
        </g>
        <g fill="#FFF" fill-opacity=".25" mask="url(#b)">
            <path d="M0 0h48v48H0z"/>
        </g>
    </g>
</svg>
