<svg xmlns="http://www.w3.org/2000/svg" xmlns:xlink="http://www.w3.org/1999/xlink" width="48" height="48" viewBox="0 0 48 48">
    <defs>
        <path id="a" d="M24.43 40.2C21.83 36.269 14 23.88 14 17.74 13.924 11.897 18.589 7.093 24.43 7c5.844.093 10.509 4.897 10.43 10.74 0 6.14-7.84 18.529-10.43 22.46m0-35.2c6.948.093 12.509 5.792 12.43 12.74 0 7.939-11.14 24.14-11.61 24.83a1.003 1.003 0 0 1-1.64 0C23.13 41.88 12 25.679 12 17.74 11.924 10.792 17.485 5.093 24.43 5zm0 16.39a3.7 3.7 0 1 1 3.57-3.7 3.64 3.64 0 0 1-3.537 3.739h-.032v-.04zm0-9.39A5.7 5.7 0 1 0 30 17.7a5.64 5.64 0 0 0-5.57-5.7z"/>
    </defs>
    <g fill="none" fill-rule="evenodd">
        <path d="M0 0h48v48H0z"/>
        <path fill="#FFF" d="M0 0h48v48H0z"/>
        <mask id="b" fill="#fff">
            <use xlink:href="#a"/>
        </mask>
        <use fill="#000" xlink:href="#a"/>
        <g fill="#000" mask="url(#b)">
            <path d="M0 0h48v48H0z"/>
        </g>
        <g fill="#FFF" fill-opacity=".25" mask="url(#b)">
            <path d="M0 0h48v48H0z"/>
        </g>
    </g>
</svg>
