<svg xmlns="http://www.w3.org/2000/svg" xmlns:xlink="http://www.w3.org/1999/xlink" width="48" height="48" viewBox="0 0 48 48">
    <defs>
        <path id="a" d="M34.45 35.28l-1.68-1.681A1 1 0 1 0 31.35 35L33 36.69a13.943 13.943 0 0 1-8 3.26V38a1 1 0 1 0-2 0v1.95a13.924 13.924 0 0 1-8.29-3.5L16.15 35a1 1 0 0 0-1.41-1.41L13.31 35a13.93 13.93 0 0 1-3.26-8H12a1 1 0 0 0 0-2h-1.95a13.927 13.927 0 0 1 3.26-8l1.42 1.42A1.004 1.004 0 0 0 16.15 17l-1.43-1.43A13.913 13.913 0 0 1 23 12.05V13a1 1 0 0 0 2 0v-.95a13.93 13.93 0 0 1 8 3.26L31.35 17a1 1 0 1 0 1.41 1.41l1.68-1.68A13.92 13.92 0 0 1 37.95 25H35.5a1 1 0 1 0 0 2h2.45a13.926 13.926 0 0 1-3.5 8.29v-.01zM25 10.05c8.05.504 14.466 6.919 14.97 14.968.552 8.82-6.15 16.417-14.97 16.969-8.82.553-16.416-6.149-16.968-14.969C7.48 18.199 14.18 10.602 23 10.05V8h-2a1 1 0 0 1 0-2h6a1 1 0 1 1 0 2h-2v2.05zm6.95 19.07L26 26a1.999 1.999 0 0 0-.41-1.18L27.74 20a1 1 0 0 0-1.83-.81L23.8 24a2 2 0 1 0 1.3 3.74l5.9 3.14a1 1 0 1 0 .94-1.76h.01z"/>
    </defs>
    <g fill="none" fill-rule="evenodd">
        <path d="M0 0h48v48H0z"/>
        <path fill="#FFF" d="M0 0h48v48H0z"/>
        <mask id="b" fill="#fff">
            <use xlink:href="#a"/>
        </mask>
        <use fill="#000" xlink:href="#a"/>
        <g fill="#000" mask="url(#b)">
            <path d="M0 0h48v48H0z"/>
        </g>
        <g fill="#FFF" fill-opacity=".25" mask="url(#b)">
            <path d="M0 0h48v48H0z"/>
        </g>
    </g>
</svg>
