<svg xmlns="http://www.w3.org/2000/svg" xmlns:xlink="http://www.w3.org/1999/xlink" width="48" height="48" viewBox="0 0 48 48">
    <defs>
        <path id="a" d="M24.003 31.82c-2.48-1.64-7.49-5.76-7.49-9.65 0-3.7 1.85-4.18 3.46-4.18a4.19 4.19 0 0 1 3.16 1.75l.87 1.4.85-1.38a4.19 4.19 0 0 1 3.15-1.76c1.71 0 3.46.5 3.46 4.18.01 4.64-5.7 8.55-7.46 9.64m0-25.82c11 0 20 8.08 20 18s-9 18-20 18a21.433 21.433 0 0 1-11.17-3.06 11.001 11.001 0 0 1-8.17.67 1 1 0 0 1-.29-1.72 10.781 10.781 0 0 0 2.93-4 16.61 16.61 0 0 1-3.3-9.89c0-9.92 9-18 20-18zm0 34c9.92 0 18-7.18 18-16s-8.08-16-18-16-18 7.18-18 16a14.698 14.698 0 0 0 3.22 9.08.998.998 0 0 1 .14 1 14.164 14.164 0 0 1-2.36 4c1.888.11 3.77-.302 5.44-1.19.318-.163.7-.144 1 .05A19.386 19.386 0 0 0 24.003 40zm4-24c3.53 0 5.47 2.19 5.5 6.18 0 6.63-8.63 11.5-9 11.7l-.51.28-.5-.3c-.37-.23-8.95-5.54-8.95-11.68 0-3.99 1.94-6.18 5.46-6.18a6.307 6.307 0 0 1 4 1.67 6.311 6.311 0 0 1 4-1.67z"/>
    </defs>
    <g fill="none" fill-rule="evenodd">
        <path fill="#FFF" d="M0 0h48v48H0z"/>
        <mask id="b" fill="#fff">
            <use xlink:href="#a"/>
        </mask>
        <use fill="#000" xlink:href="#a"/>
        <g fill="#000" mask="url(#b)">
            <path d="M0 0h48v48H0z"/>
        </g>
        <g fill="#FFF" fill-opacity=".25" mask="url(#b)">
            <path d="M0 0h48v48H0z"/>
        </g>
    </g>
</svg>
