<svg xmlns="http://www.w3.org/2000/svg" xmlns:xlink="http://www.w3.org/1999/xlink" width="48" height="48" viewBox="0 0 48 48">
    <defs>
        <path id="a" d="M8 24c0 6.552 3.94 12.18 9.577 14.655-.045-1.117-.008-2.458.279-3.674l2.058-8.719s-.51-1.02-.51-2.532c0-2.37 1.374-4.14 3.085-4.14 1.456 0 2.158 1.093 2.158 2.4 0 1.464-.932 3.653-1.412 5.679-.402 1.697.85 3.082 2.525 3.082 3.031 0 5.073-3.894 5.073-8.507 0-3.507-2.362-6.13-6.657-6.13-4.854 0-7.878 3.618-7.878 7.661 0 1.394.412 2.377 1.055 3.138.296.35.337.49.23.891-.076.295-.252 1.004-.326 1.284-.106.406-.435.55-.8.402-2.236-.913-3.277-3.361-3.277-6.113 0-4.545 3.832-9.995 11.435-9.995 6.108 0 10.128 4.42 10.128 9.166 0 6.276-3.49 10.965-8.632 10.965-1.727 0-3.353-.934-3.909-1.994 0 0-.93 3.686-1.126 4.397-.339 1.235-1.003 2.467-1.61 3.428 1.439.425 2.959.656 4.534.656 8.836 0 16-7.163 16-16 0-8.835-7.164-16-16-16S8 15.165 8 24z"/>
    </defs>
    <g fill="none" fill-rule="evenodd">
        <path d="M0 0h48v48H0z"/>
        <path fill="#FFF" d="M0 0h48v48H0z"/>
        <mask id="b" fill="#fff">
            <use xlink:href="#a"/>
        </mask>
        <use fill="#FFF" xlink:href="#a"/>
        <g fill="#000" mask="url(#b)">
            <path d="M0 0h48v48H0z"/>
        </g>
        <g fill="#FFF" fill-opacity=".25" mask="url(#b)">
            <path d="M0 0h48v48H0z"/>
        </g>
    </g>
</svg>
