<svg xmlns="http://www.w3.org/2000/svg" xmlns:xlink="http://www.w3.org/1999/xlink" width="48" height="48" viewBox="0 0 48 48">
    <defs>
        <path id="a" d="M32.22 36.997a.737.737 0 0 1-.34-.084l-7.87-4.031-7.876 4.038a.738.738 0 0 1-.758-.054.695.695 0 0 1-.289-.685l1.502-8.547-6.368-6.058a.691.691 0 0 1-.186-.722.717.717 0 0 1 .583-.48l8.801-1.246 3.935-7.738A.724.724 0 0 1 24 11c.274 0 .524.15.646.39l3.935 7.738 8.8 1.245c.273.039.5.226.584.481a.691.691 0 0 1-.186.722l-6.368 6.05 1.502 8.548a.69.69 0 0 1-.163.577.73.73 0 0 1-.56.246h.03zM12.279 21.57l5.595 5.312c.17.16.248.392.21.619l-1.293 7.506 6.917-3.517a.739.739 0 0 1 .671 0l6.916 3.517-1.357-7.499a.693.693 0 0 1 .21-.62l5.595-5.31-7.732-1.105a.72.72 0 0 1-.542-.387l-3.458-6.824-3.458 6.852a.72.72 0 0 1-.542.387l-7.732 1.07z"/>
    </defs>
    <g fill="none" fill-rule="evenodd">
        <path d="M0 0h48v48H0z"/>
        <path fill="#FFF" d="M0 0h48v48H0z"/>
        <mask id="b" fill="#fff">
            <use xlink:href="#a"/>
        </mask>
        <use fill="#000" fill-rule="nonzero" xlink:href="#a"/>
        <g fill="#000" mask="url(#b)">
            <path d="M0 0h48v48H0z"/>
        </g>
        <g fill="#FFF" fill-opacity=".25" mask="url(#b)">
            <path d="M0 0h48v48H0z"/>
        </g>
    </g>
</svg>
