<svg xmlns="http://www.w3.org/2000/svg" xmlns:xlink="http://www.w3.org/1999/xlink" width="48" height="48" viewBox="0 0 48 48">
    <defs>
        <path id="a" d="M36 28.83c-.52 2.89-1.89 10.47-2 11-.29 1.41-1 2.17-2.17 2.17H18.78c-.61 0-1.78-.31-1.78-1.49V28.83c2.76-.68 6-3.16 6-6.83v-4a4.34 4.34 0 0 1 2.18.36c.613.608.915 1.462.82 2.32v4.55A1.77 1.77 0 0 0 27.76 27h6.67c.41.006.803.158 1.11.43.439.32.624.882.46 1.4zM15 41.9a.1.1 0 0 1-.1.1h-4.8a.1.1 0 0 1-.1-.1V28.1a.1.1 0 0 1 .1-.1h4.8a.1.1 0 0 1 .1.1v13.8zm21.85-15.99a3.241 3.241 0 0 1 1.12 3.31c-.07.39-1.87 10.38-2 11-.51 2.35-2.06 3.76-4.14 3.76H18.77a4.129 4.129 0 0 1-2.29-.71 2.09 2.09 0 0 1-1.58.73h-4.8A2.1 2.1 0 0 1 8 41.9V28.1c0-1.16.94-2.1 2.1-2.1h4.8a2.09 2.09 0 0 1 1.7.87c2.02-.53 4.4-2.4 4.4-4.87v-5.72l.8-.16c1.02-.21 3.41-.24 4.57.63A4.71 4.71 0 0 1 28 20.68V25h6.43a3.7 3.7 0 0 1 2.42.91zM24 13a1 1 0 0 1-1-1V5a1 1 0 0 1 2 0v7a1 1 0 0 1-1 1zm-7 8a1 1 0 0 1-1 1H8a1 1 0 0 1 0-2h8a1 1 0 0 1 1 1zm23-1a1 1 0 1 1 0 2h-7a1 1 0 1 1 0-2h7zm-10-5a1 1 0 0 1-.7-1.7l5-5a1 1 0 0 1 1.41 1.41l-5 5A1.003 1.003 0 0 1 30 15zm-12.71-.29l-5-5A1 1 0 0 1 13.7 8.3l5 5a1 1 0 0 1-1.41 1.41z"/>
    </defs>
    <g fill="none" fill-rule="evenodd">
        <path fill="#FFF" d="M0 0h48v48H0z"/>
        <mask id="b" fill="#fff">
            <use xlink:href="#a"/>
        </mask>
        <use fill="#000" xlink:href="#a"/>
        <g fill="#000" mask="url(#b)">
            <path d="M0 0h48v48H0z"/>
        </g>
        <g fill="#FFF" fill-opacity=".25" mask="url(#b)">
            <path d="M0 0h48v48H0z"/>
        </g>
    </g>
</svg>
