<svg xmlns="http://www.w3.org/2000/svg" xmlns:xlink="http://www.w3.org/1999/xlink" width="48" height="48" viewBox="0 0 48 48">
    <defs>
        <path id="a" d="M39 36.95L36.95 39l-8.245-8.245A11.537 11.537 0 0 1 21.6 33.2c-6.406 0-11.6-5.194-11.6-11.6S15.194 10 21.6 10s11.6 5.194 11.6 11.6c0 2.68-.918 5.142-2.445 7.105L39 36.95zM21.6 30.3c4.797 0 8.7-3.903 8.7-8.7 0-4.797-3.903-8.7-8.7-8.7-4.797 0-8.7 3.903-8.7 8.7 0 4.797 3.903 8.7 8.7 8.7z"/>
    </defs>
    <g fill="none" fill-rule="evenodd">
        <path d="M0 0h48v48H0z"/>
        <path fill="#FFF" d="M0 0h48v48H0z"/>
        <mask id="b" fill="#fff">
            <use xlink:href="#a"/>
        </mask>
        <use fill="#FFF" xlink:href="#a"/>
        <g fill="#000" mask="url(#b)">
            <path d="M0 0h48v48H0z"/>
        </g>
        <g fill="#FFF" fill-opacity=".25" mask="url(#b)">
            <path d="M0 0h48v48H0z"/>
        </g>
    </g>
</svg>
