<svg xmlns="http://www.w3.org/2000/svg" xmlns:xlink="http://www.w3.org/1999/xlink" width="48" height="48" viewBox="0 0 48 48">
    <defs>
        <path id="a" d="M42 13.312a14.577 14.577 0 0 1-4.125 1.112 7.108 7.108 0 0 0 3.158-3.908 14.549 14.549 0 0 1-4.56 1.715A7.228 7.228 0 0 0 31.231 10c-3.964 0-7.18 3.162-7.18 7.062 0 .554.062 1.094.185 1.609a20.49 20.49 0 0 1-14.8-7.378 6.95 6.95 0 0 0-.972 3.551c0 2.45 1.268 4.61 3.194 5.877a7.238 7.238 0 0 1-3.253-.882v.089c0 3.42 2.475 6.276 5.759 6.925a7.276 7.276 0 0 1-3.242.121c.914 2.806 3.566 4.847 6.708 4.905A14.56 14.56 0 0 1 8.712 34.9c-.58 0-1.15-.032-1.712-.098a20.57 20.57 0 0 0 11.008 3.174c13.206 0 20.43-10.763 20.43-20.097 0-.304-.008-.61-.02-.913A14.514 14.514 0 0 0 42 13.312"/>
    </defs>
    <g fill="none" fill-rule="evenodd">
        <path d="M0 0h48v48H0z"/>
        <path fill="#FFF" d="M0 0h48v48H0z"/>
        <mask id="b" fill="#fff">
            <use xlink:href="#a"/>
        </mask>
        <use fill="#FFF" xlink:href="#a"/>
        <g fill="#000" mask="url(#b)">
            <path d="M0 0h48v48H0z"/>
        </g>
        <g fill="#FFF" fill-opacity=".25" mask="url(#b)">
            <path d="M0 0h48v48H0z"/>
        </g>
    </g>
</svg>
