<svg xmlns="http://www.w3.org/2000/svg" xmlns:xlink="http://www.w3.org/1999/xlink" width="48" height="48" viewBox="0 0 48 48">
    <defs>
        <path id="a" d="M40.394 15.091c.61 2.762.606 5.775.606 8.618s-.005 5.857-.614 8.618c-.428 1.94-1.95 3.37-3.783 3.583-4.34.505-8.733.507-13.106.505-4.374.002-8.766 0-13.106-.505-1.833-.213-3.354-1.644-3.783-3.583C6 29.567 6 26.552 6 23.709s.006-5.856.616-8.618c.428-1.939 1.95-3.368 3.783-3.583 4.34-.505 8.732-.506 13.106-.505 4.373-.001 8.766 0 13.106.505 1.832.215 3.355 1.644 3.783 3.583zM20.207 29.098l9.055-5.171-9.055-5.17v10.34z"/>
    </defs>
    <g fill="none" fill-rule="evenodd">
        <path d="M0 0h48v48H0z"/>
        <path fill="#FFF" d="M0 0h48v48H0z"/>
        <mask id="b" fill="#fff">
            <use xlink:href="#a"/>
        </mask>
        <use fill="#FFF" xlink:href="#a"/>
        <g fill="#000" mask="url(#b)">
            <path d="M0 0h48v48H0z"/>
        </g>
        <g fill="#FFF" fill-opacity=".25" mask="url(#b)">
            <path d="M0 0h48v48H0z"/>
        </g>
    </g>
</svg>
