<svg xmlns="http://www.w3.org/2000/svg" xmlns:xlink="http://www.w3.org/1999/xlink" width="48" height="48" viewBox="0 0 48 48">
    <defs>
        <path id="a" d="M14.322 16.125a3.44 3.44 0 0 1 2.644 1.236l.132.17 2.019 2.782c.6.875.851 1.906.662 2.937a3.858 3.858 0 0 1-1.456 2.4l-.184.131-.253.157a17.237 17.237 0 0 0 3.877 3.955l.414.294.157-.25a3.978 3.978 0 0 1 3.25-1.687c.738 0 1.45.203 2.068.585l.203.134 2.807 2c.82.563 1.326 1.469 1.42 2.469.095.968-.284 1.937-.978 2.656C29.843 37.344 28.108 38 26.057 38c-3.502 0-7.54-1.937-10.82-5.187-2.46-2.406-4.196-5.313-4.89-8.125-.789-3.125-.22-5.813 1.577-7.594a3.378 3.378 0 0 1 2.398-.969zm0 1.656c-.442 0-.852.157-1.199.5-2.807 2.782-1.325 8.75 3.344 13.344 3.028 3.032 6.688 4.688 9.621 4.688 1.42 0 2.7-.412 3.635-1.236l.182-.17.103-.116c.578-.713.497-1.759-.195-2.348l-.128-.099-2.808-2a2.257 2.257 0 0 0-1.293-.406c-.636 0-1.273.289-1.715.818l-.115.15-.789 1.126a.66.66 0 0 1-.504.25.513.513 0 0 1-.284-.094 18.769 18.769 0 0 1-6.31-6.25c-.14-.222-.08-.543.112-.722l.078-.06 1.135-.78a2.195 2.195 0 0 0 .63-2.956l-.093-.139-2.02-2.78a1.712 1.712 0 0 0-1.387-.72zM31.136 11C35.994 11 40 13.844 40 17.375s-3.975 6.406-8.833 6.406c-.725 0-1.45-.062-2.176-.187-1.01.594-2.398 1.312-3.944 1.719-.126.03-.252.062-.378.062-.473 0-.883-.219-1.167-.625-.347-.5-.316-1.125.031-1.625.347-.469.663-1.094.883-1.562-1.356-1.157-2.113-2.594-2.113-4.157 0-3.531 3.975-6.406 8.833-6.406zm.031 1.656c-3.943 0-7.13 2.125-7.13 4.719 0 1.188.663 2.344 1.925 3.219a.817.817 0 0 1 .284 1c-.19.437-.505 1.156-.915 1.844A15.727 15.727 0 0 0 28.328 22c.19-.094.41-.125.631-.094.694.157 1.451.22 2.177.22 3.943 0 7.129-2.126 7.129-4.72 0-2.593-3.155-4.75-7.098-4.75zm-3.722 3.5c.697 0 1.262.56 1.262 1.25s-.565 1.25-1.262 1.25c-.697 0-1.262-.56-1.262-1.25s.565-1.25 1.262-1.25zm3.69 0c.698 0 1.263.56 1.263 1.25s-.565 1.25-1.262 1.25c-.697 0-1.262-.56-1.262-1.25s.565-1.25 1.262-1.25zm3.66 0c.697 0 1.262.56 1.262 1.25s-.565 1.25-1.262 1.25c-.697 0-1.262-.56-1.262-1.25s.565-1.25 1.262-1.25z"/>
    </defs>
    <g fill="none" fill-rule="evenodd">
        <mask id="b" fill="#fff">
            <use xlink:href="#a"/>
        </mask>
        <use fill="#000" xlink:href="#a"/>
        <g fill="#EC1D24" mask="url(#b)">
            <path d="M0 0h48v48H0z"/>
        </g>
    </g>
</svg>
