<svg xmlns="http://www.w3.org/2000/svg" xmlns:xlink="http://www.w3.org/1999/xlink" width="48" height="48" viewBox="0 0 48 48">
    <defs>
        <path id="a" d="M24.82 36H13.324A1.325 1.325 0 0 1 12 34.675v-21.35c0-.732.593-1.325 1.325-1.325h21.35c.732 0 1.325.593 1.325 1.325v21.35c0 .732-.593 1.325-1.325 1.325H28.56v-9.294h3.12l.466-3.622H28.56V20.77c0-1.048.29-1.763 1.795-1.763h1.918v-3.24c-.332-.045-1.47-.143-2.795-.143-2.766 0-4.659 1.688-4.659 4.788v2.67h-3.127v3.623h3.127V36z"/>
    </defs>
    <g fill="none" fill-rule="evenodd">
        <path d="M0 0h48v48H0z"/>
        <path fill="#FFF" d="M48 48H0V0h48z"/>
        <mask id="b" fill="#fff">
            <use xlink:href="#a"/>
        </mask>
        <use fill="#4460A0" xlink:href="#a"/>
        <g fill="#EC1D24" mask="url(#b)">
            <path d="M0 0h48v48H0z"/>
        </g>
    </g>
</svg>
