<svg xmlns="http://www.w3.org/2000/svg" xmlns:xlink="http://www.w3.org/1999/xlink" width="48" height="48" viewBox="0 0 48 48">
    <defs>
        <path id="a" d="M21.035 9c6.65 0 12.035 5.577 12.035 12.447 0 3.073-1.078 5.888-2.863 8.06l8.505 8.656c.384.39.384 1.023 0 1.414a.97.97 0 0 1-1.39 0l-8.495-8.643c-2.1 1.846-4.82 2.96-7.792 2.96C14.385 33.895 9 28.319 9 21.448 9 14.577 14.384 9 21.035 9zm0 2c-5.558 0-10.07 4.674-10.07 10.447 0 5.774 4.512 10.448 10.07 10.448 2.743 0 5.231-1.139 7.048-2.986l.067-.08c.02-.02.04-.039.062-.057 1.79-1.883 2.893-4.47 2.893-7.325 0-5.773-4.513-10.447-10.07-10.447z"/>
    </defs>
    <g fill="none" fill-rule="evenodd">
        <mask id="b" fill="#fff">
            <use xlink:href="#a"/>
        </mask>
        <use fill="#000" fill-rule="nonzero" xlink:href="#a"/>
        <g fill="#EC1D24" mask="url(#b)">
            <path d="M0 0h48v48H0z"/>
        </g>
    </g>
</svg>
