<svg width="24" height="24" xmlns="http://www.w3.org/2000/svg">
    <defs>
        <rect id="a" x="0" y="0" width="24" height="24" rx="3"/>
    </defs>
    <g fill="#151a61" fill-rule="evenodd">
        <g>
            <rect stroke="#151A61" x=".5" y=".5" width="23" height="23" rx="3"/>
            <path d="M10.894 7.721c-.248.137-.298.143-.586.083-.97-.184-2.214.09-3.048.677-.749.524-1.132 1.29-.968 1.926.13.528.709.658 1.137.266.09-.082.08-.106-.107-.29-.197-.197-.203-.214-.169-.53.017-.196.09-.438.175-.588.479-.86 1.78-1.418 2.653-1.146l.22.072-.265.232c-.321.279-.856.962-1.233 1.58-.158.261-.31.445-.373.45-.05.007-.169.012-.253.018-.084 0-.22.078-.304.16-.113.12-.135.185-.108.34a.711.711 0 0 0 .147.308c.062.072.113.149.113.184 0 .03-.164.434-.355.891l-.36.844-.136-.113c-.084-.071-.23-.113-.394-.113-.822 0-1.183 1.176-.62 2.013l.113.167-.124.125c-.208.202-.45.308-.715.308l-.254-.005.153-.09c.304-.171.36-.534.123-.73-.411-.345-.952.06-.811.6.118.445.558.641 1.16.523.198-.042.468-.15.61-.238l.246-.166.226.112c1.29.677 2.985-.267 3.33-1.853.135-.618.05-1.585-.187-2.06-.056-.114-.09-.209-.078-.215.01-.011.174-.107.371-.214.192-.106.485-.32.654-.474.35-.321.596-.446.788-.393.142.036.142.036-.157.452-.536.754-.868 1.586-.919 2.287-.107 1.639 1.522 1.075 2.484-.861.271-.553.485-1.212.485-1.51 0-.154.045-.23.214-.373.113-.096.288-.22.384-.274.208-.112.642-.225.709-.184.029.018-.101.184-.282.374-1.126 1.171-1.374 3.036-.394 3.036.304 0 .558-.125.868-.428.54-.523.872-1.277.884-2.007.006-.345-.017-.506-.113-.701l-.118-.262.203-.095c.27-.119.912-.167 1.076-.07.124.065.118.076-.276.878-.637 1.283-.744 1.728-.479 2.002.282.297.778.13 1.357-.452.338-.345.367-.362.463-.273.157.148.495.279.72.279h.21l-.124.143a1.515 1.515 0 0 1-.395.267c-.146.066-1.898.553-3.898 1.075-3.96 1.045-4.146 1.11-4.462 1.586-.136.202-.163.297-.163.605 0 .203.017.387.033.41.023.018.096 0 .164-.04.304-.209 1.11-.488 4.332-1.522 1.898-.611 3.583-1.176 3.74-1.259.422-.213.806-.6 1.054-1.04.13-.237.31-.463.462-.576.338-.255.501-.618.467-1.074-.022-.297-.067-.41-.327-.832-.298-.481-.298-.487-.208-.654.107-.184.124-.45.04-.504-.164-.107-.395.166-.395.463 0 .071-.113.315-.253.535-.243.374-.27.397-.468.397-.518 0-.828.387-.828 1.022 0 .392-.006.404-.247.666-.418.45-.79.522-.71.142.044-.196 1.295-3.172 1.396-3.302.029-.037.119-.072.197-.072.08 0 .372-.03.642-.065.473-.066.507-.077.587-.25l.09-.178-.654.048c-.36.024-.653.024-.653.005 0-.017.045-.124.095-.243.051-.113.08-.22.063-.237-.018-.019-.13-.019-.26.005-.191.03-.236.072-.32.262l-.097.22-.456.041c-.253.018-.67.036-.93.036h-.46l-.154.327c-.084.178-.14.332-.123.344.011.012.388-.024.839-.083.45-.06.862-.107.913-.113.084 0 .072.054-.08.386-.168.356-.19.38-.32.338-.085-.023-.389-.041-.682-.035-.411 0-.592.03-.789.125-.196.09-.292.107-.394.065-.383-.155-1.177.053-1.583.41-.09.083-.163.119-.163.09 0-.03-.068-.126-.146-.215-.232-.238-.648-.196-1.088.119-.14.1-.22.125-.293.083-.056-.036-.203-.06-.327-.06-.129 0-.23-.01-.23-.023 0-.012.039-.137.084-.273.197-.588.045-1.265-.35-1.586l-.196-.16.14-.131a.914.914 0 0 1 .215-.155c.084-.029.016-.166-.079-.166-.04.006-.192.072-.338.154z"/>
        </g>
        <path d="M10.503 7.93c-.253.131-.305.137-.598.08-.989-.179-2.26.086-3.11.655-.765.505-1.156 1.246-.99 1.86.133.512.725.639 1.162.26.092-.08.08-.104-.11-.282-.2-.19-.206-.207-.172-.511.018-.19.092-.425.179-.57.488-.832 1.817-1.372 2.708-1.108l.224.069-.27.224c-.328.27-.874.93-1.26 1.528-.16.253-.316.431-.379.437-.052.006-.172.011-.259.017-.086 0-.224.075-.31.155-.115.115-.138.178-.11.328a.668.668 0 0 0 .15.298c.063.07.115.144.115.179 0 .028-.167.419-.362.861l-.368.816-.138-.109c-.086-.069-.236-.11-.403-.11-.84 0-1.207 1.138-.632 1.948l.115.161-.127.12c-.212.196-.46.3-.73.3l-.259-.006.156-.086c.31-.167.368-.517.126-.707-.42-.333-.972.058-.828.58.121.431.57.62 1.185.506.2-.04.477-.144.62-.23l.254-.16.23.108c1.316.655 3.047-.258 3.398-1.792.138-.598.051-1.534-.19-1.994-.058-.109-.092-.2-.08-.206.01-.012.178-.104.379-.207.195-.104.494-.31.667-.46.356-.31.61-.43.805-.379.143.034.143.034-.161.437-.546.73-.886 1.534-.937 2.211-.11 1.586 1.552 1.04 2.535-.833.276-.534.495-1.172.495-1.459 0-.15.046-.224.218-.362.115-.092.293-.212.391-.264.213-.11.655-.218.724-.178.03.017-.103.178-.287.362-1.15 1.132-1.403 2.936-.402 2.936.31 0 .569-.121.885-.414.552-.506.891-1.235.903-1.942.005-.333-.018-.488-.115-.678l-.121-.253.207-.092c.276-.114.931-.16 1.098-.069.127.064.12.075-.282.85-.65 1.242-.759 1.673-.488 1.937.287.287.793.126 1.385-.437.345-.333.374-.35.472-.264.16.144.506.27.736.27h.212l-.126.138a1.52 1.52 0 0 1-.403.258c-.149.064-1.937.535-3.978 1.04-4.042 1.011-4.232 1.075-4.554 1.534-.138.195-.167.287-.167.586 0 .195.018.374.035.397.023.017.098 0 .167-.04.31-.202 1.132-.472 4.421-1.471 1.938-.592 3.657-1.138 3.818-1.218.431-.207.822-.58 1.075-1.006.132-.23.316-.448.471-.557.345-.247.512-.597.478-1.04-.023-.287-.07-.396-.334-.804-.305-.466-.305-.471-.213-.632.11-.178.127-.437.04-.488-.166-.104-.402.16-.402.448 0 .069-.115.304-.259.517-.247.362-.276.385-.477.385-.529 0-.845.373-.845.988 0 .379-.006.39-.253.643-.425.437-.805.506-.724.138.046-.19 1.322-3.068 1.425-3.194.03-.035.121-.07.202-.07.08 0 .38-.028.655-.062.483-.063.518-.075.598-.242l.092-.172-.667.046c-.368.023-.667.023-.667.006s.046-.12.098-.236c.052-.109.08-.212.063-.23-.017-.017-.132-.017-.264.006-.196.029-.242.07-.328.253l-.098.213-.465.04c-.26.017-.685.034-.95.034h-.47l-.156.316c-.086.173-.144.322-.126.333.011.012.396-.023.856-.08.46-.057.88-.103.932-.11.086 0 .075.053-.08.374-.173.345-.196.368-.328.328-.087-.023-.397-.04-.696-.035-.42 0-.604.029-.805.12-.201.087-.3.104-.403.064-.39-.15-1.201.052-1.615.396-.092.08-.167.115-.167.087 0-.029-.069-.121-.15-.207-.235-.23-.66-.19-1.11.115-.143.097-.223.12-.298.08-.058-.034-.207-.057-.334-.057-.132 0-.235-.012-.235-.023 0-.012.04-.132.086-.264.201-.57.046-1.224-.357-1.534l-.2-.156.143-.126a.914.914 0 0 1 .219-.15c.086-.028.017-.16-.08-.16-.041.006-.196.069-.346.15zm-.241.895c.184.305.16.96-.052 1.385-.173.339-.58.764-.874.92-.161.08-.173.08-.397-.116l-.23-.195.305-.586c.287-.563.995-1.592 1.092-1.592.023 0 .098.087.156.184zm9.113 1.322c.138.321.166.764.069 1.022-.052.138-.058.133-.121-.103a1.372 1.372 0 0 0-.276-.471l-.201-.23.16-.258c.093-.144.185-.259.202-.259.023 0 .098.138.167.299zm-6.762.597c-.006.592-.644 1.885-1.236 2.51-.247.26-.356.334-.46.317-.115-.012-.144-.058-.155-.241-.046-.586.937-2.448 1.495-2.839.293-.2.362-.155.356.253zm2.559.11c.005.246-.138.74-.31 1.091-.311.643-.875 1.16-1.013.942-.2-.322.276-1.528.886-2.206l.293-.333.075.166c.04.092.069.242.069.34zm3.059-.075a8.386 8.386 0 0 1-.328.42l-.144.172.029-.26c.023-.194.069-.298.207-.418.092-.087.23-.156.293-.156.11 0 .104.018-.057.242zm.644.051c.138.19.218.546.178.776-.04.213-.207.31-.53.31-.212 0-.609-.195-.574-.275.063-.156.718-.983.759-.971.034.011.103.086.167.16zm-11.103.167c-.11.195-.144.207-.241.086-.098-.115.017-.258.207-.258.132 0 .132 0 .034.172zm.903.253c.057.063.046.092-.052.12-.15.046-.19.018-.138-.109.046-.115.103-.115.19-.011zm.356.586c.104.276.127.816.058 1.183a2.849 2.849 0 0 1-.776 1.46c-.472.47-.874.62-1.599.603l-.213-.006.317-.465c.316-.466.868-1.523 1.236-2.373.207-.488.276-.54.672-.546.213-.006.253.012.305.144zm-2.777 2.177c.07-.017.127-.011.127.012-.006.092-.386.678-.437.672-.092-.012-.31-.448-.31-.632 0-.241.028-.253.275-.126.12.057.27.091.345.074z" fill="#FFF" fill-rule="nonzero"/>
    </g>
</svg>
