<svg width="24" height="24" xmlns="http://www.w3.org/2000/svg">
    <g fill="none" fill-rule="evenodd">
        <rect stroke="#151A61" fill="#FFF" x=".5" y=".5" width="23" height="23" rx="3"/>
        <path d="M10.533 7.836c-.247.135-.298.141-.585.082-.97-.182-2.215.088-3.048.67-.75.517-1.133 1.275-.97 1.904.13.523.71.653 1.138.265.09-.083.08-.106-.107-.289-.197-.193-.202-.21-.169-.522a1.58 1.58 0 0 1 .175-.582c.478-.852 1.78-1.405 2.654-1.134l.219.07-.264.23c-.321.276-.857.952-1.235 1.563-.156.258-.309.44-.37.446-.052.006-.17.012-.254.018-.085 0-.22.076-.305.159-.113.117-.135.182-.108.335.018.1.085.24.148.306.062.07.112.146.112.182 0 .028-.163.429-.354.881l-.361.834-.136-.112c-.084-.07-.23-.112-.394-.112-.822 0-1.183 1.164-.62 1.993l.113.165-.123.123c-.209.2-.452.306-.717.306l-.253-.007.151-.087c.305-.17.361-.53.124-.722-.41-.342-.952.058-.81.593.117.44.558.634 1.16.517.198-.04.468-.147.61-.235l.247-.165.225.112c1.29.67 2.986-.264 3.33-1.834.135-.612.05-1.569-.186-2.04-.056-.11-.09-.204-.079-.21.011-.012.175-.107.371-.213.192-.105.486-.316.655-.47.348-.317.597-.44.788-.388.14.036.14.036-.158.448-.535.746-.867 1.569-.918 2.262-.107 1.622 1.521 1.064 2.485-.852.27-.547.484-1.199.484-1.493 0-.153.045-.23.215-.37.112-.094.287-.217.382-.27.209-.111.643-.224.71-.183.029.017-.101.182-.281.37-1.127 1.159-1.375 3.004-.395 3.004.305 0 .558-.123.868-.423.54-.517.873-1.264.885-1.987.005-.34-.017-.5-.113-.693l-.12-.259.204-.093c.27-.118.913-.165 1.076-.072.124.065.118.077-.276.87-.636 1.27-.743 1.71-.478 1.981.28.293.776.13 1.357-.447.338-.34.366-.359.461-.27.159.147.497.276.722.276h.208l-.123.141c-.074.077-.248.2-.394.264-.147.065-1.9.547-3.9 1.065-3.96 1.034-4.146 1.099-4.462 1.569-.134.2-.163.294-.163.599 0 .2.017.383.034.405.022.017.096 0 .163-.04.305-.206 1.11-.482 4.333-1.505 1.898-.605 3.583-1.164 3.74-1.246.424-.212.806-.593 1.054-1.028.13-.236.31-.46.462-.57.338-.253.502-.612.468-1.064-.023-.294-.068-.406-.327-.823-.299-.476-.299-.482-.209-.646.107-.183.124-.447.04-.5-.163-.106-.394.164-.394.458 0 .071-.113.312-.254.53-.242.37-.27.393-.468.393-.518 0-.828.382-.828 1.011 0 .388-.005.4-.247.658-.417.446-.79.517-.71.141.044-.194 1.295-3.138 1.396-3.267.03-.036.12-.07.198-.07.079 0 .371-.03.642-.065.474-.065.507-.077.586-.247l.09-.177-.653.047c-.36.024-.654.024-.654.006 0-.017.045-.123.096-.241.05-.11.079-.217.062-.235-.016-.017-.13-.017-.26.006-.19.029-.236.07-.32.258l-.096.218-.456.04c-.254.019-.67.036-.93.036h-.462l-.152.323c-.084.176-.14.33-.124.341.012.012.39-.023.84-.082.45-.059.861-.106.913-.111.084 0 .072.052-.08.382-.169.352-.192.376-.321.334-.084-.023-.388-.04-.682-.035-.411 0-.59.03-.789.123-.197.089-.292.107-.394.065-.383-.153-1.177.053-1.582.406-.091.082-.165.118-.165.088s-.067-.123-.145-.212c-.231-.234-.648-.194-1.089.118-.14.1-.219.124-.292.082-.056-.035-.203-.059-.327-.059-.129 0-.23-.012-.23-.023s.04-.136.084-.27c.197-.582.045-1.252-.35-1.57l-.197-.158.141-.13a.906.906 0 0 1 .214-.153c.084-.029.017-.164-.079-.164-.04.006-.191.07-.338.153zm-.236.916c.18.312.157.982-.05 1.417-.17.347-.57.782-.858.94-.157.083-.168.083-.387-.117l-.226-.2.298-.6c.282-.575.975-1.628 1.07-1.628.023 0 .097.089.153.188zm8.93 1.352c.135.33.163.782.067 1.046-.05.141-.057.136-.118-.105a1.412 1.412 0 0 0-.27-.482l-.199-.236.159-.263c.09-.148.18-.265.197-.265.023 0 .096.14.164.306v-.001zm-6.626.612c-.006.605-.63 1.928-1.212 2.568-.242.264-.349.34-.45.323-.113-.011-.14-.059-.152-.247-.045-.6.918-2.503 1.465-2.903.287-.205.354-.159.349.259zm2.507.111c.005.253-.135.758-.305 1.117-.304.658-.855 1.187-.99.964-.198-.329.27-1.564.867-2.257l.287-.34.074.17c.038.093.067.246.067.346zm2.998-.076a9.012 9.012 0 0 1-.322.429l-.14.176.027-.264c.023-.2.068-.306.203-.429.09-.088.226-.159.288-.159.107 0 .101.017-.056.247zm.63.053c.135.194.215.558.175.793-.04.218-.203.317-.519.317-.208 0-.596-.2-.563-.282.062-.158.704-1.005.744-.993.033.012.101.089.163.165zm-10.879.17c-.107.2-.14.212-.236.089-.097-.119.016-.265.203-.265.13 0 .13 0 .033.176zm.885.259c.056.064.045.093-.051.123-.146.047-.186.018-.135-.11.045-.12.101-.12.186-.013zm.349.6c.101.281.123.834.057 1.21a2.957 2.957 0 0 1-.761 1.493c-.462.482-.857.635-1.567.617l-.208-.006.31-.476c.31-.476.85-1.557 1.212-2.427.202-.5.27-.552.66-.558.207-.006.246.01.297.147zM6.37 14.06c.066-.017.123-.012.123.012-.006.093-.377.693-.429.687-.09-.012-.304-.459-.304-.646 0-.247.028-.259.27-.13.12.06.266.094.339.077z" fill="#151A61" fill-rule="nonzero"/>
    </g>
</svg>
