<svg xmlns="http://www.w3.org/2000/svg" xmlns:xlink="http://www.w3.org/1999/xlink" width="34" height="34" viewBox="0 0 34 34">
    <defs>
        <path id="a" d="M27.183 25.073l-2.84-2.826a1.507 1.507 0 0 0-1.618-.322s0-.024-.025-.024l-1.37-1.363a8.49 8.49 0 0 0-.348-11.672c-3.338-3.321-8.767-3.321-12.104 0a8.496 8.496 0 0 0 0 12.043c1.669 1.66 3.86 2.478 6.052 2.478a8.51 8.51 0 0 0 5.678-2.156l1.345 1.339a1.467 1.467 0 0 0 .249 1.784l2.839 2.825c.299.297.672.446 1.046.446s.772-.149 1.046-.446c.647-.595.647-1.537.05-2.106zM9.625 20.19c-2.939-2.925-2.939-7.683 0-10.632a7.567 7.567 0 0 1 5.33-2.205c1.942 0 3.86.743 5.33 2.205 2.963 2.95 2.963 7.707.024 10.632-2.939 2.949-7.745 2.949-10.684 0zm16.86 6.294a.483.483 0 0 1-.697 0L22.95 23.66a.477.477 0 0 1 0-.694c.1-.099.224-.149.349-.149.124 0 .249.05.348.15l2.84 2.8c.199.198.199.52 0 .718z"/>
    </defs>
    <g fill="none" fill-rule="evenodd">
        <mask id="b" fill="#fff">
            <use xlink:href="#a"/>
        </mask>
        <use fill="#e51b23" fill-rule="nonzero" xlink:href="#a"/>
        <g fill="#e51b23" mask="url(#b)">
            <path d="M0 0h34v34H0z"/>
        </g>
    </g>
</svg>
