<svg xmlns="http://www.w3.org/2000/svg" width="40" height="40" viewBox="0 0 40 40">
    <g fill="none" fill-rule="evenodd">
        <path d="M0 0H40V40H0z"/>
        <path fill="#004990" fill-rule="nonzero" d="M17.143 7.5h1.02c.143.015.286.033.429.045 1.367.12 2.695.522 3.898 1.182 3.547 1.937 5.588 5.716 5.269 9.746-.088 1.133-.372 2.241-.842 3.276-.16.355-.344.7-.525 1.065.116.113.244.232.365.355l4.953 4.949c.335.323.577.73.7 1.179.037.138.06.28.09.42v.486c-.008.032-.019.064-.024.098-.158.972-.69 1.652-1.601 2.024-.205.084-.43.118-.646.175h-.51c-.015-.008-.032-.014-.049-.018-.63-.074-1.145-.363-1.589-.81-1.725-1.732-3.453-3.461-5.183-5.187-.03-.035-.056-.073-.079-.113l-.228.127c-2.28 1.255-4.697 1.615-7.233 1.032-2.485-.572-4.474-1.922-5.968-3.986-1.003-1.383-1.63-3.003-1.817-4.7-.024-.228-.05-.457-.073-.683v-1.02c.01-.045.017-.09.021-.136.035-.64.136-1.276.3-1.896.684-2.556 2.134-4.558 4.351-6.005 1.286-.838 2.75-1.363 4.276-1.532.232-.027.463-.049.695-.073zM10 17.504c0 4.129 3.356 7.493 7.474 7.496 4.163.003 7.525-3.345 7.526-7.495.004-4.14-3.348-7.5-7.488-7.505-4.139-.01-7.513 3.362-7.512 7.504z"/>
    </g>
</svg>
