<svg xmlns="http://www.w3.org/2000/svg" xmlns:xlink="http://www.w3.org/1999/xlink" width="40" height="40" viewBox="0 0 40 40">
    <defs>
        <path id="prefix__a" d="M20 8.333c-4.595 0-8.333 3.739-8.333 8.334 0 5.775 8.341 15.64 8.341 15.64s8.325-10.149 8.325-15.64c0-4.595-3.738-8.334-8.333-8.334zm1.769 9.27c-.488.488-1.129.732-1.77.732-.64 0-1.28-.244-1.768-.732-.975-.975-.975-2.562 0-3.537.473-.472 1.1-.733 1.769-.733.668 0 1.296.26 1.769.733.975.975.975 2.562 0 3.537z"/>
    </defs>
    <g fill="none" fill-rule="evenodd">
        <path d="M0 0H40V40H0z"/>
        <use fill="#004692" fill-rule="nonzero" xlink:href="#prefix__a"/>
    </g>
</svg>
