<?xml version="1.0" standalone="no"?>
<!DOCTYPE svg PUBLIC "-//W3C//DTD SVG 1.1//EN" "http://www.w3.org/Graphics/SVG/1.1/DTD/svg11.dtd" >
<svg xmlns="http://www.w3.org/2000/svg" xmlns:xlink="http://www.w3.org/1999/xlink" version="1.1">
<metadata>
Created by FontForge 20190801 at Thu Jul 25 16:34:02 2019
 By Jimmy Wärting
Copyright \(c\) 2019 by Rick Banks. All rights reserved.
</metadata>
<defs>
<font id="BootsSharp-Bold" horiz-adv-x="0" >
  <font-face 
    font-family="Boots Sharp Bold"
    font-weight="700"
    font-stretch="normal"
    units-per-em="1000"
    panose-1="0 0 8 0 0 0 0 0 0 0"
    ascent="800"
    descent="-200"
    x-height="475"
    cap-height="740"
    bbox="-933 -294 1259 1015"
    underline-thickness="50"
    underline-position="-100"
    stemh="122"
    stemv="129"
    unicode-range="U+0020-FB02"
  />
<missing-glyph horiz-adv-x="683" 
d="M77 0v740h529v-740h-529zM203 132h277v476h-277v-476z" />
    <glyph glyph-name="fi" unicode="fi" horiz-adv-x="581" 
d="M519 475v-475h-123v357h-171v-357h-123v357h-70v118h70v106c0 106 60 169 158 169c29 0 57 -4 81 -12v-109c-15 3 -29 5 -48 5c-44 0 -68 -26 -68 -70v-89h294zM458 572c-45 0 -80 34 -80 80c0 45 35 79 80 79s80 -34 80 -79c0 -46 -35 -80 -80 -80z" />
    <glyph glyph-name="fl" unicode="fl" horiz-adv-x="581" 
d="M396 725l123 30v-755h-123v357h-171v-357h-123v357h-70v118h70v106c0 106 60 169 158 169c29 0 57 -4 81 -12v-109c-15 3 -29 5 -48 5c-44 0 -68 -26 -68 -70v-89h171v250z" />
    <glyph glyph-name=".notdef" horiz-adv-x="683" 
d="M77 0v740h529v-740h-529zM203 132h277v476h-277v-476z" />
    <glyph glyph-name="space" unicode=" " horiz-adv-x="234" 
 />
    <glyph glyph-name="A" unicode="A" horiz-adv-x="720" 
d="M579 0l-62 135h-314l-62 -135h-144l361 765h4l361 -765h-144zM261 260h198l-99 215z" />
    <glyph glyph-name="Aacute" unicode="&#xc1;" horiz-adv-x="720" 
d="M501 905l-241 -99l-44 97l238 107zM579 0l-62 135h-314l-62 -135h-144l361 765h4l361 -765h-144zM261 260h198l-99 215z" />
    <glyph glyph-name="Abreve" unicode="&#x102;" horiz-adv-x="720" 
d="M359 806c-109 0 -184 82 -184 194h105c0 -53 26 -86 79 -86s79 33 79 86h105c0 -112 -76 -194 -184 -194zM579 0l-62 135h-314l-62 -135h-144l361 765h4l361 -765h-144zM261 260h198l-99 215z" />
    <glyph glyph-name="Acircumflex" unicode="&#xc2;" horiz-adv-x="720" 
d="M359 890l-135 -84l-54 88l188 116h2l188 -116l-54 -88zM579 0l-62 135h-314l-62 -135h-144l361 765h4l361 -765h-144zM261 260h198l-99 215z" />
    <glyph glyph-name="Adieresis" unicode="&#xc4;" horiz-adv-x="720" 
d="M239 827c-47 0 -84 36 -84 83s37 83 84 83s84 -36 84 -83s-37 -83 -84 -83zM479 827c-47 0 -84 36 -84 83s37 83 84 83s84 -36 84 -83s-37 -83 -84 -83zM579 0l-62 135h-314l-62 -135h-144l361 765h4l361 -765h-144zM261 260h198l-99 215z" />
    <glyph glyph-name="Agrave" unicode="&#xc0;" horiz-adv-x="720" 
d="M501 903l-44 -97l-241 99l47 105zM579 0l-62 135h-314l-62 -135h-144l361 765h4l361 -765h-144zM261 260h198l-99 215z" />
    <glyph glyph-name="Amacron" unicode="&#x100;" horiz-adv-x="720" 
d="M528 965v-112h-338v112h338zM579 0l-62 135h-314l-62 -135h-144l361 765h4l361 -765h-144zM261 260h198l-99 215z" />
    <glyph glyph-name="Aogonek" unicode="&#x104;" horiz-adv-x="720" 
d="M721 0l-46 -48c-8 -9 -34 -34 -34 -62c0 -20 13 -32 37 -32c15 0 27 4 37 11h1v-73c-15 -10 -35 -16 -61 -16c-68 0 -110 40 -110 95s42 90 76 112l20 13h-62l-62 135h-314l-62 -135h-144l361 765h4l361 -765h-2zM261 260h198l-99 215z" />
    <glyph glyph-name="Aring" unicode="&#xc5;" horiz-adv-x="720" 
d="M359 766c-75 0 -128 54 -128 122c0 67 53 122 128 122s128 -55 128 -122c0 -68 -53 -122 -128 -122zM359 935c-29 0 -48 -21 -48 -47s19 -47 48 -47s48 21 48 47s-19 47 -48 47zM579 0l-62 135h-314l-62 -135h-144l361 765h4l361 -765h-144zM261 260h198l-99 215z" />
    <glyph glyph-name="Atilde" unicode="&#xc3;" horiz-adv-x="720" 
d="M274 879c-38 0 -70 -14 -94 -41v106c24 25 55 39 94 39c64 0 109 -40 175 -40c37 0 70 14 93 41v-106c-23 -24 -56 -39 -93 -39c-66 0 -111 40 -175 40zM579 0l-62 135h-314l-62 -135h-144l361 765h4l361 -765h-144zM261 260h198l-99 215z" />
    <glyph glyph-name="AE" unicode="&#xc6;" horiz-adv-x="1027" 
d="M983 614h-338v-165h266v-126h-266v-197h338v-126h-469v164h-292l-102 -164h-149l467 740h545v-126zM300 289h214v343z" />
    <glyph glyph-name="AEacute" unicode="&#x1fc;" horiz-adv-x="1027" 
d="M787 905l-241 -99l-44 97l238 107zM983 614h-338v-165h266v-126h-266v-197h338v-126h-469v164h-292l-102 -164h-149l467 740h545v-126zM300 289h214v343z" />
    <glyph glyph-name="B" unicode="B" horiz-adv-x="611" 
d="M82 740h212c170 0 250 -70 250 -189c0 -84 -40 -136 -116 -163c102 -22 145 -95 145 -183c0 -141 -108 -205 -286 -205h-205v740zM326 449c54 0 88 27 88 82c0 56 -33 84 -91 84h-110v-166h113zM318 125c96 0 125 47 125 99s-28 101 -127 101h-103v-200h105z" />
    <glyph glyph-name="C" unicode="C" horiz-adv-x="698" 
d="M435 -13c-243 0 -396 173 -396 383s153 383 394 383c79 0 170 -18 223 -51v-132h-2c-54 43 -138 63 -213 63c-178 0 -270 -122 -270 -263s92 -263 272 -263c78 0 161 20 215 63h2v-132c-55 -34 -147 -51 -225 -51z" />
    <glyph glyph-name="Cacute" unicode="&#x106;" horiz-adv-x="698" 
d="M281 903l238 107l47 -105l-241 -99zM435 -13c-243 0 -396 173 -396 383s153 383 394 383c79 0 170 -18 223 -51v-132h-2c-54 43 -138 63 -213 63c-178 0 -270 -122 -270 -263s92 -263 272 -263c78 0 161 20 215 63h2v-132c-55 -34 -147 -51 -225 -51z" />
    <glyph glyph-name="Ccaron" unicode="&#x10c;" horiz-adv-x="698" 
d="M425 806h-2l-188 116l54 88l135 -84l135 84l54 -88zM658 170h2v-132c-55 -34 -147 -51 -225 -51c-243 0 -396 173 -396 383s153 383 394 383c79 0 170 -18 223 -51v-132h-2c-54 43 -138 63 -213 63c-178 0 -270 -122 -270 -263s92 -263 272 -263c78 0 161 20 215 63z" />
    <glyph glyph-name="Ccedilla" unicode="&#xc7;" horiz-adv-x="697" 
d="M434 -13h-3l-12 -34h1c56 0 99 -37 99 -99s-50 -107 -134 -107c-51 0 -74 9 -99 23v73h1c20 -11 54 -19 89 -19s48 9 48 30c0 20 -16 31 -42 31h-68l39 109c-195 34 -315 190 -315 376c0 210 153 383 394 383c79 0 170 -18 223 -51v-132h-2c-54 43 -138 63 -213 63
c-178 0 -270 -122 -270 -263s92 -263 272 -263c78 0 161 20 215 63h2v-132c-55 -34 -147 -51 -225 -51z" />
    <glyph glyph-name="Cdotaccent" unicode="&#x10a;" horiz-adv-x="698" 
d="M424 824c-49 0 -87 37 -87 86s38 86 87 86s87 -37 87 -86s-38 -86 -87 -86zM435 -13c-243 0 -396 173 -396 383s153 383 394 383c79 0 170 -18 223 -51v-132h-2c-54 43 -138 63 -213 63c-178 0 -270 -122 -270 -263s92 -263 272 -263c78 0 161 20 215 63h2v-132
c-55 -34 -147 -51 -225 -51z" />
    <glyph glyph-name="D" unicode="D" horiz-adv-x="730" 
d="M82 0v740h210c236 0 398 -139 398 -370s-162 -370 -398 -370h-210zM289 126c147 0 270 65 270 244s-123 244 -270 244h-76v-488h76z" />
    <glyph glyph-name="Eth" unicode="&#xd0;" horiz-adv-x="744" 
d="M306 740c236 0 398 -139 398 -370s-162 -370 -398 -370h-210v319h-78v112h78v309h210zM303 126c147 0 270 65 270 244s-123 244 -270 244h-76v-183h169v-112h-169v-193h76z" />
    <glyph glyph-name="Dcaron" unicode="&#x10e;" horiz-adv-x="730" 
d="M340 806h-2l-188 116l54 88l135 -84l135 84l54 -88zM292 740c236 0 398 -139 398 -370s-162 -370 -398 -370h-210v740h210zM289 126c147 0 270 65 270 244s-123 244 -270 244h-76v-488h76z" />
    <glyph glyph-name="Dcroat" unicode="&#x110;" horiz-adv-x="744" 
d="M306 740c236 0 398 -139 398 -370s-162 -370 -398 -370h-210v319h-78v112h78v309h210zM303 126c147 0 270 65 270 244s-123 244 -270 244h-76v-183h169v-112h-169v-193h76z" />
    <glyph glyph-name="E" unicode="E" horiz-adv-x="595" 
d="M82 740h469v-126h-338v-165h266v-126h-266v-197h338v-126h-469v740z" />
    <glyph glyph-name="Eacute" unicode="&#xc9;" horiz-adv-x="595" 
d="M181 903l238 107l47 -105l-241 -99zM82 740h469v-126h-338v-165h266v-126h-266v-197h338v-126h-469v740z" />
    <glyph glyph-name="Ecaron" unicode="&#x11a;" horiz-adv-x="595" 
d="M325 806h-2l-188 116l54 88l135 -84l135 84l54 -88zM551 614h-338v-165h266v-126h-266v-197h338v-126h-469v740h469v-126z" />
    <glyph glyph-name="Ecircumflex" unicode="&#xca;" horiz-adv-x="595" 
d="M324 890l-135 -84l-54 88l188 116h2l188 -116l-54 -88zM551 614h-338v-165h266v-126h-266v-197h338v-126h-469v740h469v-126z" />
    <glyph glyph-name="Edieresis" unicode="&#xcb;" horiz-adv-x="595" 
d="M204 827c-47 0 -84 36 -84 83s37 83 84 83s84 -36 84 -83s-37 -83 -84 -83zM444 827c-47 0 -84 36 -84 83s37 83 84 83s84 -36 84 -83s-37 -83 -84 -83zM82 740h469v-126h-338v-165h266v-126h-266v-197h338v-126h-469v740z" />
    <glyph glyph-name="Edotaccent" unicode="&#x116;" horiz-adv-x="595" 
d="M324 824c-49 0 -87 37 -87 86s38 86 87 86s87 -37 87 -86s-38 -86 -87 -86zM82 740h469v-126h-338v-165h266v-126h-266v-197h338v-126h-469v740z" />
    <glyph glyph-name="Egrave" unicode="&#xc8;" horiz-adv-x="595" 
d="M181 905l47 105l238 -107l-44 -97zM82 740h469v-126h-338v-165h266v-126h-266v-197h338v-126h-469v740z" />
    <glyph glyph-name="Emacron" unicode="&#x112;" horiz-adv-x="595" 
d="M155 965h338v-112h-338v112zM82 740h469v-126h-338v-165h266v-126h-266v-197h338v-126h-469v740z" />
    <glyph glyph-name="Eogonek" unicode="&#x118;" horiz-adv-x="595" 
d="M551 614h-338v-165h266v-126h-266v-197h338v-126l-46 -48c-8 -9 -34 -34 -34 -62c0 -20 13 -32 37 -32c15 0 27 4 37 11h1v-73c-15 -10 -35 -16 -61 -16c-68 0 -110 40 -110 95s42 90 76 112l20 13h-389v740h469v-126z" />
    <glyph glyph-name="F" unicode="F" horiz-adv-x="565" 
d="M82 740h459v-126h-328v-165h256v-126h-256v-323h-131v740z" />
    <glyph glyph-name="G" unicode="G" horiz-adv-x="803" 
d="M422 -13c-218 0 -384 166 -384 381c0 212 164 385 404 385c94 0 176 -18 231 -51v-132h-2c-55 43 -132 63 -222 63c-174 0 -279 -122 -279 -265c0 -145 104 -261 253 -261c123 0 212 73 212 193v1h-233v126h363v-85c0 -190 -112 -355 -343 -355z" />
    <glyph glyph-name="Gbreve" unicode="&#x11e;" horiz-adv-x="803" 
d="M422 806c-109 0 -184 82 -184 194h105c0 -53 26 -86 79 -86s79 33 79 86h105c0 -112 -76 -194 -184 -194zM422 -13c-218 0 -384 166 -384 381c0 212 164 385 404 385c94 0 176 -18 231 -51v-132h-2c-55 43 -132 63 -222 63c-174 0 -279 -122 -279 -265
c0 -145 104 -261 253 -261c123 0 212 73 212 193v1h-233v126h363v-85c0 -190 -112 -355 -343 -355z" />
    <glyph glyph-name="uni0122" unicode="&#x122;" horiz-adv-x="803" 
d="M422 -13c-218 0 -384 166 -384 381c0 212 164 385 404 385c94 0 176 -18 231 -51v-132h-2c-55 43 -132 63 -222 63c-174 0 -279 -122 -279 -265c0 -145 104 -261 253 -261c123 0 212 73 212 193v1h-233v126h363v-85c0 -190 -112 -355 -343 -355zM419 -52
c44 0 71 -34 71 -85c0 -77 -48 -141 -115 -157v53c30 9 54 37 54 70c-5 -1 -9 -2 -15 -2c-37 0 -62 27 -62 59s27 62 67 62z" />
    <glyph glyph-name="Gdotaccent" unicode="&#x120;" horiz-adv-x="803" 
d="M422 824c-49 0 -87 37 -87 86s38 86 87 86s87 -37 87 -86s-38 -86 -87 -86zM422 -13c-218 0 -384 166 -384 381c0 212 164 385 404 385c94 0 176 -18 231 -51v-132h-2c-55 43 -132 63 -222 63c-174 0 -279 -122 -279 -265c0 -145 104 -261 253 -261c123 0 212 73 212 193
v1h-233v126h363v-85c0 -190 -112 -355 -343 -355z" />
    <glyph glyph-name="H" unicode="H" horiz-adv-x="782" 
d="M569 740h131v-740h-131v327h-356v-327h-131v740h131v-287h356v287z" />
    <glyph glyph-name="Hbar" unicode="&#x126;" horiz-adv-x="814" 
d="M790 660v-112h-74v-548h-131v327h-356v-327h-131v548h-74v112h74v80h131v-80h356v80h131v-80h74zM585 453v95h-356v-95h356z" />
    <glyph glyph-name="I" unicode="I" horiz-adv-x="295" 
d="M82 740h131v-740h-131v740z" />
    <glyph glyph-name="IJ" unicode="&#x132;" horiz-adv-x="581" 
d="M82 0v740h131v-740h-131zM368 740h131v-805c0 -112 -72 -169 -157 -169c-31 0 -61 4 -86 12v114c16 -3 31 -5 51 -5c36 0 61 15 61 74v779z" />
    <glyph glyph-name="Iacute" unicode="&#xcd;" horiz-adv-x="295" 
d="M5 903l238 107l47 -105l-241 -99zM82 740h131v-740h-131v740z" />
    <glyph glyph-name="Icircumflex" unicode="&#xce;" horiz-adv-x="295" 
d="M149 1010l188 -116l-54 -88l-135 84l-135 -84l-54 88l188 116h2zM82 0v740h131v-740h-131z" />
    <glyph glyph-name="Idieresis" unicode="&#xcf;" horiz-adv-x="295" 
d="M28 827c-47 0 -84 36 -84 83s37 83 84 83s84 -36 84 -83s-37 -83 -84 -83zM268 827c-47 0 -84 36 -84 83s37 83 84 83s84 -36 84 -83s-37 -83 -84 -83zM82 740h131v-740h-131v740z" />
    <glyph glyph-name="Idotaccent" unicode="&#x130;" horiz-adv-x="295" 
d="M148 824c-49 0 -87 37 -87 86s38 86 87 86s87 -37 87 -86s-38 -86 -87 -86zM82 740h131v-740h-131v740z" />
    <glyph glyph-name="Igrave" unicode="&#xcc;" horiz-adv-x="295" 
d="M5 905l47 105l238 -107l-44 -97zM82 740h131v-740h-131v740z" />
    <glyph glyph-name="Imacron" unicode="&#x12a;" horiz-adv-x="295" 
d="M-21 965h338v-112h-338v112zM82 740h131v-740h-131v740z" />
    <glyph glyph-name="Iogonek" unicode="&#x12e;" horiz-adv-x="295" 
d="M213 0l-46 -48c-8 -9 -34 -34 -34 -62c0 -20 13 -32 37 -32c15 0 27 4 37 11h1v-73c-15 -10 -35 -16 -61 -16c-68 0 -110 40 -110 95s42 90 76 112l20 13h-51v740h131v-740z" />
    <glyph glyph-name="Itilde" unicode="&#x128;" horiz-adv-x="295" 
d="M-31 944c24 25 55 39 94 39c64 0 109 -40 175 -40c37 0 70 14 93 41v-106c-23 -24 -56 -39 -93 -39c-66 0 -111 40 -175 40c-38 0 -70 -14 -94 -41v106zM82 740h131v-740h-131v740z" />
    <glyph glyph-name="J" unicode="J" horiz-adv-x="295" 
d="M82 740h131v-805c0 -112 -72 -169 -157 -169c-31 0 -61 4 -86 12v114c16 -3 31 -5 51 -5c36 0 61 15 61 74v779z" />
    <glyph glyph-name="uni00A40301" horiz-adv-x="295" 
d="M290 905l-241 -99l-44 97l238 107zM82 -39v779h131v-805c0 -112 -72 -169 -157 -169c-31 0 -61 4 -86 12v114c16 -3 31 -5 51 -5c36 0 61 15 61 74z" />
    <glyph glyph-name="K" unicode="K" horiz-adv-x="692" 
d="M709 0h-173l-323 358v-358h-131v740h131v-375l303 375h165l-307 -375z" />
    <glyph glyph-name="uni0136" unicode="&#x136;" horiz-adv-x="692" 
d="M374 365l335 -365h-173l-323 358v-358h-131v740h131v-375l303 375h165zM355 -52c44 0 71 -34 71 -85c0 -77 -48 -141 -115 -157v53c30 9 54 37 54 70c-5 -1 -9 -2 -15 -2c-37 0 -62 27 -62 59s27 62 67 62z" />
    <glyph glyph-name="L" unicode="L" horiz-adv-x="568" 
d="M82 740h131v-614h343v-126h-474v740z" />
    <glyph glyph-name="Lacute" unicode="&#x139;" horiz-adv-x="568" 
d="M5 903l238 107l47 -105l-241 -99zM82 740h131v-614h343v-126h-474v740z" />
    <glyph glyph-name="Lcaron" unicode="&#x13d;" horiz-adv-x="574" 
d="M82 740h131v-614h343v-126h-474v740zM501 740l-35 -240h-105l30 240h110z" />
    <glyph glyph-name="uni013B" unicode="&#x13b;" horiz-adv-x="568" 
d="M82 740h131v-614h343v-126h-474v740zM324 -52c44 0 71 -34 71 -85c0 -77 -48 -141 -115 -157v53c30 9 54 37 54 70c-5 -1 -9 -2 -15 -2c-37 0 -62 27 -62 59s27 62 67 62z" />
    <glyph glyph-name="Ldot" unicode="&#x13f;" horiz-adv-x="571" 
d="M82 740h131v-614h343v-126h-474v740zM435 310c-44 0 -78 34 -78 78s34 77 78 77s77 -33 77 -77s-33 -78 -77 -78z" />
    <glyph glyph-name="Lslash" unicode="&#x141;" horiz-adv-x="610" 
d="M255 126h343v-126h-474v270l-56 -26l-48 101l104 49v346h131v-285l86 40l48 -101l-134 -63v-205z" />
    <glyph glyph-name="M" unicode="M" horiz-adv-x="910" 
d="M825 760h3v-760h-131v451l-240 -240h-3l-241 240v-451h-131v760h3l370 -369z" />
    <glyph glyph-name="N" unicode="N" horiz-adv-x="830" 
d="M617 740h131v-760h-3l-532 494v-474h-131v760h3l532 -494v474z" />
    <glyph glyph-name="Nacute" unicode="&#x143;" horiz-adv-x="830" 
d="M566 910l-241 -99l-44 97l238 107zM617 740h131v-760h-3l-532 494v-474h-131v760h3l532 -494v474z" />
    <glyph glyph-name="Ncaron" unicode="&#x147;" horiz-adv-x="830" 
d="M425 811h-2l-188 116l54 88l135 -84l135 84l54 -88zM617 740h131v-760h-3l-532 494v-474h-131v760h3l532 -494v474z" />
    <glyph glyph-name="uni0145" unicode="&#x145;" horiz-adv-x="830" 
d="M617 740h131v-760h-3l-532 494v-474h-131v760h3l532 -494v474zM422 -52c44 0 71 -34 71 -85c0 -77 -48 -141 -115 -157v53c30 9 54 37 54 70c-5 -1 -9 -2 -15 -2c-37 0 -62 27 -62 59s27 62 67 62z" />
    <glyph glyph-name="Eng" unicode="&#x14a;" horiz-adv-x="830" 
d="M617 740h131v-805c0 -112 -72 -169 -157 -169c-31 0 -61 4 -86 12v114c16 -3 31 -5 51 -5c36 0 61 15 61 74v138l-404 375v-474h-131v760h3l532 -494v474z" />
    <glyph glyph-name="Ntilde" unicode="&#xd1;" horiz-adv-x="830" 
d="M523 844c-73 0 -122 40 -193 40c-42 0 -77 -14 -104 -41v106c27 25 61 39 104 39c71 0 120 -40 193 -40c41 0 78 14 103 41v-106c-25 -24 -62 -39 -103 -39zM617 740h131v-760h-3l-532 494v-474h-131v760h3l532 -494v474z" />
    <glyph glyph-name="O" unicode="O" horiz-adv-x="850" 
d="M425 -13c-213 0 -387 166 -387 382c0 211 166 384 387 384s387 -173 387 -384c0 -216 -174 -382 -387 -382zM425 107c142 0 255 116 255 261c0 143 -109 265 -255 265s-255 -122 -255 -265c0 -145 113 -261 255 -261z" />
    <glyph glyph-name="Oacute" unicode="&#xd3;" horiz-adv-x="850" 
d="M282 903l238 107l47 -105l-241 -99zM425 -13c-213 0 -387 166 -387 382c0 211 166 384 387 384s387 -173 387 -384c0 -216 -174 -382 -387 -382zM425 107c142 0 255 116 255 261c0 143 -109 265 -255 265s-255 -122 -255 -265c0 -145 113 -261 255 -261z" />
    <glyph glyph-name="Ocircumflex" unicode="&#xd4;" horiz-adv-x="850" 
d="M425 890l-135 -84l-54 88l188 116h2l188 -116l-54 -88zM425 753c221 0 387 -173 387 -384c0 -216 -174 -382 -387 -382s-387 166 -387 382c0 211 166 384 387 384zM425 107c142 0 255 116 255 261c0 143 -109 265 -255 265s-255 -122 -255 -265c0 -145 113 -261 255 -261
z" />
    <glyph glyph-name="Odieresis" unicode="&#xd6;" horiz-adv-x="850" 
d="M305 827c-47 0 -84 36 -84 83s37 83 84 83s84 -36 84 -83s-37 -83 -84 -83zM545 827c-47 0 -84 36 -84 83s37 83 84 83s84 -36 84 -83s-37 -83 -84 -83zM425 -13c-213 0 -387 166 -387 382c0 211 166 384 387 384s387 -173 387 -384c0 -216 -174 -382 -387 -382zM425 107
c142 0 255 116 255 261c0 143 -109 265 -255 265s-255 -122 -255 -265c0 -145 113 -261 255 -261z" />
    <glyph glyph-name="Ograve" unicode="&#xd2;" horiz-adv-x="850" 
d="M282 905l47 105l238 -107l-44 -97zM425 -13c-213 0 -387 166 -387 382c0 211 166 384 387 384s387 -173 387 -384c0 -216 -174 -382 -387 -382zM425 107c142 0 255 116 255 261c0 143 -109 265 -255 265s-255 -122 -255 -265c0 -145 113 -261 255 -261z" />
    <glyph glyph-name="Ohungarumlaut" unicode="&#x150;" horiz-adv-x="850" 
d="M260 872l109 138l89 -72l-114 -132zM450 872l109 138l89 -72l-114 -132zM425 -13c-213 0 -387 166 -387 382c0 211 166 384 387 384s387 -173 387 -384c0 -216 -174 -382 -387 -382zM425 107c142 0 255 116 255 261c0 143 -109 265 -255 265s-255 -122 -255 -265
c0 -145 113 -261 255 -261z" />
    <glyph glyph-name="Omacron" unicode="&#x14c;" horiz-adv-x="850" 
d="M256 965h338v-112h-338v112zM425 -13c-213 0 -387 166 -387 382c0 211 166 384 387 384s387 -173 387 -384c0 -216 -174 -382 -387 -382zM425 107c142 0 255 116 255 261c0 143 -109 265 -255 265s-255 -122 -255 -265c0 -145 113 -261 255 -261z" />
    <glyph glyph-name="uni01EA" unicode="&#x1ea;" horiz-adv-x="850" 
d="M541 4l-40 -42c-8 -9 -34 -34 -34 -62c0 -20 13 -32 37 -32c15 0 27 4 37 11h1v-73c-15 -10 -35 -16 -61 -16c-68 0 -110 40 -110 95c0 47 31 80 62 102h-8c-213 0 -387 166 -387 382c0 211 166 384 387 384s387 -173 387 -384c0 -175 -114 -317 -271 -365zM170 368
c0 -145 113 -261 255 -261s255 116 255 261c0 143 -109 265 -255 265s-255 -122 -255 -265z" />
    <glyph glyph-name="Oslash" unicode="&#xd8;" horiz-adv-x="937" 
d="M946 740l-159 -150c44 -63 69 -139 69 -221c0 -216 -174 -382 -387 -382c-89 0 -171 29 -236 78l-69 -65h-173l159 151c-43 61 -68 136 -68 218c0 211 166 384 387 384c90 0 171 -29 236 -77l68 64h173zM214 368c0 -46 11 -89 32 -127l366 347c-40 28 -89 45 -143 45
c-146 0 -255 -122 -255 -265zM724 368c0 47 -12 92 -33 131l-366 -347c41 -28 90 -45 144 -45c142 0 255 116 255 261z" />
    <glyph glyph-name="Oslashacute" unicode="&#x1fe;" horiz-adv-x="937" 
d="M611 905l-241 -99l-44 97l238 107zM946 740l-159 -150c44 -63 69 -139 69 -221c0 -216 -174 -382 -387 -382c-89 0 -171 29 -236 78l-69 -65h-173l159 151c-43 61 -68 136 -68 218c0 211 166 384 387 384c90 0 171 -29 236 -77l68 64h173zM214 368c0 -46 11 -89 32 -127
l366 347c-40 28 -89 45 -143 45c-146 0 -255 -122 -255 -265zM724 368c0 47 -12 92 -33 131l-366 -347c41 -28 90 -45 144 -45c142 0 255 116 255 261z" />
    <glyph glyph-name="Otilde" unicode="&#xd5;" horiz-adv-x="850" 
d="M246 944c24 25 55 39 94 39c64 0 109 -40 175 -40c37 0 70 14 93 41v-106c-23 -24 -56 -39 -93 -39c-66 0 -111 40 -175 40c-38 0 -70 -14 -94 -41v106zM425 -13c-213 0 -387 166 -387 382c0 211 166 384 387 384s387 -173 387 -384c0 -216 -174 -382 -387 -382zM425 107
c142 0 255 116 255 261c0 143 -109 265 -255 265s-255 -122 -255 -265c0 -145 113 -261 255 -261z" />
    <glyph glyph-name="OE" unicode="&#x152;" horiz-adv-x="1193" 
d="M1149 614h-338v-165h266v-126h-266v-197h338v-126h-469v80c-68 -58 -158 -93 -255 -93c-213 0 -387 166 -387 382c0 211 166 384 387 384c100 0 188 -35 255 -93v80h469v-126zM425 107c142 0 255 116 255 261c0 143 -109 265 -255 265s-255 -122 -255 -265
c0 -145 113 -261 255 -261z" />
    <glyph glyph-name="P" unicode="P" horiz-adv-x="623" 
d="M82 740h236c196 0 280 -112 280 -246s-84 -247 -280 -247h-105v-247h-131v740zM318 373c107 0 150 54 150 120s-43 121 -150 121h-105v-241h105z" />
    <glyph glyph-name="Thorn" unicode="&#xde;" horiz-adv-x="632" 
d="M318 618c196 0 280 -112 280 -246s-84 -247 -280 -247h-105v-125h-131v740h131v-122h105zM318 251c107 0 150 54 150 120s-43 121 -150 121h-105v-241h105z" />
    <glyph glyph-name="Q" unicode="Q" horiz-adv-x="850" 
d="M828 126v-126h-334c-23 -1 -45 0 -69 0c-213 0 -387 153 -387 369c0 211 166 384 387 384s387 -173 387 -384c0 -97 -35 -184 -127 -243h143zM170 368c0 -145 113 -248 255 -248c152 0 255 103 255 248c0 143 -109 265 -255 265s-255 -122 -255 -265z" />
    <glyph glyph-name="R" unicode="R" horiz-adv-x="659" 
d="M629 0h-161l-242 307h-13v-307h-131v740h277c186 0 256 -92 256 -216c0 -119 -65 -210 -235 -217zM213 614v-195h152c79 0 120 34 120 97s-41 98 -120 98h-152z" />
    <glyph glyph-name="Racute" unicode="&#x154;" horiz-adv-x="659" 
d="M472 905l-241 -99l-44 97l238 107zM629 0h-161l-242 307h-13v-307h-131v740h277c186 0 256 -92 256 -216c0 -119 -65 -210 -235 -217zM213 614v-195h152c79 0 120 34 120 97s-41 98 -120 98h-152z" />
    <glyph glyph-name="Rcaron" unicode="&#x158;" horiz-adv-x="659" 
d="M331 806h-2l-188 116l54 88l135 -84l135 84l54 -88zM629 0h-161l-242 307h-13v-307h-131v740h277c186 0 256 -92 256 -216c0 -119 -65 -210 -235 -217zM213 614v-195h152c79 0 120 34 120 97s-41 98 -120 98h-152z" />
    <glyph glyph-name="uni0156" unicode="&#x156;" horiz-adv-x="659" 
d="M380 307l249 -307h-161l-242 307h-13v-307h-131v740h277c186 0 256 -92 256 -216c0 -119 -65 -210 -235 -217zM213 614v-195h152c79 0 120 34 120 97s-41 98 -120 98h-152zM332 -52c44 0 71 -34 71 -85c0 -77 -48 -141 -115 -157v53c30 9 54 37 54 70c-5 -1 -9 -2 -15 -2
c-37 0 -62 27 -62 59s27 62 67 62z" />
    <glyph glyph-name="S" unicode="S" horiz-adv-x="548" 
d="M247 -13c-76 0 -144 18 -197 52v132h3c57 -43 119 -64 190 -64c86 0 134 33 134 92c0 155 -325 98 -325 340c0 131 98 214 252 214c62 0 122 -12 169 -35v-131h-3c-48 30 -105 46 -163 46c-78 0 -123 -30 -123 -82c0 -143 325 -83 325 -337c0 -141 -99 -227 -262 -227z
" />
    <glyph glyph-name="Sacute" unicode="&#x15a;" horiz-adv-x="548" 
d="M141 903l238 107l47 -105l-241 -99zM247 -13c-76 0 -144 18 -197 52v132h3c57 -43 119 -64 190 -64c86 0 134 33 134 92c0 155 -325 98 -325 340c0 131 98 214 252 214c62 0 122 -12 169 -35v-131h-3c-48 30 -105 46 -163 46c-78 0 -123 -30 -123 -82
c0 -143 325 -83 325 -337c0 -141 -99 -227 -262 -227z" />
    <glyph glyph-name="Scaron" unicode="&#x160;" horiz-adv-x="548" 
d="M285 806h-2l-188 116l54 88l135 -84l135 84l54 -88zM184 551c0 -143 325 -83 325 -337c0 -141 -99 -227 -262 -227c-76 0 -144 18 -197 52v132h3c57 -43 119 -64 190 -64c86 0 134 33 134 92c0 155 -325 98 -325 340c0 131 98 214 252 214c62 0 122 -12 169 -35v-131h-3
c-48 30 -105 46 -163 46c-78 0 -123 -30 -123 -82z" />
    <glyph glyph-name="Scedilla" unicode="&#x15e;" horiz-adv-x="548" 
d="M509 214c0 -123 -75 -204 -201 -223l-14 -38h1c56 0 99 -37 99 -99s-50 -107 -134 -107c-51 0 -74 9 -99 23v73h1c20 -11 54 -19 89 -19s48 9 48 30c0 20 -16 31 -42 31h-68l37 102c-67 3 -128 21 -176 52v132h3c57 -43 119 -64 190 -64c86 0 134 33 134 92
c0 155 -325 98 -325 340c0 131 98 214 252 214c62 0 122 -12 169 -35v-131h-3c-48 30 -105 46 -163 46c-78 0 -123 -30 -123 -82c0 -143 325 -83 325 -337z" />
    <glyph glyph-name="uni0218" unicode="&#x218;" horiz-adv-x="548" 
d="M247 -13c-76 0 -144 18 -197 52v132h3c57 -43 119 -64 190 -64c86 0 134 33 134 92c0 155 -325 98 -325 340c0 131 98 214 252 214c62 0 122 -12 169 -35v-131h-3c-48 30 -105 46 -163 46c-78 0 -123 -30 -123 -82c0 -143 325 -83 325 -337c0 -141 -99 -227 -262 -227z
M285 -52c44 0 71 -34 71 -85c0 -77 -48 -141 -115 -157v53c30 9 54 37 54 70c-5 -1 -9 -2 -15 -2c-37 0 -62 27 -62 59s27 62 67 62z" />
    <glyph glyph-name="uni1E9E" unicode="&#x1e9e;" horiz-adv-x="732" 
d="M516 438c127 -51 177 -125 177 -226c0 -140 -90 -225 -245 -225c-71 0 -123 18 -154 39v126h2c38 -28 85 -45 141 -45c87 0 125 41 125 104c0 73 -51 107 -226 147v3l126 253h-249v-614h-131v740h590v-3z" />
    <glyph glyph-name="T" unicode="T" horiz-adv-x="630" 
d="M250 614h-238v126h606v-126h-237v-614h-131v614z" />
    <glyph glyph-name="Tbar" unicode="&#x166;" horiz-adv-x="640" 
d="M623 614h-237v-208h123v-112h-123v-294h-131v294h-124v112h124v208h-238v126h606v-126z" />
    <glyph glyph-name="Tcaron" unicode="&#x164;" horiz-adv-x="630" 
d="M316 806h-2l-188 116l54 88l135 -84l135 84l54 -88zM12 740h606v-126h-237v-614h-131v614h-238v126z" />
    <glyph glyph-name="uni0162" unicode="&#x162;" horiz-adv-x="630" 
d="M381 0h-23l-17 -47h1c56 0 99 -37 99 -99s-50 -107 -134 -107c-51 0 -74 9 -99 23v73h1c20 -11 54 -19 89 -19s48 9 48 30c0 20 -16 31 -42 31h-68l42 115h-28v614h-238v126h606v-126h-237v-614z" />
    <glyph glyph-name="uni021A" unicode="&#x21a;" horiz-adv-x="630" 
d="M250 614h-238v126h606v-126h-237v-614h-131v614zM319 -52c44 0 71 -34 71 -85c0 -77 -48 -141 -115 -157v53c30 9 54 37 54 70c-5 -1 -9 -2 -15 -2c-37 0 -62 27 -62 59s27 62 67 62z" />
    <glyph glyph-name="U" unicode="U" horiz-adv-x="766" 
d="M693 740v-423c0 -227 -124 -330 -310 -330s-310 103 -310 330v423h131v-423c0 -139 52 -210 179 -210s179 71 179 210v423h131z" />
    <glyph glyph-name="Uacute" unicode="&#xda;" horiz-adv-x="766" 
d="M240 903l238 107l47 -105l-241 -99zM693 740v-423c0 -227 -124 -330 -310 -330s-310 103 -310 330v423h131v-423c0 -139 52 -210 179 -210s179 71 179 210v423h131z" />
    <glyph glyph-name="Ucircumflex" unicode="&#xdb;" horiz-adv-x="766" 
d="M383 890l-135 -84l-54 88l188 116h2l188 -116l-54 -88zM562 740h131v-423c0 -227 -124 -330 -310 -330s-310 103 -310 330v423h131v-423c0 -139 52 -210 179 -210s179 71 179 210v423z" />
    <glyph glyph-name="Udieresis" unicode="&#xdc;" horiz-adv-x="766" 
d="M263 827c-47 0 -84 36 -84 83s37 83 84 83s84 -36 84 -83s-37 -83 -84 -83zM503 827c-47 0 -84 36 -84 83s37 83 84 83s84 -36 84 -83s-37 -83 -84 -83zM693 740v-423c0 -227 -124 -330 -310 -330s-310 103 -310 330v423h131v-423c0 -139 52 -210 179 -210
s179 71 179 210v423h131z" />
    <glyph glyph-name="Ugrave" unicode="&#xd9;" horiz-adv-x="766" 
d="M240 905l47 105l238 -107l-44 -97zM693 740v-423c0 -227 -124 -330 -310 -330s-310 103 -310 330v423h131v-423c0 -139 52 -210 179 -210s179 71 179 210v423h131z" />
    <glyph glyph-name="Uhungarumlaut" unicode="&#x170;" horiz-adv-x="766" 
d="M218 872l109 138l89 -72l-114 -132zM408 872l109 138l89 -72l-114 -132zM693 740v-423c0 -227 -124 -330 -310 -330s-310 103 -310 330v423h131v-423c0 -139 52 -210 179 -210s179 71 179 210v423h131z" />
    <glyph glyph-name="Umacron" unicode="&#x16a;" horiz-adv-x="766" 
d="M214 965h338v-112h-338v112zM693 740v-423c0 -227 -124 -330 -310 -330s-310 103 -310 330v423h131v-423c0 -139 52 -210 179 -210s179 71 179 210v423h131z" />
    <glyph glyph-name="Uogonek" unicode="&#x172;" horiz-adv-x="766" 
d="M562 740h131v-423c0 -181 -79 -284 -206 -317l-36 -38c-8 -9 -34 -34 -34 -62c0 -20 13 -32 37 -32c15 0 27 4 37 11h1v-73c-15 -10 -35 -16 -61 -16c-68 0 -110 40 -110 95c0 47 31 80 61 102c-185 0 -309 103 -309 330v423h131v-423c0 -139 52 -210 179 -210
s179 71 179 210v423z" />
    <glyph glyph-name="Uring" unicode="&#x16e;" horiz-adv-x="766" 
d="M383 766c-75 0 -128 54 -128 122c0 67 53 122 128 122s128 -55 128 -122c0 -68 -53 -122 -128 -122zM383 841c29 0 48 21 48 47s-19 47 -48 47s-48 -21 -48 -47s19 -47 48 -47zM693 740v-423c0 -227 -124 -330 -310 -330s-310 103 -310 330v423h131v-423
c0 -139 52 -210 179 -210s179 71 179 210v423h131z" />
    <glyph glyph-name="Utilde" unicode="&#x168;" horiz-adv-x="766" 
d="M204 944c24 25 55 39 94 39c64 0 109 -40 175 -40c37 0 70 14 93 41v-106c-23 -24 -56 -39 -93 -39c-66 0 -111 40 -175 40c-38 0 -70 -14 -94 -41v106zM693 740v-423c0 -227 -124 -330 -310 -330s-310 103 -310 330v423h131v-423c0 -139 52 -210 179 -210
s179 71 179 210v423h131z" />
    <glyph glyph-name="V" unicode="V" horiz-adv-x="714" 
d="M570 740h144l-353 -765h-4l-361 765h144l219 -474z" />
    <glyph glyph-name="W" unicode="W" horiz-adv-x="1012" 
d="M869 740h141l-286 -750h-4l-214 465l-214 -465h-4l-286 750h141l157 -427l204 442h4l204 -442z" />
    <glyph glyph-name="Wacute" unicode="&#x1e82;" horiz-adv-x="1012" 
d="M650 905l-241 -99l-44 97l238 107zM869 740h141l-286 -750h-4l-214 465l-214 -465h-4l-286 750h141l157 -427l204 442h4l204 -442z" />
    <glyph glyph-name="Wcircumflex" unicode="&#x174;" horiz-adv-x="1012" 
d="M508 890l-135 -84l-54 88l188 116h2l188 -116l-54 -88zM869 740h141l-286 -750h-4l-214 465l-214 -465h-4l-286 750h141l157 -427l204 442h4l204 -442z" />
    <glyph glyph-name="Wdieresis" unicode="&#x1e84;" horiz-adv-x="1012" 
d="M388 827c-47 0 -84 36 -84 83s37 83 84 83s84 -36 84 -83s-37 -83 -84 -83zM628 827c-47 0 -84 36 -84 83s37 83 84 83s84 -36 84 -83s-37 -83 -84 -83zM869 740h141l-286 -750h-4l-214 465l-214 -465h-4l-286 750h141l157 -427l204 442h4l204 -442z" />
    <glyph glyph-name="Wgrave" unicode="&#x1e80;" horiz-adv-x="1012" 
d="M650 903l-44 -97l-241 99l47 105zM869 740h141l-286 -750h-4l-214 465l-214 -465h-4l-286 750h141l157 -427l204 442h4l204 -442z" />
    <glyph glyph-name="X" unicode="X" horiz-adv-x="658" 
d="M660 740l-251 -376l243 -364h-155l-171 257l-171 -257h-155l249 373l-245 367h155l173 -260l173 260h155z" />
    <glyph glyph-name="Y" unicode="Y" horiz-adv-x="690" 
d="M526 740h153l-268 -414v-326h-131v325l-268 415h153l180 -284z" />
    <glyph glyph-name="Yacute" unicode="&#xdd;" horiz-adv-x="690" 
d="M488 905l-241 -99l-44 97l238 107zM526 740h153l-268 -414v-326h-131v325l-268 415h153l180 -284z" />
    <glyph glyph-name="Ycircumflex" unicode="&#x176;" horiz-adv-x="690" 
d="M346 890l-135 -84l-54 88l188 116h2l188 -116l-54 -88zM526 740h153l-268 -414v-326h-131v325l-268 415h153l180 -284z" />
    <glyph glyph-name="Ydieresis" unicode="&#x178;" horiz-adv-x="690" 
d="M226 827c-47 0 -84 36 -84 83s37 83 84 83s84 -36 84 -83s-37 -83 -84 -83zM466 827c-47 0 -84 36 -84 83s37 83 84 83s84 -36 84 -83s-37 -83 -84 -83zM526 740h153l-268 -414v-326h-131v325l-268 415h153l180 -284z" />
    <glyph glyph-name="Ygrave" unicode="&#x1ef2;" horiz-adv-x="690" 
d="M488 903l-44 -97l-241 99l47 105zM526 740h153l-268 -414v-326h-131v325l-268 415h153l180 -284z" />
    <glyph glyph-name="uni1EF8" unicode="&#x1ef8;" horiz-adv-x="690" 
d="M261 879c-38 0 -70 -14 -94 -41v106c24 25 55 39 94 39c64 0 109 -40 175 -40c37 0 70 14 93 41v-106c-23 -24 -56 -39 -93 -39c-66 0 -111 40 -175 40zM526 740h153l-268 -414v-326h-131v325l-268 415h153l180 -284z" />
    <glyph glyph-name="Z" unicode="Z" horiz-adv-x="646" 
d="M635 740v-3l-396 -613h370v-124h-598v3l396 613h-369v124h597z" />
    <glyph glyph-name="Zacute" unicode="&#x179;" horiz-adv-x="646" 
d="M458 905l-241 -99l-44 97l238 107zM635 740v-3l-396 -613h370v-124h-598v3l396 613h-369v124h597z" />
    <glyph glyph-name="Zcaron" unicode="&#x17d;" horiz-adv-x="646" 
d="M317 806h-2l-188 116l54 88l135 -84l135 84l54 -88zM635 740v-3l-396 -613h370v-124h-598v3l396 613h-369v124h597z" />
    <glyph glyph-name="Zdotaccent" unicode="&#x17b;" horiz-adv-x="646" 
d="M316 824c-49 0 -87 37 -87 86s38 86 87 86s87 -37 87 -86s-38 -86 -87 -86zM635 740v-3l-396 -613h370v-124h-598v3l396 613h-369v124h597z" />
    <glyph glyph-name="a" unicode="a" horiz-adv-x="601" 
d="M416 475h123v-475h-123v48c-33 -35 -79 -57 -138 -57c-138 0 -246 108 -246 247s108 246 246 246c59 0 105 -22 138 -57v48zM286 107c78 0 130 60 130 131c0 70 -52 130 -130 130c-75 0 -129 -60 -129 -130c0 -71 54 -131 129 -131z" />
    <glyph glyph-name="aacute" unicode="&#xe1;" horiz-adv-x="601" 
d="M441 640l-241 -99l-44 97l238 107zM416 475h123v-475h-123v48c-33 -35 -79 -57 -138 -57c-138 0 -246 108 -246 247s108 246 246 246c59 0 105 -22 138 -57v48zM286 107c78 0 130 60 130 131c0 70 -52 130 -130 130c-75 0 -129 -60 -129 -130c0 -71 54 -131 129 -131z
" />
    <glyph glyph-name="abreve" unicode="&#x103;" horiz-adv-x="601" 
d="M299 541c-109 0 -184 82 -184 194h105c0 -53 26 -86 79 -86s79 33 79 86h105c0 -112 -76 -194 -184 -194zM416 475h123v-475h-123v48c-33 -35 -79 -57 -138 -57c-138 0 -246 108 -246 247s108 246 246 246c59 0 105 -22 138 -57v48zM286 107c78 0 130 60 130 131
c0 70 -52 130 -130 130c-75 0 -129 -60 -129 -130c0 -71 54 -131 129 -131z" />
    <glyph glyph-name="acircumflex" unicode="&#xe2;" horiz-adv-x="601" 
d="M299 625l-135 -84l-54 88l188 116h2l188 -116l-54 -88zM416 475h123v-475h-123v48c-33 -35 -79 -57 -138 -57c-138 0 -246 108 -246 247s108 246 246 246c59 0 105 -22 138 -57v48zM286 107c78 0 130 60 130 131c0 70 -52 130 -130 130c-75 0 -129 -60 -129 -130
c0 -71 54 -131 129 -131z" />
    <glyph glyph-name="adieresis" unicode="&#xe4;" horiz-adv-x="601" 
d="M189 566c-45 0 -80 34 -80 80c0 45 35 79 80 79s80 -34 80 -79c0 -46 -35 -80 -80 -80zM409 566c-45 0 -80 34 -80 80c0 45 35 79 80 79s80 -34 80 -79c0 -46 -35 -80 -80 -80zM416 475h123v-475h-123v48c-33 -35 -79 -57 -138 -57c-138 0 -246 108 -246 247
s108 246 246 246c59 0 105 -22 138 -57v48zM286 107c78 0 130 60 130 131c0 70 -52 130 -130 130c-75 0 -129 -60 -129 -130c0 -71 54 -131 129 -131z" />
    <glyph glyph-name="agrave" unicode="&#xe0;" horiz-adv-x="601" 
d="M441 638l-44 -97l-241 99l47 105zM416 475h123v-475h-123v48c-33 -35 -79 -57 -138 -57c-138 0 -246 108 -246 247s108 246 246 246c59 0 105 -22 138 -57v48zM286 107c78 0 130 60 130 131c0 70 -52 130 -130 130c-75 0 -129 -60 -129 -130c0 -71 54 -131 129 -131z" />
    <glyph glyph-name="amacron" unicode="&#x101;" horiz-adv-x="601" 
d="M468 701v-112h-338v112h338zM416 475h123v-475h-123v48c-33 -35 -79 -57 -138 -57c-138 0 -246 108 -246 247s108 246 246 246c59 0 105 -22 138 -57v48zM286 107c78 0 130 60 130 131c0 70 -52 130 -130 130c-75 0 -129 -60 -129 -130c0 -71 54 -131 129 -131z" />
    <glyph glyph-name="aogonek" unicode="&#x105;" horiz-adv-x="601" 
d="M539 0l-46 -48c-8 -9 -34 -34 -34 -62c0 -20 13 -32 37 -32c15 0 27 4 37 11h1v-73c-15 -10 -35 -16 -61 -16c-68 0 -110 40 -110 95s42 90 76 112l20 13h-43v48c-33 -35 -79 -57 -138 -57c-138 0 -246 108 -246 247s108 246 246 246c59 0 105 -22 138 -57v48h123v-475z
M286 107c78 0 130 60 130 131c0 70 -52 130 -130 130c-75 0 -129 -60 -129 -130c0 -71 54 -131 129 -131z" />
    <glyph glyph-name="aring" unicode="&#xe5;" horiz-adv-x="601" 
d="M299 501c-75 0 -128 54 -128 122c0 67 53 122 128 122s128 -55 128 -122c0 -68 -53 -122 -128 -122zM299 670c-29 0 -48 -21 -48 -47s19 -47 48 -47s48 21 48 47s-19 47 -48 47zM416 475h123v-475h-123v48c-33 -35 -79 -57 -138 -57c-138 0 -246 108 -246 247
s108 246 246 246c59 0 105 -22 138 -57v48zM286 107c78 0 130 60 130 131c0 70 -52 130 -130 130c-75 0 -129 -60 -129 -130c0 -71 54 -131 129 -131z" />
    <glyph glyph-name="atilde" unicode="&#xe3;" horiz-adv-x="601" 
d="M228 614c-24 0 -37 -14 -37 -48h-93c0 92 42 150 123 150c69 0 117 -48 152 -48c22 0 34 11 34 48h93c0 -92 -44 -150 -119 -150c-73 0 -120 48 -153 48zM416 475h123v-475h-123v48c-33 -35 -79 -57 -138 -57c-138 0 -246 108 -246 247s108 246 246 246
c59 0 105 -22 138 -57v48zM286 107c78 0 130 60 130 131c0 70 -52 130 -130 130c-75 0 -129 -60 -129 -130c0 -71 54 -131 129 -131z" />
    <glyph glyph-name="ae" unicode="&#xe6;" horiz-adv-x="936" 
d="M663 484c143 0 243 -109 243 -248c0 -10 -1 -26 -2 -39h-360c14 -58 59 -99 129 -99c49 0 92 20 117 53l84 -67c-41 -55 -102 -97 -197 -97c-62 0 -112 16 -152 43v-30h-109v38c-38 -30 -85 -47 -138 -47c-131 0 -246 108 -246 247s115 246 246 246c53 0 100 -17 138 -47
v38h109v-34c38 27 85 43 138 43zM546 287h236c-12 52 -56 85 -116 85c-56 0 -103 -31 -120 -85zM286 107c73 0 130 60 130 131c0 70 -57 130 -130 130c-70 0 -129 -60 -129 -130c0 -71 59 -131 129 -131z" />
    <glyph glyph-name="aeacute" unicode="&#x1fd;" horiz-adv-x="936" 
d="M611 640l-241 -99l-44 97l238 107zM663 484c143 0 243 -109 243 -248c0 -10 -1 -26 -2 -39h-360c14 -58 59 -99 129 -99c49 0 92 20 117 53l84 -67c-41 -55 -102 -97 -197 -97c-62 0 -112 16 -152 43v-30h-109v38c-38 -30 -85 -47 -138 -47c-131 0 -246 108 -246 247
s115 246 246 246c53 0 100 -17 138 -47v38h109v-34c38 27 85 43 138 43zM546 287h236c-12 52 -56 85 -116 85c-56 0 -103 -31 -120 -85zM286 107c73 0 130 60 130 131c0 70 -57 130 -130 130c-70 0 -129 -60 -129 -130c0 -71 59 -131 129 -131z" />
    <glyph glyph-name="b" unicode="b" horiz-adv-x="601" 
d="M323 484c131 0 246 -107 246 -246s-115 -247 -246 -247c-53 0 -100 17 -138 47v-38h-123v725l123 30v-318c38 30 85 47 138 47zM315 107c70 0 129 60 129 131c0 70 -59 130 -129 130c-73 0 -130 -60 -130 -130c0 -71 57 -131 130 -131z" />
    <glyph glyph-name="c" unicode="c" horiz-adv-x="477" 
d="M290 -9c-157 0 -257 110 -257 247c0 138 101 246 252 246c65 0 113 -17 151 -41v-122h-2c-38 28 -84 47 -136 47c-84 0 -140 -52 -140 -130c0 -72 48 -131 143 -131c54 0 99 17 137 45h2v-122c-35 -23 -84 -39 -150 -39z" />
    <glyph glyph-name="cacute" unicode="&#x107;" horiz-adv-x="477" 
d="M141 638l238 107l47 -105l-241 -99zM290 -9c-157 0 -257 110 -257 247c0 138 101 246 252 246c65 0 113 -17 151 -41v-122h-2c-38 28 -84 47 -136 47c-84 0 -140 -52 -140 -130c0 -72 48 -131 143 -131c54 0 99 17 137 45h2v-122c-35 -23 -84 -39 -150 -39z" />
    <glyph glyph-name="ccaron" unicode="&#x10d;" horiz-adv-x="477" 
d="M285 542h-2l-188 116l54 88l135 -84l135 84l54 -88zM301 107c54 0 99 17 137 45h2v-122c-35 -23 -84 -39 -150 -39c-157 0 -257 110 -257 247c0 138 101 246 252 246c65 0 113 -17 151 -41v-122h-2c-38 28 -84 47 -136 47c-84 0 -140 -52 -140 -130
c0 -72 48 -131 143 -131z" />
    <glyph glyph-name="ccedilla" unicode="&#xe7;" horiz-adv-x="477" 
d="M440 30c-32 -21 -76 -36 -133 -39l-14 -38h1c56 0 99 -37 99 -99s-50 -107 -134 -107c-51 0 -74 9 -99 23v73h1c20 -11 54 -19 89 -19s48 9 48 30c0 20 -16 31 -42 31h-68l41 112c-122 25 -196 123 -196 241c0 138 101 246 252 246c65 0 113 -17 151 -41v-122h-2
c-38 28 -84 47 -136 47c-84 0 -140 -52 -140 -130c0 -72 48 -131 143 -131c54 0 99 17 137 45h2v-122z" />
    <glyph glyph-name="cdotaccent" unicode="&#x10b;" horiz-adv-x="477" 
d="M284 572c-45 0 -80 34 -80 80c0 45 35 79 80 79s80 -34 80 -79c0 -46 -35 -80 -80 -80zM290 -9c-157 0 -257 110 -257 247c0 138 101 246 252 246c65 0 113 -17 151 -41v-122h-2c-38 28 -84 47 -136 47c-84 0 -140 -52 -140 -130c0 -72 48 -131 143 -131
c54 0 99 17 137 45h2v-122c-35 -23 -84 -39 -150 -39z" />
    <glyph glyph-name="d" unicode="d" horiz-adv-x="601" 
d="M416 725l123 30v-755h-123v38c-38 -30 -85 -47 -138 -47c-131 0 -246 108 -246 247s115 246 246 246c53 0 100 -17 138 -47v288zM286 107c73 0 130 60 130 131c0 70 -57 130 -130 130c-70 0 -129 -60 -129 -130c0 -71 59 -131 129 -131z" />
    <glyph glyph-name="eth" unicode="&#xf0;" horiz-adv-x="570" 
d="M486 404c40 -68 51 -119 51 -168c0 -137 -112 -249 -253 -249c-140 0 -252 112 -252 249c0 138 112 244 240 244c12 0 23 -1 33 -3l-44 73l-112 -30l-27 100l83 22l-59 98h142l38 -65l104 28l27 -100l-76 -21zM284 105c73 0 128 60 128 131c0 70 -55 130 -128 130
c-72 0 -127 -60 -127 -130c0 -71 55 -131 127 -131z" />
    <glyph glyph-name="dcaron" unicode="&#x10f;" horiz-adv-x="625" 
d="M416 437v288l123 30v-755h-123v38c-38 -30 -85 -47 -138 -47c-131 0 -246 108 -246 247s115 246 246 246c53 0 100 -17 138 -47zM614 740h110l-35 -240h-105zM286 107c73 0 130 60 130 131c0 70 -57 130 -130 130c-70 0 -129 -60 -129 -130c0 -71 59 -131 129 -131z" />
    <glyph glyph-name="dcroat" unicode="&#x111;" horiz-adv-x="601" 
d="M634 661v-112h-95v-549h-123v38c-38 -30 -85 -47 -138 -47c-131 0 -246 108 -246 247s115 246 246 246c53 0 100 -17 138 -47v112h-160v112h160v64l123 30v-94h95zM286 107c73 0 130 60 130 131c0 70 -57 130 -130 130c-70 0 -129 -60 -129 -130c0 -71 59 -131 129 -131z
" />
    <glyph glyph-name="e" unicode="e" horiz-adv-x="532" 
d="M268 484c144 0 231 -110 231 -248c0 -10 -1 -26 -2 -39h-341c15 -56 62 -95 150 -95c60 0 116 18 163 48h2v-117c-47 -29 -100 -42 -169 -42c-182 0 -269 119 -269 249c0 127 96 244 235 244zM158 287h218c-10 52 -45 85 -105 85c-54 0 -97 -32 -113 -85z" />
    <glyph glyph-name="eacute" unicode="&#xe9;" horiz-adv-x="532" 
d="M418 640l-241 -99l-44 97l238 107zM268 484c144 0 231 -110 231 -248c0 -10 -1 -26 -2 -39h-341c15 -56 62 -95 150 -95c60 0 116 18 163 48h2v-117c-47 -29 -100 -42 -169 -42c-182 0 -269 119 -269 249c0 127 96 244 235 244zM158 287h218c-10 52 -45 85 -105 85
c-54 0 -97 -32 -113 -85z" />
    <glyph glyph-name="ecaron" unicode="&#x11b;" horiz-adv-x="532" 
d="M277 542h-2l-188 116l54 88l135 -84l135 84l54 -88zM268 484c144 0 231 -110 231 -248c0 -10 -1 -26 -2 -39h-341c15 -56 62 -95 150 -95c60 0 116 18 163 48h2v-117c-47 -29 -100 -42 -169 -42c-182 0 -269 119 -269 249c0 127 96 244 235 244zM158 287h218
c-10 52 -45 85 -105 85c-54 0 -97 -32 -113 -85z" />
    <glyph glyph-name="ecircumflex" unicode="&#xea;" horiz-adv-x="532" 
d="M276 625l-135 -84l-54 88l188 116h2l188 -116l-54 -88zM268 484c144 0 231 -110 231 -248c0 -10 -1 -26 -2 -39h-341c15 -56 62 -95 150 -95c60 0 116 18 163 48h2v-117c-47 -29 -100 -42 -169 -42c-182 0 -269 119 -269 249c0 127 96 244 235 244zM158 287h218
c-10 52 -45 85 -105 85c-54 0 -97 -32 -113 -85z" />
    <glyph glyph-name="edieresis" unicode="&#xeb;" horiz-adv-x="532" 
d="M166 566c-45 0 -80 34 -80 80c0 45 35 79 80 79s80 -34 80 -79c0 -46 -35 -80 -80 -80zM386 566c-45 0 -80 34 -80 80c0 45 35 79 80 79s80 -34 80 -79c0 -46 -35 -80 -80 -80zM268 484c144 0 231 -110 231 -248c0 -10 -1 -26 -2 -39h-341c15 -56 62 -95 150 -95
c60 0 116 18 163 48h2v-117c-47 -29 -100 -42 -169 -42c-182 0 -269 119 -269 249c0 127 96 244 235 244zM158 287h218c-10 52 -45 85 -105 85c-54 0 -97 -32 -113 -85z" />
    <glyph glyph-name="edotaccent" unicode="&#x117;" horiz-adv-x="532" 
d="M276 572c-45 0 -80 34 -80 80c0 45 35 79 80 79s80 -34 80 -79c0 -46 -35 -80 -80 -80zM268 484c144 0 231 -110 231 -248c0 -10 -1 -26 -2 -39h-341c15 -56 62 -95 150 -95c60 0 116 18 163 48h2v-117c-47 -29 -100 -42 -169 -42c-182 0 -269 119 -269 249
c0 127 96 244 235 244zM158 287h218c-10 52 -45 85 -105 85c-54 0 -97 -32 -113 -85z" />
    <glyph glyph-name="egrave" unicode="&#xe8;" horiz-adv-x="532" 
d="M418 638l-44 -97l-241 99l47 105zM268 484c144 0 231 -110 231 -248c0 -10 -1 -26 -2 -39h-341c15 -56 62 -95 150 -95c60 0 116 18 163 48h2v-117c-47 -29 -100 -42 -169 -42c-182 0 -269 119 -269 249c0 127 96 244 235 244zM158 287h218c-10 52 -45 85 -105 85
c-54 0 -97 -32 -113 -85z" />
    <glyph glyph-name="emacron" unicode="&#x113;" horiz-adv-x="532" 
d="M445 701v-112h-338v112h338zM268 484c144 0 231 -110 231 -248c0 -10 -1 -26 -2 -39h-341c15 -56 62 -95 150 -95c60 0 116 18 163 48h2v-117c-47 -29 -100 -42 -169 -42c-182 0 -269 119 -269 249c0 127 96 244 235 244zM158 287h218c-10 52 -45 85 -105 85
c-54 0 -97 -32 -113 -85z" />
    <glyph glyph-name="eogonek" unicode="&#x119;" horiz-adv-x="532" 
d="M268 484c144 0 231 -110 231 -248c0 -10 -1 -26 -2 -39h-341c15 -56 62 -95 150 -95c60 0 116 18 163 48h2v-117c-28 -18 -59 -29 -94 -36l-34 -35c-8 -9 -34 -34 -34 -62c0 -20 13 -32 37 -32c15 0 27 4 37 11h1v-73c-15 -10 -35 -16 -61 -16c-68 0 -110 40 -110 95
c0 51 36 84 68 107c-168 8 -248 123 -248 248c0 127 96 244 235 244zM158 287h218c-10 52 -45 85 -105 85c-54 0 -97 -32 -113 -85z" />
    <glyph glyph-name="f" unicode="f" horiz-adv-x="348" 
d="M293 634c-44 0 -68 -26 -68 -70v-89h106v-118h-106v-357h-123v357h-70v118h70v106c0 106 60 169 158 169c29 0 57 -4 81 -12v-109c-15 3 -29 5 -48 5z" />
    <glyph glyph-name="g" unicode="g" horiz-adv-x="601" 
d="M417 475h123v-461c0 -244 -172 -277 -273 -277c-73 0 -139 15 -187 44v124h2c48 -30 118 -50 183 -50c83 0 152 36 152 135v48c-38 -30 -85 -47 -138 -47c-131 0 -246 108 -246 247s115 246 246 246c53 0 100 -17 138 -47v38zM287 107c73 0 130 60 130 131
c0 70 -57 130 -130 130c-70 0 -129 -60 -129 -130c0 -71 59 -131 129 -131z" />
    <glyph glyph-name="gbreve" unicode="&#x11f;" horiz-adv-x="601" 
d="M300 541c-109 0 -184 82 -184 194h105c0 -53 26 -86 79 -86s79 33 79 86h105c0 -112 -76 -194 -184 -194zM417 475h123v-461c0 -244 -172 -277 -273 -277c-73 0 -139 15 -187 44v124h2c48 -30 118 -50 183 -50c83 0 152 36 152 135v48c-38 -30 -85 -47 -138 -47
c-131 0 -246 108 -246 247s115 246 246 246c53 0 100 -17 138 -47v38zM287 107c73 0 130 60 130 131c0 70 -57 130 -130 130c-70 0 -129 -60 -129 -130c0 -71 59 -131 129 -131z" />
    <glyph glyph-name="uni0123" unicode="&#x123;" horiz-adv-x="601" 
d="M303 547c-44 0 -71 34 -71 85c0 77 48 141 115 157v-53c-30 -9 -54 -37 -54 -70c5 1 9 2 15 2c37 0 62 -27 62 -59s-27 -62 -67 -62zM417 475h123v-461c0 -244 -172 -277 -273 -277c-73 0 -139 15 -187 44v124h2c48 -30 118 -50 183 -50c83 0 152 36 152 135v48
c-38 -30 -85 -47 -138 -47c-131 0 -246 108 -246 247s115 246 246 246c53 0 100 -17 138 -47v38zM287 107c73 0 130 60 130 131c0 70 -57 130 -130 130c-70 0 -129 -60 -129 -130c0 -71 59 -131 129 -131z" />
    <glyph glyph-name="gdotaccent" unicode="&#x121;" horiz-adv-x="601" 
d="M300 572c-45 0 -80 34 -80 80c0 45 35 79 80 79s80 -34 80 -79c0 -46 -35 -80 -80 -80zM417 475h123v-461c0 -244 -172 -277 -273 -277c-73 0 -139 15 -187 44v124h2c48 -30 118 -50 183 -50c83 0 152 36 152 135v48c-38 -30 -85 -47 -138 -47c-131 0 -246 108 -246 247
s115 246 246 246c53 0 100 -17 138 -47v38zM287 107c73 0 130 60 130 131c0 70 -57 130 -130 130c-70 0 -129 -60 -129 -130c0 -71 59 -131 129 -131z" />
    <glyph glyph-name="h" unicode="h" horiz-adv-x="561" 
d="M323 484c101 0 181 -58 181 -207v-277h-123v259c0 68 -28 107 -93 107c-60 0 -103 -33 -103 -114v-252h-123v725l123 30v-321c33 30 79 50 138 50z" />
    <glyph glyph-name="hbar" unicode="&#x127;" horiz-adv-x="561" 
d="M323 484c101 0 181 -58 181 -207v-277h-123v259c0 68 -28 107 -93 107c-60 0 -103 -33 -103 -114v-252h-123v549h-95v112h95v64l123 30v-94h160v-112h-160v-115c33 30 79 50 138 50z" />
    <glyph glyph-name="i" unicode="i" horiz-adv-x="247" 
d="M124 572c-45 0 -80 34 -80 80c0 45 35 79 80 79s80 -34 80 -79c0 -46 -35 -80 -80 -80zM62 475h123v-475h-123v475z" />
    <glyph glyph-name="dotlessi" unicode="&#x131;" horiz-adv-x="247" 
d="M62 475h123v-475h-123v475z" />
    <glyph glyph-name="iacute" unicode="&#xed;" horiz-adv-x="247" 
d="M-19 638l238 107l47 -105l-241 -99zM62 475h123v-475h-123v475z" />
    <glyph glyph-name="icircumflex" unicode="&#xee;" horiz-adv-x="247" 
d="M125 745l188 -116l-54 -88l-135 84l-135 -84l-54 88l188 116h2zM62 0v475h123v-475h-123z" />
    <glyph glyph-name="idieresis" unicode="&#xef;" horiz-adv-x="247" 
d="M14 566c-45 0 -80 34 -80 80c0 45 35 79 80 79s80 -34 80 -79c0 -46 -35 -80 -80 -80zM234 566c-45 0 -80 34 -80 80c0 45 35 79 80 79s80 -34 80 -79c0 -46 -35 -80 -80 -80zM62 475h123v-475h-123v475z" />
    <glyph glyph-name="i.loclTRK" horiz-adv-x="247" 
d="M124 572c-45 0 -80 34 -80 80c0 45 35 79 80 79s80 -34 80 -79c0 -46 -35 -80 -80 -80zM62 475h123v-475h-123v475z" />
    <glyph glyph-name="igrave" unicode="&#xec;" horiz-adv-x="247" 
d="M-19 640l47 105l238 -107l-44 -97zM62 475h123v-475h-123v475z" />
    <glyph glyph-name="ij" unicode="&#x133;" horiz-adv-x="520" 
d="M124 731c45 0 80 -34 80 -79c0 -46 -35 -80 -80 -80s-80 34 -80 80c0 45 35 79 80 79zM397 572c-45 0 -80 34 -80 80c0 45 35 79 80 79s80 -34 80 -79c0 -46 -35 -80 -80 -80zM62 0v475h123v-475h-123zM335 -86v561h123v-569c0 -108 -68 -169 -148 -169
c-29 0 -57 4 -81 11v101c15 -3 29 -5 48 -5c34 0 58 21 58 70z" />
    <glyph glyph-name="imacron" unicode="&#x12b;" horiz-adv-x="247" 
d="M-45 701h338v-112h-338v112zM62 475h123v-475h-123v475z" />
    <glyph glyph-name="iogonek" unicode="&#x12f;" horiz-adv-x="247" 
d="M124 572c-45 0 -80 34 -80 80c0 45 35 79 80 79s80 -34 80 -79c0 -46 -35 -80 -80 -80zM62 0v475h123v-475l-46 -48c-8 -9 -34 -34 -34 -62c0 -20 13 -32 37 -32c15 0 27 4 37 11h1v-73c-15 -10 -35 -16 -61 -16c-68 0 -110 40 -110 95s42 90 76 112l20 13h-43z" />
    <glyph glyph-name="itilde" unicode="&#x129;" horiz-adv-x="247" 
d="M-77 566c0 92 42 150 123 150c69 0 117 -48 152 -48c22 0 34 11 34 48h93c0 -92 -44 -150 -119 -150c-73 0 -120 48 -153 48c-24 0 -37 -14 -37 -48h-93zM62 475h123v-475h-123v475z" />
    <glyph glyph-name="j" unicode="j" horiz-adv-x="251" 
d="M128 572c-45 0 -80 34 -80 80c0 45 35 79 80 79s80 -34 80 -79c0 -46 -35 -80 -80 -80zM66 -86v561h123v-569c0 -108 -68 -169 -148 -169c-29 0 -57 4 -81 11v101c15 -3 29 -5 48 -5c34 0 58 21 58 70z" />
    <glyph glyph-name="uni0237" unicode="&#x237;" horiz-adv-x="251" 
d="M66 475h123v-569c0 -108 -68 -169 -148 -169c-29 0 -57 4 -81 11v101c15 -3 29 -5 48 -5c34 0 58 21 58 70v561z" />
    <glyph glyph-name="uni006A0301" horiz-adv-x="251" 
d="M270 640l-241 -99l-44 97l238 107zM66 -86v561h123v-569c0 -108 -68 -169 -148 -169c-29 0 -57 4 -81 11v101c15 -3 29 -5 48 -5c34 0 58 21 58 70z" />
    <glyph glyph-name="k" unicode="k" horiz-adv-x="517" 
d="M523 0h-153l-185 250v-250h-123v725l123 30v-501l173 221h154l-184 -222z" />
    <glyph glyph-name="uni0137" unicode="&#x137;" horiz-adv-x="517" 
d="M328 253l195 -253h-153l-185 250v-250h-123v725l123 30v-501l173 221h154zM268 -52c44 0 71 -34 71 -85c0 -77 -48 -141 -115 -157v53c30 9 54 37 54 70c-5 -1 -9 -2 -15 -2c-37 0 -62 27 -62 59s27 62 67 62z" />
    <glyph glyph-name="kgreenlandic" unicode="&#x138;" horiz-adv-x="517" 
d="M523 0h-153l-185 240v-240h-123v475h123v-231l173 231h154l-184 -231z" />
    <glyph glyph-name="l" unicode="l" horiz-adv-x="247" 
d="M62 725l123 30v-755h-123v725z" />
    <glyph glyph-name="lacute" unicode="&#x13a;" horiz-adv-x="247" 
d="M-19 903l238 107l47 -105l-241 -99zM62 725l123 30v-755h-123v725z" />
    <glyph glyph-name="lcaron" unicode="&#x13e;" horiz-adv-x="271" 
d="M62 725l123 30v-755h-123v725zM370 740l-35 -240h-105l30 240h110z" />
    <glyph glyph-name="uni013C" unicode="&#x13c;" horiz-adv-x="247" 
d="M62 725l123 30v-755h-123v725zM126 -52c44 0 71 -34 71 -85c0 -77 -48 -141 -115 -157v53c30 9 54 37 54 70c-5 -1 -9 -2 -15 -2c-37 0 -62 27 -62 59s27 62 67 62z" />
    <glyph glyph-name="ldot" unicode="&#x140;" horiz-adv-x="386" 
d="M62 725l123 30v-755h-123v725zM317 285c-44 0 -78 34 -78 78s34 77 78 77s77 -33 77 -77s-33 -78 -77 -78z" />
    <glyph glyph-name="lslash" unicode="&#x142;" horiz-adv-x="357" 
d="M344 373l-98 -26v-347h-123v313l-87 -23l-27 100l114 31v304l123 30v-301l71 19z" />
    <glyph glyph-name="m" unicode="m" horiz-adv-x="860" 
d="M621 484c101 0 182 -59 182 -212v-272h-123v257c0 29 0 109 -88 109c-58 0 -98 -34 -98 -116v-250h-123v257c0 29 0 109 -88 109c-58 0 -98 -34 -98 -116v-250h-123v475h123v-44c30 31 72 53 128 53c54 0 109 -20 144 -71c34 43 90 71 164 71z" />
    <glyph glyph-name="n" unicode="n" horiz-adv-x="561" 
d="M313 484c100 0 191 -58 191 -217v-267h-123v256c0 68 -29 110 -96 110c-63 0 -100 -30 -100 -114v-252h-123v475h123v-37c30 28 72 46 128 46z" />
    <glyph glyph-name="nacute" unicode="&#x144;" horiz-adv-x="561" 
d="M430 640l-241 -99l-44 97l238 107zM313 484c100 0 191 -58 191 -217v-267h-123v256c0 68 -29 110 -96 110c-63 0 -100 -30 -100 -114v-252h-123v475h123v-37c30 28 72 46 128 46z" />
    <glyph glyph-name="ncaron" unicode="&#x148;" horiz-adv-x="561" 
d="M289 542h-2l-188 116l54 88l135 -84l135 84l54 -88zM313 484c100 0 191 -58 191 -217v-267h-123v256c0 68 -29 110 -96 110c-63 0 -100 -30 -100 -114v-252h-123v475h123v-37c30 28 72 46 128 46z" />
    <glyph glyph-name="uni0146" unicode="&#x146;" horiz-adv-x="561" 
d="M313 484c100 0 191 -58 191 -217v-267h-123v256c0 68 -29 110 -96 110c-63 0 -100 -30 -100 -114v-252h-123v475h123v-37c30 28 72 46 128 46zM286 -52c44 0 71 -34 71 -85c0 -77 -48 -141 -115 -157v53c30 9 54 37 54 70c-5 -1 -9 -2 -15 -2c-37 0 -62 27 -62 59
s27 62 67 62z" />
    <glyph glyph-name="eng" unicode="&#x14b;" horiz-adv-x="561" 
d="M313 484c100 0 191 -58 191 -217v-321c0 -108 -68 -169 -148 -169c-29 0 -57 4 -81 11v101c15 -3 29 -5 48 -5c34 0 58 21 58 70v302c0 68 -29 110 -96 110c-63 0 -100 -30 -100 -114v-252h-123v475h123v-37c30 28 72 46 128 46z" />
    <glyph glyph-name="ntilde" unicode="&#xf1;" horiz-adv-x="561" 
d="M217 614c-24 0 -37 -14 -37 -48h-93c0 92 42 150 123 150c69 0 117 -48 152 -48c22 0 34 11 34 48h93c0 -92 -44 -150 -119 -150c-73 0 -120 48 -153 48zM313 484c100 0 191 -58 191 -217v-267h-123v256c0 68 -29 110 -96 110c-63 0 -100 -30 -100 -114v-252h-123v475
h123v-37c30 28 72 46 128 46z" />
    <glyph glyph-name="o" unicode="o" horiz-adv-x="569" 
d="M284 -13c-140 0 -252 112 -252 249c0 138 112 248 252 248c141 0 253 -110 253 -248c0 -137 -112 -249 -253 -249zM284 105c73 0 128 60 128 131c0 70 -55 130 -128 130c-72 0 -127 -60 -127 -130c0 -71 55 -131 127 -131z" />
    <glyph glyph-name="oacute" unicode="&#xf3;" horiz-adv-x="569" 
d="M142 638l238 107l47 -105l-241 -99zM284 -13c-140 0 -252 112 -252 249c0 138 112 248 252 248c141 0 253 -110 253 -248c0 -137 -112 -249 -253 -249zM284 105c73 0 128 60 128 131c0 70 -55 130 -128 130c-72 0 -127 -60 -127 -130c0 -71 55 -131 127 -131z" />
    <glyph glyph-name="ocircumflex" unicode="&#xf4;" horiz-adv-x="569" 
d="M285 625l-135 -84l-54 88l188 116h2l188 -116l-54 -88zM284 484c141 0 253 -110 253 -248c0 -137 -112 -249 -253 -249c-140 0 -252 112 -252 249c0 138 112 248 252 248zM284 105c73 0 128 60 128 131c0 70 -55 130 -128 130c-72 0 -127 -60 -127 -130
c0 -71 55 -131 127 -131z" />
    <glyph glyph-name="odieresis" unicode="&#xf6;" horiz-adv-x="569" 
d="M175 566c-45 0 -80 34 -80 80c0 45 35 79 80 79s80 -34 80 -79c0 -46 -35 -80 -80 -80zM395 566c-45 0 -80 34 -80 80c0 45 35 79 80 79s80 -34 80 -79c0 -46 -35 -80 -80 -80zM284 -13c-140 0 -252 112 -252 249c0 138 112 248 252 248c141 0 253 -110 253 -248
c0 -137 -112 -249 -253 -249zM284 105c73 0 128 60 128 131c0 70 -55 130 -128 130c-72 0 -127 -60 -127 -130c0 -71 55 -131 127 -131z" />
    <glyph glyph-name="ograve" unicode="&#xf2;" horiz-adv-x="569" 
d="M142 640l47 105l238 -107l-44 -97zM284 -13c-140 0 -252 112 -252 249c0 138 112 248 252 248c141 0 253 -110 253 -248c0 -137 -112 -249 -253 -249zM284 105c73 0 128 60 128 131c0 70 -55 130 -128 130c-72 0 -127 -60 -127 -130c0 -71 55 -131 127 -131z" />
    <glyph glyph-name="ohungarumlaut" unicode="&#x151;" horiz-adv-x="569" 
d="M120 607l109 138l89 -72l-114 -132zM310 607l109 138l89 -72l-114 -132zM284 -13c-140 0 -252 112 -252 249c0 138 112 248 252 248c141 0 253 -110 253 -248c0 -137 -112 -249 -253 -249zM284 105c73 0 128 60 128 131c0 70 -55 130 -128 130c-72 0 -127 -60 -127 -130
c0 -71 55 -131 127 -131z" />
    <glyph glyph-name="omacron" unicode="&#x14d;" horiz-adv-x="569" 
d="M116 701h338v-112h-338v112zM284 -13c-140 0 -252 112 -252 249c0 138 112 248 252 248c141 0 253 -110 253 -248c0 -137 -112 -249 -253 -249zM284 105c73 0 128 60 128 131c0 70 -55 130 -128 130c-72 0 -127 -60 -127 -130c0 -71 55 -131 127 -131z" />
    <glyph glyph-name="uni01EB" unicode="&#x1eb;" horiz-adv-x="569" 
d="M389 9l-45 -47c-8 -9 -34 -34 -34 -62c0 -20 13 -32 37 -32c15 0 27 4 37 11h1v-73c-15 -10 -35 -16 -61 -16c-68 0 -110 40 -110 95c0 47 31 80 62 102c-136 5 -244 115 -244 249c0 138 112 248 252 248c141 0 253 -110 253 -248c0 -100 -60 -187 -148 -227zM157 236
c0 -71 55 -131 127 -131c73 0 128 60 128 131c0 70 -55 130 -128 130c-72 0 -127 -60 -127 -130z" />
    <glyph glyph-name="oslash" unicode="&#xf8;" horiz-adv-x="629" 
d="M631 475l-104 -104c25 -39 40 -85 40 -135c0 -137 -112 -249 -253 -249c-50 0 -96 14 -135 38l-25 -25h-151l100 100c-26 39 -41 86 -41 136c0 138 112 248 252 248c51 0 98 -14 137 -39l30 30h150zM187 236c0 -16 3 -31 8 -45l167 166c-15 6 -31 9 -48 9
c-72 0 -127 -60 -127 -130zM442 236c0 15 -3 30 -7 43l-167 -165c14 -6 30 -9 46 -9c73 0 128 60 128 131z" />
    <glyph glyph-name="oslashacute" unicode="&#x1ff;" horiz-adv-x="629" 
d="M457 640l-241 -99l-44 97l238 107zM631 475l-104 -104c25 -39 40 -85 40 -135c0 -137 -112 -249 -253 -249c-50 0 -96 14 -135 38l-25 -25h-151l100 100c-26 39 -41 86 -41 136c0 138 112 248 252 248c51 0 98 -14 137 -39l30 30h150zM187 236c0 -16 3 -31 8 -45l167 166
c-15 6 -31 9 -48 9c-72 0 -127 -60 -127 -130zM442 236c0 15 -3 30 -7 43l-167 -165c14 -6 30 -9 46 -9c73 0 128 60 128 131z" />
    <glyph glyph-name="otilde" unicode="&#xf5;" horiz-adv-x="569" 
d="M84 566c0 92 42 150 123 150c69 0 117 -48 152 -48c22 0 34 11 34 48h93c0 -92 -44 -150 -119 -150c-73 0 -120 48 -153 48c-24 0 -37 -14 -37 -48h-93zM284 -13c-140 0 -252 112 -252 249c0 138 112 248 252 248c141 0 253 -110 253 -248c0 -137 -112 -249 -253 -249z
M284 105c73 0 128 60 128 131c0 70 -55 130 -128 130c-72 0 -127 -60 -127 -130c0 -71 55 -131 127 -131z" />
    <glyph glyph-name="oe" unicode="&#x153;" horiz-adv-x="929" 
d="M656 484c153 0 243 -109 243 -248c0 -10 -1 -26 -2 -39h-360c14 -58 59 -99 129 -99c49 0 92 20 117 53l84 -67c-41 -55 -102 -97 -197 -97c-88 0 -154 33 -197 84c-46 -52 -113 -84 -189 -84c-140 0 -252 112 -252 249c0 138 112 248 252 248c76 0 144 -32 190 -83
c43 50 106 83 182 83zM539 287h236c-9 52 -47 85 -116 85c-56 0 -103 -31 -120 -85zM284 105c73 0 128 60 128 131c0 70 -55 130 -128 130c-72 0 -127 -60 -127 -130c0 -71 55 -131 127 -131z" />
    <glyph glyph-name="p" unicode="p" horiz-adv-x="601" 
d="M323 484c131 0 246 -107 246 -246s-115 -247 -246 -247c-53 0 -100 17 -138 47v-276l-123 -30v743h123v-38c38 30 85 47 138 47zM315 107c70 0 129 60 129 131c0 70 -59 130 -129 130c-73 0 -130 -60 -130 -130c0 -71 57 -131 130 -131z" />
    <glyph glyph-name="thorn" unicode="&#xfe;" horiz-adv-x="601" 
d="M323 484c131 0 246 -107 246 -246s-115 -247 -246 -247c-53 0 -100 17 -138 47v-276l-123 -30v993l123 30v-318c38 30 85 47 138 47zM315 107c70 0 129 60 129 131c0 70 -59 130 -129 130c-73 0 -130 -60 -130 -130c0 -71 57 -131 130 -131z" />
    <glyph glyph-name="q" unicode="q" horiz-adv-x="601" 
d="M416 475h123v-713l-123 -30v306c-38 -30 -85 -47 -138 -47c-131 0 -246 108 -246 247s115 246 246 246c53 0 100 -17 138 -47v38zM286 107c73 0 130 60 130 131c0 70 -57 130 -130 130c-70 0 -129 -60 -129 -130c0 -71 59 -131 129 -131z" />
    <glyph glyph-name="r" unicode="r" horiz-adv-x="364" 
d="M328 484h20v-118h-8c-98 0 -155 -28 -155 -116v-250h-123v475h123v-47c32 35 88 56 143 56z" />
    <glyph glyph-name="racute" unicode="&#x155;" horiz-adv-x="364" 
d="M350 640l-241 -99l-44 97l238 107zM185 428c32 35 88 56 143 56h20v-118h-8c-98 0 -155 -28 -155 -116v-250h-123v475h123v-47z" />
    <glyph glyph-name="rcaron" unicode="&#x159;" horiz-adv-x="364" 
d="M209 542h-2l-188 116l54 88l135 -84l135 84l54 -88zM185 428c32 35 88 56 143 56h20v-118h-8c-98 0 -155 -28 -155 -116v-250h-123v475h123v-47z" />
    <glyph glyph-name="uni0157" unicode="&#x157;" horiz-adv-x="364" 
d="M328 484h20v-118h-8c-98 0 -155 -28 -155 -116v-250h-123v475h123v-47c32 35 88 56 143 56zM121 -52c44 0 71 -34 71 -85c0 -77 -48 -141 -115 -157v53c30 9 54 37 54 70c-5 -1 -9 -2 -15 -2c-37 0 -62 27 -62 59s27 62 67 62z" />
    <glyph glyph-name="s" unicode="s" horiz-adv-x="424" 
d="M188 -13c-63 0 -97 8 -138 28v115h2c43 -23 82 -33 141 -33c61 0 78 17 78 35c0 70 -231 25 -231 200c0 87 72 152 191 152c55 0 89 -8 130 -28v-115h-2c-43 23 -82 33 -130 33c-54 0 -69 -14 -69 -32c0 -64 228 -27 228 -198c0 -93 -67 -157 -200 -157z" />
    <glyph glyph-name="sacute" unicode="&#x15b;" horiz-adv-x="424" 
d="M69 638l238 107l47 -105l-241 -99zM188 -13c-63 0 -97 8 -138 28v115h2c43 -23 82 -33 141 -33c61 0 78 17 78 35c0 70 -231 25 -231 200c0 87 72 152 191 152c55 0 89 -8 130 -28v-115h-2c-43 23 -82 33 -130 33c-54 0 -69 -14 -69 -32c0 -64 228 -27 228 -198
c0 -93 -67 -157 -200 -157z" />
    <glyph glyph-name="scaron" unicode="&#x161;" horiz-adv-x="424" 
d="M213 542h-2l-188 116l54 88l135 -84l135 84l54 -88zM160 342c0 -64 228 -27 228 -198c0 -93 -67 -157 -200 -157c-63 0 -97 8 -138 28v115h2c43 -23 82 -33 141 -33c61 0 78 17 78 35c0 70 -231 25 -231 200c0 87 72 152 191 152c55 0 89 -8 130 -28v-115h-2
c-43 23 -82 33 -130 33c-54 0 -69 -14 -69 -32z" />
    <glyph glyph-name="scedilla" unicode="&#x15f;" horiz-adv-x="424" 
d="M388 144c0 -79 -48 -137 -144 -153l-14 -38h1c56 0 99 -37 99 -99s-50 -107 -134 -107c-51 0 -74 9 -99 23v73h1c20 -11 54 -19 89 -19s48 9 48 30c0 20 -16 31 -42 31h-68l37 103c-47 2 -77 10 -112 27v115h2c43 -23 82 -33 141 -33c61 0 78 17 78 35
c0 70 -231 25 -231 200c0 87 72 152 191 152c55 0 89 -8 130 -28v-115h-2c-43 23 -82 33 -130 33c-54 0 -69 -14 -69 -32c0 -64 228 -27 228 -198z" />
    <glyph glyph-name="uni0219" unicode="&#x219;" horiz-adv-x="424" 
d="M188 -13c-63 0 -97 8 -138 28v115h2c43 -23 82 -33 141 -33c61 0 78 17 78 35c0 70 -231 25 -231 200c0 87 72 152 191 152c55 0 89 -8 130 -28v-115h-2c-43 23 -82 33 -130 33c-54 0 -69 -14 -69 -32c0 -64 228 -27 228 -198c0 -93 -67 -157 -200 -157zM221 -52
c44 0 71 -34 71 -85c0 -77 -48 -141 -115 -157v53c30 9 54 37 54 70c-5 -1 -9 -2 -15 -2c-37 0 -62 27 -62 59s27 62 67 62z" />
    <glyph glyph-name="germandbls" unicode="&#xdf;" horiz-adv-x="581" 
d="M439 397c65 -35 109 -98 109 -187c0 -134 -99 -219 -234 -219c-39 0 -69 7 -92 17v111h2c17 -7 37 -11 66 -11c84 0 133 38 133 107c0 71 -49 119 -131 119h-38v111h44c50 0 95 26 95 95c0 60 -35 92 -97 92c-66 0 -111 -36 -111 -138v-494h-123v494
c0 142 82 256 233 256c126 0 221 -79 221 -197c0 -67 -31 -121 -77 -156z" />
    <glyph glyph-name="t" unicode="t" horiz-adv-x="378" 
d="M287 103c28 0 48 3 66 10v-109c-23 -10 -51 -17 -98 -17c-97 0 -155 61 -155 156v214h-78v118h78v141l123 30v-171h122v-118h-122v-190c0 -42 24 -64 64 -64z" />
    <glyph glyph-name="tbar" unicode="&#x167;" horiz-adv-x="384" 
d="M292 103c28 0 48 3 66 10v-109c-23 -10 -51 -17 -98 -17c-97 0 -155 61 -155 156v36h-66v112h66v66h-78v118h78v141l123 30v-171h122v-118h-122v-66h98v-112h-98v-12c0 -42 24 -64 64 -64z" />
    <glyph glyph-name="tcaron" unicode="&#x165;" horiz-adv-x="378" 
d="M304 740h110l-35 -240h-105zM223 167c0 -42 24 -64 64 -64c28 0 48 3 66 10v-109c-23 -10 -51 -17 -98 -17c-97 0 -155 61 -155 156v214h-78v118h78v141l123 30v-171h122v-118h-122v-190z" />
    <glyph glyph-name="uni0163" unicode="&#x163;" horiz-adv-x="378" 
d="M353 4c-22 -9 -48 -16 -90 -17l-12 -34h1c56 0 99 -37 99 -99s-50 -107 -134 -107c-51 0 -74 9 -99 23v73h1c20 -11 54 -19 89 -19s48 9 48 30c0 20 -16 31 -42 31h-68l41 114c-55 22 -87 74 -87 144v214h-78v118h78v141l123 30v-171h122v-118h-122v-190
c0 -42 24 -64 64 -64c28 0 48 3 66 10v-109z" />
    <glyph glyph-name="uni021B" unicode="&#x21b;" horiz-adv-x="378" 
d="M287 103c28 0 48 3 66 10v-109c-23 -10 -51 -17 -98 -17c-97 0 -155 61 -155 156v214h-78v118h78v141l123 30v-171h122v-118h-122v-190c0 -42 24 -64 64 -64zM242 -52c44 0 71 -34 71 -85c0 -77 -48 -141 -115 -157v53c30 9 54 37 54 70c-5 -1 -9 -2 -15 -2
c-37 0 -62 27 -62 59s27 62 67 62z" />
    <glyph glyph-name="u" unicode="u" horiz-adv-x="558" 
d="M279 -13c-124 0 -223 65 -223 214v274h123v-246c0 -80 26 -124 100 -124s100 44 100 124v246h123v-274c0 -149 -99 -214 -223 -214z" />
    <glyph glyph-name="uacute" unicode="&#xfa;" horiz-adv-x="558" 
d="M136 638l238 107l47 -105l-241 -99zM279 -13c-124 0 -223 65 -223 214v274h123v-246c0 -80 26 -124 100 -124s100 44 100 124v246h123v-274c0 -149 -99 -214 -223 -214z" />
    <glyph glyph-name="ucircumflex" unicode="&#xfb;" horiz-adv-x="558" 
d="M279 625l-135 -84l-54 88l188 116h2l188 -116l-54 -88zM379 475h123v-274c0 -149 -99 -214 -223 -214s-223 65 -223 214v274h123v-246c0 -80 26 -124 100 -124s100 44 100 124v246z" />
    <glyph glyph-name="udieresis" unicode="&#xfc;" horiz-adv-x="558" 
d="M169 566c-45 0 -80 34 -80 80c0 45 35 79 80 79s80 -34 80 -79c0 -46 -35 -80 -80 -80zM389 566c-45 0 -80 34 -80 80c0 45 35 79 80 79s80 -34 80 -79c0 -46 -35 -80 -80 -80zM279 -13c-124 0 -223 65 -223 214v274h123v-246c0 -80 26 -124 100 -124s100 44 100 124v246
h123v-274c0 -149 -99 -214 -223 -214z" />
    <glyph glyph-name="ugrave" unicode="&#xf9;" horiz-adv-x="558" 
d="M136 640l47 105l238 -107l-44 -97zM279 -13c-124 0 -223 65 -223 214v274h123v-246c0 -80 26 -124 100 -124s100 44 100 124v246h123v-274c0 -149 -99 -214 -223 -214z" />
    <glyph glyph-name="uhungarumlaut" unicode="&#x171;" horiz-adv-x="558" 
d="M114 607l109 138l89 -72l-114 -132zM304 607l109 138l89 -72l-114 -132zM279 -13c-124 0 -223 65 -223 214v274h123v-246c0 -80 26 -124 100 -124s100 44 100 124v246h123v-274c0 -149 -99 -214 -223 -214z" />
    <glyph glyph-name="umacron" unicode="&#x16b;" horiz-adv-x="558" 
d="M110 701h338v-112h-338v112zM279 -13c-124 0 -223 65 -223 214v274h123v-246c0 -80 26 -124 100 -124s100 44 100 124v246h123v-274c0 -149 -99 -214 -223 -214z" />
    <glyph glyph-name="uogonek" unicode="&#x173;" horiz-adv-x="558" 
d="M379 475h123v-274c0 -102 -46 -164 -115 -194l-45 -47c-8 -9 -34 -34 -34 -62c0 -20 13 -32 37 -32c15 0 27 4 37 11h1v-73c-15 -10 -35 -16 -61 -16c-68 0 -110 40 -110 95c0 49 33 82 64 104c-122 1 -220 66 -220 214v274h123v-246c0 -80 26 -124 100 -124
s100 44 100 124v246z" />
    <glyph glyph-name="uring" unicode="&#x16f;" horiz-adv-x="558" 
d="M279 501c-75 0 -128 54 -128 122c0 67 53 122 128 122s128 -55 128 -122c0 -68 -53 -122 -128 -122zM279 576c29 0 48 21 48 47s-19 47 -48 47s-48 -21 -48 -47s19 -47 48 -47zM279 -13c-124 0 -223 65 -223 214v274h123v-246c0 -80 26 -124 100 -124s100 44 100 124v246
h123v-274c0 -149 -99 -214 -223 -214z" />
    <glyph glyph-name="utilde" unicode="&#x169;" horiz-adv-x="558" 
d="M78 566c0 92 42 150 123 150c69 0 117 -48 152 -48c22 0 34 11 34 48h93c0 -92 -44 -150 -119 -150c-73 0 -120 48 -153 48c-24 0 -37 -14 -37 -48h-93zM279 -13c-124 0 -223 65 -223 214v274h123v-246c0 -80 26 -124 100 -124s100 44 100 124v246h123v-274
c0 -149 -99 -214 -223 -214z" />
    <glyph glyph-name="v" unicode="v" horiz-adv-x="523" 
d="M386 475h139l-261 -490h-4l-262 490h139l125 -247z" />
    <glyph glyph-name="w" unicode="w" horiz-adv-x="773" 
d="M637 475h137l-222 -490h-4l-161 276l-162 -276h-4l-222 490h137l104 -236l145 251h3l145 -251z" />
    <glyph glyph-name="wacute" unicode="&#x1e83;" horiz-adv-x="773" 
d="M530 640l-241 -99l-44 97l238 107zM637 475h137l-222 -490h-4l-161 276l-162 -276h-4l-222 490h137l104 -236l145 251h3l145 -251z" />
    <glyph glyph-name="wcircumflex" unicode="&#x175;" horiz-adv-x="773" 
d="M386 625l-135 -84l-54 88l188 116h2l188 -116l-54 -88zM637 475h137l-222 -490h-4l-161 276l-162 -276h-4l-222 490h137l104 -236l145 251h3l145 -251z" />
    <glyph glyph-name="wdieresis" unicode="&#x1e85;" horiz-adv-x="773" 
d="M276 566c-45 0 -80 34 -80 80c0 45 35 79 80 79s80 -34 80 -79c0 -46 -35 -80 -80 -80zM496 566c-45 0 -80 34 -80 80c0 45 35 79 80 79s80 -34 80 -79c0 -46 -35 -80 -80 -80zM637 475h137l-222 -490h-4l-161 276l-162 -276h-4l-222 490h137l104 -236l145 251h3
l145 -251z" />
    <glyph glyph-name="wgrave" unicode="&#x1e81;" horiz-adv-x="773" 
d="M529 638l-44 -97l-241 99l47 105zM637 475h137l-222 -490h-4l-161 276l-162 -276h-4l-222 490h137l104 -236l145 251h3l145 -251z" />
    <glyph glyph-name="x" unicode="x" horiz-adv-x="482" 
d="M476 0h-144l-95 144l-94 -144h-144l166 253l-146 222h144l81 -124l82 124h144l-154 -233z" />
    <glyph glyph-name="y" unicode="y" horiz-adv-x="521" 
d="M382 475h134l-292 -728h-123l98 245l-194 483h134l121 -323z" />
    <glyph glyph-name="yacute" unicode="&#xfd;" horiz-adv-x="521" 
d="M403 640l-241 -99l-44 97l238 107zM382 475h134l-292 -728h-123l98 245l-194 483h134l121 -323z" />
    <glyph glyph-name="ycircumflex" unicode="&#x177;" horiz-adv-x="521" 
d="M261 625l-135 -84l-54 88l188 116h2l188 -116l-54 -88zM382 475h134l-292 -728h-123l98 245l-194 483h134l121 -323z" />
    <glyph glyph-name="ydieresis" unicode="&#xff;" horiz-adv-x="521" 
d="M151 566c-45 0 -80 34 -80 80c0 45 35 79 80 79s80 -34 80 -79c0 -46 -35 -80 -80 -80zM371 566c-45 0 -80 34 -80 80c0 45 35 79 80 79s80 -34 80 -79c0 -46 -35 -80 -80 -80zM382 475h134l-292 -728h-123l98 245l-194 483h134l121 -323z" />
    <glyph glyph-name="ygrave" unicode="&#x1ef3;" horiz-adv-x="521" 
d="M403 638l-44 -97l-241 99l47 105zM382 475h134l-292 -728h-123l98 245l-194 483h134l121 -323z" />
    <glyph glyph-name="uni1EF9" unicode="&#x1ef9;" horiz-adv-x="521" 
d="M190 614c-24 0 -37 -14 -37 -48h-93c0 92 42 150 123 150c69 0 117 -48 152 -48c22 0 34 11 34 48h93c0 -92 -44 -150 -119 -150c-73 0 -120 48 -153 48zM382 475h134l-292 -728h-123l98 245l-194 483h134l121 -323z" />
    <glyph glyph-name="z" unicode="z" horiz-adv-x="470" 
d="M446 475v-4l-216 -356h211v-115h-421v4l216 356h-201v115h411z" />
    <glyph glyph-name="zacute" unicode="&#x17a;" horiz-adv-x="470" 
d="M378 640l-241 -99l-44 97l238 107zM446 475v-4l-216 -356h211v-115h-421v4l216 356h-201v115h411z" />
    <glyph glyph-name="zcaron" unicode="&#x17e;" horiz-adv-x="470" 
d="M237 542h-2l-188 116l54 88l135 -84l135 84l54 -88zM446 475v-4l-216 -356h211v-115h-421v4l216 356h-201v115h411z" />
    <glyph glyph-name="zdotaccent" unicode="&#x17c;" horiz-adv-x="470" 
d="M236 572c-45 0 -80 34 -80 80c0 45 35 79 80 79s80 -34 80 -79c0 -46 -35 -80 -80 -80zM446 475v-4l-216 -356h211v-115h-421v4l216 356h-201v115h411z" />
    <glyph glyph-name="ordfeminine" unicode="&#xaa;" horiz-adv-x="441" 
d="M293 436c-25 -30 -61 -38 -94 -38c-104 0 -168 78 -168 170s65 170 168 170c33 0 69 -8 94 -39v33h91v-325h-91v29zM205 485c54 0 81 36 81 83c0 46 -27 82 -81 82c-52 0 -76 -36 -76 -82c0 -47 24 -83 76 -83z" />
    <glyph glyph-name="ordmasculine" unicode="&#xba;" horiz-adv-x="408" 
d="M378 570c0 -94 -76 -171 -174 -171c-95 0 -174 73 -174 169c0 94 75 173 174 173c96 0 174 -75 174 -171zM205 493c44 0 75 35 75 77s-31 77 -76 77s-76 -35 -76 -78c0 -42 32 -76 77 -76z" />
    <glyph glyph-name="zero" unicode="0" horiz-adv-x="586" 
d="M293 -13c-165 0 -238 126 -238 283v216c0 141 79 267 238 267c152 0 238 -117 238 -267v-216c0 -148 -67 -283 -238 -283zM293 107c86 0 111 66 111 166v202c0 86 -29 158 -111 158c-78 0 -111 -66 -111 -158v-202c0 -92 21 -166 111 -166z" />
    <glyph glyph-name="one" unicode="1" horiz-adv-x="343" 
d="M128 614h-89v126h220v-740h-131v614z" />
    <glyph glyph-name="two" unicode="2" horiz-adv-x="549" 
d="M256 126h242v-126h-489v3l259 335c74 96 93 135 93 180c0 77 -42 118 -129 118c-61 0 -121 -22 -171 -58h-3v122c52 34 107 53 190 53c145 0 245 -82 245 -214c0 -86 -29 -148 -116 -259z" />
    <glyph glyph-name="three" unicode="3" horiz-adv-x="565" 
d="M524 740v-3l-187 -288c107 -26 177 -110 177 -223c0 -143 -105 -239 -271 -239c-92 0 -147 20 -198 52v131h3c50 -37 115 -63 196 -63c87 0 138 44 138 119c0 88 -58 134 -167 134h-74v3l160 251h-248v126h471z" />
    <glyph glyph-name="four" unicode="4" horiz-adv-x="594" 
d="M554 230v-112h-76v-118h-127v118h-351v3l475 634h3v-525h76zM218 230h138v185z" />
    <glyph glyph-name="five" unicode="5" horiz-adv-x="551" 
d="M246 464c181 0 266 -106 266 -234c0 -139 -99 -243 -264 -243c-101 0 -156 20 -207 52v131h3c50 -37 115 -63 204 -63c100 0 137 53 137 123c0 75 -55 122 -153 122h-170v3l62 385h353v-120h-250l-25 -156h44z" />
    <glyph glyph-name="six" unicode="6" horiz-adv-x="560" 
d="M293 462c131 0 236 -104 236 -234c0 -129 -105 -241 -246 -241c-140 0 -245 112 -245 241c0 44 13 92 32 127l208 385h148l-151 -279c6 1 12 1 18 1zM283 105c73 0 124 60 124 123c0 62 -51 122 -124 122c-72 0 -123 -60 -123 -122c0 -63 51 -123 123 -123z" />
    <glyph glyph-name="seven" unicode="7" horiz-adv-x="530" 
d="M24 740h503v-4l-311 -736h-145l264 614h-311v126z" />
    <glyph glyph-name="eight" unicode="8" horiz-adv-x="603" 
d="M464 446c60 -47 99 -120 99 -202c0 -142 -116 -257 -262 -257c-145 0 -261 115 -261 257c0 83 39 156 100 203c-27 31 -39 68 -39 109c0 110 89 197 200 197c112 0 201 -87 201 -197c0 -41 -13 -79 -38 -110zM301 634c-42 0 -77 -36 -77 -78c0 -24 10 -45 27 -60
c16 3 33 5 50 5s34 -2 51 -5c17 15 28 36 28 60c0 42 -35 78 -79 78zM301 105c78 0 141 64 141 139c0 74 -63 139 -141 139c-76 0 -139 -65 -139 -139c0 -75 63 -139 139 -139z" />
    <glyph glyph-name="nine" unicode="9" horiz-adv-x="560" 
d="M277 753c140 0 245 -110 245 -239c0 -44 -11 -90 -45 -152l-195 -362h-148l151 279c-6 -1 -12 -1 -18 -1c-131 0 -236 104 -236 234c0 129 105 241 246 241zM277 390c72 0 123 60 123 122c0 63 -51 123 -123 123c-73 0 -124 -60 -124 -123c0 -62 51 -122 124 -122z" />
    <glyph glyph-name="one.ss01" horiz-adv-x="298" 
d="M83 723l131 32v-755h-131v723z" />
    <glyph glyph-name="uni00B9" unicode="&#xb9;" horiz-adv-x="262" 
d="M105 654h-85v86h181v-444h-96v358z" />
    <glyph glyph-name="uni00B2" unicode="&#xb2;" horiz-adv-x="387" 
d="M203 382h135v-86h-306v2l152 203c36 48 52 74 52 105c0 33 -22 55 -70 55c-42 0 -77 -13 -105 -32h-2v89c31 18 62 29 118 29c93 0 155 -50 155 -128c0 -54 -25 -102 -67 -156z" />
    <glyph glyph-name="uni00B3" unicode="&#xb3;" horiz-adv-x="388" 
d="M356 740v-1l-114 -170c64 -18 108 -68 108 -134c0 -86 -69 -145 -177 -145c-53 0 -94 10 -127 28v92h2c31 -20 74 -35 126 -35c51 0 79 23 79 64c0 48 -32 71 -109 71h-39v2l95 142h-149v86h305z" />
    <glyph glyph-name="fraction" unicode="&#x2044;" horiz-adv-x="455" 
d="M383 740h97l-406 -740h-97z" />
    <glyph glyph-name="onehalf" unicode="&#xbd;" horiz-adv-x="826" 
d="M210 296h-96v358h-85v86h181v-444zM521 740h97l-406 -740h-97zM656 86h135v-86h-306v2l152 203c36 48 52 74 52 105c0 33 -22 55 -70 55c-42 0 -77 -13 -105 -32h-2v89c31 18 62 29 118 29c93 0 155 -50 155 -128c0 -54 -25 -102 -67 -156z" />
    <glyph glyph-name="onequarter" unicode="&#xbc;" horiz-adv-x="776" 
d="M209 296h-96v358h-85v86h181v-444zM530 740h97l-406 -740h-97zM742 147v-82h-58v-65h-90v65h-234v1l322 400h2v-319h58zM518 147h76v95z" />
    <glyph glyph-name="threequarters" unicode="&#xbe;" horiz-adv-x="851" 
d="M339 435c0 -86 -69 -145 -177 -145c-53 0 -94 10 -127 28v92h2c31 -20 74 -35 126 -35c51 0 79 23 79 64c0 48 -32 71 -109 71h-39v2l95 142h-149v86h305v-1l-114 -170c64 -18 108 -68 108 -134zM608 740h97l-406 -740h-97zM820 147v-82h-58v-65h-90v65h-234v1l322 400h2
v-319h58zM596 147h76v95z" />
    <glyph glyph-name="period" unicode="." horiz-adv-x="231" 
d="M116 -7c-44 0 -78 34 -78 78s34 77 78 77s77 -33 77 -77s-33 -78 -77 -78z" />
    <glyph glyph-name="comma" unicode="," horiz-adv-x="238" 
d="M116 148c51 0 82 -39 82 -101c0 -96 -42 -170 -144 -200v61c57 25 73 52 73 90c-5 -2 -10 -3 -17 -3c-42 0 -71 31 -71 75s31 78 77 78z" />
    <glyph glyph-name="colon" unicode=":" horiz-adv-x="263" 
d="M132 320c-44 0 -78 34 -78 78s34 77 78 77s77 -33 77 -77s-33 -78 -77 -78zM132 -7c-44 0 -78 34 -78 78s34 77 78 77s77 -33 77 -77s-33 -78 -77 -78z" />
    <glyph glyph-name="semicolon" unicode=";" horiz-adv-x="267" 
d="M132 320c-44 0 -78 34 -78 78s34 77 78 77s77 -33 77 -77s-33 -78 -77 -78zM131 148c51 0 82 -39 82 -101c0 -96 -42 -170 -144 -200v61c57 25 73 52 73 90c-5 -2 -10 -3 -17 -3c-42 0 -71 31 -71 75s31 78 77 78z" />
    <glyph glyph-name="ellipsis" unicode="&#x2026;" horiz-adv-x="781" 
d="M116 -7c-44 0 -78 34 -78 78s34 77 78 77s77 -33 77 -77s-33 -78 -77 -78zM391 -7c-44 0 -78 34 -78 78s34 77 78 77s77 -33 77 -77s-33 -78 -77 -78zM666 -7c-44 0 -78 34 -78 78s34 77 78 77s77 -33 77 -77s-33 -78 -77 -78z" />
    <glyph glyph-name="exclam" unicode="!" horiz-adv-x="271" 
d="M72 498v242h127v-242l-25 -265h-77zM136 -7c-44 0 -78 34 -78 78s34 77 78 77s77 -33 77 -77s-33 -78 -77 -78z" />
    <glyph glyph-name="exclamdown" unicode="&#xa1;" horiz-adv-x="269" 
d="M135 400c-44 0 -78 33 -78 77s34 78 78 78s77 -34 77 -78s-33 -77 -77 -77zM71 50l25 265h77l25 -265v-242h-127v242z" />
    <glyph glyph-name="question" unicode="?" horiz-adv-x="485" 
d="M127 264c0 189 199 165 199 286c0 50 -40 83 -121 83c-67 0 -122 -16 -172 -46h-3v126c47 23 107 41 179 41c151 0 246 -81 246 -206c0 -197 -201 -164 -201 -297v-40h-127v53zM189 -7c-44 0 -78 34 -78 78s34 77 78 77s77 -33 77 -77s-33 -78 -77 -78z" />
    <glyph glyph-name="questiondown" unicode="&#xbf;" horiz-adv-x="485" 
d="M296 398c-44 0 -77 33 -77 77s33 78 77 78s78 -34 78 -78s-34 -77 -78 -77zM358 282c0 -189 -199 -165 -199 -286c0 -50 40 -83 121 -83c67 0 122 16 172 46h3v-126c-47 -23 -107 -41 -179 -41c-151 0 -246 81 -246 206c0 197 201 164 201 297v40h127v-53z" />
    <glyph glyph-name="periodcentered" unicode="&#xb7;" horiz-adv-x="245" 
d="M123 177c-44 0 -78 34 -78 78s34 77 78 77s77 -33 77 -77s-33 -78 -77 -78z" />
    <glyph glyph-name="bullet" unicode="&#x2022;" horiz-adv-x="407" 
d="M204 213c-90 0 -162 75 -162 164c0 90 72 164 163 164c90 0 160 -77 160 -164c0 -89 -71 -164 -161 -164z" />
    <glyph glyph-name="asterisk" unicode="*" horiz-adv-x="438" 
d="M177 497l-92 -75l-44 72l98 55l-106 63l39 57l108 -57l-5 128h89l-7 -128l95 75l46 -72l-100 -56l109 -47l-41 -76l-112 60l4 -122h-87z" />
    <glyph glyph-name="numbersign" unicode="#" horiz-adv-x="635" 
d="M141 223h-105v93h119l16 120h-105v93h118l23 167h94l-23 -167h133l23 167h94l-23 -167h93v-93h-106l-16 -120h92v-93h-106l-25 -178h-94l25 178h-133l-25 -178h-94zM382 316l16 120h-133l-16 -120h133z" />
    <glyph glyph-name="slash" unicode="/" horiz-adv-x="568" 
d="M425 740h125l-406 -740h-125z" />
    <glyph glyph-name="backslash" unicode="\" horiz-adv-x="568" 
d="M18 740h125l406 -740h-125z" />
    <glyph glyph-name="parenleft" unicode="(" horiz-adv-x="362" 
d="M230 -188c-89 64 -193 229 -193 464s104 400 193 464h139v-2c-92 -79 -204 -248 -204 -462s112 -383 204 -462v-2h-139z" />
    <glyph glyph-name="parenright" unicode=")" horiz-adv-x="362" 
d="M-7 -188v2c92 79 204 248 204 462s-112 383 -204 462v2h139c89 -64 193 -229 193 -464s-104 -400 -193 -464h-139z" />
    <glyph glyph-name="braceleft" unicode="{" horiz-adv-x="399" 
d="M269 -204c-93 0 -136 66 -136 131v168c0 53 -18 116 -119 119v106c99 3 119 68 119 120v168c0 65 43 131 136 131h99v-119h-56c-33 0 -48 -24 -48 -66v-151c0 -55 -29 -117 -117 -135c87 -11 117 -90 117 -150v-137c0 -42 15 -66 48 -66h56v-119h-99z" />
    <glyph glyph-name="braceright" unicode="}" horiz-adv-x="400" 
d="M31 -85h56c43 0 48 54 48 86v117c0 60 30 139 117 150c-88 18 -117 80 -117 135v131c0 32 -5 86 -48 86h-56v119h129c73 0 106 -66 106 -131v-168c0 -52 20 -117 119 -120v-106c-101 -3 -119 -66 -119 -119v-168c0 -65 -33 -131 -106 -131h-129v119z" />
    <glyph glyph-name="bracketleft" unicode="[" horiz-adv-x="384" 
d="M77 740h283v-119h-152v-706h152v-119h-283v944z" />
    <glyph glyph-name="bracketright" unicode="]" horiz-adv-x="384" 
d="M176 -85v706h-152v119h283v-944h-283v119h152z" />
    <glyph glyph-name="hyphen" unicode="-" horiz-adv-x="412" 
d="M55 341h302v-116h-302v116z" />
    <glyph glyph-name="uni00AD" unicode="&#xad;" horiz-adv-x="412" 
d="M55 341h302v-116h-302v116z" />
    <glyph glyph-name="endash" unicode="&#x2013;" horiz-adv-x="669" 
d="M55 341h559v-116h-559v116z" />
    <glyph glyph-name="emdash" unicode="&#x2014;" horiz-adv-x="1114" 
d="M55 341h1004v-116h-1004v116z" />
    <glyph glyph-name="underscore" unicode="_" horiz-adv-x="611" 
d="M44 0h523v-112h-523v112z" />
    <glyph glyph-name="quotesinglbase" unicode="&#x201a;" horiz-adv-x="241" 
d="M118 148c52 0 83 -39 83 -101c0 -96 -43 -170 -145 -190v61c40 7 67 35 67 77c-54 -4 -84 31 -84 75s31 78 79 78z" />
    <glyph glyph-name="quotedblbase" unicode="&#x201e;" horiz-adv-x="447" 
d="M118 148c52 0 83 -39 83 -101c0 -96 -43 -170 -145 -190v61c40 7 67 35 67 77c-54 -4 -84 31 -84 75s31 78 79 78zM324 148c52 0 83 -39 83 -101c0 -96 -43 -170 -145 -190v61c40 7 67 35 67 77c-54 -4 -84 31 -84 75s31 78 79 78z" />
    <glyph glyph-name="quotedblleft" unicode="&#x201c;" horiz-adv-x="439" 
d="M118 459c-52 0 -83 39 -83 101c0 96 43 170 145 190v-61c-40 -7 -67 -35 -67 -77c54 4 84 -31 84 -75s-31 -78 -79 -78zM324 459c-52 0 -83 39 -83 101c0 96 43 170 145 190v-61c-40 -7 -67 -35 -67 -77c54 4 84 -31 84 -75s-31 -78 -79 -78z" />
    <glyph glyph-name="quotedblright" unicode="&#x201d;" horiz-adv-x="440" 
d="M120 750c52 0 83 -39 83 -101c0 -96 -43 -170 -145 -190v61c40 7 67 35 67 77c-54 -4 -84 31 -84 75s31 78 79 78zM326 750c52 0 83 -39 83 -101c0 -96 -43 -170 -145 -190v61c40 7 67 35 67 77c-54 -4 -84 31 -84 75s31 78 79 78z" />
    <glyph glyph-name="quoteleft" unicode="&#x2018;" horiz-adv-x="233" 
d="M118 459c-52 0 -83 39 -83 101c0 96 43 170 145 190v-61c-40 -7 -67 -35 -67 -77c54 4 84 -31 84 -75s-31 -78 -79 -78z" />
    <glyph glyph-name="quoteright" unicode="&#x2019;" horiz-adv-x="234" 
d="M120 750c52 0 83 -39 83 -101c0 -96 -43 -170 -145 -190v61c40 7 67 35 67 77c-54 -4 -84 31 -84 75s31 78 79 78z" />
    <glyph glyph-name="guillemotleft" unicode="&#xab;" horiz-adv-x="557" 
d="M26 253l127 199h137l-124 -199l126 -201h-139zM259 253l127 199h137l-124 -199l126 -201h-139z" />
    <glyph glyph-name="guillemotright" unicode="&#xbb;" horiz-adv-x="557" 
d="M158 253l-124 199h137l127 -199l-127 -201h-139zM391 253l-124 199h137l127 -199l-127 -201h-139z" />
    <glyph glyph-name="guilsinglleft" unicode="&#x2039;" horiz-adv-x="324" 
d="M26 253l127 199h137l-124 -199l126 -201h-139z" />
    <glyph glyph-name="guilsinglright" unicode="&#x203a;" horiz-adv-x="324" 
d="M158 253l-124 199h137l127 -199l-127 -201h-139z" />
    <glyph glyph-name="quotedbl" unicode="&#x22;" horiz-adv-x="416" 
d="M42 740h133l-21 -256h-92zM241 740h133l-21 -256h-92z" />
    <glyph glyph-name="quotesingle" unicode="'" horiz-adv-x="217" 
d="M42 740h133l-21 -256h-92z" />
    <glyph glyph-name="uni00A0" unicode="&#xa0;" horiz-adv-x="234" 
 />
    <glyph glyph-name="cent" unicode="&#xa2;" horiz-adv-x="487" 
d="M442 287v-122c-26 -17 -60 -30 -102 -36v-129h-118v134c-116 27 -187 124 -187 239c0 117 73 213 187 239v128h118v-125c39 -7 71 -20 98 -37v-122h-2c-38 28 -84 47 -136 47c-84 0 -140 -52 -140 -130c0 -72 48 -131 143 -131c54 0 99 17 137 45h2z" />
    <glyph glyph-name="currency" unicode="&#xa4;" horiz-adv-x="667" 
d="M334 98c-53 0 -102 16 -143 43l-82 -82l-66 65l82 83c-27 40 -43 88 -43 140s16 100 44 140l-83 82l66 67l84 -83c40 26 88 42 141 42c52 0 100 -15 140 -41l83 81l65 -66l-80 -80c28 -40 45 -89 45 -142c0 -52 -17 -101 -44 -141l82 -81l-66 -67l-83 82
c-40 -27 -89 -42 -142 -42zM334 216c78 0 132 60 132 131c0 70 -54 130 -132 130c-77 0 -131 -60 -131 -130c0 -71 54 -131 131 -131z" />
    <glyph glyph-name="dollar" unicode="$" horiz-adv-x="531" 
d="M499 214c0 -112 -63 -189 -170 -216v-105l-118 -3v98c-66 3 -124 21 -171 51v132h3c57 -43 119 -64 190 -64c86 0 134 33 134 92c0 155 -325 98 -325 340c0 107 65 181 172 206v103h118v-97c48 -3 94 -15 131 -33v-131h-3c-48 30 -105 46 -163 46
c-78 0 -123 -30 -123 -82c0 -143 325 -83 325 -337z" />
    <glyph glyph-name="Euro" unicode="&#x20ac;" horiz-adv-x="748" 
d="M693 170h2v-132c-55 -33 -122 -51 -201 -51c-157 0 -284 90 -330 248h-138l33 93h89c-1 14 -2 28 -2 42c0 10 0 19 1 29h-101l33 93h82c42 166 172 261 331 261c77 0 144 -18 199 -51v-132h-2c-55 43 -117 63 -189 63c-97 0 -170 -49 -203 -141h262l-33 -93h-247
c-1 -9 -1 -19 -1 -29c0 -15 1 -29 2 -42h259l-33 -93h-204c35 -84 107 -128 200 -128c74 0 136 20 191 63z" />
    <glyph glyph-name="florin" unicode="&#x192;" horiz-adv-x="419" 
d="M338 634c-44 0 -68 -26 -68 -70v-89h106v-118h-106v-404c0 -106 -60 -169 -158 -169c-29 0 -57 4 -81 12v109c15 -3 29 -5 48 -5c44 0 68 26 68 70v387h-70v118h70v106c0 106 60 169 158 169c29 0 57 -4 81 -12v-109c-15 3 -29 5 -48 5z" />
    <glyph glyph-name="sterling" unicode="&#xa3;" horiz-adv-x="597" 
d="M45 114c108 37 122 96 122 147c0 17 -2 30 -8 43h-121l37 103h51c-15 43 -27 80 -27 131c0 113 82 215 247 215c75 0 124 -13 179 -46v-127h-2c-55 40 -103 53 -168 53c-81 0 -124 -36 -124 -97c0 -40 15 -80 31 -129h233l-37 -103h-168c4 -11 5 -20 5 -29
c0 -57 -19 -112 -93 -151h363v-124h-520v114z" />
    <glyph glyph-name="yen" unicode="&#xa5;" horiz-adv-x="713" 
d="M690 740l-231 -357h143v-93h-180v-71h180v-93h-180v-126h-131v126h-180v93h180v71h-180v93h143l-231 357h153l180 -284l181 284h153z" />
    <glyph glyph-name="plus" unicode="+" horiz-adv-x="656" 
d="M269 287h-219v118h219v219h118v-219h219v-118h-219v-219h-118v219z" />
    <glyph glyph-name="minus" unicode="&#x2212;" horiz-adv-x="656" 
d="M50 287v118h556v-118h-556z" />
    <glyph glyph-name="multiply" unicode="&#xd7;" horiz-adv-x="656" 
d="M173 108l-83 83l155 155l-155 155l83 83l155 -155l155 155l83 -83l-155 -155l155 -155l-83 -83l-155 155z" />
    <glyph glyph-name="divide" unicode="&#xf7;" horiz-adv-x="656" 
d="M328 482c-44 0 -78 34 -78 78s34 77 78 77s77 -33 77 -77s-33 -78 -77 -78zM50 405h556v-118h-556v118zM328 55c-44 0 -78 34 -78 78s34 77 78 77s77 -33 77 -77s-33 -78 -77 -78z" />
    <glyph glyph-name="equal" unicode="=" horiz-adv-x="656" 
d="M61 523h534v-118h-534v118zM61 287h534v-118h-534v118z" />
    <glyph glyph-name="notequal" unicode="&#x2260;" horiz-adv-x="656" 
d="M595 405h-181l-42 -118h223v-118h-266l-36 -101h-118l36 101h-150v118h193l42 118h-235v118h278l36 101h118l-36 -101h138v-118z" />
    <glyph glyph-name="greater" unicode="&#x3e;" horiz-adv-x="656" 
d="M121 152l242 193l-242 193l78 87l342 -279v-2l-342 -279z" />
    <glyph glyph-name="less" unicode="&#x3c;" horiz-adv-x="656" 
d="M115 344v2l342 279l78 -87l-242 -193l242 -193l-78 -87z" />
    <glyph glyph-name="plusminus" unicode="&#xb1;" horiz-adv-x="656" 
d="M269 407h-219v118h219v189h118v-189h219v-118h-219v-189h-118v189zM50 159h556v-118h-556v118z" />
    <glyph glyph-name="approxequal" unicode="&#x2248;" horiz-adv-x="656" 
d="M60 495c35 32 82 51 138 51c86 0 173 -53 259 -53c56 0 103 19 138 55v-121c-35 -32 -82 -51 -138 -51c-86 0 -173 53 -259 53c-56 0 -103 -19 -138 -55v121zM60 260c35 32 82 51 138 51c86 0 173 -53 259 -53c56 0 103 19 138 55v-121c-35 -32 -82 -51 -138 -51
c-86 0 -173 53 -259 53c-56 0 -103 -19 -138 -55v121z" />
    <glyph glyph-name="logicalnot" unicode="&#xac;" horiz-adv-x="662" 
d="M477 287h-438v118h556v-338h-118v220z" />
    <glyph glyph-name="asciitilde" unicode="~" horiz-adv-x="637" 
d="M54 380c35 32 82 51 138 51c86 0 173 -53 259 -53c56 0 103 19 138 55v-121c-35 -32 -82 -51 -138 -51c-86 0 -173 53 -259 53c-56 0 -103 -19 -138 -55v121z" />
    <glyph glyph-name="asciicircum" unicode="^" horiz-adv-x="580" 
d="M289 637l-135 -301h-130l194 404h144l194 -404h-130z" />
    <glyph glyph-name="uni00B5" unicode="&#xb5;" horiz-adv-x="581" 
d="M392 475h123v-267c0 -159 -91 -217 -191 -217c-56 0 -98 18 -128 46v-275l-123 -30v743h123v-252c0 -84 37 -114 100 -114c67 0 96 42 96 110v256z" />
    <glyph glyph-name="percent" unicode="%" horiz-adv-x="876" 
d="M215 386c-103 0 -189 84 -189 187s86 187 189 187s189 -84 189 -187s-86 -187 -189 -187zM590 740h107l-406 -740h-107zM215 495c43 0 76 35 76 78s-33 77 -76 77s-76 -34 -76 -77s33 -78 76 -78zM660 -14c-103 0 -189 84 -189 187s86 187 189 187s189 -84 189 -187
s-86 -187 -189 -187zM660 95c43 0 76 35 76 78s-33 77 -76 77s-76 -34 -76 -77s33 -78 76 -78z" />
    <glyph glyph-name="perthousand" unicode="&#x2030;" horiz-adv-x="1285" 
d="M404 573c0 -103 -86 -187 -189 -187s-189 84 -189 187s86 187 189 187s189 -84 189 -187zM590 740h107l-406 -740h-107zM215 495c43 0 76 35 76 78s-33 77 -76 77s-76 -34 -76 -77s33 -78 76 -78zM849 173c0 -103 -86 -187 -189 -187s-189 84 -189 187s86 187 189 187
s189 -84 189 -187zM1259 173c0 -103 -86 -187 -189 -187s-189 84 -189 187s86 187 189 187s189 -84 189 -187zM660 95c43 0 76 35 76 78s-33 77 -76 77s-76 -34 -76 -77s33 -78 76 -78zM1070 95c43 0 76 35 76 78s-33 77 -76 77s-76 -34 -76 -77s33 -78 76 -78z" />
    <glyph glyph-name="uniF8FF" unicode="&#xf8ff;" horiz-adv-x="894" 
d="M611 717v-120h-246v-189c130 -46 253 -159 392 -159c26 0 47 4 47 4s-21 -32 -97 -32c-112 0 -242 61 -342 113v-334h-126v386s-24 10 -52 10c-42 0 -78 -18 -78 -57c0 -26 15 -49 37 -57c-35 2 -56 26 -56 63c0 52 45 90 126 90c6 0 14 0 23 -2v284h372z" />
    <glyph glyph-name="at" unicode="@" horiz-adv-x="989" 
d="M491 644c262 0 459 -205 459 -455c0 -68 -15 -132 -41 -189h-339v34c-26 -26 -62 -41 -108 -41c-109 0 -203 87 -203 204c0 116 91 205 203 205c46 0 82 -15 108 -41v33h113v-294h141c7 28 11 58 11 88c0 192 -147 357 -344 357s-344 -165 -344 -352s148 -343 350 -343
c73 0 164 20 217 63h2v-111c-55 -34 -147 -51 -222 -51c-259 0 -461 200 -461 445c0 243 197 448 458 448zM472 100c59 0 98 45 98 98c0 54 -42 97 -98 97c-58 0 -98 -47 -98 -98s40 -97 98 -97z" />
    <glyph glyph-name="ampersand" unicode="&#x26;" horiz-adv-x="731" 
d="M748 0h-172l-94 94c-41 -41 -113 -103 -229 -103c-133 0 -219 81 -219 207c0 99 56 169 143 211c-27 39 -48 87 -48 151c0 107 81 194 208 194c126 0 192 -77 192 -170c0 -85 -49 -143 -159 -203l115 -116l166 164v-164l-83 -84zM338 639c-48 0 -79 -29 -79 -77
c0 -38 10 -68 37 -103c82 43 109 77 109 115c0 34 -20 65 -67 65zM263 116c53 0 95 28 134 64l-145 146c-62 -32 -88 -65 -88 -115c0 -57 37 -95 99 -95z" />
    <glyph glyph-name="paragraph" unicode="&#xb6;" horiz-adv-x="751" 
d="M502 640h-103v-859l-107 -26v494c-149 15 -267 95 -267 243c0 124 83 248 273 248h416v-100h-105v-833l-107 -26v859zM292 642c-115 0 -165 -60 -165 -141c0 -84 53 -147 165 -155v296z" />
    <glyph glyph-name="section" unicode="&#xa7;" horiz-adv-x="522" 
d="M242 315c-93 35 -207 78 -207 221c0 131 98 214 252 214c62 0 122 -12 169 -35v-131h-3c-48 30 -105 46 -163 46c-78 0 -123 -30 -123 -82c0 -64 64 -87 137 -116l123 -49v-138zM279 255c93 -35 207 -78 207 -221c0 -131 -98 -214 -252 -214c-62 0 -122 12 -169 35v131h3
c48 -30 105 -46 163 -46c78 0 123 30 123 82c0 64 -64 87 -137 116l-123 49v138z" />
    <glyph glyph-name="copyright" unicode="&#xa9;" horiz-adv-x="840" 
d="M420 -12c-210 0 -382 170 -382 382s172 382 383 382s381 -172 381 -382s-171 -382 -382 -382zM420 73c164 0 293 135 293 297s-129 297 -293 297s-293 -134 -293 -297c0 -162 129 -297 293 -297zM436 161c-136 0 -220 95 -220 210c0 117 85 209 215 209
c50 0 90 -11 123 -29v-101h-2c-31 20 -69 34 -108 34c-71 0 -118 -46 -118 -113c0 -59 38 -114 121 -114c43 0 80 14 109 33h2v-101c-30 -17 -69 -28 -122 -28z" />
    <glyph glyph-name="registered" unicode="&#xae;" horiz-adv-x="840" 
d="M421 752c211 0 381 -172 381 -382s-171 -382 -382 -382c-210 0 -382 170 -382 382s172 382 383 382zM420 73c164 0 293 135 293 297s-129 297 -293 297s-293 -134 -293 -297c0 -162 129 -297 293 -297zM592 461c0 -64 -32 -118 -118 -130l124 -172h-104l-117 170h-23
v-170h-89v432h173c113 0 154 -59 154 -130zM354 506v-105h91c41 0 59 17 59 52s-19 53 -59 53h-91z" />
    <glyph glyph-name="trademark" unicode="&#x2122;" horiz-adv-x="800" 
d="M117 648h-86v92h276v-92h-85v-273h-105v273zM363 740h107l78 -125l83 125h102v-365h-107v216l-61 -103h-35l-62 102v-215h-105v365z" />
    <glyph glyph-name="degree" unicode="&#xb0;" horiz-adv-x="360" 
d="M330 600c0 -83 -67 -150 -150 -150s-150 67 -150 150s67 150 150 150s150 -67 150 -150zM243 600c0 35 -28 63 -63 63s-63 -28 -63 -63s28 -63 63 -63s63 28 63 63z" />
    <glyph glyph-name="bar" unicode="|" horiz-adv-x="280" 
d="M77 740h126v-880h-126v880z" />
    <glyph glyph-name="brokenbar" unicode="&#xa6;" horiz-adv-x="280" 
d="M76 740h127v-350h-127v350zM76 210h127v-350h-127v350z" />
    <glyph glyph-name="dagger" unicode="&#x2020;" horiz-adv-x="525" 
d="M199 411h-175v111h175v218h127v-218h175v-111h-175v-664h-127v664z" />
    <glyph glyph-name="daggerdbl" unicode="&#x2021;" horiz-adv-x="564" 
d="M218 12h-174v110h174v319h-174v110h174v189h127v-189h175v-110h-175v-319h175v-110h-175v-265h-127v265z" />
    <glyph glyph-name="uni0308" unicode="&#x308;" 
d="M-364 566c-45 0 -80 34 -80 80c0 45 35 79 80 79s80 -34 80 -79c0 -46 -35 -80 -80 -80zM-144 566c-45 0 -80 34 -80 80c0 45 35 79 80 79s80 -34 80 -79c0 -46 -35 -80 -80 -80z" />
    <glyph glyph-name="uni0307" unicode="&#x307;" 
d="M-140 572c-45 0 -80 34 -80 80c0 45 35 79 80 79s80 -34 80 -79c0 -46 -35 -80 -80 -80z" />
    <glyph glyph-name="gravecomb" unicode="&#x300;" 
d="M-345 640l47 105l238 -107l-44 -97z" />
    <glyph glyph-name="acutecomb" unicode="&#x301;" 
d="M-345 638l238 107l47 -105l-241 -99z" />
    <glyph glyph-name="uni030B" unicode="&#x30b;" 
d="M-448 607l109 138l89 -72l-114 -132zM-258 607l109 138l89 -72l-114 -132z" />
    <glyph glyph-name="caroncomb.alt" 
d="M-60 740l-35 -240h-105l30 240h110z" />
    <glyph glyph-name="uni0302" unicode="&#x302;" 
d="M-60 629l-54 -88l-135 84l-135 -84l-54 88l188 116h2z" />
    <glyph glyph-name="uni030C" unicode="&#x30c;" 
d="M-114 746l54 -88l-188 -116h-2l-188 116l54 88l135 -84z" />
    <glyph glyph-name="uni0306" unicode="&#x306;" 
d="M-244 541c-109 0 -184 82 -184 194h105c0 -53 26 -86 79 -86s79 33 79 86h105c0 -112 -76 -194 -184 -194z" />
    <glyph glyph-name="uni030A" unicode="&#x30a;" 
d="M-188 501c-75 0 -128 54 -128 122c0 67 53 122 128 122s128 -55 128 -122c0 -68 -53 -122 -128 -122zM-188 576c29 0 48 21 48 47s-19 47 -48 47s-48 -21 -48 -47s19 -47 48 -47z" />
    <glyph glyph-name="tildecomb" unicode="&#x303;" 
d="M-462 566c0 92 42 150 123 150c69 0 117 -48 152 -48c22 0 34 11 34 48h93c0 -92 -44 -150 -119 -150c-73 0 -120 48 -153 48c-24 0 -37 -14 -37 -48h-93z" />
    <glyph glyph-name="uni0304" unicode="&#x304;" 
d="M-398 701h338v-112h-338v112z" />
    <glyph glyph-name="uni0312" unicode="&#x312;" 
d="M-137 547c-44 0 -71 34 -71 85c0 77 48 141 115 157v-53c-30 -9 -54 -37 -54 -70c5 1 9 2 15 2c37 0 62 -27 62 -59s-27 -62 -67 -62z" />
    <glyph glyph-name="uni0326" unicode="&#x326;" 
d="M-143 -52c44 0 71 -34 71 -85c0 -77 -48 -141 -115 -157v53c30 9 54 37 54 70c-5 -1 -9 -2 -15 -2c-37 0 -62 27 -62 59s27 62 67 62z" />
    <glyph glyph-name="uni0327" unicode="&#x327;" 
d="M-194 -253c-51 0 -74 9 -99 23v73h1c20 -11 54 -19 89 -19s48 9 48 30c0 20 -16 31 -42 31h-68l46 127h80l-21 -59h1c56 0 99 -37 99 -99s-50 -107 -134 -107z" />
    <glyph glyph-name="uni0328" unicode="&#x328;" 
d="M-121 -220c-68 0 -110 40 -110 95s42 90 76 112l21 14l79 -1l-46 -48c-8 -9 -34 -34 -34 -62c0 -20 13 -32 37 -32c15 0 27 4 37 11h1v-73c-15 -10 -35 -16 -61 -16z" />
    <glyph glyph-name="uni0335" unicode="&#x335;" 
d="M-438 427h378v-112h-378v112z" />
    <glyph glyph-name="uni0336" unicode="&#x336;" 
d="M-826 649h766v-112h-766v112z" />
    <glyph glyph-name="uni0337" unicode="&#x337;" 
d="M-396 377l308 83l27 -100l-308 -83z" />
    <glyph glyph-name="uni0338" unicode="&#x338;" 
d="M-650 0l478 475h150l-477 -475h-151z" />
    <glyph glyph-name="acute" unicode="&#xb4;" horiz-adv-x="385" 
d="M60 638l238 107l47 -105l-241 -99z" />
    <glyph glyph-name="breve" unicode="&#x2d8;" horiz-adv-x="387" 
d="M244 541c-109 0 -184 82 -184 194h105c0 -53 26 -86 79 -86s79 33 79 86h105c0 -112 -76 -194 -184 -194z" />
    <glyph glyph-name="caron" unicode="&#x2c7;" horiz-adv-x="460" 
d="M384 746l54 -88l-188 -116h-2l-188 116l54 88l135 -84z" />
    <glyph glyph-name="cedilla" unicode="&#xb8;" horiz-adv-x="307" 
d="M169 -253c-51 0 -74 9 -99 23v73h1c20 -11 54 -19 89 -19s48 9 48 30c0 20 -16 31 -42 31h-68l46 127h80l-21 -59h1c56 0 99 -37 99 -99s-50 -107 -134 -107z" />
    <glyph glyph-name="circumflex" unicode="&#x2c6;" horiz-adv-x="460" 
d="M438 629l-54 -88l-135 84l-135 -84l-54 88l188 116h2z" />
    <glyph glyph-name="dieresis" unicode="&#xa8;" horiz-adv-x="465" 
d="M144 566c-45 0 -80 34 -80 80c0 45 35 79 80 79s80 -34 80 -79c0 -46 -35 -80 -80 -80zM364 566c-45 0 -80 34 -80 80c0 45 35 79 80 79s80 -34 80 -79c0 -46 -35 -80 -80 -80z" />
    <glyph glyph-name="dotaccent" unicode="&#x2d9;" horiz-adv-x="255" 
d="M140 572c-45 0 -80 34 -80 80c0 45 35 79 80 79s80 -34 80 -79c0 -46 -35 -80 -80 -80z" />
    <glyph glyph-name="grave" unicode="`" horiz-adv-x="385" 
d="M60 640l47 105l238 -107l-44 -97z" />
    <glyph glyph-name="hungarumlaut" unicode="&#x2dd;" horiz-adv-x="631" 
d="M60 607l109 138l89 -72l-114 -132zM250 607l109 138l89 -72l-114 -132z" />
    <glyph glyph-name="macron" unicode="&#xaf;" horiz-adv-x="458" 
d="M60 701h338v-112h-338v112z" />
    <glyph glyph-name="ogonek" unicode="&#x2db;" horiz-adv-x="291" 
d="M170 -220c-68 0 -110 40 -110 95s42 90 76 112l21 14l79 -1l-46 -48c-8 -9 -34 -34 -34 -62c0 -20 13 -32 37 -32c15 0 27 4 37 11h1v-73c-15 -10 -35 -16 -61 -16z" />
    <glyph glyph-name="ring" unicode="&#x2da;" horiz-adv-x="319" 
d="M188 501c-75 0 -128 54 -128 122c0 67 53 122 128 122s128 -55 128 -122c0 -68 -53 -122 -128 -122zM188 576c29 0 48 21 48 47s-19 47 -48 47s-48 -21 -48 -47s19 -47 48 -47z" />
    <glyph glyph-name="tilde" unicode="&#x2dc;" horiz-adv-x="462" 
 />
    <glyph glyph-name="caron.alt" horiz-adv-x="600" 
d="M200 740l-35 -240h-105l30 240h110z" />
    <glyph glyph-name="uni0308.case" 
d="M-384 827c-47 0 -84 36 -84 83s37 83 84 83s84 -36 84 -83s-37 -83 -84 -83zM-144 827c-47 0 -84 36 -84 83s37 83 84 83s84 -36 84 -83s-37 -83 -84 -83z" />
    <glyph glyph-name="uni0307.case" 
d="M-147 824c-49 0 -87 37 -87 86s38 86 87 86s87 -37 87 -86s-38 -86 -87 -86z" />
    <glyph glyph-name="gravecomb.case" 
d="M-345 905l47 105l238 -107l-44 -97z" />
    <glyph glyph-name="acutecomb.case" 
d="M-345 903l238 107l47 -105l-241 -99z" />
    <glyph glyph-name="uni030B.case" 
d="M-448 872l109 138l89 -72l-114 -132zM-258 872l109 138l89 -72l-114 -132z" />
    <glyph glyph-name="uni0302.case" 
d="M-60 894l-54 -88l-135 84l-135 -84l-54 88l188 116h2z" />
    <glyph glyph-name="uni030C.case" 
d="M-114 1010l54 -88l-188 -116h-2l-188 116l54 88l135 -84z" />
    <glyph glyph-name="uni0306.case" 
d="M-244 806c-109 0 -184 82 -184 194h105c0 -53 26 -86 79 -86s79 33 79 86h105c0 -112 -76 -194 -184 -194z" />
    <glyph glyph-name="uni030A.case" 
d="M-188 766c-75 0 -128 54 -128 122c0 67 53 122 128 122s128 -55 128 -122c0 -68 -53 -122 -128 -122zM-188 841c29 0 48 21 48 47s-19 47 -48 47s-48 -21 -48 -47s19 -47 48 -47z" />
    <glyph glyph-name="tildecomb.case" 
d="M-409 944c24 25 55 39 94 39c64 0 109 -40 175 -40c37 0 70 14 93 41v-106c-23 -24 -56 -39 -93 -39c-66 0 -111 40 -175 40c-38 0 -70 -14 -94 -41v106z" />
    <glyph glyph-name="uni0304.case" 
d="M-398 965h338v-112h-338v112z" />
    <glyph glyph-name="uni0337.case" 
d="M-429 352l321 150l48 -101l-321 -150z" />
    <glyph glyph-name="uni0338.case" 
d="M-933 0l782 740h173l-782 -740h-173z" />
    <glyph glyph-name="acute.case" horiz-adv-x="600" 
d="M60 903l238 107l47 -105l-241 -99z" />
    <glyph glyph-name="breve.case" horiz-adv-x="600" 
d="M244 806c-109 0 -184 82 -184 194h105c0 -53 26 -86 79 -86s79 33 79 86h105c0 -112 -76 -194 -184 -194z" />
    <glyph glyph-name="caron.case" horiz-adv-x="600" 
d="M384 1010l54 -88l-188 -116h-2l-188 116l54 88l135 -84z" />
    <glyph glyph-name="circumflex.case" horiz-adv-x="600" 
d="M438 894l-54 -88l-135 84l-135 -84l-54 88l188 116h2z" />
    <glyph glyph-name="dieresis.case" horiz-adv-x="600" 
d="M144 827c-47 0 -84 36 -84 83s37 83 84 83s84 -36 84 -83s-37 -83 -84 -83zM384 827c-47 0 -84 36 -84 83s37 83 84 83s84 -36 84 -83s-37 -83 -84 -83z" />
    <glyph glyph-name="dotaccent.case" horiz-adv-x="600" 
d="M147 824c-49 0 -87 37 -87 86s38 86 87 86s87 -37 87 -86s-38 -86 -87 -86z" />
    <glyph glyph-name="grave.case" horiz-adv-x="600" 
d="M60 905l47 105l238 -107l-44 -97z" />
    <glyph glyph-name="hungarumlaut.case" horiz-adv-x="600" 
d="M60 872l109 138l89 -72l-114 -132zM250 872l109 138l89 -72l-114 -132z" />
    <glyph glyph-name="macron.case" horiz-adv-x="600" 
d="M60 965h338v-112h-338v112z" />
    <glyph glyph-name="ring.case" horiz-adv-x="600" 
d="M188 766c-75 0 -128 54 -128 122c0 67 53 122 128 122s128 -55 128 -122c0 -68 -53 -122 -128 -122zM188 841c29 0 48 21 48 47s-19 47 -48 47s-48 -21 -48 -47s19 -47 48 -47z" />
    <glyph glyph-name="tilde.case" horiz-adv-x="600" 
d="M51 944c24 25 55 39 94 39c64 0 109 -40 175 -40c37 0 70 14 93 41v-106c-23 -24 -56 -39 -93 -39c-66 0 -111 40 -175 40c-38 0 -70 -14 -94 -41v106z" />
    </font>
</defs>
</svg>
