<svg xmlns="http://www.w3.org/2000/svg" xmlns:xlink="http://www.w3.org/1999/xlink" width="76" height="46" viewBox="0 0 76 46">
    <defs>
        <path id="a" d="M0 .002h24.157V36.41H0z"/>
    </defs>
    <g fill="none" fill-rule="evenodd">
        <path fill="#00ADEE" d="M50.48 11.71c-.307.86-.73 1.258-1.329 1.97-.66.787-1.006 1.182-1.441 1.653-.607.654-1.015 1.142-1.015 1.142s-.55-1.414-1.296-2.142c-.588-.578-2.672-2.508-2.943-4.388-.18-1.256.368-1.8 1.368-1.57.492.114 1.237.44 1.772.911.477.421 1.045 1.815 1.045 1.815s-.887 2.377.185 2.512c.969.121.674-2.374.674-2.374s.924-.613 1.373-1.138c.177-.207.812.143 1.124.298.55.27.648.852.483 1.31m-.991-4.15c-1.578.239-2.397 2.818-2.397 2.818-.603-1.957-.999-3.966-2.843-4.849-1.846-.881-3.483.25-3.891 1.233-.383.92-.418 1.986-.246 3.052.142.904.432 1.521 1.015 2.4.801 1.217 3.071 2.61 3.976 3.287.654.49.846 1.825.846 1.825-.085.267-.564 1.29.024 1.42.783.173.908-.926.908-.926s2.667-2.322 4.27-4.77c.413-.632.983-1.078 1.184-1.69.901-2.722-.812-4.11-2.846-3.8M53.87 10.247s2.406-1.363 3.548-.461c1.142.902-.324 1.668-1.135 1.554-.808-.111-2.414-1.093-2.414-1.093M52.567 6.539s.682-2.107 1.625-2.826c.944-.721 2.67-1.329 3.044.118.331 1.267-4.669 2.708-4.669 2.708M49.262 5.595s-.202-.6-.182-1.482c.022-.882.421-1.843 1.226-1.323.798.521.528 1.002-.107 1.212 0 0-.257 1.052-.937 1.593M38.896 5.068s-.18-.48-.74-1.023c-.562-.541-1.078-.36-1.292.133-.212.49.209.828.83.828.623 0 1.023.282 1.202.062M41.35 3.721c.488 0 .285-1.428.086-2.108C41.232.938 40.92-.073 40.04.004c-.882.078-.361 2.59.38 3.16.744.575.93.557.93.557"/>
        <g transform="translate(0 7.297)">
            <mask id="b" fill="#fff">
                <use xlink:href="#a"/>
            </mask>
            <path fill="#EB008B" d="M13.703 3.853s1.436-1.389 3.807-2.607C19.88.033 20.956-.272 22.511.24c1.559.51 2.512 3.688.518 4.708-1.991 1.021-3.282-.322-3.282-.322s-3.08 1.802-4.298 2.912c0 0 .717 1.93 1.214 4.427.499 2.499.997 12.163-.237 16.613-1.243 4.49-3.308 7.832-8.215 7.832-4.908 0-7.467-3.54-7.953-6.779-.483-3.245-.309-4.715.697-6.34 1.004-1.624 1.784-1.425 2.56-1.305.78.128 1.724 1.437 1.675 2.996-.051 1.554-1.244 2.47-1.244 2.47s-.115 5.39 3.968 5.39c4.082 0 5.33-4.472 5.595-7.847.268-3.375.224-6.51-.222-9.29-.383-2.378-1.925-4.836-1.925-4.836s-2.644 2.151-4.731 2.104c-2.089-.049-4.92-1.687-5.07-4.373-.147-2.682 2.387-4.47 3.827-3.625 1.44.843 1.292 2.234.2 3.525 0 0 2.25.725 4.355-1.375 0 0-1.156-3.633.713-4.437 1.864-.803 3.047 1.165 3.047 1.165" mask="url(#b)"/>
        </g>
        <path fill="#EB008B" d="M21.973 33.211c.7.28 1.495-4.36 1.62-6.62.124-2.259.698-5.91 2.294-5.849 1.597.062 1.347 3.258 1.198 5.064-.146 1.808-.518 6.514-2.045 9.12-1.52 2.607-4.232 2.175-5.829-.325-1.599-2.497-1.995-10.585.858-10.824 0 0 1.036-.073 1.125 1.407.088 1.48-.41 7.552.779 8.027"/>
        <path fill="#EB008B" d="M27.309 40.36c.088.92 3.623-.965 3.391-4.01-.16-2.103-.253-3.122-1.318-5.627-1.066-2.506-2.275-7.29-1.096-10.824 1.18-3.534 3.242-4.488 5.738-2.862 2.497 1.625 1.135 4.674.746 5.171-.39.496-1.506 1.257-2.177.342-.67-.916-.033-2.358-.946-2.427-.912-.074-1.14 4.145.162 6.705 1.304 2.561 3.72 6.491 2.71 10.781-1.012 4.284-4.986 6.745-9.12 5.49-3.018-.915-2.7-5.618-.574-5.686 1.994-.06 2.359 1.64 2.484 2.948"/>
        <path fill="#EB008B" d="M42.15 36.067c.351 1.918-.683 2.683-1.587 2.944-1.589.466-4.228-.95-4.279-4.915-.054-3.962.206-5.637.206-5.637s-2.517-.306-2.517-1.937c0-1.636 2.442-1.527 2.442-1.527s.081-4.815-.09-7.76c-.175-2.945-.893-5.827.982-5.846 1.87-.021 2.426 4.102 2.504 7.313.08 3.21.08 6.301.08 6.301s1.345.342 2.141.478c.794.135 1.906.556 1.034 1.645-.875 1.091-3.2.667-3.2.667s-1.14 5.737-.517 6.707c.62.972 2.214-1.666 2.802 1.567M46.077 20.328c1.225.028 1.01 7.37 1.11 11.29.107 3.924.336 6.736-1.895 7.017-2.229.285-1.512-6.435-1.374-8.766.135-2.327.455-9.582 2.16-9.54M54.876 20.367s.833 2.142 2.616 1.823c1.785-.318 1.35-2.535.674-4.085-.674-1.545-2.05-2.886-4.61-1.321-2.563 1.561-5.1 5.051-5.418 11.988-.319 6.936 2.315 9.316 5.933 8.383 3.62-.931 4.672-8.582 1.756-8.541-2.893.038-.617 5.295-2.815 5.232-2.194-.063-1.487-7.3-.792-9.355.952-2.817 2.656-4.124 2.656-4.124M62.496 26.904c.41-2.907 3.196-4.425 3.88-3.818.68.605.309 1.452-.593 2.53-.902 1.078-3.387 2-3.287 1.288m5.034 9.258c-3.058-.015-4.066.777-5.328-2.056-.748-1.68-.489-3.211-.489-3.211s3.942.287 6.026-1.455c2.083-1.737 3.51-4.869 2.716-7.486-.79-2.62-2.724-3.687-5.782-2.063-3.057 1.627-5.12 4.868-5.832 8.501-.715 3.63-.865 7.749 1.333 10.347 2.193 2.601 6.247 2.976 8.424 1.838 2.174-1.14 1.992-4.395-1.068-4.415M71.877 39.174h-.798v-.289h1.941v.289h-.801v2.334h-.342zM75.527 40.355c-.02-.363-.042-.804-.038-1.13h-.012c-.09.307-.199.638-.331.996l-.464 1.272h-.256l-.424-1.25c-.126-.369-.23-.708-.305-1.018h-.007c-.008.326-.027.767-.051 1.16l-.07 1.123h-.322l.182-2.623h.432l.448 1.27c.109.322.198.61.265.883h.01c.068-.266.16-.554.277-.882l.468-1.27h.432l.164 2.622h-.33l-.068-1.153z"/>
    </g>
</svg>
