<svg xmlns="http://www.w3.org/2000/svg" id="Layer_1" data-name="Layer 1" viewBox="0 0 96 56.7"><defs><style>.cls-1{fill:#00aeef;}.cls-2{fill:#ec008c;}</style></defs><title>Site_Logo</title><path class="cls-1" d="M66.2,10c-2,.31-3.11,3.66-3.11,3.66-0.78-2.54-1.29-5.15-3.69-6.29a3.75,3.75,0,0,0-5,1.6,7.32,7.32,0,0,0-.32,4A7.23,7.23,0,0,0,55.35,16c1,1.57,4,3.38,5.16,4.26a4.29,4.29,0,0,1,1.09,2.37c-0.11.35-.73,1.68,0,1.85,1,0.22,1.18-1.2,1.18-1.2a35.93,35.93,0,0,0,5.54-6.19,11.35,11.35,0,0,0,1.54-2.2C71.06,11.35,68.84,9.56,66.2,10Zm1.29,5.38a7.68,7.68,0,0,1-1.72,2.56c-0.85,1-1.3,1.53-1.87,2.15-0.79.85-1.31,1.48-1.31,1.48a9.53,9.53,0,0,0-1.68-2.78c-0.77-.75-3.47-3.25-3.82-5.69-0.23-1.63.48-2.34,1.77-2a5.8,5.8,0,0,1,2.3,1.18,8.94,8.94,0,0,1,1.35,2.35s-1.15,3.08.24,3.26,0.87-3.08.87-3.08a10.63,10.63,0,0,0,1.78-1.47c0.23-.27,1.05.18,1.46,0.38A1.33,1.33,0,0,1,67.48,15.34Z" transform="translate(-2 -0.15)"/><path class="cls-1" d="M71.88,13.44s3.12-1.77,4.6-.6S76.06,15,75,14.86A12.51,12.51,0,0,1,71.88,13.44Z" transform="translate(-2 -0.15)"/><path class="cls-1" d="M70.19,8.63S71.08,5.9,72.3,5s3.46-1.72,4,.16C76.68,6.76,70.19,8.63,70.19,8.63Z" transform="translate(-2 -0.15)"/><path class="cls-1" d="M65.9,7.41a6.22,6.22,0,0,1-.23-1.92c0-1.14.55-2.39,1.59-1.72s0.69,1.3-.14,1.57A4.29,4.29,0,0,1,65.9,7.41Z" transform="translate(-2 -0.15)"/><path class="cls-1" d="M52.46,6.73a4.05,4.05,0,0,0-1-1.33c-0.73-.7-1.4-0.47-1.67.17s0.27,1.08,1.08,1.08S52.23,7,52.46,6.73Z" transform="translate(-2 -0.15)"/><path class="cls-1" d="M55.64,5c0.63,0,.37-1.85.11-2.73S55.09,0.05,53.94.16s-0.47,3.36.49,4.1A2.75,2.75,0,0,0,55.64,5Z" transform="translate(-2 -0.15)"/><path class="cls-2" d="M19.78,14.61a22.4,22.4,0,0,1,4.94-3.38c3.08-1.58,4.47-2,6.49-1.31s3.26,4.78.67,6.11a3.59,3.59,0,0,1-4.26-.42A46.52,46.52,0,0,0,22,19.4a42.15,42.15,0,0,1,1.57,5.74c0.65,3.24,1.29,15.78-.31,21.55S19,56.85,12.65,56.85a10.09,10.09,0,0,1-10.31-8.8c-0.63-4.21-.4-6.11.9-8.22S5.55,38,6.56,38.14,8.8,40,8.73,42a4.53,4.53,0,0,1-1.61,3.21s-0.15,7,5.15,7,6.91-5.8,7.26-10.18A51.37,51.37,0,0,0,19.24,30a19.94,19.94,0,0,0-2.5-6.27s-3.43,2.79-6.14,2.73S4.22,24.25,4,20.77s3.09-5.8,5-4.7,1.68,2.9.26,4.58a5.83,5.83,0,0,0,5.65-1.79s-1.5-4.71.92-5.75S19.78,14.61,19.78,14.61Z" transform="translate(-2 -0.15)"/><path class="cls-2" d="M30.5,43.23c0.91,0.36,1.94-5.66,2.1-8.59s0.91-7.66,3-7.59,1.75,4.23,1.56,6.57-0.67,8.45-2.65,11.83S29,48.28,26.92,45,24.33,31.3,28,31c0,0,1.34-.09,1.46,1.83S29,42.62,30.5,43.23Z" transform="translate(-2 -0.15)"/><path class="cls-2" d="M37.43,52.51c0.12,1.19,4.7-1.25,4.4-5.21A18.37,18.37,0,0,0,40.12,40c-1.38-3.25-3-9.45-1.42-14s4.2-5.82,7.44-3.71,1.47,6.06,1,6.71-2,1.63-2.82.44,0-3.06-1.23-3.15-1.48,5.38.21,8.7,4.83,8.42,3.52,14-6.47,8.75-11.83,7.13c-3.91-1.19-3.5-7.29-.74-7.38C36.79,48.61,37.26,50.81,37.43,52.51Z" transform="translate(-2 -0.15)"/><path class="cls-2" d="M56.68,46.94c0.45,2.49-.89,3.48-2.06,3.82-2.07.6-5.49-1.23-5.55-6.38a50.31,50.31,0,0,1,.27-7.31s-3.26-.4-3.26-2.52,3.17-2,3.17-2,0.1-6.25-.12-10.07S48,15,50.39,14.92s3.15,5.32,3.25,9.49,0.1,8.18.1,8.18,1.75,0.44,2.78.62,2.47,0.72,1.34,2.13-4.15.86-4.15,0.86-1.48,7.44-.67,8.7S55.92,42.74,56.68,46.94Z" transform="translate(-2 -0.15)"/><path class="cls-2" d="M61.77,26.52c1.59,0,1.31,9.56,1.44,14.65s0.43,8.74-2.46,9.1-2-8.35-1.79-11.37S59.56,26.47,61.77,26.52Z" transform="translate(-2 -0.15)"/><path class="cls-2" d="M73.19,26.57s1.08,2.78,3.39,2.37,1.75-3.29.87-5.3-2.66-3.75-6-1.72-6.62,6.55-7,15.55,3,12.08,7.7,10.88,6.06-11.13,2.28-11.08-0.8,6.87-3.65,6.79-1.93-9.47-1-12.14A11.83,11.83,0,0,1,73.19,26.57Z" transform="translate(-2 -0.15)"/><path class="cls-2" d="M95.93,49.47a2.11,2.11,0,1,1-2.09,2.1,2.07,2.07,0,0,1,2.09-2.1h0Zm0,0.33a1.78,1.78,0,0,0,0,3.56,1.78,1.78,0,0,0,0-3.56h0Zm-0.39,3H95.16V50.45a4.15,4.15,0,0,1,.66-0.06,1.24,1.24,0,0,1,.73.18,0.56,0.56,0,0,1,.21.49,0.58,0.58,0,0,1-.46.57v0a0.56,0.56,0,0,1,.39.57,1.89,1.89,0,0,0,.15.58H96.46a1.75,1.75,0,0,1-.16-0.6,0.44,0.44,0,0,0-.51-0.41H95.53v1Zm0-1.3H95.8a0.47,0.47,0,0,0,.57-0.4,0.46,0.46,0,0,0-.57-0.41l-0.27,0V51.5Z" transform="translate(-2 -0.15)"/><path class="cls-2" d="M89.6,47.06c-4,0-5.27,1-6.91-2.67a8,8,0,0,1-.63-4.17s5.11,0.38,7.82-1.88S94.43,32,93.4,28.63,89.86,23.85,85.9,26s-6.64,6.31-7.57,11S77.21,47,80.06,50.41A9.66,9.66,0,0,0,91,52.79C93.81,51.31,93.57,47.09,89.6,47.06Zm-6.53-12c0.53-3.77,4.15-5.74,5-5s0.4,1.89-.77,3.28S82.94,36,83.07,35.05Z" transform="translate(-2 -0.15)"/><script xmlns=""/></svg>
